<?xml version="1.0" encoding="UTF-8" standalone="no"?>
<!DOCTYPE svg PUBLIC "-//W3C//DTD SVG 1.1//EN"
 "http://www.w3.org/Graphics/SVG/1.1/DTD/svg11.dtd">
<!-- Generated by graphviz version 2.40.1 (20161225.0304)
 -->
<!-- Title: statictea Pages: 1 -->
<svg width="720pt" height="327pt"
 viewBox="0.00 0.00 720.00 326.99" xmlns="http://www.w3.org/2000/svg" xmlns:xlink="http://www.w3.org/1999/xlink">
<g id="graph0" class="graph" transform="scale(.2386 .2386) rotate(0) translate(4 1366.2115)">
<title>statictea</title>
<polygon fill="#ffffff" stroke="transparent" points="-4,4 -4,-1366.2115 3013.0295,-1366.2115 3013.0295,4 -4,4"/>
<!-- runFunction -->
<g id="node1" class="node">
<title>runFunction</title>
<g id="a_node1"><a xlink:href="runFunction.md" xlink:title="runFunction.md">
<ellipse fill="#eee8aa" stroke="#000000" cx="2096.7014" cy="-867" rx="94.055" ry="22.7556"/>
<text text-anchor="middle" x="2096.7014" y="-859.8" font-family="Times,serif" font-size="24.00" fill="#000000">runFunction</text>
</a>
</g>
</g>
<!-- parseNumber -->
<g id="node3" class="node">
<title>parseNumber</title>
<g id="a_node3"><a xlink:href="parseNumber.md" xlink:title="parseNumber.md">
<polygon fill="#98fb98" stroke="#000000" points="1997.0819,-740.8581 1997.0819,-761.1419 1931.8367,-775.4846 1839.5661,-775.4846 1774.3209,-761.1419 1774.3209,-740.8581 1839.5661,-726.5154 1931.8367,-726.5154 1997.0819,-740.8581"/>
<polygon fill="none" stroke="#000000" points="2001.0886,-737.6442 2001.0886,-764.3558 1932.2727,-779.4835 1839.13,-779.4835 1770.3142,-764.3558 1770.3142,-737.6442 1839.13,-722.5165 1932.2727,-722.5165 2001.0886,-737.6442"/>
<text text-anchor="middle" x="1885.7014" y="-743.8" font-family="Times,serif" font-size="24.00" fill="#000000">parseNumber</text>
</a>
</g>
</g>
<!-- runFunction&#45;&gt;parseNumber -->
<g id="edge60" class="edge">
<title>runFunction&#45;&gt;parseNumber</title>
<path fill="none" stroke="#000000" d="M2058.9788,-846.2615C2027.3979,-828.8995 1981.7653,-803.8124 1945.2559,-783.7409"/>
<polygon fill="#000000" stroke="#000000" points="1946.6338,-780.5044 1936.1846,-778.7538 1943.2614,-786.6385 1946.6338,-780.5044"/>
</g>
<!-- regexes -->
<g id="node4" class="node">
<title>regexes</title>
<g id="a_node4"><a xlink:href="regexes.md" xlink:title="regexes.md">
<polygon fill="#98fb98" stroke="#000000" points="1606.8884,-383.8581 1606.8884,-404.1419 1566.9454,-418.4846 1510.4574,-418.4846 1470.5144,-404.1419 1470.5144,-383.8581 1510.4574,-369.5154 1566.9454,-369.5154 1606.8884,-383.8581"/>
<polygon fill="none" stroke="#000000" points="1610.8795,-381.0434 1610.8795,-406.9566 1567.639,-422.4835 1509.7638,-422.4835 1466.5233,-406.9566 1466.5233,-381.0434 1509.7638,-365.5165 1567.639,-365.5165 1610.8795,-381.0434"/>
<text text-anchor="middle" x="1538.7014" y="-386.8" font-family="Times,serif" font-size="24.00" fill="#000000">regexes</text>
</a>
</g>
</g>
<!-- runFunction&#45;&gt;regexes -->
<g id="edge59" class="edge">
<title>runFunction&#45;&gt;regexes</title>
<path fill="none" stroke="#000000" d="M2092.719,-844.1777C2086.5116,-813.8523 2072.166,-759.7739 2043.7014,-722.5083 1924.1427,-565.983 1707.214,-461.9776 1600.8642,-417.9232"/>
<polygon fill="#000000" stroke="#000000" points="1602.123,-414.6566 1591.5429,-414.0984 1599.4657,-421.1326 1602.123,-414.6566"/>
</g>
<!-- unicodes -->
<g id="node8" class="node">
<title>unicodes</title>
<g id="a_node8"><a xlink:href="unicodes.md" xlink:title="unicodes.md">
<ellipse fill="#eee8aa" stroke="#000000" cx="2681.7014" cy="-635" rx="71.7778" ry="22.7556"/>
<text text-anchor="middle" x="2681.7014" y="-627.8" font-family="Times,serif" font-size="24.00" fill="#000000">unicodes</text>
</a>
</g>
</g>
<!-- runFunction&#45;&gt;unicodes -->
<g id="edge69" class="edge">
<title>runFunction&#45;&gt;unicodes</title>
<path fill="none" stroke="#000000" d="M2145.572,-847.6188C2254.0384,-804.6031 2514.2278,-701.4169 2627.4897,-656.4993"/>
<polygon fill="#000000" stroke="#000000" points="2629.0058,-659.6633 2637.0112,-652.7233 2626.4252,-653.1564 2629.0058,-659.6633"/>
</g>
<!-- vartypes -->
<g id="node11" class="node">
<title>vartypes</title>
<g id="a_node11"><a xlink:href="vartypes.md" xlink:title="vartypes.md">
<ellipse fill="#eee8aa" stroke="#000000" cx="2170.7014" cy="-519" rx="68.6102" ry="22.7556"/>
<text text-anchor="middle" x="2170.7014" y="-511.8" font-family="Times,serif" font-size="24.00" fill="#000000">vartypes</text>
</a>
</g>
</g>
<!-- runFunction&#45;&gt;vartypes -->
<g id="edge58" class="edge">
<title>runFunction&#45;&gt;vartypes</title>
<path fill="none" stroke="#000000" d="M2117.4923,-844.9078C2131.5923,-828.3275 2149.0131,-804.3007 2156.7014,-779.4917 2164.1982,-755.3008 2162.6048,-747.1366 2156.7014,-722.5083 2149.1603,-691.0479 2131.2425,-689.0878 2123.7014,-657.6274 2119.013,-638.0682 2119.054,-631.9416 2123.7014,-612.3726 2128.9506,-590.2693 2140.3042,-567.4565 2150.5371,-549.913"/>
<polygon fill="#000000" stroke="#000000" points="2153.5922,-551.6241 2155.7479,-541.2509 2147.5939,-548.0158 2153.5922,-551.6241"/>
</g>
<!-- replacement -->
<g id="node13" class="node">
<title>replacement</title>
<g id="a_node13"><a xlink:href="replacement.md" xlink:title="replacement.md">
<ellipse fill="#eee8aa" stroke="#000000" cx="1392.7014" cy="-751" rx="94.4556" ry="22.7556"/>
<text text-anchor="middle" x="1392.7014" y="-743.8" font-family="Times,serif" font-size="24.00" fill="#000000">replacement</text>
</a>
</g>
</g>
<!-- runFunction&#45;&gt;replacement -->
<g id="edge83" class="edge">
<title>runFunction&#45;&gt;replacement</title>
<path fill="none" stroke="#000000" d="M2018.6712,-854.1428C1886.4771,-832.3608 1619.3684,-788.3485 1480.7083,-765.5011"/>
<polygon fill="#000000" stroke="#000000" points="1480.9798,-761.9988 1470.5438,-763.8263 1479.8417,-768.9056 1480.9798,-761.9988"/>
</g>
<!-- warnings -->
<g id="node16" class="node">
<title>warnings</title>
<g id="a_node16"><a xlink:href="warnings.md" xlink:title="warnings.md">
<ellipse fill="#eee8aa" stroke="#000000" cx="1574.7014" cy="-162" rx="73.5561" ry="22.7556"/>
<text text-anchor="middle" x="1574.7014" y="-154.8" font-family="Times,serif" font-size="24.00" fill="#000000">warnings</text>
</a>
</g>
</g>
<!-- runFunction&#45;&gt;warnings -->
<g id="edge57" class="edge">
<title>runFunction&#45;&gt;warnings</title>
<path fill="none" stroke="#000000" d="M2096.9379,-844.1757C2097.0338,-815.6537 2096.5448,-765.3742 2092.7014,-722.5083 2084.531,-631.3823 2061.7014,-610.4915 2061.7014,-519 2061.7014,-519 2061.7014,-519 2061.7014,-394 2061.7014,-331.8118 2085.32,-300.6608 2042.7014,-255.3726 1991.1851,-200.6293 1777.5579,-176.5792 1657.523,-167.215"/>
<polygon fill="#000000" stroke="#000000" points="1657.5095,-163.7039 1647.2723,-166.4333 1656.9771,-170.6837 1657.5095,-163.7039"/>
</g>
<!-- signatures -->
<g id="node22" class="node">
<title>signatures</title>
<g id="a_node22"><a xlink:href="signatures.md" xlink:title="signatures.md">
<ellipse fill="#eee8aa" stroke="#000000" cx="2283.7014" cy="-635" rx="80.2483" ry="22.7556"/>
<text text-anchor="middle" x="2283.7014" y="-627.8" font-family="Times,serif" font-size="24.00" fill="#000000">signatures</text>
</a>
</g>
</g>
<!-- runFunction&#45;&gt;signatures -->
<g id="edge72" class="edge">
<title>runFunction&#45;&gt;signatures</title>
<path fill="none" stroke="#000000" d="M2125.3255,-845.1708C2146.0318,-828.5356 2173.9102,-804.3277 2194.7014,-779.4917 2224.6089,-743.766 2251.5287,-697.0406 2267.7394,-666.5382"/>
<polygon fill="#000000" stroke="#000000" points="2270.8703,-668.1041 2272.418,-657.6229 2264.672,-664.8513 2270.8703,-668.1041"/>
</g>
<!-- opresultwarn -->
<g id="node24" class="node">
<title>opresultwarn</title>
<g id="a_node24"><a xlink:href="opresultwarn.md" xlink:title="opresultwarn.md">
<ellipse fill="#eee8aa" stroke="#000000" cx="1933.7014" cy="-278" rx="99.824" ry="22.7556"/>
<text text-anchor="middle" x="1933.7014" y="-270.8" font-family="Times,serif" font-size="24.00" fill="#000000">opresultwarn</text>
</a>
</g>
</g>
<!-- runFunction&#45;&gt;opresultwarn -->
<g id="edge84" class="edge">
<title>runFunction&#45;&gt;opresultwarn</title>
<path fill="none" stroke="#000000" d="M2094.3615,-844.1683C2091.086,-815.4263 2084.2071,-764.7058 2072.7014,-722.5083 2064.5722,-692.6941 2055.8047,-687.4486 2047.7014,-657.6274 2013.2002,-530.6597 2051.4859,-486.4607 1999.7014,-365.5083 1990.7087,-344.5042 1975.6327,-323.9526 1962.158,-308.0495"/>
<polygon fill="#000000" stroke="#000000" points="1964.5073,-305.418 1955.2983,-300.1792 1959.2303,-310.0174 1964.5073,-305.418"/>
</g>
<!-- messages -->
<g id="node25" class="node">
<title>messages</title>
<g id="a_node25"><a xlink:href="messages.md" xlink:title="messages.md">
<polygon fill="#98fb98" stroke="#000000" points="1796.4402,-27.8581 1796.4402,-48.1419 1748.5587,-62.4846 1680.8441,-62.4846 1632.9626,-48.1419 1632.9626,-27.8581 1680.8441,-13.5154 1748.5587,-13.5154 1796.4402,-27.8581"/>
<polygon fill="none" stroke="#000000" points="1800.4459,-24.883 1800.4459,-51.117 1749.1468,-66.4835 1680.256,-66.4835 1628.9568,-51.117 1628.9568,-24.883 1680.256,-9.5165 1749.1468,-9.5165 1800.4459,-24.883"/>
<text text-anchor="middle" x="1714.7014" y="-30.8" font-family="Times,serif" font-size="24.00" fill="#000000">messages</text>
</a>
</g>
</g>
<!-- runFunction&#45;&gt;messages -->
<g id="edge56" class="edge">
<title>runFunction&#45;&gt;messages</title>
<path fill="none" stroke="#000000" d="M2189.1719,-862.5356C2296.3264,-854.9 2476.7332,-834.3666 2621.7014,-779.4917 2827.8411,-701.4616 2933.7014,-614.4139 2933.7014,-394 2933.7014,-394 2933.7014,-394 2933.7014,-278 2933.7014,-254.9626 2938.8237,-208.2755 2733.7014,-133.5083 2565.5688,-72.2238 2031.1591,-48.251 1810.9561,-40.8153"/>
<polygon fill="#000000" stroke="#000000" points="1810.8216,-37.3089 1800.7105,-40.4736 1810.5882,-44.305 1810.8216,-37.3089"/>
</g>
<!-- matches -->
<g id="node26" class="node">
<title>matches</title>
<g id="a_node26"><a xlink:href="matches.md" xlink:title="matches.md">
<ellipse fill="#eee8aa" stroke="#000000" cx="1543.7014" cy="-519" rx="66.8311" ry="22.7556"/>
<text text-anchor="middle" x="1543.7014" y="-511.8" font-family="Times,serif" font-size="24.00" fill="#000000">matches</text>
</a>
</g>
</g>
<!-- runFunction&#45;&gt;matches -->
<g id="edge61" class="edge">
<title>runFunction&#45;&gt;matches</title>
<path fill="none" stroke="#000000" d="M2085.3353,-844.527C2066.8215,-808.6075 2030.1693,-740.4704 2009.7014,-722.5083 1889.7012,-617.1988 1706.6841,-559.1163 1609.5738,-534.0904"/>
<polygon fill="#000000" stroke="#000000" points="1610.147,-530.625 1599.5932,-531.5571 1608.4247,-537.4098 1610.147,-530.625"/>
</g>
<!-- opresultid -->
<g id="node2" class="node">
<title>opresultid</title>
<g id="a_node2"><a xlink:href="opresultid.md" xlink:title="opresultid.md">
<ellipse fill="#eee8aa" stroke="#000000" cx="2448.7014" cy="-278" rx="79.3758" ry="22.7556"/>
<text text-anchor="middle" x="2448.7014" y="-270.8" font-family="Times,serif" font-size="24.00" fill="#000000">opresultid</text>
</a>
</g>
</g>
<!-- opresultid&#45;&gt;messages -->
<g id="edge62" class="edge">
<title>opresultid&#45;&gt;messages</title>
<path fill="none" stroke="#000000" d="M2468.311,-256.0436C2493.4123,-225.2347 2530.1148,-168.9808 2498.7014,-133.5083 2453.7462,-82.7442 2010.1679,-53.4064 1810.838,-42.692"/>
<polygon fill="#000000" stroke="#000000" points="1810.8378,-39.1871 1800.6657,-42.15 1810.4653,-46.1772 1810.8378,-39.1871"/>
</g>
<!-- opresult -->
<g id="node32" class="node">
<title>opresult</title>
<g id="a_node32"><a xlink:href="opresult.md" xlink:title="opresult.md">
<polygon fill="#98fb98" stroke="#000000" points="2486.054,-151.8581 2486.054,-172.1419 2444.2566,-186.4846 2385.1462,-186.4846 2343.3488,-172.1419 2343.3488,-151.8581 2385.1462,-137.5154 2444.2566,-137.5154 2486.054,-151.8581"/>
<polygon fill="none" stroke="#000000" points="2490.05,-149.0019 2490.05,-174.9981 2444.9227,-190.4835 2384.4801,-190.4835 2339.3528,-174.9981 2339.3528,-149.0019 2384.4801,-133.5165 2444.9227,-133.5165 2490.05,-149.0019"/>
<text text-anchor="middle" x="2414.7014" y="-154.8" font-family="Times,serif" font-size="24.00" fill="#000000">opresult</text>
</a>
</g>
</g>
<!-- opresultid&#45;&gt;opresult -->
<g id="edge63" class="edge">
<title>opresultid&#45;&gt;opresult</title>
<path fill="none" stroke="#000000" d="M2442.0651,-255.3587C2437.4995,-239.7818 2431.3212,-218.7027 2425.9905,-200.5157"/>
<polygon fill="#000000" stroke="#000000" points="2429.3033,-199.3744 2423.1318,-190.7626 2422.5859,-201.3434 2429.3033,-199.3744"/>
</g>
<!-- cmdline -->
<g id="node5" class="node">
<title>cmdline</title>
<g id="a_node5"><a xlink:href="cmdline.md" xlink:title="cmdline.md">
<polygon fill="#98fb98" stroke="#000000" points="428.0366,-383.8581 428.0366,-404.1419 386.2494,-418.4846 327.1534,-418.4846 285.3662,-404.1419 285.3662,-383.8581 327.1534,-369.5154 386.2494,-369.5154 428.0366,-383.8581"/>
<polygon fill="none" stroke="#000000" points="432.0321,-381.0021 432.0321,-406.9979 386.9155,-422.4835 326.4873,-422.4835 281.3707,-406.9979 281.3707,-381.0021 326.4873,-365.5165 386.9155,-365.5165 432.0321,-381.0021"/>
<text text-anchor="middle" x="356.7014" y="-386.8" font-family="Times,serif" font-size="24.00" fill="#000000">cmdline</text>
</a>
</g>
</g>
<!-- parseCmdLine -->
<g id="node6" class="node">
<title>parseCmdLine</title>
<g id="a_node6"><a xlink:href="parseCmdLine.md" xlink:title="parseCmdLine.md">
<ellipse fill="#eee8aa" stroke="#000000" cx="1276.7014" cy="-635" rx="111.4463" ry="22.7556"/>
<text text-anchor="middle" x="1276.7014" y="-627.8" font-family="Times,serif" font-size="24.00" fill="#000000">parseCmdLine</text>
</a>
</g>
</g>
<!-- parseCmdLine&#45;&gt;regexes -->
<g id="edge25" class="edge">
<title>parseCmdLine&#45;&gt;regexes</title>
<path fill="none" stroke="#000000" d="M1307.4537,-613.1216C1330.2914,-596.2732 1361.6825,-571.8191 1386.7014,-547.4917 1410.4421,-524.4072 1411.8553,-514.4785 1434.7014,-490.5083 1455.1051,-469.1005 1479.2457,-446.5455 1499.1302,-428.628"/>
<polygon fill="#000000" stroke="#000000" points="1501.6929,-431.0313 1506.8051,-421.7515 1497.0217,-425.8179 1501.6929,-431.0313"/>
</g>
<!-- parseCmdLine&#45;&gt;warnings -->
<g id="edge28" class="edge">
<title>parseCmdLine&#45;&gt;warnings</title>
<path fill="none" stroke="#000000" d="M1286.4901,-612.0687C1310.8401,-555.3721 1374.2248,-409.9829 1402.7014,-365.5083 1445.7844,-298.2214 1509.0243,-229.0949 1545.6123,-191.2385"/>
<polygon fill="#000000" stroke="#000000" points="1548.5336,-193.255 1552.9984,-183.6469 1543.5164,-188.3736 1548.5336,-193.255"/>
</g>
<!-- parseCmdLine&#45;&gt;opresultwarn -->
<g id="edge29" class="edge">
<title>parseCmdLine&#45;&gt;opresultwarn</title>
<path fill="none" stroke="#000000" d="M1296.6131,-612.7029C1311.6369,-595.4403 1332.3776,-570.6465 1348.7014,-547.4917 1403.0249,-470.4356 1380.2354,-419.2456 1457.7014,-365.5083 1516.6266,-324.6325 1708.6101,-299.3605 1830.0054,-287.0574"/>
<polygon fill="#000000" stroke="#000000" points="1830.4697,-290.5285 1840.0716,-286.0504 1829.7729,-283.5632 1830.4697,-290.5285"/>
</g>
<!-- parseCmdLine&#45;&gt;messages -->
<g id="edge26" class="edge">
<title>parseCmdLine&#45;&gt;messages</title>
<path fill="none" stroke="#000000" d="M1279.7815,-612.2448C1291.5928,-533.8299 1341.1507,-272.0767 1491.7014,-133.5083 1531.4089,-96.9611 1587.2351,-73.0721 1633.0962,-58.3259"/>
<polygon fill="#000000" stroke="#000000" points="1634.2218,-61.6411 1642.7219,-55.3167 1632.133,-54.96 1634.2218,-61.6411"/>
</g>
<!-- parseCmdLine&#45;&gt;matches -->
<g id="edge27" class="edge">
<title>parseCmdLine&#45;&gt;matches</title>
<path fill="none" stroke="#000000" d="M1324.128,-614.3952C1371.6129,-593.765 1444.4251,-562.1313 1493.0265,-541.0161"/>
<polygon fill="#000000" stroke="#000000" points="1494.6321,-544.1346 1502.4092,-536.9397 1491.8427,-537.7143 1494.6321,-544.1346"/>
</g>
<!-- env -->
<g id="node7" class="node">
<title>env</title>
<g id="a_node7"><a xlink:href="env.md" xlink:title="env.md">
<ellipse fill="#eee8aa" stroke="#000000" cx="688.7014" cy="-635" rx="35.6342" ry="22.7556"/>
<text text-anchor="middle" x="688.7014" y="-627.8" font-family="Times,serif" font-size="24.00" fill="#000000">env</text>
</a>
</g>
</g>
<!-- tempFile -->
<g id="node10" class="node">
<title>tempFile</title>
<g id="a_node10"><a xlink:href="tempFile.md" xlink:title="tempFile.md">
<polygon fill="#98fb98" stroke="#000000" points="1112.2994,-508.8581 1112.2994,-529.1419 1066.8435,-543.4846 1002.5593,-543.4846 957.1034,-529.1419 957.1034,-508.8581 1002.5593,-494.5154 1066.8435,-494.5154 1112.2994,-508.8581"/>
<polygon fill="none" stroke="#000000" points="1116.3018,-505.9275 1116.3018,-532.0725 1067.4605,-547.4835 1001.9423,-547.4835 953.101,-532.0725 953.101,-505.9275 1001.9423,-490.5165 1067.4605,-490.5165 1116.3018,-505.9275"/>
<text text-anchor="middle" x="1034.7014" y="-511.8" font-family="Times,serif" font-size="24.00" fill="#000000">tempFile</text>
</a>
</g>
</g>
<!-- env&#45;&gt;tempFile -->
<g id="edge15" class="edge">
<title>env&#45;&gt;tempFile</title>
<path fill="none" stroke="#000000" d="M720.6321,-624.2949C775.949,-605.7494 890.8063,-567.2423 965.2295,-542.2911"/>
<polygon fill="#000000" stroke="#000000" points="966.6315,-545.5126 975.0003,-539.0154 964.4064,-538.8757 966.6315,-545.5126"/>
</g>
<!-- readlines -->
<g id="node14" class="node">
<title>readlines</title>
<g id="a_node14"><a xlink:href="readlines.md" xlink:title="readlines.md">
<polygon fill="#98fb98" stroke="#000000" points="892.2907,-508.8581 892.2907,-529.1419 846.2542,-543.4846 781.1486,-543.4846 735.112,-529.1419 735.112,-508.8581 781.1486,-494.5154 846.2542,-494.5154 892.2907,-508.8581"/>
<polygon fill="none" stroke="#000000" points="896.293,-505.9163 896.293,-532.0837 846.8637,-547.4835 780.5391,-547.4835 731.1098,-532.0837 731.1098,-505.9163 780.5391,-490.5165 846.8637,-490.5165 896.293,-505.9163"/>
<text text-anchor="middle" x="813.7014" y="-511.8" font-family="Times,serif" font-size="24.00" fill="#000000">readlines</text>
</a>
</g>
</g>
<!-- env&#45;&gt;readlines -->
<g id="edge19" class="edge">
<title>env&#45;&gt;readlines</title>
<path fill="none" stroke="#000000" d="M709.063,-616.1044C726.8855,-599.5651 753.2652,-575.0848 775.0781,-554.8424"/>
<polygon fill="#000000" stroke="#000000" points="777.6324,-557.247 782.5816,-547.8791 772.8708,-552.1159 777.6324,-557.247"/>
</g>
<!-- env&#45;&gt;warnings -->
<g id="edge17" class="edge">
<title>env&#45;&gt;warnings</title>
<path fill="none" stroke="#000000" d="M686.771,-612.228C685.418,-580.1696 688.2062,-522.1232 721.7014,-490.5083 854.1162,-365.5269 971.3736,-519.1197 1125.7014,-422.4917 1202.984,-374.1034 1170.1679,-307.8969 1244.7014,-255.3726 1319.1549,-202.9046 1422.4644,-179.8008 1493.5572,-169.7027"/>
<polygon fill="#000000" stroke="#000000" points="1494.3698,-173.1243 1503.8052,-168.3052 1493.424,-166.1885 1494.3698,-173.1243"/>
</g>
<!-- args -->
<g id="node23" class="node">
<title>args</title>
<g id="a_node23"><a xlink:href="args.md" xlink:title="args.md">
<ellipse fill="#eee8aa" stroke="#000000" cx="1077.7014" cy="-394" rx="39.0784" ry="22.7556"/>
<text text-anchor="middle" x="1077.7014" y="-386.8" font-family="Times,serif" font-size="24.00" fill="#000000">args</text>
</a>
</g>
</g>
<!-- env&#45;&gt;args -->
<g id="edge18" class="edge">
<title>env&#45;&gt;args</title>
<path fill="none" stroke="#000000" d="M658.0566,-623.0011C615.0965,-605.4842 540.5399,-572.2996 525.7014,-547.4917 512.7011,-525.757 509.0464,-509.5875 525.7014,-490.5083 599.2991,-406.1982 918.2717,-457.097 1024.7014,-422.4917 1030.4294,-420.6293 1036.2656,-418.1606 1041.8708,-415.4531"/>
<polygon fill="#000000" stroke="#000000" points="1043.7395,-418.4276 1051.0259,-410.7362 1040.5334,-412.205 1043.7395,-418.4276"/>
</g>
<!-- env&#45;&gt;messages -->
<g id="edge16" class="edge">
<title>env&#45;&gt;messages</title>
<path fill="none" stroke="#000000" d="M659.5487,-621.5296C651.0469,-618.0676 641.6372,-614.6745 632.7014,-612.3726 516.3003,-582.3875 180.8205,-632.3626 95.7014,-547.4917 47.0245,-498.9568 76.7014,-462.7392 76.7014,-394 76.7014,-394 76.7014,-394 76.7014,-278 76.7014,-121.1117 1268.2922,-57.2567 1618.8184,-41.8667"/>
<polygon fill="#000000" stroke="#000000" points="1619.1036,-45.3577 1628.9416,-41.4254 1618.7987,-38.3643 1619.1036,-45.3577"/>
</g>
<!-- unicodes&#45;&gt;opresultid -->
<g id="edge64" class="edge">
<title>unicodes&#45;&gt;opresultid</title>
<path fill="none" stroke="#000000" d="M2649.0203,-614.7651C2626.3396,-599.0838 2597.1711,-575.3686 2579.7014,-547.4917 2535.2828,-476.6121 2572.4213,-438.5755 2531.7014,-365.5083 2519.2378,-343.1437 2499.7453,-322.1798 2482.7817,-306.3806"/>
<polygon fill="#000000" stroke="#000000" points="2484.9568,-303.6281 2475.1999,-299.4984 2480.2519,-308.8112 2484.9568,-303.6281"/>
</g>
<!-- unicodes&#45;&gt;vartypes -->
<g id="edge68" class="edge">
<title>unicodes&#45;&gt;vartypes</title>
<path fill="none" stroke="#000000" d="M2623.0832,-621.6933C2527.3091,-599.952 2337.8851,-556.9517 2237.2208,-534.1003"/>
<polygon fill="#000000" stroke="#000000" points="2237.9933,-530.6867 2227.4665,-531.886 2236.4436,-537.513 2237.9933,-530.6867"/>
</g>
<!-- utf8decoder -->
<g id="node15" class="node">
<title>utf8decoder</title>
<g id="a_node15"><a xlink:href="utf8decoder.md" xlink:title="utf8decoder.md">
<polygon fill="#98fb98" stroke="#000000" points="2825.631,-508.8581 2825.631,-529.1419 2767.0936,-543.4846 2684.3092,-543.4846 2625.7718,-529.1419 2625.7718,-508.8581 2684.3092,-494.5154 2767.0936,-494.5154 2825.631,-508.8581"/>
<polygon fill="none" stroke="#000000" points="2829.6296,-505.7208 2829.6296,-532.2792 2767.5763,-547.4835 2683.8265,-547.4835 2621.7732,-532.2792 2621.7732,-505.7208 2683.8265,-490.5165 2767.5763,-490.5165 2829.6296,-505.7208"/>
<text text-anchor="middle" x="2725.7014" y="-511.8" font-family="Times,serif" font-size="24.00" fill="#000000">utf8decoder</text>
</a>
</g>
</g>
<!-- unicodes&#45;&gt;utf8decoder -->
<g id="edge67" class="edge">
<title>unicodes&#45;&gt;utf8decoder</title>
<path fill="none" stroke="#000000" d="M2690.2895,-612.3587C2696.2253,-596.7097 2704.2675,-575.5074 2711.1877,-557.2633"/>
<polygon fill="#000000" stroke="#000000" points="2714.5173,-558.3539 2714.7914,-547.7626 2707.9723,-555.8713 2714.5173,-558.3539"/>
</g>
<!-- unicodes&#45;&gt;opresultwarn -->
<g id="edge65" class="edge">
<title>unicodes&#45;&gt;opresultwarn</title>
<path fill="none" stroke="#000000" d="M2647.9583,-614.9107C2621.0728,-598.257 2583.0416,-573.2226 2552.7014,-547.4917 2467.5911,-475.3117 2477.5172,-419.2279 2379.7014,-365.5083 2321.0406,-333.2922 2144.297,-305.3484 2031.7141,-290.16"/>
<polygon fill="#000000" stroke="#000000" points="2032.0768,-286.6774 2021.7008,-288.8199 2031.1481,-293.6155 2032.0768,-286.6774"/>
</g>
<!-- unicodes&#45;&gt;messages -->
<g id="edge66" class="edge">
<title>unicodes&#45;&gt;messages</title>
<path fill="none" stroke="#000000" d="M2659.1346,-613.4783C2643.3562,-596.996 2623.2839,-572.8446 2612.7014,-547.4917 2586.2231,-484.0569 2593.7014,-462.7392 2593.7014,-394 2593.7014,-394 2593.7014,-394 2593.7014,-278 2593.7014,-210.9981 2602.0486,-176.5515 2550.7014,-133.5083 2494.8637,-86.7008 2018.3161,-54.8431 1810.7101,-43.0621"/>
<polygon fill="#000000" stroke="#000000" points="1810.6102,-39.551 1800.429,-42.4827 1810.2162,-46.5399 1810.6102,-39.551"/>
</g>
<!-- variables -->
<g id="node9" class="node">
<title>variables</title>
<g id="a_node9"><a xlink:href="variables.md" xlink:title="variables.md">
<ellipse fill="#eee8aa" stroke="#000000" cx="1074.7014" cy="-635" rx="72.6337" ry="22.7556"/>
<text text-anchor="middle" x="1074.7014" y="-627.8" font-family="Times,serif" font-size="24.00" fill="#000000">variables</text>
</a>
</g>
</g>
<!-- variables&#45;&gt;vartypes -->
<g id="edge49" class="edge">
<title>variables&#45;&gt;vartypes</title>
<path fill="none" stroke="#000000" d="M1126.8746,-619.1161C1136.712,-616.5458 1146.9675,-614.1492 1156.7014,-612.3726 1501.6124,-549.4189 1920.6818,-527.9672 2092.0059,-521.4965"/>
<polygon fill="#000000" stroke="#000000" points="2092.3293,-524.987 2102.1926,-521.1185 2092.0697,-517.9918 2092.3293,-524.987"/>
</g>
<!-- variables&#45;&gt;warnings -->
<g id="edge52" class="edge">
<title>variables&#45;&gt;warnings</title>
<path fill="none" stroke="#000000" d="M1109.3451,-614.905C1135.2756,-598.7958 1170.6166,-574.4814 1196.7014,-547.4917 1217.8562,-525.6031 1216.0155,-514.5391 1234.7014,-490.5083 1321.0747,-379.4285 1342.193,-349.5908 1446.7014,-255.3726 1474.2337,-230.5511 1508.2507,-205.9871 1534.2949,-188.2881"/>
<polygon fill="#000000" stroke="#000000" points="1536.4623,-191.0482 1542.8008,-182.5586 1532.5515,-185.2425 1536.4623,-191.0482"/>
</g>
<!-- variables&#45;&gt;args -->
<g id="edge53" class="edge">
<title>variables&#45;&gt;args</title>
<path fill="none" stroke="#000000" d="M1092.1606,-612.7363C1104.2102,-595.8851 1119.1896,-571.5973 1125.7014,-547.4917 1132.3061,-523.0421 1131.4941,-515.1629 1125.7014,-490.5083 1120.1359,-466.8207 1107.8403,-442.2977 1097.0874,-423.8993"/>
<polygon fill="#000000" stroke="#000000" points="1099.9657,-421.8942 1091.8094,-415.1321 1093.9686,-425.5046 1099.9657,-421.8942"/>
</g>
<!-- variables&#45;&gt;opresultwarn -->
<g id="edge54" class="edge">
<title>variables&#45;&gt;opresultwarn</title>
<path fill="none" stroke="#000000" d="M1117.0682,-616.494C1150.706,-600.7362 1198.017,-576.1339 1234.7014,-547.4917 1321.4648,-479.7493 1305.8022,-417.7335 1402.7014,-365.5083 1474.7431,-326.6803 1696.85,-300.0142 1829.8999,-287.0477"/>
<polygon fill="#000000" stroke="#000000" points="1830.4955,-290.5066 1840.1131,-286.0622 1829.8231,-283.539 1830.4955,-290.5066"/>
</g>
<!-- variables&#45;&gt;messages -->
<g id="edge51" class="edge">
<title>variables&#45;&gt;messages</title>
<path fill="none" stroke="#000000" d="M1092.2767,-612.8882C1106.1547,-595.3076 1125.9109,-570.0119 1142.7014,-547.4917 1277.899,-366.1585 1257.496,-268.8773 1438.7014,-133.5083 1493.0369,-92.9171 1565.9427,-68.6692 1623.1783,-54.7676"/>
<polygon fill="#000000" stroke="#000000" points="1624.0215,-58.1648 1632.9478,-52.4576 1622.4108,-51.3526 1624.0215,-58.1648"/>
</g>
<!-- version -->
<g id="node27" class="node">
<title>version</title>
<g id="a_node27"><a xlink:href="version.md" xlink:title="version.md">
<polygon fill="#98fb98" stroke="#000000" points="670.8537,-508.8581 670.8537,-529.1419 632.1026,-543.4846 577.3002,-543.4846 538.5491,-529.1419 538.5491,-508.8581 577.3002,-494.5154 632.1026,-494.5154 670.8537,-508.8581"/>
<polygon fill="none" stroke="#000000" points="674.8435,-506.0721 674.8435,-531.9279 632.8157,-547.4835 576.587,-547.4835 534.5593,-531.9279 534.5593,-506.0721 576.587,-490.5165 632.8157,-490.5165 674.8435,-506.0721"/>
<text text-anchor="middle" x="604.7014" y="-511.8" font-family="Times,serif" font-size="24.00" fill="#000000">version</text>
</a>
</g>
</g>
<!-- variables&#45;&gt;version -->
<g id="edge50" class="edge">
<title>variables&#45;&gt;version</title>
<path fill="none" stroke="#000000" d="M1017.54,-620.8921C932.2117,-599.8323 771.5511,-560.1799 677.7947,-537.04"/>
<polygon fill="#000000" stroke="#000000" points="678.3667,-533.5763 667.8194,-534.5781 676.6894,-540.3723 678.3667,-533.5763"/>
</g>
<!-- vartypes&#45;&gt;warnings -->
<g id="edge43" class="edge">
<title>vartypes&#45;&gt;warnings</title>
<path fill="none" stroke="#000000" d="M2169.7208,-496.109C2166.1977,-444.4782 2150.0168,-318.5531 2075.7014,-255.3726 2013.8242,-202.7666 1783.0347,-177.5916 1657.4249,-167.5587"/>
<polygon fill="#000000" stroke="#000000" points="1657.3298,-164.0406 1647.0868,-166.7482 1656.7826,-171.0192 1657.3298,-164.0406"/>
</g>
<!-- vartypes&#45;&gt;opresultwarn -->
<g id="edge44" class="edge">
<title>vartypes&#45;&gt;opresultwarn</title>
<path fill="none" stroke="#000000" d="M2153.4276,-496.9464C2128.9778,-466.2425 2082.2764,-409.4417 2037.7014,-365.5083 2016.3367,-344.4511 1990.5449,-322.7282 1969.9913,-306.1933"/>
<polygon fill="#000000" stroke="#000000" points="1972.104,-303.4014 1962.1057,-299.8965 1967.7361,-308.8714 1972.104,-303.4014"/>
</g>
<!-- vartypes&#45;&gt;messages -->
<g id="edge42" class="edge">
<title>vartypes&#45;&gt;messages</title>
<path fill="none" stroke="#000000" d="M2173.0523,-496.1846C2175.4878,-465.8058 2177.4741,-410.6571 2165.7014,-365.5083 2151.7946,-312.1753 2147.1533,-294.8599 2108.7014,-255.3726 2015.3242,-159.4808 1870.4623,-94.5802 1784.8507,-62.1384"/>
<polygon fill="#000000" stroke="#000000" points="1786.0706,-58.8579 1775.4783,-58.6269 1783.6146,-65.413 1786.0706,-58.8579"/>
</g>
<!-- codefile -->
<g id="node12" class="node">
<title>codefile</title>
<g id="a_node12"><a xlink:href="codefile.md" xlink:title="codefile.md">
<ellipse fill="#eee8aa" stroke="#000000" cx="1428.7014" cy="-1084" rx="65.069" ry="22.7556"/>
<text text-anchor="middle" x="1428.7014" y="-1076.8" font-family="Times,serif" font-size="24.00" fill="#000000">codefile</text>
</a>
</g>
</g>
<!-- codefile&#45;&gt;env -->
<g id="edge102" class="edge">
<title>codefile&#45;&gt;env</title>
<path fill="none" stroke="#000000" d="M1370.0594,-1074.1425C1223.5713,-1048.4413 846.9277,-975.3932 756.7014,-889.6274 694.8311,-830.8158 687.0238,-722.493 687.3404,-668.0568"/>
<polygon fill="#000000" stroke="#000000" points="690.842,-667.9721 687.4984,-657.9187 683.8429,-667.8629 690.842,-667.9721"/>
</g>
<!-- codefile&#45;&gt;variables -->
<g id="edge107" class="edge">
<title>codefile&#45;&gt;variables</title>
<path fill="none" stroke="#000000" d="M1411.3876,-1062.0398C1353.2856,-988.3455 1165.1692,-749.7459 1098.4432,-665.1132"/>
<polygon fill="#000000" stroke="#000000" points="1101.1303,-662.8684 1092.1905,-657.1825 1095.6333,-667.2023 1101.1303,-662.8684"/>
</g>
<!-- codefile&#45;&gt;vartypes -->
<g id="edge108" class="edge">
<title>codefile&#45;&gt;vartypes</title>
<path fill="none" stroke="#000000" d="M1491.9105,-1078.2445C1662.6793,-1061.2582 2126.5175,-1005.1328 2216.7014,-889.6274 2227.0782,-876.337 2190.2095,-639.8749 2176.0319,-551.7474"/>
<polygon fill="#000000" stroke="#000000" points="2179.4688,-551.075 2174.4201,-541.7604 2172.5582,-552.1903 2179.4688,-551.075"/>
</g>
<!-- codefile&#45;&gt;readlines -->
<g id="edge105" class="edge">
<title>codefile&#45;&gt;readlines</title>
<path fill="none" stroke="#000000" d="M1377.8023,-1069.7566C1231.1073,-1028.5275 816.4904,-910.672 794.7014,-889.6274 704.1497,-802.1695 762.8945,-632.3052 795.785,-556.7778"/>
<polygon fill="#000000" stroke="#000000" points="798.9925,-558.1786 799.8495,-547.6185 792.5942,-555.3392 798.9925,-558.1786"/>
</g>
<!-- codefile&#45;&gt;utf8decoder -->
<g id="edge110" class="edge">
<title>codefile&#45;&gt;utf8decoder</title>
<path fill="none" stroke="#000000" d="M1493.3465,-1081.1084C1772.1541,-1067.7956 2857.7014,-1006.9744 2857.7014,-867 2857.7014,-867 2857.7014,-867 2857.7014,-751 2857.7014,-673.1854 2800.9092,-597.6361 2761.8282,-554.8595"/>
<polygon fill="#000000" stroke="#000000" points="2764.3702,-552.4535 2754.9965,-547.5155 2759.2449,-557.2212 2764.3702,-552.4535"/>
</g>
<!-- codefile&#45;&gt;warnings -->
<g id="edge109" class="edge">
<title>codefile&#45;&gt;warnings</title>
<path fill="none" stroke="#000000" d="M1382.7663,-1067.8428C1253.4983,-1021.35 891.839,-883.8886 827.7014,-779.4917 814.4441,-757.9128 821.8827,-747.1568 827.7014,-722.5083 834.323,-694.4588 921.6997,-509.1239 943.7014,-490.5083 1022.4802,-423.8536 1073.4123,-468.6616 1165.7014,-422.4917 1278.3852,-366.119 1287.581,-321.7106 1394.7014,-255.3726 1437.3303,-228.9731 1488.2425,-203.0464 1525.0253,-185.2381"/>
<polygon fill="#000000" stroke="#000000" points="1526.5661,-188.3808 1534.0588,-180.8901 1523.5302,-182.0734 1526.5661,-188.3808"/>
</g>
<!-- codefile&#45;&gt;opresultwarn -->
<g id="edge104" class="edge">
<title>codefile&#45;&gt;opresultwarn</title>
<path fill="none" stroke="#000000" d="M1442.7351,-1061.6017C1513.5174,-948.6303 1831.2163,-441.5703 1913.9519,-309.5209"/>
<polygon fill="#000000" stroke="#000000" points="1917.1526,-311.0044 1919.4962,-300.672 1911.2208,-307.2878 1917.1526,-311.0044"/>
</g>
<!-- codefile&#45;&gt;messages -->
<g id="edge103" class="edge">
<title>codefile&#45;&gt;messages</title>
<path fill="none" stroke="#000000" d="M1437.2171,-1061.1346C1447.1262,-1034.8905 1464.2391,-990.6639 1480.7014,-953.3726 1536.5223,-826.9238 1752.7014,-532.2218 1752.7014,-394 1752.7014,-394 1752.7014,-394 1752.7014,-278 1752.7014,-206.0775 1735.8474,-123.5063 1724.5882,-76.3695"/>
<polygon fill="#000000" stroke="#000000" points="1727.9725,-75.474 1722.209,-66.584 1721.1707,-77.1278 1727.9725,-75.474"/>
</g>
<!-- runCommand -->
<g id="node33" class="node">
<title>runCommand</title>
<g id="a_node33"><a xlink:href="runCommand.md" xlink:title="runCommand.md">
<ellipse fill="#eee8aa" stroke="#000000" cx="1666.7014" cy="-976" rx="104.7872" ry="22.7556"/>
<text text-anchor="middle" x="1666.7014" y="-968.8" font-family="Times,serif" font-size="24.00" fill="#000000">runCommand</text>
</a>
</g>
</g>
<!-- codefile&#45;&gt;runCommand -->
<g id="edge106" class="edge">
<title>codefile&#45;&gt;runCommand</title>
<path fill="none" stroke="#000000" d="M1468.5372,-1065.9232C1507.8647,-1048.0771 1568.3037,-1020.651 1612.095,-1000.7793"/>
<polygon fill="#000000" stroke="#000000" points="1613.7909,-1003.8534 1621.4508,-996.5339 1610.8982,-997.479 1613.7909,-1003.8534"/>
</g>
<!-- replacement&#45;&gt;parseCmdLine -->
<g id="edge75" class="edge">
<title>replacement&#45;&gt;parseCmdLine</title>
<path fill="none" stroke="#000000" d="M1370.6096,-728.9082C1352.3435,-710.6421 1326.2437,-684.5423 1306.1935,-664.4921"/>
<polygon fill="#000000" stroke="#000000" points="1308.652,-662.0008 1299.106,-657.4046 1303.7022,-666.9506 1308.652,-662.0008"/>
</g>
<!-- replacement&#45;&gt;env -->
<g id="edge73" class="edge">
<title>replacement&#45;&gt;env</title>
<path fill="none" stroke="#000000" d="M1314.6712,-738.1428C1166.9795,-713.8072 850.886,-661.7236 733.6619,-642.4083"/>
<polygon fill="#000000" stroke="#000000" points="734.0376,-638.9231 723.6016,-640.7506 732.8995,-645.8299 734.0376,-638.9231"/>
</g>
<!-- replacement&#45;&gt;variables -->
<g id="edge79" class="edge">
<title>replacement&#45;&gt;variables</title>
<path fill="none" stroke="#000000" d="M1340.5462,-731.9749C1283.0455,-710.9997 1190.8465,-677.3674 1131.5395,-655.7334"/>
<polygon fill="#000000" stroke="#000000" points="1132.546,-652.375 1121.9521,-652.2361 1130.1471,-658.9512 1132.546,-652.375"/>
</g>
<!-- replacement&#45;&gt;tempFile -->
<g id="edge80" class="edge">
<title>replacement&#45;&gt;tempFile</title>
<path fill="none" stroke="#000000" d="M1320.2855,-736.5109C1207.8324,-713.6715 1002.9653,-670.5631 992.7014,-657.6274 969.4411,-628.3121 987.4146,-586.2362 1006.5438,-556.1405"/>
<polygon fill="#000000" stroke="#000000" points="1009.5959,-557.8708 1012.204,-547.602 1003.7614,-554.0032 1009.5959,-557.8708"/>
</g>
<!-- replacement&#45;&gt;vartypes -->
<g id="edge74" class="edge">
<title>replacement&#45;&gt;vartypes</title>
<path fill="none" stroke="#000000" d="M1456.7076,-734.2903C1525.3978,-716.1674 1637.6025,-686.0145 1733.7014,-657.6274 1870.0902,-617.3389 2028.972,-565.7588 2112.5088,-538.2751"/>
<polygon fill="#000000" stroke="#000000" points="2113.6676,-541.5784 2122.071,-535.126 2111.478,-534.9297 2113.6676,-541.5784"/>
</g>
<!-- replacement&#45;&gt;readlines -->
<g id="edge76" class="edge">
<title>replacement&#45;&gt;readlines</title>
<path fill="none" stroke="#000000" d="M1320.0839,-736.5696C1209.655,-714.3326 1009.0669,-672.683 978.7014,-657.6274 951.2044,-643.9941 891.1836,-590.899 851.6195,-554.5212"/>
<polygon fill="#000000" stroke="#000000" points="853.7177,-551.6949 843.9951,-547.4852 848.9704,-556.8392 853.7177,-551.6949"/>
</g>
<!-- replacement&#45;&gt;warnings -->
<g id="edge82" class="edge">
<title>replacement&#45;&gt;warnings</title>
<path fill="none" stroke="#000000" d="M1418.4464,-728.9119C1476.7512,-678.7565 1614.2659,-559.6647 1619.7014,-547.4917 1674.0341,-425.8112 1617.5594,-262.064 1589.0586,-193.871"/>
<polygon fill="#000000" stroke="#000000" points="1592.2136,-192.3466 1585.073,-184.5195 1585.774,-195.0911 1592.2136,-192.3466"/>
</g>
<!-- replacement&#45;&gt;opresultwarn -->
<g id="edge81" class="edge">
<title>replacement&#45;&gt;opresultwarn</title>
<path fill="none" stroke="#000000" d="M1438.6298,-731.1876C1477.699,-713.6637 1534.7708,-686.4611 1581.7014,-657.6274 1651.2584,-614.8923 1676.7935,-610.5 1728.7014,-547.4917 1785.8266,-478.1504 1759.5476,-434.826 1816.7014,-365.5083 1836.6779,-341.2802 1864.6945,-320.0207 1888.3035,-304.5244"/>
<polygon fill="#000000" stroke="#000000" points="1890.2562,-307.4301 1896.7791,-299.0812 1886.4735,-301.5401 1890.2562,-307.4301"/>
</g>
<!-- replacement&#45;&gt;messages -->
<g id="edge78" class="edge">
<title>replacement&#45;&gt;messages</title>
<path fill="none" stroke="#000000" d="M1436.3353,-730.9213C1495.9102,-700.7695 1600.1556,-637.5673 1642.7014,-547.4917 1719.1428,-385.6544 1720.0339,-165.0619 1716.8097,-76.8114"/>
<polygon fill="#000000" stroke="#000000" points="1720.3028,-76.5682 1716.4009,-66.7181 1713.3086,-76.8516 1720.3028,-76.5682"/>
</g>
<!-- replacement&#45;&gt;matches -->
<g id="edge77" class="edge">
<title>replacement&#45;&gt;matches</title>
<path fill="none" stroke="#000000" d="M1412.3548,-728.8279C1428.2081,-710.4232 1450.6037,-683.2132 1467.7014,-657.6274 1491.13,-622.5677 1513.8099,-579.6615 1528.2019,-550.9534"/>
<polygon fill="#000000" stroke="#000000" points="1531.4378,-552.3065 1532.7541,-541.7938 1525.1693,-549.1912 1531.4378,-552.3065"/>
</g>
<!-- warnings&#45;&gt;messages -->
<g id="edge2" class="edge">
<title>warnings&#45;&gt;messages</title>
<path fill="none" stroke="#ff0000" d="M1599.0875,-140.4008C1619.9414,-121.9303 1650.3618,-94.9865 1674.7645,-73.3727"/>
<polygon fill="#ff0000" stroke="#ff0000" points="1677.291,-75.8104 1682.4562,-66.56 1672.6497,-70.5703 1677.291,-75.8104"/>
</g>
<!-- collectCommand -->
<g id="node17" class="node">
<title>collectCommand</title>
<g id="a_node17"><a xlink:href="collectCommand.md" xlink:title="collectCommand.md">
<ellipse fill="#eee8aa" stroke="#000000" cx="963.7014" cy="-751" rx="127.4982" ry="22.7556"/>
<text text-anchor="middle" x="963.7014" y="-743.8" font-family="Times,serif" font-size="24.00" fill="#000000">collectCommand</text>
</a>
</g>
</g>
<!-- collectCommand&#45;&gt;parseCmdLine -->
<g id="edge34" class="edge">
<title>collectCommand&#45;&gt;parseCmdLine</title>
<path fill="none" stroke="#000000" d="M1018.939,-730.5286C1073.355,-710.3616 1156.3952,-679.5863 1213.4339,-658.4474"/>
<polygon fill="#000000" stroke="#000000" points="1214.9011,-661.6363 1223.0616,-654.8793 1212.4685,-655.0726 1214.9011,-661.6363"/>
</g>
<!-- collectCommand&#45;&gt;env -->
<g id="edge31" class="edge">
<title>collectCommand&#45;&gt;env</title>
<path fill="none" stroke="#000000" d="M914.2193,-730.1276C860.8695,-707.6236 777.0217,-672.2551 728,-651.5769"/>
<polygon fill="#000000" stroke="#000000" points="729.2535,-648.307 718.6793,-647.6452 726.5329,-654.7567 729.2535,-648.307"/>
</g>
<!-- collectCommand&#45;&gt;readlines -->
<g id="edge33" class="edge">
<title>collectCommand&#45;&gt;readlines</title>
<path fill="none" stroke="#000000" d="M941.659,-728.4601C924.5788,-710.2825 900.9895,-683.5591 883.7014,-657.6274 862.2026,-625.3796 842.7763,-585.6372 829.8738,-556.985"/>
<polygon fill="#000000" stroke="#000000" points="833.0155,-555.4359 825.7547,-547.7202 826.6192,-558.2797 833.0155,-555.4359"/>
</g>
<!-- collectCommand&#45;&gt;opresultwarn -->
<g id="edge36" class="edge">
<title>collectCommand&#45;&gt;opresultwarn</title>
<path fill="none" stroke="#000000" d="M1072.1864,-739.0884C1183.8129,-724.8643 1348.0591,-697.8327 1396.7014,-657.6274 1458.9041,-606.2137 1411.1826,-548.112 1467.7014,-490.5083 1519.535,-437.6797 1552.3058,-453.0763 1619.7014,-422.4917 1711.5705,-380.801 1818.1967,-331.5523 1880.5765,-302.6528"/>
<polygon fill="#000000" stroke="#000000" points="1882.2239,-305.7469 1889.8254,-298.3668 1879.2806,-299.3957 1882.2239,-305.7469"/>
</g>
<!-- collectCommand&#45;&gt;messages -->
<g id="edge35" class="edge">
<title>collectCommand&#45;&gt;messages</title>
<path fill="none" stroke="#000000" d="M897.0551,-731.6334C769.4617,-694.5896 501.4136,-616.9414 480.7014,-612.3726 389.3358,-592.2187 131.291,-613.216 64.7014,-547.4917 15.4575,-498.8878 38.7014,-463.1903 38.7014,-394 38.7014,-394 38.7014,-394 38.7014,-278 38.7014,-253.5076 31.2133,-205.9829 243.7014,-133.5083 373.2174,-89.3334 1313.1176,-52.3055 1618.8745,-41.3176"/>
<polygon fill="#000000" stroke="#000000" points="1619.177,-44.8092 1629.0453,-40.9534 1618.9264,-37.8136 1619.177,-44.8092"/>
</g>
<!-- collectCommand&#45;&gt;matches -->
<g id="edge32" class="edge">
<title>collectCommand&#45;&gt;matches</title>
<path fill="none" stroke="#000000" d="M1068.913,-738.2616C1187.061,-722.5179 1370.0833,-693.3776 1429.7014,-657.6274 1431.1936,-656.7326 1486.1449,-589.546 1519.1987,-549.0477"/>
<polygon fill="#000000" stroke="#000000" points="1522.0833,-551.0486 1525.6938,-541.0879 1516.6598,-546.623 1522.0833,-551.0486"/>
</g>
<!-- runner -->
<g id="node18" class="node">
<title>runner</title>
<g id="a_node18"><a xlink:href="runner.md" xlink:title="runner.md">
<polygon fill="#98fb98" stroke="#000000" points="768.0622,-1313.8581 768.0622,-1334.1419 732.7037,-1348.4846 682.6991,-1348.4846 647.3406,-1334.1419 647.3406,-1313.8581 682.6991,-1299.5154 732.7037,-1299.5154 768.0622,-1313.8581"/>
<polygon fill="none" stroke="#000000" points="772.0738,-1311.1681 772.0738,-1336.8319 733.4886,-1352.4835 681.9141,-1352.4835 643.329,-1336.8319 643.329,-1311.1681 681.9141,-1295.5165 733.4886,-1295.5165 772.0738,-1311.1681"/>
<text text-anchor="middle" x="707.7014" y="-1316.8" font-family="Times,serif" font-size="24.00" fill="#000000">runner</text>
</a>
</g>
</g>
<!-- statictea -->
<g id="node19" class="node">
<title>statictea</title>
<g id="a_node19"><a xlink:href="statictea.md" xlink:title="statictea.md">
<polygon fill="#eee8aa" stroke="#000000" points="459.7972,-1315.3667 542.7014,-1296.0619 625.6056,-1315.3667 625.5282,-1346.6024 459.8745,-1346.6024 459.7972,-1315.3667"/>
<text text-anchor="middle" x="542.7014" y="-1316.8" font-family="Times,serif" font-size="24.00" fill="#000000">statictea</text>
</a>
</g>
</g>
<!-- statictea&#45;&gt;env -->
<g id="edge118" class="edge">
<title>statictea&#45;&gt;env</title>
<path fill="none" stroke="#000000" d="M546.7284,-1296.7439C559.6269,-1211.2753 602.4456,-941.201 659.7014,-722.5083 664.6025,-703.7882 671.3428,-683.2314 677.0918,-666.7484"/>
<polygon fill="#000000" stroke="#000000" points="680.482,-667.6594 680.5179,-657.0646 673.8828,-665.3246 680.482,-667.6594"/>
</g>
<!-- gethelp -->
<g id="node20" class="node">
<title>gethelp</title>
<g id="a_node20"><a xlink:href="gethelp.md" xlink:title="gethelp.md">
<polygon fill="#98fb98" stroke="#000000" points="396.8363,-1189.8581 396.8363,-1210.1419 358.0954,-1224.4846 303.3074,-1224.4846 264.5665,-1210.1419 264.5665,-1189.8581 303.3074,-1175.5154 358.0954,-1175.5154 396.8363,-1189.8581"/>
<polygon fill="none" stroke="#000000" points="400.8256,-1187.0722 400.8256,-1212.9278 358.8085,-1228.4835 302.5942,-1228.4835 260.5772,-1212.9278 260.5772,-1187.0722 302.5942,-1171.5165 358.8085,-1171.5165 400.8256,-1187.0722"/>
<text text-anchor="middle" x="330.7014" y="-1192.8" font-family="Times,serif" font-size="24.00" fill="#000000">gethelp</text>
</a>
</g>
</g>
<!-- statictea&#45;&gt;gethelp -->
<g id="edge116" class="edge">
<title>statictea&#45;&gt;gethelp</title>
<path fill="none" stroke="#000000" d="M508.1681,-1303.8013C473.4807,-1283.5124 419.6814,-1252.0449 380.4069,-1229.0731"/>
<polygon fill="#000000" stroke="#000000" points="382.1587,-1226.043 371.7597,-1224.0152 378.6245,-1232.0853 382.1587,-1226.043"/>
</g>
<!-- statictea&#45;&gt;args -->
<g id="edge114" class="edge">
<title>statictea&#45;&gt;args</title>
<path fill="none" stroke="#000000" d="M522.8441,-1300.5515C490.1823,-1259.5042 428.7014,-1170.7212 428.7014,-1084 428.7014,-1084 428.7014,-1084 428.7014,-751 428.7014,-632.6734 398.0882,-572.1878 483.7014,-490.5083 561.6387,-416.1519 899.4089,-398.9663 1027.8654,-395.0939"/>
<polygon fill="#000000" stroke="#000000" points="1028.2968,-398.5831 1038.1924,-394.7979 1028.0962,-391.5859 1028.2968,-398.5831"/>
</g>
<!-- statictea&#45;&gt;opresultwarn -->
<g id="edge119" class="edge">
<title>statictea&#45;&gt;opresultwarn</title>
<path fill="none" stroke="#000000" d="M590.4279,-1307.085C604.526,-1302.6721 620.0958,-1298.3596 634.7014,-1295.5083 977.9369,-1228.5004 1070.4073,-1259.9862 1418.7014,-1228.4917 1755.5216,-1198.0348 2933.7014,-1422.1944 2933.7014,-1084 2933.7014,-1084 2933.7014,-1084 2933.7014,-751 2933.7014,-627.7671 2928.1516,-575.2728 2838.7014,-490.5083 2722.7926,-380.6712 2245.3323,-313.664 2034.5247,-288.9013"/>
<polygon fill="#000000" stroke="#000000" points="2034.7228,-285.4007 2024.3847,-287.7186 2033.9119,-292.3536 2034.7228,-285.4007"/>
</g>
<!-- statictea&#45;&gt;messages -->
<g id="edge115" class="edge">
<title>statictea&#45;&gt;messages</title>
<path fill="none" stroke="#000000" d="M589.8817,-1306.8462C604.1025,-1302.3707 619.875,-1298.0844 634.7014,-1295.5083 1305.7433,-1178.9129 1487.9583,-1295.9908 2165.7014,-1228.4917 2527.8427,-1192.4247 2971.7014,-1447.9329 2971.7014,-1084 2971.7014,-1084 2971.7014,-1084 2971.7014,-278 2971.7014,-247.2467 3124.5709,-268.7925 2810.7014,-133.5083 2720.0377,-94.4303 2060.8999,-56.1749 1810.6873,-42.904"/>
<polygon fill="#000000" stroke="#000000" points="1810.6915,-39.3994 1800.5207,-42.3666 1810.322,-46.3897 1810.6915,-39.3994"/>
</g>
<!-- statictea&#45;&gt;version -->
<g id="edge117" class="edge">
<title>statictea&#45;&gt;version</title>
<path fill="none" stroke="#000000" d="M529.1141,-1298.9052C507.2538,-1256.1179 466.7014,-1165.73 466.7014,-1084 466.7014,-1084 466.7014,-1084 466.7014,-976 466.7014,-814.2594 546.8971,-633.5387 585.0193,-556.7676"/>
<polygon fill="#000000" stroke="#000000" points="588.3143,-558.0049 589.6703,-547.4972 582.0575,-554.8658 588.3143,-558.0049"/>
</g>
<!-- timer -->
<g id="node29" class="node">
<title>timer</title>
<g id="a_node29"><a xlink:href="timer.md" xlink:title="timer.md">
<polygon fill="#98fb98" stroke="#000000" points="1405.7216,-1189.8581 1405.7216,-1210.1419 1375.8347,-1224.4846 1333.5681,-1224.4846 1303.6811,-1210.1419 1303.6811,-1189.8581 1333.5681,-1175.5154 1375.8347,-1175.5154 1405.7216,-1189.8581"/>
<polygon fill="none" stroke="#000000" points="1409.7224,-1187.3422 1409.7224,-1212.6578 1376.7454,-1228.4835 1332.6574,-1228.4835 1299.6804,-1212.6578 1299.6804,-1187.3422 1332.6574,-1171.5165 1376.7454,-1171.5165 1409.7224,-1187.3422"/>
<text text-anchor="middle" x="1354.7014" y="-1192.8" font-family="Times,serif" font-size="24.00" fill="#000000">timer</text>
</a>
</g>
</g>
<!-- statictea&#45;&gt;timer -->
<g id="edge120" class="edge">
<title>statictea&#45;&gt;timer</title>
<path fill="none" stroke="#000000" d="M590.9344,-1307.0904C604.907,-1302.7319 620.2837,-1298.4469 634.7014,-1295.5083 921.8702,-1236.9775 1007.503,-1303.9268 1290.7014,-1228.4917 1295.5714,-1227.1945 1300.5416,-1225.5708 1305.4521,-1223.7602"/>
<polygon fill="#000000" stroke="#000000" points="1306.7589,-1227.0072 1314.7794,-1220.0847 1304.1925,-1220.4946 1306.7589,-1227.0072"/>
</g>
<!-- parseCommandLine -->
<g id="node30" class="node">
<title>parseCommandLine</title>
<g id="a_node30"><a xlink:href="parseCommandLine.md" xlink:title="parseCommandLine.md">
<ellipse fill="#eee8aa" stroke="#000000" cx="253.7014" cy="-519" rx="148.8522" ry="22.7556"/>
<text text-anchor="middle" x="253.7014" y="-511.8" font-family="Times,serif" font-size="24.00" fill="#000000">parseCommandLine</text>
</a>
</g>
</g>
<!-- statictea&#45;&gt;parseCommandLine -->
<g id="edge12" class="edge">
<title>statictea&#45;&gt;parseCommandLine</title>
<path fill="none" stroke="#000000" d="M477.6936,-1311.0524C401.16,-1294.4374 280.7595,-1263.5416 251.7014,-1228.4917 210.3619,-1178.6281 232.7014,-1148.7714 232.7014,-1084 232.7014,-1084 232.7014,-1084 232.7014,-751 232.7014,-679.6752 242.668,-596.5164 248.8689,-551.6794"/>
<polygon fill="#000000" stroke="#000000" points="252.3511,-552.0511 250.2806,-541.6605 245.4195,-551.0744 252.3511,-552.0511"/>
</g>
<!-- processTemplate -->
<g id="node31" class="node">
<title>processTemplate</title>
<g id="a_node31"><a xlink:href="processTemplate.md" xlink:title="processTemplate.md">
<ellipse fill="#eee8aa" stroke="#000000" cx="1156.7014" cy="-1200" rx="125.2054" ry="22.7556"/>
<text text-anchor="middle" x="1156.7014" y="-1192.8" font-family="Times,serif" font-size="24.00" fill="#000000">processTemplate</text>
</a>
</g>
</g>
<!-- statictea&#45;&gt;processTemplate -->
<g id="edge113" class="edge">
<title>statictea&#45;&gt;processTemplate</title>
<path fill="none" stroke="#000000" d="M592.0541,-1307.528C605.771,-1303.2753 620.736,-1298.9354 634.7014,-1295.5083 776.6376,-1260.6771 943.106,-1232.3398 1049.203,-1215.8228"/>
<polygon fill="#000000" stroke="#000000" points="1049.9331,-1219.2515 1059.2792,-1214.2614 1048.8611,-1212.3341 1049.9331,-1219.2515"/>
</g>
<!-- comparelines -->
<g id="node21" class="node">
<title>comparelines</title>
<g id="a_node21"><a xlink:href="comparelines.md" xlink:title="comparelines.md">
<polygon fill="#98fb98" stroke="#000000" points="1014.0376,-1313.8581 1014.0376,-1334.1419 949.4041,-1348.4846 857.9986,-1348.4846 793.3652,-1334.1419 793.3652,-1313.8581 857.9986,-1299.5154 949.4041,-1299.5154 1014.0376,-1313.8581"/>
<polygon fill="none" stroke="#000000" points="1018.0436,-1310.6506 1018.0436,-1337.3494 949.8441,-1352.4835 857.5587,-1352.4835 789.3592,-1337.3494 789.3592,-1310.6506 857.5587,-1295.5165 949.8441,-1295.5165 1018.0436,-1310.6506"/>
<text text-anchor="middle" x="903.7014" y="-1316.8" font-family="Times,serif" font-size="24.00" fill="#000000">comparelines</text>
</a>
</g>
</g>
<!-- signatures&#45;&gt;vartypes -->
<g id="edge70" class="edge">
<title>signatures&#45;&gt;vartypes</title>
<path fill="none" stroke="#000000" d="M2262.447,-613.1813C2244.5329,-594.7917 2218.7482,-568.3224 2199.073,-548.1248"/>
<polygon fill="#000000" stroke="#000000" points="2201.3455,-545.4417 2191.8605,-540.7209 2196.3313,-550.3262 2201.3455,-545.4417"/>
</g>
<!-- signatures&#45;&gt;messages -->
<g id="edge71" class="edge">
<title>signatures&#45;&gt;messages</title>
<path fill="none" stroke="#000000" d="M2309.1189,-613.4927C2396.0629,-537.5524 2668.1438,-278.7645 2518.7014,-133.5083 2468.6754,-84.8836 2012.7338,-54.238 1810.5219,-42.9281"/>
<polygon fill="#000000" stroke="#000000" points="1810.6796,-39.4316 1800.5009,-42.3719 1810.2915,-46.4208 1810.6796,-39.4316"/>
</g>
<!-- args&#45;&gt;warnings -->
<g id="edge3" class="edge">
<title>args&#45;&gt;warnings</title>
<path fill="none" stroke="#000000" d="M1091.5982,-372.5768C1112.6981,-341.8192 1155.7916,-285.539 1206.7014,-255.3726 1296.2457,-202.3134 1415.3409,-179.1848 1493.4604,-169.2506"/>
<polygon fill="#000000" stroke="#000000" points="1494.2292,-172.6826 1503.7285,-167.9908 1493.3767,-165.7347 1494.2292,-172.6826"/>
</g>
<!-- args&#45;&gt;opresultwarn -->
<g id="edge6" class="edge">
<title>args&#45;&gt;opresultwarn</title>
<path fill="none" stroke="#000000" d="M1116.1449,-388.7904C1242.883,-371.6156 1650.0934,-316.4329 1837.5739,-291.0266"/>
<polygon fill="#000000" stroke="#000000" points="1838.2565,-294.4662 1847.6959,-289.6549 1837.3165,-287.5296 1838.2565,-294.4662"/>
</g>
<!-- args&#45;&gt;messages -->
<g id="edge1" class="edge">
<title>args&#45;&gt;messages</title>
<path fill="none" stroke="#000000" d="M1074.6517,-371.2454C1069.2524,-320.4976 1064.1864,-197.5032 1130.7014,-133.5083 1198.8432,-67.9482 1470.9519,-47.289 1618.4608,-40.8556"/>
<polygon fill="#000000" stroke="#000000" points="1619.0181,-44.3353 1628.8615,-40.4165 1618.7228,-37.3415 1619.0181,-44.3353"/>
</g>
<!-- opresultwarn&#45;&gt;warnings -->
<g id="edge4" class="edge">
<title>opresultwarn&#45;&gt;warnings</title>
<path fill="none" stroke="#000000" d="M1876.0218,-259.3626C1809.9963,-238.0284 1702.3351,-203.241 1635.1652,-181.537"/>
<polygon fill="#000000" stroke="#000000" points="1636.1502,-178.1772 1625.5584,-178.4329 1633.9979,-184.8381 1636.1502,-178.1772"/>
</g>
<!-- opresultwarn&#45;&gt;opresult -->
<g id="edge5" class="edge">
<title>opresultwarn&#45;&gt;opresult</title>
<path fill="none" stroke="#000000" d="M2002.1061,-261.5032C2090.9442,-240.0787 2245.5723,-202.7879 2338.207,-180.4477"/>
<polygon fill="#000000" stroke="#000000" points="2339.1793,-183.8137 2348.08,-178.0667 2337.5381,-177.0087 2339.1793,-183.8137"/>
</g>
<!-- matches&#45;&gt;regexes -->
<g id="edge22" class="edge">
<title>matches&#45;&gt;regexes</title>
<path fill="none" stroke="#000000" d="M1542.7959,-496.3634C1542.0881,-478.6687 1541.0877,-453.6576 1540.2529,-432.7879"/>
<polygon fill="#000000" stroke="#000000" points="1543.7432,-432.4721 1539.8462,-422.62 1536.7488,-432.7519 1543.7432,-432.4721"/>
</g>
<!-- matches&#45;&gt;args -->
<g id="edge21" class="edge">
<title>matches&#45;&gt;args</title>
<path fill="none" stroke="#000000" d="M1491.1511,-504.9039C1399.1078,-480.2142 1210.2619,-429.5581 1123.3364,-406.2411"/>
<polygon fill="#000000" stroke="#000000" points="1124.0683,-402.8138 1113.5029,-403.6034 1122.2546,-409.5748 1124.0683,-402.8138"/>
</g>
<!-- readjson -->
<g id="node28" class="node">
<title>readjson</title>
<g id="a_node28"><a xlink:href="readjson.md" xlink:title="readjson.md">
<ellipse fill="#eee8aa" stroke="#000000" cx="2543.7014" cy="-751" rx="68.6102" ry="22.7556"/>
<text text-anchor="middle" x="2543.7014" y="-743.8" font-family="Times,serif" font-size="24.00" fill="#000000">readjson</text>
</a>
</g>
</g>
<!-- readjson&#45;&gt;unicodes -->
<g id="edge89" class="edge">
<title>readjson&#45;&gt;unicodes</title>
<path fill="none" stroke="#000000" d="M2569.0127,-729.7238C2591.2437,-711.0369 2623.7532,-683.7101 2648.1479,-663.2044"/>
<polygon fill="#000000" stroke="#000000" points="2650.6804,-665.6479 2656.0832,-656.5341 2646.1762,-660.2895 2650.6804,-665.6479"/>
</g>
<!-- readjson&#45;&gt;vartypes -->
<g id="edge86" class="edge">
<title>readjson&#45;&gt;vartypes</title>
<path fill="none" stroke="#000000" d="M2526.7233,-728.9962C2502.6425,-699.0639 2455.8826,-645.4606 2405.7014,-612.3726 2352.0995,-577.0291 2283.0447,-551.5941 2233.6873,-536.2816"/>
<polygon fill="#000000" stroke="#000000" points="2234.675,-532.9237 2224.0889,-533.3541 2232.6328,-539.6192 2234.675,-532.9237"/>
</g>
<!-- readjson&#45;&gt;utf8decoder -->
<g id="edge90" class="edge">
<title>readjson&#45;&gt;utf8decoder</title>
<path fill="none" stroke="#000000" d="M2607.9275,-742.7852C2659.441,-732.4435 2728.5803,-709.2682 2762.7014,-657.6274 2782.8617,-627.1156 2767.7299,-586.0073 2751.1546,-556.4913"/>
<polygon fill="#000000" stroke="#000000" points="2754.0875,-554.5741 2746.0017,-547.7279 2748.0534,-558.1222 2754.0875,-554.5741"/>
</g>
<!-- readjson&#45;&gt;warnings -->
<g id="edge88" class="edge">
<title>readjson&#45;&gt;warnings</title>
<path fill="none" stroke="#000000" d="M2537.2574,-728.2614C2528.9255,-700.2501 2513.1498,-651.5623 2493.7014,-612.3726 2431.0546,-486.1358 2405.1447,-453.0447 2294.7014,-365.5083 2219.4105,-305.8334 2198.8209,-288.6633 2108.7014,-255.3726 1955.3979,-198.7413 1764.3715,-175.9759 1657.3346,-167.1897"/>
<polygon fill="#000000" stroke="#000000" points="1657.4897,-163.691 1647.2425,-166.3824 1656.9315,-170.6687 1657.4897,-163.691"/>
</g>
<!-- readjson&#45;&gt;opresultwarn -->
<g id="edge91" class="edge">
<title>readjson&#45;&gt;opresultwarn</title>
<path fill="none" stroke="#000000" d="M2532.1834,-728.3603C2507.7107,-681.3708 2447.2175,-570.9374 2379.7014,-490.5083 2326.4953,-427.126 2314.0687,-405.6477 2241.7014,-365.5083 2174.448,-328.2053 2089.9313,-305.6637 2026.4523,-292.8232"/>
<polygon fill="#000000" stroke="#000000" points="2026.9399,-289.352 2016.4508,-290.845 2025.5816,-296.2189 2026.9399,-289.352"/>
</g>
<!-- readjson&#45;&gt;messages -->
<g id="edge87" class="edge">
<title>readjson&#45;&gt;messages</title>
<path fill="none" stroke="#000000" d="M2603.4549,-739.7475C2655.499,-727.3167 2730.3121,-702.7844 2780.7014,-657.6274 2875.8985,-572.3154 2895.7014,-521.8305 2895.7014,-394 2895.7014,-394 2895.7014,-394 2895.7014,-278 2895.7014,-125.1849 2730.9153,-174.5025 2583.7014,-133.5083 2440.1479,-93.5334 2005.5432,-58.691 1810.8408,-44.6266"/>
<polygon fill="#000000" stroke="#000000" points="1810.8484,-41.1182 1800.623,-43.8917 1810.3462,-48.1001 1810.8484,-41.1182"/>
</g>
<!-- parseCommandLine&#45;&gt;regexes -->
<g id="edge10" class="edge">
<title>parseCommandLine&#45;&gt;regexes</title>
<path fill="none" stroke="#000000" d="M375.876,-505.9557C422.7234,-501.0186 476.6848,-495.4103 525.7014,-490.5083 871.4869,-455.9272 1283.9705,-417.5093 1456.4954,-401.5681"/>
<polygon fill="#000000" stroke="#000000" points="1456.8819,-405.0474 1466.5176,-400.6424 1456.238,-398.0771 1456.8819,-405.0474"/>
</g>
<!-- parseCommandLine&#45;&gt;cmdline -->
<g id="edge11" class="edge">
<title>parseCommandLine&#45;&gt;cmdline</title>
<path fill="none" stroke="#000000" d="M272.3539,-496.3634C287.467,-478.0223 309.0573,-451.8205 326.6106,-430.5179"/>
<polygon fill="#000000" stroke="#000000" points="329.4604,-432.5632 333.1185,-422.62 324.0581,-428.1118 329.4604,-432.5632"/>
</g>
<!-- parseCommandLine&#45;&gt;warnings -->
<g id="edge9" class="edge">
<title>parseCommandLine&#45;&gt;warnings</title>
<path fill="none" stroke="#000000" d="M317.422,-498.4606C463.2604,-451.833 832.9403,-335.7992 1146.7014,-255.3726 1270.8933,-223.5384 1417.1141,-193.1415 1502.4998,-176.093"/>
<polygon fill="#000000" stroke="#000000" points="1503.2269,-179.517 1512.3508,-174.1314 1501.8598,-172.6517 1503.2269,-179.517"/>
</g>
<!-- parseCommandLine&#45;&gt;args -->
<g id="edge7" class="edge">
<title>parseCommandLine&#45;&gt;args</title>
<path fill="none" stroke="#000000" d="M348.3551,-501.4382C370.7235,-497.5702 394.5201,-493.6845 416.7014,-490.5083 685.8637,-451.9659 765.126,-503.4515 1024.7014,-422.4917 1030.4514,-420.6984 1036.2997,-418.2676 1041.9104,-415.5775"/>
<polygon fill="#000000" stroke="#000000" points="1043.7738,-418.5551 1051.0692,-410.8721 1040.575,-412.3287 1043.7738,-418.5551"/>
</g>
<!-- parseCommandLine&#45;&gt;messages -->
<g id="edge8" class="edge">
<title>parseCommandLine&#45;&gt;messages</title>
<path fill="none" stroke="#000000" d="M249.4125,-496.1497C244.6284,-463.1776 241.2409,-402.1995 272.7014,-365.5083 518.6811,-78.6311 721.4362,-213.8063 1090.7014,-133.5083 1275.9829,-93.2181 1495.8341,-63.7637 1618.9035,-48.9011"/>
<polygon fill="#000000" stroke="#000000" points="1619.5393,-52.35 1629.0505,-47.6823 1618.7044,-45.3999 1619.5393,-52.35"/>
</g>
<!-- processTemplate&#45;&gt;runFunction -->
<g id="edge112" class="edge">
<title>processTemplate&#45;&gt;runFunction</title>
<path fill="none" stroke="#000000" d="M1237.6077,-1182.6387C1335.2227,-1161.3752 1493.3745,-1125.8243 1550.7014,-1106.6274 1739.7476,-1043.3221 1953.3632,-939.6493 2047.5918,-892.1726"/>
<polygon fill="#000000" stroke="#000000" points="2049.2554,-895.2535 2056.6027,-887.6202 2046.0989,-889.0056 2049.2554,-895.2535"/>
</g>
<!-- processTemplate&#45;&gt;parseCmdLine -->
<g id="edge30" class="edge">
<title>processTemplate&#45;&gt;parseCmdLine</title>
<path fill="none" stroke="#000000" d="M1161.5542,-1177.1516C1180.2702,-1089.0302 1247.8088,-771.0362 1269.7579,-667.6923"/>
<polygon fill="#000000" stroke="#000000" points="1273.2002,-668.3313 1271.8542,-657.8223 1266.3529,-666.8769 1273.2002,-668.3313"/>
</g>
<!-- processTemplate&#45;&gt;env -->
<g id="edge20" class="edge">
<title>processTemplate&#45;&gt;env</title>
<path fill="none" stroke="#000000" d="M1078.8509,-1182.1886C938.3177,-1147.7615 656.7014,-1067.3733 656.7014,-976 656.7014,-976 656.7014,-976 656.7014,-867 656.7014,-795.293 671.8886,-712.2786 681.3377,-667.5685"/>
<polygon fill="#000000" stroke="#000000" points="684.805,-668.0922 683.4888,-657.5795 677.9619,-666.6185 684.805,-668.0922"/>
</g>
<!-- processTemplate&#45;&gt;variables -->
<g id="edge97" class="edge">
<title>processTemplate&#45;&gt;variables</title>
<path fill="none" stroke="#000000" d="M1150.2552,-1177.3208C1139.4136,-1137.1156 1118.7014,-1050.5501 1118.7014,-976 1118.7014,-976 1118.7014,-976 1118.7014,-867 1118.7014,-802.2286 1112.8556,-785.9298 1099.7014,-722.5083 1095.8749,-704.0591 1090.1886,-683.8097 1085.2055,-667.4404"/>
<polygon fill="#000000" stroke="#000000" points="1088.5211,-666.3153 1082.2165,-657.8004 1081.8351,-668.3884 1088.5211,-666.3153"/>
</g>
<!-- processTemplate&#45;&gt;vartypes -->
<g id="edge98" class="edge">
<title>processTemplate&#45;&gt;vartypes</title>
<path fill="none" stroke="#000000" d="M1236.6733,-1182.4985C1254.4363,-1178.75 1273.1889,-1174.9001 1290.7014,-1171.5083 1538.3144,-1123.5499 2408.7014,-1228.2146 2408.7014,-976 2408.7014,-976 2408.7014,-976 2408.7014,-867 2408.7014,-752.7068 2440.8771,-704.106 2372.7014,-612.3726 2341.0328,-569.7612 2285.1588,-545.9919 2240.1904,-533.1144"/>
<polygon fill="#000000" stroke="#000000" points="2241.0513,-529.7213 2230.4818,-530.4525 2239.2004,-536.4722 2241.0513,-529.7213"/>
</g>
<!-- processTemplate&#45;&gt;codefile -->
<g id="edge111" class="edge">
<title>processTemplate&#45;&gt;codefile</title>
<path fill="none" stroke="#000000" d="M1205.6437,-1179.1276C1254.3544,-1158.3538 1328.7702,-1126.6177 1378.0662,-1105.5944"/>
<polygon fill="#000000" stroke="#000000" points="1379.4454,-1108.8113 1387.2708,-1101.6689 1376.6994,-1102.3724 1379.4454,-1108.8113"/>
</g>
<!-- processTemplate&#45;&gt;replacement -->
<g id="edge100" class="edge">
<title>processTemplate&#45;&gt;replacement</title>
<path fill="none" stroke="#000000" d="M1164.1759,-1177.2469C1183.791,-1119.1542 1240.3298,-961.6691 1313.7014,-844.3726 1327.9587,-821.58 1347.4368,-798.4937 1363.4843,-780.9792"/>
<polygon fill="#000000" stroke="#000000" points="1366.3371,-783.0511 1370.585,-773.3451 1361.2115,-778.2836 1366.3371,-783.0511"/>
</g>
<!-- processTemplate&#45;&gt;readlines -->
<g id="edge24" class="edge">
<title>processTemplate&#45;&gt;readlines</title>
<path fill="none" stroke="#000000" d="M1058.3382,-1186.0108C951.5919,-1169.4664 789.3259,-1139.9331 736.7014,-1106.6274 685.3183,-1074.1074 675.0458,-1055.1828 652.7014,-998.6274 622.7069,-922.709 641.8787,-615.4381 643.7014,-612.3726 664.1503,-577.98 702.2431,-555.3979 737.1943,-541.0722"/>
<polygon fill="#000000" stroke="#000000" points="738.9187,-544.1556 746.9518,-537.2476 736.3642,-537.6383 738.9187,-544.1556"/>
</g>
<!-- processTemplate&#45;&gt;collectCommand -->
<g id="edge37" class="edge">
<title>processTemplate&#45;&gt;collectCommand</title>
<path fill="none" stroke="#000000" d="M1143.028,-1177.4151C1132.0091,-1158.7709 1116.4677,-1131.4401 1104.7014,-1106.6274 1049.7092,-990.6607 997.3969,-847.1323 975.0533,-783.7302"/>
<polygon fill="#000000" stroke="#000000" points="978.2192,-782.1817 971.605,-773.905 971.6141,-784.4998 978.2192,-782.1817"/>
</g>
<!-- processTemplate&#45;&gt;args -->
<g id="edge13" class="edge">
<title>processTemplate&#45;&gt;args</title>
<path fill="none" stroke="#000000" d="M1043.3201,-1190.4044C920.355,-1177.8528 734.4058,-1151.9389 680.7014,-1106.6274 572.1463,-1015.0372 419.0825,-599.0392 510.7014,-490.5083 544.1744,-450.8564 897.1307,-411.9674 1028.6629,-398.7463"/>
<polygon fill="#000000" stroke="#000000" points="1029.2483,-402.2053 1038.8511,-397.7291 1028.5529,-395.24 1029.2483,-402.2053"/>
</g>
<!-- processTemplate&#45;&gt;opresultwarn -->
<g id="edge101" class="edge">
<title>processTemplate&#45;&gt;opresultwarn</title>
<path fill="none" stroke="#000000" d="M1232.1863,-1181.9172C1251.1899,-1177.9269 1271.6138,-1174.1167 1290.7014,-1171.5083 1520.7887,-1140.0653 2125.6021,-1209.6978 2333.7014,-1106.6274 2402.491,-1072.5563 2446.7014,-1052.7649 2446.7014,-976 2446.7014,-976 2446.7014,-976 2446.7014,-867 2446.7014,-751.9205 2462.2489,-708.9702 2399.7014,-612.3726 2297.3333,-454.2766 2091.8401,-347.2633 1991.4964,-302.1538"/>
<polygon fill="#000000" stroke="#000000" points="1992.6802,-298.8497 1982.1209,-297.9819 1989.8343,-305.2451 1992.6802,-298.8497"/>
</g>
<!-- processTemplate&#45;&gt;messages -->
<g id="edge14" class="edge">
<title>processTemplate&#45;&gt;messages</title>
<path fill="none" stroke="#000000" d="M1045.5712,-1189.5718C914.2611,-1175.6098 705.2075,-1147.7386 638.7014,-1106.6274 514.9273,-1030.1158 546.4861,-946.3666 442.7014,-844.3726 281.7259,-686.1747 152.4389,-737.5435 30.7014,-547.4917 -6.7907,-488.9606 .7014,-463.5093 .7014,-394 .7014,-394 .7014,-394 .7014,-278 .7014,-197.8251 38.1182,-171.535 108.7014,-133.5083 241.4274,-62.0021 1292.6102,-43.1756 1618.6251,-39.0324"/>
<polygon fill="#000000" stroke="#000000" points="1619.0315,-42.5277 1628.9869,-38.9026 1618.9438,-35.5283 1619.0315,-42.5277"/>
</g>
<!-- processTemplate&#45;&gt;matches -->
<g id="edge23" class="edge">
<title>processTemplate&#45;&gt;matches</title>
<path fill="none" stroke="#000000" d="M1170.803,-1177.417C1207.7697,-1119.0668 1312.0822,-959.7858 1419.7014,-844.3726 1449.9897,-811.8907 1473.5109,-817.9629 1495.7014,-779.4917 1537.9595,-706.2297 1544.2734,-603.7844 1544.4788,-551.9016"/>
<polygon fill="#000000" stroke="#000000" points="1547.9778,-551.6135 1544.4406,-541.6266 1540.9779,-551.6395 1547.9778,-551.6135"/>
</g>
<!-- processTemplate&#45;&gt;readjson -->
<g id="edge99" class="edge">
<title>processTemplate&#45;&gt;readjson</title>
<path fill="none" stroke="#000000" d="M1231.8224,-1181.901C1250.9259,-1177.8859 1271.4873,-1174.0682 1290.7014,-1171.5083 1419.7607,-1154.3136 2360.9896,-1190.3503 2460.7014,-1106.6274 2557.2246,-1025.5818 2553.8896,-855.957 2547.5794,-784.1961"/>
<polygon fill="#000000" stroke="#000000" points="2551.035,-783.5641 2546.5972,-773.9435 2544.0669,-784.2318 2551.035,-783.5641"/>
</g>
<!-- processTemplate&#45;&gt;runCommand -->
<g id="edge96" class="edge">
<title>processTemplate&#45;&gt;runCommand</title>
<path fill="none" stroke="#000000" d="M1236.2704,-1182.4898C1323.223,-1162.6606 1456.3377,-1130.0677 1502.7014,-1106.6274 1555.1082,-1080.1319 1606.5932,-1035.1538 1637.5055,-1005.5104"/>
<polygon fill="#000000" stroke="#000000" points="1640.1708,-1007.801 1644.9094,-998.3249 1635.2957,-1002.7777 1640.1708,-1007.801"/>
</g>
<!-- runCommand&#45;&gt;runFunction -->
<g id="edge85" class="edge">
<title>runCommand&#45;&gt;runFunction</title>
<path fill="none" stroke="#000000" d="M1734.8362,-958.7286C1812.9586,-938.9255 1940.6363,-906.5607 2021.5785,-886.0428"/>
<polygon fill="#000000" stroke="#000000" points="2022.8668,-889.327 2031.7001,-883.4771 2021.1467,-882.5416 2022.8668,-889.327"/>
</g>
<!-- runCommand&#45;&gt;parseNumber -->
<g id="edge48" class="edge">
<title>runCommand&#45;&gt;parseNumber</title>
<path fill="none" stroke="#000000" d="M1690.7434,-953.6283C1709.0791,-936.399 1734.8205,-911.8477 1756.7014,-889.6274 1790.226,-855.5828 1827.2628,-815.5134 1853.0187,-787.2328"/>
<polygon fill="#000000" stroke="#000000" points="1855.8354,-789.3377 1859.9718,-779.5837 1850.6555,-784.6292 1855.8354,-789.3377"/>
</g>
<!-- runCommand&#45;&gt;regexes -->
<g id="edge40" class="edge">
<title>runCommand&#45;&gt;regexes</title>
<path fill="none" stroke="#000000" d="M1669.3415,-953.2315C1676.6723,-881.5354 1692.2405,-655.4177 1619.7014,-490.5083 1609.7724,-467.9358 1592.8803,-446.5284 1577.0833,-429.6373"/>
<polygon fill="#000000" stroke="#000000" points="1579.3876,-426.9843 1569.9312,-422.2064 1574.3441,-431.8385 1579.3876,-426.9843"/>
</g>
<!-- runCommand&#45;&gt;env -->
<g id="edge41" class="edge">
<title>runCommand&#45;&gt;env</title>
<path fill="none" stroke="#000000" d="M1564.5078,-971.0444C1399.1836,-959.0462 1067.4244,-918.1793 827.7014,-779.4917 777.2256,-750.2898 733.2863,-697.4289 708.9449,-664.3802"/>
<polygon fill="#000000" stroke="#000000" points="711.5967,-662.0745 702.8982,-656.026 705.9262,-666.1789 711.5967,-662.0745"/>
</g>
<!-- runCommand&#45;&gt;unicodes -->
<g id="edge95" class="edge">
<title>runCommand&#45;&gt;unicodes</title>
<path fill="none" stroke="#000000" d="M1767.5727,-969.7688C1946.2247,-957.8792 2310.8117,-929.5388 2431.7014,-889.6274 2524.3866,-859.0277 2557.3766,-852.9029 2621.7014,-779.4917 2650.0871,-747.0963 2666.3285,-699.3937 2674.5793,-667.7773"/>
<polygon fill="#000000" stroke="#000000" points="2678.0642,-668.266 2677.077,-657.7172 2671.2704,-666.5791 2678.0642,-668.266"/>
</g>
<!-- runCommand&#45;&gt;variables -->
<g id="edge55" class="edge">
<title>runCommand&#45;&gt;variables</title>
<path fill="none" stroke="#000000" d="M1643.8458,-953.8531C1607.0632,-918.3814 1537.453,-852.0149 1523.7014,-844.3726 1429.3667,-791.9467 1378.9319,-840.1995 1289.7014,-779.4917 1263.4692,-761.6448 1271.0191,-742.8869 1246.7014,-722.5083 1212.4034,-693.766 1167.0745,-671.1949 1131.5614,-656.1796"/>
<polygon fill="#000000" stroke="#000000" points="1132.8689,-652.9328 1122.2909,-652.3362 1130.1881,-659.3991 1132.8689,-652.9328"/>
</g>
<!-- runCommand&#45;&gt;vartypes -->
<g id="edge45" class="edge">
<title>runCommand&#45;&gt;vartypes</title>
<path fill="none" stroke="#000000" d="M1763.1346,-967.1101C1908.9903,-952.6788 2171.774,-922.4447 2199.7014,-889.6274 2212.7366,-874.3099 2201.7168,-864.3846 2199.7014,-844.3726 2191.2142,-760.1001 2170.1886,-741.8999 2161.7014,-657.6274 2159.686,-637.6154 2160.7354,-632.4626 2161.7014,-612.3726 2162.6645,-592.3415 2164.7835,-569.9766 2166.7235,-552.1579"/>
<polygon fill="#000000" stroke="#000000" points="2170.2287,-552.3067 2167.8656,-541.9788 2163.2723,-551.5262 2170.2287,-552.3067"/>
</g>
<!-- runCommand&#45;&gt;readlines -->
<g id="edge38" class="edge">
<title>runCommand&#45;&gt;readlines</title>
<path fill="none" stroke="#000000" d="M1623.4577,-955.2425C1529.2867,-910.3561 1298.1749,-801.9115 1099.7014,-722.5083 1019.5815,-690.4547 985.8799,-709.2119 916.7014,-657.6274 896.7457,-642.747 898.5009,-632.3883 883.7014,-612.3726 869.8306,-593.6129 854.2745,-572.8369 841.3561,-555.6546"/>
<polygon fill="#000000" stroke="#000000" points="844.0543,-553.4193 835.2451,-547.5329 838.4608,-557.628 844.0543,-553.4193"/>
</g>
<!-- runCommand&#45;&gt;warnings -->
<g id="edge47" class="edge">
<title>runCommand&#45;&gt;warnings</title>
<path fill="none" stroke="#000000" d="M1672.8417,-953.291C1677.5255,-935.8851 1684.103,-911.2604 1689.7014,-889.6274 1708.8887,-815.485 1685.1387,-783.3126 1731.7014,-722.5083 1767.6163,-675.6083 1817.8175,-708.5827 1847.7014,-657.6274 1857.8765,-640.2778 1853.0862,-631.7516 1847.7014,-612.3726 1798.7739,-436.2923 1659.8301,-260.6234 1601.2582,-192.0601"/>
<polygon fill="#000000" stroke="#000000" points="1603.7012,-189.5331 1594.5251,-184.2368 1598.3956,-194.0994 1603.7012,-189.5331"/>
</g>
<!-- runCommand&#45;&gt;collectCommand -->
<g id="edge93" class="edge">
<title>runCommand&#45;&gt;collectCommand</title>
<path fill="none" stroke="#000000" d="M1607.9732,-957.2036C1479.6317,-916.1271 1174.5257,-818.4758 1035.2487,-773.8992"/>
<polygon fill="#000000" stroke="#000000" points="1036.1031,-770.4978 1025.5121,-770.7829 1033.9692,-777.1647 1036.1031,-770.4978"/>
</g>
<!-- runCommand&#45;&gt;opresultwarn -->
<g id="edge94" class="edge">
<title>runCommand&#45;&gt;opresultwarn</title>
<path fill="none" stroke="#000000" d="M1682.7373,-953.5075C1694.1456,-936.6177 1709.0941,-912.5499 1718.7014,-889.6274 1748.347,-818.8943 1714.0579,-782.6093 1761.7014,-722.5083 1800.3403,-673.7662 1845.7165,-705.2714 1885.7014,-657.6274 1918.7192,-618.2851 1911.6098,-598.0421 1920.7014,-547.4917 1935.8347,-463.3484 1935.9972,-362.201 1934.8436,-311.0669"/>
<polygon fill="#000000" stroke="#000000" points="1938.3391,-310.8451 1934.5824,-300.9387 1931.3415,-311.0257 1938.3391,-310.8451"/>
</g>
<!-- runCommand&#45;&gt;messages -->
<g id="edge46" class="edge">
<title>runCommand&#45;&gt;messages</title>
<path fill="none" stroke="#000000" d="M1767.3982,-969.7903C1905.2532,-959.6867 2143.9486,-935.9827 2216.7014,-889.6274 2321.4916,-822.8591 2336.4587,-776.4781 2372.7014,-657.6274 2397.1988,-577.2931 2432.5444,-514.4175 2341.7014,-365.5083 2223.4188,-171.6202 1948.818,-86.9468 1805.4787,-54.8781"/>
<polygon fill="#000000" stroke="#000000" points="1805.9075,-51.3888 1795.3891,-52.6593 1804.404,-58.2255 1805.9075,-51.3888"/>
</g>
<!-- runCommand&#45;&gt;matches -->
<g id="edge39" class="edge">
<title>runCommand&#45;&gt;matches</title>
<path fill="none" stroke="#000000" d="M1648.3869,-953.4121C1636.197,-936.8559 1621.2601,-913.2377 1614.7014,-889.6274 1587.0966,-790.2553 1615.7362,-760.6862 1619.7014,-657.6274 1620.4747,-637.529 1626.4391,-631.3237 1619.7014,-612.3726 1610.8972,-587.609 1592.4063,-564.6453 1575.8686,-547.6878"/>
<polygon fill="#000000" stroke="#000000" points="1578.0157,-544.888 1568.4494,-540.3342 1573.088,-549.8597 1578.0157,-544.888"/>
</g>
<!-- runCommand&#45;&gt;readjson -->
<g id="edge92" class="edge">
<title>runCommand&#45;&gt;readjson</title>
<path fill="none" stroke="#000000" d="M1768.9412,-971.1045C1940.1899,-961.6819 2276.8627,-937.5769 2384.7014,-889.6274 2440.3847,-864.8684 2490.8566,-813.7268 2519.3661,-780.9602"/>
<polygon fill="#000000" stroke="#000000" points="2522.2897,-782.9268 2526.1309,-773.0528 2516.9706,-778.3763 2522.2897,-782.9268"/>
</g>
</g>
</svg>
