<?xml version="1.0" encoding="UTF-8" standalone="no"?>
<!DOCTYPE svg PUBLIC "-//W3C//DTD SVG 1.1//EN"
 "http://www.w3.org/Graphics/SVG/1.1/DTD/svg11.dtd">
<!-- Generated by graphviz version 2.40.1 (20161225.0304)
 -->
<!-- Title: statictea Pages: 1 -->
<svg width="720pt" height="338pt"
 viewBox="0.00 0.00 720.00 338.26" xmlns="http://www.w3.org/2000/svg" xmlns:xlink="http://www.w3.org/1999/xlink">
<g id="graph0" class="graph" transform="scale(.2618 .2618) rotate(0) translate(4 1287.9034)">
<title>statictea</title>
<polygon fill="#ffffff" stroke="transparent" points="-4,4 -4,-1287.9034 2745.9056,-1287.9034 2745.9056,4 -4,4"/>
<!-- runFunction -->
<g id="node1" class="node">
<title>runFunction</title>
<g id="a_node1"><a xlink:href="runFunction.md" xlink:title="runFunction.md">
<ellipse fill="#eee8aa" stroke="#000000" cx="834" cy="-852" rx="94.055" ry="22.7556"/>
<text text-anchor="middle" x="834" y="-844.8" font-family="Times,serif" font-size="24.00" fill="#000000">runFunction</text>
</a>
</g>
</g>
<!-- parseNumber -->
<g id="node3" class="node">
<title>parseNumber</title>
<g id="a_node3"><a xlink:href="parseNumber.md" xlink:title="parseNumber.md">
<polygon fill="#98fb98" stroke="#000000" points="1210.3805,-710.8581 1210.3805,-731.1419 1145.1353,-745.4846 1052.8647,-745.4846 987.6195,-731.1419 987.6195,-710.8581 1052.8647,-696.5154 1145.1353,-696.5154 1210.3805,-710.8581"/>
<polygon fill="none" stroke="#000000" points="1214.3872,-707.6442 1214.3872,-734.3558 1145.5714,-749.4835 1052.4286,-749.4835 983.6128,-734.3558 983.6128,-707.6442 1052.4286,-692.5165 1145.5714,-692.5165 1214.3872,-707.6442"/>
<text text-anchor="middle" x="1099" y="-713.8" font-family="Times,serif" font-size="24.00" fill="#000000">parseNumber</text>
</a>
</g>
</g>
<!-- runFunction&#45;&gt;parseNumber -->
<g id="edge56" class="edge">
<title>runFunction&#45;&gt;parseNumber</title>
<path fill="none" stroke="#000000" d="M875.4063,-831.5313C918.2996,-810.3274 985.8784,-776.9205 1035.5226,-752.3794"/>
<polygon fill="#000000" stroke="#000000" points="1037.1601,-755.4743 1044.5736,-747.9051 1034.058,-749.1991 1037.1601,-755.4743"/>
</g>
<!-- regexes -->
<g id="node4" class="node">
<title>regexes</title>
<g id="a_node4"><a xlink:href="regexes.md" xlink:title="regexes.md">
<polygon fill="#98fb98" stroke="#000000" points="1662.187,-449.8581 1662.187,-470.1419 1622.244,-484.4846 1565.756,-484.4846 1525.813,-470.1419 1525.813,-449.8581 1565.756,-435.5154 1622.244,-435.5154 1662.187,-449.8581"/>
<polygon fill="none" stroke="#000000" points="1666.1781,-447.0434 1666.1781,-472.9566 1622.9376,-488.4835 1565.0624,-488.4835 1521.8219,-472.9566 1521.8219,-447.0434 1565.0624,-431.5165 1622.9376,-431.5165 1666.1781,-447.0434"/>
<text text-anchor="middle" x="1594" y="-452.8" font-family="Times,serif" font-size="24.00" fill="#000000">regexes</text>
</a>
</g>
</g>
<!-- runFunction&#45;&gt;regexes -->
<g id="edge55" class="edge">
<title>runFunction&#45;&gt;regexes</title>
<path fill="none" stroke="#000000" d="M848.4571,-829.5684C871.4437,-795.5316 919.4493,-730.7647 975,-692.5083 1148.7484,-572.8517 1392.0299,-505.1712 1515.4763,-476.5058"/>
<polygon fill="#000000" stroke="#000000" points="1516.276,-479.9133 1525.2381,-474.2625 1514.7082,-473.0911 1516.276,-479.9133"/>
</g>
<!-- unicodes -->
<g id="node8" class="node">
<title>unicodes</title>
<g id="a_node8"><a xlink:href="unicodes.md" xlink:title="unicodes.md">
<ellipse fill="#eee8aa" stroke="#000000" cx="221" cy="-460" rx="71.7778" ry="22.7556"/>
<text text-anchor="middle" x="221" y="-452.8" font-family="Times,serif" font-size="24.00" fill="#000000">unicodes</text>
</a>
</g>
</g>
<!-- runFunction&#45;&gt;unicodes -->
<g id="edge65" class="edge">
<title>runFunction&#45;&gt;unicodes</title>
<path fill="none" stroke="#000000" d="M754.9225,-839.6625C683.6689,-825.9082 578.1123,-798.8054 498,-749.4917 494.2046,-747.1554 318.8114,-562.8716 249.1188,-489.5808"/>
<polygon fill="#000000" stroke="#000000" points="251.3622,-486.8608 241.935,-482.0255 246.2893,-491.6843 251.3622,-486.8608"/>
</g>
<!-- vartypes -->
<g id="node11" class="node">
<title>vartypes</title>
<g id="a_node11"><a xlink:href="vartypes.md" xlink:title="vartypes.md">
<ellipse fill="#eee8aa" stroke="#000000" cx="825" cy="-460" rx="68.6102" ry="22.7556"/>
<text text-anchor="middle" x="825" y="-452.8" font-family="Times,serif" font-size="24.00" fill="#000000">vartypes</text>
</a>
</g>
</g>
<!-- runFunction&#45;&gt;vartypes -->
<g id="edge54" class="edge">
<title>runFunction&#45;&gt;vartypes</title>
<path fill="none" stroke="#000000" d="M832.3514,-829.2148C830.924,-808.4513 828.9446,-776.9291 828,-749.4917 824.8047,-656.678 824.659,-547.0357 824.8254,-493.2073"/>
<polygon fill="#000000" stroke="#000000" points="828.3264,-492.9134 824.8633,-482.9005 821.3264,-492.8875 828.3264,-492.9134"/>
</g>
<!-- funtypes -->
<g id="node14" class="node">
<title>funtypes</title>
<g id="a_node14"><a xlink:href="funtypes.md" xlink:title="funtypes.md">
<ellipse fill="#eee8aa" stroke="#000000" cx="940" cy="-591" rx="69.5163" ry="22.7556"/>
<text text-anchor="middle" x="940" y="-583.8" font-family="Times,serif" font-size="24.00" fill="#000000">funtypes</text>
</a>
</g>
</g>
<!-- runFunction&#45;&gt;funtypes -->
<g id="edge70" class="edge">
<title>runFunction&#45;&gt;funtypes</title>
<path fill="none" stroke="#000000" d="M843.2214,-829.2945C862.1412,-782.7089 905.3887,-676.222 927.0857,-622.7985"/>
<polygon fill="#000000" stroke="#000000" points="930.3553,-624.0492 930.8754,-613.4671 923.8698,-621.4152 930.3553,-624.0492"/>
</g>
<!-- warnings -->
<g id="node16" class="node">
<title>warnings</title>
<g id="a_node16"><a xlink:href="warnings.md" xlink:title="warnings.md">
<ellipse fill="#eee8aa" stroke="#000000" cx="956" cy="-182" rx="73.5561" ry="22.7556"/>
<text text-anchor="middle" x="956" y="-174.8" font-family="Times,serif" font-size="24.00" fill="#000000">warnings</text>
</a>
</g>
</g>
<!-- runFunction&#45;&gt;warnings -->
<g id="edge53" class="edge">
<title>runFunction&#45;&gt;warnings</title>
<path fill="none" stroke="#000000" d="M833.2167,-829.0037C832.1849,-779.9741 833.1134,-661.9982 861,-568.3726 872.45,-529.9307 890.0917,-526.4688 903,-488.4917 935.6517,-392.4281 948.9241,-272.2751 953.6752,-215.1409"/>
<polygon fill="#000000" stroke="#000000" points="957.1856,-215.1491 954.4906,-204.9027 950.2077,-214.5933 957.1856,-215.1491"/>
</g>
<!-- signatures -->
<g id="node20" class="node">
<title>signatures</title>
<g id="a_node20"><a xlink:href="signatures.md" xlink:title="signatures.md">
<ellipse fill="#eee8aa" stroke="#000000" cx="696" cy="-721" rx="80.2483" ry="22.7556"/>
<text text-anchor="middle" x="696" y="-713.8" font-family="Times,serif" font-size="24.00" fill="#000000">signatures</text>
</a>
</g>
</g>
<!-- runFunction&#45;&gt;signatures -->
<g id="edge69" class="edge">
<title>runFunction&#45;&gt;signatures</title>
<path fill="none" stroke="#000000" d="M810.5902,-829.7776C787.4534,-807.8144 751.9378,-774.1004 726.582,-750.0308"/>
<polygon fill="#000000" stroke="#000000" points="728.7264,-747.2405 719.0641,-742.8942 723.9071,-752.3174 728.7264,-747.2405"/>
</g>
<!-- opresultwarn -->
<g id="node22" class="node">
<title>opresultwarn</title>
<g id="a_node22"><a xlink:href="opresultwarn.md" xlink:title="opresultwarn.md">
<ellipse fill="#eee8aa" stroke="#000000" cx="682" cy="-321" rx="99.824" ry="22.7556"/>
<text text-anchor="middle" x="682" y="-313.8" font-family="Times,serif" font-size="24.00" fill="#000000">opresultwarn</text>
</a>
</g>
</g>
<!-- runFunction&#45;&gt;opresultwarn -->
<g id="edge71" class="edge">
<title>runFunction&#45;&gt;opresultwarn</title>
<path fill="none" stroke="#000000" d="M769.2177,-835.4172C699.8742,-816.202 596.7285,-782.8839 574,-749.4917 494.4788,-632.661 520.6671,-562.3847 574,-431.5083 587.734,-397.8057 617.2417,-368.7892 641.948,-348.9569"/>
<polygon fill="#000000" stroke="#000000" points="644.3795,-351.4992 650.1129,-342.5898 640.0749,-345.9792 644.3795,-351.4992"/>
</g>
<!-- messages -->
<g id="node23" class="node">
<title>messages</title>
<g id="a_node23"><a xlink:href="messages.md" xlink:title="messages.md">
<polygon fill="#98fb98" stroke="#000000" points="1571.7388,-32.8581 1571.7388,-53.1419 1523.8573,-67.4846 1456.1427,-67.4846 1408.2612,-53.1419 1408.2612,-32.8581 1456.1427,-18.5154 1523.8573,-18.5154 1571.7388,-32.8581"/>
<polygon fill="none" stroke="#000000" points="1575.7446,-29.883 1575.7446,-56.117 1524.4454,-71.4835 1455.5546,-71.4835 1404.2554,-56.117 1404.2554,-29.883 1455.5546,-14.5165 1524.4454,-14.5165 1575.7446,-29.883"/>
<text text-anchor="middle" x="1490" y="-35.8" font-family="Times,serif" font-size="24.00" fill="#000000">messages</text>
</a>
</g>
</g>
<!-- runFunction&#45;&gt;messages -->
<g id="edge52" class="edge">
<title>runFunction&#45;&gt;messages</title>
<path fill="none" stroke="#000000" d="M744.0697,-844.9856C601.7084,-829.0511 324.5777,-777.6146 168,-613.6274 26.4786,-465.4091 -22.677,-280.7084 138,-153.5083 236.0282,-75.9041 1101.7381,-51.0072 1394.0627,-44.7738"/>
<polygon fill="#000000" stroke="#000000" points="1394.2934,-48.2699 1404.2175,-44.5599 1394.1459,-41.2714 1394.2934,-48.2699"/>
</g>
<!-- matches -->
<g id="node24" class="node">
<title>matches</title>
<g id="a_node24"><a xlink:href="matches.md" xlink:title="matches.md">
<ellipse fill="#eee8aa" stroke="#000000" cx="1851" cy="-591" rx="66.8311" ry="22.7556"/>
<text text-anchor="middle" x="1851" y="-583.8" font-family="Times,serif" font-size="24.00" fill="#000000">matches</text>
</a>
</g>
</g>
<!-- runFunction&#45;&gt;matches -->
<g id="edge57" class="edge">
<title>runFunction&#45;&gt;matches</title>
<path fill="none" stroke="#000000" d="M898.7767,-835.3759C1082.5611,-788.21 1605.724,-653.9469 1787.6895,-607.2478"/>
<polygon fill="#000000" stroke="#000000" points="1788.8235,-610.5703 1797.6395,-604.6943 1787.0833,-603.79 1788.8235,-610.5703"/>
</g>
<!-- opresultid -->
<g id="node2" class="node">
<title>opresultid</title>
<g id="a_node2"><a xlink:href="opresultid.md" xlink:title="opresultid.md">
<ellipse fill="#eee8aa" stroke="#000000" cx="221" cy="-321" rx="79.3758" ry="22.7556"/>
<text text-anchor="middle" x="221" y="-313.8" font-family="Times,serif" font-size="24.00" fill="#000000">opresultid</text>
</a>
</g>
</g>
<!-- opresultid&#45;&gt;messages -->
<g id="edge58" class="edge">
<title>opresultid&#45;&gt;messages</title>
<path fill="none" stroke="#000000" d="M248.5279,-299.6423C297.6965,-262.7722 405.2121,-187.841 509,-153.5083 671.8977,-99.6222 1180.0651,-62.4281 1393.7776,-48.7781"/>
<polygon fill="#000000" stroke="#000000" points="1394.2799,-52.2534 1404.0379,-48.1265 1393.8362,-45.2675 1394.2799,-52.2534"/>
</g>
<!-- opresult -->
<g id="node29" class="node">
<title>opresult</title>
<g id="a_node29"><a xlink:href="opresult.md" xlink:title="opresult.md">
<polygon fill="#98fb98" stroke="#000000" points="664.3526,-171.8581 664.3526,-192.1419 622.5552,-206.4846 563.4448,-206.4846 521.6474,-192.1419 521.6474,-171.8581 563.4448,-157.5154 622.5552,-157.5154 664.3526,-171.8581"/>
<polygon fill="none" stroke="#000000" points="668.3486,-169.0019 668.3486,-194.9981 623.2213,-210.4835 562.7787,-210.4835 517.6514,-194.9981 517.6514,-169.0019 562.7787,-153.5165 623.2213,-153.5165 668.3486,-169.0019"/>
<text text-anchor="middle" x="593" y="-174.8" font-family="Times,serif" font-size="24.00" fill="#000000">opresult</text>
</a>
</g>
</g>
<!-- opresultid&#45;&gt;opresult -->
<g id="edge59" class="edge">
<title>opresultid&#45;&gt;opresult</title>
<path fill="none" stroke="#000000" d="M269.2511,-302.9707C335.5715,-278.1897 455.0483,-233.5465 528.8403,-205.9736"/>
<polygon fill="#000000" stroke="#000000" points="530.3521,-209.1452 538.4944,-202.3663 527.9019,-202.588 530.3521,-209.1452"/>
</g>
<!-- cmdline -->
<g id="node5" class="node">
<title>cmdline</title>
<g id="a_node5"><a xlink:href="cmdline.md" xlink:title="cmdline.md">
<polygon fill="#98fb98" stroke="#000000" points="2387.3352,-449.8581 2387.3352,-470.1419 2345.548,-484.4846 2286.452,-484.4846 2244.6648,-470.1419 2244.6648,-449.8581 2286.452,-435.5154 2345.548,-435.5154 2387.3352,-449.8581"/>
<polygon fill="none" stroke="#000000" points="2391.3307,-447.0021 2391.3307,-472.9979 2346.2141,-488.4835 2285.7859,-488.4835 2240.6693,-472.9979 2240.6693,-447.0021 2285.7859,-431.5165 2346.2141,-431.5165 2391.3307,-447.0021"/>
<text text-anchor="middle" x="2316" y="-452.8" font-family="Times,serif" font-size="24.00" fill="#000000">cmdline</text>
</a>
</g>
</g>
<!-- parseCmdLine -->
<g id="node6" class="node">
<title>parseCmdLine</title>
<g id="a_node6"><a xlink:href="parseCmdLine.md" xlink:title="parseCmdLine.md">
<ellipse fill="#eee8aa" stroke="#000000" cx="1907" cy="-721" rx="111.4463" ry="22.7556"/>
<text text-anchor="middle" x="1907" y="-713.8" font-family="Times,serif" font-size="24.00" fill="#000000">parseCmdLine</text>
</a>
</g>
</g>
<!-- parseCmdLine&#45;&gt;regexes -->
<g id="edge20" class="edge">
<title>parseCmdLine&#45;&gt;regexes</title>
<path fill="none" stroke="#000000" d="M1864.0351,-700.125C1826.15,-680.6172 1770.5165,-649.2152 1728,-613.6274 1686.0933,-578.55 1645.9885,-529.8949 1620.7585,-496.8038"/>
<polygon fill="#000000" stroke="#000000" points="1623.4918,-494.6153 1614.6726,-488.7439 1617.9054,-498.8335 1623.4918,-494.6153"/>
</g>
<!-- env -->
<g id="node7" class="node">
<title>env</title>
<g id="a_node7"><a xlink:href="env.md" xlink:title="env.md">
<ellipse fill="#eee8aa" stroke="#000000" cx="1482" cy="-591" rx="35.6342" ry="22.7556"/>
<text text-anchor="middle" x="1482" y="-583.8" font-family="Times,serif" font-size="24.00" fill="#000000">env</text>
</a>
</g>
</g>
<!-- parseCmdLine&#45;&gt;env -->
<g id="edge19" class="edge">
<title>parseCmdLine&#45;&gt;env</title>
<path fill="none" stroke="#000000" d="M1845.2014,-702.0969C1757.5108,-675.2739 1599.2799,-626.8738 1523.9968,-603.8461"/>
<polygon fill="#000000" stroke="#000000" points="1524.9586,-600.4803 1514.3722,-600.9021 1522.911,-607.1741 1524.9586,-600.4803"/>
</g>
<!-- parseCmdLine&#45;&gt;messages -->
<g id="edge21" class="edge">
<title>parseCmdLine&#45;&gt;messages</title>
<path fill="none" stroke="#000000" d="M1868.5396,-699.6983C1838.392,-680.968 1797.843,-650.9058 1775,-613.6274 1738.512,-554.0813 1742,-529.8363 1742,-460 1742,-460 1742,-460 1742,-321 1742,-205.3515 1620.8064,-116.4072 1546.512,-72.7475"/>
<polygon fill="#000000" stroke="#000000" points="1548.1044,-69.6253 1537.6955,-67.6489 1544.6,-75.6849 1548.1044,-69.6253"/>
</g>
<!-- parseCmdLine&#45;&gt;matches -->
<g id="edge22" class="edge">
<title>parseCmdLine&#45;&gt;matches</title>
<path fill="none" stroke="#000000" d="M1897.2455,-698.3557C1888.3068,-677.605 1874.9738,-646.6535 1864.9175,-623.3084"/>
<polygon fill="#000000" stroke="#000000" points="1868.0013,-621.6204 1860.8306,-613.821 1861.5724,-624.3898 1868.0013,-621.6204"/>
</g>
<!-- tempFile -->
<g id="node10" class="node">
<title>tempFile</title>
<g id="a_node10"><a xlink:href="tempFile.md" xlink:title="tempFile.md">
<polygon fill="#98fb98" stroke="#000000" points="1419.598,-449.8581 1419.598,-470.1419 1374.1421,-484.4846 1309.8579,-484.4846 1264.402,-470.1419 1264.402,-449.8581 1309.8579,-435.5154 1374.1421,-435.5154 1419.598,-449.8581"/>
<polygon fill="none" stroke="#000000" points="1423.6004,-446.9275 1423.6004,-473.0725 1374.7591,-488.4835 1309.2409,-488.4835 1260.3996,-473.0725 1260.3996,-446.9275 1309.2409,-431.5165 1374.7591,-431.5165 1423.6004,-446.9275"/>
<text text-anchor="middle" x="1342" y="-452.8" font-family="Times,serif" font-size="24.00" fill="#000000">tempFile</text>
</a>
</g>
</g>
<!-- env&#45;&gt;tempFile -->
<g id="edge10" class="edge">
<title>env&#45;&gt;tempFile</title>
<path fill="none" stroke="#000000" d="M1461.9414,-572.2309C1440.6776,-552.334 1406.5848,-520.4329 1380.1726,-495.7186"/>
<polygon fill="#000000" stroke="#000000" points="1382.2884,-492.9052 1372.5952,-488.6283 1377.5057,-498.0165 1382.2884,-492.9052"/>
</g>
<!-- env&#45;&gt;warnings -->
<g id="edge12" class="edge">
<title>env&#45;&gt;warnings</title>
<path fill="none" stroke="#000000" d="M1480.4766,-568.3354C1477.1316,-534.8624 1466.5136,-471.8288 1433,-431.5083 1323.4777,-299.7407 1126.182,-228.7378 1023.0036,-199.0464"/>
<polygon fill="#000000" stroke="#000000" points="1023.8939,-195.661 1013.3185,-196.3014 1021.9851,-202.3957 1023.8939,-195.661"/>
</g>
<!-- args -->
<g id="node21" class="node">
<title>args</title>
<g id="a_node21"><a xlink:href="args.md" xlink:title="args.md">
<polygon fill="#98fb98" stroke="#000000" points="2140.5492,-449.8581 2140.5492,-470.1419 2115.6245,-484.4846 2080.3755,-484.4846 2055.4508,-470.1419 2055.4508,-449.8581 2080.3755,-435.5154 2115.6245,-435.5154 2140.5492,-449.8581"/>
<polygon fill="none" stroke="#000000" points="2144.5514,-447.5466 2144.5514,-472.4534 2116.6946,-488.4835 2079.3054,-488.4835 2051.4486,-472.4534 2051.4486,-447.5466 2079.3054,-431.5165 2116.6946,-431.5165 2144.5514,-447.5466"/>
<text text-anchor="middle" x="2098" y="-452.8" font-family="Times,serif" font-size="24.00" fill="#000000">args</text>
</a>
</g>
</g>
<!-- env&#45;&gt;args -->
<g id="edge13" class="edge">
<title>env&#45;&gt;args</title>
<path fill="none" stroke="#000000" d="M1515.9963,-583.7703C1616.9262,-562.3063 1915.6054,-498.7885 2041.2717,-472.064"/>
<polygon fill="#000000" stroke="#000000" points="2042.0401,-475.4789 2051.0933,-469.9753 2040.5839,-468.632 2042.0401,-475.4789"/>
</g>
<!-- env&#45;&gt;messages -->
<g id="edge11" class="edge">
<title>env&#45;&gt;messages</title>
<path fill="none" stroke="#000000" d="M1482.3336,-568.1508C1483.567,-483.6589 1487.8789,-188.2981 1489.4347,-81.721"/>
<polygon fill="#000000" stroke="#000000" points="1492.9343,-81.7668 1489.5808,-71.7168 1485.9351,-81.6646 1492.9343,-81.7668"/>
</g>
<!-- unicodes&#45;&gt;opresultid -->
<g id="edge60" class="edge">
<title>unicodes&#45;&gt;opresultid</title>
<path fill="none" stroke="#000000" d="M221,-437.3579C221,-414.64 221,-379.419 221,-353.6757"/>
<polygon fill="#000000" stroke="#000000" points="224.5001,-353.6324 221,-343.6324 217.5001,-353.6325 224.5001,-353.6324"/>
</g>
<!-- utf8decoder -->
<g id="node15" class="node">
<title>utf8decoder</title>
<g id="a_node15"><a xlink:href="utf8decoder.md" xlink:title="utf8decoder.md">
<polygon fill="#98fb98" stroke="#000000" points="559.9296,-310.8581 559.9296,-331.1419 501.3922,-345.4846 418.6078,-345.4846 360.0704,-331.1419 360.0704,-310.8581 418.6078,-296.5154 501.3922,-296.5154 559.9296,-310.8581"/>
<polygon fill="none" stroke="#000000" points="563.9282,-307.7208 563.9282,-334.2792 501.8749,-349.4835 418.1251,-349.4835 356.0718,-334.2792 356.0718,-307.7208 418.1251,-292.5165 501.8749,-292.5165 563.9282,-307.7208"/>
<text text-anchor="middle" x="460" y="-313.8" font-family="Times,serif" font-size="24.00" fill="#000000">utf8decoder</text>
</a>
</g>
</g>
<!-- unicodes&#45;&gt;utf8decoder -->
<g id="edge64" class="edge">
<title>unicodes&#45;&gt;utf8decoder</title>
<path fill="none" stroke="#000000" d="M255.2429,-440.0847C294.1669,-417.4469 358.2718,-380.1641 404.3917,-353.3413"/>
<polygon fill="#000000" stroke="#000000" points="406.1884,-356.3452 413.0731,-348.2922 402.6691,-350.2942 406.1884,-356.3452"/>
</g>
<!-- unicodes&#45;&gt;warnings -->
<g id="edge63" class="edge">
<title>unicodes&#45;&gt;warnings</title>
<path fill="none" stroke="#000000" d="M239.4288,-437.9944C257.6359,-415.9938 286.0162,-380.9938 309,-349.4917 326.9418,-324.9004 321.5555,-309.2181 347,-292.5083 432.795,-236.1652 729.6865,-202.3733 874.8346,-188.8518"/>
<polygon fill="#000000" stroke="#000000" points="875.3815,-192.3163 885.0181,-187.9133 874.739,-185.3459 875.3815,-192.3163"/>
</g>
<!-- unicodes&#45;&gt;opresultwarn -->
<g id="edge61" class="edge">
<title>unicodes&#45;&gt;opresultwarn</title>
<path fill="none" stroke="#000000" d="M272.9864,-444.3251C356.1109,-419.2616 519.043,-370.1345 612.2187,-342.0403"/>
<polygon fill="#000000" stroke="#000000" points="613.2784,-345.3765 621.8423,-339.1387 611.2576,-338.6746 613.2784,-345.3765"/>
</g>
<!-- unicodes&#45;&gt;messages -->
<g id="edge62" class="edge">
<title>unicodes&#45;&gt;messages</title>
<path fill="none" stroke="#000000" d="M195.3225,-438.7708C159.693,-406.6392 102.8625,-343.9484 133,-292.5083 196.8731,-183.4869 260.4806,-191.4622 381,-153.5083 569.1007,-94.2716 1160.7976,-59.3045 1394.0854,-47.5154"/>
<polygon fill="#000000" stroke="#000000" points="1394.4377,-51.0022 1404.2496,-47.005 1394.0866,-44.011 1394.4377,-51.0022"/>
</g>
<!-- variables -->
<g id="node9" class="node">
<title>variables</title>
<g id="a_node9"><a xlink:href="variables.md" xlink:title="variables.md">
<ellipse fill="#eee8aa" stroke="#000000" cx="2047" cy="-591" rx="72.6337" ry="22.7556"/>
<text text-anchor="middle" x="2047" y="-583.8" font-family="Times,serif" font-size="24.00" fill="#000000">variables</text>
</a>
</g>
</g>
<!-- variables&#45;&gt;vartypes -->
<g id="edge42" class="edge">
<title>variables&#45;&gt;vartypes</title>
<path fill="none" stroke="#000000" d="M1986.4342,-578.5012C1967.4634,-574.8768 1946.4125,-571.1518 1927,-568.3726 1544.5433,-513.6177 1083.4125,-478.0429 902.8455,-465.2793"/>
<polygon fill="#000000" stroke="#000000" points="902.8705,-461.7725 892.6495,-464.5618 902.3791,-468.7552 902.8705,-461.7725"/>
</g>
<!-- variables&#45;&gt;warnings -->
<g id="edge45" class="edge">
<title>variables&#45;&gt;warnings</title>
<path fill="none" stroke="#000000" d="M2015.1317,-570.6287C1962.9866,-537.9431 1855.463,-473.2311 1758,-431.5083 1495.3616,-319.0756 1164.9823,-232.5956 1024.3822,-198.198"/>
<polygon fill="#000000" stroke="#000000" points="1025.1348,-194.7791 1014.5904,-195.8118 1023.4774,-201.5801 1025.1348,-194.7791"/>
</g>
<!-- variables&#45;&gt;args -->
<g id="edge46" class="edge">
<title>variables&#45;&gt;args</title>
<path fill="none" stroke="#000000" d="M2055.7672,-568.4803C2063.293,-549.1494 2074.3001,-520.8761 2083.1904,-498.0403"/>
<polygon fill="#000000" stroke="#000000" points="2086.4882,-499.2168 2086.8546,-488.6283 2079.9651,-496.6773 2086.4882,-499.2168"/>
</g>
<!-- variables&#45;&gt;opresultwarn -->
<g id="edge47" class="edge">
<title>variables&#45;&gt;opresultwarn</title>
<path fill="none" stroke="#000000" d="M2006.8733,-572.0118C1925.2043,-533.6632 1741.7553,-449.119 1675,-431.5083 1509.2796,-387.7896 1007.7073,-345.7175 787.5373,-328.8006"/>
<polygon fill="#000000" stroke="#000000" points="787.5062,-325.288 777.2681,-328.0141 786.9716,-332.2676 787.5062,-325.288"/>
</g>
<!-- variables&#45;&gt;messages -->
<g id="edge44" class="edge">
<title>variables&#45;&gt;messages</title>
<path fill="none" stroke="#000000" d="M2045.6406,-568.1218C2040.3482,-486.8963 2018.443,-214.011 1960,-153.5083 1909.0205,-100.7321 1707.9433,-68.4564 1585.9158,-53.325"/>
<polygon fill="#000000" stroke="#000000" points="1586.1678,-49.8298 1575.8168,-52.0894 1585.3177,-56.778 1586.1678,-49.8298"/>
</g>
<!-- version -->
<g id="node25" class="node">
<title>version</title>
<g id="a_node25"><a xlink:href="version.md" xlink:title="version.md">
<polygon fill="#98fb98" stroke="#000000" points="2546.1523,-449.8581 2546.1523,-470.1419 2507.4012,-484.4846 2452.5988,-484.4846 2413.8477,-470.1419 2413.8477,-449.8581 2452.5988,-435.5154 2507.4012,-435.5154 2546.1523,-449.8581"/>
<polygon fill="none" stroke="#000000" points="2550.1421,-447.0721 2550.1421,-472.9279 2508.1143,-488.4835 2451.8857,-488.4835 2409.8579,-472.9279 2409.8579,-447.0721 2451.8857,-431.5165 2508.1143,-431.5165 2550.1421,-447.0721"/>
<text text-anchor="middle" x="2480" y="-452.8" font-family="Times,serif" font-size="24.00" fill="#000000">version</text>
</a>
</g>
</g>
<!-- variables&#45;&gt;version -->
<g id="edge43" class="edge">
<title>variables&#45;&gt;version</title>
<path fill="none" stroke="#000000" d="M2102.0351,-576.1119C2171.7445,-557.0038 2295.396,-522.2739 2400,-488.4917 2405.5725,-486.6921 2411.3416,-484.765 2417.1122,-482.7934"/>
<polygon fill="#000000" stroke="#000000" points="2418.4827,-486.0229 2426.7905,-479.4478 2416.1957,-479.407 2418.4827,-486.0229"/>
</g>
<!-- vartypes&#45;&gt;warnings -->
<g id="edge34" class="edge">
<title>vartypes&#45;&gt;warnings</title>
<path fill="none" stroke="#000000" d="M835.7203,-437.2501C858.9995,-387.8483 914.2269,-270.6482 940.9714,-213.8928"/>
<polygon fill="#000000" stroke="#000000" points="944.2187,-215.2123 945.3153,-204.6744 937.8865,-212.2284 944.2187,-215.2123"/>
</g>
<!-- vartypes&#45;&gt;opresultwarn -->
<g id="edge37" class="edge">
<title>vartypes&#45;&gt;opresultwarn</title>
<path fill="none" stroke="#000000" d="M802.6563,-438.2813C778.3873,-414.6911 739.4739,-376.8662 712.4264,-350.5753"/>
<polygon fill="#000000" stroke="#000000" points="714.7446,-347.9476 705.1344,-343.4872 709.8655,-352.9671 714.7446,-347.9476"/>
</g>
<!-- replacement -->
<g id="node12" class="node">
<title>replacement</title>
<g id="a_node12"><a xlink:href="replacement.md" xlink:title="replacement.md">
<ellipse fill="#eee8aa" stroke="#000000" cx="1535" cy="-852" rx="94.4556" ry="22.7556"/>
<text text-anchor="middle" x="1535" y="-844.8" font-family="Times,serif" font-size="24.00" fill="#000000">replacement</text>
</a>
</g>
</g>
<!-- replacement&#45;&gt;parseNumber -->
<g id="edge94" class="edge">
<title>replacement&#45;&gt;parseNumber</title>
<path fill="none" stroke="#000000" d="M1475.7453,-834.1964C1400.1924,-811.4959 1269.0782,-772.1015 1183.1773,-746.2918"/>
<polygon fill="#000000" stroke="#000000" points="1184.037,-742.8956 1173.4528,-743.37 1182.0227,-749.5995 1184.037,-742.8956"/>
</g>
<!-- replacement&#45;&gt;regexes -->
<g id="edge85" class="edge">
<title>replacement&#45;&gt;regexes</title>
<path fill="none" stroke="#000000" d="M1538.4271,-829.2301C1548.1479,-764.6443 1575.979,-579.7325 1588.1657,-498.7633"/>
<polygon fill="#000000" stroke="#000000" points="1591.6821,-498.9158 1589.7095,-488.5062 1584.7601,-497.8739 1591.6821,-498.9158"/>
</g>
<!-- replacement&#45;&gt;parseCmdLine -->
<g id="edge88" class="edge">
<title>replacement&#45;&gt;parseCmdLine</title>
<path fill="none" stroke="#000000" d="M1588.2985,-833.2309C1655.1119,-809.7025 1769.5923,-769.3882 1841.6264,-744.0213"/>
<polygon fill="#000000" stroke="#000000" points="1842.7944,-747.3208 1851.0641,-740.6979 1840.4693,-740.7182 1842.7944,-747.3208"/>
</g>
<!-- replacement&#45;&gt;env -->
<g id="edge86" class="edge">
<title>replacement&#45;&gt;env</title>
<path fill="none" stroke="#000000" d="M1530.3893,-829.2945C1520.9687,-782.9022 1499.4849,-677.1047 1488.5928,-623.4663"/>
<polygon fill="#000000" stroke="#000000" points="1491.9824,-622.5706 1486.5623,-613.4671 1485.1224,-623.9636 1491.9824,-622.5706"/>
</g>
<!-- replacement&#45;&gt;variables -->
<g id="edge92" class="edge">
<title>replacement&#45;&gt;variables</title>
<path fill="none" stroke="#000000" d="M1617.7336,-841.1646C1755.3414,-822.3118 2018.9084,-782.3458 2046,-749.4917 2074.9188,-714.4219 2066.9322,-658.6171 2057.6276,-623.4403"/>
<polygon fill="#000000" stroke="#000000" points="2060.9535,-622.3386 2054.8679,-613.6659 2054.2169,-624.2407 2060.9535,-622.3386"/>
</g>
<!-- replacement&#45;&gt;tempFile -->
<g id="edge93" class="edge">
<title>replacement&#45;&gt;tempFile</title>
<path fill="none" stroke="#000000" d="M1523.9303,-829.5164C1492.1422,-764.9519 1400.3251,-578.4634 1360.6389,-497.8572"/>
<polygon fill="#000000" stroke="#000000" points="1363.6223,-495.993 1356.0651,-488.5674 1357.3422,-499.085 1363.6223,-495.993"/>
</g>
<!-- replacement&#45;&gt;vartypes -->
<g id="edge87" class="edge">
<title>replacement&#45;&gt;vartypes</title>
<path fill="none" stroke="#000000" d="M1497.3286,-831.2011C1376.523,-764.5028 999.1576,-556.1546 869.3699,-484.4972"/>
<polygon fill="#000000" stroke="#000000" points="870.9061,-481.3473 860.46,-479.5779 867.5227,-487.4754 870.9061,-481.3473"/>
</g>
<!-- readlines -->
<g id="node13" class="node">
<title>readlines</title>
<g id="a_node13"><a xlink:href="readlines.md" xlink:title="readlines.md">
<polygon fill="#98fb98" stroke="#000000" points="1735.5894,-710.8581 1735.5894,-731.1419 1689.5528,-745.4846 1624.4472,-745.4846 1578.4106,-731.1419 1578.4106,-710.8581 1624.4472,-696.5154 1689.5528,-696.5154 1735.5894,-710.8581"/>
<polygon fill="none" stroke="#000000" points="1739.5916,-707.9163 1739.5916,-734.0837 1690.1623,-749.4835 1623.8377,-749.4835 1574.4084,-734.0837 1574.4084,-707.9163 1623.8377,-692.5165 1690.1623,-692.5165 1739.5916,-707.9163"/>
<text text-anchor="middle" x="1657" y="-713.8" font-family="Times,serif" font-size="24.00" fill="#000000">readlines</text>
</a>
</g>
</g>
<!-- replacement&#45;&gt;readlines -->
<g id="edge89" class="edge">
<title>replacement&#45;&gt;readlines</title>
<path fill="none" stroke="#000000" d="M1555.6956,-829.7776C1574.1413,-809.9713 1601.4865,-780.6087 1623.1188,-757.3807"/>
<polygon fill="#000000" stroke="#000000" points="1625.9608,-759.4645 1630.2148,-749.7612 1620.8382,-754.6938 1625.9608,-759.4645"/>
</g>
<!-- replacement&#45;&gt;opresultwarn -->
<g id="edge95" class="edge">
<title>replacement&#45;&gt;opresultwarn</title>
<path fill="none" stroke="#000000" d="M1441.69,-848.6187C1217.3312,-839.5321 662.0842,-810.9957 607,-749.4917 504.1138,-634.6148 613.0814,-430.3736 661.3925,-352.4221"/>
<polygon fill="#000000" stroke="#000000" points="664.6067,-353.8854 666.9651,-343.5564 658.6802,-350.1602 664.6067,-353.8854"/>
</g>
<!-- replacement&#45;&gt;messages -->
<g id="edge91" class="edge">
<title>replacement&#45;&gt;messages</title>
<path fill="none" stroke="#000000" d="M1613.8146,-839.4668C1718.4813,-822.2319 1908.7949,-788.8367 2069,-749.4917 2272.7144,-699.4614 2368.0528,-757.1884 2521,-613.6274 2574.1001,-563.786 2578,-532.8271 2578,-460 2578,-460 2578,-460 2578,-321 2578,-117.0889 1851.5415,-60.8006 1585.846,-47.0327"/>
<polygon fill="#000000" stroke="#000000" points="1585.9928,-43.5358 1575.8277,-46.5225 1585.6367,-50.5267 1585.9928,-43.5358"/>
</g>
<!-- replacement&#45;&gt;matches -->
<g id="edge90" class="edge">
<title>replacement&#45;&gt;matches</title>
<path fill="none" stroke="#000000" d="M1616.8175,-840.6483C1749.9337,-821.356 2001.2319,-781.1819 2027,-749.4917 2072.4327,-693.6174 1973.3284,-640.0144 1906.1868,-611.7259"/>
<polygon fill="#000000" stroke="#000000" points="1907.1124,-608.3215 1896.5336,-607.7386 1904.44,-614.7913 1907.1124,-608.3215"/>
</g>
<!-- funtypes&#45;&gt;vartypes -->
<g id="edge49" class="edge">
<title>funtypes&#45;&gt;vartypes</title>
<path fill="none" stroke="#000000" d="M920.7516,-569.0735C901.6792,-547.3477 872.3312,-513.9164 851.1534,-489.7921"/>
<polygon fill="#000000" stroke="#000000" points="853.5388,-487.2041 844.3112,-481.998 848.2782,-491.8221 853.5388,-487.2041"/>
</g>
<!-- funtypes&#45;&gt;warnings -->
<g id="edge50" class="edge">
<title>funtypes&#45;&gt;warnings</title>
<path fill="none" stroke="#000000" d="M940.8945,-568.134C943.5807,-499.4675 951.5843,-294.877 954.7198,-214.7248"/>
<polygon fill="#000000" stroke="#000000" points="958.2181,-214.834 955.1118,-204.7048 951.2235,-214.5603 958.2181,-214.834"/>
</g>
<!-- warnings&#45;&gt;messages -->
<g id="edge3" class="edge">
<title>warnings&#45;&gt;messages</title>
<path fill="none" stroke="#000000" d="M1012.3897,-167.3218C1107.8038,-142.4855 1301.3359,-92.1092 1410.4827,-63.6983"/>
<polygon fill="#000000" stroke="#000000" points="1411.6568,-67.0094 1420.4526,-61.1032 1409.8934,-60.2352 1411.6568,-67.0094"/>
</g>
<!-- collectCommand -->
<g id="node17" class="node">
<title>collectCommand</title>
<g id="a_node17"><a xlink:href="collectCommand.md" xlink:title="collectCommand.md">
<ellipse fill="#eee8aa" stroke="#000000" cx="1850" cy="-852" rx="127.4982" ry="22.7556"/>
<text text-anchor="middle" x="1850" y="-844.8" font-family="Times,serif" font-size="24.00" fill="#000000">collectCommand</text>
</a>
</g>
</g>
<!-- collectCommand&#45;&gt;parseCmdLine -->
<g id="edge27" class="edge">
<title>collectCommand&#45;&gt;parseCmdLine</title>
<path fill="none" stroke="#000000" d="M1859.9286,-829.1815C1869.1237,-808.049 1882.887,-776.4176 1893.1592,-752.8096"/>
<polygon fill="#000000" stroke="#000000" points="1896.4046,-754.123 1897.1851,-743.557 1889.9859,-751.3301 1896.4046,-754.123"/>
</g>
<!-- collectCommand&#45;&gt;env -->
<g id="edge24" class="edge">
<title>collectCommand&#45;&gt;env</title>
<path fill="none" stroke="#000000" d="M1836.1803,-829.351C1809.9841,-786.5361 1755.156,-697.5354 1749,-692.5083 1682.4652,-638.1748 1583.7279,-610.8952 1526.8288,-598.934"/>
<polygon fill="#000000" stroke="#000000" points="1527.2055,-595.439 1516.7086,-596.8757 1525.8104,-602.2986 1527.2055,-595.439"/>
</g>
<!-- collectCommand&#45;&gt;readlines -->
<g id="edge26" class="edge">
<title>collectCommand&#45;&gt;readlines</title>
<path fill="none" stroke="#000000" d="M1817.6961,-830.0735C1786.9302,-809.191 1740.2317,-777.4941 1705.0911,-753.6422"/>
<polygon fill="#000000" stroke="#000000" points="1706.6625,-750.4787 1696.4229,-747.7585 1702.7313,-756.2705 1706.6625,-750.4787"/>
</g>
<!-- collectCommand&#45;&gt;messages -->
<g id="edge28" class="edge">
<title>collectCommand&#45;&gt;messages</title>
<path fill="none" stroke="#000000" d="M1940.5032,-835.9738C1990.1602,-822.0632 2047.6523,-796.4098 2078,-749.4917 2091.7548,-728.2265 2089.7104,-714.9643 2078,-692.5083 2049.6795,-638.2008 1996.6061,-666.0908 1965,-613.6274 1929.4975,-554.6963 1946,-528.7991 1946,-460 1946,-460 1946,-460 1946,-321 1946,-153.6581 1719.3481,-84.0946 1585.6294,-57.6155"/>
<polygon fill="#000000" stroke="#000000" points="1586.253,-54.1713 1575.7701,-55.7077 1584.923,-61.0439 1586.253,-54.1713"/>
</g>
<!-- collectCommand&#45;&gt;matches -->
<g id="edge25" class="edge">
<title>collectCommand&#45;&gt;matches</title>
<path fill="none" stroke="#000000" d="M1931.7014,-834.6222C1977.9283,-820.1561 2031.9513,-794.3953 2060,-749.4917 2102.1943,-681.9423 1989.1835,-632.715 1913.3435,-608.3036"/>
<polygon fill="#000000" stroke="#000000" points="1913.9599,-604.8285 1903.3705,-605.1662 1911.8592,-611.5059 1913.9599,-604.8285"/>
</g>
<!-- statictea -->
<g id="node18" class="node">
<title>statictea</title>
<g id="a_node18"><a xlink:href="statictea.md" xlink:title="statictea.md">
<polygon fill="#eee8aa" stroke="#000000" points="2419.0958,-1233.3667 2502,-1214.0619 2584.9042,-1233.3667 2584.8268,-1264.6024 2419.1732,-1264.6024 2419.0958,-1233.3667"/>
<text text-anchor="middle" x="2502" y="-1234.8" font-family="Times,serif" font-size="24.00" fill="#000000">statictea</text>
</a>
</g>
</g>
<!-- statictea&#45;&gt;env -->
<g id="edge103" class="edge">
<title>statictea&#45;&gt;env</title>
<path fill="none" stroke="#000000" d="M2419.2496,-1235.8684C2227.766,-1221.0343 1759.0636,-1180.8418 1609,-1132.4917 1468.6215,-1087.2622 1318,-1120.485 1318,-973 1318,-973 1318,-973 1318,-852 1318,-751.8809 1405.5874,-658.7038 1452.7444,-615.7929"/>
<polygon fill="#000000" stroke="#000000" points="1455.1042,-618.3779 1460.2221,-609.1011 1450.4362,-613.1616 1455.1042,-618.3779"/>
</g>
<!-- gethelp -->
<g id="node19" class="node">
<title>gethelp</title>
<g id="a_node19"><a xlink:href="gethelp.md" xlink:title="gethelp.md">
<polygon fill="#98fb98" stroke="#000000" points="2704.1349,-1093.8581 2704.1349,-1114.1419 2665.394,-1128.4846 2610.606,-1128.4846 2571.8651,-1114.1419 2571.8651,-1093.8581 2610.606,-1079.5154 2665.394,-1079.5154 2704.1349,-1093.8581"/>
<polygon fill="none" stroke="#000000" points="2708.1242,-1091.0722 2708.1242,-1116.9278 2666.1071,-1132.4835 2609.8929,-1132.4835 2567.8758,-1116.9278 2567.8758,-1091.0722 2609.8929,-1075.5165 2666.1071,-1075.5165 2708.1242,-1091.0722"/>
<text text-anchor="middle" x="2638" y="-1096.8" font-family="Times,serif" font-size="24.00" fill="#000000">gethelp</text>
</a>
</g>
</g>
<!-- statictea&#45;&gt;gethelp -->
<g id="edge101" class="edge">
<title>statictea&#45;&gt;gethelp</title>
<path fill="none" stroke="#000000" d="M2524.4576,-1219.2121C2545.7443,-1197.6124 2578.0505,-1164.8311 2602.7668,-1139.7513"/>
<polygon fill="#000000" stroke="#000000" points="2605.3201,-1142.1468 2609.8465,-1132.5675 2600.3343,-1137.2333 2605.3201,-1142.1468"/>
</g>
<!-- statictea&#45;&gt;args -->
<g id="edge99" class="edge">
<title>statictea&#45;&gt;args</title>
<path fill="none" stroke="#000000" d="M2489.7893,-1216.7075C2468.3058,-1169.8103 2426,-1065.6914 2426,-973 2426,-973 2426,-973 2426,-852 2426,-771.8845 2397.5736,-750.215 2342,-692.5083 2293.2625,-641.9 2256.7702,-661.1287 2205,-613.6274 2194.8054,-604.2735 2150.8375,-539.401 2122.5324,-497.0004"/>
<polygon fill="#000000" stroke="#000000" points="2125.3802,-494.9622 2116.9215,-488.5825 2119.5555,-498.8447 2125.3802,-494.9622"/>
</g>
<!-- statictea&#45;&gt;messages -->
<g id="edge100" class="edge">
<title>statictea&#45;&gt;messages</title>
<path fill="none" stroke="#000000" d="M2562.5724,-1228.0261C2612.5105,-1213.1461 2680.8093,-1184.368 2717,-1132.4917 2757.8444,-1073.9447 2736,-1044.3864 2736,-973 2736,-973 2736,-973 2736,-321 2736,-195.6206 2625.8105,-199.0638 2509,-153.5083 2341.9291,-88.3514 1806.3,-57.2926 1586.0095,-47.0282"/>
<polygon fill="#000000" stroke="#000000" points="1585.9114,-43.5201 1575.7606,-46.5551 1585.5885,-50.5126 1585.9114,-43.5201"/>
</g>
<!-- statictea&#45;&gt;version -->
<g id="edge102" class="edge">
<title>statictea&#45;&gt;version</title>
<path fill="none" stroke="#000000" d="M2508.2749,-1215.4492C2519.068,-1167.3836 2540,-1062.6136 2540,-973 2540,-973 2540,-973 2540,-721 2540,-652.642 2537.4324,-634.7261 2521,-568.3726 2515.0721,-544.4361 2505.4202,-518.574 2496.9699,-498.119"/>
<polygon fill="#000000" stroke="#000000" points="2500.1689,-496.697 2493.0651,-488.8366 2493.7165,-499.4114 2500.1689,-496.697"/>
</g>
<!-- parseCommandLine -->
<g id="node27" class="node">
<title>parseCommandLine</title>
<g id="a_node27"><a xlink:href="parseCommandLine.md" xlink:title="parseCommandLine.md">
<ellipse fill="#eee8aa" stroke="#000000" cx="2363" cy="-591" rx="148.8522" ry="22.7556"/>
<text text-anchor="middle" x="2363" y="-583.8" font-family="Times,serif" font-size="24.00" fill="#000000">parseCommandLine</text>
</a>
</g>
</g>
<!-- statictea&#45;&gt;parseCommandLine -->
<g id="edge7" class="edge">
<title>statictea&#45;&gt;parseCommandLine</title>
<path fill="none" stroke="#000000" d="M2503.9026,-1214.4661C2508.5773,-1131.9155 2515.2596,-880.5755 2440,-692.5083 2429.3101,-665.7951 2409.6035,-640.021 2392.8033,-621.1286"/>
<polygon fill="#000000" stroke="#000000" points="2395.3794,-618.7593 2386.0559,-613.7272 2390.2064,-623.4752 2395.3794,-618.7593"/>
</g>
<!-- processTemplate -->
<g id="node28" class="node">
<title>processTemplate</title>
<g id="a_node28"><a xlink:href="processTemplate.md" xlink:title="processTemplate.md">
<ellipse fill="#eee8aa" stroke="#000000" cx="1743" cy="-1104" rx="125.2054" ry="22.7556"/>
<text text-anchor="middle" x="1743" y="-1096.8" font-family="Times,serif" font-size="24.00" fill="#000000">processTemplate</text>
</a>
</g>
</g>
<!-- statictea&#45;&gt;processTemplate -->
<g id="edge98" class="edge">
<title>statictea&#45;&gt;processTemplate</title>
<path fill="none" stroke="#000000" d="M2434.3102,-1229.6928C2299.7428,-1205.226 1998.1177,-1150.385 1841.5411,-1121.9166"/>
<polygon fill="#000000" stroke="#000000" points="1841.9055,-1118.4255 1831.4407,-1120.0801 1840.6533,-1125.3126 1841.9055,-1118.4255"/>
</g>
<!-- signatures&#45;&gt;vartypes -->
<g id="edge66" class="edge">
<title>signatures&#45;&gt;vartypes</title>
<path fill="none" stroke="#000000" d="M707.2222,-698.2945C730.2951,-651.6123 783.0973,-544.7799 809.4475,-491.4667"/>
<polygon fill="#000000" stroke="#000000" points="812.6023,-492.9827 813.8956,-482.4671 806.327,-489.8811 812.6023,-492.9827"/>
</g>
<!-- signatures&#45;&gt;funtypes -->
<g id="edge67" class="edge">
<title>signatures&#45;&gt;funtypes</title>
<path fill="none" stroke="#000000" d="M733.5903,-700.9724C776.9526,-677.8695 848.2195,-639.8994 894.6287,-615.1732"/>
<polygon fill="#000000" stroke="#000000" points="896.3837,-618.204 903.5634,-610.4129 893.0921,-612.0262 896.3837,-618.204"/>
</g>
<!-- signatures&#45;&gt;messages -->
<g id="edge68" class="edge">
<title>signatures&#45;&gt;messages</title>
<path fill="none" stroke="#000000" d="M697.5457,-698.2341C701.4454,-648.5599 713.8495,-527.2308 747,-431.5083 760.537,-392.4199 773.2185,-386.841 791,-349.4917 831.5875,-264.2396 799.3369,-212.5761 873,-153.5083 951.8424,-90.2873 1241.0553,-60.6333 1393.8832,-49.1174"/>
<polygon fill="#000000" stroke="#000000" points="1394.484,-52.5826 1404.1975,-48.3522 1393.966,-45.6018 1394.484,-52.5826"/>
</g>
<!-- opresultwarn&#45;&gt;warnings -->
<g id="edge35" class="edge">
<title>opresultwarn&#45;&gt;warnings</title>
<path fill="none" stroke="#000000" d="M723.0206,-300.1903C772.7352,-274.9701 856.3365,-232.5592 908.7141,-205.9881"/>
<polygon fill="#000000" stroke="#000000" points="910.4621,-209.026 917.7968,-201.3805 907.2952,-202.7833 910.4621,-209.026"/>
</g>
<!-- opresultwarn&#45;&gt;opresult -->
<g id="edge36" class="edge">
<title>opresultwarn&#45;&gt;opresult</title>
<path fill="none" stroke="#000000" d="M667.5025,-298.3579C653.7995,-276.9565 632.9918,-244.4591 616.8458,-219.2424"/>
<polygon fill="#000000" stroke="#000000" points="619.6884,-217.191 611.3485,-210.6567 613.7933,-220.9656 619.6884,-217.191"/>
</g>
<!-- matches&#45;&gt;regexes -->
<g id="edge16" class="edge">
<title>matches&#45;&gt;regexes</title>
<path fill="none" stroke="#000000" d="M1813.9045,-572.0914C1770.3276,-549.8791 1697.6736,-512.8453 1647.8858,-487.4671"/>
<polygon fill="#000000" stroke="#000000" points="1649.3664,-484.2934 1638.8676,-482.8702 1646.1874,-490.5299 1649.3664,-484.2934"/>
</g>
<!-- matches&#45;&gt;args -->
<g id="edge15" class="edge">
<title>matches&#45;&gt;args</title>
<path fill="none" stroke="#000000" d="M1887.1804,-571.8112C1931.2399,-548.4436 2005.6566,-508.9757 2053.2681,-483.7242"/>
<polygon fill="#000000" stroke="#000000" points="2054.9298,-486.8047 2062.1243,-479.0272 2051.65,-480.6206 2054.9298,-486.8047"/>
</g>
<!-- readjson -->
<g id="node26" class="node">
<title>readjson</title>
<g id="a_node26"><a xlink:href="readjson.md" xlink:title="readjson.md">
<ellipse fill="#eee8aa" stroke="#000000" cx="246" cy="-591" rx="68.6102" ry="22.7556"/>
<text text-anchor="middle" x="246" y="-583.8" font-family="Times,serif" font-size="24.00" fill="#000000">readjson</text>
</a>
</g>
</g>
<!-- readjson&#45;&gt;unicodes -->
<g id="edge75" class="edge">
<title>readjson&#45;&gt;unicodes</title>
<path fill="none" stroke="#000000" d="M241.6453,-568.1815C237.6726,-547.3645 231.7557,-516.3599 227.2734,-492.8724"/>
<polygon fill="#000000" stroke="#000000" points="230.7013,-492.1631 225.3886,-482.9965 223.8253,-493.4754 230.7013,-492.1631"/>
</g>
<!-- readjson&#45;&gt;vartypes -->
<g id="edge73" class="edge">
<title>readjson&#45;&gt;vartypes</title>
<path fill="none" stroke="#000000" d="M302.836,-578.1407C410.4254,-553.7984 643.3325,-501.1027 758.1923,-475.1154"/>
<polygon fill="#000000" stroke="#000000" points="759.2818,-478.4574 768.2629,-472.8369 757.737,-471.63 759.2818,-478.4574"/>
</g>
<!-- readjson&#45;&gt;utf8decoder -->
<g id="edge76" class="edge">
<title>readjson&#45;&gt;utf8decoder</title>
<path fill="none" stroke="#000000" d="M257.6636,-568.4315C274.7094,-536.4285 308.4021,-476.7272 345,-431.5083 367.0673,-404.2428 395.4549,-376.9015 418.504,-356.2359"/>
<polygon fill="#000000" stroke="#000000" points="420.9445,-358.7496 426.0992,-349.4932 416.2972,-353.5147 420.9445,-358.7496"/>
</g>
<!-- readjson&#45;&gt;opresultwarn -->
<g id="edge77" class="edge">
<title>readjson&#45;&gt;opresultwarn</title>
<path fill="none" stroke="#000000" d="M267.1671,-569.1537C286.6447,-548.7662 316.053,-517.2546 340,-488.4917 360.3005,-464.1087 357.5361,-450.4352 383,-431.5083 419.9285,-404.0599 535.0351,-365.6448 611.1784,-342.0906"/>
<polygon fill="#000000" stroke="#000000" points="612.66,-345.2967 621.1882,-339.0102 610.601,-338.6064 612.66,-345.2967"/>
</g>
<!-- readjson&#45;&gt;messages -->
<g id="edge74" class="edge">
<title>readjson&#45;&gt;messages</title>
<path fill="none" stroke="#000000" d="M215.4568,-570.4481C190.7657,-552.0519 157.3567,-522.7459 140,-488.4917 71.3741,-353.0557 77.6665,-233.0399 207,-153.5083 307.4074,-91.7643 1113.0944,-56.7534 1393.8951,-46.3327"/>
<polygon fill="#000000" stroke="#000000" points="1394.1984,-49.824 1404.0626,-45.9576 1393.9403,-42.8287 1394.1984,-49.824"/>
</g>
<!-- parseCommandLine&#45;&gt;regexes -->
<g id="edge5" class="edge">
<title>parseCommandLine&#45;&gt;regexes</title>
<path fill="none" stroke="#000000" d="M2263.6483,-574.0753C2110.2991,-547.9521 1818.8002,-498.295 1676.4141,-474.0393"/>
<polygon fill="#000000" stroke="#000000" points="1676.8697,-470.5666 1666.4239,-472.3375 1675.6941,-477.4672 1676.8697,-470.5666"/>
</g>
<!-- parseCommandLine&#45;&gt;cmdline -->
<g id="edge6" class="edge">
<title>parseCommandLine&#45;&gt;cmdline</title>
<path fill="none" stroke="#000000" d="M2354.8132,-568.1815C2347.8944,-548.8971 2337.8388,-520.8698 2329.6964,-498.175"/>
<polygon fill="#000000" stroke="#000000" points="2332.8951,-496.7263 2326.2236,-488.4957 2326.3063,-499.0902 2332.8951,-496.7263"/>
</g>
<!-- parseCommandLine&#45;&gt;warnings -->
<g id="edge4" class="edge">
<title>parseCommandLine&#45;&gt;warnings</title>
<path fill="none" stroke="#000000" d="M2319.0996,-569.3351C2284.0665,-550.784 2234.9145,-521.8334 2198,-488.4917 2174.2546,-467.0446 2181.1217,-448.4858 2154,-431.5083 1963.6961,-312.3825 1271.0199,-219.8856 1035.2248,-191.2484"/>
<polygon fill="#000000" stroke="#000000" points="1035.3626,-187.7396 1025.0147,-190.0136 1034.5222,-194.689 1035.3626,-187.7396"/>
</g>
<!-- parseCommandLine&#45;&gt;args -->
<g id="edge1" class="edge">
<title>parseCommandLine&#45;&gt;args</title>
<path fill="none" stroke="#000000" d="M2319.2406,-569.368C2270.9036,-545.4731 2193.4056,-507.1628 2144.1367,-482.8072"/>
<polygon fill="#000000" stroke="#000000" points="2145.4933,-479.5736 2134.9778,-478.2796 2142.3913,-485.8487 2145.4933,-479.5736"/>
</g>
<!-- parseCommandLine&#45;&gt;messages -->
<g id="edge2" class="edge">
<title>parseCommandLine&#45;&gt;messages</title>
<path fill="none" stroke="#000000" d="M2329.7012,-568.8532C2301.9002,-549.484 2262.098,-519.645 2232,-488.4917 2216.0026,-471.9335 2007.2608,-166.1223 1988,-153.5083 1922.6739,-110.7258 1711.0315,-74.446 1585.6564,-56.0117"/>
<polygon fill="#000000" stroke="#000000" points="1586.0656,-52.5345 1575.6649,-54.5536 1585.0546,-59.4611 1586.0656,-52.5345"/>
</g>
<!-- processTemplate&#45;&gt;parseCmdLine -->
<g id="edge23" class="edge">
<title>processTemplate&#45;&gt;parseCmdLine</title>
<path fill="none" stroke="#000000" d="M1781.2234,-1082.1766C1838.4315,-1047.0235 1944.0774,-971.8481 1986,-874.6274 2005.1038,-830.3248 1969.0036,-781.0376 1939.5349,-750.5241"/>
<polygon fill="#000000" stroke="#000000" points="1941.7608,-747.7993 1932.2234,-743.1854 1936.8019,-752.7399 1941.7608,-747.7993"/>
</g>
<!-- processTemplate&#45;&gt;env -->
<g id="edge14" class="edge">
<title>processTemplate&#45;&gt;env</title>
<path fill="none" stroke="#000000" d="M1690.5188,-1083.4575C1616.9813,-1051.448 1486.2123,-981.9728 1432,-874.6274 1389.3669,-790.21 1437.0264,-675.7062 1464.8275,-621.6566"/>
<polygon fill="#000000" stroke="#000000" points="1468.0367,-623.0737 1469.5965,-612.5943 1461.8421,-619.8138 1468.0367,-623.0737"/>
</g>
<!-- processTemplate&#45;&gt;variables -->
<g id="edge82" class="edge">
<title>processTemplate&#45;&gt;variables</title>
<path fill="none" stroke="#000000" d="M1813.7398,-1085.269C1941.4814,-1047.0696 2206.691,-946.6253 2307,-749.4917 2318.4854,-726.9198 2321.2853,-713.4209 2307,-692.5083 2295.1635,-675.1805 2180.3026,-634.8262 2107.2599,-610.5409"/>
<polygon fill="#000000" stroke="#000000" points="2108.2809,-607.1921 2097.6875,-607.3705 2106.08,-613.8371 2108.2809,-607.1921"/>
</g>
<!-- processTemplate&#45;&gt;vartypes -->
<g id="edge83" class="edge">
<title>processTemplate&#45;&gt;vartypes</title>
<path fill="none" stroke="#000000" d="M1632.9548,-1093.1556C1329.542,-1062.1353 498.3874,-969.1763 422,-874.6274 291.2401,-712.7787 636.4174,-541.2028 772.5498,-481.7537"/>
<polygon fill="#000000" stroke="#000000" points="774.1955,-484.8551 781.9806,-477.6688 771.4133,-478.4318 774.1955,-484.8551"/>
</g>
<!-- processTemplate&#45;&gt;replacement -->
<g id="edge96" class="edge">
<title>processTemplate&#45;&gt;replacement</title>
<path fill="none" stroke="#000000" d="M1724.1745,-1081.1922C1686.4898,-1035.5357 1601.7988,-932.9293 1559.7107,-881.938"/>
<polygon fill="#000000" stroke="#000000" points="1562.4003,-879.6982 1553.3353,-874.214 1557.0017,-884.1542 1562.4003,-879.6982"/>
</g>
<!-- processTemplate&#45;&gt;readlines -->
<g id="edge18" class="edge">
<title>processTemplate&#45;&gt;readlines</title>
<path fill="none" stroke="#000000" d="M1737.8779,-1081.1886C1723.6372,-1017.7678 1683.4537,-838.8113 1665.6619,-759.5756"/>
<polygon fill="#000000" stroke="#000000" points="1669.0111,-758.5158 1663.4052,-749.5256 1662.1812,-760.0495 1669.0111,-758.5158"/>
</g>
<!-- processTemplate&#45;&gt;collectCommand -->
<g id="edge29" class="edge">
<title>processTemplate&#45;&gt;collectCommand</title>
<path fill="none" stroke="#000000" d="M1752.6843,-1081.1922C1771.8224,-1036.1192 1814.5275,-935.5428 1836.4474,-883.9182"/>
<polygon fill="#000000" stroke="#000000" points="1839.728,-885.1472 1840.4147,-874.5747 1833.2847,-882.4114 1839.728,-885.1472"/>
</g>
<!-- processTemplate&#45;&gt;args -->
<g id="edge8" class="edge">
<title>processTemplate&#45;&gt;args</title>
<path fill="none" stroke="#000000" d="M1829.9979,-1087.7033C1976.4526,-1054.58 2262.4237,-963.5481 2325,-749.4917 2332.1063,-725.1832 2338.1811,-714.1338 2325,-692.5083 2285.1821,-627.1813 2225.3587,-668.4537 2172,-613.6274 2140.2407,-580.9946 2119.9311,-532.1145 2108.7779,-498.2923"/>
<polygon fill="#000000" stroke="#000000" points="2112.1079,-497.2145 2105.7404,-488.7465 2105.4374,-499.3371 2112.1079,-497.2145"/>
</g>
<!-- processTemplate&#45;&gt;opresultwarn -->
<g id="edge97" class="edge">
<title>processTemplate&#45;&gt;opresultwarn</title>
<path fill="none" stroke="#000000" d="M1622.1353,-1097.964C1373.674,-1084.6211 813.4946,-1049.4695 630,-995.6274 516.8968,-962.44 455.4608,-975.2072 394,-874.6274 288.359,-701.7471 354.2929,-571.2389 501,-431.5083 538.7625,-395.5415 590.1484,-365.5445 628.5215,-345.922"/>
<polygon fill="#000000" stroke="#000000" points="630.1304,-349.0306 637.4858,-341.405 626.9805,-342.7793 630.1304,-349.0306"/>
</g>
<!-- processTemplate&#45;&gt;messages -->
<g id="edge9" class="edge">
<title>processTemplate&#45;&gt;messages</title>
<path fill="none" stroke="#000000" d="M1840.6676,-1089.7379C1924.4512,-1074.715 2046.5616,-1046.043 2143,-995.6274 2424.4521,-848.4913 2616,-777.5915 2616,-460 2616,-460 2616,-460 2616,-321 2616,-272.767 2727.5375,-284.8729 2441,-153.5083 2290.1114,-84.3326 1795.7944,-55.8312 1585.7744,-46.6438"/>
<polygon fill="#000000" stroke="#000000" points="1585.8292,-43.143 1575.6873,-46.2079 1585.5268,-50.1365 1585.8292,-43.143"/>
</g>
<!-- processTemplate&#45;&gt;matches -->
<g id="edge17" class="edge">
<title>processTemplate&#45;&gt;matches</title>
<path fill="none" stroke="#000000" d="M1792.7658,-1083.0813C1833.3833,-1064.3235 1890.6201,-1033.8883 1932,-995.6274 2029.2471,-905.7104 2060.9278,-876.0439 2100,-749.4917 2107.4713,-725.2929 2114.1293,-713.5265 2100,-692.5083 2078.3857,-660.3556 1980.1275,-627.225 1913.6967,-607.9005"/>
<polygon fill="#000000" stroke="#000000" points="1914.3101,-604.4352 1903.7323,-605.0356 1912.3758,-611.1626 1914.3101,-604.4352"/>
</g>
<!-- processTemplate&#45;&gt;readjson -->
<g id="edge84" class="edge">
<title>processTemplate&#45;&gt;readjson</title>
<path fill="none" stroke="#000000" d="M1619.9875,-1099.7011C1268.0258,-1086.8095 279.0944,-1046.2205 232,-995.6274 135.0616,-891.4873 200.1685,-699.0706 231.6735,-623.0776"/>
<polygon fill="#000000" stroke="#000000" points="235.0251,-624.1379 235.6961,-613.5644 228.5778,-621.4117 235.0251,-624.1379"/>
</g>
<!-- runCommand -->
<g id="node30" class="node">
<title>runCommand</title>
<g id="a_node30"><a xlink:href="runCommand.md" xlink:title="runCommand.md">
<ellipse fill="#eee8aa" stroke="#000000" cx="1099" cy="-973" rx="104.7872" ry="22.7556"/>
<text text-anchor="middle" x="1099" y="-965.8" font-family="Times,serif" font-size="24.00" fill="#000000">runCommand</text>
</a>
</g>
</g>
<!-- processTemplate&#45;&gt;runCommand -->
<g id="edge81" class="edge">
<title>processTemplate&#45;&gt;runCommand</title>
<path fill="none" stroke="#000000" d="M1659.7978,-1087.0753C1537.3058,-1062.1585 1309.5589,-1015.8311 1185.3126,-990.5574"/>
<polygon fill="#000000" stroke="#000000" points="1185.9472,-987.1149 1175.4502,-988.5512 1184.5518,-993.9744 1185.9472,-987.1149"/>
</g>
<!-- runCommand&#45;&gt;runFunction -->
<g id="edge72" class="edge">
<title>runCommand&#45;&gt;runFunction</title>
<path fill="none" stroke="#000000" d="M1054.0464,-952.474C1007.9892,-931.4441 936.3875,-898.7505 887.4553,-876.4079"/>
<polygon fill="#000000" stroke="#000000" points="888.8401,-873.1927 878.2897,-872.2229 885.9326,-879.5603 888.8401,-873.1927"/>
</g>
<!-- runCommand&#45;&gt;parseNumber -->
<g id="edge41" class="edge">
<title>runCommand&#45;&gt;parseNumber</title>
<path fill="none" stroke="#000000" d="M1099,-950.1922C1099,-907.0303 1099,-812.9717 1099,-759.7407"/>
<polygon fill="#000000" stroke="#000000" points="1102.5001,-759.6661 1099,-749.6661 1095.5001,-759.6661 1102.5001,-759.6661"/>
</g>
<!-- runCommand&#45;&gt;regexes -->
<g id="edge32" class="edge">
<title>runCommand&#45;&gt;regexes</title>
<path fill="none" stroke="#000000" d="M1109.7595,-950.4566C1134.3745,-900.3501 1198.6727,-777.4599 1276,-692.5083 1336.822,-625.6893 1364.0168,-621.6411 1437,-568.3726 1473.5575,-541.6902 1515.822,-512.6141 1547.284,-491.3027"/>
<polygon fill="#000000" stroke="#000000" points="1549.5337,-494.0066 1555.8577,-485.5061 1545.6131,-488.2076 1549.5337,-494.0066"/>
</g>
<!-- runCommand&#45;&gt;env -->
<g id="edge33" class="edge">
<title>runCommand&#45;&gt;env</title>
<path fill="none" stroke="#000000" d="M1150.0535,-953.0515C1184.8584,-936.9178 1229.3106,-910.8976 1256,-874.6274 1305.611,-807.2075 1253.0022,-758.8854 1304,-692.5083 1322.7054,-668.1619 1397.108,-630.4995 1443.5962,-608.546"/>
<polygon fill="#000000" stroke="#000000" points="1445.2102,-611.655 1452.7796,-604.2418 1442.2394,-605.3166 1445.2102,-611.655"/>
</g>
<!-- runCommand&#45;&gt;variables -->
<g id="edge48" class="edge">
<title>runCommand&#45;&gt;variables</title>
<path fill="none" stroke="#000000" d="M1199.749,-966.7951C1407.4824,-953.279 1876.8418,-918.8128 2031,-874.6274 2153.1252,-839.6234 2220.6418,-857.2076 2288,-749.4917 2301.4279,-728.0185 2302.0077,-713.6078 2288,-692.5083 2267.4891,-661.6132 2175.0153,-628.8124 2110.7758,-609.1193"/>
<polygon fill="#000000" stroke="#000000" points="2111.7048,-605.7437 2101.1194,-606.1922 2109.6741,-612.4427 2111.7048,-605.7437"/>
</g>
<!-- runCommand&#45;&gt;vartypes -->
<g id="edge38" class="edge">
<title>runCommand&#45;&gt;vartypes</title>
<path fill="none" stroke="#000000" d="M1000.098,-965.4962C875.2705,-949.7355 669.3048,-900.8838 607,-749.4917 561.2698,-638.3736 705.1064,-531.9285 781.1131,-485.0296"/>
<polygon fill="#000000" stroke="#000000" points="783.3023,-487.7948 790.0287,-479.6091 779.6657,-481.8135 783.3023,-487.7948"/>
</g>
<!-- runCommand&#45;&gt;readlines -->
<g id="edge30" class="edge">
<title>runCommand&#45;&gt;readlines</title>
<path fill="none" stroke="#000000" d="M1201.5547,-968.3663C1340.9965,-959.7974 1579.7595,-936.3151 1638,-874.6274 1666.5908,-844.3444 1667.5293,-794.4289 1663.8171,-759.7469"/>
<polygon fill="#000000" stroke="#000000" points="1667.2514,-759.0014 1662.5412,-749.5111 1660.3051,-759.8673 1667.2514,-759.0014"/>
</g>
<!-- runCommand&#45;&gt;funtypes -->
<g id="edge51" class="edge">
<title>runCommand&#45;&gt;funtypes</title>
<path fill="none" stroke="#000000" d="M1083.6534,-950.5825C1057.5667,-911.4797 1004.5391,-827.5125 975,-749.4917 959.0644,-707.4016 949.3896,-656.14 944.3663,-623.5337"/>
<polygon fill="#000000" stroke="#000000" points="947.8278,-623.0155 942.8967,-613.6381 940.9037,-624.0438 947.8278,-623.0155"/>
</g>
<!-- runCommand&#45;&gt;warnings -->
<g id="edge40" class="edge">
<title>runCommand&#45;&gt;warnings</title>
<path fill="none" stroke="#000000" d="M1007.8513,-961.7466C895.7218,-946.3645 713.612,-915.9004 660,-874.6274 610.34,-836.3969 609.869,-810.3736 595,-749.4917 575.5484,-669.846 591.5718,-640.7955 630,-568.3726 672.3561,-488.5471 857.5133,-287.1364 928.3245,-211.4006"/>
<polygon fill="#000000" stroke="#000000" points="930.925,-213.7441 935.2052,-204.0522 925.8153,-208.9596 930.925,-213.7441"/>
</g>
<!-- runCommand&#45;&gt;collectCommand -->
<g id="edge79" class="edge">
<title>runCommand&#45;&gt;collectCommand</title>
<path fill="none" stroke="#000000" d="M1182.9632,-959.472C1320.8406,-937.2574 1594.8895,-893.103 1745.251,-868.877"/>
<polygon fill="#000000" stroke="#000000" points="1746.1006,-872.2853 1755.4165,-867.2391 1744.9871,-865.3745 1746.1006,-872.2853"/>
</g>
<!-- runCommand&#45;&gt;opresultwarn -->
<g id="edge80" class="edge">
<title>runCommand&#45;&gt;opresultwarn</title>
<path fill="none" stroke="#000000" d="M999.8633,-965.6851C820.9915,-951.4743 459.2765,-917.7119 422,-874.6274 287.9541,-719.696 422.5532,-592.7015 549,-431.5083 574.7754,-398.65 611.8104,-368.8711 640.2573,-348.5272"/>
<polygon fill="#000000" stroke="#000000" points="642.6245,-351.1411 648.7879,-342.5235 638.5957,-345.4167 642.6245,-351.1411"/>
</g>
<!-- runCommand&#45;&gt;messages -->
<g id="edge39" class="edge">
<title>runCommand&#45;&gt;messages</title>
<path fill="none" stroke="#000000" d="M995.602,-969.0714C814.3014,-960.6505 447.769,-936.3473 337,-874.6274 129.5582,-759.042 0,-697.4702 0,-460 0,-460 0,-460 0,-321 0,-238.5038 11.9926,-200.2053 80,-153.5083 187.8684,-79.4408 1093.6776,-52.1016 1393.8205,-45.0257"/>
<polygon fill="#000000" stroke="#000000" points="1394.3242,-48.515 1404.2397,-44.7825 1394.1608,-41.5169 1394.3242,-48.515"/>
</g>
<!-- runCommand&#45;&gt;matches -->
<g id="edge31" class="edge">
<title>runCommand&#45;&gt;matches</title>
<path fill="none" stroke="#000000" d="M1199.3572,-966.4146C1417.1543,-951.4734 1919.0377,-913.2921 1986,-874.6274 2064.5321,-829.2822 2127.3281,-768.6018 2078,-692.5083 2043.9155,-639.9294 1975.5096,-614.3415 1922.6579,-602.0401"/>
<polygon fill="#000000" stroke="#000000" points="1923.1665,-598.568 1912.6463,-599.8235 1921.6533,-605.4025 1923.1665,-598.568"/>
</g>
<!-- runCommand&#45;&gt;readjson -->
<g id="edge78" class="edge">
<title>runCommand&#45;&gt;readjson</title>
<path fill="none" stroke="#000000" d="M994.9881,-970.5115C820.7156,-964.4376 479.4194,-943.8118 384,-874.6274 298.892,-812.9194 263.8248,-684.2641 251.6076,-623.7699"/>
<polygon fill="#000000" stroke="#000000" points="254.9836,-622.7931 249.6482,-613.6398 248.111,-624.1225 254.9836,-622.7931"/>
</g>
</g>
</svg>
