<?xml version="1.0" encoding="UTF-8" standalone="no"?>
<!DOCTYPE svg PUBLIC "-//W3C//DTD SVG 1.1//EN"
 "http://www.w3.org/Graphics/SVG/1.1/DTD/svg11.dtd">
<!-- Generated by graphviz version 7.0.1 (20221109.1506)
 -->
<!-- Title: statictea Pages: 1 -->
<svg width="3701pt" height="1835pt"
 viewBox="0.00 0.00 3700.56 1835.13" xmlns="http://www.w3.org/2000/svg" xmlns:xlink="http://www.w3.org/1999/xlink">
<g id="graph0" class="graph" transform="scale(1 1) rotate(0) translate(4 1831.13)">
<title>statictea</title>
<polygon fill="white" stroke="none" points="-4,4 -4,-1831.13 3696.56,-1831.13 3696.56,4 -4,4"/>
<!-- args -->
<g id="node1" class="node">
<title>args</title>
<g id="a_node1"><a xlink:href="html/args.html" xlink:title="args.md" target="_parent">
<ellipse fill="palegoldenrod" stroke="black" cx="598.2" cy="-672" rx="39.7" ry="24.08"/>
<text text-anchor="middle" x="598.2" y="-665.8" font-family="Times,serif" font-size="24.00">args</text>
</a>
</g>
</g>
<!-- messages -->
<g id="node11" class="node">
<title>messages</title>
<g id="a_node11"><a xlink:href="html/messages.html" xlink:title="messages.md" target="_parent">
<polygon fill="palegreen" stroke="black" points="1742.45,-38.21 1742.45,-59.79 1694.86,-75.04 1627.54,-75.04 1579.95,-59.79 1579.95,-38.21 1627.54,-22.96 1694.86,-22.96 1742.45,-38.21"/>
<polygon fill="none" stroke="black" points="1746.46,-35.29 1746.46,-62.71 1695.48,-79.04 1626.92,-79.04 1575.94,-62.71 1575.94,-35.29 1626.92,-18.96 1695.48,-18.96 1746.46,-35.29"/>
<text text-anchor="middle" x="1661.2" y="-42.8" font-family="Times,serif" font-size="24.00">messages</text>
</a>
</g>
</g>
<!-- args&#45;&gt;messages -->
<g id="edge1" class="edge">
<title>args&#45;&gt;messages</title>
<path fill="none" stroke="black" d="M592.23,-647.81C573.37,-568.58 523.78,-306.15 656.2,-172.96 719.64,-109.14 1324.61,-68.75 1564.19,-55.13"/>
<polygon fill="black" stroke="black" points="1564.37,-58.63 1574.16,-54.57 1563.97,-51.64 1564.37,-58.63"/>
</g>
<!-- opresult -->
<g id="node12" class="node">
<title>opresult</title>
<g id="a_node12"><a xlink:href="html/opresult.html" xlink:title="opresult.md" target="_parent">
<ellipse fill="palegoldenrod" stroke="black" cx="1614.2" cy="-197" rx="66.44" ry="24.08"/>
<text text-anchor="middle" x="1614.2" y="-190.8" font-family="Times,serif" font-size="24.00">opresult</text>
</a>
</g>
</g>
<!-- args&#45;&gt;opresult -->
<g id="edge3" class="edge">
<title>args&#45;&gt;opresult</title>
<path fill="none" stroke="black" d="M608.74,-648.48C625.57,-613.02 660.12,-542.3 694.2,-484.98 697.08,-480.13 803.42,-320.06 808.2,-317.06 929.02,-241.22 1359.78,-210.98 1537.09,-201.56"/>
<polygon fill="black" stroke="black" points="1537.09,-205.07 1546.89,-201.05 1536.72,-198.08 1537.09,-205.07"/>
</g>
<!-- cmdline -->
<g id="node2" class="node">
<title>cmdline</title>
<g id="a_node2"><a xlink:href="html/cmdline.html" xlink:title="cmdline.md" target="_parent">
<polygon fill="palegreen" stroke="black" points="294.09,-661.21 294.09,-682.79 251.98,-698.04 192.42,-698.04 150.31,-682.79 150.31,-661.21 192.42,-645.96 251.98,-645.96 294.09,-661.21"/>
<polygon fill="none" stroke="black" points="298.09,-658.4 298.09,-685.6 252.68,-702.04 191.72,-702.04 146.31,-685.6 146.31,-658.4 191.72,-641.96 252.68,-641.96 298.09,-658.4"/>
<text text-anchor="middle" x="222.2" y="-665.8" font-family="Times,serif" font-size="24.00">cmdline</text>
</a>
</g>
</g>
<!-- comparelines -->
<g id="node3" class="node">
<title>comparelines</title>
<g id="a_node3"><a xlink:href="html/comparelines.html" xlink:title="comparelines.md" target="_parent">
<polygon fill="palegreen" stroke="black" points="2609.62,-1716.21 2609.62,-1737.79 2544.94,-1753.04 2453.46,-1753.04 2388.78,-1737.79 2388.78,-1716.21 2453.46,-1700.96 2544.94,-1700.96 2609.62,-1716.21"/>
<polygon fill="none" stroke="black" points="2613.63,-1713.05 2613.63,-1740.95 2545.4,-1757.04 2453,-1757.04 2384.77,-1740.95 2384.77,-1713.05 2453,-1696.96 2545.4,-1696.96 2613.63,-1713.05"/>
<text text-anchor="middle" x="2499.2" y="-1720.8" font-family="Times,serif" font-size="24.00">comparelines</text>
</a>
</g>
</g>
<!-- env -->
<g id="node4" class="node">
<title>env</title>
<g id="a_node4"><a xlink:href="html/env.html" xlink:title="env.md" target="_parent">
<ellipse fill="palegoldenrod" stroke="black" cx="1354.2" cy="-881" rx="36.12" ry="24.08"/>
<text text-anchor="middle" x="1354.2" y="-874.8" font-family="Times,serif" font-size="24.00">env</text>
</a>
</g>
</g>
<!-- logger -->
<g id="node9" class="node">
<title>logger</title>
<g id="a_node9"><a xlink:href="html/logger.html" xlink:title="logger.md" target="_parent">
<polygon fill="palegreen" stroke="black" points="1424.08,-661.21 1424.08,-682.79 1389,-698.04 1339.39,-698.04 1304.31,-682.79 1304.31,-661.21 1339.39,-645.96 1389,-645.96 1424.08,-661.21"/>
<polygon fill="none" stroke="black" points="1428.1,-658.59 1428.1,-685.41 1389.84,-702.04 1338.56,-702.04 1300.3,-685.41 1300.3,-658.59 1338.56,-641.96 1389.84,-641.96 1428.1,-658.59"/>
<text text-anchor="middle" x="1364.2" y="-665.8" font-family="Times,serif" font-size="24.00">logger</text>
</a>
</g>
</g>
<!-- env&#45;&gt;logger -->
<g id="edge14" class="edge">
<title>env&#45;&gt;logger</title>
<path fill="none" stroke="black" d="M1355.33,-856.66C1357,-821.96 1360.18,-756.3 1362.24,-713.61"/>
<polygon fill="black" stroke="black" points="1365.73,-713.9 1362.71,-703.74 1358.74,-713.56 1365.73,-713.9"/>
</g>
<!-- env&#45;&gt;messages -->
<g id="edge13" class="edge">
<title>env&#45;&gt;messages</title>
<path fill="none" stroke="black" d="M1344.26,-857.48C1330.02,-824.19 1304.13,-759.59 1291.2,-702.02 1272.98,-620.94 1272.2,-599.11 1272.2,-516 1272.2,-516 1272.2,-516 1272.2,-350 1272.2,-194.88 1468.56,-108.75 1582.26,-71.87"/>
<polygon fill="black" stroke="black" points="1583.09,-75.28 1591.55,-68.92 1580.96,-68.61 1583.09,-75.28"/>
</g>
<!-- tempFile -->
<g id="node27" class="node">
<title>tempFile</title>
<g id="a_node27"><a xlink:href="html/tempFile.html" xlink:title="tempFile.md" target="_parent">
<polygon fill="palegreen" stroke="black" points="1164.33,-661.21 1164.33,-682.79 1118.56,-698.04 1053.84,-698.04 1008.07,-682.79 1008.07,-661.21 1053.84,-645.96 1118.56,-645.96 1164.33,-661.21"/>
<polygon fill="none" stroke="black" points="1168.33,-658.33 1168.33,-685.67 1119.21,-702.04 1053.19,-702.04 1004.06,-685.67 1004.06,-658.33 1053.19,-641.96 1119.21,-641.96 1168.33,-658.33"/>
<text text-anchor="middle" x="1086.2" y="-665.8" font-family="Times,serif" font-size="24.00">tempFile</text>
</a>
</g>
</g>
<!-- env&#45;&gt;tempFile -->
<g id="edge12" class="edge">
<title>env&#45;&gt;tempFile</title>
<path fill="none" stroke="black" d="M1331.35,-862.35C1287.25,-828.29 1189.67,-752.92 1131.8,-708.22"/>
<polygon fill="black" stroke="black" points="1134.12,-705.59 1124.07,-702.25 1129.84,-711.13 1134.12,-705.59"/>
</g>
<!-- functions -->
<g id="node5" class="node">
<title>functions</title>
<g id="a_node5"><a xlink:href="html/functions.html" xlink:title="functions.md" target="_parent">
<ellipse fill="palegoldenrod" stroke="black" cx="2104.2" cy="-881" rx="201.55" ry="61.54"/>
<text text-anchor="middle" x="2104.2" y="-862.9" font-family="Times,serif" font-size="72.00">functions</text>
</a>
</g>
</g>
<!-- matches -->
<g id="node10" class="node">
<title>matches</title>
<g id="a_node10"><a xlink:href="html/matches.html" xlink:title="matches.md" target="_parent">
<ellipse fill="palegoldenrod" stroke="black" cx="2784.2" cy="-515" rx="67.35" ry="24.08"/>
<text text-anchor="middle" x="2784.2" y="-508.8" font-family="Times,serif" font-size="24.00">matches</text>
</a>
</g>
</g>
<!-- functions&#45;&gt;matches -->
<g id="edge40" class="edge">
<title>functions&#45;&gt;matches</title>
<path fill="none" stroke="black" d="M2237.52,-834.55C2324.52,-802.57 2439.16,-755.95 2534.2,-702.02 2617.13,-654.97 2704.37,-584.53 2750.68,-545.21"/>
<polygon fill="black" stroke="black" points="2752.9,-547.92 2758.23,-538.76 2748.35,-542.6 2752.9,-547.92"/>
</g>
<!-- functions&#45;&gt;messages -->
<g id="edge36" class="edge">
<title>functions&#45;&gt;messages</title>
<path fill="none" stroke="black" d="M1977.83,-832.69C1917.2,-803.79 1848.69,-760.91 1806.2,-702.02 1665.29,-506.73 1741.94,-407.93 1689.2,-172.96 1683.02,-145.42 1675.96,-114.44 1670.48,-90.46"/>
<polygon fill="black" stroke="black" points="1673.91,-89.75 1668.26,-80.78 1667.08,-91.31 1673.91,-89.75"/>
</g>
<!-- functions&#45;&gt;opresult -->
<g id="edge49" class="edge">
<title>functions&#45;&gt;opresult</title>
<path fill="none" stroke="black" d="M1966.93,-835.59C1896.71,-806.96 1814.42,-763.43 1758.2,-702.02 1631.87,-564.06 1615.57,-322.7 1614.05,-232.93"/>
<polygon fill="black" stroke="black" points="1617.56,-233.01 1613.95,-223.05 1610.56,-233.09 1617.56,-233.01"/>
</g>
<!-- parseMarkdown -->
<g id="node15" class="node">
<title>parseMarkdown</title>
<g id="a_node15"><a xlink:href="html/parseMarkdown.html" xlink:title="parseMarkdown.md" target="_parent">
<ellipse fill="palegoldenrod" stroke="black" cx="2784.2" cy="-672" rx="121.74" ry="24.08"/>
<text text-anchor="middle" x="2784.2" y="-665.8" font-family="Times,serif" font-size="24.00">parseMarkdown</text>
</a>
</g>
</g>
<!-- functions&#45;&gt;parseMarkdown -->
<g id="edge60" class="edge">
<title>functions&#45;&gt;parseMarkdown</title>
<path fill="none" stroke="black" d="M2245.92,-836.86C2386.62,-794.03 2596.94,-730 2708.45,-696.06"/>
<polygon fill="black" stroke="black" points="2709.26,-699.47 2717.81,-693.21 2707.23,-692.77 2709.26,-699.47"/>
</g>
<!-- parseNumber -->
<g id="node16" class="node">
<title>parseNumber</title>
<g id="a_node16"><a xlink:href="html/parseNumber.html" xlink:title="parseNumber.md" target="_parent">
<polygon fill="palegreen" stroke="black" points="2222.18,-661.21 2222.18,-682.79 2156.58,-698.04 2063.82,-698.04 1998.22,-682.79 1998.22,-661.21 2063.82,-645.96 2156.58,-645.96 2222.18,-661.21"/>
<polygon fill="none" stroke="black" points="2226.19,-658.04 2226.19,-685.96 2157.04,-702.04 2063.36,-702.04 1994.21,-685.96 1994.21,-658.04 2063.36,-641.96 2157.04,-641.96 2226.19,-658.04"/>
<text text-anchor="middle" x="2110.2" y="-665.8" font-family="Times,serif" font-size="24.00">parseNumber</text>
</a>
</g>
</g>
<!-- functions&#45;&gt;parseNumber -->
<g id="edge39" class="edge">
<title>functions&#45;&gt;parseNumber</title>
<path fill="none" stroke="black" d="M2105.97,-819.01C2106.95,-785.11 2108.15,-743.85 2109.02,-713.84"/>
<polygon fill="black" stroke="black" points="2112.51,-714.14 2109.3,-704.05 2105.51,-713.94 2112.51,-714.14"/>
</g>
<!-- readjson -->
<g id="node18" class="node">
<title>readjson</title>
<g id="a_node18"><a xlink:href="html/readjson.html" xlink:title="readjson.md" target="_parent">
<ellipse fill="palegoldenrod" stroke="black" cx="1907.2" cy="-672" rx="69.09" ry="24.08"/>
<text text-anchor="middle" x="1907.2" y="-665.8" font-family="Times,serif" font-size="24.00">readjson</text>
</a>
</g>
</g>
<!-- functions&#45;&gt;readjson -->
<g id="edge55" class="edge">
<title>functions&#45;&gt;readjson</title>
<path fill="none" stroke="black" d="M2048.54,-821.51C2012.03,-783.15 1965.78,-734.55 1936.33,-703.61"/>
<polygon fill="black" stroke="black" points="1938.96,-701.3 1929.53,-696.47 1933.89,-706.12 1938.96,-701.3"/>
</g>
<!-- regexes -->
<g id="node19" class="node">
<title>regexes</title>
<g id="a_node19"><a xlink:href="html/regexes.html" xlink:title="regexes.md" target="_parent">
<polygon fill="palegreen" stroke="black" points="2942.43,-340.21 2942.43,-361.79 2902.46,-377.04 2845.94,-377.04 2805.97,-361.79 2805.97,-340.21 2845.94,-324.96 2902.46,-324.96 2942.43,-340.21"/>
<polygon fill="none" stroke="black" points="2946.44,-337.46 2946.44,-364.54 2903.2,-381.04 2845.2,-381.04 2801.96,-364.54 2801.96,-337.46 2845.2,-320.96 2903.2,-320.96 2946.44,-337.46"/>
<text text-anchor="middle" x="2874.2" y="-344.8" font-family="Times,serif" font-size="24.00">regexes</text>
</a>
</g>
</g>
<!-- functions&#45;&gt;regexes -->
<g id="edge38" class="edge">
<title>functions&#45;&gt;regexes</title>
<path fill="none" stroke="black" d="M2185.51,-824.24C2346.18,-714.07 2699.78,-471.6 2827.24,-384.2"/>
<polygon fill="black" stroke="black" points="2828.86,-387.33 2835.13,-378.79 2824.9,-381.56 2828.86,-387.33"/>
</g>
<!-- signatures -->
<g id="node23" class="node">
<title>signatures</title>
<g id="a_node23"><a xlink:href="html/signatures.html" xlink:title="signatures.md" target="_parent">
<ellipse fill="palegoldenrod" stroke="black" cx="2450.2" cy="-515" rx="79.81" ry="24.08"/>
<text text-anchor="middle" x="2450.2" y="-508.8" font-family="Times,serif" font-size="24.00">signatures</text>
</a>
</g>
</g>
<!-- functions&#45;&gt;signatures -->
<g id="edge48" class="edge">
<title>functions&#45;&gt;signatures</title>
<path fill="none" stroke="black" d="M2159.79,-821.52C2234.23,-743.21 2363.58,-607.13 2421.14,-546.58"/>
<polygon fill="black" stroke="black" points="2423.37,-549.3 2427.73,-539.64 2418.3,-544.48 2423.37,-549.3"/>
</g>
<!-- unicodes -->
<g id="node29" class="node">
<title>unicodes</title>
<g id="a_node29"><a xlink:href="html/unicodes.html" xlink:title="unicodes.md" target="_parent">
<ellipse fill="palegoldenrod" stroke="black" cx="2281.2" cy="-515" rx="71.34" ry="24.08"/>
<text text-anchor="middle" x="2281.2" y="-508.8" font-family="Times,serif" font-size="24.00">unicodes</text>
</a>
</g>
</g>
<!-- functions&#45;&gt;unicodes -->
<g id="edge45" class="edge">
<title>functions&#45;&gt;unicodes</title>
<path fill="none" stroke="black" d="M2156.66,-821.2C2183.64,-788.2 2215,-745.1 2235.2,-702.02 2258.57,-652.18 2270.95,-589.04 2276.78,-550.63"/>
<polygon fill="black" stroke="black" points="2280.23,-551.2 2278.2,-540.8 2273.31,-550.2 2280.23,-551.2"/>
</g>
<!-- variables -->
<g id="node32" class="node">
<title>variables</title>
<g id="a_node32"><a xlink:href="html/variables.html" xlink:title="variables.md" target="_parent">
<ellipse fill="palegoldenrod" stroke="black" cx="1595.2" cy="-672" rx="72.66" ry="24.08"/>
<text text-anchor="middle" x="1595.2" y="-665.8" font-family="Times,serif" font-size="24.00">variables</text>
</a>
</g>
</g>
<!-- functions&#45;&gt;variables -->
<g id="edge56" class="edge">
<title>functions&#45;&gt;variables</title>
<path fill="none" stroke="black" d="M1984.22,-831.21C1878.74,-788.31 1729.99,-727.82 1650.46,-695.47"/>
<polygon fill="black" stroke="black" points="1652.16,-692.39 1641.58,-691.86 1649.53,-698.87 1652.16,-692.39"/>
</g>
<!-- vartypes -->
<g id="node33" class="node">
<title>vartypes</title>
<g id="a_node33"><a xlink:href="html/vartypes.html" xlink:title="vartypes.md" target="_parent">
<ellipse fill="palegoldenrod" stroke="black" cx="1908.2" cy="-351" rx="97.66" ry="33.88"/>
<text text-anchor="middle" x="1908.2" y="-342.2" font-family="Times,serif" font-size="36.00">vartypes</text>
</a>
</g>
</g>
<!-- functions&#45;&gt;vartypes -->
<g id="edge37" class="edge">
<title>functions&#45;&gt;vartypes</title>
<path fill="none" stroke="black" d="M1979.29,-832.36C1922.72,-803.75 1861.4,-761.22 1829.2,-702.02 1774.01,-600.57 1840.18,-462.5 1880.88,-394.05"/>
<polygon fill="black" stroke="black" points="1883.72,-396.13 1885.9,-385.76 1877.73,-392.5 1883.72,-396.13"/>
</g>
<!-- gethelp -->
<g id="node6" class="node">
<title>gethelp</title>
<g id="a_node6"><a xlink:href="html/gethelp.html" xlink:title="gethelp.md" target="_parent">
<polygon fill="palegreen" stroke="black" points="3517.87,-1508.21 3517.87,-1529.79 3478.81,-1545.04 3423.58,-1545.04 3384.53,-1529.79 3384.53,-1508.21 3423.58,-1492.96 3478.81,-1492.96 3517.87,-1508.21"/>
<polygon fill="none" stroke="black" points="3521.87,-1505.48 3521.87,-1532.52 3479.57,-1549.04 3422.83,-1549.04 3380.53,-1532.52 3380.53,-1505.48 3422.83,-1488.96 3479.57,-1488.96 3521.87,-1505.48"/>
<text text-anchor="middle" x="3451.2" y="-1512.8" font-family="Times,serif" font-size="24.00">gethelp</text>
</a>
</g>
</g>
<!-- jsondocraw -->
<g id="node7" class="node">
<title>jsondocraw</title>
<g id="a_node7"><a xlink:href="html/jsondocraw.html" xlink:title="jsondocraw.md" target="_parent">
<polygon fill="palegreen" stroke="black" points="2829.6,-1716.21 2829.6,-1737.79 2772.54,-1753.04 2691.86,-1753.04 2634.8,-1737.79 2634.8,-1716.21 2691.86,-1700.96 2772.54,-1700.96 2829.6,-1716.21"/>
<polygon fill="none" stroke="black" points="2833.6,-1713.14 2833.6,-1740.86 2773.07,-1757.04 2691.33,-1757.04 2630.8,-1740.86 2630.8,-1713.14 2691.33,-1696.96 2773.07,-1696.96 2833.6,-1713.14"/>
<text text-anchor="middle" x="2732.2" y="-1720.8" font-family="Times,serif" font-size="24.00">jsondocraw</text>
</a>
</g>
</g>
<!-- linebuffer -->
<g id="node8" class="node">
<title>linebuffer</title>
<g id="a_node8"><a xlink:href="html/linebuffer.html" xlink:title="linebuffer.md" target="_parent">
<polygon fill="palegreen" stroke="black" points="1240.11,-504.21 1240.11,-525.79 1190.37,-541.04 1120.03,-541.04 1070.29,-525.79 1070.29,-504.21 1120.03,-488.96 1190.37,-488.96 1240.11,-504.21"/>
<polygon fill="none" stroke="black" points="1244.11,-501.25 1244.11,-528.75 1190.97,-545.04 1119.43,-545.04 1066.29,-528.75 1066.29,-501.25 1119.43,-484.96 1190.97,-484.96 1244.11,-501.25"/>
<text text-anchor="middle" x="1155.2" y="-508.8" font-family="Times,serif" font-size="24.00">linebuffer</text>
</a>
</g>
</g>
<!-- matches&#45;&gt;regexes -->
<g id="edge7" class="edge">
<title>matches&#45;&gt;regexes</title>
<path fill="none" stroke="red" d="M2796.9,-491.13C2811.33,-465.16 2835.12,-422.34 2852.51,-391.05"/>
<polygon fill="red" stroke="red" points="2855.37,-393.1 2857.17,-382.66 2849.25,-389.7 2855.37,-393.1"/>
</g>
<!-- opresult&#45;&gt;messages -->
<g id="edge2" class="edge">
<title>opresult&#45;&gt;messages</title>
<path fill="none" stroke="red" d="M1621.65,-172.87C1628.78,-150.7 1639.7,-116.8 1648.25,-90.21"/>
<polygon fill="red" stroke="red" points="1651.56,-91.35 1651.3,-80.76 1644.9,-89.21 1651.56,-91.35"/>
</g>
<!-- parseCmdLine -->
<g id="node13" class="node">
<title>parseCmdLine</title>
<g id="a_node13"><a xlink:href="html/parseCmdLine.html" xlink:title="parseCmdLine.md" target="_parent">
<ellipse fill="palegoldenrod" stroke="black" cx="846.2" cy="-881" rx="111.95" ry="24.08"/>
<text text-anchor="middle" x="846.2" y="-874.8" font-family="Times,serif" font-size="24.00">parseCmdLine</text>
</a>
</g>
</g>
<!-- parseCmdLine&#45;&gt;args -->
<g id="edge21" class="edge">
<title>parseCmdLine&#45;&gt;args</title>
<path fill="none" stroke="black" d="M819.19,-857.45C772.98,-818.88 678.99,-740.44 629.81,-699.38"/>
<polygon fill="black" stroke="black" points="632.25,-696.86 622.33,-693.14 627.76,-702.24 632.25,-696.86"/>
</g>
<!-- parseCmdLine&#45;&gt;matches -->
<g id="edge19" class="edge">
<title>parseCmdLine&#45;&gt;matches</title>
<path fill="none" stroke="black" d="M852.91,-856.49C868.49,-806.74 912.26,-691.37 995.2,-641.98 1142.89,-554.03 2368.01,-560.53 2539.2,-545.02 2596.76,-539.81 2661.71,-532.03 2710.26,-525.84"/>
<polygon fill="black" stroke="black" points="2710.64,-529.32 2720.11,-524.57 2709.75,-522.37 2710.64,-529.32"/>
</g>
<!-- parseCmdLine&#45;&gt;messages -->
<g id="edge18" class="edge">
<title>parseCmdLine&#45;&gt;messages</title>
<path fill="none" stroke="black" d="M826.01,-857.17C779.78,-802.45 670.2,-657.79 670.2,-516 670.2,-516 670.2,-516 670.2,-350 670.2,-270.6 637.82,-228.87 694.2,-172.96 755.42,-112.24 1331.95,-70.28 1564.57,-55.68"/>
<polygon fill="black" stroke="black" points="1564.45,-59.2 1574.21,-55.08 1564.01,-52.21 1564.45,-59.2"/>
</g>
<!-- parseCmdLine&#45;&gt;opresult -->
<g id="edge20" class="edge">
<title>parseCmdLine&#45;&gt;opresult</title>
<path fill="none" stroke="black" d="M846.56,-856.63C848.94,-788.18 865.72,-586.59 979.2,-484.98 1152.65,-329.68 1424.16,-245.7 1548.29,-213.57"/>
<polygon fill="black" stroke="black" points="1548.83,-217.04 1557.65,-211.17 1547.09,-210.26 1548.83,-217.04"/>
</g>
<!-- parseCmdLine&#45;&gt;regexes -->
<g id="edge17" class="edge">
<title>parseCmdLine&#45;&gt;regexes</title>
<path fill="none" stroke="black" d="M849.67,-856.52C861.89,-783.61 910.47,-561.35 1057.2,-484.98 1096.19,-464.68 2438.08,-379.33 2790.26,-357.24"/>
<polygon fill="black" stroke="black" points="2790.35,-360.74 2800.11,-356.62 2789.91,-353.75 2790.35,-360.74"/>
</g>
<!-- parseCommandLine -->
<g id="node14" class="node">
<title>parseCommandLine</title>
<g id="a_node14"><a xlink:href="html/parseCommandLine.html" xlink:title="parseCommandLine.md" target="_parent">
<ellipse fill="palegoldenrod" stroke="black" cx="149.2" cy="-881" rx="149.4" ry="24.08"/>
<text text-anchor="middle" x="149.2" y="-874.8" font-family="Times,serif" font-size="24.00">parseCommandLine</text>
</a>
</g>
</g>
<!-- parseCommandLine&#45;&gt;args -->
<g id="edge4" class="edge">
<title>parseCommandLine&#45;&gt;args</title>
<path fill="none" stroke="black" d="M197.25,-857.85C285.78,-817.03 473.22,-730.62 556.65,-692.16"/>
<polygon fill="black" stroke="black" points="558.01,-695.38 565.63,-688.02 555.08,-689.03 558.01,-695.38"/>
</g>
<!-- parseCommandLine&#45;&gt;cmdline -->
<g id="edge6" class="edge">
<title>parseCommandLine&#45;&gt;cmdline</title>
<path fill="none" stroke="black" d="M157.43,-856.66C169.72,-821.81 193.02,-755.74 208.07,-713.07"/>
<polygon fill="black" stroke="black" points="211.36,-714.25 211.39,-703.66 204.76,-711.92 211.36,-714.25"/>
</g>
<!-- parseCommandLine&#45;&gt;matches -->
<g id="edge8" class="edge">
<title>parseCommandLine&#45;&gt;matches</title>
<path fill="none" stroke="black" d="M176.49,-857.13C238.14,-807.06 394.84,-688.5 549.2,-641.98 973.11,-514.22 2097.99,-581.86 2539.2,-545.02 2596.89,-540.21 2661.96,-532.38 2710.53,-526.07"/>
<polygon fill="black" stroke="black" points="2710.92,-529.55 2720.39,-524.79 2710.02,-522.61 2710.92,-529.55"/>
</g>
<!-- parseCommandLine&#45;&gt;messages -->
<g id="edge5" class="edge">
<title>parseCommandLine&#45;&gt;messages</title>
<path fill="none" stroke="black" d="M145.82,-856.64C137.79,-798.95 118.2,-645.07 118.2,-516 118.2,-516 118.2,-516 118.2,-350 118.2,-233.27 205.39,-220.06 312.2,-172.96 537.06,-73.8 1293.89,-54.6 1564.22,-50.89"/>
<polygon fill="black" stroke="black" points="1564.09,-54.39 1574.05,-50.75 1564,-47.39 1564.09,-54.39"/>
</g>
<!-- parseMarkdown&#45;&gt;linebuffer -->
<g id="edge57" class="edge">
<title>parseMarkdown&#45;&gt;linebuffer</title>
<path fill="none" stroke="black" d="M2675.74,-660.68C2376.9,-632.24 1544.64,-553.06 1255.62,-525.55"/>
<polygon fill="black" stroke="black" points="1256.12,-522.09 1245.84,-524.62 1255.46,-529.06 1256.12,-522.09"/>
</g>
<!-- parseMarkdown&#45;&gt;matches -->
<g id="edge58" class="edge">
<title>parseMarkdown&#45;&gt;matches</title>
<path fill="none" stroke="black" d="M2784.2,-647.46C2784.2,-621.78 2784.2,-580.41 2784.2,-550.94"/>
<polygon fill="black" stroke="black" points="2787.7,-551.02 2784.2,-541.02 2780.7,-551.02 2787.7,-551.02"/>
</g>
<!-- parseMarkdown&#45;&gt;regexes -->
<g id="edge59" class="edge">
<title>parseMarkdown&#45;&gt;regexes</title>
<path fill="none" stroke="black" d="M2802.69,-648.02C2820.9,-623.94 2847.75,-584.22 2860.2,-545.02 2876.32,-494.27 2877.85,-432.38 2876.67,-392.6"/>
<polygon fill="black" stroke="black" points="2880.17,-392.62 2876.3,-382.76 2873.18,-392.88 2880.17,-392.62"/>
</g>
<!-- processTemplate -->
<g id="node17" class="node">
<title>processTemplate</title>
<g id="a_node17"><a xlink:href="html/processTemplate.html" xlink:title="processTemplate.md" target="_parent">
<ellipse fill="palegoldenrod" stroke="black" cx="924.2" cy="-1519" rx="124.4" ry="24.08"/>
<text text-anchor="middle" x="924.2" y="-1512.8" font-family="Times,serif" font-size="24.00">processTemplate</text>
</a>
</g>
</g>
<!-- processTemplate&#45;&gt;args -->
<g id="edge10" class="edge">
<title>processTemplate&#45;&gt;args</title>
<path fill="none" stroke="black" d="M878.06,-1496.2C799.16,-1455.99 640.75,-1361.84 578.2,-1227.71 494.02,-1047.19 558.81,-796.57 586.89,-706.72"/>
<polygon fill="black" stroke="black" points="590.19,-707.88 589.9,-697.29 583.52,-705.76 590.19,-707.88"/>
</g>
<!-- processTemplate&#45;&gt;env -->
<g id="edge15" class="edge">
<title>processTemplate&#45;&gt;env</title>
<path fill="none" stroke="black" d="M952.25,-1495.05C1006.88,-1449.15 1128.81,-1340.71 1204.2,-1227.71 1274.25,-1122.72 1323.91,-979.64 1344.12,-915.5"/>
<polygon fill="black" stroke="black" points="1347.37,-916.86 1347,-906.28 1340.68,-914.78 1347.37,-916.86"/>
</g>
<!-- processTemplate&#45;&gt;linebuffer -->
<g id="edge16" class="edge">
<title>processTemplate&#45;&gt;linebuffer</title>
<path fill="none" stroke="black" d="M859.78,-1497.95C803.27,-1478.14 721.01,-1443.73 661.2,-1395.04 589.21,-1336.44 565.62,-1315.75 536.2,-1227.71 453.66,-980.75 377.06,-837.35 549.2,-641.98 614.65,-567.7 899.84,-535.08 1054.53,-522.63"/>
<polygon fill="black" stroke="black" points="1054.69,-526.13 1064.39,-521.86 1054.14,-519.15 1054.69,-526.13"/>
</g>
<!-- processTemplate&#45;&gt;logger -->
<g id="edge95" class="edge">
<title>processTemplate&#45;&gt;logger</title>
<path fill="none" stroke="black" d="M929.57,-1494.59C938.07,-1460.4 956.77,-1395.6 986.2,-1346.96 1023.37,-1285.53 1058.36,-1289.34 1095.2,-1227.71 1193.83,-1062.7 1142.07,-985.97 1238.2,-819.48 1262.32,-777.71 1299.1,-736.64 1326.71,-708.67"/>
<polygon fill="black" stroke="black" points="1328.93,-711.4 1333.52,-701.86 1323.98,-706.45 1328.93,-711.4"/>
</g>
<!-- processTemplate&#45;&gt;messages -->
<g id="edge11" class="edge">
<title>processTemplate&#45;&gt;messages</title>
<path fill="none" stroke="black" d="M808.11,-1510.04C709.22,-1498.17 567.61,-1468.61 467.2,-1395.04 368.32,-1322.59 326.2,-1280.58 326.2,-1158 326.2,-1158 326.2,-1158 326.2,-350 326.2,-228.26 423.35,-221.01 535.2,-172.96 719.63,-93.72 1326.02,-62.67 1564.06,-53.34"/>
<polygon fill="black" stroke="black" points="1564.08,-56.84 1573.94,-52.95 1563.81,-49.84 1564.08,-56.84"/>
</g>
<!-- processTemplate&#45;&gt;opresult -->
<g id="edge94" class="edge">
<title>processTemplate&#45;&gt;opresult</title>
<path fill="none" stroke="black" d="M832.35,-1502.47C673.48,-1469.78 364.2,-1377.89 364.2,-1158 364.2,-1158 364.2,-1158 364.2,-880 364.2,-574.1 487.43,-455.52 760.2,-317.06 895.78,-248.24 1353.94,-213.67 1537.35,-202.33"/>
<polygon fill="black" stroke="black" points="1537.49,-205.83 1547.26,-201.72 1537.06,-198.84 1537.49,-205.83"/>
</g>
<!-- processTemplate&#45;&gt;parseCmdLine -->
<g id="edge22" class="edge">
<title>processTemplate&#45;&gt;parseCmdLine</title>
<path fill="none" stroke="black" d="M916.75,-1494.62C901.57,-1445.7 867.39,-1328.72 854.2,-1227.71 839.44,-1114.7 842.17,-979.18 844.57,-916.69"/>
<polygon fill="black" stroke="black" points="848.07,-916.84 844.98,-906.7 841.07,-916.55 848.07,-916.84"/>
</g>
<!-- replacement -->
<g id="node21" class="node">
<title>replacement</title>
<g id="a_node21"><a xlink:href="html/replacement.html" xlink:title="replacement.md" target="_parent">
<ellipse fill="palegoldenrod" stroke="black" cx="991.2" cy="-1157" rx="94.51" ry="24.08"/>
<text text-anchor="middle" x="991.2" y="-1150.8" font-family="Times,serif" font-size="24.00">replacement</text>
</a>
</g>
</g>
<!-- processTemplate&#45;&gt;replacement -->
<g id="edge82" class="edge">
<title>processTemplate&#45;&gt;replacement</title>
<path fill="none" stroke="black" d="M926.84,-1494.66C930.72,-1461.64 938.56,-1399.46 948.2,-1346.96 958.19,-1292.53 973.1,-1230.04 982.47,-1192.31"/>
<polygon fill="black" stroke="black" points="985.8,-1193.45 984.83,-1182.9 979.01,-1191.75 985.8,-1193.45"/>
</g>
<!-- runCommand -->
<g id="node22" class="node">
<title>runCommand</title>
<g id="a_node22"><a xlink:href="html/runCommand.html" xlink:title="runCommand.md" target="_parent">
<ellipse fill="palegoldenrod" stroke="black" cx="2283.2" cy="-1157" rx="338.91" ry="70.92"/>
<text text-anchor="middle" x="2283.2" y="-1135.8" font-family="Times,serif" font-size="84.00">runCommand</text>
</a>
</g>
</g>
<!-- processTemplate&#45;&gt;runCommand -->
<g id="edge69" class="edge">
<title>processTemplate&#45;&gt;runCommand</title>
<path fill="none" stroke="black" d="M1034.55,-1507.57C1240.72,-1487.3 1676.62,-1440.58 1821.2,-1395.04 1946.06,-1355.71 2077.92,-1284.74 2168.66,-1230.67"/>
<polygon fill="black" stroke="black" points="2170.33,-1233.74 2177.12,-1225.6 2166.74,-1227.74 2170.33,-1233.74"/>
</g>
<!-- startingvars -->
<g id="node24" class="node">
<title>startingvars</title>
<g id="a_node24"><a xlink:href="html/startingvars.html" xlink:title="startingvars.md" target="_parent">
<ellipse fill="palegoldenrod" stroke="black" cx="1721.2" cy="-1371" rx="90.52" ry="24.08"/>
<text text-anchor="middle" x="1721.2" y="-1364.8" font-family="Times,serif" font-size="24.00">startingvars</text>
</a>
</g>
</g>
<!-- processTemplate&#45;&gt;startingvars -->
<g id="edge93" class="edge">
<title>processTemplate&#45;&gt;startingvars</title>
<path fill="none" stroke="black" d="M1012.92,-1501.75C1167.69,-1473.39 1484.99,-1415.27 1636.73,-1387.47"/>
<polygon fill="black" stroke="black" points="1637.11,-1390.96 1646.32,-1385.72 1635.85,-1384.08 1637.11,-1390.96"/>
</g>
<!-- processTemplate&#45;&gt;variables -->
<g id="edge70" class="edge">
<title>processTemplate&#45;&gt;variables</title>
<path fill="none" stroke="black" d="M942.19,-1495.1C987.78,-1436.85 1106.46,-1283.67 1138.2,-1227.71 1235.25,-1056.61 1175.54,-963.8 1309.2,-819.48 1369.76,-754.09 1466.11,-713.27 1530,-691.82"/>
<polygon fill="black" stroke="black" points="1530.91,-695.21 1539.31,-688.76 1528.72,-688.55 1530.91,-695.21"/>
</g>
<!-- processTemplate&#45;&gt;vartypes -->
<g id="edge71" class="edge">
<title>processTemplate&#45;&gt;vartypes</title>
<path fill="none" stroke="black" d="M840.73,-1500.84C771.11,-1483.31 672.19,-1450.61 601.2,-1395.04 529.94,-1339.26 518.73,-1311.76 485.2,-1227.71 388.7,-985.84 315.68,-825.73 500.2,-641.98 684.89,-458.05 1505.55,-381.22 1801.41,-359.16"/>
<polygon fill="black" stroke="black" points="1801.34,-362.68 1811.05,-358.45 1800.82,-355.7 1801.34,-362.68"/>
</g>
<!-- readjson&#45;&gt;messages -->
<g id="edge51" class="edge">
<title>readjson&#45;&gt;messages</title>
<path fill="none" stroke="black" d="M1925.34,-648.49C1969.35,-590.99 2073.93,-434.94 2015.2,-317.06 1955.22,-196.67 1812.23,-116.22 1727.47,-77.26"/>
<polygon fill="black" stroke="black" points="1729.11,-74.17 1718.55,-73.23 1726.22,-80.54 1729.11,-74.17"/>
</g>
<!-- readjson&#45;&gt;opresult -->
<g id="edge54" class="edge">
<title>readjson&#45;&gt;opresult</title>
<path fill="none" stroke="black" d="M1893.07,-648.19C1845.35,-571.16 1690.09,-320.51 1634.35,-230.53"/>
<polygon fill="black" stroke="black" points="1637.4,-228.81 1629.16,-222.15 1631.45,-232.49 1637.4,-228.81"/>
</g>
<!-- readjson&#45;&gt;unicodes -->
<g id="edge52" class="edge">
<title>readjson&#45;&gt;unicodes</title>
<path fill="none" stroke="black" d="M1950.83,-652.92C2019.25,-624.56 2151.64,-569.7 2226.38,-538.72"/>
<polygon fill="black" stroke="black" points="2227.68,-541.97 2235.58,-534.91 2225,-535.5 2227.68,-541.97"/>
</g>
<!-- utf8decoder -->
<g id="node31" class="node">
<title>utf8decoder</title>
<g id="a_node31"><a xlink:href="html/utf8decoder.html" xlink:title="utf8decoder.md" target="_parent">
<polygon fill="palegreen" stroke="black" points="2322.24,-340.21 2322.24,-361.79 2263.64,-377.04 2180.76,-377.04 2122.16,-361.79 2122.16,-340.21 2180.76,-324.96 2263.64,-324.96 2322.24,-340.21"/>
<polygon fill="none" stroke="black" points="2326.23,-337.12 2326.23,-364.88 2264.15,-381.04 2180.25,-381.04 2118.17,-364.88 2118.17,-337.12 2180.25,-320.96 2264.15,-320.96 2326.23,-337.12"/>
<text text-anchor="middle" x="2222.2" y="-344.8" font-family="Times,serif" font-size="24.00">utf8decoder</text>
</a>
</g>
</g>
<!-- readjson&#45;&gt;utf8decoder -->
<g id="edge53" class="edge">
<title>readjson&#45;&gt;utf8decoder</title>
<path fill="none" stroke="black" d="M1937.54,-650.06C1970.79,-626.43 2024.91,-585.91 2066.2,-545.02 2115.94,-495.76 2165.38,-431.28 2194.87,-390.74"/>
<polygon fill="black" stroke="black" points="2197.66,-392.85 2200.68,-382.7 2191.98,-388.75 2197.66,-392.85"/>
</g>
<!-- readjson&#45;&gt;vartypes -->
<g id="edge50" class="edge">
<title>readjson&#45;&gt;vartypes</title>
<path fill="none" stroke="black" d="M1907.27,-647.54C1907.44,-594.63 1907.84,-465.27 1908.06,-396.57"/>
<polygon fill="black" stroke="black" points="1911.56,-396.81 1908.09,-386.8 1904.56,-396.79 1911.56,-396.81"/>
</g>
<!-- repl -->
<g id="node20" class="node">
<title>repl</title>
<g id="a_node20"><a xlink:href="html/repl.html" xlink:title="repl.md" target="_parent">
<ellipse fill="palegoldenrod" stroke="black" cx="2784.2" cy="-1519" rx="38.37" ry="24.08"/>
<text text-anchor="middle" x="2784.2" y="-1512.8" font-family="Times,serif" font-size="24.00">repl</text>
</a>
</g>
</g>
<!-- repl&#45;&gt;args -->
<g id="edge118" class="edge">
<title>repl&#45;&gt;args</title>
<path fill="none" stroke="black" d="M2746.11,-1514.8C2643.51,-1505.34 2353.72,-1473.16 2126.2,-1395.04 1972.91,-1342.41 1932.75,-1323.75 1802.2,-1227.71 1596.84,-1076.63 1624.59,-938.65 1399.2,-819.48 1266.59,-749.37 803.38,-694.84 648.83,-678.23"/>
<polygon fill="black" stroke="black" points="649.21,-674.76 638.89,-677.18 648.47,-681.72 649.21,-674.76"/>
</g>
<!-- repl&#45;&gt;env -->
<g id="edge116" class="edge">
<title>repl&#45;&gt;env</title>
<path fill="none" stroke="black" d="M2745.63,-1516.68C2568.6,-1510.21 1833.34,-1478.69 1621.2,-1395.04 1506.26,-1349.72 1461.36,-1334.49 1399.2,-1227.71 1368.71,-1175.33 1358.38,-993.3 1355.33,-916.55"/>
<polygon fill="black" stroke="black" points="1358.84,-916.55 1354.96,-906.69 1351.84,-916.81 1358.84,-916.55"/>
</g>
<!-- repl&#45;&gt;matches -->
<g id="edge121" class="edge">
<title>repl&#45;&gt;matches</title>
<path fill="none" stroke="black" d="M2821.4,-1512.12C2881.29,-1500.66 2998.75,-1469.59 3062.2,-1395.04 3132.78,-1312.11 3124.2,-1266.9 3124.2,-1158 3124.2,-1158 3124.2,-1158 3124.2,-880 3124.2,-712.05 2928.5,-589.43 2834.05,-540.02"/>
<polygon fill="black" stroke="black" points="2835.71,-536.94 2825.21,-535.47 2832.5,-543.16 2835.71,-536.94"/>
</g>
<!-- repl&#45;&gt;messages -->
<g id="edge115" class="edge">
<title>repl&#45;&gt;messages</title>
<path fill="none" stroke="black" d="M2821.75,-1512.89C2919.25,-1498.85 3176.84,-1456.58 3233.2,-1395.04 3305.51,-1316.08 3276.2,-1265.07 3276.2,-1158 3276.2,-1158 3276.2,-1158 3276.2,-880 3276.2,-704.23 3382.31,-637.64 3295.2,-484.98 3160.11,-248.23 3025.75,-259.28 2767.2,-172.96 2580.7,-110.69 1991.6,-69.71 1758,-55.53"/>
<polygon fill="black" stroke="black" points="1758.51,-52.05 1748.32,-54.95 1758.09,-59.04 1758.51,-52.05"/>
</g>
<!-- repl&#45;&gt;opresult -->
<g id="edge119" class="edge">
<title>repl&#45;&gt;opresult</title>
<path fill="none" stroke="black" d="M2821.49,-1512.31C2914.55,-1497.33 3153.19,-1453.89 3204.2,-1395.04 3273.92,-1314.62 3238.2,-1264.43 3238.2,-1158 3238.2,-1158 3238.2,-1158 3238.2,-880 3238.2,-772.94 3243,-740.54 3201.2,-641.98 3192.36,-621.13 2975.01,-328.03 2955.2,-317.06 2844.39,-255.71 1959.81,-212.89 1691.25,-201.21"/>
<polygon fill="black" stroke="black" points="1691.71,-197.73 1681.57,-200.79 1691.41,-204.72 1691.71,-197.73"/>
</g>
<!-- repl&#45;&gt;parseMarkdown -->
<g id="edge126" class="edge">
<title>repl&#45;&gt;parseMarkdown</title>
<path fill="none" stroke="black" d="M2784.2,-1494.52C2784.2,-1376.54 2784.2,-848.63 2784.2,-707.69"/>
<polygon fill="black" stroke="black" points="2787.7,-707.88 2784.2,-697.88 2780.7,-707.88 2787.7,-707.88"/>
</g>
<!-- repl&#45;&gt;regexes -->
<g id="edge122" class="edge">
<title>repl&#45;&gt;regexes</title>
<path fill="none" stroke="black" d="M2822.92,-1518.77C2903.15,-1518.06 3087.42,-1503.96 3176.2,-1395.04 3243.1,-1312.96 3200.2,-1263.89 3200.2,-1158 3200.2,-1158 3200.2,-1158 3200.2,-880 3200.2,-773.68 3225.19,-736.34 3176.2,-641.98 3145.86,-583.55 3112.22,-590.06 3064.2,-545.02 3008.49,-492.77 2946.97,-429.11 2909.46,-389.56"/>
<polygon fill="black" stroke="black" points="2912.28,-387.45 2902.87,-382.6 2907.2,-392.26 2912.28,-387.45"/>
</g>
<!-- repl&#45;&gt;runCommand -->
<g id="edge123" class="edge">
<title>repl&#45;&gt;runCommand</title>
<path fill="none" stroke="black" d="M2759.35,-1500.15C2692.34,-1451.99 2504.93,-1317.33 2386.2,-1232.01"/>
<polygon fill="black" stroke="black" points="2388.45,-1229.32 2378.29,-1226.33 2384.37,-1235.01 2388.45,-1229.32"/>
</g>
<!-- repl&#45;&gt;startingvars -->
<g id="edge120" class="edge">
<title>repl&#45;&gt;startingvars</title>
<path fill="none" stroke="black" d="M2746.14,-1514.34C2616.7,-1501.62 2181.82,-1456.76 1826.2,-1395.04 1817.38,-1393.51 1808.17,-1391.74 1799.04,-1389.88"/>
<polygon fill="black" stroke="black" points="1799.95,-1386.5 1789.44,-1387.89 1798.52,-1393.35 1799.95,-1386.5"/>
</g>
<!-- repl&#45;&gt;unicodes -->
<g id="edge125" class="edge">
<title>repl&#45;&gt;unicodes</title>
<path fill="none" stroke="black" d="M2797.94,-1496.41C2864.29,-1389.2 3139.26,-908.65 2915.2,-641.98 2834.8,-546.29 2481.96,-577.23 2361.2,-545.02 2353.35,-542.93 2345.18,-540.39 2337.19,-537.71"/>
<polygon fill="black" stroke="black" points="2338.48,-534.45 2327.88,-534.47 2336.18,-541.06 2338.48,-534.45"/>
</g>
<!-- repl&#45;&gt;variables -->
<g id="edge124" class="edge">
<title>repl&#45;&gt;variables</title>
<path fill="none" stroke="black" d="M2746.41,-1514.21C2618.75,-1499.66 2196.93,-1437.29 1935.2,-1227.71 1750.92,-1080.15 1640.91,-803.79 1606.74,-707.3"/>
<polygon fill="black" stroke="black" points="1610.05,-706.16 1603.44,-697.87 1603.44,-708.47 1610.05,-706.16"/>
</g>
<!-- repl&#45;&gt;vartypes -->
<g id="edge117" class="edge">
<title>repl&#45;&gt;vartypes</title>
<path fill="none" stroke="black" d="M2821.9,-1513.59C2886.66,-1504.01 3019.09,-1475.26 3092.2,-1395.04 3166.19,-1313.85 3162.2,-1267.85 3162.2,-1158 3162.2,-1158 3162.2,-1158 3162.2,-880 3162.2,-659 3060.51,-578.33 2860.2,-484.98 2554.99,-342.73 2442.27,-434.41 2109.2,-384.94 2075.57,-379.95 2038.86,-374.06 2006.12,-368.65"/>
<polygon fill="black" stroke="black" points="2007.11,-365.27 1996.67,-367.09 2005.96,-372.17 2007.11,-365.27"/>
</g>
<!-- replacement&#45;&gt;args -->
<g id="edge80" class="edge">
<title>replacement&#45;&gt;args</title>
<path fill="none" stroke="black" d="M946.81,-1135.42C881.9,-1103.18 761.34,-1034.77 692.2,-942.52 677.63,-923.07 630.2,-775.19 608.82,-707.11"/>
<polygon fill="black" stroke="black" points="612.16,-706.08 605.84,-697.58 605.48,-708.17 612.16,-706.08"/>
</g>
<!-- replacement&#45;&gt;env -->
<g id="edge72" class="edge">
<title>replacement&#45;&gt;env</title>
<path fill="none" stroke="black" d="M1020.6,-1133.81C1087.8,-1083.09 1252.2,-958.99 1322.01,-906.3"/>
<polygon fill="black" stroke="black" points="1323.74,-909.38 1329.61,-900.56 1319.52,-903.79 1323.74,-909.38"/>
</g>
<!-- replacement&#45;&gt;linebuffer -->
<g id="edge75" class="edge">
<title>replacement&#45;&gt;linebuffer</title>
<path fill="none" stroke="black" d="M992.51,-1132.63C994.63,-1093.38 998.74,-1011.69 1000.2,-942.52 1001.35,-887.85 1001.36,-874.15 1000.2,-819.48 999.09,-767.24 996.31,-754.26 995.2,-702.02 994.63,-675.34 983.55,-665.99 995.2,-641.98 1015.66,-599.82 1057.82,-567.55 1093.73,-546.23"/>
<polygon fill="black" stroke="black" points="1095.44,-549.28 1102.36,-541.26 1091.95,-543.22 1095.44,-549.28"/>
</g>
<!-- replacement&#45;&gt;logger -->
<g id="edge81" class="edge">
<title>replacement&#45;&gt;logger</title>
<path fill="none" stroke="black" d="M998.28,-1132.68C1019.14,-1064.99 1081.63,-870.07 1124.2,-819.48 1172.82,-761.71 1250.31,-720.27 1304.03,-696.52"/>
<polygon fill="black" stroke="black" points="1305.27,-699.8 1313.05,-692.61 1302.49,-693.38 1305.27,-699.8"/>
</g>
<!-- replacement&#45;&gt;messages -->
<g id="edge76" class="edge">
<title>replacement&#45;&gt;messages</title>
<path fill="none" stroke="black" d="M939.66,-1136.57C809.57,-1083.8 478.2,-924.69 478.2,-673 478.2,-673 478.2,-673 478.2,-350 478.2,-250.51 528.59,-221.93 615.2,-172.96 776.32,-81.85 1336.81,-57.95 1564.21,-51.93"/>
<polygon fill="black" stroke="black" points="1564.02,-55.44 1573.93,-51.68 1563.84,-48.44 1564.02,-55.44"/>
</g>
<!-- replacement&#45;&gt;opresult -->
<g id="edge79" class="edge">
<title>replacement&#45;&gt;opresult</title>
<path fill="none" stroke="black" d="M945.66,-1135.48C882.51,-1104.2 770.98,-1037.95 725.2,-942.52 629.06,-742.09 784.16,-655.13 927.2,-484.98 1000.36,-397.94 1019.15,-369.19 1120.2,-317.06 1257.6,-246.18 1438.38,-216.55 1538.76,-204.91"/>
<polygon fill="black" stroke="black" points="1538.95,-208.41 1548.5,-203.81 1538.17,-201.45 1538.95,-208.41"/>
</g>
<!-- replacement&#45;&gt;parseCmdLine -->
<g id="edge74" class="edge">
<title>replacement&#45;&gt;parseCmdLine</title>
<path fill="none" stroke="black" d="M978.84,-1132.64C953.1,-1084.01 893.69,-971.75 863.9,-915.46"/>
<polygon fill="black" stroke="black" points="867.01,-913.84 859.24,-906.64 860.82,-917.12 867.01,-913.84"/>
</g>
<!-- replacement&#45;&gt;tempFile -->
<g id="edge78" class="edge">
<title>replacement&#45;&gt;tempFile</title>
<path fill="none" stroke="black" d="M996.66,-1132.69C1005.75,-1093.51 1024.38,-1011.93 1038.2,-942.52 1054.33,-861.48 1070.69,-766.21 1079.53,-713.41"/>
<polygon fill="black" stroke="black" points="1082.96,-714.12 1081.15,-703.68 1076.05,-712.97 1082.96,-714.12"/>
</g>
<!-- replacement&#45;&gt;variables -->
<g id="edge77" class="edge">
<title>replacement&#45;&gt;variables</title>
<path fill="none" stroke="black" d="M1002.33,-1133.03C1032.32,-1073.3 1120.58,-911.43 1238.2,-819.48 1325.48,-751.25 1448.97,-710.05 1525.46,-689.42"/>
<polygon fill="black" stroke="black" points="1526.16,-692.86 1534.94,-686.92 1524.37,-686.09 1526.16,-692.86"/>
</g>
<!-- replacement&#45;&gt;vartypes -->
<g id="edge73" class="edge">
<title>replacement&#45;&gt;vartypes</title>
<path fill="none" stroke="black" d="M989.53,-1132.58C983.52,-1045.05 964.37,-737.34 985.2,-641.98 1001.58,-566.98 995.99,-531.31 1057.2,-484.98 1172.24,-397.9 1597.41,-366.54 1799.78,-356.38"/>
<polygon fill="black" stroke="black" points="1799.69,-359.89 1809.51,-355.9 1799.35,-352.89 1799.69,-359.89"/>
</g>
<!-- runCommand&#45;&gt;env -->
<g id="edge26" class="edge">
<title>runCommand&#45;&gt;env</title>
<path fill="none" stroke="black" d="M2088.45,-1098.56C1866.59,-1033.13 1519.09,-930.63 1397.75,-894.85"/>
<polygon fill="black" stroke="black" points="1399.1,-891.59 1388.51,-892.12 1397.12,-898.31 1399.1,-891.59"/>
</g>
<!-- runCommand&#45;&gt;functions -->
<g id="edge61" class="edge">
<title>runCommand&#45;&gt;functions</title>
<path fill="none" stroke="black" d="M2237.8,-1086.5C2210.7,-1045.03 2176.41,-992.54 2149.36,-951.13"/>
<polygon fill="black" stroke="black" points="2152.4,-949.39 2144,-942.93 2146.54,-953.21 2152.4,-949.39"/>
</g>
<!-- runCommand&#45;&gt;linebuffer -->
<g id="edge23" class="edge">
<title>runCommand&#45;&gt;linebuffer</title>
<path fill="none" stroke="black" d="M2303.98,-1086.14C2333.63,-970.22 2370.64,-741.09 2235.2,-641.98 2080.73,-528.94 1493.21,-515.94 1255.71,-515.41"/>
<polygon fill="black" stroke="black" points="1255.85,-511.92 1245.84,-515.4 1255.84,-518.92 1255.85,-511.92"/>
</g>
<!-- runCommand&#45;&gt;logger -->
<g id="edge68" class="edge">
<title>runCommand&#45;&gt;logger</title>
<path fill="none" stroke="black" d="M2106.77,-1096.13C2005.98,-1058.51 1879.17,-1005.27 1774.2,-942.52 1699.6,-897.92 1694.01,-868.44 1622.2,-819.48 1554.23,-773.14 1470.66,-727.61 1417.4,-699.91"/>
<polygon fill="black" stroke="black" points="1419.33,-696.97 1408.84,-695.48 1416.11,-703.19 1419.33,-696.97"/>
</g>
<!-- runCommand&#45;&gt;matches -->
<g id="edge24" class="edge">
<title>runCommand&#45;&gt;matches</title>
<path fill="none" stroke="black" d="M2440.83,-1093.82C2593.64,-1024.01 2816.39,-894.65 2915.2,-702.02 2946.45,-641.1 2875.33,-577.4 2826.14,-542.61"/>
<polygon fill="black" stroke="black" points="2828.39,-539.92 2818.18,-537.11 2824.42,-545.68 2828.39,-539.92"/>
</g>
<!-- runCommand&#45;&gt;messages -->
<g id="edge30" class="edge">
<title>runCommand&#45;&gt;messages</title>
<path fill="none" stroke="black" d="M2578.59,-1121.86C2699.78,-1093.02 2831.47,-1039.97 2917.2,-942.52 3101.15,-733.42 3113.13,-546.44 2955.2,-317.06 2818.56,-118.59 2034.71,-66.01 1757.95,-53.54"/>
<polygon fill="black" stroke="black" points="1758.39,-50.05 1748.25,-53.11 1758.08,-57.05 1758.39,-50.05"/>
</g>
<!-- runCommand&#45;&gt;opresult -->
<g id="edge63" class="edge">
<title>runCommand&#45;&gt;opresult</title>
<path fill="none" stroke="black" d="M2358.2,-1087.83C2396.39,-1048.95 2440.13,-997.15 2466.2,-942.52 2554.87,-756.66 2627.11,-671.19 2539.2,-484.98 2489.07,-378.78 2442.13,-365.6 2335.2,-317.06 2117.08,-218.03 1828.49,-200.31 1692.04,-197.84"/>
<polygon fill="black" stroke="black" points="1692.46,-194.34 1682.41,-197.68 1692.35,-201.34 1692.46,-194.34"/>
</g>
<!-- runCommand&#45;&gt;parseCmdLine -->
<g id="edge66" class="edge">
<title>runCommand&#45;&gt;parseCmdLine</title>
<path fill="none" stroke="black" d="M2034.12,-1108.51C1709.72,-1046.65 1158.29,-941.51 939.58,-899.8"/>
<polygon fill="black" stroke="black" points="940.44,-896.41 929.96,-897.97 939.13,-903.28 940.44,-896.41"/>
</g>
<!-- runCommand&#45;&gt;readjson -->
<g id="edge62" class="edge">
<title>runCommand&#45;&gt;readjson</title>
<path fill="none" stroke="black" d="M2090.09,-1098.39C2014.94,-1065.48 1936.59,-1015.73 1893.2,-942.52 1849.15,-868.2 1875.82,-761.12 1894.19,-707.03"/>
<polygon fill="black" stroke="black" points="1897.43,-708.34 1897.45,-697.75 1890.83,-706.02 1897.43,-708.34"/>
</g>
<!-- runCommand&#45;&gt;regexes -->
<g id="edge25" class="edge">
<title>runCommand&#45;&gt;regexes</title>
<path fill="none" stroke="black" d="M2544.21,-1111.35C2655.03,-1080.51 2778.02,-1028.81 2863.2,-942.52 2960.72,-843.73 2965.5,-779.71 2948.2,-641.98 2936.75,-550.82 2905.82,-447.25 2887.77,-391.9"/>
<polygon fill="black" stroke="black" points="2891.16,-391.01 2884.71,-382.61 2884.52,-393.2 2891.16,-391.01"/>
</g>
<!-- runCommand&#45;&gt;signatures -->
<g id="edge67" class="edge">
<title>runCommand&#45;&gt;signatures</title>
<path fill="none" stroke="black" d="M2350.69,-1087.32C2384.37,-1048.28 2421.78,-996.51 2440.2,-942.52 2487.53,-803.78 2467.66,-624.64 2456.2,-550.48"/>
<polygon fill="black" stroke="black" points="2459.72,-550.32 2454.68,-541 2452.81,-551.43 2459.72,-550.32"/>
</g>
<!-- runCommand&#45;&gt;unicodes -->
<g id="edge64" class="edge">
<title>runCommand&#45;&gt;unicodes</title>
<path fill="none" stroke="black" d="M2344,-1086.8C2374.5,-1047.42 2408.29,-995.48 2424.2,-942.52 2433.45,-911.74 2426.98,-656.82 2420.2,-641.98 2400.62,-599.11 2358.75,-564.45 2326.06,-542.42"/>
<polygon fill="black" stroke="black" points="2328.23,-539.65 2317.94,-537.1 2324.39,-545.51 2328.23,-539.65"/>
</g>
<!-- runCommand&#45;&gt;utf8decoder -->
<g id="edge65" class="edge">
<title>runCommand&#45;&gt;utf8decoder</title>
<path fill="none" stroke="black" d="M2479.74,-1098.84C2688.99,-1025.1 2983.64,-877.54 2932.2,-641.98 2915.82,-566.98 2920.22,-532.84 2860.2,-484.98 2780.83,-421.69 2499.26,-381.79 2337.95,-363.58"/>
<polygon fill="black" stroke="black" points="2338.38,-360.11 2328.05,-362.48 2337.6,-367.07 2338.38,-360.11"/>
</g>
<!-- runCommand&#45;&gt;variables -->
<g id="edge35" class="edge">
<title>runCommand&#45;&gt;variables</title>
<path fill="none" stroke="black" d="M2121.09,-1094.26C2038.92,-1057.98 1940.8,-1006.6 1865.2,-942.52 1813.31,-898.54 1821.1,-868.74 1774.2,-819.48 1730.55,-773.64 1672.78,-728.71 1634.84,-700.95"/>
<polygon fill="black" stroke="black" points="1637.01,-698.21 1626.86,-695.16 1632.9,-703.87 1637.01,-698.21"/>
</g>
<!-- runCommand&#45;&gt;vartypes -->
<g id="edge29" class="edge">
<title>runCommand&#45;&gt;vartypes</title>
<path fill="none" stroke="black" d="M2310.05,-1086.16C2345.77,-980.61 2394.75,-778.32 2306.2,-641.98 2283.54,-607.08 2065.19,-457.57 1961.88,-387.94"/>
<polygon fill="black" stroke="black" points="1964.05,-385.19 1953.8,-382.51 1960.14,-391 1964.05,-385.19"/>
</g>
<!-- signatures&#45;&gt;messages -->
<g id="edge47" class="edge">
<title>signatures&#45;&gt;messages</title>
<path fill="none" stroke="black" d="M2443.4,-490.88C2423.27,-427 2357.31,-247.93 2231.2,-172.96 2081.99,-84.26 1876.94,-59.22 1757.8,-52.35"/>
<polygon fill="black" stroke="black" points="1758.22,-48.87 1748.05,-51.82 1757.85,-55.86 1758.22,-48.87"/>
</g>
<!-- signatures&#45;&gt;vartypes -->
<g id="edge46" class="edge">
<title>signatures&#45;&gt;vartypes</title>
<path fill="none" stroke="black" d="M2397.57,-496.55C2385.64,-492.67 2373,-488.63 2361.2,-484.98 2233.67,-445.48 2085.05,-402.41 1993.79,-376.31"/>
<polygon fill="black" stroke="black" points="1994.98,-373.01 1984.41,-373.62 1993.06,-379.74 1994.98,-373.01"/>
</g>
<!-- startingvars&#45;&gt;args -->
<g id="edge83" class="edge">
<title>startingvars&#45;&gt;args</title>
<path fill="none" stroke="black" d="M1635.52,-1362.82C1449.36,-1346.03 1014.48,-1300.09 887.2,-1227.71 742.44,-1145.4 714.73,-1093.37 644.2,-942.52 607.55,-864.13 599.77,-760.71 598.33,-707.66"/>
<polygon fill="black" stroke="black" points="601.83,-707.66 598.13,-697.73 594.83,-707.8 601.83,-707.66"/>
</g>
<!-- startingvars&#45;&gt;env -->
<g id="edge85" class="edge">
<title>startingvars&#45;&gt;env</title>
<path fill="none" stroke="black" d="M1668.18,-1351.12C1613.92,-1329.27 1530.59,-1288.34 1480.2,-1227.71 1401.04,-1132.47 1369.51,-983.23 1358.87,-916.38"/>
<polygon fill="black" stroke="black" points="1362.37,-916.12 1357.41,-906.76 1355.45,-917.18 1362.37,-916.12"/>
</g>
<!-- startingvars&#45;&gt;functions -->
<g id="edge91" class="edge">
<title>startingvars&#45;&gt;functions</title>
<path fill="none" stroke="black" d="M1736.97,-1347.03C1756.07,-1319.07 1789.06,-1270.29 1816.2,-1227.71 1855.74,-1165.68 1856.92,-1144.27 1902.2,-1086.29 1941.12,-1036.46 1991.03,-985.89 2031.49,-947.52"/>
<polygon fill="black" stroke="black" points="2033.74,-950.22 2038.62,-940.81 2028.94,-945.12 2033.74,-950.22"/>
</g>
<!-- startingvars&#45;&gt;logger -->
<g id="edge92" class="edge">
<title>startingvars&#45;&gt;logger</title>
<path fill="none" stroke="black" d="M1686.76,-1348.42C1649.66,-1323.54 1591.24,-1279.36 1556.2,-1227.71 1496.38,-1139.56 1406.21,-825.42 1375.16,-713.2"/>
<polygon fill="black" stroke="black" points="1378.61,-712.54 1372.58,-703.83 1371.86,-714.4 1378.61,-712.54"/>
</g>
<!-- startingvars&#45;&gt;messages -->
<g id="edge84" class="edge">
<title>startingvars&#45;&gt;messages</title>
<path fill="none" stroke="black" d="M1811.96,-1370.05C2020.94,-1368.05 2526.25,-1350.34 2631.2,-1227.71 2672.07,-1179.96 2633.13,-1149.11 2631.2,-1086.29 2623.42,-832.47 2596.2,-769.94 2596.2,-516 2596.2,-516 2596.2,-516 2596.2,-350 2596.2,-175.26 1996.65,-88.01 1757.75,-60.17"/>
<polygon fill="black" stroke="black" points="1758.49,-56.73 1748.16,-59.06 1757.69,-63.69 1758.49,-56.73"/>
</g>
<!-- startingvars&#45;&gt;opresult -->
<g id="edge89" class="edge">
<title>startingvars&#45;&gt;opresult</title>
<path fill="none" stroke="black" d="M1707.41,-1346.7C1656.13,-1257.46 1481.07,-928.05 1513.2,-641.98 1530.66,-486.51 1581.49,-306.07 1603.66,-232.19"/>
<polygon fill="black" stroke="black" points="1606.98,-233.3 1606.52,-222.72 1600.28,-231.27 1606.98,-233.3"/>
</g>
<!-- startingvars&#45;&gt;readjson -->
<g id="edge88" class="edge">
<title>startingvars&#45;&gt;readjson</title>
<path fill="none" stroke="black" d="M1727.11,-1346.61C1746.38,-1270.5 1809.38,-1023.14 1865.2,-819.48 1875.76,-780.96 1888.47,-736.94 1897.12,-707.29"/>
<polygon fill="black" stroke="black" points="1900.47,-708.33 1899.91,-697.75 1893.75,-706.36 1900.47,-708.33"/>
</g>
<!-- startingvars&#45;&gt;runCommand -->
<g id="edge90" class="edge">
<title>startingvars&#45;&gt;runCommand</title>
<path fill="none" stroke="black" d="M1772.06,-1350.81C1847.6,-1322.32 1993.04,-1267.46 2109.52,-1223.52"/>
<polygon fill="black" stroke="black" points="2110.45,-1226.91 2118.57,-1220.1 2107.98,-1220.36 2110.45,-1226.91"/>
</g>
<!-- startingvars&#45;&gt;variables -->
<g id="edge86" class="edge">
<title>startingvars&#45;&gt;variables</title>
<path fill="none" stroke="black" d="M1717.01,-1346.81C1698.45,-1244.17 1623.66,-830.42 1601.45,-707.56"/>
<polygon fill="black" stroke="black" points="1604.9,-706.98 1599.68,-697.77 1598.01,-708.23 1604.9,-706.98"/>
</g>
<!-- startingvars&#45;&gt;vartypes -->
<g id="edge87" class="edge">
<title>startingvars&#45;&gt;vartypes</title>
<path fill="none" stroke="black" d="M1719.29,-1346.43C1711.64,-1241.47 1689.34,-807.59 1812.2,-484.98 1825.29,-450.61 1849.6,-417.08 1870.48,-392.28"/>
<polygon fill="black" stroke="black" points="1873.13,-394.57 1877.01,-384.71 1867.83,-390 1873.13,-394.57"/>
</g>
<!-- statictea -->
<g id="node25" class="node">
<title>statictea</title>
<g id="a_node25"><a xlink:href="html/statictea.html" xlink:title="statictea.md" target="_parent">
<polygon fill="palegoldenrod" stroke="black" points="2194.2,-1788 2021.2,-1727 2194.2,-1666 2367.2,-1727 2194.2,-1788"/>
<text text-anchor="middle" x="2194.2" y="-1715.1" font-family="Times,serif" font-size="48.00">statictea</text>
</a>
</g>
</g>
<!-- statictea&#45;&gt;args -->
<g id="edge109" class="edge">
<title>statictea&#45;&gt;args</title>
<path fill="none" stroke="black" d="M2038.24,-1720.5C1719.07,-1706.97 1003.57,-1664.37 791.2,-1549.02 630.99,-1462.01 593.99,-1400.62 536.2,-1227.71 478.69,-1055.63 498.61,-997.19 535.2,-819.48 543.75,-777.95 564.63,-733.67 580.02,-704.8"/>
<polygon fill="black" stroke="black" points="582.98,-706.69 584.68,-696.23 576.83,-703.34 582.98,-706.69"/>
</g>
<!-- statictea&#45;&gt;env -->
<g id="edge113" class="edge">
<title>statictea&#45;&gt;env</title>
<path fill="none" stroke="black" d="M2045.92,-1717.81C1821.88,-1701.98 1413.68,-1658.53 1324.2,-1549.02 1244.52,-1451.51 1321.7,-1039.07 1346.87,-916.49"/>
<polygon fill="black" stroke="black" points="1350.3,-917.22 1348.9,-906.72 1343.44,-915.8 1350.3,-917.22"/>
</g>
<!-- statictea&#45;&gt;gethelp -->
<g id="edge111" class="edge">
<title>statictea&#45;&gt;gethelp</title>
<path fill="none" stroke="black" d="M2277.03,-1694.8C2307.79,-1684.25 2343.23,-1673.3 2376.2,-1666 2808.77,-1570.16 2934.14,-1647.15 3366.2,-1549.02 3373.27,-1547.42 3380.57,-1545.44 3387.79,-1543.27"/>
<polygon fill="black" stroke="black" points="3388.71,-1546.65 3397.2,-1540.32 3386.61,-1539.98 3388.71,-1546.65"/>
</g>
<!-- statictea&#45;&gt;logger -->
<g id="edge128" class="edge">
<title>statictea&#45;&gt;logger</title>
<path fill="none" stroke="black" d="M2105.32,-1696.98C1980.19,-1651.76 1752.71,-1552.94 1621.2,-1395.04 1529.46,-1284.89 1410.08,-848.65 1374.59,-713.28"/>
<polygon fill="black" stroke="black" points="1378,-712.48 1372.08,-703.69 1371.22,-714.25 1378,-712.48"/>
</g>
<!-- statictea&#45;&gt;messages -->
<g id="edge110" class="edge">
<title>statictea&#45;&gt;messages</title>
<path fill="none" stroke="black" d="M2276.02,-1694.63C2306.98,-1683.93 2342.81,-1672.93 2376.2,-1666 2656.95,-1607.74 3456.82,-1750.13 3661.2,-1549.02 3717.6,-1493.52 3680.2,-1451.13 3680.2,-1372 3680.2,-1372 3680.2,-1372 3680.2,-350 3680.2,-153.22 2160.31,-72.07 1757.96,-54.03"/>
<polygon fill="black" stroke="black" points="1758.32,-50.55 1748.18,-53.6 1758.01,-57.54 1758.32,-50.55"/>
</g>
<!-- statictea&#45;&gt;opresult -->
<g id="edge114" class="edge">
<title>statictea&#45;&gt;opresult</title>
<path fill="none" stroke="black" d="M2277.07,-1694.97C2307.84,-1684.43 2343.26,-1673.46 2376.2,-1666 2818.05,-1565.96 3352.2,-1825.03 3352.2,-1372 3352.2,-1372 3352.2,-1372 3352.2,-671 3352.2,-448.2 3210.08,-382.8 2997.2,-317.06 2750.15,-240.77 1945.6,-208.72 1691.71,-200.35"/>
<polygon fill="black" stroke="black" points="1692.01,-196.86 1681.91,-200.03 1691.79,-203.86 1692.01,-196.86"/>
</g>
<!-- statictea&#45;&gt;parseCommandLine -->
<g id="edge9" class="edge">
<title>statictea&#45;&gt;parseCommandLine</title>
<path fill="none" stroke="black" d="M2033.75,-1722.12C1595.67,-1710.02 403.2,-1666.51 274.2,-1549.02 88.04,-1379.48 125.58,-1028.15 143.07,-916.71"/>
<polygon fill="black" stroke="black" points="146.5,-917.43 144.64,-907 139.59,-916.31 146.5,-917.43"/>
</g>
<!-- statictea&#45;&gt;processTemplate -->
<g id="edge96" class="edge">
<title>statictea&#45;&gt;processTemplate</title>
<path fill="none" stroke="black" d="M2076.71,-1706.94C1830.49,-1667.01 1263.79,-1575.08 1029.02,-1537"/>
<polygon fill="black" stroke="black" points="1029.68,-1533.56 1019.25,-1535.42 1028.56,-1540.47 1029.68,-1533.56"/>
</g>
<!-- statictea&#45;&gt;repl -->
<g id="edge127" class="edge">
<title>statictea&#45;&gt;repl</title>
<path fill="none" stroke="black" d="M2280.31,-1695.94C2408.11,-1651.31 2643.36,-1569.18 2740.49,-1535.26"/>
<polygon fill="black" stroke="black" points="2741.37,-1538.66 2749.66,-1532.06 2739.06,-1532.05 2741.37,-1538.66"/>
</g>
<!-- timer -->
<g id="node28" class="node">
<title>timer</title>
<g id="a_node28"><a xlink:href="html/timer.html" xlink:title="timer.md" target="_parent">
<polygon fill="palegreen" stroke="black" points="3648.29,-1508.21 3648.29,-1529.79 3617.77,-1545.04 3574.62,-1545.04 3544.11,-1529.79 3544.11,-1508.21 3574.62,-1492.96 3617.77,-1492.96 3648.29,-1508.21"/>
<polygon fill="none" stroke="black" points="3652.29,-1505.74 3652.29,-1532.26 3618.72,-1549.04 3573.68,-1549.04 3540.11,-1532.26 3540.11,-1505.74 3573.68,-1488.96 3618.72,-1488.96 3652.29,-1505.74"/>
<text text-anchor="middle" x="3596.2" y="-1512.8" font-family="Times,serif" font-size="24.00">timer</text>
</a>
</g>
</g>
<!-- statictea&#45;&gt;timer -->
<g id="edge129" class="edge">
<title>statictea&#45;&gt;timer</title>
<path fill="none" stroke="black" d="M2276.51,-1694.65C2307.37,-1684.02 2343.01,-1673.06 2376.2,-1666 2880.86,-1558.6 3032.64,-1681.88 3531.2,-1549.02 3535.77,-1547.81 3540.42,-1546.3 3545.03,-1544.63"/>
<polygon fill="black" stroke="black" points="3546.22,-1547.93 3554.25,-1541.02 3543.66,-1541.41 3546.22,-1547.93"/>
</g>
<!-- updateTemplate -->
<g id="node30" class="node">
<title>updateTemplate</title>
<g id="a_node30"><a xlink:href="html/updateTemplate.html" xlink:title="updateTemplate.md" target="_parent">
<ellipse fill="palegoldenrod" stroke="black" cx="1453.2" cy="-1519" rx="119.5" ry="24.08"/>
<text text-anchor="middle" x="1453.2" y="-1512.8" font-family="Times,serif" font-size="24.00">updateTemplate</text>
</a>
</g>
</g>
<!-- statictea&#45;&gt;updateTemplate -->
<g id="edge108" class="edge">
<title>statictea&#45;&gt;updateTemplate</title>
<path fill="none" stroke="black" d="M2098.47,-1699.39C1950.76,-1658.32 1670.05,-1580.29 1532.79,-1542.13"/>
<polygon fill="black" stroke="black" points="1533.99,-1538.83 1523.41,-1539.52 1532.11,-1545.57 1533.99,-1538.83"/>
</g>
<!-- version -->
<g id="node34" class="node">
<title>version</title>
<g id="a_node34"><a xlink:href="html/version.html" xlink:title="version.md" target="_parent">
<polygon fill="palegreen" stroke="black" points="3281.87,-504.21 3281.87,-525.79 3242.81,-541.04 3187.58,-541.04 3148.53,-525.79 3148.53,-504.21 3187.58,-488.96 3242.81,-488.96 3281.87,-504.21"/>
<polygon fill="none" stroke="black" points="3285.87,-501.48 3285.87,-528.52 3243.57,-545.04 3186.83,-545.04 3144.53,-528.52 3144.53,-501.48 3186.83,-484.96 3243.57,-484.96 3285.87,-501.48"/>
<text text-anchor="middle" x="3215.2" y="-508.8" font-family="Times,serif" font-size="24.00">version</text>
</a>
</g>
</g>
<!-- statictea&#45;&gt;version -->
<g id="edge112" class="edge">
<title>statictea&#45;&gt;version</title>
<path fill="none" stroke="black" d="M2280.85,-1696.12C2310.91,-1686.11 2344.91,-1675.17 2376.2,-1666 2795.46,-1543.15 3314.2,-1808.89 3314.2,-1372 3314.2,-1372 3314.2,-1372 3314.2,-880 3314.2,-758.41 3262.13,-621.73 3233.51,-555.8"/>
<polygon fill="black" stroke="black" points="3236.8,-554.59 3229.57,-546.84 3230.4,-557.41 3236.8,-554.59"/>
</g>
<!-- stfrunner -->
<g id="node26" class="node">
<title>stfrunner</title>
<g id="a_node26"><a xlink:href="html/stfrunner.html" xlink:title="stfrunner.md" target="_parent">
<polygon fill="palegreen" stroke="black" points="3079.18,-1711.69 3079.18,-1742.31 3013.58,-1763.95 2920.82,-1763.95 2855.22,-1742.31 2855.22,-1711.69 2920.82,-1690.05 3013.58,-1690.05 3079.18,-1711.69"/>
<polygon fill="none" stroke="black" points="3083.19,-1708.78 3083.19,-1745.22 3014.22,-1767.98 2920.17,-1767.98 2851.21,-1745.22 2851.21,-1708.78 2920.17,-1686.02 3014.22,-1686.02 3083.19,-1708.78"/>
<text text-anchor="middle" x="2967.2" y="-1718.2" font-family="Times,serif" font-size="36.00">stfrunner</text>
</a>
</g>
</g>
<!-- unicodes&#45;&gt;messages -->
<g id="edge42" class="edge">
<title>unicodes&#45;&gt;messages</title>
<path fill="none" stroke="black" d="M2298.28,-491.19C2324.75,-452.81 2369.26,-373.94 2335.2,-317.06 2215.03,-116.37 1914.12,-66.32 1758.23,-53.96"/>
<polygon fill="black" stroke="black" points="1758.54,-50.47 1748.31,-53.21 1758.02,-57.45 1758.54,-50.47"/>
</g>
<!-- unicodes&#45;&gt;opresult -->
<g id="edge41" class="edge">
<title>unicodes&#45;&gt;opresult</title>
<path fill="none" stroke="black" d="M2252.56,-492.59C2185.16,-442.24 2021.72,-320.31 2015.2,-317.06 1905.51,-262.31 1766.12,-227.99 1683.89,-210.97"/>
<polygon fill="black" stroke="black" points="1684.66,-207.56 1674.16,-208.99 1683.26,-214.41 1684.66,-207.56"/>
</g>
<!-- unicodes&#45;&gt;utf8decoder -->
<g id="edge43" class="edge">
<title>unicodes&#45;&gt;utf8decoder</title>
<path fill="none" stroke="black" d="M2272.75,-490.79C2263.37,-465.04 2248.07,-423.04 2236.76,-391.97"/>
<polygon fill="black" stroke="black" points="2240.17,-391.11 2233.46,-382.91 2233.59,-393.5 2240.17,-391.11"/>
</g>
<!-- unicodes&#45;&gt;vartypes -->
<g id="edge44" class="edge">
<title>unicodes&#45;&gt;vartypes</title>
<path fill="none" stroke="black" d="M2238.41,-495.42C2174.99,-467.87 2055.32,-415.9 1978.79,-382.66"/>
<polygon fill="black" stroke="black" points="1980.25,-379.47 1969.68,-378.7 1977.46,-385.9 1980.25,-379.47"/>
</g>
<!-- updateTemplate&#45;&gt;args -->
<g id="edge97" class="edge">
<title>updateTemplate&#45;&gt;args</title>
<path fill="none" stroke="black" d="M1350.54,-1506.29C1191.5,-1482.65 886.18,-1414.45 716.2,-1227.71 578.12,-1076.01 586.63,-803.83 594.59,-707.75"/>
<polygon fill="black" stroke="black" points="598.06,-708.19 595.46,-697.92 591.09,-707.57 598.06,-708.19"/>
</g>
<!-- updateTemplate&#45;&gt;env -->
<g id="edge99" class="edge">
<title>updateTemplate&#45;&gt;env</title>
<path fill="none" stroke="black" d="M1444,-1494.78C1425.25,-1446.16 1382.97,-1329.72 1366.2,-1227.71 1347.67,-1114.98 1350.05,-978.88 1352.5,-916.4"/>
<polygon fill="black" stroke="black" points="1355.98,-916.91 1352.9,-906.77 1348.99,-916.62 1355.98,-916.91"/>
</g>
<!-- updateTemplate&#45;&gt;linebuffer -->
<g id="edge100" class="edge">
<title>updateTemplate&#45;&gt;linebuffer</title>
<path fill="none" stroke="black" d="M1439.23,-1494.7C1425.21,-1470.5 1403.79,-1431.19 1390.2,-1395.04 1269.07,-1072.94 1318.94,-968.47 1210.2,-641.98 1200.35,-612.39 1186.22,-580.19 1174.76,-555.75"/>
<polygon fill="black" stroke="black" points="1177.96,-554.34 1170.51,-546.81 1171.64,-557.34 1177.96,-554.34"/>
</g>
<!-- updateTemplate&#45;&gt;messages -->
<g id="edge98" class="edge">
<title>updateTemplate&#45;&gt;messages</title>
<path fill="none" stroke="black" d="M1435.45,-1494.89C1417.51,-1470.83 1389.71,-1431.63 1370.2,-1395.04 1332.43,-1324.21 1325.78,-1304.45 1302.2,-1227.71 1263.11,-1100.49 1246.85,-755.39 1177.2,-641.98 1141.32,-583.55 1086.75,-606.89 1057.2,-545.02 1045.7,-520.94 1047.95,-510.01 1057.2,-484.98 1120.45,-313.77 1174.23,-276.98 1324.2,-172.96 1400.5,-120.04 1502.23,-87.05 1573.9,-68.73"/>
<polygon fill="black" stroke="black" points="1574.37,-72.22 1583.22,-66.39 1572.67,-65.43 1574.37,-72.22"/>
</g>
<!-- updateTemplate&#45;&gt;opresult -->
<g id="edge107" class="edge">
<title>updateTemplate&#45;&gt;opresult</title>
<path fill="none" stroke="black" d="M1453.39,-1494.61C1454.05,-1411.32 1456.2,-1121.33 1456.2,-882 1456.2,-882 1456.2,-882 1456.2,-671 1456.2,-497.35 1553.18,-305.46 1595.18,-230.5"/>
<polygon fill="black" stroke="black" points="1598.1,-232.46 1599.98,-222.03 1592.01,-229.01 1598.1,-232.46"/>
</g>
<!-- updateTemplate&#45;&gt;parseCmdLine -->
<g id="edge101" class="edge">
<title>updateTemplate&#45;&gt;parseCmdLine</title>
<path fill="none" stroke="black" d="M1386.22,-1498.69C1317.96,-1477.73 1210.07,-1441.01 1123.2,-1395.04 1116.1,-1391.28 891.3,-1234.62 887.2,-1227.71 856.29,-1175.67 848.65,-993.45 846.79,-916.6"/>
<polygon fill="black" stroke="black" points="850.29,-916.64 846.57,-906.72 843.29,-916.8 850.29,-916.64"/>
</g>
<!-- updateTemplate&#45;&gt;replacement -->
<g id="edge105" class="edge">
<title>updateTemplate&#45;&gt;replacement</title>
<path fill="none" stroke="black" d="M1386.45,-1498.65C1327.05,-1479.16 1239.96,-1444.83 1176.2,-1395.04 1101.14,-1336.43 1039.11,-1240.98 1009.66,-1190.96"/>
<polygon fill="black" stroke="black" points="1012.85,-1189.49 1004.8,-1182.6 1006.8,-1193 1012.85,-1189.49"/>
</g>
<!-- updateTemplate&#45;&gt;runCommand -->
<g id="edge102" class="edge">
<title>updateTemplate&#45;&gt;runCommand</title>
<path fill="none" stroke="black" d="M1569.4,-1512.89C1692.97,-1503.21 1890.91,-1475.32 2041.2,-1395.04 2113.8,-1356.26 2179.35,-1289.03 2223.86,-1236.05"/>
<polygon fill="black" stroke="black" points="2226.43,-1238.44 2230.13,-1228.51 2221.05,-1233.97 2226.43,-1238.44"/>
</g>
<!-- updateTemplate&#45;&gt;startingvars -->
<g id="edge106" class="edge">
<title>updateTemplate&#45;&gt;startingvars</title>
<path fill="none" stroke="black" d="M1493.61,-1495.98C1541.59,-1469.85 1621.55,-1426.29 1672.79,-1398.37"/>
<polygon fill="black" stroke="black" points="1674.2,-1401.59 1681.31,-1393.73 1670.85,-1395.44 1674.2,-1401.59"/>
</g>
<!-- updateTemplate&#45;&gt;variables -->
<g id="edge103" class="edge">
<title>updateTemplate&#45;&gt;variables</title>
<path fill="none" stroke="black" d="M1457.15,-1494.52C1476.97,-1376.54 1565.69,-848.63 1589.37,-707.69"/>
<polygon fill="black" stroke="black" points="1592.82,-708.3 1591.02,-697.86 1585.91,-707.14 1592.82,-708.3"/>
</g>
<!-- updateTemplate&#45;&gt;vartypes -->
<g id="edge104" class="edge">
<title>updateTemplate&#45;&gt;vartypes</title>
<path fill="none" stroke="black" d="M1558.69,-1507.45C1640.06,-1494.06 1750.34,-1463.72 1821.2,-1395.04 1926.24,-1293.24 1832.18,-1190.14 1935.2,-1086.29 2062.37,-958.1 2212.56,-1091.09 2315.2,-942.52 2346.28,-897.53 2326.69,-872.94 2315.2,-819.48 2297.02,-734.88 2289.51,-709.34 2235.2,-641.98 2189.74,-585.59 2159.25,-592.1 2104.2,-545.02 2045.91,-495.18 1983.63,-431.92 1945.3,-391.69"/>
<polygon fill="black" stroke="black" points="1947.96,-389.41 1938.54,-384.56 1942.88,-394.22 1947.96,-389.41"/>
</g>
<!-- variables&#45;&gt;messages -->
<g id="edge33" class="edge">
<title>variables&#45;&gt;messages</title>
<path fill="none" stroke="black" d="M1584.91,-647.81C1554.05,-574.77 1468.69,-344.12 1539.2,-172.96 1553.91,-137.24 1584.59,-106.4 1611.49,-84.54"/>
<polygon fill="black" stroke="black" points="1613.58,-87.36 1619.26,-78.42 1609.24,-81.86 1613.58,-87.36"/>
</g>
<!-- variables&#45;&gt;opresult -->
<g id="edge34" class="edge">
<title>variables&#45;&gt;opresult</title>
<path fill="none" stroke="black" d="M1596.14,-647.54C1599.24,-570.39 1609.13,-324.18 1612.81,-232.68"/>
<polygon fill="black" stroke="black" points="1616.3,-232.96 1613.2,-222.83 1609.3,-232.68 1616.3,-232.96"/>
</g>
<!-- variables&#45;&gt;vartypes -->
<g id="edge31" class="edge">
<title>variables&#45;&gt;vartypes</title>
<path fill="none" stroke="black" d="M1609.12,-647.89C1631.99,-611.01 1680.19,-537.62 1732.2,-484.98 1768.89,-447.84 1816.41,-412.55 1852.82,-387.66"/>
<polygon fill="black" stroke="black" points="1854.73,-390.6 1861.05,-382.1 1850.8,-384.8 1854.73,-390.6"/>
</g>
<!-- variables&#45;&gt;version -->
<g id="edge32" class="edge">
<title>variables&#45;&gt;version</title>
<path fill="none" stroke="black" d="M1661.96,-662.13C1708.73,-656.06 1772.73,-648.04 1829.2,-641.98 2323.35,-588.89 2918.21,-539.78 3132.92,-522.53"/>
<polygon fill="black" stroke="black" points="3132.88,-526.05 3142.57,-521.76 3132.32,-519.07 3132.88,-526.05"/>
</g>
<!-- vartypes&#45;&gt;messages -->
<g id="edge27" class="edge">
<title>vartypes&#45;&gt;messages</title>
<path fill="none" stroke="black" d="M1881.77,-317.89C1835.84,-262.11 1741.52,-147.56 1692.44,-87.94"/>
<polygon fill="black" stroke="black" points="1695.27,-85.87 1686.21,-80.38 1689.86,-90.32 1695.27,-85.87"/>
</g>
<!-- vartypes&#45;&gt;opresult -->
<g id="edge28" class="edge">
<title>vartypes&#45;&gt;opresult</title>
<path fill="none" stroke="black" d="M1854.62,-322.3C1799.5,-293.8 1714.45,-249.83 1661.67,-222.55"/>
<polygon fill="black" stroke="black" points="1663.4,-219.5 1652.91,-218.02 1660.19,-225.72 1663.4,-219.5"/>
</g>
</g>
</svg>
