<?xml version="1.0" encoding="UTF-8" standalone="no"?>
<!DOCTYPE svg PUBLIC "-//W3C//DTD SVG 1.1//EN"
 "http://www.w3.org/Graphics/SVG/1.1/DTD/svg11.dtd">
<!-- Generated by graphviz version 2.40.1 (20161225.0304)
 -->
<!-- Title: statictea Pages: 1 -->
<svg width="635pt" height="1289pt"
 viewBox="0.00 0.00 634.97 1288.98" xmlns="http://www.w3.org/2000/svg" xmlns:xlink="http://www.w3.org/1999/xlink">
<g id="graph0" class="graph" transform="scale(1 1) rotate(0) translate(4 1284.9835)">
<title>statictea</title>
<polygon fill="#ffffff" stroke="transparent" points="-4,4 -4,-1284.9835 630.9693,-1284.9835 630.9693,4 -4,4"/>
<!-- strutils -->
<g id="node1" class="node">
<title>strutils</title>
<ellipse fill="none" stroke="#000000" cx="87.6672" cy="-664.4917" rx="57.5374" ry="22.7556"/>
<text text-anchor="middle" x="87.6672" y="-657.2917" font-family="Times,serif" font-size="24.00" fill="#000000">strutils</text>
</g>
<!-- statictea -->
<g id="node2" class="node">
<title>statictea</title>
<ellipse fill="none" stroke="#000000" cx="545.1518" cy="-1069.4917" rx="39.154" ry="18"/>
<text text-anchor="middle" x="545.1518" y="-1065.2917" font-family="Times,serif" font-size="14.00" fill="#000000">statictea</text>
</g>
<!-- strutils&#45;&gt;statictea -->
<g id="edge1" class="edge">
<title>strutils&#45;&gt;statictea</title>
<path fill="none" stroke="#000000" d="M106.5318,-685.9447C170.2968,-758.0481 378.5335,-990.0764 463.3343,-1042.4917 474.4784,-1049.3799 487.5741,-1054.7152 499.9815,-1058.7539"/>
<polygon fill="#000000" stroke="#000000" points="499.1482,-1062.1587 509.734,-1061.7198 501.185,-1055.4616 499.1482,-1062.1587"/>
</g>
<!-- args -->
<g id="node6" class="node">
<title>args</title>
<ellipse fill="none" stroke="#000000" cx="545.1518" cy="-1015.4917" rx="27" ry="18"/>
<text text-anchor="middle" x="545.1518" y="-1011.2917" font-family="Times,serif" font-size="14.00" fill="#000000">args</text>
</g>
<!-- strutils&#45;&gt;args -->
<g id="edge4" class="edge">
<title>strutils&#45;&gt;args</title>
<path fill="none" stroke="#000000" d="M106.6367,-685.9034C158.3256,-743.0252 308.1968,-900.6482 463.3343,-988.4917 477.6114,-996.5758 494.6743,-1002.6892 509.5148,-1007.0364"/>
<polygon fill="#000000" stroke="#000000" points="508.8009,-1010.4704 519.3723,-1009.7664 510.6692,-1003.7243 508.8009,-1010.4704"/>
</g>
<!-- warnings -->
<g id="node7" class="node">
<title>warnings</title>
<ellipse fill="none" stroke="#000000" cx="545.1518" cy="-799.4917" rx="42.5542" ry="18"/>
<text text-anchor="middle" x="545.1518" y="-795.2917" font-family="Times,serif" font-size="14.00" fill="#000000">warnings</text>
</g>
<!-- strutils&#45;&gt;warnings -->
<g id="edge5" class="edge">
<title>strutils&#45;&gt;warnings</title>
<path fill="none" stroke="#000000" d="M134.0508,-678.1792C222.3282,-704.2291 413.4326,-760.6225 500.4142,-786.29"/>
<polygon fill="#000000" stroke="#000000" points="499.6617,-789.7171 510.2435,-789.1906 501.6429,-783.0033 499.6617,-789.7171"/>
</g>
<!-- cmdline -->
<g id="node11" class="node">
<title>cmdline</title>
<ellipse fill="none" stroke="#000000" cx="545.1518" cy="-637.4917" rx="38.6869" ry="18"/>
<text text-anchor="middle" x="545.1518" y="-633.2917" font-family="Times,serif" font-size="14.00" fill="#000000">cmdline</text>
</g>
<!-- strutils&#45;&gt;cmdline -->
<g id="edge11" class="edge">
<title>strutils&#45;&gt;cmdline</title>
<path fill="none" stroke="#000000" d="M144.6829,-661.1268C235.5071,-655.7665 411.4529,-645.3824 496.6237,-640.3558"/>
<polygon fill="#000000" stroke="#000000" points="497.018,-643.8387 506.7944,-639.7555 496.6056,-636.8509 497.018,-643.8387"/>
</g>
<!-- processTemplate -->
<g id="node13" class="node">
<title>processTemplate</title>
<ellipse fill="none" stroke="#000000" cx="545.1518" cy="-745.4917" rx="69.306" ry="18"/>
<text text-anchor="middle" x="545.1518" y="-741.2917" font-family="Times,serif" font-size="14.00" fill="#000000">processTemplate</text>
</g>
<!-- strutils&#45;&gt;processTemplate -->
<g id="edge16" class="edge">
<title>strutils&#45;&gt;processTemplate</title>
<path fill="none" stroke="#000000" d="M140.1465,-673.7835C223.3953,-688.5231 385.6776,-717.256 477.5331,-733.5195"/>
<polygon fill="#000000" stroke="#000000" points="477.1015,-736.9975 487.5586,-735.2946 478.322,-730.1047 477.1015,-736.9975"/>
</g>
<!-- env -->
<g id="node14" class="node">
<title>env</title>
<ellipse fill="none" stroke="#000000" cx="545.1518" cy="-1123.4917" rx="27" ry="18"/>
<text text-anchor="middle" x="545.1518" y="-1119.2917" font-family="Times,serif" font-size="14.00" fill="#000000">env</text>
</g>
<!-- strutils&#45;&gt;env -->
<g id="edge21" class="edge">
<title>strutils&#45;&gt;env</title>
<path fill="none" stroke="#000000" d="M106.0198,-686.2345C178.3057,-771.7895 440.5236,-1081.3212 463.3343,-1096.4917 476.9958,-1105.5775 493.9707,-1111.8341 508.9115,-1116.018"/>
<polygon fill="#000000" stroke="#000000" points="508.3067,-1119.4767 518.8645,-1118.5927 510.0598,-1112.6997 508.3067,-1119.4767"/>
</g>
<!-- tempFile -->
<g id="node16" class="node">
<title>tempFile</title>
<ellipse fill="none" stroke="#000000" cx="545.1518" cy="-853.4917" rx="41.5938" ry="18"/>
<text text-anchor="middle" x="545.1518" y="-849.2917" font-family="Times,serif" font-size="14.00" fill="#000000">tempFile</text>
</g>
<!-- strutils&#45;&gt;tempFile -->
<g id="edge24" class="edge">
<title>strutils&#45;&gt;tempFile</title>
<path fill="none" stroke="#000000" d="M124.809,-681.8113C191.7345,-712.7251 337.3425,-778.6441 463.3343,-826.4917 475.5819,-831.143 489.026,-835.772 501.4142,-839.8496"/>
<polygon fill="#000000" stroke="#000000" points="500.4878,-843.2286 511.08,-842.9914 502.6517,-836.5715 500.4878,-843.2286"/>
</g>
<!-- matches -->
<g id="node18" class="node">
<title>matches</title>
<ellipse fill="none" stroke="#000000" cx="545.1518" cy="-475.4917" rx="39.1627" ry="18"/>
<text text-anchor="middle" x="545.1518" y="-471.2917" font-family="Times,serif" font-size="14.00" fill="#000000">matches</text>
</g>
<!-- strutils&#45;&gt;matches -->
<g id="edge26" class="edge">
<title>strutils&#45;&gt;matches</title>
<path fill="none" stroke="#000000" d="M124.809,-647.1722C191.7345,-616.2584 337.3425,-550.3394 463.3343,-502.4917 475.9129,-497.7148 489.7535,-492.9613 502.4163,-488.8045"/>
<polygon fill="#000000" stroke="#000000" points="503.8389,-492.0227 512.2725,-485.6098 501.6805,-485.3638 503.8389,-492.0227"/>
</g>
<!-- runCommand -->
<g id="node22" class="node">
<title>runCommand</title>
<ellipse fill="none" stroke="#000000" cx="545.1518" cy="-583.4917" rx="58.9841" ry="18"/>
<text text-anchor="middle" x="545.1518" y="-579.2917" font-family="Times,serif" font-size="14.00" fill="#000000">runCommand</text>
</g>
<!-- strutils&#45;&gt;runCommand -->
<g id="edge36" class="edge">
<title>strutils&#45;&gt;runCommand</title>
<path fill="none" stroke="#000000" d="M140.1465,-655.2C225.3449,-640.1152 393.3218,-610.374 483.8687,-594.3422"/>
<polygon fill="#000000" stroke="#000000" points="484.7468,-597.7413 493.9834,-592.5514 483.5264,-590.8485 484.7468,-597.7413"/>
</g>
<!-- vartypes -->
<g id="node23" class="node">
<title>vartypes</title>
<ellipse fill="none" stroke="#000000" cx="545.1518" cy="-421.4917" rx="40.1317" ry="18"/>
<text text-anchor="middle" x="545.1518" y="-417.2917" font-family="Times,serif" font-size="14.00" fill="#000000">vartypes</text>
</g>
<!-- strutils&#45;&gt;vartypes -->
<g id="edge38" class="edge">
<title>strutils&#45;&gt;vartypes</title>
<path fill="none" stroke="#000000" d="M117.2418,-644.6859C179.262,-603.7923 328.3681,-508.8098 463.3343,-448.4917 475.4029,-443.0981 488.8895,-438.2107 501.3767,-434.1228"/>
<polygon fill="#000000" stroke="#000000" points="502.6615,-437.3871 511.1308,-431.0214 500.5404,-430.7162 502.6615,-437.3871"/>
</g>
<!-- variables -->
<g id="node26" class="node">
<title>variables</title>
<ellipse fill="none" stroke="#000000" cx="545.1518" cy="-529.4917" rx="42.0524" ry="18"/>
<text text-anchor="middle" x="545.1518" y="-525.2917" font-family="Times,serif" font-size="14.00" fill="#000000">variables</text>
</g>
<!-- strutils&#45;&gt;variables -->
<g id="edge41" class="edge">
<title>strutils&#45;&gt;variables</title>
<path fill="none" stroke="#000000" d="M134.0508,-650.8043C222.3282,-624.7544 413.4326,-568.361 500.4142,-542.6934"/>
<polygon fill="#000000" stroke="#000000" points="501.6429,-545.9801 510.2435,-539.7929 499.6617,-539.2663 501.6429,-545.9801"/>
</g>
<!-- funtypes -->
<g id="node27" class="node">
<title>funtypes</title>
<ellipse fill="none" stroke="#000000" cx="545.1518" cy="-691.4917" rx="40.6248" ry="18"/>
<text text-anchor="middle" x="545.1518" y="-687.2917" font-family="Times,serif" font-size="14.00" fill="#000000">funtypes</text>
</g>
<!-- strutils&#45;&gt;funtypes -->
<g id="edge44" class="edge">
<title>strutils&#45;&gt;funtypes</title>
<path fill="none" stroke="#000000" d="M144.6829,-667.8567C234.909,-673.1817 409.1393,-683.4645 494.9293,-688.5277"/>
<polygon fill="#000000" stroke="#000000" points="494.7527,-692.0233 504.9415,-689.1186 495.1651,-685.0354 494.7527,-692.0233"/>
</g>
<!-- runFunction -->
<g id="node28" class="node">
<title>runFunction</title>
<ellipse fill="none" stroke="#000000" cx="545.1518" cy="-313.4917" rx="53.1797" ry="18"/>
<text text-anchor="middle" x="545.1518" y="-309.2917" font-family="Times,serif" font-size="14.00" fill="#000000">runFunction</text>
</g>
<!-- strutils&#45;&gt;runFunction -->
<g id="edge47" class="edge">
<title>strutils&#45;&gt;runFunction</title>
<path fill="none" stroke="#000000" d="M106.6367,-643.0801C158.3256,-585.9583 308.1968,-428.3353 463.3343,-340.4917 472.409,-335.3534 482.6092,-331.0112 492.6488,-327.4127"/>
<polygon fill="#000000" stroke="#000000" points="493.8313,-330.7076 502.1832,-324.1887 491.5889,-324.0765 493.8313,-330.7076"/>
</g>
<!-- unicodes -->
<g id="node32" class="node">
<title>unicodes</title>
<ellipse fill="none" stroke="#000000" cx="545.1518" cy="-259.4917" rx="41.5852" ry="18"/>
<text text-anchor="middle" x="545.1518" y="-255.2917" font-family="Times,serif" font-size="14.00" fill="#000000">unicodes</text>
</g>
<!-- strutils&#45;&gt;unicodes -->
<g id="edge52" class="edge">
<title>strutils&#45;&gt;unicodes</title>
<path fill="none" stroke="#000000" d="M106.5318,-643.0387C170.2968,-570.9354 378.5335,-338.9071 463.3343,-286.4917 473.9704,-279.9176 486.3843,-274.7579 498.2808,-270.7899"/>
<polygon fill="#000000" stroke="#000000" points="499.5944,-274.0468 508.1019,-267.7323 497.5135,-267.3632 499.5944,-274.0468"/>
</g>
<!-- signatures -->
<g id="node33" class="node">
<title>signatures</title>
<ellipse fill="none" stroke="#000000" cx="545.1518" cy="-367.4917" rx="45.9286" ry="18"/>
<text text-anchor="middle" x="545.1518" y="-363.2917" font-family="Times,serif" font-size="14.00" fill="#000000">signatures</text>
</g>
<!-- strutils&#45;&gt;signatures -->
<g id="edge55" class="edge">
<title>strutils&#45;&gt;signatures</title>
<path fill="none" stroke="#000000" d="M111.0407,-643.7135C167.6984,-594.2779 318.3981,-468.2905 463.3343,-394.4917 473.85,-389.1374 485.6544,-384.519 496.9547,-380.6914"/>
<polygon fill="#000000" stroke="#000000" points="498.2747,-383.943 506.7104,-377.5328 496.1185,-377.2833 498.2747,-383.943"/>
</g>
<!-- replacement -->
<g id="node36" class="node">
<title>replacement</title>
<ellipse fill="none" stroke="#000000" cx="545.1518" cy="-1177.4917" rx="53.1281" ry="18"/>
<text text-anchor="middle" x="545.1518" y="-1173.2917" font-family="Times,serif" font-size="14.00" fill="#000000">replacement</text>
</g>
<!-- strutils&#45;&gt;replacement -->
<g id="edge63" class="edge">
<title>strutils&#45;&gt;replacement</title>
<path fill="none" stroke="#000000" d="M106.11,-685.9581C124.0677,-707.0044 151.9908,-740.1161 175.3343,-769.4917 307.3949,-935.6777 290.7143,-1026.9599 463.3343,-1150.4917 471.4538,-1156.3023 480.9016,-1160.9183 490.4329,-1164.5678"/>
<polygon fill="#000000" stroke="#000000" points="489.3512,-1167.8974 499.9461,-1167.9035 491.6675,-1161.2917 489.3512,-1167.8974"/>
</g>
<!-- options -->
<g id="node3" class="node">
<title>options</title>
<ellipse fill="none" stroke="#000000" cx="87.6672" cy="-529.4917" rx="61.0788" ry="22.7556"/>
<text text-anchor="middle" x="87.6672" y="-522.2917" font-family="Times,serif" font-size="24.00" fill="#000000">options</text>
</g>
<!-- parseCommandLine -->
<g id="node4" class="node">
<title>parseCommandLine</title>
<ellipse fill="none" stroke="#000000" cx="545.1518" cy="-151.4917" rx="81.6354" ry="18"/>
<text text-anchor="middle" x="545.1518" y="-147.2917" font-family="Times,serif" font-size="14.00" fill="#000000">parseCommandLine</text>
</g>
<!-- options&#45;&gt;parseCommandLine -->
<g id="edge2" class="edge">
<title>options&#45;&gt;parseCommandLine</title>
<path fill="none" stroke="#000000" d="M120.4576,-510.0924C137.4367,-499.487 158.1523,-485.6508 175.3343,-471.4917 316.2498,-355.3683 308.2773,-274.9238 463.3343,-178.4917 469.1375,-174.8827 475.4752,-171.7018 481.9719,-168.9114"/>
<polygon fill="#000000" stroke="#000000" points="483.5617,-172.0458 491.5602,-165.0978 480.9747,-165.5414 483.5617,-172.0458"/>
</g>
<!-- regexes -->
<g id="node9" class="node">
<title>regexes</title>
<ellipse fill="none" stroke="#000000" cx="545.1518" cy="-97.4917" rx="37.2248" ry="18"/>
<text text-anchor="middle" x="545.1518" y="-93.2917" font-family="Times,serif" font-size="14.00" fill="#000000">regexes</text>
</g>
<!-- options&#45;&gt;regexes -->
<g id="edge7" class="edge">
<title>options&#45;&gt;regexes</title>
<path fill="none" stroke="#000000" d="M121.3806,-510.4178C138.4141,-500.0021 158.8981,-486.2382 175.3343,-471.4917 324.5137,-337.6486 297.7388,-237.3927 463.3343,-124.4917 474.5615,-116.8372 488.1234,-111.2152 500.9492,-107.1472"/>
<polygon fill="#000000" stroke="#000000" points="501.9499,-110.5012 510.5629,-104.3313 499.9822,-103.7835 501.9499,-110.5012"/>
</g>
<!-- options&#45;&gt;processTemplate -->
<g id="edge14" class="edge">
<title>options&#45;&gt;processTemplate</title>
<path fill="none" stroke="#000000" d="M121.3199,-548.5465C186.1159,-584.7528 333.3076,-664.6725 463.3343,-718.4917 471.86,-722.0206 481.0276,-725.4165 490.0327,-728.5387"/>
<polygon fill="#000000" stroke="#000000" points="489.1081,-731.9208 499.7024,-731.8125 491.3529,-725.2905 489.1081,-731.9208"/>
</g>
<!-- options&#45;&gt;env -->
<g id="edge20" class="edge">
<title>options&#45;&gt;env</title>
<path fill="none" stroke="#000000" d="M107.8195,-551.2083C126.2686,-571.5318 153.8815,-603.0886 175.3343,-632.4917 318.3933,-828.5675 272.64,-946.3342 463.3343,-1096.4917 476.3201,-1106.7171 493.3393,-1113.1456 508.4904,-1117.1498"/>
<polygon fill="#000000" stroke="#000000" points="508.0706,-1120.6474 518.6086,-1119.5515 509.6873,-1113.8366 508.0706,-1120.6474"/>
</g>
<!-- options&#45;&gt;tempFile -->
<g id="edge25" class="edge">
<title>options&#45;&gt;tempFile</title>
<path fill="none" stroke="#000000" d="M108.9842,-550.9294C163.378,-604.5409 313.6284,-745.8957 463.3343,-826.4917 474.4469,-832.4744 487.1221,-837.4464 499.1227,-841.424"/>
<polygon fill="#000000" stroke="#000000" points="498.406,-844.8676 508.9955,-844.5318 500.5078,-838.1906 498.406,-844.8676"/>
</g>
<!-- options&#45;&gt;matches -->
<g id="edge28" class="edge">
<title>options&#45;&gt;matches</title>
<path fill="none" stroke="#000000" d="M146.0726,-522.5978C237.4118,-511.8164 412.3476,-491.1675 496.9597,-481.1802"/>
<polygon fill="#000000" stroke="#000000" points="497.5423,-484.6358 507.063,-479.9876 496.7216,-477.6841 497.5423,-484.6358"/>
</g>
<!-- readlines -->
<g id="node19" class="node">
<title>readlines</title>
<ellipse fill="none" stroke="#000000" cx="545.1518" cy="-961.4917" rx="42.0524" ry="18"/>
<text text-anchor="middle" x="545.1518" y="-957.2917" font-family="Times,serif" font-size="14.00" fill="#000000">readlines</text>
</g>
<!-- options&#45;&gt;readlines -->
<g id="edge30" class="edge">
<title>options&#45;&gt;readlines</title>
<path fill="none" stroke="#000000" d="M106.6508,-551.1946C176.7506,-631.1605 419.2535,-906.1843 463.3343,-934.4917 473.7572,-941.185 485.9985,-946.3733 497.7909,-950.3299"/>
<polygon fill="#000000" stroke="#000000" points="496.9527,-953.7347 507.5413,-953.3697 499.0362,-947.0519 496.9527,-953.7347"/>
</g>
<!-- parseCmdLine -->
<g id="node20" class="node">
<title>parseCmdLine</title>
<ellipse fill="none" stroke="#000000" cx="545.1518" cy="-205.4917" rx="62.3407" ry="18"/>
<text text-anchor="middle" x="545.1518" y="-201.2917" font-family="Times,serif" font-size="14.00" fill="#000000">parseCmdLine</text>
</g>
<!-- options&#45;&gt;parseCmdLine -->
<g id="edge31" class="edge">
<title>options&#45;&gt;parseCmdLine</title>
<path fill="none" stroke="#000000" d="M119.0622,-509.8913C136.0281,-499.0096 157.1643,-484.9801 175.3343,-471.4917 308.891,-372.3466 317.8204,-313.0701 463.3343,-232.4917 471.3104,-228.075 480.1266,-224.2308 488.9306,-220.937"/>
<polygon fill="#000000" stroke="#000000" points="490.176,-224.2091 498.4389,-217.5778 487.8441,-217.6089 490.176,-224.2091"/>
</g>
<!-- collectCommand -->
<g id="node21" class="node">
<title>collectCommand</title>
<ellipse fill="none" stroke="#000000" cx="545.1518" cy="-907.4917" rx="70.5427" ry="18"/>
<text text-anchor="middle" x="545.1518" y="-903.2917" font-family="Times,serif" font-size="14.00" fill="#000000">collectCommand</text>
</g>
<!-- options&#45;&gt;collectCommand -->
<g id="edge34" class="edge">
<title>options&#45;&gt;collectCommand</title>
<path fill="none" stroke="#000000" d="M108.5138,-551.2842C174.832,-620.228 381.3705,-831.9037 463.3343,-880.4917 470.1196,-884.5141 477.5813,-888.025 485.1527,-891.0644"/>
<polygon fill="#000000" stroke="#000000" points="484.1669,-894.4327 494.7592,-894.6653 486.6239,-887.878 484.1669,-894.4327"/>
</g>
<!-- options&#45;&gt;runCommand -->
<g id="edge35" class="edge">
<title>options&#45;&gt;runCommand</title>
<path fill="none" stroke="#000000" d="M146.0726,-536.3857C231.7759,-546.5019 391.078,-565.3054 480.3067,-575.8376"/>
<polygon fill="#000000" stroke="#000000" points="479.9614,-579.3211 490.3028,-577.0175 480.782,-572.3693 479.9614,-579.3211"/>
</g>
<!-- parseNumber -->
<g id="node24" class="node">
<title>parseNumber</title>
<ellipse fill="none" stroke="#000000" cx="545.1518" cy="-38.4917" rx="57.9892" ry="18"/>
<text text-anchor="middle" x="545.1518" y="-34.2917" font-family="Times,serif" font-size="14.00" fill="#000000">parseNumber</text>
</g>
<!-- options&#45;&gt;parseNumber -->
<g id="edge39" class="edge">
<title>options&#45;&gt;parseNumber</title>
<path fill="none" stroke="#000000" d="M122.2448,-510.6337C139.306,-500.3703 159.555,-486.6771 175.3343,-471.4917 333.4379,-319.3392 290.043,-205.0922 463.3343,-70.4917 471.9111,-63.8299 482.0462,-58.3984 492.2094,-54.0281"/>
<polygon fill="#000000" stroke="#000000" points="493.5226,-57.2725 501.5068,-50.3081 490.9222,-50.7734 493.5226,-57.2725"/>
</g>
<!-- options&#45;&gt;variables -->
<g id="edge42" class="edge">
<title>options&#45;&gt;variables</title>
<path fill="none" stroke="#000000" d="M149.3656,-529.4917C240.0904,-529.4917 407.9019,-529.4917 492.8989,-529.4917"/>
<polygon fill="#000000" stroke="#000000" points="493.0906,-532.9918 503.0906,-529.4917 493.0905,-525.9918 493.0906,-532.9918"/>
</g>
<!-- options&#45;&gt;runFunction -->
<g id="edge45" class="edge">
<title>options&#45;&gt;runFunction</title>
<path fill="none" stroke="#000000" d="M121.3199,-510.437C186.1159,-474.2307 333.3076,-394.311 463.3343,-340.4917 473.4926,-336.2871 484.5621,-332.2712 495.1823,-328.6823"/>
<polygon fill="#000000" stroke="#000000" points="496.3739,-331.9747 504.7702,-325.5132 494.177,-325.3284 496.3739,-331.9747"/>
</g>
<!-- options&#45;&gt;signatures -->
<g id="edge54" class="edge">
<title>options&#45;&gt;signatures</title>
<path fill="none" stroke="#000000" d="M131.2053,-513.4263C201.0649,-487.7432 342.6103,-436.0951 463.3343,-394.4917 475.1559,-390.4178 487.981,-386.1256 499.8939,-382.1919"/>
<polygon fill="#000000" stroke="#000000" points="501.2384,-385.4342 509.644,-378.9847 499.051,-378.7847 501.2384,-385.4342"/>
</g>
<!-- options&#45;&gt;replacement -->
<g id="edge60" class="edge">
<title>options&#45;&gt;replacement</title>
<path fill="none" stroke="#000000" d="M108.1523,-550.9715C126.831,-571.1317 154.5943,-602.5816 175.3343,-632.4917 325.4329,-848.9558 260.3561,-982.6045 463.3343,-1150.4917 470.7768,-1156.6475 479.67,-1161.4157 488.8086,-1165.1046"/>
<polygon fill="#000000" stroke="#000000" points="487.7761,-1168.4532 498.3703,-1168.5711 490.162,-1161.8723 487.7761,-1168.4532"/>
</g>
<!-- tables -->
<g id="node5" class="node">
<title>tables</title>
<ellipse fill="none" stroke="#000000" cx="87.6672" cy="-439.4917" rx="50.796" ry="22.7556"/>
<text text-anchor="middle" x="87.6672" y="-432.2917" font-family="Times,serif" font-size="24.00" fill="#000000">tables</text>
</g>
<!-- tables&#45;&gt;parseCommandLine -->
<g id="edge3" class="edge">
<title>tables&#45;&gt;parseCommandLine</title>
<path fill="none" stroke="#000000" d="M130.3545,-426.9966C145.0614,-421.897 161.3422,-415.3345 175.3343,-407.4917 317.9857,-327.5336 319.4515,-256.212 463.3343,-178.4917 469.7583,-175.0217 476.7072,-171.8933 483.7471,-169.1025"/>
<polygon fill="#000000" stroke="#000000" points="485.2229,-172.2874 493.3628,-165.5056 482.7704,-165.7311 485.2229,-172.2874"/>
</g>
<!-- tables&#45;&gt;regexes -->
<g id="edge8" class="edge">
<title>tables&#45;&gt;regexes</title>
<path fill="none" stroke="#000000" d="M131.2874,-427.659C145.9158,-422.6473 161.9095,-415.9706 175.3343,-407.4917 327.0615,-311.6642 310.1289,-217.9378 463.3343,-124.4917 474.935,-117.416 488.6053,-111.9621 501.4156,-107.87"/>
<polygon fill="#000000" stroke="#000000" points="502.4195,-111.223 510.9955,-105.0018 500.4118,-104.5171 502.4195,-111.223"/>
</g>
<!-- tables&#45;&gt;cmdline -->
<g id="edge10" class="edge">
<title>tables&#45;&gt;cmdline</title>
<path fill="none" stroke="#000000" d="M121.5762,-456.4325C186.8075,-488.6824 334.7071,-560.1641 463.3343,-610.4917 476.0995,-615.4863 490.2099,-620.365 503.0667,-624.5706"/>
<polygon fill="#000000" stroke="#000000" points="502.0193,-627.9103 512.6109,-627.6463 504.1665,-621.2477 502.0193,-627.9103"/>
</g>
<!-- tables&#45;&gt;processTemplate -->
<g id="edge15" class="edge">
<title>tables&#45;&gt;processTemplate</title>
<path fill="none" stroke="#000000" d="M116.8356,-458.0597C134.0565,-469.202 156.1673,-483.8227 175.3343,-497.4917 306.6948,-591.1722 320.7213,-643.0389 463.3343,-718.4917 470.8416,-722.4637 479.0437,-726.0019 487.2631,-729.1035"/>
<polygon fill="#000000" stroke="#000000" points="486.2848,-732.4706 496.8793,-732.5437 488.6427,-725.8797 486.2848,-732.4706"/>
</g>
<!-- tables&#45;&gt;matches -->
<g id="edge27" class="edge">
<title>tables&#45;&gt;matches</title>
<path fill="none" stroke="#000000" d="M137.9347,-443.4473C226.3726,-450.4066 408.6944,-464.7537 496.1951,-471.6393"/>
<polygon fill="#000000" stroke="#000000" points="496.1394,-475.1456 506.3831,-472.441 496.6886,-468.1672 496.1394,-475.1456"/>
</g>
<!-- tables&#45;&gt;parseCmdLine -->
<g id="edge32" class="edge">
<title>tables&#45;&gt;parseCmdLine</title>
<path fill="none" stroke="#000000" d="M129.3859,-426.1439C144.1596,-420.9281 160.731,-414.51 175.3343,-407.4917 310.3311,-342.6129 327.3407,-295.2541 463.3343,-232.4917 472.1038,-228.4445 481.6546,-224.7213 491.0347,-221.416"/>
<polygon fill="#000000" stroke="#000000" points="492.3671,-224.6598 500.708,-218.1268 490.1136,-218.0324 492.3671,-224.6598"/>
</g>
<!-- tables&#45;&gt;vartypes -->
<g id="edge37" class="edge">
<title>tables&#45;&gt;vartypes</title>
<path fill="none" stroke="#000000" d="M138.374,-437.4967C226.5655,-434.0267 407.1596,-426.9211 494.9776,-423.4659"/>
<polygon fill="#000000" stroke="#000000" points="495.3601,-426.9536 505.2147,-423.0631 495.0848,-419.959 495.3601,-426.9536"/>
</g>
<!-- tables&#45;&gt;variables -->
<g id="edge43" class="edge">
<title>tables&#45;&gt;variables</title>
<path fill="none" stroke="#000000" d="M134.4761,-448.7004C221.7699,-465.8735 408.5449,-502.6174 496.9128,-520.0018"/>
<polygon fill="#000000" stroke="#000000" points="496.4466,-523.4771 506.9342,-521.9733 497.7979,-516.6087 496.4466,-523.4771"/>
</g>
<!-- tables&#45;&gt;runFunction -->
<g id="edge46" class="edge">
<title>tables&#45;&gt;runFunction</title>
<path fill="none" stroke="#000000" d="M131.1186,-427.5244C215.9282,-404.1662 403.1291,-352.6075 493.8588,-327.6188"/>
<polygon fill="#000000" stroke="#000000" points="494.9336,-330.9532 503.6453,-324.9234 493.0749,-324.2045 494.9336,-330.9532"/>
</g>
<!-- tables&#45;&gt;signatures -->
<g id="edge53" class="edge">
<title>tables&#45;&gt;signatures</title>
<path fill="none" stroke="#000000" d="M135.7614,-431.9226C222.1316,-418.3294 402.8432,-389.8886 492.4501,-375.7861"/>
<polygon fill="#000000" stroke="#000000" points="493.0595,-379.2333 502.3938,-374.2211 491.9712,-372.3184 493.0595,-379.2333"/>
</g>
<!-- readjson -->
<g id="node34" class="node">
<title>readjson</title>
<ellipse fill="none" stroke="#000000" cx="545.1518" cy="-1231.4917" rx="40.1317" ry="18"/>
<text text-anchor="middle" x="545.1518" y="-1227.2917" font-family="Times,serif" font-size="14.00" fill="#000000">readjson</text>
</g>
<!-- tables&#45;&gt;readjson -->
<g id="edge59" class="edge">
<title>tables&#45;&gt;readjson</title>
<path fill="none" stroke="#000000" d="M122.5462,-456.1323C140.3117,-466.0634 161.1055,-480.1309 175.3343,-497.4917 390.4086,-759.9087 215.3918,-972.8797 463.3343,-1204.4917 472.6493,-1213.1932 484.829,-1219.0934 496.9341,-1223.0932"/>
<polygon fill="#000000" stroke="#000000" points="495.9895,-1226.4634 506.5699,-1225.9106 497.9541,-1219.7448 495.9895,-1226.4634"/>
</g>
<!-- re -->
<g id="node8" class="node">
<title>re</title>
<polygon fill="#98fb98" stroke="#000000" points="114.6672,-93.3499 114.6672,-113.6336 98.8509,-127.9764 76.4834,-127.9764 60.6672,-113.6336 60.6672,-93.3499 76.4834,-79.0071 98.8509,-79.0071 114.6672,-93.3499"/>
<polygon fill="none" stroke="#000000" points="118.6672,-91.5783 118.6672,-115.4052 100.3948,-131.9752 74.9395,-131.9752 56.6672,-115.4052 56.6672,-91.5783 74.9395,-75.0083 100.3948,-75.0083 118.6672,-91.5783"/>
<text text-anchor="middle" x="87.6672" y="-96.2917" font-family="Times,serif" font-size="24.00" fill="#000000">re</text>
</g>
<!-- re&#45;&gt;regexes -->
<g id="edge6" class="edge">
<title>re&#45;&gt;regexes</title>
<path fill="none" stroke="#000000" d="M118.7523,-103.0841C197.2583,-102.0544 403.9214,-99.344 497.683,-98.1143"/>
<polygon fill="#000000" stroke="#000000" points="497.7857,-101.6134 507.7389,-97.9824 497.6939,-94.614 497.7857,-101.6134"/>
</g>
<!-- os -->
<g id="node10" class="node">
<title>os</title>
<ellipse fill="none" stroke="#000000" cx="87.6672" cy="-875.4917" rx="27" ry="22.7556"/>
<text text-anchor="middle" x="87.6672" y="-868.2917" font-family="Times,serif" font-size="24.00" fill="#000000">os</text>
</g>
<!-- os&#45;&gt;statictea -->
<g id="edge64" class="edge">
<title>os&#45;&gt;statictea</title>
<path fill="none" stroke="#000000" d="M111.0576,-886.8711C169.6023,-915.1363 327.5074,-990.0393 463.3343,-1042.4917 475.886,-1047.3388 489.7187,-1052.1132 502.3824,-1056.2675"/>
<polygon fill="#000000" stroke="#000000" points="501.6492,-1059.7088 512.241,-1059.4558 503.8032,-1053.0485 501.6492,-1059.7088"/>
</g>
<!-- os&#45;&gt;cmdline -->
<g id="edge9" class="edge">
<title>os&#45;&gt;cmdline</title>
<path fill="none" stroke="#000000" d="M113.1754,-867.7263C130.9797,-861.9363 155.0852,-853.3493 175.3343,-843.4917 310.8393,-777.5259 326.8156,-728.3331 463.3343,-664.4917 475.4156,-658.8421 489.0065,-653.8525 501.5898,-649.7486"/>
<polygon fill="#000000" stroke="#000000" points="502.9317,-652.9955 511.4173,-646.6516 500.8277,-646.3192 502.9317,-652.9955"/>
</g>
<!-- os&#45;&gt;processTemplate -->
<g id="edge13" class="edge">
<title>os&#45;&gt;processTemplate</title>
<path fill="none" stroke="#000000" d="M113.2438,-868.2238C184.8306,-847.8815 388.4919,-790.0086 488.4321,-761.6094"/>
<polygon fill="#000000" stroke="#000000" points="489.69,-764.8906 498.3524,-758.7904 487.7765,-758.1571 489.69,-764.8906"/>
</g>
<!-- os&#45;&gt;env -->
<g id="edge18" class="edge">
<title>os&#45;&gt;env</title>
<path fill="none" stroke="#000000" d="M108.811,-890.1306C164.6152,-928.2691 321.3403,-1032.1838 463.3343,-1096.4917 478.2799,-1103.2605 495.4385,-1109.1856 510.1699,-1113.7474"/>
<polygon fill="#000000" stroke="#000000" points="509.3394,-1117.1525 519.9238,-1116.6814 511.3558,-1110.4492 509.3394,-1117.1525"/>
</g>
<!-- os&#45;&gt;tempFile -->
<g id="edge22" class="edge">
<title>os&#45;&gt;tempFile</title>
<path fill="none" stroke="#000000" d="M114.9149,-874.1814C189.2463,-870.6069 396.4461,-860.6429 493.6156,-855.9701"/>
<polygon fill="#000000" stroke="#000000" points="493.967,-859.4573 503.7873,-855.4809 493.6307,-852.4654 493.967,-859.4573"/>
</g>
<!-- os&#45;&gt;runFunction -->
<g id="edge49" class="edge">
<title>os&#45;&gt;runFunction</title>
<path fill="none" stroke="#000000" d="M114.2714,-870.8347C133.0464,-866.4279 157.8671,-858.2158 175.3343,-843.4917 372.2975,-677.4599 263.8018,-503.4269 463.3343,-340.4917 470.8153,-334.3829 479.7276,-329.6379 488.8733,-325.9575"/>
<polygon fill="#000000" stroke="#000000" points="490.2268,-329.1899 498.4382,-322.495 487.844,-322.6079 490.2268,-329.1899"/>
</g>
<!-- os&#45;&gt;readjson -->
<g id="edge57" class="edge">
<title>os&#45;&gt;readjson</title>
<path fill="none" stroke="#000000" d="M105.48,-892.8236C168.5234,-953.8822 381.6569,-1157.8337 463.3343,-1204.4917 474.6076,-1210.9316 487.6418,-1216.1083 499.9469,-1220.1382"/>
<polygon fill="#000000" stroke="#000000" points="499.0238,-1223.5162 509.6115,-1223.1265 501.0916,-1216.8286 499.0238,-1223.5162"/>
</g>
<!-- streams -->
<g id="node12" class="node">
<title>streams</title>
<ellipse fill="none" stroke="#000000" cx="87.6672" cy="-997.4917" rx="63.3073" ry="22.7556"/>
<text text-anchor="middle" x="87.6672" y="-990.2917" font-family="Times,serif" font-size="24.00" fill="#000000">streams</text>
</g>
<!-- streams&#45;&gt;processTemplate -->
<g id="edge12" class="edge">
<title>streams&#45;&gt;processTemplate</title>
<path fill="none" stroke="#000000" d="M116.631,-977.0783C178.1009,-934.4589 327.1521,-834.8148 463.3343,-772.4917 471.4377,-768.7833 480.2007,-765.3386 488.8774,-762.2357"/>
<polygon fill="#000000" stroke="#000000" points="490.2858,-765.4523 498.5973,-758.8819 488.0025,-758.8351 490.2858,-765.4523"/>
</g>
<!-- streams&#45;&gt;env -->
<g id="edge17" class="edge">
<title>streams&#45;&gt;env</title>
<path fill="none" stroke="#000000" d="M137.9347,-1011.3364C231.3445,-1037.0632 429.4908,-1091.6365 510.02,-1113.8158"/>
<polygon fill="#000000" stroke="#000000" points="509.5649,-1117.3207 520.1353,-1116.6017 511.4237,-1110.572 509.5649,-1117.3207"/>
</g>
<!-- streams&#45;&gt;readlines -->
<g id="edge29" class="edge">
<title>streams&#45;&gt;readlines</title>
<path fill="none" stroke="#000000" d="M149.3656,-992.6366C240.3246,-985.4789 408.7685,-972.2239 493.5553,-965.5519"/>
<polygon fill="#000000" stroke="#000000" points="494.0216,-969.0262 503.7161,-964.7524 493.4724,-962.0477 494.0216,-969.0262"/>
</g>
<!-- streams&#45;&gt;collectCommand -->
<g id="edge33" class="edge">
<title>streams&#45;&gt;collectCommand</title>
<path fill="none" stroke="#000000" d="M143.3064,-986.546C227.9999,-969.8844 388.9393,-938.2231 479.3251,-920.4417"/>
<polygon fill="#000000" stroke="#000000" points="480.0486,-923.8665 489.1849,-918.502 478.6973,-916.9982 480.0486,-923.8665"/>
</g>
<!-- streams&#45;&gt;readjson -->
<g id="edge56" class="edge">
<title>streams&#45;&gt;readjson</title>
<path fill="none" stroke="#000000" d="M118.8189,-1017.2637C181.9337,-1056.7277 330.2296,-1146.4522 463.3343,-1204.4917 475.4515,-1209.7754 488.9531,-1214.6287 501.4392,-1218.7192"/>
<polygon fill="#000000" stroke="#000000" points="500.5985,-1222.1247 511.1892,-1221.8297 502.7261,-1215.4559 500.5985,-1222.1247"/>
</g>
<!-- streams&#45;&gt;replacement -->
<g id="edge61" class="edge">
<title>streams&#45;&gt;replacement</title>
<path fill="none" stroke="#000000" d="M128.1704,-1015.0476C196.6505,-1044.49 339.9198,-1105.0561 463.3343,-1150.4917 473.8663,-1154.3692 485.253,-1158.2931 496.0886,-1161.9031"/>
<polygon fill="#000000" stroke="#000000" points="495.2513,-1165.3123 505.8444,-1165.1199 497.4433,-1158.6644 495.2513,-1165.3123"/>
</g>
<!-- times -->
<g id="node15" class="node">
<title>times</title>
<polygon fill="#98fb98" stroke="#000000" points="139.7481,-1092.3499 139.7481,-1112.6336 109.2398,-1126.9764 66.0945,-1126.9764 35.5862,-1112.6336 35.5862,-1092.3499 66.0945,-1078.0071 109.2398,-1078.0071 139.7481,-1092.3499"/>
<polygon fill="none" stroke="#000000" points="143.7511,-1089.8122 143.7511,-1115.1712 110.1347,-1130.9752 65.1997,-1130.9752 31.5832,-1115.1712 31.5832,-1089.8122 65.1997,-1074.0083 110.1347,-1074.0083 143.7511,-1089.8122"/>
<text text-anchor="middle" x="87.6672" y="-1095.2917" font-family="Times,serif" font-size="24.00" fill="#000000">times</text>
</g>
<!-- times&#45;&gt;env -->
<g id="edge19" class="edge">
<title>times&#45;&gt;env</title>
<path fill="none" stroke="#000000" d="M143.7638,-1105.0668C238.5268,-1109.4167 427.8019,-1118.105 507.9369,-1121.7835"/>
<polygon fill="#000000" stroke="#000000" points="507.9021,-1125.2855 518.0522,-1122.2478 508.2232,-1118.2928 507.9021,-1125.2855"/>
</g>
<!-- random -->
<g id="node17" class="node">
<title>random</title>
<polygon fill="#98fb98" stroke="#000000" points="155.889,-796.3499 155.889,-816.6336 115.9256,-830.9764 59.4087,-830.9764 19.4453,-816.6336 19.4453,-796.3499 59.4087,-782.0071 115.9256,-782.0071 155.889,-796.3499"/>
<polygon fill="none" stroke="#000000" points="159.8811,-793.5349 159.8811,-819.4486 116.6191,-834.9752 58.7152,-834.9752 15.4532,-819.4486 15.4532,-793.5349 58.7152,-778.0083 116.6191,-778.0083 159.8811,-793.5349"/>
<text text-anchor="middle" x="87.6672" y="-799.2917" font-family="Times,serif" font-size="24.00" fill="#000000">random</text>
</g>
<!-- random&#45;&gt;tempFile -->
<g id="edge23" class="edge">
<title>random&#45;&gt;tempFile</title>
<path fill="none" stroke="#000000" d="M159.9045,-813.9131C253.2298,-823.5009 413.3281,-839.9487 494.6144,-848.2997"/>
<polygon fill="#000000" stroke="#000000" points="494.295,-851.7853 504.6004,-849.3257 495.0104,-844.8219 494.295,-851.7853"/>
</g>
<!-- parseutils -->
<g id="node25" class="node">
<title>parseutils</title>
<polygon fill="#98fb98" stroke="#000000" points="170.4501,-18.3499 170.4501,-38.6336 121.957,-52.9764 53.3774,-52.9764 4.8843,-38.6336 4.8843,-18.3499 53.3774,-4.0071 121.957,-4.0071 170.4501,-18.3499"/>
<polygon fill="none" stroke="#000000" points="174.4567,-15.3642 174.4567,-41.6193 122.5382,-56.9752 52.7962,-56.9752 .8776,-41.6193 .8776,-15.3642 52.7962,-.0083 122.5382,-.0083 174.4567,-15.3642"/>
<text text-anchor="middle" x="87.6672" y="-21.2917" font-family="Times,serif" font-size="24.00" fill="#000000">parseutils</text>
</g>
<!-- parseutils&#45;&gt;parseNumber -->
<g id="edge40" class="edge">
<title>parseutils&#45;&gt;parseNumber</title>
<path fill="none" stroke="#000000" d="M174.5237,-30.3903C262.4986,-32.3133 396.7505,-35.2479 477.235,-37.0072"/>
<polygon fill="#000000" stroke="#000000" points="477.1849,-40.5068 487.2591,-37.2263 477.338,-33.5085 477.1849,-40.5068"/>
</g>
<!-- math -->
<g id="node29" class="node">
<title>math</title>
<polygon fill="#98fb98" stroke="#000000" points="136.6181,-360.3499 136.6181,-380.6336 107.9433,-394.9764 67.391,-394.9764 38.7162,-380.6336 38.7162,-360.3499 67.391,-346.0071 107.9433,-346.0071 136.6181,-360.3499"/>
<polygon fill="none" stroke="#000000" points="140.6162,-357.8787 140.6162,-383.1048 108.8873,-398.9752 66.447,-398.9752 34.7181,-383.1048 34.7181,-357.8787 66.447,-342.0083 108.8873,-342.0083 140.6162,-357.8787"/>
<text text-anchor="middle" x="87.6672" y="-363.2917" font-family="Times,serif" font-size="24.00" fill="#000000">math</text>
</g>
<!-- math&#45;&gt;runFunction -->
<g id="edge48" class="edge">
<title>math&#45;&gt;runFunction</title>
<path fill="none" stroke="#000000" d="M141.0418,-363.8416C226.8309,-353.1527 394.8673,-332.2163 484.8603,-321.0037"/>
<polygon fill="#000000" stroke="#000000" points="485.4177,-324.4614 494.9083,-319.7518 484.5522,-317.5151 485.4177,-324.4614"/>
</g>
<!-- algorithm -->
<g id="node30" class="node">
<title>algorithm</title>
<polygon fill="#98fb98" stroke="#000000" points="171.4941,-285.3499 171.4941,-305.6336 122.3894,-319.9764 52.9449,-319.9764 3.8402,-305.6336 3.8402,-285.3499 52.9449,-271.0071 122.3894,-271.0071 171.4941,-285.3499"/>
<polygon fill="none" stroke="#000000" points="175.5018,-282.3538 175.5018,-308.6297 122.964,-323.9752 52.3704,-323.9752 -.1675,-308.6297 -.1675,-282.3538 52.3704,-267.0083 122.964,-267.0083 175.5018,-282.3538"/>
<text text-anchor="middle" x="87.6672" y="-288.2917" font-family="Times,serif" font-size="24.00" fill="#000000">algorithm</text>
</g>
<!-- algorithm&#45;&gt;runFunction -->
<g id="edge50" class="edge">
<title>algorithm&#45;&gt;runFunction</title>
<path fill="none" stroke="#000000" d="M175.604,-298.9517C265.2753,-302.4798 402.1958,-307.8671 481.7697,-310.9979"/>
<polygon fill="#000000" stroke="#000000" points="482.0016,-314.5097 492.1315,-311.4056 482.2769,-307.5151 482.0016,-314.5097"/>
</g>
<!-- unicode -->
<g id="node31" class="node">
<title>unicode</title>
<polygon fill="#98fb98" stroke="#000000" points="157.9587,-210.3499 157.9587,-230.6336 116.7829,-244.9764 58.5514,-244.9764 17.3756,-230.6336 17.3756,-210.3499 58.5514,-196.0071 116.7829,-196.0071 157.9587,-210.3499"/>
<polygon fill="none" stroke="#000000" points="161.953,-207.5072 161.953,-233.4763 117.4579,-248.9752 57.8764,-248.9752 13.3814,-233.4763 13.3814,-207.5072 57.8764,-192.0083 117.4579,-192.0083 161.953,-207.5072"/>
<text text-anchor="middle" x="87.6672" y="-213.2917" font-family="Times,serif" font-size="24.00" fill="#000000">unicode</text>
</g>
<!-- unicode&#45;&gt;unicodes -->
<g id="edge51" class="edge">
<title>unicode&#45;&gt;unicodes</title>
<path fill="none" stroke="#000000" d="M162.1882,-226.8446C255.4781,-234.7974 412.8285,-248.2113 493.7246,-255.1076"/>
<polygon fill="#000000" stroke="#000000" points="493.8846,-258.6339 504.1457,-255.996 494.4792,-251.6592 493.8846,-258.6339"/>
</g>
<!-- json -->
<g id="node35" class="node">
<title>json</title>
<polygon fill="#98fb98" stroke="#000000" points="130.4119,-1242.3499 130.4119,-1262.6336 105.3726,-1276.9764 69.9617,-1276.9764 44.9224,-1262.6336 44.9224,-1242.3499 69.9617,-1228.0071 105.3726,-1228.0071 130.4119,-1242.3499"/>
<polygon fill="none" stroke="#000000" points="134.4006,-1240.0291 134.4006,-1264.9544 106.4317,-1280.9752 68.9026,-1280.9752 40.9337,-1264.9544 40.9337,-1240.0291 68.9026,-1224.0083 106.4317,-1224.0083 134.4006,-1240.0291"/>
<text text-anchor="middle" x="87.6672" y="-1245.2917" font-family="Times,serif" font-size="24.00" fill="#000000">json</text>
</g>
<!-- json&#45;&gt;readjson -->
<g id="edge58" class="edge">
<title>json&#45;&gt;readjson</title>
<path fill="none" stroke="#000000" d="M134.4761,-1250.3431C221.1128,-1246.3662 405.7384,-1237.8913 494.9004,-1233.7984"/>
<polygon fill="#000000" stroke="#000000" points="495.2012,-1237.2884 505.0302,-1233.3334 494.8802,-1230.2958 495.2012,-1237.2884"/>
</g>
<!-- strformat -->
<g id="node37" class="node">
<title>strformat</title>
<polygon fill="#98fb98" stroke="#000000" points="167.318,-1167.3499 167.318,-1187.6336 120.6596,-1201.9764 54.6747,-1201.9764 8.0163,-1187.6336 8.0163,-1167.3499 54.6747,-1153.0071 120.6596,-1153.0071 167.318,-1167.3499"/>
<polygon fill="none" stroke="#000000" points="171.3217,-1164.3967 171.3217,-1190.5868 121.2618,-1205.9752 54.0725,-1205.9752 4.0126,-1190.5868 4.0126,-1164.3967 54.0725,-1149.0083 121.2618,-1149.0083 171.3217,-1164.3967"/>
<text text-anchor="middle" x="87.6672" y="-1170.2917" font-family="Times,serif" font-size="24.00" fill="#000000">strformat</text>
</g>
<!-- strformat&#45;&gt;replacement -->
<g id="edge62" class="edge">
<title>strformat&#45;&gt;replacement</title>
<path fill="none" stroke="#000000" d="M171.3108,-1177.4917C260.82,-1177.4917 400.8139,-1177.4917 481.6822,-1177.4917"/>
<polygon fill="#000000" stroke="#000000" points="481.7254,-1180.9918 491.7254,-1177.4917 481.7253,-1173.9918 481.7254,-1180.9918"/>
</g>
</g>
</svg>
