<?xml version="1.0" encoding="UTF-8" standalone="no"?>
<!DOCTYPE svg PUBLIC "-//W3C//DTD SVG 1.1//EN"
 "http://www.w3.org/Graphics/SVG/1.1/DTD/svg11.dtd">
<!-- Generated by graphviz version 2.40.1 (20161225.0304)
 -->
<!-- Title: statictea Pages: 1 -->
<svg width="635pt" height="1454pt"
 viewBox="0.00 0.00 634.97 1454.12" xmlns="http://www.w3.org/2000/svg" xmlns:xlink="http://www.w3.org/1999/xlink">
<g id="graph0" class="graph" transform="scale(1 1) rotate(0) translate(4 1450.1192)">
<title>statictea</title>
<polygon fill="#ffffff" stroke="transparent" points="-4,4 -4,-1450.1192 630.9693,-1450.1192 630.9693,4 -4,4"/>
<!-- strutils -->
<g id="node1" class="node">
<title>strutils</title>
<ellipse fill="none" stroke="#000000" cx="87.6672" cy="-793.4917" rx="57.5374" ry="22.7556"/>
<text text-anchor="middle" x="87.6672" y="-786.2917" font-family="Times,serif" font-size="24.00" fill="#000000">strutils</text>
</g>
<!-- statictea -->
<g id="node2" class="node">
<title>statictea</title>
<ellipse fill="none" stroke="#000000" cx="545.1518" cy="-1171.4917" rx="39.154" ry="18"/>
<text text-anchor="middle" x="545.1518" y="-1167.2917" font-family="Times,serif" font-size="14.00" fill="#000000">statictea</text>
</g>
<!-- strutils&#45;&gt;statictea -->
<g id="edge1" class="edge">
<title>strutils&#45;&gt;statictea</title>
<path fill="none" stroke="#000000" d="M108.0502,-814.8021C173.8639,-883.2356 381.1785,-1095.7899 463.3343,-1144.4917 474.604,-1151.1724 487.7393,-1156.4422 500.1446,-1160.4845"/>
<polygon fill="#000000" stroke="#000000" points="499.3007,-1163.8864 509.8872,-1163.4667 501.3496,-1157.193 499.3007,-1163.8864"/>
</g>
<!-- warnings -->
<g id="node9" class="node">
<title>warnings</title>
<ellipse fill="none" stroke="#000000" cx="545.1518" cy="-901.4917" rx="42.5542" ry="18"/>
<text text-anchor="middle" x="545.1518" y="-897.2917" font-family="Times,serif" font-size="14.00" fill="#000000">warnings</text>
</g>
<!-- strutils&#45;&gt;warnings -->
<g id="edge6" class="edge">
<title>strutils&#45;&gt;warnings</title>
<path fill="none" stroke="#000000" d="M137.0607,-805.1522C225.737,-826.0864 410.7834,-869.7709 497.8893,-890.3343"/>
<polygon fill="#000000" stroke="#000000" points="497.2265,-893.774 507.7632,-892.6653 498.8349,-886.9613 497.2265,-893.774"/>
</g>
<!-- cmdline -->
<g id="node12" class="node">
<title>cmdline</title>
<ellipse fill="none" stroke="#000000" cx="545.1518" cy="-955.4917" rx="38.6869" ry="18"/>
<text text-anchor="middle" x="545.1518" y="-951.2917" font-family="Times,serif" font-size="14.00" fill="#000000">cmdline</text>
</g>
<!-- strutils&#45;&gt;cmdline -->
<g id="edge12" class="edge">
<title>strutils&#45;&gt;cmdline</title>
<path fill="none" stroke="#000000" d="M129.7934,-809.038C199.1433,-834.539 341.7913,-886.6061 463.3343,-928.4917 476.4065,-932.9966 490.7059,-937.7685 503.6419,-942.0273"/>
<polygon fill="#000000" stroke="#000000" points="502.6326,-945.3797 513.2254,-945.171 504.8145,-938.7284 502.6326,-945.3797"/>
</g>
<!-- processTemplate -->
<g id="node13" class="node">
<title>processTemplate</title>
<ellipse fill="none" stroke="#000000" cx="545.1518" cy="-739.4917" rx="69.306" ry="18"/>
<text text-anchor="middle" x="545.1518" y="-735.2917" font-family="Times,serif" font-size="14.00" fill="#000000">processTemplate</text>
</g>
<!-- strutils&#45;&gt;processTemplate -->
<g id="edge15" class="edge">
<title>strutils&#45;&gt;processTemplate</title>
<path fill="none" stroke="#000000" d="M142.8505,-786.9781C225.0842,-777.2715 379.918,-758.9954 471.6596,-748.1665"/>
<polygon fill="#000000" stroke="#000000" points="472.1832,-751.6291 481.7039,-746.9809 471.3625,-744.6774 472.1832,-751.6291"/>
</g>
<!-- env -->
<g id="node15" class="node">
<title>env</title>
<ellipse fill="none" stroke="#000000" cx="545.1518" cy="-1279.4917" rx="27" ry="18"/>
<text text-anchor="middle" x="545.1518" y="-1275.2917" font-family="Times,serif" font-size="14.00" fill="#000000">env</text>
</g>
<!-- strutils&#45;&gt;env -->
<g id="edge21" class="edge">
<title>strutils&#45;&gt;env</title>
<path fill="none" stroke="#000000" d="M106.2963,-815.0606C124.1523,-835.8091 151.7911,-868.1211 175.3343,-896.4917 305.2986,-1053.1045 295.9053,-1136.7948 463.3343,-1252.4917 476.8321,-1261.819 493.7835,-1268.1102 508.7511,-1272.2546"/>
<polygon fill="#000000" stroke="#000000" points="508.1754,-1275.7196 518.7295,-1274.7919 509.9004,-1268.9354 508.1754,-1275.7196"/>
</g>
<!-- tempFile -->
<g id="node17" class="node">
<title>tempFile</title>
<ellipse fill="none" stroke="#000000" cx="545.1518" cy="-1117.4917" rx="41.5938" ry="18"/>
<text text-anchor="middle" x="545.1518" y="-1113.2917" font-family="Times,serif" font-size="14.00" fill="#000000">tempFile</text>
</g>
<!-- strutils&#45;&gt;tempFile -->
<g id="edge24" class="edge">
<title>strutils&#45;&gt;tempFile</title>
<path fill="none" stroke="#000000" d="M108.9842,-814.9294C163.378,-868.5409 313.6284,-1009.8957 463.3343,-1090.4917 474.4469,-1096.4744 487.1221,-1101.4464 499.1227,-1105.424"/>
<polygon fill="#000000" stroke="#000000" points="498.406,-1108.8676 508.9955,-1108.5318 500.5078,-1102.1906 498.406,-1108.8676"/>
</g>
<!-- matches -->
<g id="node20" class="node">
<title>matches</title>
<ellipse fill="none" stroke="#000000" cx="545.1518" cy="-415.4917" rx="39.1627" ry="18"/>
<text text-anchor="middle" x="545.1518" y="-411.2917" font-family="Times,serif" font-size="14.00" fill="#000000">matches</text>
</g>
<!-- strutils&#45;&gt;matches -->
<g id="edge29" class="edge">
<title>strutils&#45;&gt;matches</title>
<path fill="none" stroke="#000000" d="M112.1286,-772.8328C129.8663,-757.7204 154.3275,-736.6064 175.3343,-717.4917 306.2352,-598.3816 311.5845,-533.5646 463.3343,-442.4917 474.5676,-435.7501 487.6914,-430.461 500.0973,-426.4198"/>
<polygon fill="#000000" stroke="#000000" points="501.3019,-429.7115 509.8428,-423.4423 499.2565,-423.017 501.3019,-429.7115"/>
</g>
<!-- runCommand -->
<g id="node22" class="node">
<title>runCommand</title>
<ellipse fill="none" stroke="#000000" cx="545.1518" cy="-577.4917" rx="58.9841" ry="18"/>
<text text-anchor="middle" x="545.1518" y="-573.2917" font-family="Times,serif" font-size="14.00" fill="#000000">runCommand</text>
</g>
<!-- strutils&#45;&gt;runCommand -->
<g id="edge35" class="edge">
<title>strutils&#45;&gt;runCommand</title>
<path fill="none" stroke="#000000" d="M120.5673,-774.8576C184.9702,-738.853 332.8017,-658.5204 463.3343,-604.4917 472.767,-600.5875 482.9854,-596.8459 492.9002,-593.4578"/>
<polygon fill="#000000" stroke="#000000" points="494.2967,-596.6815 502.6734,-590.1946 492.0797,-590.0419 494.2967,-596.6815"/>
</g>
<!-- vartypes -->
<g id="node23" class="node">
<title>vartypes</title>
<ellipse fill="none" stroke="#000000" cx="545.1518" cy="-793.4917" rx="40.1317" ry="18"/>
<text text-anchor="middle" x="545.1518" y="-789.2917" font-family="Times,serif" font-size="14.00" fill="#000000">vartypes</text>
</g>
<!-- strutils&#45;&gt;vartypes -->
<g id="edge38" class="edge">
<title>strutils&#45;&gt;vartypes</title>
<path fill="none" stroke="#000000" d="M145.6079,-793.4917C235.9693,-793.4917 408.9501,-793.4917 494.5725,-793.4917"/>
<polygon fill="#000000" stroke="#000000" points="494.818,-796.9918 504.818,-793.4917 494.8179,-789.9918 494.818,-796.9918"/>
</g>
<!-- variables -->
<g id="node26" class="node">
<title>variables</title>
<ellipse fill="none" stroke="#000000" cx="545.1518" cy="-469.4917" rx="42.0524" ry="18"/>
<text text-anchor="middle" x="545.1518" y="-465.2917" font-family="Times,serif" font-size="14.00" fill="#000000">variables</text>
</g>
<!-- strutils&#45;&gt;variables -->
<g id="edge41" class="edge">
<title>strutils&#45;&gt;variables</title>
<path fill="none" stroke="#000000" d="M111.7483,-772.6116C181.9494,-712.0446 386.2852,-537.9721 463.3343,-496.4917 474.3441,-490.5645 486.8876,-485.6293 498.7892,-481.6702"/>
<polygon fill="#000000" stroke="#000000" points="500.1073,-484.9244 508.5879,-478.5738 497.998,-478.2497 500.1073,-484.9244"/>
</g>
<!-- runFunction -->
<g id="node27" class="node">
<title>runFunction</title>
<ellipse fill="none" stroke="#000000" cx="545.1518" cy="-1225.4917" rx="53.1797" ry="18"/>
<text text-anchor="middle" x="545.1518" y="-1221.2917" font-family="Times,serif" font-size="14.00" fill="#000000">runFunction</text>
</g>
<!-- strutils&#45;&gt;runFunction -->
<g id="edge46" class="edge">
<title>strutils&#45;&gt;runFunction</title>
<path fill="none" stroke="#000000" d="M106.4108,-814.9209C176.1955,-894.5309 419.203,-1170.1519 463.3343,-1198.4917 471.83,-1203.9474 481.5337,-1208.4032 491.2178,-1212.0071"/>
<polygon fill="#000000" stroke="#000000" points="490.2551,-1215.3774 500.8498,-1215.3325 492.5395,-1208.7606 490.2551,-1215.3774"/>
</g>
<!-- unicodes -->
<g id="node31" class="node">
<title>unicodes</title>
<ellipse fill="none" stroke="#000000" cx="545.1518" cy="-199.4917" rx="41.5852" ry="18"/>
<text text-anchor="middle" x="545.1518" y="-195.2917" font-family="Times,serif" font-size="14.00" fill="#000000">unicodes</text>
</g>
<!-- strutils&#45;&gt;unicodes -->
<g id="edge51" class="edge">
<title>strutils&#45;&gt;unicodes</title>
<path fill="none" stroke="#000000" d="M115.0484,-773.5608C133.4781,-759.2826 157.5649,-738.8679 175.3343,-717.4917 337.059,-522.9408 266.5407,-385.4798 463.3343,-226.4917 472.9697,-218.7074 484.933,-213.1339 496.7097,-209.1555"/>
<polygon fill="#000000" stroke="#000000" points="497.9552,-212.4351 506.5031,-206.1753 495.9172,-205.7383 497.9552,-212.4351"/>
</g>
<!-- signatures -->
<g id="node32" class="node">
<title>signatures</title>
<ellipse fill="none" stroke="#000000" cx="545.1518" cy="-523.4917" rx="45.9286" ry="18"/>
<text text-anchor="middle" x="545.1518" y="-519.2917" font-family="Times,serif" font-size="14.00" fill="#000000">signatures</text>
</g>
<!-- strutils&#45;&gt;signatures -->
<g id="edge53" class="edge">
<title>strutils&#45;&gt;signatures</title>
<path fill="none" stroke="#000000" d="M114.0611,-772.9842C173.4935,-727.6001 323.5611,-617.3996 463.3343,-550.4917 474.0824,-545.3467 486.0642,-540.7893 497.471,-536.9518"/>
<polygon fill="#000000" stroke="#000000" points="498.8664,-540.179 507.3017,-533.7683 496.7098,-533.5195 498.8664,-540.179"/>
</g>
<!-- replacement -->
<g id="node33" class="node">
<title>replacement</title>
<ellipse fill="none" stroke="#000000" cx="545.1518" cy="-361.4917" rx="53.1281" ry="18"/>
<text text-anchor="middle" x="545.1518" y="-357.2917" font-family="Times,serif" font-size="14.00" fill="#000000">replacement</text>
</g>
<!-- strutils&#45;&gt;replacement -->
<g id="edge58" class="edge">
<title>strutils&#45;&gt;replacement</title>
<path fill="none" stroke="#000000" d="M113.0424,-773.073C131.0009,-758.2488 155.3458,-737.3843 175.3343,-717.4917 313.0781,-580.4093 301.3442,-495.8424 463.3343,-388.4917 471.7505,-382.9143 481.4167,-378.401 491.0886,-374.7784"/>
<polygon fill="#000000" stroke="#000000" points="492.4109,-378.0245 500.7162,-371.4462 490.1214,-371.4095 492.4109,-378.0245"/>
</g>
<!-- startingvars -->
<g id="node36" class="node">
<title>startingvars</title>
<ellipse fill="none" stroke="#000000" cx="545.1518" cy="-1009.4917" rx="51.2329" ry="18"/>
<text text-anchor="middle" x="545.1518" y="-1005.2917" font-family="Times,serif" font-size="14.00" fill="#000000">startingvars</text>
</g>
<!-- strutils&#45;&gt;startingvars -->
<g id="edge65" class="edge">
<title>strutils&#45;&gt;startingvars</title>
<path fill="none" stroke="#000000" d="M120.5673,-812.1259C184.9702,-848.1304 332.8017,-928.4631 463.3343,-982.4917 473.7042,-986.7839 485.0238,-990.8795 495.8455,-994.525"/>
<polygon fill="#000000" stroke="#000000" points="495.0093,-997.9345 505.6024,-997.739 497.1995,-991.2859 495.0093,-997.9345"/>
</g>
<!-- codefile -->
<g id="node37" class="node">
<title>codefile</title>
<ellipse fill="none" stroke="#000000" cx="545.1518" cy="-1063.4917" rx="38.2024" ry="18"/>
<text text-anchor="middle" x="545.1518" y="-1059.2917" font-family="Times,serif" font-size="14.00" fill="#000000">codefile</text>
</g>
<!-- strutils&#45;&gt;codefile -->
<g id="edge69" class="edge">
<title>strutils&#45;&gt;codefile</title>
<path fill="none" stroke="#000000" d="M114.0611,-813.9993C173.4935,-859.3834 323.5611,-969.5839 463.3343,-1036.4917 475.4706,-1042.3012 489.1798,-1047.3617 501.8581,-1051.4822"/>
<polygon fill="#000000" stroke="#000000" points="501.1661,-1054.933 511.7551,-1054.5816 503.2581,-1048.2529 501.1661,-1054.933"/>
</g>
<!-- repl -->
<g id="node40" class="node">
<title>repl</title>
<ellipse fill="none" stroke="#000000" cx="545.1518" cy="-253.4917" rx="27" ry="18"/>
<text text-anchor="middle" x="545.1518" y="-249.2917" font-family="Times,serif" font-size="14.00" fill="#000000">repl</text>
</g>
<!-- strutils&#45;&gt;repl -->
<g id="edge77" class="edge">
<title>strutils&#45;&gt;repl</title>
<path fill="none" stroke="#000000" d="M114.6965,-773.2604C132.9691,-758.8482 157.0128,-738.3967 175.3343,-717.4917 328.648,-542.5598 278.642,-421.8954 463.3343,-280.4917 476.458,-270.444 493.496,-264.0398 508.624,-260.0058"/>
<polygon fill="#000000" stroke="#000000" points="509.817,-263.3187 518.7205,-257.576 508.1792,-256.513 509.817,-263.3187"/>
</g>
<!-- options -->
<g id="node3" class="node">
<title>options</title>
<ellipse fill="none" stroke="#000000" cx="87.6672" cy="-577.4917" rx="61.0788" ry="22.7556"/>
<text text-anchor="middle" x="87.6672" y="-570.2917" font-family="Times,serif" font-size="24.00" fill="#000000">options</text>
</g>
<!-- parseCommandLine -->
<g id="node4" class="node">
<title>parseCommandLine</title>
<ellipse fill="none" stroke="#000000" cx="545.1518" cy="-685.4917" rx="81.6354" ry="18"/>
<text text-anchor="middle" x="545.1518" y="-681.2917" font-family="Times,serif" font-size="14.00" fill="#000000">parseCommandLine</text>
</g>
<!-- options&#45;&gt;parseCommandLine -->
<g id="edge2" class="edge">
<title>options&#45;&gt;parseCommandLine</title>
<path fill="none" stroke="#000000" d="M139.7011,-589.7756C223.334,-609.5191 387.5477,-648.2856 479.248,-669.9336"/>
<polygon fill="#000000" stroke="#000000" points="478.7103,-673.4028 489.247,-672.2941 480.3187,-666.5901 478.7103,-673.4028"/>
</g>
<!-- regexes -->
<g id="node11" class="node">
<title>regexes</title>
<ellipse fill="none" stroke="#000000" cx="545.1518" cy="-145.4917" rx="37.2248" ry="18"/>
<text text-anchor="middle" x="545.1518" y="-141.2917" font-family="Times,serif" font-size="14.00" fill="#000000">regexes</text>
</g>
<!-- options&#45;&gt;regexes -->
<g id="edge8" class="edge">
<title>options&#45;&gt;regexes</title>
<path fill="none" stroke="#000000" d="M101.9837,-555.4483C146.8971,-488.002 292.2563,-282.3532 463.3343,-172.4917 474.7681,-165.1493 488.3899,-159.618 501.2071,-155.5369"/>
<polygon fill="#000000" stroke="#000000" points="502.2091,-158.8905 510.8021,-152.6929 500.2198,-152.1791 502.2091,-158.8905"/>
</g>
<!-- options&#45;&gt;processTemplate -->
<g id="edge13" class="edge">
<title>options&#45;&gt;processTemplate</title>
<path fill="none" stroke="#000000" d="M131.2053,-593.5571C201.0649,-619.2403 342.6103,-670.8884 463.3343,-712.4917 472.6678,-715.7082 482.6269,-719.0608 492.2687,-722.2656"/>
<polygon fill="#000000" stroke="#000000" points="491.1764,-725.5907 501.7698,-725.4105 493.3762,-718.9453 491.1764,-725.5907"/>
</g>
<!-- options&#45;&gt;env -->
<g id="edge20" class="edge">
<title>options&#45;&gt;env</title>
<path fill="none" stroke="#000000" d="M116.4343,-597.5842C135.0013,-611.6341 158.7039,-631.7227 175.3343,-653.4917 354.6596,-888.2271 241.3886,-1057.5601 463.3343,-1252.4917 475.9646,-1263.5847 493.2732,-1270.1416 508.7186,-1274.0071"/>
<polygon fill="#000000" stroke="#000000" points="508.0113,-1277.4352 518.5314,-1276.1793 509.5243,-1270.6006 508.0113,-1277.4352"/>
</g>
<!-- options&#45;&gt;tempFile -->
<g id="edge25" class="edge">
<title>options&#45;&gt;tempFile</title>
<path fill="none" stroke="#000000" d="M115.0946,-598.0373C133.3173,-612.4317 157.1456,-632.7383 175.3343,-653.4917 328.648,-828.4236 278.642,-949.088 463.3343,-1090.4917 473.1697,-1098.0219 485.2035,-1103.5056 496.9842,-1107.4789"/>
<polygon fill="#000000" stroke="#000000" points="496.1802,-1110.893 506.7667,-1110.473 498.2289,-1104.1995 496.1802,-1110.893"/>
</g>
<!-- readlines -->
<g id="node19" class="node">
<title>readlines</title>
<ellipse fill="none" stroke="#000000" cx="545.1518" cy="-631.4917" rx="42.0524" ry="18"/>
<text text-anchor="middle" x="545.1518" y="-627.2917" font-family="Times,serif" font-size="14.00" fill="#000000">readlines</text>
</g>
<!-- options&#45;&gt;readlines -->
<g id="edge28" class="edge">
<title>options&#45;&gt;readlines</title>
<path fill="none" stroke="#000000" d="M146.0726,-584.3857C236.5788,-595.0688 409.1638,-615.4402 494.6224,-625.5274"/>
<polygon fill="#000000" stroke="#000000" points="494.2596,-629.0088 504.6009,-626.7052 495.0802,-622.0571 494.2596,-629.0088"/>
</g>
<!-- options&#45;&gt;matches -->
<g id="edge31" class="edge">
<title>options&#45;&gt;matches</title>
<path fill="none" stroke="#000000" d="M131.2053,-561.4263C201.0649,-535.7432 342.6103,-484.0951 463.3343,-442.4917 476.2939,-438.0257 490.4595,-433.2972 503.307,-429.0665"/>
<polygon fill="#000000" stroke="#000000" points="504.4225,-432.3841 512.8329,-425.9408 502.2401,-425.733 504.4225,-432.3841"/>
</g>
<!-- parseCmdLine -->
<g id="node21" class="node">
<title>parseCmdLine</title>
<ellipse fill="none" stroke="#000000" cx="545.1518" cy="-307.4917" rx="62.3407" ry="18"/>
<text text-anchor="middle" x="545.1518" y="-303.2917" font-family="Times,serif" font-size="14.00" fill="#000000">parseCmdLine</text>
</g>
<!-- options&#45;&gt;parseCmdLine -->
<g id="edge32" class="edge">
<title>options&#45;&gt;parseCmdLine</title>
<path fill="none" stroke="#000000" d="M114.0611,-556.9842C173.4935,-511.6001 323.5611,-401.3996 463.3343,-334.4917 471.9459,-330.3695 481.3494,-326.6244 490.6146,-323.3246"/>
<polygon fill="#000000" stroke="#000000" points="491.8533,-326.6 500.1808,-320.05 489.5862,-319.9773 491.8533,-326.6"/>
</g>
<!-- options&#45;&gt;runCommand -->
<g id="edge34" class="edge">
<title>options&#45;&gt;runCommand</title>
<path fill="none" stroke="#000000" d="M149.3656,-577.4917C234.4099,-577.4917 387.1898,-577.4917 475.9985,-577.4917"/>
<polygon fill="#000000" stroke="#000000" points="476.2383,-580.9918 486.2383,-577.4917 476.2383,-573.9918 476.2383,-580.9918"/>
</g>
<!-- parseNumber -->
<g id="node24" class="node">
<title>parseNumber</title>
<ellipse fill="none" stroke="#000000" cx="545.1518" cy="-91.4917" rx="57.9892" ry="18"/>
<text text-anchor="middle" x="545.1518" y="-87.2917" font-family="Times,serif" font-size="14.00" fill="#000000">parseNumber</text>
</g>
<!-- options&#45;&gt;parseNumber -->
<g id="edge39" class="edge">
<title>options&#45;&gt;parseNumber</title>
<path fill="none" stroke="#000000" d="M99.7291,-555.0746C140.562,-481.2817 281.2624,-243.5434 463.3343,-118.4917 470.9403,-113.2678 479.6314,-108.9937 488.443,-105.515"/>
<polygon fill="#000000" stroke="#000000" points="489.7997,-108.746 498.0063,-102.0451 487.4122,-102.1658 489.7997,-108.746"/>
</g>
<!-- options&#45;&gt;variables -->
<g id="edge42" class="edge">
<title>options&#45;&gt;variables</title>
<path fill="none" stroke="#000000" d="M139.7011,-565.2079C229.5848,-543.9887 412.5448,-500.7967 498.5301,-480.4979"/>
<polygon fill="#000000" stroke="#000000" points="499.3474,-483.9012 508.2757,-478.1972 497.739,-477.0885 499.3474,-483.9012"/>
</g>
<!-- options&#45;&gt;runFunction -->
<g id="edge44" class="edge">
<title>options&#45;&gt;runFunction</title>
<path fill="none" stroke="#000000" d="M116.1639,-597.7949C134.6167,-611.9337 158.2937,-632.0423 175.3343,-653.4917 345.7515,-867.9995 254.0969,-1021.6435 463.3343,-1198.4917 470.7108,-1204.7264 479.5713,-1209.5337 488.698,-1213.2369"/>
<polygon fill="#000000" stroke="#000000" points="487.6601,-1216.5837 498.2542,-1216.7101 490.0512,-1210.0047 487.6601,-1216.5837"/>
</g>
<!-- options&#45;&gt;signatures -->
<g id="edge54" class="edge">
<title>options&#45;&gt;signatures</title>
<path fill="none" stroke="#000000" d="M146.0726,-570.5978C235.3057,-560.065 404.3247,-540.1145 490.9649,-529.8878"/>
<polygon fill="#000000" stroke="#000000" points="491.5907,-533.3383 501.1115,-528.6901 490.7701,-526.3866 491.5907,-533.3383"/>
</g>
<!-- options&#45;&gt;replacement -->
<g id="edge55" class="edge">
<title>options&#45;&gt;replacement</title>
<path fill="none" stroke="#000000" d="M121.3199,-558.437C186.1159,-522.2307 333.3076,-442.311 463.3343,-388.4917 473.4926,-384.2871 484.5621,-380.2712 495.1823,-376.6823"/>
<polygon fill="#000000" stroke="#000000" points="496.3739,-379.9747 504.7702,-373.5132 494.177,-373.3284 496.3739,-379.9747"/>
</g>
<!-- options&#45;&gt;codefile -->
<g id="edge66" class="edge">
<title>options&#45;&gt;codefile</title>
<path fill="none" stroke="#000000" d="M114.2888,-598.0917C132.3794,-612.6685 156.3732,-633.1652 175.3343,-653.4917 320.6109,-809.2297 290.2932,-912.329 463.3343,-1036.4917 474.0746,-1044.1982 487.1499,-1049.8016 499.6681,-1053.8355"/>
<polygon fill="#000000" stroke="#000000" points="498.9512,-1057.273 509.5328,-1056.7443 500.9311,-1050.5589 498.9512,-1057.273"/>
</g>
<!-- updateTemplate -->
<g id="node38" class="node">
<title>updateTemplate</title>
<ellipse fill="none" stroke="#000000" cx="545.1518" cy="-847.4917" rx="66.4074" ry="18"/>
<text text-anchor="middle" x="545.1518" y="-843.2917" font-family="Times,serif" font-size="14.00" fill="#000000">updateTemplate</text>
</g>
<!-- options&#45;&gt;updateTemplate -->
<g id="edge72" class="edge">
<title>options&#45;&gt;updateTemplate</title>
<path fill="none" stroke="#000000" d="M114.0611,-597.9993C173.4935,-643.3834 323.5611,-753.5839 463.3343,-820.4917 471.558,-824.4283 480.5038,-828.021 489.3618,-831.2103"/>
<polygon fill="#000000" stroke="#000000" points="488.306,-834.5485 498.9008,-834.5099 490.5944,-827.9331 488.306,-834.5485"/>
</g>
<!-- options&#45;&gt;repl -->
<g id="edge76" class="edge">
<title>options&#45;&gt;repl</title>
<path fill="none" stroke="#000000" d="M108.9842,-556.0541C163.378,-502.4426 313.6284,-361.0878 463.3343,-280.4917 477.7807,-272.7143 494.8679,-266.6449 509.6807,-262.2476"/>
<polygon fill="#000000" stroke="#000000" points="510.8403,-265.5571 519.512,-259.47 508.9371,-258.8207 510.8403,-265.5571"/>
</g>
<!-- tables -->
<g id="node5" class="node">
<title>tables</title>
<ellipse fill="none" stroke="#000000" cx="87.6672" cy="-685.4917" rx="50.796" ry="22.7556"/>
<text text-anchor="middle" x="87.6672" y="-678.2917" font-family="Times,serif" font-size="24.00" fill="#000000">tables</text>
</g>
<!-- tables&#45;&gt;parseCommandLine -->
<g id="edge3" class="edge">
<title>tables&#45;&gt;parseCommandLine</title>
<path fill="none" stroke="#000000" d="M138.8148,-685.4917C214.7405,-685.4917 358.4524,-685.4917 453.0135,-685.4917"/>
<polygon fill="#000000" stroke="#000000" points="453.1488,-688.9918 463.1487,-685.4917 453.1487,-681.9918 453.1488,-688.9918"/>
</g>
<!-- tables&#45;&gt;regexes -->
<g id="edge9" class="edge">
<title>tables&#45;&gt;regexes</title>
<path fill="none" stroke="#000000" d="M113.9057,-665.8832C132.271,-651.4409 156.7473,-630.6997 175.3343,-609.4917 328.648,-434.5598 278.642,-313.8954 463.3343,-172.4917 474.1235,-164.2313 487.5583,-158.4335 500.4024,-154.3907"/>
<polygon fill="#000000" stroke="#000000" points="501.4037,-157.7447 510.0556,-151.6296 499.4786,-151.0146 501.4037,-157.7447"/>
</g>
<!-- tables&#45;&gt;cmdline -->
<g id="edge11" class="edge">
<title>tables&#45;&gt;cmdline</title>
<path fill="none" stroke="#000000" d="M113.1742,-705.3217C171.9888,-750.2776 322.8605,-861.2485 463.3343,-928.4917 475.3641,-934.2503 488.9394,-939.2728 501.5242,-943.3735"/>
<polygon fill="#000000" stroke="#000000" points="500.7669,-946.8042 511.3562,-946.461 502.8642,-940.1257 500.7669,-946.8042"/>
</g>
<!-- tables&#45;&gt;processTemplate -->
<g id="edge14" class="edge">
<title>tables&#45;&gt;processTemplate</title>
<path fill="none" stroke="#000000" d="M137.0607,-691.322C217.6474,-700.8342 377.8235,-719.7409 471.7528,-730.828"/>
<polygon fill="#000000" stroke="#000000" points="471.4081,-734.3115 481.7494,-732.0079 472.2287,-727.3597 471.4081,-734.3115"/>
</g>
<!-- tables&#45;&gt;matches -->
<g id="edge30" class="edge">
<title>tables&#45;&gt;matches</title>
<path fill="none" stroke="#000000" d="M113.1742,-665.6617C171.9888,-620.7059 322.8605,-509.735 463.3343,-442.4917 475.2577,-436.7842 488.6992,-431.7996 501.1899,-427.719"/>
<polygon fill="#000000" stroke="#000000" points="502.469,-430.9857 510.9561,-424.6438 500.3665,-424.3089 502.469,-430.9857"/>
</g>
<!-- tables&#45;&gt;parseCmdLine -->
<g id="edge33" class="edge">
<title>tables&#45;&gt;parseCmdLine</title>
<path fill="none" stroke="#000000" d="M111.7522,-665.1534C129.5192,-650.02 154.1785,-628.7419 175.3343,-609.4917 306.2352,-490.3816 311.5845,-425.5646 463.3343,-334.4917 470.9755,-329.9059 479.4914,-325.9922 488.0611,-322.6861"/>
<polygon fill="#000000" stroke="#000000" points="489.4936,-325.8903 497.7156,-319.2082 487.1212,-319.3046 489.4936,-325.8903"/>
</g>
<!-- tables&#45;&gt;runCommand -->
<g id="edge36" class="edge">
<title>tables&#45;&gt;runCommand</title>
<path fill="none" stroke="#000000" d="M132.7846,-674.8407C216.6537,-655.0414 396.3807,-612.6126 488.3659,-590.8974"/>
<polygon fill="#000000" stroke="#000000" points="489.4029,-594.2489 498.3312,-588.5448 487.7945,-587.4361 489.4029,-594.2489"/>
</g>
<!-- tables&#45;&gt;vartypes -->
<g id="edge37" class="edge">
<title>tables&#45;&gt;vartypes</title>
<path fill="none" stroke="#000000" d="M132.7846,-696.1428C220.17,-716.7721 411.6197,-761.9683 499.4594,-782.705"/>
<polygon fill="#000000" stroke="#000000" points="498.8563,-786.1587 509.393,-785.05 500.4647,-779.346 498.8563,-786.1587"/>
</g>
<!-- tables&#45;&gt;variables -->
<g id="edge43" class="edge">
<title>tables&#45;&gt;variables</title>
<path fill="none" stroke="#000000" d="M119.0846,-667.6869C182.6772,-632.1001 331.7898,-550.9392 463.3343,-496.4917 475.3303,-491.5265 488.5971,-486.8244 500.8941,-482.7778"/>
<polygon fill="#000000" stroke="#000000" points="502.0608,-486.0791 510.5052,-479.6805 499.9137,-479.4165 502.0608,-486.0791"/>
</g>
<!-- tables&#45;&gt;runFunction -->
<g id="edge45" class="edge">
<title>tables&#45;&gt;runFunction</title>
<path fill="none" stroke="#000000" d="M113.9057,-705.1003C132.271,-719.5426 156.7473,-740.2838 175.3343,-761.4917 328.648,-936.4236 278.642,-1057.088 463.3343,-1198.4917 471.0913,-1204.4306 480.2157,-1209.0966 489.5049,-1212.7526"/>
<polygon fill="#000000" stroke="#000000" points="488.5999,-1216.1457 499.1945,-1216.2079 490.9511,-1209.5523 488.5999,-1216.1457"/>
</g>
<!-- tables&#45;&gt;signatures -->
<g id="edge52" class="edge">
<title>tables&#45;&gt;signatures</title>
<path fill="none" stroke="#000000" d="M127.0296,-670.9619C195.2946,-645.8498 340.1532,-592.9418 463.3343,-550.4917 475.1559,-546.4178 487.981,-542.1256 499.8939,-538.1919"/>
<polygon fill="#000000" stroke="#000000" points="501.2384,-541.4342 509.644,-534.9847 499.051,-534.7847 501.2384,-541.4342"/>
</g>
<!-- readjson -->
<g id="node34" class="node">
<title>readjson</title>
<ellipse fill="none" stroke="#000000" cx="545.1518" cy="-1333.4917" rx="40.1317" ry="18"/>
<text text-anchor="middle" x="545.1518" y="-1329.2917" font-family="Times,serif" font-size="14.00" fill="#000000">readjson</text>
</g>
<!-- tables&#45;&gt;readjson -->
<g id="edge62" class="edge">
<title>tables&#45;&gt;readjson</title>
<path fill="none" stroke="#000000" d="M114.9505,-704.868C133.5689,-719.0472 157.9178,-739.5692 175.3343,-761.4917 345.7515,-975.9995 254.0969,-1129.6435 463.3343,-1306.4917 473.0697,-1314.7201 485.39,-1320.4622 497.4954,-1324.4615"/>
<polygon fill="#000000" stroke="#000000" points="496.5218,-1327.8234 507.1041,-1327.3095 498.511,-1321.112 496.5218,-1327.8234"/>
</g>
<!-- tables&#45;&gt;startingvars -->
<g id="edge64" class="edge">
<title>tables&#45;&gt;startingvars</title>
<path fill="none" stroke="#000000" d="M111.2504,-705.9423C180.978,-766.1112 386.1022,-940.9129 463.3343,-982.4917 472.9138,-987.649 483.6545,-992.0552 494.1232,-995.7209"/>
<polygon fill="#000000" stroke="#000000" points="493.0262,-999.0445 503.6197,-998.8794 495.2354,-992.4022 493.0262,-999.0445"/>
</g>
<!-- tables&#45;&gt;updateTemplate -->
<g id="edge73" class="edge">
<title>tables&#45;&gt;updateTemplate</title>
<path fill="none" stroke="#000000" d="M127.0296,-700.0215C195.2946,-725.1337 340.1532,-778.0416 463.3343,-820.4917 472.7739,-823.7448 482.8534,-827.137 492.5973,-830.3747"/>
<polygon fill="#000000" stroke="#000000" points="491.5999,-833.7313 502.1932,-833.5501 493.799,-827.0857 491.5999,-833.7313"/>
</g>
<!-- tables&#45;&gt;repl -->
<g id="edge75" class="edge">
<title>tables&#45;&gt;repl</title>
<path fill="none" stroke="#000000" d="M112.6586,-665.3897C130.6529,-650.547 155.203,-629.5264 175.3343,-609.4917 313.0781,-472.4093 301.3442,-387.8424 463.3343,-280.4917 477.0107,-271.4284 493.9877,-265.175 508.9261,-260.9875"/>
<polygon fill="#000000" stroke="#000000" points="510.0743,-264.3056 518.8768,-258.4093 508.3186,-257.5294 510.0743,-264.3056"/>
</g>
<!-- os -->
<g id="node6" class="node">
<title>os</title>
<ellipse fill="none" stroke="#000000" cx="87.6672" cy="-1063.4917" rx="27" ry="22.7556"/>
<text text-anchor="middle" x="87.6672" y="-1056.2917" font-family="Times,serif" font-size="24.00" fill="#000000">os</text>
</g>
<!-- os&#45;&gt;statictea -->
<g id="edge80" class="edge">
<title>os&#45;&gt;statictea</title>
<path fill="none" stroke="#000000" d="M113.9067,-1069.6862C189.1052,-1087.4386 406.0232,-1138.6472 500.4009,-1160.9272"/>
<polygon fill="#000000" stroke="#000000" points="499.6799,-1164.3532 510.2166,-1163.2445 501.2883,-1157.5404 499.6799,-1164.3532"/>
</g>
<!-- os&#45;&gt;parseCommandLine -->
<g id="edge4" class="edge">
<title>os&#45;&gt;parseCommandLine</title>
<path fill="none" stroke="#000000" d="M104.9357,-1045.4221C167.0491,-980.7444 379.8348,-761.9901 463.3343,-712.4917 469.2994,-708.9557 475.7871,-705.8149 482.4126,-703.0421"/>
<polygon fill="#000000" stroke="#000000" points="484.1259,-706.131 492.1735,-699.2399 481.585,-699.6084 484.1259,-706.131"/>
</g>
<!-- os&#45;&gt;cmdline -->
<g id="edge10" class="edge">
<title>os&#45;&gt;cmdline</title>
<path fill="none" stroke="#000000" d="M113.9067,-1057.2973C189.1968,-1039.5233 406.5519,-988.2115 500.7452,-965.975"/>
<polygon fill="#000000" stroke="#000000" points="501.6099,-969.3671 510.5382,-963.6631 500.0016,-962.5544 501.6099,-969.3671"/>
</g>
<!-- os&#45;&gt;env -->
<g id="edge18" class="edge">
<title>os&#45;&gt;env</title>
<path fill="none" stroke="#000000" d="M113.0046,-1071.6213C130.7305,-1077.5783 154.8125,-1086.2151 175.3343,-1095.4917 308.1763,-1155.5412 329.5706,-1194.5245 463.3343,-1252.4917 478.3885,-1259.0155 495.5626,-1264.9056 510.2763,-1269.5074"/>
<polygon fill="#000000" stroke="#000000" points="509.4271,-1272.9076 520.0133,-1272.4794 511.4707,-1266.2125 509.4271,-1272.9076"/>
</g>
<!-- os&#45;&gt;tempFile -->
<g id="edge22" class="edge">
<title>os&#45;&gt;tempFile</title>
<path fill="none" stroke="#000000" d="M114.5769,-1066.6681C188.8661,-1075.4369 397.7005,-1100.0871 494.5962,-1111.5243"/>
<polygon fill="#000000" stroke="#000000" points="494.3889,-1115.0241 504.7303,-1112.7205 495.2095,-1108.0723 494.3889,-1115.0241"/>
</g>
<!-- os&#45;&gt;runFunction -->
<g id="edge48" class="edge">
<title>os&#45;&gt;runFunction</title>
<path fill="none" stroke="#000000" d="M112.5148,-1072.5174C184.8242,-1098.7676 394.3725,-1174.7265 463.3343,-1198.4917 474.1627,-1202.2234 485.833,-1206.1382 496.873,-1209.7928"/>
<polygon fill="#000000" stroke="#000000" points="495.7824,-1213.1185 506.3755,-1212.9263 497.9746,-1206.4706 495.7824,-1213.1185"/>
</g>
<!-- os&#45;&gt;readjson -->
<g id="edge60" class="edge">
<title>os&#45;&gt;readjson</title>
<path fill="none" stroke="#000000" d="M113.4199,-1070.7784C131.3364,-1076.3487 155.4753,-1084.87 175.3343,-1095.4917 315.2544,-1170.3291 322.2624,-1233.8489 463.3343,-1306.4917 474.8769,-1312.4354 487.9977,-1317.4524 500.2998,-1321.488"/>
<polygon fill="#000000" stroke="#000000" points="499.3553,-1324.8598 509.9445,-1324.5129 501.4502,-1318.1806 499.3553,-1324.8598"/>
</g>
<!-- os&#45;&gt;startingvars -->
<g id="edge63" class="edge">
<title>os&#45;&gt;startingvars</title>
<path fill="none" stroke="#000000" d="M114.5769,-1060.3154C186.7944,-1051.7911 386.1576,-1028.2589 486.234,-1016.4462"/>
<polygon fill="#000000" stroke="#000000" points="486.6637,-1019.9199 496.1845,-1015.2717 485.8431,-1012.9681 486.6637,-1019.9199"/>
</g>
<!-- os&#45;&gt;codefile -->
<g id="edge67" class="edge">
<title>os&#45;&gt;codefile</title>
<path fill="none" stroke="#000000" d="M114.9149,-1063.4917C190.0054,-1063.4917 400.6919,-1063.4917 496.5579,-1063.4917"/>
<polygon fill="#000000" stroke="#000000" points="496.842,-1066.9918 506.8419,-1063.4917 496.8419,-1059.9918 496.842,-1066.9918"/>
</g>
<!-- os&#45;&gt;updateTemplate -->
<g id="edge71" class="edge">
<title>os&#45;&gt;updateTemplate</title>
<path fill="none" stroke="#000000" d="M110.4112,-1050.5552C168.1066,-1018.0715 325.3812,-931.5918 463.3343,-874.4917 472.1558,-870.8404 481.6646,-867.3314 490.9696,-864.1207"/>
<polygon fill="#000000" stroke="#000000" points="492.1971,-867.4005 500.5551,-860.8894 489.961,-860.7673 492.1971,-867.4005"/>
</g>
<!-- strformat -->
<g id="node7" class="node">
<title>strformat</title>
<ellipse fill="none" stroke="#ff0000" cx="87.6672" cy="-172.4917" rx="73.5395" ry="22.7556"/>
<text text-anchor="middle" x="87.6672" y="-165.2917" font-family="Times,serif" font-size="24.00" fill="#000000">strformat</text>
</g>
<!-- args -->
<g id="node8" class="node">
<title>args</title>
<ellipse fill="none" stroke="#000000" cx="545.1518" cy="-37.4917" rx="27" ry="18"/>
<text text-anchor="middle" x="545.1518" y="-33.2917" font-family="Times,serif" font-size="14.00" fill="#000000">args</text>
</g>
<!-- strformat&#45;&gt;args -->
<g id="edge5" class="edge">
<title>strformat&#45;&gt;args</title>
<path fill="none" stroke="#ff0000" d="M141.0418,-156.7413C235.783,-128.784 430.832,-71.2266 510.301,-47.7759"/>
<polygon fill="#ff0000" stroke="#ff0000" points="511.686,-51.0165 520.2865,-44.8293 509.7048,-44.3027 511.686,-51.0165"/>
</g>
<!-- strformat&#45;&gt;replacement -->
<g id="edge57" class="edge">
<title>strformat&#45;&gt;replacement</title>
<path fill="none" stroke="#ff0000" d="M136.6022,-189.6282C149.2875,-194.2683 162.881,-199.4164 175.3343,-204.4917 305.3845,-257.4939 332.4721,-283.5274 463.3343,-334.4917 473.6856,-338.523 484.9166,-342.4877 495.6459,-346.085"/>
<polygon fill="#ff0000" stroke="#ff0000" points="494.7255,-349.4668 505.3186,-349.2768 496.919,-342.8194 494.7255,-349.4668"/>
</g>
<!-- re -->
<g id="node10" class="node">
<title>re</title>
<polygon fill="#98fb98" stroke="#000000" points="114.6672,-93.3499 114.6672,-113.6336 98.8509,-127.9764 76.4834,-127.9764 60.6672,-113.6336 60.6672,-93.3499 76.4834,-79.0071 98.8509,-79.0071 114.6672,-93.3499"/>
<polygon fill="none" stroke="#000000" points="118.6672,-91.5783 118.6672,-115.4052 100.3948,-131.9752 74.9395,-131.9752 56.6672,-115.4052 56.6672,-91.5783 74.9395,-75.0083 100.3948,-75.0083 118.6672,-91.5783"/>
<text text-anchor="middle" x="87.6672" y="-96.2917" font-family="Times,serif" font-size="24.00" fill="#000000">re</text>
</g>
<!-- re&#45;&gt;regexes -->
<g id="edge7" class="edge">
<title>re&#45;&gt;regexes</title>
<path fill="none" stroke="#000000" d="M118.7523,-106.3456C197.4521,-113.5707 404.9428,-132.6197 498.3755,-141.1974"/>
<polygon fill="#000000" stroke="#000000" points="498.1113,-144.6878 508.3894,-142.1167 498.7513,-137.7171 498.1113,-144.6878"/>
</g>
<!-- streams -->
<g id="node14" class="node">
<title>streams</title>
<ellipse fill="none" stroke="#000000" cx="87.6672" cy="-928.4917" rx="63.3073" ry="22.7556"/>
<text text-anchor="middle" x="87.6672" y="-921.2917" font-family="Times,serif" font-size="24.00" fill="#000000">streams</text>
</g>
<!-- streams&#45;&gt;processTemplate -->
<g id="edge16" class="edge">
<title>streams&#45;&gt;processTemplate</title>
<path fill="none" stroke="#000000" d="M126.4108,-910.4325C194.0354,-879.2173 338.3385,-813.9611 463.3343,-766.4917 472.2597,-763.1022 481.8205,-759.7244 491.1451,-756.5632"/>
<polygon fill="#000000" stroke="#000000" points="492.3656,-759.8457 500.7402,-753.356 490.1465,-753.2067 492.3656,-759.8457"/>
</g>
<!-- streams&#45;&gt;env -->
<g id="edge17" class="edge">
<title>streams&#45;&gt;env</title>
<path fill="none" stroke="#000000" d="M107.013,-950.3191C159.0496,-1007.7863 308.5715,-1164.8604 463.3343,-1252.4917 477.6114,-1260.5758 494.6743,-1266.6892 509.5148,-1271.0364"/>
<polygon fill="#000000" stroke="#000000" points="508.8009,-1274.4704 519.3723,-1273.7664 510.6692,-1267.7243 508.8009,-1274.4704"/>
</g>
<!-- streams&#45;&gt;tempFile -->
<g id="edge26" class="edge">
<title>streams&#45;&gt;tempFile</title>
<path fill="none" stroke="#000000" d="M126.4108,-946.5509C194.0354,-977.7661 338.3385,-1043.0223 463.3343,-1090.4917 475.5819,-1095.143 489.026,-1099.772 501.4142,-1103.8496"/>
<polygon fill="#000000" stroke="#000000" points="500.4878,-1107.2286 511.08,-1106.9914 502.6517,-1100.5715 500.4878,-1107.2286"/>
</g>
<!-- streams&#45;&gt;readlines -->
<g id="edge27" class="edge">
<title>streams&#45;&gt;readlines</title>
<path fill="none" stroke="#000000" d="M111.4621,-907.3459C168.4426,-857.656 318.7559,-732.1083 463.3343,-658.4917 474.4769,-652.8182 487.0665,-647.9709 498.97,-644.0153"/>
<polygon fill="#000000" stroke="#000000" points="500.2905,-647.2682 508.7607,-640.9038 498.1703,-640.597 500.2905,-647.2682"/>
</g>
<!-- streams&#45;&gt;replacement -->
<g id="edge56" class="edge">
<title>streams&#45;&gt;replacement</title>
<path fill="none" stroke="#000000" d="M107.6336,-906.6376C125.9545,-886.2192 153.4834,-854.6003 175.3343,-825.4917 314.9784,-639.4654 278.642,-529.8954 463.3343,-388.4917 471.0913,-382.5529 480.2157,-377.8869 489.5049,-374.2309"/>
<polygon fill="#000000" stroke="#000000" points="490.9511,-377.4311 499.1945,-370.7756 488.5999,-370.8378 490.9511,-377.4311"/>
</g>
<!-- streams&#45;&gt;readjson -->
<g id="edge59" class="edge">
<title>streams&#45;&gt;readjson</title>
<path fill="none" stroke="#000000" d="M106.7543,-950.1963C170.7798,-1022.5862 378.6319,-1254.1372 463.3343,-1306.4917 474.2776,-1313.2558 487.1028,-1318.5224 499.3101,-1322.5343"/>
<polygon fill="#000000" stroke="#000000" points="498.333,-1325.8955 508.92,-1325.4874 500.3893,-1319.2043 498.333,-1325.8955"/>
</g>
<!-- streams&#45;&gt;codefile -->
<g id="edge68" class="edge">
<title>streams&#45;&gt;codefile</title>
<path fill="none" stroke="#000000" d="M136.626,-942.9391C226.8876,-969.5746 418.0434,-1025.9831 502.967,-1051.0433"/>
<polygon fill="#000000" stroke="#000000" points="502.2012,-1054.4665 512.783,-1053.94 504.1825,-1047.7527 502.2012,-1054.4665"/>
</g>
<!-- streams&#45;&gt;updateTemplate -->
<g id="edge70" class="edge">
<title>streams&#45;&gt;updateTemplate</title>
<path fill="none" stroke="#000000" d="M144.6829,-918.3968C229.6724,-903.349 389.1982,-875.1041 479.132,-859.1809"/>
<polygon fill="#000000" stroke="#000000" points="479.9751,-862.5861 489.2117,-857.3962 478.7546,-855.6933 479.9751,-862.5861"/>
</g>
<!-- times -->
<g id="node16" class="node">
<title>times</title>
<ellipse fill="none" stroke="#ff0000" cx="87.6672" cy="-1423.4917" rx="48.1611" ry="22.7556"/>
<text text-anchor="middle" x="87.6672" y="-1416.2917" font-family="Times,serif" font-size="24.00" fill="#000000">times</text>
</g>
<!-- times&#45;&gt;env -->
<g id="edge19" class="edge">
<title>times&#45;&gt;env</title>
<path fill="none" stroke="#ff0000" d="M127.8649,-1410.8389C216.6109,-1382.9048 427.9708,-1316.3762 510.9113,-1290.2694"/>
<polygon fill="#ff0000" stroke="#ff0000" points="512.1132,-1293.5605 520.601,-1287.2195 510.0115,-1286.8834 512.1132,-1293.5605"/>
</g>
<!-- timer -->
<g id="node41" class="node">
<title>timer</title>
<ellipse fill="none" stroke="#000000" cx="545.1518" cy="-1405.4917" rx="28.5411" ry="18"/>
<text text-anchor="middle" x="545.1518" y="-1401.2917" font-family="Times,serif" font-size="14.00" fill="#000000">timer</text>
</g>
<!-- times&#45;&gt;timer -->
<g id="edge78" class="edge">
<title>times&#45;&gt;timer</title>
<path fill="none" stroke="#ff0000" d="M135.7614,-1421.5994C226.8412,-1418.0159 422.8315,-1410.3045 506.2657,-1407.0217"/>
<polygon fill="#ff0000" stroke="#ff0000" points="506.4817,-1410.516 516.3364,-1406.6255 506.2065,-1403.5215 506.4817,-1410.516"/>
</g>
<!-- random -->
<g id="node18" class="node">
<title>random</title>
<polygon fill="#98fb98" stroke="#000000" points="155.889,-1122.3499 155.889,-1142.6336 115.9256,-1156.9764 59.4087,-1156.9764 19.4453,-1142.6336 19.4453,-1122.3499 59.4087,-1108.0071 115.9256,-1108.0071 155.889,-1122.3499"/>
<polygon fill="none" stroke="#000000" points="159.8811,-1119.5349 159.8811,-1145.4486 116.6191,-1160.9752 58.7152,-1160.9752 15.4532,-1145.4486 15.4532,-1119.5349 58.7152,-1104.0083 116.6191,-1104.0083 159.8811,-1119.5349"/>
<text text-anchor="middle" x="87.6672" y="-1125.2917" font-family="Times,serif" font-size="24.00" fill="#000000">random</text>
</g>
<!-- random&#45;&gt;tempFile -->
<g id="edge23" class="edge">
<title>random&#45;&gt;tempFile</title>
<path fill="none" stroke="#000000" d="M159.9045,-1130.1232C252.8676,-1127.0752 412.0864,-1121.8547 493.6645,-1119.1799"/>
<polygon fill="#000000" stroke="#000000" points="493.8145,-1122.677 503.6944,-1118.851 493.585,-1115.6807 493.8145,-1122.677"/>
</g>
<!-- parseutils -->
<g id="node25" class="node">
<title>parseutils</title>
<polygon fill="#98fb98" stroke="#000000" points="170.4501,-18.3499 170.4501,-38.6336 121.957,-52.9764 53.3774,-52.9764 4.8843,-38.6336 4.8843,-18.3499 53.3774,-4.0071 121.957,-4.0071 170.4501,-18.3499"/>
<polygon fill="none" stroke="#000000" points="174.4567,-15.3642 174.4567,-41.6193 122.5382,-56.9752 52.7962,-56.9752 .8776,-41.6193 .8776,-15.3642 52.7962,-.0083 122.5382,-.0083 174.4567,-15.3642"/>
<text text-anchor="middle" x="87.6672" y="-21.2917" font-family="Times,serif" font-size="24.00" fill="#000000">parseutils</text>
</g>
<!-- parseutils&#45;&gt;parseNumber -->
<g id="edge40" class="edge">
<title>parseutils&#45;&gt;parseNumber</title>
<path fill="none" stroke="#000000" d="M174.5237,-40.4527C264.3624,-52.8244 402.4599,-71.8417 482.2772,-82.8333"/>
<polygon fill="#000000" stroke="#000000" points="481.8064,-86.3014 492.1904,-84.1984 482.7614,-79.3669 481.8064,-86.3014"/>
</g>
<!-- math -->
<g id="node28" class="node">
<title>math</title>
<ellipse fill="none" stroke="#ff0000" cx="87.6672" cy="-1360.4917" rx="45.4944" ry="22.7556"/>
<text text-anchor="middle" x="87.6672" y="-1353.2917" font-family="Times,serif" font-size="24.00" fill="#000000">math</text>
</g>
<!-- math&#45;&gt;runFunction -->
<g id="edge47" class="edge">
<title>math&#45;&gt;runFunction</title>
<path fill="none" stroke="#ff0000" d="M126.672,-1348.9817C209.6482,-1324.4961 403.562,-1267.2737 495.3276,-1240.1944"/>
<polygon fill="#ff0000" stroke="#ff0000" points="496.341,-1243.5447 504.9415,-1237.3575 494.3598,-1236.8309 496.341,-1243.5447"/>
</g>
<!-- math&#45;&gt;timer -->
<g id="edge79" class="edge">
<title>math&#45;&gt;timer</title>
<path fill="none" stroke="#ff0000" d="M132.3657,-1364.8885C221.9526,-1373.7006 422.1055,-1393.3884 506.4722,-1401.6871"/>
<polygon fill="#ff0000" stroke="#ff0000" points="506.3496,-1405.1918 516.6442,-1402.6876 507.0349,-1398.2254 506.3496,-1405.1918"/>
</g>
<!-- algorithm -->
<g id="node29" class="node">
<title>algorithm</title>
<polygon fill="#98fb98" stroke="#000000" points="171.4941,-1206.3499 171.4941,-1226.6336 122.3894,-1240.9764 52.9449,-1240.9764 3.8402,-1226.6336 3.8402,-1206.3499 52.9449,-1192.0071 122.3894,-1192.0071 171.4941,-1206.3499"/>
<polygon fill="none" stroke="#000000" points="175.5018,-1203.3538 175.5018,-1229.6297 122.964,-1244.9752 52.3704,-1244.9752 -.1675,-1229.6297 -.1675,-1203.3538 52.3704,-1188.0083 122.964,-1188.0083 175.5018,-1203.3538"/>
<text text-anchor="middle" x="87.6672" y="-1209.2917" font-family="Times,serif" font-size="24.00" fill="#000000">algorithm</text>
</g>
<!-- algorithm&#45;&gt;runFunction -->
<g id="edge49" class="edge">
<title>algorithm&#45;&gt;runFunction</title>
<path fill="none" stroke="#000000" d="M175.604,-1218.2217C265.1511,-1219.9833 401.8166,-1222.6719 481.4387,-1224.2383"/>
<polygon fill="#000000" stroke="#000000" points="481.742,-1227.7449 491.8089,-1224.4423 481.8798,-1220.7462 481.742,-1227.7449"/>
</g>
<!-- unicode -->
<g id="node30" class="node">
<title>unicode</title>
<polygon fill="#98fb98" stroke="#000000" points="157.9587,-231.3499 157.9587,-251.6336 116.7829,-265.9764 58.5514,-265.9764 17.3756,-251.6336 17.3756,-231.3499 58.5514,-217.0071 116.7829,-217.0071 157.9587,-231.3499"/>
<polygon fill="none" stroke="#000000" points="161.953,-228.5072 161.953,-254.4763 117.4579,-269.9752 57.8764,-269.9752 13.3814,-254.4763 13.3814,-228.5072 57.8764,-213.0083 117.4579,-213.0083 161.953,-228.5072"/>
<text text-anchor="middle" x="87.6672" y="-234.2917" font-family="Times,serif" font-size="24.00" fill="#000000">unicode</text>
</g>
<!-- unicode&#45;&gt;unicodes -->
<g id="edge50" class="edge">
<title>unicode&#45;&gt;unicodes</title>
<path fill="none" stroke="#000000" d="M162.1882,-234.6502C255.5992,-226.0745 413.2373,-211.6023 494.0394,-204.1842"/>
<polygon fill="#000000" stroke="#000000" points="494.8074,-207.6285 504.4455,-203.2288 494.1674,-200.6578 494.8074,-207.6285"/>
</g>
<!-- json -->
<g id="node35" class="node">
<title>json</title>
<polygon fill="#98fb98" stroke="#000000" points="130.4119,-1281.3499 130.4119,-1301.6336 105.3726,-1315.9764 69.9617,-1315.9764 44.9224,-1301.6336 44.9224,-1281.3499 69.9617,-1267.0071 105.3726,-1267.0071 130.4119,-1281.3499"/>
<polygon fill="none" stroke="#000000" points="134.4006,-1279.0291 134.4006,-1303.9544 106.4317,-1319.9752 68.9026,-1319.9752 40.9337,-1303.9544 40.9337,-1279.0291 68.9026,-1263.0083 106.4317,-1263.0083 134.4006,-1279.0291"/>
<text text-anchor="middle" x="87.6672" y="-1284.2917" font-family="Times,serif" font-size="24.00" fill="#000000">json</text>
</g>
<!-- json&#45;&gt;readjson -->
<g id="edge61" class="edge">
<title>json&#45;&gt;readjson</title>
<path fill="none" stroke="#000000" d="M134.4761,-1295.7891C221.3318,-1303.763 406.6727,-1320.7785 495.5749,-1328.9403"/>
<polygon fill="#000000" stroke="#000000" points="495.391,-1332.438 505.6692,-1329.867 496.031,-1325.4673 495.391,-1332.438"/>
</g>
<!-- rdstdin -->
<g id="node39" class="node">
<title>rdstdin</title>
<polygon fill="#98fb98" stroke="#000000" points="150.7241,-306.3499 150.7241,-326.6336 113.7862,-340.9764 61.5481,-340.9764 24.6102,-326.6336 24.6102,-306.3499 61.5481,-292.0071 113.7862,-292.0071 150.7241,-306.3499"/>
<polygon fill="none" stroke="#000000" points="154.7106,-303.6098 154.7106,-329.3737 114.5308,-344.9752 60.8035,-344.9752 20.6237,-329.3737 20.6237,-303.6098 60.8035,-288.0083 114.5308,-288.0083 154.7106,-303.6098"/>
<text text-anchor="middle" x="87.6672" y="-309.2917" font-family="Times,serif" font-size="24.00" fill="#000000">rdstdin</text>
</g>
<!-- rdstdin&#45;&gt;repl -->
<g id="edge74" class="edge">
<title>rdstdin&#45;&gt;repl</title>
<path fill="none" stroke="#000000" d="M155.1706,-307.1959C253.21,-293.6949 431.6524,-269.1217 508.4234,-258.5496"/>
<polygon fill="#000000" stroke="#000000" points="509.1334,-261.9849 518.5624,-257.1534 508.1783,-255.0504 509.1334,-261.9849"/>
</g>
</g>
</svg>
