<?xml version="1.0" encoding="UTF-8" standalone="no"?>
<!DOCTYPE svg PUBLIC "-//W3C//DTD SVG 1.1//EN"
 "http://www.w3.org/Graphics/SVG/1.1/DTD/svg11.dtd">
<!-- Generated by graphviz version 2.40.1 (20161225.0304)
 -->
<!-- Title: statictea Pages: 1 -->
<svg width="720pt" height="357pt"
 viewBox="0.00 0.00 720.00 356.99" xmlns="http://www.w3.org/2000/svg" xmlns:xlink="http://www.w3.org/1999/xlink">
<g id="graph0" class="graph" transform="scale(.2346 .2346) rotate(0) translate(4 1517.565)">
<title>statictea</title>
<polygon fill="#ffffff" stroke="transparent" points="-4,4 -4,-1517.565 3064.7834,-1517.565 3064.7834,4 -4,4"/>
<!-- runFunction -->
<g id="node1" class="node">
<title>runFunction</title>
<g id="a_node1"><a xlink:href="runFunction.md" xlink:title="runFunction.md">
<ellipse fill="#eee8aa" stroke="#000000" cx="1018.4153" cy="-1004" rx="94.055" ry="22.7556"/>
<text text-anchor="middle" x="1018.4153" y="-996.8" font-family="Times,serif" font-size="24.00" fill="#000000">runFunction</text>
</a>
</g>
</g>
<!-- parseNumber -->
<g id="node3" class="node">
<title>parseNumber</title>
<g id="a_node3"><a xlink:href="parseNumber.md" xlink:title="parseNumber.md">
<polygon fill="#98fb98" stroke="#000000" points="1546.7958,-839.8581 1546.7958,-860.1419 1481.5506,-874.4846 1389.28,-874.4846 1324.0348,-860.1419 1324.0348,-839.8581 1389.28,-825.5154 1481.5506,-825.5154 1546.7958,-839.8581"/>
<polygon fill="none" stroke="#000000" points="1550.8025,-836.6442 1550.8025,-863.3558 1481.9867,-878.4835 1388.8439,-878.4835 1320.0281,-863.3558 1320.0281,-836.6442 1388.8439,-821.5165 1481.9867,-821.5165 1550.8025,-836.6442"/>
<text text-anchor="middle" x="1435.4153" y="-842.8" font-family="Times,serif" font-size="24.00" fill="#000000">parseNumber</text>
</a>
</g>
</g>
<!-- runFunction&#45;&gt;parseNumber -->
<g id="edge56" class="edge">
<title>runFunction&#45;&gt;parseNumber</title>
<path fill="none" stroke="#000000" d="M1069.9659,-984.9621C1142.7739,-958.0738 1276.1877,-908.8035 1360.1001,-877.8143"/>
<polygon fill="#000000" stroke="#000000" points="1361.4068,-881.0628 1369.575,-874.3151 1358.9817,-874.4963 1361.4068,-881.0628"/>
</g>
<!-- regexes -->
<g id="node4" class="node">
<title>regexes</title>
<g id="a_node4"><a xlink:href="regexes.md" xlink:title="regexes.md">
<polygon fill="#98fb98" stroke="#000000" points="1634.6023,-532.8581 1634.6023,-553.1419 1594.6593,-567.4846 1538.1713,-567.4846 1498.2283,-553.1419 1498.2283,-532.8581 1538.1713,-518.5154 1594.6593,-518.5154 1634.6023,-532.8581"/>
<polygon fill="none" stroke="#000000" points="1638.5934,-530.0434 1638.5934,-555.9566 1595.3529,-571.4835 1537.4777,-571.4835 1494.2372,-555.9566 1494.2372,-530.0434 1537.4777,-514.5165 1595.3529,-514.5165 1638.5934,-530.0434"/>
<text text-anchor="middle" x="1566.4153" y="-535.8" font-family="Times,serif" font-size="24.00" fill="#000000">regexes</text>
</a>
</g>
</g>
<!-- runFunction&#45;&gt;regexes -->
<g id="edge55" class="edge">
<title>runFunction&#45;&gt;regexes</title>
<path fill="none" stroke="#000000" d="M1050.2773,-982.5313C1085.7498,-958.2854 1144.4067,-917.1584 1192.4153,-878.4917 1320.9497,-774.9689 1463.7872,-641.2066 1529.5721,-578.4548"/>
<polygon fill="#000000" stroke="#000000" points="1532.0163,-580.9603 1536.8294,-571.5218 1527.1809,-575.8987 1532.0163,-580.9603"/>
</g>
<!-- unicodes -->
<g id="node8" class="node">
<title>unicodes</title>
<g id="a_node8"><a xlink:href="unicodes.md" xlink:title="unicodes.md">
<ellipse fill="#eee8aa" stroke="#000000" cx="568.4153" cy="-543" rx="71.7778" ry="22.7556"/>
<text text-anchor="middle" x="568.4153" y="-535.8" font-family="Times,serif" font-size="24.00" fill="#000000">unicodes</text>
</a>
</g>
</g>
<!-- runFunction&#45;&gt;unicodes -->
<g id="edge65" class="edge">
<title>runFunction&#45;&gt;unicodes</title>
<path fill="none" stroke="#000000" d="M957.1224,-986.7602C853.8811,-954.0197 648.2741,-872.0185 563.4153,-718.6274 538.7157,-673.9804 548.4289,-612.6955 558.1288,-575.5775"/>
<polygon fill="#000000" stroke="#000000" points="561.5453,-576.3541 560.8357,-565.7831 554.7982,-574.4893 561.5453,-576.3541"/>
</g>
<!-- vartypes -->
<g id="node11" class="node">
<title>vartypes</title>
<g id="a_node11"><a xlink:href="vartypes.md" xlink:title="vartypes.md">
<ellipse fill="#eee8aa" stroke="#000000" cx="1005.4153" cy="-543" rx="68.6102" ry="22.7556"/>
<text text-anchor="middle" x="1005.4153" y="-535.8" font-family="Times,serif" font-size="24.00" fill="#000000">vartypes</text>
</a>
</g>
</g>
<!-- runFunction&#45;&gt;vartypes -->
<g id="edge54" class="edge">
<title>runFunction&#45;&gt;vartypes</title>
<path fill="none" stroke="#000000" d="M989.2348,-982.3431C961.6658,-959.8894 922.1211,-922.0143 905.4153,-878.4917 896.3397,-854.8477 899.9312,-846.2334 905.4153,-821.5083 916.3412,-772.2488 935.537,-765.8104 953.4153,-718.6274 971.9259,-669.7759 988.0934,-611.2968 997.3021,-575.6647"/>
<polygon fill="#000000" stroke="#000000" points="1000.735,-576.3672 999.8213,-565.8118 993.9532,-574.6331 1000.735,-576.3672"/>
</g>
<!-- funtypes -->
<g id="node14" class="node">
<title>funtypes</title>
<g id="a_node14"><a xlink:href="funtypes.md" xlink:title="funtypes.md">
<ellipse fill="#eee8aa" stroke="#000000" cx="874.4153" cy="-696" rx="69.5163" ry="22.7556"/>
<text text-anchor="middle" x="874.4153" y="-688.8" font-family="Times,serif" font-size="24.00" fill="#000000">funtypes</text>
</a>
</g>
</g>
<!-- runFunction&#45;&gt;funtypes -->
<g id="edge70" class="edge">
<title>runFunction&#45;&gt;funtypes</title>
<path fill="none" stroke="#000000" d="M979.284,-983.4039C943.9437,-962.3526 894.2396,-926.0327 872.4153,-878.4917 850.1829,-830.0616 858.0263,-766.4988 866.0231,-728.5908"/>
<polygon fill="#000000" stroke="#000000" points="869.4876,-729.1363 868.2578,-718.613 862.6568,-727.6063 869.4876,-729.1363"/>
</g>
<!-- warnings -->
<g id="node16" class="node">
<title>warnings</title>
<g id="a_node16"><a xlink:href="warnings.md" xlink:title="warnings.md">
<ellipse fill="#eee8aa" stroke="#000000" cx="884.4153" cy="-214" rx="73.5561" ry="22.7556"/>
<text text-anchor="middle" x="884.4153" y="-206.8" font-family="Times,serif" font-size="24.00" fill="#000000">warnings</text>
</a>
</g>
</g>
<!-- runFunction&#45;&gt;warnings -->
<g id="edge53" class="edge">
<title>runFunction&#45;&gt;warnings</title>
<path fill="none" stroke="#000000" d="M935.2962,-993.2893C853.3149,-979.0943 728.1696,-947.2845 642.4153,-878.4917 523.1889,-782.8474 516.3842,-721.5703 487.4153,-571.4917 475.2038,-508.2277 501.5112,-356.912 507.4153,-349.5083 546.4567,-300.5502 717.0956,-253.4223 814.8897,-229.7718"/>
<polygon fill="#000000" stroke="#000000" points="815.7915,-233.1549 824.6994,-227.4191 814.1588,-226.3479 815.7915,-233.1549"/>
</g>
<!-- signatures -->
<g id="node20" class="node">
<title>signatures</title>
<g id="a_node20"><a xlink:href="signatures.md" xlink:title="signatures.md">
<ellipse fill="#eee8aa" stroke="#000000" cx="994.4153" cy="-850" rx="80.2483" ry="22.7556"/>
<text text-anchor="middle" x="994.4153" y="-842.8" font-family="Times,serif" font-size="24.00" fill="#000000">signatures</text>
</a>
</g>
</g>
<!-- runFunction&#45;&gt;signatures -->
<g id="edge69" class="edge">
<title>runFunction&#45;&gt;signatures</title>
<path fill="none" stroke="#000000" d="M1014.874,-981.2768C1010.8327,-955.3451 1004.1872,-912.7031 999.5713,-883.0843"/>
<polygon fill="#000000" stroke="#000000" points="1002.9693,-882.1582 997.9711,-872.8165 996.0528,-883.2362 1002.9693,-882.1582"/>
</g>
<!-- opresultwarn -->
<g id="node22" class="node">
<title>opresultwarn</title>
<g id="a_node22"><a xlink:href="opresultwarn.md" xlink:title="opresultwarn.md">
<ellipse fill="#eee8aa" stroke="#000000" cx="1012.4153" cy="-378" rx="99.824" ry="22.7556"/>
<text text-anchor="middle" x="1012.4153" y="-370.8" font-family="Times,serif" font-size="24.00" fill="#000000">opresultwarn</text>
</a>
</g>
</g>
<!-- runFunction&#45;&gt;opresultwarn -->
<g id="edge71" class="edge">
<title>runFunction&#45;&gt;opresultwarn</title>
<path fill="none" stroke="#000000" d="M1034.4653,-981.2836C1050.477,-957.1154 1074.0074,-917.1146 1083.4153,-878.4917 1121.7004,-721.3169 1121.8379,-671.6495 1083.4153,-514.5083 1073.9527,-475.808 1051.4181,-435.8688 1034.2542,-409.2692"/>
<polygon fill="#000000" stroke="#000000" points="1037.0881,-407.2087 1028.6659,-400.7809 1031.2414,-411.0579 1037.0881,-407.2087"/>
</g>
<!-- messages -->
<g id="node23" class="node">
<title>messages</title>
<g id="a_node23"><a xlink:href="messages.md" xlink:title="messages.md">
<polygon fill="#98fb98" stroke="#000000" points="1548.1541,-39.8581 1548.1541,-60.1419 1500.2726,-74.4846 1432.558,-74.4846 1384.6765,-60.1419 1384.6765,-39.8581 1432.558,-25.5154 1500.2726,-25.5154 1548.1541,-39.8581"/>
<polygon fill="none" stroke="#000000" points="1552.1599,-36.883 1552.1599,-63.117 1500.8607,-78.4835 1431.9699,-78.4835 1380.6708,-63.117 1380.6708,-36.883 1431.9699,-21.5165 1500.8607,-21.5165 1552.1599,-36.883"/>
<text text-anchor="middle" x="1466.4153" y="-42.8" font-family="Times,serif" font-size="24.00" fill="#000000">messages</text>
</a>
</g>
</g>
<!-- runFunction&#45;&gt;messages -->
<g id="edge52" class="edge">
<title>runFunction&#45;&gt;messages</title>
<path fill="none" stroke="#000000" d="M1035.381,-981.664C1053.5472,-957.1619 1082.5679,-916.2817 1103.4153,-878.4917 1264.6251,-586.2685 1408.347,-208.2476 1452.5123,-88.2822"/>
<polygon fill="#000000" stroke="#000000" points="1455.8384,-89.3778 1455.9992,-78.7841 1449.2672,-86.9653 1455.8384,-89.3778"/>
</g>
<!-- matches -->
<g id="node24" class="node">
<title>matches</title>
<g id="a_node24"><a xlink:href="matches.md" xlink:title="matches.md">
<ellipse fill="#eee8aa" stroke="#000000" cx="1901.4153" cy="-696" rx="66.8311" ry="22.7556"/>
<text text-anchor="middle" x="1901.4153" y="-688.8" font-family="Times,serif" font-size="24.00" fill="#000000">matches</text>
</a>
</g>
</g>
<!-- runFunction&#45;&gt;matches -->
<g id="edge57" class="edge">
<title>runFunction&#45;&gt;matches</title>
<path fill="none" stroke="#000000" d="M1072.0836,-985.3723C1125.7326,-964.945 1208.6315,-928.3192 1268.4153,-878.4917 1292.7876,-858.1784 1284.6522,-838.5487 1311.4153,-821.5083 1355.1683,-793.6501 1684.5695,-733.7403 1831.2837,-708.074"/>
<polygon fill="#000000" stroke="#000000" points="1832.2759,-711.4538 1841.5249,-706.2861 1831.072,-704.5581 1832.2759,-711.4538"/>
</g>
<!-- opresultid -->
<g id="node2" class="node">
<title>opresultid</title>
<g id="a_node2"><a xlink:href="opresultid.md" xlink:title="opresultid.md">
<ellipse fill="#eee8aa" stroke="#000000" cx="323.4153" cy="-378" rx="79.3758" ry="22.7556"/>
<text text-anchor="middle" x="323.4153" y="-370.8" font-family="Times,serif" font-size="24.00" fill="#000000">opresultid</text>
</a>
</g>
</g>
<!-- opresultid&#45;&gt;messages -->
<g id="edge58" class="edge">
<title>opresultid&#45;&gt;messages</title>
<path fill="none" stroke="#000000" d="M332.6585,-355.2231C350.8351,-313.6593 395.4664,-226.0667 463.4153,-185.5083 615.4648,-94.7504 1149.8079,-62.906 1370.2307,-53.4656"/>
<polygon fill="#000000" stroke="#000000" points="1370.6434,-56.9514 1380.487,-53.0328 1370.3483,-49.9576 1370.6434,-56.9514"/>
</g>
<!-- opresult -->
<g id="node29" class="node">
<title>opresult</title>
<g id="a_node29"><a xlink:href="opresult.md" xlink:title="opresult.md">
<polygon fill="#98fb98" stroke="#000000" points="618.7679,-203.8581 618.7679,-224.1419 576.9705,-238.4846 517.8601,-238.4846 476.0627,-224.1419 476.0627,-203.8581 517.8601,-189.5154 576.9705,-189.5154 618.7679,-203.8581"/>
<polygon fill="none" stroke="#000000" points="622.7639,-201.0019 622.7639,-226.9981 577.6366,-242.4835 517.194,-242.4835 472.0667,-226.9981 472.0667,-201.0019 517.194,-185.5165 577.6366,-185.5165 622.7639,-201.0019"/>
<text text-anchor="middle" x="547.4153" y="-206.8" font-family="Times,serif" font-size="24.00" fill="#000000">opresult</text>
</a>
</g>
</g>
<!-- opresultid&#45;&gt;opresult -->
<g id="edge59" class="edge">
<title>opresultid&#45;&gt;opresult</title>
<path fill="none" stroke="#000000" d="M352.2408,-356.8956C390.3955,-328.9609 458.0536,-279.4256 502.8255,-246.6461"/>
<polygon fill="#000000" stroke="#000000" points="504.9057,-249.4609 510.9068,-240.7294 500.7705,-243.8128 504.9057,-249.4609"/>
</g>
<!-- cmdline -->
<g id="node5" class="node">
<title>cmdline</title>
<g id="a_node5"><a xlink:href="cmdline.md" xlink:title="cmdline.md">
<polygon fill="#98fb98" stroke="#000000" points="146.7505,-532.8581 146.7505,-553.1419 104.9633,-567.4846 45.8673,-567.4846 4.0801,-553.1419 4.0801,-532.8581 45.8673,-518.5154 104.9633,-518.5154 146.7505,-532.8581"/>
<polygon fill="none" stroke="#000000" points="150.746,-530.0021 150.746,-555.9979 105.6294,-571.4835 45.2012,-571.4835 .0846,-555.9979 .0846,-530.0021 45.2012,-514.5165 105.6294,-514.5165 150.746,-530.0021"/>
<text text-anchor="middle" x="75.4153" y="-535.8" font-family="Times,serif" font-size="24.00" fill="#000000">cmdline</text>
</a>
</g>
</g>
<!-- parseCmdLine -->
<g id="node6" class="node">
<title>parseCmdLine</title>
<g id="a_node6"><a xlink:href="parseCmdLine.md" xlink:title="parseCmdLine.md">
<ellipse fill="#eee8aa" stroke="#000000" cx="2471.4153" cy="-850" rx="111.4463" ry="22.7556"/>
<text text-anchor="middle" x="2471.4153" y="-842.8" font-family="Times,serif" font-size="24.00" fill="#000000">parseCmdLine</text>
</a>
</g>
</g>
<!-- parseCmdLine&#45;&gt;regexes -->
<g id="edge20" class="edge">
<title>parseCmdLine&#45;&gt;regexes</title>
<path fill="none" stroke="#000000" d="M2417.9091,-830.1511C2327.4998,-796.7743 2138.5899,-727.7293 1977.4153,-673.3726 1857.4504,-632.914 1716.6124,-589.0116 1634.8395,-563.8739"/>
<polygon fill="#000000" stroke="#000000" points="1635.7523,-560.493 1625.1654,-560.9028 1633.6971,-567.1845 1635.7523,-560.493"/>
</g>
<!-- env -->
<g id="node7" class="node">
<title>env</title>
<g id="a_node7"><a xlink:href="env.md" xlink:title="env.md">
<ellipse fill="#eee8aa" stroke="#000000" cx="2256.4153" cy="-696" rx="35.6342" ry="22.7556"/>
<text text-anchor="middle" x="2256.4153" y="-688.8" font-family="Times,serif" font-size="24.00" fill="#000000">env</text>
</a>
</g>
</g>
<!-- parseCmdLine&#45;&gt;env -->
<g id="edge19" class="edge">
<title>parseCmdLine&#45;&gt;env</title>
<path fill="none" stroke="#000000" d="M2440.611,-827.9356C2400.1773,-798.9737 2329.538,-748.3762 2288.4851,-718.9709"/>
<polygon fill="#000000" stroke="#000000" points="2290.3633,-716.011 2280.1955,-713.0332 2286.2871,-721.7018 2290.3633,-716.011"/>
</g>
<!-- parseCmdLine&#45;&gt;messages -->
<g id="edge21" class="edge">
<title>parseCmdLine&#45;&gt;messages</title>
<path fill="none" stroke="#000000" d="M2471.4153,-827.277C2471.4153,-776.3773 2471.4153,-649.3307 2471.4153,-543 2471.4153,-543 2471.4153,-543 2471.4153,-378 2471.4153,-187.9214 1813.5037,-90.7056 1562.3095,-60.5152"/>
<polygon fill="#000000" stroke="#000000" points="1562.4451,-57.0067 1552.101,-59.2983 1561.6164,-63.9575 1562.4451,-57.0067"/>
</g>
<!-- parseCmdLine&#45;&gt;matches -->
<g id="edge22" class="edge">
<title>parseCmdLine&#45;&gt;matches</title>
<path fill="none" stroke="#000000" d="M2404.3529,-831.8814C2293.0556,-801.8116 2071.7685,-742.0252 1963.7072,-712.8297"/>
<polygon fill="#000000" stroke="#000000" points="1964.4912,-709.4161 1953.9245,-710.1867 1962.6654,-716.1738 1964.4912,-709.4161"/>
</g>
<!-- tempFile -->
<g id="node10" class="node">
<title>tempFile</title>
<g id="a_node10"><a xlink:href="tempFile.md" xlink:title="tempFile.md">
<polygon fill="#98fb98" stroke="#000000" points="2205.0133,-532.8581 2205.0133,-553.1419 2159.5574,-567.4846 2095.2732,-567.4846 2049.8173,-553.1419 2049.8173,-532.8581 2095.2732,-518.5154 2159.5574,-518.5154 2205.0133,-532.8581"/>
<polygon fill="none" stroke="#000000" points="2209.0157,-529.9275 2209.0157,-556.0725 2160.1744,-571.4835 2094.6562,-571.4835 2045.8149,-556.0725 2045.8149,-529.9275 2094.6562,-514.5165 2160.1744,-514.5165 2209.0157,-529.9275"/>
<text text-anchor="middle" x="2127.4153" y="-535.8" font-family="Times,serif" font-size="24.00" fill="#000000">tempFile</text>
</a>
</g>
</g>
<!-- env&#45;&gt;tempFile -->
<g id="edge10" class="edge">
<title>env&#45;&gt;tempFile</title>
<path fill="none" stroke="#000000" d="M2239.5508,-675.9979C2218.925,-651.5347 2183.6154,-609.6559 2158.1216,-579.4191"/>
<polygon fill="#000000" stroke="#000000" points="2160.6615,-577.0018 2151.5397,-571.6127 2155.3099,-581.514 2160.6615,-577.0018"/>
</g>
<!-- env&#45;&gt;warnings -->
<g id="edge12" class="edge">
<title>env&#45;&gt;warnings</title>
<path fill="none" stroke="#000000" d="M2258.7842,-673.23C2261.4106,-634.9375 2260.6655,-557.6163 2218.4153,-514.5083 2040.5978,-333.0805 1227.7653,-244.976 965.9376,-220.9574"/>
<polygon fill="#000000" stroke="#000000" points="966.0179,-217.4503 955.7417,-220.029 965.3831,-224.4214 966.0179,-217.4503"/>
</g>
<!-- args -->
<g id="node21" class="node">
<title>args</title>
<g id="a_node21"><a xlink:href="args.md" xlink:title="args.md">
<polygon fill="#98fb98" stroke="#000000" points="2023.9645,-532.8581 2023.9645,-553.1419 1999.0398,-567.4846 1963.7909,-567.4846 1938.8661,-553.1419 1938.8661,-532.8581 1963.7909,-518.5154 1999.0398,-518.5154 2023.9645,-532.8581"/>
<polygon fill="none" stroke="#000000" points="2027.9667,-530.5466 2027.9667,-555.4534 2000.1099,-571.4835 1962.7208,-571.4835 1934.8639,-555.4534 1934.8639,-530.5466 1962.7208,-514.5165 2000.1099,-514.5165 2027.9667,-530.5466"/>
<text text-anchor="middle" x="1981.4153" y="-535.8" font-family="Times,serif" font-size="24.00" fill="#000000">args</text>
</a>
</g>
</g>
<!-- env&#45;&gt;args -->
<g id="edge13" class="edge">
<title>env&#45;&gt;args</title>
<path fill="none" stroke="#000000" d="M2229.2946,-680.911C2181.704,-654.4333 2082.7667,-599.3883 2025.3195,-567.4267"/>
<polygon fill="#000000" stroke="#000000" points="2026.9103,-564.3065 2016.47,-562.5032 2023.507,-570.4236 2026.9103,-564.3065"/>
</g>
<!-- env&#45;&gt;messages -->
<g id="edge11" class="edge">
<title>env&#45;&gt;messages</title>
<path fill="none" stroke="#000000" d="M2260.2868,-673.3171C2265.2883,-637.7518 2270.8062,-567.4622 2247.4153,-514.5083 2164.1139,-325.9251 2097.3213,-291.3713 1920.4153,-185.5083 1807.423,-117.892 1658.2142,-81.8519 1562.268,-64.3373"/>
<polygon fill="#000000" stroke="#000000" points="1562.7465,-60.8674 1552.2856,-62.5469 1561.5106,-67.7574 1562.7465,-60.8674"/>
</g>
<!-- unicodes&#45;&gt;opresultid -->
<g id="edge60" class="edge">
<title>unicodes&#45;&gt;opresultid</title>
<path fill="none" stroke="#000000" d="M537.8813,-522.4363C493.713,-492.6903 411.9551,-437.6288 363.1426,-404.7551"/>
<polygon fill="#000000" stroke="#000000" points="364.9713,-401.767 354.7218,-399.084 361.0611,-407.5731 364.9713,-401.767"/>
</g>
<!-- utf8decoder -->
<g id="node15" class="node">
<title>utf8decoder</title>
<g id="a_node15"><a xlink:href="utf8decoder.md" xlink:title="utf8decoder.md">
<polygon fill="#98fb98" stroke="#000000" points="738.3449,-367.8581 738.3449,-388.1419 679.8075,-402.4846 597.0231,-402.4846 538.4857,-388.1419 538.4857,-367.8581 597.0231,-353.5154 679.8075,-353.5154 738.3449,-367.8581"/>
<polygon fill="none" stroke="#000000" points="742.3435,-364.7208 742.3435,-391.2792 680.2902,-406.4835 596.5404,-406.4835 534.4871,-391.2792 534.4871,-364.7208 596.5404,-349.5165 680.2902,-349.5165 742.3435,-364.7208"/>
<text text-anchor="middle" x="638.4153" y="-370.8" font-family="Times,serif" font-size="24.00" fill="#000000">utf8decoder</text>
</a>
</g>
</g>
<!-- unicodes&#45;&gt;utf8decoder -->
<g id="edge64" class="edge">
<title>unicodes&#45;&gt;utf8decoder</title>
<path fill="none" stroke="#000000" d="M578.0017,-520.4034C589.3694,-493.6081 608.4973,-448.521 622.1856,-416.2558"/>
<polygon fill="#000000" stroke="#000000" points="625.5609,-417.2613 626.2444,-406.6885 619.1168,-414.5274 625.5609,-417.2613"/>
</g>
<!-- unicodes&#45;&gt;warnings -->
<g id="edge63" class="edge">
<title>unicodes&#45;&gt;warnings</title>
<path fill="none" stroke="#000000" d="M553.3292,-520.8658C529.2753,-482.5519 488.5253,-402.8633 525.4153,-349.5083 559.3083,-300.4879 721.1829,-253.7977 815.5913,-230.1251"/>
<polygon fill="#000000" stroke="#000000" points="816.4917,-233.5079 825.3522,-227.6992 814.8033,-226.7146 816.4917,-233.5079"/>
</g>
<!-- unicodes&#45;&gt;opresultwarn -->
<g id="edge61" class="edge">
<title>unicodes&#45;&gt;opresultwarn</title>
<path fill="none" stroke="#000000" d="M615.0919,-525.654C695.6493,-495.7171 860.7691,-434.355 950.7062,-400.9324"/>
<polygon fill="#000000" stroke="#000000" points="952.0758,-404.1574 960.2302,-397.3931 949.6373,-397.5959 952.0758,-404.1574"/>
</g>
<!-- unicodes&#45;&gt;messages -->
<g id="edge62" class="edge">
<title>unicodes&#45;&gt;messages</title>
<path fill="none" stroke="#000000" d="M499.2082,-536.7515C420.1481,-525.4921 294.1535,-494.0526 235.4153,-406.4917 160.6052,-294.9726 328.5763,-219.5126 397.4153,-185.5083 567.8511,-101.3183 1141.3842,-65.3991 1370.5955,-54.168"/>
<polygon fill="#000000" stroke="#000000" points="1370.7685,-57.6638 1380.5872,-53.6834 1370.4294,-50.6721 1370.7685,-57.6638"/>
</g>
<!-- variables -->
<g id="node9" class="node">
<title>variables</title>
<g id="a_node9"><a xlink:href="variables.md" xlink:title="variables.md">
<ellipse fill="#eee8aa" stroke="#000000" cx="1667.4153" cy="-696" rx="72.6337" ry="22.7556"/>
<text text-anchor="middle" x="1667.4153" y="-688.8" font-family="Times,serif" font-size="24.00" fill="#000000">variables</text>
</a>
</g>
</g>
<!-- variables&#45;&gt;vartypes -->
<g id="edge42" class="edge">
<title>variables&#45;&gt;vartypes</title>
<path fill="none" stroke="#000000" d="M1608.9576,-682.4894C1485.9311,-654.0558 1200.9887,-588.2005 1071.5386,-558.2823"/>
<polygon fill="#000000" stroke="#000000" points="1072.2748,-554.8602 1061.7435,-556.0184 1070.6985,-561.6805 1072.2748,-554.8602"/>
</g>
<!-- variables&#45;&gt;warnings -->
<g id="edge45" class="edge">
<title>variables&#45;&gt;warnings</title>
<path fill="none" stroke="#000000" d="M1671.7706,-673.225C1677.5355,-635.949 1683.1864,-561.3792 1647.4153,-514.5083 1479.6477,-294.6825 1127.2221,-235.4396 966.9297,-219.6488"/>
<polygon fill="#000000" stroke="#000000" points="966.9402,-216.1341 956.6534,-218.6703 966.2766,-223.1025 966.9402,-216.1341"/>
</g>
<!-- variables&#45;&gt;args -->
<g id="edge46" class="edge">
<title>variables&#45;&gt;args</title>
<path fill="none" stroke="#000000" d="M1706.5487,-676.9318C1764.5633,-648.6636 1873.1787,-595.7395 1935.0849,-565.575"/>
<polygon fill="#000000" stroke="#000000" points="1936.7797,-568.6426 1944.2362,-561.1159 1933.7135,-562.3499 1936.7797,-568.6426"/>
</g>
<!-- variables&#45;&gt;opresultwarn -->
<g id="edge47" class="edge">
<title>variables&#45;&gt;opresultwarn</title>
<path fill="none" stroke="#000000" d="M1627.9172,-676.8238C1514.9922,-621.9991 1190.7745,-464.5927 1064.0532,-403.07"/>
<polygon fill="#000000" stroke="#000000" points="1065.4415,-399.8534 1054.917,-398.6344 1062.3842,-406.1505 1065.4415,-399.8534"/>
</g>
<!-- variables&#45;&gt;messages -->
<g id="edge44" class="edge">
<title>variables&#45;&gt;messages</title>
<path fill="none" stroke="#000000" d="M1671.4067,-673.3409C1676.76,-638.6862 1684.3018,-570.6314 1672.4153,-514.5083 1636.7153,-345.9476 1535.5832,-164.2135 1489.6393,-87.5201"/>
<polygon fill="#000000" stroke="#000000" points="1492.4793,-85.452 1484.318,-78.696 1486.4849,-89.0669 1492.4793,-85.452"/>
</g>
<!-- version -->
<g id="node25" class="node">
<title>version</title>
<g id="a_node25"><a xlink:href="version.md" xlink:title="version.md">
<polygon fill="#98fb98" stroke="#000000" points="2439.5676,-532.8581 2439.5676,-553.1419 2400.8165,-567.4846 2346.0141,-567.4846 2307.263,-553.1419 2307.263,-532.8581 2346.0141,-518.5154 2400.8165,-518.5154 2439.5676,-532.8581"/>
<polygon fill="none" stroke="#000000" points="2443.5574,-530.0721 2443.5574,-555.9279 2401.5296,-571.4835 2345.301,-571.4835 2303.2732,-555.9279 2303.2732,-530.0721 2345.301,-514.5165 2401.5296,-514.5165 2443.5574,-530.0721"/>
<text text-anchor="middle" x="2373.4153" y="-535.8" font-family="Times,serif" font-size="24.00" fill="#000000">version</text>
</a>
</g>
</g>
<!-- variables&#45;&gt;version -->
<g id="edge43" class="edge">
<title>variables&#45;&gt;version</title>
<path fill="none" stroke="#000000" d="M1727.3039,-683.0213C1855.3296,-655.2764 2155.4814,-590.2293 2297.0093,-559.5582"/>
<polygon fill="#000000" stroke="#000000" points="2297.8889,-562.949 2306.9207,-557.4103 2296.4062,-556.1078 2297.8889,-562.949"/>
</g>
<!-- vartypes&#45;&gt;warnings -->
<g id="edge34" class="edge">
<title>vartypes&#45;&gt;warnings</title>
<path fill="none" stroke="#000000" d="M983.0447,-521.2243C958.7918,-496.0828 921.1766,-452.2778 903.4153,-406.4917 882.8341,-353.4363 881.1752,-286.2732 882.4054,-246.9287"/>
<polygon fill="#000000" stroke="#000000" points="885.9064,-246.9712 882.8043,-236.8407 878.9119,-246.6946 885.9064,-246.9712"/>
</g>
<!-- vartypes&#45;&gt;opresultwarn -->
<g id="edge37" class="edge">
<title>vartypes&#45;&gt;opresultwarn</title>
<path fill="none" stroke="#000000" d="M1006.3886,-520.0575C1007.5902,-491.7354 1009.6424,-443.3616 1011.0136,-411.041"/>
<polygon fill="#000000" stroke="#000000" points="1014.5232,-410.8871 1011.4503,-400.7477 1007.5294,-410.5903 1014.5232,-410.8871"/>
</g>
<!-- replacement -->
<g id="node12" class="node">
<title>replacement</title>
<g id="a_node12"><a xlink:href="replacement.md" xlink:title="replacement.md">
<ellipse fill="#eee8aa" stroke="#000000" cx="1950.4153" cy="-1004" rx="94.4556" ry="22.7556"/>
<text text-anchor="middle" x="1950.4153" y="-996.8" font-family="Times,serif" font-size="24.00" fill="#000000">replacement</text>
</a>
</g>
</g>
<!-- replacement&#45;&gt;parseNumber -->
<g id="edge95" class="edge">
<title>replacement&#45;&gt;parseNumber</title>
<path fill="none" stroke="#000000" d="M1891.3383,-986.3342C1800.1281,-959.0598 1624.6407,-906.5839 1519.993,-875.2912"/>
<polygon fill="#000000" stroke="#000000" points="1520.9876,-871.9355 1510.404,-872.4238 1518.9821,-878.6421 1520.9876,-871.9355"/>
</g>
<!-- replacement&#45;&gt;regexes -->
<g id="edge86" class="edge">
<title>replacement&#45;&gt;regexes</title>
<path fill="none" stroke="#000000" d="M1940.6414,-981.4568C1915.3138,-924.8335 1842.955,-773.9803 1749.4153,-673.3726 1710.8926,-631.9391 1657.2837,-595.6084 1618.0461,-571.8971"/>
<polygon fill="#000000" stroke="#000000" points="1619.7832,-568.8579 1609.4028,-566.737 1616.1949,-574.8683 1619.7832,-568.8579"/>
</g>
<!-- replacement&#45;&gt;parseCmdLine -->
<g id="edge89" class="edge">
<title>replacement&#45;&gt;parseCmdLine</title>
<path fill="none" stroke="#000000" d="M2009.9268,-986.4093C2105.8869,-958.0449 2294.5266,-902.2857 2398.4453,-871.5689"/>
<polygon fill="#000000" stroke="#000000" points="2399.6338,-874.8673 2408.2315,-868.6762 2397.6495,-868.1544 2399.6338,-874.8673"/>
</g>
<!-- replacement&#45;&gt;env -->
<g id="edge87" class="edge">
<title>replacement&#45;&gt;env</title>
<path fill="none" stroke="#000000" d="M1959.6586,-981.256C1975.5217,-944.3278 2010.8697,-870.5308 2058.4153,-821.5083 2105.4374,-773.0255 2174.6988,-734.6592 2217.6073,-713.6668"/>
<polygon fill="#000000" stroke="#000000" points="2219.3793,-716.6982 2226.8696,-709.2051 2216.3414,-710.3917 2219.3793,-716.6982"/>
</g>
<!-- replacement&#45;&gt;variables -->
<g id="edge93" class="edge">
<title>replacement&#45;&gt;variables</title>
<path fill="none" stroke="#000000" d="M1918.1106,-982.6711C1884.4235,-959.4874 1831.2201,-920.143 1792.4153,-878.4917 1747.7705,-830.5721 1707.1327,-765.5068 1684.9773,-727.4085"/>
<polygon fill="#000000" stroke="#000000" points="1687.7738,-725.2509 1679.7516,-718.3303 1681.7071,-728.7431 1687.7738,-725.2509"/>
</g>
<!-- replacement&#45;&gt;tempFile -->
<g id="edge94" class="edge">
<title>replacement&#45;&gt;tempFile</title>
<path fill="none" stroke="#000000" d="M1957.4105,-981.3409C1968.2473,-946.6584 1990.0762,-878.4388 2011.4153,-821.5083 2044.0385,-734.4732 2087.1724,-634.2764 2110.5697,-580.9856"/>
<polygon fill="#000000" stroke="#000000" points="2113.8779,-582.1574 2114.7019,-571.5947 2107.4707,-579.3381 2113.8779,-582.1574"/>
</g>
<!-- replacement&#45;&gt;vartypes -->
<g id="edge88" class="edge">
<title>replacement&#45;&gt;vartypes</title>
<path fill="none" stroke="#000000" d="M1908.5905,-983.5966C1754.3175,-908.3375 1217.6428,-646.5311 1053.4911,-566.4529"/>
<polygon fill="#000000" stroke="#000000" points="1054.6529,-563.1254 1044.1307,-561.8866 1051.5837,-569.4167 1054.6529,-563.1254"/>
</g>
<!-- readlines -->
<g id="node13" class="node">
<title>readlines</title>
<g id="a_node13"><a xlink:href="readlines.md" xlink:title="readlines.md">
<polygon fill="#98fb98" stroke="#000000" points="2262.0047,-839.8581 2262.0047,-860.1419 2215.9681,-874.4846 2150.8625,-874.4846 2104.826,-860.1419 2104.826,-839.8581 2150.8625,-825.5154 2215.9681,-825.5154 2262.0047,-839.8581"/>
<polygon fill="none" stroke="#000000" points="2266.0069,-836.9163 2266.0069,-863.0837 2216.5776,-878.4835 2150.253,-878.4835 2100.8237,-863.0837 2100.8237,-836.9163 2150.253,-821.5165 2216.5776,-821.5165 2266.0069,-836.9163"/>
<text text-anchor="middle" x="2183.4153" y="-842.8" font-family="Times,serif" font-size="24.00" fill="#000000">readlines</text>
</a>
</g>
</g>
<!-- replacement&#45;&gt;readlines -->
<g id="edge90" class="edge">
<title>replacement&#45;&gt;readlines</title>
<path fill="none" stroke="#000000" d="M1982.813,-982.587C2022.2836,-956.4991 2089.333,-912.1831 2134.9532,-882.0307"/>
<polygon fill="#000000" stroke="#000000" points="2137.081,-884.8198 2143.4936,-876.386 2133.2213,-878.9801 2137.081,-884.8198"/>
</g>
<!-- replacement&#45;&gt;opresultwarn -->
<g id="edge96" class="edge">
<title>replacement&#45;&gt;opresultwarn</title>
<path fill="none" stroke="#000000" d="M1939.486,-981.3972C1896.605,-893.6193 1737.7852,-577.118 1647.4153,-514.5083 1561.4786,-454.97 1266.8791,-410.0628 1110.9857,-389.8282"/>
<polygon fill="#000000" stroke="#000000" points="1111.2869,-386.3382 1100.9215,-388.5312 1110.3921,-393.2807 1111.2869,-386.3382"/>
</g>
<!-- replacement&#45;&gt;messages -->
<g id="edge92" class="edge">
<title>replacement&#45;&gt;messages</title>
<path fill="none" stroke="#000000" d="M1958.6038,-981.1041C1976.9299,-926.1481 2016.6735,-783.1895 1977.4153,-673.3726 1927.3948,-533.4502 1608.7008,-196.6808 1501.5247,-85.9549"/>
<polygon fill="#000000" stroke="#000000" points="1503.9512,-83.4295 1494.4778,-78.6856 1498.9252,-88.3018 1503.9512,-83.4295"/>
</g>
<!-- replacement&#45;&gt;matches -->
<g id="edge91" class="edge">
<title>replacement&#45;&gt;matches</title>
<path fill="none" stroke="#000000" d="M1946.8122,-981.352C1938.2462,-927.5083 1916.6351,-791.667 1906.6374,-728.8247"/>
<polygon fill="#000000" stroke="#000000" points="1910.0514,-728.007 1905.0237,-718.6812 1903.1384,-729.1069 1910.0514,-728.007"/>
</g>
<!-- funtypes&#45;&gt;vartypes -->
<g id="edge49" class="edge">
<title>funtypes&#45;&gt;vartypes</title>
<path fill="none" stroke="#000000" d="M893.1844,-674.0788C915.9474,-647.4931 954.422,-602.557 979.8721,-572.8329"/>
<polygon fill="#000000" stroke="#000000" points="982.8358,-574.7529 986.681,-564.8805 977.5185,-570.2002 982.8358,-574.7529"/>
</g>
<!-- funtypes&#45;&gt;warnings -->
<g id="edge50" class="edge">
<title>funtypes&#45;&gt;warnings</title>
<path fill="none" stroke="#000000" d="M874.8909,-673.0764C876.5132,-594.8829 881.8336,-338.4375 883.7335,-246.8639"/>
<polygon fill="#000000" stroke="#000000" points="887.2343,-246.8538 883.9426,-236.7833 880.2359,-246.7085 887.2343,-246.8538"/>
</g>
<!-- warnings&#45;&gt;messages -->
<g id="edge3" class="edge">
<title>warnings&#45;&gt;messages</title>
<path fill="none" stroke="#000000" d="M938.6458,-198.7185C1042.5344,-169.4441 1269.8915,-105.3778 1389.4458,-71.689"/>
<polygon fill="#000000" stroke="#000000" points="1390.5921,-75.0024 1399.2679,-68.9213 1388.6935,-68.2648 1390.5921,-75.0024"/>
</g>
<!-- collectCommand -->
<g id="node17" class="node">
<title>collectCommand</title>
<g id="a_node17"><a xlink:href="collectCommand.md" xlink:title="collectCommand.md">
<ellipse fill="#eee8aa" stroke="#000000" cx="2440.4153" cy="-1004" rx="127.4982" ry="22.7556"/>
<text text-anchor="middle" x="2440.4153" y="-996.8" font-family="Times,serif" font-size="24.00" fill="#000000">collectCommand</text>
</a>
</g>
</g>
<!-- collectCommand&#45;&gt;parseCmdLine -->
<g id="edge27" class="edge">
<title>collectCommand&#45;&gt;parseCmdLine</title>
<path fill="none" stroke="#000000" d="M2444.9895,-981.2768C2450.2324,-955.2314 2458.8686,-912.3287 2464.8338,-882.6954"/>
<polygon fill="#000000" stroke="#000000" points="2468.2801,-883.3105 2466.8224,-872.8165 2461.4177,-881.9291 2468.2801,-883.3105"/>
</g>
<!-- collectCommand&#45;&gt;env -->
<g id="edge24" class="edge">
<title>collectCommand&#45;&gt;env</title>
<path fill="none" stroke="#000000" d="M2481.6608,-982.4884C2539.7458,-949.3049 2634.0545,-883.0165 2591.4153,-821.5083 2557.1509,-772.0809 2382.9967,-725.6068 2300.2258,-705.9068"/>
<polygon fill="#000000" stroke="#000000" points="2300.8987,-702.4696 2290.3626,-703.5833 2299.2936,-709.2831 2300.8987,-702.4696"/>
</g>
<!-- collectCommand&#45;&gt;readlines -->
<g id="edge26" class="edge">
<title>collectCommand&#45;&gt;readlines</title>
<path fill="none" stroke="#000000" d="M2404.1386,-982.2622C2360.0205,-955.8257 2285.2484,-911.0206 2235.1134,-880.9786"/>
<polygon fill="#000000" stroke="#000000" points="2236.7381,-877.872 2226.3612,-875.7341 2233.1401,-883.8765 2236.7381,-877.872"/>
</g>
<!-- collectCommand&#45;&gt;messages -->
<g id="edge28" class="edge">
<title>collectCommand&#45;&gt;messages</title>
<path fill="none" stroke="#000000" d="M2485.3518,-982.7552C2524.5991,-961.8116 2579.925,-926.0541 2610.4153,-878.4917 2655.1268,-808.7456 2648.4153,-778.8472 2648.4153,-696 2648.4153,-696 2648.4153,-696 2648.4153,-378 2648.4153,-153.1744 1844.3679,-76.0872 1562.5791,-55.9745"/>
<polygon fill="#000000" stroke="#000000" points="1562.5954,-52.4671 1552.3739,-55.2548 1562.1029,-59.4497 1562.5954,-52.4671"/>
</g>
<!-- collectCommand&#45;&gt;matches -->
<g id="edge25" class="edge">
<title>collectCommand&#45;&gt;matches</title>
<path fill="none" stroke="#000000" d="M2424.2853,-981.3087C2389.9383,-933.0429 2312.3682,-824.3414 2308.4153,-821.5083 2206.8109,-748.687 2061.9093,-717.3108 1975.2048,-704.3982"/>
<polygon fill="#000000" stroke="#000000" points="1975.5838,-700.9167 1965.1859,-702.9498 1974.5822,-707.8446 1975.5838,-700.9167"/>
</g>
<!-- statictea -->
<g id="node18" class="node">
<title>statictea</title>
<g id="a_node18"><a xlink:href="statictea.md" xlink:title="statictea.md">
<polygon fill="#eee8aa" stroke="#000000" points="2717.5111,-1455.3667 2800.4153,-1436.0619 2883.3195,-1455.3667 2883.2422,-1486.6024 2717.5885,-1486.6024 2717.5111,-1455.3667"/>
<text text-anchor="middle" x="2800.4153" y="-1456.8" font-family="Times,serif" font-size="24.00" fill="#000000">statictea</text>
</a>
</g>
</g>
<!-- statictea&#45;&gt;env -->
<g id="edge104" class="edge">
<title>statictea&#45;&gt;env</title>
<path fill="none" stroke="#000000" d="M2797.0186,-1436.4701C2782.8431,-1325.7558 2725.0769,-914.5008 2638.4153,-821.5083 2591.5581,-771.228 2390.7765,-724.0411 2300.5856,-704.9368"/>
<polygon fill="#000000" stroke="#000000" points="2301.1716,-701.4836 2290.6658,-702.8546 2299.7335,-708.3343 2301.1716,-701.4836"/>
</g>
<!-- gethelp -->
<g id="node19" class="node">
<title>gethelp</title>
<g id="a_node19"><a xlink:href="gethelp.md" xlink:title="gethelp.md">
<polygon fill="#98fb98" stroke="#000000" points="3021.5502,-1290.8581 3021.5502,-1311.1419 2982.8093,-1325.4846 2928.0213,-1325.4846 2889.2804,-1311.1419 2889.2804,-1290.8581 2928.0213,-1276.5154 2982.8093,-1276.5154 3021.5502,-1290.8581"/>
<polygon fill="none" stroke="#000000" points="3025.5395,-1288.0722 3025.5395,-1313.9278 2983.5224,-1329.4835 2927.3082,-1329.4835 2885.2911,-1313.9278 2885.2911,-1288.0722 2927.3082,-1272.5165 2983.5224,-1272.5165 3025.5395,-1288.0722"/>
<text text-anchor="middle" x="2955.4153" y="-1293.8" font-family="Times,serif" font-size="24.00" fill="#000000">gethelp</text>
</a>
</g>
</g>
<!-- statictea&#45;&gt;gethelp -->
<g id="edge102" class="edge">
<title>statictea&#45;&gt;gethelp</title>
<path fill="none" stroke="#000000" d="M2822.2943,-1440.9918C2848.0203,-1413.9379 2891.0288,-1368.7097 2921.1806,-1337.0016"/>
<polygon fill="#000000" stroke="#000000" points="2923.8142,-1339.3112 2928.1689,-1329.6527 2918.7415,-1334.4875 2923.8142,-1339.3112"/>
</g>
<!-- statictea&#45;&gt;args -->
<g id="edge100" class="edge">
<title>statictea&#45;&gt;args</title>
<path fill="none" stroke="#000000" d="M2800.4153,-1436.0128C2800.4153,-1380.7621 2800.4153,-1253.7674 2800.4153,-1147 2800.4153,-1147 2800.4153,-1147 2800.4153,-850 2800.4153,-625.9056 2075.0193,-585.33 2036.4153,-571.4917 2032.6508,-570.1423 2028.8194,-568.5837 2025.02,-566.9051"/>
<polygon fill="#000000" stroke="#000000" points="2026.2381,-563.6107 2015.6978,-562.5365 2023.2676,-569.9493 2026.2381,-563.6107"/>
</g>
<!-- statictea&#45;&gt;messages -->
<g id="edge101" class="edge">
<title>statictea&#45;&gt;messages</title>
<path fill="none" stroke="#000000" d="M2854.9047,-1448.7411C2910.0708,-1430.2091 2992.9783,-1393.235 3034.4153,-1329.4917 3078.8598,-1261.1221 3053.4153,-1228.5458 3053.4153,-1147 3053.4153,-1147 3053.4153,-1147 3053.4153,-378 3053.4153,-203.5777 2877.4952,-238.8056 2711.4153,-185.5083 2497.268,-116.7854 1816.1547,-70.6393 1562.6732,-55.4614"/>
<polygon fill="#000000" stroke="#000000" points="1562.5717,-51.9492 1552.3812,-54.8481 1562.1553,-58.9368 1562.5717,-51.9492"/>
</g>
<!-- statictea&#45;&gt;version -->
<g id="edge103" class="edge">
<title>statictea&#45;&gt;version</title>
<path fill="none" stroke="#000000" d="M2810.8845,-1438.4268C2852.6664,-1331.8524 2996.6261,-917.2458 2814.4153,-673.3726 2771.2181,-615.5569 2569.0847,-574.3792 2454.0491,-555.1749"/>
<polygon fill="#000000" stroke="#000000" points="2454.3146,-551.6715 2443.8781,-553.4963 2453.1747,-558.5781 2454.3146,-551.6715"/>
</g>
<!-- parseCommandLine -->
<g id="node27" class="node">
<title>parseCommandLine</title>
<g id="a_node27"><a xlink:href="parseCommandLine.md" xlink:title="parseCommandLine.md">
<ellipse fill="#eee8aa" stroke="#000000" cx="291.4153" cy="-696" rx="148.8522" ry="22.7556"/>
<text text-anchor="middle" x="291.4153" y="-688.8" font-family="Times,serif" font-size="24.00" fill="#000000">parseCommandLine</text>
</a>
</g>
</g>
<!-- statictea&#45;&gt;parseCommandLine -->
<g id="edge7" class="edge">
<title>statictea&#45;&gt;parseCommandLine</title>
<path fill="none" stroke="#000000" d="M2717.4192,-1461.9702C2294.5338,-1450.5564 399.4153,-1386.0696 399.4153,-1147 399.4153,-1147 399.4153,-1147 399.4153,-1004 399.4153,-897.6726 341.3902,-781.7394 310.4033,-727.4087"/>
<polygon fill="#000000" stroke="#000000" points="313.3509,-725.5144 305.3133,-718.6117 307.292,-729.0201 313.3509,-725.5144"/>
</g>
<!-- processTemplate -->
<g id="node28" class="node">
<title>processTemplate</title>
<g id="a_node28"><a xlink:href="processTemplate.md" xlink:title="processTemplate.md">
<ellipse fill="#eee8aa" stroke="#000000" cx="2258.4153" cy="-1301" rx="125.2054" ry="22.7556"/>
<text text-anchor="middle" x="2258.4153" y="-1293.8" font-family="Times,serif" font-size="24.00" fill="#000000">processTemplate</text>
</a>
</g>
</g>
<!-- statictea&#45;&gt;processTemplate -->
<g id="edge99" class="edge">
<title>statictea&#45;&gt;processTemplate</title>
<path fill="none" stroke="#000000" d="M2747.9536,-1448.2228C2651.1184,-1419.1008 2444.0523,-1356.8281 2332.7826,-1323.3651"/>
<polygon fill="#000000" stroke="#000000" points="2333.5596,-1319.944 2322.9753,-1320.4156 2331.5436,-1326.6474 2333.5596,-1319.944"/>
</g>
<!-- signatures&#45;&gt;vartypes -->
<g id="edge66" class="edge">
<title>signatures&#45;&gt;vartypes</title>
<path fill="none" stroke="#000000" d="M995.2331,-827.1759C997.1582,-773.4491 1001.9821,-638.8166 1004.2291,-576.1062"/>
<polygon fill="#000000" stroke="#000000" points="1007.7317,-576.0933 1004.5921,-565.9743 1000.7362,-575.8426 1007.7317,-576.0933"/>
</g>
<!-- signatures&#45;&gt;funtypes -->
<g id="edge67" class="edge">
<title>signatures&#45;&gt;funtypes</title>
<path fill="none" stroke="#000000" d="M976.9663,-827.6071C956.1109,-800.8426 921.1243,-755.9432 897.9059,-726.1463"/>
<polygon fill="#000000" stroke="#000000" points="900.5981,-723.9068 891.6907,-718.1701 895.0764,-728.2094 900.5981,-723.9068"/>
</g>
<!-- signatures&#45;&gt;messages -->
<g id="edge68" class="edge">
<title>signatures&#45;&gt;messages</title>
<path fill="none" stroke="#000000" d="M1013.5023,-827.8602C1053.0773,-779.6001 1140.4153,-659.8573 1140.4153,-543 1140.4153,-543 1140.4153,-543 1140.4153,-378 1140.4153,-229.789 1309.9327,-124.7719 1404.4879,-77.7226"/>
<polygon fill="#000000" stroke="#000000" points="1406.2388,-80.7622 1413.6755,-73.2158 1403.156,-74.4776 1406.2388,-80.7622"/>
</g>
<!-- opresultwarn&#45;&gt;warnings -->
<g id="edge35" class="edge">
<title>opresultwarn&#45;&gt;warnings</title>
<path fill="none" stroke="#000000" d="M994.8858,-355.5404C972.3848,-326.7109 933.2566,-276.5779 908.1159,-244.3664"/>
<polygon fill="#000000" stroke="#000000" points="910.6449,-241.9181 901.7331,-236.1884 905.1267,-246.225 910.6449,-241.9181"/>
</g>
<!-- opresultwarn&#45;&gt;opresult -->
<g id="edge36" class="edge">
<title>opresultwarn&#45;&gt;opresult</title>
<path fill="none" stroke="#000000" d="M958.1638,-358.8661C872.3198,-328.59 705.4542,-269.7384 613.0163,-237.1367"/>
<polygon fill="#000000" stroke="#000000" points="614.0837,-233.8019 603.4889,-233.7765 611.7554,-240.4034 614.0837,-233.8019"/>
</g>
<!-- matches&#45;&gt;regexes -->
<g id="edge16" class="edge">
<title>matches&#45;&gt;regexes</title>
<path fill="none" stroke="#000000" d="M1861.3392,-677.6966C1802.1237,-650.6519 1690.9836,-599.8924 1623.3374,-568.9973"/>
<polygon fill="#000000" stroke="#000000" points="1624.6411,-565.745 1614.0909,-564.7742 1621.733,-572.1123 1624.6411,-565.745"/>
</g>
<!-- matches&#45;&gt;args -->
<g id="edge15" class="edge">
<title>matches&#45;&gt;args</title>
<path fill="none" stroke="#000000" d="M1913.2196,-673.4243C1925.9658,-649.0472 1946.4837,-609.8067 1961.6888,-580.727"/>
<polygon fill="#000000" stroke="#000000" points="1964.8902,-582.1578 1966.4222,-571.6743 1958.687,-578.9143 1964.8902,-582.1578"/>
</g>
<!-- readjson -->
<g id="node26" class="node">
<title>readjson</title>
<g id="a_node26"><a xlink:href="readjson.md" xlink:title="readjson.md">
<ellipse fill="#eee8aa" stroke="#000000" cx="641.4153" cy="-696" rx="68.6102" ry="22.7556"/>
<text text-anchor="middle" x="641.4153" y="-688.8" font-family="Times,serif" font-size="24.00" fill="#000000">readjson</text>
</a>
</g>
</g>
<!-- readjson&#45;&gt;unicodes -->
<g id="edge76" class="edge">
<title>readjson&#45;&gt;unicodes</title>
<path fill="none" stroke="#000000" d="M630.6439,-673.4243C618.1899,-647.3221 597.6049,-604.1782 583.5472,-574.7147"/>
<polygon fill="#000000" stroke="#000000" points="586.696,-573.1864 579.2309,-565.6683 580.3783,-576.2008 586.696,-573.1864"/>
</g>
<!-- readjson&#45;&gt;vartypes -->
<g id="edge73" class="edge">
<title>readjson&#45;&gt;vartypes</title>
<path fill="none" stroke="#000000" d="M683.8831,-678.1495C750.9186,-649.9725 881.0706,-595.2658 953.5361,-564.8064"/>
<polygon fill="#000000" stroke="#000000" points="955.0745,-567.9564 962.937,-560.8549 952.362,-561.5033 955.0745,-567.9564"/>
</g>
<!-- readjson&#45;&gt;utf8decoder -->
<g id="edge77" class="edge">
<title>readjson&#45;&gt;utf8decoder</title>
<path fill="none" stroke="#000000" d="M643.3308,-673.0733C645.3131,-648.1093 648.2758,-606.9968 649.4153,-571.4917 650.2277,-546.1788 650.4332,-539.8138 649.4153,-514.5083 648.0908,-481.5807 644.9761,-444.2937 642.3979,-417.0196"/>
<polygon fill="#000000" stroke="#000000" points="645.8486,-416.3391 641.405,-406.7212 638.8809,-417.0109 645.8486,-416.3391"/>
</g>
<!-- readjson&#45;&gt;warnings -->
<g id="edge75" class="edge">
<title>readjson&#45;&gt;warnings</title>
<path fill="none" stroke="#000000" d="M670.0575,-675.2913C699.2158,-652.8056 743.8059,-614.3231 770.4153,-571.4917 837.335,-463.7755 868.399,-313.1686 879.4431,-247.1822"/>
<polygon fill="#000000" stroke="#000000" points="882.9532,-247.4028 881.1042,-236.9706 876.044,-246.2789 882.9532,-247.4028"/>
</g>
<!-- readjson&#45;&gt;opresultwarn -->
<g id="edge78" class="edge">
<title>readjson&#45;&gt;opresultwarn</title>
<path fill="none" stroke="#000000" d="M689.6058,-679.7577C742.0295,-660.294 826.128,-623.6468 884.4153,-571.4917 898.5022,-558.8868 960.7609,-460.7184 992.966,-409.2547"/>
<polygon fill="#000000" stroke="#000000" points="996.0938,-410.8538 998.4249,-400.5186 990.1575,-407.1444 996.0938,-410.8538"/>
</g>
<!-- readjson&#45;&gt;messages -->
<g id="edge74" class="edge">
<title>readjson&#45;&gt;messages</title>
<path fill="none" stroke="#000000" d="M651.2207,-673.4832C671.9359,-625.2705 720.7638,-508.1629 751.4153,-406.4917 780.4811,-310.0803 729.4503,-255.9428 801.4153,-185.5083 881.058,-107.5594 1206.0963,-70.8184 1370.3875,-56.9471"/>
<polygon fill="#000000" stroke="#000000" points="1370.8167,-60.4236 1380.4917,-56.1057 1370.2357,-53.4477 1370.8167,-60.4236"/>
</g>
<!-- parseCommandLine&#45;&gt;regexes -->
<g id="edge5" class="edge">
<title>parseCommandLine&#45;&gt;regexes</title>
<path fill="none" stroke="#000000" d="M408.5104,-681.9486C663.4823,-651.352 1263.6506,-579.3318 1483.6827,-552.9279"/>
<polygon fill="#000000" stroke="#000000" points="1484.3585,-556.372 1493.8702,-551.7054 1483.5244,-549.4219 1484.3585,-556.372"/>
</g>
<!-- parseCommandLine&#45;&gt;cmdline -->
<g id="edge6" class="edge">
<title>parseCommandLine&#45;&gt;cmdline</title>
<path fill="none" stroke="#000000" d="M260.0071,-673.7525C223.4459,-647.855 162.7574,-604.8673 121.009,-575.2955"/>
<polygon fill="#000000" stroke="#000000" points="122.8475,-572.3088 112.6642,-569.3846 118.8014,-578.0209 122.8475,-572.3088"/>
</g>
<!-- parseCommandLine&#45;&gt;warnings -->
<g id="edge4" class="edge">
<title>parseCommandLine&#45;&gt;warnings</title>
<path fill="none" stroke="#000000" d="M299.5031,-672.9207C324.3913,-603.0685 401.3532,-395.8771 454.4153,-349.5083 553.648,-262.7928 708.3462,-231.5263 802.6313,-220.2815"/>
<polygon fill="#000000" stroke="#000000" points="803.1542,-223.7446 812.6915,-219.1304 802.3584,-216.79 803.1542,-223.7446"/>
</g>
<!-- parseCommandLine&#45;&gt;args -->
<g id="edge1" class="edge">
<title>parseCommandLine&#45;&gt;args</title>
<path fill="none" stroke="#000000" d="M419.4797,-684.406C761.3065,-653.4596 1685.4576,-569.7938 1924.4003,-548.1617"/>
<polygon fill="#000000" stroke="#000000" points="1924.9547,-551.6259 1934.5984,-547.2385 1924.3235,-544.6544 1924.9547,-551.6259"/>
</g>
<!-- parseCommandLine&#45;&gt;messages -->
<g id="edge2" class="edge">
<title>parseCommandLine&#45;&gt;messages</title>
<path fill="none" stroke="#000000" d="M281.2339,-673.2626C245.3998,-589.5047 135.5366,-297.2645 293.4153,-185.5083 380.7207,-123.7082 1105.3407,-72.607 1370.0654,-55.8369"/>
<polygon fill="#000000" stroke="#000000" points="1370.6667,-59.306 1380.4265,-55.1832 1370.2259,-52.3199 1370.6667,-59.306"/>
</g>
<!-- processTemplate&#45;&gt;parseCmdLine -->
<g id="edge23" class="edge">
<title>processTemplate&#45;&gt;parseCmdLine</title>
<path fill="none" stroke="#000000" d="M2301.4344,-1279.7442C2374.2074,-1241.0497 2519.2603,-1151.4297 2576.4153,-1026.6274 2601.481,-971.8946 2547.8767,-912.5716 2508.4263,-878.4922"/>
<polygon fill="#000000" stroke="#000000" points="2510.6537,-875.7922 2500.7524,-872.0218 2506.1413,-881.1438 2510.6537,-875.7922"/>
</g>
<!-- processTemplate&#45;&gt;env -->
<g id="edge14" class="edge">
<title>processTemplate&#45;&gt;env</title>
<path fill="none" stroke="#000000" d="M2313.5481,-1280.6267C2366.2991,-1259.1026 2445.8364,-1221.1313 2501.4153,-1169.6274 2620.3326,-1059.4289 2703.9609,-953.9252 2610.4153,-821.5083 2573.6817,-769.5106 2387.0241,-723.8147 2300.5291,-705.06"/>
<polygon fill="#000000" stroke="#000000" points="2301.2533,-701.6358 2290.7416,-702.9602 2299.785,-708.48 2301.2533,-701.6358"/>
</g>
<!-- processTemplate&#45;&gt;variables -->
<g id="edge83" class="edge">
<title>processTemplate&#45;&gt;variables</title>
<path fill="none" stroke="#000000" d="M2215.9332,-1279.5999C2136.941,-1238.3943 1964.8364,-1141.8453 1847.4153,-1026.6274 1756.4194,-937.3389 1699.588,-792.1588 1677.6886,-728.1035"/>
<polygon fill="#000000" stroke="#000000" points="1680.978,-726.904 1674.474,-718.5405 1674.3428,-729.1346 1680.978,-726.904"/>
</g>
<!-- processTemplate&#45;&gt;vartypes -->
<g id="edge84" class="edge">
<title>processTemplate&#45;&gt;vartypes</title>
<path fill="none" stroke="#000000" d="M2143.1852,-1292.1787C1840.99,-1267.0164 1034.6795,-1186.2061 827.4153,-1026.6274 701.4602,-929.6509 681.4415,-804.4216 771.4153,-673.3726 794.1048,-640.3247 892.3575,-592.6619 954.1092,-565.0565"/>
<polygon fill="#000000" stroke="#000000" points="955.5965,-568.2256 963.3155,-560.9684 952.7556,-561.828 955.5965,-568.2256"/>
</g>
<!-- processTemplate&#45;&gt;replacement -->
<g id="edge97" class="edge">
<title>processTemplate&#45;&gt;replacement</title>
<path fill="none" stroke="#000000" d="M2235.2652,-1278.6767C2180.3929,-1225.7641 2042.4268,-1092.7254 1980.8792,-1033.3759"/>
<polygon fill="#000000" stroke="#000000" points="1983.0418,-1030.5991 1973.4139,-1026.1772 1978.1828,-1035.638 1983.0418,-1030.5991"/>
</g>
<!-- processTemplate&#45;&gt;readlines -->
<g id="edge18" class="edge">
<title>processTemplate&#45;&gt;readlines</title>
<path fill="none" stroke="#000000" d="M2254.6446,-1278.3258C2242.6031,-1205.916 2204.9778,-979.6624 2189.8292,-888.5688"/>
<polygon fill="#000000" stroke="#000000" points="2193.2737,-887.9458 2188.1806,-878.6555 2186.3686,-889.0942 2193.2737,-887.9458"/>
</g>
<!-- processTemplate&#45;&gt;collectCommand -->
<g id="edge29" class="edge">
<title>processTemplate&#45;&gt;collectCommand</title>
<path fill="none" stroke="#000000" d="M2272.3943,-1278.1881C2304.6178,-1225.6036 2384.1698,-1095.7853 2421.0573,-1035.5897"/>
<polygon fill="#000000" stroke="#000000" points="2424.1479,-1037.2448 2426.3886,-1026.8897 2418.1794,-1033.5873 2424.1479,-1037.2448"/>
</g>
<!-- processTemplate&#45;&gt;args -->
<g id="edge8" class="edge">
<title>processTemplate&#45;&gt;args</title>
<path fill="none" stroke="#000000" d="M2320.7966,-1281.2982C2380.6809,-1260.2721 2471.5115,-1222.6588 2537.4153,-1169.6274 2662.9263,-1068.6315 2730.234,-953.8809 2638.4153,-821.5083 2473.2941,-583.4573 2300.6521,-690.2864 2036.4153,-571.4917 2032.8752,-569.9002 2029.24,-568.191 2025.6069,-566.4291"/>
<polygon fill="#000000" stroke="#000000" points="2027.1493,-563.2873 2016.6357,-561.9776 2024.0379,-569.5578 2027.1493,-563.2873"/>
</g>
<!-- processTemplate&#45;&gt;opresultwarn -->
<g id="edge98" class="edge">
<title>processTemplate&#45;&gt;opresultwarn</title>
<path fill="none" stroke="#000000" d="M2140.9426,-1293.1011C1754.0668,-1265.5383 544.4153,-1166.3742 544.4153,-1004 544.4153,-1004 544.4153,-1004 544.4153,-850 544.4153,-771.046 522.2789,-740.7634 563.4153,-673.3726 652.778,-526.9759 845.3086,-438.5269 946.7732,-400.2882"/>
<polygon fill="#000000" stroke="#000000" points="948.1491,-403.5108 956.3016,-396.7442 945.7087,-396.9499 948.1491,-403.5108"/>
</g>
<!-- processTemplate&#45;&gt;messages -->
<g id="edge9" class="edge">
<title>processTemplate&#45;&gt;messages</title>
<path fill="none" stroke="#000000" d="M2336.3723,-1283.273C2502.5113,-1240.3856 2876.4153,-1114.4855 2876.4153,-850 2876.4153,-850 2876.4153,-850 2876.4153,-378 2876.4153,-107.5394 1879.803,-60.0083 1562.3306,-51.7285"/>
<polygon fill="#000000" stroke="#000000" points="1562.3164,-48.2271 1552.2309,-51.4724 1562.1389,-55.2248 1562.3164,-48.2271"/>
</g>
<!-- processTemplate&#45;&gt;matches -->
<g id="edge17" class="edge">
<title>processTemplate&#45;&gt;matches</title>
<path fill="none" stroke="#000000" d="M2262.7692,-1278.1962C2278.4835,-1193.1369 2328.6114,-895.4716 2275.4153,-821.5083 2270.6333,-814.8594 2064.094,-748.0438 1960.0454,-714.7096"/>
<polygon fill="#000000" stroke="#000000" points="1960.8973,-711.3074 1950.3063,-711.5913 1958.7628,-717.974 1960.8973,-711.3074"/>
</g>
<!-- processTemplate&#45;&gt;readjson -->
<g id="edge85" class="edge">
<title>processTemplate&#45;&gt;readjson</title>
<path fill="none" stroke="#000000" d="M2138.5166,-1294.3961C1815.0162,-1274.3484 933.8678,-1204.3242 713.4153,-1026.6274 623.3296,-954.0134 629.2445,-797.4192 636.7636,-729.0555"/>
<polygon fill="#000000" stroke="#000000" points="640.2698,-729.2096 637.9697,-718.8674 633.3183,-728.3866 640.2698,-729.2096"/>
</g>
<!-- runCommand -->
<g id="node30" class="node">
<title>runCommand</title>
<g id="a_node30"><a xlink:href="runCommand.md" xlink:title="runCommand.md">
<ellipse fill="#eee8aa" stroke="#000000" cx="1578.4153" cy="-1147" rx="104.7872" ry="22.7556"/>
<text text-anchor="middle" x="1578.4153" y="-1139.8" font-family="Times,serif" font-size="24.00" fill="#000000">runCommand</text>
</a>
</g>
</g>
<!-- processTemplate&#45;&gt;runCommand -->
<g id="edge82" class="edge">
<title>processTemplate&#45;&gt;runCommand</title>
<path fill="none" stroke="#000000" d="M2180.0788,-1283.2591C2050.5706,-1253.9293 1793.0323,-1195.6044 1660.8672,-1165.6729"/>
<polygon fill="#000000" stroke="#000000" points="1661.3236,-1162.1877 1650.7975,-1163.3924 1659.7774,-1169.0148 1661.3236,-1162.1877"/>
</g>
<!-- runCommand&#45;&gt;runFunction -->
<g id="edge72" class="edge">
<title>runCommand&#45;&gt;runFunction</title>
<path fill="none" stroke="#000000" d="M1510.5874,-1129.6797C1405.1183,-1102.7474 1202.5729,-1051.0259 1093.0757,-1023.0651"/>
<polygon fill="#000000" stroke="#000000" points="1093.6536,-1019.6004 1083.0985,-1020.5173 1091.9216,-1026.3828 1093.6536,-1019.6004"/>
</g>
<!-- runCommand&#45;&gt;parseNumber -->
<g id="edge41" class="edge">
<title>runCommand&#45;&gt;parseNumber</title>
<path fill="none" stroke="#000000" d="M1567.4318,-1124.1881C1542.9843,-1073.4124 1483.8643,-950.6249 1453.7322,-888.0427"/>
<polygon fill="#000000" stroke="#000000" points="1456.8212,-886.3903 1449.3295,-878.8987 1450.5142,-889.4271 1456.8212,-886.3903"/>
</g>
<!-- runCommand&#45;&gt;regexes -->
<g id="edge32" class="edge">
<title>runCommand&#45;&gt;regexes</title>
<path fill="none" stroke="#000000" d="M1581.8942,-1123.993C1585.3608,-1099.8186 1590.4433,-1060.6533 1592.4153,-1026.6274 1597.6901,-935.6161 1596.6568,-912.5736 1592.4153,-821.5083 1588.4225,-735.7824 1577.5526,-635.6949 1571.2029,-581.9242"/>
<polygon fill="#000000" stroke="#000000" points="1574.6558,-581.3209 1569.9966,-571.8056 1567.7051,-582.1496 1574.6558,-581.3209"/>
</g>
<!-- runCommand&#45;&gt;env -->
<g id="edge33" class="edge">
<title>runCommand&#45;&gt;env</title>
<path fill="none" stroke="#000000" d="M1669.1566,-1135.7088C1791.9307,-1118.5418 2001.6092,-1081.9158 2053.4153,-1026.6274 2116.8096,-958.9718 2042.8084,-900.4607 2091.4153,-821.5083 2121.9429,-771.9221 2179.7869,-734.8825 2218.227,-714.3361"/>
<polygon fill="#000000" stroke="#000000" points="2220.3065,-717.1989 2227.5534,-709.4702 2217.0685,-710.9928 2220.3065,-717.1989"/>
</g>
<!-- runCommand&#45;&gt;variables -->
<g id="edge48" class="edge">
<title>runCommand&#45;&gt;variables</title>
<path fill="none" stroke="#000000" d="M1590.6964,-1124.2075C1602.8652,-1100.528 1621.0068,-1062.0503 1630.4153,-1026.6274 1658.6694,-920.2511 1665.3617,-789.0454 1666.9369,-728.9163"/>
<polygon fill="#000000" stroke="#000000" points="1670.4369,-728.9533 1667.1688,-718.8751 1663.4388,-728.7916 1670.4369,-728.9533"/>
</g>
<!-- runCommand&#45;&gt;vartypes -->
<g id="edge38" class="edge">
<title>runCommand&#45;&gt;vartypes</title>
<path fill="none" stroke="#000000" d="M1475.4889,-1142.7762C1301.8852,-1133.5309 961.3517,-1105.5892 875.4153,-1026.6274 756.8782,-917.7108 717.1665,-814.053 795.4153,-673.3726 827.0633,-616.4738 894.9605,-581.2254 945.0234,-561.9502"/>
<polygon fill="#000000" stroke="#000000" points="946.3244,-565.2005 954.4662,-558.4209 943.8737,-558.6435 946.3244,-565.2005"/>
</g>
<!-- runCommand&#45;&gt;readlines -->
<g id="edge30" class="edge">
<title>runCommand&#45;&gt;readlines</title>
<path fill="none" stroke="#000000" d="M1666.8671,-1134.8514C1794.2262,-1115.9113 2021.1466,-1076.3092 2086.4153,-1026.6274 2132.1913,-991.7832 2159.1824,-928.8246 2172.6337,-888.2473"/>
<polygon fill="#000000" stroke="#000000" points="2175.9761,-889.2859 2175.6878,-878.695 2169.3086,-887.1541 2175.9761,-889.2859"/>
</g>
<!-- runCommand&#45;&gt;funtypes -->
<g id="edge51" class="edge">
<title>runCommand&#45;&gt;funtypes</title>
<path fill="none" stroke="#000000" d="M1478.0944,-1140.4422C1314.6142,-1127.8836 1000.4185,-1095.3503 915.4153,-1026.6274 826.6408,-954.8556 850.381,-797.2286 865.9121,-728.7906"/>
<polygon fill="#000000" stroke="#000000" points="869.3371,-729.5158 868.2228,-718.9797 862.5235,-727.911 869.3371,-729.5158"/>
</g>
<!-- runCommand&#45;&gt;warnings -->
<g id="edge40" class="edge">
<title>runCommand&#45;&gt;warnings</title>
<path fill="none" stroke="#000000" d="M1517.8246,-1128.4738C1414.7721,-1092.7736 1216.4153,-1004.0492 1216.4153,-850 1216.4153,-850 1216.4153,-850 1216.4153,-543 1216.4153,-447.1977 1186.9908,-419.3505 1121.4153,-349.5083 1070.8692,-295.6732 994.0636,-257.1745 941.6841,-235.2851"/>
<polygon fill="#000000" stroke="#000000" points="942.7798,-231.9515 932.1997,-231.3912 940.1211,-238.4269 942.7798,-231.9515"/>
</g>
<!-- runCommand&#45;&gt;collectCommand -->
<g id="edge80" class="edge">
<title>runCommand&#45;&gt;collectCommand</title>
<path fill="none" stroke="#000000" d="M1661.4587,-1133.2237C1819.783,-1106.9587 2164.3998,-1049.7891 2337.2329,-1021.1173"/>
<polygon fill="#000000" stroke="#000000" points="2337.8091,-1024.5696 2347.1015,-1019.4801 2336.6635,-1017.664 2337.8091,-1024.5696"/>
</g>
<!-- runCommand&#45;&gt;opresultwarn -->
<g id="edge81" class="edge">
<title>runCommand&#45;&gt;opresultwarn</title>
<path fill="none" stroke="#000000" d="M1500.4251,-1131.7664C1402.3955,-1111.0331 1242.1154,-1071.3512 1202.4153,-1026.6274 1048.5187,-853.2565 1191.4372,-728.9699 1103.4153,-514.5083 1087.2161,-475.0395 1058.8191,-435.0235 1038.0444,-408.6131"/>
<polygon fill="#000000" stroke="#000000" points="1040.5677,-406.164 1031.5923,-400.5343 1035.098,-410.5323 1040.5677,-406.164"/>
</g>
<!-- runCommand&#45;&gt;messages -->
<g id="edge39" class="edge">
<title>runCommand&#45;&gt;messages</title>
<path fill="none" stroke="#000000" d="M1579.1319,-1124.2533C1580.3724,-1070.8515 1580.9893,-933.5088 1559.4153,-821.5083 1534.7316,-693.3638 1466.4153,-673.5002 1466.4153,-543 1466.4153,-543 1466.4153,-543 1466.4153,-378 1466.4153,-273.5164 1466.4153,-150.3111 1466.4153,-88.8947"/>
<polygon fill="#000000" stroke="#000000" points="1469.9154,-88.5178 1466.4153,-78.5178 1462.9154,-88.5179 1469.9154,-88.5178"/>
</g>
<!-- runCommand&#45;&gt;matches -->
<g id="edge31" class="edge">
<title>runCommand&#45;&gt;matches</title>
<path fill="none" stroke="#000000" d="M1594.4329,-1124.6348C1647.6598,-1050.315 1818.6945,-811.5018 1879.6142,-726.4405"/>
<polygon fill="#000000" stroke="#000000" points="1882.5148,-728.4015 1885.492,-718.2335 1876.8238,-724.3256 1882.5148,-728.4015"/>
</g>
<!-- runCommand&#45;&gt;readjson -->
<g id="edge79" class="edge">
<title>runCommand&#45;&gt;readjson</title>
<path fill="none" stroke="#000000" d="M1474.121,-1144.7657C1278.3343,-1138.5125 865.7999,-1114.9341 758.4153,-1026.6274 666.0084,-950.6375 646.5267,-796.5225 642.4627,-728.9755"/>
<polygon fill="#000000" stroke="#000000" points="645.9535,-728.7059 641.9341,-718.9032 638.9631,-729.0729 645.9535,-728.7059"/>
</g>
</g>
</svg>
