<?xml version="1.0" encoding="UTF-8" standalone="no"?>
<!DOCTYPE svg PUBLIC "-//W3C//DTD SVG 1.1//EN"
 "http://www.w3.org/Graphics/SVG/1.1/DTD/svg11.dtd">
<!-- Generated by graphviz version 2.40.1 (20161225.0304)
 -->
<!-- Title: statictea Pages: 1 -->
<svg width="720pt" height="333pt"
 viewBox="0.00 0.00 720.00 333.10" xmlns="http://www.w3.org/2000/svg" xmlns:xlink="http://www.w3.org/1999/xlink">
<g id="graph0" class="graph" transform="scale(.2081 .2081) rotate(0) translate(4 1597.0001)">
<title>statictea</title>
<polygon fill="#ffffff" stroke="transparent" points="-4,4 -4,-1597.0001 3456.549,-1597.0001 3456.549,4 -4,4"/>
<!-- runFunction -->
<g id="node1" class="node">
<title>runFunction</title>
<g id="a_node1"><a xlink:href="runFunction.md" xlink:title="runFunction.md">
<ellipse fill="#eee8aa" stroke="#000000" cx="922" cy="-932" rx="94.055" ry="22.7556"/>
<text text-anchor="middle" x="922" y="-924.8" font-family="Times,serif" font-size="24.00" fill="#000000">runFunction</text>
</a>
</g>
</g>
<!-- parseNumber -->
<g id="node3" class="node">
<title>parseNumber</title>
<g id="a_node3"><a xlink:href="parseNumber.md" xlink:title="parseNumber.md">
<ellipse fill="#eee8aa" stroke="#000000" cx="969" cy="-814" rx="102.9592" ry="22.7556"/>
<text text-anchor="middle" x="969" y="-806.8" font-family="Times,serif" font-size="24.00" fill="#000000">parseNumber</text>
</a>
</g>
</g>
<!-- runFunction&#45;&gt;parseNumber -->
<g id="edge61" class="edge">
<title>runFunction&#45;&gt;parseNumber</title>
<path fill="none" stroke="#000000" d="M931.0621,-909.2484C938.2143,-891.2917 948.2798,-866.021 956.2458,-846.0212"/>
<polygon fill="#000000" stroke="#000000" points="959.5169,-847.2671 959.9657,-836.6817 953.0138,-844.6768 959.5169,-847.2671"/>
</g>
<!-- regexes -->
<g id="node4" class="node">
<title>regexes</title>
<g id="a_node4"><a xlink:href="regexes.md" xlink:title="regexes.md">
<polygon fill="#98fb98" stroke="#000000" points="1679.187,-421.8581 1679.187,-442.1419 1639.244,-456.4846 1582.756,-456.4846 1542.813,-442.1419 1542.813,-421.8581 1582.756,-407.5154 1639.244,-407.5154 1679.187,-421.8581"/>
<polygon fill="none" stroke="#000000" points="1683.1781,-419.0434 1683.1781,-444.9566 1639.9376,-460.4835 1582.0624,-460.4835 1538.8219,-444.9566 1538.8219,-419.0434 1582.0624,-403.5165 1639.9376,-403.5165 1683.1781,-419.0434"/>
<text text-anchor="middle" x="1611" y="-424.8" font-family="Times,serif" font-size="24.00" fill="#000000">regexes</text>
</a>
</g>
</g>
<!-- runFunction&#45;&gt;regexes -->
<g id="edge60" class="edge">
<title>runFunction&#45;&gt;regexes</title>
<path fill="none" stroke="#000000" d="M959.3567,-911.1701C992.0504,-892.5709 1040.5128,-864.0993 1081,-836.6274 1270.2708,-708.201 1483.0928,-536.9856 1570.3671,-465.5319"/>
<polygon fill="#000000" stroke="#000000" points="1572.6546,-468.1824 1578.1692,-459.1359 1568.2167,-462.769 1572.6546,-468.1824"/>
</g>
<!-- unicodes -->
<g id="node9" class="node">
<title>unicodes</title>
<g id="a_node9"><a xlink:href="unicodes.md" xlink:title="unicodes.md">
<ellipse fill="#eee8aa" stroke="#000000" cx="582" cy="-695" rx="71.7778" ry="22.7556"/>
<text text-anchor="middle" x="582" y="-687.8" font-family="Times,serif" font-size="24.00" fill="#000000">unicodes</text>
</a>
</g>
</g>
<!-- runFunction&#45;&gt;unicodes -->
<g id="edge70" class="edge">
<title>runFunction&#45;&gt;unicodes</title>
<path fill="none" stroke="#000000" d="M891.2276,-910.5498C828.9937,-867.1692 688.3337,-769.1208 620.2914,-721.6913"/>
<polygon fill="#000000" stroke="#000000" points="622.1763,-718.7389 611.9712,-715.8917 618.1734,-724.4814 622.1763,-718.7389"/>
</g>
<!-- vartypes -->
<g id="node12" class="node">
<title>vartypes</title>
<g id="a_node12"><a xlink:href="vartypes.md" xlink:title="vartypes.md">
<ellipse fill="#eee8aa" stroke="#000000" cx="834" cy="-568" rx="68.6102" ry="22.7556"/>
<text text-anchor="middle" x="834" y="-560.8" font-family="Times,serif" font-size="24.00" fill="#000000">vartypes</text>
</a>
</g>
</g>
<!-- runFunction&#45;&gt;vartypes -->
<g id="edge59" class="edge">
<title>runFunction&#45;&gt;vartypes</title>
<path fill="none" stroke="#000000" d="M888.8077,-910.5825C865.8306,-893.6321 837.1123,-867.685 824,-836.6274 803.0146,-786.922 839.5471,-770.9149 848,-717.6274 851.1511,-697.7625 849.3399,-692.4412 848,-672.3726 846.3924,-648.2947 842.7208,-621.2995 839.5409,-600.7961"/>
<polygon fill="#000000" stroke="#000000" points="842.9649,-600.0412 837.9364,-590.7157 836.0519,-601.1416 842.9649,-600.0412"/>
</g>
<!-- replacement -->
<g id="node14" class="node">
<title>replacement</title>
<g id="a_node14"><a xlink:href="replacement.md" xlink:title="replacement.md">
<ellipse fill="#eee8aa" stroke="#000000" cx="1830" cy="-814" rx="94.4556" ry="22.7556"/>
<text text-anchor="middle" x="1830" y="-806.8" font-family="Times,serif" font-size="24.00" fill="#000000">replacement</text>
</a>
</g>
</g>
<!-- runFunction&#45;&gt;replacement -->
<g id="edge84" class="edge">
<title>runFunction&#45;&gt;replacement</title>
<path fill="none" stroke="#000000" d="M1004.986,-921.2155C1174.4067,-899.1982 1559.0387,-849.213 1736.7657,-826.1164"/>
<polygon fill="#000000" stroke="#000000" points="1737.4136,-829.5617 1746.8791,-824.8021 1736.5114,-822.62 1737.4136,-829.5617"/>
</g>
<!-- warnings -->
<g id="node17" class="node">
<title>warnings</title>
<g id="a_node17"><a xlink:href="warnings.md" xlink:title="warnings.md">
<ellipse fill="#eee8aa" stroke="#000000" cx="1856" cy="-177" rx="73.5561" ry="22.7556"/>
<text text-anchor="middle" x="1856" y="-169.8" font-family="Times,serif" font-size="24.00" fill="#000000">warnings</text>
</a>
</g>
</g>
<!-- runFunction&#45;&gt;warnings -->
<g id="edge58" class="edge">
<title>runFunction&#45;&gt;warnings</title>
<path fill="none" stroke="#000000" d="M898.5819,-909.7067C872.0876,-881.6588 835.2789,-832.2179 857,-791.3726 929.7386,-654.5917 1033.2649,-702.7495 1146,-596.4917 1273.853,-475.9848 1238.032,-377.1026 1386,-282.3726 1450.3469,-241.1773 1662.3064,-205.1034 1778.3583,-187.8295"/>
<polygon fill="#000000" stroke="#000000" points="1779.216,-191.2408 1788.5972,-186.3172 1778.1931,-184.316 1779.216,-191.2408"/>
</g>
<!-- signatures -->
<g id="node24" class="node">
<title>signatures</title>
<g id="a_node24"><a xlink:href="signatures.md" xlink:title="signatures.md">
<ellipse fill="#eee8aa" stroke="#000000" cx="298" cy="-695" rx="80.2483" ry="22.7556"/>
<text text-anchor="middle" x="298" y="-687.8" font-family="Times,serif" font-size="24.00" fill="#000000">signatures</text>
</a>
</g>
</g>
<!-- runFunction&#45;&gt;signatures -->
<g id="edge73" class="edge">
<title>runFunction&#45;&gt;signatures</title>
<path fill="none" stroke="#000000" d="M838.1894,-921.3891C719.1054,-905.3098 507.8434,-872.7895 440,-836.6274 389.2297,-809.5657 344.841,-758.4356 319.747,-725.5808"/>
<polygon fill="#000000" stroke="#000000" points="322.2916,-723.1402 313.4911,-717.2409 316.6919,-727.3407 322.2916,-723.1402"/>
</g>
<!-- opresultwarn -->
<g id="node26" class="node">
<title>opresultwarn</title>
<g id="a_node26"><a xlink:href="opresultwarn.md" xlink:title="opresultwarn.md">
<ellipse fill="#eee8aa" stroke="#000000" cx="1022" cy="-305" rx="99.824" ry="22.7556"/>
<text text-anchor="middle" x="1022" y="-297.8" font-family="Times,serif" font-size="24.00" fill="#000000">opresultwarn</text>
</a>
</g>
</g>
<!-- runFunction&#45;&gt;opresultwarn -->
<g id="edge85" class="edge">
<title>runFunction&#45;&gt;opresultwarn</title>
<path fill="none" stroke="#000000" d="M831.0437,-925.8671C713.086,-915.8011 517.1679,-891.1625 473,-836.6274 460.3412,-820.9974 470.6812,-811.3517 473,-791.3726 497.8455,-577.3023 583.8045,-521.7156 764,-403.5083 820.0446,-366.7433 891.8176,-340.7557 945.4275,-324.7386"/>
<polygon fill="#000000" stroke="#000000" points="946.6096,-328.0393 955.2183,-321.8635 944.6373,-321.3229 946.6096,-328.0393"/>
</g>
<!-- messages -->
<g id="node27" class="node">
<title>messages</title>
<g id="a_node27"><a xlink:href="messages.md" xlink:title="messages.md">
<polygon fill="#98fb98" stroke="#000000" points="2157.7388,-31.8581 2157.7388,-52.1419 2109.8573,-66.4846 2042.1427,-66.4846 1994.2612,-52.1419 1994.2612,-31.8581 2042.1427,-17.5154 2109.8573,-17.5154 2157.7388,-31.8581"/>
<polygon fill="none" stroke="#000000" points="2161.7446,-28.883 2161.7446,-55.117 2110.4454,-70.4835 2041.5546,-70.4835 1990.2554,-55.117 1990.2554,-28.883 2041.5546,-13.5165 2110.4454,-13.5165 2161.7446,-28.883"/>
<text text-anchor="middle" x="2076" y="-34.8" font-family="Times,serif" font-size="24.00" fill="#000000">messages</text>
</a>
</g>
</g>
<!-- runFunction&#45;&gt;messages -->
<g id="edge57" class="edge">
<title>runFunction&#45;&gt;messages</title>
<path fill="none" stroke="#000000" d="M828.7662,-927.9026C717.7932,-920.2884 528.6895,-898.5602 379,-836.6274 293.7789,-801.3679 256.722,-796.5482 209,-717.6274 73.1063,-492.8915 136.752,-272.9982 368,-148.5083 510.0781,-72.022 1640.9832,-48.6494 1980.17,-43.3253"/>
<polygon fill="#000000" stroke="#000000" points="1980.2694,-46.8242 1990.2138,-43.1693 1980.1607,-39.8251 1980.2694,-46.8242"/>
</g>
<!-- matches -->
<g id="node28" class="node">
<title>matches</title>
<g id="a_node28"><a xlink:href="matches.md" xlink:title="matches.md">
<ellipse fill="#eee8aa" stroke="#000000" cx="1647" cy="-568" rx="66.8311" ry="22.7556"/>
<text text-anchor="middle" x="1647" y="-560.8" font-family="Times,serif" font-size="24.00" fill="#000000">matches</text>
</a>
</g>
</g>
<!-- runFunction&#45;&gt;matches -->
<g id="edge62" class="edge">
<title>runFunction&#45;&gt;matches</title>
<path fill="none" stroke="#000000" d="M981.572,-914.3781C1036.7491,-897.2252 1120.5218,-869.0524 1190,-836.6274 1352.2102,-760.925 1531.743,-645.1874 1608.637,-593.951"/>
<polygon fill="#000000" stroke="#000000" points="1610.6932,-596.7865 1617.0632,-588.3205 1606.804,-590.9663 1610.6932,-596.7865"/>
</g>
<!-- opresultid -->
<g id="node2" class="node">
<title>opresultid</title>
<g id="a_node2"><a xlink:href="opresultid.md" xlink:title="opresultid.md">
<ellipse fill="#eee8aa" stroke="#000000" cx="608" cy="-305" rx="79.3758" ry="22.7556"/>
<text text-anchor="middle" x="608" y="-297.8" font-family="Times,serif" font-size="24.00" fill="#000000">opresultid</text>
</a>
</g>
</g>
<!-- opresultid&#45;&gt;messages -->
<g id="edge63" class="edge">
<title>opresultid&#45;&gt;messages</title>
<path fill="none" stroke="#000000" d="M602.8606,-282.232C596.5884,-247.8328 590.8543,-182.9784 627,-148.5083 676.0532,-101.729 1664.5465,-58.4073 1980.0829,-45.7246"/>
<polygon fill="#000000" stroke="#000000" points="1980.2701,-49.22 1990.1219,-45.3223 1979.9897,-42.2256 1980.2701,-49.22"/>
</g>
<!-- opresult -->
<g id="node34" class="node">
<title>opresult</title>
<g id="a_node34"><a xlink:href="opresult.md" xlink:title="opresult.md">
<polygon fill="#98fb98" stroke="#000000" points="782.3526,-166.8581 782.3526,-187.1419 740.5552,-201.4846 681.4448,-201.4846 639.6474,-187.1419 639.6474,-166.8581 681.4448,-152.5154 740.5552,-152.5154 782.3526,-166.8581"/>
<polygon fill="none" stroke="#000000" points="786.3486,-164.0019 786.3486,-189.9981 741.2213,-205.4835 680.7787,-205.4835 635.6514,-189.9981 635.6514,-164.0019 680.7787,-148.5165 741.2213,-148.5165 786.3486,-164.0019"/>
<text text-anchor="middle" x="711" y="-169.8" font-family="Times,serif" font-size="24.00" fill="#000000">opresult</text>
</a>
</g>
</g>
<!-- opresultid&#45;&gt;opresult -->
<g id="edge64" class="edge">
<title>opresultid&#45;&gt;opresult</title>
<path fill="none" stroke="#000000" d="M625.9412,-282.7041C641.2385,-263.6939 663.5325,-235.9888 681.4589,-213.7113"/>
<polygon fill="#000000" stroke="#000000" points="684.3023,-215.7606 687.8447,-205.7755 678.8486,-211.3722 684.3023,-215.7606"/>
</g>
<!-- parseNumber&#45;&gt;vartypes -->
<g id="edge48" class="edge">
<title>parseNumber&#45;&gt;vartypes</title>
<path fill="none" stroke="#ff0000" d="M964.7429,-791.2776C958.6696,-762.3151 945.7739,-711.3341 924,-672.3726 908.1642,-644.0366 883.8364,-616.421 864.4647,-596.7205"/>
<polygon fill="#ff0000" stroke="#ff0000" points="866.8589,-594.1649 857.311,-589.5726 861.9111,-599.1167 866.8589,-594.1649"/>
</g>
<!-- cmdline -->
<g id="node5" class="node">
<title>cmdline</title>
<g id="a_node5"><a xlink:href="cmdline.md" xlink:title="cmdline.md">
<polygon fill="#98fb98" stroke="#000000" points="3159.3352,-421.8581 3159.3352,-442.1419 3117.548,-456.4846 3058.452,-456.4846 3016.6648,-442.1419 3016.6648,-421.8581 3058.452,-407.5154 3117.548,-407.5154 3159.3352,-421.8581"/>
<polygon fill="none" stroke="#000000" points="3163.3307,-419.0021 3163.3307,-444.9979 3118.2141,-460.4835 3057.7859,-460.4835 3012.6693,-444.9979 3012.6693,-419.0021 3057.7859,-403.5165 3118.2141,-403.5165 3163.3307,-419.0021"/>
<text text-anchor="middle" x="3088" y="-424.8" font-family="Times,serif" font-size="24.00" fill="#000000">cmdline</text>
</a>
</g>
</g>
<!-- parseCmdLine -->
<g id="node6" class="node">
<title>parseCmdLine</title>
<g id="a_node6"><a xlink:href="parseCmdLine.md" xlink:title="parseCmdLine.md">
<ellipse fill="#eee8aa" stroke="#000000" cx="1885" cy="-695" rx="111.4463" ry="22.7556"/>
<text text-anchor="middle" x="1885" y="-687.8" font-family="Times,serif" font-size="24.00" fill="#000000">parseCmdLine</text>
</a>
</g>
</g>
<!-- parseCmdLine&#45;&gt;regexes -->
<g id="edge25" class="edge">
<title>parseCmdLine&#45;&gt;regexes</title>
<path fill="none" stroke="#000000" d="M1854.7357,-673.0871C1829.6363,-654.2015 1793.7066,-625.4747 1766,-596.4917 1744.0759,-573.5576 1744.067,-563.2321 1723,-539.5083 1700.2672,-513.9085 1672.5194,-487.2446 1650.3301,-466.8753"/>
<polygon fill="#000000" stroke="#000000" points="1652.478,-464.0972 1642.7306,-459.9451 1647.7611,-469.2695 1652.478,-464.0972"/>
</g>
<!-- parseCmdLine&#45;&gt;warnings -->
<g id="edge28" class="edge">
<title>parseCmdLine&#45;&gt;warnings</title>
<path fill="none" stroke="#000000" d="M1883.7165,-672.0738C1879.0888,-589.413 1863.2484,-306.4706 1857.8327,-209.7351"/>
<polygon fill="#000000" stroke="#000000" points="1861.3223,-209.4501 1857.2687,-199.6614 1854.3332,-209.8415 1861.3223,-209.4501"/>
</g>
<!-- parseCmdLine&#45;&gt;opresultwarn -->
<g id="edge29" class="edge">
<title>parseCmdLine&#45;&gt;opresultwarn</title>
<path fill="none" stroke="#000000" d="M1864.9233,-672.7375C1847.8253,-653.2906 1823.0709,-623.9524 1804,-596.4917 1747.4327,-515.0391 1774.1006,-459.131 1692,-403.5083 1602.5603,-342.9133 1296.2491,-318.5517 1130.5346,-309.6289"/>
<polygon fill="#000000" stroke="#000000" points="1130.4848,-306.1214 1120.314,-309.0885 1130.1152,-313.1117 1130.4848,-306.1214"/>
</g>
<!-- parseCmdLine&#45;&gt;messages -->
<g id="edge26" class="edge">
<title>parseCmdLine&#45;&gt;messages</title>
<path fill="none" stroke="#000000" d="M1891.6858,-672.1423C1919.8789,-575.7543 2029.2409,-201.8622 2064.7771,-80.3694"/>
<polygon fill="#000000" stroke="#000000" points="2068.1475,-81.3137 2067.5956,-70.7332 2061.429,-79.3485 2068.1475,-81.3137"/>
</g>
<!-- parseCmdLine&#45;&gt;matches -->
<g id="edge27" class="edge">
<title>parseCmdLine&#45;&gt;matches</title>
<path fill="none" stroke="#000000" d="M1845.1642,-673.7431C1802.9127,-651.1971 1736.294,-615.6485 1692.1305,-592.0823"/>
<polygon fill="#000000" stroke="#000000" points="1693.5345,-588.8643 1683.0642,-587.2444 1690.239,-595.0401 1693.5345,-588.8643"/>
</g>
<!-- env -->
<g id="node7" class="node">
<title>env</title>
<g id="a_node7"><a xlink:href="env.md" xlink:title="env.md">
<ellipse fill="#eee8aa" stroke="#000000" cx="2375" cy="-695" rx="35.6342" ry="22.7556"/>
<text text-anchor="middle" x="2375" y="-687.8" font-family="Times,serif" font-size="24.00" fill="#000000">env</text>
</a>
</g>
</g>
<!-- tempFile -->
<g id="node11" class="node">
<title>tempFile</title>
<g id="a_node11"><a xlink:href="tempFile.md" xlink:title="tempFile.md">
<polygon fill="#98fb98" stroke="#000000" points="2119.598,-557.8581 2119.598,-578.1419 2074.1421,-592.4846 2009.8579,-592.4846 1964.402,-578.1419 1964.402,-557.8581 2009.8579,-543.5154 2074.1421,-543.5154 2119.598,-557.8581"/>
<polygon fill="none" stroke="#000000" points="2123.6004,-554.9275 2123.6004,-581.0725 2074.7591,-596.4835 2009.2409,-596.4835 1960.3996,-581.0725 1960.3996,-554.9275 2009.2409,-539.5165 2074.7591,-539.5165 2123.6004,-554.9275"/>
<text text-anchor="middle" x="2042" y="-560.8" font-family="Times,serif" font-size="24.00" fill="#000000">tempFile</text>
</a>
</g>
</g>
<!-- env&#45;&gt;tempFile -->
<g id="edge15" class="edge">
<title>env&#45;&gt;tempFile</title>
<path fill="none" stroke="#000000" d="M2344.269,-683.2798C2290.6452,-662.8287 2178.8859,-620.2057 2107.3129,-592.9091"/>
<polygon fill="#000000" stroke="#000000" points="2108.5152,-589.6218 2097.9244,-589.3285 2106.0207,-596.1623 2108.5152,-589.6218"/>
</g>
<!-- readlines -->
<g id="node15" class="node">
<title>readlines</title>
<g id="a_node15"><a xlink:href="readlines.md" xlink:title="readlines.md">
<polygon fill="#98fb98" stroke="#000000" points="2302.5894,-557.8581 2302.5894,-578.1419 2256.5528,-592.4846 2191.4472,-592.4846 2145.4106,-578.1419 2145.4106,-557.8581 2191.4472,-543.5154 2256.5528,-543.5154 2302.5894,-557.8581"/>
<polygon fill="none" stroke="#000000" points="2306.5916,-554.9163 2306.5916,-581.0837 2257.1623,-596.4835 2190.8377,-596.4835 2141.4084,-581.0837 2141.4084,-554.9163 2190.8377,-539.5165 2257.1623,-539.5165 2306.5916,-554.9163"/>
<text text-anchor="middle" x="2224" y="-560.8" font-family="Times,serif" font-size="24.00" fill="#000000">readlines</text>
</a>
</g>
</g>
<!-- env&#45;&gt;readlines -->
<g id="edge19" class="edge">
<title>env&#45;&gt;readlines</title>
<path fill="none" stroke="#000000" d="M2353.3654,-676.804C2330.556,-657.6199 2294.0603,-626.9249 2265.6391,-603.0209"/>
<polygon fill="#000000" stroke="#000000" points="2267.7609,-600.2322 2257.855,-596.4741 2263.2552,-605.5894 2267.7609,-600.2322"/>
</g>
<!-- env&#45;&gt;warnings -->
<g id="edge17" class="edge">
<title>env&#45;&gt;warnings</title>
<path fill="none" stroke="#000000" d="M2370.435,-672.3013C2363.1448,-640.264 2346.4892,-581.0609 2316,-539.5083 2198.6738,-379.6082 1993.0942,-252.9264 1901.8554,-201.6689"/>
<polygon fill="#000000" stroke="#000000" points="1903.3062,-198.4706 1892.8679,-196.6564 1899.8966,-204.5841 1903.3062,-198.4706"/>
</g>
<!-- args -->
<g id="node25" class="node">
<title>args</title>
<g id="a_node25"><a xlink:href="args.md" xlink:title="args.md">
<ellipse fill="#eee8aa" stroke="#000000" cx="2563" cy="-432" rx="39.0784" ry="22.7556"/>
<text text-anchor="middle" x="2563" y="-424.8" font-family="Times,serif" font-size="24.00" fill="#000000">args</text>
</a>
</g>
</g>
<!-- env&#45;&gt;args -->
<g id="edge18" class="edge">
<title>env&#45;&gt;args</title>
<path fill="none" stroke="#000000" d="M2389.752,-674.3628C2422.8785,-628.021 2503.275,-515.5514 2541.7702,-461.6992"/>
<polygon fill="#000000" stroke="#000000" points="2544.8263,-463.4425 2547.7943,-453.2718 2539.1316,-459.3717 2544.8263,-463.4425"/>
</g>
<!-- env&#45;&gt;messages -->
<g id="edge16" class="edge">
<title>env&#45;&gt;messages</title>
<path fill="none" stroke="#000000" d="M2374.7092,-672.134C2374.1545,-626.4859 2373,-520.8107 2373,-432 2373,-432 2373,-432 2373,-305 2373,-183.5594 2232.1019,-104.6398 2144.3985,-67.2787"/>
<polygon fill="#000000" stroke="#000000" points="2145.6088,-63.9911 2135.0327,-63.3602 2142.907,-70.4487 2145.6088,-63.9911"/>
</g>
<!-- startingvars -->
<g id="node8" class="node">
<title>startingvars</title>
<g id="a_node8"><a xlink:href="startingvars.md" xlink:title="startingvars.md">
<ellipse fill="#eee8aa" stroke="#000000" cx="1954" cy="-1288" rx="90.4807" ry="22.7556"/>
<text text-anchor="middle" x="1954" y="-1280.8" font-family="Times,serif" font-size="24.00" fill="#000000">startingvars</text>
</a>
</g>
</g>
<!-- startingvars&#45;&gt;runFunction -->
<g id="edge118" class="edge">
<title>startingvars&#45;&gt;runFunction</title>
<path fill="none" stroke="#000000" d="M1867.2318,-1281.165C1752.8079,-1270.465 1546.1706,-1245.279 1377,-1192.6274 1258.3519,-1155.7001 1231.4914,-1135.97 1124,-1073.6274 1063.1223,-1038.3197 997.1756,-989.9905 957.7466,-959.901"/>
<polygon fill="#000000" stroke="#000000" points="959.8124,-957.0746 949.7467,-953.7683 955.5536,-962.6301 959.8124,-957.0746"/>
</g>
<!-- startingvars&#45;&gt;env -->
<g id="edge103" class="edge">
<title>startingvars&#45;&gt;env</title>
<path fill="none" stroke="#000000" d="M1979.7569,-1266.1787C2049.1463,-1205.8127 2240.8196,-1028.3363 2331,-836.6274 2347.8624,-800.7807 2360.3493,-756.8645 2367.6292,-727.5269"/>
<polygon fill="#000000" stroke="#000000" points="2371.0339,-728.3379 2369.9856,-717.795 2364.2305,-726.6905 2371.0339,-728.3379"/>
</g>
<!-- variables -->
<g id="node10" class="node">
<title>variables</title>
<g id="a_node10"><a xlink:href="variables.md" xlink:title="variables.md">
<ellipse fill="#eee8aa" stroke="#000000" cx="2514" cy="-695" rx="72.6337" ry="22.7556"/>
<text text-anchor="middle" x="2514" y="-687.8" font-family="Times,serif" font-size="24.00" fill="#000000">variables</text>
</a>
</g>
</g>
<!-- startingvars&#45;&gt;variables -->
<g id="edge104" class="edge">
<title>startingvars&#45;&gt;variables</title>
<path fill="none" stroke="#000000" d="M1988.8587,-1266.9278C2018.1828,-1248.622 2060.6952,-1220.7041 2095,-1192.6274 2266.2236,-1052.4899 2318.3798,-1019.4548 2443,-836.6274 2467.0784,-801.3025 2488.0911,-756.6647 2500.8848,-727.0443"/>
<polygon fill="#000000" stroke="#000000" points="2504.2044,-728.1818 2504.901,-717.6099 2497.7637,-725.44 2504.2044,-728.1818"/>
</g>
<!-- startingvars&#45;&gt;vartypes -->
<g id="edge105" class="edge">
<title>startingvars&#45;&gt;vartypes</title>
<path fill="none" stroke="#000000" d="M1867.8421,-1281.0571C1582.4491,-1256.9206 686,-1171.5137 686,-1051 686,-1051 686,-1051 686,-932 686,-927.5456 784.5951,-687.872 820.8386,-599.9186"/>
<polygon fill="#000000" stroke="#000000" points="824.1673,-601.027 824.7419,-590.4477 817.6954,-598.3596 824.1673,-601.027"/>
</g>
<!-- codefile -->
<g id="node13" class="node">
<title>codefile</title>
<g id="a_node13"><a xlink:href="codefile.md" xlink:title="codefile.md">
<ellipse fill="#eee8aa" stroke="#000000" cx="1451" cy="-1170" rx="65.069" ry="22.7556"/>
<text text-anchor="middle" x="1451" y="-1162.8" font-family="Times,serif" font-size="24.00" fill="#000000">codefile</text>
</a>
</g>
</g>
<!-- startingvars&#45;&gt;codefile -->
<g id="edge117" class="edge">
<title>startingvars&#45;&gt;codefile</title>
<path fill="none" stroke="#000000" d="M1887.9831,-1272.5129C1790.9342,-1249.746 1610.916,-1207.5151 1515.02,-1185.0186"/>
<polygon fill="#000000" stroke="#000000" points="1515.6975,-1181.5826 1505.1624,-1182.7061 1514.0987,-1188.3976 1515.6975,-1181.5826"/>
</g>
<!-- startingvars&#45;&gt;args -->
<g id="edge101" class="edge">
<title>startingvars&#45;&gt;args</title>
<path fill="none" stroke="#000000" d="M1997.5985,-1267.969C2123.4753,-1207.2041 2485.5266,-1010.982 2596,-717.6274 2628.9574,-630.1112 2596.0063,-517.7222 2575.9603,-463.7313"/>
<polygon fill="#000000" stroke="#000000" points="2579.2168,-462.4478 2572.3862,-454.3487 2572.6753,-464.9396 2579.2168,-462.4478"/>
</g>
<!-- startingvars&#45;&gt;opresultwarn -->
<g id="edge107" class="edge">
<title>startingvars&#45;&gt;opresultwarn</title>
<path fill="none" stroke="#000000" d="M1863.8725,-1285.3468C1584.8731,-1276.5979 747.5439,-1246.1243 638,-1192.6274 382.3856,-1067.7956 311.1456,-983.1231 209,-717.6274 93.7983,-418.1966 670.6766,-334.251 915.9311,-312.2738"/>
<polygon fill="#000000" stroke="#000000" points="916.2805,-315.7567 925.936,-311.3952 915.6681,-308.7835 916.2805,-315.7567"/>
</g>
<!-- startingvars&#45;&gt;messages -->
<g id="edge102" class="edge">
<title>startingvars&#45;&gt;messages</title>
<path fill="none" stroke="#000000" d="M2004.9384,-1269.1829C2052.8367,-1251.0346 2126.2142,-1222.0569 2188,-1192.6274 2436.5476,-1074.2408 3113.6721,-820.2913 3274,-596.4917 3317.2322,-536.1445 3303,-506.2349 3303,-432 3303,-432 3303,-432 3303,-305 3303,-261.0011 3476.5074,-285.2557 2970,-148.5083 2686.3928,-71.9397 2337.3681,-50.3913 2171.831,-44.3457"/>
<polygon fill="#000000" stroke="#000000" points="2171.7946,-40.8423 2161.6769,-43.986 2171.5467,-47.8379 2171.7946,-40.8423"/>
</g>
<!-- readjson -->
<g id="node30" class="node">
<title>readjson</title>
<g id="a_node30"><a xlink:href="readjson.md" xlink:title="readjson.md">
<ellipse fill="#eee8aa" stroke="#000000" cx="551" cy="-814" rx="68.6102" ry="22.7556"/>
<text text-anchor="middle" x="551" y="-806.8" font-family="Times,serif" font-size="24.00" fill="#000000">readjson</text>
</a>
</g>
</g>
<!-- startingvars&#45;&gt;readjson -->
<g id="edge106" class="edge">
<title>startingvars&#45;&gt;readjson</title>
<path fill="none" stroke="#000000" d="M1863.1072,-1287.0286C1586.0061,-1283.2764 765.0372,-1266.0142 672,-1192.6274 616.2083,-1148.6195 571.8751,-930.3856 556.6705,-846.7215"/>
<polygon fill="#000000" stroke="#000000" points="560.0923,-845.9738 554.8809,-836.7493 553.2024,-847.2103 560.0923,-845.9738"/>
</g>
<!-- unicodes&#45;&gt;opresultid -->
<g id="edge65" class="edge">
<title>unicodes&#45;&gt;opresultid</title>
<path fill="none" stroke="#000000" d="M583.5103,-672.3462C587.8991,-606.5132 600.6653,-415.0206 605.8116,-337.8253"/>
<polygon fill="#000000" stroke="#000000" points="609.3125,-337.927 606.4856,-327.7163 602.328,-337.4613 609.3125,-337.927"/>
</g>
<!-- unicodes&#45;&gt;vartypes -->
<g id="edge69" class="edge">
<title>unicodes&#45;&gt;vartypes</title>
<path fill="none" stroke="#000000" d="M620.2734,-675.7114C665.0289,-653.156 739.1003,-615.8265 787.2254,-591.5729"/>
<polygon fill="#000000" stroke="#000000" points="788.8372,-594.68 796.1921,-587.054 785.6869,-588.429 788.8372,-594.68"/>
</g>
<!-- utf8decoder -->
<g id="node16" class="node">
<title>utf8decoder</title>
<g id="a_node16"><a xlink:href="utf8decoder.md" xlink:title="utf8decoder.md">
<polygon fill="#98fb98" stroke="#000000" points="1132.9296,-557.8581 1132.9296,-578.1419 1074.3922,-592.4846 991.6078,-592.4846 933.0704,-578.1419 933.0704,-557.8581 991.6078,-543.5154 1074.3922,-543.5154 1132.9296,-557.8581"/>
<polygon fill="none" stroke="#000000" points="1136.9282,-554.7208 1136.9282,-581.2792 1074.8749,-596.4835 991.1251,-596.4835 929.0718,-581.2792 929.0718,-554.7208 991.1251,-539.5165 1074.8749,-539.5165 1136.9282,-554.7208"/>
<text text-anchor="middle" x="1033" y="-560.8" font-family="Times,serif" font-size="24.00" fill="#000000">utf8decoder</text>
</a>
</g>
</g>
<!-- unicodes&#45;&gt;utf8decoder -->
<g id="edge68" class="edge">
<title>unicodes&#45;&gt;utf8decoder</title>
<path fill="none" stroke="#000000" d="M635.5067,-679.9327C713.1756,-658.0614 857.8661,-617.3171 949.6023,-591.4845"/>
<polygon fill="#000000" stroke="#000000" points="950.7365,-594.8013 959.4134,-588.7217 948.8391,-588.0634 950.7365,-594.8013"/>
</g>
<!-- unicodes&#45;&gt;opresultwarn -->
<g id="edge66" class="edge">
<title>unicodes&#45;&gt;opresultwarn</title>
<path fill="none" stroke="#000000" d="M596.535,-672.707C617.1735,-641.6594 656.8315,-584.1841 696,-539.5083 753.6091,-473.7988 767.2694,-454.8281 838,-403.5083 878.5549,-374.0829 928.9838,-347.7043 966.7868,-329.6665"/>
<polygon fill="#000000" stroke="#000000" points="968.5637,-332.6981 976.112,-325.2635 965.5749,-326.3682 968.5637,-332.6981"/>
</g>
<!-- unicodes&#45;&gt;messages -->
<g id="edge67" class="edge">
<title>unicodes&#45;&gt;messages</title>
<path fill="none" stroke="#000000" d="M567.029,-672.5282C539.1323,-628.4117 482,-526.5227 482,-432 482,-432 482,-432 482,-305 482,-218.6877 521.4396,-190.2269 597,-148.5083 717.6448,-81.8975 1671.2362,-52.2017 1979.9347,-44.2698"/>
<polygon fill="#000000" stroke="#000000" points="1980.2941,-47.7619 1990.2016,-44.0079 1980.1156,-40.7641 1980.2941,-47.7619"/>
</g>
<!-- variables&#45;&gt;vartypes -->
<g id="edge50" class="edge">
<title>variables&#45;&gt;vartypes</title>
<path fill="none" stroke="#000000" d="M2459.1593,-679.9912C2446.3933,-677.0024 2432.7923,-674.2195 2420,-672.3726 1759.3308,-576.9889 1576.1003,-719.4314 920,-596.4917 909.5733,-594.538 898.6713,-591.6361 888.2681,-588.4212"/>
<polygon fill="#000000" stroke="#000000" points="889.0703,-585.0025 878.4787,-585.2638 886.9215,-591.6645 889.0703,-585.0025"/>
</g>
<!-- variables&#45;&gt;warnings -->
<g id="edge53" class="edge">
<title>variables&#45;&gt;warnings</title>
<path fill="none" stroke="#000000" d="M2496.4791,-672.8591C2441.7469,-605.0569 2266.3405,-397.8871 2078,-282.3726 2023.5062,-248.95 1956.748,-218.5526 1910.7521,-199.0896"/>
<polygon fill="#000000" stroke="#000000" points="1911.8393,-195.7501 1901.2641,-195.1052 1909.129,-202.2042 1911.8393,-195.7501"/>
</g>
<!-- variables&#45;&gt;args -->
<g id="edge54" class="edge">
<title>variables&#45;&gt;args</title>
<path fill="none" stroke="#000000" d="M2520.4303,-672.4589C2525.9277,-652.5902 2533.7583,-622.7938 2539,-596.4917 2548.0342,-551.1593 2555.1584,-498.1632 2559.2263,-464.8377"/>
<polygon fill="#000000" stroke="#000000" points="2562.7211,-465.0895 2560.4381,-454.7436 2555.771,-464.2551 2562.7211,-465.0895"/>
</g>
<!-- variables&#45;&gt;opresultwarn -->
<g id="edge55" class="edge">
<title>variables&#45;&gt;opresultwarn</title>
<path fill="none" stroke="#000000" d="M2492.2792,-673.1134C2457.8523,-639.6168 2387.3188,-575.72 2316,-539.5083 2116.7684,-438.3495 2051.0994,-447.3461 1832,-403.5083 1581.9005,-353.4678 1282.9348,-325.0887 1127.5486,-312.6539"/>
<polygon fill="#000000" stroke="#000000" points="1127.769,-309.1605 1117.5233,-311.8578 1127.2148,-316.1385 1127.769,-309.1605"/>
</g>
<!-- variables&#45;&gt;messages -->
<g id="edge52" class="edge">
<title>variables&#45;&gt;messages</title>
<path fill="none" stroke="#000000" d="M2539.1115,-673.5697C2584.8343,-632.0086 2677,-535.4071 2677,-432 2677,-432 2677,-432 2677,-305 2677,-187.1714 2569.0992,-199.7582 2463,-148.5083 2368.0741,-102.6555 2250.1958,-73.8015 2169.6406,-57.868"/>
<polygon fill="#000000" stroke="#000000" points="2169.9991,-54.3721 2159.5142,-55.8942 2168.6598,-61.2428 2169.9991,-54.3721"/>
</g>
<!-- version -->
<g id="node29" class="node">
<title>version</title>
<g id="a_node29"><a xlink:href="version.md" xlink:title="version.md">
<polygon fill="#98fb98" stroke="#000000" points="2879.1523,-557.8581 2879.1523,-578.1419 2840.4012,-592.4846 2785.5988,-592.4846 2746.8477,-578.1419 2746.8477,-557.8581 2785.5988,-543.5154 2840.4012,-543.5154 2879.1523,-557.8581"/>
<polygon fill="none" stroke="#000000" points="2883.1421,-555.0721 2883.1421,-580.9279 2841.1143,-596.4835 2784.8857,-596.4835 2742.8579,-580.9279 2742.8579,-555.0721 2784.8857,-539.5165 2841.1143,-539.5165 2883.1421,-555.0721"/>
<text text-anchor="middle" x="2813" y="-560.8" font-family="Times,serif" font-size="24.00" fill="#000000">version</text>
</a>
</g>
</g>
<!-- variables&#45;&gt;version -->
<g id="edge51" class="edge">
<title>variables&#45;&gt;version</title>
<path fill="none" stroke="#000000" d="M2557.1578,-676.6687C2609.0909,-654.6102 2696.5208,-617.4744 2754.4919,-592.8513"/>
<polygon fill="#000000" stroke="#000000" points="2756.0527,-595.991 2763.8885,-588.8601 2753.3161,-589.5481 2756.0527,-595.991"/>
</g>
<!-- vartypes&#45;&gt;warnings -->
<g id="edge43" class="edge">
<title>vartypes&#45;&gt;warnings</title>
<path fill="none" stroke="#000000" d="M863.435,-547.3822C939.72,-494.9229 1151.5918,-355.3756 1348,-282.3726 1493.9048,-228.1412 1674.3186,-199.1098 1776.1609,-185.969"/>
<polygon fill="#000000" stroke="#000000" points="1776.8924,-189.4042 1786.3711,-184.6709 1776.0095,-182.4601 1776.8924,-189.4042"/>
</g>
<!-- vartypes&#45;&gt;opresultwarn -->
<g id="edge44" class="edge">
<title>vartypes&#45;&gt;opresultwarn</title>
<path fill="none" stroke="#000000" d="M850.0288,-545.5768C883.6742,-498.5089 961.7054,-389.3482 1000.0001,-335.7764"/>
<polygon fill="#000000" stroke="#000000" points="1003.0438,-337.5371 1006.0118,-327.3665 997.3491,-333.4664 1003.0438,-337.5371"/>
</g>
<!-- vartypes&#45;&gt;messages -->
<g id="edge42" class="edge">
<title>vartypes&#45;&gt;messages</title>
<path fill="none" stroke="#000000" d="M833.5281,-545.3123C833.6802,-492.0593 841.5741,-357.8677 913,-282.3726 1059.4858,-127.5414 1727.9802,-66.0141 1979.7271,-48.0733"/>
<polygon fill="#000000" stroke="#000000" points="1980.224,-51.547 1989.953,-47.3522 1979.7316,-44.5644 1980.224,-51.547"/>
</g>
<!-- codefile&#45;&gt;env -->
<g id="edge108" class="edge">
<title>codefile&#45;&gt;env</title>
<path fill="none" stroke="#000000" d="M1515.131,-1165.9307C1656.1854,-1156.0819 1988.5589,-1127.6937 2086,-1073.6274 2232.7083,-992.2246 2328.3991,-802.0278 2361.7886,-726.6154"/>
<polygon fill="#000000" stroke="#000000" points="2365.1176,-727.7375 2365.9081,-717.1722 2358.7015,-724.9385 2365.1176,-727.7375"/>
</g>
<!-- codefile&#45;&gt;variables -->
<g id="edge113" class="edge">
<title>codefile&#45;&gt;variables</title>
<path fill="none" stroke="#000000" d="M1515.1018,-1165.7607C1662.8536,-1155.221 2023.0141,-1124.9183 2132,-1073.6274 2304.1179,-992.6254 2444.2064,-800.7727 2494.2466,-725.7894"/>
<polygon fill="#000000" stroke="#000000" points="2497.3036,-727.5119 2499.8988,-717.2398 2491.4643,-723.6515 2497.3036,-727.5119"/>
</g>
<!-- codefile&#45;&gt;vartypes -->
<g id="edge114" class="edge">
<title>codefile&#45;&gt;vartypes</title>
<path fill="none" stroke="#000000" d="M1394.0032,-1159.006C1252.3299,-1130.4364 890.4887,-1049.4402 819,-954.6274 787.3855,-912.6983 814.3338,-889.1227 813,-836.6274 812.4891,-816.5206 812.0577,-811.4638 813,-791.3726 816.1864,-723.4375 824.7951,-644.2623 829.9474,-600.782"/>
<polygon fill="#000000" stroke="#000000" points="833.4311,-601.1266 831.1464,-590.7811 826.4808,-600.2933 833.4311,-601.1266"/>
</g>
<!-- codefile&#45;&gt;readlines -->
<g id="edge111" class="edge">
<title>codefile&#45;&gt;readlines</title>
<path fill="none" stroke="#000000" d="M1513.4984,-1163.6194C1664.2456,-1144.6382 2048.8104,-1074.1121 2231,-836.6274 2282.4331,-769.5842 2257.5823,-662.9392 2238.6457,-606.2912"/>
<polygon fill="#000000" stroke="#000000" points="2241.8882,-604.9581 2235.3165,-596.6477 2235.2714,-607.2424 2241.8882,-604.9581"/>
</g>
<!-- codefile&#45;&gt;utf8decoder -->
<g id="edge116" class="edge">
<title>codefile&#45;&gt;utf8decoder</title>
<path fill="none" stroke="#000000" d="M1390.3802,-1161.7568C1333.7833,-1150.9735 1250.6528,-1126.7503 1200,-1073.6274 1133.4755,-1003.8588 1064.5064,-712.1895 1041.2272,-606.4749"/>
<polygon fill="#000000" stroke="#000000" points="1044.6118,-605.5687 1039.0554,-596.5478 1037.7735,-607.0648 1044.6118,-605.5687"/>
</g>
<!-- codefile&#45;&gt;warnings -->
<g id="edge115" class="edge">
<title>codefile&#45;&gt;warnings</title>
<path fill="none" stroke="#000000" d="M1462.1441,-1147.6607C1471.1144,-1128.5247 1483.1562,-1099.9644 1489,-1073.6274 1553.6354,-782.3244 1383.7264,-663.5837 1530,-403.5083 1589.6946,-297.3709 1722.2875,-229.8418 1798.7113,-198.1878"/>
<polygon fill="#000000" stroke="#000000" points="1800.2583,-201.337 1808.1989,-194.323 1797.6174,-194.8543 1800.2583,-201.337"/>
</g>
<!-- codefile&#45;&gt;opresultwarn -->
<g id="edge110" class="edge">
<title>codefile&#45;&gt;opresultwarn</title>
<path fill="none" stroke="#000000" d="M1397.673,-1156.7146C1354.2818,-1143.1021 1294.8722,-1117.5674 1261,-1073.6274 1112.7475,-881.3105 1229.0895,-767.6765 1146,-539.5083 1118.0619,-462.7887 1069.3503,-379.8617 1042.0363,-336.1188"/>
<polygon fill="#000000" stroke="#000000" points="1044.9968,-334.2517 1036.7095,-327.6508 1039.0716,-337.979 1044.9968,-334.2517"/>
</g>
<!-- codefile&#45;&gt;messages -->
<g id="edge109" class="edge">
<title>codefile&#45;&gt;messages</title>
<path fill="none" stroke="#000000" d="M1390.3065,-1161.4727C1293.0954,-1147.1932 1096.8519,-1115.808 934,-1073.6274 491.3527,-958.9764 38,-1025.2543 38,-568 38,-568 38,-568 38,-305 38,-176.542 158.8907,-188.3929 281,-148.5083 442.803,-95.6585 1631.7538,-55.5538 1980.2563,-44.8371"/>
<polygon fill="#000000" stroke="#000000" points="1980.432,-48.3335 1990.32,-44.5287 1980.2174,-41.3368 1980.432,-48.3335"/>
</g>
<!-- runCommand -->
<g id="node35" class="node">
<title>runCommand</title>
<g id="a_node35"><a xlink:href="runCommand.md" xlink:title="runCommand.md">
<ellipse fill="#eee8aa" stroke="#000000" cx="1375" cy="-1051" rx="104.7872" ry="22.7556"/>
<text text-anchor="middle" x="1375" y="-1043.8" font-family="Times,serif" font-size="24.00" fill="#000000">runCommand</text>
</a>
</g>
</g>
<!-- codefile&#45;&gt;runCommand -->
<g id="edge112" class="edge">
<title>codefile&#45;&gt;runCommand</title>
<path fill="none" stroke="#000000" d="M1436.8831,-1147.8959C1425.0889,-1129.4287 1408.1327,-1102.8789 1394.9509,-1082.239"/>
<polygon fill="#000000" stroke="#000000" points="1397.891,-1080.3399 1389.5587,-1073.7959 1391.9915,-1084.1077 1397.891,-1080.3399"/>
</g>
<!-- replacement&#45;&gt;parseCmdLine -->
<g id="edge76" class="edge">
<title>replacement&#45;&gt;parseCmdLine</title>
<path fill="none" stroke="#000000" d="M1840.4745,-791.3369C1848.9231,-773.0573 1860.9063,-747.1301 1870.3132,-726.7769"/>
<polygon fill="#000000" stroke="#000000" points="1873.5461,-728.1245 1874.5645,-717.5787 1867.1919,-725.1877 1873.5461,-728.1245"/>
</g>
<!-- replacement&#45;&gt;env -->
<g id="edge74" class="edge">
<title>replacement&#45;&gt;env</title>
<path fill="none" stroke="#000000" d="M1898.9172,-798.5576C1910.291,-796.096 1921.9673,-793.6217 1933,-791.3726 2106.7058,-755.9617 2155.9281,-770.941 2325,-717.6274 2329.0892,-716.338 2333.2857,-714.8027 2337.4254,-713.1478"/>
<polygon fill="#000000" stroke="#000000" points="2339.0642,-716.2547 2346.9047,-709.1289 2336.3318,-709.81 2339.0642,-716.2547"/>
</g>
<!-- replacement&#45;&gt;variables -->
<g id="edge80" class="edge">
<title>replacement&#45;&gt;variables</title>
<path fill="none" stroke="#000000" d="M1898.2958,-798.3344C1909.8522,-795.8738 1921.7489,-793.4579 1933,-791.3726 2148.2459,-751.4774 2205.1632,-759.6703 2420,-717.6274 2428.9521,-715.8755 2438.3394,-713.8477 2447.5738,-711.7402"/>
<polygon fill="#000000" stroke="#000000" points="2448.5584,-715.1047 2457.5061,-709.4312 2446.9733,-708.2865 2448.5584,-715.1047"/>
</g>
<!-- replacement&#45;&gt;tempFile -->
<g id="edge81" class="edge">
<title>replacement&#45;&gt;tempFile</title>
<path fill="none" stroke="#000000" d="M1894.8649,-797.4783C1960.3844,-779.3226 2054.8672,-748.6029 2076,-717.6274 2098.7511,-684.2798 2082.6528,-637.9814 2065.7272,-605.7504"/>
<polygon fill="#000000" stroke="#000000" points="2068.6077,-603.7244 2060.7273,-596.6428 2062.4716,-607.0931 2068.6077,-603.7244"/>
</g>
<!-- replacement&#45;&gt;vartypes -->
<g id="edge75" class="edge">
<title>replacement&#45;&gt;vartypes</title>
<path fill="none" stroke="#000000" d="M1753.8667,-800.4596C1659.2229,-783.2121 1492.9492,-751.548 1352,-717.6274 1158.1297,-670.9709 1110.6955,-654.782 920,-596.4917 910.8458,-593.6936 901.1836,-590.6155 891.7725,-587.5489"/>
<polygon fill="#000000" stroke="#000000" points="892.6805,-584.1633 882.0877,-584.3695 890.497,-590.8141 892.6805,-584.1633"/>
</g>
<!-- replacement&#45;&gt;readlines -->
<g id="edge77" class="edge">
<title>replacement&#45;&gt;readlines</title>
<path fill="none" stroke="#000000" d="M1900.4293,-798.8413C1956.6501,-784.3854 2035.5694,-758.6403 2095,-717.6274 2138.7936,-687.4056 2176.883,-638.8637 2200.099,-605.3044"/>
<polygon fill="#000000" stroke="#000000" points="2203.2283,-606.927 2205.96,-596.6904 2197.4409,-602.9892 2203.2283,-606.927"/>
</g>
<!-- replacement&#45;&gt;warnings -->
<g id="edge83" class="edge">
<title>replacement&#45;&gt;warnings</title>
<path fill="none" stroke="#000000" d="M1893.4892,-797.0949C1933.1131,-782.8986 1981.0029,-758.2379 2005,-717.6274 2034.9871,-666.8799 1975.0679,-650.2995 1951,-596.4917 1935.0182,-560.7618 1881.4897,-302.1657 1862.6381,-209.7352"/>
<polygon fill="#000000" stroke="#000000" points="1866.0423,-208.9116 1860.6171,-199.8112 1859.1831,-210.3085 1866.0423,-208.9116"/>
</g>
<!-- replacement&#45;&gt;opresultwarn -->
<g id="edge82" class="edge">
<title>replacement&#45;&gt;opresultwarn</title>
<path fill="none" stroke="#000000" d="M1799.3073,-792.36C1693.3507,-717.7896 1342.9243,-472.3212 1224,-403.5083 1175.7506,-375.5898 1118.4404,-348.1516 1077.2108,-329.3531"/>
<polygon fill="#000000" stroke="#000000" points="1078.4335,-326.0645 1067.8807,-325.1213 1075.542,-332.4395 1078.4335,-326.0645"/>
</g>
<!-- replacement&#45;&gt;messages -->
<g id="edge79" class="edge">
<title>replacement&#45;&gt;messages</title>
<path fill="none" stroke="#000000" d="M1897.6287,-798.235C1960.4114,-782.2774 2055.5717,-754.6801 2133,-717.6274 2292.7931,-641.1597 2411,-609.1472 2411,-432 2411,-432 2411,-432 2411,-305 2411,-225.4225 2383.0583,-201.844 2324,-148.5083 2276.8571,-105.9333 2210.0998,-78.5824 2157.7209,-62.2706"/>
<polygon fill="#000000" stroke="#000000" points="2158.7015,-58.9106 2148.1159,-59.3521 2156.6664,-65.6082 2158.7015,-58.9106"/>
</g>
<!-- replacement&#45;&gt;matches -->
<g id="edge78" class="edge">
<title>replacement&#45;&gt;matches</title>
<path fill="none" stroke="#000000" d="M1803.8805,-791.9674C1782.9107,-773.4657 1753.5186,-745.6307 1732,-717.6274 1702.965,-679.8426 1677.1144,-631.0578 1661.7512,-599.6475"/>
<polygon fill="#000000" stroke="#000000" points="1664.8286,-597.9715 1657.328,-590.4887 1658.5252,-601.0157 1664.8286,-597.9715"/>
</g>
<!-- warnings&#45;&gt;messages -->
<g id="edge2" class="edge">
<title>warnings&#45;&gt;messages</title>
<path fill="none" stroke="#ff0000" d="M1889.4133,-156.4964C1925.3241,-134.4602 1982.8541,-99.1577 2024.5473,-73.5733"/>
<polygon fill="#ff0000" stroke="#ff0000" points="2026.4976,-76.4829 2033.1903,-68.2696 2022.8365,-70.5167 2026.4976,-76.4829"/>
</g>
<!-- repl -->
<g id="node18" class="node">
<title>repl</title>
<g id="a_node18"><a xlink:href="repl.md" xlink:title="repl.md">
<ellipse fill="#eee8aa" stroke="#000000" cx="2070" cy="-1416" rx="37.8963" ry="22.7556"/>
<text text-anchor="middle" x="2070" y="-1408.8" font-family="Times,serif" font-size="24.00" fill="#000000">repl</text>
</a>
</g>
</g>
<!-- repl&#45;&gt;regexes -->
<g id="edge134" class="edge">
<title>repl&#45;&gt;regexes</title>
<path fill="none" stroke="#000000" d="M2072.0449,-1393.2414C2073.809,-1362.5451 2073.4382,-1306.9366 2053,-1265.3726 1934.7428,-1024.879 1752.1151,-1074.6706 1629,-836.6274 1567.191,-717.1196 1547.1643,-671.9255 1571,-539.5083 1575.275,-515.759 1584.4646,-490.406 1592.9586,-470.2883"/>
<polygon fill="#000000" stroke="#000000" points="1596.2786,-471.4297 1597.0479,-460.8628 1589.8569,-468.6436 1596.2786,-471.4297"/>
</g>
<!-- repl&#45;&gt;env -->
<g id="edge128" class="edge">
<title>repl&#45;&gt;env</title>
<path fill="none" stroke="#000000" d="M2101.9866,-1403.9658C2139.7971,-1388.1544 2202.1028,-1356.856 2238,-1310.6274 2380.0607,-1127.6806 2380.8896,-826.7153 2376.893,-727.6991"/>
<polygon fill="#000000" stroke="#000000" points="2380.3889,-727.5281 2376.4435,-717.6954 2373.396,-727.8424 2380.3889,-727.5281"/>
</g>
<!-- repl&#45;&gt;startingvars -->
<g id="edge132" class="edge">
<title>repl&#45;&gt;startingvars</title>
<path fill="none" stroke="#000000" d="M2051.875,-1396C2032.9007,-1375.0628 2002.8911,-1341.9488 1981.1002,-1317.9036"/>
<polygon fill="#000000" stroke="#000000" points="1983.6471,-1315.5019 1974.3384,-1310.4424 1978.4602,-1320.2026 1983.6471,-1315.5019"/>
</g>
<!-- repl&#45;&gt;variables -->
<g id="edge137" class="edge">
<title>repl&#45;&gt;variables</title>
<path fill="none" stroke="#000000" d="M2105.4508,-1407.8346C2224.7174,-1379.3504 2604,-1280.1109 2604,-1170 2604,-1170 2604,-1170 2604,-1051 2604,-928.4119 2553.2194,-789.1227 2527.946,-727.3904"/>
<polygon fill="#000000" stroke="#000000" points="2531.0398,-725.7137 2523.9754,-717.8178 2524.5739,-728.3957 2531.0398,-725.7137"/>
</g>
<!-- repl&#45;&gt;vartypes -->
<g id="edge129" class="edge">
<title>repl&#45;&gt;vartypes</title>
<path fill="none" stroke="#000000" d="M2032.0473,-1414.557C1808.4487,-1405.9053 667.6759,-1359.6301 520,-1310.6274 410.5685,-1274.3152 302,-1285.2989 302,-1170 302,-1170 302,-1170 302,-932 302,-786.6134 381.8576,-755.6933 501,-672.3726 579.436,-617.5193 687.8797,-590.6194 759.4244,-578.0617"/>
<polygon fill="#000000" stroke="#000000" points="760.4338,-581.4403 769.7045,-576.3114 759.2588,-574.5396 760.4338,-581.4403"/>
</g>
<!-- repl&#45;&gt;warnings -->
<g id="edge127" class="edge">
<title>repl&#45;&gt;warnings</title>
<path fill="none" stroke="#000000" d="M2032.2498,-1415.0694C1865.1956,-1408.6346 1197.2309,-1357.7058 1119,-954.6274 1090.1907,-806.1897 1218.4784,-462.9304 1446,-282.3726 1497.3957,-241.5857 1676.5513,-206.4336 1780.2449,-188.8978"/>
<polygon fill="#000000" stroke="#000000" points="1781.0613,-192.3098 1790.3452,-187.205 1779.9042,-185.4061 1781.0613,-192.3098"/>
</g>
<!-- repl&#45;&gt;args -->
<g id="edge130" class="edge">
<title>repl&#45;&gt;args</title>
<path fill="none" stroke="#000000" d="M2107.507,-1412.636C2183.1782,-1404.5713 2357.8254,-1379.4171 2486,-1310.6274 2554.7541,-1273.728 2583.8069,-1263.7069 2616,-1192.6274 2658.7057,-1098.3369 2706.072,-913.582 2617,-539.5083 2610.3411,-511.543 2595.2338,-482.5729 2582.6871,-461.7617"/>
<polygon fill="#000000" stroke="#000000" points="2585.5587,-459.7508 2577.3209,-453.0883 2579.6059,-463.4338 2585.5587,-459.7508"/>
</g>
<!-- repl&#45;&gt;opresultwarn -->
<g id="edge131" class="edge">
<title>repl&#45;&gt;opresultwarn</title>
<path fill="none" stroke="#000000" d="M2032.0184,-1414.7115C1794.8899,-1406.5284 522.4491,-1360.5457 357,-1310.6274 237.5376,-1274.584 114,-1294.7813 114,-1170 114,-1170 114,-1170 114,-695 114,-535.5885 181.8807,-477.6526 323,-403.5083 423.6039,-350.6507 745.3041,-322.6783 914.9496,-311.2763"/>
<polygon fill="#000000" stroke="#000000" points="915.407,-314.7537 925.1529,-310.5982 914.9428,-307.7691 915.407,-314.7537"/>
</g>
<!-- repl&#45;&gt;messages -->
<g id="edge135" class="edge">
<title>repl&#45;&gt;messages</title>
<path fill="none" stroke="#000000" d="M2032.1008,-1415.6198C1779.1585,-1412.858 340.4398,-1393.5676 166,-1310.6274 89.6736,-1274.3368 38,-1254.5147 38,-1170 38,-1170 38,-1170 38,-932 38,-769.343 0,-730.657 0,-568 0,-568 0,-568 0,-305 0,-224.7662 21.6503,-190.5295 90,-148.5083 171.3175,-98.5145 1594.4033,-55.4086 1980.1998,-44.6027"/>
<polygon fill="#000000" stroke="#000000" points="1980.3177,-48.1009 1990.2161,-44.3229 1980.1222,-41.1036 1980.3177,-48.1009"/>
</g>
<!-- repl&#45;&gt;matches -->
<g id="edge133" class="edge">
<title>repl&#45;&gt;matches</title>
<path fill="none" stroke="#000000" d="M2099.7822,-1401.925C2131.3308,-1385.1648 2179.3729,-1353.8991 2200,-1310.6274 2254.4667,-1196.3669 2249.0954,-1120.2228 2162,-1028.3726 1996.5219,-853.8605 1795.9376,-1032.2161 1656,-836.6274 1605.2391,-765.6796 1623.8176,-655.0945 1637.5325,-600.6014"/>
<polygon fill="#000000" stroke="#000000" points="1640.9543,-601.3505 1640.1038,-590.7899 1634.183,-599.576 1640.9543,-601.3505"/>
</g>
<!-- repl&#45;&gt;runCommand -->
<g id="edge136" class="edge">
<title>repl&#45;&gt;runCommand</title>
<path fill="none" stroke="#000000" d="M2033.2375,-1409.864C1901.8108,-1387.1158 1458.715,-1303.1729 1377,-1192.6274 1353.8864,-1161.359 1358.5632,-1114.6839 1365.5178,-1083.5644"/>
<polygon fill="#000000" stroke="#000000" points="1368.9662,-1084.1957 1367.9268,-1073.6519 1362.1642,-1082.5425 1368.9662,-1084.1957"/>
</g>
<!-- collectCommand -->
<g id="node19" class="node">
<title>collectCommand</title>
<g id="a_node19"><a xlink:href="collectCommand.md" xlink:title="collectCommand.md">
<ellipse fill="#eee8aa" stroke="#000000" cx="2069" cy="-814" rx="127.4982" ry="22.7556"/>
<text text-anchor="middle" x="2069" y="-806.8" font-family="Times,serif" font-size="24.00" fill="#000000">collectCommand</text>
</a>
</g>
</g>
<!-- collectCommand&#45;&gt;parseCmdLine -->
<g id="edge34" class="edge">
<title>collectCommand&#45;&gt;parseCmdLine</title>
<path fill="none" stroke="#000000" d="M2035.2516,-792.1736C2004.7754,-772.4635 1959.8117,-743.3836 1927.016,-722.1734"/>
<polygon fill="#000000" stroke="#000000" points="1928.8322,-719.1798 1918.5345,-716.6881 1925.0307,-725.0577 1928.8322,-719.1798"/>
</g>
<!-- collectCommand&#45;&gt;env -->
<g id="edge31" class="edge">
<title>collectCommand&#45;&gt;env</title>
<path fill="none" stroke="#000000" d="M2126.1009,-793.708C2178.2566,-774.8892 2257.3182,-745.647 2325,-717.6274 2328.8625,-716.0284 2332.8698,-714.3128 2336.8586,-712.5676"/>
<polygon fill="#000000" stroke="#000000" points="2338.3376,-715.7405 2346.056,-708.4826 2335.4961,-709.3431 2338.3376,-715.7405"/>
</g>
<!-- collectCommand&#45;&gt;readlines -->
<g id="edge33" class="edge">
<title>collectCommand&#45;&gt;readlines</title>
<path fill="none" stroke="#000000" d="M2093.3403,-791.6106C2112.4287,-773.12 2138.7332,-745.4774 2157,-717.6274 2180.1711,-682.3002 2198.9971,-637.6357 2210.7267,-606.339"/>
<polygon fill="#000000" stroke="#000000" points="2214.1136,-607.2697 2214.2822,-596.6762 2207.5442,-604.8524 2214.1136,-607.2697"/>
</g>
<!-- collectCommand&#45;&gt;opresultwarn -->
<g id="edge36" class="edge">
<title>collectCommand&#45;&gt;opresultwarn</title>
<path fill="none" stroke="#000000" d="M2061.6842,-791.3197C2051.6504,-762.1787 2031.7693,-710.7776 2005,-672.3726 1956.3102,-602.519 1808.3797,-441.1429 1732,-403.5083 1628.1601,-352.3432 1300.267,-323.5185 1128.8172,-311.5857"/>
<polygon fill="#000000" stroke="#000000" points="1128.9775,-308.0885 1118.7605,-310.8926 1128.4961,-315.0719 1128.9775,-308.0885"/>
</g>
<!-- collectCommand&#45;&gt;messages -->
<g id="edge35" class="edge">
<title>collectCommand&#45;&gt;messages</title>
<path fill="none" stroke="#000000" d="M2158.0659,-797.8072C2262.8657,-778.7319 2442.1107,-746.0378 2596,-717.6274 2740.4897,-690.9523 3145.7628,-703.9224 3246,-596.4917 3296.2058,-542.6829 3265,-505.5935 3265,-432 3265,-432 3265,-432 3265,-305 3265,-193.3399 2455.2446,-86.8617 2172.2365,-53.0576"/>
<polygon fill="#000000" stroke="#000000" points="2172.3319,-49.5443 2161.9883,-51.8378 2171.5045,-56.4953 2172.3319,-49.5443"/>
</g>
<!-- collectCommand&#45;&gt;matches -->
<g id="edge32" class="edge">
<title>collectCommand&#45;&gt;matches</title>
<path fill="none" stroke="#000000" d="M1972.4203,-799.1798C1908.9871,-785.8343 1826.6523,-761.3377 1765,-717.6274 1744.4773,-703.0772 1746.4442,-692.2312 1731,-672.3726 1711.2086,-646.9243 1688.2252,-618.4376 1671.3075,-597.6621"/>
<polygon fill="#000000" stroke="#000000" points="1673.9453,-595.3587 1664.9126,-589.8215 1668.5208,-599.783 1673.9453,-595.3587"/>
</g>
<!-- runner -->
<g id="node20" class="node">
<title>runner</title>
<g id="a_node20"><a xlink:href="runner.md" xlink:title="runner.md">
<polygon fill="#98fb98" stroke="#000000" points="3152.3608,-1540.8581 3152.3608,-1561.1419 3117.0023,-1575.4846 3066.9977,-1575.4846 3031.6392,-1561.1419 3031.6392,-1540.8581 3066.9977,-1526.5154 3117.0023,-1526.5154 3152.3608,-1540.8581"/>
<polygon fill="none" stroke="#000000" points="3156.3724,-1538.1681 3156.3724,-1563.8319 3117.7872,-1579.4835 3066.2128,-1579.4835 3027.6276,-1563.8319 3027.6276,-1538.1681 3066.2128,-1522.5165 3117.7872,-1522.5165 3156.3724,-1538.1681"/>
<text text-anchor="middle" x="3092" y="-1543.8" font-family="Times,serif" font-size="24.00" fill="#000000">runner</text>
</a>
</g>
</g>
<!-- statictea -->
<g id="node21" class="node">
<title>statictea</title>
<g id="a_node21"><a xlink:href="statictea.md" xlink:title="statictea.md">
<polygon fill="#eee8aa" stroke="#000000" points="2844.0958,-1542.3667 2927,-1523.0619 3009.9042,-1542.3667 3009.8268,-1573.6024 2844.1732,-1573.6024 2844.0958,-1542.3667"/>
<text text-anchor="middle" x="2927" y="-1543.8" font-family="Times,serif" font-size="24.00" fill="#000000">statictea</text>
</a>
</g>
</g>
<!-- statictea&#45;&gt;env -->
<g id="edge125" class="edge">
<title>statictea&#45;&gt;env</title>
<path fill="none" stroke="#000000" d="M2922.7368,-1523.8071C2913.8157,-1471.5686 2890.2461,-1354.47 2846,-1265.3726 2728.6968,-1029.1619 2670.1672,-983.0337 2489,-791.3726 2463.3607,-764.2482 2430.4894,-737.1417 2406.6379,-718.6176"/>
<polygon fill="#000000" stroke="#000000" points="2408.6643,-715.7607 2398.6041,-712.4374 2404.3961,-721.3089 2408.6643,-715.7607"/>
</g>
<!-- statictea&#45;&gt;repl -->
<g id="edge138" class="edge">
<title>statictea&#45;&gt;repl</title>
<path fill="none" stroke="#000000" d="M2855.4067,-1539.7222C2684.8802,-1512.8598 2258.3656,-1445.6725 2116.6213,-1423.3441"/>
<polygon fill="#000000" stroke="#000000" points="2116.9462,-1419.8522 2106.5233,-1421.7534 2115.8569,-1426.7669 2116.9462,-1419.8522"/>
</g>
<!-- gethelp -->
<g id="node22" class="node">
<title>gethelp</title>
<g id="a_node22"><a xlink:href="gethelp.md" xlink:title="gethelp.md">
<polygon fill="#98fb98" stroke="#000000" points="2552.1349,-1405.8581 2552.1349,-1426.1419 2513.394,-1440.4846 2458.606,-1440.4846 2419.8651,-1426.1419 2419.8651,-1405.8581 2458.606,-1391.5154 2513.394,-1391.5154 2552.1349,-1405.8581"/>
<polygon fill="none" stroke="#000000" points="2556.1242,-1403.0722 2556.1242,-1428.9278 2514.1071,-1444.4835 2457.8929,-1444.4835 2415.8758,-1428.9278 2415.8758,-1403.0722 2457.8929,-1387.5165 2514.1071,-1387.5165 2556.1242,-1403.0722"/>
<text text-anchor="middle" x="2486" y="-1408.8" font-family="Times,serif" font-size="24.00" fill="#000000">gethelp</text>
</a>
</g>
</g>
<!-- statictea&#45;&gt;gethelp -->
<g id="edge123" class="edge">
<title>statictea&#45;&gt;gethelp</title>
<path fill="none" stroke="#000000" d="M2871.7947,-1535.8696C2800.5347,-1516.0849 2672.8731,-1479.7784 2565,-1444.4917 2559.496,-1442.6913 2553.7982,-1440.7637 2548.0993,-1438.7917"/>
<polygon fill="#000000" stroke="#000000" points="2549.1361,-1435.4465 2538.5413,-1435.4458 2546.8232,-1442.0534 2549.1361,-1435.4465"/>
</g>
<!-- statictea&#45;&gt;args -->
<g id="edge121" class="edge">
<title>statictea&#45;&gt;args</title>
<path fill="none" stroke="#000000" d="M2936.5405,-1524.902C2952.767,-1478.1062 2984,-1376.534 2984,-1288 2984,-1288 2984,-1288 2984,-1051 2984,-935.5112 2967.8439,-626.6023 2892,-539.5083 2854.5818,-496.5397 2692.0613,-458.2361 2610.3179,-441.2651"/>
<polygon fill="#000000" stroke="#000000" points="2610.7885,-437.7888 2600.2889,-439.206 2609.3806,-444.6458 2610.7885,-437.7888"/>
</g>
<!-- statictea&#45;&gt;opresultwarn -->
<g id="edge126" class="edge">
<title>statictea&#45;&gt;opresultwarn</title>
<path fill="none" stroke="#000000" d="M2844.1155,-1548.0097C2367.7839,-1530.2936 0,-1434.8439 0,-1288 0,-1288 0,-1288 0,-932 0,-676.7138 4.112,-531.4909 225,-403.5083 283.76,-369.4627 714.7315,-330.1799 917.3149,-313.3523"/>
<polygon fill="#000000" stroke="#000000" points="917.6996,-316.8326 927.3767,-312.5194 917.122,-309.8564 917.6996,-316.8326"/>
</g>
<!-- statictea&#45;&gt;messages -->
<g id="edge122" class="edge">
<title>statictea&#45;&gt;messages</title>
<path fill="none" stroke="#000000" d="M2975.3719,-1534.317C3091.9756,-1492.6284 3379,-1380.6051 3379,-1288 3379,-1288 3379,-1288 3379,-305 3379,-258.5189 3642.1653,-327.4511 3171,-148.5083 2989.23,-79.4742 2403.9857,-52.8789 2172.0095,-44.8835"/>
<polygon fill="#000000" stroke="#000000" points="2172.0137,-41.3817 2161.9004,-44.5392 2171.7754,-48.3777 2172.0137,-41.3817"/>
</g>
<!-- statictea&#45;&gt;version -->
<g id="edge124" class="edge">
<title>statictea&#45;&gt;version</title>
<path fill="none" stroke="#000000" d="M2930.2662,-1523.7867C2935.6986,-1476.0991 2946,-1374.2929 2946,-1288 2946,-1288 2946,-1288 2946,-1170 2946,-952.1355 2861.9187,-700.1423 2827.4628,-606.0239"/>
<polygon fill="#000000" stroke="#000000" points="2830.743,-604.8029 2823.9971,-596.6333 2824.176,-607.2266 2830.743,-604.8029"/>
</g>
<!-- timer -->
<g id="node31" class="node">
<title>timer</title>
<g id="a_node31"><a xlink:href="timer.md" xlink:title="timer.md">
<polygon fill="#98fb98" stroke="#000000" points="3118.0202,-1405.8581 3118.0202,-1426.1419 3088.1333,-1440.4846 3045.8667,-1440.4846 3015.9798,-1426.1419 3015.9798,-1405.8581 3045.8667,-1391.5154 3088.1333,-1391.5154 3118.0202,-1405.8581"/>
<polygon fill="none" stroke="#000000" points="3122.021,-1403.3422 3122.021,-1428.6578 3089.044,-1444.4835 3044.956,-1444.4835 3011.979,-1428.6578 3011.979,-1403.3422 3044.956,-1387.5165 3089.044,-1387.5165 3122.021,-1403.3422"/>
<text text-anchor="middle" x="3067" y="-1408.8" font-family="Times,serif" font-size="24.00" fill="#000000">timer</text>
</a>
</g>
</g>
<!-- statictea&#45;&gt;timer -->
<g id="edge139" class="edge">
<title>statictea&#45;&gt;timer</title>
<path fill="none" stroke="#000000" d="M2950.4329,-1528.404C2972.8206,-1506.8158 3006.8389,-1474.0125 3032.3567,-1449.406"/>
<polygon fill="#000000" stroke="#000000" points="3034.8766,-1451.8383 3039.6456,-1442.3774 3030.0177,-1446.7994 3034.8766,-1451.8383"/>
</g>
<!-- parseCommandLine -->
<g id="node32" class="node">
<title>parseCommandLine</title>
<g id="a_node32"><a xlink:href="parseCommandLine.md" xlink:title="parseCommandLine.md">
<ellipse fill="#eee8aa" stroke="#000000" cx="3088" cy="-568" rx="148.8522" ry="22.7556"/>
<text text-anchor="middle" x="3088" y="-560.8" font-family="Times,serif" font-size="24.00" fill="#000000">parseCommandLine</text>
</a>
</g>
</g>
<!-- statictea&#45;&gt;parseCommandLine -->
<g id="edge12" class="edge">
<title>statictea&#45;&gt;parseCommandLine</title>
<path fill="none" stroke="#000000" d="M2971.6942,-1533.4429C3025.5853,-1511.3378 3111.3943,-1472.8305 3131,-1444.4917 3170.8618,-1386.874 3150,-1358.0626 3150,-1288 3150,-1288 3150,-1288 3150,-814 3150,-735.2165 3119.7301,-646.4267 3101.4913,-600.078"/>
<polygon fill="#000000" stroke="#000000" points="3104.655,-598.5633 3097.6875,-590.5817 3098.1569,-601.1661 3104.655,-598.5633"/>
</g>
<!-- processTemplate -->
<g id="node33" class="node">
<title>processTemplate</title>
<g id="a_node33"><a xlink:href="processTemplate.md" xlink:title="processTemplate.md">
<ellipse fill="#eee8aa" stroke="#000000" cx="2699" cy="-1416" rx="125.2054" ry="22.7556"/>
<text text-anchor="middle" x="2699" y="-1408.8" font-family="Times,serif" font-size="24.00" fill="#000000">processTemplate</text>
</a>
</g>
</g>
<!-- statictea&#45;&gt;processTemplate -->
<g id="edge120" class="edge">
<title>statictea&#45;&gt;processTemplate</title>
<path fill="none" stroke="#000000" d="M2892.8661,-1530.7891C2853.3511,-1507.3921 2788.1087,-1468.7617 2744.3572,-1442.8563"/>
<polygon fill="#000000" stroke="#000000" points="2746.0241,-1439.7757 2735.6361,-1437.6924 2742.4576,-1445.7991 2746.0241,-1439.7757"/>
</g>
<!-- comparelines -->
<g id="node23" class="node">
<title>comparelines</title>
<g id="a_node23"><a xlink:href="comparelines.md" xlink:title="comparelines.md">
<polygon fill="#98fb98" stroke="#000000" points="3398.3362,-1540.8581 3398.3362,-1561.1419 3333.7028,-1575.4846 3242.2972,-1575.4846 3177.6638,-1561.1419 3177.6638,-1540.8581 3242.2972,-1526.5154 3333.7028,-1526.5154 3398.3362,-1540.8581"/>
<polygon fill="none" stroke="#000000" points="3402.3422,-1537.6506 3402.3422,-1564.3494 3334.1427,-1579.4835 3241.8573,-1579.4835 3173.6578,-1564.3494 3173.6578,-1537.6506 3241.8573,-1522.5165 3334.1427,-1522.5165 3402.3422,-1537.6506"/>
<text text-anchor="middle" x="3288" y="-1543.8" font-family="Times,serif" font-size="24.00" fill="#000000">comparelines</text>
</a>
</g>
</g>
<!-- signatures&#45;&gt;vartypes -->
<g id="edge71" class="edge">
<title>signatures&#45;&gt;vartypes</title>
<path fill="none" stroke="#000000" d="M358.9215,-680.2944C369.9295,-677.6489 381.3052,-674.9225 392,-672.3726 525.3494,-640.5786 681.4451,-603.828 767.881,-583.5189"/>
<polygon fill="#000000" stroke="#000000" points="768.8801,-586.8795 777.8146,-581.1852 767.2792,-580.0651 768.8801,-586.8795"/>
</g>
<!-- signatures&#45;&gt;messages -->
<g id="edge72" class="edge">
<title>signatures&#45;&gt;messages</title>
<path fill="none" stroke="#000000" d="M305.8521,-672.4543C320.8288,-627.3748 352,-522.6608 352,-432 352,-432 352,-432 352,-305 352,-227.2874 365.275,-191.519 430,-148.5083 559.1312,-62.6986 1647.77,-45.8495 1980.0683,-42.6948"/>
<polygon fill="#000000" stroke="#000000" points="1980.1838,-46.194 1990.1508,-42.6011 1980.1187,-39.1943 1980.1838,-46.194"/>
</g>
<!-- args&#45;&gt;warnings -->
<g id="edge3" class="edge">
<title>args&#45;&gt;warnings</title>
<path fill="none" stroke="#000000" d="M2541.9754,-412.878C2505.5102,-380.7869 2426.9429,-316.2839 2349,-282.3726 2211.4687,-222.5356 2037.1553,-195.5914 1936.9293,-184.3158"/>
<polygon fill="#000000" stroke="#000000" points="1937.1925,-180.8237 1926.8696,-183.2088 1936.4267,-187.7817 1937.1925,-180.8237"/>
</g>
<!-- args&#45;&gt;opresultwarn -->
<g id="edge6" class="edge">
<title>args&#45;&gt;opresultwarn</title>
<path fill="none" stroke="#000000" d="M2524.128,-428.5523C2462.7254,-423.1222 2339.5181,-412.2917 2235,-403.5083 1824.8451,-369.04 1336.498,-329.9863 1126.4769,-313.2859"/>
<polygon fill="#000000" stroke="#000000" points="1126.6297,-309.7871 1116.3837,-312.4835 1126.0749,-316.7651 1126.6297,-309.7871"/>
</g>
<!-- args&#45;&gt;messages -->
<g id="edge1" class="edge">
<title>args&#45;&gt;messages</title>
<path fill="none" stroke="#000000" d="M2558.4804,-409.4646C2546.5733,-355.9844 2509.2787,-220.5082 2425,-148.5083 2353.7817,-87.666 2248.4052,-61.5752 2172.0874,-50.3894"/>
<polygon fill="#000000" stroke="#000000" points="2172.379,-46.896 2161.9893,-48.971 2171.4053,-53.828 2172.379,-46.896"/>
</g>
<!-- opresultwarn&#45;&gt;warnings -->
<g id="edge4" class="edge">
<title>opresultwarn&#45;&gt;warnings</title>
<path fill="none" stroke="#000000" d="M1105.0162,-292.2589C1267.1876,-267.3693 1623.8471,-212.6302 1780.1199,-188.6459"/>
<polygon fill="#000000" stroke="#000000" points="1780.7661,-192.0878 1790.1194,-187.1112 1779.7041,-185.1688 1780.7661,-192.0878"/>
</g>
<!-- opresultwarn&#45;&gt;opresult -->
<g id="edge5" class="edge">
<title>opresultwarn&#45;&gt;opresult</title>
<path fill="none" stroke="#000000" d="M973.7475,-285.1404C919.5252,-262.8239 831.3822,-226.5464 772.3203,-202.2379"/>
<polygon fill="#000000" stroke="#000000" points="773.3171,-198.8634 762.7376,-198.2939 770.6528,-205.3366 773.3171,-198.8634"/>
</g>
<!-- matches&#45;&gt;regexes -->
<g id="edge22" class="edge">
<title>matches&#45;&gt;regexes</title>
<path fill="none" stroke="#000000" d="M1640.9744,-545.2367C1635.58,-524.8579 1627.5597,-494.5589 1621.1725,-470.4293"/>
<polygon fill="#000000" stroke="#000000" points="1624.4899,-469.2841 1618.5475,-460.5126 1617.723,-471.0754 1624.4899,-469.2841"/>
</g>
<!-- matches&#45;&gt;args -->
<g id="edge21" class="edge">
<title>matches&#45;&gt;args</title>
<path fill="none" stroke="#000000" d="M1708.5237,-558.8655C1879.8803,-533.4239 2360.1236,-462.1214 2514.5309,-439.1963"/>
<polygon fill="#000000" stroke="#000000" points="2515.2731,-442.6246 2524.6506,-437.6938 2514.245,-435.7005 2515.2731,-442.6246"/>
</g>
<!-- readjson&#45;&gt;unicodes -->
<g id="edge89" class="edge">
<title>readjson&#45;&gt;unicodes</title>
<path fill="none" stroke="#000000" d="M556.9038,-791.3369C561.6227,-773.2227 568.2978,-747.5987 573.5777,-727.3308"/>
<polygon fill="#000000" stroke="#000000" points="576.9841,-728.1381 576.1181,-717.5787 570.2102,-726.3734 576.9841,-728.1381"/>
</g>
<!-- readjson&#45;&gt;vartypes -->
<g id="edge87" class="edge">
<title>readjson&#45;&gt;vartypes</title>
<path fill="none" stroke="#000000" d="M585.442,-794.3262C615.8932,-776.201 660.8139,-747.6391 696,-717.6274 739.809,-680.2609 783.7558,-629.8451 809.9176,-598.1289"/>
<polygon fill="#000000" stroke="#000000" points="812.8665,-600.052 816.4923,-590.0968 807.4498,-595.618 812.8665,-600.052"/>
</g>
<!-- readjson&#45;&gt;utf8decoder -->
<g id="edge90" class="edge">
<title>readjson&#45;&gt;utf8decoder</title>
<path fill="none" stroke="#000000" d="M588.4207,-794.9015C671.3216,-752.5911 871.0863,-650.6364 972.1954,-599.0331"/>
<polygon fill="#000000" stroke="#000000" points="974.0538,-602.0141 981.3698,-594.3507 970.8717,-595.7792 974.0538,-602.0141"/>
</g>
<!-- readjson&#45;&gt;opresultwarn -->
<g id="edge91" class="edge">
<title>readjson&#45;&gt;opresultwarn</title>
<path fill="none" stroke="#000000" d="M580.8917,-793.2579C605.1998,-775.304 639.2434,-747.5691 663,-717.6274 718.5077,-647.6682 701.2878,-610.0913 756,-539.5083 811.3331,-468.1242 839.1424,-463.1135 907,-403.5083 934.032,-379.7637 965.0295,-353.2522 988.0262,-333.7189"/>
<polygon fill="#000000" stroke="#000000" points="990.4466,-336.2554 995.8072,-327.1168 985.9177,-330.9179 990.4466,-336.2554"/>
</g>
<!-- readjson&#45;&gt;messages -->
<g id="edge88" class="edge">
<title>readjson&#45;&gt;messages</title>
<path fill="none" stroke="#000000" d="M534.0455,-792.0057C503.8744,-750.5977 444,-657.1881 444,-568 444,-568 444,-568 444,-305 444,-229.1657 450.036,-192.2268 512,-148.5083 631.8256,-63.9657 1658.5213,-46.283 1980.1033,-42.8052"/>
<polygon fill="#000000" stroke="#000000" points="1980.3655,-46.3027 1990.3278,-42.6968 1980.2913,-39.3031 1980.3655,-46.3027"/>
</g>
<!-- parseCommandLine&#45;&gt;regexes -->
<g id="edge10" class="edge">
<title>parseCommandLine&#45;&gt;regexes</title>
<path fill="none" stroke="#000000" d="M2984.3985,-551.7425C2954.6173,-547.3943 2922.0626,-542.9516 2892,-539.5083 2440.6428,-487.8103 1897.1269,-450.3527 1693.4068,-437.1768"/>
<polygon fill="#000000" stroke="#000000" points="1693.5865,-433.6812 1683.3819,-436.5303 1693.1359,-440.6667 1693.5865,-433.6812"/>
</g>
<!-- parseCommandLine&#45;&gt;cmdline -->
<g id="edge11" class="edge">
<title>parseCommandLine&#45;&gt;cmdline</title>
<path fill="none" stroke="#000000" d="M3088,-545.2367C3088,-524.9489 3088,-494.8293 3088,-470.7528"/>
<polygon fill="#000000" stroke="#000000" points="3091.5001,-470.5126 3088,-460.5126 3084.5001,-470.5127 3091.5001,-470.5126"/>
</g>
<!-- parseCommandLine&#45;&gt;warnings -->
<g id="edge9" class="edge">
<title>parseCommandLine&#45;&gt;warnings</title>
<path fill="none" stroke="#000000" d="M3037.6871,-546.6892C2885.0629,-482.0867 2435.7312,-292.2356 2403,-282.3726 2239.7372,-233.176 2041.8974,-201.7628 1934.5499,-186.9731"/>
<polygon fill="#000000" stroke="#000000" points="1934.8297,-183.479 1924.4481,-185.5937 1933.8826,-190.4146 1934.8297,-183.479"/>
</g>
<!-- parseCommandLine&#45;&gt;args -->
<g id="edge7" class="edge">
<title>parseCommandLine&#45;&gt;args</title>
<path fill="none" stroke="#000000" d="M2997.9293,-549.843C2882.6371,-526.1557 2689.5951,-484.8676 2621,-460.4917 2614.3947,-458.1445 2607.5584,-455.2457 2600.9976,-452.2044"/>
<polygon fill="#000000" stroke="#000000" points="2602.1689,-448.8837 2591.6411,-447.6943 2599.1294,-455.1893 2602.1689,-448.8837"/>
</g>
<!-- parseCommandLine&#45;&gt;messages -->
<g id="edge8" class="edge">
<title>parseCommandLine&#45;&gt;messages</title>
<path fill="none" stroke="#000000" d="M3069.8416,-545.3386C3005.4663,-465.5871 2786.8799,-199.9221 2691,-148.5083 2602.7825,-101.2033 2321.5757,-66.7035 2171.8879,-51.1646"/>
<polygon fill="#000000" stroke="#000000" points="2172.0881,-47.6668 2161.782,-50.1236 2171.3707,-54.63 2172.0881,-47.6668"/>
</g>
<!-- processTemplate&#45;&gt;parseCmdLine -->
<g id="edge30" class="edge">
<title>processTemplate&#45;&gt;parseCmdLine</title>
<path fill="none" stroke="#000000" d="M2653.2561,-1394.7447C2615.4265,-1375.8594 2561.5295,-1345.8376 2521,-1310.6274 2348.5942,-1160.8491 2397.6991,-1023.7072 2200,-909.3726 2015.8796,-802.8909 1865.4956,-998.0513 1727,-836.6274 1687.724,-790.8491 1763.3286,-745.6914 1822.9242,-719.0884"/>
<polygon fill="#000000" stroke="#000000" points="1824.5675,-722.19 1832.3314,-714.9808 1821.7663,-715.7749 1824.5675,-722.19"/>
</g>
<!-- processTemplate&#45;&gt;env -->
<g id="edge20" class="edge">
<title>processTemplate&#45;&gt;env</title>
<path fill="none" stroke="#000000" d="M2700.1907,-1393.1896C2701.3939,-1363.5979 2702.3918,-1310.4264 2697,-1265.3726 2690.6071,-1211.9539 2685.927,-1198.7608 2670,-1147.3726 2653.1657,-1093.057 2650.1725,-1078.3249 2623,-1028.3726 2555.9779,-905.1632 2447.7008,-776.8006 2399.5,-722.1888"/>
<polygon fill="#000000" stroke="#000000" points="2402.0904,-719.8348 2392.8364,-714.6759 2396.8535,-724.4797 2402.0904,-719.8348"/>
</g>
<!-- processTemplate&#45;&gt;startingvars -->
<g id="edge119" class="edge">
<title>processTemplate&#45;&gt;startingvars</title>
<path fill="none" stroke="#000000" d="M2620.1487,-1398.4248C2602.069,-1394.6205 2582.9008,-1390.7656 2565,-1387.5083 2340.7728,-1346.7061 2282.1301,-1351.9595 2058,-1310.6274 2049.1925,-1309.0032 2039.992,-1307.1829 2030.8631,-1305.299"/>
<polygon fill="#000000" stroke="#000000" points="2031.5123,-1301.8591 2021.0074,-1303.2361 2030.0782,-1308.7107 2031.5123,-1301.8591"/>
</g>
<!-- processTemplate&#45;&gt;variables -->
<g id="edge98" class="edge">
<title>processTemplate&#45;&gt;variables</title>
<path fill="none" stroke="#000000" d="M2707.9063,-1393.3448C2723.9375,-1350.4612 2756,-1254.1724 2756,-1170 2756,-1170 2756,-1170 2756,-932 2756,-863.6941 2740.4217,-841.4797 2694,-791.3726 2661.1317,-755.8948 2612.1701,-730.8593 2573.6055,-715.2127"/>
<polygon fill="#000000" stroke="#000000" points="2574.6277,-711.8534 2564.0411,-711.4364 2572.057,-718.3643 2574.6277,-711.8534"/>
</g>
<!-- processTemplate&#45;&gt;vartypes -->
<g id="edge99" class="edge">
<title>processTemplate&#45;&gt;vartypes</title>
<path fill="none" stroke="#000000" d="M2622.0293,-1398.1374C2603.4309,-1394.2364 2583.5636,-1390.4117 2565,-1387.5083 2139.7632,-1320.9996 976.3894,-1458.6018 638,-1192.6274 450.2761,-1045.0763 658.0347,-882.1903 772,-672.3726 785.5825,-647.3663 802.0843,-619.7041 814.6477,-599.1437"/>
<polygon fill="#000000" stroke="#000000" points="817.6962,-600.8677 819.9442,-590.5141 811.7303,-597.206 817.6962,-600.8677"/>
</g>
<!-- processTemplate&#45;&gt;replacement -->
<g id="edge100" class="edge">
<title>processTemplate&#45;&gt;replacement</title>
<path fill="none" stroke="#000000" d="M2660.6662,-1394.2604C2600.3297,-1356.8658 2490,-1274.2361 2490,-1170 2490,-1170 2490,-1170 2490,-1051 2490,-963.1142 2429.7448,-950.3563 2352,-909.3726 2184.8014,-821.2327 2118.4596,-873.0794 1933,-836.6274 1925.0815,-835.071 1916.8363,-833.3798 1908.6116,-831.6463"/>
<polygon fill="#000000" stroke="#000000" points="1909.1226,-828.1767 1898.6129,-829.5171 1907.6646,-835.0232 1909.1226,-828.1767"/>
</g>
<!-- processTemplate&#45;&gt;readlines -->
<g id="edge24" class="edge">
<title>processTemplate&#45;&gt;readlines</title>
<path fill="none" stroke="#000000" d="M2713.9597,-1393.1841C2726.7553,-1372.5091 2744.5565,-1340.755 2754,-1310.6274 2823.1266,-1090.0923 2855.2029,-982.9994 2726,-791.3726 2682.2106,-726.4265 2664.461,-710.433 2596,-672.3726 2507.9116,-623.4005 2395.0777,-595.9598 2316.8913,-581.6459"/>
<polygon fill="#000000" stroke="#000000" points="2317.0357,-578.1161 2306.575,-579.7965 2315.8004,-585.0062 2317.0357,-578.1161"/>
</g>
<!-- processTemplate&#45;&gt;collectCommand -->
<g id="edge37" class="edge">
<title>processTemplate&#45;&gt;collectCommand</title>
<path fill="none" stroke="#000000" d="M2697.5827,-1393.3099C2691.3091,-1313.369 2658.9702,-1042.4673 2504,-909.3726 2457.1361,-869.124 2299.278,-841.9611 2187.2577,-827.2303"/>
<polygon fill="#000000" stroke="#000000" points="2187.612,-823.747 2177.2446,-825.9304 2186.7108,-830.6887 2187.612,-823.747"/>
</g>
<!-- processTemplate&#45;&gt;args -->
<g id="edge13" class="edge">
<title>processTemplate&#45;&gt;args</title>
<path fill="none" stroke="#000000" d="M2718.3443,-1393.5511C2735.0997,-1373.1173 2758.9496,-1341.5108 2774,-1310.6274 2876.0669,-1101.186 2910.6525,-1015.2105 2846,-791.3726 2823.4017,-713.1334 2655.3695,-529.5946 2589.4383,-459.6965"/>
<polygon fill="#000000" stroke="#000000" points="2591.6992,-456.9935 2582.2845,-452.1339 2586.6139,-461.8039 2591.6992,-456.9935"/>
</g>
<!-- processTemplate&#45;&gt;messages -->
<g id="edge14" class="edge">
<title>processTemplate&#45;&gt;messages</title>
<path fill="none" stroke="#000000" d="M2721.993,-1393.4154C2742.7107,-1372.6354 2773.5754,-1340.5894 2798,-1310.6274 3088.053,-954.8155 3341,-891.0565 3341,-432 3341,-432 3341,-432 3341,-305 3341,-272.6799 3409.7625,-254.1015 3081,-148.5083 2913.0645,-94.5701 2389.0032,-59.6589 2171.7955,-47.1584"/>
<polygon fill="#000000" stroke="#000000" points="2171.8704,-43.657 2161.6868,-46.5801 2171.4706,-50.6456 2171.8704,-43.657"/>
</g>
<!-- processTemplate&#45;&gt;matches -->
<g id="edge23" class="edge">
<title>processTemplate&#45;&gt;matches</title>
<path fill="none" stroke="#000000" d="M2640.6383,-1395.778C2592.6351,-1377.6095 2524.1113,-1348.0537 2471,-1310.6274 2327.3244,-1209.3827 2339.9041,-1126.3786 2194,-1028.3726 2078.009,-950.4597 2032.9659,-960.6873 1903,-909.3726 1818.5099,-876.0132 1772.0435,-904.7905 1712,-836.6274 1652.6803,-769.286 1645.3428,-656.9593 1645.6948,-601.3233"/>
<polygon fill="#000000" stroke="#000000" points="1649.1996,-601.035 1645.8546,-590.9821 1642.2004,-600.9268 1649.1996,-601.035"/>
</g>
<!-- processTemplate&#45;&gt;runCommand -->
<g id="edge97" class="edge">
<title>processTemplate&#45;&gt;runCommand</title>
<path fill="none" stroke="#000000" d="M2628.1184,-1397.2923C2549.1944,-1376.404 2417.869,-1341.4742 2305,-1310.6274 1985.7755,-1223.3842 1605.8422,-1116.3019 1448.6679,-1071.8603"/>
<polygon fill="#000000" stroke="#000000" points="1449.2154,-1068.3779 1438.6403,-1069.0245 1447.3104,-1075.1138 1449.2154,-1068.3779"/>
</g>
<!-- runCommand&#45;&gt;runFunction -->
<g id="edge86" class="edge">
<title>runCommand&#45;&gt;runFunction</title>
<path fill="none" stroke="#000000" d="M1308.1583,-1033.4411C1224.6231,-1011.497 1082.1373,-974.067 995.5724,-951.327"/>
<polygon fill="#000000" stroke="#000000" points="996.3807,-947.9206 985.8196,-948.765 994.6022,-954.6909 996.3807,-947.9206"/>
</g>
<!-- runCommand&#45;&gt;parseNumber -->
<g id="edge49" class="edge">
<title>runCommand&#45;&gt;parseNumber</title>
<path fill="none" stroke="#000000" d="M1338.6129,-1029.7593C1264.3977,-986.4366 1095.725,-887.975 1014.4487,-840.5304"/>
<polygon fill="#000000" stroke="#000000" points="1015.8522,-837.297 1005.4515,-835.2783 1012.3232,-843.3424 1015.8522,-837.297"/>
</g>
<!-- runCommand&#45;&gt;regexes -->
<g id="edge40" class="edge">
<title>runCommand&#45;&gt;regexes</title>
<path fill="none" stroke="#000000" d="M1386.1575,-1028.3899C1395.4218,-1009.0888 1408.5626,-980.4381 1418,-954.6274 1483.9514,-774.2552 1456.3796,-713.3526 1538,-539.5083 1549.7455,-514.4914 1566.9655,-488.7995 1581.7313,-468.8069"/>
<polygon fill="#000000" stroke="#000000" points="1584.6828,-470.7051 1587.8862,-460.6062 1579.0841,-466.5032 1584.6828,-470.7051"/>
</g>
<!-- runCommand&#45;&gt;env -->
<g id="edge41" class="edge">
<title>runCommand&#45;&gt;env</title>
<path fill="none" stroke="#000000" d="M1474.647,-1043.9105C1643.424,-1030.8416 1977.7468,-1000.0683 2086,-954.6274 2206.9687,-903.8491 2310.9564,-780.3449 2353.9293,-723.9483"/>
<polygon fill="#000000" stroke="#000000" points="2356.8369,-725.9055 2360.059,-715.8125 2351.2461,-721.6933 2356.8369,-725.9055"/>
</g>
<!-- runCommand&#45;&gt;unicodes -->
<g id="edge95" class="edge">
<title>runCommand&#45;&gt;unicodes</title>
<path fill="none" stroke="#000000" d="M1275.0189,-1044.1793C1058.3468,-1026.9165 558.0892,-972.7828 473,-836.6274 446.212,-793.7627 497.6606,-748.0987 538.6185,-720.5573"/>
<polygon fill="#000000" stroke="#000000" points="540.7163,-723.3674 547.1673,-714.9629 536.8832,-717.5101 540.7163,-723.3674"/>
</g>
<!-- runCommand&#45;&gt;variables -->
<g id="edge56" class="edge">
<title>runCommand&#45;&gt;variables</title>
<path fill="none" stroke="#000000" d="M1475.039,-1044.3169C1653.6434,-1031.4072 2019.8386,-1000.233 2139,-954.6274 2282.3213,-899.7753 2423.555,-779.1825 2483.726,-723.8191"/>
<polygon fill="#000000" stroke="#000000" points="2486.3782,-726.133 2491.3332,-716.7683 2481.6198,-720.999 2486.3782,-726.133"/>
</g>
<!-- runCommand&#45;&gt;vartypes -->
<g id="edge45" class="edge">
<title>runCommand&#45;&gt;vartypes</title>
<path fill="none" stroke="#000000" d="M1350.3486,-1028.9914C1262.2975,-950.3803 963.3608,-683.4921 865.3814,-596.017"/>
<polygon fill="#000000" stroke="#000000" points="867.6621,-593.3613 857.8715,-589.3122 863.0001,-598.583 867.6621,-593.3613"/>
</g>
<!-- runCommand&#45;&gt;readlines -->
<g id="edge38" class="edge">
<title>runCommand&#45;&gt;readlines</title>
<path fill="none" stroke="#000000" d="M1453.8016,-1036.0548C1651.475,-997.8224 2156.1059,-895.3495 2205,-836.6274 2259.2138,-771.5164 2246.1935,-663.976 2233.9611,-606.7051"/>
<polygon fill="#000000" stroke="#000000" points="2237.303,-605.6116 2231.7026,-596.618 2230.4721,-607.1411 2237.303,-605.6116"/>
</g>
<!-- runCommand&#45;&gt;utf8decoder -->
<g id="edge96" class="edge">
<title>runCommand&#45;&gt;utf8decoder</title>
<path fill="none" stroke="#000000" d="M1359.9373,-1028.3372C1347.2619,-1009.0039 1328.8761,-980.3356 1314,-954.6274 1272.926,-883.6451 1274.3916,-858.9993 1228,-791.3726 1179.1016,-720.0916 1110.4535,-646.2166 1069.0028,-603.8188"/>
<polygon fill="#000000" stroke="#000000" points="1071.346,-601.2097 1061.8408,-596.5297 1066.3529,-606.1157 1071.346,-601.2097"/>
</g>
<!-- runCommand&#45;&gt;warnings -->
<g id="edge47" class="edge">
<title>runCommand&#45;&gt;warnings</title>
<path fill="none" stroke="#000000" d="M1376.8619,-1028.1256C1387.0915,-903.5613 1436.9106,-311.498 1462,-282.3726 1502.8661,-234.9325 1675.3187,-202.7482 1778.0368,-187.3831"/>
<polygon fill="#000000" stroke="#000000" points="1778.6769,-190.8266 1788.0588,-185.9042 1777.6549,-183.9016 1778.6769,-190.8266"/>
</g>
<!-- runCommand&#45;&gt;collectCommand -->
<g id="edge93" class="edge">
<title>runCommand&#45;&gt;collectCommand</title>
<path fill="none" stroke="#000000" d="M1431.2051,-1031.806C1557.4136,-988.706 1862.9767,-884.3567 2000.2321,-837.4841"/>
<polygon fill="#000000" stroke="#000000" points="2001.4866,-840.7543 2009.8188,-834.2103 1999.2243,-834.1299 2001.4866,-840.7543"/>
</g>
<!-- runCommand&#45;&gt;opresultwarn -->
<g id="edge94" class="edge">
<title>runCommand&#45;&gt;opresultwarn</title>
<path fill="none" stroke="#000000" d="M1369.3974,-1028.2065C1342.5115,-919.3882 1226.3613,-455.8422 1186,-403.5083 1159.7461,-369.4665 1118.1166,-344.6659 1083.3706,-328.464"/>
<polygon fill="#000000" stroke="#000000" points="1084.7897,-325.2646 1074.2365,-324.3261 1081.9011,-331.6408 1084.7897,-325.2646"/>
</g>
<!-- runCommand&#45;&gt;messages -->
<g id="edge46" class="edge">
<title>runCommand&#45;&gt;messages</title>
<path fill="none" stroke="#000000" d="M1371.771,-1028.2914C1360.5602,-947.4085 1324,-665.7203 1324,-432 1324,-432 1324,-432 1324,-305 1324,-167.5413 1777.3535,-84.9872 1980.0542,-54.9459"/>
<polygon fill="#000000" stroke="#000000" points="1980.7176,-58.3861 1990.1024,-53.4693 1979.6998,-51.4605 1980.7176,-58.3861"/>
</g>
<!-- runCommand&#45;&gt;matches -->
<g id="edge39" class="edge">
<title>runCommand&#45;&gt;matches</title>
<path fill="none" stroke="#000000" d="M1410.3898,-1029.5193C1436.5198,-1012.1187 1471.3396,-985.4827 1494,-954.6274 1537.8968,-894.8558 1609.886,-681.9833 1636.5984,-600.2653"/>
<polygon fill="#000000" stroke="#000000" points="1640.0028,-601.1144 1639.7716,-590.5221 1633.3469,-598.9466 1640.0028,-601.1144"/>
</g>
<!-- runCommand&#45;&gt;readjson -->
<g id="edge92" class="edge">
<title>runCommand&#45;&gt;readjson</title>
<path fill="none" stroke="#000000" d="M1276.5472,-1043.2583C1163.6036,-1032.2618 974.0289,-1007.284 819,-954.6274 733.3442,-925.5339 641.6885,-871.9699 590.8427,-840.0071"/>
<polygon fill="#000000" stroke="#000000" points="592.4566,-836.8864 582.1356,-834.4934 588.7116,-842.8004 592.4566,-836.8864"/>
</g>
</g>
</svg>
