<?xml version="1.0" encoding="UTF-8" standalone="no"?>
<!DOCTYPE svg PUBLIC "-//W3C//DTD SVG 1.1//EN"
 "http://www.w3.org/Graphics/SVG/1.1/DTD/svg11.dtd">
<!-- Generated by graphviz version 2.40.1 (20161225.0304)
 -->
<!-- Title: statictea Pages: 1 -->
<svg width="2295pt" height="598pt"
 viewBox="0.00 0.00 2295.10 598.38" xmlns="http://www.w3.org/2000/svg" xmlns:xlink="http://www.w3.org/1999/xlink">
<g id="graph0" class="graph" transform="scale(1 1) rotate(0) translate(4 594.3816)">
<title>statictea</title>
<polygon fill="#ffffff" stroke="transparent" points="-4,4 -4,-594.3816 2291.0953,-594.3816 2291.0953,4 -4,4"/>
<!-- runFunction -->
<g id="node1" class="node">
<title>runFunction</title>
<g id="a_node1"><a xlink:href="runFunction.md" xlink:title="runFunction.md">
<ellipse fill="#cdb79e" stroke="#000000" cx="1975.0953" cy="-307.4422" rx="94.055" ry="22.7556"/>
<text text-anchor="middle" x="1975.0953" y="-300.2422" font-family="Times,serif" font-size="24.00" fill="#000000">runFunction</text>
</a>
</g>
</g>
<!-- parseNumber -->
<g id="node2" class="node">
<title>parseNumber</title>
<g id="a_node2"><a xlink:href="parseNumber.md" xlink:title="parseNumber.md">
<polygon fill="#7fffd4" stroke="#000000" points="2141.4758,-204.3168 2141.4758,-224.6006 2076.2306,-238.9433 1983.96,-238.9433 1918.7148,-224.6006 1918.7148,-204.3168 1983.96,-189.9741 2076.2306,-189.9741 2141.4758,-204.3168"/>
<polygon fill="none" stroke="#000000" points="2145.4825,-201.1029 2145.4825,-227.8145 2076.6667,-242.9422 1983.5239,-242.9422 1914.7081,-227.8145 1914.7081,-201.1029 1983.5239,-185.9752 2076.6667,-185.9752 2145.4825,-201.1029"/>
<text text-anchor="middle" x="2030.0953" y="-207.2587" font-family="Times,serif" font-size="24.00" fill="#000000">parseNumber</text>
</a>
</g>
</g>
<!-- runFunction&#45;&gt;parseNumber -->
<g id="edge45" class="edge">
<title>runFunction&#45;&gt;parseNumber</title>
<path fill="none" stroke="#000000" d="M1988.4093,-284.9335C1994.2793,-275.0095 2001.3369,-263.0779 2007.9621,-251.8773"/>
<polygon fill="#000000" stroke="#000000" points="2011.0731,-253.4926 2013.1517,-243.1036 2005.0481,-249.9288 2011.0731,-253.4926"/>
</g>
<!-- regexes -->
<g id="node3" class="node">
<title>regexes</title>
<g id="a_node3"><a xlink:href="regexes.md" xlink:title="regexes.md">
<polygon fill="#7fffd4" stroke="#000000" points="1855.2823,-111.3333 1855.2823,-131.6171 1815.3393,-145.9599 1758.8513,-145.9599 1718.9083,-131.6171 1718.9083,-111.3333 1758.8513,-96.9906 1815.3393,-96.9906 1855.2823,-111.3333"/>
<polygon fill="none" stroke="#000000" points="1859.2734,-108.5186 1859.2734,-134.4319 1816.0329,-149.9587 1758.1577,-149.9587 1714.9172,-134.4319 1714.9172,-108.5186 1758.1577,-92.9917 1816.0329,-92.9917 1859.2734,-108.5186"/>
<text text-anchor="middle" x="1787.0953" y="-114.2752" font-family="Times,serif" font-size="24.00" fill="#000000">regexes</text>
</a>
</g>
</g>
<!-- runFunction&#45;&gt;regexes -->
<g id="edge44" class="edge">
<title>runFunction&#45;&gt;regexes</title>
<path fill="none" stroke="#000000" d="M1934.7601,-286.8308C1914.8829,-275.5099 1891.3311,-260.2576 1873.0953,-242.9504 1847.0248,-218.2075 1823.8951,-184.489 1808.2073,-158.8539"/>
<polygon fill="#000000" stroke="#000000" points="1811.128,-156.919 1802.9761,-150.1515 1805.1285,-160.5255 1811.128,-156.919"/>
</g>
<!-- vartypes -->
<g id="node8" class="node">
<title>vartypes</title>
<g id="a_node8"><a xlink:href="vartypes.md" xlink:title="vartypes.md">
<ellipse fill="#cdb79e" stroke="#000000" cx="1250.0953" cy="-214.4587" rx="68.6102" ry="22.7556"/>
<text text-anchor="middle" x="1250.0953" y="-207.2587" font-family="Times,serif" font-size="24.00" fill="#000000">vartypes</text>
</a>
</g>
</g>
<!-- runFunction&#45;&gt;vartypes -->
<g id="edge43" class="edge">
<title>runFunction&#45;&gt;vartypes</title>
<path fill="none" stroke="#000000" d="M1905.7641,-292.0628C1883.0118,-287.3831 1857.5481,-282.5352 1834.0953,-278.9504 1681.6994,-255.6564 1642.3071,-260.0755 1489.0953,-242.9504 1434.0596,-236.7989 1371.9556,-229.3808 1324.8505,-223.6561"/>
<polygon fill="#000000" stroke="#000000" points="1325.0822,-220.1586 1314.7325,-222.4245 1324.2363,-227.1073 1325.0822,-220.1586"/>
</g>
<!-- warnings -->
<g id="node12" class="node">
<title>warnings</title>
<g id="a_node12"><a xlink:href="warnings.md" xlink:title="warnings.md">
<polygon fill="#7fffd4" stroke="#000000" points="1464.7636,-18.3499 1464.7636,-38.6336 1418.095,-52.9764 1352.0956,-52.9764 1305.4269,-38.6336 1305.4269,-18.3499 1352.0956,-4.0071 1418.095,-4.0071 1464.7636,-18.3499"/>
<polygon fill="none" stroke="#000000" points="1468.7678,-15.3966 1468.7678,-41.5869 1418.6972,-56.9752 1351.4934,-56.9752 1301.4228,-41.5869 1301.4228,-15.3966 1351.4934,-.0083 1418.6972,-.0083 1468.7678,-15.3966"/>
<text text-anchor="middle" x="1385.0953" y="-21.2917" font-family="Times,serif" font-size="24.00" fill="#000000">warnings</text>
</a>
</g>
</g>
<!-- runFunction&#45;&gt;warnings -->
<g id="edge42" class="edge">
<title>runFunction&#45;&gt;warnings</title>
<path fill="none" stroke="#000000" d="M1945.1408,-285.9471C1931.3666,-274.612 1915.9377,-259.6085 1906.0953,-242.9504 1871.1186,-183.7529 1919.4384,-138.7176 1868.0953,-92.9835 1839.6013,-67.6023 1611.3559,-45.9633 1479.0756,-35.3989"/>
<polygon fill="#000000" stroke="#000000" points="1479.1828,-31.8965 1468.9376,-34.5959 1478.63,-38.8747 1479.1828,-31.8965"/>
</g>
<!-- matches -->
<g id="node17" class="node">
<title>matches</title>
<g id="a_node17"><a xlink:href="matches.md" xlink:title="matches.md">
<ellipse fill="#cdb79e" stroke="#000000" cx="1565.0953" cy="-214.4587" rx="66.8311" ry="22.7556"/>
<text text-anchor="middle" x="1565.0953" y="-207.2587" font-family="Times,serif" font-size="24.00" fill="#000000">matches</text>
</a>
</g>
</g>
<!-- runFunction&#45;&gt;matches -->
<g id="edge46" class="edge">
<title>runFunction&#45;&gt;matches</title>
<path fill="none" stroke="#000000" d="M1906.4705,-291.8788C1829.6755,-274.4626 1706.1517,-246.4487 1630.6357,-229.3225"/>
<polygon fill="#000000" stroke="#000000" points="1631.2895,-225.882 1620.763,-227.0835 1629.7412,-232.7086 1631.2895,-225.882"/>
</g>
<!-- parseCmdLine -->
<g id="node4" class="node">
<title>parseCmdLine</title>
<g id="a_node4"><a xlink:href="parseCmdLine.md" xlink:title="parseCmdLine.md">
<ellipse fill="#cdb79e" stroke="#000000" cx="1714.0953" cy="-307.4422" rx="111.4463" ry="22.7556"/>
<text text-anchor="middle" x="1714.0953" y="-300.2422" font-family="Times,serif" font-size="24.00" fill="#000000">parseCmdLine</text>
</a>
</g>
</g>
<!-- parseCmdLine&#45;&gt;regexes -->
<g id="edge18" class="edge">
<title>parseCmdLine&#45;&gt;regexes</title>
<path fill="none" stroke="#000000" d="M1723.0465,-284.639C1735.2438,-253.5664 1757.2539,-197.4958 1772.021,-159.8769"/>
<polygon fill="#000000" stroke="#000000" points="1775.3981,-160.8523 1775.7941,-150.2649 1768.8821,-158.2945 1775.3981,-160.8523"/>
</g>
<!-- env -->
<g id="node5" class="node">
<title>env</title>
<g id="a_node5"><a xlink:href="env.md" xlink:title="env.md">
<ellipse fill="#cdb79e" stroke="#000000" cx="438.0953" cy="-121.4752" rx="35.6342" ry="22.7556"/>
<text text-anchor="middle" x="438.0953" y="-114.2752" font-family="Times,serif" font-size="24.00" fill="#000000">env</text>
</a>
</g>
</g>
<!-- parseCmdLine&#45;&gt;env -->
<g id="edge17" class="edge">
<title>parseCmdLine&#45;&gt;env</title>
<path fill="none" stroke="#000000" d="M1703.6309,-284.6988C1688.4516,-252.8006 1660.07,-197.3828 1641.0953,-185.967 1590.6731,-155.6313 699.0022,-128.7862 484.3111,-122.7431"/>
<polygon fill="#000000" stroke="#000000" points="484.1183,-119.2364 474.0241,-122.4549 483.9222,-126.2337 484.1183,-119.2364"/>
</g>
<!-- parseCmdLine&#45;&gt;warnings -->
<g id="edge19" class="edge">
<title>parseCmdLine&#45;&gt;warnings</title>
<path fill="none" stroke="#000000" d="M1711.8553,-284.4054C1708.215,-257.9802 1698.839,-214.6189 1675.0953,-185.967 1618.5634,-117.7488 1524.5064,-74.4844 1458.8898,-50.9193"/>
<polygon fill="#000000" stroke="#000000" points="1460.0177,-47.6058 1449.4229,-47.5848 1457.6921,-54.2083 1460.0177,-47.6058"/>
</g>
<!-- parseCmdLine&#45;&gt;matches -->
<g id="edge20" class="edge">
<title>parseCmdLine&#45;&gt;matches</title>
<path fill="none" stroke="#000000" d="M1679.5372,-285.8762C1657.5066,-272.128 1628.8602,-254.2512 1605.7393,-239.8226"/>
<polygon fill="#000000" stroke="#000000" points="1607.5105,-236.8024 1597.1739,-234.4774 1603.8046,-242.7409 1607.5105,-236.8024"/>
</g>
<!-- tempFile -->
<g id="node7" class="node">
<title>tempFile</title>
<g id="a_node7"><a xlink:href="tempFile.md" xlink:title="tempFile.md">
<polygon fill="#7fffd4" stroke="#000000" points="813.6933,-18.3499 813.6933,-38.6336 768.2374,-52.9764 703.9532,-52.9764 658.4973,-38.6336 658.4973,-18.3499 703.9532,-4.0071 768.2374,-4.0071 813.6933,-18.3499"/>
<polygon fill="none" stroke="#000000" points="817.6957,-15.4192 817.6957,-41.5642 768.8544,-56.9752 703.3362,-56.9752 654.4949,-41.5642 654.4949,-15.4192 703.3362,-.0083 768.8544,-.0083 817.6957,-15.4192"/>
<text text-anchor="middle" x="736.0953" y="-21.2917" font-family="Times,serif" font-size="24.00" fill="#000000">tempFile</text>
</a>
</g>
</g>
<!-- env&#45;&gt;tempFile -->
<g id="edge4" class="edge">
<title>env&#45;&gt;tempFile</title>
<path fill="none" stroke="#000000" d="M470.2697,-111.436C516.4128,-97.0382 602.615,-70.1409 664.3533,-50.877"/>
<polygon fill="#000000" stroke="#000000" points="665.5384,-54.1738 674.042,-47.8539 663.4533,-47.4915 665.5384,-54.1738"/>
</g>
<!-- env&#45;&gt;warnings -->
<g id="edge5" class="edge">
<title>env&#45;&gt;warnings</title>
<path fill="none" stroke="#000000" d="M473.7914,-117.5109C524.8295,-111.8749 621.6103,-101.3064 704.0953,-92.9835 913.8269,-71.821 1160.1101,-49.0005 1291.4292,-36.9952"/>
<polygon fill="#000000" stroke="#000000" points="1291.8158,-40.4745 1301.4559,-36.0791 1291.1789,-33.5036 1291.8158,-40.4745"/>
</g>
<!-- args -->
<g id="node16" class="node">
<title>args</title>
<g id="a_node16"><a xlink:href="args.md" xlink:title="args.md">
<polygon fill="#7fffd4" stroke="#000000" points="372.6445,-18.3499 372.6445,-38.6336 347.7198,-52.9764 312.4708,-52.9764 287.5461,-38.6336 287.5461,-18.3499 312.4708,-4.0071 347.7198,-4.0071 372.6445,-18.3499"/>
<polygon fill="none" stroke="#000000" points="376.6467,-16.0383 376.6467,-40.9452 348.7899,-56.9752 311.4007,-56.9752 283.5439,-40.9452 283.5439,-16.0383 311.4007,-.0083 348.7899,-.0083 376.6467,-16.0383"/>
<text text-anchor="middle" x="330.0953" y="-21.2917" font-family="Times,serif" font-size="24.00" fill="#000000">args</text>
</a>
</g>
</g>
<!-- env&#45;&gt;args -->
<g id="edge6" class="edge">
<title>env&#45;&gt;args</title>
<path fill="none" stroke="#000000" d="M416.758,-103.1047C402.0446,-90.4371 382.1492,-73.308 365.1319,-58.6568"/>
<polygon fill="#000000" stroke="#000000" points="367.4065,-55.9967 357.5447,-52.1245 362.8393,-61.3015 367.4065,-55.9967"/>
</g>
<!-- variables -->
<g id="node6" class="node">
<title>variables</title>
<g id="a_node6"><a xlink:href="variables.md" xlink:title="variables.md">
<ellipse fill="#cdb79e" stroke="#000000" cx="1284.0953" cy="-307.4422" rx="72.6337" ry="22.7556"/>
<text text-anchor="middle" x="1284.0953" y="-300.2422" font-family="Times,serif" font-size="24.00" fill="#000000">variables</text>
</a>
</g>
</g>
<!-- variables&#45;&gt;vartypes -->
<g id="edge38" class="edge">
<title>variables&#45;&gt;vartypes</title>
<path fill="none" stroke="#000000" d="M1275.8648,-284.9335C1271.6778,-273.4827 1266.5134,-259.3591 1261.91,-246.7696"/>
<polygon fill="#000000" stroke="#000000" points="1265.0892,-245.2722 1258.3678,-237.0824 1258.5149,-247.6762 1265.0892,-245.2722"/>
</g>
<!-- variables&#45;&gt;warnings -->
<g id="edge40" class="edge">
<title>variables&#45;&gt;warnings</title>
<path fill="none" stroke="#000000" d="M1301.9842,-285.2895C1310.8977,-273.3379 1321.2132,-257.9863 1328.0953,-242.9504 1342.3753,-211.7518 1364.3791,-120.1415 1376.4448,-67.2929"/>
<polygon fill="#000000" stroke="#000000" points="1379.9195,-67.7962 1378.7202,-57.2694 1373.0932,-66.2465 1379.9195,-67.7962"/>
</g>
<!-- version -->
<g id="node18" class="node">
<title>version</title>
<g id="a_node18"><a xlink:href="version.md" xlink:title="version.md">
<polygon fill="#7fffd4" stroke="#000000" points="1159.2476,-204.3168 1159.2476,-224.6006 1120.4965,-238.9433 1065.6941,-238.9433 1026.943,-224.6006 1026.943,-204.3168 1065.6941,-189.9741 1120.4965,-189.9741 1159.2476,-204.3168"/>
<polygon fill="none" stroke="#000000" points="1163.2374,-201.5308 1163.2374,-227.3866 1121.2096,-242.9422 1064.981,-242.9422 1022.9532,-227.3866 1022.9532,-201.5308 1064.981,-185.9752 1121.2096,-185.9752 1163.2374,-201.5308"/>
<text text-anchor="middle" x="1093.0953" y="-207.2587" font-family="Times,serif" font-size="24.00" fill="#000000">version</text>
</a>
</g>
</g>
<!-- variables&#45;&gt;version -->
<g id="edge39" class="edge">
<title>variables&#45;&gt;version</title>
<path fill="none" stroke="#000000" d="M1244.52,-288.1759C1216.5952,-274.5815 1178.8206,-256.1919 1147.9865,-241.1811"/>
<polygon fill="#000000" stroke="#000000" points="1149.1819,-237.8704 1138.6587,-236.6401 1146.1179,-244.1642 1149.1819,-237.8704"/>
</g>
<!-- vartypes&#45;&gt;env -->
<g id="edge33" class="edge">
<title>vartypes&#45;&gt;env</title>
<path fill="none" stroke="#000000" d="M1207.3807,-196.5615C1196.0831,-192.4657 1183.7771,-188.5593 1172.0953,-185.967 991.3551,-145.8581 941.5192,-166.202 757.0953,-149.967 659.9691,-141.4168 546.2273,-131.2117 484.2044,-125.6306"/>
<polygon fill="#000000" stroke="#000000" points="484.2461,-122.1203 473.9726,-124.7097 483.6185,-129.0921 484.2461,-122.1203"/>
</g>
<!-- vartypes&#45;&gt;warnings -->
<g id="edge34" class="edge">
<title>vartypes&#45;&gt;warnings</title>
<path fill="none" stroke="#000000" d="M1264.5745,-192.1469C1280.7464,-167.4974 1307.9608,-126.8129 1333.0953,-92.9835 1339.9949,-83.697 1347.6925,-73.8792 1355.0055,-64.7808"/>
<polygon fill="#000000" stroke="#000000" points="1357.7311,-66.9764 1361.3032,-57.0019 1352.2906,-62.5718 1357.7311,-66.9764"/>
</g>
<!-- tpub -->
<g id="node9" class="node">
<title>tpub</title>
<g id="a_node9"><a xlink:href="tpub.md" xlink:title="tpub.md">
<polygon fill="#7fffd4" stroke="#000000" points="956.9085,-204.3168 956.9085,-224.6006 930.6575,-238.9433 893.5331,-238.9433 867.2821,-224.6006 867.2821,-204.3168 893.5331,-189.9741 930.6575,-189.9741 956.9085,-204.3168"/>
<polygon fill="none" stroke="#000000" points="960.9005,-201.943 960.9005,-226.9744 931.6755,-242.9422 892.5151,-242.9422 863.2901,-226.9744 863.2901,-201.943 892.5151,-185.9752 931.6755,-185.9752 960.9005,-201.943"/>
<text text-anchor="middle" x="912.0953" y="-207.2587" font-family="Times,serif" font-size="24.00" fill="#000000">tpub</text>
</a>
</g>
</g>
<!-- replacement -->
<g id="node10" class="node">
<title>replacement</title>
<g id="a_node10"><a xlink:href="replacement.md" xlink:title="replacement.md">
<ellipse fill="#cdb79e" stroke="#000000" cx="1282.0953" cy="-394.5613" rx="94.4556" ry="22.7556"/>
<text text-anchor="middle" x="1282.0953" y="-387.3613" font-family="Times,serif" font-size="24.00" fill="#000000">replacement</text>
</a>
</g>
</g>
<!-- replacement&#45;&gt;parseNumber -->
<g id="edge60" class="edge">
<title>replacement&#45;&gt;parseNumber</title>
<path fill="none" stroke="#000000" d="M1364.4006,-383.3699C1396.4103,-379.3125 1433.4195,-374.9824 1467.0953,-371.9339 1534.825,-365.8027 2031.443,-385.4159 2078.0953,-335.9339 2100.2987,-312.3837 2082.8211,-277.3318 2063.009,-250.9249"/>
<polygon fill="#000000" stroke="#000000" points="2065.7476,-248.7452 2056.8268,-243.0294 2060.2361,-253.0608 2065.7476,-248.7452"/>
</g>
<!-- replacement&#45;&gt;regexes -->
<g id="edge51" class="edge">
<title>replacement&#45;&gt;regexes</title>
<path fill="none" stroke="#000000" d="M1365.3902,-383.9438C1397.1959,-380.0025 1433.8069,-375.6018 1467.0953,-371.9339 1507.8223,-367.4464 1806.5732,-366.2878 1834.0953,-335.9339 1851.1069,-317.172 1837.7553,-304.0106 1834.0953,-278.9504 1832.3585,-267.0584 1812.5479,-202.6035 1799.2073,-159.9282"/>
<polygon fill="#000000" stroke="#000000" points="1802.4651,-158.6195 1796.1362,-150.1227 1795.7851,-160.7117 1802.4651,-158.6195"/>
</g>
<!-- replacement&#45;&gt;parseCmdLine -->
<g id="edge54" class="edge">
<title>replacement&#45;&gt;parseCmdLine</title>
<path fill="none" stroke="#000000" d="M1354.4024,-379.9795C1428.8033,-364.9755 1544.8312,-341.5768 1624.8875,-325.4322"/>
<polygon fill="#000000" stroke="#000000" points="1625.8453,-328.8096 1634.9561,-323.4018 1624.4615,-321.9478 1625.8453,-328.8096"/>
</g>
<!-- replacement&#45;&gt;env -->
<g id="edge52" class="edge">
<title>replacement&#45;&gt;env</title>
<path fill="none" stroke="#000000" d="M1200.7007,-383.0338C1169.3175,-378.9591 1133.0932,-374.7051 1100.0953,-371.9339 1054.6558,-368.1179 311.6239,-368.8771 280.0953,-335.9339 218.406,-271.4769 339.431,-182.3725 402.813,-142.3775"/>
<polygon fill="#000000" stroke="#000000" points="404.7064,-145.3217 411.3489,-137.0677 401.0089,-139.3779 404.7064,-145.3217"/>
</g>
<!-- replacement&#45;&gt;variables -->
<g id="edge58" class="edge">
<title>replacement&#45;&gt;variables</title>
<path fill="none" stroke="#000000" d="M1282.6208,-371.6718C1282.8413,-362.068 1283.1018,-350.719 1283.3421,-340.2531"/>
<polygon fill="#000000" stroke="#000000" points="1286.8428,-340.2566 1283.5733,-330.1788 1279.8446,-340.0958 1286.8428,-340.2566"/>
</g>
<!-- replacement&#45;&gt;tempFile -->
<g id="edge59" class="edge">
<title>replacement&#45;&gt;tempFile</title>
<path fill="none" stroke="#000000" d="M1247.5907,-373.4429C1208.5482,-349.7514 1142.8661,-310.5095 1085.0953,-278.9504 1054.046,-261.9888 1041.3535,-265.5057 1014.0953,-242.9504 989.4433,-222.5518 993.446,-207.8433 970.0953,-185.967 914.472,-133.8557 839.981,-86.8966 790.1299,-58.0897"/>
<polygon fill="#000000" stroke="#000000" points="791.8427,-55.0373 781.4264,-53.1 788.3611,-61.1101 791.8427,-55.0373"/>
</g>
<!-- replacement&#45;&gt;vartypes -->
<g id="edge53" class="edge">
<title>replacement&#45;&gt;vartypes</title>
<path fill="none" stroke="#000000" d="M1239.9628,-374.2635C1225.1976,-364.8208 1210.2704,-352.0603 1202.0953,-335.9339 1190.6439,-313.3447 1194.1306,-302.9914 1202.0953,-278.9504 1206.2861,-266.3006 1214.0276,-254.1159 1222.0882,-243.8089"/>
<polygon fill="#000000" stroke="#000000" points="1224.8908,-245.9119 1228.5595,-235.9725 1219.4932,-241.4547 1224.8908,-245.9119"/>
</g>
<!-- replacement&#45;&gt;tpub -->
<g id="edge61" class="edge">
<title>replacement&#45;&gt;tpub</title>
<path fill="none" stroke="#000000" d="M1204.0651,-381.8077C1167.9246,-373.1553 1125.8414,-358.9463 1093.0953,-335.9339 1067.1366,-317.6914 1074.7506,-298.9194 1050.0953,-278.9504 1035.7866,-267.3614 996.2114,-249.2977 963.0915,-235.2323"/>
<polygon fill="#000000" stroke="#000000" points="964.0772,-231.8498 953.5026,-231.194 961.3602,-238.301 964.0772,-231.8498"/>
</g>
<!-- readlines -->
<g id="node11" class="node">
<title>readlines</title>
<g id="a_node11"><a xlink:href="readlines.md" xlink:title="readlines.md">
<polygon fill="#7fffd4" stroke="#000000" points="1036.6847,-297.3003 1036.6847,-317.584 990.6481,-331.9268 925.5425,-331.9268 879.5059,-317.584 879.5059,-297.3003 925.5425,-282.9575 990.6481,-282.9575 1036.6847,-297.3003"/>
<polygon fill="none" stroke="#000000" points="1040.6869,-294.3585 1040.6869,-320.5259 991.2576,-335.9257 924.933,-335.9257 875.5037,-320.5259 875.5037,-294.3585 924.933,-278.9587 991.2576,-278.9587 1040.6869,-294.3585"/>
<text text-anchor="middle" x="958.0953" y="-300.2422" font-family="Times,serif" font-size="24.00" fill="#000000">readlines</text>
</a>
</g>
</g>
<!-- replacement&#45;&gt;readlines -->
<g id="edge55" class="edge">
<title>replacement&#45;&gt;readlines</title>
<path fill="none" stroke="#000000" d="M1216.3816,-378.1985C1170.9753,-366.7433 1109.242,-350.874 1055.0953,-335.9339 1047.4571,-333.8264 1039.4963,-331.5761 1031.5643,-329.299"/>
<polygon fill="#000000" stroke="#000000" points="1032.5053,-325.9278 1021.9268,-326.5159 1030.5632,-332.653 1032.5053,-325.9278"/>
</g>
<!-- replacement&#45;&gt;warnings -->
<g id="edge57" class="edge">
<title>replacement&#45;&gt;warnings</title>
<path fill="none" stroke="#000000" d="M1325.7522,-374.4265C1341.1798,-365.005 1356.9536,-352.2164 1366.0953,-335.9339 1414.3551,-249.9772 1402.9661,-128.4033 1392.8078,-67.073"/>
<polygon fill="#000000" stroke="#000000" points="1396.2272,-66.3067 1391.0689,-57.0523 1389.3302,-67.5035 1396.2272,-66.3067"/>
</g>
<!-- replacement&#45;&gt;matches -->
<g id="edge56" class="edge">
<title>replacement&#45;&gt;matches</title>
<path fill="none" stroke="#000000" d="M1331.3806,-375.2593C1353.3297,-365.3499 1378.7558,-351.97 1399.0953,-335.9339 1425.099,-315.4321 1421.4613,-299.9127 1447.0953,-278.9504 1467.4158,-262.3333 1492.6492,-247.8722 1514.5599,-236.8788"/>
<polygon fill="#000000" stroke="#000000" points="1516.2866,-239.9302 1523.7228,-232.3834 1513.2034,-233.6458 1516.2866,-239.9302"/>
</g>
<!-- collectCommand -->
<g id="node13" class="node">
<title>collectCommand</title>
<g id="a_node13"><a xlink:href="collectCommand.md" xlink:title="collectCommand.md">
<ellipse fill="#cdb79e" stroke="#000000" cx="964.0953" cy="-394.5613" rx="127.4982" ry="22.7556"/>
<text text-anchor="middle" x="964.0953" y="-387.3613" font-family="Times,serif" font-size="24.00" fill="#000000">collectCommand</text>
</a>
</g>
</g>
<!-- collectCommand&#45;&gt;parseCmdLine -->
<g id="edge25" class="edge">
<title>collectCommand&#45;&gt;parseCmdLine</title>
<path fill="none" stroke="#000000" d="M1070.7555,-382.1718C1213.3284,-365.6107 1464.574,-336.4263 1607.244,-319.8539"/>
<polygon fill="#000000" stroke="#000000" points="1607.7962,-323.3134 1617.3256,-318.6828 1606.9885,-316.3601 1607.7962,-323.3134"/>
</g>
<!-- collectCommand&#45;&gt;env -->
<g id="edge22" class="edge">
<title>collectCommand&#45;&gt;env</title>
<path fill="none" stroke="#000000" d="M841.0226,-388.7986C641.3396,-378.8464 266.9061,-357.4307 247.0953,-335.9339 200.499,-285.372 236.7427,-234.852 285.0953,-185.967 314.5801,-156.1574 359.9519,-139.4025 393.639,-130.4909"/>
<polygon fill="#000000" stroke="#000000" points="394.8395,-133.7983 403.688,-127.9712 393.137,-127.0084 394.8395,-133.7983"/>
</g>
<!-- collectCommand&#45;&gt;readlines -->
<g id="edge24" class="edge">
<title>collectCommand&#45;&gt;readlines</title>
<path fill="none" stroke="#000000" d="M962.5189,-371.6718C961.9798,-363.845 961.361,-354.8593 960.7603,-346.137"/>
<polygon fill="#000000" stroke="#000000" points="964.2482,-345.8399 960.0693,-336.104 957.2647,-346.3209 964.2482,-345.8399"/>
</g>
<!-- collectCommand&#45;&gt;matches -->
<g id="edge23" class="edge">
<title>collectCommand&#45;&gt;matches</title>
<path fill="none" stroke="#000000" d="M908.6205,-374.1666C891.9486,-365.1315 875.5814,-352.6628 866.0953,-335.9339 853.6029,-313.9033 848.8968,-297.5412 866.0953,-278.9504 901.0607,-241.1545 1276.857,-248.0244 1328.0953,-242.9504 1383.2297,-237.4907 1445.4139,-229.9631 1492.2482,-224.0164"/>
<polygon fill="#000000" stroke="#000000" points="1492.824,-227.4714 1502.3008,-222.7343 1491.9384,-220.5276 1492.824,-227.4714"/>
</g>
<!-- statictea -->
<g id="node14" class="node">
<title>statictea</title>
<g id="a_node14"><a xlink:href="statictea.md" xlink:title="statictea.md">
<polygon fill="#cdb79e" stroke="#000000" points="163.1911,-553.7793 246.0953,-534.4745 328.9995,-553.7793 328.9221,-585.015 163.2684,-585.015 163.1911,-553.7793"/>
<text text-anchor="middle" x="246.0953" y="-555.2126" font-family="Times,serif" font-size="24.00" fill="#000000">statictea</text>
</a>
</g>
</g>
<!-- statictea&#45;&gt;env -->
<g id="edge75" class="edge">
<title>statictea&#45;&gt;env</title>
<path fill="none" stroke="#000000" d="M184.4562,-548.7036C136.0512,-536.6845 74.0829,-518.1011 57.0953,-498.4436 26.4061,-462.9311 38.0953,-441.4971 38.0953,-394.5613 38.0953,-394.5613 38.0953,-394.5613 38.0953,-307.4422 38.0953,-238.0743 77,-222.2939 136.0953,-185.967 178.6482,-159.8089 319.2548,-137.5626 392.6289,-127.3921"/>
<polygon fill="#000000" stroke="#000000" points="393.514,-130.8037 402.9471,-125.9801 392.5649,-123.8683 393.514,-130.8037"/>
</g>
<!-- statictea&#45;&gt;warnings -->
<g id="edge71" class="edge">
<title>statictea&#45;&gt;warnings</title>
<path fill="none" stroke="#000000" d="M328.9513,-560.014C711.3472,-548.41 2287.0953,-494.5282 2287.0953,-394.5613 2287.0953,-394.5613 2287.0953,-394.5613 2287.0953,-214.4587 2287.0953,-180.8268 2278.2477,-143.8395 2163.0953,-92.9835 2101.8905,-65.9529 1672.2062,-42.2508 1478.9153,-32.8252"/>
<polygon fill="#000000" stroke="#000000" points="1478.9283,-29.3218 1468.7704,-32.3331 1478.589,-36.3136 1478.9283,-29.3218"/>
</g>
<!-- showhelp -->
<g id="node15" class="node">
<title>showhelp</title>
<g id="a_node15"><a xlink:href="showhelp.md" xlink:title="showhelp.md">
<ellipse fill="#cdb79e" stroke="#000000" cx="142.0953" cy="-475.8162" rx="76.2243" ry="22.7556"/>
<text text-anchor="middle" x="142.0953" y="-468.6162" font-family="Times,serif" font-size="24.00" fill="#000000">showhelp</text>
</a>
</g>
</g>
<!-- statictea&#45;&gt;showhelp -->
<g id="edge73" class="edge">
<title>statictea&#45;&gt;showhelp</title>
<path fill="none" stroke="#000000" d="M219.8517,-540.5607C206.4479,-529.3999 189.9896,-515.6957 175.6715,-503.7737"/>
<polygon fill="#000000" stroke="#000000" points="177.8946,-501.0703 167.9702,-497.3611 173.4154,-506.4496 177.8946,-501.0703"/>
</g>
<!-- statictea&#45;&gt;args -->
<g id="edge70" class="edge">
<title>statictea&#45;&gt;args</title>
<path fill="none" stroke="#000000" d="M180.3555,-549.6841C125.8816,-537.9046 54.1116,-519.1298 33.0953,-498.4436 -1.4295,-464.4611 .0953,-443.0048 .0953,-394.5613 .0953,-394.5613 .0953,-394.5613 .0953,-214.4587 .0953,-90.4128 179.2555,-48.2036 273.5568,-34.5784"/>
<polygon fill="#000000" stroke="#000000" points="274.0885,-38.0382 283.5143,-33.2003 273.1288,-31.1043 274.0885,-38.0382"/>
</g>
<!-- statictea&#45;&gt;version -->
<g id="edge74" class="edge">
<title>statictea&#45;&gt;version</title>
<path fill="none" stroke="#000000" d="M294.5701,-545.5854C387.1902,-512.3997 594.1401,-433.2225 752.0953,-335.9339 786.2523,-314.8957 786.1214,-296.7038 822.0953,-278.9504 826.6052,-276.7248 939.728,-250.1497 1018.3756,-231.8166"/>
<polygon fill="#000000" stroke="#000000" points="1019.3216,-235.19 1028.2665,-229.5121 1017.7331,-228.3726 1019.3216,-235.19"/>
</g>
<!-- parseCommandLine -->
<g id="node20" class="node">
<title>parseCommandLine</title>
<g id="a_node20"><a xlink:href="parseCommandLine.md" xlink:title="parseCommandLine.md">
<ellipse fill="#cdb79e" stroke="#000000" cx="438.0953" cy="-307.4422" rx="148.8522" ry="22.7556"/>
<text text-anchor="middle" x="438.0953" y="-300.2422" font-family="Times,serif" font-size="24.00" fill="#000000">parseCommandLine</text>
</a>
</g>
</g>
<!-- statictea&#45;&gt;parseCommandLine -->
<g id="edge9" class="edge">
<title>statictea&#45;&gt;parseCommandLine</title>
<path fill="none" stroke="#000000" d="M264.1582,-538.4256C299.1758,-491.9233 376.2475,-389.5743 414.9547,-338.1722"/>
<polygon fill="#000000" stroke="#000000" points="417.8291,-340.1734 421.0487,-330.0796 412.2372,-335.9626 417.8291,-340.1734"/>
</g>
<!-- processTemplate -->
<g id="node21" class="node">
<title>processTemplate</title>
<g id="a_node21"><a xlink:href="processTemplate.md" xlink:title="processTemplate.md">
<ellipse fill="#cdb79e" stroke="#000000" cx="1119.0953" cy="-475.8162" rx="125.2054" ry="22.7556"/>
<text text-anchor="middle" x="1119.0953" y="-468.6162" font-family="Times,serif" font-size="24.00" fill="#000000">processTemplate</text>
</a>
</g>
</g>
<!-- statictea&#45;&gt;processTemplate -->
<g id="edge69" class="edge">
<title>statictea&#45;&gt;processTemplate</title>
<path fill="none" stroke="#000000" d="M329.0121,-554.1878C484.2991,-538.7842 819.4761,-505.5366 999.3081,-487.6984"/>
<polygon fill="#000000" stroke="#000000" points="999.733,-491.1735 1009.3386,-486.7034 999.042,-484.2077 999.733,-491.1735"/>
</g>
<!-- showhelp&#45;&gt;env -->
<g id="edge72" class="edge">
<title>showhelp&#45;&gt;env</title>
<path fill="none" stroke="#000000" d="M136.5508,-453.2465C124.8302,-399.5987 103.8185,-263.1771 171.0953,-185.967 199.776,-153.0516 324.0172,-134.2292 392.4501,-126.1784"/>
<polygon fill="#000000" stroke="#000000" points="392.9911,-129.6394 402.5274,-125.0233 392.1938,-122.6849 392.9911,-129.6394"/>
</g>
<!-- matches&#45;&gt;regexes -->
<g id="edge14" class="edge">
<title>matches&#45;&gt;regexes</title>
<path fill="none" stroke="#000000" d="M1607.3743,-196.7504C1641.355,-182.5177 1689.5015,-162.3518 1727.4099,-146.4741"/>
<polygon fill="#000000" stroke="#000000" points="1728.9407,-149.6276 1736.8122,-142.536 1726.2364,-143.1711 1728.9407,-149.6276"/>
</g>
<!-- matches&#45;&gt;args -->
<g id="edge13" class="edge">
<title>matches&#45;&gt;args</title>
<path fill="none" stroke="#000000" d="M1521.4418,-197.2853C1509.4799,-193.0813 1496.4124,-188.9411 1484.0953,-185.967 1270.6137,-134.4191 588.5427,-56.9687 386.8114,-34.6883"/>
<polygon fill="#000000" stroke="#000000" points="387.0529,-31.1938 376.7295,-33.5766 386.2856,-38.1516 387.0529,-31.1938"/>
</g>
<!-- readjson -->
<g id="node19" class="node">
<title>readjson</title>
<g id="a_node19"><a xlink:href="readjson.md" xlink:title="readjson.md">
<ellipse fill="#cdb79e" stroke="#000000" cx="674.0953" cy="-307.4422" rx="68.6102" ry="22.7556"/>
<text text-anchor="middle" x="674.0953" y="-300.2422" font-family="Times,serif" font-size="24.00" fill="#000000">readjson</text>
</a>
</g>
</g>
<!-- readjson&#45;&gt;env -->
<g id="edge64" class="edge">
<title>readjson&#45;&gt;env</title>
<path fill="none" stroke="#000000" d="M647.4819,-286.4709C603.3589,-251.7022 515.3114,-182.3212 468.6916,-145.585"/>
<polygon fill="#000000" stroke="#000000" points="470.7815,-142.7758 460.7608,-139.3355 466.449,-148.2739 470.7815,-142.7758"/>
</g>
<!-- readjson&#45;&gt;vartypes -->
<g id="edge66" class="edge">
<title>readjson&#45;&gt;vartypes</title>
<path fill="none" stroke="#000000" d="M727.6888,-293.1678C748.5948,-288.0358 772.8425,-282.6154 795.0953,-278.9504 961.1757,-251.5979 1007.9346,-280.1276 1172.0953,-242.9504 1180.5746,-241.0301 1189.3873,-238.4335 1197.9059,-235.5858"/>
<polygon fill="#000000" stroke="#000000" points="1199.0757,-238.8846 1207.3652,-232.2865 1196.7703,-232.2751 1199.0757,-238.8846"/>
</g>
<!-- readjson&#45;&gt;tpub -->
<g id="edge65" class="edge">
<title>readjson&#45;&gt;tpub</title>
<path fill="none" stroke="#000000" d="M718.5821,-290.0618C758.8989,-274.3105 818.3095,-251.0996 860.6536,-234.5563"/>
<polygon fill="#000000" stroke="#000000" points="862.1803,-237.7175 870.221,-230.8184 859.633,-231.1975 862.1803,-237.7175"/>
</g>
<!-- readjson&#45;&gt;warnings -->
<g id="edge63" class="edge">
<title>readjson&#45;&gt;warnings</title>
<path fill="none" stroke="#000000" d="M699.6983,-286.4245C733.2911,-259.7579 794.9424,-213.8857 854.0953,-185.967 935.0309,-147.7673 1179.0266,-81.8568 1306.1496,-48.7334"/>
<polygon fill="#000000" stroke="#000000" points="1307.0452,-52.1169 1315.8421,-46.2124 1305.2831,-45.3423 1307.0452,-52.1169"/>
</g>
<!-- readjson&#45;&gt;args -->
<g id="edge67" class="edge">
<title>readjson&#45;&gt;args</title>
<path fill="none" stroke="#000000" d="M659.6526,-285.2008C630.8624,-242.4474 562.2388,-148.1539 483.0953,-92.9835 453.1155,-72.0847 415.3056,-56.0685 384.7738,-45.2244"/>
<polygon fill="#000000" stroke="#000000" points="385.7306,-41.8519 375.1358,-41.8857 383.4392,-48.4662 385.7306,-41.8519"/>
</g>
<!-- parseCommandLine&#45;&gt;regexes -->
<g id="edge8" class="edge">
<title>parseCommandLine&#45;&gt;regexes</title>
<path fill="none" stroke="#000000" d="M529.9186,-289.6036C601.6753,-275.2338 695.2212,-255.4347 732.0953,-242.9504 788.7799,-223.759 796.155,-200.9462 854.0953,-185.967 1013.8209,-144.6734 1507.8842,-128.2998 1704.8307,-123.3032"/>
<polygon fill="#000000" stroke="#000000" points="1704.9216,-126.8022 1714.8308,-123.0529 1704.7463,-119.8044 1704.9216,-126.8022"/>
</g>
<!-- parseCommandLine&#45;&gt;env -->
<g id="edge7" class="edge">
<title>parseCommandLine&#45;&gt;env</title>
<path fill="none" stroke="#000000" d="M438.0953,-284.639C438.0953,-252.0653 438.0953,-192.0202 438.0953,-154.5591"/>
<polygon fill="#000000" stroke="#000000" points="441.5954,-154.1737 438.0953,-144.1738 434.5954,-154.1738 441.5954,-154.1737"/>
</g>
<!-- parseCommandLine&#45;&gt;tpub -->
<g id="edge1" class="edge">
<title>parseCommandLine&#45;&gt;tpub</title>
<path fill="none" stroke="#000000" d="M532.5217,-289.8954C600.355,-277.1756 693.9403,-259.3925 776.0953,-242.9504 801.3466,-237.8968 829.1867,-232.1036 853.0659,-227.0664"/>
<polygon fill="#000000" stroke="#000000" points="853.9784,-230.4509 863.0382,-224.9582 852.5305,-223.6023 853.9784,-230.4509"/>
</g>
<!-- parseCommandLine&#45;&gt;warnings -->
<g id="edge3" class="edge">
<title>parseCommandLine&#45;&gt;warnings</title>
<path fill="none" stroke="#000000" d="M479.6911,-285.6235C564.9103,-241.9005 766.5437,-143.4342 947.0953,-92.9835 1063.2799,-60.5185 1201.6365,-43.6203 1291.3069,-35.4042"/>
<polygon fill="#000000" stroke="#000000" points="1291.8068,-38.8734 1301.4534,-34.4925 1291.1803,-31.9015 1291.8068,-38.8734"/>
</g>
<!-- parseCommandLine&#45;&gt;args -->
<g id="edge2" class="edge">
<title>parseCommandLine&#45;&gt;args</title>
<path fill="none" stroke="#000000" d="M429.2572,-284.6145C410.7413,-236.7902 367.7097,-125.6451 344.901,-66.733"/>
<polygon fill="#000000" stroke="#000000" points="348.1619,-65.4615 341.2875,-57.3997 341.6341,-67.9889 348.1619,-65.4615"/>
</g>
<!-- processTemplate&#45;&gt;parseCmdLine -->
<g id="edge21" class="edge">
<title>processTemplate&#45;&gt;parseCmdLine</title>
<path fill="none" stroke="#000000" d="M1241.5174,-471.1319C1400.7772,-463.8657 1662.6319,-447.4559 1695.0953,-417.1888 1715.6382,-398.0357 1718.9862,-365.2869 1718.0384,-340.5361"/>
<polygon fill="#000000" stroke="#000000" points="1721.5269,-340.2422 1717.4067,-330.4813 1714.5406,-340.6811 1721.5269,-340.2422"/>
</g>
<!-- processTemplate&#45;&gt;env -->
<g id="edge12" class="edge">
<title>processTemplate&#45;&gt;env</title>
<path fill="none" stroke="#000000" d="M1005.1451,-466.2953C774.833,-445.8942 271.4535,-394.9871 221.0953,-335.9339 202.5864,-314.2292 226.9901,-195.4674 235.0953,-185.967 255.7262,-161.7847 340.1993,-140.9967 393.4622,-129.9502"/>
<polygon fill="#000000" stroke="#000000" points="394.2457,-133.3626 403.3461,-127.9375 392.8488,-126.5033 394.2457,-133.3626"/>
</g>
<!-- processTemplate&#45;&gt;variables -->
<g id="edge49" class="edge">
<title>processTemplate&#45;&gt;variables</title>
<path fill="none" stroke="#000000" d="M1128.2742,-453.0214C1138.2258,-430.4226 1155.8526,-395.8135 1179.0953,-371.9339 1194.9393,-355.6557 1215.7042,-341.7859 1234.582,-331.1272"/>
<polygon fill="#000000" stroke="#000000" points="1236.2923,-334.1811 1243.382,-326.3079 1232.93,-328.0415 1236.2923,-334.1811"/>
</g>
<!-- processTemplate&#45;&gt;vartypes -->
<g id="edge50" class="edge">
<title>processTemplate&#45;&gt;vartypes</title>
<path fill="none" stroke="#000000" d="M1003.0217,-467.2532C931.9268,-459.3206 850.4164,-444.4553 828.0953,-417.1888 804.8115,-388.7462 834.8985,-292.4115 850.0953,-278.9504 903.9929,-231.209 1102.0028,-259.4198 1172.0953,-242.9504 1180.3669,-241.0069 1188.9642,-238.4481 1197.2987,-235.6603"/>
<polygon fill="#000000" stroke="#000000" points="1198.635,-238.9011 1206.9267,-232.3057 1196.3318,-232.2909 1198.635,-238.9011"/>
</g>
<!-- processTemplate&#45;&gt;replacement -->
<g id="edge62" class="edge">
<title>processTemplate&#45;&gt;replacement</title>
<path fill="none" stroke="#000000" d="M1161.9216,-454.4674C1183.3933,-443.7639 1209.5272,-430.7362 1231.9333,-419.5669"/>
<polygon fill="#000000" stroke="#000000" points="1233.5721,-422.6608 1240.9602,-415.067 1230.4491,-416.396 1233.5721,-422.6608"/>
</g>
<!-- processTemplate&#45;&gt;readlines -->
<g id="edge16" class="edge">
<title>processTemplate&#45;&gt;readlines</title>
<path fill="none" stroke="#000000" d="M1120.6905,-453.1303C1121.089,-430.2927 1118.2561,-395.2043 1100.0953,-371.9339 1084.5025,-351.954 1061.3281,-337.963 1038.201,-328.2524"/>
<polygon fill="#000000" stroke="#000000" points="1039.2508,-324.9038 1028.6645,-324.478 1036.6747,-331.4125 1039.2508,-324.9038"/>
</g>
<!-- processTemplate&#45;&gt;warnings -->
<g id="edge11" class="edge">
<title>processTemplate&#45;&gt;warnings</title>
<path fill="none" stroke="#000000" d="M1240.5614,-470.2909C1532.4134,-455.3988 2249.0953,-408.5369 2249.0953,-307.4422 2249.0953,-307.4422 2249.0953,-307.4422 2249.0953,-214.4587 2249.0953,-120.8715 2164.8821,-125.4186 2077.0953,-92.9835 1969.7688,-53.329 1641.6686,-37.0339 1478.8141,-31.2512"/>
<polygon fill="#000000" stroke="#000000" points="1478.9219,-27.7529 1468.8058,-30.9017 1478.6776,-34.7486 1478.9219,-27.7529"/>
</g>
<!-- processTemplate&#45;&gt;collectCommand -->
<g id="edge26" class="edge">
<title>processTemplate&#45;&gt;collectCommand</title>
<path fill="none" stroke="#000000" d="M1077.9651,-454.2547C1058.3556,-443.9749 1034.7285,-431.589 1014.0913,-420.7705"/>
<polygon fill="#000000" stroke="#000000" points="1015.6304,-417.6256 1005.1485,-416.0825 1012.3803,-423.8254 1015.6304,-417.6256"/>
</g>
<!-- processTemplate&#45;&gt;args -->
<g id="edge10" class="edge">
<title>processTemplate&#45;&gt;args</title>
<path fill="none" stroke="#000000" d="M996.4212,-471.162C784.9252,-462.5177 368.2557,-442.5365 306.0953,-417.1888 254.3351,-396.082 233.6107,-386.6453 210.0953,-335.9339 201.4875,-317.3711 211.6511,-198.3133 216.0953,-185.967 233.5668,-137.4295 270.8119,-90.7167 297.9915,-60.9512"/>
<polygon fill="#000000" stroke="#000000" points="300.7749,-63.0974 305.0155,-53.3883 295.6457,-58.3338 300.7749,-63.0974"/>
</g>
<!-- processTemplate&#45;&gt;matches -->
<g id="edge15" class="edge">
<title>processTemplate&#45;&gt;matches</title>
<path fill="none" stroke="#000000" d="M1214.4977,-461.1704C1278.5706,-450.1374 1356.3444,-434.0663 1385.0953,-417.1888 1458.5385,-374.0756 1518.0829,-290.6327 1546.6871,-245.4062"/>
<polygon fill="#000000" stroke="#000000" points="1549.6732,-247.2321 1551.9904,-236.8937 1543.7319,-243.5306 1549.6732,-247.2321"/>
</g>
<!-- processTemplate&#45;&gt;readjson -->
<g id="edge68" class="edge">
<title>processTemplate&#45;&gt;readjson</title>
<path fill="none" stroke="#000000" d="M1014.6113,-463.2457C935.0553,-452.5034 832.9756,-435.8547 795.0953,-417.1888 756.3009,-398.0724 720.789,-362.7879 698.415,-337.3809"/>
<polygon fill="#000000" stroke="#000000" points="700.8077,-334.7963 691.6248,-329.512 695.5081,-339.3695 700.8077,-334.7963"/>
</g>
<!-- runCommand -->
<g id="node22" class="node">
<title>runCommand</title>
<g id="a_node22"><a xlink:href="runCommand.md" xlink:title="runCommand.md">
<ellipse fill="#cdb79e" stroke="#000000" cx="1581.0953" cy="-394.5613" rx="104.7872" ry="22.7556"/>
<text text-anchor="middle" x="1581.0953" y="-387.3613" font-family="Times,serif" font-size="24.00" fill="#000000">runCommand</text>
</a>
</g>
</g>
<!-- processTemplate&#45;&gt;runCommand -->
<g id="edge48" class="edge">
<title>processTemplate&#45;&gt;runCommand</title>
<path fill="none" stroke="#000000" d="M1211.6199,-460.4807C1280.696,-448.9152 1377.3772,-432.482 1462.0953,-417.1888 1472.0541,-415.391 1482.4737,-413.4696 1492.829,-411.5345"/>
<polygon fill="#000000" stroke="#000000" points="1493.5373,-414.9628 1502.7203,-409.6787 1492.2464,-408.0828 1493.5373,-414.9628"/>
</g>
<!-- runCommand&#45;&gt;runFunction -->
<g id="edge47" class="edge">
<title>runCommand&#45;&gt;runFunction</title>
<path fill="none" stroke="#000000" d="M1659.9539,-379.6237C1717.5355,-368.4182 1797.3887,-352.2599 1867.0953,-335.9339 1878.6744,-333.222 1890.9038,-330.1742 1902.8074,-327.1073"/>
<polygon fill="#000000" stroke="#000000" points="1903.9107,-330.4369 1912.7084,-324.5334 1902.1495,-323.662 1903.9107,-330.4369"/>
</g>
<!-- runCommand&#45;&gt;parseNumber -->
<g id="edge37" class="edge">
<title>runCommand&#45;&gt;parseNumber</title>
<path fill="none" stroke="#000000" d="M1684.0188,-390.4348C1830.1277,-383.504 2083.1695,-367.1192 2111.0953,-335.9339 2127.9903,-317.0669 2122.0928,-301.7641 2111.0953,-278.9504 2105.6137,-267.5792 2097.0441,-257.5935 2087.4932,-249.089"/>
<polygon fill="#000000" stroke="#000000" points="2089.5929,-246.2832 2079.6634,-242.5879 2085.1212,-251.6688 2089.5929,-246.2832"/>
</g>
<!-- runCommand&#45;&gt;regexes -->
<g id="edge31" class="edge">
<title>runCommand&#45;&gt;regexes</title>
<path fill="none" stroke="#000000" d="M1683.6109,-389.8586C1833.1672,-382.0695 2097.0629,-364.4582 2130.0953,-335.9339 2181.1838,-291.8178 2197.4986,-237.6624 2154.0953,-185.967 2118.4897,-143.5589 1966.3881,-129.0293 1869.5186,-124.0566"/>
<polygon fill="#000000" stroke="#000000" points="1869.6084,-120.5569 1859.4493,-123.5638 1869.2662,-127.5486 1869.6084,-120.5569"/>
</g>
<!-- runCommand&#45;&gt;parseCmdLine -->
<g id="edge27" class="edge">
<title>runCommand&#45;&gt;parseCmdLine</title>
<path fill="none" stroke="#000000" d="M1613.9717,-373.0263C1631.5825,-361.4906 1653.4626,-347.1585 1672.273,-334.8371"/>
<polygon fill="#000000" stroke="#000000" points="1674.2259,-337.7419 1680.6733,-329.3346 1670.3903,-331.8863 1674.2259,-337.7419"/>
</g>
<!-- runCommand&#45;&gt;env -->
<g id="edge32" class="edge">
<title>runCommand&#45;&gt;env</title>
<path fill="none" stroke="#000000" d="M1562.6942,-372.0499C1524.4768,-327.1745 1431.4119,-227.3425 1328.0953,-185.967 1308.2883,-178.0348 663.1378,-135.9734 483.8893,-124.4158"/>
<polygon fill="#000000" stroke="#000000" points="483.9449,-120.9122 473.7405,-123.7619 483.4948,-127.8977 483.9449,-120.9122"/>
</g>
<!-- runCommand&#45;&gt;variables -->
<g id="edge41" class="edge">
<title>runCommand&#45;&gt;variables</title>
<path fill="none" stroke="#000000" d="M1518.8344,-376.2983C1468.443,-361.517 1397.7768,-340.7884 1347.169,-325.9436"/>
<polygon fill="#000000" stroke="#000000" points="1347.9077,-322.5129 1337.3268,-323.0566 1345.9374,-329.2299 1347.9077,-322.5129"/>
</g>
<!-- runCommand&#45;&gt;vartypes -->
<g id="edge35" class="edge">
<title>runCommand&#45;&gt;vartypes</title>
<path fill="none" stroke="#000000" d="M1542.1521,-373.3717C1480.2932,-339.7132 1359.9238,-274.2182 1294.6941,-238.7256"/>
<polygon fill="#000000" stroke="#000000" points="1296.3244,-235.6282 1285.8677,-233.923 1292.9787,-241.7769 1296.3244,-235.6282"/>
</g>
<!-- runCommand&#45;&gt;tpub -->
<g id="edge30" class="edge">
<title>runCommand&#45;&gt;tpub</title>
<path fill="none" stroke="#000000" d="M1489.1877,-383.5528C1394.6573,-371.6573 1254.1197,-352.218 1202.0953,-335.9339 1146.8967,-318.6562 1138.2551,-301.7417 1085.0953,-278.9504 1045.8134,-262.1091 1000.5191,-245.3157 966.1321,-233.0892"/>
<polygon fill="#000000" stroke="#000000" points="966.8788,-229.6408 956.284,-229.6063 964.5448,-236.2403 966.8788,-229.6408"/>
</g>
<!-- runCommand&#45;&gt;readlines -->
<g id="edge28" class="edge">
<title>runCommand&#45;&gt;readlines</title>
<path fill="none" stroke="#000000" d="M1493.156,-382.2641C1376.3165,-365.9255 1170.786,-337.1845 1051.3338,-320.4805"/>
<polygon fill="#000000" stroke="#000000" points="1051.5013,-316.9699 1041.1129,-319.0512 1050.5318,-323.9025 1051.5013,-316.9699"/>
</g>
<!-- runCommand&#45;&gt;warnings -->
<g id="edge36" class="edge">
<title>runCommand&#45;&gt;warnings</title>
<path fill="none" stroke="#000000" d="M1684.6309,-390.9238C1843.0365,-384.3642 2130.9039,-368.1367 2165.0953,-335.9339 2213.8574,-290.008 2219.463,-240.1621 2180.0953,-185.967 2098.6023,-73.7804 1671.3426,-40.9956 1479.0452,-31.8481"/>
<polygon fill="#000000" stroke="#000000" points="1479.1036,-28.3471 1468.952,-31.3795 1478.7789,-35.3396 1479.1036,-28.3471"/>
</g>
<!-- runCommand&#45;&gt;matches -->
<g id="edge29" class="edge">
<title>runCommand&#45;&gt;matches</title>
<path fill="none" stroke="#000000" d="M1579.0689,-371.7512C1576.2677,-340.2202 1571.1964,-283.1357 1567.9948,-247.0962"/>
<polygon fill="#000000" stroke="#000000" points="1571.4765,-246.7346 1567.1053,-237.0836 1564.504,-247.3541 1571.4765,-246.7346"/>
</g>
</g>
</svg>
