<?xml version="1.0" encoding="UTF-8" standalone="no"?>
<!DOCTYPE svg PUBLIC "-//W3C//DTD SVG 1.1//EN"
 "http://www.w3.org/Graphics/SVG/1.1/DTD/svg11.dtd">
<!-- Generated by graphviz version 2.40.1 (20161225.0304)
 -->
<!-- Title: statictea Pages: 1 -->
<svg width="720pt" height="311pt"
 viewBox="0.00 0.00 720.00 311.34" xmlns="http://www.w3.org/2000/svg" xmlns:xlink="http://www.w3.org/1999/xlink">
<g id="graph0" class="graph" transform="scale(.25 .25) rotate(0) translate(4 1241.527)">
<title>statictea</title>
<polygon fill="#ffffff" stroke="transparent" points="-4,4 -4,-1241.527 2876.3518,-1241.527 2876.3518,4 -4,4"/>
<!-- runFunction -->
<g id="node1" class="node">
<title>runFunction</title>
<g id="a_node1"><a xlink:href="runFunction.md" xlink:title="runFunction.md">
<ellipse fill="#eee8aa" stroke="#000000" cx="1975.3518" cy="-783" rx="94.055" ry="22.7556"/>
<text text-anchor="middle" x="1975.3518" y="-775.8" font-family="Times,serif" font-size="24.00" fill="#000000">runFunction</text>
</a>
</g>
</g>
<!-- parseNumber -->
<g id="node3" class="node">
<title>parseNumber</title>
<g id="a_node3"><a xlink:href="parseNumber.md" xlink:title="parseNumber.md">
<ellipse fill="#eee8aa" stroke="#000000" cx="1951.3518" cy="-683" rx="102.9592" ry="22.7556"/>
<text text-anchor="middle" x="1951.3518" y="-675.8" font-family="Times,serif" font-size="24.00" fill="#000000">parseNumber</text>
</a>
</g>
</g>
<!-- runFunction&#45;&gt;parseNumber -->
<g id="edge61" class="edge">
<title>runFunction&#45;&gt;parseNumber</title>
<path fill="none" stroke="#000000" d="M1969.9059,-760.3085C1966.7452,-747.1393 1962.7096,-730.3242 1959.2098,-715.7415"/>
<polygon fill="#000000" stroke="#000000" points="1962.5134,-714.5088 1956.7762,-705.6017 1955.7067,-716.1425 1962.5134,-714.5088"/>
</g>
<!-- regexes -->
<g id="node4" class="node">
<title>regexes</title>
<g id="a_node4"><a xlink:href="regexes.md" xlink:title="regexes.md">
<polygon fill="#98fb98" stroke="#000000" points="874.5389,-352.8581 874.5389,-373.1419 834.5958,-387.4846 778.1078,-387.4846 738.1648,-373.1419 738.1648,-352.8581 778.1078,-338.5154 834.5958,-338.5154 874.5389,-352.8581"/>
<polygon fill="none" stroke="#000000" points="878.53,-350.0434 878.53,-375.9566 835.2894,-391.4835 777.4143,-391.4835 734.1737,-375.9566 734.1737,-350.0434 777.4143,-334.5165 835.2894,-334.5165 878.53,-350.0434"/>
<text text-anchor="middle" x="806.3518" y="-355.8" font-family="Times,serif" font-size="24.00" fill="#000000">regexes</text>
</a>
</g>
</g>
<!-- runFunction&#45;&gt;regexes -->
<g id="edge60" class="edge">
<title>runFunction&#45;&gt;regexes</title>
<path fill="none" stroke="#000000" d="M1920.4728,-764.5543C1885.7873,-751.3388 1841.1129,-731.3453 1806.3518,-705.6274 1675.7039,-608.9681 1695.3412,-513.4241 1546.3518,-448.5083 1429.8585,-397.7512 1056.1728,-374.5335 888.7891,-366.4837"/>
<polygon fill="#000000" stroke="#000000" points="888.7057,-362.9759 878.551,-365.9979 888.3738,-369.9681 888.7057,-362.9759"/>
</g>
<!-- unicodes -->
<g id="node8" class="node">
<title>unicodes</title>
<g id="a_node8"><a xlink:href="unicodes.md" xlink:title="unicodes.md">
<ellipse fill="#eee8aa" stroke="#000000" cx="2290.3518" cy="-583" rx="71.7778" ry="22.7556"/>
<text text-anchor="middle" x="2290.3518" y="-575.8" font-family="Times,serif" font-size="24.00" fill="#000000">unicodes</text>
</a>
</g>
</g>
<!-- runFunction&#45;&gt;unicodes -->
<g id="edge70" class="edge">
<title>runFunction&#45;&gt;unicodes</title>
<path fill="none" stroke="#000000" d="M2038.1438,-765.9653C2078.5882,-753.2113 2131.1171,-733.2026 2172.3518,-705.6274 2210.4116,-680.1754 2245.6331,-640.6018 2267.5058,-613.3303"/>
<polygon fill="#000000" stroke="#000000" points="2270.4036,-615.3083 2273.8537,-605.2909 2264.9097,-610.9703 2270.4036,-615.3083"/>
</g>
<!-- vartypes -->
<g id="node11" class="node">
<title>vartypes</title>
<g id="a_node11"><a xlink:href="vartypes.md" xlink:title="vartypes.md">
<ellipse fill="#eee8aa" stroke="#000000" cx="2038.3518" cy="-477" rx="68.6102" ry="22.7556"/>
<text text-anchor="middle" x="2038.3518" y="-469.8" font-family="Times,serif" font-size="24.00" fill="#000000">vartypes</text>
</a>
</g>
</g>
<!-- runFunction&#45;&gt;vartypes -->
<g id="edge59" class="edge">
<title>runFunction&#45;&gt;vartypes</title>
<path fill="none" stroke="#000000" d="M2011.7564,-761.7922C2030.9634,-748.3932 2052.7041,-729.1673 2063.3518,-705.6274 2071.641,-687.3017 2069.4779,-679.5302 2063.3518,-660.3726 2054.2528,-631.9181 2033.4508,-634.0819 2024.3518,-605.6274 2018.2257,-586.4698 2022.6806,-580.4163 2024.3518,-560.3726 2025.7489,-543.6163 2028.6993,-525.1606 2031.5329,-509.8822"/>
<polygon fill="#000000" stroke="#000000" points="2035.0064,-510.3531 2033.4555,-499.8724 2028.132,-509.0327 2035.0064,-510.3531"/>
</g>
<!-- replacement -->
<g id="node13" class="node">
<title>replacement</title>
<g id="a_node13"><a xlink:href="replacement.md" xlink:title="replacement.md">
<ellipse fill="#eee8aa" stroke="#000000" cx="1356.3518" cy="-683" rx="94.4556" ry="22.7556"/>
<text text-anchor="middle" x="1356.3518" y="-675.8" font-family="Times,serif" font-size="24.00" fill="#000000">replacement</text>
</a>
</g>
</g>
<!-- runFunction&#45;&gt;replacement -->
<g id="edge84" class="edge">
<title>runFunction&#45;&gt;replacement</title>
<path fill="none" stroke="#000000" d="M1896.955,-770.3349C1781.3016,-751.651 1565.6208,-716.8076 1444.5787,-697.2531"/>
<polygon fill="#000000" stroke="#000000" points="1445.0293,-693.7806 1434.5991,-695.6409 1443.9129,-700.691 1445.0293,-693.7806"/>
</g>
<!-- warnings -->
<g id="node16" class="node">
<title>warnings</title>
<g id="a_node16"><a xlink:href="warnings.md" xlink:title="warnings.md">
<ellipse fill="#eee8aa" stroke="#000000" cx="1561.3518" cy="-149" rx="73.5561" ry="22.7556"/>
<text text-anchor="middle" x="1561.3518" y="-141.8" font-family="Times,serif" font-size="24.00" fill="#000000">warnings</text>
</a>
</g>
</g>
<!-- runFunction&#45;&gt;warnings -->
<g id="edge58" class="edge">
<title>runFunction&#45;&gt;warnings</title>
<path fill="none" stroke="#000000" d="M1924.7552,-763.7351C1896.5564,-750.8658 1862.5564,-731.5226 1839.3518,-705.6274 1686.7698,-535.3529 1757.5508,-426.6137 1635.3518,-233.3726 1622.7337,-213.4187 1605.4817,-193.4515 1590.8094,-177.9541"/>
<polygon fill="#000000" stroke="#000000" points="1593.304,-175.4987 1583.8456,-170.7249 1588.2626,-180.3551 1593.304,-175.4987"/>
</g>
<!-- signatures -->
<g id="node22" class="node">
<title>signatures</title>
<g id="a_node22"><a xlink:href="signatures.md" xlink:title="signatures.md">
<ellipse fill="#eee8aa" stroke="#000000" cx="2498.3518" cy="-583" rx="80.2483" ry="22.7556"/>
<text text-anchor="middle" x="2498.3518" y="-575.8" font-family="Times,serif" font-size="24.00" fill="#000000">signatures</text>
</a>
</g>
</g>
<!-- runFunction&#45;&gt;signatures -->
<g id="edge73" class="edge">
<title>runFunction&#45;&gt;signatures</title>
<path fill="none" stroke="#000000" d="M2067.7821,-778.3583C2188.1616,-770.5715 2390.0151,-751.0128 2447.3518,-705.6274 2475.0465,-683.7055 2487.8583,-644.1102 2493.6822,-615.8421"/>
<polygon fill="#000000" stroke="#000000" points="2497.1259,-616.4671 2495.5262,-605.9938 2490.2455,-615.1787 2497.1259,-616.4671"/>
</g>
<!-- opresultwarn -->
<g id="node24" class="node">
<title>opresultwarn</title>
<g id="a_node24"><a xlink:href="opresultwarn.md" xlink:title="opresultwarn.md">
<ellipse fill="#eee8aa" stroke="#000000" cx="1979.3518" cy="-256" rx="99.824" ry="22.7556"/>
<text text-anchor="middle" x="1979.3518" y="-248.8" font-family="Times,serif" font-size="24.00" fill="#000000">opresultwarn</text>
</a>
</g>
</g>
<!-- runFunction&#45;&gt;opresultwarn -->
<g id="edge85" class="edge">
<title>runFunction&#45;&gt;opresultwarn</title>
<path fill="none" stroke="#000000" d="M2016.1914,-762.497C2038.3273,-749.2709 2064.1838,-729.9834 2079.3518,-705.6274 2140.3837,-607.6256 2151.4895,-558.4836 2116.3518,-448.5083 2105.0101,-413.0104 2040.758,-330.9303 2004.4129,-286.2707"/>
<polygon fill="#000000" stroke="#000000" points="2007.0083,-283.9155 1997.9703,-278.387 2001.588,-288.345 2007.0083,-283.9155"/>
</g>
<!-- messages -->
<g id="node25" class="node">
<title>messages</title>
<g id="a_node25"><a xlink:href="messages.md" xlink:title="messages.md">
<polygon fill="#98fb98" stroke="#000000" points="2076.0907,-24.8581 2076.0907,-45.1419 2028.2092,-59.4846 1960.4945,-59.4846 1912.613,-45.1419 1912.613,-24.8581 1960.4945,-10.5154 2028.2092,-10.5154 2076.0907,-24.8581"/>
<polygon fill="none" stroke="#000000" points="2080.0964,-21.883 2080.0964,-48.117 2028.7972,-63.4835 1959.9065,-63.4835 1908.6073,-48.117 1908.6073,-21.883 1959.9065,-6.5165 2028.7972,-6.5165 2080.0964,-21.883"/>
<text text-anchor="middle" x="1994.3518" y="-27.8" font-family="Times,serif" font-size="24.00" fill="#000000">messages</text>
</a>
</g>
</g>
<!-- runFunction&#45;&gt;messages -->
<g id="edge57" class="edge">
<title>runFunction&#45;&gt;messages</title>
<path fill="none" stroke="#000000" d="M2068.5332,-779.4471C2171.2113,-773.0778 2339.8914,-755.2917 2476.3518,-705.6274 2627.9714,-650.446 2758.3518,-638.3489 2758.3518,-477 2758.3518,-477 2758.3518,-477 2758.3518,-256 2758.3518,-162.817 2683.3737,-158.6442 2598.3518,-120.5083 2509.5884,-80.6941 2237.1611,-53.987 2090.3927,-42.0793"/>
<polygon fill="#000000" stroke="#000000" points="2090.2952,-38.5602 2080.0468,-41.2475 2089.7341,-45.5377 2090.2952,-38.5602"/>
</g>
<!-- matches -->
<g id="node26" class="node">
<title>matches</title>
<g id="a_node26"><a xlink:href="matches.md" xlink:title="matches.md">
<ellipse fill="#eee8aa" stroke="#000000" cx="639.3518" cy="-477" rx="66.8311" ry="22.7556"/>
<text text-anchor="middle" x="639.3518" y="-469.8" font-family="Times,serif" font-size="24.00" fill="#000000">matches</text>
</a>
</g>
</g>
<!-- runFunction&#45;&gt;matches -->
<g id="edge62" class="edge">
<title>runFunction&#45;&gt;matches</title>
<path fill="none" stroke="#000000" d="M1882.7862,-778.4937C1744.6189,-770.5512 1476.7616,-750.4531 1253.3518,-705.6274 1100.5896,-674.9767 1050.1723,-687.0798 917.3518,-605.6274 893.7002,-591.123 897.621,-575.4829 874.3518,-560.3726 872.3742,-559.0884 764.1486,-520.9032 695.273,-496.6616"/>
<polygon fill="#000000" stroke="#000000" points="696.4255,-493.3568 685.8307,-493.3388 694.1019,-499.9599 696.4255,-493.3568"/>
</g>
<!-- opresultid -->
<g id="node2" class="node">
<title>opresultid</title>
<g id="a_node2"><a xlink:href="opresultid.md" xlink:title="opresultid.md">
<ellipse fill="#eee8aa" stroke="#000000" cx="2221.3518" cy="-256" rx="79.3758" ry="22.7556"/>
<text text-anchor="middle" x="2221.3518" y="-248.8" font-family="Times,serif" font-size="24.00" fill="#000000">opresultid</text>
</a>
</g>
</g>
<!-- opresultid&#45;&gt;messages -->
<g id="edge63" class="edge">
<title>opresultid&#45;&gt;messages</title>
<path fill="none" stroke="#000000" d="M2209.5525,-233.3278C2193.8312,-204.6334 2163.8341,-154.8196 2128.3518,-120.5083 2105.7254,-98.6286 2076.6627,-79.2722 2051.3898,-64.5337"/>
<polygon fill="#000000" stroke="#000000" points="2053.0428,-61.447 2042.6253,-59.5165 2049.5651,-67.5221 2053.0428,-61.447"/>
</g>
<!-- opresult -->
<g id="node32" class="node">
<title>opresult</title>
<g id="a_node32"><a xlink:href="opresult.md" xlink:title="opresult.md">
<polygon fill="#98fb98" stroke="#000000" points="2066.7045,-138.8581 2066.7045,-159.1419 2024.9071,-173.4846 1965.7966,-173.4846 1923.9992,-159.1419 1923.9992,-138.8581 1965.7966,-124.5154 2024.9071,-124.5154 2066.7045,-138.8581"/>
<polygon fill="none" stroke="#000000" points="2070.7005,-136.0019 2070.7005,-161.9981 2025.5731,-177.4835 1965.1305,-177.4835 1920.0032,-161.9981 1920.0032,-136.0019 1965.1305,-120.5165 2025.5731,-120.5165 2070.7005,-136.0019"/>
<text text-anchor="middle" x="1995.3518" y="-141.8" font-family="Times,serif" font-size="24.00" fill="#000000">opresult</text>
</a>
</g>
</g>
<!-- opresultid&#45;&gt;opresult -->
<g id="edge64" class="edge">
<title>opresultid&#45;&gt;opresult</title>
<path fill="none" stroke="#000000" d="M2180.4249,-236.6231C2144.5502,-219.6382 2092.0419,-194.7781 2052.1103,-175.8724"/>
<polygon fill="#000000" stroke="#000000" points="2053.5576,-172.6852 2043.0217,-171.5694 2050.5622,-179.0119 2053.5576,-172.6852"/>
</g>
<!-- parseNumber&#45;&gt;vartypes -->
<g id="edge48" class="edge">
<title>parseNumber&#45;&gt;vartypes</title>
<path fill="none" stroke="#ff0000" d="M1955.856,-660.1874C1961.2733,-635.051 1971.528,-593.7601 1986.3518,-560.3726 1994.5111,-541.9955 2006.1802,-522.867 2016.3976,-507.5746"/>
<polygon fill="#ff0000" stroke="#ff0000" points="2019.4687,-509.2832 2022.2082,-499.0487 2013.6842,-505.341 2019.4687,-509.2832"/>
</g>
<!-- cmdline -->
<g id="node5" class="node">
<title>cmdline</title>
<g id="a_node5"><a xlink:href="cmdline.md" xlink:title="cmdline.md">
<polygon fill="#98fb98" stroke="#000000" points="427.687,-352.8581 427.687,-373.1419 385.8998,-387.4846 326.8038,-387.4846 285.0166,-373.1419 285.0166,-352.8581 326.8038,-338.5154 385.8998,-338.5154 427.687,-352.8581"/>
<polygon fill="none" stroke="#000000" points="431.6825,-350.0021 431.6825,-375.9979 386.5659,-391.4835 326.1377,-391.4835 281.0211,-375.9979 281.0211,-350.0021 326.1377,-334.5165 386.5659,-334.5165 431.6825,-350.0021"/>
<text text-anchor="middle" x="356.3518" y="-355.8" font-family="Times,serif" font-size="24.00" fill="#000000">cmdline</text>
</a>
</g>
</g>
<!-- parseCmdLine -->
<g id="node6" class="node">
<title>parseCmdLine</title>
<g id="a_node6"><a xlink:href="parseCmdLine.md" xlink:title="parseCmdLine.md">
<ellipse fill="#eee8aa" stroke="#000000" cx="645.3518" cy="-583" rx="111.4463" ry="22.7556"/>
<text text-anchor="middle" x="645.3518" y="-575.8" font-family="Times,serif" font-size="24.00" fill="#000000">parseCmdLine</text>
</a>
</g>
</g>
<!-- parseCmdLine&#45;&gt;regexes -->
<g id="edge25" class="edge">
<title>parseCmdLine&#45;&gt;regexes</title>
<path fill="none" stroke="#000000" d="M611.3695,-561.1968C593.4528,-547.594 573.1949,-528.3401 563.3518,-505.4917 553.3316,-482.2323 548.7145,-469.176 563.3518,-448.5083 566.0597,-444.6848 669.3954,-409.2109 740.4257,-385.172"/>
<polygon fill="#000000" stroke="#000000" points="741.8681,-388.379 750.2202,-381.8603 739.6259,-381.7478 741.8681,-388.379"/>
</g>
<!-- parseCmdLine&#45;&gt;warnings -->
<g id="edge28" class="edge">
<title>parseCmdLine&#45;&gt;warnings</title>
<path fill="none" stroke="#000000" d="M605.1461,-561.766C584.6798,-548.571 561.7626,-529.5282 550.3518,-505.4917 539.4907,-482.6129 536.2991,-469.5778 550.3518,-448.5083 586.9466,-393.6409 636.4248,-433.3969 687.3518,-391.4917 710.8578,-372.1499 700.5231,-352.1201 725.3518,-334.5083 848.0071,-247.5048 1298.8685,-182.163 1482.6206,-158.5785"/>
<polygon fill="#000000" stroke="#000000" points="1483.2753,-162.0234 1492.7519,-157.2858 1482.3893,-155.0797 1483.2753,-162.0234"/>
</g>
<!-- parseCmdLine&#45;&gt;opresultwarn -->
<g id="edge29" class="edge">
<title>parseCmdLine&#45;&gt;opresultwarn</title>
<path fill="none" stroke="#000000" d="M744.637,-572.6683C879.2867,-558.0239 1112.4016,-530.2523 1194.3518,-505.4917 1250.4855,-488.5314 1258.5537,-469.3841 1313.3518,-448.5083 1519.7736,-369.87 1772.5228,-305.0429 1899.0804,-274.6415"/>
<polygon fill="#000000" stroke="#000000" points="1900.1708,-277.9794 1909.0814,-272.2477 1898.5413,-271.1717 1900.1708,-277.9794"/>
</g>
<!-- parseCmdLine&#45;&gt;messages -->
<g id="edge26" class="edge">
<title>parseCmdLine&#45;&gt;messages</title>
<path fill="none" stroke="#000000" d="M541.1779,-575.0695C390.4813,-562.5981 126.2183,-536.5889 95.3518,-505.4917 50.3431,-460.1467 76.3518,-426.8902 76.3518,-363 76.3518,-363 76.3518,-363 76.3518,-256 76.3518,-94.1575 256.3279,-155.4571 414.3518,-120.5083 699.4809,-57.4486 1600.7523,-40.1536 1898.1181,-36.1022"/>
<polygon fill="#000000" stroke="#000000" points="1898.4875,-39.5976 1908.4396,-35.9636 1898.3935,-32.5983 1898.4875,-39.5976"/>
</g>
<!-- parseCmdLine&#45;&gt;matches -->
<g id="edge27" class="edge">
<title>parseCmdLine&#45;&gt;matches</title>
<path fill="none" stroke="#000000" d="M644.0647,-560.2603C643.2342,-545.5892 642.1405,-526.2658 641.2157,-509.9282"/>
<polygon fill="#000000" stroke="#000000" points="644.6965,-509.4882 640.6368,-499.7021 637.7077,-509.8839 644.6965,-509.4882"/>
</g>
<!-- env -->
<g id="node7" class="node">
<title>env</title>
<g id="a_node7"><a xlink:href="env.md" xlink:title="env.md">
<ellipse fill="#eee8aa" stroke="#000000" cx="962.3518" cy="-583" rx="35.6342" ry="22.7556"/>
<text text-anchor="middle" x="962.3518" y="-575.8" font-family="Times,serif" font-size="24.00" fill="#000000">env</text>
</a>
</g>
</g>
<!-- tempFile -->
<g id="node10" class="node">
<title>tempFile</title>
<g id="a_node10"><a xlink:href="tempFile.md" xlink:title="tempFile.md">
<polygon fill="#98fb98" stroke="#000000" points="1180.9498,-466.8581 1180.9498,-487.1419 1135.494,-501.4846 1071.2097,-501.4846 1025.7539,-487.1419 1025.7539,-466.8581 1071.2097,-452.5154 1135.494,-452.5154 1180.9498,-466.8581"/>
<polygon fill="none" stroke="#000000" points="1184.9523,-463.9275 1184.9523,-490.0725 1136.111,-505.4835 1070.5927,-505.4835 1021.7514,-490.0725 1021.7514,-463.9275 1070.5927,-448.5165 1136.111,-448.5165 1184.9523,-463.9275"/>
<text text-anchor="middle" x="1103.3518" y="-469.8" font-family="Times,serif" font-size="24.00" fill="#000000">tempFile</text>
</a>
</g>
</g>
<!-- env&#45;&gt;tempFile -->
<g id="edge15" class="edge">
<title>env&#45;&gt;tempFile</title>
<path fill="none" stroke="#000000" d="M985.6351,-565.4963C1005.4525,-550.598 1034.4821,-528.7744 1058.7541,-510.5274"/>
<polygon fill="#000000" stroke="#000000" points="1060.8929,-513.2983 1066.7829,-504.4915 1056.6865,-507.703 1060.8929,-513.2983"/>
</g>
<!-- readlines -->
<g id="node14" class="node">
<title>readlines</title>
<g id="a_node14"><a xlink:href="readlines.md" xlink:title="readlines.md">
<polygon fill="#98fb98" stroke="#000000" points="999.9412,-466.8581 999.9412,-487.1419 953.9046,-501.4846 888.799,-501.4846 842.7625,-487.1419 842.7625,-466.8581 888.799,-452.5154 953.9046,-452.5154 999.9412,-466.8581"/>
<polygon fill="none" stroke="#000000" points="1003.9434,-463.9163 1003.9434,-490.0837 954.5141,-505.4835 888.1895,-505.4835 838.7603,-490.0837 838.7603,-463.9163 888.1895,-448.5165 954.5141,-448.5165 1003.9434,-463.9163"/>
<text text-anchor="middle" x="921.3518" y="-469.8" font-family="Times,serif" font-size="24.00" fill="#000000">readlines</text>
</a>
</g>
</g>
<!-- env&#45;&gt;readlines -->
<g id="edge19" class="edge">
<title>env&#45;&gt;readlines</title>
<path fill="none" stroke="#000000" d="M953.7569,-560.7789C948.6717,-547.6318 942.0908,-530.6178 936.1893,-515.3603"/>
<polygon fill="#000000" stroke="#000000" points="939.3037,-513.7098 932.4318,-505.6458 932.775,-516.2351 939.3037,-513.7098"/>
</g>
<!-- env&#45;&gt;warnings -->
<g id="edge17" class="edge">
<title>env&#45;&gt;warnings</title>
<path fill="none" stroke="#000000" d="M932.7989,-570.02C897.2317,-553.7214 840.8365,-525.4773 829.3518,-505.4917 816.7333,-483.5332 816.2706,-470.1943 829.3518,-448.5083 882.2941,-360.7407 1141.7891,-270.4375 1237.3518,-233.3726 1321.1147,-200.8843 1421.8412,-176.8699 1488.5121,-162.94"/>
<polygon fill="#000000" stroke="#000000" points="1489.4191,-166.3266 1498.5036,-160.8747 1488.0021,-159.4715 1489.4191,-166.3266"/>
</g>
<!-- args -->
<g id="node23" class="node">
<title>args</title>
<g id="a_node23"><a xlink:href="args.md" xlink:title="args.md">
<ellipse fill="#eee8aa" stroke="#000000" cx="639.3518" cy="-363" rx="39.0784" ry="22.7556"/>
<text text-anchor="middle" x="639.3518" y="-355.8" font-family="Times,serif" font-size="24.00" fill="#000000">args</text>
</a>
</g>
</g>
<!-- env&#45;&gt;args -->
<g id="edge18" class="edge">
<title>env&#45;&gt;args</title>
<path fill="none" stroke="#000000" d="M933.2215,-569.7926C887.1922,-548.8675 802.2218,-509.9894 796.3518,-505.4917 770.0668,-485.3518 772.1709,-471.5119 748.3518,-448.5083 724.7269,-425.6922 695.2917,-402.8871 672.9669,-386.5733"/>
<polygon fill="#000000" stroke="#000000" points="674.9388,-383.6799 664.7858,-380.6521 670.8346,-389.3506 674.9388,-383.6799"/>
</g>
<!-- env&#45;&gt;messages -->
<g id="edge16" class="edge">
<title>env&#45;&gt;messages</title>
<path fill="none" stroke="#000000" d="M933.1043,-569.7625C925.7287,-566.5657 917.7912,-563.2455 910.3518,-560.3726 839.4366,-532.9868 807.1622,-553.661 748.3518,-505.4917 725.7107,-486.9473 736.9951,-468.2082 715.3518,-448.5083 670.4936,-407.6778 624.08,-442.5628 591.3518,-391.4917 551.9939,-330.0753 587.5685,-288.4886 635.3518,-233.3726 697.9477,-161.1709 727.4252,-149.8967 818.3518,-120.5083 1018.419,-55.8445 1654.639,-39.8987 1898.2148,-36.122"/>
<polygon fill="#000000" stroke="#000000" points="1898.5194,-39.6179 1908.4651,-35.9667 1898.4132,-32.6187 1898.5194,-39.6179"/>
</g>
<!-- unicodes&#45;&gt;opresultid -->
<g id="edge65" class="edge">
<title>unicodes&#45;&gt;opresultid</title>
<path fill="none" stroke="#000000" d="M2285.5547,-560.2656C2273.5736,-503.4857 2242.3,-355.2763 2228.3017,-288.9366"/>
<polygon fill="#000000" stroke="#000000" points="2231.6983,-288.0808 2226.209,-279.0189 2224.8491,-289.5261 2231.6983,-288.0808"/>
</g>
<!-- unicodes&#45;&gt;vartypes -->
<g id="edge69" class="edge">
<title>unicodes&#45;&gt;vartypes</title>
<path fill="none" stroke="#000000" d="M2247.3178,-564.8984C2203.7866,-546.5877 2136.4718,-518.2727 2090.0667,-498.7531"/>
<polygon fill="#000000" stroke="#000000" points="2091.3628,-495.5013 2080.788,-494.8501 2088.6487,-501.9537 2091.3628,-495.5013"/>
</g>
<!-- utf8decoder -->
<g id="node15" class="node">
<title>utf8decoder</title>
<g id="a_node15"><a xlink:href="utf8decoder.md" xlink:title="utf8decoder.md">
<polygon fill="#98fb98" stroke="#000000" points="2574.2814,-466.8581 2574.2814,-487.1419 2515.744,-501.4846 2432.9596,-501.4846 2374.4223,-487.1419 2374.4223,-466.8581 2432.9596,-452.5154 2515.744,-452.5154 2574.2814,-466.8581"/>
<polygon fill="none" stroke="#000000" points="2578.28,-463.7208 2578.28,-490.2792 2516.2267,-505.4835 2432.4769,-505.4835 2370.4236,-490.2792 2370.4236,-463.7208 2432.4769,-448.5165 2516.2267,-448.5165 2578.28,-463.7208"/>
<text text-anchor="middle" x="2474.3518" y="-469.8" font-family="Times,serif" font-size="24.00" fill="#000000">utf8decoder</text>
</a>
</g>
</g>
<!-- unicodes&#45;&gt;utf8decoder -->
<g id="edge68" class="edge">
<title>unicodes&#45;&gt;utf8decoder</title>
<path fill="none" stroke="#000000" d="M2324.9608,-563.0622C2351.2064,-547.9425 2387.8271,-526.8458 2418.2418,-509.3243"/>
<polygon fill="#000000" stroke="#000000" points="2420.1334,-512.2738 2427.0513,-504.2492 2416.6391,-506.2083 2420.1334,-512.2738"/>
</g>
<!-- unicodes&#45;&gt;opresultwarn -->
<g id="edge66" class="edge">
<title>unicodes&#45;&gt;opresultwarn</title>
<path fill="none" stroke="#000000" d="M2280.9039,-560.1236C2255.5523,-498.7496 2187.897,-335.0362 2187.3518,-334.5083 2155.0137,-303.1897 2108.9673,-284.1126 2068.4161,-272.6233"/>
<polygon fill="#000000" stroke="#000000" points="2069.0761,-269.1759 2058.5083,-269.9335 2067.242,-275.9313 2069.0761,-269.1759"/>
</g>
<!-- unicodes&#45;&gt;messages -->
<g id="edge67" class="edge">
<title>unicodes&#45;&gt;messages</title>
<path fill="none" stroke="#000000" d="M2298.83,-560.2305C2318.9745,-502.1786 2364.0817,-345.3281 2309.3518,-233.3726 2263.1466,-138.8551 2148.3324,-84.33 2070.8479,-57.1544"/>
<polygon fill="#000000" stroke="#000000" points="2071.7137,-53.7512 2061.119,-53.8166 2069.442,-60.3724 2071.7137,-53.7512"/>
</g>
<!-- variables -->
<g id="node9" class="node">
<title>variables</title>
<g id="a_node9"><a xlink:href="variables.md" xlink:title="variables.md">
<ellipse fill="#eee8aa" stroke="#000000" cx="1595.3518" cy="-583" rx="72.6337" ry="22.7556"/>
<text text-anchor="middle" x="1595.3518" y="-575.8" font-family="Times,serif" font-size="24.00" fill="#000000">variables</text>
</a>
</g>
</g>
<!-- variables&#45;&gt;vartypes -->
<g id="edge50" class="edge">
<title>variables&#45;&gt;vartypes</title>
<path fill="none" stroke="#000000" d="M1653.2663,-569.1424C1735.6102,-549.4393 1886.1033,-513.4297 1972.5591,-492.7427"/>
<polygon fill="#000000" stroke="#000000" points="1973.6081,-496.0906 1982.5191,-490.3595 1971.9791,-489.2828 1973.6081,-496.0906"/>
</g>
<!-- variables&#45;&gt;warnings -->
<g id="edge53" class="edge">
<title>variables&#45;&gt;warnings</title>
<path fill="none" stroke="#000000" d="M1617.0061,-561.0644C1629.7071,-546.5993 1644.5567,-526.4995 1651.3518,-505.4917 1659.1461,-481.3949 1653.5629,-473.7376 1651.3518,-448.5083 1642.875,-351.783 1647.8813,-324.1214 1613.3518,-233.3726 1606.1395,-214.4175 1594.5453,-195.0312 1584.1332,-179.629"/>
<polygon fill="#000000" stroke="#000000" points="1586.7587,-177.2734 1578.1813,-171.0541 1581.0082,-181.2649 1586.7587,-177.2734"/>
</g>
<!-- variables&#45;&gt;args -->
<g id="edge54" class="edge">
<title>variables&#45;&gt;args</title>
<path fill="none" stroke="#000000" d="M1587.3575,-560.4139C1574.9671,-529.1534 1547.9098,-473.7087 1504.3518,-448.5083 1354.1102,-361.5861 895.5861,-425.3783 725.3518,-391.4917 710.8285,-388.6008 695.3559,-383.9826 681.5965,-379.2987"/>
<polygon fill="#000000" stroke="#000000" points="682.5132,-375.9111 671.9184,-375.9002 680.1939,-382.5158 682.5132,-375.9111"/>
</g>
<!-- variables&#45;&gt;opresultwarn -->
<g id="edge55" class="edge">
<title>variables&#45;&gt;opresultwarn</title>
<path fill="none" stroke="#000000" d="M1650.6466,-568.3026C1686.8986,-556.3388 1733.334,-536.3077 1765.3518,-505.4917 1826.6401,-446.5039 1793.7861,-397.1342 1851.3518,-334.5083 1871.7779,-312.2866 1899.91,-294.1066 1924.5996,-280.8578"/>
<polygon fill="#000000" stroke="#000000" points="1926.2742,-283.9319 1933.5193,-276.2015 1923.0348,-277.7265 1926.2742,-283.9319"/>
</g>
<!-- variables&#45;&gt;messages -->
<g id="edge52" class="edge">
<title>variables&#45;&gt;messages</title>
<path fill="none" stroke="#000000" d="M1617.9532,-561.3027C1633.0241,-546.2997 1652.8401,-525.5094 1668.3518,-505.4917 1792.2882,-345.5534 1786.2146,-279.5088 1911.3518,-120.5083 1924.8626,-103.3414 1941.3489,-85.7883 1956.0575,-71.0883"/>
<polygon fill="#000000" stroke="#000000" points="1958.9053,-73.195 1963.5619,-63.6784 1953.987,-68.214 1958.9053,-73.195"/>
</g>
<!-- version -->
<g id="node27" class="node">
<title>version</title>
<g id="a_node27"><a xlink:href="version.md" xlink:title="version.md">
<polygon fill="#98fb98" stroke="#000000" points="1491.5041,-466.8581 1491.5041,-487.1419 1452.753,-501.4846 1397.9507,-501.4846 1359.1995,-487.1419 1359.1995,-466.8581 1397.9507,-452.5154 1452.753,-452.5154 1491.5041,-466.8581"/>
<polygon fill="none" stroke="#000000" points="1495.4939,-464.0721 1495.4939,-489.9279 1453.4662,-505.4835 1397.2375,-505.4835 1355.2097,-489.9279 1355.2097,-464.0721 1397.2375,-448.5165 1453.4662,-448.5165 1495.4939,-464.0721"/>
<text text-anchor="middle" x="1425.3518" y="-469.8" font-family="Times,serif" font-size="24.00" fill="#000000">version</text>
</a>
</g>
</g>
<!-- variables&#45;&gt;version -->
<g id="edge51" class="edge">
<title>variables&#45;&gt;version</title>
<path fill="none" stroke="#000000" d="M1562.5741,-562.5621C1537.2168,-546.7511 1501.7359,-524.6277 1473.2056,-506.8382"/>
<polygon fill="#000000" stroke="#000000" points="1474.9309,-503.7894 1464.5934,-501.4683 1471.2272,-509.7293 1474.9309,-503.7894"/>
</g>
<!-- vartypes&#45;&gt;warnings -->
<g id="edge43" class="edge">
<title>vartypes&#45;&gt;warnings</title>
<path fill="none" stroke="#000000" d="M2013.4384,-455.6019C1961.1654,-411.2359 1835.3487,-307.2121 1720.3518,-233.3726 1684.9306,-210.6286 1642.7633,-188.4595 1610.7563,-172.5573"/>
<polygon fill="#000000" stroke="#000000" points="1612.1078,-169.3214 1601.5911,-168.0368 1609.0113,-175.5993 1612.1078,-169.3214"/>
</g>
<!-- vartypes&#45;&gt;opresultwarn -->
<g id="edge44" class="edge">
<title>vartypes&#45;&gt;opresultwarn</title>
<path fill="none" stroke="#000000" d="M2032.26,-454.1815C2021.7439,-414.7907 2000.1517,-333.9112 1988.0548,-288.5992"/>
<polygon fill="#000000" stroke="#000000" points="1991.3715,-287.4532 1985.4105,-278.6944 1984.6084,-289.2588 1991.3715,-287.4532"/>
</g>
<!-- vartypes&#45;&gt;messages -->
<g id="edge42" class="edge">
<title>vartypes&#45;&gt;messages</title>
<path fill="none" stroke="#000000" d="M2048.7527,-454.4348C2074.0338,-396.1158 2132.8372,-236.8247 2079.3518,-120.5083 2070.4901,-101.2365 2055.3253,-83.8234 2040.236,-69.8173"/>
<polygon fill="#000000" stroke="#000000" points="2042.1774,-66.8588 2032.3859,-62.8118 2037.5166,-72.0815 2042.1774,-66.8588"/>
</g>
<!-- codefile -->
<g id="node12" class="node">
<title>codefile</title>
<g id="a_node12"><a xlink:href="codefile.md" xlink:title="codefile.md">
<ellipse fill="#eee8aa" stroke="#000000" cx="1563.3518" cy="-982" rx="65.069" ry="22.7556"/>
<text text-anchor="middle" x="1563.3518" y="-974.8" font-family="Times,serif" font-size="24.00" fill="#000000">codefile</text>
</a>
</g>
</g>
<!-- codefile&#45;&gt;env -->
<g id="edge102" class="edge">
<title>codefile&#45;&gt;env</title>
<path fill="none" stroke="#000000" d="M1499.8944,-976.8409C1397.2295,-967.4302 1200.5239,-944.6636 1144.3518,-904.6274 1041.6949,-831.4596 989.4057,-681.1365 970.6423,-615.2001"/>
<polygon fill="#000000" stroke="#000000" points="973.9607,-614.0684 967.9162,-605.367 967.2151,-615.9386 973.9607,-614.0684"/>
</g>
<!-- codefile&#45;&gt;variables -->
<g id="edge107" class="edge">
<title>codefile&#45;&gt;variables</title>
<path fill="none" stroke="#000000" d="M1581.465,-960.2389C1592.4743,-945.5449 1605.5028,-925.1506 1611.3518,-904.6274 1640.4789,-802.4248 1617.5292,-674.6705 1603.7804,-615.6592"/>
<polygon fill="#000000" stroke="#000000" points="1607.1504,-614.7029 1601.4167,-605.7936 1600.3431,-616.3339 1607.1504,-614.7029"/>
</g>
<!-- codefile&#45;&gt;vartypes -->
<g id="edge108" class="edge">
<title>codefile&#45;&gt;vartypes</title>
<path fill="none" stroke="#000000" d="M1620.4328,-971.032C1742.7713,-946.2454 2023.5927,-882.0738 2078.3518,-805.6274 2130.2795,-733.1338 2083.7889,-692.1852 2062.3518,-605.6274 2054.3843,-573.4563 2047.7031,-536.1761 2043.4299,-510.0597"/>
<polygon fill="#000000" stroke="#000000" points="2046.8466,-509.2609 2041.8038,-499.9432 2039.9353,-510.372 2046.8466,-509.2609"/>
</g>
<!-- codefile&#45;&gt;readlines -->
<g id="edge105" class="edge">
<title>codefile&#45;&gt;readlines</title>
<path fill="none" stroke="#000000" d="M1504.3427,-972.3795C1427.2046,-958.9091 1297.3261,-932.887 1258.3518,-904.6274 1111.7374,-798.3198 1165.3889,-691.3796 1040.3518,-560.3726 1021.0555,-540.1549 996.1724,-521.8211 974.1526,-507.5274"/>
<polygon fill="#000000" stroke="#000000" points="975.8701,-504.4717 965.5548,-502.0538 972.1108,-510.3767 975.8701,-504.4717"/>
</g>
<!-- codefile&#45;&gt;utf8decoder -->
<g id="edge110" class="edge">
<title>codefile&#45;&gt;utf8decoder</title>
<path fill="none" stroke="#000000" d="M1625.9235,-975.6481C1759.1087,-960.399 2078.3962,-914.5843 2322.3518,-805.6274 2457.0811,-745.4538 2527.3538,-740.435 2587.3518,-605.6274 2595.5301,-587.2519 2596.4173,-578.327 2587.3518,-560.3726 2576.3908,-538.6639 2556.8154,-521.2147 2537.0028,-508.0014"/>
<polygon fill="#000000" stroke="#000000" points="2538.8361,-505.0194 2528.5217,-502.5978 2535.0747,-510.923 2538.8361,-505.0194"/>
</g>
<!-- codefile&#45;&gt;warnings -->
<g id="edge109" class="edge">
<title>codefile&#45;&gt;warnings</title>
<path fill="none" stroke="#000000" d="M1502.9861,-973.4353C1461.6577,-964.085 1409.7322,-944.6812 1383.3518,-904.6274 1346.539,-848.7339 1430.0874,-788.3219 1459.3518,-705.6274 1527.0775,-514.2508 1551.9258,-269.1732 1558.9909,-181.7663"/>
<polygon fill="#000000" stroke="#000000" points="1562.4903,-181.9108 1559.784,-171.6675 1555.5118,-181.3628 1562.4903,-181.9108"/>
</g>
<!-- codefile&#45;&gt;opresultwarn -->
<g id="edge104" class="edge">
<title>codefile&#45;&gt;opresultwarn</title>
<path fill="none" stroke="#000000" d="M1584.5365,-960.3436C1615.3899,-928.1866 1673.5575,-865.1867 1715.3518,-805.6274 1836.788,-632.5741 1873.6709,-588.8913 1949.3518,-391.4917 1962.3529,-357.5809 1970.4448,-316.6271 1974.9011,-288.6825"/>
<polygon fill="#000000" stroke="#000000" points="1978.3832,-289.0651 1976.4337,-278.6512 1971.4635,-288.0079 1978.3832,-289.0651"/>
</g>
<!-- codefile&#45;&gt;messages -->
<g id="edge103" class="edge">
<title>codefile&#45;&gt;messages</title>
<path fill="none" stroke="#000000" d="M1626.3809,-976.1694C1882.8424,-950.7412 2834.3518,-839.1395 2834.3518,-583 2834.3518,-583 2834.3518,-583 2834.3518,-256 2834.3518,-181.1563 2799.1154,-158.0218 2734.3518,-120.5083 2627.0288,-58.3427 2265.1247,-41.33 2090.3678,-36.7068"/>
<polygon fill="#000000" stroke="#000000" points="2090.2369,-33.2024 2080.1505,-36.445 2090.0575,-40.2001 2090.2369,-33.2024"/>
</g>
<!-- runCommand -->
<g id="node33" class="node">
<title>runCommand</title>
<g id="a_node33"><a xlink:href="runCommand.md" xlink:title="runCommand.md">
<ellipse fill="#eee8aa" stroke="#000000" cx="1497.3518" cy="-882" rx="104.7872" ry="22.7556"/>
<text text-anchor="middle" x="1497.3518" y="-874.8" font-family="Times,serif" font-size="24.00" fill="#000000">runCommand</text>
</a>
</g>
</g>
<!-- codefile&#45;&gt;runCommand -->
<g id="edge106" class="edge">
<title>codefile&#45;&gt;runCommand</title>
<path fill="none" stroke="#000000" d="M1548.7043,-959.8068C1539.6249,-946.05 1527.8277,-928.1756 1517.8306,-913.0285"/>
<polygon fill="#000000" stroke="#000000" points="1520.6162,-910.8951 1512.1866,-904.477 1514.774,-914.7511 1520.6162,-910.8951"/>
</g>
<!-- replacement&#45;&gt;parseCmdLine -->
<g id="edge76" class="edge">
<title>replacement&#45;&gt;parseCmdLine</title>
<path fill="none" stroke="#000000" d="M1274.7911,-671.5287C1144.3291,-653.1796 888.9766,-617.2651 746.887,-597.2806"/>
<polygon fill="#000000" stroke="#000000" points="747.2456,-593.7967 736.8556,-595.8697 746.2706,-600.7285 747.2456,-593.7967"/>
</g>
<!-- replacement&#45;&gt;env -->
<g id="edge74" class="edge">
<title>replacement&#45;&gt;env</title>
<path fill="none" stroke="#000000" d="M1291.2669,-666.6237C1229.3067,-651.0145 1133.4501,-626.8166 1050.3518,-605.6274 1035.8376,-601.9265 1019.9838,-597.858 1005.7809,-594.2038"/>
<polygon fill="#000000" stroke="#000000" points="1006.3304,-590.7312 995.7735,-591.6274 1004.5851,-597.5101 1006.3304,-590.7312"/>
</g>
<!-- replacement&#45;&gt;variables -->
<g id="edge80" class="edge">
<title>replacement&#45;&gt;variables</title>
<path fill="none" stroke="#000000" d="M1403.2854,-663.3625C1443.2653,-646.6345 1500.6855,-622.6093 1542.32,-605.1891"/>
<polygon fill="#000000" stroke="#000000" points="1543.8722,-608.3337 1551.7463,-601.245 1541.1702,-601.8761 1543.8722,-608.3337"/>
</g>
<!-- replacement&#45;&gt;tempFile -->
<g id="edge81" class="edge">
<title>replacement&#45;&gt;tempFile</title>
<path fill="none" stroke="#000000" d="M1329.2764,-660.9544C1285.2625,-625.117 1197.8679,-553.9578 1145.6178,-511.4142"/>
<polygon fill="#000000" stroke="#000000" points="1147.824,-508.6971 1137.8595,-505.0972 1143.4042,-514.1253 1147.824,-508.6971"/>
</g>
<!-- replacement&#45;&gt;vartypes -->
<g id="edge75" class="edge">
<title>replacement&#45;&gt;vartypes</title>
<path fill="none" stroke="#000000" d="M1433.2094,-669.843C1505.5275,-656.61 1616.4373,-634.1089 1710.3518,-605.6274 1763.7485,-589.4338 1907.6321,-530.99 1985.9046,-498.743"/>
<polygon fill="#000000" stroke="#000000" points="1987.6652,-501.8029 1995.5754,-494.7545 1984.9963,-495.3316 1987.6652,-501.8029"/>
</g>
<!-- replacement&#45;&gt;readlines -->
<g id="edge77" class="edge">
<title>replacement&#45;&gt;readlines</title>
<path fill="none" stroke="#000000" d="M1309.277,-663.3103C1278.008,-649.2599 1236.7254,-628.8013 1203.3518,-605.6274 1179.0017,-588.7192 1179.7072,-575.7323 1154.3518,-560.3726 1139.8248,-551.5725 1054.3414,-521.8325 991.1047,-500.3798"/>
<polygon fill="#000000" stroke="#000000" points="992.1487,-497.0382 981.5544,-497.1455 989.9033,-503.6683 992.1487,-497.0382"/>
</g>
<!-- replacement&#45;&gt;warnings -->
<g id="edge83" class="edge">
<title>replacement&#45;&gt;warnings</title>
<path fill="none" stroke="#000000" d="M1350.2962,-660.3247C1339.9953,-617.6472 1322.3887,-522.9829 1346.3518,-448.5083 1382.9956,-334.6237 1480.7367,-227.382 1530.8282,-177.7887"/>
<polygon fill="#000000" stroke="#000000" points="1533.4577,-180.1124 1538.1511,-170.6138 1528.5587,-175.1123 1533.4577,-180.1124"/>
</g>
<!-- replacement&#45;&gt;opresultwarn -->
<g id="edge82" class="edge">
<title>replacement&#45;&gt;opresultwarn</title>
<path fill="none" stroke="#000000" d="M1435.0322,-670.4457C1516.7764,-656.2888 1638.1371,-631.8062 1677.3518,-605.6274 1698.0552,-591.8063 1692.1241,-577.3256 1710.3518,-560.3726 1744.1037,-528.981 1764.6382,-536.9245 1798.3518,-505.4917 1836.2321,-470.1742 1920.3067,-345.6304 1959.0637,-286.9805"/>
<polygon fill="#000000" stroke="#000000" points="1962.0792,-288.7654 1964.6618,-278.4901 1956.2352,-284.9121 1962.0792,-288.7654"/>
</g>
<!-- replacement&#45;&gt;messages -->
<g id="edge79" class="edge">
<title>replacement&#45;&gt;messages</title>
<path fill="none" stroke="#000000" d="M1375.3519,-660.6145C1454.0717,-568.0976 1755.6695,-215.9562 1866.3518,-120.5083 1889.6041,-100.4565 1917.7665,-81.1803 1941.7484,-66.0222"/>
<polygon fill="#000000" stroke="#000000" points="1943.752,-68.8975 1950.3779,-60.6302 1940.0426,-62.961 1943.752,-68.8975"/>
</g>
<!-- replacement&#45;&gt;matches -->
<g id="edge78" class="edge">
<title>replacement&#45;&gt;matches</title>
<path fill="none" stroke="#000000" d="M1306.9425,-663.6106C1239.8419,-637.7481 1115.815,-591.602 1007.3518,-560.3726 904.2413,-530.6843 782.4251,-504.8558 708.0513,-490.1016"/>
<polygon fill="#000000" stroke="#000000" points="708.3671,-486.5965 697.8786,-488.094 707.0117,-493.464 708.3671,-486.5965"/>
</g>
<!-- warnings&#45;&gt;messages -->
<g id="edge2" class="edge">
<title>warnings&#45;&gt;messages</title>
<path fill="none" stroke="#ff0000" d="M1617.5151,-134.2134C1693.4205,-114.229 1829.1482,-78.4947 1915.3211,-55.8072"/>
<polygon fill="#ff0000" stroke="#ff0000" points="1916.2779,-59.1746 1925.0573,-53.2438 1914.4957,-52.4053 1916.2779,-59.1746"/>
</g>
<!-- collectCommand -->
<g id="node17" class="node">
<title>collectCommand</title>
<g id="a_node17"><a xlink:href="collectCommand.md" xlink:title="collectCommand.md">
<ellipse fill="#eee8aa" stroke="#000000" cx="699.3518" cy="-683" rx="127.4982" ry="22.7556"/>
<text text-anchor="middle" x="699.3518" y="-675.8" font-family="Times,serif" font-size="24.00" fill="#000000">collectCommand</text>
</a>
</g>
</g>
<!-- collectCommand&#45;&gt;parseCmdLine -->
<g id="edge34" class="edge">
<title>collectCommand&#45;&gt;parseCmdLine</title>
<path fill="none" stroke="#000000" d="M687.0984,-660.3085C679.7799,-646.7557 670.3763,-629.3415 662.3473,-614.4732"/>
<polygon fill="#000000" stroke="#000000" points="665.388,-612.7378 657.5568,-605.6017 659.2286,-616.0639 665.388,-612.7378"/>
</g>
<!-- collectCommand&#45;&gt;env -->
<g id="edge31" class="edge">
<title>collectCommand&#45;&gt;env</title>
<path fill="none" stroke="#000000" d="M753.5267,-662.4012C803.6794,-643.3317 877.1058,-615.4129 922.2017,-598.2662"/>
<polygon fill="#000000" stroke="#000000" points="923.5473,-601.4991 931.6505,-594.6735 921.0594,-594.9561 923.5473,-601.4991"/>
</g>
<!-- collectCommand&#45;&gt;readlines -->
<g id="edge33" class="edge">
<title>collectCommand&#45;&gt;readlines</title>
<path fill="none" stroke="#000000" d="M723.5323,-660.5622C761.9614,-624.9028 837.3016,-554.9925 883.1047,-512.4906"/>
<polygon fill="#000000" stroke="#000000" points="885.5186,-515.0254 890.4682,-505.6578 880.7572,-509.8942 885.5186,-515.0254"/>
</g>
<!-- collectCommand&#45;&gt;opresultwarn -->
<g id="edge36" class="edge">
<title>collectCommand&#45;&gt;opresultwarn</title>
<path fill="none" stroke="#000000" d="M780.185,-665.4947C842.7453,-651.2747 931.2587,-629.6862 1007.3518,-605.6274 1125.816,-568.172 1159.2363,-564.9096 1268.3518,-505.4917 1306.0564,-484.9601 1307.3824,-466.5239 1346.3518,-448.5083 1445.0826,-402.8648 1479.9012,-421.8424 1584.3518,-391.4917 1704.0256,-356.7176 1841.0809,-307.5529 1918.2167,-279.0025"/>
<polygon fill="#000000" stroke="#000000" points="1919.6208,-282.2147 1927.779,-275.455 1917.186,-275.6518 1919.6208,-282.2147"/>
</g>
<!-- collectCommand&#45;&gt;messages -->
<g id="edge35" class="edge">
<title>collectCommand&#45;&gt;messages</title>
<path fill="none" stroke="#000000" d="M589.0874,-671.6201C401.0227,-649.1233 38.3518,-590.9653 38.3518,-477 38.3518,-477 38.3518,-477 38.3518,-256 38.3518,-189.5901 46.1821,-157.4755 101.3518,-120.5083 176.5946,-70.0908 1523.575,-43.1332 1898.3147,-36.5872"/>
<polygon fill="#000000" stroke="#000000" points="1898.6469,-40.0821 1908.5845,-36.4087 1898.5252,-33.0832 1898.6469,-40.0821"/>
</g>
<!-- collectCommand&#45;&gt;matches -->
<g id="edge32" class="edge">
<title>collectCommand&#45;&gt;matches</title>
<path fill="none" stroke="#000000" d="M725.6003,-660.8515C751.3596,-636.2965 784.2361,-595.5121 765.3518,-560.3726 750.1349,-532.0571 720.612,-511.7454 693.9673,-498.2634"/>
<polygon fill="#000000" stroke="#000000" points="695.2173,-494.9802 684.691,-493.7776 692.1699,-501.282 695.2173,-494.9802"/>
</g>
<!-- runner -->
<g id="node18" class="node">
<title>runner</title>
<g id="a_node18"><a xlink:href="runner.md" xlink:title="runner.md">
<polygon fill="#98fb98" stroke="#000000" points="1192.7126,-1192.8581 1192.7126,-1213.1419 1157.3541,-1227.4846 1107.3496,-1227.4846 1071.991,-1213.1419 1071.991,-1192.8581 1107.3496,-1178.5154 1157.3541,-1178.5154 1192.7126,-1192.8581"/>
<polygon fill="none" stroke="#000000" points="1196.7242,-1190.1681 1196.7242,-1215.8319 1158.1391,-1231.4835 1106.5646,-1231.4835 1067.9794,-1215.8319 1067.9794,-1190.1681 1106.5646,-1174.5165 1158.1391,-1174.5165 1196.7242,-1190.1681"/>
<text text-anchor="middle" x="1132.3518" y="-1195.8" font-family="Times,serif" font-size="24.00" fill="#000000">runner</text>
</a>
</g>
</g>
<!-- statictea -->
<g id="node19" class="node">
<title>statictea</title>
<g id="a_node19"><a xlink:href="statictea.md" xlink:title="statictea.md">
<polygon fill="#eee8aa" stroke="#000000" points="884.4476,-1194.3667 967.3518,-1175.0619 1050.2561,-1194.3667 1050.1787,-1225.6024 884.525,-1225.6024 884.4476,-1194.3667"/>
<text text-anchor="middle" x="967.3518" y="-1195.8" font-family="Times,serif" font-size="24.00" fill="#000000">statictea</text>
</a>
</g>
</g>
<!-- statictea&#45;&gt;env -->
<g id="edge118" class="edge">
<title>statictea&#45;&gt;env</title>
<path fill="none" stroke="#000000" d="M927.8194,-1184.14C899.128,-1169.0381 860.7071,-1145.7439 833.3518,-1117.4917 792.7735,-1075.5831 781.7913,-1060.8818 766.3518,-1004.6274 722.9306,-846.4202 871.9877,-673.6724 935.2737,-609.1859"/>
<polygon fill="#000000" stroke="#000000" points="937.9811,-611.4268 942.5476,-601.8666 933.0159,-606.4924 937.9811,-611.4268"/>
</g>
<!-- gethelp -->
<g id="node20" class="node">
<title>gethelp</title>
<g id="a_node20"><a xlink:href="gethelp.md" xlink:title="gethelp.md">
<polygon fill="#98fb98" stroke="#000000" points="398.4867,-1078.8581 398.4867,-1099.1419 359.7458,-1113.4846 304.9579,-1113.4846 266.2169,-1099.1419 266.2169,-1078.8581 304.9579,-1064.5154 359.7458,-1064.5154 398.4867,-1078.8581"/>
<polygon fill="none" stroke="#000000" points="402.4761,-1076.0722 402.4761,-1101.9278 360.459,-1117.4835 304.2447,-1117.4835 262.2276,-1101.9278 262.2276,-1076.0722 304.2447,-1060.5165 360.459,-1060.5165 402.4761,-1076.0722"/>
<text text-anchor="middle" x="332.3518" y="-1081.8" font-family="Times,serif" font-size="24.00" fill="#000000">gethelp</text>
</a>
</g>
</g>
<!-- statictea&#45;&gt;gethelp -->
<g id="edge116" class="edge">
<title>statictea&#45;&gt;gethelp</title>
<path fill="none" stroke="#000000" d="M884.3241,-1194.6492C775.7019,-1182.695 579.9448,-1157.6097 416.3518,-1117.4917 409.3598,-1115.7771 402.1202,-1113.7385 394.9565,-1111.5515"/>
<polygon fill="#000000" stroke="#000000" points="395.8552,-1108.165 385.2655,-1108.4937 393.7489,-1114.8406 395.8552,-1108.165"/>
</g>
<!-- statictea&#45;&gt;args -->
<g id="edge114" class="edge">
<title>statictea&#45;&gt;args</title>
<path fill="none" stroke="#000000" d="M901.5051,-1190.3736C758.1106,-1160.9945 430.3518,-1082.8156 430.3518,-982 430.3518,-982 430.3518,-982 430.3518,-583 430.3518,-515.1992 456.0288,-498.017 502.3518,-448.5083 529.6623,-419.3196 569.0447,-396.1214 598.5825,-381.2943"/>
<polygon fill="#000000" stroke="#000000" points="600.3596,-384.3211 607.799,-376.7774 597.2791,-378.0354 600.3596,-384.3211"/>
</g>
<!-- statictea&#45;&gt;opresultwarn -->
<g id="edge119" class="edge">
<title>statictea&#45;&gt;opresultwarn</title>
<path fill="none" stroke="#000000" d="M1015.606,-1186.193C1029.579,-1181.8361 1044.9505,-1177.5263 1059.3518,-1174.5083 1245.2983,-1135.5404 2758.3518,-1171.9857 2758.3518,-982 2758.3518,-982 2758.3518,-982 2758.3518,-783 2758.3518,-622.5188 2740.5057,-557.1078 2622.3518,-448.5083 2540.3956,-373.1793 2222.6322,-303.065 2066.6796,-272.3384"/>
<polygon fill="#000000" stroke="#000000" points="2067.132,-268.8605 2056.6455,-270.3718 2065.7856,-275.7298 2067.132,-268.8605"/>
</g>
<!-- statictea&#45;&gt;messages -->
<g id="edge115" class="edge">
<title>statictea&#45;&gt;messages</title>
<path fill="none" stroke="#000000" d="M1014.5274,-1185.8186C1028.748,-1181.3422 1044.5216,-1177.0625 1059.3518,-1174.5083 1671.7411,-1069.0355 1844.7455,-1227.4139 2456.3518,-1117.4917 2647.7338,-1083.0952 2872.3518,-1176.4484 2872.3518,-982 2872.3518,-982 2872.3518,-982 2872.3518,-256 2872.3518,-184.6753 2846.9184,-158.1766 2786.3518,-120.5083 2728.3473,-84.4333 2288.1723,-53.1122 2090.2442,-40.693"/>
<polygon fill="#000000" stroke="#000000" points="2090.3417,-37.1924 2080.143,-40.0624 2089.9055,-44.1788 2090.3417,-37.1924"/>
</g>
<!-- statictea&#45;&gt;version -->
<g id="edge117" class="edge">
<title>statictea&#45;&gt;version</title>
<path fill="none" stroke="#000000" d="M1010.3304,-1185.013C1039.7558,-1170.6841 1077.6052,-1147.9681 1101.3518,-1117.4917 1232.9449,-948.6052 1143.7871,-844.3154 1253.3518,-660.3726 1288.6984,-601.0309 1346.0676,-544.9859 1384.7273,-510.8363"/>
<polygon fill="#000000" stroke="#000000" points="1387.4514,-513.104 1392.6783,-503.8882 1382.8452,-507.833 1387.4514,-513.104"/>
</g>
<!-- timer -->
<g id="node29" class="node">
<title>timer</title>
<g id="a_node29"><a xlink:href="timer.md" xlink:title="timer.md">
<polygon fill="#98fb98" stroke="#000000" points="1254.3721,-1078.8581 1254.3721,-1099.1419 1224.4851,-1113.4846 1182.2185,-1113.4846 1152.3316,-1099.1419 1152.3316,-1078.8581 1182.2185,-1064.5154 1224.4851,-1064.5154 1254.3721,-1078.8581"/>
<polygon fill="none" stroke="#000000" points="1258.3728,-1076.3422 1258.3728,-1101.6578 1225.3958,-1117.4835 1181.3079,-1117.4835 1148.3308,-1101.6578 1148.3308,-1076.3422 1181.3079,-1060.5165 1225.3958,-1060.5165 1258.3728,-1076.3422"/>
<text text-anchor="middle" x="1203.3518" y="-1081.8" font-family="Times,serif" font-size="24.00" fill="#000000">timer</text>
</a>
</g>
</g>
<!-- statictea&#45;&gt;timer -->
<g id="edge120" class="edge">
<title>statictea&#45;&gt;timer</title>
<path fill="none" stroke="#000000" d="M1006.5873,-1184.0472C1046.8456,-1164.6004 1109.6147,-1134.2798 1153.3973,-1113.1306"/>
<polygon fill="#000000" stroke="#000000" points="1154.9548,-1116.2652 1162.437,-1108.764 1151.9101,-1109.9621 1154.9548,-1116.2652"/>
</g>
<!-- parseCommandLine -->
<g id="node30" class="node">
<title>parseCommandLine</title>
<g id="a_node30"><a xlink:href="parseCommandLine.md" xlink:title="parseCommandLine.md">
<ellipse fill="#eee8aa" stroke="#000000" cx="253.3518" cy="-477" rx="148.8522" ry="22.7556"/>
<text text-anchor="middle" x="253.3518" y="-469.8" font-family="Times,serif" font-size="24.00" fill="#000000">parseCommandLine</text>
</a>
</g>
</g>
<!-- statictea&#45;&gt;parseCommandLine -->
<g id="edge12" class="edge">
<title>statictea&#45;&gt;parseCommandLine</title>
<path fill="none" stroke="#000000" d="M884.5298,-1198.6931C706.0837,-1188.6246 297.7936,-1161.0478 253.3518,-1117.4917 209.9237,-1074.9291 234.3518,-1042.8078 234.3518,-982 234.3518,-982 234.3518,-982 234.3518,-683 234.3518,-621.6768 242.8037,-550.5174 248.4334,-509.9215"/>
<polygon fill="#000000" stroke="#000000" points="251.93,-510.1914 249.8669,-499.7993 244.9992,-509.2097 251.93,-510.1914"/>
</g>
<!-- processTemplate -->
<g id="node31" class="node">
<title>processTemplate</title>
<g id="a_node31"><a xlink:href="processTemplate.md" xlink:title="processTemplate.md">
<ellipse fill="#eee8aa" stroke="#000000" cx="967.3518" cy="-1089" rx="125.2054" ry="22.7556"/>
<text text-anchor="middle" x="967.3518" y="-1081.8" font-family="Times,serif" font-size="24.00" fill="#000000">processTemplate</text>
</a>
</g>
</g>
<!-- statictea&#45;&gt;processTemplate -->
<g id="edge113" class="edge">
<title>statictea&#45;&gt;processTemplate</title>
<path fill="none" stroke="#000000" d="M967.3518,-1174.8202C967.3518,-1158.9186 967.3518,-1138.9559 967.3518,-1122.2863"/>
<polygon fill="#000000" stroke="#000000" points="970.8519,-1121.8832 967.3518,-1111.8833 963.8519,-1121.8833 970.8519,-1121.8832"/>
</g>
<!-- comparelines -->
<g id="node21" class="node">
<title>comparelines</title>
<g id="a_node21"><a xlink:href="comparelines.md" xlink:title="comparelines.md">
<polygon fill="#98fb98" stroke="#000000" points="1438.688,-1192.8581 1438.688,-1213.1419 1374.0546,-1227.4846 1282.6491,-1227.4846 1218.0156,-1213.1419 1218.0156,-1192.8581 1282.6491,-1178.5154 1374.0546,-1178.5154 1438.688,-1192.8581"/>
<polygon fill="none" stroke="#000000" points="1442.694,-1189.6506 1442.694,-1216.3494 1374.4945,-1231.4835 1282.2092,-1231.4835 1214.0096,-1216.3494 1214.0096,-1189.6506 1282.2092,-1174.5165 1374.4945,-1174.5165 1442.694,-1189.6506"/>
<text text-anchor="middle" x="1328.3518" y="-1195.8" font-family="Times,serif" font-size="24.00" fill="#000000">comparelines</text>
</a>
</g>
</g>
<!-- signatures&#45;&gt;vartypes -->
<g id="edge71" class="edge">
<title>signatures&#45;&gt;vartypes</title>
<path fill="none" stroke="#000000" d="M2435.8354,-568.5941C2349.2642,-548.645 2193.5502,-512.7631 2104.8933,-492.3335"/>
<polygon fill="#000000" stroke="#000000" points="2105.4801,-488.877 2094.9495,-490.0421 2103.9082,-495.6983 2105.4801,-488.877"/>
</g>
<!-- signatures&#45;&gt;messages -->
<g id="edge72" class="edge">
<title>signatures&#45;&gt;messages</title>
<path fill="none" stroke="#000000" d="M2529.3198,-561.9038C2548.1695,-547.7641 2571.5754,-527.7116 2587.3518,-505.4917 2626.8399,-449.8759 2644.3518,-431.2087 2644.3518,-363 2644.3518,-363 2644.3518,-363 2644.3518,-256 2644.3518,-140.3361 2270.7589,-73.0267 2090.0357,-47.2328"/>
<polygon fill="#000000" stroke="#000000" points="2090.3877,-43.7479 2079.9964,-45.8144 2089.4083,-50.679 2090.3877,-43.7479"/>
</g>
<!-- args&#45;&gt;warnings -->
<g id="edge3" class="edge">
<title>args&#45;&gt;warnings</title>
<path fill="none" stroke="#000000" d="M643.1976,-340.3168C649.5744,-310.3895 665.3955,-258.569 701.3518,-233.3726 764.1405,-189.3734 1275.0324,-161.8433 1478.3415,-152.5363"/>
<polygon fill="#000000" stroke="#000000" points="1478.5408,-156.031 1488.3715,-152.0805 1478.2229,-149.0382 1478.5408,-156.031"/>
</g>
<!-- args&#45;&gt;opresultwarn -->
<g id="edge6" class="edge">
<title>args&#45;&gt;opresultwarn</title>
<path fill="none" stroke="#000000" d="M671.9018,-350.0157C687.7687,-344.2577 707.2848,-338.0058 725.3518,-334.5083 943.1592,-292.3436 1606.5278,-267.6193 1869.8992,-259.2402"/>
<polygon fill="#000000" stroke="#000000" points="1870.3545,-262.7277 1880.2388,-258.9132 1870.1331,-255.7312 1870.3545,-262.7277"/>
</g>
<!-- args&#45;&gt;messages -->
<g id="edge1" class="edge">
<title>args&#45;&gt;messages</title>
<path fill="none" stroke="#000000" d="M635.9452,-340.1769C633.014,-311.0649 632.982,-261.1699 661.3518,-233.3726 750.0234,-146.4903 1607.8444,-67.3234 1898.5644,-42.7935"/>
<polygon fill="#000000" stroke="#000000" points="1898.9934,-46.2699 1908.6648,-41.9441 1898.4066,-39.2945 1898.9934,-46.2699"/>
</g>
<!-- opresultwarn&#45;&gt;warnings -->
<g id="edge4" class="edge">
<title>opresultwarn&#45;&gt;warnings</title>
<path fill="none" stroke="#000000" d="M1913.1185,-239.0455C1834.9686,-219.0407 1705.8049,-185.9772 1627.6338,-165.9669"/>
<polygon fill="#000000" stroke="#000000" points="1628.4472,-162.5623 1617.8915,-163.4731 1626.7112,-169.3437 1628.4472,-162.5623"/>
</g>
<!-- opresultwarn&#45;&gt;opresult -->
<g id="edge5" class="edge">
<title>opresultwarn&#45;&gt;opresult</title>
<path fill="none" stroke="#000000" d="M1982.745,-233.3081C1984.7127,-220.1494 1987.2443,-203.219 1989.5221,-187.9866"/>
<polygon fill="#000000" stroke="#000000" points="1993.0309,-188.1873 1991.0483,-177.7796 1986.1079,-187.152 1993.0309,-188.1873"/>
</g>
<!-- matches&#45;&gt;regexes -->
<g id="edge22" class="edge">
<title>matches&#45;&gt;regexes</title>
<path fill="none" stroke="#000000" d="M669.2081,-456.6191C694.5688,-439.307 731.3785,-414.1794 760.4787,-394.3146"/>
<polygon fill="#000000" stroke="#000000" points="762.5668,-397.127 768.8526,-388.5983 758.6202,-391.3456 762.5668,-397.127"/>
</g>
<!-- matches&#45;&gt;args -->
<g id="edge21" class="edge">
<title>matches&#45;&gt;args</title>
<path fill="none" stroke="#000000" d="M639.3518,-454.2044C639.3518,-437.5059 639.3518,-414.5924 639.3518,-395.9101"/>
<polygon fill="#000000" stroke="#000000" points="642.8519,-395.7561 639.3518,-385.7561 635.8519,-395.7561 642.8519,-395.7561"/>
</g>
<!-- readjson -->
<g id="node28" class="node">
<title>readjson</title>
<g id="a_node28"><a xlink:href="readjson.md" xlink:title="readjson.md">
<ellipse fill="#eee8aa" stroke="#000000" cx="2369.3518" cy="-683" rx="68.6102" ry="22.7556"/>
<text text-anchor="middle" x="2369.3518" y="-675.8" font-family="Times,serif" font-size="24.00" fill="#000000">readjson</text>
</a>
</g>
</g>
<!-- readjson&#45;&gt;unicodes -->
<g id="edge89" class="edge">
<title>readjson&#45;&gt;unicodes</title>
<path fill="none" stroke="#000000" d="M2351.8192,-660.8068C2340.7731,-646.8244 2326.3664,-628.5881 2314.2772,-613.2853"/>
<polygon fill="#000000" stroke="#000000" points="2316.7809,-610.8084 2307.8355,-605.1312 2311.2881,-615.1477 2316.7809,-610.8084"/>
</g>
<!-- readjson&#45;&gt;vartypes -->
<g id="edge87" class="edge">
<title>readjson&#45;&gt;vartypes</title>
<path fill="none" stroke="#000000" d="M2317.3019,-667.9358C2276.9748,-654.9282 2220.6917,-633.7839 2176.3518,-605.6274 2132.6307,-577.8639 2090.2678,-535.3206 2064.2674,-506.8501"/>
<polygon fill="#000000" stroke="#000000" points="2066.6779,-504.297 2057.3803,-499.2171 2061.4808,-508.9863 2066.6779,-504.297"/>
</g>
<!-- readjson&#45;&gt;utf8decoder -->
<g id="edge90" class="edge">
<title>readjson&#45;&gt;utf8decoder</title>
<path fill="none" stroke="#000000" d="M2374.2356,-660.3575C2380.2608,-635.0111 2391.8981,-593.1935 2409.3518,-560.3726 2418.0683,-543.9818 2430.0441,-527.5278 2441.343,-513.6194"/>
<polygon fill="#000000" stroke="#000000" points="2444.1879,-515.6722 2447.8876,-505.7443 2438.8043,-511.1981 2444.1879,-515.6722"/>
</g>
<!-- readjson&#45;&gt;opresultwarn -->
<g id="edge91" class="edge">
<title>readjson&#45;&gt;opresultwarn</title>
<path fill="none" stroke="#000000" d="M2316.3045,-668.5751C2281.7484,-656.7393 2237.9355,-636.7701 2209.3518,-605.6274 2158.8072,-550.5576 2179.9124,-516.7248 2149.3518,-448.5083 2126.0274,-396.444 2127.8148,-377.5343 2090.3518,-334.5083 2072.4377,-313.934 2048.0744,-295.9351 2026.7365,-282.3797"/>
<polygon fill="#000000" stroke="#000000" points="2028.4574,-279.3286 2018.1139,-277.0348 2024.7693,-285.2783 2028.4574,-279.3286"/>
</g>
<!-- readjson&#45;&gt;messages -->
<g id="edge88" class="edge">
<title>readjson&#45;&gt;messages</title>
<path fill="none" stroke="#000000" d="M2429.331,-671.7712C2520.2158,-650.8968 2682.3518,-596.8606 2682.3518,-477 2682.3518,-477 2682.3518,-477 2682.3518,-256 2682.3518,-228.4569 2801.5383,-248.0758 2528.3518,-120.5083 2452.3325,-85.0102 2222.1974,-57.4016 2090.1792,-43.9677"/>
<polygon fill="#000000" stroke="#000000" points="2090.3664,-40.4689 2080.0654,-42.9467 2089.6632,-47.4335 2090.3664,-40.4689"/>
</g>
<!-- parseCommandLine&#45;&gt;regexes -->
<g id="edge10" class="edge">
<title>parseCommandLine&#45;&gt;regexes</title>
<path fill="none" stroke="#000000" d="M347.9768,-459.4991C436.0496,-442.9395 570.8655,-416.9011 687.3518,-391.4917 701.8548,-388.3282 717.3063,-384.7689 732.108,-381.2657"/>
<polygon fill="#000000" stroke="#000000" points="733.3147,-384.5763 742.2318,-378.8549 731.693,-377.7667 733.3147,-384.5763"/>
</g>
<!-- parseCommandLine&#45;&gt;cmdline -->
<g id="edge11" class="edge">
<title>parseCommandLine&#45;&gt;cmdline</title>
<path fill="none" stroke="#000000" d="M273.7013,-454.4773C287.9625,-438.6931 307.3284,-417.2589 323.7297,-399.1061"/>
<polygon fill="#000000" stroke="#000000" points="326.4467,-401.3197 330.5537,-391.5533 321.2526,-396.6269 326.4467,-401.3197"/>
</g>
<!-- parseCommandLine&#45;&gt;warnings -->
<g id="edge9" class="edge">
<title>parseCommandLine&#45;&gt;warnings</title>
<path fill="none" stroke="#000000" d="M306.6946,-455.8392C344.8612,-439.9301 396.9493,-416.6288 440.3518,-391.4917 544.8626,-330.9632 548.204,-275.6074 661.3518,-233.3726 809.8561,-177.9402 1284.4058,-157.4541 1477.9625,-151.2787"/>
<polygon fill="#000000" stroke="#000000" points="1478.1937,-154.7733 1488.0788,-150.9608 1477.9738,-147.7767 1478.1937,-154.7733"/>
</g>
<!-- parseCommandLine&#45;&gt;args -->
<g id="edge7" class="edge">
<title>parseCommandLine&#45;&gt;args</title>
<path fill="none" stroke="#000000" d="M323.8098,-457.0333C383.6526,-439.9657 471.7704,-414.5764 548.3518,-391.4917 563.5484,-386.9109 580.1259,-381.765 594.9186,-377.1198"/>
<polygon fill="#000000" stroke="#000000" points="596.3487,-380.3389 604.8357,-373.9969 594.2461,-373.6622 596.3487,-380.3389"/>
</g>
<!-- parseCommandLine&#45;&gt;messages -->
<g id="edge8" class="edge">
<title>parseCommandLine&#45;&gt;messages</title>
<path fill="none" stroke="#000000" d="M251.2912,-454.3428C249.6787,-424.7402 250.6075,-372.2415 272.3518,-334.5083 350.0278,-199.7162 403.668,-175.0858 549.3518,-120.5083 674.969,-73.4483 1596.2062,-45.407 1898.5362,-37.3954"/>
<polygon fill="#000000" stroke="#000000" points="1898.6919,-40.8926 1908.5962,-37.1301 1898.5074,-33.895 1898.6919,-40.8926"/>
</g>
<!-- processTemplate&#45;&gt;runFunction -->
<g id="edge112" class="edge">
<title>processTemplate&#45;&gt;runFunction</title>
<path fill="none" stroke="#000000" d="M1057.3757,-1073.1741C1083.7506,-1068.785 1112.6692,-1064.2127 1139.3518,-1060.5083 1359.9583,-1029.8808 1427.1266,-1078.1844 1637.3518,-1004.6274 1762.6022,-960.8028 1887.245,-860.7892 1943.8328,-811.5131"/>
<polygon fill="#000000" stroke="#000000" points="1946.1517,-814.1348 1951.3589,-804.9079 1941.5343,-808.8736 1946.1517,-814.1348"/>
</g>
<!-- processTemplate&#45;&gt;parseCmdLine -->
<g id="edge30" class="edge">
<title>processTemplate&#45;&gt;parseCmdLine</title>
<path fill="none" stroke="#000000" d="M927.3371,-1067.4462C839.9219,-1017.669 634.0789,-885.0947 563.3518,-705.6274 555.9773,-686.9149 555.3859,-678.8411 563.3518,-660.3726 571.7354,-640.9355 587.67,-624.1125 603.2795,-611.1638"/>
<polygon fill="#000000" stroke="#000000" points="605.7069,-613.706 611.3709,-604.7523 601.3595,-608.2196 605.7069,-613.706"/>
</g>
<!-- processTemplate&#45;&gt;env -->
<g id="edge20" class="edge">
<title>processTemplate&#45;&gt;env</title>
<path fill="none" stroke="#000000" d="M950.7439,-1066.4981C939.4266,-1050.1193 924.9831,-1026.9815 916.3518,-1004.6274 896.3481,-952.8201 892.3518,-937.5351 892.3518,-882 892.3518,-882 892.3518,-882 892.3518,-783 892.3518,-719.9209 923.7561,-651.6162 944.4954,-613.3854"/>
<polygon fill="#000000" stroke="#000000" points="947.7252,-614.7781 949.5127,-604.3351 941.603,-611.384 947.7252,-614.7781"/>
</g>
<!-- processTemplate&#45;&gt;variables -->
<g id="edge97" class="edge">
<title>processTemplate&#45;&gt;variables</title>
<path fill="none" stroke="#000000" d="M995.3329,-1066.6918C1047.0734,-1025.4921 1161.2854,-934.7863 1258.3518,-859.3726 1347.1671,-790.3694 1372.8501,-777.5096 1459.3518,-705.6274 1496.517,-674.7435 1537.4925,-637.3046 1564.6522,-611.9817"/>
<polygon fill="#000000" stroke="#000000" points="1567.3604,-614.2412 1572.2744,-604.8548 1562.5795,-609.1281 1567.3604,-614.2412"/>
</g>
<!-- processTemplate&#45;&gt;vartypes -->
<g id="edge98" class="edge">
<title>processTemplate&#45;&gt;vartypes</title>
<path fill="none" stroke="#000000" d="M1056.4596,-1073.1158C1083.0717,-1068.6759 1112.3472,-1064.0909 1139.3518,-1060.5083 1375.4977,-1029.1795 2196.3518,-1120.215 2196.3518,-882 2196.3518,-882 2196.3518,-882 2196.3518,-783 2196.3518,-752.8881 2098.508,-580.6733 2056.8135,-508.654"/>
<polygon fill="#000000" stroke="#000000" points="2059.5961,-506.4754 2051.5511,-499.5813 2053.5409,-509.9876 2059.5961,-506.4754"/>
</g>
<!-- processTemplate&#45;&gt;codefile -->
<g id="edge111" class="edge">
<title>processTemplate&#45;&gt;codefile</title>
<path fill="none" stroke="#000000" d="M1056.257,-1073.0388C1176.1866,-1051.5079 1387.1957,-1013.6253 1495.3077,-994.216"/>
<polygon fill="#000000" stroke="#000000" points="1496.2183,-997.6085 1505.4424,-992.3965 1494.9813,-990.7187 1496.2183,-997.6085"/>
</g>
<!-- processTemplate&#45;&gt;replacement -->
<g id="edge100" class="edge">
<title>processTemplate&#45;&gt;replacement</title>
<path fill="none" stroke="#000000" d="M976.6925,-1066.2795C1001.7077,-1007.9526 1075.6381,-851.1595 1182.3518,-760.3726 1212.2601,-734.928 1251.8716,-716.4387 1285.7442,-703.9279"/>
<polygon fill="#000000" stroke="#000000" points="1287.3606,-707.0666 1295.5925,-700.3969 1284.998,-700.4774 1287.3606,-707.0666"/>
</g>
<!-- processTemplate&#45;&gt;readlines -->
<g id="edge24" class="edge">
<title>processTemplate&#45;&gt;readlines</title>
<path fill="none" stroke="#000000" d="M968.9177,-1066.2771C972.6331,-1012.8785 982.4166,-875.2384 992.3518,-760.3726 998.3062,-691.5316 1004.0146,-674.6448 1007.3518,-605.6274 1008.3232,-585.5376 1015.1927,-578.8946 1007.3518,-560.3726 999.2059,-541.1301 984.2048,-524.1484 968.9852,-510.6175"/>
<polygon fill="#000000" stroke="#000000" points="970.9269,-507.6742 961.0415,-503.8625 966.3922,-513.0069 970.9269,-507.6742"/>
</g>
<!-- processTemplate&#45;&gt;collectCommand -->
<g id="edge37" class="edge">
<title>processTemplate&#45;&gt;collectCommand</title>
<path fill="none" stroke="#000000" d="M939.9438,-1066.8891C921.1753,-1050.8726 896.496,-1028.0075 878.3518,-1004.6274 803.1989,-907.7876 740.1703,-775.4935 713.2913,-715.2481"/>
<polygon fill="#000000" stroke="#000000" points="716.3905,-713.6026 709.1425,-705.8749 709.9895,-716.4358 716.3905,-713.6026"/>
</g>
<!-- processTemplate&#45;&gt;args -->
<g id="edge13" class="edge">
<title>processTemplate&#45;&gt;args</title>
<path fill="none" stroke="#000000" d="M876.6073,-1073.4114C821.9934,-1060.9952 752.9077,-1039.7081 699.3518,-1004.6274 567.0413,-917.9602 544.073,-859.2321 506.3518,-705.6274 478.9013,-593.8459 474.6707,-545.047 537.3518,-448.5083 554.2375,-422.5016 581.4462,-400.265 603.5164,-384.9916"/>
<polygon fill="#000000" stroke="#000000" points="605.6549,-387.7713 611.9977,-379.2849 601.7471,-381.9637 605.6549,-387.7713"/>
</g>
<!-- processTemplate&#45;&gt;opresultwarn -->
<g id="edge101" class="edge">
<title>processTemplate&#45;&gt;opresultwarn</title>
<path fill="none" stroke="#000000" d="M1054.1474,-1072.6464C1081.3383,-1068.0556 1111.5147,-1063.5047 1139.3518,-1060.5083 1630.4728,-1007.6427 1762.9949,-1090.9496 2249.3518,-1004.6274 2430.344,-972.5036 2644.3518,-1065.8209 2644.3518,-882 2644.3518,-882 2644.3518,-882 2644.3518,-683 2644.3518,-575.7466 2665.3891,-522.0845 2587.3518,-448.5083 2484.1512,-351.2071 2400.0978,-455.1578 2273.3518,-391.4917 2240.1992,-374.8388 2244.2075,-353.5249 2212.3518,-334.5083 2165.5587,-306.5745 2107.4886,-286.9766 2061.0272,-274.3476"/>
<polygon fill="#000000" stroke="#000000" points="2061.8611,-270.9478 2051.2973,-271.758 2060.0606,-277.7123 2061.8611,-270.9478"/>
</g>
<!-- processTemplate&#45;&gt;messages -->
<g id="edge14" class="edge">
<title>processTemplate&#45;&gt;messages</title>
<path fill="none" stroke="#000000" d="M884.3652,-1072.0128C800.7413,-1054.1783 678.0043,-1025.8352 634.3518,-1004.6274 304.6148,-844.4308 .3518,-843.5917 .3518,-477 .3518,-477 .3518,-477 .3518,-256 .3518,-192.5471 -5.2774,-158.7569 45.3518,-120.5083 119.9601,-64.1443 1516.5171,-41.3897 1898.4913,-36.205"/>
<polygon fill="#000000" stroke="#000000" points="1898.7304,-39.7022 1908.6823,-36.0676 1898.636,-32.7028 1898.7304,-39.7022"/>
</g>
<!-- processTemplate&#45;&gt;matches -->
<g id="edge23" class="edge">
<title>processTemplate&#45;&gt;matches</title>
<path fill="none" stroke="#000000" d="M905.1959,-1069.3608C863.9832,-1054.8236 809.7175,-1032.7003 766.3518,-1004.6274 666.2399,-939.8198 640.6316,-911.8165 586.3518,-805.6274 535.2283,-705.6131 474.515,-660.5329 525.3518,-560.3726 538.8331,-533.8113 565.1905,-513.6844 589.1679,-499.8664"/>
<polygon fill="#000000" stroke="#000000" points="591.1435,-502.7739 598.2092,-494.8792 587.7625,-496.6446 591.1435,-502.7739"/>
</g>
<!-- processTemplate&#45;&gt;readjson -->
<g id="edge99" class="edge">
<title>processTemplate&#45;&gt;readjson</title>
<path fill="none" stroke="#000000" d="M1054.1508,-1072.6775C1081.3418,-1068.0881 1111.5175,-1063.5302 1139.3518,-1060.5083 1257.8176,-1047.6467 2109.0854,-1067.434 2210.3518,-1004.6274 2314.6128,-939.9635 2352.5607,-784.4136 2364.5185,-716.1087"/>
<polygon fill="#000000" stroke="#000000" points="2368.0245,-716.3627 2366.2206,-705.9226 2361.1202,-715.2089 2368.0245,-716.3627"/>
</g>
<!-- processTemplate&#45;&gt;runCommand -->
<g id="edge96" class="edge">
<title>processTemplate&#45;&gt;runCommand</title>
<path fill="none" stroke="#000000" d="M1020.1079,-1068.3953C1119.1305,-1029.7204 1332.2576,-946.4802 1436.8922,-905.6135"/>
<polygon fill="#000000" stroke="#000000" points="1438.3264,-908.8109 1446.3679,-901.9126 1435.7798,-902.2905 1438.3264,-908.8109"/>
</g>
<!-- runCommand&#45;&gt;runFunction -->
<g id="edge86" class="edge">
<title>runCommand&#45;&gt;runFunction</title>
<path fill="none" stroke="#000000" d="M1573.0923,-866.3132C1660.6313,-848.1827 1804.1438,-818.4594 1893.9961,-799.8498"/>
<polygon fill="#000000" stroke="#000000" points="1894.7868,-803.2604 1903.8691,-797.805 1893.3671,-796.4059 1894.7868,-803.2604"/>
</g>
<!-- runCommand&#45;&gt;parseNumber -->
<g id="edge49" class="edge">
<title>runCommand&#45;&gt;parseNumber</title>
<path fill="none" stroke="#000000" d="M1559.3923,-863.6527C1604.6956,-849.5599 1667.222,-828.6557 1720.3518,-805.6274 1787.1377,-776.6802 1860.8654,-735.899 1906.6504,-709.457"/>
<polygon fill="#000000" stroke="#000000" points="1908.5306,-712.4126 1915.4245,-704.3675 1905.0183,-706.3576 1908.5306,-712.4126"/>
</g>
<!-- runCommand&#45;&gt;regexes -->
<g id="edge40" class="edge">
<title>runCommand&#45;&gt;regexes</title>
<path fill="none" stroke="#000000" d="M1466.0672,-860.2642C1401.8355,-815.5183 1260.4799,-716.3839 1253.3518,-705.6274 1188.5863,-607.8939 1277.6143,-531.0539 1194.3518,-448.5083 1151.966,-406.4874 989.578,-382.2034 888.8009,-370.8787"/>
<polygon fill="#000000" stroke="#000000" points="888.9668,-367.3758 878.6431,-369.7575 888.1988,-374.3335 888.9668,-367.3758"/>
</g>
<!-- runCommand&#45;&gt;env -->
<g id="edge41" class="edge">
<title>runCommand&#45;&gt;env</title>
<path fill="none" stroke="#000000" d="M1437.8427,-863.2237C1397.0471,-849.4345 1342.2225,-829.0732 1296.3518,-805.6274 1178.014,-745.1417 1050.6314,-651.2242 993.3536,-607.2532"/>
<polygon fill="#000000" stroke="#000000" points="995.1541,-604.2218 985.0975,-600.8876 990.8798,-609.7654 995.1541,-604.2218"/>
</g>
<!-- runCommand&#45;&gt;unicodes -->
<g id="edge95" class="edge">
<title>runCommand&#45;&gt;unicodes</title>
<path fill="none" stroke="#000000" d="M1596.9521,-875.0077C1739.3417,-863.9796 1993.2876,-840.1869 2078.3518,-805.6274 2147.1982,-777.6568 2161.8015,-760.0961 2212.3518,-705.6274 2238.0329,-677.9557 2260.3396,-640.7402 2274.4436,-614.5899"/>
<polygon fill="#000000" stroke="#000000" points="2277.6733,-615.9698 2279.2597,-605.4944 2271.487,-612.6941 2277.6733,-615.9698"/>
</g>
<!-- runCommand&#45;&gt;variables -->
<g id="edge56" class="edge">
<title>runCommand&#45;&gt;variables</title>
<path fill="none" stroke="#000000" d="M1525.1723,-859.8994C1540.5625,-846.0352 1558.514,-826.808 1568.3518,-805.6274 1597.3526,-743.1894 1599.1721,-660.7916 1597.5235,-615.796"/>
<polygon fill="#000000" stroke="#000000" points="1601.0165,-615.5583 1597.0724,-605.725 1594.0235,-615.8717 1601.0165,-615.5583"/>
</g>
<!-- runCommand&#45;&gt;vartypes -->
<g id="edge45" class="edge">
<title>runCommand&#45;&gt;vartypes</title>
<path fill="none" stroke="#000000" d="M1561.629,-863.9553C1599.1284,-851.439 1646.0433,-832.2072 1682.3518,-805.6274 1703.5439,-790.1137 1702.0557,-779.2148 1720.3518,-760.3726 1817.5227,-660.3017 1944.1442,-553.8535 2004.0607,-504.756"/>
<polygon fill="#000000" stroke="#000000" points="2006.535,-507.2541 2012.0625,-498.2154 2002.1048,-501.8343 2006.535,-507.2541"/>
</g>
<!-- runCommand&#45;&gt;readlines -->
<g id="edge38" class="edge">
<title>runCommand&#45;&gt;readlines</title>
<path fill="none" stroke="#000000" d="M1445.827,-862.265C1412.738,-848.5446 1369.5306,-828.6312 1334.3518,-805.6274 1306.1478,-787.1845 1242.976,-730.6025 1220.3518,-705.6274 1193.699,-676.2051 1147.3026,-585.2342 1116.3518,-560.3726 1095.6978,-543.782 1036.6455,-519.4984 988.8915,-501.4133"/>
<polygon fill="#000000" stroke="#000000" points="990.098,-498.1278 979.506,-497.8831 987.6336,-504.6797 990.098,-498.1278"/>
</g>
<!-- runCommand&#45;&gt;warnings -->
<g id="edge47" class="edge">
<title>runCommand&#45;&gt;warnings</title>
<path fill="none" stroke="#000000" d="M1502.9811,-859.3585C1510.9625,-825.9743 1525.1734,-761.4607 1530.3518,-705.6274 1532.2093,-685.6001 1533.3683,-680.2584 1530.3518,-660.3726 1523.5906,-615.8004 1494.8409,-601.4791 1513.3518,-560.3726 1528.4621,-526.8177 1560.2415,-539.0467 1575.3518,-505.4917 1585.7508,-482.3992 1575.9433,-473.8273 1575.3518,-448.5083 1573.0897,-351.6641 1566.7184,-237.3498 1563.4075,-182.1393"/>
<polygon fill="#000000" stroke="#000000" points="1566.8861,-181.6782 1562.7882,-171.908 1559.8989,-182.1012 1566.8861,-181.6782"/>
</g>
<!-- runCommand&#45;&gt;collectCommand -->
<g id="edge93" class="edge">
<title>runCommand&#45;&gt;collectCommand</title>
<path fill="none" stroke="#000000" d="M1408.2297,-869.9778C1320.8997,-857.2981 1184.3905,-835.0729 1068.3518,-805.6274 959.0765,-777.8982 835.3405,-734.1618 762.5142,-707.1033"/>
<polygon fill="#000000" stroke="#000000" points="763.6114,-703.777 753.0187,-703.5625 761.1656,-710.3359 763.6114,-703.777"/>
</g>
<!-- runCommand&#45;&gt;opresultwarn -->
<g id="edge94" class="edge">
<title>runCommand&#45;&gt;opresultwarn</title>
<path fill="none" stroke="#000000" d="M1527.1168,-860.0043C1546.0307,-845.4483 1570.5849,-825.4525 1590.3518,-805.6274 1756.7197,-638.7694 1803.1742,-595.3395 1921.3518,-391.4917 1940.7823,-357.9757 1957.517,-316.7108 1967.9481,-288.5864"/>
<polygon fill="#000000" stroke="#000000" points="1971.358,-289.452 1971.4993,-278.8581 1964.7824,-287.0516 1971.358,-289.452"/>
</g>
<!-- runCommand&#45;&gt;messages -->
<g id="edge46" class="edge">
<title>runCommand&#45;&gt;messages</title>
<path fill="none" stroke="#000000" d="M1601.732,-880.2138C1910.2304,-872.1391 2796.3518,-827.6522 2796.3518,-583 2796.3518,-583 2796.3518,-583 2796.3518,-256 2796.3518,-174.9671 2746.1744,-158.0295 2674.3518,-120.5083 2574.8625,-68.5335 2252.6571,-46.7238 2090.0648,-38.8472"/>
<polygon fill="#000000" stroke="#000000" points="2090.2209,-35.3508 2080.0656,-38.3706 2089.8876,-42.3428 2090.2209,-35.3508"/>
</g>
<!-- runCommand&#45;&gt;matches -->
<g id="edge39" class="edge">
<title>runCommand&#45;&gt;matches</title>
<path fill="none" stroke="#000000" d="M1422.5743,-866.1554C1365.3652,-852.9508 1285.0593,-832.0575 1217.3518,-805.6274 1010.6015,-724.921 973.3722,-673.379 782.3518,-560.3726 748.7628,-540.5016 710.569,-518.2511 682.108,-501.7376"/>
<polygon fill="#000000" stroke="#000000" points="683.6342,-498.5767 673.2277,-496.588 680.1226,-504.6322 683.6342,-498.5767"/>
</g>
<!-- runCommand&#45;&gt;readjson -->
<g id="edge92" class="edge">
<title>runCommand&#45;&gt;readjson</title>
<path fill="none" stroke="#000000" d="M1599.4179,-876.9562C1799.4296,-866.3735 2228.5649,-839.9639 2286.3518,-805.6274 2320.9012,-785.0985 2344.2058,-743.9138 2357.1155,-714.9559"/>
<polygon fill="#000000" stroke="#000000" points="2360.3805,-716.2222 2361.0963,-705.6516 2353.9448,-713.4687 2360.3805,-716.2222"/>
</g>
</g>
</svg>
