<?xml version="1.0" encoding="UTF-8" standalone="no"?>
<!DOCTYPE svg PUBLIC "-//W3C//DTD SVG 1.1//EN"
 "http://www.w3.org/Graphics/SVG/1.1/DTD/svg11.dtd">
<!-- Generated by graphviz version 2.40.1 (20161225.0304)
 -->
<!-- Title: statictea Pages: 1 -->
<svg width="635pt" height="1324pt"
 viewBox="0.00 0.00 634.97 1323.98" xmlns="http://www.w3.org/2000/svg" xmlns:xlink="http://www.w3.org/1999/xlink">
<g id="graph0" class="graph" transform="scale(1 1) rotate(0) translate(4 1319.9835)">
<title>statictea</title>
<polygon fill="#ffffff" stroke="transparent" points="-4,4 -4,-1319.9835 630.9693,-1319.9835 630.9693,4 -4,4"/>
<!-- strutils -->
<g id="node1" class="node">
<title>strutils</title>
<ellipse fill="none" stroke="#000000" cx="87.6672" cy="-795.4917" rx="57.5374" ry="22.7556"/>
<text text-anchor="middle" x="87.6672" y="-788.2917" font-family="Times,serif" font-size="24.00" fill="#000000">strutils</text>
</g>
<!-- statictea -->
<g id="node2" class="node">
<title>statictea</title>
<ellipse fill="none" stroke="#000000" cx="545.1518" cy="-693.4917" rx="39.154" ry="18"/>
<text text-anchor="middle" x="545.1518" y="-689.2917" font-family="Times,serif" font-size="14.00" fill="#000000">statictea</text>
</g>
<!-- strutils&#45;&gt;statictea -->
<g id="edge1" class="edge">
<title>strutils&#45;&gt;statictea</title>
<path fill="none" stroke="#000000" d="M137.9347,-784.2842C227.5994,-764.2927 413.7706,-722.7843 499.7811,-703.6075"/>
<polygon fill="#000000" stroke="#000000" points="500.7618,-706.9749 509.7604,-701.3825 499.2384,-700.1426 500.7618,-706.9749"/>
</g>
<!-- args -->
<g id="node7" class="node">
<title>args</title>
<ellipse fill="none" stroke="#000000" cx="545.1518" cy="-855.4917" rx="27" ry="18"/>
<text text-anchor="middle" x="545.1518" y="-851.2917" font-family="Times,serif" font-size="14.00" fill="#000000">args</text>
</g>
<!-- strutils&#45;&gt;args -->
<g id="edge5" class="edge">
<title>strutils&#45;&gt;args</title>
<path fill="none" stroke="#000000" d="M142.3961,-802.6695C236.9329,-815.0682 428.3808,-840.177 508.5463,-850.6909"/>
<polygon fill="#000000" stroke="#000000" points="508.2821,-854.1861 518.6523,-852.0163 509.1924,-847.2455 508.2821,-854.1861"/>
</g>
<!-- warnings -->
<g id="node8" class="node">
<title>warnings</title>
<ellipse fill="none" stroke="#000000" cx="545.1518" cy="-963.4917" rx="42.5542" ry="18"/>
<text text-anchor="middle" x="545.1518" y="-959.2917" font-family="Times,serif" font-size="14.00" fill="#000000">warnings</text>
</g>
<!-- strutils&#45;&gt;warnings -->
<g id="edge6" class="edge">
<title>strutils&#45;&gt;warnings</title>
<path fill="none" stroke="#000000" d="M128.6047,-811.4753C197.4243,-838.2057 340.8036,-893.2989 463.3343,-936.4917 475.6901,-940.8472 489.1684,-945.3829 501.5548,-949.4656"/>
<polygon fill="#000000" stroke="#000000" points="500.6193,-952.8421 511.212,-952.6307 502.7994,-946.1903 500.6193,-952.8421"/>
</g>
<!-- cmdline -->
<g id="node11" class="node">
<title>cmdline</title>
<ellipse fill="none" stroke="#000000" cx="545.1518" cy="-801.4917" rx="38.6869" ry="18"/>
<text text-anchor="middle" x="545.1518" y="-797.2917" font-family="Times,serif" font-size="14.00" fill="#000000">cmdline</text>
</g>
<!-- strutils&#45;&gt;cmdline -->
<g id="edge12" class="edge">
<title>strutils&#45;&gt;cmdline</title>
<path fill="none" stroke="#000000" d="M145.6079,-796.2516C236.5463,-797.4443 411.1627,-799.7344 496.2021,-800.8498"/>
<polygon fill="#000000" stroke="#000000" points="496.3177,-804.3515 506.3627,-800.983 496.4095,-797.3521 496.3177,-804.3515"/>
</g>
<!-- processTemplate -->
<g id="node13" class="node">
<title>processTemplate</title>
<ellipse fill="none" stroke="#000000" cx="545.1518" cy="-639.4917" rx="69.306" ry="18"/>
<text text-anchor="middle" x="545.1518" y="-635.2917" font-family="Times,serif" font-size="14.00" fill="#000000">processTemplate</text>
</g>
<!-- strutils&#45;&gt;processTemplate -->
<g id="edge17" class="edge">
<title>strutils&#45;&gt;processTemplate</title>
<path fill="none" stroke="#000000" d="M130.994,-780.4245C200.8543,-756.1728 342.7572,-707.0879 463.3343,-666.4917 472.6905,-663.3417 482.6605,-660.0213 492.3061,-656.8277"/>
<polygon fill="#000000" stroke="#000000" points="493.412,-660.1485 501.8087,-653.6874 491.2155,-653.502 493.412,-660.1485"/>
</g>
<!-- env -->
<g id="node14" class="node">
<title>env</title>
<ellipse fill="none" stroke="#000000" cx="545.1518" cy="-207.4917" rx="27" ry="18"/>
<text text-anchor="middle" x="545.1518" y="-203.2917" font-family="Times,serif" font-size="14.00" fill="#000000">env</text>
</g>
<!-- strutils&#45;&gt;env -->
<g id="edge22" class="edge">
<title>strutils&#45;&gt;env</title>
<path fill="none" stroke="#000000" d="M133.3371,-781.6911C147.9609,-775.6636 163.4303,-767.4181 175.3343,-756.4917 370.5391,-577.3184 259.4333,-403.7028 463.3343,-234.4917 476.0535,-223.9365 493.0361,-217.4629 508.2319,-213.514"/>
<polygon fill="#000000" stroke="#000000" points="509.438,-216.8275 518.3923,-211.1643 507.8608,-210.0075 509.438,-216.8275"/>
</g>
<!-- tempFile -->
<g id="node16" class="node">
<title>tempFile</title>
<ellipse fill="none" stroke="#000000" cx="545.1518" cy="-423.4917" rx="41.5938" ry="18"/>
<text text-anchor="middle" x="545.1518" y="-419.2917" font-family="Times,serif" font-size="14.00" fill="#000000">tempFile</text>
</g>
<!-- strutils&#45;&gt;tempFile -->
<g id="edge25" class="edge">
<title>strutils&#45;&gt;tempFile</title>
<path fill="none" stroke="#000000" d="M130.9668,-780.2467C145.7269,-774.0301 161.8848,-766.0354 175.3343,-756.4917 327.6462,-648.4127 305.8198,-550.8371 463.3343,-450.4917 473.88,-443.7735 486.2626,-438.5639 498.1579,-434.594"/>
<polygon fill="#000000" stroke="#000000" points="499.4708,-437.8513 507.9843,-431.5449 497.3962,-431.1657 499.4708,-437.8513"/>
</g>
<!-- matches -->
<g id="node19" class="node">
<title>matches</title>
<ellipse fill="none" stroke="#000000" cx="545.1518" cy="-1179.4917" rx="39.1627" ry="18"/>
<text text-anchor="middle" x="545.1518" y="-1175.2917" font-family="Times,serif" font-size="14.00" fill="#000000">matches</text>
</g>
<!-- strutils&#45;&gt;matches -->
<g id="edge30" class="edge">
<title>strutils&#45;&gt;matches</title>
<path fill="none" stroke="#000000" d="M104.6894,-817.4077C153.6993,-879.0841 301.9845,-1055.9191 463.3343,-1152.4917 474.5756,-1159.22 487.702,-1164.5048 500.1077,-1168.5463"/>
<polygon fill="#000000" stroke="#000000" points="499.2663,-1171.9489 509.8526,-1171.5248 501.3124,-1165.2546 499.2663,-1171.9489"/>
</g>
<!-- runCommand -->
<g id="node22" class="node">
<title>runCommand</title>
<ellipse fill="none" stroke="#000000" cx="545.1518" cy="-1125.4917" rx="58.9841" ry="18"/>
<text text-anchor="middle" x="545.1518" y="-1121.2917" font-family="Times,serif" font-size="14.00" fill="#000000">runCommand</text>
</g>
<!-- strutils&#45;&gt;runCommand -->
<g id="edge37" class="edge">
<title>strutils&#45;&gt;runCommand</title>
<path fill="none" stroke="#000000" d="M108.4948,-816.9943C162.3347,-871.4567 312.4879,-1016.3305 463.3343,-1098.4917 471.8161,-1103.1115 481.2244,-1107.1185 490.5521,-1110.528"/>
<polygon fill="#000000" stroke="#000000" points="489.6065,-1113.9043 500.2013,-1113.8653 491.8946,-1107.2888 489.6065,-1113.9043"/>
</g>
<!-- vartypes -->
<g id="node23" class="node">
<title>vartypes</title>
<ellipse fill="none" stroke="#000000" cx="545.1518" cy="-1233.4917" rx="40.1317" ry="18"/>
<text text-anchor="middle" x="545.1518" y="-1229.2917" font-family="Times,serif" font-size="14.00" fill="#000000">vartypes</text>
</g>
<!-- strutils&#45;&gt;vartypes -->
<g id="edge40" class="edge">
<title>strutils&#45;&gt;vartypes</title>
<path fill="none" stroke="#000000" d="M101.8986,-817.8722C146.5671,-886.3481 291.2962,-1095.1214 463.3343,-1206.4917 474.1339,-1213.4829 486.9119,-1218.8241 499.12,-1222.8348"/>
<polygon fill="#000000" stroke="#000000" points="498.1536,-1226.1992 508.7399,-1225.7722 500.1979,-1219.5043 498.1536,-1226.1992"/>
</g>
<!-- variables -->
<g id="node26" class="node">
<title>variables</title>
<ellipse fill="none" stroke="#000000" cx="545.1518" cy="-1017.4917" rx="42.0524" ry="18"/>
<text text-anchor="middle" x="545.1518" y="-1013.2917" font-family="Times,serif" font-size="14.00" fill="#000000">variables</text>
</g>
<!-- strutils&#45;&gt;variables -->
<g id="edge43" class="edge">
<title>strutils&#45;&gt;variables</title>
<path fill="none" stroke="#000000" d="M119.9814,-814.5245C183.963,-851.6956 331.9625,-935.1388 463.3343,-990.4917 475.1899,-995.487 488.3143,-1000.1734 500.5169,-1004.1946"/>
<polygon fill="#000000" stroke="#000000" points="499.4722,-1007.5351 510.0637,-1007.2701 501.6186,-1000.8723 499.4722,-1007.5351"/>
</g>
<!-- runFunction -->
<g id="node27" class="node">
<title>runFunction</title>
<ellipse fill="none" stroke="#000000" cx="545.1518" cy="-585.4917" rx="53.1797" ry="18"/>
<text text-anchor="middle" x="545.1518" y="-581.2917" font-family="Times,serif" font-size="14.00" fill="#000000">runFunction</text>
</g>
<!-- strutils&#45;&gt;runFunction -->
<g id="edge48" class="edge">
<title>strutils&#45;&gt;runFunction</title>
<path fill="none" stroke="#000000" d="M126.6794,-778.5868C141.9274,-771.8622 159.5176,-763.9594 175.3343,-756.4917 304.744,-695.3924 331.0374,-667.0585 463.3343,-612.4917 473.4978,-608.2997 484.5696,-604.2892 495.1903,-600.7015"/>
<polygon fill="#000000" stroke="#000000" points="496.3818,-603.994 504.7782,-597.5325 494.185,-597.3476 496.3818,-603.994"/>
</g>
<!-- unicodes -->
<g id="node31" class="node">
<title>unicodes</title>
<ellipse fill="none" stroke="#000000" cx="545.1518" cy="-261.4917" rx="41.5852" ry="18"/>
<text text-anchor="middle" x="545.1518" y="-257.2917" font-family="Times,serif" font-size="14.00" fill="#000000">unicodes</text>
</g>
<!-- strutils&#45;&gt;unicodes -->
<g id="edge53" class="edge">
<title>strutils&#45;&gt;unicodes</title>
<path fill="none" stroke="#000000" d="M133.0408,-781.3604C147.6428,-775.3087 163.1742,-767.1324 175.3343,-756.4917 359.1311,-595.6604 271.7422,-439.9529 463.3343,-288.4917 473.0516,-280.8098 485.0437,-275.2725 496.8221,-271.2962"/>
<polygon fill="#000000" stroke="#000000" points="498.0672,-274.5757 506.611,-268.3104 496.0249,-267.8802 498.0672,-274.5757"/>
</g>
<!-- signatures -->
<g id="node32" class="node">
<title>signatures</title>
<ellipse fill="none" stroke="#000000" cx="545.1518" cy="-909.4917" rx="45.9286" ry="18"/>
<text text-anchor="middle" x="545.1518" y="-905.2917" font-family="Times,serif" font-size="14.00" fill="#000000">signatures</text>
</g>
<!-- strutils&#45;&gt;signatures -->
<g id="edge55" class="edge">
<title>strutils&#45;&gt;signatures</title>
<path fill="none" stroke="#000000" d="M136.626,-807.6917C224.6296,-829.6212 408.5426,-875.4503 496.3974,-897.3427"/>
<polygon fill="#000000" stroke="#000000" points="495.5665,-900.7426 506.116,-899.7645 497.2591,-893.9503 495.5665,-900.7426"/>
</g>
<!-- replacement -->
<g id="node33" class="node">
<title>replacement</title>
<ellipse fill="none" stroke="#000000" cx="545.1518" cy="-477.4917" rx="53.1281" ry="18"/>
<text text-anchor="middle" x="545.1518" y="-473.2917" font-family="Times,serif" font-size="14.00" fill="#000000">replacement</text>
</g>
<!-- strutils&#45;&gt;replacement -->
<g id="edge60" class="edge">
<title>strutils&#45;&gt;replacement</title>
<path fill="none" stroke="#000000" d="M129.5733,-779.8781C144.5217,-773.5343 161.1578,-765.5525 175.3343,-756.4917 318.6458,-664.8957 315.6315,-588.8236 463.3343,-504.4917 472.3906,-499.321 482.5824,-494.9641 492.6195,-491.3613"/>
<polygon fill="#000000" stroke="#000000" points="493.8022,-494.6561 502.1533,-488.1361 491.559,-488.0252 493.8022,-494.6561"/>
</g>
<!-- codefile -->
<g id="node37" class="node">
<title>codefile</title>
<ellipse fill="none" stroke="#000000" cx="545.1518" cy="-531.4917" rx="38.2024" ry="18"/>
<text text-anchor="middle" x="545.1518" y="-527.2917" font-family="Times,serif" font-size="14.00" fill="#000000">codefile</text>
</g>
<!-- strutils&#45;&gt;codefile -->
<g id="edge68" class="edge">
<title>strutils&#45;&gt;codefile</title>
<path fill="none" stroke="#000000" d="M128.1369,-779.334C143.2479,-772.8248 160.3635,-764.8743 175.3343,-756.4917 310.8667,-680.6038 324.1846,-627.5232 463.3343,-558.4917 475.3877,-552.5121 489.0722,-547.4011 501.7534,-543.2866"/>
<polygon fill="#000000" stroke="#000000" points="503.1506,-546.5174 511.6581,-540.2029 501.0697,-539.8338 503.1506,-546.5174"/>
</g>
<!-- options -->
<g id="node3" class="node">
<title>options</title>
<ellipse fill="none" stroke="#000000" cx="87.6672" cy="-724.4917" rx="61.0788" ry="22.7556"/>
<text text-anchor="middle" x="87.6672" y="-717.2917" font-family="Times,serif" font-size="24.00" fill="#000000">options</text>
</g>
<!-- parseCommandLine -->
<g id="node4" class="node">
<title>parseCommandLine</title>
<ellipse fill="none" stroke="#000000" cx="545.1518" cy="-747.4917" rx="81.6354" ry="18"/>
<text text-anchor="middle" x="545.1518" y="-743.2917" font-family="Times,serif" font-size="14.00" fill="#000000">parseCommandLine</text>
</g>
<!-- options&#45;&gt;parseCommandLine -->
<g id="edge2" class="edge">
<title>options&#45;&gt;parseCommandLine</title>
<path fill="none" stroke="#000000" d="M148.4176,-727.546C227.0165,-731.4975 364.5927,-738.4141 455.2923,-742.9741"/>
<polygon fill="#000000" stroke="#000000" points="455.1262,-746.47 465.2893,-743.4767 455.4777,-739.4789 455.1262,-746.47"/>
</g>
<!-- regexes -->
<g id="node10" class="node">
<title>regexes</title>
<ellipse fill="none" stroke="#000000" cx="545.1518" cy="-1287.4917" rx="37.2248" ry="18"/>
<text text-anchor="middle" x="545.1518" y="-1283.2917" font-family="Times,serif" font-size="14.00" fill="#000000">regexes</text>
</g>
<!-- options&#45;&gt;regexes -->
<g id="edge8" class="edge">
<title>options&#45;&gt;regexes</title>
<path fill="none" stroke="#000000" d="M135.017,-739.196C149.0912,-745.158 163.8117,-753.1365 175.3343,-763.4917 365.218,-934.1378 265.1733,-1099.5318 463.3343,-1260.4917 473.8816,-1269.059 487.2461,-1274.9458 500.1003,-1278.9758"/>
<polygon fill="#000000" stroke="#000000" points="499.2004,-1282.3585 509.7753,-1281.7093 501.1036,-1275.6222 499.2004,-1282.3585"/>
</g>
<!-- options&#45;&gt;processTemplate -->
<g id="edge15" class="edge">
<title>options&#45;&gt;processTemplate</title>
<path fill="none" stroke="#000000" d="M142.8505,-714.2388C227.2603,-698.5555 388.1634,-668.66 478.8076,-651.8184"/>
<polygon fill="#000000" stroke="#000000" points="479.5054,-655.2487 488.6978,-649.9808 478.2266,-648.3665 479.5054,-655.2487"/>
</g>
<!-- options&#45;&gt;env -->
<g id="edge21" class="edge">
<title>options&#45;&gt;env</title>
<path fill="none" stroke="#000000" d="M139.3345,-711.9828C151.9829,-707.2803 164.8753,-700.9447 175.3343,-692.4917 362.348,-541.347 273.9827,-382.6971 463.3343,-234.4917 476.35,-224.3044 493.3732,-217.8811 508.5193,-213.8705"/>
<polygon fill="#000000" stroke="#000000" points="509.7153,-217.1837 518.6328,-211.4628 508.0941,-210.374 509.7153,-217.1837"/>
</g>
<!-- options&#45;&gt;tempFile -->
<g id="edge26" class="edge">
<title>options&#45;&gt;tempFile</title>
<path fill="none" stroke="#000000" d="M135.8883,-710.2947C149.0992,-705.5061 163.1326,-699.5496 175.3343,-692.4917 320.0568,-608.7803 317.322,-531.9325 463.3343,-450.4917 474.2544,-444.4009 486.7668,-439.4089 498.6672,-435.4476"/>
<polygon fill="#000000" stroke="#000000" points="499.9839,-438.7025 508.4713,-432.361 497.8817,-432.0256 499.9839,-438.7025"/>
</g>
<!-- readlines -->
<g id="node18" class="node">
<title>readlines</title>
<ellipse fill="none" stroke="#000000" cx="545.1518" cy="-369.4917" rx="42.0524" ry="18"/>
<text text-anchor="middle" x="545.1518" y="-365.2917" font-family="Times,serif" font-size="14.00" fill="#000000">readlines</text>
</g>
<!-- options&#45;&gt;readlines -->
<g id="edge29" class="edge">
<title>options&#45;&gt;readlines</title>
<path fill="none" stroke="#000000" d="M136.8268,-710.9172C149.906,-706.1602 163.6376,-700.0641 175.3343,-692.4917 329.4143,-592.7409 307.7151,-493.8238 463.3343,-396.4917 473.8363,-389.9232 486.1055,-384.779 497.8995,-380.8249"/>
<polygon fill="#000000" stroke="#000000" points="499.1453,-384.1026 507.6456,-377.7783 497.0567,-377.4214 499.1453,-384.1026"/>
</g>
<!-- options&#45;&gt;matches -->
<g id="edge32" class="edge">
<title>options&#45;&gt;matches</title>
<path fill="none" stroke="#000000" d="M133.4287,-739.6164C147.7344,-745.6663 162.9897,-753.5898 175.3343,-763.4917 343.1372,-898.0903 289.0251,-1026.4328 463.3343,-1152.4917 473.8545,-1160.0999 486.6463,-1165.6527 498.9599,-1169.6693"/>
<polygon fill="#000000" stroke="#000000" points="498.0968,-1173.0643 508.6802,-1172.5712 500.0993,-1166.3568 498.0968,-1173.0643"/>
</g>
<!-- parseCmdLine -->
<g id="node20" class="node">
<title>parseCmdLine</title>
<ellipse fill="none" stroke="#000000" cx="545.1518" cy="-1071.4917" rx="62.3407" ry="18"/>
<text text-anchor="middle" x="545.1518" y="-1067.2917" font-family="Times,serif" font-size="14.00" fill="#000000">parseCmdLine</text>
</g>
<!-- options&#45;&gt;parseCmdLine -->
<g id="edge33" class="edge">
<title>options&#45;&gt;parseCmdLine</title>
<path fill="none" stroke="#000000" d="M131.636,-740.443C146.135,-746.6283 161.9604,-754.4237 175.3343,-763.4917 323.3507,-863.8529 310.495,-951.6403 463.3343,-1044.4917 470.9506,-1049.1187 479.4533,-1053.0544 488.0172,-1056.37"/>
<polygon fill="#000000" stroke="#000000" points="487.0739,-1059.7505 497.6682,-1059.8537 489.4506,-1053.1663 487.0739,-1059.7505"/>
</g>
<!-- options&#45;&gt;runCommand -->
<g id="edge36" class="edge">
<title>options&#45;&gt;runCommand</title>
<path fill="none" stroke="#000000" d="M132.5602,-739.9657C146.9681,-746.0754 162.5039,-753.9462 175.3343,-763.4917 332.8656,-880.6916 300.1519,-989.2974 463.3343,-1098.4917 470.9116,-1103.5622 479.519,-1107.7487 488.2363,-1111.1848"/>
<polygon fill="#000000" stroke="#000000" points="487.101,-1114.4962 497.695,-1114.6252 489.4937,-1107.9178 487.101,-1114.4962"/>
</g>
<!-- parseNumber -->
<g id="node24" class="node">
<title>parseNumber</title>
<ellipse fill="none" stroke="#000000" cx="545.1518" cy="-37.4917" rx="57.9892" ry="18"/>
<text text-anchor="middle" x="545.1518" y="-33.2917" font-family="Times,serif" font-size="14.00" fill="#000000">parseNumber</text>
</g>
<!-- options&#45;&gt;parseNumber -->
<g id="edge41" class="edge">
<title>options&#45;&gt;parseNumber</title>
<path fill="none" stroke="#000000" d="M140.5557,-712.6982C153.0425,-707.9964 165.5525,-701.4823 175.3343,-692.4917 399.3314,-486.6148 243.9053,-282.2307 463.3343,-71.4917 471.3187,-63.8236 481.2801,-57.7797 491.4759,-53.053"/>
<polygon fill="#000000" stroke="#000000" points="493.0166,-56.2014 500.8553,-49.0736 490.2825,-49.7574 493.0166,-56.2014"/>
</g>
<!-- options&#45;&gt;variables -->
<g id="edge44" class="edge">
<title>options&#45;&gt;variables</title>
<path fill="none" stroke="#000000" d="M130.2113,-740.8898C144.9056,-747.2067 161.2152,-754.9699 175.3343,-763.4917 314.8687,-847.71 319.7719,-913.3399 463.3343,-990.4917 474.3484,-996.4108 486.8935,-1001.3432 498.7952,-1005.3022"/>
<polygon fill="#000000" stroke="#000000" points="498.0037,-1008.7226 508.5936,-1008.3991 500.1133,-1002.0481 498.0037,-1008.7226"/>
</g>
<!-- options&#45;&gt;runFunction -->
<g id="edge46" class="edge">
<title>options&#45;&gt;runFunction</title>
<path fill="none" stroke="#000000" d="M135.3314,-710.0097C222.4843,-683.5295 406.7149,-627.5538 495.3956,-600.6094"/>
<polygon fill="#000000" stroke="#000000" points="496.6614,-603.8829 505.212,-597.6269 494.6263,-597.1852 496.6614,-603.8829"/>
</g>
<!-- options&#45;&gt;signatures -->
<g id="edge56" class="edge">
<title>options&#45;&gt;signatures</title>
<path fill="none" stroke="#000000" d="M127.6168,-741.7685C210.3146,-777.454 397.9883,-858.0118 463.3343,-882.4917 474.9341,-886.8372 487.5908,-891.1967 499.4067,-895.1063"/>
<polygon fill="#000000" stroke="#000000" points="498.5002,-898.4922 509.0928,-898.2745 500.6763,-891.8391 498.5002,-898.4922"/>
</g>
<!-- options&#45;&gt;replacement -->
<g id="edge57" class="edge">
<title>options&#45;&gt;replacement</title>
<path fill="none" stroke="#000000" d="M134.4525,-709.6468C147.9153,-704.7817 162.44,-698.9471 175.3343,-692.4917 312.0197,-624.0619 325.5968,-570.7783 463.3343,-504.4917 472.9355,-499.8711 483.5284,-495.7314 493.8178,-492.1628"/>
<polygon fill="#000000" stroke="#000000" points="495.1677,-495.4022 503.5475,-488.9191 492.9538,-488.7615 495.1677,-495.4022"/>
</g>
<!-- options&#45;&gt;codefile -->
<g id="edge65" class="edge">
<title>options&#45;&gt;codefile</title>
<path fill="none" stroke="#000000" d="M132.5503,-708.9435C146.3677,-703.9339 161.5631,-698.1966 175.3343,-692.4917 305.7625,-638.4607 332.0781,-610.479 463.3343,-558.4917 476.1894,-553.4002 490.4285,-548.4653 503.3759,-544.2377"/>
<polygon fill="#000000" stroke="#000000" points="504.5308,-547.543 512.9809,-541.1519 502.3896,-540.8785 504.5308,-547.543"/>
</g>
<!-- tables -->
<g id="node5" class="node">
<title>tables</title>
<ellipse fill="none" stroke="#000000" cx="87.6672" cy="-963.4917" rx="50.796" ry="22.7556"/>
<text text-anchor="middle" x="87.6672" y="-956.2917" font-family="Times,serif" font-size="24.00" fill="#000000">tables</text>
</g>
<!-- tables&#45;&gt;parseCommandLine -->
<g id="edge3" class="edge">
<title>tables&#45;&gt;parseCommandLine</title>
<path fill="none" stroke="#000000" d="M119.0846,-945.6869C182.6772,-910.1001 331.7898,-828.9392 463.3343,-774.4917 470.9001,-771.3602 478.9714,-768.3333 486.9861,-765.5095"/>
<polygon fill="#000000" stroke="#000000" points="488.3767,-768.7326 496.6963,-762.1725 486.1016,-762.1126 488.3767,-768.7326"/>
</g>
<!-- tables&#45;&gt;regexes -->
<g id="edge9" class="edge">
<title>tables&#45;&gt;regexes</title>
<path fill="none" stroke="#000000" d="M108.587,-984.5377C162.6432,-1037.8493 313.2624,-1179.6987 463.3343,-1260.4917 475.4039,-1266.9895 489.3167,-1272.2952 502.2065,-1276.4295"/>
<polygon fill="#000000" stroke="#000000" points="501.2303,-1279.7909 511.8165,-1279.363 503.2741,-1273.0959 501.2303,-1279.7909"/>
</g>
<!-- tables&#45;&gt;cmdline -->
<g id="edge11" class="edge">
<title>tables&#45;&gt;cmdline</title>
<path fill="none" stroke="#000000" d="M127.0296,-948.9619C195.2946,-923.8498 340.1532,-870.9418 463.3343,-828.4917 476.4065,-823.9868 490.7059,-819.2149 503.6419,-814.9562"/>
<polygon fill="#000000" stroke="#000000" points="504.8145,-818.2551 513.2254,-811.8125 502.6326,-811.6038 504.8145,-818.2551"/>
</g>
<!-- tables&#45;&gt;processTemplate -->
<g id="edge16" class="edge">
<title>tables&#45;&gt;processTemplate</title>
<path fill="none" stroke="#000000" d="M108.587,-942.4457C162.6432,-889.1342 313.2624,-747.2848 463.3343,-666.4917 470.718,-662.5166 478.7916,-658.9877 486.8988,-655.9001"/>
<polygon fill="#000000" stroke="#000000" points="488.1715,-659.1619 496.392,-652.4781 485.7976,-652.5767 488.1715,-659.1619"/>
</g>
<!-- tables&#45;&gt;matches -->
<g id="edge31" class="edge">
<title>tables&#45;&gt;matches</title>
<path fill="none" stroke="#000000" d="M119.0846,-981.2966C182.6772,-1016.8834 331.7898,-1098.0442 463.3343,-1152.4917 475.7665,-1157.6375 489.5637,-1162.5007 502.2316,-1166.6445"/>
<polygon fill="#000000" stroke="#000000" points="501.5102,-1170.0886 512.1013,-1169.8052 503.6452,-1163.422 501.5102,-1170.0886"/>
</g>
<!-- tables&#45;&gt;parseCmdLine -->
<g id="edge34" class="edge">
<title>tables&#45;&gt;parseCmdLine</title>
<path fill="none" stroke="#000000" d="M132.7846,-974.1428C216.3037,-993.8594 394.8823,-1036.0171 487.2097,-1057.8131"/>
<polygon fill="#000000" stroke="#000000" points="486.4132,-1061.2212 496.9499,-1060.1125 488.0216,-1054.4085 486.4132,-1061.2212"/>
</g>
<!-- tables&#45;&gt;runCommand -->
<g id="edge38" class="edge">
<title>tables&#45;&gt;runCommand</title>
<path fill="none" stroke="#000000" d="M127.0296,-978.0215C195.2946,-1003.1337 340.1532,-1056.0416 463.3343,-1098.4917 473.6202,-1102.0364 484.6658,-1105.7464 495.2092,-1109.2416"/>
<polygon fill="#000000" stroke="#000000" points="494.1213,-1112.5682 504.7145,-1112.3803 496.3162,-1105.9212 494.1213,-1112.5682"/>
</g>
<!-- tables&#45;&gt;vartypes -->
<g id="edge39" class="edge">
<title>tables&#45;&gt;vartypes</title>
<path fill="none" stroke="#000000" d="M113.1742,-983.3217C171.9888,-1028.2776 322.8605,-1139.2485 463.3343,-1206.4917 475.1512,-1212.1484 488.4593,-1217.0948 500.8551,-1221.1549"/>
<polygon fill="#000000" stroke="#000000" points="499.9649,-1224.5441 510.5547,-1224.2177 502.0727,-1217.869 499.9649,-1224.5441"/>
</g>
<!-- tables&#45;&gt;variables -->
<g id="edge45" class="edge">
<title>tables&#45;&gt;variables</title>
<path fill="none" stroke="#000000" d="M137.0607,-969.322C224.6257,-979.6579 406.1608,-1001.0857 494.5689,-1011.5211"/>
<polygon fill="#000000" stroke="#000000" points="494.2792,-1015.0111 504.6205,-1012.7076 495.0998,-1008.0594 494.2792,-1015.0111"/>
</g>
<!-- tables&#45;&gt;runFunction -->
<g id="edge47" class="edge">
<title>tables&#45;&gt;runFunction</title>
<path fill="none" stroke="#000000" d="M104.7781,-941.9622C154.0214,-881.3698 302.8618,-707.6197 463.3343,-612.4917 472.116,-607.2859 482.0306,-602.9368 491.8498,-599.3576"/>
<polygon fill="#000000" stroke="#000000" points="493.2588,-602.575 501.5917,-596.0319 490.9972,-595.9504 493.2588,-602.575"/>
</g>
<!-- tables&#45;&gt;signatures -->
<g id="edge54" class="edge">
<title>tables&#45;&gt;signatures</title>
<path fill="none" stroke="#000000" d="M137.0607,-957.6615C223.491,-947.4595 401.4718,-926.4513 491.0855,-915.8735"/>
<polygon fill="#000000" stroke="#000000" points="491.5217,-919.3464 501.0425,-914.6983 490.7011,-912.3947 491.5217,-919.3464"/>
</g>
<!-- readjson -->
<g id="node35" class="node">
<title>readjson</title>
<ellipse fill="none" stroke="#000000" cx="545.1518" cy="-315.4917" rx="40.1317" ry="18"/>
<text text-anchor="middle" x="545.1518" y="-311.2917" font-family="Times,serif" font-size="14.00" fill="#000000">readjson</text>
</g>
<!-- tables&#45;&gt;readjson -->
<g id="edge64" class="edge">
<title>tables&#45;&gt;readjson</title>
<path fill="none" stroke="#000000" d="M102.1917,-941.5074C119.7889,-914.7478 150.2016,-868.0989 175.3343,-827.4917 307.27,-614.3224 267.9038,-499.5112 463.3343,-342.4917 473.2712,-334.5079 485.6589,-328.8475 497.7644,-324.8484"/>
<polygon fill="#000000" stroke="#000000" points="498.7787,-328.1983 507.3602,-321.9847 496.7769,-321.4907 498.7787,-328.1983"/>
</g>
<!-- os -->
<g id="node6" class="node">
<title>os</title>
<ellipse fill="none" stroke="#000000" cx="87.6672" cy="-586.4917" rx="27" ry="22.7556"/>
<text text-anchor="middle" x="87.6672" y="-579.2917" font-family="Times,serif" font-size="24.00" fill="#000000">os</text>
</g>
<!-- os&#45;&gt;statictea -->
<g id="edge71" class="edge">
<title>os&#45;&gt;statictea</title>
<path fill="none" stroke="#000000" d="M113.9067,-592.6288C189.1052,-610.2168 406.0232,-660.9513 500.4009,-683.025"/>
<polygon fill="#000000" stroke="#000000" points="499.6822,-686.4514 510.2166,-685.3208 501.2765,-679.6353 499.6822,-686.4514"/>
</g>
<!-- os&#45;&gt;parseCommandLine -->
<g id="edge4" class="edge">
<title>os&#45;&gt;parseCommandLine</title>
<path fill="none" stroke="#000000" d="M112.6539,-595.6374C172.8447,-617.6174 330.7108,-674.9626 463.3343,-720.4917 471.7631,-723.3853 480.7001,-726.3944 489.4521,-729.3086"/>
<polygon fill="#000000" stroke="#000000" points="488.6246,-732.7215 499.218,-732.5472 490.828,-726.0774 488.6246,-732.7215"/>
</g>
<!-- os&#45;&gt;cmdline -->
<g id="edge10" class="edge">
<title>os&#45;&gt;cmdline</title>
<path fill="none" stroke="#000000" d="M112.9968,-594.6385C130.7192,-600.6034 154.8001,-609.2426 175.3343,-618.4917 308.0632,-678.276 329.6878,-716.7879 463.3343,-774.4917 475.6872,-779.8253 489.4607,-784.7442 502.1314,-788.8815"/>
<polygon fill="#000000" stroke="#000000" points="501.4179,-792.3273 512.0084,-792.0248 503.5408,-785.6569 501.4179,-792.3273"/>
</g>
<!-- os&#45;&gt;processTemplate -->
<g id="edge14" class="edge">
<title>os&#45;&gt;processTemplate</title>
<path fill="none" stroke="#000000" d="M114.5769,-589.6093C183.4382,-597.5869 367.9019,-618.9572 471.6607,-630.9777"/>
<polygon fill="#000000" stroke="#000000" points="471.414,-634.4725 481.7504,-632.1466 472.2196,-627.519 471.414,-634.4725"/>
</g>
<!-- os&#45;&gt;env -->
<g id="edge19" class="edge">
<title>os&#45;&gt;env</title>
<path fill="none" stroke="#000000" d="M113.7758,-580.5549C132.0799,-575.5669 156.5364,-567.1868 175.3343,-554.4917 333.9013,-447.4046 303.114,-339.0892 463.3343,-234.4917 477.0728,-225.5228 494.0586,-219.2829 508.987,-215.0799"/>
<polygon fill="#000000" stroke="#000000" points="510.1351,-218.3977 518.928,-212.4872 508.3684,-211.6243 510.1351,-218.3977"/>
</g>
<!-- os&#45;&gt;tempFile -->
<g id="edge23" class="edge">
<title>os&#45;&gt;tempFile</title>
<path fill="none" stroke="#000000" d="M112.6727,-577.3921C190.9864,-548.9 428.3875,-462.581 463.3343,-450.4917 475.827,-446.1701 489.4448,-441.6146 501.9221,-437.5017"/>
<polygon fill="#000000" stroke="#000000" points="503.2315,-440.7557 511.6409,-434.311 501.0481,-434.1049 503.2315,-440.7557"/>
</g>
<!-- os&#45;&gt;runFunction -->
<g id="edge50" class="edge">
<title>os&#45;&gt;runFunction</title>
<path fill="none" stroke="#000000" d="M114.9149,-586.4322C186.3283,-586.2761 380.3825,-585.8519 481.6776,-585.6305"/>
<polygon fill="#000000" stroke="#000000" points="481.7849,-589.1304 491.7771,-585.6084 481.7695,-582.1304 481.7849,-589.1304"/>
</g>
<!-- os&#45;&gt;readjson -->
<g id="edge62" class="edge">
<title>os&#45;&gt;readjson</title>
<path fill="none" stroke="#000000" d="M113.4275,-579.2191C131.3473,-573.6552 155.4873,-565.1359 175.3343,-554.4917 315.4018,-479.3723 322.1106,-415.4143 463.3343,-342.4917 474.8702,-336.5351 487.9889,-331.5138 500.291,-327.4785"/>
<polygon fill="#000000" stroke="#000000" points="501.4413,-330.7859 509.9362,-324.4545 499.3471,-324.1065 501.4413,-330.7859"/>
</g>
<!-- os&#45;&gt;codefile -->
<g id="edge66" class="edge">
<title>os&#45;&gt;codefile</title>
<path fill="none" stroke="#000000" d="M114.5769,-583.2566C189.79,-574.2143 402.9162,-548.5917 498.1593,-537.1413"/>
<polygon fill="#000000" stroke="#000000" points="498.5779,-540.6163 508.0886,-535.9476 497.7423,-533.6663 498.5779,-540.6163"/>
</g>
<!-- re -->
<g id="node9" class="node">
<title>re</title>
<polygon fill="#98fb98" stroke="#000000" points="114.6672,-1277.3499 114.6672,-1297.6336 98.8509,-1311.9764 76.4834,-1311.9764 60.6672,-1297.6336 60.6672,-1277.3499 76.4834,-1263.0071 98.8509,-1263.0071 114.6672,-1277.3499"/>
<polygon fill="none" stroke="#000000" points="118.6672,-1275.5783 118.6672,-1299.4052 100.3948,-1315.9752 74.9395,-1315.9752 56.6672,-1299.4052 56.6672,-1275.5783 74.9395,-1259.0083 100.3948,-1259.0083 118.6672,-1275.5783"/>
<text text-anchor="middle" x="87.6672" y="-1280.2917" font-family="Times,serif" font-size="24.00" fill="#000000">re</text>
</g>
<!-- re&#45;&gt;regexes -->
<g id="edge7" class="edge">
<title>re&#45;&gt;regexes</title>
<path fill="none" stroke="#000000" d="M118.7523,-1287.4917C197.2583,-1287.4917 403.9214,-1287.4917 497.683,-1287.4917"/>
<polygon fill="#000000" stroke="#000000" points="497.739,-1290.9918 507.7389,-1287.4917 497.7389,-1283.9918 497.739,-1290.9918"/>
</g>
<!-- streams -->
<g id="node12" class="node">
<title>streams</title>
<ellipse fill="none" stroke="#000000" cx="87.6672" cy="-373.4917" rx="63.3073" ry="22.7556"/>
<text text-anchor="middle" x="87.6672" y="-366.2917" font-family="Times,serif" font-size="24.00" fill="#000000">streams</text>
</g>
<!-- streams&#45;&gt;processTemplate -->
<g id="edge13" class="edge">
<title>streams&#45;&gt;processTemplate</title>
<path fill="none" stroke="#000000" d="M135.5509,-388.2984C148.7584,-393.0931 162.8745,-398.9002 175.3343,-405.4917 314.6705,-479.2036 322.8638,-540.9652 463.3343,-612.4917 470.9029,-616.3456 479.1391,-619.8182 487.3745,-622.889"/>
<polygon fill="#000000" stroke="#000000" points="486.4069,-626.2595 497.0016,-626.3081 488.7496,-619.6631 486.4069,-626.2595"/>
</g>
<!-- streams&#45;&gt;env -->
<g id="edge18" class="edge">
<title>streams&#45;&gt;env</title>
<path fill="none" stroke="#000000" d="M132.2838,-357.2619C146.0903,-352.2246 161.3466,-346.643 175.3343,-341.4917 303.4701,-294.3033 334.4771,-279.673 463.3343,-234.4917 478.9318,-229.0228 496.3079,-223.2446 511.0213,-218.4431"/>
<polygon fill="#000000" stroke="#000000" points="512.2976,-221.7086 520.7274,-215.2908 510.1353,-215.0509 512.2976,-221.7086"/>
</g>
<!-- streams&#45;&gt;tempFile -->
<g id="edge27" class="edge">
<title>streams&#45;&gt;tempFile</title>
<path fill="none" stroke="#000000" d="M148.4176,-380.1314C239.5308,-390.0894 409.8968,-408.7093 494.6229,-417.9693"/>
<polygon fill="#000000" stroke="#000000" points="494.4444,-421.4705 504.7655,-419.0778 495.205,-414.512 494.4444,-421.4705"/>
</g>
<!-- streams&#45;&gt;readlines -->
<g id="edge28" class="edge">
<title>streams&#45;&gt;readlines</title>
<path fill="none" stroke="#000000" d="M151.2784,-372.9356C242.371,-372.1391 408.2761,-370.6885 492.7313,-369.9501"/>
<polygon fill="#000000" stroke="#000000" points="492.8936,-373.4489 502.8625,-369.8615 492.8323,-366.4492 492.8936,-373.4489"/>
</g>
<!-- collectCommand -->
<g id="node21" class="node">
<title>collectCommand</title>
<ellipse fill="none" stroke="#000000" cx="545.1518" cy="-153.4917" rx="70.5427" ry="18"/>
<text text-anchor="middle" x="545.1518" y="-149.2917" font-family="Times,serif" font-size="14.00" fill="#000000">collectCommand</text>
</g>
<!-- streams&#45;&gt;collectCommand -->
<g id="edge35" class="edge">
<title>streams&#45;&gt;collectCommand</title>
<path fill="none" stroke="#000000" d="M134.1796,-358.0777C147.6365,-353.2 162.2262,-347.5013 175.3343,-341.4917 308.6359,-280.378 329.0945,-239.516 463.3343,-180.4917 471.4922,-176.9048 480.2843,-173.525 488.9737,-170.4503"/>
<polygon fill="#000000" stroke="#000000" points="490.3778,-173.6689 498.7013,-167.1136 488.1066,-167.0476 490.3778,-173.6689"/>
</g>
<!-- streams&#45;&gt;replacement -->
<g id="edge58" class="edge">
<title>streams&#45;&gt;replacement</title>
<path fill="none" stroke="#000000" d="M141.0418,-385.6254C228.76,-405.5664 402.466,-445.055 490.8111,-465.1385"/>
<polygon fill="#000000" stroke="#000000" points="490.1081,-468.5679 500.6352,-467.3718 491.6599,-461.742 490.1081,-468.5679"/>
</g>
<!-- streams&#45;&gt;readjson -->
<g id="edge61" class="edge">
<title>streams&#45;&gt;readjson</title>
<path fill="none" stroke="#000000" d="M147.4753,-365.9093C238.9652,-354.3101 411.9203,-332.3829 496.3333,-321.681"/>
<polygon fill="#000000" stroke="#000000" points="496.9409,-325.132 506.4212,-320.402 496.0604,-318.1876 496.9409,-325.132"/>
</g>
<!-- streams&#45;&gt;codefile -->
<g id="edge67" class="edge">
<title>streams&#45;&gt;codefile</title>
<path fill="none" stroke="#000000" d="M132.6876,-389.4649C203.1028,-414.3861 343.6368,-463.8746 463.3343,-504.4917 476.5406,-508.973 490.9797,-513.7715 504.002,-518.0616"/>
<polygon fill="#000000" stroke="#000000" points="503.0473,-521.4319 513.6402,-521.2296 505.2331,-514.782 503.0473,-521.4319"/>
</g>
<!-- times -->
<g id="node15" class="node">
<title>times</title>
<ellipse fill="none" stroke="#ff0000" cx="87.6672" cy="-97.4917" rx="48.1611" ry="22.7556"/>
<text text-anchor="middle" x="87.6672" y="-90.2917" font-family="Times,serif" font-size="24.00" fill="#000000">times</text>
</g>
<!-- times&#45;&gt;env -->
<g id="edge20" class="edge">
<title>times&#45;&gt;env</title>
<path fill="none" stroke="#ff0000" d="M130.7062,-107.8403C220.6153,-129.4585 426.8749,-179.0526 509.7352,-198.976"/>
<polygon fill="#ff0000" stroke="#ff0000" points="509.1298,-202.4301 519.671,-201.365 510.7664,-195.6241 509.1298,-202.4301"/>
</g>
<!-- timer -->
<g id="node38" class="node">
<title>timer</title>
<ellipse fill="none" stroke="#000000" cx="545.1518" cy="-98.4917" rx="28.5411" ry="18"/>
<text text-anchor="middle" x="545.1518" y="-94.2917" font-family="Times,serif" font-size="14.00" fill="#000000">timer</text>
</g>
<!-- times&#45;&gt;timer -->
<g id="edge69" class="edge">
<title>times&#45;&gt;timer</title>
<path fill="none" stroke="#ff0000" d="M135.7614,-97.5969C226.8412,-97.796 422.8315,-98.2244 506.2657,-98.4067"/>
<polygon fill="#ff0000" stroke="#ff0000" points="506.3287,-101.9068 516.3364,-98.4288 506.3441,-94.9068 506.3287,-101.9068"/>
</g>
<!-- random -->
<g id="node17" class="node">
<title>random</title>
<polygon fill="#98fb98" stroke="#000000" points="155.889,-432.3499 155.889,-452.6336 115.9256,-466.9764 59.4087,-466.9764 19.4453,-452.6336 19.4453,-432.3499 59.4087,-418.0071 115.9256,-418.0071 155.889,-432.3499"/>
<polygon fill="none" stroke="#000000" points="159.8811,-429.5349 159.8811,-455.4486 116.6191,-470.9752 58.7152,-470.9752 15.4532,-455.4486 15.4532,-429.5349 58.7152,-414.0083 116.6191,-414.0083 159.8811,-429.5349"/>
<text text-anchor="middle" x="87.6672" y="-435.2917" font-family="Times,serif" font-size="24.00" fill="#000000">random</text>
</g>
<!-- random&#45;&gt;tempFile -->
<g id="edge24" class="edge">
<title>random&#45;&gt;tempFile</title>
<path fill="none" stroke="#000000" d="M159.9045,-439.4916C252.8676,-435.6307 412.0864,-429.0181 493.6645,-425.6301"/>
<polygon fill="#000000" stroke="#000000" points="493.8483,-429.1256 503.6944,-425.2135 493.5577,-422.1316 493.8483,-429.1256"/>
</g>
<!-- parseutils -->
<g id="node25" class="node">
<title>parseutils</title>
<polygon fill="#98fb98" stroke="#000000" points="170.4501,-18.3499 170.4501,-38.6336 121.957,-52.9764 53.3774,-52.9764 4.8843,-38.6336 4.8843,-18.3499 53.3774,-4.0071 121.957,-4.0071 170.4501,-18.3499"/>
<polygon fill="none" stroke="#000000" points="174.4567,-15.3642 174.4567,-41.6193 122.5382,-56.9752 52.7962,-56.9752 .8776,-41.6193 .8776,-15.3642 52.7962,-.0083 122.5382,-.0083 174.4567,-15.3642"/>
<text text-anchor="middle" x="87.6672" y="-21.2917" font-family="Times,serif" font-size="24.00" fill="#000000">parseutils</text>
</g>
<!-- parseutils&#45;&gt;parseNumber -->
<g id="edge42" class="edge">
<title>parseutils&#45;&gt;parseNumber</title>
<path fill="none" stroke="#000000" d="M174.5237,-30.2005C262.4986,-31.9312 396.7505,-34.5723 477.235,-36.1556"/>
<polygon fill="#000000" stroke="#000000" points="477.1921,-39.6554 487.2591,-36.3528 477.3299,-32.6567 477.1921,-39.6554"/>
</g>
<!-- math -->
<g id="node28" class="node">
<title>math</title>
<ellipse fill="none" stroke="#ff0000" cx="87.6672" cy="-160.4917" rx="45.4944" ry="22.7556"/>
<text text-anchor="middle" x="87.6672" y="-153.2917" font-family="Times,serif" font-size="24.00" fill="#000000">math</text>
</g>
<!-- math&#45;&gt;runFunction -->
<g id="edge49" class="edge">
<title>math&#45;&gt;runFunction</title>
<path fill="none" stroke="#ff0000" d="M128.8095,-170.339C144.3349,-175.3327 161.5583,-182.5096 175.3343,-192.4917 342.9465,-313.9437 293.8455,-439.6725 463.3343,-558.4917 471.5098,-564.2231 480.9844,-568.8013 490.5248,-572.4381"/>
<polygon fill="#ff0000" stroke="#ff0000" points="489.4466,-575.7688 500.0415,-575.7688 491.7591,-569.1618 489.4466,-575.7688"/>
</g>
<!-- math&#45;&gt;timer -->
<g id="edge70" class="edge">
<title>math&#45;&gt;timer</title>
<path fill="none" stroke="#ff0000" d="M131.5327,-154.5469C220.8428,-142.4433 422.4602,-115.1194 506.8608,-103.6811"/>
<polygon fill="#ff0000" stroke="#ff0000" points="507.3538,-107.1463 516.7932,-102.335 506.4137,-100.2098 507.3538,-107.1463"/>
</g>
<!-- algorithm -->
<g id="node29" class="node">
<title>algorithm</title>
<polygon fill="#98fb98" stroke="#000000" points="171.4941,-645.3499 171.4941,-665.6336 122.3894,-679.9764 52.9449,-679.9764 3.8402,-665.6336 3.8402,-645.3499 52.9449,-631.0071 122.3894,-631.0071 171.4941,-645.3499"/>
<polygon fill="none" stroke="#000000" points="175.5018,-642.3538 175.5018,-668.6297 122.964,-683.9752 52.3704,-683.9752 -.1675,-668.6297 -.1675,-642.3538 52.3704,-627.0083 122.964,-627.0083 175.5018,-642.3538"/>
<text text-anchor="middle" x="87.6672" y="-648.2917" font-family="Times,serif" font-size="24.00" fill="#000000">algorithm</text>
</g>
<!-- algorithm&#45;&gt;runFunction -->
<g id="edge51" class="edge">
<title>algorithm&#45;&gt;runFunction</title>
<path fill="none" stroke="#000000" d="M175.0633,-642.1192C266.4029,-628.1433 407.1947,-606.6006 486.1875,-594.5139"/>
<polygon fill="#000000" stroke="#000000" points="487.088,-597.9169 496.4435,-592.9446 486.0291,-590.9975 487.088,-597.9169"/>
</g>
<!-- unicode -->
<g id="node30" class="node">
<title>unicode</title>
<polygon fill="#98fb98" stroke="#000000" points="157.9587,-219.3499 157.9587,-239.6336 116.7829,-253.9764 58.5514,-253.9764 17.3756,-239.6336 17.3756,-219.3499 58.5514,-205.0071 116.7829,-205.0071 157.9587,-219.3499"/>
<polygon fill="none" stroke="#000000" points="161.953,-216.5072 161.953,-242.4763 117.4579,-257.9752 57.8764,-257.9752 13.3814,-242.4763 13.3814,-216.5072 57.8764,-201.0083 117.4579,-201.0083 161.953,-216.5072"/>
<text text-anchor="middle" x="87.6672" y="-222.2917" font-family="Times,serif" font-size="24.00" fill="#000000">unicode</text>
</g>
<!-- unicode&#45;&gt;unicodes -->
<g id="edge52" class="edge">
<title>unicode&#45;&gt;unicodes</title>
<path fill="none" stroke="#000000" d="M162.1882,-234.7043C255.3569,-241.2213 412.4199,-252.2075 493.409,-257.8725"/>
<polygon fill="#000000" stroke="#000000" points="493.6252,-261.396 503.8451,-258.6024 494.1137,-254.4131 493.6252,-261.396"/>
</g>
<!-- strformat -->
<g id="node34" class="node">
<title>strformat</title>
<polygon fill="#98fb98" stroke="#000000" points="167.318,-507.3499 167.318,-527.6336 120.6596,-541.9764 54.6747,-541.9764 8.0163,-527.6336 8.0163,-507.3499 54.6747,-493.0071 120.6596,-493.0071 167.318,-507.3499"/>
<polygon fill="none" stroke="#000000" points="171.3217,-504.3967 171.3217,-530.5868 121.2618,-545.9752 54.0725,-545.9752 4.0126,-530.5868 4.0126,-504.3967 54.0725,-489.0083 121.2618,-489.0083 171.3217,-504.3967"/>
<text text-anchor="middle" x="87.6672" y="-510.2917" font-family="Times,serif" font-size="24.00" fill="#000000">strformat</text>
</g>
<!-- strformat&#45;&gt;replacement -->
<g id="edge59" class="edge">
<title>strformat&#45;&gt;replacement</title>
<path fill="none" stroke="#000000" d="M171.3108,-510.1784C261.4382,-502.2981 402.75,-489.9426 483.3492,-482.8954"/>
<polygon fill="#000000" stroke="#000000" points="483.6918,-486.3789 493.3489,-482.0211 483.082,-479.4055 483.6918,-486.3789"/>
</g>
<!-- json -->
<g id="node36" class="node">
<title>json</title>
<polygon fill="#98fb98" stroke="#000000" points="130.4119,-294.3499 130.4119,-314.6336 105.3726,-328.9764 69.9617,-328.9764 44.9224,-314.6336 44.9224,-294.3499 69.9617,-280.0071 105.3726,-280.0071 130.4119,-294.3499"/>
<polygon fill="none" stroke="#000000" points="134.4006,-292.0291 134.4006,-316.9544 106.4317,-332.9752 68.9026,-332.9752 40.9337,-316.9544 40.9337,-292.0291 68.9026,-276.0083 106.4317,-276.0083 134.4006,-292.0291"/>
<text text-anchor="middle" x="87.6672" y="-297.2917" font-family="Times,serif" font-size="24.00" fill="#000000">json</text>
</g>
<!-- json&#45;&gt;readjson -->
<g id="edge63" class="edge">
<title>json&#45;&gt;readjson</title>
<path fill="none" stroke="#000000" d="M134.4761,-305.6172C221.1128,-307.7004 405.7384,-312.1396 494.9004,-314.2835"/>
<polygon fill="#000000" stroke="#000000" points="494.9489,-317.7856 505.0302,-314.527 495.1173,-310.7876 494.9489,-317.7856"/>
</g>
</g>
</svg>
