<?xml version="1.0" encoding="UTF-8" standalone="no"?>
<!DOCTYPE svg PUBLIC "-//W3C//DTD SVG 1.1//EN"
 "http://www.w3.org/Graphics/SVG/1.1/DTD/svg11.dtd">
<!-- Generated by graphviz version 7.0.1 (20221109.1506)
 -->
<!-- Title: statictea Pages: 1 -->
<svg width="771pt" height="1892pt"
 viewBox="0.00 0.00 770.78 1892.06" xmlns="http://www.w3.org/2000/svg" xmlns:xlink="http://www.w3.org/1999/xlink">
<g id="graph0" class="graph" transform="scale(1 1) rotate(0) translate(4 1888.06)">
<title>statictea</title>
<polygon fill="white" stroke="none" points="-4,4 -4,-1888.06 766.78,-1888.06 766.78,4 -4,4"/>
<!-- strutils -->
<g id="node1" class="node">
<title>strutils</title>
<ellipse fill="none" stroke="black" cx="88.19" cy="-1167.02" rx="57.97" ry="24.08"/>
<text text-anchor="middle" x="88.19" y="-1160.82" font-family="Times,serif" font-size="24.00">strutils</text>
</g>
<!-- statictea -->
<g id="node2" class="node">
<title>statictea</title>
<g id="a_node2"><a xlink:href="html/statictea.html" xlink:title="statictea" target="_parent">
<ellipse fill="none" stroke="black" cx="613.58" cy="-1728.02" rx="67.35" ry="24.08"/>
<text text-anchor="middle" x="613.58" y="-1721.82" font-family="Times,serif" font-size="24.00">statictea</text>
</a>
</g>
</g>
<!-- strutils&#45;&gt;statictea -->
<g id="edge1" class="edge">
<title>strutils&#45;&gt;statictea</title>
<path fill="none" stroke="black" d="M110.51,-1189.5C128.73,-1209.11 155.27,-1238.63 176.38,-1266.02 316.57,-1447.91 274.76,-1565.48 464.38,-1695.02 485.24,-1709.27 511.24,-1717.48 535.62,-1722.17"/>
<polygon fill="black" stroke="black" points="534.74,-1725.57 545.19,-1723.82 535.94,-1718.67 534.74,-1725.57"/>
</g>
<!-- messages -->
<g id="node10" class="node">
<title>messages</title>
<g id="a_node10"><a xlink:href="html/messages.html" xlink:title="messages" target="_parent">
<ellipse fill="none" stroke="black" cx="613.58" cy="-342.02" rx="74.91" ry="24.08"/>
<text text-anchor="middle" x="613.58" y="-335.82" font-family="Times,serif" font-size="24.00">messages</text>
</a>
</g>
</g>
<!-- strutils&#45;&gt;messages -->
<g id="edge7" class="edge">
<title>strutils&#45;&gt;messages</title>
<path fill="none" stroke="black" d="M123.46,-1147.42C141.23,-1135.83 162.13,-1119.76 176.38,-1101.02 386.53,-824.73 200.26,-600.27 464.38,-375.02 482.05,-359.96 505.1,-351.35 527.75,-346.54"/>
<polygon fill="black" stroke="black" points="528.13,-350.03 537.32,-344.76 526.84,-343.15 528.13,-350.03"/>
</g>
<!-- cmdline -->
<g id="node11" class="node">
<title>cmdline</title>
<g id="a_node11"><a xlink:href="html/cmdline.html" xlink:title="cmdline" target="_parent">
<ellipse fill="none" stroke="black" cx="613.58" cy="-1464.02" rx="66.44" ry="24.08"/>
<text text-anchor="middle" x="613.58" y="-1457.82" font-family="Times,serif" font-size="24.00">cmdline</text>
</a>
</g>
</g>
<!-- strutils&#45;&gt;cmdline -->
<g id="edge12" class="edge">
<title>strutils&#45;&gt;cmdline</title>
<path fill="none" stroke="black" d="M113,-1189C169.43,-1239.84 317.59,-1366.15 464.38,-1431.02 487.9,-1441.42 515.02,-1448.68 539.57,-1453.69"/>
<polygon fill="black" stroke="black" points="538.69,-1457.09 549.17,-1455.55 540.02,-1450.21 538.69,-1457.09"/>
</g>
<!-- matches -->
<g id="node12" class="node">
<title>matches</title>
<g id="a_node12"><a xlink:href="html/matches.html" xlink:title="matches" target="_parent">
<ellipse fill="none" stroke="black" cx="613.58" cy="-672.02" rx="67.35" ry="24.08"/>
<text text-anchor="middle" x="613.58" y="-665.82" font-family="Times,serif" font-size="24.00">matches</text>
</a>
</g>
</g>
<!-- strutils&#45;&gt;matches -->
<g id="edge13" class="edge">
<title>strutils&#45;&gt;matches</title>
<path fill="none" stroke="black" d="M120.43,-1146.75C137.91,-1134.61 159.5,-1118.23 176.38,-1101.02 328.78,-945.67 282.41,-824.39 464.38,-705.02 485.5,-691.17 511.57,-683.06 535.93,-678.34"/>
<polygon fill="black" stroke="black" points="536.25,-681.84 545.49,-676.66 535.04,-674.95 536.25,-681.84"/>
</g>
<!-- processTemplate -->
<g id="node15" class="node">
<title>processTemplate</title>
<g id="a_node15"><a xlink:href="html/processTemplate.html" xlink:title="processTemplate" target="_parent">
<ellipse fill="none" stroke="black" cx="613.58" cy="-1134.02" rx="124.4" ry="24.08"/>
<text text-anchor="middle" x="613.58" y="-1127.82" font-family="Times,serif" font-size="24.00">processTemplate</text>
</a>
</g>
</g>
<!-- strutils&#45;&gt;processTemplate -->
<g id="edge20" class="edge">
<title>strutils&#45;&gt;processTemplate</title>
<path fill="none" stroke="black" d="M145.7,-1163.46C225.93,-1158.4 375.1,-1149 483.29,-1142.17"/>
<polygon fill="black" stroke="black" points="483.34,-1145.68 493.1,-1141.56 482.9,-1138.69 483.34,-1145.68"/>
</g>
<!-- env -->
<g id="node17" class="node">
<title>env</title>
<g id="a_node17"><a xlink:href="html/env.html" xlink:title="env" target="_parent">
<ellipse fill="none" stroke="black" cx="613.58" cy="-1662.02" rx="36.12" ry="24.08"/>
<text text-anchor="middle" x="613.58" y="-1655.82" font-family="Times,serif" font-size="24.00">env</text>
</a>
</g>
</g>
<!-- strutils&#45;&gt;env -->
<g id="edge26" class="edge">
<title>strutils&#45;&gt;env</title>
<path fill="none" stroke="black" d="M109.61,-1189.54C127.5,-1209.42 154.05,-1239.32 176.38,-1266.02 308.48,-1424.02 289.85,-1519.7 464.38,-1629.02 494.89,-1648.13 535.01,-1656.24 565.82,-1659.65"/>
<polygon fill="black" stroke="black" points="565.33,-1663.12 575.62,-1660.6 566.01,-1656.16 565.33,-1663.12"/>
</g>
<!-- tempFile -->
<g id="node19" class="node">
<title>tempFile</title>
<g id="a_node19"><a xlink:href="html/tempFile.html" xlink:title="tempFile" target="_parent">
<ellipse fill="none" stroke="black" cx="613.58" cy="-1530.02" rx="72.25" ry="24.08"/>
<text text-anchor="middle" x="613.58" y="-1523.82" font-family="Times,serif" font-size="24.00">tempFile</text>
</a>
</g>
</g>
<!-- strutils&#45;&gt;tempFile -->
<g id="edge29" class="edge">
<title>strutils&#45;&gt;tempFile</title>
<path fill="none" stroke="black" d="M111.37,-1189.22C178.9,-1256.39 382.41,-1455.36 464.38,-1497.02 485.69,-1507.85 510.49,-1515.15 533.64,-1520.06"/>
<polygon fill="black" stroke="black" points="532.87,-1523.47 543.36,-1521.99 534.23,-1516.61 532.87,-1523.47"/>
</g>
<!-- runCommand -->
<g id="node23" class="node">
<title>runCommand</title>
<g id="a_node23"><a xlink:href="html/runCommand.html" xlink:title="runCommand" target="_parent">
<ellipse fill="none" stroke="black" cx="613.58" cy="-1332.02" rx="105.22" ry="24.08"/>
<text text-anchor="middle" x="613.58" y="-1325.82" font-family="Times,serif" font-size="24.00">runCommand</text>
</a>
</g>
</g>
<!-- strutils&#45;&gt;runCommand -->
<g id="edge37" class="edge">
<title>strutils&#45;&gt;runCommand</title>
<path fill="none" stroke="black" d="M131.14,-1183.63C199.94,-1210.45 341.4,-1263.83 464.38,-1299.02 482.92,-1304.33 502.96,-1309.29 522.13,-1313.68"/>
<polygon fill="black" stroke="black" points="521.3,-1317.08 531.83,-1315.87 522.84,-1310.26 521.3,-1317.08"/>
</g>
<!-- vartypes -->
<g id="node24" class="node">
<title>vartypes</title>
<g id="a_node24"><a xlink:href="html/vartypes.html" xlink:title="vartypes" target="_parent">
<ellipse fill="none" stroke="black" cx="613.58" cy="-870.02" rx="69.09" ry="24.08"/>
<text text-anchor="middle" x="613.58" y="-863.82" font-family="Times,serif" font-size="24.00">vartypes</text>
</a>
</g>
</g>
<!-- strutils&#45;&gt;vartypes -->
<g id="edge42" class="edge">
<title>strutils&#45;&gt;vartypes</title>
<path fill="none" stroke="black" d="M117.76,-1145.94C198.71,-1086.35 426.18,-919.9 464.38,-903.02 487.17,-892.95 513.34,-885.82 537.28,-880.83"/>
<polygon fill="black" stroke="black" points="537.85,-884.28 546.98,-878.91 536.49,-877.41 537.85,-884.28"/>
</g>
<!-- variables -->
<g id="node25" class="node">
<title>variables</title>
<g id="a_node25"><a xlink:href="html/variables.html" xlink:title="variables" target="_parent">
<ellipse fill="none" stroke="black" cx="613.58" cy="-804.02" rx="72.66" ry="24.08"/>
<text text-anchor="middle" x="613.58" y="-797.82" font-family="Times,serif" font-size="24.00">variables</text>
</a>
</g>
</g>
<!-- strutils&#45;&gt;variables -->
<g id="edge44" class="edge">
<title>strutils&#45;&gt;variables</title>
<path fill="none" stroke="black" d="M118.39,-1145.99C135.58,-1133.34 157.57,-1116.7 176.38,-1101.02 309.75,-989.83 310.4,-917.29 464.38,-837.02 485.47,-826.03 510.11,-818.68 533.17,-813.78"/>
<polygon fill="black" stroke="black" points="533.73,-817.24 542.86,-811.86 532.37,-810.37 533.73,-817.24"/>
</g>
<!-- functions -->
<g id="node26" class="node">
<title>functions</title>
<g id="a_node26"><a xlink:href="html/functions.html" xlink:title="functions" target="_parent">
<ellipse fill="none" stroke="black" cx="613.58" cy="-1596.02" rx="74.91" ry="24.08"/>
<text text-anchor="middle" x="613.58" y="-1589.82" font-family="Times,serif" font-size="24.00">functions</text>
</a>
</g>
</g>
<!-- strutils&#45;&gt;functions -->
<g id="edge49" class="edge">
<title>strutils&#45;&gt;functions</title>
<path fill="none" stroke="black" d="M109.3,-1189.75C180.63,-1270.15 419.63,-1537.65 464.38,-1563.02 484.39,-1574.37 507.98,-1581.81 530.38,-1586.7"/>
<polygon fill="black" stroke="black" points="529.63,-1590.12 540.12,-1588.66 531.01,-1583.25 529.63,-1590.12"/>
</g>
<!-- unicodes -->
<g id="node32" class="node">
<title>unicodes</title>
<g id="a_node32"><a xlink:href="html/unicodes.html" xlink:title="unicodes" target="_parent">
<ellipse fill="none" stroke="black" cx="613.58" cy="-540.02" rx="71.34" ry="24.08"/>
<text text-anchor="middle" x="613.58" y="-533.82" font-family="Times,serif" font-size="24.00">unicodes</text>
</a>
</g>
</g>
<!-- strutils&#45;&gt;unicodes -->
<g id="edge56" class="edge">
<title>strutils&#45;&gt;unicodes</title>
<path fill="none" stroke="black" d="M121.73,-1147.27C139.4,-1135.42 160.77,-1119.15 176.38,-1101.02 350.84,-898.5 250.82,-733.78 464.38,-573.02 483.65,-558.52 508.08,-550.16 531.52,-545.42"/>
<polygon fill="black" stroke="black" points="531.85,-548.92 541.07,-543.7 530.6,-542.03 531.85,-548.92"/>
</g>
<!-- parseMarkdown -->
<g id="node36" class="node">
<title>parseMarkdown</title>
<g id="a_node36"><a xlink:href="html/parseMarkdown.html" xlink:title="parseMarkdown" target="_parent">
<ellipse fill="none" stroke="black" cx="613.58" cy="-1200.02" rx="121.74" ry="24.08"/>
<text text-anchor="middle" x="613.58" y="-1193.82" font-family="Times,serif" font-size="24.00">parseMarkdown</text>
</a>
</g>
</g>
<!-- strutils&#45;&gt;parseMarkdown -->
<g id="edge62" class="edge">
<title>strutils&#45;&gt;parseMarkdown</title>
<path fill="none" stroke="black" d="M145.7,-1170.59C226.5,-1175.68 377.24,-1185.18 485.6,-1192.02"/>
<polygon fill="black" stroke="black" points="485.23,-1195.5 495.43,-1192.64 485.67,-1188.51 485.23,-1195.5"/>
</g>
<!-- replacement -->
<g id="node37" class="node">
<title>replacement</title>
<g id="a_node37"><a xlink:href="html/replacement.html" xlink:title="replacement" target="_parent">
<ellipse fill="none" stroke="black" cx="613.58" cy="-738.02" rx="94.51" ry="24.08"/>
<text text-anchor="middle" x="613.58" y="-731.82" font-family="Times,serif" font-size="24.00">replacement</text>
</a>
</g>
</g>
<!-- strutils&#45;&gt;replacement -->
<g id="edge66" class="edge">
<title>strutils&#45;&gt;replacement</title>
<path fill="none" stroke="black" d="M119.46,-1146.45C136.81,-1134.1 158.61,-1117.6 176.38,-1101.02 318.74,-968.24 297.03,-870.47 464.38,-771.02 479.86,-761.82 497.64,-755.18 515.38,-750.39"/>
<polygon fill="black" stroke="black" points="516.07,-753.83 524.93,-748.01 514.38,-747.03 516.07,-753.83"/>
</g>
<!-- startingvars -->
<g id="node38" class="node">
<title>startingvars</title>
<g id="a_node38"><a xlink:href="html/startingvars.html" xlink:title="startingvars" target="_parent">
<ellipse fill="none" stroke="black" cx="613.58" cy="-1398.02" rx="90.52" ry="24.08"/>
<text text-anchor="middle" x="613.58" y="-1391.82" font-family="Times,serif" font-size="24.00">startingvars</text>
</a>
</g>
</g>
<!-- strutils&#45;&gt;startingvars -->
<g id="edge69" class="edge">
<title>strutils&#45;&gt;startingvars</title>
<path fill="none" stroke="black" d="M120.47,-1187.25C183.2,-1226.98 329.93,-1315.59 464.38,-1365.02 483.69,-1372.12 505,-1377.96 525.3,-1382.65"/>
<polygon fill="black" stroke="black" points="524.45,-1386.04 534.97,-1384.8 525.97,-1379.21 524.45,-1386.04"/>
</g>
<!-- repl -->
<g id="node41" class="node">
<title>repl</title>
<g id="a_node41"><a xlink:href="html/repl.html" xlink:title="repl" target="_parent">
<ellipse fill="none" stroke="black" cx="613.58" cy="-276.02" rx="38.37" ry="24.08"/>
<text text-anchor="middle" x="613.58" y="-269.82" font-family="Times,serif" font-size="24.00">repl</text>
</a>
</g>
</g>
<!-- strutils&#45;&gt;repl -->
<g id="edge77" class="edge">
<title>strutils&#45;&gt;repl</title>
<path fill="none" stroke="black" d="M123.68,-1147.58C141.51,-1136.04 162.4,-1119.96 176.38,-1101.02 398.8,-799.66 182.93,-556.15 464.38,-309.02 491.46,-285.25 531.88,-277.45 563.67,-275.35"/>
<polygon fill="black" stroke="black" points="563.62,-278.86 573.44,-274.89 563.29,-271.87 563.62,-278.86"/>
</g>
<!-- options -->
<g id="node3" class="node">
<title>options</title>
<ellipse fill="none" stroke="black" cx="88.19" cy="-903.02" rx="61.54" ry="24.08"/>
<text text-anchor="middle" x="88.19" y="-896.82" font-family="Times,serif" font-size="24.00">options</text>
</g>
<!-- parseCommandLine -->
<g id="node4" class="node">
<title>parseCommandLine</title>
<g id="a_node4"><a xlink:href="html/parseCommandLine.html" xlink:title="parseCommandLine" target="_parent">
<ellipse fill="none" stroke="black" cx="613.58" cy="-1068.02" rx="149.4" ry="24.08"/>
<text text-anchor="middle" x="613.58" y="-1061.82" font-family="Times,serif" font-size="24.00">parseCommandLine</text>
</a>
</g>
</g>
<!-- options&#45;&gt;parseCommandLine -->
<g id="edge2" class="edge">
<title>options&#45;&gt;parseCommandLine</title>
<path fill="none" stroke="black" d="M132.54,-920.18C201.85,-947.17 342.23,-1000.07 464.38,-1035.02 478.55,-1039.08 493.61,-1042.94 508.48,-1046.49"/>
<polygon fill="black" stroke="black" points="507.25,-1049.8 517.79,-1048.68 508.85,-1042.98 507.25,-1049.8"/>
</g>
<!-- options&#45;&gt;matches -->
<g id="edge14" class="edge">
<title>options&#45;&gt;matches</title>
<path fill="none" stroke="black" d="M120.95,-882.48C183.96,-842.61 330.28,-754.33 464.38,-705.02 488.62,-696.11 516.02,-689.18 540.61,-684.03"/>
<polygon fill="black" stroke="black" points="541.09,-687.5 550.2,-682.09 539.7,-680.64 541.09,-687.5"/>
</g>
<!-- regexes -->
<g id="node14" class="node">
<title>regexes</title>
<g id="a_node14"><a xlink:href="html/regexes.html" xlink:title="regexes" target="_parent">
<ellipse fill="none" stroke="black" cx="613.58" cy="-474.02" rx="62.87" ry="24.08"/>
<text text-anchor="middle" x="613.58" y="-467.82" font-family="Times,serif" font-size="24.00">regexes</text>
</a>
</g>
</g>
<!-- options&#45;&gt;regexes -->
<g id="edge16" class="edge">
<title>options&#45;&gt;regexes</title>
<path fill="none" stroke="black" d="M103.78,-879.75C148.38,-810.69 290.54,-605.57 464.38,-507.02 487.55,-493.89 515.52,-485.98 540.89,-481.22"/>
<polygon fill="black" stroke="black" points="541.21,-484.72 550.46,-479.56 540.01,-477.82 541.21,-484.72"/>
</g>
<!-- options&#45;&gt;processTemplate -->
<g id="edge18" class="edge">
<title>options&#45;&gt;processTemplate</title>
<path fill="none" stroke="black" d="M120.95,-923.56C183.96,-963.43 330.28,-1051.71 464.38,-1101.02 478.81,-1106.33 494.37,-1110.93 509.78,-1114.87"/>
<polygon fill="black" stroke="black" points="508.94,-1118.27 519.48,-1117.27 510.61,-1111.48 508.94,-1118.27"/>
</g>
<!-- options&#45;&gt;env -->
<g id="edge25" class="edge">
<title>options&#45;&gt;env</title>
<path fill="none" stroke="black" d="M105.91,-926.27C124.22,-952.19 153.96,-995.64 176.38,-1035.02 321.55,-1289.98 234.27,-1447.01 464.38,-1629.02 493.1,-1651.74 534.3,-1659.52 565.97,-1661.88"/>
<polygon fill="black" stroke="black" points="565.47,-1665.36 575.66,-1662.44 565.88,-1658.37 565.47,-1665.36"/>
</g>
<!-- options&#45;&gt;tempFile -->
<g id="edge30" class="edge">
<title>options&#45;&gt;tempFile</title>
<path fill="none" stroke="black" d="M104.81,-926.27C122.41,-952.54 151.76,-996.65 176.38,-1035.02 307.07,-1238.65 266.92,-1357.18 464.38,-1497.02 483.79,-1510.77 507.93,-1518.93 531.05,-1523.72"/>
<polygon fill="black" stroke="black" points="530.34,-1527.15 540.81,-1525.54 531.62,-1520.27 530.34,-1527.15"/>
</g>
<!-- linebuffer -->
<g id="node21" class="node">
<title>linebuffer</title>
<g id="a_node21"><a xlink:href="html/linebuffer.html" xlink:title="linebuffer" target="_parent">
<ellipse fill="none" stroke="black" cx="613.58" cy="-936.02" rx="78.48" ry="24.08"/>
<text text-anchor="middle" x="613.58" y="-929.82" font-family="Times,serif" font-size="24.00">linebuffer</text>
</a>
</g>
</g>
<!-- options&#45;&gt;linebuffer -->
<g id="edge33" class="edge">
<title>options&#45;&gt;linebuffer</title>
<path fill="none" stroke="black" d="M149.23,-906.81C241.46,-912.62 418.48,-923.78 525.01,-930.5"/>
<polygon fill="black" stroke="black" points="524.66,-933.99 534.86,-931.12 525.1,-927 524.66,-933.99"/>
</g>
<!-- parseCmdLine -->
<g id="node22" class="node">
<title>parseCmdLine</title>
<g id="a_node22"><a xlink:href="html/parseCmdLine.html" xlink:title="parseCmdLine" target="_parent">
<ellipse fill="none" stroke="black" cx="613.58" cy="-606.02" rx="111.95" ry="24.08"/>
<text text-anchor="middle" x="613.58" y="-599.82" font-family="Times,serif" font-size="24.00">parseCmdLine</text>
</a>
</g>
</g>
<!-- options&#45;&gt;parseCmdLine -->
<g id="edge34" class="edge">
<title>options&#45;&gt;parseCmdLine</title>
<path fill="none" stroke="black" d="M113.43,-880.66C170.17,-829.58 317.95,-703.73 464.38,-639.02 479.07,-632.53 495.17,-627.26 511.16,-622.99"/>
<polygon fill="black" stroke="black" points="511.9,-626.42 520.74,-620.57 510.19,-619.63 511.9,-626.42"/>
</g>
<!-- options&#45;&gt;runCommand -->
<g id="edge36" class="edge">
<title>options&#45;&gt;runCommand</title>
<path fill="none" stroke="black" d="M103.78,-926.29C148.38,-995.36 290.54,-1200.47 464.38,-1299.02 478.26,-1306.89 493.86,-1312.88 509.6,-1317.45"/>
<polygon fill="black" stroke="black" points="508.46,-1320.77 519.03,-1319.99 510.28,-1314.01 508.46,-1320.77"/>
</g>
<!-- options&#45;&gt;vartypes -->
<g id="edge43" class="edge">
<title>options&#45;&gt;vartypes</title>
<path fill="none" stroke="black" d="M149.23,-899.24C244.18,-893.25 428.99,-881.6 534.25,-874.96"/>
<polygon fill="black" stroke="black" points="534.16,-878.47 543.92,-874.35 533.72,-871.49 534.16,-878.47"/>
</g>
<!-- options&#45;&gt;variables -->
<g id="edge45" class="edge">
<title>options&#45;&gt;variables</title>
<path fill="none" stroke="black" d="M144.21,-892.61C238.79,-874.72 432.26,-838.13 538.56,-818.02"/>
<polygon fill="black" stroke="black" points="539.16,-821.47 548.34,-816.17 537.86,-814.59 539.16,-821.47"/>
</g>
<!-- options&#45;&gt;functions -->
<g id="edge47" class="edge">
<title>options&#45;&gt;functions</title>
<path fill="none" stroke="black" d="M105.55,-926.48C123.55,-952.58 153.02,-996.19 176.38,-1035.02 314.17,-1264.08 250.82,-1402.26 464.38,-1563.02 482.76,-1576.86 505.82,-1585.09 528.25,-1589.94"/>
<polygon fill="black" stroke="black" points="527.57,-1593.37 538.05,-1591.83 528.89,-1586.5 527.57,-1593.37"/>
</g>
<!-- parseNumber -->
<g id="node29" class="node">
<title>parseNumber</title>
<g id="a_node29"><a xlink:href="html/parseNumber.html" xlink:title="parseNumber" target="_parent">
<ellipse fill="none" stroke="black" cx="613.58" cy="-120.02" rx="103.48" ry="24.08"/>
<text text-anchor="middle" x="613.58" y="-113.82" font-family="Times,serif" font-size="24.00">parseNumber</text>
</a>
</g>
</g>
<!-- options&#45;&gt;parseNumber -->
<g id="edge53" class="edge">
<title>options&#45;&gt;parseNumber</title>
<path fill="none" stroke="black" d="M99.08,-878.89C136.87,-788.49 279.41,-463.76 464.38,-243.02 495.07,-206.4 537.67,-172.34 569.33,-149.39"/>
<polygon fill="black" stroke="black" points="571.03,-152.47 577.13,-143.81 566.96,-146.78 571.03,-152.47"/>
</g>
<!-- options&#45;&gt;replacement -->
<g id="edge63" class="edge">
<title>options&#45;&gt;replacement</title>
<path fill="none" stroke="black" d="M132.54,-885.87C201.85,-858.87 342.23,-805.98 464.38,-771.02 484.47,-765.28 506.32,-759.92 526.92,-755.27"/>
<polygon fill="black" stroke="black" points="527.41,-758.75 536.41,-753.16 525.89,-751.92 527.41,-758.75"/>
</g>
<!-- updateTemplate -->
<g id="node39" class="node">
<title>updateTemplate</title>
<g id="a_node39"><a xlink:href="html/updateTemplate.html" xlink:title="updateTemplate" target="_parent">
<ellipse fill="none" stroke="black" cx="613.58" cy="-1266.02" rx="119.5" ry="24.08"/>
<text text-anchor="middle" x="613.58" y="-1259.82" font-family="Times,serif" font-size="24.00">updateTemplate</text>
</a>
</g>
</g>
<!-- options&#45;&gt;updateTemplate -->
<g id="edge72" class="edge">
<title>options&#45;&gt;updateTemplate</title>
<path fill="none" stroke="black" d="M107.94,-926.16C158.5,-986.91 304.69,-1151.85 464.38,-1233.02 477.11,-1239.49 491.1,-1244.71 505.23,-1248.9"/>
<polygon fill="black" stroke="black" points="504.02,-1252.19 514.59,-1251.5 505.89,-1245.45 504.02,-1252.19"/>
</g>
<!-- options&#45;&gt;repl -->
<g id="edge76" class="edge">
<title>options&#45;&gt;repl</title>
<path fill="none" stroke="black" d="M96.85,-878.71C126.93,-787.43 246.18,-462.59 464.38,-309.02 493.34,-288.64 532.71,-280.56 563.6,-277.49"/>
<polygon fill="black" stroke="black" points="563.8,-280.98 573.47,-276.67 563.22,-274.01 563.8,-280.98"/>
</g>
<!-- tables -->
<g id="node5" class="node">
<title>tables</title>
<ellipse fill="none" stroke="black" cx="88.19" cy="-1068.02" rx="50.82" ry="24.08"/>
<text text-anchor="middle" x="88.19" y="-1061.82" font-family="Times,serif" font-size="24.00">tables</text>
</g>
<!-- tables&#45;&gt;parseCommandLine -->
<g id="edge3" class="edge">
<title>tables&#45;&gt;parseCommandLine</title>
<path fill="none" stroke="black" d="M139.38,-1068.02C210.85,-1068.02 345.21,-1068.02 452.55,-1068.02"/>
<polygon fill="black" stroke="black" points="452.32,-1071.52 462.32,-1068.02 452.32,-1064.52 452.32,-1071.52"/>
</g>
<!-- args -->
<g id="node8" class="node">
<title>args</title>
<g id="a_node8"><a xlink:href="html/args.html" xlink:title="args" target="_parent">
<ellipse fill="none" stroke="black" cx="613.58" cy="-408.02" rx="39.7" ry="24.08"/>
<text text-anchor="middle" x="613.58" y="-401.82" font-family="Times,serif" font-size="24.00">args</text>
</a>
</g>
</g>
<!-- tables&#45;&gt;args -->
<g id="edge9" class="edge">
<title>tables&#45;&gt;args</title>
<path fill="none" stroke="black" d="M105.03,-1044.91C122.82,-1018.76 152.34,-974.76 176.38,-936.02 310.58,-719.75 258.94,-591.28 464.38,-441.02 492.59,-420.39 531.32,-412.28 562.11,-409.25"/>
<polygon fill="black" stroke="black" points="562.3,-412.75 571.98,-408.45 561.73,-405.77 562.3,-412.75"/>
</g>
<!-- tables&#45;&gt;cmdline -->
<g id="edge11" class="edge">
<title>tables&#45;&gt;cmdline</title>
<path fill="none" stroke="black" d="M117.53,-1087.79C135.02,-1100.39 157.61,-1117.42 176.38,-1134.02 314.08,-1255.87 303.9,-1341.27 464.38,-1431.02 486.63,-1443.46 513.21,-1451.21 537.68,-1456.04"/>
<polygon fill="black" stroke="black" points="536.8,-1459.44 547.26,-1457.79 538.05,-1452.55 536.8,-1459.44"/>
</g>
<!-- tables&#45;&gt;regexes -->
<g id="edge17" class="edge">
<title>tables&#45;&gt;regexes</title>
<path fill="none" stroke="black" d="M104.53,-1044.84C174.17,-939.6 457.6,-511.67 464.38,-507.02 486.46,-491.91 514.32,-483.6 539.91,-479.06"/>
<polygon fill="black" stroke="black" points="540.27,-482.55 549.6,-477.53 539.18,-475.64 540.27,-482.55"/>
</g>
<!-- tables&#45;&gt;processTemplate -->
<g id="edge19" class="edge">
<title>tables&#45;&gt;processTemplate</title>
<path fill="none" stroke="black" d="M137.49,-1074.11C218.6,-1084.34 384.32,-1105.24 496.94,-1119.44"/>
<polygon fill="black" stroke="black" points="496.49,-1122.91 506.85,-1120.69 497.37,-1115.97 496.49,-1122.91"/>
</g>
<!-- tables&#45;&gt;parseCmdLine -->
<g id="edge35" class="edge">
<title>tables&#45;&gt;parseCmdLine</title>
<path fill="none" stroke="black" d="M106.02,-1045.28C166.2,-964.59 371.96,-693.88 464.38,-639.02 476.93,-631.57 490.99,-625.8 505.32,-621.33"/>
<polygon fill="black" stroke="black" points="506.21,-624.71 514.85,-618.58 504.27,-617.99 506.21,-624.71"/>
</g>
<!-- tables&#45;&gt;runCommand -->
<g id="edge38" class="edge">
<title>tables&#45;&gt;runCommand</title>
<path fill="none" stroke="black" d="M115.73,-1088.77C174.86,-1133.95 323.33,-1241.79 464.38,-1299.02 480.66,-1305.63 498.52,-1311.03 516.02,-1315.41"/>
<polygon fill="black" stroke="black" points="514.84,-1318.73 525.38,-1317.66 516.47,-1311.92 514.84,-1318.73"/>
</g>
<!-- tables&#45;&gt;vartypes -->
<g id="edge41" class="edge">
<title>tables&#45;&gt;vartypes</title>
<path fill="none" stroke="black" d="M123.47,-1050.22C188.42,-1017.11 334.55,-945.57 464.38,-903.02 488.71,-895.05 515.91,-888.38 540.3,-883.16"/>
<polygon fill="black" stroke="black" points="540.73,-886.65 549.81,-881.18 539.3,-879.8 540.73,-886.65"/>
</g>
<!-- tables&#45;&gt;variables -->
<g id="edge46" class="edge">
<title>tables&#45;&gt;variables</title>
<path fill="none" stroke="black" d="M115.73,-1047.28C174.86,-1002.1 323.33,-894.26 464.38,-837.02 486.74,-827.95 512.05,-821.15 535.35,-816.15"/>
<polygon fill="black" stroke="black" points="536.03,-819.58 545.12,-814.15 534.62,-812.73 536.03,-819.58"/>
</g>
<!-- tables&#45;&gt;functions -->
<g id="edge48" class="edge">
<title>tables&#45;&gt;functions</title>
<path fill="none" stroke="black" d="M119.45,-1087.21C137.21,-1099.34 159.43,-1116.08 176.38,-1134.02 334.1,-1300.95 274.76,-1433.48 464.38,-1563.02 483.28,-1575.93 506.41,-1583.88 528.72,-1588.75"/>
<polygon fill="black" stroke="black" points="527.96,-1592.17 538.45,-1590.67 529.32,-1585.3 527.96,-1592.17"/>
</g>
<!-- signatures -->
<g id="node33" class="node">
<title>signatures</title>
<g id="a_node33"><a xlink:href="html/signatures.html" xlink:title="signatures" target="_parent">
<ellipse fill="none" stroke="black" cx="613.58" cy="-1002.02" rx="79.81" ry="24.08"/>
<text text-anchor="middle" x="613.58" y="-995.82" font-family="Times,serif" font-size="24.00">signatures</text>
</a>
</g>
</g>
<!-- tables&#45;&gt;signatures -->
<g id="edge57" class="edge">
<title>tables&#45;&gt;signatures</title>
<path fill="none" stroke="black" d="M137.49,-1061.93C226.55,-1050.7 417.63,-1026.61 528.41,-1012.64"/>
<polygon fill="black" stroke="black" points="528.54,-1016.15 538.03,-1011.42 527.67,-1009.2 528.54,-1016.15"/>
</g>
<!-- readjson -->
<g id="node34" class="node">
<title>readjson</title>
<g id="a_node34"><a xlink:href="html/readjson.html" xlink:title="readjson" target="_parent">
<ellipse fill="none" stroke="black" cx="613.58" cy="-1794.02" rx="69.09" ry="24.08"/>
<text text-anchor="middle" x="613.58" y="-1787.82" font-family="Times,serif" font-size="24.00">readjson</text>
</a>
</g>
</g>
<!-- tables&#45;&gt;readjson -->
<g id="edge61" class="edge">
<title>tables&#45;&gt;readjson</title>
<path fill="none" stroke="black" d="M120.95,-1086.54C139.02,-1098.32 161.04,-1114.93 176.38,-1134.02 368.42,-1373.1 225.87,-1568.28 464.38,-1761.02 483.85,-1776.75 509.26,-1785.36 533.54,-1789.95"/>
<polygon fill="black" stroke="black" points="532.65,-1793.35 543.09,-1791.54 533.8,-1786.45 532.65,-1793.35"/>
</g>
<!-- tables&#45;&gt;startingvars -->
<g id="edge68" class="edge">
<title>tables&#45;&gt;startingvars</title>
<path fill="none" stroke="black" d="M116.44,-1088.34C133.71,-1101.29 156.46,-1118.5 176.38,-1134.02 305.81,-1234.88 316.46,-1294.01 464.38,-1365.02 482.04,-1373.5 501.94,-1379.84 521.29,-1384.56"/>
<polygon fill="black" stroke="black" points="520.27,-1387.92 530.8,-1386.75 521.84,-1381.1 520.27,-1387.92"/>
</g>
<!-- tables&#45;&gt;updateTemplate -->
<g id="edge73" class="edge">
<title>tables&#45;&gt;updateTemplate</title>
<path fill="none" stroke="black" d="M123.47,-1085.83C188.42,-1118.93 334.55,-1190.47 464.38,-1233.02 480.3,-1238.24 497.46,-1242.9 514.25,-1246.96"/>
<polygon fill="black" stroke="black" points="513.21,-1250.31 523.74,-1249.2 514.81,-1243.5 513.21,-1250.31"/>
</g>
<!-- tables&#45;&gt;repl -->
<g id="edge75" class="edge">
<title>tables&#45;&gt;repl</title>
<path fill="none" stroke="black" d="M105.73,-1045.33C124.15,-1019.55 154.24,-975.88 176.38,-936.02 325.32,-667.97 225.87,-501.76 464.38,-309.02 492.23,-286.52 532.24,-278.61 563.67,-276.13"/>
<polygon fill="black" stroke="black" points="563.55,-279.65 573.32,-275.55 563.12,-272.66 563.55,-279.65"/>
</g>
<!-- os -->
<g id="node6" class="node">
<title>os</title>
<ellipse fill="none" stroke="black" cx="88.19" cy="-1461.02" rx="27" ry="24.08"/>
<text text-anchor="middle" x="88.19" y="-1454.82" font-family="Times,serif" font-size="24.00">os</text>
</g>
<!-- os&#45;&gt;statictea -->
<g id="edge83" class="edge">
<title>os&#45;&gt;statictea</title>
<path fill="none" stroke="black" d="M113.95,-1468.57C131.8,-1474.44 156.2,-1483.37 176.38,-1494.02 314.43,-1566.87 321.49,-1632.2 464.38,-1695.02 487.71,-1705.28 514.56,-1712.5 538.94,-1717.51"/>
<polygon fill="black" stroke="black" points="537.98,-1720.88 548.46,-1719.37 539.32,-1714.01 537.98,-1720.88"/>
</g>
<!-- os&#45;&gt;parseCommandLine -->
<g id="edge4" class="edge">
<title>os&#45;&gt;parseCommandLine</title>
<path fill="none" stroke="black" d="M103.68,-1440.78C149.09,-1378.98 295.7,-1191.41 464.38,-1101.02 473.61,-1096.08 483.54,-1091.88 493.73,-1088.3"/>
<polygon fill="black" stroke="black" points="494.57,-1091.71 502.99,-1085.27 492.39,-1085.05 494.57,-1091.71"/>
</g>
<!-- os&#45;&gt;cmdline -->
<g id="edge10" class="edge">
<title>os&#45;&gt;cmdline</title>
<path fill="none" stroke="black" d="M115.5,-1461.17C191.91,-1461.61 415.94,-1462.9 535.44,-1463.58"/>
<polygon fill="black" stroke="black" points="535.13,-1467.08 545.15,-1463.64 535.17,-1460.08 535.13,-1467.08"/>
</g>
<!-- os&#45;&gt;env -->
<g id="edge23" class="edge">
<title>os&#45;&gt;env</title>
<path fill="none" stroke="black" d="M113.82,-1469.77C131.39,-1476.15 155.51,-1485.2 176.38,-1494.02 306.58,-1549.08 330.59,-1583.39 464.38,-1629.02 497.97,-1640.48 537.22,-1649.01 566.88,-1654.53"/>
<polygon fill="black" stroke="black" points="566.2,-1657.96 576.66,-1656.3 567.44,-1651.07 566.2,-1657.96"/>
</g>
<!-- os&#45;&gt;tempFile -->
<g id="edge27" class="edge">
<title>os&#45;&gt;tempFile</title>
<path fill="none" stroke="black" d="M115.15,-1464.44C191.08,-1474.45 414.97,-1503.97 534.8,-1519.77"/>
<polygon fill="black" stroke="black" points="534.2,-1523.22 544.57,-1521.06 535.11,-1516.28 534.2,-1523.22"/>
</g>
<!-- os&#45;&gt;runCommand -->
<g id="edge39" class="edge">
<title>os&#45;&gt;runCommand</title>
<path fill="none" stroke="black" d="M114.6,-1454.23C175.05,-1438.12 332.29,-1396.62 464.38,-1365.02 483.87,-1360.36 504.84,-1355.56 524.71,-1351.11"/>
<polygon fill="black" stroke="black" points="525.46,-1354.53 534.46,-1348.94 523.94,-1347.7 525.46,-1354.53"/>
</g>
<!-- os&#45;&gt;functions -->
<g id="edge51" class="edge">
<title>os&#45;&gt;functions</title>
<path fill="none" stroke="black" d="M114.11,-1468.23C174.16,-1485.49 331.68,-1530.23 464.38,-1563.02 488.68,-1569.03 515.34,-1575.12 539.28,-1580.4"/>
<polygon fill="black" stroke="black" points="538.42,-1583.8 548.94,-1582.53 539.92,-1576.96 538.42,-1583.8"/>
</g>
<!-- os&#45;&gt;readjson -->
<g id="edge59" class="edge">
<title>os&#45;&gt;readjson</title>
<path fill="none" stroke="black" d="M114.42,-1467.74C132.5,-1473.21 156.98,-1482 176.38,-1494.02 324.75,-1585.95 309.83,-1679.91 464.38,-1761.02 486.24,-1772.5 511.95,-1779.99 535.75,-1784.88"/>
<polygon fill="black" stroke="black" points="534.93,-1788.29 545.41,-1786.73 536.25,-1781.42 534.93,-1788.29"/>
</g>
<!-- os&#45;&gt;startingvars -->
<g id="edge67" class="edge">
<title>os&#45;&gt;startingvars</title>
<path fill="none" stroke="black" d="M115.15,-1457.9C187.95,-1449.13 396.8,-1424 519.5,-1409.23"/>
<polygon fill="black" stroke="black" points="519.72,-1412.72 529.23,-1408.05 518.89,-1405.77 519.72,-1412.72"/>
</g>
<!-- os&#45;&gt;updateTemplate -->
<g id="edge71" class="edge">
<title>os&#45;&gt;updateTemplate</title>
<path fill="none" stroke="black" d="M112.3,-1449.21C170.19,-1420.02 326.69,-1343.64 464.38,-1299.02 480.32,-1293.86 497.49,-1289.22 514.28,-1285.17"/>
<polygon fill="black" stroke="black" points="514.84,-1288.64 523.78,-1282.94 513.24,-1281.82 514.84,-1288.64"/>
</g>
<!-- strformat -->
<g id="node7" class="node">
<title>strformat</title>
<ellipse fill="none" stroke="black" cx="88.19" cy="-414.02" rx="74.49" ry="24.08"/>
<text text-anchor="middle" x="88.19" y="-407.82" font-family="Times,serif" font-size="24.00">strformat</text>
</g>
<!-- strformat&#45;&gt;args -->
<g id="edge5" class="edge">
<title>strformat&#45;&gt;args</title>
<path fill="none" stroke="black" d="M163.07,-413.18C271.16,-411.94 469.6,-409.66 562.34,-408.6"/>
<polygon fill="black" stroke="black" points="562.17,-412.1 572.13,-408.49 562.09,-405.1 562.17,-412.1"/>
</g>
<!-- strformat&#45;&gt;messages -->
<g id="edge8" class="edge">
<title>strformat&#45;&gt;messages</title>
<path fill="none" stroke="black" d="M157.35,-404.65C253.94,-391.36 430.3,-367.1 532.85,-352.99"/>
<polygon fill="black" stroke="black" points="533.13,-356.48 542.56,-351.65 532.18,-349.55 533.13,-356.48"/>
</g>
<!-- strformat&#45;&gt;replacement -->
<g id="edge65" class="edge">
<title>strformat&#45;&gt;replacement</title>
<path fill="none" stroke="black" d="M142.76,-430.73C154.23,-435.27 166.01,-440.72 176.38,-447.02 323.23,-536.28 311.54,-626.46 464.38,-705.02 480.86,-713.49 499.47,-719.8 517.79,-724.5"/>
<polygon fill="black" stroke="black" points="516.82,-727.86 527.36,-726.79 518.45,-721.06 516.82,-727.86"/>
</g>
<!-- strformat&#45;&gt;repl -->
<g id="edge78" class="edge">
<title>strformat&#45;&gt;repl</title>
<path fill="none" stroke="black" d="M143.94,-397.7C216.78,-376.22 349.74,-337.81 464.38,-309.02 498.12,-300.55 536.46,-292.04 565.69,-285.79"/>
<polygon fill="black" stroke="black" points="566.29,-289.24 575.34,-283.74 564.83,-282.39 566.29,-289.24"/>
</g>
<!-- macros -->
<g id="node9" class="node">
<title>macros</title>
<polygon fill="palegreen" stroke="black" points="153.84,-331.24 153.84,-352.81 115.39,-368.06 61,-368.06 22.54,-352.81 22.54,-331.24 61,-315.98 115.39,-315.98 153.84,-331.24"/>
<polygon fill="none" stroke="black" points="157.83,-328.51 157.83,-355.53 116.15,-372.07 60.24,-372.07 18.55,-355.53 18.55,-328.51 60.24,-311.98 116.15,-311.98 157.83,-328.51"/>
<text text-anchor="middle" x="88.19" y="-335.82" font-family="Times,serif" font-size="24.00">macros</text>
</g>
<!-- macros&#45;&gt;messages -->
<g id="edge6" class="edge">
<title>macros&#45;&gt;messages</title>
<path fill="none" stroke="black" d="M158.15,-342.02C253.13,-342.02 424.12,-342.02 527.11,-342.02"/>
<polygon fill="black" stroke="black" points="526.88,-345.52 536.88,-342.02 526.88,-338.52 526.88,-345.52"/>
</g>
<!-- re -->
<g id="node13" class="node">
<title>re</title>
<polygon fill="palegreen" stroke="black" points="115.19,-475.24 115.19,-496.81 99.37,-512.06 77.01,-512.06 61.19,-496.81 61.19,-475.24 77.01,-459.98 99.37,-459.98 115.19,-475.24"/>
<polygon fill="none" stroke="black" points="119.19,-473.53 119.19,-498.51 100.99,-516.07 75.39,-516.07 57.19,-498.51 57.19,-473.53 75.39,-455.98 100.99,-455.98 119.19,-473.53"/>
<text text-anchor="middle" x="88.19" y="-479.82" font-family="Times,serif" font-size="24.00">re</text>
</g>
<!-- re&#45;&gt;regexes -->
<g id="edge15" class="edge">
<title>re&#45;&gt;regexes</title>
<path fill="none" stroke="black" d="M119.59,-485.33C200.46,-483.47 422.61,-478.38 539.1,-475.71"/>
<polygon fill="black" stroke="black" points="538.95,-479.21 548.86,-475.48 538.79,-472.21 538.95,-479.21"/>
</g>
<!-- streams -->
<g id="node16" class="node">
<title>streams</title>
<ellipse fill="none" stroke="black" cx="88.19" cy="-1299.02" rx="62.87" ry="24.08"/>
<text text-anchor="middle" x="88.19" y="-1292.82" font-family="Times,serif" font-size="24.00">streams</text>
</g>
<!-- streams&#45;&gt;processTemplate -->
<g id="edge21" class="edge">
<title>streams&#45;&gt;processTemplate</title>
<path fill="none" stroke="black" d="M132.83,-1281.76C202.23,-1254.73 342.4,-1201.93 464.38,-1167.02 480.6,-1162.38 497.96,-1158 514.89,-1154.04"/>
<polygon fill="black" stroke="black" points="515.51,-1157.49 524.47,-1151.83 513.94,-1150.67 515.51,-1157.49"/>
</g>
<!-- streams&#45;&gt;env -->
<g id="edge22" class="edge">
<title>streams&#45;&gt;env</title>
<path fill="none" stroke="black" d="M107.94,-1322.16C158.5,-1382.91 304.69,-1547.85 464.38,-1629.02 496.26,-1645.23 535.97,-1653.52 566.26,-1657.74"/>
<polygon fill="black" stroke="black" points="565.51,-1661.18 575.87,-1658.98 566.4,-1654.23 565.51,-1661.18"/>
</g>
<!-- streams&#45;&gt;tempFile -->
<g id="edge31" class="edge">
<title>streams&#45;&gt;tempFile</title>
<path fill="none" stroke="black" d="M121.44,-1319.87C184.71,-1359.89 330.62,-1447.84 464.38,-1497.02 487.45,-1505.5 513.37,-1512.18 537.01,-1517.25"/>
<polygon fill="black" stroke="black" points="536.06,-1520.63 546.56,-1519.23 537.48,-1513.77 536.06,-1520.63"/>
</g>
<!-- streams&#45;&gt;linebuffer -->
<g id="edge32" class="edge">
<title>streams&#45;&gt;linebuffer</title>
<path fill="none" stroke="black" d="M111.85,-1276.34C179.86,-1208.72 382.6,-1010.59 464.38,-969.02 484.19,-958.95 507.03,-951.94 528.74,-947.06"/>
<polygon fill="black" stroke="black" points="529.43,-950.49 538.5,-945 527.99,-943.64 529.43,-950.49"/>
</g>
<!-- streams&#45;&gt;runCommand -->
<g id="edge40" class="edge">
<title>streams&#45;&gt;runCommand</title>
<path fill="none" stroke="black" d="M150.51,-1302.89C236.2,-1308.29 393.25,-1318.19 500.24,-1324.94"/>
<polygon fill="black" stroke="black" points="500.01,-1328.43 510.21,-1325.57 500.45,-1321.45 500.01,-1328.43"/>
</g>
<!-- streams&#45;&gt;readjson -->
<g id="edge58" class="edge">
<title>streams&#45;&gt;readjson</title>
<path fill="none" stroke="black" d="M105.21,-1322.62C163.87,-1408.41 368.6,-1701.78 464.38,-1761.02 485.38,-1774.01 510.85,-1781.91 534.71,-1786.71"/>
<polygon fill="black" stroke="black" points="533.95,-1790.13 544.41,-1788.49 535.21,-1783.24 533.95,-1790.13"/>
</g>
<!-- streams&#45;&gt;replacement -->
<g id="edge64" class="edge">
<title>streams&#45;&gt;replacement</title>
<path fill="none" stroke="black" d="M110.87,-1276.15C129.08,-1256.55 155.41,-1227.23 176.38,-1200.02 316.57,-1018.13 274.76,-900.57 464.38,-771.02 478.98,-761.05 496.1,-754.04 513.43,-749.12"/>
<polygon fill="black" stroke="black" points="513.95,-752.6 522.75,-746.7 512.19,-745.82 513.95,-752.6"/>
</g>
<!-- streams&#45;&gt;updateTemplate -->
<g id="edge70" class="edge">
<title>streams&#45;&gt;updateTemplate</title>
<path fill="none" stroke="black" d="M150.51,-1295.16C232.88,-1289.96 381.18,-1280.61 487.58,-1273.9"/>
<polygon fill="black" stroke="black" points="487.77,-1277.4 497.53,-1273.28 487.33,-1270.41 487.77,-1277.4"/>
</g>
<!-- times -->
<g id="node18" class="node">
<title>times</title>
<ellipse fill="none" stroke="red" cx="88.19" cy="-1860.02" rx="48.17" ry="24.08"/>
<text text-anchor="middle" x="88.19" y="-1853.82" font-family="Times,serif" font-size="24.00">times</text>
</g>
<!-- times&#45;&gt;env -->
<g id="edge24" class="edge">
<title>times&#45;&gt;env</title>
<path fill="none" stroke="red" d="M128.04,-1845.96C143.21,-1840.3 160.7,-1833.57 176.38,-1827.02 306.3,-1772.74 330.92,-1739.91 464.38,-1695.02 498.02,-1683.71 537.26,-1675.17 566.91,-1669.61"/>
<polygon fill="red" stroke="red" points="567.48,-1673.07 576.69,-1667.83 566.22,-1666.18 567.48,-1673.07"/>
</g>
<!-- timer -->
<g id="node44" class="node">
<title>timer</title>
<g id="a_node44"><a xlink:href="html/timer.html" xlink:title="timer" target="_parent">
<ellipse fill="none" stroke="black" cx="613.58" cy="-1860.02" rx="48.17" ry="24.08"/>
<text text-anchor="middle" x="613.58" y="-1853.82" font-family="Times,serif" font-size="24.00">timer</text>
</a>
</g>
</g>
<!-- times&#45;&gt;timer -->
<g id="edge81" class="edge">
<title>times&#45;&gt;timer</title>
<path fill="none" stroke="red" d="M136.56,-1860.02C232.37,-1860.02 448.9,-1860.02 553.64,-1860.02"/>
<polygon fill="red" stroke="red" points="553.43,-1863.52 563.43,-1860.02 553.43,-1856.52 553.43,-1863.52"/>
</g>
<!-- random -->
<g id="node20" class="node">
<title>random</title>
<polygon fill="palegreen" stroke="black" points="156.96,-1522.24 156.96,-1543.81 116.68,-1559.06 59.7,-1559.06 19.42,-1543.81 19.42,-1522.24 59.7,-1506.98 116.68,-1506.98 156.96,-1522.24"/>
<polygon fill="none" stroke="black" points="160.96,-1519.47 160.96,-1546.58 117.41,-1563.07 58.97,-1563.07 15.42,-1546.58 15.42,-1519.47 58.97,-1502.98 117.41,-1502.98 160.96,-1519.47"/>
<text text-anchor="middle" x="88.19" y="-1526.82" font-family="Times,serif" font-size="24.00">random</text>
</g>
<!-- random&#45;&gt;tempFile -->
<g id="edge28" class="edge">
<title>random&#45;&gt;tempFile</title>
<path fill="none" stroke="black" d="M161.42,-1532.61C257.81,-1532.06 428.14,-1531.08 529.67,-1530.5"/>
<polygon fill="black" stroke="black" points="529.6,-1534 539.58,-1530.44 529.56,-1527 529.6,-1534"/>
</g>
<!-- math -->
<g id="node27" class="node">
<title>math</title>
<ellipse fill="none" stroke="red" cx="88.19" cy="-1700.02" rx="45.92" ry="24.08"/>
<text text-anchor="middle" x="88.19" y="-1693.82" font-family="Times,serif" font-size="24.00">math</text>
</g>
<!-- math&#45;&gt;functions -->
<g id="edge50" class="edge">
<title>math&#45;&gt;functions</title>
<path fill="none" stroke="red" d="M131.58,-1691.6C220.28,-1673.97 426.45,-1633.01 537.89,-1610.86"/>
<polygon fill="red" stroke="red" points="538.42,-1614.33 547.54,-1608.95 537.05,-1607.46 538.42,-1614.33"/>
</g>
<!-- math&#45;&gt;timer -->
<g id="edge82" class="edge">
<title>math&#45;&gt;timer</title>
<path fill="none" stroke="red" d="M126.05,-1713.98C192.83,-1738.92 338.55,-1791.83 464.38,-1827.02 494.72,-1835.51 529.04,-1843.27 557.01,-1849.12"/>
<polygon fill="red" stroke="red" points="556.19,-1852.53 566.69,-1851.13 557.61,-1845.67 556.19,-1852.53"/>
</g>
<!-- algorithm -->
<g id="node28" class="node">
<title>algorithm</title>
<polygon fill="palegreen" stroke="black" points="172.56,-1600.24 172.56,-1621.81 123.14,-1637.06 53.24,-1637.06 3.82,-1621.81 3.82,-1600.24 53.24,-1584.98 123.14,-1584.98 172.56,-1600.24"/>
<polygon fill="none" stroke="black" points="176.57,-1597.28 176.57,-1624.76 123.74,-1641.07 52.64,-1641.07 -0.19,-1624.76 -0.19,-1597.28 52.64,-1580.98 123.74,-1580.98 176.57,-1597.28"/>
<text text-anchor="middle" x="88.19" y="-1604.82" font-family="Times,serif" font-size="24.00">algorithm</text>
</g>
<!-- algorithm&#45;&gt;functions -->
<g id="edge52" class="edge">
<title>algorithm&#45;&gt;functions</title>
<path fill="none" stroke="black" d="M176.79,-1608.51C274.25,-1605.72 430.65,-1601.24 527.2,-1598.47"/>
<polygon fill="black" stroke="black" points="527.26,-1601.97 537.16,-1598.18 527.06,-1594.97 527.26,-1601.97"/>
</g>
<!-- parseutils -->
<g id="node30" class="node">
<title>parseutils</title>
<polygon fill="palegreen" stroke="black" points="171,-19.24 171,-40.81 122.49,-56.06 53.89,-56.06 5.38,-40.81 5.38,-19.24 53.89,-3.98 122.49,-3.98 171,-19.24"/>
<polygon fill="none" stroke="black" points="175.01,-16.3 175.01,-43.75 123.11,-60.07 53.27,-60.07 1.37,-43.75 1.37,-16.3 53.27,0.02 123.11,0.02 175.01,-16.3"/>
<text text-anchor="middle" x="88.19" y="-23.82" font-family="Times,serif" font-size="24.00">parseutils</text>
</g>
<!-- parseutils&#45;&gt;parseNumber -->
<g id="edge54" class="edge">
<title>parseutils&#45;&gt;parseNumber</title>
<path fill="none" stroke="black" d="M173.86,-44.58C268.16,-60.8 420.19,-86.94 518.24,-103.8"/>
<polygon fill="black" stroke="black" points="517.39,-107.2 527.83,-105.45 518.57,-100.31 517.39,-107.2"/>
</g>
<!-- unicode -->
<g id="node31" class="node">
<title>unicode</title>
<polygon fill="palegreen" stroke="black" points="158.52,-553.24 158.52,-574.81 117.32,-590.06 59.06,-590.06 17.86,-574.81 17.86,-553.24 59.06,-537.98 117.32,-537.98 158.52,-553.24"/>
<polygon fill="none" stroke="black" points="162.52,-550.45 162.52,-577.6 118.04,-594.07 58.34,-594.07 13.86,-577.6 13.86,-550.45 58.34,-533.98 118.04,-533.98 162.52,-550.45"/>
<text text-anchor="middle" x="88.19" y="-557.82" font-family="Times,serif" font-size="24.00">unicode</text>
</g>
<!-- unicode&#45;&gt;unicodes -->
<g id="edge55" class="edge">
<title>unicode&#45;&gt;unicodes</title>
<path fill="none" stroke="black" d="M162.79,-560.65C259.99,-556.19 430.58,-548.37 531.42,-543.74"/>
<polygon fill="black" stroke="black" points="531.41,-547.25 541.24,-543.29 531.09,-540.26 531.41,-547.25"/>
</g>
<!-- json -->
<g id="node35" class="node">
<title>json</title>
<polygon fill="palegreen" stroke="black" points="130.92,-1777.24 130.92,-1798.81 105.89,-1814.06 70.49,-1814.06 45.46,-1798.81 45.46,-1777.24 70.49,-1761.98 105.89,-1761.98 130.92,-1777.24"/>
<polygon fill="none" stroke="black" points="134.91,-1774.98 134.91,-1801.06 107.01,-1818.07 69.37,-1818.07 41.47,-1801.06 41.47,-1774.98 69.37,-1757.98 107.01,-1757.98 134.91,-1774.98"/>
<text text-anchor="middle" x="88.19" y="-1781.82" font-family="Times,serif" font-size="24.00">json</text>
</g>
<!-- json&#45;&gt;readjson -->
<g id="edge60" class="edge">
<title>json&#45;&gt;readjson</title>
<path fill="none" stroke="black" d="M135.18,-1788.55C224.32,-1789.57 421.59,-1791.83 532.63,-1793.11"/>
<polygon fill="black" stroke="black" points="532.53,-1796.6 542.57,-1793.22 532.61,-1789.61 532.53,-1796.6"/>
</g>
<!-- rdstdin -->
<g id="node40" class="node">
<title>rdstdin</title>
<polygon fill="palegreen" stroke="black" points="151.74,-253.24 151.74,-274.81 114.51,-290.06 61.87,-290.06 24.64,-274.81 24.64,-253.24 61.87,-237.98 114.51,-237.98 151.74,-253.24"/>
<polygon fill="none" stroke="black" points="155.74,-250.55 155.74,-277.5 115.3,-294.07 61.08,-294.07 20.64,-277.5 20.64,-250.55 61.08,-233.98 115.3,-233.98 155.74,-250.55"/>
<text text-anchor="middle" x="88.19" y="-257.82" font-family="Times,serif" font-size="24.00">rdstdin</text>
</g>
<!-- rdstdin&#45;&gt;repl -->
<g id="edge74" class="edge">
<title>rdstdin&#45;&gt;repl</title>
<path fill="none" stroke="black" d="M156.01,-265.55C262.65,-268 468.88,-272.73 563.26,-274.89"/>
<polygon fill="black" stroke="black" points="563.15,-278.39 573.23,-275.12 563.31,-271.39 563.15,-278.39"/>
</g>
<!-- terminal -->
<g id="node42" class="node">
<title>terminal</title>
<polygon fill="palegreen" stroke="black" points="162.66,-175.24 162.66,-196.81 119.04,-212.06 57.34,-212.06 13.72,-196.81 13.72,-175.24 57.34,-159.98 119.04,-159.98 162.66,-175.24"/>
<polygon fill="none" stroke="black" points="166.67,-172.4 166.67,-199.65 119.72,-216.07 56.66,-216.07 9.71,-199.65 9.71,-172.4 56.66,-155.98 119.72,-155.98 166.67,-172.4"/>
<text text-anchor="middle" x="88.19" y="-179.82" font-family="Times,serif" font-size="24.00">terminal</text>
</g>
<!-- terminal&#45;&gt;repl -->
<g id="edge79" class="edge">
<title>terminal&#45;&gt;repl</title>
<path fill="none" stroke="black" d="M166.98,-199.4C276.92,-218.3 474.43,-252.27 564.93,-267.83"/>
<polygon fill="black" stroke="black" points="564.26,-271.26 574.7,-269.51 565.44,-264.37 564.26,-271.26"/>
</g>
<!-- exitprocs -->
<g id="node43" class="node">
<title>exitprocs</title>
<polygon fill="palegreen" stroke="black" points="167.88,-97.24 167.88,-118.81 121.2,-134.06 55.18,-134.06 8.5,-118.81 8.5,-97.24 55.18,-81.98 121.2,-81.98 167.88,-97.24"/>
<polygon fill="none" stroke="black" points="171.89,-94.33 171.89,-121.71 121.84,-138.07 54.54,-138.07 4.49,-121.71 4.49,-94.33 54.54,-77.98 121.84,-77.98 171.89,-94.33"/>
<text text-anchor="middle" x="88.19" y="-101.82" font-family="Times,serif" font-size="24.00">exitprocs</text>
</g>
<!-- exitprocs&#45;&gt;repl -->
<g id="edge80" class="edge">
<title>exitprocs&#45;&gt;repl</title>
<path fill="none" stroke="black" d="M152.84,-128.45C260.31,-162.95 475.07,-231.88 568.01,-261.72"/>
<polygon fill="black" stroke="black" points="566.69,-264.97 577.28,-264.69 568.83,-258.3 566.69,-264.97"/>
</g>
</g>
</svg>
