<?xml version="1.0" encoding="UTF-8" standalone="no"?>
<!DOCTYPE svg PUBLIC "-//W3C//DTD SVG 1.1//EN"
 "http://www.w3.org/Graphics/SVG/1.1/DTD/svg11.dtd">
<!-- Generated by graphviz version 2.40.1 (20161225.0304)
 -->
<!-- Title: statictea Pages: 1 -->
<svg width="720pt" height="330pt"
 viewBox="0.00 0.00 720.00 330.47" xmlns="http://www.w3.org/2000/svg" xmlns:xlink="http://www.w3.org/1999/xlink">
<g id="graph0" class="graph" transform="scale(.2898 .2898) rotate(0) translate(4 1136.2967)">
<title>statictea</title>
<polygon fill="#ffffff" stroke="transparent" points="-4,4 -4,-1136.2967 2480.3594,-1136.2967 2480.3594,4 -4,4"/>
<!-- runFunction -->
<g id="node1" class="node">
<title>runFunction</title>
<g id="a_node1"><a xlink:href="runFunction.md" xlink:title="runFunction.md">
<ellipse fill="#eee8aa" stroke="#000000" cx="528" cy="-751" rx="94.055" ry="22.7556"/>
<text text-anchor="middle" x="528" y="-743.8" font-family="Times,serif" font-size="24.00" fill="#000000">runFunction</text>
</a>
</g>
</g>
<!-- parseNumber -->
<g id="node3" class="node">
<title>parseNumber</title>
<g id="a_node3"><a xlink:href="parseNumber.md" xlink:title="parseNumber.md">
<polygon fill="#98fb98" stroke="#000000" points="964.3805,-625.8581 964.3805,-646.1419 899.1353,-660.4846 806.8647,-660.4846 741.6195,-646.1419 741.6195,-625.8581 806.8647,-611.5154 899.1353,-611.5154 964.3805,-625.8581"/>
<polygon fill="none" stroke="#000000" points="968.3872,-622.6442 968.3872,-649.3558 899.5714,-664.4835 806.4286,-664.4835 737.6128,-649.3558 737.6128,-622.6442 806.4286,-607.5165 899.5714,-607.5165 968.3872,-622.6442"/>
<text text-anchor="middle" x="853" y="-628.8" font-family="Times,serif" font-size="24.00" fill="#000000">parseNumber</text>
</a>
</g>
</g>
<!-- runFunction&#45;&gt;parseNumber -->
<g id="edge56" class="edge">
<title>runFunction&#45;&gt;parseNumber</title>
<path fill="none" stroke="#000000" d="M580.9402,-732.2673C633.8679,-713.5391 715.821,-684.5403 775.9542,-663.2624"/>
<polygon fill="#000000" stroke="#000000" points="777.1503,-666.5518 785.41,-659.9165 774.8152,-659.9528 777.1503,-666.5518"/>
</g>
<!-- regexes -->
<g id="node4" class="node">
<title>regexes</title>
<g id="a_node4"><a xlink:href="regexes.md" xlink:title="regexes.md">
<polygon fill="#98fb98" stroke="#000000" points="1305.187,-395.8581 1305.187,-416.1419 1265.244,-430.4846 1208.756,-430.4846 1168.813,-416.1419 1168.813,-395.8581 1208.756,-381.5154 1265.244,-381.5154 1305.187,-395.8581"/>
<polygon fill="none" stroke="#000000" points="1309.1781,-393.0434 1309.1781,-418.9566 1265.9376,-434.4835 1208.0624,-434.4835 1164.8219,-418.9566 1164.8219,-393.0434 1208.0624,-377.5165 1265.9376,-377.5165 1309.1781,-393.0434"/>
<text text-anchor="middle" x="1237" y="-398.8" font-family="Times,serif" font-size="24.00" fill="#000000">regexes</text>
</a>
</g>
</g>
<!-- runFunction&#45;&gt;regexes -->
<g id="edge55" class="edge">
<title>runFunction&#45;&gt;regexes</title>
<path fill="none" stroke="#000000" d="M540.4333,-728.4925C560.9146,-692.2045 601.7867,-623.2369 625,-607.5083 735.3384,-532.7463 800.1091,-605.8016 918,-543.6274 943.9342,-529.95 940.8859,-513.5032 966,-498.3726 1026.2475,-462.0749 1102.6906,-437.6815 1159.0176,-423.1223"/>
<polygon fill="#000000" stroke="#000000" points="1160.1057,-426.4572 1168.938,-420.6057 1158.3844,-419.6721 1160.1057,-426.4572"/>
</g>
<!-- unicodes -->
<g id="node7" class="node">
<title>unicodes</title>
<g id="a_node7"><a xlink:href="unicodes.md" xlink:title="unicodes.md">
<ellipse fill="#eee8aa" stroke="#000000" cx="840" cy="-406" rx="71.7778" ry="22.7556"/>
<text text-anchor="middle" x="840" y="-398.8" font-family="Times,serif" font-size="24.00" fill="#000000">unicodes</text>
</a>
</g>
</g>
<!-- runFunction&#45;&gt;unicodes -->
<g id="edge67" class="edge">
<title>runFunction&#45;&gt;unicodes</title>
<path fill="none" stroke="#000000" d="M524.9949,-728.2804C522.2022,-698.3414 521.3692,-645.0856 544,-607.5083 599.2902,-515.7016 714.3433,-456.1623 783.5974,-427.0643"/>
<polygon fill="#000000" stroke="#000000" points="785.1467,-430.2113 793.0545,-423.1603 782.4756,-423.7409 785.1467,-430.2113"/>
</g>
<!-- vartypes -->
<g id="node10" class="node">
<title>vartypes</title>
<g id="a_node10"><a xlink:href="vartypes.md" xlink:title="vartypes.md">
<ellipse fill="#eee8aa" stroke="#000000" cx="444" cy="-283" rx="68.6102" ry="22.7556"/>
<text text-anchor="middle" x="444" y="-275.8" font-family="Times,serif" font-size="24.00" fill="#000000">vartypes</text>
</a>
</g>
</g>
<!-- runFunction&#45;&gt;vartypes -->
<g id="edge54" class="edge">
<title>runFunction&#45;&gt;vartypes</title>
<path fill="none" stroke="#000000" d="M523.8916,-728.1106C510.1724,-651.6746 465.9041,-405.0373 449.8687,-315.6972"/>
<polygon fill="#000000" stroke="#000000" points="453.3121,-315.0697 448.1005,-305.8454 446.4222,-316.3064 453.3121,-315.0697"/>
</g>
<!-- funtypes -->
<g id="node14" class="node">
<title>funtypes</title>
<g id="a_node14"><a xlink:href="funtypes.md" xlink:title="funtypes.md">
<ellipse fill="#eee8aa" stroke="#000000" cx="346" cy="-521" rx="69.5163" ry="22.7556"/>
<text text-anchor="middle" x="346" y="-513.8" font-family="Times,serif" font-size="24.00" fill="#000000">funtypes</text>
</a>
</g>
</g>
<!-- runFunction&#45;&gt;funtypes -->
<g id="edge72" class="edge">
<title>runFunction&#45;&gt;funtypes</title>
<path fill="none" stroke="#000000" d="M510.2177,-728.5279C477.3099,-686.9411 406.9018,-597.9638 369.8789,-551.1766"/>
<polygon fill="#000000" stroke="#000000" points="372.5365,-548.8947 363.5865,-543.2247 367.0472,-553.2385 372.5365,-548.8947"/>
</g>
<!-- warnings -->
<g id="node16" class="node">
<title>warnings</title>
<g id="a_node16"><a xlink:href="warnings.md" xlink:title="warnings.md">
<ellipse fill="#eee8aa" stroke="#000000" cx="528" cy="-160" rx="73.5561" ry="22.7556"/>
<text text-anchor="middle" x="528" y="-152.8" font-family="Times,serif" font-size="24.00" fill="#000000">warnings</text>
</a>
</g>
</g>
<!-- runFunction&#45;&gt;warnings -->
<g id="edge53" class="edge">
<title>runFunction&#45;&gt;warnings</title>
<path fill="none" stroke="#000000" d="M440.9181,-742.1307C346.2388,-730.4787 203.972,-706.4077 171,-664.4917 80.9719,-550.0426 324.7281,-266.9354 338,-254.5083 374.8472,-220.0065 426.6788,-195.364 466.8999,-179.9104"/>
<polygon fill="#000000" stroke="#000000" points="468.2023,-183.16 476.3357,-176.3705 465.7435,-176.606 468.2023,-183.16"/>
</g>
<!-- signatures -->
<g id="node20" class="node">
<title>signatures</title>
<g id="a_node20"><a xlink:href="signatures.md" xlink:title="signatures.md">
<ellipse fill="#eee8aa" stroke="#000000" cx="260" cy="-636" rx="80.2483" ry="22.7556"/>
<text text-anchor="middle" x="260" y="-628.8" font-family="Times,serif" font-size="24.00" fill="#000000">signatures</text>
</a>
</g>
</g>
<!-- runFunction&#45;&gt;signatures -->
<g id="edge71" class="edge">
<title>runFunction&#45;&gt;signatures</title>
<path fill="none" stroke="#000000" d="M481.9292,-731.2308C435.1103,-711.1406 362.6512,-680.0481 313.364,-658.8987"/>
<polygon fill="#000000" stroke="#000000" points="314.7061,-655.6661 304.1363,-654.9391 311.9458,-662.0988 314.7061,-655.6661"/>
</g>
<!-- opresultwarn -->
<g id="node22" class="node">
<title>opresultwarn</title>
<g id="a_node22"><a xlink:href="opresultwarn.md" xlink:title="opresultwarn.md">
<ellipse fill="#eee8aa" stroke="#000000" cx="971" cy="-283" rx="99.824" ry="22.7556"/>
<text text-anchor="middle" x="971" y="-275.8" font-family="Times,serif" font-size="24.00" fill="#000000">opresultwarn</text>
</a>
</g>
</g>
<!-- runFunction&#45;&gt;opresultwarn -->
<g id="edge73" class="edge">
<title>runFunction&#45;&gt;opresultwarn</title>
<path fill="none" stroke="#000000" d="M532.7057,-728.319C540.6693,-692.1253 557.7293,-623.7254 576,-607.5083 680.8817,-514.4151 774.0068,-629.3422 885,-543.6274 906.4161,-527.0888 930.134,-460.0568 939,-434.4917 952.7486,-394.848 961.6282,-347.226 966.4649,-316.0946"/>
<polygon fill="#000000" stroke="#000000" points="969.9853,-316.2196 968.0085,-305.8108 963.0628,-315.1805 969.9853,-316.2196"/>
</g>
<!-- messages -->
<g id="node23" class="node">
<title>messages</title>
<g id="a_node23"><a xlink:href="messages.md" xlink:title="messages.md">
<polygon fill="#98fb98" stroke="#000000" points="1470.7388,-27.8581 1470.7388,-48.1419 1422.8573,-62.4846 1355.1427,-62.4846 1307.2612,-48.1419 1307.2612,-27.8581 1355.1427,-13.5154 1422.8573,-13.5154 1470.7388,-27.8581"/>
<polygon fill="none" stroke="#000000" points="1474.7446,-24.883 1474.7446,-51.117 1423.4454,-66.4835 1354.5546,-66.4835 1303.2554,-51.117 1303.2554,-24.883 1354.5546,-9.5165 1423.4454,-9.5165 1474.7446,-24.883"/>
<text text-anchor="middle" x="1389" y="-30.8" font-family="Times,serif" font-size="24.00" fill="#000000">messages</text>
</a>
</g>
</g>
<!-- runFunction&#45;&gt;messages -->
<g id="edge52" class="edge">
<title>runFunction&#45;&gt;messages</title>
<path fill="none" stroke="#000000" d="M438.7372,-743.3841C337.8062,-732.7056 182.8141,-709.3492 147,-664.4917 -11.9582,-465.3952 141.3229,-265.5163 358,-131.5083 436.4537,-82.9871 1052.1475,-52.1512 1292.9375,-41.8407"/>
<polygon fill="#000000" stroke="#000000" points="1293.2364,-45.3312 1303.0785,-41.4091 1292.9387,-38.3375 1293.2364,-45.3312"/>
</g>
<!-- matches -->
<g id="node24" class="node">
<title>matches</title>
<g id="a_node24"><a xlink:href="matches.md" xlink:title="matches.md">
<ellipse fill="#eee8aa" stroke="#000000" cx="1277" cy="-521" rx="66.8311" ry="22.7556"/>
<text text-anchor="middle" x="1277" y="-513.8" font-family="Times,serif" font-size="24.00" fill="#000000">matches</text>
</a>
</g>
</g>
<!-- runFunction&#45;&gt;matches -->
<g id="edge57" class="edge">
<title>runFunction&#45;&gt;matches</title>
<path fill="none" stroke="#000000" d="M550.8218,-729.0059C585.9551,-696.5646 656.8209,-636.5943 729,-607.5083 909.8367,-534.6365 970.8777,-576.8123 1163,-543.6274 1178.2504,-540.9932 1194.5956,-537.9064 1210.0107,-534.8745"/>
<polygon fill="#000000" stroke="#000000" points="1210.8579,-538.2748 1219.9855,-532.8954 1209.4955,-531.4086 1210.8579,-538.2748"/>
</g>
<!-- opresultid -->
<g id="node2" class="node">
<title>opresultid</title>
<g id="a_node2"><a xlink:href="opresultid.md" xlink:title="opresultid.md">
<ellipse fill="#eee8aa" stroke="#000000" cx="1206" cy="-283" rx="79.3758" ry="22.7556"/>
<text text-anchor="middle" x="1206" y="-275.8" font-family="Times,serif" font-size="24.00" fill="#000000">opresultid</text>
</a>
</g>
</g>
<!-- opresultid&#45;&gt;messages -->
<g id="edge58" class="edge">
<title>opresultid&#45;&gt;messages</title>
<path fill="none" stroke="#000000" d="M1222.5628,-260.8258C1254.0664,-218.6488 1322.9085,-126.4832 1361.4558,-74.8761"/>
<polygon fill="#000000" stroke="#000000" points="1364.4201,-76.7562 1367.6003,-66.6499 1358.8118,-72.5672 1364.4201,-76.7562"/>
</g>
<!-- opresult -->
<g id="node29" class="node">
<title>opresult</title>
<g id="a_node29"><a xlink:href="opresult.md" xlink:title="opresult.md">
<polygon fill="#98fb98" stroke="#000000" points="1135.3526,-149.8581 1135.3526,-170.1419 1093.5552,-184.4846 1034.4448,-184.4846 992.6474,-170.1419 992.6474,-149.8581 1034.4448,-135.5154 1093.5552,-135.5154 1135.3526,-149.8581"/>
<polygon fill="none" stroke="#000000" points="1139.3486,-147.0019 1139.3486,-172.9981 1094.2213,-188.4835 1033.7787,-188.4835 988.6514,-172.9981 988.6514,-147.0019 1033.7787,-131.5165 1094.2213,-131.5165 1139.3486,-147.0019"/>
<text text-anchor="middle" x="1064" y="-152.8" font-family="Times,serif" font-size="24.00" fill="#000000">opresult</text>
</a>
</g>
</g>
<!-- opresultid&#45;&gt;opresult -->
<g id="edge59" class="edge">
<title>opresultid&#45;&gt;opresult</title>
<path fill="none" stroke="#000000" d="M1180.9401,-261.2932C1159.6741,-242.8727 1128.772,-216.1053 1104.0746,-194.7125"/>
<polygon fill="#000000" stroke="#000000" points="1106.1444,-191.8749 1096.2941,-187.9731 1101.5613,-197.1659 1106.1444,-191.8749"/>
</g>
<!-- parseCmdLine -->
<g id="node5" class="node">
<title>parseCmdLine</title>
<g id="a_node5"><a xlink:href="parseCmdLine.md" xlink:title="parseCmdLine.md">
<ellipse fill="#eee8aa" stroke="#000000" cx="1851" cy="-636" rx="111.4463" ry="22.7556"/>
<text text-anchor="middle" x="1851" y="-628.8" font-family="Times,serif" font-size="24.00" fill="#000000">parseCmdLine</text>
</a>
</g>
</g>
<!-- parseCmdLine&#45;&gt;regexes -->
<g id="edge19" class="edge">
<title>parseCmdLine&#45;&gt;regexes</title>
<path fill="none" stroke="#000000" d="M1777.468,-618.9384C1760.2753,-615.0698 1742.0148,-611.0581 1725,-607.5083 1577.0505,-576.6413 1521.3509,-620.1158 1391,-543.6274 1368.3482,-530.3356 1371.8109,-516.7009 1353,-498.3726 1330.7481,-476.6916 1303.6977,-454.9244 1281.3177,-437.9702"/>
<polygon fill="#000000" stroke="#000000" points="1283.3995,-435.1566 1273.3013,-431.9508 1279.1963,-440.7542 1283.3995,-435.1566"/>
</g>
<!-- env -->
<g id="node6" class="node">
<title>env</title>
<g id="a_node6"><a xlink:href="env.md" xlink:title="env.md">
<ellipse fill="#eee8aa" stroke="#000000" cx="1990" cy="-521" rx="35.6342" ry="22.7556"/>
<text text-anchor="middle" x="1990" y="-513.8" font-family="Times,serif" font-size="24.00" fill="#000000">env</text>
</a>
</g>
</g>
<!-- parseCmdLine&#45;&gt;env -->
<g id="edge18" class="edge">
<title>parseCmdLine&#45;&gt;env</title>
<path fill="none" stroke="#000000" d="M1877.8006,-613.8268C1901.3321,-594.3584 1935.5261,-566.0684 1959.9725,-545.8429"/>
<polygon fill="#000000" stroke="#000000" points="1962.386,-548.3887 1967.8598,-539.3174 1957.9238,-542.9953 1962.386,-548.3887"/>
</g>
<!-- parseCmdLine&#45;&gt;messages -->
<g id="edge20" class="edge">
<title>parseCmdLine&#45;&gt;messages</title>
<path fill="none" stroke="#000000" d="M1861.6753,-613.2703C1881.9512,-566.6136 1920.7791,-457.6836 1883,-377.5083 1800.6999,-202.8499 1578.218,-103.0289 1461.9742,-61.3092"/>
<polygon fill="#000000" stroke="#000000" points="1463.0226,-57.9676 1452.4278,-57.9281 1460.6855,-64.5659 1463.0226,-57.9676"/>
</g>
<!-- parseCmdLine&#45;&gt;matches -->
<g id="edge21" class="edge">
<title>parseCmdLine&#45;&gt;matches</title>
<path fill="none" stroke="#000000" d="M1778.43,-618.7845C1761.2756,-614.9022 1743.0221,-610.9232 1726,-607.5083 1563.2416,-574.8558 1519.9225,-580.2007 1358,-543.6274 1351.3018,-542.1145 1344.3308,-540.3938 1337.4134,-538.5926"/>
<polygon fill="#000000" stroke="#000000" points="1337.919,-535.1052 1327.3549,-535.9111 1336.1158,-541.869 1337.919,-535.1052"/>
</g>
<!-- tempFile -->
<g id="node9" class="node">
<title>tempFile</title>
<g id="a_node9"><a xlink:href="tempFile.md" xlink:title="tempFile.md">
<polygon fill="#98fb98" stroke="#000000" points="1869.598,-395.8581 1869.598,-416.1419 1824.1421,-430.4846 1759.8579,-430.4846 1714.402,-416.1419 1714.402,-395.8581 1759.8579,-381.5154 1824.1421,-381.5154 1869.598,-395.8581"/>
<polygon fill="none" stroke="#000000" points="1873.6004,-392.9275 1873.6004,-419.0725 1824.7591,-434.4835 1759.2409,-434.4835 1710.3996,-419.0725 1710.3996,-392.9275 1759.2409,-377.5165 1824.7591,-377.5165 1873.6004,-392.9275"/>
<text text-anchor="middle" x="1792" y="-398.8" font-family="Times,serif" font-size="24.00" fill="#000000">tempFile</text>
</a>
</g>
</g>
<!-- env&#45;&gt;tempFile -->
<g id="edge9" class="edge">
<title>env&#45;&gt;tempFile</title>
<path fill="none" stroke="#000000" d="M1963.2968,-505.4906C1933.0026,-487.8955 1882.8494,-458.7661 1844.6187,-436.5614"/>
<polygon fill="#000000" stroke="#000000" points="1846.0754,-433.3599 1835.6702,-431.364 1842.5597,-439.413 1846.0754,-433.3599"/>
</g>
<!-- env&#45;&gt;warnings -->
<g id="edge11" class="edge">
<title>env&#45;&gt;warnings</title>
<path fill="none" stroke="#000000" d="M1979.9967,-499.1244C1964.1758,-467.1155 1930.2528,-408.0178 1883,-377.5083 1669.5553,-239.6942 871.2918,-180.5424 610.7896,-164.637"/>
<polygon fill="#000000" stroke="#000000" points="610.8327,-161.1333 600.6395,-164.0226 610.4097,-168.1205 610.8327,-161.1333"/>
</g>
<!-- args -->
<g id="node21" class="node">
<title>args</title>
<g id="a_node21"><a xlink:href="args.md" xlink:title="args.md">
<polygon fill="#98fb98" stroke="#000000" points="1688.5492,-395.8581 1688.5492,-416.1419 1663.6245,-430.4846 1628.3755,-430.4846 1603.4508,-416.1419 1603.4508,-395.8581 1628.3755,-381.5154 1663.6245,-381.5154 1688.5492,-395.8581"/>
<polygon fill="none" stroke="#000000" points="1692.5514,-393.5466 1692.5514,-418.4534 1664.6946,-434.4835 1627.3054,-434.4835 1599.4486,-418.4534 1599.4486,-393.5466 1627.3054,-377.5165 1664.6946,-377.5165 1692.5514,-393.5466"/>
<text text-anchor="middle" x="1646" y="-398.8" font-family="Times,serif" font-size="24.00" fill="#000000">args</text>
</a>
</g>
</g>
<!-- env&#45;&gt;args -->
<g id="edge12" class="edge">
<title>env&#45;&gt;args</title>
<path fill="none" stroke="#000000" d="M1956.3679,-513.1131C1901.7468,-499.8237 1790.8195,-470.8267 1701,-434.4917 1697.4018,-433.0362 1693.725,-431.4247 1690.0631,-429.7301"/>
<polygon fill="#000000" stroke="#000000" points="1691.5735,-426.5728 1681.045,-425.3885 1688.537,-432.8799 1691.5735,-426.5728"/>
</g>
<!-- env&#45;&gt;messages -->
<g id="edge10" class="edge">
<title>env&#45;&gt;messages</title>
<path fill="none" stroke="#000000" d="M1996.2214,-498.379C2012.957,-432.0494 2051.3832,-236.1522 1954,-131.5083 1891.9469,-64.8286 1629.2863,-45.6968 1484.969,-40.2079"/>
<polygon fill="#000000" stroke="#000000" points="1484.9083,-36.7034 1474.7871,-39.8358 1484.6526,-43.6988 1484.9083,-36.7034"/>
</g>
<!-- unicodes&#45;&gt;opresultid -->
<g id="edge60" class="edge">
<title>unicodes&#45;&gt;opresultid</title>
<path fill="none" stroke="#000000" d="M889.3604,-389.4117C955.517,-367.1787 1072.9086,-327.7274 1144.667,-303.6119"/>
<polygon fill="#000000" stroke="#000000" points="1146.1154,-306.8176 1154.4794,-300.3143 1143.8854,-300.1823 1146.1154,-306.8176"/>
</g>
<!-- utf8decoder -->
<g id="node15" class="node">
<title>utf8decoder</title>
<g id="a_node15"><a xlink:href="utf8decoder.md" xlink:title="utf8decoder.md">
<polygon fill="#98fb98" stroke="#000000" points="848.9296,-272.8581 848.9296,-293.1419 790.3922,-307.4846 707.6078,-307.4846 649.0704,-293.1419 649.0704,-272.8581 707.6078,-258.5154 790.3922,-258.5154 848.9296,-272.8581"/>
<polygon fill="none" stroke="#000000" points="852.9282,-269.7208 852.9282,-296.2792 790.8749,-311.4835 707.1251,-311.4835 645.0718,-296.2792 645.0718,-269.7208 707.1251,-254.5165 790.8749,-254.5165 852.9282,-269.7208"/>
<text text-anchor="middle" x="749" y="-275.8" font-family="Times,serif" font-size="24.00" fill="#000000">utf8decoder</text>
</a>
</g>
</g>
<!-- unicodes&#45;&gt;utf8decoder -->
<g id="edge66" class="edge">
<title>unicodes&#45;&gt;utf8decoder</title>
<path fill="none" stroke="#000000" d="M823.5206,-383.7256C810.3759,-365.9587 791.6853,-340.6955 776.3112,-319.9152"/>
<polygon fill="#000000" stroke="#000000" points="778.9299,-317.5699 770.1686,-311.6125 773.3026,-321.7333 778.9299,-317.5699"/>
</g>
<!-- unicodes&#45;&gt;warnings -->
<g id="edge65" class="edge">
<title>unicodes&#45;&gt;warnings</title>
<path fill="none" stroke="#000000" d="M792.2562,-389.0437C727.3271,-365.6703 617.5475,-324.9162 603,-311.4917 584.3601,-294.2909 556.6993,-231.2535 540.6973,-192.1192"/>
<polygon fill="#000000" stroke="#000000" points="543.8913,-190.6816 536.8928,-182.7272 537.4034,-193.3097 543.8913,-190.6816"/>
</g>
<!-- unicodes&#45;&gt;opresultwarn -->
<g id="edge63" class="edge">
<title>unicodes&#45;&gt;opresultwarn</title>
<path fill="none" stroke="#000000" d="M863.1186,-384.2932C884.4605,-364.2547 916.3224,-334.3385 939.8913,-312.209"/>
<polygon fill="#000000" stroke="#000000" points="942.3338,-314.7166 947.2282,-305.32 937.5423,-309.6135 942.3338,-314.7166"/>
</g>
<!-- unicodes&#45;&gt;messages -->
<g id="edge64" class="edge">
<title>unicodes&#45;&gt;messages</title>
<path fill="none" stroke="#000000" d="M789.5367,-389.6333C735.0127,-370.8076 653.5461,-338.958 636,-311.4917 622.3657,-290.149 621.4148,-275.2128 636,-254.5083 712.2486,-146.2688 1107.9521,-77.4505 1293.1784,-50.6885"/>
<polygon fill="#000000" stroke="#000000" points="1293.783,-54.1377 1303.1852,-49.2541 1292.7897,-47.2085 1293.783,-54.1377"/>
</g>
<!-- variables -->
<g id="node8" class="node">
<title>variables</title>
<g id="a_node8"><a xlink:href="variables.md" xlink:title="variables.md">
<ellipse fill="#eee8aa" stroke="#000000" cx="1081" cy="-521" rx="72.6337" ry="22.7556"/>
<text text-anchor="middle" x="1081" y="-513.8" font-family="Times,serif" font-size="24.00" fill="#000000">variables</text>
</a>
</g>
</g>
<!-- variables&#45;&gt;vartypes -->
<g id="edge39" class="edge">
<title>variables&#45;&gt;vartypes</title>
<path fill="none" stroke="#000000" d="M1010.2817,-515.7298C940.9227,-507.5848 834.8314,-486.9047 759,-434.4917 733.3338,-416.7519 743.0327,-396.1314 718,-377.5083 684.1856,-352.3519 577.3066,-319.6522 507.4597,-300.0521"/>
<polygon fill="#000000" stroke="#000000" points="508.0088,-296.5718 497.4362,-297.2578 506.129,-303.3147 508.0088,-296.5718"/>
</g>
<!-- tostring -->
<g id="node11" class="node">
<title>tostring</title>
<g id="a_node11"><a xlink:href="tostring.md" xlink:title="tostring.md">
<ellipse fill="#eee8aa" stroke="#000000" cx="611" cy="-406" rx="63.3406" ry="22.7556"/>
<text text-anchor="middle" x="611" y="-398.8" font-family="Times,serif" font-size="24.00" fill="#000000">tostring</text>
</a>
</g>
</g>
<!-- variables&#45;&gt;tostring -->
<g id="edge45" class="edge">
<title>variables&#45;&gt;tostring</title>
<path fill="none" stroke="#000000" d="M1023.4936,-507.0583C953.2691,-490.0168 830.8791,-460.2625 726,-434.4917 708.8014,-430.2657 690.1629,-425.6594 672.9986,-421.4067"/>
<polygon fill="#000000" stroke="#000000" points="673.6332,-417.9581 663.0849,-418.9491 671.9489,-424.7525 673.6332,-417.9581"/>
</g>
<!-- variables&#45;&gt;warnings -->
<g id="edge42" class="edge">
<title>variables&#45;&gt;warnings</title>
<path fill="none" stroke="#000000" d="M1089.4601,-498.4613C1106.7672,-448.0599 1139.7872,-325.1323 1080,-254.5083 1049.8242,-218.8629 753.9961,-183.4865 608.2804,-168.0548"/>
<polygon fill="#000000" stroke="#000000" points="608.3654,-164.5445 598.054,-166.9784 607.6327,-171.506 608.3654,-164.5445"/>
</g>
<!-- variables&#45;&gt;args -->
<g id="edge46" class="edge">
<title>variables&#45;&gt;args</title>
<path fill="none" stroke="#000000" d="M1142.7266,-508.978C1226.7785,-492.537 1381.9018,-461.9423 1514,-434.4917 1538.694,-429.3602 1565.9443,-423.51 1589.2415,-418.4514"/>
<polygon fill="#000000" stroke="#000000" points="1590.2759,-421.8083 1599.3034,-416.2625 1588.7879,-414.9683 1590.2759,-421.8083"/>
</g>
<!-- variables&#45;&gt;messages -->
<g id="edge41" class="edge">
<title>variables&#45;&gt;messages</title>
<path fill="none" stroke="#000000" d="M1092.2095,-498.4706C1111.844,-459.1663 1150.87,-381.8079 1156,-377.5083 1230.6581,-314.9352 1304.0368,-387.4701 1365,-311.4917 1419.3093,-243.8061 1408.5081,-134.0617 1397.7398,-76.3196"/>
<polygon fill="#000000" stroke="#000000" points="1401.1735,-75.6412 1395.8146,-66.5016 1394.3043,-76.9882 1401.1735,-75.6412"/>
</g>
<!-- version -->
<g id="node25" class="node">
<title>version</title>
<g id="a_node25"><a xlink:href="version.md" xlink:title="version.md">
<polygon fill="#98fb98" stroke="#000000" points="1501.1523,-395.8581 1501.1523,-416.1419 1462.4012,-430.4846 1407.5988,-430.4846 1368.8477,-416.1419 1368.8477,-395.8581 1407.5988,-381.5154 1462.4012,-381.5154 1501.1523,-395.8581"/>
<polygon fill="none" stroke="#000000" points="1505.1421,-393.0721 1505.1421,-418.9279 1463.1143,-434.4835 1406.8857,-434.4835 1364.8579,-418.9279 1364.8579,-393.0721 1406.8857,-377.5165 1463.1143,-377.5165 1505.1421,-393.0721"/>
<text text-anchor="middle" x="1435" y="-398.8" font-family="Times,serif" font-size="24.00" fill="#000000">version</text>
</a>
</g>
</g>
<!-- variables&#45;&gt;version -->
<g id="edge40" class="edge">
<title>variables&#45;&gt;version</title>
<path fill="none" stroke="#000000" d="M1131.3436,-504.6454C1193.7481,-484.3728 1300.2624,-449.7707 1369.1139,-427.4037"/>
<polygon fill="#000000" stroke="#000000" points="1370.56,-430.614 1378.9893,-424.1956 1368.3972,-423.9565 1370.56,-430.614"/>
</g>
<!-- vartypes&#45;&gt;warnings -->
<g id="edge34" class="edge">
<title>vartypes&#45;&gt;warnings</title>
<path fill="none" stroke="#000000" d="M459.2118,-260.7256C472.5679,-241.1685 492.127,-212.5283 506.9779,-190.7824"/>
<polygon fill="#000000" stroke="#000000" points="509.8682,-192.7562 512.6175,-182.5243 504.0876,-188.8085 509.8682,-192.7562"/>
</g>
<!-- tostring&#45;&gt;vartypes -->
<g id="edge44" class="edge">
<title>tostring&#45;&gt;vartypes</title>
<path fill="none" stroke="#000000" d="M583.048,-385.4126C554.9548,-364.7212 511.5088,-332.7221 480.6648,-310.0046"/>
<polygon fill="#000000" stroke="#000000" points="482.4501,-306.9726 472.3226,-303.8604 478.2988,-312.6089 482.4501,-306.9726"/>
</g>
<!-- tostring&#45;&gt;warnings -->
<g id="edge43" class="edge">
<title>tostring&#45;&gt;warnings</title>
<path fill="none" stroke="#000000" d="M598.4455,-383.6746C588.2967,-364.8872 574.2277,-337.0675 565,-311.4917 550.5947,-271.5655 539.9566,-223.7252 533.8742,-192.6384"/>
<polygon fill="#000000" stroke="#000000" points="537.3038,-191.9381 531.9872,-182.7738 530.4284,-193.2533 537.3038,-191.9381"/>
</g>
<!-- replacement -->
<g id="node12" class="node">
<title>replacement</title>
<g id="a_node12"><a xlink:href="replacement.md" xlink:title="replacement.md">
<ellipse fill="#eee8aa" stroke="#000000" cx="1386" cy="-751" rx="94.4556" ry="22.7556"/>
<text text-anchor="middle" x="1386" y="-743.8" font-family="Times,serif" font-size="24.00" fill="#000000">replacement</text>
</a>
</g>
</g>
<!-- replacement&#45;&gt;parseNumber -->
<g id="edge95" class="edge">
<title>replacement&#45;&gt;parseNumber</title>
<path fill="none" stroke="#000000" d="M1315.7715,-735.8475C1222.6635,-715.7585 1057.8329,-680.1947 952.0922,-657.3801"/>
<polygon fill="#000000" stroke="#000000" points="952.5613,-653.9009 942.0481,-655.213 951.0849,-660.7434 952.5613,-653.9009"/>
</g>
<!-- replacement&#45;&gt;regexes -->
<g id="edge86" class="edge">
<title>replacement&#45;&gt;regexes</title>
<path fill="none" stroke="#000000" d="M1364.549,-728.8079C1317.6746,-680.0592 1209.5932,-566.1682 1201,-543.6274 1188.4322,-510.6609 1201.1001,-471.6316 1214.7533,-443.5708"/>
<polygon fill="#000000" stroke="#000000" points="1217.9547,-444.9974 1219.3862,-434.4997 1211.7207,-441.8134 1217.9547,-444.9974"/>
</g>
<!-- replacement&#45;&gt;parseCmdLine -->
<g id="edge89" class="edge">
<title>replacement&#45;&gt;parseCmdLine</title>
<path fill="none" stroke="#000000" d="M1452.1293,-734.6454C1535.8711,-713.9351 1680.0826,-678.2699 1770.2422,-655.9724"/>
<polygon fill="#000000" stroke="#000000" points="1771.2806,-659.3211 1780.1478,-653.5226 1769.6,-652.5258 1771.2806,-659.3211"/>
</g>
<!-- replacement&#45;&gt;env -->
<g id="edge87" class="edge">
<title>replacement&#45;&gt;env</title>
<path fill="none" stroke="#000000" d="M1407.689,-728.7903C1424.1541,-711.6373 1447.1047,-687.0903 1466,-664.4917 1486.3517,-640.1514 1481.9706,-624.123 1509,-607.5083 1581.9264,-562.6811 1838.7211,-534.7751 1944.2249,-524.9653"/>
<polygon fill="#000000" stroke="#000000" points="1944.6106,-528.4447 1954.249,-524.0455 1943.971,-521.474 1944.6106,-528.4447"/>
</g>
<!-- replacement&#45;&gt;variables -->
<g id="edge93" class="edge">
<title>replacement&#45;&gt;variables</title>
<path fill="none" stroke="#000000" d="M1358.4575,-729.3589C1322.3146,-701.0509 1256.7995,-650.0496 1200,-607.5083 1172.8707,-587.1892 1141.8912,-564.6902 1118.3429,-547.7312"/>
<polygon fill="#000000" stroke="#000000" points="1120.1863,-544.7458 1110.0244,-541.7482 1116.099,-550.4286 1120.1863,-544.7458"/>
</g>
<!-- replacement&#45;&gt;tempFile -->
<g id="edge94" class="edge">
<title>replacement&#45;&gt;tempFile</title>
<path fill="none" stroke="#000000" d="M1397.359,-728.3249C1416.7609,-689.9642 1455.2359,-615.6171 1466,-607.5083 1565.8755,-532.27 1645.9336,-626.0132 1740,-543.6274 1768.6568,-518.529 1781.5726,-475.9635 1787.3621,-444.8013"/>
<polygon fill="#000000" stroke="#000000" points="1790.8518,-445.1552 1789.0648,-434.7121 1783.9494,-443.9903 1790.8518,-445.1552"/>
</g>
<!-- replacement&#45;&gt;vartypes -->
<g id="edge88" class="edge">
<title>replacement&#45;&gt;vartypes</title>
<path fill="none" stroke="#000000" d="M1317.3751,-735.389C1255.7054,-720.3843 1163.2321,-695.4491 1086,-664.4917 1035.2594,-644.1531 1028.4669,-625.9318 977,-607.5083 846.1963,-560.6845 796.2014,-603.8494 671,-543.6274 602.4015,-510.6315 589.1945,-491.7193 539,-434.4917 506.0224,-396.8934 476.9293,-346.6242 459.891,-314.5205"/>
<polygon fill="#000000" stroke="#000000" points="462.9456,-312.8089 455.2056,-305.574 456.7445,-316.0565 462.9456,-312.8089"/>
</g>
<!-- replacement&#45;&gt;tostring -->
<g id="edge96" class="edge">
<title>replacement&#45;&gt;tostring</title>
<path fill="none" stroke="#000000" d="M1340.3983,-731.0162C1301.7201,-713.881 1244.8921,-688.2671 1196,-664.4917 1146.4847,-640.4133 1138.1326,-625.2204 1086,-607.5083 933.3812,-555.6557 868.9173,-623.6545 729,-543.6274 684.299,-518.0602 648.536,-468.9556 628.5457,-436.8443"/>
<polygon fill="#000000" stroke="#000000" points="631.5184,-434.9964 623.3314,-428.2716 625.5378,-438.6341 631.5184,-434.9964"/>
</g>
<!-- readlines -->
<g id="node13" class="node">
<title>readlines</title>
<g id="a_node13"><a xlink:href="readlines.md" xlink:title="readlines.md">
<polygon fill="#98fb98" stroke="#000000" points="1679.5894,-625.8581 1679.5894,-646.1419 1633.5528,-660.4846 1568.4472,-660.4846 1522.4106,-646.1419 1522.4106,-625.8581 1568.4472,-611.5154 1633.5528,-611.5154 1679.5894,-625.8581"/>
<polygon fill="none" stroke="#000000" points="1683.5916,-622.9163 1683.5916,-649.0837 1634.1623,-664.4835 1567.8377,-664.4835 1518.4084,-649.0837 1518.4084,-622.9163 1567.8377,-607.5165 1634.1623,-607.5165 1683.5916,-622.9163"/>
<text text-anchor="middle" x="1601" y="-628.8" font-family="Times,serif" font-size="24.00" fill="#000000">readlines</text>
</a>
</g>
</g>
<!-- replacement&#45;&gt;readlines -->
<g id="edge90" class="edge">
<title>replacement&#45;&gt;readlines</title>
<path fill="none" stroke="#000000" d="M1424.9349,-730.1744C1458.7676,-712.0778 1508.151,-685.6634 1546.0133,-665.4115"/>
<polygon fill="#000000" stroke="#000000" points="1547.7162,-668.4699 1554.8833,-660.6671 1544.4146,-662.2974 1547.7162,-668.4699"/>
</g>
<!-- replacement&#45;&gt;messages -->
<g id="edge92" class="edge">
<title>replacement&#45;&gt;messages</title>
<path fill="none" stroke="#000000" d="M1385.9445,-728.2453C1387.161,-696.5072 1394.2749,-639.279 1428,-607.5083 1520.5931,-520.281 1627.7207,-643.1104 1707,-543.6274 1771.7206,-462.4133 1606.9886,-452.7066 1590,-434.4917 1488.9495,-326.1477 1523.0417,-260.9672 1451,-131.5083 1440.3533,-112.3762 1427.1029,-92.0173 1415.5878,-75.1975"/>
<polygon fill="#000000" stroke="#000000" points="1418.3132,-72.9849 1409.7474,-66.7497 1412.5553,-76.9657 1418.3132,-72.9849"/>
</g>
<!-- replacement&#45;&gt;matches -->
<g id="edge91" class="edge">
<title>replacement&#45;&gt;matches</title>
<path fill="none" stroke="#000000" d="M1375.1502,-728.1059C1355.5533,-686.7547 1314.2267,-599.5517 1291.9621,-552.5713"/>
<polygon fill="#000000" stroke="#000000" points="1295.0906,-551 1287.6452,-543.4623 1288.765,-553.9978 1295.0906,-551"/>
</g>
<!-- funtypes&#45;&gt;vartypes -->
<g id="edge48" class="edge">
<title>funtypes&#45;&gt;vartypes</title>
<path fill="none" stroke="#000000" d="M355.3967,-498.1796C372.9211,-455.6201 410.6315,-364.0377 430.739,-315.2053"/>
<polygon fill="#000000" stroke="#000000" points="434.0606,-316.3308 434.6318,-305.7514 427.5879,-313.6655 434.0606,-316.3308"/>
</g>
<!-- funtypes&#45;&gt;tostring -->
<g id="edge50" class="edge">
<title>funtypes&#45;&gt;tostring</title>
<path fill="none" stroke="#000000" d="M387.99,-502.7779C435.0176,-482.3697 511.1836,-449.3166 561.1835,-427.6185"/>
<polygon fill="#000000" stroke="#000000" points="562.7299,-430.7628 570.51,-423.5711 559.9432,-424.3414 562.7299,-430.7628"/>
</g>
<!-- funtypes&#45;&gt;warnings -->
<g id="edge49" class="edge">
<title>funtypes&#45;&gt;warnings</title>
<path fill="none" stroke="#000000" d="M341.1148,-498.1554C331.9672,-449.2195 317.2967,-332.3993 366,-254.5083 388.6608,-218.2669 430.6774,-194.3431 466.2413,-179.6338"/>
<polygon fill="#000000" stroke="#000000" points="467.6049,-182.8581 475.6024,-175.909 465.0169,-176.3541 467.6049,-182.8581"/>
</g>
<!-- warnings&#45;&gt;messages -->
<g id="edge3" class="edge">
<title>warnings&#45;&gt;messages</title>
<path fill="none" stroke="#000000" d="M575.9536,-142.6265C588.8234,-138.474 602.8264,-134.4092 616,-131.5083 856.2794,-78.5962 1145.6271,-53.6557 1292.8174,-43.6586"/>
<polygon fill="#000000" stroke="#000000" points="1293.4235,-47.1259 1303.1668,-42.9645 1292.955,-40.1416 1293.4235,-47.1259"/>
</g>
<!-- collectCommand -->
<g id="node17" class="node">
<title>collectCommand</title>
<g id="a_node17"><a xlink:href="collectCommand.md" xlink:title="collectCommand.md">
<ellipse fill="#eee8aa" stroke="#000000" cx="1747" cy="-751" rx="127.4982" ry="22.7556"/>
<text text-anchor="middle" x="1747" y="-743.8" font-family="Times,serif" font-size="24.00" fill="#000000">collectCommand</text>
</a>
</g>
</g>
<!-- collectCommand&#45;&gt;parseCmdLine -->
<g id="edge26" class="edge">
<title>collectCommand&#45;&gt;parseCmdLine</title>
<path fill="none" stroke="#000000" d="M1767.2991,-728.5538C1783.4767,-710.6652 1806.2739,-685.4568 1823.992,-665.8646"/>
<polygon fill="#000000" stroke="#000000" points="1826.6405,-668.1541 1830.7521,-658.3895 1821.4487,-663.4588 1826.6405,-668.1541"/>
</g>
<!-- collectCommand&#45;&gt;env -->
<g id="edge23" class="edge">
<title>collectCommand&#45;&gt;env</title>
<path fill="none" stroke="#000000" d="M1844.9986,-736.5319C1890.1774,-724.7232 1940.4414,-703.3065 1971,-664.4917 1995.7196,-633.0935 1997.0599,-585.3342 1994.528,-553.656"/>
<polygon fill="#000000" stroke="#000000" points="1997.9994,-553.1911 1993.5491,-543.5763 1991.0322,-553.8678 1997.9994,-553.1911"/>
</g>
<!-- collectCommand&#45;&gt;readlines -->
<g id="edge25" class="edge">
<title>collectCommand&#45;&gt;readlines</title>
<path fill="none" stroke="#000000" d="M1718.8497,-728.8268C1697.7811,-712.2317 1668.575,-689.2269 1644.5091,-670.2709"/>
<polygon fill="#000000" stroke="#000000" points="1646.5854,-667.4509 1636.5639,-664.0127 1642.2539,-672.9499 1646.5854,-667.4509"/>
</g>
<!-- collectCommand&#45;&gt;messages -->
<g id="edge27" class="edge">
<title>collectCommand&#45;&gt;messages</title>
<path fill="none" stroke="#000000" d="M1823.1978,-732.8686C1956.501,-696.1047 2218,-599.3454 2218,-406 2218,-406 2218,-406 2218,-283 2218,-131.6666 1703.5139,-66.721 1485.154,-45.9717"/>
<polygon fill="#000000" stroke="#000000" points="1485.2664,-42.467 1474.983,-45.0169 1484.612,-49.4363 1485.2664,-42.467"/>
</g>
<!-- collectCommand&#45;&gt;matches -->
<g id="edge24" class="edge">
<title>collectCommand&#45;&gt;matches</title>
<path fill="none" stroke="#000000" d="M1745.1762,-728.1915C1741.3291,-696.1188 1729.4519,-638.1892 1693,-607.5083 1577.0368,-509.9043 1505.5658,-578.2439 1358,-543.6274 1351.41,-542.0815 1344.5505,-540.3535 1337.7351,-538.5599"/>
<polygon fill="#000000" stroke="#000000" points="1338.3835,-535.1102 1327.8181,-535.899 1336.5693,-541.871 1338.3835,-535.1102"/>
</g>
<!-- statictea -->
<g id="node18" class="node">
<title>statictea</title>
<g id="a_node18"><a xlink:href="statictea.md" xlink:title="statictea.md">
<polygon fill="#eee8aa" stroke="#000000" points="2135.0958,-1086.3667 2218,-1067.0619 2300.9042,-1086.3667 2300.8268,-1117.6024 2135.1732,-1117.6024 2135.0958,-1086.3667"/>
<text text-anchor="middle" x="2218" y="-1087.8" font-family="Times,serif" font-size="24.00" fill="#000000">statictea</text>
</a>
</g>
</g>
<!-- statictea&#45;&gt;env -->
<g id="edge103" class="edge">
<title>statictea&#45;&gt;env</title>
<path fill="none" stroke="#000000" d="M2204.237,-1069.8996C2182.3359,-1027.5399 2142,-938.586 2142,-858 2142,-858 2142,-858 2142,-751 2142,-663.6317 2064.7177,-583.9185 2020.365,-545.3647"/>
<polygon fill="#000000" stroke="#000000" points="2022.635,-542.7008 2012.7559,-538.8726 2018.0916,-548.0259 2022.635,-542.7008"/>
</g>
<!-- gethelp -->
<g id="node19" class="node">
<title>gethelp</title>
<g id="a_node19"><a xlink:href="gethelp.md" xlink:title="gethelp.md">
<polygon fill="#98fb98" stroke="#000000" points="2439.1349,-962.8581 2439.1349,-983.1419 2400.394,-997.4846 2345.606,-997.4846 2306.8651,-983.1419 2306.8651,-962.8581 2345.606,-948.5154 2400.394,-948.5154 2439.1349,-962.8581"/>
<polygon fill="none" stroke="#000000" points="2443.1242,-960.0722 2443.1242,-985.9278 2401.1071,-1001.4835 2344.8929,-1001.4835 2302.8758,-985.9278 2302.8758,-960.0722 2344.8929,-944.5165 2401.1071,-944.5165 2443.1242,-960.0722"/>
<text text-anchor="middle" x="2373" y="-965.8" font-family="Times,serif" font-size="24.00" fill="#000000">gethelp</text>
</a>
</g>
</g>
<!-- statictea&#45;&gt;gethelp -->
<g id="edge101" class="edge">
<title>statictea&#45;&gt;gethelp</title>
<path fill="none" stroke="#000000" d="M2245.7109,-1073.1888C2269.4639,-1054.4929 2304.0379,-1027.2799 2331.1602,-1005.9319"/>
<polygon fill="#000000" stroke="#000000" points="2333.6249,-1008.4462 2339.3181,-999.511 2329.2954,-1002.9456 2333.6249,-1008.4462"/>
</g>
<!-- statictea&#45;&gt;args -->
<g id="edge99" class="edge">
<title>statictea&#45;&gt;args</title>
<path fill="none" stroke="#000000" d="M2227.7801,-1069.107C2248.3065,-1012.3618 2294,-872.4073 2294,-751 2294,-751 2294,-751 2294,-636 2294,-429.1136 1740.7177,-447.6882 1701,-434.4917 1697.2049,-433.2308 1693.3519,-431.735 1689.5377,-430.0991"/>
<polygon fill="#000000" stroke="#000000" points="1690.7395,-426.7994 1680.1921,-425.7984 1687.8132,-433.1584 1690.7395,-426.7994"/>
</g>
<!-- statictea&#45;&gt;messages -->
<g id="edge100" class="edge">
<title>statictea&#45;&gt;messages</title>
<path fill="none" stroke="#000000" d="M2294.3074,-1084.8194C2346.9847,-1073.6015 2414.1242,-1050.1797 2452,-1001.4917 2491.5,-950.7158 2471,-922.3307 2471,-858 2471,-858 2471,-858 2471,-283 2471,-126.0471 2302.7248,-175.2833 2152,-131.5083 2028.8729,-95.7484 1660.7401,-60.991 1484.7512,-45.8765"/>
<polygon fill="#000000" stroke="#000000" points="1484.9844,-42.3838 1474.7224,-45.0186 1484.3877,-49.3583 1484.9844,-42.3838"/>
</g>
<!-- statictea&#45;&gt;version -->
<g id="edge102" class="edge">
<title>statictea&#45;&gt;version</title>
<path fill="none" stroke="#000000" d="M2220.4641,-1067.5374C2227.7226,-967.2773 2237.1678,-620.4953 2035,-498.3726 1863.976,-395.0628 1787.1832,-466.7549 1590,-434.4917 1565.3189,-430.4534 1538.5021,-425.6665 1514.2213,-421.1805"/>
<polygon fill="#000000" stroke="#000000" points="1514.8128,-417.7306 1504.3419,-419.3461 1513.5349,-424.6129 1514.8128,-417.7306"/>
</g>
<!-- parseCommandLine -->
<g id="node27" class="node">
<title>parseCommandLine</title>
<g id="a_node27"><a xlink:href="parseCommandLine.md" xlink:title="parseCommandLine.md">
<ellipse fill="#eee8aa" stroke="#000000" cx="1549" cy="-521" rx="148.8522" ry="22.7556"/>
<text text-anchor="middle" x="1549" y="-513.8" font-family="Times,serif" font-size="24.00" fill="#000000">parseCommandLine</text>
</a>
</g>
</g>
<!-- statictea&#45;&gt;parseCommandLine -->
<g id="edge6" class="edge">
<title>statictea&#45;&gt;parseCommandLine</title>
<path fill="none" stroke="#000000" d="M2135.2612,-1092.7974C1962.9301,-1086.9398 1572.0529,-1066.6651 1458,-1001.4917 1332.8284,-929.9648 1228.9135,-862.0089 1283,-728.3726 1319.4552,-638.2996 1420.4193,-577.8649 1486.9419,-546.4921"/>
<polygon fill="#000000" stroke="#000000" points="1488.4847,-549.6348 1496.0897,-542.2581 1485.5444,-543.2822 1488.4847,-549.6348"/>
</g>
<!-- processTemplate -->
<g id="node28" class="node">
<title>processTemplate</title>
<g id="a_node28"><a xlink:href="processTemplate.md" xlink:title="processTemplate.md">
<ellipse fill="#eee8aa" stroke="#000000" cx="1592" cy="-973" rx="125.2054" ry="22.7556"/>
<text text-anchor="middle" x="1592" y="-965.8" font-family="Times,serif" font-size="24.00" fill="#000000">processTemplate</text>
</a>
</g>
</g>
<!-- statictea&#45;&gt;processTemplate -->
<g id="edge98" class="edge">
<title>statictea&#45;&gt;processTemplate</title>
<path fill="none" stroke="#000000" d="M2152.4847,-1082.2318C2041.4091,-1060.5845 1815.7024,-1016.5969 1687.1791,-991.5493"/>
<polygon fill="#000000" stroke="#000000" points="1687.8207,-988.1085 1677.3358,-989.6309 1686.4816,-994.9793 1687.8207,-988.1085"/>
</g>
<!-- signatures&#45;&gt;vartypes -->
<g id="edge68" class="edge">
<title>signatures&#45;&gt;vartypes</title>
<path fill="none" stroke="#000000" d="M256.9178,-613.1756C254.0686,-585.1147 252.2302,-536.5244 267,-498.3726 297.4307,-419.7672 368.3768,-348.4344 410.6278,-310.8594"/>
<polygon fill="#000000" stroke="#000000" points="412.9602,-313.4693 418.1669,-304.2421 408.3424,-308.2084 412.9602,-313.4693"/>
</g>
<!-- signatures&#45;&gt;funtypes -->
<g id="edge69" class="edge">
<title>signatures&#45;&gt;funtypes</title>
<path fill="none" stroke="#000000" d="M276.5817,-613.8268C289.9067,-596.0084 308.7579,-570.8005 323.4537,-551.1492"/>
<polygon fill="#000000" stroke="#000000" points="326.2833,-553.2096 329.4692,-543.1051 320.6774,-549.0173 326.2833,-553.2096"/>
</g>
<!-- signatures&#45;&gt;messages -->
<g id="edge70" class="edge">
<title>signatures&#45;&gt;messages</title>
<path fill="none" stroke="#000000" d="M255.4918,-612.9321C250.8483,-585.4497 245.176,-538.2412 252,-498.3726 283.0824,-316.7761 281.3104,-216.0606 445,-131.5083 519.1708,-93.196 1068.0277,-56.9141 1293.1152,-43.4799"/>
<polygon fill="#000000" stroke="#000000" points="1293.4865,-46.9641 1303.2612,-42.8767 1293.0711,-39.9764 1293.4865,-46.9641"/>
</g>
<!-- opresultwarn&#45;&gt;warnings -->
<g id="edge61" class="edge">
<title>opresultwarn&#45;&gt;warnings</title>
<path fill="none" stroke="#000000" d="M907.5289,-265.3771C823.6454,-242.0866 676.6682,-201.2781 592.3477,-177.8663"/>
<polygon fill="#000000" stroke="#000000" points="593.2064,-174.4724 582.6345,-175.1694 591.3336,-181.2172 593.2064,-174.4724"/>
</g>
<!-- opresultwarn&#45;&gt;opresult -->
<g id="edge62" class="edge">
<title>opresultwarn&#45;&gt;opresult</title>
<path fill="none" stroke="#000000" d="M988.0576,-260.4399C1001.4232,-242.7629 1020.3018,-217.7944 1035.8921,-197.1749"/>
<polygon fill="#000000" stroke="#000000" points="1038.8865,-199.0178 1042.1258,-188.9303 1033.3029,-194.796 1038.8865,-199.0178"/>
</g>
<!-- matches&#45;&gt;regexes -->
<g id="edge15" class="edge">
<title>matches&#45;&gt;regexes</title>
<path fill="none" stroke="#000000" d="M1269.0973,-498.2797C1263.7568,-482.9257 1256.5729,-462.272 1250.3555,-444.3971"/>
<polygon fill="#000000" stroke="#000000" points="1253.6097,-443.0989 1247.0187,-434.8037 1246.9982,-445.3986 1253.6097,-443.0989"/>
</g>
<!-- matches&#45;&gt;args -->
<g id="edge14" class="edge">
<title>matches&#45;&gt;args</title>
<path fill="none" stroke="#000000" d="M1326.3821,-505.6099C1395.4053,-484.0986 1520.2786,-445.1815 1591.7981,-422.8922"/>
<polygon fill="#000000" stroke="#000000" points="1593.0187,-426.1779 1601.5244,-419.861 1590.9359,-419.4949 1593.0187,-426.1779"/>
</g>
<!-- readjson -->
<g id="node26" class="node">
<title>readjson</title>
<g id="a_node26"><a xlink:href="readjson.md" xlink:title="readjson.md">
<ellipse fill="#eee8aa" stroke="#000000" cx="807" cy="-521" rx="68.6102" ry="22.7556"/>
<text text-anchor="middle" x="807" y="-513.8" font-family="Times,serif" font-size="24.00" fill="#000000">readjson</text>
</a>
</g>
</g>
<!-- readjson&#45;&gt;opresultid -->
<g id="edge77" class="edge">
<title>readjson&#45;&gt;opresultid</title>
<path fill="none" stroke="#000000" d="M840.5221,-501.0371C867.8042,-484.3214 906.908,-459.2813 939,-434.4917 968.8786,-411.412 970.5146,-398.3427 1002,-377.5083 1047.9025,-347.1338 1105.1341,-321.5461 1147.2856,-304.688"/>
<polygon fill="#000000" stroke="#000000" points="1148.8347,-307.8393 1156.8488,-300.9093 1146.2622,-301.3291 1148.8347,-307.8393"/>
</g>
<!-- readjson&#45;&gt;unicodes -->
<g id="edge78" class="edge">
<title>readjson&#45;&gt;unicodes</title>
<path fill="none" stroke="#000000" d="M813.5197,-498.2797C818.4237,-481.19 825.2118,-457.5348 830.6873,-438.4534"/>
<polygon fill="#000000" stroke="#000000" points="834.0997,-439.2506 833.4938,-428.6731 827.3713,-437.3198 834.0997,-439.2506"/>
</g>
<!-- readjson&#45;&gt;vartypes -->
<g id="edge75" class="edge">
<title>readjson&#45;&gt;vartypes</title>
<path fill="none" stroke="#000000" d="M785.3541,-499.1873C768.6425,-482.0409 745.2074,-457.3194 726,-434.4917 705.573,-410.2146 708.249,-396.7209 683,-377.5083 631.4019,-338.2458 561.3749,-313.1056 510.4653,-298.7057"/>
<polygon fill="#000000" stroke="#000000" points="511.1203,-295.2557 500.5495,-295.9679 509.2573,-302.0032 511.1203,-295.2557"/>
</g>
<!-- readjson&#45;&gt;utf8decoder -->
<g id="edge79" class="edge">
<title>readjson&#45;&gt;utf8decoder</title>
<path fill="none" stroke="#000000" d="M847.3312,-502.535C873.5857,-488.105 905.698,-465.3125 921,-434.4917 932.2622,-411.8077 933.8944,-399.306 921,-377.5083 901.4965,-344.538 865.9491,-322.2988 832.2118,-307.7243"/>
<polygon fill="#000000" stroke="#000000" points="833.3375,-304.4024 822.759,-303.8142 830.6618,-310.8708 833.3375,-304.4024"/>
</g>
<!-- readjson&#45;&gt;messages -->
<g id="edge76" class="edge">
<title>readjson&#45;&gt;messages</title>
<path fill="none" stroke="#000000" d="M845.8067,-502.2923C904.7636,-474.0932 1020.6592,-419.5293 1121,-377.5083 1196.9092,-345.7188 1236.6933,-370.5571 1294,-311.4917 1357.5938,-245.9463 1378.7719,-135.6771 1385.7083,-77.1845"/>
<polygon fill="#000000" stroke="#000000" points="1389.2266,-77.2112 1386.8448,-66.8876 1382.2688,-76.4432 1389.2266,-77.2112"/>
</g>
<!-- parseCommandLine&#45;&gt;regexes -->
<g id="edge5" class="edge">
<title>parseCommandLine&#45;&gt;regexes</title>
<path fill="none" stroke="#000000" d="M1492.1372,-500.0409C1437.8884,-480.0454 1356.329,-449.9835 1300.0996,-429.2579"/>
<polygon fill="#000000" stroke="#000000" points="1301.1987,-425.9328 1290.6053,-425.7583 1298.7777,-432.5009 1301.1987,-425.9328"/>
</g>
<!-- parseCommandLine&#45;&gt;warnings -->
<g id="edge4" class="edge">
<title>parseCommandLine&#45;&gt;warnings</title>
<path fill="none" stroke="#000000" d="M1470.0829,-501.722C1431.1041,-488.5784 1386.1015,-467.4199 1356,-434.4917 1298.9151,-372.0462 1359.739,-307.7673 1294,-254.5083 1241.5416,-212.0086 796.9156,-177.8505 610.1215,-165.241"/>
<polygon fill="#000000" stroke="#000000" points="610.2889,-161.7445 600.077,-164.567 609.8202,-168.7288 610.2889,-161.7445"/>
</g>
<!-- parseCommandLine&#45;&gt;args -->
<g id="edge1" class="edge">
<title>parseCommandLine&#45;&gt;args</title>
<path fill="none" stroke="#000000" d="M1567.9328,-498.5538C1581.9232,-481.9674 1601.2214,-459.0881 1617.1298,-440.2275"/>
<polygon fill="#000000" stroke="#000000" points="1619.9427,-442.3211 1623.7149,-432.4205 1614.5919,-437.8079 1619.9427,-442.3211"/>
</g>
<!-- parseCommandLine&#45;&gt;messages -->
<g id="edge2" class="edge">
<title>parseCommandLine&#45;&gt;messages</title>
<path fill="none" stroke="#000000" d="M1544.2704,-498.1684C1538.1764,-469.6752 1526.8282,-419.5719 1514,-377.5083 1480.0859,-266.304 1429.8662,-138.4201 1404.6498,-76.1124"/>
<polygon fill="#000000" stroke="#000000" points="1407.8283,-74.637 1400.8237,-66.688 1401.3424,-77.2702 1407.8283,-74.637"/>
</g>
<!-- processTemplate&#45;&gt;parseCmdLine -->
<g id="edge22" class="edge">
<title>processTemplate&#45;&gt;parseCmdLine</title>
<path fill="none" stroke="#000000" d="M1649.5681,-952.788C1719.4073,-924.7791 1833.8867,-866.811 1883,-773.6274 1900.7519,-739.9463 1885.2175,-696.5189 1870.2324,-667.5424"/>
<polygon fill="#000000" stroke="#000000" points="1873.269,-665.7997 1865.4293,-658.6729 1867.1136,-669.133 1873.269,-665.7997"/>
</g>
<!-- processTemplate&#45;&gt;env -->
<g id="edge13" class="edge">
<title>processTemplate&#45;&gt;env</title>
<path fill="none" stroke="#000000" d="M1663.3759,-954.4157C1711.8837,-939.5497 1775.9048,-915.394 1825,-880.6274 1928.9013,-807.05 1968.3951,-783.7373 2013,-664.4917 2026.8182,-627.5504 2015.1833,-582.2177 2004.0287,-552.5176"/>
<polygon fill="#000000" stroke="#000000" points="2007.23,-551.095 2000.3017,-543.0794 2000.7193,-553.666 2007.23,-551.095"/>
</g>
<!-- processTemplate&#45;&gt;variables -->
<g id="edge83" class="edge">
<title>processTemplate&#45;&gt;variables</title>
<path fill="none" stroke="#000000" d="M1504.5418,-956.8079C1449.9125,-943.3735 1380.4331,-919.9242 1329,-880.6274 1209.2378,-789.1246 1125.9668,-622.9717 1094.7017,-553.2068"/>
<polygon fill="#000000" stroke="#000000" points="1097.7135,-551.3634 1090.468,-543.6333 1091.3116,-554.1946 1097.7135,-551.3634"/>
</g>
<!-- processTemplate&#45;&gt;vartypes -->
<g id="edge84" class="edge">
<title>processTemplate&#45;&gt;vartypes</title>
<path fill="none" stroke="#000000" d="M1470.421,-967.4893C1116.8701,-949.8587 114,-887.7923 114,-751 114,-751 114,-751 114,-636 114,-473.1754 303.6774,-354.3419 395.4272,-306.3848"/>
<polygon fill="#000000" stroke="#000000" points="397.2378,-309.3892 404.5221,-301.6957 394.0299,-303.1675 397.2378,-309.3892"/>
</g>
<!-- processTemplate&#45;&gt;replacement -->
<g id="edge97" class="edge">
<title>processTemplate&#45;&gt;replacement</title>
<path fill="none" stroke="#000000" d="M1571.114,-950.4918C1533.6935,-910.1649 1455.2399,-825.6178 1413.4962,-780.6318"/>
<polygon fill="#000000" stroke="#000000" points="1416.0027,-778.1874 1406.635,-773.2378 1410.8714,-782.9488 1416.0027,-778.1874"/>
</g>
<!-- processTemplate&#45;&gt;readlines -->
<g id="edge17" class="edge">
<title>processTemplate&#45;&gt;readlines</title>
<path fill="none" stroke="#000000" d="M1592.6045,-950.3652C1594.1153,-893.7955 1598.0697,-745.7238 1599.962,-674.8691"/>
<polygon fill="#000000" stroke="#000000" points="1603.4681,-674.6804 1600.2365,-664.5905 1596.4706,-674.4934 1603.4681,-674.6804"/>
</g>
<!-- processTemplate&#45;&gt;collectCommand -->
<g id="edge28" class="edge">
<title>processTemplate&#45;&gt;collectCommand</title>
<path fill="none" stroke="#000000" d="M1607.7152,-950.4918C1635.6245,-910.5184 1693.8694,-827.0967 1725.4788,-781.824"/>
<polygon fill="#000000" stroke="#000000" points="1728.3882,-783.7708 1731.2432,-773.5678 1722.6487,-779.7634 1728.3882,-783.7708"/>
</g>
<!-- processTemplate&#45;&gt;args -->
<g id="edge7" class="edge">
<title>processTemplate&#45;&gt;args</title>
<path fill="none" stroke="#000000" d="M1680.1266,-956.8995C1814.5305,-926.8512 2064.7446,-847.8383 2156,-664.4917 2196.6994,-582.7202 2116.7874,-539.0402 2035,-498.3726 1899.6713,-431.0823 1843.8093,-483.9623 1701,-434.4917 1697.2212,-433.1827 1693.3797,-431.6528 1689.5734,-429.9938"/>
<polygon fill="#000000" stroke="#000000" points="1690.784,-426.6969 1680.2403,-425.6562 1687.8337,-433.0448 1690.784,-426.6969"/>
</g>
<!-- processTemplate&#45;&gt;messages -->
<g id="edge8" class="edge">
<title>processTemplate&#45;&gt;messages</title>
<path fill="none" stroke="#000000" d="M1695.3855,-960.2422C1882.0135,-934.3057 2256,-867.7641 2256,-751 2256,-751 2256,-751 2256,-283 2256,-230.7285 2328.2792,-238.6193 2077,-131.5083 1972.3228,-86.8882 1647.846,-57.2236 1484.702,-44.7238"/>
<polygon fill="#000000" stroke="#000000" points="1484.9068,-41.2294 1474.6703,-43.9613 1484.3762,-48.2092 1484.9068,-41.2294"/>
</g>
<!-- processTemplate&#45;&gt;matches -->
<g id="edge16" class="edge">
<title>processTemplate&#45;&gt;matches</title>
<path fill="none" stroke="#000000" d="M1530.3988,-953.2748C1456.6611,-925.9945 1336.4464,-869.0049 1283,-773.6274 1243.6744,-703.4492 1257.6066,-604.1936 1268.678,-553.5209"/>
<polygon fill="#000000" stroke="#000000" points="1272.0916,-554.2934 1270.9071,-543.765 1265.2675,-552.7341 1272.0916,-554.2934"/>
</g>
<!-- processTemplate&#45;&gt;readjson -->
<g id="edge85" class="edge">
<title>processTemplate&#45;&gt;readjson</title>
<path fill="none" stroke="#000000" d="M1471.6586,-966.5766C1297.0625,-955.7091 983.2993,-929.9055 882,-880.6274 773.324,-827.7608 745.38,-781.9649 717,-664.4917 711.0527,-639.874 707.0772,-630.8094 717,-607.5083 727.3277,-583.2563 748.1566,-562.522 767.1775,-547.437"/>
<polygon fill="#000000" stroke="#000000" points="769.3591,-550.1749 775.1827,-541.3241 765.1107,-544.6114 769.3591,-550.1749"/>
</g>
<!-- runCommand -->
<g id="node30" class="node">
<title>runCommand</title>
<g id="a_node30"><a xlink:href="runCommand.md" xlink:title="runCommand.md">
<ellipse fill="#eee8aa" stroke="#000000" cx="996" cy="-858" rx="104.7872" ry="22.7556"/>
<text text-anchor="middle" x="996" y="-850.8" font-family="Times,serif" font-size="24.00" fill="#000000">runCommand</text>
</a>
</g>
</g>
<!-- processTemplate&#45;&gt;runCommand -->
<g id="edge82" class="edge">
<title>processTemplate&#45;&gt;runCommand</title>
<path fill="none" stroke="#000000" d="M1506.2906,-956.4621C1394.0375,-934.8025 1198.1944,-897.014 1084.551,-875.0862"/>
<polygon fill="#000000" stroke="#000000" points="1084.9725,-871.603 1074.4905,-873.145 1083.6463,-878.4763 1084.9725,-871.603"/>
</g>
<!-- runCommand&#45;&gt;runFunction -->
<g id="edge74" class="edge">
<title>runCommand&#45;&gt;runFunction</title>
<path fill="none" stroke="#000000" d="M923.9006,-841.5157C837.984,-821.8724 694.9524,-789.1707 606.3655,-768.9169"/>
<polygon fill="#000000" stroke="#000000" points="606.9007,-765.449 596.3721,-766.6321 605.3405,-772.2729 606.9007,-765.449"/>
</g>
<!-- runCommand&#45;&gt;parseNumber -->
<g id="edge38" class="edge">
<title>runCommand&#45;&gt;parseNumber</title>
<path fill="none" stroke="#000000" d="M981.5014,-835.4918C956.9536,-797.3824 906.968,-719.7825 877.0897,-673.398"/>
<polygon fill="#000000" stroke="#000000" points="879.9333,-671.3492 871.5756,-664.8377 874.0485,-675.1399 879.9333,-671.3492"/>
</g>
<!-- runCommand&#45;&gt;regexes -->
<g id="edge32" class="edge">
<title>runCommand&#45;&gt;regexes</title>
<path fill="none" stroke="#000000" d="M992.9647,-835.106C984.1201,-764.717 961.298,-552.9577 999,-498.3726 1018.4269,-470.2462 1100.8476,-442.4786 1163.2979,-424.8485"/>
<polygon fill="#000000" stroke="#000000" points="1164.4428,-428.1629 1173.1366,-422.1075 1162.5641,-421.4197 1164.4428,-428.1629"/>
</g>
<!-- runCommand&#45;&gt;parseCmdLine -->
<g id="edge29" class="edge">
<title>runCommand&#45;&gt;parseCmdLine</title>
<path fill="none" stroke="#000000" d="M1096.5411,-851.5606C1204.4811,-842.4471 1379.8834,-821.2351 1524,-773.6274 1565.3854,-759.9561 1571.266,-746.2853 1611,-728.3726 1668.8089,-702.3115 1736.3472,-676.7347 1785.0246,-659.1269"/>
<polygon fill="#000000" stroke="#000000" points="1786.278,-662.3956 1794.5001,-655.7137 1783.9057,-655.8098 1786.278,-662.3956"/>
</g>
<!-- runCommand&#45;&gt;env -->
<g id="edge33" class="edge">
<title>runCommand&#45;&gt;env</title>
<path fill="none" stroke="#000000" d="M1100.5567,-856.6906C1304.2614,-852.7417 1746.3142,-836.9178 1883,-773.6274 1946.0691,-744.4242 1967.9874,-728.5297 1995,-664.4917 2010.0793,-628.7437 2004.9738,-583.4214 1998.654,-553.382"/>
<polygon fill="#000000" stroke="#000000" points="2002.0233,-552.4135 1996.399,-543.4348 1995.1965,-553.9611 2002.0233,-552.4135"/>
</g>
<!-- runCommand&#45;&gt;variables -->
<g id="edge47" class="edge">
<title>runCommand&#45;&gt;variables</title>
<path fill="none" stroke="#000000" d="M1001.7091,-835.3652C1016.4023,-777.1111 1055.5695,-621.8245 1072.7397,-553.7495"/>
<polygon fill="#000000" stroke="#000000" points="1076.1518,-554.5324 1075.2038,-543.9801 1069.3644,-552.8204 1076.1518,-554.5324"/>
</g>
<!-- runCommand&#45;&gt;vartypes -->
<g id="edge35" class="edge">
<title>runCommand&#45;&gt;vartypes</title>
<path fill="none" stroke="#000000" d="M897.1597,-850.3584C741.9182,-837.343 455.3843,-808.8313 425,-773.6274 410.0575,-756.3148 433.5256,-423.1674 441.501,-315.9424"/>
<polygon fill="#000000" stroke="#000000" points="445.0102,-315.9496 442.2657,-305.7164 438.0297,-315.4275 445.0102,-315.9496"/>
</g>
<!-- runCommand&#45;&gt;readlines -->
<g id="edge30" class="edge">
<title>runCommand&#45;&gt;readlines</title>
<path fill="none" stroke="#000000" d="M1093.1289,-849.5135C1217.102,-837.3034 1423.3899,-811.9462 1489,-773.6274 1510.5485,-761.0423 1549.6798,-709.2652 1575.5086,-672.9426"/>
<polygon fill="#000000" stroke="#000000" points="1578.5381,-674.7203 1581.4483,-664.5329 1572.8203,-670.6819 1578.5381,-674.7203"/>
</g>
<!-- runCommand&#45;&gt;funtypes -->
<g id="edge51" class="edge">
<title>runCommand&#45;&gt;funtypes</title>
<path fill="none" stroke="#000000" d="M897.0995,-850.4908C735.1758,-837.2773 427.8119,-807.9893 392,-773.6274 360.9718,-743.8556 350.5854,-615.4913 347.3508,-554.0365"/>
<polygon fill="#000000" stroke="#000000" points="350.8307,-553.542 346.8425,-543.7264 343.8392,-553.8867 350.8307,-553.542"/>
</g>
<!-- runCommand&#45;&gt;warnings -->
<g id="edge37" class="edge">
<title>runCommand&#45;&gt;warnings</title>
<path fill="none" stroke="#000000" d="M893.0773,-853.5957C670.5607,-841.5697 157.0528,-799.4584 62,-664.4917 -57.8047,-494.3795 126.0785,-385.1711 288,-254.5083 337.764,-214.3512 406.6851,-189.5879 457.908,-175.5397"/>
<polygon fill="#000000" stroke="#000000" points="458.8234,-178.918 467.5814,-172.9558 457.0169,-172.1551 458.8234,-178.918"/>
</g>
<!-- runCommand&#45;&gt;collectCommand -->
<g id="edge81" class="edge">
<title>runCommand&#45;&gt;collectCommand</title>
<path fill="none" stroke="#000000" d="M1083.619,-845.5163C1221.1072,-825.9275 1487.2793,-788.0041 1637.2963,-766.6302"/>
<polygon fill="#000000" stroke="#000000" points="1638.0439,-770.0591 1647.4502,-765.1835 1637.0565,-763.1291 1638.0439,-770.0591"/>
</g>
<!-- runCommand&#45;&gt;messages -->
<g id="edge36" class="edge">
<title>runCommand&#45;&gt;messages</title>
<path fill="none" stroke="#000000" d="M891.7012,-855.6107C695.9028,-849.8181 281.2982,-830.9823 151,-773.6274 67.8912,-737.0444 0,-726.8042 0,-636 0,-636 0,-636 0,-283 0,-144.6258 139.6373,-171.8508 272,-131.5083 461.8407,-73.6472 1058.2524,-48.6277 1292.8523,-40.8476"/>
<polygon fill="#000000" stroke="#000000" points="1293.193,-44.3384 1303.0727,-40.512 1292.9632,-37.3421 1293.193,-44.3384"/>
</g>
<!-- runCommand&#45;&gt;matches -->
<g id="edge31" class="edge">
<title>runCommand&#45;&gt;matches</title>
<path fill="none" stroke="#000000" d="M1014.6548,-835.6275C1063.6735,-776.84 1196.1602,-617.9502 1251.8268,-551.1899"/>
<polygon fill="#000000" stroke="#000000" points="1254.8192,-553.0664 1258.5352,-543.1446 1249.443,-548.5835 1254.8192,-553.0664"/>
</g>
<!-- runCommand&#45;&gt;readjson -->
<g id="edge80" class="edge">
<title>runCommand&#45;&gt;readjson</title>
<path fill="none" stroke="#000000" d="M944.75,-838.2277C880.7367,-810.3984 774.1448,-752.9649 729,-664.4917 717.489,-641.9329 719.9159,-631.149 729,-607.5083 737.7269,-584.7973 755.479,-564.326 771.8457,-549.0055"/>
<polygon fill="#000000" stroke="#000000" points="774.6348,-551.2039 779.7234,-541.911 769.9504,-546.0023 774.6348,-551.2039"/>
</g>
</g>
</svg>
