<?xml version="1.0" encoding="UTF-8" standalone="no"?>
<!DOCTYPE svg PUBLIC "-//W3C//DTD SVG 1.1//EN"
 "http://www.w3.org/Graphics/SVG/1.1/DTD/svg11.dtd">
<!-- Generated by graphviz version 7.0.1 (20221109.1506)
 -->
<!-- Title: statictea Pages: 1 -->
<svg width="639pt" height="1442pt"
 viewBox="0.00 0.00 638.77 1442.04" xmlns="http://www.w3.org/2000/svg" xmlns:xlink="http://www.w3.org/1999/xlink">
<g id="graph0" class="graph" transform="scale(1 1) rotate(0) translate(4 1438.04)">
<title>statictea</title>
<polygon fill="white" stroke="none" points="-4,4 -4,-1438.04 634.77,-1438.04 634.77,4 -4,4"/>
<!-- strutils -->
<g id="node1" class="node">
<title>strutils</title>
<ellipse fill="none" stroke="black" cx="88.19" cy="-774" rx="57.97" ry="24.08"/>
<text text-anchor="middle" x="88.19" y="-767.8" font-family="Times,serif" font-size="24.00">strutils</text>
</g>
<!-- statictea -->
<g id="node2" class="node">
<title>statictea</title>
<ellipse fill="none" stroke="black" cx="547.57" cy="-1098" rx="39.79" ry="18"/>
<text text-anchor="middle" x="547.57" y="-1094.3" font-family="Times,serif" font-size="14.00">statictea</text>
</g>
<!-- strutils&#45;&gt;statictea -->
<g id="edge1" class="edge">
<title>strutils&#45;&gt;statictea</title>
<path fill="none" stroke="black" d="M111.27,-796.25C166.23,-850.48 315.49,-990.92 464.38,-1071 475.72,-1077.1 488.69,-1082.14 500.92,-1086.15"/>
<polygon fill="black" stroke="black" points="499.84,-1089.48 510.43,-1089.1 501.91,-1082.8 499.84,-1089.48"/>
</g>
<!-- messages -->
<g id="node9" class="node">
<title>messages</title>
<ellipse fill="none" stroke="black" cx="547.57" cy="-990" rx="44.39" ry="18"/>
<text text-anchor="middle" x="547.57" y="-986.3" font-family="Times,serif" font-size="14.00">messages</text>
</g>
<!-- strutils&#45;&gt;messages -->
<g id="edge6" class="edge">
<title>strutils&#45;&gt;messages</title>
<path fill="none" stroke="black" d="M123.55,-793.5C188.63,-829.94 334.97,-909.5 464.38,-963 475.86,-967.74 488.5,-972.24 500.35,-976.16"/>
<polygon fill="black" stroke="black" points="498.92,-979.37 509.51,-979.11 501.07,-972.71 498.92,-979.37"/>
</g>
<!-- cmdline -->
<g id="node10" class="node">
<title>cmdline</title>
<ellipse fill="none" stroke="black" cx="547.57" cy="-828" rx="39.79" ry="18"/>
<text text-anchor="middle" x="547.57" y="-824.3" font-family="Times,serif" font-size="14.00">cmdline</text>
</g>
<!-- strutils&#45;&gt;cmdline -->
<g id="edge10" class="edge">
<title>strutils&#45;&gt;cmdline</title>
<path fill="none" stroke="black" d="M144.36,-780.51C234.43,-791.15 411.61,-812.07 497.53,-822.21"/>
<polygon fill="black" stroke="black" points="496.94,-825.66 507.28,-823.36 497.76,-818.71 496.94,-825.66"/>
</g>
<!-- matches -->
<g id="node11" class="node">
<title>matches</title>
<ellipse fill="none" stroke="black" cx="547.57" cy="-720" rx="40.09" ry="18"/>
<text text-anchor="middle" x="547.57" y="-716.3" font-family="Times,serif" font-size="14.00">matches</text>
</g>
<!-- strutils&#45;&gt;matches -->
<g id="edge11" class="edge">
<title>strutils&#45;&gt;matches</title>
<path fill="none" stroke="black" d="M144.36,-767.49C234.32,-756.87 411.16,-735.99 497.21,-725.83"/>
<polygon fill="black" stroke="black" points="497.46,-729.32 506.98,-724.67 496.64,-722.37 497.46,-729.32"/>
</g>
<!-- processTemplate -->
<g id="node14" class="node">
<title>processTemplate</title>
<ellipse fill="none" stroke="black" cx="547.57" cy="-612" rx="70.39" ry="18"/>
<text text-anchor="middle" x="547.57" y="-608.3" font-family="Times,serif" font-size="14.00">processTemplate</text>
</g>
<!-- strutils&#45;&gt;processTemplate -->
<g id="edge18" class="edge">
<title>strutils&#45;&gt;processTemplate</title>
<path fill="none" stroke="black" d="M132.38,-758.01C202.04,-732.33 343.61,-680.56 464.38,-639 473.26,-635.94 482.71,-632.77 491.91,-629.72"/>
<polygon fill="black" stroke="black" points="492.72,-633.14 501.12,-626.68 490.53,-626.49 492.72,-633.14"/>
</g>
<!-- env -->
<g id="node16" class="node">
<title>env</title>
<ellipse fill="none" stroke="black" cx="547.57" cy="-1314" rx="27" ry="18"/>
<text text-anchor="middle" x="547.57" y="-1310.3" font-family="Times,serif" font-size="14.00">env</text>
</g>
<!-- strutils&#45;&gt;env -->
<g id="edge24" class="edge">
<title>strutils&#45;&gt;env</title>
<path fill="none" stroke="black" d="M103.73,-797.66C160.15,-888.81 366.3,-1215.73 464.38,-1287 477.74,-1296.71 494.79,-1303.06 509.89,-1307.14"/>
<polygon fill="black" stroke="black" points="508.96,-1310.52 519.5,-1309.49 510.61,-1303.72 508.96,-1310.52"/>
</g>
<!-- tempFile -->
<g id="node18" class="node">
<title>tempFile</title>
<ellipse fill="none" stroke="black" cx="547.57" cy="-1152" rx="42.49" ry="18"/>
<text text-anchor="middle" x="547.57" y="-1148.3" font-family="Times,serif" font-size="14.00">tempFile</text>
</g>
<!-- strutils&#45;&gt;tempFile -->
<g id="edge27" class="edge">
<title>strutils&#45;&gt;tempFile</title>
<path fill="none" stroke="black" d="M107.34,-796.86C157.55,-858.66 305.13,-1030.68 464.38,-1125 474.86,-1131.21 486.95,-1136.19 498.57,-1140.1"/>
<polygon fill="black" stroke="black" points="497.47,-1143.43 508.06,-1143.08 499.57,-1136.75 497.47,-1143.43"/>
</g>
<!-- runCommand -->
<g id="node22" class="node">
<title>runCommand</title>
<ellipse fill="none" stroke="black" cx="547.57" cy="-504" rx="59.59" ry="18"/>
<text text-anchor="middle" x="547.57" y="-500.3" font-family="Times,serif" font-size="14.00">runCommand</text>
</g>
<!-- strutils&#45;&gt;runCommand -->
<g id="edge35" class="edge">
<title>strutils&#45;&gt;runCommand</title>
<path fill="none" stroke="black" d="M116.44,-752.79C176.38,-706.95 325.41,-597.46 464.38,-531 473.05,-526.85 482.52,-523.1 491.84,-519.79"/>
<polygon fill="black" stroke="black" points="492.89,-523.13 501.24,-516.6 490.64,-516.5 492.89,-523.13"/>
</g>
<!-- vartypes -->
<g id="node23" class="node">
<title>vartypes</title>
<ellipse fill="none" stroke="black" cx="547.57" cy="-450" rx="40.09" ry="18"/>
<text text-anchor="middle" x="547.57" y="-446.3" font-family="Times,serif" font-size="14.00">vartypes</text>
</g>
<!-- strutils&#45;&gt;vartypes -->
<g id="edge38" class="edge">
<title>strutils&#45;&gt;vartypes</title>
<path fill="none" stroke="black" d="M111.27,-751.75C166.23,-697.52 315.49,-557.08 464.38,-477 475.72,-470.9 488.69,-465.86 500.92,-461.85"/>
<polygon fill="black" stroke="black" points="501.91,-465.2 510.43,-458.9 499.84,-458.52 501.91,-465.2"/>
</g>
<!-- variables -->
<g id="node24" class="node">
<title>variables</title>
<ellipse fill="none" stroke="black" cx="547.57" cy="-396" rx="42.49" ry="18"/>
<text text-anchor="middle" x="547.57" y="-392.3" font-family="Times,serif" font-size="14.00">variables</text>
</g>
<!-- strutils&#45;&gt;variables -->
<g id="edge40" class="edge">
<title>strutils&#45;&gt;variables</title>
<path fill="none" stroke="black" d="M107.34,-751.14C157.55,-689.34 305.13,-517.32 464.38,-423 474.86,-416.79 486.95,-411.81 498.57,-407.9"/>
<polygon fill="black" stroke="black" points="499.57,-411.25 508.06,-404.92 497.47,-404.57 499.57,-411.25"/>
</g>
<!-- runFunction -->
<g id="node25" class="node">
<title>runFunction</title>
<ellipse fill="none" stroke="black" cx="547.57" cy="-1260" rx="53.89" ry="18"/>
<text text-anchor="middle" x="547.57" y="-1256.3" font-family="Times,serif" font-size="14.00">runFunction</text>
</g>
<!-- strutils&#45;&gt;runFunction -->
<g id="edge45" class="edge">
<title>strutils&#45;&gt;runFunction</title>
<path fill="none" stroke="black" d="M101.94,-797.73C143.6,-873.02 283.42,-1108.81 464.38,-1233 472.48,-1238.56 481.8,-1243.04 491.2,-1246.63"/>
<polygon fill="black" stroke="black" points="489.75,-1249.83 500.34,-1249.82 492.05,-1243.22 489.75,-1249.83"/>
</g>
<!-- unicodes -->
<g id="node31" class="node">
<title>unicodes</title>
<ellipse fill="none" stroke="black" cx="547.57" cy="-234" rx="42.49" ry="18"/>
<text text-anchor="middle" x="547.57" y="-230.3" font-family="Times,serif" font-size="14.00">unicodes</text>
</g>
<!-- strutils&#45;&gt;unicodes -->
<g id="edge52" class="edge">
<title>strutils&#45;&gt;unicodes</title>
<path fill="none" stroke="black" d="M105.1,-750.52C170.18,-654.73 414.95,-296.92 464.38,-261 474.14,-253.91 485.87,-248.61 497.37,-244.67"/>
<polygon fill="black" stroke="black" points="498.29,-248.05 506.81,-241.75 496.22,-241.37 498.29,-248.05"/>
</g>
<!-- replacement -->
<g id="node35" class="node">
<title>replacement</title>
<ellipse fill="none" stroke="black" cx="547.57" cy="-558" rx="53.89" ry="18"/>
<text text-anchor="middle" x="547.57" y="-554.3" font-family="Times,serif" font-size="14.00">replacement</text>
</g>
<!-- strutils&#45;&gt;replacement -->
<g id="edge61" class="edge">
<title>strutils&#45;&gt;replacement</title>
<path fill="none" stroke="black" d="M123.55,-754.5C188.63,-718.06 334.97,-638.5 464.38,-585 474.37,-580.87 485.25,-576.93 495.71,-573.39"/>
<polygon fill="black" stroke="black" points="496.58,-576.79 504.98,-570.34 494.39,-570.14 496.58,-576.79"/>
</g>
<!-- startingvars -->
<g id="node36" class="node">
<title>startingvars</title>
<ellipse fill="none" stroke="black" cx="547.57" cy="-882" rx="51.99" ry="18"/>
<text text-anchor="middle" x="547.57" y="-878.3" font-family="Times,serif" font-size="14.00">startingvars</text>
</g>
<!-- strutils&#45;&gt;startingvars -->
<g id="edge64" class="edge">
<title>strutils&#45;&gt;startingvars</title>
<path fill="none" stroke="black" d="M139.01,-785.76C225.71,-806.24 403.62,-848.24 492.93,-869.33"/>
<polygon fill="black" stroke="black" points="491.88,-872.68 502.41,-871.57 493.49,-865.87 491.88,-872.68"/>
</g>
<!-- codefile -->
<g id="node37" class="node">
<title>codefile</title>
<ellipse fill="none" stroke="black" cx="547.57" cy="-1044" rx="38.99" ry="18"/>
<text text-anchor="middle" x="547.57" y="-1040.3" font-family="Times,serif" font-size="14.00">codefile</text>
</g>
<!-- strutils&#45;&gt;codefile -->
<g id="edge68" class="edge">
<title>strutils&#45;&gt;codefile</title>
<path fill="none" stroke="black" d="M116.44,-795.21C176.38,-841.05 325.41,-950.54 464.38,-1017 476.33,-1022.71 489.8,-1027.69 502.32,-1031.77"/>
<polygon fill="black" stroke="black" points="500.99,-1035.02 511.58,-1034.66 503.07,-1028.34 500.99,-1035.02"/>
</g>
<!-- repl -->
<g id="node40" class="node">
<title>repl</title>
<ellipse fill="none" stroke="black" cx="547.57" cy="-342" rx="27" ry="18"/>
<text text-anchor="middle" x="547.57" y="-338.3" font-family="Times,serif" font-size="14.00">repl</text>
</g>
<!-- strutils&#45;&gt;repl -->
<g id="edge76" class="edge">
<title>strutils&#45;&gt;repl</title>
<path fill="none" stroke="black" d="M104.44,-750.49C150.35,-681.56 294.57,-477.96 464.38,-369 478.28,-360.08 495.41,-353.84 510.42,-349.63"/>
<polygon fill="black" stroke="black" points="511.13,-353.06 519.94,-347.17 509.38,-346.28 511.13,-353.06"/>
</g>
<!-- options -->
<g id="node3" class="node">
<title>options</title>
<ellipse fill="none" stroke="black" cx="88.19" cy="-612" rx="61.54" ry="24.08"/>
<text text-anchor="middle" x="88.19" y="-605.8" font-family="Times,serif" font-size="24.00">options</text>
</g>
<!-- parseCommandLine -->
<g id="node4" class="node">
<title>parseCommandLine</title>
<ellipse fill="none" stroke="black" cx="547.57" cy="-666" rx="83.39" ry="18"/>
<text text-anchor="middle" x="547.57" y="-662.3" font-family="Times,serif" font-size="14.00">parseCommandLine</text>
</g>
<!-- options&#45;&gt;parseCommandLine -->
<g id="edge2" class="edge">
<title>options&#45;&gt;parseCommandLine</title>
<path fill="none" stroke="black" d="M147.58,-618.89C227.34,-628.31 370.86,-645.25 462.28,-656.05"/>
<polygon fill="black" stroke="black" points="461.59,-659.49 471.94,-657.19 462.41,-652.54 461.59,-659.49"/>
</g>
<!-- options&#45;&gt;matches -->
<g id="edge12" class="edge">
<title>options&#45;&gt;matches</title>
<path fill="none" stroke="black" d="M141.66,-624.39C231.84,-645.68 414.79,-688.88 500.42,-709.1"/>
<polygon fill="black" stroke="black" points="499.59,-712.5 510.12,-711.39 501.2,-705.69 499.59,-712.5"/>
</g>
<!-- regexes -->
<g id="node13" class="node">
<title>regexes</title>
<ellipse fill="none" stroke="black" cx="547.57" cy="-126" rx="37.89" ry="18"/>
<text text-anchor="middle" x="547.57" y="-122.3" font-family="Times,serif" font-size="14.00">regexes</text>
</g>
<!-- options&#45;&gt;regexes -->
<g id="edge14" class="edge">
<title>options&#45;&gt;regexes</title>
<path fill="none" stroke="black" d="M117.27,-590.45C135.07,-576.17 158.1,-556.54 176.38,-537 322.1,-381.19 291.04,-277.36 464.38,-153 475.24,-145.21 488.47,-139.58 501.12,-135.54"/>
<polygon fill="black" stroke="black" points="501.92,-138.95 510.56,-132.81 499.98,-132.22 501.92,-138.95"/>
</g>
<!-- options&#45;&gt;processTemplate -->
<g id="edge16" class="edge">
<title>options&#45;&gt;processTemplate</title>
<path fill="none" stroke="black" d="M149.93,-612C231.14,-612 375.33,-612 465.68,-612"/>
<polygon fill="black" stroke="black" points="465.46,-615.5 475.46,-612 465.46,-608.5 465.46,-615.5"/>
</g>
<!-- options&#45;&gt;env -->
<g id="edge23" class="edge">
<title>options&#45;&gt;env</title>
<path fill="none" stroke="black" d="M106.05,-635.27C124.22,-660.73 153.59,-702.97 176.38,-741 317.41,-976.34 254.79,-1109.96 464.38,-1287 477.21,-1297.84 494.52,-1304.36 509.95,-1308.27"/>
<polygon fill="black" stroke="black" points="508.76,-1311.59 519.28,-1310.35 510.28,-1304.76 508.76,-1311.59"/>
</g>
<!-- options&#45;&gt;tempFile -->
<g id="edge28" class="edge">
<title>options&#45;&gt;tempFile</title>
<path fill="none" stroke="black" d="M105.1,-635.48C170.18,-731.27 414.95,-1089.08 464.38,-1125 474.14,-1132.09 485.87,-1137.39 497.37,-1141.33"/>
<polygon fill="black" stroke="black" points="496.22,-1144.63 506.81,-1144.25 498.29,-1137.95 496.22,-1144.63"/>
</g>
<!-- linebuffer -->
<g id="node20" class="node">
<title>linebuffer</title>
<ellipse fill="none" stroke="black" cx="547.57" cy="-936" rx="45.49" ry="18"/>
<text text-anchor="middle" x="547.57" y="-932.3" font-family="Times,serif" font-size="14.00">linebuffer</text>
</g>
<!-- options&#45;&gt;linebuffer -->
<g id="edge31" class="edge">
<title>options&#45;&gt;linebuffer</title>
<path fill="none" stroke="black" d="M111.68,-634.65C166.96,-689.17 315.86,-829.11 464.38,-909 474.6,-914.5 486.13,-919.13 497.26,-922.93"/>
<polygon fill="black" stroke="black" points="496.16,-926.25 506.75,-925.98 498.3,-919.59 496.16,-926.25"/>
</g>
<!-- parseCmdLine -->
<g id="node21" class="node">
<title>parseCmdLine</title>
<ellipse fill="none" stroke="black" cx="547.57" cy="-288" rx="63.09" ry="18"/>
<text text-anchor="middle" x="547.57" y="-284.3" font-family="Times,serif" font-size="14.00">parseCmdLine</text>
</g>
<!-- options&#45;&gt;parseCmdLine -->
<g id="edge32" class="edge">
<title>options&#45;&gt;parseCmdLine</title>
<path fill="none" stroke="black" d="M114.75,-589.8C186.24,-528.06 387.93,-356.12 464.38,-315 472.19,-310.8 480.78,-307.1 489.36,-303.89"/>
<polygon fill="black" stroke="black" points="490.47,-307.21 498.74,-300.59 488.15,-300.61 490.47,-307.21"/>
</g>
<!-- options&#45;&gt;runCommand -->
<g id="edge34" class="edge">
<title>options&#45;&gt;runCommand</title>
<path fill="none" stroke="black" d="M141.66,-599.61C227.84,-579.26 398.75,-538.9 488.47,-517.72"/>
<polygon fill="black" stroke="black" points="489.13,-521.16 498.06,-515.46 487.52,-514.35 489.13,-521.16"/>
</g>
<!-- options&#45;&gt;vartypes -->
<g id="edge39" class="edge">
<title>options&#45;&gt;vartypes</title>
<path fill="none" stroke="black" d="M133.81,-595.49C203.96,-569.63 344.43,-518.27 464.38,-477 477.01,-472.65 490.79,-468.07 503.39,-463.93"/>
<polygon fill="black" stroke="black" points="504.24,-467.34 512.66,-460.91 502.07,-460.68 504.24,-467.34"/>
</g>
<!-- options&#45;&gt;variables -->
<g id="edge41" class="edge">
<title>options&#45;&gt;variables</title>
<path fill="none" stroke="black" d="M124.32,-592.07C189.77,-555.44 335.47,-476.29 464.38,-423 476.07,-418.17 488.96,-413.59 501.01,-409.63"/>
<polygon fill="black" stroke="black" points="501.87,-413.03 510.32,-406.63 499.73,-406.36 501.87,-413.03"/>
</g>
<!-- options&#45;&gt;runFunction -->
<g id="edge43" class="edge">
<title>options&#45;&gt;runFunction</title>
<path fill="none" stroke="black" d="M105.73,-635.47C123.62,-661.1 152.76,-703.49 176.38,-741 311.39,-955.41 267.25,-1073.82 464.38,-1233 471.77,-1238.97 480.53,-1243.64 489.52,-1247.28"/>
<polygon fill="black" stroke="black" points="488.11,-1250.49 498.7,-1250.59 490.48,-1243.91 488.11,-1250.49"/>
</g>
<!-- parseNumber -->
<g id="node28" class="node">
<title>parseNumber</title>
<ellipse fill="none" stroke="black" cx="547.57" cy="-72" rx="58.49" ry="18"/>
<text text-anchor="middle" x="547.57" y="-68.3" font-family="Times,serif" font-size="14.00">parseNumber</text>
</g>
<!-- options&#45;&gt;parseNumber -->
<g id="edge49" class="edge">
<title>options&#45;&gt;parseNumber</title>
<path fill="none" stroke="black" d="M118.09,-590.51C136,-576.41 158.85,-556.95 176.38,-537 330.18,-362 279.37,-240.6 464.38,-99 471.34,-93.67 479.4,-89.37 487.69,-85.9"/>
<polygon fill="black" stroke="black" points="488.71,-89.26 496.84,-82.48 486.25,-82.71 488.71,-89.26"/>
</g>
<!-- options&#45;&gt;replacement -->
<g id="edge58" class="edge">
<title>options&#45;&gt;replacement</title>
<path fill="none" stroke="black" d="M147.58,-605.11C234.33,-594.86 396.5,-575.72 485.04,-565.27"/>
<polygon fill="black" stroke="black" points="485.22,-568.77 494.74,-564.12 484.4,-561.82 485.22,-568.77"/>
</g>
<!-- options&#45;&gt;codefile -->
<g id="edge65" class="edge">
<title>options&#45;&gt;codefile</title>
<path fill="none" stroke="black" d="M104.44,-635.51C150.35,-704.44 294.57,-908.04 464.38,-1017 475.43,-1024.09 488.51,-1029.48 500.96,-1033.52"/>
<polygon fill="black" stroke="black" points="499.62,-1036.77 510.21,-1036.28 501.63,-1030.07 499.62,-1036.77"/>
</g>
<!-- updateTemplate -->
<g id="node38" class="node">
<title>updateTemplate</title>
<ellipse fill="none" stroke="black" cx="547.57" cy="-774" rx="67.69" ry="18"/>
<text text-anchor="middle" x="547.57" y="-770.3" font-family="Times,serif" font-size="14.00">updateTemplate</text>
</g>
<!-- options&#45;&gt;updateTemplate -->
<g id="edge71" class="edge">
<title>options&#45;&gt;updateTemplate</title>
<path fill="none" stroke="black" d="M133.81,-628.51C203.96,-654.37 344.43,-705.73 464.38,-747 473.47,-750.13 483.14,-753.38 492.55,-756.49"/>
<polygon fill="black" stroke="black" points="491.38,-759.79 501.98,-759.6 493.57,-753.14 491.38,-759.79"/>
</g>
<!-- options&#45;&gt;repl -->
<g id="edge75" class="edge">
<title>options&#45;&gt;repl</title>
<path fill="none" stroke="black" d="M116.89,-590.44C177.13,-544.4 325.76,-435.29 464.38,-369 479.17,-361.93 496.3,-355.98 511.07,-351.48"/>
<polygon fill="black" stroke="black" points="511.77,-354.92 520.39,-348.75 509.8,-348.2 511.77,-354.92"/>
</g>
<!-- tables -->
<g id="node5" class="node">
<title>tables</title>
<ellipse fill="none" stroke="black" cx="88.19" cy="-504" rx="50.82" ry="24.08"/>
<text text-anchor="middle" x="88.19" y="-497.8" font-family="Times,serif" font-size="24.00">tables</text>
</g>
<!-- tables&#45;&gt;parseCommandLine -->
<g id="edge3" class="edge">
<title>tables&#45;&gt;parseCommandLine</title>
<path fill="none" stroke="black" d="M129.04,-518.75C197.43,-543.98 341.65,-596.77 464.38,-639 472.38,-641.75 480.84,-644.6 489.16,-647.37"/>
<polygon fill="black" stroke="black" points="487.96,-650.66 498.55,-650.47 490.15,-644.01 487.96,-650.66"/>
</g>
<!-- args -->
<g id="node8" class="node">
<title>args</title>
<ellipse fill="none" stroke="black" cx="547.57" cy="-18" rx="27" ry="18"/>
<text text-anchor="middle" x="547.57" y="-14.3" font-family="Times,serif" font-size="14.00">args</text>
</g>
<!-- tables&#45;&gt;args -->
<g id="edge7" class="edge">
<title>tables&#45;&gt;args</title>
<path fill="none" stroke="black" d="M110.06,-481.88C127.99,-462.66 154.37,-433.91 176.38,-408 309.68,-251.02 295.43,-162.77 464.38,-45 477.93,-35.55 495.01,-29.24 510.08,-25.11"/>
<polygon fill="black" stroke="black" points="510.79,-28.54 519.65,-22.73 509.1,-21.75 510.79,-28.54"/>
</g>
<!-- tables&#45;&gt;cmdline -->
<g id="edge9" class="edge">
<title>tables&#45;&gt;cmdline</title>
<path fill="none" stroke="black" d="M113.74,-525.32C184.3,-586.3 387.56,-759.68 464.38,-801 475.72,-807.1 488.69,-812.14 500.92,-816.15"/>
<polygon fill="black" stroke="black" points="499.84,-819.48 510.43,-819.1 501.91,-812.8 499.84,-819.48"/>
</g>
<!-- tables&#45;&gt;regexes -->
<g id="edge15" class="edge">
<title>tables&#45;&gt;regexes</title>
<path fill="none" stroke="black" d="M110.01,-482.2C176.22,-413.24 382.45,-201.53 464.38,-153 475.88,-146.19 489.3,-140.86 501.94,-136.79"/>
<polygon fill="black" stroke="black" points="502.74,-140.2 511.31,-133.97 500.73,-133.5 502.74,-140.2"/>
</g>
<!-- tables&#45;&gt;processTemplate -->
<g id="edge17" class="edge">
<title>tables&#45;&gt;processTemplate</title>
<path fill="none" stroke="black" d="M134.3,-514.65C216.38,-534.03 390.29,-575.1 483.86,-597.19"/>
<polygon fill="black" stroke="black" points="482.85,-600.55 493.39,-599.44 484.46,-593.74 482.85,-600.55"/>
</g>
<!-- tables&#45;&gt;parseCmdLine -->
<g id="edge33" class="edge">
<title>tables&#45;&gt;parseCmdLine</title>
<path fill="none" stroke="black" d="M121.79,-485.49C185.96,-449.52 333.79,-368.99 464.38,-315 473.26,-311.33 482.83,-307.81 492.2,-304.59"/>
<polygon fill="black" stroke="black" points="493.24,-307.93 501.61,-301.44 491.02,-301.29 493.24,-307.93"/>
</g>
<!-- tables&#45;&gt;runCommand -->
<g id="edge36" class="edge">
<title>tables&#45;&gt;runCommand</title>
<path fill="none" stroke="black" d="M139.45,-504C221.2,-504 383.21,-504 476.32,-504"/>
<polygon fill="black" stroke="black" points="476.09,-507.5 486.09,-504 476.09,-500.5 476.09,-507.5"/>
</g>
<!-- tables&#45;&gt;vartypes -->
<g id="edge37" class="edge">
<title>tables&#45;&gt;vartypes</title>
<path fill="none" stroke="black" d="M137.71,-498.27C225.28,-487.93 408.84,-466.26 497.1,-455.84"/>
<polygon fill="black" stroke="black" points="497.38,-459.33 506.9,-454.68 496.55,-452.38 497.38,-459.33"/>
</g>
<!-- tables&#45;&gt;variables -->
<g id="edge42" class="edge">
<title>tables&#45;&gt;variables</title>
<path fill="none" stroke="black" d="M134.3,-493.35C220.99,-472.88 410.1,-428.22 498.83,-407.27"/>
<polygon fill="black" stroke="black" points="499.5,-410.71 508.42,-405.01 497.89,-403.9 499.5,-410.71"/>
</g>
<!-- tables&#45;&gt;runFunction -->
<g id="edge44" class="edge">
<title>tables&#45;&gt;runFunction</title>
<path fill="none" stroke="black" d="M118.05,-523.61C136.62,-537.38 160.22,-557.18 176.38,-579 365.44,-834.2 229.13,-1019.62 464.38,-1233 471.26,-1239.24 479.62,-1244.04 488.33,-1247.74"/>
<polygon fill="black" stroke="black" points="487.05,-1250.99 497.64,-1251.19 489.48,-1244.43 487.05,-1250.99"/>
</g>
<!-- signatures -->
<g id="node32" class="node">
<title>signatures</title>
<ellipse fill="none" stroke="black" cx="547.57" cy="-180" rx="46.29" ry="18"/>
<text text-anchor="middle" x="547.57" y="-176.3" font-family="Times,serif" font-size="14.00">signatures</text>
</g>
<!-- tables&#45;&gt;signatures -->
<g id="edge53" class="edge">
<title>tables&#45;&gt;signatures</title>
<path fill="none" stroke="black" d="M110.87,-482.15C165.5,-428.21 315.13,-287.28 464.38,-207 474.5,-201.56 485.91,-196.96 496.94,-193.18"/>
<polygon fill="black" stroke="black" points="497.9,-196.55 506.34,-190.14 495.74,-189.89 497.9,-196.55"/>
</g>
<!-- readjson -->
<g id="node33" class="node">
<title>readjson</title>
<ellipse fill="none" stroke="black" cx="547.57" cy="-1206" rx="40.09" ry="18"/>
<text text-anchor="middle" x="547.57" y="-1202.3" font-family="Times,serif" font-size="14.00">readjson</text>
</g>
<!-- tables&#45;&gt;readjson -->
<g id="edge57" class="edge">
<title>tables&#45;&gt;readjson</title>
<path fill="none" stroke="black" d="M117.81,-523.78C136.29,-537.63 159.86,-557.45 176.38,-579 356.33,-813.77 242.06,-983.88 464.38,-1179 473.89,-1187.34 486.04,-1193.12 498.06,-1197.11"/>
<polygon fill="black" stroke="black" points="496.95,-1200.44 507.53,-1199.88 498.91,-1193.72 496.95,-1200.44"/>
</g>
<!-- tables&#45;&gt;startingvars -->
<g id="edge63" class="edge">
<title>tables&#45;&gt;startingvars</title>
<path fill="none" stroke="black" d="M114.3,-524.99C131.89,-539.83 155.83,-560.34 176.38,-579 307.63,-698.18 312.39,-763.73 464.38,-855 473.27,-860.34 483.34,-864.76 493.31,-868.37"/>
<polygon fill="black" stroke="black" points="492,-871.62 502.59,-871.5 494.23,-864.99 492,-871.62"/>
</g>
<!-- tables&#45;&gt;updateTemplate -->
<g id="edge72" class="edge">
<title>tables&#45;&gt;updateTemplate</title>
<path fill="none" stroke="black" d="M115.54,-524.52C174.87,-569.94 324.71,-680.21 464.38,-747 472.19,-750.74 480.66,-754.16 489.08,-757.22"/>
<polygon fill="black" stroke="black" points="487.65,-760.43 498.25,-760.4 489.95,-753.82 487.65,-760.43"/>
</g>
<!-- tables&#45;&gt;repl -->
<g id="edge74" class="edge">
<title>tables&#45;&gt;repl</title>
<path fill="none" stroke="black" d="M129.04,-489.25C197.43,-464.02 341.65,-411.23 464.38,-369 480,-363.63 497.37,-357.89 512.1,-353.09"/>
<polygon fill="black" stroke="black" points="512.9,-356.51 521.34,-350.09 510.74,-349.85 512.9,-356.51"/>
</g>
<!-- os -->
<g id="node6" class="node">
<title>os</title>
<ellipse fill="none" stroke="black" cx="88.19" cy="-1044" rx="27" ry="24.08"/>
<text text-anchor="middle" x="88.19" y="-1037.8" font-family="Times,serif" font-size="24.00">os</text>
</g>
<!-- os&#45;&gt;statictea -->
<g id="edge79" class="edge">
<title>os&#45;&gt;statictea</title>
<path fill="none" stroke="black" d="M115.42,-1047.1C189.48,-1055.84 401.02,-1080.82 497.51,-1092.21"/>
<polygon fill="black" stroke="black" points="496.85,-1095.65 507.19,-1093.35 497.67,-1088.7 496.85,-1095.65"/>
</g>
<!-- os&#45;&gt;parseCommandLine -->
<g id="edge4" class="edge">
<title>os&#45;&gt;parseCommandLine</title>
<path fill="none" stroke="black" d="M112.06,-1031.89C130.27,-1021.78 155.99,-1006.41 176.38,-990 319.62,-874.72 308.51,-790.53 464.38,-693 469.85,-689.58 475.79,-686.55 481.9,-683.87"/>
<polygon fill="black" stroke="black" points="482.9,-687.24 490.87,-680.26 480.29,-680.75 482.9,-687.24"/>
</g>
<!-- os&#45;&gt;cmdline -->
<g id="edge8" class="edge">
<title>os&#45;&gt;cmdline</title>
<path fill="none" stroke="black" d="M111.48,-1031.29C168.74,-998.96 326.21,-912.12 464.38,-855 476.62,-849.94 490.18,-845.16 502.69,-841.07"/>
<polygon fill="black" stroke="black" points="503.46,-844.5 511.93,-838.13 501.33,-837.83 503.46,-844.5"/>
</g>
<!-- os&#45;&gt;env -->
<g id="edge21" class="edge">
<title>os&#45;&gt;env</title>
<path fill="none" stroke="black" d="M114.02,-1051.42C131.9,-1057.23 156.31,-1066.14 176.38,-1077 315.71,-1152.38 323.41,-1214.73 464.38,-1287 478.97,-1294.48 496.07,-1300.49 510.87,-1304.92"/>
<polygon fill="black" stroke="black" points="509.64,-1308.21 520.22,-1307.59 511.56,-1301.48 509.64,-1308.21"/>
</g>
<!-- os&#45;&gt;tempFile -->
<g id="edge25" class="edge">
<title>os&#45;&gt;tempFile</title>
<path fill="none" stroke="black" d="M114.76,-1050.04C188.52,-1067.45 402.52,-1117.98 498.73,-1140.7"/>
<polygon fill="black" stroke="black" points="497.85,-1144.09 508.39,-1142.98 499.46,-1137.28 497.85,-1144.09"/>
</g>
<!-- os&#45;&gt;runFunction -->
<g id="edge47" class="edge">
<title>os&#45;&gt;runFunction</title>
<path fill="none" stroke="black" d="M113.98,-1052.38C131.63,-1058.59 155.78,-1067.57 176.38,-1077 308.75,-1137.57 330.7,-1175.39 464.38,-1233 474.21,-1237.24 484.93,-1241.2 495.29,-1244.73"/>
<polygon fill="black" stroke="black" points="493.87,-1247.95 504.47,-1247.76 496.07,-1241.3 493.87,-1247.95"/>
</g>
<!-- os&#45;&gt;readjson -->
<g id="edge55" class="edge">
<title>os&#45;&gt;readjson</title>
<path fill="none" stroke="black" d="M113.69,-1053.08C173.44,-1075.18 331.5,-1133.28 464.38,-1179 477.01,-1183.35 490.79,-1187.93 503.39,-1192.07"/>
<polygon fill="black" stroke="black" points="502.07,-1195.32 512.66,-1195.09 504.24,-1188.66 502.07,-1195.32"/>
</g>
<!-- os&#45;&gt;startingvars -->
<g id="edge62" class="edge">
<title>os&#45;&gt;startingvars</title>
<path fill="none" stroke="black" d="M113.69,-1034.92C173.44,-1012.82 331.5,-954.72 464.38,-909 475.14,-905.3 486.73,-901.42 497.71,-897.8"/>
<polygon fill="black" stroke="black" points="498.59,-901.2 507,-894.75 496.41,-894.54 498.59,-901.2"/>
</g>
<!-- os&#45;&gt;codefile -->
<g id="edge66" class="edge">
<title>os&#45;&gt;codefile</title>
<path fill="none" stroke="black" d="M115.42,-1044C189.31,-1044 400.07,-1044 496.86,-1044"/>
<polygon fill="black" stroke="black" points="496.85,-1047.5 506.85,-1044 496.85,-1040.5 496.85,-1047.5"/>
</g>
<!-- os&#45;&gt;updateTemplate -->
<g id="edge70" class="edge">
<title>os&#45;&gt;updateTemplate</title>
<path fill="none" stroke="black" d="M111.15,-1030.62C128.84,-1019.79 154.31,-1004.07 176.38,-990 305.47,-907.69 326.46,-867.47 464.38,-801 472.18,-797.24 480.64,-793.8 489.06,-790.74"/>
<polygon fill="black" stroke="black" points="489.93,-794.14 498.22,-787.55 487.63,-787.53 489.93,-794.14"/>
</g>
<!-- strformat -->
<g id="node7" class="node">
<title>strformat</title>
<ellipse fill="none" stroke="red" cx="88.19" cy="-297" rx="74.49" ry="24.08"/>
<text text-anchor="middle" x="88.19" y="-290.8" font-family="Times,serif" font-size="24.00">strformat</text>
</g>
<!-- strformat&#45;&gt;args -->
<g id="edge5" class="edge">
<title>strformat&#45;&gt;args</title>
<path fill="none" stroke="red" d="M141.47,-280.02C153.25,-275.43 165.48,-270.04 176.38,-264 317.04,-186.06 322.03,-119.79 464.38,-45 478.9,-37.37 495.98,-31.34 510.8,-26.93"/>
<polygon fill="red" stroke="red" points="511.49,-30.37 520.16,-24.29 509.58,-23.64 511.49,-30.37"/>
</g>
<!-- strformat&#45;&gt;replacement -->
<g id="edge60" class="edge">
<title>strformat&#45;&gt;replacement</title>
<path fill="none" stroke="red" d="M141.3,-314.31C153.08,-318.88 165.36,-324.18 176.38,-330 314.43,-402.85 324.75,-461.23 464.38,-531 473.66,-535.63 483.91,-539.73 493.93,-543.25"/>
<polygon fill="red" stroke="red" points="492.63,-546.5 503.23,-546.35 494.85,-539.86 492.63,-546.5"/>
</g>
<!-- re -->
<g id="node12" class="node">
<title>re</title>
<polygon fill="palegreen" stroke="black" points="115.19,-127.21 115.19,-148.79 99.37,-164.04 77.01,-164.04 61.19,-148.79 61.19,-127.21 77.01,-111.96 99.37,-111.96 115.19,-127.21"/>
<polygon fill="none" stroke="black" points="119.19,-125.51 119.19,-150.49 100.99,-168.04 75.39,-168.04 57.19,-150.49 57.19,-125.51 75.39,-107.96 100.99,-107.96 119.19,-125.51"/>
<text text-anchor="middle" x="88.19" y="-131.8" font-family="Times,serif" font-size="24.00">re</text>
</g>
<!-- re&#45;&gt;regexes -->
<g id="edge13" class="edge">
<title>re&#45;&gt;regexes</title>
<path fill="none" stroke="black" d="M119.55,-137.2C197.22,-135.17 403.62,-129.75 498.11,-127.27"/>
<polygon fill="black" stroke="black" points="497.92,-130.78 507.82,-127.02 497.73,-123.78 497.92,-130.78"/>
</g>
<!-- streams -->
<g id="node15" class="node">
<title>streams</title>
<ellipse fill="none" stroke="black" cx="88.19" cy="-957" rx="62.87" ry="24.08"/>
<text text-anchor="middle" x="88.19" y="-950.8" font-family="Times,serif" font-size="24.00">streams</text>
</g>
<!-- streams&#45;&gt;processTemplate -->
<g id="edge19" class="edge">
<title>streams&#45;&gt;processTemplate</title>
<path fill="none" stroke="black" d="M109.74,-934.34C162.93,-876.98 311.63,-724.49 464.38,-639 471.24,-635.16 478.73,-631.76 486.31,-628.79"/>
<polygon fill="black" stroke="black" points="487.41,-632.11 495.6,-625.38 485,-625.54 487.41,-632.11"/>
</g>
<!-- streams&#45;&gt;env -->
<g id="edge20" class="edge">
<title>streams&#45;&gt;env</title>
<path fill="none" stroke="black" d="M125.1,-976.93C141.29,-986.5 160.34,-998.57 176.38,-1011 316.51,-1119.6 312.39,-1195.73 464.38,-1287 478.44,-1295.44 495.45,-1301.59 510.35,-1305.87"/>
<polygon fill="black" stroke="black" points="509.21,-1309.19 519.78,-1308.4 511.02,-1302.43 509.21,-1309.19"/>
</g>
<!-- streams&#45;&gt;tempFile -->
<g id="edge29" class="edge">
<title>streams&#45;&gt;tempFile</title>
<path fill="none" stroke="black" d="M128.06,-976.01C195.56,-1008.67 339.25,-1076.58 464.38,-1125 476.29,-1129.61 489.34,-1134.13 501.48,-1138.12"/>
<polygon fill="black" stroke="black" points="500.27,-1141.41 510.86,-1141.15 502.42,-1134.75 500.27,-1141.41"/>
</g>
<!-- streams&#45;&gt;linebuffer -->
<g id="edge30" class="edge">
<title>streams&#45;&gt;linebuffer</title>
<path fill="none" stroke="black" d="M150.88,-954.17C240.28,-950.06 404.55,-942.52 490.62,-938.57"/>
<polygon fill="black" stroke="black" points="490.64,-942.07 500.47,-938.12 490.32,-935.08 490.64,-942.07"/>
</g>
<!-- streams&#45;&gt;readjson -->
<g id="edge54" class="edge">
<title>streams&#45;&gt;readjson</title>
<path fill="none" stroke="black" d="M122.78,-977.44C208.11,-1029.29 428.93,-1162.92 464.38,-1179 476.34,-1184.42 489.71,-1189.29 502.14,-1193.35"/>
<polygon fill="black" stroke="black" points="500.72,-1196.57 511.31,-1196.25 502.83,-1189.9 500.72,-1196.57"/>
</g>
<!-- streams&#45;&gt;replacement -->
<g id="edge59" class="edge">
<title>streams&#45;&gt;replacement</title>
<path fill="none" stroke="black" d="M106.3,-933.64C154.97,-868.81 301.26,-684.84 464.38,-585 472.85,-579.82 482.43,-575.51 491.98,-571.97"/>
<polygon fill="black" stroke="black" points="492.93,-575.34 501.25,-568.79 490.66,-568.72 492.93,-575.34"/>
</g>
<!-- streams&#45;&gt;codefile -->
<g id="edge67" class="edge">
<title>streams&#45;&gt;codefile</title>
<path fill="none" stroke="black" d="M145.27,-967.67C236.5,-985.02 415.33,-1019.04 500,-1035.14"/>
<polygon fill="black" stroke="black" points="499.1,-1038.53 509.58,-1036.96 500.41,-1031.66 499.1,-1038.53"/>
</g>
<!-- streams&#45;&gt;updateTemplate -->
<g id="edge69" class="edge">
<title>streams&#45;&gt;updateTemplate</title>
<path fill="none" stroke="black" d="M130.14,-938.76C198.67,-908.51 341.22,-846.76 464.38,-801 473.18,-797.73 482.59,-794.45 491.78,-791.35"/>
<polygon fill="black" stroke="black" points="492.6,-794.77 500.99,-788.29 490.39,-788.12 492.6,-794.77"/>
</g>
<!-- times -->
<g id="node17" class="node">
<title>times</title>
<ellipse fill="none" stroke="red" cx="88.19" cy="-1410" rx="48.17" ry="24.08"/>
<text text-anchor="middle" x="88.19" y="-1403.8" font-family="Times,serif" font-size="24.00">times</text>
</g>
<!-- times&#45;&gt;env -->
<g id="edge22" class="edge">
<title>times&#45;&gt;env</title>
<path fill="none" stroke="red" d="M133.05,-1400.8C223.07,-1381.9 427.23,-1339.05 510.35,-1321.6"/>
<polygon fill="red" stroke="red" points="510.93,-1325.06 520,-1319.58 509.49,-1318.21 510.93,-1325.06"/>
</g>
<!-- timer -->
<g id="node41" class="node">
<title>timer</title>
<ellipse fill="none" stroke="black" cx="547.57" cy="-1389" rx="29.8" ry="18"/>
<text text-anchor="middle" x="547.57" y="-1385.3" font-family="Times,serif" font-size="14.00">timer</text>
</g>
<!-- times&#45;&gt;timer -->
<g id="edge77" class="edge">
<title>times&#45;&gt;timer</title>
<path fill="none" stroke="red" d="M136.42,-1407.83C226.57,-1403.69 421.74,-1394.73 506.23,-1390.85"/>
<polygon fill="red" stroke="red" points="506.29,-1394.35 516.12,-1390.4 505.97,-1387.36 506.29,-1394.35"/>
</g>
<!-- random -->
<g id="node19" class="node">
<title>random</title>
<polygon fill="palegreen" stroke="black" points="156.96,-1105.21 156.96,-1126.79 116.68,-1142.04 59.7,-1142.04 19.42,-1126.79 19.42,-1105.21 59.7,-1089.96 116.68,-1089.96 156.96,-1105.21"/>
<polygon fill="none" stroke="black" points="160.96,-1102.45 160.96,-1129.55 117.41,-1146.04 58.97,-1146.04 15.42,-1129.55 15.42,-1102.45 58.97,-1085.96 117.41,-1085.96 160.96,-1102.45"/>
<text text-anchor="middle" x="88.19" y="-1109.8" font-family="Times,serif" font-size="24.00">random</text>
</g>
<!-- random&#45;&gt;tempFile -->
<g id="edge26" class="edge">
<title>random&#45;&gt;tempFile</title>
<path fill="none" stroke="black" d="M161.41,-1121.68C254,-1128.97 412.33,-1141.43 494.16,-1147.87"/>
<polygon fill="black" stroke="black" points="493.68,-1151.35 503.92,-1148.64 494.22,-1144.37 493.68,-1151.35"/>
</g>
<!-- math -->
<g id="node26" class="node">
<title>math</title>
<ellipse fill="none" stroke="red" cx="88.19" cy="-1344" rx="45.92" ry="24.08"/>
<text text-anchor="middle" x="88.19" y="-1337.8" font-family="Times,serif" font-size="24.00">math</text>
</g>
<!-- math&#45;&gt;runFunction -->
<g id="edge46" class="edge">
<title>math&#45;&gt;runFunction</title>
<path fill="none" stroke="red" d="M131.81,-1336.17C214.2,-1321.04 395.39,-1287.76 488.63,-1270.64"/>
<polygon fill="red" stroke="red" points="489.13,-1274.11 498.34,-1268.86 487.87,-1267.22 489.13,-1274.11"/>
</g>
<!-- math&#45;&gt;timer -->
<g id="edge78" class="edge">
<title>math&#45;&gt;timer</title>
<path fill="none" stroke="red" d="M133.46,-1348.36C222.32,-1357.1 421.17,-1376.66 506.47,-1385.05"/>
<polygon fill="red" stroke="red" points="505.93,-1388.52 516.22,-1386.01 506.61,-1381.55 505.93,-1388.52"/>
</g>
<!-- algorithm -->
<g id="node27" class="node">
<title>algorithm</title>
<polygon fill="palegreen" stroke="black" points="172.56,-1261.21 172.56,-1282.79 123.14,-1298.04 53.24,-1298.04 3.82,-1282.79 3.82,-1261.21 53.24,-1245.96 123.14,-1245.96 172.56,-1261.21"/>
<polygon fill="none" stroke="black" points="176.57,-1258.26 176.57,-1285.74 123.74,-1302.04 52.64,-1302.04 -0.19,-1285.74 -0.19,-1258.26 52.64,-1241.96 123.74,-1241.96 176.57,-1258.26"/>
<text text-anchor="middle" x="88.19" y="-1265.8" font-family="Times,serif" font-size="24.00">algorithm</text>
</g>
<!-- algorithm&#45;&gt;runFunction -->
<g id="edge48" class="edge">
<title>algorithm&#45;&gt;runFunction</title>
<path fill="none" stroke="black" d="M176.84,-1269.7C266.09,-1267.36 402.36,-1263.78 482.15,-1261.69"/>
<polygon fill="black" stroke="black" points="482.08,-1265.19 491.99,-1261.43 481.9,-1258.2 482.08,-1265.19"/>
</g>
<!-- parseutils -->
<g id="node29" class="node">
<title>parseutils</title>
<polygon fill="palegreen" stroke="black" points="171,-49.21 171,-70.79 122.49,-86.04 53.89,-86.04 5.38,-70.79 5.38,-49.21 53.89,-33.96 122.49,-33.96 171,-49.21"/>
<polygon fill="none" stroke="black" points="175.01,-46.28 175.01,-73.72 123.11,-90.04 53.27,-90.04 1.37,-73.72 1.37,-46.28 53.27,-29.96 123.11,-29.96 175.01,-46.28"/>
<text text-anchor="middle" x="88.19" y="-53.8" font-family="Times,serif" font-size="24.00">parseutils</text>
</g>
<!-- parseutils&#45;&gt;parseNumber -->
<g id="edge50" class="edge">
<title>parseutils&#45;&gt;parseNumber</title>
<path fill="none" stroke="black" d="M175.49,-62.26C263.14,-64.56 397.14,-68.08 477.86,-70.2"/>
<polygon fill="black" stroke="black" points="477.28,-73.68 487.37,-70.45 477.47,-66.69 477.28,-73.68"/>
</g>
<!-- unicode -->
<g id="node30" class="node">
<title>unicode</title>
<polygon fill="palegreen" stroke="black" points="158.52,-214.21 158.52,-235.79 117.32,-251.04 59.06,-251.04 17.86,-235.79 17.86,-214.21 59.06,-198.96 117.32,-198.96 158.52,-214.21"/>
<polygon fill="none" stroke="black" points="162.52,-211.42 162.52,-238.58 118.04,-255.04 58.34,-255.04 13.86,-238.58 13.86,-211.42 58.34,-194.96 118.04,-194.96 162.52,-211.42"/>
<text text-anchor="middle" x="88.19" y="-218.8" font-family="Times,serif" font-size="24.00">unicode</text>
</g>
<!-- unicode&#45;&gt;unicodes -->
<g id="edge51" class="edge">
<title>unicode&#45;&gt;unicodes</title>
<path fill="none" stroke="black" d="M162.93,-226.45C255.41,-228.27 411.72,-231.35 493.34,-232.95"/>
<polygon fill="black" stroke="black" points="493.24,-236.45 503.31,-233.15 493.38,-229.45 493.24,-236.45"/>
</g>
<!-- json -->
<g id="node34" class="node">
<title>json</title>
<polygon fill="palegreen" stroke="black" points="130.92,-1183.21 130.92,-1204.79 105.89,-1220.04 70.49,-1220.04 45.46,-1204.79 45.46,-1183.21 70.49,-1167.96 105.89,-1167.96 130.92,-1183.21"/>
<polygon fill="none" stroke="black" points="134.91,-1180.96 134.91,-1207.04 107.01,-1224.04 69.37,-1224.04 41.47,-1207.04 41.47,-1180.96 69.37,-1163.96 107.01,-1163.96 134.91,-1180.96"/>
<text text-anchor="middle" x="88.19" y="-1187.8" font-family="Times,serif" font-size="24.00">json</text>
</g>
<!-- json&#45;&gt;readjson -->
<g id="edge56" class="edge">
<title>json&#45;&gt;readjson</title>
<path fill="none" stroke="black" d="M135.14,-1195.21C221.21,-1197.46 406.1,-1202.31 495.76,-1204.67"/>
<polygon fill="black" stroke="black" points="495.64,-1208.16 505.73,-1204.93 495.82,-1201.17 495.64,-1208.16"/>
</g>
<!-- rdstdin -->
<g id="node39" class="node">
<title>rdstdin</title>
<polygon fill="palegreen" stroke="black" points="151.74,-358.21 151.74,-379.79 114.51,-395.04 61.87,-395.04 24.64,-379.79 24.64,-358.21 61.87,-342.96 114.51,-342.96 151.74,-358.21"/>
<polygon fill="none" stroke="black" points="155.74,-355.53 155.74,-382.47 115.3,-399.04 61.08,-399.04 20.64,-382.47 20.64,-355.53 61.08,-338.96 115.3,-338.96 155.74,-355.53"/>
<text text-anchor="middle" x="88.19" y="-362.8" font-family="Times,serif" font-size="24.00">rdstdin</text>
</g>
<!-- rdstdin&#45;&gt;repl -->
<g id="edge73" class="edge">
<title>rdstdin&#45;&gt;repl</title>
<path fill="none" stroke="black" d="M156.19,-365.05C253.78,-359.28 431.8,-348.78 509.1,-344.21"/>
<polygon fill="black" stroke="black" points="508.89,-347.73 518.67,-343.65 508.48,-340.74 508.89,-347.73"/>
</g>
</g>
</svg>
