<?xml version="1.0" encoding="UTF-8" standalone="no"?>
<!DOCTYPE svg PUBLIC "-//W3C//DTD SVG 1.1//EN"
 "http://www.w3.org/Graphics/SVG/1.1/DTD/svg11.dtd">
<!-- Generated by graphviz version 2.40.1 (20161225.0304)
 -->
<!-- Title: statictea Pages: 1 -->
<svg width="720pt" height="318pt"
 viewBox="0.00 0.00 720.00 317.91" xmlns="http://www.w3.org/2000/svg" xmlns:xlink="http://www.w3.org/1999/xlink">
<g id="graph0" class="graph" transform="scale(.199 .199) rotate(0) translate(4 1593.4979)">
<title>statictea</title>
<polygon fill="#ffffff" stroke="transparent" points="-4,4 -4,-1593.4979 3614.0105,-1593.4979 3614.0105,4 -4,4"/>
<!-- runFunction -->
<g id="node1" class="node">
<title>runFunction</title>
<g id="a_node1"><a xlink:href="runFunction.md" xlink:title="runFunction.md">
<ellipse fill="#eee8aa" stroke="#000000" cx="1474" cy="-930" rx="94.055" ry="22.7556"/>
<text text-anchor="middle" x="1474" y="-922.8" font-family="Times,serif" font-size="24.00" fill="#000000">runFunction</text>
</a>
</g>
</g>
<!-- parseNumber -->
<g id="node3" class="node">
<title>parseNumber</title>
<g id="a_node3"><a xlink:href="parseNumber.md" xlink:title="parseNumber.md">
<ellipse fill="#eee8aa" stroke="#000000" cx="1503" cy="-812" rx="102.9592" ry="22.7556"/>
<text text-anchor="middle" x="1503" y="-804.8" font-family="Times,serif" font-size="24.00" fill="#000000">parseNumber</text>
</a>
</g>
</g>
<!-- runFunction&#45;&gt;parseNumber -->
<g id="edge54" class="edge">
<title>runFunction&#45;&gt;parseNumber</title>
<path fill="none" stroke="#000000" d="M1479.5915,-907.2484C1483.9645,-889.4549 1490.1024,-864.4799 1494.996,-844.568"/>
<polygon fill="#000000" stroke="#000000" points="1498.4379,-845.2281 1497.4257,-834.6817 1491.6401,-843.5574 1498.4379,-845.2281"/>
</g>
<!-- regexes -->
<g id="node4" class="node">
<title>regexes</title>
<g id="a_node4"><a xlink:href="regexes.md" xlink:title="regexes.md">
<polygon fill="#98fb98" stroke="#000000" points="2668.187,-420.8581 2668.187,-441.1419 2628.244,-455.4846 2571.756,-455.4846 2531.813,-441.1419 2531.813,-420.8581 2571.756,-406.5154 2628.244,-406.5154 2668.187,-420.8581"/>
<polygon fill="none" stroke="#000000" points="2672.1781,-418.0434 2672.1781,-443.9566 2628.9376,-459.4835 2571.0624,-459.4835 2527.8219,-443.9566 2527.8219,-418.0434 2571.0624,-402.5165 2628.9376,-402.5165 2672.1781,-418.0434"/>
<text text-anchor="middle" x="2600" y="-423.8" font-family="Times,serif" font-size="24.00" fill="#000000">regexes</text>
</a>
</g>
</g>
<!-- runFunction&#45;&gt;regexes -->
<g id="edge53" class="edge">
<title>runFunction&#45;&gt;regexes</title>
<path fill="none" stroke="#000000" d="M1564.0662,-923.3022C1696.8391,-911.8792 1936.8644,-884.8419 2006,-834.6274 2039.5046,-810.2924 2072.8595,-705.9792 2094,-670.3726 2130.0347,-609.6798 2123.5527,-578.5194 2181,-537.5083 2234.5564,-499.2748 2411.3162,-463.4493 2517.381,-444.6699"/>
<polygon fill="#000000" stroke="#000000" points="2518.1748,-448.0841 2527.4181,-442.9062 2516.9633,-441.1897 2518.1748,-448.0841"/>
</g>
<!-- unicodes -->
<g id="node9" class="node">
<title>unicodes</title>
<g id="a_node9"><a xlink:href="unicodes.md" xlink:title="unicodes.md">
<ellipse fill="#eee8aa" stroke="#000000" cx="1106" cy="-693" rx="71.7778" ry="22.7556"/>
<text text-anchor="middle" x="1106" y="-685.8" font-family="Times,serif" font-size="24.00" fill="#000000">unicodes</text>
</a>
</g>
</g>
<!-- runFunction&#45;&gt;unicodes -->
<g id="edge63" class="edge">
<title>runFunction&#45;&gt;unicodes</title>
<path fill="none" stroke="#000000" d="M1423.6332,-910.8061C1381.305,-893.6461 1320.0391,-866.3558 1271,-834.6274 1219.0625,-801.0237 1166.0112,-752.4118 1134.5517,-721.7729"/>
<polygon fill="#000000" stroke="#000000" points="1137.0022,-719.2739 1127.4135,-714.7676 1132.0992,-724.2699 1137.0022,-719.2739"/>
</g>
<!-- vartypes -->
<g id="node12" class="node">
<title>vartypes</title>
<g id="a_node12"><a xlink:href="vartypes.md" xlink:title="vartypes.md">
<ellipse fill="#eee8aa" stroke="#000000" cx="1614" cy="-566" rx="68.6102" ry="22.7556"/>
<text text-anchor="middle" x="1614" y="-558.8" font-family="Times,serif" font-size="24.00" fill="#000000">vartypes</text>
</a>
</g>
</g>
<!-- runFunction&#45;&gt;vartypes -->
<g id="edge52" class="edge">
<title>runFunction&#45;&gt;vartypes</title>
<path fill="none" stroke="#000000" d="M1445.1596,-908.2739C1411.7893,-880.3988 1364.6056,-830.7096 1391,-789.3726 1432.9218,-723.7176 1495.7532,-771.5319 1550,-715.6274 1581.7796,-682.8767 1598.9345,-631.8896 1607.2684,-598.7154"/>
<polygon fill="#000000" stroke="#000000" points="1610.7615,-599.1548 1609.6716,-588.6161 1603.9517,-597.5342 1610.7615,-599.1548"/>
</g>
<!-- replacement -->
<g id="node14" class="node">
<title>replacement</title>
<g id="a_node14"><a xlink:href="replacement.md" xlink:title="replacement.md">
<ellipse fill="#eee8aa" stroke="#000000" cx="1870" cy="-812" rx="94.4556" ry="22.7556"/>
<text text-anchor="middle" x="1870" y="-804.8" font-family="Times,serif" font-size="24.00" fill="#000000">replacement</text>
</a>
</g>
</g>
<!-- runFunction&#45;&gt;replacement -->
<g id="edge77" class="edge">
<title>runFunction&#45;&gt;replacement</title>
<path fill="none" stroke="#000000" d="M1533.2852,-912.3342C1604.8347,-891.0139 1724.9497,-855.2221 1800.7064,-832.6481"/>
<polygon fill="#000000" stroke="#000000" points="1802.0496,-835.9 1810.6337,-829.69 1800.0506,-829.1915 1802.0496,-835.9"/>
</g>
<!-- warnings -->
<g id="node18" class="node">
<title>warnings</title>
<g id="a_node18"><a xlink:href="warnings.md" xlink:title="warnings.md">
<ellipse fill="#eee8aa" stroke="#000000" cx="1992" cy="-177" rx="73.5561" ry="22.7556"/>
<text text-anchor="middle" x="1992" y="-169.8" font-family="Times,serif" font-size="24.00" fill="#000000">warnings</text>
</a>
</g>
</g>
<!-- runFunction&#45;&gt;warnings -->
<g id="edge51" class="edge">
<title>runFunction&#45;&gt;warnings</title>
<path fill="none" stroke="#000000" d="M1566.7575,-925.7195C1696.3709,-917.5988 1921.6054,-894.9789 1973,-834.6274 2053.7801,-739.7692 2010.6761,-328.9804 1996.1709,-209.6305"/>
<polygon fill="#000000" stroke="#000000" points="1999.6363,-209.1344 1994.9399,-199.6373 1992.6888,-209.9902 1999.6363,-209.1344"/>
</g>
<!-- signatures -->
<g id="node24" class="node">
<title>signatures</title>
<g id="a_node24"><a xlink:href="signatures.md" xlink:title="signatures.md">
<ellipse fill="#eee8aa" stroke="#000000" cx="1352" cy="-693" rx="80.2483" ry="22.7556"/>
<text text-anchor="middle" x="1352" y="-685.8" font-family="Times,serif" font-size="24.00" fill="#000000">signatures</text>
</a>
</g>
</g>
<!-- runFunction&#45;&gt;signatures -->
<g id="edge66" class="edge">
<title>runFunction&#45;&gt;signatures</title>
<path fill="none" stroke="#000000" d="M1403.6088,-914.8444C1360.4177,-901.5213 1308.4718,-877.3346 1282,-834.6274 1258.8532,-797.2845 1292.0807,-751.2228 1320.1955,-721.9743"/>
<polygon fill="#000000" stroke="#000000" points="1323.002,-724.1155 1327.5664,-714.5542 1318.0357,-719.1822 1323.002,-724.1155"/>
</g>
<!-- opresultwarn -->
<g id="node26" class="node">
<title>opresultwarn</title>
<g id="a_node26"><a xlink:href="opresultwarn.md" xlink:title="opresultwarn.md">
<ellipse fill="#eee8aa" stroke="#000000" cx="1617" cy="-304" rx="99.824" ry="22.7556"/>
<text text-anchor="middle" x="1617" y="-296.8" font-family="Times,serif" font-size="24.00" fill="#000000">opresultwarn</text>
</a>
</g>
</g>
<!-- runFunction&#45;&gt;opresultwarn -->
<g id="edge78" class="edge">
<title>runFunction&#45;&gt;opresultwarn</title>
<path fill="none" stroke="#000000" d="M1442.5952,-908.6377C1420.4636,-891.5418 1392.6109,-865.3877 1380,-834.6274 1372.3704,-816.0174 1373.1874,-808.297 1380,-789.3726 1394.4072,-749.3515 1418.8555,-751.9438 1441,-715.6274 1521.4103,-583.7565 1583.0378,-408.5737 1606.5882,-336.7888"/>
<polygon fill="#000000" stroke="#000000" points="1610.0186,-337.5576 1609.7842,-326.9653 1603.362,-335.3918 1610.0186,-337.5576"/>
</g>
<!-- messages -->
<g id="node27" class="node">
<title>messages</title>
<g id="a_node27"><a xlink:href="messages.md" xlink:title="messages.md">
<polygon fill="#98fb98" stroke="#000000" points="1883.7388,-31.8581 1883.7388,-52.1419 1835.8573,-66.4846 1768.1427,-66.4846 1720.2612,-52.1419 1720.2612,-31.8581 1768.1427,-17.5154 1835.8573,-17.5154 1883.7388,-31.8581"/>
<polygon fill="none" stroke="#000000" points="1887.7446,-28.883 1887.7446,-55.117 1836.4454,-70.4835 1767.5546,-70.4835 1716.2554,-55.117 1716.2554,-28.883 1767.5546,-13.5165 1836.4454,-13.5165 1887.7446,-28.883"/>
<text text-anchor="middle" x="1802" y="-34.8" font-family="Times,serif" font-size="24.00" fill="#000000">messages</text>
</a>
</g>
</g>
<!-- runFunction&#45;&gt;messages -->
<g id="edge50" class="edge">
<title>runFunction&#45;&gt;messages</title>
<path fill="none" stroke="#000000" d="M1567.699,-927.4509C1829.0614,-918.3233 2557.5376,-878.4884 2719,-715.6274 2898.0445,-535.032 2842.1473,-306.6601 2643,-148.5083 2585.4524,-102.8071 2105.7855,-63.5858 1897.6962,-48.5516"/>
<polygon fill="#000000" stroke="#000000" points="1897.9193,-45.0586 1887.694,-47.8324 1897.4172,-52.0406 1897.9193,-45.0586"/>
</g>
<!-- matches -->
<g id="node28" class="node">
<title>matches</title>
<g id="a_node28"><a xlink:href="matches.md" xlink:title="matches.md">
<ellipse fill="#eee8aa" stroke="#000000" cx="2257" cy="-566" rx="66.8311" ry="22.7556"/>
<text text-anchor="middle" x="2257" y="-558.8" font-family="Times,serif" font-size="24.00" fill="#000000">matches</text>
</a>
</g>
</g>
<!-- runFunction&#45;&gt;matches -->
<g id="edge55" class="edge">
<title>runFunction&#45;&gt;matches</title>
<path fill="none" stroke="#000000" d="M1511.9805,-909.1292C1596.197,-863.2194 1805.5186,-751.1327 1987,-670.3726 2059.7672,-637.9908 2145.9171,-605.7011 2200.9911,-585.8"/>
<polygon fill="#000000" stroke="#000000" points="2202.3429,-589.0333 2210.5655,-582.352 2199.9711,-582.4473 2202.3429,-589.0333"/>
</g>
<!-- readjson -->
<g id="node30" class="node">
<title>readjson</title>
<g id="a_node30"><a xlink:href="readjson.md" xlink:title="readjson.md">
<ellipse fill="#eee8aa" stroke="#000000" cx="1009" cy="-812" rx="68.6102" ry="22.7556"/>
<text text-anchor="middle" x="1009" y="-804.8" font-family="Times,serif" font-size="24.00" fill="#000000">readjson</text>
</a>
</g>
</g>
<!-- runFunction&#45;&gt;readjson -->
<g id="edge84" class="edge">
<title>runFunction&#45;&gt;readjson</title>
<path fill="none" stroke="#000000" d="M1408.8541,-913.4684C1320.0451,-890.9319 1161.9346,-850.8092 1073.4758,-828.3616"/>
<polygon fill="#000000" stroke="#000000" points="1074.1203,-824.9143 1063.5666,-825.847 1072.3985,-831.6992 1074.1203,-824.9143"/>
</g>
<!-- opresultid -->
<g id="node2" class="node">
<title>opresultid</title>
<g id="a_node2"><a xlink:href="opresultid.md" xlink:title="opresultid.md">
<ellipse fill="#eee8aa" stroke="#000000" cx="1344" cy="-304" rx="79.3758" ry="22.7556"/>
<text text-anchor="middle" x="1344" y="-296.8" font-family="Times,serif" font-size="24.00" fill="#000000">opresultid</text>
</a>
</g>
</g>
<!-- opresultid&#45;&gt;messages -->
<g id="edge56" class="edge">
<title>opresultid&#45;&gt;messages</title>
<path fill="none" stroke="#000000" d="M1353.1331,-281.3439C1367.9604,-247.4173 1400.4763,-183.6538 1448,-148.5083 1524.0522,-92.2648 1629.8679,-65.4799 1705.9693,-52.8757"/>
<polygon fill="#000000" stroke="#000000" points="1706.7146,-56.301 1716.0346,-51.2624 1705.6067,-49.3893 1706.7146,-56.301"/>
</g>
<!-- opresult -->
<g id="node34" class="node">
<title>opresult</title>
<g id="a_node34"><a xlink:href="opresult.md" xlink:title="opresult.md">
<polygon fill="#98fb98" stroke="#000000" points="1603.3526,-166.8581 1603.3526,-187.1419 1561.5552,-201.4846 1502.4448,-201.4846 1460.6474,-187.1419 1460.6474,-166.8581 1502.4448,-152.5154 1561.5552,-152.5154 1603.3526,-166.8581"/>
<polygon fill="none" stroke="#000000" points="1607.3486,-164.0019 1607.3486,-189.9981 1562.2213,-205.4835 1501.7787,-205.4835 1456.6514,-189.9981 1456.6514,-164.0019 1501.7787,-148.5165 1562.2213,-148.5165 1607.3486,-164.0019"/>
<text text-anchor="middle" x="1532" y="-169.8" font-family="Times,serif" font-size="24.00" fill="#000000">opresult</text>
</a>
</g>
</g>
<!-- opresultid&#45;&gt;opresult -->
<g id="edge57" class="edge">
<title>opresultid&#45;&gt;opresult</title>
<path fill="none" stroke="#000000" d="M1375.0444,-283.0285C1405.0412,-262.7647 1450.8681,-231.8072 1485.2728,-208.5657"/>
<polygon fill="#000000" stroke="#000000" points="1487.4299,-211.3323 1493.7571,-202.8343 1483.5115,-205.5318 1487.4299,-211.3323"/>
</g>
<!-- parseNumber&#45;&gt;vartypes -->
<g id="edge41" class="edge">
<title>parseNumber&#45;&gt;vartypes</title>
<path fill="none" stroke="#ff0000" d="M1529.1896,-789.8059C1548.5943,-771.8363 1574.0049,-744.7919 1588,-715.6274 1605.9078,-678.3093 1611.6296,-630.4914 1613.3769,-599.0856"/>
<polygon fill="#ff0000" stroke="#ff0000" points="1616.8908,-598.8525 1613.8427,-588.7056 1609.8979,-598.5387 1616.8908,-598.8525"/>
</g>
<!-- cmdline -->
<g id="node5" class="node">
<title>cmdline</title>
<g id="a_node5"><a xlink:href="cmdline.md" xlink:title="cmdline.md">
<polygon fill="#98fb98" stroke="#000000" points="3216.3352,-555.8581 3216.3352,-576.1419 3174.548,-590.4846 3115.452,-590.4846 3073.6648,-576.1419 3073.6648,-555.8581 3115.452,-541.5154 3174.548,-541.5154 3216.3352,-555.8581"/>
<polygon fill="none" stroke="#000000" points="3220.3307,-553.0021 3220.3307,-578.9979 3175.2141,-594.4835 3114.7859,-594.4835 3069.6693,-578.9979 3069.6693,-553.0021 3114.7859,-537.5165 3175.2141,-537.5165 3220.3307,-553.0021"/>
<text text-anchor="middle" x="3145" y="-558.8" font-family="Times,serif" font-size="24.00" fill="#000000">cmdline</text>
</a>
</g>
</g>
<!-- parseCmdLine -->
<g id="node6" class="node">
<title>parseCmdLine</title>
<g id="a_node6"><a xlink:href="parseCmdLine.md" xlink:title="parseCmdLine.md">
<ellipse fill="#eee8aa" stroke="#000000" cx="2599" cy="-693" rx="111.4463" ry="22.7556"/>
<text text-anchor="middle" x="2599" y="-685.8" font-family="Times,serif" font-size="24.00" fill="#000000">parseCmdLine</text>
</a>
</g>
</g>
<!-- parseCmdLine&#45;&gt;regexes -->
<g id="edge25" class="edge">
<title>parseCmdLine&#45;&gt;regexes</title>
<path fill="none" stroke="#000000" d="M2600.774,-670.3248C2602.2412,-650.3702 2604.208,-620.5231 2605,-594.4917 2606.2975,-551.8474 2604.3499,-502.9465 2602.5193,-469.8205"/>
<polygon fill="#000000" stroke="#000000" points="2606.0027,-469.4297 2601.9333,-459.6475 2599.0143,-469.8323 2606.0027,-469.4297"/>
</g>
<!-- parseCmdLine&#45;&gt;warnings -->
<g id="edge28" class="edge">
<title>parseCmdLine&#45;&gt;warnings</title>
<path fill="none" stroke="#000000" d="M2617.289,-670.3452C2657.0128,-618.2319 2742.8203,-487.7891 2681,-402.5083 2607.1522,-300.6354 2228.3812,-220.3351 2066.0294,-190.0507"/>
<polygon fill="#000000" stroke="#000000" points="2066.5916,-186.5954 2056.1212,-188.2145 2065.316,-193.4782 2066.5916,-186.5954"/>
</g>
<!-- parseCmdLine&#45;&gt;opresultwarn -->
<g id="edge29" class="edge">
<title>parseCmdLine&#45;&gt;opresultwarn</title>
<path fill="none" stroke="#000000" d="M2564.9502,-671.4558C2533.9844,-651.7394 2487.1306,-621.5973 2447,-594.4917 2410.5248,-569.8551 2403.7221,-560.1897 2366,-537.5083 2252.3807,-469.1916 2225.1883,-446.1476 2100,-402.5083 1970.6981,-357.4349 1814.3451,-330.2228 1715.2676,-316.1526"/>
<polygon fill="#000000" stroke="#000000" points="1715.655,-312.6728 1705.2657,-314.7493 1714.6823,-319.6049 1715.655,-312.6728"/>
</g>
<!-- parseCmdLine&#45;&gt;messages -->
<g id="edge26" class="edge">
<title>parseCmdLine&#45;&gt;messages</title>
<path fill="none" stroke="#000000" d="M2627.832,-670.8591C2677.9871,-629.5925 2776,-535.5716 2776,-431 2776,-431 2776,-431 2776,-304 2776,-123.4058 2143.6846,-63.7416 1897.9998,-47.3752"/>
<polygon fill="#000000" stroke="#000000" points="1898.2166,-43.882 1888.0087,-46.7194 1897.758,-50.8669 1898.2166,-43.882"/>
</g>
<!-- parseCmdLine&#45;&gt;matches -->
<g id="edge27" class="edge">
<title>parseCmdLine&#45;&gt;matches</title>
<path fill="none" stroke="#000000" d="M2545.1863,-673.0165C2481.4893,-649.363 2375.9933,-610.1876 2311.8479,-586.3675"/>
<polygon fill="#000000" stroke="#000000" points="2312.9003,-583.0248 2302.3074,-582.8247 2310.4634,-589.587 2312.9003,-583.0248"/>
</g>
<!-- env -->
<g id="node7" class="node">
<title>env</title>
<g id="a_node7"><a xlink:href="env.md" xlink:title="env.md">
<ellipse fill="#eee8aa" stroke="#000000" cx="468" cy="-693" rx="35.6342" ry="22.7556"/>
<text text-anchor="middle" x="468" y="-685.8" font-family="Times,serif" font-size="24.00" fill="#000000">env</text>
</a>
</g>
</g>
<!-- tempFile -->
<g id="node11" class="node">
<title>tempFile</title>
<g id="a_node11"><a xlink:href="tempFile.md" xlink:title="tempFile.md">
<polygon fill="#98fb98" stroke="#000000" points="605.598,-555.8581 605.598,-576.1419 560.1421,-590.4846 495.8579,-590.4846 450.402,-576.1419 450.402,-555.8581 495.8579,-541.5154 560.1421,-541.5154 605.598,-555.8581"/>
<polygon fill="none" stroke="#000000" points="609.6004,-552.9275 609.6004,-579.0725 560.7591,-594.4835 495.2409,-594.4835 446.3996,-579.0725 446.3996,-552.9275 495.2409,-537.5165 560.7591,-537.5165 609.6004,-552.9275"/>
<text text-anchor="middle" x="528" y="-558.8" font-family="Times,serif" font-size="24.00" fill="#000000">tempFile</text>
</a>
</g>
</g>
<!-- env&#45;&gt;tempFile -->
<g id="edge17" class="edge">
<title>env&#45;&gt;tempFile</title>
<path fill="none" stroke="#000000" d="M478.3144,-671.1679C487.051,-652.6755 499.7755,-625.7419 510.1601,-603.7612"/>
<polygon fill="#000000" stroke="#000000" points="513.3418,-605.22 514.4489,-594.6832 507.0126,-602.2298 513.3418,-605.22"/>
</g>
<!-- readlines -->
<g id="node15" class="node">
<title>readlines</title>
<g id="a_node15"><a xlink:href="readlines.md" xlink:title="readlines.md">
<polygon fill="#98fb98" stroke="#000000" points="788.5894,-555.8581 788.5894,-576.1419 742.5528,-590.4846 677.4472,-590.4846 631.4106,-576.1419 631.4106,-555.8581 677.4472,-541.5154 742.5528,-541.5154 788.5894,-555.8581"/>
<polygon fill="none" stroke="#000000" points="792.5916,-552.9163 792.5916,-579.0837 743.1623,-594.4835 676.8377,-594.4835 627.4084,-579.0837 627.4084,-552.9163 676.8377,-537.5165 743.1623,-537.5165 792.5916,-552.9163"/>
<text text-anchor="middle" x="710" y="-558.8" font-family="Times,serif" font-size="24.00" fill="#000000">readlines</text>
</a>
</g>
</g>
<!-- env&#45;&gt;readlines -->
<g id="edge21" class="edge">
<title>env&#45;&gt;readlines</title>
<path fill="none" stroke="#000000" d="M495.7605,-678.4315C534.3299,-658.1905 604.9695,-621.1193 654.5613,-595.0939"/>
<polygon fill="#000000" stroke="#000000" points="656.3354,-598.1156 663.5637,-590.3695 653.0825,-591.9173 656.3354,-598.1156"/>
</g>
<!-- env&#45;&gt;warnings -->
<g id="edge19" class="edge">
<title>env&#45;&gt;warnings</title>
<path fill="none" stroke="#000000" d="M454.1476,-671.8339C434.7743,-639.3013 405.3213,-576.6736 437,-537.5083 541.3225,-408.531 662.1135,-548.6551 802,-459.4917 828.7548,-442.4383 817.5101,-418.3495 845,-402.5083 1086.6793,-263.2389 1221.1135,-456.4421 1468,-326.6274 1491.7596,-314.1345 1484.8345,-294.9355 1508,-281.3726 1576.2054,-241.4397 1796.1612,-205.0213 1914.6632,-187.6732"/>
<polygon fill="#000000" stroke="#000000" points="1915.3675,-191.1077 1924.7599,-186.2053 1914.3603,-184.1805 1915.3675,-191.1077"/>
</g>
<!-- args -->
<g id="node25" class="node">
<title>args</title>
<g id="a_node25"><a xlink:href="args.md" xlink:title="args.md">
<ellipse fill="#eee8aa" stroke="#000000" cx="754" cy="-431" rx="39.0784" ry="22.7556"/>
<text text-anchor="middle" x="754" y="-423.8" font-family="Times,serif" font-size="24.00" fill="#000000">args</text>
</a>
</g>
</g>
<!-- env&#45;&gt;args -->
<g id="edge20" class="edge">
<title>env&#45;&gt;args</title>
<path fill="none" stroke="#000000" d="M448.5427,-673.7663C419.5885,-642.7801 371.8479,-580.9003 404,-537.5083 440.2823,-488.5421 618.8428,-453.138 705.9853,-438.4785"/>
<polygon fill="#000000" stroke="#000000" points="706.5994,-441.9246 715.8918,-436.8353 705.4538,-435.019 706.5994,-441.9246"/>
</g>
<!-- env&#45;&gt;messages -->
<g id="edge18" class="edge">
<title>env&#45;&gt;messages</title>
<path fill="none" stroke="#000000" d="M446.5992,-674.5708C415.2156,-645.216 363.1924,-586.1847 390,-537.5083 546.0219,-254.2083 701.0114,-258.9285 1005,-148.5083 1132.0854,-102.346 1523.1889,-65.0603 1705.9838,-49.6491"/>
<polygon fill="#000000" stroke="#000000" points="1706.4523,-53.1222 1716.1247,-48.7986 1705.8672,-46.1467 1706.4523,-53.1222"/>
</g>
<!-- startingvars -->
<g id="node8" class="node">
<title>startingvars</title>
<g id="a_node8"><a xlink:href="startingvars.md" xlink:title="startingvars.md">
<ellipse fill="#eee8aa" stroke="#000000" cx="1180" cy="-1286" rx="90.4807" ry="22.7556"/>
<text text-anchor="middle" x="1180" y="-1278.8" font-family="Times,serif" font-size="24.00" fill="#000000">startingvars</text>
</a>
</g>
</g>
<!-- startingvars&#45;&gt;runFunction -->
<g id="edge112" class="edge">
<title>startingvars&#45;&gt;runFunction</title>
<path fill="none" stroke="#000000" d="M1198.391,-1263.7306C1249.127,-1202.2952 1391.1304,-1030.3455 1448.9889,-960.2855"/>
<polygon fill="#000000" stroke="#000000" points="1451.9469,-962.2002 1455.6159,-952.261 1446.5495,-957.7428 1451.9469,-962.2002"/>
</g>
<!-- startingvars&#45;&gt;env -->
<g id="edge97" class="edge">
<title>startingvars&#45;&gt;env</title>
<path fill="none" stroke="#000000" d="M1096.3516,-1277.3643C972.5949,-1263.3499 748.0077,-1232.8069 680,-1189.6274 514.2304,-1084.3769 477.8027,-818.8962 470.0363,-725.8414"/>
<polygon fill="#000000" stroke="#000000" points="473.5063,-725.3186 469.2423,-715.6197 466.5274,-725.8608 473.5063,-725.3186"/>
</g>
<!-- variables -->
<g id="node10" class="node">
<title>variables</title>
<g id="a_node10"><a xlink:href="variables.md" xlink:title="variables.md">
<ellipse fill="#eee8aa" stroke="#000000" cx="2207" cy="-693" rx="72.6337" ry="22.7556"/>
<text text-anchor="middle" x="2207" y="-685.8" font-family="Times,serif" font-size="24.00" fill="#000000">variables</text>
</a>
</g>
</g>
<!-- startingvars&#45;&gt;variables -->
<g id="edge98" class="edge">
<title>startingvars&#45;&gt;variables</title>
<path fill="none" stroke="#000000" d="M1252.5313,-1272.3486C1383.7706,-1245.8514 1667.2287,-1180.3108 1885,-1071.6274 2025.7878,-1001.3643 2065.9084,-968.8626 2148,-834.6274 2169.5058,-799.4614 2186.5711,-755.0568 2196.7057,-725.4339"/>
<polygon fill="#000000" stroke="#000000" points="2200.1383,-726.2057 2199.9973,-715.6118 2193.5011,-723.9814 2200.1383,-726.2057"/>
</g>
<!-- startingvars&#45;&gt;vartypes -->
<g id="edge99" class="edge">
<title>startingvars&#45;&gt;vartypes</title>
<path fill="none" stroke="#000000" d="M1180.6874,-1263.146C1184.0534,-1187.6637 1203.8497,-942.4437 1320,-789.3726 1358.069,-739.2025 1390.1196,-752.7418 1441,-715.6274 1493.8673,-677.0637 1550.3566,-626.148 1583.8988,-594.7617"/>
<polygon fill="#000000" stroke="#000000" points="1586.6215,-597.0058 1591.5098,-587.606 1581.8267,-591.9058 1586.6215,-597.0058"/>
</g>
<!-- codefile -->
<g id="node13" class="node">
<title>codefile</title>
<g id="a_node13"><a xlink:href="codefile.md" xlink:title="codefile.md">
<ellipse fill="#eee8aa" stroke="#000000" cx="857" cy="-1167" rx="65.069" ry="22.7556"/>
<text text-anchor="middle" x="857" y="-1159.8" font-family="Times,serif" font-size="24.00" fill="#000000">codefile</text>
</a>
</g>
</g>
<!-- startingvars&#45;&gt;codefile -->
<g id="edge111" class="edge">
<title>startingvars&#45;&gt;codefile</title>
<path fill="none" stroke="#000000" d="M1129.1759,-1267.2753C1069.8157,-1245.4058 972.0192,-1209.3755 911.2323,-1186.9803"/>
<polygon fill="#000000" stroke="#000000" points="912.3991,-1183.6803 901.8057,-1183.5074 909.9791,-1190.2487 912.3991,-1183.6803"/>
</g>
<!-- startingvars&#45;&gt;args -->
<g id="edge95" class="edge">
<title>startingvars&#45;&gt;args</title>
<path fill="none" stroke="#000000" d="M1094.0802,-1278.874C957.8987,-1266.313 699.9183,-1236.9862 622,-1189.6274 610.8409,-1182.8449 342,-825.0586 342,-812 342,-812 342,-812 342,-693 342,-620.6747 338.4823,-588.2712 390,-537.5083 435.1149,-493.0543 617.9898,-455.2642 706.0943,-439.2274"/>
<polygon fill="#000000" stroke="#000000" points="706.8779,-442.6427 716.0993,-437.4258 705.6373,-435.7535 706.8779,-442.6427"/>
</g>
<!-- startingvars&#45;&gt;opresultwarn -->
<g id="edge101" class="edge">
<title>startingvars&#45;&gt;opresultwarn</title>
<path fill="none" stroke="#000000" d="M1093.7329,-1278.9438C950.5016,-1266.0958 670.7795,-1235.8686 584,-1189.6274 289.9135,-1032.9208 11.935,-802.4867 214,-537.5083 380.5683,-319.0786 1159.056,-357.5809 1432,-326.6274 1460.3484,-323.4125 1491.1151,-319.728 1519.2713,-316.2787"/>
<polygon fill="#000000" stroke="#000000" points="1520.0187,-319.7133 1529.5172,-315.0199 1519.165,-312.7655 1520.0187,-319.7133"/>
</g>
<!-- startingvars&#45;&gt;messages -->
<g id="edge96" class="edge">
<title>startingvars&#45;&gt;messages</title>
<path fill="none" stroke="#000000" d="M1094.1104,-1278.7507C936.8569,-1264.6606 609.0889,-1231.2747 503,-1189.6274 142.8497,-1048.2433 76,-817.9079 76,-431 76,-431 76,-431 76,-304 76,-149.8619 237.446,-189.6212 386,-148.5083 635.6581,-79.4144 1429.6553,-51.985 1706.0419,-44.3764"/>
<polygon fill="#000000" stroke="#000000" points="1706.1486,-47.8749 1716.0494,-44.1034 1705.9577,-40.8775 1706.1486,-47.8749"/>
</g>
<!-- startingvars&#45;&gt;readjson -->
<g id="edge100" class="edge">
<title>startingvars&#45;&gt;readjson</title>
<path fill="none" stroke="#000000" d="M1152.9992,-1264.3212C1132.5689,-1246.4339 1105.4715,-1219.2544 1090,-1189.6274 1029.0145,-1072.8438 1013.9281,-912.8681 1010.2096,-844.8008"/>
<polygon fill="#000000" stroke="#000000" points="1013.6991,-844.4995 1009.7052,-834.6863 1006.7077,-844.8482 1013.6991,-844.4995"/>
</g>
<!-- unicodes&#45;&gt;opresultid -->
<g id="edge58" class="edge">
<title>unicodes&#45;&gt;opresultid</title>
<path fill="none" stroke="#000000" d="M1134.442,-672.1154C1157.9083,-653.7448 1190.8341,-625.2032 1213,-594.4917 1273.9606,-510.0293 1316.1121,-392.6734 1334.1468,-336.4962"/>
<polygon fill="#000000" stroke="#000000" points="1337.5538,-337.3303 1337.2327,-326.7403 1330.8797,-335.2192 1337.5538,-337.3303"/>
</g>
<!-- unicodes&#45;&gt;vartypes -->
<g id="edge62" class="edge">
<title>unicodes&#45;&gt;vartypes</title>
<path fill="none" stroke="#000000" d="M1161.0224,-678.3935C1171.3101,-675.6993 1181.9773,-672.9304 1192,-670.3726 1317.9609,-638.2268 1465.4652,-602.0878 1548.4972,-581.8822"/>
<polygon fill="#000000" stroke="#000000" points="1549.4082,-585.2627 1558.2977,-579.4984 1547.7538,-578.461 1549.4082,-585.2627"/>
</g>
<!-- utf8decoder -->
<g id="node17" class="node">
<title>utf8decoder</title>
<g id="a_node17"><a xlink:href="utf8decoder.md" xlink:title="utf8decoder.md">
<polygon fill="#98fb98" stroke="#000000" points="1090.9296,-555.8581 1090.9296,-576.1419 1032.3922,-590.4846 949.6078,-590.4846 891.0704,-576.1419 891.0704,-555.8581 949.6078,-541.5154 1032.3922,-541.5154 1090.9296,-555.8581"/>
<polygon fill="none" stroke="#000000" points="1094.9282,-552.7208 1094.9282,-579.2792 1032.8749,-594.4835 949.1251,-594.4835 887.0718,-579.2792 887.0718,-552.7208 949.1251,-537.5165 1032.8749,-537.5165 1094.9282,-552.7208"/>
<text text-anchor="middle" x="991" y="-558.8" font-family="Times,serif" font-size="24.00" fill="#000000">utf8decoder</text>
</a>
</g>
</g>
<!-- unicodes&#45;&gt;utf8decoder -->
<g id="edge61" class="edge">
<title>unicodes&#45;&gt;utf8decoder</title>
<path fill="none" stroke="#000000" d="M1086.2308,-671.1679C1069.1119,-652.2627 1044.0044,-624.5353 1023.8672,-602.2968"/>
<polygon fill="#000000" stroke="#000000" points="1026.2796,-599.7465 1016.9729,-594.6832 1021.0907,-604.4451 1026.2796,-599.7465"/>
</g>
<!-- unicodes&#45;&gt;opresultwarn -->
<g id="edge59" class="edge">
<title>unicodes&#45;&gt;opresultwarn</title>
<path fill="none" stroke="#000000" d="M1135.9523,-672.3262C1164.1376,-652.7063 1207.3693,-622.1841 1244,-594.4917 1352.9623,-512.1175 1375.7648,-485.8356 1484,-402.5083 1515.6389,-378.1503 1552.118,-351.2107 1578.8602,-331.6693"/>
<polygon fill="#000000" stroke="#000000" points="1581.1668,-334.3189 1587.1821,-325.5973 1577.0408,-328.6642 1581.1668,-334.3189"/>
</g>
<!-- unicodes&#45;&gt;messages -->
<g id="edge60" class="edge">
<title>unicodes&#45;&gt;messages</title>
<path fill="none" stroke="#000000" d="M1119.923,-670.4765C1145.8669,-626.2903 1199,-524.3961 1199,-431 1199,-431 1199,-431 1199,-304 1199,-220.3621 1235.5849,-195.1648 1305,-148.5083 1369.5772,-105.1035 1581.0279,-70.9569 1706.3562,-53.9103"/>
<polygon fill="#000000" stroke="#000000" points="1706.9019,-57.3685 1716.3443,-52.5632 1705.9661,-50.4313 1706.9019,-57.3685"/>
</g>
<!-- variables&#45;&gt;vartypes -->
<g id="edge43" class="edge">
<title>variables&#45;&gt;vartypes</title>
<path fill="none" stroke="#000000" d="M2151.8765,-678.2106C2141.3189,-675.5064 2130.3356,-672.781 2120,-670.3726 1964.9692,-634.2477 1781.7111,-598.0497 1683.8673,-579.2409"/>
<polygon fill="#000000" stroke="#000000" points="1684.2858,-575.7574 1673.8054,-577.3101 1682.9666,-582.632 1684.2858,-575.7574"/>
</g>
<!-- variables&#45;&gt;warnings -->
<g id="edge46" class="edge">
<title>variables&#45;&gt;warnings</title>
<path fill="none" stroke="#000000" d="M2191.9546,-670.5672C2179.2368,-651.0138 2161.0557,-621.6149 2148,-594.4917 2081.3086,-455.9407 2024.1528,-280.9151 2001.9166,-209.535"/>
<polygon fill="#000000" stroke="#000000" points="2005.1947,-208.2887 1998.8923,-199.7722 1998.5082,-210.3601 2005.1947,-208.2887"/>
</g>
<!-- variables&#45;&gt;args -->
<g id="edge47" class="edge">
<title>variables&#45;&gt;args</title>
<path fill="none" stroke="#000000" d="M2159.8133,-675.6142C2070.0299,-643.242 1867.8619,-573.7331 1692,-537.5083 1356.4748,-468.3952 943.5395,-441.1383 803.2772,-433.4617"/>
<polygon fill="#000000" stroke="#000000" points="803.4388,-429.9654 793.2648,-432.9218 803.0618,-436.9553 803.4388,-429.9654"/>
</g>
<!-- variables&#45;&gt;opresultwarn -->
<g id="edge48" class="edge">
<title>variables&#45;&gt;opresultwarn</title>
<path fill="none" stroke="#000000" d="M2185.2408,-671.0907C2132.4486,-618.8797 1991.7482,-485.3114 1854,-402.5083 1799.9376,-370.0103 1733.1948,-343.3313 1684.3271,-325.9732"/>
<polygon fill="#000000" stroke="#000000" points="1685.3957,-322.639 1674.8009,-322.6269 1683.0757,-329.2433 1685.3957,-322.639"/>
</g>
<!-- variables&#45;&gt;messages -->
<g id="edge45" class="edge">
<title>variables&#45;&gt;messages</title>
<path fill="none" stroke="#000000" d="M2200.8512,-670.3479C2195.4793,-650.4081 2187.5395,-620.5697 2181,-594.4917 2131.4441,-396.8739 2208.7398,-302.2036 2075,-148.5083 2029.9991,-96.7926 1956.7353,-70.0105 1897.4293,-56.2418"/>
<polygon fill="#000000" stroke="#000000" points="1898.1841,-52.8242 1887.6617,-54.0613 1896.6588,-59.6561 1898.1841,-52.8242"/>
</g>
<!-- version -->
<g id="node29" class="node">
<title>version</title>
<g id="a_node29"><a xlink:href="version.md" xlink:title="version.md">
<polygon fill="#98fb98" stroke="#000000" points="2592.1523,-555.8581 2592.1523,-576.1419 2553.4012,-590.4846 2498.5988,-590.4846 2459.8477,-576.1419 2459.8477,-555.8581 2498.5988,-541.5154 2553.4012,-541.5154 2592.1523,-555.8581"/>
<polygon fill="none" stroke="#000000" points="2596.1421,-553.0721 2596.1421,-578.9279 2554.1143,-594.4835 2497.8857,-594.4835 2455.8579,-578.9279 2455.8579,-553.0721 2497.8857,-537.5165 2554.1143,-537.5165 2596.1421,-553.0721"/>
<text text-anchor="middle" x="2526" y="-558.8" font-family="Times,serif" font-size="24.00" fill="#000000">version</text>
</a>
</g>
</g>
<!-- variables&#45;&gt;version -->
<g id="edge44" class="edge">
<title>variables&#45;&gt;version</title>
<path fill="none" stroke="#000000" d="M2252.0283,-675.0734C2307.9782,-652.7986 2403.647,-614.7111 2465.8383,-589.9515"/>
<polygon fill="#000000" stroke="#000000" points="2467.1453,-593.1984 2475.1415,-586.2478 2464.5561,-586.6949 2467.1453,-593.1984"/>
</g>
<!-- vartypes&#45;&gt;warnings -->
<g id="edge36" class="edge">
<title>vartypes&#45;&gt;warnings</title>
<path fill="none" stroke="#000000" d="M1651.0997,-546.8214C1686.1319,-527.6284 1738.9723,-495.7939 1778,-459.4917 1863.3506,-380.1016 1939.5762,-263.5031 1973.4383,-208.2485"/>
<polygon fill="#000000" stroke="#000000" points="1976.4875,-209.9703 1978.694,-199.6077 1970.507,-206.3326 1976.4875,-209.9703"/>
</g>
<!-- vartypes&#45;&gt;opresultwarn -->
<g id="edge37" class="edge">
<title>vartypes&#45;&gt;opresultwarn</title>
<path fill="none" stroke="#000000" d="M1614.261,-543.2075C1614.7929,-496.7542 1616.0042,-390.9666 1616.6222,-336.9965"/>
<polygon fill="#000000" stroke="#000000" points="1620.1227,-336.9658 1616.7375,-326.9263 1613.1231,-336.8856 1620.1227,-336.9658"/>
</g>
<!-- vartypes&#45;&gt;messages -->
<g id="edge35" class="edge">
<title>vartypes&#45;&gt;messages</title>
<path fill="none" stroke="#000000" d="M1626.1945,-543.4662C1648.4251,-501.6902 1696.0098,-408.9701 1726,-326.6274 1757.2424,-240.8466 1781.8653,-136.3133 1793.9108,-80.8809"/>
<polygon fill="#000000" stroke="#000000" points="1797.3994,-81.3057 1796.0814,-70.7932 1790.5561,-79.8331 1797.3994,-81.3057"/>
</g>
<!-- codefile&#45;&gt;env -->
<g id="edge102" class="edge">
<title>codefile&#45;&gt;env</title>
<path fill="none" stroke="#000000" d="M816.2609,-1149.1686C783.3438,-1133.0048 737.7493,-1106.4015 708,-1071.6274 618.928,-967.5108 666.457,-898.8026 584,-789.3726 561.3078,-759.2574 527.4347,-732.5252 502.1428,-714.9009"/>
<polygon fill="#000000" stroke="#000000" points="503.8186,-711.8069 493.587,-709.0561 499.87,-717.587 503.8186,-711.8069"/>
</g>
<!-- codefile&#45;&gt;variables -->
<g id="edge107" class="edge">
<title>codefile&#45;&gt;variables</title>
<path fill="none" stroke="#000000" d="M922.1447,-1165.2442C1111.5346,-1159.4098 1658.9879,-1137.1719 1824,-1071.6274 1979.9813,-1009.6701 2007.8681,-961.276 2118,-834.6274 2147.9189,-800.2215 2174.616,-754.7454 2190.7893,-724.7198"/>
<polygon fill="#000000" stroke="#000000" points="2194.0611,-726.0211 2195.6613,-715.5478 2187.8792,-722.7373 2194.0611,-726.0211"/>
</g>
<!-- codefile&#45;&gt;vartypes -->
<g id="edge108" class="edge">
<title>codefile&#45;&gt;vartypes</title>
<path fill="none" stroke="#000000" d="M874.5986,-1145.1189C950.9246,-1050.2639 1250.0644,-678.9823 1263,-670.3726 1347.6651,-614.0213 1463.5825,-587.3403 1538.6306,-575.2528"/>
<polygon fill="#000000" stroke="#000000" points="1539.6013,-578.6438 1548.9415,-573.6425 1538.5211,-571.7276 1539.6013,-578.6438"/>
</g>
<!-- codefile&#45;&gt;readlines -->
<g id="edge105" class="edge">
<title>codefile&#45;&gt;readlines</title>
<path fill="none" stroke="#000000" d="M824.8493,-1147.2135C799.7818,-1130.1659 765.9759,-1103.3351 746,-1071.6274 658.6488,-932.975 671.5197,-878.0824 650,-715.6274 647.3588,-695.6883 644.8124,-689.8054 650,-670.3726 656.4044,-646.3814 669.7868,-622.1791 682.2911,-603.1286"/>
<polygon fill="#000000" stroke="#000000" points="685.2485,-605.0031 687.9463,-594.7575 679.4481,-601.0845 685.2485,-605.0031"/>
</g>
<!-- codefile&#45;&gt;utf8decoder -->
<g id="edge110" class="edge">
<title>codefile&#45;&gt;utf8decoder</title>
<path fill="none" stroke="#000000" d="M855.87,-1144.2784C853.0793,-1072.1475 850.3681,-842.9394 917,-670.3726 926.5212,-645.7141 943.1806,-621.4275 958.2845,-602.4952"/>
<polygon fill="#000000" stroke="#000000" points="961.018,-604.6814 964.637,-594.7238 955.5983,-600.2511 961.018,-604.6814"/>
</g>
<!-- codefile&#45;&gt;warnings -->
<g id="edge109" class="edge">
<title>codefile&#45;&gt;warnings</title>
<path fill="none" stroke="#000000" d="M922.051,-1164.8627C1118.7847,-1157.789 1704.9929,-1132.0608 1885,-1071.6274 2074.4094,-1008.0374 2115.9524,-965.4106 2267,-834.6274 2319.2271,-789.4071 2343.3485,-780.5362 2367,-715.6274 2385.9827,-663.5317 2340.2077,-550.5755 2333,-537.5083 2252.2313,-391.0784 2097.8964,-259.4403 2027.9931,-204.3491"/>
<polygon fill="#000000" stroke="#000000" points="2029.9298,-201.4205 2019.8975,-198.0143 2025.616,-206.9333 2029.9298,-201.4205"/>
</g>
<!-- codefile&#45;&gt;opresultwarn -->
<g id="edge104" class="edge">
<title>codefile&#45;&gt;opresultwarn</title>
<path fill="none" stroke="#000000" d="M849.3554,-1144.4122C820.8972,-1055.7675 730.1111,-727.2455 878,-537.5083 919.9054,-483.7448 1358.5332,-368.7794 1539.5435,-323.1943"/>
<polygon fill="#000000" stroke="#000000" points="1540.4241,-326.5819 1549.269,-320.7494 1538.7174,-319.7931 1540.4241,-326.5819"/>
</g>
<!-- codefile&#45;&gt;messages -->
<g id="edge103" class="edge">
<title>codefile&#45;&gt;messages</title>
<path fill="none" stroke="#000000" d="M812.2899,-1150.2988C773.0426,-1134.1804 715.8501,-1107.0282 674,-1071.6274 401.5527,-841.1657 190,-787.8475 190,-431 190,-431 190,-431 190,-304 190,-149.4479 1359.3551,-68.1058 1706.1673,-47.3797"/>
<polygon fill="#000000" stroke="#000000" points="1706.4114,-50.8715 1716.1861,-46.7842 1705.996,-43.8838 1706.4114,-50.8715"/>
</g>
<!-- runCommand -->
<g id="node35" class="node">
<title>runCommand</title>
<g id="a_node35"><a xlink:href="runCommand.md" xlink:title="runCommand.md">
<ellipse fill="#eee8aa" stroke="#000000" cx="1710" cy="-1049" rx="104.7872" ry="22.7556"/>
<text text-anchor="middle" x="1710" y="-1041.8" font-family="Times,serif" font-size="24.00" fill="#000000">runCommand</text>
</a>
</g>
</g>
<!-- codefile&#45;&gt;runCommand -->
<g id="edge106" class="edge">
<title>codefile&#45;&gt;runCommand</title>
<path fill="none" stroke="#000000" d="M917.6618,-1158.6083C1063.2754,-1138.4648 1433.6646,-1087.2269 1611.6186,-1062.6096"/>
<polygon fill="#000000" stroke="#000000" points="1612.3356,-1066.0438 1621.7617,-1061.2065 1611.3764,-1059.1099 1612.3356,-1066.0438"/>
</g>
<!-- replacement&#45;&gt;parseCmdLine -->
<g id="edge69" class="edge">
<title>replacement&#45;&gt;parseCmdLine</title>
<path fill="none" stroke="#000000" d="M1948.0158,-799.2649C2081.9902,-777.3953 2355.4578,-732.7552 2501.6774,-708.8867"/>
<polygon fill="#000000" stroke="#000000" points="2502.6761,-712.2701 2511.9816,-707.2046 2501.5483,-705.3615 2502.6761,-712.2701"/>
</g>
<!-- replacement&#45;&gt;env -->
<g id="edge67" class="edge">
<title>replacement&#45;&gt;env</title>
<path fill="none" stroke="#000000" d="M1781.8019,-803.9744C1732.703,-799.5567 1670.4711,-794.04 1615,-789.3726 1203.1537,-754.719 1099.5939,-753.1606 688,-715.6274 627.6441,-710.1236 558.0784,-702.8045 513.606,-698.0011"/>
<polygon fill="#000000" stroke="#000000" points="513.7305,-694.4942 503.4116,-696.8966 512.9764,-701.4534 513.7305,-694.4942"/>
</g>
<!-- replacement&#45;&gt;variables -->
<g id="edge73" class="edge">
<title>replacement&#45;&gt;variables</title>
<path fill="none" stroke="#000000" d="M1923.027,-793.2753C1984.6467,-771.5164 2085.964,-735.7397 2149.4515,-713.3213"/>
<polygon fill="#000000" stroke="#000000" points="2150.6553,-716.6081 2158.9193,-709.9781 2148.3245,-710.0075 2150.6553,-716.6081"/>
</g>
<!-- replacement&#45;&gt;tempFile -->
<g id="edge74" class="edge">
<title>replacement&#45;&gt;tempFile</title>
<path fill="none" stroke="#000000" d="M1781.7072,-803.8528C1551.4143,-782.5126 947.3047,-725.9209 905,-715.6274 787.2967,-686.9881 657.5454,-629.2738 585.0876,-594.4923"/>
<polygon fill="#000000" stroke="#000000" points="586.2079,-591.1466 575.6807,-589.9508 583.1645,-597.4504 586.2079,-591.1466"/>
</g>
<!-- replacement&#45;&gt;vartypes -->
<g id="edge68" class="edge">
<title>replacement&#45;&gt;vartypes</title>
<path fill="none" stroke="#000000" d="M1846.8302,-789.7353C1800.3535,-745.0741 1695.7847,-644.59 1644.0941,-594.9185"/>
<polygon fill="#000000" stroke="#000000" points="1646.2022,-592.0902 1636.5666,-587.6851 1641.352,-597.1376 1646.2022,-592.0902"/>
</g>
<!-- replacement&#45;&gt;readlines -->
<g id="edge70" class="edge">
<title>replacement&#45;&gt;readlines</title>
<path fill="none" stroke="#000000" d="M1782.2634,-803.6451C1580.7587,-784.2194 1096.6469,-736.114 1025,-715.6274 927.2749,-687.684 822.2553,-632.042 761.5361,-597.0475"/>
<polygon fill="#000000" stroke="#000000" points="762.9481,-593.8203 752.5423,-591.828 759.4345,-599.8746 762.9481,-593.8203"/>
</g>
<!-- replacement&#45;&gt;warnings -->
<g id="edge76" class="edge">
<title>replacement&#45;&gt;warnings</title>
<path fill="none" stroke="#000000" d="M1875.5096,-789.0804C1880.1281,-769.5904 1886.7848,-740.8363 1892,-715.6274 1931.5426,-524.4883 1971.9509,-293.657 1986.4251,-209.6066"/>
<polygon fill="#000000" stroke="#000000" points="1989.8932,-210.0906 1988.1379,-199.6422 1982.9943,-208.9048 1989.8932,-210.0906"/>
</g>
<!-- replacement&#45;&gt;opresultwarn -->
<g id="edge75" class="edge">
<title>replacement&#45;&gt;opresultwarn</title>
<path fill="none" stroke="#000000" d="M1867.4427,-789.1293C1859.1844,-723.5553 1828.4214,-531.3492 1740,-402.5083 1719.8328,-373.1221 1688.3389,-348.1344 1662.2688,-330.6784"/>
<polygon fill="#000000" stroke="#000000" points="1663.9453,-327.5929 1653.6597,-325.0518 1660.1157,-333.4525 1663.9453,-327.5929"/>
</g>
<!-- replacement&#45;&gt;messages -->
<g id="edge72" class="edge">
<title>replacement&#45;&gt;messages</title>
<path fill="none" stroke="#000000" d="M1869.4191,-788.9185C1868.6216,-760.8672 1866.9406,-712.1064 1864,-670.3726 1848.2398,-446.6983 1818.0828,-179.2956 1806.597,-80.8414"/>
<polygon fill="#000000" stroke="#000000" points="1810.0562,-80.2877 1805.4174,-70.7624 1803.1036,-81.1014 1810.0562,-80.2877"/>
</g>
<!-- replacement&#45;&gt;matches -->
<g id="edge71" class="edge">
<title>replacement&#45;&gt;matches</title>
<path fill="none" stroke="#000000" d="M1895.42,-790.0392C1929.9571,-760.7731 1994.2652,-708.2785 2054,-670.3726 2104.2386,-638.4927 2165.376,-608.1054 2207.3466,-588.4262"/>
<polygon fill="#000000" stroke="#000000" points="2208.941,-591.5446 2216.5274,-584.1489 2205.9848,-585.1995 2208.941,-591.5446"/>
</g>
<!-- updateTemplate -->
<g id="node16" class="node">
<title>updateTemplate</title>
<g id="a_node16"><a xlink:href="updateTemplate.md" xlink:title="updateTemplate.md">
<ellipse fill="#eee8aa" stroke="#000000" cx="2305" cy="-1412" rx="119.3861" ry="22.7556"/>
<text text-anchor="middle" x="2305" y="-1404.8" font-family="Times,serif" font-size="24.00" fill="#000000">updateTemplate</text>
</a>
</g>
</g>
<!-- updateTemplate&#45;&gt;parseCmdLine -->
<g id="edge121" class="edge">
<title>updateTemplate&#45;&gt;parseCmdLine</title>
<path fill="none" stroke="#000000" d="M2360.7293,-1391.7662C2402.6322,-1374.4926 2459.5458,-1346.4304 2500,-1308.6274 2590.563,-1223.9995 2602.4865,-1187.3085 2647,-1071.6274 2692.5708,-953.1986 2736.875,-907.2913 2690,-789.3726 2679.2687,-762.377 2656.9919,-738.5703 2637.1662,-721.3722"/>
<polygon fill="#000000" stroke="#000000" points="2639.3427,-718.6296 2629.4333,-714.8808 2634.8421,-723.991 2639.3427,-718.6296"/>
</g>
<!-- updateTemplate&#45;&gt;env -->
<g id="edge118" class="edge">
<title>updateTemplate&#45;&gt;env</title>
<path fill="none" stroke="#000000" d="M2187.9193,-1407.2683C1795.279,-1391.1417 548.1241,-1337.7216 518,-1308.6274 353.3861,-1149.6414 428.4901,-827.8721 458.0277,-725.2329"/>
<polygon fill="#000000" stroke="#000000" points="461.4413,-726.0296 460.8981,-715.4487 454.7244,-724.059 461.4413,-726.0296"/>
</g>
<!-- updateTemplate&#45;&gt;startingvars -->
<g id="edge126" class="edge">
<title>updateTemplate&#45;&gt;startingvars</title>
<path fill="none" stroke="#000000" d="M2202.1814,-1400.4843C1984.7067,-1376.1271 1481.023,-1319.7146 1272.7325,-1296.386"/>
<polygon fill="#000000" stroke="#000000" points="1273.0665,-1292.9017 1262.7391,-1295.2668 1272.2874,-1299.8582 1273.0665,-1292.9017"/>
</g>
<!-- updateTemplate&#45;&gt;variables -->
<g id="edge123" class="edge">
<title>updateTemplate&#45;&gt;variables</title>
<path fill="none" stroke="#000000" d="M2311.4971,-1389.2067C2334.2169,-1305.0572 2403.7858,-1005.5609 2310,-789.3726 2297.4139,-760.36 2271.3151,-736.0941 2248.5395,-719.1688"/>
<polygon fill="#000000" stroke="#000000" points="2250.4934,-716.263 2240.3301,-713.2702 2246.4088,-721.9477 2250.4934,-716.263"/>
</g>
<!-- updateTemplate&#45;&gt;vartypes -->
<g id="edge124" class="edge">
<title>updateTemplate&#45;&gt;vartypes</title>
<path fill="none" stroke="#000000" d="M2280.6129,-1389.8111C2200.5402,-1316.177 1940.8699,-1071.1386 1767,-834.6274 1708.0435,-754.4303 1654.2113,-649.4496 1629.0202,-597.6825"/>
<polygon fill="#000000" stroke="#000000" points="1632.1588,-596.1332 1624.655,-588.6537 1625.8567,-599.1802 1632.1588,-596.1332"/>
</g>
<!-- updateTemplate&#45;&gt;replacement -->
<g id="edge125" class="edge">
<title>updateTemplate&#45;&gt;replacement</title>
<path fill="none" stroke="#000000" d="M2299.5447,-1389.249C2279.5999,-1310.8223 2203.329,-1048.8073 2044,-907.3726 2009.7087,-876.9326 1964.0371,-852.3636 1928.0898,-835.7896"/>
<polygon fill="#000000" stroke="#000000" points="1929.2544,-832.4749 1918.7009,-831.5394 1926.3676,-838.852 1929.2544,-832.4749"/>
</g>
<!-- updateTemplate&#45;&gt;readlines -->
<g id="edge120" class="edge">
<title>updateTemplate&#45;&gt;readlines</title>
<path fill="none" stroke="#000000" d="M2186.9511,-1408.1522C1790.574,-1393.6848 532,-1334.5554 532,-1167 532,-1167 532,-1167 532,-1049 532,-873.6388 570.2275,-829.921 643,-670.3726 653.7416,-646.8223 669.1688,-622.3751 682.5125,-603.0661"/>
<polygon fill="#000000" stroke="#000000" points="685.3981,-605.0472 688.2776,-594.8511 679.6683,-601.0261 685.3981,-605.0472"/>
</g>
<!-- updateTemplate&#45;&gt;args -->
<g id="edge116" class="edge">
<title>updateTemplate&#45;&gt;args</title>
<path fill="none" stroke="#000000" d="M2188.3882,-1407.0498C1791.1211,-1389.9767 513.1442,-1333.2539 478,-1308.6274 335.6537,-1208.8818 231.29,-667.2111 347,-537.5083 394.6171,-484.1329 607.6146,-450.0854 705.057,-437.0347"/>
<polygon fill="#000000" stroke="#000000" points="705.7786,-440.4699 715.2348,-435.6918 704.8629,-433.5301 705.7786,-440.4699"/>
</g>
<!-- updateTemplate&#45;&gt;opresultwarn -->
<g id="edge127" class="edge">
<title>updateTemplate&#45;&gt;opresultwarn</title>
<path fill="none" stroke="#000000" d="M2323.9863,-1389.3824C2340.228,-1369.197 2363.3888,-1338.3219 2379,-1308.6274 2405.1687,-1258.8512 2406.1434,-1243.5814 2422,-1189.6274 2452.0603,-1087.3439 2454.5324,-1059.143 2459,-952.6274 2459.8429,-932.5318 2462.2871,-927.2154 2459,-907.3726 2451.9046,-864.5411 2363.8994,-568.006 2333,-537.5083 2241.6471,-447.3427 1869.2616,-358.1299 1700.6534,-321.4447"/>
<polygon fill="#000000" stroke="#000000" points="1701.338,-318.0119 1690.8236,-319.3153 1699.8559,-324.8532 1701.338,-318.0119"/>
</g>
<!-- updateTemplate&#45;&gt;messages -->
<g id="edge117" class="edge">
<title>updateTemplate&#45;&gt;messages</title>
<path fill="none" stroke="#000000" d="M2358.3074,-1391.6954C2406.103,-1372.668 2477.5006,-1342.1883 2536,-1308.6274 2732.4668,-1195.9153 3241.4258,-905.45 3365,-715.6274 3402.0519,-658.7119 3396,-633.9133 3396,-566 3396,-566 3396,-566 3396,-304 3396,-208.8986 3334.9022,-189.3139 3249,-148.5083 3127.4791,-90.7828 2201.0658,-55.2289 1897.7799,-45.0424"/>
<polygon fill="#000000" stroke="#000000" points="1897.8004,-41.5412 1887.689,-44.7051 1897.5665,-48.5373 1897.8004,-41.5412"/>
</g>
<!-- updateTemplate&#45;&gt;matches -->
<g id="edge119" class="edge">
<title>updateTemplate&#45;&gt;matches</title>
<path fill="none" stroke="#000000" d="M2317.3891,-1389.4008C2360.8167,-1307.1259 2499.5206,-1016.509 2424,-789.3726 2423.063,-786.5545 2325.402,-656.7615 2279.8793,-596.3468"/>
<polygon fill="#000000" stroke="#000000" points="2282.631,-594.1827 2273.8173,-588.3029 2277.0406,-598.3956 2282.631,-594.1827"/>
</g>
<!-- updateTemplate&#45;&gt;runCommand -->
<g id="edge122" class="edge">
<title>updateTemplate&#45;&gt;runCommand</title>
<path fill="none" stroke="#000000" d="M2259.6248,-1390.893C2217.7419,-1370.9706 2154.1733,-1339.6105 2101,-1308.6274 1967.655,-1230.9297 1817.5985,-1126.0889 1748.5466,-1076.7972"/>
<polygon fill="#000000" stroke="#000000" points="1750.3087,-1073.7545 1740.1388,-1070.7839 1746.2365,-1079.4481 1750.3087,-1073.7545"/>
</g>
<!-- warnings&#45;&gt;messages -->
<g id="edge2" class="edge">
<title>warnings&#45;&gt;messages</title>
<path fill="none" stroke="#ff0000" d="M1962.7289,-156.2021C1932.3727,-134.6332 1884.4541,-100.5858 1848.8271,-75.2719"/>
<polygon fill="#ff0000" stroke="#ff0000" points="1850.6901,-72.3021 1840.511,-69.3631 1846.6356,-78.0083 1850.6901,-72.3021"/>
</g>
<!-- repl -->
<g id="node19" class="node">
<title>repl</title>
<g id="a_node19"><a xlink:href="repl.md" xlink:title="repl.md">
<ellipse fill="#eee8aa" stroke="#000000" cx="2657" cy="-1412" rx="37.8963" ry="22.7556"/>
<text text-anchor="middle" x="2657" y="-1404.8" font-family="Times,serif" font-size="24.00" fill="#000000">repl</text>
</a>
</g>
</g>
<!-- repl&#45;&gt;regexes -->
<g id="edge142" class="edge">
<title>repl&#45;&gt;regexes</title>
<path fill="none" stroke="#000000" d="M2663.9457,-1389.6439C2670.1376,-1368.8599 2678.9758,-1336.9355 2684,-1308.6274 2733.7694,-1028.212 2761.2093,-954.4524 2741,-670.3726 2736.7671,-610.8714 2750.4709,-589.9269 2722,-537.5083 2705.0473,-506.2961 2675.1174,-479.9524 2649.1462,-461.2728"/>
<polygon fill="#000000" stroke="#000000" points="2651.0736,-458.3497 2640.8746,-455.4808 2647.0585,-464.0837 2651.0736,-458.3497"/>
</g>
<!-- repl&#45;&gt;env -->
<g id="edge136" class="edge">
<title>repl&#45;&gt;env</title>
<path fill="none" stroke="#000000" d="M2620.1508,-1407.2034C2575.7709,-1401.4519 2498.9559,-1391.5777 2433,-1383.5083 2341.3858,-1372.2996 865.2477,-1231.5096 783,-1189.6274 591.6026,-1092.1641 502.0579,-819.5323 476.2148,-725.4278"/>
<polygon fill="#000000" stroke="#000000" points="479.5529,-724.3632 473.575,-715.6159 472.7933,-726.1819 479.5529,-724.3632"/>
</g>
<!-- repl&#45;&gt;startingvars -->
<g id="edge140" class="edge">
<title>repl&#45;&gt;startingvars</title>
<path fill="none" stroke="#000000" d="M2620.2007,-1406.759C2575.8694,-1400.575 2499.1018,-1390.2801 2433,-1383.5083 2003.7467,-1339.5331 1489.949,-1305.3106 1278.3916,-1292.0156"/>
<polygon fill="#000000" stroke="#000000" points="1278.4418,-1288.5119 1268.2423,-1291.3793 1278.0037,-1295.4982 1278.4418,-1288.5119"/>
</g>
<!-- repl&#45;&gt;variables -->
<g id="edge145" class="edge">
<title>repl&#45;&gt;variables</title>
<path fill="none" stroke="#000000" d="M2652.3807,-1389.4714C2645.8741,-1359.8024 2632.6814,-1306.3624 2614,-1263.3726 2516.2127,-1038.3434 2493.5548,-973.1562 2331,-789.3726 2306.7375,-761.9415 2273.7998,-736.7655 2247.9692,-719.0295"/>
<polygon fill="#000000" stroke="#000000" points="2249.7494,-716.0082 2239.5045,-713.3074 2245.829,-721.8075 2249.7494,-716.0082"/>
</g>
<!-- repl&#45;&gt;vartypes -->
<g id="edge137" class="edge">
<title>repl&#45;&gt;vartypes</title>
<path fill="none" stroke="#000000" d="M2638.0121,-1392.2721C2560.1498,-1311.9234 2256.0471,-1003.4432 1973,-789.3726 1865.8398,-708.3265 1728.398,-628.9874 1658.7537,-590.3437"/>
<polygon fill="#000000" stroke="#000000" points="1660.2369,-587.1644 1649.792,-585.3883 1656.8495,-593.2903 1660.2369,-587.1644"/>
</g>
<!-- repl&#45;&gt;warnings -->
<g id="edge135" class="edge">
<title>repl&#45;&gt;warnings</title>
<path fill="none" stroke="#000000" d="M2675.1677,-1391.9869C2746.5655,-1311.178 3004,-998.6201 3004,-693 3004,-693 3004,-693 3004,-431 3004,-240.0322 2317.5114,-191.3334 2075.3444,-180.0953"/>
<polygon fill="#000000" stroke="#000000" points="2075.3362,-176.5914 2065.1876,-179.6339 2075.0185,-183.5842 2075.3362,-176.5914"/>
</g>
<!-- repl&#45;&gt;args -->
<g id="edge138" class="edge">
<title>repl&#45;&gt;args</title>
<path fill="none" stroke="#000000" d="M2620.781,-1405.3118C2404.4743,-1364.8819 1283.1116,-1148.3251 999,-952.6274 830.8178,-836.7826 879.4513,-726.4701 802,-537.5083 791.4606,-511.7948 778.453,-483.0958 768.6383,-461.9729"/>
<polygon fill="#000000" stroke="#000000" points="771.7757,-460.4194 764.3739,-452.8389 765.4329,-463.3807 771.7757,-460.4194"/>
</g>
<!-- repl&#45;&gt;opresultwarn -->
<g id="edge139" class="edge">
<title>repl&#45;&gt;opresultwarn</title>
<path fill="none" stroke="#000000" d="M2669.24,-1390.4716C2704.859,-1326.4115 2808.0769,-1130.4005 2842,-952.6274 2889.7511,-702.3895 2889.777,-548.4923 2681,-402.5083 2603.9232,-348.6135 1981.2952,-318.2901 1725.8004,-308.013"/>
<polygon fill="#000000" stroke="#000000" points="1725.8909,-304.5139 1715.7591,-307.6118 1725.6114,-311.5083 1725.8909,-304.5139"/>
</g>
<!-- repl&#45;&gt;messages -->
<g id="edge143" class="edge">
<title>repl&#45;&gt;messages</title>
<path fill="none" stroke="#000000" d="M2694.4763,-1408.4913C2849.685,-1392.947 3434,-1324.0016 3434,-1167 3434,-1167 3434,-1167 3434,-304 3434,-216.7058 3390.9434,-189.7393 3314,-148.5083 3189.5816,-81.8371 2211.5831,-52.1058 1898.2387,-44.2278"/>
<polygon fill="#000000" stroke="#000000" points="1897.9055,-40.7185 1887.8212,-43.9678 1897.7308,-47.7163 1897.9055,-40.7185"/>
</g>
<!-- repl&#45;&gt;matches -->
<g id="edge141" class="edge">
<title>repl&#45;&gt;matches</title>
<path fill="none" stroke="#000000" d="M2659.9271,-1389.4145C2665.2568,-1346.273 2676,-1249.1252 2676,-1167 2676,-1167 2676,-1167 2676,-1049 2676,-985.1571 2683.3326,-962.998 2652,-907.3726 2606.6449,-826.8527 2382.91,-658.0033 2293.7582,-592.6374"/>
<polygon fill="#000000" stroke="#000000" points="2295.6987,-589.7205 2285.5612,-586.6412 2291.5658,-595.3702 2295.6987,-589.7205"/>
</g>
<!-- repl&#45;&gt;runCommand -->
<g id="edge144" class="edge">
<title>repl&#45;&gt;runCommand</title>
<path fill="none" stroke="#000000" d="M2625.3809,-1399.2877C2560.8045,-1373.3725 2409.0493,-1312.7134 2281,-1263.3726 2096.7949,-1192.3935 1878.0595,-1111.1047 1772.7773,-1072.165"/>
<polygon fill="#000000" stroke="#000000" points="1773.8465,-1068.8288 1763.2533,-1068.6435 1771.4188,-1075.3943 1773.8465,-1068.8288"/>
</g>
<!-- runner -->
<g id="node20" class="node">
<title>runner</title>
<g id="a_node20"><a xlink:href="runner.md" xlink:title="runner.md">
<polygon fill="#98fb98" stroke="#000000" points="3053.3608,-1537.8581 3053.3608,-1558.1419 3018.0023,-1572.4846 2967.9977,-1572.4846 2932.6392,-1558.1419 2932.6392,-1537.8581 2967.9977,-1523.5154 3018.0023,-1523.5154 3053.3608,-1537.8581"/>
<polygon fill="none" stroke="#000000" points="3057.3724,-1535.1681 3057.3724,-1560.8319 3018.7872,-1576.4835 2967.2128,-1576.4835 2928.6276,-1560.8319 2928.6276,-1535.1681 2967.2128,-1519.5165 3018.7872,-1519.5165 3057.3724,-1535.1681"/>
<text text-anchor="middle" x="2993" y="-1540.8" font-family="Times,serif" font-size="24.00" fill="#000000">runner</text>
</a>
</g>
</g>
<!-- statictea -->
<g id="node21" class="node">
<title>statictea</title>
<g id="a_node21"><a xlink:href="statictea.md" xlink:title="statictea.md">
<polygon fill="#eee8aa" stroke="#000000" points="2745.0958,-1539.3667 2828,-1520.0619 2910.9042,-1539.3667 2910.8268,-1570.6024 2745.1732,-1570.6024 2745.0958,-1539.3667"/>
<text text-anchor="middle" x="2828" y="-1540.8" font-family="Times,serif" font-size="24.00" fill="#000000">statictea</text>
</a>
</g>
</g>
<!-- statictea&#45;&gt;env -->
<g id="edge133" class="edge">
<title>statictea&#45;&gt;env</title>
<path fill="none" stroke="#000000" d="M2745.0711,-1547.0221C2318.5042,-1541.1378 384.7898,-1503.7787 214,-1308.6274 49.0268,-1120.1225 345.227,-809.7375 440.1602,-718.7923"/>
<polygon fill="#000000" stroke="#000000" points="442.8376,-721.0763 447.6747,-711.6501 438.0151,-716.0025 442.8376,-721.0763"/>
</g>
<!-- statictea&#45;&gt;updateTemplate -->
<g id="edge128" class="edge">
<title>statictea&#45;&gt;updateTemplate</title>
<path fill="none" stroke="#000000" d="M2771.0342,-1533.1867C2677.7123,-1508.9195 2491.994,-1460.6256 2385.3367,-1432.8906"/>
<polygon fill="#000000" stroke="#000000" points="2386.143,-1429.484 2375.584,-1430.3545 2384.3813,-1436.2586 2386.143,-1429.484"/>
</g>
<!-- statictea&#45;&gt;repl -->
<g id="edge146" class="edge">
<title>statictea&#45;&gt;repl</title>
<path fill="none" stroke="#000000" d="M2800.5259,-1526.1492C2769.7598,-1501.6803 2720.0141,-1462.1165 2687.9128,-1436.5857"/>
<polygon fill="#000000" stroke="#000000" points="2689.761,-1433.5835 2679.7558,-1430.0982 2685.4037,-1439.0621 2689.761,-1433.5835"/>
</g>
<!-- gethelp -->
<g id="node22" class="node">
<title>gethelp</title>
<g id="a_node22"><a xlink:href="gethelp.md" xlink:title="gethelp.md">
<polygon fill="#98fb98" stroke="#000000" points="3206.1349,-1401.8581 3206.1349,-1422.1419 3167.394,-1436.4846 3112.606,-1436.4846 3073.8651,-1422.1419 3073.8651,-1401.8581 3112.606,-1387.5154 3167.394,-1387.5154 3206.1349,-1401.8581"/>
<polygon fill="none" stroke="#000000" points="3210.1242,-1399.0722 3210.1242,-1424.9278 3168.1071,-1440.4835 3111.8929,-1440.4835 3069.8758,-1424.9278 3069.8758,-1399.0722 3111.8929,-1383.5165 3168.1071,-1383.5165 3210.1242,-1399.0722"/>
<text text-anchor="middle" x="3140" y="-1404.8" font-family="Times,serif" font-size="24.00" fill="#000000">gethelp</text>
</a>
</g>
</g>
<!-- statictea&#45;&gt;gethelp -->
<g id="edge131" class="edge">
<title>statictea&#45;&gt;gethelp</title>
<path fill="none" stroke="#000000" d="M2870.0777,-1529.6584C2924.898,-1505.7624 3020.988,-1463.877 3082.5003,-1437.064"/>
<polygon fill="#000000" stroke="#000000" points="3083.9214,-1440.2627 3091.6898,-1433.0583 3081.1242,-1433.8458 3083.9214,-1440.2627"/>
</g>
<!-- statictea&#45;&gt;args -->
<g id="edge129" class="edge">
<title>statictea&#45;&gt;args</title>
<path fill="none" stroke="#000000" d="M2745.1362,-1546.3287C2345.4596,-1538 626.6022,-1499.0338 395,-1440.4917 242.274,-1401.8872 76,-1443.5295 76,-1286 76,-1286 76,-1286 76,-812 76,-674.4412 108.9542,-620.0451 219,-537.5083 295.9447,-479.798 587.5923,-446.6153 704.7969,-435.369"/>
<polygon fill="#000000" stroke="#000000" points="705.296,-438.8374 714.9216,-434.4105 704.6363,-431.8686 705.296,-438.8374"/>
</g>
<!-- statictea&#45;&gt;opresultwarn -->
<g id="edge134" class="edge">
<title>statictea&#45;&gt;opresultwarn</title>
<path fill="none" stroke="#000000" d="M2846.3161,-1524.2296C2878.5412,-1479.9572 2942,-1380.7463 2942,-1286 2942,-1286 2942,-1286 2942,-1049 2942,-746.4771 2997.7831,-541.3455 2729,-402.5083 2641.2226,-357.1677 1987.8273,-321.5606 1725.5152,-308.9455"/>
<polygon fill="#000000" stroke="#000000" points="1725.3696,-305.4346 1715.2137,-308.4523 1725.0348,-312.4266 1725.3696,-305.4346"/>
</g>
<!-- statictea&#45;&gt;messages -->
<g id="edge130" class="edge">
<title>statictea&#45;&gt;messages</title>
<path fill="none" stroke="#000000" d="M2878.9819,-1531.7937C2892.2991,-1527.6751 2906.6598,-1523.3348 2920,-1519.5083 3176.0555,-1446.0602 3472,-1552.3814 3472,-1286 3472,-1286 3472,-1286 3472,-304 3472,-221.1058 3440.6552,-190.1852 3369,-148.5083 3242.0293,-74.658 2218.6691,-49.6709 1897.8356,-43.6103"/>
<polygon fill="#000000" stroke="#000000" points="1897.6982,-40.1072 1887.6345,-43.4195 1897.5673,-47.106 1897.6982,-40.1072"/>
</g>
<!-- statictea&#45;&gt;version -->
<g id="edge132" class="edge">
<title>statictea&#45;&gt;version</title>
<path fill="none" stroke="#000000" d="M2828,-1519.6975C2828,-1471.6513 2828,-1371.059 2828,-1286 2828,-1286 2828,-1286 2828,-930 2828,-804.8533 2803.0395,-763.1038 2719,-670.3726 2699.174,-648.4961 2632.5963,-614.8453 2583.1528,-591.6998"/>
<polygon fill="#000000" stroke="#000000" points="2584.3671,-588.4046 2573.8237,-587.3616 2581.4154,-594.7519 2584.3671,-588.4046"/>
</g>
<!-- timer -->
<g id="node31" class="node">
<title>timer</title>
<g id="a_node31"><a xlink:href="timer.md" xlink:title="timer.md">
<polygon fill="#98fb98" stroke="#000000" points="3606.0202,-1401.8581 3606.0202,-1422.1419 3576.1333,-1436.4846 3533.8667,-1436.4846 3503.9798,-1422.1419 3503.9798,-1401.8581 3533.8667,-1387.5154 3576.1333,-1387.5154 3606.0202,-1401.8581"/>
<polygon fill="none" stroke="#000000" points="3610.021,-1399.3422 3610.021,-1424.6578 3577.044,-1440.4835 3532.956,-1440.4835 3499.979,-1424.6578 3499.979,-1399.3422 3532.956,-1383.5165 3577.044,-1383.5165 3610.021,-1399.3422"/>
<text text-anchor="middle" x="3555" y="-1404.8" font-family="Times,serif" font-size="24.00" fill="#000000">timer</text>
</a>
</g>
</g>
<!-- statictea&#45;&gt;timer -->
<g id="edge147" class="edge">
<title>statictea&#45;&gt;timer</title>
<path fill="none" stroke="#000000" d="M2876.7831,-1531.2851C2890.629,-1526.9813 2905.8021,-1522.676 2920,-1519.5083 3167.8999,-1464.1987 3240.8814,-1507.053 3486,-1440.4917 3491.769,-1438.9252 3497.6991,-1436.9982 3503.545,-1434.8915"/>
<polygon fill="#000000" stroke="#000000" points="3505.1504,-1438.026 3513.2603,-1431.2084 3502.669,-1431.4806 3505.1504,-1438.026"/>
</g>
<!-- parseCommandLine -->
<g id="node32" class="node">
<title>parseCommandLine</title>
<g id="a_node32"><a xlink:href="parseCommandLine.md" xlink:title="parseCommandLine.md">
<ellipse fill="#eee8aa" stroke="#000000" cx="3181" cy="-693" rx="148.8522" ry="22.7556"/>
<text text-anchor="middle" x="3181" y="-685.8" font-family="Times,serif" font-size="24.00" fill="#000000">parseCommandLine</text>
</a>
</g>
</g>
<!-- statictea&#45;&gt;parseCommandLine -->
<g id="edge14" class="edge">
<title>statictea&#45;&gt;parseCommandLine</title>
<path fill="none" stroke="#000000" d="M2861.9089,-1527.9042C2922.2511,-1489.2826 3042,-1398.4696 3042,-1286 3042,-1286 3042,-1286 3042,-930 3042,-845.6275 3108.3578,-764.7048 3149.3752,-722.7436"/>
<polygon fill="#000000" stroke="#000000" points="3151.8967,-725.1717 3156.4696,-715.6145 3146.9349,-720.234 3151.8967,-725.1717"/>
</g>
<!-- processTemplate -->
<g id="node33" class="node">
<title>processTemplate</title>
<g id="a_node33"><a xlink:href="processTemplate.md" xlink:title="processTemplate.md">
<ellipse fill="#eee8aa" stroke="#000000" cx="1334" cy="-1412" rx="125.2054" ry="22.7556"/>
<text text-anchor="middle" x="1334" y="-1404.8" font-family="Times,serif" font-size="24.00" fill="#000000">processTemplate</text>
</a>
</g>
</g>
<!-- statictea&#45;&gt;processTemplate -->
<g id="edge115" class="edge">
<title>statictea&#45;&gt;processTemplate</title>
<path fill="none" stroke="#000000" d="M2745.2803,-1540.47C2495.9963,-1517.7774 1751.081,-1449.9672 1456.1645,-1423.1207"/>
<polygon fill="#000000" stroke="#000000" points="1456.1409,-1419.6042 1445.8648,-1422.1831 1455.5063,-1426.5754 1456.1409,-1419.6042"/>
</g>
<!-- comparelines -->
<g id="node23" class="node">
<title>comparelines</title>
<g id="a_node23"><a xlink:href="comparelines.md" xlink:title="comparelines.md">
<polygon fill="#98fb98" stroke="#000000" points="3299.3362,-1537.8581 3299.3362,-1558.1419 3234.7028,-1572.4846 3143.2972,-1572.4846 3078.6638,-1558.1419 3078.6638,-1537.8581 3143.2972,-1523.5154 3234.7028,-1523.5154 3299.3362,-1537.8581"/>
<polygon fill="none" stroke="#000000" points="3303.3422,-1534.6506 3303.3422,-1561.3494 3235.1427,-1576.4835 3142.8573,-1576.4835 3074.6578,-1561.3494 3074.6578,-1534.6506 3142.8573,-1519.5165 3235.1427,-1519.5165 3303.3422,-1534.6506"/>
<text text-anchor="middle" x="3189" y="-1540.8" font-family="Times,serif" font-size="24.00" fill="#000000">comparelines</text>
</a>
</g>
</g>
<!-- signatures&#45;&gt;vartypes -->
<g id="edge64" class="edge">
<title>signatures&#45;&gt;vartypes</title>
<path fill="none" stroke="#000000" d="M1392.3633,-673.4346C1439.1564,-650.7525 1516.2117,-613.4012 1566.0241,-589.2555"/>
<polygon fill="#000000" stroke="#000000" points="1567.8284,-592.2705 1575.3003,-584.759 1564.775,-585.9715 1567.8284,-592.2705"/>
</g>
<!-- signatures&#45;&gt;messages -->
<g id="edge65" class="edge">
<title>signatures&#45;&gt;messages</title>
<path fill="none" stroke="#000000" d="M1334.534,-670.6266C1302.3631,-627.1015 1237,-526.8726 1237,-431 1237,-431 1237,-431 1237,-304 1237,-284.9594 1231.0781,-239.5945 1393,-148.5083 1491.5785,-93.0547 1619.7318,-65.7659 1706.1024,-52.8294"/>
<polygon fill="#000000" stroke="#000000" points="1706.772,-56.2688 1716.1608,-51.3594 1705.7597,-49.3424 1706.772,-56.2688"/>
</g>
<!-- args&#45;&gt;warnings -->
<g id="edge3" class="edge">
<title>args&#45;&gt;warnings</title>
<path fill="none" stroke="#000000" d="M780.6489,-414.1811C788.8264,-409.715 798.0377,-405.3499 807,-402.5083 1073.7313,-317.9372 1182.0035,-452.324 1432,-326.6274 1456.788,-314.1642 1450.7194,-294.7975 1475,-281.3726 1549.5106,-240.1751 1788.5837,-203.7549 1913.8175,-186.9108"/>
<polygon fill="#000000" stroke="#000000" points="1914.2876,-190.3792 1923.736,-185.5857 1913.3606,-183.4408 1914.2876,-190.3792"/>
</g>
<!-- args&#45;&gt;opresultwarn -->
<g id="edge6" class="edge">
<title>args&#45;&gt;opresultwarn</title>
<path fill="none" stroke="#000000" d="M787.3188,-418.9695C804.3727,-413.2225 825.5814,-406.7001 845,-402.5083 1116.3611,-343.9302 1189.9061,-363.931 1465,-326.6274 1484.1364,-324.0325 1504.6029,-321.096 1524.1176,-318.2186"/>
<polygon fill="#000000" stroke="#000000" points="1524.8446,-321.6492 1534.2237,-316.7214 1523.8187,-314.7247 1524.8446,-321.6492"/>
</g>
<!-- args&#45;&gt;messages -->
<g id="edge1" class="edge">
<title>args&#45;&gt;messages</title>
<path fill="none" stroke="#000000" d="M771.971,-410.7099C820.3849,-357.5229 959.9832,-213.6873 1109,-148.5083 1214.4133,-102.4011 1542.0366,-66.31 1706.208,-50.5847"/>
<polygon fill="#000000" stroke="#000000" points="1706.6781,-54.0559 1716.3014,-49.6239 1706.0147,-47.0874 1706.6781,-54.0559"/>
</g>
<!-- opresultwarn&#45;&gt;warnings -->
<g id="edge4" class="edge">
<title>opresultwarn&#45;&gt;warnings</title>
<path fill="none" stroke="#000000" d="M1672.7364,-285.124C1742.4979,-261.498 1861.4662,-221.2075 1932.8084,-197.0462"/>
<polygon fill="#000000" stroke="#000000" points="1934.2001,-200.2702 1942.5489,-193.7474 1931.9546,-193.6401 1934.2001,-200.2702"/>
</g>
<!-- opresultwarn&#45;&gt;opresult -->
<g id="edge5" class="edge">
<title>opresultwarn&#45;&gt;opresult</title>
<path fill="none" stroke="#000000" d="M1601.9994,-281.5873C1589.5453,-262.9794 1571.57,-236.1223 1556.9534,-214.2834"/>
<polygon fill="#000000" stroke="#000000" points="1559.8018,-212.2465 1551.331,-205.8828 1553.9845,-216.14 1559.8018,-212.2465"/>
</g>
<!-- matches&#45;&gt;regexes -->
<g id="edge12" class="edge">
<title>matches&#45;&gt;regexes</title>
<path fill="none" stroke="#000000" d="M2300.7896,-548.765C2361.1609,-525.0037 2470.2424,-482.0708 2538.6959,-455.1285"/>
<polygon fill="#000000" stroke="#000000" points="2540.0526,-458.3558 2548.076,-451.4366 2537.4889,-451.8422 2540.0526,-458.3558"/>
</g>
<!-- matches&#45;&gt;args -->
<g id="edge11" class="edge">
<title>matches&#45;&gt;args</title>
<path fill="none" stroke="#000000" d="M2192.74,-559.4649C2134.1868,-553.5577 2045.3072,-544.71 1968,-537.5083 1515.7904,-495.3815 968.3685,-449.0151 803.3676,-435.1393"/>
<polygon fill="#000000" stroke="#000000" points="803.3155,-431.6227 793.0574,-434.2727 802.7291,-438.5981 803.3155,-431.6227"/>
</g>
<!-- readjson&#45;&gt;unicodes -->
<g id="edge81" class="edge">
<title>readjson&#45;&gt;unicodes</title>
<path fill="none" stroke="#000000" d="M1027.0176,-789.8959C1042.3986,-771.0264 1064.658,-743.7185 1081.6287,-722.8988"/>
<polygon fill="#000000" stroke="#000000" points="1084.4736,-724.9483 1088.0789,-714.9857 1079.0477,-720.5255 1084.4736,-724.9483"/>
</g>
<!-- readjson&#45;&gt;vartypes -->
<g id="edge79" class="edge">
<title>readjson&#45;&gt;vartypes</title>
<path fill="none" stroke="#000000" d="M1050.7936,-793.9651C1088.3484,-776.7242 1144.0354,-748.5331 1187,-715.6274 1209.0269,-698.7575 1206.1769,-684.5936 1230,-670.3726 1327.1347,-612.3889 1457.1149,-585.8798 1538.1814,-574.3037"/>
<polygon fill="#000000" stroke="#000000" points="1538.8839,-577.7399 1548.3082,-572.8991 1537.9221,-570.8063 1538.8839,-577.7399"/>
</g>
<!-- readjson&#45;&gt;utf8decoder -->
<g id="edge82" class="edge">
<title>readjson&#45;&gt;utf8decoder</title>
<path fill="none" stroke="#000000" d="M991.7961,-789.7297C978.5507,-771.09 961.3104,-743.1855 954,-715.6274 943.9703,-677.8183 957.459,-634.4011 970.8776,-604.1084"/>
<polygon fill="#000000" stroke="#000000" points="974.181,-605.3036 975.2019,-594.758 967.8275,-602.3652 974.181,-605.3036"/>
</g>
<!-- readjson&#45;&gt;opresultwarn -->
<g id="edge83" class="edge">
<title>readjson&#45;&gt;opresultwarn</title>
<path fill="none" stroke="#000000" d="M1006.0383,-789.3111C1003.3386,-759.703 1002.6554,-707.3206 1025,-670.3726 1056.1146,-618.9229 1087.4886,-628.6064 1137,-594.4917 1259.444,-510.1246 1282.6004,-477.5009 1411,-402.5083 1459.851,-373.9765 1518.2526,-346.6433 1560.3763,-328.0387"/>
<polygon fill="#000000" stroke="#000000" points="1561.8937,-331.1951 1569.6433,-323.9705 1559.0799,-324.7855 1561.8937,-331.1951"/>
</g>
<!-- readjson&#45;&gt;messages -->
<g id="edge80" class="edge">
<title>readjson&#45;&gt;messages</title>
<path fill="none" stroke="#000000" d="M1002.1373,-789.278C994.6647,-760.0923 986.114,-708.6437 1005,-670.3726 1029.5329,-620.6584 1076.6339,-642.7044 1104,-594.4917 1140.1104,-530.8737 1123,-504.152 1123,-431 1123,-431 1123,-431 1123,-304 1123,-220.3621 1158.9538,-194.212 1229,-148.5083 1306.2716,-98.0901 1564.2485,-65.4536 1706.2479,-50.8512"/>
<polygon fill="#000000" stroke="#000000" points="1706.6734,-54.326 1716.2673,-49.8309 1705.9642,-47.362 1706.6734,-54.326"/>
</g>
<!-- parseCommandLine&#45;&gt;cmdline -->
<g id="edge10" class="edge">
<title>parseCommandLine&#45;&gt;cmdline</title>
<path fill="none" stroke="#000000" d="M3174.5639,-670.2949C3169.396,-652.0635 3162.0226,-626.0518 3155.9324,-604.567"/>
<polygon fill="#000000" stroke="#000000" points="3159.2439,-603.4152 3153.1493,-594.7488 3152.5092,-605.3243 3159.2439,-603.4152"/>
</g>
<!-- parseCommandLine&#45;&gt;warnings -->
<g id="edge9" class="edge">
<title>parseCommandLine&#45;&gt;warnings</title>
<path fill="none" stroke="#000000" d="M3141.0499,-671.1216C3113.8261,-653.9877 3079.4859,-627.5435 3061,-594.4917 2992.4309,-471.8942 3119.055,-378.9418 3018,-281.3726 2950.6141,-216.3111 2307.8181,-187.8748 2075.3633,-179.6605"/>
<polygon fill="#000000" stroke="#000000" points="2075.3878,-176.1593 2065.2715,-179.3075 2075.143,-183.155 2075.3878,-176.1593"/>
</g>
<!-- parseCommandLine&#45;&gt;args -->
<g id="edge7" class="edge">
<title>parseCommandLine&#45;&gt;args</title>
<path fill="none" stroke="#000000" d="M3120.5276,-672.2287C3016.5871,-637.5377 2796.7134,-568.5594 2605,-537.5083 2243.2179,-478.9118 1060.4507,-440.2862 803.5347,-432.467"/>
<polygon fill="#000000" stroke="#000000" points="803.4908,-428.9642 793.3894,-432.1597 803.2787,-435.961 803.4908,-428.9642"/>
</g>
<!-- parseCommandLine&#45;&gt;messages -->
<g id="edge8" class="edge">
<title>parseCommandLine&#45;&gt;messages</title>
<path fill="none" stroke="#000000" d="M3194.753,-670.4065C3205.8864,-650.9934 3220.989,-621.8808 3229,-594.4917 3249.5358,-524.2814 3248,-504.152 3248,-431 3248,-431 3248,-431 3248,-304 3248,-206.735 3182.1561,-189.6056 3094,-148.5083 2986.4501,-98.3697 2179.2807,-58.5577 1898.1795,-46.0848"/>
<polygon fill="#000000" stroke="#000000" points="1898.1462,-42.58 1888.0013,-45.6349 1897.837,-49.5732 1898.1462,-42.58"/>
</g>
<!-- parseCommandLine&#45;&gt;matches -->
<g id="edge13" class="edge">
<title>parseCommandLine&#45;&gt;matches</title>
<path fill="none" stroke="#000000" d="M3067.4436,-678.3124C2923.1401,-659.5209 2666.4243,-625.6661 2447,-594.4917 2407.7764,-588.9191 2364.0494,-582.3842 2328.4412,-576.9796"/>
<polygon fill="#000000" stroke="#000000" points="2328.5584,-573.4573 2318.1458,-575.4142 2327.506,-580.3777 2328.5584,-573.4573"/>
</g>
<!-- processTemplate&#45;&gt;parseCmdLine -->
<g id="edge30" class="edge">
<title>processTemplate&#45;&gt;parseCmdLine</title>
<path fill="none" stroke="#000000" d="M1455.3074,-1406.3218C1655.1621,-1395.4193 2043.7985,-1367.2491 2167,-1308.6274 2373.3538,-1210.4402 2424.7696,-1151.1255 2538,-952.6274 2580.0872,-878.8466 2593.1795,-777.4843 2597.2199,-725.959"/>
<polygon fill="#000000" stroke="#000000" points="2600.7278,-725.973 2597.9519,-715.7483 2593.7457,-725.4724 2600.7278,-725.973"/>
</g>
<!-- processTemplate&#45;&gt;env -->
<g id="edge22" class="edge">
<title>processTemplate&#45;&gt;env</title>
<path fill="none" stroke="#000000" d="M1211.5984,-1407.3215C971.399,-1396.8777 456.9515,-1367.7908 404,-1308.6274 250.0915,-1136.6636 337.321,-1010.3099 404,-789.3726 411.7498,-763.6941 428.8307,-738.5803 443.3983,-720.4301"/>
<polygon fill="#000000" stroke="#000000" points="446.1951,-722.5402 449.8721,-712.6039 440.8013,-718.0785 446.1951,-722.5402"/>
</g>
<!-- processTemplate&#45;&gt;startingvars -->
<g id="edge113" class="edge">
<title>processTemplate&#45;&gt;startingvars</title>
<path fill="none" stroke="#000000" d="M1306.8224,-1389.7638C1281.1233,-1368.7372 1242.4483,-1337.0941 1214.5667,-1314.2818"/>
<polygon fill="#000000" stroke="#000000" points="1216.6042,-1311.4267 1206.6483,-1307.8031 1212.1715,-1316.8444 1216.6042,-1311.4267"/>
</g>
<!-- processTemplate&#45;&gt;variables -->
<g id="edge92" class="edge">
<title>processTemplate&#45;&gt;variables</title>
<path fill="none" stroke="#000000" d="M1452.3118,-1404.5312C1556.6834,-1394.0479 1710.501,-1368.8967 1831,-1308.6274 2063.3369,-1192.4207 2076.2202,-1075.7044 2173,-834.6274 2187.4311,-798.6799 2196.7657,-755.0411 2201.9359,-725.7876"/>
<polygon fill="#000000" stroke="#000000" points="2205.4249,-726.1474 2203.654,-715.7017 2198.5243,-724.9719 2205.4249,-726.1474"/>
</g>
<!-- processTemplate&#45;&gt;vartypes -->
<g id="edge93" class="edge">
<title>processTemplate&#45;&gt;vartypes</title>
<path fill="none" stroke="#000000" d="M1334,-1389.3691C1334,-1346.151 1334,-1248.8793 1334,-1167 1334,-1167 1334,-1167 1334,-930 1334,-864.2401 1340.9892,-842.3114 1380,-789.3726 1413.6144,-743.7567 1442.0086,-753.6729 1484,-715.6274 1525.5522,-677.9799 1566.8742,-627.6408 1591.4258,-596.0175"/>
<polygon fill="#000000" stroke="#000000" points="1594.264,-598.0684 1597.5942,-588.0105 1588.7187,-593.7964 1594.264,-598.0684"/>
</g>
<!-- processTemplate&#45;&gt;replacement -->
<g id="edge94" class="edge">
<title>processTemplate&#45;&gt;replacement</title>
<path fill="none" stroke="#000000" d="M1423.1608,-1396.0549C1594.7275,-1362.8238 1954,-1279.7724 1954,-1167 1954,-1167 1954,-1167 1954,-1049 1954,-971.5657 1913.6705,-887.6534 1888.9003,-843.4175"/>
<polygon fill="#000000" stroke="#000000" points="1891.8647,-841.5503 1883.8709,-834.5969 1885.7837,-845.0176 1891.8647,-841.5503"/>
</g>
<!-- processTemplate&#45;&gt;readlines -->
<g id="edge24" class="edge">
<title>processTemplate&#45;&gt;readlines</title>
<path fill="none" stroke="#000000" d="M1213.1331,-1406.143C988.7093,-1394.0232 525.9432,-1362.7087 478,-1308.6274 287.7071,-1093.9718 418.2059,-911.239 574,-670.3726 594.069,-639.3448 626.6603,-613.8635 654.9072,-595.8469"/>
<polygon fill="#000000" stroke="#000000" points="656.8693,-598.7484 663.5153,-590.4972 653.1744,-592.8029 656.8693,-598.7484"/>
</g>
<!-- processTemplate&#45;&gt;args -->
<g id="edge15" class="edge">
<title>processTemplate&#45;&gt;args</title>
<path fill="none" stroke="#000000" d="M1209.6689,-1409.1321C982.8511,-1402.2053 511.8349,-1379.5019 366,-1308.6274 286.9546,-1270.212 228,-1254.8858 228,-1167 228,-1167 228,-1167 228,-693 228,-623.0742 203.9568,-588.3164 252,-537.5083 313.8075,-472.1436 590.4879,-443.6264 704.5745,-434.4978"/>
<polygon fill="#000000" stroke="#000000" points="705.0764,-437.9693 714.7725,-433.699 704.5297,-430.9906 705.0764,-437.9693"/>
</g>
<!-- processTemplate&#45;&gt;opresultwarn -->
<g id="edge114" class="edge">
<title>processTemplate&#45;&gt;opresultwarn</title>
<path fill="none" stroke="#000000" d="M1212.2259,-1406.7156C950.453,-1394.4148 351.6387,-1360.8787 276,-1308.6274 175.3089,-1239.07 38,-934.3803 38,-812 38,-812 38,-812 38,-693 38,-514.9106 151.3366,-475.0097 314,-402.5083 541.4464,-301.1321 1184.1006,-350.1832 1432,-326.6274 1460.8149,-323.8894 1492.0807,-320.3021 1520.5663,-316.7933"/>
<polygon fill="#000000" stroke="#000000" points="1521.0253,-320.2632 1530.5175,-315.557 1520.1623,-313.3166 1521.0253,-320.2632"/>
</g>
<!-- processTemplate&#45;&gt;messages -->
<g id="edge16" class="edge">
<title>processTemplate&#45;&gt;messages</title>
<path fill="none" stroke="#000000" d="M1212.3689,-1406.6476C942.2494,-1393.9065 309.6225,-1359.031 227,-1308.6274 19.8209,-1182.2385 0,-1054.6877 0,-812 0,-812 0,-812 0,-304 0,-216.1599 44.266,-189.4144 122,-148.5083 262.227,-74.7163 1370.6188,-49.512 1706.1125,-43.5319"/>
<polygon fill="#000000" stroke="#000000" points="1706.3523,-47.0283 1716.2889,-43.3522 1706.2287,-40.0294 1706.3523,-47.0283"/>
</g>
<!-- processTemplate&#45;&gt;matches -->
<g id="edge23" class="edge">
<title>processTemplate&#45;&gt;matches</title>
<path fill="none" stroke="#000000" d="M1435.999,-1398.8055C1572.0734,-1380.1792 1804.9255,-1344.4357 1883,-1308.6274 1960.0345,-1273.2961 1976.3628,-1253.558 2032,-1189.6274 2112.3003,-1097.3572 2261.2353,-828.1897 2289,-715.6274 2298.9884,-675.1329 2284.688,-628.0274 2272.1348,-597.6521"/>
<polygon fill="#000000" stroke="#000000" points="2275.3235,-596.2075 2268.1535,-588.4075 2268.8944,-598.9764 2275.3235,-596.2075"/>
</g>
<!-- processTemplate&#45;&gt;runCommand -->
<g id="edge91" class="edge">
<title>processTemplate&#45;&gt;runCommand</title>
<path fill="none" stroke="#000000" d="M1357.2367,-1389.5667C1422.2734,-1326.7786 1606.1505,-1149.259 1679.3668,-1078.5741"/>
<polygon fill="#000000" stroke="#000000" points="1682.155,-1080.7473 1686.9184,-1071.2836 1677.293,-1075.7112 1682.155,-1080.7473"/>
</g>
<!-- runCommand&#45;&gt;runFunction -->
<g id="edge85" class="edge">
<title>runCommand&#45;&gt;runFunction</title>
<path fill="none" stroke="#000000" d="M1668.6219,-1028.1356C1628.226,-1007.7665 1566.7232,-976.7545 1523.6975,-955.0593"/>
<polygon fill="#000000" stroke="#000000" points="1525.0454,-951.8193 1514.5405,-950.442 1521.8937,-958.0696 1525.0454,-951.8193"/>
</g>
<!-- runCommand&#45;&gt;parseNumber -->
<g id="edge42" class="edge">
<title>runCommand&#45;&gt;parseNumber</title>
<path fill="none" stroke="#000000" d="M1688.5358,-1026.7479C1670.0653,-1007.4273 1642.8606,-978.557 1620,-952.6274 1587.3112,-915.5503 1551.1247,-871.5784 1527.7755,-842.7991"/>
<polygon fill="#000000" stroke="#000000" points="1530.2647,-840.3115 1521.2519,-834.7419 1524.8244,-844.7163 1530.2647,-840.3115"/>
</g>
<!-- runCommand&#45;&gt;regexes -->
<g id="edge33" class="edge">
<title>runCommand&#45;&gt;regexes</title>
<path fill="none" stroke="#000000" d="M1791.4261,-1034.7527C2011.3391,-994.4362 2608.1647,-872.2429 2719,-715.6274 2775.8515,-635.2936 2689.7813,-523.6431 2636.6705,-467.0203"/>
<polygon fill="#000000" stroke="#000000" points="2639.1628,-464.5623 2629.732,-459.7342 2634.0936,-469.3896 2639.1628,-464.5623"/>
</g>
<!-- runCommand&#45;&gt;parseCmdLine -->
<g id="edge90" class="edge">
<title>runCommand&#45;&gt;parseCmdLine</title>
<path fill="none" stroke="#000000" d="M1766.3186,-1029.8609C1820.8062,-1011.0827 1905.5504,-981.1864 1978,-952.6274 2149.0087,-885.2174 2188.2044,-859.7824 2358,-789.3726 2419.0712,-764.0479 2489.3006,-736.0962 2538.1309,-716.847"/>
<polygon fill="#000000" stroke="#000000" points="2539.5808,-720.0377 2547.6025,-713.1166 2537.0156,-713.5247 2539.5808,-720.0377"/>
</g>
<!-- runCommand&#45;&gt;env -->
<g id="edge34" class="edge">
<title>runCommand&#45;&gt;env</title>
<path fill="none" stroke="#000000" d="M1608.8773,-1043.0536C1421.0923,-1031.0178 1025.9775,-1000.752 898,-952.6274 777.9368,-907.4789 770.4645,-854.5735 660,-789.3726 608.4789,-758.9626 546.1413,-728.8247 506.77,-710.5571"/>
<polygon fill="#000000" stroke="#000000" points="507.8221,-707.188 497.2757,-706.1757 504.8889,-713.5438 507.8221,-707.188"/>
</g>
<!-- runCommand&#45;&gt;unicodes -->
<g id="edge88" class="edge">
<title>runCommand&#45;&gt;unicodes</title>
<path fill="none" stroke="#000000" d="M1629.3293,-1034.5043C1558.7385,-1019.8786 1454.6895,-993.5433 1371,-952.6274 1291.2988,-913.6615 1272.7606,-897.3309 1210,-834.6274 1175.8727,-800.5312 1144.2225,-754.5151 1125.0119,-724.3169"/>
<polygon fill="#000000" stroke="#000000" points="1127.745,-722.0879 1119.4604,-715.4836 1121.8182,-725.8127 1127.745,-722.0879"/>
</g>
<!-- runCommand&#45;&gt;variables -->
<g id="edge49" class="edge">
<title>runCommand&#45;&gt;variables</title>
<path fill="none" stroke="#000000" d="M1764.269,-1029.5581C1809.9493,-1012.1897 1876.2404,-984.5977 1930,-952.6274 2003.507,-908.9137 2019.652,-893.1671 2082,-834.6274 2120.0255,-798.9245 2159.0504,-752.9184 2183.1556,-723.1921"/>
<polygon fill="#000000" stroke="#000000" points="2185.9968,-725.2443 2189.5457,-715.2615 2180.546,-720.8523 2185.9968,-725.2443"/>
</g>
<!-- runCommand&#45;&gt;vartypes -->
<g id="edge38" class="edge">
<title>runCommand&#45;&gt;vartypes</title>
<path fill="none" stroke="#000000" d="M1703.8898,-1026.2836C1693.5355,-987.2862 1672.2772,-905.0001 1658,-834.6274 1640.8501,-750.0951 1625.7889,-649.5527 1618.5555,-598.798"/>
<polygon fill="#000000" stroke="#000000" points="1621.9999,-598.1577 1617.1329,-588.7469 1615.069,-599.1388 1621.9999,-598.1577"/>
</g>
<!-- runCommand&#45;&gt;readlines -->
<g id="edge31" class="edge">
<title>runCommand&#45;&gt;readlines</title>
<path fill="none" stroke="#000000" d="M1607.4909,-1044.2074C1436.411,-1034.7186 1101.3506,-1009.3437 999,-952.6274 853.7229,-872.1239 760.1716,-684.5363 725.3299,-603.9238"/>
<polygon fill="#000000" stroke="#000000" points="728.5128,-602.4649 721.3725,-594.6377 722.0732,-605.2093 728.5128,-602.4649"/>
</g>
<!-- runCommand&#45;&gt;utf8decoder -->
<g id="edge89" class="edge">
<title>runCommand&#45;&gt;utf8decoder</title>
<path fill="none" stroke="#000000" d="M1609.3462,-1042.637C1493.1486,-1032.8901 1297.6635,-1009.0416 1139,-952.6274 1038.8573,-917.0208 984.49,-926.4708 931,-834.6274 887.716,-760.3079 934.9502,-657.7124 966.8194,-603.3341"/>
<polygon fill="#000000" stroke="#000000" points="969.8466,-605.0916 971.9808,-594.7139 963.8408,-601.4956 969.8466,-605.0916"/>
</g>
<!-- runCommand&#45;&gt;warnings -->
<g id="edge40" class="edge">
<title>runCommand&#45;&gt;warnings</title>
<path fill="none" stroke="#000000" d="M1810.7272,-1042.7348C1982.5111,-1028.2643 2338.603,-981.5539 2597,-834.6274 2669.1739,-793.5888 2705.6298,-790.7419 2741,-715.6274 2800.6768,-588.8941 2786.1236,-516.7081 2705,-402.5083 2648.299,-322.6888 2611.6122,-318.4614 2521,-281.3726 2370.3509,-219.7098 2180.284,-193.6602 2073.8579,-183.2935"/>
<polygon fill="#000000" stroke="#000000" points="2074.1104,-179.8018 2063.8238,-182.3385 2073.4472,-186.7703 2074.1104,-179.8018"/>
</g>
<!-- runCommand&#45;&gt;opresultwarn -->
<g id="edge87" class="edge">
<title>runCommand&#45;&gt;opresultwarn</title>
<path fill="none" stroke="#000000" d="M1711.4043,-1026.3352C1715.4042,-954.2332 1724.5753,-723.9463 1692,-537.5083 1679.0547,-463.4182 1648.2662,-380.3987 1630.4215,-336.047"/>
<polygon fill="#000000" stroke="#000000" points="1633.617,-334.6134 1626.6082,-326.6681 1627.1325,-337.25 1633.617,-334.6134"/>
</g>
<!-- runCommand&#45;&gt;messages -->
<g id="edge39" class="edge">
<title>runCommand&#45;&gt;messages</title>
<path fill="none" stroke="#000000" d="M1803.7316,-1038.8406C1935.352,-1023.8662 2182.1308,-993.1998 2390,-952.6274 2496.67,-931.8073 3266.8321,-796.891 3339,-715.6274 3383.5128,-665.5045 3358,-633.0351 3358,-566 3358,-566 3358,-566 3358,-304 3358,-193.1535 3266.1182,-189.1726 3163,-148.5083 3046.0836,-102.4026 2188.5811,-59.5809 1897.9873,-46.2529"/>
<polygon fill="#000000" stroke="#000000" points="1898.0407,-42.7518 1887.8912,-45.7912 1897.7209,-49.7445 1898.0407,-42.7518"/>
</g>
<!-- runCommand&#45;&gt;matches -->
<g id="edge32" class="edge">
<title>runCommand&#45;&gt;matches</title>
<path fill="none" stroke="#000000" d="M1743.5178,-1027.3636C1786.6288,-999.5481 1863.8386,-949.7777 1930,-907.3726 1980.6019,-874.9401 2003.8973,-879.3956 2044,-834.6274 2098.3097,-773.9993 2073.8221,-733.6667 2125,-670.3726 2150.6362,-638.6671 2187.5516,-610.5109 2215.8289,-591.4573"/>
<polygon fill="#000000" stroke="#000000" points="2217.9013,-594.2828 2224.3053,-585.8424 2214.0356,-588.447 2217.9013,-594.2828"/>
</g>
<!-- runCommand&#45;&gt;readjson -->
<g id="edge86" class="edge">
<title>runCommand&#45;&gt;readjson</title>
<path fill="none" stroke="#000000" d="M1612.1064,-1040.7954C1511.4335,-1029.8209 1351.6283,-1005.256 1223,-952.6274 1153.3261,-924.1202 1082.1938,-871.797 1042.0169,-839.6373"/>
<polygon fill="#000000" stroke="#000000" points="1044.1423,-836.8549 1034.1645,-833.292 1039.7427,-842.2995 1044.1423,-836.8549"/>
</g>
</g>
</svg>
