<?xml version="1.0" encoding="UTF-8" standalone="no"?>
<!DOCTYPE svg PUBLIC "-//W3C//DTD SVG 1.1//EN"
 "http://www.w3.org/Graphics/SVG/1.1/DTD/svg11.dtd">
<!-- Generated by graphviz version 2.40.1 (20161225.0304)
 -->
<!-- Title: statictea Pages: 1 -->
<svg width="720pt" height="358pt"
 viewBox="0.00 0.00 720.00 357.85" xmlns="http://www.w3.org/2000/svg" xmlns:xlink="http://www.w3.org/1999/xlink">
<g id="graph0" class="graph" transform="scale(.2488 .2488) rotate(0) translate(4 1434.5544)">
<title>statictea</title>
<polygon fill="#ffffff" stroke="transparent" points="-4,4 -4,-1434.5544 2890.4243,-1434.5544 2890.4243,4 -4,4"/>
<!-- runFunction -->
<g id="node1" class="node">
<title>runFunction</title>
<g id="a_node1"><a xlink:href="runFunction.md" xlink:title="runFunction.md">
<ellipse fill="#eee8aa" stroke="#000000" cx="821" cy="-931" rx="94.055" ry="22.7556"/>
<text text-anchor="middle" x="821" y="-923.8" font-family="Times,serif" font-size="24.00" fill="#000000">runFunction</text>
</a>
</g>
</g>
<!-- parseNumber -->
<g id="node3" class="node">
<title>parseNumber</title>
<g id="a_node3"><a xlink:href="parseNumber.md" xlink:title="parseNumber.md">
<polygon fill="#98fb98" stroke="#000000" points="1090.3805,-763.8581 1090.3805,-784.1419 1025.1353,-798.4846 932.8647,-798.4846 867.6195,-784.1419 867.6195,-763.8581 932.8647,-749.5154 1025.1353,-749.5154 1090.3805,-763.8581"/>
<polygon fill="none" stroke="#000000" points="1094.3872,-760.6442 1094.3872,-787.3558 1025.5714,-802.4835 932.4286,-802.4835 863.6128,-787.3558 863.6128,-760.6442 932.4286,-745.5165 1025.5714,-745.5165 1094.3872,-760.6442"/>
<text text-anchor="middle" x="979" y="-766.8" font-family="Times,serif" font-size="24.00" fill="#000000">parseNumber</text>
</a>
</g>
</g>
<!-- runFunction&#45;&gt;parseNumber -->
<g id="edge55" class="edge">
<title>runFunction&#45;&gt;parseNumber</title>
<path fill="none" stroke="#000000" d="M843.3024,-908.8387C869.2114,-883.0937 912.3166,-840.2613 942.9895,-809.7826"/>
<polygon fill="#000000" stroke="#000000" points="945.4851,-812.2369 950.1116,-802.7056 940.551,-807.2715 945.4851,-812.2369"/>
</g>
<!-- regexes -->
<g id="node4" class="node">
<title>regexes</title>
<g id="a_node4"><a xlink:href="regexes.md" xlink:title="regexes.md">
<polygon fill="#98fb98" stroke="#000000" points="1550.187,-606.8581 1550.187,-627.1419 1510.244,-641.4846 1453.756,-641.4846 1413.813,-627.1419 1413.813,-606.8581 1453.756,-592.5154 1510.244,-592.5154 1550.187,-606.8581"/>
<polygon fill="none" stroke="#000000" points="1554.1781,-604.0434 1554.1781,-629.9566 1510.9376,-645.4835 1453.0624,-645.4835 1409.8219,-629.9566 1409.8219,-604.0434 1453.0624,-588.5165 1510.9376,-588.5165 1554.1781,-604.0434"/>
<text text-anchor="middle" x="1482" y="-609.8" font-family="Times,serif" font-size="24.00" fill="#000000">regexes</text>
</a>
</g>
</g>
<!-- runFunction&#45;&gt;regexes -->
<g id="edge54" class="edge">
<title>runFunction&#45;&gt;regexes</title>
<path fill="none" stroke="#000000" d="M817.8386,-908.309C813.7946,-869.3296 811.8189,-789.6003 855,-745.5083 892.9671,-706.7402 1238.0445,-652.3149 1399.4572,-628.6977"/>
<polygon fill="#000000" stroke="#000000" points="1400.4279,-632.0933 1409.8183,-627.1872 1399.418,-625.1665 1400.4279,-632.0933"/>
</g>
<!-- unicodes -->
<g id="node7" class="node">
<title>unicodes</title>
<g id="a_node7"><a xlink:href="unicodes.md" xlink:title="unicodes.md">
<polygon fill="#98fb98" stroke="#000000" points="1271.5805,-763.8581 1271.5805,-784.1419 1226.1349,-798.4846 1161.8651,-798.4846 1116.4195,-784.1419 1116.4195,-763.8581 1161.8651,-749.5154 1226.1349,-749.5154 1271.5805,-763.8581"/>
<polygon fill="none" stroke="#000000" points="1275.5825,-760.9276 1275.5825,-787.0724 1226.7519,-802.4835 1161.2481,-802.4835 1112.4175,-787.0724 1112.4175,-760.9276 1161.2481,-745.5165 1226.7519,-745.5165 1275.5825,-760.9276"/>
<text text-anchor="middle" x="1194" y="-766.8" font-family="Times,serif" font-size="24.00" fill="#000000">unicodes</text>
</a>
</g>
</g>
<!-- runFunction&#45;&gt;unicodes -->
<g id="edge57" class="edge">
<title>runFunction&#45;&gt;unicodes</title>
<path fill="none" stroke="#000000" d="M867.863,-911.2748C934.6625,-883.1581 1057.3841,-831.5032 1131.7508,-800.2014"/>
<polygon fill="#000000" stroke="#000000" points="1133.1602,-803.4056 1141.0192,-796.3002 1130.4445,-796.9539 1133.1602,-803.4056"/>
</g>
<!-- vartypes -->
<g id="node10" class="node">
<title>vartypes</title>
<g id="a_node10"><a xlink:href="vartypes.md" xlink:title="vartypes.md">
<ellipse fill="#eee8aa" stroke="#000000" cx="722" cy="-333" rx="68.6102" ry="22.7556"/>
<text text-anchor="middle" x="722" y="-325.8" font-family="Times,serif" font-size="24.00" fill="#000000">vartypes</text>
</a>
</g>
</g>
<!-- runFunction&#45;&gt;vartypes -->
<g id="edge53" class="edge">
<title>runFunction&#45;&gt;vartypes</title>
<path fill="none" stroke="#000000" d="M754.4762,-914.8858C666.2946,-892.0238 518.1703,-847.8825 487,-802.4917 432.3352,-722.8877 629.1464,-453.4317 698.6,-362.9285"/>
<polygon fill="#000000" stroke="#000000" points="701.3885,-365.044 704.7209,-354.9869 695.8441,-360.7708 701.3885,-365.044"/>
</g>
<!-- funtypes -->
<g id="node14" class="node">
<title>funtypes</title>
<g id="a_node14"><a xlink:href="funtypes.md" xlink:title="funtypes.md">
<ellipse fill="#eee8aa" stroke="#000000" cx="722" cy="-617" rx="69.5163" ry="22.7556"/>
<text text-anchor="middle" x="722" y="-609.8" font-family="Times,serif" font-size="24.00" fill="#000000">funtypes</text>
</a>
</g>
</g>
<!-- runFunction&#45;&gt;funtypes -->
<g id="edge62" class="edge">
<title>runFunction&#45;&gt;funtypes</title>
<path fill="none" stroke="#000000" d="M804.1985,-908.675C786.6032,-884.0532 759.667,-842.5914 746,-802.4917 728.5044,-751.1589 723.622,-687.8555 722.3417,-650.049"/>
<polygon fill="#000000" stroke="#000000" points="725.8292,-649.5359 722.0592,-639.6345 718.8318,-649.7258 725.8292,-649.5359"/>
</g>
<!-- warnings -->
<g id="node15" class="node">
<title>warnings</title>
<g id="a_node15"><a xlink:href="warnings.md" xlink:title="warnings.md">
<ellipse fill="#eee8aa" stroke="#000000" cx="895" cy="-195" rx="73.5561" ry="22.7556"/>
<text text-anchor="middle" x="895" y="-187.8" font-family="Times,serif" font-size="24.00" fill="#000000">warnings</text>
</a>
</g>
</g>
<!-- runFunction&#45;&gt;warnings -->
<g id="edge52" class="edge">
<title>runFunction&#45;&gt;warnings</title>
<path fill="none" stroke="#000000" d="M812.3269,-908.2091C803.1755,-882.844 789.352,-840.4237 784,-802.4917 780.4617,-777.4141 781.4847,-770.709 784,-745.5083 789.2239,-693.1709 864.5093,-337.9171 888.0311,-227.6061"/>
<polygon fill="#000000" stroke="#000000" points="891.478,-228.2241 890.1418,-217.7139 884.6321,-226.7634 891.478,-228.2241"/>
</g>
<!-- signatures -->
<g id="node20" class="node">
<title>signatures</title>
<g id="a_node20"><a xlink:href="signatures.md" xlink:title="signatures.md">
<ellipse fill="#eee8aa" stroke="#000000" cx="576" cy="-774" rx="80.2483" ry="22.7556"/>
<text text-anchor="middle" x="576" y="-766.8" font-family="Times,serif" font-size="24.00" fill="#000000">signatures</text>
</a>
</g>
</g>
<!-- runFunction&#45;&gt;signatures -->
<g id="edge61" class="edge">
<title>runFunction&#45;&gt;signatures</title>
<path fill="none" stroke="#000000" d="M787.7032,-909.6629C743.3624,-881.2486 664.9653,-831.0104 617.0252,-800.2896"/>
<polygon fill="#000000" stroke="#000000" points="618.7512,-797.2387 608.4432,-794.7901 614.9744,-803.1325 618.7512,-797.2387"/>
</g>
<!-- messages -->
<g id="node22" class="node">
<title>messages</title>
<g id="a_node22"><a xlink:href="messages.md" xlink:title="messages.md">
<polygon fill="#98fb98" stroke="#000000" points="1701.7388,-37.8581 1701.7388,-58.1419 1653.8573,-72.4846 1586.1427,-72.4846 1538.2612,-58.1419 1538.2612,-37.8581 1586.1427,-23.5154 1653.8573,-23.5154 1701.7388,-37.8581"/>
<polygon fill="none" stroke="#000000" points="1705.7446,-34.883 1705.7446,-61.117 1654.4454,-76.4835 1585.5546,-76.4835 1534.2554,-61.117 1534.2554,-34.883 1585.5546,-19.5165 1654.4454,-19.5165 1705.7446,-34.883"/>
<text text-anchor="middle" x="1620" y="-40.8" font-family="Times,serif" font-size="24.00" fill="#000000">messages</text>
</a>
</g>
</g>
<!-- runFunction&#45;&gt;messages -->
<g id="edge51" class="edge">
<title>runFunction&#45;&gt;messages</title>
<path fill="none" stroke="#000000" d="M813.9286,-908.1522C803.8815,-871.0006 789.9197,-796.5236 821,-745.5083 948.5055,-536.2205 1126.7465,-654.2123 1311,-492.6274 1347.8263,-460.3319 1529.5108,-185.8988 1595.767,-85.0136"/>
<polygon fill="#000000" stroke="#000000" points="1598.6985,-86.9256 1601.2597,-76.645 1592.8465,-83.0846 1598.6985,-86.9256"/>
</g>
<!-- matches -->
<g id="node23" class="node">
<title>matches</title>
<g id="a_node23"><a xlink:href="matches.md" xlink:title="matches.md">
<ellipse fill="#eee8aa" stroke="#000000" cx="1829" cy="-774" rx="66.8311" ry="22.7556"/>
<text text-anchor="middle" x="1829" y="-766.8" font-family="Times,serif" font-size="24.00" fill="#000000">matches</text>
</a>
</g>
</g>
<!-- runFunction&#45;&gt;matches -->
<g id="edge56" class="edge">
<title>runFunction&#45;&gt;matches</title>
<path fill="none" stroke="#000000" d="M906.8555,-921.6175C1066.7243,-903.4921 1420.537,-860.2959 1715,-802.4917 1731.9851,-799.1575 1750.2342,-794.9036 1767.0435,-790.706"/>
<polygon fill="#000000" stroke="#000000" points="1767.9182,-794.095 1776.7538,-788.2483 1766.2007,-787.309 1767.9182,-794.095"/>
</g>
<!-- opresultid -->
<g id="node2" class="node">
<title>opresultid</title>
<g id="a_node2"><a xlink:href="opresultid.md" xlink:title="opresultid.md">
<ellipse fill="#eee8aa" stroke="#000000" cx="1437" cy="-470" rx="79.3758" ry="22.7556"/>
<text text-anchor="middle" x="1437" y="-462.8" font-family="Times,serif" font-size="24.00" fill="#000000">opresultid</text>
</a>
</g>
</g>
<!-- opresultid&#45;&gt;messages -->
<g id="edge66" class="edge">
<title>opresultid&#45;&gt;messages</title>
<path fill="none" stroke="#000000" d="M1468.2262,-449.1353C1496.2437,-428.6924 1536.2056,-394.9393 1558,-355.6274 1583.4299,-309.7581 1605.6776,-158.8838 1615.1461,-86.8923"/>
<polygon fill="#000000" stroke="#000000" points="1618.6312,-87.2325 1616.4492,-76.8648 1611.6896,-86.3304 1618.6312,-87.2325"/>
</g>
<!-- parseCmdLine -->
<g id="node5" class="node">
<title>parseCmdLine</title>
<g id="a_node5"><a xlink:href="parseCmdLine.md" xlink:title="parseCmdLine.md">
<ellipse fill="#eee8aa" stroke="#000000" cx="2159" cy="-931" rx="111.4463" ry="22.7556"/>
<text text-anchor="middle" x="2159" y="-923.8" font-family="Times,serif" font-size="24.00" fill="#000000">parseCmdLine</text>
</a>
</g>
</g>
<!-- parseCmdLine&#45;&gt;regexes -->
<g id="edge19" class="edge">
<title>parseCmdLine&#45;&gt;regexes</title>
<path fill="none" stroke="#000000" d="M2134.5448,-908.6982C2091.2814,-870.3137 1997.0991,-791.4662 1905,-745.5083 1791.9218,-689.0816 1649.3158,-652.0786 1561.9437,-632.856"/>
<polygon fill="#000000" stroke="#000000" points="1562.6084,-629.4188 1552.0929,-630.7126 1561.1201,-636.2587 1562.6084,-629.4188"/>
</g>
<!-- env -->
<g id="node6" class="node">
<title>env</title>
<g id="a_node6"><a xlink:href="env.md" xlink:title="env.md">
<ellipse fill="#eee8aa" stroke="#000000" cx="2191" cy="-774" rx="35.6342" ry="22.7556"/>
<text text-anchor="middle" x="2191" y="-766.8" font-family="Times,serif" font-size="24.00" fill="#000000">env</text>
</a>
</g>
</g>
<!-- parseCmdLine&#45;&gt;env -->
<g id="edge18" class="edge">
<title>parseCmdLine&#45;&gt;env</title>
<path fill="none" stroke="#000000" d="M2163.6531,-908.1709C2169.0957,-881.4681 2178.1473,-837.0586 2184.3347,-806.7015"/>
<polygon fill="#000000" stroke="#000000" points="2187.8255,-807.0996 2186.3932,-796.602 2180.9665,-805.7015 2187.8255,-807.0996"/>
</g>
<!-- parseCmdLine&#45;&gt;messages -->
<g id="edge20" class="edge">
<title>parseCmdLine&#45;&gt;messages</title>
<path fill="none" stroke="#000000" d="M2175.8095,-908.5848C2193.4977,-883.8859 2220.8327,-842.3586 2236,-802.4917 2289.481,-661.918 2299,-620.4034 2299,-470 2299,-470 2299,-470 2299,-333 2299,-300.6946 2541.0522,-392.716 2110,-172.3726 1982.3739,-107.1332 1818.1706,-74.516 1715.9971,-59.4492"/>
<polygon fill="#000000" stroke="#000000" points="1716.3984,-55.9708 1706,-58.0018 1715.3953,-62.8986 1716.3984,-55.9708"/>
</g>
<!-- parseCmdLine&#45;&gt;matches -->
<g id="edge21" class="edge">
<title>parseCmdLine&#45;&gt;matches</title>
<path fill="none" stroke="#000000" d="M2115.1785,-910.1516C2053.349,-880.7358 1940.9247,-827.249 1876.9363,-796.8061"/>
<polygon fill="#000000" stroke="#000000" points="1878.3924,-793.6229 1867.8586,-792.4873 1875.3851,-799.944 1878.3924,-793.6229"/>
</g>
<!-- tempFile -->
<g id="node9" class="node">
<title>tempFile</title>
<g id="a_node9"><a xlink:href="tempFile.md" xlink:title="tempFile.md">
<polygon fill="#98fb98" stroke="#000000" points="2190.598,-606.8581 2190.598,-627.1419 2145.1421,-641.4846 2080.8579,-641.4846 2035.402,-627.1419 2035.402,-606.8581 2080.8579,-592.5154 2145.1421,-592.5154 2190.598,-606.8581"/>
<polygon fill="none" stroke="#000000" points="2194.6004,-603.9275 2194.6004,-630.0725 2145.7591,-645.4835 2080.2409,-645.4835 2031.3996,-630.0725 2031.3996,-603.9275 2080.2409,-588.5165 2145.7591,-588.5165 2194.6004,-603.9275"/>
<text text-anchor="middle" x="2113" y="-609.8" font-family="Times,serif" font-size="24.00" fill="#000000">tempFile</text>
</a>
</g>
</g>
<!-- env&#45;&gt;tempFile -->
<g id="edge9" class="edge">
<title>env&#45;&gt;tempFile</title>
<path fill="none" stroke="#000000" d="M2180.1544,-752.1698C2167.6357,-726.9719 2146.8297,-685.0932 2131.6889,-654.6175"/>
<polygon fill="#000000" stroke="#000000" points="2134.7712,-652.9551 2127.1874,-645.5567 2128.5023,-656.0696 2134.7712,-652.9551"/>
</g>
<!-- env&#45;&gt;warnings -->
<g id="edge11" class="edge">
<title>env&#45;&gt;warnings</title>
<path fill="none" stroke="#000000" d="M2200.7027,-752.1638C2215.6575,-714.8328 2239.1408,-637.9908 2204,-588.5083 2056.0373,-380.1587 1230.5461,-243.8587 972.2609,-205.8444"/>
<polygon fill="#000000" stroke="#000000" points="972.6174,-202.3594 962.2158,-204.3735 971.6031,-209.2855 972.6174,-202.3594"/>
</g>
<!-- args -->
<g id="node21" class="node">
<title>args</title>
<g id="a_node21"><a xlink:href="args.md" xlink:title="args.md">
<polygon fill="#98fb98" stroke="#000000" points="2009.5492,-606.8581 2009.5492,-627.1419 1984.6245,-641.4846 1949.3755,-641.4846 1924.4508,-627.1419 1924.4508,-606.8581 1949.3755,-592.5154 1984.6245,-592.5154 2009.5492,-606.8581"/>
<polygon fill="none" stroke="#000000" points="2013.5514,-604.5466 2013.5514,-629.4534 1985.6946,-645.4835 1948.3054,-645.4835 1920.4486,-629.4534 1920.4486,-604.5466 1948.3054,-588.5165 1985.6946,-588.5165 2013.5514,-604.5466"/>
<text text-anchor="middle" x="1967" y="-609.8" font-family="Times,serif" font-size="24.00" fill="#000000">args</text>
</a>
</g>
</g>
<!-- env&#45;&gt;args -->
<g id="edge12" class="edge">
<title>env&#45;&gt;args</title>
<path fill="none" stroke="#000000" d="M2166.6017,-756.8994C2127.9595,-729.8153 2052.3289,-676.8064 2006.0687,-644.383"/>
<polygon fill="#000000" stroke="#000000" points="2007.986,-641.4527 1997.7882,-638.5793 2003.9683,-647.1849 2007.986,-641.4527"/>
</g>
<!-- env&#45;&gt;messages -->
<g id="edge10" class="edge">
<title>env&#45;&gt;messages</title>
<path fill="none" stroke="#000000" d="M2199.724,-751.9017C2218.4887,-702.3129 2261,-578.047 2261,-470 2261,-470 2261,-470 2261,-333 2261,-212.6345 1878.855,-108.2339 1704.689,-66.9028"/>
<polygon fill="#000000" stroke="#000000" points="1705.3217,-63.4561 1694.7854,-64.5674 1703.7151,-70.2692 1705.3217,-63.4561"/>
</g>
<!-- variables -->
<g id="node8" class="node">
<title>variables</title>
<g id="a_node8"><a xlink:href="variables.md" xlink:title="variables.md">
<ellipse fill="#eee8aa" stroke="#000000" cx="1633" cy="-774" rx="72.6337" ry="22.7556"/>
<text text-anchor="middle" x="1633" y="-766.8" font-family="Times,serif" font-size="24.00" fill="#000000">variables</text>
</a>
</g>
</g>
<!-- variables&#45;&gt;vartypes -->
<g id="edge38" class="edge">
<title>variables&#45;&gt;vartypes</title>
<path fill="none" stroke="#000000" d="M1630.2649,-751.2297C1625.5757,-715.7376 1614.564,-645.3943 1595,-588.5083 1572.2286,-522.2962 1581.7444,-488.3927 1525,-447.3726 1410.1838,-364.3726 979.7571,-341.1895 800.8016,-335.0683"/>
<polygon fill="#000000" stroke="#000000" points="800.779,-331.5657 790.668,-334.7308 800.5459,-338.5619 800.779,-331.5657"/>
</g>
<!-- tostring -->
<g id="node11" class="node">
<title>tostring</title>
<g id="a_node11"><a xlink:href="tostring.md" xlink:title="tostring.md">
<ellipse fill="#eee8aa" stroke="#000000" cx="1239" cy="-470" rx="63.3406" ry="22.7556"/>
<text text-anchor="middle" x="1239" y="-462.8" font-family="Times,serif" font-size="24.00" fill="#000000">tostring</text>
</a>
</g>
</g>
<!-- variables&#45;&gt;tostring -->
<g id="edge44" class="edge">
<title>variables&#45;&gt;tostring</title>
<path fill="none" stroke="#000000" d="M1630.5416,-751.3256C1625.1835,-712.7292 1608.9897,-634.0312 1563,-588.5083 1525.1121,-551.0049 1383.2512,-508.3559 1300.3359,-485.8516"/>
<polygon fill="#000000" stroke="#000000" points="1301.0937,-482.4311 1290.5274,-483.2088 1299.2725,-489.19 1301.0937,-482.4311"/>
</g>
<!-- variables&#45;&gt;warnings -->
<g id="edge41" class="edge">
<title>variables&#45;&gt;warnings</title>
<path fill="none" stroke="#000000" d="M1635.4259,-751.0796C1640.3395,-691.6117 1644.5624,-531.1887 1559,-447.3726 1392.6936,-284.4604 1110.5963,-224.581 973.9099,-204.3668"/>
<polygon fill="#000000" stroke="#000000" points="974.3235,-200.8903 963.9254,-202.9228 973.3214,-207.8182 974.3235,-200.8903"/>
</g>
<!-- variables&#45;&gt;args -->
<g id="edge45" class="edge">
<title>variables&#45;&gt;args</title>
<path fill="none" stroke="#000000" d="M1674.6767,-755.325C1729.2494,-730.7367 1827.7664,-685.8857 1911,-645.4917 1914.5421,-643.7727 1918.1986,-641.9721 1921.8668,-640.147"/>
<polygon fill="#000000" stroke="#000000" points="1923.58,-643.2033 1930.9506,-635.5925 1920.4426,-636.9458 1923.58,-643.2033"/>
</g>
<!-- variables&#45;&gt;messages -->
<g id="edge40" class="edge">
<title>variables&#45;&gt;messages</title>
<path fill="none" stroke="#000000" d="M1640.979,-751.4506C1657.9314,-701.46 1696,-577.2594 1696,-470 1696,-470 1696,-470 1696,-333 1696,-242.1284 1659.4817,-140.2947 1637.0729,-86.3605"/>
<polygon fill="#000000" stroke="#000000" points="1640.1769,-84.7136 1633.0649,-76.8606 1633.7274,-87.4348 1640.1769,-84.7136"/>
</g>
<!-- version -->
<g id="node24" class="node">
<title>version</title>
<g id="a_node24"><a xlink:href="version.md" xlink:title="version.md">
<polygon fill="#98fb98" stroke="#000000" points="1898.1523,-606.8581 1898.1523,-627.1419 1859.4012,-641.4846 1804.5988,-641.4846 1765.8477,-627.1419 1765.8477,-606.8581 1804.5988,-592.5154 1859.4012,-592.5154 1898.1523,-606.8581"/>
<polygon fill="none" stroke="#000000" points="1902.1421,-604.0721 1902.1421,-629.9279 1860.1143,-645.4835 1803.8857,-645.4835 1761.8579,-629.9279 1761.8579,-604.0721 1803.8857,-588.5165 1860.1143,-588.5165 1902.1421,-604.0721"/>
<text text-anchor="middle" x="1832" y="-609.8" font-family="Times,serif" font-size="24.00" fill="#000000">version</text>
</a>
</g>
</g>
<!-- variables&#45;&gt;version -->
<g id="edge39" class="edge">
<title>variables&#45;&gt;version</title>
<path fill="none" stroke="#000000" d="M1659.838,-752.8263C1693.3155,-726.4144 1750.9227,-680.9655 1790.2002,-649.9777"/>
<polygon fill="#000000" stroke="#000000" points="1792.6051,-652.5385 1798.2881,-643.5968 1788.2694,-647.0429 1792.6051,-652.5385"/>
</g>
<!-- vartypes&#45;&gt;warnings -->
<g id="edge33" class="edge">
<title>vartypes&#45;&gt;warnings</title>
<path fill="none" stroke="#000000" d="M748.275,-312.0408C778.2509,-288.1294 827.3827,-248.9375 860.4409,-222.5674"/>
<polygon fill="#000000" stroke="#000000" points="862.8428,-225.1286 868.4778,-216.1565 858.4776,-219.6563 862.8428,-225.1286"/>
</g>
<!-- tostring&#45;&gt;vartypes -->
<g id="edge43" class="edge">
<title>tostring&#45;&gt;vartypes</title>
<path fill="none" stroke="#000000" d="M1190.186,-455.4037C1180.8444,-452.6817 1171.1312,-449.9003 1162,-447.3726 1029.1973,-410.6093 872.8889,-370.7952 786.9022,-349.19"/>
<polygon fill="#000000" stroke="#000000" points="787.5764,-345.7508 777.0251,-346.7107 785.8721,-352.5401 787.5764,-345.7508"/>
</g>
<!-- tostring&#45;&gt;warnings -->
<g id="edge42" class="edge">
<title>tostring&#45;&gt;warnings</title>
<path fill="none" stroke="#000000" d="M1213.1441,-449.3303C1152.0336,-400.4774 998.6477,-277.8579 929.6171,-222.6736"/>
<polygon fill="#000000" stroke="#000000" points="931.6252,-219.798 921.6288,-216.2876 927.2543,-225.2656 931.6252,-219.798"/>
</g>
<!-- replacement -->
<g id="node12" class="node">
<title>replacement</title>
<g id="a_node12"><a xlink:href="replacement.md" xlink:title="replacement.md">
<ellipse fill="#eee8aa" stroke="#000000" cx="1627" cy="-1078" rx="94.4556" ry="22.7556"/>
<text text-anchor="middle" x="1627" y="-1070.8" font-family="Times,serif" font-size="24.00" fill="#000000">replacement</text>
</a>
</g>
</g>
<!-- replacement&#45;&gt;parseNumber -->
<g id="edge82" class="edge">
<title>replacement&#45;&gt;parseNumber</title>
<path fill="none" stroke="#000000" d="M1547.8944,-1065.5756C1425.7973,-1045.344 1198.2718,-1003.1352 1129,-959.4917 1070.0753,-922.3673 1023.8398,-853.9775 999.0485,-811.4163"/>
<polygon fill="#000000" stroke="#000000" points="1001.9444,-809.4297 993.9411,-802.4872 995.8681,-812.9053 1001.9444,-809.4297"/>
</g>
<!-- replacement&#45;&gt;regexes -->
<g id="edge73" class="edge">
<title>replacement&#45;&gt;regexes</title>
<path fill="none" stroke="#000000" d="M1619.1423,-1055.3437C1610.9358,-1031.539 1597.7816,-992.9766 1587,-959.4917 1551.6105,-849.5806 1512.3247,-718.9491 1493.4087,-655.4641"/>
<polygon fill="#000000" stroke="#000000" points="1496.6506,-654.0868 1490.4431,-645.5009 1489.9415,-656.0838 1496.6506,-654.0868"/>
</g>
<!-- replacement&#45;&gt;parseCmdLine -->
<g id="edge76" class="edge">
<title>replacement&#45;&gt;parseCmdLine</title>
<path fill="none" stroke="#000000" d="M1689.0683,-1060.8495C1787.014,-1033.7856 1977.1516,-981.2476 2083.0815,-951.9775"/>
<polygon fill="#000000" stroke="#000000" points="2084.0443,-955.3427 2092.7509,-949.3057 2082.1799,-948.5955 2084.0443,-955.3427"/>
</g>
<!-- replacement&#45;&gt;env -->
<g id="edge74" class="edge">
<title>replacement&#45;&gt;env</title>
<path fill="none" stroke="#000000" d="M1640.4918,-1055.3422C1667.4642,-1010.3379 1726.683,-913.0888 1741,-902.5083 1866.892,-809.4719 2058.1783,-783.6859 2145.1184,-776.6214"/>
<polygon fill="#000000" stroke="#000000" points="2145.4889,-780.1034 2155.1922,-775.8495 2144.954,-773.1239 2145.4889,-780.1034"/>
</g>
<!-- replacement&#45;&gt;variables -->
<g id="edge80" class="edge">
<title>replacement&#45;&gt;variables</title>
<path fill="none" stroke="#000000" d="M1618.6625,-1055.2276C1610.507,-1031.6497 1598.6548,-993.5602 1594,-959.4917 1590.5715,-934.3989 1590.2823,-927.5599 1594,-902.5083 1598.9853,-868.9142 1610.9241,-831.9442 1620.2891,-806.3165"/>
<polygon fill="#000000" stroke="#000000" points="1623.6438,-807.3375 1623.8603,-796.7448 1617.0854,-804.8905 1623.6438,-807.3375"/>
</g>
<!-- replacement&#45;&gt;tempFile -->
<g id="edge81" class="edge">
<title>replacement&#45;&gt;tempFile</title>
<path fill="none" stroke="#000000" d="M1635.1823,-1055.1931C1651.4036,-1010.3961 1687.0203,-914.2335 1698,-902.5083 1767.8394,-827.9266 1820.0509,-859.2686 1905,-802.4917 1972.0297,-757.6915 2039.9228,-692.6257 2079.1574,-652.656"/>
<polygon fill="#000000" stroke="#000000" points="2081.6653,-655.0974 2086.1432,-645.4953 2076.6547,-650.2092 2081.6653,-655.0974"/>
</g>
<!-- replacement&#45;&gt;vartypes -->
<g id="edge75" class="edge">
<title>replacement&#45;&gt;vartypes</title>
<path fill="none" stroke="#000000" d="M1606.3298,-1055.6497C1555.8102,-1001.2789 1421.5308,-858.2932 1303,-745.5083 1147.9927,-598.0151 1105.8502,-561.7173 925,-447.3726 872.3926,-414.1109 809.6916,-379.5163 768.0336,-357.2062"/>
<polygon fill="#000000" stroke="#000000" points="769.4265,-353.9823 758.9564,-352.361 766.1301,-360.1577 769.4265,-353.9823"/>
</g>
<!-- replacement&#45;&gt;tostring -->
<g id="edge83" class="edge">
<title>replacement&#45;&gt;tostring</title>
<path fill="none" stroke="#000000" d="M1612.4981,-1055.2753C1552.9446,-961.9545 1327.1061,-608.0632 1258.7328,-500.9215"/>
<polygon fill="#000000" stroke="#000000" points="1261.4937,-498.7417 1253.1638,-492.1947 1255.5929,-502.5074 1261.4937,-498.7417"/>
</g>
<!-- readlines -->
<g id="node13" class="node">
<title>readlines</title>
<g id="a_node13"><a xlink:href="readlines.md" xlink:title="readlines.md">
<polygon fill="#98fb98" stroke="#000000" points="1911.5894,-920.8581 1911.5894,-941.1419 1865.5528,-955.4846 1800.4472,-955.4846 1754.4106,-941.1419 1754.4106,-920.8581 1800.4472,-906.5154 1865.5528,-906.5154 1911.5894,-920.8581"/>
<polygon fill="none" stroke="#000000" points="1915.5916,-917.9163 1915.5916,-944.0837 1866.1623,-959.4835 1799.8377,-959.4835 1750.4084,-944.0837 1750.4084,-917.9163 1799.8377,-902.5165 1866.1623,-902.5165 1915.5916,-917.9163"/>
<text text-anchor="middle" x="1833" y="-923.8" font-family="Times,serif" font-size="24.00" fill="#000000">readlines</text>
</a>
</g>
</g>
<!-- replacement&#45;&gt;readlines -->
<g id="edge77" class="edge">
<title>replacement&#45;&gt;readlines</title>
<path fill="none" stroke="#000000" d="M1657.396,-1056.3096C1691.5631,-1031.9283 1747.4171,-992.0713 1786.9485,-963.862"/>
<polygon fill="#000000" stroke="#000000" points="1789.0157,-966.6866 1795.1227,-958.0289 1784.9497,-960.9886 1789.0157,-966.6866"/>
</g>
<!-- replacement&#45;&gt;messages -->
<g id="edge79" class="edge">
<title>replacement&#45;&gt;messages</title>
<path fill="none" stroke="#000000" d="M1624.9243,-1055.2624C1622.6401,-1020.9578 1621.5463,-954.4592 1641,-902.5083 1660.3913,-850.7239 1695.0282,-854.055 1715,-802.4917 1744.9317,-725.2138 1734,-699.8721 1734,-617 1734,-617 1734,-617 1734,-333 1734,-238.5443 1679.3515,-138.2635 1645.7282,-85.5033"/>
<polygon fill="#000000" stroke="#000000" points="1648.4896,-83.3282 1640.1185,-76.834 1642.6127,-87.1311 1648.4896,-83.3282"/>
</g>
<!-- replacement&#45;&gt;matches -->
<g id="edge78" class="edge">
<title>replacement&#45;&gt;matches</title>
<path fill="none" stroke="#000000" d="M1627.9898,-1055.1505C1630.4796,-1019.8235 1639.232,-950.9707 1670,-902.5083 1698.5861,-857.4826 1748.3953,-821.0386 1784.6638,-798.615"/>
<polygon fill="#000000" stroke="#000000" points="1786.8316,-801.3939 1793.5717,-793.2194 1783.205,-795.4066 1786.8316,-801.3939"/>
</g>
<!-- funtypes&#45;&gt;vartypes -->
<g id="edge47" class="edge">
<title>funtypes&#45;&gt;vartypes</title>
<path fill="none" stroke="#000000" d="M722,-594.2392C722,-544.1784 722,-424.3405 722,-366.0136"/>
<polygon fill="#000000" stroke="#000000" points="725.5001,-365.8692 722,-355.8692 718.5001,-365.8693 725.5001,-365.8692"/>
</g>
<!-- funtypes&#45;&gt;tostring -->
<g id="edge49" class="edge">
<title>funtypes&#45;&gt;tostring</title>
<path fill="none" stroke="#000000" d="M774.8984,-601.9592C871.9079,-574.3763 1077.632,-515.8822 1179.4117,-486.9429"/>
<polygon fill="#000000" stroke="#000000" points="1180.5643,-490.254 1189.2258,-484.1524 1178.6498,-483.5209 1180.5643,-490.254"/>
</g>
<!-- funtypes&#45;&gt;warnings -->
<g id="edge48" class="edge">
<title>funtypes&#45;&gt;warnings</title>
<path fill="none" stroke="#000000" d="M731.3012,-594.3114C760.2,-523.8184 848.4927,-308.4455 881.9565,-226.817"/>
<polygon fill="#000000" stroke="#000000" points="885.2032,-228.1243 885.758,-217.544 878.7264,-225.4691 885.2032,-228.1243"/>
</g>
<!-- warnings&#45;&gt;messages -->
<g id="edge3" class="edge">
<title>warnings&#45;&gt;messages</title>
<path fill="none" stroke="#000000" d="M956.5003,-182.5303C1085.3455,-156.4058 1383.9588,-95.8594 1532.637,-65.7136"/>
<polygon fill="#000000" stroke="#000000" points="1533.5391,-69.102 1542.6442,-63.6846 1532.1481,-62.2416 1533.5391,-69.102"/>
</g>
<!-- collectCommand -->
<g id="node16" class="node">
<title>collectCommand</title>
<g id="a_node16"><a xlink:href="collectCommand.md" xlink:title="collectCommand.md">
<ellipse fill="#eee8aa" stroke="#000000" cx="2137" cy="-1078" rx="127.4982" ry="22.7556"/>
<text text-anchor="middle" x="2137" y="-1070.8" font-family="Times,serif" font-size="24.00" fill="#000000">collectCommand</text>
</a>
</g>
</g>
<!-- collectCommand&#45;&gt;parseCmdLine -->
<g id="edge26" class="edge">
<title>collectCommand&#45;&gt;parseCmdLine</title>
<path fill="none" stroke="#000000" d="M2140.3893,-1055.3534C2144.0445,-1030.9301 2149.8987,-991.813 2154.0647,-963.9766"/>
<polygon fill="#000000" stroke="#000000" points="2157.5519,-964.3224 2155.5706,-953.9145 2150.629,-963.2863 2157.5519,-964.3224"/>
</g>
<!-- collectCommand&#45;&gt;env -->
<g id="edge23" class="edge">
<title>collectCommand&#45;&gt;env</title>
<path fill="none" stroke="#000000" d="M2179.0366,-1056.5099C2213.0412,-1036.5267 2258.5182,-1003.2625 2279,-959.4917 2305.7262,-902.3761 2253.4848,-835.6144 2218.6572,-799.8168"/>
<polygon fill="#000000" stroke="#000000" points="2221.0635,-797.2731 2211.5244,-792.6626 2216.1063,-802.2154 2221.0635,-797.2731"/>
</g>
<!-- collectCommand&#45;&gt;readlines -->
<g id="edge25" class="edge">
<title>collectCommand&#45;&gt;readlines</title>
<path fill="none" stroke="#000000" d="M2092.7958,-1056.6249C2039.5713,-1030.8881 1950.0163,-987.5835 1891.2092,-959.1472"/>
<polygon fill="#000000" stroke="#000000" points="1892.5717,-955.9184 1882.0453,-954.716 1889.5244,-962.2203 1892.5717,-955.9184"/>
</g>
<!-- collectCommand&#45;&gt;matches -->
<g id="edge24" class="edge">
<title>collectCommand&#45;&gt;matches</title>
<path fill="none" stroke="#000000" d="M2117.9099,-1055.526C2097.9357,-1031.87 2065.8139,-993.4274 2039,-959.4917 2019.33,-934.5974 2018.3288,-925.0486 1996,-902.5083 1956.4816,-862.6154 1904.3164,-824.3623 1868.8765,-800.124"/>
<polygon fill="#000000" stroke="#000000" points="1870.4856,-796.9863 1860.2446,-794.2711 1866.5572,-802.7801 1870.4856,-796.9863"/>
</g>
<!-- runner -->
<g id="node17" class="node">
<title>runner</title>
<g id="a_node17"><a xlink:href="runner.md" xlink:title="runner.md">
<polygon fill="#98fb98" stroke="#000000" points="2713.3608,-1371.8581 2713.3608,-1392.1419 2678.0023,-1406.4846 2627.9977,-1406.4846 2592.6392,-1392.1419 2592.6392,-1371.8581 2627.9977,-1357.5154 2678.0023,-1357.5154 2713.3608,-1371.8581"/>
<polygon fill="none" stroke="#000000" points="2717.3724,-1369.1681 2717.3724,-1394.8319 2678.7872,-1410.4835 2627.2128,-1410.4835 2588.6276,-1394.8319 2588.6276,-1369.1681 2627.2128,-1353.5165 2678.7872,-1353.5165 2717.3724,-1369.1681"/>
<text text-anchor="middle" x="2653" y="-1374.8" font-family="Times,serif" font-size="24.00" fill="#000000">runner</text>
</a>
</g>
</g>
<!-- statictea -->
<g id="node18" class="node">
<title>statictea</title>
<g id="a_node18"><a xlink:href="statictea.md" xlink:title="statictea.md">
<polygon fill="#eee8aa" stroke="#000000" points="2405.0958,-1373.3667 2488,-1354.0619 2570.9042,-1373.3667 2570.8268,-1404.6024 2405.1732,-1404.6024 2405.0958,-1373.3667"/>
<text text-anchor="middle" x="2488" y="-1374.8" font-family="Times,serif" font-size="24.00" fill="#000000">statictea</text>
</a>
</g>
</g>
<!-- statictea&#45;&gt;env -->
<g id="edge91" class="edge">
<title>statictea&#45;&gt;env</title>
<path fill="none" stroke="#000000" d="M2482.929,-1355.2416C2467.6875,-1279.4473 2417.1672,-1058.6918 2319,-902.5083 2292.7672,-860.7721 2250.7526,-822.025 2222.0674,-798.2184"/>
<polygon fill="#000000" stroke="#000000" points="2223.948,-795.2352 2213.9903,-791.6166 2219.5181,-800.6551 2223.948,-795.2352"/>
</g>
<!-- gethelp -->
<g id="node19" class="node">
<title>gethelp</title>
<g id="a_node19"><a xlink:href="gethelp.md" xlink:title="gethelp.md">
<polygon fill="#98fb98" stroke="#000000" points="2690.1349,-1214.8581 2690.1349,-1235.1419 2651.394,-1249.4846 2596.606,-1249.4846 2557.8651,-1235.1419 2557.8651,-1214.8581 2596.606,-1200.5154 2651.394,-1200.5154 2690.1349,-1214.8581"/>
<polygon fill="none" stroke="#000000" points="2694.1242,-1212.0722 2694.1242,-1237.9278 2652.1071,-1253.4835 2595.8929,-1253.4835 2553.8758,-1237.9278 2553.8758,-1212.0722 2595.8929,-1196.5165 2652.1071,-1196.5165 2694.1242,-1212.0722"/>
<text text-anchor="middle" x="2624" y="-1217.8" font-family="Times,serif" font-size="24.00" fill="#000000">gethelp</text>
</a>
</g>
</g>
<!-- statictea&#45;&gt;gethelp -->
<g id="edge89" class="edge">
<title>statictea&#45;&gt;gethelp</title>
<path fill="none" stroke="#000000" d="M2508.3606,-1358.4955C2530.6037,-1332.8177 2566.5136,-1291.363 2592.4196,-1261.4568"/>
<polygon fill="#000000" stroke="#000000" points="2595.206,-1263.5857 2599.108,-1253.7356 2589.9151,-1259.0024 2595.206,-1263.5857"/>
</g>
<!-- statictea&#45;&gt;args -->
<g id="edge87" class="edge">
<title>statictea&#45;&gt;args</title>
<path fill="none" stroke="#000000" d="M2497.0746,-1356.1142C2521.8186,-1280.7995 2583.3618,-1057.3194 2502,-902.5083 2389.4212,-688.2992 2242.173,-745.9076 2022,-645.4917 2018.6214,-643.9508 2015.1535,-642.3072 2011.682,-640.6167"/>
<polygon fill="#000000" stroke="#000000" points="2013.055,-637.3906 2002.5427,-636.0703 2009.9372,-643.6579 2013.055,-637.3906"/>
</g>
<!-- statictea&#45;&gt;messages -->
<g id="edge88" class="edge">
<title>statictea&#45;&gt;messages</title>
<path fill="none" stroke="#000000" d="M2540.1887,-1366.0522C2590.8581,-1347.6245 2665.4566,-1312.0707 2703,-1253.4917 2745.3322,-1187.4409 2722,-1156.4521 2722,-1078 2722,-1078 2722,-1078 2722,-333 2722,-126.0665 1984.4563,-66.9709 1716.1287,-52.3187"/>
<polygon fill="#000000" stroke="#000000" points="1716.1865,-48.8168 1706.0131,-51.7753 1715.8109,-55.8067 1716.1865,-48.8168"/>
</g>
<!-- statictea&#45;&gt;version -->
<g id="edge90" class="edge">
<title>statictea&#45;&gt;version</title>
<path fill="none" stroke="#000000" d="M2486.881,-1354.1089C2481.1235,-1252.06 2446.1338,-897.0678 2236,-745.5083 2113.426,-657.1014 2054.3459,-693.3677 1911,-645.4917 1905.7277,-643.7308 1900.2736,-641.8625 1894.8088,-639.9578"/>
<polygon fill="#000000" stroke="#000000" points="1895.5924,-636.5232 1884.9976,-636.5054 1893.2688,-643.1264 1895.5924,-636.5232"/>
</g>
<!-- parseCommandLine -->
<g id="node26" class="node">
<title>parseCommandLine</title>
<g id="a_node26"><a xlink:href="parseCommandLine.md" xlink:title="parseCommandLine.md">
<ellipse fill="#eee8aa" stroke="#000000" cx="177" cy="-774" rx="148.8522" ry="22.7556"/>
<text text-anchor="middle" x="177" y="-766.8" font-family="Times,serif" font-size="24.00" fill="#000000">parseCommandLine</text>
</a>
</g>
</g>
<!-- statictea&#45;&gt;parseCommandLine -->
<g id="edge6" class="edge">
<title>statictea&#45;&gt;parseCommandLine</title>
<path fill="none" stroke="#000000" d="M2405.0243,-1380.2644C2057.6427,-1371.6134 722.2508,-1324.1369 378,-1100.6274 267.7799,-1029.0655 208.0393,-873.7024 186.456,-806.2903"/>
<polygon fill="#000000" stroke="#000000" points="189.759,-805.1255 183.4321,-796.6271 183.0784,-807.2161 189.759,-805.1255"/>
</g>
<!-- processTemplate -->
<g id="node27" class="node">
<title>processTemplate</title>
<g id="a_node27"><a xlink:href="processTemplate.md" xlink:title="processTemplate.md">
<ellipse fill="#eee8aa" stroke="#000000" cx="1982" cy="-1225" rx="125.2054" ry="22.7556"/>
<text text-anchor="middle" x="1982" y="-1217.8" font-family="Times,serif" font-size="24.00" fill="#000000">processTemplate</text>
</a>
</g>
</g>
<!-- statictea&#45;&gt;processTemplate -->
<g id="edge86" class="edge">
<title>statictea&#45;&gt;processTemplate</title>
<path fill="none" stroke="#000000" d="M2436.2271,-1365.9361C2345.6999,-1337.8476 2158.4438,-1279.7464 2054.8672,-1247.609"/>
<polygon fill="#000000" stroke="#000000" points="2055.699,-1244.2025 2045.111,-1244.5819 2053.6246,-1250.8881 2055.699,-1244.2025"/>
</g>
<!-- signatures&#45;&gt;vartypes -->
<g id="edge58" class="edge">
<title>signatures&#45;&gt;vartypes</title>
<path fill="none" stroke="#000000" d="M583.5422,-751.2186C607.698,-678.2547 683.2079,-450.1735 711.3166,-365.2696"/>
<polygon fill="#000000" stroke="#000000" points="714.6826,-366.2386 714.5029,-355.6453 708.0373,-364.0385 714.6826,-366.2386"/>
</g>
<!-- signatures&#45;&gt;funtypes -->
<g id="edge59" class="edge">
<title>signatures&#45;&gt;funtypes</title>
<path fill="none" stroke="#000000" d="M596.6086,-751.8387C622.3328,-724.1764 666.4022,-676.7867 694.8546,-646.1906"/>
<polygon fill="#000000" stroke="#000000" points="697.4842,-648.5025 701.7311,-638.796 692.3581,-643.7355 697.4842,-648.5025"/>
</g>
<!-- signatures&#45;&gt;messages -->
<g id="edge60" class="edge">
<title>signatures&#45;&gt;messages</title>
<path fill="none" stroke="#000000" d="M556.6123,-751.7462C516.8975,-703.7856 430,-585.6341 430,-470 430,-470 430,-470 430,-333 430,-108.5955 1240.4364,-60.4749 1523.6825,-50.5095"/>
<polygon fill="#000000" stroke="#000000" points="1524.0655,-53.9985 1533.9394,-50.1573 1523.8252,-47.0027 1524.0655,-53.9985"/>
</g>
<!-- matches&#45;&gt;regexes -->
<g id="edge15" class="edge">
<title>matches&#45;&gt;regexes</title>
<path fill="none" stroke="#000000" d="M1788.8557,-755.8367C1727.3911,-728.0271 1609.6994,-674.7775 1539.2843,-642.9182"/>
<polygon fill="#000000" stroke="#000000" points="1540.6487,-639.694 1530.095,-638.7606 1537.7631,-646.0716 1540.6487,-639.694"/>
</g>
<!-- matches&#45;&gt;args -->
<g id="edge14" class="edge">
<title>matches&#45;&gt;args</title>
<path fill="none" stroke="#000000" d="M1848.1883,-752.1698C1871.2351,-725.9499 1910.1573,-681.6689 1937.1431,-650.9677"/>
<polygon fill="#000000" stroke="#000000" points="1940.0986,-652.9067 1944.0717,-643.0851 1934.8409,-648.2853 1940.0986,-652.9067"/>
</g>
<!-- readjson -->
<g id="node25" class="node">
<title>readjson</title>
<g id="a_node25"><a xlink:href="readjson.md" xlink:title="readjson.md">
<ellipse fill="#eee8aa" stroke="#000000" cx="1207" cy="-931" rx="68.6102" ry="22.7556"/>
<text text-anchor="middle" x="1207" y="-923.8" font-family="Times,serif" font-size="24.00" fill="#000000">readjson</text>
</a>
</g>
</g>
<!-- readjson&#45;&gt;opresultid -->
<g id="edge67" class="edge">
<title>readjson&#45;&gt;opresultid</title>
<path fill="none" stroke="#000000" d="M1231.6706,-909.3973C1257.1566,-885.7031 1296.1949,-845.3135 1318,-802.4917 1362.3172,-715.4599 1331.919,-679.2646 1368,-588.5083 1380.4784,-557.1207 1400.3182,-524.1248 1415.5275,-500.9435"/>
<polygon fill="#000000" stroke="#000000" points="1418.4779,-502.8275 1421.1048,-492.5634 1412.6506,-498.949 1418.4779,-502.8275"/>
</g>
<!-- readjson&#45;&gt;unicodes -->
<g id="edge68" class="edge">
<title>readjson&#45;&gt;unicodes</title>
<path fill="none" stroke="#000000" d="M1205.1097,-908.1709C1203.0435,-883.2178 1199.697,-842.8026 1197.2162,-812.8413"/>
<polygon fill="#000000" stroke="#000000" points="1200.6916,-812.399 1196.3783,-802.722 1193.7155,-812.9768 1200.6916,-812.399"/>
</g>
<!-- readjson&#45;&gt;vartypes -->
<g id="edge64" class="edge">
<title>readjson&#45;&gt;vartypes</title>
<path fill="none" stroke="#000000" d="M1228.4152,-909.4123C1260.4769,-874.3524 1314.2254,-803.1522 1285,-745.5083 1281.3008,-738.212 882.9033,-449.4615 758.6067,-359.4864"/>
<polygon fill="#000000" stroke="#000000" points="760.634,-356.6331 750.4811,-353.6049 756.5296,-362.3036 760.634,-356.6331"/>
</g>
<!-- readjson&#45;&gt;messages -->
<g id="edge65" class="edge">
<title>readjson&#45;&gt;messages</title>
<path fill="none" stroke="#000000" d="M1236.7763,-910.3594C1267.5821,-887.4687 1314.9033,-847.7437 1342,-802.4917 1392.6813,-717.8529 1346.0468,-670.438 1401,-588.5083 1439.8058,-530.6527 1483.1719,-548.3372 1525,-492.6274 1564.2964,-440.2896 1560.6404,-418.4477 1579,-355.6274 1606.5186,-261.4682 1615.6328,-145.6403 1618.6019,-86.5923"/>
<polygon fill="#000000" stroke="#000000" points="1622.0987,-86.7409 1619.0729,-76.5874 1615.1064,-86.4117 1622.0987,-86.7409"/>
</g>
<!-- parseCommandLine&#45;&gt;regexes -->
<g id="edge5" class="edge">
<title>parseCommandLine&#45;&gt;regexes</title>
<path fill="none" stroke="#000000" d="M293.9585,-759.9291C554.1248,-728.6294 1175.4243,-653.8831 1399.5815,-626.9155"/>
<polygon fill="#000000" stroke="#000000" points="1400.1225,-630.3757 1409.6328,-625.7062 1399.2863,-623.4258 1400.1225,-630.3757"/>
</g>
<!-- parseCommandLine&#45;&gt;warnings -->
<g id="edge4" class="edge">
<title>parseCommandLine&#45;&gt;warnings</title>
<path fill="none" stroke="#000000" d="M189.8065,-751.3381C203.7137,-726.0858 225.9503,-683.7639 241,-645.4917 297.8342,-500.9596 225.7586,-415.5799 340,-310.3726 408.1976,-247.568 676.6337,-214.7159 813.6266,-201.7465"/>
<polygon fill="#000000" stroke="#000000" points="814.0278,-205.2244 823.6592,-200.81 813.3772,-198.2547 814.0278,-205.2244"/>
</g>
<!-- parseCommandLine&#45;&gt;args -->
<g id="edge1" class="edge">
<title>parseCommandLine&#45;&gt;args</title>
<path fill="none" stroke="#000000" d="M302.8897,-761.81C359.1911,-756.5181 426.3967,-750.421 487,-745.5083 1119.3737,-694.2461 1299.6026,-814.954 1911,-645.4917 1915.3148,-644.2958 1919.6856,-642.7509 1923.9836,-640.9996"/>
<polygon fill="#000000" stroke="#000000" points="1925.5096,-644.1516 1933.2261,-636.8917 1922.6665,-637.7549 1925.5096,-644.1516"/>
</g>
<!-- parseCommandLine&#45;&gt;messages -->
<g id="edge2" class="edge">
<title>parseCommandLine&#45;&gt;messages</title>
<path fill="none" stroke="#000000" d="M183.3325,-751.3286C196.7868,-701.0946 227,-576.4389 227,-470 227,-470 227,-470 227,-333 227,-181.3655 383.2191,-217.4448 528,-172.3726 713.2382,-114.7055 1293.2227,-70.1766 1523.9434,-54.3002"/>
<polygon fill="#000000" stroke="#000000" points="1524.2619,-57.7867 1533.9992,-53.6112 1523.7833,-50.8031 1524.2619,-57.7867"/>
</g>
<!-- processTemplate&#45;&gt;parseCmdLine -->
<g id="edge22" class="edge">
<title>processTemplate&#45;&gt;parseCmdLine</title>
<path fill="none" stroke="#000000" d="M2080.9976,-1211.0742C2147.5679,-1195.9992 2230.6253,-1164.821 2273,-1100.6274 2306.2153,-1050.3095 2245.1097,-992.055 2200.2629,-958.5692"/>
<polygon fill="#000000" stroke="#000000" points="2202.2449,-955.6827 2192.1047,-952.6125 2198.117,-961.3361 2202.2449,-955.6827"/>
</g>
<!-- processTemplate&#45;&gt;env -->
<g id="edge13" class="edge">
<title>processTemplate&#45;&gt;env</title>
<path fill="none" stroke="#000000" d="M2086.1966,-1212.3568C2156.449,-1197.8864 2244.5032,-1166.9034 2291,-1100.6274 2341.5867,-1028.5216 2325.584,-985.4724 2296,-902.5083 2281.0918,-860.7002 2246.0993,-822.6709 2220.5956,-799.0138"/>
<polygon fill="#000000" stroke="#000000" points="2222.7778,-796.268 2213.018,-792.1451 2218.0766,-801.4544 2222.7778,-796.268"/>
</g>
<!-- processTemplate&#45;&gt;variables -->
<g id="edge71" class="edge">
<title>processTemplate&#45;&gt;variables</title>
<path fill="none" stroke="#000000" d="M1984.7248,-1202.2007C1990.2608,-1145.0946 1996.7983,-993.9621 1925,-902.5083 1895.1528,-864.4901 1770.2762,-818.5785 1693.8216,-793.2082"/>
<polygon fill="#000000" stroke="#000000" points="1694.8818,-789.8725 1684.2887,-790.0679 1692.6916,-796.521 1694.8818,-789.8725"/>
</g>
<!-- processTemplate&#45;&gt;vartypes -->
<g id="edge72" class="edge">
<title>processTemplate&#45;&gt;vartypes</title>
<path fill="none" stroke="#000000" d="M1867.0115,-1215.9306C1501.7809,-1185.6022 392,-1081.098 392,-931 392,-931 392,-931 392,-617 392,-475.2304 569.1365,-388.7513 663.851,-352.6441"/>
<polygon fill="#000000" stroke="#000000" points="665.1705,-355.8874 673.3074,-349.102 662.715,-349.3322 665.1705,-355.8874"/>
</g>
<!-- processTemplate&#45;&gt;replacement -->
<g id="edge84" class="edge">
<title>processTemplate&#45;&gt;replacement</title>
<path fill="none" stroke="#000000" d="M1931.8901,-1204.2503C1866.4498,-1177.1524 1752.1834,-1129.8365 1683.6608,-1101.4624"/>
<polygon fill="#000000" stroke="#000000" points="1684.8837,-1098.1806 1674.3054,-1097.5884 1682.2056,-1104.648 1684.8837,-1098.1806"/>
</g>
<!-- processTemplate&#45;&gt;readlines -->
<g id="edge17" class="edge">
<title>processTemplate&#45;&gt;readlines</title>
<path fill="none" stroke="#000000" d="M1970.5556,-1202.4185C1945.0823,-1152.1557 1883.4819,-1030.6085 1852.0854,-968.6585"/>
<polygon fill="#000000" stroke="#000000" points="1855.1406,-966.9444 1847.498,-959.6068 1848.8967,-970.1089 1855.1406,-966.9444"/>
</g>
<!-- processTemplate&#45;&gt;collectCommand -->
<g id="edge27" class="edge">
<title>processTemplate&#45;&gt;collectCommand</title>
<path fill="none" stroke="#000000" d="M2005.5412,-1202.6739C2032.3621,-1177.2372 2076.2999,-1135.5672 2105.9173,-1107.4785"/>
<polygon fill="#000000" stroke="#000000" points="2108.6444,-1109.7159 2113.4917,-1100.2949 2103.8274,-1104.6368 2108.6444,-1109.7159"/>
</g>
<!-- processTemplate&#45;&gt;args -->
<g id="edge7" class="edge">
<title>processTemplate&#45;&gt;args</title>
<path fill="none" stroke="#000000" d="M2058.6581,-1207.0363C2147.4361,-1184.5182 2285.4457,-1143.6264 2316,-1100.6274 2367.0093,-1028.842 2340.2028,-987.9807 2319,-902.5083 2299.9965,-825.9015 2293.1645,-799.9321 2236,-745.5083 2159.9632,-673.117 2116.1853,-691.8728 2022,-645.4917 2018.6686,-643.8512 2015.2352,-642.1349 2011.788,-640.393"/>
<polygon fill="#000000" stroke="#000000" points="2013.1902,-637.1793 2002.6912,-635.7571 2010.0117,-643.4161 2013.1902,-637.1793"/>
</g>
<!-- processTemplate&#45;&gt;messages -->
<g id="edge8" class="edge">
<title>processTemplate&#45;&gt;messages</title>
<path fill="none" stroke="#000000" d="M2060.3792,-1207.2753C2154.1307,-1184.5242 2303.1928,-1142.9178 2341,-1100.6274 2487.8516,-936.3623 2450,-837.3371 2450,-617 2450,-617 2450,-617 2450,-333 2450,-179.2757 1934.2645,-90.8137 1715.8701,-60.2449"/>
<polygon fill="#000000" stroke="#000000" points="1716.0847,-56.7412 1705.6984,-58.833 1715.1222,-63.6747 1716.0847,-56.7412"/>
</g>
<!-- processTemplate&#45;&gt;matches -->
<g id="edge16" class="edge">
<title>processTemplate&#45;&gt;matches</title>
<path fill="none" stroke="#000000" d="M1985.514,-1202.168C1992.8604,-1147.4703 2005.4761,-1005.8104 1958,-902.5083 1938.3918,-859.8432 1898.1097,-823.4257 1867.7455,-800.3691"/>
<polygon fill="#000000" stroke="#000000" points="1869.5854,-797.376 1859.4696,-794.2261 1865.4132,-802.9968 1869.5854,-797.376"/>
</g>
<!-- processTemplate&#45;&gt;readjson -->
<g id="edge85" class="edge">
<title>processTemplate&#45;&gt;readjson</title>
<path fill="none" stroke="#000000" d="M1869.8319,-1214.9423C1665.7127,-1195.5035 1250.5727,-1150.2899 1208,-1100.6274 1175.6761,-1062.9205 1185.5061,-1001.2797 1195.9785,-963.6027"/>
<polygon fill="#000000" stroke="#000000" points="1199.4417,-964.2328 1198.9148,-953.6511 1192.7279,-962.2518 1199.4417,-964.2328"/>
</g>
<!-- runCommand -->
<g id="node29" class="node">
<title>runCommand</title>
<g id="a_node29"><a xlink:href="runCommand.md" xlink:title="runCommand.md">
<ellipse fill="#eee8aa" stroke="#000000" cx="1322" cy="-1078" rx="104.7872" ry="22.7556"/>
<text text-anchor="middle" x="1322" y="-1070.8" font-family="Times,serif" font-size="24.00" fill="#000000">runCommand</text>
</a>
</g>
</g>
<!-- processTemplate&#45;&gt;runCommand -->
<g id="edge70" class="edge">
<title>processTemplate&#45;&gt;runCommand</title>
<path fill="none" stroke="#000000" d="M1903.0441,-1207.4144C1777.3256,-1179.4134 1532.8109,-1124.9533 1404.7486,-1096.4304"/>
<polygon fill="#000000" stroke="#000000" points="1405.5028,-1093.0126 1394.981,-1094.2549 1403.9809,-1099.8452 1405.5028,-1093.0126"/>
</g>
<!-- opresult -->
<g id="node28" class="node">
<title>opresult</title>
<g id="a_node28"><a xlink:href="opresult.md" xlink:title="opresult.md">
<polygon fill="#98fb98" stroke="#000000" points="2882.3526,-1371.8581 2882.3526,-1392.1419 2840.5552,-1406.4846 2781.4448,-1406.4846 2739.6474,-1392.1419 2739.6474,-1371.8581 2781.4448,-1357.5154 2840.5552,-1357.5154 2882.3526,-1371.8581"/>
<polygon fill="none" stroke="#000000" points="2886.3486,-1369.0019 2886.3486,-1394.9981 2841.2213,-1410.4835 2780.7787,-1410.4835 2735.6514,-1394.9981 2735.6514,-1369.0019 2780.7787,-1353.5165 2841.2213,-1353.5165 2886.3486,-1369.0019"/>
<text text-anchor="middle" x="2811" y="-1374.8" font-family="Times,serif" font-size="24.00" fill="#000000">opresult</text>
</a>
</g>
</g>
<!-- runCommand&#45;&gt;runFunction -->
<g id="edge63" class="edge">
<title>runCommand&#45;&gt;runFunction</title>
<path fill="none" stroke="#000000" d="M1259.8132,-1059.7536C1165.9452,-1032.2115 988.642,-980.1884 890.5906,-951.4188"/>
<polygon fill="#000000" stroke="#000000" points="891.3563,-947.996 880.7754,-948.5389 889.3854,-954.7128 891.3563,-947.996"/>
</g>
<!-- runCommand&#45;&gt;parseNumber -->
<g id="edge37" class="edge">
<title>runCommand&#45;&gt;parseNumber</title>
<path fill="none" stroke="#000000" d="M1246.6544,-1062.195C1186.1894,-1045.9162 1102.9372,-1014.8846 1050,-959.4917 1010.9071,-918.5853 992.7588,-853.9073 984.7667,-812.7396"/>
<polygon fill="#000000" stroke="#000000" points="988.1921,-812.014 982.947,-802.8086 981.3067,-813.2757 988.1921,-812.014"/>
</g>
<!-- runCommand&#45;&gt;regexes -->
<g id="edge31" class="edge">
<title>runCommand&#45;&gt;regexes</title>
<path fill="none" stroke="#000000" d="M1328.8062,-1055.1828C1339.568,-1020.7755 1362.3695,-954.1459 1392,-902.5083 1420.056,-853.6145 1449.9586,-855.1803 1470,-802.4917 1488.2475,-754.5194 1488.4533,-694.5582 1485.9919,-656.0216"/>
<polygon fill="#000000" stroke="#000000" points="1489.4607,-655.4659 1485.2398,-645.7482 1482.4794,-655.9771 1489.4607,-655.4659"/>
</g>
<!-- runCommand&#45;&gt;parseCmdLine -->
<g id="edge28" class="edge">
<title>runCommand&#45;&gt;parseCmdLine</title>
<path fill="none" stroke="#000000" d="M1403.397,-1063.7045C1559.2197,-1036.3378 1898.8684,-976.6862 2064.4515,-947.6053"/>
<polygon fill="#000000" stroke="#000000" points="2065.376,-950.9966 2074.6198,-945.8195 2064.1651,-944.1021 2065.376,-950.9966"/>
</g>
<!-- runCommand&#45;&gt;env -->
<g id="edge32" class="edge">
<title>runCommand&#45;&gt;env</title>
<path fill="none" stroke="#000000" d="M1361.0611,-1056.8643C1428.2936,-1021.1525 1570.9264,-948.2951 1698,-902.5083 1859.4889,-844.321 2059.4508,-800.5038 2146.7521,-782.7082"/>
<polygon fill="#000000" stroke="#000000" points="2147.4763,-786.1327 2156.5827,-780.7175 2146.0869,-779.272 2147.4763,-786.1327"/>
</g>
<!-- runCommand&#45;&gt;variables -->
<g id="edge46" class="edge">
<title>runCommand&#45;&gt;variables</title>
<path fill="none" stroke="#000000" d="M1333.8557,-1055.2266C1353.1167,-1019.6992 1393.9292,-950.2191 1442,-902.5083 1485.5139,-859.3202 1545.4593,-821.7481 1586.5204,-798.5687"/>
<polygon fill="#000000" stroke="#000000" points="1588.4699,-801.489 1595.4974,-793.5602 1585.0593,-795.376 1588.4699,-801.489"/>
</g>
<!-- runCommand&#45;&gt;vartypes -->
<g id="edge34" class="edge">
<title>runCommand&#45;&gt;vartypes</title>
<path fill="none" stroke="#000000" d="M1219.4661,-1073.2849C1089.8045,-1064.1602 862.0107,-1037.4575 684,-959.4917 577.256,-912.7396 526.1948,-906.6827 474,-802.4917 389.0051,-632.8255 601.0718,-432.4382 687.4039,-360.4504"/>
<polygon fill="#000000" stroke="#000000" points="689.8677,-362.9551 695.3519,-353.89 685.4117,-357.5565 689.8677,-362.9551"/>
</g>
<!-- runCommand&#45;&gt;readlines -->
<g id="edge29" class="edge">
<title>runCommand&#45;&gt;readlines</title>
<path fill="none" stroke="#000000" d="M1384.9147,-1059.9013C1479.2763,-1032.7561 1657.1229,-981.5948 1758.0634,-952.5571"/>
<polygon fill="#000000" stroke="#000000" points="1759.2429,-955.8598 1767.8855,-949.7316 1757.3076,-949.1326 1759.2429,-955.8598"/>
</g>
<!-- runCommand&#45;&gt;funtypes -->
<g id="edge50" class="edge">
<title>runCommand&#45;&gt;funtypes</title>
<path fill="none" stroke="#000000" d="M1219.7331,-1073.1255C1064.3919,-1063.3391 780.3823,-1035.3032 718,-959.4917 643.7864,-869.3021 685.8089,-715.8916 709.3902,-649.3659"/>
<polygon fill="#000000" stroke="#000000" points="712.7303,-650.4219 712.8578,-639.8278 706.1516,-648.0301 712.7303,-650.4219"/>
</g>
<!-- runCommand&#45;&gt;warnings -->
<g id="edge36" class="edge">
<title>runCommand&#45;&gt;warnings</title>
<path fill="none" stroke="#000000" d="M1224.0024,-1070.017C1044.6938,-1054.243 671.5126,-1015.6725 555,-959.4917 445.5041,-906.6943 354,-895.5604 354,-774 354,-774 354,-774 354,-470 354,-266.8424 660.916,-213.7111 812.4089,-199.8599"/>
<polygon fill="#000000" stroke="#000000" points="812.9438,-203.3265 822.5997,-198.9659 812.3321,-196.3532 812.9438,-203.3265"/>
</g>
<!-- runCommand&#45;&gt;messages -->
<g id="edge35" class="edge">
<title>runCommand&#45;&gt;messages</title>
<path fill="none" stroke="#000000" d="M1217.4366,-1076.2477C905.0127,-1068.2131 0,-1023.4134 0,-774 0,-774 0,-774 0,-333 0,-179.4014 158.766,-216.1296 306,-172.3726 534.6754,-104.4118 1260.6301,-64.7254 1523.6588,-52.2783"/>
<polygon fill="#000000" stroke="#000000" points="1524.1262,-55.7603 1533.9506,-51.794 1523.7971,-48.768 1524.1262,-55.7603"/>
</g>
<!-- runCommand&#45;&gt;matches -->
<g id="edge30" class="edge">
<title>runCommand&#45;&gt;matches</title>
<path fill="none" stroke="#000000" d="M1342.0851,-1055.6593C1375.5769,-1019.4811 1446.2626,-947.5885 1518,-902.5083 1599.1607,-851.5063 1704.04,-813.0919 1768.8944,-792.0805"/>
<polygon fill="#000000" stroke="#000000" points="1770.103,-795.3686 1778.5572,-788.9829 1767.966,-788.7027 1770.103,-795.3686"/>
</g>
<!-- runCommand&#45;&gt;readjson -->
<g id="edge69" class="edge">
<title>runCommand&#45;&gt;readjson</title>
<path fill="none" stroke="#000000" d="M1304.534,-1055.6739C1284.7467,-1030.3806 1252.4027,-989.0364 1230.434,-960.9547"/>
<polygon fill="#000000" stroke="#000000" points="1233.1719,-958.7742 1224.2536,-953.0546 1227.6586,-963.0874 1233.1719,-958.7742"/>
</g>
</g>
</svg>
