<?xml version="1.0" encoding="UTF-8" standalone="no"?>
<!DOCTYPE svg PUBLIC "-//W3C//DTD SVG 1.1//EN"
 "http://www.w3.org/Graphics/SVG/1.1/DTD/svg11.dtd">
<!-- Generated by graphviz version 7.0.1 (20221109.1506)
 -->
<!-- Title: statictea Pages: 1 -->
<svg width="3020pt" height="1478pt"
 viewBox="0.00 0.00 3020.35 1478.41" xmlns="http://www.w3.org/2000/svg" xmlns:xlink="http://www.w3.org/1999/xlink">
<g id="graph0" class="graph" transform="scale(1 1) rotate(0) translate(4 1474.41)">
<title>statictea</title>
<polygon fill="white" stroke="none" points="-4,4 -4,-1474.41 3016.35,-1474.41 3016.35,4 -4,4"/>
<!-- args -->
<g id="node1" class="node">
<title>args</title>
<g id="a_node1"><a xlink:href="args.md" xlink:title="args.md">
<ellipse fill="palegoldenrod" stroke="black" cx="582" cy="-541" rx="39.7" ry="24.08"/>
<text text-anchor="middle" x="582" y="-534.8" font-family="Times,serif" font-size="24.00">args</text>
</a>
</g>
</g>
<!-- messages -->
<g id="node9" class="node">
<title>messages</title>
<g id="a_node9"><a xlink:href="messages.md" xlink:title="messages.md">
<polygon fill="palegreen" stroke="black" points="1631.25,-29.21 1631.25,-50.79 1583.66,-66.04 1516.34,-66.04 1468.75,-50.79 1468.75,-29.21 1516.34,-13.96 1583.66,-13.96 1631.25,-29.21"/>
<polygon fill="none" stroke="black" points="1635.26,-26.29 1635.26,-53.71 1584.28,-70.04 1515.72,-70.04 1464.74,-53.71 1464.74,-26.29 1515.72,-9.96 1584.28,-9.96 1635.26,-26.29"/>
<text text-anchor="middle" x="1550" y="-33.8" font-family="Times,serif" font-size="24.00">messages</text>
</a>
</g>
</g>
<!-- args&#45;&gt;messages -->
<g id="edge1" class="edge">
<title>args&#45;&gt;messages</title>
<path fill="none" stroke="black" d="M579.41,-516.7C573.01,-446.09 564.64,-233.26 682,-133.96 739.97,-84.91 1239.15,-55.69 1453.2,-45.31"/>
<polygon fill="black" stroke="black" points="1453.08,-48.82 1462.9,-44.84 1452.74,-41.83 1453.08,-48.82"/>
</g>
<!-- opresult -->
<g id="node10" class="node">
<title>opresult</title>
<g id="a_node10"><a xlink:href="opresult.md" xlink:title="opresult.md">
<ellipse fill="palegoldenrod" stroke="black" cx="1380" cy="-158" rx="66.44" ry="24.08"/>
<text text-anchor="middle" x="1380" y="-151.8" font-family="Times,serif" font-size="24.00">opresult</text>
</a>
</g>
</g>
<!-- args&#45;&gt;opresult -->
<g id="edge3" class="edge">
<title>args&#45;&gt;opresult</title>
<path fill="none" stroke="black" d="M588.38,-517.01C605.35,-460.54 657.36,-314.75 758,-248.06 846.01,-189.73 1156.58,-168.69 1302.8,-161.9"/>
<polygon fill="black" stroke="black" points="1302.54,-165.41 1312.37,-161.47 1302.22,-158.42 1302.54,-165.41"/>
</g>
<!-- cmdline -->
<g id="node2" class="node">
<title>cmdline</title>
<g id="a_node2"><a xlink:href="cmdline.md" xlink:title="cmdline.md">
<polygon fill="palegreen" stroke="black" points="321.89,-530.21 321.89,-551.79 279.78,-567.04 220.22,-567.04 178.11,-551.79 178.11,-530.21 220.22,-514.96 279.78,-514.96 321.89,-530.21"/>
<polygon fill="none" stroke="black" points="325.89,-527.4 325.89,-554.6 280.48,-571.04 219.52,-571.04 174.11,-554.6 174.11,-527.4 219.52,-510.96 280.48,-510.96 325.89,-527.4"/>
<text text-anchor="middle" x="250" y="-534.8" font-family="Times,serif" font-size="24.00">cmdline</text>
</a>
</g>
</g>
<!-- comparelines -->
<g id="node3" class="node">
<title>comparelines</title>
<g id="a_node3"><a xlink:href="comparelines.md" xlink:title="comparelines.md">
<polygon fill="palegreen" stroke="black" points="1149.42,-1379.21 1149.42,-1400.79 1084.74,-1416.04 993.26,-1416.04 928.58,-1400.79 928.58,-1379.21 993.26,-1363.96 1084.74,-1363.96 1149.42,-1379.21"/>
<polygon fill="none" stroke="black" points="1153.43,-1376.05 1153.43,-1403.95 1085.2,-1420.04 992.8,-1420.04 924.57,-1403.95 924.57,-1376.05 992.8,-1359.96 1085.2,-1359.96 1153.43,-1376.05"/>
<text text-anchor="middle" x="1039" y="-1383.8" font-family="Times,serif" font-size="24.00">comparelines</text>
</a>
</g>
</g>
<!-- env -->
<g id="node4" class="node">
<title>env</title>
<g id="a_node4"><a xlink:href="env.md" xlink:title="env.md">
<ellipse fill="palegoldenrod" stroke="black" cx="2494" cy="-709" rx="36.12" ry="24.08"/>
<text text-anchor="middle" x="2494" y="-702.8" font-family="Times,serif" font-size="24.00">env</text>
</a>
</g>
</g>
<!-- env&#45;&gt;messages -->
<g id="edge13" class="edge">
<title>env&#45;&gt;messages</title>
<path fill="none" stroke="black" d="M2504.58,-685.78C2516.79,-659.13 2536.54,-612.83 2547,-571.02 2563.96,-503.26 2566,-484.86 2566,-415 2566,-415 2566,-415 2566,-281 2566,-93.35 1901.28,-52.24 1647.17,-43.39"/>
<polygon fill="black" stroke="black" points="1647.37,-39.89 1637.26,-43.05 1647.14,-46.89 1647.37,-39.89"/>
</g>
<!-- tempFile -->
<g id="node24" class="node">
<title>tempFile</title>
<g id="a_node24"><a xlink:href="tempFile.md" xlink:title="tempFile.md">
<polygon fill="palegreen" stroke="black" points="2534.13,-530.21 2534.13,-551.79 2488.36,-567.04 2423.64,-567.04 2377.87,-551.79 2377.87,-530.21 2423.64,-514.96 2488.36,-514.96 2534.13,-530.21"/>
<polygon fill="none" stroke="black" points="2538.13,-527.33 2538.13,-554.67 2489.01,-571.04 2422.99,-571.04 2373.87,-554.67 2373.87,-527.33 2422.99,-510.96 2489.01,-510.96 2538.13,-527.33"/>
<text text-anchor="middle" x="2456" y="-534.8" font-family="Times,serif" font-size="24.00">tempFile</text>
</a>
</g>
</g>
<!-- env&#45;&gt;tempFile -->
<g id="edge12" class="edge">
<title>env&#45;&gt;tempFile</title>
<path fill="none" stroke="black" d="M2488.72,-684.92C2482.64,-658.38 2472.56,-614.35 2465.19,-582.16"/>
<polygon fill="black" stroke="black" points="2468.69,-581.76 2463.05,-572.79 2461.87,-583.32 2468.69,-581.76"/>
</g>
<!-- functions -->
<g id="node5" class="node">
<title>functions</title>
<g id="a_node5"><a xlink:href="functions.md" xlink:title="functions.md">
<ellipse fill="palegoldenrod" stroke="black" cx="2048" cy="-709" rx="201.55" ry="61.54"/>
<text text-anchor="middle" x="2048" y="-690.9" font-family="Times,serif" font-size="72.00">functions</text>
</a>
</g>
</g>
<!-- matches -->
<g id="node8" class="node">
<title>matches</title>
<g id="a_node8"><a xlink:href="matches.md" xlink:title="matches.md">
<ellipse fill="palegoldenrod" stroke="black" cx="1161" cy="-541" rx="67.35" ry="24.08"/>
<text text-anchor="middle" x="1161" y="-534.8" font-family="Times,serif" font-size="24.00">matches</text>
</a>
</g>
</g>
<!-- functions&#45;&gt;matches -->
<g id="edge39" class="edge">
<title>functions&#45;&gt;matches</title>
<path fill="none" stroke="black" d="M1876.98,-675.99C1681.11,-639.34 1369.49,-581.02 1231.14,-555.13"/>
<polygon fill="black" stroke="black" points="1231.85,-551.7 1221.37,-553.3 1230.56,-558.58 1231.85,-551.7"/>
</g>
<!-- functions&#45;&gt;messages -->
<g id="edge35" class="edge">
<title>functions&#45;&gt;messages</title>
<path fill="none" stroke="black" d="M2115.47,-650.73C2140.21,-627.6 2167.21,-599.63 2188,-571.02 2225.04,-520.05 2236.62,-505.37 2251,-444.02 2272.36,-352.91 2229.63,-323.3 2174,-248.06 2132.49,-191.91 2127.43,-167.16 2066,-133.96 1995.17,-95.67 1775.81,-65.91 1647.04,-51.17"/>
<polygon fill="black" stroke="black" points="1647.47,-47.7 1637.14,-50.05 1646.68,-54.65 1647.47,-47.7"/>
</g>
<!-- functions&#45;&gt;opresult -->
<g id="edge48" class="edge">
<title>functions&#45;&gt;opresult</title>
<path fill="none" stroke="black" d="M1888.43,-671.18C1812.54,-649.26 1722.73,-616.66 1650,-571.02 1586.84,-531.39 1465.86,-382.37 1432,-315.94 1411.54,-275.79 1396.61,-225.87 1388.13,-193.25"/>
<polygon fill="black" stroke="black" points="1391.63,-192.78 1385.78,-183.95 1384.84,-194.5 1391.63,-192.78"/>
</g>
<!-- parseNumber -->
<g id="node13" class="node">
<title>parseNumber</title>
<g id="a_node13"><a xlink:href="parseNumber.md" xlink:title="parseNumber.md">
<polygon fill="palegreen" stroke="black" points="2123.98,-530.21 2123.98,-551.79 2058.38,-567.04 1965.62,-567.04 1900.02,-551.79 1900.02,-530.21 1965.62,-514.96 2058.38,-514.96 2123.98,-530.21"/>
<polygon fill="none" stroke="black" points="2127.99,-527.04 2127.99,-554.96 2058.84,-571.04 1965.16,-571.04 1896.01,-554.96 1896.01,-527.04 1965.16,-510.96 2058.84,-510.96 2127.99,-527.04"/>
<text text-anchor="middle" x="2012" y="-534.8" font-family="Times,serif" font-size="24.00">parseNumber</text>
</a>
</g>
</g>
<!-- functions&#45;&gt;parseNumber -->
<g id="edge38" class="edge">
<title>functions&#45;&gt;parseNumber</title>
<path fill="none" stroke="black" d="M2034.8,-647.13C2030.12,-625.57 2024.98,-601.87 2020.77,-582.43"/>
<polygon fill="black" stroke="black" points="2024.2,-581.75 2018.66,-572.71 2017.36,-583.23 2024.2,-581.75"/>
</g>
<!-- readjson -->
<g id="node15" class="node">
<title>readjson</title>
<g id="a_node15"><a xlink:href="readjson.md" xlink:title="readjson.md">
<ellipse fill="palegoldenrod" stroke="black" cx="1771" cy="-541" rx="69.09" ry="24.08"/>
<text text-anchor="middle" x="1771" y="-534.8" font-family="Times,serif" font-size="24.00">readjson</text>
</a>
</g>
</g>
<!-- functions&#45;&gt;readjson -->
<g id="edge54" class="edge">
<title>functions&#45;&gt;readjson</title>
<path fill="none" stroke="black" d="M1957.3,-653.65C1909.36,-624.91 1852.71,-590.96 1814.57,-568.11"/>
<polygon fill="black" stroke="black" points="1816.48,-565.18 1806.1,-563.04 1812.88,-571.18 1816.48,-565.18"/>
</g>
<!-- regexes -->
<g id="node16" class="node">
<title>regexes</title>
<g id="a_node16"><a xlink:href="regexes.md" xlink:title="regexes.md">
<polygon fill="palegreen" stroke="black" points="1226.23,-403.21 1226.23,-424.79 1186.26,-440.04 1129.74,-440.04 1089.77,-424.79 1089.77,-403.21 1129.74,-387.96 1186.26,-387.96 1226.23,-403.21"/>
<polygon fill="none" stroke="black" points="1230.24,-400.46 1230.24,-427.54 1187,-444.04 1129,-444.04 1085.76,-427.54 1085.76,-400.46 1129,-383.96 1187,-383.96 1230.24,-400.46"/>
<text text-anchor="middle" x="1158" y="-407.8" font-family="Times,serif" font-size="24.00">regexes</text>
</a>
</g>
</g>
<!-- functions&#45;&gt;regexes -->
<g id="edge37" class="edge">
<title>functions&#45;&gt;regexes</title>
<path fill="none" stroke="black" d="M1909.71,-664.05C1826.29,-637.4 1717.94,-602.58 1622,-571.02 1480.37,-524.44 1314.95,-468.43 1224.86,-437.79"/>
<polygon fill="black" stroke="black" points="1226.02,-434.49 1215.42,-434.58 1223.76,-441.12 1226.02,-434.49"/>
</g>
<!-- signatures -->
<g id="node21" class="node">
<title>signatures</title>
<g id="a_node21"><a xlink:href="signatures.md" xlink:title="signatures.md">
<ellipse fill="palegoldenrod" stroke="black" cx="2162" cy="-414" rx="79.81" ry="24.08"/>
<text text-anchor="middle" x="2162" y="-407.8" font-family="Times,serif" font-size="24.00">signatures</text>
</a>
</g>
</g>
<!-- functions&#45;&gt;signatures -->
<g id="edge47" class="edge">
<title>functions&#45;&gt;signatures</title>
<path fill="none" stroke="black" d="M2115.75,-650.89C2137.36,-628.47 2158.61,-600.93 2170,-571.02 2185.09,-531.4 2178.77,-482 2171.56,-449.53"/>
<polygon fill="black" stroke="black" points="2174.98,-448.77 2169.25,-439.86 2168.17,-450.4 2174.98,-448.77"/>
</g>
<!-- unicodes -->
<g id="node26" class="node">
<title>unicodes</title>
<g id="a_node26"><a xlink:href="unicodes.md" xlink:title="unicodes.md">
<ellipse fill="palegoldenrod" stroke="black" cx="1604" cy="-414" rx="71.34" ry="24.08"/>
<text text-anchor="middle" x="1604" y="-407.8" font-family="Times,serif" font-size="24.00">unicodes</text>
</a>
</g>
</g>
<!-- functions&#45;&gt;unicodes -->
<g id="edge44" class="edge">
<title>functions&#45;&gt;unicodes</title>
<path fill="none" stroke="black" d="M1887.51,-671.54C1821.72,-650.51 1748.22,-618.51 1693,-571.02 1672.6,-553.48 1639.26,-488.68 1619.69,-448.32"/>
<polygon fill="black" stroke="black" points="1622.94,-446.99 1615.45,-439.5 1616.63,-450.02 1622.94,-446.99"/>
</g>
<!-- variables -->
<g id="node29" class="node">
<title>variables</title>
<g id="a_node29"><a xlink:href="variables.md" xlink:title="variables.md">
<ellipse fill="palegoldenrod" stroke="black" cx="2743" cy="-541" rx="72.66" ry="24.08"/>
<text text-anchor="middle" x="2743" y="-534.8" font-family="Times,serif" font-size="24.00">variables</text>
</a>
</g>
</g>
<!-- functions&#45;&gt;variables -->
<g id="edge55" class="edge">
<title>functions&#45;&gt;variables</title>
<path fill="none" stroke="black" d="M2193.52,-666.02C2217.02,-659.59 2241.14,-653.2 2264,-647.48 2407.49,-611.61 2576.77,-575.86 2670.79,-556.58"/>
<polygon fill="black" stroke="black" points="2671.3,-560.05 2680.39,-554.61 2669.89,-553.19 2671.3,-560.05"/>
</g>
<!-- vartypes -->
<g id="node30" class="node">
<title>vartypes</title>
<g id="a_node30"><a xlink:href="vartypes.md" xlink:title="vartypes.md">
<ellipse fill="palegoldenrod" stroke="black" cx="2042" cy="-282" rx="97.66" ry="33.88"/>
<text text-anchor="middle" x="2042" y="-273.2" font-family="Times,serif" font-size="36.00">vartypes</text>
</a>
</g>
</g>
<!-- functions&#45;&gt;vartypes -->
<g id="edge36" class="edge">
<title>functions&#45;&gt;vartypes</title>
<path fill="none" stroke="black" d="M2096.95,-649.04C2112.98,-626.14 2128.78,-598.76 2137,-571.02 2144.58,-545.44 2146.93,-535.75 2137,-510.98 2121.68,-472.77 2091.88,-480.6 2073,-444.02 2054.19,-407.59 2046.74,-361.19 2043.81,-327.56"/>
<polygon fill="black" stroke="black" points="2047.31,-327.46 2043.07,-317.75 2040.33,-327.98 2047.31,-327.46"/>
</g>
<!-- gethelp -->
<g id="node6" class="node">
<title>gethelp</title>
<g id="a_node6"><a xlink:href="gethelp.md" xlink:title="gethelp.md">
<polygon fill="palegreen" stroke="black" points="359.67,-1211.21 359.67,-1232.79 320.62,-1248.04 265.38,-1248.04 226.33,-1232.79 226.33,-1211.21 265.38,-1195.96 320.62,-1195.96 359.67,-1211.21"/>
<polygon fill="none" stroke="black" points="363.67,-1208.48 363.67,-1235.52 321.37,-1252.04 264.63,-1252.04 222.33,-1235.52 222.33,-1208.48 264.63,-1191.96 321.37,-1191.96 363.67,-1208.48"/>
<text text-anchor="middle" x="293" y="-1215.8" font-family="Times,serif" font-size="24.00">gethelp</text>
</a>
</g>
</g>
<!-- linebuffer -->
<g id="node7" class="node">
<title>linebuffer</title>
<g id="a_node7"><a xlink:href="linebuffer.md" xlink:title="linebuffer.md">
<polygon fill="palegreen" stroke="black" points="1405.91,-698.21 1405.91,-719.79 1356.17,-735.04 1285.83,-735.04 1236.09,-719.79 1236.09,-698.21 1285.83,-682.96 1356.17,-682.96 1405.91,-698.21"/>
<polygon fill="none" stroke="black" points="1409.91,-695.25 1409.91,-722.75 1356.77,-739.04 1285.23,-739.04 1232.09,-722.75 1232.09,-695.25 1285.23,-678.96 1356.77,-678.96 1409.91,-695.25"/>
<text text-anchor="middle" x="1321" y="-702.8" font-family="Times,serif" font-size="24.00">linebuffer</text>
</a>
</g>
</g>
<!-- matches&#45;&gt;regexes -->
<g id="edge7" class="edge">
<title>matches&#45;&gt;regexes</title>
<path fill="none" stroke="red" d="M1160.44,-516.49C1160.02,-499.34 1159.46,-475.68 1158.97,-455.52"/>
<polygon fill="red" stroke="red" points="1162.47,-455.55 1158.74,-445.64 1155.48,-455.72 1162.47,-455.55"/>
</g>
<!-- opresult&#45;&gt;messages -->
<g id="edge2" class="edge">
<title>opresult&#45;&gt;messages</title>
<path fill="none" stroke="red" d="M1410.39,-136.26C1435.38,-119.21 1471.3,-94.7 1500.44,-74.82"/>
<polygon fill="red" stroke="red" points="1502.1,-77.92 1508.39,-69.39 1498.16,-72.14 1502.1,-77.92"/>
</g>
<!-- parseCmdLine -->
<g id="node11" class="node">
<title>parseCmdLine</title>
<g id="a_node11"><a xlink:href="parseCmdLine.md" xlink:title="parseCmdLine.md">
<ellipse fill="palegoldenrod" stroke="black" cx="950" cy="-709" rx="111.95" ry="24.08"/>
<text text-anchor="middle" x="950" y="-702.8" font-family="Times,serif" font-size="24.00">parseCmdLine</text>
</a>
</g>
</g>
<!-- parseCmdLine&#45;&gt;args -->
<g id="edge20" class="edge">
<title>parseCmdLine&#45;&gt;args</title>
<path fill="none" stroke="black" d="M903.02,-686.81C830.55,-654.12 692.67,-591.92 623.6,-560.77"/>
<polygon fill="black" stroke="black" points="625.06,-557.59 614.51,-556.66 622.18,-563.97 625.06,-557.59"/>
</g>
<!-- parseCmdLine&#45;&gt;matches -->
<g id="edge18" class="edge">
<title>parseCmdLine&#45;&gt;matches</title>
<path fill="none" stroke="black" d="M978.9,-685.27C1016.88,-655.38 1083.61,-602.88 1124.88,-570.41"/>
<polygon fill="black" stroke="black" points="1126.9,-573.28 1132.6,-564.34 1122.58,-567.78 1126.9,-573.28"/>
</g>
<!-- parseCmdLine&#45;&gt;messages -->
<g id="edge17" class="edge">
<title>parseCmdLine&#45;&gt;messages</title>
<path fill="none" stroke="black" d="M928.8,-685.02C865.32,-613.4 687.75,-390.55 796,-248.06 875.68,-143.17 1267.84,-78.32 1452.94,-53.08"/>
<polygon fill="black" stroke="black" points="1453.35,-56.55 1462.79,-51.75 1452.41,-49.62 1453.35,-56.55"/>
</g>
<!-- parseCmdLine&#45;&gt;opresult -->
<g id="edge19" class="edge">
<title>parseCmdLine&#45;&gt;opresult</title>
<path fill="none" stroke="black" d="M954.5,-684.61C966.29,-628.07 1002.5,-481.41 1077,-383.98 1147.55,-291.72 1265.68,-219.35 1331.67,-183.57"/>
<polygon fill="black" stroke="black" points="1333.3,-186.67 1340.46,-178.86 1329.99,-180.5 1333.3,-186.67"/>
</g>
<!-- parseCmdLine&#45;&gt;regexes -->
<g id="edge16" class="edge">
<title>parseCmdLine&#45;&gt;regexes</title>
<path fill="none" stroke="black" d="M965.43,-684.69C990.13,-647.55 1040.33,-572.83 1085,-510.98 1098.99,-491.61 1115.01,-470.44 1128.47,-452.92"/>
<polygon fill="black" stroke="black" points="1131,-455.38 1134.33,-445.32 1125.45,-451.1 1131,-455.38"/>
</g>
<!-- parseCommandLine -->
<g id="node12" class="node">
<title>parseCommandLine</title>
<g id="a_node12"><a xlink:href="parseCommandLine.md" xlink:title="parseCommandLine.md">
<ellipse fill="palegoldenrod" stroke="black" cx="177" cy="-709" rx="149.4" ry="24.08"/>
<text text-anchor="middle" x="177" y="-702.8" font-family="Times,serif" font-size="24.00">parseCommandLine</text>
</a>
</g>
</g>
<!-- parseCommandLine&#45;&gt;args -->
<g id="edge4" class="edge">
<title>parseCommandLine&#45;&gt;args</title>
<path fill="none" stroke="black" d="M230.36,-686.13C311.54,-652.86 464.46,-590.18 538.98,-559.63"/>
<polygon fill="black" stroke="black" points="540.07,-562.97 547.99,-555.94 537.41,-556.49 540.07,-562.97"/>
</g>
<!-- parseCommandLine&#45;&gt;cmdline -->
<g id="edge6" class="edge">
<title>parseCommandLine&#45;&gt;cmdline</title>
<path fill="none" stroke="black" d="M187.3,-684.57C199.03,-657.91 218.37,-613.93 232.48,-581.85"/>
<polygon fill="black" stroke="black" points="235.61,-583.42 236.43,-572.86 229.2,-580.6 235.61,-583.42"/>
</g>
<!-- parseCommandLine&#45;&gt;matches -->
<g id="edge8" class="edge">
<title>parseCommandLine&#45;&gt;matches</title>
<path fill="none" stroke="black" d="M278.14,-690.94C477.56,-657.3 917.06,-583.15 1089.53,-554.06"/>
<polygon fill="black" stroke="black" points="1089.98,-557.53 1099.26,-552.42 1088.81,-550.63 1089.98,-557.53"/>
</g>
<!-- parseCommandLine&#45;&gt;messages -->
<g id="edge5" class="edge">
<title>parseCommandLine&#45;&gt;messages</title>
<path fill="none" stroke="black" d="M172.82,-684.54C164.36,-634.96 146,-515.77 146,-415 146,-415 146,-415 146,-281 146,-172.81 238.85,-172.34 340,-133.96 542.98,-56.95 1203.29,-43.69 1453.08,-41.44"/>
<polygon fill="black" stroke="black" points="1452.82,-44.94 1462.79,-41.36 1452.76,-37.94 1452.82,-44.94"/>
</g>
<!-- processTemplate -->
<g id="node14" class="node">
<title>processTemplate</title>
<g id="a_node14"><a xlink:href="processTemplate.md" xlink:title="processTemplate.md">
<ellipse fill="palegoldenrod" stroke="black" cx="734" cy="-1222" rx="124.4" ry="24.08"/>
<text text-anchor="middle" x="734" y="-1215.8" font-family="Times,serif" font-size="24.00">processTemplate</text>
</a>
</g>
</g>
<!-- processTemplate&#45;&gt;args -->
<g id="edge10" class="edge">
<title>processTemplate&#45;&gt;args</title>
<path fill="none" stroke="black" d="M647,-1204.4C604,-1191.34 555.9,-1168.3 530,-1128.04 414.45,-948.41 481.51,-855.49 530,-647.48 536.15,-621.12 549.88,-593.76 561.68,-573.52"/>
<polygon fill="black" stroke="black" points="564.53,-575.58 566.68,-565.21 558.53,-571.98 564.53,-575.58"/>
</g>
<!-- processTemplate&#45;&gt;env -->
<g id="edge14" class="edge">
<title>processTemplate&#45;&gt;env</title>
<path fill="none" stroke="black" d="M827.14,-1205.64C860.73,-1200.59 898.99,-1195.39 934,-1191.98 1214.14,-1164.63 1930.4,-1212.19 2199,-1128.04 2300.41,-1096.27 2336.86,-1085.67 2402,-1001.71 2463.06,-923.01 2484.03,-803.03 2490.88,-744.51"/>
<polygon fill="black" stroke="black" points="2494.33,-745.15 2491.94,-734.83 2487.37,-744.39 2494.33,-745.15"/>
</g>
<!-- processTemplate&#45;&gt;linebuffer -->
<g id="edge15" class="edge">
<title>processTemplate&#45;&gt;linebuffer</title>
<path fill="none" stroke="black" d="M735.21,-1197.57C738.16,-1165.91 748.31,-1109.98 783,-1079.96 921.95,-959.7 1048.6,-1120.28 1189,-1001.71 1240.28,-958.4 1214.55,-921.54 1242,-860.29 1259.25,-821.79 1281.91,-779.36 1298.53,-749.43"/>
<polygon fill="black" stroke="black" points="1301.58,-751.15 1303.4,-740.72 1295.47,-747.74 1301.58,-751.15"/>
</g>
<!-- processTemplate&#45;&gt;messages -->
<g id="edge11" class="edge">
<title>processTemplate&#45;&gt;messages</title>
<path fill="none" stroke="black" d="M645.47,-1204.66C596.77,-1191.49 538.57,-1168.27 500,-1128.04 363.8,-985.98 354,-906.8 354,-710 354,-710 354,-710 354,-281 354,-171.74 449.02,-173.16 551,-133.96 714.12,-71.25 1235.3,-49.74 1453,-43.36"/>
<polygon fill="black" stroke="black" points="1452.98,-46.87 1462.88,-43.08 1452.78,-39.87 1452.98,-46.87"/>
</g>
<!-- processTemplate&#45;&gt;opresult -->
<g id="edge86" class="edge">
<title>processTemplate&#45;&gt;opresult</title>
<path fill="none" stroke="black" d="M721.51,-1197.72C712.42,-1179.38 700.87,-1152.85 696,-1128.04 691.88,-1107.07 694.34,-1101.26 696,-1079.96 720.99,-760.17 690.48,-637.49 887,-383.98 941.32,-313.91 955.22,-290.6 1033,-248.06 1119.63,-200.68 1232.26,-177.82 1305.33,-167.28"/>
<polygon fill="black" stroke="black" points="1305.79,-170.75 1315.21,-165.9 1304.82,-163.82 1305.79,-170.75"/>
</g>
<!-- processTemplate&#45;&gt;parseCmdLine -->
<g id="edge21" class="edge">
<title>processTemplate&#45;&gt;parseCmdLine</title>
<path fill="none" stroke="black" d="M721.95,-1197.74C708.96,-1169.53 691.69,-1120.7 704,-1079.96 746.84,-938.15 863.86,-800.9 919.64,-741.17"/>
<polygon fill="black" stroke="black" points="922.06,-743.71 926.37,-734.04 916.97,-738.91 922.06,-743.71"/>
</g>
<!-- replacement -->
<g id="node18" class="node">
<title>replacement</title>
<g id="a_node18"><a xlink:href="replacement.md" xlink:title="replacement.md">
<ellipse fill="palegoldenrod" stroke="black" cx="1085" cy="-931" rx="94.51" ry="24.08"/>
<text text-anchor="middle" x="1085" y="-924.8" font-family="Times,serif" font-size="24.00">replacement</text>
</a>
</g>
</g>
<!-- processTemplate&#45;&gt;replacement -->
<g id="edge75" class="edge">
<title>processTemplate&#45;&gt;replacement</title>
<path fill="none" stroke="black" d="M723.14,-1197.53C711.06,-1167.56 696.15,-1115.37 720,-1079.96 779.02,-992.36 899.72,-956.6 986.16,-942.02"/>
<polygon fill="black" stroke="black" points="986.52,-945.51 995.83,-940.46 985.4,-938.6 986.52,-945.51"/>
</g>
<!-- runCommand -->
<g id="node19" class="node">
<title>runCommand</title>
<g id="a_node19"><a xlink:href="runCommand.md" xlink:title="runCommand.md">
<ellipse fill="palegoldenrod" stroke="black" cx="1613" cy="-931" rx="338.91" ry="70.92"/>
<text text-anchor="middle" x="1613" y="-909.8" font-family="Times,serif" font-size="84.00">runCommand</text>
</a>
</g>
</g>
<!-- processTemplate&#45;&gt;runCommand -->
<g id="edge63" class="edge">
<title>processTemplate&#45;&gt;runCommand</title>
<path fill="none" stroke="black" d="M743.67,-1197.74C758.26,-1165.74 789.04,-1108.83 834,-1079.96 845.17,-1072.79 1125.77,-1020.53 1347.02,-980.13"/>
<polygon fill="black" stroke="black" points="1347.47,-983.6 1356.68,-978.36 1346.22,-976.71 1347.47,-983.6"/>
</g>
<!-- startingvars -->
<g id="node22" class="node">
<title>startingvars</title>
<g id="a_node22"><a xlink:href="startingvars.md" xlink:title="startingvars.md">
<ellipse fill="palegoldenrod" stroke="black" cx="2099" cy="-1104" rx="90.52" ry="24.08"/>
<text text-anchor="middle" x="2099" y="-1097.8" font-family="Times,serif" font-size="24.00">startingvars</text>
</a>
</g>
</g>
<!-- processTemplate&#45;&gt;startingvars -->
<g id="edge85" class="edge">
<title>processTemplate&#45;&gt;startingvars</title>
<path fill="none" stroke="black" d="M828.44,-1205.92C861.74,-1200.97 899.47,-1195.77 934,-1191.98 1327.07,-1148.84 1797.14,-1120.96 1998.94,-1110.12"/>
<polygon fill="black" stroke="black" points="1999.08,-1113.62 2008.88,-1109.59 1998.7,-1106.63 1999.08,-1113.62"/>
</g>
<!-- processTemplate&#45;&gt;variables -->
<g id="edge64" class="edge">
<title>processTemplate&#45;&gt;variables</title>
<path fill="none" stroke="black" d="M826.88,-1205.62C860.54,-1200.55 898.9,-1195.35 934,-1191.98 1230.53,-1163.45 1988.41,-1216.07 2273,-1128.04 2493.61,-1059.8 2536.65,-971.71 2650,-770.52 2686.92,-704.98 2716.95,-621.82 2732.17,-576.06"/>
<polygon fill="black" stroke="black" points="2735.45,-577.29 2735.24,-566.7 2728.8,-575.11 2735.45,-577.29"/>
</g>
<!-- processTemplate&#45;&gt;vartypes -->
<g id="edge65" class="edge">
<title>processTemplate&#45;&gt;vartypes</title>
<path fill="none" stroke="black" d="M829.91,-1206.33C1100.39,-1164.63 1856.41,-1045.54 1961,-1001.71 2124.82,-933.05 2205.45,-928.32 2287,-770.52 2326.23,-694.6 2280.4,-424.45 2251,-383.98 2234.16,-360.8 2171.54,-332.21 2119.2,-311.38"/>
<polygon fill="black" stroke="black" points="2120.54,-308.14 2109.95,-307.74 2117.97,-314.66 2120.54,-308.14"/>
</g>
<!-- readjson&#45;&gt;messages -->
<g id="edge50" class="edge">
<title>readjson&#45;&gt;messages</title>
<path fill="none" stroke="black" d="M1774.41,-516.79C1777.08,-497.39 1780.57,-468.97 1782,-444.02 1787.1,-354.71 1773.71,-329.19 1736,-248.06 1711.02,-194.32 1706.15,-178.45 1667,-133.96 1647.58,-111.89 1622.43,-91.14 1600.43,-74.88"/>
<polygon fill="black" stroke="black" points="1602.59,-72.12 1592.44,-69.08 1598.47,-77.78 1602.59,-72.12"/>
</g>
<!-- readjson&#45;&gt;opresult -->
<g id="edge53" class="edge">
<title>readjson&#45;&gt;opresult</title>
<path fill="none" stroke="black" d="M1772.73,-516.62C1775.43,-461.78 1774.12,-323.81 1701,-248.06 1666.73,-212.55 1535.5,-184.81 1451.81,-170.26"/>
<polygon fill="black" stroke="black" points="1452.53,-166.83 1442.08,-168.59 1451.35,-173.73 1452.53,-166.83"/>
</g>
<!-- readjson&#45;&gt;unicodes -->
<g id="edge51" class="edge">
<title>readjson&#45;&gt;unicodes</title>
<path fill="none" stroke="black" d="M1742.67,-518.8C1714.92,-498.03 1672.47,-466.25 1641.84,-443.33"/>
<polygon fill="black" stroke="black" points="1644.06,-440.62 1633.96,-437.43 1639.87,-446.22 1644.06,-440.62"/>
</g>
<!-- utf8decoder -->
<g id="node28" class="node">
<title>utf8decoder</title>
<g id="a_node28"><a xlink:href="utf8decoder.md" xlink:title="utf8decoder.md">
<polygon fill="palegreen" stroke="black" points="1688.04,-271.21 1688.04,-292.79 1629.44,-308.04 1546.56,-308.04 1487.96,-292.79 1487.96,-271.21 1546.56,-255.96 1629.44,-255.96 1688.04,-271.21"/>
<polygon fill="none" stroke="black" points="1692.03,-268.12 1692.03,-295.88 1629.95,-312.04 1546.05,-312.04 1483.97,-295.88 1483.97,-268.12 1546.05,-251.96 1629.95,-251.96 1692.03,-268.12"/>
<text text-anchor="middle" x="1588" y="-275.8" font-family="Times,serif" font-size="24.00">utf8decoder</text>
</a>
</g>
</g>
<!-- readjson&#45;&gt;utf8decoder -->
<g id="edge52" class="edge">
<title>readjson&#45;&gt;utf8decoder</title>
<path fill="none" stroke="black" d="M1760.43,-516.96C1745.51,-485.53 1716.44,-428.07 1684,-383.98 1667.34,-361.34 1646.02,-338.45 1627.71,-320.2"/>
<polygon fill="black" stroke="black" points="1630.2,-317.73 1620.62,-313.22 1625.29,-322.72 1630.2,-317.73"/>
</g>
<!-- readjson&#45;&gt;vartypes -->
<g id="edge49" class="edge">
<title>readjson&#45;&gt;vartypes</title>
<path fill="none" stroke="black" d="M1779.19,-516.76C1791.77,-483.79 1818.61,-423.1 1858,-383.98 1888.96,-353.23 1931.21,-329.15 1967.42,-312.23"/>
<polygon fill="black" stroke="black" points="1968.44,-315.62 1976.08,-308.28 1965.53,-309.25 1968.44,-315.62"/>
</g>
<!-- repl -->
<g id="node17" class="node">
<title>repl</title>
<g id="a_node17"><a xlink:href="repl.md" xlink:title="repl.md">
<ellipse fill="palegoldenrod" stroke="black" cx="981" cy="-1222" rx="38.37" ry="24.08"/>
<text text-anchor="middle" x="981" y="-1215.8" font-family="Times,serif" font-size="24.00">repl</text>
</a>
</g>
</g>
<!-- repl&#45;&gt;args -->
<g id="edge109" class="edge">
<title>repl&#45;&gt;args</title>
<path fill="none" stroke="black" d="M947.05,-1210.19C907.27,-1196.22 841.09,-1168.75 796,-1128.04 656.11,-1001.75 620.78,-951.44 568,-770.52 548.49,-703.65 562.25,-621.24 572.88,-575.91"/>
<polygon fill="black" stroke="black" points="576.22,-576.96 575.2,-566.42 569.42,-575.3 576.22,-576.96"/>
</g>
<!-- repl&#45;&gt;env -->
<g id="edge107" class="edge">
<title>repl&#45;&gt;env</title>
<path fill="none" stroke="black" d="M1019.46,-1218.72C1249.46,-1205.03 2433.31,-1134.31 2440,-1128.04 2548.15,-1026.69 2518.97,-824.04 2502.07,-743.82"/>
<polygon fill="black" stroke="black" points="2505.56,-743.4 2500,-734.38 2498.72,-744.89 2505.56,-743.4"/>
</g>
<!-- repl&#45;&gt;matches -->
<g id="edge112" class="edge">
<title>repl&#45;&gt;matches</title>
<path fill="none" stroke="black" d="M975.14,-1197.87C961.4,-1138.84 931.8,-978.86 981,-860.29 1002.65,-808.11 1040.92,-818.34 1071,-770.52 1101.84,-721.48 1092.64,-701.33 1114,-647.48 1123.65,-623.16 1135.68,-596.21 1145.15,-575.64"/>
<polygon fill="black" stroke="black" points="1148.32,-577.14 1149.35,-566.6 1141.97,-574.2 1148.32,-577.14"/>
</g>
<!-- repl&#45;&gt;messages -->
<g id="edge106" class="edge">
<title>repl&#45;&gt;messages</title>
<path fill="none" stroke="black" d="M946.11,-1211.42C898.04,-1197.36 809.71,-1168.36 742,-1128.04 558.68,-1018.88 506,-923.36 506,-710 506,-710 506,-710 506,-281 506,-193.18 559.72,-173.76 638,-133.96 778.63,-62.45 1248.4,-45.95 1453.18,-42.14"/>
<polygon fill="black" stroke="black" points="1453.06,-45.64 1462.99,-41.97 1452.93,-38.64 1453.06,-45.64"/>
</g>
<!-- repl&#45;&gt;opresult -->
<g id="edge110" class="edge">
<title>repl&#45;&gt;opresult</title>
<path fill="none" stroke="black" d="M957.38,-1202.81C915.54,-1168.83 830.18,-1090.99 802,-1001.71 754.6,-851.55 750.53,-798.54 795,-647.48 861.16,-422.74 942.56,-375.74 1139,-248.06 1193.36,-212.73 1263.67,-188.81 1314.3,-174.73"/>
<polygon fill="black" stroke="black" points="1314.92,-178.19 1323.66,-172.19 1313.09,-171.44 1314.92,-178.19"/>
</g>
<!-- repl&#45;&gt;regexes -->
<g id="edge113" class="edge">
<title>repl&#45;&gt;regexes</title>
<path fill="none" stroke="black" d="M964.93,-1199.75C908.15,-1121.94 725.86,-846.66 829,-647.48 884.4,-540.49 1014.22,-472.22 1093.21,-439.01"/>
<polygon fill="black" stroke="black" points="1094.23,-442.37 1102.13,-435.32 1091.56,-435.9 1094.23,-442.37"/>
</g>
<!-- repl&#45;&gt;runCommand -->
<g id="edge114" class="edge">
<title>repl&#45;&gt;runCommand</title>
<path fill="none" stroke="black" d="M1011.48,-1207.06C1091.57,-1170.44 1312.1,-1069.6 1462.67,-1000.74"/>
<polygon fill="black" stroke="black" points="1463.92,-1004.02 1471.56,-996.68 1461.01,-997.66 1463.92,-1004.02"/>
</g>
<!-- repl&#45;&gt;startingvars -->
<g id="edge111" class="edge">
<title>repl&#45;&gt;startingvars</title>
<path fill="none" stroke="black" d="M1019.39,-1219.2C1153.96,-1212.54 1616.59,-1186.54 1994,-1128.04 2002.98,-1126.65 2012.35,-1124.95 2021.62,-1123.12"/>
<polygon fill="black" stroke="black" points="2022.28,-1126.56 2031.38,-1121.13 2020.88,-1119.7 2022.28,-1126.56"/>
</g>
<!-- repl&#45;&gt;unicodes -->
<g id="edge116" class="edge">
<title>repl&#45;&gt;unicodes</title>
<path fill="none" stroke="black" d="M1019.32,-1218.59C1185.31,-1207.29 1839.4,-1153.52 1961,-1001.71 2000.29,-952.65 1994.19,-913.67 1961,-860.29 1913.37,-783.69 1846.47,-830.38 1779,-770.52 1699.84,-700.28 1693.04,-667.25 1649,-571.02 1630.72,-531.07 1618.02,-481.93 1610.88,-449.6"/>
<polygon fill="black" stroke="black" points="1614.33,-449.03 1608.82,-439.98 1607.49,-450.49 1614.33,-449.03"/>
</g>
<!-- repl&#45;&gt;variables -->
<g id="edge115" class="edge">
<title>repl&#45;&gt;variables</title>
<path fill="none" stroke="black" d="M1019.49,-1218.75C1103.71,-1213.85 1310.65,-1201.81 1484,-1191.98 1611.33,-1184.75 2533.16,-1211.03 2630,-1128.04 2796.12,-985.68 2765.09,-679.5 2749.11,-576.57"/>
<polygon fill="black" stroke="black" points="2752.58,-576.13 2747.54,-566.81 2745.67,-577.24 2752.58,-576.13"/>
</g>
<!-- repl&#45;&gt;vartypes -->
<g id="edge108" class="edge">
<title>repl&#45;&gt;vartypes</title>
<path fill="none" stroke="black" d="M1019.49,-1218.73C1252.39,-1205.01 2463.33,-1133.42 2471,-1128.04 2584.15,-1048.75 2616.74,-630.24 2547,-510.98 2516.37,-458.59 2478.62,-477.5 2428,-444.02 2391.51,-419.89 2388.67,-404.43 2350,-383.98 2329.6,-373.19 2208.85,-334.76 2124.75,-308.54"/>
<polygon fill="black" stroke="black" points="2125.95,-305.25 2115.36,-305.62 2123.87,-311.93 2125.95,-305.25"/>
</g>
<!-- replacement&#45;&gt;args -->
<g id="edge74" class="edge">
<title>replacement&#45;&gt;args</title>
<path fill="none" stroke="black" d="M1043.71,-908.98C1014.53,-894.49 974.31,-875.22 938,-860.29 826.49,-814.45 768.72,-854.28 682,-770.52 639.78,-729.74 657.67,-701.2 634,-647.48 623.06,-622.66 609.48,-595.2 598.93,-574.52"/>
<polygon fill="black" stroke="black" points="602.1,-573.01 594.42,-565.72 595.87,-576.21 602.1,-573.01"/>
</g>
<!-- replacement&#45;&gt;env -->
<g id="edge66" class="edge">
<title>replacement&#45;&gt;env</title>
<path fill="none" stroke="black" d="M1128.28,-909.24C1164.08,-893.06 1216.69,-871.52 1265,-860.29 1711.29,-756.57 1841.99,-856.66 2292,-770.52 2348.37,-759.73 2411.45,-739.46 2451.88,-725.37"/>
<polygon fill="black" stroke="black" points="2452.96,-728.7 2461.23,-722.07 2450.64,-722.09 2452.96,-728.7"/>
</g>
<!-- replacement&#45;&gt;linebuffer -->
<g id="edge69" class="edge">
<title>replacement&#45;&gt;linebuffer</title>
<path fill="none" stroke="black" d="M1109.37,-907.28C1150,-869.4 1231.98,-792.98 1281.13,-747.17"/>
<polygon fill="black" stroke="black" points="1283.28,-749.95 1288.2,-740.57 1278.5,-744.83 1283.28,-749.95"/>
</g>
<!-- replacement&#45;&gt;messages -->
<g id="edge70" class="edge">
<title>replacement&#45;&gt;messages</title>
<path fill="none" stroke="black" d="M1037.3,-909.81C933.43,-862.28 696,-732.77 696,-542 696,-542 696,-542 696,-281 696,-170.67 793.86,-175.66 896,-133.96 995.02,-93.53 1296.94,-62.67 1453.52,-48.89"/>
<polygon fill="black" stroke="black" points="1453.37,-52.42 1463.03,-48.06 1452.76,-45.44 1453.37,-52.42"/>
</g>
<!-- replacement&#45;&gt;opresult -->
<g id="edge73" class="edge">
<title>replacement&#45;&gt;opresult</title>
<path fill="none" stroke="black" d="M1087.66,-906.48C1094.74,-846.87 1115.3,-691.42 1142,-647.48 1170.15,-601.17 1205.92,-615.42 1237,-571.02 1323.95,-446.79 1296.21,-390.94 1347,-248.06 1353.57,-229.58 1361.16,-209.05 1367.4,-192.36"/>
<polygon fill="black" stroke="black" points="1370.52,-194.01 1370.75,-183.42 1363.96,-191.56 1370.52,-194.01"/>
</g>
<!-- replacement&#45;&gt;parseCmdLine -->
<g id="edge68" class="edge">
<title>replacement&#45;&gt;parseCmdLine</title>
<path fill="none" stroke="black" d="M1070.81,-906.87C1046.7,-867.59 997.7,-787.73 970.08,-742.73"/>
<polygon fill="black" stroke="black" points="973.21,-741.13 965,-734.44 967.24,-744.79 973.21,-741.13"/>
</g>
<!-- replacement&#45;&gt;tempFile -->
<g id="edge72" class="edge">
<title>replacement&#45;&gt;tempFile</title>
<path fill="none" stroke="black" d="M1100.87,-906.77C1121.12,-876.43 1156.35,-821.19 1180,-770.52 1204.5,-718.03 1177.2,-682.95 1223,-647.48 1303.57,-585.08 2035.48,-579.89 2137,-571.02 2212.78,-564.41 2298.65,-556.57 2362.2,-550.71"/>
<polygon fill="black" stroke="black" points="2362.25,-554.22 2371.89,-549.82 2361.61,-547.25 2362.25,-554.22"/>
</g>
<!-- replacement&#45;&gt;variables -->
<g id="edge71" class="edge">
<title>replacement&#45;&gt;variables</title>
<path fill="none" stroke="black" d="M1128.29,-909.28C1164.09,-893.12 1216.71,-871.59 1265,-860.29 1480.96,-809.77 2073.62,-892.27 2259,-770.52 2311.04,-736.34 2276.81,-685.66 2326,-647.48 2378.72,-606.57 2561.1,-571.37 2666.38,-553.84"/>
<polygon fill="black" stroke="black" points="2666.78,-557.33 2676.08,-552.25 2665.65,-550.42 2666.78,-557.33"/>
</g>
<!-- replacement&#45;&gt;vartypes -->
<g id="edge67" class="edge">
<title>replacement&#45;&gt;vartypes</title>
<path fill="none" stroke="black" d="M1093.72,-906.6C1105.2,-875.61 1125.79,-819.2 1142,-770.52 1160.08,-716.22 1144.64,-692.48 1180,-647.48 1220.94,-595.38 1254.3,-609.85 1308,-571.02 1410.91,-496.61 1409.82,-439.57 1524,-383.98 1655.87,-319.77 1825.38,-296.38 1933.88,-287.86"/>
<polygon fill="black" stroke="black" points="1933.95,-291.37 1943.66,-287.13 1933.42,-284.39 1933.95,-291.37"/>
</g>
<!-- runCommand&#45;&gt;env -->
<g id="edge25" class="edge">
<title>runCommand&#45;&gt;env</title>
<path fill="none" stroke="black" d="M1885.85,-888.65C2031.25,-862.57 2211.84,-823.65 2368,-770.52 2398.96,-759.98 2432.23,-743.77 2456.81,-730.78"/>
<polygon fill="black" stroke="black" points="2458.29,-733.96 2465.45,-726.15 2454.98,-727.79 2458.29,-733.96"/>
</g>
<!-- runCommand&#45;&gt;functions -->
<g id="edge56" class="edge">
<title>runCommand&#45;&gt;functions</title>
<path fill="none" stroke="black" d="M1741.46,-865.03C1802.69,-834.07 1875.3,-797.34 1934.48,-767.41"/>
<polygon fill="black" stroke="black" points="1935.91,-770.61 1943.26,-762.97 1932.75,-764.36 1935.91,-770.61"/>
</g>
<!-- runCommand&#45;&gt;linebuffer -->
<g id="edge22" class="edge">
<title>runCommand&#45;&gt;linebuffer</title>
<path fill="none" stroke="black" d="M1523.01,-862.2C1471.91,-823.7 1410.02,-777.07 1368.32,-745.65"/>
<polygon fill="black" stroke="black" points="1370.52,-742.93 1360.43,-739.71 1366.31,-748.52 1370.52,-742.93"/>
</g>
<!-- runCommand&#45;&gt;matches -->
<g id="edge23" class="edge">
<title>runCommand&#45;&gt;matches</title>
<path fill="none" stroke="black" d="M1536,-861.57C1509.77,-835.17 1482.04,-803.41 1462,-770.52 1431.86,-721.05 1458.88,-689.49 1419,-647.48 1404.46,-632.17 1289.82,-588.7 1218.33,-562.59"/>
<polygon fill="black" stroke="black" points="1219.7,-559.37 1209.1,-559.23 1217.3,-565.94 1219.7,-559.37"/>
</g>
<!-- runCommand&#45;&gt;messages -->
<g id="edge29" class="edge">
<title>runCommand&#45;&gt;messages</title>
<path fill="none" stroke="black" d="M1572.05,-860.4C1556.95,-832.97 1540.49,-800.83 1528,-770.52 1506.24,-717.72 1522.52,-695.1 1491,-647.48 1461.65,-603.15 1430.16,-614.1 1399,-571.02 1363.45,-521.87 1365.22,-502.47 1349,-444.02 1317.42,-330.26 1314.81,-299.7 1305,-182.04 1303.22,-160.75 1292.86,-151.55 1305,-133.96 1338.23,-85.81 1399.9,-62.57 1453.05,-51.38"/>
<polygon fill="black" stroke="black" points="1453.64,-54.83 1462.77,-49.46 1452.28,-47.96 1453.64,-54.83"/>
</g>
<!-- runCommand&#45;&gt;opresult -->
<g id="edge58" class="edge">
<title>runCommand&#45;&gt;opresult</title>
<path fill="none" stroke="black" d="M1592.27,-859.93C1567.94,-777.85 1530.55,-652.35 1528,-647.48 1474.38,-545.08 1404.14,-553.14 1366,-444.02 1335.86,-357.79 1356.4,-247.92 1370.25,-193.19"/>
<polygon fill="black" stroke="black" points="1373.55,-194.4 1372.7,-183.84 1366.78,-192.63 1373.55,-194.4"/>
</g>
<!-- runCommand&#45;&gt;parseCmdLine -->
<g id="edge61" class="edge">
<title>runCommand&#45;&gt;parseCmdLine</title>
<path fill="none" stroke="black" d="M1433.58,-870.46C1297.69,-825.37 1118.27,-765.84 1020.66,-733.45"/>
<polygon fill="black" stroke="black" points="1021.78,-730.13 1011.19,-730.3 1019.57,-736.77 1021.78,-730.13"/>
</g>
<!-- runCommand&#45;&gt;readjson -->
<g id="edge57" class="edge">
<title>runCommand&#45;&gt;readjson</title>
<path fill="none" stroke="black" d="M1641.43,-860.19C1675.63,-776.21 1731.63,-638.68 1757.33,-575.57"/>
<polygon fill="black" stroke="black" points="1760.52,-577.02 1761.05,-566.43 1754.04,-574.38 1760.52,-577.02"/>
</g>
<!-- runCommand&#45;&gt;regexes -->
<g id="edge24" class="edge">
<title>runCommand&#45;&gt;regexes</title>
<path fill="none" stroke="black" d="M1557.98,-860.69C1538.06,-833.56 1516.44,-801.55 1500,-770.52 1472.67,-718.93 1491.97,-691.82 1454,-647.48 1408.89,-594.81 1373.52,-612.57 1318,-571.02 1270.18,-535.23 1222.01,-486.06 1191.21,-452.55"/>
<polygon fill="black" stroke="black" points="1194.1,-450.53 1184.78,-445.5 1188.93,-455.25 1194.1,-450.53"/>
</g>
<!-- runCommand&#45;&gt;signatures -->
<g id="edge62" class="edge">
<title>runCommand&#45;&gt;signatures</title>
<path fill="none" stroke="black" d="M1902.25,-893.84C2052.23,-868.52 2213.46,-828.67 2259,-770.52 2336.99,-670.94 2236.67,-513.13 2186.93,-446.42"/>
<polygon fill="black" stroke="black" points="2190.02,-444.69 2181.19,-438.84 2184.44,-448.92 2190.02,-444.69"/>
</g>
<!-- runCommand&#45;&gt;unicodes -->
<g id="edge59" class="edge">
<title>runCommand&#45;&gt;unicodes</title>
<path fill="none" stroke="black" d="M1615.11,-859.67C1615.79,-802.27 1614.39,-719.24 1604,-647.48 1598.96,-612.72 1588.48,-605.86 1584,-571.02 1580.6,-544.55 1581.26,-537.52 1584,-510.98 1586.13,-490.32 1590.77,-467.56 1595.05,-449.39"/>
<polygon fill="black" stroke="black" points="1598.39,-450.47 1597.35,-439.92 1591.58,-448.81 1598.39,-450.47"/>
</g>
<!-- runCommand&#45;&gt;utf8decoder -->
<g id="edge60" class="edge">
<title>runCommand&#45;&gt;utf8decoder</title>
<path fill="none" stroke="black" d="M1602.07,-859.62C1592.99,-802.39 1579.43,-719.58 1566,-647.48 1549.09,-556.71 1533.38,-535.88 1524,-444.02 1521.29,-417.47 1516.56,-409.61 1524,-383.98 1530.55,-361.4 1543.83,-339.04 1556.61,-321.12"/>
<polygon fill="black" stroke="black" points="1559.19,-323.52 1562.3,-313.39 1553.55,-319.36 1559.19,-323.52"/>
</g>
<!-- runCommand&#45;&gt;variables -->
<g id="edge34" class="edge">
<title>runCommand&#45;&gt;variables</title>
<path fill="none" stroke="black" d="M1921.41,-901.4C2053.59,-879.29 2205.8,-840.07 2330,-770.52 2396.38,-733.35 2385.09,-688.74 2449,-647.48 2518.62,-602.53 2609.89,-573.66 2672.16,-557.69"/>
<polygon fill="black" stroke="black" points="2672.73,-561.15 2681.58,-555.32 2671.03,-554.36 2672.73,-561.15"/>
</g>
<!-- runCommand&#45;&gt;vartypes -->
<g id="edge28" class="edge">
<title>runCommand&#45;&gt;vartypes</title>
<path fill="none" stroke="black" d="M1659.26,-860.41C1707.11,-788.26 1783.81,-672.09 1849,-571.02 1866.12,-544.48 1869.67,-537.38 1887,-510.98 1930.14,-445.23 1981.76,-369.96 2013.2,-324.48"/>
<polygon fill="black" stroke="black" points="2015.92,-326.7 2018.73,-316.49 2010.16,-322.72 2015.92,-326.7"/>
</g>
<!-- runner -->
<g id="node20" class="node">
<title>runner</title>
<g id="a_node20"><a xlink:href="runner.md" xlink:title="runner.md">
<polygon fill="palegreen" stroke="black" points="1343.37,-1374.69 1343.37,-1405.31 1293.95,-1426.95 1224.05,-1426.95 1174.63,-1405.31 1174.63,-1374.69 1224.05,-1353.05 1293.95,-1353.05 1343.37,-1374.69"/>
<polygon fill="none" stroke="black" points="1347.38,-1372.06 1347.38,-1407.94 1294.78,-1430.98 1223.22,-1430.98 1170.62,-1407.94 1170.62,-1372.06 1223.22,-1349.02 1294.78,-1349.02 1347.38,-1372.06"/>
<text text-anchor="middle" x="1259" y="-1381.2" font-family="Times,serif" font-size="36.00">runner</text>
</a>
</g>
</g>
<!-- signatures&#45;&gt;messages -->
<g id="edge46" class="edge">
<title>signatures&#45;&gt;messages</title>
<path fill="none" stroke="black" d="M2167.23,-389.62C2173.52,-355.07 2179.76,-289.97 2149,-248.06 2032.1,-88.76 1784.46,-51.06 1647.02,-42.75"/>
<polygon fill="black" stroke="black" points="1647.39,-39.27 1637.21,-42.2 1647,-46.26 1647.39,-39.27"/>
</g>
<!-- signatures&#45;&gt;vartypes -->
<g id="edge45" class="edge">
<title>signatures&#45;&gt;vartypes</title>
<path fill="none" stroke="black" d="M2141.1,-390.36C2123.95,-371.78 2099.25,-345.02 2078.81,-322.87"/>
<polygon fill="black" stroke="black" points="2081.58,-320.72 2072.23,-315.75 2076.44,-325.47 2081.58,-320.72"/>
</g>
<!-- startingvars&#45;&gt;args -->
<g id="edge76" class="edge">
<title>startingvars&#45;&gt;args</title>
<path fill="none" stroke="black" d="M2008.08,-1103.54C1774.45,-1103.56 1158.98,-1094.55 981,-1001.71 908.17,-963.72 928.7,-908.23 862,-860.29 773.57,-796.73 704.97,-853.13 634,-770.52 609.19,-741.63 592.86,-632.81 585.87,-576.4"/>
<polygon fill="black" stroke="black" points="589.38,-576.21 584.71,-566.7 582.43,-577.05 589.38,-576.21"/>
</g>
<!-- startingvars&#45;&gt;env -->
<g id="edge78" class="edge">
<title>startingvars&#45;&gt;env</title>
<path fill="none" stroke="black" d="M2177.02,-1091.47C2235.76,-1078.91 2314.38,-1053.25 2364,-1001.71 2410.04,-953.9 2385.34,-921.08 2412,-860.29 2430.58,-817.92 2456.88,-771.52 2474.64,-741.65"/>
<polygon fill="black" stroke="black" points="2477.63,-743.48 2479.77,-733.1 2471.62,-739.88 2477.63,-743.48"/>
</g>
<!-- startingvars&#45;&gt;functions -->
<g id="edge84" class="edge">
<title>startingvars&#45;&gt;functions</title>
<path fill="none" stroke="black" d="M2096.41,-1079.54C2091.57,-1036.2 2080.68,-940.64 2070,-860.29 2066.6,-834.67 2062.57,-806.65 2058.91,-781.81"/>
<polygon fill="black" stroke="black" points="2062.4,-781.52 2057.47,-772.14 2055.48,-782.55 2062.4,-781.52"/>
</g>
<!-- startingvars&#45;&gt;messages -->
<g id="edge77" class="edge">
<title>startingvars&#45;&gt;messages</title>
<path fill="none" stroke="black" d="M2184.22,-1095.54C2265.35,-1085.07 2388.09,-1060.22 2478,-1001.71 2701.89,-856.02 2883.79,-771.55 2825,-510.98 2782.88,-324.3 2783.61,-228.12 2617,-133.96 2533.69,-86.88 1894.41,-55.4 1647.18,-44.88"/>
<polygon fill="black" stroke="black" points="1647.36,-41.39 1637.22,-44.46 1647.06,-48.38 1647.36,-41.39"/>
</g>
<!-- startingvars&#45;&gt;opresult -->
<g id="edge82" class="edge">
<title>startingvars&#45;&gt;opresult</title>
<path fill="none" stroke="black" d="M2082.76,-1080.16C2068.67,-1059.95 2048.06,-1029.44 2032,-1001.71 1996.76,-940.85 2010.91,-909.84 1961,-860.29 1897,-796.74 1852.47,-822.83 1779,-770.52 1616.99,-655.17 1585.64,-607.93 1473,-444.02 1435.89,-390.02 1420.76,-378.09 1400,-315.94 1386.44,-275.34 1381.98,-226 1380.56,-193.62"/>
<polygon fill="black" stroke="black" points="1384.07,-193.88 1380.22,-184.01 1377.08,-194.13 1384.07,-193.88"/>
</g>
<!-- startingvars&#45;&gt;readjson -->
<g id="edge81" class="edge">
<title>startingvars&#45;&gt;readjson</title>
<path fill="none" stroke="black" d="M2092.21,-1079.7C2086.26,-1059.19 2077.43,-1028.5 2070,-1001.71 2052.6,-939 2073.97,-910.03 2032,-860.29 1970.47,-787.37 1899.21,-842.86 1837,-770.52 1788.87,-714.55 1775.77,-625.32 1772.25,-576.57"/>
<polygon fill="black" stroke="black" points="1775.77,-576.65 1771.66,-566.89 1768.78,-577.09 1775.77,-576.65"/>
</g>
<!-- startingvars&#45;&gt;runCommand -->
<g id="edge83" class="edge">
<title>startingvars&#45;&gt;runCommand</title>
<path fill="none" stroke="black" d="M2045.6,-1084.21C1985.59,-1063.1 1884.9,-1027.67 1795.75,-996.3"/>
<polygon fill="black" stroke="black" points="1796.96,-993.02 1786.37,-993 1794.64,-999.62 1796.96,-993.02"/>
</g>
<!-- startingvars&#45;&gt;variables -->
<g id="edge79" class="edge">
<title>startingvars&#45;&gt;variables</title>
<path fill="none" stroke="black" d="M2175.57,-1090.75C2240.66,-1077.38 2334.09,-1050.97 2402,-1001.71 2486.69,-940.27 2662.78,-668.86 2722.6,-574.48"/>
<polygon fill="black" stroke="black" points="2725.47,-576.49 2727.86,-566.17 2719.56,-572.75 2725.47,-576.49"/>
</g>
<!-- startingvars&#45;&gt;vartypes -->
<g id="edge80" class="edge">
<title>startingvars&#45;&gt;vartypes</title>
<path fill="none" stroke="black" d="M2131.42,-1081.13C2198.22,-1033.85 2349.63,-914.66 2406,-770.52 2425.92,-719.59 2419.32,-700.52 2406,-647.48 2396.61,-610.08 2378.55,-607.12 2365,-571.02 2335.02,-491.16 2378.59,-447.81 2322,-383.98 2308.31,-368.54 2202.69,-333.05 2125.19,-308.55"/>
<polygon fill="black" stroke="black" points="2126.49,-305.28 2115.9,-305.62 2124.39,-311.96 2126.49,-305.28"/>
</g>
<!-- statictea -->
<g id="node23" class="node">
<title>statictea</title>
<g id="a_node23"><a xlink:href="statictea.md" xlink:title="statictea.md">
<polygon fill="palegoldenrod" stroke="black" points="734,-1451 561,-1390 734,-1329 907,-1390 734,-1451"/>
<text text-anchor="middle" x="734" y="-1378.1" font-family="Times,serif" font-size="48.00">statictea</text>
</a>
</g>
</g>
<!-- statictea&#45;&gt;args -->
<g id="edge100" class="edge">
<title>statictea&#45;&gt;args</title>
<path fill="none" stroke="black" d="M655.32,-1356.52C565.24,-1313.48 430,-1228.33 430,-1105 430,-1105 430,-1105 430,-930 430,-801.16 438.04,-763.05 495,-647.48 509.51,-618.04 533.72,-589.64 552.92,-569.74"/>
<polygon fill="black" stroke="black" points="555.21,-572.4 559.74,-562.83 550.22,-567.49 555.21,-572.4"/>
</g>
<!-- statictea&#45;&gt;env -->
<g id="edge104" class="edge">
<title>statictea&#45;&gt;env</title>
<path fill="none" stroke="black" d="M815.78,-1357.44C846.74,-1346.72 882.57,-1335.75 916,-1329 1265.3,-1258.41 2238.56,-1362.43 2507,-1128.04 2597.79,-1048.77 2571.38,-978.9 2550,-860.29 2542.39,-818.07 2523.65,-772.23 2509.94,-742.42"/>
<polygon fill="black" stroke="black" points="2513.21,-741.14 2505.79,-733.57 2506.87,-744.11 2513.21,-741.14"/>
</g>
<!-- statictea&#45;&gt;gethelp -->
<g id="edge102" class="edge">
<title>statictea&#45;&gt;gethelp</title>
<path fill="none" stroke="black" d="M651.05,-1357.78C565.5,-1325.57 433.96,-1276.06 356.39,-1246.86"/>
<polygon fill="black" stroke="black" points="357.82,-1243.66 347.23,-1243.41 355.36,-1250.21 357.82,-1243.66"/>
</g>
<!-- statictea&#45;&gt;messages -->
<g id="edge101" class="edge">
<title>statictea&#45;&gt;messages</title>
<path fill="none" stroke="black" d="M604.13,-1374.29C486.92,-1357.13 312.34,-1321.7 175,-1252.02 84.41,-1206.06 0,-1206.58 0,-1105 0,-1105 0,-1105 0,-281 0,-169.96 97.65,-171.93 202,-133.96 432.22,-50.17 1184.15,-41.23 1453.18,-40.77"/>
<polygon fill="black" stroke="black" points="1452.97,-44.27 1462.96,-40.76 1452.96,-37.27 1452.97,-44.27"/>
</g>
<!-- statictea&#45;&gt;opresult -->
<g id="edge105" class="edge">
<title>statictea&#45;&gt;opresult</title>
<path fill="none" stroke="black" d="M639.01,-1362C578.9,-1340.67 503.32,-1305.47 453,-1252.02 404.51,-1200.51 392,-1175.74 392,-1105 392,-1105 392,-1105 392,-930 392,-600.3 407.45,-427.57 684,-248.06 784.66,-182.72 1142.63,-165.2 1302.22,-160.6"/>
<polygon fill="black" stroke="black" points="1301.95,-164.11 1311.85,-160.33 1301.76,-157.11 1301.95,-164.11"/>
</g>
<!-- statictea&#45;&gt;parseCommandLine -->
<g id="edge9" class="edge">
<title>statictea&#45;&gt;parseCommandLine</title>
<path fill="none" stroke="black" d="M608.13,-1372.87C470.52,-1352.43 262.86,-1312.43 213,-1252.02 88.36,-1101.01 142.21,-838.43 167.02,-744.58"/>
<polygon fill="black" stroke="black" points="170.39,-745.51 169.63,-734.94 163.63,-743.68 170.39,-745.51"/>
</g>
<!-- statictea&#45;&gt;processTemplate -->
<g id="edge87" class="edge">
<title>statictea&#45;&gt;processTemplate</title>
<path fill="none" stroke="black" d="M734,-1328.6C734,-1304.73 734,-1278.17 734,-1257.65"/>
<polygon fill="black" stroke="black" points="737.5,-1257.85 734,-1247.85 730.5,-1257.85 737.5,-1257.85"/>
</g>
<!-- statictea&#45;&gt;repl -->
<g id="edge117" class="edge">
<title>statictea&#45;&gt;repl</title>
<path fill="none" stroke="black" d="M792.85,-1349.45C840.47,-1317.45 905.94,-1273.44 945.77,-1246.68"/>
<polygon fill="black" stroke="black" points="947.71,-1249.59 954.06,-1241.11 943.81,-1243.78 947.71,-1249.59"/>
</g>
<!-- timer -->
<g id="node25" class="node">
<title>timer</title>
<g id="a_node25"><a xlink:href="timer.md" xlink:title="timer.md">
<polygon fill="palegreen" stroke="black" points="1859.09,-1211.21 1859.09,-1232.79 1828.58,-1248.04 1785.42,-1248.04 1754.91,-1232.79 1754.91,-1211.21 1785.42,-1195.96 1828.58,-1195.96 1859.09,-1211.21"/>
<polygon fill="none" stroke="black" points="1863.09,-1208.74 1863.09,-1235.26 1829.52,-1252.04 1784.48,-1252.04 1750.91,-1235.26 1750.91,-1208.74 1784.48,-1191.96 1829.52,-1191.96 1863.09,-1208.74"/>
<text text-anchor="middle" x="1807" y="-1215.8" font-family="Times,serif" font-size="24.00">timer</text>
</a>
</g>
</g>
<!-- statictea&#45;&gt;timer -->
<g id="edge118" class="edge">
<title>statictea&#45;&gt;timer</title>
<path fill="none" stroke="black" d="M816.28,-1357.51C847.14,-1346.86 882.78,-1335.93 916,-1329 1276.93,-1253.7 1385.35,-1345.54 1742,-1252.02 1746.57,-1250.82 1751.23,-1249.33 1755.84,-1247.67"/>
<polygon fill="black" stroke="black" points="1757.02,-1250.97 1765.06,-1244.07 1754.48,-1244.45 1757.02,-1250.97"/>
</g>
<!-- updateTemplate -->
<g id="node27" class="node">
<title>updateTemplate</title>
<g id="a_node27"><a xlink:href="updateTemplate.md" xlink:title="updateTemplate.md">
<ellipse fill="palegoldenrod" stroke="black" cx="1613" cy="-1222" rx="119.5" ry="24.08"/>
<text text-anchor="middle" x="1613" y="-1215.8" font-family="Times,serif" font-size="24.00">updateTemplate</text>
</a>
</g>
</g>
<!-- statictea&#45;&gt;updateTemplate -->
<g id="edge99" class="edge">
<title>statictea&#45;&gt;updateTemplate</title>
<path fill="none" stroke="black" d="M817.88,-1358.09C848.44,-1347.69 883.48,-1336.78 916,-1329 1117.24,-1280.89 1356.63,-1250.09 1496.04,-1234.73"/>
<polygon fill="black" stroke="black" points="1496.08,-1238.24 1505.64,-1233.68 1495.32,-1231.29 1496.08,-1238.24"/>
</g>
<!-- version -->
<g id="node31" class="node">
<title>version</title>
<g id="a_node31"><a xlink:href="version.md" xlink:title="version.md">
<polygon fill="palegreen" stroke="black" points="2963.67,-403.21 2963.67,-424.79 2924.62,-440.04 2869.38,-440.04 2830.33,-424.79 2830.33,-403.21 2869.38,-387.96 2924.62,-387.96 2963.67,-403.21"/>
<polygon fill="none" stroke="black" points="2967.67,-400.48 2967.67,-427.52 2925.37,-444.04 2868.63,-444.04 2826.33,-427.52 2826.33,-400.48 2868.63,-383.96 2925.37,-383.96 2967.67,-400.48"/>
<text text-anchor="middle" x="2897" y="-407.8" font-family="Times,serif" font-size="24.00">version</text>
</a>
</g>
</g>
<!-- statictea&#45;&gt;version -->
<g id="edge103" class="edge">
<title>statictea&#45;&gt;version</title>
<path fill="none" stroke="black" d="M815.24,-1357.15C846.29,-1346.33 882.33,-1335.37 916,-1329 1522.64,-1214.25 1690.4,-1328.83 2303,-1252.02 2599.04,-1214.91 2958,-1403.35 2958,-1105 2958,-1105 2958,-1105 2958,-708 2958,-616.13 2928.9,-511.39 2910.9,-455.38"/>
<polygon fill="black" stroke="black" points="2914.25,-454.38 2907.82,-445.96 2907.6,-456.56 2914.25,-454.38"/>
</g>
<!-- unicodes&#45;&gt;messages -->
<g id="edge41" class="edge">
<title>unicodes&#45;&gt;messages</title>
<path fill="none" stroke="black" d="M1635.44,-392.08C1658.42,-374.76 1687.79,-347.86 1701,-315.94 1712.54,-288.07 1710.35,-276.74 1701,-248.06 1678.99,-180.53 1625.71,-116.7 1588.72,-78.22"/>
<polygon fill="black" stroke="black" points="1591.64,-76.2 1582.15,-71.48 1586.63,-81.08 1591.64,-76.2"/>
</g>
<!-- unicodes&#45;&gt;opresult -->
<g id="edge40" class="edge">
<title>unicodes&#45;&gt;opresult</title>
<path fill="none" stroke="black" d="M1569.91,-392.54C1542.11,-374.72 1503.01,-346.92 1475,-315.94 1465.56,-305.5 1423.84,-234.61 1398.93,-191.75"/>
<polygon fill="black" stroke="black" points="1402.1,-190.24 1394.05,-183.34 1396.04,-193.75 1402.1,-190.24"/>
</g>
<!-- unicodes&#45;&gt;utf8decoder -->
<g id="edge42" class="edge">
<title>unicodes&#45;&gt;utf8decoder</title>
<path fill="none" stroke="black" d="M1601.1,-389.46C1598.84,-371.1 1595.65,-345.17 1592.98,-323.5"/>
<polygon fill="black" stroke="black" points="1596.49,-323.29 1591.79,-313.79 1589.54,-324.15 1596.49,-323.29"/>
</g>
<!-- unicodes&#45;&gt;vartypes -->
<g id="edge43" class="edge">
<title>unicodes&#45;&gt;vartypes</title>
<path fill="none" stroke="black" d="M1656.4,-397.45C1731.06,-375.29 1868.84,-334.39 1957.89,-307.96"/>
<polygon fill="black" stroke="black" points="1958.73,-311.37 1967.32,-305.17 1956.74,-304.66 1958.73,-311.37"/>
</g>
<!-- updateTemplate&#45;&gt;args -->
<g id="edge88" class="edge">
<title>updateTemplate&#45;&gt;args</title>
<path fill="none" stroke="black" d="M1497.15,-1215.75C1381.43,-1207.31 1200.22,-1185.32 1054,-1128.04 933.78,-1080.95 653.12,-886.31 596,-770.52 565.02,-707.72 570.05,-623.14 576.2,-576.49"/>
<polygon fill="black" stroke="black" points="579.65,-577.1 577.59,-566.71 572.72,-576.11 579.65,-577.1"/>
</g>
<!-- updateTemplate&#45;&gt;env -->
<g id="edge90" class="edge">
<title>updateTemplate&#45;&gt;env</title>
<path fill="none" stroke="black" d="M1686.69,-1202.63C1704.69,-1198.64 1723.97,-1194.78 1742,-1191.98 1823.11,-1179.39 2421.38,-1187.47 2478,-1128.04 2579.23,-1021.79 2530.63,-822.83 2505.65,-743.7"/>
<polygon fill="black" stroke="black" points="2509.04,-742.8 2502.62,-734.36 2502.38,-744.96 2509.04,-742.8"/>
</g>
<!-- updateTemplate&#45;&gt;linebuffer -->
<g id="edge91" class="edge">
<title>updateTemplate&#45;&gt;linebuffer</title>
<path fill="none" stroke="black" d="M1547.6,-1201.53C1464.63,-1172.89 1325.12,-1110.66 1265,-1001.71 1219.87,-919.93 1266.63,-807.85 1297.85,-749.28"/>
<polygon fill="black" stroke="black" points="1300.84,-751.11 1302.56,-740.65 1294.69,-747.76 1300.84,-751.11"/>
</g>
<!-- updateTemplate&#45;&gt;messages -->
<g id="edge89" class="edge">
<title>updateTemplate&#45;&gt;messages</title>
<path fill="none" stroke="black" d="M1685.62,-1202.49C1703.91,-1198.42 1723.59,-1194.57 1742,-1191.98 1862.91,-1174.97 2746.1,-1207.27 2839,-1128.04 3085.9,-917.47 2996,-739.5 2996,-415 2996,-415 2996,-415 2996,-281 2996,-120.43 2821.53,-173.86 2666,-133.96 2474.23,-84.76 1881.25,-55.01 1646.81,-44.9"/>
<polygon fill="black" stroke="black" points="1647.24,-41.41 1637.1,-44.48 1646.94,-48.41 1647.24,-41.41"/>
</g>
<!-- updateTemplate&#45;&gt;opresult -->
<g id="edge98" class="edge">
<title>updateTemplate&#45;&gt;opresult</title>
<path fill="none" stroke="black" d="M1686.34,-1202.66C1704.44,-1198.64 1723.85,-1194.76 1742,-1191.98 1910.62,-1166.09 2364.61,-1222 2507,-1128.04 2688.3,-1008.41 2615.65,-863.81 2596,-647.48 2590.42,-586.06 2603.36,-563.48 2571,-510.98 2546.45,-471.14 2444.66,-405.3 2403,-383.98 2311.51,-337.16 2260.04,-382.81 2182,-315.94 2156.53,-294.11 2176.36,-267.46 2149,-248.06 2039.23,-170.22 1630.65,-159.66 1457.91,-158.76"/>
<polygon fill="black" stroke="black" points="1458.15,-155.26 1448.14,-158.72 1458.12,-162.26 1458.15,-155.26"/>
</g>
<!-- updateTemplate&#45;&gt;parseCmdLine -->
<g id="edge92" class="edge">
<title>updateTemplate&#45;&gt;parseCmdLine</title>
<path fill="none" stroke="black" d="M1509.44,-1209.65C1419.07,-1197.27 1285.75,-1172.91 1177,-1128.04 1081.2,-1088.52 1035.35,-1089.95 981,-1001.71 931.02,-920.57 937.54,-802.21 944.67,-744.38"/>
<polygon fill="black" stroke="black" points="948.09,-745.19 945.93,-734.82 941.15,-744.27 948.09,-745.19"/>
</g>
<!-- updateTemplate&#45;&gt;replacement -->
<g id="edge96" class="edge">
<title>updateTemplate&#45;&gt;replacement</title>
<path fill="none" stroke="black" d="M1500.36,-1213.64C1419.95,-1203.83 1312.27,-1181.02 1232,-1128.04 1169.51,-1086.8 1123.47,-1009.62 1100.79,-965.39"/>
<polygon fill="black" stroke="black" points="1103.95,-963.89 1096.34,-956.52 1097.69,-967.03 1103.95,-963.89"/>
</g>
<!-- updateTemplate&#45;&gt;runCommand -->
<g id="edge93" class="edge">
<title>updateTemplate&#45;&gt;runCommand</title>
<path fill="none" stroke="black" d="M1613,-1197.84C1613,-1158.37 1613,-1076.28 1613,-1013.7"/>
<polygon fill="black" stroke="black" points="1616.5,-1013.77 1613,-1003.77 1609.5,-1013.77 1616.5,-1013.77"/>
</g>
<!-- updateTemplate&#45;&gt;startingvars -->
<g id="edge97" class="edge">
<title>updateTemplate&#45;&gt;startingvars</title>
<path fill="none" stroke="black" d="M1688.67,-1202.94C1779.33,-1181.3 1930.41,-1145.24 2021.76,-1123.44"/>
<polygon fill="black" stroke="black" points="2022.49,-1126.86 2031.4,-1121.14 2020.86,-1120.05 2022.49,-1126.86"/>
</g>
<!-- updateTemplate&#45;&gt;variables -->
<g id="edge94" class="edge">
<title>updateTemplate&#45;&gt;variables</title>
<path fill="none" stroke="black" d="M1685.62,-1202.53C1703.92,-1198.46 1723.59,-1194.6 1742,-1191.98 1856.62,-1175.67 2702.69,-1212.38 2782,-1128.04 2855.16,-1050.25 2800.81,-752.6 2782,-647.48 2777.54,-622.56 2767.59,-595.81 2758.86,-575.49"/>
<polygon fill="black" stroke="black" points="2762.16,-574.32 2754.92,-566.59 2755.76,-577.15 2762.16,-574.32"/>
</g>
<!-- updateTemplate&#45;&gt;vartypes -->
<g id="edge95" class="edge">
<title>updateTemplate&#45;&gt;vartypes</title>
<path fill="none" stroke="black" d="M1685.62,-1202.51C1703.91,-1198.45 1723.59,-1194.58 1742,-1191.98 1859.49,-1175.35 2719.15,-1206.69 2808,-1128.04 2874.33,-1069.33 2844,-1020.59 2844,-932 2844,-932 2844,-932 2844,-708 2844,-620.03 2878.57,-580.76 2825,-510.98 2741.37,-402.04 2334.79,-327.28 2142.79,-297.47"/>
<polygon fill="black" stroke="black" points="2143.49,-294.03 2133.07,-295.97 2142.42,-300.95 2143.49,-294.03"/>
</g>
<!-- variables&#45;&gt;messages -->
<g id="edge32" class="edge">
<title>variables&#45;&gt;messages</title>
<path fill="none" stroke="black" d="M2741.66,-516.66C2736.2,-445.46 2709.21,-230.07 2580,-133.96 2506.08,-78.98 1888.64,-52.4 1646.7,-44.03"/>
<polygon fill="black" stroke="black" points="1647.09,-40.54 1636.98,-43.7 1646.85,-47.54 1647.09,-40.54"/>
</g>
<!-- variables&#45;&gt;opresult -->
<g id="edge33" class="edge">
<title>variables&#45;&gt;opresult</title>
<path fill="none" stroke="black" d="M2713.87,-518.52C2669.87,-486.65 2583.18,-426.1 2504,-383.98 2366.86,-311.02 2332.31,-287.24 2182,-248.06 1922.65,-180.45 1603.01,-164.15 1458.05,-160.24"/>
<polygon fill="black" stroke="black" points="1458.26,-156.74 1448.18,-159.98 1458.08,-163.74 1458.26,-156.74"/>
</g>
<!-- variables&#45;&gt;vartypes -->
<g id="edge30" class="edge">
<title>variables&#45;&gt;vartypes</title>
<path fill="none" stroke="black" d="M2693.8,-522.85C2646.45,-505.55 2573.48,-476.76 2514,-444.02 2473.16,-421.54 2470.32,-403.52 2428,-383.98 2376.23,-360.07 2231.37,-325.14 2134.59,-303.26"/>
<polygon fill="black" stroke="black" points="2135.62,-299.91 2125.1,-301.12 2134.09,-306.74 2135.62,-299.91"/>
</g>
<!-- variables&#45;&gt;version -->
<g id="edge31" class="edge">
<title>variables&#45;&gt;version</title>
<path fill="none" stroke="black" d="M2769.82,-518.23C2793.13,-499.31 2827.29,-471.58 2854.35,-449.62"/>
<polygon fill="black" stroke="black" points="2856.49,-452.39 2862.05,-443.37 2852.08,-446.96 2856.49,-452.39"/>
</g>
<!-- vartypes&#45;&gt;messages -->
<g id="edge26" class="edge">
<title>vartypes&#45;&gt;messages</title>
<path fill="none" stroke="black" d="M2000.88,-250.97C1955.73,-218.96 1880.28,-168.27 1810,-133.96 1750.68,-105 1679.95,-80.3 1627.24,-63.65"/>
<polygon fill="black" stroke="black" points="1628.31,-60.32 1617.73,-60.68 1626.23,-67 1628.31,-60.32"/>
</g>
<!-- vartypes&#45;&gt;opresult -->
<g id="edge27" class="edge">
<title>vartypes&#45;&gt;opresult</title>
<path fill="none" stroke="black" d="M1956.47,-265.24C1823.94,-240.81 1571.56,-194.3 1449.51,-171.81"/>
<polygon fill="black" stroke="black" points="1450.43,-168.42 1439.96,-170.05 1449.16,-175.3 1450.43,-168.42"/>
</g>
</g>
</svg>
