<?xml version="1.0" encoding="UTF-8" standalone="no"?>
<!DOCTYPE svg PUBLIC "-//W3C//DTD SVG 1.1//EN"
 "http://www.w3.org/Graphics/SVG/1.1/DTD/svg11.dtd">
<!-- Generated by graphviz version 2.40.1 (20161225.0304)
 -->
<!-- Title: statictea Pages: 1 -->
<svg width="635pt" height="1397pt"
 viewBox="0.00 0.00 634.97 1396.98" xmlns="http://www.w3.org/2000/svg" xmlns:xlink="http://www.w3.org/1999/xlink">
<g id="graph0" class="graph" transform="scale(1 1) rotate(0) translate(4 1392.9835)">
<title>statictea</title>
<polygon fill="#ffffff" stroke="transparent" points="-4,4 -4,-1392.9835 630.9693,-1392.9835 630.9693,4 -4,4"/>
<!-- strutils -->
<g id="node1" class="node">
<title>strutils</title>
<ellipse fill="none" stroke="#000000" cx="87.6672" cy="-934.4917" rx="57.5374" ry="22.7556"/>
<text text-anchor="middle" x="87.6672" y="-927.2917" font-family="Times,serif" font-size="24.00" fill="#000000">strutils</text>
</g>
<!-- statictea -->
<g id="node2" class="node">
<title>statictea</title>
<ellipse fill="none" stroke="#000000" cx="545.1518" cy="-1177.4917" rx="39.154" ry="18"/>
<text text-anchor="middle" x="545.1518" y="-1173.2917" font-family="Times,serif" font-size="14.00" fill="#000000">statictea</text>
</g>
<!-- strutils&#45;&gt;statictea -->
<g id="edge1" class="edge">
<title>strutils&#45;&gt;statictea</title>
<path fill="none" stroke="#000000" d="M117.2418,-954.2976C179.262,-995.1912 328.3681,-1090.1736 463.3343,-1150.4917 475.5107,-1155.9335 489.1304,-1160.86 501.711,-1164.9699"/>
<polygon fill="#000000" stroke="#000000" points="500.9398,-1168.3972 511.5301,-1168.0852 503.0568,-1161.7249 500.9398,-1168.3972"/>
</g>
<!-- args -->
<g id="node6" class="node">
<title>args</title>
<ellipse fill="none" stroke="#000000" cx="545.1518" cy="-961.4917" rx="27" ry="18"/>
<text text-anchor="middle" x="545.1518" y="-957.2917" font-family="Times,serif" font-size="14.00" fill="#000000">args</text>
</g>
<!-- strutils&#45;&gt;args -->
<g id="edge4" class="edge">
<title>strutils&#45;&gt;args</title>
<path fill="none" stroke="#000000" d="M144.6829,-937.8567C239.8146,-943.4712 428.3334,-954.5973 508.1105,-959.3056"/>
<polygon fill="#000000" stroke="#000000" points="507.9912,-962.8046 518.1801,-959.8999 508.4037,-955.8167 507.9912,-962.8046"/>
</g>
<!-- warnings -->
<g id="node7" class="node">
<title>warnings</title>
<ellipse fill="none" stroke="#000000" cx="545.1518" cy="-1069.4917" rx="42.5542" ry="18"/>
<text text-anchor="middle" x="545.1518" y="-1065.2917" font-family="Times,serif" font-size="14.00" fill="#000000">warnings</text>
</g>
<!-- strutils&#45;&gt;warnings -->
<g id="edge5" class="edge">
<title>strutils&#45;&gt;warnings</title>
<path fill="none" stroke="#000000" d="M134.0508,-948.1792C222.3282,-974.2291 413.4326,-1030.6225 500.4142,-1056.29"/>
<polygon fill="#000000" stroke="#000000" points="499.6617,-1059.7171 510.2435,-1059.1906 501.6429,-1053.0033 499.6617,-1059.7171"/>
</g>
<!-- cmdline -->
<g id="node11" class="node">
<title>cmdline</title>
<ellipse fill="none" stroke="#000000" cx="545.1518" cy="-1123.4917" rx="38.6869" ry="18"/>
<text text-anchor="middle" x="545.1518" y="-1119.2917" font-family="Times,serif" font-size="14.00" fill="#000000">cmdline</text>
</g>
<!-- strutils&#45;&gt;cmdline -->
<g id="edge11" class="edge">
<title>strutils&#45;&gt;cmdline</title>
<path fill="none" stroke="#000000" d="M124.809,-951.8113C191.7345,-982.7251 337.3425,-1048.6441 463.3343,-1096.4917 476.1488,-1101.3583 490.2733,-1106.2005 503.1277,-1110.4123"/>
<polygon fill="#000000" stroke="#000000" points="502.0754,-1113.7504 512.6673,-1113.5001 504.2311,-1107.0906 502.0754,-1113.7504"/>
</g>
<!-- env -->
<g id="node14" class="node">
<title>env</title>
<ellipse fill="none" stroke="#000000" cx="545.1518" cy="-907.4917" rx="27" ry="18"/>
<text text-anchor="middle" x="545.1518" y="-903.2917" font-family="Times,serif" font-size="14.00" fill="#000000">env</text>
</g>
<!-- strutils&#45;&gt;env -->
<g id="edge20" class="edge">
<title>strutils&#45;&gt;env</title>
<path fill="none" stroke="#000000" d="M144.6829,-931.1268C239.8146,-925.5122 428.3334,-914.3862 508.1105,-909.6779"/>
<polygon fill="#000000" stroke="#000000" points="508.4037,-913.1667 518.1801,-909.0836 507.9912,-906.1789 508.4037,-913.1667"/>
</g>
<!-- tempFile -->
<g id="node16" class="node">
<title>tempFile</title>
<ellipse fill="none" stroke="#000000" cx="545.1518" cy="-1231.4917" rx="41.5938" ry="18"/>
<text text-anchor="middle" x="545.1518" y="-1227.2917" font-family="Times,serif" font-size="14.00" fill="#000000">tempFile</text>
</g>
<!-- strutils&#45;&gt;tempFile -->
<g id="edge23" class="edge">
<title>strutils&#45;&gt;tempFile</title>
<path fill="none" stroke="#000000" d="M111.0407,-955.27C167.6984,-1004.7056 318.3981,-1130.693 463.3343,-1204.4917 474.581,-1210.2183 487.3019,-1215.1031 499.3035,-1219.0788"/>
<polygon fill="#000000" stroke="#000000" points="498.5774,-1222.5202 509.1675,-1222.2032 500.6912,-1215.8469 498.5774,-1222.5202"/>
</g>
<!-- matches -->
<g id="node18" class="node">
<title>matches</title>
<ellipse fill="none" stroke="#000000" cx="545.1518" cy="-637.4917" rx="39.1627" ry="18"/>
<text text-anchor="middle" x="545.1518" y="-633.2917" font-family="Times,serif" font-size="14.00" fill="#000000">matches</text>
</g>
<!-- strutils&#45;&gt;matches -->
<g id="edge25" class="edge">
<title>strutils&#45;&gt;matches</title>
<path fill="none" stroke="#000000" d="M134.034,-920.8825C147.766,-915.984 162.5414,-909.8217 175.3343,-902.4917 319.4112,-819.9399 317.9856,-744.7831 463.3343,-664.4917 474.802,-658.157 487.9998,-652.9964 500.4016,-648.948"/>
<polygon fill="#000000" stroke="#000000" points="501.6099,-652.2379 510.1287,-645.9386 499.5409,-645.5507 501.6099,-652.2379"/>
</g>
<!-- runCommand -->
<g id="node22" class="node">
<title>runCommand</title>
<ellipse fill="none" stroke="#000000" cx="545.1518" cy="-799.4917" rx="58.9841" ry="18"/>
<text text-anchor="middle" x="545.1518" y="-795.2917" font-family="Times,serif" font-size="14.00" fill="#000000">runCommand</text>
</g>
<!-- strutils&#45;&gt;runCommand -->
<g id="edge35" class="edge">
<title>strutils&#45;&gt;runCommand</title>
<path fill="none" stroke="#000000" d="M134.0508,-920.8043C219.88,-895.4768 402.9119,-841.4656 492.9416,-814.8985"/>
<polygon fill="#000000" stroke="#000000" points="494.0639,-818.2166 502.6644,-812.0294 492.0827,-811.5029 494.0639,-818.2166"/>
</g>
<!-- variables -->
<g id="node26" class="node">
<title>variables</title>
<ellipse fill="none" stroke="#000000" cx="545.1518" cy="-745.4917" rx="42.0524" ry="18"/>
<text text-anchor="middle" x="545.1518" y="-741.2917" font-family="Times,serif" font-size="14.00" fill="#000000">variables</text>
</g>
<!-- strutils&#45;&gt;variables -->
<g id="edge39" class="edge">
<title>strutils&#45;&gt;variables</title>
<path fill="none" stroke="#000000" d="M131.1633,-919.3343C145.333,-914.2053 161.0805,-908.3009 175.3343,-902.4917 305.3845,-849.4896 332.4721,-823.4561 463.3343,-772.4917 475.4322,-767.7802 488.7319,-763.1598 501.0276,-759.1103"/>
<polygon fill="#000000" stroke="#000000" points="502.1996,-762.4097 510.6312,-755.9943 500.0392,-755.7514 502.1996,-762.4097"/>
</g>
<!-- tostring -->
<g id="node27" class="node">
<title>tostring</title>
<ellipse fill="none" stroke="#000000" cx="545.1518" cy="-853.4917" rx="37.2594" ry="18"/>
<text text-anchor="middle" x="545.1518" y="-849.2917" font-family="Times,serif" font-size="14.00" fill="#000000">tostring</text>
</g>
<!-- strutils&#45;&gt;tostring -->
<g id="edge42" class="edge">
<title>strutils&#45;&gt;tostring</title>
<path fill="none" stroke="#000000" d="M140.1465,-925.2C230.8104,-909.1475 415.2139,-876.4979 500.2963,-861.4336"/>
<polygon fill="#000000" stroke="#000000" points="500.9302,-864.8759 510.1668,-859.686 499.7097,-857.9831 500.9302,-864.8759"/>
</g>
<!-- funtypes -->
<g id="node29" class="node">
<title>funtypes</title>
<ellipse fill="none" stroke="#000000" cx="545.1518" cy="-1015.4917" rx="40.6248" ry="18"/>
<text text-anchor="middle" x="545.1518" y="-1011.2917" font-family="Times,serif" font-size="14.00" fill="#000000">funtypes</text>
</g>
<!-- strutils&#45;&gt;funtypes -->
<g id="edge45" class="edge">
<title>strutils&#45;&gt;funtypes</title>
<path fill="none" stroke="#000000" d="M140.1465,-943.7835C229.7955,-959.6563 411.0972,-991.7567 497.402,-1007.0374"/>
<polygon fill="#000000" stroke="#000000" points="496.9864,-1010.5182 507.4435,-1008.8153 498.2068,-1003.6254 496.9864,-1010.5182"/>
</g>
<!-- runFunction -->
<g id="node30" class="node">
<title>runFunction</title>
<ellipse fill="none" stroke="#000000" cx="545.1518" cy="-1285.4917" rx="53.1797" ry="18"/>
<text text-anchor="middle" x="545.1518" y="-1281.2917" font-family="Times,serif" font-size="14.00" fill="#000000">runFunction</text>
</g>
<!-- strutils&#45;&gt;runFunction -->
<g id="edge48" class="edge">
<title>strutils&#45;&gt;runFunction</title>
<path fill="none" stroke="#000000" d="M106.6367,-955.9034C158.3256,-1013.0252 308.1968,-1170.6482 463.3343,-1258.4917 472.409,-1263.6301 482.6092,-1267.9723 492.6488,-1271.5708"/>
<polygon fill="#000000" stroke="#000000" points="491.5889,-1274.907 502.1832,-1274.7948 493.8313,-1268.2759 491.5889,-1274.907"/>
</g>
<!-- unicodes -->
<g id="node34" class="node">
<title>unicodes</title>
<ellipse fill="none" stroke="#000000" cx="545.1518" cy="-313.4917" rx="41.5852" ry="18"/>
<text text-anchor="middle" x="545.1518" y="-309.2917" font-family="Times,serif" font-size="14.00" fill="#000000">unicodes</text>
</g>
<!-- strutils&#45;&gt;unicodes -->
<g id="edge54" class="edge">
<title>strutils&#45;&gt;unicodes</title>
<path fill="none" stroke="#000000" d="M138.0298,-923.2691C151.2618,-918.5098 164.7705,-911.8246 175.3343,-902.4917 385.6702,-716.6645 250.1216,-523.011 463.3343,-340.4917 472.7443,-332.4364 484.628,-326.7672 496.4002,-322.7834"/>
<polygon fill="#000000" stroke="#000000" points="497.6472,-326.0629 506.2059,-319.818 495.6209,-319.3626 497.6472,-326.0629"/>
</g>
<!-- signatures -->
<g id="node35" class="node">
<title>signatures</title>
<ellipse fill="none" stroke="#000000" cx="545.1518" cy="-691.4917" rx="45.9286" ry="18"/>
<text text-anchor="middle" x="545.1518" y="-687.2917" font-family="Times,serif" font-size="14.00" fill="#000000">signatures</text>
</g>
<!-- strutils&#45;&gt;signatures -->
<g id="edge57" class="edge">
<title>strutils&#45;&gt;signatures</title>
<path fill="none" stroke="#000000" d="M132.6039,-920.2165C146.5646,-915.2207 161.8276,-909.1712 175.3343,-902.4917 311.4888,-835.1601 326.1447,-783.6886 463.3343,-718.4917 474.0969,-713.377 486.0841,-708.831 497.4916,-704.995"/>
<polygon fill="#000000" stroke="#000000" points="498.8872,-708.222 507.3217,-701.8102 496.7298,-701.5627 498.8872,-708.222"/>
</g>
<!-- replacement -->
<g id="node37" class="node">
<title>replacement</title>
<ellipse fill="none" stroke="#000000" cx="545.1518" cy="-97.4917" rx="53.1281" ry="18"/>
<text text-anchor="middle" x="545.1518" y="-93.2917" font-family="Times,serif" font-size="14.00" fill="#000000">replacement</text>
</g>
<!-- strutils&#45;&gt;replacement -->
<g id="edge66" class="edge">
<title>strutils&#45;&gt;replacement</title>
<path fill="none" stroke="#000000" d="M138.78,-924.069C152.0194,-919.3176 165.3443,-912.4364 175.3343,-902.4917 436.6431,-642.3687 197.9944,-380.5016 463.3343,-124.4917 470.205,-117.8626 478.7358,-112.8607 487.6716,-109.0867"/>
<polygon fill="#000000" stroke="#000000" points="488.9295,-112.3532 497.0778,-105.5815 486.4851,-105.7938 488.9295,-112.3532"/>
</g>
<!-- options -->
<g id="node3" class="node">
<title>options</title>
<ellipse fill="none" stroke="#000000" cx="87.6672" cy="-475.4917" rx="61.0788" ry="22.7556"/>
<text text-anchor="middle" x="87.6672" y="-468.2917" font-family="Times,serif" font-size="24.00" fill="#000000">options</text>
</g>
<!-- parseCommandLine -->
<g id="node4" class="node">
<title>parseCommandLine</title>
<ellipse fill="none" stroke="#000000" cx="545.1518" cy="-475.4917" rx="81.6354" ry="18"/>
<text text-anchor="middle" x="545.1518" y="-471.2917" font-family="Times,serif" font-size="14.00" fill="#000000">parseCommandLine</text>
</g>
<!-- options&#45;&gt;parseCommandLine -->
<g id="edge2" class="edge">
<title>options&#45;&gt;parseCommandLine</title>
<path fill="none" stroke="#000000" d="M149.3656,-475.4917C227.4509,-475.4917 362.6402,-475.4917 452.9847,-475.4917"/>
<polygon fill="#000000" stroke="#000000" points="453.2246,-478.9918 463.2245,-475.4917 453.2245,-471.9918 453.2246,-478.9918"/>
</g>
<!-- regexes -->
<g id="node9" class="node">
<title>regexes</title>
<ellipse fill="none" stroke="#000000" cx="545.1518" cy="-259.4917" rx="37.2248" ry="18"/>
<text text-anchor="middle" x="545.1518" y="-255.2917" font-family="Times,serif" font-size="14.00" fill="#000000">regexes</text>
</g>
<!-- options&#45;&gt;regexes -->
<g id="edge7" class="edge">
<title>options&#45;&gt;regexes</title>
<path fill="none" stroke="#000000" d="M121.3199,-456.437C186.1159,-420.2307 333.3076,-340.311 463.3343,-286.4917 476.22,-281.1582 490.5721,-276.1283 503.6132,-271.8884"/>
<polygon fill="#000000" stroke="#000000" points="504.8182,-275.1779 513.2844,-268.8081 502.6938,-268.508 504.8182,-275.1779"/>
</g>
<!-- processTemplate -->
<g id="node13" class="node">
<title>processTemplate</title>
<ellipse fill="none" stroke="#000000" cx="545.1518" cy="-367.4917" rx="69.306" ry="18"/>
<text text-anchor="middle" x="545.1518" y="-363.2917" font-family="Times,serif" font-size="14.00" fill="#000000">processTemplate</text>
</g>
<!-- options&#45;&gt;processTemplate -->
<g id="edge14" class="edge">
<title>options&#45;&gt;processTemplate</title>
<path fill="none" stroke="#000000" d="M139.7011,-463.2079C224.6884,-443.1447 392.8875,-403.4373 483.6453,-382.0118"/>
<polygon fill="#000000" stroke="#000000" points="484.5889,-385.3853 493.5172,-379.6813 482.9805,-378.5726 484.5889,-385.3853"/>
</g>
<!-- options&#45;&gt;env -->
<g id="edge19" class="edge">
<title>options&#45;&gt;env</title>
<path fill="none" stroke="#000000" d="M106.6508,-497.1946C176.7506,-577.1605 419.2535,-852.1843 463.3343,-880.4917 477.1398,-889.3572 494.1352,-895.5823 509.0526,-899.8021"/>
<polygon fill="#000000" stroke="#000000" points="508.4222,-903.2552 518.9833,-902.411 510.2008,-896.4849 508.4222,-903.2552"/>
</g>
<!-- options&#45;&gt;tempFile -->
<g id="edge24" class="edge">
<title>options&#45;&gt;tempFile</title>
<path fill="none" stroke="#000000" d="M109.0615,-496.9994C128.1033,-516.9289 155.8755,-548.0109 175.3343,-578.4917 340.1275,-836.629 234.9536,-1000.4479 463.3343,-1204.4917 472.5716,-1212.7447 484.3942,-1218.4835 496.163,-1222.4713"/>
<polygon fill="#000000" stroke="#000000" points="495.3937,-1225.8948 505.9782,-1225.4259 497.4115,-1219.1919 495.3937,-1225.8948"/>
</g>
<!-- options&#45;&gt;matches -->
<g id="edge27" class="edge">
<title>options&#45;&gt;matches</title>
<path fill="none" stroke="#000000" d="M131.2053,-491.5571C201.0649,-517.2403 342.6103,-568.8884 463.3343,-610.4917 476.2939,-614.9578 490.4595,-619.6863 503.307,-623.917"/>
<polygon fill="#000000" stroke="#000000" points="502.2401,-627.2505 512.8329,-627.0427 504.4225,-620.5994 502.2401,-627.2505"/>
</g>
<!-- readlines -->
<g id="node19" class="node">
<title>readlines</title>
<ellipse fill="none" stroke="#000000" cx="545.1518" cy="-205.4917" rx="42.0524" ry="18"/>
<text text-anchor="middle" x="545.1518" y="-201.2917" font-family="Times,serif" font-size="14.00" fill="#000000">readlines</text>
</g>
<!-- options&#45;&gt;readlines -->
<g id="edge29" class="edge">
<title>options&#45;&gt;readlines</title>
<path fill="none" stroke="#000000" d="M114.0611,-454.9842C173.4935,-409.6001 323.5611,-299.3996 463.3343,-232.4917 474.718,-227.0425 487.4856,-222.2523 499.4882,-218.2786"/>
<polygon fill="#000000" stroke="#000000" points="500.8792,-221.5088 509.3433,-215.1363 498.7527,-214.8396 500.8792,-221.5088"/>
</g>
<!-- parseCmdLine -->
<g id="node20" class="node">
<title>parseCmdLine</title>
<ellipse fill="none" stroke="#000000" cx="545.1518" cy="-421.4917" rx="62.3407" ry="18"/>
<text text-anchor="middle" x="545.1518" y="-417.2917" font-family="Times,serif" font-size="14.00" fill="#000000">parseCmdLine</text>
</g>
<!-- options&#45;&gt;parseCmdLine -->
<g id="edge30" class="edge">
<title>options&#45;&gt;parseCmdLine</title>
<path fill="none" stroke="#000000" d="M146.0726,-468.5978C230.8482,-458.5911 387.6376,-440.0842 477.3844,-429.4908"/>
<polygon fill="#000000" stroke="#000000" points="477.9334,-432.9504 487.4542,-428.3022 477.1128,-425.9986 477.9334,-432.9504"/>
</g>
<!-- collectCommand -->
<g id="node21" class="node">
<title>collectCommand</title>
<ellipse fill="none" stroke="#000000" cx="545.1518" cy="-151.4917" rx="70.5427" ry="18"/>
<text text-anchor="middle" x="545.1518" y="-147.2917" font-family="Times,serif" font-size="14.00" fill="#000000">collectCommand</text>
</g>
<!-- options&#45;&gt;collectCommand -->
<g id="edge33" class="edge">
<title>options&#45;&gt;collectCommand</title>
<path fill="none" stroke="#000000" d="M108.9842,-454.0541C163.378,-400.4426 313.6284,-259.0878 463.3343,-178.4917 470.5441,-174.6102 478.4117,-171.1541 486.3261,-168.119"/>
<polygon fill="#000000" stroke="#000000" points="487.7538,-171.3244 495.962,-164.6253 485.3678,-164.7436 487.7538,-171.3244"/>
</g>
<!-- options&#45;&gt;runCommand -->
<g id="edge34" class="edge">
<title>options&#45;&gt;runCommand</title>
<path fill="none" stroke="#000000" d="M108.9842,-496.9294C163.378,-550.5409 313.6284,-691.8957 463.3343,-772.4917 471.8386,-777.0701 481.2579,-781.0566 490.5898,-784.4585"/>
<polygon fill="#000000" stroke="#000000" points="489.646,-787.8354 500.2408,-787.7924 491.9316,-781.2191 489.646,-787.8354"/>
</g>
<!-- parseNumber -->
<g id="node24" class="node">
<title>parseNumber</title>
<ellipse fill="none" stroke="#000000" cx="545.1518" cy="-38.4917" rx="57.9892" ry="18"/>
<text text-anchor="middle" x="545.1518" y="-34.2917" font-family="Times,serif" font-size="14.00" fill="#000000">parseNumber</text>
</g>
<!-- options&#45;&gt;parseNumber -->
<g id="edge37" class="edge">
<title>options&#45;&gt;parseNumber</title>
<path fill="none" stroke="#000000" d="M107.3266,-453.764C181.5458,-371.8064 441.6103,-85.2867 463.3343,-70.4917 472.5035,-64.2472 483.0669,-58.9678 493.4923,-54.6094"/>
<polygon fill="#000000" stroke="#000000" points="494.9663,-57.7904 502.9838,-50.8643 492.397,-51.279 494.9663,-57.7904"/>
</g>
<!-- options&#45;&gt;variables -->
<g id="edge40" class="edge">
<title>options&#45;&gt;variables</title>
<path fill="none" stroke="#000000" d="M114.0611,-495.9993C173.4935,-541.3834 323.5611,-651.5839 463.3343,-718.4917 474.718,-723.941 487.4856,-728.7312 499.4882,-732.7048"/>
<polygon fill="#000000" stroke="#000000" points="498.7527,-736.1439 509.3433,-735.8472 500.8792,-729.4747 498.7527,-736.1439"/>
</g>
<!-- options&#45;&gt;runFunction -->
<g id="edge46" class="edge">
<title>options&#45;&gt;runFunction</title>
<path fill="none" stroke="#000000" d="M109.2844,-496.8595C128.4763,-516.6948 156.3436,-547.717 175.3343,-578.4917 347.6936,-857.8026 221.9507,-1036.1042 463.3343,-1258.4917 470.3559,-1264.9608 478.9623,-1269.8824 487.9268,-1273.6262"/>
<polygon fill="#000000" stroke="#000000" points="486.7537,-1276.924 497.3468,-1277.1166 489.1859,-1270.3601 486.7537,-1276.924"/>
</g>
<!-- options&#45;&gt;unicodes -->
<g id="edge53" class="edge">
<title>options&#45;&gt;unicodes</title>
<path fill="none" stroke="#000000" d="M131.2053,-459.4263C201.0649,-433.7432 342.6103,-382.0951 463.3343,-340.4917 475.832,-336.1848 489.4514,-331.6339 501.9286,-327.5206"/>
<polygon fill="#000000" stroke="#000000" points="503.2385,-330.7744 511.647,-324.3287 501.0542,-324.1239 503.2385,-330.7744"/>
</g>
<!-- options&#45;&gt;signatures -->
<g id="edge56" class="edge">
<title>options&#45;&gt;signatures</title>
<path fill="none" stroke="#000000" d="M121.3199,-494.5465C186.1159,-530.7528 333.3076,-610.6725 463.3343,-664.4917 474.5637,-669.1397 486.9067,-673.557 498.5252,-677.422"/>
<polygon fill="#000000" stroke="#000000" points="497.4818,-680.763 508.0741,-680.5315 499.6493,-674.107 497.4818,-680.763"/>
</g>
<!-- readjson -->
<g id="node36" class="node">
<title>readjson</title>
<ellipse fill="none" stroke="#000000" cx="545.1518" cy="-583.4917" rx="40.1317" ry="18"/>
<text text-anchor="middle" x="545.1518" y="-579.2917" font-family="Times,serif" font-size="14.00" fill="#000000">readjson</text>
</g>
<!-- options&#45;&gt;readjson -->
<g id="edge60" class="edge">
<title>options&#45;&gt;readjson</title>
<path fill="none" stroke="#000000" d="M139.7011,-487.7756C229.9437,-509.0795 414.0071,-552.532 499.5553,-572.7276"/>
<polygon fill="#000000" stroke="#000000" points="498.95,-576.1809 509.4867,-575.0721 500.5584,-569.3681 498.95,-576.1809"/>
</g>
<!-- options&#45;&gt;replacement -->
<g id="edge63" class="edge">
<title>options&#45;&gt;replacement</title>
<path fill="none" stroke="#000000" d="M108.5138,-453.6993C174.832,-384.7555 381.3705,-173.0798 463.3343,-124.4917 472.116,-119.2859 482.0306,-114.9368 491.8498,-111.3576"/>
<polygon fill="#000000" stroke="#000000" points="493.2588,-114.575 501.5917,-108.0319 490.9972,-107.9504 493.2588,-114.575"/>
</g>
<!-- tables -->
<g id="node5" class="node">
<title>tables</title>
<ellipse fill="none" stroke="#000000" cx="87.6672" cy="-610.4917" rx="50.796" ry="22.7556"/>
<text text-anchor="middle" x="87.6672" y="-603.2917" font-family="Times,serif" font-size="24.00" fill="#000000">tables</text>
</g>
<!-- tables&#45;&gt;parseCommandLine -->
<g id="edge3" class="edge">
<title>tables&#45;&gt;parseCommandLine</title>
<path fill="none" stroke="#000000" d="M130.2954,-597.9125C212.4549,-573.6679 392.8531,-520.4338 486.3567,-492.8417"/>
<polygon fill="#000000" stroke="#000000" points="487.3485,-496.1983 495.949,-490.0111 485.3673,-489.4845 487.3485,-496.1983"/>
</g>
<!-- tables&#45;&gt;regexes -->
<g id="edge8" class="edge">
<title>tables&#45;&gt;regexes</title>
<path fill="none" stroke="#000000" d="M106.6367,-589.0801C158.3256,-531.9583 308.1968,-374.3353 463.3343,-286.4917 475.2624,-279.7377 489.135,-274.3593 502.0315,-270.2371"/>
<polygon fill="#000000" stroke="#000000" points="503.0956,-273.572 511.6549,-267.3278 501.0699,-266.8715 503.0956,-273.572"/>
</g>
<!-- tables&#45;&gt;cmdline -->
<g id="edge10" class="edge">
<title>tables&#45;&gt;cmdline</title>
<path fill="none" stroke="#000000" d="M108.6343,-631.2323C126.8976,-649.6438 153.7581,-677.5695 175.3343,-703.4917 313.8668,-869.9285 288.1757,-969.1658 463.3343,-1096.4917 473.9314,-1104.1949 486.8543,-1109.7876 499.2712,-1113.8121"/>
<polygon fill="#000000" stroke="#000000" points="498.4845,-1117.2294 509.0668,-1116.7139 500.4728,-1110.5177 498.4845,-1117.2294"/>
</g>
<!-- tables&#45;&gt;processTemplate -->
<g id="edge15" class="edge">
<title>tables&#45;&gt;processTemplate</title>
<path fill="none" stroke="#000000" d="M115.8368,-591.6129C176.9847,-551.2444 327.3379,-455.2703 463.3343,-394.4917 471.4704,-390.8556 480.2509,-387.4496 488.9352,-384.3635"/>
<polygon fill="#000000" stroke="#000000" points="490.3411,-387.5812 498.6597,-381.0199 488.065,-380.9616 490.3411,-387.5812"/>
</g>
<!-- tables&#45;&gt;matches -->
<g id="edge26" class="edge">
<title>tables&#45;&gt;matches</title>
<path fill="none" stroke="#000000" d="M138.374,-613.4844C226.9008,-618.7091 408.5343,-629.4288 495.9753,-634.5894"/>
<polygon fill="#000000" stroke="#000000" points="495.9704,-638.0951 506.1593,-635.1905 496.3829,-631.1073 495.9704,-638.0951"/>
</g>
<!-- tables&#45;&gt;parseCmdLine -->
<g id="edge31" class="edge">
<title>tables&#45;&gt;parseCmdLine</title>
<path fill="none" stroke="#000000" d="M122.9774,-594.0186C189.0471,-563.4758 336.1805,-496.7807 463.3343,-448.4917 472.7731,-444.9072 482.9227,-441.3358 492.7519,-438.0198"/>
<polygon fill="#000000" stroke="#000000" points="494.0523,-441.2759 502.4361,-434.798 491.8425,-434.6338 494.0523,-441.2759"/>
</g>
<!-- vartypes -->
<g id="node23" class="node">
<title>vartypes</title>
<ellipse fill="none" stroke="#000000" cx="545.1518" cy="-529.4917" rx="40.1317" ry="18"/>
<text text-anchor="middle" x="545.1518" y="-525.2917" font-family="Times,serif" font-size="14.00" fill="#000000">vartypes</text>
</g>
<!-- tables&#45;&gt;vartypes -->
<g id="edge36" class="edge">
<title>tables&#45;&gt;vartypes</title>
<path fill="none" stroke="#000000" d="M135.3314,-602.0525C223.2764,-586.4814 410.072,-553.4083 497.7899,-537.8774"/>
<polygon fill="#000000" stroke="#000000" points="498.4944,-541.3072 507.731,-536.1173 497.2739,-534.4144 498.4944,-541.3072"/>
</g>
<!-- tables&#45;&gt;variables -->
<g id="edge41" class="edge">
<title>tables&#45;&gt;variables</title>
<path fill="none" stroke="#000000" d="M130.2954,-623.071C216.9045,-648.6286 412.6816,-706.4009 500.7548,-732.3905"/>
<polygon fill="#000000" stroke="#000000" points="499.8636,-735.7767 510.4453,-735.2501 501.8448,-729.0629 499.8636,-735.7767"/>
</g>
<!-- tables&#45;&gt;tostring -->
<g id="edge43" class="edge">
<title>tables&#45;&gt;tostring</title>
<path fill="none" stroke="#000000" d="M115.8368,-629.3706C176.9847,-669.7391 327.3379,-765.7132 463.3343,-826.4917 475.9577,-832.1333 490.1324,-837.221 503.0922,-841.4193"/>
<polygon fill="#000000" stroke="#000000" points="502.1305,-844.7858 512.72,-844.4508 504.2329,-838.109 502.1305,-844.7858"/>
</g>
<!-- tables&#45;&gt;runFunction -->
<g id="edge47" class="edge">
<title>tables&#45;&gt;runFunction</title>
<path fill="none" stroke="#000000" d="M110.4025,-631.1618C129.2825,-649.0867 156.0695,-676.3509 175.3343,-703.4917 336.1879,-930.1072 251.7615,-1078.3101 463.3343,-1258.4917 470.6875,-1264.7539 479.5364,-1269.5748 488.6588,-1273.2831"/>
<polygon fill="#000000" stroke="#000000" points="487.619,-1276.6292 498.213,-1276.7585 490.012,-1270.0509 487.619,-1276.6292"/>
</g>
<!-- tables&#45;&gt;signatures -->
<g id="edge55" class="edge">
<title>tables&#45;&gt;signatures</title>
<path fill="none" stroke="#000000" d="M135.3314,-618.9309C221.713,-634.2252 403.4618,-666.4048 493.0189,-682.2614"/>
<polygon fill="#000000" stroke="#000000" points="492.4948,-685.7229 502.9519,-684.02 493.7153,-678.8301 492.4948,-685.7229"/>
</g>
<!-- tables&#45;&gt;readjson -->
<g id="edge62" class="edge">
<title>tables&#45;&gt;readjson</title>
<path fill="none" stroke="#000000" d="M138.374,-607.4991C226.5655,-602.2942 407.1596,-591.6358 494.9776,-586.4529"/>
<polygon fill="#000000" stroke="#000000" points="495.4383,-589.9319 505.2147,-585.8488 495.0258,-582.9441 495.4383,-589.9319"/>
</g>
<!-- re -->
<g id="node8" class="node">
<title>re</title>
<polygon fill="#98fb98" stroke="#000000" points="114.6672,-256.3499 114.6672,-276.6336 98.8509,-290.9764 76.4834,-290.9764 60.6672,-276.6336 60.6672,-256.3499 76.4834,-242.0071 98.8509,-242.0071 114.6672,-256.3499"/>
<polygon fill="none" stroke="#000000" points="118.6672,-254.5783 118.6672,-278.4052 100.3948,-294.9752 74.9395,-294.9752 56.6672,-278.4052 56.6672,-254.5783 74.9395,-238.0083 100.3948,-238.0083 118.6672,-254.5783"/>
<text text-anchor="middle" x="87.6672" y="-259.2917" font-family="Times,serif" font-size="24.00" fill="#000000">re</text>
</g>
<!-- re&#45;&gt;regexes -->
<g id="edge6" class="edge">
<title>re&#45;&gt;regexes</title>
<path fill="none" stroke="#000000" d="M118.7523,-266.0161C197.2583,-264.8149 403.9214,-261.6527 497.683,-260.2181"/>
<polygon fill="#000000" stroke="#000000" points="497.7937,-263.7169 507.7389,-260.0642 497.6865,-256.7177 497.7937,-263.7169"/>
</g>
<!-- os -->
<g id="node10" class="node">
<title>os</title>
<ellipse fill="none" stroke="#000000" cx="87.6672" cy="-1123.4917" rx="27" ry="22.7556"/>
<text text-anchor="middle" x="87.6672" y="-1116.2917" font-family="Times,serif" font-size="24.00" fill="#000000">os</text>
</g>
<!-- os&#45;&gt;statictea -->
<g id="edge67" class="edge">
<title>os&#45;&gt;statictea</title>
<path fill="none" stroke="#000000" d="M114.5769,-1126.6681C189.5129,-1135.5133 401.3471,-1160.5175 497.1014,-1171.82"/>
<polygon fill="#000000" stroke="#000000" points="496.7526,-1175.3031 507.0939,-1172.9995 497.5732,-1168.3513 496.7526,-1175.3031"/>
</g>
<!-- os&#45;&gt;cmdline -->
<g id="edge9" class="edge">
<title>os&#45;&gt;cmdline</title>
<path fill="none" stroke="#000000" d="M114.9149,-1123.4917C189.9887,-1123.4917 400.5981,-1123.4917 496.4939,-1123.4917"/>
<polygon fill="#000000" stroke="#000000" points="496.5074,-1126.9918 506.5074,-1123.4917 496.5073,-1119.9918 496.5074,-1126.9918"/>
</g>
<!-- os&#45;&gt;processTemplate -->
<g id="edge13" class="edge">
<title>os&#45;&gt;processTemplate</title>
<path fill="none" stroke="#000000" d="M99.4374,-1103.0721C116.5353,-1073.2634 149.0681,-1015.9916 175.3343,-966.4917 308.7475,-715.0681 247.7718,-580.3566 463.3343,-394.4917 468.5861,-389.9635 474.6188,-386.1899 480.9776,-383.0461"/>
<polygon fill="#000000" stroke="#000000" points="482.7251,-386.1014 490.474,-378.8761 479.9106,-379.692 482.7251,-386.1014"/>
</g>
<!-- os&#45;&gt;env -->
<g id="edge17" class="edge">
<title>os&#45;&gt;env</title>
<path fill="none" stroke="#000000" d="M110.4112,-1110.5552C168.1066,-1078.0715 325.3812,-991.5918 463.3343,-934.4917 478.494,-928.217 495.6832,-922.3626 510.3797,-917.7202"/>
<polygon fill="#000000" stroke="#000000" points="511.5835,-921.0114 520.1003,-914.7096 509.5125,-914.3248 511.5835,-921.0114"/>
</g>
<!-- os&#45;&gt;tempFile -->
<g id="edge21" class="edge">
<title>os&#45;&gt;tempFile</title>
<path fill="none" stroke="#000000" d="M113.9067,-1129.6862C188.6472,-1147.3305 403.3864,-1198.0247 498.663,-1220.517"/>
<polygon fill="#000000" stroke="#000000" points="498.0528,-1223.969 508.5894,-1222.8603 499.6611,-1217.1563 498.0528,-1223.969"/>
</g>
<!-- os&#45;&gt;runFunction -->
<g id="edge50" class="edge">
<title>os&#45;&gt;runFunction</title>
<path fill="none" stroke="#000000" d="M112.6463,-1132.7246C172.8204,-1154.9102 330.6525,-1212.7676 463.3343,-1258.4917 474.1627,-1262.2234 485.833,-1266.1382 496.873,-1269.7928"/>
<polygon fill="#000000" stroke="#000000" points="495.7824,-1273.1185 506.3755,-1272.9263 497.9746,-1266.4706 495.7824,-1273.1185"/>
</g>
<!-- os&#45;&gt;readjson -->
<g id="edge59" class="edge">
<title>os&#45;&gt;readjson</title>
<path fill="none" stroke="#000000" d="M100.18,-1103.1472C153.5585,-1016.9177 364.0108,-682.718 463.3343,-610.4917 473.6437,-602.995 486.1558,-597.4974 498.2617,-593.4987"/>
<polygon fill="#000000" stroke="#000000" points="499.275,-596.8489 507.8335,-590.6037 497.2484,-590.1487 499.275,-596.8489"/>
</g>
<!-- streams -->
<g id="node12" class="node">
<title>streams</title>
<ellipse fill="none" stroke="#000000" cx="87.6672" cy="-197.4917" rx="63.3073" ry="22.7556"/>
<text text-anchor="middle" x="87.6672" y="-190.2917" font-family="Times,serif" font-size="24.00" fill="#000000">streams</text>
</g>
<!-- streams&#45;&gt;processTemplate -->
<g id="edge12" class="edge">
<title>streams&#45;&gt;processTemplate</title>
<path fill="none" stroke="#000000" d="M132.3226,-213.6171C146.1308,-218.6502 161.3782,-224.2556 175.3343,-229.4917 303.7703,-277.6787 334.1614,-294.3168 463.3343,-340.4917 472.4291,-343.7428 482.141,-347.0716 491.5803,-350.232"/>
<polygon fill="#000000" stroke="#000000" points="490.6875,-353.6234 501.281,-353.4542 492.8942,-346.9803 490.6875,-353.6234"/>
</g>
<!-- streams&#45;&gt;env -->
<g id="edge16" class="edge">
<title>streams&#45;&gt;env</title>
<path fill="none" stroke="#000000" d="M141.5801,-209.513C153.7586,-214.1904 165.8692,-220.6362 175.3343,-229.4917 406.3664,-445.6443 228.9543,-667.9741 463.3343,-880.4917 475.7874,-891.7833 493.0745,-898.3643 508.5513,-902.1945"/>
<polygon fill="#000000" stroke="#000000" points="507.8758,-905.6294 518.3914,-904.3362 509.3645,-898.7895 507.8758,-905.6294"/>
</g>
<!-- streams&#45;&gt;readlines -->
<g id="edge28" class="edge">
<title>streams&#45;&gt;readlines</title>
<path fill="none" stroke="#000000" d="M150.7981,-198.5957C241.8604,-200.1881 408.3967,-203.1003 492.9366,-204.5787"/>
<polygon fill="#000000" stroke="#000000" points="493.0157,-208.0805 503.0754,-204.756 493.1382,-201.0815 493.0157,-208.0805"/>
</g>
<!-- streams&#45;&gt;collectCommand -->
<g id="edge32" class="edge">
<title>streams&#45;&gt;collectCommand</title>
<path fill="none" stroke="#000000" d="M148.8909,-191.3357C231.7661,-183.0026 379.5845,-168.1395 469.3682,-159.1118"/>
<polygon fill="#000000" stroke="#000000" points="469.8836,-162.5777 479.4832,-158.0947 469.1832,-155.6128 469.8836,-162.5777"/>
</g>
<!-- streams&#45;&gt;readjson -->
<g id="edge58" class="edge">
<title>streams&#45;&gt;readjson</title>
<path fill="none" stroke="#000000" d="M138.451,-211.1883C151.1114,-215.8749 164.2305,-221.9056 175.3343,-229.4917 335.2422,-338.7402 301.7395,-449.7542 463.3343,-556.4917 474.0689,-563.5822 486.8257,-568.956 499.0341,-572.9662"/>
<polygon fill="#000000" stroke="#000000" points="498.0726,-576.332 508.6584,-575.8967 500.1116,-569.6355 498.0726,-576.332"/>
</g>
<!-- streams&#45;&gt;replacement -->
<g id="edge64" class="edge">
<title>streams&#45;&gt;replacement</title>
<path fill="none" stroke="#000000" d="M141.9432,-185.6277C229.7994,-166.4235 402.1961,-128.7399 490.3735,-109.4655"/>
<polygon fill="#000000" stroke="#000000" points="491.1616,-112.876 500.1835,-107.3212 489.6667,-106.0375 491.1616,-112.876"/>
</g>
<!-- times -->
<g id="node15" class="node">
<title>times</title>
<polygon fill="#98fb98" stroke="#000000" points="139.7481,-855.3499 139.7481,-875.6336 109.2398,-889.9764 66.0945,-889.9764 35.5862,-875.6336 35.5862,-855.3499 66.0945,-841.0071 109.2398,-841.0071 139.7481,-855.3499"/>
<polygon fill="none" stroke="#000000" points="143.7511,-852.8122 143.7511,-878.1712 110.1347,-893.9752 65.1997,-893.9752 31.5832,-878.1712 31.5832,-852.8122 65.1997,-837.0083 110.1347,-837.0083 143.7511,-852.8122"/>
<text text-anchor="middle" x="87.6672" y="-858.2917" font-family="Times,serif" font-size="24.00" fill="#000000">times</text>
</g>
<!-- times&#45;&gt;env -->
<g id="edge18" class="edge">
<title>times&#45;&gt;env</title>
<path fill="none" stroke="#000000" d="M143.7638,-870.6418C238.6409,-879.3521 428.2582,-896.7602 508.2261,-904.1017"/>
<polygon fill="#000000" stroke="#000000" points="508.0375,-907.599 518.3157,-905.028 508.6776,-900.6284 508.0375,-907.599"/>
</g>
<!-- random -->
<g id="node17" class="node">
<title>random</title>
<polygon fill="#98fb98" stroke="#000000" points="155.889,-1200.3499 155.889,-1220.6336 115.9256,-1234.9764 59.4087,-1234.9764 19.4453,-1220.6336 19.4453,-1200.3499 59.4087,-1186.0071 115.9256,-1186.0071 155.889,-1200.3499"/>
<polygon fill="none" stroke="#000000" points="159.8811,-1197.5349 159.8811,-1223.4486 116.6191,-1238.9752 58.7152,-1238.9752 15.4532,-1223.4486 15.4532,-1197.5349 58.7152,-1182.0083 116.6191,-1182.0083 159.8811,-1197.5349"/>
<text text-anchor="middle" x="87.6672" y="-1203.2917" font-family="Times,serif" font-size="24.00" fill="#000000">random</text>
</g>
<!-- random&#45;&gt;tempFile -->
<g id="edge22" class="edge">
<title>random&#45;&gt;tempFile</title>
<path fill="none" stroke="#000000" d="M159.9045,-1213.8077C252.8676,-1218.075 412.0864,-1225.3836 493.6645,-1229.1283"/>
<polygon fill="#000000" stroke="#000000" points="493.5444,-1232.6264 503.6944,-1229.5887 493.8654,-1225.6337 493.5444,-1232.6264"/>
</g>
<!-- parseutils -->
<g id="node25" class="node">
<title>parseutils</title>
<polygon fill="#98fb98" stroke="#000000" points="170.4501,-18.3499 170.4501,-38.6336 121.957,-52.9764 53.3774,-52.9764 4.8843,-38.6336 4.8843,-18.3499 53.3774,-4.0071 121.957,-4.0071 170.4501,-18.3499"/>
<polygon fill="none" stroke="#000000" points="174.4567,-15.3642 174.4567,-41.6193 122.5382,-56.9752 52.7962,-56.9752 .8776,-41.6193 .8776,-15.3642 52.7962,-.0083 122.5382,-.0083 174.4567,-15.3642"/>
<text text-anchor="middle" x="87.6672" y="-21.2917" font-family="Times,serif" font-size="24.00" fill="#000000">parseutils</text>
</g>
<!-- parseutils&#45;&gt;parseNumber -->
<g id="edge38" class="edge">
<title>parseutils&#45;&gt;parseNumber</title>
<path fill="none" stroke="#000000" d="M174.5237,-30.3903C262.4986,-32.3133 396.7505,-35.2479 477.235,-37.0072"/>
<polygon fill="#000000" stroke="#000000" points="477.1849,-40.5068 487.2591,-37.2263 477.338,-33.5085 477.1849,-40.5068"/>
</g>
<!-- json -->
<g id="node28" class="node">
<title>json</title>
<ellipse fill="none" stroke="#ff0000" cx="87.6672" cy="-735.4917" rx="39.7073" ry="22.7556"/>
<text text-anchor="middle" x="87.6672" y="-728.2917" font-family="Times,serif" font-size="24.00" fill="#000000">json</text>
</g>
<!-- json&#45;&gt;tostring -->
<g id="edge44" class="edge">
<title>json&#45;&gt;tostring</title>
<path fill="none" stroke="#ff0000" d="M123.9476,-744.8496C207.4823,-766.3959 413.0728,-819.4243 502.4778,-842.4847"/>
<polygon fill="#ff0000" stroke="#ff0000" points="501.726,-845.9053 512.2833,-845.0139 503.4744,-839.1272 501.726,-845.9053"/>
</g>
<!-- json&#45;&gt;readjson -->
<g id="edge61" class="edge">
<title>json&#45;&gt;readjson</title>
<path fill="none" stroke="#ff0000" d="M122.1007,-724.0027C188.2228,-701.9476 337.5713,-652.166 463.3343,-610.4917 476.1064,-606.2594 490.0046,-601.6678 502.6606,-597.4919"/>
<polygon fill="#ff0000" stroke="#ff0000" points="504.0985,-600.7032 512.4989,-594.2468 501.9058,-594.0554 504.0985,-600.7032"/>
</g>
<!-- math -->
<g id="node31" class="node">
<title>math</title>
<polygon fill="#98fb98" stroke="#000000" points="136.6181,-1350.3499 136.6181,-1370.6336 107.9433,-1384.9764 67.391,-1384.9764 38.7162,-1370.6336 38.7162,-1350.3499 67.391,-1336.0071 107.9433,-1336.0071 136.6181,-1350.3499"/>
<polygon fill="none" stroke="#000000" points="140.6162,-1347.8787 140.6162,-1373.1048 108.8873,-1388.9752 66.447,-1388.9752 34.7181,-1373.1048 34.7181,-1347.8787 66.447,-1332.0083 108.8873,-1332.0083 140.6162,-1347.8787"/>
<text text-anchor="middle" x="87.6672" y="-1353.2917" font-family="Times,serif" font-size="24.00" fill="#000000">math</text>
</g>
<!-- math&#45;&gt;runFunction -->
<g id="edge49" class="edge">
<title>math&#45;&gt;runFunction</title>
<path fill="none" stroke="#000000" d="M141.0418,-1351.7415C227.5118,-1337.5656 397.5397,-1309.6913 486.9882,-1295.0271"/>
<polygon fill="#000000" stroke="#000000" points="487.6596,-1298.4638 496.9616,-1293.392 486.5271,-1291.556 487.6596,-1298.4638"/>
</g>
<!-- algorithm -->
<g id="node32" class="node">
<title>algorithm</title>
<polygon fill="#98fb98" stroke="#000000" points="171.4941,-1275.3499 171.4941,-1295.6336 122.3894,-1309.9764 52.9449,-1309.9764 3.8402,-1295.6336 3.8402,-1275.3499 52.9449,-1261.0071 122.3894,-1261.0071 171.4941,-1275.3499"/>
<polygon fill="none" stroke="#000000" points="175.5018,-1272.3538 175.5018,-1298.6297 122.964,-1313.9752 52.3704,-1313.9752 -.1675,-1298.6297 -.1675,-1272.3538 52.3704,-1257.0083 122.964,-1257.0083 175.5018,-1272.3538"/>
<text text-anchor="middle" x="87.6672" y="-1278.2917" font-family="Times,serif" font-size="24.00" fill="#000000">algorithm</text>
</g>
<!-- algorithm&#45;&gt;runFunction -->
<g id="edge51" class="edge">
<title>algorithm&#45;&gt;runFunction</title>
<path fill="none" stroke="#000000" d="M175.604,-1285.4917C265.1511,-1285.4917 401.8166,-1285.4917 481.4387,-1285.4917"/>
<polygon fill="#000000" stroke="#000000" points="481.809,-1288.9918 491.8089,-1285.4917 481.8089,-1281.9918 481.809,-1288.9918"/>
</g>
<!-- unicode -->
<g id="node33" class="node">
<title>unicode</title>
<polygon fill="#98fb98" stroke="#000000" points="157.9587,-331.3499 157.9587,-351.6336 116.7829,-365.9764 58.5514,-365.9764 17.3756,-351.6336 17.3756,-331.3499 58.5514,-317.0071 116.7829,-317.0071 157.9587,-331.3499"/>
<polygon fill="none" stroke="#000000" points="161.953,-328.5072 161.953,-354.4763 117.4579,-369.9752 57.8764,-369.9752 13.3814,-354.4763 13.3814,-328.5072 57.8764,-313.0083 117.4579,-313.0083 161.953,-328.5072"/>
<text text-anchor="middle" x="87.6672" y="-334.2917" font-family="Times,serif" font-size="24.00" fill="#000000">unicode</text>
</g>
<!-- unicode&#45;&gt;unicodes -->
<g id="edge52" class="edge">
<title>unicode&#45;&gt;unicodes</title>
<path fill="none" stroke="#000000" d="M162.1882,-336.9307C255.3569,-331.2284 412.4199,-321.6155 493.409,-316.6586"/>
<polygon fill="#000000" stroke="#000000" points="494.0776,-320.1243 503.8451,-316.0199 493.6499,-313.1374 494.0776,-320.1243"/>
</g>
<!-- strformat -->
<g id="node38" class="node">
<title>strformat</title>
<polygon fill="#98fb98" stroke="#000000" points="167.318,-93.3499 167.318,-113.6336 120.6596,-127.9764 54.6747,-127.9764 8.0163,-113.6336 8.0163,-93.3499 54.6747,-79.0071 120.6596,-79.0071 167.318,-93.3499"/>
<polygon fill="none" stroke="#000000" points="171.3217,-90.3967 171.3217,-116.5868 121.2618,-131.9752 54.0725,-131.9752 4.0126,-116.5868 4.0126,-90.3967 54.0725,-75.0083 121.2618,-75.0083 171.3217,-90.3967"/>
<text text-anchor="middle" x="87.6672" y="-96.2917" font-family="Times,serif" font-size="24.00" fill="#000000">strformat</text>
</g>
<!-- strformat&#45;&gt;replacement -->
<g id="edge65" class="edge">
<title>strformat&#45;&gt;replacement</title>
<path fill="none" stroke="#000000" d="M171.3108,-102.3947C260.82,-101.2208 400.8139,-99.3848 481.6822,-98.3242"/>
<polygon fill="#000000" stroke="#000000" points="481.7722,-101.8234 491.7254,-98.1924 481.6803,-94.824 481.7722,-101.8234"/>
</g>
</g>
</svg>
