<?xml version="1.0" encoding="UTF-8" standalone="no"?>
<!DOCTYPE svg PUBLIC "-//W3C//DTD SVG 1.1//EN"
 "http://www.w3.org/Graphics/SVG/1.1/DTD/svg11.dtd">
<!-- Generated by graphviz version 2.40.1 (20161225.0304)
 -->
<!-- Title: statictea Pages: 1 -->
<svg width="720pt" height="319pt"
 viewBox="0.00 0.00 720.00 319.33" xmlns="http://www.w3.org/2000/svg" xmlns:xlink="http://www.w3.org/1999/xlink">
<g id="graph0" class="graph" transform="scale(.2052 .2052) rotate(0) translate(4 1551.9718)">
<title>statictea</title>
<polygon fill="#ffffff" stroke="transparent" points="-4,4 -4,-1551.9718 3504.2689,-1551.9718 3504.2689,4 -4,4"/>
<!-- runFunction -->
<g id="node1" class="node">
<title>runFunction</title>
<g id="a_node1"><a xlink:href="runFunction.md" xlink:title="runFunction.md">
<ellipse fill="#eee8aa" stroke="#000000" cx="968.2689" cy="-906" rx="94.055" ry="22.7556"/>
<text text-anchor="middle" x="968.2689" y="-898.8" font-family="Times,serif" font-size="24.00" fill="#000000">runFunction</text>
</a>
</g>
</g>
<!-- parseNumber -->
<g id="node3" class="node">
<title>parseNumber</title>
<g id="a_node3"><a xlink:href="parseNumber.md" xlink:title="parseNumber.md">
<ellipse fill="#eee8aa" stroke="#000000" cx="1213.2689" cy="-791" rx="102.9592" ry="22.7556"/>
<text text-anchor="middle" x="1213.2689" y="-783.8" font-family="Times,serif" font-size="24.00" fill="#000000">parseNumber</text>
</a>
</g>
</g>
<!-- runFunction&#45;&gt;parseNumber -->
<g id="edge54" class="edge">
<title>runFunction&#45;&gt;parseNumber</title>
<path fill="none" stroke="#000000" d="M1011.225,-885.8369C1052.7368,-866.3518 1115.719,-836.7887 1160.3137,-815.8565"/>
<polygon fill="#000000" stroke="#000000" points="1161.9711,-818.945 1169.5362,-811.5276 1158.9967,-812.6084 1161.9711,-818.945"/>
</g>
<!-- regexes -->
<g id="node4" class="node">
<title>regexes</title>
<g id="a_node4"><a xlink:href="regexes.md" xlink:title="regexes.md">
<polygon fill="#98fb98" stroke="#000000" points="850.4559,-409.8581 850.4559,-430.1419 810.5129,-444.4846 754.0249,-444.4846 714.0819,-430.1419 714.0819,-409.8581 754.0249,-395.5154 810.5129,-395.5154 850.4559,-409.8581"/>
<polygon fill="none" stroke="#000000" points="854.447,-407.0434 854.447,-432.9566 811.2065,-448.4835 753.3313,-448.4835 710.0908,-432.9566 710.0908,-407.0434 753.3313,-391.5165 811.2065,-391.5165 854.447,-407.0434"/>
<text text-anchor="middle" x="782.2689" y="-412.8" font-family="Times,serif" font-size="24.00" fill="#000000">regexes</text>
</a>
</g>
</g>
<!-- runFunction&#45;&gt;regexes -->
<g id="edge53" class="edge">
<title>runFunction&#45;&gt;regexes</title>
<path fill="none" stroke="#000000" d="M933.0647,-884.7771C882.5148,-851.9846 791.4752,-783.6975 755.2689,-697.6274 721.5938,-617.5747 748.3505,-513.4352 767.3956,-458.2425"/>
<polygon fill="#000000" stroke="#000000" points="770.7987,-459.118 770.8457,-448.5233 764.202,-456.7763 770.7987,-459.118"/>
</g>
<!-- unicodes -->
<g id="node9" class="node">
<title>unicodes</title>
<g id="a_node9"><a xlink:href="unicodes.md" xlink:title="unicodes.md">
<ellipse fill="#eee8aa" stroke="#000000" cx="408.2689" cy="-675" rx="71.7778" ry="22.7556"/>
<text text-anchor="middle" x="408.2689" y="-667.8" font-family="Times,serif" font-size="24.00" fill="#000000">unicodes</text>
</a>
</g>
</g>
<!-- runFunction&#45;&gt;unicodes -->
<g id="edge63" class="edge">
<title>runFunction&#45;&gt;unicodes</title>
<path fill="none" stroke="#000000" d="M920.5236,-886.3051C816.5397,-843.4117 570.2268,-741.8076 461.4639,-696.9429"/>
<polygon fill="#000000" stroke="#000000" points="462.5788,-693.6168 451.9998,-693.039 459.9095,-700.0879 462.5788,-693.6168"/>
</g>
<!-- vartypes -->
<g id="node12" class="node">
<title>vartypes</title>
<g id="a_node12"><a xlink:href="vartypes.md" xlink:title="vartypes.md">
<ellipse fill="#eee8aa" stroke="#000000" cx="1439.2689" cy="-552" rx="68.6102" ry="22.7556"/>
<text text-anchor="middle" x="1439.2689" y="-544.8" font-family="Times,serif" font-size="24.00" fill="#000000">vartypes</text>
</a>
</g>
</g>
<!-- runFunction&#45;&gt;vartypes -->
<g id="edge52" class="edge">
<title>runFunction&#45;&gt;vartypes</title>
<path fill="none" stroke="#000000" d="M980.1757,-883.4802C996.6937,-853.9582 1029.0073,-801.988 1068.2689,-768.3726 1120.6239,-723.5468 1146.325,-731.644 1206.2689,-697.6274 1275.8408,-658.1472 1354.2443,-607.9028 1400.0568,-577.9369"/>
<polygon fill="#000000" stroke="#000000" points="1402.0527,-580.8136 1408.4973,-572.4041 1398.2151,-574.9592 1402.0527,-580.8136"/>
</g>
<!-- replacement -->
<g id="node14" class="node">
<title>replacement</title>
<g id="a_node14"><a xlink:href="replacement.md" xlink:title="replacement.md">
<ellipse fill="#eee8aa" stroke="#000000" cx="2036.2689" cy="-791" rx="94.4556" ry="22.7556"/>
<text text-anchor="middle" x="2036.2689" y="-783.8" font-family="Times,serif" font-size="24.00" fill="#000000">replacement</text>
</a>
</g>
</g>
<!-- runFunction&#45;&gt;replacement -->
<g id="edge77" class="edge">
<title>runFunction&#45;&gt;replacement</title>
<path fill="none" stroke="#000000" d="M1054.3123,-896.735C1251.1639,-875.5385 1733.228,-823.6308 1939.7686,-801.3909"/>
<polygon fill="#000000" stroke="#000000" points="1940.4229,-804.8408 1949.9907,-800.2903 1939.6735,-797.881 1940.4229,-804.8408"/>
</g>
<!-- warnings -->
<g id="node17" class="node">
<title>warnings</title>
<g id="a_node17"><a xlink:href="warnings.md" xlink:title="warnings.md">
<ellipse fill="#eee8aa" stroke="#000000" cx="2114.2689" cy="-172" rx="73.5561" ry="22.7556"/>
<text text-anchor="middle" x="2114.2689" y="-164.8" font-family="Times,serif" font-size="24.00" fill="#000000">warnings</text>
</a>
</g>
</g>
<!-- runFunction&#45;&gt;warnings -->
<g id="edge51" class="edge">
<title>runFunction&#45;&gt;warnings</title>
<path fill="none" stroke="#000000" d="M1050.5481,-894.9525C1248.7188,-863.8359 1755.2052,-756.6815 2014.2689,-448.4917 2022.4867,-438.7156 2078.9847,-275.2057 2103.2426,-204.3349"/>
<polygon fill="#000000" stroke="#000000" points="2106.6544,-205.1746 2106.5781,-194.58 2100.0309,-202.9097 2106.6544,-205.1746"/>
</g>
<!-- signatures -->
<g id="node23" class="node">
<title>signatures</title>
<g id="a_node23"><a xlink:href="signatures.md" xlink:title="signatures.md">
<ellipse fill="#eee8aa" stroke="#000000" cx="1084.2689" cy="-675" rx="80.2483" ry="22.7556"/>
<text text-anchor="middle" x="1084.2689" y="-667.8" font-family="Times,serif" font-size="24.00" fill="#000000">signatures</text>
</a>
</g>
</g>
<!-- runFunction&#45;&gt;signatures -->
<g id="edge66" class="edge">
<title>runFunction&#45;&gt;signatures</title>
<path fill="none" stroke="#000000" d="M968.1588,-883.2517C968.9066,-854.8419 973.1781,-805.4653 992.2689,-768.3726 1005.4494,-742.7633 1028.0838,-719.6539 1047.6027,-702.8319"/>
<polygon fill="#000000" stroke="#000000" points="1050.044,-705.3526 1055.4603,-696.2468 1045.5478,-699.9875 1050.044,-705.3526"/>
</g>
<!-- opresultwarn -->
<g id="node25" class="node">
<title>opresultwarn</title>
<g id="a_node25"><a xlink:href="opresultwarn.md" xlink:title="opresultwarn.md">
<ellipse fill="#eee8aa" stroke="#000000" cx="1244.2689" cy="-296" rx="99.824" ry="22.7556"/>
<text text-anchor="middle" x="1244.2689" y="-288.8" font-family="Times,serif" font-size="24.00" fill="#000000">opresultwarn</text>
</a>
</g>
</g>
<!-- runFunction&#45;&gt;opresultwarn -->
<g id="edge78" class="edge">
<title>runFunction&#45;&gt;opresultwarn</title>
<path fill="none" stroke="#000000" d="M972.2294,-883.2399C978.4824,-853.4517 993.2682,-801.1877 1024.2689,-768.3726 1074.611,-715.084 1128.8317,-755.9312 1173.2689,-697.6274 1217.5691,-639.5033 1236.5902,-413.9864 1242.2961,-328.8164"/>
<polygon fill="#000000" stroke="#000000" points="1245.7987,-328.8888 1242.9561,-318.6825 1238.8135,-328.4339 1245.7987,-328.8888"/>
</g>
<!-- messages -->
<g id="node26" class="node">
<title>messages</title>
<g id="a_node26"><a xlink:href="messages.md" xlink:title="messages.md">
<polygon fill="#98fb98" stroke="#000000" points="2006.0077,-29.8581 2006.0077,-50.1419 1958.1262,-64.4846 1890.4116,-64.4846 1842.5301,-50.1419 1842.5301,-29.8581 1890.4116,-15.5154 1958.1262,-15.5154 2006.0077,-29.8581"/>
<polygon fill="none" stroke="#000000" points="2010.0135,-26.883 2010.0135,-53.117 1958.7143,-68.4835 1889.8235,-68.4835 1838.5243,-53.117 1838.5243,-26.883 1889.8235,-11.5165 1958.7143,-11.5165 2010.0135,-26.883"/>
<text text-anchor="middle" x="1924.2689" y="-32.8" font-family="Times,serif" font-size="24.00" fill="#000000">messages</text>
</a>
</g>
</g>
<!-- runFunction&#45;&gt;messages -->
<g id="edge50" class="edge">
<title>runFunction&#45;&gt;messages</title>
<path fill="none" stroke="#000000" d="M880.342,-897.6632C744.4862,-883.7512 490.7104,-853.3639 409.2689,-813.6274 203.3246,-713.1442 76.2689,-649.1505 76.2689,-420 76.2689,-420 76.2689,-420 76.2689,-296 76.2689,-202.1709 137.1363,-182.9588 222.2689,-143.5083 368.0601,-75.9485 1490.8008,-48.5323 1828.4942,-41.7626"/>
<polygon fill="#000000" stroke="#000000" points="1828.5665,-45.2619 1838.4949,-41.5635 1828.4272,-38.2633 1828.5665,-45.2619"/>
</g>
<!-- matches -->
<g id="node27" class="node">
<title>matches</title>
<g id="a_node27"><a xlink:href="matches.md" xlink:title="matches.md">
<ellipse fill="#eee8aa" stroke="#000000" cx="1639.2689" cy="-552" rx="66.8311" ry="22.7556"/>
<text text-anchor="middle" x="1639.2689" y="-544.8" font-family="Times,serif" font-size="24.00" fill="#000000">matches</text>
</a>
</g>
</g>
<!-- runFunction&#45;&gt;matches -->
<g id="edge55" class="edge">
<title>runFunction&#45;&gt;matches</title>
<path fill="none" stroke="#000000" d="M1051.3506,-895.1221C1126.173,-882.9109 1237.5442,-858.6231 1325.2689,-813.6274 1446.2239,-751.5874 1561.9947,-635.8835 1612.602,-581.579"/>
<polygon fill="#000000" stroke="#000000" points="1615.3675,-583.7437 1619.5887,-574.0261 1610.2288,-578.9903 1615.3675,-583.7437"/>
</g>
<!-- readjson -->
<g id="node29" class="node">
<title>readjson</title>
<g id="a_node29"><a xlink:href="readjson.md" xlink:title="readjson.md">
<ellipse fill="#eee8aa" stroke="#000000" cx="487.2689" cy="-791" rx="68.6102" ry="22.7556"/>
<text text-anchor="middle" x="487.2689" y="-783.8" font-family="Times,serif" font-size="24.00" fill="#000000">readjson</text>
</a>
</g>
</g>
<!-- runFunction&#45;&gt;readjson -->
<g id="edge84" class="edge">
<title>runFunction&#45;&gt;readjson</title>
<path fill="none" stroke="#000000" d="M898.6942,-890.6956C819.101,-872.992 684.9583,-842.5588 570.2689,-813.6274 563.6525,-811.9584 556.7541,-810.1644 549.8851,-808.3432"/>
<polygon fill="#000000" stroke="#000000" points="550.4434,-804.8695 539.8786,-805.6668 548.6347,-811.6318 550.4434,-804.8695"/>
</g>
<!-- opresultid -->
<g id="node2" class="node">
<title>opresultid</title>
<g id="a_node2"><a xlink:href="opresultid.md" xlink:title="opresultid.md">
<ellipse fill="#eee8aa" stroke="#000000" cx="803.2689" cy="-296" rx="79.3758" ry="22.7556"/>
<text text-anchor="middle" x="803.2689" y="-288.8" font-family="Times,serif" font-size="24.00" fill="#000000">opresultid</text>
</a>
</g>
</g>
<!-- opresultid&#45;&gt;messages -->
<g id="edge56" class="edge">
<title>opresultid&#45;&gt;messages</title>
<path fill="none" stroke="#000000" d="M809.9271,-273.2463C821.3558,-238.6708 848.2426,-173.7356 896.2689,-143.5083 974.1853,-94.4683 1588.2742,-57.5144 1828.4495,-44.8009"/>
<polygon fill="#000000" stroke="#000000" points="1828.7627,-48.2893 1838.5647,-44.2681 1828.3944,-41.299 1828.7627,-48.2893"/>
</g>
<!-- opresult -->
<g id="node33" class="node">
<title>opresult</title>
<g id="a_node33"><a xlink:href="opresult.md" xlink:title="opresult.md">
<polygon fill="#98fb98" stroke="#000000" points="1084.6215,-161.8581 1084.6215,-182.1419 1042.8241,-196.4846 983.7137,-196.4846 941.9163,-182.1419 941.9163,-161.8581 983.7137,-147.5154 1042.8241,-147.5154 1084.6215,-161.8581"/>
<polygon fill="none" stroke="#000000" points="1088.6175,-159.0019 1088.6175,-184.9981 1043.4902,-200.4835 983.0476,-200.4835 937.9203,-184.9981 937.9203,-159.0019 983.0476,-143.5165 1043.4902,-143.5165 1088.6175,-159.0019"/>
<text text-anchor="middle" x="1013.2689" y="-164.8" font-family="Times,serif" font-size="24.00" fill="#000000">opresult</text>
</a>
</g>
</g>
<!-- opresultid&#45;&gt;opresult -->
<g id="edge57" class="edge">
<title>opresultid&#45;&gt;opresult</title>
<path fill="none" stroke="#000000" d="M837.9461,-275.5239C871.8109,-255.5276 923.7377,-224.8661 962.3,-202.0959"/>
<polygon fill="#000000" stroke="#000000" points="964.4693,-204.8797 971.3006,-196.7813 960.9101,-198.852 964.4693,-204.8797"/>
</g>
<!-- parseNumber&#45;&gt;vartypes -->
<g id="edge41" class="edge">
<title>parseNumber&#45;&gt;vartypes</title>
<path fill="none" stroke="#ff0000" d="M1240.7802,-769.1645C1263.0915,-750.955 1294.8882,-723.8435 1320.2689,-697.6274 1356.5966,-660.104 1393.9874,-612.6155 1416.9292,-582.2656"/>
<polygon fill="#ff0000" stroke="#ff0000" points="1419.7941,-584.2793 1423.004,-574.1824 1414.1982,-580.0738 1419.7941,-584.2793"/>
</g>
<!-- cmdline -->
<g id="node5" class="node">
<title>cmdline</title>
<g id="a_node5"><a xlink:href="cmdline.md" xlink:title="cmdline.md">
<polygon fill="#98fb98" stroke="#000000" points="3354.6041,-541.8581 3354.6041,-562.1419 3312.8169,-576.4846 3253.7209,-576.4846 3211.9337,-562.1419 3211.9337,-541.8581 3253.7209,-527.5154 3312.8169,-527.5154 3354.6041,-541.8581"/>
<polygon fill="none" stroke="#000000" points="3358.5996,-539.0021 3358.5996,-564.9979 3313.483,-580.4835 3253.0548,-580.4835 3207.9382,-564.9979 3207.9382,-539.0021 3253.0548,-523.5165 3313.483,-523.5165 3358.5996,-539.0021"/>
<text text-anchor="middle" x="3283.2689" y="-544.8" font-family="Times,serif" font-size="24.00" fill="#000000">cmdline</text>
</a>
</g>
</g>
<!-- parseCmdLine -->
<g id="node6" class="node">
<title>parseCmdLine</title>
<g id="a_node6"><a xlink:href="parseCmdLine.md" xlink:title="parseCmdLine.md">
<ellipse fill="#eee8aa" stroke="#000000" cx="875.2689" cy="-675" rx="111.4463" ry="22.7556"/>
<text text-anchor="middle" x="875.2689" y="-667.8" font-family="Times,serif" font-size="24.00" fill="#000000">parseCmdLine</text>
</a>
</g>
</g>
<!-- parseCmdLine&#45;&gt;regexes -->
<g id="edge25" class="edge">
<title>parseCmdLine&#45;&gt;regexes</title>
<path fill="none" stroke="#000000" d="M867.0158,-652.3705C851.0711,-608.6512 815.8762,-512.1492 796.2271,-458.2725"/>
<polygon fill="#000000" stroke="#000000" points="799.4618,-456.9265 792.7473,-448.731 792.8855,-459.3249 799.4618,-456.9265"/>
</g>
<!-- parseCmdLine&#45;&gt;warnings -->
<g id="edge28" class="edge">
<title>parseCmdLine&#45;&gt;warnings</title>
<path fill="none" stroke="#000000" d="M924.5448,-654.6467C1068.2314,-595.3449 1499.3094,-417.7699 1858.2689,-273.3726 1927.365,-245.5776 2007.179,-214.0665 2059.0717,-193.6579"/>
<polygon fill="#000000" stroke="#000000" points="2060.4015,-196.896 2068.4275,-189.9798 2057.8402,-190.3814 2060.4015,-196.896"/>
</g>
<!-- parseCmdLine&#45;&gt;opresultwarn -->
<g id="edge29" class="edge">
<title>parseCmdLine&#45;&gt;opresultwarn</title>
<path fill="none" stroke="#000000" d="M896.9739,-652.7068C960.0245,-587.9475 1143.2316,-399.7755 1214.9722,-326.0907"/>
<polygon fill="#000000" stroke="#000000" points="1217.8909,-328.1102 1222.3591,-318.5036 1212.8754,-323.227 1217.8909,-328.1102"/>
</g>
<!-- parseCmdLine&#45;&gt;messages -->
<g id="edge26" class="edge">
<title>parseCmdLine&#45;&gt;messages</title>
<path fill="none" stroke="#000000" d="M880.5088,-652.2855C890.2726,-607.9078 910.2689,-506.4672 910.2689,-420 910.2689,-420 910.2689,-420 910.2689,-296 910.2689,-227.7018 880.4871,-191.3096 929.2689,-143.5083 992.7522,-81.3009 1590.9289,-52.395 1828.0866,-43.309"/>
<polygon fill="#000000" stroke="#000000" points="1828.5612,-46.7936 1838.4212,-42.9169 1828.2957,-39.7986 1828.5612,-46.7936"/>
</g>
<!-- parseCmdLine&#45;&gt;matches -->
<g id="edge27" class="edge">
<title>parseCmdLine&#45;&gt;matches</title>
<path fill="none" stroke="#000000" d="M955.5353,-659.2959C968.7895,-656.8663 982.4005,-654.4705 995.2689,-652.3726 1226.4066,-614.6903 1286.9958,-623.1405 1517.2689,-580.4917 1536.3946,-576.9495 1557.0456,-572.4052 1575.8224,-567.9912"/>
<polygon fill="#000000" stroke="#000000" points="1576.8266,-571.3501 1585.745,-565.6305 1575.2064,-564.5402 1576.8266,-571.3501"/>
</g>
<!-- env -->
<g id="node7" class="node">
<title>env</title>
<g id="a_node7"><a xlink:href="env.md" xlink:title="env.md">
<ellipse fill="#eee8aa" stroke="#000000" cx="2614.2689" cy="-675" rx="35.6342" ry="22.7556"/>
<text text-anchor="middle" x="2614.2689" y="-667.8" font-family="Times,serif" font-size="24.00" fill="#000000">env</text>
</a>
</g>
</g>
<!-- tempFile -->
<g id="node11" class="node">
<title>tempFile</title>
<g id="a_node11"><a xlink:href="tempFile.md" xlink:title="tempFile.md">
<polygon fill="#98fb98" stroke="#000000" points="2495.8669,-541.8581 2495.8669,-562.1419 2450.411,-576.4846 2386.1268,-576.4846 2340.6709,-562.1419 2340.6709,-541.8581 2386.1268,-527.5154 2450.411,-527.5154 2495.8669,-541.8581"/>
<polygon fill="none" stroke="#000000" points="2499.8693,-538.9275 2499.8693,-565.0725 2451.028,-580.4835 2385.5098,-580.4835 2336.6685,-565.0725 2336.6685,-538.9275 2385.5098,-523.5165 2451.028,-523.5165 2499.8693,-538.9275"/>
<text text-anchor="middle" x="2418.2689" y="-544.8" font-family="Times,serif" font-size="24.00" fill="#000000">tempFile</text>
</a>
</g>
</g>
<!-- env&#45;&gt;tempFile -->
<g id="edge17" class="edge">
<title>env&#45;&gt;tempFile</title>
<path fill="none" stroke="#000000" d="M2588.6453,-658.9199C2558.1609,-639.7893 2506.5657,-607.4107 2468.1227,-583.2858"/>
<polygon fill="#000000" stroke="#000000" points="2469.9716,-580.314 2459.6408,-577.963 2466.2507,-586.2432 2469.9716,-580.314"/>
</g>
<!-- env&#45;&gt;warnings -->
<g id="edge19" class="edge">
<title>env&#45;&gt;warnings</title>
<path fill="none" stroke="#000000" d="M2601.793,-653.7667C2583.4502,-623.3691 2547.2469,-566.389 2509.2689,-523.5083 2390.3012,-389.1825 2222.7235,-255.0553 2150.1252,-199.135"/>
<polygon fill="#000000" stroke="#000000" points="2152.2264,-196.3357 2142.1629,-193.0225 2147.9638,-201.8882 2152.2264,-196.3357"/>
</g>
<!-- args -->
<g id="node24" class="node">
<title>args</title>
<g id="a_node24"><a xlink:href="args.md" xlink:title="args.md">
<ellipse fill="#eee8aa" stroke="#000000" cx="2876.2689" cy="-420" rx="39.0784" ry="22.7556"/>
<text text-anchor="middle" x="2876.2689" y="-412.8" font-family="Times,serif" font-size="24.00" fill="#000000">args</text>
</a>
</g>
</g>
<!-- env&#45;&gt;args -->
<g id="edge20" class="edge">
<title>env&#45;&gt;args</title>
<path fill="none" stroke="#000000" d="M2648.2995,-667.2859C2692.2881,-655.6531 2768.6381,-629.571 2814.2689,-580.4917 2847.8672,-544.3543 2863.9209,-488.027 2871.0824,-452.6137"/>
<polygon fill="#000000" stroke="#000000" points="2874.5231,-453.2551 2872.9516,-442.7774 2867.6462,-451.9482 2874.5231,-453.2551"/>
</g>
<!-- env&#45;&gt;messages -->
<g id="edge18" class="edge">
<title>env&#45;&gt;messages</title>
<path fill="none" stroke="#000000" d="M2647.7849,-666.9377C2687.7008,-655.3391 2752.5733,-629.7031 2781.2689,-580.4917 2794.0263,-558.6135 2790.6938,-547.0152 2781.2689,-523.5083 2692.2671,-301.5265 2612.6825,-253.4069 2400.2689,-143.5083 2278.4514,-80.4823 2119.9414,-55.77 2020.1201,-46.1217"/>
<polygon fill="#000000" stroke="#000000" points="2020.3294,-42.6261 2010.047,-45.18 2019.6778,-49.5957 2020.3294,-42.6261"/>
</g>
<!-- linebuffer -->
<g id="node34" class="node">
<title>linebuffer</title>
<g id="a_node34"><a xlink:href="linebuffer.md" xlink:title="linebuffer.md">
<polygon fill="#98fb98" stroke="#000000" points="2238.4561,-541.8581 2238.4561,-562.1419 2189.1404,-576.4846 2119.3974,-576.4846 2070.0817,-562.1419 2070.0817,-541.8581 2119.3974,-527.5154 2189.1404,-527.5154 2238.4561,-541.8581"/>
<polygon fill="none" stroke="#000000" points="2242.4489,-538.8553 2242.4489,-565.1447 2189.7084,-580.4835 2118.8294,-580.4835 2066.0889,-565.1447 2066.0889,-538.8553 2118.8294,-523.5165 2189.7084,-523.5165 2242.4489,-538.8553"/>
<text text-anchor="middle" x="2154.2689" y="-544.8" font-family="Times,serif" font-size="24.00" fill="#000000">linebuffer</text>
</a>
</g>
</g>
<!-- env&#45;&gt;linebuffer -->
<g id="edge21" class="edge">
<title>env&#45;&gt;linebuffer</title>
<path fill="none" stroke="#000000" d="M2581.1868,-666.1541C2509.0437,-646.8637 2335.8605,-600.556 2233.6097,-573.215"/>
<polygon fill="#000000" stroke="#000000" points="2234.5064,-569.8319 2223.9417,-570.6299 2232.6981,-576.5943 2234.5064,-569.8319"/>
</g>
<!-- startingvars -->
<g id="node8" class="node">
<title>startingvars</title>
<g id="a_node8"><a xlink:href="startingvars.md" xlink:title="startingvars.md">
<ellipse fill="#eee8aa" stroke="#000000" cx="1895.2689" cy="-1252" rx="90.4807" ry="22.7556"/>
<text text-anchor="middle" x="1895.2689" y="-1244.8" font-family="Times,serif" font-size="24.00" fill="#000000">startingvars</text>
</a>
</g>
</g>
<!-- startingvars&#45;&gt;runFunction -->
<g id="edge112" class="edge">
<title>startingvars&#45;&gt;runFunction</title>
<path fill="none" stroke="#000000" d="M1845.5438,-1232.9172C1799.9737,-1215.0729 1730.8856,-1187.1197 1672.2689,-1159.6274 1633.1651,-1141.287 1625.9694,-1131.3829 1586.2689,-1114.3726 1393.6202,-1031.8293 1156.4613,-959.7122 1039.8814,-926.0993"/>
<polygon fill="#000000" stroke="#000000" points="1040.5771,-922.6576 1029.9993,-923.2591 1038.6434,-929.3853 1040.5771,-922.6576"/>
</g>
<!-- startingvars&#45;&gt;env -->
<g id="edge97" class="edge">
<title>startingvars&#45;&gt;env</title>
<path fill="none" stroke="#000000" d="M1959.0078,-1235.9376C2014.029,-1220.6366 2094.6187,-1194.7302 2159.2689,-1159.6274 2357.6994,-1051.8868 2394.3825,-993.1959 2531.2689,-813.6274 2557.854,-778.7529 2582.9212,-734.7767 2598.4107,-705.8196"/>
<polygon fill="#000000" stroke="#000000" points="2601.7005,-707.0857 2603.2848,-696.61 2595.5136,-703.8113 2601.7005,-707.0857"/>
</g>
<!-- variables -->
<g id="node10" class="node">
<title>variables</title>
<g id="a_node10"><a xlink:href="variables.md" xlink:title="variables.md">
<ellipse fill="#eee8aa" stroke="#000000" cx="2441.2689" cy="-675" rx="72.6337" ry="22.7556"/>
<text text-anchor="middle" x="2441.2689" y="-667.8" font-family="Times,serif" font-size="24.00" fill="#000000">variables</text>
</a>
</g>
</g>
<!-- startingvars&#45;&gt;variables -->
<g id="edge98" class="edge">
<title>startingvars&#45;&gt;variables</title>
<path fill="none" stroke="#000000" d="M1950.1507,-1233.8077C1995.0363,-1217.6884 2059.2033,-1191.7507 2110.2689,-1159.6274 2238.8749,-1078.7267 2283.2748,-1058.4133 2362.2689,-928.6274 2400.9251,-865.1159 2387.8862,-839.2742 2410.2689,-768.3726 2416.7034,-747.99 2424.2545,-725.2236 2430.2931,-707.2741"/>
<polygon fill="#000000" stroke="#000000" points="2433.683,-708.1749 2433.5645,-697.5807 2427.0505,-705.9364 2433.683,-708.1749"/>
</g>
<!-- startingvars&#45;&gt;vartypes -->
<g id="edge99" class="edge">
<title>startingvars&#45;&gt;vartypes</title>
<path fill="none" stroke="#000000" d="M1850.9505,-1232.1623C1819.204,-1216.1955 1777.1323,-1191.2311 1748.2689,-1159.6274 1661.7909,-1064.9391 1500.2949,-695.1373 1452.7596,-583.8544"/>
<polygon fill="#000000" stroke="#000000" points="1455.9131,-582.3264 1448.7722,-574.4996 1449.4736,-585.0712 1455.9131,-582.3264"/>
</g>
<!-- codefile -->
<g id="node13" class="node">
<title>codefile</title>
<g id="a_node13"><a xlink:href="codefile.md" xlink:title="codefile.md">
<ellipse fill="#eee8aa" stroke="#000000" cx="2036.2689" cy="-1137" rx="65.069" ry="22.7556"/>
<text text-anchor="middle" x="2036.2689" y="-1129.8" font-family="Times,serif" font-size="24.00" fill="#000000">codefile</text>
</a>
</g>
</g>
<!-- startingvars&#45;&gt;codefile -->
<g id="edge111" class="edge">
<title>startingvars&#45;&gt;codefile</title>
<path fill="none" stroke="#000000" d="M1922.1218,-1230.0987C1944.9501,-1211.4799 1977.8444,-1184.6512 2002.4626,-1164.5725"/>
<polygon fill="#000000" stroke="#000000" points="2004.9303,-1167.0764 2010.4676,-1158.0436 2000.506,-1161.6518 2004.9303,-1167.0764"/>
</g>
<!-- startingvars&#45;&gt;args -->
<g id="edge95" class="edge">
<title>startingvars&#45;&gt;args</title>
<path fill="none" stroke="#000000" d="M1967.1375,-1238.2443C2032.8874,-1223.9969 2131.736,-1198.3316 2211.2689,-1159.6274 2456.7055,-1040.1873 2842.4562,-585.7292 2845.2689,-580.4917 2866.9555,-540.1103 2873.6169,-486.7966 2875.5799,-452.9444"/>
<polygon fill="#000000" stroke="#000000" points="2879.089,-452.8325 2876.0653,-442.6784 2872.0968,-452.5019 2879.089,-452.8325"/>
</g>
<!-- startingvars&#45;&gt;opresultwarn -->
<g id="edge101" class="edge">
<title>startingvars&#45;&gt;opresultwarn</title>
<path fill="none" stroke="#000000" d="M1840.161,-1233.9388C1800.5395,-1218.855 1747.7146,-1194.2173 1710.2689,-1159.6274 1435.7782,-906.0713 1289.5679,-453.0406 1253.3164,-328.4699"/>
<polygon fill="#000000" stroke="#000000" points="1256.6494,-327.3957 1250.5193,-318.7544 1249.9226,-329.3324 1256.6494,-327.3957"/>
</g>
<!-- startingvars&#45;&gt;messages -->
<g id="edge96" class="edge">
<title>startingvars&#45;&gt;messages</title>
<path fill="none" stroke="#000000" d="M1895.8159,-1229.1376C1899.3398,-1081.8664 1918.8355,-267.0771 1923.34,-78.8224"/>
<polygon fill="#000000" stroke="#000000" points="1926.8448,-78.6576 1923.5851,-68.5767 1919.8468,-78.4901 1926.8448,-78.6576"/>
</g>
<!-- startingvars&#45;&gt;readjson -->
<g id="edge100" class="edge">
<title>startingvars&#45;&gt;readjson</title>
<path fill="none" stroke="#000000" d="M1815.1555,-1241.4327C1558.6725,-1206.2687 762.9046,-1086.4365 563.2689,-928.6274 529.0698,-901.5935 507.9616,-854.7225 496.9213,-823.2891"/>
<polygon fill="#000000" stroke="#000000" points="500.1917,-822.0334 493.6867,-813.6706 493.5568,-824.2647 500.1917,-822.0334"/>
</g>
<!-- unicodes&#45;&gt;opresultid -->
<g id="edge58" class="edge">
<title>unicodes&#45;&gt;opresultid</title>
<path fill="none" stroke="#000000" d="M395.0959,-652.6103C384.9606,-634.012 371.7849,-606.4863 366.2689,-580.4917 348.4851,-496.684 342.3304,-450.6996 404.2689,-391.5083 448.9959,-348.765 616.7471,-320.0526 719.9648,-306.0109"/>
<polygon fill="#000000" stroke="#000000" points="720.6089,-309.4559 730.0545,-304.6569 719.6778,-302.5181 720.6089,-309.4559"/>
</g>
<!-- unicodes&#45;&gt;vartypes -->
<g id="edge62" class="edge">
<title>unicodes&#45;&gt;vartypes</title>
<path fill="none" stroke="#000000" d="M475.518,-666.9771C659.6718,-645.0072 1171.2267,-583.9779 1364.2501,-560.9499"/>
<polygon fill="#000000" stroke="#000000" points="1364.7866,-564.4108 1374.3016,-559.7507 1363.9573,-557.4601 1364.7866,-564.4108"/>
</g>
<!-- utf8decoder -->
<g id="node16" class="node">
<title>utf8decoder</title>
<g id="a_node16"><a xlink:href="utf8decoder.md" xlink:title="utf8decoder.md">
<polygon fill="#98fb98" stroke="#000000" points="612.1985,-541.8581 612.1985,-562.1419 553.6611,-576.4846 470.8767,-576.4846 412.3393,-562.1419 412.3393,-541.8581 470.8767,-527.5154 553.6611,-527.5154 612.1985,-541.8581"/>
<polygon fill="none" stroke="#000000" points="616.1971,-538.7208 616.1971,-565.2792 554.1438,-580.4835 470.394,-580.4835 408.3407,-565.2792 408.3407,-538.7208 470.394,-523.5165 554.1438,-523.5165 616.1971,-538.7208"/>
<text text-anchor="middle" x="512.2689" y="-544.8" font-family="Times,serif" font-size="24.00" fill="#000000">utf8decoder</text>
</a>
</g>
</g>
<!-- unicodes&#45;&gt;utf8decoder -->
<g id="edge61" class="edge">
<title>unicodes&#45;&gt;utf8decoder</title>
<path fill="none" stroke="#000000" d="M426.862,-653.0101C441.9898,-635.1186 463.659,-609.4905 481.3848,-588.5264"/>
<polygon fill="#000000" stroke="#000000" points="484.1795,-590.6419 487.9635,-580.7458 478.8341,-586.1222 484.1795,-590.6419"/>
</g>
<!-- unicodes&#45;&gt;opresultwarn -->
<g id="edge59" class="edge">
<title>unicodes&#45;&gt;opresultwarn</title>
<path fill="none" stroke="#000000" d="M399.6277,-652.4122C389.2,-621.1437 375.7958,-563.9566 399.2689,-523.5083 458.62,-421.2357 518.6632,-430.5772 630.2689,-391.5083 800.6117,-331.8777 1010.5342,-309.3963 1135.5578,-300.9761"/>
<polygon fill="#000000" stroke="#000000" points="1136.1481,-304.445 1145.8979,-300.2988 1135.6905,-297.46 1136.1481,-304.445"/>
</g>
<!-- unicodes&#45;&gt;messages -->
<g id="edge60" class="edge">
<title>unicodes&#45;&gt;messages</title>
<path fill="none" stroke="#000000" d="M390.4872,-652.8956C377.0431,-634.6789 359.6782,-607.5305 352.2689,-580.4917 341.6705,-541.815 345.3582,-413.0272 359.2689,-391.5083 489.8432,-189.5176 609.4931,-211.2756 840.2689,-143.5083 1024.5887,-89.3827 1599.4151,-55.9609 1828.5696,-44.4819"/>
<polygon fill="#000000" stroke="#000000" points="1828.7444,-47.9776 1838.5579,-43.9845 1828.3962,-40.9863 1828.7444,-47.9776"/>
</g>
<!-- variables&#45;&gt;vartypes -->
<g id="edge43" class="edge">
<title>variables&#45;&gt;vartypes</title>
<path fill="none" stroke="#000000" d="M2370.3186,-670.2322C2220.489,-659.5351 1861.113,-630.5583 1563.2689,-580.4917 1543.699,-577.2021 1522.5932,-572.7124 1503.4398,-568.2701"/>
<polygon fill="#000000" stroke="#000000" points="1504.1562,-564.8432 1493.6202,-565.958 1502.5518,-571.6568 1504.1562,-564.8432"/>
</g>
<!-- variables&#45;&gt;warnings -->
<g id="edge46" class="edge">
<title>variables&#45;&gt;warnings</title>
<path fill="none" stroke="#000000" d="M2410.2879,-654.5324C2385.548,-637.0493 2351.1825,-610.0861 2327.2689,-580.4917 2320.6169,-572.2595 2179.2686,-298.2215 2130.5792,-203.6859"/>
<polygon fill="#000000" stroke="#000000" points="2133.5898,-201.8871 2125.8998,-194.5991 2127.3665,-205.0919 2133.5898,-201.8871"/>
</g>
<!-- variables&#45;&gt;args -->
<g id="edge47" class="edge">
<title>variables&#45;&gt;args</title>
<path fill="none" stroke="#000000" d="M2462.8269,-653.2184C2495.2772,-621.3708 2559.6705,-561.7399 2623.2689,-523.5083 2691.667,-482.3913 2779.3744,-450.629 2831.5096,-433.6734"/>
<polygon fill="#000000" stroke="#000000" points="2832.6824,-436.9729 2841.1319,-430.581 2830.5406,-430.3086 2832.6824,-436.9729"/>
</g>
<!-- variables&#45;&gt;opresultwarn -->
<g id="edge48" class="edge">
<title>variables&#45;&gt;opresultwarn</title>
<path fill="none" stroke="#000000" d="M2403.3791,-655.5558C2372.07,-638.3885 2327.5231,-611.339 2294.2689,-580.4917 2271.0081,-558.9146 2276.9849,-542.0912 2251.2689,-523.5083 2103.29,-416.5756 2039.5973,-434.9477 1862.2689,-391.5083 1683.0378,-347.6027 1469.3741,-319.8964 1346.0118,-306.2333"/>
<polygon fill="#000000" stroke="#000000" points="1346.1471,-302.7272 1335.8247,-305.1142 1345.3827,-309.6853 1346.1471,-302.7272"/>
</g>
<!-- variables&#45;&gt;messages -->
<g id="edge45" class="edge">
<title>variables&#45;&gt;messages</title>
<path fill="none" stroke="#000000" d="M2461.8987,-653.2523C2477.6793,-635.2374 2498.5026,-608.1864 2509.2689,-580.4917 2535.2945,-513.5448 2528.2689,-491.8278 2528.2689,-420 2528.2689,-420 2528.2689,-420 2528.2689,-296 2528.2689,-185.1011 2178.7326,-94.7815 2011.462,-57.9083"/>
<polygon fill="#000000" stroke="#000000" points="2012.204,-54.4879 2001.6869,-55.7686 2010.7072,-61.326 2012.204,-54.4879"/>
</g>
<!-- version -->
<g id="node28" class="node">
<title>version</title>
<g id="a_node28"><a xlink:href="version.md" xlink:title="version.md">
<polygon fill="#98fb98" stroke="#000000" points="2768.4212,-541.8581 2768.4212,-562.1419 2729.6701,-576.4846 2674.8677,-576.4846 2636.1166,-562.1419 2636.1166,-541.8581 2674.8677,-527.5154 2729.6701,-527.5154 2768.4212,-541.8581"/>
<polygon fill="none" stroke="#000000" points="2772.411,-539.0721 2772.411,-564.9279 2730.3832,-580.4835 2674.1546,-580.4835 2632.1268,-564.9279 2632.1268,-539.0721 2674.1546,-523.5165 2730.3832,-523.5165 2772.411,-539.0721"/>
<text text-anchor="middle" x="2702.2689" y="-544.8" font-family="Times,serif" font-size="24.00" fill="#000000">version</text>
</a>
</g>
</g>
<!-- variables&#45;&gt;version -->
<g id="edge44" class="edge">
<title>variables&#45;&gt;version</title>
<path fill="none" stroke="#000000" d="M2481.4782,-656.0508C2525.6746,-635.2226 2596.9712,-601.623 2646.5428,-578.2617"/>
<polygon fill="#000000" stroke="#000000" points="2648.2897,-581.3077 2655.8435,-573.8786 2645.3056,-574.9756 2648.2897,-581.3077"/>
</g>
<!-- vartypes&#45;&gt;warnings -->
<g id="edge36" class="edge">
<title>vartypes&#45;&gt;warnings</title>
<path fill="none" stroke="#000000" d="M1474.1384,-532.3697C1587.2568,-468.6883 1943.958,-267.8787 2069.7902,-197.0399"/>
<polygon fill="#000000" stroke="#000000" points="2071.7988,-199.9257 2078.7958,-191.97 2068.3648,-193.8258 2071.7988,-199.9257"/>
</g>
<!-- vartypes&#45;&gt;opresultwarn -->
<g id="edge37" class="edge">
<title>vartypes&#45;&gt;opresultwarn</title>
<path fill="none" stroke="#000000" d="M1422.3051,-529.7295C1387.3709,-483.8672 1307.3508,-378.8153 1267.5848,-326.6095"/>
<polygon fill="#000000" stroke="#000000" points="1270.1762,-324.2355 1261.3324,-318.4013 1264.6077,-328.4772 1270.1762,-324.2355"/>
</g>
<!-- vartypes&#45;&gt;messages -->
<g id="edge35" class="edge">
<title>vartypes&#45;&gt;messages</title>
<path fill="none" stroke="#000000" d="M1459.799,-530.327C1535.0071,-450.932 1795.9642,-175.4475 1890.0863,-76.0856"/>
<polygon fill="#000000" stroke="#000000" points="1892.7605,-78.3519 1897.0966,-68.685 1887.6785,-73.5379 1892.7605,-78.3519"/>
</g>
<!-- codefile&#45;&gt;env -->
<g id="edge102" class="edge">
<title>codefile&#45;&gt;env</title>
<path fill="none" stroke="#000000" d="M2083.5815,-1121.2015C2127.2481,-1105.3746 2192.7747,-1078.3929 2243.2689,-1043.6274 2394.2376,-939.6848 2537.8026,-770.4572 2591.7686,-703.5353"/>
<polygon fill="#000000" stroke="#000000" points="2594.6683,-705.5139 2598.1948,-695.5231 2589.2077,-701.1341 2594.6683,-705.5139"/>
</g>
<!-- codefile&#45;&gt;variables -->
<g id="edge107" class="edge">
<title>codefile&#45;&gt;variables</title>
<path fill="none" stroke="#000000" d="M2081.6142,-1120.7152C2119.4741,-1105.3703 2173.0728,-1079.3848 2210.2689,-1043.6274 2312.6028,-945.2519 2293.9808,-886.7827 2372.2689,-768.3726 2386.5034,-746.8431 2403.7608,-723.4907 2417.4559,-705.5253"/>
<polygon fill="#000000" stroke="#000000" points="2420.5553,-707.2353 2423.8639,-697.1703 2415.0008,-702.9752 2420.5553,-707.2353"/>
</g>
<!-- codefile&#45;&gt;vartypes -->
<g id="edge108" class="edge">
<title>codefile&#45;&gt;vartypes</title>
<path fill="none" stroke="#000000" d="M2013.5346,-1115.6541C1993.5701,-1096.8341 1963.8102,-1068.5987 1938.2689,-1043.6274 1762.7084,-871.9852 1725.2826,-822.5157 1548.2689,-652.3726 1522.3878,-627.4961 1492.3344,-599.9155 1470.3476,-579.9707"/>
<polygon fill="#000000" stroke="#000000" points="1472.689,-577.3692 1462.9271,-573.2514 1467.9904,-582.558 1472.689,-577.3692"/>
</g>
<!-- codefile&#45;&gt;utf8decoder -->
<g id="edge110" class="edge">
<title>codefile&#45;&gt;utf8decoder</title>
<path fill="none" stroke="#000000" d="M1971.2263,-1134.6752C1712.7136,-1124.4575 759.6069,-1077.2198 503.2689,-928.6274 440.2942,-892.1227 290.0421,-714.9231 327.2689,-652.3726 349.1484,-615.6095 389.7092,-591.479 427.2879,-576.1157"/>
<polygon fill="#000000" stroke="#000000" points="428.7345,-579.3079 436.7644,-572.3963 426.1769,-572.7919 428.7345,-579.3079"/>
</g>
<!-- codefile&#45;&gt;warnings -->
<g id="edge109" class="edge">
<title>codefile&#45;&gt;warnings</title>
<path fill="none" stroke="#000000" d="M2046.1351,-1114.4535C2068.2218,-1062.6014 2121.1271,-930.361 2139.2689,-813.6274 2142.3577,-793.7527 2142.8202,-788.1699 2139.2689,-768.3726 2129.5608,-714.2527 2118.9925,-702.441 2096.2689,-652.3726 2081.2477,-619.2754 2066.2104,-615.7211 2057.2689,-580.4917 2051.0385,-555.9441 2054.4194,-548.6734 2057.2689,-523.5083 2059.8967,-500.3007 2100.8526,-341.7321 2104.2689,-318.6274 2109.9861,-279.9616 2112.4417,-235.0674 2113.4921,-205.2439"/>
<polygon fill="#000000" stroke="#000000" points="2116.9988,-205.0839 2113.8189,-194.9776 2110.0024,-204.8611 2116.9988,-205.0839"/>
</g>
<!-- codefile&#45;&gt;opresultwarn -->
<g id="edge104" class="edge">
<title>codefile&#45;&gt;opresultwarn</title>
<path fill="none" stroke="#000000" d="M2030.4477,-1114.3966C2011.5476,-1043.1949 1947.5624,-818.4426 1852.2689,-652.3726 1815.6392,-588.5372 1806.0052,-569.1504 1748.2689,-523.5083 1613.6613,-417.0973 1421.3364,-348.3741 1317.5039,-316.5837"/>
<polygon fill="#000000" stroke="#000000" points="1318.3221,-313.1745 1307.7367,-313.6224 1316.291,-319.8734 1318.3221,-313.1745"/>
</g>
<!-- codefile&#45;&gt;messages -->
<g id="edge103" class="edge">
<title>codefile&#45;&gt;messages</title>
<path fill="none" stroke="#000000" d="M2087.2928,-1122.6737C2139.0035,-1107.0663 2220.4099,-1079.4633 2285.2689,-1043.6274 2685.7221,-822.3692 3104.2689,-877.5128 3104.2689,-420 3104.2689,-420 3104.2689,-420 3104.2689,-296 3104.2689,-176.2985 2994.5168,-185.0877 2882.2689,-143.5083 2725.6107,-85.4781 2230.266,-54.9919 2020.073,-44.3934"/>
<polygon fill="#000000" stroke="#000000" points="2020.1404,-40.8925 2009.9781,-43.8886 2019.7908,-47.8837 2020.1404,-40.8925"/>
</g>
<!-- codefile&#45;&gt;linebuffer -->
<g id="edge105" class="edge">
<title>codefile&#45;&gt;linebuffer</title>
<path fill="none" stroke="#000000" d="M2064.3897,-1116.507C2086.2211,-1099.2706 2115.7917,-1072.8157 2134.2689,-1043.6274 2191.8524,-952.6633 2193.1627,-919.918 2210.2689,-813.6274 2223.1657,-733.4922 2192.3659,-640.8598 2171.513,-590.126"/>
<polygon fill="#000000" stroke="#000000" points="2174.7181,-588.7185 2167.6194,-580.8534 2168.264,-591.4286 2174.7181,-588.7185"/>
</g>
<!-- runCommand -->
<g id="node35" class="node">
<title>runCommand</title>
<g id="a_node35"><a xlink:href="runCommand.md" xlink:title="runCommand.md">
<ellipse fill="#eee8aa" stroke="#000000" cx="1090.2689" cy="-1021" rx="104.7872" ry="22.7556"/>
<text text-anchor="middle" x="1090.2689" y="-1013.8" font-family="Times,serif" font-size="24.00" fill="#000000">runCommand</text>
</a>
</g>
</g>
<!-- codefile&#45;&gt;runCommand -->
<g id="edge106" class="edge">
<title>codefile&#45;&gt;runCommand</title>
<path fill="none" stroke="#000000" d="M1974.9281,-1129.4783C1815.6649,-1109.9492 1387.7697,-1057.48 1191.3507,-1033.3948"/>
<polygon fill="#000000" stroke="#000000" points="1191.6695,-1029.9078 1181.3179,-1032.1646 1190.8175,-1036.8557 1191.6695,-1029.9078"/>
</g>
<!-- replacement&#45;&gt;parseCmdLine -->
<g id="edge69" class="edge">
<title>replacement&#45;&gt;parseCmdLine</title>
<path fill="none" stroke="#000000" d="M1944.3725,-785.7597C1762.5246,-774.7278 1344.1732,-746.0538 995.2689,-697.6274 985.1639,-696.2249 974.6177,-694.5501 964.1533,-692.755"/>
<polygon fill="#000000" stroke="#000000" points="964.6171,-689.283 954.1626,-691.002 963.4072,-696.1776 964.6171,-689.283"/>
</g>
<!-- replacement&#45;&gt;env -->
<g id="edge67" class="edge">
<title>replacement&#45;&gt;env</title>
<path fill="none" stroke="#000000" d="M2112.8691,-777.6409C2209.0212,-760.5672 2378.8657,-729.3992 2523.2689,-697.6274 2538.9,-694.1882 2555.9462,-690.0535 2571.0153,-686.2645"/>
<polygon fill="#000000" stroke="#000000" points="2572.2574,-689.5604 2581.0902,-683.7095 2570.5366,-682.7752 2572.2574,-689.5604"/>
</g>
<!-- replacement&#45;&gt;variables -->
<g id="edge73" class="edge">
<title>replacement&#45;&gt;variables</title>
<path fill="none" stroke="#000000" d="M2096.9015,-773.6336C2172.4002,-752.0093 2300.7717,-715.2412 2377.6391,-693.2248"/>
<polygon fill="#000000" stroke="#000000" points="2379.022,-696.4695 2387.6718,-690.3513 2377.0946,-689.7401 2379.022,-696.4695"/>
</g>
<!-- replacement&#45;&gt;tempFile -->
<g id="edge74" class="edge">
<title>replacement&#45;&gt;tempFile</title>
<path fill="none" stroke="#000000" d="M2070.1689,-769.7903C2137.5962,-727.6041 2288.8336,-632.9818 2367.9151,-583.5041"/>
<polygon fill="#000000" stroke="#000000" points="2370.1069,-586.2614 2376.728,-577.9903 2366.3941,-580.3272 2370.1069,-586.2614"/>
</g>
<!-- replacement&#45;&gt;vartypes -->
<g id="edge68" class="edge">
<title>replacement&#45;&gt;vartypes</title>
<path fill="none" stroke="#000000" d="M1987.667,-771.543C1877.0604,-727.2633 1607.262,-619.2535 1492.425,-573.2802"/>
<polygon fill="#000000" stroke="#000000" points="1493.6988,-570.0202 1483.1143,-569.5529 1491.0972,-576.5188 1493.6988,-570.0202"/>
</g>
<!-- replacement&#45;&gt;warnings -->
<g id="edge76" class="edge">
<title>replacement&#45;&gt;warnings</title>
<path fill="none" stroke="#000000" d="M2052.5514,-768.3218C2070.2367,-740.7803 2094.2162,-692.9693 2080.2689,-652.3726 2067.1105,-614.0721 2037.4273,-618.7922 2024.2689,-580.4917 2016.0401,-556.5399 2019.7692,-548.4313 2024.2689,-523.5083 2030.5917,-488.487 2042.1297,-482.6042 2052.2689,-448.4917 2078.035,-361.804 2098.7674,-257.0382 2108.4086,-204.8609"/>
<polygon fill="#000000" stroke="#000000" points="2111.8835,-205.3156 2110.2414,-194.8488 2104.9979,-204.0551 2111.8835,-205.3156"/>
</g>
<!-- replacement&#45;&gt;opresultwarn -->
<g id="edge75" class="edge">
<title>replacement&#45;&gt;opresultwarn</title>
<path fill="none" stroke="#000000" d="M2027.4028,-768.4124C1996.7149,-691.3751 1893.1335,-440.99 1824.2689,-391.5083 1750.3673,-338.4073 1497.9405,-312.9395 1351.5978,-302.3747"/>
<polygon fill="#000000" stroke="#000000" points="1351.4713,-298.857 1341.2484,-301.6397 1350.9753,-305.8394 1351.4713,-298.857"/>
</g>
<!-- replacement&#45;&gt;messages -->
<g id="edge72" class="edge">
<title>replacement&#45;&gt;messages</title>
<path fill="none" stroke="#000000" d="M2030.4622,-768.0581C2013.0174,-698.3601 1962.2689,-489.6192 1962.2689,-420 1962.2689,-420 1962.2689,-420 1962.2689,-296 1962.2689,-218.187 1944.8786,-128.4978 1933.6267,-78.611"/>
<polygon fill="#000000" stroke="#000000" points="1936.9749,-77.5525 1931.3274,-68.5884 1930.1522,-79.1178 1936.9749,-77.5525"/>
</g>
<!-- replacement&#45;&gt;matches -->
<g id="edge71" class="edge">
<title>replacement&#45;&gt;matches</title>
<path fill="none" stroke="#000000" d="M2017.5803,-768.5726C1991.6473,-738.6423 1942.0618,-685.5671 1890.2689,-652.3726 1830.3809,-613.9899 1753.4238,-585.873 1700.602,-569.3203"/>
<polygon fill="#000000" stroke="#000000" points="1701.6169,-565.9707 1691.0294,-566.3643 1699.5515,-572.6591 1701.6169,-565.9707"/>
</g>
<!-- replacement&#45;&gt;linebuffer -->
<g id="edge70" class="edge">
<title>replacement&#45;&gt;linebuffer</title>
<path fill="none" stroke="#000000" d="M2061.36,-768.8327C2079.7348,-751.264 2103.8817,-725.1621 2118.2689,-697.6274 2135.9087,-663.8678 2145.1431,-621.1504 2149.8188,-590.7295"/>
<polygon fill="#000000" stroke="#000000" points="2153.3283,-590.9137 2151.2888,-580.517 2146.3997,-589.9163 2153.3283,-590.9137"/>
</g>
<!-- updateTemplate -->
<g id="node15" class="node">
<title>updateTemplate</title>
<g id="a_node15"><a xlink:href="updateTemplate.md" xlink:title="updateTemplate.md">
<ellipse fill="#eee8aa" stroke="#000000" cx="2728.2689" cy="-1376" rx="119.3861" ry="22.7556"/>
<text text-anchor="middle" x="2728.2689" y="-1368.8" font-family="Times,serif" font-size="24.00" fill="#000000">updateTemplate</text>
</a>
</g>
</g>
<!-- updateTemplate&#45;&gt;parseCmdLine -->
<g id="edge121" class="edge">
<title>updateTemplate&#45;&gt;parseCmdLine</title>
<path fill="none" stroke="#000000" d="M2655.2688,-1357.9723C2637.0703,-1354.0054 2617.5359,-1350.1921 2599.2689,-1347.5083 1873.1956,-1240.8312 1610.7228,-1412.4508 976.2689,-1043.6274 908.4197,-1004.1851 876.5821,-999.2094 842.2689,-928.6274 811.1131,-864.5402 823.5836,-838.3051 837.2689,-768.3726 841.4378,-747.0693 850.4871,-724.4907 858.7091,-706.8733"/>
<polygon fill="#000000" stroke="#000000" points="861.972,-708.1644 863.1555,-697.6358 855.6646,-705.1283 861.972,-708.1644"/>
</g>
<!-- updateTemplate&#45;&gt;env -->
<g id="edge118" class="edge">
<title>updateTemplate&#45;&gt;env</title>
<path fill="none" stroke="#000000" d="M2742.3128,-1353.5168C2754.176,-1333.5276 2770.7171,-1303.135 2780.2689,-1274.6274 2799.9953,-1215.7535 2804.2689,-1199.0908 2804.2689,-1137 2804.2689,-1137 2804.2689,-1137 2804.2689,-1021 2804.2689,-900.2447 2779.7751,-862.6099 2704.2689,-768.3726 2685.0522,-744.3887 2660.7408,-719.435 2642.2311,-701.3645"/>
<polygon fill="#000000" stroke="#000000" points="2644.3061,-698.5021 2634.6854,-694.0643 2639.4388,-703.533 2644.3061,-698.5021"/>
</g>
<!-- updateTemplate&#45;&gt;startingvars -->
<g id="edge126" class="edge">
<title>updateTemplate&#45;&gt;startingvars</title>
<path fill="none" stroke="#000000" d="M2653.1031,-1358.3031C2635.496,-1354.4623 2616.769,-1350.6225 2599.2689,-1347.5083 2381.7993,-1308.809 2124.0755,-1277.515 1988.8398,-1262.2038"/>
<polygon fill="#000000" stroke="#000000" points="1988.8519,-1258.6831 1978.5226,-1261.0399 1988.0671,-1265.639 1988.8519,-1258.6831"/>
</g>
<!-- updateTemplate&#45;&gt;variables -->
<g id="edge123" class="edge">
<title>updateTemplate&#45;&gt;variables</title>
<path fill="none" stroke="#000000" d="M2723.1333,-1353.3811C2703.8898,-1271.1518 2631.1246,-981.7232 2514.2689,-768.3726 2501.6683,-745.3669 2483.5157,-722.1202 2468.4649,-704.577"/>
<polygon fill="#000000" stroke="#000000" points="2471.0115,-702.172 2461.799,-696.9393 2465.7376,-706.7749 2471.0115,-702.172"/>
</g>
<!-- updateTemplate&#45;&gt;vartypes -->
<g id="edge124" class="edge">
<title>updateTemplate&#45;&gt;vartypes</title>
<path fill="none" stroke="#000000" d="M2655.6773,-1357.9579C2476.2998,-1313.0277 2022.2858,-1197.0645 1962.2689,-1159.6274 1833.3615,-1079.2182 1543.9681,-694.0618 1461.5548,-582.4015"/>
<polygon fill="#000000" stroke="#000000" points="1464.2916,-580.2155 1455.5416,-574.2416 1458.6565,-584.3682 1464.2916,-580.2155"/>
</g>
<!-- updateTemplate&#45;&gt;replacement -->
<g id="edge125" class="edge">
<title>updateTemplate&#45;&gt;replacement</title>
<path fill="none" stroke="#000000" d="M2709.6496,-1353.3607C2658.3707,-1291.8165 2509.1255,-1118.0536 2362.2689,-998.3726 2270.2708,-923.3986 2149.7217,-853.005 2084.0296,-816.6722"/>
<polygon fill="#000000" stroke="#000000" points="2085.5812,-813.5311 2075.133,-811.7746 2082.2054,-819.6633 2085.5812,-813.5311"/>
</g>
<!-- updateTemplate&#45;&gt;args -->
<g id="edge116" class="edge">
<title>updateTemplate&#45;&gt;args</title>
<path fill="none" stroke="#000000" d="M2770.3007,-1354.8047C2801.9186,-1337.0587 2844.417,-1309.1175 2872.2689,-1274.6274 2942.335,-1187.8618 2948.0454,-1152.9144 2970.2689,-1043.6274 3016.3347,-817.0928 3050.5891,-738.7525 2966.2689,-523.5083 2954.0998,-492.4441 2928.2947,-464.3797 2907.4236,-445.3355"/>
<polygon fill="#000000" stroke="#000000" points="2909.509,-442.5069 2899.7048,-438.4908 2904.8647,-447.7443 2909.509,-442.5069"/>
</g>
<!-- updateTemplate&#45;&gt;opresultwarn -->
<g id="edge127" class="edge">
<title>updateTemplate&#45;&gt;opresultwarn</title>
<path fill="none" stroke="#000000" d="M2651.1974,-1358.6868C2482.101,-1319.9883 2083.9448,-1224.7709 1962.2689,-1159.6274 1878.7256,-1114.8996 1800.2689,-1115.7632 1800.2689,-1021 1800.2689,-1021 1800.2689,-1021 1800.2689,-906 1800.2689,-818.9283 1772.2108,-589.3801 1715.2689,-523.5083 1653.9997,-452.6305 1603.199,-488.045 1518.2689,-448.4917 1434.2954,-409.384 1340.9013,-354.8947 1287.7084,-322.7486"/>
<polygon fill="#000000" stroke="#000000" points="1289.2554,-319.5934 1278.8898,-317.4011 1285.6258,-325.579 1289.2554,-319.5934"/>
</g>
<!-- updateTemplate&#45;&gt;messages -->
<g id="edge117" class="edge">
<title>updateTemplate&#45;&gt;messages</title>
<path fill="none" stroke="#000000" d="M2767.5169,-1354.6066C2855.4612,-1305.7418 3073.0731,-1179.6079 3232.2689,-1043.6274 3415.6937,-886.9512 3462.2689,-793.2304 3462.2689,-552 3462.2689,-552 3462.2689,-552 3462.2689,-296 3462.2689,-200.9328 3398.5211,-183.4874 3312.2689,-143.5083 3195.7431,-89.4969 2315.4534,-53.8066 2020.3562,-43.2586"/>
<polygon fill="#000000" stroke="#000000" points="2020.2259,-39.7518 2010.1077,-42.8939 2019.9769,-46.7474 2020.2259,-39.7518"/>
</g>
<!-- updateTemplate&#45;&gt;matches -->
<g id="edge119" class="edge">
<title>updateTemplate&#45;&gt;matches</title>
<path fill="none" stroke="#000000" d="M2694.7499,-1354.2411C2583.4598,-1281.5913 2217.1903,-1039.2286 1933.2689,-813.6274 1832.7769,-733.7775 1721.4557,-630.2356 1669.3118,-580.7706"/>
<polygon fill="#000000" stroke="#000000" points="1671.4181,-577.9438 1661.7588,-573.5908 1666.5953,-583.0173 1671.4181,-577.9438"/>
</g>
<!-- updateTemplate&#45;&gt;linebuffer -->
<g id="edge120" class="edge">
<title>updateTemplate&#45;&gt;linebuffer</title>
<path fill="none" stroke="#000000" d="M2772.0169,-1354.7922C2801.8035,-1337.7075 2838.8661,-1310.6095 2856.2689,-1274.6274 2865.0262,-1256.5207 2857.796,-1249.4278 2856.2689,-1229.3726 2835.6946,-959.1756 2883.9079,-803.9214 2659.2689,-652.3726 2642.2065,-640.8617 2388.2356,-593.9483 2247.124,-568.5397"/>
<polygon fill="#000000" stroke="#000000" points="2247.6255,-565.0739 2237.1638,-566.7483 2246.3863,-571.9633 2247.6255,-565.0739"/>
</g>
<!-- updateTemplate&#45;&gt;runCommand -->
<g id="edge122" class="edge">
<title>updateTemplate&#45;&gt;runCommand</title>
<path fill="none" stroke="#000000" d="M2654.8982,-1358.1059C2636.7973,-1354.1592 2617.4004,-1350.3218 2599.2689,-1347.5083 2245.151,-1292.559 2146.1664,-1352.0268 1796.2689,-1274.6274 1544.874,-1219.0174 1260.7296,-1098.0452 1144.3352,-1045.8238"/>
<polygon fill="#000000" stroke="#000000" points="1145.4764,-1042.4993 1134.921,-1041.5856 1142.6028,-1048.8823 1145.4764,-1042.4993"/>
</g>
<!-- warnings&#45;&gt;messages -->
<g id="edge2" class="edge">
<title>warnings&#45;&gt;messages</title>
<path fill="none" stroke="#ff0000" d="M2084.1628,-151.0842C2053.9387,-130.0864 2006.928,-97.4263 1971.6902,-72.9453"/>
<polygon fill="#ff0000" stroke="#ff0000" points="1973.6666,-70.0566 1963.457,-67.2254 1969.6726,-75.8054 1973.6666,-70.0566"/>
</g>
<!-- repl -->
<g id="node18" class="node">
<title>repl</title>
<g id="a_node18"><a xlink:href="repl.md" xlink:title="repl.md">
<ellipse fill="#eee8aa" stroke="#000000" cx="2126.2689" cy="-1376" rx="37.8963" ry="22.7556"/>
<text text-anchor="middle" x="2126.2689" y="-1368.8" font-family="Times,serif" font-size="24.00" fill="#000000">repl</text>
</a>
</g>
</g>
<!-- repl&#45;&gt;regexes -->
<g id="edge142" class="edge">
<title>repl&#45;&gt;regexes</title>
<path fill="none" stroke="#000000" d="M2088.5115,-1373.7883C1975.8424,-1366.6024 1632.7014,-1340.4576 1356.2689,-1274.6274 879.0063,-1160.9712 643.016,-1209.5364 353.2689,-813.6274 276.1663,-708.2748 294.3037,-601.1375 399.2689,-523.5083 446.7188,-488.4157 602.261,-453.9238 699.9212,-434.953"/>
<polygon fill="#000000" stroke="#000000" points="700.615,-438.3838 709.7716,-433.0539 699.2898,-431.5103 700.615,-438.3838"/>
</g>
<!-- repl&#45;&gt;env -->
<g id="edge136" class="edge">
<title>repl&#45;&gt;env</title>
<path fill="none" stroke="#000000" d="M2163.7885,-1373.2375C2268.1504,-1364.8297 2558.7517,-1336.2731 2628.2689,-1274.6274 2743.4106,-1172.5232 2698.3044,-891.739 2666.2689,-768.3726 2660.2722,-745.2796 2647.1803,-721.828 2635.6339,-704.2042"/>
<polygon fill="#000000" stroke="#000000" points="2638.2839,-701.8748 2629.7825,-695.5521 2632.4854,-705.7964 2638.2839,-701.8748"/>
</g>
<!-- repl&#45;&gt;startingvars -->
<g id="edge140" class="edge">
<title>repl&#45;&gt;startingvars</title>
<path fill="none" stroke="#000000" d="M2097.9438,-1360.7952C2059.3162,-1340.06 1989.588,-1302.6301 1942.8587,-1277.546"/>
<polygon fill="#000000" stroke="#000000" points="1944.3018,-1274.3483 1933.8356,-1272.7024 1940.991,-1280.5159 1944.3018,-1274.3483"/>
</g>
<!-- repl&#45;&gt;variables -->
<g id="edge145" class="edge">
<title>repl&#45;&gt;variables</title>
<path fill="none" stroke="#000000" d="M2162.1554,-1368.5565C2240.7838,-1349.9339 2425.3061,-1292.9136 2476.2689,-1159.6274 2537.6626,-999.0605 2479.1353,-787.034 2452.7057,-707.2208"/>
<polygon fill="#000000" stroke="#000000" points="2456.0139,-706.0778 2449.5026,-697.72 2449.3808,-708.3141 2456.0139,-706.0778"/>
</g>
<!-- repl&#45;&gt;vartypes -->
<g id="edge137" class="edge">
<title>repl&#45;&gt;vartypes</title>
<path fill="none" stroke="#000000" d="M2089.4028,-1371.054C1949.364,-1351.2538 1458.2689,-1272.1808 1458.2689,-1137 1458.2689,-1137 1458.2689,-1137 1458.2689,-791 1458.2689,-717.0504 1449.1181,-630.6339 1443.5176,-584.6699"/>
<polygon fill="#000000" stroke="#000000" points="1446.9842,-584.1832 1442.2795,-574.6902 1440.0374,-585.0451 1446.9842,-584.1832"/>
</g>
<!-- repl&#45;&gt;warnings -->
<g id="edge135" class="edge">
<title>repl&#45;&gt;warnings</title>
<path fill="none" stroke="#000000" d="M2163.6672,-1372.7965C2275.44,-1362.693 2604.8864,-1328.9129 2696.2689,-1274.6274 2955.7606,-1120.4771 2991.4825,-953.3035 2968.2689,-652.3726 2959.2259,-535.1435 3002.2704,-479.4866 2924.2689,-391.5083 2874.1492,-334.978 2373.5276,-225.9564 2185.3072,-186.6102"/>
<polygon fill="#000000" stroke="#000000" points="2186.0124,-183.1821 2175.5083,-184.5658 2184.5827,-190.0345 2186.0124,-183.1821"/>
</g>
<!-- repl&#45;&gt;args -->
<g id="edge138" class="edge">
<title>repl&#45;&gt;args</title>
<path fill="none" stroke="#000000" d="M2163.8712,-1372.8612C2271.5151,-1363.2634 2578.319,-1331.4513 2659.2689,-1274.6274 2756.7167,-1206.2225 2900.8184,-928.4585 2932.2689,-813.6274 2966.3329,-689.2538 2959.9587,-648.5079 2928.2689,-523.5083 2921.6261,-497.306 2907.6235,-470.0835 2895.821,-450.1357"/>
<polygon fill="#000000" stroke="#000000" points="2898.7677,-448.2451 2890.5873,-441.5122 2892.7836,-451.8769 2898.7677,-448.2451"/>
</g>
<!-- repl&#45;&gt;opresultwarn -->
<g id="edge139" class="edge">
<title>repl&#45;&gt;opresultwarn</title>
<path fill="none" stroke="#000000" d="M2088.4497,-1374.1388C1956.8992,-1367.2341 1507.4109,-1340.0294 1142.2689,-1274.6274 940.3463,-1238.4603 883.3318,-1241.5611 695.2689,-1159.6274 488.2678,-1069.4429 411.0432,-1021.662 323.2689,-813.6274 246.3225,-631.2563 288.2001,-479.9763 465.2689,-391.5083 524.4606,-361.9346 942.3321,-322.2522 1140.486,-304.8286"/>
<polygon fill="#000000" stroke="#000000" points="1140.9635,-308.3002 1150.6196,-303.9401 1140.3521,-301.327 1140.9635,-308.3002"/>
</g>
<!-- repl&#45;&gt;messages -->
<g id="edge143" class="edge">
<title>repl&#45;&gt;messages</title>
<path fill="none" stroke="#000000" d="M2163.8275,-1372.5025C2281.1508,-1361.1651 2639.215,-1323.3267 2744.2689,-1274.6274 3144.3762,-1089.1519 3424.2689,-993.0068 3424.2689,-552 3424.2689,-552 3424.2689,-552 3424.2689,-296 3424.2689,-277.0143 3435.5229,-221.4078 3242.2689,-143.5083 3129.8342,-98.1865 2305.3638,-57.1752 2020.6462,-44.2259"/>
<polygon fill="#000000" stroke="#000000" points="2020.4886,-40.7152 2010.3404,-43.7587 2020.1716,-47.708 2020.4886,-40.7152"/>
</g>
<!-- repl&#45;&gt;matches -->
<g id="edge141" class="edge">
<title>repl&#45;&gt;matches</title>
<path fill="none" stroke="#000000" d="M2089.8955,-1369.5828C2012.7589,-1355.2483 1836.5253,-1318.4203 1796.2689,-1274.6274 1608.7829,-1070.6712 1625.8182,-697.1107 1635.7956,-584.7894"/>
<polygon fill="#000000" stroke="#000000" points="1639.2881,-585.0315 1636.732,-574.7496 1632.3183,-584.3813 1639.2881,-585.0315"/>
</g>
<!-- repl&#45;&gt;runCommand -->
<g id="edge144" class="edge">
<title>repl&#45;&gt;runCommand</title>
<path fill="none" stroke="#000000" d="M2088.5709,-1372.7476C1963.5159,-1361.5948 1563.5488,-1322.9101 1444.2689,-1274.6274 1309.4598,-1220.0587 1177.3677,-1104.2921 1120.0268,-1050.1093"/>
<polygon fill="#000000" stroke="#000000" points="1122.4185,-1047.5538 1112.7619,-1043.1948 1117.5925,-1052.6243 1122.4185,-1047.5538"/>
</g>
<!-- runner -->
<g id="node19" class="node">
<title>runner</title>
<g id="a_node19"><a xlink:href="runner.md" xlink:title="runner.md">
<polygon fill="#98fb98" stroke="#000000" points="3181.6297,-1497.8581 3181.6297,-1518.1419 3146.2712,-1532.4846 3096.2666,-1532.4846 3060.9081,-1518.1419 3060.9081,-1497.8581 3096.2666,-1483.5154 3146.2712,-1483.5154 3181.6297,-1497.8581"/>
<polygon fill="none" stroke="#000000" points="3185.6413,-1495.1681 3185.6413,-1520.8319 3147.0561,-1536.4835 3095.4817,-1536.4835 3056.8965,-1520.8319 3056.8965,-1495.1681 3095.4817,-1479.5165 3147.0561,-1479.5165 3185.6413,-1495.1681"/>
<text text-anchor="middle" x="3121.2689" y="-1500.8" font-family="Times,serif" font-size="24.00" fill="#000000">runner</text>
</a>
</g>
</g>
<!-- statictea -->
<g id="node20" class="node">
<title>statictea</title>
<g id="a_node20"><a xlink:href="statictea.md" xlink:title="statictea.md">
<polygon fill="#eee8aa" stroke="#000000" points="2873.3647,-1499.3667 2956.2689,-1480.0619 3039.1731,-1499.3667 3039.0958,-1530.6024 2873.4421,-1530.6024 2873.3647,-1499.3667"/>
<text text-anchor="middle" x="2956.2689" y="-1500.8" font-family="Times,serif" font-size="24.00" fill="#000000">statictea</text>
</a>
</g>
</g>
<!-- statictea&#45;&gt;env -->
<g id="edge133" class="edge">
<title>statictea&#45;&gt;env</title>
<path fill="none" stroke="#000000" d="M2956.2689,-1479.968C2956.2689,-1432.8742 2956.2689,-1334.8889 2956.2689,-1252 2956.2689,-1252 2956.2689,-1252 2956.2689,-1021 2956.2689,-850.4779 2743.5573,-733.7198 2653.6428,-691.9826"/>
<polygon fill="#000000" stroke="#000000" points="2654.8693,-688.6949 2644.3194,-687.7201 2651.9587,-695.0612 2654.8693,-688.6949"/>
</g>
<!-- statictea&#45;&gt;updateTemplate -->
<g id="edge128" class="edge">
<title>statictea&#45;&gt;updateTemplate</title>
<path fill="none" stroke="#000000" d="M2921.6406,-1487.952C2882.2482,-1465.1459 2817.7544,-1427.8074 2774.1906,-1402.5863"/>
<polygon fill="#000000" stroke="#000000" points="2775.9079,-1399.5362 2765.4999,-1397.5548 2772.4006,-1405.5942 2775.9079,-1399.5362"/>
</g>
<!-- statictea&#45;&gt;repl -->
<g id="edge146" class="edge">
<title>statictea&#45;&gt;repl</title>
<path fill="none" stroke="#000000" d="M2884.7852,-1496.6315C2718.8447,-1470.241 2311.1484,-1405.4025 2172.9537,-1383.4246"/>
<polygon fill="#000000" stroke="#000000" points="2173.1364,-1379.9097 2162.7107,-1381.7956 2172.0369,-1386.8228 2173.1364,-1379.9097"/>
</g>
<!-- gethelp -->
<g id="node21" class="node">
<title>gethelp</title>
<g id="a_node21"><a xlink:href="gethelp.md" xlink:title="gethelp.md">
<polygon fill="#98fb98" stroke="#000000" points="2586.4038,-1365.8581 2586.4038,-1386.1419 2547.6629,-1400.4846 2492.8749,-1400.4846 2454.134,-1386.1419 2454.134,-1365.8581 2492.8749,-1351.5154 2547.6629,-1351.5154 2586.4038,-1365.8581"/>
<polygon fill="none" stroke="#000000" points="2590.3931,-1363.0722 2590.3931,-1388.9278 2548.376,-1404.4835 2492.1618,-1404.4835 2450.1447,-1388.9278 2450.1447,-1363.0722 2492.1618,-1347.5165 2548.376,-1347.5165 2590.3931,-1363.0722"/>
<text text-anchor="middle" x="2520.2689" y="-1368.8" font-family="Times,serif" font-size="24.00" fill="#000000">gethelp</text>
</a>
</g>
</g>
<!-- statictea&#45;&gt;gethelp -->
<g id="edge131" class="edge">
<title>statictea&#45;&gt;gethelp</title>
<path fill="none" stroke="#000000" d="M2900.7676,-1492.9597C2830.4672,-1473.6581 2705.7664,-1438.5819 2600.2689,-1404.4917 2594.6967,-1402.6911 2588.9278,-1400.7634 2583.1574,-1398.7914"/>
<polygon fill="#000000" stroke="#000000" points="2584.074,-1395.4051 2573.4792,-1395.4453 2581.7867,-1402.0208 2584.074,-1395.4051"/>
</g>
<!-- statictea&#45;&gt;args -->
<g id="edge129" class="edge">
<title>statictea&#45;&gt;args</title>
<path fill="none" stroke="#000000" d="M2974.0027,-1483.7857C3014.0986,-1426.5681 3108.2689,-1277.256 3108.2689,-1137 3108.2689,-1137 3108.2689,-1137 3108.2689,-906 3108.2689,-727.9663 3084.6537,-673.8336 2989.2689,-523.5083 2968.651,-491.0147 2935.256,-462.1947 2910.1055,-443.2709"/>
<polygon fill="#000000" stroke="#000000" points="2912.0494,-440.3558 2901.9226,-437.2416 2907.8971,-445.9912 2912.0494,-440.3558"/>
</g>
<!-- statictea&#45;&gt;opresultwarn -->
<g id="edge134" class="edge">
<title>statictea&#45;&gt;opresultwarn</title>
<path fill="none" stroke="#000000" d="M2873.5666,-1505.0943C2402.2395,-1488.0048 76.2689,-1396.356 76.2689,-1252 76.2689,-1252 76.2689,-1252 76.2689,-791 76.2689,-591.0283 106.1841,-484.4041 283.2689,-391.5083 320.7764,-371.8324 897.9771,-323.6999 1139.3827,-304.3029"/>
<polygon fill="#000000" stroke="#000000" points="1139.8866,-307.7738 1149.5745,-303.485 1139.3266,-300.7962 1139.8866,-307.7738"/>
</g>
<!-- statictea&#45;&gt;messages -->
<g id="edge130" class="edge">
<title>statictea&#45;&gt;messages</title>
<path fill="none" stroke="#000000" d="M3007.3072,-1491.8093C3089.241,-1465.6985 3243.3829,-1416.0418 3267.2689,-1404.4917 3378.6886,-1350.6147 3500.2689,-1375.7622 3500.2689,-1252 3500.2689,-1252 3500.2689,-1252 3500.2689,-296 3500.2689,-209.4819 3455.7879,-183.8843 3379.2689,-143.5083 3259.577,-80.3516 2325.3115,-50.4981 2020.2597,-42.3658"/>
<polygon fill="#000000" stroke="#000000" points="2020.2002,-38.8631 2010.111,-42.0971 2020.0148,-45.8606 2020.2002,-38.8631"/>
</g>
<!-- statictea&#45;&gt;version -->
<g id="edge132" class="edge">
<title>statictea&#45;&gt;version</title>
<path fill="none" stroke="#000000" d="M2962.6302,-1481.5119C2982.7334,-1391.7885 3037.7253,-1093.2537 2935.2689,-883.3726 2878.5472,-767.1786 2783.1223,-646.9663 2733.841,-588.4372"/>
<polygon fill="#000000" stroke="#000000" points="2736.3347,-585.9659 2727.2023,-580.5947 2730.9919,-590.4886 2736.3347,-585.9659"/>
</g>
<!-- timer -->
<g id="node30" class="node">
<title>timer</title>
<g id="a_node30"><a xlink:href="timer.md" xlink:title="timer.md">
<polygon fill="#98fb98" stroke="#000000" points="3228.2891,-1365.8581 3228.2891,-1386.1419 3198.4022,-1400.4846 3156.1356,-1400.4846 3126.2487,-1386.1419 3126.2487,-1365.8581 3156.1356,-1351.5154 3198.4022,-1351.5154 3228.2891,-1365.8581"/>
<polygon fill="none" stroke="#000000" points="3232.2899,-1363.3422 3232.2899,-1388.6578 3199.3129,-1404.4835 3155.2249,-1404.4835 3122.2479,-1388.6578 3122.2479,-1363.3422 3155.2249,-1347.5165 3199.3129,-1347.5165 3232.2899,-1363.3422"/>
<text text-anchor="middle" x="3177.2689" y="-1368.8" font-family="Times,serif" font-size="24.00" fill="#000000">timer</text>
</a>
</g>
</g>
<!-- statictea&#45;&gt;timer -->
<g id="edge147" class="edge">
<title>statictea&#45;&gt;timer</title>
<path fill="none" stroke="#000000" d="M2990.3158,-1487.6643C3028.4097,-1464.9114 3090.2807,-1427.9567 3132.3227,-1402.8457"/>
<polygon fill="#000000" stroke="#000000" points="3134.1869,-1405.8091 3140.9773,-1397.6764 3130.5974,-1399.7994 3134.1869,-1405.8091"/>
</g>
<!-- parseCommandLine -->
<g id="node31" class="node">
<title>parseCommandLine</title>
<g id="a_node31"><a xlink:href="parseCommandLine.md" xlink:title="parseCommandLine.md">
<ellipse fill="#eee8aa" stroke="#000000" cx="3247.2689" cy="-675" rx="148.8522" ry="22.7556"/>
<text text-anchor="middle" x="3247.2689" y="-667.8" font-family="Times,serif" font-size="24.00" fill="#000000">parseCommandLine</text>
</a>
</g>
</g>
<!-- statictea&#45;&gt;parseCommandLine -->
<g id="edge14" class="edge">
<title>statictea&#45;&gt;parseCommandLine</title>
<path fill="none" stroke="#000000" d="M3005.8684,-1491.4843C3085.4586,-1464.7724 3233.6072,-1414.0993 3241.2689,-1404.4917 3283.8517,-1351.0937 3260.2689,-1320.2982 3260.2689,-1252 3260.2689,-1252 3260.2689,-1252 3260.2689,-906 3260.2689,-835.3458 3254.1315,-752.7274 3250.2907,-707.9428"/>
<polygon fill="#000000" stroke="#000000" points="3253.7728,-707.5843 3249.4156,-697.9269 3246.7994,-708.1936 3253.7728,-707.5843"/>
</g>
<!-- processTemplate -->
<g id="node32" class="node">
<title>processTemplate</title>
<g id="a_node32"><a xlink:href="processTemplate.md" xlink:title="processTemplate.md">
<ellipse fill="#eee8aa" stroke="#000000" cx="1534.2689" cy="-1376" rx="125.2054" ry="22.7556"/>
<text text-anchor="middle" x="1534.2689" y="-1368.8" font-family="Times,serif" font-size="24.00" fill="#000000">processTemplate</text>
</a>
</g>
</g>
<!-- statictea&#45;&gt;processTemplate -->
<g id="edge115" class="edge">
<title>statictea&#45;&gt;processTemplate</title>
<path fill="none" stroke="#000000" d="M2873.4092,-1500.3084C2633.6706,-1478.0542 1938.4711,-1413.5209 1655.8693,-1387.2878"/>
<polygon fill="#000000" stroke="#000000" points="1655.8636,-1383.7723 1645.5829,-1386.3329 1655.2165,-1390.7423 1655.8636,-1383.7723"/>
</g>
<!-- comparelines -->
<g id="node22" class="node">
<title>comparelines</title>
<g id="a_node22"><a xlink:href="comparelines.md" xlink:title="comparelines.md">
<polygon fill="#98fb98" stroke="#000000" points="3427.6051,-1497.8581 3427.6051,-1518.1419 3362.9717,-1532.4846 3271.5661,-1532.4846 3206.9327,-1518.1419 3206.9327,-1497.8581 3271.5661,-1483.5154 3362.9717,-1483.5154 3427.6051,-1497.8581"/>
<polygon fill="none" stroke="#000000" points="3431.6111,-1494.6506 3431.6111,-1521.3494 3363.4116,-1536.4835 3271.1262,-1536.4835 3202.9267,-1521.3494 3202.9267,-1494.6506 3271.1262,-1479.5165 3363.4116,-1479.5165 3431.6111,-1494.6506"/>
<text text-anchor="middle" x="3317.2689" y="-1500.8" font-family="Times,serif" font-size="24.00" fill="#000000">comparelines</text>
</a>
</g>
</g>
<!-- signatures&#45;&gt;vartypes -->
<g id="edge64" class="edge">
<title>signatures&#45;&gt;vartypes</title>
<path fill="none" stroke="#000000" d="M1135.1317,-657.3771C1200.4589,-634.7426 1313.5383,-595.563 1381.8767,-571.8852"/>
<polygon fill="#000000" stroke="#000000" points="1383.3208,-575.0891 1391.6238,-568.508 1381.029,-568.4748 1383.3208,-575.0891"/>
</g>
<!-- signatures&#45;&gt;messages -->
<g id="edge65" class="edge">
<title>signatures&#45;&gt;messages</title>
<path fill="none" stroke="#000000" d="M1079.4456,-652.1293C1066.7143,-584.9848 1039.4168,-386.079 1135.2689,-273.3726 1225.8439,-166.8712 1639.2113,-86.7935 1828.7751,-54.9987"/>
<polygon fill="#000000" stroke="#000000" points="1829.4442,-58.4356 1838.7324,-53.3385 1828.2929,-51.5309 1829.4442,-58.4356"/>
</g>
<!-- args&#45;&gt;warnings -->
<g id="edge3" class="edge">
<title>args&#45;&gt;warnings</title>
<path fill="none" stroke="#000000" d="M2843.2961,-407.4079C2773.9715,-381.1109 2607.8258,-319.0183 2466.2689,-273.3726 2367.1298,-241.4047 2250.753,-208.8448 2179.7823,-189.5375"/>
<polygon fill="#000000" stroke="#000000" points="2180.6436,-186.1447 2170.0759,-186.9026 2178.8097,-192.9002 2180.6436,-186.1447"/>
</g>
<!-- args&#45;&gt;opresultwarn -->
<g id="edge6" class="edge">
<title>args&#45;&gt;opresultwarn</title>
<path fill="none" stroke="#000000" d="M2837.1372,-417.0268C2631.2368,-401.3824 1670.6647,-328.3977 1349.3069,-303.9808"/>
<polygon fill="#000000" stroke="#000000" points="1349.3025,-300.4705 1339.0661,-303.2027 1348.7721,-307.4504 1349.3025,-300.4705"/>
</g>
<!-- args&#45;&gt;messages -->
<g id="edge1" class="edge">
<title>args&#45;&gt;messages</title>
<path fill="none" stroke="#000000" d="M2882.5892,-397.5813C2895.8882,-345.0451 2920.2427,-213.1678 2852.2689,-143.5083 2794.8449,-84.6601 2245.592,-54.0769 2020.1322,-43.919"/>
<polygon fill="#000000" stroke="#000000" points="2020.1154,-40.4148 2009.9691,-43.465 2019.803,-47.4078 2020.1154,-40.4148"/>
</g>
<!-- opresultwarn&#45;&gt;warnings -->
<g id="edge4" class="edge">
<title>opresultwarn&#45;&gt;warnings</title>
<path fill="none" stroke="#000000" d="M1328.8751,-283.9412C1497.9516,-259.8429 1875.2458,-206.0677 2037.5819,-182.9301"/>
<polygon fill="#000000" stroke="#000000" points="2038.0858,-186.3937 2047.4919,-181.5176 2037.098,-179.4638 2038.0858,-186.3937"/>
</g>
<!-- opresultwarn&#45;&gt;opresult -->
<g id="edge5" class="edge">
<title>opresultwarn&#45;&gt;opresult</title>
<path fill="none" stroke="#000000" d="M1205.3441,-275.1053C1167.2506,-254.6569 1108.9311,-223.3511 1066.547,-200.5995"/>
<polygon fill="#000000" stroke="#000000" points="1067.9551,-197.383 1057.4888,-195.7371 1064.6443,-203.5506 1067.9551,-197.383"/>
</g>
<!-- matches&#45;&gt;regexes -->
<g id="edge12" class="edge">
<title>matches&#45;&gt;regexes</title>
<path fill="none" stroke="#000000" d="M1585.7383,-538.4053C1564.5103,-533.3012 1539.8255,-527.7217 1517.2689,-523.5083 1281.8496,-479.533 1000.8743,-444.8548 864.5625,-429.1514"/>
<polygon fill="#000000" stroke="#000000" points="864.9376,-425.6715 854.6037,-428.0082 864.1393,-432.6259 864.9376,-425.6715"/>
</g>
<!-- matches&#45;&gt;args -->
<g id="edge11" class="edge">
<title>matches&#45;&gt;args</title>
<path fill="none" stroke="#000000" d="M1703.1706,-545.1811C1921.2923,-521.9053 2633.6246,-445.8925 2827.289,-425.2266"/>
<polygon fill="#000000" stroke="#000000" points="2827.8734,-428.6842 2837.4456,-424.1428 2827.1306,-421.7237 2827.8734,-428.6842"/>
</g>
<!-- readjson&#45;&gt;unicodes -->
<g id="edge81" class="edge">
<title>readjson&#45;&gt;unicodes</title>
<path fill="none" stroke="#000000" d="M472.2237,-768.9082C460.0566,-751.0427 442.7859,-725.6832 429.2582,-705.8198"/>
<polygon fill="#000000" stroke="#000000" points="432.0491,-703.6998 423.5272,-697.4046 426.2634,-707.6401 432.0491,-703.6998"/>
</g>
<!-- readjson&#45;&gt;vartypes -->
<g id="edge79" class="edge">
<title>readjson&#45;&gt;vartypes</title>
<path fill="none" stroke="#000000" d="M518.355,-770.5265C566.8146,-739.6514 664.2702,-681.676 755.2689,-652.3726 967.1661,-584.1374 1231.0672,-562.0892 1360.3856,-555.1199"/>
<polygon fill="#000000" stroke="#000000" points="1360.7885,-558.6037 1370.5921,-554.5862 1360.4229,-551.6132 1360.7885,-558.6037"/>
</g>
<!-- readjson&#45;&gt;utf8decoder -->
<g id="edge82" class="edge">
<title>readjson&#45;&gt;utf8decoder</title>
<path fill="none" stroke="#000000" d="M489.666,-768.0837C493.9446,-727.1798 502.9402,-641.1825 508.2014,-590.8851"/>
<polygon fill="#000000" stroke="#000000" points="511.705,-591.0331 509.2644,-580.7232 504.7429,-590.3048 511.705,-591.0331"/>
</g>
<!-- readjson&#45;&gt;opresultwarn -->
<g id="edge83" class="edge">
<title>readjson&#45;&gt;opresultwarn</title>
<path fill="none" stroke="#000000" d="M505.4469,-769.1679C535.028,-732.5247 593.467,-655.2933 625.2689,-580.4917 658.9716,-501.2192 605.577,-450.5822 668.2689,-391.5083 734.0299,-329.5423 987.5441,-307.5636 1135.4161,-299.9297"/>
<polygon fill="#000000" stroke="#000000" points="1135.6266,-303.4237 1145.4382,-299.4259 1135.275,-296.4325 1135.6266,-303.4237"/>
</g>
<!-- readjson&#45;&gt;messages -->
<g id="edge80" class="edge">
<title>readjson&#45;&gt;messages</title>
<path fill="none" stroke="#000000" d="M442.8432,-773.5966C407.8086,-758.0342 359.6214,-732.3225 327.2689,-697.6274 233.4308,-596.9947 190.2689,-557.5956 190.2689,-420 190.2689,-420 190.2689,-420 190.2689,-296 190.2689,-95.7386 418.4929,-185.6558 614.2689,-143.5083 846.3254,-93.5501 1566.7121,-56.417 1828.197,-44.269"/>
<polygon fill="#000000" stroke="#000000" points="1828.6016,-47.7541 1838.4291,-43.7955 1828.278,-40.7616 1828.6016,-47.7541"/>
</g>
<!-- parseCommandLine&#45;&gt;cmdline -->
<g id="edge10" class="edge">
<title>parseCommandLine&#45;&gt;cmdline</title>
<path fill="none" stroke="#000000" d="M3253.9559,-652.1529C3259.0004,-634.9174 3266.0385,-610.8705 3271.9539,-590.6596"/>
<polygon fill="#000000" stroke="#000000" points="3275.391,-591.3761 3274.8409,-580.7956 3268.6728,-589.4098 3275.391,-591.3761"/>
</g>
<!-- parseCommandLine&#45;&gt;warnings -->
<g id="edge9" class="edge">
<title>parseCommandLine&#45;&gt;warnings</title>
<path fill="none" stroke="#000000" d="M3237.1536,-652.3934C3222.4252,-621.103 3192.8072,-563.8902 3156.2689,-523.5083 3020.6094,-373.5781 2966.9225,-340.7056 2776.2689,-273.3726 2576.3924,-202.7823 2325.4567,-181.3218 2197.5578,-174.816"/>
<polygon fill="#000000" stroke="#000000" points="2197.6005,-171.314 2187.441,-174.3197 2197.2574,-178.3056 2197.6005,-171.314"/>
</g>
<!-- parseCommandLine&#45;&gt;args -->
<g id="edge7" class="edge">
<title>parseCommandLine&#45;&gt;args</title>
<path fill="none" stroke="#000000" d="M3218.5941,-652.6913C3179.4228,-622.4767 3106.6839,-567.2921 3042.2689,-523.5083 2998.4353,-493.7138 2946.3573,-461.7806 2912.3748,-441.3877"/>
<polygon fill="#000000" stroke="#000000" points="2914.0951,-438.3384 2903.7169,-436.2069 2910.5007,-444.3451 2914.0951,-438.3384"/>
</g>
<!-- parseCommandLine&#45;&gt;messages -->
<g id="edge8" class="edge">
<title>parseCommandLine&#45;&gt;messages</title>
<path fill="none" stroke="#000000" d="M3289.4386,-653.2667C3316.3907,-637.0235 3349.5091,-612.1856 3367.2689,-580.4917 3402.3812,-517.8311 3386.2689,-491.8278 3386.2689,-420 3386.2689,-420 3386.2689,-420 3386.2689,-296 3386.2689,-158.957 3249.1142,-184.2551 3118.2689,-143.5083 2913.8544,-79.8511 2266.4944,-51.6498 2020.44,-43.0367"/>
<polygon fill="#000000" stroke="#000000" points="2020.2036,-39.5265 2010.0883,-42.6776 2019.9609,-46.5223 2020.2036,-39.5265"/>
</g>
<!-- parseCommandLine&#45;&gt;matches -->
<g id="edge13" class="edge">
<title>parseCommandLine&#45;&gt;matches</title>
<path fill="none" stroke="#000000" d="M3113.9685,-664.8035C2789.7578,-640.0038 1968.0563,-577.1498 1714.7718,-557.7754"/>
<polygon fill="#000000" stroke="#000000" points="1714.8075,-554.268 1704.5697,-556.995 1714.2736,-561.2476 1714.8075,-554.268"/>
</g>
<!-- processTemplate&#45;&gt;parseCmdLine -->
<g id="edge30" class="edge">
<title>processTemplate&#45;&gt;parseCmdLine</title>
<path fill="none" stroke="#000000" d="M1411.5444,-1371.3717C1150.8,-1358.1927 565.2689,-1309.4043 565.2689,-1137 565.2689,-1137 565.2689,-1137 565.2689,-1021 565.2689,-888.8051 628.4146,-861.4685 722.2689,-768.3726 750.7219,-740.1495 789.2688,-716.692 820.5526,-700.3479"/>
<polygon fill="#000000" stroke="#000000" points="822.2844,-703.3933 829.5879,-695.718 819.0921,-697.1636 822.2844,-703.3933"/>
</g>
<!-- processTemplate&#45;&gt;env -->
<g id="edge22" class="edge">
<title>processTemplate&#45;&gt;env</title>
<path fill="none" stroke="#000000" d="M1658.5622,-1372.9554C1858.7344,-1366.042 2241.6853,-1343.9157 2356.2689,-1274.6274 2563.9419,-1149.0483 2604.709,-813.98 2612.4882,-707.7733"/>
<polygon fill="#000000" stroke="#000000" points="2615.9894,-707.8735 2613.1784,-697.6584 2609.0056,-707.3969 2615.9894,-707.8735"/>
</g>
<!-- processTemplate&#45;&gt;startingvars -->
<g id="edge113" class="edge">
<title>processTemplate&#45;&gt;startingvars</title>
<path fill="none" stroke="#000000" d="M1592.671,-1355.9394C1658.3845,-1333.3675 1764.7439,-1296.8341 1832.2807,-1273.6358"/>
<polygon fill="#000000" stroke="#000000" points="1833.6334,-1276.872 1841.954,-1270.3132 1831.3593,-1270.2517 1833.6334,-1276.872"/>
</g>
<!-- processTemplate&#45;&gt;variables -->
<g id="edge92" class="edge">
<title>processTemplate&#45;&gt;variables</title>
<path fill="none" stroke="#000000" d="M1652.2863,-1368.4156C1860.5874,-1353.9374 2276.1178,-1319.7427 2324.2689,-1274.6274 2488.7281,-1120.5371 2460.7861,-809.1521 2446.5331,-707.7355"/>
<polygon fill="#000000" stroke="#000000" points="2449.9869,-707.1638 2445.0805,-697.7735 2443.0601,-708.1739 2449.9869,-707.1638"/>
</g>
<!-- processTemplate&#45;&gt;vartypes -->
<g id="edge93" class="edge">
<title>processTemplate&#45;&gt;vartypes</title>
<path fill="none" stroke="#000000" d="M1495.7745,-1354.2749C1467.2538,-1336.3364 1429.4618,-1308.3907 1406.2689,-1274.6274 1369.9841,-1221.8056 1363.2689,-1201.0838 1363.2689,-1137 1363.2689,-1137 1363.2689,-1137 1363.2689,-1021 1363.2689,-855.1674 1410.1411,-660.5497 1430.2655,-584.634"/>
<polygon fill="#000000" stroke="#000000" points="1433.713,-585.2902 1432.9199,-574.7251 1426.9514,-583.4788 1433.713,-585.2902"/>
</g>
<!-- processTemplate&#45;&gt;replacement -->
<g id="edge94" class="edge">
<title>processTemplate&#45;&gt;replacement</title>
<path fill="none" stroke="#000000" d="M1553.6403,-1353.4258C1631.5341,-1262.6531 1921.9492,-924.2211 2010.4838,-821.0484"/>
<polygon fill="#000000" stroke="#000000" points="2013.3682,-823.0616 2017.2243,-813.1934 2008.0559,-818.5031 2013.3682,-823.0616"/>
</g>
<!-- processTemplate&#45;&gt;args -->
<g id="edge15" class="edge">
<title>processTemplate&#45;&gt;args</title>
<path fill="none" stroke="#000000" d="M1657.7557,-1372.0839C1865.0365,-1363.7779 2272.7086,-1339.5126 2399.2689,-1274.6274 2598.0811,-1172.7 2749.5578,-963.4435 2869.2689,-580.4917 2882.5967,-537.8566 2881.9875,-485.7484 2879.6637,-452.7097"/>
<polygon fill="#000000" stroke="#000000" points="2883.1485,-452.3792 2878.8644,-442.6891 2876.1707,-452.9358 2883.1485,-452.3792"/>
</g>
<!-- processTemplate&#45;&gt;opresultwarn -->
<g id="edge114" class="edge">
<title>processTemplate&#45;&gt;opresultwarn</title>
<path fill="none" stroke="#000000" d="M1417.0365,-1368.0485C1083.3415,-1343.8601 152.2689,-1264.9094 152.2689,-1137 152.2689,-1137 152.2689,-1137 152.2689,-675 152.2689,-602.2498 171.8751,-582.6298 214.2689,-523.5083 240.3384,-487.1522 325.2706,-409.4114 366.2689,-391.5083 435.6887,-361.194 921.1093,-320.7699 1138.9211,-303.9075"/>
<polygon fill="#000000" stroke="#000000" points="1139.3872,-307.382 1149.088,-303.1225 1138.8482,-300.4028 1139.3872,-307.382"/>
</g>
<!-- processTemplate&#45;&gt;messages -->
<g id="edge16" class="edge">
<title>processTemplate&#45;&gt;messages</title>
<path fill="none" stroke="#000000" d="M1410.8895,-1372.1777C1148.8448,-1362.9674 544.7721,-1335.6418 349.2689,-1274.6274 8.8018,-1168.3714 .2689,-908.6626 .2689,-552 .2689,-552 .2689,-552 .2689,-296 .2689,-224.2491 -4.0335,-186.6896 53.2689,-143.5083 124.7383,-89.6511 1455.9222,-51.8998 1828.241,-42.3625"/>
<polygon fill="#000000" stroke="#000000" points="1828.539,-45.8561 1838.4464,-42.102 1828.3603,-38.8584 1828.539,-45.8561"/>
</g>
<!-- processTemplate&#45;&gt;matches -->
<g id="edge23" class="edge">
<title>processTemplate&#45;&gt;matches</title>
<path fill="none" stroke="#000000" d="M1518.7401,-1353.4806C1506.1125,-1333.7124 1489.2808,-1303.6601 1482.2689,-1274.6274 1465.5477,-1205.3937 1472.6036,-1184.9381 1482.2689,-1114.3726 1510.6223,-907.3656 1595.0981,-669.1295 1626.9402,-584.1523"/>
<polygon fill="#000000" stroke="#000000" points="1630.3033,-585.1533 1630.5552,-574.5614 1623.7531,-582.6844 1630.3033,-585.1533"/>
</g>
<!-- processTemplate&#45;&gt;linebuffer -->
<g id="edge24" class="edge">
<title>processTemplate&#45;&gt;linebuffer</title>
<path fill="none" stroke="#000000" d="M1650.1475,-1367.4673C1746.8145,-1356.4734 1885.7828,-1331.4395 1994.2689,-1274.6274 2127.9971,-1204.5966 2182.8973,-1181.985 2243.2689,-1043.6274 2313.0311,-883.7488 2266.7741,-818.0744 2212.2689,-652.3726 2204.9731,-630.1925 2192.3781,-607.5015 2180.7853,-589.3181"/>
<polygon fill="#000000" stroke="#000000" points="2183.6031,-587.2318 2175.2025,-580.7757 2177.7435,-591.0613 2183.6031,-587.2318"/>
</g>
<!-- processTemplate&#45;&gt;runCommand -->
<g id="edge91" class="edge">
<title>processTemplate&#45;&gt;runCommand</title>
<path fill="none" stroke="#000000" d="M1431.2279,-1363.1589C1325.3016,-1347.7735 1170.3431,-1318.4555 1130.2689,-1274.6274 1074.2916,-1213.4065 1078.5603,-1107.1689 1085.0657,-1053.7131"/>
<polygon fill="#000000" stroke="#000000" points="1088.5414,-1054.1266 1086.3794,-1043.7547 1081.6015,-1053.2111 1088.5414,-1054.1266"/>
</g>
<!-- runCommand&#45;&gt;runFunction -->
<g id="edge85" class="edge">
<title>runCommand&#45;&gt;runFunction</title>
<path fill="none" stroke="#000000" d="M1066.7461,-998.8268C1047.5055,-980.6903 1020.1432,-954.8979 999.1421,-935.1018"/>
<polygon fill="#000000" stroke="#000000" points="1001.397,-932.4175 991.7195,-928.1051 996.5955,-937.5112 1001.397,-932.4175"/>
</g>
<!-- runCommand&#45;&gt;parseNumber -->
<g id="edge42" class="edge">
<title>runCommand&#45;&gt;parseNumber</title>
<path fill="none" stroke="#000000" d="M1102.5123,-998.1059C1124.6154,-956.7749 1171.2153,-869.6368 1196.3483,-822.6402"/>
<polygon fill="#000000" stroke="#000000" points="1199.4455,-824.2703 1201.075,-813.8016 1193.2728,-820.9692 1199.4455,-824.2703"/>
</g>
<!-- runCommand&#45;&gt;regexes -->
<g id="edge33" class="edge">
<title>runCommand&#45;&gt;regexes</title>
<path fill="none" stroke="#000000" d="M1007.3206,-1007.1946C954.4717,-994.625 887.6524,-971.2434 842.2689,-928.6274 724.4568,-817.9996 738.6484,-742.0972 737.2689,-580.4917 737.0527,-555.1667 732.1121,-548.3037 737.2689,-523.5083 742.0006,-500.7567 752.0056,-476.8712 761.3827,-457.785"/>
<polygon fill="#000000" stroke="#000000" points="764.5231,-459.3306 765.9097,-448.8269 758.2755,-456.1734 764.5231,-459.3306"/>
</g>
<!-- runCommand&#45;&gt;parseCmdLine -->
<g id="edge90" class="edge">
<title>runCommand&#45;&gt;parseCmdLine</title>
<path fill="none" stroke="#000000" d="M1001.7683,-1008.8284C952.7188,-997.0631 895.6616,-973.9594 865.2689,-928.6274 819.9473,-861.0286 845.2236,-758.9609 862.8227,-707.3416"/>
<polygon fill="#000000" stroke="#000000" points="866.1922,-708.3103 866.2169,-697.7155 859.5906,-705.9825 866.1922,-708.3103"/>
</g>
<!-- runCommand&#45;&gt;env -->
<g id="edge34" class="edge">
<title>runCommand&#45;&gt;env</title>
<path fill="none" stroke="#000000" d="M1191.2341,-1014.8263C1340.0647,-1004.4086 1626.5205,-979.3216 1865.2689,-928.6274 2034.5483,-892.6838 2073.3353,-869.0641 2237.2689,-813.6274 2360.994,-771.7878 2505.4688,-716.9694 2574.1104,-690.5568"/>
<polygon fill="#000000" stroke="#000000" points="2575.6033,-693.7325 2583.6761,-686.8709 2573.0864,-687.2006 2575.6033,-693.7325"/>
</g>
<!-- runCommand&#45;&gt;unicodes -->
<g id="edge88" class="edge">
<title>runCommand&#45;&gt;unicodes</title>
<path fill="none" stroke="#000000" d="M998.239,-1010.1509C868.6985,-993.9854 639.8374,-961.8942 563.2689,-928.6274 532.634,-915.3174 530.0145,-903.3807 503.2689,-883.3726 461.6135,-852.2105 432.8211,-860.0122 409.2689,-813.6274 392.4799,-780.5623 395.5381,-737.0818 400.6346,-707.7009"/>
<polygon fill="#000000" stroke="#000000" points="404.1332,-708.0388 402.5714,-697.5597 397.2575,-706.7256 404.1332,-708.0388"/>
</g>
<!-- runCommand&#45;&gt;variables -->
<g id="edge49" class="edge">
<title>runCommand&#45;&gt;variables</title>
<path fill="none" stroke="#000000" d="M1187.8145,-1012.789C1380.8532,-994.2844 1823.1087,-940.6117 2172.2689,-813.6274 2256.5744,-782.9668 2348.0886,-731.5355 2399.6904,-700.681"/>
<polygon fill="#000000" stroke="#000000" points="2401.7789,-703.5091 2408.5433,-695.3548 2398.1702,-697.511 2401.7789,-703.5091"/>
</g>
<!-- runCommand&#45;&gt;vartypes -->
<g id="edge38" class="edge">
<title>runCommand&#45;&gt;vartypes</title>
<path fill="none" stroke="#000000" d="M1088.3058,-998.1494C1084.0416,-943.1758 1076.214,-805.353 1101.2689,-768.3726 1144.1975,-705.011 1193.0388,-737.6598 1258.2689,-697.6274 1288.6877,-678.9591 1363.5571,-616.4995 1406.8768,-579.721"/>
<polygon fill="#000000" stroke="#000000" points="1409.2307,-582.3138 1414.5806,-573.1689 1404.6955,-576.9815 1409.2307,-582.3138"/>
</g>
<!-- runCommand&#45;&gt;utf8decoder -->
<g id="edge89" class="edge">
<title>runCommand&#45;&gt;utf8decoder</title>
<path fill="none" stroke="#000000" d="M1006.5536,-1007.2463C912.6537,-990.5767 767.5527,-960.7087 722.2689,-928.6274 602.5665,-843.8243 543.0756,-668.1799 521.753,-590.4468"/>
<polygon fill="#000000" stroke="#000000" points="525.0795,-589.3387 519.1097,-580.5858 518.3182,-591.1511 525.0795,-589.3387"/>
</g>
<!-- runCommand&#45;&gt;warnings -->
<g id="edge40" class="edge">
<title>runCommand&#45;&gt;warnings</title>
<path fill="none" stroke="#000000" d="M1139.5037,-1000.8191C1179.5813,-983.6291 1237.0425,-957.2237 1284.2689,-928.6274 1648.3528,-708.169 1995.0084,-313.5514 2089.2424,-202.0695"/>
<polygon fill="#000000" stroke="#000000" points="2092.0729,-204.142 2095.8391,-194.2391 2086.7194,-199.6319 2092.0729,-204.142"/>
</g>
<!-- runCommand&#45;&gt;opresultwarn -->
<g id="edge87" class="edge">
<title>runCommand&#45;&gt;opresultwarn</title>
<path fill="none" stroke="#000000" d="M996.3252,-1010.9747C933.645,-999.9581 852.8444,-976.8859 797.2689,-928.6274 705.7165,-849.1287 623.3104,-484.3756 701.2689,-391.5083 755.5087,-326.8956 992.4936,-305.9805 1134.8489,-299.2199"/>
<polygon fill="#000000" stroke="#000000" points="1135.1021,-302.7121 1144.9311,-298.7572 1134.7812,-295.7194 1135.1021,-302.7121"/>
</g>
<!-- runCommand&#45;&gt;messages -->
<g id="edge39" class="edge">
<title>runCommand&#45;&gt;messages</title>
<path fill="none" stroke="#000000" d="M996.3972,-1010.9784C853.4925,-994.9393 588.5495,-961.9093 499.2689,-928.6274 251.3609,-836.2126 38.2689,-816.573 38.2689,-552 38.2689,-552 38.2689,-552 38.2689,-296 38.2689,-220.2751 51.0435,-185.1834 114.2689,-143.5083 186.3376,-96.0041 1464.2216,-53.9008 1828.2327,-42.8305"/>
<polygon fill="#000000" stroke="#000000" points="1828.5859,-46.3215 1838.4752,-42.5198 1828.3736,-39.3247 1828.5859,-46.3215"/>
</g>
<!-- runCommand&#45;&gt;matches -->
<g id="edge32" class="edge">
<title>runCommand&#45;&gt;matches</title>
<path fill="none" stroke="#000000" d="M1126.3727,-999.6937C1205.2155,-952.0935 1396.3548,-830.7799 1529.2689,-697.6274 1565.1257,-661.7063 1599.1785,-613.7201 1619.6455,-582.8324"/>
<polygon fill="#000000" stroke="#000000" points="1622.7408,-584.4949 1625.2981,-574.2133 1616.8873,-580.656 1622.7408,-584.4949"/>
</g>
<!-- runCommand&#45;&gt;readjson -->
<g id="edge86" class="edge">
<title>runCommand&#45;&gt;readjson</title>
<path fill="none" stroke="#000000" d="M1000.5726,-1009.3254C884.8448,-993.2043 690.8359,-962.2796 627.2689,-928.6274 577.7726,-902.4242 534.1378,-853.1582 509.2318,-821.2309"/>
<polygon fill="#000000" stroke="#000000" points="511.8736,-818.9241 503.0127,-813.1158 506.3175,-823.1821 511.8736,-818.9241"/>
</g>
<!-- runCommand&#45;&gt;linebuffer -->
<g id="edge31" class="edge">
<title>runCommand&#45;&gt;linebuffer</title>
<path fill="none" stroke="#000000" d="M1164.598,-1004.8725C1286.9405,-978.4792 1538.5006,-924.8484 1752.2689,-883.3726 1838.0546,-866.7282 2081.3283,-879.0423 2139.2689,-813.6274 2193.7939,-752.0688 2178.8013,-647.0129 2165.2762,-590.5705"/>
<polygon fill="#000000" stroke="#000000" points="2168.6086,-589.4693 2162.7849,-580.6186 2161.8181,-591.1693 2168.6086,-589.4693"/>
</g>
</g>
</svg>
