<?xml version="1.0" encoding="UTF-8" standalone="no"?>
<!DOCTYPE svg PUBLIC "-//W3C//DTD SVG 1.1//EN"
 "http://www.w3.org/Graphics/SVG/1.1/DTD/svg11.dtd">
<!-- Generated by graphviz version 7.0.1 (20221109.1506)
 -->
<!-- Title: statictea Pages: 1 -->
<svg width="3378pt" height="1568pt"
 viewBox="0.00 0.00 3377.89 1567.89" xmlns="http://www.w3.org/2000/svg" xmlns:xlink="http://www.w3.org/1999/xlink">
<g id="graph0" class="graph" transform="scale(1 1) rotate(0) translate(4 1563.89)">
<title>statictea</title>
<polygon fill="white" stroke="none" points="-4,4 -4,-1563.89 3373.89,-1563.89 3373.89,4 -4,4"/>
<!-- args -->
<g id="node1" class="node">
<title>args</title>
<g id="a_node1"><a xlink:href="args.md" xlink:title="args.md">
<ellipse fill="palegoldenrod" stroke="black" cx="577" cy="-276" rx="39.7" ry="24.08"/>
<text text-anchor="middle" x="577" y="-269.8" font-family="Times,serif" font-size="24.00">args</text>
</a>
</g>
</g>
<!-- messages -->
<g id="node9" class="node">
<title>messages</title>
<g id="a_node9"><a xlink:href="messages.md" xlink:title="messages.md">
<polygon fill="palegreen" stroke="black" points="2299.18,-33.69 2299.18,-64.31 2231.12,-85.95 2134.88,-85.95 2066.82,-64.31 2066.82,-33.69 2134.88,-12.05 2231.12,-12.05 2299.18,-33.69"/>
<polygon fill="none" stroke="black" points="2303.17,-30.74 2303.17,-67.26 2231.74,-89.98 2134.26,-89.98 2062.83,-67.26 2062.83,-30.74 2134.26,-8.02 2231.74,-8.02 2303.17,-30.74"/>
<text text-anchor="middle" x="2183" y="-40.2" font-family="Times,serif" font-size="36.00">messages</text>
</a>
</g>
</g>
<!-- args&#45;&gt;messages -->
<g id="edge1" class="edge">
<title>args&#45;&gt;messages</title>
<path fill="none" stroke="black" d="M580.8,-251.54C587.07,-221.22 602.72,-169.44 639,-144.96 754.58,-66.96 1698.8,-53.02 2051.11,-50.54"/>
<polygon fill="black" stroke="black" points="2050.88,-54.04 2060.86,-50.47 2050.84,-47.04 2050.88,-54.04"/>
</g>
<!-- opresult -->
<g id="node10" class="node">
<title>opresult</title>
<g id="a_node10"><a xlink:href="opresult.md" xlink:title="opresult.md">
<ellipse fill="palegoldenrod" stroke="black" cx="2183" cy="-169" rx="66.44" ry="24.08"/>
<text text-anchor="middle" x="2183" y="-162.8" font-family="Times,serif" font-size="24.00">opresult</text>
</a>
</g>
</g>
<!-- args&#45;&gt;opresult -->
<g id="edge3" class="edge">
<title>args&#45;&gt;opresult</title>
<path fill="none" stroke="black" d="M616.7,-272.4C827.99,-258.59 1821.56,-193.63 2106.46,-175"/>
<polygon fill="black" stroke="black" points="2106.64,-178.5 2116.39,-174.36 2106.18,-171.52 2106.64,-178.5"/>
</g>
<!-- cmdline -->
<g id="node2" class="node">
<title>cmdline</title>
<g id="a_node2"><a xlink:href="cmdline.md" xlink:title="cmdline.md">
<polygon fill="palegreen" stroke="black" points="284.04,-387.69 284.04,-418.31 225.44,-439.95 142.56,-439.95 83.96,-418.31 83.96,-387.69 142.56,-366.05 225.44,-366.05 284.04,-387.69"/>
<polygon fill="none" stroke="black" points="288.03,-384.88 288.03,-421.12 226.14,-443.98 141.86,-443.98 79.97,-421.12 79.97,-384.88 141.86,-362.02 226.14,-362.02 288.03,-384.88"/>
<text text-anchor="middle" x="184" y="-394.2" font-family="Times,serif" font-size="36.00">cmdline</text>
</a>
</g>
</g>
<!-- codefile -->
<g id="node3" class="node">
<title>codefile</title>
<g id="a_node3"><a xlink:href="codefile.md" xlink:title="codefile.md">
<ellipse fill="palegoldenrod" stroke="black" cx="2586" cy="-1128" rx="66.44" ry="24.08"/>
<text text-anchor="middle" x="2586" y="-1121.8" font-family="Times,serif" font-size="24.00">codefile</text>
</a>
</g>
</g>
<!-- env -->
<g id="node5" class="node">
<title>env</title>
<g id="a_node5"><a xlink:href="env.md" xlink:title="env.md">
<ellipse fill="palegoldenrod" stroke="black" cx="769" cy="-535" rx="48.17" ry="33.88"/>
<text text-anchor="middle" x="769" y="-526.2" font-family="Times,serif" font-size="36.00">env</text>
</a>
</g>
</g>
<!-- codefile&#45;&gt;env -->
<g id="edge88" class="edge">
<title>codefile&#45;&gt;env</title>
<path fill="none" stroke="black" d="M2519.28,-1126.91C2305.32,-1125.94 1638.53,-1117.28 1436,-1048.13 1167.3,-956.39 1108.35,-891.09 905,-692.94 878.54,-667.15 880.73,-653.38 857,-625.06 841.19,-606.19 822.14,-586.58 805.82,-570.59"/>
<polygon fill="black" stroke="black" points="808.26,-568.08 798.65,-563.63 803.39,-573.11 808.26,-568.08"/>
</g>
<!-- linebuffer -->
<g id="node7" class="node">
<title>linebuffer</title>
<g id="a_node7"><a xlink:href="linebuffer.md" xlink:title="linebuffer.md">
<polygon fill="palegreen" stroke="black" points="854.91,-392.21 854.91,-413.79 805.17,-429.04 734.83,-429.04 685.09,-413.79 685.09,-392.21 734.83,-376.96 805.17,-376.96 854.91,-392.21"/>
<polygon fill="none" stroke="black" points="858.91,-389.25 858.91,-416.75 805.77,-433.04 734.23,-433.04 681.09,-416.75 681.09,-389.25 734.23,-372.96 805.77,-372.96 858.91,-389.25"/>
<text text-anchor="middle" x="770" y="-396.8" font-family="Times,serif" font-size="24.00">linebuffer</text>
</a>
</g>
</g>
<!-- codefile&#45;&gt;linebuffer -->
<g id="edge91" class="edge">
<title>codefile&#45;&gt;linebuffer</title>
<path fill="none" stroke="black" d="M2519.52,-1125.66C2324.82,-1121.12 1758.56,-1103.41 1583,-1048.13 1434.48,-1001.37 1100.13,-790.79 979,-692.94 920.77,-645.9 909.25,-629.32 865,-568.94 844.43,-540.88 843.36,-531.21 826,-501.06 815.05,-482.03 802.87,-460.92 792.67,-443.26"/>
<polygon fill="black" stroke="black" points="795.71,-441.52 787.68,-434.61 789.65,-445.02 795.71,-441.52"/>
</g>
<!-- codefile&#45;&gt;messages -->
<g id="edge89" class="edge">
<title>codefile&#45;&gt;messages</title>
<path fill="none" stroke="black" d="M2630.18,-1109.71C2661.93,-1095.97 2704.65,-1074.68 2737,-1048.13 2952.21,-871.56 3134.34,-763.67 3042,-501.06 3031.16,-470.24 3015.67,-469.82 2996,-443.74 2896.39,-311.65 2917.23,-227.75 2774,-144.96 2697.91,-100.97 2464.37,-73.66 2314.66,-60.19"/>
<polygon fill="black" stroke="black" points="2315.36,-56.73 2305.09,-59.34 2314.74,-63.71 2315.36,-56.73"/>
</g>
<!-- codefile&#45;&gt;opresult -->
<g id="edge90" class="edge">
<title>codefile&#45;&gt;opresult</title>
<path fill="none" stroke="black" d="M2593.07,-1103.67C2618.91,-1016.57 2704.54,-711.03 2661,-625.06 2630.24,-564.31 2462.68,-491.35 2414,-443.74 2334.75,-366.22 2335.93,-328.58 2262,-245.98 2247.57,-229.86 2230.38,-213.07 2215.72,-199.39"/>
<polygon fill="black" stroke="black" points="2218.25,-196.97 2208.54,-192.75 2213.5,-202.11 2218.25,-196.97"/>
</g>
<!-- runCommand -->
<g id="node19" class="node">
<title>runCommand</title>
<g id="a_node19"><a xlink:href="runCommand.md" xlink:title="runCommand.md">
<ellipse fill="palegoldenrod" stroke="black" cx="1791" cy="-1005" rx="198.89" ry="43.27"/>
<text text-anchor="middle" x="1791" y="-993.1" font-family="Times,serif" font-size="48.00">runCommand</text>
</a>
</g>
</g>
<!-- codefile&#45;&gt;runCommand -->
<g id="edge92" class="edge">
<title>codefile&#45;&gt;runCommand</title>
<path fill="none" stroke="black" d="M2523.37,-1119.78C2416.53,-1107.17 2192.34,-1079.49 2004,-1048.13 1984.87,-1044.95 1964.83,-1041.34 1945.02,-1037.61"/>
<polygon fill="black" stroke="black" points="1945.68,-1034.18 1935.2,-1035.75 1944.37,-1041.05 1945.68,-1034.18"/>
</g>
<!-- utf8decoder -->
<g id="node29" class="node">
<title>utf8decoder</title>
<g id="a_node29"><a xlink:href="utf8decoder.md" xlink:title="utf8decoder.md">
<polygon fill="palegreen" stroke="black" points="2085.04,-392.21 2085.04,-413.79 2026.44,-429.04 1943.56,-429.04 1884.96,-413.79 1884.96,-392.21 1943.56,-376.96 2026.44,-376.96 2085.04,-392.21"/>
<polygon fill="none" stroke="black" points="2089.03,-389.12 2089.03,-416.88 2026.95,-433.04 1943.05,-433.04 1880.97,-416.88 1880.97,-389.12 1943.05,-372.96 2026.95,-372.96 2089.03,-389.12"/>
<text text-anchor="middle" x="1985" y="-396.8" font-family="Times,serif" font-size="24.00">utf8decoder</text>
</a>
</g>
</g>
<!-- codefile&#45;&gt;utf8decoder -->
<g id="edge95" class="edge">
<title>codefile&#45;&gt;utf8decoder</title>
<path fill="none" stroke="black" d="M2533.85,-1112.6C2369.23,-1066.91 1870.21,-926.53 1849,-897.71 1794.53,-823.72 1916.66,-547.38 1965.74,-443.67"/>
<polygon fill="black" stroke="black" points="1968.88,-445.22 1970.01,-434.69 1962.56,-442.21 1968.88,-445.22"/>
</g>
<!-- variables -->
<g id="node30" class="node">
<title>variables</title>
<g id="a_node30"><a xlink:href="variables.md" xlink:title="variables.md">
<ellipse fill="palegoldenrod" stroke="black" cx="2930" cy="-535" rx="103.48" ry="33.88"/>
<text text-anchor="middle" x="2930" y="-526.2" font-family="Times,serif" font-size="36.00">variables</text>
</a>
</g>
</g>
<!-- codefile&#45;&gt;variables -->
<g id="edge93" class="edge">
<title>codefile&#45;&gt;variables</title>
<path fill="none" stroke="black" d="M2621.76,-1107.37C2644.77,-1093.3 2674,-1072.57 2694,-1048.13 2816.75,-898.17 2890.77,-673.91 2918.03,-579.92"/>
<polygon fill="black" stroke="black" points="2921.32,-581.15 2920.71,-570.57 2914.59,-579.22 2921.32,-581.15"/>
</g>
<!-- vartypes -->
<g id="node31" class="node">
<title>vartypes</title>
<g id="a_node31"><a xlink:href="vartypes.md" xlink:title="vartypes.md">
<ellipse fill="palegoldenrod" stroke="black" cx="2521" cy="-403" rx="97.66" ry="33.88"/>
<text text-anchor="middle" x="2521" y="-394.2" font-family="Times,serif" font-size="36.00">vartypes</text>
</a>
</g>
</g>
<!-- codefile&#45;&gt;vartypes -->
<g id="edge94" class="edge">
<title>codefile&#45;&gt;vartypes</title>
<path fill="none" stroke="black" d="M2610.38,-1105.44C2625.61,-1090.72 2644.44,-1069.98 2656,-1048.13 2700.15,-964.7 2724.77,-714.3 2694,-625.06 2668.53,-551.2 2607.12,-483.16 2564.77,-442.61"/>
<polygon fill="black" stroke="black" points="2567.34,-440.23 2557.67,-435.91 2562.54,-445.32 2567.34,-440.23"/>
</g>
<!-- comparelines -->
<g id="node4" class="node">
<title>comparelines</title>
<g id="a_node4"><a xlink:href="comparelines.md" xlink:title="comparelines.md">
<polygon fill="palegreen" stroke="black" points="1144.42,-1476.21 1144.42,-1497.79 1079.74,-1513.04 988.26,-1513.04 923.58,-1497.79 923.58,-1476.21 988.26,-1460.96 1079.74,-1460.96 1144.42,-1476.21"/>
<polygon fill="none" stroke="black" points="1148.43,-1473.05 1148.43,-1500.95 1080.2,-1517.04 987.8,-1517.04 919.57,-1500.95 919.57,-1473.05 987.8,-1456.96 1080.2,-1456.96 1148.43,-1473.05"/>
<text text-anchor="middle" x="1034" y="-1480.8" font-family="Times,serif" font-size="24.00">comparelines</text>
</a>
</g>
</g>
<!-- env&#45;&gt;args -->
<g id="edge15" class="edge">
<title>env&#45;&gt;args</title>
<path fill="none" stroke="black" d="M729.75,-515.07C701.09,-499.48 663.17,-474.89 639,-443.74 608.08,-403.89 591.37,-347.02 583.33,-311.07"/>
<polygon fill="black" stroke="black" points="586.84,-310.71 581.34,-301.66 579.99,-312.17 586.84,-310.71"/>
</g>
<!-- env&#45;&gt;linebuffer -->
<g id="edge16" class="edge">
<title>env&#45;&gt;linebuffer</title>
<path fill="none" stroke="black" d="M769.25,-500.86C769.39,-483.83 769.55,-462.92 769.69,-444.89"/>
<polygon fill="black" stroke="black" points="773.18,-445.07 769.76,-435.05 766.18,-445.02 773.18,-445.07"/>
</g>
<!-- env&#45;&gt;messages -->
<g id="edge14" class="edge">
<title>env&#45;&gt;messages</title>
<path fill="none" stroke="black" d="M733.27,-512C711.09,-496.1 684.49,-472.42 672,-443.74 657.54,-410.54 653.16,-393.19 672,-362.26 781.55,-182.44 890.73,-203.49 1093,-144.96 1269.56,-93.86 1802.08,-65.75 2051.48,-55.08"/>
<polygon fill="black" stroke="black" points="2051.42,-58.58 2061.27,-54.66 2051.13,-51.59 2051.42,-58.58"/>
</g>
<!-- tempFile -->
<g id="node25" class="node">
<title>tempFile</title>
<g id="a_node25"><a xlink:href="tempFile.md" xlink:title="tempFile.md">
<polygon fill="palegreen" stroke="black" points="1037.13,-392.21 1037.13,-413.79 991.36,-429.04 926.64,-429.04 880.87,-413.79 880.87,-392.21 926.64,-376.96 991.36,-376.96 1037.13,-392.21"/>
<polygon fill="none" stroke="black" points="1041.13,-389.33 1041.13,-416.67 992.01,-433.04 925.99,-433.04 876.87,-416.67 876.87,-389.33 925.99,-372.96 992.01,-372.96 1041.13,-389.33"/>
<text text-anchor="middle" x="959" y="-396.8" font-family="Times,serif" font-size="24.00">tempFile</text>
</a>
</g>
</g>
<!-- env&#45;&gt;tempFile -->
<g id="edge13" class="edge">
<title>env&#45;&gt;tempFile</title>
<path fill="none" stroke="black" d="M802.97,-510.76C832.82,-490.33 876.63,-460.36 910.23,-437.37"/>
<polygon fill="black" stroke="black" points="911.89,-440.48 918.16,-431.94 907.93,-434.7 911.89,-440.48"/>
</g>
<!-- gethelp -->
<g id="node6" class="node">
<title>gethelp</title>
<g id="a_node6"><a xlink:href="gethelp.md" xlink:title="gethelp.md">
<polygon fill="palegreen" stroke="black" points="354.67,-1325.21 354.67,-1346.79 315.62,-1362.04 260.38,-1362.04 221.33,-1346.79 221.33,-1325.21 260.38,-1309.96 315.62,-1309.96 354.67,-1325.21"/>
<polygon fill="none" stroke="black" points="358.67,-1322.48 358.67,-1349.52 316.37,-1366.04 259.63,-1366.04 217.33,-1349.52 217.33,-1322.48 259.63,-1305.96 316.37,-1305.96 358.67,-1322.48"/>
<text text-anchor="middle" x="288" y="-1329.8" font-family="Times,serif" font-size="24.00">gethelp</text>
</a>
</g>
</g>
<!-- matches -->
<g id="node8" class="node">
<title>matches</title>
<g id="a_node8"><a xlink:href="matches.md" xlink:title="matches.md">
<ellipse fill="palegoldenrod" stroke="black" cx="1288" cy="-403" rx="67.35" ry="24.08"/>
<text text-anchor="middle" x="1288" y="-396.8" font-family="Times,serif" font-size="24.00">matches</text>
</a>
</g>
</g>
<!-- matches&#45;&gt;args -->
<g id="edge7" class="edge">
<title>matches&#45;&gt;args</title>
<path fill="none" stroke="black" d="M1228.3,-391.5C1090.7,-367.31 753.35,-308 626.39,-285.68"/>
<polygon fill="black" stroke="black" points="627.08,-282.25 616.62,-283.97 625.86,-289.14 627.08,-282.25"/>
</g>
<!-- regexes -->
<g id="node16" class="node">
<title>regexes</title>
<g id="a_node16"><a xlink:href="regexes.md" xlink:title="regexes.md">
<polygon fill="palegreen" stroke="black" points="1691.23,-265.21 1691.23,-286.79 1651.26,-302.04 1594.74,-302.04 1554.77,-286.79 1554.77,-265.21 1594.74,-249.96 1651.26,-249.96 1691.23,-265.21"/>
<polygon fill="none" stroke="black" points="1695.24,-262.46 1695.24,-289.54 1652,-306.04 1594,-306.04 1550.76,-289.54 1550.76,-262.46 1594,-245.96 1652,-245.96 1695.24,-262.46"/>
<text text-anchor="middle" x="1623" y="-269.8" font-family="Times,serif" font-size="24.00">regexes</text>
</a>
</g>
</g>
<!-- matches&#45;&gt;regexes -->
<g id="edge8" class="edge">
<title>matches&#45;&gt;regexes</title>
<path fill="none" stroke="black" d="M1333.53,-385.01C1391.65,-363.32 1492.58,-325.66 1558.58,-301.04"/>
<polygon fill="black" stroke="black" points="1559.7,-304.36 1567.84,-297.58 1557.25,-297.8 1559.7,-304.36"/>
</g>
<!-- opresult&#45;&gt;messages -->
<g id="edge2" class="edge">
<title>opresult&#45;&gt;messages</title>
<path fill="none" stroke="red" d="M2183,-144.69C2183,-132.38 2183,-116.75 2183,-101.75"/>
<polygon fill="red" stroke="red" points="2186.5,-101.99 2183,-91.99 2179.5,-101.99 2186.5,-101.99"/>
</g>
<!-- parseCmdLine -->
<g id="node11" class="node">
<title>parseCmdLine</title>
<g id="a_node11"><a xlink:href="parseCmdLine.md" xlink:title="parseCmdLine.md">
<ellipse fill="palegoldenrod" stroke="black" cx="1409" cy="-535" rx="111.95" ry="24.08"/>
<text text-anchor="middle" x="1409" y="-528.8" font-family="Times,serif" font-size="24.00">parseCmdLine</text>
</a>
</g>
</g>
<!-- parseCmdLine&#45;&gt;matches -->
<g id="edge22" class="edge">
<title>parseCmdLine&#45;&gt;matches</title>
<path fill="none" stroke="black" d="M1387.65,-511.06C1367.83,-489.76 1338.19,-457.92 1316.38,-434.49"/>
<polygon fill="black" stroke="black" points="1319.14,-432.32 1309.77,-427.39 1314.02,-437.09 1319.14,-432.32"/>
</g>
<!-- parseCmdLine&#45;&gt;messages -->
<g id="edge21" class="edge">
<title>parseCmdLine&#45;&gt;messages</title>
<path fill="none" stroke="black" d="M1401.63,-510.87C1381.92,-444 1335.8,-248.62 1433,-144.96 1474.49,-100.71 1847.22,-70.84 2051.11,-57.67"/>
<polygon fill="black" stroke="black" points="2051.23,-61.17 2060.98,-57.04 2050.78,-54.18 2051.23,-61.17"/>
</g>
<!-- parseCmdLine&#45;&gt;opresult -->
<g id="edge23" class="edge">
<title>parseCmdLine&#45;&gt;opresult</title>
<path fill="none" stroke="black" d="M1418.26,-510.62C1444.45,-445.03 1518.66,-262.93 1542,-245.98 1630.15,-181.96 1954.16,-171.36 2104.91,-169.96"/>
<polygon fill="black" stroke="black" points="2104.85,-173.46 2114.82,-169.88 2104.79,-166.46 2104.85,-173.46"/>
</g>
<!-- parseCmdLine&#45;&gt;regexes -->
<g id="edge20" class="edge">
<title>parseCmdLine&#45;&gt;regexes</title>
<path fill="none" stroke="black" d="M1447.04,-511.94C1472.98,-495.54 1506.88,-471.29 1531,-443.74 1540.31,-433.1 1578.26,-362.23 1602.41,-316.37"/>
<polygon fill="black" stroke="black" points="1605.38,-318.25 1606.93,-307.77 1599.18,-314.99 1605.38,-318.25"/>
</g>
<!-- parseCommandLine -->
<g id="node12" class="node">
<title>parseCommandLine</title>
<g id="a_node12"><a xlink:href="parseCommandLine.md" xlink:title="parseCommandLine.md">
<ellipse fill="palegoldenrod" stroke="black" cx="177" cy="-535" rx="149.4" ry="24.08"/>
<text text-anchor="middle" x="177" y="-528.8" font-family="Times,serif" font-size="24.00">parseCommandLine</text>
</a>
</g>
</g>
<!-- parseCommandLine&#45;&gt;args -->
<g id="edge4" class="edge">
<title>parseCommandLine&#45;&gt;args</title>
<path fill="none" stroke="black" d="M210.07,-511.08C234.74,-493.52 268.89,-468.22 297,-443.74 335.5,-410.2 335.76,-390.95 378,-362.26 426.24,-329.5 489.09,-305.14 531.13,-291.02"/>
<polygon fill="black" stroke="black" points="532.04,-294.41 540.44,-287.96 529.85,-287.76 532.04,-294.41"/>
</g>
<!-- parseCommandLine&#45;&gt;cmdline -->
<g id="edge6" class="edge">
<title>parseCommandLine&#45;&gt;cmdline</title>
<path fill="none" stroke="black" d="M178.27,-510.46C179.09,-495.25 180.19,-474.84 181.2,-455.97"/>
<polygon fill="black" stroke="black" points="184.7,-456.16 181.74,-445.98 177.71,-455.78 184.7,-456.16"/>
</g>
<!-- parseCommandLine&#45;&gt;matches -->
<g id="edge9" class="edge">
<title>parseCommandLine&#45;&gt;matches</title>
<path fill="none" stroke="black" d="M307.83,-523.04C478.82,-508.13 787.45,-479.19 1050,-443.74 1106.69,-436.08 1170.62,-425.29 1217.93,-416.88"/>
<polygon fill="black" stroke="black" points="1218.26,-420.38 1227.49,-415.17 1217.03,-413.49 1218.26,-420.38"/>
</g>
<!-- parseCommandLine&#45;&gt;messages -->
<g id="edge5" class="edge">
<title>parseCommandLine&#45;&gt;messages</title>
<path fill="none" stroke="black" d="M135.9,-511.37C112.14,-495.8 84.38,-472.7 71,-443.74 55.82,-410.86 55.39,-394.94 71,-362.26 137.25,-223.58 196.46,-199.89 340,-144.96 498.38,-84.35 1655.42,-59.04 2050.9,-52.1"/>
<polygon fill="black" stroke="black" points="2050.92,-55.6 2060.86,-51.93 2050.8,-48.6 2050.92,-55.6"/>
</g>
<!-- parseNumber -->
<g id="node13" class="node">
<title>parseNumber</title>
<g id="a_node13"><a xlink:href="parseNumber.md" xlink:title="parseNumber.md">
<ellipse fill="palegoldenrod" stroke="black" cx="2549" cy="-659" rx="103.48" ry="24.08"/>
<text text-anchor="middle" x="2549" y="-652.8" font-family="Times,serif" font-size="24.00">parseNumber</text>
</a>
</g>
</g>
<!-- parseNumber&#45;&gt;vartypes -->
<g id="edge33" class="edge">
<title>parseNumber&#45;&gt;vartypes</title>
<path fill="none" stroke="red" d="M2550.51,-634.47C2552.08,-603.65 2553.49,-548.03 2547,-501.06 2544.56,-483.37 2539.91,-464.3 2535.21,-447.8"/>
<polygon fill="red" stroke="red" points="2538.59,-446.88 2532.41,-438.27 2531.88,-448.86 2538.59,-446.88"/>
</g>
<!-- processTemplate -->
<g id="node14" class="node">
<title>processTemplate</title>
<g id="a_node14"><a xlink:href="processTemplate.md" xlink:title="processTemplate.md">
<ellipse fill="palegoldenrod" stroke="black" cx="1299" cy="-1336" rx="124.4" ry="24.08"/>
<text text-anchor="middle" x="1299" y="-1329.8" font-family="Times,serif" font-size="24.00">processTemplate</text>
</a>
</g>
</g>
<!-- processTemplate&#45;&gt;args -->
<g id="edge11" class="edge">
<title>processTemplate&#45;&gt;args</title>
<path fill="none" stroke="black" d="M1206.54,-1319.59C1147.03,-1307.11 1069.42,-1285.91 1007,-1252.04 901.75,-1194.93 669.04,-996.25 601,-897.71 545.84,-817.83 542.16,-788.49 525,-692.94 499.02,-548.29 485.26,-503.76 525,-362.26 530.59,-342.36 542.26,-322.5 553.12,-306.96"/>
<polygon fill="black" stroke="black" points="555.79,-309.25 558.84,-299.1 550.12,-305.13 555.79,-309.25"/>
</g>
<!-- processTemplate&#45;&gt;env -->
<g id="edge17" class="edge">
<title>processTemplate&#45;&gt;env</title>
<path fill="none" stroke="black" d="M1229.82,-1315.66C1187.93,-1301.95 1134.72,-1280.85 1093,-1252.04 1080.32,-1243.29 913.36,-1061.08 905,-1048.13 828.56,-929.74 837.04,-885.6 781,-756.29 768.76,-728.05 759.36,-723.06 753,-692.94 745.01,-655.11 750.7,-611.28 757.41,-579.57"/>
<polygon fill="black" stroke="black" points="760.79,-580.47 759.57,-569.95 753.96,-578.94 760.79,-580.47"/>
</g>
<!-- processTemplate&#45;&gt;linebuffer -->
<g id="edge19" class="edge">
<title>processTemplate&#45;&gt;linebuffer</title>
<path fill="none" stroke="black" d="M1208.83,-1319.06C1157.46,-1306.82 1093.8,-1286.07 1045,-1252.04 1022.66,-1236.46 1025.57,-1223.88 1007,-1203.96 983.63,-1178.9 974.38,-1176.12 950,-1152.04 905.05,-1107.64 888.61,-1100.32 853,-1048.13 727.88,-864.75 734.92,-789.76 712,-568.94 708.88,-538.93 703.97,-530.14 712,-501.06 717.68,-480.5 728.98,-459.9 740.12,-443.01"/>
<polygon fill="black" stroke="black" points="743,-444.99 745.76,-434.76 737.22,-441.04 743,-444.99"/>
</g>
<!-- processTemplate&#45;&gt;matches -->
<g id="edge18" class="edge">
<title>processTemplate&#45;&gt;matches</title>
<path fill="none" stroke="black" d="M1281.18,-1312.1C1234.05,-1249.9 1106.74,-1070.85 1063,-897.71 1033.17,-779.65 1035.21,-733.81 1090,-625.06 1130.42,-544.82 1207.64,-471.33 1252.78,-432.62"/>
<polygon fill="black" stroke="black" points="1254.83,-435.46 1260.2,-426.33 1250.31,-430.12 1254.83,-435.46"/>
</g>
<!-- processTemplate&#45;&gt;messages -->
<g id="edge12" class="edge">
<title>processTemplate&#45;&gt;messages</title>
<path fill="none" stroke="black" d="M1373.15,-1316.32C1392.21,-1312.21 1412.77,-1308.37 1432,-1305.98 1612.26,-1283.52 2903.98,-1334.19 3066,-1252.04 3367.98,-1098.94 3326,-874.57 3326,-536 3326,-536 3326,-536 3326,-275 3326,-155.24 3204.27,-180.8 3090,-144.96 2948.82,-100.67 2530.32,-70.44 2314.7,-57.34"/>
<polygon fill="black" stroke="black" points="2315.02,-53.85 2304.83,-56.74 2314.6,-60.84 2315.02,-53.85"/>
</g>
<!-- processTemplate&#45;&gt;opresult -->
<g id="edge99" class="edge">
<title>processTemplate&#45;&gt;opresult</title>
<path fill="none" stroke="black" d="M1320.54,-1311.84C1334.79,-1295.81 1353.3,-1273.57 1367,-1252.04 1633.18,-833.74 1461.56,-555.36 1849,-245.98 1888.58,-214.37 2023.38,-191.19 2109.15,-179.21"/>
<polygon fill="black" stroke="black" points="2109.46,-182.7 2118.89,-177.87 2108.51,-175.76 2109.46,-182.7"/>
</g>
<!-- processTemplate&#45;&gt;parseCmdLine -->
<g id="edge24" class="edge">
<title>processTemplate&#45;&gt;parseCmdLine</title>
<path fill="none" stroke="black" d="M1313.64,-1311.6C1335.47,-1274.4 1374,-1198.84 1374,-1129 1374,-1129 1374,-1129 1374,-1004 1374,-861.79 1432.22,-834.16 1449,-692.94 1452.56,-662.98 1455.32,-654.56 1449,-625.06 1444.86,-605.75 1436.21,-585.58 1428.01,-569.32"/>
<polygon fill="black" stroke="black" points="1431.17,-567.83 1423.43,-560.59 1424.97,-571.08 1431.17,-567.83"/>
</g>
<!-- replacement -->
<g id="node18" class="node">
<title>replacement</title>
<g id="a_node18"><a xlink:href="replacement.md" xlink:title="replacement.md">
<ellipse fill="palegoldenrod" stroke="black" cx="1234" cy="-659" rx="135.11" ry="33.88"/>
<text text-anchor="middle" x="1234" y="-650.2" font-family="Times,serif" font-size="36.00">replacement</text>
</a>
</g>
</g>
<!-- processTemplate&#45;&gt;replacement -->
<g id="edge80" class="edge">
<title>processTemplate&#45;&gt;replacement</title>
<path fill="none" stroke="black" d="M1296.76,-1311.76C1287.35,-1213.99 1250.85,-835.02 1238.28,-704.48"/>
<polygon fill="black" stroke="black" points="1241.8,-704.48 1237.36,-694.86 1234.83,-705.15 1241.8,-704.48"/>
</g>
<!-- processTemplate&#45;&gt;runCommand -->
<g id="edge77" class="edge">
<title>processTemplate&#45;&gt;runCommand</title>
<path fill="none" stroke="black" d="M1347.53,-1313.41C1381.07,-1297.82 1426.27,-1275.46 1464,-1252.04 1563.16,-1190.5 1669.71,-1106.63 1733.33,-1054.42"/>
<polygon fill="black" stroke="black" points="1735.35,-1057.29 1740.85,-1048.23 1730.91,-1051.89 1735.35,-1057.29"/>
</g>
<!-- startingvars -->
<g id="node23" class="node">
<title>startingvars</title>
<g id="a_node23"><a xlink:href="startingvars.md" xlink:title="startingvars.md">
<ellipse fill="palegoldenrod" stroke="black" cx="2652" cy="-1228" rx="90.52" ry="24.08"/>
<text text-anchor="middle" x="2652" y="-1221.8" font-family="Times,serif" font-size="24.00">startingvars</text>
</a>
</g>
</g>
<!-- processTemplate&#45;&gt;startingvars -->
<g id="edge98" class="edge">
<title>processTemplate&#45;&gt;startingvars</title>
<path fill="none" stroke="black" d="M1374.25,-1316.5C1393.02,-1312.46 1413.16,-1308.61 1432,-1305.98 1844,-1248.37 2340.34,-1233.85 2550.31,-1230.21"/>
<polygon fill="black" stroke="black" points="2550.16,-1233.71 2560.1,-1230.04 2550.04,-1226.71 2550.16,-1233.71"/>
</g>
<!-- processTemplate&#45;&gt;variables -->
<g id="edge78" class="edge">
<title>processTemplate&#45;&gt;variables</title>
<path fill="none" stroke="black" d="M1373.15,-1316.33C1392.21,-1312.22 1412.77,-1308.38 1432,-1305.98 1520.47,-1294.93 2974.02,-1316.14 3036,-1252.04 3101.52,-1184.28 3154.68,-1034.3 2998,-625.06 2991.26,-607.46 2979.88,-590.42 2968.34,-576.04"/>
<polygon fill="black" stroke="black" points="2971.24,-574.05 2962.14,-568.62 2965.86,-578.54 2971.24,-574.05"/>
</g>
<!-- processTemplate&#45;&gt;vartypes -->
<g id="edge79" class="edge">
<title>processTemplate&#45;&gt;vartypes</title>
<path fill="none" stroke="black" d="M1373.51,-1316.35C1392.48,-1312.27 1412.9,-1308.43 1432,-1305.98 1577.59,-1287.26 2623.45,-1322.91 2752,-1252.04 2998.27,-1116.28 2949.14,-882.94 2837,-625.06 2812.27,-568.18 2819.18,-542.45 2773,-501.06 2720.16,-453.7 2690.21,-469.25 2624,-443.74 2614.9,-440.23 2605.36,-436.55 2595.9,-432.9"/>
<polygon fill="black" stroke="black" points="2597.28,-429.69 2586.69,-429.36 2594.76,-436.22 2597.28,-429.69"/>
</g>
<!-- readjson -->
<g id="node15" class="node">
<title>readjson</title>
<g id="a_node15"><a xlink:href="readjson.md" xlink:title="readjson.md">
<ellipse fill="palegoldenrod" stroke="black" cx="2283" cy="-659" rx="69.09" ry="24.08"/>
<text text-anchor="middle" x="2283" y="-652.8" font-family="Times,serif" font-size="24.00">readjson</text>
</a>
</g>
</g>
<!-- readjson&#45;&gt;messages -->
<g id="edge66" class="edge">
<title>readjson&#45;&gt;messages</title>
<path fill="none" stroke="black" d="M2335.84,-643.03C2382.07,-628.46 2449.79,-603.46 2502,-568.94 2583.42,-515.11 2647,-501.61 2647,-404 2647,-404 2647,-404 2647,-275 2647,-126.42 2452,-75.92 2314.82,-58.78"/>
<polygon fill="black" stroke="black" points="2315.25,-55.31 2304.9,-57.59 2314.41,-62.26 2315.25,-55.31"/>
</g>
<!-- readjson&#45;&gt;opresult -->
<g id="edge69" class="edge">
<title>readjson&#45;&gt;opresult</title>
<path fill="none" stroke="black" d="M2310.24,-636.72C2328.74,-620.44 2351.66,-596.19 2362,-568.94 2372.71,-540.74 2369.32,-530.33 2362,-501.06 2346.22,-437.92 2246.61,-272.59 2203.19,-202.33"/>
<polygon fill="black" stroke="black" points="2206.25,-200.62 2198.01,-193.97 2200.3,-204.31 2206.25,-200.62"/>
</g>
<!-- unicodes -->
<g id="node27" class="node">
<title>unicodes</title>
<g id="a_node27"><a xlink:href="unicodes.md" xlink:title="unicodes.md">
<ellipse fill="palegoldenrod" stroke="black" cx="2282" cy="-535" rx="71.34" ry="24.08"/>
<text text-anchor="middle" x="2282" y="-528.8" font-family="Times,serif" font-size="24.00">unicodes</text>
</a>
</g>
</g>
<!-- readjson&#45;&gt;unicodes -->
<g id="edge67" class="edge">
<title>readjson&#45;&gt;unicodes</title>
<path fill="none" stroke="black" d="M2282.81,-634.48C2282.66,-616.42 2282.45,-591.2 2282.29,-570.81"/>
<polygon fill="black" stroke="black" points="2285.79,-570.94 2282.2,-560.96 2278.79,-570.99 2285.79,-570.94"/>
</g>
<!-- readjson&#45;&gt;utf8decoder -->
<g id="edge68" class="edge">
<title>readjson&#45;&gt;utf8decoder</title>
<path fill="none" stroke="black" d="M2220.76,-648.16C2142.29,-634.34 2014.19,-606.59 1986,-568.94 1959.51,-533.57 1964.59,-480.92 1972.81,-444.66"/>
<polygon fill="black" stroke="black" points="1976.2,-445.53 1975.19,-434.98 1969.4,-443.86 1976.2,-445.53"/>
</g>
<!-- readjson&#45;&gt;vartypes -->
<g id="edge65" class="edge">
<title>readjson&#45;&gt;vartypes</title>
<path fill="none" stroke="black" d="M2325.8,-639.91C2378.06,-617.5 2460.77,-580.81 2471,-568.94 2500.17,-535.09 2512.33,-484.61 2517.39,-448.41"/>
<polygon fill="black" stroke="black" points="2520.83,-449.06 2518.61,-438.7 2513.89,-448.19 2520.83,-449.06"/>
</g>
<!-- repl -->
<g id="node17" class="node">
<title>repl</title>
<g id="a_node17"><a xlink:href="repl.md" xlink:title="repl.md">
<ellipse fill="palegoldenrod" stroke="black" cx="1791" cy="-1336" rx="38.37" ry="24.08"/>
<text text-anchor="middle" x="1791" y="-1329.8" font-family="Times,serif" font-size="24.00">repl</text>
</a>
</g>
</g>
<!-- repl&#45;&gt;args -->
<g id="edge123" class="edge">
<title>repl&#45;&gt;args</title>
<path fill="none" stroke="black" d="M1753.57,-1329.73C1643.04,-1314.07 1322.93,-1267.89 1278,-1252.04 998.82,-1153.59 886.45,-1138.33 714,-897.71 591.08,-726.2 604.44,-652.69 575,-443.74 568.6,-398.35 570.88,-345.32 573.56,-311.47"/>
<polygon fill="black" stroke="black" points="577.01,-312.11 574.38,-301.85 570.04,-311.51 577.01,-312.11"/>
</g>
<!-- repl&#45;&gt;env -->
<g id="edge121" class="edge">
<title>repl&#45;&gt;env</title>
<path fill="none" stroke="black" d="M1753.09,-1330.88C1681.72,-1322.28 1523.31,-1299.2 1398,-1252.04 1224.81,-1186.87 1184,-1157.86 1035,-1048.13 956.67,-990.45 928.24,-979.77 876,-897.71 824.5,-816.81 834.69,-785.05 808,-692.94 797.04,-655.12 786.38,-611.62 778.98,-580.03"/>
<polygon fill="black" stroke="black" points="782.43,-579.38 776.75,-570.43 775.61,-580.97 782.43,-579.38"/>
</g>
<!-- repl&#45;&gt;matches -->
<g id="edge126" class="edge">
<title>repl&#45;&gt;matches</title>
<path fill="none" stroke="black" d="M1752.92,-1332.12C1656.82,-1322.56 1412,-1283.09 1412,-1129 1412,-1129 1412,-1129 1412,-1004 1412,-835.58 1502.27,-766.6 1411,-625.06 1378.44,-574.56 1320.5,-619.48 1288,-568.94 1262.78,-529.71 1269.65,-473.63 1277.99,-438.03"/>
<polygon fill="black" stroke="black" points="1281.29,-439.25 1280.34,-428.7 1274.5,-437.54 1281.29,-439.25"/>
</g>
<!-- repl&#45;&gt;messages -->
<g id="edge120" class="edge">
<title>repl&#45;&gt;messages</title>
<path fill="none" stroke="black" d="M1829.49,-1334.18C2058.5,-1329.17 3233.86,-1301.1 3291,-1252.04 3348.89,-1202.33 3364,-1405.79 3364,-660 3364,-660 3364,-660 3364,-275 3364,-216.23 3383.6,-184.37 3340,-144.96 3265.31,-77.43 2602.25,-57.47 2314.87,-51.96"/>
<polygon fill="black" stroke="black" points="2315.13,-48.46 2305.07,-51.77 2315,-55.46 2315.13,-48.46"/>
</g>
<!-- repl&#45;&gt;opresult -->
<g id="edge124" class="edge">
<title>repl&#45;&gt;opresult</title>
<path fill="none" stroke="black" d="M1829.68,-1334.3C2057.23,-1330.03 3213.25,-1305.73 3264,-1252.04 3360.26,-1150.21 3265.57,-747.26 3197,-625.06 3158.09,-555.7 3130.86,-549.77 3068,-501.06 2879.2,-354.77 2822.43,-318.93 2595,-245.98 2480.24,-209.16 2341.42,-188.17 2257.78,-177.95"/>
<polygon fill="black" stroke="black" points="2258.2,-174.47 2247.85,-176.76 2257.36,-181.42 2258.2,-174.47"/>
</g>
<!-- repl&#45;&gt;regexes -->
<g id="edge127" class="edge">
<title>repl&#45;&gt;regexes</title>
<path fill="none" stroke="black" d="M1755.81,-1325.67C1683.72,-1304.21 1526,-1244.09 1526,-1129 1526,-1129 1526,-1129 1526,-1004 1526,-740.16 1589.54,-427.16 1613.77,-317.42"/>
<polygon fill="black" stroke="black" points="1617.17,-318.24 1615.93,-307.72 1610.34,-316.72 1617.17,-318.24"/>
</g>
<!-- repl&#45;&gt;runCommand -->
<g id="edge128" class="edge">
<title>repl&#45;&gt;runCommand</title>
<path fill="none" stroke="black" d="M1791,-1311.6C1791,-1259.49 1791,-1132.72 1791,-1059.88"/>
<polygon fill="black" stroke="black" points="1794.5,-1060.18 1791,-1050.18 1787.5,-1060.18 1794.5,-1060.18"/>
</g>
<!-- repl&#45;&gt;startingvars -->
<g id="edge125" class="edge">
<title>repl&#45;&gt;startingvars</title>
<path fill="none" stroke="black" d="M1828.55,-1330.38C1955.66,-1314.73 2372.26,-1263.44 2559.45,-1240.39"/>
<polygon fill="black" stroke="black" points="2559.64,-1243.9 2569.13,-1239.2 2558.78,-1236.95 2559.64,-1243.9"/>
</g>
<!-- repl&#45;&gt;variables -->
<g id="edge129" class="edge">
<title>repl&#45;&gt;variables</title>
<path fill="none" stroke="black" d="M1829.68,-1333.96C2046.09,-1328 3098.97,-1296.76 3150,-1252.04 3191.9,-1215.32 3174,-1184.72 3174,-1129 3174,-1129 3174,-1129 3174,-1004 3174,-824.76 3138.77,-771.91 3036,-625.06 3022.14,-605.26 3002.82,-587.27 2984.46,-572.73"/>
<polygon fill="black" stroke="black" points="2986.81,-570.13 2976.75,-566.8 2982.54,-575.67 2986.81,-570.13"/>
</g>
<!-- repl&#45;&gt;vartypes -->
<g id="edge122" class="edge">
<title>repl&#45;&gt;vartypes</title>
<path fill="none" stroke="black" d="M1829.71,-1335.31C2043.01,-1336.65 3069.29,-1338.56 3177,-1252.04 3221.33,-1216.44 3212,-1185.85 3212,-1129 3212,-1129 3212,-1129 3212,-826 3212,-663.01 3173.07,-597.93 3042,-501.06 2977.61,-453.47 2759.94,-425.72 2627.19,-412.84"/>
<polygon fill="black" stroke="black" points="2627.6,-409.36 2617.31,-411.89 2626.93,-416.33 2627.6,-409.36"/>
</g>
<!-- replacement&#45;&gt;env -->
<g id="edge54" class="edge">
<title>replacement&#45;&gt;env</title>
<path fill="none" stroke="black" d="M1141.85,-633.82C1047.47,-609.06 903.78,-571.36 825.19,-550.74"/>
<polygon fill="black" stroke="black" points="826.1,-547.36 815.54,-548.21 824.33,-554.13 826.1,-547.36"/>
</g>
<!-- replacement&#45;&gt;linebuffer -->
<g id="edge57" class="edge">
<title>replacement&#45;&gt;linebuffer</title>
<path fill="none" stroke="black" d="M1157.24,-630.79C1114.94,-614.74 1062.03,-592.91 1017,-568.94 943.88,-530.02 865.26,-475 816.84,-439.4"/>
<polygon fill="black" stroke="black" points="819.21,-436.8 809.08,-433.67 815.05,-442.43 819.21,-436.8"/>
</g>
<!-- replacement&#45;&gt;matches -->
<g id="edge58" class="edge">
<title>replacement&#45;&gt;matches</title>
<path fill="none" stroke="black" d="M1236.54,-624.9C1239.44,-592.9 1245.11,-543.21 1255,-501.06 1260.01,-479.68 1267.86,-456.36 1274.65,-437.94"/>
<polygon fill="black" stroke="black" points="1277.92,-439.17 1278.17,-428.58 1271.37,-436.71 1277.92,-439.17"/>
</g>
<!-- replacement&#45;&gt;messages -->
<g id="edge59" class="edge">
<title>replacement&#45;&gt;messages</title>
<path fill="none" stroke="black" d="M1196.02,-626.32C1180.14,-610.79 1163.27,-590.75 1154,-568.94 1118.04,-484.32 1106.79,-445.89 1145,-362.26 1206.33,-228.06 1261.08,-204.7 1396,-144.96 1510.28,-94.36 1858.57,-67.76 2051.27,-56.57"/>
<polygon fill="black" stroke="black" points="2051.31,-60.08 2061.09,-56.01 2050.91,-53.09 2051.31,-60.08"/>
</g>
<!-- replacement&#45;&gt;opresult -->
<g id="edge62" class="edge">
<title>replacement&#45;&gt;opresult</title>
<path fill="none" stroke="black" d="M1207.81,-625.42C1196.59,-609.41 1184.76,-589.22 1179,-568.94 1153.91,-480.58 1127.44,-438.29 1179,-362.26 1283.22,-208.58 1887.88,-177.68 2105.23,-171.52"/>
<polygon fill="black" stroke="black" points="2105.1,-175.02 2115,-171.25 2104.91,-168.03 2105.1,-175.02"/>
</g>
<!-- replacement&#45;&gt;parseCmdLine -->
<g id="edge56" class="edge">
<title>replacement&#45;&gt;parseCmdLine</title>
<path fill="none" stroke="black" d="M1279.07,-626.58C1306.31,-607.59 1340.78,-583.56 1367.38,-565.02"/>
<polygon fill="black" stroke="black" points="1369.35,-567.91 1375.55,-559.32 1365.34,-562.17 1369.35,-567.91"/>
</g>
<!-- replacement&#45;&gt;tempFile -->
<g id="edge61" class="edge">
<title>replacement&#45;&gt;tempFile</title>
<path fill="none" stroke="black" d="M1161.83,-629.98C1129.74,-615.13 1092.98,-594.61 1065,-568.94 1054.25,-559.08 1010.37,-488.47 982.55,-442.89"/>
<polygon fill="black" stroke="black" points="985.68,-441.3 977.49,-434.58 979.7,-444.94 985.68,-441.3"/>
</g>
<!-- replacement&#45;&gt;variables -->
<g id="edge60" class="edge">
<title>replacement&#45;&gt;variables</title>
<path fill="none" stroke="black" d="M1363.22,-648.7C1684.52,-625.59 2515.37,-565.83 2817.8,-544.07"/>
<polygon fill="black" stroke="black" points="2817.97,-547.57 2827.69,-543.36 2817.46,-540.59 2817.97,-547.57"/>
</g>
<!-- replacement&#45;&gt;vartypes -->
<g id="edge55" class="edge">
<title>replacement&#45;&gt;vartypes</title>
<path fill="none" stroke="black" d="M1334.79,-636.09C1478.92,-604.95 1752.34,-546.63 1986,-501.06 2138.35,-471.35 2315.71,-439.76 2423.09,-420.97"/>
<polygon fill="black" stroke="black" points="2423.49,-424.45 2432.74,-419.28 2422.28,-417.55 2423.49,-424.45"/>
</g>
<!-- runCommand&#45;&gt;env -->
<g id="edge28" class="edge">
<title>runCommand&#45;&gt;env</title>
<path fill="none" stroke="black" d="M1677.79,-969.06C1616.87,-949.5 1540.75,-923.85 1474,-897.71 1267.51,-816.86 1214.48,-797.65 1019,-692.94 944.04,-652.79 861.22,-598.75 812.22,-565.7"/>
<polygon fill="black" stroke="black" points="814.38,-562.93 804.14,-560.23 810.46,-568.73 814.38,-562.93"/>
</g>
<!-- runCommand&#45;&gt;linebuffer -->
<g id="edge25" class="edge">
<title>runCommand&#45;&gt;linebuffer</title>
<path fill="none" stroke="black" d="M1706.43,-965.38C1664.69,-945.85 1613.8,-921.32 1569,-897.71 1457.77,-839.09 1440.1,-804.55 1324,-756.29 1224.51,-714.93 1188.16,-737.36 1090,-692.94 1067.29,-682.66 919.95,-587.22 903,-568.94 879.49,-543.59 885.72,-528.74 865,-501.06 848.95,-479.61 828.44,-458.09 810.58,-440.78"/>
<polygon fill="black" stroke="black" points="813.33,-438.56 803.69,-434.18 808.49,-443.62 813.33,-438.56"/>
</g>
<!-- runCommand&#45;&gt;matches -->
<g id="edge26" class="edge">
<title>runCommand&#45;&gt;matches</title>
<path fill="none" stroke="black" d="M1729.34,-963.45C1706.17,-945.63 1681.29,-922.99 1664,-897.71 1611.48,-820.92 1593.93,-568.65 1530,-501.06 1485.06,-453.55 1413.77,-428.75 1360.18,-416.16"/>
<polygon fill="black" stroke="black" points="1361.03,-412.76 1350.51,-413.99 1359.5,-419.59 1361.03,-412.76"/>
</g>
<!-- runCommand&#45;&gt;messages -->
<g id="edge32" class="edge">
<title>runCommand&#45;&gt;messages</title>
<path fill="none" stroke="black" d="M1758.08,-961.84C1744.55,-943.01 1729.61,-920.06 1719,-897.71 1686.83,-829.92 1497.37,-306.3 1542,-245.98 1603.27,-163.18 1886.31,-101.18 2055.11,-70.81"/>
<polygon fill="black" stroke="black" points="2055.6,-74.28 2064.82,-69.07 2054.37,-67.39 2055.6,-74.28"/>
</g>
<!-- runCommand&#45;&gt;opresult -->
<g id="edge73" class="edge">
<title>runCommand&#45;&gt;opresult</title>
<path fill="none" stroke="black" d="M1790.44,-961.45C1790.05,-912.07 1790.14,-828.23 1794,-756.29 1799.27,-658.08 1815,-634.35 1815,-536 1815,-536 1815,-536 1815,-402 1815,-263.22 2004.59,-204.14 2111.6,-181.85"/>
<polygon fill="black" stroke="black" points="2112.05,-185.33 2121.16,-179.92 2110.67,-178.47 2112.05,-185.33"/>
</g>
<!-- runCommand&#45;&gt;parseCmdLine -->
<g id="edge76" class="edge">
<title>runCommand&#45;&gt;parseCmdLine</title>
<path fill="none" stroke="black" d="M1709.04,-965.31C1679.58,-948.06 1648.19,-925.34 1626,-897.71 1545.08,-796.96 1601.7,-729.06 1525,-625.06 1507.07,-600.74 1480.74,-579.79 1457.7,-564.33"/>
<polygon fill="black" stroke="black" points="1459.62,-561.4 1449.33,-558.87 1455.79,-567.26 1459.62,-561.4"/>
</g>
<!-- runCommand&#45;&gt;parseNumber -->
<g id="edge34" class="edge">
<title>runCommand&#45;&gt;parseNumber</title>
<path fill="none" stroke="black" d="M1980.36,-991.41C2201.14,-974.77 2541.05,-942.26 2580,-897.71 2630,-840.52 2592.95,-744.05 2567.55,-693.38"/>
<polygon fill="black" stroke="black" points="2570.74,-691.92 2563.04,-684.64 2564.52,-695.13 2570.74,-691.92"/>
</g>
<!-- runCommand&#45;&gt;readjson -->
<g id="edge72" class="edge">
<title>runCommand&#45;&gt;readjson</title>
<path fill="none" stroke="black" d="M1989.9,-1002.33C2177.28,-996.04 2438.73,-973.43 2504,-897.71 2545.04,-850.1 2538.44,-808.87 2504,-756.29 2499.08,-748.79 2401.62,-708.14 2337.78,-682.11"/>
<polygon fill="black" stroke="black" points="2339.44,-679.01 2328.86,-678.48 2336.8,-685.49 2339.44,-679.01"/>
</g>
<!-- runCommand&#45;&gt;regexes -->
<g id="edge27" class="edge">
<title>runCommand&#45;&gt;regexes</title>
<path fill="none" stroke="black" d="M1766.4,-961.66C1756.53,-942.71 1746.07,-919.71 1740,-897.71 1707.61,-780.41 1736.18,-744.89 1715,-625.06 1694.99,-511.84 1656.23,-381.61 1636,-317.28"/>
<polygon fill="black" stroke="black" points="1639.38,-316.35 1633.03,-307.87 1632.7,-318.46 1639.38,-316.35"/>
</g>
<!-- runFunction -->
<g id="node20" class="node">
<title>runFunction</title>
<g id="a_node20"><a xlink:href="runFunction.md" xlink:title="runFunction.md">
<ellipse fill="palegoldenrod" stroke="black" cx="2160" cy="-827" rx="301.87" ry="70.92"/>
<text text-anchor="middle" x="2160" y="-805.8" font-family="Times,serif" font-size="84.00">runFunction</text>
</a>
</g>
</g>
<!-- runCommand&#45;&gt;runFunction -->
<g id="edge71" class="edge">
<title>runCommand&#45;&gt;runFunction</title>
<path fill="none" stroke="black" d="M1872.44,-965.16C1915.03,-944.84 1968.41,-919.38 2017.58,-895.93"/>
<polygon fill="black" stroke="black" points="2018.79,-899.23 2026.31,-891.77 2015.77,-892.91 2018.79,-899.23"/>
</g>
<!-- runCommand&#45;&gt;unicodes -->
<g id="edge74" class="edge">
<title>runCommand&#45;&gt;unicodes</title>
<path fill="none" stroke="black" d="M1989.22,-1000.62C2167.3,-992.88 2409.91,-969.09 2471,-897.71 2511.87,-849.96 2509.96,-805.61 2471,-756.29 2395.68,-660.92 2280.32,-788.31 2205,-692.94 2173.79,-653.42 2215.39,-599.19 2248.53,-565.93"/>
<polygon fill="black" stroke="black" points="2250.91,-568.49 2255.63,-559 2246.03,-563.48 2250.91,-568.49"/>
</g>
<!-- runCommand&#45;&gt;utf8decoder -->
<g id="edge75" class="edge">
<title>runCommand&#45;&gt;utf8decoder</title>
<path fill="none" stroke="black" d="M1793.57,-961.25C1796.95,-911.69 1803.92,-827.67 1816,-756.29 1818.43,-741.91 1869.55,-513.59 1877,-501.06 1891.03,-477.47 1912.67,-456.39 1932.9,-439.95"/>
<polygon fill="black" stroke="black" points="1934.88,-442.84 1940.57,-433.9 1930.55,-437.34 1934.88,-442.84"/>
</g>
<!-- runCommand&#45;&gt;variables -->
<g id="edge40" class="edge">
<title>runCommand&#45;&gt;variables</title>
<path fill="none" stroke="black" d="M1985.66,-995.56C2192.45,-983.64 2503.44,-956.4 2606,-897.71 2739.23,-821.47 2710.05,-734.19 2818,-625.06 2836.32,-606.53 2858.43,-588.24 2878.15,-573.09"/>
<polygon fill="black" stroke="black" points="2880.25,-575.89 2886.11,-567.06 2876.03,-570.31 2880.25,-575.89"/>
</g>
<!-- runCommand&#45;&gt;vartypes -->
<g id="edge31" class="edge">
<title>runCommand&#45;&gt;vartypes</title>
<path fill="none" stroke="black" d="M1977.57,-989.85C2185.08,-972.18 2496.06,-939.17 2532,-897.71 2573.17,-850.22 2561.66,-811.71 2532,-756.29 2508.06,-711.54 2460.94,-737.69 2437,-692.94 2422.77,-666.34 2424.44,-652.49 2437,-625.06 2452.89,-590.36 2484.15,-602.68 2502,-568.94 2521.74,-531.63 2525.11,-483.03 2524.39,-448.27"/>
<polygon fill="black" stroke="black" points="2527.89,-448.43 2524.05,-438.56 2520.9,-448.67 2527.89,-448.43"/>
</g>
<!-- runFunction&#45;&gt;matches -->
<g id="edge45" class="edge">
<title>runFunction&#45;&gt;matches</title>
<path fill="none" stroke="black" d="M2035.74,-761.94C1996.59,-740.84 1953.52,-716.69 1915,-692.94 1787.83,-614.53 1774.25,-564.51 1639,-501.06 1547.04,-457.92 1432.27,-430.7 1359.53,-416.41"/>
<polygon fill="black" stroke="black" points="1360.2,-412.97 1349.71,-414.51 1358.87,-419.85 1360.2,-412.97"/>
</g>
<!-- runFunction&#45;&gt;messages -->
<g id="edge41" class="edge">
<title>runFunction&#45;&gt;messages</title>
<path fill="none" stroke="black" d="M2265.54,-760.24C2296.91,-739.6 2330.93,-716.13 2361,-692.94 2396.86,-665.28 2398.83,-649.43 2437,-625.06 2490.04,-591.19 2517.76,-608.13 2567,-568.94 2683.96,-475.84 2693.29,-391.94 2661,-245.98 2650.3,-197.63 2652.63,-175.94 2614,-144.96 2568.39,-108.37 2423.95,-81.65 2314.75,-66.05"/>
<polygon fill="black" stroke="black" points="2315.52,-62.62 2305.13,-64.69 2314.54,-69.55 2315.52,-62.62"/>
</g>
<!-- runFunction&#45;&gt;opresult -->
<g id="edge64" class="edge">
<title>runFunction&#45;&gt;opresult</title>
<path fill="none" stroke="black" d="M2131.56,-755.97C2124.74,-735.95 2118.44,-713.88 2115,-692.94 2110.1,-663.17 2104.4,-653.31 2115,-625.06 2126.63,-594.06 2151.64,-599.66 2164,-568.94 2214.79,-442.77 2198.9,-275.73 2188.7,-204.53"/>
<polygon fill="black" stroke="black" points="2192.16,-204.03 2187.22,-194.66 2185.24,-205.06 2192.16,-204.03"/>
</g>
<!-- runFunction&#45;&gt;parseNumber -->
<g id="edge44" class="edge">
<title>runFunction&#45;&gt;parseNumber</title>
<path fill="none" stroke="black" d="M2304.57,-764.31C2369,-736.81 2441.27,-705.97 2490.41,-685"/>
<polygon fill="black" stroke="black" points="2491.62,-688.29 2499.45,-681.15 2488.87,-681.85 2491.62,-688.29"/>
</g>
<!-- runFunction&#45;&gt;readjson -->
<g id="edge70" class="edge">
<title>runFunction&#45;&gt;readjson</title>
<path fill="none" stroke="black" d="M2211.09,-757.04C2227.84,-734.44 2245.65,-710.4 2259.36,-691.91"/>
<polygon fill="black" stroke="black" points="2262.08,-694.11 2265.22,-683.99 2256.46,-689.94 2262.08,-694.11"/>
</g>
<!-- runFunction&#45;&gt;regexes -->
<g id="edge43" class="edge">
<title>runFunction&#45;&gt;regexes</title>
<path fill="none" stroke="black" d="M2101.26,-757.03C1998.08,-636.18 1791.51,-395.73 1753,-362.26 1729.26,-341.63 1700.2,-322.11 1675.57,-306.97"/>
<polygon fill="black" stroke="black" points="1677.69,-304.16 1667.32,-301.97 1674.06,-310.15 1677.69,-304.16"/>
</g>
<!-- runFunction&#45;&gt;replacement -->
<g id="edge63" class="edge">
<title>runFunction&#45;&gt;replacement</title>
<path fill="none" stroke="black" d="M1921.23,-783.2C1739.35,-750.59 1496.61,-707.08 1353.62,-681.44"/>
<polygon fill="black" stroke="black" points="1354.61,-678.06 1344.14,-679.75 1353.37,-684.95 1354.61,-678.06"/>
</g>
<!-- signatures -->
<g id="node22" class="node">
<title>signatures</title>
<g id="a_node22"><a xlink:href="signatures.md" xlink:title="signatures.md">
<ellipse fill="palegoldenrod" stroke="black" cx="2075" cy="-535" rx="79.81" ry="24.08"/>
<text text-anchor="middle" x="2075" y="-528.8" font-family="Times,serif" font-size="24.00">signatures</text>
</a>
</g>
</g>
<!-- runFunction&#45;&gt;signatures -->
<g id="edge53" class="edge">
<title>runFunction&#45;&gt;signatures</title>
<path fill="none" stroke="black" d="M2094.11,-757.53C2079.37,-738.12 2065.81,-715.96 2058,-692.94 2044.18,-652.2 2053.7,-602.4 2063.14,-569.98"/>
<polygon fill="black" stroke="black" points="2066.39,-571.32 2065.99,-560.73 2059.7,-569.26 2066.39,-571.32"/>
</g>
<!-- runFunction&#45;&gt;unicodes -->
<g id="edge50" class="edge">
<title>runFunction&#45;&gt;unicodes</title>
<path fill="none" stroke="black" d="M2130.81,-756.34C2118.5,-715.67 2111.58,-664.71 2134,-625.06 2144.91,-605.77 2192.55,-579.07 2230.87,-559.94"/>
<polygon fill="black" stroke="black" points="2232.11,-563.24 2239.53,-555.68 2229.02,-556.96 2232.11,-563.24"/>
</g>
<!-- runFunction&#45;&gt;vartypes -->
<g id="edge42" class="edge">
<title>runFunction&#45;&gt;vartypes</title>
<path fill="none" stroke="black" d="M2159.41,-755.6C2162.68,-713.13 2173.63,-660.55 2205,-625.06 2254.08,-569.54 2299.75,-609.15 2362,-568.94 2413.74,-535.52 2461.07,-482.17 2490.39,-445.23"/>
<polygon fill="black" stroke="black" points="2493.11,-447.44 2496.52,-437.41 2487.6,-443.13 2493.11,-447.44"/>
</g>
<!-- runner -->
<g id="node21" class="node">
<title>runner</title>
<g id="a_node21"><a xlink:href="runner.md" xlink:title="runner.md">
<polygon fill="palegreen" stroke="black" points="1338.37,-1471.69 1338.37,-1502.31 1288.95,-1523.95 1219.05,-1523.95 1169.63,-1502.31 1169.63,-1471.69 1219.05,-1450.05 1288.95,-1450.05 1338.37,-1471.69"/>
<polygon fill="none" stroke="black" points="1342.38,-1469.06 1342.38,-1504.94 1289.78,-1527.98 1218.22,-1527.98 1165.62,-1504.94 1165.62,-1469.06 1218.22,-1446.02 1289.78,-1446.02 1342.38,-1469.06"/>
<text text-anchor="middle" x="1254" y="-1478.2" font-family="Times,serif" font-size="36.00">runner</text>
</a>
</g>
</g>
<!-- signatures&#45;&gt;messages -->
<g id="edge52" class="edge">
<title>signatures&#45;&gt;messages</title>
<path fill="none" stroke="black" d="M2082.47,-510.52C2087.85,-492.47 2094.72,-466.79 2098,-443.74 2116.74,-312.2 2062.32,-269.72 2108,-144.96 2113.98,-128.61 2123.95,-112.9 2134.69,-99.13"/>
<polygon fill="black" stroke="black" points="2137.27,-101.5 2140.88,-91.54 2131.85,-97.08 2137.27,-101.5"/>
</g>
<!-- signatures&#45;&gt;vartypes -->
<g id="edge51" class="edge">
<title>signatures&#45;&gt;vartypes</title>
<path fill="none" stroke="black" d="M2131.49,-517.54C2208.44,-495.1 2346.86,-454.76 2436.28,-428.69"/>
<polygon fill="black" stroke="black" points="2437.13,-432.09 2445.75,-425.93 2435.17,-425.37 2437.13,-432.09"/>
</g>
<!-- startingvars&#45;&gt;args -->
<g id="edge81" class="edge">
<title>startingvars&#45;&gt;args</title>
<path fill="none" stroke="black" d="M2561.45,-1225.75C2261.24,-1220.26 1302.57,-1191.64 1035,-1048.13 741.96,-890.96 701.35,-758.46 594,-443.74 579.04,-399.89 576.11,-346.08 576.04,-311.67"/>
<polygon fill="black" stroke="black" points="579.54,-311.89 576.11,-301.87 572.54,-311.84 579.54,-311.89"/>
</g>
<!-- startingvars&#45;&gt;codefile -->
<g id="edge96" class="edge">
<title>startingvars&#45;&gt;codefile</title>
<path fill="none" stroke="black" d="M2636.69,-1204.27C2628.03,-1191.41 2617.06,-1175.11 2607.54,-1160.98"/>
<polygon fill="black" stroke="black" points="2610.56,-1159.2 2602.07,-1152.86 2604.75,-1163.11 2610.56,-1159.2"/>
</g>
<!-- startingvars&#45;&gt;env -->
<g id="edge83" class="edge">
<title>startingvars&#45;&gt;env</title>
<path fill="none" stroke="black" d="M2565.1,-1220.73C2295.52,-1200.58 1476.44,-1133.69 1225,-1048.13 1100.07,-1005.62 1061.09,-992.24 969,-897.71 919.9,-847.31 828.66,-661.86 788.65,-577.85"/>
<polygon fill="black" stroke="black" points="791.91,-576.54 784.46,-569.01 785.59,-579.55 791.91,-576.54"/>
</g>
<!-- startingvars&#45;&gt;messages -->
<g id="edge82" class="edge">
<title>startingvars&#45;&gt;messages</title>
<path fill="none" stroke="black" d="M2740.26,-1222.06C2803.55,-1214.64 2888.07,-1196.42 2949,-1152.04 3229.73,-947.57 3175,-751.3 3175,-404 3175,-404 3175,-404 3175,-275 3175,-100.69 2585.08,-61.42 2315.08,-52.57"/>
<polygon fill="black" stroke="black" points="2315.27,-49.07 2305.16,-52.26 2315.04,-56.07 2315.27,-49.07"/>
</g>
<!-- startingvars&#45;&gt;opresult -->
<g id="edge87" class="edge">
<title>startingvars&#45;&gt;opresult</title>
<path fill="none" stroke="black" d="M2741.37,-1223.39C2798.96,-1216.4 2871.49,-1198.15 2918,-1152.04 3022.57,-1048.35 3126.16,-621.91 3042,-501.06 3000.03,-440.78 2952.04,-477.87 2887,-443.74 2831.21,-414.46 2826,-392.99 2771,-362.26 2656.94,-298.54 2625,-287.15 2501,-245.98 2417.1,-218.12 2317.59,-196.04 2252.52,-183.01"/>
<polygon fill="black" stroke="black" points="2253.55,-179.65 2243.06,-181.14 2252.19,-186.52 2253.55,-179.65"/>
</g>
<!-- startingvars&#45;&gt;readjson -->
<g id="edge86" class="edge">
<title>startingvars&#45;&gt;readjson</title>
<path fill="none" stroke="black" d="M2663.19,-1203.65C2669.51,-1189.16 2676.76,-1169.95 2680,-1152.04 2683.8,-1131.01 2684.27,-1124.9 2680,-1103.96 2646.43,-939.41 2652.72,-873.04 2532,-756.29 2483.84,-709.72 2410.69,-685.04 2356.11,-672.38"/>
<polygon fill="black" stroke="black" points="2357.11,-669.02 2346.59,-670.26 2355.59,-675.85 2357.11,-669.02"/>
</g>
<!-- startingvars&#45;&gt;runFunction -->
<g id="edge97" class="edge">
<title>startingvars&#45;&gt;runFunction</title>
<path fill="none" stroke="black" d="M2661.1,-1203.89C2669.82,-1177.73 2679.2,-1134.75 2661,-1103.96 2597.14,-995.88 2474.18,-927.25 2366.07,-885.46"/>
<polygon fill="black" stroke="black" points="2367.32,-882.2 2356.73,-881.92 2364.84,-888.74 2367.32,-882.2"/>
</g>
<!-- startingvars&#45;&gt;variables -->
<g id="edge84" class="edge">
<title>startingvars&#45;&gt;variables</title>
<path fill="none" stroke="black" d="M2734.38,-1217.66C2783.07,-1208.29 2843.01,-1189.54 2884,-1152.04 2936.03,-1104.45 2946,-1076.51 2946,-1006 2946,-1006 2946,-1006 2946,-826 2946,-738.91 2938.72,-637.33 2933.98,-580.46"/>
<polygon fill="black" stroke="black" points="2937.47,-580.2 2933.14,-570.53 2930.49,-580.79 2937.47,-580.2"/>
</g>
<!-- startingvars&#45;&gt;vartypes -->
<g id="edge85" class="edge">
<title>startingvars&#45;&gt;vartypes</title>
<path fill="none" stroke="black" d="M2696.64,-1206.6C2760.42,-1174.02 2870,-1103.82 2870,-1006 2870,-1006 2870,-1006 2870,-826 2870,-732.54 2845.22,-710.79 2808,-625.06 2795.35,-595.93 2760.52,-522.39 2737,-501.06 2725.44,-490.57 2651.56,-458.37 2593.39,-433.9"/>
<polygon fill="black" stroke="black" points="2595.07,-430.81 2584.49,-430.17 2592.36,-437.27 2595.07,-430.81"/>
</g>
<!-- statictea -->
<g id="node24" class="node">
<title>statictea</title>
<g id="a_node24"><a xlink:href="statictea.md" xlink:title="statictea.md">
<polygon fill="palegoldenrod" stroke="black" points="729,-1548 556,-1487 729,-1426 902,-1487 729,-1548"/>
<text text-anchor="middle" x="729" y="-1475.1" font-family="Times,serif" font-size="48.00">statictea</text>
</a>
</g>
</g>
<!-- statictea&#45;&gt;args -->
<g id="edge114" class="edge">
<title>statictea&#45;&gt;args</title>
<path fill="none" stroke="black" d="M622.6,-1463.14C562.84,-1445.48 490.72,-1415.44 442,-1366.02 395.93,-1319.29 387,-1294.62 387,-1229 387,-1229 387,-1229 387,-826 387,-617.56 347.8,-539.81 457,-362.26 475.34,-332.44 508.42,-310.12 535.21,-295.81"/>
<polygon fill="black" stroke="black" points="536.48,-299.09 543.78,-291.41 533.28,-292.87 536.48,-299.09"/>
</g>
<!-- statictea&#45;&gt;env -->
<g id="edge118" class="edge">
<title>statictea&#45;&gt;env</title>
<path fill="none" stroke="black" d="M643.51,-1455.92C553.59,-1418.17 425,-1344.07 425,-1229 425,-1229 425,-1229 425,-826 425,-676.51 617.24,-588.46 714.3,-553.53"/>
<polygon fill="black" stroke="black" points="715.39,-556.86 723.66,-550.23 713.06,-550.26 715.39,-556.86"/>
</g>
<!-- statictea&#45;&gt;gethelp -->
<g id="edge116" class="edge">
<title>statictea&#45;&gt;gethelp</title>
<path fill="none" stroke="black" d="M641.19,-1456.51C569.11,-1432.29 464.41,-1397.03 373,-1366.02 366.85,-1363.94 360.45,-1361.76 354.05,-1359.58"/>
<polygon fill="black" stroke="black" points="355.34,-1356.32 344.75,-1356.41 353.08,-1362.95 355.34,-1356.32"/>
</g>
<!-- statictea&#45;&gt;messages -->
<g id="edge115" class="edge">
<title>statictea&#45;&gt;messages</title>
<path fill="none" stroke="black" d="M606.57,-1468.66C398.93,-1435.78 0,-1356.07 0,-1229 0,-1229 0,-1229 0,-275 0,-159.88 113.6,-177.57 224,-144.96 398,-93.56 1640.09,-61.93 2051.22,-52.77"/>
<polygon fill="black" stroke="black" points="2051.12,-56.28 2061.04,-52.56 2050.96,-49.28 2051.12,-56.28"/>
</g>
<!-- statictea&#45;&gt;opresult -->
<g id="edge119" class="edge">
<title>statictea&#45;&gt;opresult</title>
<path fill="none" stroke="black" d="M729,-1425.51C729,-1373.43 729,-1296.26 729,-1229 729,-1229 729,-1229 729,-1004 729,-901.67 1160.05,-290.87 1252,-245.98 1401.4,-173.03 1908.72,-168.2 2104.77,-169.16"/>
<polygon fill="black" stroke="black" points="2104.58,-172.66 2114.6,-169.22 2104.62,-165.66 2104.58,-172.66"/>
</g>
<!-- statictea&#45;&gt;parseCommandLine -->
<g id="edge10" class="edge">
<title>statictea&#45;&gt;parseCommandLine</title>
<path fill="none" stroke="black" d="M597.26,-1471.99C461.1,-1454.76 261.12,-1420.86 208,-1366.02 164.81,-1321.44 181,-1291.07 181,-1229 181,-1229 181,-1229 181,-826 181,-733.78 178.95,-625.08 177.79,-570.68"/>
<polygon fill="black" stroke="black" points="181.29,-570.74 177.57,-560.82 174.29,-570.89 181.29,-570.74"/>
</g>
<!-- statictea&#45;&gt;processTemplate -->
<g id="edge100" class="edge">
<title>statictea&#45;&gt;processTemplate</title>
<path fill="none" stroke="black" d="M814.6,-1455.96C844.87,-1445.83 879.27,-1434.85 911,-1426 1009.87,-1398.43 1124.61,-1372.89 1203.53,-1356.31"/>
<polygon fill="black" stroke="black" points="1203.87,-1359.82 1212.94,-1354.34 1202.43,-1352.97 1203.87,-1359.82"/>
</g>
<!-- statictea&#45;&gt;repl -->
<g id="edge130" class="edge">
<title>statictea&#45;&gt;repl</title>
<path fill="none" stroke="black" d="M811.28,-1454.49C842.13,-1443.84 877.78,-1432.91 911,-1426 1195.47,-1366.81 1273.16,-1397.62 1562,-1366.02 1624.43,-1359.19 1696.25,-1349.85 1742.56,-1343.63"/>
<polygon fill="black" stroke="black" points="1742.82,-1347.12 1752.26,-1342.32 1741.88,-1340.19 1742.82,-1347.12"/>
</g>
<!-- timer -->
<g id="node26" class="node">
<title>timer</title>
<g id="a_node26"><a xlink:href="timer.md" xlink:title="timer.md">
<polygon fill="palegreen" stroke="black" points="1549.09,-1325.21 1549.09,-1346.79 1518.58,-1362.04 1475.42,-1362.04 1444.91,-1346.79 1444.91,-1325.21 1475.42,-1309.96 1518.58,-1309.96 1549.09,-1325.21"/>
<polygon fill="none" stroke="black" points="1553.09,-1322.74 1553.09,-1349.26 1519.52,-1366.04 1474.48,-1366.04 1440.91,-1349.26 1440.91,-1322.74 1474.48,-1305.96 1519.52,-1305.96 1553.09,-1322.74"/>
<text text-anchor="middle" x="1497" y="-1329.8" font-family="Times,serif" font-size="24.00">timer</text>
</a>
</g>
</g>
<!-- statictea&#45;&gt;timer -->
<g id="edge131" class="edge">
<title>statictea&#45;&gt;timer</title>
<path fill="none" stroke="black" d="M811.82,-1454.74C842.58,-1444.19 878.02,-1433.26 911,-1426 1138.64,-1375.92 1207.19,-1427.58 1432,-1366.02 1436.56,-1364.77 1441.21,-1363.25 1445.82,-1361.56"/>
<polygon fill="black" stroke="black" points="1447.01,-1364.85 1455.03,-1357.93 1444.44,-1358.34 1447.01,-1364.85"/>
</g>
<!-- updateTemplate -->
<g id="node28" class="node">
<title>updateTemplate</title>
<g id="a_node28"><a xlink:href="updateTemplate.md" xlink:title="updateTemplate.md">
<ellipse fill="palegoldenrod" stroke="black" cx="879" cy="-1336" rx="119.5" ry="24.08"/>
<text text-anchor="middle" x="879" y="-1329.8" font-family="Times,serif" font-size="24.00">updateTemplate</text>
</a>
</g>
</g>
<!-- statictea&#45;&gt;updateTemplate -->
<g id="edge113" class="edge">
<title>statictea&#45;&gt;updateTemplate</title>
<path fill="none" stroke="black" d="M773.6,-1441.7C797.54,-1417.92 826.45,-1389.2 847.94,-1367.86"/>
<polygon fill="black" stroke="black" points="850.37,-1370.38 855,-1360.84 845.43,-1365.41 850.37,-1370.38"/>
</g>
<!-- version -->
<g id="node32" class="node">
<title>version</title>
<g id="a_node32"><a xlink:href="version.md" xlink:title="version.md">
<polygon fill="palegreen" stroke="black" points="3142.67,-392.21 3142.67,-413.79 3103.62,-429.04 3048.38,-429.04 3009.33,-413.79 3009.33,-392.21 3048.38,-376.96 3103.62,-376.96 3142.67,-392.21"/>
<polygon fill="none" stroke="black" points="3146.67,-389.48 3146.67,-416.52 3104.37,-433.04 3047.63,-433.04 3005.33,-416.52 3005.33,-389.48 3047.63,-372.96 3104.37,-372.96 3146.67,-389.48"/>
<text text-anchor="middle" x="3076" y="-396.8" font-family="Times,serif" font-size="24.00">version</text>
</a>
</g>
</g>
<!-- statictea&#45;&gt;version -->
<g id="edge117" class="edge">
<title>statictea&#45;&gt;version</title>
<path fill="none" stroke="black" d="M810.27,-1454.31C841.33,-1443.51 877.36,-1432.52 911,-1426 1179.43,-1373.95 3364,-1502.43 3364,-1229 3364,-1229 3364,-1229 3364,-1127 3364,-843.82 3409.23,-731.75 3245,-501.06 3220.18,-466.19 3178.61,-442.08 3142.92,-426.61"/>
<polygon fill="black" stroke="black" points="3144.52,-423.48 3133.94,-422.86 3141.82,-429.94 3144.52,-423.48"/>
</g>
<!-- unicodes&#45;&gt;messages -->
<g id="edge47" class="edge">
<title>unicodes&#45;&gt;messages</title>
<path fill="none" stroke="black" d="M2285.25,-510.63C2292.91,-448.57 2307.89,-275.49 2258,-144.96 2251.72,-128.54 2241.54,-112.71 2230.67,-98.84"/>
<polygon fill="black" stroke="black" points="2233.46,-96.72 2224.42,-91.19 2228.04,-101.15 2233.46,-96.72"/>
</g>
<!-- unicodes&#45;&gt;opresult -->
<g id="edge46" class="edge">
<title>unicodes&#45;&gt;opresult</title>
<path fill="none" stroke="black" d="M2275.66,-510.68C2258.68,-448.27 2212.17,-277.25 2192.25,-204.01"/>
<polygon fill="black" stroke="black" points="2195.69,-203.32 2189.69,-194.59 2188.94,-205.16 2195.69,-203.32"/>
</g>
<!-- unicodes&#45;&gt;utf8decoder -->
<g id="edge48" class="edge">
<title>unicodes&#45;&gt;utf8decoder</title>
<path fill="none" stroke="black" d="M2239.45,-515.37C2190.83,-494.09 2110.59,-458.97 2053.21,-433.86"/>
<polygon fill="black" stroke="black" points="2054.73,-430.7 2044.16,-429.9 2051.92,-437.11 2054.73,-430.7"/>
</g>
<!-- unicodes&#45;&gt;vartypes -->
<g id="edge49" class="edge">
<title>unicodes&#45;&gt;vartypes</title>
<path fill="none" stroke="black" d="M2318.82,-513.97C2356.31,-493.58 2415.11,-461.6 2459.65,-437.37"/>
<polygon fill="black" stroke="black" points="2461.05,-440.59 2468.16,-432.74 2457.71,-434.44 2461.05,-440.59"/>
</g>
<!-- updateTemplate&#45;&gt;args -->
<g id="edge101" class="edge">
<title>updateTemplate&#45;&gt;args</title>
<path fill="none" stroke="black" d="M813.74,-1315.51C779.32,-1302.37 738.61,-1281.89 711,-1252.04 529.2,-1055.55 537.7,-955.79 487,-692.94 459.17,-548.63 428.93,-497.27 487,-362.26 497.94,-336.83 520.61,-315.43 540.46,-300.43"/>
<polygon fill="black" stroke="black" points="542.35,-303.38 548.39,-294.68 538.24,-297.71 542.35,-303.38"/>
</g>
<!-- updateTemplate&#45;&gt;env -->
<g id="edge103" class="edge">
<title>updateTemplate&#45;&gt;env</title>
<path fill="none" stroke="black" d="M836.81,-1313.01C781.38,-1280.74 691,-1214.94 691,-1129 691,-1129 691,-1129 691,-826 691,-736.06 685.69,-710.09 715,-625.06 721.04,-607.53 730.91,-589.76 740.56,-574.74"/>
<polygon fill="black" stroke="black" points="743.38,-576.83 746,-566.57 737.55,-572.96 743.38,-576.83"/>
</g>
<!-- updateTemplate&#45;&gt;linebuffer -->
<g id="edge105" class="edge">
<title>updateTemplate&#45;&gt;linebuffer</title>
<path fill="none" stroke="black" d="M862.6,-1311.81C851.59,-1295.58 837.29,-1273.12 827,-1252.04 712.02,-1016.44 679.55,-951.95 639,-692.94 625.81,-608.69 600.64,-577.22 639,-501.06 653.51,-472.25 681.05,-449.86 707.16,-433.88"/>
<polygon fill="black" stroke="black" points="708.9,-436.92 715.75,-428.84 705.36,-430.88 708.9,-436.92"/>
</g>
<!-- updateTemplate&#45;&gt;matches -->
<g id="edge104" class="edge">
<title>updateTemplate&#45;&gt;matches</title>
<path fill="none" stroke="black" d="M878.39,-1311.62C878.09,-1285.28 878.76,-1241.25 885,-1203.96 929.23,-939.48 953.7,-873.34 1055,-625.06 1078.58,-567.25 1077.69,-546.02 1121,-501.06 1152.76,-468.09 1198.14,-442.68 1233.58,-426.14"/>
<polygon fill="black" stroke="black" points="1234.74,-429.46 1242.39,-422.14 1231.84,-423.09 1234.74,-429.46"/>
</g>
<!-- updateTemplate&#45;&gt;messages -->
<g id="edge102" class="edge">
<title>updateTemplate&#45;&gt;messages</title>
<path fill="none" stroke="black" d="M802.79,-1317.03C759.51,-1304.1 706.13,-1283.34 666,-1252.04 623.02,-1218.52 624.27,-1198.02 595,-1152.04 407.42,-857.39 354,-753.29 354,-404 354,-404 354,-404 354,-275 354,-152.51 479.13,-178.29 597,-144.96 868.91,-68.07 1721.45,-53.43 2051.07,-50.65"/>
<polygon fill="black" stroke="black" points="2051.09,-54.15 2061.06,-50.57 2051.03,-47.15 2051.09,-54.15"/>
</g>
<!-- updateTemplate&#45;&gt;opresult -->
<g id="edge112" class="edge">
<title>updateTemplate&#45;&gt;opresult</title>
<path fill="none" stroke="black" d="M891.91,-1311.8C938.36,-1229.59 1104.25,-946.89 1292,-756.29 1325.31,-722.47 1356.59,-735.31 1378,-692.94 1391.61,-666.01 1393.85,-650.73 1378,-625.06 1348.75,-577.69 1304.23,-609.42 1266,-568.94 1200.82,-499.91 1158.76,-440.87 1212,-362.26 1214.44,-358.66 1498.78,-247.04 1503,-245.98 1716.91,-192.33 1978.18,-176.54 2105.62,-171.91"/>
<polygon fill="black" stroke="black" points="2105.41,-175.42 2115.28,-171.57 2105.16,-168.42 2105.41,-175.42"/>
</g>
<!-- updateTemplate&#45;&gt;parseCmdLine -->
<g id="edge106" class="edge">
<title>updateTemplate&#45;&gt;parseCmdLine</title>
<path fill="none" stroke="black" d="M916.67,-1312.92C967.71,-1281.72 1059.72,-1220.81 1123,-1152.04 1163.77,-1107.73 1394.35,-750.81 1411,-692.94 1422.74,-652.13 1419.45,-602.84 1415.07,-570.52"/>
<polygon fill="black" stroke="black" points="1418.58,-570.31 1413.65,-560.93 1411.65,-571.33 1418.58,-570.31"/>
</g>
<!-- updateTemplate&#45;&gt;replacement -->
<g id="edge110" class="edge">
<title>updateTemplate&#45;&gt;replacement</title>
<path fill="none" stroke="black" d="M880.7,-1311.59C883.23,-1284.82 889.25,-1240.05 903,-1203.96 980.25,-1001.12 1133.71,-789.44 1201.04,-701.8"/>
<polygon fill="black" stroke="black" points="1203.78,-703.98 1207.12,-693.92 1198.24,-699.7 1203.78,-703.98"/>
</g>
<!-- updateTemplate&#45;&gt;runCommand -->
<g id="edge107" class="edge">
<title>updateTemplate&#45;&gt;runCommand</title>
<path fill="none" stroke="black" d="M936.05,-1314.42C1084.14,-1261 1482.9,-1117.15 1679,-1046.4"/>
<polygon fill="black" stroke="black" points="1679.98,-1049.77 1688.2,-1043.09 1677.6,-1043.19 1679.98,-1049.77"/>
</g>
<!-- updateTemplate&#45;&gt;startingvars -->
<g id="edge111" class="edge">
<title>updateTemplate&#45;&gt;startingvars</title>
<path fill="none" stroke="black" d="M981.84,-1323.37C1036.48,-1317.5 1104.83,-1310.65 1166,-1305.98 1686.17,-1266.23 2310.37,-1241.29 2550.79,-1232.53"/>
<polygon fill="black" stroke="black" points="2550.91,-1236.03 2560.77,-1232.17 2550.65,-1229.03 2550.91,-1236.03"/>
</g>
<!-- updateTemplate&#45;&gt;variables -->
<g id="edge108" class="edge">
<title>updateTemplate&#45;&gt;variables</title>
<path fill="none" stroke="black" d="M980.8,-1323.03C1035.61,-1317.02 1104.42,-1310.13 1166,-1305.98 1517.85,-1282.23 2411.28,-1342.98 2752,-1252.04 2864.77,-1221.94 2984,-1245.71 2984,-1129 2984,-1129 2984,-1129 2984,-826 2984,-737.6 2959.45,-636.57 2943.46,-580.13"/>
<polygon fill="black" stroke="black" points="2946.84,-579.21 2940.7,-570.57 2940.11,-581.15 2946.84,-579.21"/>
</g>
<!-- updateTemplate&#45;&gt;vartypes -->
<g id="edge109" class="edge">
<title>updateTemplate&#45;&gt;vartypes</title>
<path fill="none" stroke="black" d="M984.35,-1324.29C1366.7,-1285.39 2659.03,-1153.81 2661,-1152.04 2836.37,-995.08 2765.17,-854.56 2713,-625.06 2699.6,-566.09 2695.38,-547.79 2657,-501.06 2636.51,-476.11 2608.14,-454.51 2582.6,-438.07"/>
<polygon fill="black" stroke="black" points="2584.59,-435.18 2574.26,-432.82 2580.87,-441.11 2584.59,-435.18"/>
</g>
<!-- variables&#45;&gt;args -->
<g id="edge38" class="edge">
<title>variables&#45;&gt;args</title>
<path fill="none" stroke="black" d="M2869.95,-507.02C2833.68,-490.08 2786.9,-467.08 2747,-443.74 2691.67,-411.37 2688.82,-382.48 2628,-362.26 2579.06,-345.99 941.1,-289.41 628.32,-278.74"/>
<polygon fill="black" stroke="black" points="628.55,-275.25 618.43,-278.41 628.31,-282.24 628.55,-275.25"/>
</g>
<!-- variables&#45;&gt;messages -->
<g id="edge37" class="edge">
<title>variables&#45;&gt;messages</title>
<path fill="none" stroke="black" d="M2924.05,-500.95C2908.46,-424.62 2858.86,-235.69 2737,-144.96 2671.84,-96.44 2457.12,-70.87 2314.92,-58.92"/>
<polygon fill="black" stroke="black" points="2315.3,-55.44 2305.04,-58.1 2314.72,-62.41 2315.3,-55.44"/>
</g>
<!-- variables&#45;&gt;opresult -->
<g id="edge39" class="edge">
<title>variables&#45;&gt;opresult</title>
<path fill="none" stroke="black" d="M2891.77,-503.33C2837.42,-460.08 2740.08,-384.01 2701,-362.26 2640.97,-328.85 2620.55,-332.15 2557,-306.02 2494.76,-280.43 2480.98,-269.7 2418,-245.98 2359.93,-224.1 2292.41,-202.68 2244.68,-188.19"/>
<polygon fill="black" stroke="black" points="2245.94,-184.91 2235.35,-185.37 2243.91,-191.61 2245.94,-184.91"/>
</g>
<!-- variables&#45;&gt;vartypes -->
<g id="edge35" class="edge">
<title>variables&#45;&gt;vartypes</title>
<path fill="none" stroke="black" d="M2856.88,-510.76C2785.48,-488.07 2677.04,-453.6 2602.81,-430"/>
<polygon fill="black" stroke="black" points="2604.15,-426.76 2593.56,-427.06 2602.03,-433.43 2604.15,-426.76"/>
</g>
<!-- variables&#45;&gt;version -->
<g id="edge36" class="edge">
<title>variables&#45;&gt;version</title>
<path fill="none" stroke="black" d="M2964.97,-502.86C2986.27,-483.9 3013.56,-459.59 3035.76,-439.83"/>
<polygon fill="black" stroke="black" points="3038.03,-442.49 3043.17,-433.23 3033.38,-437.27 3038.03,-442.49"/>
</g>
<!-- vartypes&#45;&gt;messages -->
<g id="edge29" class="edge">
<title>vartypes&#45;&gt;messages</title>
<path fill="none" stroke="black" d="M2520.67,-368.99C2518.36,-315.12 2506.06,-207.99 2447,-144.96 2411.93,-107.53 2361.05,-84.83 2313.29,-71.07"/>
<polygon fill="black" stroke="black" points="2314.23,-67.7 2303.66,-68.42 2312.37,-74.45 2314.23,-67.7"/>
</g>
<!-- vartypes&#45;&gt;opresult -->
<g id="edge30" class="edge">
<title>vartypes&#45;&gt;opresult</title>
<path fill="none" stroke="black" d="M2496.83,-369.72C2469.54,-335.15 2422.2,-280.6 2371,-245.98 2332.48,-219.93 2283.66,-200.54 2245.43,-187.86"/>
<polygon fill="black" stroke="black" points="2246.98,-184.69 2236.38,-184.93 2244.82,-191.34 2246.98,-184.69"/>
</g>
<!-- warnings -->
<g id="node33" class="node">
<title>warnings</title>
<g id="a_node33"><a xlink:href="warnings.md" xlink:title="warnings.md">
<polygon fill="palegreen" stroke="black" points="1523.69,-1476.21 1523.69,-1497.79 1477.01,-1513.04 1410.99,-1513.04 1364.31,-1497.79 1364.31,-1476.21 1410.99,-1460.96 1477.01,-1460.96 1523.69,-1476.21"/>
<polygon fill="none" stroke="black" points="1527.7,-1473.31 1527.7,-1500.69 1477.65,-1517.04 1410.35,-1517.04 1360.3,-1500.69 1360.3,-1473.31 1410.35,-1456.96 1477.65,-1456.96 1527.7,-1473.31"/>
<text text-anchor="middle" x="1444" y="-1480.8" font-family="Times,serif" font-size="24.00">warnings</text>
</a>
</g>
</g>
</g>
</svg>
