<?xml version="1.0" encoding="UTF-8" standalone="no"?>
<!DOCTYPE svg PUBLIC "-//W3C//DTD SVG 1.1//EN"
 "http://www.w3.org/Graphics/SVG/1.1/DTD/svg11.dtd">
<!-- Generated by graphviz version 2.40.1 (20161225.0304)
 -->
<!-- Title: statictea Pages: 1 -->
<svg width="635pt" height="1270pt"
 viewBox="0.00 0.00 634.97 1269.63" xmlns="http://www.w3.org/2000/svg" xmlns:xlink="http://www.w3.org/1999/xlink">
<g id="graph0" class="graph" transform="scale(1 1) rotate(0) translate(4 1265.6274)">
<title>statictea</title>
<polygon fill="#ffffff" stroke="transparent" points="-4,4 -4,-1265.6274 630.9693,-1265.6274 630.9693,4 -4,4"/>
<!-- strutils -->
<g id="node1" class="node">
<title>strutils</title>
<ellipse fill="none" stroke="#000000" cx="87.6672" cy="-774" rx="57.5374" ry="22.7556"/>
<text text-anchor="middle" x="87.6672" y="-766.8" font-family="Times,serif" font-size="24.00" fill="#000000">strutils</text>
</g>
<!-- statictea -->
<g id="node2" class="node">
<title>statictea</title>
<ellipse fill="none" stroke="#000000" cx="545.1518" cy="-1098" rx="39.154" ry="18"/>
<text text-anchor="middle" x="545.1518" y="-1093.8" font-family="Times,serif" font-size="14.00" fill="#000000">statictea</text>
</g>
<!-- strutils&#45;&gt;statictea -->
<g id="edge1" class="edge">
<title>strutils&#45;&gt;statictea</title>
<path fill="none" stroke="#000000" d="M108.9842,-795.4377C163.378,-849.0492 313.6284,-990.404 463.3343,-1071 474.9738,-1077.2662 488.3275,-1082.4238 500.8247,-1086.4913"/>
<polygon fill="#000000" stroke="#000000" points="500.0268,-1089.9081 510.6145,-1089.52 502.0957,-1083.2208 500.0268,-1089.9081"/>
</g>
<!-- args -->
<g id="node7" class="node">
<title>args</title>
<ellipse fill="none" stroke="#000000" cx="545.1518" cy="-828" rx="27" ry="18"/>
<text text-anchor="middle" x="545.1518" y="-823.8" font-family="Times,serif" font-size="14.00" fill="#000000">args</text>
</g>
<!-- strutils&#45;&gt;args -->
<g id="edge5" class="edge">
<title>strutils&#45;&gt;args</title>
<path fill="none" stroke="#000000" d="M142.8505,-780.5137C237.465,-791.6817 428.186,-814.1937 508.3429,-823.6552"/>
<polygon fill="#000000" stroke="#000000" points="508.1109,-827.152 518.4523,-824.8485 508.9315,-820.2003 508.1109,-827.152"/>
</g>
<!-- warnings -->
<g id="node8" class="node">
<title>warnings</title>
<ellipse fill="none" stroke="#000000" cx="545.1518" cy="-936" rx="42.5542" ry="18"/>
<text text-anchor="middle" x="545.1518" y="-931.8" font-family="Times,serif" font-size="14.00" fill="#000000">warnings</text>
</g>
<!-- strutils&#45;&gt;warnings -->
<g id="edge6" class="edge">
<title>strutils&#45;&gt;warnings</title>
<path fill="none" stroke="#000000" d="M129.7934,-789.5463C199.1433,-815.0473 341.7913,-867.1144 463.3343,-909 475.7205,-913.2685 489.2083,-917.7766 501.5942,-921.8609"/>
<polygon fill="#000000" stroke="#000000" points="500.6561,-925.2367 511.249,-925.0328 502.841,-918.5864 500.6561,-925.2367"/>
</g>
<!-- cmdline -->
<g id="node11" class="node">
<title>cmdline</title>
<ellipse fill="none" stroke="#000000" cx="545.1518" cy="-990" rx="38.6869" ry="18"/>
<text text-anchor="middle" x="545.1518" y="-985.8" font-family="Times,serif" font-size="14.00" fill="#000000">cmdline</text>
</g>
<!-- strutils&#45;&gt;cmdline -->
<g id="edge12" class="edge">
<title>strutils&#45;&gt;cmdline</title>
<path fill="none" stroke="#000000" d="M120.5673,-792.6341C184.9702,-828.6387 332.8017,-908.9713 463.3343,-963 475.7665,-968.1458 489.5637,-973.009 502.2316,-977.1528"/>
<polygon fill="#000000" stroke="#000000" points="501.5102,-980.5968 512.1013,-980.3135 503.6452,-973.9303 501.5102,-980.5968"/>
</g>
<!-- processTemplate -->
<g id="node13" class="node">
<title>processTemplate</title>
<ellipse fill="none" stroke="#000000" cx="545.1518" cy="-450" rx="69.306" ry="18"/>
<text text-anchor="middle" x="545.1518" y="-445.8" font-family="Times,serif" font-size="14.00" fill="#000000">processTemplate</text>
</g>
<!-- strutils&#45;&gt;processTemplate -->
<g id="edge17" class="edge">
<title>strutils&#45;&gt;processTemplate</title>
<path fill="none" stroke="#000000" d="M108.9842,-752.5623C163.378,-698.9508 313.6284,-557.596 463.3343,-477 470.718,-473.0249 478.7916,-469.4959 486.8988,-466.4084"/>
<polygon fill="#000000" stroke="#000000" points="488.1715,-469.6702 496.392,-462.9864 485.7976,-463.0849 488.1715,-469.6702"/>
</g>
<!-- env -->
<g id="node14" class="node">
<title>env</title>
<ellipse fill="none" stroke="#000000" cx="545.1518" cy="-882" rx="27" ry="18"/>
<text text-anchor="middle" x="545.1518" y="-877.8" font-family="Times,serif" font-size="14.00" fill="#000000">env</text>
</g>
<!-- strutils&#45;&gt;env -->
<g id="edge22" class="edge">
<title>strutils&#45;&gt;env</title>
<path fill="none" stroke="#000000" d="M137.0607,-785.6605C229.8197,-807.5585 428.0274,-854.35 509.2789,-873.5314"/>
<polygon fill="#000000" stroke="#000000" points="508.9589,-877.052 519.4956,-875.9433 510.5673,-870.2392 508.9589,-877.052"/>
</g>
<!-- tempFile -->
<g id="node16" class="node">
<title>tempFile</title>
<ellipse fill="none" stroke="#000000" cx="545.1518" cy="-1044" rx="41.5938" ry="18"/>
<text text-anchor="middle" x="545.1518" y="-1039.8" font-family="Times,serif" font-size="14.00" fill="#000000">tempFile</text>
</g>
<!-- strutils&#45;&gt;tempFile -->
<g id="edge25" class="edge">
<title>strutils&#45;&gt;tempFile</title>
<path fill="none" stroke="#000000" d="M114.0611,-794.5076C173.4935,-839.8917 323.5611,-950.0922 463.3343,-1017 474.9383,-1022.5547 487.9802,-1027.4246 500.1842,-1031.4429"/>
<polygon fill="#000000" stroke="#000000" points="499.158,-1034.7892 509.7483,-1034.4797 501.2764,-1028.1174 499.158,-1034.7892"/>
</g>
<!-- matches -->
<g id="node18" class="node">
<title>matches</title>
<ellipse fill="none" stroke="#000000" cx="545.1518" cy="-666" rx="39.1627" ry="18"/>
<text text-anchor="middle" x="545.1518" y="-661.8" font-family="Times,serif" font-size="14.00" fill="#000000">matches</text>
</g>
<!-- strutils&#45;&gt;matches -->
<g id="edge27" class="edge">
<title>strutils&#45;&gt;matches</title>
<path fill="none" stroke="#000000" d="M137.0607,-762.3395C226.535,-741.217 414.122,-696.9327 500.2171,-676.6079"/>
<polygon fill="#000000" stroke="#000000" points="501.2717,-679.9552 510.2,-674.2512 499.6633,-673.1425 501.2717,-679.9552"/>
</g>
<!-- runCommand -->
<g id="node22" class="node">
<title>runCommand</title>
<ellipse fill="none" stroke="#000000" cx="545.1518" cy="-612" rx="58.9841" ry="18"/>
<text text-anchor="middle" x="545.1518" y="-607.8" font-family="Times,serif" font-size="14.00" fill="#000000">runCommand</text>
</g>
<!-- strutils&#45;&gt;runCommand -->
<g id="edge36" class="edge">
<title>strutils&#45;&gt;runCommand</title>
<path fill="none" stroke="#000000" d="M129.7934,-758.4537C199.1433,-732.9527 341.7913,-680.8856 463.3343,-639 473.6202,-635.4553 484.6658,-631.7453 495.2092,-628.2501"/>
<polygon fill="#000000" stroke="#000000" points="496.3162,-631.5705 504.7145,-625.1115 494.1213,-624.9235 496.3162,-631.5705"/>
</g>
<!-- vartypes -->
<g id="node23" class="node">
<title>vartypes</title>
<ellipse fill="none" stroke="#000000" cx="545.1518" cy="-774" rx="40.1317" ry="18"/>
<text text-anchor="middle" x="545.1518" y="-769.8" font-family="Times,serif" font-size="14.00" fill="#000000">vartypes</text>
</g>
<!-- strutils&#45;&gt;vartypes -->
<g id="edge39" class="edge">
<title>strutils&#45;&gt;vartypes</title>
<path fill="none" stroke="#000000" d="M145.6079,-774C235.9693,-774 408.9501,-774 494.5725,-774"/>
<polygon fill="#000000" stroke="#000000" points="494.818,-777.5001 504.818,-774 494.8179,-770.5001 494.818,-777.5001"/>
</g>
<!-- variables -->
<g id="node26" class="node">
<title>variables</title>
<ellipse fill="none" stroke="#000000" cx="545.1518" cy="-558" rx="42.0524" ry="18"/>
<text text-anchor="middle" x="545.1518" y="-553.8" font-family="Times,serif" font-size="14.00" fill="#000000">variables</text>
</g>
<!-- strutils&#45;&gt;variables -->
<g id="edge42" class="edge">
<title>strutils&#45;&gt;variables</title>
<path fill="none" stroke="#000000" d="M120.5673,-755.3659C184.9702,-719.3613 332.8017,-639.0287 463.3343,-585 475.3303,-580.0347 488.5971,-575.3326 500.8941,-571.286"/>
<polygon fill="#000000" stroke="#000000" points="502.0608,-574.5874 510.5052,-568.1888 499.9137,-567.9248 502.0608,-574.5874"/>
</g>
<!-- runFunction -->
<g id="node27" class="node">
<title>runFunction</title>
<ellipse fill="none" stroke="#000000" cx="545.1518" cy="-1152" rx="53.1797" ry="18"/>
<text text-anchor="middle" x="545.1518" y="-1147.8" font-family="Times,serif" font-size="14.00" fill="#000000">runFunction</text>
</g>
<!-- strutils&#45;&gt;runFunction -->
<g id="edge47" class="edge">
<title>strutils&#45;&gt;runFunction</title>
<path fill="none" stroke="#000000" d="M105.1333,-795.9664C154.7337,-856.9529 303.2457,-1030.0996 463.3343,-1125 472.116,-1130.2058 482.0306,-1134.5549 491.8498,-1138.1341"/>
<polygon fill="#000000" stroke="#000000" points="490.9972,-1141.5413 501.5917,-1141.4599 493.2588,-1134.9167 490.9972,-1141.5413"/>
</g>
<!-- unicodes -->
<g id="node31" class="node">
<title>unicodes</title>
<ellipse fill="none" stroke="#000000" cx="545.1518" cy="-396" rx="41.5852" ry="18"/>
<text text-anchor="middle" x="545.1518" y="-391.8" font-family="Times,serif" font-size="14.00" fill="#000000">unicodes</text>
</g>
<!-- strutils&#45;&gt;unicodes -->
<g id="edge52" class="edge">
<title>strutils&#45;&gt;unicodes</title>
<path fill="none" stroke="#000000" d="M105.1333,-752.0336C154.7337,-691.0471 303.2457,-517.9004 463.3343,-423 474.0903,-416.6239 486.5458,-411.5329 498.444,-407.5677"/>
<polygon fill="#000000" stroke="#000000" points="499.7586,-410.8238 508.2578,-404.4981 497.6689,-404.1429 499.7586,-410.8238"/>
</g>
<!-- signatures -->
<g id="node32" class="node">
<title>signatures</title>
<ellipse fill="none" stroke="#000000" cx="545.1518" cy="-504" rx="45.9286" ry="18"/>
<text text-anchor="middle" x="545.1518" y="-499.8" font-family="Times,serif" font-size="14.00" fill="#000000">signatures</text>
</g>
<!-- strutils&#45;&gt;signatures -->
<g id="edge54" class="edge">
<title>strutils&#45;&gt;signatures</title>
<path fill="none" stroke="#000000" d="M114.0611,-753.4924C173.4935,-708.1083 323.5611,-597.9078 463.3343,-531 474.0824,-525.855 486.0642,-521.2975 497.471,-517.4601"/>
<polygon fill="#000000" stroke="#000000" points="498.8664,-520.6872 507.3017,-514.2765 496.7098,-514.0277 498.8664,-520.6872"/>
</g>
<!-- replacement -->
<g id="node35" class="node">
<title>replacement</title>
<ellipse fill="none" stroke="#000000" cx="545.1518" cy="-126" rx="53.1281" ry="18"/>
<text text-anchor="middle" x="545.1518" y="-121.8" font-family="Times,serif" font-size="14.00" fill="#000000">replacement</text>
</g>
<!-- strutils&#45;&gt;replacement -->
<g id="edge63" class="edge">
<title>strutils&#45;&gt;replacement</title>
<path fill="none" stroke="#000000" d="M100.5789,-751.6891C163.4292,-643.2138 435.4633,-175.206 463.3343,-153 470.975,-146.9123 480.0425,-142.1735 489.3114,-138.4915"/>
<polygon fill="#000000" stroke="#000000" points="490.7576,-141.6913 498.9922,-135.0247 488.3976,-135.1011 490.7576,-141.6913"/>
</g>
<!-- options -->
<g id="node3" class="node">
<title>options</title>
<ellipse fill="none" stroke="#000000" cx="87.6672" cy="-515" rx="61.0788" ry="22.7556"/>
<text text-anchor="middle" x="87.6672" y="-507.8" font-family="Times,serif" font-size="24.00" fill="#000000">options</text>
</g>
<!-- parseCommandLine -->
<g id="node4" class="node">
<title>parseCommandLine</title>
<ellipse fill="none" stroke="#000000" cx="545.1518" cy="-720" rx="81.6354" ry="18"/>
<text text-anchor="middle" x="545.1518" y="-715.8" font-family="Times,serif" font-size="14.00" fill="#000000">parseCommandLine</text>
</g>
<!-- options&#45;&gt;parseCommandLine -->
<g id="edge2" class="edge">
<title>options&#45;&gt;parseCommandLine</title>
<path fill="none" stroke="#000000" d="M124.9328,-532.9796C213.0346,-575.4397 429.3288,-679.3934 463.3343,-693 471.1199,-696.1153 479.4194,-699.161 487.6342,-702.0182"/>
<polygon fill="#000000" stroke="#000000" points="486.6086,-705.3662 497.203,-705.2785 488.8663,-698.7403 486.6086,-705.3662"/>
</g>
<!-- regexes -->
<g id="node10" class="node">
<title>regexes</title>
<ellipse fill="none" stroke="#000000" cx="545.1518" cy="-288" rx="37.2248" ry="18"/>
<text text-anchor="middle" x="545.1518" y="-283.8" font-family="Times,serif" font-size="14.00" fill="#000000">regexes</text>
</g>
<!-- options&#45;&gt;regexes -->
<g id="edge8" class="edge">
<title>options&#45;&gt;regexes</title>
<path fill="none" stroke="#000000" d="M119.9057,-495.404C183.7547,-457.1481 331.5323,-371.3451 463.3343,-315 476.048,-309.5649 490.2477,-304.5346 503.2028,-300.3253"/>
<polygon fill="#000000" stroke="#000000" points="504.3485,-303.6338 512.8217,-297.2734 502.2314,-296.9616 504.3485,-303.6338"/>
</g>
<!-- options&#45;&gt;processTemplate -->
<g id="edge15" class="edge">
<title>options&#45;&gt;processTemplate</title>
<path fill="none" stroke="#000000" d="M145.1447,-506.8335C228.7636,-494.9528 383.8288,-472.921 474.3685,-460.057"/>
<polygon fill="#000000" stroke="#000000" points="474.8634,-463.5219 484.2716,-458.6499 473.8787,-456.5915 474.8634,-463.5219"/>
</g>
<!-- options&#45;&gt;env -->
<g id="edge21" class="edge">
<title>options&#45;&gt;env</title>
<path fill="none" stroke="#000000" d="M129.0429,-531.7197C144.2586,-538.7701 161.209,-547.7357 175.3343,-558 324.0794,-666.0874 307.5271,-757.3675 463.3343,-855 477.2372,-863.7119 494.2466,-869.915 509.1481,-874.1599"/>
<polygon fill="#000000" stroke="#000000" points="508.5003,-877.6091 519.0637,-876.7925 510.2967,-870.8435 508.5003,-877.6091"/>
</g>
<!-- options&#45;&gt;tempFile -->
<g id="edge26" class="edge">
<title>options&#45;&gt;tempFile</title>
<path fill="none" stroke="#000000" d="M131.6222,-530.803C146.6062,-537.6113 162.7384,-546.6544 175.3343,-558 354.2773,-719.1813 273.7592,-868.4696 463.3343,-1017 473.085,-1024.6395 485.0889,-1030.1619 496.8679,-1034.1374"/>
<polygon fill="#000000" stroke="#000000" points="496.0688,-1037.5528 506.655,-1037.1255 498.1128,-1030.8579 496.0688,-1037.5528"/>
</g>
<!-- options&#45;&gt;matches -->
<g id="edge29" class="edge">
<title>options&#45;&gt;matches</title>
<path fill="none" stroke="#000000" d="M133.6272,-530.1698C222.7711,-559.5932 417.9005,-623.9987 503.5014,-652.2526"/>
<polygon fill="#000000" stroke="#000000" points="502.5476,-655.6235 513.1408,-655.4343 504.7417,-648.9762 502.5476,-655.6235"/>
</g>
<!-- readlines -->
<g id="node19" class="node">
<title>readlines</title>
<ellipse fill="none" stroke="#000000" cx="545.1518" cy="-180" rx="42.0524" ry="18"/>
<text text-anchor="middle" x="545.1518" y="-175.8" font-family="Times,serif" font-size="14.00" fill="#000000">readlines</text>
</g>
<!-- options&#45;&gt;readlines -->
<g id="edge31" class="edge">
<title>options&#45;&gt;readlines</title>
<path fill="none" stroke="#000000" d="M111.1823,-493.7692C180.7196,-431.3079 385.3673,-249.872 463.3343,-207 474.291,-200.9752 486.8161,-196.0061 498.717,-192.0457"/>
<polygon fill="#000000" stroke="#000000" points="500.0342,-195.3003 508.5189,-188.9552 497.9292,-188.6243 500.0342,-195.3003"/>
</g>
<!-- parseCmdLine -->
<g id="node20" class="node">
<title>parseCmdLine</title>
<ellipse fill="none" stroke="#000000" cx="545.1518" cy="-342" rx="62.3407" ry="18"/>
<text text-anchor="middle" x="545.1518" y="-337.8" font-family="Times,serif" font-size="14.00" fill="#000000">parseCmdLine</text>
</g>
<!-- options&#45;&gt;parseCmdLine -->
<g id="edge32" class="edge">
<title>options&#45;&gt;parseCmdLine</title>
<path fill="none" stroke="#000000" d="M128.8172,-498.199C197.6504,-470.278 340.6774,-413.0398 463.3343,-369 472.9425,-365.5502 483.2429,-362.0208 493.1834,-358.6994"/>
<polygon fill="#000000" stroke="#000000" points="494.5736,-361.9259 502.9651,-355.458 492.3717,-355.2812 494.5736,-361.9259"/>
</g>
<!-- options&#45;&gt;runCommand -->
<g id="edge35" class="edge">
<title>options&#45;&gt;runCommand</title>
<path fill="none" stroke="#000000" d="M141.0418,-526.317C227.3983,-544.627 397.0936,-580.6074 486.6356,-599.5929"/>
<polygon fill="#000000" stroke="#000000" points="486.1133,-603.0599 496.6218,-601.7102 487.5653,-596.2121 486.1133,-603.0599"/>
</g>
<!-- parseNumber -->
<g id="node24" class="node">
<title>parseNumber</title>
<ellipse fill="none" stroke="#000000" cx="545.1518" cy="-72" rx="57.9892" ry="18"/>
<text text-anchor="middle" x="545.1518" y="-67.8" font-family="Times,serif" font-size="14.00" fill="#000000">parseNumber</text>
</g>
<!-- options&#45;&gt;parseNumber -->
<g id="edge40" class="edge">
<title>options&#45;&gt;parseNumber</title>
<path fill="none" stroke="#000000" d="M112.6432,-494.0246C130.63,-478.5574 155.1776,-456.6936 175.3343,-436 312.8065,-294.8661 299.7523,-208.8104 463.3343,-99 470.9954,-93.8572 479.7151,-89.6252 488.5383,-86.1635"/>
<polygon fill="#000000" stroke="#000000" points="489.8942,-89.3951 498.108,-82.7031 487.5137,-82.8123 489.8942,-89.3951"/>
</g>
<!-- options&#45;&gt;variables -->
<g id="edge43" class="edge">
<title>options&#45;&gt;variables</title>
<path fill="none" stroke="#000000" d="M147.4753,-520.6215C238.1273,-529.1421 408.7592,-545.1802 493.9919,-553.1914"/>
<polygon fill="#000000" stroke="#000000" points="493.668,-556.6763 503.9517,-554.1275 494.3232,-549.707 493.668,-556.6763"/>
</g>
<!-- options&#45;&gt;runFunction -->
<g id="edge45" class="edge">
<title>options&#45;&gt;runFunction</title>
<path fill="none" stroke="#000000" d="M132.659,-530.3852C147.5665,-537.1154 163.3846,-546.216 175.3343,-558 376.5849,-756.4596 248.9478,-940.8088 463.3343,-1125 470.6602,-1131.2941 479.4956,-1136.1308 488.613,-1139.8448"/>
<polygon fill="#000000" stroke="#000000" points="487.571,-1143.1902 498.165,-1143.323 489.9661,-1136.6126 487.571,-1143.1902"/>
</g>
<!-- options&#45;&gt;signatures -->
<g id="edge55" class="edge">
<title>options&#45;&gt;signatures</title>
<path fill="none" stroke="#000000" d="M148.8909,-513.5279C238.1491,-511.3817 402.7394,-507.4242 489.0244,-505.3496"/>
<polygon fill="#000000" stroke="#000000" points="489.2355,-508.8456 499.1484,-505.1061 489.0671,-501.8476 489.2355,-508.8456"/>
</g>
<!-- options&#45;&gt;replacement -->
<g id="edge60" class="edge">
<title>options&#45;&gt;replacement</title>
<path fill="none" stroke="#000000" d="M111.7338,-493.8159C129.4916,-478.0638 154.1476,-455.9379 175.3343,-436 306.021,-313.0161 310.1289,-246.446 463.3343,-153 472.0498,-147.6841 481.9335,-143.2836 491.7429,-139.6882"/>
<polygon fill="#000000" stroke="#000000" points="493.1526,-142.9052 501.4817,-136.3571 490.8871,-136.2819 493.1526,-142.9052"/>
</g>
<!-- tables -->
<g id="node5" class="node">
<title>tables</title>
<ellipse fill="none" stroke="#000000" cx="87.6672" cy="-590" rx="50.796" ry="22.7556"/>
<text text-anchor="middle" x="87.6672" y="-582.8" font-family="Times,serif" font-size="24.00" fill="#000000">tables</text>
</g>
<!-- tables&#45;&gt;parseCommandLine -->
<g id="edge3" class="edge">
<title>tables&#45;&gt;parseCommandLine</title>
<path fill="none" stroke="#000000" d="M130.7062,-602.2301C212.6875,-625.5261 391.4054,-676.311 485.1025,-702.9362"/>
<polygon fill="#000000" stroke="#000000" points="484.4214,-706.3812 494.9973,-705.748 486.3348,-699.6478 484.4214,-706.3812"/>
</g>
<!-- tables&#45;&gt;regexes -->
<g id="edge9" class="edge">
<title>tables&#45;&gt;regexes</title>
<path fill="none" stroke="#000000" d="M124.4752,-574.1706C140.5377,-566.7041 159.3196,-557.1988 175.3343,-547 313.9732,-458.7097 318.9672,-393.575 463.3343,-315 475.374,-308.4471 489.2784,-303.1258 502.1696,-298.9941"/>
<polygon fill="#000000" stroke="#000000" points="503.2364,-302.328 511.7824,-296.0658 501.1965,-295.6318 503.2364,-302.328"/>
</g>
<!-- tables&#45;&gt;cmdline -->
<g id="edge11" class="edge">
<title>tables&#45;&gt;cmdline</title>
<path fill="none" stroke="#000000" d="M103.4223,-611.5724C150.7192,-674.8439 298.4289,-861.8291 463.3343,-963 474.6018,-969.9127 487.8404,-975.2704 500.3463,-979.3228"/>
<polygon fill="#000000" stroke="#000000" points="499.5819,-982.7482 510.1671,-982.2977 501.6113,-976.0489 499.5819,-982.7482"/>
</g>
<!-- tables&#45;&gt;processTemplate -->
<g id="edge16" class="edge">
<title>tables&#45;&gt;processTemplate</title>
<path fill="none" stroke="#000000" d="M129.8862,-577.0801C213.0145,-551.641 397.8361,-495.0817 490.2802,-466.7919"/>
<polygon fill="#000000" stroke="#000000" points="491.4701,-470.088 500.0081,-463.8149 489.4217,-463.3944 491.4701,-470.088"/>
</g>
<!-- tables&#45;&gt;matches -->
<g id="edge28" class="edge">
<title>tables&#45;&gt;matches</title>
<path fill="none" stroke="#000000" d="M135.7614,-597.9897C224.0301,-612.6534 410.833,-643.6862 498.2249,-658.2042"/>
<polygon fill="#000000" stroke="#000000" points="497.6872,-661.6628 508.1256,-659.849 498.8344,-654.7574 497.6872,-661.6628"/>
</g>
<!-- tables&#45;&gt;parseCmdLine -->
<g id="edge33" class="edge">
<title>tables&#45;&gt;parseCmdLine</title>
<path fill="none" stroke="#000000" d="M123.0503,-573.6138C139.1844,-565.8958 158.4192,-556.3465 175.3343,-547 307.0402,-474.2255 326.9478,-432.5711 463.3343,-369 471.9878,-364.9665 481.4123,-361.2659 490.6855,-357.9829"/>
<polygon fill="#000000" stroke="#000000" points="491.9223,-361.2591 500.2556,-354.7165 489.6611,-354.6344 491.9223,-361.2591"/>
</g>
<!-- tables&#45;&gt;runCommand -->
<g id="edge37" class="edge">
<title>tables&#45;&gt;runCommand</title>
<path fill="none" stroke="#000000" d="M138.374,-592.4384C220.8921,-596.4067 384.3069,-604.2651 476.9272,-608.7191"/>
<polygon fill="#000000" stroke="#000000" points="476.8804,-612.2208 487.037,-609.2053 477.2167,-605.2289 476.8804,-612.2208"/>
</g>
<!-- tables&#45;&gt;vartypes -->
<g id="edge38" class="edge">
<title>tables&#45;&gt;vartypes</title>
<path fill="none" stroke="#000000" d="M123.5619,-606.0921C189.9866,-635.6259 336.85,-699.7796 463.3343,-747 475.829,-751.6647 489.5454,-756.3553 502.1166,-760.488"/>
<polygon fill="#000000" stroke="#000000" points="501.3155,-763.9079 511.9077,-763.6716 503.4801,-757.2509 501.3155,-763.9079"/>
</g>
<!-- tables&#45;&gt;variables -->
<g id="edge44" class="edge">
<title>tables&#45;&gt;variables</title>
<path fill="none" stroke="#000000" d="M138.374,-586.4532C226.0957,-580.3172 405.2381,-567.7866 493.5662,-561.6083"/>
<polygon fill="#000000" stroke="#000000" points="493.8882,-565.0944 503.6195,-560.9051 493.3997,-558.1115 493.8882,-565.0944"/>
</g>
<!-- tables&#45;&gt;runFunction -->
<g id="edge46" class="edge">
<title>tables&#45;&gt;runFunction</title>
<path fill="none" stroke="#000000" d="M100.6154,-612.1381C154.4294,-703.5057 362.3029,-1049.985 463.3343,-1125 471.178,-1130.8239 480.3449,-1135.4335 489.6493,-1139.0694"/>
<polygon fill="#000000" stroke="#000000" points="488.7508,-1142.4645 499.3455,-1142.516 491.0953,-1135.8688 488.7508,-1142.4645"/>
</g>
<!-- tables&#45;&gt;signatures -->
<g id="edge53" class="edge">
<title>tables&#45;&gt;signatures</title>
<path fill="none" stroke="#000000" d="M134.9029,-581.1204C221.2931,-564.8804 404.0848,-530.5184 493.587,-513.6934"/>
<polygon fill="#000000" stroke="#000000" points="494.3274,-517.1156 503.5086,-511.8283 493.0341,-510.2361 494.3274,-517.1156"/>
</g>
<!-- readjson -->
<g id="node33" class="node">
<title>readjson</title>
<ellipse fill="none" stroke="#000000" cx="545.1518" cy="-234" rx="40.1317" ry="18"/>
<text text-anchor="middle" x="545.1518" y="-229.8" font-family="Times,serif" font-size="14.00" fill="#000000">readjson</text>
</g>
<!-- tables&#45;&gt;readjson -->
<g id="edge59" class="edge">
<title>tables&#45;&gt;readjson</title>
<path fill="none" stroke="#000000" d="M125.4313,-574.7495C141.491,-567.4516 160.0082,-557.9174 175.3343,-547 322.26,-442.3383 309.5771,-355.3396 463.3343,-261 474.2998,-254.272 487.1322,-249.0172 499.3395,-245.0051"/>
<polygon fill="#000000" stroke="#000000" points="500.4189,-248.335 508.9478,-242.0495 498.3607,-241.6444 500.4189,-248.335"/>
</g>
<!-- os -->
<g id="node6" class="node">
<title>os</title>
<ellipse fill="none" stroke="#000000" cx="87.6672" cy="-917" rx="27" ry="22.7556"/>
<text text-anchor="middle" x="87.6672" y="-909.8" font-family="Times,serif" font-size="24.00" fill="#000000">os</text>
</g>
<!-- os&#45;&gt;statictea -->
<g id="edge66" class="edge">
<title>os&#45;&gt;statictea</title>
<path fill="none" stroke="#000000" d="M111.6086,-927.5018C170.7624,-953.2982 328.7817,-1021.2894 463.3343,-1071 476.1923,-1075.7504 490.3291,-1080.5597 503.1815,-1084.7769"/>
<polygon fill="#000000" stroke="#000000" points="502.1248,-1088.1136 512.717,-1087.8757 504.2883,-1081.4563 502.1248,-1088.1136"/>
</g>
<!-- os&#45;&gt;parseCommandLine -->
<g id="edge4" class="edge">
<title>os&#45;&gt;parseCommandLine</title>
<path fill="none" stroke="#000000" d="M111.0291,-905.375C169.5089,-876.5079 327.2774,-800.0616 463.3343,-747 471.2471,-743.914 479.6749,-740.8687 487.9999,-737.9979"/>
<polygon fill="#000000" stroke="#000000" points="489.3401,-741.2393 497.6885,-734.7158 487.0942,-734.6094 489.3401,-741.2393"/>
</g>
<!-- os&#45;&gt;cmdline -->
<g id="edge10" class="edge">
<title>os&#45;&gt;cmdline</title>
<path fill="none" stroke="#000000" d="M114.2409,-921.2403C189.2191,-933.2045 403.1502,-967.3411 498.411,-982.5417"/>
<polygon fill="#000000" stroke="#000000" points="497.9124,-986.0063 508.339,-984.1258 499.0155,-979.0937 497.9124,-986.0063"/>
</g>
<!-- os&#45;&gt;processTemplate -->
<g id="edge14" class="edge">
<title>os&#45;&gt;processTemplate</title>
<path fill="none" stroke="#000000" d="M102.8997,-897.9684C167.4144,-817.5312 416.9527,-508.1511 463.3343,-477 469.7951,-472.6607 477.0095,-468.97 484.4042,-465.8434"/>
<polygon fill="#000000" stroke="#000000" points="485.7737,-469.0662 493.8242,-462.1785 483.2356,-462.5426 485.7737,-469.0662"/>
</g>
<!-- os&#45;&gt;env -->
<g id="edge19" class="edge">
<title>os&#45;&gt;env</title>
<path fill="none" stroke="#000000" d="M114.5769,-914.9413C192.5224,-908.978 418.583,-891.6832 508.0602,-884.8377"/>
<polygon fill="#000000" stroke="#000000" points="508.572,-888.3089 518.2759,-884.0561 508.038,-881.3293 508.572,-888.3089"/>
</g>
<!-- os&#45;&gt;tempFile -->
<g id="edge23" class="edge">
<title>os&#45;&gt;tempFile</title>
<path fill="none" stroke="#000000" d="M113.5743,-924.192C188.4389,-944.9747 405.7386,-1005.2982 500.3061,-1031.5506"/>
<polygon fill="#000000" stroke="#000000" points="499.5699,-1034.9785 510.1418,-1034.281 501.4424,-1028.2336 499.5699,-1034.9785"/>
</g>
<!-- os&#45;&gt;runFunction -->
<g id="edge49" class="edge">
<title>os&#45;&gt;runFunction</title>
<path fill="none" stroke="#000000" d="M109.3688,-930.9236C165.8816,-966.7534 322.9669,-1063.6231 463.3343,-1125 473.4075,-1129.4046 484.4408,-1133.5056 495.0526,-1137.1144"/>
<polygon fill="#000000" stroke="#000000" points="494.0467,-1140.4681 504.64,-1140.2847 496.2445,-1133.822 494.0467,-1140.4681"/>
</g>
<!-- os&#45;&gt;readjson -->
<g id="edge57" class="edge">
<title>os&#45;&gt;readjson</title>
<path fill="none" stroke="#000000" d="M103.9719,-898.5401C122.4651,-877.1292 152.9526,-840.3628 175.3343,-806 324.8563,-576.4378 254.0969,-437.8483 463.3343,-261 473.0697,-252.7716 485.39,-247.0295 497.4954,-243.0302"/>
<polygon fill="#000000" stroke="#000000" points="498.511,-246.3797 507.1041,-240.1823 496.5218,-239.6683 498.511,-246.3797"/>
</g>
<!-- re -->
<g id="node9" class="node">
<title>re</title>
<polygon fill="#98fb98" stroke="#000000" points="114.6672,-313.8581 114.6672,-334.1419 98.8509,-348.4846 76.4834,-348.4846 60.6672,-334.1419 60.6672,-313.8581 76.4834,-299.5154 98.8509,-299.5154 114.6672,-313.8581"/>
<polygon fill="none" stroke="#000000" points="118.6672,-312.0866 118.6672,-335.9134 100.3948,-352.4835 74.9395,-352.4835 56.6672,-335.9134 56.6672,-312.0866 74.9395,-295.5165 100.3948,-295.5165 118.6672,-312.0866"/>
<text text-anchor="middle" x="87.6672" y="-316.8" font-family="Times,serif" font-size="24.00" fill="#000000">re</text>
</g>
<!-- re&#45;&gt;regexes -->
<g id="edge7" class="edge">
<title>re&#45;&gt;regexes</title>
<path fill="none" stroke="#000000" d="M118.7523,-321.5539C197.4521,-315.3609 404.9428,-299.0332 498.3755,-291.6809"/>
<polygon fill="#000000" stroke="#000000" points="498.6949,-295.1667 508.3894,-290.8929 498.1457,-288.1882 498.6949,-295.1667"/>
</g>
<!-- streams -->
<g id="node12" class="node">
<title>streams</title>
<ellipse fill="none" stroke="#000000" cx="87.6672" cy="-180" rx="63.3073" ry="22.7556"/>
<text text-anchor="middle" x="87.6672" y="-172.8" font-family="Times,serif" font-size="24.00" fill="#000000">streams</text>
</g>
<!-- streams&#45;&gt;processTemplate -->
<g id="edge13" class="edge">
<title>streams&#45;&gt;processTemplate</title>
<path fill="none" stroke="#000000" d="M136.0461,-194.8984C149.1222,-199.6606 163.0475,-205.4283 175.3343,-212 315.2544,-286.8374 322.2624,-350.3572 463.3343,-423 470.8853,-426.8883 479.1117,-430.38 487.3425,-433.4597"/>
<polygon fill="#000000" stroke="#000000" points="486.3718,-436.8293 496.9665,-436.885 488.719,-430.2345 486.3718,-436.8293"/>
</g>
<!-- streams&#45;&gt;env -->
<g id="edge18" class="edge">
<title>streams&#45;&gt;env</title>
<path fill="none" stroke="#000000" d="M141.5513,-192.0522C153.7306,-196.7286 165.8489,-203.1663 175.3343,-212 404.4852,-425.4076 230.8781,-645.1976 463.3343,-855 475.8133,-866.2629 493.1035,-872.8404 508.5758,-876.6758"/>
<polygon fill="#000000" stroke="#000000" points="507.8956,-880.1096 518.4119,-878.8218 509.3878,-873.2705 507.8956,-880.1096"/>
</g>
<!-- streams&#45;&gt;readlines -->
<g id="edge30" class="edge">
<title>streams&#45;&gt;readlines</title>
<path fill="none" stroke="#000000" d="M151.2784,-180C242.371,-180 408.2761,-180 492.7313,-180"/>
<polygon fill="#000000" stroke="#000000" points="492.8626,-183.5001 502.8625,-180 492.8625,-176.5001 492.8626,-183.5001"/>
</g>
<!-- collectCommand -->
<g id="node21" class="node">
<title>collectCommand</title>
<ellipse fill="none" stroke="#000000" cx="545.1518" cy="-18" rx="70.5427" ry="18"/>
<text text-anchor="middle" x="545.1518" y="-13.8" font-family="Times,serif" font-size="14.00" fill="#000000">collectCommand</text>
</g>
<!-- streams&#45;&gt;collectCommand -->
<g id="edge34" class="edge">
<title>streams&#45;&gt;collectCommand</title>
<path fill="none" stroke="#000000" d="M132.2432,-163.8151C217.2826,-132.9661 399.86,-66.8742 463.3343,-45 472.4657,-41.8532 482.1958,-38.5761 491.6417,-35.4347"/>
<polygon fill="#000000" stroke="#000000" points="492.9527,-38.6875 501.3454,-32.2212 490.7521,-32.0424 492.9527,-38.6875"/>
</g>
<!-- streams&#45;&gt;readjson -->
<g id="edge56" class="edge">
<title>streams&#45;&gt;readjson</title>
<path fill="none" stroke="#000000" d="M147.9457,-187.1151C239.4817,-197.9197 411.7813,-218.2574 496.1254,-228.2131"/>
<polygon fill="#000000" stroke="#000000" points="495.8665,-231.7067 506.2079,-229.4032 496.6871,-224.755 495.8665,-231.7067"/>
</g>
<!-- streams&#45;&gt;replacement -->
<g id="edge61" class="edge">
<title>streams&#45;&gt;replacement</title>
<path fill="none" stroke="#000000" d="M147.9457,-172.8849C235.4669,-162.5542 396.8225,-143.5083 484.534,-133.1551"/>
<polygon fill="#000000" stroke="#000000" points="485.0763,-136.6155 494.597,-131.9673 484.2557,-129.6638 485.0763,-136.6155"/>
</g>
<!-- times -->
<g id="node15" class="node">
<title>times</title>
<ellipse fill="none" stroke="#ff0000" cx="87.6672" cy="-1176" rx="48.1611" ry="22.7556"/>
<text text-anchor="middle" x="87.6672" y="-1168.8" font-family="Times,serif" font-size="24.00" fill="#000000">times</text>
</g>
<!-- times&#45;&gt;env -->
<g id="edge20" class="edge">
<title>times&#45;&gt;env</title>
<path fill="none" stroke="#ff0000" d="M129.0777,-1164.0631C144.1343,-1158.9112 160.9695,-1152.1713 175.3343,-1144 318.9318,-1062.3151 318.4785,-988.432 463.3343,-909 477.7203,-901.1114 494.7988,-895.026 509.6215,-890.6469"/>
<polygon fill="#ff0000" stroke="#ff0000" points="510.7791,-893.9574 519.4622,-887.8866 508.8885,-887.2175 510.7791,-893.9574"/>
</g>
<!-- timer -->
<g id="node37" class="node">
<title>timer</title>
<ellipse fill="none" stroke="#000000" cx="545.1518" cy="-1228" rx="28.5411" ry="18"/>
<text text-anchor="middle" x="545.1518" y="-1223.8" font-family="Times,serif" font-size="14.00" fill="#000000">timer</text>
</g>
<!-- times&#45;&gt;timer -->
<g id="edge64" class="edge">
<title>times&#45;&gt;timer</title>
<path fill="none" stroke="#ff0000" d="M134.4761,-1181.3205C225.1075,-1191.6222 422.9725,-1214.1125 506.606,-1223.6187"/>
<polygon fill="#ff0000" stroke="#ff0000" points="506.3614,-1227.1133 516.6928,-1224.7652 507.1521,-1220.1581 506.3614,-1227.1133"/>
</g>
<!-- random -->
<g id="node17" class="node">
<title>random</title>
<polygon fill="#98fb98" stroke="#000000" points="155.889,-1021.8581 155.889,-1042.1419 115.9256,-1056.4846 59.4087,-1056.4846 19.4453,-1042.1419 19.4453,-1021.8581 59.4087,-1007.5154 115.9256,-1007.5154 155.889,-1021.8581"/>
<polygon fill="none" stroke="#000000" points="159.8811,-1019.0431 159.8811,-1044.9569 116.6191,-1060.4835 58.7152,-1060.4835 15.4532,-1044.9569 15.4532,-1019.0431 58.7152,-1003.5165 116.6191,-1003.5165 159.8811,-1019.0431"/>
<text text-anchor="middle" x="87.6672" y="-1024.8" font-family="Times,serif" font-size="24.00" fill="#000000">random</text>
</g>
<!-- random&#45;&gt;tempFile -->
<g id="edge24" class="edge">
<title>random&#45;&gt;tempFile</title>
<path fill="none" stroke="#000000" d="M159.9045,-1033.8948C252.7469,-1036.3301 411.6729,-1040.4988 493.3462,-1042.6411"/>
<polygon fill="#000000" stroke="#000000" points="493.3022,-1046.1411 503.3905,-1042.9046 493.4858,-1039.1435 493.3022,-1046.1411"/>
</g>
<!-- parseutils -->
<g id="node25" class="node">
<title>parseutils</title>
<polygon fill="#98fb98" stroke="#000000" points="170.4501,-25.8581 170.4501,-46.1419 121.957,-60.4846 53.3774,-60.4846 4.8843,-46.1419 4.8843,-25.8581 53.3774,-11.5154 121.957,-11.5154 170.4501,-25.8581"/>
<polygon fill="none" stroke="#000000" points="174.4567,-22.8724 174.4567,-49.1276 122.5382,-64.4835 52.7962,-64.4835 .8776,-49.1276 .8776,-22.8724 52.7962,-7.5165 122.5382,-7.5165 174.4567,-22.8724"/>
<text text-anchor="middle" x="87.6672" y="-28.8" font-family="Times,serif" font-size="24.00" fill="#000000">parseutils</text>
</g>
<!-- parseutils&#45;&gt;parseNumber -->
<g id="edge41" class="edge">
<title>parseutils&#45;&gt;parseNumber</title>
<path fill="none" stroke="#000000" d="M174.5237,-42.8348C263.1199,-49.8066 398.649,-60.4715 478.9321,-66.7891"/>
<polygon fill="#000000" stroke="#000000" points="478.6783,-70.2799 488.922,-67.5752 479.2275,-63.3014 478.6783,-70.2799"/>
</g>
<!-- math -->
<g id="node28" class="node">
<title>math</title>
<ellipse fill="none" stroke="#ff0000" cx="87.6672" cy="-1239" rx="45.4944" ry="22.7556"/>
<text text-anchor="middle" x="87.6672" y="-1231.8" font-family="Times,serif" font-size="24.00" fill="#000000">math</text>
</g>
<!-- math&#45;&gt;runFunction -->
<g id="edge48" class="edge">
<title>math&#45;&gt;runFunction</title>
<path fill="none" stroke="#ff0000" d="M130.2954,-1230.8934C213.037,-1215.1584 395.4146,-1180.4756 488.3311,-1162.8056"/>
<polygon fill="#ff0000" stroke="#ff0000" points="489.2236,-1166.1987 498.3936,-1160.892 487.9158,-1159.3219 489.2236,-1166.1987"/>
</g>
<!-- math&#45;&gt;timer -->
<g id="edge65" class="edge">
<title>math&#45;&gt;timer</title>
<path fill="none" stroke="#ff0000" d="M133.2051,-1237.9051C223.0425,-1235.745 421.6846,-1230.9687 506.0382,-1228.9405"/>
<polygon fill="#ff0000" stroke="#ff0000" points="506.304,-1232.4352 516.2169,-1228.6957 506.1356,-1225.4372 506.304,-1232.4352"/>
</g>
<!-- algorithm -->
<g id="node29" class="node">
<title>algorithm</title>
<polygon fill="#98fb98" stroke="#000000" points="171.4941,-1096.8581 171.4941,-1117.1419 122.3894,-1131.4846 52.9449,-1131.4846 3.8402,-1117.1419 3.8402,-1096.8581 52.9449,-1082.5154 122.3894,-1082.5154 171.4941,-1096.8581"/>
<polygon fill="none" stroke="#000000" points="175.5018,-1093.8621 175.5018,-1120.1379 122.964,-1135.4835 52.3704,-1135.4835 -.1675,-1120.1379 -.1675,-1093.8621 52.3704,-1078.5165 122.964,-1078.5165 175.5018,-1093.8621"/>
<text text-anchor="middle" x="87.6672" y="-1099.8" font-family="Times,serif" font-size="24.00" fill="#000000">algorithm</text>
</g>
<!-- algorithm&#45;&gt;runFunction -->
<g id="edge50" class="edge">
<title>algorithm&#45;&gt;runFunction</title>
<path fill="none" stroke="#000000" d="M175.604,-1115.6498C265.8963,-1124.5313 404.0945,-1138.125 483.4146,-1145.9273"/>
<polygon fill="#000000" stroke="#000000" points="483.4382,-1149.4464 493.7328,-1146.9422 484.1235,-1142.48 483.4382,-1149.4464"/>
</g>
<!-- unicode -->
<g id="node30" class="node">
<title>unicode</title>
<polygon fill="#98fb98" stroke="#000000" points="157.9587,-388.8581 157.9587,-409.1419 116.7829,-423.4846 58.5514,-423.4846 17.3756,-409.1419 17.3756,-388.8581 58.5514,-374.5154 116.7829,-374.5154 157.9587,-388.8581"/>
<polygon fill="none" stroke="#000000" points="161.953,-386.0155 161.953,-411.9845 117.4579,-427.4835 57.8764,-427.4835 13.3814,-411.9845 13.3814,-386.0155 57.8764,-370.5165 117.4579,-370.5165 161.953,-386.0155"/>
<text text-anchor="middle" x="87.6672" y="-391.8" font-family="Times,serif" font-size="24.00" fill="#000000">unicode</text>
</g>
<!-- unicode&#45;&gt;unicodes -->
<g id="edge51" class="edge">
<title>unicode&#45;&gt;unicodes</title>
<path fill="none" stroke="#000000" d="M162.1882,-398.5113C255.2358,-397.9012 412.0115,-396.8731 493.0927,-396.3414"/>
<polygon fill="#000000" stroke="#000000" points="493.5667,-399.8384 503.5435,-396.2729 493.5207,-392.8386 493.5667,-399.8384"/>
</g>
<!-- json -->
<g id="node34" class="node">
<title>json</title>
<polygon fill="#98fb98" stroke="#000000" points="130.4119,-238.8581 130.4119,-259.1419 105.3726,-273.4846 69.9617,-273.4846 44.9224,-259.1419 44.9224,-238.8581 69.9617,-224.5154 105.3726,-224.5154 130.4119,-238.8581"/>
<polygon fill="none" stroke="#000000" points="134.4006,-236.5374 134.4006,-261.4626 106.4317,-277.4835 68.9026,-277.4835 40.9337,-261.4626 40.9337,-236.5374 68.9026,-220.5165 106.4317,-220.5165 134.4006,-236.5374"/>
<text text-anchor="middle" x="87.6672" y="-241.8" font-family="Times,serif" font-size="24.00" fill="#000000">json</text>
</g>
<!-- json&#45;&gt;readjson -->
<g id="edge58" class="edge">
<title>json&#45;&gt;readjson</title>
<path fill="none" stroke="#000000" d="M134.4761,-247.4652C221.1128,-244.6246 405.7384,-238.5711 494.9004,-235.6476"/>
<polygon fill="#000000" stroke="#000000" points="495.1503,-239.1414 505.0302,-235.3155 494.9208,-232.1452 495.1503,-239.1414"/>
</g>
<!-- strformat -->
<g id="node36" class="node">
<title>strformat</title>
<polygon fill="#98fb98" stroke="#000000" points="167.318,-100.8581 167.318,-121.1419 120.6596,-135.4846 54.6747,-135.4846 8.0163,-121.1419 8.0163,-100.8581 54.6747,-86.5154 120.6596,-86.5154 167.318,-100.8581"/>
<polygon fill="none" stroke="#000000" points="171.3217,-97.9049 171.3217,-124.0951 121.2618,-139.4835 54.0725,-139.4835 4.0126,-124.0951 4.0126,-97.9049 54.0725,-82.5165 121.2618,-82.5165 171.3217,-97.9049"/>
<text text-anchor="middle" x="87.6672" y="-103.8" font-family="Times,serif" font-size="24.00" fill="#000000">strformat</text>
</g>
<!-- strformat&#45;&gt;replacement -->
<g id="edge62" class="edge">
<title>strformat&#45;&gt;replacement</title>
<path fill="none" stroke="#000000" d="M171.3108,-113.7425C260.9437,-116.6814 401.2008,-121.2801 482.017,-123.9299"/>
<polygon fill="#000000" stroke="#000000" points="481.9423,-127.4293 492.0517,-124.259 482.1718,-120.433 481.9423,-127.4293"/>
</g>
</g>
</svg>
