<?xml version="1.0" encoding="UTF-8" standalone="no"?>
<!DOCTYPE svg PUBLIC "-//W3C//DTD SVG 1.1//EN"
 "http://www.w3.org/Graphics/SVG/1.1/DTD/svg11.dtd">
<!-- Generated by graphviz version 2.40.1 (20161225.0304)
 -->
<!-- Title: statictea Pages: 1 -->
<svg width="720pt" height="306pt"
 viewBox="0.00 0.00 720.00 306.41" xmlns="http://www.w3.org/2000/svg" xmlns:xlink="http://www.w3.org/1999/xlink">
<g id="graph0" class="graph" transform="scale(.3048 .3048) rotate(0) translate(4 1001.1826)">
<title>statictea</title>
<polygon fill="#ffffff" stroke="transparent" points="-4,4 -4,-1001.1826 2358,-1001.1826 2358,4 -4,4"/>
<!-- runFunction -->
<g id="node1" class="node">
<title>runFunction</title>
<g id="a_node1"><a xlink:href="runFunction.md" xlink:title="runFunction.md">
<ellipse fill="#eee8aa" stroke="#000000" cx="1040" cy="-509" rx="94.055" ry="22.7556"/>
<text text-anchor="middle" x="1040" y="-501.8" font-family="Times,serif" font-size="24.00" fill="#000000">runFunction</text>
</a>
</g>
</g>
<!-- parseNumber -->
<g id="node2" class="node">
<title>parseNumber</title>
<g id="a_node2"><a xlink:href="parseNumber.md" xlink:title="parseNumber.md">
<polygon fill="#98fb98" stroke="#000000" points="1168.3805,-344.8581 1168.3805,-365.1419 1103.1353,-379.4846 1010.8647,-379.4846 945.6195,-365.1419 945.6195,-344.8581 1010.8647,-330.5154 1103.1353,-330.5154 1168.3805,-344.8581"/>
<polygon fill="none" stroke="#000000" points="1172.3872,-341.6442 1172.3872,-368.3558 1103.5714,-383.4835 1010.4286,-383.4835 941.6128,-368.3558 941.6128,-341.6442 1010.4286,-326.5165 1103.5714,-326.5165 1172.3872,-341.6442"/>
<text text-anchor="middle" x="1057" y="-347.8" font-family="Times,serif" font-size="24.00" fill="#000000">parseNumber</text>
</a>
</g>
</g>
<!-- runFunction&#45;&gt;parseNumber -->
<g id="edge46" class="edge">
<title>runFunction&#45;&gt;parseNumber</title>
<path fill="none" stroke="#000000" d="M1042.5084,-486.2768C1045.19,-461.9845 1049.4904,-423.0278 1052.7113,-393.8503"/>
<polygon fill="#000000" stroke="#000000" points="1056.2257,-393.9121 1053.8441,-383.5884 1049.2679,-393.144 1056.2257,-393.9121"/>
</g>
<!-- regexes -->
<g id="node3" class="node">
<title>regexes</title>
<g id="a_node3"><a xlink:href="regexes.md" xlink:title="regexes.md">
<polygon fill="#98fb98" stroke="#000000" points="918.187,-190.8581 918.187,-211.1419 878.244,-225.4846 821.756,-225.4846 781.813,-211.1419 781.813,-190.8581 821.756,-176.5154 878.244,-176.5154 918.187,-190.8581"/>
<polygon fill="none" stroke="#000000" points="922.1781,-188.0434 922.1781,-213.9566 878.9376,-229.4835 821.0624,-229.4835 777.8219,-213.9566 777.8219,-188.0434 821.0624,-172.5165 878.9376,-172.5165 922.1781,-188.0434"/>
<text text-anchor="middle" x="850" y="-193.8" font-family="Times,serif" font-size="24.00" fill="#000000">regexes</text>
</a>
</g>
</g>
<!-- runFunction&#45;&gt;regexes -->
<g id="edge45" class="edge">
<title>runFunction&#45;&gt;regexes</title>
<path fill="none" stroke="#000000" d="M991.7213,-489.4848C949.4949,-469.6096 890.5783,-434.4444 862,-383.4917 837.1545,-339.1945 838.6731,-279.0042 843.3092,-240.0776"/>
<polygon fill="#000000" stroke="#000000" points="846.8412,-240.0651 844.6802,-229.693 839.9014,-239.1488 846.8412,-240.0651"/>
</g>
<!-- vartypes -->
<g id="node8" class="node">
<title>vartypes</title>
<g id="a_node8"><a xlink:href="vartypes.md" xlink:title="vartypes.md">
<ellipse fill="#eee8aa" stroke="#000000" cx="1450" cy="-201" rx="68.6102" ry="22.7556"/>
<text text-anchor="middle" x="1450" y="-193.8" font-family="Times,serif" font-size="24.00" fill="#000000">vartypes</text>
</a>
</g>
</g>
<!-- runFunction&#45;&gt;vartypes -->
<g id="edge44" class="edge">
<title>runFunction&#45;&gt;vartypes</title>
<path fill="none" stroke="#000000" d="M1010.544,-487.2874C965.9879,-451.8247 890.8899,-380.0642 933,-326.5083 986.9171,-257.9361 1242.7229,-222.2272 1373.1456,-208.2169"/>
<polygon fill="#000000" stroke="#000000" points="1373.8829,-211.6585 1383.4593,-207.1261 1373.1466,-204.6973 1373.8829,-211.6585"/>
</g>
<!-- tostring -->
<g id="node10" class="node">
<title>tostring</title>
<g id="a_node10"><a xlink:href="tostring.md" xlink:title="tostring.md">
<ellipse fill="#eee8aa" stroke="#000000" cx="1329" cy="-355" rx="63.3406" ry="22.7556"/>
<text text-anchor="middle" x="1329" y="-347.8" font-family="Times,serif" font-size="24.00" fill="#000000">tostring</text>
</a>
</g>
</g>
<!-- runFunction&#45;&gt;tostring -->
<g id="edge48" class="edge">
<title>runFunction&#45;&gt;tostring</title>
<path fill="none" stroke="#000000" d="M1078.9758,-488.2309C1132.3923,-459.7667 1228.1102,-408.7613 1284.3481,-378.7937"/>
<polygon fill="#000000" stroke="#000000" points="1286.18,-381.7836 1293.3592,-373.992 1282.888,-375.6059 1286.18,-381.7836"/>
</g>
<!-- warnings -->
<g id="node13" class="node">
<title>warnings</title>
<g id="a_node13"><a xlink:href="warnings.md" xlink:title="warnings.md">
<polygon fill="#98fb98" stroke="#000000" points="1723.6684,-36.8581 1723.6684,-57.1419 1676.9997,-71.4846 1611.0003,-71.4846 1564.3316,-57.1419 1564.3316,-36.8581 1611.0003,-22.5154 1676.9997,-22.5154 1723.6684,-36.8581"/>
<polygon fill="none" stroke="#000000" points="1727.6725,-33.9048 1727.6725,-60.0952 1677.6019,-75.4835 1610.3981,-75.4835 1560.3275,-60.0952 1560.3275,-33.9048 1610.3981,-18.5165 1677.6019,-18.5165 1727.6725,-33.9048"/>
<text text-anchor="middle" x="1644" y="-39.8" font-family="Times,serif" font-size="24.00" fill="#000000">warnings</text>
</a>
</g>
</g>
<!-- runFunction&#45;&gt;warnings -->
<g id="edge43" class="edge">
<title>runFunction&#45;&gt;warnings</title>
<path fill="none" stroke="#000000" d="M1006.8387,-487.565C958.1524,-453.3793 877.1962,-384.4558 917,-326.5083 992.9953,-215.8721 1388.3139,-108.7419 1562.0019,-66.2122"/>
<polygon fill="#000000" stroke="#000000" points="1562.9758,-69.5774 1571.8626,-63.8088 1561.3182,-62.7765 1562.9758,-69.5774"/>
</g>
<!-- matches -->
<g id="node18" class="node">
<title>matches</title>
<g id="a_node18"><a xlink:href="matches.md" xlink:title="matches.md">
<ellipse fill="#eee8aa" stroke="#000000" cx="627" cy="-355" rx="66.8311" ry="22.7556"/>
<text text-anchor="middle" x="627" y="-347.8" font-family="Times,serif" font-size="24.00" fill="#000000">matches</text>
</a>
</g>
</g>
<!-- runFunction&#45;&gt;matches -->
<g id="edge47" class="edge">
<title>runFunction&#45;&gt;matches</title>
<path fill="none" stroke="#000000" d="M988.9439,-489.9621C910.759,-460.8084 762.0092,-405.3424 681.6962,-375.3952"/>
<polygon fill="#000000" stroke="#000000" points="682.8432,-372.0876 672.2506,-371.8731 680.3975,-378.6464 682.8432,-372.0876"/>
</g>
<!-- parseCmdLine -->
<g id="node4" class="node">
<title>parseCmdLine</title>
<g id="a_node4"><a xlink:href="parseCmdLine.md" xlink:title="parseCmdLine.md">
<ellipse fill="#eee8aa" stroke="#000000" cx="329" cy="-509" rx="111.4463" ry="22.7556"/>
<text text-anchor="middle" x="329" y="-501.8" font-family="Times,serif" font-size="24.00" fill="#000000">parseCmdLine</text>
</a>
</g>
</g>
<!-- parseCmdLine&#45;&gt;regexes -->
<g id="edge17" class="edge">
<title>parseCmdLine&#45;&gt;regexes</title>
<path fill="none" stroke="#000000" d="M360.9343,-487.2838C395.4299,-463.3118 451.432,-422.8815 496,-383.4917 522.3741,-360.182 521.9547,-346.3906 551,-326.5083 622.6572,-277.4569 716.5132,-241.9505 779.8023,-221.4743"/>
<polygon fill="#000000" stroke="#000000" points="781.2278,-224.6933 789.6893,-218.3173 779.0985,-218.025 781.2278,-224.6933"/>
</g>
<!-- env -->
<g id="node5" class="node">
<title>env</title>
<g id="a_node5"><a xlink:href="env.md" xlink:title="env.md">
<ellipse fill="#eee8aa" stroke="#000000" cx="260" cy="-355" rx="35.6342" ry="22.7556"/>
<text text-anchor="middle" x="260" y="-347.8" font-family="Times,serif" font-size="24.00" fill="#000000">env</text>
</a>
</g>
</g>
<!-- parseCmdLine&#45;&gt;env -->
<g id="edge16" class="edge">
<title>parseCmdLine&#45;&gt;env</title>
<path fill="none" stroke="#000000" d="M318.8188,-486.2768C306.9634,-459.817 287.3129,-415.9592 274.02,-386.291"/>
<polygon fill="#000000" stroke="#000000" points="277.0591,-384.514 269.7762,-376.8193 270.671,-387.3763 277.0591,-384.514"/>
</g>
<!-- parseCmdLine&#45;&gt;warnings -->
<g id="edge18" class="edge">
<title>parseCmdLine&#45;&gt;warnings</title>
<path fill="none" stroke="#000000" d="M334.7297,-486.0412C351.6809,-423.4256 407.9513,-249.2555 526,-172.5083 611.1477,-117.151 1295.9333,-68.8972 1549.7765,-52.7457"/>
<polygon fill="#000000" stroke="#000000" points="1550.3226,-56.2182 1560.0812,-52.0927 1549.8798,-49.2323 1550.3226,-56.2182"/>
</g>
<!-- parseCmdLine&#45;&gt;matches -->
<g id="edge19" class="edge">
<title>parseCmdLine&#45;&gt;matches</title>
<path fill="none" stroke="#000000" d="M369.8108,-487.9099C425.0386,-459.3693 523.2913,-408.5944 581.0507,-378.7456"/>
<polygon fill="#000000" stroke="#000000" points="582.6833,-381.8417 589.9603,-374.1413 579.4696,-375.623 582.6833,-381.8417"/>
</g>
<!-- tempFile -->
<g id="node7" class="node">
<title>tempFile</title>
<g id="a_node7"><a xlink:href="tempFile.md" xlink:title="tempFile.md">
<polygon fill="#98fb98" stroke="#000000" points="694.598,-190.8581 694.598,-211.1419 649.1421,-225.4846 584.8579,-225.4846 539.402,-211.1419 539.402,-190.8581 584.8579,-176.5154 649.1421,-176.5154 694.598,-190.8581"/>
<polygon fill="none" stroke="#000000" points="698.6004,-187.9275 698.6004,-214.0725 649.7591,-229.4835 584.2409,-229.4835 535.3996,-214.0725 535.3996,-187.9275 584.2409,-172.5165 649.7591,-172.5165 698.6004,-187.9275"/>
<text text-anchor="middle" x="617" y="-193.8" font-family="Times,serif" font-size="24.00" fill="#000000">tempFile</text>
</a>
</g>
</g>
<!-- env&#45;&gt;tempFile -->
<g id="edge8" class="edge">
<title>env&#45;&gt;tempFile</title>
<path fill="none" stroke="#000000" d="M289.8236,-342.1349C347.9996,-317.0394 477.6972,-261.0914 555.1834,-227.666"/>
<polygon fill="#000000" stroke="#000000" points="557.0336,-230.6797 564.8294,-223.505 554.2609,-224.2522 557.0336,-230.6797"/>
</g>
<!-- env&#45;&gt;warnings -->
<g id="edge9" class="edge">
<title>env&#45;&gt;warnings</title>
<path fill="none" stroke="#000000" d="M254.3576,-332.4304C246.1742,-293.706 236.2871,-214.7095 279,-172.5083 369.2393,-83.3499 1256.0832,-55.6437 1549.9516,-48.8738"/>
<polygon fill="#000000" stroke="#000000" points="1550.2352,-52.3683 1560.153,-48.6417 1550.0759,-45.3701 1550.2352,-52.3683"/>
</g>
<!-- args -->
<g id="node17" class="node">
<title>args</title>
<g id="a_node17"><a xlink:href="args.md" xlink:title="args.md">
<polygon fill="#98fb98" stroke="#000000" points="377.5492,-190.8581 377.5492,-211.1419 352.6245,-225.4846 317.3755,-225.4846 292.4508,-211.1419 292.4508,-190.8581 317.3755,-176.5154 352.6245,-176.5154 377.5492,-190.8581"/>
<polygon fill="none" stroke="#000000" points="381.5514,-188.5466 381.5514,-213.4534 353.6946,-229.4835 316.3054,-229.4835 288.4486,-213.4534 288.4486,-188.5466 316.3054,-172.5165 353.6946,-172.5165 381.5514,-188.5466"/>
<text text-anchor="middle" x="335" y="-193.8" font-family="Times,serif" font-size="24.00" fill="#000000">args</text>
</a>
</g>
</g>
<!-- env&#45;&gt;args -->
<g id="edge10" class="edge">
<title>env&#45;&gt;args</title>
<path fill="none" stroke="#000000" d="M270.5866,-333.2622C282.5009,-308.7981 302.076,-268.604 316.5249,-238.9355"/>
<polygon fill="#000000" stroke="#000000" points="319.788,-240.2289 321.0198,-229.706 313.4946,-237.164 319.788,-240.2289"/>
</g>
<!-- variables -->
<g id="node6" class="node">
<title>variables</title>
<g id="a_node6"><a xlink:href="variables.md" xlink:title="variables.md">
<ellipse fill="#eee8aa" stroke="#000000" cx="1559" cy="-509" rx="72.6337" ry="22.7556"/>
<text text-anchor="middle" x="1559" y="-501.8" font-family="Times,serif" font-size="24.00" fill="#000000">variables</text>
</a>
</g>
</g>
<!-- variables&#45;&gt;vartypes -->
<g id="edge36" class="edge">
<title>variables&#45;&gt;vartypes</title>
<path fill="none" stroke="#000000" d="M1550.985,-486.352C1531.8905,-432.3971 1483.6574,-296.1053 1461.479,-233.4362"/>
<polygon fill="#000000" stroke="#000000" points="1464.6625,-231.9406 1458.0268,-223.6812 1458.0636,-234.2759 1464.6625,-231.9406"/>
</g>
<!-- variables&#45;&gt;tostring -->
<g id="edge41" class="edge">
<title>variables&#45;&gt;tostring</title>
<path fill="none" stroke="#000000" d="M1527.9812,-488.2309C1486.2812,-460.31 1412.1885,-410.7001 1367.1327,-380.5323"/>
<polygon fill="#000000" stroke="#000000" points="1369.0563,-377.6082 1358.7996,-374.9528 1365.1617,-383.4248 1369.0563,-377.6082"/>
</g>
<!-- variables&#45;&gt;warnings -->
<g id="edge38" class="edge">
<title>variables&#45;&gt;warnings</title>
<path fill="none" stroke="#000000" d="M1631.2135,-506.4633C1787.0146,-499.3153 2146.6644,-473.2448 2221,-383.4917 2285.2346,-305.9347 2171.8403,-212.0483 2116,-172.5083 2002.0984,-91.8556 1839.5423,-63.031 1737.9837,-52.7293"/>
<polygon fill="#000000" stroke="#000000" points="1738.0324,-49.2176 1727.7403,-51.7321 1737.3541,-56.1847 1738.0324,-49.2176"/>
</g>
<!-- version -->
<g id="node19" class="node">
<title>version</title>
<g id="a_node19"><a xlink:href="version.md" xlink:title="version.md">
<polygon fill="#98fb98" stroke="#000000" points="1660.1523,-344.8581 1660.1523,-365.1419 1621.4012,-379.4846 1566.5988,-379.4846 1527.8477,-365.1419 1527.8477,-344.8581 1566.5988,-330.5154 1621.4012,-330.5154 1660.1523,-344.8581"/>
<polygon fill="none" stroke="#000000" points="1664.1421,-342.0721 1664.1421,-367.9279 1622.1143,-383.4835 1565.8857,-383.4835 1523.8579,-367.9279 1523.8579,-342.0721 1565.8857,-326.5165 1622.1143,-326.5165 1664.1421,-342.0721"/>
<text text-anchor="middle" x="1594" y="-347.8" font-family="Times,serif" font-size="24.00" fill="#000000">version</text>
</a>
</g>
</g>
<!-- variables&#45;&gt;version -->
<g id="edge37" class="edge">
<title>variables&#45;&gt;version</title>
<path fill="none" stroke="#000000" d="M1564.1644,-486.2768C1569.7096,-461.8779 1578.6169,-422.6858 1585.2575,-393.467"/>
<polygon fill="#000000" stroke="#000000" points="1588.6993,-394.1155 1587.5026,-383.5884 1581.8734,-392.5641 1588.6993,-394.1155"/>
</g>
<!-- vartypes&#45;&gt;warnings -->
<g id="edge32" class="edge">
<title>vartypes&#45;&gt;warnings</title>
<path fill="none" stroke="#000000" d="M1476.5681,-179.9099C1508.5391,-154.5308 1562.6579,-111.5706 1600.6944,-81.3766"/>
<polygon fill="#000000" stroke="#000000" points="1602.897,-84.0969 1608.5532,-75.1382 1598.5448,-78.6143 1602.897,-84.0969"/>
</g>
<!-- tpub -->
<g id="node9" class="node">
<title>tpub</title>
<g id="a_node9"><a xlink:href="tpub.md" xlink:title="tpub.md">
<polygon fill="#98fb98" stroke="#000000" points="2071.8132,-190.8581 2071.8132,-211.1419 2045.5622,-225.4846 2008.4378,-225.4846 1982.1868,-211.1419 1982.1868,-190.8581 2008.4378,-176.5154 2045.5622,-176.5154 2071.8132,-190.8581"/>
<polygon fill="none" stroke="#000000" points="2075.8052,-188.4843 2075.8052,-213.5157 2046.5802,-229.4835 2007.4198,-229.4835 1978.1948,-213.5157 1978.1948,-188.4843 2007.4198,-172.5165 2046.5802,-172.5165 2075.8052,-188.4843"/>
<text text-anchor="middle" x="2027" y="-193.8" font-family="Times,serif" font-size="24.00" fill="#000000">tpub</text>
</a>
</g>
</g>
<!-- tostring&#45;&gt;vartypes -->
<g id="edge40" class="edge">
<title>tostring&#45;&gt;vartypes</title>
<path fill="none" stroke="#000000" d="M1346.3363,-332.9356C1367.3617,-306.176 1402.8994,-260.9463 1426.4066,-231.0279"/>
<polygon fill="#000000" stroke="#000000" points="1429.2697,-233.0491 1432.6958,-223.0235 1423.7654,-228.7243 1429.2697,-233.0491"/>
</g>
<!-- tostring&#45;&gt;warnings -->
<g id="edge39" class="edge">
<title>tostring&#45;&gt;warnings</title>
<path fill="none" stroke="#000000" d="M1328.2953,-332.3475C1328.326,-294.8903 1333.5955,-219.5225 1372,-172.5083 1418.7492,-115.2786 1497.3976,-82.9133 1558.1327,-65.4415"/>
<polygon fill="#000000" stroke="#000000" points="1559.4094,-68.719 1568.1009,-62.6603 1557.5282,-61.9765 1559.4094,-68.719"/>
</g>
<!-- replacement -->
<g id="node11" class="node">
<title>replacement</title>
<g id="a_node11"><a xlink:href="replacement.md" xlink:title="replacement.md">
<ellipse fill="#eee8aa" stroke="#000000" cx="1200" cy="-653" rx="94.4556" ry="22.7556"/>
<text text-anchor="middle" x="1200" y="-645.8" font-family="Times,serif" font-size="24.00" fill="#000000">replacement</text>
</a>
</g>
</g>
<!-- replacement&#45;&gt;parseNumber -->
<g id="edge62" class="edge">
<title>replacement&#45;&gt;parseNumber</title>
<path fill="none" stroke="#000000" d="M1201.1312,-630.2409C1201.9139,-595.9934 1199.7961,-529.9569 1176,-480.5083 1159.0082,-445.199 1128.4166,-413.2739 1102.5061,-390.4583"/>
<polygon fill="#000000" stroke="#000000" points="1104.4958,-387.5526 1094.6355,-383.6763 1099.9264,-392.8555 1104.4958,-387.5526"/>
</g>
<!-- replacement&#45;&gt;regexes -->
<g id="edge53" class="edge">
<title>replacement&#45;&gt;regexes</title>
<path fill="none" stroke="#000000" d="M1206.561,-630.2175C1221.7044,-572.4411 1252.5812,-418.2914 1181,-326.5083 1121.4079,-250.0978 1009.6616,-220.2003 932.6103,-208.5062"/>
<polygon fill="#000000" stroke="#000000" points="932.8473,-205.0042 922.4496,-207.0386 931.8465,-211.9323 932.8473,-205.0042"/>
</g>
<!-- replacement&#45;&gt;parseCmdLine -->
<g id="edge56" class="edge">
<title>replacement&#45;&gt;parseCmdLine</title>
<path fill="none" stroke="#000000" d="M1122.3217,-640.1577C963.0128,-613.8196 599.6756,-553.75 425.5432,-524.9612"/>
<polygon fill="#000000" stroke="#000000" points="426.0559,-521.4985 415.6189,-523.3205 424.914,-528.4048 426.0559,-521.4985"/>
</g>
<!-- replacement&#45;&gt;env -->
<g id="edge54" class="edge">
<title>replacement&#45;&gt;env</title>
<path fill="none" stroke="#000000" d="M1129.506,-637.8741C1049.2363,-619.3959 915.098,-584.6709 806,-537.4917 760.1076,-517.6457 755.0165,-500.0647 709,-480.5083 566.6634,-420.0171 386.6643,-379.9051 304.522,-363.4505"/>
<polygon fill="#000000" stroke="#000000" points="305.0198,-359.9811 294.53,-361.4693 303.6583,-366.8474 305.0198,-359.9811"/>
</g>
<!-- replacement&#45;&gt;variables -->
<g id="edge60" class="edge">
<title>replacement&#45;&gt;variables</title>
<path fill="none" stroke="#000000" d="M1248.4163,-633.5795C1315.2269,-606.7808 1435.3095,-558.614 1504.9656,-530.674"/>
<polygon fill="#000000" stroke="#000000" points="1506.4707,-533.8414 1514.4489,-526.8701 1503.8647,-527.3445 1506.4707,-533.8414"/>
</g>
<!-- replacement&#45;&gt;tempFile -->
<g id="edge61" class="edge">
<title>replacement&#45;&gt;tempFile</title>
<path fill="none" stroke="#000000" d="M1142.2338,-635.0844C1086.5532,-616.1576 1001.4848,-582.7703 937,-537.4917 871.4591,-491.4717 714.9117,-314.2126 648.0901,-237.1367"/>
<polygon fill="#000000" stroke="#000000" points="650.7217,-234.829 641.5302,-229.5594 645.4294,-239.4107 650.7217,-234.829"/>
</g>
<!-- replacement&#45;&gt;vartypes -->
<g id="edge55" class="edge">
<title>replacement&#45;&gt;vartypes</title>
<path fill="none" stroke="#000000" d="M1225.5377,-630.7997C1250.0425,-608.6958 1287.1819,-573.0243 1314,-537.4917 1361.3572,-474.7459 1371.2381,-456.2515 1401,-383.4917 1421.6296,-333.0579 1436.1173,-271.243 1443.7484,-234.0485"/>
<polygon fill="#000000" stroke="#000000" points="1447.2713,-234.2813 1445.8071,-223.7881 1440.4081,-232.9041 1447.2713,-234.2813"/>
</g>
<!-- replacement&#45;&gt;tpub -->
<g id="edge63" class="edge">
<title>replacement&#45;&gt;tpub</title>
<path fill="none" stroke="#000000" d="M1269.5474,-637.6898C1357.1296,-617.7482 1511.7871,-580.3323 1641,-537.4917 1727.6814,-508.7525 1969.9072,-458.498 2022,-383.4917 2051.3551,-341.2245 2045.485,-279.1627 2037.2639,-239.4182"/>
<polygon fill="#000000" stroke="#000000" points="2040.6635,-238.5815 2035.0852,-229.5741 2033.8289,-240.0942 2040.6635,-238.5815"/>
</g>
<!-- replacement&#45;&gt;tostring -->
<g id="edge64" class="edge">
<title>replacement&#45;&gt;tostring</title>
<path fill="none" stroke="#000000" d="M1222.4026,-630.7675C1243.1066,-608.9151 1273.1361,-573.6668 1290,-537.4917 1312.8622,-488.4498 1322.4932,-425.725 1326.4263,-388.044"/>
<polygon fill="#000000" stroke="#000000" points="1329.9521,-387.9452 1327.4318,-377.6546 1322.9847,-387.2709 1329.9521,-387.9452"/>
</g>
<!-- readlines -->
<g id="node12" class="node">
<title>readlines</title>
<g id="a_node12"><a xlink:href="readlines.md" xlink:title="readlines.md">
<polygon fill="#98fb98" stroke="#000000" points="695.5894,-498.8581 695.5894,-519.1419 649.5528,-533.4846 584.4472,-533.4846 538.4106,-519.1419 538.4106,-498.8581 584.4472,-484.5154 649.5528,-484.5154 695.5894,-498.8581"/>
<polygon fill="none" stroke="#000000" points="699.5916,-495.9163 699.5916,-522.0837 650.1623,-537.4835 583.8377,-537.4835 534.4084,-522.0837 534.4084,-495.9163 583.8377,-480.5165 650.1623,-480.5165 699.5916,-495.9163"/>
<text text-anchor="middle" x="617" y="-501.8" font-family="Times,serif" font-size="24.00" fill="#000000">readlines</text>
</a>
</g>
</g>
<!-- replacement&#45;&gt;readlines -->
<g id="edge57" class="edge">
<title>replacement&#45;&gt;readlines</title>
<path fill="none" stroke="#000000" d="M1130.5006,-637.685C1035.9143,-616.5679 861.5254,-576.6605 714,-537.4917 706.2814,-535.4424 698.2423,-533.2215 690.2405,-530.9548"/>
<polygon fill="#000000" stroke="#000000" points="691.0996,-527.5602 680.5227,-528.1756 689.1748,-534.2904 691.0996,-527.5602"/>
</g>
<!-- replacement&#45;&gt;warnings -->
<g id="edge59" class="edge">
<title>replacement&#45;&gt;warnings</title>
<path fill="none" stroke="#000000" d="M1287.4888,-644.3142C1517.4723,-619.4562 2129.2295,-539.5826 2244,-383.4917 2295.4455,-313.5245 2198.2783,-200.6416 2162,-172.5083 2096.3913,-121.6297 1868.2343,-80.4097 1737.6521,-60.3076"/>
<polygon fill="#000000" stroke="#000000" points="1738.0634,-56.8299 1727.6495,-58.7797 1737.0064,-63.7496 1738.0634,-56.8299"/>
</g>
<!-- replacement&#45;&gt;matches -->
<g id="edge58" class="edge">
<title>replacement&#45;&gt;matches</title>
<path fill="none" stroke="#000000" d="M1143.3693,-634.8845C1082.632,-614.5493 984.1116,-578.9243 904,-537.4917 812.6623,-490.2532 713.9788,-420.1293 662.633,-382.0268"/>
<polygon fill="#000000" stroke="#000000" points="664.6169,-379.1402 654.5073,-375.9705 660.4337,-384.7528 664.6169,-379.1402"/>
</g>
<!-- collectCommand -->
<g id="node14" class="node">
<title>collectCommand</title>
<g id="a_node14"><a xlink:href="collectCommand.md" xlink:title="collectCommand.md">
<ellipse fill="#eee8aa" stroke="#000000" cx="409" cy="-653" rx="127.4982" ry="22.7556"/>
<text text-anchor="middle" x="409" y="-645.8" font-family="Times,serif" font-size="24.00" fill="#000000">collectCommand</text>
</a>
</g>
</g>
<!-- collectCommand&#45;&gt;parseCmdLine -->
<g id="edge24" class="edge">
<title>collectCommand&#45;&gt;parseCmdLine</title>
<path fill="none" stroke="#000000" d="M396.3238,-630.1828C382.9239,-606.0629 361.6875,-567.8375 346.6531,-540.7756"/>
<polygon fill="#000000" stroke="#000000" points="349.533,-538.7523 341.6169,-531.7105 343.4139,-542.1518 349.533,-538.7523"/>
</g>
<!-- collectCommand&#45;&gt;env -->
<g id="edge21" class="edge">
<title>collectCommand&#45;&gt;env</title>
<path fill="none" stroke="#000000" d="M326.7721,-635.6602C273.7516,-619.7588 208.7871,-590.3406 176,-537.4917 143.2989,-484.7815 196.5764,-417.2312 232.1524,-380.9005"/>
<polygon fill="#000000" stroke="#000000" points="234.8264,-383.177 239.438,-373.6384 229.8846,-378.2193 234.8264,-383.177"/>
</g>
<!-- collectCommand&#45;&gt;readlines -->
<g id="edge23" class="edge">
<title>collectCommand&#45;&gt;readlines</title>
<path fill="none" stroke="#000000" d="M441.0442,-630.8156C475.37,-607.0516 530.2083,-569.0866 569.5426,-541.8552"/>
<polygon fill="#000000" stroke="#000000" points="571.9558,-544.4414 578.1855,-535.8716 567.9713,-538.686 571.9558,-544.4414"/>
</g>
<!-- collectCommand&#45;&gt;matches -->
<g id="edge22" class="edge">
<title>collectCommand&#45;&gt;matches</title>
<path fill="none" stroke="#000000" d="M416.8009,-630.2986C429.3031,-595.8393 456.115,-529.1969 492,-480.5083 520.4619,-441.8912 561.8815,-405.4643 591.3241,-381.904"/>
<polygon fill="#000000" stroke="#000000" points="593.6143,-384.5552 599.2901,-375.6089 589.2741,-379.0631 593.6143,-384.5552"/>
</g>
<!-- statictea -->
<g id="node15" class="node">
<title>statictea</title>
<g id="a_node15"><a xlink:href="statictea.md" xlink:title="statictea.md">
<polygon fill="#eee8aa" stroke="#000000" points="759.0958,-942.3667 842,-923.0619 924.9042,-942.3667 924.8268,-973.6024 759.1732,-973.6024 759.0958,-942.3667"/>
<text text-anchor="middle" x="842" y="-943.8" font-family="Times,serif" font-size="24.00" fill="#000000">statictea</text>
</a>
</g>
</g>
<!-- statictea&#45;&gt;env -->
<g id="edge75" class="edge">
<title>statictea&#45;&gt;env</title>
<path fill="none" stroke="#000000" d="M769.6191,-939.9156C637.1285,-915.878 354.6811,-846.6776 196,-675.6274 135.3348,-610.2334 117.4048,-563.9252 149,-480.5083 164.8737,-438.5989 201.8426,-401.6768 228.7673,-378.9175"/>
<polygon fill="#000000" stroke="#000000" points="231.2793,-381.3825 236.7662,-372.3191 226.8249,-375.9826 231.2793,-381.3825"/>
</g>
<!-- statictea&#45;&gt;warnings -->
<g id="edge72" class="edge">
<title>statictea&#45;&gt;warnings</title>
<path fill="none" stroke="#000000" d="M924.9047,-943.5579C1241.1531,-914.0774 2354,-799.9015 2354,-653 2354,-653 2354,-653 2354,-355 2354,-261.6463 2325.5138,-227.3952 2250,-172.5083 2169.2908,-113.8451 1886.71,-74.2398 1737.6636,-56.9175"/>
<polygon fill="#000000" stroke="#000000" points="1737.9401,-53.4263 1727.6052,-55.7588 1737.139,-60.3803 1737.9401,-53.4263"/>
</g>
<!-- gethelp -->
<g id="node16" class="node">
<title>gethelp</title>
<g id="a_node16"><a xlink:href="gethelp.md" xlink:title="gethelp.md">
<polygon fill="#98fb98" stroke="#000000" points="695.1349,-787.8581 695.1349,-808.1419 656.394,-822.4846 601.606,-822.4846 562.8651,-808.1419 562.8651,-787.8581 601.606,-773.5154 656.394,-773.5154 695.1349,-787.8581"/>
<polygon fill="none" stroke="#000000" points="699.1242,-785.0722 699.1242,-810.9278 657.1071,-826.4835 600.8929,-826.4835 558.8758,-810.9278 558.8758,-785.0722 600.8929,-769.5165 657.1071,-769.5165 699.1242,-785.0722"/>
<text text-anchor="middle" x="629" y="-790.8" font-family="Times,serif" font-size="24.00" fill="#000000">gethelp</text>
</a>
</g>
</g>
<!-- statictea&#45;&gt;gethelp -->
<g id="edge73" class="edge">
<title>statictea&#45;&gt;gethelp</title>
<path fill="none" stroke="#000000" d="M812.3833,-929.726C776.2368,-903.7617 714.7895,-859.6235 673.081,-829.6638"/>
<polygon fill="#000000" stroke="#000000" points="674.9202,-826.6756 664.7565,-823.6842 670.8364,-832.3609 674.9202,-826.6756"/>
</g>
<!-- statictea&#45;&gt;args -->
<g id="edge71" class="edge">
<title>statictea&#45;&gt;args</title>
<path fill="none" stroke="#000000" d="M765.7931,-940.7252C558.5271,-910.663 0,-814.656 0,-653 0,-653 0,-653 0,-509 0,-356.6178 190.1609,-259.0173 283.9399,-220.1499"/>
<polygon fill="#000000" stroke="#000000" points="285.3114,-223.3705 293.2494,-216.3534 282.6681,-216.8888 285.3114,-223.3705"/>
</g>
<!-- statictea&#45;&gt;version -->
<g id="edge74" class="edge">
<title>statictea&#45;&gt;version</title>
<path fill="none" stroke="#000000" d="M898.3235,-936.1542C1017.8923,-902.8958 1302.8399,-814.2829 1507,-675.6274 1577.7582,-627.572 1608.869,-616.7611 1641,-537.4917 1660.6007,-489.1355 1637.5382,-430.2027 1617.3625,-392.639"/>
<polygon fill="#000000" stroke="#000000" points="1620.2393,-390.6102 1612.3229,-383.5687 1614.1203,-394.01 1620.2393,-390.6102"/>
</g>
<!-- parseCommandLine -->
<g id="node21" class="node">
<title>parseCommandLine</title>
<g id="a_node21"><a xlink:href="parseCommandLine.md" xlink:title="parseCommandLine.md">
<ellipse fill="#eee8aa" stroke="#000000" cx="1831" cy="-355" rx="148.8522" ry="22.7556"/>
<text text-anchor="middle" x="1831" y="-347.8" font-family="Times,serif" font-size="24.00" fill="#000000">parseCommandLine</text>
</a>
</g>
</g>
<!-- statictea&#45;&gt;parseCommandLine -->
<g id="edge5" class="edge">
<title>statictea&#45;&gt;parseCommandLine</title>
<path fill="none" stroke="#000000" d="M908.4563,-938.4709C998.5521,-920.2183 1163.4209,-882.2949 1296,-826.4917 1418.4289,-774.9609 1451.8675,-760.5581 1554,-675.6274 1663.7043,-584.4003 1766.1829,-447.3557 1809.4095,-386.2906"/>
<polygon fill="#000000" stroke="#000000" points="1812.4587,-388.0392 1815.3511,-377.8468 1806.734,-384.0109 1812.4587,-388.0392"/>
</g>
<!-- processTemplate -->
<g id="node22" class="node">
<title>processTemplate</title>
<g id="a_node22"><a xlink:href="processTemplate.md" xlink:title="processTemplate.md">
<ellipse fill="#eee8aa" stroke="#000000" cx="842" cy="-798" rx="125.2054" ry="22.7556"/>
<text text-anchor="middle" x="842" y="-790.8" font-family="Times,serif" font-size="24.00" fill="#000000">processTemplate</text>
</a>
</g>
</g>
<!-- statictea&#45;&gt;processTemplate -->
<g id="edge70" class="edge">
<title>statictea&#45;&gt;processTemplate</title>
<path fill="none" stroke="#000000" d="M842,-922.9374C842,-897.0432 842,-858.571 842,-831.1677"/>
<polygon fill="#000000" stroke="#000000" points="845.5001,-830.8953 842,-820.8953 838.5001,-830.8953 845.5001,-830.8953"/>
</g>
<!-- matches&#45;&gt;regexes -->
<g id="edge13" class="edge">
<title>matches&#45;&gt;regexes</title>
<path fill="none" stroke="#000000" d="M656.6127,-334.55C694.456,-308.416 760.3473,-262.9126 804.5624,-232.3785"/>
<polygon fill="#000000" stroke="#000000" points="806.5881,-235.233 812.8278,-226.6705 802.6103,-229.473 806.5881,-235.233"/>
</g>
<!-- matches&#45;&gt;args -->
<g id="edge12" class="edge">
<title>matches&#45;&gt;args</title>
<path fill="none" stroke="#000000" d="M590.6084,-335.8072C537.2047,-307.6422 437.6933,-255.1602 379.8459,-224.6516"/>
<polygon fill="#000000" stroke="#000000" points="381.4109,-221.5201 370.9329,-219.9509 378.1454,-227.7118 381.4109,-221.5201"/>
</g>
<!-- readjson -->
<g id="node20" class="node">
<title>readjson</title>
<g id="a_node20"><a xlink:href="readjson.md" xlink:title="readjson.md">
<ellipse fill="#eee8aa" stroke="#000000" cx="2143" cy="-355" rx="68.6102" ry="22.7556"/>
<text text-anchor="middle" x="2143" y="-347.8" font-family="Times,serif" font-size="24.00" fill="#000000">readjson</text>
</a>
</g>
</g>
<!-- readjson&#45;&gt;vartypes -->
<g id="edge68" class="edge">
<title>readjson&#45;&gt;vartypes</title>
<path fill="none" stroke="#000000" d="M2085.6993,-342.2665C1958.5193,-314.0043 1653.1878,-246.1528 1517.2495,-215.9443"/>
<polygon fill="#000000" stroke="#000000" points="1517.8888,-212.5011 1507.3676,-213.7484 1516.3702,-219.3344 1517.8888,-212.5011"/>
</g>
<!-- readjson&#45;&gt;tpub -->
<g id="edge67" class="edge">
<title>readjson&#45;&gt;tpub</title>
<path fill="none" stroke="#000000" d="M2126.38,-332.9356C2107.5405,-307.9245 2076.5472,-266.7781 2054.1766,-237.0793"/>
<polygon fill="#000000" stroke="#000000" points="2056.9252,-234.9109 2048.1129,-229.0292 2051.3339,-239.1226 2056.9252,-234.9109"/>
</g>
<!-- readjson&#45;&gt;warnings -->
<g id="edge66" class="edge">
<title>readjson&#45;&gt;warnings</title>
<path fill="none" stroke="#000000" d="M2142.3746,-332.1162C2140.0577,-293.6301 2129.7422,-215.908 2085,-172.5083 2035.3594,-124.3571 1849.9446,-83.7505 1735.9331,-62.6292"/>
<polygon fill="#000000" stroke="#000000" points="1736.2787,-59.1342 1725.8109,-60.7704 1735.0143,-66.0191 1736.2787,-59.1342"/>
</g>
<!-- parseCommandLine&#45;&gt;regexes -->
<g id="edge4" class="edge">
<title>parseCommandLine&#45;&gt;regexes</title>
<path fill="none" stroke="#000000" d="M1736.244,-337.4822C1715.4264,-333.7539 1693.4838,-329.9164 1673,-326.5083 1402.2708,-281.4636 1080.3622,-234.1893 932.1502,-212.776"/>
<polygon fill="#000000" stroke="#000000" points="932.6091,-209.3061 922.2116,-211.3413 931.6089,-216.2342 932.6091,-209.3061"/>
</g>
<!-- parseCommandLine&#45;&gt;tpub -->
<g id="edge1" class="edge">
<title>parseCommandLine&#45;&gt;tpub</title>
<path fill="none" stroke="#000000" d="M1859.5001,-332.6071C1893.7514,-305.6953 1951.3383,-260.4485 1989.2564,-230.6557"/>
<polygon fill="#000000" stroke="#000000" points="1991.8027,-233.1062 1997.5035,-224.1758 1987.4779,-227.6019 1991.8027,-233.1062"/>
</g>
<!-- parseCommandLine&#45;&gt;warnings -->
<g id="edge3" class="edge">
<title>parseCommandLine&#45;&gt;warnings</title>
<path fill="none" stroke="#000000" d="M1817.2494,-332.352C1785.3487,-279.8097 1706.0411,-149.1853 1666.772,-84.5069"/>
<polygon fill="#000000" stroke="#000000" points="1669.6874,-82.5646 1661.5058,-75.8331 1663.7039,-86.1975 1669.6874,-82.5646"/>
</g>
<!-- parseCommandLine&#45;&gt;args -->
<g id="edge2" class="edge">
<title>parseCommandLine&#45;&gt;args</title>
<path fill="none" stroke="#000000" d="M1739.7429,-337.0369C1717.9368,-333.1626 1694.6917,-329.375 1673,-326.5083 1165.8119,-259.4796 1034.1462,-288.8214 526,-229.4917 480.7986,-224.2142 429.8332,-216.523 391.9244,-210.4615"/>
<polygon fill="#000000" stroke="#000000" points="392.0232,-206.9324 381.594,-208.7984 390.9105,-213.8435 392.0232,-206.9324"/>
</g>
<!-- processTemplate&#45;&gt;parseCmdLine -->
<g id="edge20" class="edge">
<title>processTemplate&#45;&gt;parseCmdLine</title>
<path fill="none" stroke="#000000" d="M760.9427,-780.7353C604.0263,-747.2908 273.9679,-676.8256 273,-675.6274 240.5101,-635.4071 275.5491,-575.4446 302.9667,-539.4853"/>
<polygon fill="#000000" stroke="#000000" points="305.9531,-541.3492 309.3751,-531.3222 300.4471,-537.0267 305.9531,-541.3492"/>
</g>
<!-- processTemplate&#45;&gt;env -->
<g id="edge11" class="edge">
<title>processTemplate&#45;&gt;env</title>
<path fill="none" stroke="#000000" d="M760.8776,-780.6871C743.4374,-776.9831 725.1075,-773.1036 708,-769.5083 507.21,-727.3099 426.5992,-789.6152 256,-675.6274 175.9635,-622.1501 130.6744,-571.5268 162,-480.5083 175.6384,-440.8811 207.4889,-404.175 231.2,-380.8261"/>
<polygon fill="#000000" stroke="#000000" points="233.7986,-383.1829 238.579,-373.7279 228.9457,-378.1381 233.7986,-383.1829"/>
</g>
<!-- processTemplate&#45;&gt;variables -->
<g id="edge51" class="edge">
<title>processTemplate&#45;&gt;variables</title>
<path fill="none" stroke="#000000" d="M954.3518,-787.8973C1112.8071,-771.7182 1391.6117,-735.5713 1472,-675.6274 1516.359,-642.5498 1540.1229,-580.1912 1551.1136,-541.8504"/>
<polygon fill="#000000" stroke="#000000" points="1554.6226,-542.2863 1553.8813,-531.7175 1547.87,-540.4418 1554.6226,-542.2863"/>
</g>
<!-- processTemplate&#45;&gt;vartypes -->
<g id="edge52" class="edge">
<title>processTemplate&#45;&gt;vartypes</title>
<path fill="none" stroke="#000000" d="M936.1212,-783.086C1054.4168,-762.6698 1248.5951,-723.088 1303,-675.6274 1437.4747,-558.3172 1450.6064,-320.6641 1450.694,-233.7695"/>
<polygon fill="#000000" stroke="#000000" points="1454.1938,-233.6858 1450.6448,-223.7031 1447.1938,-233.7201 1454.1938,-233.6858"/>
</g>
<!-- processTemplate&#45;&gt;replacement -->
<g id="edge65" class="edge">
<title>processTemplate&#45;&gt;replacement</title>
<path fill="none" stroke="#000000" d="M893.2927,-777.225C959.2145,-750.5248 1073.3546,-704.2949 1142.2567,-676.3877"/>
<polygon fill="#000000" stroke="#000000" points="1143.7144,-679.5735 1151.6691,-672.5754 1141.0866,-673.0855 1143.7144,-679.5735"/>
</g>
<!-- processTemplate&#45;&gt;readlines -->
<g id="edge15" class="edge">
<title>processTemplate&#45;&gt;readlines</title>
<path fill="none" stroke="#000000" d="M818.974,-775.546C795.0705,-751.7328 757.1663,-712.5311 728,-675.6274 694.5635,-633.3207 660.8886,-581.0978 639.5435,-546.5139"/>
<polygon fill="#000000" stroke="#000000" points="642.3389,-544.3773 634.1256,-537.6847 636.3727,-548.0385 642.3389,-544.3773"/>
</g>
<!-- processTemplate&#45;&gt;warnings -->
<g id="edge7" class="edge">
<title>processTemplate&#45;&gt;warnings</title>
<path fill="none" stroke="#000000" d="M953.9994,-787.9173C1297.9791,-755.4637 2316,-647.6997 2316,-509 2316,-509 2316,-509 2316,-355 2316,-259.3677 2280.0086,-227.8272 2202,-172.5083 2128.2159,-120.1851 1876.8311,-78.768 1738.0072,-59.2349"/>
<polygon fill="#000000" stroke="#000000" points="1738.189,-55.7264 1727.801,-57.8097 1737.2208,-62.6591 1738.189,-55.7264"/>
</g>
<!-- processTemplate&#45;&gt;collectCommand -->
<g id="edge25" class="edge">
<title>processTemplate&#45;&gt;collectCommand</title>
<path fill="none" stroke="#000000" d="M782.2478,-777.9906C702.8019,-751.3863 562.661,-704.4569 478.5534,-676.2916"/>
<polygon fill="#000000" stroke="#000000" points="479.4276,-672.8933 468.8338,-673.0367 477.2048,-679.5311 479.4276,-672.8933"/>
</g>
<!-- processTemplate&#45;&gt;args -->
<g id="edge6" class="edge">
<title>processTemplate&#45;&gt;args</title>
<path fill="none" stroke="#000000" d="M761.6515,-780.5313C743.9953,-776.8001 725.3818,-772.949 708,-769.5083 481.0544,-724.5839 371.1306,-826.7955 196,-675.6274 78.3675,-574.0902 129.3305,-456.1537 215,-326.5083 238.9003,-290.3394 273.8151,-255.2014 299.8281,-231.3491"/>
<polygon fill="#000000" stroke="#000000" points="302.1897,-233.9324 307.2522,-224.6253 297.4906,-228.744 302.1897,-233.9324"/>
</g>
<!-- processTemplate&#45;&gt;matches -->
<g id="edge14" class="edge">
<title>processTemplate&#45;&gt;matches</title>
<path fill="none" stroke="#000000" d="M795.9193,-776.8135C722.434,-740.1261 581.2662,-657.0532 525,-537.4917 498.3401,-480.8415 553.9211,-417.6769 593.0153,-382.4989"/>
<polygon fill="#000000" stroke="#000000" points="595.3838,-385.0769 600.5851,-375.8466 590.763,-379.8187 595.3838,-385.0769"/>
</g>
<!-- processTemplate&#45;&gt;readjson -->
<g id="edge69" class="edge">
<title>processTemplate&#45;&gt;readjson</title>
<path fill="none" stroke="#000000" d="M952.682,-787.3877C1086.6639,-772.3365 1317.8501,-739.2484 1507,-675.6274 1744.5369,-595.7314 2004.5907,-441.3802 2102.6266,-380.5416"/>
<polygon fill="#000000" stroke="#000000" points="2104.6905,-383.3795 2111.3288,-375.1222 2100.9901,-377.4375 2104.6905,-383.3795"/>
</g>
<!-- runCommand -->
<g id="node23" class="node">
<title>runCommand</title>
<g id="a_node23"><a xlink:href="runCommand.md" xlink:title="runCommand.md">
<ellipse fill="#eee8aa" stroke="#000000" cx="842" cy="-653" rx="104.7872" ry="22.7556"/>
<text text-anchor="middle" x="842" y="-645.8" font-family="Times,serif" font-size="24.00" fill="#000000">runCommand</text>
</a>
</g>
</g>
<!-- processTemplate&#45;&gt;runCommand -->
<g id="edge50" class="edge">
<title>processTemplate&#45;&gt;runCommand</title>
<path fill="none" stroke="#000000" d="M842,-775.3438C842,-751.436 842,-713.5126 842,-686.2233"/>
<polygon fill="#000000" stroke="#000000" points="845.5001,-685.9756 842,-675.9757 838.5001,-685.9757 845.5001,-685.9756"/>
</g>
<!-- runCommand&#45;&gt;runFunction -->
<g id="edge49" class="edge">
<title>runCommand&#45;&gt;runFunction</title>
<path fill="none" stroke="#000000" d="M872.0719,-631.1295C906.8715,-605.8207 964.2285,-564.1066 1002.0628,-536.5907"/>
<polygon fill="#000000" stroke="#000000" points="1004.2651,-539.3168 1010.2938,-530.6045 1000.1478,-533.6557 1004.2651,-539.3168"/>
</g>
<!-- runCommand&#45;&gt;parseNumber -->
<g id="edge35" class="edge">
<title>runCommand&#45;&gt;parseNumber</title>
<path fill="none" stroke="#000000" d="M911.6065,-636.0191C991.7939,-614.8832 1116.0106,-576.7573 1143,-537.4917 1175.3632,-490.4081 1131.5634,-429.2309 1095.5234,-391.0386"/>
<polygon fill="#000000" stroke="#000000" points="1097.9113,-388.4732 1088.4437,-383.7177 1092.8793,-393.3393 1097.9113,-388.4732"/>
</g>
<!-- runCommand&#45;&gt;regexes -->
<g id="edge30" class="edge">
<title>runCommand&#45;&gt;regexes</title>
<path fill="none" stroke="#000000" d="M841.1357,-630.0294C839.2873,-576.6981 835.4719,-440.3524 840,-326.5083 841.1554,-297.4592 843.8094,-264.7176 846.093,-239.961"/>
<polygon fill="#000000" stroke="#000000" points="849.5898,-240.1583 847.0436,-229.874 842.6207,-239.5015 849.5898,-240.1583"/>
</g>
<!-- runCommand&#45;&gt;parseCmdLine -->
<g id="edge26" class="edge">
<title>runCommand&#45;&gt;parseCmdLine</title>
<path fill="none" stroke="#000000" d="M778.0654,-635.0535C683.189,-608.4215 505.4779,-558.5376 404.3898,-530.1621"/>
<polygon fill="#000000" stroke="#000000" points="405.1258,-526.7334 394.552,-527.4006 403.234,-533.473 405.1258,-526.7334"/>
</g>
<!-- runCommand&#45;&gt;env -->
<g id="edge31" class="edge">
<title>runCommand&#45;&gt;env</title>
<path fill="none" stroke="#000000" d="M748.8789,-642.5961C581.3527,-622.9389 243.2997,-578.6167 209,-537.4917 171.6833,-492.7494 210.4086,-422.5714 237.8216,-383.5656"/>
<polygon fill="#000000" stroke="#000000" points="240.7918,-385.431 243.8095,-375.275 235.1171,-381.3325 240.7918,-385.431"/>
</g>
<!-- runCommand&#45;&gt;variables -->
<g id="edge42" class="edge">
<title>runCommand&#45;&gt;variables</title>
<path fill="none" stroke="#000000" d="M918.7316,-637.5895C1058.4751,-609.5238 1352.5239,-550.468 1487.9559,-523.2683"/>
<polygon fill="#000000" stroke="#000000" points="1488.7056,-526.6877 1497.8206,-521.2871 1487.3272,-519.8247 1488.7056,-526.6877"/>
</g>
<!-- runCommand&#45;&gt;vartypes -->
<g id="edge33" class="edge">
<title>runCommand&#45;&gt;vartypes</title>
<path fill="none" stroke="#000000" d="M930.1823,-640.6667C1000.8657,-626.6304 1098.5584,-597.3496 1163,-537.4917 1238.2145,-467.6272 1190.3448,-404.5811 1257,-326.5083 1296.2891,-280.4892 1356.6056,-245.006 1399.3391,-223.6913"/>
<polygon fill="#000000" stroke="#000000" points="1401.0061,-226.7721 1408.4466,-219.2296 1397.9265,-220.4859 1401.0061,-226.7721"/>
</g>
<!-- runCommand&#45;&gt;tpub -->
<g id="edge29" class="edge">
<title>runCommand&#45;&gt;tpub</title>
<path fill="none" stroke="#000000" d="M903.3423,-634.6216C1016.1968,-601.1945 1264.6447,-529.3912 1477,-480.5083 1702.702,-428.553 1823.7611,-545.778 1989,-383.4917 2027.1002,-346.0723 2031.8712,-281.0683 2030.4499,-239.589"/>
<polygon fill="#000000" stroke="#000000" points="2033.9451,-239.4029 2029.9716,-229.5814 2026.953,-239.7371 2033.9451,-239.4029"/>
</g>
<!-- runCommand&#45;&gt;readlines -->
<g id="edge27" class="edge">
<title>runCommand&#45;&gt;readlines</title>
<path fill="none" stroke="#000000" d="M808.3152,-631.4417C770.8112,-607.4392 709.8226,-568.4065 666.8034,-540.8741"/>
<polygon fill="#000000" stroke="#000000" points="668.491,-537.7988 658.1815,-535.3562 664.7176,-543.6947 668.491,-537.7988"/>
</g>
<!-- runCommand&#45;&gt;warnings -->
<g id="edge34" class="edge">
<title>runCommand&#45;&gt;warnings</title>
<path fill="none" stroke="#000000" d="M827.8392,-630.5221C782.4301,-555.3254 650.18,-309.5877 769,-172.5083 819.7411,-113.9697 1334.7985,-69.6937 1550.1461,-53.5995"/>
<polygon fill="#000000" stroke="#000000" points="1550.4581,-57.086 1560.1712,-52.8544 1549.9392,-50.1053 1550.4581,-57.086"/>
</g>
<!-- runCommand&#45;&gt;matches -->
<g id="edge28" class="edge">
<title>runCommand&#45;&gt;matches</title>
<path fill="none" stroke="#000000" d="M825.8401,-630.6016C787.7704,-577.8352 692.4035,-445.6523 649.0588,-385.5745"/>
<polygon fill="#000000" stroke="#000000" points="651.7435,-383.3137 643.0542,-377.2518 646.0668,-387.4094 651.7435,-383.3137"/>
</g>
</g>
</svg>
