<?xml version="1.0" encoding="UTF-8" standalone="no"?>
<!DOCTYPE svg PUBLIC "-//W3C//DTD SVG 1.1//EN"
 "http://www.w3.org/Graphics/SVG/1.1/DTD/svg11.dtd">
<!-- Generated by graphviz version 2.40.1 (20161225.0304)
 -->
<!-- Title: statictea Pages: 1 -->
<svg width="635pt" height="1313pt"
 viewBox="0.00 0.00 634.97 1312.98" xmlns="http://www.w3.org/2000/svg" xmlns:xlink="http://www.w3.org/1999/xlink">
<g id="graph0" class="graph" transform="scale(1 1) rotate(0) translate(4 1308.9835)">
<title>statictea</title>
<polygon fill="#ffffff" stroke="transparent" points="-4,4 -4,-1308.9835 630.9693,-1308.9835 630.9693,4 -4,4"/>
<!-- strutils -->
<g id="node1" class="node">
<title>strutils</title>
<ellipse fill="none" stroke="#000000" cx="87.6672" cy="-691.4917" rx="57.5374" ry="22.7556"/>
<text text-anchor="middle" x="87.6672" y="-684.2917" font-family="Times,serif" font-size="24.00" fill="#000000">strutils</text>
</g>
<!-- statictea -->
<g id="node2" class="node">
<title>statictea</title>
<ellipse fill="none" stroke="#000000" cx="545.1518" cy="-934.4917" rx="39.154" ry="18"/>
<text text-anchor="middle" x="545.1518" y="-930.2917" font-family="Times,serif" font-size="14.00" fill="#000000">statictea</text>
</g>
<!-- strutils&#45;&gt;statictea -->
<g id="edge1" class="edge">
<title>strutils&#45;&gt;statictea</title>
<path fill="none" stroke="#000000" d="M117.2418,-711.2976C179.262,-752.1912 328.3681,-847.1736 463.3343,-907.4917 475.5107,-912.9335 489.1304,-917.86 501.711,-921.9699"/>
<polygon fill="#000000" stroke="#000000" points="500.9398,-925.3972 511.5301,-925.0852 503.0568,-918.7249 500.9398,-925.3972"/>
</g>
<!-- args -->
<g id="node6" class="node">
<title>args</title>
<ellipse fill="none" stroke="#000000" cx="545.1518" cy="-880.4917" rx="27" ry="18"/>
<text text-anchor="middle" x="545.1518" y="-876.2917" font-family="Times,serif" font-size="14.00" fill="#000000">args</text>
</g>
<!-- strutils&#45;&gt;args -->
<g id="edge4" class="edge">
<title>strutils&#45;&gt;args</title>
<path fill="none" stroke="#000000" d="M124.809,-708.8113C191.7345,-739.7251 337.3425,-805.6441 463.3343,-853.4917 478.6724,-859.3167 495.8872,-865.1068 510.5545,-869.8225"/>
<polygon fill="#000000" stroke="#000000" points="509.6572,-873.2098 520.2475,-872.9029 511.7773,-866.5386 509.6572,-873.2098"/>
</g>
<!-- warnings -->
<g id="node7" class="node">
<title>warnings</title>
<ellipse fill="none" stroke="#000000" cx="545.1518" cy="-772.4917" rx="42.5542" ry="18"/>
<text text-anchor="middle" x="545.1518" y="-768.2917" font-family="Times,serif" font-size="14.00" fill="#000000">warnings</text>
</g>
<!-- strutils&#45;&gt;warnings -->
<g id="edge5" class="edge">
<title>strutils&#45;&gt;warnings</title>
<path fill="none" stroke="#000000" d="M140.1465,-700.7835C229.3222,-716.5725 409.1855,-748.4182 496.0271,-763.794"/>
<polygon fill="#000000" stroke="#000000" points="495.4364,-767.2437 505.8934,-765.5408 496.6568,-760.3509 495.4364,-767.2437"/>
</g>
<!-- cmdline -->
<g id="node11" class="node">
<title>cmdline</title>
<ellipse fill="none" stroke="#000000" cx="545.1518" cy="-718.4917" rx="38.6869" ry="18"/>
<text text-anchor="middle" x="545.1518" y="-714.2917" font-family="Times,serif" font-size="14.00" fill="#000000">cmdline</text>
</g>
<!-- strutils&#45;&gt;cmdline -->
<g id="edge11" class="edge">
<title>strutils&#45;&gt;cmdline</title>
<path fill="none" stroke="#000000" d="M144.6829,-694.8567C235.5071,-700.217 411.4529,-710.601 496.6237,-715.6277"/>
<polygon fill="#000000" stroke="#000000" points="496.6056,-719.1326 506.7944,-716.2279 497.018,-712.1448 496.6056,-719.1326"/>
</g>
<!-- processTemplate -->
<g id="node13" class="node">
<title>processTemplate</title>
<ellipse fill="none" stroke="#000000" cx="545.1518" cy="-826.4917" rx="69.306" ry="18"/>
<text text-anchor="middle" x="545.1518" y="-822.2917" font-family="Times,serif" font-size="14.00" fill="#000000">processTemplate</text>
</g>
<!-- strutils&#45;&gt;processTemplate -->
<g id="edge16" class="edge">
<title>strutils&#45;&gt;processTemplate</title>
<path fill="none" stroke="#000000" d="M134.0508,-705.1792C218.8711,-730.209 398.6224,-783.2521 489.7285,-810.1368"/>
<polygon fill="#000000" stroke="#000000" points="488.7438,-813.4953 499.3255,-812.9688 490.725,-806.7816 488.7438,-813.4953"/>
</g>
<!-- env -->
<g id="node14" class="node">
<title>env</title>
<ellipse fill="none" stroke="#000000" cx="545.1518" cy="-1150.4917" rx="27" ry="18"/>
<text text-anchor="middle" x="545.1518" y="-1146.2917" font-family="Times,serif" font-size="14.00" fill="#000000">env</text>
</g>
<!-- strutils&#45;&gt;env -->
<g id="edge21" class="edge">
<title>strutils&#45;&gt;env</title>
<path fill="none" stroke="#000000" d="M100.6813,-713.5415C143.3792,-784.0053 286.6421,-1005.9803 463.3343,-1123.4917 476.9958,-1132.5775 493.9707,-1138.8341 508.9115,-1143.018"/>
<polygon fill="#000000" stroke="#000000" points="508.3067,-1146.4767 518.8645,-1145.5927 510.0598,-1139.6997 508.3067,-1146.4767"/>
</g>
<!-- tempFile -->
<g id="node16" class="node">
<title>tempFile</title>
<ellipse fill="none" stroke="#000000" cx="545.1518" cy="-988.4917" rx="41.5938" ry="18"/>
<text text-anchor="middle" x="545.1518" y="-984.2917" font-family="Times,serif" font-size="14.00" fill="#000000">tempFile</text>
</g>
<!-- strutils&#45;&gt;tempFile -->
<g id="edge24" class="edge">
<title>strutils&#45;&gt;tempFile</title>
<path fill="none" stroke="#000000" d="M111.0407,-712.27C167.6984,-761.7056 318.3981,-887.693 463.3343,-961.4917 474.581,-967.2183 487.3019,-972.1031 499.3035,-976.0788"/>
<polygon fill="#000000" stroke="#000000" points="498.5774,-979.5202 509.1675,-979.2032 500.6912,-972.8469 498.5774,-979.5202"/>
</g>
<!-- matches -->
<g id="node18" class="node">
<title>matches</title>
<ellipse fill="none" stroke="#000000" cx="545.1518" cy="-556.4917" rx="39.1627" ry="18"/>
<text text-anchor="middle" x="545.1518" y="-552.2917" font-family="Times,serif" font-size="14.00" fill="#000000">matches</text>
</g>
<!-- strutils&#45;&gt;matches -->
<g id="edge26" class="edge">
<title>strutils&#45;&gt;matches</title>
<path fill="none" stroke="#000000" d="M134.0508,-677.8043C222.9837,-651.5609 416.2764,-594.5218 502.3346,-569.1268"/>
<polygon fill="#000000" stroke="#000000" points="503.4387,-572.4502 512.0392,-566.263 501.4575,-565.7364 503.4387,-572.4502"/>
</g>
<!-- runCommand -->
<g id="node22" class="node">
<title>runCommand</title>
<ellipse fill="none" stroke="#000000" cx="545.1518" cy="-610.4917" rx="58.9841" ry="18"/>
<text text-anchor="middle" x="545.1518" y="-606.2917" font-family="Times,serif" font-size="14.00" fill="#000000">runCommand</text>
</g>
<!-- strutils&#45;&gt;runCommand -->
<g id="edge35" class="edge">
<title>strutils&#45;&gt;runCommand</title>
<path fill="none" stroke="#000000" d="M140.1465,-682.2C225.3449,-667.1152 393.3218,-637.374 483.8687,-621.3422"/>
<polygon fill="#000000" stroke="#000000" points="484.7468,-624.7413 493.9834,-619.5514 483.5264,-617.8485 484.7468,-624.7413"/>
</g>
<!-- vartypes -->
<g id="node23" class="node">
<title>vartypes</title>
<ellipse fill="none" stroke="#000000" cx="545.1518" cy="-448.4917" rx="40.1317" ry="18"/>
<text text-anchor="middle" x="545.1518" y="-444.2917" font-family="Times,serif" font-size="14.00" fill="#000000">vartypes</text>
</g>
<!-- strutils&#45;&gt;vartypes -->
<g id="edge37" class="edge">
<title>strutils&#45;&gt;vartypes</title>
<path fill="none" stroke="#000000" d="M117.2418,-671.6859C179.262,-630.7923 328.3681,-535.8098 463.3343,-475.4917 475.4029,-470.0981 488.8895,-465.2107 501.3767,-461.1228"/>
<polygon fill="#000000" stroke="#000000" points="502.6615,-464.3871 511.1308,-458.0214 500.5404,-457.7162 502.6615,-464.3871"/>
</g>
<!-- variables -->
<g id="node26" class="node">
<title>variables</title>
<ellipse fill="none" stroke="#000000" cx="545.1518" cy="-394.4917" rx="42.0524" ry="18"/>
<text text-anchor="middle" x="545.1518" y="-390.2917" font-family="Times,serif" font-size="14.00" fill="#000000">variables</text>
</g>
<!-- strutils&#45;&gt;variables -->
<g id="edge40" class="edge">
<title>strutils&#45;&gt;variables</title>
<path fill="none" stroke="#000000" d="M111.0407,-670.7135C167.6984,-621.2779 318.3981,-495.2905 463.3343,-421.4917 474.4769,-415.8182 487.0665,-410.9709 498.97,-407.0153"/>
<polygon fill="#000000" stroke="#000000" points="500.2905,-410.2682 508.7607,-403.9038 498.1703,-403.597 500.2905,-410.2682"/>
</g>
<!-- funtypes -->
<g id="node27" class="node">
<title>funtypes</title>
<ellipse fill="none" stroke="#000000" cx="545.1518" cy="-664.4917" rx="40.6248" ry="18"/>
<text text-anchor="middle" x="545.1518" y="-660.2917" font-family="Times,serif" font-size="14.00" fill="#000000">funtypes</text>
</g>
<!-- strutils&#45;&gt;funtypes -->
<g id="edge43" class="edge">
<title>strutils&#45;&gt;funtypes</title>
<path fill="none" stroke="#000000" d="M144.6829,-688.1268C234.909,-682.8018 409.1393,-672.519 494.9293,-667.4558"/>
<polygon fill="#000000" stroke="#000000" points="495.1651,-670.9481 504.9415,-666.8649 494.7527,-663.9602 495.1651,-670.9481"/>
</g>
<!-- runFunction -->
<g id="node28" class="node">
<title>runFunction</title>
<ellipse fill="none" stroke="#000000" cx="545.1518" cy="-232.4917" rx="53.1797" ry="18"/>
<text text-anchor="middle" x="545.1518" y="-228.2917" font-family="Times,serif" font-size="14.00" fill="#000000">runFunction</text>
</g>
<!-- strutils&#45;&gt;runFunction -->
<g id="edge46" class="edge">
<title>strutils&#45;&gt;runFunction</title>
<path fill="none" stroke="#000000" d="M104.079,-669.7276C164.1354,-590.5711 373.1261,-319.4859 463.3343,-259.4917 471.648,-253.9626 481.1887,-249.4812 490.7513,-245.8771"/>
<polygon fill="#000000" stroke="#000000" points="491.9845,-249.1538 500.2766,-242.559 489.6818,-242.5434 491.9845,-249.1538"/>
</g>
<!-- unicodes -->
<g id="node32" class="node">
<title>unicodes</title>
<ellipse fill="none" stroke="#000000" cx="545.1518" cy="-178.4917" rx="41.5852" ry="18"/>
<text text-anchor="middle" x="545.1518" y="-174.2917" font-family="Times,serif" font-size="14.00" fill="#000000">unicodes</text>
</g>
<!-- strutils&#45;&gt;unicodes -->
<g id="edge51" class="edge">
<title>strutils&#45;&gt;unicodes</title>
<path fill="none" stroke="#000000" d="M103.4491,-669.5556C168.5493,-579.2847 415.072,-239.638 463.3343,-205.4917 473.4463,-198.3374 485.5778,-192.9863 497.364,-189.0205"/>
<polygon fill="#000000" stroke="#000000" points="498.6084,-192.2995 507.1314,-186.0059 496.5439,-185.6108 498.6084,-192.2995"/>
</g>
<!-- signatures -->
<g id="node33" class="node">
<title>signatures</title>
<ellipse fill="none" stroke="#000000" cx="545.1518" cy="-502.4917" rx="45.9286" ry="18"/>
<text text-anchor="middle" x="545.1518" y="-498.2917" font-family="Times,serif" font-size="14.00" fill="#000000">signatures</text>
</g>
<!-- strutils&#45;&gt;signatures -->
<g id="edge53" class="edge">
<title>strutils&#45;&gt;signatures</title>
<path fill="none" stroke="#000000" d="M124.809,-674.1722C191.7345,-643.2584 337.3425,-577.3394 463.3343,-529.4917 474.8051,-525.1355 487.3255,-520.7987 499.0451,-516.9162"/>
<polygon fill="#000000" stroke="#000000" points="500.244,-520.2066 508.6605,-513.7713 498.0679,-513.5534 500.244,-520.2066"/>
</g>
<!-- replacement -->
<g id="node36" class="node">
<title>replacement</title>
<ellipse fill="none" stroke="#000000" cx="545.1518" cy="-1096.4917" rx="53.1281" ry="18"/>
<text text-anchor="middle" x="545.1518" y="-1092.2917" font-family="Times,serif" font-size="14.00" fill="#000000">replacement</text>
</g>
<!-- strutils&#45;&gt;replacement -->
<g id="edge62" class="edge">
<title>strutils&#45;&gt;replacement</title>
<path fill="none" stroke="#000000" d="M103.3502,-713.3655C150.4487,-777.5187 297.6677,-967.0933 463.3343,-1069.4917 471.9227,-1074.8002 481.6703,-1079.1864 491.3686,-1082.7677"/>
<polygon fill="#000000" stroke="#000000" points="490.4111,-1086.1396 501.0058,-1086.0849 492.6894,-1079.5207 490.4111,-1086.1396"/>
</g>
<!-- options -->
<g id="node3" class="node">
<title>options</title>
<ellipse fill="none" stroke="#000000" cx="87.6672" cy="-534.4917" rx="61.0788" ry="22.7556"/>
<text text-anchor="middle" x="87.6672" y="-527.2917" font-family="Times,serif" font-size="24.00" fill="#000000">options</text>
</g>
<!-- parseCommandLine -->
<g id="node4" class="node">
<title>parseCommandLine</title>
<ellipse fill="none" stroke="#000000" cx="545.1518" cy="-340.4917" rx="81.6354" ry="18"/>
<text text-anchor="middle" x="545.1518" y="-336.2917" font-family="Times,serif" font-size="14.00" fill="#000000">parseCommandLine</text>
</g>
<!-- options&#45;&gt;parseCommandLine -->
<g id="edge2" class="edge">
<title>options&#45;&gt;parseCommandLine</title>
<path fill="none" stroke="#000000" d="M125.0037,-516.4031C191.9381,-484.3126 337.1617,-416.2159 463.3343,-367.4917 471.2573,-364.4321 479.6908,-361.4014 488.0184,-358.5374"/>
<polygon fill="#000000" stroke="#000000" points="489.3573,-361.7794 497.7088,-355.2601 487.1146,-355.1484 489.3573,-361.7794"/>
</g>
<!-- regexes -->
<g id="node9" class="node">
<title>regexes</title>
<ellipse fill="none" stroke="#000000" cx="545.1518" cy="-124.4917" rx="37.2248" ry="18"/>
<text text-anchor="middle" x="545.1518" y="-120.2917" font-family="Times,serif" font-size="14.00" fill="#000000">regexes</text>
</g>
<!-- options&#45;&gt;regexes -->
<g id="edge7" class="edge">
<title>options&#45;&gt;regexes</title>
<path fill="none" stroke="#000000" d="M123.0122,-515.9635C139.6797,-506.4357 159.3638,-493.9958 175.3343,-480.4917 323.7278,-355.0154 301.3442,-258.8424 463.3343,-151.4917 474.6612,-143.9854 488.252,-138.4065 501.0737,-134.3323"/>
<polygon fill="#000000" stroke="#000000" points="502.0749,-137.6862 510.6783,-131.5031 500.0968,-130.9715 502.0749,-137.6862"/>
</g>
<!-- options&#45;&gt;processTemplate -->
<g id="edge14" class="edge">
<title>options&#45;&gt;processTemplate</title>
<path fill="none" stroke="#000000" d="M111.9662,-555.5733C169.435,-604.5121 319.697,-727.1513 463.3343,-799.4917 471.0994,-803.4025 479.5562,-806.9293 487.9903,-810.0448"/>
<polygon fill="#000000" stroke="#000000" points="486.8701,-813.361 497.465,-813.3862 489.1983,-806.7595 486.8701,-813.361"/>
</g>
<!-- options&#45;&gt;env -->
<g id="edge20" class="edge">
<title>options&#45;&gt;env</title>
<path fill="none" stroke="#000000" d="M103.565,-556.3623C121.426,-581.1147 151.0899,-622.7727 175.3343,-659.4917 309.0707,-862.041 272.64,-973.3342 463.3343,-1123.4917 476.3201,-1133.7171 493.3393,-1140.1456 508.4904,-1144.1498"/>
<polygon fill="#000000" stroke="#000000" points="508.0706,-1147.6474 518.6086,-1146.5515 509.6873,-1140.8366 508.0706,-1147.6474"/>
</g>
<!-- options&#45;&gt;tempFile -->
<g id="edge25" class="edge">
<title>options&#45;&gt;tempFile</title>
<path fill="none" stroke="#000000" d="M104.3144,-556.2712C164.7404,-634.8463 373.6505,-902.2188 463.3343,-961.4917 473.6683,-968.3216 485.8781,-973.5581 497.6688,-977.5174"/>
<polygon fill="#000000" stroke="#000000" points="496.8358,-980.9236 507.424,-980.5497 498.9137,-974.2391 496.8358,-980.9236"/>
</g>
<!-- options&#45;&gt;matches -->
<g id="edge28" class="edge">
<title>options&#45;&gt;matches</title>
<path fill="none" stroke="#000000" d="M148.8909,-537.4359C240.6294,-541.8475 411.9448,-550.0859 496.0327,-554.1297"/>
<polygon fill="#000000" stroke="#000000" points="495.9305,-557.6287 506.0871,-554.6132 496.2668,-550.6368 495.9305,-557.6287"/>
</g>
<!-- readlines -->
<g id="node19" class="node">
<title>readlines</title>
<ellipse fill="none" stroke="#000000" cx="545.1518" cy="-1042.4917" rx="42.0524" ry="18"/>
<text text-anchor="middle" x="545.1518" y="-1038.2917" font-family="Times,serif" font-size="14.00" fill="#000000">readlines</text>
</g>
<!-- options&#45;&gt;readlines -->
<g id="edge30" class="edge">
<title>options&#45;&gt;readlines</title>
<path fill="none" stroke="#000000" d="M103.6822,-556.5047C169.1655,-646.2988 415.3515,-981.7233 463.3343,-1015.4917 473.3686,-1022.5535 485.3732,-1027.8619 497.0549,-1031.8156"/>
<polygon fill="#000000" stroke="#000000" points="496.1531,-1035.2004 506.7414,-1034.8267 498.2311,-1028.5159 496.1531,-1035.2004"/>
</g>
<!-- parseCmdLine -->
<g id="node20" class="node">
<title>parseCmdLine</title>
<ellipse fill="none" stroke="#000000" cx="545.1518" cy="-286.4917" rx="62.3407" ry="18"/>
<text text-anchor="middle" x="545.1518" y="-282.2917" font-family="Times,serif" font-size="14.00" fill="#000000">parseCmdLine</text>
</g>
<!-- options&#45;&gt;parseCmdLine -->
<g id="edge31" class="edge">
<title>options&#45;&gt;parseCmdLine</title>
<path fill="none" stroke="#000000" d="M119.7672,-515.0769C204.0589,-464.1712 427.6635,-329.6468 463.3343,-313.4917 472.1324,-309.5071 481.6974,-305.8149 491.0827,-302.521"/>
<polygon fill="#000000" stroke="#000000" points="492.4139,-305.7654 500.7584,-299.2371 490.1641,-299.1368 492.4139,-305.7654"/>
</g>
<!-- options&#45;&gt;runCommand -->
<g id="edge34" class="edge">
<title>options&#45;&gt;runCommand</title>
<path fill="none" stroke="#000000" d="M143.7638,-543.8108C229.8024,-558.1041 393.7516,-585.3403 483.1876,-600.1979"/>
<polygon fill="#000000" stroke="#000000" points="482.7489,-603.6729 493.1874,-601.8591 483.8962,-596.7675 482.7489,-603.6729"/>
</g>
<!-- parseNumber -->
<g id="node24" class="node">
<title>parseNumber</title>
<ellipse fill="none" stroke="#000000" cx="545.1518" cy="-49.4917" rx="57.9892" ry="18"/>
<text text-anchor="middle" x="545.1518" y="-45.2917" font-family="Times,serif" font-size="14.00" fill="#000000">parseNumber</text>
</g>
<!-- options&#45;&gt;parseNumber -->
<g id="edge38" class="edge">
<title>options&#45;&gt;parseNumber</title>
<path fill="none" stroke="#000000" d="M123.8962,-516.2378C140.5717,-506.8561 160.0085,-494.4592 175.3343,-480.4917 332.7468,-337.0312 304.3877,-239.2506 463.3343,-97.4917 475.4328,-86.7015 490.3243,-77.1124 504.072,-69.3959"/>
<polygon fill="#000000" stroke="#000000" points="505.7826,-72.4498 512.9002,-64.6018 502.4421,-66.2983 505.7826,-72.4498"/>
</g>
<!-- options&#45;&gt;variables -->
<g id="edge41" class="edge">
<title>options&#45;&gt;variables</title>
<path fill="none" stroke="#000000" d="M134.9029,-520.0366C223.7308,-492.8534 414.4776,-434.4808 500.9367,-408.0225"/>
<polygon fill="#000000" stroke="#000000" points="502.1651,-411.3069 510.7031,-405.0338 500.1167,-404.6133 502.1651,-411.3069"/>
</g>
<!-- options&#45;&gt;runFunction -->
<g id="edge44" class="edge">
<title>options&#45;&gt;runFunction</title>
<path fill="none" stroke="#000000" d="M120.649,-515.2682C137.3035,-505.288 157.6703,-492.6621 175.3343,-480.4917 308.1953,-388.9518 320.7213,-334.9445 463.3343,-259.4917 472.6523,-254.5618 483.0408,-250.3 493.2041,-246.712"/>
<polygon fill="#000000" stroke="#000000" points="494.4705,-249.9789 502.837,-243.4787 492.243,-243.3428 494.4705,-249.9789"/>
</g>
<!-- options&#45;&gt;signatures -->
<g id="edge54" class="edge">
<title>options&#45;&gt;signatures</title>
<path fill="none" stroke="#000000" d="M147.9457,-530.2754C237.1267,-524.0374 402.9691,-512.4371 489.4437,-506.3884"/>
<polygon fill="#000000" stroke="#000000" points="489.8541,-509.8683 499.5855,-505.679 489.3656,-502.8854 489.8541,-509.8683"/>
</g>
<!-- options&#45;&gt;replacement -->
<g id="edge59" class="edge">
<title>options&#45;&gt;replacement</title>
<path fill="none" stroke="#000000" d="M103.0584,-556.4352C173.5896,-656.9898 462.5343,-1068.8978 463.3343,-1069.4917 471.178,-1075.3156 480.3449,-1079.9252 489.6493,-1083.5611"/>
<polygon fill="#000000" stroke="#000000" points="488.7508,-1086.9563 499.3455,-1087.0077 491.0953,-1080.3605 488.7508,-1086.9563"/>
</g>
<!-- tables -->
<g id="node5" class="node">
<title>tables</title>
<ellipse fill="none" stroke="#000000" cx="87.6672" cy="-448.4917" rx="50.796" ry="22.7556"/>
<text text-anchor="middle" x="87.6672" y="-441.2917" font-family="Times,serif" font-size="24.00" fill="#000000">tables</text>
</g>
<!-- tables&#45;&gt;parseCommandLine -->
<g id="edge3" class="edge">
<title>tables&#45;&gt;parseCommandLine</title>
<path fill="none" stroke="#000000" d="M132.7846,-437.8407C213.9112,-418.6889 384.7292,-378.3633 479.0672,-356.0926"/>
<polygon fill="#000000" stroke="#000000" points="480.1385,-359.4359 489.0668,-353.7319 478.5302,-352.6232 480.1385,-359.4359"/>
</g>
<!-- tables&#45;&gt;regexes -->
<g id="edge8" class="edge">
<title>tables&#45;&gt;regexes</title>
<path fill="none" stroke="#000000" d="M111.2504,-428.0412C180.978,-367.8723 386.1022,-193.0706 463.3343,-151.4917 475.4039,-144.9939 489.3167,-139.6883 502.2065,-135.554"/>
<polygon fill="#000000" stroke="#000000" points="503.2741,-138.8876 511.8165,-132.6204 501.2303,-132.1926 503.2741,-138.8876"/>
</g>
<!-- tables&#45;&gt;cmdline -->
<g id="edge10" class="edge">
<title>tables&#45;&gt;cmdline</title>
<path fill="none" stroke="#000000" d="M117.8247,-466.7743C134.7943,-477.1352 156.3285,-490.4055 175.3343,-502.4917 304.5257,-584.6477 325.4583,-624.932 463.3343,-691.4917 475.3451,-697.2899 488.9145,-702.3245 501.4999,-706.4241"/>
<polygon fill="#000000" stroke="#000000" points="500.7444,-709.8552 511.3336,-709.5081 502.8392,-703.1759 500.7444,-709.8552"/>
</g>
<!-- tables&#45;&gt;processTemplate -->
<g id="edge15" class="edge">
<title>tables&#45;&gt;processTemplate</title>
<path fill="none" stroke="#000000" d="M120.1842,-465.9276C137.2808,-475.724 158.1885,-488.7276 175.3343,-502.4917 318.7182,-617.5963 307.5271,-701.8593 463.3343,-799.4917 470.0184,-803.6801 477.4205,-807.2887 484.9612,-810.3785"/>
<polygon fill="#000000" stroke="#000000" points="483.9521,-813.7392 494.5433,-814.0195 486.4386,-807.1957 483.9521,-813.7392"/>
</g>
<!-- tables&#45;&gt;matches -->
<g id="edge27" class="edge">
<title>tables&#45;&gt;matches</title>
<path fill="none" stroke="#000000" d="M132.7846,-459.1428C220.4952,-479.8489 413.0463,-525.3051 500.4359,-545.9355"/>
<polygon fill="#000000" stroke="#000000" points="499.7719,-549.3749 510.3086,-548.2662 501.3803,-542.5622 499.7719,-549.3749"/>
</g>
<!-- tables&#45;&gt;parseCmdLine -->
<g id="edge32" class="edge">
<title>tables&#45;&gt;parseCmdLine</title>
<path fill="none" stroke="#000000" d="M127.0296,-433.9619C195.2946,-408.8498 340.1532,-355.9418 463.3343,-313.4917 473.1937,-310.094 483.7512,-306.5444 493.8953,-303.1777"/>
<polygon fill="#000000" stroke="#000000" points="495.0619,-306.4784 503.4581,-300.0167 492.8649,-299.8321 495.0619,-306.4784"/>
</g>
<!-- tables&#45;&gt;vartypes -->
<g id="edge36" class="edge">
<title>tables&#45;&gt;vartypes</title>
<path fill="none" stroke="#000000" d="M138.8148,-448.4917C227.0922,-448.4917 407.0047,-448.4917 494.7576,-448.4917"/>
<polygon fill="#000000" stroke="#000000" points="494.99,-451.9918 504.99,-448.4917 494.9899,-444.9918 494.99,-451.9918"/>
</g>
<!-- tables&#45;&gt;variables -->
<g id="edge42" class="edge">
<title>tables&#45;&gt;variables</title>
<path fill="none" stroke="#000000" d="M137.0607,-442.6615C224.6257,-432.3256 406.1608,-410.8978 494.5689,-400.4624"/>
<polygon fill="#000000" stroke="#000000" points="495.0998,-403.9241 504.6205,-399.2759 494.2792,-396.9724 495.0998,-403.9241"/>
</g>
<!-- tables&#45;&gt;runFunction -->
<g id="edge45" class="edge">
<title>tables&#45;&gt;runFunction</title>
<path fill="none" stroke="#000000" d="M119.0846,-430.6869C182.6772,-395.1001 331.7898,-313.9392 463.3343,-259.4917 473.4926,-255.2871 484.5621,-251.2712 495.1823,-247.6823"/>
<polygon fill="#000000" stroke="#000000" points="496.3739,-250.9747 504.7702,-244.5132 494.177,-244.3284 496.3739,-250.9747"/>
</g>
<!-- tables&#45;&gt;signatures -->
<g id="edge52" class="edge">
<title>tables&#45;&gt;signatures</title>
<path fill="none" stroke="#000000" d="M137.0607,-454.322C223.491,-464.5239 401.4718,-485.5322 491.0855,-496.1099"/>
<polygon fill="#000000" stroke="#000000" points="490.7011,-499.5888 501.0425,-497.2852 491.5217,-492.637 490.7011,-499.5888"/>
</g>
<!-- readjson -->
<g id="node34" class="node">
<title>readjson</title>
<ellipse fill="none" stroke="#000000" cx="545.1518" cy="-1204.4917" rx="40.1317" ry="18"/>
<text text-anchor="middle" x="545.1518" y="-1200.2917" font-family="Times,serif" font-size="14.00" fill="#000000">readjson</text>
</g>
<!-- tables&#45;&gt;readjson -->
<g id="edge58" class="edge">
<title>tables&#45;&gt;readjson</title>
<path fill="none" stroke="#000000" d="M124.1891,-464.4865C141.5332,-473.5721 161.4524,-486.3737 175.3343,-502.4917 388.1875,-749.6304 223.1614,-956.8088 463.3343,-1177.4917 472.7205,-1186.1163 484.9241,-1191.9908 497.0292,-1195.9905"/>
<polygon fill="#000000" stroke="#000000" points="496.0797,-1199.3593 506.6605,-1198.8129 498.0483,-1192.6418 496.0797,-1199.3593"/>
</g>
<!-- re -->
<g id="node8" class="node">
<title>re</title>
<polygon fill="#98fb98" stroke="#000000" points="114.6672,-93.3499 114.6672,-113.6336 98.8509,-127.9764 76.4834,-127.9764 60.6672,-113.6336 60.6672,-93.3499 76.4834,-79.0071 98.8509,-79.0071 114.6672,-93.3499"/>
<polygon fill="none" stroke="#000000" points="118.6672,-91.5783 118.6672,-115.4052 100.3948,-131.9752 74.9395,-131.9752 56.6672,-115.4052 56.6672,-91.5783 74.9395,-75.0083 100.3948,-75.0083 118.6672,-91.5783"/>
<text text-anchor="middle" x="87.6672" y="-96.2917" font-family="Times,serif" font-size="24.00" fill="#000000">re</text>
</g>
<!-- re&#45;&gt;regexes -->
<g id="edge6" class="edge">
<title>re&#45;&gt;regexes</title>
<path fill="none" stroke="#000000" d="M118.7523,-104.9186C197.3552,-108.5268 404.4319,-118.0322 498.0297,-122.3287"/>
<polygon fill="#000000" stroke="#000000" points="497.9148,-125.827 508.0648,-122.7893 498.2358,-118.8344 497.9148,-125.827"/>
</g>
<!-- os -->
<g id="node10" class="node">
<title>os</title>
<ellipse fill="none" stroke="#000000" cx="87.6672" cy="-919.4917" rx="27" ry="22.7556"/>
<text text-anchor="middle" x="87.6672" y="-912.2917" font-family="Times,serif" font-size="24.00" fill="#000000">os</text>
</g>
<!-- os&#45;&gt;statictea -->
<g id="edge63" class="edge">
<title>os&#45;&gt;statictea</title>
<path fill="none" stroke="#000000" d="M114.9149,-920.3851C189.8959,-922.8436 400.0777,-929.7351 496.1377,-932.8847"/>
<polygon fill="#000000" stroke="#000000" points="496.0622,-936.384 506.1716,-933.2137 496.2917,-929.3877 496.0622,-936.384"/>
</g>
<!-- os&#45;&gt;cmdline -->
<g id="edge9" class="edge">
<title>os&#45;&gt;cmdline</title>
<path fill="none" stroke="#000000" d="M110.9903,-907.5395C169.3815,-877.8708 326.9637,-799.3683 463.3343,-745.4917 476.0829,-740.4551 490.1887,-735.5645 503.0462,-731.3608"/>
<polygon fill="#000000" stroke="#000000" points="504.1448,-734.6841 512.592,-728.2891 502.0006,-728.0206 504.1448,-734.6841"/>
</g>
<!-- os&#45;&gt;processTemplate -->
<g id="edge13" class="edge">
<title>os&#45;&gt;processTemplate</title>
<path fill="none" stroke="#000000" d="M113.9067,-914.1576C184.1887,-899.8703 378.2647,-860.4175 480.392,-839.6565"/>
<polygon fill="#000000" stroke="#000000" points="481.1783,-843.0683 490.2806,-837.6463 479.7837,-836.2086 481.1783,-843.0683"/>
</g>
<!-- os&#45;&gt;env -->
<g id="edge18" class="edge">
<title>os&#45;&gt;env</title>
<path fill="none" stroke="#000000" d="M113.1212,-927.3699C130.9006,-933.2116 154.9986,-941.814 175.3343,-951.4917 309.9567,-1015.5585 327.7276,-1061.5355 463.3343,-1123.4917 478.2575,-1130.3099 495.4128,-1136.2421 510.1479,-1140.7958"/>
<polygon fill="#000000" stroke="#000000" points="509.3213,-1144.2019 519.9053,-1143.7222 511.3322,-1137.4969 509.3213,-1144.2019"/>
</g>
<!-- os&#45;&gt;tempFile -->
<g id="edge22" class="edge">
<title>os&#45;&gt;tempFile</title>
<path fill="none" stroke="#000000" d="M114.2409,-923.4997C188.4832,-934.6973 398.9637,-966.443 495.5717,-981.0138"/>
<polygon fill="#000000" stroke="#000000" points="495.2563,-984.5058 505.6664,-982.5364 496.3003,-977.5841 495.2563,-984.5058"/>
</g>
<!-- os&#45;&gt;runFunction -->
<g id="edge48" class="edge">
<title>os&#45;&gt;runFunction</title>
<path fill="none" stroke="#000000" d="M97.1857,-898.3132C143.5369,-795.988 348.0564,-353.8705 463.3343,-259.4917 470.8075,-253.3734 479.716,-248.6237 488.8602,-244.9416"/>
<polygon fill="#000000" stroke="#000000" points="490.2137,-248.174 498.4246,-241.4782 487.8303,-241.5922 490.2137,-248.174"/>
</g>
<!-- os&#45;&gt;readjson -->
<g id="edge56" class="edge">
<title>os&#45;&gt;readjson</title>
<path fill="none" stroke="#000000" d="M113.5316,-926.5736C131.4993,-932.05 155.6536,-940.5432 175.3343,-951.4917 317.5191,-1030.5902 319.9314,-1100.6238 463.3343,-1177.4917 474.7771,-1183.6254 487.8658,-1188.7036 500.169,-1192.7369"/>
<polygon fill="#000000" stroke="#000000" points="499.2324,-1196.1111 509.821,-1195.7478 501.317,-1189.4286 499.2324,-1196.1111"/>
</g>
<!-- streams -->
<g id="node12" class="node">
<title>streams</title>
<ellipse fill="none" stroke="#000000" cx="87.6672" cy="-1132.4917" rx="63.3073" ry="22.7556"/>
<text text-anchor="middle" x="87.6672" y="-1125.2917" font-family="Times,serif" font-size="24.00" fill="#000000">streams</text>
</g>
<!-- streams&#45;&gt;processTemplate -->
<g id="edge12" class="edge">
<title>streams&#45;&gt;processTemplate</title>
<path fill="none" stroke="#000000" d="M136.8475,-1118.043C149.7901,-1113.3119 163.448,-1107.4474 175.3343,-1100.4917 320.8739,-1015.3249 316.4822,-936.375 463.3343,-853.4917 470.4652,-849.4671 478.2876,-845.929 486.1797,-842.8535"/>
<polygon fill="#000000" stroke="#000000" points="487.6131,-846.056 495.7991,-839.3299 485.2054,-839.4831 487.6131,-846.056"/>
</g>
<!-- streams&#45;&gt;env -->
<g id="edge17" class="edge">
<title>streams&#45;&gt;env</title>
<path fill="none" stroke="#000000" d="M150.7981,-1134.9757C247.484,-1138.7798 429.2535,-1145.9317 507.6237,-1149.0152"/>
<polygon fill="#000000" stroke="#000000" points="507.8463,-1152.5265 517.9762,-1149.4225 508.1216,-1145.532 507.8463,-1152.5265"/>
</g>
<!-- streams&#45;&gt;readlines -->
<g id="edge29" class="edge">
<title>streams&#45;&gt;readlines</title>
<path fill="none" stroke="#000000" d="M143.3064,-1121.546C233.8063,-1103.7421 411.3651,-1068.8113 496.8729,-1051.9895"/>
<polygon fill="#000000" stroke="#000000" points="497.696,-1055.3948 506.8323,-1050.0302 496.3448,-1048.5264 497.696,-1055.3948"/>
</g>
<!-- collectCommand -->
<g id="node21" class="node">
<title>collectCommand</title>
<ellipse fill="none" stroke="#000000" cx="545.1518" cy="-1258.4917" rx="70.5427" ry="18"/>
<text text-anchor="middle" x="545.1518" y="-1254.2917" font-family="Times,serif" font-size="14.00" fill="#000000">collectCommand</text>
</g>
<!-- streams&#45;&gt;collectCommand -->
<g id="edge33" class="edge">
<title>streams&#45;&gt;collectCommand</title>
<path fill="none" stroke="#000000" d="M137.9347,-1146.3364C223.5101,-1169.9055 396.99,-1217.6852 487.4068,-1242.5877"/>
<polygon fill="#000000" stroke="#000000" points="486.6457,-1246.0083 497.2161,-1245.2893 488.5044,-1239.2596 486.6457,-1246.0083"/>
</g>
<!-- streams&#45;&gt;readjson -->
<g id="edge55" class="edge">
<title>streams&#45;&gt;readjson</title>
<path fill="none" stroke="#000000" d="M145.6079,-1141.6106C236.8925,-1155.9772 412.4934,-1183.6137 497.1694,-1196.9402"/>
<polygon fill="#000000" stroke="#000000" points="496.8549,-1200.4337 507.2774,-1198.531 497.9432,-1193.5188 496.8549,-1200.4337"/>
</g>
<!-- streams&#45;&gt;replacement -->
<g id="edge60" class="edge">
<title>streams&#45;&gt;replacement</title>
<path fill="none" stroke="#000000" d="M149.3656,-1127.6366C236.6387,-1120.769 395.2441,-1108.2882 482.8465,-1101.3946"/>
<polygon fill="#000000" stroke="#000000" points="483.2147,-1104.8766 492.9093,-1100.6028 482.6655,-1097.8981 483.2147,-1104.8766"/>
</g>
<!-- times -->
<g id="node15" class="node">
<title>times</title>
<polygon fill="#98fb98" stroke="#000000" points="139.7481,-1191.3499 139.7481,-1211.6336 109.2398,-1225.9764 66.0945,-1225.9764 35.5862,-1211.6336 35.5862,-1191.3499 66.0945,-1177.0071 109.2398,-1177.0071 139.7481,-1191.3499"/>
<polygon fill="none" stroke="#000000" points="143.7511,-1188.8122 143.7511,-1214.1712 110.1347,-1229.9752 65.1997,-1229.9752 31.5832,-1214.1712 31.5832,-1188.8122 65.1997,-1173.0083 110.1347,-1173.0083 143.7511,-1188.8122"/>
<text text-anchor="middle" x="87.6672" y="-1194.2917" font-family="Times,serif" font-size="24.00" fill="#000000">times</text>
</g>
<!-- times&#45;&gt;env -->
<g id="edge19" class="edge">
<title>times&#45;&gt;env</title>
<path fill="none" stroke="#000000" d="M143.7638,-1195.2381C238.6409,-1184.6613 428.2582,-1163.5229 508.2261,-1154.6082"/>
<polygon fill="#000000" stroke="#000000" points="508.765,-1158.0699 518.3157,-1153.4834 507.9894,-1151.113 508.765,-1158.0699"/>
</g>
<!-- random -->
<g id="node17" class="node">
<title>random</title>
<polygon fill="#98fb98" stroke="#000000" points="155.889,-978.3499 155.889,-998.6336 115.9256,-1012.9764 59.4087,-1012.9764 19.4453,-998.6336 19.4453,-978.3499 59.4087,-964.0071 115.9256,-964.0071 155.889,-978.3499"/>
<polygon fill="none" stroke="#000000" points="159.8811,-975.5349 159.8811,-1001.4486 116.6191,-1016.9752 58.7152,-1016.9752 15.4532,-1001.4486 15.4532,-975.5349 58.7152,-960.0083 116.6191,-960.0083 159.8811,-975.5349"/>
<text text-anchor="middle" x="87.6672" y="-981.2917" font-family="Times,serif" font-size="24.00" fill="#000000">random</text>
</g>
<!-- random&#45;&gt;tempFile -->
<g id="edge23" class="edge">
<title>random&#45;&gt;tempFile</title>
<path fill="none" stroke="#000000" d="M159.9045,-988.4917C252.7469,-988.4917 411.6729,-988.4917 493.3462,-988.4917"/>
<polygon fill="#000000" stroke="#000000" points="493.3906,-991.9918 503.3905,-988.4917 493.3905,-984.9918 493.3906,-991.9918"/>
</g>
<!-- parseutils -->
<g id="node25" class="node">
<title>parseutils</title>
<polygon fill="#98fb98" stroke="#000000" points="170.4501,-18.3499 170.4501,-38.6336 121.957,-52.9764 53.3774,-52.9764 4.8843,-38.6336 4.8843,-18.3499 53.3774,-4.0071 121.957,-4.0071 170.4501,-18.3499"/>
<polygon fill="none" stroke="#000000" points="174.4567,-15.3642 174.4567,-41.6193 122.5382,-56.9752 52.7962,-56.9752 .8776,-41.6193 .8776,-15.3642 52.7962,-.0083 122.5382,-.0083 174.4567,-15.3642"/>
<text text-anchor="middle" x="87.6672" y="-21.2917" font-family="Times,serif" font-size="24.00" fill="#000000">parseutils</text>
</g>
<!-- parseutils&#45;&gt;parseNumber -->
<g id="edge39" class="edge">
<title>parseutils&#45;&gt;parseNumber</title>
<path fill="none" stroke="#000000" d="M174.5237,-32.4787C262.7471,-36.5285 397.5093,-42.7145 477.9158,-46.4054"/>
<polygon fill="#000000" stroke="#000000" points="477.7765,-49.9026 487.9265,-46.8649 478.0976,-42.91 477.7765,-49.9026"/>
</g>
<!-- math -->
<g id="node29" class="node">
<title>math</title>
<polygon fill="#98fb98" stroke="#000000" points="136.6181,-318.3499 136.6181,-338.6336 107.9433,-352.9764 67.391,-352.9764 38.7162,-338.6336 38.7162,-318.3499 67.391,-304.0071 107.9433,-304.0071 136.6181,-318.3499"/>
<polygon fill="none" stroke="#000000" points="140.6162,-315.8787 140.6162,-341.1048 108.8873,-356.9752 66.447,-356.9752 34.7181,-341.1048 34.7181,-315.8787 66.447,-300.0083 108.8873,-300.0083 140.6162,-315.8787"/>
<text text-anchor="middle" x="87.6672" y="-321.2917" font-family="Times,serif" font-size="24.00" fill="#000000">math</text>
</g>
<!-- math&#45;&gt;runFunction -->
<g id="edge47" class="edge">
<title>math&#45;&gt;runFunction</title>
<path fill="none" stroke="#000000" d="M141.0418,-317.2914C228.4196,-298.9558 401.119,-262.716 489.7786,-244.1114"/>
<polygon fill="#000000" stroke="#000000" points="490.5771,-247.5202 499.6451,-242.041 489.1395,-240.6694 490.5771,-247.5202"/>
</g>
<!-- algorithm -->
<g id="node30" class="node">
<title>algorithm</title>
<polygon fill="#98fb98" stroke="#000000" points="171.4941,-243.3499 171.4941,-263.6336 122.3894,-277.9764 52.9449,-277.9764 3.8402,-263.6336 3.8402,-243.3499 52.9449,-229.0071 122.3894,-229.0071 171.4941,-243.3499"/>
<polygon fill="none" stroke="#000000" points="175.5018,-240.3538 175.5018,-266.6297 122.964,-281.9752 52.3704,-281.9752 -.1675,-266.6297 -.1675,-240.3538 52.3704,-225.0083 122.964,-225.0083 175.5018,-240.3538"/>
<text text-anchor="middle" x="87.6672" y="-246.2917" font-family="Times,serif" font-size="24.00" fill="#000000">algorithm</text>
</g>
<!-- algorithm&#45;&gt;runFunction -->
<g id="edge49" class="edge">
<title>algorithm&#45;&gt;runFunction</title>
<path fill="none" stroke="#000000" d="M175.604,-249.4552C265.2753,-245.339 402.1958,-239.0539 481.7697,-235.4012"/>
<polygon fill="#000000" stroke="#000000" points="482.3026,-238.8805 492.1315,-234.9255 481.9815,-231.8879 482.3026,-238.8805"/>
</g>
<!-- unicode -->
<g id="node31" class="node">
<title>unicode</title>
<polygon fill="#98fb98" stroke="#000000" points="157.9587,-168.3499 157.9587,-188.6336 116.7829,-202.9764 58.5514,-202.9764 17.3756,-188.6336 17.3756,-168.3499 58.5514,-154.0071 116.7829,-154.0071 157.9587,-168.3499"/>
<polygon fill="none" stroke="#000000" points="161.953,-165.5072 161.953,-191.4763 117.4579,-206.9752 57.8764,-206.9752 13.3814,-191.4763 13.3814,-165.5072 57.8764,-150.0083 117.4579,-150.0083 161.953,-165.5072"/>
<text text-anchor="middle" x="87.6672" y="-171.2917" font-family="Times,serif" font-size="24.00" fill="#000000">unicode</text>
</g>
<!-- unicode&#45;&gt;unicodes -->
<g id="edge50" class="edge">
<title>unicode&#45;&gt;unicodes</title>
<path fill="none" stroke="#000000" d="M162.1882,-178.4917C255.2358,-178.4917 412.0115,-178.4917 493.0927,-178.4917"/>
<polygon fill="#000000" stroke="#000000" points="493.5435,-181.9918 503.5435,-178.4917 493.5434,-174.9918 493.5435,-181.9918"/>
</g>
<!-- json -->
<g id="node35" class="node">
<title>json</title>
<polygon fill="#98fb98" stroke="#000000" points="130.4119,-1266.3499 130.4119,-1286.6336 105.3726,-1300.9764 69.9617,-1300.9764 44.9224,-1286.6336 44.9224,-1266.3499 69.9617,-1252.0071 105.3726,-1252.0071 130.4119,-1266.3499"/>
<polygon fill="none" stroke="#000000" points="134.4006,-1264.0291 134.4006,-1288.9544 106.4317,-1304.9752 68.9026,-1304.9752 40.9337,-1288.9544 40.9337,-1264.0291 68.9026,-1248.0083 106.4317,-1248.0083 134.4006,-1264.0291"/>
<text text-anchor="middle" x="87.6672" y="-1269.2917" font-family="Times,serif" font-size="24.00" fill="#000000">json</text>
</g>
<!-- json&#45;&gt;readjson -->
<g id="edge57" class="edge">
<title>json&#45;&gt;readjson</title>
<path fill="none" stroke="#000000" d="M134.4761,-1269.1248C221.8795,-1255.3691 409.0138,-1225.9175 497.2449,-1212.0314"/>
<polygon fill="#000000" stroke="#000000" points="497.9135,-1215.4694 507.2477,-1210.4572 496.8251,-1208.5545 497.9135,-1215.4694"/>
</g>
<!-- strformat -->
<g id="node37" class="node">
<title>strformat</title>
<polygon fill="#98fb98" stroke="#000000" points="167.318,-1053.3499 167.318,-1073.6336 120.6596,-1087.9764 54.6747,-1087.9764 8.0163,-1073.6336 8.0163,-1053.3499 54.6747,-1039.0071 120.6596,-1039.0071 167.318,-1053.3499"/>
<polygon fill="none" stroke="#000000" points="171.3217,-1050.3967 171.3217,-1076.5868 121.2618,-1091.9752 54.0725,-1091.9752 4.0126,-1076.5868 4.0126,-1050.3967 54.0725,-1035.0083 121.2618,-1035.0083 171.3217,-1050.3967"/>
<text text-anchor="middle" x="87.6672" y="-1056.2917" font-family="Times,serif" font-size="24.00" fill="#000000">strformat</text>
</g>
<!-- strformat&#45;&gt;replacement -->
<g id="edge61" class="edge">
<title>strformat&#45;&gt;replacement</title>
<path fill="none" stroke="#000000" d="M171.3108,-1069.5253C261.1909,-1076.0086 401.975,-1086.1639 482.6845,-1091.9857"/>
<polygon fill="#000000" stroke="#000000" points="482.476,-1095.4797 492.7019,-1092.7083 482.9797,-1088.4979 482.476,-1095.4797"/>
</g>
</g>
</svg>
