<?xml version="1.0" encoding="UTF-8" standalone="no"?>
<!DOCTYPE svg PUBLIC "-//W3C//DTD SVG 1.1//EN"
 "http://www.w3.org/Graphics/SVG/1.1/DTD/svg11.dtd">
<!-- Generated by graphviz version 2.40.1 (20161225.0304)
 -->
<!-- Title: statictea Pages: 1 -->
<svg width="720pt" height="340pt"
 viewBox="0.00 0.00 720.00 340.41" xmlns="http://www.w3.org/2000/svg" xmlns:xlink="http://www.w3.org/1999/xlink">
<g id="graph0" class="graph" transform="scale(.3184 .3184) rotate(0) translate(4 1065.186)">
<title>statictea</title>
<polygon fill="#ffffff" stroke="transparent" points="-4,4 -4,-1065.186 2257.4323,-1065.186 2257.4323,4 -4,4"/>
<!-- runFunction -->
<g id="node1" class="node">
<title>runFunction</title>
<g id="a_node1"><a xlink:href="runFunction.md" xlink:title="runFunction.md">
<ellipse fill="#eee8aa" stroke="#000000" cx="669" cy="-553" rx="94.055" ry="22.7556"/>
<text text-anchor="middle" x="669" y="-545.8" font-family="Times,serif" font-size="24.00" fill="#000000">runFunction</text>
</a>
</g>
</g>
<!-- parseNumber -->
<g id="node2" class="node">
<title>parseNumber</title>
<g id="a_node2"><a xlink:href="parseNumber.md" xlink:title="parseNumber.md">
<polygon fill="#98fb98" stroke="#000000" points="901.3805,-374.8581 901.3805,-395.1419 836.1353,-409.4846 743.8647,-409.4846 678.6195,-395.1419 678.6195,-374.8581 743.8647,-360.5154 836.1353,-360.5154 901.3805,-374.8581"/>
<polygon fill="none" stroke="#000000" points="905.3872,-371.6442 905.3872,-398.3558 836.5714,-413.4835 743.4286,-413.4835 674.6128,-398.3558 674.6128,-371.6442 743.4286,-356.5165 836.5714,-356.5165 905.3872,-371.6442"/>
<text text-anchor="middle" x="790" y="-377.8" font-family="Times,serif" font-size="24.00" fill="#000000">parseNumber</text>
</a>
</g>
</g>
<!-- runFunction&#45;&gt;parseNumber -->
<g id="edge45" class="edge">
<title>runFunction&#45;&gt;parseNumber</title>
<path fill="none" stroke="#000000" d="M685.0679,-530.6909C705.0989,-502.8792 739.6128,-454.9591 763.5626,-421.7065"/>
<polygon fill="#000000" stroke="#000000" points="766.4044,-423.7496 769.4087,-413.5896 760.7243,-419.6585 766.4044,-423.7496"/>
</g>
<!-- regexes -->
<g id="node3" class="node">
<title>regexes</title>
<g id="a_node3"><a xlink:href="regexes.md" xlink:title="regexes.md">
<polygon fill="#98fb98" stroke="#000000" points="1464.187,-207.8581 1464.187,-228.1419 1424.244,-242.4846 1367.756,-242.4846 1327.813,-228.1419 1327.813,-207.8581 1367.756,-193.5154 1424.244,-193.5154 1464.187,-207.8581"/>
<polygon fill="none" stroke="#000000" points="1468.1781,-205.0434 1468.1781,-230.9566 1424.9376,-246.4835 1367.0624,-246.4835 1323.8219,-230.9566 1323.8219,-205.0434 1367.0624,-189.5165 1424.9376,-189.5165 1468.1781,-205.0434"/>
<text text-anchor="middle" x="1396" y="-210.8" font-family="Times,serif" font-size="24.00" fill="#000000">regexes</text>
</a>
</g>
</g>
<!-- runFunction&#45;&gt;regexes -->
<g id="edge44" class="edge">
<title>runFunction&#45;&gt;regexes</title>
<path fill="none" stroke="#000000" d="M660.1504,-530.1919C646.2208,-490.0453 624.7647,-406.3031 666,-356.5083 747.5251,-258.0603 1140.3004,-229.0305 1313.5737,-220.9392"/>
<polygon fill="#000000" stroke="#000000" points="1313.8326,-224.4311 1323.6631,-220.4802 1313.5144,-217.4383 1313.8326,-224.4311"/>
</g>
<!-- vartypes -->
<g id="node8" class="node">
<title>vartypes</title>
<g id="a_node8"><a xlink:href="vartypes.md" xlink:title="vartypes.md">
<ellipse fill="#eee8aa" stroke="#000000" cx="509" cy="-385" rx="68.6102" ry="22.7556"/>
<text text-anchor="middle" x="509" y="-377.8" font-family="Times,serif" font-size="24.00" fill="#000000">vartypes</text>
</a>
</g>
</g>
<!-- runFunction&#45;&gt;vartypes -->
<g id="edge43" class="edge">
<title>runFunction&#45;&gt;vartypes</title>
<path fill="none" stroke="#000000" d="M647.7532,-530.6909C619.1862,-500.6955 568.3431,-447.3102 536.7734,-414.1621"/>
<polygon fill="#000000" stroke="#000000" points="539.0048,-411.43 529.5737,-406.6024 533.9358,-416.2576 539.0048,-411.43"/>
</g>
<!-- warnings -->
<g id="node12" class="node">
<title>warnings</title>
<g id="a_node12"><a xlink:href="warnings.md" xlink:title="warnings.md">
<polygon fill="#98fb98" stroke="#000000" points="588.6684,-40.8581 588.6684,-61.1419 541.9997,-75.4846 476.0003,-75.4846 429.3316,-61.1419 429.3316,-40.8581 476.0003,-26.5154 541.9997,-26.5154 588.6684,-40.8581"/>
<polygon fill="none" stroke="#000000" points="592.6725,-37.9048 592.6725,-64.0952 542.6019,-79.4835 475.3981,-79.4835 425.3275,-64.0952 425.3275,-37.9048 475.3981,-22.5165 542.6019,-22.5165 592.6725,-37.9048"/>
<text text-anchor="middle" x="509" y="-43.8" font-family="Times,serif" font-size="24.00" fill="#000000">warnings</text>
</a>
</g>
</g>
<!-- runFunction&#45;&gt;warnings -->
<g id="edge42" class="edge">
<title>runFunction&#45;&gt;warnings</title>
<path fill="none" stroke="#000000" d="M661.7094,-530.1256C636.5014,-451.0356 552.8505,-188.5808 521.2402,-89.4035"/>
<polygon fill="#000000" stroke="#000000" points="524.5435,-88.2419 518.172,-79.777 517.874,-90.3677 524.5435,-88.2419"/>
</g>
<!-- matches -->
<g id="node17" class="node">
<title>matches</title>
<g id="a_node17"><a xlink:href="matches.md" xlink:title="matches.md">
<ellipse fill="#eee8aa" stroke="#000000" cx="1412" cy="-385" rx="66.8311" ry="22.7556"/>
<text text-anchor="middle" x="1412" y="-377.8" font-family="Times,serif" font-size="24.00" fill="#000000">matches</text>
</a>
</g>
</g>
<!-- runFunction&#45;&gt;matches -->
<g id="edge46" class="edge">
<title>runFunction&#45;&gt;matches</title>
<path fill="none" stroke="#000000" d="M737.8998,-537.421C880.3936,-505.2017 1205.8479,-431.6131 1345.9044,-399.9449"/>
<polygon fill="#000000" stroke="#000000" points="1347.0832,-403.2668 1356.0651,-397.6475 1345.5394,-396.4391 1347.0832,-403.2668"/>
</g>
<!-- parseCmdLine -->
<g id="node4" class="node">
<title>parseCmdLine</title>
<g id="a_node4"><a xlink:href="parseCmdLine.md" xlink:title="parseCmdLine.md">
<ellipse fill="#eee8aa" stroke="#000000" cx="1532" cy="-553" rx="111.4463" ry="22.7556"/>
<text text-anchor="middle" x="1532" y="-545.8" font-family="Times,serif" font-size="24.00" fill="#000000">parseCmdLine</text>
</a>
</g>
</g>
<!-- parseCmdLine&#45;&gt;regexes -->
<g id="edge18" class="edge">
<title>parseCmdLine&#45;&gt;regexes</title>
<path fill="none" stroke="#000000" d="M1529.6536,-530.3749C1525.1826,-492.9408 1513.5182,-416.3134 1488,-356.5083 1472.1371,-319.3317 1446.1054,-281.3883 1425.7735,-254.6378"/>
<polygon fill="#000000" stroke="#000000" points="1428.54,-252.4939 1419.6641,-246.7086 1422.995,-256.7662 1428.54,-252.4939"/>
</g>
<!-- env -->
<g id="node5" class="node">
<title>env</title>
<g id="a_node5"><a xlink:href="env.md" xlink:title="env.md">
<ellipse fill="#eee8aa" stroke="#000000" cx="1732" cy="-218" rx="35.6342" ry="22.7556"/>
<text text-anchor="middle" x="1732" y="-210.8" font-family="Times,serif" font-size="24.00" fill="#000000">env</text>
</a>
</g>
</g>
<!-- parseCmdLine&#45;&gt;env -->
<g id="edge17" class="edge">
<title>parseCmdLine&#45;&gt;env</title>
<path fill="none" stroke="#000000" d="M1545.4331,-530.4995C1580.3982,-471.933 1674.2658,-314.7049 1713.9214,-248.2817"/>
<polygon fill="#000000" stroke="#000000" points="1717.0244,-249.9118 1719.1454,-239.5314 1711.0141,-246.3235 1717.0244,-249.9118"/>
</g>
<!-- parseCmdLine&#45;&gt;warnings -->
<g id="edge19" class="edge">
<title>parseCmdLine&#45;&gt;warnings</title>
<path fill="none" stroke="#000000" d="M1536.933,-529.9964C1549.2948,-465.3851 1574.0518,-281.0217 1477,-189.5083 1413.8266,-129.9399 833.4123,-77.1221 602.8137,-58.3087"/>
<polygon fill="#000000" stroke="#000000" points="603.0147,-54.8136 592.7641,-57.4923 602.4478,-61.7906 603.0147,-54.8136"/>
</g>
<!-- parseCmdLine&#45;&gt;matches -->
<g id="edge20" class="edge">
<title>parseCmdLine&#45;&gt;matches</title>
<path fill="none" stroke="#000000" d="M1515.8163,-530.3428C1494.616,-500.6624 1457.3684,-448.5158 1433.7276,-415.4187"/>
<polygon fill="#000000" stroke="#000000" points="1436.3975,-413.1348 1427.737,-407.0318 1430.7014,-417.2035 1436.3975,-413.1348"/>
</g>
<!-- tempFile -->
<g id="node7" class="node">
<title>tempFile</title>
<g id="a_node7"><a xlink:href="tempFile.md" xlink:title="tempFile.md">
<polygon fill="#98fb98" stroke="#000000" points="1590.598,-40.8581 1590.598,-61.1419 1545.1421,-75.4846 1480.8579,-75.4846 1435.402,-61.1419 1435.402,-40.8581 1480.8579,-26.5154 1545.1421,-26.5154 1590.598,-40.8581"/>
<polygon fill="none" stroke="#000000" points="1594.6004,-37.9275 1594.6004,-64.0725 1545.7591,-79.4835 1480.2409,-79.4835 1431.3996,-64.0725 1431.3996,-37.9275 1480.2409,-22.5165 1545.7591,-22.5165 1594.6004,-37.9275"/>
<text text-anchor="middle" x="1513" y="-43.8" font-family="Times,serif" font-size="24.00" fill="#000000">tempFile</text>
</a>
</g>
</g>
<!-- env&#45;&gt;tempFile -->
<g id="edge4" class="edge">
<title>env&#45;&gt;tempFile</title>
<path fill="none" stroke="#000000" d="M1708.9771,-200.4437C1673.0283,-173.0307 1602.9385,-119.5832 1557.0582,-84.5969"/>
<polygon fill="#000000" stroke="#000000" points="1559.1426,-81.7849 1549.0685,-78.5043 1554.898,-87.3512 1559.1426,-81.7849"/>
</g>
<!-- env&#45;&gt;warnings -->
<g id="edge5" class="edge">
<title>env&#45;&gt;warnings</title>
<path fill="none" stroke="#000000" d="M1698.3023,-210.092C1671.0797,-203.8963 1631.7204,-195.3722 1597,-189.5083 1231.0406,-127.7015 791.6345,-79.7182 602.7714,-60.3381"/>
<polygon fill="#000000" stroke="#000000" points="602.9077,-56.8339 592.6033,-59.2975 602.195,-63.7975 602.9077,-56.8339"/>
</g>
<!-- args -->
<g id="node16" class="node">
<title>args</title>
<g id="a_node16"><a xlink:href="args.md" xlink:title="args.md">
<polygon fill="#98fb98" stroke="#000000" points="2162.5492,-40.8581 2162.5492,-61.1419 2137.6245,-75.4846 2102.3755,-75.4846 2077.4508,-61.1419 2077.4508,-40.8581 2102.3755,-26.5154 2137.6245,-26.5154 2162.5492,-40.8581"/>
<polygon fill="none" stroke="#000000" points="2166.5514,-38.5466 2166.5514,-63.4534 2138.6946,-79.4835 2101.3054,-79.4835 2073.4486,-63.4534 2073.4486,-38.5466 2101.3054,-22.5165 2138.6946,-22.5165 2166.5514,-38.5466"/>
<text text-anchor="middle" x="2120" y="-43.8" font-family="Times,serif" font-size="24.00" fill="#000000">args</text>
</a>
</g>
</g>
<!-- env&#45;&gt;args -->
<g id="edge6" class="edge">
<title>env&#45;&gt;args</title>
<path fill="none" stroke="#000000" d="M1761.8015,-205.1731C1828.3893,-176.5128 1989.7773,-107.0495 2071.2395,-71.9871"/>
<polygon fill="#000000" stroke="#000000" points="2072.9644,-75.0552 2080.766,-67.8868 2070.1969,-68.6255 2072.9644,-75.0552"/>
</g>
<!-- variables -->
<g id="node6" class="node">
<title>variables</title>
<g id="a_node6"><a xlink:href="variables.md" xlink:title="variables.md">
<ellipse fill="#eee8aa" stroke="#000000" cx="253" cy="-553" rx="72.6337" ry="22.7556"/>
<text text-anchor="middle" x="253" y="-545.8" font-family="Times,serif" font-size="24.00" fill="#000000">variables</text>
</a>
</g>
</g>
<!-- variables&#45;&gt;vartypes -->
<g id="edge38" class="edge">
<title>variables&#45;&gt;vartypes</title>
<path fill="none" stroke="#000000" d="M284.3906,-532.3999C331.0894,-501.7538 418.8045,-444.1908 469.7033,-410.7885"/>
<polygon fill="#000000" stroke="#000000" points="471.7121,-413.6566 478.1522,-405.2438 467.8714,-407.8043 471.7121,-413.6566"/>
</g>
<!-- variables&#45;&gt;warnings -->
<g id="edge40" class="edge">
<title>variables&#45;&gt;warnings</title>
<path fill="none" stroke="#000000" d="M264.4971,-530.4549C304.7423,-451.5366 439.554,-187.1793 489.8578,-88.5367"/>
<polygon fill="#000000" stroke="#000000" points="493.031,-90.0183 494.4561,-79.5197 486.7951,-86.8382 493.031,-90.0183"/>
</g>
<!-- version -->
<g id="node18" class="node">
<title>version</title>
<g id="a_node18"><a xlink:href="version.md" xlink:title="version.md">
<polygon fill="#98fb98" stroke="#000000" points="202.1523,-374.8581 202.1523,-395.1419 163.4012,-409.4846 108.5988,-409.4846 69.8477,-395.1419 69.8477,-374.8581 108.5988,-360.5154 163.4012,-360.5154 202.1523,-374.8581"/>
<polygon fill="none" stroke="#000000" points="206.1421,-372.0721 206.1421,-397.9279 164.1143,-413.4835 107.8857,-413.4835 65.8579,-397.9279 65.8579,-372.0721 107.8857,-356.5165 164.1143,-356.5165 206.1421,-372.0721"/>
<text text-anchor="middle" x="136" y="-377.8" font-family="Times,serif" font-size="24.00" fill="#000000">version</text>
</a>
</g>
</g>
<!-- variables&#45;&gt;version -->
<g id="edge39" class="edge">
<title>variables&#45;&gt;version</title>
<path fill="none" stroke="#000000" d="M237.4633,-530.6909C218.1765,-502.997 185.0041,-455.3648 161.8584,-422.13"/>
<polygon fill="#000000" stroke="#000000" points="164.4977,-419.7954 155.9106,-413.5896 158.7535,-423.7959 164.4977,-419.7954"/>
</g>
<!-- vartypes&#45;&gt;env -->
<g id="edge33" class="edge">
<title>vartypes&#45;&gt;env</title>
<path fill="none" stroke="#000000" d="M568.5226,-373.4696C597.82,-367.9803 633.7002,-361.5342 666,-356.5083 1059.9338,-295.2108 1538.7094,-239.7668 1686.4231,-223.0906"/>
<polygon fill="#000000" stroke="#000000" points="1686.9355,-226.5551 1696.4807,-221.9574 1686.1517,-219.5991 1686.9355,-226.5551"/>
</g>
<!-- vartypes&#45;&gt;warnings -->
<g id="edge34" class="edge">
<title>vartypes&#45;&gt;warnings</title>
<path fill="none" stroke="#000000" d="M509,-362.3054C509,-306.1637 509,-160.2505 509,-89.9642"/>
<polygon fill="#000000" stroke="#000000" points="512.5001,-89.76 509,-79.7601 505.5001,-89.7601 512.5001,-89.76"/>
</g>
<!-- tpub -->
<g id="node9" class="node">
<title>tpub</title>
<g id="a_node9"><a xlink:href="tpub.md" xlink:title="tpub.md">
<polygon fill="#98fb98" stroke="#000000" points="1132.8132,-374.8581 1132.8132,-395.1419 1106.5622,-409.4846 1069.4378,-409.4846 1043.1868,-395.1419 1043.1868,-374.8581 1069.4378,-360.5154 1106.5622,-360.5154 1132.8132,-374.8581"/>
<polygon fill="none" stroke="#000000" points="1136.8052,-372.4843 1136.8052,-397.5157 1107.5802,-413.4835 1068.4198,-413.4835 1039.1948,-397.5157 1039.1948,-372.4843 1068.4198,-356.5165 1107.5802,-356.5165 1136.8052,-372.4843"/>
<text text-anchor="middle" x="1088" y="-377.8" font-family="Times,serif" font-size="24.00" fill="#000000">tpub</text>
</a>
</g>
</g>
<!-- replacement -->
<g id="node10" class="node">
<title>replacement</title>
<g id="a_node10"><a xlink:href="replacement.md" xlink:title="replacement.md">
<ellipse fill="#eee8aa" stroke="#000000" cx="1196" cy="-709" rx="94.4556" ry="22.7556"/>
<text text-anchor="middle" x="1196" y="-701.8" font-family="Times,serif" font-size="24.00" fill="#000000">replacement</text>
</a>
</g>
</g>
<!-- replacement&#45;&gt;parseNumber -->
<g id="edge60" class="edge">
<title>replacement&#45;&gt;parseNumber</title>
<path fill="none" stroke="#000000" d="M1196.0901,-686.0859C1195.0121,-647.856 1187.4291,-570.7103 1146,-524.5083 1084.2702,-455.6666 984.3198,-420.4375 906.0169,-402.6242"/>
<polygon fill="#000000" stroke="#000000" points="906.6129,-399.1716 896.0934,-400.4329 905.1034,-406.0069 906.6129,-399.1716"/>
</g>
<!-- replacement&#45;&gt;regexes -->
<g id="edge51" class="edge">
<title>replacement&#45;&gt;regexes</title>
<path fill="none" stroke="#000000" d="M1218.2054,-686.695C1240.6756,-662.7725 1274.6434,-622.6423 1293,-581.4917 1334.4731,-488.52 1306.0304,-453.7995 1336,-356.5083 1346.8001,-321.4474 1363.731,-283.3122 1376.8575,-255.95"/>
<polygon fill="#000000" stroke="#000000" points="1380.1081,-257.2683 1381.3256,-246.7436 1373.8106,-254.2119 1380.1081,-257.2683"/>
</g>
<!-- replacement&#45;&gt;parseCmdLine -->
<g id="edge54" class="edge">
<title>replacement&#45;&gt;parseCmdLine</title>
<path fill="none" stroke="#000000" d="M1239.5817,-688.7657C1300.5933,-660.4388 1411.4122,-608.9872 1477.7096,-578.2063"/>
<polygon fill="#000000" stroke="#000000" points="1479.5607,-581.2057 1487.1569,-573.82 1476.6128,-574.8567 1479.5607,-581.2057"/>
</g>
<!-- replacement&#45;&gt;env -->
<g id="edge52" class="edge">
<title>replacement&#45;&gt;env</title>
<path fill="none" stroke="#000000" d="M1265.4728,-693.7095C1386.3566,-666.507 1625.1387,-609.9017 1652,-581.4917 1697.3002,-533.5797 1721.2165,-331.0425 1729.0535,-250.8695"/>
<polygon fill="#000000" stroke="#000000" points="1732.5451,-251.1234 1730.0123,-240.8357 1725.5768,-250.4574 1732.5451,-251.1234"/>
</g>
<!-- replacement&#45;&gt;variables -->
<g id="edge58" class="edge">
<title>replacement&#45;&gt;variables</title>
<path fill="none" stroke="#000000" d="M1112.0834,-698.6683C925.4806,-675.3561 481.0367,-617.8709 334,-581.4917 325.4837,-579.3847 316.6023,-576.7406 307.9736,-573.9179"/>
<polygon fill="#000000" stroke="#000000" points="308.9662,-570.5589 298.372,-570.674 306.7257,-577.1907 308.9662,-570.5589"/>
</g>
<!-- replacement&#45;&gt;tempFile -->
<g id="edge59" class="edge">
<title>replacement&#45;&gt;tempFile</title>
<path fill="none" stroke="#000000" d="M1208.9118,-686.2731C1222.4922,-661.3507 1243.4603,-619.7937 1255,-581.4917 1305.8419,-412.7403 1221.9595,-339.1926 1315,-189.5083 1346.907,-138.1761 1405.6131,-100.7523 1450.8479,-77.8405"/>
<polygon fill="#000000" stroke="#000000" points="1452.5841,-80.8864 1459.992,-73.3119 1449.4775,-74.6135 1452.5841,-80.8864"/>
</g>
<!-- replacement&#45;&gt;vartypes -->
<g id="edge53" class="edge">
<title>replacement&#45;&gt;vartypes</title>
<path fill="none" stroke="#000000" d="M1115.0308,-697.3736C954.1518,-673.5947 606.2291,-618.5264 566,-581.4917 541.9691,-559.3691 523.0472,-467.6161 514.2967,-417.7002"/>
<polygon fill="#000000" stroke="#000000" points="517.7258,-416.9882 512.5856,-407.7238 510.8265,-418.1716 517.7258,-416.9882"/>
</g>
<!-- replacement&#45;&gt;tpub -->
<g id="edge61" class="edge">
<title>replacement&#45;&gt;tpub</title>
<path fill="none" stroke="#000000" d="M1197.3613,-686.1116C1198.7218,-650.4886 1198.3487,-580.1002 1179,-524.5083 1165.3895,-485.4031 1138.5355,-446.3984 1117.5108,-419.6157"/>
<polygon fill="#000000" stroke="#000000" points="1120.1706,-417.3376 1111.1941,-411.7097 1114.7017,-421.7071 1120.1706,-417.3376"/>
</g>
<!-- readlines -->
<g id="node11" class="node">
<title>readlines</title>
<g id="a_node11"><a xlink:href="readlines.md" xlink:title="readlines.md">
<polygon fill="#98fb98" stroke="#000000" points="1132.5894,-542.8581 1132.5894,-563.1419 1086.5528,-577.4846 1021.4472,-577.4846 975.4106,-563.1419 975.4106,-542.8581 1021.4472,-528.5154 1086.5528,-528.5154 1132.5894,-542.8581"/>
<polygon fill="none" stroke="#000000" points="1136.5916,-539.9163 1136.5916,-566.0837 1087.1623,-581.4835 1020.8377,-581.4835 971.4084,-566.0837 971.4084,-539.9163 1020.8377,-524.5165 1087.1623,-524.5165 1136.5916,-539.9163"/>
<text text-anchor="middle" x="1054" y="-545.8" font-family="Times,serif" font-size="24.00" fill="#000000">readlines</text>
</a>
</g>
</g>
<!-- replacement&#45;&gt;readlines -->
<g id="edge55" class="edge">
<title>replacement&#45;&gt;readlines</title>
<path fill="none" stroke="#000000" d="M1175.6549,-686.649C1152.5646,-661.2822 1114.5599,-619.5306 1087.1677,-589.4377"/>
<polygon fill="#000000" stroke="#000000" points="1089.4164,-586.7087 1080.0967,-581.6696 1084.2398,-591.4207 1089.4164,-586.7087"/>
</g>
<!-- replacement&#45;&gt;warnings -->
<g id="edge57" class="edge">
<title>replacement&#45;&gt;warnings</title>
<path fill="none" stroke="#000000" d="M1200.346,-686.27C1210.695,-624.798 1230.0463,-453.3858 1146,-356.5083 997.4078,-185.2305 731.2238,-102.0053 594.7822,-68.9806"/>
<polygon fill="#000000" stroke="#000000" points="595.3259,-65.5121 584.7865,-66.595 593.7008,-72.3209 595.3259,-65.5121"/>
</g>
<!-- replacement&#45;&gt;matches -->
<g id="edge56" class="edge">
<title>replacement&#45;&gt;matches</title>
<path fill="none" stroke="#000000" d="M1225.267,-687.4561C1255.2045,-664.1543 1301.404,-624.5239 1331,-581.4917 1367.0456,-529.082 1391.2759,-458.155 1403.2582,-417.4159"/>
<polygon fill="#000000" stroke="#000000" points="1406.641,-418.3164 1406.0404,-407.7386 1399.9135,-416.3822 1406.641,-418.3164"/>
</g>
<!-- collectCommand -->
<g id="node13" class="node">
<title>collectCommand</title>
<g id="a_node13"><a xlink:href="collectCommand.md" xlink:title="collectCommand.md">
<ellipse fill="#eee8aa" stroke="#000000" cx="1435" cy="-709" rx="127.4982" ry="22.7556"/>
<text text-anchor="middle" x="1435" y="-701.8" font-family="Times,serif" font-size="24.00" fill="#000000">collectCommand</text>
</a>
</g>
</g>
<!-- collectCommand&#45;&gt;parseCmdLine -->
<g id="edge25" class="edge">
<title>collectCommand&#45;&gt;parseCmdLine</title>
<path fill="none" stroke="#000000" d="M1449.1046,-686.3163C1465.8187,-659.436 1493.761,-614.4978 1512.5285,-584.315"/>
<polygon fill="#000000" stroke="#000000" points="1515.7275,-585.7984 1518.0357,-575.458 1509.783,-582.1021 1515.7275,-585.7984"/>
</g>
<!-- collectCommand&#45;&gt;env -->
<g id="edge22" class="edge">
<title>collectCommand&#45;&gt;env</title>
<path fill="none" stroke="#000000" d="M1510.1238,-690.7116C1567.3343,-672.7196 1643.159,-639.3201 1685,-581.4917 1758.4676,-479.9523 1746.7072,-319.4881 1737.3757,-250.8778"/>
<polygon fill="#000000" stroke="#000000" points="1740.7971,-250.0796 1735.9124,-240.678 1733.8681,-251.0737 1740.7971,-250.0796"/>
</g>
<!-- collectCommand&#45;&gt;readlines -->
<g id="edge24" class="edge">
<title>collectCommand&#45;&gt;readlines</title>
<path fill="none" stroke="#000000" d="M1384.012,-688.123C1315.0778,-659.898 1192.1919,-609.5825 1117.3919,-578.9558"/>
<polygon fill="#000000" stroke="#000000" points="1118.6468,-575.6876 1108.0662,-575.1374 1115.9943,-582.1656 1118.6468,-575.6876"/>
</g>
<!-- collectCommand&#45;&gt;matches -->
<g id="edge23" class="edge">
<title>collectCommand&#45;&gt;matches</title>
<path fill="none" stroke="#000000" d="M1429.6012,-686.1328C1423.906,-660.7429 1415.3074,-618.4593 1412,-581.4917 1406.8734,-524.1907 1408.5013,-457.1133 1410.2092,-418.0075"/>
<polygon fill="#000000" stroke="#000000" points="1413.7178,-417.903 1410.6875,-407.7508 1406.7254,-417.5768 1413.7178,-417.903"/>
</g>
<!-- statictea -->
<g id="node14" class="node">
<title>statictea</title>
<g id="a_node14"><a xlink:href="statictea.md" xlink:title="statictea.md">
<polygon fill="#eee8aa" stroke="#000000" points="1924.0958,-1002.3667 2007,-983.0619 2089.9042,-1002.3667 2089.8268,-1033.6024 1924.1732,-1033.6024 1924.0958,-1002.3667"/>
<text text-anchor="middle" x="2007" y="-1003.8" font-family="Times,serif" font-size="24.00" fill="#000000">statictea</text>
</a>
</g>
</g>
<!-- statictea&#45;&gt;env -->
<g id="edge73" class="edge">
<title>statictea&#45;&gt;env</title>
<path fill="none" stroke="#000000" d="M2052.625,-993.623C2098.3309,-973.4563 2166.0648,-935.3903 2196,-877.6274 2214.8715,-841.213 2236.2302,-745.4584 2143,-524.5083 2107.1261,-439.4893 2091.885,-415.5885 2021,-356.5083 1944.6393,-292.8643 1834.0996,-250.5917 1774.2817,-230.8593"/>
<polygon fill="#000000" stroke="#000000" points="1775.0178,-227.4186 1764.4258,-227.6612 1772.8573,-234.0768 1775.0178,-227.4186"/>
</g>
<!-- statictea&#45;&gt;warnings -->
<g id="edge69" class="edge">
<title>statictea&#45;&gt;warnings</title>
<path fill="none" stroke="#000000" d="M1924.2662,-1007.4342C1546.0562,-990.059 0,-906.9273 0,-709 0,-709 0,-709 0,-385 0,-186.8832 272.8832,-99.8256 419.0397,-67.4059"/>
<polygon fill="#000000" stroke="#000000" points="419.8824,-70.8045 428.9088,-65.257 418.3931,-63.9647 419.8824,-70.8045"/>
</g>
<!-- showhelp -->
<g id="node15" class="node">
<title>showhelp</title>
<g id="a_node15"><a xlink:href="showhelp.md" xlink:title="showhelp.md">
<ellipse fill="#eee8aa" stroke="#000000" cx="2111" cy="-855" rx="76.2243" ry="22.7556"/>
<text text-anchor="middle" x="2111" y="-847.8" font-family="Times,serif" font-size="24.00" fill="#000000">showhelp</text>
</a>
</g>
</g>
<!-- statictea&#45;&gt;showhelp -->
<g id="edge71" class="edge">
<title>statictea&#45;&gt;showhelp</title>
<path fill="none" stroke="#000000" d="M2023.25,-986.625C2041.267,-959.5995 2070.3819,-915.9271 2090.087,-886.3696"/>
<polygon fill="#000000" stroke="#000000" points="2093.2426,-887.9457 2095.8775,-877.6837 2087.4183,-884.0628 2093.2426,-887.9457"/>
</g>
<!-- statictea&#45;&gt;args -->
<g id="edge68" class="edge">
<title>statictea&#45;&gt;args</title>
<path fill="none" stroke="#000000" d="M2053.8075,-993.7616C2102.0918,-973.4982 2175.8419,-935.1587 2216,-877.6274 2259.9173,-814.7106 2253,-785.7284 2253,-709 2253,-709 2253,-709 2253,-385 2253,-269.8285 2183.8976,-147.1551 2145.3122,-87.6341"/>
<polygon fill="#000000" stroke="#000000" points="2148.0405,-85.4125 2139.6246,-78.9764 2142.19,-89.256 2148.0405,-85.4125"/>
</g>
<!-- statictea&#45;&gt;version -->
<g id="edge72" class="edge">
<title>statictea&#45;&gt;version</title>
<path fill="none" stroke="#000000" d="M1923.9385,-1009.2884C1674.8121,-1001.6312 915.5963,-959.7967 340,-731.6274 222.3348,-684.9843 159.5421,-692.0958 98,-581.4917 70.0434,-531.2479 94.1092,-463.855 114.6225,-422.4792"/>
<polygon fill="#000000" stroke="#000000" points="117.7489,-424.0527 119.1917,-413.5565 111.5183,-420.862 117.7489,-424.0527"/>
</g>
<!-- parseCommandLine -->
<g id="node20" class="node">
<title>parseCommandLine</title>
<g id="a_node20"><a xlink:href="parseCommandLine.md" xlink:title="parseCommandLine.md">
<ellipse fill="#eee8aa" stroke="#000000" cx="1962" cy="-553" rx="148.8522" ry="22.7556"/>
<text text-anchor="middle" x="1962" y="-545.8" font-family="Times,serif" font-size="24.00" fill="#000000">parseCommandLine</text>
</a>
</g>
</g>
<!-- statictea&#45;&gt;parseCommandLine -->
<g id="edge9" class="edge">
<title>statictea&#45;&gt;parseCommandLine</title>
<path fill="none" stroke="#000000" d="M2004.2864,-983.3815C1996.4244,-903.3641 1973.6553,-671.6249 1965.2057,-585.6267"/>
<polygon fill="#000000" stroke="#000000" points="1968.6864,-585.258 1964.2253,-575.6482 1961.7199,-585.9425 1968.6864,-585.258"/>
</g>
<!-- processTemplate -->
<g id="node21" class="node">
<title>processTemplate</title>
<g id="a_node21"><a xlink:href="processTemplate.md" xlink:title="processTemplate.md">
<ellipse fill="#eee8aa" stroke="#000000" cx="1196" cy="-855" rx="125.2054" ry="22.7556"/>
<text text-anchor="middle" x="1196" y="-847.8" font-family="Times,serif" font-size="24.00" fill="#000000">processTemplate</text>
</a>
</g>
</g>
<!-- statictea&#45;&gt;processTemplate -->
<g id="edge67" class="edge">
<title>statictea&#45;&gt;processTemplate</title>
<path fill="none" stroke="#000000" d="M1940.9763,-998.3C1797.8973,-970.778 1458.7241,-905.5363 1291.9537,-873.4572"/>
<polygon fill="#000000" stroke="#000000" points="1292.1899,-869.9385 1281.7087,-871.4865 1290.8676,-876.8125 1292.1899,-869.9385"/>
</g>
<!-- showhelp&#45;&gt;env -->
<g id="edge70" class="edge">
<title>showhelp&#45;&gt;env</title>
<path fill="none" stroke="#000000" d="M2118.4052,-832.2657C2135.1989,-776.4624 2170.9221,-629.6295 2120,-524.5083 2045.9324,-371.6066 1854.4865,-271.9264 1771.4219,-234.5635"/>
<polygon fill="#000000" stroke="#000000" points="1772.6393,-231.2747 1762.0791,-230.4192 1769.8009,-237.6734 1772.6393,-231.2747"/>
</g>
<!-- matches&#45;&gt;regexes -->
<g id="edge14" class="edge">
<title>matches&#45;&gt;regexes</title>
<path fill="none" stroke="#000000" d="M1409.8088,-362.1295C1407.214,-335.0457 1402.8501,-289.4979 1399.7222,-256.8507"/>
<polygon fill="#000000" stroke="#000000" points="1403.1918,-256.3645 1398.7539,-246.744 1396.2237,-257.0322 1403.1918,-256.3645"/>
</g>
<!-- matches&#45;&gt;args -->
<g id="edge13" class="edge">
<title>matches&#45;&gt;args</title>
<path fill="none" stroke="#000000" d="M1436.1086,-363.8879C1482.0188,-324.6283 1586.4126,-239.8202 1687,-189.5083 1814.8616,-125.5543 1978.5632,-82.7596 2063.3728,-63.1995"/>
<polygon fill="#000000" stroke="#000000" points="2064.3464,-66.5673 2073.3166,-60.9294 2062.7884,-59.7429 2064.3464,-66.5673"/>
</g>
<!-- readjson -->
<g id="node19" class="node">
<title>readjson</title>
<g id="a_node19"><a xlink:href="readjson.md" xlink:title="readjson.md">
<ellipse fill="#eee8aa" stroke="#000000" cx="412" cy="-553" rx="68.6102" ry="22.7556"/>
<text text-anchor="middle" x="412" y="-545.8" font-family="Times,serif" font-size="24.00" fill="#000000">readjson</text>
</a>
</g>
</g>
<!-- readjson&#45;&gt;vartypes -->
<g id="edge65" class="edge">
<title>readjson&#45;&gt;vartypes</title>
<path fill="none" stroke="#000000" d="M424.8809,-530.6909C441.8391,-501.32 471.7457,-449.5228 490.9521,-416.2582"/>
<polygon fill="#000000" stroke="#000000" points="494.0967,-417.8116 496.0659,-407.4014 488.0346,-414.3114 494.0967,-417.8116"/>
</g>
<!-- readjson&#45;&gt;tpub -->
<g id="edge64" class="edge">
<title>readjson&#45;&gt;tpub</title>
<path fill="none" stroke="#000000" d="M467.0333,-539.3231C592.6812,-508.097 899.7539,-431.7831 1029.0655,-399.6464"/>
<polygon fill="#000000" stroke="#000000" points="1029.9431,-403.0349 1038.8038,-397.2263 1028.2548,-396.2415 1029.9431,-403.0349"/>
</g>
<!-- readjson&#45;&gt;warnings -->
<g id="edge63" class="edge">
<title>readjson&#45;&gt;warnings</title>
<path fill="none" stroke="#000000" d="M413.0685,-530.1552C415.0446,-493.3614 420.1038,-418.7947 431,-356.5083 448.041,-259.0961 479.8735,-147.03 497.1355,-89.5011"/>
<polygon fill="#000000" stroke="#000000" points="500.5417,-90.3284 500.0808,-79.7436 493.8403,-88.3055 500.5417,-90.3284"/>
</g>
<!-- parseCommandLine&#45;&gt;regexes -->
<g id="edge8" class="edge">
<title>parseCommandLine&#45;&gt;regexes</title>
<path fill="none" stroke="#000000" d="M1924.8632,-531.0197C1826.2088,-472.6289 1557.5102,-313.5935 1445.7732,-247.4594"/>
<polygon fill="#000000" stroke="#000000" points="1447.4354,-244.3761 1437.0471,-242.2946 1443.87,-250.4001 1447.4354,-244.3761"/>
</g>
<!-- parseCommandLine&#45;&gt;env -->
<g id="edge7" class="edge">
<title>parseCommandLine&#45;&gt;env</title>
<path fill="none" stroke="#000000" d="M1946.372,-530.2375C1905.8284,-471.1849 1797.2972,-313.1068 1752.1428,-247.3384"/>
<polygon fill="#000000" stroke="#000000" points="1755.0014,-245.3184 1746.4559,-239.0554 1749.2306,-249.2804 1755.0014,-245.3184"/>
</g>
<!-- parseCommandLine&#45;&gt;tpub -->
<g id="edge1" class="edge">
<title>parseCommandLine&#45;&gt;tpub</title>
<path fill="none" stroke="#000000" d="M1869.2941,-535.1801C1689.0294,-500.5297 1295.904,-424.9632 1146.8719,-396.3163"/>
<polygon fill="#000000" stroke="#000000" points="1147.472,-392.8677 1136.9911,-394.4171 1146.1506,-399.7419 1147.472,-392.8677"/>
</g>
<!-- parseCommandLine&#45;&gt;warnings -->
<g id="edge3" class="edge">
<title>parseCommandLine&#45;&gt;warnings</title>
<path fill="none" stroke="#000000" d="M1958.0787,-530.194C1945.4605,-464.4744 1899.3558,-274.0105 1777,-189.5083 1680.7605,-123.0427 879.807,-71.9491 602.8141,-56.1217"/>
<polygon fill="#000000" stroke="#000000" points="602.97,-52.625 592.7873,-55.5511 602.5723,-59.6137 602.97,-52.625"/>
</g>
<!-- parseCommandLine&#45;&gt;args -->
<g id="edge2" class="edge">
<title>parseCommandLine&#45;&gt;args</title>
<path fill="none" stroke="#000000" d="M1969.1995,-530.1256C1994.0924,-451.0356 2076.6977,-188.5808 2107.9128,-89.4035"/>
<polygon fill="#000000" stroke="#000000" points="2111.2789,-90.3665 2110.9427,-79.777 2104.6019,-88.2649 2111.2789,-90.3665"/>
</g>
<!-- processTemplate&#45;&gt;parseCmdLine -->
<g id="edge21" class="edge">
<title>processTemplate&#45;&gt;parseCmdLine</title>
<path fill="none" stroke="#000000" d="M1282.5235,-838.6549C1382.231,-817.8546 1536.7943,-778.8902 1571,-731.6274 1602.8738,-687.5866 1574.6431,-622.5225 1552.4639,-584.2774"/>
<polygon fill="#000000" stroke="#000000" points="1555.4207,-582.4023 1547.2804,-575.6209 1549.415,-585.9985 1555.4207,-582.4023"/>
</g>
<!-- processTemplate&#45;&gt;env -->
<g id="edge12" class="edge">
<title>processTemplate&#45;&gt;env</title>
<path fill="none" stroke="#000000" d="M1310.5395,-845.7918C1404.1013,-833.1276 1535.3884,-803.0509 1627,-731.6274 1766.0396,-623.2275 1771.1057,-532.1624 1756,-356.5083 1752.8479,-319.8551 1745.0865,-278.3426 1739.2369,-250.4022"/>
<polygon fill="#000000" stroke="#000000" points="1742.6118,-249.4463 1737.1022,-240.3967 1735.7659,-250.9069 1742.6118,-249.4463"/>
</g>
<!-- processTemplate&#45;&gt;variables -->
<g id="edge49" class="edge">
<title>processTemplate&#45;&gt;variables</title>
<path fill="none" stroke="#000000" d="M1100.6839,-840.329C988.3977,-821.5802 797.1171,-785.0274 639,-731.6274 510.9513,-688.3823 368.6884,-615.664 297.9929,-577.7235"/>
<polygon fill="#000000" stroke="#000000" points="299.3747,-574.4923 288.9112,-572.8293 296.0538,-580.6545 299.3747,-574.4923"/>
</g>
<!-- processTemplate&#45;&gt;vartypes -->
<g id="edge50" class="edge">
<title>processTemplate&#45;&gt;vartypes</title>
<path fill="none" stroke="#000000" d="M1087.2093,-843.7533C844.719,-816.0719 273.1515,-735.4361 171,-581.4917 100.2556,-474.8786 316.9646,-418.7345 436.1523,-396.5406"/>
<polygon fill="#000000" stroke="#000000" points="437.1063,-399.9244 446.3156,-394.6861 435.8498,-393.0381 437.1063,-399.9244"/>
</g>
<!-- processTemplate&#45;&gt;replacement -->
<g id="edge62" class="edge">
<title>processTemplate&#45;&gt;replacement</title>
<path fill="none" stroke="#000000" d="M1196,-832.1875C1196,-807.9733 1196,-769.4802 1196,-741.9686"/>
<polygon fill="#000000" stroke="#000000" points="1199.5001,-741.6523 1196,-731.6523 1192.5001,-741.6523 1199.5001,-741.6523"/>
</g>
<!-- processTemplate&#45;&gt;readlines -->
<g id="edge16" class="edge">
<title>processTemplate&#45;&gt;readlines</title>
<path fill="none" stroke="#000000" d="M1171.2457,-832.4467C1147.5168,-809.4143 1112.5085,-771.4724 1093,-731.6274 1070.9277,-686.5459 1061.2429,-629.0014 1057.0639,-591.5922"/>
<polygon fill="#000000" stroke="#000000" points="1060.5406,-591.1864 1056.0254,-581.6019 1053.5781,-591.9102 1060.5406,-591.1864"/>
</g>
<!-- processTemplate&#45;&gt;warnings -->
<g id="edge11" class="edge">
<title>processTemplate&#45;&gt;warnings</title>
<path fill="none" stroke="#000000" d="M1084.5273,-844.6669C884.9178,-825.2177 474.7355,-780.6893 340,-731.6274 221.0667,-688.3197 172.3079,-683.9565 98,-581.4917 38.3299,-499.2113 9.3262,-446.2734 57,-356.5083 137.8853,-204.2092 332.3415,-114.0131 437.9145,-74.618"/>
<polygon fill="#000000" stroke="#000000" points="439.3604,-77.8155 447.5359,-71.0767 436.9424,-71.2463 439.3604,-77.8155"/>
</g>
<!-- processTemplate&#45;&gt;collectCommand -->
<g id="edge26" class="edge">
<title>processTemplate&#45;&gt;collectCommand</title>
<path fill="none" stroke="#000000" d="M1231.5226,-833.3C1273.9128,-807.4047 1344.8104,-764.0949 1390.7296,-736.0439"/>
<polygon fill="#000000" stroke="#000000" points="1392.5732,-739.0191 1399.2824,-730.8191 1388.9241,-733.0454 1392.5732,-739.0191"/>
</g>
<!-- processTemplate&#45;&gt;args -->
<g id="edge10" class="edge">
<title>processTemplate&#45;&gt;args</title>
<path fill="none" stroke="#000000" d="M1294.8202,-840.9864C1512.5127,-807.8531 2021.9129,-717.1463 2120,-581.4917 2229.9923,-429.3721 2164.8363,-183.1992 2133.7075,-89.1706"/>
<polygon fill="#000000" stroke="#000000" points="2136.9619,-87.8678 2130.4504,-79.5101 2130.3287,-90.1042 2136.9619,-87.8678"/>
</g>
<!-- processTemplate&#45;&gt;matches -->
<g id="edge15" class="edge">
<title>processTemplate&#45;&gt;matches</title>
<path fill="none" stroke="#000000" d="M1279.024,-837.9367C1381.0239,-815.5111 1546.2021,-773.9779 1592,-731.6274 1662.364,-666.56 1699.7965,-607.5766 1652,-524.5083 1614.2257,-458.8581 1532.3813,-421.2363 1474.8121,-401.9714"/>
<polygon fill="#000000" stroke="#000000" points="1475.6698,-398.5701 1465.0777,-398.8104 1473.5077,-405.2279 1475.6698,-398.5701"/>
</g>
<!-- processTemplate&#45;&gt;readjson -->
<g id="edge66" class="edge">
<title>processTemplate&#45;&gt;readjson</title>
<path fill="none" stroke="#000000" d="M1109.6616,-838.578C1015.2872,-819.1158 860.6351,-782.7533 734,-731.6274 626.8683,-688.3756 510.5227,-617.1696 451.3627,-579.033"/>
<polygon fill="#000000" stroke="#000000" points="453.0086,-575.929 442.7129,-573.4294 449.2027,-581.804 453.0086,-575.929"/>
</g>
<!-- runCommand -->
<g id="node22" class="node">
<title>runCommand</title>
<g id="a_node22"><a xlink:href="runCommand.md" xlink:title="runCommand.md">
<ellipse fill="#eee8aa" stroke="#000000" cx="848" cy="-709" rx="104.7872" ry="22.7556"/>
<text text-anchor="middle" x="848" y="-701.8" font-family="Times,serif" font-size="24.00" fill="#000000">runCommand</text>
</a>
</g>
</g>
<!-- processTemplate&#45;&gt;runCommand -->
<g id="edge48" class="edge">
<title>processTemplate&#45;&gt;runCommand</title>
<path fill="none" stroke="#000000" d="M1146.1401,-834.0818C1082.5489,-807.4027 972.7995,-761.3584 905.6723,-733.1958"/>
<polygon fill="#000000" stroke="#000000" points="906.6635,-729.8162 896.0881,-729.1749 903.9554,-736.2711 906.6635,-729.8162"/>
</g>
<!-- runCommand&#45;&gt;runFunction -->
<g id="edge47" class="edge">
<title>runCommand&#45;&gt;runFunction</title>
<path fill="none" stroke="#000000" d="M822.7333,-686.9799C791.017,-659.3389 736.555,-611.8747 701.6933,-581.4925"/>
<polygon fill="#000000" stroke="#000000" points="703.9765,-578.8397 694.1381,-574.9081 699.3774,-584.1169 703.9765,-578.8397"/>
</g>
<!-- runCommand&#45;&gt;parseNumber -->
<g id="edge37" class="edge">
<title>runCommand&#45;&gt;parseNumber</title>
<path fill="none" stroke="#000000" d="M841.1547,-686.1644C833.7721,-660.8022 822.1218,-618.5427 815,-581.4917 804.5425,-527.0872 797.3462,-463.3404 793.4481,-423.5556"/>
<polygon fill="#000000" stroke="#000000" points="796.9212,-423.1077 792.482,-413.4877 789.9532,-423.7763 796.9212,-423.1077"/>
</g>
<!-- runCommand&#45;&gt;regexes -->
<g id="edge31" class="edge">
<title>runCommand&#45;&gt;regexes</title>
<path fill="none" stroke="#000000" d="M844.6701,-686.1758C840.4497,-650.0336 836.4054,-578.2267 861,-524.5083 905.0886,-428.2119 940.9554,-413.848 1030,-356.5083 1122.2499,-297.1045 1243.7673,-257.5278 1320.9116,-236.4035"/>
<polygon fill="#000000" stroke="#000000" points="1322.2869,-239.6575 1331.0274,-233.6697 1320.4606,-232.8999 1322.2869,-239.6575"/>
</g>
<!-- runCommand&#45;&gt;parseCmdLine -->
<g id="edge27" class="edge">
<title>runCommand&#45;&gt;parseCmdLine</title>
<path fill="none" stroke="#000000" d="M920.2295,-692.5266C1047.7903,-663.4338 1312.2639,-603.1152 1447.8496,-572.1922"/>
<polygon fill="#000000" stroke="#000000" points="1448.8111,-575.5629 1457.7824,-569.9268 1447.2545,-568.7381 1448.8111,-575.5629"/>
</g>
<!-- runCommand&#45;&gt;env -->
<g id="edge32" class="edge">
<title>runCommand&#45;&gt;env</title>
<path fill="none" stroke="#000000" d="M861.9271,-686.2043C891.9197,-637.1466 960.0796,-525.8581 962,-524.5083 1157.4724,-387.1144 1272.0067,-515.636 1488,-413.4917 1578.7296,-370.5853 1665.6833,-287.678 1706.9856,-244.9344"/>
<polygon fill="#000000" stroke="#000000" points="1709.5363,-247.3313 1713.9224,-237.687 1704.4793,-242.4911 1709.5363,-247.3313"/>
</g>
<!-- runCommand&#45;&gt;variables -->
<g id="edge41" class="edge">
<title>runCommand&#45;&gt;variables</title>
<path fill="none" stroke="#000000" d="M773.7759,-692.9194C673.3121,-670.6248 488.8066,-627.8056 334,-581.4917 325.9933,-579.0964 317.6089,-576.3837 309.3961,-573.6076"/>
<polygon fill="#000000" stroke="#000000" points="310.4614,-570.2729 299.8667,-570.3348 308.1876,-576.8933 310.4614,-570.2729"/>
</g>
<!-- runCommand&#45;&gt;vartypes -->
<g id="edge35" class="edge">
<title>runCommand&#45;&gt;vartypes</title>
<path fill="none" stroke="#000000" d="M757.6643,-697.5075C685.0645,-683.2273 586.6489,-651.5016 533,-581.4917 496.5788,-533.9634 498.6171,-460.1119 503.6346,-417.7846"/>
<polygon fill="#000000" stroke="#000000" points="507.1221,-418.1082 504.9528,-407.7379 500.1815,-417.1975 507.1221,-418.1082"/>
</g>
<!-- runCommand&#45;&gt;tpub -->
<g id="edge30" class="edge">
<title>runCommand&#45;&gt;tpub</title>
<path fill="none" stroke="#000000" d="M848.2439,-686.2508C849.6775,-649.2648 856.9665,-575.141 891,-524.5083 927.7453,-469.8411 993.6276,-429.7141 1039.0187,-406.8794"/>
<polygon fill="#000000" stroke="#000000" points="1040.67,-409.9676 1048.0922,-402.4071 1037.5752,-403.6889 1040.67,-409.9676"/>
</g>
<!-- runCommand&#45;&gt;readlines -->
<g id="edge28" class="edge">
<title>runCommand&#45;&gt;readlines</title>
<path fill="none" stroke="#000000" d="M877.0779,-686.9799C911.5255,-660.8933 969.2886,-617.1504 1009.4014,-586.7737"/>
<polygon fill="#000000" stroke="#000000" points="1011.5681,-589.5232 1017.4272,-580.6959 1007.3422,-583.9428 1011.5681,-589.5232"/>
</g>
<!-- runCommand&#45;&gt;warnings -->
<g id="edge36" class="edge">
<title>runCommand&#45;&gt;warnings</title>
<path fill="none" stroke="#000000" d="M744.9244,-705.0902C573.7943,-696.1954 242.7158,-667.9756 171,-581.4917 71.6966,-461.7393 26.2376,-726.9186 410,-189.5083 434.5952,-155.0658 462.6487,-115.8207 482.5973,-87.9207"/>
<polygon fill="#000000" stroke="#000000" points="485.5459,-89.8144 488.5152,-79.6442 479.8517,-85.7429 485.5459,-89.8144"/>
</g>
<!-- runCommand&#45;&gt;matches -->
<g id="edge29" class="edge">
<title>runCommand&#45;&gt;matches</title>
<path fill="none" stroke="#000000" d="M855.2344,-686.3937C869.7736,-642.2602 903.3392,-546.9754 929,-524.5083 991.0542,-470.1772 1224.726,-420.0322 1342.8022,-397.5036"/>
<polygon fill="#000000" stroke="#000000" points="1343.651,-400.9052 1352.8247,-395.6048 1342.3479,-394.0275 1343.651,-400.9052"/>
</g>
</g>
</svg>
