<?xml version="1.0" encoding="UTF-8" standalone="no"?>
<!DOCTYPE svg PUBLIC "-//W3C//DTD SVG 1.1//EN"
 "http://www.w3.org/Graphics/SVG/1.1/DTD/svg11.dtd">
<!-- Generated by graphviz version 7.0.1 (20221109.1506)
 -->
<!-- Title: statictea Pages: 1 -->
<svg width="639pt" height="1439pt"
 viewBox="0.00 0.00 638.77 1439.06" xmlns="http://www.w3.org/2000/svg" xmlns:xlink="http://www.w3.org/1999/xlink">
<g id="graph0" class="graph" transform="scale(1 1) rotate(0) translate(4 1435.06)">
<title>statictea</title>
<polygon fill="white" stroke="none" points="-4,4 -4,-1435.06 634.77,-1435.06 634.77,4 -4,4"/>
<!-- strutils -->
<g id="node1" class="node">
<title>strutils</title>
<ellipse fill="none" stroke="black" cx="88.19" cy="-795.04" rx="57.97" ry="24.08"/>
<text text-anchor="middle" x="88.19" y="-788.84" font-family="Times,serif" font-size="24.00">strutils</text>
</g>
<!-- statictea -->
<g id="node2" class="node">
<title>statictea</title>
<ellipse fill="none" stroke="black" cx="547.57" cy="-1227.04" rx="39.79" ry="18"/>
<text text-anchor="middle" x="547.57" y="-1223.34" font-family="Times,serif" font-size="14.00">statictea</text>
</g>
<!-- strutils&#45;&gt;statictea -->
<g id="edge1" class="edge">
<title>strutils&#45;&gt;statictea</title>
<path fill="none" stroke="black" d="M104.44,-818.55C150.35,-887.48 294.57,-1091.08 464.38,-1200.04 475.12,-1206.93 487.79,-1212.23 499.92,-1216.22"/>
<polygon fill="black" stroke="black" points="498.81,-1219.54 509.39,-1219.09 500.84,-1212.84 498.81,-1219.54"/>
</g>
<!-- messages -->
<g id="node9" class="node">
<title>messages</title>
<ellipse fill="none" stroke="black" cx="547.57" cy="-1011.04" rx="44.39" ry="18"/>
<text text-anchor="middle" x="547.57" y="-1007.34" font-family="Times,serif" font-size="14.00">messages</text>
</g>
<!-- strutils&#45;&gt;messages -->
<g id="edge6" class="edge">
<title>strutils&#45;&gt;messages</title>
<path fill="none" stroke="black" d="M123.55,-814.54C188.63,-850.98 334.97,-930.54 464.38,-984.04 475.86,-988.79 488.5,-993.28 500.35,-997.2"/>
<polygon fill="black" stroke="black" points="498.92,-1000.41 509.51,-1000.15 501.07,-993.75 498.92,-1000.41"/>
</g>
<!-- cmdline -->
<g id="node10" class="node">
<title>cmdline</title>
<ellipse fill="none" stroke="black" cx="547.57" cy="-903.04" rx="39.79" ry="18"/>
<text text-anchor="middle" x="547.57" y="-899.34" font-family="Times,serif" font-size="14.00">cmdline</text>
</g>
<!-- strutils&#45;&gt;cmdline -->
<g id="edge10" class="edge">
<title>strutils&#45;&gt;cmdline</title>
<path fill="none" stroke="black" d="M139.01,-806.81C228.31,-827.89 414.34,-871.82 500.7,-892.21"/>
<polygon fill="black" stroke="black" points="499.7,-895.57 510.24,-894.46 501.31,-888.76 499.7,-895.57"/>
</g>
<!-- matches -->
<g id="node11" class="node">
<title>matches</title>
<ellipse fill="none" stroke="black" cx="547.57" cy="-795.04" rx="40.09" ry="18"/>
<text text-anchor="middle" x="547.57" y="-791.34" font-family="Times,serif" font-size="14.00">matches</text>
</g>
<!-- strutils&#45;&gt;matches -->
<g id="edge11" class="edge">
<title>strutils&#45;&gt;matches</title>
<path fill="none" stroke="black" d="M146.66,-795.04C236.8,-795.04 410.01,-795.04 495.82,-795.04"/>
<polygon fill="black" stroke="black" points="495.57,-798.54 505.57,-795.04 495.57,-791.54 495.57,-798.54"/>
</g>
<!-- processTemplate -->
<g id="node14" class="node">
<title>processTemplate</title>
<ellipse fill="none" stroke="black" cx="547.57" cy="-957.04" rx="70.39" ry="18"/>
<text text-anchor="middle" x="547.57" y="-953.34" font-family="Times,serif" font-size="14.00">processTemplate</text>
</g>
<!-- strutils&#45;&gt;processTemplate -->
<g id="edge18" class="edge">
<title>strutils&#45;&gt;processTemplate</title>
<path fill="none" stroke="black" d="M132.38,-811.03C202.04,-836.71 343.61,-888.49 464.38,-930.04 473.26,-933.1 482.71,-936.27 491.91,-939.32"/>
<polygon fill="black" stroke="black" points="490.53,-942.55 501.12,-942.36 492.72,-935.9 490.53,-942.55"/>
</g>
<!-- env -->
<g id="node16" class="node">
<title>env</title>
<ellipse fill="none" stroke="black" cx="547.57" cy="-1065.04" rx="27" ry="18"/>
<text text-anchor="middle" x="547.57" y="-1061.34" font-family="Times,serif" font-size="14.00">env</text>
</g>
<!-- strutils&#45;&gt;env -->
<g id="edge24" class="edge">
<title>strutils&#45;&gt;env</title>
<path fill="none" stroke="black" d="M116.44,-816.25C176.38,-862.09 325.41,-971.58 464.38,-1038.04 479.17,-1045.12 496.3,-1051.07 511.07,-1055.57"/>
<polygon fill="black" stroke="black" points="509.8,-1058.84 520.39,-1058.29 511.77,-1052.12 509.8,-1058.84"/>
</g>
<!-- tempFile -->
<g id="node18" class="node">
<title>tempFile</title>
<ellipse fill="none" stroke="black" cx="547.57" cy="-1335.04" rx="42.49" ry="18"/>
<text text-anchor="middle" x="547.57" y="-1331.34" font-family="Times,serif" font-size="14.00">tempFile</text>
</g>
<!-- strutils&#45;&gt;tempFile -->
<g id="edge27" class="edge">
<title>strutils&#45;&gt;tempFile</title>
<path fill="none" stroke="black" d="M99.95,-819C137.65,-900.29 272.02,-1168.27 464.38,-1308.04 474.14,-1315.13 485.87,-1320.43 497.37,-1324.37"/>
<polygon fill="black" stroke="black" points="496.22,-1327.68 506.81,-1327.29 498.29,-1320.99 496.22,-1327.68"/>
</g>
<!-- runCommand -->
<g id="node22" class="node">
<title>runCommand</title>
<ellipse fill="none" stroke="black" cx="547.57" cy="-633.04" rx="59.59" ry="18"/>
<text text-anchor="middle" x="547.57" y="-629.34" font-family="Times,serif" font-size="14.00">runCommand</text>
</g>
<!-- strutils&#45;&gt;runCommand -->
<g id="edge35" class="edge">
<title>strutils&#45;&gt;runCommand</title>
<path fill="none" stroke="black" d="M132.38,-779.06C202.04,-753.37 343.61,-701.6 464.38,-660.04 474.29,-656.63 484.9,-653.08 495.1,-649.71"/>
<polygon fill="black" stroke="black" points="496.1,-653.06 504.51,-646.61 493.92,-646.41 496.1,-653.06"/>
</g>
<!-- vartypes -->
<g id="node23" class="node">
<title>vartypes</title>
<ellipse fill="none" stroke="black" cx="547.57" cy="-579.04" rx="40.09" ry="18"/>
<text text-anchor="middle" x="547.57" y="-575.34" font-family="Times,serif" font-size="14.00">vartypes</text>
</g>
<!-- strutils&#45;&gt;vartypes -->
<g id="edge38" class="edge">
<title>strutils&#45;&gt;vartypes</title>
<path fill="none" stroke="black" d="M123.55,-775.54C188.63,-739.1 334.97,-659.54 464.38,-606.04 476.62,-600.98 490.18,-596.2 502.69,-592.12"/>
<polygon fill="black" stroke="black" points="503.46,-595.54 511.93,-589.17 501.33,-588.88 503.46,-595.54"/>
</g>
<!-- variables -->
<g id="node24" class="node">
<title>variables</title>
<ellipse fill="none" stroke="black" cx="547.57" cy="-525.04" rx="42.49" ry="18"/>
<text text-anchor="middle" x="547.57" y="-521.34" font-family="Times,serif" font-size="14.00">variables</text>
</g>
<!-- strutils&#45;&gt;variables -->
<g id="edge39" class="edge">
<title>strutils&#45;&gt;variables</title>
<path fill="none" stroke="black" d="M116.44,-773.83C176.38,-728 325.41,-618.5 464.38,-552.04 475.69,-546.63 488.36,-541.88 500.3,-537.93"/>
<polygon fill="black" stroke="black" points="501.09,-541.36 509.56,-535 498.97,-534.68 501.09,-541.36"/>
</g>
<!-- runFunction -->
<g id="node25" class="node">
<title>runFunction</title>
<ellipse fill="none" stroke="black" cx="547.57" cy="-309.04" rx="53.89" ry="18"/>
<text text-anchor="middle" x="547.57" y="-305.34" font-family="Times,serif" font-size="14.00">runFunction</text>
</g>
<!-- strutils&#45;&gt;runFunction -->
<g id="edge44" class="edge">
<title>strutils&#45;&gt;runFunction</title>
<path fill="none" stroke="black" d="M116.87,-773.81C134.73,-759.51 157.97,-739.73 176.38,-720.04 322.1,-564.23 291.04,-460.4 464.38,-336.04 472.19,-330.44 481.22,-325.95 490.39,-322.37"/>
<polygon fill="black" stroke="black" points="491.45,-325.71 499.72,-319.08 489.12,-319.11 491.45,-325.71"/>
</g>
<!-- unicodes -->
<g id="node31" class="node">
<title>unicodes</title>
<ellipse fill="none" stroke="black" cx="547.57" cy="-255.04" rx="42.49" ry="18"/>
<text text-anchor="middle" x="547.57" y="-251.34" font-family="Times,serif" font-size="14.00">unicodes</text>
</g>
<!-- strutils&#45;&gt;unicodes -->
<g id="edge51" class="edge">
<title>strutils&#45;&gt;unicodes</title>
<path fill="none" stroke="black" d="M117.69,-773.87C135.66,-759.75 158.72,-740.14 176.38,-720.04 330.18,-545.05 279.37,-423.64 464.38,-282.04 473.96,-274.71 485.62,-269.32 497.11,-265.38"/>
<polygon fill="black" stroke="black" points="498.03,-268.75 506.56,-262.47 495.97,-262.06 498.03,-268.75"/>
</g>
<!-- signatures -->
<g id="node32" class="node">
<title>signatures</title>
<ellipse fill="none" stroke="black" cx="547.57" cy="-471.04" rx="46.29" ry="18"/>
<text text-anchor="middle" x="547.57" y="-467.34" font-family="Times,serif" font-size="14.00">signatures</text>
</g>
<!-- strutils&#45;&gt;signatures -->
<g id="edge53" class="edge">
<title>strutils&#45;&gt;signatures</title>
<path fill="none" stroke="black" d="M114.24,-773.28C185.27,-711.92 387.74,-539.26 464.38,-498.04 474.5,-492.6 485.91,-488 496.94,-484.22"/>
<polygon fill="black" stroke="black" points="497.9,-487.59 506.34,-481.19 495.74,-480.93 497.9,-487.59"/>
</g>
<!-- replacement -->
<g id="node35" class="node">
<title>replacement</title>
<ellipse fill="none" stroke="black" cx="547.57" cy="-741.04" rx="53.89" ry="18"/>
<text text-anchor="middle" x="547.57" y="-737.34" font-family="Times,serif" font-size="14.00">replacement</text>
</g>
<!-- strutils&#45;&gt;replacement -->
<g id="edge62" class="edge">
<title>strutils&#45;&gt;replacement</title>
<path fill="none" stroke="black" d="M144.36,-788.53C230.17,-778.4 395.06,-758.93 484.76,-748.34"/>
<polygon fill="black" stroke="black" points="485.09,-751.83 494.61,-747.18 484.27,-744.87 485.09,-751.83"/>
</g>
<!-- startingvars -->
<g id="node36" class="node">
<title>startingvars</title>
<ellipse fill="none" stroke="black" cx="547.57" cy="-849.04" rx="51.99" ry="18"/>
<text text-anchor="middle" x="547.57" y="-845.34" font-family="Times,serif" font-size="14.00">startingvars</text>
</g>
<!-- strutils&#45;&gt;startingvars -->
<g id="edge65" class="edge">
<title>strutils&#45;&gt;startingvars</title>
<path fill="none" stroke="black" d="M144.36,-801.56C230.74,-811.75 397.25,-831.41 486.54,-841.95"/>
<polygon fill="black" stroke="black" points="485.98,-845.41 496.32,-843.11 486.8,-838.46 485.98,-845.41"/>
</g>
<!-- codefile -->
<g id="node37" class="node">
<title>codefile</title>
<ellipse fill="none" stroke="black" cx="547.57" cy="-1173.04" rx="38.99" ry="18"/>
<text text-anchor="middle" x="547.57" y="-1169.34" font-family="Times,serif" font-size="14.00">codefile</text>
</g>
<!-- strutils&#45;&gt;codefile -->
<g id="edge69" class="edge">
<title>strutils&#45;&gt;codefile</title>
<path fill="none" stroke="black" d="M107.34,-817.91C157.55,-879.7 305.13,-1051.72 464.38,-1146.04 475.68,-1152.73 488.84,-1158 501.28,-1162.04"/>
<polygon fill="black" stroke="black" points="499.92,-1165.29 510.51,-1164.84 501.95,-1158.59 499.92,-1165.29"/>
</g>
<!-- repl -->
<g id="node40" class="node">
<title>repl</title>
<ellipse fill="none" stroke="black" cx="547.57" cy="-417.04" rx="27" ry="18"/>
<text text-anchor="middle" x="547.57" y="-413.34" font-family="Times,serif" font-size="14.00">repl</text>
</g>
<!-- strutils&#45;&gt;repl -->
<g id="edge77" class="edge">
<title>strutils&#45;&gt;repl</title>
<path fill="none" stroke="black" d="M115.07,-773.41C132.58,-758.62 156.13,-738.43 176.38,-720.04 307.63,-600.86 312.39,-535.31 464.38,-444.04 478.44,-435.6 495.45,-429.45 510.35,-425.17"/>
<polygon fill="black" stroke="black" points="511.02,-428.61 519.78,-422.64 509.21,-421.85 511.02,-428.61"/>
</g>
<!-- options -->
<g id="node3" class="node">
<title>options</title>
<ellipse fill="none" stroke="black" cx="88.19" cy="-687.04" rx="61.54" ry="24.08"/>
<text text-anchor="middle" x="88.19" y="-680.84" font-family="Times,serif" font-size="24.00">options</text>
</g>
<!-- parseCommandLine -->
<g id="node4" class="node">
<title>parseCommandLine</title>
<ellipse fill="none" stroke="black" cx="547.57" cy="-687.04" rx="83.39" ry="18"/>
<text text-anchor="middle" x="547.57" y="-683.34" font-family="Times,serif" font-size="14.00">parseCommandLine</text>
</g>
<!-- options&#45;&gt;parseCommandLine -->
<g id="edge2" class="edge">
<title>options&#45;&gt;parseCommandLine</title>
<path fill="none" stroke="black" d="M149.93,-687.04C227.3,-687.04 361.82,-687.04 452.5,-687.04"/>
<polygon fill="black" stroke="black" points="452.37,-690.54 462.37,-687.04 452.37,-683.54 452.37,-690.54"/>
</g>
<!-- options&#45;&gt;matches -->
<g id="edge12" class="edge">
<title>options&#45;&gt;matches</title>
<path fill="none" stroke="black" d="M141.66,-699.43C231.84,-720.73 414.79,-763.92 500.42,-784.14"/>
<polygon fill="black" stroke="black" points="499.59,-787.54 510.12,-786.43 501.2,-780.73 499.59,-787.54"/>
</g>
<!-- regexes -->
<g id="node13" class="node">
<title>regexes</title>
<ellipse fill="none" stroke="black" cx="547.57" cy="-201.04" rx="37.89" ry="18"/>
<text text-anchor="middle" x="547.57" y="-197.34" font-family="Times,serif" font-size="14.00">regexes</text>
</g>
<!-- options&#45;&gt;regexes -->
<g id="edge14" class="edge">
<title>options&#45;&gt;regexes</title>
<path fill="none" stroke="black" d="M133.98,-670.82C148.48,-664.23 164,-655.64 176.38,-645.04 347.54,-498.63 283.97,-362.89 464.38,-228.04 475.08,-220.04 488.27,-214.34 500.92,-210.31"/>
<polygon fill="black" stroke="black" points="501.73,-213.72 510.37,-207.6 499.8,-206.99 501.73,-213.72"/>
</g>
<!-- options&#45;&gt;processTemplate -->
<g id="edge16" class="edge">
<title>options&#45;&gt;processTemplate</title>
<path fill="none" stroke="black" d="M116.89,-708.6C177.13,-754.64 325.76,-863.75 464.38,-930.04 471.92,-933.65 480.06,-936.96 488.19,-939.94"/>
<polygon fill="black" stroke="black" points="486.79,-943.16 497.39,-943.15 489.1,-936.55 486.79,-943.16"/>
</g>
<!-- options&#45;&gt;env -->
<g id="edge23" class="edge">
<title>options&#45;&gt;env</title>
<path fill="none" stroke="black" d="M115.45,-709C132.93,-723.76 156.28,-743.79 176.38,-762.04 307.63,-881.22 312.39,-946.78 464.38,-1038.04 478.44,-1046.48 495.45,-1052.63 510.35,-1056.91"/>
<polygon fill="black" stroke="black" points="509.21,-1060.23 519.78,-1059.44 511.02,-1053.47 509.21,-1060.23"/>
</g>
<!-- options&#45;&gt;tempFile -->
<g id="edge28" class="edge">
<title>options&#45;&gt;tempFile</title>
<path fill="none" stroke="black" d="M119.18,-708.28C137.29,-722.13 159.95,-741.43 176.38,-762.04 347.37,-976.59 254.79,-1131 464.38,-1308.04 473.6,-1315.83 485.12,-1321.39 496.6,-1325.35"/>
<polygon fill="black" stroke="black" points="495.48,-1328.66 506.07,-1328.24 497.52,-1321.97 495.48,-1328.66"/>
</g>
<!-- linebuffer -->
<g id="node20" class="node">
<title>linebuffer</title>
<ellipse fill="none" stroke="black" cx="547.57" cy="-1281.04" rx="45.49" ry="18"/>
<text text-anchor="middle" x="547.57" y="-1277.34" font-family="Times,serif" font-size="14.00">linebuffer</text>
</g>
<!-- options&#45;&gt;linebuffer -->
<g id="edge31" class="edge">
<title>options&#45;&gt;linebuffer</title>
<path fill="none" stroke="black" d="M118.45,-708.22C136.51,-722.2 159.37,-741.65 176.38,-762.04 338.64,-956.65 267.25,-1094.86 464.38,-1254.04 473.23,-1261.19 484.04,-1266.47 494.88,-1270.37"/>
<polygon fill="black" stroke="black" points="493.61,-1273.64 504.21,-1273.35 495.75,-1266.97 493.61,-1273.64"/>
</g>
<!-- parseCmdLine -->
<g id="node21" class="node">
<title>parseCmdLine</title>
<ellipse fill="none" stroke="black" cx="547.57" cy="-363.04" rx="63.09" ry="18"/>
<text text-anchor="middle" x="547.57" y="-359.34" font-family="Times,serif" font-size="14.00">parseCmdLine</text>
</g>
<!-- options&#45;&gt;parseCmdLine -->
<g id="edge32" class="edge">
<title>options&#45;&gt;parseCmdLine</title>
<path fill="none" stroke="black" d="M131.28,-669.62C146.02,-662.79 162.39,-654.34 176.38,-645.04 318.74,-550.38 316.1,-475.14 464.38,-390.04 471.81,-385.78 480,-382.08 488.26,-378.89"/>
<polygon fill="black" stroke="black" points="489.43,-382.19 497.66,-375.52 487.06,-375.6 489.43,-382.19"/>
</g>
<!-- options&#45;&gt;runCommand -->
<g id="edge34" class="edge">
<title>options&#45;&gt;runCommand</title>
<path fill="none" stroke="black" d="M147.58,-680.15C232.72,-670.1 390.49,-651.47 480.02,-640.9"/>
<polygon fill="black" stroke="black" points="480.36,-644.38 489.88,-639.73 479.54,-637.43 480.36,-644.38"/>
</g>
<!-- options&#45;&gt;variables -->
<g id="edge40" class="edge">
<title>options&#45;&gt;variables</title>
<path fill="none" stroke="black" d="M133.81,-670.53C203.96,-644.67 344.43,-593.32 464.38,-552.04 476.56,-547.85 489.8,-543.44 502.03,-539.42"/>
<polygon fill="black" stroke="black" points="503.06,-542.77 511.47,-536.33 500.88,-536.12 503.06,-542.77"/>
</g>
<!-- options&#45;&gt;runFunction -->
<g id="edge42" class="edge">
<title>options&#45;&gt;runFunction</title>
<path fill="none" stroke="black" d="M132.68,-669.95C147.24,-663.25 163.12,-654.81 176.38,-645.04 327.55,-533.72 306.22,-437.19 464.38,-336.04 472.75,-330.69 482.27,-326.3 491.8,-322.74"/>
<polygon fill="black" stroke="black" points="492.76,-326.11 501.07,-319.55 490.48,-319.49 492.76,-326.11"/>
</g>
<!-- parseNumber -->
<g id="node28" class="node">
<title>parseNumber</title>
<ellipse fill="none" stroke="black" cx="547.57" cy="-93.04" rx="58.49" ry="18"/>
<text text-anchor="middle" x="547.57" y="-89.34" font-family="Times,serif" font-size="14.00">parseNumber</text>
</g>
<!-- options&#45;&gt;parseNumber -->
<g id="edge48" class="edge">
<title>options&#45;&gt;parseNumber</title>
<path fill="none" stroke="black" d="M135.08,-671.34C149.49,-664.82 164.68,-656.14 176.38,-645.04 369.47,-461.89 259.67,-290.11 464.38,-120.04 470.97,-114.57 478.7,-110.2 486.73,-106.7"/>
<polygon fill="black" stroke="black" points="487.92,-110 495.99,-103.14 485.4,-103.46 487.92,-110"/>
</g>
<!-- options&#45;&gt;signatures -->
<g id="edge54" class="edge">
<title>options&#45;&gt;signatures</title>
<path fill="none" stroke="black" d="M128.35,-668.42C143.4,-661.19 160.73,-652.81 176.38,-645.04 305.12,-581.19 331.72,-553.3 464.38,-498.04 475.41,-493.45 487.53,-489.1 498.99,-485.29"/>
<polygon fill="black" stroke="black" points="499.84,-488.69 508.27,-482.28 497.68,-482.03 499.84,-488.69"/>
</g>
<!-- options&#45;&gt;replacement -->
<g id="edge59" class="edge">
<title>options&#45;&gt;replacement</title>
<path fill="none" stroke="black" d="M147.58,-693.94C234.33,-704.18 396.5,-723.32 485.04,-733.78"/>
<polygon fill="black" stroke="black" points="484.4,-737.23 494.74,-734.92 485.22,-730.27 484.4,-737.23"/>
</g>
<!-- options&#45;&gt;codefile -->
<g id="edge66" class="edge">
<title>options&#45;&gt;codefile</title>
<path fill="none" stroke="black" d="M117.27,-708.59C135.07,-722.87 158.1,-742.5 176.38,-762.04 322.1,-917.85 291.04,-1021.68 464.38,-1146.04 474.85,-1153.55 487.52,-1159.06 499.75,-1163.06"/>
<polygon fill="black" stroke="black" points="498.75,-1166.42 509.33,-1165.9 500.74,-1159.7 498.75,-1166.42"/>
</g>
<!-- updateTemplate -->
<g id="node38" class="node">
<title>updateTemplate</title>
<ellipse fill="none" stroke="black" cx="547.57" cy="-1119.04" rx="67.69" ry="18"/>
<text text-anchor="middle" x="547.57" y="-1115.34" font-family="Times,serif" font-size="14.00">updateTemplate</text>
</g>
<!-- options&#45;&gt;updateTemplate -->
<g id="edge72" class="edge">
<title>options&#45;&gt;updateTemplate</title>
<path fill="none" stroke="black" d="M116.39,-708.74C134.05,-723.23 157.25,-743.05 176.38,-762.04 314.52,-899.2 302.12,-984.49 464.38,-1092.04 470.85,-1096.33 478.05,-1099.98 485.43,-1103.09"/>
<polygon fill="black" stroke="black" points="483.92,-1106.26 494.51,-1106.58 486.43,-1099.72 483.92,-1106.26"/>
</g>
<!-- options&#45;&gt;repl -->
<g id="edge76" class="edge">
<title>options&#45;&gt;repl</title>
<path fill="none" stroke="black" d="M129.82,-669.12C144.74,-662.12 161.59,-653.69 176.38,-645.04 311.13,-566.25 324.75,-513.81 464.38,-444.04 479.05,-436.71 496.15,-430.72 510.95,-426.27"/>
<polygon fill="black" stroke="black" points="511.64,-429.71 520.28,-423.58 509.7,-422.98 511.64,-429.71"/>
</g>
<!-- tables -->
<g id="node5" class="node">
<title>tables</title>
<ellipse fill="none" stroke="black" cx="88.19" cy="-612.04" rx="50.82" ry="24.08"/>
<text text-anchor="middle" x="88.19" y="-605.84" font-family="Times,serif" font-size="24.00">tables</text>
</g>
<!-- tables&#45;&gt;parseCommandLine -->
<g id="edge3" class="edge">
<title>tables&#45;&gt;parseCommandLine</title>
<path fill="none" stroke="black" d="M136.84,-619.86C215.67,-632.78 373.91,-658.73 469.02,-674.32"/>
<polygon fill="black" stroke="black" points="468.36,-677.76 478.8,-675.93 469.5,-670.86 468.36,-677.76"/>
</g>
<!-- args -->
<g id="node8" class="node">
<title>args</title>
<ellipse fill="none" stroke="black" cx="547.57" cy="-147.04" rx="27" ry="18"/>
<text text-anchor="middle" x="547.57" y="-143.34" font-family="Times,serif" font-size="14.00">args</text>
</g>
<!-- tables&#45;&gt;args -->
<g id="edge7" class="edge">
<title>tables&#45;&gt;args</title>
<path fill="none" stroke="black" d="M133.48,-600.92C148.1,-595.84 163.82,-588.73 176.38,-579.04 351.24,-444.1 286.57,-305.06 464.38,-174.04 477.68,-164.24 494.72,-157.88 509.83,-153.81"/>
<polygon fill="black" stroke="black" points="510.55,-157.24 519.45,-151.48 508.91,-150.43 510.55,-157.24"/>
</g>
<!-- tables&#45;&gt;cmdline -->
<g id="edge9" class="edge">
<title>tables&#45;&gt;cmdline</title>
<path fill="none" stroke="black" d="M126.57,-627.97C142.34,-635.22 160.65,-644.34 176.38,-654.04 313.92,-738.9 321.56,-800.4 464.38,-876.04 475.76,-882.07 488.74,-887.09 500.97,-891.1"/>
<polygon fill="black" stroke="black" points="499.89,-894.43 510.48,-894.05 501.96,-887.74 499.89,-894.43"/>
</g>
<!-- tables&#45;&gt;regexes -->
<g id="edge15" class="edge">
<title>tables&#45;&gt;regexes</title>
<path fill="none" stroke="black" d="M133.11,-600.42C147.7,-595.3 163.5,-588.29 176.38,-579.04 340.29,-461.34 297.9,-342.07 464.38,-228.04 475.4,-220.49 488.69,-214.93 501.33,-210.88"/>
<polygon fill="black" stroke="black" points="502.14,-214.3 510.75,-208.13 500.17,-207.58 502.14,-214.3"/>
</g>
<!-- tables&#45;&gt;processTemplate -->
<g id="edge17" class="edge">
<title>tables&#45;&gt;processTemplate</title>
<path fill="none" stroke="black" d="M127.97,-627.55C143.62,-634.61 161.47,-643.7 176.38,-654.04 322.05,-755.1 312.39,-838.78 464.38,-930.04 471.03,-934.04 478.35,-937.52 485.78,-940.53"/>
<polygon fill="black" stroke="black" points="484.32,-943.72 494.91,-943.95 486.77,-937.16 484.32,-943.72"/>
</g>
<!-- tables&#45;&gt;parseCmdLine -->
<g id="edge33" class="edge">
<title>tables&#45;&gt;parseCmdLine</title>
<path fill="none" stroke="black" d="M130.8,-598.4C145.5,-593.03 161.96,-586.39 176.38,-579.04 312.79,-509.53 326.46,-456.51 464.38,-390.04 472.65,-386.05 481.66,-382.43 490.59,-379.23"/>
<polygon fill="black" stroke="black" points="491.61,-382.57 499.94,-376.02 489.34,-375.95 491.61,-382.57"/>
</g>
<!-- tables&#45;&gt;runCommand -->
<g id="edge36" class="edge">
<title>tables&#45;&gt;runCommand</title>
<path fill="none" stroke="black" d="M139.01,-614.33C220.8,-618.08 383.75,-625.57 476.93,-629.84"/>
<polygon fill="black" stroke="black" points="476.55,-633.33 486.7,-630.29 476.87,-626.34 476.55,-633.33"/>
</g>
<!-- tables&#45;&gt;vartypes -->
<g id="edge37" class="edge">
<title>tables&#45;&gt;vartypes</title>
<path fill="none" stroke="black" d="M138.57,-608.48C226.23,-602.15 408.06,-589.04 496.33,-582.67"/>
<polygon fill="black" stroke="black" points="496.4,-586.17 506.13,-581.96 495.9,-579.19 496.4,-586.17"/>
</g>
<!-- tables&#45;&gt;variables -->
<g id="edge41" class="edge">
<title>tables&#45;&gt;variables</title>
<path fill="none" stroke="black" d="M135.99,-603.14C222.91,-586.61 408.48,-551.31 497.26,-534.42"/>
<polygon fill="black" stroke="black" points="497.71,-537.9 506.88,-532.59 496.4,-531.02 497.71,-537.9"/>
</g>
<!-- tables&#45;&gt;runFunction -->
<g id="edge43" class="edge">
<title>tables&#45;&gt;runFunction</title>
<path fill="none" stroke="black" d="M131.76,-599.19C146.4,-593.94 162.57,-587.16 176.38,-579.04 320.77,-494.18 318.15,-417.67 464.38,-336.04 473.15,-331.15 482.94,-326.97 492.62,-323.47"/>
<polygon fill="black" stroke="black" points="493.67,-326.81 502.02,-320.28 491.42,-320.18 493.67,-326.81"/>
</g>
<!-- tables&#45;&gt;signatures -->
<g id="edge52" class="edge">
<title>tables&#45;&gt;signatures</title>
<path fill="none" stroke="black" d="M131.4,-599.03C216.97,-572.65 410.34,-513.04 499.69,-485.5"/>
<polygon fill="black" stroke="black" points="500.59,-488.88 509.12,-482.59 498.53,-482.19 500.59,-488.88"/>
</g>
<!-- readjson -->
<g id="node33" class="node">
<title>readjson</title>
<ellipse fill="none" stroke="black" cx="547.57" cy="-1389.04" rx="40.09" ry="18"/>
<text text-anchor="middle" x="547.57" y="-1385.34" font-family="Times,serif" font-size="14.00">readjson</text>
</g>
<!-- tables&#45;&gt;readjson -->
<g id="edge58" class="edge">
<title>tables&#45;&gt;readjson</title>
<path fill="none" stroke="black" d="M131.36,-625.03C147.14,-631.63 164.19,-641.06 176.38,-654.04 408.96,-901.64 216.04,-1130.26 464.38,-1362.04 473.71,-1370.75 485.91,-1376.65 498.03,-1380.65"/>
<polygon fill="black" stroke="black" points="497.04,-1384.01 507.61,-1383.4 498.97,-1377.28 497.04,-1384.01"/>
</g>
<!-- tables&#45;&gt;startingvars -->
<g id="edge64" class="edge">
<title>tables&#45;&gt;startingvars</title>
<path fill="none" stroke="black" d="M125.57,-628.78C141.33,-636.23 159.91,-645.29 176.38,-654.04 307.24,-723.58 329.24,-761.25 464.38,-822.04 474.24,-826.48 485.06,-830.55 495.51,-834.12"/>
<polygon fill="black" stroke="black" points="494.19,-837.37 504.78,-837.18 496.38,-830.72 494.19,-837.37"/>
</g>
<!-- tables&#45;&gt;updateTemplate -->
<g id="edge73" class="edge">
<title>tables&#45;&gt;updateTemplate</title>
<path fill="none" stroke="black" d="M129.67,-626.13C145.4,-632.92 162.85,-642.2 176.38,-654.04 351.69,-807.49 279.37,-950.44 464.38,-1092.04 470.31,-1096.58 477.04,-1100.37 484.03,-1103.54"/>
<polygon fill="black" stroke="black" points="482.41,-1106.66 492.99,-1107.18 485.04,-1100.18 482.41,-1106.66"/>
</g>
<!-- tables&#45;&gt;repl -->
<g id="edge75" class="edge">
<title>tables&#45;&gt;repl</title>
<path fill="none" stroke="black" d="M129.38,-597.56C144.25,-592.02 161.18,-585.47 176.38,-579.04 306.58,-523.98 332.99,-496.2 464.38,-444.04 479.73,-437.95 497.06,-432.11 511.84,-427.43"/>
<polygon fill="black" stroke="black" points="512.61,-430.85 521.12,-424.54 510.53,-424.17 512.61,-430.85"/>
</g>
<!-- os -->
<g id="node6" class="node">
<title>os</title>
<ellipse fill="none" stroke="black" cx="88.19" cy="-1076.04" rx="27" ry="24.08"/>
<text text-anchor="middle" x="88.19" y="-1069.84" font-family="Times,serif" font-size="24.00">os</text>
</g>
<!-- os&#45;&gt;statictea -->
<g id="edge80" class="edge">
<title>os&#45;&gt;statictea</title>
<path fill="none" stroke="black" d="M113.77,-1084.18C173.69,-1104.02 332.11,-1156.46 464.38,-1200.04 477.18,-1204.26 491.1,-1208.84 503.79,-1213"/>
<polygon fill="black" stroke="black" points="502.53,-1216.27 513.12,-1216.07 504.71,-1209.62 502.53,-1216.27"/>
</g>
<!-- os&#45;&gt;parseCommandLine -->
<g id="edge4" class="edge">
<title>os&#45;&gt;parseCommandLine</title>
<path fill="none" stroke="black" d="M104.07,-1056.42C150.59,-996.35 300.04,-813.1 464.38,-714.04 469.9,-710.71 475.88,-707.74 482.01,-705.1"/>
<polygon fill="black" stroke="black" points="483.01,-708.47 491.01,-701.53 480.42,-701.97 483.01,-708.47"/>
</g>
<!-- os&#45;&gt;cmdline -->
<g id="edge8" class="edge">
<title>os&#45;&gt;cmdline</title>
<path fill="none" stroke="black" d="M113.16,-1066.2C172.38,-1041.99 330.49,-978.05 464.38,-930.04 476.96,-925.53 490.72,-920.9 503.32,-916.77"/>
<polygon fill="black" stroke="black" points="504.17,-920.17 512.6,-913.75 502,-913.52 504.17,-920.17"/>
</g>
<!-- os&#45;&gt;env -->
<g id="edge21" class="edge">
<title>os&#45;&gt;env</title>
<path fill="none" stroke="black" d="M115.42,-1075.41C192.54,-1073.56 418.73,-1068.12 508.87,-1065.95"/>
<polygon fill="black" stroke="black" points="508.73,-1069.45 518.65,-1065.71 508.57,-1062.45 508.73,-1069.45"/>
</g>
<!-- os&#45;&gt;tempFile -->
<g id="edge25" class="edge">
<title>os&#45;&gt;tempFile</title>
<path fill="none" stroke="black" d="M112.91,-1086.78C130.68,-1095.05 155.43,-1107.06 176.38,-1119.04 309.29,-1195.04 326.46,-1241.58 464.38,-1308.04 475.67,-1313.48 488.34,-1318.25 500.28,-1322.19"/>
<polygon fill="black" stroke="black" points="498.95,-1325.45 509.54,-1325.13 501.07,-1318.77 498.95,-1325.45"/>
</g>
<!-- os&#45;&gt;runFunction -->
<g id="edge46" class="edge">
<title>os&#45;&gt;runFunction</title>
<path fill="none" stroke="black" d="M97.91,-1053.43C141.72,-940.91 340.48,-442.43 464.38,-336.04 471.59,-329.85 480.25,-325.07 489.21,-321.39"/>
<polygon fill="black" stroke="black" points="490.17,-324.76 498.37,-318.06 487.78,-318.18 490.17,-324.76"/>
</g>
<!-- os&#45;&gt;readjson -->
<g id="edge56" class="edge">
<title>os&#45;&gt;readjson</title>
<path fill="none" stroke="black" d="M112.98,-1085.89C131,-1093.79 156.04,-1105.73 176.38,-1119.04 316.51,-1210.75 318.15,-1280.41 464.38,-1362.04 475.63,-1368.32 488.56,-1373.42 500.79,-1377.43"/>
<polygon fill="black" stroke="black" points="499.72,-1380.76 510.31,-1380.36 501.78,-1374.07 499.72,-1380.76"/>
</g>
<!-- os&#45;&gt;startingvars -->
<g id="edge63" class="edge">
<title>os&#45;&gt;startingvars</title>
<path fill="none" stroke="black" d="M110.94,-1062.72C167.58,-1028.42 324.88,-935.61 464.38,-876.04 474.43,-871.75 485.4,-867.72 495.96,-864.15"/>
<polygon fill="black" stroke="black" points="496.92,-867.52 505.33,-861.07 494.73,-860.87 496.92,-867.52"/>
</g>
<!-- os&#45;&gt;codefile -->
<g id="edge67" class="edge">
<title>os&#45;&gt;codefile</title>
<path fill="none" stroke="black" d="M114.76,-1081.46C188.97,-1097.2 405.15,-1143.05 500.49,-1163.27"/>
<polygon fill="black" stroke="black" points="499.51,-1166.64 510.02,-1165.29 500.96,-1159.79 499.51,-1166.64"/>
</g>
<!-- os&#45;&gt;updateTemplate -->
<g id="edge71" class="edge">
<title>os&#45;&gt;updateTemplate</title>
<path fill="none" stroke="black" d="M115.42,-1078.51C183.49,-1084.91 367.67,-1102.22 471.95,-1112.03"/>
<polygon fill="black" stroke="black" points="471.54,-1115.5 481.83,-1112.95 472.2,-1108.53 471.54,-1115.5"/>
</g>
<!-- strformat -->
<g id="node7" class="node">
<title>strformat</title>
<ellipse fill="none" stroke="red" cx="88.19" cy="-402.04" rx="74.49" ry="24.08"/>
<text text-anchor="middle" x="88.19" y="-395.84" font-family="Times,serif" font-size="24.00">strformat</text>
</g>
<!-- strformat&#45;&gt;args -->
<g id="edge5" class="edge">
<title>strformat&#45;&gt;args</title>
<path fill="none" stroke="red" d="M140.78,-384.8C152.7,-380.19 165.17,-374.85 176.38,-369.04 313.6,-297.87 325.61,-242.15 464.38,-174.04 479.1,-166.82 496.21,-160.84 511,-156.37"/>
<polygon fill="red" stroke="red" points="511.7,-159.81 520.32,-153.66 509.75,-153.09 511.7,-159.81"/>
</g>
<!-- strformat&#45;&gt;replacement -->
<g id="edge61" class="edge">
<title>strformat&#45;&gt;replacement</title>
<path fill="none" stroke="red" d="M143.4,-418.63C154.72,-423.16 166.27,-428.62 176.38,-435.04 326.83,-530.56 311.84,-621.89 464.38,-714.04 472.88,-719.18 482.47,-723.46 492.03,-726.99"/>
<polygon fill="red" stroke="red" points="490.71,-730.24 501.3,-730.17 492.98,-723.62 490.71,-730.24"/>
</g>
<!-- re -->
<g id="node12" class="node">
<title>re</title>
<polygon fill="palegreen" stroke="black" points="115.19,-163.25 115.19,-184.83 99.37,-200.08 77.01,-200.08 61.19,-184.83 61.19,-163.25 77.01,-148 99.37,-148 115.19,-163.25"/>
<polygon fill="none" stroke="black" points="119.19,-161.55 119.19,-186.53 100.99,-204.09 75.39,-204.09 57.19,-186.53 57.19,-161.55 75.39,-144 100.99,-144 119.19,-161.55"/>
<text text-anchor="middle" x="88.19" y="-167.84" font-family="Times,serif" font-size="24.00">re</text>
</g>
<!-- re&#45;&gt;regexes -->
<g id="edge13" class="edge">
<title>re&#45;&gt;regexes</title>
<path fill="none" stroke="black" d="M119.55,-175.83C197.24,-180.42 403.71,-192.61 498.17,-198.18"/>
<polygon fill="black" stroke="black" points="497.96,-201.68 508.15,-198.77 498.37,-194.69 497.96,-201.68"/>
</g>
<!-- streams -->
<g id="node15" class="node">
<title>streams</title>
<ellipse fill="none" stroke="black" cx="88.19" cy="-1152.04" rx="62.87" ry="24.08"/>
<text text-anchor="middle" x="88.19" y="-1145.84" font-family="Times,serif" font-size="24.00">streams</text>
</g>
<!-- streams&#45;&gt;processTemplate -->
<g id="edge19" class="edge">
<title>streams&#45;&gt;processTemplate</title>
<path fill="none" stroke="black" d="M128.06,-1133.03C195.56,-1100.37 339.25,-1032.46 464.38,-984.04 472.85,-980.77 481.89,-977.53 490.78,-974.5"/>
<polygon fill="black" stroke="black" points="491.68,-977.89 500.05,-971.4 489.46,-971.26 491.68,-977.89"/>
</g>
<!-- streams&#45;&gt;env -->
<g id="edge20" class="edge">
<title>streams&#45;&gt;env</title>
<path fill="none" stroke="black" d="M145.27,-1141.37C240.31,-1123.3 430.43,-1087.13 510.11,-1071.98"/>
<polygon fill="black" stroke="black" points="510.39,-1075.49 519.56,-1070.18 509.08,-1068.61 510.39,-1075.49"/>
</g>
<!-- streams&#45;&gt;tempFile -->
<g id="edge29" class="edge">
<title>streams&#45;&gt;tempFile</title>
<path fill="none" stroke="black" d="M130.14,-1170.28C198.67,-1200.53 341.22,-1262.28 464.38,-1308.04 476.35,-1312.49 489.43,-1316.96 501.56,-1320.94"/>
<polygon fill="black" stroke="black" points="500.35,-1324.23 510.94,-1323.99 502.51,-1317.57 500.35,-1324.23"/>
</g>
<!-- streams&#45;&gt;linebuffer -->
<g id="edge30" class="edge">
<title>streams&#45;&gt;linebuffer</title>
<path fill="none" stroke="black" d="M139.45,-1166.22C228.26,-1191.27 411.79,-1243.03 498.8,-1267.57"/>
<polygon fill="black" stroke="black" points="497.64,-1270.88 508.21,-1270.22 499.54,-1264.14 497.64,-1270.88"/>
</g>
<!-- streams&#45;&gt;readjson -->
<g id="edge55" class="edge">
<title>streams&#45;&gt;readjson</title>
<path fill="none" stroke="black" d="M121.22,-1172.78C184.69,-1213.24 331.79,-1303.81 464.38,-1362.04 476.4,-1367.32 489.79,-1372.14 502.22,-1376.2"/>
<polygon fill="black" stroke="black" points="500.8,-1379.42 511.39,-1379.11 502.92,-1372.75 500.8,-1379.42"/>
</g>
<!-- streams&#45;&gt;replacement -->
<g id="edge60" class="edge">
<title>streams&#45;&gt;replacement</title>
<path fill="none" stroke="black" d="M132.94,-1134.77C147.52,-1127.92 163.35,-1119.23 176.38,-1109.04 332.63,-986.82 299.92,-878.97 464.38,-768.04 472.52,-762.55 481.87,-758.1 491.27,-754.52"/>
<polygon fill="black" stroke="black" points="492.13,-757.93 500.42,-751.34 489.83,-751.32 492.13,-757.93"/>
</g>
<!-- streams&#45;&gt;codefile -->
<g id="edge68" class="edge">
<title>streams&#45;&gt;codefile</title>
<path fill="none" stroke="black" d="M150.88,-1154.87C242.63,-1159.09 413.26,-1166.92 497.26,-1170.78"/>
<polygon fill="black" stroke="black" points="496.85,-1174.26 507,-1171.22 497.18,-1167.27 496.85,-1174.26"/>
</g>
<!-- streams&#45;&gt;updateTemplate -->
<g id="edge70" class="edge">
<title>streams&#45;&gt;updateTemplate</title>
<path fill="none" stroke="black" d="M150.4,-1147.63C233.07,-1141.66 380.38,-1131.03 470.2,-1124.55"/>
<polygon fill="black" stroke="black" points="470.44,-1128.04 480.16,-1123.83 469.93,-1121.06 470.44,-1128.04"/>
</g>
<!-- times -->
<g id="node17" class="node">
<title>times</title>
<ellipse fill="none" stroke="red" cx="88.19" cy="-468.04" rx="48.17" ry="24.08"/>
<text text-anchor="middle" x="88.19" y="-461.84" font-family="Times,serif" font-size="24.00">times</text>
</g>
<!-- times&#45;&gt;env -->
<g id="edge22" class="edge">
<title>times&#45;&gt;env</title>
<path fill="none" stroke="red" d="M132.41,-477.68C147.61,-482.7 163.97,-490.15 176.38,-501.04 379.96,-679.65 256.89,-864 464.38,-1038.04 477.25,-1048.84 494.57,-1055.35 509.98,-1059.27"/>
<polygon fill="red" stroke="red" points="508.78,-1062.59 519.31,-1061.35 510.31,-1055.76 508.78,-1062.59"/>
</g>
<!-- timer -->
<g id="node41" class="node">
<title>timer</title>
<ellipse fill="none" stroke="black" cx="547.57" cy="-31.04" rx="29.8" ry="18"/>
<text text-anchor="middle" x="547.57" y="-27.34" font-family="Times,serif" font-size="14.00">timer</text>
</g>
<!-- times&#45;&gt;timer -->
<g id="edge78" class="edge">
<title>times&#45;&gt;timer</title>
<path fill="none" stroke="red" d="M131.46,-457.21C146.55,-452.06 163.09,-444.83 176.38,-435.04 343.87,-311.65 299.44,-192.82 464.38,-66.04 477.74,-55.77 494.56,-47.92 509.5,-42.28"/>
<polygon fill="red" stroke="red" points="510.29,-45.71 518.54,-39.06 507.95,-39.11 510.29,-45.71"/>
</g>
<!-- random -->
<g id="node19" class="node">
<title>random</title>
<polygon fill="palegreen" stroke="black" points="156.96,-1312.25 156.96,-1333.83 116.68,-1349.08 59.7,-1349.08 19.42,-1333.83 19.42,-1312.25 59.7,-1297 116.68,-1297 156.96,-1312.25"/>
<polygon fill="none" stroke="black" points="160.96,-1309.49 160.96,-1336.6 117.41,-1353.09 58.97,-1353.09 15.42,-1336.6 15.42,-1309.49 58.97,-1293 117.41,-1293 160.96,-1309.49"/>
<text text-anchor="middle" x="88.19" y="-1316.84" font-family="Times,serif" font-size="24.00">random</text>
</g>
<!-- random&#45;&gt;tempFile -->
<g id="edge26" class="edge">
<title>random&#45;&gt;tempFile</title>
<path fill="none" stroke="black" d="M161.41,-1324.94C253.76,-1327.36 411.51,-1331.5 493.53,-1333.65"/>
<polygon fill="black" stroke="black" points="493.22,-1337.14 503.31,-1333.91 493.4,-1330.15 493.22,-1337.14"/>
</g>
<!-- math -->
<g id="node26" class="node">
<title>math</title>
<ellipse fill="none" stroke="red" cx="88.19" cy="-24.04" rx="45.92" ry="24.08"/>
<text text-anchor="middle" x="88.19" y="-17.84" font-family="Times,serif" font-size="24.00">math</text>
</g>
<!-- math&#45;&gt;runFunction -->
<g id="edge45" class="edge">
<title>math&#45;&gt;runFunction</title>
<path fill="none" stroke="red" d="M128.51,-36.09C143.91,-41.53 161.43,-48.63 176.38,-57.04 317.94,-136.69 321.08,-205.55 464.38,-282.04 473.43,-286.87 483.5,-291.05 493.4,-294.57"/>
<polygon fill="red" stroke="red" points="492,-297.79 502.59,-297.66 494.23,-291.16 492,-297.79"/>
</g>
<!-- math&#45;&gt;timer -->
<g id="edge79" class="edge">
<title>math&#45;&gt;timer</title>
<path fill="none" stroke="red" d="M134.3,-24.73C223.41,-26.1 420.77,-29.12 506.03,-30.42"/>
<polygon fill="red" stroke="red" points="505.73,-33.92 515.78,-30.57 505.84,-26.92 505.73,-33.92"/>
</g>
<!-- algorithm -->
<g id="node27" class="node">
<title>algorithm</title>
<polygon fill="palegreen" stroke="black" points="172.56,-319.25 172.56,-340.83 123.14,-356.08 53.24,-356.08 3.82,-340.83 3.82,-319.25 53.24,-304 123.14,-304 172.56,-319.25"/>
<polygon fill="none" stroke="black" points="176.57,-316.3 176.57,-343.78 123.74,-360.09 52.64,-360.09 -0.19,-343.78 -0.19,-316.3 52.64,-300 123.74,-300 176.57,-316.3"/>
<text text-anchor="middle" x="88.19" y="-323.84" font-family="Times,serif" font-size="24.00">algorithm</text>
</g>
<!-- algorithm&#45;&gt;runFunction -->
<g id="edge47" class="edge">
<title>algorithm&#45;&gt;runFunction</title>
<path fill="none" stroke="black" d="M176.84,-326.02C266.21,-321.91 402.74,-315.65 482.48,-311.98"/>
<polygon fill="black" stroke="black" points="482.48,-315.49 492.31,-311.53 482.16,-308.5 482.48,-315.49"/>
</g>
<!-- parseutils -->
<g id="node29" class="node">
<title>parseutils</title>
<polygon fill="palegreen" stroke="black" points="171,-85.25 171,-106.83 122.49,-122.08 53.89,-122.08 5.38,-106.83 5.38,-85.25 53.89,-70 122.49,-70 171,-85.25"/>
<polygon fill="none" stroke="black" points="175.01,-82.32 175.01,-109.77 123.11,-126.09 53.27,-126.09 1.37,-109.77 1.37,-82.32 53.27,-66 123.11,-66 175.01,-82.32"/>
<text text-anchor="middle" x="88.19" y="-89.84" font-family="Times,serif" font-size="24.00">parseutils</text>
</g>
<!-- parseutils&#45;&gt;parseNumber -->
<g id="edge49" class="edge">
<title>parseutils&#45;&gt;parseNumber</title>
<path fill="none" stroke="black" d="M175.49,-95.48C263.14,-94.9 397.14,-94.02 477.86,-93.49"/>
<polygon fill="black" stroke="black" points="477.39,-97 487.37,-93.43 477.35,-90 477.39,-97"/>
</g>
<!-- unicode -->
<g id="node30" class="node">
<title>unicode</title>
<polygon fill="palegreen" stroke="black" points="158.52,-241.25 158.52,-262.83 117.32,-278.08 59.06,-278.08 17.86,-262.83 17.86,-241.25 59.06,-226 117.32,-226 158.52,-241.25"/>
<polygon fill="none" stroke="black" points="162.52,-238.47 162.52,-265.62 118.04,-282.09 58.34,-282.09 13.86,-265.62 13.86,-238.47 58.34,-222 118.04,-222 162.52,-238.47"/>
<text text-anchor="middle" x="88.19" y="-245.84" font-family="Times,serif" font-size="24.00">unicode</text>
</g>
<!-- unicode&#45;&gt;unicodes -->
<g id="edge50" class="edge">
<title>unicode&#45;&gt;unicodes</title>
<path fill="none" stroke="black" d="M162.93,-252.53C255.41,-253.13 411.72,-254.16 493.34,-254.69"/>
<polygon fill="black" stroke="black" points="493.29,-258.19 503.31,-254.76 493.33,-251.19 493.29,-258.19"/>
</g>
<!-- json -->
<g id="node34" class="node">
<title>json</title>
<polygon fill="palegreen" stroke="black" points="130.92,-1390.25 130.92,-1411.83 105.89,-1427.08 70.49,-1427.08 45.46,-1411.83 45.46,-1390.25 70.49,-1375 105.89,-1375 130.92,-1390.25"/>
<polygon fill="none" stroke="black" points="134.91,-1388 134.91,-1414.08 107.01,-1431.09 69.37,-1431.09 41.47,-1414.08 41.47,-1388 69.37,-1371 107.01,-1371 134.91,-1388"/>
<text text-anchor="middle" x="88.19" y="-1394.84" font-family="Times,serif" font-size="24.00">json</text>
</g>
<!-- json&#45;&gt;readjson -->
<g id="edge57" class="edge">
<title>json&#45;&gt;readjson</title>
<path fill="none" stroke="black" d="M135.14,-1399.84C221.21,-1397.58 406.1,-1392.73 495.76,-1390.37"/>
<polygon fill="black" stroke="black" points="495.82,-1393.87 505.73,-1390.11 495.64,-1386.88 495.82,-1393.87"/>
</g>
<!-- rdstdin -->
<g id="node39" class="node">
<title>rdstdin</title>
<polygon fill="palegreen" stroke="black" points="151.74,-529.25 151.74,-550.83 114.51,-566.08 61.87,-566.08 24.64,-550.83 24.64,-529.25 61.87,-514 114.51,-514 151.74,-529.25"/>
<polygon fill="none" stroke="black" points="155.74,-526.57 155.74,-553.51 115.3,-570.09 61.08,-570.09 20.64,-553.51 20.64,-526.57 61.08,-510 115.3,-510 155.74,-526.57"/>
<text text-anchor="middle" x="88.19" y="-533.84" font-family="Times,serif" font-size="24.00">rdstdin</text>
</g>
<!-- rdstdin&#45;&gt;repl -->
<g id="edge74" class="edge">
<title>rdstdin&#45;&gt;repl</title>
<path fill="none" stroke="black" d="M149.93,-523.71C246.77,-497.66 433.18,-447.54 511.04,-426.6"/>
<polygon fill="black" stroke="black" points="511.94,-429.98 520.68,-424 510.12,-423.22 511.94,-429.98"/>
</g>
</g>
</svg>
