<?xml version="1.0" encoding="UTF-8" standalone="no"?>
<!DOCTYPE svg PUBLIC "-//W3C//DTD SVG 1.1//EN"
 "http://www.w3.org/Graphics/SVG/1.1/DTD/svg11.dtd">
<!-- Generated by graphviz version 7.0.1 (20221109.1506)
 -->
<!-- Title: statictea Pages: 1 -->
<svg width="3473pt" height="1722pt"
 viewBox="0.00 0.00 3473.48 1722.06" xmlns="http://www.w3.org/2000/svg" xmlns:xlink="http://www.w3.org/1999/xlink">
<g id="graph0" class="graph" transform="scale(1 1) rotate(0) translate(4 1718.06)">
<title>statictea</title>
<polygon fill="white" stroke="none" points="-4,4 -4,-1718.06 3469.48,-1718.06 3469.48,4 -4,4"/>
<!-- args -->
<g id="node1" class="node">
<title>args</title>
<g id="a_node1"><a xlink:href="html/args.html" xlink:title="args.md" target="_parent">
<ellipse fill="palegoldenrod" stroke="black" cx="556.2" cy="-631" rx="39.7" ry="24.08"/>
<text text-anchor="middle" x="556.2" y="-624.8" font-family="Times,serif" font-size="24.00">args</text>
</a>
</g>
</g>
<!-- messages -->
<g id="node9" class="node">
<title>messages</title>
<g id="a_node9"><a xlink:href="html/messages.html" xlink:title="messages.md" target="_parent">
<polygon fill="palegreen" stroke="black" points="1871.45,-35.21 1871.45,-56.79 1823.86,-72.04 1756.54,-72.04 1708.95,-56.79 1708.95,-35.21 1756.54,-19.96 1823.86,-19.96 1871.45,-35.21"/>
<polygon fill="none" stroke="black" points="1875.46,-32.29 1875.46,-59.71 1824.48,-76.04 1755.92,-76.04 1704.94,-59.71 1704.94,-32.29 1755.92,-15.96 1824.48,-15.96 1875.46,-32.29"/>
<text text-anchor="middle" x="1790.2" y="-39.8" font-family="Times,serif" font-size="24.00">messages</text>
</a>
</g>
</g>
<!-- args&#45;&gt;messages -->
<g id="edge1" class="edge">
<title>args&#45;&gt;messages</title>
<path fill="none" stroke="black" d="M548.7,-606.92C525.63,-530.99 464.34,-286.59 586.2,-160.96 662.76,-82.03 1420.28,-55.97 1693,-49.1"/>
<polygon fill="black" stroke="black" points="1693.03,-52.6 1702.94,-48.86 1692.85,-45.6 1693.03,-52.6"/>
</g>
<!-- opresult -->
<g id="node10" class="node">
<title>opresult</title>
<g id="a_node10"><a xlink:href="html/opresult.html" xlink:title="opresult.md" target="_parent">
<ellipse fill="palegoldenrod" stroke="black" cx="1890.2" cy="-185" rx="66.44" ry="24.08"/>
<text text-anchor="middle" x="1890.2" y="-178.8" font-family="Times,serif" font-size="24.00">opresult</text>
</a>
</g>
</g>
<!-- args&#45;&gt;opresult -->
<g id="edge3" class="edge">
<title>args&#45;&gt;opresult</title>
<path fill="none" stroke="black" d="M575.03,-609.29C595.26,-586.55 627.79,-548.53 652.2,-513.02 715.33,-421.18 682.7,-355.72 776.2,-295.06 862.91,-238.8 1574.99,-200.72 1813.03,-189.47"/>
<polygon fill="black" stroke="black" points="1813,-192.97 1822.83,-189.01 1812.67,-185.98 1813,-192.97"/>
</g>
<!-- cmdline -->
<g id="node2" class="node">
<title>cmdline</title>
<g id="a_node2"><a xlink:href="html/cmdline.html" xlink:title="cmdline.md" target="_parent">
<polygon fill="palegreen" stroke="black" points="221.09,-620.21 221.09,-641.79 178.98,-657.04 119.42,-657.04 77.31,-641.79 77.31,-620.21 119.42,-604.96 178.98,-604.96 221.09,-620.21"/>
<polygon fill="none" stroke="black" points="225.09,-617.4 225.09,-644.6 179.68,-661.04 118.72,-661.04 73.31,-644.6 73.31,-617.4 118.72,-600.96 179.68,-600.96 225.09,-617.4"/>
<text text-anchor="middle" x="149.2" y="-624.8" font-family="Times,serif" font-size="24.00">cmdline</text>
</a>
</g>
</g>
<!-- comparelines -->
<g id="node3" class="node">
<title>comparelines</title>
<g id="a_node3"><a xlink:href="html/comparelines.html" xlink:title="comparelines.md" target="_parent">
<polygon fill="palegreen" stroke="black" points="2435.62,-1609.21 2435.62,-1630.79 2370.94,-1646.04 2279.46,-1646.04 2214.78,-1630.79 2214.78,-1609.21 2279.46,-1593.96 2370.94,-1593.96 2435.62,-1609.21"/>
<polygon fill="none" stroke="black" points="2439.63,-1606.05 2439.63,-1633.95 2371.4,-1650.04 2279,-1650.04 2210.77,-1633.95 2210.77,-1606.05 2279,-1589.96 2371.4,-1589.96 2439.63,-1606.05"/>
<text text-anchor="middle" x="2325.2" y="-1613.8" font-family="Times,serif" font-size="24.00">comparelines</text>
</a>
</g>
</g>
<!-- env -->
<g id="node4" class="node">
<title>env</title>
<g id="a_node4"><a xlink:href="html/env.html" xlink:title="env.md" target="_parent">
<ellipse fill="palegoldenrod" stroke="black" cx="1126.2" cy="-841" rx="36.12" ry="24.08"/>
<text text-anchor="middle" x="1126.2" y="-834.8" font-family="Times,serif" font-size="24.00">env</text>
</a>
</g>
</g>
<!-- env&#45;&gt;messages -->
<g id="edge13" class="edge">
<title>env&#45;&gt;messages</title>
<path fill="none" stroke="black" d="M1095.28,-828.27C1005.67,-792.06 752.2,-672.92 752.2,-484 752.2,-484 752.2,-484 752.2,-328 752.2,-134.04 1436.03,-69.82 1693.61,-52.51"/>
<polygon fill="black" stroke="black" points="1693.56,-56.02 1703.3,-51.87 1693.1,-49.03 1693.56,-56.02"/>
</g>
<!-- tempFile -->
<g id="node25" class="node">
<title>tempFile</title>
<g id="a_node25"><a xlink:href="html/tempFile.html" xlink:title="tempFile.md" target="_parent">
<polygon fill="palegreen" stroke="black" points="1092.33,-620.21 1092.33,-641.79 1046.56,-657.04 981.84,-657.04 936.07,-641.79 936.07,-620.21 981.84,-604.96 1046.56,-604.96 1092.33,-620.21"/>
<polygon fill="none" stroke="black" points="1096.33,-617.33 1096.33,-644.67 1047.21,-661.04 981.19,-661.04 932.06,-644.67 932.06,-617.33 981.19,-600.96 1047.21,-600.96 1096.33,-617.33"/>
<text text-anchor="middle" x="1014.2" y="-624.8" font-family="Times,serif" font-size="24.00">tempFile</text>
</a>
</g>
</g>
<!-- env&#45;&gt;tempFile -->
<g id="edge12" class="edge">
<title>env&#45;&gt;tempFile</title>
<path fill="none" stroke="black" d="M1114.43,-818.13C1095.66,-783.27 1058.69,-714.62 1035.27,-671.14"/>
<polygon fill="black" stroke="black" points="1038.46,-669.67 1030.64,-662.53 1032.3,-672.99 1038.46,-669.67"/>
</g>
<!-- functions -->
<g id="node5" class="node">
<title>functions</title>
<g id="a_node5"><a xlink:href="html/functions.html" xlink:title="functions.md" target="_parent">
<ellipse fill="palegoldenrod" stroke="black" cx="2139.2" cy="-841" rx="232.78" ry="70.92"/>
<text text-anchor="middle" x="2139.2" y="-819.8" font-family="Times,serif" font-size="84.00">functions</text>
</a>
</g>
</g>
<!-- matches -->
<g id="node8" class="node">
<title>matches</title>
<g id="a_node8"><a xlink:href="html/matches.html" xlink:title="matches.md" target="_parent">
<ellipse fill="palegoldenrod" stroke="black" cx="1257.2" cy="-631" rx="67.35" ry="24.08"/>
<text text-anchor="middle" x="1257.2" y="-624.8" font-family="Times,serif" font-size="24.00">matches</text>
</a>
</g>
</g>
<!-- functions&#45;&gt;matches -->
<g id="edge39" class="edge">
<title>functions&#45;&gt;matches</title>
<path fill="none" stroke="black" d="M1953.5,-797.84C1797.8,-762.22 1569.72,-709.42 1371.2,-661.02 1355.16,-657.11 1337.88,-652.78 1321.75,-648.68"/>
<polygon fill="black" stroke="black" points="1322.81,-645.33 1312.25,-646.26 1321.08,-652.12 1322.81,-645.33"/>
</g>
<!-- functions&#45;&gt;messages -->
<g id="edge35" class="edge">
<title>functions&#45;&gt;messages</title>
<path fill="none" stroke="black" d="M2280.13,-784.18C2482.73,-695.07 2819.05,-508.77 2695.2,-295.06 2635.1,-191.35 2574.03,-201.42 2461.2,-160.96 2264.77,-90.52 2020.03,-63.03 1887.11,-52.76"/>
<polygon fill="black" stroke="black" points="1887.52,-49.28 1877.29,-52.02 1887,-56.26 1887.52,-49.28"/>
</g>
<!-- functions&#45;&gt;opresult -->
<g id="edge48" class="edge">
<title>functions&#45;&gt;opresult</title>
<path fill="none" stroke="black" d="M2082.59,-771.76C2057.48,-739.47 2028.79,-699.6 2007.2,-661.02 1923.46,-511.42 1899.03,-302.41 1892.45,-220.68"/>
<polygon fill="black" stroke="black" points="1895.95,-220.56 1891.7,-210.86 1888.97,-221.1 1895.95,-220.56"/>
</g>
<!-- parseMarkdown -->
<g id="node13" class="node">
<title>parseMarkdown</title>
<g id="a_node13"><a xlink:href="html/parseMarkdown.html" xlink:title="parseMarkdown.md" target="_parent">
<ellipse fill="palegoldenrod" stroke="black" cx="1502.2" cy="-631" rx="121.74" ry="24.08"/>
<text text-anchor="middle" x="1502.2" y="-624.8" font-family="Times,serif" font-size="24.00">parseMarkdown</text>
</a>
</g>
</g>
<!-- functions&#45;&gt;parseMarkdown -->
<g id="edge57" class="edge">
<title>functions&#45;&gt;parseMarkdown</title>
<path fill="none" stroke="black" d="M1981.33,-788.45C1851.35,-746.01 1673.02,-687.78 1574.68,-655.67"/>
<polygon fill="black" stroke="black" points="1576,-652.41 1565.4,-652.64 1573.82,-659.07 1576,-652.41"/>
</g>
<!-- parseNumber -->
<g id="node14" class="node">
<title>parseNumber</title>
<g id="a_node14"><a xlink:href="html/parseNumber.html" xlink:title="parseNumber.md" target="_parent">
<polygon fill="palegreen" stroke="black" points="2288.18,-620.21 2288.18,-641.79 2222.58,-657.04 2129.82,-657.04 2064.22,-641.79 2064.22,-620.21 2129.82,-604.96 2222.58,-604.96 2288.18,-620.21"/>
<polygon fill="none" stroke="black" points="2292.19,-617.04 2292.19,-644.96 2223.04,-661.04 2129.36,-661.04 2060.21,-644.96 2060.21,-617.04 2129.36,-600.96 2223.04,-600.96 2292.19,-617.04"/>
<text text-anchor="middle" x="2176.2" y="-624.8" font-family="Times,serif" font-size="24.00">parseNumber</text>
</a>
</g>
</g>
<!-- functions&#45;&gt;parseNumber -->
<g id="edge38" class="edge">
<title>functions&#45;&gt;parseNumber</title>
<path fill="none" stroke="black" d="M2151.67,-769.87C2157.44,-737.47 2164.08,-700.14 2168.99,-672.5"/>
<polygon fill="black" stroke="black" points="2172.42,-673.24 2170.72,-662.78 2165.53,-672.02 2172.42,-673.24"/>
</g>
<!-- readjson -->
<g id="node16" class="node">
<title>readjson</title>
<g id="a_node16"><a xlink:href="html/readjson.html" xlink:title="readjson.md" target="_parent">
<ellipse fill="palegoldenrod" stroke="black" cx="2379.2" cy="-631" rx="69.09" ry="24.08"/>
<text text-anchor="middle" x="2379.2" y="-624.8" font-family="Times,serif" font-size="24.00">readjson</text>
</a>
</g>
</g>
<!-- functions&#45;&gt;readjson -->
<g id="edge54" class="edge">
<title>functions&#45;&gt;readjson</title>
<path fill="none" stroke="black" d="M2215.8,-773.62C2259.49,-735.74 2312.07,-690.18 2345.56,-661.16"/>
<polygon fill="black" stroke="black" points="2347.65,-663.97 2352.91,-654.78 2343.07,-658.68 2347.65,-663.97"/>
</g>
<!-- regexes -->
<g id="node17" class="node">
<title>regexes</title>
<g id="a_node17"><a xlink:href="html/regexes.html" xlink:title="regexes.md" target="_parent">
<polygon fill="palegreen" stroke="black" points="1858.43,-472.21 1858.43,-493.79 1818.46,-509.04 1761.94,-509.04 1721.97,-493.79 1721.97,-472.21 1761.94,-456.96 1818.46,-456.96 1858.43,-472.21"/>
<polygon fill="none" stroke="black" points="1862.44,-469.46 1862.44,-496.54 1819.2,-513.04 1761.2,-513.04 1717.96,-496.54 1717.96,-469.46 1761.2,-452.96 1819.2,-452.96 1862.44,-469.46"/>
<text text-anchor="middle" x="1790.2" y="-476.8" font-family="Times,serif" font-size="24.00">regexes</text>
</a>
</g>
</g>
<!-- functions&#45;&gt;regexes -->
<g id="edge37" class="edge">
<title>functions&#45;&gt;regexes</title>
<path fill="none" stroke="black" d="M2040.29,-776.34C1995.72,-744.85 1944.23,-704.33 1904.2,-661.02 1865.08,-618.69 1830.9,-561.35 1810.42,-523.55"/>
<polygon fill="black" stroke="black" points="1813.53,-521.94 1805.73,-514.77 1807.35,-525.24 1813.53,-521.94"/>
</g>
<!-- signatures -->
<g id="node22" class="node">
<title>signatures</title>
<g id="a_node22"><a xlink:href="html/signatures.html" xlink:title="signatures.md" target="_parent">
<ellipse fill="palegoldenrod" stroke="black" cx="2036.2" cy="-483" rx="79.81" ry="24.08"/>
<text text-anchor="middle" x="2036.2" y="-476.8" font-family="Times,serif" font-size="24.00">signatures</text>
</a>
</g>
</g>
<!-- functions&#45;&gt;signatures -->
<g id="edge47" class="edge">
<title>functions&#45;&gt;signatures</title>
<path fill="none" stroke="black" d="M2079.41,-772.37C2055.42,-740.82 2030.56,-701.37 2018.2,-661.02 2003.46,-612.91 2014.76,-554.37 2024.94,-518.14"/>
<polygon fill="black" stroke="black" points="2028.26,-519.23 2027.74,-508.65 2021.55,-517.25 2028.26,-519.23"/>
</g>
<!-- unicodes -->
<g id="node27" class="node">
<title>unicodes</title>
<g id="a_node27"><a xlink:href="html/unicodes.html" xlink:title="unicodes.md" target="_parent">
<ellipse fill="palegoldenrod" stroke="black" cx="2281.2" cy="-483" rx="71.34" ry="24.08"/>
<text text-anchor="middle" x="2281.2" y="-476.8" font-family="Times,serif" font-size="24.00">unicodes</text>
</a>
</g>
</g>
<!-- functions&#45;&gt;unicodes -->
<g id="edge44" class="edge">
<title>functions&#45;&gt;unicodes</title>
<path fill="none" stroke="black" d="M2082.86,-771.86C2049.04,-722.19 2018.37,-654.5 2051.2,-600.98 2085.49,-545.06 2155.79,-514.84 2209.69,-499.22"/>
<polygon fill="black" stroke="black" points="2210.43,-502.65 2219.13,-496.6 2208.55,-495.9 2210.43,-502.65"/>
</g>
<!-- variables -->
<g id="node30" class="node">
<title>variables</title>
<g id="a_node30"><a xlink:href="html/variables.html" xlink:title="variables.md" target="_parent">
<ellipse fill="palegoldenrod" stroke="black" cx="2892.2" cy="-631" rx="72.66" ry="24.08"/>
<text text-anchor="middle" x="2892.2" y="-624.8" font-family="Times,serif" font-size="24.00">variables</text>
</a>
</g>
</g>
<!-- functions&#45;&gt;variables -->
<g id="edge55" class="edge">
<title>functions&#45;&gt;variables</title>
<path fill="none" stroke="black" d="M2317.75,-795.09C2452.32,-760.5 2641.11,-710.39 2805.2,-661.02 2813.87,-658.41 2822.98,-655.53 2831.91,-652.63"/>
<polygon fill="black" stroke="black" points="2832.83,-656.01 2841.24,-649.56 2830.64,-649.36 2832.83,-656.01"/>
</g>
<!-- vartypes -->
<g id="node31" class="node">
<title>vartypes</title>
<g id="a_node31"><a xlink:href="html/vartypes.html" xlink:title="vartypes.md" target="_parent">
<ellipse fill="palegoldenrod" stroke="black" cx="2588.2" cy="-329" rx="97.66" ry="33.88"/>
<text text-anchor="middle" x="2588.2" y="-320.2" font-family="Times,serif" font-size="36.00">vartypes</text>
</a>
</g>
</g>
<!-- functions&#45;&gt;vartypes -->
<g id="edge36" class="edge">
<title>functions&#45;&gt;vartypes</title>
<path fill="none" stroke="black" d="M2282.77,-784.95C2343.25,-755.79 2410.34,-714.72 2457.2,-661.02 2531.63,-575.73 2566.61,-443.04 2580.49,-374.44"/>
<polygon fill="black" stroke="black" points="2583.92,-375.17 2582.4,-364.68 2577.05,-373.82 2583.92,-375.17"/>
</g>
<!-- gethelp -->
<g id="node6" class="node">
<title>gethelp</title>
<g id="a_node6"><a xlink:href="html/gethelp.html" xlink:title="gethelp.md" target="_parent">
<polygon fill="palegreen" stroke="black" points="3291.87,-1414.21 3291.87,-1435.79 3252.81,-1451.04 3197.58,-1451.04 3158.53,-1435.79 3158.53,-1414.21 3197.58,-1398.96 3252.81,-1398.96 3291.87,-1414.21"/>
<polygon fill="none" stroke="black" points="3295.87,-1411.48 3295.87,-1438.52 3253.57,-1455.04 3196.83,-1455.04 3154.53,-1438.52 3154.53,-1411.48 3196.83,-1394.96 3253.57,-1394.96 3295.87,-1411.48"/>
<text text-anchor="middle" x="3225.2" y="-1418.8" font-family="Times,serif" font-size="24.00">gethelp</text>
</a>
</g>
</g>
<!-- linebuffer -->
<g id="node7" class="node">
<title>linebuffer</title>
<g id="a_node7"><a xlink:href="html/linebuffer.html" xlink:title="linebuffer.md" target="_parent">
<polygon fill="palegreen" stroke="black" points="1326.11,-472.21 1326.11,-493.79 1276.37,-509.04 1206.03,-509.04 1156.29,-493.79 1156.29,-472.21 1206.03,-456.96 1276.37,-456.96 1326.11,-472.21"/>
<polygon fill="none" stroke="black" points="1330.11,-469.25 1330.11,-496.75 1276.97,-513.04 1205.43,-513.04 1152.29,-496.75 1152.29,-469.25 1205.43,-452.96 1276.97,-452.96 1330.11,-469.25"/>
<text text-anchor="middle" x="1241.2" y="-476.8" font-family="Times,serif" font-size="24.00">linebuffer</text>
</a>
</g>
</g>
<!-- matches&#45;&gt;regexes -->
<g id="edge7" class="edge">
<title>matches&#45;&gt;regexes</title>
<path fill="none" stroke="red" d="M1309.76,-615.6C1405.49,-589.38 1608.4,-533.8 1717.37,-503.95"/>
<polygon fill="red" stroke="red" points="1718.08,-507.38 1726.8,-501.37 1716.23,-500.63 1718.08,-507.38"/>
</g>
<!-- opresult&#45;&gt;messages -->
<g id="edge2" class="edge">
<title>opresult&#45;&gt;messages</title>
<path fill="none" stroke="red" d="M1873.69,-161.38C1858.63,-140.76 1836.09,-109.87 1818.22,-85.39"/>
<polygon fill="red" stroke="red" points="1821.24,-83.59 1812.52,-77.58 1815.59,-87.72 1821.24,-83.59"/>
</g>
<!-- parseCmdLine -->
<g id="node11" class="node">
<title>parseCmdLine</title>
<g id="a_node11"><a xlink:href="html/parseCmdLine.html" xlink:title="parseCmdLine.md" target="_parent">
<ellipse fill="palegoldenrod" stroke="black" cx="846.2" cy="-841" rx="111.95" ry="24.08"/>
<text text-anchor="middle" x="846.2" y="-834.8" font-family="Times,serif" font-size="24.00">parseCmdLine</text>
</a>
</g>
</g>
<!-- parseCmdLine&#45;&gt;args -->
<g id="edge20" class="edge">
<title>parseCmdLine&#45;&gt;args</title>
<path fill="none" stroke="black" d="M814.89,-817.54C760.06,-778.22 647.12,-697.21 590.35,-656.5"/>
<polygon fill="black" stroke="black" points="592.48,-653.72 582.32,-650.73 588.4,-659.41 592.48,-653.72"/>
</g>
<!-- parseCmdLine&#45;&gt;matches -->
<g id="edge18" class="edge">
<title>parseCmdLine&#45;&gt;matches</title>
<path fill="none" stroke="black" d="M889.02,-818.33C966.31,-779.21 1128.58,-697.09 1209.38,-656.2"/>
<polygon fill="black" stroke="black" points="1210.6,-659.51 1217.94,-651.87 1207.43,-653.26 1210.6,-659.51"/>
</g>
<!-- parseCmdLine&#45;&gt;messages -->
<g id="edge17" class="edge">
<title>parseCmdLine&#45;&gt;messages</title>
<path fill="none" stroke="black" d="M832.7,-816.67C790.05,-739.81 665.25,-488.39 738.2,-295.06 766.23,-220.78 785.98,-197.99 856.2,-160.96 1000.03,-85.11 1485.03,-58.31 1693.56,-50.15"/>
<polygon fill="black" stroke="black" points="1693.42,-53.65 1703.28,-49.77 1693.15,-46.66 1693.42,-53.65"/>
</g>
<!-- parseCmdLine&#45;&gt;opresult -->
<g id="edge19" class="edge">
<title>parseCmdLine&#45;&gt;opresult</title>
<path fill="none" stroke="black" d="M839.3,-816.62C827.58,-772.67 807.72,-675.46 836.2,-600.98 901.39,-430.49 949.12,-380.9 1110.2,-295.06 1231.11,-230.62 1640.68,-200.24 1812.9,-190.08"/>
<polygon fill="black" stroke="black" points="1813.1,-193.58 1822.88,-189.5 1812.69,-186.59 1813.1,-193.58"/>
</g>
<!-- parseCmdLine&#45;&gt;regexes -->
<g id="edge16" class="edge">
<title>parseCmdLine&#45;&gt;regexes</title>
<path fill="none" stroke="black" d="M846.09,-816.55C847.24,-767.92 857.32,-656.09 923.2,-600.98 982.76,-551.15 1500.46,-506.28 1706.31,-490.25"/>
<polygon fill="black" stroke="black" points="1706.44,-493.75 1716.14,-489.48 1705.9,-486.77 1706.44,-493.75"/>
</g>
<!-- parseCommandLine -->
<g id="node12" class="node">
<title>parseCommandLine</title>
<g id="a_node12"><a xlink:href="html/parseCommandLine.html" xlink:title="parseCommandLine.md" target="_parent">
<ellipse fill="palegoldenrod" stroke="black" cx="149.2" cy="-841" rx="149.4" ry="24.08"/>
<text text-anchor="middle" x="149.2" y="-834.8" font-family="Times,serif" font-size="24.00">parseCommandLine</text>
</a>
</g>
</g>
<!-- parseCommandLine&#45;&gt;args -->
<g id="edge4" class="edge">
<title>parseCommandLine&#45;&gt;args</title>
<path fill="none" stroke="black" d="M193.14,-817.54C272.75,-776.86 439.65,-691.56 516.24,-652.42"/>
<polygon fill="black" stroke="black" points="517.77,-655.57 525.08,-647.9 514.58,-649.34 517.77,-655.57"/>
</g>
<!-- parseCommandLine&#45;&gt;cmdline -->
<g id="edge6" class="edge">
<title>parseCommandLine&#45;&gt;cmdline</title>
<path fill="none" stroke="black" d="M149.2,-816.54C149.2,-781.68 149.2,-715.7 149.2,-672.81"/>
<polygon fill="black" stroke="black" points="152.7,-672.88 149.2,-662.88 145.7,-672.88 152.7,-672.88"/>
</g>
<!-- parseCommandLine&#45;&gt;matches -->
<g id="edge8" class="edge">
<title>parseCommandLine&#45;&gt;matches</title>
<path fill="none" stroke="black" d="M245.22,-822.14C417.52,-790.07 790.58,-720.51 1105.2,-661.02 1132.1,-655.94 1161.68,-650.3 1187.53,-645.36"/>
<polygon fill="black" stroke="black" points="1188.09,-648.81 1197.26,-643.5 1186.78,-641.94 1188.09,-648.81"/>
</g>
<!-- parseCommandLine&#45;&gt;messages -->
<g id="edge5" class="edge">
<title>parseCommandLine&#45;&gt;messages</title>
<path fill="none" stroke="black" d="M163.08,-816.76C194.86,-761.28 270.2,-615.86 270.2,-484 270.2,-484 270.2,-484 270.2,-328 270.2,-251.45 253.68,-210.32 312.2,-160.96 417.56,-72.09 1381.59,-52.15 1693.4,-48.01"/>
<polygon fill="black" stroke="black" points="1693.19,-51.52 1703.14,-47.89 1693.1,-44.52 1693.19,-51.52"/>
</g>
<!-- parseMarkdown&#45;&gt;linebuffer -->
<g id="edge56" class="edge">
<title>parseMarkdown&#45;&gt;linebuffer</title>
<path fill="none" stroke="red" d="M1462.56,-607.83C1418.67,-583.27 1347.55,-543.49 1297.8,-515.66"/>
<polygon fill="red" stroke="red" points="1299.6,-512.66 1289.16,-510.83 1296.18,-518.77 1299.6,-512.66"/>
</g>
<!-- processTemplate -->
<g id="node15" class="node">
<title>processTemplate</title>
<g id="a_node15"><a xlink:href="html/processTemplate.html" xlink:title="processTemplate.md" target="_parent">
<ellipse fill="palegoldenrod" stroke="black" cx="772.2" cy="-1425" rx="124.4" ry="24.08"/>
<text text-anchor="middle" x="772.2" y="-1418.8" font-family="Times,serif" font-size="24.00">processTemplate</text>
</a>
</g>
</g>
<!-- processTemplate&#45;&gt;args -->
<g id="edge10" class="edge">
<title>processTemplate&#45;&gt;args</title>
<path fill="none" stroke="black" d="M660.68,-1414.1C591.74,-1401.55 508.26,-1373.33 464.2,-1310.04 443.58,-1280.43 316.93,-1580.85 502.2,-770.29 510.77,-732.8 527.69,-692.04 540.32,-664.55"/>
<polygon fill="black" stroke="black" points="543.38,-666.26 544.45,-655.72 537.04,-663.29 543.38,-666.26"/>
</g>
<!-- processTemplate&#45;&gt;env -->
<g id="edge14" class="edge">
<title>processTemplate&#45;&gt;env</title>
<path fill="none" stroke="black" d="M803.62,-1401.41C831.55,-1380.17 872.17,-1346.29 900.2,-1310.04 1012.22,-1165.16 1088.67,-955.83 1115.54,-875.3"/>
<polygon fill="black" stroke="black" points="1118.72,-876.84 1118.53,-866.25 1112.07,-874.65 1118.72,-876.84"/>
</g>
<!-- processTemplate&#45;&gt;linebuffer -->
<g id="edge15" class="edge">
<title>processTemplate&#45;&gt;linebuffer</title>
<path fill="none" stroke="black" d="M791.91,-1400.82C827.96,-1357.1 904.4,-1258.17 943.2,-1161.52 1008.43,-998.99 1037.76,-938.84 990.2,-770.29 968.22,-692.4 876.9,-667.35 923.2,-600.98 971.94,-531.11 1067.3,-502.86 1140.93,-491.49"/>
<polygon fill="black" stroke="black" points="1141.2,-494.99 1150.6,-490.09 1140.2,-488.06 1141.2,-494.99"/>
</g>
<!-- processTemplate&#45;&gt;messages -->
<g id="edge11" class="edge">
<title>processTemplate&#45;&gt;messages</title>
<path fill="none" stroke="black" d="M679.03,-1408.77C574.46,-1389.81 413.95,-1354.41 372.2,-1310.04 307.01,-1240.76 326.2,-1196.13 326.2,-1101 326.2,-1101 326.2,-1101 326.2,-328 326.2,-221.44 401.31,-205.32 498.2,-160.96 711.03,-63.51 1430.34,-49.18 1693.08,-47.24"/>
<polygon fill="black" stroke="black" points="1693,-50.74 1702.98,-47.17 1692.95,-43.74 1693,-50.74"/>
</g>
<!-- processTemplate&#45;&gt;opresult -->
<g id="edge88" class="edge">
<title>processTemplate&#45;&gt;opresult</title>
<path fill="none" stroke="black" d="M679.6,-1408.57C580.43,-1389.93 432.73,-1355.35 399.2,-1310.04 258.86,-1120.42 507.69,-416.05 710.2,-295.06 804.68,-238.61 1565.62,-200.33 1812.89,-189.29"/>
<polygon fill="black" stroke="black" points="1812.93,-192.79 1822.76,-188.85 1812.62,-185.8 1812.93,-192.79"/>
</g>
<!-- processTemplate&#45;&gt;parseCmdLine -->
<g id="edge21" class="edge">
<title>processTemplate&#45;&gt;parseCmdLine</title>
<path fill="none" stroke="black" d="M755.47,-1400.88C713.72,-1340.19 611.94,-1171.79 664.2,-1038.48 692.32,-966.74 760.3,-905.55 804.75,-871.31"/>
<polygon fill="black" stroke="black" points="806.78,-874.16 812.64,-865.33 802.56,-868.58 806.78,-874.16"/>
</g>
<!-- replacement -->
<g id="node19" class="node">
<title>replacement</title>
<g id="a_node19"><a xlink:href="html/replacement.html" xlink:title="replacement.md" target="_parent">
<ellipse fill="palegoldenrod" stroke="black" cx="839.2" cy="-1100" rx="94.51" ry="24.08"/>
<text text-anchor="middle" x="839.2" y="-1093.8" font-family="Times,serif" font-size="24.00">replacement</text>
</a>
</g>
</g>
<!-- processTemplate&#45;&gt;replacement -->
<g id="edge77" class="edge">
<title>processTemplate&#45;&gt;replacement</title>
<path fill="none" stroke="black" d="M777.07,-1400.51C788.75,-1344.22 818.37,-1201.43 832.06,-1135.42"/>
<polygon fill="black" stroke="black" points="835.43,-1136.39 834.04,-1125.88 828.58,-1134.96 835.43,-1136.39"/>
</g>
<!-- runCommand -->
<g id="node20" class="node">
<title>runCommand</title>
<g id="a_node20"><a xlink:href="html/runCommand.html" xlink:title="runCommand.md" target="_parent">
<ellipse fill="palegoldenrod" stroke="black" cx="1700.2" cy="-1100" rx="292.07" ry="61.54"/>
<text text-anchor="middle" x="1700.2" y="-1081.9" font-family="Times,serif" font-size="72.00">runCommand</text>
</a>
</g>
</g>
<!-- processTemplate&#45;&gt;runCommand -->
<g id="edge65" class="edge">
<title>processTemplate&#45;&gt;runCommand</title>
<path fill="none" stroke="black" d="M831.31,-1403.43C971.79,-1354.53 1329.59,-1230 1539.63,-1156.89"/>
<polygon fill="black" stroke="black" points="1540.73,-1160.21 1549.02,-1153.62 1538.43,-1153.6 1540.73,-1160.21"/>
</g>
<!-- startingvars -->
<g id="node23" class="node">
<title>startingvars</title>
<g id="a_node23"><a xlink:href="html/startingvars.html" xlink:title="startingvars.md" target="_parent">
<ellipse fill="palegoldenrod" stroke="black" cx="2139.2" cy="-1286" rx="90.52" ry="24.08"/>
<text text-anchor="middle" x="2139.2" y="-1279.8" font-family="Times,serif" font-size="24.00">startingvars</text>
</a>
</g>
</g>
<!-- processTemplate&#45;&gt;startingvars -->
<g id="edge87" class="edge">
<title>processTemplate&#45;&gt;startingvars</title>
<path fill="none" stroke="black" d="M881.18,-1413.08C1141.76,-1386.96 1797.45,-1321.25 2043.73,-1296.57"/>
<polygon fill="black" stroke="black" points="2044.04,-1300.05 2053.64,-1295.57 2043.34,-1293.09 2044.04,-1300.05"/>
</g>
<!-- processTemplate&#45;&gt;variables -->
<g id="edge66" class="edge">
<title>processTemplate&#45;&gt;variables</title>
<path fill="none" stroke="black" d="M880.08,-1412.7C939.14,-1406.8 1013.64,-1399.82 1080.2,-1394.98 1264.07,-1381.61 2596.04,-1428.61 2737.2,-1310.04 2837.97,-1225.4 2879.51,-793.35 2889.63,-666.84"/>
<polygon fill="black" stroke="black" points="2893.1,-667.33 2890.39,-657.09 2886.12,-666.78 2893.1,-667.33"/>
</g>
<!-- processTemplate&#45;&gt;vartypes -->
<g id="edge67" class="edge">
<title>processTemplate&#45;&gt;vartypes</title>
<path fill="none" stroke="black" d="M881.55,-1413.14C940.39,-1407.43 1014.23,-1400.5 1080.2,-1394.98 1429.07,-1365.76 2425.46,-1439.55 2638.2,-1161.52 2829.57,-911.41 2719.18,-758.84 2644.2,-452.98 2637.37,-425.12 2624.29,-395.82 2612.49,-372.81"/>
<polygon fill="black" stroke="black" points="2615.63,-371.27 2607.88,-364.04 2609.44,-374.52 2615.63,-371.27"/>
</g>
<!-- readjson&#45;&gt;messages -->
<g id="edge50" class="edge">
<title>readjson&#45;&gt;messages</title>
<path fill="none" stroke="black" d="M2380.06,-606.68C2380.61,-572.16 2378.94,-505.84 2361.2,-452.98 2335.07,-375.11 2316.63,-359.1 2265.2,-295.06 2211.25,-227.88 2198.84,-205.69 2125.2,-160.96 2047.7,-113.88 1948.2,-83.21 1877.84,-65.67"/>
<polygon fill="black" stroke="black" points="1878.82,-62.31 1868.27,-63.33 1877.15,-69.11 1878.82,-62.31"/>
</g>
<!-- readjson&#45;&gt;opresult -->
<g id="edge53" class="edge">
<title>readjson&#45;&gt;opresult</title>
<path fill="none" stroke="black" d="M2333.83,-612.65C2292.41,-594.34 2232.96,-561.4 2201.2,-513.02 2147.23,-430.82 2225.16,-371.42 2163.2,-295.06 2114.13,-234.59 2026.57,-207.46 1963.83,-195.41"/>
<polygon fill="black" stroke="black" points="1964.77,-192.02 1954.3,-193.67 1963.51,-198.91 1964.77,-192.02"/>
</g>
<!-- readjson&#45;&gt;unicodes -->
<g id="edge51" class="edge">
<title>readjson&#45;&gt;unicodes</title>
<path fill="none" stroke="black" d="M2363.89,-607.19C2347.42,-582.65 2321.11,-543.46 2302.6,-515.88"/>
<polygon fill="black" stroke="black" points="2305.73,-514.26 2297.25,-507.91 2299.92,-518.16 2305.73,-514.26"/>
</g>
<!-- utf8decoder -->
<g id="node29" class="node">
<title>utf8decoder</title>
<g id="a_node29"><a xlink:href="html/utf8decoder.html" xlink:title="utf8decoder.md" target="_parent">
<polygon fill="palegreen" stroke="black" points="2150.24,-318.21 2150.24,-339.79 2091.64,-355.04 2008.76,-355.04 1950.16,-339.79 1950.16,-318.21 2008.76,-302.96 2091.64,-302.96 2150.24,-318.21"/>
<polygon fill="none" stroke="black" points="2154.23,-315.12 2154.23,-342.88 2092.15,-359.04 2008.25,-359.04 1946.17,-342.88 1946.17,-315.12 2008.25,-298.96 2092.15,-298.96 2154.23,-315.12"/>
<text text-anchor="middle" x="2050.2" y="-322.8" font-family="Times,serif" font-size="24.00">utf8decoder</text>
</a>
</g>
</g>
<!-- readjson&#45;&gt;utf8decoder -->
<g id="edge52" class="edge">
<title>readjson&#45;&gt;utf8decoder</title>
<path fill="none" stroke="black" d="M2333.51,-612.48C2287.76,-593.27 2217.29,-558.95 2168.2,-513.02 2156.04,-501.64 2104.69,-419.18 2073.88,-368.91"/>
<polygon fill="black" stroke="black" points="2077,-367.3 2068.8,-360.6 2071.03,-370.96 2077,-367.3"/>
</g>
<!-- readjson&#45;&gt;vartypes -->
<g id="edge49" class="edge">
<title>readjson&#45;&gt;vartypes</title>
<path fill="none" stroke="black" d="M2394.91,-607.45C2429.85,-557.29 2514.46,-435.84 2559.26,-371.54"/>
<polygon fill="black" stroke="black" points="2562.12,-373.56 2564.97,-363.35 2556.38,-369.55 2562.12,-373.56"/>
</g>
<!-- repl -->
<g id="node18" class="node">
<title>repl</title>
<g id="a_node18"><a xlink:href="html/repl.html" xlink:title="repl.md" target="_parent">
<ellipse fill="palegoldenrod" stroke="black" cx="2020.2" cy="-1425" rx="38.37" ry="24.08"/>
<text text-anchor="middle" x="2020.2" y="-1418.8" font-family="Times,serif" font-size="24.00">repl</text>
</a>
</g>
</g>
<!-- repl&#45;&gt;args -->
<g id="edge111" class="edge">
<title>repl&#45;&gt;args</title>
<path fill="none" stroke="black" d="M1981.71,-1422.28C1779.06,-1412.45 837.7,-1356.67 639.2,-1161.52 501.11,-1025.76 532.68,-760.82 549.33,-666.42"/>
<polygon fill="black" stroke="black" points="552.74,-667.22 551.09,-656.76 545.85,-665.96 552.74,-667.22"/>
</g>
<!-- repl&#45;&gt;env -->
<g id="edge109" class="edge">
<title>repl&#45;&gt;env</title>
<path fill="none" stroke="black" d="M1981.71,-1423.67C1841.7,-1421.69 1361.92,-1407.75 1252.2,-1310.04 1123.46,-1195.39 1120.08,-964.5 1123.86,-876.84"/>
<polygon fill="black" stroke="black" points="1127.35,-877.12 1124.36,-866.96 1120.36,-876.77 1127.35,-877.12"/>
</g>
<!-- repl&#45;&gt;matches -->
<g id="edge114" class="edge">
<title>repl&#45;&gt;matches</title>
<path fill="none" stroke="black" d="M1981.56,-1423.08C1891.32,-1419.41 1662.04,-1401.09 1499.2,-1310.04 1419.22,-1265.32 1398.16,-1242.98 1356.2,-1161.52 1344.68,-1139.16 1282.61,-780.42 1263.08,-666.46"/>
<polygon fill="black" stroke="black" points="1266.56,-666.06 1261.43,-656.8 1259.67,-667.25 1266.56,-666.06"/>
</g>
<!-- repl&#45;&gt;messages -->
<g id="edge108" class="edge">
<title>repl&#45;&gt;messages</title>
<path fill="none" stroke="black" d="M2058.95,-1424.14C2222.61,-1424.04 2856.26,-1416.68 3018.2,-1310.04 3234.58,-1167.55 3242.2,-808.88 3242.2,-484 3242.2,-484 3242.2,-484 3242.2,-328 3242.2,-246.8 3297.02,-260.08 3019.2,-160.96 2810.87,-86.63 2139.25,-58.07 1887.08,-49.8"/>
<polygon fill="black" stroke="black" points="1887.38,-46.31 1877.27,-49.48 1887.15,-53.3 1887.38,-46.31"/>
</g>
<!-- repl&#45;&gt;opresult -->
<g id="edge112" class="edge">
<title>repl&#45;&gt;opresult</title>
<path fill="none" stroke="black" d="M2058.72,-1421.86C2229.13,-1412.05 2910.09,-1369.4 2983.2,-1310.04 3085.67,-1226.85 3128.2,-1029.54 3128.2,-632 3128.2,-632 3128.2,-632 3128.2,-482 3128.2,-242.35 2239.61,-196.31 1968.07,-187.84"/>
<polygon fill="black" stroke="black" points="1968.37,-184.34 1958.27,-187.54 1968.16,-191.34 1968.37,-184.34"/>
</g>
<!-- repl&#45;&gt;parseMarkdown -->
<g id="edge119" class="edge">
<title>repl&#45;&gt;parseMarkdown</title>
<path fill="none" stroke="black" d="M1982.03,-1421.6C1869.04,-1412.2 1535.67,-1367.36 1399.2,-1161.52 1291.94,-999.74 1425.87,-752.83 1480.76,-664.68"/>
<polygon fill="black" stroke="black" points="1483.55,-666.81 1485.93,-656.49 1477.63,-663.08 1483.55,-666.81"/>
</g>
<!-- repl&#45;&gt;regexes -->
<g id="edge115" class="edge">
<title>repl&#45;&gt;regexes</title>
<path fill="none" stroke="black" d="M2023.93,-1400.81C2032.82,-1339.25 2051,-1167.59 2001.2,-1038.48 1974.97,-970.49 1929.95,-976.81 1897.2,-911.71 1830.7,-779.52 1803.62,-603.06 1794.34,-524.59"/>
<polygon fill="black" stroke="black" points="1797.84,-524.33 1793.22,-514.8 1790.88,-525.13 1797.84,-524.33"/>
</g>
<!-- repl&#45;&gt;runCommand -->
<g id="edge116" class="edge">
<title>repl&#45;&gt;runCommand</title>
<path fill="none" stroke="black" d="M2000.66,-1404.28C1955.3,-1358.49 1841.07,-1243.19 1767.25,-1168.68"/>
<polygon fill="black" stroke="black" points="1769.94,-1166.42 1760.41,-1161.78 1764.96,-1171.35 1769.94,-1166.42"/>
</g>
<!-- repl&#45;&gt;startingvars -->
<g id="edge113" class="edge">
<title>repl&#45;&gt;startingvars</title>
<path fill="none" stroke="black" d="M2038.02,-1403.49C2057.59,-1380.96 2089.26,-1344.5 2111.95,-1318.37"/>
<polygon fill="black" stroke="black" points="2114.37,-1320.93 2118.28,-1311.08 2109.08,-1316.34 2114.37,-1320.93"/>
</g>
<!-- repl&#45;&gt;tempFile -->
<g id="edge120" class="edge">
<title>repl&#45;&gt;tempFile</title>
<path fill="none" stroke="black" d="M1982.08,-1420.59C1865.69,-1409.58 1517.21,-1372.08 1424.2,-1310.04 1307.62,-1232.28 1212.3,-828.73 1171.2,-770.29 1141.85,-728.56 1097.45,-691 1063.35,-665.58"/>
<polygon fill="black" stroke="black" points="1065.82,-663.06 1055.69,-659.96 1061.68,-668.7 1065.82,-663.06"/>
</g>
<!-- repl&#45;&gt;unicodes -->
<g id="edge118" class="edge">
<title>repl&#45;&gt;unicodes</title>
<path fill="none" stroke="black" d="M2058.52,-1421.66C2214.8,-1411.73 2798.19,-1370.81 2851.2,-1310.04 3103.86,-1020.37 2497.79,-616.53 2325.36,-510.39"/>
<polygon fill="black" stroke="black" points="2327.23,-507.43 2316.88,-505.2 2323.58,-513.4 2327.23,-507.43"/>
</g>
<!-- repl&#45;&gt;variables -->
<g id="edge117" class="edge">
<title>repl&#45;&gt;variables</title>
<path fill="none" stroke="black" d="M2058.53,-1422.04C2223.47,-1413.25 2867.1,-1374.98 2927.2,-1310.04 3008.72,-1221.96 2968.41,-888.24 2946.2,-770.29 2939.17,-732.95 2922.33,-692.75 2909.3,-665.37"/>
<polygon fill="black" stroke="black" points="2912.53,-664.01 2905.01,-656.55 2906.24,-667.07 2912.53,-664.01"/>
</g>
<!-- repl&#45;&gt;vartypes -->
<g id="edge110" class="edge">
<title>repl&#45;&gt;vartypes</title>
<path fill="none" stroke="black" d="M2058.54,-1421.9C2225.82,-1412.37 2886.44,-1371.12 2954.2,-1310.04 3078.48,-1198.02 3007.02,-666.77 2974.2,-600.98 2911.56,-475.4 2759.77,-396.51 2666.29,-358.08"/>
<polygon fill="black" stroke="black" points="2667.73,-354.89 2657.15,-354.38 2665.11,-361.38 2667.73,-354.89"/>
</g>
<!-- replacement&#45;&gt;args -->
<g id="edge76" class="edge">
<title>replacement&#45;&gt;args</title>
<path fill="none" stroke="black" d="M810.05,-1076.71C769.69,-1044.44 696.95,-980.93 654.2,-911.71 619.32,-855.24 628.15,-832.93 606.2,-770.29 593.66,-734.5 578.84,-693.69 568.6,-665.73"/>
<polygon fill="black" stroke="black" points="571.9,-664.56 565.18,-656.37 565.33,-666.97 571.9,-664.56"/>
</g>
<!-- replacement&#45;&gt;env -->
<g id="edge68" class="edge">
<title>replacement&#45;&gt;env</title>
<path fill="none" stroke="black" d="M864.42,-1076.42C917.39,-1028.98 1040.01,-919.18 1096.6,-868.51"/>
<polygon fill="black" stroke="black" points="1098.85,-871.19 1103.96,-861.91 1094.18,-865.97 1098.85,-871.19"/>
</g>
<!-- replacement&#45;&gt;linebuffer -->
<g id="edge71" class="edge">
<title>replacement&#45;&gt;linebuffer</title>
<path fill="none" stroke="black" d="M861.58,-1076.37C892.4,-1043.43 946.44,-978.88 967.2,-911.71 985.76,-851.66 991.99,-828.05 967.2,-770.29 931.32,-686.7 797.92,-673.98 852.2,-600.98 887.06,-554.09 1039.79,-518.89 1143.18,-499.89"/>
<polygon fill="black" stroke="black" points="1143.57,-503.38 1152.79,-498.15 1142.32,-496.49 1143.57,-503.38"/>
</g>
<!-- replacement&#45;&gt;messages -->
<g id="edge72" class="edge">
<title>replacement&#45;&gt;messages</title>
<path fill="none" stroke="black" d="M816.65,-1076.4C785.59,-1043.51 731.13,-979.01 710.2,-911.71 610.62,-591.6 509.01,-353.85 783.2,-160.96 928.35,-58.84 1470.11,-46.9 1693.23,-46.43"/>
<polygon fill="black" stroke="black" points="1693.07,-49.93 1703.06,-46.41 1693.06,-42.93 1693.07,-49.93"/>
</g>
<!-- replacement&#45;&gt;opresult -->
<g id="edge75" class="edge">
<title>replacement&#45;&gt;opresult</title>
<path fill="none" stroke="black" d="M819.46,-1076.17C792,-1042.74 743.6,-977.32 725.2,-911.71 708.23,-851.19 711.75,-831.69 725.2,-770.29 777.22,-532.78 784.15,-414.03 996.2,-295.06 1135.51,-216.89 1621.95,-194.03 1812.66,-187.98"/>
<polygon fill="black" stroke="black" points="1812.57,-191.49 1822.46,-187.68 1812.35,-184.49 1812.57,-191.49"/>
</g>
<!-- replacement&#45;&gt;parseCmdLine -->
<g id="edge70" class="edge">
<title>replacement&#45;&gt;parseCmdLine</title>
<path fill="none" stroke="black" d="M839.83,-1075.74C841.07,-1030.37 843.81,-929.84 845.26,-876.61"/>
<polygon fill="black" stroke="black" points="848.75,-877 845.52,-866.91 841.75,-876.81 848.75,-877"/>
</g>
<!-- replacement&#45;&gt;tempFile -->
<g id="edge74" class="edge">
<title>replacement&#45;&gt;tempFile</title>
<path fill="none" stroke="black" d="M867.69,-1076.64C905.86,-1044.74 972.05,-982.19 1000.2,-911.71 1032.11,-831.83 1026.6,-728.77 1020.15,-672.72"/>
<polygon fill="black" stroke="black" points="1023.65,-672.5 1018.96,-663 1016.7,-673.35 1023.65,-672.5"/>
</g>
<!-- replacement&#45;&gt;variables -->
<g id="edge73" class="edge">
<title>replacement&#45;&gt;variables</title>
<path fill="none" stroke="black" d="M924.91,-1089.49C1256.18,-1052.66 2435.23,-921.07 2452.2,-911.71 2522.89,-872.72 2501.77,-818.94 2566.2,-770.29 2610.04,-737.18 2751.56,-682.9 2833.01,-653.14"/>
<polygon fill="black" stroke="black" points="2833.98,-656.52 2842.18,-649.81 2831.58,-649.94 2833.98,-656.52"/>
</g>
<!-- replacement&#45;&gt;vartypes -->
<g id="edge69" class="edge">
<title>replacement&#45;&gt;vartypes</title>
<path fill="none" stroke="black" d="M925.2,-1089.7C1245.37,-1054.93 2351.41,-933.46 2381.2,-911.71 2391.04,-904.52 2560.83,-524.73 2564.2,-513.02 2577.5,-466.83 2583.45,-411.94 2586.1,-374.4"/>
<polygon fill="black" stroke="black" points="2589.57,-375.06 2586.73,-364.85 2582.58,-374.6 2589.57,-375.06"/>
</g>
<!-- runCommand&#45;&gt;env -->
<g id="edge25" class="edge">
<title>runCommand&#45;&gt;env</title>
<path fill="none" stroke="black" d="M1577.06,-1043.87C1447.2,-985.72 1250.03,-897.44 1166.18,-859.9"/>
<polygon fill="black" stroke="black" points="1167.76,-856.78 1157.21,-855.88 1164.9,-863.16 1167.76,-856.78"/>
</g>
<!-- runCommand&#45;&gt;functions -->
<g id="edge58" class="edge">
<title>runCommand&#45;&gt;functions</title>
<path fill="none" stroke="black" d="M1798.17,-1041.64C1864.67,-1002.72 1952.88,-951.07 2022.93,-910.06"/>
<polygon fill="black" stroke="black" points="2024.53,-913.19 2031.39,-905.12 2020.99,-907.15 2024.53,-913.19"/>
</g>
<!-- runCommand&#45;&gt;linebuffer -->
<g id="edge22" class="edge">
<title>runCommand&#45;&gt;linebuffer</title>
<path fill="none" stroke="black" d="M1652.59,-1038.84C1587.16,-955.45 1466.7,-799.35 1371.2,-661.02 1353.26,-635.03 1351.43,-626.77 1333.2,-600.98 1314.06,-573.9 1290.99,-544.58 1272.75,-522.07"/>
<polygon fill="black" stroke="black" points="1275.48,-519.89 1266.46,-514.34 1270.06,-524.31 1275.48,-519.89"/>
</g>
<!-- runCommand&#45;&gt;matches -->
<g id="edge23" class="edge">
<title>runCommand&#45;&gt;matches</title>
<path fill="none" stroke="black" d="M1602.88,-1041.63C1551.2,-1008.07 1488.9,-962.38 1442.2,-911.71 1392.35,-857.62 1396.75,-831.67 1356.2,-770.29 1331.59,-733.05 1301.53,-691.56 1281.03,-663.84"/>
<polygon fill="black" stroke="black" points="1283.87,-661.8 1275.1,-655.85 1278.25,-665.97 1283.87,-661.8"/>
</g>
<!-- runCommand&#45;&gt;messages -->
<g id="edge29" class="edge">
<title>runCommand&#45;&gt;messages</title>
<path fill="none" stroke="black" d="M1686.38,-1038.2C1678.7,-1001.73 1669.8,-954.3 1665.2,-911.71 1644.78,-722.63 1652.2,-674.18 1652.2,-484 1652.2,-484 1652.2,-484 1652.2,-328 1652.2,-232.89 1716.68,-136.51 1757.49,-85.03"/>
<polygon fill="black" stroke="black" points="1760.06,-87.42 1763.62,-77.44 1754.61,-83.02 1760.06,-87.42"/>
</g>
<!-- runCommand&#45;&gt;opresult -->
<g id="edge60" class="edge">
<title>runCommand&#45;&gt;opresult</title>
<path fill="none" stroke="black" d="M1689.76,-1038.4C1672.1,-921.8 1644.22,-659.48 1709.2,-452.98 1739.6,-356.38 1817.37,-263.03 1860.42,-216.54"/>
<polygon fill="black" stroke="black" points="1862.97,-218.94 1867.25,-209.25 1857.86,-214.16 1862.97,-218.94"/>
</g>
<!-- runCommand&#45;&gt;parseCmdLine -->
<g id="edge63" class="edge">
<title>runCommand&#45;&gt;parseCmdLine</title>
<path fill="none" stroke="black" d="M1534.02,-1048.99C1348.59,-993.19 1056.78,-905.37 920.7,-864.42"/>
<polygon fill="black" stroke="black" points="922.02,-861.16 911.44,-861.63 920.01,-867.87 922.02,-861.16"/>
</g>
<!-- runCommand&#45;&gt;readjson -->
<g id="edge59" class="edge">
<title>runCommand&#45;&gt;readjson</title>
<path fill="none" stroke="black" d="M1939.3,-1064.41C2113.07,-1033.81 2326.94,-982.9 2381.2,-911.71 2436.39,-839.29 2409.66,-722.91 2391.41,-665.81"/>
<polygon fill="black" stroke="black" points="2394.84,-665.04 2388.37,-656.65 2388.19,-667.24 2394.84,-665.04"/>
</g>
<!-- runCommand&#45;&gt;regexes -->
<g id="edge24" class="edge">
<title>runCommand&#45;&gt;regexes</title>
<path fill="none" stroke="black" d="M1702.44,-1038.18C1706.83,-943.71 1719.23,-756.39 1752.2,-600.98 1757.73,-574.89 1766.91,-546.41 1774.86,-524.09"/>
<polygon fill="black" stroke="black" points="1778.13,-525.36 1778.25,-514.76 1771.55,-522.97 1778.13,-525.36"/>
</g>
<!-- runCommand&#45;&gt;signatures -->
<g id="edge64" class="edge">
<title>runCommand&#45;&gt;signatures</title>
<path fill="none" stroke="black" d="M1724.4,-1038.44C1763.94,-942.31 1847.55,-750.4 1942.2,-600.98 1961.77,-570.08 1988.14,-537.9 2007.97,-515.13"/>
<polygon fill="black" stroke="black" points="2010.51,-517.54 2014.49,-507.72 2005.25,-512.91 2010.51,-517.54"/>
</g>
<!-- runCommand&#45;&gt;unicodes -->
<g id="edge61" class="edge">
<title>runCommand&#45;&gt;unicodes</title>
<path fill="none" stroke="black" d="M1744.11,-1038.78C1769.63,-1002.71 1801.68,-955.49 1827.2,-911.71 1862.52,-851.12 1859.46,-829.4 1897.2,-770.29 1949.14,-688.93 1957.39,-660.72 2033.2,-600.98 2090.04,-556.18 2166.83,-523.34 2219.83,-504.05"/>
<polygon fill="black" stroke="black" points="2220.77,-507.43 2229.01,-500.76 2218.41,-500.84 2220.77,-507.43"/>
</g>
<!-- runCommand&#45;&gt;utf8decoder -->
<g id="edge62" class="edge">
<title>runCommand&#45;&gt;utf8decoder</title>
<path fill="none" stroke="black" d="M1709.8,-1038.24C1721.48,-971.21 1744,-860.82 1778.2,-770.29 1834.66,-620.82 1857.86,-585.45 1947.2,-452.98 1967.59,-422.75 1994.06,-391.27 2015.06,-367.73"/>
<polygon fill="black" stroke="black" points="2017.43,-370.34 2021.52,-360.56 2012.23,-365.65 2017.43,-370.34"/>
</g>
<!-- runCommand&#45;&gt;variables -->
<g id="edge34" class="edge">
<title>runCommand&#45;&gt;variables</title>
<path fill="none" stroke="black" d="M1981.74,-1083.17C2159.61,-1062.68 2388.56,-1016.26 2566.2,-911.71 2638.24,-869.31 2627.66,-825.76 2690.2,-770.29 2740.09,-726.03 2804.72,-684.07 2847.27,-658.22"/>
<polygon fill="black" stroke="black" points="2849,-661.26 2855.76,-653.1 2845.39,-655.27 2849,-661.26"/>
</g>
<!-- runCommand&#45;&gt;vartypes -->
<g id="edge28" class="edge">
<title>runCommand&#45;&gt;vartypes</title>
<path fill="none" stroke="black" d="M1978.52,-1081.07C2130.68,-1059.38 2315.44,-1012.46 2452.2,-911.71 2504.65,-873.07 2586.66,-723.77 2604.2,-661.02 2632.03,-561.44 2612.9,-438.54 2599.03,-374.14"/>
<polygon fill="black" stroke="black" points="2602.51,-373.67 2596.93,-364.67 2595.68,-375.19 2602.51,-373.67"/>
</g>
<!-- runner -->
<g id="node21" class="node">
<title>runner</title>
<g id="a_node21"><a xlink:href="html/runner.html" xlink:title="runner.md" target="_parent">
<polygon fill="palegreen" stroke="black" points="2629.57,-1604.69 2629.57,-1635.31 2580.15,-1656.95 2510.25,-1656.95 2460.83,-1635.31 2460.83,-1604.69 2510.25,-1583.05 2580.15,-1583.05 2629.57,-1604.69"/>
<polygon fill="none" stroke="black" points="2633.58,-1602.06 2633.58,-1637.94 2580.98,-1660.98 2509.41,-1660.98 2456.82,-1637.94 2456.82,-1602.06 2509.41,-1579.02 2580.98,-1579.02 2633.58,-1602.06"/>
<text text-anchor="middle" x="2545.2" y="-1611.2" font-family="Times,serif" font-size="36.00">runner</text>
</a>
</g>
</g>
<!-- signatures&#45;&gt;messages -->
<g id="edge46" class="edge">
<title>signatures&#45;&gt;messages</title>
<path fill="none" stroke="black" d="M2010.82,-459.8C1963.46,-416.75 1862.17,-316.61 1815.2,-209.04 1798.18,-170.07 1792.51,-121.4 1790.74,-87.63"/>
<polygon fill="black" stroke="black" points="1794.25,-87.7 1790.33,-77.85 1787.25,-87.99 1794.25,-87.7"/>
</g>
<!-- signatures&#45;&gt;vartypes -->
<g id="edge45" class="edge">
<title>signatures&#45;&gt;vartypes</title>
<path fill="none" stroke="black" d="M2094.23,-466.02C2191.47,-439.24 2387.82,-385.18 2501.5,-353.87"/>
<polygon fill="black" stroke="black" points="2502.4,-357.26 2511.12,-351.23 2500.54,-350.51 2502.4,-357.26"/>
</g>
<!-- startingvars&#45;&gt;args -->
<g id="edge78" class="edge">
<title>startingvars&#45;&gt;args</title>
<path fill="none" stroke="black" d="M2049.57,-1282.1C1757.28,-1271.95 844.23,-1234.66 735.2,-1161.52 631.43,-1091.9 646.31,-1030.05 606.2,-911.71 577.27,-826.36 564.17,-720.38 559.04,-666.68"/>
<polygon fill="black" stroke="black" points="562.54,-666.57 558.14,-656.94 555.57,-667.21 562.54,-666.57"/>
</g>
<!-- startingvars&#45;&gt;env -->
<g id="edge80" class="edge">
<title>startingvars&#45;&gt;env</title>
<path fill="none" stroke="black" d="M2053.32,-1278.07C1883.15,-1263.15 1510.03,-1224.18 1399.2,-1161.52 1274.1,-1090.79 1179.9,-939.76 1143.1,-873.86"/>
<polygon fill="black" stroke="black" points="1146.31,-872.43 1138.42,-865.36 1140.18,-875.81 1146.31,-872.43"/>
</g>
<!-- startingvars&#45;&gt;functions -->
<g id="edge86" class="edge">
<title>startingvars&#45;&gt;functions</title>
<path fill="none" stroke="black" d="M2139.2,-1261.5C2139.2,-1199.08 2139.2,-1026.91 2139.2,-923.57"/>
<polygon fill="black" stroke="black" points="2142.7,-923.76 2139.2,-913.76 2135.7,-923.76 2142.7,-923.76"/>
</g>
<!-- startingvars&#45;&gt;messages -->
<g id="edge79" class="edge">
<title>startingvars&#45;&gt;messages</title>
<path fill="none" stroke="black" d="M2229.83,-1284.61C2348.65,-1280.03 2559.3,-1257.57 2707.2,-1161.52 3020.4,-958.12 3204.2,-857.45 3204.2,-484 3204.2,-484 3204.2,-484 3204.2,-328 3204.2,-226.19 3320.46,-279.97 2930.2,-160.96 2735.87,-101.7 2125.78,-64.45 1887.2,-51.82"/>
<polygon fill="black" stroke="black" points="1887.46,-48.33 1877.29,-51.3 1887.09,-55.32 1887.46,-48.33"/>
</g>
<!-- startingvars&#45;&gt;opresult -->
<g id="edge84" class="edge">
<title>startingvars&#45;&gt;opresult</title>
<path fill="none" stroke="black" d="M2182.27,-1264.43C2222.48,-1243.39 2281.87,-1207.32 2320.2,-1161.52 2484.79,-964.84 2529.97,-846.9 2457.2,-600.98 2409.46,-439.64 2373.04,-390.1 2234.2,-295.06 2150.97,-238.09 2036.38,-209.64 1962.79,-196.37"/>
<polygon fill="black" stroke="black" points="1963.73,-192.99 1953.28,-194.71 1962.53,-199.88 1963.73,-192.99"/>
</g>
<!-- startingvars&#45;&gt;readjson -->
<g id="edge83" class="edge">
<title>startingvars&#45;&gt;readjson</title>
<path fill="none" stroke="black" d="M2163.79,-1262.76C2220.98,-1209.17 2361.84,-1065.88 2412.2,-911.71 2440.12,-826.22 2410.89,-719.2 2392.22,-665.71"/>
<polygon fill="black" stroke="black" points="2395.6,-664.78 2388.93,-656.56 2389.02,-667.15 2395.6,-664.78"/>
</g>
<!-- startingvars&#45;&gt;runCommand -->
<g id="edge85" class="edge">
<title>startingvars&#45;&gt;runCommand</title>
<path fill="none" stroke="black" d="M2091.8,-1265.13C2032.15,-1240.13 1927.05,-1196.08 1840.74,-1159.9"/>
<polygon fill="black" stroke="black" points="1842.28,-1156.76 1831.7,-1156.12 1839.57,-1163.21 1842.28,-1156.76"/>
</g>
<!-- startingvars&#45;&gt;variables -->
<g id="edge81" class="edge">
<title>startingvars&#45;&gt;variables</title>
<path fill="none" stroke="black" d="M2221.79,-1275.78C2352.65,-1259.54 2599.17,-1221.71 2661.2,-1161.52 2790.39,-1036.13 2679.8,-928.23 2766.2,-770.29 2789.65,-727.42 2829.05,-687.18 2857.56,-661.28"/>
<polygon fill="black" stroke="black" points="2859.77,-664 2864.9,-654.73 2855.11,-658.78 2859.77,-664"/>
</g>
<!-- startingvars&#45;&gt;vartypes -->
<g id="edge82" class="edge">
<title>startingvars&#45;&gt;vartypes</title>
<path fill="none" stroke="black" d="M2220.4,-1275.02C2340.54,-1258.44 2556.58,-1221.03 2604.2,-1161.52 2694.31,-1048.92 2626.42,-657.21 2629.2,-513.02 2629.71,-486.34 2633.47,-479.32 2629.2,-452.98 2624.8,-425.84 2615.26,-396.6 2606.49,-373.44"/>
<polygon fill="black" stroke="black" points="2609.84,-372.4 2602.95,-364.34 2603.31,-374.93 2609.84,-372.4"/>
</g>
<!-- statictea -->
<g id="node24" class="node">
<title>statictea</title>
<g id="a_node24"><a xlink:href="html/statictea.html" xlink:title="statictea.md" target="_parent">
<polygon fill="palegoldenrod" stroke="black" points="2020.2,-1681 1847.2,-1620 2020.2,-1559 2193.2,-1620 2020.2,-1681"/>
<text text-anchor="middle" x="2020.2" y="-1608.1" font-family="Times,serif" font-size="48.00">statictea</text>
</a>
</g>
</g>
<!-- statictea&#45;&gt;args -->
<g id="edge102" class="edge">
<title>statictea&#45;&gt;args</title>
<path fill="none" stroke="black" d="M1853.94,-1617.21C1469.6,-1608.78 541.47,-1562.21 399.2,-1310.04 272.21,-1084.97 466.99,-762.7 534.53,-662.75"/>
<polygon fill="black" stroke="black" points="537.24,-665 539.99,-654.76 531.46,-661.05 537.24,-665"/>
</g>
<!-- statictea&#45;&gt;env -->
<g id="edge106" class="edge">
<title>statictea&#45;&gt;env</title>
<path fill="none" stroke="black" d="M1860.26,-1614.99C1618.57,-1605.17 1178,-1571.37 1080.2,-1455.02 934.42,-1281.61 1062.02,-974.31 1109.87,-874.38"/>
<polygon fill="black" stroke="black" points="1112.88,-876.18 1114.1,-865.66 1106.58,-873.12 1112.88,-876.18"/>
</g>
<!-- statictea&#45;&gt;gethelp -->
<g id="edge104" class="edge">
<title>statictea&#45;&gt;gethelp</title>
<path fill="none" stroke="black" d="M2103,-1587.67C2133.76,-1577.11 2169.2,-1566.19 2202.2,-1559 2612.04,-1469.75 2730.84,-1546.44 3140.2,-1455.02 3147.27,-1453.44 3154.58,-1451.48 3161.8,-1449.32"/>
<polygon fill="black" stroke="black" points="3162.72,-1452.71 3171.22,-1446.38 3160.63,-1446.03 3162.72,-1452.71"/>
</g>
<!-- statictea&#45;&gt;messages -->
<g id="edge103" class="edge">
<title>statictea&#45;&gt;messages</title>
<path fill="none" stroke="black" d="M2101.99,-1587.51C2132.95,-1576.8 2168.79,-1565.82 2202.2,-1559 2336.91,-1531.51 3336.61,-1550.85 3435.2,-1455.02 3489.09,-1402.64 3454.2,-1362.15 3454.2,-1287 3454.2,-1287 3454.2,-1287 3454.2,-328 3454.2,-152.82 3266.38,-206.38 3097.2,-160.96 2868.52,-99.56 2149.21,-62.73 1887.03,-51.05"/>
<polygon fill="black" stroke="black" points="1887.3,-47.56 1877.16,-50.62 1886.99,-54.56 1887.3,-47.56"/>
</g>
<!-- statictea&#45;&gt;opresult -->
<g id="edge107" class="edge">
<title>statictea&#45;&gt;opresult</title>
<path fill="none" stroke="black" d="M2103.04,-1587.83C2133.8,-1577.28 2169.24,-1566.33 2202.2,-1559 2391.62,-1516.86 2922.21,-1581.71 3069.2,-1455.02 3192.78,-1348.51 3166.2,-1264.14 3166.2,-1101 3166.2,-1101 3166.2,-1101 3166.2,-482 3166.2,-425.65 3336.99,-459.6 2970.2,-295.06 2790.51,-214.45 2184.32,-192.77 1967.84,-187.53"/>
<polygon fill="black" stroke="black" points="1968.19,-184.03 1958.11,-187.3 1968.03,-191.03 1968.19,-184.03"/>
</g>
<!-- statictea&#45;&gt;parseCommandLine -->
<g id="edge9" class="edge">
<title>statictea&#45;&gt;parseCommandLine</title>
<path fill="none" stroke="black" d="M1860.87,-1614.7C1452.28,-1602.2 390.97,-1559.87 274.2,-1455.02 102.99,-1301.3 129.54,-982.23 143.79,-876.71"/>
<polygon fill="black" stroke="black" points="147.23,-877.38 145.16,-866.99 140.3,-876.4 147.23,-877.38"/>
</g>
<!-- statictea&#45;&gt;processTemplate -->
<g id="edge89" class="edge">
<title>statictea&#45;&gt;processTemplate</title>
<path fill="none" stroke="black" d="M1894.53,-1602.96C1688.36,-1576.08 1265.67,-1518.6 910.2,-1455.02 895.17,-1452.33 879.27,-1449.23 863.82,-1446.08"/>
<polygon fill="black" stroke="black" points="864.66,-1442.68 854.16,-1444.09 863.24,-1449.53 864.66,-1442.68"/>
</g>
<!-- statictea&#45;&gt;repl -->
<g id="edge121" class="edge">
<title>statictea&#45;&gt;repl</title>
<path fill="none" stroke="black" d="M2020.2,-1558.73C2020.2,-1526.55 2020.2,-1488.08 2020.2,-1460.86"/>
<polygon fill="black" stroke="black" points="2023.7,-1461.09 2020.2,-1451.09 2016.7,-1461.09 2023.7,-1461.09"/>
</g>
<!-- timer -->
<g id="node26" class="node">
<title>timer</title>
<g id="a_node26"><a xlink:href="html/timer.html" xlink:title="timer.md" target="_parent">
<polygon fill="palegreen" stroke="black" points="3422.29,-1414.21 3422.29,-1435.79 3391.77,-1451.04 3348.62,-1451.04 3318.11,-1435.79 3318.11,-1414.21 3348.62,-1398.96 3391.77,-1398.96 3422.29,-1414.21"/>
<polygon fill="none" stroke="black" points="3426.29,-1411.74 3426.29,-1438.26 3392.72,-1455.04 3347.68,-1455.04 3314.11,-1438.26 3314.11,-1411.74 3347.68,-1394.96 3392.72,-1394.96 3426.29,-1411.74"/>
<text text-anchor="middle" x="3370.2" y="-1418.8" font-family="Times,serif" font-size="24.00">timer</text>
</a>
</g>
</g>
<!-- statictea&#45;&gt;timer -->
<g id="edge122" class="edge">
<title>statictea&#45;&gt;timer</title>
<path fill="none" stroke="black" d="M2102.48,-1587.53C2133.34,-1576.89 2168.98,-1565.95 2202.2,-1559 2684.16,-1458.18 2828.97,-1580.16 3305.2,-1455.02 3309.77,-1453.82 3314.43,-1452.33 3319.04,-1450.66"/>
<polygon fill="black" stroke="black" points="3320.22,-1453.96 3328.26,-1447.06 3317.67,-1447.44 3320.22,-1453.96"/>
</g>
<!-- updateTemplate -->
<g id="node28" class="node">
<title>updateTemplate</title>
<g id="a_node28"><a xlink:href="html/updateTemplate.html" xlink:title="updateTemplate.md" target="_parent">
<ellipse fill="palegoldenrod" stroke="black" cx="1209.2" cy="-1425" rx="119.5" ry="24.08"/>
<text text-anchor="middle" x="1209.2" y="-1418.8" font-family="Times,serif" font-size="24.00">updateTemplate</text>
</a>
</g>
</g>
<!-- statictea&#45;&gt;updateTemplate -->
<g id="edge101" class="edge">
<title>statictea&#45;&gt;updateTemplate</title>
<path fill="none" stroke="black" d="M1917.9,-1594.65C1756.81,-1556.32 1446.9,-1482.57 1296,-1446.66"/>
<polygon fill="black" stroke="black" points="1296.99,-1443.29 1286.45,-1444.38 1295.37,-1450.1 1296.99,-1443.29"/>
</g>
<!-- version -->
<g id="node32" class="node">
<title>version</title>
<g id="a_node32"><a xlink:href="html/version.html" xlink:title="version.md" target="_parent">
<polygon fill="palegreen" stroke="black" points="3095.87,-472.21 3095.87,-493.79 3056.81,-509.04 3001.58,-509.04 2962.53,-493.79 2962.53,-472.21 3001.58,-456.96 3056.81,-456.96 3095.87,-472.21"/>
<polygon fill="none" stroke="black" points="3099.87,-469.48 3099.87,-496.52 3057.57,-513.04 3000.83,-513.04 2958.53,-496.52 2958.53,-469.48 3000.83,-452.96 3057.57,-452.96 3099.87,-469.48"/>
<text text-anchor="middle" x="3029.2" y="-476.8" font-family="Times,serif" font-size="24.00">version</text>
</a>
</g>
</g>
<!-- statictea&#45;&gt;version -->
<g id="edge105" class="edge">
<title>statictea&#45;&gt;version</title>
<path fill="none" stroke="black" d="M2108.02,-1589.64C2137.87,-1579.77 2171.45,-1568.79 2202.2,-1559 2594.71,-1434.06 3088.2,-1698.92 3088.2,-1287 3088.2,-1287 3088.2,-1287 3088.2,-840 3088.2,-724.16 3057.42,-589.94 3040.33,-524.32"/>
<polygon fill="black" stroke="black" points="3043.73,-523.5 3037.79,-514.73 3036.96,-525.29 3043.73,-523.5"/>
</g>
<!-- unicodes&#45;&gt;messages -->
<g id="edge41" class="edge">
<title>unicodes&#45;&gt;messages</title>
<path fill="none" stroke="black" d="M2281.06,-458.49C2279.67,-420.35 2271.96,-344.33 2234.2,-295.06 2140.54,-172.83 1968.44,-102.01 1868.23,-69.29"/>
<polygon fill="black" stroke="black" points="1869.61,-66.05 1859.02,-66.32 1867.46,-72.72 1869.61,-66.05"/>
</g>
<!-- unicodes&#45;&gt;opresult -->
<g id="edge40" class="edge">
<title>unicodes&#45;&gt;opresult</title>
<path fill="none" stroke="black" d="M2276.77,-458.72C2268.14,-419.55 2245.42,-340.29 2196.2,-295.06 2131.29,-235.41 2031.58,-207.95 1963.75,-195.6"/>
<polygon fill="black" stroke="black" points="1964.68,-192.21 1954.22,-193.94 1963.47,-199.1 1964.68,-192.21"/>
</g>
<!-- unicodes&#45;&gt;utf8decoder -->
<g id="edge42" class="edge">
<title>unicodes&#45;&gt;utf8decoder</title>
<path fill="none" stroke="black" d="M2249.56,-461.18C2211.96,-436.44 2148.61,-394.76 2103.42,-365.02"/>
<polygon fill="black" stroke="black" points="2105.61,-362.27 2095.33,-359.7 2101.76,-368.12 2105.61,-362.27"/>
</g>
<!-- unicodes&#45;&gt;vartypes -->
<g id="edge43" class="edge">
<title>unicodes&#45;&gt;vartypes</title>
<path fill="none" stroke="black" d="M2320.39,-462.59C2371.46,-437.31 2461.47,-392.75 2522.92,-362.32"/>
<polygon fill="black" stroke="black" points="2524.14,-365.62 2531.55,-358.05 2521.03,-359.35 2524.14,-365.62"/>
</g>
<!-- updateTemplate&#45;&gt;args -->
<g id="edge90" class="edge">
<title>updateTemplate&#45;&gt;args</title>
<path fill="none" stroke="black" d="M1095.82,-1417.01C986.69,-1406.26 819.86,-1379.02 692.2,-1310.04 609.1,-1265.14 576.85,-1248.57 540.2,-1161.52 467.1,-987.89 521.22,-753.11 545.78,-666.19"/>
<polygon fill="black" stroke="black" points="549.13,-667.2 548.54,-656.62 542.4,-665.26 549.13,-667.2"/>
</g>
<!-- updateTemplate&#45;&gt;env -->
<g id="edge92" class="edge">
<title>updateTemplate&#45;&gt;env</title>
<path fill="none" stroke="black" d="M1189.61,-1400.94C1172.42,-1379.13 1148.58,-1344.65 1138.2,-1310.04 1091.33,-1153.78 1110.57,-954.87 1121.08,-876.21"/>
<polygon fill="black" stroke="black" points="1124.51,-876.96 1122.41,-866.57 1117.57,-876 1124.51,-876.96"/>
</g>
<!-- updateTemplate&#45;&gt;linebuffer -->
<g id="edge93" class="edge">
<title>updateTemplate&#45;&gt;linebuffer</title>
<path fill="none" stroke="black" d="M1210.71,-1400.45C1215.81,-1315.29 1230.67,-1015.43 1204.2,-770.29 1198.87,-720.95 1186.34,-710.38 1181.2,-661.02 1178.44,-634.48 1174.93,-626.92 1181.2,-600.98 1187.89,-573.27 1202.33,-544.76 1215.37,-522.82"/>
<polygon fill="black" stroke="black" points="1218.21,-524.88 1220.44,-514.53 1212.24,-521.23 1218.21,-524.88"/>
</g>
<!-- updateTemplate&#45;&gt;messages -->
<g id="edge91" class="edge">
<title>updateTemplate&#45;&gt;messages</title>
<path fill="none" stroke="black" d="M1102.94,-1413.6C952.92,-1397.29 688.36,-1362.09 608.2,-1310.04 516.44,-1250.46 478.2,-1210.41 478.2,-1101 478.2,-1101 478.2,-1101 478.2,-328 478.2,-247.16 484.77,-208.44 550.2,-160.96 642.1,-94.27 1418.27,-60.29 1693.72,-50.25"/>
<polygon fill="black" stroke="black" points="1693.5,-53.76 1703.37,-49.9 1693.25,-46.76 1693.5,-53.76"/>
</g>
<!-- updateTemplate&#45;&gt;opresult -->
<g id="edge100" class="edge">
<title>updateTemplate&#45;&gt;opresult</title>
<path fill="none" stroke="black" d="M1208.26,-1400.52C1204.78,-1315.59 1191.73,-1016.41 1171.2,-770.29 1159.43,-629.2 1061.66,-568.71 1143.2,-452.98 1298.65,-232.34 1653.85,-193.05 1811.88,-186.76"/>
<polygon fill="black" stroke="black" points="1811.99,-190.26 1821.86,-186.4 1811.74,-183.26 1811.99,-190.26"/>
</g>
<!-- updateTemplate&#45;&gt;parseCmdLine -->
<g id="edge94" class="edge">
<title>updateTemplate&#45;&gt;parseCmdLine</title>
<path fill="none" stroke="black" d="M1130.02,-1406.54C1018.92,-1377.31 820.81,-1306.78 735.2,-1161.52 677.91,-1064.31 769.14,-933.03 818.23,-873.58"/>
<polygon fill="black" stroke="black" points="820.7,-876.08 824.45,-866.17 815.34,-871.58 820.7,-876.08"/>
</g>
<!-- updateTemplate&#45;&gt;replacement -->
<g id="edge98" class="edge">
<title>updateTemplate&#45;&gt;replacement</title>
<path fill="none" stroke="black" d="M1178.42,-1401.46C1148.21,-1379.03 1101.14,-1343.26 1062.2,-1310.04 991.04,-1249.34 912.16,-1173.14 869.92,-1131.55"/>
<polygon fill="black" stroke="black" points="872.63,-1129.3 863.06,-1124.77 867.71,-1134.29 872.63,-1129.3"/>
</g>
<!-- updateTemplate&#45;&gt;runCommand -->
<g id="edge95" class="edge">
<title>updateTemplate&#45;&gt;runCommand</title>
<path fill="none" stroke="black" d="M1243.34,-1401.54C1316.66,-1353.31 1491.54,-1238.26 1602.42,-1165.32"/>
<polygon fill="black" stroke="black" points="1604.25,-1168.31 1610.69,-1159.89 1600.41,-1162.46 1604.25,-1168.31"/>
</g>
<!-- updateTemplate&#45;&gt;startingvars -->
<g id="edge99" class="edge">
<title>updateTemplate&#45;&gt;startingvars</title>
<path fill="none" stroke="black" d="M1303.92,-1410.05C1484.1,-1383.5 1873.89,-1326.08 2049.83,-1300.17"/>
<polygon fill="black" stroke="black" points="2050.22,-1303.65 2059.6,-1298.73 2049.2,-1296.72 2050.22,-1303.65"/>
</g>
<!-- updateTemplate&#45;&gt;variables -->
<g id="edge96" class="edge">
<title>updateTemplate&#45;&gt;variables</title>
<path fill="none" stroke="black" d="M1326.47,-1420.07C1693.26,-1407.21 2797.56,-1364.16 2851.2,-1310.04 2941.68,-1218.76 2907.8,-791.37 2895.74,-666.4"/>
<polygon fill="black" stroke="black" points="2899.26,-666.39 2894.8,-656.78 2892.29,-667.08 2899.26,-666.39"/>
</g>
<!-- updateTemplate&#45;&gt;vartypes -->
<g id="edge97" class="edge">
<title>updateTemplate&#45;&gt;vartypes</title>
<path fill="none" stroke="black" d="M1326.18,-1419.76C1680.08,-1406.37 2718.23,-1362.73 2767.2,-1310.04 2897.1,-1170.29 2801.83,-623.48 2716.2,-452.98 2698.93,-418.59 2668.05,-388.48 2640.94,-366.67"/>
<polygon fill="black" stroke="black" points="2643.14,-363.95 2633.11,-360.53 2638.82,-369.45 2643.14,-363.95"/>
</g>
<!-- variables&#45;&gt;messages -->
<g id="edge32" class="edge">
<title>variables&#45;&gt;messages</title>
<path fill="none" stroke="black" d="M2896.91,-606.71C2913.6,-521.33 2965.78,-226.94 2906.2,-160.96 2838.39,-85.87 2145.44,-57.6 1886.83,-49.61"/>
<polygon fill="black" stroke="black" points="1887.2,-46.12 1877.1,-49.32 1886.99,-53.12 1887.2,-46.12"/>
</g>
<!-- variables&#45;&gt;opresult -->
<g id="edge33" class="edge">
<title>variables&#45;&gt;opresult</title>
<path fill="none" stroke="black" d="M2886.26,-606.77C2868.94,-544.26 2812.14,-372 2695.2,-295.06 2576.45,-216.93 2145.61,-194.22 1967.78,-188.1"/>
<polygon fill="black" stroke="black" points="1968.07,-184.61 1957.95,-187.77 1967.83,-191.6 1968.07,-184.61"/>
</g>
<!-- variables&#45;&gt;vartypes -->
<g id="edge30" class="edge">
<title>variables&#45;&gt;vartypes</title>
<path fill="none" stroke="black" d="M2874.68,-607.19C2839.09,-560.9 2761.07,-459.68 2754.2,-452.98 2720.41,-420.01 2677.48,-388.43 2643.75,-365.53"/>
<polygon fill="black" stroke="black" points="2646,-362.83 2635.75,-360.15 2642.09,-368.64 2646,-362.83"/>
</g>
<!-- variables&#45;&gt;version -->
<g id="edge31" class="edge">
<title>variables&#45;&gt;version</title>
<path fill="none" stroke="black" d="M2913.31,-607.51C2934.8,-584.6 2968.51,-548.68 2994.04,-521.47"/>
<polygon fill="black" stroke="black" points="2996.35,-524.12 3000.64,-514.43 2991.25,-519.33 2996.35,-524.12"/>
</g>
<!-- vartypes&#45;&gt;messages -->
<g id="edge26" class="edge">
<title>vartypes&#45;&gt;messages</title>
<path fill="none" stroke="black" d="M2564.47,-295.77C2534.17,-257.14 2477.95,-193.57 2414.2,-160.96 2242.89,-73.33 2014.74,-52.23 1887.15,-47.67"/>
<polygon fill="black" stroke="black" points="1887.49,-44.18 1877.39,-47.35 1887.27,-51.18 1887.49,-44.18"/>
</g>
<!-- vartypes&#45;&gt;opresult -->
<g id="edge27" class="edge">
<title>vartypes&#45;&gt;opresult</title>
<path fill="none" stroke="black" d="M2504.7,-311.01C2365.25,-282.64 2087.59,-226.16 1958.78,-199.95"/>
<polygon fill="black" stroke="black" points="1959.51,-196.53 1949.02,-197.97 1958.12,-203.39 1959.51,-196.53"/>
</g>
</g>
</svg>
