<?xml version="1.0" encoding="UTF-8" standalone="no"?>
<!DOCTYPE svg PUBLIC "-//W3C//DTD SVG 1.1//EN"
 "http://www.w3.org/Graphics/SVG/1.1/DTD/svg11.dtd">
<!-- Generated by graphviz version 2.40.1 (20161225.0304)
 -->
<!-- Title: statictea Pages: 1 -->
<svg width="635pt" height="1317pt"
 viewBox="0.00 0.00 634.97 1316.98" xmlns="http://www.w3.org/2000/svg" xmlns:xlink="http://www.w3.org/1999/xlink">
<g id="graph0" class="graph" transform="scale(1 1) rotate(0) translate(4 1312.9835)">
<title>statictea</title>
<polygon fill="#ffffff" stroke="transparent" points="-4,4 -4,-1312.9835 630.9693,-1312.9835 630.9693,4 -4,4"/>
<!-- strutils -->
<g id="node1" class="node">
<title>strutils</title>
<ellipse fill="none" stroke="#000000" cx="87.6672" cy="-676.4917" rx="57.5374" ry="22.7556"/>
<text text-anchor="middle" x="87.6672" y="-669.2917" font-family="Times,serif" font-size="24.00" fill="#000000">strutils</text>
</g>
<!-- statictea -->
<g id="node2" class="node">
<title>statictea</title>
<ellipse fill="none" stroke="#000000" cx="545.1518" cy="-1162.4917" rx="39.154" ry="18"/>
<text text-anchor="middle" x="545.1518" y="-1158.2917" font-family="Times,serif" font-size="14.00" fill="#000000">statictea</text>
</g>
<!-- strutils&#45;&gt;statictea -->
<g id="edge1" class="edge">
<title>strutils&#45;&gt;statictea</title>
<path fill="none" stroke="#000000" d="M106.2963,-698.0606C124.1523,-718.8091 151.7911,-751.1211 175.3343,-779.4917 305.2986,-936.1045 295.9053,-1019.7948 463.3343,-1135.4917 474.0152,-1142.8725 486.8588,-1148.3521 499.1706,-1152.3714"/>
<polygon fill="#000000" stroke="#000000" points="498.2947,-1155.7627 508.879,-1155.29 500.3101,-1149.0591 498.2947,-1155.7627"/>
</g>
<!-- args -->
<g id="node6" class="node">
<title>args</title>
<ellipse fill="none" stroke="#000000" cx="545.1518" cy="-622.4917" rx="27" ry="18"/>
<text text-anchor="middle" x="545.1518" y="-618.2917" font-family="Times,serif" font-size="14.00" fill="#000000">args</text>
</g>
<!-- strutils&#45;&gt;args -->
<g id="edge4" class="edge">
<title>strutils&#45;&gt;args</title>
<path fill="none" stroke="#000000" d="M142.8505,-669.9781C237.465,-658.8101 428.186,-636.298 508.3429,-626.8365"/>
<polygon fill="#000000" stroke="#000000" points="508.9315,-630.2915 518.4523,-625.6433 508.1109,-623.3397 508.9315,-630.2915"/>
</g>
<!-- warnings -->
<g id="node7" class="node">
<title>warnings</title>
<ellipse fill="none" stroke="#000000" cx="545.1518" cy="-838.4917" rx="42.5542" ry="18"/>
<text text-anchor="middle" x="545.1518" y="-834.2917" font-family="Times,serif" font-size="14.00" fill="#000000">warnings</text>
</g>
<!-- strutils&#45;&gt;warnings -->
<g id="edge5" class="edge">
<title>strutils&#45;&gt;warnings</title>
<path fill="none" stroke="#000000" d="M129.7934,-692.038C199.1433,-717.539 341.7913,-769.6061 463.3343,-811.4917 475.7205,-815.7602 489.2083,-820.2684 501.5942,-824.3526"/>
<polygon fill="#000000" stroke="#000000" points="500.6561,-827.7284 511.249,-827.5245 502.841,-821.0781 500.6561,-827.7284"/>
</g>
<!-- cmdline -->
<g id="node11" class="node">
<title>cmdline</title>
<ellipse fill="none" stroke="#000000" cx="545.1518" cy="-784.4917" rx="38.6869" ry="18"/>
<text text-anchor="middle" x="545.1518" y="-780.2917" font-family="Times,serif" font-size="14.00" fill="#000000">cmdline</text>
</g>
<!-- strutils&#45;&gt;cmdline -->
<g id="edge11" class="edge">
<title>strutils&#45;&gt;cmdline</title>
<path fill="none" stroke="#000000" d="M137.0607,-688.1522C226.646,-709.301 414.5876,-753.669 500.5371,-773.9594"/>
<polygon fill="#000000" stroke="#000000" points="499.963,-777.42 510.4997,-776.3113 501.5714,-770.6073 499.963,-777.42"/>
</g>
<!-- env -->
<g id="node14" class="node">
<title>env</title>
<ellipse fill="none" stroke="#000000" cx="545.1518" cy="-1270.4917" rx="27" ry="18"/>
<text text-anchor="middle" x="545.1518" y="-1266.2917" font-family="Times,serif" font-size="14.00" fill="#000000">env</text>
</g>
<!-- strutils&#45;&gt;env -->
<g id="edge20" class="edge">
<title>strutils&#45;&gt;env</title>
<path fill="none" stroke="#000000" d="M107.4636,-697.8163C125.912,-718.1245 153.7431,-749.8989 175.3343,-779.4917 318.3933,-975.5675 272.64,-1093.3342 463.3343,-1243.4917 476.3201,-1253.7171 493.3393,-1260.1456 508.4904,-1264.1498"/>
<polygon fill="#000000" stroke="#000000" points="508.0706,-1267.6474 518.6086,-1266.5515 509.6873,-1260.8366 508.0706,-1267.6474"/>
</g>
<!-- tempFile -->
<g id="node16" class="node">
<title>tempFile</title>
<ellipse fill="none" stroke="#000000" cx="545.1518" cy="-1000.4917" rx="41.5938" ry="18"/>
<text text-anchor="middle" x="545.1518" y="-996.2917" font-family="Times,serif" font-size="14.00" fill="#000000">tempFile</text>
</g>
<!-- strutils&#45;&gt;tempFile -->
<g id="edge23" class="edge">
<title>strutils&#45;&gt;tempFile</title>
<path fill="none" stroke="#000000" d="M108.9842,-697.9294C163.378,-751.5409 313.6284,-892.8957 463.3343,-973.4917 474.4469,-979.4744 487.1221,-984.4464 499.1227,-988.424"/>
<polygon fill="#000000" stroke="#000000" points="498.406,-991.8676 508.9955,-991.5318 500.5078,-985.1906 498.406,-991.8676"/>
</g>
<!-- matches -->
<g id="node18" class="node">
<title>matches</title>
<ellipse fill="none" stroke="#000000" cx="545.1518" cy="-514.4917" rx="39.1627" ry="18"/>
<text text-anchor="middle" x="545.1518" y="-510.2917" font-family="Times,serif" font-size="14.00" fill="#000000">matches</text>
</g>
<!-- strutils&#45;&gt;matches -->
<g id="edge25" class="edge">
<title>strutils&#45;&gt;matches</title>
<path fill="none" stroke="#000000" d="M129.7934,-660.9455C199.1433,-635.4445 341.7913,-583.3773 463.3343,-541.4917 476.2939,-537.0257 490.4595,-532.2972 503.307,-528.0665"/>
<polygon fill="#000000" stroke="#000000" points="504.4225,-531.3841 512.8329,-524.9408 502.2401,-524.733 504.4225,-531.3841"/>
</g>
<!-- runCommand -->
<g id="node22" class="node">
<title>runCommand</title>
<ellipse fill="none" stroke="#000000" cx="545.1518" cy="-568.4917" rx="58.9841" ry="18"/>
<text text-anchor="middle" x="545.1518" y="-564.2917" font-family="Times,serif" font-size="14.00" fill="#000000">runCommand</text>
</g>
<!-- strutils&#45;&gt;runCommand -->
<g id="edge35" class="edge">
<title>strutils&#45;&gt;runCommand</title>
<path fill="none" stroke="#000000" d="M137.0607,-664.8312C222.6879,-644.6169 398.172,-603.1898 488.5646,-581.8505"/>
<polygon fill="#000000" stroke="#000000" points="489.4341,-585.2415 498.3624,-579.5375 487.8257,-578.4288 489.4341,-585.2415"/>
</g>
<!-- variables -->
<g id="node26" class="node">
<title>variables</title>
<ellipse fill="none" stroke="#000000" cx="545.1518" cy="-460.4917" rx="42.0524" ry="18"/>
<text text-anchor="middle" x="545.1518" y="-456.2917" font-family="Times,serif" font-size="14.00" fill="#000000">variables</text>
</g>
<!-- strutils&#45;&gt;variables -->
<g id="edge39" class="edge">
<title>strutils&#45;&gt;variables</title>
<path fill="none" stroke="#000000" d="M120.5673,-657.8576C184.9702,-621.853 332.8017,-541.5204 463.3343,-487.4917 475.3303,-482.5265 488.5971,-477.8244 500.8941,-473.7778"/>
<polygon fill="#000000" stroke="#000000" points="502.0608,-477.0791 510.5052,-470.6805 499.9137,-470.4165 502.0608,-477.0791"/>
</g>
<!-- tostring -->
<g id="node27" class="node">
<title>tostring</title>
<ellipse fill="none" stroke="#000000" cx="545.1518" cy="-730.4917" rx="37.2594" ry="18"/>
<text text-anchor="middle" x="545.1518" y="-726.2917" font-family="Times,serif" font-size="14.00" fill="#000000">tostring</text>
</g>
<!-- strutils&#45;&gt;tostring -->
<g id="edge42" class="edge">
<title>strutils&#45;&gt;tostring</title>
<path fill="none" stroke="#000000" d="M142.8505,-683.0054C233.8764,-693.7498 413.8564,-714.9941 498.7562,-725.0153"/>
<polygon fill="#000000" stroke="#000000" points="498.5285,-728.5127 508.8699,-726.2091 499.3491,-721.561 498.5285,-728.5127"/>
</g>
<!-- funtypes -->
<g id="node29" class="node">
<title>funtypes</title>
<ellipse fill="none" stroke="#000000" cx="545.1518" cy="-676.4917" rx="40.6248" ry="18"/>
<text text-anchor="middle" x="545.1518" y="-672.2917" font-family="Times,serif" font-size="14.00" fill="#000000">funtypes</text>
</g>
<!-- strutils&#45;&gt;funtypes -->
<g id="edge45" class="edge">
<title>strutils&#45;&gt;funtypes</title>
<path fill="none" stroke="#000000" d="M145.6079,-676.4917C235.9457,-676.4917 408.8597,-676.4917 494.5054,-676.4917"/>
<polygon fill="#000000" stroke="#000000" points="494.506,-679.9918 504.506,-676.4917 494.506,-672.9918 494.506,-679.9918"/>
</g>
<!-- runFunction -->
<g id="node30" class="node">
<title>runFunction</title>
<ellipse fill="none" stroke="#000000" cx="545.1518" cy="-352.4917" rx="53.1797" ry="18"/>
<text text-anchor="middle" x="545.1518" y="-348.2917" font-family="Times,serif" font-size="14.00" fill="#000000">runFunction</text>
</g>
<!-- strutils&#45;&gt;runFunction -->
<g id="edge48" class="edge">
<title>strutils&#45;&gt;runFunction</title>
<path fill="none" stroke="#000000" d="M108.9842,-655.0541C163.378,-601.4426 313.6284,-460.0878 463.3343,-379.4917 472.5166,-374.5483 482.7658,-370.2949 492.8198,-366.7224"/>
<polygon fill="#000000" stroke="#000000" points="494.001,-370.0177 502.3581,-363.5054 491.7639,-363.3848 494.001,-370.0177"/>
</g>
<!-- unicodes -->
<g id="node34" class="node">
<title>unicodes</title>
<ellipse fill="none" stroke="#000000" cx="545.1518" cy="-298.4917" rx="41.5852" ry="18"/>
<text text-anchor="middle" x="545.1518" y="-294.2917" font-family="Times,serif" font-size="14.00" fill="#000000">unicodes</text>
</g>
<!-- strutils&#45;&gt;unicodes -->
<g id="edge53" class="edge">
<title>strutils&#45;&gt;unicodes</title>
<path fill="none" stroke="#000000" d="M108.0502,-655.1813C173.8639,-586.7479 381.1785,-374.1936 463.3343,-325.4917 474.0903,-319.1156 486.5458,-314.0246 498.444,-310.0594"/>
<polygon fill="#000000" stroke="#000000" points="499.7586,-313.3155 508.2578,-306.9899 497.6689,-306.6347 499.7586,-313.3155"/>
</g>
<!-- signatures -->
<g id="node35" class="node">
<title>signatures</title>
<ellipse fill="none" stroke="#000000" cx="545.1518" cy="-406.4917" rx="45.9286" ry="18"/>
<text text-anchor="middle" x="545.1518" y="-402.2917" font-family="Times,serif" font-size="14.00" fill="#000000">signatures</text>
</g>
<!-- strutils&#45;&gt;signatures -->
<g id="edge56" class="edge">
<title>strutils&#45;&gt;signatures</title>
<path fill="none" stroke="#000000" d="M114.0611,-655.9842C173.4935,-610.6001 323.5611,-500.3996 463.3343,-433.4917 474.0824,-428.3467 486.0642,-423.7893 497.471,-419.9518"/>
<polygon fill="#000000" stroke="#000000" points="498.8664,-423.179 507.3017,-416.7683 496.7098,-416.5195 498.8664,-423.179"/>
</g>
<!-- replacement -->
<g id="node37" class="node">
<title>replacement</title>
<ellipse fill="none" stroke="#000000" cx="545.1518" cy="-1216.4917" rx="53.1281" ry="18"/>
<text text-anchor="middle" x="545.1518" y="-1212.2917" font-family="Times,serif" font-size="14.00" fill="#000000">replacement</text>
</g>
<!-- strutils&#45;&gt;replacement -->
<g id="edge65" class="edge">
<title>strutils&#45;&gt;replacement</title>
<path fill="none" stroke="#000000" d="M107.0824,-698.1028C125.2616,-718.6135 152.9105,-750.5247 175.3343,-779.4917 311.648,-955.5812 284.532,-1056.7563 463.3343,-1189.4917 471.1785,-1195.3149 480.3456,-1199.9242 489.6501,-1203.56"/>
<polygon fill="#000000" stroke="#000000" points="488.7516,-1206.9551 499.3463,-1207.0066 491.0961,-1200.3594 488.7516,-1206.9551"/>
</g>
<!-- options -->
<g id="node3" class="node">
<title>options</title>
<ellipse fill="none" stroke="#000000" cx="87.6672" cy="-546.4917" rx="61.0788" ry="22.7556"/>
<text text-anchor="middle" x="87.6672" y="-539.2917" font-family="Times,serif" font-size="24.00" fill="#000000">options</text>
</g>
<!-- parseCommandLine -->
<g id="node4" class="node">
<title>parseCommandLine</title>
<ellipse fill="none" stroke="#000000" cx="545.1518" cy="-190.4917" rx="81.6354" ry="18"/>
<text text-anchor="middle" x="545.1518" y="-186.2917" font-family="Times,serif" font-size="14.00" fill="#000000">parseCommandLine</text>
</g>
<!-- options&#45;&gt;parseCommandLine -->
<g id="edge2" class="edge">
<title>options&#45;&gt;parseCommandLine</title>
<path fill="none" stroke="#000000" d="M122.0688,-527.5675C138.7038,-517.8573 158.6346,-505.3776 175.3343,-492.4917 315.4518,-384.3744 311.5845,-308.5646 463.3343,-217.4917 469.1939,-213.9751 475.568,-210.8537 482.0862,-208.0985"/>
<polygon fill="#000000" stroke="#000000" points="483.6702,-211.2366 491.6962,-204.3204 481.1089,-204.7219 483.6702,-211.2366"/>
</g>
<!-- regexes -->
<g id="node9" class="node">
<title>regexes</title>
<ellipse fill="none" stroke="#000000" cx="545.1518" cy="-136.4917" rx="37.2248" ry="18"/>
<text text-anchor="middle" x="545.1518" y="-132.2917" font-family="Times,serif" font-size="14.00" fill="#000000">regexes</text>
</g>
<!-- options&#45;&gt;regexes -->
<g id="edge7" class="edge">
<title>options&#45;&gt;regexes</title>
<path fill="none" stroke="#000000" d="M123.0122,-527.9635C139.6797,-518.4357 159.3638,-505.9958 175.3343,-492.4917 323.7278,-367.0154 301.3442,-270.8424 463.3343,-163.4917 474.6612,-155.9854 488.252,-150.4065 501.0737,-146.3323"/>
<polygon fill="#000000" stroke="#000000" points="502.0749,-149.6862 510.6783,-143.5031 500.0968,-142.9715 502.0749,-149.6862"/>
</g>
<!-- processTemplate -->
<g id="node13" class="node">
<title>processTemplate</title>
<ellipse fill="none" stroke="#000000" cx="545.1518" cy="-946.4917" rx="69.306" ry="18"/>
<text text-anchor="middle" x="545.1518" y="-942.2917" font-family="Times,serif" font-size="14.00" fill="#000000">processTemplate</text>
</g>
<!-- options&#45;&gt;processTemplate -->
<g id="edge14" class="edge">
<title>options&#45;&gt;processTemplate</title>
<path fill="none" stroke="#000000" d="M107.0079,-568.1538C171.3869,-639.8513 379.1189,-867.8249 463.3343,-919.4917 470.0578,-923.6166 477.483,-927.1878 485.0357,-930.2584"/>
<polygon fill="#000000" stroke="#000000" points="484.0357,-933.622 494.6273,-933.8841 486.5108,-927.0742 484.0357,-933.622"/>
</g>
<!-- options&#45;&gt;env -->
<g id="edge19" class="edge">
<title>options&#45;&gt;env</title>
<path fill="none" stroke="#000000" d="M110.1492,-567.9615C129.1254,-586.884 156.1854,-615.8295 175.3343,-644.4917 339.4319,-890.1139 241.3886,-1048.5601 463.3343,-1243.4917 475.9646,-1254.5847 493.2732,-1261.1416 508.7186,-1265.0071"/>
<polygon fill="#000000" stroke="#000000" points="508.0113,-1268.4352 518.5314,-1267.1793 509.5243,-1261.6006 508.0113,-1268.4352"/>
</g>
<!-- options&#45;&gt;tempFile -->
<g id="edge24" class="edge">
<title>options&#45;&gt;tempFile</title>
<path fill="none" stroke="#000000" d="M107.2333,-568.2289C125.0443,-588.0484 152.0368,-618.1647 175.3343,-644.4917 304.119,-790.0233 301.3442,-866.1411 463.3343,-973.4917 473.6598,-980.3344 485.8666,-985.5754 497.6571,-989.535"/>
<polygon fill="#000000" stroke="#000000" points="496.8246,-992.9413 507.4128,-992.5667 498.902,-986.2567 496.8246,-992.9413"/>
</g>
<!-- options&#45;&gt;matches -->
<g id="edge27" class="edge">
<title>options&#45;&gt;matches</title>
<path fill="none" stroke="#000000" d="M147.9457,-542.2754C239.5981,-535.8645 412.2198,-523.79 496.4469,-517.8985"/>
<polygon fill="#000000" stroke="#000000" points="496.781,-521.3838 506.5124,-517.1945 496.2925,-514.4009 496.781,-521.3838"/>
</g>
<!-- readlines -->
<g id="node19" class="node">
<title>readlines</title>
<ellipse fill="none" stroke="#000000" cx="545.1518" cy="-1054.4917" rx="42.0524" ry="18"/>
<text text-anchor="middle" x="545.1518" y="-1050.2917" font-family="Times,serif" font-size="14.00" fill="#000000">readlines</text>
</g>
<!-- options&#45;&gt;readlines -->
<g id="edge29" class="edge">
<title>options&#45;&gt;readlines</title>
<path fill="none" stroke="#000000" d="M108.0609,-568.2076C126.1892,-587.7621 153.1754,-617.4941 175.3343,-644.4917 310.4551,-809.1185 290.2932,-903.329 463.3343,-1027.4917 473.3036,-1034.645 485.2848,-1039.9863 496.9648,-1043.9424"/>
<polygon fill="#000000" stroke="#000000" points="496.0664,-1047.3282 506.6545,-1046.949 498.1409,-1040.6426 496.0664,-1047.3282"/>
</g>
<!-- parseCmdLine -->
<g id="node20" class="node">
<title>parseCmdLine</title>
<ellipse fill="none" stroke="#000000" cx="545.1518" cy="-244.4917" rx="62.3407" ry="18"/>
<text text-anchor="middle" x="545.1518" y="-240.2917" font-family="Times,serif" font-size="14.00" fill="#000000">parseCmdLine</text>
</g>
<!-- options&#45;&gt;parseCmdLine -->
<g id="edge30" class="edge">
<title>options&#45;&gt;parseCmdLine</title>
<path fill="none" stroke="#000000" d="M120.649,-527.2682C137.3035,-517.288 157.6703,-504.6621 175.3343,-492.4917 308.1953,-400.9518 320.7213,-346.9445 463.3343,-271.4917 471.4903,-267.1766 480.4664,-263.3734 489.3937,-260.0858"/>
<polygon fill="#000000" stroke="#000000" points="490.7354,-263.3246 499.0206,-256.7211 488.4258,-256.7166 490.7354,-263.3246"/>
</g>
<!-- collectCommand -->
<g id="node21" class="node">
<title>collectCommand</title>
<ellipse fill="none" stroke="#000000" cx="545.1518" cy="-1108.4917" rx="70.5427" ry="18"/>
<text text-anchor="middle" x="545.1518" y="-1104.2917" font-family="Times,serif" font-size="14.00" fill="#000000">collectCommand</text>
</g>
<!-- options&#45;&gt;collectCommand -->
<g id="edge33" class="edge">
<title>options&#45;&gt;collectCommand</title>
<path fill="none" stroke="#000000" d="M108.4728,-567.8801C126.8717,-587.2195 154.0235,-616.8197 175.3343,-644.4917 317.2604,-828.783 278.642,-940.088 463.3343,-1081.4917 469.05,-1085.8677 475.5081,-1089.5526 482.2275,-1092.6516"/>
<polygon fill="#000000" stroke="#000000" points="480.9305,-1095.9029 491.5071,-1096.5242 483.6265,-1089.4428 480.9305,-1095.9029"/>
</g>
<!-- options&#45;&gt;runCommand -->
<g id="edge34" class="edge">
<title>options&#45;&gt;runCommand</title>
<path fill="none" stroke="#000000" d="M148.8909,-549.4359C234.0241,-553.5299 387.6876,-560.9194 476.5751,-565.194"/>
<polygon fill="#000000" stroke="#000000" points="476.6638,-568.7022 486.8204,-565.6866 477.0001,-561.7103 476.6638,-568.7022"/>
</g>
<!-- parseNumber -->
<g id="node24" class="node">
<title>parseNumber</title>
<ellipse fill="none" stroke="#000000" cx="545.1518" cy="-28.4917" rx="57.9892" ry="18"/>
<text text-anchor="middle" x="545.1518" y="-24.2917" font-family="Times,serif" font-size="14.00" fill="#000000">parseNumber</text>
</g>
<!-- options&#45;&gt;parseNumber -->
<g id="edge37" class="edge">
<title>options&#45;&gt;parseNumber</title>
<path fill="none" stroke="#000000" d="M124.7256,-528.4174C141.3877,-519.154 160.5774,-506.8034 175.3343,-492.4917 342.312,-330.5513 278.642,-196.8954 463.3343,-55.4917 470.5735,-49.9493 479.0037,-45.5155 487.6474,-41.9766"/>
<polygon fill="#000000" stroke="#000000" points="488.9095,-45.2415 497.0642,-38.4776 486.4713,-38.6798 488.9095,-45.2415"/>
</g>
<!-- options&#45;&gt;variables -->
<g id="edge40" class="edge">
<title>options&#45;&gt;variables</title>
<path fill="none" stroke="#000000" d="M142.3961,-536.2036C232.5328,-519.2593 410.7691,-485.7536 496.6503,-469.6093"/>
<polygon fill="#000000" stroke="#000000" points="497.4725,-473.0161 506.6537,-467.7288 496.1792,-466.1366 497.4725,-473.0161"/>
</g>
<!-- options&#45;&gt;runFunction -->
<g id="edge46" class="edge">
<title>options&#45;&gt;runFunction</title>
<path fill="none" stroke="#000000" d="M125.0037,-528.4031C191.9381,-496.3126 337.1617,-428.2159 463.3343,-379.4917 473.697,-375.49 484.9329,-371.5377 495.6632,-367.9431"/>
<polygon fill="#000000" stroke="#000000" points="496.9364,-371.2087 505.3359,-364.7513 494.7428,-364.5613 496.9364,-371.2087"/>
</g>
<!-- options&#45;&gt;signatures -->
<g id="edge55" class="edge">
<title>options&#45;&gt;signatures</title>
<path fill="none" stroke="#000000" d="M134.9029,-532.0366C223.1616,-505.0276 412.0369,-447.2277 499.2616,-420.5351"/>
<polygon fill="#000000" stroke="#000000" points="500.3438,-423.8642 508.8818,-417.5911 498.2953,-417.1707 500.3438,-423.8642"/>
</g>
<!-- readjson -->
<g id="node36" class="node">
<title>readjson</title>
<ellipse fill="none" stroke="#000000" cx="545.1518" cy="-892.4917" rx="40.1317" ry="18"/>
<text text-anchor="middle" x="545.1518" y="-888.2917" font-family="Times,serif" font-size="14.00" fill="#000000">readjson</text>
</g>
<!-- options&#45;&gt;readjson -->
<g id="edge59" class="edge">
<title>options&#45;&gt;readjson</title>
<path fill="none" stroke="#000000" d="M107.0893,-567.9613C159.3129,-624.4903 309.2524,-779.0259 463.3343,-865.4917 474.6564,-871.8453 487.7063,-876.9943 500.0109,-881.0252"/>
<polygon fill="#000000" stroke="#000000" points="499.0839,-884.4021 509.6718,-884.0198 501.1565,-877.7159 499.0839,-884.4021"/>
</g>
<!-- options&#45;&gt;replacement -->
<g id="edge62" class="edge">
<title>options&#45;&gt;replacement</title>
<path fill="none" stroke="#000000" d="M109.5038,-567.7706C128.3245,-586.8021 155.5143,-616.0108 175.3343,-644.4917 331.8229,-869.3627 254.0969,-1012.6435 463.3343,-1189.4917 470.7108,-1195.7264 479.5713,-1200.5337 488.698,-1204.2369"/>
<polygon fill="#000000" stroke="#000000" points="487.6601,-1207.5837 498.2542,-1207.7101 490.0512,-1201.0047 487.6601,-1207.5837"/>
</g>
<!-- tables -->
<g id="node5" class="node">
<title>tables</title>
<ellipse fill="none" stroke="#000000" cx="87.6672" cy="-460.4917" rx="50.796" ry="22.7556"/>
<text text-anchor="middle" x="87.6672" y="-453.2917" font-family="Times,serif" font-size="24.00" fill="#000000">tables</text>
</g>
<!-- tables&#45;&gt;parseCommandLine -->
<g id="edge3" class="edge">
<title>tables&#45;&gt;parseCommandLine</title>
<path fill="none" stroke="#000000" d="M130.183,-447.6833C144.8749,-442.5565 161.1901,-436.0569 175.3343,-428.4917 315.2544,-353.6544 322.2624,-290.1345 463.3343,-217.4917 469.917,-214.1021 477.013,-211.0138 484.1777,-208.2371"/>
<polygon fill="#000000" stroke="#000000" points="485.7707,-211.3806 493.9486,-204.6447 483.3551,-204.8105 485.7707,-211.3806"/>
</g>
<!-- tables&#45;&gt;regexes -->
<g id="edge8" class="edge">
<title>tables&#45;&gt;regexes</title>
<path fill="none" stroke="#000000" d="M131.1305,-448.406C145.7463,-443.374 161.7722,-436.7492 175.3343,-428.4917 323.9038,-338.0334 313.3701,-251.6185 463.3343,-163.4917 474.9347,-156.6748 488.4846,-151.3149 501.1817,-147.2297"/>
<polygon fill="#000000" stroke="#000000" points="502.5685,-150.467 511.1282,-144.2234 500.5432,-143.7664 502.5685,-150.467"/>
</g>
<!-- tables&#45;&gt;cmdline -->
<g id="edge10" class="edge">
<title>tables&#45;&gt;cmdline</title>
<path fill="none" stroke="#000000" d="M119.2324,-478.3917C136.2482,-488.4207 157.3777,-501.4963 175.3343,-514.4917 311.0069,-612.6801 317.1549,-675.763 463.3343,-757.4917 474.8724,-763.9427 488.1947,-769.1574 500.6944,-773.2206"/>
<polygon fill="#000000" stroke="#000000" points="499.9056,-776.6397 510.4926,-776.234 501.9633,-769.949 499.9056,-776.6397"/>
</g>
<!-- tables&#45;&gt;processTemplate -->
<g id="edge15" class="edge">
<title>tables&#45;&gt;processTemplate</title>
<path fill="none" stroke="#000000" d="M121.9187,-477.373C139.0944,-486.8387 159.5431,-499.7108 175.3343,-514.4917 336.5867,-665.4277 285.6092,-788.3514 463.3343,-919.4917 469.2921,-923.8879 476.0049,-927.5934 482.9579,-930.7111"/>
<polygon fill="#000000" stroke="#000000" points="481.9581,-934.0828 492.54,-934.6077 484.5951,-927.5985 481.9581,-934.0828"/>
</g>
<!-- tables&#45;&gt;matches -->
<g id="edge26" class="edge">
<title>tables&#45;&gt;matches</title>
<path fill="none" stroke="#000000" d="M137.0607,-466.322C225.4249,-476.7522 409.4823,-498.4778 496.9661,-508.8041"/>
<polygon fill="#000000" stroke="#000000" points="496.8018,-512.3089 507.1432,-510.0053 497.6224,-505.3571 496.8018,-512.3089"/>
</g>
<!-- tables&#45;&gt;parseCmdLine -->
<g id="edge31" class="edge">
<title>tables&#45;&gt;parseCmdLine</title>
<path fill="none" stroke="#000000" d="M128.7649,-446.9174C143.6316,-441.6351 160.4228,-435.2323 175.3343,-428.4917 308.1763,-368.4422 329.5706,-329.459 463.3343,-271.4917 472.3925,-267.5663 482.2183,-263.8703 491.8138,-260.5464"/>
<polygon fill="#000000" stroke="#000000" points="492.9365,-263.8615 501.2955,-257.3517 490.7014,-257.2279 492.9365,-263.8615"/>
</g>
<!-- vartypes -->
<g id="node23" class="node">
<title>vartypes</title>
<ellipse fill="none" stroke="#000000" cx="545.1518" cy="-82.4917" rx="40.1317" ry="18"/>
<text text-anchor="middle" x="545.1518" y="-78.2917" font-family="Times,serif" font-size="14.00" fill="#000000">vartypes</text>
</g>
<!-- tables&#45;&gt;vartypes -->
<g id="edge36" class="edge">
<title>tables&#45;&gt;vartypes</title>
<path fill="none" stroke="#000000" d="M132.0328,-448.9603C146.5609,-443.9995 162.3032,-437.2774 175.3343,-428.4917 333.7109,-321.7125 303.3092,-213.7842 463.3343,-109.4917 474.1123,-102.4674 486.8833,-97.1154 499.0916,-93.1048"/>
<polygon fill="#000000" stroke="#000000" points="500.1693,-96.4354 508.7129,-90.1697 498.1268,-89.74 500.1693,-96.4354"/>
</g>
<!-- tables&#45;&gt;variables -->
<g id="edge41" class="edge">
<title>tables&#45;&gt;variables</title>
<path fill="none" stroke="#000000" d="M138.8148,-460.4917C226.509,-460.4917 404.6318,-460.4917 493.0066,-460.4917"/>
<polygon fill="#000000" stroke="#000000" points="493.0707,-463.9918 503.0706,-460.4917 493.0706,-456.9918 493.0707,-463.9918"/>
</g>
<!-- tables&#45;&gt;tostring -->
<g id="edge43" class="edge">
<title>tables&#45;&gt;tostring</title>
<path fill="none" stroke="#000000" d="M117.8247,-478.7743C134.7943,-489.1352 156.3285,-502.4055 175.3343,-514.4917 304.5257,-596.6477 325.4583,-636.932 463.3343,-703.4917 475.786,-709.5028 489.913,-714.6932 502.8819,-718.8718"/>
<polygon fill="#000000" stroke="#000000" points="501.9386,-722.2437 512.5267,-721.8668 504.0146,-715.5586 501.9386,-722.2437"/>
</g>
<!-- tables&#45;&gt;runFunction -->
<g id="edge47" class="edge">
<title>tables&#45;&gt;runFunction</title>
<path fill="none" stroke="#000000" d="M132.7846,-449.8407C217.6315,-429.8106 400.5843,-386.6203 491.547,-365.1464"/>
<polygon fill="#000000" stroke="#000000" points="492.4507,-368.5294 501.379,-362.8253 490.8423,-361.7166 492.4507,-368.5294"/>
</g>
<!-- tables&#45;&gt;signatures -->
<g id="edge54" class="edge">
<title>tables&#45;&gt;signatures</title>
<path fill="none" stroke="#000000" d="M137.0607,-454.6615C223.491,-444.4595 401.4718,-423.4513 491.0855,-412.8735"/>
<polygon fill="#000000" stroke="#000000" points="491.5217,-416.3464 501.0425,-411.6983 490.7011,-409.3947 491.5217,-416.3464"/>
</g>
<!-- tables&#45;&gt;readjson -->
<g id="edge61" class="edge">
<title>tables&#45;&gt;readjson</title>
<path fill="none" stroke="#000000" d="M121.0789,-477.5976C138.228,-487.2101 158.9082,-500.1466 175.3343,-514.4917 327.3252,-647.2275 296.9263,-751.3498 463.3343,-865.4917 473.9434,-872.7687 486.659,-878.2036 498.8681,-882.2128"/>
<polygon fill="#000000" stroke="#000000" points="497.9159,-885.5814 508.5011,-885.1305 499.945,-878.8819 497.9159,-885.5814"/>
</g>
<!-- re -->
<g id="node8" class="node">
<title>re</title>
<polygon fill="#98fb98" stroke="#000000" points="114.6672,-126.3499 114.6672,-146.6336 98.8509,-160.9764 76.4834,-160.9764 60.6672,-146.6336 60.6672,-126.3499 76.4834,-112.0071 98.8509,-112.0071 114.6672,-126.3499"/>
<polygon fill="none" stroke="#000000" points="118.6672,-124.5783 118.6672,-148.4052 100.3948,-164.9752 74.9395,-164.9752 56.6672,-148.4052 56.6672,-124.5783 74.9395,-108.0083 100.3948,-108.0083 118.6672,-124.5783"/>
<text text-anchor="middle" x="87.6672" y="-129.2917" font-family="Times,serif" font-size="24.00" fill="#000000">re</text>
</g>
<!-- re&#45;&gt;regexes -->
<g id="edge6" class="edge">
<title>re&#45;&gt;regexes</title>
<path fill="none" stroke="#000000" d="M118.7523,-136.4917C197.2583,-136.4917 403.9214,-136.4917 497.683,-136.4917"/>
<polygon fill="#000000" stroke="#000000" points="497.739,-139.9918 507.7389,-136.4917 497.7389,-132.9918 497.739,-139.9918"/>
</g>
<!-- os -->
<g id="node10" class="node">
<title>os</title>
<ellipse fill="none" stroke="#000000" cx="87.6672" cy="-938.4917" rx="27" ry="22.7556"/>
<text text-anchor="middle" x="87.6672" y="-931.2917" font-family="Times,serif" font-size="24.00" fill="#000000">os</text>
</g>
<!-- os&#45;&gt;statictea -->
<g id="edge66" class="edge">
<title>os&#45;&gt;statictea</title>
<path fill="none" stroke="#000000" d="M113.0668,-946.4855C130.8213,-952.3802 154.9118,-960.9985 175.3343,-970.4917 309.1066,-1032.6749 328.607,-1075.4056 463.3343,-1135.4917 475.5149,-1140.9241 489.1359,-1145.8477 501.7163,-1149.9579"/>
<polygon fill="#000000" stroke="#000000" points="500.9448,-1153.385 511.5351,-1153.0741 503.0623,-1146.713 500.9448,-1153.385"/>
</g>
<!-- os&#45;&gt;cmdline -->
<g id="edge9" class="edge">
<title>os&#45;&gt;cmdline</title>
<path fill="none" stroke="#000000" d="M112.7053,-929.9573C173.0086,-909.4177 331.1028,-855.6609 463.3343,-811.4917 476.4487,-807.1111 490.7598,-802.3738 503.6935,-798.1084"/>
<polygon fill="#000000" stroke="#000000" points="504.8703,-801.4059 513.2729,-794.9524 502.6798,-794.7574 504.8703,-801.4059"/>
</g>
<!-- os&#45;&gt;processTemplate -->
<g id="edge13" class="edge">
<title>os&#45;&gt;processTemplate</title>
<path fill="none" stroke="#000000" d="M114.9149,-938.9682C182.6772,-940.1532 360.8607,-943.2691 465.4426,-945.0979"/>
<polygon fill="#000000" stroke="#000000" points="465.5789,-948.6007 475.6386,-945.2762 465.7014,-941.6018 465.5789,-948.6007"/>
</g>
<!-- os&#45;&gt;env -->
<g id="edge17" class="edge">
<title>os&#45;&gt;env</title>
<path fill="none" stroke="#000000" d="M113.865,-945.0059C131.9856,-950.2219 156.1856,-958.6373 175.3343,-970.4917 325.2922,-1063.3271 311.9447,-1153.0099 463.3343,-1243.4917 477.4176,-1251.9089 494.4528,-1258.0699 509.3248,-1262.3629"/>
<polygon fill="#000000" stroke="#000000" points="508.6452,-1265.8048 519.2124,-1265.0412 510.4754,-1259.0483 508.6452,-1265.8048"/>
</g>
<!-- os&#45;&gt;tempFile -->
<g id="edge21" class="edge">
<title>os&#45;&gt;tempFile</title>
<path fill="none" stroke="#000000" d="M114.5769,-942.1387C189.0509,-952.2316 398.7403,-980.6495 495.3172,-993.738"/>
<polygon fill="#000000" stroke="#000000" points="495.0322,-997.2313 505.4117,-995.106 495.9723,-990.2947 495.0322,-997.2313"/>
</g>
<!-- os&#45;&gt;runFunction -->
<g id="edge50" class="edge">
<title>os&#45;&gt;runFunction</title>
<path fill="none" stroke="#000000" d="M105.5424,-921.1759C124.0614,-902.7836 153.3204,-872.4265 175.3343,-843.4917 322.2978,-650.3251 272.64,-529.6493 463.3343,-379.4917 471.0098,-373.4479 480.0943,-368.7305 489.3692,-365.0562"/>
<polygon fill="#000000" stroke="#000000" points="490.8155,-368.2561 499.0526,-361.5928 488.458,-361.665 490.8155,-368.2561"/>
</g>
<!-- os&#45;&gt;readjson -->
<g id="edge58" class="edge">
<title>os&#45;&gt;readjson</title>
<path fill="none" stroke="#000000" d="M114.5769,-935.786C189.1433,-928.2883 399.2608,-907.1611 495.6762,-897.4665"/>
<polygon fill="#000000" stroke="#000000" points="496.1509,-900.9365 505.7506,-896.4535 495.4506,-893.9716 496.1509,-900.9365"/>
</g>
<!-- streams -->
<g id="node12" class="node">
<title>streams</title>
<ellipse fill="none" stroke="#000000" cx="87.6672" cy="-1089.4917" rx="63.3073" ry="22.7556"/>
<text text-anchor="middle" x="87.6672" y="-1082.2917" font-family="Times,serif" font-size="24.00" fill="#000000">streams</text>
</g>
<!-- streams&#45;&gt;processTemplate -->
<g id="edge12" class="edge">
<title>streams&#45;&gt;processTemplate</title>
<path fill="none" stroke="#000000" d="M135.3314,-1074.5929C221.0286,-1047.8058 400.5876,-991.6794 490.8729,-963.4582"/>
<polygon fill="#000000" stroke="#000000" points="492.1402,-966.7291 500.6405,-960.405 490.0517,-960.0479 492.1402,-966.7291"/>
</g>
<!-- streams&#45;&gt;env -->
<g id="edge16" class="edge">
<title>streams&#45;&gt;env</title>
<path fill="none" stroke="#000000" d="M127.882,-1107.0683C196.2328,-1136.6953 339.6914,-1197.8118 463.3343,-1243.4917 478.8385,-1249.2198 496.2019,-1255.0334 510.9309,-1259.7915"/>
<polygon fill="#000000" stroke="#000000" points="510.0608,-1263.1878 520.6518,-1262.9029 512.1947,-1256.521 510.0608,-1263.1878"/>
</g>
<!-- streams&#45;&gt;readlines -->
<g id="edge28" class="edge">
<title>streams&#45;&gt;readlines</title>
<path fill="none" stroke="#000000" d="M149.8417,-1084.7351C240.8372,-1077.7734 408.6429,-1064.9354 493.3486,-1058.455"/>
<polygon fill="#000000" stroke="#000000" points="493.7984,-1061.9309 503.5022,-1057.6782 493.2643,-1054.9513 493.7984,-1061.9309"/>
</g>
<!-- streams&#45;&gt;collectCommand -->
<g id="edge32" class="edge">
<title>streams&#45;&gt;collectCommand</title>
<path fill="none" stroke="#000000" d="M150.7981,-1092.1137C232.6974,-1095.5151 375.6462,-1101.4519 465.0865,-1105.1665"/>
<polygon fill="#000000" stroke="#000000" points="465.0458,-1108.6677 475.1824,-1105.5858 465.3363,-1101.6738 465.0458,-1108.6677"/>
</g>
<!-- streams&#45;&gt;readjson -->
<g id="edge57" class="edge">
<title>streams&#45;&gt;readjson</title>
<path fill="none" stroke="#000000" d="M124.6962,-1071.1451C191.4441,-1038.4338 336.7814,-968.8468 463.3343,-919.4917 475.7599,-914.6458 489.4552,-909.9002 502.0284,-905.7728"/>
<polygon fill="#000000" stroke="#000000" points="503.3874,-909.0119 511.8257,-902.6051 501.2339,-902.3513 503.3874,-909.0119"/>
</g>
<!-- streams&#45;&gt;replacement -->
<g id="edge63" class="edge">
<title>streams&#45;&gt;replacement</title>
<path fill="none" stroke="#000000" d="M137.9347,-1103.4463C225.6584,-1127.7988 405.7556,-1177.7947 494.0566,-1202.3075"/>
<polygon fill="#000000" stroke="#000000" points="493.2744,-1205.7226 503.8462,-1205.0251 495.1469,-1198.9777 493.2744,-1205.7226"/>
</g>
<!-- times -->
<g id="node15" class="node">
<title>times</title>
<polygon fill="#98fb98" stroke="#000000" points="139.7481,-1270.3499 139.7481,-1290.6336 109.2398,-1304.9764 66.0945,-1304.9764 35.5862,-1290.6336 35.5862,-1270.3499 66.0945,-1256.0071 109.2398,-1256.0071 139.7481,-1270.3499"/>
<polygon fill="none" stroke="#000000" points="143.7511,-1267.8122 143.7511,-1293.1712 110.1347,-1308.9752 65.1997,-1308.9752 31.5832,-1293.1712 31.5832,-1267.8122 65.1997,-1252.0083 110.1347,-1252.0083 143.7511,-1267.8122"/>
<text text-anchor="middle" x="87.6672" y="-1273.2917" font-family="Times,serif" font-size="24.00" fill="#000000">times</text>
</g>
<!-- times&#45;&gt;env -->
<g id="edge18" class="edge">
<title>times&#45;&gt;env</title>
<path fill="none" stroke="#000000" d="M143.7638,-1279.2655C238.5268,-1277.1942 427.8019,-1273.0569 507.9369,-1271.3052"/>
<polygon fill="#000000" stroke="#000000" points="508.1311,-1274.8019 518.0522,-1271.0841 507.978,-1267.8036 508.1311,-1274.8019"/>
</g>
<!-- random -->
<g id="node17" class="node">
<title>random</title>
<polygon fill="#98fb98" stroke="#000000" points="155.889,-997.3499 155.889,-1017.6336 115.9256,-1031.9764 59.4087,-1031.9764 19.4453,-1017.6336 19.4453,-997.3499 59.4087,-983.0071 115.9256,-983.0071 155.889,-997.3499"/>
<polygon fill="none" stroke="#000000" points="159.8811,-994.5349 159.8811,-1020.4486 116.6191,-1035.9752 58.7152,-1035.9752 15.4532,-1020.4486 15.4532,-994.5349 58.7152,-979.0083 116.6191,-979.0083 159.8811,-994.5349"/>
<text text-anchor="middle" x="87.6672" y="-1000.2917" font-family="Times,serif" font-size="24.00" fill="#000000">random</text>
</g>
<!-- random&#45;&gt;tempFile -->
<g id="edge22" class="edge">
<title>random&#45;&gt;tempFile</title>
<path fill="none" stroke="#000000" d="M159.9045,-1006.3864C252.7469,-1004.9658 411.6729,-1002.5341 493.3462,-1001.2844"/>
<polygon fill="#000000" stroke="#000000" points="493.4453,-1004.7834 503.3905,-1001.1307 493.3381,-997.7842 493.4453,-1004.7834"/>
</g>
<!-- parseutils -->
<g id="node25" class="node">
<title>parseutils</title>
<polygon fill="#98fb98" stroke="#000000" points="170.4501,-18.3499 170.4501,-38.6336 121.957,-52.9764 53.3774,-52.9764 4.8843,-38.6336 4.8843,-18.3499 53.3774,-4.0071 121.957,-4.0071 170.4501,-18.3499"/>
<polygon fill="none" stroke="#000000" points="174.4567,-15.3642 174.4567,-41.6193 122.5382,-56.9752 52.7962,-56.9752 .8776,-41.6193 .8776,-15.3642 52.7962,-.0083 122.5382,-.0083 174.4567,-15.3642"/>
<text text-anchor="middle" x="87.6672" y="-21.2917" font-family="Times,serif" font-size="24.00" fill="#000000">parseutils</text>
</g>
<!-- parseutils&#45;&gt;parseNumber -->
<g id="edge38" class="edge">
<title>parseutils&#45;&gt;parseNumber</title>
<path fill="none" stroke="#000000" d="M174.5237,-28.4917C262.4986,-28.4917 396.7505,-28.4917 477.235,-28.4917"/>
<polygon fill="#000000" stroke="#000000" points="477.2591,-31.9918 487.2591,-28.4917 477.259,-24.9918 477.2591,-31.9918"/>
</g>
<!-- json -->
<g id="node28" class="node">
<title>json</title>
<ellipse fill="none" stroke="#ff0000" cx="87.6672" cy="-811.4917" rx="39.7073" ry="22.7556"/>
<text text-anchor="middle" x="87.6672" y="-804.2917" font-family="Times,serif" font-size="24.00" fill="#000000">json</text>
</g>
<!-- json&#45;&gt;tostring -->
<g id="edge44" class="edge">
<title>json&#45;&gt;tostring</title>
<path fill="none" stroke="#ff0000" d="M125.8852,-804.725C209.9414,-789.8425 410.512,-754.3304 500.3254,-738.4285"/>
<polygon fill="#ff0000" stroke="#ff0000" points="500.9663,-741.8695 510.2029,-736.6796 499.7459,-734.9767 500.9663,-741.8695"/>
</g>
<!-- json&#45;&gt;readjson -->
<g id="edge60" class="edge">
<title>json&#45;&gt;readjson</title>
<path fill="none" stroke="#ff0000" d="M125.8852,-818.2584C209.1142,-832.9946 406.5761,-867.9562 497.6421,-884.0799"/>
<polygon fill="#ff0000" stroke="#ff0000" points="497.2272,-887.5608 507.6843,-885.8579 498.4477,-880.668 497.2272,-887.5608"/>
</g>
<!-- math -->
<g id="node31" class="node">
<title>math</title>
<polygon fill="#98fb98" stroke="#000000" points="136.6181,-381.3499 136.6181,-401.6336 107.9433,-415.9764 67.391,-415.9764 38.7162,-401.6336 38.7162,-381.3499 67.391,-367.0071 107.9433,-367.0071 136.6181,-381.3499"/>
<polygon fill="none" stroke="#000000" points="140.6162,-378.8787 140.6162,-404.1048 108.8873,-419.9752 66.447,-419.9752 34.7181,-404.1048 34.7181,-378.8787 66.447,-363.0083 108.8873,-363.0083 140.6162,-378.8787"/>
<text text-anchor="middle" x="87.6672" y="-384.2917" font-family="Times,serif" font-size="24.00" fill="#000000">math</text>
</g>
<!-- math&#45;&gt;runFunction -->
<g id="edge49" class="edge">
<title>math&#45;&gt;runFunction</title>
<path fill="none" stroke="#000000" d="M141.0418,-386.9416C226.2635,-379.6766 392.6482,-365.4925 483.0645,-357.7846"/>
<polygon fill="#000000" stroke="#000000" points="483.5043,-361.2599 493.1709,-356.9231 482.9097,-354.2852 483.5043,-361.2599"/>
</g>
<!-- algorithm -->
<g id="node32" class="node">
<title>algorithm</title>
<polygon fill="#98fb98" stroke="#000000" points="171.4941,-306.3499 171.4941,-326.6336 122.3894,-340.9764 52.9449,-340.9764 3.8402,-326.6336 3.8402,-306.3499 52.9449,-292.0071 122.3894,-292.0071 171.4941,-306.3499"/>
<polygon fill="none" stroke="#000000" points="175.5018,-303.3538 175.5018,-329.6297 122.964,-344.9752 52.3704,-344.9752 -.1675,-329.6297 -.1675,-303.3538 52.3704,-288.0083 122.964,-288.0083 175.5018,-303.3538"/>
<text text-anchor="middle" x="87.6672" y="-309.2917" font-family="Times,serif" font-size="24.00" fill="#000000">algorithm</text>
</g>
<!-- algorithm&#45;&gt;runFunction -->
<g id="edge51" class="edge">
<title>algorithm&#45;&gt;runFunction</title>
<path fill="none" stroke="#000000" d="M175.604,-323.4116C265.6479,-330.4973 403.3345,-341.332 482.7586,-347.5819"/>
<polygon fill="#000000" stroke="#000000" points="482.8509,-351.0999 493.0947,-348.3953 483.4001,-344.1215 482.8509,-351.0999"/>
</g>
<!-- unicode -->
<g id="node33" class="node">
<title>unicode</title>
<polygon fill="#98fb98" stroke="#000000" points="157.9587,-231.3499 157.9587,-251.6336 116.7829,-265.9764 58.5514,-265.9764 17.3756,-251.6336 17.3756,-231.3499 58.5514,-217.0071 116.7829,-217.0071 157.9587,-231.3499"/>
<polygon fill="none" stroke="#000000" points="161.953,-228.5072 161.953,-254.4763 117.4579,-269.9752 57.8764,-269.9752 13.3814,-254.4763 13.3814,-228.5072 57.8764,-213.0083 117.4579,-213.0083 161.953,-228.5072"/>
<text text-anchor="middle" x="87.6672" y="-234.2917" font-family="Times,serif" font-size="24.00" fill="#000000">unicode</text>
</g>
<!-- unicode&#45;&gt;unicodes -->
<g id="edge52" class="edge">
<title>unicode&#45;&gt;unicodes</title>
<path fill="none" stroke="#000000" d="M162.1882,-250.7766C255.8415,-262.4453 414.0556,-282.1579 494.6667,-292.2016"/>
<polygon fill="#000000" stroke="#000000" points="494.6863,-295.731 505.0423,-293.4943 495.5518,-288.7847 494.6863,-295.731"/>
</g>
<!-- strformat -->
<g id="node38" class="node">
<title>strformat</title>
<polygon fill="#98fb98" stroke="#000000" points="167.318,-1195.3499 167.318,-1215.6336 120.6596,-1229.9764 54.6747,-1229.9764 8.0163,-1215.6336 8.0163,-1195.3499 54.6747,-1181.0071 120.6596,-1181.0071 167.318,-1195.3499"/>
<polygon fill="none" stroke="#000000" points="171.3217,-1192.3967 171.3217,-1218.5868 121.2618,-1233.9752 54.0725,-1233.9752 4.0126,-1218.5868 4.0126,-1192.3967 54.0725,-1177.0083 121.2618,-1177.0083 171.3217,-1192.3967"/>
<text text-anchor="middle" x="87.6672" y="-1198.2917" font-family="Times,serif" font-size="24.00" fill="#000000">strformat</text>
</g>
<!-- strformat&#45;&gt;replacement -->
<g id="edge64" class="edge">
<title>strformat&#45;&gt;replacement</title>
<path fill="none" stroke="#000000" d="M171.3108,-1207.5029C260.82,-1209.6551 400.8139,-1213.0212 481.6822,-1214.9656"/>
<polygon fill="#000000" stroke="#000000" points="481.6441,-1218.4656 491.7254,-1215.2071 481.8124,-1211.4677 481.6441,-1218.4656"/>
</g>
</g>
</svg>
