<?xml version="1.0" encoding="UTF-8" standalone="no"?>
<!DOCTYPE svg PUBLIC "-//W3C//DTD SVG 1.1//EN"
 "http://www.w3.org/Graphics/SVG/1.1/DTD/svg11.dtd">
<!-- Generated by graphviz version 2.40.1 (20161225.0304)
 -->
<!-- Title: statictea Pages: 1 -->
<svg width="1712pt" height="548pt"
 viewBox="0.00 0.00 1712.00 548.00" xmlns="http://www.w3.org/2000/svg" xmlns:xlink="http://www.w3.org/1999/xlink">
<g id="graph0" class="graph" transform="scale(1 1) rotate(0) translate(4 544)">
<title>statictea</title>
<polygon fill="#ffffff" stroke="transparent" points="-4,4 -4,-544 1708,-544 1708,4 -4,4"/>
<!-- runFunction -->
<g id="node1" class="node">
<title>runFunction</title>
<g id="a_node1"><a xlink:href="runFunction.md" xlink:title="runFunction.md">
<ellipse fill="#cdb79e" stroke="#000000" cx="509" cy="-306" rx="53.1797" ry="18"/>
<text text-anchor="middle" x="509" y="-301.8" font-family="Times,serif" font-size="14.00" fill="#000000">runFunction</text>
</a>
</g>
</g>
<!-- parseNumber -->
<g id="node2" class="node">
<title>parseNumber</title>
<g id="a_node2"><a xlink:href="parseNumber.md" xlink:title="parseNumber.md">
<ellipse fill="#7fffd4" stroke="#000000" cx="656" cy="-234" rx="57.9892" ry="18"/>
<text text-anchor="middle" x="656" y="-229.8" font-family="Times,serif" font-size="14.00" fill="#000000">parseNumber</text>
</a>
</g>
</g>
<!-- runFunction&#45;&gt;parseNumber -->
<g id="edge46" class="edge">
<title>runFunction&#45;&gt;parseNumber</title>
<path fill="none" stroke="#000000" d="M539.4585,-291.0816C561.5081,-280.2817 591.5371,-265.5737 615.5906,-253.7924"/>
<polygon fill="#000000" stroke="#000000" points="617.3798,-256.8134 624.8209,-249.2714 614.3007,-250.5269 617.3798,-256.8134"/>
</g>
<!-- regexes -->
<g id="node3" class="node">
<title>regexes</title>
<g id="a_node3"><a xlink:href="regexes.md" xlink:title="regexes.md">
<ellipse fill="#7fffd4" stroke="#000000" cx="920" cy="-162" rx="37.2248" ry="18"/>
<text text-anchor="middle" x="920" y="-157.8" font-family="Times,serif" font-size="14.00" fill="#000000">regexes</text>
</a>
</g>
</g>
<!-- runFunction&#45;&gt;regexes -->
<g id="edge45" class="edge">
<title>runFunction&#45;&gt;regexes</title>
<path fill="none" stroke="#000000" d="M513.1849,-287.8655C519.0189,-266.961 531.7268,-233.2704 556,-216 606.0213,-180.4098 786.0875,-167.8227 872.7488,-163.7589"/>
<polygon fill="#000000" stroke="#000000" points="873.0067,-167.251 882.8391,-163.3046 872.6918,-160.258 873.0067,-167.251"/>
</g>
<!-- vartypes -->
<g id="node8" class="node">
<title>vartypes</title>
<g id="a_node8"><a xlink:href="vartypes.md" xlink:title="vartypes.md">
<ellipse fill="#cdb79e" stroke="#000000" cx="426" cy="-234" rx="40.1317" ry="18"/>
<text text-anchor="middle" x="426" y="-229.8" font-family="Times,serif" font-size="14.00" fill="#000000">vartypes</text>
</a>
</g>
</g>
<!-- runFunction&#45;&gt;vartypes -->
<g id="edge44" class="edge">
<title>runFunction&#45;&gt;vartypes</title>
<path fill="none" stroke="#000000" d="M489.3302,-288.937C478.2408,-279.3173 464.2441,-267.1756 452.2311,-256.7547"/>
<polygon fill="#000000" stroke="#000000" points="454.5211,-254.1078 444.6737,-250.1989 449.9341,-259.3955 454.5211,-254.1078"/>
</g>
<!-- warnings -->
<g id="node12" class="node">
<title>warnings</title>
<g id="a_node12"><a xlink:href="warnings.md" xlink:title="warnings.md">
<ellipse fill="#cdb79e" stroke="#000000" cx="468" cy="-90" rx="42.5542" ry="18"/>
<text text-anchor="middle" x="468" y="-85.8" font-family="Times,serif" font-size="14.00" fill="#000000">warnings</text>
</a>
</g>
</g>
<!-- runFunction&#45;&gt;warnings -->
<g id="edge43" class="edge">
<title>runFunction&#45;&gt;warnings</title>
<path fill="none" stroke="#000000" d="M505.5749,-287.9555C498.43,-250.3144 481.8919,-163.1867 473.3385,-118.1246"/>
<polygon fill="#000000" stroke="#000000" points="476.7477,-117.3169 471.4442,-108.1451 469.8705,-118.6224 476.7477,-117.3169"/>
</g>
<!-- matches -->
<g id="node17" class="node">
<title>matches</title>
<g id="a_node17"><a xlink:href="matches.md" xlink:title="matches.md">
<ellipse fill="#cdb79e" stroke="#000000" cx="969" cy="-234" rx="39.1627" ry="18"/>
<text text-anchor="middle" x="969" y="-229.8" font-family="Times,serif" font-size="14.00" fill="#000000">matches</text>
</a>
</g>
</g>
<!-- runFunction&#45;&gt;matches -->
<g id="edge47" class="edge">
<title>runFunction&#45;&gt;matches</title>
<path fill="none" stroke="#000000" d="M557.7926,-298.3629C646.7595,-284.4376 834.2374,-255.0933 921.9216,-241.3688"/>
<polygon fill="#000000" stroke="#000000" points="922.5168,-244.8183 931.8552,-239.814 921.4342,-237.9025 922.5168,-244.8183"/>
</g>
<!-- parseCmdLine -->
<g id="node4" class="node">
<title>parseCmdLine</title>
<g id="a_node4"><a xlink:href="parseCmdLine.md" xlink:title="parseCmdLine.md">
<ellipse fill="#cdb79e" stroke="#000000" cx="908" cy="-306" rx="62.3407" ry="18"/>
<text text-anchor="middle" x="908" y="-301.8" font-family="Times,serif" font-size="14.00" fill="#000000">parseCmdLine</text>
</a>
</g>
</g>
<!-- parseCmdLine&#45;&gt;regexes -->
<g id="edge19" class="edge">
<title>parseCmdLine&#45;&gt;regexes</title>
<path fill="none" stroke="#000000" d="M909.5198,-287.7623C911.5666,-263.201 915.2294,-219.2474 917.6372,-190.3541"/>
<polygon fill="#000000" stroke="#000000" points="921.1499,-190.3458 918.4925,-180.0896 914.1741,-189.7644 921.1499,-190.3458"/>
</g>
<!-- env -->
<g id="node5" class="node">
<title>env</title>
<g id="a_node5"><a xlink:href="env.md" xlink:title="env.md">
<ellipse fill="#cdb79e" stroke="#000000" cx="1188" cy="-162" rx="27" ry="18"/>
<text text-anchor="middle" x="1188" y="-157.8" font-family="Times,serif" font-size="14.00" fill="#000000">env</text>
</a>
</g>
</g>
<!-- parseCmdLine&#45;&gt;env -->
<g id="edge18" class="edge">
<title>parseCmdLine&#45;&gt;env</title>
<path fill="none" stroke="#000000" d="M940.0589,-290.3741C961.8289,-279.7003 991.234,-265.1605 1017,-252 1066.5662,-226.6832 1123.705,-196.3819 1157.7849,-178.1891"/>
<polygon fill="#000000" stroke="#000000" points="1159.59,-181.1929 1166.7602,-173.393 1156.2909,-175.0191 1159.59,-181.1929"/>
</g>
<!-- parseCmdLine&#45;&gt;warnings -->
<g id="edge20" class="edge">
<title>parseCmdLine&#45;&gt;warnings</title>
<path fill="none" stroke="#000000" d="M901.0093,-288.0765C886.6459,-253.8383 850.3508,-179.3975 794,-144 749.3679,-115.9637 600.8525,-100.3541 520.5775,-93.7764"/>
<polygon fill="#000000" stroke="#000000" points="520.4408,-90.2543 510.1933,-92.9447 519.8819,-97.2319 520.4408,-90.2543"/>
</g>
<!-- parseCmdLine&#45;&gt;matches -->
<g id="edge21" class="edge">
<title>parseCmdLine&#45;&gt;matches</title>
<path fill="none" stroke="#000000" d="M923.0787,-288.2022C930.5759,-279.3531 939.7601,-268.5127 947.9395,-258.8583"/>
<polygon fill="#000000" stroke="#000000" points="950.7211,-260.9896 954.5149,-251.0972 945.3802,-256.4646 950.7211,-260.9896"/>
</g>
<!-- tempFile -->
<g id="node7" class="node">
<title>tempFile</title>
<g id="a_node7"><a xlink:href="tempFile.md" xlink:title="tempFile.md">
<ellipse fill="#7fffd4" stroke="#000000" cx="1166" cy="-90" rx="41.5938" ry="18"/>
<text text-anchor="middle" x="1166" y="-85.8" font-family="Times,serif" font-size="14.00" fill="#000000">tempFile</text>
</a>
</g>
</g>
<!-- env&#45;&gt;tempFile -->
<g id="edge5" class="edge">
<title>env&#45;&gt;tempFile</title>
<path fill="none" stroke="#000000" d="M1182.5618,-144.2022C1180.1211,-136.2146 1177.1847,-126.6045 1174.4665,-117.7087"/>
<polygon fill="#000000" stroke="#000000" points="1177.7979,-116.6339 1171.5285,-108.0931 1171.1035,-118.6794 1177.7979,-116.6339"/>
</g>
<!-- env&#45;&gt;warnings -->
<g id="edge6" class="edge">
<title>env&#45;&gt;warnings</title>
<path fill="none" stroke="#000000" d="M1161.0892,-159.3089C1054.6165,-148.6616 661.7156,-109.3716 519.6699,-95.167"/>
<polygon fill="#000000" stroke="#000000" points="519.7842,-91.6611 509.4856,-94.1486 519.0876,-98.6263 519.7842,-91.6611"/>
</g>
<!-- args -->
<g id="node16" class="node">
<title>args</title>
<g id="a_node16"><a xlink:href="args.md" xlink:title="args.md">
<ellipse fill="#7fffd4" stroke="#000000" cx="1336" cy="-90" rx="27" ry="18"/>
<text text-anchor="middle" x="1336" y="-85.8" font-family="Times,serif" font-size="14.00" fill="#000000">args</text>
</a>
</g>
</g>
<!-- env&#45;&gt;args -->
<g id="edge7" class="edge">
<title>env&#45;&gt;args</title>
<path fill="none" stroke="#000000" d="M1209.8379,-151.3762C1234.9778,-139.1459 1276.4601,-118.9654 1304.9508,-105.105"/>
<polygon fill="#000000" stroke="#000000" points="1306.6113,-108.1895 1314.0725,-100.6674 1303.549,-101.8948 1306.6113,-108.1895"/>
</g>
<!-- variables -->
<g id="node6" class="node">
<title>variables</title>
<g id="a_node6"><a xlink:href="variables.md" xlink:title="variables.md">
<ellipse fill="#cdb79e" stroke="#000000" cx="320" cy="-306" rx="42.0524" ry="18"/>
<text text-anchor="middle" x="320" y="-301.8" font-family="Times,serif" font-size="14.00" fill="#000000">variables</text>
</a>
</g>
</g>
<!-- variables&#45;&gt;vartypes -->
<g id="edge39" class="edge">
<title>variables&#45;&gt;vartypes</title>
<path fill="none" stroke="#000000" d="M342.4799,-290.7307C357.7983,-280.3257 378.2765,-266.4159 395.1215,-254.9741"/>
<polygon fill="#000000" stroke="#000000" points="397.247,-257.7615 403.5525,-249.2473 393.3137,-251.9709 397.247,-257.7615"/>
</g>
<!-- variables&#45;&gt;warnings -->
<g id="edge41" class="edge">
<title>variables&#45;&gt;warnings</title>
<path fill="none" stroke="#000000" d="M330.6185,-288.5442C341.8407,-270.2624 360.2053,-240.8126 377,-216 400.9479,-180.6192 430.0826,-140.8054 448.8276,-115.5761"/>
<polygon fill="#000000" stroke="#000000" points="451.8318,-117.402 454.999,-107.2916 446.2182,-113.2201 451.8318,-117.402"/>
</g>
<!-- version -->
<g id="node18" class="node">
<title>version</title>
<g id="a_node18"><a xlink:href="version.md" xlink:title="version.md">
<ellipse fill="#7fffd4" stroke="#000000" cx="294" cy="-234" rx="36.2818" ry="18"/>
<text text-anchor="middle" x="294" y="-229.8" font-family="Times,serif" font-size="14.00" fill="#000000">version</text>
</a>
</g>
</g>
<!-- variables&#45;&gt;version -->
<g id="edge40" class="edge">
<title>variables&#45;&gt;version</title>
<path fill="none" stroke="#000000" d="M313.573,-288.2022C310.6667,-280.1541 307.1657,-270.4588 303.933,-261.5067"/>
<polygon fill="#000000" stroke="#000000" points="307.1316,-260.0593 300.4431,-251.8425 300.5477,-262.4369 307.1316,-260.0593"/>
</g>
<!-- vartypes&#45;&gt;env -->
<g id="edge34" class="edge">
<title>vartypes&#45;&gt;env</title>
<path fill="none" stroke="#000000" d="M464.8393,-229.4892C497.849,-225.7086 546.5072,-220.2612 589,-216 801.5813,-194.6824 1057.006,-172.9447 1150.9814,-165.077"/>
<polygon fill="#000000" stroke="#000000" points="1151.4419,-168.5508 1161.1156,-164.2299 1150.8588,-161.5751 1151.4419,-168.5508"/>
</g>
<!-- vartypes&#45;&gt;warnings -->
<g id="edge35" class="edge">
<title>vartypes&#45;&gt;warnings</title>
<path fill="none" stroke="#000000" d="M431.2344,-216.0535C438.4024,-191.4774 451.3456,-147.1008 459.8049,-118.0974"/>
<polygon fill="#000000" stroke="#000000" points="463.2596,-118.7527 462.6996,-108.1727 456.5396,-116.7927 463.2596,-118.7527"/>
</g>
<!-- tpub -->
<g id="node9" class="node">
<title>tpub</title>
<g id="a_node9"><a xlink:href="tpub.md" xlink:title="tpub.md">
<ellipse fill="#7fffd4" stroke="#000000" cx="742" cy="-18" rx="27" ry="18"/>
<text text-anchor="middle" x="742" y="-13.8" font-family="Times,serif" font-size="14.00" fill="#000000">tpub</text>
</a>
</g>
</g>
<!-- replacement -->
<g id="node10" class="node">
<title>replacement</title>
<g id="a_node10"><a xlink:href="replacement.md" xlink:title="replacement.md">
<ellipse fill="#cdb79e" stroke="#000000" cx="998" cy="-378" rx="53.1281" ry="18"/>
<text text-anchor="middle" x="998" y="-373.8" font-family="Times,serif" font-size="14.00" fill="#000000">replacement</text>
</a>
</g>
</g>
<!-- replacement&#45;&gt;parseNumber -->
<g id="edge61" class="edge">
<title>replacement&#45;&gt;parseNumber</title>
<path fill="none" stroke="#000000" d="M946.885,-372.8779C898.3172,-366.478 824.2578,-352.6615 766,-324 732.4781,-307.508 700.131,-279.0426 679.2948,-258.5355"/>
<polygon fill="#000000" stroke="#000000" points="681.6972,-255.9879 672.1582,-251.3772 676.7399,-260.9301 681.6972,-255.9879"/>
</g>
<!-- replacement&#45;&gt;regexes -->
<g id="edge52" class="edge">
<title>replacement&#45;&gt;regexes</title>
<path fill="none" stroke="#000000" d="M1006.7963,-360.0002C1020.8403,-328.4508 1044.1216,-262.1397 1017,-216 1005.1112,-195.7746 982.5984,-182.5744 962.2523,-174.2913"/>
<polygon fill="#000000" stroke="#000000" points="963.3911,-170.9801 952.7995,-170.7174 960.9156,-177.5277 963.3911,-170.9801"/>
</g>
<!-- replacement&#45;&gt;parseCmdLine -->
<g id="edge55" class="edge">
<title>replacement&#45;&gt;parseCmdLine</title>
<path fill="none" stroke="#000000" d="M977.126,-361.3008C965.3693,-351.8954 950.4932,-339.9946 937.5555,-329.6444"/>
<polygon fill="#000000" stroke="#000000" points="939.381,-326.6226 929.3858,-323.1086 935.0081,-332.0887 939.381,-326.6226"/>
</g>
<!-- replacement&#45;&gt;env -->
<g id="edge53" class="edge">
<title>replacement&#45;&gt;env</title>
<path fill="none" stroke="#000000" d="M1043.425,-368.3752C1070.5308,-360.5299 1103.8705,-346.8882 1126,-324 1162.2324,-286.5254 1177.8128,-225.6651 1184.1042,-190.1759"/>
<polygon fill="#000000" stroke="#000000" points="1187.6035,-190.4657 1185.7711,-180.0306 1180.6961,-189.3308 1187.6035,-190.4657"/>
</g>
<!-- replacement&#45;&gt;variables -->
<g id="edge59" class="edge">
<title>replacement&#45;&gt;variables</title>
<path fill="none" stroke="#000000" d="M945.4519,-374.8563C842.9055,-368.3428 609.0774,-351.6302 414,-324 398.8952,-321.8606 382.5342,-318.9405 367.7608,-316.0749"/>
<polygon fill="#000000" stroke="#000000" points="368.3107,-312.6159 357.8217,-314.11 366.953,-319.483 368.3107,-312.6159"/>
</g>
<!-- replacement&#45;&gt;tempFile -->
<g id="edge60" class="edge">
<title>replacement&#45;&gt;tempFile</title>
<path fill="none" stroke="#000000" d="M1032.9405,-364.2222C1051.6068,-355.2705 1073.6337,-341.9093 1088,-324 1101.3023,-307.4171 1140.9001,-175.7633 1157.995,-117.5357"/>
<polygon fill="#000000" stroke="#000000" points="1161.3704,-118.4629 1160.8203,-107.8823 1154.6522,-116.4966 1161.3704,-118.4629"/>
</g>
<!-- replacement&#45;&gt;vartypes -->
<g id="edge54" class="edge">
<title>replacement&#45;&gt;vartypes</title>
<path fill="none" stroke="#000000" d="M945.2837,-374.4917C811.0555,-365.3385 465.6136,-340.3131 447,-324 429.8166,-308.9403 425.2523,-282.7856 424.585,-262.5396"/>
<polygon fill="#000000" stroke="#000000" points="428.0843,-262.2836 424.5522,-252.2949 421.0844,-262.3061 428.0843,-262.2836"/>
</g>
<!-- replacement&#45;&gt;tpub -->
<g id="edge62" class="edge">
<title>replacement&#45;&gt;tpub</title>
<path fill="none" stroke="#000000" d="M1014.4909,-360.4874C1036.8431,-334.8417 1074,-284.6001 1074,-234 1074,-234 1074,-234 1074,-162 1074,-98.0047 863.7577,-44.6719 777.8848,-25.5573"/>
<polygon fill="#000000" stroke="#000000" points="778.5695,-22.1243 768.0515,-23.3974 777.0678,-28.9613 778.5695,-22.1243"/>
</g>
<!-- readlines -->
<g id="node11" class="node">
<title>readlines</title>
<g id="a_node11"><a xlink:href="readlines.md" xlink:title="readlines.md">
<ellipse fill="#7fffd4" stroke="#000000" cx="1220" cy="-306" rx="42.0524" ry="18"/>
<text text-anchor="middle" x="1220" y="-301.8" font-family="Times,serif" font-size="14.00" fill="#000000">readlines</text>
</a>
</g>
</g>
<!-- replacement&#45;&gt;readlines -->
<g id="edge56" class="edge">
<title>replacement&#45;&gt;readlines</title>
<path fill="none" stroke="#000000" d="M1036.6694,-365.4586C1075.8043,-352.7662 1136.1853,-333.1832 1176.8522,-319.9939"/>
<polygon fill="#000000" stroke="#000000" points="1178.0539,-323.2837 1186.4864,-316.8693 1175.8944,-316.6251 1178.0539,-323.2837"/>
</g>
<!-- replacement&#45;&gt;warnings -->
<g id="edge58" class="edge">
<title>replacement&#45;&gt;warnings</title>
<path fill="none" stroke="#000000" d="M952.7092,-368.4151C919.1398,-360.0165 873.1384,-345.7114 837,-324 777.1734,-288.0572 780.2597,-255.9053 723,-216 653.1605,-167.3276 561.7472,-127.0705 509.4853,-105.9662"/>
<polygon fill="#000000" stroke="#000000" points="510.4694,-102.5903 499.8847,-102.1273 507.8704,-109.09 510.4694,-102.5903"/>
</g>
<!-- replacement&#45;&gt;matches -->
<g id="edge57" class="edge">
<title>replacement&#45;&gt;matches</title>
<path fill="none" stroke="#000000" d="M994.3271,-359.7623C989.359,-335.0928 980.4509,-290.8598 974.6335,-261.9731"/>
<polygon fill="#000000" stroke="#000000" points="978.0485,-261.2018 972.643,-252.0896 971.1863,-262.5838 978.0485,-261.2018"/>
</g>
<!-- warnings&#45;&gt;tpub -->
<g id="edge3" class="edge">
<title>warnings&#45;&gt;tpub</title>
<path fill="none" stroke="#000000" d="M504.3851,-80.439C557.3373,-66.5245 654.9831,-40.8658 707.0904,-27.1733"/>
<polygon fill="#000000" stroke="#000000" points="708.0958,-30.528 716.878,-24.6014 706.3168,-23.7579 708.0958,-30.528"/>
</g>
<!-- collectCommand -->
<g id="node13" class="node">
<title>collectCommand</title>
<g id="a_node13"><a xlink:href="collectCommand.md" xlink:title="collectCommand.md">
<ellipse fill="#cdb79e" stroke="#000000" cx="1220" cy="-378" rx="70.5427" ry="18"/>
<text text-anchor="middle" x="1220" y="-373.8" font-family="Times,serif" font-size="14.00" fill="#000000">collectCommand</text>
</a>
</g>
</g>
<!-- collectCommand&#45;&gt;parseCmdLine -->
<g id="edge26" class="edge">
<title>collectCommand&#45;&gt;parseCmdLine</title>
<path fill="none" stroke="#000000" d="M1167.4263,-365.8676C1111.8877,-353.051 1024.5177,-332.8887 966.748,-319.5572"/>
<polygon fill="#000000" stroke="#000000" points="967.2067,-316.0712 956.6757,-317.2329 965.6326,-322.8919 967.2067,-316.0712"/>
</g>
<!-- collectCommand&#45;&gt;env -->
<g id="edge23" class="edge">
<title>collectCommand&#45;&gt;env</title>
<path fill="none" stroke="#000000" d="M1251.2334,-361.8073C1265.2135,-352.7437 1280.2653,-340.0192 1288,-324 1294.9569,-309.5916 1293.2668,-303.1083 1288,-288 1273.0687,-245.1682 1236.8301,-205.9665 1212.3318,-183.0301"/>
<polygon fill="#000000" stroke="#000000" points="1214.5735,-180.3373 1204.8323,-176.1708 1209.8491,-185.5026 1214.5735,-180.3373"/>
</g>
<!-- collectCommand&#45;&gt;readlines -->
<g id="edge25" class="edge">
<title>collectCommand&#45;&gt;readlines</title>
<path fill="none" stroke="#000000" d="M1220,-359.8314C1220,-352.131 1220,-342.9743 1220,-334.4166"/>
<polygon fill="#000000" stroke="#000000" points="1223.5001,-334.4132 1220,-324.4133 1216.5001,-334.4133 1223.5001,-334.4132"/>
</g>
<!-- collectCommand&#45;&gt;matches -->
<g id="edge24" class="edge">
<title>collectCommand&#45;&gt;matches</title>
<path fill="none" stroke="#000000" d="M1241.9614,-360.582C1263.3358,-341.5425 1290.0203,-310.723 1271,-288 1239.4098,-250.2602 1096.0436,-238.8676 1018.7478,-235.4498"/>
<polygon fill="#000000" stroke="#000000" points="1018.4338,-231.9339 1008.298,-235.0185 1018.1451,-238.928 1018.4338,-231.9339"/>
</g>
<!-- statictea -->
<g id="node14" class="node">
<title>statictea</title>
<g id="a_node14"><a xlink:href="statictea.md" xlink:title="statictea.md">
<ellipse fill="#cdb79e" stroke="#000000" cx="1442" cy="-522" rx="39.154" ry="18"/>
<text text-anchor="middle" x="1442" y="-517.8" font-family="Times,serif" font-size="14.00" fill="#000000">statictea</text>
</a>
</g>
</g>
<!-- statictea&#45;&gt;env -->
<g id="edge76" class="edge">
<title>statictea&#45;&gt;env</title>
<path fill="none" stroke="#000000" d="M1463.4556,-506.8976C1475.1807,-497.275 1488.5885,-483.6858 1495,-468 1501.0538,-453.1895 1500.0596,-447.1789 1495,-432 1456.7982,-317.3946 1429.1057,-285.0785 1330,-216 1287.7993,-186.5853 1267.0878,-200.7091 1220,-180 1219.1576,-179.6295 1218.3084,-179.2436 1217.456,-178.8451"/>
<polygon fill="#000000" stroke="#000000" points="1218.8539,-175.6297 1208.352,-174.2289 1215.6881,-181.873 1218.8539,-175.6297"/>
</g>
<!-- statictea&#45;&gt;warnings -->
<g id="edge72" class="edge">
<title>statictea&#45;&gt;warnings</title>
<path fill="none" stroke="#000000" d="M1402.8434,-521.7324C1268.6685,-520.4219 815.2436,-512.741 444,-468 244.0999,-443.9087 0,-579.3466 0,-378 0,-378 0,-378 0,-234 0,-187.1222 15.6893,-169.5382 55,-144 113.3608,-106.0858 317.4495,-94.6579 415.1261,-91.3211"/>
<polygon fill="#000000" stroke="#000000" points="415.4865,-94.8113 425.3673,-90.9877 415.2587,-87.815 415.4865,-94.8113"/>
</g>
<!-- showhelp -->
<g id="node15" class="node">
<title>showhelp</title>
<g id="a_node15"><a xlink:href="showhelp.md" xlink:title="showhelp.md">
<ellipse fill="#cdb79e" stroke="#000000" cx="1442" cy="-450" rx="44.0078" ry="18"/>
<text text-anchor="middle" x="1442" y="-445.8" font-family="Times,serif" font-size="14.00" fill="#000000">showhelp</text>
</a>
</g>
</g>
<!-- statictea&#45;&gt;showhelp -->
<g id="edge74" class="edge">
<title>statictea&#45;&gt;showhelp</title>
<path fill="none" stroke="#000000" d="M1442,-503.8314C1442,-496.131 1442,-486.9743 1442,-478.4166"/>
<polygon fill="#000000" stroke="#000000" points="1445.5001,-478.4132 1442,-468.4133 1438.5001,-478.4133 1445.5001,-478.4132"/>
</g>
<!-- statictea&#45;&gt;args -->
<g id="edge71" class="edge">
<title>statictea&#45;&gt;args</title>
<path fill="none" stroke="#000000" d="M1480.3776,-518.5054C1553.1507,-509.5487 1704,-478.8228 1704,-378 1704,-378 1704,-378 1704,-234 1704,-182.2151 1674.624,-170.275 1630,-144 1586.8262,-118.5789 1441.5257,-100.7853 1372.7177,-93.575"/>
<polygon fill="#000000" stroke="#000000" points="1373.0559,-90.0914 1362.7499,-92.5487 1372.3388,-97.0546 1373.0559,-90.0914"/>
</g>
<!-- statictea&#45;&gt;version -->
<g id="edge75" class="edge">
<title>statictea&#45;&gt;version</title>
<path fill="none" stroke="#000000" d="M1403.1759,-519.7907C1214.1418,-508.7584 395.3368,-457.7066 301,-396 257.8997,-367.8077 244.3946,-337.3875 259,-288 262.0415,-277.7152 267.7238,-267.5503 273.6385,-258.8616"/>
<polygon fill="#000000" stroke="#000000" points="276.508,-260.8665 279.5415,-250.7152 270.8397,-256.7591 276.508,-260.8665"/>
</g>
<!-- parseCommandLine -->
<g id="node20" class="node">
<title>parseCommandLine</title>
<g id="a_node20"><a xlink:href="parseCommandLine.md" xlink:title="parseCommandLine.md">
<ellipse fill="#cdb79e" stroke="#000000" cx="1556" cy="-234" rx="81.6354" ry="18"/>
<text text-anchor="middle" x="1556" y="-229.8" font-family="Times,serif" font-size="14.00" fill="#000000">parseCommandLine</text>
</a>
</g>
</g>
<!-- statictea&#45;&gt;parseCommandLine -->
<g id="edge10" class="edge">
<title>statictea&#45;&gt;parseCommandLine</title>
<path fill="none" stroke="#000000" d="M1474.0226,-511.3134C1494.1351,-502.8462 1518.7045,-488.9131 1532,-468 1572.8564,-403.735 1566.926,-308.9352 1560.6914,-262.1831"/>
<polygon fill="#000000" stroke="#000000" points="1564.1392,-261.5693 1559.2509,-252.1696 1557.2105,-262.5661 1564.1392,-261.5693"/>
</g>
<!-- processTemplate -->
<g id="node21" class="node">
<title>processTemplate</title>
<g id="a_node21"><a xlink:href="processTemplate.md" xlink:title="processTemplate.md">
<ellipse fill="#cdb79e" stroke="#000000" cx="998" cy="-450" rx="69.306" ry="18"/>
<text text-anchor="middle" x="998" y="-445.8" font-family="Times,serif" font-size="14.00" fill="#000000">processTemplate</text>
</a>
</g>
</g>
<!-- statictea&#45;&gt;processTemplate -->
<g id="edge70" class="edge">
<title>statictea&#45;&gt;processTemplate</title>
<path fill="none" stroke="#000000" d="M1404.9085,-515.9852C1330.6048,-503.9359 1162.4901,-476.6741 1067.2329,-461.227"/>
<polygon fill="#000000" stroke="#000000" points="1067.5497,-457.7327 1057.1184,-459.5868 1066.4292,-464.6424 1067.5497,-457.7327"/>
</g>
<!-- showhelp&#45;&gt;env -->
<g id="edge73" class="edge">
<title>showhelp&#45;&gt;env</title>
<path fill="none" stroke="#000000" d="M1435.5746,-432.1649C1419.2663,-389.2254 1372.2932,-279.0009 1299,-216 1269.7394,-190.8483 1254.4013,-197.474 1220,-180 1219.1795,-179.5832 1218.3498,-179.1562 1217.5145,-178.7215"/>
<polygon fill="#000000" stroke="#000000" points="1218.982,-175.5366 1208.5175,-173.8793 1215.6645,-181.7005 1218.982,-175.5366"/>
</g>
<!-- matches&#45;&gt;regexes -->
<g id="edge15" class="edge">
<title>matches&#45;&gt;regexes</title>
<path fill="none" stroke="#000000" d="M957.1385,-216.5708C951.2401,-207.9038 943.9958,-197.2592 937.4764,-187.6796"/>
<polygon fill="#000000" stroke="#000000" points="940.2721,-185.5666 931.7523,-179.2687 934.4851,-189.505 940.2721,-185.5666"/>
</g>
<!-- matches&#45;&gt;args -->
<g id="edge14" class="edge">
<title>matches&#45;&gt;args</title>
<path fill="none" stroke="#000000" d="M993.8419,-220.0729C1028.4759,-201.0558 1093.6024,-166.7354 1152,-144 1202.3344,-124.4038 1262.7747,-107.9566 1300.2934,-98.538"/>
<polygon fill="#000000" stroke="#000000" points="1301.3769,-101.8754 1310.2403,-96.0711 1299.6918,-95.0813 1301.3769,-101.8754"/>
</g>
<!-- readjson -->
<g id="node19" class="node">
<title>readjson</title>
<g id="a_node19"><a xlink:href="readjson.md" xlink:title="readjson.md">
<ellipse fill="#cdb79e" stroke="#000000" cx="106" cy="-306" rx="40.1317" ry="18"/>
<text text-anchor="middle" x="106" y="-301.8" font-family="Times,serif" font-size="14.00" fill="#000000">readjson</text>
</a>
</g>
</g>
<!-- readjson&#45;&gt;env -->
<g id="edge65" class="edge">
<title>readjson&#45;&gt;env</title>
<path fill="none" stroke="#000000" d="M124.7435,-289.6818C150.6411,-268.2581 199.7695,-231.5504 249,-216 401.1254,-167.9482 806.8084,-190.4477 966,-180 1031.054,-175.7305 1106.7104,-169.2774 1150.7875,-165.3687"/>
<polygon fill="#000000" stroke="#000000" points="1151.3728,-168.8305 1161.0226,-164.4564 1150.7513,-161.8582 1151.3728,-168.8305"/>
</g>
<!-- readjson&#45;&gt;vartypes -->
<g id="edge67" class="edge">
<title>readjson&#45;&gt;vartypes</title>
<path fill="none" stroke="#000000" d="M142.086,-297.8806C200.5787,-284.7198 316.0015,-258.7497 380.1989,-244.3052"/>
<polygon fill="#000000" stroke="#000000" points="381.0581,-247.6995 390.0458,-242.0897 379.5214,-240.8702 381.0581,-247.6995"/>
</g>
<!-- readjson&#45;&gt;tpub -->
<g id="edge66" class="edge">
<title>readjson&#45;&gt;tpub</title>
<path fill="none" stroke="#000000" d="M100.1852,-287.9576C90.6606,-254.512 76.3212,-182.7739 114,-144 197.2084,-58.3732 582.7072,-27.7408 704.8053,-20.0911"/>
<polygon fill="#000000" stroke="#000000" points="705.0284,-23.5841 714.796,-19.48 704.6009,-16.5972 705.0284,-23.5841"/>
</g>
<!-- readjson&#45;&gt;warnings -->
<g id="edge64" class="edge">
<title>readjson&#45;&gt;warnings</title>
<path fill="none" stroke="#000000" d="M103.839,-287.8413C100.9456,-254.2019 100.1412,-182.1539 140,-144 178.5805,-107.0698 332.8225,-95.3134 415.3168,-91.6339"/>
<polygon fill="#000000" stroke="#000000" points="415.6496,-95.123 425.4932,-91.2047 415.3546,-88.1293 415.6496,-95.123"/>
</g>
<!-- readjson&#45;&gt;args -->
<g id="edge68" class="edge">
<title>readjson&#45;&gt;args</title>
<path fill="none" stroke="#000000" d="M114.0512,-288.2586C124.7011,-267.0707 145.6168,-232.4356 175,-216 378.1719,-102.3551 986.07,-137.4165 1217,-108 1244.8053,-104.4581 1276.1464,-99.6855 1299.6824,-95.9447"/>
<polygon fill="#000000" stroke="#000000" points="1300.2611,-99.3967 1309.5817,-94.359 1299.154,-92.4848 1300.2611,-99.3967"/>
</g>
<!-- parseCommandLine&#45;&gt;regexes -->
<g id="edge9" class="edge">
<title>parseCommandLine&#45;&gt;regexes</title>
<path fill="none" stroke="#000000" d="M1483.0427,-225.7407C1350.9187,-210.7832 1075.5964,-179.6147 966.2303,-167.2336"/>
<polygon fill="#000000" stroke="#000000" points="966.5052,-163.7425 956.1749,-166.0953 965.7177,-170.698 966.5052,-163.7425"/>
</g>
<!-- parseCommandLine&#45;&gt;env -->
<g id="edge8" class="edge">
<title>parseCommandLine&#45;&gt;env</title>
<path fill="none" stroke="#000000" d="M1494.8192,-222.0298C1417.5721,-206.9163 1287.1745,-181.4037 1224.193,-169.0812"/>
<polygon fill="#000000" stroke="#000000" points="1224.808,-165.6353 1214.322,-167.15 1223.4639,-172.505 1224.808,-165.6353"/>
</g>
<!-- parseCommandLine&#45;&gt;tpub -->
<g id="edge1" class="edge">
<title>parseCommandLine&#45;&gt;tpub</title>
<path fill="none" stroke="#000000" d="M1542.7359,-216.1066C1515.4073,-180.8717 1448.8999,-103.2168 1372,-72 1263.3916,-27.9114 897.5767,-19.8022 779.2566,-18.3251"/>
<polygon fill="#000000" stroke="#000000" points="779.2738,-14.8252 769.2338,-18.2087 779.1924,-21.8247 779.2738,-14.8252"/>
</g>
<!-- parseCommandLine&#45;&gt;warnings -->
<g id="edge4" class="edge">
<title>parseCommandLine&#45;&gt;warnings</title>
<path fill="none" stroke="#000000" d="M1511.2402,-218.8898C1448.0372,-198.241 1328.6561,-161.7511 1224,-144 1088.2823,-120.9804 669.4175,-99.5178 520.8936,-92.4437"/>
<polygon fill="#000000" stroke="#000000" points="520.8291,-88.9368 510.6746,-91.9594 520.4977,-95.929 520.8291,-88.9368"/>
</g>
<!-- parseCommandLine&#45;&gt;args -->
<g id="edge2" class="edge">
<title>parseCommandLine&#45;&gt;args</title>
<path fill="none" stroke="#000000" d="M1529.8992,-216.9158C1488.1385,-189.5815 1406.6578,-136.2487 1363.8294,-108.2156"/>
<polygon fill="#000000" stroke="#000000" points="1365.589,-105.1843 1355.3052,-102.6361 1361.7554,-111.0412 1365.589,-105.1843"/>
</g>
<!-- processTemplate&#45;&gt;parseCmdLine -->
<g id="edge22" class="edge">
<title>processTemplate&#45;&gt;parseCmdLine</title>
<path fill="none" stroke="#000000" d="M972.6416,-433.0923C960.0404,-423.534 945.5135,-410.5862 936,-396 923.7624,-377.2371 916.6061,-352.8053 912.5961,-334.1327"/>
<polygon fill="#000000" stroke="#000000" points="915.9981,-333.2931 910.6319,-324.1577 909.13,-334.6456 915.9981,-333.2931"/>
</g>
<!-- processTemplate&#45;&gt;env -->
<g id="edge13" class="edge">
<title>processTemplate&#45;&gt;env</title>
<path fill="none" stroke="#000000" d="M1062.9829,-443.439C1151.2173,-433.8658 1299.8541,-415.1188 1316,-396 1369.2052,-332.9983 1324.8691,-278.435 1271,-216 1262.9783,-206.7028 1238.0622,-190.9657 1217.6054,-178.8716"/>
<polygon fill="#000000" stroke="#000000" points="1219.2854,-175.7995 1208.8859,-173.7744 1215.7527,-181.8427 1219.2854,-175.7995"/>
</g>
<!-- processTemplate&#45;&gt;variables -->
<g id="edge50" class="edge">
<title>processTemplate&#45;&gt;variables</title>
<path fill="none" stroke="#000000" d="M931.5264,-444.6933C851.6233,-437.4746 713.8182,-422.3423 598,-396 511.8486,-376.4053 414.2515,-341.8173 360.655,-321.7053"/>
<polygon fill="#000000" stroke="#000000" points="361.7639,-318.3828 351.1721,-318.1252 359.2915,-324.9317 361.7639,-318.3828"/>
</g>
<!-- processTemplate&#45;&gt;vartypes -->
<g id="edge51" class="edge">
<title>processTemplate&#45;&gt;vartypes</title>
<path fill="none" stroke="#000000" d="M928.9323,-448.1966C827.4182,-444.3638 632.4778,-432.4919 471,-396 378.034,-374.9909 323.9278,-401.8909 269,-324 259.7791,-310.9242 259.7065,-301.0243 269,-288 282.1082,-269.6295 337.9215,-253.5286 379.2922,-243.7941"/>
<polygon fill="#000000" stroke="#000000" points="380.2364,-247.1685 389.199,-241.5184 378.6692,-240.3462 380.2364,-247.1685"/>
</g>
<!-- processTemplate&#45;&gt;replacement -->
<g id="edge63" class="edge">
<title>processTemplate&#45;&gt;replacement</title>
<path fill="none" stroke="#000000" d="M998,-431.8314C998,-424.131 998,-414.9743 998,-406.4166"/>
<polygon fill="#000000" stroke="#000000" points="1001.5001,-406.4132 998,-396.4133 994.5001,-406.4133 1001.5001,-406.4132"/>
</g>
<!-- processTemplate&#45;&gt;readlines -->
<g id="edge17" class="edge">
<title>processTemplate&#45;&gt;readlines</title>
<path fill="none" stroke="#000000" d="M1023.9007,-433.1995C1064.6697,-406.7548 1143.7161,-355.4815 1187.9847,-326.7666"/>
<polygon fill="#000000" stroke="#000000" points="1190.1302,-329.5469 1196.6151,-321.1686 1186.3208,-323.6741 1190.1302,-329.5469"/>
</g>
<!-- processTemplate&#45;&gt;warnings -->
<g id="edge12" class="edge">
<title>processTemplate&#45;&gt;warnings</title>
<path fill="none" stroke="#000000" d="M929.2558,-447.5219C743.262,-440.5365 239.3153,-419.6487 168,-396 101.2989,-373.8814 38,-376.2728 38,-306 38,-306 38,-306 38,-234 38,-181.646 68.32,-169.5788 114,-144 164.6917,-115.6148 330.0564,-99.8935 415.6314,-93.4746"/>
<polygon fill="#000000" stroke="#000000" points="415.9422,-96.9613 425.6588,-92.7377 415.4291,-89.9802 415.9422,-96.9613"/>
</g>
<!-- processTemplate&#45;&gt;collectCommand -->
<g id="edge27" class="edge">
<title>processTemplate&#45;&gt;collectCommand</title>
<path fill="none" stroke="#000000" d="M1041.5952,-435.861C1077.2972,-424.282 1127.9719,-407.8469 1166.196,-395.45"/>
<polygon fill="#000000" stroke="#000000" points="1167.693,-398.644 1176.1254,-392.2296 1165.5334,-391.9854 1167.693,-398.644"/>
</g>
<!-- processTemplate&#45;&gt;args -->
<g id="edge11" class="edge">
<title>processTemplate&#45;&gt;args</title>
<path fill="none" stroke="#000000" d="M1064.813,-445.0542C1134.6761,-438.5935 1246.9012,-424.5536 1340,-396 1484.0842,-351.809 1566.1677,-379.1976 1647,-252 1714.6661,-145.5208 1468.9869,-105.2745 1372.9264,-93.8047"/>
<polygon fill="#000000" stroke="#000000" points="1373.1136,-90.3032 1362.7784,-92.6342 1372.3114,-97.2571 1373.1136,-90.3032"/>
</g>
<!-- processTemplate&#45;&gt;matches -->
<g id="edge16" class="edge">
<title>processTemplate&#45;&gt;matches</title>
<path fill="none" stroke="#000000" d="M1066.8057,-447.6045C1146.5722,-443.2105 1270.8555,-430.8181 1300,-396 1310.2699,-383.7309 1301.3197,-375.9455 1300,-360 1297.3242,-327.6691 1310.9104,-310.9687 1288,-288 1250.986,-250.8918 1098.4132,-239.1896 1018.4338,-235.5722"/>
<polygon fill="#000000" stroke="#000000" points="1018.2572,-232.0616 1008.1171,-235.1323 1017.9589,-239.0552 1018.2572,-232.0616"/>
</g>
<!-- processTemplate&#45;&gt;readjson -->
<g id="edge69" class="edge">
<title>processTemplate&#45;&gt;readjson</title>
<path fill="none" stroke="#000000" d="M929.2057,-447.2044C754.03,-439.7913 300.3942,-418.6444 236,-396 195.2848,-381.6824 155.5454,-351.0036 130.941,-329.4611"/>
<polygon fill="#000000" stroke="#000000" points="132.9866,-326.5953 123.1975,-322.5425 128.3226,-331.8153 132.9866,-326.5953"/>
</g>
<!-- runCommand -->
<g id="node22" class="node">
<title>runCommand</title>
<g id="a_node22"><a xlink:href="runCommand.md" xlink:title="runCommand.md">
<ellipse fill="#cdb79e" stroke="#000000" cx="666" cy="-378" rx="58.9841" ry="18"/>
<text text-anchor="middle" x="666" y="-373.8" font-family="Times,serif" font-size="14.00" fill="#000000">runCommand</text>
</a>
</g>
</g>
<!-- processTemplate&#45;&gt;runCommand -->
<g id="edge49" class="edge">
<title>processTemplate&#45;&gt;runCommand</title>
<path fill="none" stroke="#000000" d="M944.6585,-438.432C884.3213,-425.3468 786.3858,-404.1078 724.1374,-390.6081"/>
<polygon fill="#000000" stroke="#000000" points="724.6004,-387.1272 714.0858,-388.4282 723.1168,-393.9682 724.6004,-387.1272"/>
</g>
<!-- runCommand&#45;&gt;runFunction -->
<g id="edge48" class="edge">
<title>runCommand&#45;&gt;runFunction</title>
<path fill="none" stroke="#000000" d="M633.0877,-362.9064C608.9028,-351.8153 575.8834,-336.6726 549.9858,-324.7961"/>
<polygon fill="#000000" stroke="#000000" points="551.3452,-321.569 540.7964,-320.5818 548.4271,-327.9318 551.3452,-321.569"/>
</g>
<!-- runCommand&#45;&gt;parseNumber -->
<g id="edge38" class="edge">
<title>runCommand&#45;&gt;parseNumber</title>
<path fill="none" stroke="#000000" d="M660.0302,-359.7319C656.9592,-349.3756 653.5437,-336.105 652,-324 649.3662,-303.3459 650.5533,-279.8351 652.2997,-262.0239"/>
<polygon fill="#000000" stroke="#000000" points="655.7874,-262.3262 653.3989,-252.0041 648.8292,-261.5627 655.7874,-262.3262"/>
</g>
<!-- runCommand&#45;&gt;regexes -->
<g id="edge32" class="edge">
<title>runCommand&#45;&gt;regexes</title>
<path fill="none" stroke="#000000" d="M646.4436,-360.9834C612.6245,-329.5463 550.3762,-261.4355 589,-216 607.2097,-194.5788 786.363,-174.7421 873.2346,-166.293"/>
<polygon fill="#000000" stroke="#000000" points="873.7352,-169.7611 883.3542,-165.3197 873.065,-162.7932 873.7352,-169.7611"/>
</g>
<!-- runCommand&#45;&gt;parseCmdLine -->
<g id="edge28" class="edge">
<title>runCommand&#45;&gt;parseCmdLine</title>
<path fill="none" stroke="#000000" d="M708.1532,-365.4586C748.8181,-353.3599 810.5271,-335.0002 854.6073,-321.8854"/>
<polygon fill="#000000" stroke="#000000" points="855.7028,-325.2112 864.2895,-319.0048 853.7066,-318.5018 855.7028,-325.2112"/>
</g>
<!-- runCommand&#45;&gt;env -->
<g id="edge33" class="edge">
<title>runCommand&#45;&gt;env</title>
<path fill="none" stroke="#000000" d="M683.1686,-360.3877C705.7189,-337.4975 744.394,-299.1335 761,-288 887.6148,-203.1113 1072.5749,-174.236 1150.8324,-165.4515"/>
<polygon fill="#000000" stroke="#000000" points="1151.5813,-168.8912 1161.1495,-164.3416 1150.8325,-161.9314 1151.5813,-168.8912"/>
</g>
<!-- runCommand&#45;&gt;variables -->
<g id="edge42" class="edge">
<title>runCommand&#45;&gt;variables</title>
<path fill="none" stroke="#000000" d="M612.9096,-370.1884C554.4222,-361.1029 457.8008,-344.6737 376,-324 371.6498,-322.9006 367.1433,-321.6483 362.6622,-320.3281"/>
<polygon fill="#000000" stroke="#000000" points="363.5501,-316.9396 352.9637,-317.3621 361.5029,-323.6336 363.5501,-316.9396"/>
</g>
<!-- runCommand&#45;&gt;vartypes -->
<g id="edge36" class="edge">
<title>runCommand&#45;&gt;vartypes</title>
<path fill="none" stroke="#000000" d="M608.7654,-373.9063C542.1039,-367.8084 438.0152,-353.7065 414,-324 399.8422,-306.487 405.2234,-280.4919 412.7449,-260.9357"/>
<polygon fill="#000000" stroke="#000000" points="416.001,-262.2216 416.6565,-251.6471 409.5497,-259.5048 416.001,-262.2216"/>
</g>
<!-- runCommand&#45;&gt;tpub -->
<g id="edge31" class="edge">
<title>runCommand&#45;&gt;tpub</title>
<path fill="none" stroke="#000000" d="M676.5804,-359.9485C689.9704,-336.1202 712.5461,-292.4469 723,-252 741.7036,-179.6347 743.3607,-90.8726 742.7959,-46.3372"/>
<polygon fill="#000000" stroke="#000000" points="746.294,-46.194 742.6191,-36.257 739.2951,-46.3168 746.294,-46.194"/>
</g>
<!-- runCommand&#45;&gt;readlines -->
<g id="edge29" class="edge">
<title>runCommand&#45;&gt;readlines</title>
<path fill="none" stroke="#000000" d="M720.1285,-370.9652C827.3702,-357.0277 1065.4474,-326.0863 1169.5867,-312.5519"/>
<polygon fill="#000000" stroke="#000000" points="1170.0693,-316.0187 1179.5348,-311.259 1169.1671,-309.0771 1170.0693,-316.0187"/>
</g>
<!-- runCommand&#45;&gt;warnings -->
<g id="edge37" class="edge">
<title>runCommand&#45;&gt;warnings</title>
<path fill="none" stroke="#000000" d="M608.6855,-373.6787C504.8904,-365.3516 294.1558,-345.9532 269,-324 232.2201,-291.9025 224.5601,-258.2576 249,-216 285.8268,-152.3251 368.3773,-118.0053 420.947,-101.9048"/>
<polygon fill="#000000" stroke="#000000" points="422.1203,-105.2078 430.7174,-99.0159 420.1354,-98.4951 422.1203,-105.2078"/>
</g>
<!-- runCommand&#45;&gt;matches -->
<g id="edge30" class="edge">
<title>runCommand&#45;&gt;matches</title>
<path fill="none" stroke="#000000" d="M694.3199,-362.0188C727.8963,-343.3243 785.769,-311.8935 837,-288 867.4434,-273.8016 902.6918,-259.4862 929.1025,-249.1655"/>
<polygon fill="#000000" stroke="#000000" points="930.7084,-252.2966 938.7634,-245.4142 928.1746,-245.7713 930.7084,-252.2966"/>
</g>
</g>
</svg>
