<?xml version="1.0" encoding="UTF-8" standalone="no"?>
<!DOCTYPE svg PUBLIC "-//W3C//DTD SVG 1.1//EN"
 "http://www.w3.org/Graphics/SVG/1.1/DTD/svg11.dtd">
<!-- Generated by graphviz version 7.0.1 (20221109.1506)
 -->
<!-- Title: statictea Pages: 1 -->
<svg width="3601pt" height="1731pt"
 viewBox="0.00 0.00 3601.40 1731.30" xmlns="http://www.w3.org/2000/svg" xmlns:xlink="http://www.w3.org/1999/xlink">
<g id="graph0" class="graph" transform="scale(1 1) rotate(0) translate(4 1727.3)">
<title>statictea</title>
<polygon fill="white" stroke="none" points="-4,4 -4,-1727.3 3597.4,-1727.3 3597.4,4 -4,4"/>
<!-- args -->
<g id="node1" class="node">
<title>args</title>
<g id="a_node1"><a xlink:href="args.md" xlink:title="args.md">
<ellipse fill="palegoldenrod" stroke="black" cx="989.36" cy="-467" rx="39.7" ry="24.08"/>
<text text-anchor="middle" x="989.36" y="-460.8" font-family="Times,serif" font-size="24.00">args</text>
</a>
</g>
</g>
<!-- messages -->
<g id="node9" class="node">
<title>messages</title>
<g id="a_node9"><a xlink:href="messages.md" xlink:title="messages.md">
<polygon fill="palegreen" stroke="black" points="1738.61,-35.21 1738.61,-56.79 1691.01,-72.04 1623.7,-72.04 1576.11,-56.79 1576.11,-35.21 1623.7,-19.96 1691.01,-19.96 1738.61,-35.21"/>
<polygon fill="none" stroke="black" points="1742.62,-32.29 1742.62,-59.71 1691.64,-76.04 1623.08,-76.04 1572.1,-59.71 1572.1,-32.29 1623.08,-15.96 1691.64,-15.96 1742.62,-32.29"/>
<text text-anchor="middle" x="1657.36" y="-39.8" font-family="Times,serif" font-size="24.00">messages</text>
</a>
</g>
</g>
<!-- args&#45;&gt;messages -->
<g id="edge1" class="edge">
<title>args&#45;&gt;messages</title>
<path fill="none" stroke="black" d="M984.84,-442.73C975.3,-386.11 959.81,-240.04 1035.36,-161.98 1106.56,-88.41 1404.01,-61.01 1560.36,-51.56"/>
<polygon fill="black" stroke="black" points="1560.54,-55.05 1570.32,-50.97 1560.13,-48.07 1560.54,-55.05"/>
</g>
<!-- opresultwarn -->
<g id="node12" class="node">
<title>opresultwarn</title>
<g id="a_node12"><a xlink:href="opresultwarn.md" xlink:title="opresultwarn.md">
<ellipse fill="palegoldenrod" stroke="black" cx="2315.36" cy="-330" rx="100.32" ry="24.08"/>
<text text-anchor="middle" x="2315.36" y="-323.8" font-family="Times,serif" font-size="24.00">opresultwarn</text>
</a>
</g>
</g>
<!-- args&#45;&gt;opresultwarn -->
<g id="edge6" class="edge">
<title>args&#45;&gt;opresultwarn</title>
<path fill="none" stroke="black" d="M1028.68,-462C1206.76,-443.87 1940.64,-369.15 2213.01,-341.42"/>
<polygon fill="black" stroke="black" points="2212.96,-344.94 2222.56,-340.45 2212.26,-337.98 2212.96,-344.94"/>
</g>
<!-- warnings -->
<g id="node35" class="node">
<title>warnings</title>
<g id="a_node35"><a xlink:href="warnings.md" xlink:title="warnings.md">
<ellipse fill="palegoldenrod" stroke="black" cx="1505.36" cy="-192" rx="73.58" ry="24.08"/>
<text text-anchor="middle" x="1505.36" y="-185.8" font-family="Times,serif" font-size="24.00">warnings</text>
</a>
</g>
</g>
<!-- args&#45;&gt;warnings -->
<g id="edge3" class="edge">
<title>args&#45;&gt;warnings</title>
<path fill="none" stroke="black" d="M1000.43,-443.46C1018.69,-408.67 1058.42,-342.12 1111.36,-305.96 1206.71,-240.81 1339.51,-212.87 1423.96,-201.14"/>
<polygon fill="black" stroke="black" points="1424.34,-204.62 1433.79,-199.82 1423.41,-197.68 1424.34,-204.62"/>
</g>
<!-- cmdline -->
<g id="node2" class="node">
<title>cmdline</title>
<g id="a_node2"><a xlink:href="cmdline.md" xlink:title="cmdline.md">
<polygon fill="palegreen" stroke="black" points="335.25,-603.21 335.25,-624.79 293.14,-640.04 233.58,-640.04 191.47,-624.79 191.47,-603.21 233.58,-587.96 293.14,-587.96 335.25,-603.21"/>
<polygon fill="none" stroke="black" points="339.25,-600.4 339.25,-627.6 293.84,-644.04 232.88,-644.04 187.47,-627.6 187.47,-600.4 232.88,-583.96 293.84,-583.96 339.25,-600.4"/>
<text text-anchor="middle" x="263.36" y="-607.8" font-family="Times,serif" font-size="24.00">cmdline</text>
</a>
</g>
</g>
<!-- codefile -->
<g id="node3" class="node">
<title>codefile</title>
<g id="a_node3"><a xlink:href="codefile.md" xlink:title="codefile.md">
<ellipse fill="palegoldenrod" stroke="black" cx="1655.36" cy="-1265" rx="66.44" ry="24.08"/>
<text text-anchor="middle" x="1655.36" y="-1258.8" font-family="Times,serif" font-size="24.00">codefile</text>
</a>
</g>
</g>
<!-- env -->
<g id="node5" class="node">
<title>env</title>
<g id="a_node5"><a xlink:href="env.md" xlink:title="env.md">
<ellipse fill="palegoldenrod" stroke="black" cx="665.36" cy="-752" rx="36.12" ry="24.08"/>
<text text-anchor="middle" x="665.36" y="-745.8" font-family="Times,serif" font-size="24.00">env</text>
</a>
</g>
</g>
<!-- codefile&#45;&gt;env -->
<g id="edge102" class="edge">
<title>codefile&#45;&gt;env</title>
<path fill="none" stroke="black" d="M1625.9,-1243.17C1580.95,-1212.03 1491.87,-1152.73 1410.36,-1112.96 1317.48,-1067.64 1287.89,-1071.47 1192.36,-1032.04 1065.5,-979.69 1032.51,-968.51 911.36,-904.04 833.5,-862.61 746.44,-806.76 699.62,-775.9"/>
<polygon fill="black" stroke="black" points="701.79,-773.14 691.52,-770.54 697.93,-778.98 701.79,-773.14"/>
</g>
<!-- linebuffer -->
<g id="node7" class="node">
<title>linebuffer</title>
<g id="a_node7"><a xlink:href="linebuffer.md" xlink:title="linebuffer.md">
<polygon fill="palegreen" stroke="black" points="1093.27,-603.21 1093.27,-624.79 1043.53,-640.04 973.19,-640.04 923.45,-624.79 923.45,-603.21 973.19,-587.96 1043.53,-587.96 1093.27,-603.21"/>
<polygon fill="none" stroke="black" points="1097.27,-600.25 1097.27,-627.75 1044.13,-644.04 972.59,-644.04 919.45,-627.75 919.45,-600.25 972.59,-583.96 1044.13,-583.96 1097.27,-600.25"/>
<text text-anchor="middle" x="1008.36" y="-607.8" font-family="Times,serif" font-size="24.00">linebuffer</text>
</a>
</g>
</g>
<!-- codefile&#45;&gt;linebuffer -->
<g id="edge105" class="edge">
<title>codefile&#45;&gt;linebuffer</title>
<path fill="none" stroke="black" d="M1631.67,-1242.01C1597.16,-1210.7 1530.2,-1152.68 1466.36,-1112.96 1373.6,-1055.25 1089.51,-989.42 1021.36,-904.04 964.25,-832.49 981.87,-716.32 996.76,-655.33"/>
<polygon fill="black" stroke="black" points="1000.13,-656.27 999.21,-645.71 993.34,-654.54 1000.13,-656.27"/>
</g>
<!-- codefile&#45;&gt;messages -->
<g id="edge103" class="edge">
<title>codefile&#45;&gt;messages</title>
<path fill="none" stroke="black" d="M1594.84,-1254.84C1349.67,-1213.99 443.36,-1025.29 443.36,-468 443.36,-468 443.36,-468 443.36,-329 443.36,-228.93 505.22,-207.45 594.36,-161.98 762.05,-76.43 1331.29,-54.27 1560.53,-48.75"/>
<polygon fill="black" stroke="black" points="1560.42,-52.25 1570.33,-48.52 1560.25,-45.25 1560.42,-52.25"/>
</g>
<!-- codefile&#45;&gt;opresultwarn -->
<g id="edge104" class="edge">
<title>codefile&#45;&gt;opresultwarn</title>
<path fill="none" stroke="black" d="M1673.46,-1241.44C1738.09,-1160.32 1955.46,-882.62 1988.36,-776.04 1994.66,-755.62 1996.54,-747.7 1988.36,-727.96 1968.15,-679.2 1924.56,-692.78 1904.36,-644.02 1865.38,-549.97 1921.6,-498.96 2002.36,-436.98 2066.49,-387.76 2154.84,-360.61 2221.33,-346.16"/>
<polygon fill="black" stroke="black" points="2221.68,-349.66 2230.74,-344.17 2220.24,-342.81 2221.68,-349.66"/>
</g>
<!-- runCommand -->
<g id="node21" class="node">
<title>runCommand</title>
<g id="a_node21"><a xlink:href="runCommand.md" xlink:title="runCommand.md">
<ellipse fill="palegoldenrod" stroke="black" cx="2292.36" cy="-1137" rx="105.22" ry="24.08"/>
<text text-anchor="middle" x="2292.36" y="-1130.8" font-family="Times,serif" font-size="24.00">runCommand</text>
</a>
</g>
</g>
<!-- codefile&#45;&gt;runCommand -->
<g id="edge106" class="edge">
<title>codefile&#45;&gt;runCommand</title>
<path fill="none" stroke="black" d="M1713.01,-1252.6C1824.49,-1230.54 2070.3,-1181.92 2203.08,-1155.66"/>
<polygon fill="black" stroke="black" points="2203.39,-1159.17 2212.52,-1153.79 2202.03,-1152.3 2203.39,-1159.17"/>
</g>
<!-- utf8decoder -->
<g id="node31" class="node">
<title>utf8decoder</title>
<g id="a_node31"><a xlink:href="utf8decoder.md" xlink:title="utf8decoder.md">
<polygon fill="palegreen" stroke="black" points="2913.39,-603.21 2913.39,-624.79 2854.79,-640.04 2771.92,-640.04 2713.32,-624.79 2713.32,-603.21 2771.92,-587.96 2854.79,-587.96 2913.39,-603.21"/>
<polygon fill="none" stroke="black" points="2917.39,-600.12 2917.39,-627.88 2855.3,-644.04 2771.41,-644.04 2709.33,-627.88 2709.33,-600.12 2771.41,-583.96 2855.3,-583.96 2917.39,-600.12"/>
<text text-anchor="middle" x="2813.36" y="-607.8" font-family="Times,serif" font-size="24.00">utf8decoder</text>
</a>
</g>
</g>
<!-- codefile&#45;&gt;utf8decoder -->
<g id="edge110" class="edge">
<title>codefile&#45;&gt;utf8decoder</title>
<path fill="none" stroke="black" d="M1721.88,-1262.69C1855.05,-1258.39 2162.52,-1239.96 2406.36,-1161.04 2522.32,-1123.51 2553.57,-1108.67 2648.36,-1032.04 2756.92,-944.28 2794.19,-910.88 2830.36,-776.04 2841.14,-735.84 2833.77,-688.28 2825.63,-655.31"/>
<polygon fill="black" stroke="black" points="2829.05,-654.55 2823.13,-645.76 2822.28,-656.32 2829.05,-654.55"/>
</g>
<!-- variables -->
<g id="node32" class="node">
<title>variables</title>
<g id="a_node32"><a xlink:href="variables.md" xlink:title="variables.md">
<ellipse fill="palegoldenrod" stroke="black" cx="1906.36" cy="-752" rx="72.66" ry="24.08"/>
<text text-anchor="middle" x="1906.36" y="-745.8" font-family="Times,serif" font-size="24.00">variables</text>
</a>
</g>
</g>
<!-- codefile&#45;&gt;variables -->
<g id="edge107" class="edge">
<title>codefile&#45;&gt;variables</title>
<path fill="none" stroke="black" d="M1652.45,-1240.74C1647.29,-1190.27 1641.2,-1068.41 1689.36,-983.96 1718.23,-933.32 1752.41,-945.53 1793.36,-904.04 1830.06,-866.87 1864.89,-817.38 1885.94,-785.36"/>
<polygon fill="black" stroke="black" points="1888.67,-787.58 1891.19,-777.28 1882.8,-783.76 1888.67,-787.58"/>
</g>
<!-- vartypes -->
<g id="node33" class="node">
<title>vartypes</title>
<g id="a_node33"><a xlink:href="vartypes.md" xlink:title="vartypes.md">
<ellipse fill="palegoldenrod" stroke="black" cx="2457.36" cy="-614" rx="69.09" ry="24.08"/>
<text text-anchor="middle" x="2457.36" y="-607.8" font-family="Times,serif" font-size="24.00">vartypes</text>
</a>
</g>
</g>
<!-- codefile&#45;&gt;vartypes -->
<g id="edge108" class="edge">
<title>codefile&#45;&gt;vartypes</title>
<path fill="none" stroke="black" d="M1681.59,-1242.78C1800.21,-1146.78 2286.6,-753.18 2422.15,-643.49"/>
<polygon fill="black" stroke="black" points="2424.18,-646.35 2429.75,-637.34 2419.77,-640.91 2424.18,-646.35"/>
</g>
<!-- codefile&#45;&gt;warnings -->
<g id="edge109" class="edge">
<title>codefile&#45;&gt;warnings</title>
<path fill="none" stroke="black" d="M1634.5,-1241.66C1606.89,-1212.12 1556.63,-1158.48 1513.36,-1112.96 1404.21,-998.13 1383.89,-962.19 1266.36,-855.96 1223.63,-817.34 1189.57,-827.82 1164.36,-776.04 1109.12,-662.58 1387.79,-327.79 1477.96,-224.02"/>
<polygon fill="black" stroke="black" points="1480.42,-226.53 1484.36,-216.69 1475.14,-221.93 1480.42,-226.53"/>
</g>
<!-- comparelines -->
<g id="node4" class="node">
<title>comparelines</title>
<g id="a_node4"><a xlink:href="comparelines.md" xlink:title="comparelines.md">
<polygon fill="palegreen" stroke="black" points="2560.78,-1666.21 2560.78,-1687.79 2496.1,-1703.04 2404.62,-1703.04 2339.94,-1687.79 2339.94,-1666.21 2404.62,-1650.96 2496.1,-1650.96 2560.78,-1666.21"/>
<polygon fill="none" stroke="black" points="2564.78,-1663.05 2564.78,-1690.95 2496.56,-1707.04 2404.16,-1707.04 2335.93,-1690.95 2335.93,-1663.05 2404.16,-1646.96 2496.56,-1646.96 2564.78,-1663.05"/>
<text text-anchor="middle" x="2450.36" y="-1670.8" font-family="Times,serif" font-size="24.00">comparelines</text>
</a>
</g>
</g>
<!-- env&#45;&gt;args -->
<g id="edge20" class="edge">
<title>env&#45;&gt;args</title>
<path fill="none" stroke="black" d="M656.17,-728.29C643.81,-693.67 626.69,-627.18 657.36,-583.98 721.65,-493.41 862.21,-473 938.19,-468.76"/>
<polygon fill="black" stroke="black" points="938.02,-472.27 947.85,-468.3 937.69,-465.28 938.02,-472.27"/>
</g>
<!-- env&#45;&gt;linebuffer -->
<g id="edge21" class="edge">
<title>env&#45;&gt;linebuffer</title>
<path fill="none" stroke="black" d="M694.3,-737.28C701.17,-734.13 708.49,-730.86 715.36,-727.96 790.56,-696.17 878.05,-662.92 937.71,-640.79"/>
<polygon fill="black" stroke="black" points="938.56,-644.21 946.73,-637.46 936.13,-637.64 938.56,-644.21"/>
</g>
<!-- env&#45;&gt;messages -->
<g id="edge18" class="edge">
<title>env&#45;&gt;messages</title>
<path fill="none" stroke="black" d="M646.57,-731.19C607.14,-687.45 519.36,-577.74 519.36,-468 519.36,-468 519.36,-468 519.36,-329 519.36,-115.19 1285.77,-62.39 1560.68,-50.33"/>
<polygon fill="black" stroke="black" points="1560.47,-53.84 1570.31,-49.91 1560.17,-46.84 1560.47,-53.84"/>
</g>
<!-- tempFile -->
<g id="node27" class="node">
<title>tempFile</title>
<g id="a_node27"><a xlink:href="tempFile.md" xlink:title="tempFile.md">
<polygon fill="palegreen" stroke="black" points="859.49,-603.21 859.49,-624.79 813.72,-640.04 749,-640.04 703.23,-624.79 703.23,-603.21 749,-587.96 813.72,-587.96 859.49,-603.21"/>
<polygon fill="none" stroke="black" points="863.49,-600.33 863.49,-627.67 814.37,-644.04 748.35,-644.04 699.22,-627.67 699.22,-600.33 748.35,-583.96 814.37,-583.96 863.49,-600.33"/>
<text text-anchor="middle" x="781.36" y="-607.8" font-family="Times,serif" font-size="24.00">tempFile</text>
</a>
</g>
</g>
<!-- env&#45;&gt;tempFile -->
<g id="edge17" class="edge">
<title>env&#45;&gt;tempFile</title>
<path fill="none" stroke="black" d="M682.72,-730.64C700.19,-710.16 727.55,-678.09 749.02,-652.91"/>
<polygon fill="black" stroke="black" points="751.54,-655.35 755.37,-645.47 746.21,-650.81 751.54,-655.35"/>
</g>
<!-- env&#45;&gt;warnings -->
<g id="edge19" class="edge">
<title>env&#45;&gt;warnings</title>
<path fill="none" stroke="black" d="M661.5,-727.69C657.01,-691.98 654.29,-623.7 690.36,-583.98 797.53,-465.96 910.93,-592.83 1038.36,-497.02 1116.86,-438.01 1072.74,-367.4 1149.36,-305.96 1229.4,-241.78 1346.48,-213.78 1424.25,-201.76"/>
<polygon fill="black" stroke="black" points="1424.56,-205.25 1433.94,-200.32 1423.53,-198.33 1424.56,-205.25"/>
</g>
<!-- gethelp -->
<g id="node6" class="node">
<title>gethelp</title>
<g id="a_node6"><a xlink:href="gethelp.md" xlink:title="gethelp.md">
<polygon fill="palegreen" stroke="black" points="3421.03,-1520.21 3421.03,-1541.79 3381.97,-1557.04 3326.74,-1557.04 3287.69,-1541.79 3287.69,-1520.21 3326.74,-1504.96 3381.97,-1504.96 3421.03,-1520.21"/>
<polygon fill="none" stroke="black" points="3425.03,-1517.48 3425.03,-1544.52 3382.73,-1561.04 3325.99,-1561.04 3283.68,-1544.52 3283.68,-1517.48 3325.99,-1500.96 3382.73,-1500.96 3425.03,-1517.48"/>
<text text-anchor="middle" x="3354.36" y="-1524.8" font-family="Times,serif" font-size="24.00">gethelp</text>
</a>
</g>
</g>
<!-- matches -->
<g id="node8" class="node">
<title>matches</title>
<g id="a_node8"><a xlink:href="matches.md" xlink:title="matches.md">
<ellipse fill="palegoldenrod" stroke="black" cx="1486.36" cy="-614" rx="67.35" ry="24.08"/>
<text text-anchor="middle" x="1486.36" y="-607.8" font-family="Times,serif" font-size="24.00">matches</text>
</a>
</g>
</g>
<!-- matches&#45;&gt;args -->
<g id="edge11" class="edge">
<title>matches&#45;&gt;args</title>
<path fill="none" stroke="black" d="M1435.04,-598.03C1338.02,-569.72 1129.09,-508.77 1035.89,-481.58"/>
<polygon fill="black" stroke="black" points="1036.88,-478.22 1026.3,-478.78 1034.92,-484.94 1036.88,-478.22"/>
</g>
<!-- regexes -->
<g id="node18" class="node">
<title>regexes</title>
<g id="a_node18"><a xlink:href="regexes.md" xlink:title="regexes.md">
<polygon fill="palegreen" stroke="black" points="2151.59,-456.21 2151.59,-477.79 2111.62,-493.04 2055.1,-493.04 2015.13,-477.79 2015.13,-456.21 2055.1,-440.96 2111.62,-440.96 2151.59,-456.21"/>
<polygon fill="none" stroke="black" points="2155.59,-453.46 2155.59,-480.54 2112.36,-497.04 2054.36,-497.04 2011.12,-480.54 2011.12,-453.46 2054.36,-436.96 2112.36,-436.96 2155.59,-453.46"/>
<text text-anchor="middle" x="2083.36" y="-460.8" font-family="Times,serif" font-size="24.00">regexes</text>
</a>
</g>
</g>
<!-- matches&#45;&gt;regexes -->
<g id="edge12" class="edge">
<title>matches&#45;&gt;regexes</title>
<path fill="none" stroke="black" d="M1541.19,-599.68C1648.24,-573.68 1885.28,-516.11 2007.38,-486.45"/>
<polygon fill="black" stroke="black" points="2008.11,-489.88 2017,-484.12 2006.46,-483.08 2008.11,-489.88"/>
</g>
<!-- opresult -->
<g id="node10" class="node">
<title>opresult</title>
<g id="a_node10"><a xlink:href="opresult.md" xlink:title="opresult.md">
<polygon fill="palegreen" stroke="black" points="2819.25,-181.21 2819.25,-202.79 2777.14,-218.04 2717.58,-218.04 2675.47,-202.79 2675.47,-181.21 2717.58,-165.96 2777.14,-165.96 2819.25,-181.21"/>
<polygon fill="none" stroke="black" points="2823.25,-178.4 2823.25,-205.6 2777.84,-222.04 2716.88,-222.04 2671.47,-205.6 2671.47,-178.4 2716.88,-161.96 2777.84,-161.96 2823.25,-178.4"/>
<text text-anchor="middle" x="2747.36" y="-185.8" font-family="Times,serif" font-size="24.00">opresult</text>
</a>
</g>
</g>
<!-- opresultid -->
<g id="node11" class="node">
<title>opresultid</title>
<g id="a_node11"><a xlink:href="opresultid.md" xlink:title="opresultid.md">
<ellipse fill="palegoldenrod" stroke="black" cx="2959.36" cy="-330" rx="79.81" ry="24.08"/>
<text text-anchor="middle" x="2959.36" y="-323.8" font-family="Times,serif" font-size="24.00">opresultid</text>
</a>
</g>
</g>
<!-- opresultid&#45;&gt;messages -->
<g id="edge56" class="edge">
<title>opresultid&#45;&gt;messages</title>
<path fill="none" stroke="black" d="M2953.67,-305.63C2943.21,-268.21 2917.1,-195.62 2865.36,-161.98 2772.97,-101.9 2024.57,-63.22 1754.28,-51.09"/>
<polygon fill="black" stroke="black" points="1754.59,-47.6 1744.44,-50.65 1754.28,-54.6 1754.59,-47.6"/>
</g>
<!-- opresultid&#45;&gt;opresult -->
<g id="edge57" class="edge">
<title>opresultid&#45;&gt;opresult</title>
<path fill="none" stroke="black" d="M2926.23,-307.75C2891.59,-285.53 2836.82,-250.39 2797.01,-224.85"/>
<polygon fill="black" stroke="black" points="2799.06,-222.01 2788.76,-219.56 2795.28,-227.9 2799.06,-222.01"/>
</g>
<!-- opresultwarn&#45;&gt;opresult -->
<g id="edge5" class="edge">
<title>opresultwarn&#45;&gt;opresult</title>
<path fill="none" stroke="black" d="M2374.97,-310.23C2453.83,-285.41 2592.63,-241.71 2676.68,-215.25"/>
<polygon fill="black" stroke="black" points="2677.73,-218.59 2686.22,-212.25 2675.63,-211.91 2677.73,-218.59"/>
</g>
<!-- opresultwarn&#45;&gt;warnings -->
<g id="edge4" class="edge">
<title>opresultwarn&#45;&gt;warnings</title>
<path fill="none" stroke="black" d="M2240.93,-313.53C2227.76,-310.91 2214.17,-308.29 2201.36,-305.96 1977.49,-265.18 1711.76,-224.06 1583,-204.6"/>
<polygon fill="black" stroke="black" points="1583.63,-201.16 1573.22,-203.12 1582.58,-208.08 1583.63,-201.16"/>
</g>
<!-- parseCmdLine -->
<g id="node13" class="node">
<title>parseCmdLine</title>
<g id="a_node13"><a xlink:href="parseCmdLine.md" xlink:title="parseCmdLine.md">
<ellipse fill="palegoldenrod" stroke="black" cx="1285.36" cy="-752" rx="111.95" ry="24.08"/>
<text text-anchor="middle" x="1285.36" y="-745.8" font-family="Times,serif" font-size="24.00">parseCmdLine</text>
</a>
</g>
</g>
<!-- parseCmdLine&#45;&gt;matches -->
<g id="edge27" class="edge">
<title>parseCmdLine&#45;&gt;matches</title>
<path fill="none" stroke="black" d="M1318.55,-728.54C1353.7,-704.76 1409.2,-667.21 1446.65,-641.87"/>
<polygon fill="black" stroke="black" points="1448.18,-645.06 1454.5,-636.55 1444.26,-639.26 1448.18,-645.06"/>
</g>
<!-- parseCmdLine&#45;&gt;messages -->
<g id="edge26" class="edge">
<title>parseCmdLine&#45;&gt;messages</title>
<path fill="none" stroke="black" d="M1283.85,-727.56C1279.6,-641.38 1276.12,-338.04 1422.36,-161.98 1461.51,-114.84 1524.66,-85.46 1575.64,-68.2"/>
<polygon fill="black" stroke="black" points="1576.47,-71.61 1584.88,-65.17 1574.29,-64.96 1576.47,-71.61"/>
</g>
<!-- parseCmdLine&#45;&gt;opresultwarn -->
<g id="edge29" class="edge">
<title>parseCmdLine&#45;&gt;opresultwarn</title>
<path fill="none" stroke="black" d="M1294.38,-727.54C1310.5,-686.64 1344.68,-604.66 1367.36,-583.98 1447.49,-510.9 1499.51,-547.77 1595.36,-497.02 1636.56,-475.21 1638.2,-454.6 1681.36,-436.98 1855.54,-365.87 2075.26,-342.46 2205,-334.76"/>
<polygon fill="black" stroke="black" points="2204.82,-338.28 2214.6,-334.21 2204.42,-331.29 2204.82,-338.28"/>
</g>
<!-- parseCmdLine&#45;&gt;regexes -->
<g id="edge25" class="edge">
<title>parseCmdLine&#45;&gt;regexes</title>
<path fill="none" stroke="black" d="M1303.49,-727.79C1320.26,-706.23 1345.76,-673.16 1367.36,-644.02 1386.9,-617.65 1382.55,-601.41 1410.36,-583.98 1507.48,-523.09 1841.83,-488.02 1999.64,-474.5"/>
<polygon fill="black" stroke="black" points="1999.51,-478.02 2009.18,-473.69 1998.92,-471.05 1999.51,-478.02"/>
</g>
<!-- parseCmdLine&#45;&gt;warnings -->
<g id="edge28" class="edge">
<title>parseCmdLine&#45;&gt;warnings</title>
<path fill="none" stroke="black" d="M1289.84,-727.65C1296.41,-694.99 1309.82,-634.07 1327.36,-583.98 1375.32,-447 1453.21,-292.36 1487.82,-226.06"/>
<polygon fill="black" stroke="black" points="1490.75,-228.01 1492.29,-217.53 1484.55,-224.76 1490.75,-228.01"/>
</g>
<!-- parseCommandLine -->
<g id="node14" class="node">
<title>parseCommandLine</title>
<g id="a_node14"><a xlink:href="parseCommandLine.md" xlink:title="parseCommandLine.md">
<ellipse fill="palegoldenrod" stroke="black" cx="298.36" cy="-752" rx="149.4" ry="24.08"/>
<text text-anchor="middle" x="298.36" y="-745.8" font-family="Times,serif" font-size="24.00">parseCommandLine</text>
</a>
</g>
</g>
<!-- parseCommandLine&#45;&gt;args -->
<g id="edge7" class="edge">
<title>parseCommandLine&#45;&gt;args</title>
<path fill="none" stroke="black" d="M314.91,-727.72C342.25,-691.08 400.53,-620.4 467.36,-583.98 624.41,-498.37 840.73,-475.93 938.16,-470.06"/>
<polygon fill="black" stroke="black" points="938.14,-473.57 947.93,-469.51 937.74,-466.58 938.14,-473.57"/>
</g>
<!-- parseCommandLine&#45;&gt;cmdline -->
<g id="edge10" class="edge">
<title>parseCommandLine&#45;&gt;cmdline</title>
<path fill="none" stroke="black" d="M292.34,-727.62C287.24,-707.78 279.79,-678.86 273.73,-655.3"/>
<polygon fill="black" stroke="black" points="277.14,-654.51 271.26,-645.69 270.36,-656.25 277.14,-654.51"/>
</g>
<!-- parseCommandLine&#45;&gt;matches -->
<g id="edge13" class="edge">
<title>parseCommandLine&#45;&gt;matches</title>
<path fill="none" stroke="black" d="M418.26,-737.27C662.43,-709.32 1211.18,-646.5 1411.41,-623.58"/>
<polygon fill="black" stroke="black" points="1411.63,-627.08 1421.17,-622.46 1410.84,-620.12 1411.63,-627.08"/>
</g>
<!-- parseCommandLine&#45;&gt;messages -->
<g id="edge8" class="edge">
<title>parseCommandLine&#45;&gt;messages</title>
<path fill="none" stroke="black" d="M260.68,-728.4C232.91,-709.55 196.87,-680.01 178.36,-644.02 142.36,-574.05 159.36,-546.69 159.36,-468 159.36,-468 159.36,-468 159.36,-329 159.36,-187.9 295.58,-206.86 429.36,-161.98 638.92,-91.68 1309.13,-59.99 1560.71,-50.35"/>
<polygon fill="black" stroke="black" points="1560.64,-53.86 1570.5,-49.98 1560.37,-46.86 1560.64,-53.86"/>
</g>
<!-- parseCommandLine&#45;&gt;warnings -->
<g id="edge9" class="edge">
<title>parseCommandLine&#45;&gt;warnings</title>
<path fill="none" stroke="black" d="M309.6,-727.57C330.59,-684.15 374.67,-594.63 386.36,-583.98 696.13,-301.65 1221.29,-221.08 1423.04,-199.94"/>
<polygon fill="black" stroke="black" points="1423.32,-203.43 1432.91,-198.93 1422.61,-196.47 1423.32,-203.43"/>
</g>
<!-- parseNumber -->
<g id="node15" class="node">
<title>parseNumber</title>
<g id="a_node15"><a xlink:href="parseNumber.md" xlink:title="parseNumber.md">
<ellipse fill="palegoldenrod" stroke="black" cx="2442.36" cy="-880" rx="103.48" ry="24.08"/>
<text text-anchor="middle" x="2442.36" y="-873.8" font-family="Times,serif" font-size="24.00">parseNumber</text>
</a>
</g>
</g>
<!-- parseNumber&#45;&gt;vartypes -->
<g id="edge41" class="edge">
<title>parseNumber&#45;&gt;vartypes</title>
<path fill="none" stroke="red" d="M2443.27,-855.44C2444.47,-825.72 2446.72,-773.03 2449.36,-727.96 2450.9,-701.67 2453.02,-671.97 2454.69,-649.63"/>
<polygon fill="red" stroke="red" points="2458.16,-650.1 2455.42,-639.86 2451.18,-649.57 2458.16,-650.1"/>
</g>
<!-- processTemplate -->
<g id="node16" class="node">
<title>processTemplate</title>
<g id="a_node16"><a xlink:href="processTemplate.md" xlink:title="processTemplate.md">
<ellipse fill="palegoldenrod" stroke="black" cx="826.36" cy="-1531" rx="124.4" ry="24.08"/>
<text text-anchor="middle" x="826.36" y="-1524.8" font-family="Times,serif" font-size="24.00">processTemplate</text>
</a>
</g>
</g>
<!-- processTemplate&#45;&gt;args -->
<g id="edge15" class="edge">
<title>processTemplate&#45;&gt;args</title>
<path fill="none" stroke="black" d="M748.69,-1511.78C695.04,-1495.42 625.78,-1466.19 582.36,-1417.04 459.79,-1278.3 462.94,-726.28 581.36,-583.98 627.4,-528.64 841.08,-490.18 939.5,-475.1"/>
<polygon fill="black" stroke="black" points="939.76,-478.6 949.13,-473.64 938.72,-471.68 939.76,-478.6"/>
</g>
<!-- processTemplate&#45;&gt;env -->
<g id="edge22" class="edge">
<title>processTemplate&#45;&gt;env</title>
<path fill="none" stroke="black" d="M773.17,-1508.77C691.71,-1472.34 545.36,-1389.67 545.36,-1266 545.36,-1266 545.36,-1266 545.36,-1136 545.36,-1000.36 614.74,-849.55 647.99,-785.06"/>
<polygon fill="black" stroke="black" points="650.96,-786.94 652.49,-776.46 644.76,-783.7 650.96,-786.94"/>
</g>
<!-- processTemplate&#45;&gt;linebuffer -->
<g id="edge24" class="edge">
<title>processTemplate&#45;&gt;linebuffer</title>
<path fill="none" stroke="black" d="M805.92,-1506.77C769.54,-1462.95 697.36,-1363.69 697.36,-1266 697.36,-1266 697.36,-1266 697.36,-1007 697.36,-876.41 704.58,-827.28 789.36,-727.96 826.01,-685.02 883.07,-656.33 929.76,-638.61"/>
<polygon fill="black" stroke="black" points="930.87,-641.93 939.05,-635.19 928.46,-635.36 930.87,-641.93"/>
</g>
<!-- processTemplate&#45;&gt;matches -->
<g id="edge23" class="edge">
<title>processTemplate&#45;&gt;matches</title>
<path fill="none" stroke="black" d="M826.65,-1506.51C827.75,-1474.4 832.33,-1415.48 850.36,-1368.96 875.13,-1305.05 895.6,-1296.06 936.36,-1240.96 979.95,-1182.03 988.89,-1165.15 1040.36,-1112.96 1202.86,-948.2 1311.53,-970.26 1437.36,-776.04 1462.73,-736.88 1475.52,-683.92 1481.54,-649.61"/>
<polygon fill="black" stroke="black" points="1484.99,-650.23 1483.16,-639.8 1478.08,-649.1 1484.99,-650.23"/>
</g>
<!-- processTemplate&#45;&gt;messages -->
<g id="edge16" class="edge">
<title>processTemplate&#45;&gt;messages</title>
<path fill="none" stroke="black" d="M752.12,-1511.32C693,-1493.85 610.33,-1463.42 549.36,-1417.04 206.94,-1156.57 7.36,-1045.22 7.36,-615 7.36,-615 7.36,-615 7.36,-329 7.36,-253.8 -21.14,-212.72 34.36,-161.98 147.12,-58.88 1228.52,-47.92 1560.76,-47"/>
<polygon fill="black" stroke="black" points="1560.28,-50.5 1570.27,-46.98 1560.26,-43.5 1560.28,-50.5"/>
</g>
<!-- processTemplate&#45;&gt;opresultwarn -->
<g id="edge114" class="edge">
<title>processTemplate&#45;&gt;opresultwarn</title>
<path fill="none" stroke="black" d="M846.12,-1507.01C978.75,-1352.82 1736.08,-474.02 1800.36,-436.98 1926.4,-364.35 2095.08,-341.07 2204.48,-333.85"/>
<polygon fill="black" stroke="black" points="2204.59,-337.35 2214.36,-333.24 2204.16,-330.37 2204.59,-337.35"/>
</g>
<!-- processTemplate&#45;&gt;parseCmdLine -->
<g id="edge30" class="edge">
<title>processTemplate&#45;&gt;parseCmdLine</title>
<path fill="none" stroke="black" d="M822.62,-1506.71C819.16,-1483.93 814.28,-1448.2 812.36,-1417.04 803.78,-1278 806.12,-1225.4 888.36,-1112.96 948.61,-1030.57 988.75,-1032.82 1078.36,-983.96 1158.07,-940.49 1211.63,-976.48 1266.36,-904.04 1291.54,-870.7 1292.87,-820.94 1290.2,-787.75"/>
<polygon fill="black" stroke="black" points="1293.69,-787.45 1289.22,-777.84 1286.72,-788.14 1293.69,-787.45"/>
</g>
<!-- replacement -->
<g id="node20" class="node">
<title>replacement</title>
<g id="a_node20"><a xlink:href="replacement.md" xlink:title="replacement.md">
<ellipse fill="palegoldenrod" stroke="black" cx="1162.36" cy="-880" rx="94.51" ry="24.08"/>
<text text-anchor="middle" x="1162.36" y="-873.8" font-family="Times,serif" font-size="24.00">replacement</text>
</a>
</g>
</g>
<!-- processTemplate&#45;&gt;replacement -->
<g id="edge94" class="edge">
<title>processTemplate&#45;&gt;replacement</title>
<path fill="none" stroke="black" d="M812.05,-1506.82C799.3,-1484.69 781.57,-1449.94 774.36,-1417.04 750.45,-1307.94 825,-1160.43 850.36,-1112.96 885.45,-1047.25 899.06,-1030.33 957.36,-983.96 1000.32,-949.79 1056.44,-922.57 1099.1,-904.72"/>
<polygon fill="black" stroke="black" points="1100.32,-908 1108.24,-900.96 1097.66,-901.53 1100.32,-908"/>
</g>
<!-- processTemplate&#45;&gt;runCommand -->
<g id="edge91" class="edge">
<title>processTemplate&#45;&gt;runCommand</title>
<path fill="none" stroke="black" d="M934.39,-1518.69C988.67,-1513.12 1055.47,-1506.45 1115.36,-1500.98 1341.85,-1480.29 1943.91,-1539.81 2135.36,-1417.04 2158.61,-1402.13 2240.43,-1242.11 2275.83,-1171.34"/>
<polygon fill="black" stroke="black" points="2278.89,-1173.04 2280.22,-1162.53 2272.63,-1169.92 2278.89,-1173.04"/>
</g>
<!-- startingvars -->
<g id="node25" class="node">
<title>startingvars</title>
<g id="a_node25"><a xlink:href="startingvars.md" xlink:title="startingvars.md">
<ellipse fill="palegoldenrod" stroke="black" cx="1642.36" cy="-1393" rx="90.52" ry="24.08"/>
<text text-anchor="middle" x="1642.36" y="-1386.8" font-family="Times,serif" font-size="24.00">startingvars</text>
</a>
</g>
</g>
<!-- processTemplate&#45;&gt;startingvars -->
<g id="edge113" class="edge">
<title>processTemplate&#45;&gt;startingvars</title>
<path fill="none" stroke="black" d="M918.77,-1514.6C1077.64,-1488.12 1400.34,-1434.34 1555.37,-1408.5"/>
<polygon fill="black" stroke="black" points="1555.91,-1411.96 1565.2,-1406.86 1554.76,-1405.05 1555.91,-1411.96"/>
</g>
<!-- processTemplate&#45;&gt;variables -->
<g id="edge92" class="edge">
<title>processTemplate&#45;&gt;variables</title>
<path fill="none" stroke="black" d="M855.22,-1507.23C966.64,-1419.64 1380.42,-1097.25 1738.36,-855.96 1779.15,-828.46 1827.12,-799.37 1861.34,-779.15"/>
<polygon fill="black" stroke="black" points="1862.91,-782.29 1869.75,-774.2 1859.35,-776.26 1862.91,-782.29"/>
</g>
<!-- processTemplate&#45;&gt;vartypes -->
<g id="edge93" class="edge">
<title>processTemplate&#45;&gt;vartypes</title>
<path fill="none" stroke="black" d="M933.43,-1518.36C1158.31,-1493.68 1665.43,-1436.76 1742.36,-1417.04 1918.01,-1372.01 2121.36,-1447.33 2121.36,-1266 2121.36,-1266 2121.36,-1266 2121.36,-1136 2121.36,-925.15 2236.29,-896.21 2363.36,-727.96 2384.85,-699.51 2410.88,-668.46 2430.1,-646.12"/>
<polygon fill="black" stroke="black" points="2432.75,-648.42 2436.64,-638.56 2427.45,-643.84 2432.75,-648.42"/>
</g>
<!-- readjson -->
<g id="node17" class="node">
<title>readjson</title>
<g id="a_node17"><a xlink:href="readjson.md" xlink:title="readjson.md">
<ellipse fill="palegoldenrod" stroke="black" cx="3012.36" cy="-880" rx="69.09" ry="24.08"/>
<text text-anchor="middle" x="3012.36" y="-873.8" font-family="Times,serif" font-size="24.00">readjson</text>
</a>
</g>
</g>
<!-- readjson&#45;&gt;messages -->
<g id="edge80" class="edge">
<title>readjson&#45;&gt;messages</title>
<path fill="none" stroke="black" d="M3046.1,-858.51C3072.51,-840.43 3107.49,-811.45 3124.36,-776.04 3183.34,-652.2 3143.36,-605.17 3143.36,-468 3143.36,-468 3143.36,-468 3143.36,-329 3143.36,-224.65 3072.8,-206.34 2978.36,-161.98 2761.01,-59.88 2020.58,-47.83 1753.99,-46.87"/>
<polygon fill="black" stroke="black" points="1754.32,-43.37 1744.31,-46.84 1754.3,-50.37 1754.32,-43.37"/>
</g>
<!-- readjson&#45;&gt;opresultwarn -->
<g id="edge83" class="edge">
<title>readjson&#45;&gt;opresultwarn</title>
<path fill="none" stroke="black" d="M2999.64,-855.94C2988.84,-835.49 2973.67,-804.54 2964.36,-776.04 2937.33,-693.33 2983.49,-649.61 2926.36,-583.98 2848.84,-494.93 2784.87,-541.12 2675.36,-497.02 2564.08,-452.21 2437.44,-391.46 2367.95,-357.24"/>
<polygon fill="black" stroke="black" points="2369.58,-354.15 2359.07,-352.86 2366.48,-360.42 2369.58,-354.15"/>
</g>
<!-- unicodes -->
<g id="node29" class="node">
<title>unicodes</title>
<g id="a_node29"><a xlink:href="unicodes.md" xlink:title="unicodes.md">
<ellipse fill="palegoldenrod" stroke="black" cx="3044.36" cy="-752" rx="71.34" ry="24.08"/>
<text text-anchor="middle" x="3044.36" y="-745.8" font-family="Times,serif" font-size="24.00">unicodes</text>
</a>
</g>
</g>
<!-- readjson&#45;&gt;unicodes -->
<g id="edge81" class="edge">
<title>readjson&#45;&gt;unicodes</title>
<path fill="none" stroke="black" d="M3018.3,-855.6C3023.17,-836.41 3030.14,-808.99 3035.64,-787.32"/>
<polygon fill="black" stroke="black" points="3039,-788.3 3038.07,-777.75 3032.22,-786.58 3039,-788.3"/>
</g>
<!-- readjson&#45;&gt;utf8decoder -->
<g id="edge82" class="edge">
<title>readjson&#45;&gt;utf8decoder</title>
<path fill="none" stroke="black" d="M2994.44,-856.68C2977.87,-835.94 2952.68,-804.12 2931.36,-776.04 2899.88,-734.59 2864.73,-686.35 2841.04,-653.55"/>
<polygon fill="black" stroke="black" points="2843.95,-651.61 2835.26,-645.54 2838.27,-655.7 2843.95,-651.61"/>
</g>
<!-- readjson&#45;&gt;vartypes -->
<g id="edge79" class="edge">
<title>readjson&#45;&gt;vartypes</title>
<path fill="none" stroke="black" d="M2953.24,-867.19C2860.98,-848.05 2687.81,-809.07 2634.36,-776.04 2609.97,-760.97 2611.93,-747.93 2591.36,-727.96 2559.98,-697.49 2521.59,-665.62 2493.96,-643.53"/>
<polygon fill="black" stroke="black" points="2496.21,-640.86 2486.21,-637.37 2491.86,-646.34 2496.21,-640.86"/>
</g>
<!-- repl -->
<g id="node19" class="node">
<title>repl</title>
<g id="a_node19"><a xlink:href="repl.md" xlink:title="repl.md">
<ellipse fill="palegoldenrod" stroke="black" cx="2235.36" cy="-1531" rx="38.37" ry="24.08"/>
<text text-anchor="middle" x="2235.36" y="-1524.8" font-family="Times,serif" font-size="24.00">repl</text>
</a>
</g>
</g>
<!-- repl&#45;&gt;args -->
<g id="edge138" class="edge">
<title>repl&#45;&gt;args</title>
<path fill="none" stroke="black" d="M2196.78,-1528.25C2057.42,-1521.34 1581.41,-1492.58 1452.36,-1417.04 1204.25,-1271.82 1150.83,-1176.25 1058.36,-904.04 1039.05,-847.2 1087.81,-809.91 1106.36,-644.02 1109.32,-617.5 1116.63,-608.61 1106.36,-583.98 1090.05,-544.84 1053.39,-512.14 1025.43,-491.55"/>
<polygon fill="black" stroke="black" points="1027.72,-488.88 1017.55,-485.91 1023.65,-494.58 1027.72,-488.88"/>
</g>
<!-- repl&#45;&gt;env -->
<g id="edge136" class="edge">
<title>repl&#45;&gt;env</title>
<path fill="none" stroke="black" d="M2196.97,-1528.28C2043,-1520.93 1470.64,-1489.19 1306.36,-1417.04 998.21,-1281.71 939.28,-1181.89 749.36,-904.04 722.58,-864.87 696.84,-816.47 681.06,-785.18"/>
<polygon fill="black" stroke="black" points="684.39,-783.99 676.79,-776.61 678.12,-787.12 684.39,-783.99"/>
</g>
<!-- repl&#45;&gt;matches -->
<g id="edge141" class="edge">
<title>repl&#45;&gt;matches</title>
<path fill="none" stroke="black" d="M2196.55,-1529.9C2058.81,-1528.71 1596.31,-1517.2 1497.36,-1417.04 1297.14,-1214.37 1480.46,-1060.59 1494.36,-776.04 1496.49,-732.46 1493.06,-682.26 1490.05,-649.64"/>
<polygon fill="black" stroke="black" points="1493.56,-649.59 1489.12,-639.98 1486.59,-650.27 1493.56,-649.59"/>
</g>
<!-- repl&#45;&gt;messages -->
<g id="edge143" class="edge">
<title>repl&#45;&gt;messages</title>
<path fill="none" stroke="black" d="M2273.99,-1529.36C2431.58,-1526.16 3024.91,-1508.18 3184.36,-1417.04 3257.61,-1375.17 3299.36,-1350.37 3299.36,-1266 3299.36,-1266 3299.36,-1266 3299.36,-1007 3299.36,-829.86 3371.36,-792.14 3371.36,-615 3371.36,-615 3371.36,-615 3371.36,-329 3371.36,-213.53 3279.29,-205.56 3172.36,-161.98 2913.68,-56.55 2046.06,-46.87 1754.14,-46.67"/>
<polygon fill="black" stroke="black" points="1754.26,-43.17 1744.26,-46.67 1754.26,-50.17 1754.26,-43.17"/>
</g>
<!-- repl&#45;&gt;opresultwarn -->
<g id="edge139" class="edge">
<title>repl&#45;&gt;opresultwarn</title>
<path fill="none" stroke="black" d="M2273.9,-1528.09C2440.47,-1519.45 3093.06,-1481.67 3155.36,-1417.04 3283.96,-1283.64 3244.09,-721.01 3119.36,-583.98 2937.92,-384.64 2601.32,-341.19 2426.79,-332.5"/>
<polygon fill="black" stroke="black" points="2427.19,-329.01 2417.04,-332.04 2426.87,-336 2427.19,-329.01"/>
</g>
<!-- repl&#45;&gt;regexes -->
<g id="edge142" class="edge">
<title>repl&#45;&gt;regexes</title>
<path fill="none" stroke="black" d="M2231.09,-1506.82C2212.52,-1405.19 2137.86,-988.8 2097.36,-644.02 2091.93,-597.79 2088.01,-544.48 2085.73,-508.75"/>
<polygon fill="black" stroke="black" points="2089.23,-508.62 2085.11,-498.85 2082.24,-509.05 2089.23,-508.62"/>
</g>
<!-- repl&#45;&gt;runCommand -->
<g id="edge144" class="edge">
<title>repl&#45;&gt;runCommand</title>
<path fill="none" stroke="black" d="M2257.43,-1511C2279.47,-1490.43 2311.95,-1455.39 2325.36,-1417.04 2354.97,-1332.35 2325,-1225.32 2305.78,-1171.77"/>
<polygon fill="black" stroke="black" points="2309.14,-1170.76 2302.39,-1162.6 2302.57,-1173.19 2309.14,-1170.76"/>
</g>
<!-- repl&#45;&gt;startingvars -->
<g id="edge140" class="edge">
<title>repl&#45;&gt;startingvars</title>
<path fill="none" stroke="black" d="M2199.6,-1521.8C2105.68,-1500.26 1850.33,-1441.7 1720.46,-1411.91"/>
<polygon fill="black" stroke="black" points="1721.43,-1408.54 1710.91,-1409.72 1719.87,-1415.37 1721.43,-1408.54"/>
</g>
<!-- repl&#45;&gt;variables -->
<g id="edge145" class="edge">
<title>repl&#45;&gt;variables</title>
<path fill="none" stroke="black" d="M2213.91,-1510.71C2157.15,-1457.44 2007.36,-1301.36 2007.36,-1138 2007.36,-1138 2007.36,-1138 2007.36,-1007 2007.36,-922.33 1958.3,-832.31 1928.57,-785.52"/>
<polygon fill="black" stroke="black" points="1931.56,-783.7 1923.19,-777.21 1925.68,-787.51 1931.56,-783.7"/>
</g>
<!-- repl&#45;&gt;vartypes -->
<g id="edge137" class="edge">
<title>repl&#45;&gt;vartypes</title>
<path fill="none" stroke="black" d="M2273.11,-1525.26C2426.03,-1505.04 2991.36,-1419.88 2991.36,-1266 2991.36,-1266 2991.36,-1266 2991.36,-1136 2991.36,-989 2930.01,-947.96 2815.36,-855.96 2732.92,-789.81 2677.24,-837.66 2591.36,-776.04 2569.23,-760.16 2570.63,-749.02 2553.36,-727.96 2530.31,-699.84 2503.47,-668.36 2484.04,-645.79"/>
<polygon fill="black" stroke="black" points="2486.89,-643.74 2477.71,-638.45 2481.59,-648.31 2486.89,-643.74"/>
</g>
<!-- repl&#45;&gt;warnings -->
<g id="edge135" class="edge">
<title>repl&#45;&gt;warnings</title>
<path fill="none" stroke="black" d="M2196.6,-1529.94C2063.37,-1528.83 1627.73,-1517.46 1542.36,-1417.04 1302.46,-1134.88 1589.14,-953.37 1562.36,-583.98 1552.74,-451.35 1525,-295.38 1512.1,-227.48"/>
<polygon fill="black" stroke="black" points="1515.55,-226.88 1510.23,-217.71 1508.68,-228.19 1515.55,-226.88"/>
</g>
<!-- replacement&#45;&gt;env -->
<g id="edge67" class="edge">
<title>replacement&#45;&gt;env</title>
<path fill="none" stroke="black" d="M1096.62,-862.33C993.88,-836.29 797.93,-786.61 710.01,-764.32"/>
<polygon fill="black" stroke="black" points="711.1,-760.99 700.55,-761.92 709.38,-767.77 711.1,-760.99"/>
</g>
<!-- replacement&#45;&gt;linebuffer -->
<g id="edge70" class="edge">
<title>replacement&#45;&gt;linebuffer</title>
<path fill="none" stroke="black" d="M1131.84,-856.92C1107.79,-837.99 1075.12,-808.68 1055.36,-776.04 1032.66,-738.55 1020.41,-689.48 1014.16,-655.41"/>
<polygon fill="black" stroke="black" points="1017.68,-655.22 1012.53,-645.96 1010.78,-656.41 1017.68,-655.22"/>
</g>
<!-- replacement&#45;&gt;matches -->
<g id="edge71" class="edge">
<title>replacement&#45;&gt;matches</title>
<path fill="none" stroke="black" d="M1232.53,-863.55C1285.71,-848.76 1357.7,-821.78 1406.36,-776.04 1443.51,-741.12 1465.82,-685.21 1477.1,-649.3"/>
<polygon fill="black" stroke="black" points="1480.42,-650.44 1479.95,-639.85 1473.71,-648.42 1480.42,-650.44"/>
</g>
<!-- replacement&#45;&gt;messages -->
<g id="edge72" class="edge">
<title>replacement&#45;&gt;messages</title>
<path fill="none" stroke="black" d="M1069.33,-875.26C831.1,-864.9 212.64,-832.78 140.36,-776.04 80.64,-729.16 83.36,-690.93 83.36,-615 83.36,-615 83.36,-615 83.36,-329 83.36,-254.01 52.54,-213.16 107.36,-161.98 213.53,-62.85 1237.65,-49.14 1560.43,-47.28"/>
<polygon fill="black" stroke="black" points="1560.12,-50.78 1570.1,-47.23 1560.08,-43.78 1560.12,-50.78"/>
</g>
<!-- replacement&#45;&gt;opresultwarn -->
<g id="edge75" class="edge">
<title>replacement&#45;&gt;opresultwarn</title>
<path fill="none" stroke="black" d="M1157.05,-855.72C1151.23,-824.9 1145.09,-769.61 1164.36,-727.96 1261.4,-518.19 1376.37,-510.89 1595.36,-436.98 1803.56,-366.71 2061.17,-343 2204.97,-335.03"/>
<polygon fill="black" stroke="black" points="2205.09,-338.53 2214.89,-334.49 2204.72,-331.54 2205.09,-338.53"/>
</g>
<!-- replacement&#45;&gt;parseCmdLine -->
<g id="edge69" class="edge">
<title>replacement&#45;&gt;parseCmdLine</title>
<path fill="none" stroke="black" d="M1184.63,-856.18C1204.28,-836.06 1233.08,-806.55 1254.86,-784.24"/>
<polygon fill="black" stroke="black" points="1257.3,-786.76 1261.78,-777.16 1252.29,-781.87 1257.3,-786.76"/>
</g>
<!-- replacement&#45;&gt;tempFile -->
<g id="edge74" class="edge">
<title>replacement&#45;&gt;tempFile</title>
<path fill="none" stroke="black" d="M1130.53,-856.95C1063.85,-810.74 909.12,-703.53 829.94,-648.66"/>
<polygon fill="black" stroke="black" points="832.13,-645.92 821.91,-643.1 828.14,-651.67 832.13,-645.92"/>
</g>
<!-- replacement&#45;&gt;variables -->
<g id="edge73" class="edge">
<title>replacement&#45;&gt;variables</title>
<path fill="none" stroke="black" d="M1239.87,-865.87C1383.55,-841.54 1689.47,-789.73 1831.29,-765.71"/>
<polygon fill="black" stroke="black" points="1831.67,-769.2 1840.95,-764.08 1830.5,-762.3 1831.67,-769.2"/>
</g>
<!-- replacement&#45;&gt;vartypes -->
<g id="edge68" class="edge">
<title>replacement&#45;&gt;vartypes</title>
<path fill="none" stroke="black" d="M1229.32,-862.61C1348.56,-833.67 1605.73,-772.38 1824.36,-727.96 2026.51,-686.88 2266.64,-646.25 2384.59,-626.82"/>
<polygon fill="black" stroke="black" points="2384.83,-630.33 2394.13,-625.26 2383.69,-623.43 2384.83,-630.33"/>
</g>
<!-- replacement&#45;&gt;warnings -->
<g id="edge76" class="edge">
<title>replacement&#45;&gt;warnings</title>
<path fill="none" stroke="black" d="M1158.29,-855.78C1154.86,-834.98 1150.22,-803.58 1148.36,-776.04 1146.92,-754.72 1147.37,-749.31 1148.36,-727.96 1152.7,-633.88 1129.56,-380.31 1187.36,-305.96 1243.11,-234.24 1347.97,-207.96 1422.01,-198.39"/>
<polygon fill="black" stroke="black" points="1422.14,-201.9 1431.65,-197.22 1421.3,-194.95 1422.14,-201.9"/>
</g>
<!-- runCommand&#45;&gt;env -->
<g id="edge34" class="edge">
<title>runCommand&#45;&gt;env</title>
<path fill="none" stroke="black" d="M2198.54,-1125.87C1986.22,-1101.41 1454.03,-1031.57 1025.36,-904.04 993,-894.42 792.97,-808.29 705.85,-770.57"/>
<polygon fill="black" stroke="black" points="707.26,-767.37 696.7,-766.61 704.48,-773.79 707.26,-767.37"/>
</g>
<!-- runCommand&#45;&gt;linebuffer -->
<g id="edge31" class="edge">
<title>runCommand&#45;&gt;linebuffer</title>
<path fill="none" stroke="black" d="M2211.78,-1121.15C1938.52,-1070.77 1063.66,-909.15 1058.36,-904.04 990.87,-839 994.58,-718.09 1001.99,-655.25"/>
<polygon fill="black" stroke="black" points="1005.41,-656.09 1003.21,-645.73 998.47,-655.2 1005.41,-656.09"/>
</g>
<!-- runCommand&#45;&gt;matches -->
<g id="edge32" class="edge">
<title>runCommand&#45;&gt;matches</title>
<path fill="none" stroke="black" d="M2203.05,-1124.05C2123.88,-1110.57 2007.22,-1083.46 1917.36,-1032.04 1869.43,-1004.62 1605,-736.29 1515.77,-645.13"/>
<polygon fill="black" stroke="black" points="1518.49,-642.91 1509,-638.21 1513.49,-647.8 1518.49,-642.91"/>
</g>
<!-- runCommand&#45;&gt;messages -->
<g id="edge39" class="edge">
<title>runCommand&#45;&gt;messages</title>
<path fill="none" stroke="black" d="M2392.44,-1129.12C2556.37,-1113.46 2886.16,-1063.08 3109.36,-904.04 3330.44,-746.51 3321.47,-562.73 3233.36,-305.96 3207.05,-229.27 3192.74,-200.42 3121.36,-161.98 3001.42,-97.38 2061.27,-60.5 1754.09,-50.09"/>
<polygon fill="black" stroke="black" points="1754.62,-46.6 1744.51,-49.76 1754.39,-53.6 1754.62,-46.6"/>
</g>
<!-- runCommand&#45;&gt;opresultwarn -->
<g id="edge87" class="edge">
<title>runCommand&#45;&gt;opresultwarn</title>
<path fill="none" stroke="black" d="M2334.48,-1114.54C2396.8,-1080.05 2510.88,-1005.7 2554.36,-904.04 2562.76,-884.39 2563.17,-875.43 2554.36,-855.96 2532.16,-806.92 2498.38,-816.92 2463.36,-776.04 2418.11,-723.23 2405.42,-708.5 2379.36,-644.02 2340.36,-547.56 2324.15,-424.4 2318.27,-365.46"/>
<polygon fill="black" stroke="black" points="2321.78,-365.35 2317.34,-355.73 2314.81,-366.01 2321.78,-365.35"/>
</g>
<!-- runCommand&#45;&gt;parseCmdLine -->
<g id="edge90" class="edge">
<title>runCommand&#45;&gt;parseCmdLine</title>
<path fill="none" stroke="black" d="M2190.08,-1131.17C2086.89,-1122.54 1925.75,-1098.57 1803.36,-1032.04 1776.83,-1017.62 1779.91,-1001.54 1755.36,-983.96 1684,-932.86 1452.95,-827.47 1343.66,-778.74"/>
<polygon fill="black" stroke="black" points="1345.1,-775.55 1334.54,-774.68 1342.25,-781.95 1345.1,-775.55"/>
</g>
<!-- runCommand&#45;&gt;parseNumber -->
<g id="edge42" class="edge">
<title>runCommand&#45;&gt;parseNumber</title>
<path fill="none" stroke="black" d="M2321.89,-1113.4C2345.19,-1094.12 2376.91,-1064.44 2396.36,-1032.04 2418.35,-995.41 2430.61,-947.4 2436.84,-915.44"/>
<polygon fill="black" stroke="black" points="2440.22,-916.4 2438.6,-905.93 2433.34,-915.13 2440.22,-916.4"/>
</g>
<!-- runCommand&#45;&gt;readjson -->
<g id="edge86" class="edge">
<title>runCommand&#45;&gt;readjson</title>
<path fill="none" stroke="black" d="M2369.09,-1120.1C2445.37,-1102.99 2564.9,-1072.69 2663.36,-1032.04 2703.84,-1015.33 2709.77,-1002.67 2749.36,-983.96 2817.79,-951.62 2899.32,-920.84 2953.27,-901.51"/>
<polygon fill="black" stroke="black" points="2954.35,-904.84 2962.59,-898.18 2952,-898.25 2954.35,-904.84"/>
</g>
<!-- runCommand&#45;&gt;regexes -->
<g id="edge33" class="edge">
<title>runCommand&#45;&gt;regexes</title>
<path fill="none" stroke="black" d="M2262.26,-1113.73C2238.62,-1094.64 2206.73,-1065.06 2188.36,-1032.04 2162.72,-985.98 2107.68,-630.38 2089.4,-508.69"/>
<polygon fill="black" stroke="black" points="2092.87,-508.2 2087.92,-498.82 2085.94,-509.23 2092.87,-508.2"/>
</g>
<!-- runFunction -->
<g id="node22" class="node">
<title>runFunction</title>
<g id="a_node22"><a xlink:href="runFunction.md" xlink:title="runFunction.md">
<ellipse fill="palegoldenrod" stroke="black" cx="2292.36" cy="-1008" rx="94.51" ry="24.08"/>
<text text-anchor="middle" x="2292.36" y="-1001.8" font-family="Times,serif" font-size="24.00">runFunction</text>
</a>
</g>
</g>
<!-- runCommand&#45;&gt;runFunction -->
<g id="edge85" class="edge">
<title>runCommand&#45;&gt;runFunction</title>
<path fill="none" stroke="black" d="M2292.36,-1112.71C2292.36,-1093.49 2292.36,-1065.94 2292.36,-1044.06"/>
<polygon fill="black" stroke="black" points="2295.86,-1044.09 2292.36,-1034.09 2288.86,-1044.09 2295.86,-1044.09"/>
</g>
<!-- runCommand&#45;&gt;unicodes -->
<g id="edge88" class="edge">
<title>runCommand&#45;&gt;unicodes</title>
<path fill="none" stroke="black" d="M2372.95,-1121.22C2459.98,-1104.15 2602.06,-1073.07 2720.36,-1032.04 2768.85,-1015.22 2777.34,-1002.1 2825.36,-983.96 2940.44,-940.49 3017,-1002.79 3090.36,-904.04 3116.84,-868.39 3091.38,-817.37 3069.12,-784.72"/>
<polygon fill="black" stroke="black" points="3072.18,-782.99 3063.55,-776.85 3066.47,-787.03 3072.18,-782.99"/>
</g>
<!-- runCommand&#45;&gt;utf8decoder -->
<g id="edge89" class="edge">
<title>runCommand&#45;&gt;utf8decoder</title>
<path fill="none" stroke="black" d="M2378,-1122.61C2446.51,-1108.7 2542.5,-1081.74 2613.36,-1032.04 2642.86,-1011.36 2800.57,-810.08 2812.36,-776.04 2825.95,-736.81 2824.11,-688.91 2820.17,-655.59"/>
<polygon fill="black" stroke="black" points="2823.67,-655.42 2818.9,-645.96 2816.73,-656.33 2823.67,-655.42"/>
</g>
<!-- runCommand&#45;&gt;variables -->
<g id="edge49" class="edge">
<title>runCommand&#45;&gt;variables</title>
<path fill="none" stroke="black" d="M2254.34,-1114.17C2222.96,-1095.02 2178.37,-1065.12 2145.36,-1032.04 2077.74,-964.29 2084.98,-927.47 2021.36,-855.96 1997.19,-828.8 1966.34,-801.51 1942.68,-781.85"/>
<polygon fill="black" stroke="black" points="1945.11,-779.32 1935.16,-775.67 1940.66,-784.73 1945.11,-779.32"/>
</g>
<!-- runCommand&#45;&gt;vartypes -->
<g id="edge38" class="edge">
<title>runCommand&#45;&gt;vartypes</title>
<path fill="none" stroke="black" d="M2392.84,-1129.42C2459.93,-1119.18 2543.59,-1093.87 2587.36,-1032.04 2632.57,-968.17 2621.28,-926.49 2587.36,-855.96 2562.7,-804.69 2516.63,-824.83 2487.36,-776.04 2464,-737.1 2458.11,-684.09 2456.98,-649.7"/>
<polygon fill="black" stroke="black" points="2460.48,-649.82 2456.79,-639.89 2453.49,-649.95 2460.48,-649.82"/>
</g>
<!-- runCommand&#45;&gt;warnings -->
<g id="edge40" class="edge">
<title>runCommand&#45;&gt;warnings</title>
<path fill="none" stroke="black" d="M2246.49,-1115.03C2206.58,-1095.87 2147.99,-1065.49 2101.36,-1032.04 1847.25,-849.77 1804.83,-765.43 1644.36,-497.02 1607.1,-434.71 1595.67,-420.01 1565.36,-354.04 1545.75,-311.36 1527.56,-260.27 1516.47,-227.25"/>
<polygon fill="black" stroke="black" points="1519.81,-226.19 1513.33,-217.81 1513.16,-228.4 1519.81,-226.19"/>
</g>
<!-- runFunction&#45;&gt;matches -->
<g id="edge55" class="edge">
<title>runFunction&#45;&gt;matches</title>
<path fill="none" stroke="black" d="M2249.59,-986.2C2111.98,-919.27 1681.08,-709.7 1535.2,-638.75"/>
<polygon fill="black" stroke="black" points="1537.08,-635.78 1526.56,-634.55 1534.02,-642.07 1537.08,-635.78"/>
</g>
<!-- runFunction&#45;&gt;messages -->
<g id="edge50" class="edge">
<title>runFunction&#45;&gt;messages</title>
<path fill="none" stroke="black" d="M2387,-1006.12C2573.71,-1002.59 2980.88,-985.5 3090.36,-904.04 3203.22,-820.07 3219.36,-755.68 3219.36,-615 3219.36,-615 3219.36,-615 3219.36,-329 3219.36,-223.08 3145.66,-206.08 3049.36,-161.98 2818.04,-56.04 2030.66,-46.52 1754.24,-46.53"/>
<polygon fill="black" stroke="black" points="1754.56,-43.03 1744.56,-46.54 1754.56,-50.03 1754.56,-43.03"/>
</g>
<!-- runFunction&#45;&gt;opresultwarn -->
<g id="edge78" class="edge">
<title>runFunction&#45;&gt;opresultwarn</title>
<path fill="none" stroke="black" d="M2283.45,-983.58C2267.42,-939.26 2235.36,-839.77 2235.36,-753 2235.36,-753 2235.36,-753 2235.36,-613 2235.36,-520.12 2276.02,-416.33 2299.37,-364.41"/>
<polygon fill="black" stroke="black" points="2302.46,-366.06 2303.44,-355.51 2296.09,-363.15 2302.46,-366.06"/>
</g>
<!-- runFunction&#45;&gt;parseNumber -->
<g id="edge54" class="edge">
<title>runFunction&#45;&gt;parseNumber</title>
<path fill="none" stroke="black" d="M2319.18,-984.47C2343.63,-963.93 2379.94,-933.44 2406.8,-910.87"/>
<polygon fill="black" stroke="black" points="2408.96,-913.63 2414.36,-904.52 2404.45,-908.27 2408.96,-913.63"/>
</g>
<!-- runFunction&#45;&gt;readjson -->
<g id="edge84" class="edge">
<title>runFunction&#45;&gt;readjson</title>
<path fill="none" stroke="black" d="M2376.13,-996.47C2498.46,-980.41 2732.79,-947.07 2929.36,-904.04 2936.07,-902.57 2943.04,-900.89 2949.97,-899.11"/>
<polygon fill="black" stroke="black" points="2950.53,-902.59 2959.31,-896.66 2948.75,-895.82 2950.53,-902.59"/>
</g>
<!-- runFunction&#45;&gt;regexes -->
<g id="edge53" class="edge">
<title>runFunction&#45;&gt;regexes</title>
<path fill="none" stroke="black" d="M2259.28,-985.16C2234.16,-966.68 2201.02,-937.84 2183.36,-904.04 2116.76,-776.55 2175.82,-722.01 2135.36,-583.98 2127.62,-557.59 2115.1,-529.41 2104.28,-507.44"/>
<polygon fill="black" stroke="black" points="2107.43,-505.91 2099.81,-498.54 2101.17,-509.05 2107.43,-505.91"/>
</g>
<!-- runFunction&#45;&gt;replacement -->
<g id="edge77" class="edge">
<title>runFunction&#45;&gt;replacement</title>
<path fill="none" stroke="black" d="M2206.96,-997.48C2000.75,-974.48 1476.6,-916.04 1259.17,-891.79"/>
<polygon fill="black" stroke="black" points="1259.63,-888.32 1249.3,-890.69 1258.85,-895.28 1259.63,-888.32"/>
</g>
<!-- signatures -->
<g id="node24" class="node">
<title>signatures</title>
<g id="a_node24"><a xlink:href="signatures.md" xlink:title="signatures.md">
<ellipse fill="palegoldenrod" stroke="black" cx="2723.36" cy="-752" rx="79.81" ry="24.08"/>
<text text-anchor="middle" x="2723.36" y="-745.8" font-family="Times,serif" font-size="24.00">signatures</text>
</a>
</g>
</g>
<!-- runFunction&#45;&gt;signatures -->
<g id="edge66" class="edge">
<title>runFunction&#45;&gt;signatures</title>
<path fill="none" stroke="black" d="M2354.55,-989.45C2409.54,-972.36 2490.69,-943.25 2554.36,-904.04 2609.65,-870 2663.88,-817.08 2695.44,-783.77"/>
<polygon fill="black" stroke="black" points="2697.65,-786.54 2701.93,-776.85 2692.54,-781.76 2697.65,-786.54"/>
</g>
<!-- runFunction&#45;&gt;unicodes -->
<g id="edge63" class="edge">
<title>runFunction&#45;&gt;unicodes</title>
<path fill="none" stroke="black" d="M2348.59,-988.3C2410.36,-967.74 2512.48,-933.68 2600.36,-904.04 2737.84,-857.68 2899.04,-802.68 2984.34,-773.53"/>
<polygon fill="black" stroke="black" points="2985.35,-776.88 2993.68,-770.34 2983.08,-770.26 2985.35,-776.88"/>
</g>
<!-- runFunction&#45;&gt;vartypes -->
<g id="edge52" class="edge">
<title>runFunction&#45;&gt;vartypes</title>
<path fill="none" stroke="black" d="M2296.48,-983.44C2302.16,-953.26 2313.63,-899.64 2330.36,-855.96 2360.31,-777.75 2409.61,-692.43 2437.14,-647.27"/>
<polygon fill="black" stroke="black" points="2439.96,-649.37 2442.21,-639.02 2433.99,-645.71 2439.96,-649.37"/>
</g>
<!-- runFunction&#45;&gt;warnings -->
<g id="edge51" class="edge">
<title>runFunction&#45;&gt;warnings</title>
<path fill="none" stroke="black" d="M2279.15,-984.04C2267.99,-963.65 2252.42,-932.73 2243.36,-904.04 2211.66,-803.66 2231.52,-518.04 2164.36,-436.98 2017.91,-260.22 1730.75,-211.49 1588.82,-198.08"/>
<polygon fill="black" stroke="black" points="1589.4,-194.62 1579.13,-197.2 1588.77,-201.59 1589.4,-194.62"/>
</g>
<!-- runner -->
<g id="node23" class="node">
<title>runner</title>
<g id="a_node23"><a xlink:href="runner.md" xlink:title="runner.md">
<polygon fill="palegreen" stroke="black" points="2708.8,-1666.21 2708.8,-1687.79 2672.81,-1703.04 2621.91,-1703.04 2585.91,-1687.79 2585.91,-1666.21 2621.91,-1650.96 2672.81,-1650.96 2708.8,-1666.21"/>
<polygon fill="none" stroke="black" points="2712.82,-1663.56 2712.82,-1690.44 2673.63,-1707.04 2621.09,-1707.04 2581.9,-1690.44 2581.9,-1663.56 2621.09,-1646.96 2673.63,-1646.96 2712.82,-1663.56"/>
<text text-anchor="middle" x="2647.36" y="-1670.8" font-family="Times,serif" font-size="24.00">runner</text>
</a>
</g>
</g>
<!-- signatures&#45;&gt;messages -->
<g id="edge65" class="edge">
<title>signatures&#45;&gt;messages</title>
<path fill="none" stroke="black" d="M2715.56,-727.68C2705.79,-695.31 2691.35,-635 2700.36,-583.98 2717.45,-487.22 2898.37,-234.76 2832.36,-161.98 2760.41,-82.65 2022.79,-56.21 1754.36,-49.18"/>
<polygon fill="black" stroke="black" points="1754.69,-45.69 1744.6,-48.93 1754.51,-52.69 1754.69,-45.69"/>
</g>
<!-- signatures&#45;&gt;vartypes -->
<g id="edge64" class="edge">
<title>signatures&#45;&gt;vartypes</title>
<path fill="none" stroke="black" d="M2683.82,-730.79C2636.3,-706.49 2556.58,-665.73 2505.51,-639.62"/>
<polygon fill="black" stroke="black" points="2507.23,-636.57 2496.73,-635.13 2504.04,-642.8 2507.23,-636.57"/>
</g>
<!-- startingvars&#45;&gt;args -->
<g id="edge95" class="edge">
<title>startingvars&#45;&gt;args</title>
<path fill="none" stroke="black" d="M1607.54,-1370.36C1484.96,-1293.54 1076.17,-1031.69 991.36,-904.04 910.15,-781.82 867.14,-724.2 910.36,-583.98 920.58,-550.83 943.87,-518.68 962.53,-496.67"/>
<polygon fill="black" stroke="black" points="965,-499.15 968.93,-489.31 959.73,-494.55 965,-499.15"/>
</g>
<!-- startingvars&#45;&gt;codefile -->
<g id="edge111" class="edge">
<title>startingvars&#45;&gt;codefile</title>
<path fill="none" stroke="black" d="M1644.77,-1368.6C1646.74,-1349.5 1649.56,-1322.24 1651.79,-1300.62"/>
<polygon fill="black" stroke="black" points="1655.26,-1301.09 1652.8,-1290.78 1648.29,-1300.37 1655.26,-1301.09"/>
</g>
<!-- startingvars&#45;&gt;env -->
<g id="edge97" class="edge">
<title>startingvars&#45;&gt;env</title>
<path fill="none" stroke="black" d="M1596.37,-1371.91C1551.13,-1351.86 1480.31,-1319.7 1420.36,-1289.04 1277.9,-1216.2 1250.65,-1182.11 1106.36,-1112.96 1019.52,-1071.34 983.65,-1088.12 905.36,-1032.04 879.07,-1013.21 744.31,-849.71 689.05,-782.09"/>
<polygon fill="black" stroke="black" points="692.1,-780.28 683.06,-774.75 686.67,-784.71 692.1,-780.28"/>
</g>
<!-- startingvars&#45;&gt;messages -->
<g id="edge96" class="edge">
<title>startingvars&#45;&gt;messages</title>
<path fill="none" stroke="black" d="M1583.35,-1374.41C1519.83,-1355.06 1416.07,-1322.28 1328.36,-1289.04 1193.91,-1238.09 226.26,-891.34 140.36,-776.04 97.3,-718.25 121.36,-687.07 121.36,-615 121.36,-615 121.36,-615 121.36,-329 121.36,-243.38 145.02,-207.78 217.36,-161.98 330.4,-90.41 1255.44,-58.27 1560.32,-49.55"/>
<polygon fill="black" stroke="black" points="1560.36,-53.05 1570.25,-49.27 1560.16,-46.05 1560.36,-53.05"/>
</g>
<!-- startingvars&#45;&gt;opresultwarn -->
<g id="edge101" class="edge">
<title>startingvars&#45;&gt;opresultwarn</title>
<path fill="none" stroke="black" d="M1623.58,-1369.17C1608.58,-1349.36 1588.74,-1319.2 1580.36,-1289.04 1574.64,-1268.45 1577.03,-1262.07 1580.36,-1240.96 1594.98,-1148.22 1770.95,-500.2 1840.36,-436.98 1894.12,-388.01 2090.32,-356.98 2213.12,-341.9"/>
<polygon fill="black" stroke="black" points="2213.39,-345.4 2222.9,-340.72 2212.55,-338.45 2213.39,-345.4"/>
</g>
<!-- startingvars&#45;&gt;readjson -->
<g id="edge100" class="edge">
<title>startingvars&#45;&gt;readjson</title>
<path fill="none" stroke="black" d="M1733.05,-1392.54C1934.74,-1389.89 2430,-1361.73 2777.36,-1161.04 2882.34,-1100.39 2961.5,-974.32 2994.92,-914.24"/>
<polygon fill="black" stroke="black" points="2997.98,-915.94 2999.71,-905.48 2991.84,-912.57 2997.98,-915.94"/>
</g>
<!-- startingvars&#45;&gt;runFunction -->
<g id="edge112" class="edge">
<title>startingvars&#45;&gt;runFunction</title>
<path fill="none" stroke="black" d="M1691.27,-1372.47C1738,-1353.2 1809.91,-1321.93 1869.36,-1289.04 2016.98,-1207.37 2180.52,-1091.13 2253.5,-1037.78"/>
<polygon fill="black" stroke="black" points="2255.15,-1040.91 2261.14,-1032.18 2251.01,-1035.27 2255.15,-1040.91"/>
</g>
<!-- startingvars&#45;&gt;variables -->
<g id="edge98" class="edge">
<title>startingvars&#45;&gt;variables</title>
<path fill="none" stroke="black" d="M1679.46,-1370.66C1740.49,-1332.46 1855.36,-1246.19 1855.36,-1138 1855.36,-1138 1855.36,-1138 1855.36,-1007 1855.36,-926.84 1880.07,-835.2 1895.09,-786.9"/>
<polygon fill="black" stroke="black" points="1898.36,-788.18 1898.04,-777.59 1891.69,-786.07 1898.36,-788.18"/>
</g>
<!-- startingvars&#45;&gt;vartypes -->
<g id="edge99" class="edge">
<title>startingvars&#45;&gt;vartypes</title>
<path fill="none" stroke="black" d="M1713.66,-1377.84C1922.07,-1334.71 2521.36,-1197.78 2613.36,-1032.04 2626.06,-1009.16 2642.17,-925.17 2611.36,-855.96 2590.14,-808.29 2555.28,-818.79 2525.36,-776.04 2497.52,-736.28 2477.93,-683.35 2467.14,-649.22"/>
<polygon fill="black" stroke="black" points="2470.55,-648.39 2464.27,-639.86 2463.86,-650.45 2470.55,-648.39"/>
</g>
<!-- statictea -->
<g id="node26" class="node">
<title>statictea</title>
<g id="a_node26"><a xlink:href="statictea.md" xlink:title="statictea.md">
<polygon fill="palegoldenrod" stroke="black" points="2152.29,-1667.75 2235.36,-1647.06 2318.42,-1667.75 2318.35,-1701.22 2152.37,-1701.22 2152.29,-1667.75"/>
<text text-anchor="middle" x="2235.36" y="-1670.8" font-family="Times,serif" font-size="24.00">statictea</text>
</a>
</g>
</g>
<!-- statictea&#45;&gt;args -->
<g id="edge129" class="edge">
<title>statictea&#45;&gt;args</title>
<path fill="none" stroke="black" d="M2151.94,-1676.51C1860.94,-1677.31 892.91,-1671.42 606.36,-1561.02 494.1,-1517.77 393.36,-1514.3 393.36,-1394 393.36,-1394 393.36,-1394 393.36,-1007 393.36,-957.09 507.55,-617.68 544.36,-583.98 602.53,-530.71 836.01,-490.58 939.52,-475.04"/>
<polygon fill="black" stroke="black" points="939.72,-478.55 949.1,-473.62 938.7,-471.62 939.72,-478.55"/>
</g>
<!-- statictea&#45;&gt;env -->
<g id="edge133" class="edge">
<title>statictea&#45;&gt;env</title>
<path fill="none" stroke="black" d="M2152.03,-1673.74C1849.79,-1665 822.16,-1630.42 693.36,-1561.02 506.94,-1460.58 512.7,-1323.89 531.36,-1112.96 541.69,-996.12 540.1,-961.46 591.36,-855.96 604.4,-829.12 624.37,-801.84 640.28,-782.11"/>
<polygon fill="black" stroke="black" points="642.89,-784.46 646.53,-774.51 637.48,-780.01 642.89,-784.46"/>
</g>
<!-- statictea&#45;&gt;gethelp -->
<g id="edge131" class="edge">
<title>statictea&#45;&gt;gethelp</title>
<path fill="none" stroke="black" d="M2283.55,-1658.66C2297.52,-1654.22 2312.91,-1649.88 2327.36,-1646.98 2739.53,-1564.16 2858.19,-1648.67 3269.36,-1561.02 3276.45,-1559.51 3283.77,-1557.59 3290.99,-1555.46"/>
<polygon fill="black" stroke="black" points="3291.89,-1558.85 3300.41,-1552.54 3289.82,-1552.16 3291.89,-1558.85"/>
</g>
<!-- statictea&#45;&gt;messages -->
<g id="edge130" class="edge">
<title>statictea&#45;&gt;messages</title>
<path fill="none" stroke="black" d="M2283.05,-1658.68C2297.15,-1654.19 2312.73,-1649.82 2327.36,-1646.98 2448.47,-1623.49 3345.58,-1646.68 3434.36,-1561.02 3488.12,-1509.15 3453.36,-1468.71 3453.36,-1394 3453.36,-1394 3453.36,-1394 3453.36,-329 3453.36,-214.55 3363.27,-205.36 3257.36,-161.98 3118.51,-105.11 2079.56,-62.51 1754.37,-50.45"/>
<polygon fill="black" stroke="black" points="1754.74,-46.96 1744.61,-50.09 1754.48,-53.96 1754.74,-46.96"/>
</g>
<!-- statictea&#45;&gt;opresultwarn -->
<g id="edge134" class="edge">
<title>statictea&#45;&gt;opresultwarn</title>
<path fill="none" stroke="black" d="M2283.56,-1658.73C2297.54,-1654.29 2312.92,-1649.93 2327.36,-1646.98 2517.9,-1607.96 3027.45,-1653.86 3198.36,-1561.02 3270.32,-1521.93 3280.28,-1491.96 3313.36,-1417.04 3340.81,-1354.86 3337.36,-1333.97 3337.36,-1266 3337.36,-1266 3337.36,-1266 3337.36,-1007 3337.36,-707.36 3249.88,-561.53 2977.36,-436.98 2796.91,-354.5 2563.26,-334.87 2427.26,-330.97"/>
<polygon fill="black" stroke="black" points="2427.63,-327.47 2417.54,-330.71 2427.45,-334.47 2427.63,-327.47"/>
</g>
<!-- statictea&#45;&gt;parseCommandLine -->
<g id="edge14" class="edge">
<title>statictea&#45;&gt;parseCommandLine</title>
<path fill="none" stroke="black" d="M2151.92,-1675.82C1809.96,-1674.43 526.7,-1662.44 379.36,-1561.02 312.18,-1514.78 303.36,-1475.56 303.36,-1394 303.36,-1394 303.36,-1394 303.36,-1007 303.36,-928.73 300.96,-836.92 299.48,-787.95"/>
<polygon fill="black" stroke="black" points="302.98,-787.86 299.18,-777.97 295.98,-788.07 302.98,-787.86"/>
</g>
<!-- statictea&#45;&gt;processTemplate -->
<g id="edge115" class="edge">
<title>statictea&#45;&gt;processTemplate</title>
<path fill="none" stroke="black" d="M2151.96,-1667.48C1913.04,-1643.06 1225.35,-1572.78 946.23,-1544.25"/>
<polygon fill="black" stroke="black" points="946.68,-1540.78 936.37,-1543.24 945.96,-1547.74 946.68,-1540.78"/>
</g>
<!-- statictea&#45;&gt;repl -->
<g id="edge146" class="edge">
<title>statictea&#45;&gt;repl</title>
<path fill="none" stroke="black" d="M2235.36,-1646.86C2235.36,-1623.69 2235.36,-1591.22 2235.36,-1566.71"/>
<polygon fill="black" stroke="black" points="2238.86,-1566.91 2235.36,-1556.91 2231.86,-1566.91 2238.86,-1566.91"/>
</g>
<!-- timer -->
<g id="node28" class="node">
<title>timer</title>
<g id="a_node28"><a xlink:href="timer.md" xlink:title="timer.md">
<polygon fill="palegreen" stroke="black" points="3589.45,-1520.21 3589.45,-1541.79 3558.93,-1557.04 3515.78,-1557.04 3485.27,-1541.79 3485.27,-1520.21 3515.78,-1504.96 3558.93,-1504.96 3589.45,-1520.21"/>
<polygon fill="none" stroke="black" points="3593.45,-1517.74 3593.45,-1544.26 3559.88,-1561.04 3514.84,-1561.04 3481.27,-1544.26 3481.27,-1517.74 3514.84,-1500.96 3559.88,-1500.96 3593.45,-1517.74"/>
<text text-anchor="middle" x="3537.36" y="-1524.8" font-family="Times,serif" font-size="24.00">timer</text>
</a>
</g>
</g>
<!-- statictea&#45;&gt;timer -->
<g id="edge147" class="edge">
<title>statictea&#45;&gt;timer</title>
<path fill="none" stroke="black" d="M2283.05,-1658.66C2297.14,-1654.17 2312.72,-1649.8 2327.36,-1646.98 2826.28,-1550.81 2973.12,-1678.91 3467.36,-1561.02 3473.2,-1559.63 3479.18,-1557.81 3485.07,-1555.76"/>
<polygon fill="black" stroke="black" points="3485.94,-1559.17 3494.09,-1552.4 3483.5,-1552.61 3485.94,-1559.17"/>
</g>
<!-- updateTemplate -->
<g id="node30" class="node">
<title>updateTemplate</title>
<g id="a_node30"><a xlink:href="updateTemplate.md" xlink:title="updateTemplate.md">
<ellipse fill="palegoldenrod" stroke="black" cx="1244.36" cy="-1531" rx="119.5" ry="24.08"/>
<text text-anchor="middle" x="1244.36" y="-1524.8" font-family="Times,serif" font-size="24.00">updateTemplate</text>
</a>
</g>
</g>
<!-- statictea&#45;&gt;updateTemplate -->
<g id="edge128" class="edge">
<title>statictea&#45;&gt;updateTemplate</title>
<path fill="none" stroke="black" d="M2160.87,-1665.18C1986.81,-1639.88 1552.88,-1576.83 1350.91,-1547.48"/>
<polygon fill="black" stroke="black" points="1351.6,-1544.05 1341.2,-1546.07 1350.59,-1550.97 1351.6,-1544.05"/>
</g>
<!-- version -->
<g id="node34" class="node">
<title>version</title>
<g id="a_node34"><a xlink:href="version.md" xlink:title="version.md">
<polygon fill="palegreen" stroke="black" points="2051.03,-603.21 2051.03,-624.79 2011.97,-640.04 1956.74,-640.04 1917.69,-624.79 1917.69,-603.21 1956.74,-587.96 2011.97,-587.96 2051.03,-603.21"/>
<polygon fill="none" stroke="black" points="2055.03,-600.48 2055.03,-627.52 2012.73,-644.04 1955.99,-644.04 1913.68,-627.52 1913.68,-600.48 1955.99,-583.96 2012.73,-583.96 2055.03,-600.48"/>
<text text-anchor="middle" x="1984.36" y="-607.8" font-family="Times,serif" font-size="24.00">version</text>
</a>
</g>
</g>
<!-- statictea&#45;&gt;version -->
<g id="edge132" class="edge">
<title>statictea&#45;&gt;version</title>
<path fill="none" stroke="black" d="M2286.33,-1659.46C2299.64,-1655.27 2314.01,-1650.85 2327.36,-1646.98 2722.28,-1532.32 3217.36,-1805.22 3217.36,-1394 3217.36,-1394 3217.36,-1394 3217.36,-1264 3217.36,-999.44 2317.21,-713.17 2055.14,-635.44"/>
<polygon fill="black" stroke="black" points="2056.28,-632.12 2045.7,-632.65 2054.29,-638.84 2056.28,-632.12"/>
</g>
<!-- unicodes&#45;&gt;messages -->
<g id="edge60" class="edge">
<title>unicodes&#45;&gt;messages</title>
<path fill="none" stroke="black" d="M3047.56,-727.57C3053.88,-679.18 3067.36,-564.62 3067.36,-468 3067.36,-468 3067.36,-468 3067.36,-329 3067.36,-283.02 3268.3,-332.71 2904.36,-161.98 2700.57,-66.38 2010.6,-50.21 1754.28,-47.52"/>
<polygon fill="black" stroke="black" points="1754.32,-44.02 1744.29,-47.42 1754.26,-51.02 1754.32,-44.02"/>
</g>
<!-- unicodes&#45;&gt;opresultid -->
<g id="edge58" class="edge">
<title>unicodes&#45;&gt;opresultid</title>
<path fill="none" stroke="black" d="M3039.61,-727.52C3025.38,-657.22 2983.08,-448.2 2966.31,-365.36"/>
<polygon fill="black" stroke="black" points="2969.79,-364.91 2964.38,-355.8 2962.93,-366.29 2969.79,-364.91"/>
</g>
<!-- unicodes&#45;&gt;opresultwarn -->
<g id="edge59" class="edge">
<title>unicodes&#45;&gt;opresultwarn</title>
<path fill="none" stroke="black" d="M3038.42,-727.65C3028.18,-691.88 3003.86,-623.53 2959.36,-583.98 2875.8,-509.72 2814.03,-562.4 2723.36,-497.02 2695.65,-477.04 2703.72,-456.02 2675.36,-436.98 2596.61,-384.1 2491,-357.09 2414.55,-343.63"/>
<polygon fill="black" stroke="black" points="2415.42,-340.23 2404.98,-341.99 2414.24,-347.13 2415.42,-340.23"/>
</g>
<!-- unicodes&#45;&gt;utf8decoder -->
<g id="edge61" class="edge">
<title>unicodes&#45;&gt;utf8decoder</title>
<path fill="none" stroke="black" d="M3009.78,-730.64C2973.11,-709.05 2914.58,-674.6 2870.94,-648.9"/>
<polygon fill="black" stroke="black" points="2872.73,-645.89 2862.34,-643.84 2869.18,-651.92 2872.73,-645.89"/>
</g>
<!-- unicodes&#45;&gt;vartypes -->
<g id="edge62" class="edge">
<title>unicodes&#45;&gt;vartypes</title>
<path fill="none" stroke="black" d="M2986.47,-737.59C2877.19,-712.27 2641.08,-657.57 2524.82,-630.63"/>
<polygon fill="black" stroke="black" points="2525.96,-627.3 2515.43,-628.45 2524.38,-634.12 2525.96,-627.3"/>
</g>
<!-- updateTemplate&#45;&gt;args -->
<g id="edge116" class="edge">
<title>updateTemplate&#45;&gt;args</title>
<path fill="none" stroke="black" d="M1176.2,-1510.82C1120.98,-1492.91 1043.28,-1462.12 986.36,-1417.04 729.17,-1213.38 668.11,-1100.61 620.36,-776.04 611.96,-718.97 634.75,-585.96 636.36,-583.98 710.97,-492.1 859.95,-472.35 938.38,-468.53"/>
<polygon fill="black" stroke="black" points="938.06,-472.04 947.91,-468.14 937.78,-465.05 938.06,-472.04"/>
</g>
<!-- updateTemplate&#45;&gt;env -->
<g id="edge118" class="edge">
<title>updateTemplate&#45;&gt;env</title>
<path fill="none" stroke="black" d="M1193.46,-1508.8C1149.9,-1489.1 1087.02,-1456.84 1040.36,-1417.04 909.78,-1305.67 916.17,-1241.42 802.36,-1112.96 768.61,-1074.87 745.4,-1076.89 721.36,-1032.04 678.41,-951.91 668.27,-842.81 665.96,-787.79"/>
<polygon fill="black" stroke="black" points="669.47,-787.96 665.63,-778.09 662.48,-788.21 669.47,-787.96"/>
</g>
<!-- updateTemplate&#45;&gt;linebuffer -->
<g id="edge120" class="edge">
<title>updateTemplate&#45;&gt;linebuffer</title>
<path fill="none" stroke="black" d="M1206.08,-1507.78C1173.63,-1487.44 1127.52,-1454.82 1096.36,-1417.04 974.82,-1269.69 948.95,-1218.01 905.36,-1032.04 872.72,-892.82 946.75,-728.21 985.97,-654.33"/>
<polygon fill="black" stroke="black" points="988.88,-656.32 990.54,-645.85 982.72,-653 988.88,-656.32"/>
</g>
<!-- updateTemplate&#45;&gt;matches -->
<g id="edge119" class="edge">
<title>updateTemplate&#45;&gt;matches</title>
<path fill="none" stroke="black" d="M1248.76,-1506.63C1261.04,-1442.77 1297.87,-1260.29 1344.36,-1112.96 1392.8,-959.43 1442.87,-933.29 1477.36,-776.04 1486.74,-733.29 1488.02,-682.71 1487.59,-649.8"/>
<polygon fill="black" stroke="black" points="1491.1,-649.96 1487.4,-640.03 1484.1,-650.1 1491.1,-649.96"/>
</g>
<!-- updateTemplate&#45;&gt;messages -->
<g id="edge117" class="edge">
<title>updateTemplate&#45;&gt;messages</title>
<path fill="none" stroke="black" d="M1172.52,-1511.44C1106.24,-1492.72 1006.31,-1460.41 926.36,-1417.04 516.35,-1194.64 358.17,-1161.4 95.36,-776.04 53.13,-714.13 45.36,-689.94 45.36,-615 45.36,-615 45.36,-615 45.36,-329 45.36,-253.87 16.1,-212.88 71.36,-161.98 180.91,-61.06 1232.92,-48.58 1560.49,-47.15"/>
<polygon fill="black" stroke="black" points="1560.34,-50.65 1570.32,-47.11 1560.31,-43.65 1560.34,-50.65"/>
</g>
<!-- updateTemplate&#45;&gt;opresultwarn -->
<g id="edge127" class="edge">
<title>updateTemplate&#45;&gt;opresultwarn</title>
<path fill="none" stroke="black" d="M1361.4,-1525.76C1553.69,-1516.87 1947.53,-1490.61 2272.36,-1417.04 2608.91,-1340.82 2755.51,-1399.06 3005.36,-1161.04 3149.89,-1023.36 3195.66,-914.4 3124.36,-727.96 3093.67,-647.71 3063.21,-636.68 2995.36,-583.98 2814.12,-443.21 2546.43,-374.67 2407.14,-346.86"/>
<polygon fill="black" stroke="black" points="2408.09,-343.47 2397.6,-344.98 2406.73,-350.34 2408.09,-343.47"/>
</g>
<!-- updateTemplate&#45;&gt;parseCmdLine -->
<g id="edge121" class="edge">
<title>updateTemplate&#45;&gt;parseCmdLine</title>
<path fill="none" stroke="black" d="M1239.96,-1506.55C1234.61,-1475.21 1226.74,-1417.94 1230.36,-1368.96 1230.48,-1367.33 1299.24,-905.67 1299.36,-904.04 1302.3,-864.16 1296.83,-818.45 1291.89,-787.86"/>
<polygon fill="black" stroke="black" points="1295.34,-787.29 1290.22,-778.02 1288.44,-788.46 1295.34,-787.29"/>
</g>
<!-- updateTemplate&#45;&gt;replacement -->
<g id="edge125" class="edge">
<title>updateTemplate&#45;&gt;replacement</title>
<path fill="none" stroke="black" d="M1204.87,-1508C1174.36,-1488.53 1134.4,-1457.02 1116.36,-1417.04 1037.42,-1242.09 1114.85,-1002.62 1148.47,-914.93"/>
<polygon fill="black" stroke="black" points="1151.7,-916.29 1152.08,-905.71 1145.18,-913.75 1151.7,-916.29"/>
</g>
<!-- updateTemplate&#45;&gt;runCommand -->
<g id="edge122" class="edge">
<title>updateTemplate&#45;&gt;runCommand</title>
<path fill="none" stroke="black" d="M1363.97,-1529.94C1585.45,-1527.53 2048.25,-1511.04 2173.36,-1417.04 2253.1,-1357.13 2279.98,-1233.16 2288.58,-1172.69"/>
<polygon fill="black" stroke="black" points="2292.02,-1173.35 2289.86,-1162.98 2285.08,-1172.43 2292.02,-1173.35"/>
</g>
<!-- updateTemplate&#45;&gt;startingvars -->
<g id="edge126" class="edge">
<title>updateTemplate&#45;&gt;startingvars</title>
<path fill="none" stroke="black" d="M1303.51,-1509.79C1376.78,-1484.75 1501.2,-1442.24 1577.16,-1416.28"/>
<polygon fill="black" stroke="black" points="1578.24,-1419.61 1586.57,-1413.06 1575.97,-1412.99 1578.24,-1419.61"/>
</g>
<!-- updateTemplate&#45;&gt;variables -->
<g id="edge123" class="edge">
<title>updateTemplate&#45;&gt;variables</title>
<path fill="none" stroke="black" d="M1260.52,-1506.78C1314.49,-1429.71 1494.72,-1176.41 1664.36,-983.96 1717.77,-923.37 1734.83,-911.61 1793.36,-855.96 1819.96,-830.66 1850.81,-802.64 1873.55,-782.23"/>
<polygon fill="black" stroke="black" points="1875.6,-785.09 1880.71,-775.81 1870.93,-779.87 1875.6,-785.09"/>
</g>
<!-- updateTemplate&#45;&gt;vartypes -->
<g id="edge124" class="edge">
<title>updateTemplate&#45;&gt;vartypes</title>
<path fill="none" stroke="black" d="M1360.79,-1525.08C1583.13,-1514.27 2059.32,-1483.89 2208.36,-1417.04 2440.91,-1312.73 2532.3,-1266.02 2633.36,-1032.04 2643.99,-1007.42 2659.17,-920.5 2632.36,-855.96 2613.2,-809.84 2583.72,-815.7 2553.36,-776.04 2538.32,-756.41 2537.96,-749.24 2525.36,-727.96 2509.28,-700.8 2490.79,-670.13 2477.16,-647.61"/>
<polygon fill="black" stroke="black" points="2480.22,-645.91 2472.05,-639.17 2474.23,-649.53 2480.22,-645.91"/>
</g>
<!-- variables&#45;&gt;args -->
<g id="edge47" class="edge">
<title>variables&#45;&gt;args</title>
<path fill="none" stroke="black" d="M1871.95,-730.64C1811.39,-695.66 1680.92,-624.04 1562.36,-583.98 1375.06,-520.69 1141.05,-486.57 1039.85,-473.87"/>
<polygon fill="black" stroke="black" points="1040.32,-470.4 1029.97,-472.64 1039.46,-477.35 1040.32,-470.4"/>
</g>
<!-- variables&#45;&gt;messages -->
<g id="edge45" class="edge">
<title>variables&#45;&gt;messages</title>
<path fill="none" stroke="black" d="M1888.97,-728.54C1873.77,-707.77 1852.31,-675.43 1840.36,-644.02 1812.11,-569.78 1809.36,-547.44 1809.36,-468 1809.36,-468 1809.36,-468 1809.36,-329 1809.36,-231.73 1738.42,-135.76 1693.47,-84.7"/>
<polygon fill="black" stroke="black" points="1696.24,-82.54 1686.96,-77.43 1691.02,-87.21 1696.24,-82.54"/>
</g>
<!-- variables&#45;&gt;opresultwarn -->
<g id="edge48" class="edge">
<title>variables&#45;&gt;opresultwarn</title>
<path fill="none" stroke="black" d="M1893.82,-727.85C1865.11,-671.35 1802.19,-524.6 1871.36,-436.98 1912.98,-384.25 2094.19,-354.88 2211.86,-341.06"/>
<polygon fill="black" stroke="black" points="2212,-344.56 2221.54,-339.94 2211.2,-337.61 2212,-344.56"/>
</g>
<!-- variables&#45;&gt;vartypes -->
<g id="edge43" class="edge">
<title>variables&#45;&gt;vartypes</title>
<path fill="none" stroke="black" d="M1963.77,-736.83C2066.63,-711.44 2281.77,-658.34 2390.87,-631.41"/>
<polygon fill="black" stroke="black" points="2391.38,-634.89 2400.25,-629.09 2389.71,-628.09 2391.38,-634.89"/>
</g>
<!-- variables&#45;&gt;version -->
<g id="edge44" class="edge">
<title>variables&#45;&gt;version</title>
<path fill="none" stroke="black" d="M1919.59,-727.93C1931.15,-707.77 1948.18,-678.08 1961.88,-654.2"/>
<polygon fill="black" stroke="black" points="1964.83,-656.09 1966.76,-645.68 1958.75,-652.61 1964.83,-656.09"/>
</g>
<!-- variables&#45;&gt;warnings -->
<g id="edge46" class="edge">
<title>variables&#45;&gt;warnings</title>
<path fill="none" stroke="black" d="M1880.45,-729.15C1856.83,-708.53 1821.69,-676.08 1795.36,-644.02 1676.29,-499.05 1564.97,-302.84 1522.99,-225.89"/>
<polygon fill="black" stroke="black" points="1526.1,-224.29 1518.26,-217.17 1519.95,-227.63 1526.1,-224.29"/>
</g>
<!-- vartypes&#45;&gt;messages -->
<g id="edge35" class="edge">
<title>vartypes&#45;&gt;messages</title>
<path fill="none" stroke="black" d="M2466.33,-589.88C2486.78,-532.88 2529.47,-384.6 2454.36,-305.96 2264.66,-107.33 1921.31,-60.83 1754.1,-50.1"/>
<polygon fill="black" stroke="black" points="1754.56,-46.62 1744.37,-49.51 1754.13,-53.61 1754.56,-46.62"/>
</g>
<!-- vartypes&#45;&gt;opresultwarn -->
<g id="edge37" class="edge">
<title>vartypes&#45;&gt;opresultwarn</title>
<path fill="none" stroke="black" d="M2445.74,-589.92C2420.67,-540.14 2361.43,-422.49 2332.23,-364.5"/>
<polygon fill="black" stroke="black" points="2335.44,-363.11 2327.82,-355.75 2329.19,-366.25 2335.44,-363.11"/>
</g>
<!-- vartypes&#45;&gt;warnings -->
<g id="edge36" class="edge">
<title>vartypes&#45;&gt;warnings</title>
<path fill="none" stroke="black" d="M2463.33,-589.79C2476.49,-532.59 2501.1,-383.88 2424.36,-305.96 2366.18,-246.89 1804.92,-209.66 1589.22,-197.44"/>
<polygon fill="black" stroke="black" points="1589.67,-193.96 1579.49,-196.89 1589.27,-200.95 1589.67,-193.96"/>
</g>
<!-- warnings&#45;&gt;messages -->
<g id="edge2" class="edge">
<title>warnings&#45;&gt;messages</title>
<path fill="none" stroke="red" d="M1528.78,-168.82C1552.57,-146.27 1589.87,-110.94 1618.18,-84.12"/>
<polygon fill="red" stroke="red" points="1620.32,-86.91 1625.18,-77.49 1615.51,-81.83 1620.32,-86.91"/>
</g>
</g>
</svg>
