<?xml version="1.0" encoding="UTF-8" standalone="no"?>
<!DOCTYPE svg PUBLIC "-//W3C//DTD SVG 1.1//EN"
 "http://www.w3.org/Graphics/SVG/1.1/DTD/svg11.dtd">
<!-- Generated by graphviz version 2.40.1 (20161225.0304)
 -->
<!-- Title: statictea Pages: 1 -->
<svg width="720pt" height="352pt"
 viewBox="0.00 0.00 720.00 352.35" xmlns="http://www.w3.org/2000/svg" xmlns:xlink="http://www.w3.org/1999/xlink">
<g id="graph0" class="graph" transform="scale(.2445 .2445) rotate(0) translate(4 1437.0083)">
<title>statictea</title>
<polygon fill="#ffffff" stroke="transparent" points="-4,4 -4,-1437.0083 2940.5712,-1437.0083 2940.5712,4 -4,4"/>
<!-- runFunction -->
<g id="node1" class="node">
<title>runFunction</title>
<g id="a_node1"><a xlink:href="runFunction.md" xlink:title="runFunction.md">
<ellipse fill="#eee8aa" stroke="#000000" cx="863.1137" cy="-950" rx="94.055" ry="22.7556"/>
<text text-anchor="middle" x="863.1137" y="-942.8" font-family="Times,serif" font-size="24.00" fill="#000000">runFunction</text>
</a>
</g>
</g>
<!-- parseNumber -->
<g id="node3" class="node">
<title>parseNumber</title>
<g id="a_node3"><a xlink:href="parseNumber.md" xlink:title="parseNumber.md">
<polygon fill="#98fb98" stroke="#000000" points="1391.4942,-794.8581 1391.4942,-815.1419 1326.249,-829.4846 1233.9784,-829.4846 1168.7332,-815.1419 1168.7332,-794.8581 1233.9784,-780.5154 1326.249,-780.5154 1391.4942,-794.8581"/>
<polygon fill="none" stroke="#000000" points="1395.501,-791.6442 1395.501,-818.3558 1326.6851,-833.4835 1233.5424,-833.4835 1164.7265,-818.3558 1164.7265,-791.6442 1233.5424,-776.5165 1326.6851,-776.5165 1395.501,-791.6442"/>
<text text-anchor="middle" x="1280.1137" y="-797.8" font-family="Times,serif" font-size="24.00" fill="#000000">parseNumber</text>
</a>
</g>
</g>
<!-- runFunction&#45;&gt;parseNumber -->
<g id="edge56" class="edge">
<title>runFunction&#45;&gt;parseNumber</title>
<path fill="none" stroke="#000000" d="M916.7755,-931.3406C989.2461,-906.141 1118.8922,-861.0602 1202.1261,-832.118"/>
<polygon fill="#000000" stroke="#000000" points="1203.4924,-835.3486 1211.7881,-828.7583 1201.1933,-828.7369 1203.4924,-835.3486"/>
</g>
<!-- regexes -->
<g id="node4" class="node">
<title>regexes</title>
<g id="a_node4"><a xlink:href="regexes.md" xlink:title="regexes.md">
<polygon fill="#98fb98" stroke="#000000" points="1895.3008,-503.8581 1895.3008,-524.1419 1855.3577,-538.4846 1798.8697,-538.4846 1758.9267,-524.1419 1758.9267,-503.8581 1798.8697,-489.5154 1855.3577,-489.5154 1895.3008,-503.8581"/>
<polygon fill="none" stroke="#000000" points="1899.2919,-501.0434 1899.2919,-526.9566 1856.0513,-542.4835 1798.1762,-542.4835 1754.9356,-526.9566 1754.9356,-501.0434 1798.1762,-485.5165 1856.0513,-485.5165 1899.2919,-501.0434"/>
<text text-anchor="middle" x="1827.1137" y="-506.8" font-family="Times,serif" font-size="24.00" fill="#000000">regexes</text>
</a>
</g>
</g>
<!-- runFunction&#45;&gt;regexes -->
<g id="edge55" class="edge">
<title>runFunction&#45;&gt;regexes</title>
<path fill="none" stroke="#000000" d="M894.4099,-928.4037C946.7191,-893.0224 1056.0508,-822.0927 1156.1137,-776.5083 1277.9866,-720.9881 1317.0359,-729.4919 1442.1137,-681.6274 1560.7843,-636.2149 1696.3281,-574.9369 1770.7599,-540.448"/>
<polygon fill="#000000" stroke="#000000" points="1772.3721,-543.5584 1779.9687,-536.1731 1769.4247,-537.2092 1772.3721,-543.5584"/>
</g>
<!-- unicodes -->
<g id="node8" class="node">
<title>unicodes</title>
<g id="a_node8"><a xlink:href="unicodes.md" xlink:title="unicodes.md">
<ellipse fill="#eee8aa" stroke="#000000" cx="405.1137" cy="-514" rx="71.7778" ry="22.7556"/>
<text text-anchor="middle" x="405.1137" y="-506.8" font-family="Times,serif" font-size="24.00" fill="#000000">unicodes</text>
</a>
</g>
</g>
<!-- runFunction&#45;&gt;unicodes -->
<g id="edge67" class="edge">
<title>runFunction&#45;&gt;unicodes</title>
<path fill="none" stroke="#000000" d="M799.39,-933.2438C742.7325,-915.7982 660.2502,-883.8695 603.1137,-833.4917 526.1816,-765.66 537.3476,-723.4265 483.1137,-636.3726 463.6555,-605.139 441.0096,-569.7099 425.1478,-545.0405"/>
<polygon fill="#000000" stroke="#000000" points="427.9846,-542.981 419.6294,-536.4663 422.0984,-546.7695 427.9846,-542.981"/>
</g>
<!-- vartypes -->
<g id="node11" class="node">
<title>vartypes</title>
<g id="a_node11"><a xlink:href="vartypes.md" xlink:title="vartypes.md">
<ellipse fill="#eee8aa" stroke="#000000" cx="896.1137" cy="-358" rx="68.6102" ry="22.7556"/>
<text text-anchor="middle" x="896.1137" y="-350.8" font-family="Times,serif" font-size="24.00" fill="#000000">vartypes</text>
</a>
</g>
</g>
<!-- runFunction&#45;&gt;vartypes -->
<g id="edge54" class="edge">
<title>runFunction&#45;&gt;vartypes</title>
<path fill="none" stroke="#000000" d="M831.6207,-928.6059C804.2387,-907.9219 766.466,-873.8391 750.1137,-833.4917 740.601,-810.0202 745.8832,-801.4784 750.1137,-776.5083 763.3922,-698.1331 850.3294,-473.683 883.3862,-389.9803"/>
<polygon fill="#000000" stroke="#000000" points="886.7167,-391.0759 887.1419,-380.4896 880.2078,-388.5002 886.7167,-391.0759"/>
</g>
<!-- funtypes -->
<g id="node15" class="node">
<title>funtypes</title>
<g id="a_node15"><a xlink:href="funtypes.md" xlink:title="funtypes.md">
<ellipse fill="#eee8aa" stroke="#000000" cx="945.1137" cy="-659" rx="69.5163" ry="22.7556"/>
<text text-anchor="middle" x="945.1137" y="-651.8" font-family="Times,serif" font-size="24.00" fill="#000000">funtypes</text>
</a>
</g>
</g>
<!-- runFunction&#45;&gt;funtypes -->
<g id="edge72" class="edge">
<title>runFunction&#45;&gt;funtypes</title>
<path fill="none" stroke="#000000" d="M879.3049,-927.6342C894.7119,-905.0728 917.1248,-868.6417 928.1137,-833.4917 942.9701,-785.9714 945.7816,-727.9363 945.8754,-692.2261"/>
<polygon fill="#000000" stroke="#000000" points="949.3739,-691.8803 945.8276,-681.8966 942.374,-691.9128 949.3739,-691.8803"/>
</g>
<!-- warnings -->
<g id="node17" class="node">
<title>warnings</title>
<g id="a_node17"><a xlink:href="warnings.md" xlink:title="warnings.md">
<ellipse fill="#eee8aa" stroke="#000000" cx="1134.1137" cy="-203" rx="73.5561" ry="22.7556"/>
<text text-anchor="middle" x="1134.1137" y="-195.8" font-family="Times,serif" font-size="24.00" fill="#000000">warnings</text>
</a>
</g>
</g>
<!-- runFunction&#45;&gt;warnings -->
<g id="edge53" class="edge">
<title>runFunction&#45;&gt;warnings</title>
<path fill="none" stroke="#000000" d="M881.4938,-927.6273C899.8206,-904.765 928.1813,-867.8414 949.1137,-833.4917 988.2868,-769.2096 1000.0729,-752.9629 1024.1137,-681.6274 1052.4684,-597.4917 1042.6976,-572.1444 1062.1137,-485.5083 1082.5562,-394.2924 1110.9766,-287.6524 1125.2241,-235.3184"/>
<polygon fill="#000000" stroke="#000000" points="1128.621,-236.1651 1127.8781,-225.5963 1121.8681,-234.3216 1128.621,-236.1651"/>
</g>
<!-- signatures -->
<g id="node21" class="node">
<title>signatures</title>
<g id="a_node21"><a xlink:href="signatures.md" xlink:title="signatures.md">
<ellipse fill="#eee8aa" stroke="#000000" cx="839.1137" cy="-805" rx="80.2483" ry="22.7556"/>
<text text-anchor="middle" x="839.1137" y="-797.8" font-family="Times,serif" font-size="24.00" fill="#000000">signatures</text>
</a>
</g>
</g>
<!-- runFunction&#45;&gt;signatures -->
<g id="edge71" class="edge">
<title>runFunction&#45;&gt;signatures</title>
<path fill="none" stroke="#000000" d="M859.3637,-927.3438C855.3891,-903.3303 849.074,-865.1767 844.5529,-837.8617"/>
<polygon fill="#000000" stroke="#000000" points="848.0027,-837.2699 842.9166,-827.9757 841.0966,-838.413 848.0027,-837.2699"/>
</g>
<!-- opresultwarn -->
<g id="node23" class="node">
<title>opresultwarn</title>
<g id="a_node23"><a xlink:href="opresultwarn.md" xlink:title="opresultwarn.md">
<ellipse fill="#eee8aa" stroke="#000000" cx="603.1137" cy="-358" rx="99.824" ry="22.7556"/>
<text text-anchor="middle" x="603.1137" y="-350.8" font-family="Times,serif" font-size="24.00" fill="#000000">opresultwarn</text>
</a>
</g>
</g>
<!-- runFunction&#45;&gt;opresultwarn -->
<g id="edge73" class="edge">
<title>runFunction&#45;&gt;opresultwarn</title>
<path fill="none" stroke="#000000" d="M796.6099,-933.9084C745.0326,-917.686 676.5524,-887.1576 641.1137,-833.4917 547.7752,-692.1463 579.3278,-473.1339 595.7866,-390.7875"/>
<polygon fill="#000000" stroke="#000000" points="599.2616,-391.2655 597.8521,-380.7648 592.4056,-389.8525 599.2616,-391.2655"/>
</g>
<!-- messages -->
<g id="node24" class="node">
<title>messages</title>
<g id="a_node24"><a xlink:href="messages.md" xlink:title="messages.md">
<polygon fill="#98fb98" stroke="#000000" points="1580.8526,-37.8581 1580.8526,-58.1419 1532.9711,-72.4846 1465.2564,-72.4846 1417.3749,-58.1419 1417.3749,-37.8581 1465.2564,-23.5154 1532.9711,-23.5154 1580.8526,-37.8581"/>
<polygon fill="none" stroke="#000000" points="1584.8583,-34.883 1584.8583,-61.117 1533.5591,-76.4835 1464.6684,-76.4835 1413.3692,-61.117 1413.3692,-34.883 1464.6684,-19.5165 1533.5591,-19.5165 1584.8583,-34.883"/>
<text text-anchor="middle" x="1499.1137" y="-40.8" font-family="Times,serif" font-size="24.00" fill="#000000">messages</text>
</a>
</g>
</g>
<!-- runFunction&#45;&gt;messages -->
<g id="edge52" class="edge">
<title>runFunction&#45;&gt;messages</title>
<path fill="none" stroke="#000000" d="M828.6045,-928.8023C799.1351,-908.4791 758.7947,-874.8251 741.1137,-833.4917 718.4181,-780.4354 648.3611,-689.3173 792.1137,-329.5083 824.1362,-249.3569 836.3417,-220.9185 909.1137,-174.5083 990.086,-122.8684 1257.716,-80.3053 1403.0966,-60.3062"/>
<polygon fill="#000000" stroke="#000000" points="1403.9144,-63.727 1413.3484,-58.9054 1402.9667,-56.7915 1403.9144,-63.727"/>
</g>
<!-- matches -->
<g id="node25" class="node">
<title>matches</title>
<g id="a_node25"><a xlink:href="matches.md" xlink:title="matches.md">
<ellipse fill="#eee8aa" stroke="#000000" cx="1860.1137" cy="-659" rx="66.8311" ry="22.7556"/>
<text text-anchor="middle" x="1860.1137" y="-651.8" font-family="Times,serif" font-size="24.00" fill="#000000">matches</text>
</a>
</g>
</g>
<!-- runFunction&#45;&gt;matches -->
<g id="edge57" class="edge">
<title>runFunction&#45;&gt;matches</title>
<path fill="none" stroke="#000000" d="M941.1016,-937.0865C1047.0986,-918.6585 1242.0208,-881.6492 1404.1137,-833.4917 1555.1155,-788.6294 1727.1839,-716.9484 1810.1592,-681.0268"/>
<polygon fill="#000000" stroke="#000000" points="1811.5707,-684.2297 1819.3494,-677.0365 1808.7828,-677.8088 1811.5707,-684.2297"/>
</g>
<!-- opresultid -->
<g id="node2" class="node">
<title>opresultid</title>
<g id="a_node2"><a xlink:href="opresultid.md" xlink:title="opresultid.md">
<ellipse fill="#eee8aa" stroke="#000000" cx="104.1137" cy="-358" rx="79.3758" ry="22.7556"/>
<text text-anchor="middle" x="104.1137" y="-350.8" font-family="Times,serif" font-size="24.00" fill="#000000">opresultid</text>
</a>
</g>
</g>
<!-- opresultid&#45;&gt;messages -->
<g id="edge58" class="edge">
<title>opresultid&#45;&gt;messages</title>
<path fill="none" stroke="#000000" d="M107.0982,-335.0924C113.64,-295.0823 133.2303,-213.0628 187.1137,-174.5083 285.5202,-104.0968 1116.93,-63.6768 1402.9303,-51.7546"/>
<polygon fill="#000000" stroke="#000000" points="1403.4346,-55.2368 1413.2811,-51.3257 1403.1447,-48.2428 1403.4346,-55.2368"/>
</g>
<!-- opresult -->
<g id="node30" class="node">
<title>opresult</title>
<g id="a_node30"><a xlink:href="opresult.md" xlink:title="opresult.md">
<polygon fill="#98fb98" stroke="#000000" points="342.4664,-192.8581 342.4664,-213.1419 300.669,-227.4846 241.5585,-227.4846 199.7611,-213.1419 199.7611,-192.8581 241.5585,-178.5154 300.669,-178.5154 342.4664,-192.8581"/>
<polygon fill="none" stroke="#000000" points="346.4624,-190.0019 346.4624,-215.9981 301.335,-231.4835 240.8924,-231.4835 195.7651,-215.9981 195.7651,-190.0019 240.8924,-174.5165 301.335,-174.5165 346.4624,-190.0019"/>
<text text-anchor="middle" x="271.1137" y="-195.8" font-family="Times,serif" font-size="24.00" fill="#000000">opresult</text>
</a>
</g>
</g>
<!-- opresultid&#45;&gt;opresult -->
<g id="edge59" class="edge">
<title>opresultid&#45;&gt;opresult</title>
<path fill="none" stroke="#000000" d="M127.6866,-336.121C154.9881,-310.7812 200.3551,-268.6741 232.756,-238.6015"/>
<polygon fill="#000000" stroke="#000000" points="235.3341,-240.9839 240.2827,-231.6157 230.5721,-235.8532 235.3341,-240.9839"/>
</g>
<!-- cmdline -->
<g id="node5" class="node">
<title>cmdline</title>
<g id="a_node5"><a xlink:href="cmdline.md" xlink:title="cmdline.md">
<polygon fill="#98fb98" stroke="#000000" points="2670.4489,-503.8581 2670.4489,-524.1419 2628.6617,-538.4846 2569.5657,-538.4846 2527.7785,-524.1419 2527.7785,-503.8581 2569.5657,-489.5154 2628.6617,-489.5154 2670.4489,-503.8581"/>
<polygon fill="none" stroke="#000000" points="2674.4444,-501.0021 2674.4444,-526.9979 2629.3278,-542.4835 2568.8996,-542.4835 2523.783,-526.9979 2523.783,-501.0021 2568.8996,-485.5165 2629.3278,-485.5165 2674.4444,-501.0021"/>
<text text-anchor="middle" x="2599.1137" y="-506.8" font-family="Times,serif" font-size="24.00" fill="#000000">cmdline</text>
</a>
</g>
</g>
<!-- parseCmdLine -->
<g id="node6" class="node">
<title>parseCmdLine</title>
<g id="a_node6"><a xlink:href="parseCmdLine.md" xlink:title="parseCmdLine.md">
<ellipse fill="#eee8aa" stroke="#000000" cx="2278.1137" cy="-805" rx="111.4463" ry="22.7556"/>
<text text-anchor="middle" x="2278.1137" y="-797.8" font-family="Times,serif" font-size="24.00" fill="#000000">parseCmdLine</text>
</a>
</g>
</g>
<!-- parseCmdLine&#45;&gt;regexes -->
<g id="edge20" class="edge">
<title>parseCmdLine&#45;&gt;regexes</title>
<path fill="none" stroke="#000000" d="M2225.0597,-785.0728C2170.6333,-763.4731 2084.6156,-726.0691 2017.1137,-681.6274 1957.9446,-642.6717 1898.0286,-586.3912 1861.7212,-549.9997"/>
<polygon fill="#000000" stroke="#000000" points="1863.8649,-547.1905 1854.3407,-542.5494 1858.8919,-552.1169 1863.8649,-547.1905"/>
</g>
<!-- env -->
<g id="node7" class="node">
<title>env</title>
<g id="a_node7"><a xlink:href="env.md" xlink:title="env.md">
<ellipse fill="#eee8aa" stroke="#000000" cx="2374.1137" cy="-659" rx="35.6342" ry="22.7556"/>
<text text-anchor="middle" x="2374.1137" y="-651.8" font-family="Times,serif" font-size="24.00" fill="#000000">env</text>
</a>
</g>
</g>
<!-- parseCmdLine&#45;&gt;env -->
<g id="edge19" class="edge">
<title>parseCmdLine&#45;&gt;env</title>
<path fill="none" stroke="#000000" d="M2292.9033,-782.5075C2309.4191,-757.3898 2336.2236,-716.6245 2354.4841,-688.8535"/>
<polygon fill="#000000" stroke="#000000" points="2357.519,-690.6083 2360.0887,-680.3298 2351.6701,-686.7624 2357.519,-690.6083"/>
</g>
<!-- parseCmdLine&#45;&gt;messages -->
<g id="edge21" class="edge">
<title>parseCmdLine&#45;&gt;messages</title>
<path fill="none" stroke="#000000" d="M2240.0613,-783.7147C2170.7758,-741.8241 2031.1137,-641.5625 2031.1137,-514 2031.1137,-514 2031.1137,-514 2031.1137,-358 2031.1137,-275.7535 2061.8629,-235.8843 2007.1137,-174.5083 1953.0129,-113.8591 1726.5783,-76.2078 1594.9968,-59.0209"/>
<polygon fill="#000000" stroke="#000000" points="1595.2765,-55.5281 1584.9108,-57.7193 1594.3805,-62.4705 1595.2765,-55.5281"/>
</g>
<!-- parseCmdLine&#45;&gt;matches -->
<g id="edge22" class="edge">
<title>parseCmdLine&#45;&gt;matches</title>
<path fill="none" stroke="#000000" d="M2221.7404,-785.3098C2141.922,-757.4306 1996.8007,-706.7423 1916.8078,-678.8022"/>
<polygon fill="#000000" stroke="#000000" points="1917.5064,-675.3389 1906.9116,-675.3457 1915.1981,-681.9474 1917.5064,-675.3389"/>
</g>
<!-- tempFile -->
<g id="node10" class="node">
<title>tempFile</title>
<g id="a_node10"><a xlink:href="tempFile.md" xlink:title="tempFile.md">
<polygon fill="#98fb98" stroke="#000000" points="2218.7117,-503.8581 2218.7117,-524.1419 2173.2559,-538.4846 2108.9716,-538.4846 2063.5158,-524.1419 2063.5158,-503.8581 2108.9716,-489.5154 2173.2559,-489.5154 2218.7117,-503.8581"/>
<polygon fill="none" stroke="#000000" points="2222.7142,-500.9275 2222.7142,-527.0725 2173.8729,-542.4835 2108.3546,-542.4835 2059.5133,-527.0725 2059.5133,-500.9275 2108.3546,-485.5165 2173.8729,-485.5165 2222.7142,-500.9275"/>
<text text-anchor="middle" x="2141.1137" y="-506.8" font-family="Times,serif" font-size="24.00" fill="#000000">tempFile</text>
</a>
</g>
</g>
<!-- env&#45;&gt;tempFile -->
<g id="edge10" class="edge">
<title>env&#45;&gt;tempFile</title>
<path fill="none" stroke="#000000" d="M2348.2884,-642.9284C2310.587,-619.4662 2239.7292,-575.3701 2191.4882,-545.3489"/>
<polygon fill="#000000" stroke="#000000" points="2193.0964,-542.2273 2182.7569,-539.9153 2189.3978,-548.1705 2193.0964,-542.2273"/>
</g>
<!-- env&#45;&gt;warnings -->
<g id="edge12" class="edge">
<title>env&#45;&gt;warnings</title>
<path fill="none" stroke="#000000" d="M2356.5855,-639.0902C2336.5129,-616.1271 2302.8272,-577.0876 2275.1137,-542.4917 2255.2776,-517.7295 2259.6152,-501.3294 2232.1137,-485.5083 1912.7707,-301.7963 1754.6764,-514.2277 1409.1137,-386.4917 1311.2013,-350.2988 1213.6095,-272.9171 1165.3029,-231.1396"/>
<polygon fill="#000000" stroke="#000000" points="1167.5377,-228.4445 1157.7019,-224.5066 1162.9352,-233.7187 1167.5377,-228.4445"/>
</g>
<!-- args -->
<g id="node22" class="node">
<title>args</title>
<g id="a_node22"><a xlink:href="args.md" xlink:title="args.md">
<polygon fill="#98fb98" stroke="#000000" points="2406.6629,-503.8581 2406.6629,-524.1419 2381.7382,-538.4846 2346.4893,-538.4846 2321.5645,-524.1419 2321.5645,-503.8581 2346.4893,-489.5154 2381.7382,-489.5154 2406.6629,-503.8581"/>
<polygon fill="none" stroke="#000000" points="2410.6651,-501.5466 2410.6651,-526.4534 2382.8083,-542.4835 2345.4192,-542.4835 2317.5623,-526.4534 2317.5623,-501.5466 2345.4192,-485.5165 2382.8083,-485.5165 2410.6651,-501.5466"/>
<text text-anchor="middle" x="2364.1137" y="-506.8" font-family="Times,serif" font-size="24.00" fill="#000000">args</text>
</a>
</g>
</g>
<!-- env&#45;&gt;args -->
<g id="edge13" class="edge">
<title>env&#45;&gt;args</title>
<path fill="none" stroke="#000000" d="M2372.5512,-636.3438C2371.014,-614.0533 2368.6364,-579.5793 2366.7965,-552.8998"/>
<polygon fill="#000000" stroke="#000000" points="2370.2752,-552.4694 2366.0954,-542.734 2363.2918,-552.9511 2370.2752,-552.4694"/>
</g>
<!-- env&#45;&gt;messages -->
<g id="edge11" class="edge">
<title>env&#45;&gt;messages</title>
<path fill="none" stroke="#000000" d="M2361.5543,-637.6122C2342.0106,-604.5705 2302.8459,-539.3056 2267.1137,-485.5083 2173.1536,-344.0446 2186.2974,-268.8887 2045.1137,-174.5083 1972.1642,-125.7419 1730.9867,-82.8958 1594.837,-61.8341"/>
<polygon fill="#000000" stroke="#000000" points="1595.2328,-58.3539 1584.8171,-60.294 1594.1693,-65.2726 1595.2328,-58.3539"/>
</g>
<!-- unicodes&#45;&gt;opresultid -->
<g id="edge60" class="edge">
<title>unicodes&#45;&gt;opresultid</title>
<path fill="none" stroke="#000000" d="M367.6005,-494.5579C312.9995,-466.2598 211.6416,-413.7287 151.8088,-382.719"/>
<polygon fill="#000000" stroke="#000000" points="153.065,-379.428 142.576,-377.9339 149.8439,-385.6429 153.065,-379.428"/>
</g>
<!-- utf8decoder -->
<g id="node16" class="node">
<title>utf8decoder</title>
<g id="a_node16"><a xlink:href="utf8decoder.md" xlink:title="utf8decoder.md">
<polygon fill="#98fb98" stroke="#000000" points="405.0433,-347.8581 405.0433,-368.1419 346.5059,-382.4846 263.7215,-382.4846 205.1842,-368.1419 205.1842,-347.8581 263.7215,-333.5154 346.5059,-333.5154 405.0433,-347.8581"/>
<polygon fill="none" stroke="#000000" points="409.0419,-344.7208 409.0419,-371.2792 346.9886,-386.4835 263.2388,-386.4835 201.1855,-371.2792 201.1855,-344.7208 263.2388,-329.5165 346.9886,-329.5165 409.0419,-344.7208"/>
<text text-anchor="middle" x="305.1137" y="-350.8" font-family="Times,serif" font-size="24.00" fill="#000000">utf8decoder</text>
</a>
</g>
</g>
<!-- unicodes&#45;&gt;utf8decoder -->
<g id="edge66" class="edge">
<title>unicodes&#45;&gt;utf8decoder</title>
<path fill="none" stroke="#000000" d="M390.7862,-491.649C374.6638,-466.4981 348.2163,-425.2401 328.9654,-395.2086"/>
<polygon fill="#000000" stroke="#000000" points="331.835,-393.1995 323.4917,-386.6696 325.9418,-396.9772 331.835,-393.1995"/>
</g>
<!-- unicodes&#45;&gt;warnings -->
<g id="edge65" class="edge">
<title>unicodes&#45;&gt;warnings</title>
<path fill="none" stroke="#000000" d="M413.1932,-491.1797C429.403,-446.6612 466.685,-350.7185 494.1137,-329.5083 580.604,-262.6266 900.6409,-224.6716 1052.7717,-210.0519"/>
<polygon fill="#000000" stroke="#000000" points="1053.3634,-213.5115 1062.9874,-209.081 1052.7011,-206.5429 1053.3634,-213.5115"/>
</g>
<!-- unicodes&#45;&gt;opresultwarn -->
<g id="edge63" class="edge">
<title>unicodes&#45;&gt;opresultwarn</title>
<path fill="none" stroke="#000000" d="M431.8169,-492.9611C466.8014,-465.3976 528.2703,-416.9675 567.2769,-386.2351"/>
<polygon fill="#000000" stroke="#000000" points="569.5531,-388.8976 575.242,-379.9596 565.221,-383.3991 569.5531,-388.8976"/>
</g>
<!-- unicodes&#45;&gt;messages -->
<g id="edge64" class="edge">
<title>unicodes&#45;&gt;messages</title>
<path fill="none" stroke="#000000" d="M405.592,-491.1768C407.476,-453.7569 415.9958,-378.6178 453.1137,-329.5083 535.1545,-220.9629 589.0989,-220.6059 717.1137,-174.5083 954.2805,-89.1054 1252.7027,-61.1445 1403.091,-52.1508"/>
<polygon fill="#000000" stroke="#000000" points="1403.4411,-55.6364 1413.2205,-51.5604 1403.0337,-48.6483 1403.4411,-55.6364"/>
</g>
<!-- variables -->
<g id="node9" class="node">
<title>variables</title>
<g id="a_node9"><a xlink:href="variables.md" xlink:title="variables.md">
<ellipse fill="#eee8aa" stroke="#000000" cx="1360.1137" cy="-659" rx="72.6337" ry="22.7556"/>
<text text-anchor="middle" x="1360.1137" y="-651.8" font-family="Times,serif" font-size="24.00" fill="#000000">variables</text>
</a>
</g>
</g>
<!-- variables&#45;&gt;vartypes -->
<g id="edge39" class="edge">
<title>variables&#45;&gt;vartypes</title>
<path fill="none" stroke="#000000" d="M1345.3669,-636.6164C1320.5215,-600.4277 1267.0248,-528.767 1206.1137,-485.5083 1129.3935,-431.022 1025.9126,-394.4954 960.0858,-374.9786"/>
<polygon fill="#000000" stroke="#000000" points="960.8349,-371.5513 950.2546,-372.1073 958.8724,-378.2705 960.8349,-371.5513"/>
</g>
<!-- tostring -->
<g id="node12" class="node">
<title>tostring</title>
<g id="a_node12"><a xlink:href="tostring.md" xlink:title="tostring.md">
<ellipse fill="#eee8aa" stroke="#000000" cx="1134.1137" cy="-514" rx="63.3406" ry="22.7556"/>
<text text-anchor="middle" x="1134.1137" y="-506.8" font-family="Times,serif" font-size="24.00" fill="#000000">tostring</text>
</a>
</g>
</g>
<!-- variables&#45;&gt;tostring -->
<g id="edge45" class="edge">
<title>variables&#45;&gt;tostring</title>
<path fill="none" stroke="#000000" d="M1328.2128,-638.5326C1287.6041,-612.4783 1217.4617,-567.4755 1173.5443,-539.2984"/>
<polygon fill="#000000" stroke="#000000" points="1175.4336,-536.3521 1165.127,-533.8979 1171.6536,-542.2438 1175.4336,-536.3521"/>
</g>
<!-- variables&#45;&gt;warnings -->
<g id="edge42" class="edge">
<title>variables&#45;&gt;warnings</title>
<path fill="none" stroke="#000000" d="M1354.6385,-636.2653C1340.754,-581.0838 1300.8328,-436.7175 1239.1137,-329.5083 1218.1685,-293.1253 1186.631,-256.7894 1163.5865,-232.4564"/>
<polygon fill="#000000" stroke="#000000" points="1165.8755,-229.7866 1156.4271,-224.993 1160.8239,-234.6324 1165.8755,-229.7866"/>
</g>
<!-- variables&#45;&gt;args -->
<g id="edge46" class="edge">
<title>variables&#45;&gt;args</title>
<path fill="none" stroke="#000000" d="M1429.075,-651.68C1576.8443,-635.5797 1934.7631,-594.3623 2232.1137,-542.4917 2256.9601,-538.1575 2284.2346,-532.4345 2307.5088,-527.2553"/>
<polygon fill="#000000" stroke="#000000" points="2308.5679,-530.6047 2317.5576,-524.9981 2307.0337,-523.7749 2308.5679,-530.6047"/>
</g>
<!-- variables&#45;&gt;messages -->
<g id="edge41" class="edge">
<title>variables&#45;&gt;messages</title>
<path fill="none" stroke="#000000" d="M1365.309,-636.1632C1386.1679,-544.474 1463.9699,-202.4812 1490.3223,-86.6443"/>
<polygon fill="#000000" stroke="#000000" points="1493.7592,-87.3145 1492.5648,-76.7872 1486.9336,-85.7617 1493.7592,-87.3145"/>
</g>
<!-- version -->
<g id="node26" class="node">
<title>version</title>
<g id="a_node26"><a xlink:href="version.md" xlink:title="version.md">
<polygon fill="#98fb98" stroke="#000000" points="1663.266,-503.8581 1663.266,-524.1419 1624.5149,-538.4846 1569.7126,-538.4846 1530.9614,-524.1419 1530.9614,-503.8581 1569.7126,-489.5154 1624.5149,-489.5154 1663.266,-503.8581"/>
<polygon fill="none" stroke="#000000" points="1667.2559,-501.0721 1667.2559,-526.9279 1625.2281,-542.4835 1568.9994,-542.4835 1526.9716,-526.9279 1526.9716,-501.0721 1568.9994,-485.5165 1625.2281,-485.5165 1667.2559,-501.0721"/>
<text text-anchor="middle" x="1597.1137" y="-506.8" font-family="Times,serif" font-size="24.00" fill="#000000">version</text>
</a>
</g>
</g>
<!-- variables&#45;&gt;version -->
<g id="edge40" class="edge">
<title>variables&#45;&gt;version</title>
<path fill="none" stroke="#000000" d="M1393.0676,-638.8384C1433.4548,-614.1289 1502.2292,-572.0517 1548.646,-543.6533"/>
<polygon fill="#000000" stroke="#000000" points="1550.6248,-546.5457 1557.3284,-538.3413 1546.9716,-540.5746 1550.6248,-546.5457"/>
</g>
<!-- vartypes&#45;&gt;warnings -->
<g id="edge34" class="edge">
<title>vartypes&#45;&gt;warnings</title>
<path fill="none" stroke="#000000" d="M927.2281,-337.7365C970.0494,-309.8486 1047.1746,-259.62 1094.1979,-228.9956"/>
<polygon fill="#000000" stroke="#000000" points="1096.1433,-231.9055 1102.6128,-223.5153 1092.3231,-226.0398 1096.1433,-231.9055"/>
</g>
<!-- tostring&#45;&gt;vartypes -->
<g id="edge44" class="edge">
<title>tostring&#45;&gt;vartypes</title>
<path fill="none" stroke="#000000" d="M1103.4866,-493.9251C1060.5834,-465.8037 982.5707,-414.6693 935.4281,-383.7691"/>
<polygon fill="#000000" stroke="#000000" points="937.2825,-380.7997 927.0003,-378.245 933.4451,-386.6542 937.2825,-380.7997"/>
</g>
<!-- tostring&#45;&gt;warnings -->
<g id="edge43" class="edge">
<title>tostring&#45;&gt;warnings</title>
<path fill="none" stroke="#000000" d="M1134.1137,-491.1314C1134.1137,-436.7633 1134.1137,-299.5988 1134.1137,-236.1445"/>
<polygon fill="#000000" stroke="#000000" points="1137.6138,-235.9021 1134.1137,-225.9021 1130.6138,-235.9021 1137.6138,-235.9021"/>
</g>
<!-- replacement -->
<g id="node13" class="node">
<title>replacement</title>
<g id="a_node13"><a xlink:href="replacement.md" xlink:title="replacement.md">
<ellipse fill="#eee8aa" stroke="#000000" cx="1719.1137" cy="-950" rx="94.4556" ry="22.7556"/>
<text text-anchor="middle" x="1719.1137" y="-942.8" font-family="Times,serif" font-size="24.00" fill="#000000">replacement</text>
</a>
</g>
</g>
<!-- replacement&#45;&gt;parseNumber -->
<g id="edge96" class="edge">
<title>replacement&#45;&gt;parseNumber</title>
<path fill="none" stroke="#000000" d="M1663.5141,-931.6356C1586.9029,-906.3313 1448.4029,-860.5853 1360.5118,-831.5552"/>
<polygon fill="#000000" stroke="#000000" points="1361.4398,-828.1758 1350.8466,-828.3628 1359.2444,-834.8226 1361.4398,-828.1758"/>
</g>
<!-- replacement&#45;&gt;regexes -->
<g id="edge87" class="edge">
<title>replacement&#45;&gt;regexes</title>
<path fill="none" stroke="#000000" d="M1717.9923,-927.2092C1716.1264,-874.454 1715.5988,-740.4933 1751.1137,-636.3726 1761.684,-605.3834 1781.32,-574.085 1797.9845,-550.8987"/>
<polygon fill="#000000" stroke="#000000" points="1800.8769,-552.8731 1803.9673,-542.739 1795.2317,-548.7339 1800.8769,-552.8731"/>
</g>
<!-- replacement&#45;&gt;parseCmdLine -->
<g id="edge90" class="edge">
<title>replacement&#45;&gt;parseCmdLine</title>
<path fill="none" stroke="#000000" d="M1783.2381,-933.3667C1886.0988,-906.6854 2087.7052,-854.3904 2199.2282,-825.4623"/>
<polygon fill="#000000" stroke="#000000" points="2200.2737,-828.807 2209.0745,-822.9082 2198.516,-822.0312 2200.2737,-828.807"/>
</g>
<!-- replacement&#45;&gt;env -->
<g id="edge88" class="edge">
<title>replacement&#45;&gt;env</title>
<path fill="none" stroke="#000000" d="M1806.298,-941.2895C1980.9421,-922.9609 2360.2669,-878.3858 2398.1137,-833.4917 2432.182,-793.0798 2409.3029,-727.69 2390.8466,-689.4762"/>
<polygon fill="#000000" stroke="#000000" points="2393.8966,-687.7501 2386.287,-680.3781 2387.6385,-690.8864 2393.8966,-687.7501"/>
</g>
<!-- replacement&#45;&gt;variables -->
<g id="edge94" class="edge">
<title>replacement&#45;&gt;variables</title>
<path fill="none" stroke="#000000" d="M1706.7754,-927.4396C1686.2825,-891.6383 1642.1846,-821.2925 1589.1137,-776.5083 1537.407,-732.8751 1466.7602,-699.7507 1417.6633,-679.9671"/>
<polygon fill="#000000" stroke="#000000" points="1418.7291,-676.6245 1408.1432,-676.189 1416.147,-683.1309 1418.7291,-676.6245"/>
</g>
<!-- replacement&#45;&gt;tempFile -->
<g id="edge95" class="edge">
<title>replacement&#45;&gt;tempFile</title>
<path fill="none" stroke="#000000" d="M1722.4871,-927.3495C1732.8385,-859.0553 1764.6263,-658.4814 1784.1137,-636.3726 1820.7785,-594.7759 1965.0218,-554.6894 2058.5599,-532.3"/>
<polygon fill="#000000" stroke="#000000" points="2059.3715,-535.7047 2068.2931,-529.9901 2057.7551,-528.8938 2059.3715,-535.7047"/>
</g>
<!-- replacement&#45;&gt;vartypes -->
<g id="edge89" class="edge">
<title>replacement&#45;&gt;vartypes</title>
<path fill="none" stroke="#000000" d="M1649.4223,-934.7553C1587.7949,-918.3594 1498.407,-887.1237 1437.1137,-833.4917 1415.0886,-814.2197 1425.1212,-796.8848 1404.1137,-776.5083 1340.3262,-714.6365 1301.6568,-731.5111 1228.1137,-681.6274 1148.4458,-627.5892 1131.3682,-609.3568 1062.1137,-542.4917 1008.8014,-491.0187 952.196,-425.4345 920.7862,-387.9337"/>
<polygon fill="#000000" stroke="#000000" points="923.1983,-385.3614 914.1043,-379.9253 917.8235,-389.846 923.1983,-385.3614"/>
</g>
<!-- replacement&#45;&gt;tostring -->
<g id="edge97" class="edge">
<title>replacement&#45;&gt;tostring</title>
<path fill="none" stroke="#000000" d="M1684.9116,-928.7523C1631.9479,-895.8958 1526.8322,-830.8722 1437.1137,-776.5083 1366.7337,-733.8623 1341.0785,-734.6129 1278.1137,-681.6274 1228.591,-639.9536 1181.8031,-580.4089 1155.6521,-544.645"/>
<polygon fill="#000000" stroke="#000000" points="1158.1581,-542.1381 1149.459,-536.0902 1152.4879,-546.2429 1158.1581,-542.1381"/>
</g>
<!-- readlines -->
<g id="node14" class="node">
<title>readlines</title>
<g id="a_node14"><a xlink:href="readlines.md" xlink:title="readlines.md">
<polygon fill="#98fb98" stroke="#000000" points="2030.7031,-794.8581 2030.7031,-815.1419 1984.6665,-829.4846 1919.561,-829.4846 1873.5244,-815.1419 1873.5244,-794.8581 1919.561,-780.5154 1984.6665,-780.5154 2030.7031,-794.8581"/>
<polygon fill="none" stroke="#000000" points="2034.7053,-791.9163 2034.7053,-818.0837 1985.276,-833.4835 1918.9515,-833.4835 1869.5222,-818.0837 1869.5222,-791.9163 1918.9515,-776.5165 1985.276,-776.5165 2034.7053,-791.9163"/>
<text text-anchor="middle" x="1952.1137" y="-797.8" font-family="Times,serif" font-size="24.00" fill="#000000">readlines</text>
</a>
</g>
</g>
<!-- replacement&#45;&gt;readlines -->
<g id="edge91" class="edge">
<title>replacement&#45;&gt;readlines</title>
<path fill="none" stroke="#000000" d="M1753.4937,-928.6048C1792.6567,-904.2329 1857.0107,-864.1843 1901.8134,-836.3028"/>
<polygon fill="#000000" stroke="#000000" points="1903.8591,-839.1522 1910.5,-830.897 1900.1605,-833.209 1903.8591,-839.1522"/>
</g>
<!-- replacement&#45;&gt;messages -->
<g id="edge93" class="edge">
<title>replacement&#45;&gt;messages</title>
<path fill="none" stroke="#000000" d="M1717.8841,-927.1703C1713.3697,-845.9035 1696.8855,-570.9915 1676.1137,-485.5083 1638.6356,-331.2727 1556.5278,-159.9427 1518.7925,-85.7032"/>
<polygon fill="#000000" stroke="#000000" points="1521.8686,-84.031 1514.2012,-76.7192 1515.6354,-87.2166 1521.8686,-84.031"/>
</g>
<!-- replacement&#45;&gt;matches -->
<g id="edge92" class="edge">
<title>replacement&#45;&gt;matches</title>
<path fill="none" stroke="#000000" d="M1731.1176,-927.3677C1743.4328,-903.9931 1763.0133,-866.394 1779.1137,-833.4917 1803.3339,-783.9963 1829.9792,-725.8219 1845.8637,-690.7139"/>
<polygon fill="#000000" stroke="#000000" points="1849.1214,-692.004 1850.0476,-681.4498 1842.7418,-689.1228 1849.1214,-692.004"/>
</g>
<!-- funtypes&#45;&gt;vartypes -->
<g id="edge48" class="edge">
<title>funtypes&#45;&gt;vartypes</title>
<path fill="none" stroke="#000000" d="M941.4308,-636.3761C932.8466,-583.6446 911.4799,-452.3921 901.4599,-390.8405"/>
<polygon fill="#000000" stroke="#000000" points="904.9008,-390.1941 899.8394,-380.8865 897.9917,-391.3189 904.9008,-390.1941"/>
</g>
<!-- funtypes&#45;&gt;tostring -->
<g id="edge50" class="edge">
<title>funtypes&#45;&gt;tostring</title>
<path fill="none" stroke="#000000" d="M972.596,-637.9158C1005.9591,-612.3197 1062.2835,-569.1078 1098.8252,-541.0732"/>
<polygon fill="#000000" stroke="#000000" points="1101.4067,-543.5041 1107.2103,-534.6402 1097.1458,-537.9503 1101.4067,-543.5041"/>
</g>
<!-- funtypes&#45;&gt;warnings -->
<g id="edge49" class="edge">
<title>funtypes&#45;&gt;warnings</title>
<path fill="none" stroke="#000000" d="M947.4291,-636.2099C953.7697,-580.9054 974.714,-436.2866 1029.1137,-329.5083 1048.171,-292.1018 1079.99,-255.9185 1103.6157,-231.9006"/>
<polygon fill="#000000" stroke="#000000" points="1106.3761,-234.09 1110.972,-224.5439 1101.4261,-229.1404 1106.3761,-234.09"/>
</g>
<!-- warnings&#45;&gt;messages -->
<g id="edge3" class="edge">
<title>warnings&#45;&gt;messages</title>
<path fill="none" stroke="#000000" d="M1177.4174,-184.6108C1241.6145,-157.349 1362.3878,-106.0617 1436.303,-74.6731"/>
<polygon fill="#000000" stroke="#000000" points="1437.6854,-77.8886 1445.5217,-70.7582 1434.9492,-71.4455 1437.6854,-77.8886"/>
</g>
<!-- collectCommand -->
<g id="node18" class="node">
<title>collectCommand</title>
<g id="a_node18"><a xlink:href="collectCommand.md" xlink:title="collectCommand.md">
<ellipse fill="#eee8aa" stroke="#000000" cx="2145.1137" cy="-950" rx="127.4982" ry="22.7556"/>
<text text-anchor="middle" x="2145.1137" y="-942.8" font-family="Times,serif" font-size="24.00" fill="#000000">collectCommand</text>
</a>
</g>
</g>
<!-- collectCommand&#45;&gt;parseCmdLine -->
<g id="edge27" class="edge">
<title>collectCommand&#45;&gt;parseCmdLine</title>
<path fill="none" stroke="#000000" d="M2165.6035,-927.6615C2188.3822,-902.8276 2225.2878,-862.5922 2250.5779,-835.0203"/>
<polygon fill="#000000" stroke="#000000" points="2253.2013,-837.3381 2257.3815,-827.6028 2248.0427,-832.6064 2253.2013,-837.3381"/>
</g>
<!-- collectCommand&#45;&gt;env -->
<g id="edge24" class="edge">
<title>collectCommand&#45;&gt;env</title>
<path fill="none" stroke="#000000" d="M2248.9706,-936.8533C2313.1137,-922.7784 2390.6509,-893.6666 2431.1137,-833.4917 2461.9821,-787.5854 2424.7823,-723.7079 2397.631,-687.3368"/>
<polygon fill="#000000" stroke="#000000" points="2400.2032,-684.9399 2391.3349,-679.143 2394.6526,-689.205 2400.2032,-684.9399"/>
</g>
<!-- collectCommand&#45;&gt;readlines -->
<g id="edge26" class="edge">
<title>collectCommand&#45;&gt;readlines</title>
<path fill="none" stroke="#000000" d="M2115.8012,-927.9776C2084.1353,-904.1872 2033.3076,-866.0006 1996.6876,-838.4882"/>
<polygon fill="#000000" stroke="#000000" points="1998.7345,-835.6483 1988.6371,-832.4399 1994.5298,-841.2448 1998.7345,-835.6483"/>
</g>
<!-- collectCommand&#45;&gt;messages -->
<g id="edge28" class="edge">
<title>collectCommand&#45;&gt;messages</title>
<path fill="none" stroke="#000000" d="M2141.7594,-927.1588C2136.4942,-893.6106 2125.1044,-829.2757 2108.1137,-776.5083 2069.074,-655.2638 1993.1137,-641.3747 1993.1137,-514 1993.1137,-514 1993.1137,-514 1993.1137,-358 1993.1137,-171.6132 1737.685,-92.9875 1594.17,-63.5209"/>
<polygon fill="#000000" stroke="#000000" points="1594.5291,-60.0232 1584.0354,-61.4835 1593.1493,-66.8859 1594.5291,-60.0232"/>
</g>
<!-- collectCommand&#45;&gt;matches -->
<g id="edge25" class="edge">
<title>collectCommand&#45;&gt;matches</title>
<path fill="none" stroke="#000000" d="M2141.3596,-927.1314C2134.4221,-891.2184 2116.5438,-821.1021 2077.1137,-776.5083 2034.5452,-728.365 1967.3606,-696.2964 1919.0217,-677.9936"/>
<polygon fill="#000000" stroke="#000000" points="1920.2113,-674.7019 1909.618,-674.5159 1917.7832,-681.2673 1920.2113,-674.7019"/>
</g>
<!-- statictea -->
<g id="node19" class="node">
<title>statictea</title>
<g id="a_node19"><a xlink:href="statictea.md" xlink:title="statictea.md">
<polygon fill="#eee8aa" stroke="#000000" points="2600.2095,-1377.3667 2683.1137,-1358.0619 2766.018,-1377.3667 2765.9406,-1408.6024 2600.2869,-1408.6024 2600.2095,-1377.3667"/>
<text text-anchor="middle" x="2683.1137" y="-1378.8" font-family="Times,serif" font-size="24.00" fill="#000000">statictea</text>
</a>
</g>
</g>
<!-- statictea&#45;&gt;env -->
<g id="edge104" class="edge">
<title>statictea&#45;&gt;env</title>
<path fill="none" stroke="#000000" d="M2678.5554,-1359.0581C2662.7071,-1270.4625 2604.2412,-982.0775 2483.1137,-776.5083 2461.8269,-740.3817 2427.8326,-706.0701 2403.4668,-683.9544"/>
<polygon fill="#000000" stroke="#000000" points="2405.7121,-681.267 2395.9225,-677.2156 2401.049,-686.4876 2405.7121,-681.267"/>
</g>
<!-- gethelp -->
<g id="node20" class="node">
<title>gethelp</title>
<g id="a_node20"><a xlink:href="gethelp.md" xlink:title="gethelp.md">
<polygon fill="#98fb98" stroke="#000000" points="2885.2486,-1221.8581 2885.2486,-1242.1419 2846.5077,-1256.4846 2791.7198,-1256.4846 2752.9788,-1242.1419 2752.9788,-1221.8581 2791.7198,-1207.5154 2846.5077,-1207.5154 2885.2486,-1221.8581"/>
<polygon fill="none" stroke="#000000" points="2889.238,-1219.0722 2889.238,-1244.9278 2847.2209,-1260.4835 2791.0066,-1260.4835 2748.9895,-1244.9278 2748.9895,-1219.0722 2791.0066,-1203.5165 2847.2209,-1203.5165 2889.238,-1219.0722"/>
<text text-anchor="middle" x="2819.1137" y="-1224.8" font-family="Times,serif" font-size="24.00" fill="#000000">gethelp</text>
</a>
</g>
</g>
<!-- statictea&#45;&gt;gethelp -->
<g id="edge102" class="edge">
<title>statictea&#45;&gt;gethelp</title>
<path fill="none" stroke="#000000" d="M2703.7692,-1362.6107C2725.9382,-1337.5076 2761.435,-1297.3127 2787.2004,-1268.1372"/>
<polygon fill="#000000" stroke="#000000" points="2789.8621,-1270.4106 2793.8581,-1260.5983 2784.6152,-1265.777 2789.8621,-1270.4106"/>
</g>
<!-- statictea&#45;&gt;args -->
<g id="edge100" class="edge">
<title>statictea&#45;&gt;args</title>
<path fill="none" stroke="#000000" d="M2683.1137,-1357.875C2683.1137,-1304.75 2683.1137,-1186 2683.1137,-1086 2683.1137,-1086 2683.1137,-1086 2683.1137,-950 2683.1137,-853.4773 2476.9061,-630.3248 2396.0735,-546.5578"/>
<polygon fill="#000000" stroke="#000000" points="2398.3503,-543.8777 2388.8797,-539.1282 2393.3214,-548.747 2398.3503,-543.8777"/>
</g>
<!-- statictea&#45;&gt;messages -->
<g id="edge101" class="edge">
<title>statictea&#45;&gt;messages</title>
<path fill="none" stroke="#000000" d="M2736.6951,-1370.2611C2787.2996,-1352.3816 2860.8334,-1317.9646 2898.1137,-1260.4917 2940.5667,-1195.0445 2917.1137,-1164.0103 2917.1137,-1086 2917.1137,-1086 2917.1137,-1086 2917.1137,-358 2917.1137,-293.1131 3067.5019,-319.3242 2518.1137,-174.5083 2186.3069,-87.0456 1777.3773,-59.5874 1594.8893,-51.3463"/>
<polygon fill="#000000" stroke="#000000" points="1594.929,-47.8447 1584.7841,-50.8992 1594.6196,-54.8379 1594.929,-47.8447"/>
</g>
<!-- statictea&#45;&gt;version -->
<g id="edge103" class="edge">
<title>statictea&#45;&gt;version</title>
<path fill="none" stroke="#000000" d="M2677.7467,-1358.9478C2652.7029,-1235.6484 2543.2974,-728.928 2419.1137,-636.3726 2298.0388,-546.1342 1895.0969,-567.1113 1746.1137,-542.4917 1723.0262,-538.6765 1698.0161,-534.0775 1675.1992,-529.6983"/>
<polygon fill="#000000" stroke="#000000" points="1675.7095,-526.2322 1665.2271,-527.7719 1674.3817,-533.1052 1675.7095,-526.2322"/>
</g>
<!-- parseCommandLine -->
<g id="node28" class="node">
<title>parseCommandLine</title>
<g id="a_node28"><a xlink:href="parseCommandLine.md" xlink:title="parseCommandLine.md">
<ellipse fill="#eee8aa" stroke="#000000" cx="2702.1137" cy="-659" rx="148.8522" ry="22.7556"/>
<text text-anchor="middle" x="2702.1137" y="-651.8" font-family="Times,serif" font-size="24.00" fill="#000000">parseCommandLine</text>
</a>
</g>
</g>
<!-- statictea&#45;&gt;parseCommandLine -->
<g id="edge7" class="edge">
<title>statictea&#45;&gt;parseCommandLine</title>
<path fill="none" stroke="#000000" d="M2688.8027,-1359.2521C2699.4034,-1306.9998 2721.1137,-1187.5865 2721.1137,-1086 2721.1137,-1086 2721.1137,-1086 2721.1137,-950 2721.1137,-856.2583 2711.1746,-745.8908 2705.6736,-691.9848"/>
<polygon fill="#000000" stroke="#000000" points="2709.1488,-691.5642 2704.6368,-681.9781 2702.1861,-692.2856 2709.1488,-691.5642"/>
</g>
<!-- processTemplate -->
<g id="node29" class="node">
<title>processTemplate</title>
<g id="a_node29"><a xlink:href="processTemplate.md" xlink:title="processTemplate.md">
<ellipse fill="#eee8aa" stroke="#000000" cx="1990.1137" cy="-1232" rx="125.2054" ry="22.7556"/>
<text text-anchor="middle" x="1990.1137" y="-1224.8" font-family="Times,serif" font-size="24.00" fill="#000000">processTemplate</text>
</a>
</g>
</g>
<!-- statictea&#45;&gt;processTemplate -->
<g id="edge99" class="edge">
<title>statictea&#45;&gt;processTemplate</title>
<path fill="none" stroke="#000000" d="M2621.6146,-1372.3335C2498.6876,-1345.0164 2222.2111,-1283.5772 2079.3446,-1251.8291"/>
<polygon fill="#000000" stroke="#000000" points="2079.8142,-1248.3481 2069.2931,-1249.5954 2078.2957,-1255.1814 2079.8142,-1248.3481"/>
</g>
<!-- signatures&#45;&gt;vartypes -->
<g id="edge68" class="edge">
<title>signatures&#45;&gt;vartypes</title>
<path fill="none" stroke="#000000" d="M842.0187,-782.2187C851.4051,-708.6096 880.9461,-476.9461 891.9387,-390.7409"/>
<polygon fill="#000000" stroke="#000000" points="895.4215,-391.0979 893.2146,-380.7355 888.4777,-390.2124 895.4215,-391.0979"/>
</g>
<!-- signatures&#45;&gt;funtypes -->
<g id="edge69" class="edge">
<title>signatures&#45;&gt;funtypes</title>
<path fill="none" stroke="#000000" d="M855.2129,-782.8257C873.2683,-757.957 902.6664,-717.4652 922.9005,-689.5956"/>
<polygon fill="#000000" stroke="#000000" points="925.8202,-691.5314 928.8631,-681.3829 920.1557,-687.4188 925.8202,-691.5314"/>
</g>
<!-- signatures&#45;&gt;messages -->
<g id="edge70" class="edge">
<title>signatures&#45;&gt;messages</title>
<path fill="none" stroke="#000000" d="M830.4995,-782.3917C804.7264,-710.7962 734.9878,-484.6456 818.1137,-329.5083 876.8559,-219.878 938.1179,-226.4831 1051.1137,-174.5083 1169.4217,-120.09 1316.2795,-84.0574 1408.8795,-64.8244"/>
<polygon fill="#000000" stroke="#000000" points="1409.6912,-68.2308 1418.7817,-62.7889 1408.2817,-61.3742 1409.6912,-68.2308"/>
</g>
<!-- opresultwarn&#45;&gt;warnings -->
<g id="edge61" class="edge">
<title>opresultwarn&#45;&gt;warnings</title>
<path fill="none" stroke="#000000" d="M664.5449,-340.0681C766.1006,-310.4238 967.9653,-251.4991 1070.767,-221.4911"/>
<polygon fill="#000000" stroke="#000000" points="1071.7809,-224.8412 1080.3996,-218.6793 1069.8194,-218.1216 1071.7809,-224.8412"/>
</g>
<!-- opresultwarn&#45;&gt;opresult -->
<g id="edge62" class="edge">
<title>opresultwarn&#45;&gt;opresult</title>
<path fill="none" stroke="#000000" d="M559.3691,-337.5771C500.1269,-309.9188 394.2686,-260.497 328.6428,-229.8584"/>
<polygon fill="#000000" stroke="#000000" points="329.8043,-226.5381 319.2625,-225.4791 326.843,-232.8809 329.8043,-226.5381"/>
</g>
<!-- matches&#45;&gt;regexes -->
<g id="edge16" class="edge">
<title>matches&#45;&gt;regexes</title>
<path fill="none" stroke="#000000" d="M1854.9575,-636.3438C1849.862,-613.9547 1841.9692,-579.274 1835.8863,-552.5461"/>
<polygon fill="#000000" stroke="#000000" points="1839.2851,-551.7079 1833.6532,-542.734 1832.4596,-553.2614 1839.2851,-551.7079"/>
</g>
<!-- matches&#45;&gt;args -->
<g id="edge15" class="edge">
<title>matches&#45;&gt;args</title>
<path fill="none" stroke="#000000" d="M1911.2135,-644.2987C2006.4198,-616.908 2210.1902,-558.2836 2308.6268,-529.9635"/>
<polygon fill="#000000" stroke="#000000" points="2309.745,-533.2839 2318.3874,-527.1554 2307.8095,-526.5567 2309.745,-533.2839"/>
</g>
<!-- readjson -->
<g id="node27" class="node">
<title>readjson</title>
<g id="a_node27"><a xlink:href="readjson.md" xlink:title="readjson.md">
<ellipse fill="#eee8aa" stroke="#000000" cx="405.1137" cy="-659" rx="68.6102" ry="22.7556"/>
<text text-anchor="middle" x="405.1137" y="-651.8" font-family="Times,serif" font-size="24.00" fill="#000000">readjson</text>
</a>
</g>
</g>
<!-- readjson&#45;&gt;opresultid -->
<g id="edge77" class="edge">
<title>readjson&#45;&gt;opresultid</title>
<path fill="none" stroke="#000000" d="M383.4666,-637.3528C330.3369,-584.2232 193.4603,-447.3465 133.2601,-387.1464"/>
<polygon fill="#000000" stroke="#000000" points="135.5152,-384.4517 125.9692,-379.8555 130.5654,-389.4015 135.5152,-384.4517"/>
</g>
<!-- readjson&#45;&gt;unicodes -->
<g id="edge78" class="edge">
<title>readjson&#45;&gt;unicodes</title>
<path fill="none" stroke="#000000" d="M405.1137,-636.3438C405.1137,-612.436 405.1137,-574.5126 405.1137,-547.2233"/>
<polygon fill="#000000" stroke="#000000" points="408.6138,-546.9756 405.1137,-536.9757 401.6138,-546.9757 408.6138,-546.9756"/>
</g>
<!-- readjson&#45;&gt;vartypes -->
<g id="edge75" class="edge">
<title>readjson&#45;&gt;vartypes</title>
<path fill="none" stroke="#000000" d="M437.7099,-639.0174C524.2173,-585.9854 759.4994,-441.7493 855.0022,-383.2028"/>
<polygon fill="#000000" stroke="#000000" points="856.8329,-386.1859 863.5291,-377.9755 853.1743,-380.218 856.8329,-386.1859"/>
</g>
<!-- readjson&#45;&gt;utf8decoder -->
<g id="edge79" class="edge">
<title>readjson&#45;&gt;utf8decoder</title>
<path fill="none" stroke="#000000" d="M384.9042,-637.3132C365.6797,-615.2675 337.7314,-579.2183 324.1137,-542.4917 306.3096,-494.4744 303.2943,-434.9101 303.5641,-396.6806"/>
<polygon fill="#000000" stroke="#000000" points="307.0665,-396.5427 303.7178,-386.491 300.0673,-396.4371 307.0665,-396.5427"/>
</g>
<!-- readjson&#45;&gt;messages -->
<g id="edge76" class="edge">
<title>readjson&#45;&gt;messages</title>
<path fill="none" stroke="#000000" d="M357.1951,-642.58C270.09,-609.7865 88.1547,-527.0064 16.1137,-386.4917 -33.4799,-289.7603 42.6303,-226.4642 138.1137,-174.5083 248.7101,-114.3288 1111.3474,-66.982 1403.0735,-52.5517"/>
<polygon fill="#000000" stroke="#000000" points="1403.3925,-56.0404 1413.2081,-52.0523 1403.0479,-49.0489 1403.3925,-56.0404"/>
</g>
<!-- parseCommandLine&#45;&gt;regexes -->
<g id="edge5" class="edge">
<title>parseCommandLine&#45;&gt;regexes</title>
<path fill="none" stroke="#000000" d="M2601.3131,-642.2959C2426.6332,-613.3489 2070.9427,-554.4059 1909.7769,-527.6985"/>
<polygon fill="#000000" stroke="#000000" points="1909.8842,-524.1686 1899.4465,-525.9866 1908.7397,-531.0744 1909.8842,-524.1686"/>
</g>
<!-- parseCommandLine&#45;&gt;cmdline -->
<g id="edge6" class="edge">
<title>parseCommandLine&#45;&gt;cmdline</title>
<path fill="none" stroke="#000000" d="M2686.02,-636.3438C2669.8358,-613.5602 2644.6098,-578.0479 2625.4964,-551.1407"/>
<polygon fill="#000000" stroke="#000000" points="2628.1693,-548.8596 2619.5248,-542.734 2622.4625,-552.9134 2628.1693,-548.8596"/>
</g>
<!-- parseCommandLine&#45;&gt;warnings -->
<g id="edge4" class="edge">
<title>parseCommandLine&#45;&gt;warnings</title>
<path fill="none" stroke="#000000" d="M2666.5445,-636.9041C2592.2135,-590.7577 2426.7177,-488.1758 2420.1137,-485.5083 1985.0136,-309.7582 1420.7822,-234.2117 1214.3012,-211.1767"/>
<polygon fill="#000000" stroke="#000000" points="1214.4762,-207.6748 1204.1521,-210.0547 1213.707,-214.6324 1214.4762,-207.6748"/>
</g>
<!-- parseCommandLine&#45;&gt;args -->
<g id="edge1" class="edge">
<title>parseCommandLine&#45;&gt;args</title>
<path fill="none" stroke="#000000" d="M2649.7804,-637.6971C2593.89,-614.7813 2502.8462,-576.9772 2425.1137,-542.4917 2420.4911,-540.4409 2415.6886,-538.2695 2410.8991,-536.0769"/>
<polygon fill="#000000" stroke="#000000" points="2412.302,-532.8696 2401.7554,-531.8601 2409.3706,-539.2262 2412.302,-532.8696"/>
</g>
<!-- parseCommandLine&#45;&gt;messages -->
<g id="edge2" class="edge">
<title>parseCommandLine&#45;&gt;messages</title>
<path fill="none" stroke="#000000" d="M2705.9303,-636.1984C2710.59,-600.6863 2714.3882,-531.4795 2683.1137,-485.5083 2516.3817,-240.424 2371.8201,-275.447 2093.1137,-174.5083 1923.0932,-112.9322 1714.2866,-77.0818 1594.9673,-60.124"/>
<polygon fill="#000000" stroke="#000000" points="1595.1557,-56.6161 1584.7656,-58.6892 1594.1807,-63.5479 1595.1557,-56.6161"/>
</g>
<!-- processTemplate&#45;&gt;parseCmdLine -->
<g id="edge23" class="edge">
<title>processTemplate&#45;&gt;parseCmdLine</title>
<path fill="none" stroke="#000000" d="M2031.3963,-1210.4959C2098.6379,-1172.8215 2229.4866,-1087.8016 2281.1137,-972.6274 2300.5889,-929.1806 2293.9508,-872.8159 2286.6195,-837.7808"/>
<polygon fill="#000000" stroke="#000000" points="2289.9478,-836.6259 2284.3501,-827.6305 2283.1164,-838.1533 2289.9478,-836.6259"/>
</g>
<!-- processTemplate&#45;&gt;env -->
<g id="edge14" class="edge">
<title>processTemplate&#45;&gt;env</title>
<path fill="none" stroke="#000000" d="M2039.4361,-1211.1482C2145.0994,-1163.1959 2389.9683,-1033.6075 2467.1137,-833.4917 2488.5805,-777.8068 2438.0004,-717.2807 2403.3283,-684.1699"/>
<polygon fill="#000000" stroke="#000000" points="2405.4785,-681.3898 2395.7726,-677.1417 2400.7109,-686.5153 2405.4785,-681.3898"/>
</g>
<!-- processTemplate&#45;&gt;variables -->
<g id="edge84" class="edge">
<title>processTemplate&#45;&gt;variables</title>
<path fill="none" stroke="#000000" d="M1951.7331,-1210.3055C1880.9756,-1169.2871 1727.0679,-1075.2256 1616.1137,-972.6274 1516.4719,-880.4897 1421.5032,-748.9214 1380.8437,-689.8199"/>
<polygon fill="#000000" stroke="#000000" points="1383.5538,-687.5825 1375.0181,-681.3061 1377.7767,-691.5355 1383.5538,-687.5825"/>
</g>
<!-- processTemplate&#45;&gt;vartypes -->
<g id="edge85" class="edge">
<title>processTemplate&#45;&gt;vartypes</title>
<path fill="none" stroke="#000000" d="M1871.771,-1224.5623C1588.0589,-1204.2056 880.9597,-1137.6877 723.1137,-972.6274 571.8589,-814.4595 679.813,-671.5214 795.1137,-485.5083 817.2656,-449.771 847.8137,-412.4734 869.4989,-387.5184"/>
<polygon fill="#000000" stroke="#000000" points="872.246,-389.6943 876.2063,-379.8675 866.9823,-385.0798 872.246,-389.6943"/>
</g>
<!-- processTemplate&#45;&gt;replacement -->
<g id="edge98" class="edge">
<title>processTemplate&#45;&gt;replacement</title>
<path fill="none" stroke="#000000" d="M1968.3948,-1209.3994C1919.7124,-1158.7411 1801.8774,-1036.1231 1747.4899,-979.528"/>
<polygon fill="#000000" stroke="#000000" points="1750.0126,-977.1019 1740.56,-972.3167 1744.9654,-981.9522 1750.0126,-977.1019"/>
</g>
<!-- processTemplate&#45;&gt;readlines -->
<g id="edge18" class="edge">
<title>processTemplate&#45;&gt;readlines</title>
<path fill="none" stroke="#000000" d="M1987.3011,-1209.2858C1984.2933,-1184.5522 1979.5001,-1143.8172 1976.1137,-1108.6274 1966.9585,-1013.4908 1958.7671,-901.3352 1954.7426,-843.6202"/>
<polygon fill="#000000" stroke="#000000" points="1958.2238,-843.2273 1954.0403,-833.4934 1951.2406,-843.7116 1958.2238,-843.2273"/>
</g>
<!-- processTemplate&#45;&gt;collectCommand -->
<g id="edge29" class="edge">
<title>processTemplate&#45;&gt;collectCommand</title>
<path fill="none" stroke="#000000" d="M2002.536,-1209.3994C2030.028,-1159.3818 2096.078,-1039.2134 2127.6862,-981.7068"/>
<polygon fill="#000000" stroke="#000000" points="2130.8827,-983.1576 2132.6323,-972.7082 2124.7482,-979.7858 2130.8827,-983.1576"/>
</g>
<!-- processTemplate&#45;&gt;args -->
<g id="edge8" class="edge">
<title>processTemplate&#45;&gt;args</title>
<path fill="none" stroke="#000000" d="M2049.2369,-1211.9876C2107.1473,-1190.9449 2196.5766,-1154.53 2266.1137,-1108.6274 2340.3946,-1059.5935 2359.5904,-1043.7416 2413.1137,-972.6274 2468.7685,-898.6813 2502.6605,-866.9704 2483.1137,-776.5083 2464.708,-691.3271 2416.2693,-600.55 2387.1799,-551.215"/>
<polygon fill="#000000" stroke="#000000" points="2390.1104,-549.2954 2381.9851,-542.4961 2384.0968,-552.8783 2390.1104,-549.2954"/>
</g>
<!-- processTemplate&#45;&gt;messages -->
<g id="edge9" class="edge">
<title>processTemplate&#45;&gt;messages</title>
<path fill="none" stroke="#000000" d="M2056.5874,-1212.7777C2123.336,-1192.044 2227.9309,-1155.5929 2311.1137,-1108.6274 2580.2876,-956.6503 2708.8582,-951.2074 2860.1137,-681.6274 2896.802,-616.2386 2879.1137,-588.9781 2879.1137,-514 2879.1137,-514 2879.1137,-514 2879.1137,-358 2879.1137,-226.1421 1907.6249,-97.3176 1594.8708,-59.2613"/>
<polygon fill="#000000" stroke="#000000" points="1595.2663,-55.7837 1584.9175,-58.0537 1594.4232,-62.7327 1595.2663,-55.7837"/>
</g>
<!-- processTemplate&#45;&gt;matches -->
<g id="edge17" class="edge">
<title>processTemplate&#45;&gt;matches</title>
<path fill="none" stroke="#000000" d="M1989.2679,-1209.1446C1987.8672,-1158.0158 1987.1209,-1030.7736 2009.1137,-927.3726 2023.4335,-860.047 2077.1875,-836.8731 2044.1137,-776.5083 2017.4748,-727.8879 1961.2098,-696.4663 1917.8693,-678.4622"/>
<polygon fill="#000000" stroke="#000000" points="1919.1381,-675.2001 1908.5544,-674.7142 1916.5251,-681.6941 1919.1381,-675.2001"/>
</g>
<!-- processTemplate&#45;&gt;readjson -->
<g id="edge86" class="edge">
<title>processTemplate&#45;&gt;readjson</title>
<path fill="none" stroke="#000000" d="M1866.4448,-1228.4406C1539.4301,-1218.0354 669.7541,-1183.5551 565.1137,-1108.6274 426.056,-1009.0551 407.2243,-777.7238 405.1457,-691.8562"/>
<polygon fill="#000000" stroke="#000000" points="408.6417,-691.5942 404.9629,-681.6586 401.6428,-691.7197 408.6417,-691.5942"/>
</g>
<!-- runCommand -->
<g id="node31" class="node">
<title>runCommand</title>
<g id="a_node31"><a xlink:href="runCommand.md" xlink:title="runCommand.md">
<ellipse fill="#eee8aa" stroke="#000000" cx="1280.1137" cy="-1086" rx="104.7872" ry="22.7556"/>
<text text-anchor="middle" x="1280.1137" y="-1078.8" font-family="Times,serif" font-size="24.00" fill="#000000">runCommand</text>
</a>
</g>
</g>
<!-- processTemplate&#45;&gt;runCommand -->
<g id="edge83" class="edge">
<title>processTemplate&#45;&gt;runCommand</title>
<path fill="none" stroke="#000000" d="M1907.2782,-1214.9662C1771.6674,-1187.08 1503.6334,-1131.9632 1366.0401,-1103.6694"/>
<polygon fill="#000000" stroke="#000000" points="1366.4595,-1100.1824 1355.9594,-1101.5964 1365.0495,-1107.039 1366.4595,-1100.1824"/>
</g>
<!-- runCommand&#45;&gt;runFunction -->
<g id="edge74" class="edge">
<title>runCommand&#45;&gt;runFunction</title>
<path fill="none" stroke="#000000" d="M1222.1317,-1067.0898C1145.1446,-1041.9813 1009.5324,-997.7529 928.8326,-971.4335"/>
<polygon fill="#000000" stroke="#000000" points="929.8634,-968.0883 919.271,-968.3151 927.6929,-974.7433 929.8634,-968.0883"/>
</g>
<!-- runCommand&#45;&gt;parseNumber -->
<g id="edge38" class="edge">
<title>runCommand&#45;&gt;parseNumber</title>
<path fill="none" stroke="#000000" d="M1280.1137,-1063.0046C1280.1137,-1014.904 1280.1137,-903.2157 1280.1137,-843.7999"/>
<polygon fill="#000000" stroke="#000000" points="1283.6138,-843.688 1280.1137,-833.688 1276.6138,-843.6881 1283.6138,-843.688"/>
</g>
<!-- runCommand&#45;&gt;regexes -->
<g id="edge32" class="edge">
<title>runCommand&#45;&gt;regexes</title>
<path fill="none" stroke="#000000" d="M1339.2792,-1067.2155C1389.6828,-1049.0246 1461.8784,-1017.5701 1513.1137,-972.6274 1647.7391,-854.5367 1631.9259,-782.734 1735.1137,-636.3726 1755.664,-607.2241 1779.9463,-575.0129 1798.4028,-550.9573"/>
<polygon fill="#000000" stroke="#000000" points="1801.3493,-552.8673 1804.6725,-542.8071 1795.801,-548.5992 1801.3493,-552.8673"/>
</g>
<!-- runCommand&#45;&gt;env -->
<g id="edge33" class="edge">
<title>runCommand&#45;&gt;env</title>
<path fill="none" stroke="#000000" d="M1383.0603,-1081.7387C1604.8931,-1071.3675 2120.8824,-1040.5195 2281.1137,-972.6274 2370.6955,-934.6705 2408.5848,-921.4745 2450.1137,-833.4917 2474.4658,-781.8998 2431.3989,-720.5274 2400.7767,-686.0354"/>
<polygon fill="#000000" stroke="#000000" points="2403.0204,-683.302 2393.6929,-678.277 2397.851,-688.0219 2403.0204,-683.302"/>
</g>
<!-- runCommand&#45;&gt;variables -->
<g id="edge47" class="edge">
<title>runCommand&#45;&gt;variables</title>
<path fill="none" stroke="#000000" d="M1257.7106,-1063.6216C1208.0849,-1011.2464 1097.7458,-877.4881 1156.1137,-776.5083 1185.7736,-725.195 1247.2874,-694.3103 1295.0516,-677.1753"/>
<polygon fill="#000000" stroke="#000000" points="1296.41,-680.4088 1304.7128,-673.8274 1294.118,-673.7946 1296.41,-680.4088"/>
</g>
<!-- runCommand&#45;&gt;vartypes -->
<g id="edge35" class="edge">
<title>runCommand&#45;&gt;vartypes</title>
<path fill="none" stroke="#000000" d="M1182.2318,-1077.8566C1047.7826,-1064.5498 816.1967,-1033.3225 760.1137,-972.6274 611.9638,-812.2942 734.1001,-684.8364 823.1137,-485.5083 838.3985,-451.2812 860.19,-414.3331 875.9814,-389.0663"/>
<polygon fill="#000000" stroke="#000000" points="879.1284,-390.6376 881.5047,-380.3127 873.2084,-386.9022 879.1284,-390.6376"/>
</g>
<!-- runCommand&#45;&gt;readlines -->
<g id="edge30" class="edge">
<title>runCommand&#45;&gt;readlines</title>
<path fill="none" stroke="#000000" d="M1375.8232,-1076.7421C1518.8014,-1061.3359 1779.4693,-1026.6812 1855.1137,-972.6274 1899.3117,-941.0446 1926.357,-882.5612 1940.2961,-843.7105"/>
<polygon fill="#000000" stroke="#000000" points="1943.7631,-844.3936 1943.7219,-833.7988 1937.1472,-842.1068 1943.7631,-844.3936"/>
</g>
<!-- runCommand&#45;&gt;funtypes -->
<g id="edge51" class="edge">
<title>runCommand&#45;&gt;funtypes</title>
<path fill="none" stroke="#000000" d="M1227.696,-1066.2574C1184.5737,-1047.734 1124.3736,-1016.3204 1085.1137,-972.6274 1008.4479,-887.3047 967.9484,-753.1154 952.5522,-691.6808"/>
<polygon fill="#000000" stroke="#000000" points="955.9047,-690.6554 950.1301,-681.7726 949.105,-692.3177 955.9047,-690.6554"/>
</g>
<!-- runCommand&#45;&gt;warnings -->
<g id="edge37" class="edge">
<title>runCommand&#45;&gt;warnings</title>
<path fill="none" stroke="#000000" d="M1246.5786,-1064.474C1218.1687,-1044.3275 1178.8433,-1011.5449 1158.1137,-972.6274 1128.6812,-917.371 1141.0177,-895.9057 1136.1137,-833.4917 1134.1299,-808.2436 1132.4461,-801.5673 1136.1137,-776.5083 1155.3775,-644.8879 1222.6684,-617.4967 1206.1137,-485.5083 1194.5099,-392.9919 1162.3226,-287.3345 1145.1846,-235.3566"/>
<polygon fill="#000000" stroke="#000000" points="1148.4481,-234.0787 1141.9682,-225.6965 1141.8065,-236.2901 1148.4481,-234.0787"/>
</g>
<!-- runCommand&#45;&gt;collectCommand -->
<g id="edge81" class="edge">
<title>runCommand&#45;&gt;collectCommand</title>
<path fill="none" stroke="#000000" d="M1365.0242,-1072.6499C1524.0109,-1047.6532 1866.1691,-993.8572 2039.6489,-966.5818"/>
<polygon fill="#000000" stroke="#000000" points="2040.2237,-970.0345 2049.5587,-965.0237 2039.1365,-963.1194 2040.2237,-970.0345"/>
</g>
<!-- runCommand&#45;&gt;opresultwarn -->
<g id="edge82" class="edge">
<title>runCommand&#45;&gt;opresultwarn</title>
<path fill="none" stroke="#000000" d="M1188.6752,-1074.8978C1051.556,-1057.0051 800.488,-1019.0544 723.1137,-972.6274 549.6313,-868.5326 575.5677,-744.8028 574.1137,-542.4917 573.9317,-517.1664 571.2878,-510.6761 574.1137,-485.5083 577.7873,-452.7913 586.605,-416.2238 593.5599,-390.6672"/>
<polygon fill="#000000" stroke="#000000" points="597.005,-391.3418 596.3102,-380.7698 590.2606,-389.4676 597.005,-391.3418"/>
</g>
<!-- runCommand&#45;&gt;messages -->
<g id="edge36" class="edge">
<title>runCommand&#45;&gt;messages</title>
<path fill="none" stroke="#000000" d="M1314.3325,-1064.3601C1375.9262,-1022.4394 1499.1137,-923.7537 1499.1137,-805 1499.1137,-805 1499.1137,-805 1499.1137,-358 1499.1137,-260.468 1499.1137,-145.6755 1499.1137,-86.9342"/>
<polygon fill="#000000" stroke="#000000" points="1502.6138,-86.635 1499.1137,-76.635 1495.6138,-86.635 1502.6138,-86.635"/>
</g>
<!-- runCommand&#45;&gt;matches -->
<g id="edge31" class="edge">
<title>runCommand&#45;&gt;matches</title>
<path fill="none" stroke="#000000" d="M1379.5891,-1078.8101C1519.4201,-1066.5236 1763.6091,-1036.369 1822.1137,-972.6274 1859.1542,-932.2714 1861.5269,-763.9543 1860.7811,-691.9304"/>
<polygon fill="#000000" stroke="#000000" points="1864.277,-691.5832 1860.6459,-681.63 1857.2776,-691.6752 1864.277,-691.5832"/>
</g>
<!-- runCommand&#45;&gt;readjson -->
<g id="edge80" class="edge">
<title>runCommand&#45;&gt;readjson</title>
<path fill="none" stroke="#000000" d="M1182.0547,-1078.0814C1018.8666,-1063.5127 699.9111,-1028.7134 603.1137,-972.6274 493.6396,-909.1962 435.5724,-758.3763 414.491,-691.6826"/>
<polygon fill="#000000" stroke="#000000" points="417.7129,-690.2529 411.4229,-681.7273 411.0234,-692.3146 417.7129,-690.2529"/>
</g>
</g>
</svg>
