<?xml version="1.0" encoding="UTF-8" standalone="no"?>
<!DOCTYPE svg PUBLIC "-//W3C//DTD SVG 1.1//EN"
 "http://www.w3.org/Graphics/SVG/1.1/DTD/svg11.dtd">
<!-- Generated by graphviz version 2.40.1 (20161225.0304)
 -->
<!-- Title: statictea Pages: 1 -->
<svg width="720pt" height="356pt"
 viewBox="0.00 0.00 720.00 356.28" xmlns="http://www.w3.org/2000/svg" xmlns:xlink="http://www.w3.org/1999/xlink">
<g id="graph0" class="graph" transform="scale(.2631 .2631) rotate(0) translate(4 1349.9624)">
<title>statictea</title>
<polygon fill="#ffffff" stroke="transparent" points="-4,4 -4,-1349.9624 2732.2004,-1349.9624 2732.2004,4 -4,4"/>
<!-- runFunction -->
<g id="node1" class="node">
<title>runFunction</title>
<g id="a_node1"><a xlink:href="runFunction.md" xlink:title="runFunction.md">
<ellipse fill="#eee8aa" stroke="#000000" cx="821" cy="-876" rx="94.055" ry="22.7556"/>
<text text-anchor="middle" x="821" y="-868.8" font-family="Times,serif" font-size="24.00" fill="#000000">runFunction</text>
</a>
</g>
</g>
<!-- parseNumber -->
<g id="node3" class="node">
<title>parseNumber</title>
<g id="a_node3"><a xlink:href="parseNumber.md" xlink:title="parseNumber.md">
<polygon fill="#98fb98" stroke="#000000" points="1090.3805,-717.8581 1090.3805,-738.1419 1025.1353,-752.4846 932.8647,-752.4846 867.6195,-738.1419 867.6195,-717.8581 932.8647,-703.5154 1025.1353,-703.5154 1090.3805,-717.8581"/>
<polygon fill="none" stroke="#000000" points="1094.3872,-714.6442 1094.3872,-741.3558 1025.5714,-756.4835 932.4286,-756.4835 863.6128,-741.3558 863.6128,-714.6442 932.4286,-699.5165 1025.5714,-699.5165 1094.3872,-714.6442"/>
<text text-anchor="middle" x="979" y="-720.8" font-family="Times,serif" font-size="24.00" fill="#000000">parseNumber</text>
</a>
</g>
</g>
<!-- runFunction&#45;&gt;parseNumber -->
<g id="edge55" class="edge">
<title>runFunction&#45;&gt;parseNumber</title>
<path fill="none" stroke="#000000" d="M844.6542,-853.8429C870.1293,-829.9801 911.0351,-791.6633 941.0245,-763.572"/>
<polygon fill="#000000" stroke="#000000" points="943.4922,-766.0562 948.3977,-756.6654 938.7067,-760.9474 943.4922,-766.0562"/>
</g>
<!-- regexes -->
<g id="node4" class="node">
<title>regexes</title>
<g id="a_node4"><a xlink:href="regexes.md" xlink:title="regexes.md">
<polygon fill="#98fb98" stroke="#000000" points="1550.187,-569.8581 1550.187,-590.1419 1510.244,-604.4846 1453.756,-604.4846 1413.813,-590.1419 1413.813,-569.8581 1453.756,-555.5154 1510.244,-555.5154 1550.187,-569.8581"/>
<polygon fill="none" stroke="#000000" points="1554.1781,-567.0434 1554.1781,-592.9566 1510.9376,-608.4835 1453.0624,-608.4835 1409.8219,-592.9566 1409.8219,-567.0434 1453.0624,-551.5165 1510.9376,-551.5165 1554.1781,-567.0434"/>
<text text-anchor="middle" x="1482" y="-572.8" font-family="Times,serif" font-size="24.00" fill="#000000">regexes</text>
</a>
</g>
</g>
<!-- runFunction&#45;&gt;regexes -->
<g id="edge54" class="edge">
<title>runFunction&#45;&gt;regexes</title>
<path fill="none" stroke="#000000" d="M818.0493,-853.1286C814.5894,-815.5002 813.8087,-740.6186 855,-699.5083 893.2787,-661.3049 1237.7717,-611.8731 1399.2104,-590.5522"/>
<polygon fill="#000000" stroke="#000000" points="1400.1161,-593.9633 1409.5742,-589.1889 1399.2031,-587.0231 1400.1161,-593.9633"/>
</g>
<!-- unicodes -->
<g id="node7" class="node">
<title>unicodes</title>
<g id="a_node7"><a xlink:href="unicodes.md" xlink:title="unicodes.md">
<polygon fill="#98fb98" stroke="#000000" points="1271.5805,-717.8581 1271.5805,-738.1419 1226.1349,-752.4846 1161.8651,-752.4846 1116.4195,-738.1419 1116.4195,-717.8581 1161.8651,-703.5154 1226.1349,-703.5154 1271.5805,-717.8581"/>
<polygon fill="none" stroke="#000000" points="1275.5825,-714.9276 1275.5825,-741.0724 1226.7519,-756.4835 1161.2481,-756.4835 1112.4175,-741.0724 1112.4175,-714.9276 1161.2481,-699.5165 1226.7519,-699.5165 1275.5825,-714.9276"/>
<text text-anchor="middle" x="1194" y="-720.8" font-family="Times,serif" font-size="24.00" fill="#000000">unicodes</text>
</a>
</g>
</g>
<!-- runFunction&#45;&gt;unicodes -->
<g id="edge57" class="edge">
<title>runFunction&#45;&gt;unicodes</title>
<path fill="none" stroke="#000000" d="M870.1468,-856.4994C936.7886,-830.0571 1055.9345,-782.782 1129.6436,-753.5355"/>
<polygon fill="#000000" stroke="#000000" points="1131.2839,-756.6502 1139.2881,-749.7087 1128.7022,-750.1436 1131.2839,-756.6502"/>
</g>
<!-- vartypes -->
<g id="node10" class="node">
<title>vartypes</title>
<g id="a_node10"><a xlink:href="vartypes.md" xlink:title="vartypes.md">
<ellipse fill="#eee8aa" stroke="#000000" cx="722" cy="-313" rx="68.6102" ry="22.7556"/>
<text text-anchor="middle" x="722" y="-305.8" font-family="Times,serif" font-size="24.00" fill="#000000">vartypes</text>
</a>
</g>
</g>
<!-- runFunction&#45;&gt;vartypes -->
<g id="edge53" class="edge">
<title>runFunction&#45;&gt;vartypes</title>
<path fill="none" stroke="#000000" d="M750.7865,-860.8217C662.3008,-840.1051 517.9847,-800.4868 487,-756.4917 434.2019,-681.5239 627.0452,-430.0774 697.3246,-342.9916"/>
<polygon fill="#000000" stroke="#000000" points="700.1527,-345.0608 703.7308,-335.0885 694.7148,-340.6529 700.1527,-345.0608"/>
</g>
<!-- funtypes -->
<g id="node14" class="node">
<title>funtypes</title>
<g id="a_node14"><a xlink:href="funtypes.md" xlink:title="funtypes.md">
<ellipse fill="#eee8aa" stroke="#000000" cx="722" cy="-580" rx="69.5163" ry="22.7556"/>
<text text-anchor="middle" x="722" y="-572.8" font-family="Times,serif" font-size="24.00" fill="#000000">funtypes</text>
</a>
</g>
</g>
<!-- runFunction&#45;&gt;funtypes -->
<g id="edge62" class="edge">
<title>runFunction&#45;&gt;funtypes</title>
<path fill="none" stroke="#000000" d="M802.9049,-853.7312C785.3154,-830.809 759.358,-793.3376 746,-756.4917 728.5895,-708.4677 723.655,-648.932 722.345,-612.7382"/>
<polygon fill="#000000" stroke="#000000" points="725.8434,-612.6299 722.0545,-602.7357 718.8464,-612.8331 725.8434,-612.6299"/>
</g>
<!-- warnings -->
<g id="node15" class="node">
<title>warnings</title>
<g id="a_node15"><a xlink:href="warnings.md" xlink:title="warnings.md">
<ellipse fill="#eee8aa" stroke="#000000" cx="895" cy="-184" rx="73.5561" ry="22.7556"/>
<text text-anchor="middle" x="895" y="-176.8" font-family="Times,serif" font-size="24.00" fill="#000000">warnings</text>
</a>
</g>
</g>
<!-- runFunction&#45;&gt;warnings -->
<g id="edge52" class="edge">
<title>runFunction&#45;&gt;warnings</title>
<path fill="none" stroke="#000000" d="M811.6564,-853.1261C802.5159,-829.4213 789.2298,-791.067 784,-756.4917 780.2123,-731.4506 781.3194,-724.692 784,-699.5083 789.1928,-650.7222 863.5176,-322.1863 887.5579,-216.6048"/>
<polygon fill="#000000" stroke="#000000" points="890.9789,-217.3452 889.7878,-206.8175 884.1538,-215.7901 890.9789,-217.3452"/>
</g>
<!-- signatures -->
<g id="node20" class="node">
<title>signatures</title>
<g id="a_node20"><a xlink:href="signatures.md" xlink:title="signatures.md">
<ellipse fill="#eee8aa" stroke="#000000" cx="576" cy="-728" rx="80.2483" ry="22.7556"/>
<text text-anchor="middle" x="576" y="-720.8" font-family="Times,serif" font-size="24.00" fill="#000000">signatures</text>
</a>
</g>
</g>
<!-- runFunction&#45;&gt;signatures -->
<g id="edge61" class="edge">
<title>runFunction&#45;&gt;signatures</title>
<path fill="none" stroke="#000000" d="M786.1577,-854.9524C742.0983,-828.3369 666.2689,-782.5298 618.7523,-753.8259"/>
<polygon fill="#000000" stroke="#000000" points="620.3032,-750.6737 609.934,-748.4989 616.6837,-756.6654 620.3032,-750.6737"/>
</g>
<!-- messages -->
<g id="node22" class="node">
<title>messages</title>
<g id="a_node22"><a xlink:href="messages.md" xlink:title="messages.md">
<polygon fill="#98fb98" stroke="#000000" points="1701.7388,-34.8581 1701.7388,-55.1419 1653.8573,-69.4846 1586.1427,-69.4846 1538.2612,-55.1419 1538.2612,-34.8581 1586.1427,-20.5154 1653.8573,-20.5154 1701.7388,-34.8581"/>
<polygon fill="none" stroke="#000000" points="1705.7446,-31.883 1705.7446,-58.117 1654.4454,-73.4835 1585.5546,-73.4835 1534.2554,-58.117 1534.2554,-31.883 1585.5546,-16.5165 1654.4454,-16.5165 1705.7446,-31.883"/>
<text text-anchor="middle" x="1620" y="-37.8" font-family="Times,serif" font-size="24.00" fill="#000000">messages</text>
</a>
</g>
</g>
<!-- runFunction&#45;&gt;messages -->
<g id="edge51" class="edge">
<title>runFunction&#45;&gt;messages</title>
<path fill="none" stroke="#000000" d="M814.0368,-853.2754C804.521,-817.4806 791.8447,-747.1463 822,-699.5083 950.9562,-495.7887 1125.346,-618.4584 1311,-464.6274 1329.1288,-449.606 1522.1186,-181.5102 1593.5823,-81.8803"/>
<polygon fill="#000000" stroke="#000000" points="1596.5306,-83.7748 1599.5139,-73.6087 1590.842,-79.6956 1596.5306,-83.7748"/>
</g>
<!-- matches -->
<g id="node23" class="node">
<title>matches</title>
<g id="a_node23"><a xlink:href="matches.md" xlink:title="matches.md">
<ellipse fill="#eee8aa" stroke="#000000" cx="1829" cy="-728" rx="66.8311" ry="22.7556"/>
<text text-anchor="middle" x="1829" y="-720.8" font-family="Times,serif" font-size="24.00" fill="#000000">matches</text>
</a>
</g>
</g>
<!-- runFunction&#45;&gt;matches -->
<g id="edge56" class="edge">
<title>runFunction&#45;&gt;matches</title>
<path fill="none" stroke="#000000" d="M908.7677,-867.5657C1069.5584,-851.3837 1421.8122,-812.5433 1715,-756.4917 1732.0851,-753.2254 1750.4358,-748.9742 1767.3136,-744.7565"/>
<polygon fill="#000000" stroke="#000000" points="1768.2274,-748.1356 1777.0601,-742.2847 1766.5066,-741.3504 1768.2274,-748.1356"/>
</g>
<!-- opresultid -->
<g id="node2" class="node">
<title>opresultid</title>
<g id="a_node2"><a xlink:href="opresultid.md" xlink:title="opresultid.md">
<ellipse fill="#eee8aa" stroke="#000000" cx="1437" cy="-442" rx="79.3758" ry="22.7556"/>
<text text-anchor="middle" x="1437" y="-434.8" font-family="Times,serif" font-size="24.00" fill="#000000">opresultid</text>
</a>
</g>
</g>
<!-- opresultid&#45;&gt;messages -->
<g id="edge66" class="edge">
<title>opresultid&#45;&gt;messages</title>
<path fill="none" stroke="#000000" d="M1470.5948,-421.3869C1498.3901,-402.5305 1536.6519,-372.0701 1558,-335.6274 1582.866,-293.1794 1605.0915,-152.6871 1614.8109,-83.786"/>
<polygon fill="#000000" stroke="#000000" points="1618.2937,-84.1513 1616.2075,-73.7639 1611.3607,-83.1851 1618.2937,-84.1513"/>
</g>
<!-- parseCmdLine -->
<g id="node5" class="node">
<title>parseCmdLine</title>
<g id="a_node5"><a xlink:href="parseCmdLine.md" xlink:title="parseCmdLine.md">
<ellipse fill="#eee8aa" stroke="#000000" cx="2159" cy="-876" rx="111.4463" ry="22.7556"/>
<text text-anchor="middle" x="2159" y="-868.8" font-family="Times,serif" font-size="24.00" fill="#000000">parseCmdLine</text>
</a>
</g>
</g>
<!-- parseCmdLine&#45;&gt;regexes -->
<g id="edge19" class="edge">
<title>parseCmdLine&#45;&gt;regexes</title>
<path fill="none" stroke="#000000" d="M2133.3777,-853.7941C2089.4743,-816.8014 1995.7943,-742.3973 1905,-699.5083 1792.3834,-646.3109 1651.4309,-612.3695 1564.0466,-594.7536"/>
<polygon fill="#000000" stroke="#000000" points="1564.6779,-591.3106 1554.1868,-592.7894 1563.3103,-598.1757 1564.6779,-591.3106"/>
</g>
<!-- env -->
<g id="node6" class="node">
<title>env</title>
<g id="a_node6"><a xlink:href="env.md" xlink:title="env.md">
<ellipse fill="#eee8aa" stroke="#000000" cx="2191" cy="-728" rx="35.6342" ry="22.7556"/>
<text text-anchor="middle" x="2191" y="-720.8" font-family="Times,serif" font-size="24.00" fill="#000000">env</text>
</a>
</g>
</g>
<!-- parseCmdLine&#45;&gt;env -->
<g id="edge18" class="edge">
<title>parseCmdLine&#45;&gt;env</title>
<path fill="none" stroke="#000000" d="M2163.9299,-853.1993C2169.2776,-828.4661 2177.8615,-788.7656 2183.9275,-760.7104"/>
<polygon fill="#000000" stroke="#000000" points="2187.4246,-761.0975 2186.117,-750.5837 2180.5827,-759.6181 2187.4246,-761.0975"/>
</g>
<!-- parseCmdLine&#45;&gt;messages -->
<g id="edge20" class="edge">
<title>parseCmdLine&#45;&gt;messages</title>
<path fill="none" stroke="#000000" d="M2177.1059,-853.6272C2194.7976,-830.6241 2221.1677,-793.0911 2236,-756.4917 2289.5409,-624.3775 2299,-584.551 2299,-442 2299,-442 2299,-442 2299,-313 2299,-283.9178 2488.2533,-345.3015 2126,-161.3726 1993.2449,-93.9681 1821.1567,-65.0984 1715.7552,-53.0975"/>
<polygon fill="#000000" stroke="#000000" points="1716.0921,-49.6135 1705.7668,-51.9881 1715.3193,-56.5707 1716.0921,-49.6135"/>
</g>
<!-- parseCmdLine&#45;&gt;matches -->
<g id="edge21" class="edge">
<title>parseCmdLine&#45;&gt;matches</title>
<path fill="none" stroke="#000000" d="M2112.7674,-855.2654C2051.0993,-827.6082 1942.3453,-778.8337 1878.8815,-750.3711"/>
<polygon fill="#000000" stroke="#000000" points="1880.035,-747.0526 1869.4784,-746.1539 1877.1705,-753.4397 1880.035,-747.0526"/>
</g>
<!-- tempFile -->
<g id="node9" class="node">
<title>tempFile</title>
<g id="a_node9"><a xlink:href="tempFile.md" xlink:title="tempFile.md">
<polygon fill="#98fb98" stroke="#000000" points="2190.598,-569.8581 2190.598,-590.1419 2145.1421,-604.4846 2080.8579,-604.4846 2035.402,-590.1419 2035.402,-569.8581 2080.8579,-555.5154 2145.1421,-555.5154 2190.598,-569.8581"/>
<polygon fill="none" stroke="#000000" points="2194.6004,-566.9275 2194.6004,-593.0725 2145.7591,-608.4835 2080.2409,-608.4835 2031.3996,-593.0725 2031.3996,-566.9275 2080.2409,-551.5165 2145.7591,-551.5165 2194.6004,-566.9275"/>
<text text-anchor="middle" x="2113" y="-572.8" font-family="Times,serif" font-size="24.00" fill="#000000">tempFile</text>
</a>
</g>
</g>
<!-- env&#45;&gt;tempFile -->
<g id="edge9" class="edge">
<title>env&#45;&gt;tempFile</title>
<path fill="none" stroke="#000000" d="M2179.6581,-706.4795C2167.4347,-683.2864 2147.7431,-645.9229 2132.9254,-617.8072"/>
<polygon fill="#000000" stroke="#000000" points="2135.8637,-615.8754 2128.1049,-608.6606 2129.671,-619.1391 2135.8637,-615.8754"/>
</g>
<!-- env&#45;&gt;warnings -->
<g id="edge11" class="edge">
<title>env&#45;&gt;warnings</title>
<path fill="none" stroke="#000000" d="M2200.9002,-706.0123C2215.4615,-669.9933 2237.507,-597.8009 2204,-551.5083 1986.1859,-250.5804 1768.9304,-386.1301 1410,-290.3726 1255.2116,-249.0772 1070.6566,-214.4158 969.8664,-196.6958"/>
<polygon fill="#000000" stroke="#000000" points="970.2367,-193.2075 959.7829,-194.9305 969.0295,-200.1027 970.2367,-193.2075"/>
</g>
<!-- args -->
<g id="node21" class="node">
<title>args</title>
<g id="a_node21"><a xlink:href="args.md" xlink:title="args.md">
<polygon fill="#98fb98" stroke="#000000" points="2009.5492,-569.8581 2009.5492,-590.1419 1984.6245,-604.4846 1949.3755,-604.4846 1924.4508,-590.1419 1924.4508,-569.8581 1949.3755,-555.5154 1984.6245,-555.5154 2009.5492,-569.8581"/>
<polygon fill="none" stroke="#000000" points="2013.5514,-567.5466 2013.5514,-592.4534 1985.6946,-608.4835 1948.3054,-608.4835 1920.4486,-592.4534 1920.4486,-567.5466 1948.3054,-551.5165 1985.6946,-551.5165 2013.5514,-567.5466"/>
<text text-anchor="middle" x="1967" y="-572.8" font-family="Times,serif" font-size="24.00" fill="#000000">args</text>
</a>
</g>
</g>
<!-- env&#45;&gt;args -->
<g id="edge12" class="edge">
<title>env&#45;&gt;args</title>
<path fill="none" stroke="#000000" d="M2166.1722,-711.5959C2127.755,-686.2131 2053.5273,-637.1698 2007.3367,-606.6511"/>
<polygon fill="#000000" stroke="#000000" points="2009.0452,-603.5849 1998.7724,-600.9925 2005.1863,-609.4253 2009.0452,-603.5849"/>
</g>
<!-- env&#45;&gt;messages -->
<g id="edge10" class="edge">
<title>env&#45;&gt;messages</title>
<path fill="none" stroke="#000000" d="M2200.2955,-705.8374C2219.3368,-658.3651 2261,-542.9588 2261,-442 2261,-442 2261,-442 2261,-313 2261,-194.6033 1884.0526,-100.1915 1708.2833,-62.6035"/>
<polygon fill="#000000" stroke="#000000" points="1708.7874,-59.1326 1698.2785,-60.4789 1707.3333,-65.9799 1708.7874,-59.1326"/>
</g>
<!-- variables -->
<g id="node8" class="node">
<title>variables</title>
<g id="a_node8"><a xlink:href="variables.md" xlink:title="variables.md">
<ellipse fill="#eee8aa" stroke="#000000" cx="1633" cy="-728" rx="72.6337" ry="22.7556"/>
<text text-anchor="middle" x="1633" y="-720.8" font-family="Times,serif" font-size="24.00" fill="#000000">variables</text>
</a>
</g>
</g>
<!-- variables&#45;&gt;vartypes -->
<g id="edge38" class="edge">
<title>variables&#45;&gt;vartypes</title>
<path fill="none" stroke="#000000" d="M1630.1301,-705.1549C1625.3823,-670.9651 1614.4327,-604.8072 1595,-551.5083 1572.2352,-489.0701 1579.5615,-457.3173 1525,-419.3726 1408.9142,-338.641 979.707,-319.1056 800.9442,-314.4395"/>
<polygon fill="#000000" stroke="#000000" points="800.9057,-310.9375 790.8206,-314.1842 800.7292,-317.9353 800.9057,-310.9375"/>
</g>
<!-- tostring -->
<g id="node11" class="node">
<title>tostring</title>
<g id="a_node11"><a xlink:href="tostring.md" xlink:title="tostring.md">
<ellipse fill="#eee8aa" stroke="#000000" cx="1239" cy="-442" rx="63.3406" ry="22.7556"/>
<text text-anchor="middle" x="1239" y="-434.8" font-family="Times,serif" font-size="24.00" fill="#000000">tostring</text>
</a>
</g>
</g>
<!-- variables&#45;&gt;tostring -->
<g id="edge44" class="edge">
<title>variables&#45;&gt;tostring</title>
<path fill="none" stroke="#000000" d="M1630.1332,-705.0987C1624.2658,-667.7658 1607.4586,-593.7277 1563,-551.5083 1524.988,-515.4107 1385.2743,-477.0118 1302.2371,-456.659"/>
<polygon fill="#000000" stroke="#000000" points="1302.9461,-453.2295 1292.4022,-454.2678 1301.2922,-460.0313 1302.9461,-453.2295"/>
</g>
<!-- variables&#45;&gt;warnings -->
<g id="edge41" class="edge">
<title>variables&#45;&gt;warnings</title>
<path fill="none" stroke="#000000" d="M1635.2097,-705.2905C1639.4157,-647.9218 1641.731,-496.2772 1559,-419.3726 1390.768,-262.9884 1112.0251,-209.381 975.4477,-191.9173"/>
<polygon fill="#000000" stroke="#000000" points="975.8213,-188.4369 965.4652,-190.6731 974.9555,-195.3832 975.8213,-188.4369"/>
</g>
<!-- variables&#45;&gt;args -->
<g id="edge45" class="edge">
<title>variables&#45;&gt;args</title>
<path fill="none" stroke="#000000" d="M1677.2058,-710.0325C1732.3798,-687.3703 1829.4206,-646.7309 1911,-608.4917 1914.565,-606.8207 1918.2379,-605.0545 1921.9174,-603.2532"/>
<polygon fill="#000000" stroke="#000000" points="1923.6171,-606.3171 1931.0198,-598.7374 1920.5061,-600.0463 1923.6171,-606.3171"/>
</g>
<!-- variables&#45;&gt;messages -->
<g id="edge40" class="edge">
<title>variables&#45;&gt;messages</title>
<path fill="none" stroke="#000000" d="M1641.4965,-705.3892C1658.6928,-657.531 1696,-542.161 1696,-442 1696,-442 1696,-442 1696,-313 1696,-228.2651 1660.4007,-133.982 1637.9309,-82.9112"/>
<polygon fill="#000000" stroke="#000000" points="1641.0399,-81.2899 1633.763,-73.5894 1634.6496,-84.1471 1641.0399,-81.2899"/>
</g>
<!-- version -->
<g id="node24" class="node">
<title>version</title>
<g id="a_node24"><a xlink:href="version.md" xlink:title="version.md">
<polygon fill="#98fb98" stroke="#000000" points="1898.1523,-569.8581 1898.1523,-590.1419 1859.4012,-604.4846 1804.5988,-604.4846 1765.8477,-590.1419 1765.8477,-569.8581 1804.5988,-555.5154 1859.4012,-555.5154 1898.1523,-569.8581"/>
<polygon fill="none" stroke="#000000" points="1902.1421,-567.0721 1902.1421,-592.9279 1860.1143,-608.4835 1803.8857,-608.4835 1761.8579,-592.9279 1761.8579,-567.0721 1803.8857,-551.5165 1860.1143,-551.5165 1902.1421,-567.0721"/>
<text text-anchor="middle" x="1832" y="-572.8" font-family="Times,serif" font-size="24.00" fill="#000000">version</text>
</a>
</g>
</g>
<!-- variables&#45;&gt;version -->
<g id="edge39" class="edge">
<title>variables&#45;&gt;version</title>
<path fill="none" stroke="#000000" d="M1661.0898,-707.1091C1694.2581,-682.4412 1749.8024,-641.1319 1788.5362,-612.3248"/>
<polygon fill="#000000" stroke="#000000" points="1791.0837,-614.7921 1797.0191,-606.0159 1786.9063,-609.1752 1791.0837,-614.7921"/>
</g>
<!-- vartypes&#45;&gt;warnings -->
<g id="edge33" class="edge">
<title>vartypes&#45;&gt;warnings</title>
<path fill="none" stroke="#000000" d="M749.7954,-292.2739C779.2555,-270.3066 825.9167,-235.513 858.3633,-211.3187"/>
<polygon fill="#000000" stroke="#000000" points="860.7744,-213.8868 866.6988,-205.1032 856.5899,-208.2751 860.7744,-213.8868"/>
</g>
<!-- tostring&#45;&gt;vartypes -->
<g id="edge43" class="edge">
<title>tostring&#45;&gt;vartypes</title>
<path fill="none" stroke="#000000" d="M1190.6324,-427.3967C1181.1617,-424.6477 1171.2871,-421.8582 1162,-419.3726 1030.3704,-384.1433 875.2077,-347.8398 788.7696,-328.0774"/>
<polygon fill="#000000" stroke="#000000" points="789.3594,-324.6221 778.8313,-325.8089 787.8016,-331.4466 789.3594,-324.6221"/>
</g>
<!-- tostring&#45;&gt;warnings -->
<g id="edge42" class="edge">
<title>tostring&#45;&gt;warnings</title>
<path fill="none" stroke="#000000" d="M1211.7194,-421.5395C1150.1792,-375.3844 1000.5421,-263.1565 931.2807,-211.2105"/>
<polygon fill="#000000" stroke="#000000" points="933.344,-208.383 923.244,-205.183 929.144,-213.983 933.344,-208.383"/>
</g>
<!-- replacement -->
<g id="node12" class="node">
<title>replacement</title>
<g id="a_node12"><a xlink:href="replacement.md" xlink:title="replacement.md">
<ellipse fill="#eee8aa" stroke="#000000" cx="1627" cy="-1014" rx="94.4556" ry="22.7556"/>
<text text-anchor="middle" x="1627" y="-1006.8" font-family="Times,serif" font-size="24.00" fill="#000000">replacement</text>
</a>
</g>
</g>
<!-- replacement&#45;&gt;parseNumber -->
<g id="edge82" class="edge">
<title>replacement&#45;&gt;parseNumber</title>
<path fill="none" stroke="#000000" d="M1545.5445,-1002.5474C1423.0672,-984.2568 1198.4153,-946.2341 1129,-904.4917 1071.6914,-870.0297 1025.5411,-805.8645 1000.2353,-765.129"/>
<polygon fill="#000000" stroke="#000000" points="1003.2031,-763.2732 995.0053,-756.5615 997.2283,-766.9205 1003.2031,-763.2732"/>
</g>
<!-- replacement&#45;&gt;regexes -->
<g id="edge73" class="edge">
<title>replacement&#45;&gt;regexes</title>
<path fill="none" stroke="#000000" d="M1618.4794,-991.4366C1610.2075,-969.3566 1597.4107,-934.7297 1587,-904.4917 1551.5774,-801.6066 1512.9037,-679.2203 1493.9,-618.3483"/>
<polygon fill="#000000" stroke="#000000" points="1497.2309,-617.2729 1490.913,-608.7679 1490.5482,-619.3564 1497.2309,-617.2729"/>
</g>
<!-- replacement&#45;&gt;parseCmdLine -->
<g id="edge76" class="edge">
<title>replacement&#45;&gt;parseCmdLine</title>
<path fill="none" stroke="#000000" d="M1691.1716,-997.354C1788.7566,-972.0406 1974.2573,-923.922 2079.9933,-896.4942"/>
<polygon fill="#000000" stroke="#000000" points="2081.1704,-899.8048 2089.9712,-893.906 2079.4127,-893.029 2081.1704,-899.8048"/>
</g>
<!-- replacement&#45;&gt;env -->
<g id="edge74" class="edge">
<title>replacement&#45;&gt;env</title>
<path fill="none" stroke="#000000" d="M1641.9201,-991.3265C1671.2109,-946.9399 1734.0077,-852.4474 1741,-847.5083 1807.2371,-800.7201 2046.0869,-753.8594 2146.2758,-735.7828"/>
<polygon fill="#000000" stroke="#000000" points="2147.1518,-739.1817 2156.3779,-733.973 2145.9174,-732.2913 2147.1518,-739.1817"/>
</g>
<!-- replacement&#45;&gt;variables -->
<g id="edge80" class="edge">
<title>replacement&#45;&gt;variables</title>
<path fill="none" stroke="#000000" d="M1618.0511,-991.3724C1609.9278,-969.5331 1598.546,-935.3329 1594,-904.4917 1590.3069,-879.4365 1590.0221,-872.5199 1594,-847.5083 1598.8291,-817.1442 1610.1535,-784.0086 1619.3621,-760.3467"/>
<polygon fill="#000000" stroke="#000000" points="1622.7071,-761.4071 1623.154,-750.8216 1616.2035,-758.8179 1622.7071,-761.4071"/>
</g>
<!-- replacement&#45;&gt;tempFile -->
<g id="edge81" class="edge">
<title>replacement&#45;&gt;tempFile</title>
<path fill="none" stroke="#000000" d="M1635.5906,-991.3404C1652.0354,-948.37 1687.2837,-858.3447 1698,-847.5083 1768.6671,-776.0485 1819.794,-809.786 1905,-756.4917 1970.874,-715.2891 2037.7432,-654.41 2077.2766,-615.9969"/>
<polygon fill="#000000" stroke="#000000" points="2080.1099,-618.1214 2084.8104,-608.6264 2075.2147,-613.1177 2080.1099,-618.1214"/>
</g>
<!-- replacement&#45;&gt;vartypes -->
<g id="edge75" class="edge">
<title>replacement&#45;&gt;vartypes</title>
<path fill="none" stroke="#000000" d="M1603.0623,-991.9626C1579.2835,-969.9856 1541.8679,-935.1724 1510,-904.4917 1343.2352,-743.9398 1312.6252,-689.8221 1127,-551.5083 1041.2735,-487.6313 1018.1814,-473.5196 926,-419.3726 873.8096,-388.7161 811.9249,-357.0804 770.1107,-336.3669"/>
<polygon fill="#000000" stroke="#000000" points="771.497,-333.1481 760.9807,-331.8598 768.3983,-339.4249 771.497,-333.1481"/>
</g>
<!-- replacement&#45;&gt;tostring -->
<g id="edge83" class="edge">
<title>replacement&#45;&gt;tostring</title>
<path fill="none" stroke="#000000" d="M1611.7899,-991.5769C1551.4796,-902.6658 1329.0804,-574.7989 1259.7675,-472.616"/>
<polygon fill="#000000" stroke="#000000" points="1262.6151,-470.579 1254.1049,-464.2681 1256.822,-474.5086 1262.6151,-470.579"/>
</g>
<!-- readlines -->
<g id="node13" class="node">
<title>readlines</title>
<g id="a_node13"><a xlink:href="readlines.md" xlink:title="readlines.md">
<polygon fill="#98fb98" stroke="#000000" points="1911.5894,-865.8581 1911.5894,-886.1419 1865.5528,-900.4846 1800.4472,-900.4846 1754.4106,-886.1419 1754.4106,-865.8581 1800.4472,-851.5154 1865.5528,-851.5154 1911.5894,-865.8581"/>
<polygon fill="none" stroke="#000000" points="1915.5916,-862.9163 1915.5916,-889.0837 1866.1623,-904.4835 1799.8377,-904.4835 1750.4084,-889.0837 1750.4084,-862.9163 1799.8377,-847.5165 1866.1623,-847.5165 1915.5916,-862.9163"/>
<text text-anchor="middle" x="1833" y="-868.8" font-family="Times,serif" font-size="24.00" fill="#000000">readlines</text>
</a>
</g>
</g>
<!-- replacement&#45;&gt;readlines -->
<g id="edge77" class="edge">
<title>replacement&#45;&gt;readlines</title>
<path fill="none" stroke="#000000" d="M1659.1875,-992.4375C1692.8524,-969.8853 1746.0783,-934.2291 1784.7672,-908.3113"/>
<polygon fill="#000000" stroke="#000000" points="1786.921,-911.0813 1793.2811,-902.6078 1783.0251,-905.2656 1786.921,-911.0813"/>
</g>
<!-- replacement&#45;&gt;messages -->
<g id="edge79" class="edge">
<title>replacement&#45;&gt;messages</title>
<path fill="none" stroke="#000000" d="M1624.5713,-991.212C1621.9687,-958.2057 1620.524,-895.7686 1640,-847.5083 1659.616,-798.9009 1694.6736,-804.8063 1715,-756.4917 1745.5941,-683.7713 1734,-658.894 1734,-580 1734,-580 1734,-580 1734,-313 1734,-224.758 1681.0187,-132.2769 1647.2934,-82.3468"/>
<polygon fill="#000000" stroke="#000000" points="1649.9876,-80.0872 1641.4425,-73.8235 1644.2164,-84.0488 1649.9876,-80.0872"/>
</g>
<!-- replacement&#45;&gt;matches -->
<g id="edge78" class="edge">
<title>replacement&#45;&gt;matches</title>
<path fill="none" stroke="#000000" d="M1628.152,-991.3491C1630.853,-957.4106 1639.8767,-892.5467 1670,-847.5083 1698.1401,-805.4349 1746.182,-772.3622 1782.1098,-751.7764"/>
<polygon fill="#000000" stroke="#000000" points="1783.9517,-754.7564 1790.9636,-746.8139 1780.5291,-748.6502 1783.9517,-754.7564"/>
</g>
<!-- funtypes&#45;&gt;vartypes -->
<g id="edge47" class="edge">
<title>funtypes&#45;&gt;vartypes</title>
<path fill="none" stroke="#000000" d="M722,-557.2357C722,-509.9447 722,-400.9094 722,-345.9444"/>
<polygon fill="#000000" stroke="#000000" points="725.5001,-345.7066 722,-335.7067 718.5001,-345.7067 725.5001,-345.7066"/>
</g>
<!-- funtypes&#45;&gt;tostring -->
<g id="edge49" class="edge">
<title>funtypes&#45;&gt;tostring</title>
<path fill="none" stroke="#000000" d="M775.865,-565.6221C872.9781,-539.7002 1076.7502,-485.3084 1178.5024,-458.1483"/>
<polygon fill="#000000" stroke="#000000" points="1179.5612,-461.4883 1188.3203,-455.5277 1177.7559,-454.7251 1179.5612,-461.4883"/>
</g>
<!-- funtypes&#45;&gt;warnings -->
<g id="edge48" class="edge">
<title>funtypes&#45;&gt;warnings</title>
<path fill="none" stroke="#000000" d="M731.7969,-557.5747C760.9293,-490.8901 847.0975,-293.6497 881.0366,-215.9625"/>
<polygon fill="#000000" stroke="#000000" points="884.3,-217.2351 885.0961,-206.6702 877.8854,-214.4327 884.3,-217.2351"/>
</g>
<!-- warnings&#45;&gt;messages -->
<g id="edge3" class="edge">
<title>warnings&#45;&gt;messages</title>
<path fill="none" stroke="#000000" d="M957.4406,-172.0286C1086.2882,-147.3254 1382.0006,-90.6302 1530.8945,-62.0837"/>
<polygon fill="#000000" stroke="#000000" points="1531.7595,-65.4817 1540.9216,-60.1612 1530.4414,-58.6069 1531.7595,-65.4817"/>
</g>
<!-- collectCommand -->
<g id="node16" class="node">
<title>collectCommand</title>
<g id="a_node16"><a xlink:href="collectCommand.md" xlink:title="collectCommand.md">
<ellipse fill="#eee8aa" stroke="#000000" cx="2137" cy="-1014" rx="127.4982" ry="22.7556"/>
<text text-anchor="middle" x="2137" y="-1006.8" font-family="Times,serif" font-size="24.00" fill="#000000">collectCommand</text>
</a>
</g>
</g>
<!-- collectCommand&#45;&gt;parseCmdLine -->
<g id="edge26" class="edge">
<title>collectCommand&#45;&gt;parseCmdLine</title>
<path fill="none" stroke="#000000" d="M2140.6329,-991.2121C2144.2155,-968.7392 2149.7277,-934.1624 2153.7792,-908.7486"/>
<polygon fill="#000000" stroke="#000000" points="2157.2437,-909.2481 2155.3618,-898.8217 2150.331,-908.146 2157.2437,-909.2481"/>
</g>
<!-- collectCommand&#45;&gt;env -->
<g id="edge23" class="edge">
<title>collectCommand&#45;&gt;env</title>
<path fill="none" stroke="#000000" d="M2183.052,-992.7496C2216.4684,-974.5486 2259.1521,-944.8625 2279,-904.4917 2305.4026,-850.7886 2254.7333,-788.1473 2219.925,-753.8056"/>
<polygon fill="#000000" stroke="#000000" points="2221.975,-750.9214 2212.3397,-746.5155 2217.1244,-755.9684 2221.975,-750.9214"/>
</g>
<!-- collectCommand&#45;&gt;readlines -->
<g id="edge25" class="edge">
<title>collectCommand&#45;&gt;readlines</title>
<path fill="none" stroke="#000000" d="M2090.498,-992.8906C2037.638,-968.8949 1951.1887,-929.6514 1893.2155,-903.3347"/>
<polygon fill="#000000" stroke="#000000" points="1894.3613,-900.0111 1883.8089,-899.0645 1891.4678,-906.3851 1894.3613,-900.0111"/>
</g>
<!-- collectCommand&#45;&gt;matches -->
<g id="edge24" class="edge">
<title>collectCommand&#45;&gt;matches</title>
<path fill="none" stroke="#000000" d="M2115.782,-991.4159C2095.5369,-969.6081 2064.4419,-935.4299 2039,-904.4917 2018.8478,-879.986 2018.7169,-869.6574 1996,-847.5083 1957.6419,-810.1089 1906.7761,-775.4392 1871.302,-753.1802"/>
<polygon fill="#000000" stroke="#000000" points="1872.9731,-750.098 1862.6318,-747.7944 1869.2795,-756.0442 1872.9731,-750.098"/>
</g>
<!-- runner -->
<g id="node17" class="node">
<title>runner</title>
<g id="a_node17"><a xlink:href="runner.md" xlink:title="runner.md">
<polygon fill="#98fb98" stroke="#000000" points="2713.3608,-1290.8581 2713.3608,-1311.1419 2678.0023,-1325.4846 2627.9977,-1325.4846 2592.6392,-1311.1419 2592.6392,-1290.8581 2627.9977,-1276.5154 2678.0023,-1276.5154 2713.3608,-1290.8581"/>
<polygon fill="none" stroke="#000000" points="2717.3724,-1288.1681 2717.3724,-1313.8319 2678.7872,-1329.4835 2627.2128,-1329.4835 2588.6276,-1313.8319 2588.6276,-1288.1681 2627.2128,-1272.5165 2678.7872,-1272.5165 2717.3724,-1288.1681"/>
<text text-anchor="middle" x="2653" y="-1293.8" font-family="Times,serif" font-size="24.00" fill="#000000">runner</text>
</a>
</g>
</g>
<!-- statictea -->
<g id="node18" class="node">
<title>statictea</title>
<g id="a_node18"><a xlink:href="statictea.md" xlink:title="statictea.md">
<polygon fill="#eee8aa" stroke="#000000" points="2405.0958,-1292.3667 2488,-1273.0619 2570.9042,-1292.3667 2570.8268,-1323.6024 2405.1732,-1323.6024 2405.0958,-1292.3667"/>
<text text-anchor="middle" x="2488" y="-1293.8" font-family="Times,serif" font-size="24.00" fill="#000000">statictea</text>
</a>
</g>
</g>
<!-- statictea&#45;&gt;env -->
<g id="edge91" class="edge">
<title>statictea&#45;&gt;env</title>
<path fill="none" stroke="#000000" d="M2482.5744,-1274.2196C2466.8079,-1200.9044 2415.8542,-992.7251 2319,-847.5083 2292.8986,-808.3735 2251.5902,-772.8885 2222.9919,-750.9374"/>
<polygon fill="#000000" stroke="#000000" points="2225.0105,-748.0759 2214.9212,-744.8419 2220.7917,-753.6617 2225.0105,-748.0759"/>
</g>
<!-- gethelp -->
<g id="node19" class="node">
<title>gethelp</title>
<g id="a_node19"><a xlink:href="gethelp.md" xlink:title="gethelp.md">
<polygon fill="#98fb98" stroke="#000000" points="2690.1349,-1142.8581 2690.1349,-1163.1419 2651.394,-1177.4846 2596.606,-1177.4846 2557.8651,-1163.1419 2557.8651,-1142.8581 2596.606,-1128.5154 2651.394,-1128.5154 2690.1349,-1142.8581"/>
<polygon fill="none" stroke="#000000" points="2694.1242,-1140.0722 2694.1242,-1165.9278 2652.1071,-1181.4835 2595.8929,-1181.4835 2553.8758,-1165.9278 2553.8758,-1140.0722 2595.8929,-1124.5165 2652.1071,-1124.5165 2694.1242,-1140.0722"/>
<text text-anchor="middle" x="2624" y="-1145.8" font-family="Times,serif" font-size="24.00" fill="#000000">gethelp</text>
</a>
</g>
</g>
<!-- statictea&#45;&gt;gethelp -->
<g id="edge89" class="edge">
<title>statictea&#45;&gt;gethelp</title>
<path fill="none" stroke="#000000" d="M2509.25,-1277.875C2531.1018,-1254.0951 2565.4373,-1216.73 2590.8611,-1189.0629"/>
<polygon fill="#000000" stroke="#000000" points="2593.5887,-1191.2674 2597.7778,-1181.5359 2588.4344,-1186.531 2593.5887,-1191.2674"/>
</g>
<!-- statictea&#45;&gt;args -->
<g id="edge87" class="edge">
<title>statictea&#45;&gt;args</title>
<path fill="none" stroke="#000000" d="M2497.2746,-1275.1238C2521.6588,-1202.3858 2580.4735,-992.004 2502,-847.5083 2388.2631,-638.081 2240.3497,-703.9865 2022,-608.4917 2018.4438,-606.9364 2014.7971,-605.2533 2011.156,-603.5094"/>
<polygon fill="#000000" stroke="#000000" points="2012.6896,-600.3632 2002.1718,-599.0872 2009.5982,-606.6437 2012.6896,-600.3632"/>
</g>
<!-- statictea&#45;&gt;messages -->
<g id="edge88" class="edge">
<title>statictea&#45;&gt;messages</title>
<path fill="none" stroke="#000000" d="M2543.8675,-1285.9108C2594.2827,-1269.1693 2666.0341,-1236.9153 2703,-1181.4917 2744.5703,-1119.1648 2722,-1088.9182 2722,-1014 2722,-1014 2722,-1014 2722,-313 2722,-106.8186 1984.4563,-58.6223 1716.1287,-47.9104"/>
<polygon fill="#000000" stroke="#000000" points="1716.142,-44.4083 1706.0131,-47.5155 1715.8689,-51.403 1716.142,-44.4083"/>
</g>
<!-- statictea&#45;&gt;version -->
<g id="edge90" class="edge">
<title>statictea&#45;&gt;version</title>
<path fill="none" stroke="#000000" d="M2486.4197,-1273.3168C2479.1151,-1174.4809 2439.5789,-837.5559 2236,-699.5083 2111.8502,-615.3217 2053.8703,-654.1933 1911,-608.4917 1905.4843,-606.7274 1899.7785,-604.8246 1894.0743,-602.869"/>
<polygon fill="#000000" stroke="#000000" points="1895.1047,-599.5218 1884.5099,-599.5428 1892.8054,-606.1334 1895.1047,-599.5218"/>
</g>
<!-- parseCommandLine -->
<g id="node26" class="node">
<title>parseCommandLine</title>
<g id="a_node26"><a xlink:href="parseCommandLine.md" xlink:title="parseCommandLine.md">
<ellipse fill="#eee8aa" stroke="#000000" cx="177" cy="-728" rx="148.8522" ry="22.7556"/>
<text text-anchor="middle" x="177" y="-720.8" font-family="Times,serif" font-size="24.00" fill="#000000">parseCommandLine</text>
</a>
</g>
</g>
<!-- statictea&#45;&gt;parseCommandLine -->
<g id="edge6" class="edge">
<title>statictea&#45;&gt;parseCommandLine</title>
<path fill="none" stroke="#000000" d="M2405.2,-1299.762C2058.5275,-1293.2196 725.5941,-1254.1095 378,-1036.6274 272.0047,-970.3085 210.664,-825.2398 187.602,-760.4156"/>
<polygon fill="#000000" stroke="#000000" points="190.8217,-759.0184 184.2284,-750.7251 184.2108,-761.3199 190.8217,-759.0184"/>
</g>
<!-- processTemplate -->
<g id="node27" class="node">
<title>processTemplate</title>
<g id="a_node27"><a xlink:href="processTemplate.md" xlink:title="processTemplate.md">
<ellipse fill="#eee8aa" stroke="#000000" cx="1982" cy="-1153" rx="125.2054" ry="22.7556"/>
<text text-anchor="middle" x="1982" y="-1145.8" font-family="Times,serif" font-size="24.00" fill="#000000">processTemplate</text>
</a>
</g>
</g>
<!-- statictea&#45;&gt;processTemplate -->
<g id="edge86" class="edge">
<title>statictea&#45;&gt;processTemplate</title>
<path fill="none" stroke="#000000" d="M2434.8055,-1285.4411C2344.5939,-1259.0551 2161.3306,-1205.4524 2057.7442,-1175.1544"/>
<polygon fill="#000000" stroke="#000000" points="2058.5546,-1171.7449 2047.9742,-1172.2968 2056.5895,-1178.4634 2058.5546,-1171.7449"/>
</g>
<!-- signatures&#45;&gt;vartypes -->
<g id="edge58" class="edge">
<title>signatures&#45;&gt;vartypes</title>
<path fill="none" stroke="#000000" d="M583.9533,-705.3931C608.3486,-636.0502 682.1843,-426.1747 710.6443,-345.2783"/>
<polygon fill="#000000" stroke="#000000" points="714.0224,-346.2222 714.0395,-335.6274 707.4191,-343.8991 714.0224,-346.2222"/>
</g>
<!-- signatures&#45;&gt;funtypes -->
<g id="edge59" class="edge">
<title>signatures&#45;&gt;funtypes</title>
<path fill="none" stroke="#000000" d="M597.5428,-706.1621C622.8821,-680.4756 665.0515,-637.7286 693.1849,-609.2098"/>
<polygon fill="#000000" stroke="#000000" points="695.8376,-611.5045 700.3688,-601.9275 690.8543,-606.5885 695.8376,-611.5045"/>
</g>
<!-- signatures&#45;&gt;messages -->
<g id="edge60" class="edge">
<title>signatures&#45;&gt;messages</title>
<path fill="none" stroke="#000000" d="M555.3914,-705.891C515.1464,-660.3076 430,-550.9881 430,-442 430,-442 430,-442 430,-313 430,-130.3366 635.4971,-208.4111 812,-161.3726 1064.0094,-94.2113 1371.2251,-63.4733 1524.0596,-51.4978"/>
<polygon fill="#000000" stroke="#000000" points="1524.6474,-54.9628 1534.3475,-50.7018 1524.1073,-47.9837 1524.6474,-54.9628"/>
</g>
<!-- matches&#45;&gt;regexes -->
<g id="edge15" class="edge">
<title>matches&#45;&gt;regexes</title>
<path fill="none" stroke="#000000" d="M1787.1437,-710.1477C1725.7689,-683.9706 1611.0775,-635.0532 1541.1239,-605.2171"/>
<polygon fill="#000000" stroke="#000000" points="1542.1318,-601.842 1531.5603,-601.1381 1539.3855,-608.2808 1542.1318,-601.842"/>
</g>
<!-- matches&#45;&gt;args -->
<g id="edge14" class="edge">
<title>matches&#45;&gt;args</title>
<path fill="none" stroke="#000000" d="M1849.3624,-706.1621C1872.1834,-681.6874 1909.4467,-641.7239 1935.9149,-613.3377"/>
<polygon fill="#000000" stroke="#000000" points="1938.8132,-615.3615 1943.073,-605.6608 1933.6935,-610.5878 1938.8132,-615.3615"/>
</g>
<!-- readjson -->
<g id="node25" class="node">
<title>readjson</title>
<g id="a_node25"><a xlink:href="readjson.md" xlink:title="readjson.md">
<ellipse fill="#eee8aa" stroke="#000000" cx="1207" cy="-876" rx="68.6102" ry="22.7556"/>
<text text-anchor="middle" x="1207" y="-868.8" font-family="Times,serif" font-size="24.00" fill="#000000">readjson</text>
</a>
</g>
</g>
<!-- readjson&#45;&gt;opresultid -->
<g id="edge67" class="edge">
<title>readjson&#45;&gt;opresultid</title>
<path fill="none" stroke="#000000" d="M1233.0603,-855.0166C1258.5325,-833.0943 1296.5226,-796.3846 1318,-756.4917 1362.4533,-673.9228 1331.4175,-637.8532 1368,-551.5083 1380.0193,-523.1394 1398.9565,-493.7459 1413.9537,-472.5629"/>
<polygon fill="#000000" stroke="#000000" points="1416.9003,-474.4604 1419.8998,-464.299 1411.2182,-470.3721 1416.9003,-474.4604"/>
</g>
<!-- readjson&#45;&gt;unicodes -->
<g id="edge68" class="edge">
<title>readjson&#45;&gt;unicodes</title>
<path fill="none" stroke="#000000" d="M1204.9972,-853.1993C1202.9763,-830.1917 1199.8177,-794.2323 1197.4031,-766.7435"/>
<polygon fill="#000000" stroke="#000000" points="1200.8798,-766.3228 1196.5181,-756.6675 1193.9066,-766.9354 1200.8798,-766.3228"/>
</g>
<!-- readjson&#45;&gt;vartypes -->
<g id="edge64" class="edge">
<title>readjson&#45;&gt;vartypes</title>
<path fill="none" stroke="#000000" d="M1229.3769,-854.3639C1261.4292,-820.6333 1313.5585,-753.7548 1285,-699.5083 1284.071,-697.7436 886.4796,-425.5595 760.0907,-339.0644"/>
<polygon fill="#000000" stroke="#000000" points="762.0455,-336.1611 751.8162,-333.4019 758.0921,-341.9379 762.0455,-336.1611"/>
</g>
<!-- readjson&#45;&gt;messages -->
<g id="edge65" class="edge">
<title>readjson&#45;&gt;messages</title>
<path fill="none" stroke="#000000" d="M1238.723,-855.8535C1269.4984,-834.7091 1315.3437,-798.7062 1342,-756.4917 1392.6163,-676.3326 1345.9209,-628.6691 1401,-551.5083 1440.0961,-496.7383 1482.6177,-516.8959 1525,-464.6274 1564.2549,-416.2157 1561.5244,-395.153 1580,-335.6274 1607.0907,-248.3452 1615.8561,-140.6367 1618.676,-84.017"/>
<polygon fill="#000000" stroke="#000000" points="1622.1861,-83.8761 1619.1505,-73.7255 1615.1936,-83.5537 1622.1861,-83.8761"/>
</g>
<!-- parseCommandLine&#45;&gt;regexes -->
<g id="edge5" class="edge">
<title>parseCommandLine&#45;&gt;regexes</title>
<path fill="none" stroke="#000000" d="M296.5598,-714.4407C558.2514,-684.7623 1176.2082,-614.6798 1399.6034,-589.3446"/>
<polygon fill="#000000" stroke="#000000" points="1400.0795,-592.8131 1409.6213,-588.2085 1399.2906,-585.8577 1400.0795,-592.8131"/>
</g>
<!-- parseCommandLine&#45;&gt;warnings -->
<g id="edge4" class="edge">
<title>parseCommandLine&#45;&gt;warnings</title>
<path fill="none" stroke="#000000" d="M190.8508,-705.281C204.8207,-681.6996 226.3597,-643.4419 241,-608.4917 298.2104,-471.9156 229.5825,-389.0339 340,-290.3726 408.7846,-228.9114 675.974,-200.3481 812.9792,-189.5146"/>
<polygon fill="#000000" stroke="#000000" points="813.3166,-192.9991 823.0151,-188.7344 812.7739,-186.0201 813.3166,-192.9991"/>
</g>
<!-- parseCommandLine&#45;&gt;args -->
<g id="edge1" class="edge">
<title>parseCommandLine&#45;&gt;args</title>
<path fill="none" stroke="#000000" d="M302.1254,-715.7013C358.5766,-710.3584 426.1122,-704.2513 487,-699.5083 1119.2649,-650.2565 1299.3307,-775.9591 1911,-608.4917 1915.3186,-607.3094 1919.6919,-605.7737 1923.9915,-604.0284"/>
<polygon fill="#000000" stroke="#000000" points="1925.5138,-607.1821 1933.2363,-599.9285 1922.676,-600.7831 1925.5138,-607.1821"/>
</g>
<!-- parseCommandLine&#45;&gt;messages -->
<g id="edge2" class="edge">
<title>parseCommandLine&#45;&gt;messages</title>
<path fill="none" stroke="#000000" d="M183.7432,-705.2519C197.3911,-657.1339 227,-541.2995 227,-442 227,-442 227,-442 227,-313 227,-181.1446 356.8042,-202.7472 482,-161.3726 674.8702,-97.6331 1286.1336,-61.4529 1523.9899,-49.4868"/>
<polygon fill="#000000" stroke="#000000" points="1524.193,-52.9811 1534.0058,-48.9862 1523.8435,-45.9898 1524.193,-52.9811"/>
</g>
<!-- processTemplate&#45;&gt;parseCmdLine -->
<g id="edge22" class="edge">
<title>processTemplate&#45;&gt;parseCmdLine</title>
<path fill="none" stroke="#000000" d="M2086.89,-1140.5764C2152.2691,-1126.8087 2231.588,-1097.789 2273,-1036.6274 2305.0608,-989.2767 2246.5941,-935.2485 2202.1875,-903.4704"/>
<polygon fill="#000000" stroke="#000000" points="2204.0063,-900.4714 2193.8048,-897.6112 2199.996,-906.2089 2204.0063,-900.4714"/>
</g>
<!-- processTemplate&#45;&gt;env -->
<g id="edge13" class="edge">
<title>processTemplate&#45;&gt;env</title>
<path fill="none" stroke="#000000" d="M2057.1934,-1134.8594C2139.3152,-1113.3811 2262.9405,-1075.5829 2291,-1036.6274 2340.143,-968.4013 2325.6541,-926.1878 2296,-847.5083 2281.322,-808.5638 2247.5421,-774.0587 2222.2343,-752.2607"/>
<polygon fill="#000000" stroke="#000000" points="2224.2591,-749.3906 2214.3502,-745.6404 2219.7577,-754.7514 2224.2591,-749.3906"/>
</g>
<!-- processTemplate&#45;&gt;variables -->
<g id="edge71" class="edge">
<title>processTemplate&#45;&gt;variables</title>
<path fill="none" stroke="#000000" d="M1980.5415,-1130.3105C1976.0634,-1067.1774 1960.5998,-891.2272 1925,-847.5083 1895.2092,-810.9232 1773.2907,-769.4605 1696.7219,-746.2508"/>
<polygon fill="#000000" stroke="#000000" points="1697.2795,-742.7638 1686.6952,-743.2371 1695.2645,-749.4675 1697.2795,-742.7638"/>
</g>
<!-- processTemplate&#45;&gt;vartypes -->
<g id="edge72" class="edge">
<title>processTemplate&#45;&gt;vartypes</title>
<path fill="none" stroke="#000000" d="M1864.7608,-1144.9739C1497.2452,-1118.2649 392,-1025.5126 392,-876 392,-876 392,-876 392,-580 392,-443.2025 565.503,-364.4084 660.8957,-331.425"/>
<polygon fill="#000000" stroke="#000000" points="662.0918,-334.7152 670.4375,-328.1883 659.8432,-328.0862 662.0918,-334.7152"/>
</g>
<!-- processTemplate&#45;&gt;replacement -->
<g id="edge84" class="edge">
<title>processTemplate&#45;&gt;replacement</title>
<path fill="none" stroke="#000000" d="M1929.2362,-1132.3404C1864.1588,-1106.8594 1753.8482,-1063.6673 1686.0191,-1037.1089"/>
<polygon fill="#000000" stroke="#000000" points="1686.918,-1033.7022 1676.3302,-1033.3152 1684.3658,-1040.2203 1686.918,-1033.7022"/>
</g>
<!-- processTemplate&#45;&gt;readlines -->
<g id="edge17" class="edge">
<title>processTemplate&#45;&gt;readlines</title>
<path fill="none" stroke="#000000" d="M1969.8067,-1130.3319C1944.209,-1082.7442 1884.649,-972.0186 1853.2321,-913.6127"/>
<polygon fill="#000000" stroke="#000000" points="1856.2607,-911.8545 1848.441,-904.7058 1850.0959,-915.1706 1856.2607,-911.8545"/>
</g>
<!-- processTemplate&#45;&gt;collectCommand -->
<g id="edge27" class="edge">
<title>processTemplate&#45;&gt;collectCommand</title>
<path fill="none" stroke="#000000" d="M2006.9034,-1130.6672C2033.4554,-1106.8561 2075.6028,-1069.0594 2104.693,-1042.9721"/>
<polygon fill="#000000" stroke="#000000" points="2107.0502,-1045.5594 2112.1584,-1036.2773 2102.3767,-1040.348 2107.0502,-1045.5594"/>
</g>
<!-- processTemplate&#45;&gt;args -->
<g id="edge7" class="edge">
<title>processTemplate&#45;&gt;args</title>
<path fill="none" stroke="#000000" d="M2063.9975,-1135.7845C2153.1024,-1115.2324 2286.8419,-1078.3575 2317,-1036.6274 2366.2361,-968.4989 2340.2481,-928.836 2319,-847.5083 2299.9364,-774.5419 2292.1518,-749.8519 2236,-699.5083 2159.0446,-630.513 2115.5093,-652.5199 2022,-608.4917 2018.6404,-606.9099 2015.1864,-605.2364 2011.7246,-603.5247"/>
<polygon fill="#000000" stroke="#000000" points="2013.1093,-600.3035 2002.6024,-598.9415 2009.9667,-606.5585 2013.1093,-600.3035"/>
</g>
<!-- processTemplate&#45;&gt;messages -->
<g id="edge8" class="edge">
<title>processTemplate&#45;&gt;messages</title>
<path fill="none" stroke="#000000" d="M2065.0154,-1136.0407C2159.0992,-1115.1808 2304.3067,-1077.4802 2342,-1036.6274 2483.4173,-883.3563 2450,-788.5447 2450,-580 2450,-580 2450,-580 2450,-313 2450,-160.2168 1934.2645,-81.7755 1715.8701,-55.4079"/>
<polygon fill="#000000" stroke="#000000" points="1716.0433,-51.9037 1705.6984,-54.1915 1715.2121,-58.8542 1716.0433,-51.9037"/>
</g>
<!-- processTemplate&#45;&gt;matches -->
<g id="edge16" class="edge">
<title>processTemplate&#45;&gt;matches</title>
<path fill="none" stroke="#000000" d="M1985.6065,-1130.0833C1992.8217,-1077.1884 2004.607,-943.7492 1958,-847.5083 1938.8042,-807.8699 1900.2788,-774.9554 1870.3045,-753.7739"/>
<polygon fill="#000000" stroke="#000000" points="1871.9253,-750.6404 1861.7047,-747.8491 1867.9539,-756.4048 1871.9253,-750.6404"/>
</g>
<!-- processTemplate&#45;&gt;readjson -->
<g id="edge85" class="edge">
<title>processTemplate&#45;&gt;readjson</title>
<path fill="none" stroke="#000000" d="M1867.0681,-1143.8903C1662.0375,-1126.4703 1250.5691,-1085.7651 1208,-1036.6274 1177.6694,-1001.6166 1186.2773,-944.4153 1196.0629,-908.5591"/>
<polygon fill="#000000" stroke="#000000" points="1199.5256,-909.1863 1198.9589,-898.6066 1192.8043,-907.2305 1199.5256,-909.1863"/>
</g>
<!-- runCommand -->
<g id="node28" class="node">
<title>runCommand</title>
<g id="a_node28"><a xlink:href="runCommand.md" xlink:title="runCommand.md">
<ellipse fill="#eee8aa" stroke="#000000" cx="1322" cy="-1014" rx="104.7872" ry="22.7556"/>
<text text-anchor="middle" x="1322" y="-1006.8" font-family="Times,serif" font-size="24.00" fill="#000000">runCommand</text>
</a>
</g>
</g>
<!-- processTemplate&#45;&gt;runCommand -->
<g id="edge70" class="edge">
<title>processTemplate&#45;&gt;runCommand</title>
<path fill="none" stroke="#000000" d="M1900.4091,-1135.8165C1774.8214,-1109.3669 1535.3024,-1058.9228 1407.4343,-1031.993"/>
<polygon fill="#000000" stroke="#000000" points="1407.8027,-1028.4938 1397.296,-1029.8578 1406.36,-1035.3436 1407.8027,-1028.4938"/>
</g>
<!-- runCommand&#45;&gt;runFunction -->
<g id="edge63" class="edge">
<title>runCommand&#45;&gt;runFunction</title>
<path fill="none" stroke="#000000" d="M1257.2728,-996.171C1163.5443,-970.3535 990.5987,-922.7158 892.9709,-895.8243"/>
<polygon fill="#000000" stroke="#000000" points="893.7555,-892.4101 883.185,-893.1288 891.8965,-899.1588 893.7555,-892.4101"/>
</g>
<!-- runCommand&#45;&gt;parseNumber -->
<g id="edge37" class="edge">
<title>runCommand&#45;&gt;parseNumber</title>
<path fill="none" stroke="#000000" d="M1241.7484,-999.3798C1181.9639,-984.697 1102.0067,-956.5127 1050,-904.4917 1012.1669,-866.6483 993.7831,-806.0116 985.3841,-766.5918"/>
<polygon fill="#000000" stroke="#000000" points="988.77,-765.6759 983.3649,-756.5636 981.9077,-767.0577 988.77,-765.6759"/>
</g>
<!-- runCommand&#45;&gt;regexes -->
<g id="edge31" class="edge">
<title>runCommand&#45;&gt;regexes</title>
<path fill="none" stroke="#000000" d="M1328.3962,-991.295C1338.3317,-958.1221 1359.4513,-895.1762 1389,-847.5083 1417.5306,-801.4827 1449.0343,-806.4195 1470,-756.4917 1488.6686,-712.0344 1488.9522,-655.7248 1486.3797,-618.8221"/>
<polygon fill="#000000" stroke="#000000" points="1489.8394,-618.1786 1485.5493,-608.4912 1482.8619,-618.7395 1489.8394,-618.1786"/>
</g>
<!-- runCommand&#45;&gt;parseCmdLine -->
<g id="edge28" class="edge">
<title>runCommand&#45;&gt;parseCmdLine</title>
<path fill="none" stroke="#000000" d="M1405.3148,-1000.2635C1561.3468,-974.5378 1896.7744,-919.2343 2062.4106,-891.9251"/>
<polygon fill="#000000" stroke="#000000" points="2063.2906,-895.3274 2072.588,-890.2471 2062.1518,-888.4206 2063.2906,-895.3274"/>
</g>
<!-- runCommand&#45;&gt;env -->
<g id="edge32" class="edge">
<title>runCommand&#45;&gt;env</title>
<path fill="none" stroke="#000000" d="M1362.5245,-993.0115C1430.1237,-958.6786 1570.8447,-890.0783 1696,-847.5083 1858.4285,-792.2603 2059.0548,-752.0981 2146.6225,-735.8989"/>
<polygon fill="#000000" stroke="#000000" points="2147.2796,-739.3369 2156.4829,-734.088 2146.0151,-732.452 2147.2796,-739.3369"/>
</g>
<!-- runCommand&#45;&gt;variables -->
<g id="edge46" class="edge">
<title>runCommand&#45;&gt;variables</title>
<path fill="none" stroke="#000000" d="M1334.4198,-991.4201C1353.9861,-957.2866 1394.6711,-891.8379 1442,-847.5083 1484.9972,-807.2358 1543.5109,-772.9854 1584.4017,-751.6103"/>
<polygon fill="#000000" stroke="#000000" points="1586.0823,-754.6816 1593.3627,-746.9844 1582.8713,-748.4615 1586.0823,-754.6816"/>
</g>
<!-- runCommand&#45;&gt;vartypes -->
<g id="edge34" class="edge">
<title>runCommand&#45;&gt;vartypes</title>
<path fill="none" stroke="#000000" d="M1218.8006,-1010.013C1089.7434,-1001.9697 864.112,-977.7024 686,-904.4917 579.7171,-860.8055 527.1317,-858.3817 474,-756.4917 390.5269,-596.4164 598.9971,-408.8573 685.9907,-340.0525"/>
<polygon fill="#000000" stroke="#000000" points="688.2997,-342.6899 694.0164,-333.7697 683.9847,-337.178 688.2997,-342.6899"/>
</g>
<!-- runCommand&#45;&gt;readlines -->
<g id="edge29" class="edge">
<title>runCommand&#45;&gt;readlines</title>
<path fill="none" stroke="#000000" d="M1387.4977,-996.3118C1481.9762,-970.797 1656.1406,-923.7624 1756.4342,-896.6773"/>
<polygon fill="#000000" stroke="#000000" points="1757.4605,-900.0256 1766.2021,-894.0394 1755.6354,-893.2677 1757.4605,-900.0256"/>
</g>
<!-- runCommand&#45;&gt;funtypes -->
<g id="edge50" class="edge">
<title>runCommand&#45;&gt;funtypes</title>
<path fill="none" stroke="#000000" d="M1218.234,-1010.639C1062.6741,-1003.1708 780.5419,-979.3925 718,-904.4917 647.5618,-820.1344 686.7896,-675.9331 709.4553,-612.0642"/>
<polygon fill="#000000" stroke="#000000" points="712.7961,-613.1189 712.9315,-602.5249 706.2192,-610.7222 712.7961,-613.1189"/>
</g>
<!-- runCommand&#45;&gt;warnings -->
<g id="edge36" class="edge">
<title>runCommand&#45;&gt;warnings</title>
<path fill="none" stroke="#000000" d="M1221.8965,-1007.1346C1040.77,-993.517 666.5202,-959.556 549,-904.4917 443.1498,-854.8954 354,-844.8934 354,-728 354,-728 354,-728 354,-442 354,-338.0547 683.4891,-239.2174 828.1953,-200.8219"/>
<polygon fill="#000000" stroke="#000000" points="829.0934,-204.2048 837.8711,-198.2717 827.3093,-197.436 829.0934,-204.2048"/>
</g>
<!-- runCommand&#45;&gt;messages -->
<g id="edge35" class="edge">
<title>runCommand&#45;&gt;messages</title>
<path fill="none" stroke="#000000" d="M1219.4083,-1009.2252C1050.8936,-999.6727 705.8526,-972.9085 422,-904.4917 224.3619,-856.8552 0,-931.2979 0,-728 0,-728 0,-728 0,-313 0,-164.3967 155.1528,-202.3312 298,-161.3726 528.7143,-95.2198 1259.4977,-59.6652 1523.5951,-48.7198"/>
<polygon fill="#000000" stroke="#000000" points="1524.0803,-52.2029 1533.9278,-48.2943 1523.7922,-45.2088 1524.0803,-52.2029"/>
</g>
<!-- runCommand&#45;&gt;matches -->
<g id="edge30" class="edge">
<title>runCommand&#45;&gt;matches</title>
<path fill="none" stroke="#000000" d="M1343.303,-991.5627C1377.3878,-956.7311 1447.542,-889.3153 1518,-847.5083 1598.7912,-799.5699 1702.2463,-764.3567 1767.0902,-745.0172"/>
<polygon fill="#000000" stroke="#000000" points="1768.1613,-748.3505 1776.7629,-742.1648 1766.1813,-741.6363 1768.1613,-748.3505"/>
</g>
<!-- runCommand&#45;&gt;readjson -->
<g id="edge69" class="edge">
<title>runCommand&#45;&gt;readjson</title>
<path fill="none" stroke="#000000" d="M1303.2673,-991.5208C1283.8559,-968.227 1253.4109,-931.693 1231.9655,-905.9585"/>
<polygon fill="#000000" stroke="#000000" points="1234.4349,-903.4547 1225.3443,-898.0131 1229.0574,-907.936 1234.4349,-903.4547"/>
</g>
</g>
</svg>
