<?xml version="1.0" encoding="UTF-8" standalone="no"?>
<!DOCTYPE svg PUBLIC "-//W3C//DTD SVG 1.1//EN"
 "http://www.w3.org/Graphics/SVG/1.1/DTD/svg11.dtd">
<!-- Generated by graphviz version 2.40.1 (20161225.0304)
 -->
<!-- Title: statictea Pages: 1 -->
<svg width="720pt" height="330pt"
 viewBox="0.00 0.00 720.00 329.60" xmlns="http://www.w3.org/2000/svg" xmlns:xlink="http://www.w3.org/1999/xlink">
<g id="graph0" class="graph" transform="scale(.3046 .3046) rotate(0) translate(4 1078.1944)">
<title>statictea</title>
<polygon fill="#ffffff" stroke="transparent" points="-4,4 -4,-1078.1944 2360,-1078.1944 2360,4 -4,4"/>
<!-- runFunction -->
<g id="node1" class="node">
<title>runFunction</title>
<g id="a_node1"><a xlink:href="runFunction.md" xlink:title="runFunction.md">
<ellipse fill="#eee8aa" stroke="#000000" cx="1432" cy="-559" rx="94.055" ry="22.7556"/>
<text text-anchor="middle" x="1432" y="-551.8" font-family="Times,serif" font-size="24.00" fill="#000000">runFunction</text>
</a>
</g>
</g>
<!-- parseNumber -->
<g id="node2" class="node">
<title>parseNumber</title>
<g id="a_node2"><a xlink:href="parseNumber.md" xlink:title="parseNumber.md">
<polygon fill="#98fb98" stroke="#000000" points="1564.3805,-379.8581 1564.3805,-400.1419 1499.1353,-414.4846 1406.8647,-414.4846 1341.6195,-400.1419 1341.6195,-379.8581 1406.8647,-365.5154 1499.1353,-365.5154 1564.3805,-379.8581"/>
<polygon fill="none" stroke="#000000" points="1568.3872,-376.6442 1568.3872,-403.3558 1499.5714,-418.4835 1406.4286,-418.4835 1337.6128,-403.3558 1337.6128,-376.6442 1406.4286,-361.5165 1499.5714,-361.5165 1568.3872,-376.6442"/>
<text text-anchor="middle" x="1453" y="-382.8" font-family="Times,serif" font-size="24.00" fill="#000000">parseNumber</text>
</a>
</g>
</g>
<!-- runFunction&#45;&gt;parseNumber -->
<g id="edge47" class="edge">
<title>runFunction&#45;&gt;parseNumber</title>
<path fill="none" stroke="#000000" d="M1434.8322,-536.2079C1438.2467,-508.729 1444.04,-462.1068 1448.1664,-428.8989"/>
<polygon fill="#000000" stroke="#000000" points="1451.6825,-428.985 1449.4425,-418.6297 1444.736,-428.1217 1451.6825,-428.985"/>
</g>
<!-- regexes -->
<g id="node3" class="node">
<title>regexes</title>
<g id="a_node3"><a xlink:href="regexes.md" xlink:title="regexes.md">
<polygon fill="#98fb98" stroke="#000000" points="1176.187,-210.8581 1176.187,-231.1419 1136.244,-245.4846 1079.756,-245.4846 1039.813,-231.1419 1039.813,-210.8581 1079.756,-196.5154 1136.244,-196.5154 1176.187,-210.8581"/>
<polygon fill="none" stroke="#000000" points="1180.1781,-208.0434 1180.1781,-233.9566 1136.9376,-249.4835 1079.0624,-249.4835 1035.8219,-233.9566 1035.8219,-208.0434 1079.0624,-192.5165 1136.9376,-192.5165 1180.1781,-208.0434"/>
<text text-anchor="middle" x="1108" y="-213.8" font-family="Times,serif" font-size="24.00" fill="#000000">regexes</text>
</a>
</g>
</g>
<!-- runFunction&#45;&gt;regexes -->
<g id="edge46" class="edge">
<title>runFunction&#45;&gt;regexes</title>
<path fill="none" stroke="#000000" d="M1400.884,-537.4296C1364.5332,-511.4557 1303.5694,-465.4369 1258,-418.4917 1208.1651,-367.1523 1159.8225,-299.2463 1132.0343,-257.9153"/>
<polygon fill="#000000" stroke="#000000" points="1134.8881,-255.8864 1126.4234,-249.5146 1129.0671,-259.7743 1134.8881,-255.8864"/>
</g>
<!-- vartypes -->
<g id="node8" class="node">
<title>vartypes</title>
<g id="a_node8"><a xlink:href="vartypes.md" xlink:title="vartypes.md">
<ellipse fill="#eee8aa" stroke="#000000" cx="1970" cy="-221" rx="68.6102" ry="22.7556"/>
<text text-anchor="middle" x="1970" y="-213.8" font-family="Times,serif" font-size="24.00" fill="#000000">vartypes</text>
</a>
</g>
</g>
<!-- runFunction&#45;&gt;vartypes -->
<g id="edge45" class="edge">
<title>runFunction&#45;&gt;vartypes</title>
<path fill="none" stroke="#000000" d="M1405.1132,-537.1996C1361.1604,-498.9596 1283.1862,-418.4523 1329,-361.5083 1398.942,-274.5743 1737.1149,-238.4148 1892.1072,-226.225"/>
<polygon fill="#000000" stroke="#000000" points="1892.7948,-229.6824 1902.4954,-225.4224 1892.2555,-222.7032 1892.7948,-229.6824"/>
</g>
<!-- tostring -->
<g id="node10" class="node">
<title>tostring</title>
<g id="a_node10"><a xlink:href="tostring.md" xlink:title="tostring.md">
<ellipse fill="#eee8aa" stroke="#000000" cx="1803" cy="-390" rx="63.3406" ry="22.7556"/>
<text text-anchor="middle" x="1803" y="-382.8" font-family="Times,serif" font-size="24.00" fill="#000000">tostring</text>
</a>
</g>
</g>
<!-- runFunction&#45;&gt;tostring -->
<g id="edge49" class="edge">
<title>runFunction&#45;&gt;tostring</title>
<path fill="none" stroke="#000000" d="M1476.0155,-538.9498C1545.911,-507.1106 1681.7879,-445.2152 1754.4334,-412.1233"/>
<polygon fill="#000000" stroke="#000000" points="1756.1749,-415.1761 1763.8242,-407.8456 1753.273,-408.8059 1756.1749,-415.1761"/>
</g>
<!-- warnings -->
<g id="node13" class="node">
<title>warnings</title>
<g id="a_node13"><a xlink:href="warnings.md" xlink:title="warnings.md">
<polygon fill="#98fb98" stroke="#000000" points="1933.6684,-41.8581 1933.6684,-62.1419 1886.9997,-76.4846 1821.0003,-76.4846 1774.3316,-62.1419 1774.3316,-41.8581 1821.0003,-27.5154 1886.9997,-27.5154 1933.6684,-41.8581"/>
<polygon fill="none" stroke="#000000" points="1937.6725,-38.9048 1937.6725,-65.0952 1887.6019,-80.4835 1820.3981,-80.4835 1770.3275,-65.0952 1770.3275,-38.9048 1820.3981,-23.5165 1887.6019,-23.5165 1937.6725,-38.9048"/>
<text text-anchor="middle" x="1854" y="-44.8" font-family="Times,serif" font-size="24.00" fill="#000000">warnings</text>
</a>
</g>
</g>
<!-- runFunction&#45;&gt;warnings -->
<g id="edge44" class="edge">
<title>runFunction&#45;&gt;warnings</title>
<path fill="none" stroke="#000000" d="M1401.9628,-537.5439C1355.2914,-501.4598 1274.4347,-426.2186 1312,-361.5083 1411.5784,-189.9735 1645.8503,-105.5039 1771.2923,-71.29"/>
<polygon fill="#000000" stroke="#000000" points="1772.4885,-74.5929 1781.2394,-68.6202 1770.6739,-67.8322 1772.4885,-74.5929"/>
</g>
<!-- matches -->
<g id="node18" class="node">
<title>matches</title>
<g id="a_node18"><a xlink:href="matches.md" xlink:title="matches.md">
<ellipse fill="#eee8aa" stroke="#000000" cx="987" cy="-390" rx="66.8311" ry="22.7556"/>
<text text-anchor="middle" x="987" y="-382.8" font-family="Times,serif" font-size="24.00" fill="#000000">matches</text>
</a>
</g>
</g>
<!-- runFunction&#45;&gt;matches -->
<g id="edge48" class="edge">
<title>runFunction&#45;&gt;matches</title>
<path fill="none" stroke="#000000" d="M1381.3861,-539.7781C1296.8517,-507.674 1127.6804,-443.4269 1040.9657,-410.4949"/>
<polygon fill="#000000" stroke="#000000" points="1042.1613,-407.205 1031.5701,-406.9266 1039.676,-413.749 1042.1613,-407.205"/>
</g>
<!-- parseCmdLine -->
<g id="node4" class="node">
<title>parseCmdLine</title>
<g id="a_node4"><a xlink:href="parseCmdLine.md" xlink:title="parseCmdLine.md">
<ellipse fill="#eee8aa" stroke="#000000" cx="905" cy="-559" rx="111.4463" ry="22.7556"/>
<text text-anchor="middle" x="905" y="-551.8" font-family="Times,serif" font-size="24.00" fill="#000000">parseCmdLine</text>
</a>
</g>
</g>
<!-- parseCmdLine&#45;&gt;regexes -->
<g id="edge18" class="edge">
<title>parseCmdLine&#45;&gt;regexes</title>
<path fill="none" stroke="#000000" d="M899.5474,-536.3312C891.558,-497.8078 880.6849,-418.2332 911,-361.5083 940.144,-306.9748 1000.8973,-268.7018 1047.2782,-246.0184"/>
<polygon fill="#000000" stroke="#000000" points="1048.8317,-249.1553 1056.3491,-241.6894 1045.8167,-242.8378 1048.8317,-249.1553"/>
</g>
<!-- env -->
<g id="node5" class="node">
<title>env</title>
<g id="a_node5"><a xlink:href="env.md" xlink:title="env.md">
<ellipse fill="#eee8aa" stroke="#000000" cx="506" cy="-390" rx="35.6342" ry="22.7556"/>
<text text-anchor="middle" x="506" y="-382.8" font-family="Times,serif" font-size="24.00" fill="#000000">env</text>
</a>
</g>
</g>
<!-- parseCmdLine&#45;&gt;env -->
<g id="edge17" class="edge">
<title>parseCmdLine&#45;&gt;env</title>
<path fill="none" stroke="#000000" d="M856.4737,-538.4462C776.4728,-504.5611 618.4691,-437.6373 545.1174,-406.5685"/>
<polygon fill="#000000" stroke="#000000" points="546.3372,-403.2842 535.764,-402.6068 543.607,-409.7299 546.3372,-403.2842"/>
</g>
<!-- parseCmdLine&#45;&gt;warnings -->
<g id="edge19" class="edge">
<title>parseCmdLine&#45;&gt;warnings</title>
<path fill="none" stroke="#000000" d="M890.4541,-536.3027C852.0484,-473.2431 756.743,-293.9071 845,-192.5083 904.7764,-123.8309 1521.214,-74.7276 1760.1203,-58.1435"/>
<polygon fill="#000000" stroke="#000000" points="1760.4434,-61.6296 1770.1785,-57.449 1759.9612,-54.6462 1760.4434,-61.6296"/>
</g>
<!-- parseCmdLine&#45;&gt;matches -->
<g id="edge20" class="edge">
<title>parseCmdLine&#45;&gt;matches</title>
<path fill="none" stroke="#000000" d="M916.0589,-536.2079C930.3826,-506.687 955.4266,-455.072 971.6037,-421.7314"/>
<polygon fill="#000000" stroke="#000000" points="974.8998,-422.9558 976.1163,-412.431 968.602,-419.9 974.8998,-422.9558"/>
</g>
<!-- tempFile -->
<g id="node7" class="node">
<title>tempFile</title>
<g id="a_node7"><a xlink:href="tempFile.md" xlink:title="tempFile.md">
<polygon fill="#98fb98" stroke="#000000" points="1013.598,-210.8581 1013.598,-231.1419 968.1421,-245.4846 903.8579,-245.4846 858.402,-231.1419 858.402,-210.8581 903.8579,-196.5154 968.1421,-196.5154 1013.598,-210.8581"/>
<polygon fill="none" stroke="#000000" points="1017.6004,-207.9275 1017.6004,-234.0725 968.7591,-249.4835 903.2409,-249.4835 854.3996,-234.0725 854.3996,-207.9275 903.2409,-192.5165 968.7591,-192.5165 1017.6004,-207.9275"/>
<text text-anchor="middle" x="936" y="-213.8" font-family="Times,serif" font-size="24.00" fill="#000000">tempFile</text>
</a>
</g>
</g>
<!-- env&#45;&gt;tempFile -->
<g id="edge4" class="edge">
<title>env&#45;&gt;tempFile</title>
<path fill="none" stroke="#000000" d="M536.5798,-377.9814C606.142,-350.6419 777.4631,-283.3087 871.5523,-246.3294"/>
<polygon fill="#000000" stroke="#000000" points="872.9391,-249.5451 880.9658,-242.6297 870.3785,-243.0302 872.9391,-249.5451"/>
</g>
<!-- env&#45;&gt;warnings -->
<g id="edge5" class="edge">
<title>env&#45;&gt;warnings</title>
<path fill="none" stroke="#000000" d="M527.1992,-371.4674C574.5303,-331.2469 693.9591,-236.0767 812,-192.5083 985.6098,-128.4295 1537.865,-77.7133 1760.065,-59.3896"/>
<polygon fill="#000000" stroke="#000000" points="1760.3938,-62.8744 1770.0738,-58.5677 1759.8208,-55.8979 1760.3938,-62.8744"/>
</g>
<!-- args -->
<g id="node17" class="node">
<title>args</title>
<g id="a_node17"><a xlink:href="args.md" xlink:title="args.md">
<polygon fill="#98fb98" stroke="#000000" points="257.5492,-210.8581 257.5492,-231.1419 232.6245,-245.4846 197.3755,-245.4846 172.4508,-231.1419 172.4508,-210.8581 197.3755,-196.5154 232.6245,-196.5154 257.5492,-210.8581"/>
<polygon fill="none" stroke="#000000" points="261.5514,-208.5466 261.5514,-233.4534 233.6946,-249.4835 196.3054,-249.4835 168.4486,-233.4534 168.4486,-208.5466 196.3054,-192.5165 233.6946,-192.5165 261.5514,-208.5466"/>
<text text-anchor="middle" x="215" y="-213.8" font-family="Times,serif" font-size="24.00" fill="#000000">args</text>
</a>
</g>
</g>
<!-- env&#45;&gt;args -->
<g id="edge6" class="edge">
<title>env&#45;&gt;args</title>
<path fill="none" stroke="#000000" d="M479.4043,-374.5544C428.9582,-345.2575 318.9761,-281.3847 257.9507,-245.9439"/>
<polygon fill="#000000" stroke="#000000" points="259.3595,-242.7146 248.9543,-240.7191 255.844,-248.7679 259.3595,-242.7146"/>
</g>
<!-- variables -->
<g id="node6" class="node">
<title>variables</title>
<g id="a_node6"><a xlink:href="variables.md" xlink:title="variables.md">
<ellipse fill="#eee8aa" stroke="#000000" cx="1845" cy="-559" rx="72.6337" ry="22.7556"/>
<text text-anchor="middle" x="1845" y="-551.8" font-family="Times,serif" font-size="24.00" fill="#000000">variables</text>
</a>
</g>
</g>
<!-- variables&#45;&gt;vartypes -->
<g id="edge37" class="edge">
<title>variables&#45;&gt;vartypes</title>
<path fill="none" stroke="#000000" d="M1856.0912,-536.468C1869.3804,-508.9996 1891.8691,-460.9798 1908,-418.4917 1929.6615,-361.4362 1949.8678,-293.1695 1961.017,-253.6743"/>
<polygon fill="#000000" stroke="#000000" points="1964.4547,-254.3776 1963.7835,-243.8041 1957.7144,-252.4884 1964.4547,-254.3776"/>
</g>
<!-- variables&#45;&gt;tostring -->
<g id="edge42" class="edge">
<title>variables&#45;&gt;tostring</title>
<path fill="none" stroke="#000000" d="M1839.3357,-536.2079C1832.0509,-506.8953 1819.3525,-455.7995 1811.062,-422.44"/>
<polygon fill="#000000" stroke="#000000" points="1814.4501,-421.5609 1808.6415,-412.7002 1807.6567,-423.2492 1814.4501,-421.5609"/>
</g>
<!-- variables&#45;&gt;warnings -->
<g id="edge39" class="edge">
<title>variables&#45;&gt;warnings</title>
<path fill="none" stroke="#000000" d="M1851.375,-536.3602C1858.7797,-508.7858 1870.5483,-460.6616 1875,-418.4917 1887.5748,-299.3734 1870.3669,-157.6228 1860.3292,-90.6753"/>
<polygon fill="#000000" stroke="#000000" points="1863.758,-89.9433 1858.7854,-80.5878 1856.8385,-91.0023 1863.758,-89.9433"/>
</g>
<!-- version -->
<g id="node19" class="node">
<title>version</title>
<g id="a_node19"><a xlink:href="version.md" xlink:title="version.md">
<polygon fill="#98fb98" stroke="#000000" points="2134.1523,-379.8581 2134.1523,-400.1419 2095.4012,-414.4846 2040.5988,-414.4846 2001.8477,-400.1419 2001.8477,-379.8581 2040.5988,-365.5154 2095.4012,-365.5154 2134.1523,-379.8581"/>
<polygon fill="none" stroke="#000000" points="2138.1421,-377.0721 2138.1421,-402.9279 2096.1143,-418.4835 2039.8857,-418.4835 1997.8579,-402.9279 1997.8579,-377.0721 2039.8857,-361.5165 2096.1143,-361.5165 2138.1421,-377.0721"/>
<text text-anchor="middle" x="2068" y="-382.8" font-family="Times,serif" font-size="24.00" fill="#000000">version</text>
</a>
</g>
</g>
<!-- variables&#45;&gt;version -->
<g id="edge38" class="edge">
<title>variables&#45;&gt;version</title>
<path fill="none" stroke="#000000" d="M1872.7922,-537.9377C1911.0426,-508.9498 1980.2657,-456.4892 2025.1644,-422.4629"/>
<polygon fill="#000000" stroke="#000000" points="2027.396,-425.1632 2033.2519,-416.3338 2023.168,-419.5843 2027.396,-425.1632"/>
</g>
<!-- vartypes&#45;&gt;warnings -->
<g id="edge33" class="edge">
<title>vartypes&#45;&gt;warnings</title>
<path fill="none" stroke="#000000" d="M1954.835,-198.9062C1935.724,-171.0634 1902.5941,-122.7966 1879.5465,-89.2186"/>
<polygon fill="#000000" stroke="#000000" points="1882.1713,-86.8579 1873.6265,-80.5938 1876.4,-90.8192 1882.1713,-86.8579"/>
</g>
<!-- tpub -->
<g id="node9" class="node">
<title>tpub</title>
<g id="a_node9"><a xlink:href="tpub.md" xlink:title="tpub.md">
<polygon fill="#98fb98" stroke="#000000" points="1717.8132,-379.8581 1717.8132,-400.1419 1691.5622,-414.4846 1654.4378,-414.4846 1628.1868,-400.1419 1628.1868,-379.8581 1654.4378,-365.5154 1691.5622,-365.5154 1717.8132,-379.8581"/>
<polygon fill="none" stroke="#000000" points="1721.8052,-377.4843 1721.8052,-402.5157 1692.5802,-418.4835 1653.4198,-418.4835 1624.1948,-402.5157 1624.1948,-377.4843 1653.4198,-361.5165 1692.5802,-361.5165 1721.8052,-377.4843"/>
<text text-anchor="middle" x="1673" y="-382.8" font-family="Times,serif" font-size="24.00" fill="#000000">tpub</text>
</a>
</g>
</g>
<!-- tostring&#45;&gt;vartypes -->
<g id="edge41" class="edge">
<title>tostring&#45;&gt;vartypes</title>
<path fill="none" stroke="#000000" d="M1824.1507,-368.596C1853.852,-338.539 1908.0061,-283.7363 1941.3137,-250.0298"/>
<polygon fill="#000000" stroke="#000000" points="1943.9543,-252.3372 1948.4936,-242.764 1938.9751,-247.4169 1943.9543,-252.3372"/>
</g>
<!-- tostring&#45;&gt;warnings -->
<g id="edge40" class="edge">
<title>tostring&#45;&gt;warnings</title>
<path fill="none" stroke="#000000" d="M1806.4254,-367.298C1814.9864,-310.5605 1837.3949,-162.0494 1848.1177,-90.9844"/>
<polygon fill="#000000" stroke="#000000" points="1851.642,-91.0856 1849.6733,-80.6753 1844.7204,-90.0411 1851.642,-91.0856"/>
</g>
<!-- replacement -->
<g id="node11" class="node">
<title>replacement</title>
<g id="a_node11"><a xlink:href="replacement.md" xlink:title="replacement.md">
<ellipse fill="#eee8aa" stroke="#000000" cx="1413" cy="-718" rx="94.4556" ry="22.7556"/>
<text text-anchor="middle" x="1413" y="-710.8" font-family="Times,serif" font-size="24.00" fill="#000000">replacement</text>
</a>
</g>
</g>
<!-- replacement&#45;&gt;parseNumber -->
<g id="edge63" class="edge">
<title>replacement&#45;&gt;parseNumber</title>
<path fill="none" stroke="#000000" d="M1453.4446,-697.4217C1491.0056,-675.7878 1544.5529,-637.8856 1568,-587.4917 1595.4735,-528.4441 1540.4363,-463.9243 1497.4034,-425.2257"/>
<polygon fill="#000000" stroke="#000000" points="1499.623,-422.5168 1489.8024,-418.5411 1495.0003,-427.7733 1499.623,-422.5168"/>
</g>
<!-- replacement&#45;&gt;regexes -->
<g id="edge54" class="edge">
<title>replacement&#45;&gt;regexes</title>
<path fill="none" stroke="#000000" d="M1398.166,-695.6254C1374.6852,-660.3171 1327.3711,-589.6107 1286,-530.5083 1250.7683,-480.1765 1236.6561,-471.1458 1205,-418.4917 1172.8388,-364.9977 1142.2152,-299.3332 1124.269,-258.8284"/>
<polygon fill="#000000" stroke="#000000" points="1127.4352,-257.3335 1120.203,-249.591 1121.0284,-260.1537 1127.4352,-257.3335"/>
</g>
<!-- replacement&#45;&gt;parseCmdLine -->
<g id="edge57" class="edge">
<title>replacement&#45;&gt;parseCmdLine</title>
<path fill="none" stroke="#000000" d="M1355.2205,-699.9155C1261.5989,-670.6127 1077.0403,-612.8473 975.7172,-581.1339"/>
<polygon fill="#000000" stroke="#000000" points="976.4673,-577.7013 965.8784,-578.0545 974.3764,-584.3818 976.4673,-577.7013"/>
</g>
<!-- replacement&#45;&gt;env -->
<g id="edge55" class="edge">
<title>replacement&#45;&gt;env</title>
<path fill="none" stroke="#000000" d="M1375.7524,-697.0998C1307.7854,-659.6269 1158.3454,-580.2839 1025,-530.5083 853.8468,-466.6196 641.0599,-418.2967 550.3234,-399.0788"/>
<polygon fill="#000000" stroke="#000000" points="550.8923,-395.6219 540.3858,-396.9873 549.4505,-402.4718 550.8923,-395.6219"/>
</g>
<!-- replacement&#45;&gt;variables -->
<g id="edge61" class="edge">
<title>replacement&#45;&gt;variables</title>
<path fill="none" stroke="#000000" d="M1464.6802,-698.9788C1546.1949,-668.9769 1704.0116,-610.8916 1788.4525,-579.8126"/>
<polygon fill="#000000" stroke="#000000" points="1789.7043,-583.0815 1797.88,-576.3428 1787.2865,-576.5123 1789.7043,-583.0815"/>
</g>
<!-- replacement&#45;&gt;tempFile -->
<g id="edge62" class="edge">
<title>replacement&#45;&gt;tempFile</title>
<path fill="none" stroke="#000000" d="M1391.3642,-695.8933C1366.0373,-669.9859 1322.8625,-625.7301 1286,-587.4917 1169.8201,-466.9755 1033.0016,-323.1566 970.3986,-257.2445"/>
<polygon fill="#000000" stroke="#000000" points="972.5626,-254.4405 963.1384,-249.5995 967.4867,-259.2609 972.5626,-254.4405"/>
</g>
<!-- replacement&#45;&gt;vartypes -->
<g id="edge56" class="edge">
<title>replacement&#45;&gt;vartypes</title>
<path fill="none" stroke="#000000" d="M1497.7914,-708.095C1628.7577,-690.9637 1871.0308,-651.3741 1927,-587.4917 1970.1301,-538.2637 1971.8045,-334.1477 1970.7232,-253.7514"/>
<polygon fill="#000000" stroke="#000000" points="1974.2219,-253.6394 1970.5644,-243.6959 1967.2228,-253.75 1974.2219,-253.6394"/>
</g>
<!-- replacement&#45;&gt;tpub -->
<g id="edge64" class="edge">
<title>replacement&#45;&gt;tpub</title>
<path fill="none" stroke="#000000" d="M1488.1243,-704.3072C1551.9932,-688.2694 1639.8446,-654.7987 1682,-587.4917 1712.1905,-539.2885 1699.5237,-470.7369 1686.834,-428.3794"/>
<polygon fill="#000000" stroke="#000000" points="1690.1369,-427.2148 1683.8037,-418.7212 1683.4579,-429.3104 1690.1369,-427.2148"/>
</g>
<!-- replacement&#45;&gt;tostring -->
<g id="edge65" class="edge">
<title>replacement&#45;&gt;tostring</title>
<path fill="none" stroke="#000000" d="M1480.4879,-702.0717C1545.0215,-683.8473 1641.6253,-648.3619 1705,-587.4917 1753.5571,-540.8535 1781.6536,-465.0679 1794.4822,-422.2078"/>
<polygon fill="#000000" stroke="#000000" points="1797.8544,-423.1455 1797.2759,-412.5665 1791.131,-421.1972 1797.8544,-423.1455"/>
</g>
<!-- readlines -->
<g id="node12" class="node">
<title>readlines</title>
<g id="a_node12"><a xlink:href="readlines.md" xlink:title="readlines.md">
<polygon fill="#98fb98" stroke="#000000" points="733.5894,-548.8581 733.5894,-569.1419 687.5528,-583.4846 622.4472,-583.4846 576.4106,-569.1419 576.4106,-548.8581 622.4472,-534.5154 687.5528,-534.5154 733.5894,-548.8581"/>
<polygon fill="none" stroke="#000000" points="737.5916,-545.9163 737.5916,-572.0837 688.1623,-587.4835 621.8377,-587.4835 572.4084,-572.0837 572.4084,-545.9163 621.8377,-530.5165 688.1623,-530.5165 737.5916,-545.9163"/>
<text text-anchor="middle" x="655" y="-551.8" font-family="Times,serif" font-size="24.00" fill="#000000">readlines</text>
</a>
</g>
</g>
<!-- replacement&#45;&gt;readlines -->
<g id="edge58" class="edge">
<title>replacement&#45;&gt;readlines</title>
<path fill="none" stroke="#000000" d="M1343.4947,-702.5961C1332.3006,-700.154 1320.8345,-697.6757 1310,-695.3726 1076.9977,-645.8421 1018.0145,-636.9649 785,-587.4917 769.7971,-584.2639 753.6082,-580.7652 738.001,-577.3609"/>
<polygon fill="#000000" stroke="#000000" points="738.3619,-573.8572 727.8451,-575.1412 736.8672,-580.6958 738.3619,-573.8572"/>
</g>
<!-- replacement&#45;&gt;warnings -->
<g id="edge60" class="edge">
<title>replacement&#45;&gt;warnings</title>
<path fill="none" stroke="#000000" d="M1501.5492,-710.166C1701.9505,-691.5434 2176.5016,-642.0817 2223,-587.4917 2340.7847,-449.2104 2249.0368,-318.303 2118,-192.5083 2061.5871,-138.3521 1980.172,-99.2843 1922.7013,-76.2965"/>
<polygon fill="#000000" stroke="#000000" points="1923.9212,-73.0153 1913.3342,-72.607 1921.3558,-79.5283 1923.9212,-73.0153"/>
</g>
<!-- replacement&#45;&gt;matches -->
<g id="edge59" class="edge">
<title>replacement&#45;&gt;matches</title>
<path fill="none" stroke="#000000" d="M1384.719,-696.225C1309.5311,-638.3338 1104.8074,-480.7062 1022.2311,-417.1263"/>
<polygon fill="#000000" stroke="#000000" points="1024.2244,-414.2438 1014.1657,-410.9163 1019.9539,-419.7902 1024.2244,-414.2438"/>
</g>
<!-- collectCommand -->
<g id="node14" class="node">
<title>collectCommand</title>
<g id="a_node14"><a xlink:href="collectCommand.md" xlink:title="collectCommand.md">
<ellipse fill="#eee8aa" stroke="#000000" cx="655" cy="-718" rx="127.4982" ry="22.7556"/>
<text text-anchor="middle" x="655" y="-710.8" font-family="Times,serif" font-size="24.00" fill="#000000">collectCommand</text>
</a>
</g>
</g>
<!-- collectCommand&#45;&gt;parseCmdLine -->
<g id="edge25" class="edge">
<title>collectCommand&#45;&gt;parseCmdLine</title>
<path fill="none" stroke="#000000" d="M689.499,-696.0587C734.61,-667.368 813.615,-617.1208 862.4071,-586.0891"/>
<polygon fill="#000000" stroke="#000000" points="864.2954,-589.0361 870.8551,-580.7162 860.5388,-583.1295 864.2954,-589.0361"/>
</g>
<!-- collectCommand&#45;&gt;env -->
<g id="edge22" class="edge">
<title>collectCommand&#45;&gt;env</title>
<path fill="none" stroke="#000000" d="M624.5152,-695.845C594.9454,-672.4958 551.4898,-632.8575 530,-587.4917 504.686,-534.053 502.4962,-463.7643 503.8229,-423.0622"/>
<polygon fill="#000000" stroke="#000000" points="507.3272,-423.0302 504.2488,-412.8925 500.3334,-422.7372 507.3272,-423.0302"/>
</g>
<!-- collectCommand&#45;&gt;readlines -->
<g id="edge24" class="edge">
<title>collectCommand&#45;&gt;readlines</title>
<path fill="none" stroke="#000000" d="M655,-695.2192C655,-669.8711 655,-628.4709 655,-597.9545"/>
<polygon fill="#000000" stroke="#000000" points="658.5001,-597.6585 655,-587.6585 651.5001,-597.6585 658.5001,-597.6585"/>
</g>
<!-- collectCommand&#45;&gt;matches -->
<g id="edge23" class="edge">
<title>collectCommand&#45;&gt;matches</title>
<path fill="none" stroke="#000000" d="M628.9526,-695.58C589.6185,-658.9859 523.6252,-585.0371 563,-530.5083 605.1527,-472.1324 809.2617,-424.512 918.1795,-402.7608"/>
<polygon fill="#000000" stroke="#000000" points="918.9633,-406.1736 928.0942,-400.7997 917.6051,-399.3066 918.9633,-406.1736"/>
</g>
<!-- statictea -->
<g id="node15" class="node">
<title>statictea</title>
<g id="a_node15"><a xlink:href="statictea.md" xlink:title="statictea.md">
<polygon fill="#eee8aa" stroke="#000000" points="347.0958,-1014.3667 430,-995.0619 512.9042,-1014.3667 512.8268,-1045.6024 347.1732,-1045.6024 347.0958,-1014.3667"/>
<text text-anchor="middle" x="430" y="-1015.8" font-family="Times,serif" font-size="24.00" fill="#000000">statictea</text>
</a>
</g>
</g>
<!-- statictea&#45;&gt;env -->
<g id="edge77" class="edge">
<title>statictea&#45;&gt;env</title>
<path fill="none" stroke="#000000" d="M430.1923,-994.9946C431.1215,-919.4431 436.4706,-705.3509 467,-530.5083 473.5931,-492.7495 486.0293,-450.5057 495.0908,-422.2897"/>
<polygon fill="#000000" stroke="#000000" points="498.4897,-423.1556 498.2595,-412.5633 491.834,-420.9873 498.4897,-423.1556"/>
</g>
<!-- statictea&#45;&gt;warnings -->
<g id="edge73" class="edge">
<title>statictea&#45;&gt;warnings</title>
<path fill="none" stroke="#000000" d="M512.7578,-1018.7813C881.4063,-998.9115 2356,-907.5834 2356,-718 2356,-718 2356,-718 2356,-390 2356,-192.8717 2086.3555,-103.14 1942.3106,-69.2689"/>
<polygon fill="#000000" stroke="#000000" points="1942.693,-65.7652 1932.1619,-66.926 1941.1183,-72.5858 1942.693,-65.7652"/>
</g>
<!-- showhelp -->
<g id="node16" class="node">
<title>showhelp</title>
<g id="a_node16"><a xlink:href="showhelp.md" xlink:title="showhelp.md">
<ellipse fill="#eee8aa" stroke="#000000" cx="326" cy="-866" rx="76.2243" ry="22.7556"/>
<text text-anchor="middle" x="326" y="-858.8" font-family="Times,serif" font-size="24.00" fill="#000000">showhelp</text>
</a>
</g>
</g>
<!-- statictea&#45;&gt;showhelp -->
<g id="edge75" class="edge">
<title>statictea&#45;&gt;showhelp</title>
<path fill="none" stroke="#000000" d="M413.75,-998.4688C395.5513,-970.9957 366.0298,-926.4297 346.3199,-896.6753"/>
<polygon fill="#000000" stroke="#000000" points="349.2306,-894.7315 340.7902,-888.3275 343.3948,-898.5972 349.2306,-894.7315"/>
</g>
<!-- statictea&#45;&gt;args -->
<g id="edge72" class="edge">
<title>statictea&#45;&gt;args</title>
<path fill="none" stroke="#000000" d="M367.4743,-1009.4718C248.2148,-979.5909 0,-896.0168 0,-718 0,-718 0,-718 0,-559 0,-468.0039 5.6578,-438.6012 54,-361.5083 84.38,-313.0601 136.5455,-272.0142 173.2472,-247.0211"/>
<polygon fill="#000000" stroke="#000000" points="175.3943,-249.7957 181.7569,-241.3241 171.5,-243.9789 175.3943,-249.7957"/>
</g>
<!-- statictea&#45;&gt;version -->
<g id="edge76" class="edge">
<title>statictea&#45;&gt;version</title>
<path fill="none" stroke="#000000" d="M512.886,-1016.5351C809.9782,-992.2127 1818.5042,-899.4093 2095,-740.6274 2189.826,-686.1722 2267.3087,-630.4787 2223,-530.5083 2201.677,-482.3988 2154.8423,-443.7393 2118.2028,-419.2431"/>
<polygon fill="#000000" stroke="#000000" points="2119.8919,-416.1659 2109.6057,-413.6271 2116.0636,-422.0263 2119.8919,-416.1659"/>
</g>
<!-- parseCommandLine -->
<g id="node21" class="node">
<title>parseCommandLine</title>
<g id="a_node21"><a xlink:href="parseCommandLine.md" xlink:title="parseCommandLine.md">
<ellipse fill="#eee8aa" stroke="#000000" cx="215" cy="-559" rx="148.8522" ry="22.7556"/>
<text text-anchor="middle" x="215" y="-551.8" font-family="Times,serif" font-size="24.00" fill="#000000">parseCommandLine</text>
</a>
</g>
</g>
<!-- statictea&#45;&gt;parseCommandLine -->
<g id="edge9" class="edge">
<title>statictea&#45;&gt;parseCommandLine</title>
<path fill="none" stroke="#000000" d="M395.0552,-1003.079C345.5281,-974.073 258.9193,-920.2362 241,-888.6274 186.4053,-792.3247 199.3087,-654.0622 208.9981,-591.7037"/>
<polygon fill="#000000" stroke="#000000" points="212.4798,-592.0988 210.6338,-581.666 205.571,-590.9729 212.4798,-592.0988"/>
</g>
<!-- processTemplate -->
<g id="node22" class="node">
<title>processTemplate</title>
<g id="a_node22"><a xlink:href="processTemplate.md" xlink:title="processTemplate.md">
<ellipse fill="#eee8aa" stroke="#000000" cx="1044" cy="-866" rx="125.2054" ry="22.7556"/>
<text text-anchor="middle" x="1044" y="-858.8" font-family="Times,serif" font-size="24.00" fill="#000000">processTemplate</text>
</a>
</g>
</g>
<!-- statictea&#45;&gt;processTemplate -->
<g id="edge71" class="edge">
<title>statictea&#45;&gt;processTemplate</title>
<path fill="none" stroke="#000000" d="M487.2123,-1008.3708C596.4882,-980.4289 835.2506,-919.3773 961.6743,-887.0507"/>
<polygon fill="#000000" stroke="#000000" points="962.8723,-890.3571 971.6935,-884.4888 961.1381,-883.5753 962.8723,-890.3571"/>
</g>
<!-- showhelp&#45;&gt;env -->
<g id="edge74" class="edge">
<title>showhelp&#45;&gt;env</title>
<path fill="none" stroke="#000000" d="M329.6159,-843.2141C338.9295,-787.8331 366.5424,-642.491 416,-530.5083 434.1643,-489.3802 463.3838,-446.4766 483.5774,-419.0671"/>
<polygon fill="#000000" stroke="#000000" points="486.6191,-420.843 489.7912,-410.7342 481.0075,-416.6585 486.6191,-420.843"/>
</g>
<!-- matches&#45;&gt;regexes -->
<g id="edge14" class="edge">
<title>matches&#45;&gt;regexes</title>
<path fill="none" stroke="#000000" d="M1002.8186,-367.9062C1022.8382,-339.9449 1057.6057,-291.3855 1081.6587,-257.7908"/>
<polygon fill="#000000" stroke="#000000" points="1084.5518,-259.7622 1087.5275,-249.5938 1078.8602,-255.6872 1084.5518,-259.7622"/>
</g>
<!-- matches&#45;&gt;args -->
<g id="edge13" class="edge">
<title>matches&#45;&gt;args</title>
<path fill="none" stroke="#000000" d="M930.5458,-377.6415C787.9782,-346.4318 414.6346,-264.7024 271.7492,-233.4231"/>
<polygon fill="#000000" stroke="#000000" points="272.3833,-229.9791 261.8661,-231.2596 270.8863,-236.8171 272.3833,-229.9791"/>
</g>
<!-- readjson -->
<g id="node20" class="node">
<title>readjson</title>
<g id="a_node20"><a xlink:href="readjson.md" xlink:title="readjson.md">
<ellipse fill="#eee8aa" stroke="#000000" cx="2145" cy="-559" rx="68.6102" ry="22.7556"/>
<text text-anchor="middle" x="2145" y="-551.8" font-family="Times,serif" font-size="24.00" fill="#000000">readjson</text>
</a>
</g>
</g>
<!-- readjson&#45;&gt;vartypes -->
<g id="edge69" class="edge">
<title>readjson&#45;&gt;vartypes</title>
<path fill="none" stroke="#000000" d="M2157.7836,-536.517C2177.6855,-498.2706 2210.7592,-419.0981 2180,-361.5083 2147.9651,-301.5299 2077.7308,-262.6704 2027.3023,-241.3449"/>
<polygon fill="#000000" stroke="#000000" points="2028.3939,-238.0094 2017.8145,-237.4392 2025.7293,-244.4824 2028.3939,-238.0094"/>
</g>
<!-- readjson&#45;&gt;tpub -->
<g id="edge68" class="edge">
<title>readjson&#45;&gt;tpub</title>
<path fill="none" stroke="#000000" d="M2093.5494,-543.89C2014.4838,-520.1465 1858.8432,-471.3269 1731,-418.4917 1727.1508,-416.9009 1723.1982,-415.1723 1719.2532,-413.3793"/>
<polygon fill="#000000" stroke="#000000" points="1720.656,-410.1717 1710.1142,-409.1134 1717.6952,-416.5147 1720.656,-410.1717"/>
</g>
<!-- readjson&#45;&gt;warnings -->
<g id="edge67" class="edge">
<title>readjson&#45;&gt;warnings</title>
<path fill="none" stroke="#000000" d="M2160.4054,-536.6412C2183.9307,-499.565 2223.7071,-423.3181 2200,-361.5083 2147.6466,-225.0107 1995.7735,-126.5561 1911.6957,-80.7624"/>
<polygon fill="#000000" stroke="#000000" points="1913.2478,-77.623 1902.7832,-75.967 1909.9311,-83.7874 1913.2478,-77.623"/>
</g>
<!-- parseCommandLine&#45;&gt;regexes -->
<g id="edge8" class="edge">
<title>parseCommandLine&#45;&gt;regexes</title>
<path fill="none" stroke="#000000" d="M235.5647,-536.4671C274.9642,-494.798 365.6784,-405.9094 461,-361.5083 693.4536,-253.2304 779.6387,-317.1018 1027,-249.4917 1032.9451,-247.8668 1039.0826,-246.0236 1045.1952,-244.075"/>
<polygon fill="#000000" stroke="#000000" points="1046.3374,-247.3839 1054.7492,-240.9424 1044.1564,-240.7323 1046.3374,-247.3839"/>
</g>
<!-- parseCommandLine&#45;&gt;env -->
<g id="edge7" class="edge">
<title>parseCommandLine&#45;&gt;env</title>
<path fill="none" stroke="#000000" d="M252.7448,-537.0795C309.4122,-504.1696 415.6906,-442.4477 470.8181,-410.4321"/>
<polygon fill="#000000" stroke="#000000" points="472.6422,-413.4202 479.532,-405.3715 469.1267,-407.367 472.6422,-413.4202"/>
</g>
<!-- parseCommandLine&#45;&gt;tpub -->
<g id="edge1" class="edge">
<title>parseCommandLine&#45;&gt;tpub</title>
<path fill="none" stroke="#000000" d="M347.1536,-548.517C641.4968,-524.6563 1343.4578,-464.7773 1577,-418.4917 1590.7227,-415.772 1605.3037,-411.947 1618.8475,-407.9803"/>
<polygon fill="#000000" stroke="#000000" points="1619.929,-411.3099 1628.4991,-405.0806 1617.9149,-404.606 1619.929,-411.3099"/>
</g>
<!-- parseCommandLine&#45;&gt;warnings -->
<g id="edge3" class="edge">
<title>parseCommandLine&#45;&gt;warnings</title>
<path fill="none" stroke="#000000" d="M200.5441,-536.0278C162.4176,-472.2554 68.109,-291.2455 159,-192.5083 267.9831,-74.1171 1420.3261,-55.4703 1760.1733,-52.5429"/>
<polygon fill="#000000" stroke="#000000" points="1760.2604,-56.0424 1770.2307,-52.4589 1760.2018,-49.0427 1760.2604,-56.0424"/>
</g>
<!-- parseCommandLine&#45;&gt;args -->
<g id="edge2" class="edge">
<title>parseCommandLine&#45;&gt;args</title>
<path fill="none" stroke="#000000" d="M215,-536.298C215,-479.5605 215,-331.0494 215,-259.9844"/>
<polygon fill="#000000" stroke="#000000" points="218.5001,-259.6753 215,-249.6753 211.5001,-259.6753 218.5001,-259.6753"/>
</g>
<!-- processTemplate&#45;&gt;parseCmdLine -->
<g id="edge21" class="edge">
<title>processTemplate&#45;&gt;parseCmdLine</title>
<path fill="none" stroke="#000000" d="M1033.779,-843.4256C1009.379,-789.5349 947.6671,-653.236 919.4639,-590.9454"/>
<polygon fill="#000000" stroke="#000000" points="922.5491,-589.2737 915.236,-581.6075 916.1722,-592.1609 922.5491,-589.2737"/>
</g>
<!-- processTemplate&#45;&gt;env -->
<g id="edge12" class="edge">
<title>processTemplate&#45;&gt;env</title>
<path fill="none" stroke="#000000" d="M934.6373,-854.9543C796.9527,-838.6115 571.9622,-802.9926 519,-740.6274 440.9894,-648.7667 475.7918,-489.4745 495.6301,-421.8415"/>
<polygon fill="#000000" stroke="#000000" points="499.0097,-422.7568 498.5497,-412.1719 492.3085,-420.7334 499.0097,-422.7568"/>
</g>
<!-- processTemplate&#45;&gt;variables -->
<g id="edge52" class="edge">
<title>processTemplate&#45;&gt;variables</title>
<path fill="none" stroke="#000000" d="M1130.8762,-849.5966C1227.1528,-829.8997 1385.9914,-792.8598 1516,-740.6274 1625.9238,-696.4643 1745.4216,-623.58 1805.6156,-584.9322"/>
<polygon fill="#000000" stroke="#000000" points="1807.5522,-587.848 1814.0581,-579.486 1803.7576,-581.9657 1807.5522,-587.848"/>
</g>
<!-- processTemplate&#45;&gt;vartypes -->
<g id="edge53" class="edge">
<title>processTemplate&#45;&gt;vartypes</title>
<path fill="none" stroke="#000000" d="M1143.9544,-852.2989C1318.968,-824.782 1687.507,-750.8884 1953,-587.4917 2065.7311,-518.1118 2204.5662,-480.7056 2147,-361.5083 2120.7713,-307.1988 2062.2216,-267.4494 2019.6237,-244.3564"/>
<polygon fill="#000000" stroke="#000000" points="2020.9997,-241.1247 2010.5236,-239.5429 2017.7267,-247.3125 2020.9997,-241.1247"/>
</g>
<!-- processTemplate&#45;&gt;replacement -->
<g id="edge66" class="edge">
<title>processTemplate&#45;&gt;replacement</title>
<path fill="none" stroke="#000000" d="M1095.6964,-845.2654C1164.0334,-817.8565 1284.0794,-769.708 1355.2994,-741.1428"/>
<polygon fill="#000000" stroke="#000000" points="1356.6095,-744.3884 1364.5879,-737.4173 1354.0037,-737.8915 1356.6095,-744.3884"/>
</g>
<!-- processTemplate&#45;&gt;readlines -->
<g id="edge16" class="edge">
<title>processTemplate&#45;&gt;readlines</title>
<path fill="none" stroke="#000000" d="M1016.0241,-843.9213C948.9917,-791.0191 778.8061,-656.7082 698.3736,-593.2306"/>
<polygon fill="#000000" stroke="#000000" points="700.4302,-590.395 690.412,-586.9473 696.0936,-595.8899 700.4302,-590.395"/>
</g>
<!-- processTemplate&#45;&gt;warnings -->
<g id="edge11" class="edge">
<title>processTemplate&#45;&gt;warnings</title>
<path fill="none" stroke="#000000" d="M1166.5229,-861.088C1407.3099,-849.8658 1932.8807,-817.1688 2095,-740.6274 2184.0108,-698.6027 2210.5632,-675.3232 2255,-587.4917 2336.6049,-426.1958 2296.8224,-308.2843 2158,-192.5083 2089.6206,-135.4807 1994.2664,-96.4011 1928.6789,-74.2034"/>
<polygon fill="#000000" stroke="#000000" points="1929.4148,-70.7594 1918.8212,-70.9182 1927.2016,-77.4004 1929.4148,-70.7594"/>
</g>
<!-- processTemplate&#45;&gt;collectCommand -->
<g id="edge26" class="edge">
<title>processTemplate&#45;&gt;collectCommand</title>
<path fill="none" stroke="#000000" d="M989.9112,-845.4212C918.74,-818.3432 793.8603,-770.8312 718.3514,-742.1028"/>
<polygon fill="#000000" stroke="#000000" points="719.5329,-738.8077 708.9419,-738.5229 717.0437,-745.3501 719.5329,-738.8077"/>
</g>
<!-- processTemplate&#45;&gt;args -->
<g id="edge10" class="edge">
<title>processTemplate&#45;&gt;args</title>
<path fill="none" stroke="#000000" d="M940.76,-853.1416C709.1144,-821.8859 160.1308,-733.5814 57,-587.4917 -21.6847,-476.0311 114.1564,-319.2053 181.057,-252.7476"/>
<polygon fill="#000000" stroke="#000000" points="183.7827,-254.9766 188.4685,-245.4743 178.8797,-249.9805 183.7827,-254.9766"/>
</g>
<!-- processTemplate&#45;&gt;matches -->
<g id="edge15" class="edge">
<title>processTemplate&#45;&gt;matches</title>
<path fill="none" stroke="#000000" d="M1044.332,-843.0433C1044.7675,-788.4695 1043.8154,-646.8401 1025,-530.5083 1018.8912,-492.7385 1006.7162,-450.4967 997.7873,-422.2842"/>
<polygon fill="#000000" stroke="#000000" points="1001.0537,-421.0086 994.6618,-412.5591 994.3895,-423.1504 1001.0537,-421.0086"/>
</g>
<!-- processTemplate&#45;&gt;readjson -->
<g id="edge70" class="edge">
<title>processTemplate&#45;&gt;readjson</title>
<path fill="none" stroke="#000000" d="M1161.3512,-857.9774C1413.5907,-839.8196 1990.4493,-793.0536 2062,-740.6274 2110.7256,-704.9255 2131.5729,-633.6877 2139.9193,-591.8236"/>
<polygon fill="#000000" stroke="#000000" points="2143.3861,-592.3251 2141.7813,-581.8525 2136.5051,-591.0401 2143.3861,-592.3251"/>
</g>
<!-- runCommand -->
<g id="node23" class="node">
<title>runCommand</title>
<g id="a_node23"><a xlink:href="runCommand.md" xlink:title="runCommand.md">
<ellipse fill="#eee8aa" stroke="#000000" cx="1196" cy="-718" rx="104.7872" ry="22.7556"/>
<text text-anchor="middle" x="1196" y="-710.8" font-family="Times,serif" font-size="24.00" fill="#000000">runCommand</text>
</a>
</g>
</g>
<!-- processTemplate&#45;&gt;runCommand -->
<g id="edge51" class="edge">
<title>processTemplate&#45;&gt;runCommand</title>
<path fill="none" stroke="#000000" d="M1067.0855,-843.522C1093.4636,-817.8381 1136.7247,-775.7155 1165.7711,-747.4334"/>
<polygon fill="#000000" stroke="#000000" points="1168.4722,-749.6885 1173.1953,-740.2046 1163.5888,-744.6732 1168.4722,-749.6885"/>
</g>
<!-- runCommand&#45;&gt;runFunction -->
<g id="edge50" class="edge">
<title>runCommand&#45;&gt;runFunction</title>
<path fill="none" stroke="#000000" d="M1228.32,-696.2251C1270.7773,-667.6204 1345.3426,-617.3836 1391.5134,-586.277"/>
<polygon fill="#000000" stroke="#000000" points="1393.7326,-589.0021 1400.0704,-580.5119 1389.8214,-583.1967 1393.7326,-589.0021"/>
</g>
<!-- runCommand&#45;&gt;parseNumber -->
<g id="edge36" class="edge">
<title>runCommand&#45;&gt;parseNumber</title>
<path fill="none" stroke="#000000" d="M1265.8055,-701.0349C1355.5587,-677.6457 1503.6329,-633.1787 1535,-587.4917 1570.1382,-536.312 1524.3825,-467.7276 1488.4218,-426.3141"/>
<polygon fill="#000000" stroke="#000000" points="1490.8751,-423.8059 1481.6153,-418.6575 1485.6435,-428.4567 1490.8751,-423.8059"/>
</g>
<!-- runCommand&#45;&gt;regexes -->
<g id="edge31" class="edge">
<title>runCommand&#45;&gt;regexes</title>
<path fill="none" stroke="#000000" d="M1191.9902,-695.3535C1178.1538,-617.2094 1132.3035,-358.2596 1114.8378,-259.6181"/>
<polygon fill="#000000" stroke="#000000" points="1118.2346,-258.727 1113.0446,-249.4904 1111.3418,-259.9475 1118.2346,-258.727"/>
</g>
<!-- runCommand&#45;&gt;parseCmdLine -->
<g id="edge27" class="edge">
<title>runCommand&#45;&gt;parseCmdLine</title>
<path fill="none" stroke="#000000" d="M1157.3574,-696.886C1104.6728,-668.0996 1010.3297,-616.5513 953.1191,-585.2919"/>
<polygon fill="#000000" stroke="#000000" points="954.7217,-582.1792 944.268,-580.4557 951.3653,-588.3221 954.7217,-582.1792"/>
</g>
<!-- runCommand&#45;&gt;env -->
<g id="edge32" class="edge">
<title>runCommand&#45;&gt;env</title>
<path fill="none" stroke="#000000" d="M1104.6624,-706.8139C1015.6269,-692.073 880.1167,-659.0618 785,-587.4917 760.676,-569.1892 769.1639,-551.3745 747,-530.5083 685.7127,-472.8091 596.5628,-428.6928 545.63,-406.3104"/>
<polygon fill="#000000" stroke="#000000" points="546.8433,-403.0217 536.2762,-402.2558 544.0593,-409.4443 546.8433,-403.0217"/>
</g>
<!-- runCommand&#45;&gt;variables -->
<g id="edge43" class="edge">
<title>runCommand&#45;&gt;variables</title>
<path fill="none" stroke="#000000" d="M1265.4544,-700.9842C1391.0547,-670.2131 1654.3675,-605.7035 1778.0849,-575.3937"/>
<polygon fill="#000000" stroke="#000000" points="1778.9436,-578.7869 1787.8235,-573.0078 1777.2779,-571.988 1778.9436,-578.7869"/>
</g>
<!-- runCommand&#45;&gt;vartypes -->
<g id="edge34" class="edge">
<title>runCommand&#45;&gt;vartypes</title>
<path fill="none" stroke="#000000" d="M1265.5785,-701.011C1358.5539,-676.9739 1516.2513,-631.0943 1556,-587.4917 1625.9319,-510.7796 1546.1913,-439.2295 1615,-361.5083 1687.5786,-279.5288 1814.2992,-244.8435 1895.0728,-230.5512"/>
<polygon fill="#000000" stroke="#000000" points="1895.908,-233.9594 1905.1768,-228.8272 1894.7306,-227.0591 1895.908,-233.9594"/>
</g>
<!-- runCommand&#45;&gt;tpub -->
<g id="edge30" class="edge">
<title>runCommand&#45;&gt;tpub</title>
<path fill="none" stroke="#000000" d="M1272.0126,-702.3905C1376.8422,-679.4667 1558.2809,-634.3174 1606,-587.4917 1649.4228,-544.882 1664.7078,-473.125 1670.0851,-428.8401"/>
<polygon fill="#000000" stroke="#000000" points="1673.5807,-429.0713 1671.1968,-418.7482 1666.6228,-428.3048 1673.5807,-429.0713"/>
</g>
<!-- runCommand&#45;&gt;readlines -->
<g id="edge28" class="edge">
<title>runCommand&#45;&gt;readlines</title>
<path fill="none" stroke="#000000" d="M1133.9404,-699.7607C1033.6846,-670.2955 836.5,-612.3429 729.0581,-580.7657"/>
<polygon fill="#000000" stroke="#000000" points="729.8448,-577.3489 719.2637,-577.8871 727.871,-584.0649 729.8448,-577.3489"/>
</g>
<!-- runCommand&#45;&gt;warnings -->
<g id="edge35" class="edge">
<title>runCommand&#45;&gt;warnings</title>
<path fill="none" stroke="#000000" d="M1197.392,-695.2846C1203.816,-612.1202 1238.1362,-322.351 1409,-192.5083 1513.5084,-113.0902 1663.972,-77.9177 1760.3638,-62.7962"/>
<polygon fill="#000000" stroke="#000000" points="1761.033,-66.2347 1770.39,-61.2651 1759.9762,-59.315 1761.033,-66.2347"/>
</g>
<!-- runCommand&#45;&gt;matches -->
<g id="edge29" class="edge">
<title>runCommand&#45;&gt;matches</title>
<path fill="none" stroke="#000000" d="M1181.6346,-695.4552C1145.0806,-638.0883 1048.4804,-486.4859 1006.708,-420.9293"/>
<polygon fill="#000000" stroke="#000000" points="1009.5151,-418.8214 1001.1896,-412.2688 1003.6117,-422.5831 1009.5151,-418.8214"/>
</g>
</g>
</svg>
