<?xml version="1.0" encoding="UTF-8" standalone="no"?>
<!DOCTYPE svg PUBLIC "-//W3C//DTD SVG 1.1//EN"
 "http://www.w3.org/Graphics/SVG/1.1/DTD/svg11.dtd">
<!-- Generated by graphviz version 2.40.1 (20161225.0304)
 -->
<!-- Title: statictea Pages: 1 -->
<svg width="635pt" height="1307pt"
 viewBox="0.00 0.00 634.97 1306.98" xmlns="http://www.w3.org/2000/svg" xmlns:xlink="http://www.w3.org/1999/xlink">
<g id="graph0" class="graph" transform="scale(1 1) rotate(0) translate(4 1302.9835)">
<title>statictea</title>
<polygon fill="#ffffff" stroke="transparent" points="-4,4 -4,-1302.9835 630.9693,-1302.9835 630.9693,4 -4,4"/>
<!-- strutils -->
<g id="node1" class="node">
<title>strutils</title>
<ellipse fill="none" stroke="#000000" cx="87.6672" cy="-884.4917" rx="57.5374" ry="22.7556"/>
<text text-anchor="middle" x="87.6672" y="-877.2917" font-family="Times,serif" font-size="24.00" fill="#000000">strutils</text>
</g>
<!-- statictea -->
<g id="node2" class="node">
<title>statictea</title>
<ellipse fill="none" stroke="#000000" cx="545.1518" cy="-1000.4917" rx="39.154" ry="18"/>
<text text-anchor="middle" x="545.1518" y="-996.2917" font-family="Times,serif" font-size="14.00" fill="#000000">statictea</text>
</g>
<!-- strutils&#45;&gt;statictea -->
<g id="edge1" class="edge">
<title>strutils&#45;&gt;statictea</title>
<path fill="none" stroke="#000000" d="M136.1929,-896.796C225.5582,-919.4554 414.865,-967.4562 500.917,-989.2755"/>
<polygon fill="#000000" stroke="#000000" points="500.0866,-992.6757 510.6401,-991.741 501.8072,-985.8904 500.0866,-992.6757"/>
</g>
<!-- args -->
<g id="node6" class="node">
<title>args</title>
<ellipse fill="none" stroke="#000000" cx="545.1518" cy="-1216.4917" rx="27" ry="18"/>
<text text-anchor="middle" x="545.1518" y="-1212.2917" font-family="Times,serif" font-size="14.00" fill="#000000">args</text>
</g>
<!-- strutils&#45;&gt;args -->
<g id="edge4" class="edge">
<title>strutils&#45;&gt;args</title>
<path fill="none" stroke="#000000" d="M134.8074,-897.7254C148.4198,-902.5824 162.9359,-908.8162 175.3343,-916.4917 325.2922,-1009.3271 311.9447,-1099.0099 463.3343,-1189.4917 477.4176,-1197.9089 494.4528,-1204.0699 509.3248,-1208.3629"/>
<polygon fill="#000000" stroke="#000000" points="508.6452,-1211.8048 519.2124,-1211.0412 510.4754,-1205.0483 508.6452,-1211.8048"/>
</g>
<!-- warnings -->
<g id="node7" class="node">
<title>warnings</title>
<ellipse fill="none" stroke="#000000" cx="545.1518" cy="-1162.4917" rx="42.5542" ry="18"/>
<text text-anchor="middle" x="545.1518" y="-1158.2917" font-family="Times,serif" font-size="14.00" fill="#000000">warnings</text>
</g>
<!-- strutils&#45;&gt;warnings -->
<g id="edge5" class="edge">
<title>strutils&#45;&gt;warnings</title>
<path fill="none" stroke="#000000" d="M133.4003,-898.2642C147.2522,-903.2016 162.2535,-909.3446 175.3343,-916.4917 316.4479,-993.5938 321.0337,-1060.6031 463.3343,-1135.4917 474.296,-1141.2605 486.7274,-1146.1225 498.5307,-1150.0606"/>
<polygon fill="#000000" stroke="#000000" points="497.6611,-1153.4567 508.2516,-1153.1509 499.7819,-1146.7857 497.6611,-1153.4567"/>
</g>
<!-- cmdline -->
<g id="node11" class="node">
<title>cmdline</title>
<ellipse fill="none" stroke="#000000" cx="545.1518" cy="-892.4917" rx="38.6869" ry="18"/>
<text text-anchor="middle" x="545.1518" y="-888.2917" font-family="Times,serif" font-size="14.00" fill="#000000">cmdline</text>
</g>
<!-- strutils&#45;&gt;cmdline -->
<g id="edge11" class="edge">
<title>strutils&#45;&gt;cmdline</title>
<path fill="none" stroke="#000000" d="M145.1447,-885.4968C236.0271,-887.0861 411.3069,-890.1512 496.4127,-891.6394"/>
<polygon fill="#000000" stroke="#000000" points="496.5188,-895.1417 506.5785,-891.8172 496.6412,-888.1428 496.5188,-895.1417"/>
</g>
<!-- env -->
<g id="node14" class="node">
<title>env</title>
<ellipse fill="none" stroke="#000000" cx="545.1518" cy="-622.4917" rx="27" ry="18"/>
<text text-anchor="middle" x="545.1518" y="-618.2917" font-family="Times,serif" font-size="14.00" fill="#000000">env</text>
</g>
<!-- strutils&#45;&gt;env -->
<g id="edge20" class="edge">
<title>strutils&#45;&gt;env</title>
<path fill="none" stroke="#000000" d="M133.7218,-870.8816C147.4431,-866.1215 162.2909,-860.2507 175.3343,-853.4917 314.6045,-781.3235 323.3092,-720.184 463.3343,-649.4917 477.9806,-642.0975 495.0963,-636.0829 509.8766,-631.6231"/>
<polygon fill="#000000" stroke="#000000" points="511.0445,-634.9288 519.6768,-628.7861 509.098,-628.2048 511.0445,-634.9288"/>
</g>
<!-- tempFile -->
<g id="node16" class="node">
<title>tempFile</title>
<ellipse fill="none" stroke="#000000" cx="545.1518" cy="-1054.4917" rx="41.5938" ry="18"/>
<text text-anchor="middle" x="545.1518" y="-1050.2917" font-family="Times,serif" font-size="14.00" fill="#000000">tempFile</text>
</g>
<!-- strutils&#45;&gt;tempFile -->
<g id="edge23" class="edge">
<title>strutils&#45;&gt;tempFile</title>
<path fill="none" stroke="#000000" d="M130.0845,-899.8017C144.4696,-905.0398 160.6197,-910.9711 175.3343,-916.4917 303.7703,-964.6787 334.1614,-981.3168 463.3343,-1027.4917 475.7819,-1031.9414 489.3858,-1036.5365 501.8642,-1040.6464"/>
<polygon fill="#000000" stroke="#000000" points="500.9942,-1044.0442 511.5868,-1043.8264 503.1703,-1037.3911 500.9942,-1044.0442"/>
</g>
<!-- matches -->
<g id="node18" class="node">
<title>matches</title>
<ellipse fill="none" stroke="#000000" cx="545.1518" cy="-730.4917" rx="39.1627" ry="18"/>
<text text-anchor="middle" x="545.1518" y="-726.2917" font-family="Times,serif" font-size="14.00" fill="#000000">matches</text>
</g>
<!-- strutils&#45;&gt;matches -->
<g id="edge25" class="edge">
<title>strutils&#45;&gt;matches</title>
<path fill="none" stroke="#000000" d="M131.3018,-869.6259C201.2945,-845.8061 343.0199,-797.6802 463.3343,-757.4917 476.4487,-753.1111 490.7598,-748.3738 503.6935,-744.1084"/>
<polygon fill="#000000" stroke="#000000" points="504.8703,-747.4059 513.2729,-740.9524 502.6798,-740.7574 504.8703,-747.4059"/>
</g>
<!-- runCommand -->
<g id="node22" class="node">
<title>runCommand</title>
<ellipse fill="none" stroke="#000000" cx="545.1518" cy="-784.4917" rx="58.9841" ry="18"/>
<text text-anchor="middle" x="545.1518" y="-780.2917" font-family="Times,serif" font-size="14.00" fill="#000000">runCommand</text>
</g>
<!-- strutils&#45;&gt;runCommand -->
<g id="edge35" class="edge">
<title>strutils&#45;&gt;runCommand</title>
<path fill="none" stroke="#000000" d="M138.374,-873.4079C224.1435,-854.6598 397.3103,-816.8079 487.5365,-797.0857"/>
<polygon fill="#000000" stroke="#000000" points="488.3029,-800.5009 497.3248,-794.9461 486.8081,-793.6623 488.3029,-800.5009"/>
</g>
<!-- variables -->
<g id="node26" class="node">
<title>variables</title>
<ellipse fill="none" stroke="#000000" cx="545.1518" cy="-838.4917" rx="42.0524" ry="18"/>
<text text-anchor="middle" x="545.1518" y="-834.2917" font-family="Times,serif" font-size="14.00" fill="#000000">variables</text>
</g>
<!-- strutils&#45;&gt;variables -->
<g id="edge39" class="edge">
<title>strutils&#45;&gt;variables</title>
<path fill="none" stroke="#000000" d="M143.7638,-878.8512C233.4109,-869.8372 407.6411,-852.3184 494.0363,-843.6314"/>
<polygon fill="#000000" stroke="#000000" points="494.5256,-847.0999 504.1253,-842.617 493.8252,-840.1351 494.5256,-847.0999"/>
</g>
<!-- funtypes -->
<g id="node29" class="node">
<title>funtypes</title>
<ellipse fill="none" stroke="#000000" cx="545.1518" cy="-1108.4917" rx="40.6248" ry="18"/>
<text text-anchor="middle" x="545.1518" y="-1104.2917" font-family="Times,serif" font-size="14.00" fill="#000000">funtypes</text>
</g>
<!-- strutils&#45;&gt;funtypes -->
<g id="edge44" class="edge">
<title>strutils&#45;&gt;funtypes</title>
<path fill="none" stroke="#000000" d="M131.9631,-899.0042C146.035,-904.0521 161.5234,-910.0718 175.3343,-916.4917 309.1066,-978.6749 328.607,-1021.4056 463.3343,-1081.4917 475.2993,-1086.8279 488.6542,-1091.6732 501.0474,-1095.7389"/>
<polygon fill="#000000" stroke="#000000" points="500.1447,-1099.1246 510.7353,-1098.8268 502.2705,-1092.4552 500.1447,-1099.1246"/>
</g>
<!-- runFunction -->
<g id="node30" class="node">
<title>runFunction</title>
<ellipse fill="none" stroke="#000000" cx="545.1518" cy="-946.4917" rx="53.1797" ry="18"/>
<text text-anchor="middle" x="545.1518" y="-942.2917" font-family="Times,serif" font-size="14.00" fill="#000000">runFunction</text>
</g>
<!-- strutils&#45;&gt;runFunction -->
<g id="edge47" class="edge">
<title>strutils&#45;&gt;runFunction</title>
<path fill="none" stroke="#000000" d="M142.3961,-891.9088C228.8337,-903.6232 396.2884,-926.3172 485.6229,-938.4242"/>
<polygon fill="#000000" stroke="#000000" points="485.215,-941.9008 495.5944,-939.7755 486.1551,-934.9642 485.215,-941.9008"/>
</g>
<!-- unicodes -->
<g id="node34" class="node">
<title>unicodes</title>
<ellipse fill="none" stroke="#000000" cx="545.1518" cy="-1270.4917" rx="41.5852" ry="18"/>
<text text-anchor="middle" x="545.1518" y="-1266.2917" font-family="Times,serif" font-size="14.00" fill="#000000">unicodes</text>
</g>
<!-- strutils&#45;&gt;unicodes -->
<g id="edge52" class="edge">
<title>strutils&#45;&gt;unicodes</title>
<path fill="none" stroke="#000000" d="M135.7135,-897.193C149.2041,-902.0111 163.4278,-908.3572 175.3343,-916.4917 335.2422,-1025.7402 301.7395,-1136.7542 463.3343,-1243.4917 473.6701,-1250.3188 485.8806,-1255.5543 497.6713,-1259.5136"/>
<polygon fill="#000000" stroke="#000000" points="496.8382,-1262.9197 507.4264,-1262.5461 498.9162,-1256.2353 496.8382,-1262.9197"/>
</g>
<!-- signatures -->
<g id="node35" class="node">
<title>signatures</title>
<ellipse fill="none" stroke="#000000" cx="545.1518" cy="-676.4917" rx="45.9286" ry="18"/>
<text text-anchor="middle" x="545.1518" y="-672.2917" font-family="Times,serif" font-size="14.00" fill="#000000">signatures</text>
</g>
<!-- strutils&#45;&gt;signatures -->
<g id="edge55" class="edge">
<title>strutils&#45;&gt;signatures</title>
<path fill="none" stroke="#000000" d="M132.285,-870.0718C146.2306,-865.2044 161.5653,-859.4767 175.3343,-853.4917 307.692,-795.9601 330.376,-759.6214 463.3343,-703.4917 474.5308,-698.765 486.8617,-694.3189 498.4792,-690.4514"/>
<polygon fill="#000000" stroke="#000000" points="499.6023,-693.7667 508.0295,-687.3454 497.4373,-687.1099 499.6023,-693.7667"/>
</g>
<!-- replacement -->
<g id="node37" class="node">
<title>replacement</title>
<ellipse fill="none" stroke="#000000" cx="545.1518" cy="-136.4917" rx="53.1281" ry="18"/>
<text text-anchor="middle" x="545.1518" y="-132.2917" font-family="Times,serif" font-size="14.00" fill="#000000">replacement</text>
</g>
<!-- strutils&#45;&gt;replacement -->
<g id="edge64" class="edge">
<title>strutils&#45;&gt;replacement</title>
<path fill="none" stroke="#000000" d="M139.4145,-874.0973C152.3522,-869.507 165.3658,-862.9216 175.3343,-853.4917 416.7431,-625.1275 219.5256,-389.292 463.3343,-163.4917 470.339,-157.0044 478.937,-152.0736 487.8982,-148.3264"/>
<polygon fill="#000000" stroke="#000000" points="489.1572,-151.5925 497.3167,-144.8342 486.7237,-145.0291 489.1572,-151.5925"/>
</g>
<!-- options -->
<g id="node3" class="node">
<title>options</title>
<ellipse fill="none" stroke="#000000" cx="87.6672" cy="-467.4917" rx="61.0788" ry="22.7556"/>
<text text-anchor="middle" x="87.6672" y="-460.2917" font-family="Times,serif" font-size="24.00" fill="#000000">options</text>
</g>
<!-- parseCommandLine -->
<g id="node4" class="node">
<title>parseCommandLine</title>
<ellipse fill="none" stroke="#000000" cx="545.1518" cy="-460.4917" rx="81.6354" ry="18"/>
<text text-anchor="middle" x="545.1518" y="-456.2917" font-family="Times,serif" font-size="14.00" fill="#000000">parseCommandLine</text>
</g>
<!-- options&#45;&gt;parseCommandLine -->
<g id="edge2" class="edge">
<title>options&#45;&gt;parseCommandLine</title>
<path fill="none" stroke="#000000" d="M149.3656,-466.5477C227.4509,-465.3529 362.6402,-463.2844 452.9847,-461.902"/>
<polygon fill="#000000" stroke="#000000" points="453.2793,-465.398 463.2245,-461.7453 453.1721,-458.3988 453.2793,-465.398"/>
</g>
<!-- regexes -->
<g id="node9" class="node">
<title>regexes</title>
<ellipse fill="none" stroke="#000000" cx="545.1518" cy="-352.4917" rx="37.2248" ry="18"/>
<text text-anchor="middle" x="545.1518" y="-348.2917" font-family="Times,serif" font-size="14.00" fill="#000000">regexes</text>
</g>
<!-- options&#45;&gt;regexes -->
<g id="edge7" class="edge">
<title>options&#45;&gt;regexes</title>
<path fill="none" stroke="#000000" d="M138.374,-454.7453C229.0246,-431.9581 417.3026,-384.6298 502.1031,-363.3131"/>
<polygon fill="#000000" stroke="#000000" points="503.0732,-366.6782 511.9182,-360.8458 501.3666,-359.8894 503.0732,-366.6782"/>
</g>
<!-- processTemplate -->
<g id="node13" class="node">
<title>processTemplate</title>
<ellipse fill="none" stroke="#000000" cx="545.1518" cy="-406.4917" rx="69.306" ry="18"/>
<text text-anchor="middle" x="545.1518" y="-402.2917" font-family="Times,serif" font-size="14.00" fill="#000000">processTemplate</text>
</g>
<!-- options&#45;&gt;processTemplate -->
<g id="edge14" class="edge">
<title>options&#45;&gt;processTemplate</title>
<path fill="none" stroke="#000000" d="M145.6079,-459.766C228.9524,-448.6531 382.5832,-428.1683 473.1252,-416.0956"/>
<polygon fill="#000000" stroke="#000000" points="473.8551,-419.5294 483.3047,-414.7383 472.9299,-412.5908 473.8551,-419.5294"/>
</g>
<!-- options&#45;&gt;env -->
<g id="edge19" class="edge">
<title>options&#45;&gt;env</title>
<path fill="none" stroke="#000000" d="M132.7243,-483.0006C203.1885,-507.2192 343.7871,-555.4008 463.3343,-595.4917 479.0051,-600.747 496.3912,-606.496 511.0923,-611.3333"/>
<polygon fill="#000000" stroke="#000000" points="510.194,-614.7222 520.7869,-614.5193 512.3795,-608.0721 510.194,-614.7222"/>
</g>
<!-- options&#45;&gt;tempFile -->
<g id="edge24" class="edge">
<title>options&#45;&gt;tempFile</title>
<path fill="none" stroke="#000000" d="M135.1451,-482.055C149.2252,-488.0104 163.9169,-496.0205 175.3343,-506.4917 370.3251,-685.3229 259.6642,-858.6117 463.3343,-1027.4917 472.8697,-1035.3983 484.7976,-1041.0149 496.5723,-1044.9958"/>
<polygon fill="#000000" stroke="#000000" points="495.7857,-1048.4146 506.3712,-1047.9693 497.8184,-1041.7162 495.7857,-1048.4146"/>
</g>
<!-- options&#45;&gt;matches -->
<g id="edge27" class="edge">
<title>options&#45;&gt;matches</title>
<path fill="none" stroke="#000000" d="M129.4516,-484.241C144.2314,-490.6431 160.79,-498.3705 175.3343,-506.4917 310.7367,-582.0971 324.3284,-634.736 463.3343,-703.4917 475.1831,-709.3525 488.6016,-714.3844 501.094,-718.4614"/>
<polygon fill="#000000" stroke="#000000" points="500.2773,-721.8733 510.8664,-721.5239 502.3707,-715.1936 500.2773,-721.8733"/>
</g>
<!-- readlines -->
<g id="node19" class="node">
<title>readlines</title>
<ellipse fill="none" stroke="#000000" cx="545.1518" cy="-190.4917" rx="42.0524" ry="18"/>
<text text-anchor="middle" x="545.1518" y="-186.2917" font-family="Times,serif" font-size="14.00" fill="#000000">readlines</text>
</g>
<!-- options&#45;&gt;readlines -->
<g id="edge29" class="edge">
<title>options&#45;&gt;readlines</title>
<path fill="none" stroke="#000000" d="M113.507,-446.6804C172.4091,-400.0791 322.4517,-286.062 463.3343,-217.4917 474.6823,-211.9685 487.4377,-207.153 499.44,-203.1788"/>
<polygon fill="#000000" stroke="#000000" points="500.8301,-206.4095 509.2975,-200.0413 498.707,-199.7392 500.8301,-206.4095"/>
</g>
<!-- parseCmdLine -->
<g id="node20" class="node">
<title>parseCmdLine</title>
<ellipse fill="none" stroke="#000000" cx="545.1518" cy="-514.4917" rx="62.3407" ry="18"/>
<text text-anchor="middle" x="545.1518" y="-510.2917" font-family="Times,serif" font-size="14.00" fill="#000000">parseCmdLine</text>
</g>
<!-- options&#45;&gt;parseCmdLine -->
<g id="edge30" class="edge">
<title>options&#45;&gt;parseCmdLine</title>
<path fill="none" stroke="#000000" d="M147.0063,-473.588C231.6269,-482.2815 386.6167,-498.2045 476.2192,-507.4099"/>
<polygon fill="#000000" stroke="#000000" points="475.9744,-510.9031 486.2798,-508.4435 476.6899,-503.9397 475.9744,-510.9031"/>
</g>
<!-- collectCommand -->
<g id="node21" class="node">
<title>collectCommand</title>
<ellipse fill="none" stroke="#000000" cx="545.1518" cy="-82.4917" rx="70.5427" ry="18"/>
<text text-anchor="middle" x="545.1518" y="-78.2917" font-family="Times,serif" font-size="14.00" fill="#000000">collectCommand</text>
</g>
<!-- options&#45;&gt;collectCommand -->
<g id="edge33" class="edge">
<title>options&#45;&gt;collectCommand</title>
<path fill="none" stroke="#000000" d="M111.7365,-446.5856C129.4957,-431.0378 154.1522,-409.1938 175.3343,-389.4917 306.0532,-267.9065 310.6775,-202.0462 463.3343,-109.4917 470.0794,-105.4023 477.5174,-101.8519 485.0766,-98.7921"/>
<polygon fill="#000000" stroke="#000000" points="486.5504,-101.977 494.6733,-95.175 484.0815,-95.4268 486.5504,-101.977"/>
</g>
<!-- options&#45;&gt;runCommand -->
<g id="edge34" class="edge">
<title>options&#45;&gt;runCommand</title>
<path fill="none" stroke="#000000" d="M130.8998,-483.6904C145.4971,-489.941 161.5703,-497.7137 175.3343,-506.4917 318.4894,-597.7894 315.8025,-673.4501 463.3343,-757.4917 471.6301,-762.2174 480.8752,-766.2651 490.0807,-769.679"/>
<polygon fill="#000000" stroke="#000000" points="489.0231,-773.0169 499.6179,-773.0091 491.3307,-766.4082 489.0231,-773.0169"/>
</g>
<!-- parseNumber -->
<g id="node24" class="node">
<title>parseNumber</title>
<ellipse fill="none" stroke="#000000" cx="545.1518" cy="-28.4917" rx="57.9892" ry="18"/>
<text text-anchor="middle" x="545.1518" y="-24.2917" font-family="Times,serif" font-size="14.00" fill="#000000">parseNumber</text>
</g>
<!-- options&#45;&gt;parseNumber -->
<g id="edge37" class="edge">
<title>options&#45;&gt;parseNumber</title>
<path fill="none" stroke="#000000" d="M112.6454,-446.8043C130.6333,-431.5436 155.1812,-409.9603 175.3343,-389.4917 312.8533,-249.8197 300.3513,-164.3784 463.3343,-55.4917 471.0067,-50.3659 479.7323,-46.1426 488.5579,-42.6846"/>
<polygon fill="#000000" stroke="#000000" points="489.9136,-45.9163 498.1289,-39.226 487.5346,-39.3329 489.9136,-45.9163"/>
</g>
<!-- options&#45;&gt;variables -->
<g id="edge40" class="edge">
<title>options&#45;&gt;variables</title>
<path fill="none" stroke="#000000" d="M132.3035,-483.3193C146.6942,-489.4526 162.2848,-497.248 175.3343,-506.4917 327.4706,-614.2594 306.0108,-711.4486 463.3343,-811.4917 473.7869,-818.1386 486.0386,-823.3105 497.8317,-827.2662"/>
<polygon fill="#000000" stroke="#000000" points="496.9917,-830.6705 507.5804,-830.3085 499.0771,-823.9883 496.9917,-830.6705"/>
</g>
<!-- options&#45;&gt;runFunction -->
<g id="edge45" class="edge">
<title>options&#45;&gt;runFunction</title>
<path fill="none" stroke="#000000" d="M134.0492,-482.6011C148.2327,-488.6153 163.2598,-496.5218 175.3343,-506.4917 347.8913,-648.9724 283.8836,-785.7977 463.3343,-919.4917 471.1685,-925.3284 480.3307,-929.9442 489.6335,-933.5824"/>
<polygon fill="#000000" stroke="#000000" points="488.7343,-936.9773 499.329,-937.0299 491.0795,-930.3818 488.7343,-936.9773"/>
</g>
<!-- options&#45;&gt;signatures -->
<g id="edge54" class="edge">
<title>options&#45;&gt;signatures</title>
<path fill="none" stroke="#000000" d="M127.5424,-484.8053C142.5847,-491.448 159.8087,-499.1879 175.3343,-506.4917 304.6495,-567.3267 331.145,-595.1843 463.3343,-649.4917 474.684,-654.1545 487.1609,-658.6014 498.8772,-662.4919"/>
<polygon fill="#000000" stroke="#000000" points="497.9064,-665.8566 508.4986,-665.6217 500.0718,-659.1999 497.9064,-665.8566"/>
</g>
<!-- readjson -->
<g id="node36" class="node">
<title>readjson</title>
<ellipse fill="none" stroke="#000000" cx="545.1518" cy="-244.4917" rx="40.1317" ry="18"/>
<text text-anchor="middle" x="545.1518" y="-240.2917" font-family="Times,serif" font-size="14.00" fill="#000000">readjson</text>
</g>
<!-- options&#45;&gt;readjson -->
<g id="edge58" class="edge">
<title>options&#45;&gt;readjson</title>
<path fill="none" stroke="#000000" d="M120.4626,-448.0563C184.6843,-410.5257 332.2161,-326.8996 463.3343,-271.4917 475.5108,-266.3462 489.0307,-261.5356 501.5154,-257.442"/>
<polygon fill="#000000" stroke="#000000" points="502.8052,-260.7041 511.2605,-254.3199 500.6695,-254.0378 502.8052,-260.7041"/>
</g>
<!-- options&#45;&gt;replacement -->
<g id="edge61" class="edge">
<title>options&#45;&gt;replacement</title>
<path fill="none" stroke="#000000" d="M111.2072,-446.5446C180.8143,-384.9165 385.6366,-205.8924 463.3343,-163.4917 472.4884,-158.4962 482.7247,-154.2191 492.7749,-150.6396"/>
<polygon fill="#000000" stroke="#000000" points="493.9565,-153.9349 502.3122,-147.4208 491.718,-147.3024 493.9565,-153.9349"/>
</g>
<!-- tables -->
<g id="node5" class="node">
<title>tables</title>
<ellipse fill="none" stroke="#000000" cx="87.6672" cy="-538.4917" rx="50.796" ry="22.7556"/>
<text text-anchor="middle" x="87.6672" y="-531.2917" font-family="Times,serif" font-size="24.00" fill="#000000">tables</text>
</g>
<!-- tables&#45;&gt;parseCommandLine -->
<g id="edge3" class="edge">
<title>tables&#45;&gt;parseCommandLine</title>
<path fill="none" stroke="#000000" d="M135.3314,-530.3651C214.9327,-516.7933 375.5178,-489.4139 470.3172,-473.2509"/>
<polygon fill="#000000" stroke="#000000" points="471.1413,-476.6609 480.4108,-471.5299 469.9647,-469.7605 471.1413,-476.6609"/>
</g>
<!-- tables&#45;&gt;regexes -->
<g id="edge8" class="edge">
<title>tables&#45;&gt;regexes</title>
<path fill="none" stroke="#000000" d="M124.2148,-522.5726C205.0425,-487.4401 397.0422,-404.4115 463.3343,-379.4917 476.3883,-374.5846 490.7861,-369.6705 503.8174,-365.4055"/>
<polygon fill="#000000" stroke="#000000" points="505.0347,-368.6903 513.4712,-362.2813 502.8793,-362.0304 505.0347,-368.6903"/>
</g>
<!-- tables&#45;&gt;cmdline -->
<g id="edge10" class="edge">
<title>tables&#45;&gt;cmdline</title>
<path fill="none" stroke="#000000" d="M123.5696,-554.8863C139.9885,-563.0883 159.3073,-573.7639 175.3343,-585.4917 319.4047,-690.9154 310.6775,-772.9373 463.3343,-865.4917 474.638,-872.3451 487.8878,-877.6844 500.3929,-881.7382"/>
<polygon fill="#000000" stroke="#000000" points="499.6252,-885.1628 510.2107,-884.7181 501.6583,-878.4645 499.6252,-885.1628"/>
</g>
<!-- tables&#45;&gt;processTemplate -->
<g id="edge15" class="edge">
<title>tables&#45;&gt;processTemplate</title>
<path fill="none" stroke="#000000" d="M130.7062,-526.0735C213.7606,-502.1095 396.1005,-449.4982 488.7376,-422.7692"/>
<polygon fill="#000000" stroke="#000000" points="489.8598,-426.0882 498.4975,-419.9531 487.9192,-419.3626 489.8598,-426.0882"/>
</g>
<!-- tables&#45;&gt;matches -->
<g id="edge26" class="edge">
<title>tables&#45;&gt;matches</title>
<path fill="none" stroke="#000000" d="M122.4223,-555.0882C188.174,-586.1864 335.6392,-654.5061 463.3343,-703.4917 475.8968,-708.3109 489.7326,-713.0769 502.396,-717.2322"/>
<polygon fill="#000000" stroke="#000000" points="501.6617,-720.6733 512.2536,-720.4231 503.8175,-714.0135 501.6617,-720.6733"/>
</g>
<!-- tables&#45;&gt;parseCmdLine -->
<g id="edge31" class="edge">
<title>tables&#45;&gt;parseCmdLine</title>
<path fill="none" stroke="#000000" d="M138.374,-535.8316C219.8831,-531.5556 380.3224,-523.1388 473.4979,-518.2508"/>
<polygon fill="#000000" stroke="#000000" points="473.8825,-521.7355 483.6853,-517.7163 473.5157,-514.7451 473.8825,-521.7355"/>
</g>
<!-- vartypes -->
<g id="node23" class="node">
<title>vartypes</title>
<ellipse fill="none" stroke="#000000" cx="545.1518" cy="-568.4917" rx="40.1317" ry="18"/>
<text text-anchor="middle" x="545.1518" y="-564.2917" font-family="Times,serif" font-size="14.00" fill="#000000">vartypes</text>
</g>
<!-- tables&#45;&gt;vartypes -->
<g id="edge36" class="edge">
<title>tables&#45;&gt;vartypes</title>
<path fill="none" stroke="#000000" d="M138.374,-541.8169C226.5655,-547.6001 407.1596,-559.4428 494.9776,-565.2015"/>
<polygon fill="#000000" stroke="#000000" points="495.0071,-568.7109 505.2147,-565.8728 495.4652,-561.7259 495.0071,-568.7109"/>
</g>
<!-- tables&#45;&gt;variables -->
<g id="edge41" class="edge">
<title>tables&#45;&gt;variables</title>
<path fill="none" stroke="#000000" d="M122.1771,-555.2391C138.6542,-563.6732 158.4196,-574.4402 175.3343,-585.4917 311.5437,-674.4866 319.9314,-734.6238 463.3343,-811.4917 474.3548,-817.399 486.902,-822.3273 498.8038,-826.2861"/>
<polygon fill="#000000" stroke="#000000" points="498.0119,-829.7065 508.6018,-829.3837 500.122,-823.0321 498.0119,-829.7065"/>
</g>
<!-- tostring -->
<g id="node27" class="node">
<title>tostring</title>
<ellipse fill="none" stroke="#000000" cx="545.1518" cy="-298.4917" rx="37.2594" ry="18"/>
<text text-anchor="middle" x="545.1518" y="-294.2917" font-family="Times,serif" font-size="14.00" fill="#000000">tostring</text>
</g>
<!-- tables&#45;&gt;tostring -->
<g id="edge42" class="edge">
<title>tables&#45;&gt;tostring</title>
<path fill="none" stroke="#000000" d="M125.2662,-522.9921C140.9549,-516.2103 159.2375,-507.8929 175.3343,-499.4917 307.9112,-430.2977 327.4703,-387.9851 463.3343,-325.4917 475.8959,-319.7138 490.0534,-314.5882 503.0165,-310.3972"/>
<polygon fill="#000000" stroke="#000000" points="504.1541,-313.7086 512.6504,-307.3791 502.0614,-307.0287 504.1541,-313.7086"/>
</g>
<!-- tables&#45;&gt;runFunction -->
<g id="edge46" class="edge">
<title>tables&#45;&gt;runFunction</title>
<path fill="none" stroke="#000000" d="M124.4843,-554.4668C140.9079,-562.5121 159.9728,-573.1791 175.3343,-585.4917 328.2781,-708.0803 300.3513,-810.6051 463.3343,-919.4917 471.6364,-925.0382 481.1715,-929.528 490.7323,-933.1349"/>
<polygon fill="#000000" stroke="#000000" points="489.6621,-936.4683 500.2569,-936.454 491.9656,-929.8582 489.6621,-936.4683"/>
</g>
<!-- tables&#45;&gt;signatures -->
<g id="edge53" class="edge">
<title>tables&#45;&gt;signatures</title>
<path fill="none" stroke="#000000" d="M129.8862,-551.2271C215.6151,-577.0872 409.4997,-635.5723 498.6792,-662.4733"/>
<polygon fill="#000000" stroke="#000000" points="497.9266,-665.902 508.5113,-665.4392 499.9482,-659.2003 497.9266,-665.902"/>
</g>
<!-- tables&#45;&gt;readjson -->
<g id="edge60" class="edge">
<title>tables&#45;&gt;readjson</title>
<path fill="none" stroke="#000000" d="M126.6926,-523.6129C142.2669,-517.0455 160.0841,-508.7185 175.3343,-499.4917 315.0143,-414.9817 319.6119,-348.9277 463.3343,-271.4917 474.7639,-265.3336 487.8484,-260.2475 500.1517,-256.2144"/>
<polygon fill="#000000" stroke="#000000" points="501.2995,-259.5229 509.8048,-253.2054 499.2162,-252.84 501.2995,-259.5229"/>
</g>
<!-- re -->
<g id="node8" class="node">
<title>re</title>
<polygon fill="#98fb98" stroke="#000000" points="114.6672,-342.3499 114.6672,-362.6336 98.8509,-376.9764 76.4834,-376.9764 60.6672,-362.6336 60.6672,-342.3499 76.4834,-328.0071 98.8509,-328.0071 114.6672,-342.3499"/>
<polygon fill="none" stroke="#000000" points="118.6672,-340.5783 118.6672,-364.4052 100.3948,-380.9752 74.9395,-380.9752 56.6672,-364.4052 56.6672,-340.5783 74.9395,-324.0083 100.3948,-324.0083 118.6672,-340.5783"/>
<text text-anchor="middle" x="87.6672" y="-345.2917" font-family="Times,serif" font-size="24.00" fill="#000000">re</text>
</g>
<!-- re&#45;&gt;regexes -->
<g id="edge6" class="edge">
<title>re&#45;&gt;regexes</title>
<path fill="none" stroke="#000000" d="M118.7523,-352.4917C197.2583,-352.4917 403.9214,-352.4917 497.683,-352.4917"/>
<polygon fill="#000000" stroke="#000000" points="497.739,-355.9918 507.7389,-352.4917 497.7389,-348.9918 497.739,-355.9918"/>
</g>
<!-- os -->
<g id="node10" class="node">
<title>os</title>
<ellipse fill="none" stroke="#000000" cx="87.6672" cy="-821.4917" rx="27" ry="22.7556"/>
<text text-anchor="middle" x="87.6672" y="-814.2917" font-family="Times,serif" font-size="24.00" fill="#000000">os</text>
</g>
<!-- os&#45;&gt;statictea -->
<g id="edge65" class="edge">
<title>os&#45;&gt;statictea</title>
<path fill="none" stroke="#000000" d="M112.7485,-829.9293C130.3569,-835.958 154.4038,-844.402 175.3343,-852.4917 304.8363,-902.5446 333.3106,-924.8103 463.3343,-973.4917 476.1716,-978.2981 490.3024,-983.1232 503.1558,-987.3378"/>
<polygon fill="#000000" stroke="#000000" points="502.1012,-990.6752 512.6932,-990.4313 504.2609,-984.0167 502.1012,-990.6752"/>
</g>
<!-- os&#45;&gt;cmdline -->
<g id="edge9" class="edge">
<title>os&#45;&gt;cmdline</title>
<path fill="none" stroke="#000000" d="M114.2409,-825.6159C189.2191,-837.2522 403.1502,-870.4536 498.411,-885.2377"/>
<polygon fill="#000000" stroke="#000000" points="497.9205,-888.7034 508.339,-886.7785 498.9941,-881.7862 497.9205,-888.7034"/>
</g>
<!-- os&#45;&gt;processTemplate -->
<g id="edge13" class="edge">
<title>os&#45;&gt;processTemplate</title>
<path fill="none" stroke="#000000" d="M101.2687,-801.7552C145.7381,-738.6716 293.7464,-539.8498 463.3343,-433.4917 470.0168,-429.3008 477.418,-425.6907 484.9582,-422.6001"/>
<polygon fill="#000000" stroke="#000000" points="486.4357,-425.7829 494.5399,-418.9585 483.9488,-419.2396 486.4357,-425.7829"/>
</g>
<!-- os&#45;&gt;env -->
<g id="edge17" class="edge">
<title>os&#45;&gt;env</title>
<path fill="none" stroke="#000000" d="M111.0098,-809.703C169.4456,-780.4351 327.1216,-702.9605 463.3343,-649.4917 478.6067,-643.4967 495.8121,-637.6823 510.4902,-632.9943"/>
<polygon fill="#000000" stroke="#000000" points="511.7055,-636.2811 520.1934,-629.9403 509.6039,-629.604 511.7055,-636.2811"/>
</g>
<!-- os&#45;&gt;tempFile -->
<g id="edge21" class="edge">
<title>os&#45;&gt;tempFile</title>
<path fill="none" stroke="#000000" d="M113.16,-828.9718C130.9571,-834.5612 155.0604,-842.874 175.3343,-852.4917 310.6571,-916.6878 327.3407,-964.7294 463.3343,-1027.4917 475.0153,-1032.8826 488.0825,-1037.6988 500.286,-1041.7179"/>
<polygon fill="#000000" stroke="#000000" points="499.2541,-1045.0625 509.8448,-1044.7661 501.3809,-1038.3933 499.2541,-1045.0625"/>
</g>
<!-- os&#45;&gt;runFunction -->
<g id="edge49" class="edge">
<title>os&#45;&gt;runFunction</title>
<path fill="none" stroke="#000000" d="M113.5743,-828.5704C186.7631,-848.568 396.0812,-905.7607 493.7737,-932.4535"/>
<polygon fill="#000000" stroke="#000000" points="492.8651,-935.8335 503.434,-935.0931 494.7101,-929.081 492.8651,-935.8335"/>
</g>
<!-- os&#45;&gt;readjson -->
<g id="edge57" class="edge">
<title>os&#45;&gt;readjson</title>
<path fill="none" stroke="#000000" d="M99.3016,-800.9063C150.7812,-710.437 360.0854,-349.1948 463.3343,-271.4917 473.5192,-263.8268 485.9897,-258.273 498.0956,-254.2742"/>
<polygon fill="#000000" stroke="#000000" points="499.109,-257.6243 507.6754,-251.39 497.0909,-250.9215 499.109,-257.6243"/>
</g>
<!-- streams -->
<g id="node12" class="node">
<title>streams</title>
<ellipse fill="none" stroke="#000000" cx="87.6672" cy="-209.4917" rx="63.3073" ry="22.7556"/>
<text text-anchor="middle" x="87.6672" y="-202.2917" font-family="Times,serif" font-size="24.00" fill="#000000">streams</text>
</g>
<!-- streams&#45;&gt;processTemplate -->
<g id="edge12" class="edge">
<title>streams&#45;&gt;processTemplate</title>
<path fill="none" stroke="#000000" d="M128.3352,-226.9113C143.1584,-233.3155 160.0321,-240.6694 175.3343,-247.4917 303.9361,-304.8273 332.2768,-328.0166 463.3343,-379.4917 472.1174,-382.9415 481.5403,-386.3306 490.7542,-389.4795"/>
<polygon fill="#000000" stroke="#000000" points="489.6509,-392.801 500.2449,-392.6666 491.8793,-386.1652 489.6509,-392.801"/>
</g>
<!-- streams&#45;&gt;env -->
<g id="edge16" class="edge">
<title>streams&#45;&gt;env</title>
<path fill="none" stroke="#000000" d="M134.482,-225.0112C148.3779,-230.8405 163.1321,-238.326 175.3343,-247.4917 335.8561,-368.0675 297.536,-482.2808 463.3343,-595.4917 476.8838,-604.7437 493.8427,-611.0241 508.8018,-615.1808"/>
<polygon fill="#000000" stroke="#000000" points="508.2168,-618.6438 518.7722,-617.7297 509.9507,-611.8619 508.2168,-618.6438"/>
</g>
<!-- streams&#45;&gt;readlines -->
<g id="edge28" class="edge">
<title>streams&#45;&gt;readlines</title>
<path fill="none" stroke="#000000" d="M150.7981,-206.8698C241.8604,-203.0879 408.3967,-196.1714 492.9366,-192.6603"/>
<polygon fill="#000000" stroke="#000000" points="493.2293,-196.1513 503.0754,-192.2392 492.9388,-189.1573 493.2293,-196.1513"/>
</g>
<!-- streams&#45;&gt;collectCommand -->
<g id="edge32" class="edge">
<title>streams&#45;&gt;collectCommand</title>
<path fill="none" stroke="#000000" d="M137.9347,-195.5372C223.5101,-171.7811 396.99,-123.6222 487.4068,-98.522"/>
<polygon fill="#000000" stroke="#000000" points="488.5167,-101.8464 497.2161,-95.7989 486.6442,-95.1014 488.5167,-101.8464"/>
</g>
<!-- streams&#45;&gt;readjson -->
<g id="edge56" class="edge">
<title>streams&#45;&gt;readjson</title>
<path fill="none" stroke="#000000" d="M149.8417,-214.2484C241.5407,-221.2639 411.2424,-234.247 495.2984,-240.6777"/>
<polygon fill="#000000" stroke="#000000" points="495.1193,-244.1741 505.3572,-241.4472 495.6534,-237.1945 495.1193,-244.1741"/>
</g>
<!-- streams&#45;&gt;replacement -->
<g id="edge62" class="edge">
<title>streams&#45;&gt;replacement</title>
<path fill="none" stroke="#000000" d="M145.6079,-200.2462C233.2622,-186.2594 398.6596,-159.8672 486.6464,-145.8273"/>
<polygon fill="#000000" stroke="#000000" points="487.4004,-149.2514 496.7239,-144.2193 486.2973,-142.3388 487.4004,-149.2514"/>
</g>
<!-- times -->
<g id="node15" class="node">
<title>times</title>
<polygon fill="#98fb98" stroke="#000000" points="139.7481,-612.3499 139.7481,-632.6336 109.2398,-646.9764 66.0945,-646.9764 35.5862,-632.6336 35.5862,-612.3499 66.0945,-598.0071 109.2398,-598.0071 139.7481,-612.3499"/>
<polygon fill="none" stroke="#000000" points="143.7511,-609.8122 143.7511,-635.1712 110.1347,-650.9752 65.1997,-650.9752 31.5832,-635.1712 31.5832,-609.8122 65.1997,-594.0083 110.1347,-594.0083 143.7511,-609.8122"/>
<text text-anchor="middle" x="87.6672" y="-615.2917" font-family="Times,serif" font-size="24.00" fill="#000000">times</text>
</g>
<!-- times&#45;&gt;env -->
<g id="edge18" class="edge">
<title>times&#45;&gt;env</title>
<path fill="none" stroke="#000000" d="M143.7638,-622.4917C238.5268,-622.4917 427.8019,-622.4917 507.9369,-622.4917"/>
<polygon fill="#000000" stroke="#000000" points="508.0522,-625.9918 518.0522,-622.4917 508.0521,-618.9918 508.0522,-625.9918"/>
</g>
<!-- random -->
<g id="node17" class="node">
<title>random</title>
<polygon fill="#98fb98" stroke="#000000" points="155.889,-1093.3499 155.889,-1113.6336 115.9256,-1127.9764 59.4087,-1127.9764 19.4453,-1113.6336 19.4453,-1093.3499 59.4087,-1079.0071 115.9256,-1079.0071 155.889,-1093.3499"/>
<polygon fill="none" stroke="#000000" points="159.8811,-1090.5349 159.8811,-1116.4486 116.6191,-1131.9752 58.7152,-1131.9752 15.4532,-1116.4486 15.4532,-1090.5349 58.7152,-1075.0083 116.6191,-1075.0083 159.8811,-1090.5349"/>
<text text-anchor="middle" x="87.6672" y="-1096.2917" font-family="Times,serif" font-size="24.00" fill="#000000">random</text>
</g>
<!-- random&#45;&gt;tempFile -->
<g id="edge22" class="edge">
<title>random&#45;&gt;tempFile</title>
<path fill="none" stroke="#000000" d="M159.9045,-1095.7546C253.2298,-1085.7588 413.3281,-1068.611 494.6144,-1059.9047"/>
<polygon fill="#000000" stroke="#000000" points="495.03,-1063.3803 504.6004,-1058.8351 494.2844,-1056.4201 495.03,-1063.3803"/>
</g>
<!-- parseutils -->
<g id="node25" class="node">
<title>parseutils</title>
<polygon fill="#98fb98" stroke="#000000" points="170.4501,-18.3499 170.4501,-38.6336 121.957,-52.9764 53.3774,-52.9764 4.8843,-38.6336 4.8843,-18.3499 53.3774,-4.0071 121.957,-4.0071 170.4501,-18.3499"/>
<polygon fill="none" stroke="#000000" points="174.4567,-15.3642 174.4567,-41.6193 122.5382,-56.9752 52.7962,-56.9752 .8776,-41.6193 .8776,-15.3642 52.7962,-.0083 122.5382,-.0083 174.4567,-15.3642"/>
<text text-anchor="middle" x="87.6672" y="-21.2917" font-family="Times,serif" font-size="24.00" fill="#000000">parseutils</text>
</g>
<!-- parseutils&#45;&gt;parseNumber -->
<g id="edge38" class="edge">
<title>parseutils&#45;&gt;parseNumber</title>
<path fill="none" stroke="#000000" d="M174.5237,-28.4917C262.4986,-28.4917 396.7505,-28.4917 477.235,-28.4917"/>
<polygon fill="#000000" stroke="#000000" points="477.2591,-31.9918 487.2591,-28.4917 477.259,-24.9918 477.2591,-31.9918"/>
</g>
<!-- json -->
<g id="node28" class="node">
<title>json</title>
<ellipse fill="none" stroke="#ff0000" cx="87.6672" cy="-279.4917" rx="39.7073" ry="22.7556"/>
<text text-anchor="middle" x="87.6672" y="-272.2917" font-family="Times,serif" font-size="24.00" fill="#000000">json</text>
</g>
<!-- json&#45;&gt;tostring -->
<g id="edge43" class="edge">
<title>json&#45;&gt;tostring</title>
<path fill="none" stroke="#ff0000" d="M127.4656,-281.1446C211.6322,-284.6402 407.3507,-292.7687 497.783,-296.5244"/>
<polygon fill="#ff0000" stroke="#ff0000" points="497.8794,-300.0314 508.016,-296.9494 498.1699,-293.0374 497.8794,-300.0314"/>
</g>
<!-- json&#45;&gt;readjson -->
<g id="edge59" class="edge">
<title>json&#45;&gt;readjson</title>
<path fill="none" stroke="#ff0000" d="M127.068,-276.4774C210.2324,-270.1148 403.5632,-255.324 495.225,-248.3114"/>
<polygon fill="#ff0000" stroke="#ff0000" points="495.6538,-251.7889 505.3576,-247.5362 495.1197,-244.8093 495.6538,-251.7889"/>
</g>
<!-- math -->
<g id="node31" class="node">
<title>math</title>
<polygon fill="#98fb98" stroke="#000000" points="136.6181,-1018.3499 136.6181,-1038.6336 107.9433,-1052.9764 67.391,-1052.9764 38.7162,-1038.6336 38.7162,-1018.3499 67.391,-1004.0071 107.9433,-1004.0071 136.6181,-1018.3499"/>
<polygon fill="none" stroke="#000000" points="140.6162,-1015.8787 140.6162,-1041.1048 108.8873,-1056.9752 66.447,-1056.9752 34.7181,-1041.1048 34.7181,-1015.8787 66.447,-1000.0083 108.8873,-1000.0083 140.6162,-1015.8787"/>
<text text-anchor="middle" x="87.6672" y="-1021.2917" font-family="Times,serif" font-size="24.00" fill="#000000">math</text>
</g>
<!-- math&#45;&gt;runFunction -->
<g id="edge48" class="edge">
<title>math&#45;&gt;runFunction</title>
<path fill="none" stroke="#000000" d="M141.0418,-1018.9248C227.8522,-1003.3648 398.8798,-972.7097 488.0409,-956.7284"/>
<polygon fill="#000000" stroke="#000000" points="488.7497,-960.1572 497.9753,-954.9477 487.5146,-953.267 488.7497,-960.1572"/>
</g>
<!-- algorithm -->
<g id="node32" class="node">
<title>algorithm</title>
<polygon fill="#98fb98" stroke="#000000" points="171.4941,-943.3499 171.4941,-963.6336 122.3894,-977.9764 52.9449,-977.9764 3.8402,-963.6336 3.8402,-943.3499 52.9449,-929.0071 122.3894,-929.0071 171.4941,-943.3499"/>
<polygon fill="none" stroke="#000000" points="175.5018,-940.3538 175.5018,-966.6297 122.964,-981.9752 52.3704,-981.9752 -.1675,-966.6297 -.1675,-940.3538 52.3704,-925.0083 122.964,-925.0083 175.5018,-940.3538"/>
<text text-anchor="middle" x="87.6672" y="-946.2917" font-family="Times,serif" font-size="24.00" fill="#000000">algorithm</text>
</g>
<!-- algorithm&#45;&gt;runFunction -->
<g id="edge50" class="edge">
<title>algorithm&#45;&gt;runFunction</title>
<path fill="none" stroke="#000000" d="M175.604,-952.1462C265.1511,-950.776 401.8166,-948.6849 481.4387,-947.4666"/>
<polygon fill="#000000" stroke="#000000" points="481.8637,-950.9606 491.8089,-947.3079 481.7565,-943.9614 481.8637,-950.9606"/>
</g>
<!-- unicode -->
<g id="node33" class="node">
<title>unicode</title>
<polygon fill="#98fb98" stroke="#000000" points="157.9587,-1260.3499 157.9587,-1280.6336 116.7829,-1294.9764 58.5514,-1294.9764 17.3756,-1280.6336 17.3756,-1260.3499 58.5514,-1246.0071 116.7829,-1246.0071 157.9587,-1260.3499"/>
<polygon fill="none" stroke="#000000" points="161.953,-1257.5072 161.953,-1283.4763 117.4579,-1298.9752 57.8764,-1298.9752 13.3814,-1283.4763 13.3814,-1257.5072 57.8764,-1242.0083 117.4579,-1242.0083 161.953,-1257.5072"/>
<text text-anchor="middle" x="87.6672" y="-1263.2917" font-family="Times,serif" font-size="24.00" fill="#000000">unicode</text>
</g>
<!-- unicode&#45;&gt;unicodes -->
<g id="edge51" class="edge">
<title>unicode&#45;&gt;unicodes</title>
<path fill="none" stroke="#000000" d="M162.1882,-1270.4917C255.2358,-1270.4917 412.0115,-1270.4917 493.0927,-1270.4917"/>
<polygon fill="#000000" stroke="#000000" points="493.5435,-1273.9918 503.5435,-1270.4917 493.5434,-1266.9918 493.5435,-1273.9918"/>
</g>
<!-- strformat -->
<g id="node38" class="node">
<title>strformat</title>
<polygon fill="#98fb98" stroke="#000000" points="167.318,-126.3499 167.318,-146.6336 120.6596,-160.9764 54.6747,-160.9764 8.0163,-146.6336 8.0163,-126.3499 54.6747,-112.0071 120.6596,-112.0071 167.318,-126.3499"/>
<polygon fill="none" stroke="#000000" points="171.3217,-123.3967 171.3217,-149.5868 121.2618,-164.9752 54.0725,-164.9752 4.0126,-149.5868 4.0126,-123.3967 54.0725,-108.0083 121.2618,-108.0083 171.3217,-123.3967"/>
<text text-anchor="middle" x="87.6672" y="-129.2917" font-family="Times,serif" font-size="24.00" fill="#000000">strformat</text>
</g>
<!-- strformat&#45;&gt;replacement -->
<g id="edge63" class="edge">
<title>strformat&#45;&gt;replacement</title>
<path fill="none" stroke="#000000" d="M171.3108,-136.4917C260.82,-136.4917 400.8139,-136.4917 481.6822,-136.4917"/>
<polygon fill="#000000" stroke="#000000" points="481.7254,-139.9918 491.7254,-136.4917 481.7253,-132.9918 481.7254,-139.9918"/>
</g>
</g>
</svg>
