<?xml version="1.0" encoding="UTF-8" standalone="no"?>
<!DOCTYPE svg PUBLIC "-//W3C//DTD SVG 1.1//EN"
 "http://www.w3.org/Graphics/SVG/1.1/DTD/svg11.dtd">
<!-- Generated by graphviz version 2.40.1 (20161225.0304)
 -->
<!-- Title: statictea Pages: 1 -->
<svg width="720pt" height="7pt"
 viewBox="0.00 0.00 720.00 6.81" xmlns="http://www.w3.org/2000/svg" xmlns:xlink="http://www.w3.org/1999/xlink">
<g id="graph0" class="graph" transform="scale(.1048 .1048) rotate(0) translate(4 60.9835)">
<title>statictea</title>
<polygon fill="#ffffff" stroke="transparent" points="-4,4 -4,-60.9835 6865.3103,-60.9835 6865.3103,4 -4,4"/>
<!-- runFunction -->
<g id="node1" class="node">
<title>runFunction</title>
<g id="a_node1"><a xlink:href="runFunction.md" xlink:title="runFunction.md">
<polygon fill="#98fb98" stroke="#000000" points="208.1331,-18.3499 208.1331,-38.6336 148.3312,-52.9764 63.7586,-52.9764 3.9567,-38.6336 3.9567,-18.3499 63.7586,-4.0071 148.3312,-4.0071 208.1331,-18.3499"/>
<polygon fill="none" stroke="#000000" points="212.1348,-15.1972 212.1348,-41.7863 148.8047,-56.9752 63.2851,-56.9752 -.0449,-41.7863 -.0449,-15.1972 63.2851,-.0083 148.8047,-.0083 212.1348,-15.1972"/>
<text text-anchor="middle" x="106.0449" y="-21.2917" font-family="Times,serif" font-size="24.00" fill="#000000">runFunction</text>
</a>
</g>
</g>
<!-- opresultid -->
<g id="node2" class="node">
<title>opresultid</title>
<g id="a_node2"><a xlink:href="opresultid.md" xlink:title="opresultid.md">
<polygon fill="#98fb98" stroke="#000000" points="405.9602,-18.3499 405.9602,-38.6336 355.6322,-52.9764 284.4577,-52.9764 234.1297,-38.6336 234.1297,-18.3499 284.4577,-4.0071 355.6322,-4.0071 405.9602,-18.3499"/>
<polygon fill="none" stroke="#000000" points="409.9697,-15.3336 409.9697,-41.6499 356.1938,-56.9752 283.8961,-56.9752 230.1202,-41.6499 230.1202,-15.3336 283.8961,-.0083 356.1938,-.0083 409.9697,-15.3336"/>
<text text-anchor="middle" x="320.0449" y="-21.2917" font-family="Times,serif" font-size="24.00" fill="#000000">opresultid</text>
</a>
</g>
</g>
<!-- parseNumber -->
<g id="node3" class="node">
<title>parseNumber</title>
<g id="a_node3"><a xlink:href="parseNumber.md" xlink:title="parseNumber.md">
<polygon fill="#98fb98" stroke="#000000" points="654.4254,-18.3499 654.4254,-38.6336 589.1802,-52.9764 496.9096,-52.9764 431.6644,-38.6336 431.6644,-18.3499 496.9096,-4.0071 589.1802,-4.0071 654.4254,-18.3499"/>
<polygon fill="none" stroke="#000000" points="658.4322,-15.136 658.4322,-41.8475 589.6163,-56.9752 496.4736,-56.9752 427.6577,-41.8475 427.6577,-15.136 496.4736,-.0083 589.6163,-.0083 658.4322,-15.136"/>
<text text-anchor="middle" x="543.0449" y="-21.2917" font-family="Times,serif" font-size="24.00" fill="#000000">parseNumber</text>
</a>
</g>
</g>
<!-- regexes -->
<g id="node4" class="node">
<title>regexes</title>
<g id="a_node4"><a xlink:href="regexes.md" xlink:title="regexes.md">
<polygon fill="#98fb98" stroke="#000000" points="817.232,-18.3499 817.232,-38.6336 777.2889,-52.9764 720.8009,-52.9764 680.8579,-38.6336 680.8579,-18.3499 720.8009,-4.0071 777.2889,-4.0071 817.232,-18.3499"/>
<polygon fill="none" stroke="#000000" points="821.2231,-15.5351 821.2231,-41.4484 777.9825,-56.9752 720.1074,-56.9752 676.8668,-41.4484 676.8668,-15.5351 720.1074,-.0083 777.9825,-.0083 821.2231,-15.5351"/>
<text text-anchor="middle" x="749.0449" y="-21.2917" font-family="Times,serif" font-size="24.00" fill="#000000">regexes</text>
</a>
</g>
</g>
<!-- cmdline -->
<g id="node5" class="node">
<title>cmdline</title>
<g id="a_node5"><a xlink:href="cmdline.md" xlink:title="cmdline.md">
<polygon fill="#98fb98" stroke="#000000" points="986.3801,-18.3499 986.3801,-38.6336 944.5929,-52.9764 885.4969,-52.9764 843.7097,-38.6336 843.7097,-18.3499 885.4969,-4.0071 944.5929,-4.0071 986.3801,-18.3499"/>
<polygon fill="none" stroke="#000000" points="990.3756,-15.4938 990.3756,-41.4897 945.259,-56.9752 884.8308,-56.9752 839.7142,-41.4897 839.7142,-15.4938 884.8308,-.0083 945.259,-.0083 990.3756,-15.4938"/>
<text text-anchor="middle" x="915.0449" y="-21.2917" font-family="Times,serif" font-size="24.00" fill="#000000">cmdline</text>
</a>
</g>
</g>
<!-- parseCmdLine -->
<g id="node6" class="node">
<title>parseCmdLine</title>
<g id="a_node6"><a xlink:href="parseCmdLine.md" xlink:title="parseCmdLine.md">
<polygon fill="#98fb98" stroke="#000000" points="1253.3223,-18.3499 1253.3223,-38.6336 1182.8655,-52.9764 1083.2244,-52.9764 1012.7675,-38.6336 1012.7675,-18.3499 1083.2244,-4.0071 1182.8655,-4.0071 1253.3223,-18.3499"/>
<polygon fill="none" stroke="#000000" points="1257.3187,-15.0826 1257.3187,-41.9008 1183.2678,-56.9752 1082.822,-56.9752 1008.7712,-41.9008 1008.7712,-15.0826 1082.822,-.0083 1183.2678,-.0083 1257.3187,-15.0826"/>
<text text-anchor="middle" x="1133.0449" y="-21.2917" font-family="Times,serif" font-size="24.00" fill="#000000">parseCmdLine</text>
</a>
</g>
</g>
<!-- env -->
<g id="node7" class="node">
<title>env</title>
<g id="a_node7"><a xlink:href="env.md" xlink:title="env.md">
<polygon fill="#98fb98" stroke="#000000" points="1356.6031,-18.3499 1356.6031,-38.6336 1334.0162,-52.9764 1302.0736,-52.9764 1279.4868,-38.6336 1279.4868,-18.3499 1302.0736,-4.0071 1334.0162,-4.0071 1356.6031,-18.3499"/>
<polygon fill="none" stroke="#000000" points="1360.5814,-16.1462 1360.5814,-40.8373 1335.1676,-56.9752 1300.9222,-56.9752 1275.5084,-40.8373 1275.5084,-16.1462 1300.9222,-.0083 1335.1676,-.0083 1360.5814,-16.1462"/>
<text text-anchor="middle" x="1318.0449" y="-21.2917" font-family="Times,serif" font-size="24.00" fill="#000000">env</text>
</a>
</g>
</g>
<!-- startingvars -->
<g id="node8" class="node">
<title>startingvars</title>
<g id="a_node8"><a xlink:href="startingvars.md" xlink:title="startingvars.md">
<polygon fill="#98fb98" stroke="#000000" points="1578.9391,-18.3499 1578.9391,-38.6336 1521.594,-52.9764 1440.4958,-52.9764 1383.1507,-38.6336 1383.1507,-18.3499 1440.4958,-4.0071 1521.594,-4.0071 1578.9391,-18.3499"/>
<polygon fill="none" stroke="#000000" points="1582.937,-15.2278 1582.937,-41.7556 1522.0863,-56.9752 1440.0036,-56.9752 1379.1528,-41.7556 1379.1528,-15.2278 1440.0036,-.0083 1522.0863,-.0083 1582.937,-15.2278"/>
<text text-anchor="middle" x="1481.0449" y="-21.2917" font-family="Times,serif" font-size="24.00" fill="#000000">startingvars</text>
</a>
</g>
</g>
<!-- unicodes -->
<g id="node9" class="node">
<title>unicodes</title>
<g id="a_node9"><a xlink:href="unicodes.md" xlink:title="unicodes.md">
<polygon fill="#98fb98" stroke="#000000" points="1759.6254,-18.3499 1759.6254,-38.6336 1714.1798,-52.9764 1649.9101,-52.9764 1604.4645,-38.6336 1604.4645,-18.3499 1649.9101,-4.0071 1714.1798,-4.0071 1759.6254,-18.3499"/>
<polygon fill="none" stroke="#000000" points="1763.6274,-15.4194 1763.6274,-41.5641 1714.7968,-56.9752 1649.293,-56.9752 1600.4624,-41.5641 1600.4624,-15.4194 1649.293,-.0083 1714.7968,-.0083 1763.6274,-15.4194"/>
<text text-anchor="middle" x="1682.0449" y="-21.2917" font-family="Times,serif" font-size="24.00" fill="#000000">unicodes</text>
</a>
</g>
</g>
<!-- variables -->
<g id="node10" class="node">
<title>variables</title>
<g id="a_node10"><a xlink:href="variables.md" xlink:title="variables.md">
<polygon fill="#98fb98" stroke="#000000" points="1942.6343,-18.3499 1942.6343,-38.6336 1896.5977,-52.9764 1831.4922,-52.9764 1785.4556,-38.6336 1785.4556,-18.3499 1831.4922,-4.0071 1896.5977,-4.0071 1942.6343,-18.3499"/>
<polygon fill="none" stroke="#000000" points="1946.6365,-15.408 1946.6365,-41.5754 1897.2072,-56.9752 1830.8826,-56.9752 1781.4534,-41.5754 1781.4534,-15.408 1830.8826,-.0083 1897.2072,-.0083 1946.6365,-15.408"/>
<text text-anchor="middle" x="1864.0449" y="-21.2917" font-family="Times,serif" font-size="24.00" fill="#000000">variables</text>
</a>
</g>
</g>
<!-- tempFile -->
<g id="node11" class="node">
<title>tempFile</title>
<g id="a_node11"><a xlink:href="tempFile.md" xlink:title="tempFile.md">
<polygon fill="#98fb98" stroke="#000000" points="2123.6429,-18.3499 2123.6429,-38.6336 2078.1871,-52.9764 2013.9028,-52.9764 1968.447,-38.6336 1968.447,-18.3499 2013.9028,-4.0071 2078.1871,-4.0071 2123.6429,-18.3499"/>
<polygon fill="none" stroke="#000000" points="2127.6454,-15.4192 2127.6454,-41.5642 2078.8041,-56.9752 2013.2858,-56.9752 1964.4445,-41.5642 1964.4445,-15.4192 2013.2858,-.0083 2078.8041,-.0083 2127.6454,-15.4192"/>
<text text-anchor="middle" x="2046.0449" y="-21.2917" font-family="Times,serif" font-size="24.00" fill="#000000">tempFile</text>
</a>
</g>
</g>
<!-- vartypes -->
<g id="node12" class="node">
<title>vartypes</title>
<g id="a_node12"><a xlink:href="vartypes.md" xlink:title="vartypes.md">
<polygon fill="#98fb98" stroke="#000000" points="2298.4938,-18.3499 2298.4938,-38.6336 2254.8827,-52.9764 2193.2072,-52.9764 2149.596,-38.6336 2149.596,-18.3499 2193.2072,-4.0071 2254.8827,-4.0071 2298.4938,-18.3499"/>
<polygon fill="none" stroke="#000000" points="2302.4925,-15.4554 2302.4925,-41.5281 2255.5233,-56.9752 2192.5665,-56.9752 2145.5974,-41.5281 2145.5974,-15.4554 2192.5665,-.0083 2255.5233,-.0083 2302.4925,-15.4554"/>
<text text-anchor="middle" x="2224.0449" y="-21.2917" font-family="Times,serif" font-size="24.00" fill="#000000">vartypes</text>
</a>
</g>
</g>
<!-- codefile -->
<g id="node13" class="node">
<title>codefile</title>
<g id="a_node13"><a xlink:href="codefile.md" xlink:title="codefile.md">
<polygon fill="#98fb98" stroke="#000000" points="2465.3365,-18.3499 2465.3365,-38.6336 2424.1606,-52.9764 2365.9292,-52.9764 2324.7534,-38.6336 2324.7534,-18.3499 2365.9292,-4.0071 2424.1606,-4.0071 2465.3365,-18.3499"/>
<polygon fill="none" stroke="#000000" points="2469.3307,-15.5072 2469.3307,-41.4763 2424.8357,-56.9752 2365.2542,-56.9752 2320.7591,-41.4763 2320.7591,-15.5072 2365.2542,-.0083 2424.8357,-.0083 2469.3307,-15.5072"/>
<text text-anchor="middle" x="2395.0449" y="-21.2917" font-family="Times,serif" font-size="24.00" fill="#000000">codefile</text>
</a>
</g>
</g>
<!-- replacement -->
<g id="node14" class="node">
<title>replacement</title>
<g id="a_node14"><a xlink:href="replacement.md" xlink:title="replacement.md">
<polygon fill="#98fb98" stroke="#000000" points="2695.0275,-18.3499 2695.0275,-38.6336 2635.2875,-52.9764 2550.8024,-52.9764 2491.0624,-38.6336 2491.0624,-18.3499 2550.8024,-4.0071 2635.2875,-4.0071 2695.0275,-18.3499"/>
<polygon fill="none" stroke="#000000" points="2699.0272,-15.1976 2699.0272,-41.7859 2635.761,-56.9752 2550.3289,-56.9752 2487.0627,-41.7859 2487.0627,-15.1976 2550.3289,-.0083 2635.761,-.0083 2699.0272,-15.1976"/>
<text text-anchor="middle" x="2593.0449" y="-21.2917" font-family="Times,serif" font-size="24.00" fill="#000000">replacement</text>
</a>
</g>
</g>
<!-- updateTemplate -->
<g id="node15" class="node">
<title>updateTemplate</title>
<g id="a_node15"><a xlink:href="updateTemplate.md" xlink:title="updateTemplate.md">
<polygon fill="#98fb98" stroke="#000000" points="2979.1202,-18.3499 2979.1202,-38.6336 2903.5096,-52.9764 2796.5802,-52.9764 2720.9697,-38.6336 2720.9697,-18.3499 2796.5802,-4.0071 2903.5096,-4.0071 2979.1202,-18.3499"/>
<polygon fill="none" stroke="#000000" points="2983.1137,-15.0375 2983.1137,-41.946 2903.8846,-56.9752 2796.2053,-56.9752 2716.9761,-41.946 2716.9761,-15.0375 2796.2053,-.0083 2903.8846,-.0083 2983.1137,-15.0375"/>
<text text-anchor="middle" x="2850.0449" y="-21.2917" font-family="Times,serif" font-size="24.00" fill="#000000">updateTemplate</text>
</a>
</g>
</g>
<!-- utf8decoder -->
<g id="node16" class="node">
<title>utf8decoder</title>
<g id="a_node16"><a xlink:href="utf8decoder.md" xlink:title="utf8decoder.md">
<polygon fill="#98fb98" stroke="#000000" points="3204.9745,-18.3499 3204.9745,-38.6336 3146.4371,-52.9764 3063.6527,-52.9764 3005.1154,-38.6336 3005.1154,-18.3499 3063.6527,-4.0071 3146.4371,-4.0071 3204.9745,-18.3499"/>
<polygon fill="none" stroke="#000000" points="3208.9731,-15.2125 3208.9731,-41.771 3146.9198,-56.9752 3063.17,-56.9752 3001.1167,-41.771 3001.1167,-15.2125 3063.17,-.0083 3146.9198,-.0083 3208.9731,-15.2125"/>
<text text-anchor="middle" x="3105.0449" y="-21.2917" font-family="Times,serif" font-size="24.00" fill="#000000">utf8decoder</text>
</a>
</g>
</g>
<!-- warnings -->
<g id="node17" class="node">
<title>warnings</title>
<g id="a_node17"><a xlink:href="warnings.md" xlink:title="warnings.md">
<polygon fill="#98fb98" stroke="#000000" points="3390.7133,-18.3499 3390.7133,-38.6336 3344.0446,-52.9764 3278.0452,-52.9764 3231.3766,-38.6336 3231.3766,-18.3499 3278.0452,-4.0071 3344.0446,-4.0071 3390.7133,-18.3499"/>
<polygon fill="none" stroke="#000000" points="3394.7174,-15.3966 3394.7174,-41.5869 3344.6468,-56.9752 3277.443,-56.9752 3227.3724,-41.5869 3227.3724,-15.3966 3277.443,-.0083 3344.6468,-.0083 3394.7174,-15.3966"/>
<text text-anchor="middle" x="3311.0449" y="-21.2917" font-family="Times,serif" font-size="24.00" fill="#000000">warnings</text>
</a>
</g>
</g>
<!-- repl -->
<g id="node18" class="node">
<title>repl</title>
<g id="a_node18"><a xlink:href="repl.md" xlink:title="repl.md">
<polygon fill="#98fb98" stroke="#000000" points="3497.6705,-18.3499 3497.6705,-38.6336 3473.8726,-52.9764 3440.2173,-52.9764 3416.4194,-38.6336 3416.4194,-18.3499 3440.2173,-4.0071 3473.8726,-4.0071 3497.6705,-18.3499"/>
<polygon fill="none" stroke="#000000" points="3501.653,-16.0862 3501.653,-40.8973 3474.9761,-56.9752 3439.1138,-56.9752 3412.4368,-40.8973 3412.4368,-16.0862 3439.1138,-.0083 3474.9761,-.0083 3501.653,-16.0862"/>
<text text-anchor="middle" x="3457.0449" y="-21.2917" font-family="Times,serif" font-size="24.00" fill="#000000">repl</text>
</a>
</g>
</g>
<!-- runner -->
<g id="node19" class="node">
<title>runner</title>
<g id="a_node19"><a xlink:href="runner.md" xlink:title="runner.md">
<polygon fill="#98fb98" stroke="#000000" points="3644.4057,-18.3499 3644.4057,-38.6336 3609.0472,-52.9764 3559.0427,-52.9764 3523.6841,-38.6336 3523.6841,-18.3499 3559.0427,-4.0071 3609.0472,-4.0071 3644.4057,-18.3499"/>
<polygon fill="none" stroke="#000000" points="3648.4173,-15.6599 3648.4173,-41.3236 3609.8322,-56.9752 3558.2577,-56.9752 3519.6725,-41.3236 3519.6725,-15.6599 3558.2577,-.0083 3609.8322,-.0083 3648.4173,-15.6599"/>
<text text-anchor="middle" x="3584.0449" y="-21.2917" font-family="Times,serif" font-size="24.00" fill="#000000">runner</text>
</a>
</g>
</g>
<!-- statictea -->
<g id="node20" class="node">
<title>statictea</title>
<g id="a_node20"><a xlink:href="statictea.md" xlink:title="statictea.md">
<polygon fill="#98fb98" stroke="#000000" points="3815.3889,-18.3499 3815.3889,-38.6336 3773.0108,-52.9764 3713.0791,-52.9764 3670.701,-38.6336 3670.701,-18.3499 3713.0791,-4.0071 3773.0108,-4.0071 3815.3889,-18.3499"/>
<polygon fill="none" stroke="#000000" points="3819.3847,-15.4809 3819.3847,-41.5026 3773.6682,-56.9752 3712.4217,-56.9752 3666.7051,-41.5026 3666.7051,-15.4809 3712.4217,-.0083 3773.6682,-.0083 3819.3847,-15.4809"/>
<text text-anchor="middle" x="3743.0449" y="-21.2917" font-family="Times,serif" font-size="24.00" fill="#000000">statictea</text>
</a>
</g>
</g>
<!-- gethelp -->
<g id="node21" class="node">
<title>gethelp</title>
<g id="a_node21"><a xlink:href="gethelp.md" xlink:title="gethelp.md">
<polygon fill="#98fb98" stroke="#000000" points="3974.1798,-18.3499 3974.1798,-38.6336 3935.4389,-52.9764 3880.651,-52.9764 3841.91,-38.6336 3841.91,-18.3499 3880.651,-4.0071 3935.4389,-4.0071 3974.1798,-18.3499"/>
<polygon fill="none" stroke="#000000" points="3978.1692,-15.5639 3978.1692,-41.4195 3936.1521,-56.9752 3879.9378,-56.9752 3837.9207,-41.4195 3837.9207,-15.5639 3879.9378,-.0083 3936.1521,-.0083 3978.1692,-15.5639"/>
<text text-anchor="middle" x="3908.0449" y="-21.2917" font-family="Times,serif" font-size="24.00" fill="#000000">gethelp</text>
</a>
</g>
</g>
<!-- comparelines -->
<g id="node22" class="node">
<title>comparelines</title>
<g id="a_node22"><a xlink:href="comparelines.md" xlink:title="comparelines.md">
<polygon fill="#98fb98" stroke="#000000" points="4220.3811,-18.3499 4220.3811,-38.6336 4155.7477,-52.9764 4064.3422,-52.9764 3999.7087,-38.6336 3999.7087,-18.3499 4064.3422,-4.0071 4155.7477,-4.0071 4220.3811,-18.3499"/>
<polygon fill="none" stroke="#000000" points="4224.3871,-15.1424 4224.3871,-41.8411 4156.1876,-56.9752 4063.9023,-56.9752 3995.7027,-41.8411 3995.7027,-15.1424 4063.9023,-.0083 4156.1876,-.0083 4224.3871,-15.1424"/>
<text text-anchor="middle" x="4110.0449" y="-21.2917" font-family="Times,serif" font-size="24.00" fill="#000000">comparelines</text>
</a>
</g>
</g>
<!-- signatures -->
<g id="node23" class="node">
<title>signatures</title>
<g id="a_node23"><a xlink:href="signatures.md" xlink:title="signatures.md">
<polygon fill="#98fb98" stroke="#000000" points="4419.9868,-18.3499 4419.9868,-38.6336 4369.0574,-52.9764 4297.0324,-52.9764 4246.1031,-38.6336 4246.1031,-18.3499 4297.0324,-4.0071 4369.0574,-4.0071 4419.9868,-18.3499"/>
<polygon fill="none" stroke="#000000" points="4423.9968,-15.3239 4423.9968,-41.6596 4369.6128,-56.9752 4296.4771,-56.9752 4242.0931,-41.6596 4242.0931,-15.3239 4296.4771,-.0083 4369.6128,-.0083 4423.9968,-15.3239"/>
<text text-anchor="middle" x="4333.0449" y="-21.2917" font-family="Times,serif" font-size="24.00" fill="#000000">signatures</text>
</a>
</g>
</g>
<!-- args -->
<g id="node24" class="node">
<title>args</title>
<g id="a_node24"><a xlink:href="args.md" xlink:title="args.md">
<polygon fill="#98fb98" stroke="#000000" points="4530.5941,-18.3499 4530.5941,-38.6336 4505.6694,-52.9764 4470.4205,-52.9764 4445.4957,-38.6336 4445.4957,-18.3499 4470.4205,-4.0071 4505.6694,-4.0071 4530.5941,-18.3499"/>
<polygon fill="none" stroke="#000000" points="4534.5963,-16.0383 4534.5963,-40.9452 4506.7395,-56.9752 4469.3504,-56.9752 4441.4935,-40.9452 4441.4935,-16.0383 4469.3504,-.0083 4506.7395,-.0083 4534.5963,-16.0383"/>
<text text-anchor="middle" x="4488.0449" y="-21.2917" font-family="Times,serif" font-size="24.00" fill="#000000">args</text>
</a>
</g>
</g>
<!-- opresultwarn -->
<g id="node25" class="node">
<title>opresultwarn</title>
<g id="a_node25"><a xlink:href="opresultwarn.md" xlink:title="opresultwarn.md">
<polygon fill="#98fb98" stroke="#000000" points="4773.3279,-18.3499 4773.3279,-38.6336 4709.8972,-52.9764 4620.1927,-52.9764 4556.762,-38.6336 4556.762,-18.3499 4620.1927,-4.0071 4709.8972,-4.0071 4773.3279,-18.3499"/>
<polygon fill="none" stroke="#000000" points="4777.333,-15.1554 4777.333,-41.8281 4710.345,-56.9752 4619.7448,-56.9752 4552.7569,-41.8281 4552.7569,-15.1554 4619.7448,-.0083 4710.345,-.0083 4777.333,-15.1554"/>
<text text-anchor="middle" x="4665.0449" y="-21.2917" font-family="Times,serif" font-size="24.00" fill="#000000">opresultwarn</text>
</a>
</g>
</g>
<!-- messages -->
<g id="node26" class="node">
<title>messages</title>
<g id="a_node26"><a xlink:href="messages.md" xlink:title="messages.md">
<polygon fill="#98fb98" stroke="#000000" points="4962.7838,-18.3499 4962.7838,-38.6336 4914.9023,-52.9764 4847.1876,-52.9764 4799.3061,-38.6336 4799.3061,-18.3499 4847.1876,-4.0071 4914.9023,-4.0071 4962.7838,-18.3499"/>
<polygon fill="none" stroke="#000000" points="4966.7895,-15.3748 4966.7895,-41.6087 4915.4903,-56.9752 4846.5996,-56.9752 4795.3004,-41.6087 4795.3004,-15.3748 4846.5996,-.0083 4915.4903,-.0083 4966.7895,-15.3748"/>
<text text-anchor="middle" x="4881.0449" y="-21.2917" font-family="Times,serif" font-size="24.00" fill="#000000">messages</text>
</a>
</g>
</g>
<!-- matches -->
<g id="node27" class="node">
<title>matches</title>
<g id="a_node27"><a xlink:href="matches.md" xlink:title="matches.md">
<polygon fill="#98fb98" stroke="#000000" points="5133.4064,-18.3499 5133.4064,-38.6336 5091.018,-52.9764 5031.0718,-52.9764 4988.6835,-38.6336 4988.6835,-18.3499 5031.0718,-4.0071 5091.018,-4.0071 5133.4064,-18.3499"/>
<polygon fill="none" stroke="#000000" points="5137.4026,-15.4808 5137.4026,-41.5027 5091.6754,-56.9752 5030.4145,-56.9752 4984.6872,-41.5027 4984.6872,-15.4808 5030.4145,-.0083 5091.6754,-.0083 5137.4026,-15.4808"/>
<text text-anchor="middle" x="5061.0449" y="-21.2917" font-family="Times,serif" font-size="24.00" fill="#000000">matches</text>
</a>
</g>
</g>
<!-- version -->
<g id="node28" class="node">
<title>version</title>
<g id="a_node28"><a xlink:href="version.md" xlink:title="version.md">
<polygon fill="#98fb98" stroke="#000000" points="5292.1972,-18.3499 5292.1972,-38.6336 5253.4461,-52.9764 5198.6438,-52.9764 5159.8926,-38.6336 5159.8926,-18.3499 5198.6438,-4.0071 5253.4461,-4.0071 5292.1972,-18.3499"/>
<polygon fill="none" stroke="#000000" points="5296.187,-15.5638 5296.187,-41.4197 5254.1593,-56.9752 5197.9306,-56.9752 5155.9028,-41.4197 5155.9028,-15.5638 5197.9306,-.0083 5254.1593,-.0083 5296.187,-15.5638"/>
<text text-anchor="middle" x="5226.0449" y="-21.2917" font-family="Times,serif" font-size="24.00" fill="#000000">version</text>
</a>
</g>
</g>
<!-- readjson -->
<g id="node29" class="node">
<title>readjson</title>
<g id="a_node29"><a xlink:href="readjson.md" xlink:title="readjson.md">
<polygon fill="#98fb98" stroke="#000000" points="5467.4938,-18.3499 5467.4938,-38.6336 5423.8827,-52.9764 5362.2072,-52.9764 5318.596,-38.6336 5318.596,-18.3499 5362.2072,-4.0071 5423.8827,-4.0071 5467.4938,-18.3499"/>
<polygon fill="none" stroke="#000000" points="5471.4925,-15.4554 5471.4925,-41.5281 5424.5233,-56.9752 5361.5665,-56.9752 5314.5974,-41.5281 5314.5974,-15.4554 5361.5665,-.0083 5424.5233,-.0083 5471.4925,-15.4554"/>
<text text-anchor="middle" x="5393.0449" y="-21.2917" font-family="Times,serif" font-size="24.00" fill="#000000">readjson</text>
</a>
</g>
</g>
<!-- timer -->
<g id="node30" class="node">
<title>timer</title>
<g id="a_node30"><a xlink:href="timer.md" xlink:title="timer.md">
<polygon fill="#98fb98" stroke="#000000" points="5595.0652,-18.3499 5595.0652,-38.6336 5565.1782,-52.9764 5522.9116,-52.9764 5493.0247,-38.6336 5493.0247,-18.3499 5522.9116,-4.0071 5565.1782,-4.0071 5595.0652,-18.3499"/>
<polygon fill="none" stroke="#000000" points="5599.0659,-15.834 5599.0659,-41.1495 5566.0889,-56.9752 5522.001,-56.9752 5489.0239,-41.1495 5489.0239,-15.834 5522.001,-.0083 5566.0889,-.0083 5599.0659,-15.834"/>
<text text-anchor="middle" x="5544.0449" y="-21.2917" font-family="Times,serif" font-size="24.00" fill="#000000">timer</text>
</a>
</g>
</g>
<!-- parseCommandLine -->
<g id="node31" class="node">
<title>parseCommandLine</title>
<g id="a_node31"><a xlink:href="parseCommandLine.md" xlink:title="parseCommandLine.md">
<polygon fill="#98fb98" stroke="#000000" points="5943.4333,-18.3499 5943.4333,-38.6336 5848.8942,-52.9764 5715.1957,-52.9764 5620.6566,-38.6336 5620.6566,-18.3499 5715.1957,-4.0071 5848.8942,-4.0071 5943.4333,-18.3499"/>
<polygon fill="none" stroke="#000000" points="5947.438,-14.9127 5947.438,-42.0708 5849.1967,-56.9752 5714.8932,-56.9752 5616.6518,-42.0708 5616.6518,-14.9127 5714.8932,-.0083 5849.1967,-.0083 5947.438,-14.9127"/>
<text text-anchor="middle" x="5782.0449" y="-21.2917" font-family="Times,serif" font-size="24.00" fill="#000000">parseCommandLine</text>
</a>
</g>
</g>
<!-- processTemplate -->
<g id="node32" class="node">
<title>processTemplate</title>
<g id="a_node32"><a xlink:href="processTemplate.md" xlink:title="processTemplate.md">
<polygon fill="#98fb98" stroke="#000000" points="6240.3678,-18.3499 6240.3678,-38.6336 6161.0975,-52.9764 6048.9923,-52.9764 5969.722,-38.6336 5969.722,-18.3499 6048.9923,-4.0071 6161.0975,-4.0071 6240.3678,-18.3499"/>
<polygon fill="none" stroke="#000000" points="6244.3653,-15.0094 6244.3653,-41.9741 6161.4561,-56.9752 6048.6337,-56.9752 5965.7246,-41.9741 5965.7246,-15.0094 6048.6337,-.0083 6161.4561,-.0083 6244.3653,-15.0094"/>
<text text-anchor="middle" x="6105.0449" y="-21.2917" font-family="Times,serif" font-size="24.00" fill="#000000">processTemplate</text>
</a>
</g>
</g>
<!-- opresult -->
<g id="node33" class="node">
<title>opresult</title>
<g id="a_node33"><a xlink:href="opresult.md" xlink:title="opresult.md">
<polygon fill="#98fb98" stroke="#000000" points="6409.3976,-18.3499 6409.3976,-38.6336 6367.6002,-52.9764 6308.4897,-52.9764 6266.6923,-38.6336 6266.6923,-18.3499 6308.4897,-4.0071 6367.6002,-4.0071 6409.3976,-18.3499"/>
<polygon fill="none" stroke="#000000" points="6413.3936,-15.4937 6413.3936,-41.4898 6368.2662,-56.9752 6307.8236,-56.9752 6262.6963,-41.4898 6262.6963,-15.4937 6307.8236,-.0083 6368.2662,-.0083 6413.3936,-15.4937"/>
<text text-anchor="middle" x="6338.0449" y="-21.2917" font-family="Times,serif" font-size="24.00" fill="#000000">opresult</text>
</a>
</g>
</g>
<!-- linebuffer -->
<g id="node34" class="node">
<title>linebuffer</title>
<g id="a_node34"><a xlink:href="linebuffer.md" xlink:title="linebuffer.md">
<polygon fill="#98fb98" stroke="#000000" points="6604.2321,-18.3499 6604.2321,-38.6336 6554.9164,-52.9764 6485.1734,-52.9764 6435.8577,-38.6336 6435.8577,-18.3499 6485.1734,-4.0071 6554.9164,-4.0071 6604.2321,-18.3499"/>
<polygon fill="none" stroke="#000000" points="6608.2249,-15.3471 6608.2249,-41.6364 6555.4844,-56.9752 6484.6054,-56.9752 6431.865,-41.6364 6431.865,-15.3471 6484.6054,-.0083 6555.4844,-.0083 6608.2249,-15.3471"/>
<text text-anchor="middle" x="6520.0449" y="-21.2917" font-family="Times,serif" font-size="24.00" fill="#000000">linebuffer</text>
</a>
</g>
</g>
<!-- runCommand -->
<g id="node35" class="node">
<title>runCommand</title>
<g id="a_node35"><a xlink:href="runCommand.md" xlink:title="runCommand.md">
<polygon fill="#98fb98" stroke="#000000" points="6857.084,-18.3499 6857.084,-38.6336 6790.8673,-52.9764 6697.2226,-52.9764 6631.0058,-38.6336 6631.0058,-18.3499 6697.2226,-4.0071 6790.8673,-4.0071 6857.084,-18.3499"/>
<polygon fill="none" stroke="#000000" points="6861.0761,-15.1233 6861.0761,-41.8602 6791.2939,-56.9752 6696.7959,-56.9752 6627.0138,-41.8602 6627.0138,-15.1233 6696.7959,-.0083 6791.2939,-.0083 6861.0761,-15.1233"/>
<text text-anchor="middle" x="6744.0449" y="-21.2917" font-family="Times,serif" font-size="24.00" fill="#000000">runCommand</text>
</a>
</g>
</g>
</g>
</svg>
