<?xml version="1.0" encoding="UTF-8" standalone="no"?>
<!DOCTYPE svg PUBLIC "-//W3C//DTD SVG 1.1//EN"
 "http://www.w3.org/Graphics/SVG/1.1/DTD/svg11.dtd">
<!-- Generated by graphviz version 2.40.1 (20161225.0304)
 -->
<!-- Title: statictea Pages: 1 -->
<svg width="720pt" height="311pt"
 viewBox="0.00 0.00 720.00 310.93" xmlns="http://www.w3.org/2000/svg" xmlns:xlink="http://www.w3.org/1999/xlink">
<g id="graph0" class="graph" transform="scale(.2013 .2013) rotate(0) translate(4 1540.9778)">
<title>statictea</title>
<polygon fill="#ffffff" stroke="transparent" points="-4,4 -4,-1540.9778 3573.6033,-1540.9778 3573.6033,4 -4,4"/>
<!-- runFunction -->
<g id="node1" class="node">
<title>runFunction</title>
<g id="a_node1"><a xlink:href="runFunction.md" xlink:title="runFunction.md">
<ellipse fill="#eee8aa" stroke="#000000" cx="2250.9693" cy="-930" rx="94.055" ry="22.7556"/>
<text text-anchor="middle" x="2250.9693" y="-922.8" font-family="Times,serif" font-size="24.00" fill="#000000">runFunction</text>
</a>
</g>
</g>
<!-- parseNumber -->
<g id="node3" class="node">
<title>parseNumber</title>
<g id="a_node3"><a xlink:href="parseNumber.md" xlink:title="parseNumber.md">
<polygon fill="#98fb98" stroke="#000000" points="2067.3498,-777.8581 2067.3498,-798.1419 2002.1046,-812.4846 1909.834,-812.4846 1844.5888,-798.1419 1844.5888,-777.8581 1909.834,-763.5154 2002.1046,-763.5154 2067.3498,-777.8581"/>
<polygon fill="none" stroke="#000000" points="2071.3565,-774.6442 2071.3565,-801.3558 2002.5406,-816.4835 1909.3979,-816.4835 1840.582,-801.3558 1840.582,-774.6442 1909.3979,-759.5165 2002.5406,-759.5165 2071.3565,-774.6442"/>
<text text-anchor="middle" x="1955.9693" y="-780.8" font-family="Times,serif" font-size="24.00" fill="#000000">parseNumber</text>
</a>
</g>
</g>
<!-- runFunction&#45;&gt;parseNumber -->
<g id="edge64" class="edge">
<title>runFunction&#45;&gt;parseNumber</title>
<path fill="none" stroke="#000000" d="M2208.703,-909.6549C2159.5046,-885.9729 2077.714,-846.6025 2020.5439,-819.0834"/>
<polygon fill="#000000" stroke="#000000" points="2021.7633,-815.786 2011.2347,-814.6024 2018.7272,-822.0933 2021.7633,-815.786"/>
</g>
<!-- regexes -->
<g id="node4" class="node">
<title>regexes</title>
<g id="a_node4"><a xlink:href="regexes.md" xlink:title="regexes.md">
<polygon fill="#98fb98" stroke="#000000" points="972.1563,-473.8581 972.1563,-494.1419 932.2133,-508.4846 875.7253,-508.4846 835.7823,-494.1419 835.7823,-473.8581 875.7253,-459.5154 932.2133,-459.5154 972.1563,-473.8581"/>
<polygon fill="none" stroke="#000000" points="976.1474,-471.0434 976.1474,-496.9566 932.9069,-512.4835 875.0317,-512.4835 831.7911,-496.9566 831.7911,-471.0434 875.0317,-455.5165 932.9069,-455.5165 976.1474,-471.0434"/>
<text text-anchor="middle" x="903.9693" y="-476.8" font-family="Times,serif" font-size="24.00" fill="#000000">regexes</text>
</a>
</g>
</g>
<!-- runFunction&#45;&gt;regexes -->
<g id="edge63" class="edge">
<title>runFunction&#45;&gt;regexes</title>
<path fill="none" stroke="#000000" d="M2232.0478,-907.6891C2202.0978,-873.2183 2140.896,-806.1292 2079.9693,-759.5083 1972.4455,-677.2313 1944.1208,-651.1894 1815.9693,-607.5083 1662.7501,-555.2827 1180.7319,-508.3555 986.3929,-491.0574"/>
<polygon fill="#000000" stroke="#000000" points="986.5111,-487.5542 976.241,-490.1575 985.8929,-494.5269 986.5111,-487.5542"/>
</g>
<!-- unicodes -->
<g id="node8" class="node">
<title>unicodes</title>
<g id="a_node8"><a xlink:href="unicodes.md" xlink:title="unicodes.md">
<ellipse fill="#eee8aa" stroke="#000000" cx="3016.9693" cy="-788" rx="71.7778" ry="22.7556"/>
<text text-anchor="middle" x="3016.9693" y="-780.8" font-family="Times,serif" font-size="24.00" fill="#000000">unicodes</text>
</a>
</g>
</g>
<!-- runFunction&#45;&gt;unicodes -->
<g id="edge75" class="edge">
<title>runFunction&#45;&gt;unicodes</title>
<path fill="none" stroke="#000000" d="M2325.8113,-916.1259C2473.3239,-888.7802 2799.872,-828.2452 2945.0143,-801.3389"/>
<polygon fill="#000000" stroke="#000000" points="2945.9516,-804.7249 2955.1461,-799.4607 2944.6756,-797.8421 2945.9516,-804.7249"/>
</g>
<!-- vartypes -->
<g id="node11" class="node">
<title>vartypes</title>
<g id="a_node11"><a xlink:href="vartypes.md" xlink:title="vartypes.md">
<ellipse fill="#eee8aa" stroke="#000000" cx="2431.9693" cy="-484" rx="68.6102" ry="22.7556"/>
<text text-anchor="middle" x="2431.9693" y="-476.8" font-family="Times,serif" font-size="24.00" fill="#000000">vartypes</text>
</a>
</g>
</g>
<!-- runFunction&#45;&gt;vartypes -->
<g id="edge62" class="edge">
<title>runFunction&#45;&gt;vartypes</title>
<path fill="none" stroke="#000000" d="M2244.8666,-907.3119C2237.0007,-874.0426 2226.1073,-810.4486 2241.9693,-759.5083 2273.7139,-657.5614 2357.7913,-560.0079 2402.7092,-513.0743"/>
<polygon fill="#000000" stroke="#000000" points="2405.3922,-515.3347 2409.831,-505.7145 2400.3618,-510.4669 2405.3922,-515.3347"/>
</g>
<!-- funtypes -->
<g id="node15" class="node">
<title>funtypes</title>
<g id="a_node15"><a xlink:href="funtypes.md" xlink:title="funtypes.md">
<ellipse fill="#eee8aa" stroke="#000000" cx="2620.9693" cy="-636" rx="69.5163" ry="22.7556"/>
<text text-anchor="middle" x="2620.9693" y="-628.8" font-family="Times,serif" font-size="24.00" fill="#000000">funtypes</text>
</a>
</g>
</g>
<!-- runFunction&#45;&gt;funtypes -->
<g id="edge80" class="edge">
<title>runFunction&#45;&gt;funtypes</title>
<path fill="none" stroke="#000000" d="M2246.5397,-907.3066C2240.9705,-871.7128 2235.8656,-802.403 2269.9693,-759.5083 2305.7524,-714.5012 2461.4911,-672.3665 2553.057,-650.8719"/>
<polygon fill="#000000" stroke="#000000" points="2553.8547,-654.2799 2562.8018,-648.6053 2552.2688,-647.4619 2553.8547,-654.2799"/>
</g>
<!-- warnings -->
<g id="node17" class="node">
<title>warnings</title>
<g id="a_node17"><a xlink:href="warnings.md" xlink:title="warnings.md">
<ellipse fill="#eee8aa" stroke="#000000" cx="1948.9693" cy="-199" rx="73.5561" ry="22.7556"/>
<text text-anchor="middle" x="1948.9693" y="-191.8" font-family="Times,serif" font-size="24.00" fill="#000000">warnings</text>
</a>
</g>
</g>
<!-- runFunction&#45;&gt;warnings -->
<g id="edge61" class="edge">
<title>runFunction&#45;&gt;warnings</title>
<path fill="none" stroke="#000000" d="M2240.8771,-907.2705C2220.2036,-858.5719 2174.9693,-740.121 2174.9693,-636 2174.9693,-636 2174.9693,-636 2174.9693,-484 2174.9693,-366.757 2056.096,-269.6685 1990.7752,-225.1687"/>
<polygon fill="#000000" stroke="#000000" points="1992.5711,-222.1589 1982.3164,-219.4959 1988.6721,-227.9726 1992.5711,-222.1589"/>
</g>
<!-- signatures -->
<g id="node23" class="node">
<title>signatures</title>
<g id="a_node23"><a xlink:href="signatures.md" xlink:title="signatures.md">
<ellipse fill="#eee8aa" stroke="#000000" cx="2732.9693" cy="-788" rx="80.2483" ry="22.7556"/>
<text text-anchor="middle" x="2732.9693" y="-780.8" font-family="Times,serif" font-size="24.00" fill="#000000">signatures</text>
</a>
</g>
</g>
<!-- runFunction&#45;&gt;signatures -->
<g id="edge79" class="edge">
<title>runFunction&#45;&gt;signatures</title>
<path fill="none" stroke="#000000" d="M2310.5554,-912.4456C2401.2932,-885.7137 2573.4683,-834.9899 2667.5577,-807.2706"/>
<polygon fill="#000000" stroke="#000000" points="2668.6432,-810.5996 2677.2465,-804.4163 2666.665,-803.885 2668.6432,-810.5996"/>
</g>
<!-- messages -->
<g id="node26" class="node">
<title>messages</title>
<g id="a_node26"><a xlink:href="messages.md" xlink:title="messages.md">
<polygon fill="#98fb98" stroke="#000000" points="2030.7081,-36.8581 2030.7081,-57.1419 1982.8266,-71.4846 1915.1119,-71.4846 1867.2304,-57.1419 1867.2304,-36.8581 1915.1119,-22.5154 1982.8266,-22.5154 2030.7081,-36.8581"/>
<polygon fill="none" stroke="#000000" points="2034.7138,-33.883 2034.7138,-60.117 1983.4146,-75.4835 1914.5239,-75.4835 1863.2247,-60.117 1863.2247,-33.883 1914.5239,-18.5165 1983.4146,-18.5165 2034.7138,-33.883"/>
<text text-anchor="middle" x="1948.9693" y="-39.8" font-family="Times,serif" font-size="24.00" fill="#000000">messages</text>
</a>
</g>
</g>
<!-- runFunction&#45;&gt;messages -->
<g id="edge60" class="edge">
<title>runFunction&#45;&gt;messages</title>
<path fill="none" stroke="#000000" d="M2342.7083,-924.4303C2551.6478,-910.8113 3048.7258,-872.7747 3097.9693,-816.4917 3116.1598,-795.7008 3082.1265,-679.5197 3079.9693,-664.4917 3058.0066,-511.4889 3096.363,-464.4982 3045.9693,-318.3726 3020.581,-244.7546 3017.8012,-212.1055 2951.9693,-170.5083 2802.4088,-76.0055 2266.02,-53.7486 2045.0994,-48.558"/>
<polygon fill="#000000" stroke="#000000" points="2044.8978,-45.0526 2034.8206,-48.3235 2044.7381,-52.0508 2044.8978,-45.0526"/>
</g>
<!-- matches -->
<g id="node27" class="node">
<title>matches</title>
<g id="a_node27"><a xlink:href="matches.md" xlink:title="matches.md">
<ellipse fill="#eee8aa" stroke="#000000" cx="1055.9693" cy="-636" rx="66.8311" ry="22.7556"/>
<text text-anchor="middle" x="1055.9693" y="-628.8" font-family="Times,serif" font-size="24.00" fill="#000000">matches</text>
</a>
</g>
</g>
<!-- runFunction&#45;&gt;matches -->
<g id="edge65" class="edge">
<title>runFunction&#45;&gt;matches</title>
<path fill="none" stroke="#000000" d="M2158.3942,-925.4241C1948.8894,-914.0544 1444.4998,-880.697 1287.9693,-816.4917 1203.0745,-781.6698 1122.9826,-706.7215 1082.8282,-665.1933"/>
<polygon fill="#000000" stroke="#000000" points="1085.2434,-662.6547 1075.8031,-657.8452 1080.1837,-667.492 1085.2434,-662.6547"/>
</g>
<!-- opresultid -->
<g id="node2" class="node">
<title>opresultid</title>
<g id="a_node2"><a xlink:href="opresultid.md" xlink:title="opresultid.md">
<ellipse fill="#eee8aa" stroke="#000000" cx="2939.9693" cy="-341" rx="79.3758" ry="22.7556"/>
<text text-anchor="middle" x="2939.9693" y="-333.8" font-family="Times,serif" font-size="24.00" fill="#000000">opresultid</text>
</a>
</g>
</g>
<!-- opresultid&#45;&gt;messages -->
<g id="edge66" class="edge">
<title>opresultid&#45;&gt;messages</title>
<path fill="none" stroke="#000000" d="M2936.9027,-318.1362C2930.5717,-280.6661 2912.3452,-206.7386 2863.9693,-170.5083 2736.1418,-74.7739 2252.9541,-53.2444 2045.0494,-48.4036"/>
<polygon fill="#000000" stroke="#000000" points="2044.8345,-44.898 2034.7584,-48.1725 2044.6772,-51.8962 2044.8345,-44.898"/>
</g>
<!-- opresult -->
<g id="node33" class="node">
<title>opresult</title>
<g id="a_node33"><a xlink:href="opresult.md" xlink:title="opresult.md">
<polygon fill="#98fb98" stroke="#000000" points="2818.3219,-188.8581 2818.3219,-209.1419 2776.5245,-223.4846 2717.4141,-223.4846 2675.6166,-209.1419 2675.6166,-188.8581 2717.4141,-174.5154 2776.5245,-174.5154 2818.3219,-188.8581"/>
<polygon fill="none" stroke="#000000" points="2822.3179,-186.0019 2822.3179,-211.9981 2777.1906,-227.4835 2716.748,-227.4835 2671.6207,-211.9981 2671.6207,-186.0019 2716.748,-170.5165 2777.1906,-170.5165 2822.3179,-186.0019"/>
<text text-anchor="middle" x="2746.9693" y="-191.8" font-family="Times,serif" font-size="24.00" fill="#000000">opresult</text>
</a>
</g>
</g>
<!-- opresultid&#45;&gt;opresult -->
<g id="edge67" class="edge">
<title>opresultid&#45;&gt;opresult</title>
<path fill="none" stroke="#000000" d="M2911.0752,-319.7412C2879.3999,-296.436 2828.1949,-258.7618 2791.4029,-231.6921"/>
<polygon fill="#000000" stroke="#000000" points="2793.4461,-228.8502 2783.3172,-225.743 2789.2977,-234.4885 2793.4461,-228.8502"/>
</g>
<!-- cmdline -->
<g id="node5" class="node">
<title>cmdline</title>
<g id="a_node5"><a xlink:href="cmdline.md" xlink:title="cmdline.md">
<polygon fill="#98fb98" stroke="#000000" points="481.3045,-473.8581 481.3045,-494.1419 439.5173,-508.4846 380.4213,-508.4846 338.6341,-494.1419 338.6341,-473.8581 380.4213,-459.5154 439.5173,-459.5154 481.3045,-473.8581"/>
<polygon fill="none" stroke="#000000" points="485.3,-471.0021 485.3,-496.9979 440.1834,-512.4835 379.7552,-512.4835 334.6386,-496.9979 334.6386,-471.0021 379.7552,-455.5165 440.1834,-455.5165 485.3,-471.0021"/>
<text text-anchor="middle" x="409.9693" y="-476.8" font-family="Times,serif" font-size="24.00" fill="#000000">cmdline</text>
</a>
</g>
</g>
<!-- parseCmdLine -->
<g id="node6" class="node">
<title>parseCmdLine</title>
<g id="a_node6"><a xlink:href="parseCmdLine.md" xlink:title="parseCmdLine.md">
<ellipse fill="#eee8aa" stroke="#000000" cx="749.9693" cy="-788" rx="111.4463" ry="22.7556"/>
<text text-anchor="middle" x="749.9693" y="-780.8" font-family="Times,serif" font-size="24.00" fill="#000000">parseCmdLine</text>
</a>
</g>
</g>
<!-- parseCmdLine&#45;&gt;regexes -->
<g id="edge25" class="edge">
<title>parseCmdLine&#45;&gt;regexes</title>
<path fill="none" stroke="#000000" d="M778.2477,-765.89C805.0774,-743.3262 844.4061,-705.8317 865.9693,-664.4917 889.5233,-619.3351 898.4776,-560.6209 901.8816,-522.6249"/>
<polygon fill="#000000" stroke="#000000" points="905.384,-522.7358 902.7021,-512.486 898.4068,-522.1711 905.384,-522.7358"/>
</g>
<!-- parseCmdLine&#45;&gt;warnings -->
<g id="edge28" class="edge">
<title>parseCmdLine&#45;&gt;warnings</title>
<path fill="none" stroke="#000000" d="M731.1035,-765.6643C704.6206,-731.4599 661.9893,-664.1143 683.9693,-607.5083 717.1051,-522.1721 743.9054,-501.651 822.9693,-455.5083 1005.3411,-349.0737 1649.9085,-244.1311 1872.6128,-210.2821"/>
<polygon fill="#000000" stroke="#000000" points="1873.2163,-213.7306 1882.5791,-208.772 1872.1676,-206.8096 1873.2163,-213.7306"/>
</g>
<!-- opresultwarn -->
<g id="node25" class="node">
<title>opresultwarn</title>
<g id="a_node25"><a xlink:href="opresultwarn.md" xlink:title="opresultwarn.md">
<ellipse fill="#eee8aa" stroke="#000000" cx="2340.9693" cy="-341" rx="99.824" ry="22.7556"/>
<text text-anchor="middle" x="2340.9693" y="-333.8" font-family="Times,serif" font-size="24.00" fill="#000000">opresultwarn</text>
</a>
</g>
</g>
<!-- parseCmdLine&#45;&gt;opresultwarn -->
<g id="edge29" class="edge">
<title>parseCmdLine&#45;&gt;opresultwarn</title>
<path fill="none" stroke="#000000" d="M775.3338,-765.8098C825.2875,-722.4999 935.4164,-629.0534 979.9693,-607.5083 1142.9122,-528.7115 1201.184,-559.4964 1375.9693,-512.4917 1461.5161,-489.4858 1480.4875,-474.7027 1566.9693,-455.5083 1805.4923,-402.5687 2090.9291,-367.4929 2239.6077,-351.3123"/>
<polygon fill="#000000" stroke="#000000" points="2240.0721,-354.7826 2249.6375,-350.2269 2239.3189,-347.8232 2240.0721,-354.7826"/>
</g>
<!-- parseCmdLine&#45;&gt;messages -->
<g id="edge26" class="edge">
<title>parseCmdLine&#45;&gt;messages</title>
<path fill="none" stroke="#000000" d="M676.1579,-771.0708C529.8415,-737.4932 216.9353,-665.5838 215.9693,-664.4917 162.5283,-604.0733 196.9693,-564.6618 196.9693,-484 196.9693,-484 196.9693,-484 196.9693,-341 196.9693,-171.6062 1487.2542,-76.431 1853.244,-52.8417"/>
<polygon fill="#000000" stroke="#000000" points="1853.5253,-56.331 1863.2807,-52.1979 1853.0771,-49.3453 1853.5253,-56.331"/>
</g>
<!-- parseCmdLine&#45;&gt;matches -->
<g id="edge27" class="edge">
<title>parseCmdLine&#45;&gt;matches</title>
<path fill="none" stroke="#000000" d="M792.196,-767.0246C848.9999,-738.8083 949.7106,-688.7821 1008.8946,-659.3835"/>
<polygon fill="#000000" stroke="#000000" points="1010.6247,-662.4322 1018.0236,-654.8488 1007.5106,-656.163 1010.6247,-662.4322"/>
</g>
<!-- env -->
<g id="node7" class="node">
<title>env</title>
<g id="a_node7"><a xlink:href="env.md" xlink:title="env.md">
<ellipse fill="#eee8aa" stroke="#000000" cx="546.9693" cy="-788" rx="35.6342" ry="22.7556"/>
<text text-anchor="middle" x="546.9693" y="-780.8" font-family="Times,serif" font-size="24.00" fill="#000000">env</text>
</a>
</g>
</g>
<!-- tempFile -->
<g id="node10" class="node">
<title>tempFile</title>
<g id="a_node10"><a xlink:href="tempFile.md" xlink:title="tempFile.md">
<polygon fill="#98fb98" stroke="#000000" points="852.5672,-625.8581 852.5672,-646.1419 807.1114,-660.4846 742.8272,-660.4846 697.3713,-646.1419 697.3713,-625.8581 742.8272,-611.5154 807.1114,-611.5154 852.5672,-625.8581"/>
<polygon fill="none" stroke="#000000" points="856.5697,-622.9275 856.5697,-649.0725 807.7284,-664.4835 742.2101,-664.4835 693.3689,-649.0725 693.3689,-622.9275 742.2101,-607.5165 807.7284,-607.5165 856.5697,-622.9275"/>
<text text-anchor="middle" x="774.9693" y="-628.8" font-family="Times,serif" font-size="24.00" fill="#000000">tempFile</text>
</a>
</g>
</g>
<!-- env&#45;&gt;tempFile -->
<g id="edge15" class="edge">
<title>env&#45;&gt;tempFile</title>
<path fill="none" stroke="#000000" d="M571.8033,-771.444C608.8538,-746.7436 679.3119,-699.7716 726.7197,-668.1664"/>
<polygon fill="#000000" stroke="#000000" points="728.9113,-670.9119 735.2903,-662.4526 725.0284,-665.0875 728.9113,-670.9119"/>
</g>
<!-- readlines -->
<g id="node14" class="node">
<title>readlines</title>
<g id="a_node14"><a xlink:href="readlines.md" xlink:title="readlines.md">
<polygon fill="#98fb98" stroke="#000000" points="1802.5586,-625.8581 1802.5586,-646.1419 1756.5221,-660.4846 1691.4165,-660.4846 1645.3799,-646.1419 1645.3799,-625.8581 1691.4165,-611.5154 1756.5221,-611.5154 1802.5586,-625.8581"/>
<polygon fill="none" stroke="#000000" points="1806.5609,-622.9163 1806.5609,-649.0837 1757.1316,-664.4835 1690.807,-664.4835 1641.3777,-649.0837 1641.3777,-622.9163 1690.807,-607.5165 1757.1316,-607.5165 1806.5609,-622.9163"/>
<text text-anchor="middle" x="1723.9693" y="-628.8" font-family="Times,serif" font-size="24.00" fill="#000000">readlines</text>
</a>
</g>
</g>
<!-- env&#45;&gt;readlines -->
<g id="edge19" class="edge">
<title>env&#45;&gt;readlines</title>
<path fill="none" stroke="#000000" d="M577.2541,-775.8217C592.782,-770.037 612.134,-763.5255 629.9693,-759.5083 820.2694,-716.6446 1402.5808,-663.6169 1630.8134,-643.8821"/>
<polygon fill="#000000" stroke="#000000" points="1631.4211,-647.3427 1641.0831,-642.9959 1630.8192,-640.3686 1631.4211,-647.3427"/>
</g>
<!-- env&#45;&gt;warnings -->
<g id="edge17" class="edge">
<title>env&#45;&gt;warnings</title>
<path fill="none" stroke="#000000" d="M553.0753,-765.6926C570.7409,-705.5246 627.7996,-538.837 737.9693,-455.5083 868.9097,-356.4692 922.2474,-360.3423 1080.9693,-318.3726 1363.3713,-243.6989 1710.5173,-213.8848 1866.3674,-203.6477"/>
<polygon fill="#000000" stroke="#000000" points="1866.6006,-207.1401 1876.3536,-203.0015 1866.1484,-200.1547 1866.6006,-207.1401"/>
</g>
<!-- args -->
<g id="node24" class="node">
<title>args</title>
<g id="a_node24"><a xlink:href="args.md" xlink:title="args.md">
<ellipse fill="#eee8aa" stroke="#000000" cx="1327.9693" cy="-484" rx="39.0784" ry="22.7556"/>
<text text-anchor="middle" x="1327.9693" y="-476.8" font-family="Times,serif" font-size="24.00" fill="#000000">args</text>
</a>
</g>
</g>
<!-- env&#45;&gt;args -->
<g id="edge18" class="edge">
<title>env&#45;&gt;args</title>
<path fill="none" stroke="#000000" d="M556.9288,-766.0557C575.7585,-727.2562 620.463,-646.9273 683.9693,-607.5083 784.5005,-545.1074 1146.3819,-502.6115 1278.8999,-488.8382"/>
<polygon fill="#000000" stroke="#000000" points="1279.5629,-492.2886 1289.1518,-487.7826 1278.8459,-485.3254 1279.5629,-492.2886"/>
</g>
<!-- env&#45;&gt;messages -->
<g id="edge16" class="edge">
<title>env&#45;&gt;messages</title>
<path fill="none" stroke="#000000" d="M512.1927,-782.2186C423.6929,-766.778 193.4976,-721.8204 144.9693,-664.4917 92.6844,-602.7254 120.9693,-564.9246 120.9693,-484 120.9693,-484 120.9693,-484 120.9693,-341 120.9693,-264.4788 88.9614,-222.6486 144.9693,-170.5083 207.9994,-111.8306 1488.6475,-62.9935 1853.019,-50.2452"/>
<polygon fill="#000000" stroke="#000000" points="1853.3993,-53.7342 1863.2712,-49.8876 1853.1553,-46.7384 1853.3993,-53.7342"/>
</g>
<!-- unicodes&#45;&gt;opresultid -->
<g id="edge68" class="edge">
<title>unicodes&#45;&gt;opresultid</title>
<path fill="none" stroke="#000000" d="M3013.045,-765.2187C3000.3651,-691.6096 2960.4589,-459.9461 2945.6092,-373.7409"/>
<polygon fill="#000000" stroke="#000000" points="2949.0326,-372.9961 2943.8857,-363.7355 2942.1342,-374.1845 2949.0326,-372.9961"/>
</g>
<!-- unicodes&#45;&gt;vartypes -->
<g id="edge74" class="edge">
<title>unicodes&#45;&gt;vartypes</title>
<path fill="none" stroke="#000000" d="M2983.711,-767.8055C2926.5412,-733.3781 2805.583,-661.7849 2699.9693,-607.5083 2626.035,-569.5122 2538.1598,-530.0648 2483.7172,-506.2699"/>
<polygon fill="#000000" stroke="#000000" points="2484.8481,-502.9448 2474.2826,-502.1568 2482.0506,-509.3616 2484.8481,-502.9448"/>
</g>
<!-- unicodes&#45;&gt;funtypes -->
<g id="edge73" class="edge">
<title>unicodes&#45;&gt;funtypes</title>
<path fill="none" stroke="#000000" d="M2971.1562,-770.4152C2897.8427,-742.2747 2754.4326,-687.2284 2675.7912,-657.0428"/>
<polygon fill="#000000" stroke="#000000" points="2676.6569,-653.6261 2666.0667,-653.3101 2674.1484,-660.1612 2676.6569,-653.6261"/>
</g>
<!-- utf8decoder -->
<g id="node16" class="node">
<title>utf8decoder</title>
<g id="a_node16"><a xlink:href="utf8decoder.md" xlink:title="utf8decoder.md">
<polygon fill="#98fb98" stroke="#000000" points="3292.8989,-625.8581 3292.8989,-646.1419 3234.3615,-660.4846 3151.5771,-660.4846 3093.0397,-646.1419 3093.0397,-625.8581 3151.5771,-611.5154 3234.3615,-611.5154 3292.8989,-625.8581"/>
<polygon fill="none" stroke="#000000" points="3296.8975,-622.7208 3296.8975,-649.2792 3234.8442,-664.4835 3151.0944,-664.4835 3089.0411,-649.2792 3089.0411,-622.7208 3151.0944,-607.5165 3234.8442,-607.5165 3296.8975,-622.7208"/>
<text text-anchor="middle" x="3192.9693" y="-628.8" font-family="Times,serif" font-size="24.00" fill="#000000">utf8decoder</text>
</a>
</g>
</g>
<!-- unicodes&#45;&gt;utf8decoder -->
<g id="edge72" class="edge">
<title>unicodes&#45;&gt;utf8decoder</title>
<path fill="none" stroke="#000000" d="M3041.8125,-766.5445C3070.41,-741.8467 3117.815,-700.906 3151.9182,-671.4532"/>
<polygon fill="#000000" stroke="#000000" points="3154.5667,-673.7905 3159.8473,-664.6054 3149.9913,-668.4927 3154.5667,-673.7905"/>
</g>
<!-- unicodes&#45;&gt;warnings -->
<g id="edge71" class="edge">
<title>unicodes&#45;&gt;warnings</title>
<path fill="none" stroke="#000000" d="M3000.4188,-765.9369C2942.2035,-690.0425 2737.875,-437.8462 2506.9693,-318.3726 2351.5247,-237.9435 2144.8797,-211.6728 2031.7326,-203.1146"/>
<polygon fill="#000000" stroke="#000000" points="2031.9753,-199.623 2021.7474,-202.3871 2031.4666,-206.6045 2031.9753,-199.623"/>
</g>
<!-- unicodes&#45;&gt;opresultwarn -->
<g id="edge69" class="edge">
<title>unicodes&#45;&gt;opresultwarn</title>
<path fill="none" stroke="#000000" d="M2987.5174,-767.1607C2897.6845,-703.5879 2633.0054,-516.2076 2628.9693,-512.4917 2604.6078,-490.0633 2607.1701,-475.7576 2580.9693,-455.5083 2527.7783,-414.3994 2457.4478,-383.0083 2406.6856,-363.5804"/>
<polygon fill="#000000" stroke="#000000" points="2407.7163,-360.2285 2397.1246,-359.9737 2405.2457,-366.778 2407.7163,-360.2285"/>
</g>
<!-- unicodes&#45;&gt;messages -->
<g id="edge70" class="edge">
<title>unicodes&#45;&gt;messages</title>
<path fill="none" stroke="#000000" d="M3019.7202,-765.2486C3029.3253,-682.9915 3059.1393,-401.5147 3027.9693,-318.3726 2997.3543,-236.711 2975.8634,-211.6567 2898.9693,-170.5083 2752.4358,-92.0936 2255.7153,-60.8392 2044.8748,-50.9014"/>
<polygon fill="#000000" stroke="#000000" points="2044.9006,-47.399 2034.7487,-50.4302 2044.5751,-54.3914 2044.9006,-47.399"/>
</g>
<!-- variables -->
<g id="node9" class="node">
<title>variables</title>
<g id="a_node9"><a xlink:href="variables.md" xlink:title="variables.md">
<ellipse fill="#eee8aa" stroke="#000000" cx="1369.9693" cy="-788" rx="72.6337" ry="22.7556"/>
<text text-anchor="middle" x="1369.9693" y="-780.8" font-family="Times,serif" font-size="24.00" fill="#000000">variables</text>
</a>
</g>
</g>
<!-- variables&#45;&gt;vartypes -->
<g id="edge49" class="edge">
<title>variables&#45;&gt;vartypes</title>
<path fill="none" stroke="#000000" d="M1400.4841,-767.3719C1436.5362,-742.9557 1498.2798,-700.9993 1550.9693,-664.4917 1587.1492,-639.4234 1591.1444,-623.9623 1631.9693,-607.5083 1763.0442,-554.68 2181.9277,-508.6285 2355.5044,-491.3113"/>
<polygon fill="#000000" stroke="#000000" points="2355.976,-494.7818 2365.5813,-490.3108 2355.2843,-487.8161 2355.976,-494.7818"/>
</g>
<!-- variables&#45;&gt;warnings -->
<g id="edge52" class="edge">
<title>variables&#45;&gt;warnings</title>
<path fill="none" stroke="#000000" d="M1384.3744,-765.6192C1399.3518,-741.4952 1422.5797,-701.5593 1436.9693,-664.4917 1494.3314,-516.727 1412.5623,-432.1053 1522.9693,-318.3726 1571.4118,-268.4709 1764.4985,-229.4338 1873.3427,-210.8619"/>
<polygon fill="#000000" stroke="#000000" points="1874.006,-214.2996 1883.2833,-209.1827 1872.84,-207.3974 1874.006,-214.2996"/>
</g>
<!-- variables&#45;&gt;args -->
<g id="edge53" class="edge">
<title>variables&#45;&gt;args</title>
<path fill="none" stroke="#000000" d="M1370.3664,-765.3327C1370.6248,-730.9778 1369.786,-663.7659 1360.9693,-607.5083 1356.016,-575.9026 1346.1788,-540.7329 1338.5278,-516.0324"/>
<polygon fill="#000000" stroke="#000000" points="1341.8534,-514.9404 1335.5083,-506.4557 1335.1774,-517.0454 1341.8534,-514.9404"/>
</g>
<!-- variables&#45;&gt;opresultwarn -->
<g id="edge54" class="edge">
<title>variables&#45;&gt;opresultwarn</title>
<path fill="none" stroke="#000000" d="M1389.2435,-765.9419C1410.5398,-741.4289 1445.6976,-700.5417 1474.9693,-664.4917 1549.0478,-573.2593 1535.9488,-515.557 1636.9693,-455.5083 1736.2456,-396.4963 2064.6212,-362.6865 2235.5213,-348.6831"/>
<polygon fill="#000000" stroke="#000000" points="2235.8598,-352.1672 2245.5439,-347.8697 2235.2935,-345.1901 2235.8598,-352.1672"/>
</g>
<!-- variables&#45;&gt;messages -->
<g id="edge51" class="edge">
<title>variables&#45;&gt;messages</title>
<path fill="none" stroke="#000000" d="M1373.1065,-765.1654C1384.9788,-681.3613 1429.2679,-391.7913 1483.9693,-318.3726 1583.7496,-184.4502 1770.7586,-105.2765 1874.6311,-69.6651"/>
<polygon fill="#000000" stroke="#000000" points="1875.7607,-72.9779 1884.1111,-66.4569 1873.5168,-66.3473 1875.7607,-72.9779"/>
</g>
<!-- version -->
<g id="node28" class="node">
<title>version</title>
<g id="a_node28"><a xlink:href="version.md" xlink:title="version.md">
<polygon fill="#98fb98" stroke="#000000" points="1315.1216,-625.8581 1315.1216,-646.1419 1276.3705,-660.4846 1221.5681,-660.4846 1182.817,-646.1419 1182.817,-625.8581 1221.5681,-611.5154 1276.3705,-611.5154 1315.1216,-625.8581"/>
<polygon fill="none" stroke="#000000" points="1319.1114,-623.0721 1319.1114,-648.9279 1277.0836,-664.4835 1220.8549,-664.4835 1178.8272,-648.9279 1178.8272,-623.0721 1220.8549,-607.5165 1277.0836,-607.5165 1319.1114,-623.0721"/>
<text text-anchor="middle" x="1248.9693" y="-628.8" font-family="Times,serif" font-size="24.00" fill="#000000">version</text>
</a>
</g>
</g>
<!-- variables&#45;&gt;version -->
<g id="edge50" class="edge">
<title>variables&#45;&gt;version</title>
<path fill="none" stroke="#000000" d="M1352.3748,-765.8979C1332.9034,-741.4378 1301.2157,-701.6319 1278.043,-672.5223"/>
<polygon fill="#000000" stroke="#000000" points="1280.7166,-670.2611 1271.7501,-664.6172 1275.2399,-674.6208 1280.7166,-670.2611"/>
</g>
<!-- vartypes&#45;&gt;warnings -->
<g id="edge43" class="edge">
<title>vartypes&#45;&gt;warnings</title>
<path fill="none" stroke="#000000" d="M2443.528,-461.4106C2459.4803,-426.699 2482.7741,-359.9122 2449.9693,-318.3726 2398.51,-253.2117 2158.0351,-219.7687 2029.8784,-206.3175"/>
<polygon fill="#000000" stroke="#000000" points="2030.0263,-202.8142 2019.7196,-205.2684 2029.3072,-209.7772 2030.0263,-202.8142"/>
</g>
<!-- vartypes&#45;&gt;opresultwarn -->
<g id="edge44" class="edge">
<title>vartypes&#45;&gt;opresultwarn</title>
<path fill="none" stroke="#000000" d="M2417.7505,-461.6563C2402.4808,-437.661 2378.1009,-399.3497 2360.9168,-372.346"/>
<polygon fill="#000000" stroke="#000000" points="2363.7101,-370.2163 2355.3885,-363.6588 2357.8045,-373.9745 2363.7101,-370.2163"/>
</g>
<!-- vartypes&#45;&gt;messages -->
<g id="edge42" class="edge">
<title>vartypes&#45;&gt;messages</title>
<path fill="none" stroke="#000000" d="M2447.2448,-461.7404C2468.0921,-428.3314 2499.8529,-364.2545 2471.9693,-318.3726 2377.5716,-163.0431 2162.2519,-92.602 2039.3503,-64.0407"/>
<polygon fill="#000000" stroke="#000000" points="2040.1007,-60.622 2029.5728,-61.8116 2038.5446,-67.4469 2040.1007,-60.622"/>
</g>
<!-- codefile -->
<g id="node12" class="node">
<title>codefile</title>
<g id="a_node12"><a xlink:href="codefile.md" xlink:title="codefile.md">
<ellipse fill="#eee8aa" stroke="#000000" cx="1650.9693" cy="-1196" rx="65.069" ry="22.7556"/>
<text text-anchor="middle" x="1650.9693" y="-1188.8" font-family="Times,serif" font-size="24.00" fill="#000000">codefile</text>
</a>
</g>
</g>
<!-- codefile&#45;&gt;env -->
<g id="edge111" class="edge">
<title>codefile&#45;&gt;env</title>
<path fill="none" stroke="#000000" d="M1588.891,-1189.1232C1387.9751,-1165.7311 759.7776,-1083.3543 609.9693,-952.6274 571.0836,-918.6947 556.0908,-858.0254 550.3865,-820.5718"/>
<polygon fill="#000000" stroke="#000000" points="553.8532,-820.0891 549.0118,-810.6651 546.9196,-821.0513 553.8532,-820.0891"/>
</g>
<!-- codefile&#45;&gt;variables -->
<g id="edge116" class="edge">
<title>codefile&#45;&gt;variables</title>
<path fill="none" stroke="#000000" d="M1635.6619,-1173.7744C1588.5181,-1105.3235 1445.4415,-897.5825 1391.1602,-818.7683"/>
<polygon fill="#000000" stroke="#000000" points="1393.8452,-816.4962 1385.2905,-810.2457 1388.0802,-820.4667 1393.8452,-816.4962"/>
</g>
<!-- codefile&#45;&gt;vartypes -->
<g id="edge117" class="edge">
<title>codefile&#45;&gt;vartypes</title>
<path fill="none" stroke="#000000" d="M1711.1439,-1187.4132C1842.4907,-1166.3451 2160.5767,-1102.4842 2378.9693,-952.6274 2443.8058,-908.1379 2465.2724,-890.4537 2491.9693,-816.4917 2500.5678,-792.6701 2498.9156,-783.863 2491.9693,-759.5083 2478.3353,-711.706 2446.7356,-712.256 2432.9693,-664.4917 2418.594,-614.6146 2422.4035,-553.7145 2426.8831,-516.9396"/>
<polygon fill="#000000" stroke="#000000" points="2430.3843,-517.1581 2428.2125,-506.7883 2423.4436,-516.2491 2430.3843,-517.1581"/>
</g>
<!-- codefile&#45;&gt;readlines -->
<g id="edge114" class="edge">
<title>codefile&#45;&gt;readlines</title>
<path fill="none" stroke="#000000" d="M1649.9008,-1173.1768C1648.9131,-1150.8619 1647.518,-1115.9181 1646.9693,-1085.6274 1645.5344,-1006.416 1636.0523,-985.8412 1646.9693,-907.3726 1658.8247,-822.1584 1690.6702,-726.1025 1709.4866,-674.2146"/>
<polygon fill="#000000" stroke="#000000" points="1712.8014,-675.3411 1712.9535,-664.7474 1706.2282,-672.934 1712.8014,-675.3411"/>
</g>
<!-- codefile&#45;&gt;utf8decoder -->
<g id="edge119" class="edge">
<title>codefile&#45;&gt;utf8decoder</title>
<path fill="none" stroke="#000000" d="M1714.7956,-1191.2365C1956.9538,-1172.2068 2816.7689,-1095.6597 3044.9693,-952.6274 3112.0797,-910.5637 3126.1521,-888.1127 3159.9693,-816.4917 3181.539,-770.8095 3189.0486,-712.4595 3191.6405,-674.6684"/>
<polygon fill="#000000" stroke="#000000" points="3195.1404,-674.7747 3192.2488,-664.5821 3188.1531,-674.3533 3195.1404,-674.7747"/>
</g>
<!-- codefile&#45;&gt;warnings -->
<g id="edge118" class="edge">
<title>codefile&#45;&gt;warnings</title>
<path fill="none" stroke="#000000" d="M1653.2182,-1173.338C1656.5283,-1142.8251 1663.5819,-1086.9799 1674.9693,-1040.3726 1689.7803,-979.7528 1698.4934,-965.9636 1719.9693,-907.3726 1759.9158,-798.3896 1779.5169,-774.6926 1815.9693,-664.4917 1865.9927,-513.2635 1862.9768,-470.8752 1908.9693,-318.3726 1917.9151,-288.71 1929.2179,-255.2972 1937.5249,-231.3818"/>
<polygon fill="#000000" stroke="#000000" points="1940.8949,-232.3472 1940.8859,-221.7524 1934.2859,-230.0404 1940.8949,-232.3472"/>
</g>
<!-- codefile&#45;&gt;opresultwarn -->
<g id="edge113" class="edge">
<title>codefile&#45;&gt;opresultwarn</title>
<path fill="none" stroke="#000000" d="M1655.8199,-1173.1374C1671.1682,-1104.7959 1723.8049,-898.2113 1825.9693,-759.5083 1961.2999,-575.7773 2195.5038,-425.8283 2294.5749,-367.3701"/>
<polygon fill="#000000" stroke="#000000" points="2296.5958,-370.2424 2303.4512,-362.1644 2293.0546,-364.2042 2296.5958,-370.2424"/>
</g>
<!-- codefile&#45;&gt;messages -->
<g id="edge112" class="edge">
<title>codefile&#45;&gt;messages</title>
<path fill="none" stroke="#000000" d="M1586.523,-1192.2668C1286.9449,-1174.0743 44.9693,-1089.0609 44.9693,-930 44.9693,-930 44.9693,-930 44.9693,-341 44.9693,-264.2108 16.1016,-222.1091 72.9693,-170.5083 139.4995,-110.1398 1479.4271,-62.2483 1853.0106,-50.0306"/>
<polygon fill="#000000" stroke="#000000" points="1853.3689,-53.5209 1863.2495,-49.6968 1853.1407,-46.5246 1853.3689,-53.5209"/>
</g>
<!-- runCommand -->
<g id="node34" class="node">
<title>runCommand</title>
<g id="a_node34"><a xlink:href="runCommand.md" xlink:title="runCommand.md">
<ellipse fill="#eee8aa" stroke="#000000" cx="1869.9693" cy="-1063" rx="104.7872" ry="22.7556"/>
<text text-anchor="middle" x="1869.9693" y="-1055.8" font-family="Times,serif" font-size="24.00" fill="#000000">runCommand</text>
</a>
</g>
</g>
<!-- codefile&#45;&gt;runCommand -->
<g id="edge115" class="edge">
<title>codefile&#45;&gt;runCommand</title>
<path fill="none" stroke="#000000" d="M1683.7558,-1176.0886C1721.6317,-1153.0863 1784.1165,-1115.1389 1826.139,-1089.6184"/>
<polygon fill="#000000" stroke="#000000" points="1828.0489,-1092.5534 1834.7793,-1084.3711 1824.4153,-1086.5704 1828.0489,-1092.5534"/>
</g>
<!-- replacement -->
<g id="node13" class="node">
<title>replacement</title>
<g id="a_node13"><a xlink:href="replacement.md" xlink:title="replacement.md">
<ellipse fill="#eee8aa" stroke="#000000" cx="1036.9693" cy="-930" rx="94.4556" ry="22.7556"/>
<text text-anchor="middle" x="1036.9693" y="-922.8" font-family="Times,serif" font-size="24.00" fill="#000000">replacement</text>
</a>
</g>
</g>
<!-- replacement&#45;&gt;parseNumber -->
<g id="edge107" class="edge">
<title>replacement&#45;&gt;parseNumber</title>
<path fill="none" stroke="#000000" d="M1116.5171,-917.7086C1279.8349,-892.4734 1653.4389,-834.7457 1842.2641,-805.5692"/>
<polygon fill="#000000" stroke="#000000" points="1842.8719,-809.0169 1852.2202,-804.0309 1841.8029,-802.099 1842.8719,-809.0169"/>
</g>
<!-- replacement&#45;&gt;regexes -->
<g id="edge98" class="edge">
<title>replacement&#45;&gt;regexes</title>
<path fill="none" stroke="#000000" d="M1030.1909,-907.2696C1008.7577,-835.3958 942.2869,-612.4937 915.415,-522.3818"/>
<polygon fill="#000000" stroke="#000000" points="918.7012,-521.1539 912.4894,-512.5711 911.9931,-523.1543 918.7012,-521.1539"/>
</g>
<!-- replacement&#45;&gt;parseCmdLine -->
<g id="edge101" class="edge">
<title>replacement&#45;&gt;parseCmdLine</title>
<path fill="none" stroke="#000000" d="M995.5435,-909.5036C944.3301,-884.1646 857.1533,-841.0318 801.6242,-813.5575"/>
<polygon fill="#000000" stroke="#000000" points="802.8328,-810.2505 792.3177,-808.9529 799.7285,-816.5246 802.8328,-810.2505"/>
</g>
<!-- replacement&#45;&gt;env -->
<g id="edge99" class="edge">
<title>replacement&#45;&gt;env</title>
<path fill="none" stroke="#000000" d="M967.6615,-914.4877C861.5703,-890.3436 664.138,-843.7261 596.9693,-816.4917 591.7612,-814.38 586.4278,-811.8208 581.2757,-809.1126"/>
<polygon fill="#000000" stroke="#000000" points="582.7104,-805.9069 572.2637,-804.1414 579.3294,-812.0362 582.7104,-805.9069"/>
</g>
<!-- replacement&#45;&gt;variables -->
<g id="edge105" class="edge">
<title>replacement&#45;&gt;variables</title>
<path fill="none" stroke="#000000" d="M1083.2715,-910.2555C1144.7205,-884.052 1252.9399,-837.9044 1317.3949,-810.4191"/>
<polygon fill="#000000" stroke="#000000" points="1319.1373,-813.4811 1326.963,-806.339 1316.3915,-807.0421 1319.1373,-813.4811"/>
</g>
<!-- replacement&#45;&gt;tempFile -->
<g id="edge106" class="edge">
<title>replacement&#45;&gt;tempFile</title>
<path fill="none" stroke="#000000" d="M1016.8456,-907.4185C971.6858,-856.7429 861.9524,-733.607 807.1793,-672.1441"/>
<polygon fill="#000000" stroke="#000000" points="809.7285,-669.7439 800.4624,-664.6068 804.5025,-674.4011 809.7285,-669.7439"/>
</g>
<!-- replacement&#45;&gt;vartypes -->
<g id="edge100" class="edge">
<title>replacement&#45;&gt;vartypes</title>
<path fill="none" stroke="#000000" d="M1114.2555,-917.0426C1217.2973,-898.911 1404.8305,-862.9143 1560.9693,-816.4917 1644.3297,-791.7073 2201.6183,-574.1917 2378.3235,-505.0221"/>
<polygon fill="#000000" stroke="#000000" points="2379.6493,-508.2618 2387.6851,-501.357 2377.0974,-501.7435 2379.6493,-508.2618"/>
</g>
<!-- replacement&#45;&gt;readlines -->
<g id="edge102" class="edge">
<title>replacement&#45;&gt;readlines</title>
<path fill="none" stroke="#000000" d="M1116.5005,-917.6848C1236.0782,-898.1318 1455.3847,-857.9377 1522.9693,-816.4917 1551.1978,-799.1808 1547.311,-782.6773 1570.9693,-759.5083 1604.6643,-726.51 1646.5508,-693.1574 1677.9741,-669.4432"/>
<polygon fill="#000000" stroke="#000000" points="1680.2338,-672.1236 1686.1343,-663.3239 1676.0341,-666.5233 1680.2338,-672.1236"/>
</g>
<!-- replacement&#45;&gt;opresultwarn -->
<g id="edge108" class="edge">
<title>replacement&#45;&gt;opresultwarn</title>
<path fill="none" stroke="#000000" d="M1123.9984,-921.2403C1212.3663,-909.0529 1350.2957,-880.7154 1451.9693,-816.4917 1555.6092,-751.026 1540.2068,-688.7895 1631.9693,-607.5083 1722.8584,-527.0006 1747.6938,-504.089 1858.9693,-455.5083 1985.855,-400.1123 2143.7454,-369.1071 2243.4807,-353.7217"/>
<polygon fill="#000000" stroke="#000000" points="2244.1867,-357.1547 2253.5471,-352.1915 2243.1346,-350.2342 2244.1867,-357.1547"/>
</g>
<!-- replacement&#45;&gt;messages -->
<g id="edge104" class="edge">
<title>replacement&#45;&gt;messages</title>
<path fill="none" stroke="#000000" d="M969.8226,-913.989C861.5589,-887.7721 657.6967,-836.5946 629.9693,-816.4917 605.3243,-798.6237 616.9942,-776.8402 591.9693,-759.5083 438.9088,-653.5007 309.4863,-802.0075 183.9693,-664.4917 129.3737,-604.6771 158.9693,-564.9844 158.9693,-484 158.9693,-484 158.9693,-484 158.9693,-341 158.9693,-310.7905 75.3019,-284.6342 410.9693,-170.5083 680.0977,-79.0053 1560.0617,-54.3335 1853.0786,-48.5721"/>
<polygon fill="#000000" stroke="#000000" points="1853.3222,-52.0681 1863.2525,-48.375 1853.1866,-45.0694 1853.3222,-52.0681"/>
</g>
<!-- replacement&#45;&gt;matches -->
<g id="edge103" class="edge">
<title>replacement&#45;&gt;matches</title>
<path fill="none" stroke="#000000" d="M1038.4602,-906.9303C1041.8108,-855.0843 1049.9464,-729.1969 1053.8331,-669.0544"/>
<polygon fill="#000000" stroke="#000000" points="1057.333,-669.1675 1054.4853,-658.9625 1050.3476,-668.716 1057.333,-669.1675"/>
</g>
<!-- funtypes&#45;&gt;vartypes -->
<g id="edge56" class="edge">
<title>funtypes&#45;&gt;vartypes</title>
<path fill="none" stroke="#000000" d="M2594.6896,-614.8651C2561.1196,-587.8669 2502.9556,-541.0895 2466.0216,-511.386"/>
<polygon fill="#000000" stroke="#000000" points="2468.0118,-508.4951 2458.0257,-504.9554 2463.6248,-513.9499 2468.0118,-508.4951"/>
</g>
<!-- funtypes&#45;&gt;warnings -->
<g id="edge58" class="edge">
<title>funtypes&#45;&gt;warnings</title>
<path fill="none" stroke="#000000" d="M2617.3187,-613.3933C2606.6141,-554.7971 2569.6693,-397.1023 2471.9693,-318.3726 2404.1871,-263.7517 2156.5191,-225.249 2027.8228,-208.4501"/>
<polygon fill="#000000" stroke="#000000" points="2028.0009,-204.9441 2017.6347,-207.1332 2027.1035,-211.8864 2028.0009,-204.9441"/>
</g>
<!-- funtypes&#45;&gt;messages -->
<g id="edge57" class="edge">
<title>funtypes&#45;&gt;messages</title>
<path fill="none" stroke="#000000" d="M2621.0906,-613.0996C2620.509,-577.8658 2616.2918,-508.8491 2593.9693,-455.5083 2531.6681,-306.6358 2503.6518,-259.4187 2368.9693,-170.5083 2269.6209,-104.9235 2134.6201,-73.3586 2044.783,-58.7356"/>
<polygon fill="#000000" stroke="#000000" points="2045.2997,-55.2739 2034.8744,-57.1616 2044.2014,-62.1872 2045.2997,-55.2739"/>
</g>
<!-- warnings&#45;&gt;messages -->
<g id="edge2" class="edge">
<title>warnings&#45;&gt;messages</title>
<path fill="none" stroke="#ff0000" d="M1948.9693,-176.2441C1948.9693,-152.3458 1948.9693,-114.3321 1948.9693,-85.7049"/>
<polygon fill="#ff0000" stroke="#ff0000" points="1952.4694,-85.6263 1948.9693,-75.6263 1945.4694,-85.6263 1952.4694,-85.6263"/>
</g>
<!-- collectCommand -->
<g id="node18" class="node">
<title>collectCommand</title>
<g id="a_node18"><a xlink:href="collectCommand.md" xlink:title="collectCommand.md">
<ellipse fill="#eee8aa" stroke="#000000" cx="797.9693" cy="-930" rx="127.4982" ry="22.7556"/>
<text text-anchor="middle" x="797.9693" y="-922.8" font-family="Times,serif" font-size="24.00" fill="#000000">collectCommand</text>
</a>
</g>
</g>
<!-- collectCommand&#45;&gt;parseCmdLine -->
<g id="edge34" class="edge">
<title>collectCommand&#45;&gt;parseCmdLine</title>
<path fill="none" stroke="#000000" d="M790.2573,-907.1852C782.3146,-883.6883 769.8657,-846.8601 760.9078,-820.3597"/>
<polygon fill="#000000" stroke="#000000" points="764.1802,-819.1107 757.6622,-810.7581 757.5488,-821.3524 764.1802,-819.1107"/>
</g>
<!-- collectCommand&#45;&gt;env -->
<g id="edge31" class="edge">
<title>collectCommand&#45;&gt;env</title>
<path fill="none" stroke="#000000" d="M759.4112,-908.2839C718.9297,-885.471 653.4386,-848.5253 596.9693,-816.4917 592.3622,-813.8782 587.5189,-811.1253 582.7348,-808.4027"/>
<polygon fill="#000000" stroke="#000000" points="584.1073,-805.1566 573.6856,-803.2492 580.6432,-811.2394 584.1073,-805.1566"/>
</g>
<!-- collectCommand&#45;&gt;readlines -->
<g id="edge33" class="edge">
<title>collectCommand&#45;&gt;readlines</title>
<path fill="none" stroke="#000000" d="M890.8703,-914.5243C1068.3573,-884.8703 1439.2848,-822.4373 1451.9693,-816.4917 1487.3651,-799.9008 1487.2338,-782.3332 1518.9693,-759.5083 1567.9394,-724.2877 1627.2941,-689.2948 1669.5074,-665.5977"/>
<polygon fill="#000000" stroke="#000000" points="1671.2221,-668.6491 1678.2452,-660.7165 1667.8081,-662.538 1671.2221,-668.6491"/>
</g>
<!-- collectCommand&#45;&gt;opresultwarn -->
<g id="edge36" class="edge">
<title>collectCommand&#45;&gt;opresultwarn</title>
<path fill="none" stroke="#000000" d="M840.9144,-908.5067C931.1339,-863.3488 1146.9829,-755.2856 1327.9693,-664.4917 1512.9103,-571.714 1548.06,-522.0698 1743.9693,-455.5083 1913.2064,-398.0087 2119.8143,-366.4715 2240.2732,-351.7111"/>
<polygon fill="#000000" stroke="#000000" points="2240.7187,-355.1828 2250.2253,-350.5058 2239.8771,-348.2335 2240.7187,-355.1828"/>
</g>
<!-- collectCommand&#45;&gt;messages -->
<g id="edge35" class="edge">
<title>collectCommand&#45;&gt;messages</title>
<path fill="none" stroke="#000000" d="M683.5303,-920.0814C528.3192,-900.1296 254.1682,-840.6113 111.9693,-664.4917 60.9297,-601.277 82.9693,-565.2474 82.9693,-484 82.9693,-484 82.9693,-484 82.9693,-341 82.9693,-264.2816 53.3357,-222.2611 109.9693,-170.5083 174.8747,-111.1964 1484.2015,-62.6799 1853.0292,-50.1499"/>
<polygon fill="#000000" stroke="#000000" points="1853.2656,-53.644 1863.1413,-49.8074 1853.0286,-46.6481 1853.2656,-53.644"/>
</g>
<!-- collectCommand&#45;&gt;matches -->
<g id="edge32" class="edge">
<title>collectCommand&#45;&gt;matches</title>
<path fill="none" stroke="#000000" d="M817.7857,-907.4185C863.8781,-854.8946 978.2812,-724.5283 1029.9311,-665.6715"/>
<polygon fill="#000000" stroke="#000000" points="1032.8237,-667.6815 1036.789,-657.8567 1027.5623,-663.0644 1032.8237,-667.6815"/>
</g>
<!-- runner -->
<g id="node19" class="node">
<title>runner</title>
<g id="a_node19"><a xlink:href="runner.md" xlink:title="runner.md">
<polygon fill="#98fb98" stroke="#000000" points="1346.3301,-1479.8581 1346.3301,-1500.1419 1310.9715,-1514.4846 1260.967,-1514.4846 1225.6085,-1500.1419 1225.6085,-1479.8581 1260.967,-1465.5154 1310.9715,-1465.5154 1346.3301,-1479.8581"/>
<polygon fill="none" stroke="#000000" points="1350.3417,-1477.1681 1350.3417,-1502.8319 1311.7565,-1518.4835 1260.182,-1518.4835 1221.5969,-1502.8319 1221.5969,-1477.1681 1260.182,-1461.5165 1311.7565,-1461.5165 1350.3417,-1477.1681"/>
<text text-anchor="middle" x="1285.9693" y="-1482.8" font-family="Times,serif" font-size="24.00" fill="#000000">runner</text>
</a>
</g>
</g>
<!-- statictea -->
<g id="node20" class="node">
<title>statictea</title>
<g id="a_node20"><a xlink:href="statictea.md" xlink:title="statictea.md">
<polygon fill="#eee8aa" stroke="#000000" points="1038.0651,-1481.3667 1120.9693,-1462.0619 1203.8735,-1481.3667 1203.7961,-1512.6024 1038.1424,-1512.6024 1038.0651,-1481.3667"/>
<text text-anchor="middle" x="1120.9693" y="-1482.8" font-family="Times,serif" font-size="24.00" fill="#000000">statictea</text>
</a>
</g>
</g>
<!-- statictea&#45;&gt;env -->
<g id="edge126" class="edge">
<title>statictea&#45;&gt;env</title>
<path fill="none" stroke="#000000" d="M1038.0477,-1486.7572C874.7857,-1478.5623 520.4375,-1451.2267 438.9693,-1366.4917 385.9344,-1311.3302 414.9693,-1272.5212 414.9693,-1196 414.9693,-1196 414.9693,-1196 414.9693,-1063 414.9693,-964.3317 484.8862,-863.6221 522.9509,-816.1045"/>
<polygon fill="#000000" stroke="#000000" points="525.8416,-818.0974 529.4407,-808.1326 520.413,-813.678 525.8416,-818.0974"/>
</g>
<!-- gethelp -->
<g id="node21" class="node">
<title>gethelp</title>
<g id="a_node21"><a xlink:href="gethelp.md" xlink:title="gethelp.md">
<polygon fill="#98fb98" stroke="#000000" points="383.1042,-1327.8581 383.1042,-1348.1419 344.3633,-1362.4846 289.5753,-1362.4846 250.8344,-1348.1419 250.8344,-1327.8581 289.5753,-1313.5154 344.3633,-1313.5154 383.1042,-1327.8581"/>
<polygon fill="none" stroke="#000000" points="387.0935,-1325.0722 387.0935,-1350.9278 345.0764,-1366.4835 288.8621,-1366.4835 246.8451,-1350.9278 246.8451,-1325.0722 288.8621,-1309.5165 345.0764,-1309.5165 387.0935,-1325.0722"/>
<text text-anchor="middle" x="316.9693" y="-1330.8" font-family="Times,serif" font-size="24.00" fill="#000000">gethelp</text>
</a>
</g>
</g>
<!-- statictea&#45;&gt;gethelp -->
<g id="edge124" class="edge">
<title>statictea&#45;&gt;gethelp</title>
<path fill="none" stroke="#000000" d="M1041.545,-1480.5279C907.9554,-1463.6746 630.3904,-1424.6934 400.9693,-1366.4917 393.9911,-1364.7215 386.7603,-1362.6476 379.6018,-1360.44"/>
<polygon fill="#000000" stroke="#000000" points="380.506,-1357.0549 369.9156,-1357.3628 378.3865,-1363.7263 380.506,-1357.0549"/>
</g>
<!-- statictea&#45;&gt;args -->
<g id="edge122" class="edge">
<title>statictea&#45;&gt;args</title>
<path fill="none" stroke="#000000" d="M1122.5229,-1462.2841C1124.8297,-1426.6856 1130.0028,-1363.0991 1139.9693,-1309.5083 1186.253,-1060.6356 1205.7825,-998.9349 1287.9693,-759.5083 1302.8453,-716.1713 1318.901,-709.4045 1327.9693,-664.4917 1338.2141,-613.7517 1335.2373,-553.3396 1331.8364,-516.8658"/>
<polygon fill="#000000" stroke="#000000" points="1335.3072,-516.3986 1330.8291,-506.7967 1328.3419,-517.0954 1335.3072,-516.3986"/>
</g>
<!-- statictea&#45;&gt;opresultwarn -->
<g id="edge127" class="edge">
<title>statictea&#45;&gt;opresultwarn</title>
<path fill="none" stroke="#000000" d="M1169.235,-1473.2478C1183.2082,-1468.8917 1198.5769,-1464.5687 1212.9693,-1461.5083 1456.6085,-1409.7006 3438.9693,-1445.0865 3438.9693,-1196 3438.9693,-1196 3438.9693,-1196 3438.9693,-930 3438.9693,-780.1985 3437.598,-721.9782 3340.9693,-607.5083 3243.5295,-492.0775 3180.6722,-502.0725 3036.9693,-455.5083 2834.1031,-389.7733 2585.1733,-360.4834 2446.721,-348.4731"/>
<polygon fill="#000000" stroke="#000000" points="2446.7982,-344.9671 2436.5367,-347.6036 2446.2027,-351.9417 2446.7982,-344.9671"/>
</g>
<!-- statictea&#45;&gt;messages -->
<g id="edge123" class="edge">
<title>statictea&#45;&gt;messages</title>
<path fill="none" stroke="#000000" d="M1168.1614,-1472.9131C1182.3825,-1468.4394 1198.1522,-1464.1374 1212.9693,-1461.5083 2030.1679,-1316.5028 2266.9656,-1542.8807 3077.9693,-1366.4917 3266.4079,-1325.5073 3476.9693,-1388.844 3476.9693,-1196 3476.9693,-1196 3476.9693,-1196 3476.9693,-341 3476.9693,-297.0645 3787.4844,-380.6926 3268.9693,-170.5083 3046.5006,-80.3288 2310.2234,-55.1088 2045.1341,-48.8604"/>
<polygon fill="#000000" stroke="#000000" points="2044.8427,-45.3528 2034.7642,-48.62 2044.6804,-52.3509 2044.8427,-45.3528"/>
</g>
<!-- statictea&#45;&gt;version -->
<g id="edge125" class="edge">
<title>statictea&#45;&gt;version</title>
<path fill="none" stroke="#000000" d="M1083.0079,-1470.58C948.175,-1399.0146 508.4389,-1141.9997 661.9693,-907.3726 717.2079,-822.9561 778.1939,-858.3811 869.9693,-816.4917 986.3209,-763.385 1121.2573,-698.2693 1194.6192,-662.5666"/>
<polygon fill="#000000" stroke="#000000" points="1196.2299,-665.6753 1203.6881,-658.1503 1193.1651,-659.3819 1196.2299,-665.6753"/>
</g>
<!-- timer -->
<g id="node30" class="node">
<title>timer</title>
<g id="a_node30"><a xlink:href="timer.md" xlink:title="timer.md">
<polygon fill="#98fb98" stroke="#000000" points="1522.9895,-1327.8581 1522.9895,-1348.1419 1493.1026,-1362.4846 1450.836,-1362.4846 1420.949,-1348.1419 1420.949,-1327.8581 1450.836,-1313.5154 1493.1026,-1313.5154 1522.9895,-1327.8581"/>
<polygon fill="none" stroke="#000000" points="1526.9903,-1325.3422 1526.9903,-1350.6578 1494.0132,-1366.4835 1449.9253,-1366.4835 1416.9483,-1350.6578 1416.9483,-1325.3422 1449.9253,-1309.5165 1494.0132,-1309.5165 1526.9903,-1325.3422"/>
<text text-anchor="middle" x="1471.9693" y="-1330.8" font-family="Times,serif" font-size="24.00" fill="#000000">timer</text>
</a>
</g>
</g>
<!-- statictea&#45;&gt;timer -->
<g id="edge128" class="edge">
<title>statictea&#45;&gt;timer</title>
<path fill="none" stroke="#000000" d="M1163.8304,-1471.752C1219.9915,-1447.7965 1321.5054,-1404.3407 1407.9693,-1366.4917 1412.0273,-1364.7154 1416.2261,-1362.8677 1420.4434,-1361.0051"/>
<polygon fill="#000000" stroke="#000000" points="1421.9313,-1364.1741 1429.6582,-1356.9252 1419.0974,-1357.7734 1421.9313,-1364.1741"/>
</g>
<!-- parseCommandLine -->
<g id="node31" class="node">
<title>parseCommandLine</title>
<g id="a_node31"><a xlink:href="parseCommandLine.md" xlink:title="parseCommandLine.md">
<ellipse fill="#eee8aa" stroke="#000000" cx="373.9693" cy="-636" rx="148.8522" ry="22.7556"/>
<text text-anchor="middle" x="373.9693" y="-628.8" font-family="Times,serif" font-size="24.00" fill="#000000">parseCommandLine</text>
</a>
</g>
</g>
<!-- statictea&#45;&gt;parseCommandLine -->
<g id="edge12" class="edge">
<title>statictea&#45;&gt;parseCommandLine</title>
<path fill="none" stroke="#000000" d="M1038.1306,-1485.579C846.0619,-1474.1957 376.208,-1439.5116 237.9693,-1366.4917 147.4176,-1318.6609 82.9693,-1298.408 82.9693,-1196 82.9693,-1196 82.9693,-1196 82.9693,-930 82.9693,-798.519 231.7993,-704.7316 316.587,-661.9696"/>
<polygon fill="#000000" stroke="#000000" points="318.19,-665.0814 325.5899,-657.4991 315.0767,-658.8118 318.19,-665.0814"/>
</g>
<!-- processTemplate -->
<g id="node32" class="node">
<title>processTemplate</title>
<g id="a_node32"><a xlink:href="processTemplate.md" xlink:title="processTemplate.md">
<ellipse fill="#eee8aa" stroke="#000000" cx="1273.9693" cy="-1338" rx="125.2054" ry="22.7556"/>
<text text-anchor="middle" x="1273.9693" y="-1330.8" font-family="Times,serif" font-size="24.00" fill="#000000">processTemplate</text>
</a>
</g>
</g>
<!-- statictea&#45;&gt;processTemplate -->
<g id="edge121" class="edge">
<title>statictea&#45;&gt;processTemplate</title>
<path fill="none" stroke="#000000" d="M1143.8749,-1467.2441C1170.6188,-1440.675 1214.9245,-1396.6589 1244.284,-1367.4913"/>
<polygon fill="#000000" stroke="#000000" points="1246.779,-1369.9462 1251.4065,-1360.4154 1241.8455,-1364.9802 1246.779,-1369.9462"/>
</g>
<!-- comparelines -->
<g id="node22" class="node">
<title>comparelines</title>
<g id="a_node22"><a xlink:href="comparelines.md" xlink:title="comparelines.md">
<ellipse fill="#eee8aa" stroke="#000000" cx="2380.9693" cy="-788" rx="101.5699" ry="22.7556"/>
<text text-anchor="middle" x="2380.9693" y="-780.8" font-family="Times,serif" font-size="24.00" fill="#000000">comparelines</text>
</a>
</g>
</g>
<!-- comparelines&#45;&gt;readlines -->
<g id="edge91" class="edge">
<title>comparelines&#45;&gt;readlines</title>
<path fill="none" stroke="#000000" d="M2310.3469,-771.6612C2187.6048,-743.2642 1935.6245,-684.9674 1805.5949,-654.8845"/>
<polygon fill="#000000" stroke="#000000" points="1806.2166,-651.4359 1795.685,-652.5918 1804.6387,-658.2558 1806.2166,-651.4359"/>
</g>
<!-- comparelines&#45;&gt;opresult -->
<g id="edge92" class="edge">
<title>comparelines&#45;&gt;opresult</title>
<path fill="none" stroke="#000000" d="M2469.9707,-776.8291C2542.4977,-762.9557 2642.0655,-732.1878 2699.9693,-664.4917 2805.8778,-540.6729 2774.669,-325.0886 2756.1998,-237.5734"/>
<polygon fill="#000000" stroke="#000000" points="2759.5654,-236.5785 2754.0207,-227.5504 2752.7251,-238.0658 2759.5654,-236.5785"/>
</g>
<!-- signatures&#45;&gt;vartypes -->
<g id="edge76" class="edge">
<title>signatures&#45;&gt;vartypes</title>
<path fill="none" stroke="#000000" d="M2691.9058,-768.4168C2650.4316,-747.1494 2586.3211,-710.0427 2541.9693,-664.4917 2518.8463,-640.7436 2473.5814,-560.6336 2448.9387,-515.5327"/>
<polygon fill="#000000" stroke="#000000" points="2451.8628,-513.5836 2444.0086,-506.4729 2445.7142,-516.9295 2451.8628,-513.5836"/>
</g>
<!-- signatures&#45;&gt;funtypes -->
<g id="edge77" class="edge">
<title>signatures&#45;&gt;funtypes</title>
<path fill="none" stroke="#000000" d="M2716.4433,-765.5719C2697.0596,-739.2654 2664.8377,-695.5357 2643.2563,-666.2467"/>
<polygon fill="#000000" stroke="#000000" points="2645.9487,-664.0003 2637.1989,-658.026 2640.3133,-668.1527 2645.9487,-664.0003"/>
</g>
<!-- signatures&#45;&gt;messages -->
<g id="edge78" class="edge">
<title>signatures&#45;&gt;messages</title>
<path fill="none" stroke="#000000" d="M2738.6077,-765.4089C2764.7348,-659.6464 2871.0821,-216.6295 2830.9693,-170.5083 2779.8417,-111.7224 2262.5096,-68.9446 2044.7575,-53.407"/>
<polygon fill="#000000" stroke="#000000" points="2044.8405,-49.9042 2034.6178,-52.6877 2044.3451,-56.8866 2044.8405,-49.9042"/>
</g>
<!-- args&#45;&gt;warnings -->
<g id="edge3" class="edge">
<title>args&#45;&gt;warnings</title>
<path fill="none" stroke="#000000" d="M1342.9164,-462.9503C1371.8122,-422.8184 1435.1946,-337.6331 1465.9693,-318.3726 1591.2647,-239.9554 1764.8691,-213.0355 1866.2132,-203.8049"/>
<polygon fill="#000000" stroke="#000000" points="1866.7369,-207.2725 1876.3941,-202.9151 1866.1273,-200.2991 1866.7369,-207.2725"/>
</g>
<!-- args&#45;&gt;opresultwarn -->
<g id="edge6" class="edge">
<title>args&#45;&gt;opresultwarn</title>
<path fill="none" stroke="#000000" d="M1365.318,-476.7167C1397.0756,-470.6451 1443.9223,-461.9746 1484.9693,-455.5083 1758.3365,-412.443 2082.4827,-371.9528 2242.0839,-352.7108"/>
<polygon fill="#000000" stroke="#000000" points="2242.8463,-356.1444 2252.3563,-351.4743 2242.0096,-349.1945 2242.8463,-356.1444"/>
</g>
<!-- args&#45;&gt;messages -->
<g id="edge1" class="edge">
<title>args&#45;&gt;messages</title>
<path fill="none" stroke="#000000" d="M1321.6462,-461.634C1307.1271,-405.007 1278.0502,-254.5164 1351.9693,-170.5083 1416.8558,-96.7655 1701.4844,-65.0295 1853.1018,-53.1523"/>
<polygon fill="#000000" stroke="#000000" points="1853.6359,-56.6217 1863.338,-52.3648 1853.0989,-49.6423 1853.6359,-56.6217"/>
</g>
<!-- opresultwarn&#45;&gt;warnings -->
<g id="edge4" class="edge">
<title>opresultwarn&#45;&gt;warnings</title>
<path fill="none" stroke="#000000" d="M2287.6945,-321.7015C2214.1693,-295.0673 2082.1189,-247.2328 2006.4399,-219.8184"/>
<polygon fill="#000000" stroke="#000000" points="2007.1919,-216.3683 1996.5977,-216.2531 2004.8077,-222.9498 2007.1919,-216.3683"/>
</g>
<!-- opresultwarn&#45;&gt;opresult -->
<g id="edge5" class="edge">
<title>opresultwarn&#45;&gt;opresult</title>
<path fill="none" stroke="#000000" d="M2395.303,-321.9966C2469.1748,-296.1596 2601.189,-249.9872 2680.7619,-222.1563"/>
<polygon fill="#000000" stroke="#000000" points="2682.3917,-225.2942 2690.6755,-218.689 2680.0806,-218.6867 2682.3917,-225.2942"/>
</g>
<!-- matches&#45;&gt;regexes -->
<g id="edge22" class="edge">
<title>matches&#45;&gt;regexes</title>
<path fill="none" stroke="#000000" d="M1034.5138,-614.5445C1009.9202,-589.9509 969.2205,-549.2512 939.7959,-519.8266"/>
<polygon fill="#000000" stroke="#000000" points="942.1206,-517.2016 932.5747,-512.6054 937.1709,-522.1514 942.1206,-517.2016"/>
</g>
<!-- matches&#45;&gt;args -->
<g id="edge21" class="edge">
<title>matches&#45;&gt;args</title>
<path fill="none" stroke="#000000" d="M1090.6945,-616.5947C1142.035,-587.9045 1237.7978,-534.39 1290.6107,-504.8768"/>
<polygon fill="#000000" stroke="#000000" points="1292.6182,-507.7645 1299.6402,-499.8309 1289.2034,-501.6539 1292.6182,-507.7645"/>
</g>
<!-- readjson -->
<g id="node29" class="node">
<title>readjson</title>
<g id="a_node29"><a xlink:href="readjson.md" xlink:title="readjson.md">
<ellipse fill="#eee8aa" stroke="#000000" cx="2966.9693" cy="-930" rx="68.6102" ry="22.7556"/>
<text text-anchor="middle" x="2966.9693" y="-922.8" font-family="Times,serif" font-size="24.00" fill="#000000">readjson</text>
</a>
</g>
</g>
<!-- readjson&#45;&gt;unicodes -->
<g id="edge85" class="edge">
<title>readjson&#45;&gt;unicodes</title>
<path fill="none" stroke="#000000" d="M2974.8919,-907.4997C2983.1449,-884.0613 2996.154,-847.1153 3005.5231,-820.5072"/>
<polygon fill="#000000" stroke="#000000" points="3008.8981,-821.4601 3008.9181,-810.8653 3002.2955,-819.1352 3008.8981,-821.4601"/>
</g>
<!-- readjson&#45;&gt;vartypes -->
<g id="edge82" class="edge">
<title>readjson&#45;&gt;vartypes</title>
<path fill="none" stroke="#000000" d="M2905.744,-919.5559C2836.8061,-905.4297 2723.9885,-874.9755 2643.9693,-816.4917 2618.354,-797.7702 2622.2133,-783.0738 2600.9693,-759.5083 2559.4857,-713.4913 2533.3427,-716.037 2498.9693,-664.4917 2467.78,-617.7213 2448.6534,-554.5006 2439.2016,-516.6321"/>
<polygon fill="#000000" stroke="#000000" points="2442.5423,-515.5558 2436.7903,-506.6583 2435.7383,-517.2008 2442.5423,-515.5558"/>
</g>
<!-- readjson&#45;&gt;utf8decoder -->
<g id="edge86" class="edge">
<title>readjson&#45;&gt;utf8decoder</title>
<path fill="none" stroke="#000000" d="M3007.2089,-911.4665C3044.2483,-892.4949 3098.2547,-859.6934 3130.9693,-816.4917 3163.1931,-773.9382 3179.4133,-713.4629 3187.0107,-674.4752"/>
<polygon fill="#000000" stroke="#000000" points="3190.4663,-675.0363 3188.8462,-664.5661 3183.5833,-673.7613 3190.4663,-675.0363"/>
</g>
<!-- readjson&#45;&gt;warnings -->
<g id="edge84" class="edge">
<title>readjson&#45;&gt;warnings</title>
<path fill="none" stroke="#000000" d="M2904.3171,-920.6008C2828.0133,-906.9874 2697.3911,-876.5479 2600.9693,-816.4917 2342.3479,-655.41 2363.3563,-514.2369 2129.9693,-318.3726 2086.3248,-281.745 2031.0139,-246.6983 1993.0909,-224.168"/>
<polygon fill="#000000" stroke="#000000" points="1994.7121,-221.0609 1984.3203,-218.9963 1991.1565,-227.0906 1994.7121,-221.0609"/>
</g>
<!-- readjson&#45;&gt;opresultwarn -->
<g id="edge87" class="edge">
<title>readjson&#45;&gt;opresultwarn</title>
<path fill="none" stroke="#000000" d="M2961.0927,-907.4188C2951.2905,-872.8819 2929.0417,-806.0541 2892.9693,-759.5083 2850.8696,-705.1851 2817.7467,-714.8431 2770.9693,-664.4917 2750.2505,-642.1899 2754.8089,-628.7138 2732.9693,-607.5083 2675.8114,-552.0099 2638.1271,-567.9901 2580.9693,-512.4917 2559.1297,-491.2862 2565.2594,-476.2397 2542.9693,-455.5083 2500.6183,-416.1189 2442.2909,-384.914 2399.1969,-365.0918"/>
<polygon fill="#000000" stroke="#000000" points="2400.5225,-361.85 2389.9692,-360.9135 2397.6351,-368.2267 2400.5225,-361.85"/>
</g>
<!-- readjson&#45;&gt;messages -->
<g id="edge83" class="edge">
<title>readjson&#45;&gt;messages</title>
<path fill="none" stroke="#000000" d="M3017.8818,-914.718C3116.7192,-881.5491 3324.9693,-793.0303 3324.9693,-636 3324.9693,-636 3324.9693,-636 3324.9693,-341 3324.9693,-175.9157 3152.8162,-218.8526 2994.9693,-170.5083 2818.2535,-116.3849 2268.4313,-70.7278 2044.9113,-53.9127"/>
<polygon fill="#000000" stroke="#000000" points="2045.0726,-50.4151 2034.839,-53.1579 2044.5495,-57.3955 2045.0726,-50.4151"/>
</g>
<!-- parseCommandLine&#45;&gt;regexes -->
<g id="edge10" class="edge">
<title>parseCommandLine&#45;&gt;regexes</title>
<path fill="none" stroke="#000000" d="M443.8025,-615.9724C545.1341,-586.9112 731.8982,-533.3487 833.5552,-504.1942"/>
<polygon fill="#000000" stroke="#000000" points="834.7736,-507.486 843.4212,-501.3647 832.8438,-500.7572 834.7736,-507.486"/>
</g>
<!-- parseCommandLine&#45;&gt;cmdline -->
<g id="edge11" class="edge">
<title>parseCommandLine&#45;&gt;cmdline</title>
<path fill="none" stroke="#000000" d="M379.3588,-613.2441C385.019,-589.3458 394.0222,-551.3321 400.8023,-522.7049"/>
<polygon fill="#000000" stroke="#000000" points="404.2904,-523.1638 403.1894,-512.6263 397.4788,-521.5505 404.2904,-523.1638"/>
</g>
<!-- parseCommandLine&#45;&gt;warnings -->
<g id="edge9" class="edge">
<title>parseCommandLine&#45;&gt;warnings</title>
<path fill="none" stroke="#000000" d="M403.6694,-613.6243C431.3511,-591.1356 471.6224,-553.9382 493.9693,-512.4917 535.9067,-434.7107 470.4517,-376.5452 536.9693,-318.3726 637.1208,-230.7856 1576.2764,-205.9849 1864.9605,-200.4016"/>
<polygon fill="#000000" stroke="#000000" points="1865.4308,-203.8933 1875.3622,-200.2033 1865.2973,-196.8946 1865.4308,-203.8933"/>
</g>
<!-- parseCommandLine&#45;&gt;args -->
<g id="edge7" class="edge">
<title>parseCommandLine&#45;&gt;args</title>
<path fill="none" stroke="#000000" d="M476.9704,-619.5889C681.4076,-587.0161 1131.4717,-515.3078 1279.6291,-491.702"/>
<polygon fill="#000000" stroke="#000000" points="1280.4425,-495.1166 1289.7672,-490.0867 1279.341,-488.2038 1280.4425,-495.1166"/>
</g>
<!-- parseCommandLine&#45;&gt;messages -->
<g id="edge8" class="edge">
<title>parseCommandLine&#45;&gt;messages</title>
<path fill="none" stroke="#000000" d="M358.0966,-613.3289C335.5596,-578.1051 299.7771,-508.7514 325.9693,-455.5083 370.052,-365.8975 412.8245,-359.1893 503.9693,-318.3726 979.0825,-105.6059 1614.2858,-59.6133 1852.963,-49.7064"/>
<polygon fill="#000000" stroke="#000000" points="1853.1499,-53.2018 1863.0007,-49.3015 1852.8677,-46.2075 1853.1499,-53.2018"/>
</g>
<!-- processTemplate&#45;&gt;parseCmdLine -->
<g id="edge30" class="edge">
<title>processTemplate&#45;&gt;parseCmdLine</title>
<path fill="none" stroke="#000000" d="M1204.6931,-1319.153C1070.2918,-1278.3605 777.2539,-1167.7401 661.9693,-952.6274 636.5648,-905.2246 681.0755,-850.0997 715.5332,-817.1837"/>
<polygon fill="#000000" stroke="#000000" points="718.2024,-819.4811 723.1442,-810.1093 713.4368,-814.3538 718.2024,-819.4811"/>
</g>
<!-- processTemplate&#45;&gt;env -->
<g id="edge20" class="edge">
<title>processTemplate&#45;&gt;env</title>
<path fill="none" stroke="#000000" d="M1188.0331,-1321.4346C1106.7067,-1303.5339 982.8486,-1270.4099 884.9693,-1218.6274 724.1977,-1133.5723 660.4578,-1112.6325 573.9693,-952.6274 551.5032,-911.0648 546.7053,-855.6261 546.181,-820.8709"/>
<polygon fill="#000000" stroke="#000000" points="549.6807,-820.773 546.1407,-810.7871 542.6808,-820.801 549.6807,-820.773"/>
</g>
<!-- processTemplate&#45;&gt;variables -->
<g id="edge95" class="edge">
<title>processTemplate&#45;&gt;variables</title>
<path fill="none" stroke="#000000" d="M1277.9721,-1315.0674C1293.0693,-1228.5729 1346.5979,-921.8987 1364.2649,-820.6811"/>
<polygon fill="#000000" stroke="#000000" points="1367.7309,-821.1788 1366.0026,-810.7259 1360.8352,-819.9751 1367.7309,-821.1788"/>
</g>
<!-- processTemplate&#45;&gt;vartypes -->
<g id="edge96" class="edge">
<title>processTemplate&#45;&gt;vartypes</title>
<path fill="none" stroke="#000000" d="M1354.1197,-1320.4765C1451.8919,-1298.6588 1621.9567,-1259.2823 1765.9693,-1218.6274 2068.7484,-1133.1525 2192.4621,-1167.8194 2421.9693,-952.6274 2474.1764,-903.6766 2488.0739,-885.2372 2507.9693,-816.4917 2515.0099,-792.1641 2513.3103,-784.2647 2507.9693,-759.5083 2498.1939,-714.1981 2478.796,-708.7342 2464.9693,-664.4917 2449.2292,-614.127 2440.0419,-553.3703 2435.5176,-516.7574"/>
<polygon fill="#000000" stroke="#000000" points="2438.9723,-516.1689 2434.3122,-506.654 2432.0216,-516.9982 2438.9723,-516.1689"/>
</g>
<!-- processTemplate&#45;&gt;codefile -->
<g id="edge120" class="edge">
<title>processTemplate&#45;&gt;codefile</title>
<path fill="none" stroke="#000000" d="M1328.3857,-1317.5036C1400.0543,-1290.5091 1525.3386,-1243.3198 1596.8558,-1216.3823"/>
<polygon fill="#000000" stroke="#000000" points="1598.4547,-1219.5201 1606.5792,-1212.7199 1595.9873,-1212.9694 1598.4547,-1219.5201"/>
</g>
<!-- processTemplate&#45;&gt;replacement -->
<g id="edge109" class="edge">
<title>processTemplate&#45;&gt;replacement</title>
<path fill="none" stroke="#000000" d="M1242.7157,-1315.8884C1213.866,-1294.0622 1171.5811,-1258.2787 1144.9693,-1218.6274 1088.9492,-1135.1583 1056.9834,-1018.7355 1043.9395,-962.6947"/>
<polygon fill="#000000" stroke="#000000" points="1047.2826,-961.6115 1041.652,-952.6368 1040.457,-963.164 1047.2826,-961.6115"/>
</g>
<!-- processTemplate&#45;&gt;readlines -->
<g id="edge24" class="edge">
<title>processTemplate&#45;&gt;readlines</title>
<path fill="none" stroke="#000000" d="M1288.4319,-1315.4383C1353.3671,-1214.1394 1618.3648,-800.7429 1699.949,-673.4716"/>
<polygon fill="#000000" stroke="#000000" points="1703.0507,-675.1184 1705.5008,-664.8108 1697.1576,-671.3407 1703.0507,-675.1184"/>
</g>
<!-- processTemplate&#45;&gt;collectCommand -->
<g id="edge37" class="edge">
<title>processTemplate&#45;&gt;collectCommand</title>
<path fill="none" stroke="#000000" d="M1243.2756,-1315.8653C1211.1858,-1292.4472 1159.6526,-1254.0546 1116.9693,-1218.6274 1007.7419,-1127.9686 884.8699,-1012.8348 828.8189,-959.5382"/>
<polygon fill="#000000" stroke="#000000" points="831.0172,-956.7986 821.3617,-952.4372 826.19,-961.8679 831.0172,-956.7986"/>
</g>
<!-- processTemplate&#45;&gt;args -->
<g id="edge13" class="edge">
<title>processTemplate&#45;&gt;args</title>
<path fill="none" stroke="#000000" d="M1267.3017,-1315.2556C1235.8674,-1206.2789 1106.6004,-737.4759 1169.9693,-607.5083 1194.1638,-557.8859 1249.0016,-522.3518 1287.2408,-502.4909"/>
<polygon fill="#000000" stroke="#000000" points="1289.2253,-505.4099 1296.5763,-497.7801 1286.0717,-499.1605 1289.2253,-505.4099"/>
</g>
<!-- processTemplate&#45;&gt;opresultwarn -->
<g id="edge110" class="edge">
<title>processTemplate&#45;&gt;opresultwarn</title>
<path fill="none" stroke="#000000" d="M1349.8257,-1319.9823C1368.7288,-1316.015 1389.0132,-1312.1991 1407.9693,-1309.5083 1959.9013,-1231.1592 2107.3575,-1299.1995 2658.9693,-1218.6274 2976.0475,-1172.3129 3362.9693,-1383.4429 3362.9693,-1063 3362.9693,-1063 3362.9693,-1063 3362.9693,-788 3362.9693,-703.8763 3366.5274,-665.8992 3305.9693,-607.5083 3179.4962,-485.5611 2650.9615,-390.0139 2434.2643,-355.2214"/>
<polygon fill="#000000" stroke="#000000" points="2434.611,-351.7325 2424.184,-353.6107 2433.5064,-358.6448 2434.611,-351.7325"/>
</g>
<!-- processTemplate&#45;&gt;messages -->
<g id="edge14" class="edge">
<title>processTemplate&#45;&gt;messages</title>
<path fill="none" stroke="#000000" d="M1165.3979,-1326.6547C858.5349,-1291.6065 6.9693,-1172.4989 6.9693,-930 6.9693,-930 6.9693,-930 6.9693,-341 6.9693,-264.1375 -21.1324,-221.9595 35.9693,-170.5083 104.1327,-109.0898 1474.7445,-61.8269 1853.0109,-49.9156"/>
<polygon fill="#000000" stroke="#000000" points="1853.2209,-53.4109 1863.1061,-49.5987 1853.0012,-46.4143 1853.2209,-53.4109"/>
</g>
<!-- processTemplate&#45;&gt;matches -->
<g id="edge23" class="edge">
<title>processTemplate&#45;&gt;matches</title>
<path fill="none" stroke="#000000" d="M1262.4662,-1315.1219C1250.8712,-1291.4201 1233.0136,-1253.0905 1220.9693,-1218.6274 1173.8098,-1083.6878 1179.1133,-1044.8515 1139.9693,-907.3726 1115.2676,-820.617 1082.9852,-719.3072 1066.563,-668.5232"/>
<polygon fill="#000000" stroke="#000000" points="1069.8142,-667.2023 1063.4023,-658.7679 1063.155,-669.3599 1069.8142,-667.2023"/>
</g>
<!-- processTemplate&#45;&gt;readjson -->
<g id="edge97" class="edge">
<title>processTemplate&#45;&gt;readjson</title>
<path fill="none" stroke="#000000" d="M1350.1848,-1319.9553C1368.9872,-1316.0131 1389.1357,-1312.2155 1407.9693,-1309.5083 1671.1434,-1271.678 2353.2651,-1315.2421 2600.9693,-1218.6274 2749.601,-1160.655 2886.3709,-1020.7964 2941.3996,-959.5563"/>
<polygon fill="#000000" stroke="#000000" points="2944.2728,-961.5927 2948.311,-951.7976 2939.0459,-956.9366 2944.2728,-961.5927"/>
</g>
<!-- processTemplate&#45;&gt;runCommand -->
<g id="edge94" class="edge">
<title>processTemplate&#45;&gt;runCommand</title>
<path fill="none" stroke="#000000" d="M1350.8967,-1320.1041C1471.0196,-1291.7915 1692.791,-1237.9048 1724.9693,-1218.6274 1778.2664,-1186.6982 1824.1367,-1129.52 1849.3225,-1094.0703"/>
<polygon fill="#000000" stroke="#000000" points="1852.414,-1095.7565 1855.272,-1085.5544 1846.6757,-1091.7475 1852.414,-1095.7565"/>
</g>
<!-- runCommand&#45;&gt;runFunction -->
<g id="edge81" class="edge">
<title>runCommand&#45;&gt;runFunction</title>
<path fill="none" stroke="#000000" d="M1925.37,-1043.6607C1995.0936,-1019.3214 2114.5632,-977.6168 2187.7754,-952.0598"/>
<polygon fill="#000000" stroke="#000000" points="2189.0605,-955.3184 2197.3482,-948.7181 2186.7534,-948.7095 2189.0605,-955.3184"/>
</g>
<!-- runCommand&#45;&gt;parseNumber -->
<g id="edge48" class="edge">
<title>runCommand&#45;&gt;parseNumber</title>
<path fill="none" stroke="#000000" d="M1877.1537,-1040.0267C1891.9223,-992.8013 1925.8247,-884.3926 1943.9778,-826.345"/>
<polygon fill="#000000" stroke="#000000" points="1947.3191,-827.3867 1946.9634,-816.7979 1940.6381,-825.2974 1947.3191,-827.3867"/>
</g>
<!-- runCommand&#45;&gt;regexes -->
<g id="edge40" class="edge">
<title>runCommand&#45;&gt;regexes</title>
<path fill="none" stroke="#000000" d="M1767.1029,-1058.6473C1484.5619,-1046.0423 710.8488,-1006.923 609.9693,-952.6274 523.3744,-906.0201 469.9062,-852.4753 501.9693,-759.5083 529.9423,-678.4003 553.1405,-660.0463 620.9693,-607.5083 685.1022,-557.8329 772.3005,-523.7293 832.8863,-504.1455"/>
<polygon fill="#000000" stroke="#000000" points="834.2794,-507.3753 842.7487,-501.0097 832.1583,-500.7044 834.2794,-507.3753"/>
</g>
<!-- runCommand&#45;&gt;env -->
<g id="edge41" class="edge">
<title>runCommand&#45;&gt;env</title>
<path fill="none" stroke="#000000" d="M1766.993,-1058.5461C1492.2913,-1045.973 756.5006,-1007.5184 661.9693,-952.6274 609.994,-922.4472 575.8702,-858.2604 559.1247,-819.5529"/>
<polygon fill="#000000" stroke="#000000" points="562.3378,-818.1644 555.2415,-810.2972 555.8828,-820.8726 562.3378,-818.1644"/>
</g>
<!-- runCommand&#45;&gt;variables -->
<g id="edge55" class="edge">
<title>runCommand&#45;&gt;variables</title>
<path fill="none" stroke="#000000" d="M1852.833,-1040.5013C1826.2809,-1007.0659 1772.0626,-944.2535 1712.9693,-907.3726 1626.761,-853.5689 1513.1506,-820.1974 1440.8102,-802.8565"/>
<polygon fill="#000000" stroke="#000000" points="1441.4201,-799.4044 1430.8837,-800.5156 1439.8134,-806.2175 1441.4201,-799.4044"/>
</g>
<!-- runCommand&#45;&gt;vartypes -->
<g id="edge45" class="edge">
<title>runCommand&#45;&gt;vartypes</title>
<path fill="none" stroke="#000000" d="M1888.3588,-1040.6727C1944.6668,-972.7825 2120.8119,-763.9093 2283.9693,-607.5083 2320.7835,-572.2185 2366.2097,-535.1798 2396.9514,-510.978"/>
<polygon fill="#000000" stroke="#000000" points="2399.1126,-513.7311 2404.8244,-504.8078 2394.7946,-508.2215 2399.1126,-513.7311"/>
</g>
<!-- runCommand&#45;&gt;readlines -->
<g id="edge38" class="edge">
<title>runCommand&#45;&gt;readlines</title>
<path fill="none" stroke="#000000" d="M1862.2228,-1040.3441C1838.4952,-970.949 1766.6362,-760.7862 1736.9819,-674.0575"/>
<polygon fill="#000000" stroke="#000000" points="1740.2937,-672.925 1733.7466,-664.5952 1733.6702,-675.1897 1740.2937,-672.925"/>
</g>
<!-- runCommand&#45;&gt;funtypes -->
<g id="edge59" class="edge">
<title>runCommand&#45;&gt;funtypes</title>
<path fill="none" stroke="#000000" d="M1948.9364,-1048.0309C2049.4216,-1028.4904 2228.0687,-992.0988 2378.9693,-952.6274 2391.4238,-949.3697 2814.3193,-826.8457 2821.9693,-816.4917 2872.0157,-748.7561 2752.9556,-687.2397 2677.4026,-656.5452"/>
<polygon fill="#000000" stroke="#000000" points="2678.5489,-653.2343 2667.9638,-652.7779 2675.9539,-659.7356 2678.5489,-653.2343"/>
</g>
<!-- runCommand&#45;&gt;warnings -->
<g id="edge47" class="edge">
<title>runCommand&#45;&gt;warnings</title>
<path fill="none" stroke="#000000" d="M1865.2906,-1040.3644C1856.6151,-997.1075 1838.3377,-899.6046 1831.9693,-816.4917 1830.0344,-791.2398 1829.368,-784.7003 1831.9693,-759.5083 1837.4836,-706.1042 1917.0092,-343.6833 1941.7071,-231.8171"/>
<polygon fill="#000000" stroke="#000000" points="1945.1821,-232.3119 1943.9218,-221.7923 1938.3469,-230.8018 1945.1821,-232.3119"/>
</g>
<!-- runCommand&#45;&gt;collectCommand -->
<g id="edge89" class="edge">
<title>runCommand&#45;&gt;collectCommand</title>
<path fill="none" stroke="#000000" d="M1775.1141,-1053.32C1605.8557,-1035.7119 1240.7553,-996.2116 933.9693,-952.6274 922.7888,-951.039 911.1101,-949.2676 899.4966,-947.4345"/>
<polygon fill="#000000" stroke="#000000" points="899.7483,-943.9304 889.3217,-945.8108 898.6452,-950.843 899.7483,-943.9304"/>
</g>
<!-- runCommand&#45;&gt;comparelines -->
<g id="edge93" class="edge">
<title>runCommand&#45;&gt;comparelines</title>
<path fill="none" stroke="#000000" d="M1965.669,-1053.7405C2091.2461,-1039.5539 2301.8342,-1008.0799 2353.9693,-952.6274 2387.1031,-917.3852 2388.4959,-858.0578 2385.4607,-821.0712"/>
<polygon fill="#000000" stroke="#000000" points="2388.9146,-820.4281 2384.4587,-810.8159 2381.9478,-821.1089 2388.9146,-820.4281"/>
</g>
<!-- runCommand&#45;&gt;opresultwarn -->
<g id="edge90" class="edge">
<title>runCommand&#45;&gt;opresultwarn</title>
<path fill="none" stroke="#000000" d="M1966.2421,-1054.1077C2191.2186,-1031.0445 2740.0276,-960.7876 2840.9693,-816.4917 2855.4865,-795.7395 2851.4032,-782.5851 2840.9693,-759.5083 2814.6301,-701.2538 2773.521,-713.9174 2732.9693,-664.4917 2714.4059,-641.8662 2720.4629,-628.4015 2699.9693,-607.5083 2642.8562,-549.2814 2600.0823,-570.7186 2542.9693,-512.4917 2522.4757,-491.5985 2529.9206,-476.92 2509.9693,-455.5083 2475.5573,-418.5773 2427.1239,-387.2954 2390.9231,-366.8083"/>
<polygon fill="#000000" stroke="#000000" points="2392.4381,-363.6458 2381.999,-361.8355 2389.0306,-369.7606 2392.4381,-363.6458"/>
</g>
<!-- runCommand&#45;&gt;messages -->
<g id="edge46" class="edge">
<title>runCommand&#45;&gt;messages</title>
<path fill="none" stroke="#000000" d="M1973.5176,-1059.4608C2222.3348,-1049.9675 2847.7995,-1019.9566 3044.9693,-952.6274 3302.4796,-864.6933 3438.9693,-756.1102 3438.9693,-484 3438.9693,-484 3438.9693,-484 3438.9693,-341 3438.9693,-188.4115 3286.2165,-217.2683 3140.9693,-170.5083 2937.1893,-104.9045 2290.7361,-64.9618 2045.013,-51.8181"/>
<polygon fill="#000000" stroke="#000000" points="2044.847,-48.3044 2034.6752,-51.2683 2044.4752,-55.2945 2044.847,-48.3044"/>
</g>
<!-- runCommand&#45;&gt;matches -->
<g id="edge39" class="edge">
<title>runCommand&#45;&gt;matches</title>
<path fill="none" stroke="#000000" d="M1786.4593,-1049.3403C1649.6438,-1023.5902 1374.2609,-957.3023 1186.9693,-816.4917 1133.2486,-776.1031 1092.1502,-707.5021 1071.2557,-667.5176"/>
<polygon fill="#000000" stroke="#000000" points="1074.3004,-665.7844 1066.6239,-658.4821 1068.0711,-668.9776 1074.3004,-665.7844"/>
</g>
<!-- runCommand&#45;&gt;readjson -->
<g id="edge88" class="edge">
<title>runCommand&#45;&gt;readjson</title>
<path fill="none" stroke="#000000" d="M1961.612,-1051.8893C2174.0879,-1026.1287 2697.041,-962.726 2892.0531,-939.0828"/>
<polygon fill="#000000" stroke="#000000" points="2892.6963,-942.5306 2902.2023,-937.8523 2891.8538,-935.5814 2892.6963,-942.5306"/>
</g>
</g>
</svg>
