<?xml version="1.0" encoding="UTF-8" standalone="no"?>
<!DOCTYPE svg PUBLIC "-//W3C//DTD SVG 1.1//EN"
 "http://www.w3.org/Graphics/SVG/1.1/DTD/svg11.dtd">
<!-- Generated by graphviz version 2.40.1 (20161225.0304)
 -->
<!-- Title: statictea Pages: 1 -->
<svg width="720pt" height="336pt"
 viewBox="0.00 0.00 720.00 335.61" xmlns="http://www.w3.org/2000/svg" xmlns:xlink="http://www.w3.org/1999/xlink">
<g id="graph0" class="graph" transform="scale(.2488 .2488) rotate(0) translate(4 1345.0123)">
<title>statictea</title>
<polygon fill="#ffffff" stroke="transparent" points="-4,4 -4,-1345.0123 2890.1317,-1345.0123 2890.1317,4 -4,4"/>
<!-- runFunction -->
<g id="node1" class="node">
<title>runFunction</title>
<g id="a_node1"><a xlink:href="runFunction.md" xlink:title="runFunction.md">
<ellipse fill="#eee8aa" stroke="#000000" cx="1768.0574" cy="-896" rx="94.055" ry="22.7556"/>
<text text-anchor="middle" x="1768.0574" y="-888.8" font-family="Times,serif" font-size="24.00" fill="#000000">runFunction</text>
</a>
</g>
</g>
<!-- parseNumber -->
<g id="node3" class="node">
<title>parseNumber</title>
<g id="a_node3"><a xlink:href="parseNumber.md" xlink:title="parseNumber.md">
<polygon fill="#98fb98" stroke="#000000" points="1502.4379,-750.8581 1502.4379,-771.1419 1437.1927,-785.4846 1344.9221,-785.4846 1279.6769,-771.1419 1279.6769,-750.8581 1344.9221,-736.5154 1437.1927,-736.5154 1502.4379,-750.8581"/>
<polygon fill="none" stroke="#000000" points="1506.4446,-747.6442 1506.4446,-774.3558 1437.6287,-789.4835 1344.486,-789.4835 1275.6702,-774.3558 1275.6702,-747.6442 1344.486,-732.5165 1437.6287,-732.5165 1506.4446,-747.6442"/>
<text text-anchor="middle" x="1391.0574" y="-753.8" font-family="Times,serif" font-size="24.00" fill="#000000">parseNumber</text>
</a>
</g>
</g>
<!-- runFunction&#45;&gt;parseNumber -->
<g id="edge60" class="edge">
<title>runFunction&#45;&gt;parseNumber</title>
<path fill="none" stroke="#000000" d="M1715.2402,-877.0867C1650.852,-854.0299 1541.5321,-814.8835 1467.8442,-788.4966"/>
<polygon fill="#000000" stroke="#000000" points="1468.7363,-785.0985 1458.1417,-785.0222 1466.3763,-791.6887 1468.7363,-785.0985"/>
</g>
<!-- regexes -->
<g id="node4" class="node">
<title>regexes</title>
<g id="a_node4"><a xlink:href="regexes.md" xlink:title="regexes.md">
<polygon fill="#98fb98" stroke="#000000" points="1339.2444,-463.8581 1339.2444,-484.1419 1299.3014,-498.4846 1242.8134,-498.4846 1202.8704,-484.1419 1202.8704,-463.8581 1242.8134,-449.5154 1299.3014,-449.5154 1339.2444,-463.8581"/>
<polygon fill="none" stroke="#000000" points="1343.2355,-461.0434 1343.2355,-486.9566 1299.995,-502.4835 1242.1198,-502.4835 1198.8793,-486.9566 1198.8793,-461.0434 1242.1198,-445.5165 1299.995,-445.5165 1343.2355,-461.0434"/>
<text text-anchor="middle" x="1271.0574" y="-466.8" font-family="Times,serif" font-size="24.00" fill="#000000">regexes</text>
</a>
</g>
</g>
<!-- runFunction&#45;&gt;regexes -->
<g id="edge59" class="edge">
<title>runFunction&#45;&gt;regexes</title>
<path fill="none" stroke="#000000" d="M1747.6106,-873.754C1728.0235,-852.3406 1697.7339,-818.9571 1672.0574,-789.4917 1650.3026,-764.5268 1648.2541,-755.1143 1624.0574,-732.5083 1524.2527,-639.2647 1390.5011,-549.4739 1319.7275,-504.2863"/>
<polygon fill="#000000" stroke="#000000" points="1321.3163,-501.1489 1310.9998,-498.7362 1317.5601,-507.0557 1321.3163,-501.1489"/>
</g>
<!-- unicodes -->
<g id="node8" class="node">
<title>unicodes</title>
<g id="a_node8"><a xlink:href="unicodes.md" xlink:title="unicodes.md">
<ellipse fill="#eee8aa" stroke="#000000" cx="2570.0574" cy="-474" rx="71.7778" ry="22.7556"/>
<text text-anchor="middle" x="2570.0574" y="-466.8" font-family="Times,serif" font-size="24.00" fill="#000000">unicodes</text>
</a>
</g>
</g>
<!-- runFunction&#45;&gt;unicodes -->
<g id="edge69" class="edge">
<title>runFunction&#45;&gt;unicodes</title>
<path fill="none" stroke="#000000" d="M1853.165,-886.2556C1985.2459,-869.9712 2232.2805,-834.5293 2308.0574,-789.4917 2428.518,-717.8967 2518.6192,-569.9037 2553.8392,-505.3064"/>
<polygon fill="#000000" stroke="#000000" points="2556.9756,-506.864 2558.6345,-496.3998 2550.8121,-503.5456 2556.9756,-506.864"/>
</g>
<!-- vartypes -->
<g id="node11" class="node">
<title>vartypes</title>
<g id="a_node11"><a xlink:href="vartypes.md" xlink:title="vartypes.md">
<ellipse fill="#eee8aa" stroke="#000000" cx="1708.0574" cy="-474" rx="68.6102" ry="22.7556"/>
<text text-anchor="middle" x="1708.0574" y="-466.8" font-family="Times,serif" font-size="24.00" fill="#000000">vartypes</text>
</a>
</g>
</g>
<!-- runFunction&#45;&gt;vartypes -->
<g id="edge58" class="edge">
<title>runFunction&#45;&gt;vartypes</title>
<path fill="none" stroke="#000000" d="M1768.9576,-873.0201C1770.4844,-821.6094 1771.5694,-693.6472 1750.0574,-589.5083 1744.0141,-560.2527 1732.0196,-528.4501 1722.3904,-505.6358"/>
<polygon fill="#000000" stroke="#000000" points="1725.6016,-504.2433 1718.4327,-496.4422 1719.172,-507.0112 1725.6016,-504.2433"/>
</g>
<!-- funtypes -->
<g id="node14" class="node">
<title>funtypes</title>
<g id="a_node14"><a xlink:href="funtypes.md" xlink:title="funtypes.md">
<ellipse fill="#eee8aa" stroke="#000000" cx="1671.0574" cy="-618" rx="69.5163" ry="22.7556"/>
<text text-anchor="middle" x="1671.0574" y="-610.8" font-family="Times,serif" font-size="24.00" fill="#000000">funtypes</text>
</a>
</g>
</g>
<!-- runFunction&#45;&gt;funtypes -->
<g id="edge74" class="edge">
<title>runFunction&#45;&gt;funtypes</title>
<path fill="none" stroke="#000000" d="M1760.1195,-873.2501C1742.9178,-823.9504 1702.1575,-707.1322 1682.3085,-650.2453"/>
<polygon fill="#000000" stroke="#000000" points="1685.5681,-648.9631 1678.9689,-640.6744 1678.9588,-651.2692 1685.5681,-648.9631"/>
</g>
<!-- warnings -->
<g id="node16" class="node">
<title>warnings</title>
<g id="a_node16"><a xlink:href="warnings.md" xlink:title="warnings.md">
<ellipse fill="#eee8aa" stroke="#000000" cx="1611.0574" cy="-187" rx="73.5561" ry="22.7556"/>
<text text-anchor="middle" x="1611.0574" y="-179.8" font-family="Times,serif" font-size="24.00" fill="#000000">warnings</text>
</a>
</g>
</g>
<!-- runFunction&#45;&gt;warnings -->
<g id="edge57" class="edge">
<title>runFunction&#45;&gt;warnings</title>
<path fill="none" stroke="#000000" d="M1754.5648,-873.544C1735.1064,-841.554 1697.5902,-781.3289 1662.0574,-732.5083 1633.0527,-692.6569 1608.5666,-692.9336 1592.0574,-646.4917 1538.1655,-494.8888 1580.8941,-297.2327 1601.5205,-219.9733"/>
<polygon fill="#000000" stroke="#000000" points="1605.0165,-220.4566 1604.2719,-209.888 1598.2633,-218.6142 1605.0165,-220.4566"/>
</g>
<!-- signatures -->
<g id="node20" class="node">
<title>signatures</title>
<g id="a_node20"><a xlink:href="signatures.md" xlink:title="signatures.md">
<ellipse fill="#eee8aa" stroke="#000000" cx="1870.0574" cy="-761" rx="80.2483" ry="22.7556"/>
<text text-anchor="middle" x="1870.0574" y="-753.8" font-family="Times,serif" font-size="24.00" fill="#000000">signatures</text>
</a>
</g>
</g>
<!-- runFunction&#45;&gt;signatures -->
<g id="edge73" class="edge">
<title>runFunction&#45;&gt;signatures</title>
<path fill="none" stroke="#000000" d="M1784.9006,-873.7075C1801.8802,-851.2346 1828.2081,-816.3888 1847.0939,-791.3928"/>
<polygon fill="#000000" stroke="#000000" points="1849.9533,-793.4142 1853.1891,-783.3256 1844.3682,-789.1944 1849.9533,-793.4142"/>
</g>
<!-- opresultwarn -->
<g id="node22" class="node">
<title>opresultwarn</title>
<g id="a_node22"><a xlink:href="opresultwarn.md" xlink:title="opresultwarn.md">
<ellipse fill="#eee8aa" stroke="#000000" cx="2102.0574" cy="-331" rx="99.824" ry="22.7556"/>
<text text-anchor="middle" x="2102.0574" y="-323.8" font-family="Times,serif" font-size="24.00" fill="#000000">opresultwarn</text>
</a>
</g>
</g>
<!-- runFunction&#45;&gt;opresultwarn -->
<g id="edge75" class="edge">
<title>runFunction&#45;&gt;opresultwarn</title>
<path fill="none" stroke="#000000" d="M1859.2738,-890.0415C1989.6904,-879.4064 2219.3393,-852.0995 2270.0574,-789.4917 2290.9942,-763.6468 2351.6815,-624.748 2256.0574,-445.5083 2234.5354,-405.167 2191.8317,-375.1705 2156.8415,-356.0208"/>
<polygon fill="#000000" stroke="#000000" points="2158.1399,-352.7474 2147.6665,-351.1473 2154.8561,-358.9294 2158.1399,-352.7474"/>
</g>
<!-- messages -->
<g id="node23" class="node">
<title>messages</title>
<g id="a_node23"><a xlink:href="messages.md" xlink:title="messages.md">
<polygon fill="#98fb98" stroke="#000000" points="2017.7962,-33.8581 2017.7962,-54.1419 1969.9147,-68.4846 1902.2001,-68.4846 1854.3186,-54.1419 1854.3186,-33.8581 1902.2001,-19.5154 1969.9147,-19.5154 2017.7962,-33.8581"/>
<polygon fill="none" stroke="#000000" points="2021.8019,-30.883 2021.8019,-57.117 1970.5028,-72.4835 1901.612,-72.4835 1850.3128,-57.117 1850.3128,-30.883 1901.612,-15.5165 1970.5028,-15.5165 2021.8019,-30.883"/>
<text text-anchor="middle" x="1936.0574" y="-36.8" font-family="Times,serif" font-size="24.00" fill="#000000">messages</text>
</a>
</g>
</g>
<!-- runFunction&#45;&gt;messages -->
<g id="edge56" class="edge">
<title>runFunction&#45;&gt;messages</title>
<path fill="none" stroke="#000000" d="M1854.8054,-887.06C1968.1388,-873.3842 2157.1239,-843.0492 2199.0574,-789.4917 2214.6704,-769.5508 2205.3792,-757.0325 2199.0574,-732.5083 2151.7831,-549.1172 2056.511,-537.9315 1993.0574,-359.4917 1988.4338,-346.4896 1956.7582,-164.2485 1942.7251,-82.8208"/>
<polygon fill="#000000" stroke="#000000" points="1946.0919,-81.7481 1940.9456,-72.4871 1939.1935,-82.936 1946.0919,-81.7481"/>
</g>
<!-- matches -->
<g id="node24" class="node">
<title>matches</title>
<g id="a_node24"><a xlink:href="matches.md" xlink:title="matches.md">
<ellipse fill="#eee8aa" stroke="#000000" cx="1250.0574" cy="-618" rx="66.8311" ry="22.7556"/>
<text text-anchor="middle" x="1250.0574" y="-610.8" font-family="Times,serif" font-size="24.00" fill="#000000">matches</text>
</a>
</g>
</g>
<!-- runFunction&#45;&gt;matches -->
<g id="edge61" class="edge">
<title>runFunction&#45;&gt;matches</title>
<path fill="none" stroke="#000000" d="M1741.9662,-874.128C1700.8517,-840.434 1617.5669,-775.2589 1539.0574,-732.5083 1462.9558,-691.0688 1368.6306,-656.5662 1308.8775,-636.6"/>
<polygon fill="#000000" stroke="#000000" points="1309.8221,-633.2259 1299.2287,-633.4019 1307.6197,-639.8704 1309.8221,-633.2259"/>
</g>
<!-- opresultid -->
<g id="node2" class="node">
<title>opresultid</title>
<g id="a_node2"><a xlink:href="opresultid.md" xlink:title="opresultid.md">
<ellipse fill="#eee8aa" stroke="#000000" cx="2337.0574" cy="-331" rx="79.3758" ry="22.7556"/>
<text text-anchor="middle" x="2337.0574" y="-323.8" font-family="Times,serif" font-size="24.00" fill="#000000">opresultid</text>
</a>
</g>
</g>
<!-- opresultid&#45;&gt;messages -->
<g id="edge62" class="edge">
<title>opresultid&#45;&gt;messages</title>
<path fill="none" stroke="#000000" d="M2326.9294,-308.267C2309.6868,-271.9328 2271.3499,-200.5929 2219.0574,-158.5083 2160.29,-111.2127 2079.3936,-81.1124 2019.1389,-63.7063"/>
<polygon fill="#000000" stroke="#000000" points="2019.8501,-60.2702 2009.275,-60.9165 2017.945,-67.006 2019.8501,-60.2702"/>
</g>
<!-- opresult -->
<g id="node29" class="node">
<title>opresult</title>
<g id="a_node29"><a xlink:href="opresult.md" xlink:title="opresult.md">
<polygon fill="#98fb98" stroke="#000000" points="2206.41,-176.8581 2206.41,-197.1419 2164.6126,-211.4846 2105.5022,-211.4846 2063.7048,-197.1419 2063.7048,-176.8581 2105.5022,-162.5154 2164.6126,-162.5154 2206.41,-176.8581"/>
<polygon fill="none" stroke="#000000" points="2210.406,-174.0019 2210.406,-199.9981 2165.2787,-215.4835 2104.8361,-215.4835 2059.7088,-199.9981 2059.7088,-174.0019 2104.8361,-158.5165 2165.2787,-158.5165 2210.406,-174.0019"/>
<text text-anchor="middle" x="2135.0574" y="-179.8" font-family="Times,serif" font-size="24.00" fill="#000000">opresult</text>
</a>
</g>
</g>
<!-- opresultid&#45;&gt;opresult -->
<g id="edge63" class="edge">
<title>opresultid&#45;&gt;opresult</title>
<path fill="none" stroke="#000000" d="M2307.2516,-309.7523C2273.8881,-285.9684 2219.4365,-247.1514 2180.7021,-219.5388"/>
<polygon fill="#000000" stroke="#000000" points="2182.3737,-216.4321 2172.1992,-213.4773 2178.3103,-222.1321 2182.3737,-216.4321"/>
</g>
<!-- cmdline -->
<g id="node5" class="node">
<title>cmdline</title>
<g id="a_node5"><a xlink:href="cmdline.md" xlink:title="cmdline.md">
<polygon fill="#98fb98" stroke="#000000" points="324.3926,-463.8581 324.3926,-484.1419 282.6054,-498.4846 223.5094,-498.4846 181.7222,-484.1419 181.7222,-463.8581 223.5094,-449.5154 282.6054,-449.5154 324.3926,-463.8581"/>
<polygon fill="none" stroke="#000000" points="328.3881,-461.0021 328.3881,-486.9979 283.2715,-502.4835 222.8433,-502.4835 177.7267,-486.9979 177.7267,-461.0021 222.8433,-445.5165 283.2715,-445.5165 328.3881,-461.0021"/>
<text text-anchor="middle" x="253.0574" y="-466.8" font-family="Times,serif" font-size="24.00" fill="#000000">cmdline</text>
</a>
</g>
</g>
<!-- parseCmdLine -->
<g id="node6" class="node">
<title>parseCmdLine</title>
<g id="a_node6"><a xlink:href="parseCmdLine.md" xlink:title="parseCmdLine.md">
<ellipse fill="#eee8aa" stroke="#000000" cx="2079.0574" cy="-761" rx="111.4463" ry="22.7556"/>
<text text-anchor="middle" x="2079.0574" y="-753.8" font-family="Times,serif" font-size="24.00" fill="#000000">parseCmdLine</text>
</a>
</g>
</g>
<!-- parseCmdLine&#45;&gt;regexes -->
<g id="edge23" class="edge">
<title>parseCmdLine&#45;&gt;regexes</title>
<path fill="none" stroke="#000000" d="M2041.0909,-739.7121C1967.7436,-698.8377 1808.6387,-611.4625 1750.0574,-589.5083 1615.0553,-538.9141 1450.2028,-504.8735 1353.3153,-487.5189"/>
<polygon fill="#000000" stroke="#000000" points="1353.7465,-484.0408 1343.2887,-485.7391 1352.523,-490.9331 1353.7465,-484.0408"/>
</g>
<!-- parseCmdLine&#45;&gt;warnings -->
<g id="edge26" class="edge">
<title>parseCmdLine&#45;&gt;warnings</title>
<path fill="none" stroke="#000000" d="M2054.2857,-738.8801C2006.8032,-695.8587 1900.8782,-596.8408 1824.0574,-502.4917 1804.8372,-478.8861 1803.0343,-470.7753 1786.0574,-445.5083 1730.7133,-363.1385 1665.0122,-266.3508 1632.0827,-217.9086"/>
<polygon fill="#000000" stroke="#000000" points="1634.8422,-215.7422 1626.3253,-209.4404 1629.0534,-219.678 1634.8422,-215.7422"/>
</g>
<!-- parseCmdLine&#45;&gt;opresultwarn -->
<g id="edge27" class="edge">
<title>parseCmdLine&#45;&gt;opresultwarn</title>
<path fill="none" stroke="#000000" d="M2080.2777,-738.1849C2084.0946,-666.8269 2095.8172,-447.6637 2100.2943,-363.9621"/>
<polygon fill="#000000" stroke="#000000" points="2103.8008,-363.9328 2100.84,-353.7601 2096.8108,-363.5589 2103.8008,-363.9328"/>
</g>
<!-- parseCmdLine&#45;&gt;messages -->
<g id="edge24" class="edge">
<title>parseCmdLine&#45;&gt;messages</title>
<path fill="none" stroke="#000000" d="M2184.1146,-753.5325C2340.9437,-740.4763 2626.3906,-708.7539 2706.0574,-646.4917 2772.3501,-594.6818 2784.0574,-558.1367 2784.0574,-474 2784.0574,-474 2784.0574,-474 2784.0574,-331 2784.0574,-173.7177 2254.0384,-85.7436 2032.049,-55.7948"/>
<polygon fill="#000000" stroke="#000000" points="2032.4107,-52.3121 2022.0348,-54.455 2031.4824,-59.2502 2032.4107,-52.3121"/>
</g>
<!-- parseCmdLine&#45;&gt;matches -->
<g id="edge25" class="edge">
<title>parseCmdLine&#45;&gt;matches</title>
<path fill="none" stroke="#000000" d="M2008.8124,-743.4148C1992.5264,-739.5902 1975.2273,-735.7292 1959.0574,-732.5083 1727.7859,-686.4406 1451.2615,-645.9424 1322.5759,-627.9281"/>
<polygon fill="#000000" stroke="#000000" points="1322.8381,-624.4308 1312.4501,-626.5143 1321.8701,-631.3636 1322.8381,-624.4308"/>
</g>
<!-- env -->
<g id="node7" class="node">
<title>env</title>
<g id="a_node7"><a xlink:href="env.md" xlink:title="env.md">
<ellipse fill="#eee8aa" stroke="#000000" cx="544.0574" cy="-761" rx="35.6342" ry="22.7556"/>
<text text-anchor="middle" x="544.0574" y="-753.8" font-family="Times,serif" font-size="24.00" fill="#000000">env</text>
</a>
</g>
</g>
<!-- tempFile -->
<g id="node10" class="node">
<title>tempFile</title>
<g id="a_node10"><a xlink:href="tempFile.md" xlink:title="tempFile.md">
<polygon fill="#98fb98" stroke="#000000" points="769.6554,-607.8581 769.6554,-628.1419 724.1995,-642.4846 659.9153,-642.4846 614.4594,-628.1419 614.4594,-607.8581 659.9153,-593.5154 724.1995,-593.5154 769.6554,-607.8581"/>
<polygon fill="none" stroke="#000000" points="773.6578,-604.9275 773.6578,-631.0725 724.8165,-646.4835 659.2983,-646.4835 610.457,-631.0725 610.457,-604.9275 659.2983,-589.5165 724.8165,-589.5165 773.6578,-604.9275"/>
<text text-anchor="middle" x="692.0574" y="-610.8" font-family="Times,serif" font-size="24.00" fill="#000000">tempFile</text>
</a>
</g>
</g>
<!-- env&#45;&gt;tempFile -->
<g id="edge14" class="edge">
<title>env&#45;&gt;tempFile</title>
<path fill="none" stroke="#000000" d="M563.7106,-742.0107C586.8806,-719.6235 625.8928,-681.9293 654.8375,-653.9624"/>
<polygon fill="#000000" stroke="#000000" points="657.578,-656.1814 662.3375,-646.7158 652.714,-651.1474 657.578,-656.1814"/>
</g>
<!-- env&#45;&gt;warnings -->
<g id="edge16" class="edge">
<title>env&#45;&gt;warnings</title>
<path fill="none" stroke="#000000" d="M547.1712,-738.1919C552.8539,-703.3275 567.5591,-635.945 601.0574,-589.5083 725.7097,-416.7097 789.8322,-387.8585 985.0574,-302.5083 1168.0063,-222.5251 1404.5206,-197.9055 1527.8706,-190.342"/>
<polygon fill="#000000" stroke="#000000" points="1528.2253,-193.8272 1538.0016,-189.7437 1527.8126,-186.8394 1528.2253,-193.8272"/>
</g>
<!-- args -->
<g id="node21" class="node">
<title>args</title>
<g id="a_node21"><a xlink:href="args.md" xlink:title="args.md">
<ellipse fill="#eee8aa" stroke="#000000" cx="573.0574" cy="-474" rx="39.0784" ry="22.7556"/>
<text text-anchor="middle" x="573.0574" y="-466.8" font-family="Times,serif" font-size="24.00" fill="#000000">args</text>
</a>
</g>
</g>
<!-- env&#45;&gt;args -->
<g id="edge17" class="edge">
<title>env&#45;&gt;args</title>
<path fill="none" stroke="#000000" d="M546.3816,-737.9987C551.5061,-687.2839 563.791,-565.7054 569.7304,-506.9258"/>
<polygon fill="#000000" stroke="#000000" points="573.2393,-507.0137 570.7624,-496.7124 566.2747,-506.3099 573.2393,-507.0137"/>
</g>
<!-- env&#45;&gt;messages -->
<g id="edge15" class="edge">
<title>env&#45;&gt;messages</title>
<path fill="none" stroke="#000000" d="M509.5376,-754.5307C409.1853,-735.4074 122.8586,-678.4854 95.0574,-646.4917 44.4686,-588.2741 76.0574,-551.1267 76.0574,-474 76.0574,-474 76.0574,-474 76.0574,-331 76.0574,-155.9829 261.1336,-204.2874 430.0574,-158.5083 697.8401,-85.9378 1551.9721,-55.1 1840.0949,-46.5883"/>
<polygon fill="#000000" stroke="#000000" points="1840.2105,-50.0865 1850.1036,-46.2949 1840.0054,-43.0895 1840.2105,-50.0865"/>
</g>
<!-- unicodes&#45;&gt;opresultid -->
<g id="edge64" class="edge">
<title>unicodes&#45;&gt;opresultid</title>
<path fill="none" stroke="#000000" d="M2537.1684,-453.8149C2495.7723,-428.4087 2424.6082,-384.7329 2379.2456,-356.8923"/>
<polygon fill="#000000" stroke="#000000" points="2380.8872,-353.7933 2370.5336,-351.5455 2377.2257,-359.7593 2380.8872,-353.7933"/>
</g>
<!-- utf8decoder -->
<g id="node15" class="node">
<title>utf8decoder</title>
<g id="a_node15"><a xlink:href="utf8decoder.md" xlink:title="utf8decoder.md">
<polygon fill="#98fb98" stroke="#000000" points="2675.987,-320.8581 2675.987,-341.1419 2617.4496,-355.4846 2534.6652,-355.4846 2476.1278,-341.1419 2476.1278,-320.8581 2534.6652,-306.5154 2617.4496,-306.5154 2675.987,-320.8581"/>
<polygon fill="none" stroke="#000000" points="2679.9856,-317.7208 2679.9856,-344.2792 2617.9323,-359.4835 2534.1825,-359.4835 2472.1292,-344.2792 2472.1292,-317.7208 2534.1825,-302.5165 2617.9323,-302.5165 2679.9856,-317.7208"/>
<text text-anchor="middle" x="2576.0574" y="-323.8" font-family="Times,serif" font-size="24.00" fill="#000000">utf8decoder</text>
</a>
</g>
</g>
<!-- unicodes&#45;&gt;utf8decoder -->
<g id="edge68" class="edge">
<title>unicodes&#45;&gt;utf8decoder</title>
<path fill="none" stroke="#000000" d="M2571.0081,-451.3412C2571.9229,-429.5377 2573.3248,-396.1271 2574.4195,-370.0373"/>
<polygon fill="#000000" stroke="#000000" points="2577.93,-369.8578 2574.8524,-359.7199 2570.9361,-369.5643 2577.93,-369.8578"/>
</g>
<!-- unicodes&#45;&gt;warnings -->
<g id="edge67" class="edge">
<title>unicodes&#45;&gt;warnings</title>
<path fill="none" stroke="#000000" d="M2519.4603,-457.8931C2434.689,-430.6219 2271.0395,-376.6459 2249.0574,-359.4917 2225.0591,-340.7642 2236.4123,-319.3537 2211.0574,-302.5083 2126.7674,-246.507 1834.8394,-209.8198 1691.5974,-194.7641"/>
<polygon fill="#000000" stroke="#000000" points="1691.8546,-191.2721 1681.5458,-193.7175 1691.1296,-198.2344 1691.8546,-191.2721"/>
</g>
<!-- unicodes&#45;&gt;opresultwarn -->
<g id="edge65" class="edge">
<title>unicodes&#45;&gt;opresultwarn</title>
<path fill="none" stroke="#000000" d="M2521.0193,-457.4842C2508.9558,-453.4957 2496.0574,-449.2937 2484.0574,-445.5083 2376.3177,-411.5209 2250.7267,-374.3385 2173.8132,-351.8424"/>
<polygon fill="#000000" stroke="#000000" points="2174.3341,-348.3483 2163.7538,-348.9027 2172.3706,-355.0673 2174.3341,-348.3483"/>
</g>
<!-- unicodes&#45;&gt;messages -->
<g id="edge66" class="edge">
<title>unicodes&#45;&gt;messages</title>
<path fill="none" stroke="#000000" d="M2547.6042,-452.1662C2525.125,-429.8168 2490.085,-393.6188 2463.0574,-359.4917 2444.1583,-335.6283 2445.2136,-325.3198 2425.0574,-302.5083 2360.164,-229.0659 2342.7834,-207.7671 2258.0574,-158.5083 2215.1753,-133.5771 2090.9476,-92.365 2009.927,-66.7747"/>
<polygon fill="#000000" stroke="#000000" points="2010.8585,-63.3986 2000.2689,-63.7335 2008.756,-70.0754 2010.8585,-63.3986"/>
</g>
<!-- variables -->
<g id="node9" class="node">
<title>variables</title>
<g id="a_node9"><a xlink:href="variables.md" xlink:title="variables.md">
<ellipse fill="#eee8aa" stroke="#000000" cx="864.0574" cy="-618" rx="72.6337" ry="22.7556"/>
<text text-anchor="middle" x="864.0574" y="-610.8" font-family="Times,serif" font-size="24.00" fill="#000000">variables</text>
</a>
</g>
</g>
<!-- variables&#45;&gt;vartypes -->
<g id="edge46" class="edge">
<title>variables&#45;&gt;vartypes</title>
<path fill="none" stroke="#000000" d="M927.5195,-606.8307C957.6703,-601.5438 994.2167,-595.1636 1027.0574,-589.5083 1249.1923,-551.2556 1512.2602,-506.9046 1636.3964,-486.033"/>
<polygon fill="#000000" stroke="#000000" points="1637.2509,-489.4385 1646.5323,-484.329 1636.0904,-482.5354 1637.2509,-489.4385"/>
</g>
<!-- variables&#45;&gt;warnings -->
<g id="edge49" class="edge">
<title>variables&#45;&gt;warnings</title>
<path fill="none" stroke="#000000" d="M863.4578,-595.1918C863.6313,-560.0013 868.4431,-491.7102 900.0574,-445.5083 965.9133,-349.2648 1012.8143,-348.32 1120.0574,-302.5083 1259.031,-243.142 1433.7616,-211.3246 1532.8868,-196.8917"/>
<polygon fill="#000000" stroke="#000000" points="1533.4259,-200.3503 1542.8276,-195.4658 1532.432,-193.4212 1533.4259,-200.3503"/>
</g>
<!-- variables&#45;&gt;args -->
<g id="edge50" class="edge">
<title>variables&#45;&gt;args</title>
<path fill="none" stroke="#000000" d="M823.8019,-599.0871C776.272,-576.6128 694.9661,-537.7163 626.0574,-502.4917 621.0577,-499.936 615.821,-497.1974 610.6673,-494.4655"/>
<polygon fill="#000000" stroke="#000000" points="612.019,-491.2196 601.5493,-489.5961 608.7215,-497.3942 612.019,-491.2196"/>
</g>
<!-- variables&#45;&gt;opresultwarn -->
<g id="edge51" class="edge">
<title>variables&#45;&gt;opresultwarn</title>
<path fill="none" stroke="#000000" d="M868.2732,-595.2018C876.6374,-557.0819 899.2043,-481.0902 951.0574,-445.5083 1035.9628,-387.2456 1723.7023,-348.8363 1993.764,-335.8685"/>
<polygon fill="#000000" stroke="#000000" points="1994.1508,-339.3541 2003.9724,-335.3809 1993.8168,-332.3621 1994.1508,-339.3541"/>
</g>
<!-- variables&#45;&gt;messages -->
<g id="edge48" class="edge">
<title>variables&#45;&gt;messages</title>
<path fill="none" stroke="#000000" d="M860.8252,-595.3479C856.9312,-561.5188 853.0673,-496.3381 872.0574,-445.5083 900.4066,-369.6274 917.4672,-347.1529 985.0574,-302.5083 1259.8574,-120.9977 1659.0629,-66.2942 1840.2349,-50.3229"/>
<polygon fill="#000000" stroke="#000000" points="1840.6116,-53.8035 1850.2742,-49.458 1840.0107,-46.8293 1840.6116,-53.8035"/>
</g>
<!-- version -->
<g id="node25" class="node">
<title>version</title>
<g id="a_node25"><a xlink:href="version.md" xlink:title="version.md">
<polygon fill="#98fb98" stroke="#000000" points="1969.2097,-463.8581 1969.2097,-484.1419 1930.4586,-498.4846 1875.6562,-498.4846 1836.9051,-484.1419 1836.9051,-463.8581 1875.6562,-449.5154 1930.4586,-449.5154 1969.2097,-463.8581"/>
<polygon fill="none" stroke="#000000" points="1973.1995,-461.0721 1973.1995,-486.9279 1931.1717,-502.4835 1874.943,-502.4835 1832.9153,-486.9279 1832.9153,-461.0721 1874.943,-445.5165 1931.1717,-445.5165 1973.1995,-461.0721"/>
<text text-anchor="middle" x="1903.0574" y="-466.8" font-family="Times,serif" font-size="24.00" fill="#000000">version</text>
</a>
</g>
</g>
<!-- variables&#45;&gt;version -->
<g id="edge47" class="edge">
<title>variables&#45;&gt;version</title>
<path fill="none" stroke="#000000" d="M934.1614,-611.9747C1088.8033,-598.0817 1470.5152,-560.4816 1786.0574,-502.4917 1800.9847,-499.7484 1816.8549,-496.2697 1831.9327,-492.6933"/>
<polygon fill="#000000" stroke="#000000" points="1832.808,-496.0827 1841.7087,-490.3358 1831.1668,-489.2778 1832.808,-496.0827"/>
</g>
<!-- vartypes&#45;&gt;warnings -->
<g id="edge40" class="edge">
<title>vartypes&#45;&gt;warnings</title>
<path fill="none" stroke="#000000" d="M1700.446,-451.4796C1683.3471,-400.8882 1641.8391,-278.0757 1621.9868,-219.3374"/>
<polygon fill="#000000" stroke="#000000" points="1625.2854,-218.1658 1618.7677,-209.8129 1618.6539,-220.4071 1625.2854,-218.1658"/>
</g>
<!-- vartypes&#45;&gt;opresultwarn -->
<g id="edge41" class="edge">
<title>vartypes&#45;&gt;opresultwarn</title>
<path fill="none" stroke="#000000" d="M1754.4128,-457.1756C1825.0303,-431.5454 1959.7077,-382.665 2039.1108,-353.8461"/>
<polygon fill="#000000" stroke="#000000" points="2040.7804,-356.9636 2048.9864,-350.2618 2038.3922,-350.3836 2040.7804,-356.9636"/>
</g>
<!-- replacement -->
<g id="node12" class="node">
<title>replacement</title>
<g id="a_node12"><a xlink:href="replacement.md" xlink:title="replacement.md">
<ellipse fill="#eee8aa" stroke="#000000" cx="792.0574" cy="-896" rx="94.4556" ry="22.7556"/>
<text text-anchor="middle" x="792.0574" y="-888.8" font-family="Times,serif" font-size="24.00" fill="#000000">replacement</text>
</a>
</g>
</g>
<!-- replacement&#45;&gt;parseNumber -->
<g id="edge99" class="edge">
<title>replacement&#45;&gt;parseNumber</title>
<path fill="none" stroke="#000000" d="M860.7703,-880.5138C967.178,-856.5321 1172.2022,-810.3246 1293.7854,-782.9227"/>
<polygon fill="#000000" stroke="#000000" points="1294.8517,-786.2703 1303.8375,-780.6572 1293.3126,-779.4416 1294.8517,-786.2703"/>
</g>
<!-- replacement&#45;&gt;regexes -->
<g id="edge90" class="edge">
<title>replacement&#45;&gt;regexes</title>
<path fill="none" stroke="#000000" d="M783.1672,-873.2197C771.5984,-839.4847 755.9689,-775.5982 784.0574,-732.5083 835.7844,-653.1551 903.2554,-703.2956 979.0574,-646.4917 1005.5563,-626.6342 1000.8259,-609.7178 1027.0574,-589.5083 1081.4947,-547.5681 1153.6165,-515.7787 1205.3074,-496.2706"/>
<polygon fill="#000000" stroke="#000000" points="1206.5608,-499.5388 1214.7126,-492.7713 1204.1198,-492.9781 1206.5608,-499.5388"/>
</g>
<!-- replacement&#45;&gt;parseCmdLine -->
<g id="edge93" class="edge">
<title>replacement&#45;&gt;parseCmdLine</title>
<path fill="none" stroke="#000000" d="M884.9046,-892.0133C1083.2411,-882.5153 1562.5163,-854.3256 1959.0574,-789.4917 1972.6611,-787.2676 1987.0112,-784.3603 2000.8721,-781.2542"/>
<polygon fill="#000000" stroke="#000000" points="2001.8959,-784.6104 2010.8609,-778.9642 2000.3317,-777.7874 2001.8959,-784.6104"/>
</g>
<!-- replacement&#45;&gt;env -->
<g id="edge91" class="edge">
<title>replacement&#45;&gt;env</title>
<path fill="none" stroke="#000000" d="M752.833,-875.263C712.7752,-854.0006 648.8628,-819.8413 594.0574,-789.4917 589.4237,-786.9257 584.5648,-784.2006 579.7728,-781.4923"/>
<polygon fill="#000000" stroke="#000000" points="581.1409,-778.2443 570.7166,-776.3511 577.685,-784.3318 581.1409,-778.2443"/>
</g>
<!-- replacement&#45;&gt;variables -->
<g id="edge97" class="edge">
<title>replacement&#45;&gt;variables</title>
<path fill="none" stroke="#000000" d="M766.5473,-874.0926C733.3141,-842.7621 682.3214,-783.3243 708.0574,-732.5083 729.5373,-690.0959 774.9362,-659.5838 811.2477,-640.7749"/>
<polygon fill="#000000" stroke="#000000" points="812.8994,-643.862 820.2636,-636.245 809.7567,-637.6071 812.8994,-643.862"/>
</g>
<!-- replacement&#45;&gt;tempFile -->
<g id="edge98" class="edge">
<title>replacement&#45;&gt;tempFile</title>
<path fill="none" stroke="#000000" d="M764.0959,-874.0173C741.6656,-854.5195 711.746,-823.8598 698.0574,-789.4917 680.9009,-746.4168 682.3875,-692.3321 686.1901,-656.5454"/>
<polygon fill="#000000" stroke="#000000" points="689.6782,-656.8507 687.3682,-646.5107 682.726,-656.0344 689.6782,-656.8507"/>
</g>
<!-- replacement&#45;&gt;vartypes -->
<g id="edge92" class="edge">
<title>replacement&#45;&gt;vartypes</title>
<path fill="none" stroke="#000000" d="M789.1428,-873.1659C786.0597,-838.7839 785.4408,-773.4019 818.0574,-732.5083 831.3475,-715.8455 1153.6799,-595.7558 1174.0574,-589.5083 1336.2004,-539.7968 1532.3367,-503.1803 1635.8906,-485.6161"/>
<polygon fill="#000000" stroke="#000000" points="1636.6438,-489.0386 1645.9229,-483.925 1635.4802,-482.136 1636.6438,-489.0386"/>
</g>
<!-- readlines -->
<g id="node13" class="node">
<title>readlines</title>
<g id="a_node13"><a xlink:href="readlines.md" xlink:title="readlines.md">
<polygon fill="#98fb98" stroke="#000000" points="1063.6467,-750.8581 1063.6467,-771.1419 1017.6102,-785.4846 952.5046,-785.4846 906.468,-771.1419 906.468,-750.8581 952.5046,-736.5154 1017.6102,-736.5154 1063.6467,-750.8581"/>
<polygon fill="none" stroke="#000000" points="1067.649,-747.9163 1067.649,-774.0837 1018.2197,-789.4835 951.8951,-789.4835 902.4658,-774.0837 902.4658,-747.9163 951.8951,-732.5165 1018.2197,-732.5165 1067.649,-747.9163"/>
<text text-anchor="middle" x="985.0574" y="-753.8" font-family="Times,serif" font-size="24.00" fill="#000000">readlines</text>
</a>
</g>
</g>
<!-- replacement&#45;&gt;readlines -->
<g id="edge94" class="edge">
<title>replacement&#45;&gt;readlines</title>
<path fill="none" stroke="#000000" d="M823.0662,-874.3099C854.1401,-852.5742 902.3684,-818.8395 938.1289,-793.8256"/>
<polygon fill="#000000" stroke="#000000" points="940.2857,-796.5883 946.4739,-787.9885 936.2734,-790.8523 940.2857,-796.5883"/>
</g>
<!-- replacement&#45;&gt;opresultwarn -->
<g id="edge100" class="edge">
<title>replacement&#45;&gt;opresultwarn</title>
<path fill="none" stroke="#000000" d="M779.3003,-873.4587C762.2554,-840.0285 737.2403,-776.5263 765.0574,-732.5083 812.6381,-657.2162 880.571,-706.8602 946.0574,-646.4917 967.5756,-626.6553 959.142,-610.9534 979.0574,-589.5083 1056.3169,-506.3142 1083.8755,-485.7037 1190.0574,-445.5083 1335.5171,-390.4441 1788.2452,-352.8442 1995.9598,-338.0391"/>
<polygon fill="#000000" stroke="#000000" points="1996.238,-341.5282 2005.9656,-337.33 1995.7431,-334.5457 1996.238,-341.5282"/>
</g>
<!-- replacement&#45;&gt;messages -->
<g id="edge96" class="edge">
<title>replacement&#45;&gt;messages</title>
<path fill="none" stroke="#000000" d="M720.3915,-881.2777C554.2848,-845.6789 150.537,-750.1892 64.0574,-646.4917 14.4025,-586.9507 38.0574,-551.529 38.0574,-474 38.0574,-474 38.0574,-474 38.0574,-331 38.0574,-243.0467 60.5857,-205.303 135.0574,-158.5083 279.8655,-67.5171 1487.823,-48.4407 1840.031,-44.7976"/>
<polygon fill="#000000" stroke="#000000" points="1840.236,-48.2958 1850.1999,-44.6942 1840.1648,-41.2961 1840.236,-48.2958"/>
</g>
<!-- replacement&#45;&gt;matches -->
<g id="edge95" class="edge">
<title>replacement&#45;&gt;matches</title>
<path fill="none" stroke="#000000" d="M795.2258,-873.1517C801.3338,-837.8436 818.0639,-770.1732 860.0574,-732.5083 907.5439,-689.9165 1082.4675,-650.3728 1181.1488,-630.8142"/>
<polygon fill="#000000" stroke="#000000" points="1181.9007,-634.2335 1191.0379,-628.8705 1180.5506,-627.3649 1181.9007,-634.2335"/>
</g>
<!-- funtypes&#45;&gt;vartypes -->
<g id="edge53" class="edge">
<title>funtypes&#45;&gt;vartypes</title>
<path fill="none" stroke="#000000" d="M1676.9202,-595.1828C1683.0635,-571.2736 1692.7681,-533.5041 1699.71,-506.4872"/>
<polygon fill="#000000" stroke="#000000" points="1703.1233,-507.2669 1702.2221,-496.7105 1696.3435,-505.5248 1703.1233,-507.2669"/>
</g>
<!-- funtypes&#45;&gt;warnings -->
<g id="edge54" class="edge">
<title>funtypes&#45;&gt;warnings</title>
<path fill="none" stroke="#000000" d="M1660.947,-595.5279C1651.1615,-572.6352 1636.842,-535.8558 1630.0574,-502.4917 1609.4183,-400.9968 1608.8852,-277.6582 1610.0293,-219.8628"/>
<polygon fill="#000000" stroke="#000000" points="1613.5285,-219.9313 1610.2579,-209.8539 1606.5303,-219.7713 1613.5285,-219.9313"/>
</g>
<!-- warnings&#45;&gt;messages -->
<g id="edge1" class="edge">
<title>warnings&#45;&gt;messages</title>
<path fill="none" stroke="#000000" d="M1653.2123,-168.4518C1709.4436,-143.7101 1809.415,-99.7226 1874.1946,-71.2196"/>
<polygon fill="#000000" stroke="#000000" points="1875.7439,-74.3618 1883.4874,-67.1308 1872.9247,-67.9546 1875.7439,-74.3618"/>
</g>
<!-- collectCommand -->
<g id="node17" class="node">
<title>collectCommand</title>
<g id="a_node17"><a xlink:href="collectCommand.md" xlink:title="collectCommand.md">
<ellipse fill="#eee8aa" stroke="#000000" cx="1528.0574" cy="-896" rx="127.4982" ry="22.7556"/>
<text text-anchor="middle" x="1528.0574" y="-888.8" font-family="Times,serif" font-size="24.00" fill="#000000">collectCommand</text>
</a>
</g>
</g>
<!-- collectCommand&#45;&gt;parseCmdLine -->
<g id="edge32" class="edge">
<title>collectCommand&#45;&gt;parseCmdLine</title>
<path fill="none" stroke="#000000" d="M1602.9411,-877.6528C1706.2333,-852.3453 1891.7005,-806.9041 1998.1038,-780.8344"/>
<polygon fill="#000000" stroke="#000000" points="1998.9532,-784.2299 2007.833,-778.4506 1997.2874,-777.4309 1998.9532,-784.2299"/>
</g>
<!-- collectCommand&#45;&gt;env -->
<g id="edge29" class="edge">
<title>collectCommand&#45;&gt;env</title>
<path fill="none" stroke="#000000" d="M1426.9178,-882.1241C1216.4257,-853.2457 738.4387,-787.6682 589.3434,-767.213"/>
<polygon fill="#000000" stroke="#000000" points="589.5681,-763.7111 579.1852,-765.8194 588.6166,-770.6462 589.5681,-763.7111"/>
</g>
<!-- collectCommand&#45;&gt;readlines -->
<g id="edge31" class="edge">
<title>collectCommand&#45;&gt;readlines</title>
<path fill="none" stroke="#000000" d="M1453.9777,-877.5824C1352.0621,-852.2443 1169.3543,-806.8197 1064.6269,-780.7825"/>
<polygon fill="#000000" stroke="#000000" points="1065.2898,-777.3408 1054.7407,-778.3246 1063.6008,-784.134 1065.2898,-777.3408"/>
</g>
<!-- collectCommand&#45;&gt;opresultwarn -->
<g id="edge34" class="edge">
<title>collectCommand&#45;&gt;opresultwarn</title>
<path fill="none" stroke="#000000" d="M1621.2654,-880.5042C1635.9173,-878.0975 1650.8964,-875.6542 1665.0574,-873.3726 1783.6497,-854.2651 2120.9865,-880.7834 2199.0574,-789.4917 2307.8922,-662.2266 2179.0272,-443.239 2124.324,-362.2755"/>
<polygon fill="#000000" stroke="#000000" points="2126.8837,-359.8186 2118.3476,-353.5428 2121.107,-363.772 2126.8837,-359.8186"/>
</g>
<!-- collectCommand&#45;&gt;messages -->
<g id="edge33" class="edge">
<title>collectCommand&#45;&gt;messages</title>
<path fill="none" stroke="#000000" d="M1620.8803,-880.4656C1635.6517,-878.0522 1650.7684,-875.6169 1665.0574,-873.3726 2150.4537,-797.1332 2375.9656,-968.5366 2747.0574,-646.4917 2810.1937,-591.7001 2822.0574,-557.5962 2822.0574,-474 2822.0574,-474 2822.0574,-474 2822.0574,-331 2822.0574,-274.5244 2967.3796,-315.0296 2622.0574,-158.5083 2518.3096,-111.4833 2194.8637,-71.575 2031.9135,-53.8365"/>
<polygon fill="#000000" stroke="#000000" points="2032.2116,-50.3484 2021.8929,-52.7516 2031.458,-57.3077 2032.2116,-50.3484"/>
</g>
<!-- collectCommand&#45;&gt;matches -->
<g id="edge30" class="edge">
<title>collectCommand&#45;&gt;matches</title>
<path fill="none" stroke="#000000" d="M1533.0365,-873.1982C1539.0967,-839.1497 1545.1327,-774.535 1515.0574,-732.5083 1470.437,-670.1565 1384.5106,-641.4339 1322.5809,-628.4141"/>
<polygon fill="#000000" stroke="#000000" points="1322.9661,-624.9216 1312.4724,-626.3826 1321.5868,-631.7844 1322.9661,-624.9216"/>
</g>
<!-- statictea -->
<g id="node18" class="node">
<title>statictea</title>
<g id="a_node18"><a xlink:href="statictea.md" xlink:title="statictea.md">
<polygon fill="#eee8aa" stroke="#000000" points="1797.1532,-1289.3667 1880.0574,-1270.0619 1962.9616,-1289.3667 1962.8842,-1320.6024 1797.2305,-1320.6024 1797.1532,-1289.3667"/>
<text text-anchor="middle" x="1880.0574" y="-1290.8" font-family="Times,serif" font-size="24.00" fill="#000000">statictea</text>
</a>
</g>
</g>
<!-- statictea&#45;&gt;env -->
<g id="edge108" class="edge">
<title>statictea&#45;&gt;env</title>
<path fill="none" stroke="#000000" d="M1797.1424,-1293.9276C1537.8636,-1279.4111 749.6857,-1221.2032 581.0574,-1043.6274 516.2569,-975.3885 527.3113,-852.5771 537.2828,-793.923"/>
<polygon fill="#000000" stroke="#000000" points="540.7878,-794.2069 539.1136,-783.7452 533.8984,-792.9676 540.7878,-794.2069"/>
</g>
<!-- gethelp -->
<g id="node19" class="node">
<title>gethelp</title>
<g id="a_node19"><a xlink:href="gethelp.md" xlink:title="gethelp.md">
<polygon fill="#98fb98" stroke="#000000" points="2781.1923,-1144.8581 2781.1923,-1165.1419 2742.4514,-1179.4846 2687.6634,-1179.4846 2648.9225,-1165.1419 2648.9225,-1144.8581 2687.6634,-1130.5154 2742.4514,-1130.5154 2781.1923,-1144.8581"/>
<polygon fill="none" stroke="#000000" points="2785.1816,-1142.0722 2785.1816,-1167.9278 2743.1645,-1183.4835 2686.9502,-1183.4835 2644.9332,-1167.9278 2644.9332,-1142.0722 2686.9502,-1126.5165 2743.1645,-1126.5165 2785.1816,-1142.0722"/>
<text text-anchor="middle" x="2715.0574" y="-1147.8" font-family="Times,serif" font-size="24.00" fill="#000000">gethelp</text>
</a>
</g>
</g>
<!-- statictea&#45;&gt;gethelp -->
<g id="edge106" class="edge">
<title>statictea&#45;&gt;gethelp</title>
<path fill="none" stroke="#000000" d="M1962.9382,-1290.1756C2102.3333,-1275.9485 2391.9256,-1241.7983 2631.0574,-1183.4917 2638.0517,-1181.7863 2645.2928,-1179.7536 2652.4572,-1177.5701"/>
<polygon fill="#000000" stroke="#000000" points="2653.6636,-1180.8596 2662.149,-1174.5155 2651.5594,-1174.1834 2653.6636,-1180.8596"/>
</g>
<!-- statictea&#45;&gt;args -->
<g id="edge104" class="edge">
<title>statictea&#45;&gt;args</title>
<path fill="none" stroke="#000000" d="M1796.9501,-1292.5066C1568.2457,-1276.9483 933.0246,-1230.648 729.0574,-1183.4917 526.7625,-1136.7221 291.0574,-1228.631 291.0574,-1021 291.0574,-1021 291.0574,-1021 291.0574,-896 291.0574,-803.781 479.5765,-580.2526 548.3396,-501.7871"/>
<polygon fill="#000000" stroke="#000000" points="551.0123,-504.0479 554.988,-494.2272 545.7558,-499.4251 551.0123,-504.0479"/>
</g>
<!-- statictea&#45;&gt;opresultwarn -->
<g id="edge109" class="edge">
<title>statictea&#45;&gt;opresultwarn</title>
<path fill="none" stroke="#000000" d="M1953.8434,-1287.1626C2077.3346,-1268.107 2319.6684,-1226.5228 2394.0574,-1183.4917 2466.9972,-1141.299 2487.2111,-1120.3489 2522.0574,-1043.6274 2636.4942,-791.6709 2542.5622,-643.3308 2349.0574,-445.5083 2302.6187,-398.0333 2232.7509,-368.1777 2179.1608,-350.9017"/>
<polygon fill="#000000" stroke="#000000" points="2179.9425,-347.4787 2169.3532,-347.8209 2177.8446,-354.157 2179.9425,-347.4787"/>
</g>
<!-- statictea&#45;&gt;messages -->
<g id="edge105" class="edge">
<title>statictea&#45;&gt;messages</title>
<path fill="none" stroke="#000000" d="M1962.7864,-1292.3968C2175.3643,-1277.3368 2728.6535,-1233.7099 2794.0574,-1183.4917 2855.8835,-1136.0207 2860.0574,-1098.9485 2860.0574,-1021 2860.0574,-1021 2860.0574,-1021 2860.0574,-331 2860.0574,-288.7487 2981.1826,-304.778 2694.0574,-158.5083 2579.9806,-100.3943 2209.2569,-64.9555 2032.0684,-50.9321"/>
<polygon fill="#000000" stroke="#000000" points="2032.2146,-47.4329 2021.9714,-50.1396 2031.6668,-54.4114 2032.2146,-47.4329"/>
</g>
<!-- statictea&#45;&gt;version -->
<g id="edge107" class="edge">
<title>statictea&#45;&gt;version</title>
<path fill="none" stroke="#000000" d="M1962.8399,-1291.9628C2101.3812,-1276.8822 2376.9128,-1224.4966 2498.0574,-1043.6274 2666.3464,-792.3714 2150.6146,-567.5295 1966.0887,-496.9062"/>
<polygon fill="#000000" stroke="#000000" points="1967.0988,-493.5458 1956.5077,-493.2641 1964.6114,-500.0891 1967.0988,-493.5458"/>
</g>
<!-- parseCommandLine -->
<g id="node27" class="node">
<title>parseCommandLine</title>
<g id="a_node27"><a xlink:href="parseCommandLine.md" xlink:title="parseCommandLine.md">
<ellipse fill="#eee8aa" stroke="#000000" cx="253.0574" cy="-618" rx="148.8522" ry="22.7556"/>
<text text-anchor="middle" x="253.0574" y="-610.8" font-family="Times,serif" font-size="24.00" fill="#000000">parseCommandLine</text>
</a>
</g>
</g>
<!-- statictea&#45;&gt;parseCommandLine -->
<g id="edge11" class="edge">
<title>statictea&#45;&gt;parseCommandLine</title>
<path fill="none" stroke="#000000" d="M1797.2108,-1294.9388C1476.7364,-1282.7326 333.3161,-1235.6646 277.0574,-1183.4917 223.53,-1133.8519 253.0574,-1094.002 253.0574,-1021 253.0574,-1021 253.0574,-1021 253.0574,-896 253.0574,-807.4593 253.0574,-703.0565 253.0574,-650.9931"/>
<polygon fill="#000000" stroke="#000000" points="256.5575,-650.7023 253.0574,-640.7023 249.5575,-650.7023 256.5575,-650.7023"/>
</g>
<!-- processTemplate -->
<g id="node28" class="node">
<title>processTemplate</title>
<g id="a_node28"><a xlink:href="processTemplate.md" xlink:title="processTemplate.md">
<ellipse fill="#eee8aa" stroke="#000000" cx="1102.0574" cy="-1155" rx="125.2054" ry="22.7556"/>
<text text-anchor="middle" x="1102.0574" y="-1147.8" font-family="Times,serif" font-size="24.00" fill="#000000">processTemplate</text>
</a>
</g>
</g>
<!-- statictea&#45;&gt;processTemplate -->
<g id="edge103" class="edge">
<title>statictea&#45;&gt;processTemplate</title>
<path fill="none" stroke="#000000" d="M1812.7144,-1285.6221C1674.8664,-1260.2849 1360.056,-1202.4213 1199.7513,-1172.9566"/>
<polygon fill="#000000" stroke="#000000" points="1200.3565,-1169.5093 1189.8885,-1171.1438 1199.091,-1176.3939 1200.3565,-1169.5093"/>
</g>
<!-- signatures&#45;&gt;vartypes -->
<g id="edge70" class="edge">
<title>signatures&#45;&gt;vartypes</title>
<path fill="none" stroke="#000000" d="M1859.5388,-738.3984C1843.8807,-705.2075 1813.0563,-641.5778 1783.0574,-589.5083 1766.0173,-559.9315 1744.6584,-527.4208 1729.0968,-504.4465"/>
<polygon fill="#000000" stroke="#000000" points="1731.9586,-502.4306 1723.4376,-496.1342 1726.1723,-506.3701 1731.9586,-502.4306"/>
</g>
<!-- signatures&#45;&gt;funtypes -->
<g id="edge71" class="edge">
<title>signatures&#45;&gt;funtypes</title>
<path fill="none" stroke="#000000" d="M1840.6943,-739.8999C1805.5145,-714.6199 1746.5344,-672.2373 1708.2147,-644.7009"/>
<polygon fill="#000000" stroke="#000000" points="1710.0572,-641.7151 1699.894,-638.7218 1705.9723,-647.3996 1710.0572,-641.7151"/>
</g>
<!-- signatures&#45;&gt;messages -->
<g id="edge72" class="edge">
<title>signatures&#45;&gt;messages</title>
<path fill="none" stroke="#000000" d="M1883.5861,-738.532C1908.9677,-694.9156 1962.8945,-594.9246 1982.0574,-502.4917 1987.1986,-477.6931 1985.2199,-470.636 1982.0574,-445.5083 1977.1299,-406.357 1966.4672,-398.4278 1960.0574,-359.4917 1943.8116,-260.8078 1938.5345,-142.9133 1936.8414,-83.0491"/>
<polygon fill="#000000" stroke="#000000" points="1940.3365,-82.8144 1936.5736,-72.9104 1933.339,-82.9993 1940.3365,-82.8144"/>
</g>
<!-- args&#45;&gt;warnings -->
<g id="edge2" class="edge">
<title>args&#45;&gt;warnings</title>
<path fill="none" stroke="#000000" d="M577.9301,-451.4242C587.3695,-413.66 611.976,-338.3042 664.0574,-302.5083 734.8085,-253.8805 1312.128,-208.2539 1529.0699,-192.6638"/>
<polygon fill="#000000" stroke="#000000" points="1529.4,-196.1492 1539.1246,-191.9443 1528.9002,-189.1671 1529.4,-196.1492"/>
</g>
<!-- args&#45;&gt;opresultwarn -->
<g id="edge5" class="edge">
<title>args&#45;&gt;opresultwarn</title>
<path fill="none" stroke="#000000" d="M612.0028,-470.3576C808.7313,-451.9586 1695.7338,-369.0015 1999.5757,-340.5846"/>
<polygon fill="#000000" stroke="#000000" points="2000.0707,-344.0537 2009.7013,-339.6376 1999.4188,-337.0841 2000.0707,-344.0537"/>
</g>
<!-- opresultwarn&#45;&gt;warnings -->
<g id="edge3" class="edge">
<title>opresultwarn&#45;&gt;warnings</title>
<path fill="none" stroke="#000000" d="M2040.8647,-313.0535C1947.1367,-285.565 1768.945,-233.3051 1674.1122,-205.4927"/>
<polygon fill="#000000" stroke="#000000" points="1674.9455,-202.0897 1664.3647,-202.6339 1672.9755,-208.8068 1674.9455,-202.0897"/>
</g>
<!-- opresultwarn&#45;&gt;opresult -->
<g id="edge4" class="edge">
<title>opresultwarn&#45;&gt;opresult</title>
<path fill="none" stroke="#000000" d="M2107.2863,-308.1828C2112.3563,-286.0592 2120.1459,-252.0682 2126.1864,-225.7099"/>
<polygon fill="#000000" stroke="#000000" points="2129.6667,-226.1915 2128.4889,-215.6623 2122.8435,-224.6278 2129.6667,-226.1915"/>
</g>
<!-- matches&#45;&gt;regexes -->
<g id="edge20" class="edge">
<title>matches&#45;&gt;regexes</title>
<path fill="none" stroke="#000000" d="M1253.3849,-595.1828C1256.6113,-573.0592 1261.5683,-539.0682 1265.4122,-512.7099"/>
<polygon fill="#000000" stroke="#000000" points="1268.8977,-513.0628 1266.8775,-502.6623 1261.9709,-512.0526 1268.8977,-513.0628"/>
</g>
<!-- matches&#45;&gt;args -->
<g id="edge19" class="edge">
<title>matches&#45;&gt;args</title>
<path fill="none" stroke="#000000" d="M1193.211,-605.9086C1062.2336,-578.0493 741.194,-509.7632 620.2147,-484.0305"/>
<polygon fill="#000000" stroke="#000000" points="620.6655,-480.5482 610.1561,-481.891 619.2091,-487.395 620.6655,-480.5482"/>
</g>
<!-- readjson -->
<g id="node26" class="node">
<title>readjson</title>
<g id="a_node26"><a xlink:href="readjson.md" xlink:title="readjson.md">
<ellipse fill="#eee8aa" stroke="#000000" cx="2628.0574" cy="-618" rx="68.6102" ry="22.7556"/>
<text text-anchor="middle" x="2628.0574" y="-610.8" font-family="Times,serif" font-size="24.00" fill="#000000">readjson</text>
</a>
</g>
</g>
<!-- readjson&#45;&gt;unicodes -->
<g id="edge80" class="edge">
<title>readjson&#45;&gt;unicodes</title>
<path fill="none" stroke="#000000" d="M2618.9949,-595.5C2609.3472,-571.5471 2593.9935,-533.4276 2583.0579,-506.2772"/>
<polygon fill="#000000" stroke="#000000" points="2586.2304,-504.7854 2579.2477,-496.8172 2579.7373,-507.4008 2586.2304,-504.7854"/>
</g>
<!-- readjson&#45;&gt;vartypes -->
<g id="edge77" class="edge">
<title>readjson&#45;&gt;vartypes</title>
<path fill="none" stroke="#000000" d="M2562.5587,-610.7999C2425.0358,-595.198 2096.4212,-555.373 1824.0574,-502.4917 1806.8698,-499.1547 1788.4019,-494.9197 1771.3677,-490.742"/>
<polygon fill="#000000" stroke="#000000" points="1772.0733,-487.311 1761.5244,-488.2962 1770.3852,-494.1044 1772.0733,-487.311"/>
</g>
<!-- readjson&#45;&gt;utf8decoder -->
<g id="edge81" class="edge">
<title>readjson&#45;&gt;utf8decoder</title>
<path fill="none" stroke="#000000" d="M2636.9469,-595.4755C2648.8189,-562.0827 2666.6473,-497.7641 2651.0574,-445.5083 2642.5405,-416.9606 2624.3804,-388.9135 2608.0637,-367.7223"/>
<polygon fill="#000000" stroke="#000000" points="2610.6377,-365.3346 2601.6902,-359.6606 2605.1465,-369.6759 2610.6377,-365.3346"/>
</g>
<!-- readjson&#45;&gt;warnings -->
<g id="edge79" class="edge">
<title>readjson&#45;&gt;warnings</title>
<path fill="none" stroke="#000000" d="M2643.4568,-595.5535C2680.397,-538.7112 2765.4958,-387.5746 2689.0574,-302.5083 2655.7455,-265.4362 1939.4489,-210.6269 1693.2753,-192.8179"/>
<polygon fill="#000000" stroke="#000000" points="1693.188,-189.3026 1682.962,-192.0736 1692.684,-196.2844 1693.188,-189.3026"/>
</g>
<!-- readjson&#45;&gt;opresultwarn -->
<g id="edge82" class="edge">
<title>readjson&#45;&gt;opresultwarn</title>
<path fill="none" stroke="#000000" d="M2599.5187,-597.3884C2570.203,-575.529 2524.0385,-539.1537 2489.0574,-502.4917 2467.155,-479.5369 2471.8272,-464.0165 2446.0574,-445.5083 2402.6758,-414.351 2265.6332,-374.1805 2178.1756,-350.6397"/>
<polygon fill="#000000" stroke="#000000" points="2178.858,-347.1992 2168.293,-347.9936 2177.0474,-353.961 2178.858,-347.1992"/>
</g>
<!-- readjson&#45;&gt;messages -->
<g id="edge78" class="edge">
<title>readjson&#45;&gt;messages</title>
<path fill="none" stroke="#000000" d="M2651.9443,-596.4174C2673.6728,-575.0356 2704.2439,-540.1154 2717.0574,-502.4917 2729.558,-465.7867 2745.918,-344.5745 2716.0574,-302.5083 2634.5769,-187.7222 2215.2053,-96.2895 2027.3059,-60.4165"/>
<polygon fill="#000000" stroke="#000000" points="2027.9228,-56.9712 2017.4454,-58.5444 2026.6171,-63.8483 2027.9228,-56.9712"/>
</g>
<!-- parseCommandLine&#45;&gt;regexes -->
<g id="edge9" class="edge">
<title>parseCommandLine&#45;&gt;regexes</title>
<path fill="none" stroke="#000000" d="M362.4844,-602.5211C567.7372,-573.4873 1006.2279,-511.4611 1188.7169,-485.6474"/>
<polygon fill="#000000" stroke="#000000" points="1189.378,-489.0888 1198.7892,-484.2226 1188.3975,-482.1578 1189.378,-489.0888"/>
</g>
<!-- parseCommandLine&#45;&gt;cmdline -->
<g id="edge10" class="edge">
<title>parseCommandLine&#45;&gt;cmdline</title>
<path fill="none" stroke="#000000" d="M253.0574,-595.1828C253.0574,-573.0592 253.0574,-539.0682 253.0574,-512.7099"/>
<polygon fill="#000000" stroke="#000000" points="256.5575,-512.6623 253.0574,-502.6623 249.5575,-512.6624 256.5575,-512.6623"/>
</g>
<!-- parseCommandLine&#45;&gt;warnings -->
<g id="edge8" class="edge">
<title>parseCommandLine&#45;&gt;warnings</title>
<path fill="none" stroke="#000000" d="M279.8195,-595.6344C307.3781,-572.5181 351.4817,-535.2869 389.0574,-502.4917 489.3565,-414.953 490.6676,-357.1659 612.0574,-302.5083 775.3484,-228.9839 1318.4266,-199.1228 1527.7686,-190.1598"/>
<polygon fill="#000000" stroke="#000000" points="1527.9391,-193.6558 1537.7822,-189.7361 1527.6432,-186.6621 1527.9391,-193.6558"/>
</g>
<!-- parseCommandLine&#45;&gt;args -->
<g id="edge6" class="edge">
<title>parseCommandLine&#45;&gt;args</title>
<path fill="none" stroke="#000000" d="M300.9646,-596.4417C363.8904,-568.1251 473.3017,-518.8901 532.3966,-492.2974"/>
<polygon fill="#000000" stroke="#000000" points="534.0986,-495.3696 541.7815,-488.0741 531.226,-488.9861 534.0986,-495.3696"/>
</g>
<!-- parseCommandLine&#45;&gt;messages -->
<g id="edge7" class="edge">
<title>parseCommandLine&#45;&gt;messages</title>
<path fill="none" stroke="#000000" d="M271.5714,-595.5014C289.6518,-572.887 317.261,-536.5861 337.0574,-502.4917 421.2572,-357.4785 354.9308,-255.0212 492.0574,-158.5083 601.9574,-81.1581 1535.114,-53.1447 1840.0664,-46.0061"/>
<polygon fill="#000000" stroke="#000000" points="1840.2959,-49.5019 1850.2121,-45.7709 1840.1336,-42.5037 1840.2959,-49.5019"/>
</g>
<!-- processTemplate&#45;&gt;parseCmdLine -->
<g id="edge28" class="edge">
<title>processTemplate&#45;&gt;parseCmdLine</title>
<path fill="none" stroke="#000000" d="M1188.875,-1138.6909C1335.4164,-1108.9367 1638.5901,-1037.6943 1871.0574,-918.6274 1939.767,-883.4352 2009.1523,-825.2652 2047.8785,-790.2918"/>
<polygon fill="#000000" stroke="#000000" points="2050.6304,-792.5194 2055.6656,-783.1975 2045.9162,-787.3448 2050.6304,-792.5194"/>
</g>
<!-- processTemplate&#45;&gt;env -->
<g id="edge18" class="edge">
<title>processTemplate&#45;&gt;env</title>
<path fill="none" stroke="#000000" d="M994.912,-1143.2998C869.1402,-1127.4152 670.9599,-1094.9709 618.0574,-1043.6274 548.8421,-976.4519 541.6242,-853.124 542.4895,-794.134"/>
<polygon fill="#000000" stroke="#000000" points="545.9941,-793.9761 542.732,-783.896 538.996,-793.8103 545.9941,-793.9761"/>
</g>
<!-- processTemplate&#45;&gt;variables -->
<g id="edge87" class="edge">
<title>processTemplate&#45;&gt;variables</title>
<path fill="none" stroke="#000000" d="M1022.2653,-1137.4914C921.4395,-1110.4131 753.3122,-1047.4469 689.0574,-918.6274 672.0984,-884.6277 658.4442,-802.4424 698.0574,-732.5083 722.5549,-689.2598 770.9335,-658.7633 809.172,-640.176"/>
<polygon fill="#000000" stroke="#000000" points="811.1012,-643.1361 818.6545,-635.7065 808.1167,-636.8042 811.1012,-643.1361"/>
</g>
<!-- processTemplate&#45;&gt;vartypes -->
<g id="edge88" class="edge">
<title>processTemplate&#45;&gt;vartypes</title>
<path fill="none" stroke="#000000" d="M1200.5087,-1141.0181C1309.2746,-1124.0866 1488.7934,-1091.7227 1638.0574,-1043.6274 1768.1585,-1001.7067 1794.5484,-975.0293 1919.0574,-918.6274 2043.8885,-862.0797 2125.1821,-904.9166 2199.0574,-789.4917 2212.7099,-768.1607 2212.1454,-754.1902 2199.0574,-732.5083 2149.6049,-650.5841 1881.2109,-540.1304 1763.4698,-494.7643"/>
<polygon fill="#000000" stroke="#000000" points="1764.4954,-491.409 1753.9052,-491.0946 1761.9879,-497.9445 1764.4954,-491.409"/>
</g>
<!-- processTemplate&#45;&gt;replacement -->
<g id="edge101" class="edge">
<title>processTemplate&#45;&gt;replacement</title>
<path fill="none" stroke="#000000" d="M1050.9001,-1134.32C1007.5791,-1115.1414 945.458,-1083.5704 900.0574,-1043.6274 861.5397,-1009.7399 828.6261,-959.8312 809.5829,-927.6176"/>
<polygon fill="#000000" stroke="#000000" points="812.4085,-925.5141 804.3569,-918.6277 806.3567,-929.0321 812.4085,-925.5141"/>
</g>
<!-- processTemplate&#45;&gt;readlines -->
<g id="edge22" class="edge">
<title>processTemplate&#45;&gt;readlines</title>
<path fill="none" stroke="#000000" d="M1095.3467,-1132.4017C1076.1154,-1067.6397 1020.6412,-880.8292 996.5037,-799.5457"/>
<polygon fill="#000000" stroke="#000000" points="999.7858,-798.3031 993.5839,-789.7132 993.0755,-800.2958 999.7858,-798.3031"/>
</g>
<!-- processTemplate&#45;&gt;collectCommand -->
<g id="edge35" class="edge">
<title>processTemplate&#45;&gt;collectCommand</title>
<path fill="none" stroke="#000000" d="M1149.5818,-1133.8791C1195.3562,-1112.9086 1266.0075,-1078.8764 1324.0574,-1043.6274 1385.6321,-1006.2381 1452.4585,-955.818 1492.265,-924.6329"/>
<polygon fill="#000000" stroke="#000000" points="1494.6423,-927.2159 1500.3375,-918.2819 1490.3141,-921.7144 1494.6423,-927.2159"/>
</g>
<!-- processTemplate&#45;&gt;args -->
<g id="edge12" class="edge">
<title>processTemplate&#45;&gt;args</title>
<path fill="none" stroke="#000000" d="M991.4103,-1144.3168C856.8598,-1129.1729 640.3435,-1097.1809 581.0574,-1043.6274 474.943,-947.7736 479.1879,-874.1184 499.0574,-732.5083 510.8056,-648.7784 542.9704,-554.1305 560.7823,-505.9236"/>
<polygon fill="#000000" stroke="#000000" points="564.1332,-506.9549 564.3527,-496.3623 557.5755,-504.506 564.1332,-506.9549"/>
</g>
<!-- processTemplate&#45;&gt;opresultwarn -->
<g id="edge102" class="edge">
<title>processTemplate&#45;&gt;opresultwarn</title>
<path fill="none" stroke="#000000" d="M1206.5724,-1142.5053C1328.9214,-1126.359 1536.8624,-1094.1662 1710.0574,-1043.6274 1995.5459,-960.3211 2129.5769,-1010.0618 2329.0574,-789.4917 2431.7017,-675.9957 2416.0184,-559.6186 2314.0574,-445.5083 2274.944,-401.7343 2215.008,-371.5428 2168.8313,-353.1964"/>
<polygon fill="#000000" stroke="#000000" points="2170.0836,-349.9281 2159.4947,-349.5727 2167.5507,-356.4539 2170.0836,-349.9281"/>
</g>
<!-- processTemplate&#45;&gt;messages -->
<g id="edge13" class="edge">
<title>processTemplate&#45;&gt;messages</title>
<path fill="none" stroke="#000000" d="M984.0781,-1147.4192C866.1915,-1136.3102 681.9851,-1109.2083 536.0574,-1043.6274 218.9795,-901.1306 .0574,-821.6259 .0574,-474 .0574,-474 .0574,-474 .0574,-331 .0574,-249.0745 -.8609,-207.1556 65.0574,-158.5083 137.0867,-105.3509 1467.8679,-58.9678 1840.0626,-46.9933"/>
<polygon fill="#000000" stroke="#000000" points="1840.382,-50.4849 1850.2646,-46.6659 1840.1574,-43.4885 1840.382,-50.4849"/>
</g>
<!-- processTemplate&#45;&gt;matches -->
<g id="edge21" class="edge">
<title>processTemplate&#45;&gt;matches</title>
<path fill="none" stroke="#000000" d="M1084.5296,-1132.5088C1025.5714,-1055.5994 840.9741,-803.911 893.0574,-732.5083 910.7651,-708.2321 1088.6755,-659.3986 1186.46,-634.0663"/>
<polygon fill="#000000" stroke="#000000" points="1187.4337,-637.4297 1196.2416,-631.5414 1185.6841,-630.6519 1187.4337,-637.4297"/>
</g>
<!-- processTemplate&#45;&gt;readjson -->
<g id="edge89" class="edge">
<title>processTemplate&#45;&gt;readjson</title>
<path fill="none" stroke="#000000" d="M1226.8914,-1152.9494C1550.8612,-1146.531 2400.1627,-1122.3045 2498.0574,-1043.6274 2621.111,-944.7304 2630.5498,-732.56 2629.3466,-650.9358"/>
<polygon fill="#000000" stroke="#000000" points="2632.842,-650.6762 2629.1295,-640.7531 2625.8435,-650.8255 2632.842,-650.6762"/>
</g>
<!-- runCommand -->
<g id="node30" class="node">
<title>runCommand</title>
<g id="a_node30"><a xlink:href="runCommand.md" xlink:title="runCommand.md">
<ellipse fill="#eee8aa" stroke="#000000" cx="1210.0574" cy="-1021" rx="104.7872" ry="22.7556"/>
<text text-anchor="middle" x="1210.0574" y="-1013.8" font-family="Times,serif" font-size="24.00" fill="#000000">runCommand</text>
</a>
</g>
</g>
<!-- processTemplate&#45;&gt;runCommand -->
<g id="edge86" class="edge">
<title>processTemplate&#45;&gt;runCommand</title>
<path fill="none" stroke="#000000" d="M1120.1342,-1132.5714C1138.0456,-1110.348 1165.6073,-1076.1511 1185.496,-1051.4744"/>
<polygon fill="#000000" stroke="#000000" points="1188.3714,-1053.4841 1191.9216,-1043.5018 1182.9213,-1049.0914 1188.3714,-1053.4841"/>
</g>
<!-- runCommand&#45;&gt;runFunction -->
<g id="edge76" class="edge">
<title>runCommand&#45;&gt;runFunction</title>
<path fill="none" stroke="#000000" d="M1283.0061,-1004.6584C1387.9981,-981.1387 1580.9488,-937.915 1689.1554,-913.6752"/>
<polygon fill="#000000" stroke="#000000" points="1690.0435,-917.0631 1699.0366,-911.4617 1688.5133,-910.2323 1690.0435,-917.0631"/>
</g>
<!-- runCommand&#45;&gt;parseNumber -->
<g id="edge45" class="edge">
<title>runCommand&#45;&gt;parseNumber</title>
<path fill="none" stroke="#000000" d="M1225.8033,-998.3815C1257.0717,-953.4657 1327.2539,-852.6514 1365.3226,-797.9672"/>
<polygon fill="#000000" stroke="#000000" points="1368.3048,-799.8092 1371.1457,-789.6024 1362.5598,-795.8098 1368.3048,-799.8092"/>
</g>
<!-- runCommand&#45;&gt;regexes -->
<g id="edge38" class="edge">
<title>runCommand&#45;&gt;regexes</title>
<path fill="none" stroke="#000000" d="M1235.7393,-999.0372C1270.5038,-969.5711 1334.7862,-916.0139 1392.0574,-873.3726 1445.1306,-833.8568 1484.1423,-847.9941 1515.0574,-789.4917 1526.8901,-767.1 1524.4106,-756.0439 1515.0574,-732.5083 1504.1393,-705.0347 1372.865,-573.8602 1307.5239,-509.6165"/>
<polygon fill="#000000" stroke="#000000" points="1309.8611,-507.0061 1300.2738,-502.4967 1304.9564,-512.0006 1309.8611,-507.0061"/>
</g>
<!-- runCommand&#45;&gt;env -->
<g id="edge39" class="edge">
<title>runCommand&#45;&gt;env</title>
<path fill="none" stroke="#000000" d="M1118.4359,-1009.9739C989.2923,-993.2628 761.3898,-959.1404 689.0574,-918.6274 633.4305,-887.4711 587.2698,-827.3351 562.8503,-791.0183"/>
<polygon fill="#000000" stroke="#000000" points="565.5467,-788.7497 557.1179,-782.3306 559.704,-792.6049 565.5467,-788.7497"/>
</g>
<!-- runCommand&#45;&gt;variables -->
<g id="edge52" class="edge">
<title>runCommand&#45;&gt;variables</title>
<path fill="none" stroke="#000000" d="M1184.4692,-998.7388C1164.0028,-979.5316 1136.1555,-949.9986 1120.0574,-918.6274 1081.2971,-843.0932 1128.5914,-799.9769 1077.0574,-732.5083 1039.983,-683.9701 976.2606,-653.6192 928.1493,-636.4595"/>
<polygon fill="#000000" stroke="#000000" points="929.0365,-633.0629 918.4418,-633.0992 926.7467,-639.6778 929.0365,-633.0629"/>
</g>
<!-- runCommand&#45;&gt;vartypes -->
<g id="edge42" class="edge">
<title>runCommand&#45;&gt;vartypes</title>
<path fill="none" stroke="#000000" d="M1206.2254,-998.3251C1198.7052,-946.2003 1187.3974,-815.9305 1245.0574,-732.5083 1297.0009,-657.3566 1546.6786,-543.3593 1656.282,-495.9149"/>
<polygon fill="#000000" stroke="#000000" points="1657.7041,-499.1132 1665.5001,-491.9387 1654.9316,-492.6857 1657.7041,-499.1132"/>
</g>
<!-- runCommand&#45;&gt;readlines -->
<g id="edge36" class="edge">
<title>runCommand&#45;&gt;readlines</title>
<path fill="none" stroke="#000000" d="M1176.9354,-999.3283C1149.4138,-980.2567 1110.3274,-950.6063 1082.0574,-918.6274 1049.3762,-881.6587 1020.9999,-832.3234 1003.5234,-798.7601"/>
<polygon fill="#000000" stroke="#000000" points="1006.5704,-797.0318 998.8886,-789.7351 1000.3435,-800.2296 1006.5704,-797.0318"/>
</g>
<!-- runCommand&#45;&gt;funtypes -->
<g id="edge55" class="edge">
<title>runCommand&#45;&gt;funtypes</title>
<path fill="none" stroke="#000000" d="M1213.1573,-998.3121C1222.1721,-933.7197 1248.8889,-752.2139 1267.0574,-732.5083 1311.5935,-684.2042 1493.6963,-647.1541 1597.5676,-629.4569"/>
<polygon fill="#000000" stroke="#000000" points="1598.3966,-632.8667 1607.676,-627.7537 1597.2334,-625.964 1598.3966,-632.8667"/>
</g>
<!-- runCommand&#45;&gt;warnings -->
<g id="edge44" class="edge">
<title>runCommand&#45;&gt;warnings</title>
<path fill="none" stroke="#000000" d="M1198.6794,-998.3472C1177.478,-953.9771 1134.0574,-851.9988 1134.0574,-761 1134.0574,-761 1134.0574,-761 1134.0574,-474 1134.0574,-289.9044 1398.1472,-220.8738 1533.3216,-197.5983"/>
<polygon fill="#000000" stroke="#000000" points="1533.9393,-201.0437 1543.2215,-195.9358 1532.7799,-194.1404 1533.9393,-201.0437"/>
</g>
<!-- runCommand&#45;&gt;collectCommand -->
<g id="edge84" class="edge">
<title>runCommand&#45;&gt;collectCommand</title>
<path fill="none" stroke="#000000" d="M1260.7971,-1001.0552C1316.5568,-979.137 1406.1451,-943.9215 1466.034,-920.3803"/>
<polygon fill="#000000" stroke="#000000" points="1467.3547,-923.6219 1475.381,-916.7061 1464.7938,-917.1071 1467.3547,-923.6219"/>
</g>
<!-- runCommand&#45;&gt;opresultwarn -->
<g id="edge85" class="edge">
<title>runCommand&#45;&gt;opresultwarn</title>
<path fill="none" stroke="#000000" d="M1310.6584,-1014.4729C1554.4512,-996.4299 2166.3249,-937.0957 2296.0574,-789.4917 2397.069,-674.5651 2372.3386,-569.0428 2282.0574,-445.5083 2251.7472,-404.0339 2201.445,-373.8883 2161.7103,-354.9699"/>
<polygon fill="#000000" stroke="#000000" points="2163.1756,-351.7914 2152.6317,-350.7533 2160.2269,-358.1401 2163.1756,-351.7914"/>
</g>
<!-- runCommand&#45;&gt;messages -->
<g id="edge43" class="edge">
<title>runCommand&#45;&gt;messages</title>
<path fill="none" stroke="#000000" d="M1111.1015,-1013.454C1003.6794,-1002.5803 828.7776,-976.9577 689.0574,-918.6274 594.8362,-879.2921 546.8322,-879.7273 499.0574,-789.4917 487.2071,-767.1092 498.7146,-757.8319 499.0574,-732.5083 500.6131,-617.5841 506.0574,-588.9347 506.0574,-474 506.0574,-474 506.0574,-474 506.0574,-331 506.0574,-194.5588 1519.7117,-84.4262 1840.1647,-53.0184"/>
<polygon fill="#000000" stroke="#000000" points="1840.7441,-56.4786 1850.3566,-52.0232 1840.0637,-49.5117 1840.7441,-56.4786"/>
</g>
<!-- runCommand&#45;&gt;matches -->
<g id="edge37" class="edge">
<title>runCommand&#45;&gt;matches</title>
<path fill="none" stroke="#000000" d="M1204.8857,-998.2043C1194.6,-948.9869 1174.3585,-829.3939 1196.0574,-732.5083 1202.7703,-702.5352 1218.2456,-671.1636 1230.9165,-648.8519"/>
<polygon fill="#000000" stroke="#000000" points="1233.962,-650.5771 1235.9639,-640.1731 1227.9109,-647.0579 1233.962,-650.5771"/>
</g>
<!-- runCommand&#45;&gt;readjson -->
<g id="edge83" class="edge">
<title>runCommand&#45;&gt;readjson</title>
<path fill="none" stroke="#000000" d="M1312.1675,-1015.9489C1573.8397,-1002.4204 2254.3343,-963.3446 2346.0574,-918.6274 2472.353,-857.0554 2570.8029,-713.0899 2609.8285,-649.3364"/>
<polygon fill="#000000" stroke="#000000" points="2612.973,-650.9 2615.1514,-640.5315 2606.9826,-647.2785 2612.973,-650.9"/>
</g>
</g>
</svg>
