<?xml version="1.0" encoding="UTF-8" standalone="no"?>
<!DOCTYPE svg PUBLIC "-//W3C//DTD SVG 1.1//EN"
 "http://www.w3.org/Graphics/SVG/1.1/DTD/svg11.dtd">
<!-- Generated by graphviz version 7.0.1 (20221109.1506)
 -->
<!-- Title: statictea Pages: 1 -->
<svg width="3210pt" height="1535pt"
 viewBox="0.00 0.00 3209.81 1535.44" xmlns="http://www.w3.org/2000/svg" xmlns:xlink="http://www.w3.org/1999/xlink">
<g id="graph0" class="graph" transform="scale(1 1) rotate(0) translate(4 1531.44)">
<title>statictea</title>
<polygon fill="white" stroke="none" points="-4,4 -4,-1531.44 3205.81,-1531.44 3205.81,4 -4,4"/>
<!-- args -->
<g id="node1" class="node">
<title>args</title>
<g id="a_node1"><a xlink:href="html/args.html" xlink:title="args.md" target="_parent">
<ellipse fill="palegoldenrod" stroke="black" cx="536" cy="-562" rx="39.7" ry="24.08"/>
<text text-anchor="middle" x="536" y="-555.8" font-family="Times,serif" font-size="24.00">args</text>
</a>
</g>
</g>
<!-- messages -->
<g id="node9" class="node">
<title>messages</title>
<g id="a_node9"><a xlink:href="html/messages.html" xlink:title="messages.md" target="_parent">
<polygon fill="palegreen" stroke="black" points="2078.25,-30.21 2078.25,-51.79 2030.66,-67.04 1963.34,-67.04 1915.75,-51.79 1915.75,-30.21 1963.34,-14.96 2030.66,-14.96 2078.25,-30.21"/>
<polygon fill="none" stroke="black" points="2082.26,-27.29 2082.26,-54.71 2031.28,-71.04 1962.72,-71.04 1911.74,-54.71 1911.74,-27.29 1962.72,-10.96 2031.28,-10.96 2082.26,-27.29"/>
<text text-anchor="middle" x="1997" y="-34.8" font-family="Times,serif" font-size="24.00">messages</text>
</a>
</g>
</g>
<!-- args&#45;&gt;messages -->
<g id="edge1" class="edge">
<title>args&#45;&gt;messages</title>
<path fill="none" stroke="black" d="M537,-537.57C541.51,-464.55 566.15,-240.07 700,-140.96 795.82,-70.01 1616.14,-48.77 1900.46,-43.51"/>
<polygon fill="black" stroke="black" points="1900.12,-47.02 1910.05,-43.34 1899.99,-40.02 1900.12,-47.02"/>
</g>
<!-- opresult -->
<g id="node10" class="node">
<title>opresult</title>
<g id="a_node10"><a xlink:href="html/opresult.html" xlink:title="opresult.md" target="_parent">
<ellipse fill="palegoldenrod" stroke="black" cx="1394" cy="-165" rx="66.44" ry="24.08"/>
<text text-anchor="middle" x="1394" y="-158.8" font-family="Times,serif" font-size="24.00">opresult</text>
</a>
</g>
</g>
<!-- args&#45;&gt;opresult -->
<g id="edge3" class="edge">
<title>args&#45;&gt;opresult</title>
<path fill="none" stroke="black" d="M555.15,-540.52C608.05,-485.31 762.89,-332.63 924,-259.06 1053.97,-199.71 1221.12,-178.11 1317.05,-170.32"/>
<polygon fill="black" stroke="black" points="1317.18,-173.82 1326.88,-169.55 1316.63,-166.84 1317.18,-173.82"/>
</g>
<!-- cmdline -->
<g id="node2" class="node">
<title>cmdline</title>
<g id="a_node2"><a xlink:href="html/cmdline.html" xlink:title="cmdline.md" target="_parent">
<polygon fill="palegreen" stroke="black" points="321.89,-551.21 321.89,-572.79 279.78,-588.04 220.22,-588.04 178.11,-572.79 178.11,-551.21 220.22,-535.96 279.78,-535.96 321.89,-551.21"/>
<polygon fill="none" stroke="black" points="325.89,-548.4 325.89,-575.6 280.48,-592.04 219.52,-592.04 174.11,-575.6 174.11,-548.4 219.52,-531.96 280.48,-531.96 325.89,-548.4"/>
<text text-anchor="middle" x="250" y="-555.8" font-family="Times,serif" font-size="24.00">cmdline</text>
</a>
</g>
</g>
<!-- comparelines -->
<g id="node3" class="node">
<title>comparelines</title>
<g id="a_node3"><a xlink:href="html/comparelines.html" xlink:title="comparelines.md" target="_parent">
<polygon fill="palegreen" stroke="black" points="1035.42,-1433.21 1035.42,-1454.79 970.74,-1470.04 879.26,-1470.04 814.58,-1454.79 814.58,-1433.21 879.26,-1417.96 970.74,-1417.96 1035.42,-1433.21"/>
<polygon fill="none" stroke="black" points="1039.43,-1430.05 1039.43,-1457.95 971.2,-1474.04 878.8,-1474.04 810.57,-1457.95 810.57,-1430.05 878.8,-1413.96 971.2,-1413.96 1039.43,-1430.05"/>
<text text-anchor="middle" x="925" y="-1437.8" font-family="Times,serif" font-size="24.00">comparelines</text>
</a>
</g>
</g>
<!-- env -->
<g id="node4" class="node">
<title>env</title>
<g id="a_node4"><a xlink:href="html/env.html" xlink:title="env.md" target="_parent">
<ellipse fill="palegoldenrod" stroke="black" cx="722" cy="-749" rx="36.12" ry="24.08"/>
<text text-anchor="middle" x="722" y="-742.8" font-family="Times,serif" font-size="24.00">env</text>
</a>
</g>
</g>
<!-- env&#45;&gt;messages -->
<g id="edge13" class="edge">
<title>env&#45;&gt;messages</title>
<path fill="none" stroke="black" d="M710.25,-725.8C695.33,-696.24 670.4,-641.88 661,-592.02 626.3,-408.01 776.34,-166.28 810,-140.96 896.34,-76 1632.85,-51.15 1900.39,-44.21"/>
<polygon fill="black" stroke="black" points="1900.2,-47.72 1910.11,-43.96 1900.02,-40.72 1900.2,-47.72"/>
</g>
<!-- tempFile -->
<g id="node25" class="node">
<title>tempFile</title>
<g id="a_node25"><a xlink:href="html/tempFile.html" xlink:title="tempFile.md" target="_parent">
<polygon fill="palegreen" stroke="black" points="830.13,-551.21 830.13,-572.79 784.36,-588.04 719.64,-588.04 673.87,-572.79 673.87,-551.21 719.64,-535.96 784.36,-535.96 830.13,-551.21"/>
<polygon fill="none" stroke="black" points="834.13,-548.33 834.13,-575.67 785.01,-592.04 718.99,-592.04 669.87,-575.67 669.87,-548.33 718.99,-531.96 785.01,-531.96 834.13,-548.33"/>
<text text-anchor="middle" x="752" y="-555.8" font-family="Times,serif" font-size="24.00">tempFile</text>
</a>
</g>
</g>
<!-- env&#45;&gt;tempFile -->
<g id="edge12" class="edge">
<title>env&#45;&gt;tempFile</title>
<path fill="none" stroke="black" d="M725.8,-724.57C730.74,-694.08 739.46,-640.34 745.47,-603.26"/>
<polygon fill="black" stroke="black" points="748.86,-604.26 747,-593.82 741.95,-603.13 748.86,-604.26"/>
</g>
<!-- functions -->
<g id="node5" class="node">
<title>functions</title>
<g id="a_node5"><a xlink:href="html/functions.html" xlink:title="functions.md" target="_parent">
<ellipse fill="palegoldenrod" stroke="black" cx="2245" cy="-749" rx="232.78" ry="70.92"/>
<text text-anchor="middle" x="2245" y="-727.8" font-family="Times,serif" font-size="84.00">functions</text>
</a>
</g>
</g>
<!-- matches -->
<g id="node8" class="node">
<title>matches</title>
<g id="a_node8"><a xlink:href="html/matches.html" xlink:title="matches.md" target="_parent">
<ellipse fill="palegoldenrod" stroke="black" cx="1223" cy="-562" rx="67.35" ry="24.08"/>
<text text-anchor="middle" x="1223" y="-555.8" font-family="Times,serif" font-size="24.00">matches</text>
</a>
</g>
</g>
<!-- functions&#45;&gt;matches -->
<g id="edge39" class="edge">
<title>functions&#45;&gt;matches</title>
<path fill="none" stroke="black" d="M2045.83,-711.95C1815.07,-670.18 1446.97,-603.54 1293.63,-575.79"/>
<polygon fill="black" stroke="black" points="1294.48,-572.38 1284.02,-574.05 1293.24,-579.27 1294.48,-572.38"/>
</g>
<!-- functions&#45;&gt;messages -->
<g id="edge35" class="edge">
<title>functions&#45;&gt;messages</title>
<path fill="none" stroke="black" d="M2375.29,-689.85C2486.75,-630.4 2624.08,-528.66 2589,-399.98 2551.24,-261.47 2519.72,-213.78 2396,-140.96 2302.21,-85.75 2178.58,-61.2 2093.94,-50.38"/>
<polygon fill="black" stroke="black" points="2094.38,-46.9 2084.03,-49.15 2093.52,-53.85 2094.38,-46.9"/>
</g>
<!-- functions&#45;&gt;opresult -->
<g id="edge48" class="edge">
<title>functions&#45;&gt;opresult</title>
<path fill="none" stroke="black" d="M2134.15,-686.28C2085.83,-658.53 2028.93,-624.73 1979,-592.02 1764.82,-451.73 1520.92,-264.83 1430.35,-194.43"/>
<polygon fill="black" stroke="black" points="1432.55,-191.71 1422.51,-188.33 1428.25,-197.23 1432.55,-191.71"/>
</g>
<!-- parseMarkdown -->
<g id="node13" class="node">
<title>parseMarkdown</title>
<g id="a_node13"><a xlink:href="html/parseMarkdown.html" xlink:title="parseMarkdown.md" target="_parent">
<ellipse fill="palegoldenrod" stroke="black" cx="1582" cy="-562" rx="121.74" ry="24.08"/>
<text text-anchor="middle" x="1582" y="-555.8" font-family="Times,serif" font-size="24.00">parseMarkdown</text>
</a>
</g>
</g>
<!-- functions&#45;&gt;parseMarkdown -->
<g id="edge58" class="edge">
<title>functions&#45;&gt;parseMarkdown</title>
<path fill="none" stroke="black" d="M2074.26,-700.36C1941.36,-663.27 1762.98,-613.5 1661.49,-585.18"/>
<polygon fill="black" stroke="black" points="1662.73,-581.89 1652.16,-582.58 1660.85,-588.64 1662.73,-581.89"/>
</g>
<!-- parseNumber -->
<g id="node14" class="node">
<title>parseNumber</title>
<g id="a_node14"><a xlink:href="html/parseNumber.html" xlink:title="parseNumber.md" target="_parent">
<polygon fill="palegreen" stroke="black" points="2409.98,-551.21 2409.98,-572.79 2344.38,-588.04 2251.62,-588.04 2186.02,-572.79 2186.02,-551.21 2251.62,-535.96 2344.38,-535.96 2409.98,-551.21"/>
<polygon fill="none" stroke="black" points="2413.99,-548.04 2413.99,-575.96 2344.84,-592.04 2251.16,-592.04 2182.01,-575.96 2182.01,-548.04 2251.16,-531.96 2344.84,-531.96 2413.99,-548.04"/>
<text text-anchor="middle" x="2298" y="-555.8" font-family="Times,serif" font-size="24.00">parseNumber</text>
</a>
</g>
</g>
<!-- functions&#45;&gt;parseNumber -->
<g id="edge38" class="edge">
<title>functions&#45;&gt;parseNumber</title>
<path fill="none" stroke="black" d="M2265.04,-678.06C2272.28,-652.79 2280.2,-625.13 2286.47,-603.26"/>
<polygon fill="black" stroke="black" points="2289.77,-604.43 2289.16,-593.86 2283.04,-602.5 2289.77,-604.43"/>
</g>
<!-- readjson -->
<g id="node16" class="node">
<title>readjson</title>
<g id="a_node16"><a xlink:href="html/readjson.html" xlink:title="readjson.md" target="_parent">
<ellipse fill="palegoldenrod" stroke="black" cx="2057" cy="-562" rx="69.09" ry="24.08"/>
<text text-anchor="middle" x="2057" y="-555.8" font-family="Times,serif" font-size="24.00">readjson</text>
</a>
</g>
</g>
<!-- functions&#45;&gt;readjson -->
<g id="edge54" class="edge">
<title>functions&#45;&gt;readjson</title>
<path fill="none" stroke="black" d="M2176.86,-680.95C2146.22,-650.79 2111.6,-616.73 2087.47,-592.99"/>
<polygon fill="black" stroke="black" points="2090.06,-590.62 2080.48,-586.1 2085.15,-595.61 2090.06,-590.62"/>
</g>
<!-- regexes -->
<g id="node17" class="node">
<title>regexes</title>
<g id="a_node17"><a xlink:href="html/regexes.html" xlink:title="regexes.md" target="_parent">
<polygon fill="palegreen" stroke="black" points="1665.23,-419.21 1665.23,-440.79 1625.26,-456.04 1568.74,-456.04 1528.77,-440.79 1528.77,-419.21 1568.74,-403.96 1625.26,-403.96 1665.23,-419.21"/>
<polygon fill="none" stroke="black" points="1669.24,-416.46 1669.24,-443.54 1626,-460.04 1568,-460.04 1524.76,-443.54 1524.76,-416.46 1568,-399.96 1626,-399.96 1669.24,-416.46"/>
<text text-anchor="middle" x="1597" y="-423.8" font-family="Times,serif" font-size="24.00">regexes</text>
</a>
</g>
</g>
<!-- functions&#45;&gt;regexes -->
<g id="edge37" class="edge">
<title>functions&#45;&gt;regexes</title>
<path fill="none" stroke="black" d="M2108.2,-691.24C2045.85,-663.73 1971.87,-628.72 1908,-592.02 1867.58,-568.8 1862.55,-554.97 1822,-531.98 1769.3,-502.11 1706.13,-474.41 1660.16,-455.61"/>
<polygon fill="black" stroke="black" points="1661.72,-452.47 1651.14,-451.95 1659.09,-458.95 1661.72,-452.47"/>
</g>
<!-- signatures -->
<g id="node22" class="node">
<title>signatures</title>
<g id="a_node22"><a xlink:href="html/signatures.html" xlink:title="signatures.md" target="_parent">
<ellipse fill="palegoldenrod" stroke="black" cx="2500" cy="-430" rx="79.81" ry="24.08"/>
<text text-anchor="middle" x="2500" y="-423.8" font-family="Times,serif" font-size="24.00">signatures</text>
</a>
</g>
</g>
<!-- functions&#45;&gt;signatures -->
<g id="edge47" class="edge">
<title>functions&#45;&gt;signatures</title>
<path fill="none" stroke="black" d="M2356.44,-686.32C2392.81,-661.31 2430.39,-629.42 2456,-592.02 2482.22,-553.74 2492.85,-500.35 2497.14,-465.73"/>
<polygon fill="black" stroke="black" points="2500.62,-466.15 2498.24,-455.83 2493.66,-465.38 2500.62,-466.15"/>
</g>
<!-- unicodes -->
<g id="node27" class="node">
<title>unicodes</title>
<g id="a_node27"><a xlink:href="html/unicodes.html" xlink:title="unicodes.md" target="_parent">
<ellipse fill="palegoldenrod" stroke="black" cx="2098" cy="-430" rx="71.34" ry="24.08"/>
<text text-anchor="middle" x="2098" y="-423.8" font-family="Times,serif" font-size="24.00">unicodes</text>
</a>
</g>
</g>
<!-- functions&#45;&gt;unicodes -->
<g id="edge44" class="edge">
<title>functions&#45;&gt;unicodes</title>
<path fill="none" stroke="black" d="M2212.74,-678.43C2181.95,-612.04 2136.89,-514.87 2113.46,-464.33"/>
<polygon fill="black" stroke="black" points="2116.68,-462.96 2109.3,-455.36 2110.33,-465.9 2116.68,-462.96"/>
</g>
<!-- variables -->
<g id="node30" class="node">
<title>variables</title>
<g id="a_node30"><a xlink:href="html/variables.html" xlink:title="variables.md" target="_parent">
<ellipse fill="palegoldenrod" stroke="black" cx="2899" cy="-562" rx="72.66" ry="24.08"/>
<text text-anchor="middle" x="2899" y="-555.8" font-family="Times,serif" font-size="24.00">variables</text>
</a>
</g>
</g>
<!-- functions&#45;&gt;variables -->
<g id="edge55" class="edge">
<title>functions&#45;&gt;variables</title>
<path fill="none" stroke="black" d="M2414.7,-700C2551.72,-661.24 2737.12,-608.79 2833.97,-581.4"/>
<polygon fill="black" stroke="black" points="2834.64,-584.84 2843.31,-578.75 2832.73,-578.11 2834.64,-584.84"/>
</g>
<!-- vartypes -->
<g id="node31" class="node">
<title>vartypes</title>
<g id="a_node31"><a xlink:href="html/vartypes.html" xlink:title="vartypes.md" target="_parent">
<ellipse fill="palegoldenrod" stroke="black" cx="2374" cy="-293" rx="97.66" ry="33.88"/>
<text text-anchor="middle" x="2374" y="-284.2" font-family="Times,serif" font-size="36.00">vartypes</text>
</a>
</g>
</g>
<!-- functions&#45;&gt;vartypes -->
<g id="edge36" class="edge">
<title>functions&#45;&gt;vartypes</title>
<path fill="none" stroke="black" d="M2345.72,-685.01C2376.39,-660.15 2406.37,-628.7 2423,-592.02 2434.02,-567.72 2430.36,-557.63 2423,-531.98 2412.6,-495.72 2388.84,-496.15 2378,-460.02 2366.07,-420.25 2366.29,-372.68 2368.78,-338.68"/>
<polygon fill="black" stroke="black" points="2372.26,-339.02 2369.61,-328.76 2365.29,-338.43 2372.26,-339.02"/>
</g>
<!-- gethelp -->
<g id="node6" class="node">
<title>gethelp</title>
<g id="a_node6"><a xlink:href="html/gethelp.html" xlink:title="gethelp.md" target="_parent">
<polygon fill="palegreen" stroke="black" points="321.67,-1259.21 321.67,-1280.79 282.62,-1296.04 227.38,-1296.04 188.33,-1280.79 188.33,-1259.21 227.38,-1243.96 282.62,-1243.96 321.67,-1259.21"/>
<polygon fill="none" stroke="black" points="325.67,-1256.48 325.67,-1283.52 283.37,-1300.04 226.63,-1300.04 184.33,-1283.52 184.33,-1256.48 226.63,-1239.96 283.37,-1239.96 325.67,-1256.48"/>
<text text-anchor="middle" x="255" y="-1263.8" font-family="Times,serif" font-size="24.00">gethelp</text>
</a>
</g>
</g>
<!-- linebuffer -->
<g id="node7" class="node">
<title>linebuffer</title>
<g id="a_node7"><a xlink:href="html/linebuffer.html" xlink:title="linebuffer.md" target="_parent">
<polygon fill="palegreen" stroke="black" points="1215.91,-419.21 1215.91,-440.79 1166.17,-456.04 1095.83,-456.04 1046.09,-440.79 1046.09,-419.21 1095.83,-403.96 1166.17,-403.96 1215.91,-419.21"/>
<polygon fill="none" stroke="black" points="1219.91,-416.25 1219.91,-443.75 1166.77,-460.04 1095.23,-460.04 1042.09,-443.75 1042.09,-416.25 1095.23,-399.96 1166.77,-399.96 1219.91,-416.25"/>
<text text-anchor="middle" x="1131" y="-423.8" font-family="Times,serif" font-size="24.00">linebuffer</text>
</a>
</g>
</g>
<!-- matches&#45;&gt;regexes -->
<g id="edge7" class="edge">
<title>matches&#45;&gt;regexes</title>
<path fill="none" stroke="red" d="M1270.37,-544.54C1336.31,-521.61 1456.08,-479.98 1530.82,-454"/>
<polygon fill="red" stroke="red" points="1531.79,-457.37 1540.08,-450.78 1529.49,-450.76 1531.79,-457.37"/>
</g>
<!-- opresult&#45;&gt;messages -->
<g id="edge2" class="edge">
<title>opresult&#45;&gt;messages</title>
<path fill="none" stroke="red" d="M1451.27,-152.41C1556.86,-131.05 1782.85,-85.33 1908.37,-59.93"/>
<polygon fill="red" stroke="red" points="1908.86,-63.4 1917.97,-57.99 1907.47,-56.54 1908.86,-63.4"/>
</g>
<!-- parseCmdLine -->
<g id="node11" class="node">
<title>parseCmdLine</title>
<g id="a_node11"><a xlink:href="html/parseCmdLine.html" xlink:title="parseCmdLine.md" target="_parent">
<ellipse fill="palegoldenrod" stroke="black" cx="1078" cy="-749" rx="111.95" ry="24.08"/>
<text text-anchor="middle" x="1078" y="-742.8" font-family="Times,serif" font-size="24.00">parseCmdLine</text>
</a>
</g>
</g>
<!-- parseCmdLine&#45;&gt;args -->
<g id="edge20" class="edge">
<title>parseCmdLine&#45;&gt;args</title>
<path fill="none" stroke="black" d="M1019.48,-728.03C910.49,-690.83 678.64,-611.69 580.92,-578.33"/>
<polygon fill="black" stroke="black" points="582.26,-575.09 571.66,-575.17 580,-581.72 582.26,-575.09"/>
</g>
<!-- parseCmdLine&#45;&gt;matches -->
<g id="edge18" class="edge">
<title>parseCmdLine&#45;&gt;matches</title>
<path fill="none" stroke="black" d="M1096.07,-724.94C1121.9,-691.99 1169.43,-631.34 1198.43,-594.34"/>
<polygon fill="black" stroke="black" points="1201.03,-596.7 1204.45,-586.67 1195.53,-592.38 1201.03,-596.7"/>
</g>
<!-- parseCmdLine&#45;&gt;messages -->
<g id="edge17" class="edge">
<title>parseCmdLine&#45;&gt;messages</title>
<path fill="none" stroke="black" d="M1063.39,-724.82C1045.72,-695.31 1017.01,-642.13 1006,-592.02 973.32,-443.27 977.46,-364.87 1087,-259.06 1170.22,-178.68 1208.74,-176.02 1319,-140.96 1519.34,-77.25 1766.18,-54.34 1899.85,-46.26"/>
<polygon fill="black" stroke="black" points="1899.96,-49.76 1909.73,-45.68 1899.55,-42.78 1899.96,-49.76"/>
</g>
<!-- parseCmdLine&#45;&gt;opresult -->
<g id="edge19" class="edge">
<title>parseCmdLine&#45;&gt;opresult</title>
<path fill="none" stroke="black" d="M1066.05,-724.7C1037.78,-666.1 973.5,-509.44 1033,-399.98 1096.81,-282.58 1247.75,-214.99 1332.86,-184.94"/>
<polygon fill="black" stroke="black" points="1333.93,-188.27 1342.24,-181.69 1331.64,-181.66 1333.93,-188.27"/>
</g>
<!-- parseCmdLine&#45;&gt;regexes -->
<g id="edge16" class="edge">
<title>parseCmdLine&#45;&gt;regexes</title>
<path fill="none" stroke="black" d="M1078.3,-724.51C1080.19,-680.01 1090.95,-583.28 1147,-531.98 1199.8,-483.65 1398.35,-453.57 1513.31,-439.83"/>
<polygon fill="black" stroke="black" points="1513.48,-443.33 1523.01,-438.68 1512.66,-436.38 1513.48,-443.33"/>
</g>
<!-- parseCommandLine -->
<g id="node12" class="node">
<title>parseCommandLine</title>
<g id="a_node12"><a xlink:href="html/parseCommandLine.html" xlink:title="parseCommandLine.md" target="_parent">
<ellipse fill="palegoldenrod" stroke="black" cx="177" cy="-749" rx="149.4" ry="24.08"/>
<text text-anchor="middle" x="177" y="-742.8" font-family="Times,serif" font-size="24.00">parseCommandLine</text>
</a>
</g>
</g>
<!-- parseCommandLine&#45;&gt;args -->
<g id="edge4" class="edge">
<title>parseCommandLine&#45;&gt;args</title>
<path fill="none" stroke="black" d="M220.66,-725.5C291.05,-689.23 428.54,-618.38 496.3,-583.46"/>
<polygon fill="black" stroke="black" points="497.54,-586.76 504.82,-579.07 494.33,-580.53 497.54,-586.76"/>
</g>
<!-- parseCommandLine&#45;&gt;cmdline -->
<g id="edge6" class="edge">
<title>parseCommandLine&#45;&gt;cmdline</title>
<path fill="none" stroke="black" d="M186.25,-724.57C198.33,-693.95 219.67,-639.87 234.3,-602.78"/>
<polygon fill="black" stroke="black" points="237.46,-604.32 237.87,-593.74 230.94,-601.75 237.46,-604.32"/>
</g>
<!-- parseCommandLine&#45;&gt;matches -->
<g id="edge8" class="edge">
<title>parseCommandLine&#45;&gt;matches</title>
<path fill="none" stroke="black" d="M275.41,-730.6C484.64,-693.59 969.49,-607.84 1151.89,-575.58"/>
<polygon fill="black" stroke="black" points="1152.48,-579.03 1161.72,-573.84 1151.26,-572.13 1152.48,-579.03"/>
</g>
<!-- parseCommandLine&#45;&gt;messages -->
<g id="edge5" class="edge">
<title>parseCommandLine&#45;&gt;messages</title>
<path fill="none" stroke="black" d="M173.14,-724.61C164.83,-672.21 146,-541.32 146,-431 146,-431 146,-431 146,-292 146,-182.73 237.75,-179.51 340,-140.96 485.81,-85.98 1568.08,-53.26 1900.3,-44.44"/>
<polygon fill="black" stroke="black" points="1899.91,-47.95 1909.81,-44.18 1899.73,-40.95 1899.91,-47.95"/>
</g>
<!-- parseMarkdown&#45;&gt;linebuffer -->
<g id="edge56" class="edge">
<title>parseMarkdown&#45;&gt;linebuffer</title>
<path fill="none" stroke="black" d="M1514.48,-541.54C1433.03,-518.06 1296.31,-478.65 1210.03,-453.78"/>
<polygon fill="black" stroke="black" points="1211.01,-450.42 1200.44,-451.01 1209.07,-457.15 1211.01,-450.42"/>
</g>
<!-- parseMarkdown&#45;&gt;regexes -->
<g id="edge57" class="edge">
<title>parseMarkdown&#45;&gt;regexes</title>
<path fill="none" stroke="black" d="M1584.72,-537.46C1586.83,-519.1 1589.83,-493.17 1592.33,-471.5"/>
<polygon fill="black" stroke="black" points="1595.78,-472.13 1593.45,-461.79 1588.82,-471.33 1595.78,-472.13"/>
</g>
<!-- processTemplate -->
<g id="node15" class="node">
<title>processTemplate</title>
<g id="a_node15"><a xlink:href="html/processTemplate.html" xlink:title="processTemplate.md" target="_parent">
<ellipse fill="palegoldenrod" stroke="black" cx="956" cy="-1270" rx="124.4" ry="24.08"/>
<text text-anchor="middle" x="956" y="-1263.8" font-family="Times,serif" font-size="24.00">processTemplate</text>
</a>
</g>
</g>
<!-- processTemplate&#45;&gt;args -->
<g id="edge10" class="edge">
<title>processTemplate&#45;&gt;args</title>
<path fill="none" stroke="black" d="M860.72,-1254.25C751.34,-1231.2 580.51,-1174.58 530,-1041.52 470.49,-884.75 508.54,-677.75 527.31,-597.16"/>
<polygon fill="black" stroke="black" points="530.66,-598.22 529.58,-587.68 523.85,-596.59 530.66,-598.22"/>
</g>
<!-- processTemplate&#45;&gt;env -->
<g id="edge14" class="edge">
<title>processTemplate&#45;&gt;env</title>
<path fill="none" stroke="black" d="M879.71,-1250.72C836.68,-1236.25 786.06,-1211.37 758,-1170.04 675.69,-1048.8 700.11,-860.27 714.66,-783.87"/>
<polygon fill="black" stroke="black" points="718.01,-784.98 716.51,-774.49 711.14,-783.63 718.01,-784.98"/>
</g>
<!-- processTemplate&#45;&gt;linebuffer -->
<g id="edge15" class="edge">
<title>processTemplate&#45;&gt;linebuffer</title>
<path fill="none" stroke="black" d="M980.96,-1246.04C1000.52,-1227.07 1027.44,-1198.69 1046,-1170.04 1138.38,-1027.45 1164.27,-986.03 1199,-819.71 1211.85,-758.18 1220.62,-737.31 1199,-678.29 1181.72,-631.13 1143.28,-639.18 1126,-592.02 1111.67,-552.91 1115.71,-504.8 1121.59,-471.41"/>
<polygon fill="black" stroke="black" points="1125,-472.21 1123.44,-461.74 1118.12,-470.9 1125,-472.21"/>
</g>
<!-- processTemplate&#45;&gt;messages -->
<g id="edge11" class="edge">
<title>processTemplate&#45;&gt;messages</title>
<path fill="none" stroke="black" d="M851.57,-1256.53C738.57,-1241.14 567.81,-1211.8 518,-1170.04 407.05,-1077.04 354,-849.19 354,-563 354,-563 354,-563 354,-292 354,-145.1 506.57,-180.69 648,-140.96 883.97,-74.66 1632.1,-50.68 1900.22,-44.09"/>
<polygon fill="black" stroke="black" points="1900.05,-47.6 1909.96,-43.86 1899.88,-40.6 1900.05,-47.6"/>
</g>
<!-- processTemplate&#45;&gt;opresult -->
<g id="edge89" class="edge">
<title>processTemplate&#45;&gt;opresult</title>
<path fill="none" stroke="black" d="M840.44,-1260.77C760.75,-1250.12 655.93,-1225.74 580,-1170.04 501.26,-1112.28 468,-1078.66 468,-981 468,-981 468,-981 468,-429 468,-252.82 1096.08,-188.45 1317.7,-171.22"/>
<polygon fill="black" stroke="black" points="1317.67,-174.73 1327.38,-170.48 1317.14,-167.75 1317.67,-174.73"/>
</g>
<!-- processTemplate&#45;&gt;parseCmdLine -->
<g id="edge21" class="edge">
<title>processTemplate&#45;&gt;parseCmdLine</title>
<path fill="none" stroke="black" d="M972.85,-1245.95C1000.56,-1206.47 1054.69,-1122.35 1075,-1041.52 1097.69,-951.2 1089.31,-840.11 1082.81,-784.77"/>
<polygon fill="black" stroke="black" points="1086.3,-784.52 1081.6,-775.03 1079.35,-785.38 1086.3,-784.52"/>
</g>
<!-- replacement -->
<g id="node19" class="node">
<title>replacement</title>
<g id="a_node19"><a xlink:href="html/replacement.html" xlink:title="replacement.md" target="_parent">
<ellipse fill="palegoldenrod" stroke="black" cx="971" cy="-980" rx="94.51" ry="24.08"/>
<text text-anchor="middle" x="971" y="-973.8" font-family="Times,serif" font-size="24.00">replacement</text>
</a>
</g>
</g>
<!-- processTemplate&#45;&gt;replacement -->
<g id="edge78" class="edge">
<title>processTemplate&#45;&gt;replacement</title>
<path fill="none" stroke="black" d="M957.23,-1245.43C959.87,-1194.78 966.09,-1075.34 969.18,-1015.88"/>
<polygon fill="black" stroke="black" points="972.67,-1016.17 969.7,-1006 965.68,-1015.81 972.67,-1016.17"/>
</g>
<!-- runCommand -->
<g id="node20" class="node">
<title>runCommand</title>
<g id="a_node20"><a xlink:href="html/runCommand.html" xlink:title="runCommand.md" target="_parent">
<ellipse fill="palegoldenrod" stroke="black" cx="1664" cy="-980" rx="292.07" ry="61.54"/>
<text text-anchor="middle" x="1664" y="-961.9" font-family="Times,serif" font-size="72.00">runCommand</text>
</a>
</g>
</g>
<!-- processTemplate&#45;&gt;runCommand -->
<g id="edge66" class="edge">
<title>processTemplate&#45;&gt;runCommand</title>
<path fill="none" stroke="black" d="M1008.35,-1247.71C1115.33,-1204.19 1362.26,-1103.74 1520.69,-1039.3"/>
<polygon fill="black" stroke="black" points="1521.65,-1042.69 1529.59,-1035.68 1519.01,-1036.2 1521.65,-1042.69"/>
</g>
<!-- startingvars -->
<g id="node23" class="node">
<title>startingvars</title>
<g id="a_node23"><a xlink:href="html/startingvars.html" xlink:title="startingvars.md" target="_parent">
<ellipse fill="palegoldenrod" stroke="black" cx="1764" cy="-1146" rx="90.52" ry="24.08"/>
<text text-anchor="middle" x="1764" y="-1139.8" font-family="Times,serif" font-size="24.00">startingvars</text>
</a>
</g>
</g>
<!-- processTemplate&#45;&gt;startingvars -->
<g id="edge88" class="edge">
<title>processTemplate&#45;&gt;startingvars</title>
<path fill="none" stroke="black" d="M1034.21,-1250.87C1052.16,-1247.01 1071.2,-1243.14 1089,-1239.98 1295.4,-1203.3 1539.49,-1172.85 1670.19,-1157.58"/>
<polygon fill="black" stroke="black" points="1670.3,-1161.09 1679.82,-1156.46 1669.49,-1154.14 1670.3,-1161.09"/>
</g>
<!-- processTemplate&#45;&gt;variables -->
<g id="edge67" class="edge">
<title>processTemplate&#45;&gt;variables</title>
<path fill="none" stroke="black" d="M1031.98,-1250.53C1050.54,-1246.54 1070.41,-1242.71 1089,-1239.98 1451.77,-1186.7 2430.34,-1257 2727,-1041.52 2874.48,-934.4 2895.95,-688.78 2898.74,-597.76"/>
<polygon fill="black" stroke="black" points="2902.23,-598.06 2898.97,-587.98 2895.23,-597.89 2902.23,-598.06"/>
</g>
<!-- processTemplate&#45;&gt;vartypes -->
<g id="edge68" class="edge">
<title>processTemplate&#45;&gt;vartypes</title>
<path fill="none" stroke="black" d="M1032.35,-1250.63C1050.82,-1246.66 1070.55,-1242.81 1089,-1239.98 1623.74,-1157.83 1800.75,-1272.45 2290,-1041.52 2450.48,-965.77 2523.19,-967.11 2622,-819.71 2694.11,-712.14 2690.9,-659.44 2668,-531.98 2656.94,-470.38 2662.07,-445.38 2619,-399.98 2595.22,-374.91 2516.01,-343.08 2454.02,-320.88"/>
<polygon fill="black" stroke="black" points="2455.47,-317.68 2444.87,-317.64 2453.12,-324.28 2455.47,-317.68"/>
</g>
<!-- readjson&#45;&gt;messages -->
<g id="edge50" class="edge">
<title>readjson&#45;&gt;messages</title>
<path fill="none" stroke="black" d="M2094.86,-541.48C2123.59,-524.34 2160.95,-496.45 2178,-460.02 2189.31,-435.85 2182.11,-426.35 2178,-399.98 2159.33,-280.12 2155.36,-244.4 2092,-140.96 2077.98,-118.06 2057.88,-96.14 2039.78,-78.78"/>
<polygon fill="black" stroke="black" points="2042.43,-76.46 2032.74,-72.17 2037.64,-81.56 2042.43,-76.46"/>
</g>
<!-- readjson&#45;&gt;opresult -->
<g id="edge53" class="edge">
<title>readjson&#45;&gt;opresult</title>
<path fill="none" stroke="black" d="M2039.17,-538.62C1993.45,-482.75 1865.84,-336.13 1727,-259.06 1644.22,-213.11 1537.05,-188.45 1466.95,-176.3"/>
<polygon fill="black" stroke="black" points="1467.54,-172.85 1457.1,-174.63 1466.37,-179.75 1467.54,-172.85"/>
</g>
<!-- readjson&#45;&gt;unicodes -->
<g id="edge51" class="edge">
<title>readjson&#45;&gt;unicodes</title>
<path fill="none" stroke="black" d="M2064.33,-537.76C2070.71,-517.52 2080.05,-487.9 2087.28,-465"/>
<polygon fill="black" stroke="black" points="2090.61,-466.07 2090.28,-455.48 2083.93,-463.97 2090.61,-466.07"/>
</g>
<!-- utf8decoder -->
<g id="node29" class="node">
<title>utf8decoder</title>
<g id="a_node29"><a xlink:href="html/utf8decoder.html" xlink:title="utf8decoder.md" target="_parent">
<polygon fill="palegreen" stroke="black" points="2078.04,-282.21 2078.04,-303.79 2019.44,-319.04 1936.56,-319.04 1877.96,-303.79 1877.96,-282.21 1936.56,-266.96 2019.44,-266.96 2078.04,-282.21"/>
<polygon fill="none" stroke="black" points="2082.03,-279.12 2082.03,-306.88 2019.95,-323.04 1936.05,-323.04 1873.97,-306.88 1873.97,-279.12 1936.05,-262.96 2019.95,-262.96 2082.03,-279.12"/>
<text text-anchor="middle" x="1978" y="-286.8" font-family="Times,serif" font-size="24.00">utf8decoder</text>
</a>
</g>
</g>
<!-- readjson&#45;&gt;utf8decoder -->
<g id="edge52" class="edge">
<title>readjson&#45;&gt;utf8decoder</title>
<path fill="none" stroke="black" d="M2047.13,-538.05C2038.66,-517.78 2026.51,-487.29 2018,-460.02 2004.79,-417.69 1993.36,-368.14 1986.14,-334.26"/>
<polygon fill="black" stroke="black" points="1989.65,-333.96 1984.17,-324.89 1982.8,-335.4 1989.65,-333.96"/>
</g>
<!-- readjson&#45;&gt;vartypes -->
<g id="edge49" class="edge">
<title>readjson&#45;&gt;vartypes</title>
<path fill="none" stroke="black" d="M2092.11,-540.93C2124.32,-521.85 2172.7,-491.47 2211,-460.02 2258.49,-421.03 2307.09,-369.76 2338.72,-334.57"/>
<polygon fill="black" stroke="black" points="2341.32,-336.91 2345.37,-327.12 2336.1,-332.24 2341.32,-336.91"/>
</g>
<!-- repl -->
<g id="node18" class="node">
<title>repl</title>
<g id="a_node18"><a xlink:href="html/repl.html" xlink:title="repl.md" target="_parent">
<ellipse fill="palegoldenrod" stroke="black" cx="2060" cy="-1270" rx="38.37" ry="24.08"/>
<text text-anchor="middle" x="2060" y="-1263.8" font-family="Times,serif" font-size="24.00">repl</text>
</a>
</g>
</g>
<!-- repl&#45;&gt;args -->
<g id="edge112" class="edge">
<title>repl&#45;&gt;args</title>
<path fill="none" stroke="black" d="M2021.63,-1266.97C1826.67,-1255.99 946.62,-1198.3 732,-1041.52 582.32,-932.17 546.59,-687.92 538.36,-597.51"/>
<polygon fill="black" stroke="black" points="541.87,-597.47 537.54,-587.8 534.9,-598.06 541.87,-597.47"/>
</g>
<!-- repl&#45;&gt;env -->
<g id="edge110" class="edge">
<title>repl&#45;&gt;env</title>
<path fill="none" stroke="black" d="M2021.47,-1268.52C1913.49,-1266.15 1599.89,-1252.15 1356,-1170.04 1314.5,-1156.07 1311.22,-1136.73 1270,-1121.96 1080.39,-1054 976.25,-1173.39 824,-1041.52 780.43,-1003.78 801.92,-972.93 783,-918.48 766.67,-871.49 746.94,-817.46 734.43,-783.52"/>
<polygon fill="black" stroke="black" points="737.75,-782.41 731,-774.24 731.18,-784.84 737.75,-782.41"/>
</g>
<!-- repl&#45;&gt;functions -->
<g id="edge120" class="edge">
<title>repl&#45;&gt;functions</title>
<path fill="none" stroke="black" d="M2068.19,-1246.03C2093.78,-1174.24 2173.12,-951.66 2216.3,-830.53"/>
<polygon fill="black" stroke="black" points="2219.53,-831.87 2219.6,-821.27 2212.94,-829.52 2219.53,-831.87"/>
</g>
<!-- repl&#45;&gt;matches -->
<g id="edge115" class="edge">
<title>repl&#45;&gt;matches</title>
<path fill="none" stroke="black" d="M2022.81,-1263.19C1885.43,-1240.95 1409.79,-1156.6 1318,-1041.52 1267.23,-977.87 1290.87,-756.99 1270,-678.29 1262.43,-649.74 1249.55,-618.82 1239.19,-596.2"/>
<polygon fill="black" stroke="black" points="1242.38,-594.76 1234.98,-587.18 1236.03,-597.72 1242.38,-594.76"/>
</g>
<!-- repl&#45;&gt;messages -->
<g id="edge109" class="edge">
<title>repl&#45;&gt;messages</title>
<path fill="none" stroke="black" d="M2098.67,-1269.49C2259.89,-1270.86 2877.52,-1269.45 3039,-1170.04 3271.8,-1026.73 3186,-589 3186,-431 3186,-431 3186,-431 3186,-292 3186,-219.43 3182.44,-183.97 3124,-140.96 3041.87,-80.52 2351.4,-53.02 2093.58,-44.79"/>
<polygon fill="black" stroke="black" points="2093.99,-41.3 2083.89,-44.48 2093.77,-48.3 2093.99,-41.3"/>
</g>
<!-- repl&#45;&gt;opresult -->
<g id="edge113" class="edge">
<title>repl&#45;&gt;opresult</title>
<path fill="none" stroke="black" d="M2098.84,-1269.37C2255.86,-1270.2 2842.56,-1266.65 2995,-1170.04 3078.07,-1117.4 3110,-1079.34 3110,-981 3110,-981 3110,-981 3110,-748 3110,-593.09 3187.71,-520.99 3091,-399.98 2947.93,-220.96 2820.59,-299.43 2595,-259.06 2176.14,-184.1 1664.42,-169.51 1472.05,-166.68"/>
<polygon fill="black" stroke="black" points="1472.22,-163.18 1462.17,-166.54 1472.12,-170.18 1472.22,-163.18"/>
</g>
<!-- repl&#45;&gt;regexes -->
<g id="edge116" class="edge">
<title>repl&#45;&gt;regexes</title>
<path fill="none" stroke="black" d="M2055.95,-1245.73C2045.51,-1188.45 2014.94,-1036.67 1965,-918.48 1887.29,-734.56 1870.44,-679.6 1736,-531.98 1710.85,-504.36 1677.04,-479.6 1649.06,-461.51"/>
<polygon fill="black" stroke="black" points="1651.03,-458.61 1640.71,-456.2 1647.28,-464.52 1651.03,-458.61"/>
</g>
<!-- repl&#45;&gt;runCommand -->
<g id="edge117" class="edge">
<title>repl&#45;&gt;runCommand</title>
<path fill="none" stroke="black" d="M2036.03,-1250.66C1999.26,-1222.6 1926.61,-1167.49 1864,-1121.96 1829.3,-1096.72 1790.85,-1069.46 1757.01,-1045.69"/>
<polygon fill="black" stroke="black" points="1759.03,-1042.83 1748.83,-1039.96 1755.01,-1048.57 1759.03,-1042.83"/>
</g>
<!-- repl&#45;&gt;startingvars -->
<g id="edge114" class="edge">
<title>repl&#45;&gt;startingvars</title>
<path fill="none" stroke="black" d="M2028.32,-1255.94C1979.26,-1235.72 1884.12,-1196.51 1822.38,-1171.06"/>
<polygon fill="black" stroke="black" points="1823.99,-1167.94 1813.41,-1167.36 1821.32,-1174.41 1823.99,-1167.94"/>
</g>
<!-- repl&#45;&gt;unicodes -->
<g id="edge119" class="edge">
<title>repl&#45;&gt;unicodes</title>
<path fill="none" stroke="black" d="M2086.57,-1252.15C2166.2,-1199.86 2402.58,-1031.07 2487,-819.71 2535.59,-698.05 2520.64,-619.33 2423,-531.98 2354.97,-471.12 2250.7,-446.94 2178.69,-437.33"/>
<polygon fill="black" stroke="black" points="2179.29,-433.88 2168.93,-436.1 2178.41,-440.82 2179.29,-433.88"/>
</g>
<!-- repl&#45;&gt;variables -->
<g id="edge118" class="edge">
<title>repl&#45;&gt;variables</title>
<path fill="none" stroke="black" d="M2098.52,-1267.62C2260.57,-1261.42 2881.18,-1233.63 2938,-1170.04 3010.82,-1088.56 2955.74,-786.12 2938,-678.29 2933.34,-649.98 2922.65,-619.27 2913.64,-596.67"/>
<polygon fill="black" stroke="black" points="2916.99,-595.6 2909.96,-587.67 2910.51,-598.25 2916.99,-595.6"/>
</g>
<!-- repl&#45;&gt;vartypes -->
<g id="edge111" class="edge">
<title>repl&#45;&gt;vartypes</title>
<path fill="none" stroke="black" d="M2098.52,-1267.44C2262.8,-1260.46 2899.42,-1229.7 2964,-1170.04 3026.82,-1112 3000,-1066.53 3000,-981 3000,-981 3000,-981 3000,-748 3000,-651.62 3029.87,-615.05 2981,-531.98 2927.94,-441.77 2881.41,-442.98 2786,-399.98 2684.34,-354.16 2559.3,-325.53 2473.81,-309.74"/>
<polygon fill="black" stroke="black" points="2474.49,-306.31 2464.03,-307.97 2473.24,-313.2 2474.49,-306.31"/>
</g>
<!-- replacement&#45;&gt;args -->
<g id="edge77" class="edge">
<title>replacement&#45;&gt;args</title>
<path fill="none" stroke="black" d="M937.43,-957.11C898.26,-929.76 834.47,-879.22 800,-819.71 767.65,-763.86 807.01,-728.94 767,-678.29 720.7,-619.68 636.79,-588.52 583.86,-573.91"/>
<polygon fill="black" stroke="black" points="585.09,-570.61 574.52,-571.43 583.29,-577.38 585.09,-570.61"/>
</g>
<!-- replacement&#45;&gt;env -->
<g id="edge69" class="edge">
<title>replacement&#45;&gt;env</title>
<path fill="none" stroke="black" d="M938.42,-957.14C897.04,-928.47 824.69,-875.26 772,-819.71 760.81,-807.91 750.07,-793.5 741.43,-780.85"/>
<polygon fill="black" stroke="black" points="744.56,-779.23 736.1,-772.85 738.74,-783.11 744.56,-779.23"/>
</g>
<!-- replacement&#45;&gt;linebuffer -->
<g id="edge72" class="edge">
<title>replacement&#45;&gt;linebuffer</title>
<path fill="none" stroke="black" d="M965.27,-955.51C953.76,-904.21 931.05,-778.73 957,-678.29 979.06,-592.88 1047.13,-513.05 1091.31,-468.27"/>
<polygon fill="black" stroke="black" points="1093.59,-470.94 1098.19,-461.39 1088.64,-465.99 1093.59,-470.94"/>
</g>
<!-- replacement&#45;&gt;messages -->
<g id="edge73" class="edge">
<title>replacement&#45;&gt;messages</title>
<path fill="none" stroke="black" d="M963.39,-955.58C953.82,-924.81 937.93,-868.89 932,-819.71 901.75,-568.95 882.16,-467.37 1025,-259.06 1073.38,-188.5 1097.88,-173.51 1177,-140.96 1305.98,-87.89 1712.41,-58.33 1900.17,-47.2"/>
<polygon fill="black" stroke="black" points="1900.11,-50.71 1909.89,-46.63 1899.7,-43.72 1900.11,-50.71"/>
</g>
<!-- replacement&#45;&gt;opresult -->
<g id="edge76" class="edge">
<title>replacement&#45;&gt;opresult</title>
<path fill="none" stroke="black" d="M965.39,-955.7C958.28,-924.83 946.41,-868.56 942,-819.71 925.01,-631.57 940.53,-576.04 1009,-399.98 1034.95,-333.26 1031.33,-304.06 1087,-259.06 1153.64,-205.2 1251.06,-182.46 1318.2,-172.9"/>
<polygon fill="black" stroke="black" points="1318.59,-176.38 1328.03,-171.57 1317.65,-169.44 1318.59,-176.38"/>
</g>
<!-- replacement&#45;&gt;parseCmdLine -->
<g id="edge71" class="edge">
<title>replacement&#45;&gt;parseCmdLine</title>
<path fill="none" stroke="black" d="M981.85,-955.78C1000.87,-915.06 1040.32,-830.64 1062.32,-783.56"/>
<polygon fill="black" stroke="black" points="1065.42,-785.19 1066.48,-774.65 1059.08,-782.23 1065.42,-785.19"/>
</g>
<!-- replacement&#45;&gt;tempFile -->
<g id="edge75" class="edge">
<title>replacement&#45;&gt;tempFile</title>
<path fill="none" stroke="black" d="M949.37,-956.17C922.43,-926.68 876.49,-872.82 848,-819.71 816.62,-761.22 823.44,-740.39 800,-678.29 790.4,-652.84 778.68,-624.64 769.22,-602.5"/>
<polygon fill="black" stroke="black" points="772.54,-601.36 765.38,-593.55 766.11,-604.12 772.54,-601.36"/>
</g>
<!-- replacement&#45;&gt;variables -->
<g id="edge74" class="edge">
<title>replacement&#45;&gt;variables</title>
<path fill="none" stroke="black" d="M1047.78,-965.62C1126.66,-952.24 1253.11,-931.78 1363,-918.48 1860.85,-858.24 2019.49,-1001.13 2487,-819.71 2583.48,-782.27 2584.39,-733.38 2672,-678.29 2729.23,-642.31 2799.09,-608.17 2846.07,-586.52"/>
<polygon fill="black" stroke="black" points="2847.31,-589.8 2854.95,-582.45 2844.4,-583.43 2847.31,-589.8"/>
</g>
<!-- replacement&#45;&gt;vartypes -->
<g id="edge70" class="edge">
<title>replacement&#45;&gt;vartypes</title>
<path fill="none" stroke="black" d="M1013.9,-958.15C1128.81,-901.99 1452.52,-741.62 1713,-592.02 1851.91,-512.24 1872.1,-466.12 2018,-399.98 2103.75,-361.1 2207.49,-332.1 2280.8,-314.35"/>
<polygon fill="black" stroke="black" points="2281.46,-317.79 2290.37,-312.06 2279.83,-310.98 2281.46,-317.79"/>
</g>
<!-- runCommand&#45;&gt;env -->
<g id="edge25" class="edge">
<title>runCommand&#45;&gt;env</title>
<path fill="none" stroke="black" d="M1457.01,-936.17C1315.6,-905.98 1124.26,-863.31 957,-819.71 889.47,-802.11 812.03,-778.45 765.09,-763.72"/>
<polygon fill="black" stroke="black" points="766.15,-760.39 755.56,-760.72 764.05,-767.07 766.15,-760.39"/>
</g>
<!-- runCommand&#45;&gt;functions -->
<g id="edge59" class="edge">
<title>runCommand&#45;&gt;functions</title>
<path fill="none" stroke="black" d="M1800.59,-925.16C1888.27,-890.6 2002.26,-845.67 2092.84,-809.97"/>
<polygon fill="black" stroke="black" points="2094.06,-813.26 2102.08,-806.33 2091.49,-806.74 2094.06,-813.26"/>
</g>
<!-- runCommand&#45;&gt;linebuffer -->
<g id="edge22" class="edge">
<title>runCommand&#45;&gt;linebuffer</title>
<path fill="none" stroke="black" d="M1556.93,-922.37C1513.94,-895.64 1466.51,-860.59 1432,-819.71 1341.13,-712.05 1393.09,-636.84 1299,-531.98 1271.09,-500.87 1231.3,-476.38 1197.45,-459.3"/>
<polygon fill="black" stroke="black" points="1199.03,-456.18 1188.52,-454.91 1195.95,-462.46 1199.03,-456.18"/>
</g>
<!-- runCommand&#45;&gt;matches -->
<g id="edge23" class="edge">
<title>runCommand&#45;&gt;matches</title>
<path fill="none" stroke="black" d="M1542.29,-923.7C1492.46,-897.08 1436.61,-861.76 1394,-819.71 1341.64,-768.04 1348.98,-739.38 1308,-678.29 1288.52,-649.25 1264.79,-617.32 1247.36,-594.45"/>
<polygon fill="black" stroke="black" points="1250.32,-592.55 1241.46,-586.74 1244.76,-596.81 1250.32,-592.55"/>
</g>
<!-- runCommand&#45;&gt;messages -->
<g id="edge29" class="edge">
<title>runCommand&#45;&gt;messages</title>
<path fill="none" stroke="black" d="M1698.23,-918.72C1750.95,-820.06 1846,-616.46 1846,-431 1846,-431 1846,-431 1846,-292 1846,-206.32 1911.79,-124.82 1956.52,-79.32"/>
<polygon fill="black" stroke="black" points="1958.93,-81.86 1963.54,-72.32 1953.99,-76.9 1958.93,-81.86"/>
</g>
<!-- runCommand&#45;&gt;opresult -->
<g id="edge61" class="edge">
<title>runCommand&#45;&gt;opresult</title>
<path fill="none" stroke="black" d="M1571.26,-921.17C1536.23,-894.57 1499.44,-859.93 1477,-819.71 1359.58,-609.25 1379.21,-302.5 1389.84,-200.45"/>
<polygon fill="black" stroke="black" points="1393.29,-201.13 1390.89,-190.81 1386.33,-200.38 1393.29,-201.13"/>
</g>
<!-- runCommand&#45;&gt;parseCmdLine -->
<g id="edge64" class="edge">
<title>runCommand&#45;&gt;parseCmdLine</title>
<path fill="none" stroke="black" d="M1526.61,-925.31C1404.91,-877.75 1232.75,-810.47 1141.12,-774.67"/>
<polygon fill="black" stroke="black" points="1142.63,-771.5 1132.04,-771.12 1140.08,-778.02 1142.63,-771.5"/>
</g>
<!-- runCommand&#45;&gt;readjson -->
<g id="edge60" class="edge">
<title>runCommand&#45;&gt;readjson</title>
<path fill="none" stroke="black" d="M1789.8,-924.17C1836.8,-898.34 1887.16,-863.47 1922,-819.71 1963.35,-767.78 1938.95,-736.95 1970,-678.29 1986.29,-647.51 2010.51,-616.2 2029.26,-593.99"/>
<polygon fill="black" stroke="black" points="2031.83,-596.38 2035.68,-586.51 2026.51,-591.82 2031.83,-596.38"/>
</g>
<!-- runCommand&#45;&gt;regexes -->
<g id="edge24" class="edge">
<title>runCommand&#45;&gt;regexes</title>
<path fill="none" stroke="black" d="M1689.65,-918.39C1723.22,-829.39 1771.31,-660.05 1713,-531.98 1699.77,-502.91 1673.57,-478.96 1649.42,-461.69"/>
<polygon fill="black" stroke="black" points="1651.41,-458.81 1641.19,-456.03 1647.44,-464.58 1651.41,-458.81"/>
</g>
<!-- runCommand&#45;&gt;signatures -->
<g id="edge65" class="edge">
<title>runCommand&#45;&gt;signatures</title>
<path fill="none" stroke="black" d="M1941.12,-960.22C2158.9,-939.67 2438.59,-898.54 2520,-819.71 2613.25,-729.42 2608.74,-655.86 2570,-531.98 2561.85,-505.91 2544.34,-480.66 2528.87,-461.92"/>
<polygon fill="black" stroke="black" points="2531.63,-459.76 2522.47,-454.43 2526.3,-464.31 2531.63,-459.76"/>
</g>
<!-- runCommand&#45;&gt;unicodes -->
<g id="edge62" class="edge">
<title>runCommand&#45;&gt;unicodes</title>
<path fill="none" stroke="black" d="M1744.77,-920.61C1779.12,-892.87 1817.7,-857.53 1846,-819.71 1930.41,-706.91 1893.73,-644.13 1979,-531.98 2000.81,-503.29 2032.08,-477.15 2057.09,-458.66"/>
<polygon fill="black" stroke="black" points="2059.07,-461.55 2065.12,-452.85 2054.96,-455.88 2059.07,-461.55"/>
</g>
<!-- runCommand&#45;&gt;utf8decoder -->
<g id="edge63" class="edge">
<title>runCommand&#45;&gt;utf8decoder</title>
<path fill="none" stroke="black" d="M1618.1,-918.79C1565.76,-845.99 1483.26,-717.55 1451,-592.02 1444.36,-566.18 1444.95,-557.97 1451,-531.98 1465.83,-468.29 1464.72,-440.55 1516,-399.98 1568.94,-358.09 1743.81,-326.36 1862.57,-308.98"/>
<polygon fill="black" stroke="black" points="1862.98,-312.45 1872.38,-307.55 1861.98,-305.52 1862.98,-312.45"/>
</g>
<!-- runCommand&#45;&gt;variables -->
<g id="edge34" class="edge">
<title>runCommand&#45;&gt;variables</title>
<path fill="none" stroke="black" d="M1935.3,-956.9C2189.57,-932.49 2548.51,-887.45 2672,-819.71 2770.45,-765.7 2847.13,-651.78 2880.62,-595.66"/>
<polygon fill="black" stroke="black" points="2883.55,-597.58 2885.6,-587.18 2877.51,-594.03 2883.55,-597.58"/>
</g>
<!-- runCommand&#45;&gt;vartypes -->
<g id="edge28" class="edge">
<title>runCommand&#45;&gt;vartypes</title>
<path fill="none" stroke="black" d="M1944.05,-962.15C2154.77,-942.94 2418.55,-902.68 2487,-819.71 2527,-771.23 2496.73,-740.39 2487,-678.29 2476.43,-610.81 2463.23,-596.21 2440,-531.98 2428.28,-499.55 2421.23,-492.95 2411,-460.02 2398.37,-419.36 2388.23,-371.83 2381.78,-338.07"/>
<polygon fill="black" stroke="black" points="2385.3,-337.85 2380.01,-328.67 2378.42,-339.14 2385.3,-337.85"/>
</g>
<!-- runner -->
<g id="node21" class="node">
<title>runner</title>
<g id="a_node21"><a xlink:href="html/runner.html" xlink:title="runner.md" target="_parent">
<polygon fill="palegreen" stroke="black" points="1229.37,-1428.69 1229.37,-1459.31 1179.95,-1480.95 1110.05,-1480.95 1060.63,-1459.31 1060.63,-1428.69 1110.05,-1407.05 1179.95,-1407.05 1229.37,-1428.69"/>
<polygon fill="none" stroke="black" points="1233.38,-1426.06 1233.38,-1461.94 1180.78,-1484.98 1109.22,-1484.98 1056.62,-1461.94 1056.62,-1426.06 1109.22,-1403.02 1180.78,-1403.02 1233.38,-1426.06"/>
<text text-anchor="middle" x="1145" y="-1435.2" font-family="Times,serif" font-size="36.00">runner</text>
</a>
</g>
</g>
<!-- signatures&#45;&gt;messages -->
<g id="edge46" class="edge">
<title>signatures&#45;&gt;messages</title>
<path fill="none" stroke="black" d="M2503.86,-405.48C2508.31,-370.33 2511.52,-303.47 2481,-259.06 2392.16,-129.79 2207.28,-76.45 2093.49,-55.22"/>
<polygon fill="black" stroke="black" points="2094.31,-51.82 2083.85,-53.48 2093.07,-58.71 2094.31,-51.82"/>
</g>
<!-- signatures&#45;&gt;vartypes -->
<g id="edge45" class="edge">
<title>signatures&#45;&gt;vartypes</title>
<path fill="none" stroke="black" d="M2478.91,-406.4C2460.42,-386.6 2433.12,-357.35 2411.01,-333.65"/>
<polygon fill="black" stroke="black" points="2413.84,-331.55 2404.46,-326.63 2408.72,-336.33 2413.84,-331.55"/>
</g>
<!-- startingvars&#45;&gt;args -->
<g id="edge79" class="edge">
<title>startingvars&#45;&gt;args</title>
<path fill="none" stroke="black" d="M1676.3,-1139.68C1456.04,-1125.72 892,-1086.03 820,-1041.52 776.1,-1014.38 607.61,-699.14 553.11,-595.67"/>
<polygon fill="black" stroke="black" points="556.22,-594.07 548.47,-586.84 550.03,-597.32 556.22,-594.07"/>
</g>
<!-- startingvars&#45;&gt;env -->
<g id="edge81" class="edge">
<title>startingvars&#45;&gt;env</title>
<path fill="none" stroke="black" d="M1675.73,-1140.11C1461.97,-1127.52 929.43,-1091.46 867,-1041.52 821.77,-1005.33 848.92,-970.77 824,-918.48 801.8,-871.91 789.64,-863.9 763,-819.71 755.47,-807.22 747.3,-793.38 740.24,-781.35"/>
<polygon fill="black" stroke="black" points="743.46,-779.91 735.39,-773.04 737.41,-783.44 743.46,-779.91"/>
</g>
<!-- startingvars&#45;&gt;functions -->
<g id="edge87" class="edge">
<title>startingvars&#45;&gt;functions</title>
<path fill="none" stroke="black" d="M1822.7,-1127.33C1872.52,-1110.47 1944.29,-1081.69 1998,-1041.52 2077.49,-982.07 2148.45,-892.51 2193.69,-828.36"/>
<polygon fill="black" stroke="black" points="2196.44,-830.53 2199.3,-820.33 2190.7,-826.52 2196.44,-830.53"/>
</g>
<!-- startingvars&#45;&gt;messages -->
<g id="edge80" class="edge">
<title>startingvars&#45;&gt;messages</title>
<path fill="none" stroke="black" d="M1850.34,-1138.49C1957.08,-1128.1 2142.68,-1102.35 2290,-1041.52 2606.51,-910.82 2760,-773.43 2760,-431 2760,-431 2760,-431 2760,-292 2760,-153.4 2299.57,-79.27 2094.05,-53.09"/>
<polygon fill="black" stroke="black" points="2094.53,-49.62 2084.18,-51.84 2093.66,-56.57 2094.53,-49.62"/>
</g>
<!-- startingvars&#45;&gt;opresult -->
<g id="edge85" class="edge">
<title>startingvars&#45;&gt;opresult</title>
<path fill="none" stroke="black" d="M1681.9,-1135.59C1576.26,-1121.6 1401.69,-1091.46 1363,-1041.52 1259.49,-907.91 1359.07,-346.39 1387.13,-200.67"/>
<polygon fill="black" stroke="black" points="1390.56,-201.35 1389.03,-190.87 1383.69,-200.02 1390.56,-201.35"/>
</g>
<!-- startingvars&#45;&gt;readjson -->
<g id="edge84" class="edge">
<title>startingvars&#45;&gt;readjson</title>
<path fill="none" stroke="black" d="M1829.36,-1129.08C1875.14,-1114.33 1933.54,-1087.52 1965,-1041.52 2010.81,-974.53 1981.26,-756.48 2003,-678.29 2011.07,-649.24 2025.87,-618.42 2037.94,-595.96"/>
<polygon fill="black" stroke="black" points="2040.96,-597.74 2042.7,-587.28 2034.82,-594.37 2040.96,-597.74"/>
</g>
<!-- startingvars&#45;&gt;runCommand -->
<g id="edge86" class="edge">
<title>startingvars&#45;&gt;runCommand</title>
<path fill="none" stroke="black" d="M1749.88,-1121.85C1738.62,-1103.37 1722.21,-1076.47 1706.75,-1051.12"/>
<polygon fill="black" stroke="black" points="1709.87,-1049.5 1701.68,-1042.79 1703.89,-1053.15 1709.87,-1049.5"/>
</g>
<!-- startingvars&#45;&gt;variables -->
<g id="edge82" class="edge">
<title>startingvars&#45;&gt;variables</title>
<path fill="none" stroke="black" d="M1854.7,-1145.27C2057.69,-1144.22 2541.07,-1132.01 2672,-1041.52 2751.84,-986.33 2854.38,-696.74 2887.88,-596.88"/>
<polygon fill="black" stroke="black" points="2891.11,-598.24 2890.96,-587.65 2884.47,-596.02 2891.11,-598.24"/>
</g>
<!-- startingvars&#45;&gt;vartypes -->
<g id="edge83" class="edge">
<title>startingvars&#45;&gt;vartypes</title>
<path fill="none" stroke="black" d="M1828.19,-1128.61C2002.77,-1082.65 2479.32,-947.52 2571,-819.71 2679.83,-667.99 2689.41,-557.4 2589,-399.98 2572.79,-374.56 2506.04,-343.96 2451.16,-322.19"/>
<polygon fill="black" stroke="black" points="2452.71,-319.04 2442.12,-318.65 2450.16,-325.55 2452.71,-319.04"/>
</g>
<!-- statictea -->
<g id="node24" class="node">
<title>statictea</title>
<g id="a_node24"><a xlink:href="html/statictea.html" xlink:title="statictea.md" target="_parent">
<polygon fill="palegoldenrod" stroke="black" points="620,-1505 447,-1444 620,-1383 793,-1444 620,-1505"/>
<text text-anchor="middle" x="620" y="-1432.1" font-family="Times,serif" font-size="48.00">statictea</text>
</a>
</g>
</g>
<!-- statictea&#45;&gt;args -->
<g id="edge103" class="edge">
<title>statictea&#45;&gt;args</title>
<path fill="none" stroke="black" d="M580.6,-1396.52C539.77,-1345.02 478.54,-1257.63 454,-1170.04 394.3,-956.97 485.81,-689.24 522.18,-596.46"/>
<polygon fill="black" stroke="black" points="525.42,-597.77 525.86,-587.19 518.92,-595.19 525.42,-597.77"/>
</g>
<!-- statictea&#45;&gt;env -->
<g id="edge107" class="edge">
<title>statictea&#45;&gt;env</title>
<path fill="none" stroke="black" d="M628.15,-1385.54C641.88,-1289.01 670.61,-1088.2 696,-918.48 702.93,-872.14 711.24,-818.67 716.56,-784.62"/>
<polygon fill="black" stroke="black" points="719.99,-785.35 718.08,-774.93 713.08,-784.26 719.99,-785.35"/>
</g>
<!-- statictea&#45;&gt;gethelp -->
<g id="edge105" class="edge">
<title>statictea&#45;&gt;gethelp</title>
<path fill="none" stroke="black" d="M546.58,-1408.4C477.46,-1375.83 375.37,-1327.72 312.14,-1297.93"/>
<polygon fill="black" stroke="black" points="313.86,-1294.87 303.32,-1293.77 310.87,-1301.2 313.86,-1294.87"/>
</g>
<!-- statictea&#45;&gt;messages -->
<g id="edge104" class="edge">
<title>statictea&#45;&gt;messages</title>
<path fill="none" stroke="black" d="M470.31,-1435.27C286.84,-1416.79 0,-1354.69 0,-1147 0,-1147 0,-1147 0,-292 0,-178.47 99.12,-179.24 206,-140.96 365.66,-83.77 1550.35,-52.26 1900.07,-44.13"/>
<polygon fill="black" stroke="black" points="1899.99,-47.63 1909.9,-43.9 1899.83,-40.63 1899.99,-47.63"/>
</g>
<!-- statictea&#45;&gt;opresult -->
<g id="edge108" class="edge">
<title>statictea&#45;&gt;opresult</title>
<path fill="none" stroke="black" d="M566.63,-1401.48C536.36,-1375.34 500.04,-1339.22 477,-1300.02 368.83,-1115.99 392,-818.26 392,-563 392,-563 392,-563 392,-429 392,-322.48 465.07,-305.36 561,-259.06 693.4,-195.15 1135.76,-174.15 1316.28,-168.14"/>
<polygon fill="black" stroke="black" points="1316.39,-171.64 1326.28,-167.82 1316.17,-164.64 1316.39,-171.64"/>
</g>
<!-- statictea&#45;&gt;parseCommandLine -->
<g id="edge9" class="edge">
<title>statictea&#45;&gt;parseCommandLine</title>
<path fill="none" stroke="black" d="M507.04,-1422.32C388.69,-1398.08 214.53,-1354.24 175,-1300.02 58.09,-1139.66 132.32,-877.16 164.4,-784.06"/>
<polygon fill="black" stroke="black" points="167.66,-785.33 167.67,-774.74 161.05,-783.01 167.66,-785.33"/>
</g>
<!-- statictea&#45;&gt;processTemplate -->
<g id="edge90" class="edge">
<title>statictea&#45;&gt;processTemplate</title>
<path fill="none" stroke="black" d="M689.62,-1407.36C753.09,-1374.87 845.47,-1327.58 903.09,-1298.09"/>
<polygon fill="black" stroke="black" points="904.42,-1301.33 911.73,-1293.66 901.23,-1295.1 904.42,-1301.33"/>
</g>
<!-- statictea&#45;&gt;repl -->
<g id="edge121" class="edge">
<title>statictea&#45;&gt;repl</title>
<path fill="none" stroke="black" d="M701.81,-1411.59C732.77,-1400.89 768.6,-1389.9 802,-1383 1039.65,-1333.93 1806.77,-1285.99 2010.14,-1273.9"/>
<polygon fill="black" stroke="black" points="2010.32,-1277.4 2020.1,-1273.31 2009.91,-1270.41 2010.32,-1277.4"/>
</g>
<!-- timer -->
<g id="node26" class="node">
<title>timer</title>
<g id="a_node26"><a xlink:href="html/timer.html" xlink:title="timer.md" target="_parent">
<polygon fill="palegreen" stroke="black" points="1464.09,-1259.21 1464.09,-1280.79 1433.58,-1296.04 1390.42,-1296.04 1359.91,-1280.79 1359.91,-1259.21 1390.42,-1243.96 1433.58,-1243.96 1464.09,-1259.21"/>
<polygon fill="none" stroke="black" points="1468.09,-1256.74 1468.09,-1283.26 1434.52,-1300.04 1389.48,-1300.04 1355.91,-1283.26 1355.91,-1256.74 1389.48,-1239.96 1434.52,-1239.96 1468.09,-1256.74"/>
<text text-anchor="middle" x="1412" y="-1263.8" font-family="Times,serif" font-size="24.00">timer</text>
</a>
</g>
</g>
<!-- statictea&#45;&gt;timer -->
<g id="edge122" class="edge">
<title>statictea&#45;&gt;timer</title>
<path fill="none" stroke="black" d="M703.88,-1412.09C734.44,-1401.7 769.48,-1390.78 802,-1383 1040.29,-1326 1111.91,-1369.03 1347,-1300.02 1351.47,-1298.71 1356.03,-1297.16 1360.56,-1295.46"/>
<polygon fill="black" stroke="black" points="1361.62,-1298.8 1369.61,-1291.85 1359.03,-1292.3 1361.62,-1298.8"/>
</g>
<!-- updateTemplate -->
<g id="node28" class="node">
<title>updateTemplate</title>
<g id="a_node28"><a xlink:href="html/updateTemplate.html" xlink:title="updateTemplate.md" target="_parent">
<ellipse fill="palegoldenrod" stroke="black" cx="1218" cy="-1270" rx="119.5" ry="24.08"/>
<text text-anchor="middle" x="1218" y="-1263.8" font-family="Times,serif" font-size="24.00">updateTemplate</text>
</a>
</g>
</g>
<!-- statictea&#45;&gt;updateTemplate -->
<g id="edge102" class="edge">
<title>statictea&#45;&gt;updateTemplate</title>
<path fill="none" stroke="black" d="M706.71,-1413.33C736.77,-1403.33 770.76,-1392.35 802,-1383 916.18,-1348.84 1049.39,-1313.81 1133.71,-1292.23"/>
<polygon fill="black" stroke="black" points="1134.47,-1295.65 1143.29,-1289.78 1132.74,-1288.87 1134.47,-1295.65"/>
</g>
<!-- version -->
<g id="node32" class="node">
<title>version</title>
<g id="a_node32"><a xlink:href="html/version.html" xlink:title="version.md" target="_parent">
<polygon fill="palegreen" stroke="black" points="3077.67,-419.21 3077.67,-440.79 3038.62,-456.04 2983.38,-456.04 2944.33,-440.79 2944.33,-419.21 2983.38,-403.96 3038.62,-403.96 3077.67,-419.21"/>
<polygon fill="none" stroke="black" points="3081.67,-416.48 3081.67,-443.52 3039.37,-460.04 2982.63,-460.04 2940.33,-443.52 2940.33,-416.48 2982.63,-399.96 3039.37,-399.96 3081.67,-416.48"/>
<text text-anchor="middle" x="3011" y="-423.8" font-family="Times,serif" font-size="24.00">version</text>
</a>
</g>
</g>
<!-- statictea&#45;&gt;version -->
<g id="edge106" class="edge">
<title>statictea&#45;&gt;version</title>
<path fill="none" stroke="black" d="M701.27,-1411.29C732.32,-1400.49 768.35,-1389.5 802,-1383 1063.34,-1332.47 3186,-1413.18 3186,-1147 3186,-1147 3186,-1147 3186,-979 3186,-780.1 3080.09,-559.02 3033.05,-470.64"/>
<polygon fill="black" stroke="black" points="3036.15,-469.02 3028.34,-461.86 3029.99,-472.33 3036.15,-469.02"/>
</g>
<!-- unicodes&#45;&gt;messages -->
<g id="edge41" class="edge">
<title>unicodes&#45;&gt;messages</title>
<path fill="none" stroke="black" d="M2105.81,-405.81C2115.78,-372.75 2130.24,-310.37 2117,-259.06 2099.53,-191.37 2055.96,-122.23 2026.41,-80.71"/>
<polygon fill="black" stroke="black" points="2029.36,-78.81 2020.67,-72.75 2023.68,-82.91 2029.36,-78.81"/>
</g>
<!-- unicodes&#45;&gt;opresult -->
<g id="edge40" class="edge">
<title>unicodes&#45;&gt;opresult</title>
<path fill="none" stroke="black" d="M2105.34,-405.76C2115.22,-369.43 2127.62,-299.2 2091,-259.06 2049.63,-213.72 1643.12,-182.18 1470.69,-170.75"/>
<polygon fill="black" stroke="black" points="1471.15,-167.27 1460.94,-170.11 1470.69,-174.25 1471.15,-167.27"/>
</g>
<!-- unicodes&#45;&gt;utf8decoder -->
<g id="edge42" class="edge">
<title>unicodes&#45;&gt;utf8decoder</title>
<path fill="none" stroke="black" d="M2077.91,-406.4C2059.85,-386.08 2032.95,-355.82 2011.61,-331.81"/>
<polygon fill="black" stroke="black" points="2014.29,-329.56 2005.03,-324.41 2009.06,-334.21 2014.29,-329.56"/>
</g>
<!-- unicodes&#45;&gt;vartypes -->
<g id="edge43" class="edge">
<title>unicodes&#45;&gt;vartypes</title>
<path fill="none" stroke="black" d="M2137.54,-409.66C2182.07,-387.88 2255.14,-352.14 2308.28,-326.14"/>
<polygon fill="black" stroke="black" points="2309.49,-329.45 2316.94,-321.91 2306.42,-323.16 2309.49,-329.45"/>
</g>
<!-- updateTemplate&#45;&gt;args -->
<g id="edge91" class="edge">
<title>updateTemplate&#45;&gt;args</title>
<path fill="none" stroke="black" d="M1141.01,-1251.23C1123.91,-1247.41 1105.86,-1243.47 1089,-1239.98 925.55,-1206.11 870.69,-1241.83 720,-1170.04 640.13,-1131.99 607.9,-1120.48 568,-1041.52 528.8,-963.93 532.26,-694.53 534.87,-597.86"/>
<polygon fill="black" stroke="black" points="538.36,-598.05 535.15,-587.95 531.36,-597.85 538.36,-598.05"/>
</g>
<!-- updateTemplate&#45;&gt;env -->
<g id="edge93" class="edge">
<title>updateTemplate&#45;&gt;env</title>
<path fill="none" stroke="black" d="M1146.92,-1250.2C1052.24,-1221.41 886.23,-1157.18 796,-1041.52 735.76,-964.29 724.07,-843.73 722.12,-784.79"/>
<polygon fill="black" stroke="black" points="725.63,-784.95 721.88,-775.04 718.63,-785.12 725.63,-784.95"/>
</g>
<!-- updateTemplate&#45;&gt;linebuffer -->
<g id="edge94" class="edge">
<title>updateTemplate&#45;&gt;linebuffer</title>
<path fill="none" stroke="black" d="M1219.93,-1245.44C1223.2,-1204.17 1229.71,-1116.07 1232,-1041.52 1236.96,-880.16 1293.23,-827.66 1232,-678.29 1211.59,-628.49 1169.85,-640.76 1147,-592.02 1129.18,-554.03 1126.71,-505.54 1127.74,-471.75"/>
<polygon fill="black" stroke="black" points="1131.23,-472.11 1128.17,-461.96 1124.24,-471.8 1131.23,-472.11"/>
</g>
<!-- updateTemplate&#45;&gt;messages -->
<g id="edge92" class="edge">
<title>updateTemplate&#45;&gt;messages</title>
<path fill="none" stroke="black" d="M1290.26,-1250.42C1308.65,-1246.33 1328.46,-1242.48 1347,-1239.98 1509.71,-1217.99 2683.87,-1257.21 2823,-1170.04 2878.12,-1135.51 2866.87,-1101.08 2893,-1041.52 2952.95,-904.89 3151.01,-536.58 3091,-399.98 3022.55,-244.17 2963.54,-212.23 2809,-140.96 2683.71,-83.18 2280.82,-56.1 2093.91,-46.4"/>
<polygon fill="black" stroke="black" points="2094.14,-42.91 2083.97,-45.9 2093.78,-49.9 2094.14,-42.91"/>
</g>
<!-- updateTemplate&#45;&gt;opresult -->
<g id="edge101" class="edge">
<title>updateTemplate&#45;&gt;opresult</title>
<path fill="none" stroke="black" d="M1142.06,-1251.06C1056.69,-1230.15 924.09,-1195.25 879,-1170.04 804.7,-1128.5 781.47,-1114.1 737,-1041.52 617.38,-846.28 557.92,-736.43 661,-531.98 706.92,-440.91 937.88,-302.83 1030,-259.06 1125.27,-213.8 1245.41,-188.58 1320.99,-176.15"/>
<polygon fill="black" stroke="black" points="1321.46,-179.62 1330.78,-174.58 1320.35,-172.71 1321.46,-179.62"/>
</g>
<!-- updateTemplate&#45;&gt;parseCmdLine -->
<g id="edge95" class="edge">
<title>updateTemplate&#45;&gt;parseCmdLine</title>
<path fill="none" stroke="black" d="M1211.71,-1245.69C1189.4,-1162.96 1113.9,-883.1 1087.34,-784.63"/>
<polygon fill="black" stroke="black" points="1090.73,-783.75 1084.74,-775 1083.97,-785.57 1090.73,-783.75"/>
</g>
<!-- updateTemplate&#45;&gt;replacement -->
<g id="edge99" class="edge">
<title>updateTemplate&#45;&gt;replacement</title>
<path fill="none" stroke="black" d="M1198.2,-1245.92C1154.11,-1194.5 1047.75,-1070.49 997.78,-1012.23"/>
<polygon fill="black" stroke="black" points="1000.7,-1010.25 991.53,-1004.94 995.39,-1014.81 1000.7,-1010.25"/>
</g>
<!-- updateTemplate&#45;&gt;runCommand -->
<g id="edge96" class="edge">
<title>updateTemplate&#45;&gt;runCommand</title>
<path fill="none" stroke="black" d="M1252.63,-1246.64C1318.85,-1203.88 1465.66,-1109.07 1564.76,-1045.08"/>
<polygon fill="black" stroke="black" points="1566.42,-1048.18 1572.92,-1039.81 1562.62,-1042.3 1566.42,-1048.18"/>
</g>
<!-- updateTemplate&#45;&gt;startingvars -->
<g id="edge100" class="edge">
<title>updateTemplate&#45;&gt;startingvars</title>
<path fill="none" stroke="black" d="M1296.1,-1251.4C1312.89,-1247.63 1330.54,-1243.67 1347,-1239.98 1464.47,-1213.67 1600.59,-1183.35 1684.5,-1164.68"/>
<polygon fill="black" stroke="black" points="1685.25,-1168.1 1694.26,-1162.51 1683.73,-1161.26 1685.25,-1168.1"/>
</g>
<!-- updateTemplate&#45;&gt;variables -->
<g id="edge97" class="edge">
<title>updateTemplate&#45;&gt;variables</title>
<path fill="none" stroke="black" d="M1290.26,-1250.44C1308.65,-1246.35 1328.46,-1242.49 1347,-1239.98 1505.62,-1218.44 2648.92,-1252.71 2786,-1170.04 2842.83,-1135.77 2839.13,-1103.81 2862,-1041.52 2917.94,-889.15 2900.7,-840.6 2900,-678.29 2899.88,-651.19 2899.61,-620.5 2899.38,-597.61"/>
<polygon fill="black" stroke="black" points="2902.88,-597.88 2899.28,-587.92 2895.88,-597.95 2902.88,-597.88"/>
</g>
<!-- updateTemplate&#45;&gt;vartypes -->
<g id="edge98" class="edge">
<title>updateTemplate&#45;&gt;vartypes</title>
<path fill="none" stroke="black" d="M1292.41,-1250.74C1310.22,-1246.79 1329.22,-1242.92 1347,-1239.98 1657.21,-1188.59 2545.3,-1281.91 2748,-1041.52 2933.52,-821.5 2871.89,-594.73 2660,-399.98 2644.22,-385.48 2534.03,-346.94 2455.14,-320.56"/>
<polygon fill="black" stroke="black" points="2456.26,-317.24 2445.67,-317.4 2454.05,-323.88 2456.26,-317.24"/>
</g>
<!-- variables&#45;&gt;messages -->
<g id="edge32" class="edge">
<title>variables&#45;&gt;messages</title>
<path fill="none" stroke="black" d="M2900.08,-537.55C2902,-465.43 2897.08,-245.5 2774,-140.96 2673.43,-55.54 2278.84,-42.76 2093.78,-41.57"/>
<polygon fill="black" stroke="black" points="2093.97,-38.08 2083.95,-41.52 2093.93,-45.08 2093.97,-38.08"/>
</g>
<!-- variables&#45;&gt;opresult -->
<g id="edge33" class="edge">
<title>variables&#45;&gt;opresult</title>
<path fill="none" stroke="black" d="M2887.8,-537.84C2870.29,-503.69 2833.44,-439.6 2786,-399.98 2671.39,-304.25 2625.34,-297.32 2481,-259.06 2289.76,-208.37 1686.78,-178.44 1471.41,-169.14"/>
<polygon fill="black" stroke="black" points="1471.57,-165.65 1461.43,-168.72 1471.27,-172.64 1471.57,-165.65"/>
</g>
<!-- variables&#45;&gt;vartypes -->
<g id="edge30" class="edge">
<title>variables&#45;&gt;vartypes</title>
<path fill="none" stroke="black" d="M2882.1,-538.2C2855.07,-503.32 2798.73,-436.91 2736,-399.98 2654.51,-352.01 2549.78,-324.44 2473.95,-309.51"/>
<polygon fill="black" stroke="black" points="2474.94,-306.14 2464.46,-307.69 2473.62,-313.01 2474.94,-306.14"/>
</g>
<!-- variables&#45;&gt;version -->
<g id="edge31" class="edge">
<title>variables&#45;&gt;version</title>
<path fill="none" stroke="black" d="M2918.51,-538.36C2935,-519.22 2958.96,-491.4 2978.36,-468.88"/>
<polygon fill="black" stroke="black" points="2980.96,-471.23 2984.83,-461.37 2975.65,-466.66 2980.96,-471.23"/>
</g>
<!-- vartypes&#45;&gt;messages -->
<g id="edge26" class="edge">
<title>vartypes&#45;&gt;messages</title>
<path fill="none" stroke="black" d="M2345.5,-260.24C2314.72,-227.3 2263.09,-175.85 2211,-140.96 2165.76,-110.65 2109.75,-85.12 2066.38,-67.59"/>
<polygon fill="black" stroke="black" points="2067.91,-64.43 2057.33,-63.97 2065.32,-70.93 2067.91,-64.43"/>
</g>
<!-- vartypes&#45;&gt;opresult -->
<g id="edge27" class="edge">
<title>vartypes&#45;&gt;opresult</title>
<path fill="none" stroke="black" d="M2283.46,-279.98C2235.98,-273.7 2176.86,-265.91 2124,-259.06 1883.62,-227.9 1598.6,-191.81 1467.12,-175.22"/>
<polygon fill="black" stroke="black" points="1467.88,-171.79 1457.52,-174.01 1467.01,-178.73 1467.88,-171.79"/>
</g>
</g>
</svg>
