<?xml version="1.0" encoding="UTF-8" standalone="no"?>
<!DOCTYPE svg PUBLIC "-//W3C//DTD SVG 1.1//EN"
 "http://www.w3.org/Graphics/SVG/1.1/DTD/svg11.dtd">
<!-- Generated by graphviz version 7.0.1 (20221109.1506)
 -->
<!-- Title: statictea Pages: 1 -->
<svg width="771pt" height="1772pt"
 viewBox="0.00 0.00 770.78 1772.04" xmlns="http://www.w3.org/2000/svg" xmlns:xlink="http://www.w3.org/1999/xlink">
<g id="graph0" class="graph" transform="scale(1 1) rotate(0) translate(4 1768.04)">
<title>statictea</title>
<polygon fill="white" stroke="none" points="-4,4 -4,-1768.04 766.78,-1768.04 766.78,4 -4,4"/>
<!-- strutils -->
<g id="node1" class="node">
<title>strutils</title>
<ellipse fill="none" stroke="black" cx="88.19" cy="-996.02" rx="57.97" ry="24.08"/>
<text text-anchor="middle" x="88.19" y="-989.82" font-family="Times,serif" font-size="24.00">strutils</text>
</g>
<!-- statictea -->
<g id="node2" class="node">
<title>statictea</title>
<g id="a_node2"><a xlink:href="html/statictea.html" xlink:title="statictea" target="_parent">
<ellipse fill="none" stroke="black" cx="613.58" cy="-1458.02" rx="67.35" ry="24.08"/>
<text text-anchor="middle" x="613.58" y="-1451.82" font-family="Times,serif" font-size="24.00">statictea</text>
</a>
</g>
</g>
<!-- strutils&#45;&gt;statictea -->
<g id="edge1" class="edge">
<title>strutils&#45;&gt;statictea</title>
<path fill="none" stroke="black" d="M102.35,-1019.68C144.42,-1092.96 283.57,-1317.71 464.38,-1425.02 486.1,-1437.91 512.33,-1445.78 536.64,-1450.57"/>
<polygon fill="black" stroke="black" points="535.7,-1453.96 546.16,-1452.3 536.95,-1447.07 535.7,-1453.96"/>
</g>
<!-- messages -->
<g id="node10" class="node">
<title>messages</title>
<g id="a_node10"><a xlink:href="html/messages.html" xlink:title="messages" target="_parent">
<ellipse fill="none" stroke="black" cx="613.58" cy="-1656.02" rx="74.91" ry="24.08"/>
<text text-anchor="middle" x="613.58" y="-1649.82" font-family="Times,serif" font-size="24.00">messages</text>
</a>
</g>
</g>
<!-- strutils&#45;&gt;messages -->
<g id="edge7" class="edge">
<title>strutils&#45;&gt;messages</title>
<path fill="none" stroke="black" d="M102.01,-1019.91C161.09,-1129.57 406.59,-1581.3 464.38,-1623.02 482.94,-1636.42 505.96,-1644.53 528.27,-1649.39"/>
<polygon fill="black" stroke="black" points="527.53,-1652.81 538.01,-1651.29 528.87,-1645.94 527.53,-1652.81"/>
</g>
<!-- cmdline -->
<g id="node11" class="node">
<title>cmdline</title>
<g id="a_node11"><a xlink:href="html/cmdline.html" xlink:title="cmdline" target="_parent">
<ellipse fill="none" stroke="black" cx="613.58" cy="-1260.02" rx="66.44" ry="24.08"/>
<text text-anchor="middle" x="613.58" y="-1253.82" font-family="Times,serif" font-size="24.00">cmdline</text>
</a>
</g>
</g>
<!-- strutils&#45;&gt;cmdline -->
<g id="edge12" class="edge">
<title>strutils&#45;&gt;cmdline</title>
<path fill="none" stroke="black" d="M116.63,-1017.45C176.35,-1063.03 324.04,-1170.07 464.38,-1227.02 488.32,-1236.73 515.64,-1243.85 540.25,-1248.93"/>
<polygon fill="black" stroke="black" points="539.38,-1252.32 549.87,-1250.83 540.73,-1245.45 539.38,-1252.32"/>
</g>
<!-- matches -->
<g id="node12" class="node">
<title>matches</title>
<g id="a_node12"><a xlink:href="html/matches.html" xlink:title="matches" target="_parent">
<ellipse fill="none" stroke="black" cx="613.58" cy="-996.02" rx="67.35" ry="24.08"/>
<text text-anchor="middle" x="613.58" y="-989.82" font-family="Times,serif" font-size="24.00">matches</text>
</a>
</g>
</g>
<!-- strutils&#45;&gt;matches -->
<g id="edge14" class="edge">
<title>strutils&#45;&gt;matches</title>
<path fill="none" stroke="black" d="M146.45,-996.02C240.63,-996.02 428.35,-996.02 534.59,-996.02"/>
<polygon fill="black" stroke="black" points="534.36,-999.52 544.36,-996.02 534.36,-992.52 534.36,-999.52"/>
</g>
<!-- processTemplate -->
<g id="node15" class="node">
<title>processTemplate</title>
<g id="a_node15"><a xlink:href="html/processTemplate.html" xlink:title="processTemplate" target="_parent">
<ellipse fill="none" stroke="black" cx="613.58" cy="-534.02" rx="124.4" ry="24.08"/>
<text text-anchor="middle" x="613.58" y="-527.82" font-family="Times,serif" font-size="24.00">processTemplate</text>
</a>
</g>
</g>
<!-- strutils&#45;&gt;processTemplate -->
<g id="edge21" class="edge">
<title>strutils&#45;&gt;processTemplate</title>
<path fill="none" stroke="black" d="M137.93,-983.2C151.22,-978.26 165.06,-971.66 176.38,-963.02 349.38,-830.99 282.41,-686.39 464.38,-567.02 474.51,-560.38 485.77,-555.06 497.44,-550.8"/>
<polygon fill="black" stroke="black" points="498.44,-554.16 506.81,-547.66 496.21,-547.52 498.44,-554.16"/>
</g>
<!-- env -->
<g id="node17" class="node">
<title>env</title>
<g id="a_node17"><a xlink:href="html/env.html" xlink:title="env" target="_parent">
<ellipse fill="none" stroke="black" cx="613.58" cy="-1326.02" rx="36.12" ry="24.08"/>
<text text-anchor="middle" x="613.58" y="-1319.82" font-family="Times,serif" font-size="24.00">env</text>
</a>
</g>
</g>
<!-- strutils&#45;&gt;env -->
<g id="edge27" class="edge">
<title>strutils&#45;&gt;env</title>
<path fill="none" stroke="black" d="M110.01,-1018.38C163.25,-1074.12 310.99,-1219.99 464.38,-1293.02 496.67,-1308.4 536.36,-1316.74 566.53,-1321.19"/>
<polygon fill="black" stroke="black" points="565.71,-1324.61 576.1,-1322.51 566.67,-1317.68 565.71,-1324.61"/>
</g>
<!-- tempFile -->
<g id="node19" class="node">
<title>tempFile</title>
<g id="a_node19"><a xlink:href="html/tempFile.html" xlink:title="tempFile" target="_parent">
<ellipse fill="none" stroke="black" cx="613.58" cy="-468.02" rx="72.25" ry="24.08"/>
<text text-anchor="middle" x="613.58" y="-461.82" font-family="Times,serif" font-size="24.00">tempFile</text>
</a>
</g>
</g>
<!-- strutils&#45;&gt;tempFile -->
<g id="edge30" class="edge">
<title>strutils&#45;&gt;tempFile</title>
<path fill="none" stroke="black" d="M138.34,-983.72C151.63,-978.79 165.37,-972.06 176.38,-963.02 363.36,-809.45 266.92,-640.87 464.38,-501.02 483.79,-487.28 507.93,-479.12 531.05,-474.32"/>
<polygon fill="black" stroke="black" points="531.62,-477.78 540.81,-472.5 530.34,-470.89 531.62,-477.78"/>
</g>
<!-- runCommand -->
<g id="node23" class="node">
<title>runCommand</title>
<g id="a_node23"><a xlink:href="html/runCommand.html" xlink:title="runCommand" target="_parent">
<ellipse fill="none" stroke="black" cx="613.58" cy="-732.02" rx="105.22" ry="24.08"/>
<text text-anchor="middle" x="613.58" y="-725.82" font-family="Times,serif" font-size="24.00">runCommand</text>
</a>
</g>
</g>
<!-- strutils&#45;&gt;runCommand -->
<g id="edge38" class="edge">
<title>strutils&#45;&gt;runCommand</title>
<path fill="none" stroke="black" d="M134.45,-981.24C148.22,-976.13 163.19,-969.93 176.38,-963.02 314.01,-891.01 321.97,-827.04 464.38,-765.02 480.29,-758.09 497.82,-752.55 515.08,-748.13"/>
<polygon fill="black" stroke="black" points="515.42,-751.65 524.31,-745.88 513.76,-744.85 515.42,-751.65"/>
</g>
<!-- vartypes -->
<g id="node24" class="node">
<title>vartypes</title>
<g id="a_node24"><a xlink:href="html/vartypes.html" xlink:title="vartypes" target="_parent">
<ellipse fill="none" stroke="black" cx="613.58" cy="-930.02" rx="69.09" ry="24.08"/>
<text text-anchor="middle" x="613.58" y="-923.82" font-family="Times,serif" font-size="24.00">vartypes</text>
</a>
</g>
</g>
<!-- strutils&#45;&gt;vartypes -->
<g id="edge43" class="edge">
<title>strutils&#45;&gt;vartypes</title>
<path fill="none" stroke="black" d="M144.21,-989.08C238.29,-977.22 430.19,-953.02 536.85,-939.57"/>
<polygon fill="black" stroke="black" points="537.17,-943.06 546.65,-938.34 536.29,-936.11 537.17,-943.06"/>
</g>
<!-- variables -->
<g id="node25" class="node">
<title>variables</title>
<g id="a_node25"><a xlink:href="html/variables.html" xlink:title="variables" target="_parent">
<ellipse fill="none" stroke="black" cx="613.58" cy="-864.02" rx="72.66" ry="24.08"/>
<text text-anchor="middle" x="613.58" y="-857.82" font-family="Times,serif" font-size="24.00">variables</text>
</a>
</g>
</g>
<!-- strutils&#45;&gt;variables -->
<g id="edge45" class="edge">
<title>strutils&#45;&gt;variables</title>
<path fill="none" stroke="black" d="M137.01,-982.77C208.17,-963.19 346.23,-925.75 464.38,-897.02 489.26,-890.97 516.59,-884.76 540.93,-879.39"/>
<polygon fill="black" stroke="black" points="541.4,-882.87 550.41,-877.3 539.89,-876.03 541.4,-882.87"/>
</g>
<!-- functions -->
<g id="node26" class="node">
<title>functions</title>
<g id="a_node26"><a xlink:href="html/functions.html" xlink:title="functions" target="_parent">
<ellipse fill="none" stroke="black" cx="613.58" cy="-1590.02" rx="74.91" ry="24.08"/>
<text text-anchor="middle" x="613.58" y="-1583.82" font-family="Times,serif" font-size="24.00">functions</text>
</a>
</g>
</g>
<!-- strutils&#45;&gt;functions -->
<g id="edge50" class="edge">
<title>strutils&#45;&gt;functions</title>
<path fill="none" stroke="black" d="M101.96,-1019.85C154.64,-1117.29 357.3,-1483.73 464.38,-1557.02 483.27,-1569.95 506.39,-1577.9 528.71,-1582.77"/>
<polygon fill="black" stroke="black" points="527.95,-1586.19 538.44,-1584.69 529.3,-1579.32 527.95,-1586.19"/>
</g>
<!-- unicodes -->
<g id="node33" class="node">
<title>unicodes</title>
<g id="a_node33"><a xlink:href="html/unicodes.html" xlink:title="unicodes" target="_parent">
<ellipse fill="none" stroke="black" cx="613.58" cy="-198.02" rx="71.34" ry="24.08"/>
<text text-anchor="middle" x="613.58" y="-191.82" font-family="Times,serif" font-size="24.00">unicodes</text>
</a>
</g>
</g>
<!-- strutils&#45;&gt;unicodes -->
<g id="edge58" class="edge">
<title>strutils&#45;&gt;unicodes</title>
<path fill="none" stroke="black" d="M139.89,-984.78C153.06,-979.88 166.35,-972.9 176.38,-963.02 423.77,-719.52 204.61,-467.28 464.38,-237.02 483.11,-220.42 508.1,-210.75 532.2,-205.16"/>
<polygon fill="black" stroke="black" points="532.64,-208.65 541.71,-203.18 531.21,-201.8 532.64,-208.65"/>
</g>
<!-- parseMarkdown -->
<g id="node37" class="node">
<title>parseMarkdown</title>
<g id="a_node37"><a xlink:href="html/parseMarkdown.html" xlink:title="parseMarkdown" target="_parent">
<ellipse fill="none" stroke="black" cx="613.58" cy="-798.02" rx="121.74" ry="24.08"/>
<text text-anchor="middle" x="613.58" y="-791.82" font-family="Times,serif" font-size="24.00">parseMarkdown</text>
</a>
</g>
</g>
<!-- strutils&#45;&gt;parseMarkdown -->
<g id="edge64" class="edge">
<title>strutils&#45;&gt;parseMarkdown</title>
<path fill="none" stroke="black" d="M132.44,-980.32C146.53,-975.02 162.19,-968.95 176.38,-963.02 306.3,-908.74 330.92,-875.91 464.38,-831.02 479.71,-825.87 496.2,-821.29 512.41,-817.31"/>
<polygon fill="black" stroke="black" points="513.19,-820.72 522.11,-814.99 511.57,-813.91 513.19,-820.72"/>
</g>
<!-- replacement -->
<g id="node38" class="node">
<title>replacement</title>
<g id="a_node38"><a xlink:href="html/replacement.html" xlink:title="replacement" target="_parent">
<ellipse fill="none" stroke="black" cx="613.58" cy="-1062.02" rx="94.51" ry="24.08"/>
<text text-anchor="middle" x="613.58" y="-1055.82" font-family="Times,serif" font-size="24.00">replacement</text>
</a>
</g>
</g>
<!-- strutils&#45;&gt;replacement -->
<g id="edge69" class="edge">
<title>strutils&#45;&gt;replacement</title>
<path fill="none" stroke="black" d="M144.21,-1002.96C232.68,-1014.12 407.66,-1036.18 516.9,-1049.96"/>
<polygon fill="black" stroke="black" points="516.38,-1053.42 526.74,-1051.2 517.26,-1046.47 516.38,-1053.42"/>
</g>
<!-- startingvars -->
<g id="node39" class="node">
<title>startingvars</title>
<g id="a_node39"><a xlink:href="html/startingvars.html" xlink:title="startingvars" target="_parent">
<ellipse fill="none" stroke="black" cx="613.58" cy="-1392.02" rx="90.52" ry="24.08"/>
<text text-anchor="middle" x="613.58" y="-1385.82" font-family="Times,serif" font-size="24.00">startingvars</text>
</a>
</g>
</g>
<!-- strutils&#45;&gt;startingvars -->
<g id="edge72" class="edge">
<title>strutils&#45;&gt;startingvars</title>
<path fill="none" stroke="black" d="M105.62,-1019.15C153.07,-1084.1 297.6,-1269.21 464.38,-1359.02 481.26,-1368.11 500.51,-1374.7 519.42,-1379.47"/>
<polygon fill="black" stroke="black" points="518.48,-1382.85 529.02,-1381.74 520.09,-1376.04 518.48,-1382.85"/>
</g>
<!-- repl -->
<g id="node42" class="node">
<title>repl</title>
<g id="a_node42"><a xlink:href="html/repl.html" xlink:title="repl" target="_parent">
<ellipse fill="none" stroke="black" cx="613.58" cy="-336.02" rx="38.37" ry="24.08"/>
<text text-anchor="middle" x="613.58" y="-329.82" font-family="Times,serif" font-size="24.00">repl</text>
</a>
</g>
</g>
<!-- strutils&#45;&gt;repl -->
<g id="edge80" class="edge">
<title>strutils&#45;&gt;repl</title>
<path fill="none" stroke="black" d="M139.43,-984.29C152.59,-979.38 165.99,-972.52 176.38,-963.02 392.93,-765.06 234.27,-551.04 464.38,-369.02 492.46,-346.81 532.46,-338.88 563.83,-336.33"/>
<polygon fill="black" stroke="black" points="563.69,-339.84 573.44,-335.71 563.24,-332.86 563.69,-339.84"/>
</g>
<!-- options -->
<g id="node3" class="node">
<title>options</title>
<ellipse fill="none" stroke="black" cx="88.19" cy="-765.02" rx="61.54" ry="24.08"/>
<text text-anchor="middle" x="88.19" y="-758.82" font-family="Times,serif" font-size="24.00">options</text>
</g>
<!-- parseCommandLine -->
<g id="node4" class="node">
<title>parseCommandLine</title>
<g id="a_node4"><a xlink:href="html/parseCommandLine.html" xlink:title="parseCommandLine" target="_parent">
<ellipse fill="none" stroke="black" cx="613.58" cy="-1128.02" rx="149.4" ry="24.08"/>
<text text-anchor="middle" x="613.58" y="-1121.82" font-family="Times,serif" font-size="24.00">parseCommandLine</text>
</a>
</g>
</g>
<!-- options&#45;&gt;parseCommandLine -->
<g id="edge2" class="edge">
<title>options&#45;&gt;parseCommandLine</title>
<path fill="none" stroke="black" d="M107.94,-788.16C158.5,-848.91 304.69,-1013.85 464.38,-1095.02 474.07,-1099.95 484.49,-1104.15 495.15,-1107.72"/>
<polygon fill="black" stroke="black" points="493.83,-1110.97 504.42,-1110.63 495.93,-1104.3 493.83,-1110.97"/>
</g>
<!-- options&#45;&gt;cmdline -->
<g id="edge13" class="edge">
<title>options&#45;&gt;cmdline</title>
<path fill="none" stroke="black" d="M105.21,-788.62C163.87,-874.41 368.6,-1167.78 464.38,-1227.02 486.06,-1240.43 512.5,-1248.42 537.02,-1253.16"/>
<polygon fill="black" stroke="black" points="536.18,-1256.57 546.63,-1254.86 537.39,-1249.68 536.18,-1256.57"/>
</g>
<!-- options&#45;&gt;matches -->
<g id="edge15" class="edge">
<title>options&#45;&gt;matches</title>
<path fill="none" stroke="black" d="M120.95,-785.56C183.96,-825.43 330.28,-913.71 464.38,-963.02 488.62,-971.94 516.02,-978.86 540.61,-984.01"/>
<polygon fill="black" stroke="black" points="539.7,-987.4 550.2,-985.96 541.09,-980.54 539.7,-987.4"/>
</g>
<!-- regexes -->
<g id="node14" class="node">
<title>regexes</title>
<g id="a_node14"><a xlink:href="html/regexes.html" xlink:title="regexes" target="_parent">
<ellipse fill="none" stroke="black" cx="613.58" cy="-120.02" rx="62.87" ry="24.08"/>
<text text-anchor="middle" x="613.58" y="-113.82" font-family="Times,serif" font-size="24.00">regexes</text>
</a>
</g>
</g>
<!-- options&#45;&gt;regexes -->
<g id="edge18" class="edge">
<title>options&#45;&gt;regexes</title>
<path fill="none" stroke="black" d="M119.96,-744.17C137.91,-730.97 160.14,-712.71 176.38,-693.02 346.52,-486.85 257.06,-333.75 464.38,-165.02 486.37,-147.13 515.39,-136.34 541.91,-129.84"/>
<polygon fill="black" stroke="black" points="542.64,-133.26 551.62,-127.64 541.09,-126.44 542.64,-133.26"/>
</g>
<!-- options&#45;&gt;processTemplate -->
<g id="edge19" class="edge">
<title>options&#45;&gt;processTemplate</title>
<path fill="none" stroke="black" d="M120.95,-744.48C183.96,-704.61 330.28,-616.33 464.38,-567.02 478.81,-561.72 494.37,-557.11 509.78,-553.17"/>
<polygon fill="black" stroke="black" points="510.61,-556.57 519.48,-550.78 508.94,-549.77 510.61,-556.57"/>
</g>
<!-- options&#45;&gt;env -->
<g id="edge26" class="edge">
<title>options&#45;&gt;env</title>
<path fill="none" stroke="black" d="M105.21,-788.55C173.55,-888.77 438.29,-1275.71 464.38,-1293.02 494.47,-1312.99 534.79,-1321.04 565.78,-1324.21"/>
<polygon fill="black" stroke="black" points="565.39,-1327.69 575.66,-1325.06 566,-1320.71 565.39,-1327.69"/>
</g>
<!-- options&#45;&gt;tempFile -->
<g id="edge31" class="edge">
<title>options&#45;&gt;tempFile</title>
<path fill="none" stroke="black" d="M116.88,-743.37C190.21,-686.39 388.98,-534.34 464.38,-501.02 486.45,-491.27 511.68,-484.27 534.99,-479.31"/>
<polygon fill="black" stroke="black" points="535.66,-482.74 544.77,-477.33 534.28,-475.88 535.66,-482.74"/>
</g>
<!-- linebuffer -->
<g id="node21" class="node">
<title>linebuffer</title>
<g id="a_node21"><a xlink:href="html/linebuffer.html" xlink:title="linebuffer" target="_parent">
<ellipse fill="none" stroke="black" cx="613.58" cy="-270.02" rx="78.48" ry="24.08"/>
<text text-anchor="middle" x="613.58" y="-263.82" font-family="Times,serif" font-size="24.00">linebuffer</text>
</a>
</g>
</g>
<!-- options&#45;&gt;linebuffer -->
<g id="edge34" class="edge">
<title>options&#45;&gt;linebuffer</title>
<path fill="none" stroke="black" d="M118.6,-743.64C136.28,-730.11 158.7,-711.69 176.38,-693.02 324.56,-536.59 283.78,-420.55 464.38,-303.02 482.72,-291.09 504.76,-283.42 526.16,-278.51"/>
<polygon fill="black" stroke="black" points="526.72,-281.97 535.79,-276.5 525.28,-275.12 526.72,-281.97"/>
</g>
<!-- parseCmdLine -->
<g id="node22" class="node">
<title>parseCmdLine</title>
<g id="a_node22"><a xlink:href="html/parseCmdLine.html" xlink:title="parseCmdLine" target="_parent">
<ellipse fill="none" stroke="black" cx="613.58" cy="-600.02" rx="111.95" ry="24.08"/>
<text text-anchor="middle" x="613.58" y="-593.82" font-family="Times,serif" font-size="24.00">parseCmdLine</text>
</a>
</g>
</g>
<!-- options&#45;&gt;parseCmdLine -->
<g id="edge35" class="edge">
<title>options&#45;&gt;parseCmdLine</title>
<path fill="none" stroke="black" d="M132.54,-747.87C201.85,-720.87 342.23,-667.98 464.38,-633.02 482.09,-627.95 501.18,-623.19 519.57,-618.95"/>
<polygon fill="black" stroke="black" points="520.15,-622.41 529.13,-616.78 518.6,-615.58 520.15,-622.41"/>
</g>
<!-- options&#45;&gt;runCommand -->
<g id="edge37" class="edge">
<title>options&#45;&gt;runCommand</title>
<path fill="none" stroke="black" d="M149.23,-761.24C234.68,-755.85 392.91,-745.87 500.44,-739.09"/>
<polygon fill="black" stroke="black" points="500.39,-742.6 510.15,-738.48 499.95,-735.62 500.39,-742.6"/>
</g>
<!-- options&#45;&gt;vartypes -->
<g id="edge44" class="edge">
<title>options&#45;&gt;vartypes</title>
<path fill="none" stroke="black" d="M132.54,-782.18C201.85,-809.17 342.23,-862.07 464.38,-897.02 489.32,-904.16 516.99,-910.69 541.61,-916.02"/>
<polygon fill="black" stroke="black" points="540.69,-919.4 551.2,-918.07 542.15,-912.56 540.69,-919.4"/>
</g>
<!-- options&#45;&gt;variables -->
<g id="edge46" class="edge">
<title>options&#45;&gt;variables</title>
<path fill="none" stroke="black" d="M144.21,-775.43C238.79,-793.32 432.26,-829.92 538.56,-850.02"/>
<polygon fill="black" stroke="black" points="537.86,-853.45 548.34,-851.87 539.16,-846.57 537.86,-853.45"/>
</g>
<!-- options&#45;&gt;functions -->
<g id="edge48" class="edge">
<title>options&#45;&gt;functions</title>
<path fill="none" stroke="black" d="M106.21,-788.11C124.78,-813.88 154.75,-857.2 176.38,-897.02 329.14,-1178.26 217.39,-1353.5 464.38,-1557.02 482.13,-1571.65 505,-1580.14 527.43,-1584.98"/>
<polygon fill="black" stroke="black" points="526.78,-1588.41 537.25,-1586.84 528.08,-1581.54 526.78,-1588.41"/>
</g>
<!-- parseNumber -->
<g id="node30" class="node">
<title>parseNumber</title>
<g id="a_node30"><a xlink:href="html/parseNumber.html" xlink:title="parseNumber" target="_parent">
<ellipse fill="none" stroke="black" cx="613.58" cy="-36.02" rx="103.48" ry="24.08"/>
<text text-anchor="middle" x="613.58" y="-29.82" font-family="Times,serif" font-size="24.00">parseNumber</text>
</a>
</g>
</g>
<!-- options&#45;&gt;parseNumber -->
<g id="edge55" class="edge">
<title>options&#45;&gt;parseNumber</title>
<path fill="none" stroke="black" d="M120.78,-744.19C138.79,-731.12 160.81,-713 176.38,-693.02 359.71,-457.83 242.03,-285.73 464.38,-87.02 480.54,-72.59 500.98,-62.2 521.48,-54.73"/>
<polygon fill="black" stroke="black" points="522.41,-58.11 530.75,-51.58 520.15,-51.49 522.41,-58.11"/>
</g>
<!-- options&#45;&gt;parseMarkdown -->
<g id="edge65" class="edge">
<title>options&#45;&gt;parseMarkdown</title>
<path fill="none" stroke="black" d="M149.23,-768.81C230.85,-773.95 378.89,-783.29 485.71,-790.02"/>
<polygon fill="black" stroke="black" points="485.18,-793.5 495.38,-790.63 485.62,-786.51 485.18,-793.5"/>
</g>
<!-- options&#45;&gt;replacement -->
<g id="edge66" class="edge">
<title>options&#45;&gt;replacement</title>
<path fill="none" stroke="black" d="M113.43,-787.38C170.17,-838.47 317.95,-964.31 464.38,-1029.02 481.81,-1036.73 501.22,-1042.71 520.1,-1047.33"/>
<polygon fill="black" stroke="black" points="519.13,-1050.7 529.66,-1049.56 520.71,-1043.88 519.13,-1050.7"/>
</g>
<!-- updateTemplate -->
<g id="node40" class="node">
<title>updateTemplate</title>
<g id="a_node40"><a xlink:href="html/updateTemplate.html" xlink:title="updateTemplate" target="_parent">
<ellipse fill="none" stroke="black" cx="613.58" cy="-666.02" rx="119.5" ry="24.08"/>
<text text-anchor="middle" x="613.58" y="-659.82" font-family="Times,serif" font-size="24.00">updateTemplate</text>
</a>
</g>
</g>
<!-- options&#45;&gt;updateTemplate -->
<g id="edge75" class="edge">
<title>options&#45;&gt;updateTemplate</title>
<path fill="none" stroke="black" d="M144.21,-754.61C231.88,-738.03 404.51,-705.38 513.93,-684.68"/>
<polygon fill="black" stroke="black" points="514.31,-688.17 523.48,-682.88 513.01,-681.29 514.31,-688.17"/>
</g>
<!-- options&#45;&gt;repl -->
<g id="edge79" class="edge">
<title>options&#45;&gt;repl</title>
<path fill="none" stroke="black" d="M117.22,-743.68C134.79,-729.87 157.59,-711.15 176.38,-693.02 315.07,-559.29 298.31,-466.69 464.38,-369.02 494.6,-351.25 533.43,-343.04 563.75,-339.25"/>
<polygon fill="black" stroke="black" points="563.87,-342.76 573.42,-338.17 563.1,-335.8 563.87,-342.76"/>
</g>
<!-- tables -->
<g id="node5" class="node">
<title>tables</title>
<ellipse fill="none" stroke="black" cx="88.19" cy="-930.02" rx="50.82" ry="24.08"/>
<text text-anchor="middle" x="88.19" y="-923.82" font-family="Times,serif" font-size="24.00">tables</text>
</g>
<!-- tables&#45;&gt;parseCommandLine -->
<g id="edge3" class="edge">
<title>tables&#45;&gt;parseCommandLine</title>
<path fill="none" stroke="black" d="M129.35,-944.57C144.21,-950.13 161.15,-956.66 176.38,-963.02 306.3,-1017.31 330.92,-1050.14 464.38,-1095.02 477.29,-1099.37 491.03,-1103.3 504.74,-1106.81"/>
<polygon fill="black" stroke="black" points="503.69,-1110.16 514.24,-1109.18 505.38,-1103.37 503.69,-1110.16"/>
</g>
<!-- args -->
<g id="node8" class="node">
<title>args</title>
<g id="a_node8"><a xlink:href="html/args.html" xlink:title="args" target="_parent">
<ellipse fill="none" stroke="black" cx="613.58" cy="-1524.02" rx="39.7" ry="24.08"/>
<text text-anchor="middle" x="613.58" y="-1517.82" font-family="Times,serif" font-size="24.00">args</text>
</a>
</g>
</g>
<!-- tables&#45;&gt;args -->
<g id="edge9" class="edge">
<title>tables&#45;&gt;args</title>
<path fill="none" stroke="black" d="M134.61,-940.47C149.16,-945.47 164.54,-952.71 176.38,-963.02 377.93,-1138.6 250.82,-1330.26 464.38,-1491.02 492.39,-1512.11 531.3,-1520.19 562.22,-1523.09"/>
<polygon fill="black" stroke="black" points="561.9,-1526.58 572.13,-1523.85 562.43,-1519.6 561.9,-1526.58"/>
</g>
<!-- tables&#45;&gt;cmdline -->
<g id="edge11" class="edge">
<title>tables&#45;&gt;cmdline</title>
<path fill="none" stroke="black" d="M131.95,-942.55C146.61,-947.78 162.74,-954.62 176.38,-963.02 324.24,-1054.06 310.4,-1146.76 464.38,-1227.02 487.08,-1238.86 513.89,-1246.46 538.42,-1251.34"/>
<polygon fill="black" stroke="black" points="537.55,-1254.74 548.02,-1253.12 538.83,-1247.86 537.55,-1254.74"/>
</g>
<!-- tables&#45;&gt;matches -->
<g id="edge16" class="edge">
<title>tables&#45;&gt;matches</title>
<path fill="none" stroke="black" d="M137.49,-936.11C229.27,-947.69 429.4,-972.92 538.33,-986.66"/>
<polygon fill="black" stroke="black" points="537.68,-990.11 548.04,-987.88 538.56,-983.16 537.68,-990.11"/>
</g>
<!-- tables&#45;&gt;processTemplate -->
<g id="edge20" class="edge">
<title>tables&#45;&gt;processTemplate</title>
<path fill="none" stroke="black" d="M105.28,-907.35C152.38,-842.83 297.2,-657.05 464.38,-567.02 475.98,-560.77 488.71,-555.71 501.67,-551.6"/>
<polygon fill="black" stroke="black" points="502.55,-554.99 511.15,-548.8 500.57,-548.28 502.55,-554.99"/>
</g>
<!-- tables&#45;&gt;parseCmdLine -->
<g id="edge36" class="edge">
<title>tables&#45;&gt;parseCmdLine</title>
<path fill="none" stroke="black" d="M109.62,-908.07C162.52,-852.64 310.61,-706.23 464.38,-633.02 478.59,-626.26 494.24,-620.85 509.88,-616.54"/>
<polygon fill="black" stroke="black" points="510.42,-620.01 519.22,-614.11 508.66,-613.24 510.42,-620.01"/>
</g>
<!-- tables&#45;&gt;runCommand -->
<g id="edge39" class="edge">
<title>tables&#45;&gt;runCommand</title>
<path fill="none" stroke="black" d="M123.47,-912.22C188.42,-879.11 334.55,-807.57 464.38,-765.02 481.99,-759.25 501.11,-754.16 519.57,-749.81"/>
<polygon fill="black" stroke="black" points="520.22,-753.25 529.18,-747.61 518.65,-746.43 520.22,-753.25"/>
</g>
<!-- tables&#45;&gt;vartypes -->
<g id="edge42" class="edge">
<title>tables&#45;&gt;vartypes</title>
<path fill="none" stroke="black" d="M139.38,-930.02C230.44,-930.02 423.55,-930.02 532.84,-930.02"/>
<polygon fill="black" stroke="black" points="532.61,-933.52 542.61,-930.02 532.61,-926.52 532.61,-933.52"/>
</g>
<!-- tables&#45;&gt;variables -->
<g id="edge47" class="edge">
<title>tables&#45;&gt;variables</title>
<path fill="none" stroke="black" d="M137.49,-923.93C228.05,-912.51 424.09,-887.79 533.93,-873.94"/>
<polygon fill="black" stroke="black" points="534.28,-877.42 543.76,-872.7 533.4,-870.48 534.28,-877.42"/>
</g>
<!-- tables&#45;&gt;functions -->
<g id="edge49" class="edge">
<title>tables&#45;&gt;functions</title>
<path fill="none" stroke="black" d="M134.9,-940.14C149.47,-945.13 164.79,-952.43 176.38,-963.02 392.93,-1160.98 234.27,-1375.01 464.38,-1557.02 482.42,-1571.29 505.38,-1579.67 527.81,-1584.51"/>
<polygon fill="black" stroke="black" points="527.14,-1587.94 537.62,-1586.39 528.46,-1581.07 527.14,-1587.94"/>
</g>
<!-- signatures -->
<g id="node34" class="node">
<title>signatures</title>
<g id="a_node34"><a xlink:href="html/signatures.html" xlink:title="signatures" target="_parent">
<ellipse fill="none" stroke="black" cx="613.58" cy="-1194.02" rx="79.81" ry="24.08"/>
<text text-anchor="middle" x="613.58" y="-1187.82" font-family="Times,serif" font-size="24.00">signatures</text>
</a>
</g>
</g>
<!-- tables&#45;&gt;signatures -->
<g id="edge59" class="edge">
<title>tables&#45;&gt;signatures</title>
<path fill="none" stroke="black" d="M130.89,-943.49C145.6,-948.84 162.04,-955.52 176.38,-963.02 314.01,-1035.03 321.97,-1099.01 464.38,-1161.02 484.75,-1169.89 507.78,-1176.5 529.51,-1181.37"/>
<polygon fill="black" stroke="black" points="528.73,-1184.79 539.25,-1183.45 530.19,-1177.94 528.73,-1184.79"/>
</g>
<!-- readjson -->
<g id="node35" class="node">
<title>readjson</title>
<g id="a_node35"><a xlink:href="html/readjson.html" xlink:title="readjson" target="_parent">
<ellipse fill="none" stroke="black" cx="613.58" cy="-402.02" rx="69.09" ry="24.08"/>
<text text-anchor="middle" x="613.58" y="-395.82" font-family="Times,serif" font-size="24.00">readjson</text>
</a>
</g>
</g>
<!-- tables&#45;&gt;readjson -->
<g id="edge63" class="edge">
<title>tables&#45;&gt;readjson</title>
<path fill="none" stroke="black" d="M105.28,-906.92C170.51,-813.51 414.19,-467.24 464.38,-435.02 485.16,-421.69 510.57,-413.69 534.45,-408.91"/>
<polygon fill="black" stroke="black" points="534.95,-412.38 544.16,-407.15 533.69,-405.49 534.95,-412.38"/>
</g>
<!-- tables&#45;&gt;startingvars -->
<g id="edge71" class="edge">
<title>tables&#45;&gt;startingvars</title>
<path fill="none" stroke="black" d="M133.42,-941.22C148.04,-946.31 163.77,-953.4 176.38,-963.02 349.38,-1095.06 282.41,-1239.66 464.38,-1359.02 479.97,-1369.25 498.25,-1376.34 516.56,-1381.25"/>
<polygon fill="black" stroke="black" points="515.61,-1384.62 526.15,-1383.61 517.28,-1377.83 515.61,-1384.62"/>
</g>
<!-- tables&#45;&gt;updateTemplate -->
<g id="edge76" class="edge">
<title>tables&#45;&gt;updateTemplate</title>
<path fill="none" stroke="black" d="M115.73,-909.28C174.86,-864.1 323.33,-756.26 464.38,-699.02 478.63,-693.24 494.08,-688.38 509.45,-684.32"/>
<polygon fill="black" stroke="black" points="510.3,-687.72 519.13,-681.88 508.58,-680.93 510.3,-687.72"/>
</g>
<!-- tables&#45;&gt;repl -->
<g id="edge78" class="edge">
<title>tables&#45;&gt;repl</title>
<path fill="none" stroke="black" d="M104.53,-906.84C174.17,-801.6 457.6,-373.67 464.38,-369.02 493.51,-349.09 532.71,-340.98 563.47,-337.78"/>
<polygon fill="black" stroke="black" points="563.65,-341.28 573.31,-336.91 563.04,-334.3 563.65,-341.28"/>
</g>
<!-- os -->
<g id="node6" class="node">
<title>os</title>
<ellipse fill="none" stroke="black" cx="88.19" cy="-1194.02" rx="27" ry="24.08"/>
<text text-anchor="middle" x="88.19" y="-1187.82" font-family="Times,serif" font-size="24.00">os</text>
</g>
<!-- os&#45;&gt;statictea -->
<g id="edge86" class="edge">
<title>os&#45;&gt;statictea</title>
<path fill="none" stroke="black" d="M109.04,-1209.63C162.91,-1251.2 317.66,-1365.48 464.38,-1425.02 488.1,-1434.65 515.16,-1441.72 539.6,-1446.79"/>
<polygon fill="black" stroke="black" points="538.65,-1450.17 549.14,-1448.69 540.02,-1443.31 538.65,-1450.17"/>
</g>
<!-- os&#45;&gt;parseCommandLine -->
<g id="edge4" class="edge">
<title>os&#45;&gt;parseCommandLine</title>
<path fill="none" stroke="black" d="M115.15,-1190.75C181.22,-1182.42 359.33,-1159.96 483.42,-1144.31"/>
<polygon fill="black" stroke="black" points="483.52,-1147.83 493,-1143.1 482.64,-1140.88 483.52,-1147.83"/>
</g>
<!-- os&#45;&gt;cmdline -->
<g id="edge10" class="edge">
<title>os&#45;&gt;cmdline</title>
<path fill="none" stroke="black" d="M115.15,-1197.3C192.08,-1207 420.89,-1235.85 539.48,-1250.8"/>
<polygon fill="black" stroke="black" points="538.74,-1254.24 549.1,-1252.02 539.62,-1247.29 538.74,-1254.24"/>
</g>
<!-- os&#45;&gt;env -->
<g id="edge24" class="edge">
<title>os&#45;&gt;env</title>
<path fill="none" stroke="black" d="M114.13,-1200.96C174.22,-1217.6 331.83,-1260.79 464.38,-1293.02 498.86,-1301.41 538.06,-1310.1 567.48,-1316.46"/>
<polygon fill="black" stroke="black" points="566.66,-1319.86 577.17,-1318.54 568.13,-1313.02 566.66,-1319.86"/>
</g>
<!-- os&#45;&gt;tempFile -->
<g id="edge28" class="edge">
<title>os&#45;&gt;tempFile</title>
<path fill="none" stroke="black" d="M100.77,-1172.34C163.15,-1055.6 456.58,-506.92 464.38,-501.02 483.36,-486.69 507.37,-478.36 530.51,-473.58"/>
<polygon fill="black" stroke="black" points="531.08,-477.04 540.29,-471.79 529.82,-470.15 531.08,-477.04"/>
</g>
<!-- os&#45;&gt;runCommand -->
<g id="edge40" class="edge">
<title>os&#45;&gt;runCommand</title>
<path fill="none" stroke="black" d="M101.18,-1172.4C141.8,-1101.33 281.87,-873.35 464.38,-765.02 478.01,-756.93 493.41,-750.82 509,-746.21"/>
<polygon fill="black" stroke="black" points="509.63,-749.67 518.35,-743.65 507.78,-742.92 509.63,-749.67"/>
</g>
<!-- os&#45;&gt;functions -->
<g id="edge52" class="edge">
<title>os&#45;&gt;functions</title>
<path fill="none" stroke="black" d="M103.32,-1213.99C148.24,-1275.87 294.81,-1465.7 464.38,-1557.02 484.63,-1567.93 508.29,-1575.23 530.69,-1580.13"/>
<polygon fill="black" stroke="black" points="529.93,-1583.54 540.43,-1582.1 531.33,-1576.68 529.93,-1583.54"/>
</g>
<!-- os&#45;&gt;readjson -->
<g id="edge61" class="edge">
<title>os&#45;&gt;readjson</title>
<path fill="none" stroke="black" d="M100.86,-1172.52C117.81,-1141.15 150.1,-1080.91 176.38,-1029.02 308.94,-767.28 234.27,-617.04 464.38,-435.02 483.83,-419.64 509.01,-411.1 533.07,-406.46"/>
<polygon fill="black" stroke="black" points="533.63,-409.92 542.9,-404.79 532.46,-403.02 533.63,-409.92"/>
</g>
<!-- os&#45;&gt;startingvars -->
<g id="edge70" class="edge">
<title>os&#45;&gt;startingvars</title>
<path fill="none" stroke="black" d="M111.84,-1205.87C169.33,-1235.5 326.1,-1313.7 464.38,-1359.02 484.34,-1365.56 506.23,-1371.23 526.92,-1375.93"/>
<polygon fill="black" stroke="black" points="525.94,-1379.3 536.46,-1378.05 527.45,-1372.47 525.94,-1379.3"/>
</g>
<!-- os&#45;&gt;updateTemplate -->
<g id="edge74" class="edge">
<title>os&#45;&gt;updateTemplate</title>
<path fill="none" stroke="black" d="M102.32,-1172.99C156.41,-1086.98 363.88,-763.53 464.38,-699.02 475.39,-691.96 487.69,-686.39 500.38,-682.01"/>
<polygon fill="black" stroke="black" points="501.19,-685.42 509.66,-679.06 499.07,-678.75 501.19,-685.42"/>
</g>
<!-- strformat -->
<g id="node7" class="node">
<title>strformat</title>
<ellipse fill="none" stroke="black" cx="88.19" cy="-1350.02" rx="74.49" ry="24.08"/>
<text text-anchor="middle" x="88.19" y="-1343.82" font-family="Times,serif" font-size="24.00">strformat</text>
</g>
<!-- strformat&#45;&gt;args -->
<g id="edge5" class="edge">
<title>strformat&#45;&gt;args</title>
<path fill="none" stroke="black" d="M134.4,-1369.38C204.19,-1398.72 342.83,-1454.84 464.38,-1491.02 497.17,-1500.78 534.8,-1509.13 563.93,-1514.98"/>
<polygon fill="black" stroke="black" points="563.08,-1518.38 573.57,-1516.89 564.44,-1511.52 563.08,-1518.38"/>
</g>
<!-- strformat&#45;&gt;messages -->
<g id="edge8" class="edge">
<title>strformat&#45;&gt;messages</title>
<path fill="none" stroke="black" d="M123.07,-1371.45C139.35,-1381.93 159.05,-1394.88 176.38,-1407.02 307.41,-1498.85 319.03,-1556.13 464.38,-1623.02 485.68,-1632.82 510.07,-1639.8 532.83,-1644.73"/>
<polygon fill="black" stroke="black" points="531.87,-1648.1 542.37,-1646.68 533.27,-1641.24 531.87,-1648.1"/>
</g>
<!-- strformat&#45;&gt;replacement -->
<g id="edge68" class="edge">
<title>strformat&#45;&gt;replacement</title>
<path fill="none" stroke="black" d="M114.87,-1327.35C172.87,-1277.4 320.16,-1157.37 464.38,-1095.02 481.98,-1087.42 501.54,-1081.47 520.52,-1076.85"/>
<polygon fill="black" stroke="black" points="521.19,-1080.29 530.14,-1074.62 519.61,-1073.47 521.19,-1080.29"/>
</g>
<!-- strformat&#45;&gt;repl -->
<g id="edge81" class="edge">
<title>strformat&#45;&gt;repl</title>
<path fill="none" stroke="black" d="M108.77,-1326.85C128.09,-1303.07 157.4,-1264.36 176.38,-1227.02 358.64,-868.44 165.45,-638.17 464.38,-369.02 491.16,-344.91 531.6,-337.14 563.48,-335.13"/>
<polygon fill="black" stroke="black" points="563.44,-338.64 573.28,-334.7 563.14,-331.65 563.44,-338.64"/>
</g>
<!-- macros -->
<g id="node9" class="node">
<title>macros</title>
<polygon fill="palegreen" stroke="black" points="153.84,-1723.24 153.84,-1744.81 115.39,-1760.06 61,-1760.06 22.54,-1744.81 22.54,-1723.24 61,-1707.98 115.39,-1707.98 153.84,-1723.24"/>
<polygon fill="none" stroke="black" points="157.83,-1720.51 157.83,-1747.53 116.15,-1764.07 60.24,-1764.07 18.55,-1747.53 18.55,-1720.51 60.24,-1703.98 116.15,-1703.98 157.83,-1720.51"/>
<text text-anchor="middle" x="88.19" y="-1727.82" font-family="Times,serif" font-size="24.00">macros</text>
</g>
<!-- macros&#45;&gt;messages -->
<g id="edge6" class="edge">
<title>macros&#45;&gt;messages</title>
<path fill="none" stroke="black" d="M158.15,-1723.75C255.27,-1709.27 431.87,-1682.95 533.96,-1667.74"/>
<polygon fill="black" stroke="black" points="534.25,-1671.23 543.63,-1666.3 533.22,-1664.31 534.25,-1671.23"/>
</g>
<!-- re -->
<g id="node13" class="node">
<title>re</title>
<polygon fill="palegreen" stroke="black" points="115.19,-97.24 115.19,-118.81 99.37,-134.06 77.01,-134.06 61.19,-118.81 61.19,-97.24 77.01,-81.98 99.37,-81.98 115.19,-97.24"/>
<polygon fill="none" stroke="black" points="119.19,-95.53 119.19,-120.51 100.99,-138.07 75.39,-138.07 57.19,-120.51 57.19,-95.53 75.39,-77.98 100.99,-77.98 119.19,-95.53"/>
<text text-anchor="middle" x="88.19" y="-101.82" font-family="Times,serif" font-size="24.00">re</text>
</g>
<!-- re&#45;&gt;regexes -->
<g id="edge17" class="edge">
<title>re&#45;&gt;regexes</title>
<path fill="none" stroke="black" d="M119.59,-108.72C200.46,-110.57 422.61,-115.67 539.1,-118.34"/>
<polygon fill="black" stroke="black" points="538.79,-121.83 548.86,-118.56 538.95,-114.83 538.79,-121.83"/>
</g>
<!-- streams -->
<g id="node16" class="node">
<title>streams</title>
<ellipse fill="none" stroke="black" cx="88.19" cy="-660.02" rx="62.87" ry="24.08"/>
<text text-anchor="middle" x="88.19" y="-653.82" font-family="Times,serif" font-size="24.00">streams</text>
</g>
<!-- streams&#45;&gt;processTemplate -->
<g id="edge22" class="edge">
<title>streams&#45;&gt;processTemplate</title>
<path fill="none" stroke="black" d="M141.29,-646.69C213.66,-628.27 348.75,-594.22 464.38,-567.02 481.8,-562.92 500.41,-558.68 518.35,-554.65"/>
<polygon fill="black" stroke="black" points="518.94,-558.1 527.94,-552.5 517.42,-551.27 518.94,-558.1"/>
</g>
<!-- streams&#45;&gt;env -->
<g id="edge23" class="edge">
<title>streams&#45;&gt;env</title>
<path fill="none" stroke="black" d="M120.56,-681.03C138.49,-694.16 160.51,-712.29 176.38,-732.02 352.05,-950.41 242.59,-1121.67 464.38,-1293.02 493.27,-1315.34 534.27,-1323.17 565.83,-1325.65"/>
<polygon fill="black" stroke="black" points="565.28,-1329.13 575.48,-1326.25 565.71,-1322.14 565.28,-1329.13"/>
</g>
<!-- streams&#45;&gt;tempFile -->
<g id="edge32" class="edge">
<title>streams&#45;&gt;tempFile</title>
<path fill="none" stroke="black" d="M127.73,-640.91C194.75,-608.32 337.72,-541.59 464.38,-501.02 488.11,-493.42 514.52,-486.94 538.4,-481.78"/>
<polygon fill="black" stroke="black" points="538.99,-485.23 548.05,-479.74 537.55,-478.38 538.99,-485.23"/>
</g>
<!-- streams&#45;&gt;linebuffer -->
<g id="edge33" class="edge">
<title>streams&#45;&gt;linebuffer</title>
<path fill="none" stroke="black" d="M130.88,-642.19C145.91,-634.83 162.56,-625.55 176.38,-615.02 326.51,-500.68 300.82,-397.16 464.38,-303.02 483.45,-292.05 505.83,-284.72 527.34,-279.83"/>
<polygon fill="black" stroke="black" points="527.94,-283.28 537.01,-277.8 526.5,-276.43 527.94,-283.28"/>
</g>
<!-- streams&#45;&gt;runCommand -->
<g id="edge41" class="edge">
<title>streams&#45;&gt;runCommand</title>
<path fill="none" stroke="black" d="M147.96,-668.11C236.04,-680.22 403.45,-703.25 511.43,-718.11"/>
<polygon fill="black" stroke="black" points="510.78,-721.55 521.16,-719.45 511.74,-714.62 510.78,-721.55"/>
</g>
<!-- streams&#45;&gt;readjson -->
<g id="edge60" class="edge">
<title>streams&#45;&gt;readjson</title>
<path fill="none" stroke="black" d="M127.75,-640.98C143.04,-633.21 160.69,-623.96 176.38,-615.02 307.56,-540.35 324.71,-492.25 464.38,-435.02 487.54,-425.53 513.91,-418.54 537.92,-413.5"/>
<polygon fill="black" stroke="black" points="538.53,-416.95 547.65,-411.55 537.16,-410.09 538.53,-416.95"/>
</g>
<!-- streams&#45;&gt;replacement -->
<g id="edge67" class="edge">
<title>streams&#45;&gt;replacement</title>
<path fill="none" stroke="black" d="M116.95,-681.65C134.41,-695.57 157.2,-714.31 176.38,-732.02 311.48,-856.75 303.9,-939.27 464.38,-1029.02 480.19,-1037.87 498.2,-1044.34 516.08,-1049.08"/>
<polygon fill="black" stroke="black" points="515.16,-1052.46 525.71,-1051.45 516.83,-1045.66 515.16,-1052.46"/>
</g>
<!-- streams&#45;&gt;updateTemplate -->
<g id="edge73" class="edge">
<title>streams&#45;&gt;updateTemplate</title>
<path fill="none" stroke="black" d="M151.29,-660.73C232.47,-661.67 376.76,-663.32 482.41,-664.53"/>
<polygon fill="black" stroke="black" points="482.25,-668.03 492.28,-664.64 482.33,-661.03 482.25,-668.03"/>
</g>
<!-- times -->
<g id="node18" class="node">
<title>times</title>
<ellipse fill="none" stroke="red" cx="88.19" cy="-1518.02" rx="48.17" ry="24.08"/>
<text text-anchor="middle" x="88.19" y="-1511.82" font-family="Times,serif" font-size="24.00">times</text>
</g>
<!-- times&#45;&gt;env -->
<g id="edge25" class="edge">
<title>times&#45;&gt;env</title>
<path fill="none" stroke="red" d="M127.55,-1503.98C142.81,-1498.27 160.49,-1491.5 176.38,-1485.02 305.76,-1432.28 331.57,-1402.41 464.38,-1359.02 498.11,-1348 537.35,-1339.45 566.98,-1333.81"/>
<polygon fill="red" stroke="red" points="567.55,-1337.26 576.74,-1332 566.27,-1330.38 567.55,-1337.26"/>
</g>
<!-- timer -->
<g id="node45" class="node">
<title>timer</title>
<g id="a_node45"><a xlink:href="html/timer.html" xlink:title="timer" target="_parent">
<ellipse fill="none" stroke="black" cx="613.58" cy="-1722.02" rx="48.17" ry="24.08"/>
<text text-anchor="middle" x="613.58" y="-1715.82" font-family="Times,serif" font-size="24.00">timer</text>
</a>
</g>
</g>
<!-- times&#45;&gt;timer -->
<g id="edge84" class="edge">
<title>times&#45;&gt;timer</title>
<path fill="none" stroke="red" d="M128.1,-1531.94C143.28,-1537.58 160.76,-1544.34 176.38,-1551.02 306.87,-1606.86 330.24,-1642.63 464.38,-1689.02 494.05,-1699.28 528.19,-1707.14 556.21,-1712.61"/>
<polygon fill="red" stroke="red" points="555.46,-1716.03 565.94,-1714.45 556.76,-1709.15 555.46,-1716.03"/>
</g>
<!-- random -->
<g id="node20" class="node">
<title>random</title>
<polygon fill="palegreen" stroke="black" points="156.96,-565.24 156.96,-586.81 116.68,-602.06 59.7,-602.06 19.42,-586.81 19.42,-565.24 59.7,-549.98 116.68,-549.98 156.96,-565.24"/>
<polygon fill="none" stroke="black" points="160.96,-562.47 160.96,-589.58 117.41,-606.07 58.97,-606.07 15.42,-589.58 15.42,-562.47 58.97,-545.98 117.41,-545.98 160.96,-562.47"/>
<text text-anchor="middle" x="88.19" y="-569.82" font-family="Times,serif" font-size="24.00">random</text>
</g>
<!-- random&#45;&gt;tempFile -->
<g id="edge29" class="edge">
<title>random&#45;&gt;tempFile</title>
<path fill="none" stroke="black" d="M159.51,-561.51C258.96,-540.99 439.79,-503.68 540.31,-482.94"/>
<polygon fill="black" stroke="black" points="540.99,-486.37 550.08,-480.92 539.58,-479.51 540.99,-486.37"/>
</g>
<!-- math -->
<g id="node27" class="node">
<title>math</title>
<ellipse fill="none" stroke="red" cx="88.19" cy="-1662.02" rx="45.92" ry="24.08"/>
<text text-anchor="middle" x="88.19" y="-1655.82" font-family="Times,serif" font-size="24.00">math</text>
</g>
<!-- math&#45;&gt;functions -->
<g id="edge51" class="edge">
<title>math&#45;&gt;functions</title>
<path fill="none" stroke="red" d="M132.91,-1656.01C221.04,-1643.88 421.1,-1616.36 533.01,-1600.97"/>
<polygon fill="red" stroke="red" points="533.29,-1604.46 542.72,-1599.63 532.34,-1597.53 533.29,-1604.46"/>
</g>
<!-- math&#45;&gt;timer -->
<g id="edge85" class="edge">
<title>math&#45;&gt;timer</title>
<path fill="none" stroke="red" d="M133.36,-1667.09C227.79,-1677.91 449.24,-1703.3 554.74,-1715.39"/>
<polygon fill="red" stroke="red" points="554.26,-1718.86 564.59,-1716.52 555.06,-1711.91 554.26,-1718.86"/>
</g>
<!-- algorithm -->
<g id="node28" class="node">
<title>algorithm</title>
<polygon fill="palegreen" stroke="black" points="172.56,-1435.24 172.56,-1456.81 123.14,-1472.06 53.24,-1472.06 3.82,-1456.81 3.82,-1435.24 53.24,-1419.98 123.14,-1419.98 172.56,-1435.24"/>
<polygon fill="none" stroke="black" points="176.57,-1432.28 176.57,-1459.76 123.74,-1476.07 52.64,-1476.07 -0.19,-1459.76 -0.19,-1432.28 52.64,-1415.98 123.74,-1415.98 176.57,-1432.28"/>
<text text-anchor="middle" x="88.19" y="-1439.82" font-family="Times,serif" font-size="24.00">algorithm</text>
</g>
<!-- algorithm&#45;&gt;functions -->
<g id="edge53" class="edge">
<title>algorithm&#45;&gt;functions</title>
<path fill="none" stroke="black" d="M154.89,-1466.95C229.49,-1490.36 355.06,-1528.71 464.38,-1557.02 488.5,-1563.27 515.02,-1569.4 538.87,-1574.65"/>
<polygon fill="black" stroke="black" points="537.98,-1578.04 548.5,-1576.76 539.48,-1571.2 537.98,-1578.04"/>
</g>
<!-- uri -->
<g id="node29" class="node">
<title>uri</title>
<polygon fill="palegreen" stroke="black" points="122.02,-1579.24 122.02,-1600.81 102.2,-1616.06 74.18,-1616.06 54.36,-1600.81 54.36,-1579.24 74.18,-1563.98 102.2,-1563.98 122.02,-1579.24"/>
<polygon fill="none" stroke="black" points="126.04,-1577.27 126.04,-1602.78 103.58,-1620.07 72.8,-1620.07 50.34,-1602.78 50.34,-1577.27 72.8,-1559.98 103.58,-1559.98 126.04,-1577.27"/>
<text text-anchor="middle" x="88.19" y="-1583.82" font-family="Times,serif" font-size="24.00">uri</text>
</g>
<!-- uri&#45;&gt;functions -->
<g id="edge54" class="edge">
<title>uri&#45;&gt;functions</title>
<path fill="none" stroke="black" d="M126.41,-1590.02C209.36,-1590.02 411.18,-1590.02 527.03,-1590.02"/>
<polygon fill="black" stroke="black" points="526.8,-1593.52 536.8,-1590.02 526.8,-1586.52 526.8,-1593.52"/>
</g>
<!-- parseutils -->
<g id="node31" class="node">
<title>parseutils</title>
<polygon fill="palegreen" stroke="black" points="171,-19.24 171,-40.81 122.49,-56.06 53.89,-56.06 5.38,-40.81 5.38,-19.24 53.89,-3.98 122.49,-3.98 171,-19.24"/>
<polygon fill="none" stroke="black" points="175.01,-16.3 175.01,-43.75 123.11,-60.07 53.27,-60.07 1.37,-43.75 1.37,-16.3 53.27,0.02 123.11,0.02 175.01,-16.3"/>
<text text-anchor="middle" x="88.19" y="-23.82" font-family="Times,serif" font-size="24.00">parseutils</text>
</g>
<!-- parseutils&#45;&gt;parseNumber -->
<g id="edge56" class="edge">
<title>parseutils&#45;&gt;parseNumber</title>
<path fill="none" stroke="black" d="M175.32,-31.01C263.67,-32.02 401.55,-33.6 498.82,-34.72"/>
<polygon fill="black" stroke="black" points="498.63,-38.22 508.67,-34.83 498.71,-31.22 498.63,-38.22"/>
</g>
<!-- unicode -->
<g id="node32" class="node">
<title>unicode</title>
<polygon fill="palegreen" stroke="black" points="158.52,-175.24 158.52,-196.81 117.32,-212.06 59.06,-212.06 17.86,-196.81 17.86,-175.24 59.06,-159.98 117.32,-159.98 158.52,-175.24"/>
<polygon fill="none" stroke="black" points="162.52,-172.45 162.52,-199.6 118.04,-216.07 58.34,-216.07 13.86,-199.6 13.86,-172.45 58.34,-155.98 118.04,-155.98 162.52,-172.45"/>
<text text-anchor="middle" x="88.19" y="-179.82" font-family="Times,serif" font-size="24.00">unicode</text>
</g>
<!-- unicode&#45;&gt;unicodes -->
<g id="edge57" class="edge">
<title>unicode&#45;&gt;unicodes</title>
<path fill="none" stroke="black" d="M162.79,-187.71C259.72,-189.93 429.63,-193.83 530.57,-196.14"/>
<polygon fill="black" stroke="black" points="530.33,-199.64 540.41,-196.37 530.5,-192.64 530.33,-199.64"/>
</g>
<!-- json -->
<g id="node36" class="node">
<title>json</title>
<polygon fill="palegreen" stroke="black" points="130.92,-487.24 130.92,-508.81 105.89,-524.06 70.49,-524.06 45.46,-508.81 45.46,-487.24 70.49,-471.98 105.89,-471.98 130.92,-487.24"/>
<polygon fill="none" stroke="black" points="134.91,-484.98 134.91,-511.06 107.01,-528.07 69.37,-528.07 41.47,-511.06 41.47,-484.98 69.37,-467.98 107.01,-467.98 134.91,-484.98"/>
<text text-anchor="middle" x="88.19" y="-491.82" font-family="Times,serif" font-size="24.00">json</text>
</g>
<!-- json&#45;&gt;readjson -->
<g id="edge62" class="edge">
<title>json&#45;&gt;readjson</title>
<path fill="none" stroke="black" d="M135.18,-489.59C226.49,-472.84 431.25,-435.28 540.57,-415.23"/>
<polygon fill="black" stroke="black" points="541.12,-418.69 550.32,-413.44 539.86,-411.8 541.12,-418.69"/>
</g>
<!-- rdstdin -->
<g id="node41" class="node">
<title>rdstdin</title>
<polygon fill="palegreen" stroke="black" points="151.74,-409.24 151.74,-430.81 114.51,-446.06 61.87,-446.06 24.64,-430.81 24.64,-409.24 61.87,-393.98 114.51,-393.98 151.74,-409.24"/>
<polygon fill="none" stroke="black" points="155.74,-406.55 155.74,-433.5 115.3,-450.07 61.08,-450.07 20.64,-433.5 20.64,-406.55 61.08,-389.98 115.3,-389.98 155.74,-406.55"/>
<text text-anchor="middle" x="88.19" y="-413.82" font-family="Times,serif" font-size="24.00">rdstdin</text>
</g>
<!-- rdstdin&#45;&gt;repl -->
<g id="edge77" class="edge">
<title>rdstdin&#45;&gt;repl</title>
<path fill="none" stroke="black" d="M156.01,-409.3C263.28,-392.08 471.35,-358.69 564.94,-343.67"/>
<polygon fill="black" stroke="black" points="565.23,-347.17 574.55,-342.13 564.12,-340.26 565.23,-347.17"/>
</g>
<!-- terminal -->
<g id="node43" class="node">
<title>terminal</title>
<polygon fill="palegreen" stroke="black" points="162.66,-331.24 162.66,-352.81 119.04,-368.06 57.34,-368.06 13.72,-352.81 13.72,-331.24 57.34,-315.98 119.04,-315.98 162.66,-331.24"/>
<polygon fill="none" stroke="black" points="166.67,-328.4 166.67,-355.65 119.72,-372.07 56.66,-372.07 9.71,-355.65 9.71,-328.4 56.66,-311.98 119.72,-311.98 166.67,-328.4"/>
<text text-anchor="middle" x="88.19" y="-335.82" font-family="Times,serif" font-size="24.00">terminal</text>
</g>
<!-- terminal&#45;&gt;repl -->
<g id="edge82" class="edge">
<title>terminal&#45;&gt;repl</title>
<path fill="none" stroke="black" d="M166.98,-341.13C276.38,-339.88 472.47,-337.63 563.57,-336.58"/>
<polygon fill="black" stroke="black" points="563.46,-340.09 573.42,-336.47 563.38,-333.09 563.46,-340.09"/>
</g>
<!-- exitprocs -->
<g id="node44" class="node">
<title>exitprocs</title>
<polygon fill="palegreen" stroke="black" points="167.88,-253.24 167.88,-274.81 121.2,-290.06 55.18,-290.06 8.5,-274.81 8.5,-253.24 55.18,-237.98 121.2,-237.98 167.88,-253.24"/>
<polygon fill="none" stroke="black" points="171.89,-250.33 171.89,-277.71 121.84,-294.07 54.54,-294.07 4.49,-277.71 4.49,-250.33 54.54,-233.98 121.84,-233.98 171.89,-250.33"/>
<text text-anchor="middle" x="88.19" y="-257.82" font-family="Times,serif" font-size="24.00">exitprocs</text>
</g>
<!-- exitprocs&#45;&gt;repl -->
<g id="edge83" class="edge">
<title>exitprocs&#45;&gt;repl</title>
<path fill="none" stroke="black" d="M172.12,-275.43C282.74,-290.65 474.99,-317.1 564.35,-329.39"/>
<polygon fill="black" stroke="black" points="563.87,-332.85 574.25,-330.75 564.82,-325.92 563.87,-332.85"/>
</g>
</g>
</svg>
