<?xml version="1.0" encoding="UTF-8" standalone="no"?>
<!DOCTYPE svg PUBLIC "-//W3C//DTD SVG 1.1//EN"
 "http://www.w3.org/Graphics/SVG/1.1/DTD/svg11.dtd">
<!-- Generated by graphviz version 2.40.1 (20161225.0304)
 -->
<!-- Title: statictea Pages: 1 -->
<svg width="653pt" height="576pt"
 viewBox="0.00 0.00 652.78 576.00" xmlns="http://www.w3.org/2000/svg" xmlns:xlink="http://www.w3.org/1999/xlink">
<g id="graph0" class="graph" transform="scale(.3673 .3673) rotate(0) translate(4 1564)">
<title>statictea</title>
<polygon fill="#ffffff" stroke="transparent" points="-4,4 -4,-1564 1773,-1564 1773,4 -4,4"/>
<!-- runFunction -->
<g id="node1" class="node">
<title>runFunction</title>
<g id="a_node1"><a xlink:href="runFunction.md" xlink:title="runFunction.md">
<ellipse fill="#ffd39b" stroke="#000000" cx="1498" cy="-817" rx="53.1797" ry="18"/>
<text text-anchor="middle" x="1498" y="-812.8" font-family="Times,serif" font-size="14.00" fill="#000000">runFunction</text>
</a>
</g>
</g>
<!-- parseNumber -->
<g id="node2" class="node">
<title>parseNumber</title>
<g id="a_node2"><a xlink:href="parseNumber.md" xlink:title="parseNumber.md">
<polygon fill="#7fffd4" stroke="#000000" points="1622.5034,-560.5442 1622.5034,-575.4558 1585.8898,-586 1534.1102,-586 1497.4966,-575.4558 1497.4966,-560.5442 1534.1102,-550 1585.8898,-550 1622.5034,-560.5442"/>
<polygon fill="none" stroke="#000000" points="1626.5035,-557.5335 1626.5035,-578.4665 1586.4543,-590 1533.5457,-590 1493.4965,-578.4665 1493.4965,-557.5335 1533.5457,-546 1586.4543,-546 1626.5035,-557.5335"/>
<text text-anchor="middle" x="1560" y="-563.8" font-family="Times,serif" font-size="14.00" fill="#000000">parseNumber</text>
</a>
</g>
</g>
<!-- runFunction&#45;&gt;parseNumber -->
<g id="edge45" class="edge">
<title>runFunction&#45;&gt;parseNumber</title>
<path fill="none" stroke="#000000" d="M1502.559,-798.6904C1513.0197,-756.6789 1538.8553,-652.9199 1552.0167,-600.0618"/>
<polygon fill="#000000" stroke="#000000" points="1555.4518,-600.7517 1554.4717,-590.2023 1548.6592,-599.0603 1555.4518,-600.7517"/>
</g>
<!-- regexes -->
<g id="node3" class="node">
<title>regexes</title>
<g id="a_node3"><a xlink:href="regexes.md" xlink:title="regexes.md">
<polygon fill="#7fffd4" stroke="#000000" points="1427.3251,-310.5442 1427.3251,-325.4558 1403.7032,-336 1370.2968,-336 1346.6749,-325.4558 1346.6749,-310.5442 1370.2968,-300 1403.7032,-300 1427.3251,-310.5442"/>
<polygon fill="none" stroke="#000000" points="1431.3406,-307.9533 1431.3406,-328.0467 1404.5617,-340 1369.4383,-340 1342.6594,-328.0467 1342.6594,-307.9533 1369.4383,-296 1404.5617,-296 1431.3406,-307.9533"/>
<text text-anchor="middle" x="1387" y="-313.8" font-family="Times,serif" font-size="14.00" fill="#000000">regexes</text>
</a>
</g>
</g>
<!-- runFunction&#45;&gt;regexes -->
<g id="edge44" class="edge">
<title>runFunction&#45;&gt;regexes</title>
<path fill="none" stroke="#000000" d="M1493.9839,-798.9455C1477.5564,-725.096 1415.3466,-445.4319 1394.1355,-350.0776"/>
<polygon fill="#000000" stroke="#000000" points="1397.5154,-349.1529 1391.9275,-340.1515 1390.6824,-350.6729 1397.5154,-349.1529"/>
</g>
<!-- vartypes -->
<g id="node8" class="node">
<title>vartypes</title>
<g id="a_node8"><a xlink:href="vartypes.md" xlink:title="vartypes.md">
<ellipse fill="#ffd39b" stroke="#000000" cx="941" cy="-568" rx="40.1317" ry="18"/>
<text text-anchor="middle" x="941" y="-563.8" font-family="Times,serif" font-size="14.00" fill="#000000">vartypes</text>
</a>
</g>
</g>
<!-- runFunction&#45;&gt;vartypes -->
<g id="edge43" class="edge">
<title>runFunction&#45;&gt;vartypes</title>
<path fill="none" stroke="#000000" d="M1465.6458,-802.5364C1368.9423,-759.3064 1082.3927,-631.2079 978.8582,-584.924"/>
<polygon fill="#000000" stroke="#000000" points="980.2658,-581.7195 969.708,-580.8336 977.4089,-588.11 980.2658,-581.7195"/>
</g>
<!-- warnings -->
<g id="node12" class="node">
<title>warnings</title>
<g id="a_node12"><a xlink:href="warnings.md" xlink:title="warnings.md">
<polygon fill="#7fffd4" stroke="#000000" points="1093.0596,-61.5442 1093.0596,-76.4558 1066.0785,-87 1027.9215,-87 1000.9404,-76.4558 1000.9404,-61.5442 1027.9215,-51 1066.0785,-51 1093.0596,-61.5442"/>
<polygon fill="none" stroke="#000000" points="1097.062,-58.8134 1097.062,-79.1866 1066.8332,-91 1027.1668,-91 996.938,-79.1866 996.938,-58.8134 1027.1668,-47 1066.8332,-47 1097.062,-58.8134"/>
<text text-anchor="middle" x="1047" y="-64.8" font-family="Times,serif" font-size="14.00" fill="#000000">warnings</text>
</a>
</g>
</g>
<!-- runFunction&#45;&gt;warnings -->
<g id="edge42" class="edge">
<title>runFunction&#45;&gt;warnings</title>
<path fill="none" stroke="#000000" d="M1496.9562,-798.9856C1491.7967,-712.1333 1468.134,-339.0415 1440,-296 1360.4036,-174.2275 1191.1949,-110.028 1103.0392,-83.6973"/>
<polygon fill="#000000" stroke="#000000" points="1103.7984,-80.2726 1093.2177,-80.8206 1101.8307,-86.9904 1103.7984,-80.2726"/>
</g>
<!-- matches -->
<g id="node17" class="node">
<title>matches</title>
<g id="a_node17"><a xlink:href="matches.md" xlink:title="matches.md">
<ellipse fill="#ffd39b" stroke="#000000" cx="1208" cy="-568" rx="39.1627" ry="18"/>
<text text-anchor="middle" x="1208" y="-563.8" font-family="Times,serif" font-size="14.00" fill="#000000">matches</text>
</a>
</g>
</g>
<!-- runFunction&#45;&gt;matches -->
<g id="edge46" class="edge">
<title>runFunction&#45;&gt;matches</title>
<path fill="none" stroke="#000000" d="M1478.0671,-799.8852C1427.0842,-756.1102 1291.9197,-640.0552 1234.4533,-590.7134"/>
<polygon fill="#000000" stroke="#000000" points="1236.4248,-587.793 1226.5577,-583.934 1231.8647,-593.1039 1236.4248,-587.793"/>
</g>
<!-- parseCmdLine -->
<g id="node4" class="node">
<title>parseCmdLine</title>
<g id="a_node4"><a xlink:href="parseCmdLine.md" xlink:title="parseCmdLine.md">
<ellipse fill="#ffd39b" stroke="#000000" cx="1327" cy="-817" rx="62.3407" ry="18"/>
<text text-anchor="middle" x="1327" y="-812.8" font-family="Times,serif" font-size="14.00" fill="#000000">parseCmdLine</text>
</a>
</g>
</g>
<!-- parseCmdLine&#45;&gt;regexes -->
<g id="edge18" class="edge">
<title>parseCmdLine&#45;&gt;regexes</title>
<path fill="none" stroke="#000000" d="M1329.1709,-798.9455C1338.0416,-725.1708 1371.6094,-445.9984 1383.1081,-350.368"/>
<polygon fill="#000000" stroke="#000000" points="1386.6176,-350.4978 1384.3365,-340.1515 1379.6676,-349.6621 1386.6176,-350.4978"/>
</g>
<!-- env -->
<g id="node5" class="node">
<title>env</title>
<g id="a_node5"><a xlink:href="env.md" xlink:title="env.md">
<ellipse fill="#ffd39b" stroke="#000000" cx="355" cy="-318" rx="27" ry="18"/>
<text text-anchor="middle" x="355" y="-313.8" font-family="Times,serif" font-size="14.00" fill="#000000">env</text>
</a>
</g>
</g>
<!-- parseCmdLine&#45;&gt;env -->
<g id="edge17" class="edge">
<title>parseCmdLine&#45;&gt;env</title>
<path fill="none" stroke="#000000" d="M1328.0494,-798.8069C1329.7879,-750.3241 1327.4876,-616.8908 1256,-546 1128.8687,-419.9302 545.0552,-341.0961 391.8849,-322.3426"/>
<polygon fill="#000000" stroke="#000000" points="391.9618,-318.8264 381.613,-321.0964 391.1187,-325.7754 391.9618,-318.8264"/>
</g>
<!-- parseCmdLine&#45;&gt;warnings -->
<g id="edge19" class="edge">
<title>parseCmdLine&#45;&gt;warnings</title>
<path fill="none" stroke="#000000" d="M1326.1156,-798.8046C1323.5522,-754.5367 1314.3255,-638.0925 1285,-546 1228.3132,-367.9837 1113.0388,-174.117 1066.8216,-100.0869"/>
<polygon fill="#000000" stroke="#000000" points="1069.5604,-97.8666 1061.2805,-91.2564 1063.6311,-101.5872 1069.5604,-97.8666"/>
</g>
<!-- parseCmdLine&#45;&gt;matches -->
<g id="edge20" class="edge">
<title>parseCmdLine&#45;&gt;matches</title>
<path fill="none" stroke="#000000" d="M1318.4418,-799.0925C1297.8148,-755.9318 1245.2586,-645.9613 1220.836,-594.8586"/>
<polygon fill="#000000" stroke="#000000" points="1223.9506,-593.2586 1216.4806,-585.7452 1217.6348,-596.277 1223.9506,-593.2586"/>
</g>
<!-- tempFile -->
<g id="node7" class="node">
<title>tempFile</title>
<g id="a_node7"><a xlink:href="tempFile.md" xlink:title="tempFile.md">
<polygon fill="#7fffd4" stroke="#000000" points="606.9425,-61.5442 606.9425,-76.4558 580.6158,-87 543.3842,-87 517.0575,-76.4558 517.0575,-61.5442 543.3842,-51 580.6158,-51 606.9425,-61.5442"/>
<polygon fill="none" stroke="#000000" points="610.9401,-58.8367 610.9401,-79.1633 581.3861,-91 542.6139,-91 513.0599,-79.1633 513.0599,-58.8367 542.6139,-47 581.3861,-47 610.9401,-58.8367"/>
<text text-anchor="middle" x="562" y="-64.8" font-family="Times,serif" font-size="14.00" fill="#000000">tempFile</text>
</a>
</g>
</g>
<!-- env&#45;&gt;tempFile -->
<g id="edge4" class="edge">
<title>env&#45;&gt;tempFile</title>
<path fill="none" stroke="#000000" d="M368.2637,-302.0451C402.2988,-261.1044 493.1414,-151.8299 537.2645,-98.7543"/>
<polygon fill="#000000" stroke="#000000" points="539.9749,-100.9689 543.6763,-91.0416 534.5921,-96.494 539.9749,-100.9689"/>
</g>
<!-- env&#45;&gt;warnings -->
<g id="edge5" class="edge">
<title>env&#45;&gt;warnings</title>
<path fill="none" stroke="#000000" d="M378.8202,-309.4289C478.1542,-273.6859 860.5946,-136.0736 997.7181,-86.7329"/>
<polygon fill="#000000" stroke="#000000" points="998.9355,-90.0147 1007.1598,-83.3356 996.5654,-83.4281 998.9355,-90.0147"/>
</g>
<!-- args -->
<g id="node16" class="node">
<title>args</title>
<g id="a_node16"><a xlink:href="args.md" xlink:title="args.md">
<polygon fill="#7fffd4" stroke="#000000" points="259,-61.5442 259,-76.4558 243.1838,-87 220.8162,-87 205,-76.4558 205,-61.5442 220.8162,-51 243.1838,-51 259,-61.5442"/>
<polygon fill="none" stroke="#000000" points="263,-59.4034 263,-78.5966 244.3949,-91 219.6051,-91 201,-78.5966 201,-59.4034 219.6051,-47 244.3949,-47 263,-59.4034"/>
<text text-anchor="middle" x="232" y="-64.8" font-family="Times,serif" font-size="14.00" fill="#000000">args</text>
</a>
</g>
</g>
<!-- env&#45;&gt;args -->
<g id="edge6" class="edge">
<title>env&#45;&gt;args</title>
<path fill="none" stroke="#000000" d="M346.5457,-300.8852C326.1075,-259.5103 273.7726,-153.564 247.5148,-100.408"/>
<polygon fill="#000000" stroke="#000000" points="250.4959,-98.5401 242.9289,-91.1244 244.2198,-101.6403 250.4959,-98.5401"/>
</g>
<!-- variables -->
<g id="node6" class="node">
<title>variables</title>
<g id="a_node6"><a xlink:href="variables.md" xlink:title="variables.md">
<ellipse fill="#ffd39b" stroke="#000000" cx="977" cy="-817" rx="42.0524" ry="18"/>
<text text-anchor="middle" x="977" y="-812.8" font-family="Times,serif" font-size="14.00" fill="#000000">variables</text>
</a>
</g>
</g>
<!-- variables&#45;&gt;vartypes -->
<g id="edge38" class="edge">
<title>variables&#45;&gt;vartypes</title>
<path fill="none" stroke="#000000" d="M974.3528,-798.6904C968.1223,-755.5957 952.4981,-647.5283 945.0593,-596.0767"/>
<polygon fill="#000000" stroke="#000000" points="948.4975,-595.3968 943.6025,-586.0006 941.5695,-596.3985 948.4975,-595.3968"/>
</g>
<!-- variables&#45;&gt;warnings -->
<g id="edge40" class="edge">
<title>variables&#45;&gt;warnings</title>
<path fill="none" stroke="#000000" d="M978.6957,-798.8806C987.9064,-700.4578 1031.9519,-229.8 1043.9667,-101.4132"/>
<polygon fill="#000000" stroke="#000000" points="1047.4869,-101.36 1044.9339,-91.0773 1040.5173,-100.7077 1047.4869,-101.36"/>
</g>
<!-- version -->
<g id="node18" class="node">
<title>version</title>
<g id="a_node18"><a xlink:href="version.md" xlink:title="version.md">
<polygon fill="#7fffd4" stroke="#000000" points="879.226,-560.5442 879.226,-575.4558 856.2479,-586 823.7521,-586 800.774,-575.4558 800.774,-560.5442 823.7521,-550 856.2479,-550 879.226,-560.5442"/>
<polygon fill="none" stroke="#000000" points="883.237,-557.9816 883.237,-578.0184 857.1265,-590 822.8735,-590 796.763,-578.0184 796.763,-557.9816 822.8735,-546 857.1265,-546 883.237,-557.9816"/>
<text text-anchor="middle" x="840" y="-563.8" font-family="Times,serif" font-size="14.00" fill="#000000">version</text>
</a>
</g>
</g>
<!-- variables&#45;&gt;version -->
<g id="edge39" class="edge">
<title>variables&#45;&gt;version</title>
<path fill="none" stroke="#000000" d="M967.1473,-799.0925C944.0539,-757.1199 886.1976,-651.9649 857.1717,-599.2098"/>
<polygon fill="#000000" stroke="#000000" points="860.1561,-597.3733 852.269,-590.2991 854.0231,-600.7477 860.1561,-597.3733"/>
</g>
<!-- vartypes&#45;&gt;env -->
<g id="edge33" class="edge">
<title>vartypes&#45;&gt;env</title>
<path fill="none" stroke="#000000" d="M912.5423,-555.1046C905.8182,-552.0905 898.6656,-548.911 892,-546 701.3794,-462.7511 471.0074,-366.3388 387.3385,-331.4586"/>
<polygon fill="#000000" stroke="#000000" points="388.6786,-328.2254 378.1017,-327.6095 385.986,-334.6868 388.6786,-328.2254"/>
</g>
<!-- vartypes&#45;&gt;warnings -->
<g id="edge34" class="edge">
<title>vartypes&#45;&gt;warnings</title>
<path fill="none" stroke="#000000" d="M944.4194,-549.8183C952.6942,-506.0401 974.6212,-391.3376 995,-296 1009.9048,-226.2714 1028.9526,-144.8825 1039.3612,-100.9922"/>
<polygon fill="#000000" stroke="#000000" points="1042.785,-101.7229 1041.6914,-91.1847 1035.9746,-100.1048 1042.785,-101.7229"/>
</g>
<!-- tpub -->
<g id="node9" class="node">
<title>tpub</title>
<g id="a_node9"><a xlink:href="tpub.md" xlink:title="tpub.md">
<polygon fill="#7fffd4" stroke="#000000" points="734.9197,-560.5442 734.9197,-575.4558 718.5647,-586 695.4353,-586 679.0803,-575.4558 679.0803,-560.5442 695.4353,-550 718.5647,-550 734.9197,-560.5442"/>
<polygon fill="none" stroke="#000000" points="738.9143,-558.3622 738.9143,-577.6378 719.7395,-590 694.2605,-590 675.0857,-577.6378 675.0857,-558.3622 694.2605,-546 719.7395,-546 738.9143,-558.3622"/>
<text text-anchor="middle" x="707" y="-563.8" font-family="Times,serif" font-size="14.00" fill="#000000">tpub</text>
</a>
</g>
</g>
<!-- replacement -->
<g id="node10" class="node">
<title>replacement</title>
<g id="a_node10"><a xlink:href="replacement.md" xlink:title="replacement.md">
<ellipse fill="#ffd39b" stroke="#000000" cx="964" cy="-1055" rx="53.1281" ry="18"/>
<text text-anchor="middle" x="964" y="-1050.8" font-family="Times,serif" font-size="14.00" fill="#000000">replacement</text>
</a>
</g>
</g>
<!-- replacement&#45;&gt;parseNumber -->
<g id="edge60" class="edge">
<title>replacement&#45;&gt;parseNumber</title>
<path fill="none" stroke="#000000" d="M1009.7545,-1045.453C1137.6577,-1017.7465 1493.889,-933.2785 1560,-839 1610.7538,-766.6218 1587.0063,-654.5052 1570.7776,-599.9706"/>
<polygon fill="#000000" stroke="#000000" points="1574.0469,-598.6947 1567.7555,-590.1701 1567.3577,-600.7574 1574.0469,-598.6947"/>
</g>
<!-- replacement&#45;&gt;regexes -->
<g id="edge51" class="edge">
<title>replacement&#45;&gt;regexes</title>
<path fill="none" stroke="#000000" d="M1012.9109,-1047.5545C1107.1219,-1030.2816 1312.0323,-977.8122 1398,-839 1448.7284,-757.0888 1407.4316,-450.8367 1392.123,-350.2415"/>
<polygon fill="#000000" stroke="#000000" points="1395.5403,-349.4359 1390.5588,-340.0853 1388.6218,-350.5015 1395.5403,-349.4359"/>
</g>
<!-- replacement&#45;&gt;parseCmdLine -->
<g id="edge54" class="edge">
<title>replacement&#45;&gt;parseCmdLine</title>
<path fill="none" stroke="#000000" d="M988.6651,-1038.8284C1052.0189,-997.2907 1220.5573,-886.7889 1293.06,-839.2527"/>
<polygon fill="#000000" stroke="#000000" points="1295.3763,-841.9193 1301.82,-833.5092 1291.5381,-836.0653 1295.3763,-841.9193"/>
</g>
<!-- replacement&#45;&gt;env -->
<g id="edge52" class="edge">
<title>replacement&#45;&gt;env</title>
<path fill="none" stroke="#000000" d="M915.3964,-1047.5403C770.0592,-1024.1466 343.9075,-947.2824 264,-839 204.8857,-758.8944 311.213,-440.6707 345.1179,-345.2092"/>
<polygon fill="#000000" stroke="#000000" points="348.4526,-346.2782 348.5241,-335.6836 341.8613,-343.9212 348.4526,-346.2782"/>
</g>
<!-- replacement&#45;&gt;variables -->
<g id="edge58" class="edge">
<title>replacement&#45;&gt;variables</title>
<path fill="none" stroke="#000000" d="M964.9985,-1036.7197C967.2537,-995.432 972.7544,-894.7265 975.4541,-845.3027"/>
<polygon fill="#000000" stroke="#000000" points="978.9652,-845.1928 976.0159,-835.0168 971.9756,-844.811 978.9652,-845.1928"/>
</g>
<!-- replacement&#45;&gt;tempFile -->
<g id="edge59" class="edge">
<title>replacement&#45;&gt;tempFile</title>
<path fill="none" stroke="#000000" d="M956.6794,-1037.0444C908.5199,-918.922 637.1341,-253.2842 574.7744,-100.3323"/>
<polygon fill="#000000" stroke="#000000" points="577.9902,-98.9488 570.9738,-91.0103 571.5082,-101.5916 577.9902,-98.9488"/>
</g>
<!-- replacement&#45;&gt;vartypes -->
<g id="edge53" class="edge">
<title>replacement&#45;&gt;vartypes</title>
<path fill="none" stroke="#000000" d="M959.7207,-1036.9357C951.221,-1000.0205 932.4733,-913.1564 926,-839 918.2694,-750.4403 930.0791,-645.2316 936.8273,-596.008"/>
<polygon fill="#000000" stroke="#000000" points="940.293,-596.4958 938.2213,-586.1056 933.3614,-595.52 940.293,-596.4958"/>
</g>
<!-- replacement&#45;&gt;tpub -->
<g id="edge61" class="edge">
<title>replacement&#45;&gt;tpub</title>
<path fill="none" stroke="#000000" d="M950.05,-1037.335C922.1885,-1001.4885 858.7507,-916.9792 817,-839 772.6232,-756.116 734.8963,-651.3624 717.4142,-599.7321"/>
<polygon fill="#000000" stroke="#000000" points="720.6932,-598.5021 714.1917,-590.1366 714.0574,-600.7306 720.6932,-598.5021"/>
</g>
<!-- readlines -->
<g id="node11" class="node">
<title>readlines</title>
<g id="a_node11"><a xlink:href="readlines.md" xlink:title="readlines.md">
<polygon fill="#7fffd4" stroke="#000000" points="761.4786,-809.5442 761.4786,-824.4558 734.8378,-835 697.1622,-835 670.5214,-824.4558 670.5214,-809.5442 697.1622,-799 734.8378,-799 761.4786,-809.5442"/>
<polygon fill="none" stroke="#000000" points="765.4777,-806.8252 765.4777,-827.1748 735.6003,-839 696.3997,-839 666.5223,-827.1748 666.5223,-806.8252 696.3997,-795 735.6003,-795 765.4777,-806.8252"/>
<text text-anchor="middle" x="716" y="-812.8" font-family="Times,serif" font-size="14.00" fill="#000000">readlines</text>
</a>
</g>
</g>
<!-- replacement&#45;&gt;readlines -->
<g id="edge55" class="edge">
<title>replacement&#45;&gt;readlines</title>
<path fill="none" stroke="#000000" d="M946.1645,-1037.8836C903.9276,-997.3499 797.4526,-895.1682 745.4696,-845.2813"/>
<polygon fill="#000000" stroke="#000000" points="747.848,-842.7128 738.2095,-838.314 743.0011,-847.7634 747.848,-842.7128"/>
</g>
<!-- replacement&#45;&gt;warnings -->
<g id="edge57" class="edge">
<title>replacement&#45;&gt;warnings</title>
<path fill="none" stroke="#000000" d="M971.1466,-1036.8849C985.2062,-1000.2293 1016.1232,-914.3369 1028,-839 1072.5935,-556.1355 1055.8767,-207.7052 1049.2184,-101.3337"/>
<polygon fill="#000000" stroke="#000000" points="1052.7042,-100.9985 1048.5709,-91.2432 1045.7186,-101.4468 1052.7042,-100.9985"/>
</g>
<!-- replacement&#45;&gt;matches -->
<g id="edge56" class="edge">
<title>replacement&#45;&gt;matches</title>
<path fill="none" stroke="#000000" d="M972.9735,-1037.0898C1009.9342,-963.3199 1150.5133,-682.7378 1194.6551,-594.6351"/>
<polygon fill="#000000" stroke="#000000" points="1197.8519,-596.0679 1199.2023,-585.5594 1191.5935,-592.9322 1197.8519,-596.0679"/>
</g>
<!-- collectCommand -->
<g id="node13" class="node">
<title>collectCommand</title>
<g id="a_node13"><a xlink:href="collectCommand.md" xlink:title="collectCommand.md">
<ellipse fill="#ffd39b" stroke="#000000" cx="712" cy="-1055" rx="70.5427" ry="18"/>
<text text-anchor="middle" x="712" y="-1050.8" font-family="Times,serif" font-size="14.00" fill="#000000">collectCommand</text>
</a>
</g>
</g>
<!-- collectCommand&#45;&gt;parseCmdLine -->
<g id="edge25" class="edge">
<title>collectCommand&#45;&gt;parseCmdLine</title>
<path fill="none" stroke="#000000" d="M750.9376,-1039.9315C859.0597,-998.0891 1162.7125,-880.5779 1279.9718,-835.1995"/>
<polygon fill="#000000" stroke="#000000" points="1281.3479,-838.42 1289.4107,-831.5468 1278.8215,-831.8918 1281.3479,-838.42"/>
</g>
<!-- collectCommand&#45;&gt;env -->
<g id="edge22" class="edge">
<title>collectCommand&#45;&gt;env</title>
<path fill="none" stroke="#000000" d="M647.1438,-1047.832C538.9322,-1031.986 324.2508,-983.0973 231,-839 123.2621,-672.5162 281.111,-421.8108 336.7929,-342.7744"/>
<polygon fill="#000000" stroke="#000000" points="339.7972,-344.5897 342.7545,-334.416 334.0982,-340.525 339.7972,-344.5897"/>
</g>
<!-- collectCommand&#45;&gt;readlines -->
<g id="edge24" class="edge">
<title>collectCommand&#45;&gt;readlines</title>
<path fill="none" stroke="#000000" d="M712.3072,-1036.7197C712.9836,-996.4779 714.6086,-899.7908 715.4596,-849.1559"/>
<polygon fill="#000000" stroke="#000000" points="718.9602,-849.1443 715.6288,-839.0868 711.9611,-849.0266 718.9602,-849.1443"/>
</g>
<!-- collectCommand&#45;&gt;matches -->
<g id="edge23" class="edge">
<title>collectCommand&#45;&gt;matches</title>
<path fill="none" stroke="#000000" d="M699.9578,-1037.1802C671.3646,-992.4392 605.5717,-873.3568 658,-795 773.5887,-622.2467 1047.2654,-580.8218 1159.1011,-571.0034"/>
<polygon fill="#000000" stroke="#000000" points="1159.4164,-574.4894 1169.0922,-570.1733 1158.8367,-567.5134 1159.4164,-574.4894"/>
</g>
<!-- statictea -->
<g id="node14" class="node">
<title>statictea</title>
<g id="a_node14"><a xlink:href="statictea.md" xlink:title="statictea.md">
<polygon fill="#ffd39b" stroke="#000000" points="133.8957,-1498.4377 182,-1486 230.1043,-1498.4377 230.0594,-1518.5623 133.9406,-1518.5623 133.8957,-1498.4377"/>
<text text-anchor="middle" x="182" y="-1499.8" font-family="Times,serif" font-size="14.00" fill="#000000">statictea</text>
</a>
</g>
</g>
<!-- statictea&#45;&gt;env -->
<g id="edge75" class="edge">
<title>statictea&#45;&gt;env</title>
<path fill="none" stroke="#000000" d="M169.5731,-1489.1254C143.2947,-1456.6893 82.4212,-1376.1409 57,-1297 24.0057,-1194.2825 38,-1162.8865 38,-1055 38,-1055 38,-1055 38,-817 38,-688.9221 68.3873,-654.7772 136,-546 190.9622,-457.5753 284.717,-375.0072 329.5966,-338.1673"/>
<polygon fill="#000000" stroke="#000000" points="331.8388,-340.8552 337.3875,-331.8295 327.4214,-335.425 331.8388,-340.8552"/>
</g>
<!-- statictea&#45;&gt;warnings -->
<g id="edge71" class="edge">
<title>statictea&#45;&gt;warnings</title>
<path fill="none" stroke="#000000" d="M230.3623,-1501.068C496.3304,-1483.6597 1769,-1383.2123 1769,-1055 1769,-1055 1769,-1055 1769,-568 1769,-432.0378 1729.9822,-387.0403 1629,-296 1473.593,-155.8931 1221.8776,-98.0377 1107.2769,-78.0339"/>
<polygon fill="#000000" stroke="#000000" points="1107.7285,-74.5604 1097.2817,-76.3249 1106.5487,-81.4603 1107.7285,-74.5604"/>
</g>
<!-- showhelp -->
<g id="node15" class="node">
<title>showhelp</title>
<g id="a_node15"><a xlink:href="showhelp.md" xlink:title="showhelp.md">
<ellipse fill="#ffd39b" stroke="#000000" cx="110" cy="-1279" rx="44.0078" ry="18"/>
<text text-anchor="middle" x="110" y="-1274.8" font-family="Times,serif" font-size="14.00" fill="#000000">showhelp</text>
</a>
</g>
</g>
<!-- statictea&#45;&gt;showhelp -->
<g id="edge73" class="edge">
<title>statictea&#45;&gt;showhelp</title>
<path fill="none" stroke="#000000" d="M176.5883,-1487.0884C164.2486,-1448.5269 133.9332,-1353.7912 118.8376,-1306.6176"/>
<polygon fill="#000000" stroke="#000000" points="122.155,-1305.5002 115.7737,-1297.0427 115.488,-1307.6337 122.155,-1305.5002"/>
</g>
<!-- statictea&#45;&gt;args -->
<g id="edge70" class="edge">
<title>statictea&#45;&gt;args</title>
<path fill="none" stroke="#000000" d="M168.8917,-1489.1489C141.0671,-1456.7584 76.0325,-1376.2934 44,-1297 3.0529,-1195.6395 0,-1164.3189 0,-1055 0,-1055 0,-1055 0,-568 0,-371.5363 149.7014,-168.7177 208.5988,-96.5249"/>
<polygon fill="#000000" stroke="#000000" points="211.6548,-98.3201 215.3151,-88.3776 206.2535,-93.8674 211.6548,-98.3201"/>
</g>
<!-- statictea&#45;&gt;version -->
<g id="edge74" class="edge">
<title>statictea&#45;&gt;version</title>
<path fill="none" stroke="#000000" d="M189.9913,-1487.8958C229.7885,-1408.4234 412.7125,-1051.583 614,-795 676.1706,-715.7505 763.4993,-635.0096 809.2649,-594.5587"/>
<polygon fill="#000000" stroke="#000000" points="811.8464,-596.9494 817.0444,-587.7173 807.2237,-591.6929 811.8464,-596.9494"/>
</g>
<!-- parseCommandLine -->
<g id="node20" class="node">
<title>parseCommandLine</title>
<g id="a_node20"><a xlink:href="parseCommandLine.md" xlink:title="parseCommandLine.md">
<ellipse fill="#ffd39b" stroke="#000000" cx="355" cy="-817" rx="81.6354" ry="18"/>
<text text-anchor="middle" x="355" y="-812.8" font-family="Times,serif" font-size="14.00" fill="#000000">parseCommandLine</text>
</a>
</g>
</g>
<!-- statictea&#45;&gt;parseCommandLine -->
<g id="edge9" class="edge">
<title>statictea&#45;&gt;parseCommandLine</title>
<path fill="none" stroke="#000000" d="M186.2764,-1487.0179C209.3353,-1395.4486 318.8824,-960.4265 347.9214,-845.11"/>
<polygon fill="#000000" stroke="#000000" points="351.3526,-845.8169 350.4005,-835.2649 344.5645,-844.1074 351.3526,-845.8169"/>
</g>
<!-- processTemplate -->
<g id="node21" class="node">
<title>processTemplate</title>
<g id="a_node21"><a xlink:href="processTemplate.md" xlink:title="processTemplate.md">
<ellipse fill="#ffd39b" stroke="#000000" cx="811" cy="-1279" rx="69.306" ry="18"/>
<text text-anchor="middle" x="811" y="-1274.8" font-family="Times,serif" font-size="14.00" fill="#000000">processTemplate</text>
</a>
</g>
</g>
<!-- statictea&#45;&gt;processTemplate -->
<g id="edge69" class="edge">
<title>statictea&#45;&gt;processTemplate</title>
<path fill="none" stroke="#000000" d="M211.4943,-1493.4496C310.9333,-1457.8792 634.6753,-1342.0732 760.417,-1297.0941"/>
<polygon fill="#000000" stroke="#000000" points="761.9518,-1300.2623 770.1887,-1293.5986 759.5941,-1293.6713 761.9518,-1300.2623"/>
</g>
<!-- showhelp&#45;&gt;env -->
<g id="edge72" class="edge">
<title>showhelp&#45;&gt;env</title>
<path fill="none" stroke="#000000" d="M107.0139,-1261.0263C93.7802,-1176.4654 45.7527,-811.2505 155,-546 192.8647,-454.0652 283.686,-373.7057 328.739,-337.865"/>
<polygon fill="#000000" stroke="#000000" points="331.146,-340.4253 336.8532,-331.4989 326.8252,-334.918 331.146,-340.4253"/>
</g>
<!-- matches&#45;&gt;regexes -->
<g id="edge14" class="edge">
<title>matches&#45;&gt;regexes</title>
<path fill="none" stroke="#000000" d="M1220.3034,-550.8165C1250.2319,-509.0168 1327.1589,-401.577 1365.1306,-348.5438"/>
<polygon fill="#000000" stroke="#000000" points="1368.1194,-350.3816 1371.0953,-340.2133 1362.4279,-346.3065 1368.1194,-350.3816"/>
</g>
<!-- matches&#45;&gt;args -->
<g id="edge13" class="edge">
<title>matches&#45;&gt;args</title>
<path fill="none" stroke="#000000" d="M1181.6418,-554.5238C1045.4136,-484.8744 421.5244,-165.8983 266.7988,-86.7916"/>
<polygon fill="#000000" stroke="#000000" points="268.2031,-83.5787 257.706,-82.1427 265.0165,-89.8113 268.2031,-83.5787"/>
</g>
<!-- readjson -->
<g id="node19" class="node">
<title>readjson</title>
<g id="a_node19"><a xlink:href="readjson.md" xlink:title="readjson.md">
<ellipse fill="#ffd39b" stroke="#000000" cx="495" cy="-817" rx="40.1317" ry="18"/>
<text text-anchor="middle" x="495" y="-812.8" font-family="Times,serif" font-size="14.00" fill="#000000">readjson</text>
</a>
</g>
</g>
<!-- readjson&#45;&gt;env -->
<g id="edge64" class="edge">
<title>readjson&#45;&gt;env</title>
<path fill="none" stroke="#000000" d="M489.9346,-798.9455C468.88,-723.901 388.1981,-436.3277 362.7422,-345.5953"/>
<polygon fill="#000000" stroke="#000000" points="366.0566,-344.4519 359.9853,-335.7691 359.3168,-346.3429 366.0566,-344.4519"/>
</g>
<!-- readjson&#45;&gt;vartypes -->
<g id="edge66" class="edge">
<title>readjson&#45;&gt;vartypes</title>
<path fill="none" stroke="#000000" d="M520.2568,-802.8992C595.909,-760.6629 820.7539,-635.1329 906.8947,-587.0409"/>
<polygon fill="#000000" stroke="#000000" points="908.7192,-590.0308 915.7445,-582.1001 905.3069,-583.9188 908.7192,-590.0308"/>
</g>
<!-- readjson&#45;&gt;tpub -->
<g id="edge65" class="edge">
<title>readjson&#45;&gt;tpub</title>
<path fill="none" stroke="#000000" d="M509.5716,-799.8852C545.7124,-757.4369 639.7192,-647.0232 683.689,-595.3794"/>
<polygon fill="#000000" stroke="#000000" points="686.482,-597.498 690.2997,-587.6149 681.1521,-592.9601 686.482,-597.498"/>
</g>
<!-- readjson&#45;&gt;warnings -->
<g id="edge63" class="edge">
<title>readjson&#45;&gt;warnings</title>
<path fill="none" stroke="#000000" d="M505.1557,-799.4441C530.6834,-755.6534 600.2032,-638.4695 666,-546 790.842,-370.5496 957.5005,-173.1458 1020.9696,-99.1424"/>
<polygon fill="#000000" stroke="#000000" points="1023.9787,-101.0107 1027.8397,-91.1444 1018.6687,-96.4495 1023.9787,-101.0107"/>
</g>
<!-- readjson&#45;&gt;args -->
<g id="edge67" class="edge">
<title>readjson&#45;&gt;args</title>
<path fill="none" stroke="#000000" d="M494.0591,-798.6658C489.9741,-729.8325 470.2279,-481.3091 391,-296 356.7751,-215.9502 291.5015,-135.6593 256.1658,-95.4569"/>
<polygon fill="#000000" stroke="#000000" points="258.7711,-93.1196 249.5159,-87.9629 253.5353,-97.7657 258.7711,-93.1196"/>
</g>
<!-- parseCommandLine&#45;&gt;regexes -->
<g id="edge8" class="edge">
<title>parseCommandLine&#45;&gt;regexes</title>
<path fill="none" stroke="#000000" d="M370.6121,-798.9912C413.175,-750.9659 536.7309,-618.5672 666,-546 895.656,-417.079 1208.1329,-350.201 1332.6004,-327.2961"/>
<polygon fill="#000000" stroke="#000000" points="1333.4341,-330.702 1342.6459,-325.4682 1332.1809,-323.815 1333.4341,-330.702"/>
</g>
<!-- parseCommandLine&#45;&gt;env -->
<g id="edge7" class="edge">
<title>parseCommandLine&#45;&gt;env</title>
<path fill="none" stroke="#000000" d="M355,-798.9455C355,-724.0612 355,-437.554 355,-346.1789"/>
<polygon fill="#000000" stroke="#000000" points="358.5001,-346.0302 355,-336.0302 351.5001,-346.0302 358.5001,-346.0302"/>
</g>
<!-- parseCommandLine&#45;&gt;tpub -->
<g id="edge1" class="edge">
<title>parseCommandLine&#45;&gt;tpub</title>
<path fill="none" stroke="#000000" d="M379.4725,-799.6885C441.9697,-755.4788 607.3691,-638.4775 676.2335,-589.7638"/>
<polygon fill="#000000" stroke="#000000" points="678.3815,-592.5316 684.5241,-583.8991 674.339,-586.8168 678.3815,-592.5316"/>
</g>
<!-- parseCommandLine&#45;&gt;warnings -->
<g id="edge3" class="edge">
<title>parseCommandLine&#45;&gt;warnings</title>
<path fill="none" stroke="#000000" d="M370.2733,-799.1078C427.8365,-731.8442 637.6729,-488.1757 820,-296 889.2988,-222.958 973.8339,-139.9627 1017.5921,-97.4351"/>
<polygon fill="#000000" stroke="#000000" points="1020.2836,-99.7002 1025.0209,-90.2234 1015.4078,-94.6776 1020.2836,-99.7002"/>
</g>
<!-- parseCommandLine&#45;&gt;args -->
<g id="edge2" class="edge">
<title>parseCommandLine&#45;&gt;args</title>
<path fill="none" stroke="#000000" d="M352.0205,-798.8806C335.8197,-700.3589 258.2861,-228.8536 237.2665,-101.0271"/>
<polygon fill="#000000" stroke="#000000" points="240.7067,-100.3769 235.6304,-91.0773 233.7994,-101.5127 240.7067,-100.3769"/>
</g>
<!-- processTemplate&#45;&gt;parseCmdLine -->
<g id="edge21" class="edge">
<title>processTemplate&#45;&gt;parseCmdLine</title>
<path fill="none" stroke="#000000" d="M874.5573,-1271.6221C979.8524,-1255.7627 1189.0557,-1208.1315 1292,-1073 1343.899,-1004.8739 1337.8541,-895.9777 1331.4265,-845.0135"/>
<polygon fill="#000000" stroke="#000000" points="1334.8875,-844.4892 1330.0698,-835.0531 1327.9515,-845.434 1334.8875,-844.4892"/>
</g>
<!-- processTemplate&#45;&gt;env -->
<g id="edge12" class="edge">
<title>processTemplate&#45;&gt;env</title>
<path fill="none" stroke="#000000" d="M769.8969,-1264.3691C654.9711,-1220.9286 330.7166,-1080.4575 208,-839 148.9995,-722.9105 171.2205,-670.9203 208,-546 232.7752,-461.8518 299.3108,-379.4612 333.7275,-340.8124"/>
<polygon fill="#000000" stroke="#000000" points="336.4561,-343.013 340.5575,-333.2442 331.2593,-338.3231 336.4561,-343.013"/>
</g>
<!-- processTemplate&#45;&gt;variables -->
<g id="edge49" class="edge">
<title>processTemplate&#45;&gt;variables</title>
<path fill="none" stroke="#000000" d="M817.5074,-1260.8891C843.025,-1189.8702 936.3651,-930.0923 967.1076,-844.5319"/>
<polygon fill="#000000" stroke="#000000" points="970.4499,-845.5802 970.5376,-834.9857 963.8623,-843.2132 970.4499,-845.5802"/>
</g>
<!-- processTemplate&#45;&gt;vartypes -->
<g id="edge50" class="edge">
<title>processTemplate&#45;&gt;vartypes</title>
<path fill="none" stroke="#000000" d="M787.7264,-1261.7975C746.8519,-1229.9526 663.5174,-1157.323 632,-1073 620.3942,-1041.9492 562.465,-939.922 637,-795 667.0459,-736.5804 834.8322,-631.3842 907.47,-587.7731"/>
<polygon fill="#000000" stroke="#000000" points="909.4629,-590.6595 916.2497,-582.5238 905.8707,-584.6514 909.4629,-590.6595"/>
</g>
<!-- processTemplate&#45;&gt;replacement -->
<g id="edge62" class="edge">
<title>processTemplate&#45;&gt;replacement</title>
<path fill="none" stroke="#000000" d="M823.262,-1261.0478C850.242,-1221.5476 914.843,-1126.9685 946.2517,-1080.9844"/>
<polygon fill="#000000" stroke="#000000" points="949.1419,-1082.9585 951.892,-1072.7268 943.3615,-1079.0103 949.1419,-1082.9585"/>
</g>
<!-- processTemplate&#45;&gt;readlines -->
<g id="edge16" class="edge">
<title>processTemplate&#45;&gt;readlines</title>
<path fill="none" stroke="#000000" d="M811.1389,-1260.8673C811.1111,-1220.2982 809.155,-1119.3069 792,-1037 777.6113,-967.9654 747.5234,-890.8188 729.8262,-848.6991"/>
<polygon fill="#000000" stroke="#000000" points="732.9517,-847.1047 725.8232,-839.2666 726.508,-849.8393 732.9517,-847.1047"/>
</g>
<!-- processTemplate&#45;&gt;warnings -->
<g id="edge11" class="edge">
<title>processTemplate&#45;&gt;warnings</title>
<path fill="none" stroke="#000000" d="M879.7733,-1276.5179C1093.3583,-1264.8001 1731,-1197.9192 1731,-817 1731,-817 1731,-817 1731,-568 1731,-260.068 1272.9655,-121.9565 1106.5304,-81.9357"/>
<polygon fill="#000000" stroke="#000000" points="1107.0044,-78.4511 1096.4667,-79.5503 1105.3899,-85.2624 1107.0044,-78.4511"/>
</g>
<!-- processTemplate&#45;&gt;collectCommand -->
<g id="edge26" class="edge">
<title>processTemplate&#45;&gt;collectCommand</title>
<path fill="none" stroke="#000000" d="M803.0658,-1261.0478C785.7598,-1221.8909 744.5322,-1128.6082 724.0189,-1082.1942"/>
<polygon fill="#000000" stroke="#000000" points="727.2158,-1080.7694 719.972,-1073.0377 720.8132,-1083.5991 727.2158,-1080.7694"/>
</g>
<!-- processTemplate&#45;&gt;args -->
<g id="edge10" class="edge">
<title>processTemplate&#45;&gt;args</title>
<path fill="none" stroke="#000000" d="M762.8935,-1265.8879C632.607,-1227.2231 276.5041,-1099.6783 184,-839 87.6666,-567.5309 187.0661,-208.7519 221.3199,-100.9477"/>
<polygon fill="#000000" stroke="#000000" points="224.6898,-101.9013 224.4227,-91.3098 218.0266,-99.7561 224.6898,-101.9013"/>
</g>
<!-- processTemplate&#45;&gt;matches -->
<g id="edge15" class="edge">
<title>processTemplate&#45;&gt;matches</title>
<path fill="none" stroke="#000000" d="M835.1369,-1261.9139C878.995,-1229.7113 972.1928,-1155.7868 1026,-1073 1132.2006,-909.6017 1186.3389,-676.1934 1202.608,-596.1734"/>
<polygon fill="#000000" stroke="#000000" points="1206.0449,-596.8349 1204.5716,-586.343 1199.1806,-595.4637 1206.0449,-596.8349"/>
</g>
<!-- processTemplate&#45;&gt;readjson -->
<g id="edge68" class="edge">
<title>processTemplate&#45;&gt;readjson</title>
<path fill="none" stroke="#000000" d="M786.3831,-1261.9797C741.6372,-1229.8841 646.479,-1156.127 591,-1073 541.1664,-998.3318 512.5693,-894.2707 501.0289,-844.9971"/>
<polygon fill="#000000" stroke="#000000" points="504.4003,-844.039 498.7624,-835.0688 497.5759,-845.597 504.4003,-844.039"/>
</g>
<!-- runCommand -->
<g id="node22" class="node">
<title>runCommand</title>
<g id="a_node22"><a xlink:href="runCommand.md" xlink:title="runCommand.md">
<ellipse fill="#ffd39b" stroke="#000000" cx="1224" cy="-1055" rx="58.9841" ry="18"/>
<text text-anchor="middle" x="1224" y="-1050.8" font-family="Times,serif" font-size="14.00" fill="#000000">runCommand</text>
</a>
</g>
</g>
<!-- processTemplate&#45;&gt;runCommand -->
<g id="edge48" class="edge">
<title>processTemplate&#45;&gt;runCommand</title>
<path fill="none" stroke="#000000" d="M841.0346,-1262.71C914.7622,-1222.7222 1104.5728,-1119.7741 1185.9895,-1075.6159"/>
<polygon fill="#000000" stroke="#000000" points="1187.7853,-1078.6236 1194.9069,-1070.7793 1184.4479,-1072.4704 1187.7853,-1078.6236"/>
</g>
<!-- runCommand&#45;&gt;runFunction -->
<g id="edge47" class="edge">
<title>runCommand&#45;&gt;runFunction</title>
<path fill="none" stroke="#000000" d="M1243.7054,-1037.8836C1291.8907,-996.0292 1415.749,-888.4443 1470.8583,-840.5756"/>
<polygon fill="#000000" stroke="#000000" points="1473.2187,-843.1614 1478.4731,-833.9613 1468.6283,-837.8766 1473.2187,-843.1614"/>
</g>
<!-- runCommand&#45;&gt;parseNumber -->
<g id="edge37" class="edge">
<title>runCommand&#45;&gt;parseNumber</title>
<path fill="none" stroke="#000000" d="M1270.2937,-1043.9077C1352.6747,-1021.3846 1522.662,-961.6761 1593,-839 1637.1654,-761.9713 1599.0183,-652.5538 1575.379,-599.4023"/>
<polygon fill="#000000" stroke="#000000" points="1578.4935,-597.7967 1571.1569,-590.153 1572.1256,-600.7035 1578.4935,-597.7967"/>
</g>
<!-- runCommand&#45;&gt;regexes -->
<g id="edge31" class="edge">
<title>runCommand&#45;&gt;regexes</title>
<path fill="none" stroke="#000000" d="M1271.4075,-1044.1784C1356.4436,-1022.0178 1533.5148,-962.772 1614,-839 1685.1901,-729.5222 1688.6159,-665.5199 1636,-546 1592.9592,-448.2306 1485.0025,-374.1127 1426.373,-339.5223"/>
<polygon fill="#000000" stroke="#000000" points="1427.8094,-336.309 1417.4044,-334.3125 1424.2933,-342.3619 1427.8094,-336.309"/>
</g>
<!-- runCommand&#45;&gt;parseCmdLine -->
<g id="edge27" class="edge">
<title>runCommand&#45;&gt;parseCmdLine</title>
<path fill="none" stroke="#000000" d="M1231.7417,-1037.1113C1249.5997,-995.8474 1293.7746,-893.7732 1315.1019,-844.4927"/>
<polygon fill="#000000" stroke="#000000" points="1318.4087,-845.6638 1319.1684,-835.0963 1311.9845,-842.8836 1318.4087,-845.6638"/>
</g>
<!-- runCommand&#45;&gt;env -->
<g id="edge32" class="edge">
<title>runCommand&#45;&gt;env</title>
<path fill="none" stroke="#000000" d="M1220.8656,-1036.7138C1207.4316,-963.8264 1148.0357,-690.9692 990,-546 809.1184,-380.0738 498.881,-333.0192 392.2609,-321.4066"/>
<polygon fill="#000000" stroke="#000000" points="392.3201,-317.8937 382.0097,-320.3322 391.5904,-324.8556 392.3201,-317.8937"/>
</g>
<!-- runCommand&#45;&gt;variables -->
<g id="edge41" class="edge">
<title>runCommand&#45;&gt;variables</title>
<path fill="none" stroke="#000000" d="M1205.8375,-1037.4993C1162.162,-995.4152 1051.2102,-888.5062 1001.6115,-840.7147"/>
<polygon fill="#000000" stroke="#000000" points="1003.8273,-837.9894 994.1977,-833.571 998.9702,-843.0301 1003.8273,-837.9894"/>
</g>
<!-- runCommand&#45;&gt;vartypes -->
<g id="edge35" class="edge">
<title>runCommand&#45;&gt;vartypes</title>
<path fill="none" stroke="#000000" d="M1213.5923,-1037.0898C1170.6804,-963.2451 1007.3447,-682.1691 956.3226,-594.3679"/>
<polygon fill="#000000" stroke="#000000" points="959.2545,-592.447 951.2039,-585.5594 953.2022,-595.9641 959.2545,-592.447"/>
</g>
<!-- runCommand&#45;&gt;tpub -->
<g id="edge30" class="edge">
<title>runCommand&#45;&gt;tpub</title>
<path fill="none" stroke="#000000" d="M1197.1193,-1038.9174C1142.6233,-1005.6108 1016.6182,-924.9837 926,-839 843.0376,-760.2805 763.1679,-650.025 727.0722,-597.7489"/>
<polygon fill="#000000" stroke="#000000" points="729.8004,-595.5388 721.2551,-589.2756 724.0295,-599.5007 729.8004,-595.5388"/>
</g>
<!-- runCommand&#45;&gt;readlines -->
<g id="edge28" class="edge">
<title>runCommand&#45;&gt;readlines</title>
<path fill="none" stroke="#000000" d="M1191.8369,-1039.9315C1104.0471,-998.8016 860.1992,-884.5579 759.9263,-837.5796"/>
<polygon fill="#000000" stroke="#000000" points="761.2211,-834.3212 750.6807,-833.248 758.2513,-840.66 761.2211,-834.3212"/>
</g>
<!-- runCommand&#45;&gt;warnings -->
<g id="edge36" class="edge">
<title>runCommand&#45;&gt;warnings</title>
<path fill="none" stroke="#000000" d="M1273.9568,-1045.4868C1364.5459,-1025.3192 1554.4454,-969.0096 1640,-839 1711.7201,-730.0135 1701.0353,-669.1657 1658,-546 1566.6078,-284.438 1227.0196,-135.068 1097.5684,-86.6108"/>
<polygon fill="#000000" stroke="#000000" points="1098.4801,-83.2163 1087.8869,-83.0288 1096.0511,-89.7813 1098.4801,-83.2163"/>
</g>
<!-- runCommand&#45;&gt;matches -->
<g id="edge29" class="edge">
<title>runCommand&#45;&gt;matches</title>
<path fill="none" stroke="#000000" d="M1223.402,-1036.7978C1220.9785,-963.0334 1211.8773,-686.0165 1208.9285,-596.2601"/>
<polygon fill="#000000" stroke="#000000" points="1212.4191,-595.9144 1208.5925,-586.0348 1205.4229,-596.1444 1212.4191,-595.9144"/>
</g>
</g>
</svg>
