<?xml version="1.0" encoding="UTF-8" standalone="no"?>
<!DOCTYPE svg PUBLIC "-//W3C//DTD SVG 1.1//EN"
 "http://www.w3.org/Graphics/SVG/1.1/DTD/svg11.dtd">
<!-- Generated by graphviz version 7.0.1 (20221109.1506)
 -->
<!-- Title: statictea Pages: 1 -->
<svg width="3198pt" height="1484pt"
 viewBox="0.00 0.00 3197.99 1484.41" xmlns="http://www.w3.org/2000/svg" xmlns:xlink="http://www.w3.org/1999/xlink">
<g id="graph0" class="graph" transform="scale(1 1) rotate(0) translate(4 1480.41)">
<title>statictea</title>
<polygon fill="white" stroke="none" points="-4,4 -4,-1480.41 3193.99,-1480.41 3193.99,4 -4,4"/>
<!-- args -->
<g id="node1" class="node">
<title>args</title>
<g id="a_node1"><a xlink:href="html/args.html" xlink:title="args.md" target="_parent">
<ellipse fill="palegoldenrod" stroke="black" cx="498" cy="-543" rx="39.7" ry="24.08"/>
<text text-anchor="middle" x="498" y="-536.8" font-family="Times,serif" font-size="24.00">args</text>
</a>
</g>
</g>
<!-- messages -->
<g id="node9" class="node">
<title>messages</title>
<g id="a_node9"><a xlink:href="html/messages.html" xlink:title="messages.md" target="_parent">
<polygon fill="palegreen" stroke="black" points="1471.25,-29.21 1471.25,-50.79 1423.66,-66.04 1356.34,-66.04 1308.75,-50.79 1308.75,-29.21 1356.34,-13.96 1423.66,-13.96 1471.25,-29.21"/>
<polygon fill="none" stroke="black" points="1475.26,-26.29 1475.26,-53.71 1424.28,-70.04 1355.72,-70.04 1304.74,-53.71 1304.74,-26.29 1355.72,-9.96 1424.28,-9.96 1475.26,-26.29"/>
<text text-anchor="middle" x="1390" y="-33.8" font-family="Times,serif" font-size="24.00">messages</text>
</a>
</g>
</g>
<!-- args&#45;&gt;messages -->
<g id="edge1" class="edge">
<title>args&#45;&gt;messages</title>
<path fill="none" stroke="black" d="M490.02,-519.28C467.57,-450.78 411.87,-244.24 514,-134.96 566.46,-78.83 1076.1,-52.93 1293.03,-44.38"/>
<polygon fill="black" stroke="black" points="1293.02,-47.89 1302.88,-44 1292.75,-40.89 1293.02,-47.89"/>
</g>
<!-- opresult -->
<g id="node10" class="node">
<title>opresult</title>
<g id="a_node10"><a xlink:href="html/opresult.html" xlink:title="opresult.md" target="_parent">
<ellipse fill="palegoldenrod" stroke="black" cx="1466" cy="-159" rx="66.44" ry="24.08"/>
<text text-anchor="middle" x="1466" y="-152.8" font-family="Times,serif" font-size="24.00">opresult</text>
</a>
</g>
</g>
<!-- args&#45;&gt;opresult -->
<g id="edge3" class="edge">
<title>args&#45;&gt;opresult</title>
<path fill="none" stroke="black" d="M503.63,-518.85C518.79,-462.02 566.24,-315.47 666,-250.06 783.59,-172.96 1210.53,-161.42 1387.9,-160.01"/>
<polygon fill="black" stroke="black" points="1387.73,-163.52 1397.71,-159.95 1387.68,-156.52 1387.73,-163.52"/>
</g>
<!-- cmdline -->
<g id="node2" class="node">
<title>cmdline</title>
<g id="a_node2"><a xlink:href="html/cmdline.html" xlink:title="cmdline.md" target="_parent">
<polygon fill="palegreen" stroke="black" points="321.89,-532.21 321.89,-553.79 279.78,-569.04 220.22,-569.04 178.11,-553.79 178.11,-532.21 220.22,-516.96 279.78,-516.96 321.89,-532.21"/>
<polygon fill="none" stroke="black" points="325.89,-529.4 325.89,-556.6 280.48,-573.04 219.52,-573.04 174.11,-556.6 174.11,-529.4 219.52,-512.96 280.48,-512.96 325.89,-529.4"/>
<text text-anchor="middle" x="250" y="-536.8" font-family="Times,serif" font-size="24.00">cmdline</text>
</a>
</g>
</g>
<!-- comparelines -->
<g id="node3" class="node">
<title>comparelines</title>
<g id="a_node3"><a xlink:href="html/comparelines.html" xlink:title="comparelines.md" target="_parent">
<polygon fill="palegreen" stroke="black" points="883.42,-1385.21 883.42,-1406.79 818.74,-1422.04 727.26,-1422.04 662.58,-1406.79 662.58,-1385.21 727.26,-1369.96 818.74,-1369.96 883.42,-1385.21"/>
<polygon fill="none" stroke="black" points="887.43,-1382.05 887.43,-1409.95 819.2,-1426.04 726.8,-1426.04 658.57,-1409.95 658.57,-1382.05 726.8,-1365.96 819.2,-1365.96 887.43,-1382.05"/>
<text text-anchor="middle" x="773" y="-1389.8" font-family="Times,serif" font-size="24.00">comparelines</text>
</a>
</g>
</g>
<!-- env -->
<g id="node4" class="node">
<title>env</title>
<g id="a_node4"><a xlink:href="html/env.html" xlink:title="env.md" target="_parent">
<ellipse fill="palegoldenrod" stroke="black" cx="836" cy="-724" rx="36.12" ry="24.08"/>
<text text-anchor="middle" x="836" y="-717.8" font-family="Times,serif" font-size="24.00">env</text>
</a>
</g>
</g>
<!-- env&#45;&gt;messages -->
<g id="edge13" class="edge">
<title>env&#45;&gt;messages</title>
<path fill="none" stroke="black" d="M813.75,-704.86C762.79,-661.13 642,-544.06 642,-417 642,-417 642,-417 642,-283 642,-147.62 1091.15,-76.74 1293.36,-51.69"/>
<polygon fill="black" stroke="black" points="1293.56,-55.19 1303.06,-50.5 1292.71,-48.24 1293.56,-55.19"/>
</g>
<!-- tempFile -->
<g id="node25" class="node">
<title>tempFile</title>
<g id="a_node25"><a xlink:href="html/tempFile.html" xlink:title="tempFile.md" target="_parent">
<polygon fill="palegreen" stroke="black" points="906.13,-532.21 906.13,-553.79 860.36,-569.04 795.64,-569.04 749.87,-553.79 749.87,-532.21 795.64,-516.96 860.36,-516.96 906.13,-532.21"/>
<polygon fill="none" stroke="black" points="910.13,-529.33 910.13,-556.67 861.01,-573.04 794.99,-573.04 745.87,-556.67 745.87,-529.33 794.99,-512.96 861.01,-512.96 910.13,-529.33"/>
<text text-anchor="middle" x="828" y="-536.8" font-family="Times,serif" font-size="24.00">tempFile</text>
</a>
</g>
</g>
<!-- env&#45;&gt;tempFile -->
<g id="edge12" class="edge">
<title>env&#45;&gt;tempFile</title>
<path fill="none" stroke="black" d="M834.95,-699.6C833.65,-670.48 831.41,-620.27 829.82,-584.77"/>
<polygon fill="black" stroke="black" points="833.32,-584.7 829.38,-574.86 826.33,-585.01 833.32,-584.7"/>
</g>
<!-- functions -->
<g id="node5" class="node">
<title>functions</title>
<g id="a_node5"><a xlink:href="html/functions.html" xlink:title="functions.md" target="_parent">
<ellipse fill="palegoldenrod" stroke="black" cx="2069" cy="-724" rx="232.78" ry="70.92"/>
<text text-anchor="middle" x="2069" y="-702.8" font-family="Times,serif" font-size="84.00">functions</text>
</a>
</g>
</g>
<!-- matches -->
<g id="node8" class="node">
<title>matches</title>
<g id="a_node8"><a xlink:href="html/matches.html" xlink:title="matches.md" target="_parent">
<ellipse fill="palegoldenrod" stroke="black" cx="1637" cy="-543" rx="67.35" ry="24.08"/>
<text text-anchor="middle" x="1637" y="-536.8" font-family="Times,serif" font-size="24.00">matches</text>
</a>
</g>
</g>
<!-- functions&#45;&gt;matches -->
<g id="edge39" class="edge">
<title>functions&#45;&gt;matches</title>
<path fill="none" stroke="black" d="M1932.02,-666.24C1850.07,-632.29 1750.53,-591.04 1690.55,-566.19"/>
<polygon fill="black" stroke="black" points="1692.16,-563.07 1681.59,-562.47 1689.48,-569.54 1692.16,-563.07"/>
</g>
<!-- functions&#45;&gt;messages -->
<g id="edge35" class="edge">
<title>functions&#45;&gt;messages</title>
<path fill="none" stroke="black" d="M2228.96,-672.03C2305.19,-645.74 2396.8,-611.19 2476,-573.02 2522.36,-550.68 2529.73,-537.45 2575,-512.98 2635.67,-480.17 2678.23,-504.37 2715,-446.02 2729.23,-423.45 2722.69,-411.53 2715,-385.98 2671.98,-243.08 2629.5,-192.96 2492,-134.96 2311.84,-58.96 1720.86,-44.41 1486.75,-41.65"/>
<polygon fill="black" stroke="black" points="1487.09,-38.15 1477.05,-41.54 1487.01,-45.15 1487.09,-38.15"/>
</g>
<!-- functions&#45;&gt;opresult -->
<g id="edge48" class="edge">
<title>functions&#45;&gt;opresult</title>
<path fill="none" stroke="black" d="M1981.72,-658.16C1953.64,-633.92 1924.32,-604.55 1903,-573.02 1817.31,-446.3 1896.25,-353.98 1784,-250.06 1718.25,-189.19 1614.4,-169.07 1543.39,-162.64"/>
<polygon fill="black" stroke="black" points="1544.05,-159.18 1533.8,-161.84 1543.47,-166.15 1544.05,-159.18"/>
</g>
<!-- parseMarkdown -->
<g id="node13" class="node">
<title>parseMarkdown</title>
<g id="a_node13"><a xlink:href="html/parseMarkdown.html" xlink:title="parseMarkdown.md" target="_parent">
<ellipse fill="palegoldenrod" stroke="black" cx="1240" cy="-543" rx="121.74" ry="24.08"/>
<text text-anchor="middle" x="1240" y="-536.8" font-family="Times,serif" font-size="24.00">parseMarkdown</text>
</a>
</g>
</g>
<!-- functions&#45;&gt;parseMarkdown -->
<g id="edge57" class="edge">
<title>functions&#45;&gt;parseMarkdown</title>
<path fill="none" stroke="black" d="M1880.11,-682.21C1708.78,-645.22 1463.5,-592.26 1331.86,-563.83"/>
<polygon fill="black" stroke="black" points="1332.64,-560.42 1322.12,-561.73 1331.16,-567.26 1332.64,-560.42"/>
</g>
<!-- parseNumber -->
<g id="node14" class="node">
<title>parseNumber</title>
<g id="a_node14"><a xlink:href="html/parseNumber.html" xlink:title="parseNumber.md" target="_parent">
<polygon fill="palegreen" stroke="black" points="2139.98,-532.21 2139.98,-553.79 2074.38,-569.04 1981.62,-569.04 1916.02,-553.79 1916.02,-532.21 1981.62,-516.96 2074.38,-516.96 2139.98,-532.21"/>
<polygon fill="none" stroke="black" points="2143.99,-529.04 2143.99,-556.96 2074.84,-573.04 1981.16,-573.04 1912.01,-556.96 1912.01,-529.04 1981.16,-512.96 2074.84,-512.96 2143.99,-529.04"/>
<text text-anchor="middle" x="2028" y="-536.8" font-family="Times,serif" font-size="24.00">parseNumber</text>
</a>
</g>
</g>
<!-- functions&#45;&gt;parseNumber -->
<g id="edge38" class="edge">
<title>functions&#45;&gt;parseNumber</title>
<path fill="none" stroke="black" d="M2052.91,-652.77C2047.6,-629.57 2041.87,-604.56 2037.25,-584.38"/>
<polygon fill="black" stroke="black" points="2040.72,-583.85 2035.07,-574.88 2033.89,-585.41 2040.72,-583.85"/>
</g>
<!-- readjson -->
<g id="node16" class="node">
<title>readjson</title>
<g id="a_node16"><a xlink:href="html/readjson.html" xlink:title="readjson.md" target="_parent">
<ellipse fill="palegoldenrod" stroke="black" cx="2269" cy="-543" rx="69.09" ry="24.08"/>
<text text-anchor="middle" x="2269" y="-536.8" font-family="Times,serif" font-size="24.00">readjson</text>
</a>
</g>
</g>
<!-- functions&#45;&gt;readjson -->
<g id="edge54" class="edge">
<title>functions&#45;&gt;readjson</title>
<path fill="none" stroke="black" d="M2143.47,-656.35C2175.46,-627.72 2211.19,-595.74 2236.32,-573.25"/>
<polygon fill="black" stroke="black" points="2238.5,-576 2243.62,-566.72 2233.83,-570.78 2238.5,-576"/>
</g>
<!-- regexes -->
<g id="node17" class="node">
<title>regexes</title>
<g id="a_node17"><a xlink:href="html/regexes.html" xlink:title="regexes.md" target="_parent">
<polygon fill="palegreen" stroke="black" points="1705.23,-405.21 1705.23,-426.79 1665.26,-442.04 1608.74,-442.04 1568.77,-426.79 1568.77,-405.21 1608.74,-389.96 1665.26,-389.96 1705.23,-405.21"/>
<polygon fill="none" stroke="black" points="1709.24,-402.46 1709.24,-429.54 1666,-446.04 1608,-446.04 1564.76,-429.54 1564.76,-402.46 1608,-385.96 1666,-385.96 1709.24,-402.46"/>
<text text-anchor="middle" x="1637" y="-409.8" font-family="Times,serif" font-size="24.00">regexes</text>
</a>
</g>
</g>
<!-- functions&#45;&gt;regexes -->
<g id="edge37" class="edge">
<title>functions&#45;&gt;regexes</title>
<path fill="none" stroke="black" d="M1964.41,-660.28C1922.56,-634.29 1874.32,-603.2 1832,-573.02 1777.03,-533.82 1716.78,-484.58 1678.02,-452.02"/>
<polygon fill="black" stroke="black" points="1680.66,-449.67 1670.76,-445.9 1676.15,-455.02 1680.66,-449.67"/>
</g>
<!-- signatures -->
<g id="node22" class="node">
<title>signatures</title>
<g id="a_node22"><a xlink:href="html/signatures.html" xlink:title="signatures.md" target="_parent">
<ellipse fill="palegoldenrod" stroke="black" cx="2626" cy="-416" rx="79.81" ry="24.08"/>
<text text-anchor="middle" x="2626" y="-409.8" font-family="Times,serif" font-size="24.00">signatures</text>
</a>
</g>
</g>
<!-- functions&#45;&gt;signatures -->
<g id="edge47" class="edge">
<title>functions&#45;&gt;signatures</title>
<path fill="none" stroke="black" d="M2216.23,-668.8C2279.95,-643.06 2354.36,-609.86 2418,-573.02 2483.42,-535.15 2552.25,-480.07 2592.04,-446.49"/>
<polygon fill="black" stroke="black" points="2594.29,-449.18 2599.64,-440.04 2589.76,-443.84 2594.29,-449.18"/>
</g>
<!-- unicodes -->
<g id="node27" class="node">
<title>unicodes</title>
<g id="a_node27"><a xlink:href="html/unicodes.html" xlink:title="unicodes.md" target="_parent">
<ellipse fill="palegoldenrod" stroke="black" cx="2153" cy="-416" rx="71.34" ry="24.08"/>
<text text-anchor="middle" x="2153" y="-409.8" font-family="Times,serif" font-size="24.00">unicodes</text>
</a>
</g>
</g>
<!-- functions&#45;&gt;unicodes -->
<g id="edge44" class="edge">
<title>functions&#45;&gt;unicodes</title>
<path fill="none" stroke="black" d="M2117.06,-654.47C2131.57,-629.93 2145.61,-601.32 2153,-573.02 2163.58,-532.47 2161.37,-483.94 2157.97,-451.89"/>
<polygon fill="black" stroke="black" points="2161.45,-451.49 2156.81,-441.97 2154.49,-452.31 2161.45,-451.49"/>
</g>
<!-- variables -->
<g id="node30" class="node">
<title>variables</title>
<g id="a_node30"><a xlink:href="html/variables.html" xlink:title="variables.md" target="_parent">
<ellipse fill="palegoldenrod" stroke="black" cx="2657" cy="-543" rx="72.66" ry="24.08"/>
<text text-anchor="middle" x="2657" y="-536.8" font-family="Times,serif" font-size="24.00">variables</text>
</a>
</g>
</g>
<!-- functions&#45;&gt;variables -->
<g id="edge55" class="edge">
<title>functions&#45;&gt;variables</title>
<path fill="none" stroke="black" d="M2236.4,-674.3C2333.95,-645.57 2459.2,-608.08 2570,-573.02 2578.63,-570.29 2587.73,-567.34 2596.65,-564.4"/>
<polygon fill="black" stroke="black" points="2597.57,-567.78 2605.96,-561.32 2595.37,-561.14 2597.57,-567.78"/>
</g>
<!-- vartypes -->
<g id="node31" class="node">
<title>vartypes</title>
<g id="a_node31"><a xlink:href="html/vartypes.html" xlink:title="vartypes.md" target="_parent">
<ellipse fill="palegoldenrod" stroke="black" cx="2492" cy="-284" rx="97.66" ry="33.88"/>
<text text-anchor="middle" x="2492" y="-275.2" font-family="Times,serif" font-size="36.00">vartypes</text>
</a>
</g>
</g>
<!-- functions&#45;&gt;vartypes -->
<g id="edge36" class="edge">
<title>functions&#45;&gt;vartypes</title>
<path fill="none" stroke="black" d="M2213.38,-667.92C2260.66,-644.36 2310.39,-612.93 2347,-573.02 2408.24,-506.27 2385.62,-466.05 2428,-385.98 2438.57,-366.01 2451.72,-344.77 2463.35,-326.95"/>
<polygon fill="black" stroke="black" points="2466.21,-328.96 2468.79,-318.69 2460.36,-325.11 2466.21,-328.96"/>
</g>
<!-- gethelp -->
<g id="node6" class="node">
<title>gethelp</title>
<g id="a_node6"><a xlink:href="html/gethelp.html" xlink:title="gethelp.md" target="_parent">
<polygon fill="palegreen" stroke="black" points="332.67,-1216.21 332.67,-1237.79 293.62,-1253.04 238.38,-1253.04 199.33,-1237.79 199.33,-1216.21 238.38,-1200.96 293.62,-1200.96 332.67,-1216.21"/>
<polygon fill="none" stroke="black" points="336.67,-1213.48 336.67,-1240.52 294.37,-1257.04 237.63,-1257.04 195.33,-1240.52 195.33,-1213.48 237.63,-1196.96 294.37,-1196.96 336.67,-1213.48"/>
<text text-anchor="middle" x="266" y="-1220.8" font-family="Times,serif" font-size="24.00">gethelp</text>
</a>
</g>
</g>
<!-- linebuffer -->
<g id="node7" class="node">
<title>linebuffer</title>
<g id="a_node7"><a xlink:href="html/linebuffer.html" xlink:title="linebuffer.md" target="_parent">
<polygon fill="palegreen" stroke="black" points="1177.91,-405.21 1177.91,-426.79 1128.17,-442.04 1057.83,-442.04 1008.09,-426.79 1008.09,-405.21 1057.83,-389.96 1128.17,-389.96 1177.91,-405.21"/>
<polygon fill="none" stroke="black" points="1181.91,-402.25 1181.91,-429.75 1128.77,-446.04 1057.23,-446.04 1004.09,-429.75 1004.09,-402.25 1057.23,-385.96 1128.77,-385.96 1181.91,-402.25"/>
<text text-anchor="middle" x="1093" y="-409.8" font-family="Times,serif" font-size="24.00">linebuffer</text>
</a>
</g>
</g>
<!-- matches&#45;&gt;regexes -->
<g id="edge7" class="edge">
<title>matches&#45;&gt;regexes</title>
<path fill="none" stroke="red" d="M1637,-518.49C1637,-501.34 1637,-477.68 1637,-457.52"/>
<polygon fill="red" stroke="red" points="1640.5,-457.64 1637,-447.64 1633.5,-457.64 1640.5,-457.64"/>
</g>
<!-- opresult&#45;&gt;messages -->
<g id="edge2" class="edge">
<title>opresult&#45;&gt;messages</title>
<path fill="none" stroke="red" d="M1451.17,-135.16C1440.99,-119.49 1427.22,-98.3 1415.33,-79.99"/>
<polygon fill="red" stroke="red" points="1418.33,-78.19 1409.95,-71.71 1412.46,-82 1418.33,-78.19"/>
</g>
<!-- parseCmdLine -->
<g id="node11" class="node">
<title>parseCmdLine</title>
<g id="a_node11"><a xlink:href="html/parseCmdLine.html" xlink:title="parseCmdLine.md" target="_parent">
<ellipse fill="palegoldenrod" stroke="black" cx="1420" cy="-724" rx="111.95" ry="24.08"/>
<text text-anchor="middle" x="1420" y="-717.8" font-family="Times,serif" font-size="24.00">parseCmdLine</text>
</a>
</g>
</g>
<!-- parseCmdLine&#45;&gt;args -->
<g id="edge20" class="edge">
<title>parseCmdLine&#45;&gt;args</title>
<path fill="none" stroke="black" d="M1338.58,-707.19C1151.58,-670.89 695.99,-582.44 546.44,-553.4"/>
<polygon fill="black" stroke="black" points="547.35,-550.02 536.87,-551.55 546.02,-556.89 547.35,-550.02"/>
</g>
<!-- parseCmdLine&#45;&gt;matches -->
<g id="edge18" class="edge">
<title>parseCmdLine&#45;&gt;matches</title>
<path fill="none" stroke="black" d="M1447.48,-700.33C1486.77,-667.92 1558.99,-608.35 1602.03,-572.84"/>
<polygon fill="black" stroke="black" points="1604.1,-575.68 1609.59,-566.61 1599.65,-570.28 1604.1,-575.68"/>
</g>
<!-- parseCmdLine&#45;&gt;messages -->
<g id="edge17" class="edge">
<title>parseCmdLine&#45;&gt;messages</title>
<path fill="none" stroke="black" d="M1418.35,-699.6C1413.15,-624.55 1397.07,-383.14 1391,-183.04 1389.97,-148.96 1389.76,-110.27 1389.78,-81.88"/>
<polygon fill="black" stroke="black" points="1393.28,-81.91 1389.8,-71.9 1386.28,-81.89 1393.28,-81.91"/>
</g>
<!-- parseCmdLine&#45;&gt;opresult -->
<g id="edge19" class="edge">
<title>parseCmdLine&#45;&gt;opresult</title>
<path fill="none" stroke="black" d="M1424.11,-699.44C1429.1,-669.97 1437.41,-617.92 1442,-573.02 1456.29,-433.2 1462.76,-265.82 1465.01,-194.7"/>
<polygon fill="black" stroke="black" points="1468.5,-194.96 1465.31,-184.86 1461.51,-194.75 1468.5,-194.96"/>
</g>
<!-- parseCmdLine&#45;&gt;regexes -->
<g id="edge16" class="edge">
<title>parseCmdLine&#45;&gt;regexes</title>
<path fill="none" stroke="black" d="M1428.66,-699.61C1444.39,-659 1480.5,-573.94 1528,-512.98 1546.17,-489.66 1570.56,-467.57 1591.66,-450.47"/>
<polygon fill="black" stroke="black" points="1593.65,-453.36 1599.29,-444.4 1589.29,-447.89 1593.65,-453.36"/>
</g>
<!-- parseCommandLine -->
<g id="node12" class="node">
<title>parseCommandLine</title>
<g id="a_node12"><a xlink:href="html/parseCommandLine.html" xlink:title="parseCommandLine.md" target="_parent">
<ellipse fill="palegoldenrod" stroke="black" cx="177" cy="-724" rx="149.4" ry="24.08"/>
<text text-anchor="middle" x="177" y="-717.8" font-family="Times,serif" font-size="24.00">parseCommandLine</text>
</a>
</g>
</g>
<!-- parseCommandLine&#45;&gt;args -->
<g id="edge4" class="edge">
<title>parseCommandLine&#45;&gt;args</title>
<path fill="none" stroke="black" d="M217.33,-700.51C279.57,-665.8 398.22,-599.64 459.4,-565.53"/>
<polygon fill="black" stroke="black" points="461.06,-568.6 468.09,-560.68 457.65,-562.49 461.06,-568.6"/>
</g>
<!-- parseCommandLine&#45;&gt;cmdline -->
<g id="edge6" class="edge">
<title>parseCommandLine&#45;&gt;cmdline</title>
<path fill="none" stroke="black" d="M186.54,-699.6C198.52,-670.23 219.25,-619.4 233.75,-583.85"/>
<polygon fill="black" stroke="black" points="236.92,-585.33 237.46,-574.75 230.44,-582.69 236.92,-585.33"/>
</g>
<!-- parseCommandLine&#45;&gt;matches -->
<g id="edge8" class="edge">
<title>parseCommandLine&#45;&gt;matches</title>
<path fill="none" stroke="black" d="M294.01,-708.65C583.12,-673.21 1324.91,-582.26 1562.56,-553.13"/>
<polygon fill="black" stroke="black" points="1562.82,-556.62 1572.32,-551.93 1561.97,-549.67 1562.82,-556.62"/>
</g>
<!-- parseCommandLine&#45;&gt;messages -->
<g id="edge5" class="edge">
<title>parseCommandLine&#45;&gt;messages</title>
<path fill="none" stroke="black" d="M173.01,-699.66C164.64,-648.59 146,-522.99 146,-417 146,-417 146,-417 146,-283 146,-174.54 238.9,-174.23 340,-134.96 512.4,-67.98 1067.05,-48.2 1292.92,-42.83"/>
<polygon fill="black" stroke="black" points="1292.97,-46.33 1302.89,-42.6 1292.81,-39.34 1292.97,-46.33"/>
</g>
<!-- parseMarkdown&#45;&gt;linebuffer -->
<g id="edge56" class="edge">
<title>parseMarkdown&#45;&gt;linebuffer</title>
<path fill="none" stroke="red" d="M1213.04,-519.07C1191.54,-500.79 1161.01,-474.83 1136.12,-453.67"/>
<polygon fill="red" stroke="red" points="1138.61,-451.19 1128.73,-447.38 1134.08,-456.53 1138.61,-451.19"/>
</g>
<!-- processTemplate -->
<g id="node15" class="node">
<title>processTemplate</title>
<g id="a_node15"><a xlink:href="html/processTemplate.html" xlink:title="processTemplate.md" target="_parent">
<ellipse fill="palegoldenrod" stroke="black" cx="639" cy="-1227" rx="124.4" ry="24.08"/>
<text text-anchor="middle" x="639" y="-1220.8" font-family="Times,serif" font-size="24.00">processTemplate</text>
</a>
</g>
</g>
<!-- processTemplate&#45;&gt;args -->
<g id="edge10" class="edge">
<title>processTemplate&#45;&gt;args</title>
<path fill="none" stroke="black" d="M599.76,-1203.7C575.03,-1187.33 545.04,-1162.65 530,-1132.04 481.8,-1033.98 491.78,-689.75 496.39,-578.77"/>
<polygon fill="black" stroke="black" points="499.88,-578.95 496.81,-568.81 492.89,-578.65 499.88,-578.95"/>
</g>
<!-- processTemplate&#45;&gt;env -->
<g id="edge14" class="edge">
<title>processTemplate&#45;&gt;env</title>
<path fill="none" stroke="black" d="M648.24,-1202.51C680.14,-1121.36 785.79,-852.69 822.94,-758.21"/>
<polygon fill="black" stroke="black" points="826.17,-759.57 826.57,-748.99 819.65,-757.01 826.17,-759.57"/>
</g>
<!-- processTemplate&#45;&gt;linebuffer -->
<g id="edge15" class="edge">
<title>processTemplate&#45;&gt;linebuffer</title>
<path fill="none" stroke="black" d="M634.03,-1202.63C614.61,-1104.48 553.67,-721.15 737,-512.98 770.59,-474.84 899.48,-447.08 992.53,-431.51"/>
<polygon fill="black" stroke="black" points="992.89,-434.99 1002.19,-429.91 991.76,-428.09 992.89,-434.99"/>
</g>
<!-- processTemplate&#45;&gt;messages -->
<g id="edge11" class="edge">
<title>processTemplate&#45;&gt;messages</title>
<path fill="none" stroke="black" d="M603.21,-1203.53C576.53,-1185.86 540.02,-1159.68 512,-1132.04 373.85,-995.75 354,-919.06 354,-725 354,-725 354,-725 354,-283 354,-211.32 360.06,-177.16 418,-134.96 487.74,-84.16 1061.16,-54.74 1293.14,-44.82"/>
<polygon fill="black" stroke="black" points="1293.24,-48.32 1303.08,-44.4 1292.94,-41.32 1293.24,-48.32"/>
</g>
<!-- processTemplate&#45;&gt;opresult -->
<g id="edge88" class="edge">
<title>processTemplate&#45;&gt;opresult</title>
<path fill="none" stroke="black" d="M631.13,-1202.75C625.1,-1183.91 617.14,-1156.57 613,-1132.04 603.84,-1077.8 606.78,-1063.5 605,-1008.52 599.89,-850.65 573.58,-805.44 616,-653.29 652.88,-521 684.63,-492.75 771,-385.98 825.74,-318.3 834.17,-289.02 912,-250.06 994.66,-208.68 1259.07,-179.17 1390.44,-166.66"/>
<polygon fill="black" stroke="black" points="1390.45,-170.18 1400.08,-165.76 1389.79,-163.21 1390.45,-170.18"/>
</g>
<!-- processTemplate&#45;&gt;parseCmdLine -->
<g id="edge21" class="edge">
<title>processTemplate&#45;&gt;parseCmdLine</title>
<path fill="none" stroke="black" d="M718.56,-1208.15C831.47,-1179.97 1040.89,-1116.92 1189,-1008.52 1286.15,-937.41 1366.11,-816.1 1401.05,-757.96"/>
<polygon fill="black" stroke="black" points="1403.98,-759.89 1406.08,-749.5 1397.96,-756.31 1403.98,-759.89"/>
</g>
<!-- replacement -->
<g id="node19" class="node">
<title>replacement</title>
<g id="a_node19"><a xlink:href="html/replacement.html" xlink:title="replacement.md" target="_parent">
<ellipse fill="palegoldenrod" stroke="black" cx="1085" cy="-947" rx="94.51" ry="24.08"/>
<text text-anchor="middle" x="1085" y="-940.8" font-family="Times,serif" font-size="24.00">replacement</text>
</a>
</g>
</g>
<!-- processTemplate&#45;&gt;replacement -->
<g id="edge77" class="edge">
<title>processTemplate&#45;&gt;replacement</title>
<path fill="none" stroke="black" d="M667.88,-1203.08C705.21,-1173.9 772.72,-1122.63 834,-1083.96 900.26,-1042.14 980.42,-1000.12 1032.03,-974.09"/>
<polygon fill="black" stroke="black" points="1033.56,-977.24 1040.92,-969.63 1030.42,-970.99 1033.56,-977.24"/>
</g>
<!-- runCommand -->
<g id="node20" class="node">
<title>runCommand</title>
<g id="a_node20"><a xlink:href="html/runCommand.html" xlink:title="runCommand.md" target="_parent">
<ellipse fill="palegoldenrod" stroke="black" cx="2117" cy="-947" rx="292.07" ry="61.54"/>
<text text-anchor="middle" x="2117" y="-928.9" font-family="Times,serif" font-size="72.00">runCommand</text>
</a>
</g>
</g>
<!-- processTemplate&#45;&gt;runCommand -->
<g id="edge65" class="edge">
<title>processTemplate&#45;&gt;runCommand</title>
<path fill="none" stroke="black" d="M726.48,-1209.55C951.59,-1167.2 1556.46,-1053.43 1889.45,-990.8"/>
<polygon fill="black" stroke="black" points="1890.02,-994.25 1899.2,-988.97 1888.73,-987.37 1890.02,-994.25"/>
</g>
<!-- startingvars -->
<g id="node23" class="node">
<title>startingvars</title>
<g id="a_node23"><a xlink:href="html/startingvars.html" xlink:title="startingvars.md" target="_parent">
<ellipse fill="palegoldenrod" stroke="black" cx="1743" cy="-1108" rx="90.52" ry="24.08"/>
<text text-anchor="middle" x="1743" y="-1101.8" font-family="Times,serif" font-size="24.00">startingvars</text>
</a>
</g>
</g>
<!-- processTemplate&#45;&gt;startingvars -->
<g id="edge87" class="edge">
<title>processTemplate&#45;&gt;startingvars</title>
<path fill="none" stroke="black" d="M754.67,-1217.76C937.3,-1204.09 1303.42,-1174.01 1612,-1132.04 1627.28,-1129.96 1643.51,-1127.4 1659.14,-1124.75"/>
<polygon fill="black" stroke="black" points="1659.65,-1128.21 1668.91,-1123.06 1658.46,-1121.31 1659.65,-1128.21"/>
</g>
<!-- processTemplate&#45;&gt;variables -->
<g id="edge66" class="edge">
<title>processTemplate&#45;&gt;variables</title>
<path fill="none" stroke="black" d="M760.94,-1221.94C979.04,-1213.47 1449.89,-1189.68 1843,-1132.04 1942.89,-1117.4 1965.86,-1102.99 2065,-1083.96 2264.15,-1045.72 2349.52,-1125.74 2515,-1008.52 2656.78,-908.09 2662.32,-668.44 2659.09,-578.71"/>
<polygon fill="black" stroke="black" points="2662.59,-578.67 2658.66,-568.82 2655.59,-578.97 2662.59,-578.67"/>
</g>
<!-- processTemplate&#45;&gt;vartypes -->
<g id="edge67" class="edge">
<title>processTemplate&#45;&gt;vartypes</title>
<path fill="none" stroke="black" d="M761.85,-1222.64C996.98,-1215.04 1526.53,-1192.23 1968,-1132.04 2241.21,-1094.79 2354.68,-1172.99 2576,-1008.52 2771.49,-863.24 2860.21,-751.31 2810,-512.98 2797.28,-452.61 2798.64,-428.55 2754,-385.98 2708.87,-342.94 2643.41,-317.7 2589.21,-303.21"/>
<polygon fill="black" stroke="black" points="2590.21,-299.86 2579.65,-300.75 2588.46,-306.63 2590.21,-299.86"/>
</g>
<!-- readjson&#45;&gt;messages -->
<g id="edge50" class="edge">
<title>readjson&#45;&gt;messages</title>
<path fill="none" stroke="black" d="M2268.49,-518.58C2266.19,-465.4 2253.95,-333.68 2190,-250.06 2132.54,-174.93 2099.49,-168.35 2011,-134.96 1834.16,-68.23 1612.09,-48.79 1487.11,-43.19"/>
<polygon fill="black" stroke="black" points="1487.35,-39.7 1477.21,-42.77 1487.05,-46.69 1487.35,-39.7"/>
</g>
<!-- readjson&#45;&gt;opresult -->
<g id="edge53" class="edge">
<title>readjson&#45;&gt;opresult</title>
<path fill="none" stroke="black" d="M2216.36,-527.06C2167.41,-511.62 2093.85,-484.37 2038,-446.02 1973.19,-401.52 1968.16,-376.76 1916,-317.94 1890.05,-288.68 1893.28,-270.6 1860,-250.06 1761.91,-189.53 1627.47,-169.6 1543.72,-163.09"/>
<polygon fill="black" stroke="black" points="1543.99,-159.6 1533.76,-162.36 1543.48,-166.58 1543.99,-159.6"/>
</g>
<!-- readjson&#45;&gt;unicodes -->
<g id="edge51" class="edge">
<title>readjson&#45;&gt;unicodes</title>
<path fill="none" stroke="black" d="M2248.26,-519.65C2229.54,-499.48 2201.83,-469.62 2181.12,-447.3"/>
<polygon fill="black" stroke="black" points="2183.96,-445.21 2174.59,-440.26 2178.83,-449.97 2183.96,-445.21"/>
</g>
<!-- utf8decoder -->
<g id="node29" class="node">
<title>utf8decoder</title>
<g id="a_node29"><a xlink:href="html/utf8decoder.html" xlink:title="utf8decoder.md" target="_parent">
<polygon fill="palegreen" stroke="black" points="2129.04,-273.21 2129.04,-294.79 2070.44,-310.04 1987.56,-310.04 1928.96,-294.79 1928.96,-273.21 1987.56,-257.96 2070.44,-257.96 2129.04,-273.21"/>
<polygon fill="none" stroke="black" points="2133.03,-270.12 2133.03,-297.88 2070.95,-314.04 1987.05,-314.04 1924.97,-297.88 1924.97,-270.12 1987.05,-253.96 2070.95,-253.96 2133.03,-270.12"/>
<text text-anchor="middle" x="2029" y="-277.8" font-family="Times,serif" font-size="24.00">utf8decoder</text>
</a>
</g>
</g>
<!-- readjson&#45;&gt;utf8decoder -->
<g id="edge52" class="edge">
<title>readjson&#45;&gt;utf8decoder</title>
<path fill="none" stroke="black" d="M2213.31,-528.38C2169.07,-514.73 2108.86,-489.38 2073,-446.02 2044.79,-411.92 2034.58,-361.19 2030.93,-325.82"/>
<polygon fill="black" stroke="black" points="2034.43,-325.62 2030.06,-315.96 2027.45,-326.23 2034.43,-325.62"/>
</g>
<!-- readjson&#45;&gt;vartypes -->
<g id="edge49" class="edge">
<title>readjson&#45;&gt;vartypes</title>
<path fill="none" stroke="black" d="M2285.15,-519.31C2307.56,-488.27 2349.88,-431.26 2390,-385.98 2408.86,-364.69 2431.17,-342.32 2450.11,-324.06"/>
<polygon fill="black" stroke="black" points="2452.38,-326.73 2457.18,-317.29 2447.54,-321.68 2452.38,-326.73"/>
</g>
<!-- repl -->
<g id="node18" class="node">
<title>repl</title>
<g id="a_node18"><a xlink:href="html/repl.html" xlink:title="repl.md" target="_parent">
<ellipse fill="palegoldenrod" stroke="black" cx="1339" cy="-1227" rx="38.37" ry="24.08"/>
<text text-anchor="middle" x="1339" y="-1220.8" font-family="Times,serif" font-size="24.00">repl</text>
</a>
</g>
</g>
<!-- repl&#45;&gt;args -->
<g id="edge111" class="edge">
<title>repl&#45;&gt;args</title>
<path fill="none" stroke="black" d="M1300.86,-1222.6C1192.37,-1212.45 884.13,-1180 796,-1132.04 582.1,-1015.63 517.91,-686.51 502.32,-578.68"/>
<polygon fill="black" stroke="black" points="505.82,-578.43 500.98,-569.01 498.89,-579.39 505.82,-578.43"/>
</g>
<!-- repl&#45;&gt;env -->
<g id="edge109" class="edge">
<title>repl&#45;&gt;env</title>
<path fill="none" stroke="black" d="M1301.33,-1221.71C1213.66,-1210.98 999.46,-1180.38 948,-1132.04 892.97,-1080.35 853.97,-848.22 840.85,-759.56"/>
<polygon fill="black" stroke="black" points="844.32,-759.17 839.42,-749.78 837.4,-760.18 844.32,-759.17"/>
</g>
<!-- repl&#45;&gt;matches -->
<g id="edge114" class="edge">
<title>repl&#45;&gt;matches</title>
<path fill="none" stroke="black" d="M1364.44,-1208.96C1388.14,-1191.94 1423.03,-1163.79 1445,-1132.04 1572.18,-948.27 1619.47,-674.7 1632.71,-578.76"/>
<polygon fill="black" stroke="black" points="1636.16,-579.32 1634.02,-568.94 1629.23,-578.39 1636.16,-579.32"/>
</g>
<!-- repl&#45;&gt;messages -->
<g id="edge108" class="edge">
<title>repl&#45;&gt;messages</title>
<path fill="none" stroke="black" d="M1300.67,-1222.91C1183.55,-1213.05 832.07,-1180.08 729,-1132.04 516.12,-1032.83 392,-959.86 392,-725 392,-725 392,-725 392,-283 392,-206.46 415.5,-176.18 480,-134.96 612.82,-50.07 1086.77,-40.33 1292.99,-40.24"/>
<polygon fill="black" stroke="black" points="1292.88,-43.74 1302.88,-40.25 1292.88,-36.74 1292.88,-43.74"/>
</g>
<!-- repl&#45;&gt;opresult -->
<g id="edge112" class="edge">
<title>repl&#45;&gt;opresult</title>
<path fill="none" stroke="black" d="M1301.17,-1221.94C1209.05,-1211.4 976.27,-1180.51 917,-1132.04 695.19,-950.65 615.36,-772.41 737,-512.98 814.56,-347.56 888.83,-330.24 1053,-250.06 1162.65,-196.5 1304.1,-174.53 1389.78,-165.7"/>
<polygon fill="black" stroke="black" points="1389.87,-169.21 1399.47,-164.74 1389.18,-162.24 1389.87,-169.21"/>
</g>
<!-- repl&#45;&gt;parseMarkdown -->
<g id="edge119" class="edge">
<title>repl&#45;&gt;parseMarkdown</title>
<path fill="none" stroke="black" d="M1334.51,-1202.71C1322.19,-1138.12 1287.34,-951.22 1266,-794.71 1255.54,-717.97 1247.11,-627.49 1242.91,-578.96"/>
<polygon fill="black" stroke="black" points="1246.4,-578.74 1242.06,-569.07 1239.43,-579.33 1246.4,-578.74"/>
</g>
<!-- repl&#45;&gt;regexes -->
<g id="edge115" class="edge">
<title>repl&#45;&gt;regexes</title>
<path fill="none" stroke="black" d="M1352.8,-1204.2C1390.9,-1142.71 1497.61,-961.55 1541,-794.71 1572.6,-673.22 1515.57,-630 1561,-512.98 1569.45,-491.21 1584.64,-470.45 1599.23,-453.85"/>
<polygon fill="black" stroke="black" points="1601.62,-456.43 1605.75,-446.68 1596.44,-451.72 1601.62,-456.43"/>
</g>
<!-- repl&#45;&gt;runCommand -->
<g id="edge116" class="edge">
<title>repl&#45;&gt;runCommand</title>
<path fill="none" stroke="black" d="M1363.39,-1208.32C1370.4,-1203.98 1378.24,-1199.78 1386,-1196.98 1578.91,-1127.18 1651.46,-1205.52 1843,-1132.04 1915.07,-1104.39 1987.16,-1054.88 2039.3,-1014.17"/>
<polygon fill="black" stroke="black" points="2041.26,-1017.08 2046.95,-1008.14 2036.93,-1011.58 2041.26,-1017.08"/>
</g>
<!-- repl&#45;&gt;startingvars -->
<g id="edge113" class="edge">
<title>repl&#45;&gt;startingvars</title>
<path fill="none" stroke="black" d="M1364.08,-1208.52C1370.96,-1204.29 1378.57,-1200.1 1386,-1196.98 1435.18,-1176.34 1572.26,-1145.16 1661.54,-1125.99"/>
<polygon fill="black" stroke="black" points="1662.2,-1129.43 1671.24,-1123.92 1660.73,-1122.59 1662.2,-1129.43"/>
</g>
<!-- repl&#45;&gt;unicodes -->
<g id="edge118" class="edge">
<title>repl&#45;&gt;unicodes</title>
<path fill="none" stroke="black" d="M1363.36,-1208.23C1370.37,-1203.9 1378.22,-1199.72 1386,-1196.98 1839.28,-1036.99 2150.64,-1383.81 2451,-1008.52 2590.23,-834.56 2520.29,-681.91 2375,-512.98 2336.95,-468.73 2274.78,-444.24 2225.89,-431.09"/>
<polygon fill="black" stroke="black" points="2227.07,-427.78 2216.51,-428.68 2225.32,-434.56 2227.07,-427.78"/>
</g>
<!-- repl&#45;&gt;variables -->
<g id="edge117" class="edge">
<title>repl&#45;&gt;variables</title>
<path fill="none" stroke="black" d="M1363.24,-1207.88C1370.25,-1203.54 1378.13,-1199.45 1386,-1196.98 1873.48,-1043.59 2043.17,-1274.31 2534,-1132.04 2642.45,-1100.61 2697.41,-1105.04 2756,-1008.52 2837.93,-873.54 2820.96,-799.77 2762,-653.29 2748.8,-620.5 2720.54,-592.03 2696.66,-572.37"/>
<polygon fill="black" stroke="black" points="2698.95,-569.72 2688.95,-566.22 2694.58,-575.19 2698.95,-569.72"/>
</g>
<!-- repl&#45;&gt;vartypes -->
<g id="edge110" class="edge">
<title>repl&#45;&gt;vartypes</title>
<path fill="none" stroke="black" d="M1363.24,-1207.86C1370.24,-1203.52 1378.13,-1199.44 1386,-1196.98 1911.06,-1032.92 2102.72,-1313.56 2622,-1132.04 2711.18,-1100.87 2738.27,-1084.07 2795,-1008.52 2882.01,-892.64 3080.7,-498.18 2989,-385.98 2982.62,-378.17 2730.78,-329.81 2588.11,-302.95"/>
<polygon fill="black" stroke="black" points="2589.15,-299.58 2578.67,-301.17 2587.85,-306.46 2589.15,-299.58"/>
</g>
<!-- replacement&#45;&gt;args -->
<g id="edge76" class="edge">
<title>replacement&#45;&gt;args</title>
<path fill="none" stroke="black" d="M1049.31,-924.24C1009.98,-898.34 947.81,-851.39 914,-794.71 880.93,-739.28 925.51,-700.03 881,-653.29 834.98,-604.97 640.67,-567.39 547.81,-551.82"/>
<polygon fill="black" stroke="black" points="548.41,-548.37 537.97,-550.19 547.26,-555.28 548.41,-548.37"/>
</g>
<!-- replacement&#45;&gt;env -->
<g id="edge68" class="edge">
<title>replacement&#45;&gt;env</title>
<path fill="none" stroke="black" d="M1050.13,-924.16C1008.32,-896.96 937.44,-847.6 886,-794.71 874.66,-783.05 863.9,-768.66 855.29,-755.99"/>
<polygon fill="black" stroke="black" points="858.42,-754.37 849.98,-747.97 852.58,-758.24 858.42,-754.37"/>
</g>
<!-- replacement&#45;&gt;linebuffer -->
<g id="edge71" class="edge">
<title>replacement&#45;&gt;linebuffer</title>
<path fill="none" stroke="black" d="M1080.21,-922.56C1064.56,-844.15 1017.06,-591.62 1038,-512.98 1043.37,-492.81 1054.09,-472.47 1064.65,-455.74"/>
<polygon fill="black" stroke="black" points="1067.43,-457.88 1069.98,-447.6 1061.58,-454.05 1067.43,-457.88"/>
</g>
<!-- replacement&#45;&gt;messages -->
<g id="edge72" class="edge">
<title>replacement&#45;&gt;messages</title>
<path fill="none" stroke="black" d="M1068.35,-922.91C1048.57,-894.28 1016.11,-843.3 999,-794.71 942.53,-634.31 938,-587.05 938,-417 938,-417 938,-417 938,-283 938,-123.21 1160.27,-68.52 1293.07,-50.11"/>
<polygon fill="black" stroke="black" points="1293.5,-53.58 1302.95,-48.79 1292.58,-46.64 1293.5,-53.58"/>
</g>
<!-- replacement&#45;&gt;opresult -->
<g id="edge75" class="edge">
<title>replacement&#45;&gt;opresult</title>
<path fill="none" stroke="black" d="M1075.36,-922.6C1063.68,-893.25 1044.29,-841.12 1034,-794.71 1014.24,-705.63 946.4,-463.2 995,-385.98 1083.07,-246.05 1284.55,-190.82 1393.26,-170.61"/>
<polygon fill="black" stroke="black" points="1393.73,-174.08 1402.96,-168.86 1392.49,-167.19 1393.73,-174.08"/>
</g>
<!-- replacement&#45;&gt;parseCmdLine -->
<g id="edge70" class="edge">
<title>replacement&#45;&gt;parseCmdLine</title>
<path fill="none" stroke="black" d="M1118.35,-924C1179.31,-883.78 1308.71,-798.42 1376.5,-753.7"/>
<polygon fill="black" stroke="black" points="1378.36,-756.66 1384.78,-748.24 1374.5,-750.82 1378.36,-756.66"/>
</g>
<!-- replacement&#45;&gt;tempFile -->
<g id="edge74" class="edge">
<title>replacement&#45;&gt;tempFile</title>
<path fill="none" stroke="black" d="M1062.11,-923.3C1034.94,-895.27 989.84,-845.08 962,-794.71 929.89,-736.62 945.64,-711.64 914,-653.29 900.06,-627.59 880.07,-601.75 862.87,-581.66"/>
<polygon fill="black" stroke="black" points="865.65,-579.52 856.44,-574.27 860.37,-584.11 865.65,-579.52"/>
</g>
<!-- replacement&#45;&gt;variables -->
<g id="edge73" class="edge">
<title>replacement&#45;&gt;variables</title>
<path fill="none" stroke="black" d="M1173.26,-938.01C1457.29,-911.99 2332.17,-829.39 2382,-794.71 2439.89,-754.42 2404.7,-703.73 2454,-653.29 2494.06,-612.3 2552.82,-582.97 2596.82,-565.08"/>
<polygon fill="black" stroke="black" points="2597.98,-568.39 2605.98,-561.45 2595.39,-561.88 2597.98,-568.39"/>
</g>
<!-- replacement&#45;&gt;vartypes -->
<g id="edge69" class="edge">
<title>replacement&#45;&gt;vartypes</title>
<path fill="none" stroke="black" d="M1172.9,-937.7C1446.35,-911.54 2266.44,-830.47 2311,-794.71 2349.09,-764.15 2444.81,-446.64 2479.33,-328.75"/>
<polygon fill="black" stroke="black" points="2482.61,-330.01 2482.05,-319.43 2475.89,-328.05 2482.61,-330.01"/>
</g>
<!-- runCommand&#45;&gt;env -->
<g id="edge25" class="edge">
<title>runCommand&#45;&gt;env</title>
<path fill="none" stroke="black" d="M1892.4,-907.25C1582.29,-853.75 1043,-760.71 882.4,-733.01"/>
<polygon fill="black" stroke="black" points="883.01,-729.56 872.56,-731.31 881.82,-736.46 883.01,-729.56"/>
</g>
<!-- runCommand&#45;&gt;functions -->
<g id="edge58" class="edge">
<title>runCommand&#45;&gt;functions</title>
<path fill="none" stroke="black" d="M2103.82,-885.32C2098.5,-860.83 2092.29,-832.22 2086.59,-806"/>
<polygon fill="black" stroke="black" points="2090.05,-805.43 2084.51,-796.4 2083.21,-806.92 2090.05,-805.43"/>
</g>
<!-- runCommand&#45;&gt;linebuffer -->
<g id="edge22" class="edge">
<title>runCommand&#45;&gt;linebuffer</title>
<path fill="none" stroke="black" d="M1899.1,-905.63C1814.93,-882.72 1721.24,-847.66 1647,-794.71 1583.05,-749.1 1607.73,-694.72 1541,-653.29 1375.09,-550.28 1241.35,-716.62 1109,-573.02 1080.82,-542.44 1080.57,-492.81 1084.95,-457.75"/>
<polygon fill="black" stroke="black" points="1088.4,-458.36 1086.37,-447.97 1081.47,-457.36 1088.4,-458.36"/>
</g>
<!-- runCommand&#45;&gt;matches -->
<g id="edge23" class="edge">
<title>runCommand&#45;&gt;matches</title>
<path fill="none" stroke="black" d="M1905.31,-904.19C1837.88,-881.64 1767.91,-847.18 1718,-794.71 1660.26,-734.01 1643.68,-631.84 1638.92,-578.61"/>
<polygon fill="black" stroke="black" points="1642.43,-578.61 1638.15,-568.92 1635.45,-579.16 1642.43,-578.61"/>
</g>
<!-- runCommand&#45;&gt;messages -->
<g id="edge29" class="edge">
<title>runCommand&#45;&gt;messages</title>
<path fill="none" stroke="black" d="M2372.65,-916.88C2659.14,-868.38 3084,-741.72 3084,-417 3084,-417 3084,-417 3084,-283 3084,-120.53 1847.12,-59.02 1487.16,-44.56"/>
<polygon fill="black" stroke="black" points="1487.39,-41.07 1477.26,-44.17 1487.11,-48.06 1487.39,-41.07"/>
</g>
<!-- runCommand&#45;&gt;opresult -->
<g id="edge60" class="edge">
<title>runCommand&#45;&gt;opresult</title>
<path fill="none" stroke="black" d="M1934.23,-898.62C1880.84,-875.84 1827.81,-842.66 1794,-794.71 1729.5,-703.23 1770,-655.94 1770,-544 1770,-544 1770,-544 1770,-415 1770,-288.86 1614.46,-212.71 1525.9,-179.57"/>
<polygon fill="black" stroke="black" points="1527.2,-176.31 1516.6,-176.16 1524.79,-182.89 1527.2,-176.31"/>
</g>
<!-- runCommand&#45;&gt;parseCmdLine -->
<g id="edge63" class="edge">
<title>runCommand&#45;&gt;parseCmdLine</title>
<path fill="none" stroke="black" d="M1930.51,-899.21C1827.38,-871.81 1697.5,-834.76 1584,-794.71 1547.57,-781.85 1507.65,-764.95 1476.32,-751.01"/>
<polygon fill="black" stroke="black" points="1477.98,-747.92 1467.43,-747.02 1475.12,-754.31 1477.98,-747.92"/>
</g>
<!-- runCommand&#45;&gt;readjson -->
<g id="edge59" class="edge">
<title>runCommand&#45;&gt;readjson</title>
<path fill="none" stroke="black" d="M2223.42,-889.41C2257.88,-865.2 2292.07,-833.47 2311,-794.71 2346.09,-722.85 2310.46,-627.11 2286.65,-577.3"/>
<polygon fill="black" stroke="black" points="2289.85,-575.88 2282.3,-568.46 2283.57,-578.98 2289.85,-575.88"/>
</g>
<!-- runCommand&#45;&gt;regexes -->
<g id="edge24" class="edge">
<title>runCommand&#45;&gt;regexes</title>
<path fill="none" stroke="black" d="M1915.37,-902.14C1855.67,-879.56 1795.72,-845.6 1756,-794.71 1678.07,-694.86 1763.56,-629.11 1713,-512.98 1703.68,-491.57 1688.36,-470.86 1673.92,-454.2"/>
<polygon fill="black" stroke="black" points="1676.75,-452.12 1667.48,-446.99 1671.53,-456.78 1676.75,-452.12"/>
</g>
<!-- runCommand&#45;&gt;signatures -->
<g id="edge64" class="edge">
<title>runCommand&#45;&gt;signatures</title>
<path fill="none" stroke="black" d="M2352.4,-910.27C2439.99,-888.08 2535.98,-852.29 2610,-794.71 2668.07,-749.54 2651.35,-711.75 2696,-653.29 2725.82,-614.25 2753.82,-618.66 2772,-573.02 2781.88,-548.23 2784.67,-536.47 2772,-512.98 2753.74,-479.13 2717.76,-455.27 2686.09,-439.8"/>
<polygon fill="black" stroke="black" points="2687.9,-436.78 2677.36,-435.72 2684.93,-443.12 2687.9,-436.78"/>
</g>
<!-- runCommand&#45;&gt;unicodes -->
<g id="edge61" class="edge">
<title>runCommand&#45;&gt;unicodes</title>
<path fill="none" stroke="black" d="M2234.27,-890.24C2271.91,-866.27 2309.62,-834.49 2332,-794.71 2393.5,-685.43 2413.15,-619.5 2347,-512.98 2320.32,-470.01 2268.07,-445.69 2224.51,-432.29"/>
<polygon fill="black" stroke="black" points="2225.68,-428.99 2215.1,-429.54 2223.71,-435.71 2225.68,-428.99"/>
</g>
<!-- runCommand&#45;&gt;utf8decoder -->
<g id="edge62" class="edge">
<title>runCommand&#45;&gt;utf8decoder</title>
<path fill="none" stroke="black" d="M1949.59,-896.13C1901.62,-873.23 1854.82,-840.6 1827,-794.71 1727.79,-631.06 1909.01,-410.07 1991.37,-322.74"/>
<polygon fill="black" stroke="black" points="1993.84,-325.22 1998.21,-315.57 1988.78,-320.39 1993.84,-325.22"/>
</g>
<!-- runCommand&#45;&gt;variables -->
<g id="edge34" class="edge">
<title>runCommand&#45;&gt;variables</title>
<path fill="none" stroke="black" d="M2273.82,-894.84C2334.96,-870.36 2403.33,-837.03 2458,-794.71 2500.36,-761.92 2591.76,-636.36 2634.33,-576.33"/>
<polygon fill="black" stroke="black" points="2637.18,-578.36 2640.09,-568.18 2631.46,-574.32 2637.18,-578.36"/>
</g>
<!-- runCommand&#45;&gt;vartypes -->
<g id="edge28" class="edge">
<title>runCommand&#45;&gt;vartypes</title>
<path fill="none" stroke="black" d="M2319.65,-902.32C2391.58,-879.31 2469.4,-845.04 2529,-794.71 2584.34,-747.98 2559.72,-705.43 2610,-653.29 2656.87,-604.68 2706.21,-632.05 2739,-573.02 2751.96,-549.69 2754.62,-534.61 2739,-512.98 2683.63,-436.3 2602.27,-514.47 2537,-446.02 2507.09,-414.65 2496.76,-365.09 2493.35,-329.23"/>
<polygon fill="black" stroke="black" points="2496.86,-329.31 2492.59,-319.62 2489.89,-329.86 2496.86,-329.31"/>
</g>
<!-- runner -->
<g id="node21" class="node">
<title>runner</title>
<g id="a_node21"><a xlink:href="html/runner.html" xlink:title="runner.md" target="_parent">
<polygon fill="palegreen" stroke="black" points="1077.37,-1380.69 1077.37,-1411.31 1027.95,-1432.95 958.05,-1432.95 908.63,-1411.31 908.63,-1380.69 958.05,-1359.05 1027.95,-1359.05 1077.37,-1380.69"/>
<polygon fill="none" stroke="black" points="1081.38,-1378.06 1081.38,-1413.94 1028.78,-1436.98 957.22,-1436.98 904.62,-1413.94 904.62,-1378.06 957.22,-1355.02 1028.78,-1355.02 1081.38,-1378.06"/>
<text text-anchor="middle" x="993" y="-1387.2" font-family="Times,serif" font-size="36.00">runner</text>
</a>
</g>
</g>
<!-- signatures&#45;&gt;messages -->
<g id="edge46" class="edge">
<title>signatures&#45;&gt;messages</title>
<path fill="none" stroke="black" d="M2627.85,-391.57C2629.36,-357.53 2627.66,-293.72 2599,-250.06 2547.1,-170.98 2509.44,-165.72 2420,-134.96 2248.93,-76.13 1709.05,-51.7 1486.92,-43.96"/>
<polygon fill="black" stroke="black" points="1487.25,-40.47 1477.14,-43.63 1487.01,-47.47 1487.25,-40.47"/>
</g>
<!-- signatures&#45;&gt;vartypes -->
<g id="edge45" class="edge">
<title>signatures&#45;&gt;vartypes</title>
<path fill="none" stroke="black" d="M2602.96,-392.65C2583.64,-373.9 2555.57,-346.67 2532.5,-324.29"/>
<polygon fill="black" stroke="black" points="2534.96,-321.8 2525.34,-317.35 2530.08,-326.82 2534.96,-321.8"/>
</g>
<!-- startingvars&#45;&gt;args -->
<g id="edge78" class="edge">
<title>startingvars&#45;&gt;args</title>
<path fill="none" stroke="black" d="M1653.75,-1103.5C1424.41,-1093.76 827.61,-1063.36 758,-1008.52 741.58,-995.58 646.06,-670.36 634,-653.29 607.99,-616.45 566.23,-585.5 535.84,-566.04"/>
<polygon fill="black" stroke="black" points="538.02,-563.28 527.69,-560.94 534.31,-569.21 538.02,-563.28"/>
</g>
<!-- startingvars&#45;&gt;env -->
<g id="edge80" class="edge">
<title>startingvars&#45;&gt;env</title>
<path fill="none" stroke="black" d="M1652.41,-1106.86C1473.26,-1104.78 1082.26,-1090.66 981,-1008.52 936.01,-972.02 963.92,-937.28 938,-885.48 916.25,-842.01 902.89,-835.85 877,-794.71 869.23,-782.36 861.01,-768.55 853.99,-756.51"/>
<polygon fill="black" stroke="black" points="857.21,-755.08 849.17,-748.18 851.15,-758.59 857.21,-755.08"/>
</g>
<!-- startingvars&#45;&gt;functions -->
<g id="edge86" class="edge">
<title>startingvars&#45;&gt;functions</title>
<path fill="none" stroke="black" d="M1745.49,-1083.55C1751.13,-1040.26 1768.34,-946.65 1816,-885.48 1846.4,-846.47 1889.13,-814.29 1930.82,-789.26"/>
<polygon fill="black" stroke="black" points="1932.4,-792.4 1939.24,-784.31 1928.85,-786.36 1932.4,-792.4"/>
</g>
<!-- startingvars&#45;&gt;messages -->
<g id="edge79" class="edge">
<title>startingvars&#45;&gt;messages</title>
<path fill="none" stroke="black" d="M1652.81,-1105.35C1467.8,-1100.48 1052.72,-1081.51 934,-1008.52 739.8,-889.13 743.09,-786.46 663,-573.02 593.78,-388.56 557.27,-227.9 731,-134.96 826.35,-83.95 1134.43,-57.31 1293.29,-46.67"/>
<polygon fill="black" stroke="black" points="1293.21,-50.18 1302.95,-46.03 1292.75,-43.2 1293.21,-50.18"/>
</g>
<!-- startingvars&#45;&gt;opresult -->
<g id="edge84" class="edge">
<title>startingvars&#45;&gt;opresult</title>
<path fill="none" stroke="black" d="M1689.26,-1088.31C1590.44,-1050.67 1382.38,-955.3 1299,-794.71 1270.04,-738.93 1276.53,-711.99 1299,-653.29 1316.13,-608.53 1348.93,-615.56 1371,-573.02 1405.71,-506.12 1445.7,-281.8 1460.3,-194.85"/>
<polygon fill="black" stroke="black" points="1463.74,-195.45 1461.94,-185.01 1456.84,-194.3 1463.74,-195.45"/>
</g>
<!-- startingvars&#45;&gt;readjson -->
<g id="edge83" class="edge">
<title>startingvars&#45;&gt;readjson</title>
<path fill="none" stroke="black" d="M1829.6,-1100.62C2003.1,-1086.95 2379.97,-1052.5 2418,-1008.52 2532.38,-876.24 2365.33,-655.16 2296.41,-574.57"/>
<polygon fill="black" stroke="black" points="2299.47,-572.76 2290.28,-567.48 2294.17,-577.33 2299.47,-572.76"/>
</g>
<!-- startingvars&#45;&gt;runCommand -->
<g id="edge85" class="edge">
<title>startingvars&#45;&gt;runCommand</title>
<path fill="none" stroke="black" d="M1789.99,-1087.02C1837.01,-1067.03 1911.67,-1035.29 1977.79,-1007.18"/>
<polygon fill="black" stroke="black" points="1979.09,-1010.43 1986.92,-1003.3 1976.35,-1003.99 1979.09,-1010.43"/>
</g>
<!-- startingvars&#45;&gt;variables -->
<g id="edge81" class="edge">
<title>startingvars&#45;&gt;variables</title>
<path fill="none" stroke="black" d="M1828.68,-1099.76C2006.24,-1084.09 2402,-1045.44 2451,-1008.52 2595.65,-899.51 2640.78,-666.57 2652.98,-578.6"/>
<polygon fill="black" stroke="black" points="2656.42,-579.29 2654.26,-568.91 2649.48,-578.37 2656.42,-579.29"/>
</g>
<!-- startingvars&#45;&gt;vartypes -->
<g id="edge82" class="edge">
<title>startingvars&#45;&gt;vartypes</title>
<path fill="none" stroke="black" d="M1806.8,-1090.52C1817.5,-1088.09 1828.53,-1085.79 1839,-1083.96 1987.89,-1057.89 2386.88,-1088.73 2515,-1008.52 2728.49,-874.86 2856.39,-755.95 2790,-512.98 2772.72,-449.74 2763.79,-429.75 2715,-385.98 2675.83,-350.83 2622.38,-326.06 2577.63,-309.85"/>
<polygon fill="black" stroke="black" points="2579.07,-306.65 2568.47,-306.62 2576.74,-313.25 2579.07,-306.65"/>
</g>
<!-- statictea -->
<g id="node24" class="node">
<title>statictea</title>
<g id="a_node24"><a xlink:href="html/statictea.html" xlink:title="statictea.md" target="_parent">
<polygon fill="palegoldenrod" stroke="black" points="468,-1457 295,-1396 468,-1335 641,-1396 468,-1457"/>
<text text-anchor="middle" x="468" y="-1384.1" font-family="Times,serif" font-size="48.00">statictea</text>
</a>
</g>
</g>
<!-- statictea&#45;&gt;args -->
<g id="edge102" class="edge">
<title>statictea&#45;&gt;args</title>
<path fill="none" stroke="black" d="M468.61,-1334.87C470.12,-1208.54 475.01,-906.36 489,-653.29 490.38,-628.27 492.72,-600.09 494.67,-578.61"/>
<polygon fill="black" stroke="black" points="498.13,-579.21 495.56,-568.93 491.16,-578.57 498.13,-579.21"/>
</g>
<!-- statictea&#45;&gt;env -->
<g id="edge106" class="edge">
<title>statictea&#45;&gt;env</title>
<path fill="none" stroke="black" d="M472.82,-1336.4C477.67,-1295.99 487.26,-1241.69 506,-1196.98 584.57,-1009.51 746.47,-822.13 809.8,-752.93"/>
<polygon fill="black" stroke="black" points="812.14,-755.55 816.34,-745.82 806.99,-750.81 812.14,-755.55"/>
</g>
<!-- statictea&#45;&gt;gethelp -->
<g id="edge104" class="edge">
<title>statictea&#45;&gt;gethelp</title>
<path fill="none" stroke="black" d="M416.77,-1352.64C383,-1324.73 339.35,-1288.64 307.71,-1262.49"/>
<polygon fill="black" stroke="black" points="310.23,-1260.03 300.29,-1256.35 305.77,-1265.42 310.23,-1260.03"/>
</g>
<!-- statictea&#45;&gt;messages -->
<g id="edge103" class="edge">
<title>statictea&#45;&gt;messages</title>
<path fill="none" stroke="black" d="M350.81,-1375.93C212.18,-1345.9 0,-1273.14 0,-1109 0,-1109 0,-1109 0,-283 0,-171.69 97.66,-173.72 202,-134.96 401.39,-60.89 1046.85,-45.19 1293.21,-41.88"/>
<polygon fill="black" stroke="black" points="1293.17,-45.38 1303.13,-41.75 1293.08,-38.38 1293.17,-45.38"/>
</g>
<!-- statictea&#45;&gt;opresult -->
<g id="edge107" class="edge">
<title>statictea&#45;&gt;opresult</title>
<path fill="none" stroke="black" d="M456.48,-1338.6C429.74,-1196.97 371.44,-816.05 449,-512.98 482.03,-383.91 482.02,-323.77 593,-250.06 658.64,-206.46 1188.21,-174.52 1389.1,-163.86"/>
<polygon fill="black" stroke="black" points="1389.11,-167.37 1398.91,-163.35 1388.74,-160.38 1389.11,-167.37"/>
</g>
<!-- statictea&#45;&gt;parseCommandLine -->
<g id="edge9" class="edge">
<title>statictea&#45;&gt;parseCommandLine</title>
<path fill="none" stroke="black" d="M361.49,-1372.2C298.93,-1352.79 224.75,-1317.97 186,-1257.02 83.79,-1096.27 140.4,-849.29 166.29,-759.3"/>
<polygon fill="black" stroke="black" points="169.61,-760.43 169.07,-749.85 162.89,-758.45 169.61,-760.43"/>
</g>
<!-- statictea&#45;&gt;processTemplate -->
<g id="edge89" class="edge">
<title>statictea&#45;&gt;processTemplate</title>
<path fill="none" stroke="black" d="M513.38,-1350.69C543.02,-1321.74 580.98,-1284.66 607.38,-1258.88"/>
<polygon fill="black" stroke="black" points="609.73,-1261.48 614.43,-1251.99 604.83,-1256.47 609.73,-1261.48"/>
</g>
<!-- statictea&#45;&gt;repl -->
<g id="edge120" class="edge">
<title>statictea&#45;&gt;repl</title>
<path fill="none" stroke="black" d="M551.89,-1364.14C582.46,-1353.75 617.49,-1342.83 650,-1335 886.14,-1278.15 1175.38,-1244.68 1289.42,-1232.87"/>
<polygon fill="black" stroke="black" points="1289.76,-1236.35 1299.35,-1231.85 1289.05,-1229.39 1289.76,-1236.35"/>
</g>
<!-- timer -->
<g id="node26" class="node">
<title>timer</title>
<g id="a_node26"><a xlink:href="html/timer.html" xlink:title="timer.md" target="_parent">
<polygon fill="palegreen" stroke="black" points="1503.09,-1216.21 1503.09,-1237.79 1472.58,-1253.04 1429.42,-1253.04 1398.91,-1237.79 1398.91,-1216.21 1429.42,-1200.96 1472.58,-1200.96 1503.09,-1216.21"/>
<polygon fill="none" stroke="black" points="1507.09,-1213.74 1507.09,-1240.26 1473.52,-1257.04 1428.48,-1257.04 1394.91,-1240.26 1394.91,-1213.74 1428.48,-1196.96 1473.52,-1196.96 1507.09,-1213.74"/>
<text text-anchor="middle" x="1451" y="-1220.8" font-family="Times,serif" font-size="24.00">timer</text>
</a>
</g>
</g>
<!-- statictea&#45;&gt;timer -->
<g id="edge121" class="edge">
<title>statictea&#45;&gt;timer</title>
<path fill="none" stroke="black" d="M550.33,-1363.74C581.19,-1353.12 616.82,-1342.14 650,-1335 971.58,-1265.78 1068.35,-1342.46 1386,-1257.02 1390.56,-1255.79 1395.22,-1254.29 1399.83,-1252.61"/>
<polygon fill="black" stroke="black" points="1401.01,-1255.9 1409.04,-1248.99 1398.46,-1249.39 1401.01,-1255.9"/>
</g>
<!-- updateTemplate -->
<g id="node28" class="node">
<title>updateTemplate</title>
<g id="a_node28"><a xlink:href="html/updateTemplate.html" xlink:title="updateTemplate.md" target="_parent">
<ellipse fill="palegoldenrod" stroke="black" cx="1994" cy="-1227" rx="119.5" ry="24.08"/>
<text text-anchor="middle" x="1994" y="-1220.8" font-family="Times,serif" font-size="24.00">updateTemplate</text>
</a>
</g>
</g>
<!-- statictea&#45;&gt;updateTemplate -->
<g id="edge101" class="edge">
<title>statictea&#45;&gt;updateTemplate</title>
<path fill="none" stroke="black" d="M549.78,-1363.42C580.73,-1352.7 616.57,-1341.74 650,-1335 767.72,-1311.27 1560.35,-1256.83 1870.2,-1236.16"/>
<polygon fill="black" stroke="black" points="1870.21,-1239.67 1879.96,-1235.51 1869.75,-1232.68 1870.21,-1239.67"/>
</g>
<!-- version -->
<g id="node32" class="node">
<title>version</title>
<g id="a_node32"><a xlink:href="html/version.html" xlink:title="version.md" target="_parent">
<polygon fill="palegreen" stroke="black" points="2975.67,-405.21 2975.67,-426.79 2936.62,-442.04 2881.38,-442.04 2842.33,-426.79 2842.33,-405.21 2881.38,-389.96 2936.62,-389.96 2975.67,-405.21"/>
<polygon fill="none" stroke="black" points="2979.67,-402.48 2979.67,-429.52 2937.37,-446.04 2880.63,-446.04 2838.33,-429.52 2838.33,-402.48 2880.63,-385.96 2937.37,-385.96 2979.67,-402.48"/>
<text text-anchor="middle" x="2909" y="-409.8" font-family="Times,serif" font-size="24.00">version</text>
</a>
</g>
</g>
<!-- statictea&#45;&gt;version -->
<g id="edge105" class="edge">
<title>statictea&#45;&gt;version</title>
<path fill="none" stroke="black" d="M548.78,-1363.26C579.93,-1352.38 616.16,-1341.36 650,-1335 1156.24,-1239.91 2562.43,-1460.75 2959,-1132.04 3163.11,-962.86 2992.88,-580.06 2929.99,-456.36"/>
<polygon fill="black" stroke="black" points="2933.16,-454.85 2925.47,-447.56 2926.93,-458.05 2933.16,-454.85"/>
</g>
<!-- unicodes&#45;&gt;messages -->
<g id="edge41" class="edge">
<title>unicodes&#45;&gt;messages</title>
<path fill="none" stroke="black" d="M2164.14,-391.75C2178.94,-357.07 2199.76,-291.47 2168,-250.06 2084.97,-141.77 1676.47,-77.1 1486.93,-52.47"/>
<polygon fill="black" stroke="black" points="1487.46,-49.01 1477.09,-51.2 1486.57,-55.95 1487.46,-49.01"/>
</g>
<!-- unicodes&#45;&gt;opresult -->
<g id="edge40" class="edge">
<title>unicodes&#45;&gt;opresult</title>
<path fill="none" stroke="black" d="M2159.58,-391.77C2168.09,-356.21 2177.89,-288.4 2142,-250.06 2101.51,-206.81 1711.11,-176.14 1542.7,-164.81"/>
<polygon fill="black" stroke="black" points="1543.17,-161.34 1532.96,-164.16 1542.71,-168.32 1543.17,-161.34"/>
</g>
<!-- unicodes&#45;&gt;utf8decoder -->
<g id="edge42" class="edge">
<title>unicodes&#45;&gt;utf8decoder</title>
<path fill="none" stroke="black" d="M2131.68,-392.65C2113.31,-373.38 2086.39,-345.17 2064.72,-322.45"/>
<polygon fill="black" stroke="black" points="2067.49,-320.28 2058.05,-315.46 2062.42,-325.11 2067.49,-320.28"/>
</g>
<!-- unicodes&#45;&gt;vartypes -->
<g id="edge43" class="edge">
<title>unicodes&#45;&gt;vartypes</title>
<path fill="none" stroke="black" d="M2199.07,-397.33C2255.09,-375.85 2350.4,-339.3 2417.04,-313.75"/>
<polygon fill="black" stroke="black" points="2417.98,-317.13 2426.06,-310.28 2415.47,-310.6 2417.98,-317.13"/>
</g>
<!-- updateTemplate&#45;&gt;args -->
<g id="edge90" class="edge">
<title>updateTemplate&#45;&gt;args</title>
<path fill="none" stroke="black" d="M1877.15,-1221.48C1704.5,-1213.08 1371.8,-1190.26 1095,-1132.04 919.15,-1095.06 844.17,-1128.07 710,-1008.52 677.65,-979.69 567.11,-692.66 549,-653.29 537.17,-627.58 523.62,-598.55 513.46,-576.88"/>
<polygon fill="black" stroke="black" points="516.68,-575.51 509.27,-567.94 510.34,-578.48 516.68,-575.51"/>
</g>
<!-- updateTemplate&#45;&gt;env -->
<g id="edge92" class="edge">
<title>updateTemplate&#45;&gt;env</title>
<path fill="none" stroke="black" d="M1883.12,-1217.73C1640.58,-1197.41 1073.76,-1137.04 938,-1008.52 933.24,-1004.01 873.25,-832.31 847.56,-758.35"/>
<polygon fill="black" stroke="black" points="850.96,-757.49 844.38,-749.19 844.35,-759.79 850.96,-757.49"/>
</g>
<!-- updateTemplate&#45;&gt;linebuffer -->
<g id="edge93" class="edge">
<title>updateTemplate&#45;&gt;linebuffer</title>
<path fill="none" stroke="black" d="M1899.51,-1212C1826.49,-1198.56 1724.47,-1173.97 1643,-1132.04 1329.74,-970.85 1201.05,-904.24 1081,-573.02 1067.38,-535.44 1073.38,-489.51 1080.95,-457.25"/>
<polygon fill="black" stroke="black" points="1084.25,-458.46 1083.29,-447.91 1077.46,-456.76 1084.25,-458.46"/>
</g>
<!-- updateTemplate&#45;&gt;messages -->
<g id="edge91" class="edge">
<title>updateTemplate&#45;&gt;messages</title>
<path fill="none" stroke="black" d="M2110.84,-1221.5C2365.93,-1210.8 2956.01,-1181.04 3032,-1132.04 3191.38,-1029.27 3160,-914.64 3160,-725 3160,-725 3160,-725 3160,-283 3160,-230.43 3346.07,-254.67 2788,-134.96 2538.87,-81.52 1761.3,-52.62 1486.99,-43.88"/>
<polygon fill="black" stroke="black" points="1487.11,-40.39 1477,-43.57 1486.88,-47.38 1487.11,-40.39"/>
</g>
<!-- updateTemplate&#45;&gt;opresult -->
<g id="edge100" class="edge">
<title>updateTemplate&#45;&gt;opresult</title>
<path fill="none" stroke="black" d="M2110.51,-1221.48C2359.44,-1210.91 2926.41,-1181.65 2998,-1132.04 3134.6,-1037.38 3154.29,-515.38 3050,-385.98 2918.63,-222.97 2804.74,-288.78 2599,-250.06 2207.68,-176.42 1729.28,-162.91 1544.24,-160.5"/>
<polygon fill="black" stroke="black" points="1544.3,-157 1534.26,-160.38 1544.21,-164 1544.3,-157"/>
</g>
<!-- updateTemplate&#45;&gt;parseCmdLine -->
<g id="edge94" class="edge">
<title>updateTemplate&#45;&gt;parseCmdLine</title>
<path fill="none" stroke="black" d="M1970.29,-1202.98C1940.85,-1174.57 1888.89,-1124.97 1843,-1083.96 1702.56,-958.46 1529.85,-815.24 1456.13,-754.6"/>
<polygon fill="black" stroke="black" points="1458.75,-752.23 1448.8,-748.58 1454.31,-757.63 1458.75,-752.23"/>
</g>
<!-- updateTemplate&#45;&gt;replacement -->
<g id="edge98" class="edge">
<title>updateTemplate&#45;&gt;replacement</title>
<path fill="none" stroke="black" d="M1894.18,-1213.47C1792.02,-1199.22 1629.37,-1172.53 1493,-1132.04 1355.16,-1091.12 1323.51,-1070.97 1194,-1008.52 1173.01,-998.4 1150.4,-986.09 1131.24,-975.22"/>
<polygon fill="black" stroke="black" points="1133.01,-972.2 1122.59,-970.27 1129.53,-978.27 1133.01,-972.2"/>
</g>
<!-- updateTemplate&#45;&gt;runCommand -->
<g id="edge95" class="edge">
<title>updateTemplate&#45;&gt;runCommand</title>
<path fill="none" stroke="black" d="M2064.95,-1207.27C2102.93,-1193.23 2146.43,-1169.77 2169,-1132.04 2189.72,-1097.4 2179.03,-1054.16 2162.1,-1018.29"/>
<polygon fill="black" stroke="black" points="2165.43,-1017.14 2157.85,-1009.74 2159.16,-1020.25 2165.43,-1017.14"/>
</g>
<!-- updateTemplate&#45;&gt;startingvars -->
<g id="edge99" class="edge">
<title>updateTemplate&#45;&gt;startingvars</title>
<path fill="none" stroke="black" d="M1947.67,-1204.4C1905.18,-1184.6 1842.23,-1155.25 1797.38,-1134.35"/>
<polygon fill="black" stroke="black" points="1798.87,-1131.18 1788.33,-1130.13 1795.91,-1137.53 1798.87,-1131.18"/>
</g>
<!-- updateTemplate&#45;&gt;variables -->
<g id="edge96" class="edge">
<title>updateTemplate&#45;&gt;variables</title>
<path fill="none" stroke="black" d="M2111.56,-1222.53C2346.39,-1214.38 2855.57,-1190.14 2908,-1132.04 2948.57,-1087.09 3148.45,-1122.25 2832,-653.29 2804.19,-612.08 2755.11,-583.44 2715.99,-565.84"/>
<polygon fill="black" stroke="black" points="2717.45,-562.66 2706.89,-561.88 2714.66,-569.08 2717.45,-562.66"/>
</g>
<!-- updateTemplate&#45;&gt;vartypes -->
<g id="edge97" class="edge">
<title>updateTemplate&#45;&gt;vartypes</title>
<path fill="none" stroke="black" d="M2110.12,-1221.08C2351.54,-1209.94 2890.9,-1179.96 2959,-1132.04 3032.99,-1079.98 3046,-1038.48 3046,-948 3046,-948 3046,-948 3046,-542 3046,-471.84 3070.72,-436.46 3022,-385.98 3014.47,-378.18 2740.7,-328.86 2589.67,-302.14"/>
<polygon fill="black" stroke="black" points="2590.51,-298.74 2580.05,-300.45 2589.29,-305.63 2590.51,-298.74"/>
</g>
<!-- variables&#45;&gt;messages -->
<g id="edge32" class="edge">
<title>variables&#45;&gt;messages</title>
<path fill="none" stroke="black" d="M2617.16,-522.57C2580.8,-504.31 2526.01,-475.44 2481,-446.02 2291.9,-322.43 2287.34,-222.32 2079,-134.96 1974.11,-90.98 1650.38,-60.84 1486.76,-47.99"/>
<polygon fill="black" stroke="black" points="1487.5,-44.54 1477.25,-47.25 1486.95,-51.52 1487.5,-44.54"/>
</g>
<!-- variables&#45;&gt;opresult -->
<g id="edge33" class="edge">
<title>variables&#45;&gt;opresult</title>
<path fill="none" stroke="black" d="M2592.53,-531.62C2527.86,-519.03 2427.33,-493.34 2352,-446.02 2250.83,-382.47 2274.39,-304.4 2168,-250.06 2060.14,-194.96 1702.09,-171.32 1543.15,-163.36"/>
<polygon fill="black" stroke="black" points="1543.73,-159.88 1533.57,-162.88 1543.39,-166.87 1543.73,-159.88"/>
</g>
<!-- variables&#45;&gt;vartypes -->
<g id="edge30" class="edge">
<title>variables&#45;&gt;vartypes</title>
<path fill="none" stroke="black" d="M2607.79,-525.01C2572.49,-510.05 2527.23,-484.56 2504,-446.02 2482.87,-410.97 2481.94,-363.53 2485.04,-329.23"/>
<polygon fill="black" stroke="black" points="2488.48,-329.96 2486.06,-319.64 2481.52,-329.21 2488.48,-329.96"/>
</g>
<!-- variables&#45;&gt;version -->
<g id="edge31" class="edge">
<title>variables&#45;&gt;version</title>
<path fill="none" stroke="black" d="M2696.38,-522.47C2738.55,-501.55 2805.81,-468.19 2853.38,-444.59"/>
<polygon fill="black" stroke="black" points="2854.75,-447.82 2862.15,-440.24 2851.64,-441.55 2854.75,-447.82"/>
</g>
<!-- vartypes&#45;&gt;messages -->
<g id="edge26" class="edge">
<title>vartypes&#45;&gt;messages</title>
<path fill="none" stroke="black" d="M2477.37,-250.32C2459.74,-215.2 2426.58,-160.94 2380,-134.96 2228.64,-50.52 1705.72,-40.73 1487.18,-40.44"/>
<polygon fill="black" stroke="black" points="1487.26,-36.94 1477.26,-40.44 1487.26,-43.94 1487.26,-36.94"/>
</g>
<!-- vartypes&#45;&gt;opresult -->
<g id="edge27" class="edge">
<title>vartypes&#45;&gt;opresult</title>
<path fill="none" stroke="black" d="M2407.03,-266.88C2374.83,-261.09 2337.8,-254.83 2304,-250.06 2023.88,-210.51 1688.9,-179.33 1541.69,-166.44"/>
<polygon fill="black" stroke="black" points="1542.35,-162.98 1532.08,-165.6 1541.74,-169.95 1542.35,-162.98"/>
</g>
</g>
</svg>
