<?xml version="1.0" encoding="UTF-8" standalone="no"?>
<!DOCTYPE svg PUBLIC "-//W3C//DTD SVG 1.1//EN"
 "http://www.w3.org/Graphics/SVG/1.1/DTD/svg11.dtd">
<!-- Generated by graphviz version 2.40.1 (20161225.0304)
 -->
<!-- Title: statictea Pages: 1 -->
<svg width="720pt" height="334pt"
 viewBox="0.00 0.00 720.00 334.26" xmlns="http://www.w3.org/2000/svg" xmlns:xlink="http://www.w3.org/1999/xlink">
<g id="graph0" class="graph" transform="scale(.2898 .2898) rotate(0) translate(4 1149.3655)">
<title>statictea</title>
<polygon fill="#ffffff" stroke="transparent" points="-4,4 -4,-1149.3655 2480.3835,-1149.3655 2480.3835,4 -4,4"/>
<!-- runFunction -->
<g id="node1" class="node">
<title>runFunction</title>
<g id="a_node1"><a xlink:href="runFunction.md" xlink:title="runFunction.md">
<ellipse fill="#eee8aa" stroke="#000000" cx="528" cy="-759" rx="94.055" ry="22.7556"/>
<text text-anchor="middle" x="528" y="-751.8" font-family="Times,serif" font-size="24.00" fill="#000000">runFunction</text>
</a>
</g>
</g>
<!-- parseNumber -->
<g id="node3" class="node">
<title>parseNumber</title>
<g id="a_node3"><a xlink:href="parseNumber.md" xlink:title="parseNumber.md">
<polygon fill="#98fb98" stroke="#000000" points="964.3805,-632.8581 964.3805,-653.1419 899.1353,-667.4846 806.8647,-667.4846 741.6195,-653.1419 741.6195,-632.8581 806.8647,-618.5154 899.1353,-618.5154 964.3805,-632.8581"/>
<polygon fill="none" stroke="#000000" points="968.3872,-629.6442 968.3872,-656.3558 899.5714,-671.4835 806.4286,-671.4835 737.6128,-656.3558 737.6128,-629.6442 806.4286,-614.5165 899.5714,-614.5165 968.3872,-629.6442"/>
<text text-anchor="middle" x="853" y="-635.8" font-family="Times,serif" font-size="24.00" fill="#000000">parseNumber</text>
</a>
</g>
</g>
<!-- runFunction&#45;&gt;parseNumber -->
<g id="edge56" class="edge">
<title>runFunction&#45;&gt;parseNumber</title>
<path fill="none" stroke="#000000" d="M580.9402,-740.1044C633.9532,-721.1828 716.0855,-691.868 776.245,-670.3956"/>
<polygon fill="#000000" stroke="#000000" points="777.4622,-673.6775 785.7037,-667.0196 775.1091,-667.0849 777.4622,-673.6775"/>
</g>
<!-- regexes -->
<g id="node4" class="node">
<title>regexes</title>
<g id="a_node4"><a xlink:href="regexes.md" xlink:title="regexes.md">
<polygon fill="#98fb98" stroke="#000000" points="1305.187,-399.8581 1305.187,-420.1419 1265.244,-434.4846 1208.756,-434.4846 1168.813,-420.1419 1168.813,-399.8581 1208.756,-385.5154 1265.244,-385.5154 1305.187,-399.8581"/>
<polygon fill="none" stroke="#000000" points="1309.1781,-397.0434 1309.1781,-422.9566 1265.9376,-438.4835 1208.0624,-438.4835 1164.8219,-422.9566 1164.8219,-397.0434 1208.0624,-381.5165 1265.9376,-381.5165 1309.1781,-397.0434"/>
<text text-anchor="middle" x="1237" y="-402.8" font-family="Times,serif" font-size="24.00" fill="#000000">regexes</text>
</a>
</g>
</g>
<!-- runFunction&#45;&gt;regexes -->
<g id="edge55" class="edge">
<title>runFunction&#45;&gt;regexes</title>
<path fill="none" stroke="#000000" d="M537.7748,-736.2272C552.8729,-703.8944 585.007,-645.2081 631,-614.5083 739.8516,-541.851 802.576,-610.3126 918,-548.6274 943.8588,-534.8079 940.9109,-518.5447 966,-503.3726 1026.4565,-466.8128 1103.2077,-442.0857 1159.5851,-427.3115"/>
<polygon fill="#000000" stroke="#000000" points="1160.6992,-430.6389 1169.5117,-424.7575 1158.955,-423.8597 1160.6992,-430.6389"/>
</g>
<!-- unicodes -->
<g id="node8" class="node">
<title>unicodes</title>
<g id="a_node8"><a xlink:href="unicodes.md" xlink:title="unicodes.md">
<ellipse fill="#eee8aa" stroke="#000000" cx="840" cy="-410" rx="71.7778" ry="22.7556"/>
<text text-anchor="middle" x="840" y="-402.8" font-family="Times,serif" font-size="24.00" fill="#000000">unicodes</text>
</a>
</g>
</g>
<!-- runFunction&#45;&gt;unicodes -->
<g id="edge67" class="edge">
<title>runFunction&#45;&gt;unicodes</title>
<path fill="none" stroke="#000000" d="M524.9916,-736.1472C522.1953,-706.0274 521.3584,-652.4312 544,-614.5083 599.3516,-521.7985 714.9216,-461.0434 784.1429,-431.3615"/>
<polygon fill="#000000" stroke="#000000" points="785.7358,-434.4884 793.5916,-427.3794 783.0172,-428.0378 785.7358,-434.4884"/>
</g>
<!-- vartypes -->
<g id="node11" class="node">
<title>vartypes</title>
<g id="a_node11"><a xlink:href="vartypes.md" xlink:title="vartypes.md">
<ellipse fill="#eee8aa" stroke="#000000" cx="444" cy="-286" rx="68.6102" ry="22.7556"/>
<text text-anchor="middle" x="444" y="-278.8" font-family="Times,serif" font-size="24.00" fill="#000000">vartypes</text>
</a>
</g>
</g>
<!-- runFunction&#45;&gt;vartypes -->
<g id="edge54" class="edge">
<title>runFunction&#45;&gt;vartypes</title>
<path fill="none" stroke="#000000" d="M523.9485,-736.1862C510.2829,-659.2357 465.8468,-409.0182 449.8256,-318.8038"/>
<polygon fill="#000000" stroke="#000000" points="453.2546,-318.0951 448.0599,-308.8612 446.3625,-319.3191 453.2546,-318.0951"/>
</g>
<!-- funtypes -->
<g id="node15" class="node">
<title>funtypes</title>
<g id="a_node15"><a xlink:href="funtypes.md" xlink:title="funtypes.md">
<ellipse fill="#eee8aa" stroke="#000000" cx="346" cy="-526" rx="69.5163" ry="22.7556"/>
<text text-anchor="middle" x="346" y="-518.8" font-family="Times,serif" font-size="24.00" fill="#000000">funtypes</text>
</a>
</g>
</g>
<!-- runFunction&#45;&gt;funtypes -->
<g id="edge72" class="edge">
<title>runFunction&#45;&gt;funtypes</title>
<path fill="none" stroke="#000000" d="M510.5491,-736.659C477.7318,-694.6457 406.7977,-603.8344 369.699,-556.3399"/>
<polygon fill="#000000" stroke="#000000" points="372.3122,-553.9996 363.3981,-548.2734 366.7956,-558.3087 372.3122,-553.9996"/>
</g>
<!-- warnings -->
<g id="node17" class="node">
<title>warnings</title>
<g id="a_node17"><a xlink:href="warnings.md" xlink:title="warnings.md">
<ellipse fill="#eee8aa" stroke="#000000" cx="528" cy="-162" rx="73.5561" ry="22.7556"/>
<text text-anchor="middle" x="528" y="-154.8" font-family="Times,serif" font-size="24.00" fill="#000000">warnings</text>
</a>
</g>
</g>
<!-- runFunction&#45;&gt;warnings -->
<g id="edge53" class="edge">
<title>runFunction&#45;&gt;warnings</title>
<path fill="none" stroke="#000000" d="M441.33,-749.9324C346.6407,-738.0276 203.987,-713.5411 171,-671.4917 80.6456,-556.3148 326.0511,-268.7838 338,-257.5083 374.9148,-222.6736 426.9765,-197.7089 467.2705,-182.0595"/>
<polygon fill="#000000" stroke="#000000" points="468.612,-185.2941 476.7207,-178.475 466.1294,-178.7491 468.612,-185.2941"/>
</g>
<!-- signatures -->
<g id="node21" class="node">
<title>signatures</title>
<g id="a_node21"><a xlink:href="signatures.md" xlink:title="signatures.md">
<ellipse fill="#eee8aa" stroke="#000000" cx="260" cy="-643" rx="80.2483" ry="22.7556"/>
<text text-anchor="middle" x="260" y="-635.8" font-family="Times,serif" font-size="24.00" fill="#000000">signatures</text>
</a>
</g>
</g>
<!-- runFunction&#45;&gt;signatures -->
<g id="edge71" class="edge">
<title>runFunction&#45;&gt;signatures</title>
<path fill="none" stroke="#000000" d="M482.2337,-739.1907C435.324,-718.8865 362.4445,-687.3416 313.0446,-665.9596"/>
<polygon fill="#000000" stroke="#000000" points="314.3666,-662.718 303.799,-661.9578 311.586,-669.1421 314.3666,-662.718"/>
</g>
<!-- opresultwarn -->
<g id="node23" class="node">
<title>opresultwarn</title>
<g id="a_node23"><a xlink:href="opresultwarn.md" xlink:title="opresultwarn.md">
<ellipse fill="#eee8aa" stroke="#000000" cx="971" cy="-286" rx="99.824" ry="22.7556"/>
<text text-anchor="middle" x="971" y="-278.8" font-family="Times,serif" font-size="24.00" fill="#000000">opresultwarn</text>
</a>
</g>
</g>
<!-- runFunction&#45;&gt;opresultwarn -->
<g id="edge73" class="edge">
<title>runFunction&#45;&gt;opresultwarn</title>
<path fill="none" stroke="#000000" d="M532.0357,-736.1918C538.9359,-699.7903 554.0128,-630.9761 572,-614.5083 676.8527,-518.5127 772.7995,-635.9217 885,-548.6274 906.5137,-531.8893 930.1323,-464.2671 939,-438.4917 952.8364,-398.2741 961.7475,-349.9372 966.5641,-318.6243"/>
<polygon fill="#000000" stroke="#000000" points="970.0317,-319.1003 968.0418,-308.6941 963.108,-318.07 970.0317,-319.1003"/>
</g>
<!-- messages -->
<g id="node24" class="node">
<title>messages</title>
<g id="a_node24"><a xlink:href="messages.md" xlink:title="messages.md">
<polygon fill="#98fb98" stroke="#000000" points="1470.7388,-27.8581 1470.7388,-48.1419 1422.8573,-62.4846 1355.1427,-62.4846 1307.2612,-48.1419 1307.2612,-27.8581 1355.1427,-13.5154 1422.8573,-13.5154 1470.7388,-27.8581"/>
<polygon fill="none" stroke="#000000" points="1474.7446,-24.883 1474.7446,-51.117 1423.4454,-66.4835 1354.5546,-66.4835 1303.2554,-51.117 1303.2554,-24.883 1354.5546,-9.5165 1423.4454,-9.5165 1474.7446,-24.883"/>
<text text-anchor="middle" x="1389" y="-30.8" font-family="Times,serif" font-size="24.00" fill="#000000">messages</text>
</a>
</g>
</g>
<!-- runFunction&#45;&gt;messages -->
<g id="edge52" class="edge">
<title>runFunction&#45;&gt;messages</title>
<path fill="none" stroke="#000000" d="M439.1719,-751.1901C338.2403,-740.2605 182.8313,-716.4858 147,-671.4917 -12.8968,-470.7064 139.2702,-269.4327 357,-133.5083 435.3386,-84.603 1051.7451,-52.7128 1292.8218,-41.9997"/>
<polygon fill="#000000" stroke="#000000" points="1293.1392,-45.4892 1302.975,-41.5512 1292.8302,-38.496 1293.1392,-45.4892"/>
</g>
<!-- matches -->
<g id="node25" class="node">
<title>matches</title>
<g id="a_node25"><a xlink:href="matches.md" xlink:title="matches.md">
<ellipse fill="#eee8aa" stroke="#000000" cx="1277" cy="-526" rx="66.8311" ry="22.7556"/>
<text text-anchor="middle" x="1277" y="-518.8" font-family="Times,serif" font-size="24.00" fill="#000000">matches</text>
</a>
</g>
</g>
<!-- runFunction&#45;&gt;matches -->
<g id="edge57" class="edge">
<title>runFunction&#45;&gt;matches</title>
<path fill="none" stroke="#000000" d="M550.8076,-736.8902C585.9225,-704.2712 656.7649,-643.9447 729,-614.5083 909.673,-540.8826 970.8236,-582.2679 1163,-548.6274 1178.2444,-545.9589 1194.5872,-542.8582 1210.0019,-539.824"/>
<polygon fill="#000000" stroke="#000000" points="1210.8491,-543.2242 1219.9767,-537.8448 1209.4867,-536.358 1210.8491,-543.2242"/>
</g>
<!-- opresultid -->
<g id="node2" class="node">
<title>opresultid</title>
<g id="a_node2"><a xlink:href="opresultid.md" xlink:title="opresultid.md">
<ellipse fill="#eee8aa" stroke="#000000" cx="1206" cy="-286" rx="79.3758" ry="22.7556"/>
<text text-anchor="middle" x="1206" y="-278.8" font-family="Times,serif" font-size="24.00" fill="#000000">opresultid</text>
</a>
</g>
</g>
<!-- opresultid&#45;&gt;messages -->
<g id="edge58" class="edge">
<title>opresultid&#45;&gt;messages</title>
<path fill="none" stroke="#000000" d="M1222.5628,-263.5543C1254.1498,-220.7479 1323.273,-127.0726 1361.7611,-74.9139"/>
<polygon fill="#000000" stroke="#000000" points="1364.7711,-76.7295 1367.8924,-66.6048 1359.1386,-72.5732 1364.7711,-76.7295"/>
</g>
<!-- opresult -->
<g id="node30" class="node">
<title>opresult</title>
<g id="a_node30"><a xlink:href="opresult.md" xlink:title="opresult.md">
<polygon fill="#98fb98" stroke="#000000" points="1135.3526,-151.8581 1135.3526,-172.1419 1093.5552,-186.4846 1034.4448,-186.4846 992.6474,-172.1419 992.6474,-151.8581 1034.4448,-137.5154 1093.5552,-137.5154 1135.3526,-151.8581"/>
<polygon fill="none" stroke="#000000" points="1139.3486,-149.0019 1139.3486,-174.9981 1094.2213,-190.4835 1033.7787,-190.4835 988.6514,-174.9981 988.6514,-149.0019 1033.7787,-133.5165 1094.2213,-133.5165 1139.3486,-149.0019"/>
<text text-anchor="middle" x="1064" y="-154.8" font-family="Times,serif" font-size="24.00" fill="#000000">opresult</text>
</a>
</g>
</g>
<!-- opresultid&#45;&gt;opresult -->
<g id="edge59" class="edge">
<title>opresultid&#45;&gt;opresult</title>
<path fill="none" stroke="#000000" d="M1181.2655,-264.4008C1159.9703,-245.805 1128.8399,-218.6208 1104.0049,-196.9338"/>
<polygon fill="#000000" stroke="#000000" points="1106.0177,-194.0449 1096.1832,-190.1036 1101.4134,-199.3175 1106.0177,-194.0449"/>
</g>
<!-- cmdline -->
<g id="node5" class="node">
<title>cmdline</title>
<g id="a_node5"><a xlink:href="cmdline.md" xlink:title="cmdline.md">
<polygon fill="#98fb98" stroke="#000000" points="2465.3352,-1096.8581 2465.3352,-1117.1419 2423.548,-1131.4846 2364.452,-1131.4846 2322.6648,-1117.1419 2322.6648,-1096.8581 2364.452,-1082.5154 2423.548,-1082.5154 2465.3352,-1096.8581"/>
<polygon fill="none" stroke="#000000" points="2469.3307,-1094.0021 2469.3307,-1119.9979 2424.2141,-1135.4835 2363.7859,-1135.4835 2318.6693,-1119.9979 2318.6693,-1094.0021 2363.7859,-1078.5165 2424.2141,-1078.5165 2469.3307,-1094.0021"/>
<text text-anchor="middle" x="2394" y="-1099.8" font-family="Times,serif" font-size="24.00" fill="#000000">cmdline</text>
</a>
</g>
</g>
<!-- parseCmdLine -->
<g id="node6" class="node">
<title>parseCmdLine</title>
<g id="a_node6"><a xlink:href="parseCmdLine.md" xlink:title="parseCmdLine.md">
<ellipse fill="#eee8aa" stroke="#000000" cx="1851" cy="-643" rx="111.4463" ry="22.7556"/>
<text text-anchor="middle" x="1851" y="-635.8" font-family="Times,serif" font-size="24.00" fill="#000000">parseCmdLine</text>
</a>
</g>
</g>
<!-- parseCmdLine&#45;&gt;regexes -->
<g id="edge19" class="edge">
<title>parseCmdLine&#45;&gt;regexes</title>
<path fill="none" stroke="#000000" d="M1777.4529,-626.01C1760.2609,-622.1383 1742.0045,-618.1072 1725,-614.5083 1576.9743,-583.1795 1521.2756,-625.5777 1391,-548.6274 1368.3866,-535.2703 1371.7627,-521.7502 1353,-503.3726 1330.6293,-481.461 1303.4594,-459.3812 1281.0396,-442.1976"/>
<polygon fill="#000000" stroke="#000000" points="1283.092,-439.3613 1273.0124,-436.0977 1278.8568,-444.9348 1283.092,-439.3613"/>
</g>
<!-- env -->
<g id="node7" class="node">
<title>env</title>
<g id="a_node7"><a xlink:href="env.md" xlink:title="env.md">
<ellipse fill="#eee8aa" stroke="#000000" cx="1990" cy="-526" rx="35.6342" ry="22.7556"/>
<text text-anchor="middle" x="1990" y="-518.8" font-family="Times,serif" font-size="24.00" fill="#000000">env</text>
</a>
</g>
</g>
<!-- parseCmdLine&#45;&gt;env -->
<g id="edge18" class="edge">
<title>parseCmdLine&#45;&gt;env</title>
<path fill="none" stroke="#000000" d="M1877.1448,-620.9932C1900.7437,-601.1294 1935.4464,-571.9192 1960.1309,-551.1416"/>
<polygon fill="#000000" stroke="#000000" points="1962.691,-553.5616 1968.0877,-544.4442 1958.1832,-548.2062 1962.691,-553.5616"/>
</g>
<!-- parseCmdLine&#45;&gt;messages -->
<g id="edge20" class="edge">
<title>parseCmdLine&#45;&gt;messages</title>
<path fill="none" stroke="#000000" d="M1861.5644,-620.3766C1881.8786,-573.3995 1921.1467,-462.8831 1883,-381.5083 1800.5209,-205.5632 1577.0708,-103.9409 1461.0705,-61.5298"/>
<polygon fill="#000000" stroke="#000000" points="1462.1419,-58.1956 1451.5476,-58.093 1459.7656,-64.7799 1462.1419,-58.1956"/>
</g>
<!-- parseCmdLine&#45;&gt;matches -->
<g id="edge21" class="edge">
<title>parseCmdLine&#45;&gt;matches</title>
<path fill="none" stroke="#000000" d="M1778.4168,-625.8495C1761.263,-621.9646 1743.013,-617.9681 1726,-614.5083 1563.1769,-581.3962 1519.976,-585.6617 1358,-548.6274 1351.4014,-547.1187 1344.5364,-545.4144 1337.7178,-543.6348"/>
<polygon fill="#000000" stroke="#000000" points="1338.3619,-540.1842 1327.7975,-540.9876 1336.557,-546.9476 1338.3619,-540.1842"/>
</g>
<!-- tempFile -->
<g id="node10" class="node">
<title>tempFile</title>
<g id="a_node10"><a xlink:href="tempFile.md" xlink:title="tempFile.md">
<polygon fill="#98fb98" stroke="#000000" points="1869.598,-399.8581 1869.598,-420.1419 1824.1421,-434.4846 1759.8579,-434.4846 1714.402,-420.1419 1714.402,-399.8581 1759.8579,-385.5154 1824.1421,-385.5154 1869.598,-399.8581"/>
<polygon fill="none" stroke="#000000" points="1873.6004,-396.9275 1873.6004,-423.0725 1824.7591,-438.4835 1759.2409,-438.4835 1710.3996,-423.0725 1710.3996,-396.9275 1759.2409,-381.5165 1824.7591,-381.5165 1873.6004,-396.9275"/>
<text text-anchor="middle" x="1792" y="-402.8" font-family="Times,serif" font-size="24.00" fill="#000000">tempFile</text>
</a>
</g>
</g>
<!-- env&#45;&gt;tempFile -->
<g id="edge9" class="edge">
<title>env&#45;&gt;tempFile</title>
<path fill="none" stroke="#000000" d="M1963.7071,-510.5961C1933.3222,-492.7948 1882.5724,-463.0626 1844.1058,-440.5266"/>
<polygon fill="#000000" stroke="#000000" points="1845.5056,-437.2903 1835.108,-435.2552 1841.9671,-443.3301 1845.5056,-437.2903"/>
</g>
<!-- env&#45;&gt;warnings -->
<g id="edge11" class="edge">
<title>env&#45;&gt;warnings</title>
<path fill="none" stroke="#000000" d="M1980.0314,-503.9831C1964.2547,-471.7654 1930.3874,-412.2739 1883,-381.5083 1669.8532,-243.1257 871.3912,-182.9645 610.8145,-166.738"/>
<polygon fill="#000000" stroke="#000000" points="610.8582,-163.2341 600.6615,-166.1111 610.4267,-170.2208 610.8582,-163.2341"/>
</g>
<!-- args -->
<g id="node22" class="node">
<title>args</title>
<g id="a_node22"><a xlink:href="args.md" xlink:title="args.md">
<polygon fill="#98fb98" stroke="#000000" points="1688.5492,-399.8581 1688.5492,-420.1419 1663.6245,-434.4846 1628.3755,-434.4846 1603.4508,-420.1419 1603.4508,-399.8581 1628.3755,-385.5154 1663.6245,-385.5154 1688.5492,-399.8581"/>
<polygon fill="none" stroke="#000000" points="1692.5514,-397.5466 1692.5514,-422.4534 1664.6946,-438.4835 1627.3054,-438.4835 1599.4486,-422.4534 1599.4486,-397.5466 1627.3054,-381.5165 1664.6946,-381.5165 1692.5514,-397.5466"/>
<text text-anchor="middle" x="1646" y="-402.8" font-family="Times,serif" font-size="24.00" fill="#000000">args</text>
</a>
</g>
</g>
<!-- env&#45;&gt;args -->
<g id="edge12" class="edge">
<title>env&#45;&gt;args</title>
<path fill="none" stroke="#000000" d="M1956.3744,-517.9659C1901.7623,-504.4443 1790.8475,-475.004 1701,-438.4917 1697.4041,-437.0305 1693.7289,-435.4148 1690.0682,-433.7175"/>
<polygon fill="#000000" stroke="#000000" points="1691.5799,-430.5608 1681.052,-429.3712 1688.5402,-436.8664 1691.5799,-430.5608"/>
</g>
<!-- env&#45;&gt;messages -->
<g id="edge10" class="edge">
<title>env&#45;&gt;messages</title>
<path fill="none" stroke="#000000" d="M1996.1513,-503.6971C2012.9587,-437.3717 2052.1408,-239.4055 1954,-133.5083 1892.0495,-66.6616 1629.3447,-46.5773 1484.9939,-40.5604"/>
<polygon fill="#000000" stroke="#000000" points="1484.9421,-37.0556 1474.8096,-40.151 1484.6609,-44.0499 1484.9421,-37.0556"/>
</g>
<!-- unicodes&#45;&gt;opresultid -->
<g id="edge60" class="edge">
<title>unicodes&#45;&gt;opresultid</title>
<path fill="none" stroke="#000000" d="M888.9806,-393.4055C955.1172,-370.9986 1072.9504,-331.0769 1144.8311,-306.7239"/>
<polygon fill="#000000" stroke="#000000" points="1146.3106,-309.9181 1154.6587,-303.3943 1144.0644,-303.2883 1146.3106,-309.9181"/>
</g>
<!-- utf8decoder -->
<g id="node16" class="node">
<title>utf8decoder</title>
<g id="a_node16"><a xlink:href="utf8decoder.md" xlink:title="utf8decoder.md">
<polygon fill="#98fb98" stroke="#000000" points="848.9296,-275.8581 848.9296,-296.1419 790.3922,-310.4846 707.6078,-310.4846 649.0704,-296.1419 649.0704,-275.8581 707.6078,-261.5154 790.3922,-261.5154 848.9296,-275.8581"/>
<polygon fill="none" stroke="#000000" points="852.9282,-272.7208 852.9282,-299.2792 790.8749,-314.4835 707.1251,-314.4835 645.0718,-299.2792 645.0718,-272.7208 707.1251,-257.5165 790.8749,-257.5165 852.9282,-272.7208"/>
<text text-anchor="middle" x="749" y="-278.8" font-family="Times,serif" font-size="24.00" fill="#000000">utf8decoder</text>
</a>
</g>
</g>
<!-- unicodes&#45;&gt;utf8decoder -->
<g id="edge66" class="edge">
<title>unicodes&#45;&gt;utf8decoder</title>
<path fill="none" stroke="#000000" d="M823.731,-387.8313C810.4623,-369.7508 791.4421,-343.8332 775.9113,-322.6704"/>
<polygon fill="#000000" stroke="#000000" points="778.6708,-320.5147 769.9326,-314.5235 773.0274,-324.6563 778.6708,-320.5147"/>
</g>
<!-- unicodes&#45;&gt;warnings -->
<g id="edge65" class="edge">
<title>unicodes&#45;&gt;warnings</title>
<path fill="none" stroke="#000000" d="M792.5227,-392.9424C727.6218,-369.3125 617.547,-328 603,-314.4917 584.2655,-297.0949 556.5227,-233.3617 540.5555,-194.0052"/>
<polygon fill="#000000" stroke="#000000" points="543.7392,-192.541 536.7624,-184.5676 537.2441,-195.1515 543.7392,-192.541"/>
</g>
<!-- unicodes&#45;&gt;opresultwarn -->
<g id="edge63" class="edge">
<title>unicodes&#45;&gt;opresultwarn</title>
<path fill="none" stroke="#000000" d="M862.8185,-388.4008C884.25,-368.1145 916.4795,-337.6072 940.1875,-315.1661"/>
<polygon fill="#000000" stroke="#000000" points="942.7045,-317.6029 947.5609,-308.1866 937.8924,-312.5191 942.7045,-317.6029"/>
</g>
<!-- unicodes&#45;&gt;messages -->
<g id="edge64" class="edge">
<title>unicodes&#45;&gt;messages</title>
<path fill="none" stroke="#000000" d="M790.0177,-393.5574C735.4855,-374.4867 653.576,-342.1274 636,-314.4917 622.4088,-293.1216 621.4415,-278.2316 636,-257.5083 712.1902,-149.0554 1107.9241,-78.6135 1293.1684,-51.0858"/>
<polygon fill="#000000" stroke="#000000" points="1293.7937,-54.5316 1303.1761,-49.61 1292.7725,-47.6064 1293.7937,-54.5316"/>
</g>
<!-- variables -->
<g id="node9" class="node">
<title>variables</title>
<g id="a_node9"><a xlink:href="variables.md" xlink:title="variables.md">
<ellipse fill="#eee8aa" stroke="#000000" cx="1081" cy="-526" rx="72.6337" ry="22.7556"/>
<text text-anchor="middle" x="1081" y="-518.8" font-family="Times,serif" font-size="24.00" fill="#000000">variables</text>
</a>
</g>
</g>
<!-- variables&#45;&gt;vartypes -->
<g id="edge39" class="edge">
<title>variables&#45;&gt;vartypes</title>
<path fill="none" stroke="#000000" d="M1010.2746,-520.4739C940.9101,-512.0857 834.8148,-491.0555 759,-438.4917 733.3595,-420.7147 743.0023,-400.1722 718,-381.5083 684.1404,-356.2325 577.0044,-323.0721 507.1629,-303.2133"/>
<polygon fill="#000000" stroke="#000000" points="507.717,-299.733 497.1421,-300.3824 505.8139,-306.4693 507.717,-299.733"/>
</g>
<!-- tostring -->
<g id="node12" class="node">
<title>tostring</title>
<g id="a_node12"><a xlink:href="tostring.md" xlink:title="tostring.md">
<ellipse fill="#eee8aa" stroke="#000000" cx="611" cy="-410" rx="63.3406" ry="22.7556"/>
<text text-anchor="middle" x="611" y="-402.8" font-family="Times,serif" font-size="24.00" fill="#000000">tostring</text>
</a>
</g>
</g>
<!-- variables&#45;&gt;tostring -->
<g id="edge45" class="edge">
<title>variables&#45;&gt;tostring</title>
<path fill="none" stroke="#000000" d="M1023.814,-511.9255C953.6514,-494.6522 831.0672,-464.4568 726,-438.4917 708.8071,-434.2429 690.1704,-429.6291 673.006,-425.3765"/>
<polygon fill="#000000" stroke="#000000" points="673.6404,-421.9279 663.0921,-422.9198 671.9567,-428.7224 673.6404,-421.9279"/>
</g>
<!-- variables&#45;&gt;warnings -->
<g id="edge42" class="edge">
<title>variables&#45;&gt;warnings</title>
<path fill="none" stroke="#000000" d="M1089.5154,-503.2999C1106.9357,-452.5361 1140.1723,-328.7161 1080,-257.5083 1021.0173,-187.7081 751.1785,-168.9189 611.8339,-163.8618"/>
<polygon fill="#000000" stroke="#000000" points="611.7386,-160.3565 601.6231,-163.5074 611.4957,-167.3523 611.7386,-160.3565"/>
</g>
<!-- variables&#45;&gt;args -->
<g id="edge46" class="edge">
<title>variables&#45;&gt;args</title>
<path fill="none" stroke="#000000" d="M1142.3606,-513.8636C1226.32,-497.1971 1381.6858,-466.1405 1514,-438.4917 1538.6883,-433.3328 1565.9376,-427.4782 1589.2357,-422.4238"/>
<polygon fill="#000000" stroke="#000000" points="1590.2694,-425.7809 1599.2981,-420.2372 1588.7829,-418.9405 1590.2694,-425.7809"/>
</g>
<!-- variables&#45;&gt;messages -->
<g id="edge41" class="edge">
<title>variables&#45;&gt;messages</title>
<path fill="none" stroke="#000000" d="M1091.4822,-503.5639C1109.5886,-465.1697 1145.7689,-390.146 1156,-381.5083 1230.5357,-318.5803 1304.1539,-390.7364 1365,-314.4917 1419.7194,-245.9243 1408.7449,-135.035 1397.8424,-76.7051"/>
<polygon fill="#000000" stroke="#000000" points="1401.2561,-75.9249 1395.8936,-66.7874 1394.3874,-77.2746 1401.2561,-75.9249"/>
</g>
<!-- version -->
<g id="node26" class="node">
<title>version</title>
<g id="a_node26"><a xlink:href="version.md" xlink:title="version.md">
<polygon fill="#98fb98" stroke="#000000" points="1501.1523,-399.8581 1501.1523,-420.1419 1462.4012,-434.4846 1407.5988,-434.4846 1368.8477,-420.1419 1368.8477,-399.8581 1407.5988,-385.5154 1462.4012,-385.5154 1501.1523,-399.8581"/>
<polygon fill="none" stroke="#000000" points="1505.1421,-397.0721 1505.1421,-422.9279 1463.1143,-438.4835 1406.8857,-438.4835 1364.8579,-422.9279 1364.8579,-397.0721 1406.8857,-381.5165 1463.1143,-381.5165 1505.1421,-397.0721"/>
<text text-anchor="middle" x="1435" y="-402.8" font-family="Times,serif" font-size="24.00" fill="#000000">version</text>
</a>
</g>
</g>
<!-- variables&#45;&gt;version -->
<g id="edge40" class="edge">
<title>variables&#45;&gt;version</title>
<path fill="none" stroke="#000000" d="M1131.3436,-509.5032C1193.7481,-489.0543 1300.2624,-454.1513 1369.1139,-431.5898"/>
<polygon fill="#000000" stroke="#000000" points="1370.5764,-434.7938 1378.9893,-428.3538 1368.3966,-428.1418 1370.5764,-434.7938"/>
</g>
<!-- vartypes&#45;&gt;warnings -->
<g id="edge34" class="edge">
<title>vartypes&#45;&gt;warnings</title>
<path fill="none" stroke="#000000" d="M459.0175,-263.8313C472.4321,-244.0289 492.2151,-214.8254 507.1598,-192.7641"/>
<polygon fill="#000000" stroke="#000000" points="510.1185,-194.6371 512.8293,-184.3949 504.323,-190.7111 510.1185,-194.6371"/>
</g>
<!-- tostring&#45;&gt;vartypes -->
<g id="edge44" class="edge">
<title>tostring&#45;&gt;vartypes</title>
<path fill="none" stroke="#000000" d="M583.4233,-389.5239C555.2247,-368.586 511.2781,-335.955 480.2739,-312.9339"/>
<polygon fill="#000000" stroke="#000000" points="482.0115,-309.8648 471.8962,-306.7134 477.8385,-315.4849 482.0115,-309.8648"/>
</g>
<!-- tostring&#45;&gt;warnings -->
<g id="edge43" class="edge">
<title>tostring&#45;&gt;warnings</title>
<path fill="none" stroke="#000000" d="M598.6526,-387.8062C588.491,-368.8084 574.2959,-340.486 565,-314.4917 550.5771,-274.1608 539.9139,-225.8497 533.8326,-194.5736"/>
<polygon fill="#000000" stroke="#000000" points="537.2533,-193.8265 531.947,-184.6562 530.3765,-195.1339 537.2533,-193.8265"/>
</g>
<!-- replacement -->
<g id="node13" class="node">
<title>replacement</title>
<g id="a_node13"><a xlink:href="replacement.md" xlink:title="replacement.md">
<ellipse fill="#eee8aa" stroke="#000000" cx="1386" cy="-759" rx="94.4556" ry="22.7556"/>
<text text-anchor="middle" x="1386" y="-751.8" font-family="Times,serif" font-size="24.00" fill="#000000">replacement</text>
</a>
</g>
</g>
<!-- replacement&#45;&gt;parseNumber -->
<g id="edge95" class="edge">
<title>replacement&#45;&gt;parseNumber</title>
<path fill="none" stroke="#000000" d="M1316.0457,-743.7754C1222.8832,-723.4999 1057.5671,-687.5212 951.7368,-664.4887"/>
<polygon fill="#000000" stroke="#000000" points="952.2009,-661.0078 941.6853,-662.3011 950.7122,-667.8477 952.2009,-661.0078"/>
</g>
<!-- replacement&#45;&gt;regexes -->
<g id="edge86" class="edge">
<title>replacement&#45;&gt;regexes</title>
<path fill="none" stroke="#000000" d="M1364.8977,-736.8405C1318.2106,-687.562 1209.6031,-571.438 1201,-548.6274 1188.4651,-515.3918 1201.1292,-476.0823 1214.7726,-447.8265"/>
<polygon fill="#000000" stroke="#000000" points="1218.003,-449.1946 1219.402,-438.6925 1211.7592,-446.03 1218.003,-449.1946"/>
</g>
<!-- replacement&#45;&gt;parseCmdLine -->
<g id="edge89" class="edge">
<title>replacement&#45;&gt;parseCmdLine</title>
<path fill="none" stroke="#000000" d="M1451.6369,-742.6261C1535.3684,-721.7382 1680.1257,-685.6267 1770.4483,-663.0946"/>
<polygon fill="#000000" stroke="#000000" points="1771.5151,-666.4358 1780.3706,-660.6194 1769.8207,-659.644 1771.5151,-666.4358"/>
</g>
<!-- replacement&#45;&gt;env -->
<g id="edge87" class="edge">
<title>replacement&#45;&gt;env</title>
<path fill="none" stroke="#000000" d="M1407.3169,-736.8567C1423.789,-719.4698 1446.9202,-694.4441 1466,-671.4917 1486.2819,-647.0933 1482.0041,-631.1774 1509,-614.5083 1581.8894,-569.5014 1838.7054,-540.4565 1944.2199,-530.1723"/>
<polygon fill="#000000" stroke="#000000" points="1944.6264,-533.6494 1954.245,-529.2074 1943.9557,-526.6816 1944.6264,-533.6494"/>
</g>
<!-- replacement&#45;&gt;variables -->
<g id="edge93" class="edge">
<title>replacement&#45;&gt;variables</title>
<path fill="none" stroke="#000000" d="M1358.4089,-737.2757C1322.2135,-708.8435 1256.6418,-657.5657 1200,-614.5083 1172.6165,-593.6921 1141.4062,-570.4986 1117.8204,-553.0777"/>
<polygon fill="#000000" stroke="#000000" points="1119.6216,-550.0571 1109.497,-546.9357 1115.4653,-555.6896 1119.6216,-550.0571"/>
</g>
<!-- replacement&#45;&gt;tempFile -->
<g id="edge94" class="edge">
<title>replacement&#45;&gt;tempFile</title>
<path fill="none" stroke="#000000" d="M1397.202,-736.4807C1416.5483,-697.9562 1455.1904,-622.7352 1466,-614.5083 1565.6663,-538.6545 1646.1642,-631.5853 1740,-548.6274 1768.8079,-523.1591 1781.7041,-480.1208 1787.4478,-448.7422"/>
<polygon fill="#000000" stroke="#000000" points="1790.9482,-449.0283 1789.1341,-438.59 1784.0428,-447.8813 1790.9482,-449.0283"/>
</g>
<!-- replacement&#45;&gt;vartypes -->
<g id="edge88" class="edge">
<title>replacement&#45;&gt;vartypes</title>
<path fill="none" stroke="#000000" d="M1317.9868,-743.2555C1256.3249,-728.0256 1163.5049,-702.6968 1086,-671.4917 1035.2907,-651.0751 1028.4153,-633.0755 977,-614.5083 845.7454,-567.1093 795.3384,-609.9847 670,-548.6274 601.682,-515.1835 588.8366,-495.9562 539,-438.4917 505.9848,-400.4232 476.8059,-349.6733 459.7696,-317.4081"/>
<polygon fill="#000000" stroke="#000000" points="462.8127,-315.6741 455.0874,-308.4235 456.6051,-318.9091 462.8127,-315.6741"/>
</g>
<!-- replacement&#45;&gt;tostring -->
<g id="edge96" class="edge">
<title>replacement&#45;&gt;tostring</title>
<path fill="none" stroke="#000000" d="M1341.1926,-739.0693C1302.5158,-721.6976 1245.2639,-695.5806 1196,-671.4917 1146.5372,-647.3057 1138.0844,-632.3617 1086,-614.5083 933.372,-562.1905 868.6934,-629.3628 729,-548.6274 684.2275,-522.7513 648.4844,-473.3241 628.5178,-441.0203"/>
<polygon fill="#000000" stroke="#000000" points="631.4757,-439.1477 623.3102,-432.3968 625.4836,-442.7663 631.4757,-439.1477"/>
</g>
<!-- readlines -->
<g id="node14" class="node">
<title>readlines</title>
<g id="a_node14"><a xlink:href="readlines.md" xlink:title="readlines.md">
<polygon fill="#98fb98" stroke="#000000" points="1679.5894,-632.8581 1679.5894,-653.1419 1633.5528,-667.4846 1568.4472,-667.4846 1522.4106,-653.1419 1522.4106,-632.8581 1568.4472,-618.5154 1633.5528,-618.5154 1679.5894,-632.8581"/>
<polygon fill="none" stroke="#000000" points="1683.5916,-629.9163 1683.5916,-656.0837 1634.1623,-671.4835 1567.8377,-671.4835 1518.4084,-656.0837 1518.4084,-629.9163 1567.8377,-614.5165 1634.1623,-614.5165 1683.5916,-629.9163"/>
<text text-anchor="middle" x="1601" y="-635.8" font-family="Times,serif" font-size="24.00" fill="#000000">readlines</text>
</a>
</g>
</g>
<!-- replacement&#45;&gt;readlines -->
<g id="edge90" class="edge">
<title>replacement&#45;&gt;readlines</title>
<path fill="none" stroke="#000000" d="M1424.4377,-738.2615C1458.3191,-719.9813 1508.0731,-693.1373 1546.1372,-672.6004"/>
<polygon fill="#000000" stroke="#000000" points="1547.9134,-675.619 1555.0523,-667.7904 1544.5896,-669.4585 1547.9134,-675.619"/>
</g>
<!-- replacement&#45;&gt;messages -->
<g id="edge92" class="edge">
<title>replacement&#45;&gt;messages</title>
<path fill="none" stroke="#000000" d="M1385.9232,-736.1223C1387.1139,-704.2057 1394.1972,-646.6298 1428,-614.5083 1520.3601,-526.7418 1627.9344,-648.5373 1707,-548.6274 1771.2779,-467.4037 1606.433,-456.2714 1590,-438.4917 1488.8921,-329.098 1522.6398,-264.1128 1451,-133.5083 1440.1513,-113.7303 1426.6556,-92.6081 1415.0281,-75.2695"/>
<polygon fill="#000000" stroke="#000000" points="1417.6462,-72.8934 1409.1419,-66.5746 1411.8496,-76.8176 1417.6462,-72.8934"/>
</g>
<!-- replacement&#45;&gt;matches -->
<g id="edge91" class="edge">
<title>replacement&#45;&gt;matches</title>
<path fill="none" stroke="#000000" d="M1375.3502,-736.2347C1355.8049,-694.4544 1314.1711,-605.4574 1291.8561,-557.7565"/>
<polygon fill="#000000" stroke="#000000" points="1294.9403,-556.0894 1287.5326,-548.5146 1288.5998,-559.0556 1294.9403,-556.0894"/>
</g>
<!-- funtypes&#45;&gt;vartypes -->
<g id="edge48" class="edge">
<title>funtypes&#45;&gt;vartypes</title>
<path fill="none" stroke="#000000" d="M355.2196,-503.4214C372.6937,-460.6276 410.6844,-367.5893 430.8353,-318.2402"/>
<polygon fill="#000000" stroke="#000000" points="434.1934,-319.2745 434.7335,-308.6935 427.7128,-316.6283 434.1934,-319.2745"/>
</g>
<!-- funtypes&#45;&gt;tostring -->
<g id="edge50" class="edge">
<title>funtypes&#45;&gt;tostring</title>
<path fill="none" stroke="#000000" d="M387.6978,-507.7474C434.8024,-487.128 511.4078,-453.5951 561.5057,-431.6654"/>
<polygon fill="#000000" stroke="#000000" points="563.0894,-434.7929 570.8467,-427.5765 560.2824,-428.3803 563.0894,-434.7929"/>
</g>
<!-- funtypes&#45;&gt;warnings -->
<g id="edge49" class="edge">
<title>funtypes&#45;&gt;warnings</title>
<path fill="none" stroke="#000000" d="M341.1595,-503.3748C331.9691,-454.3308 317.0121,-336.3052 366,-257.5083 388.7074,-220.9835 430.9398,-196.759 466.591,-181.8472"/>
<polygon fill="#000000" stroke="#000000" points="468.0029,-185.0519 475.9723,-178.0706 465.3887,-178.5583 468.0029,-185.0519"/>
</g>
<!-- warnings&#45;&gt;messages -->
<g id="edge3" class="edge">
<title>warnings&#45;&gt;messages</title>
<path fill="none" stroke="#000000" d="M575.9586,-144.6493C588.8284,-140.4966 602.8301,-136.426 616,-133.5083 856.2867,-80.2734 1145.6313,-54.4582 1292.8192,-43.9824"/>
<polygon fill="#000000" stroke="#000000" points="1293.4387,-47.4476 1303.1685,-43.2545 1292.9475,-40.4648 1293.4387,-47.4476"/>
</g>
<!-- collectCommand -->
<g id="node18" class="node">
<title>collectCommand</title>
<g id="a_node18"><a xlink:href="collectCommand.md" xlink:title="collectCommand.md">
<ellipse fill="#eee8aa" stroke="#000000" cx="1747" cy="-759" rx="127.4982" ry="22.7556"/>
<text text-anchor="middle" x="1747" y="-751.8" font-family="Times,serif" font-size="24.00" fill="#000000">collectCommand</text>
</a>
</g>
</g>
<!-- collectCommand&#45;&gt;parseCmdLine -->
<g id="edge26" class="edge">
<title>collectCommand&#45;&gt;parseCmdLine</title>
<path fill="none" stroke="#000000" d="M1767.0522,-736.634C1783.3102,-718.5002 1806.3706,-692.7789 1824.2095,-672.8817"/>
<polygon fill="#000000" stroke="#000000" points="1826.9398,-675.0794 1831.0093,-665.2973 1821.7278,-670.4066 1826.9398,-675.0794"/>
</g>
<!-- collectCommand&#45;&gt;env -->
<g id="edge23" class="edge">
<title>collectCommand&#45;&gt;env</title>
<path fill="none" stroke="#000000" d="M1844.1967,-744.3288C1889.6094,-732.3666 1940.3126,-710.6982 1971,-671.4917 1996.0385,-639.5024 1997.2551,-590.9092 1994.6127,-558.8122"/>
<polygon fill="#000000" stroke="#000000" points="1998.0703,-558.2118 1993.5974,-548.6074 1991.1047,-558.9048 1998.0703,-558.2118"/>
</g>
<!-- collectCommand&#45;&gt;readlines -->
<g id="edge25" class="edge">
<title>collectCommand&#45;&gt;readlines</title>
<path fill="none" stroke="#000000" d="M1719.1949,-736.9082C1698.0101,-720.0765 1668.4532,-696.593 1644.1967,-677.3206"/>
<polygon fill="#000000" stroke="#000000" points="1646.2004,-674.4424 1636.1935,-670.9619 1641.8458,-679.9231 1646.2004,-674.4424"/>
</g>
<!-- collectCommand&#45;&gt;messages -->
<g id="edge27" class="edge">
<title>collectCommand&#45;&gt;messages</title>
<path fill="none" stroke="#000000" d="M1822.1522,-740.6694C1955.1283,-703.2423 2218,-604.64 2218,-410 2218,-410 2218,-410 2218,-286 2218,-134.517 1703.5139,-67.7957 1485.154,-46.2994"/>
<polygon fill="#000000" stroke="#000000" points="1485.2749,-42.7948 1474.983,-45.3098 1484.597,-49.7619 1485.2749,-42.7948"/>
</g>
<!-- collectCommand&#45;&gt;matches -->
<g id="edge24" class="edge">
<title>collectCommand&#45;&gt;matches</title>
<path fill="none" stroke="#000000" d="M1745.2346,-736.335C1741.4541,-704.1348 1729.6523,-645.6103 1693,-614.5083 1577.3012,-516.3297 1505.6301,-583.7074 1358,-548.6274 1351.4145,-547.0626 1344.5578,-545.3224 1337.7442,-543.5218"/>
<polygon fill="#000000" stroke="#000000" points="1338.3947,-540.0724 1327.8287,-540.8538 1336.5758,-546.832 1338.3947,-540.0724"/>
</g>
<!-- statictea -->
<g id="node19" class="node">
<title>statictea</title>
<g id="a_node19"><a xlink:href="statictea.md" xlink:title="statictea.md">
<polygon fill="#eee8aa" stroke="#000000" points="2135.0958,-1098.3667 2218,-1079.0619 2300.9042,-1098.3667 2300.8268,-1129.6024 2135.1732,-1129.6024 2135.0958,-1098.3667"/>
<text text-anchor="middle" x="2218" y="-1099.8" font-family="Times,serif" font-size="24.00" fill="#000000">statictea</text>
</a>
</g>
</g>
<!-- statictea&#45;&gt;env -->
<g id="edge103" class="edge">
<title>statictea&#45;&gt;env</title>
<path fill="none" stroke="#000000" d="M2204.4127,-1081.9052C2182.5524,-1039.1179 2142,-948.73 2142,-867 2142,-867 2142,-867 2142,-759 2142,-670.6092 2064.3178,-589.5191 2020.0218,-550.4649"/>
<polygon fill="#000000" stroke="#000000" points="2022.2799,-547.7904 2012.4281,-543.8925 2017.6988,-553.0833 2022.2799,-547.7904"/>
</g>
<!-- gethelp -->
<g id="node20" class="node">
<title>gethelp</title>
<g id="a_node20"><a xlink:href="gethelp.md" xlink:title="gethelp.md">
<polygon fill="#98fb98" stroke="#000000" points="2439.1349,-972.8581 2439.1349,-993.1419 2400.394,-1007.4846 2345.606,-1007.4846 2306.8651,-993.1419 2306.8651,-972.8581 2345.606,-958.5154 2400.394,-958.5154 2439.1349,-972.8581"/>
<polygon fill="none" stroke="#000000" points="2443.1242,-970.0722 2443.1242,-995.9278 2401.1071,-1011.4835 2344.8929,-1011.4835 2302.8758,-995.9278 2302.8758,-970.0722 2344.8929,-954.5165 2401.1071,-954.5165 2443.1242,-970.0722"/>
<text text-anchor="middle" x="2373" y="-975.8" font-family="Times,serif" font-size="24.00" fill="#000000">gethelp</text>
</a>
</g>
</g>
<!-- statictea&#45;&gt;gethelp -->
<g id="edge101" class="edge">
<title>statictea&#45;&gt;gethelp</title>
<path fill="none" stroke="#000000" d="M2245.3541,-1085.1167C2269.3216,-1065.9427 2304.5026,-1037.7979 2331.8638,-1015.9089"/>
<polygon fill="#000000" stroke="#000000" points="2334.0974,-1018.6043 2339.7196,-1009.6243 2329.7245,-1013.1382 2334.0974,-1018.6043"/>
</g>
<!-- statictea&#45;&gt;args -->
<g id="edge99" class="edge">
<title>statictea&#45;&gt;args</title>
<path fill="none" stroke="#000000" d="M2227.6255,-1081.2284C2248.076,-1024.0851 2294,-882.0629 2294,-759 2294,-759 2294,-759 2294,-643 2294,-433.8456 1735.6347,-450.0558 1701,-438.4917 1697.2068,-437.2252 1693.355,-435.7255 1689.5418,-434.0869"/>
<polygon fill="#000000" stroke="#000000" points="1690.7446,-430.7875 1680.1976,-429.7819 1687.8155,-437.1453 1690.7446,-430.7875"/>
</g>
<!-- statictea&#45;&gt;messages -->
<g id="edge100" class="edge">
<title>statictea&#45;&gt;messages</title>
<path fill="none" stroke="#000000" d="M2266.3373,-1090.2065C2331.2985,-1067.2005 2440.0577,-1026.9745 2452,-1011.4917 2491.5594,-960.2044 2471,-931.7714 2471,-867 2471,-867 2471,-867 2471,-286 2471,-84.6494 1750.1135,-46.7702 1485.1786,-39.648"/>
<polygon fill="#000000" stroke="#000000" points="1484.8946,-36.1395 1474.8071,-39.3787 1484.7129,-43.1372 1484.8946,-36.1395"/>
</g>
<!-- statictea&#45;&gt;version -->
<g id="edge102" class="edge">
<title>statictea&#45;&gt;version</title>
<path fill="none" stroke="#000000" d="M2220.537,-1079.6272C2228.1434,-978.8729 2238.9008,-628.0502 2035,-503.3726 1864.4822,-399.1074 1787.2104,-470.9823 1590,-438.4917 1565.3234,-434.4262 1538.5079,-429.6316 1514.2268,-425.1468"/>
<polygon fill="#000000" stroke="#000000" points="1514.818,-421.6968 1504.3472,-423.3134 1513.5408,-428.5793 1514.818,-421.6968"/>
</g>
<!-- parseCommandLine -->
<g id="node28" class="node">
<title>parseCommandLine</title>
<g id="a_node28"><a xlink:href="parseCommandLine.md" xlink:title="parseCommandLine.md">
<ellipse fill="#eee8aa" stroke="#000000" cx="1549" cy="-526" rx="148.8522" ry="22.7556"/>
<text text-anchor="middle" x="1549" y="-518.8" font-family="Times,serif" font-size="24.00" fill="#000000">parseCommandLine</text>
</a>
</g>
</g>
<!-- statictea&#45;&gt;parseCommandLine -->
<g id="edge6" class="edge">
<title>statictea&#45;&gt;parseCommandLine</title>
<path fill="none" stroke="#000000" d="M2135.2322,-1104.5967C1962.8454,-1098.3183 1571.8671,-1077.0741 1458,-1011.4917 1332.4234,-939.1652 1228.909,-870.815 1283,-736.3726 1319.6788,-645.2079 1421.5932,-583.4961 1488.0921,-551.5822"/>
<polygon fill="#000000" stroke="#000000" points="1489.6755,-554.7053 1497.2298,-547.2768 1486.6918,-548.373 1489.6755,-554.7053"/>
</g>
<!-- processTemplate -->
<g id="node29" class="node">
<title>processTemplate</title>
<g id="a_node29"><a xlink:href="processTemplate.md" xlink:title="processTemplate.md">
<ellipse fill="#eee8aa" stroke="#000000" cx="1592" cy="-983" rx="125.2054" ry="22.7556"/>
<text text-anchor="middle" x="1592" y="-975.8" font-family="Times,serif" font-size="24.00" fill="#000000">processTemplate</text>
</a>
</g>
</g>
<!-- statictea&#45;&gt;processTemplate -->
<g id="edge98" class="edge">
<title>statictea&#45;&gt;processTemplate</title>
<path fill="none" stroke="#000000" d="M2153.072,-1094.1389C2041.9618,-1072.1298 1814.9302,-1027.1587 1686.3282,-1001.6848"/>
<polygon fill="#000000" stroke="#000000" points="1686.9709,-998.2442 1676.4814,-999.7343 1685.6107,-1005.1108 1686.9709,-998.2442"/>
</g>
<!-- signatures&#45;&gt;vartypes -->
<g id="edge68" class="edge">
<title>signatures&#45;&gt;vartypes</title>
<path fill="none" stroke="#000000" d="M256.9314,-620.3535C254.0166,-591.9771 252.0309,-542.3432 267,-503.3726 297.474,-424.0367 368.7358,-351.7888 410.958,-313.8762"/>
<polygon fill="#000000" stroke="#000000" points="413.3253,-316.4549 418.4875,-307.2027 408.6823,-311.2163 413.3253,-316.4549"/>
</g>
<!-- signatures&#45;&gt;funtypes -->
<g id="edge69" class="edge">
<title>signatures&#45;&gt;funtypes</title>
<path fill="none" stroke="#000000" d="M276.3784,-620.7178C289.7682,-602.5014 308.8359,-576.5605 323.632,-556.4309"/>
<polygon fill="#000000" stroke="#000000" points="326.5801,-558.3297 329.6826,-548.1992 320.9399,-554.1838 326.5801,-558.3297"/>
</g>
<!-- signatures&#45;&gt;messages -->
<g id="edge70" class="edge">
<title>signatures&#45;&gt;messages</title>
<path fill="none" stroke="#000000" d="M255.558,-620.0921C250.8839,-592.2868 245.0882,-544.0668 252,-503.3726 283.0482,-320.5722 280.5216,-219.1051 445,-133.5083 519.069,-94.9617 1067.9853,-57.5621 1293.102,-43.673"/>
<polygon fill="#000000" stroke="#000000" points="1293.4829,-47.1563 1303.2493,-43.0494 1293.0534,-40.1695 1293.4829,-47.1563"/>
</g>
<!-- opresultwarn&#45;&gt;warnings -->
<g id="edge61" class="edge">
<title>opresultwarn&#45;&gt;warnings</title>
<path fill="none" stroke="#000000" d="M907.9994,-268.3655C824.1304,-244.8898 676.5955,-203.5933 592.1497,-179.9561"/>
<polygon fill="#000000" stroke="#000000" points="592.997,-176.5588 582.4236,-177.2337 591.1101,-183.2997 592.997,-176.5588"/>
</g>
<!-- opresultwarn&#45;&gt;opresult -->
<g id="edge62" class="edge">
<title>opresultwarn&#45;&gt;opresult</title>
<path fill="none" stroke="#000000" d="M987.8416,-263.5445C1001.3349,-245.5535 1020.5464,-219.9381 1036.2978,-198.9362"/>
<polygon fill="#000000" stroke="#000000" points="1039.1661,-200.9452 1042.3661,-190.8452 1033.5661,-196.7452 1039.1661,-200.9452"/>
</g>
<!-- matches&#45;&gt;regexes -->
<g id="edge15" class="edge">
<title>matches&#45;&gt;regexes</title>
<path fill="none" stroke="#000000" d="M1269.1926,-503.3587C1263.7964,-487.7097 1256.4853,-466.5074 1250.1942,-448.2633"/>
<polygon fill="#000000" stroke="#000000" points="1253.4869,-447.0754 1246.9181,-438.7626 1246.8693,-449.3574 1253.4869,-447.0754"/>
</g>
<!-- matches&#45;&gt;args -->
<g id="edge14" class="edge">
<title>matches&#45;&gt;args</title>
<path fill="none" stroke="#000000" d="M1326.3821,-510.4761C1395.4991,-488.7483 1520.618,-449.4155 1592.0894,-426.9475"/>
<polygon fill="#000000" stroke="#000000" points="1593.3167,-430.2306 1601.8068,-423.8927 1591.2174,-423.5528 1593.3167,-430.2306"/>
</g>
<!-- readjson -->
<g id="node27" class="node">
<title>readjson</title>
<g id="a_node27"><a xlink:href="readjson.md" xlink:title="readjson.md">
<ellipse fill="#eee8aa" stroke="#000000" cx="807" cy="-526" rx="68.6102" ry="22.7556"/>
<text text-anchor="middle" x="807" y="-518.8" font-family="Times,serif" font-size="24.00" fill="#000000">readjson</text>
</a>
</g>
</g>
<!-- readjson&#45;&gt;opresultid -->
<g id="edge77" class="edge">
<title>readjson&#45;&gt;opresultid</title>
<path fill="none" stroke="#000000" d="M839.9464,-506.0871C867.2367,-489.1428 906.6448,-463.6213 939,-438.4917 968.8175,-415.3331 970.5566,-402.406 1002,-381.5083 1048.1754,-350.8194 1105.775,-324.8288 1147.9822,-307.7453"/>
<polygon fill="#000000" stroke="#000000" points="1149.2988,-310.9884 1157.2829,-304.0239 1146.6983,-304.4893 1149.2988,-310.9884"/>
</g>
<!-- readjson&#45;&gt;unicodes -->
<g id="edge78" class="edge">
<title>readjson&#45;&gt;unicodes</title>
<path fill="none" stroke="#000000" d="M813.4411,-503.3587C818.3926,-485.9532 825.2986,-461.6778 830.8272,-442.2437"/>
<polygon fill="#000000" stroke="#000000" points="834.2053,-443.1603 833.5752,-432.5842 827.4724,-441.2449 834.2053,-443.1603"/>
</g>
<!-- readjson&#45;&gt;vartypes -->
<g id="edge75" class="edge">
<title>readjson&#45;&gt;vartypes</title>
<path fill="none" stroke="#000000" d="M785.7283,-504.2552C769.0116,-486.877 745.3929,-461.6745 726,-438.4917 705.6427,-414.1561 708.2143,-400.7665 683,-381.5083 631.3989,-342.0961 561.3722,-316.654 510.4636,-302.0209"/>
<polygon fill="#000000" stroke="#000000" points="511.1218,-298.5704 500.5479,-299.2375 509.2299,-305.31 511.1218,-298.5704"/>
</g>
<!-- readjson&#45;&gt;utf8decoder -->
<g id="edge79" class="edge">
<title>readjson&#45;&gt;utf8decoder</title>
<path fill="none" stroke="#000000" d="M846.7766,-507.5218C873.1403,-492.8894 905.6087,-469.7094 921,-438.4917 932.1993,-415.7765 933.8458,-403.3346 921,-381.5083 901.4429,-348.2788 865.6886,-325.7838 831.8246,-311.0177"/>
<polygon fill="#000000" stroke="#000000" points="832.9148,-307.6801 822.3383,-307.0554 830.2168,-314.1392 832.9148,-307.6801"/>
</g>
<!-- readjson&#45;&gt;messages -->
<g id="edge76" class="edge">
<title>readjson&#45;&gt;messages</title>
<path fill="none" stroke="#000000" d="M845.5338,-507.1235C904.082,-478.6782 1019.197,-423.6708 1119,-381.5083 1195.7206,-349.0971 1236.1407,-374.3986 1294,-314.4917 1358.3652,-247.8487 1379.241,-135.6665 1385.9218,-76.772"/>
<polygon fill="#000000" stroke="#000000" points="1389.4093,-77.0735 1386.978,-66.7614 1382.448,-76.3389 1389.4093,-77.0735"/>
</g>
<!-- parseCommandLine&#45;&gt;regexes -->
<g id="edge5" class="edge">
<title>parseCommandLine&#45;&gt;regexes</title>
<path fill="none" stroke="#000000" d="M1492.4992,-504.9933C1438.1336,-484.7804 1356.0979,-454.28 1299.7318,-433.3234"/>
<polygon fill="#000000" stroke="#000000" points="1300.8102,-429.9903 1290.2173,-429.7859 1298.3707,-436.5515 1300.8102,-429.9903"/>
</g>
<!-- parseCommandLine&#45;&gt;warnings -->
<g id="edge4" class="edge">
<title>parseCommandLine&#45;&gt;warnings</title>
<path fill="none" stroke="#000000" d="M1471.0106,-506.6397C1431.803,-493.3173 1386.3081,-471.8467 1356,-438.4917 1298.8203,-375.5639 1359.9855,-311.1305 1294,-257.5083 1241.5968,-214.9235 796.9391,-180.1945 610.129,-167.346"/>
<polygon fill="#000000" stroke="#000000" points="610.2991,-163.8495 600.0836,-166.6591 609.8215,-170.8332 610.2991,-163.8495"/>
</g>
<!-- parseCommandLine&#45;&gt;args -->
<g id="edge1" class="edge">
<title>parseCommandLine&#45;&gt;args</title>
<path fill="none" stroke="#000000" d="M1567.9328,-503.3587C1581.9232,-486.628 1601.2214,-463.5497 1617.1298,-444.5251"/>
<polygon fill="#000000" stroke="#000000" points="1619.985,-446.5669 1623.7149,-436.6503 1614.615,-442.0764 1619.985,-446.5669"/>
</g>
<!-- parseCommandLine&#45;&gt;messages -->
<g id="edge2" class="edge">
<title>parseCommandLine&#45;&gt;messages</title>
<path fill="none" stroke="#000000" d="M1544.314,-503.2655C1538.2232,-474.6237 1526.8361,-424.0067 1514,-381.5083 1479.9488,-268.7694 1429.5809,-138.9749 1404.4449,-76.0924"/>
<polygon fill="#000000" stroke="#000000" points="1407.604,-74.5665 1400.6337,-66.5875 1401.1069,-77.1718 1407.604,-74.5665"/>
</g>
<!-- processTemplate&#45;&gt;parseCmdLine -->
<g id="edge22" class="edge">
<title>processTemplate&#45;&gt;parseCmdLine</title>
<path fill="none" stroke="#000000" d="M1648.6762,-962.7877C1718.447,-934.4653 1833.733,-875.6333 1883,-781.6274 1900.7952,-747.6726 1885.2516,-703.9357 1870.2526,-674.7581"/>
<polygon fill="#000000" stroke="#000000" points="1873.2668,-672.9734 1865.4448,-665.8273 1867.1032,-676.2915 1873.2668,-672.9734"/>
</g>
<!-- processTemplate&#45;&gt;env -->
<g id="edge13" class="edge">
<title>processTemplate&#45;&gt;env</title>
<path fill="none" stroke="#000000" d="M1662.8955,-964.3C1711.4863,-949.2517 1775.7993,-924.7749 1825,-889.6274 1929.1433,-815.2308 1968.433,-791.4686 2013,-671.4917 2027.0007,-633.8011 2015.1283,-587.5276 2003.8825,-557.4307"/>
<polygon fill="#000000" stroke="#000000" points="2007.0447,-555.908 2000.131,-547.8799 2000.5293,-558.4673 2007.0447,-555.908"/>
</g>
<!-- processTemplate&#45;&gt;variables -->
<g id="edge83" class="edge">
<title>processTemplate&#45;&gt;variables</title>
<path fill="none" stroke="#000000" d="M1505.081,-966.6763C1450.3301,-953.078 1380.518,-929.3386 1329,-889.6274 1208.4818,-796.7293 1125.3988,-628.3336 1094.4346,-558.1048"/>
<polygon fill="#000000" stroke="#000000" points="1097.613,-556.637 1090.4128,-548.8648 1091.1946,-559.4307 1097.613,-556.637"/>
</g>
<!-- processTemplate&#45;&gt;vartypes -->
<g id="edge84" class="edge">
<title>processTemplate&#45;&gt;vartypes</title>
<path fill="none" stroke="#000000" d="M1470.7352,-977.3434C1117.4647,-959.263 114,-895.8602 114,-759 114,-759 114,-759 114,-643 114,-478.7802 304.6234,-357.9647 396.1109,-309.4373"/>
<polygon fill="#000000" stroke="#000000" points="397.937,-312.4321 405.1744,-304.6945 394.6914,-306.23 397.937,-312.4321"/>
</g>
<!-- processTemplate&#45;&gt;replacement -->
<g id="edge97" class="edge">
<title>processTemplate&#45;&gt;replacement</title>
<path fill="none" stroke="#000000" d="M1571.114,-960.289C1533.5968,-919.4937 1454.8342,-833.8488 1413.1733,-788.5477"/>
<polygon fill="#000000" stroke="#000000" points="1415.676,-786.0985 1406.3306,-781.1071 1410.5236,-790.8369 1415.676,-786.0985"/>
</g>
<!-- processTemplate&#45;&gt;readlines -->
<g id="edge17" class="edge">
<title>processTemplate&#45;&gt;readlines</title>
<path fill="none" stroke="#000000" d="M1592.6045,-960.1637C1594.1153,-903.0904 1598.0697,-753.7006 1599.962,-682.2151"/>
<polygon fill="#000000" stroke="#000000" points="1603.4705,-681.9341 1600.2365,-671.845 1596.473,-681.7488 1603.4705,-681.9341"/>
</g>
<!-- processTemplate&#45;&gt;collectCommand -->
<g id="edge28" class="edge">
<title>processTemplate&#45;&gt;collectCommand</title>
<path fill="none" stroke="#000000" d="M1607.7152,-960.289C1635.6245,-919.9555 1693.8694,-835.7822 1725.4788,-790.1017"/>
<polygon fill="#000000" stroke="#000000" points="1728.4311,-791.986 1731.2432,-781.7711 1722.6748,-788.0028 1728.4311,-791.986"/>
</g>
<!-- processTemplate&#45;&gt;args -->
<g id="edge7" class="edge">
<title>processTemplate&#45;&gt;args</title>
<path fill="none" stroke="#000000" d="M1679.042,-966.6936C1813.1928,-936.1342 2064.5441,-855.8772 2156,-671.4917 2196.9067,-589.0192 2117.1862,-544.8516 2035,-503.3726 1899.9999,-435.2386 1843.8172,-488.1961 1701,-438.4917 1697.2231,-437.1773 1693.383,-435.6435 1689.5776,-433.9818"/>
<polygon fill="#000000" stroke="#000000" points="1690.7891,-430.6853 1680.2459,-429.6401 1687.8361,-437.0319 1690.7891,-430.6853"/>
</g>
<!-- processTemplate&#45;&gt;messages -->
<g id="edge8" class="edge">
<title>processTemplate&#45;&gt;messages</title>
<path fill="none" stroke="#000000" d="M1694.6579,-970.0537C1881.0396,-943.661 2256,-876.0223 2256,-759 2256,-759 2256,-759 2256,-286 2256,-233.9997 2330.7537,-242.695 2077,-133.5083 1972.4341,-88.515 1647.9045,-57.9398 1484.725,-44.9878"/>
<polygon fill="#000000" stroke="#000000" points="1484.9351,-41.4936 1474.6911,-44.1974 1484.3854,-48.4719 1484.9351,-41.4936"/>
</g>
<!-- processTemplate&#45;&gt;matches -->
<g id="edge16" class="edge">
<title>processTemplate&#45;&gt;matches</title>
<path fill="none" stroke="#000000" d="M1531.0196,-963.1398C1457.3153,-935.4989 1336.529,-877.6961 1283,-781.6274 1243.2784,-710.3389 1257.5113,-609.615 1268.6922,-558.4928"/>
<polygon fill="#000000" stroke="#000000" points="1272.1236,-559.1876 1270.9409,-548.659 1265.2997,-557.6271 1272.1236,-559.1876"/>
</g>
<!-- processTemplate&#45;&gt;readjson -->
<g id="edge85" class="edge">
<title>processTemplate&#45;&gt;readjson</title>
<path fill="none" stroke="#000000" d="M1471.9862,-976.4739C1297.419,-965.4301 983.2382,-939.2542 882,-889.6274 772.8485,-836.1216 745.3279,-789.7053 717,-671.4917 711.0981,-646.863 707.2105,-637.8657 717,-614.5083 727.451,-589.5725 748.732,-568.1146 767.977,-552.5739"/>
<polygon fill="#000000" stroke="#000000" points="770.3194,-555.1861 776.0627,-546.283 766.0209,-549.6613 770.3194,-555.1861"/>
</g>
<!-- runCommand -->
<g id="node31" class="node">
<title>runCommand</title>
<g id="a_node31"><a xlink:href="runCommand.md" xlink:title="runCommand.md">
<ellipse fill="#eee8aa" stroke="#000000" cx="996" cy="-867" rx="104.7872" ry="22.7556"/>
<text text-anchor="middle" x="996" y="-859.8" font-family="Times,serif" font-size="24.00" fill="#000000">runCommand</text>
</a>
</g>
</g>
<!-- processTemplate&#45;&gt;runCommand -->
<g id="edge82" class="edge">
<title>processTemplate&#45;&gt;runCommand</title>
<path fill="none" stroke="#000000" d="M1506.6077,-966.38C1394.2842,-944.5184 1197.8732,-906.2908 1084.1787,-884.1623"/>
<polygon fill="#000000" stroke="#000000" points="1084.5996,-880.6786 1074.1151,-882.2036 1083.2622,-887.5497 1084.5996,-880.6786"/>
</g>
<!-- runCommand&#45;&gt;runFunction -->
<g id="edge74" class="edge">
<title>runCommand&#45;&gt;runFunction</title>
<path fill="none" stroke="#000000" d="M924.4114,-850.4796C838.4873,-830.6509 694.9126,-797.5183 606.1654,-777.0382"/>
<polygon fill="#000000" stroke="#000000" points="606.6863,-773.5665 596.1554,-774.7282 605.1122,-780.3872 606.6863,-773.5665"/>
</g>
<!-- runCommand&#45;&gt;parseNumber -->
<g id="edge38" class="edge">
<title>runCommand&#45;&gt;parseNumber</title>
<path fill="none" stroke="#000000" d="M981.5014,-844.289C956.8868,-805.7318 906.6961,-727.1114 876.8466,-680.3541"/>
<polygon fill="#000000" stroke="#000000" points="879.6721,-678.2756 871.341,-671.73 873.7719,-682.0422 879.6721,-678.2756"/>
</g>
<!-- runCommand&#45;&gt;regexes -->
<g id="edge32" class="edge">
<title>runCommand&#45;&gt;regexes</title>
<path fill="none" stroke="#000000" d="M993,-844.3574C984.1214,-773.7118 960.8925,-558.766 999,-503.3726 1018.4616,-475.0831 1101.3356,-446.8818 1163.862,-428.9958"/>
<polygon fill="#000000" stroke="#000000" points="1165.0369,-432.3009 1173.7096,-426.2153 1163.1348,-425.5643 1165.0369,-432.3009"/>
</g>
<!-- runCommand&#45;&gt;parseCmdLine -->
<g id="edge29" class="edge">
<title>runCommand&#45;&gt;parseCmdLine</title>
<path fill="none" stroke="#000000" d="M1096.0469,-860.3637C1203.9455,-851.0273 1379.6642,-829.4553 1524,-781.6274 1565.3727,-767.9179 1571.2985,-754.3572 1611,-736.3726 1669.2244,-709.9971 1737.2692,-683.9595 1786.0059,-666.1087"/>
<polygon fill="#000000" stroke="#000000" points="1787.2922,-669.3651 1795.4872,-662.65 1784.8933,-662.789 1787.2922,-669.3651"/>
</g>
<!-- runCommand&#45;&gt;env -->
<g id="edge33" class="edge">
<title>runCommand&#45;&gt;env</title>
<path fill="none" stroke="#000000" d="M1100.5851,-865.6141C1304.3406,-861.5092 1746.4798,-845.3123 1883,-781.6274 1946.2677,-752.1139 1968.0133,-735.8778 1995,-671.4917 2010.2502,-635.107 2005.0439,-589.0005 1998.6578,-558.5555"/>
<polygon fill="#000000" stroke="#000000" points="2001.9994,-557.464 1996.3813,-548.4814 1995.1716,-559.007 2001.9994,-557.464"/>
</g>
<!-- runCommand&#45;&gt;variables -->
<g id="edge47" class="edge">
<title>runCommand&#45;&gt;variables</title>
<path fill="none" stroke="#000000" d="M1001.6429,-844.362C1016.3146,-785.5028 1055.7059,-627.4741 1072.846,-558.712"/>
<polygon fill="#000000" stroke="#000000" points="1076.2807,-559.4033 1075.3034,-548.8536 1069.4885,-557.7101 1076.2807,-559.4033"/>
</g>
<!-- runCommand&#45;&gt;vartypes -->
<g id="edge35" class="edge">
<title>runCommand&#45;&gt;vartypes</title>
<path fill="none" stroke="#000000" d="M897.468,-859.208C742.2919,-845.9271 455.3823,-816.89 425,-781.6274 409.9035,-764.106 433.5344,-426.8334 441.5173,-318.9121"/>
<polygon fill="#000000" stroke="#000000" points="445.0308,-318.8588 442.2822,-308.6267 438.0501,-318.3396 445.0308,-318.8588"/>
</g>
<!-- runCommand&#45;&gt;readlines -->
<g id="edge30" class="edge">
<title>runCommand&#45;&gt;readlines</title>
<path fill="none" stroke="#000000" d="M1092.8884,-858.3613C1216.8601,-845.9301 1423.4268,-820.1675 1489,-781.6274 1510.6079,-768.9276 1549.7234,-716.7805 1575.5327,-680.2017"/>
<polygon fill="#000000" stroke="#000000" points="1578.5948,-681.9307 1581.4675,-671.7327 1572.8623,-677.9134 1578.5948,-681.9307"/>
</g>
<!-- runCommand&#45;&gt;funtypes -->
<g id="edge51" class="edge">
<title>runCommand&#45;&gt;funtypes</title>
<path fill="none" stroke="#000000" d="M897.4113,-859.3571C735.5562,-845.8931 427.7804,-816.0861 392,-781.6274 360.6059,-751.393 350.3948,-621.0522 347.2765,-559.035"/>
<polygon fill="#000000" stroke="#000000" points="350.7701,-558.8147 346.8038,-548.9903 343.7778,-559.1438 350.7701,-558.8147"/>
</g>
<!-- runCommand&#45;&gt;warnings -->
<g id="edge37" class="edge">
<title>runCommand&#45;&gt;warnings</title>
<path fill="none" stroke="#000000" d="M893.4727,-862.3976C671.1361,-849.9235 156.9568,-806.7388 62,-671.4917 -58.4533,-499.9301 125.3493,-389.7472 288,-257.5083 337.7689,-217.045 406.844,-191.9824 458.1157,-177.7425"/>
<polygon fill="#000000" stroke="#000000" points="459.0585,-181.1133 467.7972,-175.1229 457.2301,-174.3563 459.0585,-181.1133"/>
</g>
<!-- runCommand&#45;&gt;collectCommand -->
<g id="edge81" class="edge">
<title>runCommand&#45;&gt;collectCommand</title>
<path fill="none" stroke="#000000" d="M1083.2507,-854.4526C1220.7826,-834.6744 1487.7327,-796.2848 1637.7922,-774.705"/>
<polygon fill="#000000" stroke="#000000" points="1638.5479,-778.1324 1647.9479,-773.2445 1637.5515,-771.2037 1638.5479,-778.1324"/>
</g>
<!-- runCommand&#45;&gt;messages -->
<g id="edge36" class="edge">
<title>runCommand&#45;&gt;messages</title>
<path fill="none" stroke="#000000" d="M891.8886,-864.6468C695.8957,-858.8901 280.1506,-839.9939 150,-781.6274 67.1704,-744.4822 0,-733.7772 0,-643 0,-643 0,-643 0,-286 0,-147.7965 138.9236,-174.2024 271,-133.5083 460.8612,-75.01 1057.8955,-49.0991 1292.7477,-40.9829"/>
<polygon fill="#000000" stroke="#000000" points="1293.1048,-44.4728 1302.9791,-40.6327 1292.8652,-37.4769 1293.1048,-44.4728"/>
</g>
<!-- runCommand&#45;&gt;matches -->
<g id="edge31" class="edge">
<title>runCommand&#45;&gt;matches</title>
<path fill="none" stroke="#000000" d="M1014.4372,-844.626C1063.3815,-785.231 1196.6286,-623.5326 1252.1725,-556.1287"/>
<polygon fill="#000000" stroke="#000000" points="1255.2018,-557.9562 1258.8602,-548.013 1249.7997,-553.5046 1255.2018,-557.9562"/>
</g>
<!-- runCommand&#45;&gt;readjson -->
<g id="edge80" class="edge">
<title>runCommand&#45;&gt;readjson</title>
<path fill="none" stroke="#000000" d="M945.285,-847.1151C881.3155,-818.9272 774.2185,-760.6476 729,-671.4917 717.5442,-648.9048 720.0502,-638.2002 729,-614.5083 737.8499,-591.0807 756.0401,-569.8411 772.6292,-554.0439"/>
<polygon fill="#000000" stroke="#000000" points="775.1035,-556.5236 780.0992,-547.1804 770.3674,-551.369 775.1035,-556.5236"/>
</g>
</g>
</svg>
