<?xml version="1.0" encoding="UTF-8" standalone="no"?>
<!DOCTYPE svg PUBLIC "-//W3C//DTD SVG 1.1//EN"
 "http://www.w3.org/Graphics/SVG/1.1/DTD/svg11.dtd">
<!-- Generated by graphviz version 7.0.1 (20221109.1506)
 -->
<!-- Title: statictea Pages: 1 -->
<svg width="771pt" height="1754pt"
 viewBox="0.00 0.00 770.78 1754.06" xmlns="http://www.w3.org/2000/svg" xmlns:xlink="http://www.w3.org/1999/xlink">
<g id="graph0" class="graph" transform="scale(1 1) rotate(0) translate(4 1750.06)">
<title>statictea</title>
<polygon fill="white" stroke="none" points="-4,4 -4,-1750.06 766.78,-1750.06 766.78,4 -4,4"/>
<!-- strutils -->
<g id="node1" class="node">
<title>strutils</title>
<ellipse fill="none" stroke="black" cx="88.19" cy="-1158.02" rx="57.97" ry="24.08"/>
<text text-anchor="middle" x="88.19" y="-1151.82" font-family="Times,serif" font-size="24.00">strutils</text>
</g>
<!-- statictea -->
<g id="node2" class="node">
<title>statictea</title>
<g id="a_node2"><a xlink:href="html/statictea.html" xlink:title="statictea" target="_parent">
<ellipse fill="none" stroke="black" cx="613.58" cy="-1590.02" rx="67.35" ry="24.08"/>
<text text-anchor="middle" x="613.58" y="-1583.82" font-family="Times,serif" font-size="24.00">statictea</text>
</a>
</g>
</g>
<!-- strutils&#45;&gt;statictea -->
<g id="edge1" class="edge">
<title>strutils&#45;&gt;statictea</title>
<path fill="none" stroke="black" d="M120.82,-1178.21C138.01,-1189.82 159.2,-1205.21 176.38,-1221.02 321.1,-1354.21 295.75,-1455.79 464.38,-1557.02 486.04,-1570.02 512.25,-1577.91 536.56,-1582.7"/>
<polygon fill="black" stroke="black" points="535.63,-1586.09 546.09,-1584.42 536.87,-1579.2 535.63,-1586.09"/>
</g>
<!-- messages -->
<g id="node10" class="node">
<title>messages</title>
<g id="a_node10"><a xlink:href="html/messages.html" xlink:title="messages" target="_parent">
<ellipse fill="none" stroke="black" cx="613.58" cy="-1260.02" rx="74.91" ry="24.08"/>
<text text-anchor="middle" x="613.58" y="-1253.82" font-family="Times,serif" font-size="24.00">messages</text>
</a>
</g>
</g>
<!-- strutils&#45;&gt;messages -->
<g id="edge7" class="edge">
<title>strutils&#45;&gt;messages</title>
<path fill="none" stroke="black" d="M141.29,-1168.18C234.56,-1186.35 430.35,-1224.51 537.9,-1245.47"/>
<polygon fill="black" stroke="black" points="537.01,-1248.86 547.49,-1247.34 538.35,-1241.99 537.01,-1248.86"/>
</g>
<!-- cmdline -->
<g id="node11" class="node">
<title>cmdline</title>
<g id="a_node11"><a xlink:href="html/cmdline.html" xlink:title="cmdline" target="_parent">
<ellipse fill="none" stroke="black" cx="613.58" cy="-1392.02" rx="66.44" ry="24.08"/>
<text text-anchor="middle" x="613.58" y="-1385.82" font-family="Times,serif" font-size="24.00">cmdline</text>
</a>
</g>
</g>
<!-- strutils&#45;&gt;cmdline -->
<g id="edge12" class="edge">
<title>strutils&#45;&gt;cmdline</title>
<path fill="none" stroke="black" d="M119.94,-1178.28C182.31,-1218.5 329.29,-1308.87 464.38,-1359.02 488.7,-1368.05 516.23,-1375.02 540.9,-1380.17"/>
<polygon fill="black" stroke="black" points="540.04,-1383.56 550.53,-1382.11 541.42,-1376.7 540.04,-1383.56"/>
</g>
<!-- matches -->
<g id="node12" class="node">
<title>matches</title>
<g id="a_node12"><a xlink:href="html/matches.html" xlink:title="matches" target="_parent">
<ellipse fill="none" stroke="black" cx="613.58" cy="-1062.02" rx="67.35" ry="24.08"/>
<text text-anchor="middle" x="613.58" y="-1055.82" font-family="Times,serif" font-size="24.00">matches</text>
</a>
</g>
</g>
<!-- strutils&#45;&gt;matches -->
<g id="edge13" class="edge">
<title>strutils&#45;&gt;matches</title>
<path fill="none" stroke="black" d="M141.77,-1148.38C236.31,-1131.04 435.06,-1094.58 541.58,-1075.04"/>
<polygon fill="black" stroke="black" points="542.16,-1078.5 551.36,-1073.25 540.89,-1071.61 542.16,-1078.5"/>
</g>
<!-- processTemplate -->
<g id="node15" class="node">
<title>processTemplate</title>
<g id="a_node15"><a xlink:href="html/processTemplate.html" xlink:title="processTemplate" target="_parent">
<ellipse fill="none" stroke="black" cx="613.58" cy="-864.02" rx="124.4" ry="24.08"/>
<text text-anchor="middle" x="613.58" y="-857.82" font-family="Times,serif" font-size="24.00">processTemplate</text>
</a>
</g>
</g>
<!-- strutils&#45;&gt;processTemplate -->
<g id="edge20" class="edge">
<title>strutils&#45;&gt;processTemplate</title>
<path fill="none" stroke="black" d="M113.48,-1135.93C170.33,-1085.45 318.33,-961.1 464.38,-897.02 477.56,-891.24 491.85,-886.43 506.19,-882.43"/>
<polygon fill="black" stroke="black" points="506.91,-885.86 515.68,-879.91 505.12,-879.09 506.91,-885.86"/>
</g>
<!-- env -->
<g id="node17" class="node">
<title>env</title>
<g id="a_node17"><a xlink:href="html/env.html" xlink:title="env" target="_parent">
<ellipse fill="none" stroke="black" cx="613.58" cy="-1524.02" rx="36.12" ry="24.08"/>
<text text-anchor="middle" x="613.58" y="-1517.82" font-family="Times,serif" font-size="24.00">env</text>
</a>
</g>
</g>
<!-- strutils&#45;&gt;env -->
<g id="edge26" class="edge">
<title>strutils&#45;&gt;env</title>
<path fill="none" stroke="black" d="M119.76,-1178.68C136.82,-1190.56 158.22,-1206.05 176.38,-1221.02 311.76,-1332.63 309.25,-1409.05 464.38,-1491.02 496,-1507.73 535.73,-1516 566.09,-1520.08"/>
<polygon fill="black" stroke="black" points="565.38,-1523.52 575.73,-1521.26 566.23,-1516.57 565.38,-1523.52"/>
</g>
<!-- tempFile -->
<g id="node19" class="node">
<title>tempFile</title>
<g id="a_node19"><a xlink:href="html/tempFile.html" xlink:title="tempFile" target="_parent">
<ellipse fill="none" stroke="black" cx="613.58" cy="-1458.02" rx="72.25" ry="24.08"/>
<text text-anchor="middle" x="613.58" y="-1451.82" font-family="Times,serif" font-size="24.00">tempFile</text>
</a>
</g>
</g>
<!-- strutils&#45;&gt;tempFile -->
<g id="edge29" class="edge">
<title>strutils&#45;&gt;tempFile</title>
<path fill="none" stroke="black" d="M118.38,-1179.03C204.93,-1241.28 454.73,-1420.72 464.38,-1425.02 486.42,-1434.83 511.64,-1441.85 534.96,-1446.81"/>
<polygon fill="black" stroke="black" points="534.25,-1450.24 544.74,-1448.78 535.63,-1443.38 534.25,-1450.24"/>
</g>
<!-- runCommand -->
<g id="node23" class="node">
<title>runCommand</title>
<g id="a_node23"><a xlink:href="html/runCommand.html" xlink:title="runCommand" target="_parent">
<ellipse fill="none" stroke="black" cx="613.58" cy="-1194.02" rx="105.22" ry="24.08"/>
<text text-anchor="middle" x="613.58" y="-1187.82" font-family="Times,serif" font-size="24.00">runCommand</text>
</a>
</g>
</g>
<!-- strutils&#45;&gt;runCommand -->
<g id="edge37" class="edge">
<title>strutils&#45;&gt;runCommand</title>
<path fill="none" stroke="black" d="M145.7,-1161.91C230.46,-1167.74 392.17,-1178.86 501.21,-1186.36"/>
<polygon fill="black" stroke="black" points="500.85,-1189.85 511.07,-1187.04 501.33,-1182.86 500.85,-1189.85"/>
</g>
<!-- vartypes -->
<g id="node24" class="node">
<title>vartypes</title>
<g id="a_node24"><a xlink:href="html/vartypes.html" xlink:title="vartypes" target="_parent">
<ellipse fill="none" stroke="black" cx="613.58" cy="-732.02" rx="69.09" ry="24.08"/>
<text text-anchor="middle" x="613.58" y="-725.82" font-family="Times,serif" font-size="24.00">vartypes</text>
</a>
</g>
</g>
<!-- strutils&#45;&gt;vartypes -->
<g id="edge42" class="edge">
<title>strutils&#45;&gt;vartypes</title>
<path fill="none" stroke="black" d="M104.15,-1134.44C149.24,-1065.43 291.46,-862.62 464.38,-765.02 485.88,-752.89 511.49,-745.21 535.32,-740.36"/>
<polygon fill="black" stroke="black" points="535.81,-743.83 545,-738.54 534.52,-736.95 535.81,-743.83"/>
</g>
<!-- variables -->
<g id="node25" class="node">
<title>variables</title>
<g id="a_node25"><a xlink:href="html/variables.html" xlink:title="variables" target="_parent">
<ellipse fill="none" stroke="black" cx="613.58" cy="-600.02" rx="72.66" ry="24.08"/>
<text text-anchor="middle" x="613.58" y="-593.82" font-family="Times,serif" font-size="24.00">variables</text>
</a>
</g>
</g>
<!-- strutils&#45;&gt;variables -->
<g id="edge44" class="edge">
<title>strutils&#45;&gt;variables</title>
<path fill="none" stroke="black" d="M102.89,-1134.47C157.47,-1041.42 361.39,-701.19 464.38,-633.02 484.03,-620.02 508.02,-612.07 530.93,-607.24"/>
<polygon fill="black" stroke="black" points="531.41,-610.71 540.57,-605.39 530.09,-603.83 531.41,-610.71"/>
</g>
<!-- functions -->
<g id="node26" class="node">
<title>functions</title>
<g id="a_node26"><a xlink:href="html/functions.html" xlink:title="functions" target="_parent">
<ellipse fill="none" stroke="black" cx="613.58" cy="-1656.02" rx="74.91" ry="24.08"/>
<text text-anchor="middle" x="613.58" y="-1649.82" font-family="Times,serif" font-size="24.00">functions</text>
</a>
</g>
</g>
<!-- strutils&#45;&gt;functions -->
<g id="edge49" class="edge">
<title>strutils&#45;&gt;functions</title>
<path fill="none" stroke="black" d="M121.79,-1177.91C139.07,-1189.32 160.04,-1204.61 176.38,-1221.02 331.48,-1376.75 281.04,-1501.82 464.38,-1623.02 483.47,-1635.64 506.66,-1643.5 528.98,-1648.37"/>
<polygon fill="black" stroke="black" points="528.21,-1651.79 538.7,-1650.3 529.57,-1644.92 528.21,-1651.79"/>
</g>
<!-- unicodes -->
<g id="node32" class="node">
<title>unicodes</title>
<g id="a_node32"><a xlink:href="html/unicodes.html" xlink:title="unicodes" target="_parent">
<ellipse fill="none" stroke="black" cx="613.58" cy="-132.02" rx="71.34" ry="24.08"/>
<text text-anchor="middle" x="613.58" y="-125.82" font-family="Times,serif" font-size="24.00">unicodes</text>
</a>
</g>
</g>
<!-- strutils&#45;&gt;unicodes -->
<g id="edge56" class="edge">
<title>strutils&#45;&gt;unicodes</title>
<path fill="none" stroke="black" d="M103.4,-1134.46C121.75,-1103.45 153.98,-1046.88 176.38,-996.02 332.9,-640.59 179.19,-434.65 464.38,-171.02 482.85,-153.95 507.88,-144.17 532.12,-138.62"/>
<polygon fill="black" stroke="black" points="532.59,-142.1 541.68,-136.66 531.19,-135.24 532.59,-142.1"/>
</g>
<!-- parseMarkdown -->
<g id="node36" class="node">
<title>parseMarkdown</title>
<g id="a_node36"><a xlink:href="html/parseMarkdown.html" xlink:title="parseMarkdown" target="_parent">
<ellipse fill="none" stroke="black" cx="613.58" cy="-1128.02" rx="121.74" ry="24.08"/>
<text text-anchor="middle" x="613.58" y="-1121.82" font-family="Times,serif" font-size="24.00">parseMarkdown</text>
</a>
</g>
</g>
<!-- strutils&#45;&gt;parseMarkdown -->
<g id="edge62" class="edge">
<title>strutils&#45;&gt;parseMarkdown</title>
<path fill="none" stroke="black" d="M145.7,-1154.78C226.31,-1150.16 376.53,-1141.55 484.83,-1135.34"/>
<polygon fill="black" stroke="black" points="484.88,-1138.85 494.66,-1134.78 484.47,-1131.86 484.88,-1138.85"/>
</g>
<!-- replacement -->
<g id="node37" class="node">
<title>replacement</title>
<g id="a_node37"><a xlink:href="html/replacement.html" xlink:title="replacement" target="_parent">
<ellipse fill="none" stroke="black" cx="613.58" cy="-666.02" rx="94.51" ry="24.08"/>
<text text-anchor="middle" x="613.58" y="-659.82" font-family="Times,serif" font-size="24.00">replacement</text>
</a>
</g>
</g>
<!-- strutils&#45;&gt;replacement -->
<g id="edge67" class="edge">
<title>strutils&#45;&gt;replacement</title>
<path fill="none" stroke="black" d="M101.17,-1134.07C140.99,-1057.12 277.1,-814.45 464.38,-699.02 479.62,-689.63 497.2,-682.9 514.81,-678.08"/>
<polygon fill="black" stroke="black" points="515.45,-681.53 524.29,-675.69 513.74,-674.74 515.45,-681.53"/>
</g>
<!-- startingvars -->
<g id="node38" class="node">
<title>startingvars</title>
<g id="a_node38"><a xlink:href="html/startingvars.html" xlink:title="startingvars" target="_parent">
<ellipse fill="none" stroke="black" cx="613.58" cy="-1326.02" rx="90.52" ry="24.08"/>
<text text-anchor="middle" x="613.58" y="-1319.82" font-family="Times,serif" font-size="24.00">startingvars</text>
</a>
</g>
</g>
<!-- strutils&#45;&gt;startingvars -->
<g id="edge70" class="edge">
<title>strutils&#45;&gt;startingvars</title>
<path fill="none" stroke="black" d="M130.54,-1174.85C199.07,-1202.29 340.88,-1257.21 464.38,-1293.02 484.98,-1299 507.46,-1304.51 528.54,-1309.25"/>
<polygon fill="black" stroke="black" points="527.76,-1312.66 538.27,-1311.4 529.27,-1305.82 527.76,-1312.66"/>
</g>
<!-- repl -->
<g id="node41" class="node">
<title>repl</title>
<g id="a_node41"><a xlink:href="html/repl.html" xlink:title="repl" target="_parent">
<ellipse fill="none" stroke="black" cx="613.58" cy="-204.02" rx="38.37" ry="24.08"/>
<text text-anchor="middle" x="613.58" y="-197.82" font-family="Times,serif" font-size="24.00">repl</text>
</a>
</g>
</g>
<!-- strutils&#45;&gt;repl -->
<g id="edge78" class="edge">
<title>strutils&#45;&gt;repl</title>
<path fill="none" stroke="black" d="M103.19,-1134.37C121.32,-1103.25 153.3,-1046.58 176.38,-996.02 326.2,-667.8 191.61,-473.19 464.38,-237.02 491.62,-213.43 532.03,-205.63 563.78,-203.48"/>
<polygon fill="black" stroke="black" points="563.72,-206.98 573.53,-202.99 563.37,-199.99 563.72,-206.98"/>
</g>
<!-- options -->
<g id="node3" class="node">
<title>options</title>
<ellipse fill="none" stroke="black" cx="88.19" cy="-864.02" rx="61.54" ry="24.08"/>
<text text-anchor="middle" x="88.19" y="-857.82" font-family="Times,serif" font-size="24.00">options</text>
</g>
<!-- parseCommandLine -->
<g id="node4" class="node">
<title>parseCommandLine</title>
<g id="a_node4"><a xlink:href="html/parseCommandLine.html" xlink:title="parseCommandLine" target="_parent">
<ellipse fill="none" stroke="black" cx="613.58" cy="-798.02" rx="149.4" ry="24.08"/>
<text text-anchor="middle" x="613.58" y="-791.82" font-family="Times,serif" font-size="24.00">parseCommandLine</text>
</a>
</g>
</g>
<!-- options&#45;&gt;parseCommandLine -->
<g id="edge2" class="edge">
<title>options&#45;&gt;parseCommandLine</title>
<path fill="none" stroke="black" d="M147.2,-856.71C227.79,-846.54 375.82,-827.88 483.34,-814.32"/>
<polygon fill="black" stroke="black" points="483.61,-817.81 493.09,-813.09 482.73,-810.87 483.61,-817.81"/>
</g>
<!-- options&#45;&gt;matches -->
<g id="edge14" class="edge">
<title>options&#45;&gt;matches</title>
<path fill="none" stroke="black" d="M126.31,-883.27C192.6,-916.98 336.41,-987.08 464.38,-1029.02 489.14,-1037.14 516.88,-1043.91 541.6,-1049.16"/>
<polygon fill="black" stroke="black" points="540.74,-1052.56 551.25,-1051.16 542.17,-1045.7 540.74,-1052.56"/>
</g>
<!-- regexes -->
<g id="node14" class="node">
<title>regexes</title>
<g id="a_node14"><a xlink:href="html/regexes.html" xlink:title="regexes" target="_parent">
<ellipse fill="none" stroke="black" cx="613.58" cy="-402.02" rx="62.87" ry="24.08"/>
<text text-anchor="middle" x="613.58" y="-395.82" font-family="Times,serif" font-size="24.00">regexes</text>
</a>
</g>
</g>
<!-- options&#45;&gt;regexes -->
<g id="edge16" class="edge">
<title>options&#45;&gt;regexes</title>
<path fill="none" stroke="black" d="M109.31,-841.24C127,-821.19 153.43,-791.2 176.38,-765.02 304.71,-618.65 297.03,-534.47 464.38,-435.02 487.28,-421.42 515.19,-413.41 540.59,-408.7"/>
<polygon fill="black" stroke="black" points="540.91,-412.2 550.18,-407.07 539.74,-405.3 540.91,-412.2"/>
</g>
<!-- options&#45;&gt;processTemplate -->
<g id="edge18" class="edge">
<title>options&#45;&gt;processTemplate</title>
<path fill="none" stroke="black" d="M150,-864.02C229.66,-864.02 371.62,-864.02 477.33,-864.02"/>
<polygon fill="black" stroke="black" points="477.23,-867.52 487.23,-864.02 477.23,-860.52 477.23,-867.52"/>
</g>
<!-- options&#45;&gt;env -->
<g id="edge25" class="edge">
<title>options&#45;&gt;env</title>
<path fill="none" stroke="black" d="M122.75,-884.19C140.31,-895.95 161.24,-912 176.38,-930.02 356.63,-1144.64 242.59,-1319.67 464.38,-1491.02 493.27,-1513.34 534.27,-1521.17 565.83,-1523.65"/>
<polygon fill="black" stroke="black" points="565.28,-1527.13 575.48,-1524.25 565.71,-1520.14 565.28,-1527.13"/>
</g>
<!-- options&#45;&gt;tempFile -->
<g id="edge30" class="edge">
<title>options&#45;&gt;tempFile</title>
<path fill="none" stroke="black" d="M122.38,-884.51C139.83,-896.36 160.77,-912.4 176.38,-930.02 345.15,-1120.55 258.94,-1274.77 464.38,-1425.02 483.58,-1439.06 507.66,-1447.31 530.79,-1452.09"/>
<polygon fill="black" stroke="black" points="530.08,-1455.52 540.55,-1453.9 531.36,-1448.64 530.08,-1455.52"/>
</g>
<!-- linebuffer -->
<g id="node21" class="node">
<title>linebuffer</title>
<g id="a_node21"><a xlink:href="html/linebuffer.html" xlink:title="linebuffer" target="_parent">
<ellipse fill="none" stroke="black" cx="613.58" cy="-996.02" rx="78.48" ry="24.08"/>
<text text-anchor="middle" x="613.58" y="-989.82" font-family="Times,serif" font-size="24.00">linebuffer</text>
</a>
</g>
</g>
<!-- options&#45;&gt;linebuffer -->
<g id="edge33" class="edge">
<title>options&#45;&gt;linebuffer</title>
<path fill="none" stroke="black" d="M139.1,-877.85C210.84,-897.58 347.37,-934.57 464.38,-963.02 487.93,-968.75 513.69,-974.62 537.02,-979.79"/>
<polygon fill="black" stroke="black" points="536.26,-983.21 546.78,-981.95 537.77,-976.37 536.26,-983.21"/>
</g>
<!-- parseCmdLine -->
<g id="node22" class="node">
<title>parseCmdLine</title>
<g id="a_node22"><a xlink:href="html/parseCmdLine.html" xlink:title="parseCmdLine" target="_parent">
<ellipse fill="none" stroke="black" cx="613.58" cy="-468.02" rx="111.95" ry="24.08"/>
<text text-anchor="middle" x="613.58" y="-461.82" font-family="Times,serif" font-size="24.00">parseCmdLine</text>
</a>
</g>
</g>
<!-- options&#45;&gt;parseCmdLine -->
<g id="edge34" class="edge">
<title>options&#45;&gt;parseCmdLine</title>
<path fill="none" stroke="black" d="M109.74,-841.12C175.14,-768.73 379.2,-546.9 464.38,-501.02 477.64,-493.88 492.36,-488.28 507.23,-483.9"/>
<polygon fill="black" stroke="black" points="507.9,-487.35 516.61,-481.32 506.04,-480.6 507.9,-487.35"/>
</g>
<!-- options&#45;&gt;runCommand -->
<g id="edge36" class="edge">
<title>options&#45;&gt;runCommand</title>
<path fill="none" stroke="black" d="M118.01,-885.52C135.07,-898.33 157.06,-914.97 176.38,-930.02 305.81,-1030.88 316.46,-1090.01 464.38,-1161.02 479.49,-1168.27 496.23,-1173.96 512.87,-1178.41"/>
<polygon fill="black" stroke="black" points="511.74,-1181.74 522.3,-1180.79 513.46,-1174.95 511.74,-1181.74"/>
</g>
<!-- options&#45;&gt;vartypes -->
<g id="edge43" class="edge">
<title>options&#45;&gt;vartypes</title>
<path fill="none" stroke="black" d="M139.1,-850.19C210.84,-830.46 347.37,-793.48 464.38,-765.02 489.92,-758.81 518.06,-752.43 542.88,-746.96"/>
<polygon fill="black" stroke="black" points="543.54,-750.4 552.56,-744.83 542.04,-743.56 543.54,-750.4"/>
</g>
<!-- options&#45;&gt;variables -->
<g id="edge45" class="edge">
<title>options&#45;&gt;variables</title>
<path fill="none" stroke="black" d="M116.63,-842.59C176.35,-797.01 324.04,-689.97 464.38,-633.02 486.74,-623.95 512.05,-617.15 535.35,-612.15"/>
<polygon fill="black" stroke="black" points="536.03,-615.58 545.12,-610.15 534.62,-608.73 536.03,-615.58"/>
</g>
<!-- options&#45;&gt;functions -->
<g id="edge47" class="edge">
<title>options&#45;&gt;functions</title>
<path fill="none" stroke="black" d="M123.77,-884C141.41,-895.59 162.09,-911.55 176.38,-930.02 380.45,-1193.85 208.85,-1408.66 464.38,-1623.02 482.17,-1637.95 505.26,-1646.51 527.9,-1651.32"/>
<polygon fill="black" stroke="black" points="527,-1654.71 537.47,-1653.11 528.28,-1647.83 527,-1654.71"/>
</g>
<!-- parseNumber -->
<g id="node29" class="node">
<title>parseNumber</title>
<g id="a_node29"><a xlink:href="html/parseNumber.html" xlink:title="parseNumber" target="_parent">
<ellipse fill="none" stroke="black" cx="613.58" cy="-42.02" rx="103.48" ry="24.08"/>
<text text-anchor="middle" x="613.58" y="-35.82" font-family="Times,serif" font-size="24.00">parseNumber</text>
</a>
</g>
</g>
<!-- options&#45;&gt;parseNumber -->
<g id="edge53" class="edge">
<title>options&#45;&gt;parseNumber</title>
<path fill="none" stroke="black" d="M112.58,-841.7C131.57,-822.65 158.11,-793.84 176.38,-765.02 349.07,-492.67 231.72,-322.34 464.38,-99.02 481.47,-82.62 503.79,-70.8 525.9,-62.35"/>
<polygon fill="black" stroke="black" points="527.06,-65.65 535.29,-58.97 524.69,-59.06 527.06,-65.65"/>
</g>
<!-- options&#45;&gt;parseMarkdown -->
<g id="edge63" class="edge">
<title>options&#45;&gt;parseMarkdown</title>
<path fill="none" stroke="black" d="M116.63,-885.45C176.35,-931.03 324.04,-1038.07 464.38,-1095.02 478.43,-1100.72 493.66,-1105.53 508.81,-1109.56"/>
<polygon fill="black" stroke="black" points="507.8,-1112.91 518.35,-1111.98 509.52,-1106.12 507.8,-1112.91"/>
</g>
<!-- options&#45;&gt;replacement -->
<g id="edge64" class="edge">
<title>options&#45;&gt;replacement</title>
<path fill="none" stroke="black" d="M126.31,-844.77C192.6,-811.07 336.41,-740.96 464.38,-699.02 483.72,-692.68 504.87,-687.17 524.99,-682.55"/>
<polygon fill="black" stroke="black" points="525.56,-686.01 534.56,-680.41 524.04,-679.18 525.56,-686.01"/>
</g>
<!-- updateTemplate -->
<g id="node39" class="node">
<title>updateTemplate</title>
<g id="a_node39"><a xlink:href="html/updateTemplate.html" xlink:title="updateTemplate" target="_parent">
<ellipse fill="none" stroke="black" cx="613.58" cy="-930.02" rx="119.5" ry="24.08"/>
<text text-anchor="middle" x="613.58" y="-923.82" font-family="Times,serif" font-size="24.00">updateTemplate</text>
</a>
</g>
</g>
<!-- options&#45;&gt;updateTemplate -->
<g id="edge73" class="edge">
<title>options&#45;&gt;updateTemplate</title>
<path fill="none" stroke="black" d="M147.2,-871.34C232.03,-882.03 391.59,-902.15 499.96,-915.82"/>
<polygon fill="black" stroke="black" points="499.41,-919.28 509.77,-917.06 500.28,-912.33 499.41,-919.28"/>
</g>
<!-- options&#45;&gt;repl -->
<g id="edge77" class="edge">
<title>options&#45;&gt;repl</title>
<path fill="none" stroke="black" d="M111.52,-841.63C130.13,-822.32 156.68,-793.17 176.38,-765.02 329.67,-546.03 250.82,-397.78 464.38,-237.02 492.76,-215.66 532.34,-207.64 563.46,-204.84"/>
<polygon fill="black" stroke="black" points="563.7,-208.33 573.42,-204.12 563.19,-201.35 563.7,-208.33"/>
</g>
<!-- tables -->
<g id="node5" class="node">
<title>tables</title>
<ellipse fill="none" stroke="black" cx="88.19" cy="-732.02" rx="50.82" ry="24.08"/>
<text text-anchor="middle" x="88.19" y="-725.82" font-family="Times,serif" font-size="24.00">tables</text>
</g>
<!-- tables&#45;&gt;parseCommandLine -->
<g id="edge3" class="edge">
<title>tables&#45;&gt;parseCommandLine</title>
<path fill="none" stroke="black" d="M137.49,-738.11C215.36,-747.93 371.21,-767.58 483.19,-781.71"/>
<polygon fill="black" stroke="black" points="482.71,-785.17 493.07,-782.95 483.59,-778.23 482.71,-785.17"/>
</g>
<!-- args -->
<g id="node8" class="node">
<title>args</title>
<g id="a_node8"><a xlink:href="html/args.html" xlink:title="args" target="_parent">
<ellipse fill="none" stroke="black" cx="613.58" cy="-270.02" rx="39.7" ry="24.08"/>
<text text-anchor="middle" x="613.58" y="-263.82" font-family="Times,serif" font-size="24.00">args</text>
</a>
</g>
</g>
<!-- tables&#45;&gt;args -->
<g id="edge9" class="edge">
<title>tables&#45;&gt;args</title>
<path fill="none" stroke="black" d="M119.85,-712.94C137.34,-701.33 159.13,-685.58 176.38,-669.02 325.71,-525.69 289.18,-413.25 464.38,-303.02 493.76,-284.54 532.12,-276.34 562.46,-272.73"/>
<polygon fill="black" stroke="black" points="562.57,-276.24 572.15,-271.72 561.84,-269.28 562.57,-276.24"/>
</g>
<!-- tables&#45;&gt;cmdline -->
<g id="edge11" class="edge">
<title>tables&#45;&gt;cmdline</title>
<path fill="none" stroke="black" d="M110.78,-753.64C129.42,-772.95 156.42,-802.5 176.38,-831.02 329.67,-1050.01 250.82,-1198.26 464.38,-1359.02 484.93,-1374.49 511.33,-1382.96 536.15,-1387.52"/>
<polygon fill="black" stroke="black" points="535.49,-1390.96 545.93,-1389.11 536.62,-1384.05 535.49,-1390.96"/>
</g>
<!-- tables&#45;&gt;regexes -->
<g id="edge17" class="edge">
<title>tables&#45;&gt;regexes</title>
<path fill="none" stroke="black" d="M117.76,-711.99C134.93,-699.81 157.11,-683.79 176.38,-669.02 307.27,-568.69 315.93,-506.86 464.38,-435.02 488.36,-423.42 516.49,-415.84 541.77,-410.9"/>
<polygon fill="black" stroke="black" points="542.09,-414.4 551.3,-409.16 540.83,-407.52 542.09,-414.4"/>
</g>
<!-- tables&#45;&gt;processTemplate -->
<g id="edge19" class="edge">
<title>tables&#45;&gt;processTemplate</title>
<path fill="none" stroke="black" d="M132.66,-744.08C202.42,-763.3 343.77,-801.69 464.38,-831.02 481.67,-835.23 500.14,-839.51 517.97,-843.53"/>
<polygon fill="black" stroke="black" points="516.97,-846.9 527.5,-845.67 518.51,-840.07 516.97,-846.9"/>
</g>
<!-- tables&#45;&gt;parseCmdLine -->
<g id="edge35" class="edge">
<title>tables&#45;&gt;parseCmdLine</title>
<path fill="none" stroke="black" d="M118.45,-712.24C193.4,-661.85 391.46,-530.61 464.38,-501.02 479.71,-494.8 496.43,-489.65 512.93,-485.41"/>
<polygon fill="black" stroke="black" points="513.39,-488.91 522.26,-483.12 511.72,-482.11 513.39,-488.91"/>
</g>
<!-- tables&#45;&gt;runCommand -->
<g id="edge38" class="edge">
<title>tables&#45;&gt;runCommand</title>
<path fill="none" stroke="black" d="M108.96,-754.41C126.65,-774.46 153.28,-804.67 176.38,-831.02 304.71,-977.4 297.03,-1061.58 464.38,-1161.02 478.01,-1169.12 493.4,-1175.23 508.99,-1179.85"/>
<polygon fill="black" stroke="black" points="507.77,-1183.14 518.34,-1182.41 509.62,-1176.39 507.77,-1183.14"/>
</g>
<!-- tables&#45;&gt;vartypes -->
<g id="edge41" class="edge">
<title>tables&#45;&gt;vartypes</title>
<path fill="none" stroke="black" d="M139.38,-732.02C230.44,-732.02 423.55,-732.02 532.84,-732.02"/>
<polygon fill="black" stroke="black" points="532.61,-735.52 542.61,-732.02 532.61,-728.52 532.61,-735.52"/>
</g>
<!-- tables&#45;&gt;variables -->
<g id="edge46" class="edge">
<title>tables&#45;&gt;variables</title>
<path fill="none" stroke="black" d="M132.66,-719.96C202.42,-700.75 343.77,-662.35 464.38,-633.02 489.26,-626.97 516.59,-620.76 540.93,-615.39"/>
<polygon fill="black" stroke="black" points="541.4,-618.87 550.41,-613.3 539.89,-612.03 541.4,-618.87"/>
</g>
<!-- tables&#45;&gt;functions -->
<g id="edge48" class="edge">
<title>tables&#45;&gt;functions</title>
<path fill="none" stroke="black" d="M112.26,-753.31C131.57,-772.18 158.74,-801.28 176.38,-831.02 367.47,-1153.16 182.93,-1375.89 464.38,-1623.02 481.83,-1638.34 504.81,-1647.03 527.46,-1651.83"/>
<polygon fill="black" stroke="black" points="526.57,-1655.22 537.04,-1653.61 527.85,-1648.34 526.57,-1655.22"/>
</g>
<!-- signatures -->
<g id="node33" class="node">
<title>signatures</title>
<g id="a_node33"><a xlink:href="html/signatures.html" xlink:title="signatures" target="_parent">
<ellipse fill="none" stroke="black" cx="613.58" cy="-336.02" rx="79.81" ry="24.08"/>
<text text-anchor="middle" x="613.58" y="-329.82" font-family="Times,serif" font-size="24.00">signatures</text>
</a>
</g>
</g>
<!-- tables&#45;&gt;signatures -->
<g id="edge57" class="edge">
<title>tables&#45;&gt;signatures</title>
<path fill="none" stroke="black" d="M118.85,-712.56C136.2,-700.7 158.2,-684.83 176.38,-669.02 315.85,-547.74 303.29,-459.65 464.38,-369.02 483.36,-358.35 505.52,-351.12 526.83,-346.24"/>
<polygon fill="black" stroke="black" points="527.34,-349.71 536.4,-344.21 525.89,-342.86 527.34,-349.71"/>
</g>
<!-- readjson -->
<g id="node34" class="node">
<title>readjson</title>
<g id="a_node34"><a xlink:href="html/readjson.html" xlink:title="readjson" target="_parent">
<ellipse fill="none" stroke="black" cx="613.58" cy="-534.02" rx="69.09" ry="24.08"/>
<text text-anchor="middle" x="613.58" y="-527.82" font-family="Times,serif" font-size="24.00">readjson</text>
</a>
</g>
</g>
<!-- tables&#45;&gt;readjson -->
<g id="edge61" class="edge">
<title>tables&#45;&gt;readjson</title>
<path fill="none" stroke="black" d="M123.47,-714.22C188.42,-681.11 334.55,-609.57 464.38,-567.02 488.71,-559.05 515.91,-552.38 540.3,-547.16"/>
<polygon fill="black" stroke="black" points="540.73,-550.65 549.81,-545.18 539.3,-543.8 540.73,-550.65"/>
</g>
<!-- tables&#45;&gt;startingvars -->
<g id="edge69" class="edge">
<title>tables&#45;&gt;startingvars</title>
<path fill="none" stroke="black" d="M110.38,-753.94C128.76,-773.43 155.6,-803.09 176.38,-831.02 320.83,-1025.14 266.92,-1153.18 464.38,-1293.02 479.5,-1303.73 497.5,-1311.05 515.65,-1316.03"/>
<polygon fill="black" stroke="black" points="514.62,-1319.38 525.17,-1318.4 516.31,-1312.59 514.62,-1319.38"/>
</g>
<!-- tables&#45;&gt;updateTemplate -->
<g id="edge74" class="edge">
<title>tables&#45;&gt;updateTemplate</title>
<path fill="none" stroke="black" d="M123.47,-749.83C188.42,-782.93 334.55,-854.47 464.38,-897.02 480.3,-902.24 497.46,-906.9 514.25,-910.96"/>
<polygon fill="black" stroke="black" points="513.21,-914.31 523.74,-913.2 514.81,-907.5 513.21,-914.31"/>
</g>
<!-- tables&#45;&gt;repl -->
<g id="edge76" class="edge">
<title>tables&#45;&gt;repl</title>
<path fill="none" stroke="black" d="M120.76,-713.17C138.34,-701.74 159.93,-686.11 176.38,-669.02 336.44,-502.81 274.05,-367.5 464.38,-237.02 493.49,-217.07 532.69,-208.96 563.46,-205.76"/>
<polygon fill="black" stroke="black" points="563.64,-209.26 573.3,-204.9 563.03,-202.29 563.64,-209.26"/>
</g>
<!-- os -->
<g id="node6" class="node">
<title>os</title>
<ellipse fill="none" stroke="black" cx="88.19" cy="-1359.02" rx="27" ry="24.08"/>
<text text-anchor="middle" x="88.19" y="-1352.82" font-family="Times,serif" font-size="24.00">os</text>
</g>
<!-- os&#45;&gt;statictea -->
<g id="edge84" class="edge">
<title>os&#45;&gt;statictea</title>
<path fill="none" stroke="black" d="M110.65,-1373C166.57,-1408.83 322.33,-1504.79 464.38,-1557.02 488.62,-1565.94 516.02,-1572.86 540.61,-1578.01"/>
<polygon fill="black" stroke="black" points="539.7,-1581.4 550.2,-1579.96 541.09,-1574.54 539.7,-1581.4"/>
</g>
<!-- os&#45;&gt;parseCommandLine -->
<g id="edge4" class="edge">
<title>os&#45;&gt;parseCommandLine</title>
<path fill="none" stroke="black" d="M111.89,-1346.96C130.72,-1336.17 157.4,-1319 176.38,-1299.02 344.61,-1121.97 265.48,-972.75 464.38,-831.02 471.55,-825.91 479.37,-821.58 487.55,-817.9"/>
<polygon fill="black" stroke="black" points="488.76,-821.18 496.68,-814.15 486.1,-814.71 488.76,-821.18"/>
</g>
<!-- os&#45;&gt;cmdline -->
<g id="edge10" class="edge">
<title>os&#45;&gt;cmdline</title>
<path fill="none" stroke="black" d="M115.5,-1360.68C192.22,-1365.52 417.71,-1379.74 536.84,-1387.25"/>
<polygon fill="black" stroke="black" points="536.32,-1390.72 546.52,-1387.86 536.76,-1383.73 536.32,-1390.72"/>
</g>
<!-- os&#45;&gt;env -->
<g id="edge23" class="edge">
<title>os&#45;&gt;env</title>
<path fill="none" stroke="black" d="M113.45,-1368.69C172.66,-1392.05 329.62,-1452.46 464.38,-1491.02 498.5,-1500.79 537.72,-1509.41 567.24,-1515.39"/>
<polygon fill="black" stroke="black" points="566.47,-1518.8 576.96,-1517.33 567.84,-1511.94 566.47,-1518.8"/>
</g>
<!-- os&#45;&gt;tempFile -->
<g id="edge27" class="edge">
<title>os&#45;&gt;tempFile</title>
<path fill="none" stroke="black" d="M114.79,-1363.86C191.24,-1378.32 419.92,-1421.58 538.87,-1444.08"/>
<polygon fill="black" stroke="black" points="538.06,-1447.49 548.54,-1445.91 539.36,-1440.61 538.06,-1447.49"/>
</g>
<!-- os&#45;&gt;runCommand -->
<g id="edge39" class="edge">
<title>os&#45;&gt;runCommand</title>
<path fill="none" stroke="black" d="M113.45,-1349.35C172.66,-1325.99 329.62,-1265.58 464.38,-1227.02 482.92,-1221.72 502.96,-1216.75 522.13,-1212.36"/>
<polygon fill="black" stroke="black" points="522.84,-1215.79 531.83,-1210.18 521.3,-1208.96 522.84,-1215.79"/>
</g>
<!-- os&#45;&gt;functions -->
<g id="edge51" class="edge">
<title>os&#45;&gt;functions</title>
<path fill="none" stroke="black" d="M110.39,-1373.49C128.08,-1385.59 153.93,-1403.35 176.38,-1419.02 304.99,-1508.82 321.01,-1559.39 464.38,-1623.02 485.81,-1632.53 510.24,-1639.42 533,-1644.36"/>
<polygon fill="black" stroke="black" points="532.03,-1647.73 542.53,-1646.32 533.44,-1640.87 532.03,-1647.73"/>
</g>
<!-- os&#45;&gt;readjson -->
<g id="edge59" class="edge">
<title>os&#45;&gt;readjson</title>
<path fill="none" stroke="black" d="M112.45,-1347.98C131.89,-1337.72 159.12,-1320.75 176.38,-1299.02 393.88,-1025.31 198.69,-794.25 464.38,-567.02 483.49,-550.68 508.93,-541.93 533.34,-537.39"/>
<polygon fill="black" stroke="black" points="533.65,-540.89 542.96,-535.83 532.53,-533.98 533.65,-540.89"/>
</g>
<!-- os&#45;&gt;startingvars -->
<g id="edge68" class="edge">
<title>os&#45;&gt;startingvars</title>
<path fill="none" stroke="black" d="M115.5,-1357.36C187.52,-1352.82 390.66,-1340.01 513.82,-1332.25"/>
<polygon fill="black" stroke="black" points="513.85,-1335.75 523.61,-1331.63 513.41,-1328.77 513.85,-1335.75"/>
</g>
<!-- os&#45;&gt;updateTemplate -->
<g id="edge72" class="edge">
<title>os&#45;&gt;updateTemplate</title>
<path fill="none" stroke="black" d="M111.12,-1346.16C129.47,-1334.88 155.89,-1317.45 176.38,-1299.02 322.62,-1167.5 295.75,-1064.25 464.38,-963.02 475.77,-956.19 488.42,-950.76 501.38,-946.46"/>
<polygon fill="black" stroke="black" points="502.35,-949.82 510.89,-943.55 500.3,-943.13 502.35,-949.82"/>
</g>
<!-- strformat -->
<g id="node7" class="node">
<title>strformat</title>
<ellipse fill="none" stroke="black" cx="88.19" cy="-636.02" rx="74.49" ry="24.08"/>
<text text-anchor="middle" x="88.19" y="-629.82" font-family="Times,serif" font-size="24.00">strformat</text>
</g>
<!-- strformat&#45;&gt;args -->
<g id="edge5" class="edge">
<title>strformat&#45;&gt;args</title>
<path fill="none" stroke="black" d="M121.4,-614.22C138.17,-602.5 158.8,-587.52 176.38,-573.02 311.76,-461.42 309.25,-384.99 464.38,-303.02 494.86,-286.92 532.88,-278.65 562.78,-274.42"/>
<polygon fill="black" stroke="black" points="562.84,-277.95 572.31,-273.19 561.94,-271 562.84,-277.95"/>
</g>
<!-- strformat&#45;&gt;messages -->
<g id="edge8" class="edge">
<title>strformat&#45;&gt;messages</title>
<path fill="none" stroke="black" d="M125.62,-657.07C142.48,-668.06 161.94,-682.63 176.38,-699.02 353.08,-899.59 250.82,-1066.26 464.38,-1227.02 482.76,-1240.86 505.82,-1249.09 528.25,-1253.94"/>
<polygon fill="black" stroke="black" points="527.57,-1257.37 538.05,-1255.83 528.89,-1250.5 527.57,-1257.37"/>
</g>
<!-- strformat&#45;&gt;replacement -->
<g id="edge66" class="edge">
<title>strformat&#45;&gt;replacement</title>
<path fill="none" stroke="black" d="M161.97,-640.19C252.39,-645.38 407.26,-654.25 509.77,-660.13"/>
<polygon fill="black" stroke="black" points="509.38,-663.61 519.56,-660.69 509.78,-656.62 509.38,-663.61"/>
</g>
<!-- strformat&#45;&gt;repl -->
<g id="edge79" class="edge">
<title>strformat&#45;&gt;repl</title>
<path fill="none" stroke="black" d="M122.91,-614.42C139.7,-602.99 159.89,-588.2 176.38,-573.02 321.1,-439.83 295.75,-338.25 464.38,-237.02 494.44,-218.98 533.27,-210.78 563.64,-207.06"/>
<polygon fill="black" stroke="black" points="563.76,-210.57 573.33,-206.01 563.01,-203.61 563.76,-210.57"/>
</g>
<!-- macros -->
<g id="node9" class="node">
<title>macros</title>
<polygon fill="palegreen" stroke="black" points="153.84,-1249.24 153.84,-1270.81 115.39,-1286.06 61,-1286.06 22.54,-1270.81 22.54,-1249.24 61,-1233.98 115.39,-1233.98 153.84,-1249.24"/>
<polygon fill="none" stroke="black" points="157.83,-1246.51 157.83,-1273.53 116.15,-1290.07 60.24,-1290.07 18.55,-1273.53 18.55,-1246.51 60.24,-1229.98 116.15,-1229.98 157.83,-1246.51"/>
<text text-anchor="middle" x="88.19" y="-1253.82" font-family="Times,serif" font-size="24.00">macros</text>
</g>
<!-- macros&#45;&gt;messages -->
<g id="edge6" class="edge">
<title>macros&#45;&gt;messages</title>
<path fill="none" stroke="black" d="M158.15,-1260.02C253.13,-1260.02 424.12,-1260.02 527.11,-1260.02"/>
<polygon fill="black" stroke="black" points="526.88,-1263.52 536.88,-1260.02 526.88,-1256.52 526.88,-1263.52"/>
</g>
<!-- re -->
<g id="node13" class="node">
<title>re</title>
<polygon fill="palegreen" stroke="black" points="115.19,-409.24 115.19,-430.81 99.37,-446.06 77.01,-446.06 61.19,-430.81 61.19,-409.24 77.01,-393.98 99.37,-393.98 115.19,-409.24"/>
<polygon fill="none" stroke="black" points="119.19,-407.53 119.19,-432.51 100.99,-450.07 75.39,-450.07 57.19,-432.51 57.19,-407.53 75.39,-389.98 100.99,-389.98 119.19,-407.53"/>
<text text-anchor="middle" x="88.19" y="-413.82" font-family="Times,serif" font-size="24.00">re</text>
</g>
<!-- re&#45;&gt;regexes -->
<g id="edge15" class="edge">
<title>re&#45;&gt;regexes</title>
<path fill="none" stroke="black" d="M119.59,-418.98C200.56,-416.19 423.19,-408.54 539.56,-404.53"/>
<polygon fill="black" stroke="black" points="539.43,-408.04 549.31,-404.2 539.19,-401.04 539.43,-408.04"/>
</g>
<!-- streams -->
<g id="node16" class="node">
<title>streams</title>
<ellipse fill="none" stroke="black" cx="88.19" cy="-963.02" rx="62.87" ry="24.08"/>
<text text-anchor="middle" x="88.19" y="-956.82" font-family="Times,serif" font-size="24.00">streams</text>
</g>
<!-- streams&#45;&gt;processTemplate -->
<g id="edge21" class="edge">
<title>streams&#45;&gt;processTemplate</title>
<path fill="none" stroke="black" d="M145.2,-952.43C232.78,-935.86 403.38,-903.59 512.46,-882.96"/>
<polygon fill="black" stroke="black" points="512.81,-886.46 521.98,-881.16 511.51,-879.58 512.81,-886.46"/>
</g>
<!-- streams&#45;&gt;env -->
<g id="edge22" class="edge">
<title>streams&#45;&gt;env</title>
<path fill="none" stroke="black" d="M102.88,-986.71C157.39,-1080.29 361.09,-1422.45 464.38,-1491.02 494.47,-1510.99 534.79,-1519.04 565.78,-1522.21"/>
<polygon fill="black" stroke="black" points="565.39,-1525.69 575.66,-1523.06 566,-1518.71 565.39,-1525.69"/>
</g>
<!-- streams&#45;&gt;tempFile -->
<g id="edge31" class="edge">
<title>streams&#45;&gt;tempFile</title>
<path fill="none" stroke="black" d="M100.99,-986.86C140.5,-1064.02 276.33,-1308.71 464.38,-1425.02 484.51,-1437.47 508.76,-1445.25 531.75,-1450.1"/>
<polygon fill="black" stroke="black" points="530.95,-1453.51 541.43,-1451.97 532.27,-1446.64 530.95,-1453.51"/>
</g>
<!-- streams&#45;&gt;linebuffer -->
<g id="edge32" class="edge">
<title>streams&#45;&gt;linebuffer</title>
<path fill="none" stroke="black" d="M150.51,-966.89C243.1,-972.73 419.01,-983.82 525.05,-990.5"/>
<polygon fill="black" stroke="black" points="524.64,-993.98 534.85,-991.12 525.09,-987 524.64,-993.98"/>
</g>
<!-- streams&#45;&gt;runCommand -->
<g id="edge40" class="edge">
<title>streams&#45;&gt;runCommand</title>
<path fill="none" stroke="black" d="M121.44,-983.87C184.71,-1023.89 330.62,-1111.84 464.38,-1161.02 481.28,-1167.24 499.72,-1172.49 517.67,-1176.84"/>
<polygon fill="black" stroke="black" points="516.75,-1180.22 527.29,-1179.09 518.35,-1173.4 516.75,-1180.22"/>
</g>
<!-- streams&#45;&gt;readjson -->
<g id="edge58" class="edge">
<title>streams&#45;&gt;readjson</title>
<path fill="none" stroke="black" d="M120.27,-941.87C137.49,-929.58 158.89,-913.34 176.38,-897.02 318.74,-764.24 297.03,-666.47 464.38,-567.02 485.61,-554.41 511.14,-546.61 534.99,-541.79"/>
<polygon fill="black" stroke="black" points="535.48,-545.25 544.68,-539.99 534.21,-538.37 535.48,-545.25"/>
</g>
<!-- streams&#45;&gt;replacement -->
<g id="edge65" class="edge">
<title>streams&#45;&gt;replacement</title>
<path fill="none" stroke="black" d="M118.34,-941.51C199.79,-881.56 426.27,-715.86 464.38,-699.02 481.81,-691.32 501.22,-685.33 520.1,-680.71"/>
<polygon fill="black" stroke="black" points="520.71,-684.16 529.66,-678.49 519.13,-677.34 520.71,-684.16"/>
</g>
<!-- streams&#45;&gt;updateTemplate -->
<g id="edge71" class="edge">
<title>streams&#45;&gt;updateTemplate</title>
<path fill="none" stroke="black" d="M150.51,-959.16C232.88,-953.96 381.18,-944.61 487.58,-937.9"/>
<polygon fill="black" stroke="black" points="487.77,-941.4 497.53,-937.28 487.33,-934.41 487.77,-941.4"/>
</g>
<!-- times -->
<g id="node18" class="node">
<title>times</title>
<ellipse fill="none" stroke="red" cx="88.19" cy="-1554.02" rx="48.17" ry="24.08"/>
<text text-anchor="middle" x="88.19" y="-1547.82" font-family="Times,serif" font-size="24.00">times</text>
</g>
<!-- times&#45;&gt;env -->
<g id="edge24" class="edge">
<title>times&#45;&gt;env</title>
<path fill="none" stroke="red" d="M136.1,-1551.33C235.56,-1545.63 466.61,-1532.39 565.88,-1526.7"/>
<polygon fill="red" stroke="red" points="566.02,-1530.2 575.8,-1526.13 565.62,-1523.21 566.02,-1530.2"/>
</g>
<!-- timer -->
<g id="node44" class="node">
<title>timer</title>
<g id="a_node44"><a xlink:href="html/timer.html" xlink:title="timer" target="_parent">
<ellipse fill="none" stroke="black" cx="613.58" cy="-1722.02" rx="48.17" ry="24.08"/>
<text text-anchor="middle" x="613.58" y="-1715.82" font-family="Times,serif" font-size="24.00">timer</text>
</a>
</g>
</g>
<!-- times&#45;&gt;timer -->
<g id="edge82" class="edge">
<title>times&#45;&gt;timer</title>
<path fill="none" stroke="red" d="M126.22,-1569.12C192.96,-1595.92 338.22,-1652.44 464.38,-1689.02 494.64,-1697.8 528.95,-1705.57 556.94,-1711.37"/>
<polygon fill="red" stroke="red" points="556.13,-1714.78 566.63,-1713.35 557.53,-1707.92 556.13,-1714.78"/>
</g>
<!-- random -->
<g id="node20" class="node">
<title>random</title>
<polygon fill="palegreen" stroke="black" points="156.96,-1447.24 156.96,-1468.81 116.68,-1484.06 59.7,-1484.06 19.42,-1468.81 19.42,-1447.24 59.7,-1431.98 116.68,-1431.98 156.96,-1447.24"/>
<polygon fill="none" stroke="black" points="160.96,-1444.47 160.96,-1471.58 117.41,-1488.07 58.97,-1488.07 15.42,-1471.58 15.42,-1444.47 58.97,-1427.98 117.41,-1427.98 160.96,-1444.47"/>
<text text-anchor="middle" x="88.19" y="-1451.82" font-family="Times,serif" font-size="24.00">random</text>
</g>
<!-- random&#45;&gt;tempFile -->
<g id="edge28" class="edge">
<title>random&#45;&gt;tempFile</title>
<path fill="none" stroke="black" d="M161.42,-1458.02C257.81,-1458.02 428.14,-1458.02 529.67,-1458.02"/>
<polygon fill="black" stroke="black" points="529.58,-1461.52 539.58,-1458.02 529.58,-1454.52 529.58,-1461.52"/>
</g>
<!-- math -->
<g id="node27" class="node">
<title>math</title>
<ellipse fill="none" stroke="red" cx="88.19" cy="-1722.02" rx="45.92" ry="24.08"/>
<text text-anchor="middle" x="88.19" y="-1715.82" font-family="Times,serif" font-size="24.00">math</text>
</g>
<!-- math&#45;&gt;functions -->
<g id="edge50" class="edge">
<title>math&#45;&gt;functions</title>
<path fill="none" stroke="red" d="M133.36,-1716.45C221.52,-1705.34 420.41,-1680.25 532.28,-1666.15"/>
<polygon fill="red" stroke="red" points="532.5,-1669.65 541.98,-1664.92 531.62,-1662.7 532.5,-1669.65"/>
</g>
<!-- math&#45;&gt;timer -->
<g id="edge83" class="edge">
<title>math&#45;&gt;timer</title>
<path fill="none" stroke="red" d="M134.27,-1722.02C228.91,-1722.02 448.27,-1722.02 553.79,-1722.02"/>
<polygon fill="red" stroke="red" points="553.66,-1725.52 563.66,-1722.02 553.66,-1718.52 553.66,-1725.52"/>
</g>
<!-- algorithm -->
<g id="node28" class="node">
<title>algorithm</title>
<polygon fill="palegreen" stroke="black" points="172.56,-1639.24 172.56,-1660.81 123.14,-1676.06 53.24,-1676.06 3.82,-1660.81 3.82,-1639.24 53.24,-1623.98 123.14,-1623.98 172.56,-1639.24"/>
<polygon fill="none" stroke="black" points="176.57,-1636.28 176.57,-1663.76 123.74,-1680.07 52.64,-1680.07 -0.19,-1663.76 -0.19,-1636.28 52.64,-1619.98 123.74,-1619.98 176.57,-1636.28"/>
<text text-anchor="middle" x="88.19" y="-1643.82" font-family="Times,serif" font-size="24.00">algorithm</text>
</g>
<!-- algorithm&#45;&gt;functions -->
<g id="edge52" class="edge">
<title>algorithm&#45;&gt;functions</title>
<path fill="none" stroke="black" d="M176.79,-1651.03C274.11,-1652.14 430.21,-1653.93 526.78,-1655.04"/>
<polygon fill="black" stroke="black" points="526.71,-1658.54 536.75,-1655.15 526.79,-1651.54 526.71,-1658.54"/>
</g>
<!-- parseutils -->
<g id="node30" class="node">
<title>parseutils</title>
<polygon fill="palegreen" stroke="black" points="171,-19.24 171,-40.81 122.49,-56.06 53.89,-56.06 5.38,-40.81 5.38,-19.24 53.89,-3.98 122.49,-3.98 171,-19.24"/>
<polygon fill="none" stroke="black" points="175.01,-16.3 175.01,-43.75 123.11,-60.07 53.27,-60.07 1.37,-43.75 1.37,-16.3 53.27,0.02 123.11,0.02 175.01,-16.3"/>
<text text-anchor="middle" x="88.19" y="-23.82" font-family="Times,serif" font-size="24.00">parseutils</text>
</g>
<!-- parseutils&#45;&gt;parseNumber -->
<g id="edge54" class="edge">
<title>parseutils&#45;&gt;parseNumber</title>
<path fill="none" stroke="black" d="M175.32,-32C263.67,-34.02 401.55,-37.18 498.82,-39.41"/>
<polygon fill="black" stroke="black" points="498.59,-42.91 508.67,-39.64 498.75,-35.91 498.59,-42.91"/>
</g>
<!-- unicode -->
<g id="node31" class="node">
<title>unicode</title>
<polygon fill="palegreen" stroke="black" points="158.52,-97.24 158.52,-118.81 117.32,-134.06 59.06,-134.06 17.86,-118.81 17.86,-97.24 59.06,-81.98 117.32,-81.98 158.52,-97.24"/>
<polygon fill="none" stroke="black" points="162.52,-94.45 162.52,-121.6 118.04,-138.07 58.34,-138.07 13.86,-121.6 13.86,-94.45 58.34,-77.98 118.04,-77.98 162.52,-94.45"/>
<text text-anchor="middle" x="88.19" y="-101.82" font-family="Times,serif" font-size="24.00">unicode</text>
</g>
<!-- unicode&#45;&gt;unicodes -->
<g id="edge55" class="edge">
<title>unicode&#45;&gt;unicodes</title>
<path fill="none" stroke="black" d="M162.79,-111.4C259.99,-115.85 430.58,-123.68 531.42,-128.3"/>
<polygon fill="black" stroke="black" points="531.09,-131.79 541.24,-128.75 531.41,-124.8 531.09,-131.79"/>
</g>
<!-- json -->
<g id="node35" class="node">
<title>json</title>
<polygon fill="palegreen" stroke="black" points="130.92,-523.24 130.92,-544.81 105.89,-560.06 70.49,-560.06 45.46,-544.81 45.46,-523.24 70.49,-507.98 105.89,-507.98 130.92,-523.24"/>
<polygon fill="none" stroke="black" points="134.91,-520.98 134.91,-547.06 107.01,-564.07 69.37,-564.07 41.47,-547.06 41.47,-520.98 69.37,-503.98 107.01,-503.98 134.91,-520.98"/>
<text text-anchor="middle" x="88.19" y="-527.82" font-family="Times,serif" font-size="24.00">json</text>
</g>
<!-- json&#45;&gt;readjson -->
<g id="edge60" class="edge">
<title>json&#45;&gt;readjson</title>
<path fill="none" stroke="black" d="M135.18,-534.02C224.32,-534.02 421.59,-534.02 532.63,-534.02"/>
<polygon fill="black" stroke="black" points="532.57,-537.52 542.57,-534.02 532.57,-530.52 532.57,-537.52"/>
</g>
<!-- rdstdin -->
<g id="node40" class="node">
<title>rdstdin</title>
<polygon fill="palegreen" stroke="black" points="151.74,-331.24 151.74,-352.81 114.51,-368.06 61.87,-368.06 24.64,-352.81 24.64,-331.24 61.87,-315.98 114.51,-315.98 151.74,-331.24"/>
<polygon fill="none" stroke="black" points="155.74,-328.55 155.74,-355.5 115.3,-372.07 61.08,-372.07 20.64,-355.5 20.64,-328.55 61.08,-311.98 115.3,-311.98 155.74,-328.55"/>
<text text-anchor="middle" x="88.19" y="-335.82" font-family="Times,serif" font-size="24.00">rdstdin</text>
</g>
<!-- rdstdin&#45;&gt;repl -->
<g id="edge75" class="edge">
<title>rdstdin&#45;&gt;repl</title>
<path fill="none" stroke="black" d="M147.42,-324.68C220.96,-303.01 351.54,-265.35 464.38,-237.02 498.12,-228.55 536.46,-220.04 565.69,-213.79"/>
<polygon fill="black" stroke="black" points="566.29,-217.24 575.34,-211.74 564.83,-210.39 566.29,-217.24"/>
</g>
<!-- terminal -->
<g id="node42" class="node">
<title>terminal</title>
<polygon fill="palegreen" stroke="black" points="162.66,-253.24 162.66,-274.81 119.04,-290.06 57.34,-290.06 13.72,-274.81 13.72,-253.24 57.34,-237.98 119.04,-237.98 162.66,-253.24"/>
<polygon fill="none" stroke="black" points="166.67,-250.4 166.67,-277.65 119.72,-294.07 56.66,-294.07 9.71,-277.65 9.71,-250.4 56.66,-233.98 119.72,-233.98 166.67,-250.4"/>
<text text-anchor="middle" x="88.19" y="-257.82" font-family="Times,serif" font-size="24.00">terminal</text>
</g>
<!-- terminal&#45;&gt;repl -->
<g id="edge80" class="edge">
<title>terminal&#45;&gt;repl</title>
<path fill="none" stroke="black" d="M166.98,-255.1C276.65,-242.53 473.45,-219.97 564.25,-209.56"/>
<polygon fill="black" stroke="black" points="564.53,-213.05 574.06,-208.44 563.73,-206.1 564.53,-213.05"/>
</g>
<!-- exitprocs -->
<g id="node43" class="node">
<title>exitprocs</title>
<polygon fill="palegreen" stroke="black" points="167.88,-175.24 167.88,-196.81 121.2,-212.06 55.18,-212.06 8.5,-196.81 8.5,-175.24 55.18,-159.98 121.2,-159.98 167.88,-175.24"/>
<polygon fill="none" stroke="black" points="171.89,-172.33 171.89,-199.71 121.84,-216.07 54.54,-216.07 4.49,-199.71 4.49,-172.33 54.54,-155.98 121.84,-155.98 171.89,-172.33"/>
<text text-anchor="middle" x="88.19" y="-179.82" font-family="Times,serif" font-size="24.00">exitprocs</text>
</g>
<!-- exitprocs&#45;&gt;repl -->
<g id="edge81" class="edge">
<title>exitprocs&#45;&gt;repl</title>
<path fill="none" stroke="black" d="M172.12,-188.87C282.33,-192.66 473.56,-199.24 563.34,-202.33"/>
<polygon fill="black" stroke="black" points="563.18,-205.83 573.3,-202.67 563.42,-198.83 563.18,-205.83"/>
</g>
</g>
</svg>
