<?xml version="1.0" encoding="UTF-8" standalone="no"?>
<!DOCTYPE svg PUBLIC "-//W3C//DTD SVG 1.1//EN"
 "http://www.w3.org/Graphics/SVG/1.1/DTD/svg11.dtd">
<!-- Generated by graphviz version 7.0.1 (20221109.1506)
 -->
<!-- Title: statictea Pages: 1 -->
<svg width="3381pt" height="1648pt"
 viewBox="0.00 0.00 3381.00 1648.01" xmlns="http://www.w3.org/2000/svg" xmlns:xlink="http://www.w3.org/1999/xlink">
<g id="graph0" class="graph" transform="scale(1 1) rotate(0) translate(4 1644.01)">
<title>statictea</title>
<polygon fill="white" stroke="none" points="-4,4 -4,-1644.01 3377,-1644.01 3377,4 -4,4"/>
<!-- args -->
<g id="node1" class="node">
<title>args</title>
<g id="a_node1"><a xlink:href="html/args.html" xlink:title="args.md" target="_parent">
<ellipse fill="palegoldenrod" stroke="black" cx="581" cy="-603" rx="39.7" ry="24.08"/>
<text text-anchor="middle" x="581" y="-596.8" font-family="Times,serif" font-size="24.00">args</text>
</a>
</g>
</g>
<!-- messages -->
<g id="node10" class="node">
<title>messages</title>
<g id="a_node10"><a xlink:href="html/messages.html" xlink:title="messages.md" target="_parent">
<polygon fill="palegreen" stroke="black" points="1391.25,-33.21 1391.25,-54.79 1343.66,-70.04 1276.34,-70.04 1228.75,-54.79 1228.75,-33.21 1276.34,-17.96 1343.66,-17.96 1391.25,-33.21"/>
<polygon fill="none" stroke="black" points="1395.26,-30.29 1395.26,-57.71 1344.28,-74.04 1275.72,-74.04 1224.74,-57.71 1224.74,-30.29 1275.72,-13.96 1344.28,-13.96 1395.26,-30.29"/>
<text text-anchor="middle" x="1310" y="-37.8" font-family="Times,serif" font-size="24.00">messages</text>
</a>
</g>
</g>
<!-- args&#45;&gt;messages -->
<g id="edge1" class="edge">
<title>args&#45;&gt;messages</title>
<path fill="none" stroke="black" d="M573.43,-578.94C551.01,-505.76 493.22,-276.34 605,-152.96 684.53,-65.18 1038.97,-48.3 1212.98,-45.38"/>
<polygon fill="black" stroke="black" points="1212.97,-48.88 1222.91,-45.23 1212.86,-41.88 1212.97,-48.88"/>
</g>
<!-- opresult -->
<g id="node11" class="node">
<title>opresult</title>
<g id="a_node11"><a xlink:href="html/opresult.html" xlink:title="opresult.md" target="_parent">
<ellipse fill="palegoldenrod" stroke="black" cx="1367" cy="-177" rx="66.44" ry="24.08"/>
<text text-anchor="middle" x="1367" y="-170.8" font-family="Times,serif" font-size="24.00">opresult</text>
</a>
</g>
</g>
<!-- args&#45;&gt;opresult -->
<g id="edge3" class="edge">
<title>args&#45;&gt;opresult</title>
<path fill="none" stroke="black" d="M597.19,-580.84C642.64,-522.99 778.01,-361.22 929,-281.06 1045.95,-218.97 1200.05,-193.92 1290.83,-184.08"/>
<polygon fill="black" stroke="black" points="1291.04,-187.58 1300.62,-183.06 1290.31,-180.62 1291.04,-187.58"/>
</g>
<!-- cmdline -->
<g id="node2" class="node">
<title>cmdline</title>
<g id="a_node2"><a xlink:href="html/cmdline.html" xlink:title="cmdline.md" target="_parent">
<polygon fill="palegreen" stroke="black" points="248.89,-592.21 248.89,-613.79 206.78,-629.04 147.22,-629.04 105.11,-613.79 105.11,-592.21 147.22,-576.96 206.78,-576.96 248.89,-592.21"/>
<polygon fill="none" stroke="black" points="252.89,-589.4 252.89,-616.6 207.48,-633.04 146.52,-633.04 101.11,-616.6 101.11,-589.4 146.52,-572.96 207.48,-572.96 252.89,-589.4"/>
<text text-anchor="middle" x="177" y="-596.8" font-family="Times,serif" font-size="24.00">cmdline</text>
</a>
</g>
</g>
<!-- comparelines -->
<g id="node3" class="node">
<title>comparelines</title>
<g id="a_node3"><a xlink:href="html/comparelines.html" xlink:title="comparelines.md" target="_parent">
<polygon fill="palegreen" stroke="black" points="921.42,-1539.21 921.42,-1560.79 856.74,-1576.04 765.26,-1576.04 700.58,-1560.79 700.58,-1539.21 765.26,-1523.96 856.74,-1523.96 921.42,-1539.21"/>
<polygon fill="none" stroke="black" points="925.43,-1536.05 925.43,-1563.95 857.2,-1580.04 764.8,-1580.04 696.57,-1563.95 696.57,-1536.05 764.8,-1519.96 857.2,-1519.96 925.43,-1536.05"/>
<text text-anchor="middle" x="811" y="-1543.8" font-family="Times,serif" font-size="24.00">comparelines</text>
</a>
</g>
</g>
<!-- env -->
<g id="node4" class="node">
<title>env</title>
<g id="a_node4"><a xlink:href="html/env.html" xlink:title="env.md" target="_parent">
<ellipse fill="palegoldenrod" stroke="black" cx="827" cy="-805" rx="36.12" ry="24.08"/>
<text text-anchor="middle" x="827" y="-798.8" font-family="Times,serif" font-size="24.00">env</text>
</a>
</g>
</g>
<!-- env&#45;&gt;messages -->
<g id="edge13" class="edge">
<title>env&#45;&gt;messages</title>
<path fill="none" stroke="black" d="M812.58,-782.52C792.54,-751.24 757.23,-690.58 744,-633.02 704.13,-459.59 716.9,-286.1 853,-152.96 903.46,-103.6 1094.75,-71.62 1213.27,-56.09"/>
<polygon fill="black" stroke="black" points="1213.53,-59.59 1223,-54.83 1212.63,-52.64 1213.53,-59.59"/>
</g>
<!-- tempFile -->
<g id="node26" class="node">
<title>tempFile</title>
<g id="a_node26"><a xlink:href="html/tempFile.html" xlink:title="tempFile.md" target="_parent">
<polygon fill="palegreen" stroke="black" points="913.13,-592.21 913.13,-613.79 867.36,-629.04 802.64,-629.04 756.87,-613.79 756.87,-592.21 802.64,-576.96 867.36,-576.96 913.13,-592.21"/>
<polygon fill="none" stroke="black" points="917.13,-589.33 917.13,-616.67 868.01,-633.04 801.99,-633.04 752.87,-616.67 752.87,-589.33 801.99,-572.96 868.01,-572.96 917.13,-589.33"/>
<text text-anchor="middle" x="835" y="-596.8" font-family="Times,serif" font-size="24.00">tempFile</text>
</a>
</g>
</g>
<!-- env&#45;&gt;tempFile -->
<g id="edge12" class="edge">
<title>env&#45;&gt;tempFile</title>
<path fill="none" stroke="black" d="M827.93,-780.67C829.27,-747.37 831.73,-685.74 833.37,-644.8"/>
<polygon fill="black" stroke="black" points="836.86,-644.97 833.77,-634.84 829.87,-644.69 836.86,-644.97"/>
</g>
<!-- functions -->
<g id="node5" class="node">
<title>functions</title>
<g id="a_node5"><a xlink:href="html/functions.html" xlink:title="functions.md" target="_parent">
<ellipse fill="palegoldenrod" stroke="black" cx="2344" cy="-805" rx="232.78" ry="70.92"/>
<text text-anchor="middle" x="2344" y="-783.8" font-family="Times,serif" font-size="84.00">functions</text>
</a>
</g>
</g>
<!-- matches -->
<g id="node9" class="node">
<title>matches</title>
<g id="a_node9"><a xlink:href="html/matches.html" xlink:title="matches.md" target="_parent">
<ellipse fill="palegoldenrod" stroke="black" cx="1519" cy="-462" rx="67.35" ry="24.08"/>
<text text-anchor="middle" x="1519" y="-455.8" font-family="Times,serif" font-size="24.00">matches</text>
</a>
</g>
</g>
<!-- functions&#45;&gt;matches -->
<g id="edge39" class="edge">
<title>functions&#45;&gt;matches</title>
<path fill="none" stroke="black" d="M2211.14,-746.33C2101.27,-698.93 1940.97,-630.48 1800,-572.98 1722.07,-541.19 1631.3,-505.99 1574.48,-484.18"/>
<polygon fill="black" stroke="black" points="1575.93,-480.99 1565.34,-480.67 1573.43,-487.52 1575.93,-480.99"/>
</g>
<!-- functions&#45;&gt;messages -->
<g id="edge35" class="edge">
<title>functions&#45;&gt;messages</title>
<path fill="none" stroke="black" d="M2495.42,-750.74C2606.85,-702.41 2749.69,-619.05 2814,-492.02 2858.44,-404.25 2812.21,-354.72 2747,-281.06 2673.52,-198.06 2638.44,-187.17 2533,-152.96 2323.84,-85.1 1657.38,-56.5 1406.64,-47.95"/>
<polygon fill="black" stroke="black" points="1407,-44.46 1396.89,-47.62 1406.76,-51.46 1407,-44.46"/>
</g>
<!-- functions&#45;&gt;opresult -->
<g id="edge48" class="edge">
<title>functions&#45;&gt;opresult</title>
<path fill="none" stroke="black" d="M2235.73,-741.76C2191.29,-712.64 2141.57,-675.09 2104,-633.02 2089.11,-616.35 1927.11,-294.16 1909,-281.06 1835.39,-227.8 1573.21,-196.88 1442.38,-184.44"/>
<polygon fill="black" stroke="black" points="1443.07,-180.99 1432.79,-183.54 1442.42,-187.96 1443.07,-180.99"/>
</g>
<!-- parseMarkdown -->
<g id="node14" class="node">
<title>parseMarkdown</title>
<g id="a_node14"><a xlink:href="html/parseMarkdown.html" xlink:title="parseMarkdown.md" target="_parent">
<ellipse fill="palegoldenrod" stroke="black" cx="1669" cy="-603" rx="121.74" ry="24.08"/>
<text text-anchor="middle" x="1669" y="-596.8" font-family="Times,serif" font-size="24.00">parseMarkdown</text>
</a>
</g>
</g>
<!-- functions&#45;&gt;parseMarkdown -->
<g id="edge59" class="edge">
<title>functions&#45;&gt;parseMarkdown</title>
<path fill="none" stroke="black" d="M2178.01,-754.82C2040.21,-713.99 1850.46,-657.77 1745.9,-626.79"/>
<polygon fill="black" stroke="black" points="1747.16,-623.51 1736.58,-624.02 1745.17,-630.22 1747.16,-623.51"/>
</g>
<!-- parseNumber -->
<g id="node15" class="node">
<title>parseNumber</title>
<g id="a_node15"><a xlink:href="html/parseNumber.html" xlink:title="parseNumber.md" target="_parent">
<polygon fill="palegreen" stroke="black" points="2496.98,-592.21 2496.98,-613.79 2431.38,-629.04 2338.62,-629.04 2273.02,-613.79 2273.02,-592.21 2338.62,-576.96 2431.38,-576.96 2496.98,-592.21"/>
<polygon fill="none" stroke="black" points="2500.99,-589.04 2500.99,-616.96 2431.84,-633.04 2338.16,-633.04 2269.01,-616.96 2269.01,-589.04 2338.16,-572.96 2431.84,-572.96 2500.99,-589.04"/>
<text text-anchor="middle" x="2385" y="-596.8" font-family="Times,serif" font-size="24.00">parseNumber</text>
</a>
</g>
</g>
<!-- functions&#45;&gt;parseNumber -->
<g id="edge38" class="edge">
<title>functions&#45;&gt;parseNumber</title>
<path fill="none" stroke="black" d="M2358.4,-733.77C2364.52,-703.9 2371.44,-670.14 2376.69,-644.54"/>
<polygon fill="black" stroke="black" points="2380.09,-645.37 2378.67,-634.87 2373.23,-643.97 2380.09,-645.37"/>
</g>
<!-- readjson -->
<g id="node17" class="node">
<title>readjson</title>
<g id="a_node17"><a xlink:href="html/readjson.html" xlink:title="readjson.md" target="_parent">
<ellipse fill="palegoldenrod" stroke="black" cx="2182" cy="-603" rx="69.09" ry="24.08"/>
<text text-anchor="middle" x="2182" y="-596.8" font-family="Times,serif" font-size="24.00">readjson</text>
</a>
</g>
</g>
<!-- functions&#45;&gt;readjson -->
<g id="edge54" class="edge">
<title>functions&#45;&gt;readjson</title>
<path fill="none" stroke="black" d="M2288.7,-735.73C2261.15,-701.72 2229.18,-662.24 2207.47,-635.44"/>
<polygon fill="black" stroke="black" points="2210.21,-633.26 2201.19,-627.69 2204.77,-637.67 2210.21,-633.26"/>
</g>
<!-- regexes -->
<g id="node18" class="node">
<title>regexes</title>
<g id="a_node18"><a xlink:href="html/regexes.html" xlink:title="regexes.md" target="_parent">
<polygon fill="palegreen" stroke="black" points="1662.23,-304.21 1662.23,-325.79 1622.26,-341.04 1565.74,-341.04 1525.77,-325.79 1525.77,-304.21 1565.74,-288.96 1622.26,-288.96 1662.23,-304.21"/>
<polygon fill="none" stroke="black" points="1666.24,-301.46 1666.24,-328.54 1623,-345.04 1565,-345.04 1521.76,-328.54 1521.76,-301.46 1565,-284.96 1623,-284.96 1666.24,-301.46"/>
<text text-anchor="middle" x="1594" y="-308.8" font-family="Times,serif" font-size="24.00">regexes</text>
</a>
</g>
</g>
<!-- functions&#45;&gt;regexes -->
<g id="edge37" class="edge">
<title>functions&#45;&gt;regexes</title>
<path fill="none" stroke="black" d="M2239.84,-741.14C2188.47,-709.53 2125.9,-670.14 2071,-633.02 1945.28,-548.02 1922.24,-514.69 1795,-431.98 1746.42,-400.4 1688.99,-367.7 1647.98,-345.1"/>
<polygon fill="black" stroke="black" points="1649.71,-342.06 1639.26,-340.31 1646.34,-348.19 1649.71,-342.06"/>
</g>
<!-- signatures -->
<g id="node23" class="node">
<title>signatures</title>
<g id="a_node23"><a xlink:href="html/signatures.html" xlink:title="signatures.md" target="_parent">
<ellipse fill="palegoldenrod" stroke="black" cx="2725" cy="-462" rx="79.81" ry="24.08"/>
<text text-anchor="middle" x="2725" y="-455.8" font-family="Times,serif" font-size="24.00">signatures</text>
</a>
</g>
</g>
<!-- functions&#45;&gt;signatures -->
<g id="edge47" class="edge">
<title>functions&#45;&gt;signatures</title>
<path fill="none" stroke="black" d="M2443.26,-740.4C2487.35,-710.17 2538.73,-672.13 2581,-633.02 2628.18,-589.38 2674.78,-530.77 2701.67,-495"/>
<polygon fill="black" stroke="black" points="2704.32,-497.31 2707.49,-487.2 2698.71,-493.12 2704.32,-497.31"/>
</g>
<!-- unicodes -->
<g id="node28" class="node">
<title>unicodes</title>
<g id="a_node28"><a xlink:href="html/unicodes.html" xlink:title="unicodes.md" target="_parent">
<ellipse fill="palegoldenrod" stroke="black" cx="2334" cy="-462" rx="71.34" ry="24.08"/>
<text text-anchor="middle" x="2334" y="-455.8" font-family="Times,serif" font-size="24.00">unicodes</text>
</a>
</g>
</g>
<!-- functions&#45;&gt;unicodes -->
<g id="edge44" class="edge">
<title>functions&#45;&gt;unicodes</title>
<path fill="none" stroke="black" d="M2438.65,-739.75C2492.41,-694.84 2542.98,-632.48 2510,-572.98 2485.71,-529.15 2435.87,-500.49 2395.41,-483.44"/>
<polygon fill="black" stroke="black" points="2396.79,-480.23 2386.21,-479.72 2394.17,-486.72 2396.79,-480.23"/>
</g>
<!-- variables -->
<g id="node31" class="node">
<title>variables</title>
<g id="a_node31"><a xlink:href="html/variables.html" xlink:title="variables.md" target="_parent">
<ellipse fill="palegoldenrod" stroke="black" cx="3010" cy="-603" rx="72.66" ry="24.08"/>
<text text-anchor="middle" x="3010" y="-596.8" font-family="Times,serif" font-size="24.00">variables</text>
</a>
</g>
</g>
<!-- functions&#45;&gt;variables -->
<g id="edge55" class="edge">
<title>functions&#45;&gt;variables</title>
<path fill="none" stroke="black" d="M2508.63,-754.56C2650.09,-712.08 2846.55,-653.08 2946.35,-623.12"/>
<polygon fill="black" stroke="black" points="2947.13,-626.53 2955.7,-620.31 2945.12,-619.83 2947.13,-626.53"/>
</g>
<!-- vartypes -->
<g id="node32" class="node">
<title>vartypes</title>
<g id="a_node32"><a xlink:href="html/vartypes.html" xlink:title="vartypes.md" target="_parent">
<ellipse fill="palegoldenrod" stroke="black" cx="2617" cy="-315" rx="97.66" ry="33.88"/>
<text text-anchor="middle" x="2617" y="-306.2" font-family="Times,serif" font-size="36.00">vartypes</text>
</a>
</g>
</g>
<!-- functions&#45;&gt;vartypes -->
<g id="edge36" class="edge">
<title>functions&#45;&gt;vartypes</title>
<path fill="none" stroke="black" d="M2435.74,-739.78C2470.18,-711.01 2506.42,-674.26 2529,-633.02 2572.6,-553.4 2538.23,-518.72 2565,-431.98 2572.72,-406.97 2584.44,-380.24 2594.81,-358.76"/>
<polygon fill="black" stroke="black" points="2597.83,-360.54 2599.1,-350.02 2591.55,-357.45 2597.83,-360.54"/>
</g>
<!-- gethelp -->
<g id="node6" class="node">
<title>gethelp</title>
<g id="a_node6"><a xlink:href="html/gethelp.html" xlink:title="gethelp.md" target="_parent">
<polygon fill="palegreen" stroke="black" points="321.67,-1352.21 321.67,-1373.79 282.62,-1389.04 227.38,-1389.04 188.33,-1373.79 188.33,-1352.21 227.38,-1336.96 282.62,-1336.96 321.67,-1352.21"/>
<polygon fill="none" stroke="black" points="325.67,-1349.48 325.67,-1376.52 283.37,-1393.04 226.63,-1393.04 184.33,-1376.52 184.33,-1349.48 226.63,-1332.96 283.37,-1332.96 325.67,-1349.48"/>
<text text-anchor="middle" x="255" y="-1356.8" font-family="Times,serif" font-size="24.00">gethelp</text>
</a>
</g>
</g>
<!-- jsondocraw -->
<g id="node7" class="node">
<title>jsondocraw</title>
<g id="a_node7"><a xlink:href="html/jsondocraw.html" xlink:title="jsondocraw.md" target="_parent">
<polygon fill="palegreen" stroke="black" points="1141.4,-1539.21 1141.4,-1560.79 1084.34,-1576.04 1003.66,-1576.04 946.6,-1560.79 946.6,-1539.21 1003.66,-1523.96 1084.34,-1523.96 1141.4,-1539.21"/>
<polygon fill="none" stroke="black" points="1145.4,-1536.14 1145.4,-1563.86 1084.87,-1580.04 1003.13,-1580.04 942.6,-1563.86 942.6,-1536.14 1003.13,-1519.96 1084.87,-1519.96 1145.4,-1536.14"/>
<text text-anchor="middle" x="1044" y="-1543.8" font-family="Times,serif" font-size="24.00">jsondocraw</text>
</a>
</g>
</g>
<!-- linebuffer -->
<g id="node8" class="node">
<title>linebuffer</title>
<g id="a_node8"><a xlink:href="html/linebuffer.html" xlink:title="linebuffer.md" target="_parent">
<polygon fill="palegreen" stroke="black" points="1220.91,-451.21 1220.91,-472.79 1171.17,-488.04 1100.83,-488.04 1051.09,-472.79 1051.09,-451.21 1100.83,-435.96 1171.17,-435.96 1220.91,-451.21"/>
<polygon fill="none" stroke="black" points="1224.91,-448.25 1224.91,-475.75 1171.77,-492.04 1100.23,-492.04 1047.09,-475.75 1047.09,-448.25 1100.23,-431.96 1171.77,-431.96 1224.91,-448.25"/>
<text text-anchor="middle" x="1136" y="-455.8" font-family="Times,serif" font-size="24.00">linebuffer</text>
</a>
</g>
</g>
<!-- matches&#45;&gt;regexes -->
<g id="edge7" class="edge">
<title>matches&#45;&gt;regexes</title>
<path fill="none" stroke="red" d="M1530.88,-438.02C1542.33,-415.89 1559.89,-381.95 1573.58,-355.48"/>
<polygon fill="red" stroke="red" points="1576.62,-357.22 1578.11,-346.73 1570.4,-354 1576.62,-357.22"/>
</g>
<!-- opresult&#45;&gt;messages -->
<g id="edge2" class="edge">
<title>opresult&#45;&gt;messages</title>
<path fill="none" stroke="red" d="M1356.94,-152.88C1348.76,-134.07 1337.02,-107.09 1327.32,-84.81"/>
<polygon fill="red" stroke="red" points="1330.56,-83.47 1323.36,-75.7 1324.14,-86.27 1330.56,-83.47"/>
</g>
<!-- parseCmdLine -->
<g id="node12" class="node">
<title>parseCmdLine</title>
<g id="a_node12"><a xlink:href="html/parseCmdLine.html" xlink:title="parseCmdLine.md" target="_parent">
<ellipse fill="palegoldenrod" stroke="black" cx="1259" cy="-805" rx="111.95" ry="24.08"/>
<text text-anchor="middle" x="1259" y="-798.8" font-family="Times,serif" font-size="24.00">parseCmdLine</text>
</a>
</g>
</g>
<!-- parseCmdLine&#45;&gt;args -->
<g id="edge20" class="edge">
<title>parseCmdLine&#45;&gt;args</title>
<path fill="none" stroke="black" d="M1194.3,-784.91C1058.18,-744.76 745.07,-652.4 627.1,-617.6"/>
<polygon fill="black" stroke="black" points="628.34,-614.31 617.75,-614.84 626.36,-621.03 628.34,-614.31"/>
</g>
<!-- parseCmdLine&#45;&gt;matches -->
<g id="edge18" class="edge">
<title>parseCmdLine&#45;&gt;matches</title>
<path fill="none" stroke="black" d="M1276.67,-780.83C1322.08,-721.27 1442.94,-562.76 1494.81,-494.73"/>
<polygon fill="black" stroke="black" points="1497.45,-497.03 1500.73,-486.96 1491.89,-492.79 1497.45,-497.03"/>
</g>
<!-- parseCmdLine&#45;&gt;messages -->
<g id="edge17" class="edge">
<title>parseCmdLine&#45;&gt;messages</title>
<path fill="none" stroke="black" d="M1259.22,-780.57C1260.22,-695.82 1265.52,-397.4 1292,-152.96 1294.43,-130.53 1298.48,-105.69 1302.12,-85.5"/>
<polygon fill="black" stroke="black" points="1305.56,-86.16 1303.93,-75.69 1298.67,-84.89 1305.56,-86.16"/>
</g>
<!-- parseCmdLine&#45;&gt;opresult -->
<g id="edge19" class="edge">
<title>parseCmdLine&#45;&gt;opresult</title>
<path fill="none" stroke="black" d="M1261.52,-780.64C1266.14,-738.86 1276.63,-648.62 1289,-572.98 1310.91,-438.97 1344.48,-280.9 1359.4,-212.46"/>
<polygon fill="black" stroke="black" points="1362.76,-213.49 1361.47,-202.98 1355.92,-212 1362.76,-213.49"/>
</g>
<!-- parseCmdLine&#45;&gt;regexes -->
<g id="edge16" class="edge">
<title>parseCmdLine&#45;&gt;regexes</title>
<path fill="none" stroke="black" d="M1261.6,-780.75C1269.72,-717.73 1299.79,-541.08 1391,-431.98 1427.15,-388.73 1483.82,-358.28 1528.1,-339.46"/>
<polygon fill="black" stroke="black" points="1529.2,-342.8 1537.1,-335.74 1526.52,-336.33 1529.2,-342.8"/>
</g>
<!-- parseCommandLine -->
<g id="node13" class="node">
<title>parseCommandLine</title>
<g id="a_node13"><a xlink:href="html/parseCommandLine.html" xlink:title="parseCommandLine.md" target="_parent">
<ellipse fill="palegoldenrod" stroke="black" cx="177" cy="-805" rx="149.4" ry="24.08"/>
<text text-anchor="middle" x="177" y="-798.8" font-family="Times,serif" font-size="24.00">parseCommandLine</text>
</a>
</g>
</g>
<!-- parseCommandLine&#45;&gt;args -->
<g id="edge4" class="edge">
<title>parseCommandLine&#45;&gt;args</title>
<path fill="none" stroke="black" d="M222.17,-781.64C301.52,-742.36 464.71,-661.57 540.57,-624.01"/>
<polygon fill="black" stroke="black" points="541.91,-627.25 549.32,-619.68 538.81,-620.98 541.91,-627.25"/>
</g>
<!-- parseCommandLine&#45;&gt;cmdline -->
<g id="edge6" class="edge">
<title>parseCommandLine&#45;&gt;cmdline</title>
<path fill="none" stroke="black" d="M177,-780.67C177,-747.37 177,-685.74 177,-644.8"/>
<polygon fill="black" stroke="black" points="180.5,-644.84 177,-634.84 173.5,-644.84 180.5,-644.84"/>
</g>
<!-- parseCommandLine&#45;&gt;matches -->
<g id="edge8" class="edge">
<title>parseCommandLine&#45;&gt;matches</title>
<path fill="none" stroke="black" d="M266.16,-785.3C406.91,-755.41 688.97,-694.01 926,-633.02 1121.59,-582.7 1350.8,-514.26 1457.97,-481.7"/>
<polygon fill="black" stroke="black" points="1458.88,-485.08 1467.43,-478.82 1456.85,-478.38 1458.88,-485.08"/>
</g>
<!-- parseCommandLine&#45;&gt;messages -->
<g id="edge5" class="edge">
<title>parseCommandLine&#45;&gt;messages</title>
<path fill="none" stroke="black" d="M191.6,-780.63C223.78,-726.78 298,-588.95 298,-463 298,-463 298,-463 298,-314 298,-240.03 284.06,-201.36 340,-152.96 405.21,-96.54 980.04,-61.58 1212.79,-49.63"/>
<polygon fill="black" stroke="black" points="1212.96,-53.13 1222.77,-49.12 1212.6,-46.14 1212.96,-53.13"/>
</g>
<!-- parseMarkdown&#45;&gt;linebuffer -->
<g id="edge56" class="edge">
<title>parseMarkdown&#45;&gt;linebuffer</title>
<path fill="none" stroke="black" d="M1596.84,-583.18C1498.2,-557.46 1321.7,-511.43 1218.11,-484.41"/>
<polygon fill="black" stroke="black" points="1219.11,-481.06 1208.55,-481.92 1217.34,-487.83 1219.11,-481.06"/>
</g>
<!-- parseMarkdown&#45;&gt;matches -->
<g id="edge57" class="edge">
<title>parseMarkdown&#45;&gt;matches</title>
<path fill="none" stroke="black" d="M1644.23,-579.05C1618.59,-555.29 1578.46,-518.1 1550.56,-492.25"/>
<polygon fill="black" stroke="black" points="1553.15,-489.87 1543.43,-485.64 1548.39,-495.01 1553.15,-489.87"/>
</g>
<!-- parseMarkdown&#45;&gt;regexes -->
<g id="edge58" class="edge">
<title>parseMarkdown&#45;&gt;regexes</title>
<path fill="none" stroke="black" d="M1662.86,-578.6C1650.08,-529.84 1620.46,-416.9 1604.55,-356.24"/>
<polygon fill="black" stroke="black" points="1607.96,-355.45 1602.04,-346.66 1601.19,-357.22 1607.96,-355.45"/>
</g>
<!-- processTemplate -->
<g id="node16" class="node">
<title>processTemplate</title>
<g id="a_node16"><a xlink:href="html/processTemplate.html" xlink:title="processTemplate.md" target="_parent">
<ellipse fill="palegoldenrod" stroke="black" cx="696" cy="-1363" rx="124.4" ry="24.08"/>
<text text-anchor="middle" x="696" y="-1356.8" font-family="Times,serif" font-size="24.00">processTemplate</text>
</a>
</g>
</g>
<!-- processTemplate&#45;&gt;args -->
<g id="edge10" class="edge">
<title>processTemplate&#45;&gt;args</title>
<path fill="none" stroke="black" d="M653.77,-1340C623.69,-1321.74 585.6,-1292.69 568,-1255.04 516.27,-1144.4 561.13,-756.71 576.38,-638.49"/>
<polygon fill="black" stroke="black" points="579.82,-639.15 577.64,-628.78 572.88,-638.25 579.82,-639.15"/>
</g>
<!-- processTemplate&#45;&gt;env -->
<g id="edge14" class="edge">
<title>processTemplate&#45;&gt;env</title>
<path fill="none" stroke="black" d="M701.55,-1338.46C722.18,-1250.89 794.57,-943.66 818.93,-840.25"/>
<polygon fill="black" stroke="black" points="822.29,-841.24 821.18,-830.71 815.48,-839.64 822.29,-841.24"/>
</g>
<!-- processTemplate&#45;&gt;linebuffer -->
<g id="edge15" class="edge">
<title>processTemplate&#45;&gt;linebuffer</title>
<path fill="none" stroke="black" d="M688.81,-1338.62C658.5,-1234.98 551.37,-811.67 744,-572.98 780.51,-527.73 931.97,-495.22 1035.57,-477.76"/>
<polygon fill="black" stroke="black" points="1035.91,-481.26 1045.2,-476.16 1034.76,-474.35 1035.91,-481.26"/>
</g>
<!-- processTemplate&#45;&gt;messages -->
<g id="edge11" class="edge">
<title>processTemplate&#45;&gt;messages</title>
<path fill="none" stroke="black" d="M643.79,-1340.86C605.66,-1323.04 555.2,-1294.17 523,-1255.04 387.51,-1090.38 354,-1019.24 354,-806 354,-806 354,-806 354,-314 354,-221.74 404.43,-197.92 485,-152.96 608.07,-84.28 1022.88,-57.57 1213.15,-48.76"/>
<polygon fill="black" stroke="black" points="1213.19,-52.26 1223.02,-48.31 1212.87,-45.27 1213.19,-52.26"/>
</g>
<!-- processTemplate&#45;&gt;opresult -->
<g id="edge90" class="edge">
<title>processTemplate&#45;&gt;opresult</title>
<path fill="none" stroke="black" d="M648.16,-1340.37C614.8,-1322.55 572.55,-1293.89 551,-1255.04 403.91,-989.85 416.95,-853.56 532,-572.98 538.05,-558.22 824.67,-281.23 825,-281.06 976.27,-202 1179.55,-183.07 1289.15,-178.86"/>
<polygon fill="black" stroke="black" points="1289.05,-182.37 1298.92,-178.52 1288.8,-175.37 1289.05,-182.37"/>
</g>
<!-- processTemplate&#45;&gt;parseCmdLine -->
<g id="edge21" class="edge">
<title>processTemplate&#45;&gt;parseCmdLine</title>
<path fill="none" stroke="black" d="M763.52,-1342.35C862.25,-1310.27 1045.66,-1237.49 1151,-1113.52 1220.56,-1031.66 1246.35,-902.09 1255.03,-840.6"/>
<polygon fill="black" stroke="black" points="1258.49,-841.11 1256.34,-830.74 1251.55,-840.19 1258.49,-841.11"/>
</g>
<!-- replacement -->
<g id="node20" class="node">
<title>replacement</title>
<g id="a_node20"><a xlink:href="html/replacement.html" xlink:title="replacement.md" target="_parent">
<ellipse fill="palegoldenrod" stroke="black" cx="1047" cy="-1052" rx="94.51" ry="24.08"/>
<text text-anchor="middle" x="1047" y="-1045.8" font-family="Times,serif" font-size="24.00">replacement</text>
</a>
</g>
</g>
<!-- processTemplate&#45;&gt;replacement -->
<g id="edge79" class="edge">
<title>processTemplate&#45;&gt;replacement</title>
<path fill="none" stroke="black" d="M722.1,-1339.03C784.72,-1283.9 943.47,-1144.15 1013.23,-1082.73"/>
<polygon fill="black" stroke="black" points="1015.35,-1085.52 1020.55,-1076.29 1010.73,-1080.27 1015.35,-1085.52"/>
</g>
<!-- runCommand -->
<g id="node21" class="node">
<title>runCommand</title>
<g id="a_node21"><a xlink:href="html/runCommand.html" xlink:title="runCommand.md" target="_parent">
<ellipse fill="palegoldenrod" stroke="black" cx="1566" cy="-1052" rx="292.07" ry="61.54"/>
<text text-anchor="middle" x="1566" y="-1033.9" font-family="Times,serif" font-size="72.00">runCommand</text>
</a>
</g>
</g>
<!-- processTemplate&#45;&gt;runCommand -->
<g id="edge67" class="edge">
<title>processTemplate&#45;&gt;runCommand</title>
<path fill="none" stroke="black" d="M787.3,-1346.28C879.4,-1329.04 1024.91,-1297.99 1146,-1255.04 1253.72,-1216.83 1370.44,-1159.27 1453.43,-1115.35"/>
<polygon fill="black" stroke="black" points="1454.86,-1118.56 1462.05,-1110.78 1451.57,-1112.38 1454.86,-1118.56"/>
</g>
<!-- startingvars -->
<g id="node24" class="node">
<title>startingvars</title>
<g id="a_node24"><a xlink:href="html/startingvars.html" xlink:title="startingvars.md" target="_parent">
<ellipse fill="palegoldenrod" stroke="black" cx="2081" cy="-1231" rx="90.52" ry="24.08"/>
<text text-anchor="middle" x="2081" y="-1224.8" font-family="Times,serif" font-size="24.00">startingvars</text>
</a>
</g>
</g>
<!-- processTemplate&#45;&gt;startingvars -->
<g id="edge89" class="edge">
<title>processTemplate&#45;&gt;startingvars</title>
<path fill="none" stroke="black" d="M806.42,-1351.64C1070.71,-1326.83 1736.2,-1264.36 1985.09,-1241"/>
<polygon fill="black" stroke="black" points="1985.13,-1244.51 1994.76,-1240.09 1984.48,-1237.54 1985.13,-1244.51"/>
</g>
<!-- processTemplate&#45;&gt;variables -->
<g id="edge68" class="edge">
<title>processTemplate&#45;&gt;variables</title>
<path fill="none" stroke="black" d="M806.62,-1351.62C874.26,-1345.54 962.58,-1338.08 1041,-1332.98 1228.8,-1320.76 2559.5,-1327.96 2733,-1255.04 2977.96,-1152.09 3006.72,-758.26 3009.75,-638.65"/>
<polygon fill="black" stroke="black" points="3013.25,-638.91 3009.95,-628.84 3006.25,-638.76 3013.25,-638.91"/>
</g>
<!-- processTemplate&#45;&gt;vartypes -->
<g id="edge69" class="edge">
<title>processTemplate&#45;&gt;vartypes</title>
<path fill="none" stroke="black" d="M807.83,-1352.15C875.34,-1346.31 963.09,-1338.92 1041,-1332.98 1547.38,-1294.37 1688.5,-1378.94 2181,-1255.04 2329.06,-1217.8 2364.2,-1193.89 2494,-1113.52 2677.84,-999.68 2871,-1022.23 2871,-806 2871,-806 2871,-806 2871,-602 2871,-525.27 2886.44,-493.81 2841,-431.98 2821.59,-405.57 2748.3,-370.39 2690.77,-345.73"/>
<polygon fill="black" stroke="black" points="2692.19,-342.53 2681.62,-341.84 2689.46,-348.98 2692.19,-342.53"/>
</g>
<!-- readjson&#45;&gt;messages -->
<g id="edge50" class="edge">
<title>readjson&#45;&gt;messages</title>
<path fill="none" stroke="black" d="M2193.67,-578.88C2221.03,-521.04 2281.63,-368.51 2208,-281.06 2104.46,-158.09 1617.14,-83.44 1406.92,-56.46"/>
<polygon fill="black" stroke="black" points="1407.47,-53.01 1397.11,-55.21 1406.59,-59.95 1407.47,-53.01"/>
</g>
<!-- readjson&#45;&gt;opresult -->
<g id="edge53" class="edge">
<title>readjson&#45;&gt;opresult</title>
<path fill="none" stroke="black" d="M2190.64,-579.01C2210.86,-520.83 2254.04,-366.3 2178,-281.06 2129.51,-226.7 1637.19,-193.25 1444.11,-182.13"/>
<polygon fill="black" stroke="black" points="1444.35,-178.64 1434.17,-181.56 1443.95,-185.63 1444.35,-178.64"/>
</g>
<!-- readjson&#45;&gt;unicodes -->
<g id="edge51" class="edge">
<title>readjson&#45;&gt;unicodes</title>
<path fill="none" stroke="black" d="M2206.08,-579.98C2231.88,-556.39 2272.95,-518.83 2301.58,-492.65"/>
<polygon fill="black" stroke="black" points="2303.89,-495.27 2308.91,-485.94 2299.17,-490.11 2303.89,-495.27"/>
</g>
<!-- utf8decoder -->
<g id="node30" class="node">
<title>utf8decoder</title>
<g id="a_node30"><a xlink:href="html/utf8decoder.html" xlink:title="utf8decoder.md" target="_parent">
<polygon fill="palegreen" stroke="black" points="2165.04,-304.21 2165.04,-325.79 2106.44,-341.04 2023.56,-341.04 1964.96,-325.79 1964.96,-304.21 2023.56,-288.96 2106.44,-288.96 2165.04,-304.21"/>
<polygon fill="none" stroke="black" points="2169.03,-301.12 2169.03,-328.88 2106.95,-345.04 2023.05,-345.04 1960.97,-328.88 1960.97,-301.12 2023.05,-284.96 2106.95,-284.96 2169.03,-301.12"/>
<text text-anchor="middle" x="2065" y="-308.8" font-family="Times,serif" font-size="24.00">utf8decoder</text>
</a>
</g>
</g>
<!-- readjson&#45;&gt;utf8decoder -->
<g id="edge52" class="edge">
<title>readjson&#45;&gt;utf8decoder</title>
<path fill="none" stroke="black" d="M2172.62,-579.08C2152.72,-530.44 2106.06,-416.38 2081.22,-355.66"/>
<polygon fill="black" stroke="black" points="2084.6,-354.66 2077.57,-346.73 2078.12,-357.31 2084.6,-354.66"/>
</g>
<!-- readjson&#45;&gt;vartypes -->
<g id="edge49" class="edge">
<title>readjson&#45;&gt;vartypes</title>
<path fill="none" stroke="black" d="M2227.97,-584.55C2276.22,-565.27 2353.35,-531.63 2414,-492.02 2475.99,-451.54 2539.14,-393.6 2578.19,-355.41"/>
<polygon fill="black" stroke="black" points="2580.4,-358.14 2585.07,-348.63 2575.48,-353.15 2580.4,-358.14"/>
</g>
<!-- repl -->
<g id="node19" class="node">
<title>repl</title>
<g id="a_node19"><a xlink:href="html/repl.html" xlink:title="repl.md" target="_parent">
<ellipse fill="palegoldenrod" stroke="black" cx="1962" cy="-1363" rx="38.37" ry="24.08"/>
<text text-anchor="middle" x="1962" y="-1356.8" font-family="Times,serif" font-size="24.00">repl</text>
</a>
</g>
</g>
<!-- repl&#45;&gt;args -->
<g id="edge113" class="edge">
<title>repl&#45;&gt;args</title>
<path fill="none" stroke="black" d="M1923.39,-1361.33C1799.75,-1358.34 1403.39,-1342.1 1090,-1255.04 941.34,-1213.74 882.83,-1221.89 773,-1113.52 634.23,-976.58 594.44,-729.59 584.21,-638.75"/>
<polygon fill="black" stroke="black" points="587.71,-638.56 583.17,-628.98 580.75,-639.3 587.71,-638.56"/>
</g>
<!-- repl&#45;&gt;env -->
<g id="edge111" class="edge">
<title>repl&#45;&gt;env</title>
<path fill="none" stroke="black" d="M1923.98,-1358.4C1752.21,-1341.37 1050.37,-1263.4 900,-1113.52 895.08,-1108.61 852.25,-918.98 834.58,-839.99"/>
<polygon fill="black" stroke="black" points="838.09,-839.65 832.49,-830.65 831.26,-841.17 838.09,-839.65"/>
</g>
<!-- repl&#45;&gt;matches -->
<g id="edge116" class="edge">
<title>repl&#45;&gt;matches</title>
<path fill="none" stroke="black" d="M1956.39,-1338.78C1937.31,-1259.91 1875.57,-1006.28 1867,-990.48 1764.02,-800.7 1627.54,-829.5 1538,-633.02 1518.14,-589.44 1515.76,-533.29 1516.72,-497.71"/>
<polygon fill="black" stroke="black" points="1520.21,-498.12 1517.09,-487.99 1513.21,-497.85 1520.21,-498.12"/>
</g>
<!-- repl&#45;&gt;messages -->
<g id="edge110" class="edge">
<title>repl&#45;&gt;messages</title>
<path fill="none" stroke="black" d="M2000.53,-1361.42C2174.93,-1358.36 2890.69,-1340.68 3095,-1255.04 3223.59,-1201.14 3335,-1192.43 3335,-1053 3335,-1053 3335,-1053 3335,-314 3335,-175.8 3200.91,-194.18 3069,-152.96 2755.05,-54.86 1727.63,-45.39 1406.69,-44.87"/>
<polygon fill="black" stroke="black" points="1407.09,-41.37 1397.08,-44.86 1407.08,-48.37 1407.09,-41.37"/>
</g>
<!-- repl&#45;&gt;opresult -->
<g id="edge114" class="edge">
<title>repl&#45;&gt;opresult</title>
<path fill="none" stroke="black" d="M1999.06,-1356.14C2050.3,-1345.83 2140.99,-1319.1 2181,-1255.04 2192.32,-1236.92 2185.53,-1227.84 2181,-1206.96 2099.7,-831.86 1989.05,-766 1800,-431.98 1761.76,-364.4 1773.02,-329.07 1712,-281.06 1633.38,-219.2 1518.23,-194.41 1442.95,-184.51"/>
<polygon fill="black" stroke="black" points="1443.54,-181.06 1433.18,-183.29 1442.67,-188.01 1443.54,-181.06"/>
</g>
<!-- repl&#45;&gt;parseMarkdown -->
<g id="edge121" class="edge">
<title>repl&#45;&gt;parseMarkdown</title>
<path fill="none" stroke="black" d="M1958.81,-1338.7C1943.45,-1226.57 1877.4,-747.39 1869,-734.29 1837.45,-685.1 1779.98,-650.57 1734.71,-629.47"/>
<polygon fill="black" stroke="black" points="1736.3,-626.35 1725.75,-625.41 1733.41,-632.73 1736.3,-626.35"/>
</g>
<!-- repl&#45;&gt;regexes -->
<g id="edge117" class="edge">
<title>repl&#45;&gt;regexes</title>
<path fill="none" stroke="black" d="M1963.22,-1338.65C1966.84,-1254.38 1972.84,-959 1894,-734.29 1866.53,-655.99 1846.97,-641.38 1800,-572.98 1744.09,-491.55 1669.83,-403 1627.45,-354.02"/>
<polygon fill="black" stroke="black" points="1630.11,-351.74 1620.91,-346.49 1624.82,-356.33 1630.11,-351.74"/>
</g>
<!-- repl&#45;&gt;runCommand -->
<g id="edge118" class="edge">
<title>repl&#45;&gt;runCommand</title>
<path fill="none" stroke="black" d="M1938.41,-1343.6C1882.98,-1300.34 1742.18,-1190.48 1650.47,-1118.91"/>
<polygon fill="black" stroke="black" points="1652.71,-1116.22 1642.67,-1112.82 1648.4,-1121.74 1652.71,-1116.22"/>
</g>
<!-- repl&#45;&gt;startingvars -->
<g id="edge115" class="edge">
<title>repl&#45;&gt;startingvars</title>
<path fill="none" stroke="black" d="M1980.59,-1341.69C1999.89,-1320.61 2030.31,-1287.37 2052.62,-1263.01"/>
<polygon fill="black" stroke="black" points="2054.94,-1265.65 2059.11,-1255.91 2049.78,-1260.92 2054.94,-1265.65"/>
</g>
<!-- repl&#45;&gt;unicodes -->
<g id="edge120" class="edge">
<title>repl&#45;&gt;unicodes</title>
<path fill="none" stroke="black" d="M2000.51,-1360.08C2158.94,-1351.79 2754.66,-1316.68 2809,-1255.04 3025.71,-1009.24 2769.48,-795.57 2529,-572.98 2487.72,-534.77 2430.78,-504.61 2389.09,-485.61"/>
<polygon fill="black" stroke="black" points="2390.78,-482.53 2380.22,-481.64 2387.92,-488.92 2390.78,-482.53"/>
</g>
<!-- repl&#45;&gt;variables -->
<g id="edge119" class="edge">
<title>repl&#45;&gt;variables</title>
<path fill="none" stroke="black" d="M2000.51,-1361.16C2184.25,-1356.76 2965.95,-1333.51 3037,-1255.04 3114.67,-1169.26 3048.8,-849.41 3037,-734.29 3033.61,-701.26 3025.52,-664.25 3019.07,-638.14"/>
<polygon fill="black" stroke="black" points="3022.55,-637.62 3016.71,-628.78 3015.76,-639.33 3022.55,-637.62"/>
</g>
<!-- repl&#45;&gt;vartypes -->
<g id="edge112" class="edge">
<title>repl&#45;&gt;vartypes</title>
<path fill="none" stroke="black" d="M2000.71,-1360.86C2186.4,-1355.02 2980.18,-1326.07 3062,-1255.04 3131.78,-1194.47 3111,-1145.4 3111,-1053 3111,-1053 3111,-1053 3111,-804 3111,-700.98 3133.93,-667.08 3092,-572.98 3056.94,-494.29 3031.49,-478.52 2959,-431.98 2882.85,-383.08 2783.85,-352.46 2711.97,-335.04"/>
<polygon fill="black" stroke="black" points="2713.13,-331.72 2702.6,-332.81 2711.52,-338.53 2713.13,-331.72"/>
</g>
<!-- replacement&#45;&gt;args -->
<g id="edge78" class="edge">
<title>replacement&#45;&gt;args</title>
<path fill="none" stroke="black" d="M1022.94,-1028.48C991.05,-997.26 935.3,-937.63 905,-875.71 876.63,-817.74 913.06,-784.09 872,-734.29 810.13,-659.25 696.11,-625.84 630.67,-612.27"/>
<polygon fill="black" stroke="black" points="631.4,-608.84 620.91,-610.33 630.04,-615.71 631.4,-608.84"/>
</g>
<!-- replacement&#45;&gt;env -->
<g id="edge70" class="edge">
<title>replacement&#45;&gt;env</title>
<path fill="none" stroke="black" d="M1023.03,-1028.5C989.03,-996.09 925.53,-933.78 877,-875.71 866.75,-863.45 856.31,-849.22 847.64,-836.82"/>
<polygon fill="black" stroke="black" points="850.52,-834.83 841.96,-828.59 844.76,-838.81 850.52,-834.83"/>
</g>
<!-- replacement&#45;&gt;linebuffer -->
<g id="edge73" class="edge">
<title>replacement&#45;&gt;linebuffer</title>
<path fill="none" stroke="black" d="M1046.99,-1027.79C1047.3,-975.22 1049.87,-843.14 1067,-734.29 1080.12,-650.88 1107.22,-555.72 1123.27,-503.19"/>
<polygon fill="black" stroke="black" points="1126.57,-504.37 1126.17,-493.78 1119.88,-502.3 1126.57,-504.37"/>
</g>
<!-- replacement&#45;&gt;messages -->
<g id="edge74" class="edge">
<title>replacement&#45;&gt;messages</title>
<path fill="none" stroke="black" d="M1035.64,-1027.61C1020.33,-994.66 993.85,-932.26 984,-875.71 938.31,-613.49 940.42,-521.3 1055,-281.06 1084.95,-218.26 1094.99,-201.34 1145,-152.96 1176.8,-122.2 1218.54,-94.98 1252.09,-75.57"/>
<polygon fill="black" stroke="black" points="1253.5,-78.79 1260.45,-70.8 1250.03,-72.71 1253.5,-78.79"/>
</g>
<!-- replacement&#45;&gt;opresult -->
<g id="edge77" class="edge">
<title>replacement&#45;&gt;opresult</title>
<path fill="none" stroke="black" d="M1039.55,-1027.74C1013.67,-942.61 934.79,-642.03 1038,-431.98 1095.71,-314.53 1236.77,-236.02 1314.12,-200.23"/>
<polygon fill="black" stroke="black" points="1315.11,-203.62 1322.76,-196.29 1312.21,-197.25 1315.11,-203.62"/>
</g>
<!-- replacement&#45;&gt;parseCmdLine -->
<g id="edge72" class="edge">
<title>replacement&#45;&gt;parseCmdLine</title>
<path fill="none" stroke="black" d="M1066.56,-1028.39C1104.57,-984.47 1188.43,-887.55 1231.82,-837.41"/>
<polygon fill="black" stroke="black" points="1234.29,-839.91 1238.18,-830.06 1228.99,-835.33 1234.29,-839.91"/>
</g>
<!-- replacement&#45;&gt;tempFile -->
<g id="edge76" class="edge">
<title>replacement&#45;&gt;tempFile</title>
<path fill="none" stroke="black" d="M1032.96,-1027.8C1013.37,-994.81 977.49,-932.09 953,-875.71 926.56,-814.83 931.46,-795.16 905,-734.29 891.26,-702.69 872.69,-668.42 858.13,-642.96"/>
<polygon fill="black" stroke="black" points="861.35,-641.54 853.32,-634.63 855.29,-645.04 861.35,-641.54"/>
</g>
<!-- replacement&#45;&gt;variables -->
<g id="edge75" class="edge">
<title>replacement&#45;&gt;variables</title>
<path fill="none" stroke="black" d="M1103.25,-1032.27C1146.88,-1018.5 1209.14,-1000.51 1265,-990.48 1562.21,-937.11 2342.9,-998 2619,-875.71 2703.37,-838.34 2696.13,-788.22 2771,-734.29 2831.32,-690.84 2907.76,-651.59 2957.72,-627.79"/>
<polygon fill="black" stroke="black" points="2959.05,-631.03 2966.6,-623.59 2956.06,-624.7 2959.05,-631.03"/>
</g>
<!-- replacement&#45;&gt;vartypes -->
<g id="edge71" class="edge">
<title>replacement&#45;&gt;vartypes</title>
<path fill="none" stroke="black" d="M1103.25,-1032.3C1146.89,-1018.55 1209.15,-1000.57 1265,-990.48 1409.98,-964.29 2483.47,-981.51 2586,-875.71 2621.51,-839.07 2619.64,-486.78 2617.81,-360.64"/>
<polygon fill="black" stroke="black" points="2621.31,-360.62 2617.66,-350.68 2614.31,-360.73 2621.31,-360.62"/>
</g>
<!-- runCommand&#45;&gt;env -->
<g id="edge25" class="edge">
<title>runCommand&#45;&gt;env</title>
<path fill="none" stroke="black" d="M1410.63,-999.49C1239.04,-942.6 973.38,-854.53 870.12,-820.29"/>
<polygon fill="black" stroke="black" points="871.23,-816.98 860.64,-817.15 869.03,-823.62 871.23,-816.98"/>
</g>
<!-- runCommand&#45;&gt;functions -->
<g id="edge60" class="edge">
<title>runCommand&#45;&gt;functions</title>
<path fill="none" stroke="black" d="M1727.2,-1000.24C1857.31,-959.26 2039.92,-901.76 2172.67,-859.96"/>
<polygon fill="black" stroke="black" points="2173.41,-863.39 2181.89,-857.05 2171.3,-856.71 2173.41,-863.39"/>
</g>
<!-- runCommand&#45;&gt;linebuffer -->
<g id="edge22" class="edge">
<title>runCommand&#45;&gt;linebuffer</title>
<path fill="none" stroke="black" d="M1507.65,-991.56C1478.8,-959.44 1445.45,-917.82 1423,-875.71 1392.1,-817.74 1412.29,-791.5 1380,-734.29 1326.06,-638.72 1233.39,-548.27 1179.11,-499.77"/>
<polygon fill="black" stroke="black" points="1181.68,-497.37 1171.87,-493.35 1177.03,-502.61 1181.68,-497.37"/>
</g>
<!-- runCommand&#45;&gt;matches -->
<g id="edge23" class="edge">
<title>runCommand&#45;&gt;matches</title>
<path fill="none" stroke="black" d="M1550.72,-990.12C1529.69,-899.51 1495.45,-723.69 1505,-572.98 1506.6,-547.69 1510.26,-519.34 1513.43,-497.75"/>
<polygon fill="black" stroke="black" points="1516.87,-498.42 1514.9,-488.01 1509.95,-497.38 1516.87,-498.42"/>
</g>
<!-- runCommand&#45;&gt;messages -->
<g id="edge29" class="edge">
<title>runCommand&#45;&gt;messages</title>
<path fill="none" stroke="black" d="M1358.94,-1008.26C1279.79,-982.2 1194.95,-940.84 1138,-875.71 1022,-743.05 1060.4,-666.82 1038,-492.02 1015.69,-317.92 1181.99,-151.99 1264.91,-81.06"/>
<polygon fill="black" stroke="black" points="1267.1,-83.8 1272.47,-74.67 1262.58,-78.45 1267.1,-83.8"/>
</g>
<!-- runCommand&#45;&gt;opresult -->
<g id="edge62" class="edge">
<title>runCommand&#45;&gt;opresult</title>
<path fill="none" stroke="black" d="M1519.2,-990.84C1496.07,-958.36 1469.63,-916.64 1453,-875.71 1411.58,-773.77 1419.37,-741.98 1404,-633.02 1381.98,-476.96 1371.84,-288.78 1368.42,-212.56"/>
<polygon fill="black" stroke="black" points="1371.92,-212.66 1367.99,-202.82 1364.93,-212.97 1371.92,-212.66"/>
</g>
<!-- runCommand&#45;&gt;parseCmdLine -->
<g id="edge65" class="edge">
<title>runCommand&#45;&gt;parseCmdLine</title>
<path fill="none" stroke="black" d="M1492.08,-992C1430.24,-942.65 1344.58,-874.3 1296.19,-835.68"/>
<polygon fill="black" stroke="black" points="1298.5,-833.04 1288.5,-829.54 1294.13,-838.52 1298.5,-833.04"/>
</g>
<!-- runCommand&#45;&gt;readjson -->
<g id="edge61" class="edge">
<title>runCommand&#45;&gt;readjson</title>
<path fill="none" stroke="black" d="M1656.97,-993.21C1708.64,-959.79 1774.16,-916.42 1831,-875.71 1949.53,-790.81 2084.57,-683 2146.98,-632.51"/>
<polygon fill="black" stroke="black" points="2148.91,-635.45 2154.48,-626.44 2144.5,-630.01 2148.91,-635.45"/>
</g>
<!-- runCommand&#45;&gt;regexes -->
<g id="edge24" class="edge">
<title>runCommand&#45;&gt;regexes</title>
<path fill="none" stroke="black" d="M1542.03,-990.55C1529.53,-957.13 1514.83,-914.6 1505,-875.71 1456.21,-682.65 1354.97,-610.59 1443,-431.98 1462.35,-392.71 1502.09,-363.04 1535.94,-343.53"/>
<polygon fill="black" stroke="black" points="1537.42,-346.72 1544.45,-338.79 1534.01,-340.61 1537.42,-346.72"/>
</g>
<!-- runCommand&#45;&gt;signatures -->
<g id="edge66" class="edge">
<title>runCommand&#45;&gt;signatures</title>
<path fill="none" stroke="black" d="M1854.4,-1041.83C2138.94,-1026.47 2546.86,-985.41 2657,-875.71 2710,-822.92 2721.74,-587.79 2724.3,-498"/>
<polygon fill="black" stroke="black" points="2727.79,-498.17 2724.56,-488.09 2720.8,-497.99 2727.79,-498.17"/>
</g>
<!-- runCommand&#45;&gt;unicodes -->
<g id="edge63" class="edge">
<title>runCommand&#45;&gt;unicodes</title>
<path fill="none" stroke="black" d="M1667.25,-993.8C1711.78,-963.92 1761.11,-923.57 1793,-875.71 1829.09,-821.55 1791.62,-786.11 1831,-734.29 1852.32,-706.24 2072.91,-589.55 2104,-572.98 2163.91,-541.03 2234.61,-507.88 2281.65,-486.44"/>
<polygon fill="black" stroke="black" points="2282.87,-489.73 2290.52,-482.41 2279.97,-483.36 2282.87,-489.73"/>
</g>
<!-- runCommand&#45;&gt;utf8decoder -->
<g id="edge64" class="edge">
<title>runCommand&#45;&gt;utf8decoder</title>
<path fill="none" stroke="black" d="M1606.84,-990.85C1705.98,-844.81 1957.28,-474.66 2038.94,-354.39"/>
<polygon fill="black" stroke="black" points="2041.62,-356.67 2044.34,-346.43 2035.83,-352.74 2041.62,-356.67"/>
</g>
<!-- runCommand&#45;&gt;variables -->
<g id="edge34" class="edge">
<title>runCommand&#45;&gt;variables</title>
<path fill="none" stroke="black" d="M1844.05,-1032.84C2148.97,-1009.05 2615.66,-960.11 2771,-875.71 2844.45,-835.8 2839.79,-797.05 2895,-734.29 2924.9,-700.3 2959.25,-661.4 2982.57,-635.02"/>
<polygon fill="black" stroke="black" points="2985.03,-637.52 2989.03,-627.71 2979.79,-632.88 2985.03,-637.52"/>
</g>
<!-- runCommand&#45;&gt;vartypes -->
<g id="edge28" class="edge">
<title>runCommand&#45;&gt;vartypes</title>
<path fill="none" stroke="black" d="M1855.5,-1043.42C2132.76,-1029.33 2522.78,-989.27 2619,-875.71 2651.94,-836.84 2629.56,-485.98 2620.4,-360.43"/>
<polygon fill="black" stroke="black" points="2623.89,-360.22 2619.67,-350.51 2616.91,-360.74 2623.89,-360.22"/>
</g>
<!-- runner -->
<g id="node22" class="node">
<title>runner</title>
<g id="a_node22"><a xlink:href="html/runner.html" xlink:title="runner.md" target="_parent">
<polygon fill="palegreen" stroke="black" points="1335.37,-1534.69 1335.37,-1565.31 1285.95,-1586.95 1216.05,-1586.95 1166.63,-1565.31 1166.63,-1534.69 1216.05,-1513.05 1285.95,-1513.05 1335.37,-1534.69"/>
<polygon fill="none" stroke="black" points="1339.38,-1532.06 1339.38,-1567.94 1286.78,-1590.98 1215.22,-1590.98 1162.62,-1567.94 1162.62,-1532.06 1215.22,-1509.02 1286.78,-1509.02 1339.38,-1532.06"/>
<text text-anchor="middle" x="1251" y="-1541.2" font-family="Times,serif" font-size="36.00">runner</text>
</a>
</g>
</g>
<!-- signatures&#45;&gt;messages -->
<g id="edge46" class="edge">
<title>signatures&#45;&gt;messages</title>
<path fill="none" stroke="black" d="M2732.49,-437.58C2742.73,-400.73 2756.38,-328.56 2724,-281.06 2637.48,-154.14 2552.24,-189.33 2403,-152.96 2043.08,-65.23 1599.95,-48.48 1407.2,-45.5"/>
<polygon fill="black" stroke="black" points="1407.26,-42 1397.21,-45.36 1407.16,-49 1407.26,-42"/>
</g>
<!-- signatures&#45;&gt;vartypes -->
<g id="edge45" class="edge">
<title>signatures&#45;&gt;vartypes</title>
<path fill="none" stroke="black" d="M2707.89,-438.02C2691.77,-416.38 2667.24,-383.46 2647.73,-357.26"/>
<polygon fill="black" stroke="black" points="2650.74,-355.45 2641.96,-349.52 2645.13,-359.63 2650.74,-355.45"/>
</g>
<!-- startingvars&#45;&gt;args -->
<g id="edge80" class="edge">
<title>startingvars&#45;&gt;args</title>
<path fill="none" stroke="black" d="M1992.14,-1225.8C1732.63,-1212.93 988.4,-1171.31 896,-1113.52 728.28,-1008.62 767.46,-902.27 663,-734.29 641.85,-700.28 617.36,-661.44 600.69,-635.08"/>
<polygon fill="black" stroke="black" points="603.82,-633.48 595.52,-626.9 597.91,-637.23 603.82,-633.48"/>
</g>
<!-- startingvars&#45;&gt;env -->
<g id="edge82" class="edge">
<title>startingvars&#45;&gt;env</title>
<path fill="none" stroke="black" d="M1991.9,-1226.33C1738.18,-1215.12 1024.84,-1178.13 943,-1113.52 897.53,-1077.62 920.22,-1044.77 900,-990.48 880.17,-937.24 855.59,-876.03 840.61,-839.21"/>
<polygon fill="black" stroke="black" points="843.88,-837.95 836.86,-830.01 837.39,-840.59 843.88,-837.95"/>
</g>
<!-- startingvars&#45;&gt;functions -->
<g id="edge88" class="edge">
<title>startingvars&#45;&gt;functions</title>
<path fill="none" stroke="black" d="M2095.33,-1206.9C2132.62,-1146.78 2234.05,-983.25 2295.24,-884.61"/>
<polygon fill="black" stroke="black" points="2298.12,-886.61 2300.42,-876.26 2292.17,-882.92 2298.12,-886.61"/>
</g>
<!-- startingvars&#45;&gt;messages -->
<g id="edge81" class="edge">
<title>startingvars&#45;&gt;messages</title>
<path fill="none" stroke="black" d="M2168.93,-1224.81C2337.05,-1213.44 2696.45,-1181.72 2798,-1113.52 3005.84,-973.94 3024.12,-874 3092,-633.02 3150.34,-425.89 3201.04,-282.22 3029,-152.96 2899.14,-55.38 1751.37,-45.67 1407.16,-44.97"/>
<polygon fill="black" stroke="black" points="1407.26,-41.47 1397.26,-44.95 1407.25,-48.47 1407.26,-41.47"/>
</g>
<!-- startingvars&#45;&gt;opresult -->
<g id="edge86" class="edge">
<title>startingvars&#45;&gt;opresult</title>
<path fill="none" stroke="black" d="M2075.5,-1206.68C2058.15,-1134.65 2001.22,-910.03 1926,-734.29 1903.35,-681.37 1719.25,-317.88 1675,-281.06 1607.56,-224.95 1508.33,-198.97 1440.86,-187.23"/>
<polygon fill="black" stroke="black" points="1441.83,-183.84 1431.39,-185.65 1440.67,-190.75 1441.83,-183.84"/>
</g>
<!-- startingvars&#45;&gt;readjson -->
<g id="edge85" class="edge">
<title>startingvars&#45;&gt;readjson</title>
<path fill="none" stroke="black" d="M2077.92,-1206.58C2069.26,-1134.28 2048.65,-908.93 2102,-734.29 2113.28,-697.37 2137.56,-660.36 2156.43,-635.26"/>
<polygon fill="black" stroke="black" points="2159.11,-637.52 2162.44,-627.46 2153.56,-633.25 2159.11,-637.52"/>
</g>
<!-- startingvars&#45;&gt;runCommand -->
<g id="edge87" class="edge">
<title>startingvars&#45;&gt;runCommand</title>
<path fill="none" stroke="black" d="M2026.86,-1211.39C1956.52,-1187.22 1830.6,-1143.94 1728.14,-1108.73"/>
<polygon fill="black" stroke="black" points="1729.38,-1105.45 1718.79,-1105.51 1727.11,-1112.07 1729.38,-1105.45"/>
</g>
<!-- startingvars&#45;&gt;variables -->
<g id="edge83" class="edge">
<title>startingvars&#45;&gt;variables</title>
<path fill="none" stroke="black" d="M2167.99,-1223.87C2324.2,-1211.35 2644.23,-1178.4 2733,-1113.52 2886.84,-1001.08 2840.05,-900.63 2933,-734.29 2951.78,-700.68 2974.29,-662.85 2990.11,-636.65"/>
<polygon fill="black" stroke="black" points="2993.06,-638.53 2995.25,-628.16 2987.07,-634.91 2993.06,-638.53"/>
</g>
<!-- startingvars&#45;&gt;vartypes -->
<g id="edge84" class="edge">
<title>startingvars&#45;&gt;vartypes</title>
<path fill="none" stroke="black" d="M2139.56,-1212.35C2261.25,-1172.66 2542.69,-1064.77 2694,-875.71 2821.65,-716.2 2915.4,-609.34 2814,-431.98 2789.49,-389.1 2742.25,-360.5 2700.17,-342.43"/>
<polygon fill="black" stroke="black" points="2701.58,-339.23 2691,-338.64 2698.91,-345.7 2701.58,-339.23"/>
</g>
<!-- statictea -->
<g id="node25" class="node">
<title>statictea</title>
<g id="a_node25"><a xlink:href="html/statictea.html" xlink:title="statictea.md" target="_parent">
<polygon fill="palegoldenrod" stroke="black" points="506,-1611 333,-1550 506,-1489 679,-1550 506,-1611"/>
<text text-anchor="middle" x="506" y="-1538.1" font-family="Times,serif" font-size="48.00">statictea</text>
</a>
</g>
</g>
<!-- statictea&#45;&gt;args -->
<g id="edge104" class="edge">
<title>statictea&#45;&gt;args</title>
<path fill="none" stroke="black" d="M505.32,-1488.82C504.64,-1353.3 507.62,-1014.17 549,-734.29 553.93,-700.97 563.5,-663.72 570.89,-637.61"/>
<polygon fill="black" stroke="black" points="574.18,-638.84 573.59,-628.26 567.46,-636.9 574.18,-638.84"/>
</g>
<!-- statictea&#45;&gt;env -->
<g id="edge108" class="edge">
<title>statictea&#45;&gt;env</title>
<path fill="none" stroke="black" d="M517.44,-1492.97C527.26,-1448.77 542.99,-1385.95 563,-1332.98 637.04,-1136.99 761.52,-917.42 808.39,-837.35"/>
<polygon fill="black" stroke="black" points="811.16,-839.55 813.2,-829.16 805.12,-836.01 811.16,-839.55"/>
</g>
<!-- statictea&#45;&gt;gethelp -->
<g id="edge106" class="edge">
<title>statictea&#45;&gt;gethelp</title>
<path fill="none" stroke="black" d="M450.61,-1508.17C405.37,-1474.83 342.25,-1428.31 300.08,-1397.22"/>
<polygon fill="black" stroke="black" points="302.23,-1394.46 292.1,-1391.35 298.07,-1400.1 302.23,-1394.46"/>
</g>
<!-- statictea&#45;&gt;messages -->
<g id="edge105" class="edge">
<title>statictea&#45;&gt;messages</title>
<path fill="none" stroke="black" d="M390.55,-1529.35C241.21,-1496.55 0,-1415.22 0,-1232 0,-1232 0,-1232 0,-314 0,-66.36 909.6,-44.65 1212.9,-44.29"/>
<polygon fill="black" stroke="black" points="1212.79,-47.79 1222.79,-44.28 1212.79,-40.79 1212.79,-47.79"/>
</g>
<!-- statictea&#45;&gt;opresult -->
<g id="edge109" class="edge">
<title>statictea&#45;&gt;opresult</title>
<path fill="none" stroke="black" d="M475.9,-1499.11C442.12,-1438.28 392,-1331.28 392,-1232 392,-1232 392,-1232 392,-1051 392,-673.25 417.94,-457.41 752,-281.06 844.63,-232.16 1148.62,-198.3 1291.51,-184.68"/>
<polygon fill="black" stroke="black" points="1291.63,-188.19 1301.25,-183.76 1290.97,-181.22 1291.63,-188.19"/>
</g>
<!-- statictea&#45;&gt;parseCommandLine -->
<g id="edge9" class="edge">
<title>statictea&#45;&gt;parseCommandLine</title>
<path fill="none" stroke="black" d="M393.45,-1528.32C317.5,-1507.88 222.72,-1468.26 175,-1393.02 61.05,-1213.35 134.28,-936.34 165.18,-840.23"/>
<polygon fill="black" stroke="black" points="168.46,-841.46 168.25,-830.86 161.81,-839.28 168.46,-841.46"/>
</g>
<!-- statictea&#45;&gt;processTemplate -->
<g id="edge91" class="edge">
<title>statictea&#45;&gt;processTemplate</title>
<path fill="none" stroke="black" d="M551.51,-1504.69C586.23,-1470.88 633.19,-1425.16 664.02,-1395.14"/>
<polygon fill="black" stroke="black" points="666.45,-1397.65 671.18,-1388.17 661.57,-1392.64 666.45,-1397.65"/>
</g>
<!-- statictea&#45;&gt;repl -->
<g id="edge122" class="edge">
<title>statictea&#45;&gt;repl</title>
<path fill="none" stroke="black" d="M588.3,-1517.6C619.16,-1506.96 654.8,-1496.01 688,-1489 929.04,-1438.1 1708.04,-1381.61 1912.49,-1367.39"/>
<polygon fill="black" stroke="black" points="1912.49,-1370.9 1922.23,-1366.71 1912.01,-1363.91 1912.49,-1370.9"/>
</g>
<!-- timer -->
<g id="node27" class="node">
<title>timer</title>
<g id="a_node27"><a xlink:href="html/timer.html" xlink:title="timer.md" target="_parent">
<polygon fill="palegreen" stroke="black" points="1416.09,-1352.21 1416.09,-1373.79 1385.58,-1389.04 1342.42,-1389.04 1311.91,-1373.79 1311.91,-1352.21 1342.42,-1336.96 1385.58,-1336.96 1416.09,-1352.21"/>
<polygon fill="none" stroke="black" points="1420.09,-1349.74 1420.09,-1376.26 1386.52,-1393.04 1341.48,-1393.04 1307.91,-1376.26 1307.91,-1349.74 1341.48,-1332.96 1386.52,-1332.96 1420.09,-1349.74"/>
<text text-anchor="middle" x="1364" y="-1356.8" font-family="Times,serif" font-size="24.00">timer</text>
</a>
</g>
</g>
<!-- statictea&#45;&gt;timer -->
<g id="edge123" class="edge">
<title>statictea&#45;&gt;timer</title>
<path fill="none" stroke="black" d="M589.9,-1518.17C620.47,-1507.79 655.5,-1496.85 688,-1489 955.19,-1424.43 1035.43,-1471.07 1299,-1393.02 1303.47,-1391.7 1308.03,-1390.14 1312.55,-1388.44"/>
<polygon fill="black" stroke="black" points="1313.62,-1391.78 1321.6,-1384.82 1311.02,-1385.28 1313.62,-1391.78"/>
</g>
<!-- updateTemplate -->
<g id="node29" class="node">
<title>updateTemplate</title>
<g id="a_node29"><a xlink:href="html/updateTemplate.html" xlink:title="updateTemplate.md" target="_parent">
<ellipse fill="palegoldenrod" stroke="black" cx="1170" cy="-1363" rx="119.5" ry="24.08"/>
<text text-anchor="middle" x="1170" y="-1356.8" font-family="Times,serif" font-size="24.00">updateTemplate</text>
</a>
</g>
</g>
<!-- statictea&#45;&gt;updateTemplate -->
<g id="edge103" class="edge">
<title>statictea&#45;&gt;updateTemplate</title>
<path fill="none" stroke="black" d="M592.66,-1519.16C622.72,-1509.15 656.72,-1498.2 688,-1489 825.35,-1448.59 986.72,-1408.15 1083.54,-1384.63"/>
<polygon fill="black" stroke="black" points="1084.08,-1388.1 1092.98,-1382.35 1082.43,-1381.3 1084.08,-1388.1"/>
</g>
<!-- version -->
<g id="node33" class="node">
<title>version</title>
<g id="a_node33"><a xlink:href="html/version.html" xlink:title="version.md" target="_parent">
<polygon fill="palegreen" stroke="black" points="3302.67,-451.21 3302.67,-472.79 3263.62,-488.04 3208.38,-488.04 3169.33,-472.79 3169.33,-451.21 3208.38,-435.96 3263.62,-435.96 3302.67,-451.21"/>
<polygon fill="none" stroke="black" points="3306.67,-448.48 3306.67,-475.52 3264.37,-492.04 3207.63,-492.04 3165.33,-475.52 3165.33,-448.48 3207.63,-431.96 3264.37,-431.96 3306.67,-448.48"/>
<text text-anchor="middle" x="3236" y="-455.8" font-family="Times,serif" font-size="24.00">version</text>
</a>
</g>
</g>
<!-- statictea&#45;&gt;version -->
<g id="edge107" class="edge">
<title>statictea&#45;&gt;version</title>
<path fill="none" stroke="black" d="M587.75,-1517.3C618.71,-1506.56 654.55,-1495.62 688,-1489 981.99,-1430.79 3373,-1531.7 3373,-1232 3373,-1232 3373,-1232 3373,-804 3373,-687.12 3302.84,-562.89 3262.94,-501.69"/>
<polygon fill="black" stroke="black" points="3266.08,-500.09 3257.64,-493.68 3260.24,-503.95 3266.08,-500.09"/>
</g>
<!-- unicodes&#45;&gt;messages -->
<g id="edge41" class="edge">
<title>unicodes&#45;&gt;messages</title>
<path fill="none" stroke="black" d="M2335.53,-437.57C2337.92,-379.21 2335.18,-226.74 2249,-152.96 2185.83,-98.88 1633.98,-62.76 1406.94,-50.06"/>
<polygon fill="black" stroke="black" points="1407.41,-46.58 1397.23,-49.52 1407.02,-53.57 1407.41,-46.58"/>
</g>
<!-- unicodes&#45;&gt;opresult -->
<g id="edge40" class="edge">
<title>unicodes&#45;&gt;opresult</title>
<path fill="none" stroke="black" d="M2325.57,-437.8C2309.83,-398.16 2271.95,-318.12 2211,-281.06 2083.2,-203.34 1628.84,-184.09 1445.03,-179.44"/>
<polygon fill="black" stroke="black" points="1445.17,-175.94 1435.09,-179.19 1445,-182.94 1445.17,-175.94"/>
</g>
<!-- unicodes&#45;&gt;utf8decoder -->
<g id="edge42" class="edge">
<title>unicodes&#45;&gt;utf8decoder</title>
<path fill="none" stroke="black" d="M2296.88,-440.99C2252.6,-417.12 2177.98,-376.9 2125.37,-348.54"/>
<polygon fill="black" stroke="black" points="2127.28,-345.59 2116.82,-343.93 2123.96,-351.76 2127.28,-345.59"/>
</g>
<!-- unicodes&#45;&gt;vartypes -->
<g id="edge43" class="edge">
<title>unicodes&#45;&gt;vartypes</title>
<path fill="none" stroke="black" d="M2372.46,-441.29C2418.84,-417.53 2497.48,-377.24 2553.04,-348.77"/>
<polygon fill="black" stroke="black" points="2554.49,-351.96 2561.79,-344.29 2551.29,-345.73 2554.49,-351.96"/>
</g>
<!-- updateTemplate&#45;&gt;args -->
<g id="edge92" class="edge">
<title>updateTemplate&#45;&gt;args</title>
<path fill="none" stroke="black" d="M1061.39,-1352.69C973.64,-1340.94 850.04,-1314.47 758,-1255.04 690.15,-1211.23 675.49,-1187.89 644,-1113.52 573.37,-946.72 575.18,-723.65 578.92,-638.77"/>
<polygon fill="black" stroke="black" points="582.41,-639.17 579.4,-629.01 575.42,-638.83 582.41,-639.17"/>
</g>
<!-- updateTemplate&#45;&gt;env -->
<g id="edge94" class="edge">
<title>updateTemplate&#45;&gt;env</title>
<path fill="none" stroke="black" d="M1127.46,-1340.05C1060.71,-1303.15 932.73,-1221.95 872,-1113.52 822.42,-1024.99 821.4,-900.59 824.35,-840.79"/>
<polygon fill="black" stroke="black" points="827.84,-841.08 824.91,-830.89 820.85,-840.68 827.84,-841.08"/>
</g>
<!-- updateTemplate&#45;&gt;linebuffer -->
<g id="edge95" class="edge">
<title>updateTemplate&#45;&gt;linebuffer</title>
<path fill="none" stroke="black" d="M1169.3,-1338.49C1167.45,-1279.74 1161.78,-1121.79 1151,-990.48 1146.8,-939.32 1141.02,-926.96 1138,-875.71 1129.97,-739.41 1132.79,-577.35 1134.75,-503.4"/>
<polygon fill="black" stroke="black" points="1138.24,-503.91 1135.02,-493.82 1131.24,-503.72 1138.24,-503.91"/>
</g>
<!-- updateTemplate&#45;&gt;messages -->
<g id="edge93" class="edge">
<title>updateTemplate&#45;&gt;messages</title>
<path fill="none" stroke="black" d="M1051.15,-1359.97C948.27,-1352.81 799.77,-1329 694,-1255.04 615.33,-1200.04 430,-887.77 430,-806 430,-806 430,-806 430,-314 430,-218.87 487.44,-198.43 571,-152.96 679.88,-93.71 1038.37,-62.74 1212.86,-50.86"/>
<polygon fill="black" stroke="black" points="1213.09,-54.35 1222.83,-50.19 1212.62,-47.37 1213.09,-54.35"/>
</g>
<!-- updateTemplate&#45;&gt;opresult -->
<g id="edge102" class="edge">
<title>updateTemplate&#45;&gt;opresult</title>
<path fill="none" stroke="black" d="M1108.64,-1341.99C1060.15,-1324.2 992.46,-1294.84 942,-1255.04 878.8,-1205.2 862.88,-1186.53 829,-1113.52 726.64,-892.92 640.74,-793.16 744,-572.98 851.74,-343.24 1165.89,-232.52 1302.41,-194.21"/>
<polygon fill="black" stroke="black" points="1302.94,-197.69 1311.64,-191.65 1301.07,-190.94 1302.94,-197.69"/>
</g>
<!-- updateTemplate&#45;&gt;parseCmdLine -->
<g id="edge96" class="edge">
<title>updateTemplate&#45;&gt;parseCmdLine</title>
<path fill="none" stroke="black" d="M1184.43,-1338.79C1196.71,-1317.76 1213.65,-1285.51 1222,-1255.04 1263.1,-1105.01 1262.67,-917.11 1260.44,-840.7"/>
<polygon fill="black" stroke="black" points="1263.94,-840.81 1260.12,-830.93 1256.94,-841.04 1263.94,-840.81"/>
</g>
<!-- updateTemplate&#45;&gt;replacement -->
<g id="edge100" class="edge">
<title>updateTemplate&#45;&gt;replacement</title>
<path fill="none" stroke="black" d="M1160.65,-1338.52C1139.08,-1284.31 1085.71,-1150.25 1060.55,-1087.03"/>
<polygon fill="black" stroke="black" points="1063.84,-1085.85 1056.89,-1077.85 1057.34,-1088.43 1063.84,-1085.85"/>
</g>
<!-- updateTemplate&#45;&gt;runCommand -->
<g id="edge97" class="edge">
<title>updateTemplate&#45;&gt;runCommand</title>
<path fill="none" stroke="black" d="M1199.12,-1339.28C1257.92,-1293.4 1392.77,-1188.17 1481.58,-1118.88"/>
<polygon fill="black" stroke="black" points="1483.63,-1121.71 1489.36,-1112.8 1479.33,-1116.19 1483.63,-1121.71"/>
</g>
<!-- updateTemplate&#45;&gt;startingvars -->
<g id="edge101" class="edge">
<title>updateTemplate&#45;&gt;startingvars</title>
<path fill="none" stroke="black" d="M1245.14,-1343.86C1262.75,-1339.95 1281.48,-1336.07 1299,-1332.98 1545.18,-1289.49 1838.07,-1256.66 1985.75,-1241.41"/>
<polygon fill="black" stroke="black" points="1985.9,-1244.92 1995.49,-1240.41 1985.19,-1237.95 1985.9,-1244.92"/>
</g>
<!-- updateTemplate&#45;&gt;variables -->
<g id="edge98" class="edge">
<title>updateTemplate&#45;&gt;variables</title>
<path fill="none" stroke="black" d="M1242.26,-1343.46C1260.65,-1339.37 1280.46,-1335.51 1299,-1332.98 1469.63,-1309.66 2693.57,-1333.27 2847,-1255.04 3071.05,-1140.81 3033.17,-756.41 3015.77,-638.61"/>
<polygon fill="black" stroke="black" points="3019.26,-638.29 3014.29,-628.93 3012.34,-639.35 3019.26,-638.29"/>
</g>
<!-- updateTemplate&#45;&gt;vartypes -->
<g id="edge99" class="edge">
<title>updateTemplate&#45;&gt;vartypes</title>
<path fill="none" stroke="black" d="M1242.27,-1343.49C1260.66,-1339.4 1280.47,-1335.53 1299,-1332.98 1462.9,-1310.41 2641.31,-1335.29 2786,-1255.04 2853.13,-1217.81 2861.93,-1186.73 2885,-1113.52 2907.76,-1041.29 2926.58,-495.27 2885,-431.98 2873.69,-414.75 2768.62,-372.62 2693.47,-344.17"/>
<polygon fill="black" stroke="black" points="2695.08,-341.04 2684.49,-340.78 2692.61,-347.59 2695.08,-341.04"/>
</g>
<!-- variables&#45;&gt;messages -->
<g id="edge32" class="edge">
<title>variables&#45;&gt;messages</title>
<path fill="none" stroke="black" d="M3018.82,-578.64C3045.13,-504.59 3114.25,-272.84 2999,-152.96 2943.5,-95.23 1757.56,-57.53 1406.85,-47.61"/>
<polygon fill="black" stroke="black" points="1407.08,-44.12 1396.99,-47.33 1406.89,-51.12 1407.08,-44.12"/>
</g>
<!-- variables&#45;&gt;opresult -->
<g id="edge33" class="edge">
<title>variables&#45;&gt;opresult</title>
<path fill="none" stroke="black" d="M3008.11,-578.53C3004.22,-543.44 2992.66,-476.65 2959,-431.98 2884.31,-332.84 2841.7,-320.5 2724,-281.06 2484.2,-200.7 1696.46,-182.67 1444.94,-178.92"/>
<polygon fill="black" stroke="black" points="1445.29,-175.43 1435.24,-178.78 1445.19,-182.43 1445.29,-175.43"/>
</g>
<!-- variables&#45;&gt;vartypes -->
<g id="edge30" class="edge">
<title>variables&#45;&gt;vartypes</title>
<path fill="none" stroke="black" d="M3003.93,-578.58C2993.38,-542.32 2968.34,-472.56 2923,-431.98 2864.47,-379.6 2779.92,-349.97 2714.51,-333.79"/>
<polygon fill="black" stroke="black" points="2715.38,-330.4 2704.83,-331.47 2713.74,-337.21 2715.38,-330.4"/>
</g>
<!-- variables&#45;&gt;version -->
<g id="edge31" class="edge">
<title>variables&#45;&gt;version</title>
<path fill="none" stroke="black" d="M3043.35,-581.49C3080.94,-558.37 3142.46,-520.53 3185.85,-493.85"/>
<polygon fill="black" stroke="black" points="3187.66,-496.84 3194.35,-488.62 3184,-490.88 3187.66,-496.84"/>
</g>
<!-- vartypes&#45;&gt;messages -->
<g id="edge26" class="edge">
<title>vartypes&#45;&gt;messages</title>
<path fill="none" stroke="black" d="M2576.89,-283.62C2524.72,-245.89 2429.29,-182.86 2337,-152.96 2165.28,-97.32 1628.24,-62.41 1406.87,-50.05"/>
<polygon fill="black" stroke="black" points="1407.31,-46.57 1397.13,-49.51 1406.92,-53.56 1407.31,-46.57"/>
</g>
<!-- vartypes&#45;&gt;opresult -->
<g id="edge27" class="edge">
<title>vartypes&#45;&gt;opresult</title>
<path fill="none" stroke="black" d="M2524.32,-303.92C2286.49,-278.04 1658.06,-209.67 1441.56,-186.11"/>
<polygon fill="black" stroke="black" points="1442.16,-182.66 1431.84,-185.05 1441.4,-189.62 1442.16,-182.66"/>
</g>
</g>
</svg>
