<?xml version="1.0" encoding="UTF-8" standalone="no"?>
<!DOCTYPE svg PUBLIC "-//W3C//DTD SVG 1.1//EN"
 "http://www.w3.org/Graphics/SVG/1.1/DTD/svg11.dtd">
<!-- Generated by graphviz version 2.40.1 (20161225.0304)
 -->
<!-- Title: statictea Pages: 1 -->
<svg width="720pt" height="328pt"
 viewBox="0.00 0.00 720.00 328.02" xmlns="http://www.w3.org/2000/svg" xmlns:xlink="http://www.w3.org/1999/xlink">
<g id="graph0" class="graph" transform="scale(.2953 .2953) rotate(0) translate(4 1106.702)">
<title>statictea</title>
<polygon fill="#ffffff" stroke="transparent" points="-4,4 -4,-1106.702 2434,-1106.702 2434,4 -4,4"/>
<!-- runFunction -->
<g id="node1" class="node">
<title>runFunction</title>
<g id="a_node1"><a xlink:href="runFunction.md" xlink:title="runFunction.md">
<ellipse fill="#eee8aa" stroke="#000000" cx="1040" cy="-563" rx="94.055" ry="22.7556"/>
<text text-anchor="middle" x="1040" y="-555.8" font-family="Times,serif" font-size="24.00" fill="#000000">runFunction</text>
</a>
</g>
</g>
<!-- parseNumber -->
<g id="node2" class="node">
<title>parseNumber</title>
<g id="a_node2"><a xlink:href="parseNumber.md" xlink:title="parseNumber.md">
<polygon fill="#98fb98" stroke="#000000" points="1244.3805,-382.8581 1244.3805,-403.1419 1179.1353,-417.4846 1086.8647,-417.4846 1021.6195,-403.1419 1021.6195,-382.8581 1086.8647,-368.5154 1179.1353,-368.5154 1244.3805,-382.8581"/>
<polygon fill="none" stroke="#000000" points="1248.3872,-379.6442 1248.3872,-406.3558 1179.5714,-421.4835 1086.4286,-421.4835 1017.6128,-406.3558 1017.6128,-379.6442 1086.4286,-364.5165 1179.5714,-364.5165 1248.3872,-379.6442"/>
<text text-anchor="middle" x="1133" y="-385.8" font-family="Times,serif" font-size="24.00" fill="#000000">parseNumber</text>
</a>
</g>
</g>
<!-- runFunction&#45;&gt;parseNumber -->
<g id="edge46" class="edge">
<title>runFunction&#45;&gt;parseNumber</title>
<path fill="none" stroke="#000000" d="M1052.3497,-540.4253C1067.6602,-512.4384 1093.979,-464.3287 1112.3736,-430.7042"/>
<polygon fill="#000000" stroke="#000000" points="1115.6071,-432.086 1117.336,-421.6332 1109.466,-428.7264 1115.6071,-432.086"/>
</g>
<!-- regexes -->
<g id="node3" class="node">
<title>regexes</title>
<g id="a_node3"><a xlink:href="regexes.md" xlink:title="regexes.md">
<polygon fill="#98fb98" stroke="#000000" points="1051.187,-211.8581 1051.187,-232.1419 1011.244,-246.4846 954.756,-246.4846 914.813,-232.1419 914.813,-211.8581 954.756,-197.5154 1011.244,-197.5154 1051.187,-211.8581"/>
<polygon fill="none" stroke="#000000" points="1055.1781,-209.0434 1055.1781,-234.9566 1011.9376,-250.4835 954.0624,-250.4835 910.8219,-234.9566 910.8219,-209.0434 954.0624,-193.5165 1011.9376,-193.5165 1055.1781,-209.0434"/>
<text text-anchor="middle" x="983" y="-214.8" font-family="Times,serif" font-size="24.00" fill="#000000">regexes</text>
</a>
</g>
</g>
<!-- runFunction&#45;&gt;regexes -->
<g id="edge45" class="edge">
<title>runFunction&#45;&gt;regexes</title>
<path fill="none" stroke="#000000" d="M1017.2213,-541.0333C992.2101,-515.1755 953.5379,-469.6206 938,-421.4917 920.1766,-366.2835 943.4391,-300.2783 962.6001,-259.7512"/>
<polygon fill="#000000" stroke="#000000" points="965.8674,-261.0364 967.1061,-250.5142 959.576,-257.9673 965.8674,-261.0364"/>
</g>
<!-- unicodes -->
<g id="node6" class="node">
<title>unicodes</title>
<g id="a_node6"><a xlink:href="unicodes.md" xlink:title="unicodes.md">
<polygon fill="#98fb98" stroke="#000000" points="843.5805,-382.8581 843.5805,-403.1419 798.1349,-417.4846 733.8651,-417.4846 688.4195,-403.1419 688.4195,-382.8581 733.8651,-368.5154 798.1349,-368.5154 843.5805,-382.8581"/>
<polygon fill="none" stroke="#000000" points="847.5825,-379.9276 847.5825,-406.0724 798.7519,-421.4835 733.2481,-421.4835 684.4175,-406.0724 684.4175,-379.9276 733.2481,-364.5165 798.7519,-364.5165 847.5825,-379.9276"/>
<text text-anchor="middle" x="766" y="-385.8" font-family="Times,serif" font-size="24.00" fill="#000000">unicodes</text>
</a>
</g>
</g>
<!-- runFunction&#45;&gt;unicodes -->
<g id="edge49" class="edge">
<title>runFunction&#45;&gt;unicodes</title>
<path fill="none" stroke="#000000" d="M1005.8517,-541.8131C958.1911,-512.2427 871.3941,-458.3905 816.3176,-424.219"/>
<polygon fill="#000000" stroke="#000000" points="818.104,-421.2084 807.7614,-418.9104 814.4135,-427.1566 818.104,-421.2084"/>
</g>
<!-- vartypes -->
<g id="node9" class="node">
<title>vartypes</title>
<g id="a_node9"><a xlink:href="vartypes.md" xlink:title="vartypes.md">
<ellipse fill="#eee8aa" stroke="#000000" cx="1475" cy="-222" rx="68.6102" ry="22.7556"/>
<text text-anchor="middle" x="1475" y="-214.8" font-family="Times,serif" font-size="24.00" fill="#000000">vartypes</text>
</a>
</g>
</g>
<!-- runFunction&#45;&gt;vartypes -->
<g id="edge44" class="edge">
<title>runFunction&#45;&gt;vartypes</title>
<path fill="none" stroke="#000000" d="M1026.8531,-540.5326C1005.5624,-500.8747 969.6877,-417.6398 1009,-364.5083 1056.1227,-300.8206 1283.7205,-254.0443 1402.4975,-233.5231"/>
<polygon fill="#000000" stroke="#000000" points="1403.3315,-236.9314 1412.5985,-231.7959 1402.1516,-230.0315 1403.3315,-236.9314"/>
</g>
<!-- tostring -->
<g id="node11" class="node">
<title>tostring</title>
<g id="a_node11"><a xlink:href="tostring.md" xlink:title="tostring.md">
<ellipse fill="#eee8aa" stroke="#000000" cx="1405" cy="-393" rx="63.3406" ry="22.7556"/>
<text text-anchor="middle" x="1405" y="-385.8" font-family="Times,serif" font-size="24.00" fill="#000000">tostring</text>
</a>
</g>
</g>
<!-- runFunction&#45;&gt;tostring -->
<g id="edge48" class="edge">
<title>runFunction&#45;&gt;tostring</title>
<path fill="none" stroke="#000000" d="M1083.3036,-542.8312C1152.0688,-510.8036 1285.7482,-448.542 1357.2189,-415.2542"/>
<polygon fill="#000000" stroke="#000000" points="1358.8705,-418.346 1366.4578,-410.9512 1355.9151,-412.0005 1358.8705,-418.346"/>
</g>
<!-- warnings -->
<g id="node14" class="node">
<title>warnings</title>
<g id="a_node14"><a xlink:href="warnings.md" xlink:title="warnings.md">
<polygon fill="#98fb98" stroke="#000000" points="1602.6684,-41.8581 1602.6684,-62.1419 1555.9997,-76.4846 1490.0003,-76.4846 1443.3316,-62.1419 1443.3316,-41.8581 1490.0003,-27.5154 1555.9997,-27.5154 1602.6684,-41.8581"/>
<polygon fill="none" stroke="#000000" points="1606.6725,-38.9048 1606.6725,-65.0952 1556.6019,-80.4835 1489.3981,-80.4835 1439.3275,-65.0952 1439.3275,-38.9048 1489.3981,-23.5165 1556.6019,-23.5165 1606.6725,-38.9048"/>
<text text-anchor="middle" x="1523" y="-44.8" font-family="Times,serif" font-size="24.00" fill="#000000">warnings</text>
</a>
</g>
</g>
<!-- runFunction&#45;&gt;warnings -->
<g id="edge43" class="edge">
<title>runFunction&#45;&gt;warnings</title>
<path fill="none" stroke="#000000" d="M1017.8966,-540.6443C959.7928,-479.1832 813.1767,-304.8487 902,-193.5083 966.9043,-112.1503 1272.1297,-73.9277 1429.1569,-59.3938"/>
<polygon fill="#000000" stroke="#000000" points="1429.6408,-62.8643 1439.2816,-58.4705 1429.005,-55.8932 1429.6408,-62.8643"/>
</g>
<!-- matches -->
<g id="node19" class="node">
<title>matches</title>
<g id="a_node19"><a xlink:href="matches.md" xlink:title="matches.md">
<ellipse fill="#eee8aa" stroke="#000000" cx="520" cy="-393" rx="66.8311" ry="22.7556"/>
<text text-anchor="middle" x="520" y="-385.8" font-family="Times,serif" font-size="24.00" fill="#000000">matches</text>
</a>
</g>
</g>
<!-- runFunction&#45;&gt;matches -->
<g id="edge47" class="edge">
<title>runFunction&#45;&gt;matches</title>
<path fill="none" stroke="#000000" d="M983.8568,-544.6455C884.4822,-512.1576 678.6315,-444.8603 577.9689,-411.9514"/>
<polygon fill="#000000" stroke="#000000" points="578.8631,-408.5615 568.2706,-408.7808 576.6879,-415.215 578.8631,-408.5615"/>
</g>
<!-- parseCmdLine -->
<g id="node4" class="node">
<title>parseCmdLine</title>
<g id="a_node4"><a xlink:href="parseCmdLine.md" xlink:title="parseCmdLine.md">
<ellipse fill="#eee8aa" stroke="#000000" cx="329" cy="-563" rx="111.4463" ry="22.7556"/>
<text text-anchor="middle" x="329" y="-555.8" font-family="Times,serif" font-size="24.00" fill="#000000">parseCmdLine</text>
</a>
</g>
</g>
<!-- parseCmdLine&#45;&gt;regexes -->
<g id="edge17" class="edge">
<title>parseCmdLine&#45;&gt;regexes</title>
<path fill="none" stroke="#000000" d="M335.6778,-540.3624C349.1027,-498.901 383.3811,-410.7905 444,-364.5083 515.6049,-309.8383 768.0695,-259.324 900.5086,-235.8284"/>
<polygon fill="#000000" stroke="#000000" points="901.3695,-239.2307 910.6099,-234.0475 900.154,-232.337 901.3695,-239.2307"/>
</g>
<!-- env -->
<g id="node5" class="node">
<title>env</title>
<g id="a_node5"><a xlink:href="env.md" xlink:title="env.md">
<ellipse fill="#eee8aa" stroke="#000000" cx="194" cy="-393" rx="35.6342" ry="22.7556"/>
<text text-anchor="middle" x="194" y="-385.8" font-family="Times,serif" font-size="24.00" fill="#000000">env</text>
</a>
</g>
</g>
<!-- parseCmdLine&#45;&gt;env -->
<g id="edge16" class="edge">
<title>parseCmdLine&#45;&gt;env</title>
<path fill="none" stroke="#000000" d="M311.073,-540.4253C286.6746,-509.7013 243.0177,-454.7261 216.4631,-421.2868"/>
<polygon fill="#000000" stroke="#000000" points="219.0623,-418.9318 210.1025,-413.2772 213.5805,-423.285 219.0623,-418.9318"/>
</g>
<!-- parseCmdLine&#45;&gt;warnings -->
<g id="edge18" class="edge">
<title>parseCmdLine&#45;&gt;warnings</title>
<path fill="none" stroke="#000000" d="M327.5441,-540.3677C324.7068,-475.0541 326.3075,-285.0844 432,-193.5083 506.9257,-128.5897 1177.9339,-75.8937 1428.8675,-58.2955"/>
<polygon fill="#000000" stroke="#000000" points="1429.3256,-61.7722 1439.0575,-57.584 1428.838,-54.7892 1429.3256,-61.7722"/>
</g>
<!-- parseCmdLine&#45;&gt;matches -->
<g id="edge19" class="edge">
<title>parseCmdLine&#45;&gt;matches</title>
<path fill="none" stroke="#000000" d="M353.9699,-540.7755C388.5217,-510.0225 450.9033,-454.4996 488.5801,-420.9654"/>
<polygon fill="#000000" stroke="#000000" points="491.0832,-423.4231 496.226,-414.1601 486.4292,-418.1942 491.0832,-423.4231"/>
</g>
<!-- tempFile -->
<g id="node8" class="node">
<title>tempFile</title>
<g id="a_node8"><a xlink:href="tempFile.md" xlink:title="tempFile.md">
<polygon fill="#98fb98" stroke="#000000" points="600.598,-211.8581 600.598,-232.1419 555.1421,-246.4846 490.8579,-246.4846 445.402,-232.1419 445.402,-211.8581 490.8579,-197.5154 555.1421,-197.5154 600.598,-211.8581"/>
<polygon fill="none" stroke="#000000" points="604.6004,-208.9275 604.6004,-235.0725 555.7591,-250.4835 490.2409,-250.4835 441.3996,-235.0725 441.3996,-208.9275 490.2409,-193.5165 555.7591,-193.5165 604.6004,-208.9275"/>
<text text-anchor="middle" x="523" y="-214.8" font-family="Times,serif" font-size="24.00" fill="#000000">tempFile</text>
</a>
</g>
</g>
<!-- env&#45;&gt;tempFile -->
<g id="edge8" class="edge">
<title>env&#45;&gt;tempFile</title>
<path fill="none" stroke="#000000" d="M221.7668,-378.568C275.8077,-350.4799 396.0431,-287.9867 467.1872,-251.0091"/>
<polygon fill="#000000" stroke="#000000" points="469.2037,-253.9056 476.4626,-246.1881 465.9754,-247.6945 469.2037,-253.9056"/>
</g>
<!-- env&#45;&gt;warnings -->
<g id="edge9" class="edge">
<title>env&#45;&gt;warnings</title>
<path fill="none" stroke="#000000" d="M188.0958,-370.4183C178.7795,-329.0276 166.1885,-240.9157 213,-193.5083 298.2866,-107.136 1142.6728,-66.7119 1428.7773,-55.4181"/>
<polygon fill="#000000" stroke="#000000" points="1429.2707,-58.9015 1439.126,-55.0127 1428.9967,-51.9069 1429.2707,-58.9015"/>
</g>
<!-- args -->
<g id="node18" class="node">
<title>args</title>
<g id="a_node18"><a xlink:href="args.md" xlink:title="args.md">
<polygon fill="#98fb98" stroke="#000000" points="311.5492,-211.8581 311.5492,-232.1419 286.6245,-246.4846 251.3755,-246.4846 226.4508,-232.1419 226.4508,-211.8581 251.3755,-197.5154 286.6245,-197.5154 311.5492,-211.8581"/>
<polygon fill="none" stroke="#000000" points="315.5514,-209.5466 315.5514,-234.4534 287.6946,-250.4835 250.3054,-250.4835 222.4486,-234.4534 222.4486,-209.5466 250.3054,-193.5165 287.6946,-193.5165 315.5514,-209.5466"/>
<text text-anchor="middle" x="269" y="-214.8" font-family="Times,serif" font-size="24.00" fill="#000000">args</text>
</a>
</g>
</g>
<!-- env&#45;&gt;args -->
<g id="edge10" class="edge">
<title>env&#45;&gt;args</title>
<path fill="none" stroke="#000000" d="M203.6514,-370.9948C215.9469,-342.9611 237.393,-294.064 252.3508,-259.9603"/>
<polygon fill="#000000" stroke="#000000" points="255.5732,-261.3269 256.3846,-250.7632 249.1626,-258.5152 255.5732,-261.3269"/>
</g>
<!-- variables -->
<g id="node7" class="node">
<title>variables</title>
<g id="a_node7"><a xlink:href="variables.md" xlink:title="variables.md">
<ellipse fill="#eee8aa" stroke="#000000" cx="1549" cy="-563" rx="72.6337" ry="22.7556"/>
<text text-anchor="middle" x="1549" y="-555.8" font-family="Times,serif" font-size="24.00" fill="#000000">variables</text>
</a>
</g>
</g>
<!-- variables&#45;&gt;vartypes -->
<g id="edge36" class="edge">
<title>variables&#45;&gt;vartypes</title>
<path fill="none" stroke="#000000" d="M1544.8985,-540.3048C1538.141,-503.3569 1524.015,-427.9493 1510,-364.5083 1501.6304,-326.6222 1490.832,-283.3775 1483.4568,-254.5586"/>
<polygon fill="#000000" stroke="#000000" points="1486.7843,-253.4445 1480.9053,-244.6304 1480.0046,-255.1869 1486.7843,-253.4445"/>
</g>
<!-- variables&#45;&gt;tostring -->
<g id="edge41" class="edge">
<title>variables&#45;&gt;tostring</title>
<path fill="none" stroke="#000000" d="M1530.1745,-540.7755C1504.4841,-510.4465 1458.3867,-456.0259 1429.8737,-422.3648"/>
<polygon fill="#000000" stroke="#000000" points="1432.509,-420.0607 1423.3748,-414.6925 1427.1676,-424.5852 1432.509,-420.0607"/>
</g>
<!-- variables&#45;&gt;warnings -->
<g id="edge38" class="edge">
<title>variables&#45;&gt;warnings</title>
<path fill="none" stroke="#000000" d="M1551.0812,-539.9973C1555.9509,-481.7865 1566.6785,-323.9833 1553,-193.5083 1549.3037,-158.2503 1540.5619,-118.8485 1533.4628,-90.5936"/>
<polygon fill="#000000" stroke="#000000" points="1536.805,-89.536 1530.9341,-80.7166 1530.0238,-91.2722 1536.805,-89.536"/>
</g>
<!-- version -->
<g id="node20" class="node">
<title>version</title>
<g id="a_node20"><a xlink:href="version.md" xlink:title="version.md">
<polygon fill="#98fb98" stroke="#000000" points="1736.1523,-382.8581 1736.1523,-403.1419 1697.4012,-417.4846 1642.5988,-417.4846 1603.8477,-403.1419 1603.8477,-382.8581 1642.5988,-368.5154 1697.4012,-368.5154 1736.1523,-382.8581"/>
<polygon fill="none" stroke="#000000" points="1740.1421,-380.0721 1740.1421,-405.9279 1698.1143,-421.4835 1641.8857,-421.4835 1599.8579,-405.9279 1599.8579,-380.0721 1641.8857,-364.5165 1698.1143,-364.5165 1740.1421,-380.0721"/>
<text text-anchor="middle" x="1670" y="-385.8" font-family="Times,serif" font-size="24.00" fill="#000000">version</text>
</a>
</g>
</g>
<!-- variables&#45;&gt;version -->
<g id="edge37" class="edge">
<title>variables&#45;&gt;version</title>
<path fill="none" stroke="#000000" d="M1564.8186,-540.7755C1584.8382,-512.6487 1619.6057,-463.802 1643.6587,-430.0085"/>
<polygon fill="#000000" stroke="#000000" points="1646.5801,-431.9397 1649.5275,-421.763 1640.8772,-427.8805 1646.5801,-431.9397"/>
</g>
<!-- vartypes&#45;&gt;warnings -->
<g id="edge32" class="edge">
<title>vartypes&#45;&gt;warnings</title>
<path fill="none" stroke="#000000" d="M1481.374,-199.4253C1489.2087,-171.6776 1502.6283,-124.1496 1512.1098,-90.5695"/>
<polygon fill="#000000" stroke="#000000" points="1515.5663,-91.208 1514.9153,-80.6332 1508.8297,-89.3059 1515.5663,-91.208"/>
</g>
<!-- tpub -->
<g id="node10" class="node">
<title>tpub</title>
<g id="a_node10"><a xlink:href="tpub.md" xlink:title="tpub.md">
<polygon fill="#98fb98" stroke="#000000" points="2223.8132,-211.8581 2223.8132,-232.1419 2197.5622,-246.4846 2160.4378,-246.4846 2134.1868,-232.1419 2134.1868,-211.8581 2160.4378,-197.5154 2197.5622,-197.5154 2223.8132,-211.8581"/>
<polygon fill="none" stroke="#000000" points="2227.8052,-209.4843 2227.8052,-234.5157 2198.5802,-250.4835 2159.4198,-250.4835 2130.1948,-234.5157 2130.1948,-209.4843 2159.4198,-193.5165 2198.5802,-193.5165 2227.8052,-209.4843"/>
<text text-anchor="middle" x="2179" y="-214.8" font-family="Times,serif" font-size="24.00" fill="#000000">tpub</text>
</a>
</g>
</g>
<!-- tostring&#45;&gt;vartypes -->
<g id="edge40" class="edge">
<title>tostring&#45;&gt;vartypes</title>
<path fill="none" stroke="#000000" d="M1414.2955,-370.2925C1426.5149,-340.4422 1448.0504,-287.8339 1461.913,-253.9697"/>
<polygon fill="#000000" stroke="#000000" points="1465.2282,-255.1096 1465.7776,-244.529 1458.75,-252.4577 1465.2282,-255.1096"/>
</g>
<!-- tostring&#45;&gt;warnings -->
<g id="edge39" class="edge">
<title>tostring&#45;&gt;warnings</title>
<path fill="none" stroke="#000000" d="M1398.4659,-370.2319C1388.7582,-332.1888 1374.0011,-253.9229 1397,-193.5083 1413.3834,-150.4716 1449.5265,-112.1877 1478.9196,-86.3279"/>
<polygon fill="#000000" stroke="#000000" points="1481.3247,-88.8757 1486.6188,-79.6984 1476.7571,-83.5712 1481.3247,-88.8757"/>
</g>
<!-- replacement -->
<g id="node12" class="node">
<title>replacement</title>
<g id="a_node12"><a xlink:href="replacement.md" xlink:title="replacement.md">
<ellipse fill="#eee8aa" stroke="#000000" cx="1238" cy="-723" rx="94.4556" ry="22.7556"/>
<text text-anchor="middle" x="1238" y="-715.8" font-family="Times,serif" font-size="24.00" fill="#000000">replacement</text>
</a>
</g>
</g>
<!-- replacement&#45;&gt;parseNumber -->
<g id="edge64" class="edge">
<title>replacement&#45;&gt;parseNumber</title>
<path fill="none" stroke="#000000" d="M1237.9482,-700.3149C1237.2444,-664.258 1233.2817,-592.0631 1214,-534.5083 1201.3421,-496.725 1178.1139,-457.7079 1159.7671,-430.2376"/>
<polygon fill="#000000" stroke="#000000" points="1162.5126,-428.0502 1154.0015,-421.7406 1156.7202,-431.9807 1162.5126,-428.0502"/>
</g>
<!-- replacement&#45;&gt;regexes -->
<g id="edge55" class="edge">
<title>replacement&#45;&gt;regexes</title>
<path fill="none" stroke="#000000" d="M1247.3475,-700.3135C1270.4652,-640.3133 1323.7873,-474.5251 1257,-364.5083 1214.7872,-294.9723 1126.3772,-257.8043 1061.3505,-239.0615"/>
<polygon fill="#000000" stroke="#000000" points="1062.1033,-235.6379 1051.5304,-236.3188 1060.2203,-242.3799 1062.1033,-235.6379"/>
</g>
<!-- replacement&#45;&gt;parseCmdLine -->
<g id="edge58" class="edge">
<title>replacement&#45;&gt;parseCmdLine</title>
<path fill="none" stroke="#000000" d="M1161.673,-709.5651C995.9975,-680.4033 603.8345,-611.3757 423.1458,-579.5713"/>
<polygon fill="#000000" stroke="#000000" points="423.5828,-576.0945 413.1274,-577.8079 422.3693,-582.9885 423.5828,-576.0945"/>
</g>
<!-- replacement&#45;&gt;env -->
<g id="edge56" class="edge">
<title>replacement&#45;&gt;env</title>
<path fill="none" stroke="#000000" d="M1161.0852,-709.9086C1067.9011,-692.026 907.8879,-654.7397 783,-591.4917 745.9681,-572.7374 746.1549,-553.0177 709,-534.5083 546.5722,-453.5918 331.5076,-413.6916 239.2142,-399.3855"/>
<polygon fill="#000000" stroke="#000000" points="239.5136,-395.8908 229.1005,-397.8446 238.4592,-402.811 239.5136,-395.8908"/>
</g>
<!-- replacement&#45;&gt;variables -->
<g id="edge62" class="edge">
<title>replacement&#45;&gt;variables</title>
<path fill="none" stroke="#000000" d="M1278.0211,-702.4104C1335.4455,-672.8673 1441.0041,-618.5606 1502.0434,-587.1578"/>
<polygon fill="#000000" stroke="#000000" points="1503.7881,-590.1962 1511.0792,-582.5091 1500.5857,-583.9717 1503.7881,-590.1962"/>
</g>
<!-- replacement&#45;&gt;tempFile -->
<g id="edge63" class="edge">
<title>replacement&#45;&gt;tempFile</title>
<path fill="none" stroke="#000000" d="M1185.4214,-704.1749C1123.9503,-681.2362 1020.0495,-639.5408 937,-591.4917 900.1489,-570.1712 895.3115,-558.292 860,-534.5083 780.0857,-480.6826 746.5376,-486.0353 675,-421.4917 620.824,-372.6123 572.4422,-302.2418 545.4838,-259.4623"/>
<polygon fill="#000000" stroke="#000000" points="548.3241,-257.4024 540.062,-250.77 542.3848,-261.1071 548.3241,-257.4024"/>
</g>
<!-- replacement&#45;&gt;vartypes -->
<g id="edge57" class="edge">
<title>replacement&#45;&gt;vartypes</title>
<path fill="none" stroke="#000000" d="M1265.0355,-701.2696C1318.7149,-656.0867 1437.01,-545.8038 1477,-421.4917 1495.1101,-365.1952 1488.173,-295.2524 1481.5437,-254.9093"/>
<polygon fill="#000000" stroke="#000000" points="1484.9533,-254.0865 1479.792,-244.8339 1478.0567,-255.2856 1484.9533,-254.0865"/>
</g>
<!-- replacement&#45;&gt;tpub -->
<g id="edge65" class="edge">
<title>replacement&#45;&gt;tpub</title>
<path fill="none" stroke="#000000" d="M1328.168,-716.1425C1510.5027,-700.9936 1915.81,-660.4429 2035,-591.4917 2037.64,-589.9645 2172.9392,-424.3512 2174,-421.4917 2193.6757,-368.4534 2190.2858,-301.9144 2185.2497,-260.675"/>
<polygon fill="#000000" stroke="#000000" points="2188.6864,-259.9639 2183.9113,-250.5061 2181.7463,-260.8774 2188.6864,-259.9639"/>
</g>
<!-- replacement&#45;&gt;tostring -->
<g id="edge66" class="edge">
<title>replacement&#45;&gt;tostring</title>
<path fill="none" stroke="#000000" d="M1255.6091,-700.7308C1275.1,-675.353 1306.5848,-632.1187 1328,-591.4917 1357.5538,-535.425 1382.062,-465.4156 1395.0249,-425.2944"/>
<polygon fill="#000000" stroke="#000000" points="1398.3601,-426.3555 1398.0678,-415.7647 1391.6918,-424.2262 1398.3601,-426.3555"/>
</g>
<!-- readlines -->
<g id="node13" class="node">
<title>readlines</title>
<g id="a_node13"><a xlink:href="readlines.md" xlink:title="readlines.md">
<polygon fill="#98fb98" stroke="#000000" points="695.5894,-552.8581 695.5894,-573.1419 649.5528,-587.4846 584.4472,-587.4846 538.4106,-573.1419 538.4106,-552.8581 584.4472,-538.5154 649.5528,-538.5154 695.5894,-552.8581"/>
<polygon fill="none" stroke="#000000" points="699.5916,-549.9163 699.5916,-576.0837 650.1623,-591.4835 583.8377,-591.4835 534.4084,-576.0837 534.4084,-549.9163 583.8377,-534.5165 650.1623,-534.5165 699.5916,-549.9163"/>
<text text-anchor="middle" x="617" y="-555.8" font-family="Times,serif" font-size="24.00" fill="#000000">readlines</text>
</a>
</g>
</g>
<!-- replacement&#45;&gt;readlines -->
<g id="edge59" class="edge">
<title>replacement&#45;&gt;readlines</title>
<path fill="none" stroke="#000000" d="M1170.777,-707.0354C1070.8511,-683.0995 877.3523,-635.9617 714,-591.4917 706.2944,-589.394 698.2637,-587.1419 690.2669,-584.8566"/>
<polygon fill="#000000" stroke="#000000" points="691.1315,-581.4634 680.5535,-582.0607 689.1952,-588.1903 691.1315,-581.4634"/>
</g>
<!-- replacement&#45;&gt;warnings -->
<g id="edge61" class="edge">
<title>replacement&#45;&gt;warnings</title>
<path fill="none" stroke="#000000" d="M1319.1572,-711.3296C1403.916,-695.8245 1537.3219,-661.746 1631,-591.4917 1704.5802,-536.31 1721.5229,-509.2646 1749,-421.4917 1791.6999,-285.0911 1646.4047,-147.5485 1568.7394,-85.7537"/>
<polygon fill="#000000" stroke="#000000" points="1570.5569,-82.7306 1560.5314,-79.3042 1566.232,-88.2347 1570.5569,-82.7306"/>
</g>
<!-- replacement&#45;&gt;matches -->
<g id="edge60" class="edge">
<title>replacement&#45;&gt;matches</title>
<path fill="none" stroke="#000000" d="M1185.2439,-704.1245C1118.8262,-679.9301 1001.6049,-635.7941 904,-591.4917 777.9412,-534.2743 634.1677,-456.4529 563.6628,-417.4301"/>
<polygon fill="#000000" stroke="#000000" points="565.0603,-414.2029 554.6176,-412.4139 561.6654,-420.3246 565.0603,-414.2029"/>
</g>
<!-- collectCommand -->
<g id="node15" class="node">
<title>collectCommand</title>
<g id="a_node15"><a xlink:href="collectCommand.md" xlink:title="collectCommand.md">
<ellipse fill="#eee8aa" stroke="#000000" cx="434" cy="-723" rx="127.4982" ry="22.7556"/>
<text text-anchor="middle" x="434" y="-715.8" font-family="Times,serif" font-size="24.00" fill="#000000">collectCommand</text>
</a>
</g>
</g>
<!-- collectCommand&#45;&gt;parseCmdLine -->
<g id="edge24" class="edge">
<title>collectCommand&#45;&gt;parseCmdLine</title>
<path fill="none" stroke="#000000" d="M419.1788,-700.4153C400.9651,-672.6611 369.9636,-625.4208 349.4815,-594.2098"/>
<polygon fill="#000000" stroke="#000000" points="352.1586,-591.91 343.7458,-585.4699 346.3063,-595.7507 352.1586,-591.91"/>
</g>
<!-- collectCommand&#45;&gt;env -->
<g id="edge21" class="edge">
<title>collectCommand&#45;&gt;env</title>
<path fill="none" stroke="#000000" d="M352.6507,-705.5097C292.3334,-687.8191 214.2159,-653.8653 176,-591.4917 144.2864,-539.7308 164.4925,-465.6953 180.3513,-424.2231"/>
<polygon fill="#000000" stroke="#000000" points="183.6137,-425.4906 184.0526,-414.9048 177.1082,-422.9064 183.6137,-425.4906"/>
</g>
<!-- collectCommand&#45;&gt;readlines -->
<g id="edge23" class="edge">
<title>collectCommand&#45;&gt;readlines</title>
<path fill="none" stroke="#000000" d="M459.4454,-700.7527C489.7584,-674.2495 540.7821,-629.6386 576.5294,-598.3842"/>
<polygon fill="#000000" stroke="#000000" points="579.1378,-600.7527 584.3624,-591.5356 574.5303,-595.4829 579.1378,-600.7527"/>
</g>
<!-- collectCommand&#45;&gt;matches -->
<g id="edge22" class="edge">
<title>collectCommand&#45;&gt;matches</title>
<path fill="none" stroke="#000000" d="M439.9111,-700.3178C454.8242,-643.0933 494.0256,-492.6694 511.4457,-425.8245"/>
<polygon fill="#000000" stroke="#000000" points="514.9125,-426.4004 514.0475,-415.841 508.1387,-424.6351 514.9125,-426.4004"/>
</g>
<!-- statictea -->
<g id="node16" class="node">
<title>statictea</title>
<g id="a_node16"><a xlink:href="statictea.md" xlink:title="statictea.md">
<polygon fill="#eee8aa" stroke="#000000" points="848.0958,-1042.3667 931,-1023.0619 1013.9042,-1042.3667 1013.8268,-1073.6024 848.1732,-1073.6024 848.0958,-1042.3667"/>
<text text-anchor="middle" x="931" y="-1043.8" font-family="Times,serif" font-size="24.00" fill="#000000">statictea</text>
</a>
</g>
</g>
<!-- statictea&#45;&gt;env -->
<g id="edge77" class="edge">
<title>statictea&#45;&gt;env</title>
<path fill="none" stroke="#000000" d="M861.773,-1039.1655C721.6479,-1011.8389 401.7442,-931.8679 213,-745.6274 142.8311,-676.3893 128.6456,-631.72 145,-534.5083 151.5977,-495.2907 167.8054,-452.4171 179.7831,-424.2583"/>
<polygon fill="#000000" stroke="#000000" points="183.0555,-425.5092 183.8207,-414.942 176.6327,-422.7256 183.0555,-425.5092"/>
</g>
<!-- statictea&#45;&gt;warnings -->
<g id="edge74" class="edge">
<title>statictea&#45;&gt;warnings</title>
<path fill="none" stroke="#000000" d="M1012.3906,-1041.9665C1324.8367,-1006.2117 2430,-869.3953 2430,-723 2430,-723 2430,-723 2430,-393 2430,-296.6242 2420.5866,-253.2992 2345,-193.5083 2233.2857,-105.1394 1807.8339,-69.0208 1616.818,-57.033"/>
<polygon fill="#000000" stroke="#000000" points="1616.9901,-53.537 1606.7929,-56.4125 1616.5576,-60.5237 1616.9901,-53.537"/>
</g>
<!-- gethelp -->
<g id="node17" class="node">
<title>gethelp</title>
<g id="a_node17"><a xlink:href="gethelp.md" xlink:title="gethelp.md">
<polygon fill="#98fb98" stroke="#000000" points="784.1349,-871.8581 784.1349,-892.1419 745.394,-906.4846 690.606,-906.4846 651.8651,-892.1419 651.8651,-871.8581 690.606,-857.5154 745.394,-857.5154 784.1349,-871.8581"/>
<polygon fill="none" stroke="#000000" points="788.1242,-869.0722 788.1242,-894.9278 746.1071,-910.4835 689.8929,-910.4835 647.8758,-894.9278 647.8758,-869.0722 689.8929,-853.5165 746.1071,-853.5165 788.1242,-869.0722"/>
<text text-anchor="middle" x="718" y="-874.8" font-family="Times,serif" font-size="24.00" fill="#000000">gethelp</text>
</a>
</g>
</g>
<!-- statictea&#45;&gt;gethelp -->
<g id="edge75" class="edge">
<title>statictea&#45;&gt;gethelp</title>
<path fill="none" stroke="#000000" d="M903.59,-1029.2522C867.0676,-1000.2743 802.1161,-948.74 759.5532,-914.9695"/>
<polygon fill="#000000" stroke="#000000" points="761.6256,-912.1459 751.6164,-908.6722 757.2748,-917.6296 761.6256,-912.1459"/>
</g>
<!-- statictea&#45;&gt;args -->
<g id="edge73" class="edge">
<title>statictea&#45;&gt;args</title>
<path fill="none" stroke="#000000" d="M854.4168,-1040.8614C631.7132,-1009.258 0,-903.6879 0,-723 0,-723 0,-723 0,-563 0,-417.9691 151.8448,-298.3796 227.3669,-247.8692"/>
<polygon fill="#000000" stroke="#000000" points="229.3272,-250.769 235.7455,-242.3396 225.4714,-244.9267 229.3272,-250.769"/>
</g>
<!-- statictea&#45;&gt;version -->
<g id="edge76" class="edge">
<title>statictea&#45;&gt;version</title>
<path fill="none" stroke="#000000" d="M979.6641,-1034.3868C1109.0452,-987.5248 1463.0898,-841.2109 1631,-591.4917 1663.4269,-543.2658 1670.2279,-474.4511 1670.9831,-431.8144"/>
<polygon fill="#000000" stroke="#000000" points="1674.4847,-431.592 1671.0567,-421.5671 1667.4848,-431.5417 1674.4847,-431.592"/>
</g>
<!-- parseCommandLine -->
<g id="node22" class="node">
<title>parseCommandLine</title>
<g id="a_node22"><a xlink:href="parseCommandLine.md" xlink:title="parseCommandLine.md">
<ellipse fill="#eee8aa" stroke="#000000" cx="1983" cy="-393" rx="148.8522" ry="22.7556"/>
<text text-anchor="middle" x="1983" y="-385.8" font-family="Times,serif" font-size="24.00" fill="#000000">parseCommandLine</text>
</a>
</g>
</g>
<!-- statictea&#45;&gt;parseCommandLine -->
<g id="edge5" class="edge">
<title>statictea&#45;&gt;parseCommandLine</title>
<path fill="none" stroke="#000000" d="M987.6353,-1036.0956C1064.6228,-1014.5589 1205.2792,-970.6256 1315,-910.4917 1585.3202,-762.3393 1861.9248,-508.7512 1952.3776,-422.6244"/>
<polygon fill="#000000" stroke="#000000" points="1954.9938,-424.9655 1959.8073,-415.5272 1950.1587,-419.9037 1954.9938,-424.9655"/>
</g>
<!-- processTemplate -->
<g id="node23" class="node">
<title>processTemplate</title>
<g id="a_node23"><a xlink:href="processTemplate.md" xlink:title="processTemplate.md">
<ellipse fill="#eee8aa" stroke="#000000" cx="931" cy="-882" rx="125.2054" ry="22.7556"/>
<text text-anchor="middle" x="931" y="-874.8" font-family="Times,serif" font-size="24.00" fill="#000000">processTemplate</text>
</a>
</g>
</g>
<!-- statictea&#45;&gt;processTemplate -->
<g id="edge72" class="edge">
<title>statictea&#45;&gt;processTemplate</title>
<path fill="none" stroke="#000000" d="M931,-1022.7132C931,-993.0419 931,-946.447 931,-915.0893"/>
<polygon fill="#000000" stroke="#000000" points="934.5001,-914.6858 931,-904.6859 927.5001,-914.6859 934.5001,-914.6858"/>
</g>
<!-- matches&#45;&gt;regexes -->
<g id="edge13" class="edge">
<title>matches&#45;&gt;regexes</title>
<path fill="none" stroke="#000000" d="M565.2374,-376.2925C648.2834,-345.621 825.2077,-280.2775 919.9758,-245.2768"/>
<polygon fill="#000000" stroke="#000000" points="921.2739,-248.5285 929.4419,-241.7806 918.8486,-241.962 921.2739,-248.5285"/>
</g>
<!-- matches&#45;&gt;args -->
<g id="edge12" class="edge">
<title>matches&#45;&gt;args</title>
<path fill="none" stroke="#000000" d="M490.2213,-372.7125C445.047,-341.9364 359.1341,-283.4061 308.6962,-249.044"/>
<polygon fill="#000000" stroke="#000000" points="310.5484,-246.0709 300.3134,-243.3331 306.6072,-251.8559 310.5484,-246.0709"/>
</g>
<!-- readjson -->
<g id="node21" class="node">
<title>readjson</title>
<g id="a_node21"><a xlink:href="readjson.md" xlink:title="readjson.md">
<ellipse fill="#eee8aa" stroke="#000000" cx="2295" cy="-393" rx="68.6102" ry="22.7556"/>
<text text-anchor="middle" x="2295" y="-385.8" font-family="Times,serif" font-size="24.00" fill="#000000">readjson</text>
</a>
</g>
</g>
<!-- readjson&#45;&gt;vartypes -->
<g id="edge70" class="edge">
<title>readjson&#45;&gt;vartypes</title>
<path fill="none" stroke="#000000" d="M2236.685,-380.8392C2089.087,-350.0596 1701.251,-269.1816 1543.3545,-236.2544"/>
<polygon fill="#000000" stroke="#000000" points="1543.7956,-232.7712 1533.2916,-234.1559 1542.3665,-239.6238 1543.7956,-232.7712"/>
</g>
<!-- readjson&#45;&gt;tpub -->
<g id="edge69" class="edge">
<title>readjson&#45;&gt;tpub</title>
<path fill="none" stroke="#000000" d="M2279.835,-370.6447C2260.5861,-342.2691 2227.1152,-292.9284 2204.0491,-258.9258"/>
<polygon fill="#000000" stroke="#000000" points="2206.9343,-256.9443 2198.424,-250.6336 2201.1414,-260.874 2206.9343,-256.9443"/>
</g>
<!-- readjson&#45;&gt;warnings -->
<g id="edge68" class="edge">
<title>readjson&#45;&gt;warnings</title>
<path fill="none" stroke="#000000" d="M2295.5078,-370.2765C2295.1164,-328.6524 2287.9244,-240.1711 2237,-193.5083 2147.3625,-111.372 1789.1019,-72.7632 1616.6682,-58.6514"/>
<polygon fill="#000000" stroke="#000000" points="1616.8376,-55.1538 1606.5882,-57.8371 1616.2739,-62.131 1616.8376,-55.1538"/>
</g>
<!-- parseCommandLine&#45;&gt;regexes -->
<g id="edge4" class="edge">
<title>parseCommandLine&#45;&gt;regexes</title>
<path fill="none" stroke="#000000" d="M1883.9203,-376.0574C1686.7181,-342.3358 1248.3723,-267.3787 1065.5595,-236.1177"/>
<polygon fill="#000000" stroke="#000000" points="1065.9152,-232.6278 1055.4684,-234.3921 1064.7353,-239.5276 1065.9152,-232.6278"/>
</g>
<!-- parseCommandLine&#45;&gt;tpub -->
<g id="edge1" class="edge">
<title>parseCommandLine&#45;&gt;tpub</title>
<path fill="none" stroke="#000000" d="M2008.6236,-370.6447C2043.0143,-340.6406 2104.2725,-287.196 2143.2043,-253.2299"/>
<polygon fill="#000000" stroke="#000000" points="2145.921,-255.5046 2151.1554,-246.293 2141.3191,-250.2299 2145.921,-255.5046"/>
</g>
<!-- parseCommandLine&#45;&gt;warnings -->
<g id="edge3" class="edge">
<title>parseCommandLine&#45;&gt;warnings</title>
<path fill="none" stroke="#000000" d="M1969.2167,-370.199C1943.9601,-329.996 1886.6846,-245.8186 1820,-193.5083 1750.7533,-139.1881 1657.2646,-98.9916 1593.8052,-75.5965"/>
<polygon fill="#000000" stroke="#000000" points="1594.8709,-72.2598 1584.2769,-72.1267 1592.4756,-78.8373 1594.8709,-72.2598"/>
</g>
<!-- parseCommandLine&#45;&gt;args -->
<g id="edge2" class="edge">
<title>parseCommandLine&#45;&gt;args</title>
<path fill="none" stroke="#000000" d="M1869.1295,-378.3285C1830.9745,-373.6276 1788.1785,-368.5881 1749,-364.5083 1164.6371,-303.656 1014.5878,-326.4815 432,-250.4917 396.3993,-245.8482 356.7114,-238.9482 325.4113,-233.1016"/>
<polygon fill="#000000" stroke="#000000" points="326.0348,-229.6575 315.5595,-231.2445 324.7381,-236.5364 326.0348,-229.6575"/>
</g>
<!-- processTemplate&#45;&gt;parseCmdLine -->
<g id="edge20" class="edge">
<title>processTemplate&#45;&gt;parseCmdLine</title>
<path fill="none" stroke="#000000" d="M850.0301,-864.7249C679.5497,-828.3304 299.0959,-746.9846 298,-745.6274 263.1156,-702.4272 289.3877,-634.4263 310.1909,-594.729"/>
<polygon fill="#000000" stroke="#000000" points="313.3669,-596.2142 315.0544,-585.7546 307.2126,-592.8789 313.3669,-596.2142"/>
</g>
<!-- processTemplate&#45;&gt;env -->
<g id="edge11" class="edge">
<title>processTemplate&#45;&gt;env</title>
<path fill="none" stroke="#000000" d="M849.8772,-864.6891C832.437,-860.9849 814.1072,-857.1049 797,-853.5083 566.4433,-805.0354 478.4698,-869.3929 278,-745.6274 203.6596,-699.7313 184.7046,-674.0084 156,-591.4917 136.0742,-534.2115 160.3804,-463.7909 178.2716,-424.0886"/>
<polygon fill="#000000" stroke="#000000" points="181.6027,-425.2261 182.6512,-414.6833 175.257,-422.2712 181.6027,-425.2261"/>
</g>
<!-- processTemplate&#45;&gt;variables -->
<g id="edge53" class="edge">
<title>processTemplate&#45;&gt;variables</title>
<path fill="none" stroke="#000000" d="M1013.2077,-864.8945C1098.9831,-844.7641 1235.4261,-806.1901 1341,-745.6274 1414.6626,-703.3707 1485.7426,-632.4278 1522.7036,-592.5397"/>
<polygon fill="#000000" stroke="#000000" points="1525.4466,-594.7271 1529.6315,-584.9938 1520.2902,-589.993 1525.4466,-594.7271"/>
</g>
<!-- processTemplate&#45;&gt;vartypes -->
<g id="edge54" class="edge">
<title>processTemplate&#45;&gt;vartypes</title>
<path fill="none" stroke="#000000" d="M1021.5036,-866.326C1167.1389,-836.7941 1454.9481,-760.0706 1631,-591.4917 1713.1215,-512.8561 1808.0018,-461.7003 1749,-364.5083 1704.6699,-291.4846 1609.3922,-254.1573 1543.7512,-236.3786"/>
<polygon fill="#000000" stroke="#000000" points="1544.4481,-232.943 1533.8874,-233.7929 1542.673,-239.7143 1544.4481,-232.943"/>
</g>
<!-- processTemplate&#45;&gt;replacement -->
<g id="edge67" class="edge">
<title>processTemplate&#45;&gt;replacement</title>
<path fill="none" stroke="#000000" d="M972.4034,-860.5566C1028.7581,-831.3696 1129.4355,-779.2272 1189.3334,-748.2052"/>
<polygon fill="#000000" stroke="#000000" points="1190.9539,-751.3075 1198.224,-743.6006 1187.7346,-745.0917 1190.9539,-751.3075"/>
</g>
<!-- processTemplate&#45;&gt;readlines -->
<g id="edge15" class="edge">
<title>processTemplate&#45;&gt;readlines</title>
<path fill="none" stroke="#000000" d="M908.9201,-859.5685C855.2883,-805.0827 717.7743,-665.3789 652.463,-599.0277"/>
<polygon fill="#000000" stroke="#000000" points="654.7518,-596.3636 645.2424,-591.6921 649.7631,-601.2741 654.7518,-596.3636"/>
</g>
<!-- processTemplate&#45;&gt;warnings -->
<g id="edge7" class="edge">
<title>processTemplate&#45;&gt;warnings</title>
<path fill="none" stroke="#000000" d="M1041.4213,-871.2716C1253.0406,-849.8017 1707.8698,-799.0123 1856,-745.6274 2111.1399,-653.6772 2243.3396,-659.692 2373,-421.4917 2533.2916,-127.0186 1869.5696,-67.1251 1616.9993,-55.0314"/>
<polygon fill="#000000" stroke="#000000" points="1616.8881,-51.5226 1606.7367,-54.5555 1616.5638,-58.515 1616.8881,-51.5226"/>
</g>
<!-- processTemplate&#45;&gt;collectCommand -->
<g id="edge25" class="edge">
<title>processTemplate&#45;&gt;collectCommand</title>
<path fill="none" stroke="#000000" d="M869.3097,-862.2641C777.0708,-832.755 603.6192,-777.2645 505.8125,-745.9742"/>
<polygon fill="#000000" stroke="#000000" points="506.6004,-742.5516 496.0095,-742.838 504.4675,-749.2187 506.6004,-742.5516"/>
</g>
<!-- processTemplate&#45;&gt;args -->
<g id="edge6" class="edge">
<title>processTemplate&#45;&gt;args</title>
<path fill="none" stroke="#000000" d="M850.6481,-864.5486C832.992,-860.8164 814.3795,-856.9605 797,-853.5083 538.1112,-802.0828 420.053,-909.3256 213,-745.6274 78.2646,-639.1043 88.2218,-525.1532 149,-364.5083 166.178,-319.1045 204.4608,-277.9558 233.1971,-251.6792"/>
<polygon fill="#000000" stroke="#000000" points="235.5399,-254.2795 240.6504,-244.9987 230.8677,-249.0669 235.5399,-254.2795"/>
</g>
<!-- processTemplate&#45;&gt;matches -->
<g id="edge14" class="edge">
<title>processTemplate&#45;&gt;matches</title>
<path fill="none" stroke="#000000" d="M875.6991,-861.5723C783.5292,-824.1715 601.1157,-735.074 525,-591.4917 497.1513,-538.9589 504.5601,-467.1075 512.3578,-425.8183"/>
<polygon fill="#000000" stroke="#000000" points="515.8395,-426.2573 514.38,-415.7634 508.9769,-424.877 515.8395,-426.2573"/>
</g>
<!-- processTemplate&#45;&gt;readjson -->
<g id="edge71" class="edge">
<title>processTemplate&#45;&gt;readjson</title>
<path fill="none" stroke="#000000" d="M1050.5996,-875.2522C1218.0238,-863.0454 1530.0275,-830.1685 1782,-745.6274 1920.3819,-699.1979 1958.0052,-682.6533 2072,-591.4917 2098.0862,-570.6306 2097.0596,-557.8007 2121,-534.5083 2165.4388,-491.2722 2221.9147,-447.0737 2258.2602,-419.8379"/>
<polygon fill="#000000" stroke="#000000" points="2260.6709,-422.4064 2266.5968,-413.6238 2256.4874,-416.794 2260.6709,-422.4064"/>
</g>
<!-- runCommand -->
<g id="node24" class="node">
<title>runCommand</title>
<g id="a_node24"><a xlink:href="runCommand.md" xlink:title="runCommand.md">
<ellipse fill="#eee8aa" stroke="#000000" cx="931" cy="-723" rx="104.7872" ry="22.7556"/>
<text text-anchor="middle" x="931" y="-715.8" font-family="Times,serif" font-size="24.00" fill="#000000">runCommand</text>
</a>
</g>
</g>
<!-- processTemplate&#45;&gt;runCommand -->
<g id="edge52" class="edge">
<title>processTemplate&#45;&gt;runCommand</title>
<path fill="none" stroke="#000000" d="M931,-859.2192C931,-832.1812 931,-786.8795 931,-756.0043"/>
<polygon fill="#000000" stroke="#000000" points="934.5001,-755.7385 931,-745.7386 927.5001,-755.7386 934.5001,-755.7385"/>
</g>
<!-- runCommand&#45;&gt;runFunction -->
<g id="edge50" class="edge">
<title>runCommand&#45;&gt;runFunction</title>
<path fill="none" stroke="#000000" d="M946.3859,-700.4153C965.3745,-672.542 997.7523,-625.0149 1019.0115,-593.8089"/>
<polygon fill="#000000" stroke="#000000" points="1021.9548,-595.7049 1024.6924,-585.4699 1016.1696,-591.7638 1021.9548,-595.7049"/>
</g>
<!-- runCommand&#45;&gt;parseNumber -->
<g id="edge35" class="edge">
<title>runCommand&#45;&gt;parseNumber</title>
<path fill="none" stroke="#000000" d="M1001.9521,-706.3495C1060.0639,-688.5619 1138.5792,-654.0489 1176,-591.4917 1206.1009,-541.1714 1178.9494,-472.4675 1156.226,-430.4983"/>
<polygon fill="#000000" stroke="#000000" points="1159.2502,-428.7351 1151.3199,-421.7094 1153.138,-432.1471 1159.2502,-428.7351"/>
</g>
<!-- runCommand&#45;&gt;regexes -->
<g id="edge30" class="edge">
<title>runCommand&#45;&gt;regexes</title>
<path fill="none" stroke="#000000" d="M990.6919,-704.3863C1041.3465,-685.0617 1110.7781,-649.3976 1143,-591.4917 1189.7792,-507.425 1055.1125,-505.926 1009,-421.4917 981.4521,-371.0502 978.5766,-303.0292 980.0373,-260.8701"/>
<polygon fill="#000000" stroke="#000000" points="983.5402,-260.8816 980.4898,-250.7354 976.5472,-260.5693 983.5402,-260.8816"/>
</g>
<!-- runCommand&#45;&gt;parseCmdLine -->
<g id="edge26" class="edge">
<title>runCommand&#45;&gt;parseCmdLine</title>
<path fill="none" stroke="#000000" d="M864.8534,-705.4195C752.7041,-675.6124 525.8222,-615.3115 406.4452,-583.5834"/>
<polygon fill="#000000" stroke="#000000" points="407.2006,-580.1628 396.637,-580.9766 405.4025,-586.9279 407.2006,-580.1628"/>
</g>
<!-- runCommand&#45;&gt;env -->
<g id="edge31" class="edge">
<title>runCommand&#45;&gt;env</title>
<path fill="none" stroke="#000000" d="M827.5715,-719.2028C647.997,-710.2748 289.9366,-681.3831 209,-591.4917 168.1113,-546.0792 176.5514,-468.7022 185.6834,-425.1837"/>
<polygon fill="#000000" stroke="#000000" points="189.1036,-425.9265 187.8679,-415.404 182.272,-424.4004 189.1036,-425.9265"/>
</g>
<!-- runCommand&#45;&gt;unicodes -->
<g id="edge51" class="edge">
<title>runCommand&#45;&gt;unicodes</title>
<path fill="none" stroke="#000000" d="M919.6589,-700.3178C891.774,-644.5481 819.6287,-500.2573 785.0408,-431.0816"/>
<polygon fill="#000000" stroke="#000000" points="788.0208,-429.2152 780.4181,-421.8362 781.7598,-432.3457 788.0208,-429.2152"/>
</g>
<!-- runCommand&#45;&gt;variables -->
<g id="edge42" class="edge">
<title>runCommand&#45;&gt;variables</title>
<path fill="none" stroke="#000000" d="M998.3133,-705.5726C1117.624,-674.6831 1364.7433,-610.704 1483.0632,-580.071"/>
<polygon fill="#000000" stroke="#000000" points="1484.2706,-583.3739 1493.0741,-577.4792 1482.5161,-576.5973 1484.2706,-583.3739"/>
</g>
<!-- runCommand&#45;&gt;vartypes -->
<g id="edge33" class="edge">
<title>runCommand&#45;&gt;vartypes</title>
<path fill="none" stroke="#000000" d="M991.245,-704.3948C1049.3159,-684.0744 1136.9818,-646.8545 1197,-591.4917 1283.4433,-511.7536 1260.7367,-457.291 1333,-364.5083 1366.5898,-321.3805 1412.185,-277.72 1442.5505,-250.2988"/>
<polygon fill="#000000" stroke="#000000" points="1445.195,-252.6287 1450.3067,-243.3486 1440.5235,-247.4155 1445.195,-252.6287"/>
</g>
<!-- runCommand&#45;&gt;tpub -->
<g id="edge29" class="edge">
<title>runCommand&#45;&gt;tpub</title>
<path fill="none" stroke="#000000" d="M1025.6316,-713.2054C1284.0761,-684.4223 1992.5013,-591.2705 2141,-421.4917 2180.0023,-376.9004 2184.1761,-304.9015 2182.439,-260.6843"/>
<polygon fill="#000000" stroke="#000000" points="2185.9302,-260.4213 2181.9222,-250.6139 2178.9394,-260.7802 2185.9302,-260.4213"/>
</g>
<!-- runCommand&#45;&gt;readlines -->
<g id="edge27" class="edge">
<title>runCommand&#45;&gt;readlines</title>
<path fill="none" stroke="#000000" d="M889.95,-702.0828C834.5735,-673.8655 735.7138,-623.4911 673.3941,-591.7358"/>
<polygon fill="#000000" stroke="#000000" points="674.973,-588.6123 664.474,-587.1906 671.7949,-594.8492 674.973,-588.6123"/>
</g>
<!-- runCommand&#45;&gt;warnings -->
<g id="edge34" class="edge">
<title>runCommand&#45;&gt;warnings</title>
<path fill="none" stroke="#000000" d="M910.3775,-700.5715C851.7322,-636.5419 687.4286,-455.3324 675,-421.4917 666.2688,-397.7184 664.4603,-387.537 675,-364.5083 723.3894,-258.78 768.985,-245.4782 873,-193.5083 1056.6326,-101.7582 1298.6146,-69.1977 1429.3962,-57.8646"/>
<polygon fill="#000000" stroke="#000000" points="1429.718,-61.35 1439.3882,-57.0214 1429.1293,-54.3748 1429.718,-61.35"/>
</g>
<!-- runCommand&#45;&gt;matches -->
<g id="edge28" class="edge">
<title>runCommand&#45;&gt;matches</title>
<path fill="none" stroke="#000000" d="M906.1172,-701.0057C865.4959,-665.2983 782.1229,-592.8358 709,-534.5083 657.1628,-493.1595 595.3706,-447.5637 556.9028,-419.5985"/>
<polygon fill="#000000" stroke="#000000" points="558.7385,-416.6062 548.5894,-413.5655 554.6271,-422.2716 558.7385,-416.6062"/>
</g>
</g>
</svg>
