<?xml version="1.0" encoding="UTF-8" standalone="no"?>
<!DOCTYPE svg PUBLIC "-//W3C//DTD SVG 1.1//EN"
 "http://www.w3.org/Graphics/SVG/1.1/DTD/svg11.dtd">
<!-- Generated by graphviz version 2.40.1 (20161225.0304)
 -->
<!-- Title: statictea Pages: 1 -->
<svg width="635pt" height="1257pt"
 viewBox="0.00 0.00 634.97 1257.49" xmlns="http://www.w3.org/2000/svg" xmlns:xlink="http://www.w3.org/1999/xlink">
<g id="graph0" class="graph" transform="scale(1 1) rotate(0) translate(4 1253.4917)">
<title>statictea</title>
<polygon fill="#ffffff" stroke="transparent" points="-4,4 -4,-1253.4917 630.9693,-1253.4917 630.9693,4 -4,4"/>
<!-- strutils -->
<g id="node1" class="node">
<title>strutils</title>
<ellipse fill="none" stroke="#000000" cx="87.6672" cy="-664.4917" rx="57.5374" ry="22.7556"/>
<text text-anchor="middle" x="87.6672" y="-657.2917" font-family="Times,serif" font-size="24.00" fill="#000000">strutils</text>
</g>
<!-- statictea -->
<g id="node2" class="node">
<title>statictea</title>
<ellipse fill="none" stroke="#000000" cx="545.1518" cy="-907.4917" rx="39.154" ry="18"/>
<text text-anchor="middle" x="545.1518" y="-903.2917" font-family="Times,serif" font-size="14.00" fill="#000000">statictea</text>
</g>
<!-- strutils&#45;&gt;statictea -->
<g id="edge1" class="edge">
<title>strutils&#45;&gt;statictea</title>
<path fill="none" stroke="#000000" d="M117.2418,-684.2976C179.262,-725.1912 328.3681,-820.1736 463.3343,-880.4917 475.5107,-885.9335 489.1304,-890.86 501.711,-894.9699"/>
<polygon fill="#000000" stroke="#000000" points="500.9398,-898.3972 511.5301,-898.0852 503.0568,-891.7249 500.9398,-898.3972"/>
</g>
<!-- args -->
<g id="node7" class="node">
<title>args</title>
<ellipse fill="none" stroke="#000000" cx="545.1518" cy="-853.4917" rx="27" ry="18"/>
<text text-anchor="middle" x="545.1518" y="-849.2917" font-family="Times,serif" font-size="14.00" fill="#000000">args</text>
</g>
<!-- strutils&#45;&gt;args -->
<g id="edge5" class="edge">
<title>strutils&#45;&gt;args</title>
<path fill="none" stroke="#000000" d="M124.809,-681.8113C191.7345,-712.7251 337.3425,-778.6441 463.3343,-826.4917 478.6724,-832.3167 495.8872,-838.1068 510.5545,-842.8225"/>
<polygon fill="#000000" stroke="#000000" points="509.6572,-846.2098 520.2475,-845.9029 511.7773,-839.5386 509.6572,-846.2098"/>
</g>
<!-- warnings -->
<g id="node8" class="node">
<title>warnings</title>
<ellipse fill="none" stroke="#000000" cx="545.1518" cy="-745.4917" rx="42.5542" ry="18"/>
<text text-anchor="middle" x="545.1518" y="-741.2917" font-family="Times,serif" font-size="14.00" fill="#000000">warnings</text>
</g>
<!-- strutils&#45;&gt;warnings -->
<g id="edge6" class="edge">
<title>strutils&#45;&gt;warnings</title>
<path fill="none" stroke="#000000" d="M140.1465,-673.7835C229.3222,-689.5725 409.1855,-721.4182 496.0271,-736.794"/>
<polygon fill="#000000" stroke="#000000" points="495.4364,-740.2437 505.8934,-738.5408 496.6568,-733.3509 495.4364,-740.2437"/>
</g>
<!-- cmdline -->
<g id="node11" class="node">
<title>cmdline</title>
<ellipse fill="none" stroke="#000000" cx="545.1518" cy="-691.4917" rx="38.6869" ry="18"/>
<text text-anchor="middle" x="545.1518" y="-687.2917" font-family="Times,serif" font-size="14.00" fill="#000000">cmdline</text>
</g>
<!-- strutils&#45;&gt;cmdline -->
<g id="edge12" class="edge">
<title>strutils&#45;&gt;cmdline</title>
<path fill="none" stroke="#000000" d="M144.6829,-667.8567C235.5071,-673.217 411.4529,-683.601 496.6237,-688.6277"/>
<polygon fill="#000000" stroke="#000000" points="496.6056,-692.1326 506.7944,-689.2279 497.018,-685.1448 496.6056,-692.1326"/>
</g>
<!-- processTemplate -->
<g id="node13" class="node">
<title>processTemplate</title>
<ellipse fill="none" stroke="#000000" cx="545.1518" cy="-799.4917" rx="69.306" ry="18"/>
<text text-anchor="middle" x="545.1518" y="-795.2917" font-family="Times,serif" font-size="14.00" fill="#000000">processTemplate</text>
</g>
<!-- strutils&#45;&gt;processTemplate -->
<g id="edge17" class="edge">
<title>strutils&#45;&gt;processTemplate</title>
<path fill="none" stroke="#000000" d="M134.0508,-678.1792C218.8711,-703.209 398.6224,-756.2521 489.7285,-783.1368"/>
<polygon fill="#000000" stroke="#000000" points="488.7438,-786.4953 499.3255,-785.9688 490.725,-779.7816 488.7438,-786.4953"/>
</g>
<!-- env -->
<g id="node14" class="node">
<title>env</title>
<ellipse fill="none" stroke="#000000" cx="545.1518" cy="-1015.4917" rx="27" ry="18"/>
<text text-anchor="middle" x="545.1518" y="-1011.2917" font-family="Times,serif" font-size="14.00" fill="#000000">env</text>
</g>
<!-- strutils&#45;&gt;env -->
<g id="edge22" class="edge">
<title>strutils&#45;&gt;env</title>
<path fill="none" stroke="#000000" d="M106.6367,-685.9034C158.3256,-743.0252 308.1968,-900.6482 463.3343,-988.4917 477.6114,-996.5758 494.6743,-1002.6892 509.5148,-1007.0364"/>
<polygon fill="#000000" stroke="#000000" points="508.8009,-1010.4704 519.3723,-1009.7664 510.6692,-1003.7243 508.8009,-1010.4704"/>
</g>
<!-- tempFile -->
<g id="node16" class="node">
<title>tempFile</title>
<ellipse fill="none" stroke="#000000" cx="545.1518" cy="-961.4917" rx="41.5938" ry="18"/>
<text text-anchor="middle" x="545.1518" y="-957.2917" font-family="Times,serif" font-size="14.00" fill="#000000">tempFile</text>
</g>
<!-- strutils&#45;&gt;tempFile -->
<g id="edge25" class="edge">
<title>strutils&#45;&gt;tempFile</title>
<path fill="none" stroke="#000000" d="M111.0407,-685.27C167.6984,-734.7056 318.3981,-860.693 463.3343,-934.4917 474.581,-940.2183 487.3019,-945.1031 499.3035,-949.0788"/>
<polygon fill="#000000" stroke="#000000" points="498.5774,-952.5202 509.1675,-952.2032 500.6912,-945.8469 498.5774,-952.5202"/>
</g>
<!-- matches -->
<g id="node18" class="node">
<title>matches</title>
<ellipse fill="none" stroke="#000000" cx="545.1518" cy="-313.4917" rx="39.1627" ry="18"/>
<text text-anchor="middle" x="545.1518" y="-309.2917" font-family="Times,serif" font-size="14.00" fill="#000000">matches</text>
</g>
<!-- strutils&#45;&gt;matches -->
<g id="edge27" class="edge">
<title>strutils&#45;&gt;matches</title>
<path fill="none" stroke="#000000" d="M106.6367,-643.0801C158.3256,-585.9583 308.1968,-428.3353 463.3343,-340.4917 474.7346,-334.0365 487.9112,-328.8379 500.3142,-324.7917"/>
<polygon fill="#000000" stroke="#000000" points="501.5212,-328.0822 510.0465,-321.7917 499.4592,-321.3928 501.5212,-328.0822"/>
</g>
<!-- runCommand -->
<g id="node22" class="node">
<title>runCommand</title>
<ellipse fill="none" stroke="#000000" cx="545.1518" cy="-583.4917" rx="58.9841" ry="18"/>
<text text-anchor="middle" x="545.1518" y="-579.2917" font-family="Times,serif" font-size="14.00" fill="#000000">runCommand</text>
</g>
<!-- strutils&#45;&gt;runCommand -->
<g id="edge36" class="edge">
<title>strutils&#45;&gt;runCommand</title>
<path fill="none" stroke="#000000" d="M140.1465,-655.2C225.3449,-640.1152 393.3218,-610.374 483.8687,-594.3422"/>
<polygon fill="#000000" stroke="#000000" points="484.7468,-597.7413 493.9834,-592.5514 483.5264,-590.8485 484.7468,-597.7413"/>
</g>
<!-- vartypes -->
<g id="node23" class="node">
<title>vartypes</title>
<ellipse fill="none" stroke="#000000" cx="545.1518" cy="-421.4917" rx="40.1317" ry="18"/>
<text text-anchor="middle" x="545.1518" y="-417.2917" font-family="Times,serif" font-size="14.00" fill="#000000">vartypes</text>
</g>
<!-- strutils&#45;&gt;vartypes -->
<g id="edge38" class="edge">
<title>strutils&#45;&gt;vartypes</title>
<path fill="none" stroke="#000000" d="M117.2418,-644.6859C179.262,-603.7923 328.3681,-508.8098 463.3343,-448.4917 475.4029,-443.0981 488.8895,-438.2107 501.3767,-434.1228"/>
<polygon fill="#000000" stroke="#000000" points="502.6615,-437.3871 511.1308,-431.0214 500.5404,-430.7162 502.6615,-437.3871"/>
</g>
<!-- variables -->
<g id="node26" class="node">
<title>variables</title>
<ellipse fill="none" stroke="#000000" cx="545.1518" cy="-475.4917" rx="42.0524" ry="18"/>
<text text-anchor="middle" x="545.1518" y="-471.2917" font-family="Times,serif" font-size="14.00" fill="#000000">variables</text>
</g>
<!-- strutils&#45;&gt;variables -->
<g id="edge41" class="edge">
<title>strutils&#45;&gt;variables</title>
<path fill="none" stroke="#000000" d="M124.809,-647.1722C191.7345,-616.2584 337.3425,-550.3394 463.3343,-502.4917 475.4715,-497.8824 488.7838,-493.2949 501.0791,-489.2442"/>
<polygon fill="#000000" stroke="#000000" points="502.2534,-492.5429 510.6798,-486.1207 500.0876,-485.8863 502.2534,-492.5429"/>
</g>
<!-- funtypes -->
<g id="node27" class="node">
<title>funtypes</title>
<ellipse fill="none" stroke="#000000" cx="545.1518" cy="-637.4917" rx="40.6248" ry="18"/>
<text text-anchor="middle" x="545.1518" y="-633.2917" font-family="Times,serif" font-size="14.00" fill="#000000">funtypes</text>
</g>
<!-- strutils&#45;&gt;funtypes -->
<g id="edge44" class="edge">
<title>strutils&#45;&gt;funtypes</title>
<path fill="none" stroke="#000000" d="M144.6829,-661.1268C234.909,-655.8018 409.1393,-645.519 494.9293,-640.4558"/>
<polygon fill="#000000" stroke="#000000" points="495.1651,-643.9481 504.9415,-639.8649 494.7527,-636.9602 495.1651,-643.9481"/>
</g>
<!-- runFunction -->
<g id="node28" class="node">
<title>runFunction</title>
<ellipse fill="none" stroke="#000000" cx="545.1518" cy="-259.4917" rx="53.1797" ry="18"/>
<text text-anchor="middle" x="545.1518" y="-255.2917" font-family="Times,serif" font-size="14.00" fill="#000000">runFunction</text>
</g>
<!-- strutils&#45;&gt;runFunction -->
<g id="edge47" class="edge">
<title>strutils&#45;&gt;runFunction</title>
<path fill="none" stroke="#000000" d="M103.3502,-642.618C150.4487,-578.4648 297.6677,-388.8902 463.3343,-286.4917 471.9227,-281.1833 481.6703,-276.797 491.3686,-273.2158"/>
<polygon fill="#000000" stroke="#000000" points="492.6894,-276.4628 501.0058,-269.8986 490.4111,-269.8439 492.6894,-276.4628"/>
</g>
<!-- unicodes -->
<g id="node32" class="node">
<title>unicodes</title>
<ellipse fill="none" stroke="#000000" cx="545.1518" cy="-205.4917" rx="41.5852" ry="18"/>
<text text-anchor="middle" x="545.1518" y="-201.2917" font-family="Times,serif" font-size="14.00" fill="#000000">unicodes</text>
</g>
<!-- strutils&#45;&gt;unicodes -->
<g id="edge52" class="edge">
<title>strutils&#45;&gt;unicodes</title>
<path fill="none" stroke="#000000" d="M104.079,-642.7276C164.1354,-563.5711 373.1261,-292.4859 463.3343,-232.4917 473.6485,-225.6321 485.8514,-220.3851 497.6417,-216.4252"/>
<polygon fill="#000000" stroke="#000000" points="498.8865,-219.7036 507.398,-213.3945 496.8098,-213.0187 498.8865,-219.7036"/>
</g>
<!-- signatures -->
<g id="node33" class="node">
<title>signatures</title>
<ellipse fill="none" stroke="#000000" cx="545.1518" cy="-367.4917" rx="45.9286" ry="18"/>
<text text-anchor="middle" x="545.1518" y="-363.2917" font-family="Times,serif" font-size="14.00" fill="#000000">signatures</text>
</g>
<!-- strutils&#45;&gt;signatures -->
<g id="edge54" class="edge">
<title>strutils&#45;&gt;signatures</title>
<path fill="none" stroke="#000000" d="M111.0407,-643.7135C167.6984,-594.2779 318.3981,-468.2905 463.3343,-394.4917 473.85,-389.1374 485.6544,-384.519 496.9547,-380.6914"/>
<polygon fill="#000000" stroke="#000000" points="498.2747,-383.943 506.7104,-377.5328 496.1185,-377.2833 498.2747,-383.943"/>
</g>
<!-- replacement -->
<g id="node36" class="node">
<title>replacement</title>
<ellipse fill="none" stroke="#000000" cx="545.1518" cy="-1123.4917" rx="53.1281" ry="18"/>
<text text-anchor="middle" x="545.1518" y="-1119.2917" font-family="Times,serif" font-size="14.00" fill="#000000">replacement</text>
</g>
<!-- strutils&#45;&gt;replacement -->
<g id="edge63" class="edge">
<title>strutils&#45;&gt;replacement</title>
<path fill="none" stroke="#000000" d="M104.079,-686.2559C164.1354,-765.4124 373.1261,-1036.4976 463.3343,-1096.4917 471.648,-1102.0208 481.1887,-1106.5022 490.7513,-1110.1064"/>
<polygon fill="#000000" stroke="#000000" points="489.6818,-1113.4401 500.2766,-1113.4244 491.9845,-1106.8296 489.6818,-1113.4401"/>
</g>
<!-- options -->
<g id="node3" class="node">
<title>options</title>
<ellipse fill="none" stroke="#000000" cx="87.6672" cy="-507.4917" rx="61.0788" ry="22.7556"/>
<text text-anchor="middle" x="87.6672" y="-500.2917" font-family="Times,serif" font-size="24.00" fill="#000000">options</text>
</g>
<!-- parseCommandLine -->
<g id="node4" class="node">
<title>parseCommandLine</title>
<ellipse fill="none" stroke="#000000" cx="545.1518" cy="-529.4917" rx="81.6354" ry="18"/>
<text text-anchor="middle" x="545.1518" y="-525.2917" font-family="Times,serif" font-size="14.00" fill="#000000">parseCommandLine</text>
</g>
<!-- options&#45;&gt;parseCommandLine -->
<g id="edge2" class="edge">
<title>options&#45;&gt;parseCommandLine</title>
<path fill="none" stroke="#000000" d="M148.8909,-510.4359C227.429,-514.2128 364.2906,-520.7943 454.8128,-525.1474"/>
<polygon fill="#000000" stroke="#000000" points="454.9098,-528.656 465.0664,-525.6405 455.2461,-521.6641 454.9098,-528.656"/>
</g>
<!-- regexes -->
<g id="node10" class="node">
<title>regexes</title>
<ellipse fill="none" stroke="#000000" cx="545.1518" cy="-97.4917" rx="37.2248" ry="18"/>
<text text-anchor="middle" x="545.1518" y="-93.2917" font-family="Times,serif" font-size="14.00" fill="#000000">regexes</text>
</g>
<!-- options&#45;&gt;regexes -->
<g id="edge8" class="edge">
<title>options&#45;&gt;regexes</title>
<path fill="none" stroke="#000000" d="M123.0122,-488.9635C139.6797,-479.4357 159.3638,-466.9958 175.3343,-453.4917 323.7278,-328.0154 301.3442,-231.8424 463.3343,-124.4917 474.6612,-116.9854 488.252,-111.4065 501.0737,-107.3323"/>
<polygon fill="#000000" stroke="#000000" points="502.0749,-110.6862 510.6783,-104.5031 500.0968,-103.9715 502.0749,-110.6862"/>
</g>
<!-- options&#45;&gt;processTemplate -->
<g id="edge15" class="edge">
<title>options&#45;&gt;processTemplate</title>
<path fill="none" stroke="#000000" d="M111.9662,-528.5733C169.435,-577.5121 319.697,-700.1513 463.3343,-772.4917 471.0994,-776.4025 479.5562,-779.9293 487.9903,-783.0448"/>
<polygon fill="#000000" stroke="#000000" points="486.8701,-786.361 497.465,-786.3862 489.1983,-779.7595 486.8701,-786.361"/>
</g>
<!-- options&#45;&gt;env -->
<g id="edge21" class="edge">
<title>options&#45;&gt;env</title>
<path fill="none" stroke="#000000" d="M103.6822,-529.5047C169.1655,-619.2988 415.3515,-954.7233 463.3343,-988.4917 476.7516,-997.9343 493.6916,-1004.242 508.6723,-1008.3677"/>
<polygon fill="#000000" stroke="#000000" points="508.1109,-1011.8356 518.6631,-1010.887 509.8225,-1005.0481 508.1109,-1011.8356"/>
</g>
<!-- options&#45;&gt;tempFile -->
<g id="edge26" class="edge">
<title>options&#45;&gt;tempFile</title>
<path fill="none" stroke="#000000" d="M104.3144,-529.2712C164.7404,-607.8463 373.6505,-875.2188 463.3343,-934.4917 473.6683,-941.3216 485.8781,-946.5581 497.6688,-950.5174"/>
<polygon fill="#000000" stroke="#000000" points="496.8358,-953.9236 507.424,-953.5497 498.9137,-947.2391 496.8358,-953.9236"/>
</g>
<!-- options&#45;&gt;matches -->
<g id="edge29" class="edge">
<title>options&#45;&gt;matches</title>
<path fill="none" stroke="#000000" d="M125.0037,-489.4031C191.9381,-457.3126 337.1617,-389.2159 463.3343,-340.4917 475.886,-335.6446 489.7187,-330.8703 502.3824,-326.716"/>
<polygon fill="#000000" stroke="#000000" points="503.8032,-329.935 512.241,-323.5277 501.6492,-323.2746 503.8032,-329.935"/>
</g>
<!-- readlines -->
<g id="node19" class="node">
<title>readlines</title>
<ellipse fill="none" stroke="#000000" cx="545.1518" cy="-1069.4917" rx="42.0524" ry="18"/>
<text text-anchor="middle" x="545.1518" y="-1065.2917" font-family="Times,serif" font-size="14.00" fill="#000000">readlines</text>
</g>
<!-- options&#45;&gt;readlines -->
<g id="edge31" class="edge">
<title>options&#45;&gt;readlines</title>
<path fill="none" stroke="#000000" d="M103.0584,-529.4352C173.5896,-629.9898 462.5343,-1041.8978 463.3343,-1042.4917 473.1858,-1049.8064 485.1247,-1055.2056 496.8016,-1059.1659"/>
<polygon fill="#000000" stroke="#000000" points="495.9094,-1062.5535 506.4971,-1062.1646 497.9778,-1055.866 495.9094,-1062.5535"/>
</g>
<!-- parseCmdLine -->
<g id="node20" class="node">
<title>parseCmdLine</title>
<ellipse fill="none" stroke="#000000" cx="545.1518" cy="-151.4917" rx="62.3407" ry="18"/>
<text text-anchor="middle" x="545.1518" y="-147.2917" font-family="Times,serif" font-size="14.00" fill="#000000">parseCmdLine</text>
</g>
<!-- options&#45;&gt;parseCmdLine -->
<g id="edge32" class="edge">
<title>options&#45;&gt;parseCmdLine</title>
<path fill="none" stroke="#000000" d="M122.0688,-488.5675C138.7038,-478.8573 158.6346,-466.3776 175.3343,-453.4917 315.4518,-345.3744 311.5845,-269.5646 463.3343,-178.4917 470.9755,-173.9059 479.4914,-169.9922 488.0611,-166.6861"/>
<polygon fill="#000000" stroke="#000000" points="489.4936,-169.8903 497.7156,-163.2082 487.1212,-163.3046 489.4936,-169.8903"/>
</g>
<!-- options&#45;&gt;runCommand -->
<g id="edge35" class="edge">
<title>options&#45;&gt;runCommand</title>
<path fill="none" stroke="#000000" d="M143.7638,-516.8108C229.8024,-531.1041 393.7516,-558.3403 483.1876,-573.1979"/>
<polygon fill="#000000" stroke="#000000" points="482.7489,-576.6729 493.1874,-574.8591 483.8962,-569.7675 482.7489,-576.6729"/>
</g>
<!-- parseNumber -->
<g id="node24" class="node">
<title>parseNumber</title>
<ellipse fill="none" stroke="#000000" cx="545.1518" cy="-36.4917" rx="57.9892" ry="18"/>
<text text-anchor="middle" x="545.1518" y="-32.2917" font-family="Times,serif" font-size="14.00" fill="#000000">parseNumber</text>
</g>
<!-- options&#45;&gt;parseNumber -->
<g id="edge39" class="edge">
<title>options&#45;&gt;parseNumber</title>
<path fill="none" stroke="#000000" d="M123.8962,-489.2378C140.5717,-479.8561 160.0085,-467.4592 175.3343,-453.4917 332.7468,-310.0312 295.0762,-201.0629 463.3343,-70.4917 472.4513,-63.4168 483.2515,-57.5685 493.9653,-52.8356"/>
<polygon fill="#000000" stroke="#000000" points="495.4161,-56.0231 503.3138,-48.9607 492.7357,-49.5566 495.4161,-56.0231"/>
</g>
<!-- options&#45;&gt;variables -->
<g id="edge42" class="edge">
<title>options&#45;&gt;variables</title>
<path fill="none" stroke="#000000" d="M147.9457,-503.2754C238.4335,-496.946 407.8461,-485.096 493.1937,-479.1261"/>
<polygon fill="#000000" stroke="#000000" points="493.6911,-482.5999 503.4225,-478.4106 493.2026,-475.617 493.6911,-482.5999"/>
</g>
<!-- options&#45;&gt;runFunction -->
<g id="edge45" class="edge">
<title>options&#45;&gt;runFunction</title>
<path fill="none" stroke="#000000" d="M119.7672,-488.0769C204.0589,-437.1712 427.6635,-302.6468 463.3343,-286.4917 473.2448,-282.0033 484.1284,-277.8859 494.6321,-274.2909"/>
<polygon fill="#000000" stroke="#000000" points="495.7425,-277.6102 504.1328,-271.1406 493.5394,-270.9659 495.7425,-277.6102"/>
</g>
<!-- options&#45;&gt;signatures -->
<g id="edge55" class="edge">
<title>options&#45;&gt;signatures</title>
<path fill="none" stroke="#000000" d="M134.9029,-493.0366C223.1616,-466.0276 412.0369,-408.2277 499.2616,-381.5351"/>
<polygon fill="#000000" stroke="#000000" points="500.3438,-384.8642 508.8818,-378.5911 498.2953,-378.1707 500.3438,-384.8642"/>
</g>
<!-- options&#45;&gt;replacement -->
<g id="edge60" class="edge">
<title>options&#45;&gt;replacement</title>
<path fill="none" stroke="#000000" d="M103.565,-529.3623C121.426,-554.1147 151.0899,-595.7727 175.3343,-632.4917 309.0707,-835.041 272.64,-946.3342 463.3343,-1096.4917 471.0098,-1102.5356 480.0943,-1107.253 489.3692,-1110.9273"/>
<polygon fill="#000000" stroke="#000000" points="488.458,-1114.3185 499.0526,-1114.3907 490.8155,-1107.7274 488.458,-1114.3185"/>
</g>
<!-- tables -->
<g id="node5" class="node">
<title>tables</title>
<ellipse fill="none" stroke="#000000" cx="87.6672" cy="-421.4917" rx="50.796" ry="22.7556"/>
<text text-anchor="middle" x="87.6672" y="-414.2917" font-family="Times,serif" font-size="24.00" fill="#000000">tables</text>
</g>
<!-- tables&#45;&gt;parseCommandLine -->
<g id="edge3" class="edge">
<title>tables&#45;&gt;parseCommandLine</title>
<path fill="none" stroke="#000000" d="M132.7846,-432.1428C213.9112,-451.2946 384.7292,-491.6202 479.0672,-513.8909"/>
<polygon fill="#000000" stroke="#000000" points="478.5302,-517.3603 489.0668,-516.2516 480.1385,-510.5475 478.5302,-517.3603"/>
</g>
<!-- tables&#45;&gt;regexes -->
<g id="edge9" class="edge">
<title>tables&#45;&gt;regexes</title>
<path fill="none" stroke="#000000" d="M121.0504,-404.402C137.8072,-395.342 158.1443,-383.599 175.3343,-371.4917 313.1989,-274.3912 316.4822,-207.375 463.3343,-124.4917 475.2717,-117.7543 489.147,-112.3806 502.0431,-108.2576"/>
<polygon fill="#000000" stroke="#000000" points="503.1074,-111.5924 511.6656,-105.3467 501.0805,-104.8922 503.1074,-111.5924"/>
</g>
<!-- tables&#45;&gt;cmdline -->
<g id="edge11" class="edge">
<title>tables&#45;&gt;cmdline</title>
<path fill="none" stroke="#000000" d="M117.8247,-439.7743C134.7943,-450.1352 156.3285,-463.4055 175.3343,-475.4917 304.5257,-557.6477 325.4583,-597.932 463.3343,-664.4917 475.3451,-670.2899 488.9145,-675.3245 501.4999,-679.4241"/>
<polygon fill="#000000" stroke="#000000" points="500.7444,-682.8552 511.3336,-682.5081 502.8392,-676.1759 500.7444,-682.8552"/>
</g>
<!-- tables&#45;&gt;processTemplate -->
<g id="edge16" class="edge">
<title>tables&#45;&gt;processTemplate</title>
<path fill="none" stroke="#000000" d="M120.1842,-438.9276C137.2808,-448.724 158.1885,-461.7276 175.3343,-475.4917 318.7182,-590.5963 307.5271,-674.8593 463.3343,-772.4917 470.0184,-776.6801 477.4205,-780.2887 484.9612,-783.3785"/>
<polygon fill="#000000" stroke="#000000" points="483.9521,-786.7392 494.5433,-787.0195 486.4386,-780.1957 483.9521,-786.7392"/>
</g>
<!-- tables&#45;&gt;matches -->
<g id="edge28" class="edge">
<title>tables&#45;&gt;matches</title>
<path fill="none" stroke="#000000" d="M132.7846,-410.8407C220.4952,-390.1345 413.0463,-344.6783 500.4359,-324.048"/>
<polygon fill="#000000" stroke="#000000" points="501.3803,-327.4213 510.3086,-321.7173 499.7719,-320.6086 501.3803,-327.4213"/>
</g>
<!-- tables&#45;&gt;parseCmdLine -->
<g id="edge33" class="edge">
<title>tables&#45;&gt;parseCmdLine</title>
<path fill="none" stroke="#000000" d="M120.0544,-403.7537C136.7376,-394.4325 157.3085,-382.652 175.3343,-371.4917 306.3419,-290.3817 324.8981,-246.1471 463.3343,-178.4917 471.9121,-174.2997 481.2987,-170.5196 490.5575,-167.2066"/>
<polygon fill="#000000" stroke="#000000" points="491.7977,-170.4814 500.1206,-163.9255 489.526,-163.8603 491.7977,-170.4814"/>
</g>
<!-- tables&#45;&gt;vartypes -->
<g id="edge37" class="edge">
<title>tables&#45;&gt;vartypes</title>
<path fill="none" stroke="#000000" d="M138.8148,-421.4917C227.0922,-421.4917 407.0047,-421.4917 494.7576,-421.4917"/>
<polygon fill="#000000" stroke="#000000" points="494.99,-424.9918 504.99,-421.4917 494.9899,-417.9918 494.99,-424.9918"/>
</g>
<!-- tables&#45;&gt;variables -->
<g id="edge43" class="edge">
<title>tables&#45;&gt;variables</title>
<path fill="none" stroke="#000000" d="M137.0607,-427.322C224.6257,-437.6579 406.1608,-459.0857 494.5689,-469.5211"/>
<polygon fill="#000000" stroke="#000000" points="494.2792,-473.0111 504.6205,-470.7076 495.0998,-466.0594 494.2792,-473.0111"/>
</g>
<!-- tables&#45;&gt;runFunction -->
<g id="edge46" class="edge">
<title>tables&#45;&gt;runFunction</title>
<path fill="none" stroke="#000000" d="M127.0296,-406.9619C195.2946,-381.8498 340.1532,-328.9418 463.3343,-286.4917 474.1627,-282.7601 485.833,-278.8453 496.873,-275.1907"/>
<polygon fill="#000000" stroke="#000000" points="497.9746,-278.5129 506.3755,-272.0572 495.7824,-271.865 497.9746,-278.5129"/>
</g>
<!-- tables&#45;&gt;signatures -->
<g id="edge53" class="edge">
<title>tables&#45;&gt;signatures</title>
<path fill="none" stroke="#000000" d="M137.0607,-415.6615C223.491,-405.4595 401.4718,-384.4513 491.0855,-373.8735"/>
<polygon fill="#000000" stroke="#000000" points="491.5217,-377.3464 501.0425,-372.6983 490.7011,-370.3947 491.5217,-377.3464"/>
</g>
<!-- readjson -->
<g id="node34" class="node">
<title>readjson</title>
<ellipse fill="none" stroke="#000000" cx="545.1518" cy="-1177.4917" rx="40.1317" ry="18"/>
<text text-anchor="middle" x="545.1518" y="-1173.2917" font-family="Times,serif" font-size="14.00" fill="#000000">readjson</text>
</g>
<!-- tables&#45;&gt;readjson -->
<g id="edge59" class="edge">
<title>tables&#45;&gt;readjson</title>
<path fill="none" stroke="#000000" d="M124.1891,-437.4865C141.5332,-446.5721 161.4524,-459.3737 175.3343,-475.4917 388.1875,-722.6304 223.1614,-929.8088 463.3343,-1150.4917 472.7205,-1159.1163 484.9241,-1164.9908 497.0292,-1168.9905"/>
<polygon fill="#000000" stroke="#000000" points="496.0797,-1172.3593 506.6605,-1171.8129 498.0483,-1165.6418 496.0797,-1172.3593"/>
</g>
<!-- os -->
<g id="node6" class="node">
<title>os</title>
<ellipse fill="none" stroke="#000000" cx="87.6672" cy="-827.4917" rx="27" ry="22.7556"/>
<text text-anchor="middle" x="87.6672" y="-820.2917" font-family="Times,serif" font-size="24.00" fill="#000000">os</text>
</g>
<!-- os&#45;&gt;statictea -->
<g id="edge64" class="edge">
<title>os&#45;&gt;statictea</title>
<path fill="none" stroke="#000000" d="M114.2409,-832.1387C189.2191,-845.2501 403.1502,-882.66 498.411,-899.3182"/>
<polygon fill="#000000" stroke="#000000" points="497.8855,-902.7794 508.339,-901.0543 499.0914,-895.884 497.8855,-902.7794"/>
</g>
<!-- os&#45;&gt;parseCommandLine -->
<g id="edge4" class="edge">
<title>os&#45;&gt;parseCommandLine</title>
<path fill="none" stroke="#000000" d="M106.2421,-810.8358C158.7178,-764.5371 313.9819,-632.704 463.3343,-556.4917 469.9294,-553.1263 477.0331,-550.0529 484.202,-547.2844"/>
<polygon fill="#000000" stroke="#000000" points="485.7934,-550.4288 493.9767,-543.6994 483.383,-543.8569 485.7934,-550.4288"/>
</g>
<!-- os&#45;&gt;cmdline -->
<g id="edge10" class="edge">
<title>os&#45;&gt;cmdline</title>
<path fill="none" stroke="#000000" d="M113.2438,-819.8884C188.4079,-797.5438 409.1761,-731.9143 502.608,-704.139"/>
<polygon fill="#000000" stroke="#000000" points="503.7128,-707.4621 512.3009,-701.2576 501.7181,-700.7523 503.7128,-707.4621"/>
</g>
<!-- os&#45;&gt;processTemplate -->
<g id="edge14" class="edge">
<title>os&#45;&gt;processTemplate</title>
<path fill="none" stroke="#000000" d="M114.9149,-825.8241C183.0495,-821.6539 362.8221,-810.6511 467.1598,-804.2652"/>
<polygon fill="#000000" stroke="#000000" points="467.5577,-807.7475 477.3252,-803.643 467.13,-800.7605 467.5577,-807.7475"/>
</g>
<!-- os&#45;&gt;env -->
<g id="edge19" class="edge">
<title>os&#45;&gt;env</title>
<path fill="none" stroke="#000000" d="M111.546,-838.579C170.5589,-865.7911 328.2856,-937.3781 463.3343,-988.4917 478.679,-994.2994 495.8946,-1000.0871 510.5609,-1004.8057"/>
<polygon fill="#000000" stroke="#000000" points="509.6625,-1008.1926 520.2529,-1007.8887 511.7844,-1001.522 509.6625,-1008.1926"/>
</g>
<!-- os&#45;&gt;tempFile -->
<g id="edge23" class="edge">
<title>os&#45;&gt;tempFile</title>
<path fill="none" stroke="#000000" d="M113.2438,-834.9833C187.954,-856.8664 406.5151,-920.8842 500.9016,-948.5306"/>
<polygon fill="#000000" stroke="#000000" points="500.1309,-951.9518 510.7116,-951.404 502.0986,-945.2341 500.1309,-951.9518"/>
</g>
<!-- os&#45;&gt;runFunction -->
<g id="edge49" class="edge">
<title>os&#45;&gt;runFunction</title>
<path fill="none" stroke="#000000" d="M100.8686,-807.7407C164.4883,-712.6536 437.4492,-305.8166 463.3343,-286.4917 471.1627,-280.6474 480.3221,-276.0277 489.6238,-272.3882"/>
<polygon fill="#000000" stroke="#000000" points="491.0699,-275.5887 499.3189,-268.94 488.7242,-268.9934 491.0699,-275.5887"/>
</g>
<!-- os&#45;&gt;readjson -->
<g id="edge57" class="edge">
<title>os&#45;&gt;readjson</title>
<path fill="none" stroke="#000000" d="M108.1574,-842.7893C126.115,-856.3364 152.795,-876.8053 175.3343,-895.4917 306.9481,-1004.6075 315.1158,-1065.2877 463.3343,-1150.4917 474.59,-1156.9621 487.6186,-1162.1488 499.9239,-1166.1783"/>
<polygon fill="#000000" stroke="#000000" points="499.0022,-1169.5567 509.5898,-1169.1643 501.0684,-1162.8686 499.0022,-1169.5567"/>
</g>
<!-- re -->
<g id="node9" class="node">
<title>re</title>
<polygon fill="#98fb98" stroke="#000000" points="114.6672,-93.3499 114.6672,-113.6336 98.8509,-127.9764 76.4834,-127.9764 60.6672,-113.6336 60.6672,-93.3499 76.4834,-79.0071 98.8509,-79.0071 114.6672,-93.3499"/>
<polygon fill="none" stroke="#000000" points="118.6672,-91.5783 118.6672,-115.4052 100.3948,-131.9752 74.9395,-131.9752 56.6672,-115.4052 56.6672,-91.5783 74.9395,-75.0083 100.3948,-75.0083 118.6672,-91.5783"/>
<text text-anchor="middle" x="87.6672" y="-96.2917" font-family="Times,serif" font-size="24.00" fill="#000000">re</text>
</g>
<!-- re&#45;&gt;regexes -->
<g id="edge7" class="edge">
<title>re&#45;&gt;regexes</title>
<path fill="none" stroke="#000000" d="M118.7523,-103.0841C197.2583,-102.0544 403.9214,-99.344 497.683,-98.1143"/>
<polygon fill="#000000" stroke="#000000" points="497.7857,-101.6134 507.7389,-97.9824 497.6939,-94.614 497.7857,-101.6134"/>
</g>
<!-- streams -->
<g id="node12" class="node">
<title>streams</title>
<ellipse fill="none" stroke="#000000" cx="87.6672" cy="-1076.4917" rx="63.3073" ry="22.7556"/>
<text text-anchor="middle" x="87.6672" y="-1069.2917" font-family="Times,serif" font-size="24.00" fill="#000000">streams</text>
</g>
<!-- streams&#45;&gt;processTemplate -->
<g id="edge13" class="edge">
<title>streams&#45;&gt;processTemplate</title>
<path fill="none" stroke="#000000" d="M136.1145,-1061.7201C149.191,-1056.9584 163.0992,-1051.1593 175.3343,-1044.4917 316.2969,-967.6737 321.1891,-901.0987 463.3343,-826.4917 470.8547,-822.5446 479.064,-819.0201 487.2868,-815.925"/>
<polygon fill="#000000" stroke="#000000" points="488.6655,-819.1492 496.9054,-812.4892 486.3108,-812.5571 488.6655,-819.1492"/>
</g>
<!-- streams&#45;&gt;env -->
<g id="edge18" class="edge">
<title>streams&#45;&gt;env</title>
<path fill="none" stroke="#000000" d="M147.0063,-1068.5796C243.0279,-1055.7763 429.6579,-1030.8914 508.543,-1020.3731"/>
<polygon fill="#000000" stroke="#000000" points="509.0492,-1023.8367 518.4988,-1019.0456 508.1239,-1016.8981 509.0492,-1023.8367"/>
</g>
<!-- streams&#45;&gt;readlines -->
<g id="edge30" class="edge">
<title>streams&#45;&gt;readlines</title>
<path fill="none" stroke="#000000" d="M150.7981,-1075.5258C241.8604,-1074.1324 408.3967,-1071.5842 492.9366,-1070.2907"/>
<polygon fill="#000000" stroke="#000000" points="493.1302,-1073.7882 503.0754,-1070.1356 493.023,-1066.7891 493.1302,-1073.7882"/>
</g>
<!-- collectCommand -->
<g id="node21" class="node">
<title>collectCommand</title>
<ellipse fill="none" stroke="#000000" cx="545.1518" cy="-1231.4917" rx="70.5427" ry="18"/>
<text text-anchor="middle" x="545.1518" y="-1227.2917" font-family="Times,serif" font-size="14.00" fill="#000000">collectCommand</text>
</g>
<!-- streams&#45;&gt;collectCommand -->
<g id="edge34" class="edge">
<title>streams&#45;&gt;collectCommand</title>
<path fill="none" stroke="#000000" d="M133.3034,-1092.1996C203.9567,-1116.4824 344.1137,-1164.5104 463.3343,-1204.4917 472.6942,-1207.6306 482.6661,-1210.9457 492.3123,-1214.1374"/>
<polygon fill="#000000" stroke="#000000" points="491.222,-1217.4632 501.8152,-1217.2769 493.4179,-1210.8165 491.222,-1217.4632"/>
</g>
<!-- streams&#45;&gt;readjson -->
<g id="edge56" class="edge">
<title>streams&#45;&gt;readjson</title>
<path fill="none" stroke="#000000" d="M141.4917,-1088.3747C232.1661,-1108.3931 413.8003,-1148.493 499.0158,-1167.3062"/>
<polygon fill="#000000" stroke="#000000" points="498.3979,-1170.754 508.9174,-1169.4922 499.9071,-1163.9186 498.3979,-1170.754"/>
</g>
<!-- streams&#45;&gt;replacement -->
<g id="edge61" class="edge">
<title>streams&#45;&gt;replacement</title>
<path fill="none" stroke="#000000" d="M148.4176,-1082.733C235.8585,-1091.7163 396.2924,-1108.1986 483.9717,-1117.2064"/>
<polygon fill="#000000" stroke="#000000" points="483.7298,-1120.6998 494.0352,-1118.2402 484.4453,-1113.7365 483.7298,-1120.6998"/>
</g>
<!-- times -->
<g id="node15" class="node">
<title>times</title>
<polygon fill="#98fb98" stroke="#000000" points="139.7481,-997.3499 139.7481,-1017.6336 109.2398,-1031.9764 66.0945,-1031.9764 35.5862,-1017.6336 35.5862,-997.3499 66.0945,-983.0071 109.2398,-983.0071 139.7481,-997.3499"/>
<polygon fill="none" stroke="#000000" points="143.7511,-994.8122 143.7511,-1020.1712 110.1347,-1035.9752 65.1997,-1035.9752 31.5832,-1020.1712 31.5832,-994.8122 65.1997,-979.0083 110.1347,-979.0083 143.7511,-994.8122"/>
<text text-anchor="middle" x="87.6672" y="-1000.2917" font-family="Times,serif" font-size="24.00" fill="#000000">times</text>
</g>
<!-- times&#45;&gt;env -->
<g id="edge20" class="edge">
<title>times&#45;&gt;env</title>
<path fill="none" stroke="#000000" d="M143.7638,-1008.4727C238.5268,-1010.1298 427.8019,-1013.4397 507.9369,-1014.841"/>
<polygon fill="#000000" stroke="#000000" points="507.9925,-1018.3424 518.0522,-1015.0179 508.1149,-1011.3434 507.9925,-1018.3424"/>
</g>
<!-- random -->
<g id="node17" class="node">
<title>random</title>
<polygon fill="#98fb98" stroke="#000000" points="155.889,-922.3499 155.889,-942.6336 115.9256,-956.9764 59.4087,-956.9764 19.4453,-942.6336 19.4453,-922.3499 59.4087,-908.0071 115.9256,-908.0071 155.889,-922.3499"/>
<polygon fill="none" stroke="#000000" points="159.8811,-919.5349 159.8811,-945.4486 116.6191,-960.9752 58.7152,-960.9752 15.4532,-945.4486 15.4532,-919.5349 58.7152,-904.0083 116.6191,-904.0083 159.8811,-919.5349"/>
<text text-anchor="middle" x="87.6672" y="-925.2917" font-family="Times,serif" font-size="24.00" fill="#000000">random</text>
</g>
<!-- random&#45;&gt;tempFile -->
<g id="edge24" class="edge">
<title>random&#45;&gt;tempFile</title>
<path fill="none" stroke="#000000" d="M159.9045,-937.0709C252.9883,-942.9715 412.5,-953.0829 493.9819,-958.2481"/>
<polygon fill="#000000" stroke="#000000" points="493.7959,-961.7432 503.9973,-958.883 494.2388,-954.7572 493.7959,-961.7432"/>
</g>
<!-- parseutils -->
<g id="node25" class="node">
<title>parseutils</title>
<polygon fill="#98fb98" stroke="#000000" points="170.4501,-18.3499 170.4501,-38.6336 121.957,-52.9764 53.3774,-52.9764 4.8843,-38.6336 4.8843,-18.3499 53.3774,-4.0071 121.957,-4.0071 170.4501,-18.3499"/>
<polygon fill="none" stroke="#000000" points="174.4567,-15.3642 174.4567,-41.6193 122.5382,-56.9752 52.7962,-56.9752 .8776,-41.6193 .8776,-15.3642 52.7962,-.0083 122.5382,-.0083 174.4567,-15.3642"/>
<text text-anchor="middle" x="87.6672" y="-21.2917" font-family="Times,serif" font-size="24.00" fill="#000000">parseutils</text>
</g>
<!-- parseutils&#45;&gt;parseNumber -->
<g id="edge40" class="edge">
<title>parseutils&#45;&gt;parseNumber</title>
<path fill="none" stroke="#000000" d="M174.5237,-30.0106C262.4986,-31.549 396.7505,-33.8967 477.235,-35.3041"/>
<polygon fill="#000000" stroke="#000000" points="477.1994,-38.8039 487.2591,-35.4794 477.3218,-31.805 477.1994,-38.8039"/>
</g>
<!-- math -->
<g id="node29" class="node">
<title>math</title>
<polygon fill="#98fb98" stroke="#000000" points="136.6181,-324.3499 136.6181,-344.6336 107.9433,-358.9764 67.391,-358.9764 38.7162,-344.6336 38.7162,-324.3499 67.391,-310.0071 107.9433,-310.0071 136.6181,-324.3499"/>
<polygon fill="none" stroke="#000000" points="140.6162,-321.8787 140.6162,-347.1048 108.8873,-362.9752 66.447,-362.9752 34.7181,-347.1048 34.7181,-321.8787 66.447,-306.0083 108.8873,-306.0083 140.6162,-321.8787"/>
<text text-anchor="middle" x="87.6672" y="-327.2917" font-family="Times,serif" font-size="24.00" fill="#000000">math</text>
</g>
<!-- math&#45;&gt;runFunction -->
<g id="edge48" class="edge">
<title>math&#45;&gt;runFunction</title>
<path fill="none" stroke="#000000" d="M141.0418,-325.7415C227.5118,-311.5656 397.5397,-283.6913 486.9882,-269.0271"/>
<polygon fill="#000000" stroke="#000000" points="487.6596,-272.4638 496.9616,-267.392 486.5271,-265.556 487.6596,-272.4638"/>
</g>
<!-- algorithm -->
<g id="node30" class="node">
<title>algorithm</title>
<polygon fill="#98fb98" stroke="#000000" points="171.4941,-249.3499 171.4941,-269.6336 122.3894,-283.9764 52.9449,-283.9764 3.8402,-269.6336 3.8402,-249.3499 52.9449,-235.0071 122.3894,-235.0071 171.4941,-249.3499"/>
<polygon fill="none" stroke="#000000" points="175.5018,-246.3538 175.5018,-272.6297 122.964,-287.9752 52.3704,-287.9752 -.1675,-272.6297 -.1675,-246.3538 52.3704,-231.0083 122.964,-231.0083 175.5018,-246.3538"/>
<text text-anchor="middle" x="87.6672" y="-252.2917" font-family="Times,serif" font-size="24.00" fill="#000000">algorithm</text>
</g>
<!-- algorithm&#45;&gt;runFunction -->
<g id="edge50" class="edge">
<title>algorithm&#45;&gt;runFunction</title>
<path fill="none" stroke="#000000" d="M175.604,-259.4917C265.1511,-259.4917 401.8166,-259.4917 481.4387,-259.4917"/>
<polygon fill="#000000" stroke="#000000" points="481.809,-262.9918 491.8089,-259.4917 481.8089,-255.9918 481.809,-262.9918"/>
</g>
<!-- unicode -->
<g id="node31" class="node">
<title>unicode</title>
<polygon fill="#98fb98" stroke="#000000" points="157.9587,-174.3499 157.9587,-194.6336 116.7829,-208.9764 58.5514,-208.9764 17.3756,-194.6336 17.3756,-174.3499 58.5514,-160.0071 116.7829,-160.0071 157.9587,-174.3499"/>
<polygon fill="none" stroke="#000000" points="161.953,-171.5072 161.953,-197.4763 117.4579,-212.9752 57.8764,-212.9752 13.3814,-197.4763 13.3814,-171.5072 57.8764,-156.0083 117.4579,-156.0083 161.953,-171.5072"/>
<text text-anchor="middle" x="87.6672" y="-177.2917" font-family="Times,serif" font-size="24.00" fill="#000000">unicode</text>
</g>
<!-- unicode&#45;&gt;unicodes -->
<g id="edge51" class="edge">
<title>unicode&#45;&gt;unicodes</title>
<path fill="none" stroke="#000000" d="M162.1882,-187.9125C255.2358,-192.1837 412.0115,-199.3802 493.0927,-203.1021"/>
<polygon fill="#000000" stroke="#000000" points="493.3935,-206.6195 503.5435,-203.5818 493.7145,-199.6268 493.3935,-206.6195"/>
</g>
<!-- json -->
<g id="node35" class="node">
<title>json</title>
<polygon fill="#98fb98" stroke="#000000" points="130.4119,-1210.3499 130.4119,-1230.6336 105.3726,-1244.9764 69.9617,-1244.9764 44.9224,-1230.6336 44.9224,-1210.3499 69.9617,-1196.0071 105.3726,-1196.0071 130.4119,-1210.3499"/>
<polygon fill="none" stroke="#000000" points="134.4006,-1208.0291 134.4006,-1232.9544 106.4317,-1248.9752 68.9026,-1248.9752 40.9337,-1232.9544 40.9337,-1208.0291 68.9026,-1192.0083 106.4317,-1192.0083 134.4006,-1208.0291"/>
<text text-anchor="middle" x="87.6672" y="-1213.2917" font-family="Times,serif" font-size="24.00" fill="#000000">json</text>
</g>
<!-- json&#45;&gt;readjson -->
<g id="edge58" class="edge">
<title>json&#45;&gt;readjson</title>
<path fill="none" stroke="#000000" d="M134.4761,-1216.0921C221.3318,-1207.9283 406.6727,-1190.5077 495.5749,-1182.1516"/>
<polygon fill="#000000" stroke="#000000" points="496.0406,-1185.6233 505.6692,-1181.2028 495.3855,-1178.654 496.0406,-1185.6233"/>
</g>
<!-- strformat -->
<g id="node37" class="node">
<title>strformat</title>
<polygon fill="#98fb98" stroke="#000000" points="167.318,-1135.3499 167.318,-1155.6336 120.6596,-1169.9764 54.6747,-1169.9764 8.0163,-1155.6336 8.0163,-1135.3499 54.6747,-1121.0071 120.6596,-1121.0071 167.318,-1135.3499"/>
<polygon fill="none" stroke="#000000" points="171.3217,-1132.3967 171.3217,-1158.5868 121.2618,-1173.9752 54.0725,-1173.9752 4.0126,-1158.5868 4.0126,-1132.3967 54.0725,-1117.0083 121.2618,-1117.0083 171.3217,-1132.3967"/>
<text text-anchor="middle" x="87.6672" y="-1138.2917" font-family="Times,serif" font-size="24.00" fill="#000000">strformat</text>
</g>
<!-- strformat&#45;&gt;replacement -->
<g id="edge62" class="edge">
<title>strformat&#45;&gt;replacement</title>
<path fill="none" stroke="#000000" d="M171.3108,-1141.4694C260.9437,-1137.159 401.2008,-1130.4142 482.017,-1126.5278"/>
<polygon fill="#000000" stroke="#000000" points="482.2314,-1130.0217 492.0517,-1126.0453 481.8951,-1123.0297 482.2314,-1130.0217"/>
</g>
</g>
</svg>
