<?xml version="1.0" encoding="UTF-8" standalone="no"?>
<!DOCTYPE svg PUBLIC "-//W3C//DTD SVG 1.1//EN"
 "http://www.w3.org/Graphics/SVG/1.1/DTD/svg11.dtd">
<!-- Generated by graphviz version 2.40.1 (20161225.0304)
 -->
<!-- Title: statictea Pages: 1 -->
<svg width="720pt" height="310pt"
 viewBox="0.00 0.00 720.00 310.32" xmlns="http://www.w3.org/2000/svg" xmlns:xlink="http://www.w3.org/1999/xlink">
<g id="graph0" class="graph" transform="scale(.2052 .2052) rotate(0) translate(4 1507.9442)">
<title>statictea</title>
<polygon fill="#ffffff" stroke="transparent" points="-4,4 -4,-1507.9442 3504,-1507.9442 3504,4 -4,4"/>
<!-- runFunction -->
<g id="node1" class="node">
<title>runFunction</title>
<g id="a_node1"><a xlink:href="runFunction.md" xlink:title="runFunction.md">
<ellipse fill="#eee8aa" stroke="#000000" cx="1168" cy="-880" rx="94.055" ry="22.7556"/>
<text text-anchor="middle" x="1168" y="-872.8" font-family="Times,serif" font-size="24.00" fill="#000000">runFunction</text>
</a>
</g>
</g>
<!-- parseNumber -->
<g id="node3" class="node">
<title>parseNumber</title>
<g id="a_node3"><a xlink:href="parseNumber.md" xlink:title="parseNumber.md">
<ellipse fill="#eee8aa" stroke="#000000" cx="877" cy="-768" rx="102.9592" ry="22.7556"/>
<text text-anchor="middle" x="877" y="-760.8" font-family="Times,serif" font-size="24.00" fill="#000000">parseNumber</text>
</a>
</g>
</g>
<!-- runFunction&#45;&gt;parseNumber -->
<g id="edge54" class="edge">
<title>runFunction&#45;&gt;parseNumber</title>
<path fill="none" stroke="#000000" d="M1117.9753,-860.7465C1068.0001,-841.5121 991.1201,-811.9225 937.6866,-791.357"/>
<polygon fill="#000000" stroke="#000000" points="938.9162,-788.0801 928.3264,-787.7545 936.4018,-794.6129 938.9162,-788.0801"/>
</g>
<!-- regexes -->
<g id="node4" class="node">
<title>regexes</title>
<g id="a_node4"><a xlink:href="regexes.md" xlink:title="regexes.md">
<polygon fill="#98fb98" stroke="#000000" points="1258.187,-397.8581 1258.187,-418.1419 1218.244,-432.4846 1161.756,-432.4846 1121.813,-418.1419 1121.813,-397.8581 1161.756,-383.5154 1218.244,-383.5154 1258.187,-397.8581"/>
<polygon fill="none" stroke="#000000" points="1262.1781,-395.0434 1262.1781,-420.9566 1218.9376,-436.4835 1161.0624,-436.4835 1117.8219,-420.9566 1117.8219,-395.0434 1161.0624,-379.5165 1218.9376,-379.5165 1262.1781,-395.0434"/>
<text text-anchor="middle" x="1190" y="-400.8" font-family="Times,serif" font-size="24.00" fill="#000000">regexes</text>
</a>
</g>
</g>
<!-- runFunction&#45;&gt;regexes -->
<g id="edge53" class="edge">
<title>runFunction&#45;&gt;regexes</title>
<path fill="none" stroke="#000000" d="M1169.0611,-857.2345C1172.5647,-782.0657 1183.791,-541.2103 1188.199,-446.6386"/>
<polygon fill="#000000" stroke="#000000" points="1191.6958,-446.7881 1188.6653,-436.636 1184.7034,-446.4622 1191.6958,-446.7881"/>
</g>
<!-- unicodes -->
<g id="node9" class="node">
<title>unicodes</title>
<g id="a_node9"><a xlink:href="unicodes.md" xlink:title="unicodes.md">
<ellipse fill="#eee8aa" stroke="#000000" cx="442" cy="-656" rx="71.7778" ry="22.7556"/>
<text text-anchor="middle" x="442" y="-648.8" font-family="Times,serif" font-size="24.00" fill="#000000">unicodes</text>
</a>
</g>
</g>
<!-- runFunction&#45;&gt;unicodes -->
<g id="edge63" class="edge">
<title>runFunction&#45;&gt;unicodes</title>
<path fill="none" stroke="#000000" d="M1090.4244,-867.0075C1008.4807,-852.3107 876.0259,-825.7729 765,-790.6274 665.0087,-758.975 552.9883,-708.7888 490.6359,-679.4604"/>
<polygon fill="#000000" stroke="#000000" points="491.9713,-676.2204 481.4343,-675.114 488.9814,-682.5498 491.9713,-676.2204"/>
</g>
<!-- vartypes -->
<g id="node12" class="node">
<title>vartypes</title>
<g id="a_node12"><a xlink:href="vartypes.md" xlink:title="vartypes.md">
<ellipse fill="#eee8aa" stroke="#000000" cx="673" cy="-536" rx="68.6102" ry="22.7556"/>
<text text-anchor="middle" x="673" y="-528.8" font-family="Times,serif" font-size="24.00" fill="#000000">vartypes</text>
</a>
</g>
</g>
<!-- runFunction&#45;&gt;vartypes -->
<g id="edge52" class="edge">
<title>runFunction&#45;&gt;vartypes</title>
<path fill="none" stroke="#000000" d="M1140.1708,-858.2556C1105.292,-831.1931 1043.4684,-783.8488 989,-745.3726 891.6584,-676.6109 773.9053,-600.3605 713.3296,-561.6255"/>
<polygon fill="#000000" stroke="#000000" points="715.128,-558.6212 704.8163,-556.1881 711.36,-564.5206 715.128,-558.6212"/>
</g>
<!-- replacement -->
<g id="node14" class="node">
<title>replacement</title>
<g id="a_node14"><a xlink:href="replacement.md" xlink:title="replacement.md">
<ellipse fill="#eee8aa" stroke="#000000" cx="2210" cy="-768" rx="94.4556" ry="22.7556"/>
<text text-anchor="middle" x="2210" y="-760.8" font-family="Times,serif" font-size="24.00" fill="#000000">replacement</text>
</a>
</g>
</g>
<!-- runFunction&#45;&gt;replacement -->
<g id="edge77" class="edge">
<title>runFunction&#45;&gt;replacement</title>
<path fill="none" stroke="#000000" d="M1254.1577,-870.7393C1446.9179,-850.0203 1911.8555,-800.0462 2113.7443,-778.3461"/>
<polygon fill="#000000" stroke="#000000" points="2114.1729,-781.8203 2123.7416,-777.2715 2113.4248,-774.8604 2114.1729,-781.8203"/>
</g>
<!-- warnings -->
<g id="node18" class="node">
<title>warnings</title>
<g id="a_node18"><a xlink:href="warnings.md" xlink:title="warnings.md">
<ellipse fill="#eee8aa" stroke="#000000" cx="1935" cy="-168" rx="73.5561" ry="22.7556"/>
<text text-anchor="middle" x="1935" y="-160.8" font-family="Times,serif" font-size="24.00" fill="#000000">warnings</text>
</a>
</g>
</g>
<!-- runFunction&#45;&gt;warnings -->
<g id="edge51" class="edge">
<title>runFunction&#45;&gt;warnings</title>
<path fill="none" stroke="#000000" d="M1182.4026,-857.6004C1239.4439,-770.4339 1458.7865,-449.6021 1712,-265.3726 1761.1136,-229.6392 1825.398,-203.3302 1872.322,-187.1306"/>
<polygon fill="#000000" stroke="#000000" points="1873.7142,-190.3543 1882.0599,-183.8274 1871.4655,-183.7253 1873.7142,-190.3543"/>
</g>
<!-- signatures -->
<g id="node24" class="node">
<title>signatures</title>
<g id="a_node24"><a xlink:href="signatures.md" xlink:title="signatures.md">
<ellipse fill="#eee8aa" stroke="#000000" cx="1068" cy="-656" rx="80.2483" ry="22.7556"/>
<text text-anchor="middle" x="1068" y="-648.8" font-family="Times,serif" font-size="24.00" fill="#000000">signatures</text>
</a>
</g>
</g>
<!-- runFunction&#45;&gt;signatures -->
<g id="edge66" class="edge">
<title>runFunction&#45;&gt;signatures</title>
<path fill="none" stroke="#000000" d="M1165.5055,-857.1272C1161.8459,-829.5446 1153.4655,-782.2904 1136,-745.3726 1125.7537,-723.7144 1109.6748,-702.2549 1095.7243,-685.7942"/>
<polygon fill="#000000" stroke="#000000" points="1098.2781,-683.3969 1089.0816,-678.1361 1092.9902,-687.9836 1098.2781,-683.3969"/>
</g>
<!-- opresultwarn -->
<g id="node26" class="node">
<title>opresultwarn</title>
<g id="a_node26"><a xlink:href="opresultwarn.md" xlink:title="opresultwarn.md">
<ellipse fill="#eee8aa" stroke="#000000" cx="1290" cy="-288" rx="99.824" ry="22.7556"/>
<text text-anchor="middle" x="1290" y="-280.8" font-family="Times,serif" font-size="24.00" fill="#000000">opresultwarn</text>
</a>
</g>
</g>
<!-- runFunction&#45;&gt;opresultwarn -->
<g id="edge78" class="edge">
<title>runFunction&#45;&gt;opresultwarn</title>
<path fill="none" stroke="#000000" d="M1145.3686,-857.7947C1097.1148,-810.1864 987.7781,-700.8071 979,-678.6274 971.5983,-659.9256 974.2034,-652.9055 979,-633.3726 987.2377,-599.8265 999.1755,-595.1965 1015,-564.4917 1057.2477,-482.5173 1043.7231,-444.6511 1109,-379.5083 1140.5733,-347.9998 1185.2203,-325.2672 1222.2708,-310.3407"/>
<polygon fill="#000000" stroke="#000000" points="1223.9732,-313.4328 1232.0068,-306.5254 1221.4191,-306.9153 1223.9732,-313.4328"/>
</g>
<!-- messages -->
<g id="node27" class="node">
<title>messages</title>
<g id="a_node27"><a xlink:href="messages.md" xlink:title="messages.md">
<polygon fill="#98fb98" stroke="#000000" points="2111.7388,-28.8581 2111.7388,-49.1419 2063.8573,-63.4846 1996.1427,-63.4846 1948.2612,-49.1419 1948.2612,-28.8581 1996.1427,-14.5154 2063.8573,-14.5154 2111.7388,-28.8581"/>
<polygon fill="none" stroke="#000000" points="2115.7446,-25.883 2115.7446,-52.117 2064.4454,-67.4835 1995.5546,-67.4835 1944.2554,-52.117 1944.2554,-25.883 1995.5546,-10.5165 2064.4454,-10.5165 2115.7446,-25.883"/>
<text text-anchor="middle" x="2030" y="-31.8" font-family="Times,serif" font-size="24.00" fill="#000000">messages</text>
</a>
</g>
</g>
<!-- runFunction&#45;&gt;messages -->
<g id="edge50" class="edge">
<title>runFunction&#45;&gt;messages</title>
<path fill="none" stroke="#000000" d="M1074.0335,-878.0673C898.3249,-872.9602 527.9267,-854.6999 419,-790.6274 168.2095,-643.1082 133.2015,-332.4373 351,-139.5083 410.5754,-86.7355 1586.6265,-50.9474 1934.1145,-41.4937"/>
<polygon fill="#000000" stroke="#000000" points="1934.2501,-44.9914 1944.1516,-41.2217 1934.0604,-37.9939 1934.2501,-44.9914"/>
</g>
<!-- matches -->
<g id="node28" class="node">
<title>matches</title>
<g id="a_node28"><a xlink:href="matches.md" xlink:title="matches.md">
<ellipse fill="#eee8aa" stroke="#000000" cx="1840" cy="-536" rx="66.8311" ry="22.7556"/>
<text text-anchor="middle" x="1840" y="-528.8" font-family="Times,serif" font-size="24.00" fill="#000000">matches</text>
</a>
</g>
</g>
<!-- runFunction&#45;&gt;matches -->
<g id="edge55" class="edge">
<title>runFunction&#45;&gt;matches</title>
<path fill="none" stroke="#000000" d="M1213.0098,-859.9917C1248.9888,-843.2712 1300.1491,-817.8423 1342,-790.6274 1435.3375,-729.9316 1439.0163,-686.241 1537,-633.3726 1613.1601,-592.2794 1709.5436,-565.0213 1772.8983,-550.0509"/>
<polygon fill="#000000" stroke="#000000" points="1773.8277,-553.4282 1782.7746,-547.7535 1772.2417,-546.6102 1773.8277,-553.4282"/>
</g>
<!-- opresultid -->
<g id="node2" class="node">
<title>opresultid</title>
<g id="a_node2"><a xlink:href="opresultid.md" xlink:title="opresultid.md">
<ellipse fill="#eee8aa" stroke="#000000" cx="513" cy="-288" rx="79.3758" ry="22.7556"/>
<text text-anchor="middle" x="513" y="-280.8" font-family="Times,serif" font-size="24.00" fill="#000000">opresultid</text>
</a>
</g>
</g>
<!-- opresultid&#45;&gt;messages -->
<g id="edge56" class="edge">
<title>opresultid&#45;&gt;messages</title>
<path fill="none" stroke="#000000" d="M493.5398,-265.9515C467.8309,-234.1252 429.5039,-175.2217 463,-139.5083 513.5141,-85.6503 1601.2466,-50.9562 1934.087,-41.5718"/>
<polygon fill="#000000" stroke="#000000" points="1934.2889,-45.0676 1944.1867,-41.2883 1934.0924,-38.0704 1934.2889,-45.0676"/>
</g>
<!-- opresult -->
<g id="node34" class="node">
<title>opresult</title>
<g id="a_node34"><a xlink:href="opresult.md" xlink:title="opresult.md">
<polygon fill="#98fb98" stroke="#000000" points="618.3526,-157.8581 618.3526,-178.1419 576.5552,-192.4846 517.4448,-192.4846 475.6474,-178.1419 475.6474,-157.8581 517.4448,-143.5154 576.5552,-143.5154 618.3526,-157.8581"/>
<polygon fill="none" stroke="#000000" points="622.3486,-155.0019 622.3486,-180.9981 577.2213,-196.4835 516.7787,-196.4835 471.6514,-180.9981 471.6514,-155.0019 516.7787,-139.5165 577.2213,-139.5165 622.3486,-155.0019"/>
<text text-anchor="middle" x="547" y="-160.8" font-family="Times,serif" font-size="24.00" fill="#000000">opresult</text>
</a>
</g>
</g>
<!-- opresultid&#45;&gt;opresult -->
<g id="edge57" class="edge">
<title>opresultid&#45;&gt;opresult</title>
<path fill="none" stroke="#000000" d="M519.3951,-265.4289C524.0801,-248.8939 530.5541,-226.0444 536.0551,-206.6291"/>
<polygon fill="#000000" stroke="#000000" points="539.4698,-207.4162 538.8284,-196.8408 532.7349,-205.5079 539.4698,-207.4162"/>
</g>
<!-- parseNumber&#45;&gt;vartypes -->
<g id="edge41" class="edge">
<title>parseNumber&#45;&gt;vartypes</title>
<path fill="none" stroke="#ff0000" d="M857.4396,-745.7549C820.485,-703.7281 740.4092,-612.6614 698.9881,-565.5551"/>
<polygon fill="#ff0000" stroke="#ff0000" points="701.4351,-563.0376 692.2033,-557.839 696.1783,-567.66 701.4351,-563.0376"/>
</g>
<!-- cmdline -->
<g id="node5" class="node">
<title>cmdline</title>
<g id="a_node5"><a xlink:href="cmdline.md" xlink:title="cmdline.md">
<polygon fill="#98fb98" stroke="#000000" points="3278.3352,-525.8581 3278.3352,-546.1419 3236.548,-560.4846 3177.452,-560.4846 3135.6648,-546.1419 3135.6648,-525.8581 3177.452,-511.5154 3236.548,-511.5154 3278.3352,-525.8581"/>
<polygon fill="none" stroke="#000000" points="3282.3307,-523.0021 3282.3307,-548.9979 3237.2141,-564.4835 3176.7859,-564.4835 3131.6693,-548.9979 3131.6693,-523.0021 3176.7859,-507.5165 3237.2141,-507.5165 3282.3307,-523.0021"/>
<text text-anchor="middle" x="3207" y="-528.8" font-family="Times,serif" font-size="24.00" fill="#000000">cmdline</text>
</a>
</g>
</g>
<!-- parseCmdLine -->
<g id="node6" class="node">
<title>parseCmdLine</title>
<g id="a_node6"><a xlink:href="parseCmdLine.md" xlink:title="parseCmdLine.md">
<ellipse fill="#eee8aa" stroke="#000000" cx="1657" cy="-656" rx="111.4463" ry="22.7556"/>
<text text-anchor="middle" x="1657" y="-648.8" font-family="Times,serif" font-size="24.00" fill="#000000">parseCmdLine</text>
</a>
</g>
</g>
<!-- parseCmdLine&#45;&gt;regexes -->
<g id="edge25" class="edge">
<title>parseCmdLine&#45;&gt;regexes</title>
<path fill="none" stroke="#000000" d="M1617.1838,-634.8557C1533.0785,-590.1916 1337.3179,-486.2331 1242.8555,-436.0689"/>
<polygon fill="#000000" stroke="#000000" points="1244.2371,-432.8397 1233.7637,-431.2407 1240.954,-439.022 1244.2371,-432.8397"/>
</g>
<!-- parseCmdLine&#45;&gt;warnings -->
<g id="edge28" class="edge">
<title>parseCmdLine&#45;&gt;warnings</title>
<path fill="none" stroke="#000000" d="M1660.0756,-633.3578C1670.9533,-554.4864 1708.1765,-295.0037 1731,-265.3726 1763.7967,-222.7937 1819.8856,-197.9044 1864.9596,-183.9636"/>
<polygon fill="#000000" stroke="#000000" points="1866.1031,-187.2751 1874.69,-181.0691 1864.1072,-180.5657 1866.1031,-187.2751"/>
</g>
<!-- parseCmdLine&#45;&gt;opresultwarn -->
<g id="edge29" class="edge">
<title>parseCmdLine&#45;&gt;opresultwarn</title>
<path fill="none" stroke="#000000" d="M1640.3295,-633.2634C1603.5008,-583.8655 1511.0652,-464.3711 1418,-379.5083 1391.5229,-355.3647 1358.5734,-331.9381 1332.7357,-314.8324"/>
<polygon fill="#000000" stroke="#000000" points="1334.5481,-311.8356 1324.2656,-309.2818 1330.7113,-317.6904 1334.5481,-311.8356"/>
</g>
<!-- parseCmdLine&#45;&gt;messages -->
<g id="edge26" class="edge">
<title>parseCmdLine&#45;&gt;messages</title>
<path fill="none" stroke="#000000" d="M1654.5063,-633.361C1648.6715,-570.1756 1639.6595,-388.4859 1712,-265.3726 1770.0281,-166.617 1890.0523,-99.5867 1964.9129,-65.4382"/>
<polygon fill="#000000" stroke="#000000" points="1966.5751,-68.5285 1974.262,-61.2372 1963.706,-62.1435 1966.5751,-68.5285"/>
</g>
<!-- parseCmdLine&#45;&gt;matches -->
<g id="edge27" class="edge">
<title>parseCmdLine&#45;&gt;matches</title>
<path fill="none" stroke="#000000" d="M1690.1399,-634.2689C1721.2469,-613.8709 1767.7986,-583.3452 1800.751,-561.737"/>
<polygon fill="#000000" stroke="#000000" points="1802.7953,-564.5819 1809.2385,-556.1715 1798.9568,-558.7282 1802.7953,-564.5819"/>
</g>
<!-- env -->
<g id="node7" class="node">
<title>env</title>
<g id="a_node7"><a xlink:href="env.md" xlink:title="env.md">
<ellipse fill="#eee8aa" stroke="#000000" cx="2662" cy="-656" rx="35.6342" ry="22.7556"/>
<text text-anchor="middle" x="2662" y="-648.8" font-family="Times,serif" font-size="24.00" fill="#000000">env</text>
</a>
</g>
</g>
<!-- tempFile -->
<g id="node11" class="node">
<title>tempFile</title>
<g id="a_node11"><a xlink:href="tempFile.md" xlink:title="tempFile.md">
<polygon fill="#98fb98" stroke="#000000" points="2426.598,-525.8581 2426.598,-546.1419 2381.1421,-560.4846 2316.8579,-560.4846 2271.402,-546.1419 2271.402,-525.8581 2316.8579,-511.5154 2381.1421,-511.5154 2426.598,-525.8581"/>
<polygon fill="none" stroke="#000000" points="2430.6004,-522.9275 2430.6004,-549.0725 2381.7591,-564.4835 2316.2409,-564.4835 2267.3996,-549.0725 2267.3996,-522.9275 2316.2409,-507.5165 2381.7591,-507.5165 2430.6004,-522.9275"/>
<text text-anchor="middle" x="2349" y="-528.8" font-family="Times,serif" font-size="24.00" fill="#000000">tempFile</text>
</a>
</g>
</g>
<!-- env&#45;&gt;tempFile -->
<g id="edge17" class="edge">
<title>env&#45;&gt;tempFile</title>
<path fill="none" stroke="#000000" d="M2631.1317,-644.1655C2581.005,-624.9476 2480.8292,-586.5416 2414.3457,-561.0527"/>
<polygon fill="#000000" stroke="#000000" points="2415.3813,-557.7014 2404.7911,-557.3895 2412.8754,-564.2375 2415.3813,-557.7014"/>
</g>
<!-- readlines -->
<g id="node15" class="node">
<title>readlines</title>
<g id="a_node15"><a xlink:href="readlines.md" xlink:title="readlines.md">
<polygon fill="#98fb98" stroke="#000000" points="2609.5894,-525.8581 2609.5894,-546.1419 2563.5528,-560.4846 2498.4472,-560.4846 2452.4106,-546.1419 2452.4106,-525.8581 2498.4472,-511.5154 2563.5528,-511.5154 2609.5894,-525.8581"/>
<polygon fill="none" stroke="#000000" points="2613.5916,-522.9163 2613.5916,-549.0837 2564.1623,-564.4835 2497.8377,-564.4835 2448.4084,-549.0837 2448.4084,-522.9163 2497.8377,-507.5165 2564.1623,-507.5165 2613.5916,-522.9163"/>
<text text-anchor="middle" x="2531" y="-528.8" font-family="Times,serif" font-size="24.00" fill="#000000">readlines</text>
</a>
</g>
</g>
<!-- env&#45;&gt;readlines -->
<g id="edge21" class="edge">
<title>env&#45;&gt;readlines</title>
<path fill="none" stroke="#000000" d="M2641.5313,-637.25C2622.376,-619.7032 2593.2618,-593.0337 2569.7218,-571.4704"/>
<polygon fill="#000000" stroke="#000000" points="2572.0326,-568.8406 2562.2945,-564.6667 2567.3043,-574.0023 2572.0326,-568.8406"/>
</g>
<!-- env&#45;&gt;warnings -->
<g id="edge19" class="edge">
<title>env&#45;&gt;warnings</title>
<path fill="none" stroke="#000000" d="M2697.2782,-650.978C2743.22,-642.3368 2821.8039,-619.8871 2857,-564.4917 2924.4069,-458.3995 2723.9768,-387.4949 2709,-379.5083 2474.0299,-254.2059 2158.3935,-198.0996 2013.5818,-177.717"/>
<polygon fill="#000000" stroke="#000000" points="2013.8404,-174.2194 2003.454,-176.3107 2012.8776,-181.1529 2013.8404,-174.2194"/>
</g>
<!-- args -->
<g id="node25" class="node">
<title>args</title>
<g id="a_node25"><a xlink:href="args.md" xlink:title="args.md">
<ellipse fill="#eee8aa" stroke="#000000" cx="2661" cy="-408" rx="39.0784" ry="22.7556"/>
<text text-anchor="middle" x="2661" y="-400.8" font-family="Times,serif" font-size="24.00" fill="#000000">args</text>
</a>
</g>
</g>
<!-- env&#45;&gt;args -->
<g id="edge20" class="edge">
<title>env&#45;&gt;args</title>
<path fill="none" stroke="#000000" d="M2661.9077,-633.1133C2661.7299,-589.0056 2661.339,-492.0843 2661.1331,-441.0008"/>
<polygon fill="#000000" stroke="#000000" points="2664.6325,-440.8172 2661.0921,-430.8314 2657.6325,-440.8455 2664.6325,-440.8172"/>
</g>
<!-- env&#45;&gt;messages -->
<g id="edge18" class="edge">
<title>env&#45;&gt;messages</title>
<path fill="none" stroke="#000000" d="M2696.7624,-649.751C2788.1221,-631.1253 3028,-567.0747 3028,-408 3028,-408 3028,-408 3028,-288 3028,-103.2796 2376.2255,-54.4998 2126.1188,-42.5815"/>
<polygon fill="#000000" stroke="#000000" points="2126.1051,-39.0771 2115.9527,-42.1068 2125.7785,-46.0695 2126.1051,-39.0771"/>
</g>
<!-- startingvars -->
<g id="node8" class="node">
<title>startingvars</title>
<g id="a_node8"><a xlink:href="startingvars.md" xlink:title="startingvars.md">
<ellipse fill="#eee8aa" stroke="#000000" cx="1947" cy="-1216" rx="90.4807" ry="22.7556"/>
<text text-anchor="middle" x="1947" y="-1208.8" font-family="Times,serif" font-size="24.00" fill="#000000">startingvars</text>
</a>
</g>
</g>
<!-- startingvars&#45;&gt;runFunction -->
<g id="edge111" class="edge">
<title>startingvars&#45;&gt;runFunction</title>
<path fill="none" stroke="#000000" d="M1883.4875,-1199.845C1823.8043,-1183.8832 1732.4735,-1157.4349 1656,-1126.6274 1487.1513,-1058.6065 1297.4407,-954.1057 1212.8652,-905.9444"/>
<polygon fill="#000000" stroke="#000000" points="1214.4646,-902.8273 1204.0449,-900.9087 1210.9939,-908.9063 1214.4646,-902.8273"/>
</g>
<!-- startingvars&#45;&gt;env -->
<g id="edge96" class="edge">
<title>startingvars&#45;&gt;env</title>
<path fill="none" stroke="#000000" d="M1986.9963,-1195.4919C2018.348,-1178.6811 2062.4646,-1153.3732 2098,-1126.6274 2121.4261,-1108.9958 2120.4787,-1095.8058 2146,-1081.3726 2241.6257,-1027.2926 2292.8607,-1075.9671 2384,-1014.6274 2514.7668,-926.6171 2610.9482,-757.1007 2646.7233,-687.253"/>
<polygon fill="#000000" stroke="#000000" points="2649.9742,-688.5803 2651.3677,-678.0775 2643.7287,-685.4189 2649.9742,-688.5803"/>
</g>
<!-- variables -->
<g id="node10" class="node">
<title>variables</title>
<g id="a_node10"><a xlink:href="variables.md" xlink:title="variables.md">
<ellipse fill="#eee8aa" stroke="#000000" cx="2087" cy="-656" rx="72.6337" ry="22.7556"/>
<text text-anchor="middle" x="2087" y="-648.8" font-family="Times,serif" font-size="24.00" fill="#000000">variables</text>
</a>
</g>
</g>
<!-- startingvars&#45;&gt;variables -->
<g id="edge97" class="edge">
<title>startingvars&#45;&gt;variables</title>
<path fill="none" stroke="#000000" d="M1958.1739,-1193.413C1976.7584,-1153.7 2012,-1068.3295 2012,-992 2012,-992 2012,-992 2012,-880 2012,-819.2223 2015.3031,-802.5178 2036,-745.3726 2043.3915,-724.9644 2055.2548,-703.7965 2065.6802,-687.187"/>
<polygon fill="#000000" stroke="#000000" points="2068.8251,-688.7672 2071.2867,-678.4623 2062.9361,-684.983 2068.8251,-688.7672"/>
</g>
<!-- startingvars&#45;&gt;vartypes -->
<g id="edge98" class="edge">
<title>startingvars&#45;&gt;vartypes</title>
<path fill="none" stroke="#000000" d="M1858.566,-1210.8507C1659.5132,-1198.7062 1181.4741,-1166.2905 1025,-1126.6274 901.055,-1095.2098 873.3714,-1073.7575 760,-1014.6274 739.2815,-1003.8215 418.8357,-808.6808 404,-790.6274 357.9974,-734.6475 318.0703,-691.7424 361,-633.3726 389.7123,-594.3336 519.0044,-564.0416 601.8779,-548.2034"/>
<polygon fill="#000000" stroke="#000000" points="602.5656,-551.6355 611.7444,-546.344 601.2692,-544.7566 602.5656,-551.6355"/>
</g>
<!-- codefile -->
<g id="node13" class="node">
<title>codefile</title>
<g id="a_node13"><a xlink:href="codefile.md" xlink:title="codefile.md">
<ellipse fill="#eee8aa" stroke="#000000" cx="1837" cy="-1104" rx="65.069" ry="22.7556"/>
<text text-anchor="middle" x="1837" y="-1096.8" font-family="Times,serif" font-size="24.00" fill="#000000">codefile</text>
</a>
</g>
</g>
<!-- startingvars&#45;&gt;codefile -->
<g id="edge110" class="edge">
<title>startingvars&#45;&gt;codefile</title>
<path fill="none" stroke="#000000" d="M1925.2675,-1193.8724C1908.1324,-1176.4257 1884.0966,-1151.9529 1865.4328,-1132.9498"/>
<polygon fill="#000000" stroke="#000000" points="1867.8172,-1130.3826 1858.313,-1125.7005 1862.8231,-1135.2875 1867.8172,-1130.3826"/>
</g>
<!-- startingvars&#45;&gt;args -->
<g id="edge94" class="edge">
<title>startingvars&#45;&gt;args</title>
<path fill="none" stroke="#000000" d="M1969.6117,-1194.0656C2043.7205,-1121.5679 2276.614,-888.7035 2313,-790.6274 2357.5861,-670.4484 2178.968,-608.4283 2258,-507.5083 2301.514,-451.943 2514.3454,-423.1541 2611.9363,-412.6948"/>
<polygon fill="#000000" stroke="#000000" points="2612.5516,-416.1495 2622.1313,-411.6241 2611.8204,-409.1878 2612.5516,-416.1495"/>
</g>
<!-- startingvars&#45;&gt;opresultwarn -->
<g id="edge100" class="edge">
<title>startingvars&#45;&gt;opresultwarn</title>
<path fill="none" stroke="#000000" d="M1889.8459,-1198.3429C1850.5703,-1183.9637 1799.1843,-1160.4655 1763,-1126.6274 1484.6175,-866.2951 1528.2042,-712.0706 1342,-379.5083 1330.7492,-359.4142 1317.973,-336.9264 1307.9001,-319.272"/>
<polygon fill="#000000" stroke="#000000" points="1310.8999,-317.4669 1302.9015,-310.5187 1304.8212,-320.9382 1310.8999,-317.4669"/>
</g>
<!-- startingvars&#45;&gt;messages -->
<g id="edge95" class="edge">
<title>startingvars&#45;&gt;messages</title>
<path fill="none" stroke="#000000" d="M2007.9129,-1199.2304C2281.805,-1122.9867 3386,-806.2908 3386,-656 3386,-656 3386,-656 3386,-288 3386,-267.359 3392.9486,-215.2352 3197,-139.5083 3002.2903,-64.2601 2369.3387,-45.0631 2126.2729,-40.4108"/>
<polygon fill="#000000" stroke="#000000" points="2126.1066,-36.9072 2116.0428,-40.2192 2125.9755,-43.9059 2126.1066,-36.9072"/>
</g>
<!-- readjson -->
<g id="node30" class="node">
<title>readjson</title>
<g id="a_node30"><a xlink:href="readjson.md" xlink:title="readjson.md">
<ellipse fill="#eee8aa" stroke="#000000" cx="497" cy="-768" rx="68.6102" ry="22.7556"/>
<text text-anchor="middle" x="497" y="-760.8" font-family="Times,serif" font-size="24.00" fill="#000000">readjson</text>
</a>
</g>
</g>
<!-- startingvars&#45;&gt;readjson -->
<g id="edge99" class="edge">
<title>startingvars&#45;&gt;readjson</title>
<path fill="none" stroke="#000000" d="M1862.8191,-1207.4353C1632.1936,-1182.985 994.9591,-1108.5355 808,-1014.6274 781.7996,-1001.4672 782.3358,-988.3665 760,-969.3726 682.398,-903.3815 586.2668,-832.2996 534.4041,-794.7681"/>
<polygon fill="#000000" stroke="#000000" points="536.3212,-791.8353 526.1649,-788.8185 532.2232,-797.5104 536.3212,-791.8353"/>
</g>
<!-- unicodes&#45;&gt;opresultid -->
<g id="edge58" class="edge">
<title>unicodes&#45;&gt;opresultid</title>
<path fill="none" stroke="#000000" d="M446.3878,-633.2577C458.4907,-570.5272 492.3884,-394.8317 506.6014,-321.1644"/>
<polygon fill="#000000" stroke="#000000" points="510.0928,-321.5434 508.5507,-311.0614 503.2195,-320.2172 510.0928,-321.5434"/>
</g>
<!-- unicodes&#45;&gt;vartypes -->
<g id="edge62" class="edge">
<title>unicodes&#45;&gt;vartypes</title>
<path fill="none" stroke="#000000" d="M479.3709,-636.5866C519.6645,-615.6548 583.8403,-582.3167 627.1549,-559.8157"/>
<polygon fill="#000000" stroke="#000000" points="628.8044,-562.9029 636.065,-555.187 625.5774,-556.6911 628.8044,-562.9029"/>
</g>
<!-- utf8decoder -->
<g id="node17" class="node">
<title>utf8decoder</title>
<g id="a_node17"><a xlink:href="utf8decoder.md" xlink:title="utf8decoder.md">
<polygon fill="#98fb98" stroke="#000000" points="1001.9296,-525.8581 1001.9296,-546.1419 943.3922,-560.4846 860.6078,-560.4846 802.0704,-546.1419 802.0704,-525.8581 860.6078,-511.5154 943.3922,-511.5154 1001.9296,-525.8581"/>
<polygon fill="none" stroke="#000000" points="1005.9282,-522.7208 1005.9282,-549.2792 943.8749,-564.4835 860.1251,-564.4835 798.0718,-549.2792 798.0718,-522.7208 860.1251,-507.5165 943.8749,-507.5165 1005.9282,-522.7208"/>
<text text-anchor="middle" x="902" y="-528.8" font-family="Times,serif" font-size="24.00" fill="#000000">utf8decoder</text>
</a>
</g>
</g>
<!-- unicodes&#45;&gt;utf8decoder -->
<g id="edge61" class="edge">
<title>unicodes&#45;&gt;utf8decoder</title>
<path fill="none" stroke="#000000" d="M497.4867,-641.5252C576.5322,-620.9047 722.2903,-582.8808 815.5623,-558.549"/>
<polygon fill="#000000" stroke="#000000" points="816.4696,-561.9295 825.2623,-556.0185 814.7026,-555.1562 816.4696,-561.9295"/>
</g>
<!-- unicodes&#45;&gt;opresultwarn -->
<g id="edge59" class="edge">
<title>unicodes&#45;&gt;opresultwarn</title>
<path fill="none" stroke="#000000" d="M456.8092,-633.6987C495.0292,-578.3655 603.2724,-435.2333 735,-379.5083 815.1202,-345.6149 1052.5409,-314.5752 1189.5044,-298.8339"/>
<polygon fill="#000000" stroke="#000000" points="1190.0562,-302.2937 1199.5942,-297.681 1189.2614,-295.339 1190.0562,-302.2937"/>
</g>
<!-- unicodes&#45;&gt;messages -->
<g id="edge60" class="edge">
<title>unicodes&#45;&gt;messages</title>
<path fill="none" stroke="#000000" d="M436.4539,-633.2523C426.3556,-589.7757 406,-491.7506 406,-408 406,-408 406,-408 406,-288 406,-219.6512 393.0917,-182.7781 446,-139.5083 503.8095,-92.23 1599.9076,-52.9403 1934.0942,-42.0204"/>
<polygon fill="#000000" stroke="#000000" points="1934.3527,-45.5139 1944.2335,-41.6901 1934.1248,-38.5176 1934.3527,-45.5139"/>
</g>
<!-- variables&#45;&gt;vartypes -->
<g id="edge43" class="edge">
<title>variables&#45;&gt;vartypes</title>
<path fill="none" stroke="#000000" d="M2016.21,-650.767C1953.3801,-646.1382 1859.0843,-639.2297 1777,-633.3726 1337.9393,-602.0437 1223.8844,-632.5453 789,-564.4917 771.3594,-561.7312 752.4631,-557.6046 735.1512,-553.3431"/>
<polygon fill="#000000" stroke="#000000" points="735.7148,-549.8758 725.1628,-550.8277 734.0053,-556.6639 735.7148,-549.8758"/>
</g>
<!-- variables&#45;&gt;warnings -->
<g id="edge46" class="edge">
<title>variables&#45;&gt;warnings</title>
<path fill="none" stroke="#000000" d="M2079.9736,-633.4415C2055.4651,-554.7564 1973.6982,-292.2417 1945.0333,-200.2123"/>
<polygon fill="#000000" stroke="#000000" points="1948.3549,-199.1066 1942.0393,-190.5999 1941.6716,-201.1883 1948.3549,-199.1066"/>
</g>
<!-- variables&#45;&gt;args -->
<g id="edge47" class="edge">
<title>variables&#45;&gt;args</title>
<path fill="none" stroke="#000000" d="M2101.2012,-633.7011C2123.4283,-600.7251 2169.6683,-539.4243 2225,-507.5083 2351.2183,-434.704 2526.6954,-415.1661 2611.3752,-409.923"/>
<polygon fill="#000000" stroke="#000000" points="2611.7055,-413.4098 2621.4869,-409.3387 2611.3016,-406.4215 2611.7055,-413.4098"/>
</g>
<!-- variables&#45;&gt;opresultwarn -->
<g id="edge48" class="edge">
<title>variables&#45;&gt;opresultwarn</title>
<path fill="none" stroke="#000000" d="M2067.1667,-634.1716C2037.2092,-602.3521 1977.3707,-543.1505 1916,-507.5083 1734.9178,-402.3411 1495.27,-335.8311 1371.5997,-306.1184"/>
<polygon fill="#000000" stroke="#000000" points="1372.3499,-302.6992 1361.8109,-303.7853 1370.727,-309.5085 1372.3499,-302.6992"/>
</g>
<!-- variables&#45;&gt;messages -->
<g id="edge45" class="edge">
<title>variables&#45;&gt;messages</title>
<path fill="none" stroke="#000000" d="M2084.9037,-633.3089C2076.402,-541.2815 2044.4318,-195.2182 2033.6081,-78.0561"/>
<polygon fill="#000000" stroke="#000000" points="2037.0627,-77.4028 2032.6576,-67.7672 2030.0924,-78.0468 2037.0627,-77.4028"/>
</g>
<!-- version -->
<g id="node29" class="node">
<title>version</title>
<g id="a_node29"><a xlink:href="version.md" xlink:title="version.md">
<polygon fill="#98fb98" stroke="#000000" points="2844.1523,-525.8581 2844.1523,-546.1419 2805.4012,-560.4846 2750.5988,-560.4846 2711.8477,-546.1419 2711.8477,-525.8581 2750.5988,-511.5154 2805.4012,-511.5154 2844.1523,-525.8581"/>
<polygon fill="none" stroke="#000000" points="2848.1421,-523.0721 2848.1421,-548.9279 2806.1143,-564.4835 2749.8857,-564.4835 2707.8579,-548.9279 2707.8579,-523.0721 2749.8857,-507.5165 2806.1143,-507.5165 2848.1421,-523.0721"/>
<text text-anchor="middle" x="2778" y="-528.8" font-family="Times,serif" font-size="24.00" fill="#000000">version</text>
</a>
</g>
</g>
<!-- variables&#45;&gt;version -->
<g id="edge44" class="edge">
<title>variables&#45;&gt;version</title>
<path fill="none" stroke="#000000" d="M2151.4009,-645.2766C2252.0909,-628.4494 2452.8963,-594.6449 2623,-564.4917 2647.2802,-560.1877 2673.6753,-555.3829 2697.687,-550.9634"/>
<polygon fill="#000000" stroke="#000000" points="2698.619,-554.3506 2707.8187,-549.0955 2697.3498,-547.4666 2698.619,-554.3506"/>
</g>
<!-- vartypes&#45;&gt;warnings -->
<g id="edge36" class="edge">
<title>vartypes&#45;&gt;warnings</title>
<path fill="none" stroke="#000000" d="M696.7357,-514.562C733.8295,-481.9211 808.7938,-419.3567 881,-379.5083 1005.8996,-310.58 1042.6374,-300.1114 1181,-265.3726 1420.1667,-205.3248 1711.8222,-181.0617 1851.979,-172.3336"/>
<polygon fill="#000000" stroke="#000000" points="1852.446,-175.8117 1862.2134,-171.7072 1852.0183,-168.8248 1852.446,-175.8117"/>
</g>
<!-- vartypes&#45;&gt;opresultwarn -->
<g id="edge37" class="edge">
<title>vartypes&#45;&gt;opresultwarn</title>
<path fill="none" stroke="#000000" d="M711.5037,-517.1535C774.9822,-486.4202 905.9394,-424.4347 1020,-379.5083 1087.444,-352.9433 1166.0885,-326.8236 1221.0439,-309.3344"/>
<polygon fill="#000000" stroke="#000000" points="1222.2046,-312.6381 1230.6789,-306.2792 1220.0887,-305.9655 1222.2046,-312.6381"/>
</g>
<!-- vartypes&#45;&gt;messages -->
<g id="edge35" class="edge">
<title>vartypes&#45;&gt;messages</title>
<path fill="none" stroke="#000000" d="M685.2459,-513.7021C704.2423,-480.7826 743.6053,-418.8386 791,-379.5083 878.8172,-306.6334 915.0357,-307.7303 1021,-265.3726 1196.8148,-195.0931 1243.7611,-183.1669 1428,-139.5083 1604.5765,-97.6653 1814.3157,-66.8258 1933.8236,-50.9936"/>
<polygon fill="#000000" stroke="#000000" points="1934.5829,-54.4239 1944.0401,-49.6476 1933.6685,-47.4838 1934.5829,-54.4239"/>
</g>
<!-- codefile&#45;&gt;env -->
<g id="edge101" class="edge">
<title>codefile&#45;&gt;env</title>
<path fill="none" stroke="#000000" d="M1876.0991,-1085.877C1973.6324,-1040.2096 2234.6696,-915.1506 2441,-790.6274 2471.7654,-772.0601 2477.5536,-764.4587 2508,-745.3726 2547.81,-720.4167 2594.635,-693.5894 2626.1111,-675.9105"/>
<polygon fill="#000000" stroke="#000000" points="2627.9478,-678.8935 2634.9622,-670.9531 2624.5271,-672.7861 2627.9478,-678.8935"/>
</g>
<!-- codefile&#45;&gt;variables -->
<g id="edge106" class="edge">
<title>codefile&#45;&gt;variables</title>
<path fill="none" stroke="#000000" d="M1836.2989,-1081.1711C1835.5962,-1020.1074 1841.4676,-850.5303 1922,-745.3726 1947.6194,-711.9192 1989.4693,-689.4561 2024.6097,-675.4172"/>
<polygon fill="#000000" stroke="#000000" points="2026.2484,-678.5369 2034.3241,-671.6788 2023.7343,-672.0039 2026.2484,-678.5369"/>
</g>
<!-- codefile&#45;&gt;vartypes -->
<g id="edge107" class="edge">
<title>codefile&#45;&gt;vartypes</title>
<path fill="none" stroke="#000000" d="M1773.0333,-1099.6464C1611.1491,-1088.1581 1188.539,-1055.1086 1054,-1014.6274 948.9337,-983.0142 919.1498,-971.8216 834,-902.6274 745.3536,-830.5918 739.1074,-788.5348 708,-678.6274 697.4252,-641.2649 687.0454,-597.8787 680.3712,-568.8592"/>
<polygon fill="#000000" stroke="#000000" points="683.7252,-567.8251 678.0864,-558.8555 676.9009,-569.3838 683.7252,-567.8251"/>
</g>
<!-- codefile&#45;&gt;readlines -->
<g id="edge104" class="edge">
<title>codefile&#45;&gt;readlines</title>
<path fill="none" stroke="#000000" d="M1863.1494,-1083.1783C1898.2702,-1055.6361 1963.0897,-1006.2746 2022,-969.3726 2093.5075,-924.5795 2289.208,-840.8668 2357,-790.6274 2413.5583,-748.7131 2429.3833,-736.8183 2469,-678.6274 2491.1837,-646.043 2508.2296,-604.2362 2518.7828,-574.3237"/>
<polygon fill="#000000" stroke="#000000" points="2522.1619,-575.2607 2522.1109,-564.666 2515.5438,-572.9801 2522.1619,-575.2607"/>
</g>
<!-- codefile&#45;&gt;utf8decoder -->
<g id="edge109" class="edge">
<title>codefile&#45;&gt;utf8decoder</title>
<path fill="none" stroke="#000000" d="M1804.2808,-1084.3051C1775.0694,-1066.5439 1731.2701,-1039.4733 1694,-1014.6274 1450.4555,-852.2698 1415.1114,-771.4032 1157,-633.3726 1100.9587,-603.4033 1033.6542,-578.1117 982.2663,-560.8213"/>
<polygon fill="#000000" stroke="#000000" points="983.1298,-557.4199 972.5362,-557.5788 980.9167,-564.0609 983.1298,-557.4199"/>
</g>
<!-- codefile&#45;&gt;warnings -->
<g id="edge108" class="edge">
<title>codefile&#45;&gt;warnings</title>
<path fill="none" stroke="#000000" d="M1836.424,-1081.3596C1835.702,-1037.6886 1835.9625,-938.9253 1850,-857.3726 1864.056,-775.7125 1886.4705,-759.823 1903,-678.6274 1939.12,-501.2 1938.0067,-282.5671 1936.0541,-200.8508"/>
<polygon fill="#000000" stroke="#000000" points="1939.5487,-200.5937 1935.7893,-190.6882 1932.551,-200.7761 1939.5487,-200.5937"/>
</g>
<!-- codefile&#45;&gt;opresultwarn -->
<g id="edge103" class="edge">
<title>codefile&#45;&gt;opresultwarn</title>
<path fill="none" stroke="#000000" d="M1819.9996,-1082.1034C1772.4752,-1020.4443 1635.2906,-839.3762 1537,-678.6274 1458.6767,-550.534 1468.4816,-500.8074 1380,-379.5083 1363.339,-356.6677 1341.0863,-333.9903 1322.8768,-316.9245"/>
<polygon fill="#000000" stroke="#000000" points="1325.0689,-314.1846 1315.3484,-309.97 1320.319,-319.3265 1325.0689,-314.1846"/>
</g>
<!-- codefile&#45;&gt;messages -->
<g id="edge102" class="edge">
<title>codefile&#45;&gt;messages</title>
<path fill="none" stroke="#000000" d="M1892.546,-1091.9352C2151.2735,-1035.2474 3229.8708,-793.3179 3329,-678.6274 3370.8179,-630.245 3348,-599.9499 3348,-536 3348,-536 3348,-536 3348,-288 3348,-258.0943 3385.2944,-228.4209 3108,-139.5083 2926.3223,-81.2545 2354.9023,-52.1872 2126.1064,-42.649"/>
<polygon fill="#000000" stroke="#000000" points="2125.9385,-39.1392 2115.8025,-42.2231 2125.6493,-46.1332 2125.9385,-39.1392"/>
</g>
<!-- runCommand -->
<g id="node35" class="node">
<title>runCommand</title>
<g id="a_node35"><a xlink:href="runCommand.md" xlink:title="runCommand.md">
<ellipse fill="#eee8aa" stroke="#000000" cx="1168" cy="-992" rx="104.7872" ry="22.7556"/>
<text text-anchor="middle" x="1168" y="-984.8" font-family="Times,serif" font-size="24.00" fill="#000000">runCommand</text>
</a>
</g>
</g>
<!-- codefile&#45;&gt;runCommand -->
<g id="edge105" class="edge">
<title>codefile&#45;&gt;runCommand</title>
<path fill="none" stroke="#000000" d="M1778.217,-1094.1589C1661.8028,-1074.6695 1401.1088,-1031.0257 1261.1101,-1007.5879"/>
<polygon fill="#000000" stroke="#000000" points="1261.2712,-1004.0663 1250.8305,-1005.867 1260.1154,-1010.9702 1261.2712,-1004.0663"/>
</g>
<!-- replacement&#45;&gt;parseCmdLine -->
<g id="edge69" class="edge">
<title>replacement&#45;&gt;parseCmdLine</title>
<path fill="none" stroke="#000000" d="M2137.7049,-753.358C2037.0606,-732.9743 1854.8605,-696.073 1745.9926,-674.0238"/>
<polygon fill="#000000" stroke="#000000" points="1746.5114,-670.5579 1736.0156,-672.0032 1745.1218,-677.4186 1746.5114,-670.5579"/>
</g>
<!-- replacement&#45;&gt;env -->
<g id="edge67" class="edge">
<title>replacement&#45;&gt;env</title>
<path fill="none" stroke="#000000" d="M2275.7247,-751.7142C2369.3376,-728.5181 2538.5389,-686.5921 2618.2367,-666.844"/>
<polygon fill="#000000" stroke="#000000" points="2619.5506,-670.1244 2628.4152,-664.3219 2617.867,-663.3298 2619.5506,-670.1244"/>
</g>
<!-- replacement&#45;&gt;variables -->
<g id="edge73" class="edge">
<title>replacement&#45;&gt;variables</title>
<path fill="none" stroke="#000000" d="M2185.6992,-745.8724C2166.3694,-728.2713 2139.1863,-703.5192 2118.2404,-684.4466"/>
<polygon fill="#000000" stroke="#000000" points="2120.5823,-681.8454 2110.8318,-677.7005 2115.8694,-687.0212 2120.5823,-681.8454"/>
</g>
<!-- replacement&#45;&gt;tempFile -->
<g id="edge74" class="edge">
<title>replacement&#45;&gt;tempFile</title>
<path fill="none" stroke="#000000" d="M2245.2468,-746.9469C2268.7945,-731.0674 2298.5448,-707.1721 2316,-678.6274 2335.3925,-646.9146 2343.3978,-604.8844 2346.6975,-574.6767"/>
<polygon fill="#000000" stroke="#000000" points="2350.2007,-574.8116 2347.6793,-564.5212 2343.2332,-574.1379 2350.2007,-574.8116"/>
</g>
<!-- replacement&#45;&gt;vartypes -->
<g id="edge68" class="edge">
<title>replacement&#45;&gt;vartypes</title>
<path fill="none" stroke="#000000" d="M2123.3513,-758.8862C1900.6188,-734.7476 1290.4081,-664.1163 789,-564.4917 771.9121,-561.0966 753.547,-556.8613 736.5832,-552.7031"/>
<polygon fill="#000000" stroke="#000000" points="737.3259,-549.2813 726.7774,-550.2705 735.6405,-556.0754 737.3259,-549.2813"/>
</g>
<!-- replacement&#45;&gt;readlines -->
<g id="edge70" class="edge">
<title>replacement&#45;&gt;readlines</title>
<path fill="none" stroke="#000000" d="M2241.4829,-746.6157C2267.7278,-728.6873 2306.0165,-702.2942 2339,-678.6274 2389.8121,-642.168 2447.2915,-599.2421 2486.0062,-570.0777"/>
<polygon fill="#000000" stroke="#000000" points="2488.5799,-572.5207 2494.4573,-563.7055 2484.3655,-566.9314 2488.5799,-572.5207"/>
</g>
<!-- replacement&#45;&gt;warnings -->
<g id="edge76" class="edge">
<title>replacement&#45;&gt;warnings</title>
<path fill="none" stroke="#000000" d="M2215.8428,-745.1241C2221.7698,-717.9418 2228.6758,-671.475 2218,-633.3726 2204.4086,-584.8644 2017.3511,-294.6528 1955.0356,-198.7431"/>
<polygon fill="#000000" stroke="#000000" points="1957.9586,-196.8177 1949.5732,-190.3419 1952.09,-200.6335 1957.9586,-196.8177"/>
</g>
<!-- replacement&#45;&gt;opresultwarn -->
<g id="edge75" class="edge">
<title>replacement&#45;&gt;opresultwarn</title>
<path fill="none" stroke="#000000" d="M2213.6863,-744.9052C2216.9871,-716.2456 2218.3501,-667.0488 2196,-633.3726 2061.6796,-430.9841 1941.0507,-460.3713 1712,-379.5083 1602.8626,-340.9789 1471.8801,-315.6402 1385.0942,-301.5954"/>
<polygon fill="#000000" stroke="#000000" points="1385.4249,-298.1039 1374.9976,-299.9801 1384.3191,-305.016 1385.4249,-298.1039"/>
</g>
<!-- replacement&#45;&gt;messages -->
<g id="edge72" class="edge">
<title>replacement&#45;&gt;messages</title>
<path fill="none" stroke="#000000" d="M2217.9049,-745.1897C2223.6581,-727.3275 2230.953,-701.7227 2234,-678.6274 2236.6308,-658.687 2235.4609,-653.4327 2234,-633.3726 2226.6472,-532.4063 2201,-509.2337 2201,-408 2201,-408 2201,-408 2201,-288 2201,-198.6477 2125.2509,-117.9336 2074.5846,-73.9402"/>
<polygon fill="#000000" stroke="#000000" points="2076.5629,-71.0273 2066.6838,-67.1992 2072.0194,-76.3524 2076.5629,-71.0273"/>
</g>
<!-- replacement&#45;&gt;matches -->
<g id="edge71" class="edge">
<title>replacement&#45;&gt;matches</title>
<path fill="none" stroke="#000000" d="M2209.3996,-745.1398C2207.3668,-715.341 2199.3526,-663.4873 2169,-633.3726 2132.3414,-597.0013 1994.4221,-565.2312 1909.2228,-548.5137"/>
<polygon fill="#000000" stroke="#000000" points="1909.8439,-545.069 1899.3601,-546.5994 1908.51,-551.9408 1909.8439,-545.069"/>
</g>
<!-- updateTemplate -->
<g id="node16" class="node">
<title>updateTemplate</title>
<g id="a_node16"><a xlink:href="updateTemplate.md" xlink:title="updateTemplate.md">
<ellipse fill="#eee8aa" stroke="#000000" cx="2638" cy="-1336" rx="119.3861" ry="22.7556"/>
<text text-anchor="middle" x="2638" y="-1328.8" font-family="Times,serif" font-size="24.00" fill="#000000">updateTemplate</text>
</a>
</g>
</g>
<!-- updateTemplate&#45;&gt;parseCmdLine -->
<g id="edge120" class="edge">
<title>updateTemplate&#45;&gt;parseCmdLine</title>
<path fill="none" stroke="#000000" d="M2592.4731,-1314.8892C2553.7085,-1296.3368 2496.9934,-1267.8137 2450,-1238.6274 2142.013,-1047.3449 1799.694,-772.8097 1691.6204,-684.5067"/>
<polygon fill="#000000" stroke="#000000" points="1693.6112,-681.6133 1683.6555,-677.9892 1689.1782,-687.0308 1693.6112,-681.6133"/>
</g>
<!-- updateTemplate&#45;&gt;env -->
<g id="edge117" class="edge">
<title>updateTemplate&#45;&gt;env</title>
<path fill="none" stroke="#000000" d="M2652.1588,-1313.2486C2663.4951,-1294.0409 2678.948,-1265.4566 2688,-1238.6274 2707.4299,-1181.0391 2712,-1164.7777 2712,-1104 2712,-1104 2712,-1104 2712,-880 2712,-810.0961 2688.5185,-730.8048 2673.7391,-687.8213"/>
<polygon fill="#000000" stroke="#000000" points="2676.98,-686.4863 2670.3689,-678.2071 2670.3741,-688.802 2676.98,-686.4863"/>
</g>
<!-- updateTemplate&#45;&gt;startingvars -->
<g id="edge125" class="edge">
<title>updateTemplate&#45;&gt;startingvars</title>
<path fill="none" stroke="#000000" d="M2562.0896,-1318.4924C2544.6846,-1314.6848 2526.232,-1310.8115 2509,-1307.5083 2342.3588,-1275.5647 2146.5355,-1245.3196 2035.5731,-1228.8551"/>
<polygon fill="#000000" stroke="#000000" points="2035.8373,-1225.3561 2025.4325,-1227.3538 2034.812,-1232.2807 2035.8373,-1225.3561"/>
</g>
<!-- updateTemplate&#45;&gt;variables -->
<g id="edge122" class="edge">
<title>updateTemplate&#45;&gt;variables</title>
<path fill="none" stroke="#000000" d="M2631.2693,-1313.2709C2616.0837,-1265.2583 2575.0785,-1152.1217 2507,-1081.3726 2468.9026,-1041.7808 2135.4784,-837.6157 2107,-790.6274 2088.3209,-759.8076 2084.7998,-717.9265 2085.0054,-689.103"/>
<polygon fill="#000000" stroke="#000000" points="2088.5126,-688.8233 2085.2428,-678.7457 2081.5144,-688.6628 2088.5126,-688.8233"/>
</g>
<!-- updateTemplate&#45;&gt;vartypes -->
<g id="edge123" class="edge">
<title>updateTemplate&#45;&gt;vartypes</title>
<path fill="none" stroke="#000000" d="M2565.3573,-1317.9185C2547.0622,-1313.9281 2527.3937,-1310.1176 2509,-1307.5083 2038.5014,-1240.7626 1903.8846,-1350.3705 1442,-1238.6274 1122.0716,-1161.2276 993.7911,-1154.5985 782,-902.6274 697.6417,-802.2651 678.57,-638.6355 674.2588,-569.0238"/>
<polygon fill="#000000" stroke="#000000" points="677.7338,-568.4739 673.6859,-558.6829 670.7446,-568.8612 677.7338,-568.4739"/>
</g>
<!-- updateTemplate&#45;&gt;replacement -->
<g id="edge124" class="edge">
<title>updateTemplate&#45;&gt;replacement</title>
<path fill="none" stroke="#000000" d="M2625.3521,-1313.4866C2599.5854,-1268.1927 2538.3298,-1163.3794 2478,-1081.3726 2397.336,-971.7253 2288.6447,-852.0742 2238.0642,-797.773"/>
<polygon fill="#000000" stroke="#000000" points="2240.4168,-795.1642 2231.0334,-790.2445 2235.3008,-799.942 2240.4168,-795.1642"/>
</g>
<!-- updateTemplate&#45;&gt;readlines -->
<g id="edge119" class="edge">
<title>updateTemplate&#45;&gt;readlines</title>
<path fill="none" stroke="#000000" d="M2657.9433,-1313.5579C2673.6682,-1294.7591 2695.0391,-1266.5824 2708,-1238.6274 2800.8037,-1038.4619 2815.4548,-959.9214 2764,-745.3726 2750.9741,-691.0593 2745.8058,-673.5437 2707,-633.3726 2676.4879,-601.787 2633.4798,-577.7354 2597.6166,-561.4383"/>
<polygon fill="#000000" stroke="#000000" points="2598.7477,-558.1111 2588.1874,-557.2552 2595.909,-564.5097 2598.7477,-558.1111"/>
</g>
<!-- updateTemplate&#45;&gt;args -->
<g id="edge115" class="edge">
<title>updateTemplate&#45;&gt;args</title>
<path fill="none" stroke="#000000" d="M2662.7644,-1313.5269C2682.6512,-1294.7103 2710.5371,-1266.5245 2731,-1238.6274 2831.8276,-1101.1693 2869.1494,-1066.5358 2916,-902.6274 2943.3998,-806.7681 2925.3324,-778.29 2928,-678.6274 2930.0349,-602.6017 2971.3827,-569.9742 2928,-507.5083 2902.1802,-470.3308 2776.8372,-435.4566 2707.4521,-418.5905"/>
<polygon fill="#000000" stroke="#000000" points="2708.1802,-415.1659 2697.6394,-416.2346 2706.546,-421.9725 2708.1802,-415.1659"/>
</g>
<!-- updateTemplate&#45;&gt;opresultwarn -->
<g id="edge126" class="edge">
<title>updateTemplate&#45;&gt;opresultwarn</title>
<path fill="none" stroke="#000000" d="M2563.9228,-1318.1289C2546.0176,-1314.2282 2526.8859,-1310.4058 2509,-1307.5083 2217.4326,-1260.2745 2120.2602,-1353.1568 1848,-1238.6274 1453.0485,-1072.4864 1322.1184,-469.8037 1295.4914,-321.2606"/>
<polygon fill="#000000" stroke="#000000" points="1298.8623,-320.22 1293.6858,-310.9759 1291.9678,-321.4305 1298.8623,-320.22"/>
</g>
<!-- updateTemplate&#45;&gt;messages -->
<g id="edge116" class="edge">
<title>updateTemplate&#45;&gt;messages</title>
<path fill="none" stroke="#000000" d="M2704.0385,-1317.0624C2899.5706,-1256.5213 3462,-1048.2855 3462,-656 3462,-656 3462,-656 3462,-288 3462,-202.3031 3415.0986,-178.9159 3339,-139.5083 3232.1016,-84.1509 2410.1592,-51.7109 2126.1561,-42.0637"/>
<polygon fill="#000000" stroke="#000000" points="2125.9884,-38.5561 2115.8759,-41.7164 2125.752,-45.5521 2125.9884,-38.5561"/>
</g>
<!-- updateTemplate&#45;&gt;matches -->
<g id="edge118" class="edge">
<title>updateTemplate&#45;&gt;matches</title>
<path fill="none" stroke="#000000" d="M2614.9375,-1313.5911C2538.8309,-1239.5613 2288.9487,-995.8604 2086,-790.6274 2005.9611,-709.6876 1912.9888,-612.6031 1867.6801,-565.0884"/>
<polygon fill="#000000" stroke="#000000" points="1869.9997,-562.4491 1860.5667,-557.6252 1864.9326,-567.2787 1869.9997,-562.4491"/>
</g>
<!-- updateTemplate&#45;&gt;runCommand -->
<g id="edge121" class="edge">
<title>updateTemplate&#45;&gt;runCommand</title>
<path fill="none" stroke="#000000" d="M2565.345,-1318.0041C2547.0502,-1314.0117 2527.3849,-1310.1787 2509,-1307.5083 2082.6079,-1245.5737 1950.0291,-1377.0413 1542,-1238.6274 1400.3154,-1190.5644 1260.388,-1075.4789 1199.5764,-1021.2327"/>
<polygon fill="#000000" stroke="#000000" points="1201.6476,-1018.3883 1191.8709,-1014.3056 1196.9677,-1023.594 1201.6476,-1018.3883"/>
</g>
<!-- warnings&#45;&gt;messages -->
<g id="edge2" class="edge">
<title>warnings&#45;&gt;messages</title>
<path fill="none" stroke="#ff0000" d="M1951.3311,-145.8241C1965.4434,-126.6611 1986.1275,-98.5743 2002.7449,-76.0095"/>
<polygon fill="#ff0000" stroke="#ff0000" points="2005.7808,-77.7894 2008.8925,-67.6618 2000.1443,-73.6385 2005.7808,-77.7894"/>
</g>
<!-- repl -->
<g id="node19" class="node">
<title>repl</title>
<g id="a_node19"><a xlink:href="repl.md" xlink:title="repl.md">
<ellipse fill="#eee8aa" stroke="#000000" cx="852" cy="-1336" rx="37.8963" ry="22.7556"/>
<text text-anchor="middle" x="852" y="-1328.8" font-family="Times,serif" font-size="24.00" fill="#000000">repl</text>
</a>
</g>
</g>
<!-- repl&#45;&gt;regexes -->
<g id="edge141" class="edge">
<title>repl&#45;&gt;regexes</title>
<path fill="none" stroke="#000000" d="M821.8712,-1321.9042C761.6188,-1291.3907 632,-1213.0728 632,-1104 632,-1104 632,-1104 632,-880 632,-835.0859 754.8679,-536.702 789,-507.5083 836.4123,-466.9558 1004.5504,-435.568 1107.4504,-419.6148"/>
<polygon fill="#000000" stroke="#000000" points="1108.1523,-423.0482 1117.5061,-418.0727 1107.0911,-416.1291 1108.1523,-423.0482"/>
</g>
<!-- repl&#45;&gt;env -->
<g id="edge135" class="edge">
<title>repl&#45;&gt;env</title>
<path fill="none" stroke="#000000" d="M889.7984,-1335.635C1079.195,-1333.4411 1925.6897,-1319.2152 2174,-1238.6274 2407.3654,-1162.8899 2516.884,-1128.7878 2612,-902.6274 2642.5475,-829.9937 2654.8699,-737.2889 2659.4848,-688.8468"/>
<polygon fill="#000000" stroke="#000000" points="2662.9925,-688.9169 2660.4041,-678.6432 2656.0208,-688.2887 2662.9925,-688.9169"/>
</g>
<!-- repl&#45;&gt;startingvars -->
<g id="edge139" class="edge">
<title>repl&#45;&gt;startingvars</title>
<path fill="none" stroke="#000000" d="M889.3756,-1331.904C1042.5576,-1315.117 1625.0266,-1251.2848 1853.8813,-1226.2048"/>
<polygon fill="#000000" stroke="#000000" points="1854.2917,-1229.6809 1863.8508,-1225.1122 1853.529,-1222.7225 1854.2917,-1229.6809"/>
</g>
<!-- repl&#45;&gt;variables -->
<g id="edge144" class="edge">
<title>repl&#45;&gt;variables</title>
<path fill="none" stroke="#000000" d="M889.7153,-1333.7286C1060.1618,-1322.7168 1756.8738,-1269.4651 1911,-1126.6274 2039.9958,-1007.0796 1937.693,-902.3503 2017,-745.3726 2027.9981,-723.6033 2044.7204,-701.9965 2059.0629,-685.4819"/>
<polygon fill="#000000" stroke="#000000" points="2061.856,-687.6076 2065.877,-677.8054 2056.6209,-682.9606 2061.856,-687.6076"/>
</g>
<!-- repl&#45;&gt;vartypes -->
<g id="edge136" class="edge">
<title>repl&#45;&gt;vartypes</title>
<path fill="none" stroke="#000000" d="M818.0522,-1326.0091C770.8599,-1311.2268 683.8181,-1280.6764 618,-1238.6274 392.0585,-1094.2811 257.6547,-1055.1642 214,-790.6274 202.6203,-721.669 170.0053,-687.6794 214,-633.3726 261.085,-575.2511 476.8273,-550.4089 595.0156,-541.0094"/>
<polygon fill="#000000" stroke="#000000" points="595.3955,-544.4905 605.0944,-540.2264 594.8533,-537.5115 595.3955,-544.4905"/>
</g>
<!-- repl&#45;&gt;warnings -->
<g id="edge134" class="edge">
<title>repl&#45;&gt;warnings</title>
<path fill="none" stroke="#000000" d="M875.5847,-1318.3265C913.3625,-1290.3466 990.1983,-1234.7815 1059,-1193.3726 1151.3136,-1137.8128 1178.2975,-1130.8672 1274,-1081.3726 1331.6897,-1051.5371 1365.5676,-1066.9839 1404,-1014.6274 1573.4757,-783.7506 1368.1807,-626.5983 1513,-379.5083 1586.1144,-254.7608 1758.9054,-201.4987 1859.2435,-180.4417"/>
<polygon fill="#000000" stroke="#000000" points="1860.2205,-183.8145 1869.3181,-178.3846 1858.82,-176.956 1860.2205,-183.8145"/>
</g>
<!-- repl&#45;&gt;args -->
<g id="edge137" class="edge">
<title>repl&#45;&gt;args</title>
<path fill="none" stroke="#000000" d="M889.8783,-1335.1868C1067.9719,-1331.0184 1822.7151,-1309.4157 2046,-1238.6274 2139.4405,-1209.0039 2360.9717,-1087.976 2426,-1014.6274 2584.3189,-836.0518 2641.3865,-538.9866 2656.4885,-440.692"/>
<polygon fill="#000000" stroke="#000000" points="2659.9571,-441.1621 2657.9751,-430.7543 2653.0341,-440.1265 2659.9571,-441.1621"/>
</g>
<!-- repl&#45;&gt;opresultwarn -->
<g id="edge138" class="edge">
<title>repl&#45;&gt;opresultwarn</title>
<path fill="none" stroke="#000000" d="M814.3716,-1333.5582C654.2826,-1322.162 38,-1267.6625 38,-1104 38,-1104 38,-1104 38,-768 38,-584.7671 30.7679,-491.2308 176,-379.5083 254.3959,-319.2007 914.4807,-296.9116 1180.0174,-290.3355"/>
<polygon fill="#000000" stroke="#000000" points="1180.1516,-293.8333 1190.0629,-290.0895 1179.9802,-286.8354 1180.1516,-293.8333"/>
</g>
<!-- repl&#45;&gt;messages -->
<g id="edge142" class="edge">
<title>repl&#45;&gt;messages</title>
<path fill="none" stroke="#000000" d="M814.2507,-1334.4482C682.115,-1328.4895 241.7883,-1304.0427 119,-1238.6274 48.5195,-1201.079 0,-1183.8586 0,-1104 0,-1104 0,-1104 0,-288 0,-203.9791 42.3955,-178.1565 117,-139.5083 279.013,-55.5787 1569.0396,-41.6851 1934.0715,-39.4288"/>
<polygon fill="#000000" stroke="#000000" points="1934.3618,-42.9272 1944.3405,-39.3669 1934.3195,-35.9273 1934.3618,-42.9272"/>
</g>
<!-- repl&#45;&gt;matches -->
<g id="edge140" class="edge">
<title>repl&#45;&gt;matches</title>
<path fill="none" stroke="#000000" d="M882.8098,-1322.6014C973.8932,-1282.3591 1248.3176,-1156.5386 1453,-1014.6274 1499.454,-982.4197 1810.8099,-729.717 1835,-678.6274 1851.4559,-643.8723 1849.7966,-598.8362 1845.9387,-568.7589"/>
<polygon fill="#000000" stroke="#000000" points="1849.3926,-568.1873 1844.5085,-558.7854 1842.4635,-569.181 1849.3926,-568.1873"/>
</g>
<!-- repl&#45;&gt;runCommand -->
<g id="edge143" class="edge">
<title>repl&#45;&gt;runCommand</title>
<path fill="none" stroke="#000000" d="M823.0784,-1321.4127C778.031,-1296.6747 699.4802,-1244.2131 732,-1193.3726 806.0987,-1077.5289 965.6893,-1027.3683 1069.8584,-1006.3401"/>
<polygon fill="#000000" stroke="#000000" points="1070.6237,-1009.7567 1079.7615,-1004.3948 1069.2744,-1002.888 1070.6237,-1009.7567"/>
</g>
<!-- runner -->
<g id="node20" class="node">
<title>runner</title>
<g id="a_node20"><a xlink:href="runner.md" xlink:title="runner.md">
<polygon fill="#98fb98" stroke="#000000" points="3127.3608,-1454.8581 3127.3608,-1475.1419 3092.0023,-1489.4846 3041.9977,-1489.4846 3006.6392,-1475.1419 3006.6392,-1454.8581 3041.9977,-1440.5154 3092.0023,-1440.5154 3127.3608,-1454.8581"/>
<polygon fill="none" stroke="#000000" points="3131.3724,-1452.1681 3131.3724,-1477.8319 3092.7872,-1493.4835 3041.2128,-1493.4835 3002.6276,-1477.8319 3002.6276,-1452.1681 3041.2128,-1436.5165 3092.7872,-1436.5165 3131.3724,-1452.1681"/>
<text text-anchor="middle" x="3067" y="-1457.8" font-family="Times,serif" font-size="24.00" fill="#000000">runner</text>
</a>
</g>
</g>
<!-- statictea -->
<g id="node21" class="node">
<title>statictea</title>
<g id="a_node21"><a xlink:href="statictea.md" xlink:title="statictea.md">
<polygon fill="#eee8aa" stroke="#000000" points="2819.0958,-1456.3667 2902,-1437.0619 2984.9042,-1456.3667 2984.8268,-1487.6024 2819.1732,-1487.6024 2819.0958,-1456.3667"/>
<text text-anchor="middle" x="2902" y="-1457.8" font-family="Times,serif" font-size="24.00" fill="#000000">statictea</text>
</a>
</g>
</g>
<!-- statictea&#45;&gt;env -->
<g id="edge132" class="edge">
<title>statictea&#45;&gt;env</title>
<path fill="none" stroke="#000000" d="M2897.1779,-1438.1501C2879.413,-1341.9357 2813.2433,-1006.2813 2710,-745.3726 2701.9076,-724.9221 2690.2888,-703.1574 2680.5095,-686.2265"/>
<polygon fill="#000000" stroke="#000000" points="2683.3824,-684.2069 2675.2998,-677.3569 2677.3465,-687.7522 2683.3824,-684.2069"/>
</g>
<!-- statictea&#45;&gt;updateTemplate -->
<g id="edge127" class="edge">
<title>statictea&#45;&gt;updateTemplate</title>
<path fill="none" stroke="#000000" d="M2863.0459,-1445.9656C2817.4072,-1423.6649 2741.5754,-1386.6107 2690.706,-1361.7541"/>
<polygon fill="#000000" stroke="#000000" points="2692.0324,-1358.5067 2681.511,-1357.2611 2688.9591,-1364.7961 2692.0324,-1358.5067"/>
</g>
<!-- statictea&#45;&gt;repl -->
<g id="edge145" class="edge">
<title>statictea&#45;&gt;repl</title>
<path fill="none" stroke="#000000" d="M2819.0986,-1459.7833C2475.3744,-1438.1538 1167.7337,-1355.8681 900.0466,-1339.0234"/>
<polygon fill="#000000" stroke="#000000" points="900.0797,-1335.5187 889.8796,-1338.3836 899.64,-1342.5048 900.0797,-1335.5187"/>
</g>
<!-- gethelp -->
<g id="node22" class="node">
<title>gethelp</title>
<g id="a_node22"><a xlink:href="gethelp.md" xlink:title="gethelp.md">
<polygon fill="#98fb98" stroke="#000000" points="2496.1349,-1325.8581 2496.1349,-1346.1419 2457.394,-1360.4846 2402.606,-1360.4846 2363.8651,-1346.1419 2363.8651,-1325.8581 2402.606,-1311.5154 2457.394,-1311.5154 2496.1349,-1325.8581"/>
<polygon fill="none" stroke="#000000" points="2500.1242,-1323.0722 2500.1242,-1348.9278 2458.1071,-1364.4835 2401.8929,-1364.4835 2359.8758,-1348.9278 2359.8758,-1323.0722 2401.8929,-1307.5165 2458.1071,-1307.5165 2500.1242,-1323.0722"/>
<text text-anchor="middle" x="2430" y="-1328.8" font-family="Times,serif" font-size="24.00" fill="#000000">gethelp</text>
</a>
</g>
</g>
<!-- statictea&#45;&gt;gethelp -->
<g id="edge130" class="edge">
<title>statictea&#45;&gt;gethelp</title>
<path fill="none" stroke="#000000" d="M2841.085,-1451.2007C2763.5937,-1433.2312 2625.9026,-1399.909 2510,-1364.4917 2504.3094,-1362.7528 2498.4247,-1360.854 2492.5486,-1358.889"/>
<polygon fill="#000000" stroke="#000000" points="2493.2978,-1355.4468 2482.7033,-1355.536 2491.041,-1362.0731 2493.2978,-1355.4468"/>
</g>
<!-- statictea&#45;&gt;args -->
<g id="edge128" class="edge">
<title>statictea&#45;&gt;args</title>
<path fill="none" stroke="#000000" d="M2921.3385,-1441.2257C2953.8633,-1398.7553 3016,-1305.8589 3016,-1216 3016,-1216 3016,-1216 3016,-992 3016,-883.3705 3019.879,-591.5085 2951,-507.5083 2919.7323,-469.3763 2781.8113,-434.3151 2708.0014,-417.8549"/>
<polygon fill="#000000" stroke="#000000" points="2708.5487,-414.3916 2698.0297,-415.6573 2707.0421,-421.2275 2708.5487,-414.3916"/>
</g>
<!-- statictea&#45;&gt;opresultwarn -->
<g id="edge133" class="edge">
<title>statictea&#45;&gt;opresultwarn</title>
<path fill="none" stroke="#000000" d="M2819.044,-1464.1859C2438.5335,-1460.0548 875.6506,-1438.6097 805,-1364.4917 787.5258,-1346.1599 792.8229,-1329.7147 805,-1307.5083 850.3658,-1224.7783 903.7583,-1243.0071 984,-1193.3726 992.2091,-1188.2947 1277.1502,-1022.9733 1282,-1014.6274 1362.1023,-876.7818 1290,-815.4296 1290,-656 1290,-656 1290,-656 1290,-536 1290,-458.9457 1290,-368.4246 1290,-320.923"/>
<polygon fill="#000000" stroke="#000000" points="1293.5001,-320.908 1290,-310.908 1286.5001,-320.908 1293.5001,-320.908"/>
</g>
<!-- statictea&#45;&gt;messages -->
<g id="edge129" class="edge">
<title>statictea&#45;&gt;messages</title>
<path fill="none" stroke="#000000" d="M2953.553,-1448.9468C2966.7327,-1444.8669 2980.885,-1440.5067 2994,-1436.5083 3228.6526,-1364.9687 3500,-1461.3156 3500,-1216 3500,-1216 3500,-1216 3500,-288 3500,-207.9336 3467.4383,-179.3698 3398,-139.5083 3288.3552,-76.5659 2419.2915,-48.8874 2126.161,-41.2794"/>
<polygon fill="#000000" stroke="#000000" points="2126.0654,-37.7759 2115.9786,-41.0172 2125.8851,-44.7736 2126.0654,-37.7759"/>
</g>
<!-- statictea&#45;&gt;version -->
<g id="edge131" class="edge">
<title>statictea&#45;&gt;version</title>
<path fill="none" stroke="#000000" d="M2902,-1437.0108C2902,-1363.8641 2902,-1160.9579 2902,-992 2902,-992 2902,-992 2902,-880 2902,-762.5532 2837.2412,-635.2029 2801.3217,-573.5994"/>
<polygon fill="#000000" stroke="#000000" points="2804.1302,-571.4721 2796.0307,-564.6422 2798.1032,-575.0324 2804.1302,-571.4721"/>
</g>
<!-- timer -->
<g id="node31" class="node">
<title>timer</title>
<g id="a_node31"><a xlink:href="timer.md" xlink:title="timer.md">
<polygon fill="#98fb98" stroke="#000000" points="3150.0202,-1325.8581 3150.0202,-1346.1419 3120.1333,-1360.4846 3077.8667,-1360.4846 3047.9798,-1346.1419 3047.9798,-1325.8581 3077.8667,-1311.5154 3120.1333,-1311.5154 3150.0202,-1325.8581"/>
<polygon fill="none" stroke="#000000" points="3154.021,-1323.3422 3154.021,-1348.6578 3121.044,-1364.4835 3076.956,-1364.4835 3043.979,-1348.6578 3043.979,-1323.3422 3076.956,-1307.5165 3121.044,-1307.5165 3154.021,-1323.3422"/>
<text text-anchor="middle" x="3099" y="-1328.8" font-family="Times,serif" font-size="24.00" fill="#000000">timer</text>
</a>
</g>
</g>
<!-- statictea&#45;&gt;timer -->
<g id="edge146" class="edge">
<title>statictea&#45;&gt;timer</title>
<path fill="none" stroke="#000000" d="M2933.6515,-1444.2739C2966.7791,-1422.5812 3019.0076,-1388.3808 3055.8877,-1364.2309"/>
<polygon fill="#000000" stroke="#000000" points="3057.9953,-1367.0344 3064.4439,-1358.6281 3054.1606,-1361.1783 3057.9953,-1367.0344"/>
</g>
<!-- parseCommandLine -->
<g id="node32" class="node">
<title>parseCommandLine</title>
<g id="a_node32"><a xlink:href="parseCommandLine.md" xlink:title="parseCommandLine.md">
<ellipse fill="#eee8aa" stroke="#000000" cx="3171" cy="-656" rx="148.8522" ry="22.7556"/>
<text text-anchor="middle" x="3171" y="-648.8" font-family="Times,serif" font-size="24.00" fill="#000000">parseCommandLine</text>
</a>
</g>
</g>
<!-- statictea&#45;&gt;parseCommandLine -->
<g id="edge14" class="edge">
<title>statictea&#45;&gt;parseCommandLine</title>
<path fill="none" stroke="#000000" d="M2952.2949,-1448.685C3068.9352,-1409.3298 3348,-1305.7891 3348,-1216 3348,-1216 3348,-1216 3348,-880 3348,-794.0803 3266.8406,-721.8109 3214.4354,-684.1018"/>
<polygon fill="#000000" stroke="#000000" points="3216.1583,-681.034 3205.9695,-678.1289 3212.1229,-686.7537 3216.1583,-681.034"/>
</g>
<!-- processTemplate -->
<g id="node33" class="node">
<title>processTemplate</title>
<g id="a_node33"><a xlink:href="processTemplate.md" xlink:title="processTemplate.md">
<ellipse fill="#eee8aa" stroke="#000000" cx="2198" cy="-1336" rx="125.2054" ry="22.7556"/>
<text text-anchor="middle" x="2198" y="-1328.8" font-family="Times,serif" font-size="24.00" fill="#000000">processTemplate</text>
</a>
</g>
</g>
<!-- statictea&#45;&gt;processTemplate -->
<g id="edge114" class="edge">
<title>statictea&#45;&gt;processTemplate</title>
<path fill="none" stroke="#000000" d="M2834.1243,-1452.7018C2730.1111,-1433.8372 2525.0419,-1396.5703 2351,-1364.4917 2332.9812,-1361.1706 2313.7727,-1357.6097 2295.2692,-1354.1692"/>
<polygon fill="#000000" stroke="#000000" points="2295.8435,-1350.7161 2285.372,-1352.3279 2294.5632,-1357.598 2295.8435,-1350.7161"/>
</g>
<!-- comparelines -->
<g id="node23" class="node">
<title>comparelines</title>
<g id="a_node23"><a xlink:href="comparelines.md" xlink:title="comparelines.md">
<polygon fill="#98fb98" stroke="#000000" points="3373.3362,-1454.8581 3373.3362,-1475.1419 3308.7028,-1489.4846 3217.2972,-1489.4846 3152.6638,-1475.1419 3152.6638,-1454.8581 3217.2972,-1440.5154 3308.7028,-1440.5154 3373.3362,-1454.8581"/>
<polygon fill="none" stroke="#000000" points="3377.3422,-1451.6506 3377.3422,-1478.3494 3309.1427,-1493.4835 3216.8573,-1493.4835 3148.6578,-1478.3494 3148.6578,-1451.6506 3216.8573,-1436.5165 3309.1427,-1436.5165 3377.3422,-1451.6506"/>
<text text-anchor="middle" x="3263" y="-1457.8" font-family="Times,serif" font-size="24.00" fill="#000000">comparelines</text>
</a>
</g>
</g>
<!-- signatures&#45;&gt;vartypes -->
<g id="edge64" class="edge">
<title>signatures&#45;&gt;vartypes</title>
<path fill="none" stroke="#000000" d="M1013.0769,-639.3145C939.6365,-617.0035 809.8767,-577.5828 733.6398,-554.4222"/>
<polygon fill="#000000" stroke="#000000" points="734.2904,-550.962 723.7048,-551.404 732.2556,-557.6597 734.2904,-550.962"/>
</g>
<!-- signatures&#45;&gt;messages -->
<g id="edge65" class="edge">
<title>signatures&#45;&gt;messages</title>
<path fill="none" stroke="#000000" d="M1088.4521,-633.8503C1157.0179,-559.9345 1379.2913,-323.1583 1466,-265.3726 1585.6394,-185.6406 1630.5068,-192.897 1764,-139.5083 1831.0237,-112.7031 1908.2629,-83.7289 1962.182,-63.8084"/>
<polygon fill="#000000" stroke="#000000" points="1963.4646,-67.0659 1971.6347,-60.3206 1961.0414,-60.4987 1963.4646,-67.0659"/>
</g>
<!-- args&#45;&gt;warnings -->
<g id="edge3" class="edge">
<title>args&#45;&gt;warnings</title>
<path fill="none" stroke="#000000" d="M2621.6084,-405.8421C2533.6986,-399.9008 2316.1003,-378.9062 2149,-310.6274 2078.8191,-281.9509 2007.589,-228.5668 1967.5777,-195.868"/>
<polygon fill="#000000" stroke="#000000" points="1969.7038,-193.0846 1959.7632,-189.4191 1965.2483,-198.4836 1969.7038,-193.0846"/>
</g>
<!-- args&#45;&gt;opresultwarn -->
<g id="edge6" class="edge">
<title>args&#45;&gt;opresultwarn</title>
<path fill="none" stroke="#000000" d="M2621.8129,-404.5701C2439.8045,-388.6393 1673.9761,-321.6084 1393.4973,-297.0588"/>
<polygon fill="#000000" stroke="#000000" points="1393.5904,-293.5537 1383.3233,-296.1683 1392.98,-300.527 1393.5904,-293.5537"/>
</g>
<!-- args&#45;&gt;messages -->
<g id="edge1" class="edge">
<title>args&#45;&gt;messages</title>
<path fill="none" stroke="#000000" d="M2634.0963,-391.2348C2565.069,-348.3449 2375.8061,-231.5331 2215,-139.5083 2172.1546,-114.989 2123.0274,-88.3673 2086.171,-68.6855"/>
<polygon fill="#000000" stroke="#000000" points="2087.5473,-65.4529 2077.0764,-63.8367 2084.254,-71.6298 2087.5473,-65.4529"/>
</g>
<!-- opresultwarn&#45;&gt;warnings -->
<g id="edge4" class="edge">
<title>opresultwarn&#45;&gt;warnings</title>
<path fill="none" stroke="#000000" d="M1367.4815,-273.5848C1492.9883,-250.2347 1739.0414,-204.4574 1861.7663,-181.6249"/>
<polygon fill="#000000" stroke="#000000" points="1862.6276,-185.0248 1871.8187,-179.7547 1861.3472,-178.1429 1862.6276,-185.0248"/>
</g>
<!-- opresultwarn&#45;&gt;opresult -->
<g id="edge5" class="edge">
<title>opresultwarn&#45;&gt;opresult</title>
<path fill="none" stroke="#000000" d="M1208.3606,-274.8146C1066.7189,-251.9384 776.7967,-205.1139 632.5056,-181.8098"/>
<polygon fill="#000000" stroke="#000000" points="632.8025,-178.3125 622.3724,-180.1732 631.6864,-185.2229 632.8025,-178.3125"/>
</g>
<!-- matches&#45;&gt;regexes -->
<g id="edge12" class="edge">
<title>matches&#45;&gt;regexes</title>
<path fill="none" stroke="#000000" d="M1782.0311,-524.5846C1665.5811,-501.6529 1403.0498,-449.9544 1270.2146,-423.7961"/>
<polygon fill="#000000" stroke="#000000" points="1270.5895,-420.3028 1260.1016,-421.8046 1269.237,-427.1709 1270.5895,-420.3028"/>
</g>
<!-- matches&#45;&gt;args -->
<g id="edge11" class="edge">
<title>matches&#45;&gt;args</title>
<path fill="none" stroke="#000000" d="M1901.0377,-526.4838C2057.6575,-502.0656 2471.3669,-437.5652 2612.797,-415.5152"/>
<polygon fill="#000000" stroke="#000000" points="2613.5536,-418.9396 2622.895,-413.9409 2612.4752,-412.0232 2613.5536,-418.9396"/>
</g>
<!-- readjson&#45;&gt;unicodes -->
<g id="edge82" class="edge">
<title>readjson&#45;&gt;unicodes</title>
<path fill="none" stroke="#000000" d="M486.0021,-745.6043C477.8868,-729.0786 466.7289,-706.3571 457.6799,-687.93"/>
<polygon fill="#000000" stroke="#000000" points="460.7169,-686.1741 453.1673,-678.7408 454.4337,-689.2597 460.7169,-686.1741"/>
</g>
<!-- readjson&#45;&gt;vartypes -->
<g id="edge80" class="edge">
<title>readjson&#45;&gt;vartypes</title>
<path fill="none" stroke="#000000" d="M513.8756,-745.7549C545.611,-703.9219 614.2066,-613.5004 650.0823,-566.2097"/>
<polygon fill="#000000" stroke="#000000" points="652.92,-568.2601 656.1755,-558.1778 647.3431,-564.0294 652.92,-568.2601"/>
</g>
<!-- readjson&#45;&gt;utf8decoder -->
<g id="edge83" class="edge">
<title>readjson&#45;&gt;utf8decoder</title>
<path fill="none" stroke="#000000" d="M531.5301,-748.2198C601.4585,-708.162 760.3894,-617.1201 845.5807,-568.3192"/>
<polygon fill="#000000" stroke="#000000" points="847.4036,-571.3086 854.3411,-563.3009 843.9242,-565.2346 847.4036,-571.3086"/>
</g>
<!-- readjson&#45;&gt;opresultwarn -->
<g id="edge84" class="edge">
<title>readjson&#45;&gt;opresultwarn</title>
<path fill="none" stroke="#000000" d="M504.3702,-745.4593C524.1075,-685.5651 577.8247,-525.7643 595,-507.5083 642.7122,-456.7939 814.9145,-401.4423 881,-379.5083 987.8404,-344.0474 1114.9226,-318.0261 1198.7599,-302.9862"/>
<polygon fill="#000000" stroke="#000000" points="1199.5327,-306.4038 1208.7653,-301.2067 1198.3068,-299.512 1199.5327,-306.4038"/>
</g>
<!-- readjson&#45;&gt;messages -->
<g id="edge81" class="edge">
<title>readjson&#45;&gt;messages</title>
<path fill="none" stroke="#000000" d="M452.4811,-750.6729C421.5741,-736.2138 382.267,-712.4794 361,-678.6274 326.9807,-624.4769 342,-599.9499 342,-536 342,-536 342,-536 342,-288 342,-216.482 345.7308,-180.9755 404,-139.5083 466.5929,-94.9641 1594.5019,-53.6226 1934.0628,-42.142"/>
<polygon fill="#000000" stroke="#000000" points="1934.2426,-45.638 1944.1189,-41.8029 1934.0066,-38.642 1934.2426,-45.638"/>
</g>
<!-- parseCommandLine&#45;&gt;cmdline -->
<g id="edge10" class="edge">
<title>parseCommandLine&#45;&gt;cmdline</title>
<path fill="none" stroke="#000000" d="M3177.8561,-633.1465C3182.8245,-616.5848 3189.6606,-593.798 3195.4633,-574.4556"/>
<polygon fill="#000000" stroke="#000000" points="3198.867,-575.2901 3198.3882,-564.706 3192.1622,-573.2786 3198.867,-575.2901"/>
</g>
<!-- parseCommandLine&#45;&gt;warnings -->
<g id="edge9" class="edge">
<title>parseCommandLine&#45;&gt;warnings</title>
<path fill="none" stroke="#000000" d="M3158.1454,-633.3602C3139.1486,-601.6074 3100.8352,-543.6877 3055,-507.5083 2731.2927,-251.9943 2216.8377,-188.23 2017.5943,-172.777"/>
<polygon fill="#000000" stroke="#000000" points="2017.7253,-169.277 2007.4901,-172.014 2017.1981,-176.2571 2017.7253,-169.277"/>
</g>
<!-- parseCommandLine&#45;&gt;args -->
<g id="edge7" class="edge">
<title>parseCommandLine&#45;&gt;args</title>
<path fill="none" stroke="#000000" d="M3151.747,-633.4352C3122.859,-600.9657 3065.1314,-541.269 3004,-507.5083 2907.071,-453.9778 2778.4613,-426.7081 2709.5395,-415.1103"/>
<polygon fill="#000000" stroke="#000000" points="2709.8445,-411.6136 2699.4095,-413.4467 2708.71,-418.5211 2709.8445,-411.6136"/>
</g>
<!-- parseCommandLine&#45;&gt;messages -->
<g id="edge8" class="edge">
<title>parseCommandLine&#45;&gt;messages</title>
<path fill="none" stroke="#000000" d="M3214.8977,-634.2181C3241.4933,-618.6016 3273.554,-594.9576 3291,-564.4917 3325.8164,-503.6921 3310,-478.0626 3310,-408 3310,-408 3310,-408 3310,-288 3310,-99.2007 3095.5977,-183.5207 2912,-139.5083 2631.2519,-72.2067 2289.105,-49.583 2125.745,-42.2883"/>
<polygon fill="#000000" stroke="#000000" points="2125.8648,-38.7903 2115.7214,-41.85 2125.5589,-45.7836 2125.8648,-38.7903"/>
</g>
<!-- parseCommandLine&#45;&gt;matches -->
<g id="edge13" class="edge">
<title>parseCommandLine&#45;&gt;matches</title>
<path fill="none" stroke="#000000" d="M3042.774,-644.4394C2768.5955,-619.7201 2132.5932,-562.3796 1914.7633,-542.7405"/>
<polygon fill="#000000" stroke="#000000" points="1914.9835,-539.2462 1904.7096,-541.8341 1914.3549,-546.218 1914.9835,-539.2462"/>
</g>
<!-- processTemplate&#45;&gt;parseCmdLine -->
<g id="edge30" class="edge">
<title>processTemplate&#45;&gt;parseCmdLine</title>
<path fill="none" stroke="#000000" d="M2087.8213,-1325.1507C1928.1137,-1308.2991 1647.9871,-1274.0686 1618,-1238.6274 1479.5148,-1074.9548 1596.457,-784.0802 1641.3117,-687.8743"/>
<polygon fill="#000000" stroke="#000000" points="1644.556,-689.2007 1645.6648,-678.6641 1638.2273,-686.2095 1644.556,-689.2007"/>
</g>
<!-- processTemplate&#45;&gt;env -->
<g id="edge22" class="edge">
<title>processTemplate&#45;&gt;env</title>
<path fill="none" stroke="#000000" d="M2257.2718,-1316.0162C2361.2828,-1277.2045 2572.9354,-1180.5454 2650,-1014.6274 2701.0845,-904.6438 2681.418,-754.5611 2669.0613,-688.9561"/>
<polygon fill="#000000" stroke="#000000" points="2672.431,-687.95 2667.079,-678.8063 2665.5608,-689.2918 2672.431,-687.95"/>
</g>
<!-- processTemplate&#45;&gt;startingvars -->
<g id="edge112" class="edge">
<title>processTemplate&#45;&gt;startingvars</title>
<path fill="none" stroke="#000000" d="M2153.704,-1314.8226C2110.2544,-1294.0499 2044.0473,-1262.3971 1998.3259,-1240.5383"/>
<polygon fill="#000000" stroke="#000000" points="1999.7136,-1237.3223 1989.182,-1236.1667 1996.6943,-1243.6377 1999.7136,-1237.3223"/>
</g>
<!-- processTemplate&#45;&gt;variables -->
<g id="edge91" class="edge">
<title>processTemplate&#45;&gt;variables</title>
<path fill="none" stroke="#000000" d="M2190.8742,-1313.1926C2168.0899,-1238.9193 2097.1523,-996.8817 2074,-790.6274 2070.1151,-756.0187 2075.095,-716.3243 2079.972,-689.053"/>
<polygon fill="#000000" stroke="#000000" points="2083.4746,-689.3658 2081.8877,-678.8905 2076.5957,-688.069 2083.4746,-689.3658"/>
</g>
<!-- processTemplate&#45;&gt;vartypes -->
<g id="edge92" class="edge">
<title>processTemplate&#45;&gt;vartypes</title>
<path fill="none" stroke="#000000" d="M2074.2289,-1332.4621C1806.9365,-1323.7899 1183.5206,-1297.7222 981,-1238.6274 818.5134,-1191.2144 453.9292,-934.6464 365,-790.6274 327.7813,-730.3526 296.4926,-690.0419 339,-633.3726 370.321,-591.6166 511.5963,-561.8585 600.0772,-546.9312"/>
<polygon fill="#000000" stroke="#000000" points="600.7719,-550.3638 610.0627,-545.2715 599.6242,-543.4585 600.7719,-550.3638"/>
</g>
<!-- processTemplate&#45;&gt;replacement -->
<g id="edge93" class="edge">
<title>processTemplate&#45;&gt;replacement</title>
<path fill="none" stroke="#000000" d="M2202.2051,-1313.2771C2205.62,-1293.606 2210.1602,-1264.3507 2212,-1238.6274 2223.7186,-1074.7792 2215.7978,-878.0254 2211.8571,-801.1011"/>
<polygon fill="#000000" stroke="#000000" points="2215.3494,-800.8607 2211.3299,-791.058 2208.359,-801.2277 2215.3494,-800.8607"/>
</g>
<!-- processTemplate&#45;&gt;readlines -->
<g id="edge24" class="edge">
<title>processTemplate&#45;&gt;readlines</title>
<path fill="none" stroke="#000000" d="M2239.3004,-1314.6214C2341.4998,-1258.426 2598,-1095.8825 2598,-880 2598,-880 2598,-880 2598,-768 2598,-697.3052 2568.9297,-619.0824 2549.0863,-573.9224"/>
<polygon fill="#000000" stroke="#000000" points="2552.1629,-572.2287 2544.8824,-564.5315 2545.7738,-575.0888 2552.1629,-572.2287"/>
</g>
<!-- processTemplate&#45;&gt;args -->
<g id="edge15" class="edge">
<title>processTemplate&#45;&gt;args</title>
<path fill="none" stroke="#000000" d="M2270.6132,-1317.4582C2326.981,-1301.315 2405.8951,-1274.807 2469,-1238.6274 2585.5578,-1171.802 2611.0269,-1134.3506 2672,-1014.6274 2780.8785,-800.8403 2982.5042,-711.9787 2857,-507.5083 2824.8245,-455.0881 2755.4734,-429.231 2708.5108,-417.2677"/>
<polygon fill="#000000" stroke="#000000" points="2709.1015,-413.8096 2698.5583,-414.8537 2707.4514,-420.6124 2709.1015,-413.8096"/>
</g>
<!-- processTemplate&#45;&gt;opresultwarn -->
<g id="edge113" class="edge">
<title>processTemplate&#45;&gt;opresultwarn</title>
<path fill="none" stroke="#000000" d="M2073.1771,-1334.1742C1787.4866,-1328.8147 1093.6546,-1308.7671 872,-1238.6274 575.3402,-1144.7534 471.5888,-1069.7129 334,-790.6274 245.8784,-611.8814 329.0174,-456.0978 513,-379.5083 631.378,-330.2291 997.7833,-303.864 1181.9746,-293.4185"/>
<polygon fill="#000000" stroke="#000000" points="1182.4349,-296.8983 1192.2229,-292.8431 1182.0424,-289.9093 1182.4349,-296.8983"/>
</g>
<!-- processTemplate&#45;&gt;messages -->
<g id="edge16" class="edge">
<title>processTemplate&#45;&gt;messages</title>
<path fill="none" stroke="#000000" d="M2274.8036,-1318.0514C2340.7806,-1301.3661 2437.6814,-1273.8107 2518,-1238.6274 2737.2572,-1142.5827 3424,-895.3706 3424,-656 3424,-656 3424,-656 3424,-288 3424,-192.2784 3355.3681,-178.6163 3268,-139.5083 3164.7672,-93.2987 2399.2437,-55.3244 2126.3128,-43.1235"/>
<polygon fill="#000000" stroke="#000000" points="2126.1769,-39.6141 2116.0311,-42.6657 2125.8655,-46.6072 2126.1769,-39.6141"/>
</g>
<!-- processTemplate&#45;&gt;matches -->
<g id="edge23" class="edge">
<title>processTemplate&#45;&gt;matches</title>
<path fill="none" stroke="#000000" d="M2090.5566,-1324.3684C2017.1343,-1312.2607 1920.4004,-1287.7855 1848,-1238.6274 1796.3008,-1203.525 1782.9296,-1185.8541 1763,-1126.6274 1728.9252,-1025.3643 1615.4188,-1099.5152 1808,-745.3726 1829.797,-705.2895 1866.9176,-720.0716 1886,-678.6274 1903.0601,-641.5755 1881.971,-596.412 1863.0612,-566.9693"/>
<polygon fill="#000000" stroke="#000000" points="1865.7749,-564.7309 1857.3073,-558.363 1859.9557,-568.6215 1865.7749,-564.7309"/>
</g>
<!-- processTemplate&#45;&gt;runCommand -->
<g id="edge90" class="edge">
<title>processTemplate&#45;&gt;runCommand</title>
<path fill="none" stroke="#000000" d="M2074.8862,-1331.9311C1825.149,-1322.5236 1277.2977,-1295.5804 1215,-1238.6274 1155.133,-1183.8966 1157.4681,-1078.4124 1163.2075,-1024.8842"/>
<polygon fill="#000000" stroke="#000000" points="1166.6894,-1025.2425 1164.3834,-1014.9017 1159.7375,-1024.4236 1166.6894,-1025.2425"/>
</g>
<!-- runCommand&#45;&gt;runFunction -->
<g id="edge79" class="edge">
<title>runCommand&#45;&gt;runFunction</title>
<path fill="none" stroke="#000000" d="M1168,-969.3351C1168,-953.0916 1168,-930.9648 1168,-912.7965"/>
<polygon fill="#000000" stroke="#000000" points="1171.5001,-912.6311 1168,-902.6312 1164.5001,-912.6312 1171.5001,-912.6311"/>
</g>
<!-- runCommand&#45;&gt;parseNumber -->
<g id="edge42" class="edge">
<title>runCommand&#45;&gt;parseNumber</title>
<path fill="none" stroke="#000000" d="M1117.4079,-972.1504C1080.9878,-956.4539 1031.8167,-932.2762 994,-902.6274 955.629,-872.5441 920.1976,-828.5368 898.6056,-799.1146"/>
<polygon fill="#000000" stroke="#000000" points="901.3256,-796.9031 892.6265,-790.8553 895.6555,-801.008 901.3256,-796.9031"/>
</g>
<!-- runCommand&#45;&gt;regexes -->
<g id="edge33" class="edge">
<title>runCommand&#45;&gt;regexes</title>
<path fill="none" stroke="#000000" d="M1135.1382,-970.5048C1112.6023,-954.2582 1083.5355,-930.1054 1065,-902.6274 1023.6752,-841.3655 1039.0208,-813.7509 1011,-745.3726 998.5256,-714.9317 986.2925,-710.7066 979,-678.6274 974.5414,-659.0146 971.6099,-652.079 979,-633.3726 1012.1125,-549.5553 1092.75,-478.6183 1144.2,-439.7994"/>
<polygon fill="#000000" stroke="#000000" points="1146.5742,-442.3954 1152.508,-433.6181 1142.3958,-436.7793 1146.5742,-442.3954"/>
</g>
<!-- runCommand&#45;&gt;parseCmdLine -->
<g id="edge89" class="edge">
<title>runCommand&#45;&gt;parseCmdLine</title>
<path fill="none" stroke="#000000" d="M1194.8679,-969.9064C1216.025,-952.2212 1246.0125,-926.5108 1271,-902.6274 1291.0567,-883.457 1292.2839,-874.6407 1314,-857.3726 1390.724,-796.3635 1419.4569,-794.9826 1504,-745.3726 1540.1012,-724.1884 1581.0496,-700.275 1611.4936,-682.5185"/>
<polygon fill="#000000" stroke="#000000" points="1613.3121,-685.5097 1620.1874,-677.4486 1609.7858,-679.4628 1613.3121,-685.5097"/>
</g>
<!-- runCommand&#45;&gt;env -->
<g id="edge34" class="edge">
<title>runCommand&#45;&gt;env</title>
<path fill="none" stroke="#000000" d="M1269.6801,-986.5943C1482.0719,-972.851 1986.0886,-927.3663 2384,-790.6274 2424.8467,-776.5908 2431.2989,-764.5483 2470,-745.3726 2522.5426,-719.3386 2584.136,-691.0557 2623.1107,-673.4301"/>
<polygon fill="#000000" stroke="#000000" points="2624.8382,-676.4904 2632.513,-669.1864 2621.9585,-670.1102 2624.8382,-676.4904"/>
</g>
<!-- runCommand&#45;&gt;unicodes -->
<g id="edge87" class="edge">
<title>runCommand&#45;&gt;unicodes</title>
<path fill="none" stroke="#000000" d="M1088.8241,-977.1382C1006.1953,-961.0504 873.1492,-933.5158 760,-902.6274 740.7638,-897.3762 430.6948,-806.778 419,-790.6274 397.1654,-760.4738 410.7652,-716.6671 424.5477,-687.2967"/>
<polygon fill="#000000" stroke="#000000" points="427.6988,-688.8204 428.9843,-678.3038 421.4211,-685.7233 427.6988,-688.8204"/>
</g>
<!-- runCommand&#45;&gt;variables -->
<g id="edge49" class="edge">
<title>runCommand&#45;&gt;variables</title>
<path fill="none" stroke="#000000" d="M1221.3816,-972.4829C1382.7949,-913.4678 1864.7883,-737.2439 2030.3916,-676.6969"/>
<polygon fill="#000000" stroke="#000000" points="2031.7165,-679.9391 2039.9066,-673.2181 2029.3127,-673.3648 2031.7165,-679.9391"/>
</g>
<!-- runCommand&#45;&gt;vartypes -->
<g id="edge38" class="edge">
<title>runCommand&#45;&gt;vartypes</title>
<path fill="none" stroke="#000000" d="M1095.539,-975.563C1004.5179,-951.0863 849.988,-896.1674 765,-790.6274 764.5412,-790.0577 709.0907,-636.1983 684.5084,-567.9551"/>
<polygon fill="#000000" stroke="#000000" points="687.7975,-566.7582 681.1157,-558.536 681.2117,-569.1304 687.7975,-566.7582"/>
</g>
<!-- runCommand&#45;&gt;readlines -->
<g id="edge31" class="edge">
<title>runCommand&#45;&gt;readlines</title>
<path fill="none" stroke="#000000" d="M1250.311,-977.9015C1510.8867,-933.2213 2301.2895,-797.3078 2313,-790.6274 2405.6036,-737.8007 2477.3099,-630.1835 2510.6043,-573.2476"/>
<polygon fill="#000000" stroke="#000000" points="2513.6501,-574.9721 2515.6154,-564.5611 2507.5867,-571.4742 2513.6501,-574.9721"/>
</g>
<!-- runCommand&#45;&gt;utf8decoder -->
<g id="edge88" class="edge">
<title>runCommand&#45;&gt;utf8decoder</title>
<path fill="none" stroke="#000000" d="M1120.5949,-971.6589C1091.0089,-956.6541 1054.4143,-933.4881 1032,-902.6274 989.42,-844.002 1028.3589,-806.2073 989,-745.3726 963.6609,-706.2074 928.7848,-720.3884 908,-678.6274 891.9479,-646.3755 892.1907,-604.7645 895.3987,-574.8215"/>
<polygon fill="#000000" stroke="#000000" points="898.8903,-575.1034 896.6352,-564.7514 891.9425,-574.2502 898.8903,-575.1034"/>
</g>
<!-- runCommand&#45;&gt;warnings -->
<g id="edge40" class="edge">
<title>runCommand&#45;&gt;warnings</title>
<path fill="none" stroke="#000000" d="M1207.5602,-970.9904C1236.5276,-954.5526 1275.874,-929.9565 1306,-902.6274 1325.0355,-885.3592 1322.0231,-873.5425 1342,-857.3726 1393.7159,-815.512 1418.0887,-823.386 1476,-790.6274 1508.5706,-772.2032 1512.9077,-760.8001 1547,-745.3726 1643.9727,-701.4902 1713.0786,-763.7357 1777,-678.6274 1789.0789,-662.545 1778.8732,-653.3984 1777,-633.3726 1771.7624,-577.3797 1750.9991,-562.2221 1764,-507.5083 1793.1693,-384.7502 1874.1434,-255.9915 1913.276,-198.6618"/>
<polygon fill="#000000" stroke="#000000" points="1916.1707,-200.6293 1918.9591,-190.4079 1910.4052,-196.6594 1916.1707,-200.6293"/>
</g>
<!-- runCommand&#45;&gt;opresultwarn -->
<g id="edge86" class="edge">
<title>runCommand&#45;&gt;opresultwarn</title>
<path fill="none" stroke="#000000" d="M1067.8113,-985.1824C857.0221,-968.4364 379.7008,-917.059 290,-790.6274 278.3617,-774.2234 286.7251,-765.2174 290,-745.3726 326.4898,-524.2531 431.7771,-469.5577 637,-379.5083 732.9727,-337.3966 1025.722,-308.7115 1184.6595,-295.79"/>
<polygon fill="#000000" stroke="#000000" points="1185.2451,-299.2542 1194.9314,-294.9617 1184.6824,-292.2768 1185.2451,-299.2542"/>
</g>
<!-- runCommand&#45;&gt;messages -->
<g id="edge39" class="edge">
<title>runCommand&#45;&gt;messages</title>
<path fill="none" stroke="#000000" d="M1063.7472,-989.3007C877.8176,-982.9982 497.5565,-962.9394 381,-902.6274 295.6703,-858.4736 76,-609.4614 76,-536 76,-536 76,-536 76,-288 76,-171.1366 182.4027,-177.2612 293,-139.5083 448.3896,-86.4652 1592.8106,-51.022 1934.1593,-41.5452"/>
<polygon fill="#000000" stroke="#000000" points="1934.3658,-45.041 1944.2652,-41.2658 1934.1723,-38.0436 1934.3658,-45.041"/>
</g>
<!-- runCommand&#45;&gt;matches -->
<g id="edge32" class="edge">
<title>runCommand&#45;&gt;matches</title>
<path fill="none" stroke="#000000" d="M1210.7391,-971.3388C1246.3021,-953.8407 1298.0331,-927.674 1342,-902.6274 1374.841,-883.9189 1380.782,-875.4033 1414,-857.3726 1518.1607,-800.8343 1547.8432,-793.83 1656,-745.3726 1724.0762,-714.8724 1762.8297,-736.4166 1810,-678.6274 1835.3726,-647.543 1840.8229,-600.2426 1841.2965,-568.7424"/>
<polygon fill="#000000" stroke="#000000" points="1844.7966,-568.7087 1841.288,-558.7117 1837.7966,-568.7147 1844.7966,-568.7087"/>
</g>
<!-- runCommand&#45;&gt;readjson -->
<g id="edge85" class="edge">
<title>runCommand&#45;&gt;readjson</title>
<path fill="none" stroke="#000000" d="M1073.7439,-981.971C998.1829,-970.8734 891.3737,-948.1372 808,-902.6274 782.2645,-888.5796 785.1211,-872.4915 760,-857.3726 698.8342,-820.5604 620.4636,-796.4372 565.2394,-782.6375"/>
<polygon fill="#000000" stroke="#000000" points="565.7522,-779.1597 555.2066,-780.1802 564.0869,-785.9588 565.7522,-779.1597"/>
</g>
</g>
</svg>
