<?xml version="1.0" encoding="UTF-8" standalone="no"?>
<!DOCTYPE svg PUBLIC "-//W3C//DTD SVG 1.1//EN"
 "http://www.w3.org/Graphics/SVG/1.1/DTD/svg11.dtd">
<!-- Generated by graphviz version 7.0.1 (20221109.1506)
 -->
<!-- Title: statictea Pages: 1 -->
<svg width="771pt" height="1766pt"
 viewBox="0.00 0.00 770.78 1766.04" xmlns="http://www.w3.org/2000/svg" xmlns:xlink="http://www.w3.org/1999/xlink">
<g id="graph0" class="graph" transform="scale(1 1) rotate(0) translate(4 1762.04)">
<title>statictea</title>
<polygon fill="white" stroke="none" points="-4,4 -4,-1762.04 766.78,-1762.04 766.78,4 -4,4"/>
<!-- strutils -->
<g id="node1" class="node">
<title>strutils</title>
<ellipse fill="none" stroke="black" cx="88.19" cy="-1077.02" rx="57.97" ry="24.08"/>
<text text-anchor="middle" x="88.19" y="-1070.82" font-family="Times,serif" font-size="24.00">strutils</text>
</g>
<!-- statictea -->
<g id="node2" class="node">
<title>statictea</title>
<g id="a_node2"><a xlink:href="html/statictea.html" xlink:title="statictea" target="_parent">
<ellipse fill="none" stroke="black" cx="613.58" cy="-1506.02" rx="67.35" ry="24.08"/>
<text text-anchor="middle" x="613.58" y="-1499.82" font-family="Times,serif" font-size="24.00">statictea</text>
</a>
</g>
</g>
<!-- strutils&#45;&gt;statictea -->
<g id="edge1" class="edge">
<title>strutils&#45;&gt;statictea</title>
<path fill="none" stroke="black" d="M119.46,-1097.59C136.81,-1109.95 158.61,-1126.45 176.38,-1143.02 318.74,-1275.8 297.03,-1373.58 464.38,-1473.02 486.09,-1485.93 512.32,-1493.79 536.63,-1498.59"/>
<polygon fill="black" stroke="black" points="535.69,-1501.97 546.16,-1500.31 536.94,-1495.09 535.69,-1501.97"/>
</g>
<!-- messages -->
<g id="node10" class="node">
<title>messages</title>
<g id="a_node10"><a xlink:href="html/messages.html" xlink:title="messages" target="_parent">
<ellipse fill="none" stroke="black" cx="613.58" cy="-1638.02" rx="74.91" ry="24.08"/>
<text text-anchor="middle" x="613.58" y="-1631.82" font-family="Times,serif" font-size="24.00">messages</text>
</a>
</g>
</g>
<!-- strutils&#45;&gt;messages -->
<g id="edge7" class="edge">
<title>strutils&#45;&gt;messages</title>
<path fill="none" stroke="black" d="M121.33,-1097.13C138.87,-1109.1 160.25,-1125.36 176.38,-1143.02 339.56,-1321.68 266.92,-1465.18 464.38,-1605.02 483.06,-1618.25 506.12,-1626.3 528.43,-1631.17"/>
<polygon fill="black" stroke="black" points="527.68,-1634.59 538.17,-1633.08 529.03,-1627.72 527.68,-1634.59"/>
</g>
<!-- cmdline -->
<g id="node11" class="node">
<title>cmdline</title>
<g id="a_node11"><a xlink:href="html/cmdline.html" xlink:title="cmdline" target="_parent">
<ellipse fill="none" stroke="black" cx="613.58" cy="-1110.02" rx="66.44" ry="24.08"/>
<text text-anchor="middle" x="613.58" y="-1103.82" font-family="Times,serif" font-size="24.00">cmdline</text>
</a>
</g>
</g>
<!-- strutils&#45;&gt;cmdline -->
<g id="edge12" class="edge">
<title>strutils&#45;&gt;cmdline</title>
<path fill="none" stroke="black" d="M145.7,-1080.59C240.19,-1086.54 430.33,-1098.53 536.49,-1105.22"/>
<polygon fill="black" stroke="black" points="536.04,-1108.7 546.24,-1105.84 536.48,-1101.72 536.04,-1108.7"/>
</g>
<!-- matches -->
<g id="node12" class="node">
<title>matches</title>
<g id="a_node12"><a xlink:href="html/matches.html" xlink:title="matches" target="_parent">
<ellipse fill="none" stroke="black" cx="613.58" cy="-1044.02" rx="67.35" ry="24.08"/>
<text text-anchor="middle" x="613.58" y="-1037.82" font-family="Times,serif" font-size="24.00">matches</text>
</a>
</g>
</g>
<!-- strutils&#45;&gt;matches -->
<g id="edge14" class="edge">
<title>strutils&#45;&gt;matches</title>
<path fill="none" stroke="black" d="M145.7,-1073.46C239.94,-1067.52 429.3,-1055.58 535.63,-1048.87"/>
<polygon fill="black" stroke="black" points="535.64,-1052.38 545.4,-1048.26 535.2,-1045.39 535.64,-1052.38"/>
</g>
<!-- processTemplate -->
<g id="node15" class="node">
<title>processTemplate</title>
<g id="a_node15"><a xlink:href="html/processTemplate.html" xlink:title="processTemplate" target="_parent">
<ellipse fill="none" stroke="black" cx="613.58" cy="-714.02" rx="124.4" ry="24.08"/>
<text text-anchor="middle" x="613.58" y="-707.82" font-family="Times,serif" font-size="24.00">processTemplate</text>
</a>
</g>
</g>
<!-- strutils&#45;&gt;processTemplate -->
<g id="edge21" class="edge">
<title>strutils&#45;&gt;processTemplate</title>
<path fill="none" stroke="black" d="M107.94,-1053.88C158.5,-993.13 304.69,-828.19 464.38,-747.02 476.43,-740.9 489.6,-735.9 502.96,-731.83"/>
<polygon fill="black" stroke="black" points="503.59,-735.29 512.24,-729.17 501.67,-728.56 503.59,-735.29"/>
</g>
<!-- env -->
<g id="node17" class="node">
<title>env</title>
<g id="a_node17"><a xlink:href="html/env.html" xlink:title="env" target="_parent">
<ellipse fill="none" stroke="black" cx="613.58" cy="-1440.02" rx="36.12" ry="24.08"/>
<text text-anchor="middle" x="613.58" y="-1433.82" font-family="Times,serif" font-size="24.00">env</text>
</a>
</g>
</g>
<!-- strutils&#45;&gt;env -->
<g id="edge27" class="edge">
<title>strutils&#45;&gt;env</title>
<path fill="none" stroke="black" d="M118.39,-1098.06C135.58,-1110.7 157.57,-1127.34 176.38,-1143.02 309.75,-1254.21 310.4,-1326.76 464.38,-1407.02 496.09,-1423.55 535.81,-1431.83 566.15,-1435.96"/>
<polygon fill="black" stroke="black" points="565.42,-1439.4 575.78,-1437.16 566.29,-1432.45 565.42,-1439.4"/>
</g>
<!-- tempFile -->
<g id="node19" class="node">
<title>tempFile</title>
<g id="a_node19"><a xlink:href="html/tempFile.html" xlink:title="tempFile" target="_parent">
<ellipse fill="none" stroke="black" cx="613.58" cy="-1374.02" rx="72.25" ry="24.08"/>
<text text-anchor="middle" x="613.58" y="-1367.82" font-family="Times,serif" font-size="24.00">tempFile</text>
</a>
</g>
</g>
<!-- strutils&#45;&gt;tempFile -->
<g id="edge30" class="edge">
<title>strutils&#45;&gt;tempFile</title>
<path fill="none" stroke="black" d="M117.76,-1098.11C198.71,-1157.7 426.18,-1324.14 464.38,-1341.02 486.45,-1350.77 511.68,-1357.77 534.99,-1362.74"/>
<polygon fill="black" stroke="black" points="534.28,-1366.16 544.77,-1364.71 535.66,-1359.3 534.28,-1366.16"/>
</g>
<!-- runCommand -->
<g id="node23" class="node">
<title>runCommand</title>
<g id="a_node23"><a xlink:href="html/runCommand.html" xlink:title="runCommand" target="_parent">
<ellipse fill="none" stroke="black" cx="613.58" cy="-912.02" rx="105.22" ry="24.08"/>
<text text-anchor="middle" x="613.58" y="-905.82" font-family="Times,serif" font-size="24.00">runCommand</text>
</a>
</g>
</g>
<!-- strutils&#45;&gt;runCommand -->
<g id="edge38" class="edge">
<title>strutils&#45;&gt;runCommand</title>
<path fill="none" stroke="black" d="M131.14,-1060.41C199.94,-1033.59 341.4,-980.21 464.38,-945.02 482.92,-939.72 502.96,-934.75 522.13,-930.36"/>
<polygon fill="black" stroke="black" points="522.84,-933.79 531.83,-928.18 521.3,-926.96 522.84,-933.79"/>
</g>
<!-- vartypes -->
<g id="node24" class="node">
<title>vartypes</title>
<g id="a_node24"><a xlink:href="html/vartypes.html" xlink:title="vartypes" target="_parent">
<ellipse fill="none" stroke="black" cx="613.58" cy="-582.02" rx="69.09" ry="24.08"/>
<text text-anchor="middle" x="613.58" y="-575.82" font-family="Times,serif" font-size="24.00">vartypes</text>
</a>
</g>
</g>
<!-- strutils&#45;&gt;vartypes -->
<g id="edge43" class="edge">
<title>strutils&#45;&gt;vartypes</title>
<path fill="none" stroke="black" d="M105,-1053.72C163.4,-968.31 368.49,-674.33 464.38,-615.02 485.38,-602.04 510.85,-594.13 534.71,-589.34"/>
<polygon fill="black" stroke="black" points="535.21,-592.8 544.41,-587.55 533.95,-585.92 535.21,-592.8"/>
</g>
<!-- variables -->
<g id="node25" class="node">
<title>variables</title>
<g id="a_node25"><a xlink:href="html/variables.html" xlink:title="variables" target="_parent">
<ellipse fill="none" stroke="black" cx="613.58" cy="-516.02" rx="72.66" ry="24.08"/>
<text text-anchor="middle" x="613.58" y="-509.82" font-family="Times,serif" font-size="24.00">variables</text>
</a>
</g>
</g>
<!-- strutils&#45;&gt;variables -->
<g id="edge45" class="edge">
<title>strutils&#45;&gt;variables</title>
<path fill="none" stroke="black" d="M104.98,-1053.83C172.95,-954.14 438.27,-566.36 464.38,-549.02 484.01,-535.99 507.99,-528.04 530.9,-523.2"/>
<polygon fill="black" stroke="black" points="531.39,-526.68 540.55,-521.36 530.07,-519.8 531.39,-526.68"/>
</g>
<!-- functions -->
<g id="node26" class="node">
<title>functions</title>
<g id="a_node26"><a xlink:href="html/functions.html" xlink:title="functions" target="_parent">
<ellipse fill="none" stroke="black" cx="613.58" cy="-1572.02" rx="74.91" ry="24.08"/>
<text text-anchor="middle" x="613.58" y="-1565.82" font-family="Times,serif" font-size="24.00">functions</text>
</a>
</g>
</g>
<!-- strutils&#45;&gt;functions -->
<g id="edge50" class="edge">
<title>strutils&#45;&gt;functions</title>
<path fill="none" stroke="black" d="M120.43,-1097.3C137.91,-1109.43 159.5,-1125.81 176.38,-1143.02 328.78,-1298.37 282.41,-1419.66 464.38,-1539.02 483.52,-1551.58 506.72,-1559.41 529.03,-1564.28"/>
<polygon fill="black" stroke="black" points="528.27,-1567.7 538.76,-1566.21 529.63,-1560.83 528.27,-1567.7"/>
</g>
<!-- unicodes -->
<g id="node33" class="node">
<title>unicodes</title>
<g id="a_node33"><a xlink:href="html/unicodes.html" xlink:title="unicodes" target="_parent">
<ellipse fill="none" stroke="black" cx="613.58" cy="-186.02" rx="71.34" ry="24.08"/>
<text text-anchor="middle" x="613.58" y="-179.82" font-family="Times,serif" font-size="24.00">unicodes</text>
</a>
</g>
</g>
<!-- strutils&#45;&gt;unicodes -->
<g id="edge58" class="edge">
<title>strutils&#45;&gt;unicodes</title>
<path fill="none" stroke="black" d="M106.47,-1054.07C125.26,-1028.42 155.43,-985.2 176.38,-945.02 336.89,-637.23 200.26,-444.27 464.38,-219.02 482.91,-203.22 507.36,-194.53 531.05,-189.87"/>
<polygon fill="black" stroke="black" points="531.47,-193.35 540.73,-188.2 530.28,-186.45 531.47,-193.35"/>
</g>
<!-- parseMarkdown -->
<g id="node37" class="node">
<title>parseMarkdown</title>
<g id="a_node37"><a xlink:href="html/parseMarkdown.html" xlink:title="parseMarkdown" target="_parent">
<ellipse fill="none" stroke="black" cx="613.58" cy="-978.02" rx="121.74" ry="24.08"/>
<text text-anchor="middle" x="613.58" y="-971.82" font-family="Times,serif" font-size="24.00">parseMarkdown</text>
</a>
</g>
</g>
<!-- strutils&#45;&gt;parseMarkdown -->
<g id="edge64" class="edge">
<title>strutils&#45;&gt;parseMarkdown</title>
<path fill="none" stroke="black" d="M141.29,-1067.17C227.78,-1050.81 402.43,-1017.77 513.12,-996.84"/>
<polygon fill="black" stroke="black" points="513.63,-1000.3 522.81,-995 512.33,-993.42 513.63,-1000.3"/>
</g>
<!-- replacement -->
<g id="node38" class="node">
<title>replacement</title>
<g id="a_node38"><a xlink:href="html/replacement.html" xlink:title="replacement" target="_parent">
<ellipse fill="none" stroke="black" cx="613.58" cy="-1308.02" rx="94.51" ry="24.08"/>
<text text-anchor="middle" x="613.58" y="-1301.82" font-family="Times,serif" font-size="24.00">replacement</text>
</a>
</g>
</g>
<!-- strutils&#45;&gt;replacement -->
<g id="edge69" class="edge">
<title>strutils&#45;&gt;replacement</title>
<path fill="none" stroke="black" d="M120.47,-1097.25C183.2,-1136.98 329.93,-1225.59 464.38,-1275.02 482.98,-1281.86 503.43,-1287.53 523.04,-1292.12"/>
<polygon fill="black" stroke="black" points="522.15,-1295.51 532.68,-1294.3 523.7,-1288.68 522.15,-1295.51"/>
</g>
<!-- startingvars -->
<g id="node39" class="node">
<title>startingvars</title>
<g id="a_node39"><a xlink:href="html/startingvars.html" xlink:title="startingvars" target="_parent">
<ellipse fill="none" stroke="black" cx="613.58" cy="-1176.02" rx="90.52" ry="24.08"/>
<text text-anchor="middle" x="613.58" y="-1169.82" font-family="Times,serif" font-size="24.00">startingvars</text>
</a>
</g>
</g>
<!-- strutils&#45;&gt;startingvars -->
<g id="edge72" class="edge">
<title>strutils&#45;&gt;startingvars</title>
<path fill="none" stroke="black" d="M141.29,-1086.88C231.69,-1103.98 418.39,-1139.29 527.72,-1159.97"/>
<polygon fill="black" stroke="black" points="527.07,-1163.41 537.54,-1161.83 528.37,-1156.53 527.07,-1163.41"/>
</g>
<!-- repl -->
<g id="node42" class="node">
<title>repl</title>
<g id="a_node42"><a xlink:href="html/repl.html" xlink:title="repl" target="_parent">
<ellipse fill="none" stroke="black" cx="613.58" cy="-318.02" rx="38.37" ry="24.08"/>
<text text-anchor="middle" x="613.58" y="-311.82" font-family="Times,serif" font-size="24.00">repl</text>
</a>
</g>
</g>
<!-- strutils&#45;&gt;repl -->
<g id="edge80" class="edge">
<title>strutils&#45;&gt;repl</title>
<path fill="none" stroke="black" d="M105.91,-1053.77C124.22,-1027.86 153.96,-984.4 176.38,-945.02 321.55,-690.06 234.27,-533.04 464.38,-351.02 492.46,-328.81 532.46,-320.88 563.83,-318.33"/>
<polygon fill="black" stroke="black" points="563.69,-321.84 573.44,-317.71 563.24,-314.86 563.69,-321.84"/>
</g>
<!-- options -->
<g id="node3" class="node">
<title>options</title>
<ellipse fill="none" stroke="black" cx="88.19" cy="-813.02" rx="61.54" ry="24.08"/>
<text text-anchor="middle" x="88.19" y="-806.82" font-family="Times,serif" font-size="24.00">options</text>
</g>
<!-- parseCommandLine -->
<g id="node4" class="node">
<title>parseCommandLine</title>
<g id="a_node4"><a xlink:href="html/parseCommandLine.html" xlink:title="parseCommandLine" target="_parent">
<ellipse fill="none" stroke="black" cx="613.58" cy="-648.02" rx="149.4" ry="24.08"/>
<text text-anchor="middle" x="613.58" y="-641.82" font-family="Times,serif" font-size="24.00">parseCommandLine</text>
</a>
</g>
</g>
<!-- options&#45;&gt;parseCommandLine -->
<g id="edge2" class="edge">
<title>options&#45;&gt;parseCommandLine</title>
<path fill="none" stroke="black" d="M132.54,-795.87C201.85,-768.87 342.23,-715.98 464.38,-681.02 478.55,-676.97 493.61,-673.11 508.48,-669.55"/>
<polygon fill="black" stroke="black" points="508.85,-673.06 517.79,-667.37 507.25,-666.25 508.85,-673.06"/>
</g>
<!-- options&#45;&gt;cmdline -->
<g id="edge13" class="edge">
<title>options&#45;&gt;cmdline</title>
<path fill="none" stroke="black" d="M118.05,-834.32C199.25,-894.09 426.23,-1060.16 464.38,-1077.02 487.9,-1087.42 515.02,-1094.68 539.57,-1099.69"/>
<polygon fill="black" stroke="black" points="538.69,-1103.09 549.17,-1101.55 540.02,-1096.21 538.69,-1103.09"/>
</g>
<!-- options&#45;&gt;matches -->
<g id="edge15" class="edge">
<title>options&#45;&gt;matches</title>
<path fill="none" stroke="black" d="M120.95,-833.56C183.96,-873.43 330.28,-961.71 464.38,-1011.02 488.62,-1019.94 516.02,-1026.86 540.61,-1032.01"/>
<polygon fill="black" stroke="black" points="539.7,-1035.4 550.2,-1033.96 541.09,-1028.54 539.7,-1035.4"/>
</g>
<!-- regexes -->
<g id="node14" class="node">
<title>regexes</title>
<g id="a_node14"><a xlink:href="html/regexes.html" xlink:title="regexes" target="_parent">
<ellipse fill="none" stroke="black" cx="613.58" cy="-120.02" rx="62.87" ry="24.08"/>
<text text-anchor="middle" x="613.58" y="-113.82" font-family="Times,serif" font-size="24.00">regexes</text>
</a>
</g>
</g>
<!-- options&#45;&gt;regexes -->
<g id="edge17" class="edge">
<title>options&#45;&gt;regexes</title>
<path fill="none" stroke="black" d="M105.55,-789.56C123.55,-763.47 153.02,-719.85 176.38,-681.02 314.17,-451.96 250.82,-313.78 464.38,-153.02 485.84,-136.87 513.71,-128.34 539.47,-123.94"/>
<polygon fill="black" stroke="black" points="539.88,-127.41 549.25,-122.46 538.84,-120.49 539.88,-127.41"/>
</g>
<!-- options&#45;&gt;processTemplate -->
<g id="edge19" class="edge">
<title>options&#45;&gt;processTemplate</title>
<path fill="none" stroke="black" d="M144.21,-802.61C231.37,-786.13 402.51,-753.76 512.02,-733.04"/>
<polygon fill="black" stroke="black" points="512.42,-736.53 521.59,-731.23 511.12,-729.65 512.42,-736.53"/>
</g>
<!-- options&#45;&gt;env -->
<g id="edge26" class="edge">
<title>options&#45;&gt;env</title>
<path fill="none" stroke="black" d="M122.57,-833.34C140.08,-845.14 161.02,-861.19 176.38,-879.02 350.84,-1081.55 250.82,-1246.26 464.38,-1407.02 493.55,-1428.98 534.53,-1436.84 566.01,-1439.42"/>
<polygon fill="black" stroke="black" points="565.42,-1442.89 575.62,-1440.06 565.87,-1435.91 565.42,-1442.89"/>
</g>
<!-- options&#45;&gt;tempFile -->
<g id="edge31" class="edge">
<title>options&#45;&gt;tempFile</title>
<path fill="none" stroke="black" d="M121.75,-833.42C139.21,-845.35 160.38,-861.5 176.38,-879.02 339.56,-1057.68 266.92,-1201.18 464.38,-1341.02 483.79,-1354.77 507.93,-1362.93 531.05,-1367.72"/>
<polygon fill="black" stroke="black" points="530.34,-1371.15 540.81,-1369.54 531.62,-1364.27 530.34,-1371.15"/>
</g>
<!-- linebuffer -->
<g id="node21" class="node">
<title>linebuffer</title>
<g id="a_node21"><a xlink:href="html/linebuffer.html" xlink:title="linebuffer" target="_parent">
<ellipse fill="none" stroke="black" cx="613.58" cy="-780.02" rx="78.48" ry="24.08"/>
<text text-anchor="middle" x="613.58" y="-773.82" font-family="Times,serif" font-size="24.00">linebuffer</text>
</a>
</g>
</g>
<!-- options&#45;&gt;linebuffer -->
<g id="edge34" class="edge">
<title>options&#45;&gt;linebuffer</title>
<path fill="none" stroke="black" d="M149.23,-809.24C241.46,-803.42 418.48,-792.26 525.01,-785.54"/>
<polygon fill="black" stroke="black" points="525.1,-789.05 534.86,-784.92 524.66,-782.06 525.1,-789.05"/>
</g>
<!-- parseCmdLine -->
<g id="node22" class="node">
<title>parseCmdLine</title>
<g id="a_node22"><a xlink:href="html/parseCmdLine.html" xlink:title="parseCmdLine" target="_parent">
<ellipse fill="none" stroke="black" cx="613.58" cy="-384.02" rx="111.95" ry="24.08"/>
<text text-anchor="middle" x="613.58" y="-377.82" font-family="Times,serif" font-size="24.00">parseCmdLine</text>
</a>
</g>
</g>
<!-- options&#45;&gt;parseCmdLine -->
<g id="edge35" class="edge">
<title>options&#45;&gt;parseCmdLine</title>
<path fill="none" stroke="black" d="M103.78,-789.75C148.38,-720.69 290.54,-515.57 464.38,-417.02 477.3,-409.7 491.7,-404 506.32,-399.57"/>
<polygon fill="black" stroke="black" points="506.85,-403.06 515.53,-396.97 504.95,-396.32 506.85,-403.06"/>
</g>
<!-- options&#45;&gt;runCommand -->
<g id="edge37" class="edge">
<title>options&#45;&gt;runCommand</title>
<path fill="none" stroke="black" d="M144.21,-823.43C233.57,-840.33 411.18,-873.93 520.17,-894.54"/>
<polygon fill="black" stroke="black" points="519.51,-897.98 529.99,-896.4 520.81,-891.1 519.51,-897.98"/>
</g>
<!-- options&#45;&gt;vartypes -->
<g id="edge44" class="edge">
<title>options&#45;&gt;vartypes</title>
<path fill="none" stroke="black" d="M120.95,-792.48C183.96,-752.61 330.28,-664.33 464.38,-615.02 488.09,-606.31 514.81,-599.49 538.97,-594.38"/>
<polygon fill="black" stroke="black" points="539.66,-597.81 548.75,-592.38 538.25,-590.95 539.66,-597.81"/>
</g>
<!-- options&#45;&gt;variables -->
<g id="edge46" class="edge">
<title>options&#45;&gt;variables</title>
<path fill="none" stroke="black" d="M113.43,-790.66C170.17,-739.58 317.95,-613.73 464.38,-549.02 486.34,-539.32 511.44,-532.34 534.66,-527.38"/>
<polygon fill="black" stroke="black" points="535.3,-530.82 544.4,-525.4 533.91,-523.96 535.3,-530.82"/>
</g>
<!-- options&#45;&gt;functions -->
<g id="edge48" class="edge">
<title>options&#45;&gt;functions</title>
<path fill="none" stroke="black" d="M123.64,-833.1C141.24,-844.73 161.93,-860.68 176.38,-879.02 374.41,-1130.44 217.39,-1335.5 464.38,-1539.02 482.13,-1553.65 505,-1562.14 527.43,-1566.98"/>
<polygon fill="black" stroke="black" points="526.78,-1570.41 537.25,-1568.84 528.08,-1563.54 526.78,-1570.41"/>
</g>
<!-- parseNumber -->
<g id="node30" class="node">
<title>parseNumber</title>
<g id="a_node30"><a xlink:href="html/parseNumber.html" xlink:title="parseNumber" target="_parent">
<ellipse fill="none" stroke="black" cx="613.58" cy="-42.02" rx="103.48" ry="24.08"/>
<text text-anchor="middle" x="613.58" y="-35.82" font-family="Times,serif" font-size="24.00">parseNumber</text>
</a>
</g>
</g>
<!-- options&#45;&gt;parseNumber -->
<g id="edge55" class="edge">
<title>options&#45;&gt;parseNumber</title>
<path fill="none" stroke="black" d="M105.91,-789.77C124.22,-763.86 153.96,-720.4 176.38,-681.02 321.55,-426.06 241.32,-277.61 464.38,-87.02 479.08,-74.47 497.21,-65.41 515.68,-58.88"/>
<polygon fill="black" stroke="black" points="516.72,-62.23 525.14,-55.8 514.55,-55.57 516.72,-62.23"/>
</g>
<!-- options&#45;&gt;parseMarkdown -->
<g id="edge65" class="edge">
<title>options&#45;&gt;parseMarkdown</title>
<path fill="none" stroke="black" d="M132.54,-830.18C201.85,-857.17 342.23,-910.07 464.38,-945.02 480.8,-949.72 498.41,-954.16 515.54,-958.16"/>
<polygon fill="black" stroke="black" points="514.72,-961.56 525.25,-960.39 516.28,-954.74 514.72,-961.56"/>
</g>
<!-- options&#45;&gt;replacement -->
<g id="edge66" class="edge">
<title>options&#45;&gt;replacement</title>
<path fill="none" stroke="black" d="M120.85,-833.59C138.25,-845.69 159.63,-861.95 176.38,-879.02 328.78,-1034.37 282.41,-1155.66 464.38,-1275.02 479.26,-1284.78 496.59,-1291.69 514.05,-1296.57"/>
<polygon fill="black" stroke="black" points="512.89,-1299.88 523.45,-1298.98 514.63,-1293.1 512.89,-1299.88"/>
</g>
<!-- updateTemplate -->
<g id="node40" class="node">
<title>updateTemplate</title>
<g id="a_node40"><a xlink:href="html/updateTemplate.html" xlink:title="updateTemplate" target="_parent">
<ellipse fill="none" stroke="black" cx="613.58" cy="-846.02" rx="119.5" ry="24.08"/>
<text text-anchor="middle" x="613.58" y="-839.82" font-family="Times,serif" font-size="24.00">updateTemplate</text>
</a>
</g>
</g>
<!-- options&#45;&gt;updateTemplate -->
<g id="edge75" class="edge">
<title>options&#45;&gt;updateTemplate</title>
<path fill="none" stroke="black" d="M149.23,-816.81C231.37,-821.99 380.78,-831.41 487.74,-838.15"/>
<polygon fill="black" stroke="black" points="487.22,-841.63 497.42,-838.76 487.66,-834.64 487.22,-841.63"/>
</g>
<!-- options&#45;&gt;repl -->
<g id="edge79" class="edge">
<title>options&#45;&gt;repl</title>
<path fill="none" stroke="black" d="M105.21,-789.42C163.87,-703.63 368.6,-410.27 464.38,-351.02 494.3,-332.52 533.3,-324.34 563.78,-320.75"/>
<polygon fill="black" stroke="black" points="563.92,-324.25 573.5,-319.74 563.19,-317.29 563.92,-324.25"/>
</g>
<!-- tables -->
<g id="node5" class="node">
<title>tables</title>
<ellipse fill="none" stroke="black" cx="88.19" cy="-648.02" rx="50.82" ry="24.08"/>
<text text-anchor="middle" x="88.19" y="-641.82" font-family="Times,serif" font-size="24.00">tables</text>
</g>
<!-- tables&#45;&gt;parseCommandLine -->
<g id="edge3" class="edge">
<title>tables&#45;&gt;parseCommandLine</title>
<path fill="none" stroke="black" d="M139.38,-648.02C210.85,-648.02 345.21,-648.02 452.55,-648.02"/>
<polygon fill="black" stroke="black" points="452.32,-651.52 462.32,-648.02 452.32,-644.52 452.32,-651.52"/>
</g>
<!-- args -->
<g id="node8" class="node">
<title>args</title>
<g id="a_node8"><a xlink:href="html/args.html" xlink:title="args" target="_parent">
<ellipse fill="none" stroke="black" cx="613.58" cy="-1242.02" rx="39.7" ry="24.08"/>
<text text-anchor="middle" x="613.58" y="-1235.82" font-family="Times,serif" font-size="24.00">args</text>
</a>
</g>
</g>
<!-- tables&#45;&gt;args -->
<g id="edge9" class="edge">
<title>tables&#45;&gt;args</title>
<path fill="none" stroke="black" d="M104.53,-671.2C174.17,-776.44 457.6,-1204.38 464.38,-1209.02 493.12,-1228.69 531.67,-1236.85 562.25,-1240.14"/>
<polygon fill="black" stroke="black" points="561.75,-1243.61 572.03,-1241.03 562.39,-1236.64 561.75,-1243.61"/>
</g>
<!-- tables&#45;&gt;cmdline -->
<g id="edge11" class="edge">
<title>tables&#45;&gt;cmdline</title>
<path fill="none" stroke="black" d="M106.02,-670.76C166.2,-751.46 371.96,-1022.17 464.38,-1077.02 486.3,-1090.03 512.8,-1097.92 537.3,-1102.7"/>
<polygon fill="black" stroke="black" points="536.44,-1106.1 546.9,-1104.42 537.67,-1099.21 536.44,-1106.1"/>
</g>
<!-- tables&#45;&gt;regexes -->
<g id="edge18" class="edge">
<title>tables&#45;&gt;regexes</title>
<path fill="none" stroke="black" d="M107.04,-625.6C124.77,-603.26 152.66,-567.93 176.38,-537.02 306.28,-367.8 285.14,-268.72 464.38,-153.02 486.76,-138.58 514.56,-130.39 540.02,-125.78"/>
<polygon fill="black" stroke="black" points="540.34,-129.27 549.65,-124.2 539.21,-122.37 540.34,-129.27"/>
</g>
<!-- tables&#45;&gt;processTemplate -->
<g id="edge20" class="edge">
<title>tables&#45;&gt;processTemplate</title>
<path fill="none" stroke="black" d="M137.49,-654.11C218.6,-664.34 384.32,-685.24 496.94,-699.44"/>
<polygon fill="black" stroke="black" points="496.49,-702.91 506.85,-700.69 497.37,-695.97 496.49,-702.91"/>
</g>
<!-- tables&#45;&gt;parseCmdLine -->
<g id="edge36" class="edge">
<title>tables&#45;&gt;parseCmdLine</title>
<path fill="none" stroke="black" d="M115.73,-627.28C174.86,-582.1 323.33,-474.26 464.38,-417.02 479.71,-410.8 496.43,-405.65 512.93,-401.41"/>
<polygon fill="black" stroke="black" points="513.39,-404.91 522.26,-399.12 511.72,-398.11 513.39,-404.91"/>
</g>
<!-- tables&#45;&gt;runCommand -->
<g id="edge39" class="edge">
<title>tables&#45;&gt;runCommand</title>
<path fill="none" stroke="black" d="M115.73,-668.77C174.86,-713.95 323.33,-821.79 464.38,-879.02 480.66,-885.63 498.52,-891.03 516.02,-895.41"/>
<polygon fill="black" stroke="black" points="514.84,-898.73 525.38,-897.66 516.47,-891.92 514.84,-898.73"/>
</g>
<!-- tables&#45;&gt;vartypes -->
<g id="edge42" class="edge">
<title>tables&#45;&gt;vartypes</title>
<path fill="none" stroke="black" d="M137.49,-641.93C228.9,-630.4 427.8,-605.32 537.02,-591.55"/>
<polygon fill="black" stroke="black" points="537.29,-595.04 546.77,-590.32 536.41,-588.1 537.29,-595.04"/>
</g>
<!-- tables&#45;&gt;variables -->
<g id="edge47" class="edge">
<title>tables&#45;&gt;variables</title>
<path fill="none" stroke="black" d="M132.66,-635.96C202.42,-616.75 343.77,-578.35 464.38,-549.02 489.26,-542.97 516.59,-536.76 540.93,-531.39"/>
<polygon fill="black" stroke="black" points="541.4,-534.87 550.41,-529.3 539.89,-528.03 541.4,-534.87"/>
</g>
<!-- tables&#45;&gt;functions -->
<g id="edge49" class="edge">
<title>tables&#45;&gt;functions</title>
<path fill="none" stroke="black" d="M106.58,-670.91C125.48,-696.51 155.73,-739.69 176.38,-780.02 340.81,-1101.18 191.61,-1302.85 464.38,-1539.02 481.93,-1554.22 504.95,-1562.87 527.6,-1567.67"/>
<polygon fill="black" stroke="black" points="526.7,-1571.06 537.17,-1569.46 527.98,-1564.18 526.7,-1571.06"/>
</g>
<!-- signatures -->
<g id="node34" class="node">
<title>signatures</title>
<g id="a_node34"><a xlink:href="html/signatures.html" xlink:title="signatures" target="_parent">
<ellipse fill="none" stroke="black" cx="613.58" cy="-252.02" rx="79.81" ry="24.08"/>
<text text-anchor="middle" x="613.58" y="-245.82" font-family="Times,serif" font-size="24.00">signatures</text>
</a>
</g>
</g>
<!-- tables&#45;&gt;signatures -->
<g id="edge59" class="edge">
<title>tables&#45;&gt;signatures</title>
<path fill="none" stroke="black" d="M109.28,-625.63C174.18,-553.77 379,-331 464.38,-285.02 483.55,-274.7 505.78,-267.6 527.1,-262.72"/>
<polygon fill="black" stroke="black" points="527.61,-266.19 536.66,-260.69 526.15,-259.35 527.61,-266.19"/>
</g>
<!-- readjson -->
<g id="node35" class="node">
<title>readjson</title>
<g id="a_node35"><a xlink:href="html/readjson.html" xlink:title="readjson" target="_parent">
<ellipse fill="none" stroke="black" cx="613.58" cy="-450.02" rx="69.09" ry="24.08"/>
<text text-anchor="middle" x="613.58" y="-443.82" font-family="Times,serif" font-size="24.00">readjson</text>
</a>
</g>
</g>
<!-- tables&#45;&gt;readjson -->
<g id="edge63" class="edge">
<title>tables&#45;&gt;readjson</title>
<path fill="none" stroke="black" d="M123.47,-630.22C188.42,-597.11 334.55,-525.57 464.38,-483.02 488.71,-475.05 515.91,-468.38 540.3,-463.16"/>
<polygon fill="black" stroke="black" points="540.73,-466.65 549.81,-461.18 539.3,-459.8 540.73,-466.65"/>
</g>
<!-- tables&#45;&gt;startingvars -->
<g id="edge71" class="edge">
<title>tables&#45;&gt;startingvars</title>
<path fill="none" stroke="black" d="M105.28,-671.13C170.51,-764.54 414.19,-1110.8 464.38,-1143.02 480.16,-1153.15 498.62,-1160.2 517.04,-1165.1"/>
<polygon fill="black" stroke="black" points="516.16,-1168.48 526.7,-1167.45 517.81,-1161.68 516.16,-1168.48"/>
</g>
<!-- tables&#45;&gt;updateTemplate -->
<g id="edge76" class="edge">
<title>tables&#45;&gt;updateTemplate</title>
<path fill="none" stroke="black" d="M123.47,-665.83C188.42,-698.93 334.55,-770.47 464.38,-813.02 480.3,-818.24 497.46,-822.9 514.25,-826.96"/>
<polygon fill="black" stroke="black" points="513.21,-830.31 523.74,-829.2 514.81,-823.5 513.21,-830.31"/>
</g>
<!-- tables&#45;&gt;repl -->
<g id="edge78" class="edge">
<title>tables&#45;&gt;repl</title>
<path fill="none" stroke="black" d="M109.62,-626.07C162.52,-570.64 310.61,-424.23 464.38,-351.02 495.69,-336.12 533.95,-327.82 563.75,-323.27"/>
<polygon fill="black" stroke="black" points="564.23,-326.74 573.64,-321.86 563.25,-319.81 564.23,-326.74"/>
</g>
<!-- os -->
<g id="node6" class="node">
<title>os</title>
<ellipse fill="none" stroke="black" cx="88.19" cy="-1176.02" rx="27" ry="24.08"/>
<text text-anchor="middle" x="88.19" y="-1169.82" font-family="Times,serif" font-size="24.00">os</text>
</g>
<!-- os&#45;&gt;statictea -->
<g id="edge86" class="edge">
<title>os&#45;&gt;statictea</title>
<path fill="none" stroke="black" d="M110.22,-1190.72C128.04,-1203.28 154.15,-1221.98 176.38,-1239.02 307.27,-1339.36 315.93,-1401.18 464.38,-1473.02 487.22,-1484.07 513.84,-1491.48 538.16,-1496.42"/>
<polygon fill="black" stroke="black" points="537.19,-1499.8 547.67,-1498.24 538.5,-1492.92 537.19,-1499.8"/>
</g>
<!-- os&#45;&gt;parseCommandLine -->
<g id="edge4" class="edge">
<title>os&#45;&gt;parseCommandLine</title>
<path fill="none" stroke="black" d="M110.86,-1162.58C129.54,-1150.33 156.56,-1131 176.38,-1110.02 334.1,-943.1 274.76,-810.57 464.38,-681.02 471.89,-675.9 480.06,-671.55 488.58,-667.87"/>
<polygon fill="black" stroke="black" points="489.71,-671.19 497.72,-664.26 487.13,-664.68 489.71,-671.19"/>
</g>
<!-- os&#45;&gt;cmdline -->
<g id="edge10" class="edge">
<title>os&#45;&gt;cmdline</title>
<path fill="none" stroke="black" d="M115.15,-1172.75C192.08,-1163.05 420.89,-1134.2 539.48,-1119.24"/>
<polygon fill="black" stroke="black" points="539.62,-1122.75 549.1,-1118.03 538.74,-1115.81 539.62,-1122.75"/>
</g>
<!-- os&#45;&gt;env -->
<g id="edge24" class="edge">
<title>os&#45;&gt;env</title>
<path fill="none" stroke="black" d="M110.05,-1190.15C177.32,-1235.5 388.54,-1376.25 464.38,-1407.02 497.26,-1420.37 536.55,-1428.8 566.41,-1433.8"/>
<polygon fill="black" stroke="black" points="565.84,-1437.25 576.27,-1435.38 566.94,-1430.34 565.84,-1437.25"/>
</g>
<!-- os&#45;&gt;tempFile -->
<g id="edge28" class="edge">
<title>os&#45;&gt;tempFile</title>
<path fill="none" stroke="black" d="M111.84,-1187.87C169.33,-1217.5 326.1,-1295.7 464.38,-1341.02 487.95,-1348.75 514.22,-1355.25 538.01,-1360.39"/>
<polygon fill="black" stroke="black" points="537.12,-1363.78 547.63,-1362.42 538.57,-1356.93 537.12,-1363.78"/>
</g>
<!-- os&#45;&gt;runCommand -->
<g id="edge40" class="edge">
<title>os&#45;&gt;runCommand</title>
<path fill="none" stroke="black" d="M109.04,-1160.42C162.91,-1118.85 317.66,-1004.56 464.38,-945.02 480.66,-938.42 498.52,-933.01 516.02,-928.63"/>
<polygon fill="black" stroke="black" points="516.47,-932.12 525.38,-926.39 514.84,-925.32 516.47,-932.12"/>
</g>
<!-- os&#45;&gt;functions -->
<g id="edge52" class="edge">
<title>os&#45;&gt;functions</title>
<path fill="none" stroke="black" d="M110.78,-1190.03C128.94,-1202.17 155.24,-1220.64 176.38,-1239.02 315.85,-1360.3 303.29,-1448.4 464.38,-1539.02 484.43,-1550.3 508.02,-1557.72 530.43,-1562.61"/>
<polygon fill="black" stroke="black" points="529.67,-1566.03 540.17,-1564.58 531.06,-1559.17 529.67,-1566.03"/>
</g>
<!-- os&#45;&gt;readjson -->
<g id="edge61" class="edge">
<title>os&#45;&gt;readjson</title>
<path fill="none" stroke="black" d="M111.72,-1163.33C130.96,-1151.57 158.31,-1132.52 176.38,-1110.02 368.42,-870.94 225.87,-675.76 464.38,-483.02 483.85,-467.29 509.26,-458.69 533.54,-454.09"/>
<polygon fill="black" stroke="black" points="533.8,-457.6 543.09,-452.5 532.65,-450.69 533.8,-457.6"/>
</g>
<!-- os&#45;&gt;startingvars -->
<g id="edge70" class="edge">
<title>os&#45;&gt;startingvars</title>
<path fill="none" stroke="black" d="M115.5,-1176.02C187.07,-1176.02 388.11,-1176.02 511.49,-1176.02"/>
<polygon fill="black" stroke="black" points="511.3,-1179.52 521.3,-1176.02 511.3,-1172.52 511.3,-1179.52"/>
</g>
<!-- os&#45;&gt;updateTemplate -->
<g id="edge74" class="edge">
<title>os&#45;&gt;updateTemplate</title>
<path fill="none" stroke="black" d="M109.4,-1160.98C127.15,-1147.7 153.62,-1127.76 176.38,-1110.02 305.81,-1009.16 316.46,-950.03 464.38,-879.02 477.45,-872.75 491.74,-867.65 506.12,-863.51"/>
<polygon fill="black" stroke="black" points="506.93,-866.92 515.66,-860.92 505.09,-860.16 506.93,-866.92"/>
</g>
<!-- strformat -->
<g id="node7" class="node">
<title>strformat</title>
<ellipse fill="none" stroke="black" cx="88.19" cy="-1272.02" rx="74.49" ry="24.08"/>
<text text-anchor="middle" x="88.19" y="-1265.82" font-family="Times,serif" font-size="24.00">strformat</text>
</g>
<!-- strformat&#45;&gt;args -->
<g id="edge5" class="edge">
<title>strformat&#45;&gt;args</title>
<path fill="none" stroke="black" d="M161.97,-1267.85C269.85,-1261.67 469.44,-1250.23 562.45,-1244.9"/>
<polygon fill="black" stroke="black" points="562.49,-1248.4 572.27,-1244.33 562.09,-1241.41 562.49,-1248.4"/>
</g>
<!-- strformat&#45;&gt;messages -->
<g id="edge8" class="edge">
<title>strformat&#45;&gt;messages</title>
<path fill="none" stroke="black" d="M128.7,-1292.41C144.12,-1301.06 161.61,-1311.74 176.38,-1323.02 318.77,-1431.73 306.91,-1519.61 464.38,-1605.02 484.6,-1615.99 508.25,-1623.31 530.65,-1628.2"/>
<polygon fill="black" stroke="black" points="529.89,-1631.62 540.39,-1630.18 531.28,-1624.76 529.89,-1631.62"/>
</g>
<!-- strformat&#45;&gt;replacement -->
<g id="edge68" class="edge">
<title>strformat&#45;&gt;replacement</title>
<path fill="none" stroke="black" d="M161.42,-1276.99C251.97,-1283.22 407.74,-1293.93 510.46,-1301"/>
<polygon fill="black" stroke="black" points="510.06,-1304.48 520.28,-1301.67 510.54,-1297.5 510.06,-1304.48"/>
</g>
<!-- strformat&#45;&gt;repl -->
<g id="edge81" class="edge">
<title>strformat&#45;&gt;repl</title>
<path fill="none" stroke="black" d="M127.82,-1251.48C144.76,-1240.79 163.65,-1226.32 176.38,-1209.02 414.81,-885.06 165.45,-620.17 464.38,-351.02 491.16,-326.91 531.6,-319.14 563.48,-317.13"/>
<polygon fill="black" stroke="black" points="563.44,-320.64 573.28,-316.7 563.14,-313.65 563.44,-320.64"/>
</g>
<!-- macros -->
<g id="node9" class="node">
<title>macros</title>
<polygon fill="palegreen" stroke="black" points="153.84,-1717.24 153.84,-1738.81 115.39,-1754.06 61,-1754.06 22.54,-1738.81 22.54,-1717.24 61,-1701.98 115.39,-1701.98 153.84,-1717.24"/>
<polygon fill="none" stroke="black" points="157.83,-1714.51 157.83,-1741.53 116.15,-1758.07 60.24,-1758.07 18.55,-1741.53 18.55,-1714.51 60.24,-1697.98 116.15,-1697.98 157.83,-1714.51"/>
<text text-anchor="middle" x="88.19" y="-1721.82" font-family="Times,serif" font-size="24.00">macros</text>
</g>
<!-- macros&#45;&gt;messages -->
<g id="edge6" class="edge">
<title>macros&#45;&gt;messages</title>
<path fill="none" stroke="black" d="M158.15,-1716.16C255.81,-1699.37 433.82,-1668.76 535.65,-1651.25"/>
<polygon fill="black" stroke="black" points="536.01,-1654.74 545.28,-1649.6 534.83,-1647.84 536.01,-1654.74"/>
</g>
<!-- re -->
<g id="node13" class="node">
<title>re</title>
<polygon fill="palegreen" stroke="black" points="115.19,-97.24 115.19,-118.81 99.37,-134.06 77.01,-134.06 61.19,-118.81 61.19,-97.24 77.01,-81.98 99.37,-81.98 115.19,-97.24"/>
<polygon fill="none" stroke="black" points="119.19,-95.53 119.19,-120.51 100.99,-138.07 75.39,-138.07 57.19,-120.51 57.19,-95.53 75.39,-77.98 100.99,-77.98 119.19,-95.53"/>
<text text-anchor="middle" x="88.19" y="-101.82" font-family="Times,serif" font-size="24.00">re</text>
</g>
<!-- re&#45;&gt;regexes -->
<g id="edge16" class="edge">
<title>re&#45;&gt;regexes</title>
<path fill="none" stroke="black" d="M119.59,-108.72C200.46,-110.57 422.61,-115.67 539.1,-118.34"/>
<polygon fill="black" stroke="black" points="538.79,-121.83 548.86,-118.56 538.95,-114.83 538.79,-121.83"/>
</g>
<!-- streams -->
<g id="node16" class="node">
<title>streams</title>
<ellipse fill="none" stroke="black" cx="88.19" cy="-912.02" rx="62.87" ry="24.08"/>
<text text-anchor="middle" x="88.19" y="-905.82" font-family="Times,serif" font-size="24.00">streams</text>
</g>
<!-- streams&#45;&gt;processTemplate -->
<g id="edge22" class="edge">
<title>streams&#45;&gt;processTemplate</title>
<path fill="none" stroke="black" d="M126.57,-892.64C192.98,-858.88 336.58,-788.91 464.38,-747.02 479.64,-742.02 496.04,-737.53 512.16,-733.59"/>
<polygon fill="black" stroke="black" points="512.87,-737.02 521.79,-731.3 511.25,-730.21 512.87,-737.02"/>
</g>
<!-- streams&#45;&gt;env -->
<g id="edge23" class="edge">
<title>streams&#45;&gt;env</title>
<path fill="none" stroke="black" d="M105.5,-935.45C171.06,-1029.32 414.24,-1374.84 464.38,-1407.02 494.67,-1426.47 534.82,-1434.56 565.68,-1437.87"/>
<polygon fill="black" stroke="black" points="565.23,-1441.35 575.51,-1438.78 565.88,-1434.38 565.23,-1441.35"/>
</g>
<!-- streams&#45;&gt;tempFile -->
<g id="edge32" class="edge">
<title>streams&#45;&gt;tempFile</title>
<path fill="none" stroke="black" d="M106.44,-935.32C167.14,-1016.7 372.17,-1286.29 464.38,-1341.02 484.83,-1353.16 509.28,-1360.84 532.37,-1365.7"/>
<polygon fill="black" stroke="black" points="531.6,-1369.12 542.08,-1367.58 532.93,-1362.25 531.6,-1369.12"/>
</g>
<!-- streams&#45;&gt;linebuffer -->
<g id="edge33" class="edge">
<title>streams&#45;&gt;linebuffer</title>
<path fill="none" stroke="black" d="M140.01,-897.94C211.99,-878.15 347.86,-841.36 464.38,-813.02 487.93,-807.3 513.69,-801.42 537.02,-796.25"/>
<polygon fill="black" stroke="black" points="537.77,-799.67 546.78,-794.1 536.26,-792.84 537.77,-799.67"/>
</g>
<!-- streams&#45;&gt;runCommand -->
<g id="edge41" class="edge">
<title>streams&#45;&gt;runCommand</title>
<path fill="none" stroke="black" d="M151.54,-912.02C236.54,-912.02 390.36,-912.02 496.81,-912.02"/>
<polygon fill="black" stroke="black" points="496.74,-915.52 506.74,-912.02 496.74,-908.52 496.74,-915.52"/>
</g>
<!-- streams&#45;&gt;readjson -->
<g id="edge60" class="edge">
<title>streams&#45;&gt;readjson</title>
<path fill="none" stroke="black" d="M120.57,-891.18C137.89,-878.99 159.27,-862.74 176.38,-846.02 323.65,-702.06 289.85,-592.35 464.38,-483.02 485.3,-469.92 510.76,-461.98 534.62,-457.19"/>
<polygon fill="black" stroke="black" points="535.12,-460.66 544.33,-455.42 533.86,-453.77 535.12,-460.66"/>
</g>
<!-- streams&#45;&gt;replacement -->
<g id="edge67" class="edge">
<title>streams&#45;&gt;replacement</title>
<path fill="none" stroke="black" d="M105.62,-935.15C153.07,-1000.1 297.6,-1185.21 464.38,-1275.02 480.43,-1283.66 498.62,-1290.05 516.63,-1294.76"/>
<polygon fill="black" stroke="black" points="515.78,-1298.15 526.32,-1297.12 517.44,-1291.35 515.78,-1298.15"/>
</g>
<!-- streams&#45;&gt;updateTemplate -->
<g id="edge73" class="edge">
<title>streams&#45;&gt;updateTemplate</title>
<path fill="none" stroke="black" d="M148.47,-904.55C233.64,-893.81 392.23,-873.81 500.08,-860.21"/>
<polygon fill="black" stroke="black" points="500.34,-863.7 509.83,-858.98 499.47,-856.76 500.34,-863.7"/>
</g>
<!-- times -->
<g id="node18" class="node">
<title>times</title>
<ellipse fill="none" stroke="red" cx="88.19" cy="-1512.02" rx="48.17" ry="24.08"/>
<text text-anchor="middle" x="88.19" y="-1505.82" font-family="Times,serif" font-size="24.00">times</text>
</g>
<!-- times&#45;&gt;env -->
<g id="edge25" class="edge">
<title>times&#45;&gt;env</title>
<path fill="none" stroke="red" d="M135.18,-1505.7C234.4,-1492.05 467.57,-1459.97 566.7,-1446.33"/>
<polygon fill="red" stroke="red" points="566.89,-1449.84 576.32,-1445.01 565.94,-1442.91 566.89,-1449.84"/>
</g>
<!-- timer -->
<g id="node45" class="node">
<title>timer</title>
<g id="a_node45"><a xlink:href="html/timer.html" xlink:title="timer" target="_parent">
<ellipse fill="none" stroke="black" cx="613.58" cy="-1704.02" rx="48.17" ry="24.08"/>
<text text-anchor="middle" x="613.58" y="-1697.82" font-family="Times,serif" font-size="24.00">timer</text>
</a>
</g>
</g>
<!-- times&#45;&gt;timer -->
<g id="edge84" class="edge">
<title>times&#45;&gt;timer</title>
<path fill="none" stroke="red" d="M127.55,-1526.06C142.81,-1531.77 160.49,-1538.55 176.38,-1545.02 305.76,-1597.77 331.57,-1627.64 464.38,-1671.02 494.22,-1680.77 528.37,-1688.59 556.36,-1694.17"/>
<polygon fill="red" stroke="red" points="555.58,-1697.58 566.07,-1696.05 556.92,-1690.71 555.58,-1697.58"/>
</g>
<!-- random -->
<g id="node20" class="node">
<title>random</title>
<polygon fill="palegreen" stroke="black" points="156.96,-1351.24 156.96,-1372.81 116.68,-1388.06 59.7,-1388.06 19.42,-1372.81 19.42,-1351.24 59.7,-1335.98 116.68,-1335.98 156.96,-1351.24"/>
<polygon fill="none" stroke="black" points="160.96,-1348.47 160.96,-1375.58 117.41,-1392.07 58.97,-1392.07 15.42,-1375.58 15.42,-1348.47 58.97,-1331.98 117.41,-1331.98 160.96,-1348.47"/>
<text text-anchor="middle" x="88.19" y="-1355.82" font-family="Times,serif" font-size="24.00">random</text>
</g>
<!-- random&#45;&gt;tempFile -->
<g id="edge29" class="edge">
<title>random&#45;&gt;tempFile</title>
<path fill="none" stroke="black" d="M161.42,-1363.68C257.81,-1365.89 428.14,-1369.79 529.67,-1372.12"/>
<polygon fill="black" stroke="black" points="529.51,-1375.62 539.58,-1372.35 529.67,-1368.62 529.51,-1375.62"/>
</g>
<!-- math -->
<g id="node27" class="node">
<title>math</title>
<ellipse fill="none" stroke="red" cx="88.19" cy="-1656.02" rx="45.92" ry="24.08"/>
<text text-anchor="middle" x="88.19" y="-1649.82" font-family="Times,serif" font-size="24.00">math</text>
</g>
<!-- math&#45;&gt;functions -->
<g id="edge51" class="edge">
<title>math&#45;&gt;functions</title>
<path fill="none" stroke="red" d="M132.47,-1649.08C220.79,-1634.9 422.87,-1602.47 534.65,-1584.53"/>
<polygon fill="red" stroke="red" points="535.02,-1588.01 544.34,-1582.97 533.91,-1581.1 535.02,-1588.01"/>
</g>
<!-- math&#45;&gt;timer -->
<g id="edge85" class="edge">
<title>math&#45;&gt;timer</title>
<path fill="none" stroke="red" d="M133.81,-1660.11C228.41,-1668.79 449.03,-1689.02 554.46,-1698.69"/>
<polygon fill="red" stroke="red" points="554.04,-1702.17 564.32,-1699.6 554.68,-1695.2 554.04,-1702.17"/>
</g>
<!-- algorithm -->
<g id="node28" class="node">
<title>algorithm</title>
<polygon fill="palegreen" stroke="black" points="172.56,-1573.24 172.56,-1594.81 123.14,-1610.06 53.24,-1610.06 3.82,-1594.81 3.82,-1573.24 53.24,-1557.98 123.14,-1557.98 172.56,-1573.24"/>
<polygon fill="none" stroke="black" points="176.57,-1570.28 176.57,-1597.76 123.74,-1614.07 52.64,-1614.07 -0.19,-1597.76 -0.19,-1570.28 52.64,-1553.98 123.74,-1553.98 176.57,-1570.28"/>
<text text-anchor="middle" x="88.19" y="-1577.82" font-family="Times,serif" font-size="24.00">algorithm</text>
</g>
<!-- algorithm&#45;&gt;functions -->
<g id="edge53" class="edge">
<title>algorithm&#45;&gt;functions</title>
<path fill="none" stroke="black" d="M176.79,-1582.01C274.25,-1579.78 430.65,-1576.19 527.2,-1573.98"/>
<polygon fill="black" stroke="black" points="527.24,-1577.48 537.16,-1573.75 527.08,-1570.48 527.24,-1577.48"/>
</g>
<!-- uri -->
<g id="node29" class="node">
<title>uri</title>
<polygon fill="palegreen" stroke="black" points="122.02,-1429.24 122.02,-1450.81 102.2,-1466.06 74.18,-1466.06 54.36,-1450.81 54.36,-1429.24 74.18,-1413.98 102.2,-1413.98 122.02,-1429.24"/>
<polygon fill="none" stroke="black" points="126.04,-1427.27 126.04,-1452.78 103.58,-1470.07 72.8,-1470.07 50.34,-1452.78 50.34,-1427.27 72.8,-1409.98 103.58,-1409.98 126.04,-1427.27"/>
<text text-anchor="middle" x="88.19" y="-1433.82" font-family="Times,serif" font-size="24.00">uri</text>
</g>
<!-- uri&#45;&gt;functions -->
<g id="edge54" class="edge">
<title>uri&#45;&gt;functions</title>
<path fill="none" stroke="black" d="M126.35,-1450.34C193.58,-1468.89 340.01,-1508.78 464.38,-1539.02 488.7,-1544.94 515.37,-1551 539.3,-1556.3"/>
<polygon fill="black" stroke="black" points="538.45,-1559.69 548.97,-1558.42 539.95,-1552.86 538.45,-1559.69"/>
</g>
<!-- parseutils -->
<g id="node31" class="node">
<title>parseutils</title>
<polygon fill="palegreen" stroke="black" points="171,-19.24 171,-40.81 122.49,-56.06 53.89,-56.06 5.38,-40.81 5.38,-19.24 53.89,-3.98 122.49,-3.98 171,-19.24"/>
<polygon fill="none" stroke="black" points="175.01,-16.3 175.01,-43.75 123.11,-60.07 53.27,-60.07 1.37,-43.75 1.37,-16.3 53.27,0.02 123.11,0.02 175.01,-16.3"/>
<text text-anchor="middle" x="88.19" y="-23.82" font-family="Times,serif" font-size="24.00">parseutils</text>
</g>
<!-- parseutils&#45;&gt;parseNumber -->
<g id="edge56" class="edge">
<title>parseutils&#45;&gt;parseNumber</title>
<path fill="none" stroke="black" d="M175.32,-32C263.67,-34.02 401.55,-37.18 498.82,-39.41"/>
<polygon fill="black" stroke="black" points="498.59,-42.91 508.67,-39.64 498.75,-35.91 498.59,-42.91"/>
</g>
<!-- unicode -->
<g id="node32" class="node">
<title>unicode</title>
<polygon fill="palegreen" stroke="black" points="158.52,-175.24 158.52,-196.81 117.32,-212.06 59.06,-212.06 17.86,-196.81 17.86,-175.24 59.06,-159.98 117.32,-159.98 158.52,-175.24"/>
<polygon fill="none" stroke="black" points="162.52,-172.45 162.52,-199.6 118.04,-216.07 58.34,-216.07 13.86,-199.6 13.86,-172.45 58.34,-155.98 118.04,-155.98 162.52,-172.45"/>
<text text-anchor="middle" x="88.19" y="-179.82" font-family="Times,serif" font-size="24.00">unicode</text>
</g>
<!-- unicode&#45;&gt;unicodes -->
<g id="edge57" class="edge">
<title>unicode&#45;&gt;unicodes</title>
<path fill="none" stroke="black" d="M162.79,-186.02C259.72,-186.02 429.63,-186.02 530.57,-186.02"/>
<polygon fill="black" stroke="black" points="530.41,-189.52 540.41,-186.02 530.41,-182.52 530.41,-189.52"/>
</g>
<!-- json -->
<g id="node36" class="node">
<title>json</title>
<polygon fill="palegreen" stroke="black" points="130.92,-487.24 130.92,-508.81 105.89,-524.06 70.49,-524.06 45.46,-508.81 45.46,-487.24 70.49,-471.98 105.89,-471.98 130.92,-487.24"/>
<polygon fill="none" stroke="black" points="134.91,-484.98 134.91,-511.06 107.01,-528.07 69.37,-528.07 41.47,-511.06 41.47,-484.98 69.37,-467.98 107.01,-467.98 134.91,-484.98"/>
<text text-anchor="middle" x="88.19" y="-491.82" font-family="Times,serif" font-size="24.00">json</text>
</g>
<!-- json&#45;&gt;readjson -->
<g id="edge62" class="edge">
<title>json&#45;&gt;readjson</title>
<path fill="none" stroke="black" d="M135.18,-493.8C224.92,-485.57 424.26,-467.29 534.87,-457.15"/>
<polygon fill="black" stroke="black" points="535.12,-460.64 544.76,-456.24 534.48,-453.67 535.12,-460.64"/>
</g>
<!-- rdstdin -->
<g id="node41" class="node">
<title>rdstdin</title>
<polygon fill="palegreen" stroke="black" points="151.74,-409.24 151.74,-430.81 114.51,-446.06 61.87,-446.06 24.64,-430.81 24.64,-409.24 61.87,-393.98 114.51,-393.98 151.74,-409.24"/>
<polygon fill="none" stroke="black" points="155.74,-406.55 155.74,-433.5 115.3,-450.07 61.08,-450.07 20.64,-433.5 20.64,-406.55 61.08,-389.98 115.3,-389.98 155.74,-406.55"/>
<text text-anchor="middle" x="88.19" y="-413.82" font-family="Times,serif" font-size="24.00">rdstdin</text>
</g>
<!-- rdstdin&#45;&gt;repl -->
<g id="edge77" class="edge">
<title>rdstdin&#45;&gt;repl</title>
<path fill="none" stroke="black" d="M156.01,-407C263.42,-386.07 471.87,-345.45 565.29,-327.24"/>
<polygon fill="black" stroke="black" points="565.73,-330.72 574.88,-325.37 564.39,-323.85 565.73,-330.72"/>
</g>
<!-- terminal -->
<g id="node43" class="node">
<title>terminal</title>
<polygon fill="palegreen" stroke="black" points="162.66,-331.24 162.66,-352.81 119.04,-368.06 57.34,-368.06 13.72,-352.81 13.72,-331.24 57.34,-315.98 119.04,-315.98 162.66,-331.24"/>
<polygon fill="none" stroke="black" points="166.67,-328.4 166.67,-355.65 119.72,-372.07 56.66,-372.07 9.71,-355.65 9.71,-328.4 56.66,-311.98 119.72,-311.98 166.67,-328.4"/>
<text text-anchor="middle" x="88.19" y="-335.82" font-family="Times,serif" font-size="24.00">terminal</text>
</g>
<!-- terminal&#45;&gt;repl -->
<g id="edge82" class="edge">
<title>terminal&#45;&gt;repl</title>
<path fill="none" stroke="black" d="M166.98,-338.46C276.38,-333.44 472.47,-324.45 563.57,-320.27"/>
<polygon fill="black" stroke="black" points="563.59,-323.77 573.42,-319.82 563.27,-316.78 563.59,-323.77"/>
</g>
<!-- exitprocs -->
<g id="node44" class="node">
<title>exitprocs</title>
<polygon fill="palegreen" stroke="black" points="167.88,-253.24 167.88,-274.81 121.2,-290.06 55.18,-290.06 8.5,-274.81 8.5,-253.24 55.18,-237.98 121.2,-237.98 167.88,-253.24"/>
<polygon fill="none" stroke="black" points="171.89,-250.33 171.89,-277.71 121.84,-294.07 54.54,-294.07 4.49,-277.71 4.49,-250.33 54.54,-233.98 121.84,-233.98 171.89,-250.33"/>
<text text-anchor="middle" x="88.19" y="-257.82" font-family="Times,serif" font-size="24.00">exitprocs</text>
</g>
<!-- exitprocs&#45;&gt;repl -->
<g id="edge83" class="edge">
<title>exitprocs&#45;&gt;repl</title>
<path fill="none" stroke="black" d="M172.12,-272.58C282.6,-283.98 474.51,-303.78 564.02,-313.01"/>
<polygon fill="black" stroke="black" points="563.62,-316.49 573.93,-314.03 564.34,-309.53 563.62,-316.49"/>
</g>
</g>
</svg>
