<?xml version="1.0" encoding="UTF-8" standalone="no"?>
<!DOCTYPE svg PUBLIC "-//W3C//DTD SVG 1.1//EN"
 "http://www.w3.org/Graphics/SVG/1.1/DTD/svg11.dtd">
<!-- Generated by graphviz version 2.40.1 (20161225.0304)
 -->
<!-- Title: statictea Pages: 1 -->
<svg width="720pt" height="311pt"
 viewBox="0.00 0.00 720.00 310.81" xmlns="http://www.w3.org/2000/svg" xmlns:xlink="http://www.w3.org/1999/xlink">
<g id="graph0" class="graph" transform="scale(.2385 .2385) rotate(0) translate(4 1299.4115)">
<title>statictea</title>
<polygon fill="#ffffff" stroke="transparent" points="-4,4 -4,-1299.4115 3015.3449,-1299.4115 3015.3449,4 -4,4"/>
<!-- runFunction -->
<g id="node1" class="node">
<title>runFunction</title>
<g id="a_node1"><a xlink:href="runFunction.md" xlink:title="runFunction.md">
<ellipse fill="#eee8aa" stroke="#000000" cx="818" cy="-859" rx="94.055" ry="22.7556"/>
<text text-anchor="middle" x="818" y="-851.8" font-family="Times,serif" font-size="24.00" fill="#000000">runFunction</text>
</a>
</g>
</g>
<!-- parseNumber -->
<g id="node3" class="node">
<title>parseNumber</title>
<g id="a_node3"><a xlink:href="parseNumber.md" xlink:title="parseNumber.md">
<polygon fill="#98fb98" stroke="#000000" points="1202.3805,-717.8581 1202.3805,-738.1419 1137.1353,-752.4846 1044.8647,-752.4846 979.6195,-738.1419 979.6195,-717.8581 1044.8647,-703.5154 1137.1353,-703.5154 1202.3805,-717.8581"/>
<polygon fill="none" stroke="#000000" points="1206.3872,-714.6442 1206.3872,-741.3558 1137.5714,-756.4835 1044.4286,-756.4835 975.6128,-741.3558 975.6128,-714.6442 1044.4286,-699.5165 1137.5714,-699.5165 1206.3872,-714.6442"/>
<text text-anchor="middle" x="1091" y="-720.8" font-family="Times,serif" font-size="24.00" fill="#000000">parseNumber</text>
</a>
</g>
</g>
<!-- runFunction&#45;&gt;parseNumber -->
<g id="edge63" class="edge">
<title>runFunction&#45;&gt;parseNumber</title>
<path fill="none" stroke="#000000" d="M860.3567,-838.675C904.7199,-817.3872 974.9504,-783.6868 1026.2685,-759.0616"/>
<polygon fill="#000000" stroke="#000000" points="1027.7963,-762.2107 1035.2979,-754.7289 1024.7679,-755.8996 1027.7963,-762.2107"/>
</g>
<!-- regexes -->
<g id="node4" class="node">
<title>regexes</title>
<g id="a_node4"><a xlink:href="regexes.md" xlink:title="regexes.md">
<polygon fill="#98fb98" stroke="#000000" points="1839.187,-436.8581 1839.187,-457.1419 1799.244,-471.4846 1742.756,-471.4846 1702.813,-457.1419 1702.813,-436.8581 1742.756,-422.5154 1799.244,-422.5154 1839.187,-436.8581"/>
<polygon fill="none" stroke="#000000" points="1843.1781,-434.0434 1843.1781,-459.9566 1799.9376,-475.4835 1742.0624,-475.4835 1698.8219,-459.9566 1698.8219,-434.0434 1742.0624,-418.5165 1799.9376,-418.5165 1843.1781,-434.0434"/>
<text text-anchor="middle" x="1771" y="-439.8" font-family="Times,serif" font-size="24.00" fill="#000000">regexes</text>
</a>
</g>
</g>
<!-- runFunction&#45;&gt;regexes -->
<g id="edge62" class="edge">
<title>runFunction&#45;&gt;regexes</title>
<path fill="none" stroke="#000000" d="M832.8939,-836.5375C861.9881,-792.6654 923.5912,-699.8095 924,-699.5083 1030.66,-620.9257 1085.9285,-661.9441 1210,-615.4917 1266.8012,-594.2254 1276.8263,-578.752 1334,-558.5083 1455.8849,-515.352 1602.3609,-481.4736 1690.9856,-462.8609"/>
<polygon fill="#000000" stroke="#000000" points="1691.8957,-466.2465 1700.9698,-460.7773 1690.4656,-459.3941 1691.8957,-466.2465"/>
</g>
<!-- unicodes -->
<g id="node8" class="node">
<title>unicodes</title>
<g id="a_node8"><a xlink:href="unicodes.md" xlink:title="unicodes.md">
<ellipse fill="#eee8aa" stroke="#000000" cx="442" cy="-728" rx="71.7778" ry="22.7556"/>
<text text-anchor="middle" x="442" y="-720.8" font-family="Times,serif" font-size="24.00" fill="#000000">unicodes</text>
</a>
</g>
</g>
<!-- runFunction&#45;&gt;unicodes -->
<g id="edge74" class="edge">
<title>runFunction&#45;&gt;unicodes</title>
<path fill="none" stroke="#000000" d="M764.1284,-840.2309C694.1163,-815.8384 572.3203,-773.4042 500.2322,-748.2883"/>
<polygon fill="#000000" stroke="#000000" points="500.9955,-744.848 490.4007,-744.863 498.6924,-751.4583 500.9955,-744.848"/>
</g>
<!-- vartypes -->
<g id="node11" class="node">
<title>vartypes</title>
<g id="a_node11"><a xlink:href="vartypes.md" xlink:title="vartypes.md">
<ellipse fill="#eee8aa" stroke="#000000" cx="837" cy="-447" rx="68.6102" ry="22.7556"/>
<text text-anchor="middle" x="837" y="-439.8" font-family="Times,serif" font-size="24.00" fill="#000000">vartypes</text>
</a>
</g>
</g>
<!-- runFunction&#45;&gt;vartypes -->
<g id="edge61" class="edge">
<title>runFunction&#45;&gt;vartypes</title>
<path fill="none" stroke="#000000" d="M765.3603,-840.0448C729.136,-823.9111 683.7719,-796.8498 662,-756.4917 649.9756,-734.2023 650.7733,-722.2099 662,-699.5083 689.2702,-644.365 735.0964,-664.7114 772,-615.4917 803.1557,-573.9383 821.2069,-515.6142 830.0679,-479.6209"/>
<polygon fill="#000000" stroke="#000000" points="833.5299,-480.1896 832.4271,-469.6523 826.7181,-478.5775 833.5299,-480.1896"/>
</g>
<!-- funtypes -->
<g id="node14" class="node">
<title>funtypes</title>
<g id="a_node14"><a xlink:href="funtypes.md" xlink:title="funtypes.md">
<ellipse fill="#eee8aa" stroke="#000000" cx="894" cy="-587" rx="69.5163" ry="22.7556"/>
<text text-anchor="middle" x="894" y="-579.8" font-family="Times,serif" font-size="24.00" fill="#000000">funtypes</text>
</a>
</g>
</g>
<!-- runFunction&#45;&gt;funtypes -->
<g id="edge79" class="edge">
<title>runFunction&#45;&gt;funtypes</title>
<path fill="none" stroke="#000000" d="M770.6748,-839.4265C737.2362,-822.7802 694.9548,-795.3483 675,-756.4917 663.4303,-733.9629 661.8033,-721.1243 675,-699.5083 693.4613,-669.269 779.8434,-631.016 838.4417,-607.8075"/>
<polygon fill="#000000" stroke="#000000" points="839.9228,-610.9862 847.9534,-604.0753 837.3659,-604.4699 839.9228,-610.9862"/>
</g>
<!-- warnings -->
<g id="node16" class="node">
<title>warnings</title>
<g id="a_node16"><a xlink:href="warnings.md" xlink:title="warnings.md">
<ellipse fill="#eee8aa" stroke="#000000" cx="1190" cy="-183" rx="73.5561" ry="22.7556"/>
<text text-anchor="middle" x="1190" y="-175.8" font-family="Times,serif" font-size="24.00" fill="#000000">warnings</text>
</a>
</g>
</g>
<!-- runFunction&#45;&gt;warnings -->
<g id="edge60" class="edge">
<title>runFunction&#45;&gt;warnings</title>
<path fill="none" stroke="#000000" d="M825.2536,-836.3412C838.1452,-797.2606 865.6077,-719.448 886,-699.5083 957.8756,-629.2279 1031.0767,-692.2407 1096,-615.4917 1196.4792,-496.7105 1196.8183,-295.2732 1192.5679,-216.2341"/>
<polygon fill="#000000" stroke="#000000" points="1196.0414,-215.687 1191.9476,-205.915 1189.054,-216.107 1196.0414,-215.687"/>
</g>
<!-- signatures -->
<g id="node20" class="node">
<title>signatures</title>
<g id="a_node20"><a xlink:href="signatures.md" xlink:title="signatures.md">
<ellipse fill="#eee8aa" stroke="#000000" cx="764" cy="-728" rx="80.2483" ry="22.7556"/>
<text text-anchor="middle" x="764" y="-720.8" font-family="Times,serif" font-size="24.00" fill="#000000">signatures</text>
</a>
</g>
</g>
<!-- runFunction&#45;&gt;signatures -->
<g id="edge78" class="edge">
<title>runFunction&#45;&gt;signatures</title>
<path fill="none" stroke="#000000" d="M808.7171,-836.4803C800.0239,-815.3914 786.9437,-783.6597 777.1726,-759.9559"/>
<polygon fill="#000000" stroke="#000000" points="780.3895,-758.5757 773.3425,-750.6642 773.9178,-761.2435 780.3895,-758.5757"/>
</g>
<!-- messages -->
<g id="node23" class="node">
<title>messages</title>
<g id="a_node23"><a xlink:href="messages.md" xlink:title="messages.md">
<polygon fill="#98fb98" stroke="#000000" points="1454.7388,-32.8581 1454.7388,-53.1419 1406.8573,-67.4846 1339.1427,-67.4846 1291.2612,-53.1419 1291.2612,-32.8581 1339.1427,-18.5154 1406.8573,-18.5154 1454.7388,-32.8581"/>
<polygon fill="none" stroke="#000000" points="1458.7446,-29.883 1458.7446,-56.117 1407.4454,-71.4835 1338.5546,-71.4835 1287.2554,-56.117 1287.2554,-29.883 1338.5546,-14.5165 1407.4454,-14.5165 1458.7446,-29.883"/>
<text text-anchor="middle" x="1373" y="-35.8" font-family="Times,serif" font-size="24.00" fill="#000000">messages</text>
</a>
</g>
</g>
<!-- runFunction&#45;&gt;messages -->
<g id="edge59" class="edge">
<title>runFunction&#45;&gt;messages</title>
<path fill="none" stroke="#000000" d="M732.5744,-849.1852C616.4335,-834.3041 416.7627,-802.7766 361,-756.4917 245.7988,-660.8709 228,-596.7152 228,-447 228,-447 228,-447 228,-315 228,-204.8005 315.9365,-198.441 417,-154.5083 570.0368,-87.9825 1066.1935,-57.3875 1276.9184,-47.1516"/>
<polygon fill="#000000" stroke="#000000" points="1277.2189,-50.6413 1287.0392,-46.665 1276.8827,-43.6494 1277.2189,-50.6413"/>
</g>
<!-- matches -->
<g id="node24" class="node">
<title>matches</title>
<g id="a_node24"><a xlink:href="matches.md" xlink:title="matches.md">
<ellipse fill="#eee8aa" stroke="#000000" cx="1787" cy="-587" rx="66.8311" ry="22.7556"/>
<text text-anchor="middle" x="1787" y="-579.8" font-family="Times,serif" font-size="24.00" fill="#000000">matches</text>
</a>
</g>
</g>
<!-- runFunction&#45;&gt;matches -->
<g id="edge64" class="edge">
<title>runFunction&#45;&gt;matches</title>
<path fill="none" stroke="#000000" d="M843.0661,-836.8176C865.2532,-816.7133 898.0467,-785.8278 924,-756.4917 945.0229,-732.7288 939.6309,-715.5573 967,-699.5083 999.1566,-680.6519 1518.094,-618.4264 1713.4217,-595.5423"/>
<polygon fill="#000000" stroke="#000000" points="1714.0657,-598.9909 1723.5911,-594.3522 1713.252,-592.0384 1714.0657,-598.9909"/>
</g>
<!-- opresultid -->
<g id="node2" class="node">
<title>opresultid</title>
<g id="a_node2"><a xlink:href="opresultid.md" xlink:title="opresultid.md">
<ellipse fill="#eee8aa" stroke="#000000" cx="398" cy="-315" rx="79.3758" ry="22.7556"/>
<text text-anchor="middle" x="398" y="-307.8" font-family="Times,serif" font-size="24.00" fill="#000000">opresultid</text>
</a>
</g>
</g>
<!-- opresultid&#45;&gt;messages -->
<g id="edge65" class="edge">
<title>opresultid&#45;&gt;messages</title>
<path fill="none" stroke="#000000" d="M432.7213,-294.6153C492.5742,-260.3816 619.9434,-191.4672 736,-154.5083 922.7025,-95.0517 1150.8946,-64.8376 1277.2348,-51.6278"/>
<polygon fill="#000000" stroke="#000000" points="1277.6844,-55.1001 1287.2722,-50.5918 1276.9656,-48.1371 1277.6844,-55.1001"/>
</g>
<!-- opresult -->
<g id="node29" class="node">
<title>opresult</title>
<g id="a_node29"><a xlink:href="opresult.md" xlink:title="opresult.md">
<polygon fill="#98fb98" stroke="#000000" points="937.3526,-172.8581 937.3526,-193.1419 895.5552,-207.4846 836.4448,-207.4846 794.6474,-193.1419 794.6474,-172.8581 836.4448,-158.5154 895.5552,-158.5154 937.3526,-172.8581"/>
<polygon fill="none" stroke="#000000" points="941.3486,-170.0019 941.3486,-195.9981 896.2213,-211.4835 835.7787,-211.4835 790.6514,-195.9981 790.6514,-170.0019 835.7787,-154.5165 896.2213,-154.5165 941.3486,-170.0019"/>
<text text-anchor="middle" x="866" y="-175.8" font-family="Times,serif" font-size="24.00" fill="#000000">opresult</text>
</a>
</g>
</g>
<!-- opresultid&#45;&gt;opresult -->
<g id="edge66" class="edge">
<title>opresultid&#45;&gt;opresult</title>
<path fill="none" stroke="#000000" d="M454.4517,-299.0777C539.5679,-275.0706 700.7152,-229.6188 794.1124,-203.276"/>
<polygon fill="#000000" stroke="#000000" points="795.0929,-206.6361 803.7673,-200.5528 793.1926,-199.8989 795.0929,-206.6361"/>
</g>
<!-- cmdline -->
<g id="node5" class="node">
<title>cmdline</title>
<g id="a_node5"><a xlink:href="cmdline.md" xlink:title="cmdline.md">
<polygon fill="#98fb98" stroke="#000000" points="2746.3352,-436.8581 2746.3352,-457.1419 2704.548,-471.4846 2645.452,-471.4846 2603.6648,-457.1419 2603.6648,-436.8581 2645.452,-422.5154 2704.548,-422.5154 2746.3352,-436.8581"/>
<polygon fill="none" stroke="#000000" points="2750.3307,-434.0021 2750.3307,-459.9979 2705.2141,-475.4835 2644.7859,-475.4835 2599.6693,-459.9979 2599.6693,-434.0021 2644.7859,-418.5165 2705.2141,-418.5165 2750.3307,-434.0021"/>
<text text-anchor="middle" x="2675" y="-439.8" font-family="Times,serif" font-size="24.00" fill="#000000">cmdline</text>
</a>
</g>
</g>
<!-- parseCmdLine -->
<g id="node6" class="node">
<title>parseCmdLine</title>
<g id="a_node6"><a xlink:href="parseCmdLine.md" xlink:title="parseCmdLine.md">
<ellipse fill="#eee8aa" stroke="#000000" cx="2051" cy="-728" rx="111.4463" ry="22.7556"/>
<text text-anchor="middle" x="2051" y="-720.8" font-family="Times,serif" font-size="24.00" fill="#000000">parseCmdLine</text>
</a>
</g>
</g>
<!-- parseCmdLine&#45;&gt;regexes -->
<g id="edge24" class="edge">
<title>parseCmdLine&#45;&gt;regexes</title>
<path fill="none" stroke="#000000" d="M2018.1857,-706.3102C1987.414,-685.1313 1941.0223,-650.988 1906,-615.4917 1883.7165,-592.9067 1882.656,-583.4137 1863,-558.5083 1843.0086,-533.1779 1819.8915,-505.1637 1801.8312,-483.5512"/>
<polygon fill="#000000" stroke="#000000" points="1804.2773,-481.0208 1795.174,-475.6004 1798.9102,-485.5146 1804.2773,-481.0208"/>
</g>
<!-- parseCmdLine&#45;&gt;warnings -->
<g id="edge27" class="edge">
<title>parseCmdLine&#45;&gt;warnings</title>
<path fill="none" stroke="#000000" d="M2036.2793,-705.5706C2021.7976,-683.1523 1999.3926,-647.5045 1982,-615.4917 1935.6902,-530.254 1960.5775,-482.8712 1888,-418.5083 1707.2505,-258.2167 1413.2046,-206.2505 1271.4737,-190.0209"/>
<polygon fill="#000000" stroke="#000000" points="1271.4495,-186.4967 1261.1236,-188.8685 1270.6748,-193.4537 1271.4495,-186.4967"/>
</g>
<!-- opresultwarn -->
<g id="node22" class="node">
<title>opresultwarn</title>
<g id="a_node22"><a xlink:href="opresultwarn.md" xlink:title="opresultwarn.md">
<ellipse fill="#eee8aa" stroke="#000000" cx="878" cy="-315" rx="99.824" ry="22.7556"/>
<text text-anchor="middle" x="878" y="-307.8" font-family="Times,serif" font-size="24.00" fill="#000000">opresultwarn</text>
</a>
</g>
</g>
<!-- parseCmdLine&#45;&gt;opresultwarn -->
<g id="edge28" class="edge">
<title>parseCmdLine&#45;&gt;opresultwarn</title>
<path fill="none" stroke="#000000" d="M2025.6218,-705.812C2002.2456,-684.4099 1967.6959,-650.2304 1944,-615.4917 1889.5507,-535.6678 1930.6493,-474.6409 1852,-418.5083 1782.6223,-368.9929 1224.4858,-333.5472 985.7217,-320.5045"/>
<polygon fill="#000000" stroke="#000000" points="985.8085,-317.0041 975.6333,-319.9564 985.4286,-323.9938 985.8085,-317.0041"/>
</g>
<!-- parseCmdLine&#45;&gt;messages -->
<g id="edge25" class="edge">
<title>parseCmdLine&#45;&gt;messages</title>
<path fill="none" stroke="#000000" d="M2043.4678,-705.3475C2028.4047,-657.9649 1996,-544.681 1996,-447 1996,-447 1996,-447 1996,-315 1996,-199.1415 1629.545,-101.0048 1458.7393,-61.5557"/>
<polygon fill="#000000" stroke="#000000" points="1459.2986,-58.0932 1448.7692,-59.2684 1457.7333,-64.9159 1459.2986,-58.0932"/>
</g>
<!-- parseCmdLine&#45;&gt;matches -->
<g id="edge26" class="edge">
<title>parseCmdLine&#45;&gt;matches</title>
<path fill="none" stroke="#000000" d="M2011.1907,-706.7382C1963.0511,-681.0273 1882.2374,-637.8654 1831.9148,-610.9886"/>
<polygon fill="#000000" stroke="#000000" points="1833.3578,-607.7914 1822.8881,-606.1675 1830.06,-613.9659 1833.3578,-607.7914"/>
</g>
<!-- env -->
<g id="node7" class="node">
<title>env</title>
<g id="a_node7"><a xlink:href="env.md" xlink:title="env.md">
<ellipse fill="#eee8aa" stroke="#000000" cx="2330" cy="-728" rx="35.6342" ry="22.7556"/>
<text text-anchor="middle" x="2330" y="-720.8" font-family="Times,serif" font-size="24.00" fill="#000000">env</text>
</a>
</g>
</g>
<!-- tempFile -->
<g id="node10" class="node">
<title>tempFile</title>
<g id="a_node10"><a xlink:href="tempFile.md" xlink:title="tempFile.md">
<polygon fill="#98fb98" stroke="#000000" points="2221.598,-576.8581 2221.598,-597.1419 2176.1421,-611.4846 2111.8579,-611.4846 2066.402,-597.1419 2066.402,-576.8581 2111.8579,-562.5154 2176.1421,-562.5154 2221.598,-576.8581"/>
<polygon fill="none" stroke="#000000" points="2225.6004,-573.9275 2225.6004,-600.0725 2176.7591,-615.4835 2111.2409,-615.4835 2062.3996,-600.0725 2062.3996,-573.9275 2111.2409,-558.5165 2176.7591,-558.5165 2225.6004,-573.9275"/>
<text text-anchor="middle" x="2144" y="-579.8" font-family="Times,serif" font-size="24.00" fill="#000000">tempFile</text>
</a>
</g>
</g>
<!-- env&#45;&gt;tempFile -->
<g id="edge15" class="edge">
<title>env&#45;&gt;tempFile</title>
<path fill="none" stroke="#000000" d="M2306.819,-710.4273C2277.3041,-688.0531 2225.6794,-648.9183 2188.4628,-620.7057"/>
<polygon fill="#000000" stroke="#000000" points="2190.3652,-617.7558 2180.2818,-614.5039 2186.1364,-623.3342 2190.3652,-617.7558"/>
</g>
<!-- env&#45;&gt;warnings -->
<g id="edge17" class="edge">
<title>env&#45;&gt;warnings</title>
<path fill="none" stroke="#000000" d="M2321.155,-705.84C2306.7463,-671.5981 2275.6815,-604.9377 2235,-558.5083 2166.5795,-480.4205 2138.2033,-469.9128 2048,-418.5083 1787.1614,-269.8631 1427.8346,-211.1768 1269.9131,-191.5331"/>
<polygon fill="#000000" stroke="#000000" points="1270.1569,-188.0369 1259.8056,-190.2951 1269.3059,-194.985 1270.1569,-188.0369"/>
</g>
<!-- args -->
<g id="node21" class="node">
<title>args</title>
<g id="a_node21"><a xlink:href="args.md" xlink:title="args.md">
<ellipse fill="#eee8aa" stroke="#000000" cx="2467" cy="-447" rx="39.0784" ry="22.7556"/>
<text text-anchor="middle" x="2467" y="-439.8" font-family="Times,serif" font-size="24.00" fill="#000000">args</text>
</a>
</g>
</g>
<!-- env&#45;&gt;args -->
<g id="edge18" class="edge">
<title>env&#45;&gt;args</title>
<path fill="none" stroke="#000000" d="M2336.2956,-705.6169C2346.0286,-672.4892 2366.3169,-608.8956 2392,-558.5083 2407.0589,-528.9644 2428.5153,-497.8535 2444.6233,-476.0227"/>
<polygon fill="#000000" stroke="#000000" points="2447.5506,-477.9522 2450.7278,-467.8449 2441.9411,-473.7648 2447.5506,-477.9522"/>
</g>
<!-- env&#45;&gt;messages -->
<g id="edge16" class="edge">
<title>env&#45;&gt;messages</title>
<path fill="none" stroke="#000000" d="M2322.6752,-705.6179C2308.6075,-661.8649 2277.6433,-561.7316 2260,-475.4917 2231.151,-334.4788 2318.8687,-256.1925 2217,-154.5083 2164.7036,-102.3066 1679.1023,-63.6176 1469.0615,-49.1838"/>
<polygon fill="#000000" stroke="#000000" points="1469.182,-45.684 1458.9667,-48.4942 1468.7049,-52.6677 1469.182,-45.684"/>
</g>
<!-- unicodes&#45;&gt;opresultid -->
<g id="edge67" class="edge">
<title>unicodes&#45;&gt;opresultid</title>
<path fill="none" stroke="#000000" d="M481.4099,-709.0923C515.1004,-690.5057 561.3137,-658.6542 582,-615.4917 592.9457,-592.6532 590.0519,-582.5202 582,-558.5083 551.9017,-468.7505 474.1935,-385.6713 429.99,-343.6674"/>
<polygon fill="#000000" stroke="#000000" points="432.3569,-341.0887 422.6704,-336.7965 427.566,-346.1924 432.3569,-341.0887"/>
</g>
<!-- unicodes&#45;&gt;vartypes -->
<g id="edge73" class="edge">
<title>unicodes&#45;&gt;vartypes</title>
<path fill="none" stroke="#000000" d="M488.0214,-710.5324C551.3836,-685.9943 661.5672,-641.4231 696,-615.4917 696.8911,-614.8207 771.8529,-525.0609 812.097,-476.8439"/>
<polygon fill="#000000" stroke="#000000" points="814.9914,-478.8382 818.7119,-468.918 809.6172,-474.3529 814.9914,-478.8382"/>
</g>
<!-- unicodes&#45;&gt;funtypes -->
<g id="edge72" class="edge">
<title>unicodes&#45;&gt;funtypes</title>
<path fill="none" stroke="#000000" d="M492.9715,-712.0996C576.9787,-685.8938 744.1208,-633.7543 833.8086,-605.7765"/>
<polygon fill="#000000" stroke="#000000" points="835.0561,-609.0538 843.5601,-602.7346 832.9715,-602.3714 835.0561,-609.0538"/>
</g>
<!-- utf8decoder -->
<g id="node15" class="node">
<title>utf8decoder</title>
<g id="a_node15"><a xlink:href="utf8decoder.md" xlink:title="utf8decoder.md">
<polygon fill="#98fb98" stroke="#000000" points="535.9296,-576.8581 535.9296,-597.1419 477.3922,-611.4846 394.6078,-611.4846 336.0704,-597.1419 336.0704,-576.8581 394.6078,-562.5154 477.3922,-562.5154 535.9296,-576.8581"/>
<polygon fill="none" stroke="#000000" points="539.9282,-573.7208 539.9282,-600.2792 477.8749,-615.4835 394.1251,-615.4835 332.0718,-600.2792 332.0718,-573.7208 394.1251,-558.5165 477.8749,-558.5165 539.9282,-573.7208"/>
<text text-anchor="middle" x="436" y="-579.8" font-family="Times,serif" font-size="24.00" fill="#000000">utf8decoder</text>
</a>
</g>
</g>
<!-- unicodes&#45;&gt;utf8decoder -->
<g id="edge71" class="edge">
<title>unicodes&#45;&gt;utf8decoder</title>
<path fill="none" stroke="#000000" d="M441.036,-705.3459C440.1247,-683.9305 438.7388,-651.3627 437.6515,-625.8092"/>
<polygon fill="#000000" stroke="#000000" points="441.1431,-625.5362 437.221,-615.6941 434.1494,-625.8339 441.1431,-625.5362"/>
</g>
<!-- unicodes&#45;&gt;warnings -->
<g id="edge70" class="edge">
<title>unicodes&#45;&gt;warnings</title>
<path fill="none" stroke="#000000" d="M479.0256,-708.4166C513.7051,-688.6314 565.2604,-655.3447 600,-615.4917 706.4917,-493.3254 642.1246,-393.2076 769,-292.3726 822.1197,-250.1554 1008.113,-213.3143 1114.2596,-195.1044"/>
<polygon fill="#000000" stroke="#000000" points="1115.004,-198.5281 1124.2754,-193.4007 1113.8301,-191.6272 1115.004,-198.5281"/>
</g>
<!-- unicodes&#45;&gt;opresultwarn -->
<g id="edge68" class="edge">
<title>unicodes&#45;&gt;opresultwarn</title>
<path fill="none" stroke="#000000" d="M492.4784,-711.8298C540.121,-694.4305 611.0622,-662.732 658,-615.4917 692.6726,-580.5957 728.6705,-457.2387 759,-418.5083 781.8269,-389.3585 813.7386,-362.1251 838.7699,-342.9158"/>
<polygon fill="#000000" stroke="#000000" points="841.1038,-345.5391 846.972,-336.7178 836.8836,-339.9543 841.1038,-345.5391"/>
</g>
<!-- unicodes&#45;&gt;messages -->
<g id="edge69" class="edge">
<title>unicodes&#45;&gt;messages</title>
<path fill="none" stroke="#000000" d="M471.8352,-707.2041C497.7731,-687.1374 533.5465,-654.165 549,-615.4917 558.3976,-591.9738 559.1506,-581.7111 549,-558.5083 485.2819,-412.8583 226.007,-427.3507 310,-292.3726 412.8662,-127.0649 1035.1192,-66.4828 1276.9702,-48.9975"/>
<polygon fill="#000000" stroke="#000000" points="1277.4283,-52.4738 1287.1536,-48.2705 1276.9298,-45.4916 1277.4283,-52.4738"/>
</g>
<!-- variables -->
<g id="node9" class="node">
<title>variables</title>
<g id="a_node9"><a xlink:href="variables.md" xlink:title="variables.md">
<ellipse fill="#eee8aa" stroke="#000000" cx="1449" cy="-587" rx="72.6337" ry="22.7556"/>
<text text-anchor="middle" x="1449" y="-579.8" font-family="Times,serif" font-size="24.00" fill="#000000">variables</text>
</a>
</g>
</g>
<!-- variables&#45;&gt;vartypes -->
<g id="edge48" class="edge">
<title>variables&#45;&gt;vartypes</title>
<path fill="none" stroke="#000000" d="M1390.3189,-573.5762C1275.9573,-547.4151 1023.9402,-489.7641 903.5568,-462.2254"/>
<polygon fill="#000000" stroke="#000000" points="904.2507,-458.7938 893.722,-459.9756 902.6897,-465.6175 904.2507,-458.7938"/>
</g>
<!-- variables&#45;&gt;warnings -->
<g id="edge51" class="edge">
<title>variables&#45;&gt;warnings</title>
<path fill="none" stroke="#000000" d="M1434.7061,-564.7037C1391.1041,-496.6913 1259.7273,-291.7638 1209.6657,-213.6755"/>
<polygon fill="#000000" stroke="#000000" points="1212.5933,-211.7569 1204.2497,-205.2274 1206.7003,-215.5349 1212.5933,-211.7569"/>
</g>
<!-- variables&#45;&gt;args -->
<g id="edge52" class="edge">
<title>variables&#45;&gt;args</title>
<path fill="none" stroke="#000000" d="M1517.7143,-579.4734C1735.3655,-555.5842 2396.5302,-482.6215 2418,-475.4917 2422.8942,-473.8664 2427.8381,-471.7126 2432.6062,-469.3147"/>
<polygon fill="#000000" stroke="#000000" points="2434.3872,-472.3302 2441.4994,-464.4774 2431.0424,-466.181 2434.3872,-472.3302"/>
</g>
<!-- variables&#45;&gt;opresultwarn -->
<g id="edge53" class="edge">
<title>variables&#45;&gt;opresultwarn</title>
<path fill="none" stroke="#000000" d="M1408.8484,-567.8735C1307.8623,-519.768 1043.3293,-393.7558 930.3623,-339.9432"/>
<polygon fill="#000000" stroke="#000000" points="931.7346,-336.7201 921.2013,-335.5793 928.7241,-343.0397 931.7346,-336.7201"/>
</g>
<!-- variables&#45;&gt;messages -->
<g id="edge50" class="edge">
<title>variables&#45;&gt;messages</title>
<path fill="none" stroke="#000000" d="M1445.8311,-564.3176C1434.1133,-480.4424 1393.1508,-187.2375 1378.3701,-81.4383"/>
<polygon fill="#000000" stroke="#000000" points="1381.8327,-80.9267 1376.9826,-71.5072 1374.9,-81.8953 1381.8327,-80.9267"/>
</g>
<!-- version -->
<g id="node25" class="node">
<title>version</title>
<g id="a_node25"><a xlink:href="version.md" xlink:title="version.md">
<polygon fill="#98fb98" stroke="#000000" points="2405.1523,-436.8581 2405.1523,-457.1419 2366.4012,-471.4846 2311.5988,-471.4846 2272.8477,-457.1419 2272.8477,-436.8581 2311.5988,-422.5154 2366.4012,-422.5154 2405.1523,-436.8581"/>
<polygon fill="none" stroke="#000000" points="2409.1421,-434.0721 2409.1421,-459.9279 2367.1143,-475.4835 2310.8857,-475.4835 2268.8579,-459.9279 2268.8579,-434.0721 2310.8857,-418.5165 2367.1143,-418.5165 2409.1421,-434.0721"/>
<text text-anchor="middle" x="2339" y="-439.8" font-family="Times,serif" font-size="24.00" fill="#000000">version</text>
</a>
</g>
</g>
<!-- variables&#45;&gt;version -->
<g id="edge49" class="edge">
<title>variables&#45;&gt;version</title>
<path fill="none" stroke="#000000" d="M1514.0832,-576.7622C1673.7768,-551.6419 2084.631,-487.0131 2258.9192,-459.597"/>
<polygon fill="#000000" stroke="#000000" points="2259.4637,-463.0544 2268.7984,-458.043 2258.3759,-456.1395 2259.4637,-463.0544"/>
</g>
<!-- vartypes&#45;&gt;warnings -->
<g id="edge42" class="edge">
<title>vartypes&#45;&gt;warnings</title>
<path fill="none" stroke="#000000" d="M865.6071,-426.4126C895.8867,-404.5582 945.0075,-368.9246 987,-337.6274 1046.154,-293.5397 1114.2477,-241.3798 1154.6199,-210.3051"/>
<polygon fill="#000000" stroke="#000000" points="1156.77,-213.0669 1162.5573,-204.1924 1152.4989,-207.5209 1156.77,-213.0669"/>
</g>
<!-- vartypes&#45;&gt;opresultwarn -->
<g id="edge43" class="edge">
<title>vartypes&#45;&gt;opresultwarn</title>
<path fill="none" stroke="#000000" d="M844.0482,-424.3084C850.6192,-403.1529 860.4916,-371.3686 867.8995,-347.5187"/>
<polygon fill="#000000" stroke="#000000" points="871.2828,-348.4254 870.9066,-337.8372 864.5978,-346.349 871.2828,-348.4254"/>
</g>
<!-- vartypes&#45;&gt;messages -->
<g id="edge41" class="edge">
<title>vartypes&#45;&gt;messages</title>
<path fill="none" stroke="#000000" d="M818.0414,-424.9216C801.4362,-404.0179 778.5149,-370.9522 769,-337.6274 755.4855,-290.2947 759.8683,-178.7872 782,-154.5083 847.1081,-83.0832 1127.0974,-56.6478 1277.1473,-47.4847"/>
<polygon fill="#000000" stroke="#000000" points="1277.5067,-50.9695 1287.2805,-46.8801 1277.0897,-43.982 1277.5067,-50.9695"/>
</g>
<!-- replacement -->
<g id="node12" class="node">
<title>replacement</title>
<g id="a_node12"><a xlink:href="replacement.md" xlink:title="replacement.md">
<ellipse fill="#eee8aa" stroke="#000000" cx="1752" cy="-859" rx="94.4556" ry="22.7556"/>
<text text-anchor="middle" x="1752" y="-851.8" font-family="Times,serif" font-size="24.00" fill="#000000">replacement</text>
</a>
</g>
</g>
<!-- replacement&#45;&gt;parseNumber -->
<g id="edge103" class="edge">
<title>replacement&#45;&gt;parseNumber</title>
<path fill="none" stroke="#000000" d="M1679.0535,-844.5431C1561.1337,-821.1732 1328.2877,-775.0268 1193.6708,-748.3478"/>
<polygon fill="#000000" stroke="#000000" points="1194.2419,-744.893 1183.7523,-746.3821 1192.8811,-751.7594 1194.2419,-744.893"/>
</g>
<!-- replacement&#45;&gt;regexes -->
<g id="edge94" class="edge">
<title>replacement&#45;&gt;regexes</title>
<path fill="none" stroke="#000000" d="M1761.3624,-836.4844C1773.0442,-805.05 1789.6872,-746.5773 1774,-699.5083 1759.2429,-655.2301 1725.7571,-659.7699 1711,-615.4917 1702.9924,-591.465 1704.8123,-583.0667 1711,-558.5083 1717.6736,-532.0214 1732.0031,-504.9778 1744.9848,-484.1574"/>
<polygon fill="#000000" stroke="#000000" points="1747.9965,-485.9444 1750.4396,-475.6351 1742.1008,-482.1707 1747.9965,-485.9444"/>
</g>
<!-- replacement&#45;&gt;parseCmdLine -->
<g id="edge97" class="edge">
<title>replacement&#45;&gt;parseCmdLine</title>
<path fill="none" stroke="#000000" d="M1797.4117,-839.1039C1850.1823,-815.9837 1937.3026,-777.8139 1994.4264,-752.7864"/>
<polygon fill="#000000" stroke="#000000" points="1995.9218,-755.9525 2003.6767,-748.7336 1993.1127,-749.5409 1995.9218,-755.9525"/>
</g>
<!-- replacement&#45;&gt;env -->
<g id="edge95" class="edge">
<title>replacement&#45;&gt;env</title>
<path fill="none" stroke="#000000" d="M1820.574,-843.4582C1940.8423,-816.2001 2186.5027,-760.5227 2286.3476,-737.8935"/>
<polygon fill="#000000" stroke="#000000" points="2287.1287,-741.3054 2296.1077,-735.6815 2285.5814,-734.4785 2287.1287,-741.3054"/>
</g>
<!-- replacement&#45;&gt;variables -->
<g id="edge101" class="edge">
<title>replacement&#45;&gt;variables</title>
<path fill="none" stroke="#000000" d="M1749.9963,-836.327C1745.8855,-802.5576 1733.6372,-738.8178 1698,-699.5083 1650.7359,-647.3736 1574.6383,-617.8813 1518.9936,-602.2963"/>
<polygon fill="#000000" stroke="#000000" points="1519.7702,-598.8805 1509.2025,-599.6376 1517.9358,-605.6359 1519.7702,-598.8805"/>
</g>
<!-- replacement&#45;&gt;tempFile -->
<g id="edge102" class="edge">
<title>replacement&#45;&gt;tempFile</title>
<path fill="none" stroke="#000000" d="M1828.2089,-845.5805C1943.143,-824.5792 2149.7604,-783.554 2171,-756.4917 2200.4241,-719.0012 2182.541,-662.1954 2164.9785,-624.8448"/>
<polygon fill="#000000" stroke="#000000" points="2168.088,-623.2362 2160.5494,-615.7917 2161.8002,-626.3125 2168.088,-623.2362"/>
</g>
<!-- replacement&#45;&gt;vartypes -->
<g id="edge96" class="edge">
<title>replacement&#45;&gt;vartypes</title>
<path fill="none" stroke="#000000" d="M1736.1156,-836.5278C1709.8464,-801.213 1653.7735,-733.2763 1589,-699.5083 1410.5251,-606.4647 1333.4613,-683.424 1144,-615.4917 1041.327,-578.6778 931.7886,-510.7141 875.4307,-473.3391"/>
<polygon fill="#000000" stroke="#000000" points="877.1119,-470.2532 866.8514,-467.6127 873.2257,-476.0755 877.1119,-470.2532"/>
</g>
<!-- readlines -->
<g id="node13" class="node">
<title>readlines</title>
<g id="a_node13"><a xlink:href="readlines.md" xlink:title="readlines.md">
<polygon fill="#98fb98" stroke="#000000" points="1575.5894,-717.8581 1575.5894,-738.1419 1529.5528,-752.4846 1464.4472,-752.4846 1418.4106,-738.1419 1418.4106,-717.8581 1464.4472,-703.5154 1529.5528,-703.5154 1575.5894,-717.8581"/>
<polygon fill="none" stroke="#000000" points="1579.5916,-714.9163 1579.5916,-741.0837 1530.1623,-756.4835 1463.8377,-756.4835 1414.4084,-741.0837 1414.4084,-714.9163 1463.8377,-699.5165 1530.1623,-699.5165 1579.5916,-714.9163"/>
<text text-anchor="middle" x="1497" y="-720.8" font-family="Times,serif" font-size="24.00" fill="#000000">readlines</text>
</a>
</g>
</g>
<!-- replacement&#45;&gt;readlines -->
<g id="edge98" class="edge">
<title>replacement&#45;&gt;readlines</title>
<path fill="none" stroke="#000000" d="M1711.8757,-838.3871C1669.1839,-816.4553 1601.3095,-781.5865 1553.2829,-756.914"/>
<polygon fill="#000000" stroke="#000000" points="1554.7508,-753.7332 1544.2565,-752.2769 1551.5521,-759.9597 1554.7508,-753.7332"/>
</g>
<!-- replacement&#45;&gt;opresultwarn -->
<g id="edge104" class="edge">
<title>replacement&#45;&gt;opresultwarn</title>
<path fill="none" stroke="#000000" d="M1742.0899,-836.3707C1725.7955,-801.772 1690.0836,-735.9149 1640,-699.5083 1537.3143,-624.8641 1484.7044,-663.0499 1367,-615.4917 1239.4712,-563.964 1207.7127,-548.2713 1091,-475.4917 1024.5165,-434.034 952.8584,-377.2598 911.9156,-343.5322"/>
<polygon fill="#000000" stroke="#000000" points="914.0833,-340.783 904.1472,-337.1053 909.6212,-346.1765 914.0833,-340.783"/>
</g>
<!-- replacement&#45;&gt;messages -->
<g id="edge100" class="edge">
<title>replacement&#45;&gt;messages</title>
<path fill="none" stroke="#000000" d="M1749.7558,-836.3311C1746.4107,-805.2084 1739.2743,-747.6274 1728,-699.5083 1701.322,-585.646 1654,-563.9458 1654,-447 1654,-447 1654,-447 1654,-315 1654,-194.5851 1519.1359,-110.4675 1436.2698,-70.1475"/>
<polygon fill="#000000" stroke="#000000" points="1437.7109,-66.9571 1427.1796,-65.7981 1434.6896,-73.2715 1437.7109,-66.9571"/>
</g>
<!-- replacement&#45;&gt;matches -->
<g id="edge99" class="edge">
<title>replacement&#45;&gt;matches</title>
<path fill="none" stroke="#000000" d="M1769.8886,-836.5788C1784.4407,-816.8085 1803.8514,-786.5443 1812,-756.4917 1824.7167,-709.5915 1811.0207,-653.5238 1799.4448,-619.0906"/>
<polygon fill="#000000" stroke="#000000" points="1802.7143,-617.8371 1796.1062,-609.5556 1796.1076,-620.1505 1802.7143,-617.8371"/>
</g>
<!-- funtypes&#45;&gt;vartypes -->
<g id="edge55" class="edge">
<title>funtypes&#45;&gt;vartypes</title>
<path fill="none" stroke="#000000" d="M884.842,-564.5066C875.4101,-541.3406 860.627,-505.0311 849.9895,-478.9039"/>
<polygon fill="#000000" stroke="#000000" points="853.1479,-477.3796 846.1353,-469.4376 846.6646,-480.0192 853.1479,-477.3796"/>
</g>
<!-- funtypes&#45;&gt;warnings -->
<g id="edge57" class="edge">
<title>funtypes&#45;&gt;warnings</title>
<path fill="none" stroke="#000000" d="M922.3975,-566.1834C949.609,-545.301 990.7494,-511.1926 1020,-475.4917 1090.406,-389.5601 1149.5751,-270.9407 1175.6781,-214.8447"/>
<polygon fill="#000000" stroke="#000000" points="1179.007,-215.9838 1180.0175,-205.4373 1172.6507,-213.0517 1179.007,-215.9838"/>
</g>
<!-- funtypes&#45;&gt;messages -->
<g id="edge56" class="edge">
<title>funtypes&#45;&gt;messages</title>
<path fill="none" stroke="#000000" d="M902.5179,-564.3706C935.2658,-477.5691 1052.0304,-169.9749 1068,-154.5083 1124.8191,-99.4789 1210.9657,-71.2749 1277.2291,-57.0214"/>
<polygon fill="#000000" stroke="#000000" points="1278.1914,-60.3963 1287.2701,-54.9349 1276.7672,-53.5427 1278.1914,-60.3963"/>
</g>
<!-- warnings&#45;&gt;messages -->
<g id="edge2" class="edge">
<title>warnings&#45;&gt;messages</title>
<path fill="none" stroke="#ff0000" d="M1217.7938,-161.737C1247.1374,-139.2883 1293.8344,-103.5638 1328.3506,-77.158"/>
<polygon fill="#ff0000" stroke="#ff0000" points="1330.5862,-79.8545 1336.4019,-70.9985 1326.3329,-74.2949 1330.5862,-79.8545"/>
</g>
<!-- collectCommand -->
<g id="node17" class="node">
<title>collectCommand</title>
<g id="a_node17"><a xlink:href="collectCommand.md" xlink:title="collectCommand.md">
<ellipse fill="#eee8aa" stroke="#000000" cx="2067" cy="-859" rx="127.4982" ry="22.7556"/>
<text text-anchor="middle" x="2067" y="-851.8" font-family="Times,serif" font-size="24.00" fill="#000000">collectCommand</text>
</a>
</g>
</g>
<!-- collectCommand&#45;&gt;parseCmdLine -->
<g id="edge33" class="edge">
<title>collectCommand&#45;&gt;parseCmdLine</title>
<path fill="none" stroke="#000000" d="M2064.213,-836.1815C2061.6819,-815.4579 2057.9176,-784.6377 2055.0536,-761.1889"/>
<polygon fill="#000000" stroke="#000000" points="2058.4954,-760.4984 2053.8087,-750.9965 2051.547,-761.3471 2058.4954,-760.4984"/>
</g>
<!-- collectCommand&#45;&gt;env -->
<g id="edge30" class="edge">
<title>collectCommand&#45;&gt;env</title>
<path fill="none" stroke="#000000" d="M2113.1616,-837.9126C2156.6163,-817.797 2223.3104,-786.2391 2280,-756.4917 2284.8658,-753.9384 2289.9487,-751.1672 2294.9309,-748.3894"/>
<polygon fill="#000000" stroke="#000000" points="2296.7329,-751.3914 2303.7213,-743.4281 2293.2923,-745.2953 2296.7329,-751.3914"/>
</g>
<!-- collectCommand&#45;&gt;readlines -->
<g id="edge32" class="edge">
<title>collectCommand&#45;&gt;readlines</title>
<path fill="none" stroke="#000000" d="M1988.9391,-841.0597C1881.3154,-816.3251 1688.2713,-771.9588 1578.7398,-746.7858"/>
<polygon fill="#000000" stroke="#000000" points="1579.2607,-743.3144 1568.7308,-744.4855 1577.6928,-750.1365 1579.2607,-743.3144"/>
</g>
<!-- collectCommand&#45;&gt;opresultwarn -->
<g id="edge35" class="edge">
<title>collectCommand&#45;&gt;opresultwarn</title>
<path fill="none" stroke="#000000" d="M2100.6981,-837.0228C2125.3296,-818.7853 2156.8099,-790.4028 2171,-756.4917 2180.7763,-733.1287 2182.6057,-722.0185 2171,-699.5083 2141.4978,-642.2862 2100.2753,-659.1929 2053,-615.4917 1969.138,-537.97 1988.8822,-472.0363 1888,-418.5083 1809.571,-376.8939 1228.9761,-336.6679 985.2406,-321.4219"/>
<polygon fill="#000000" stroke="#000000" points="985.1473,-317.9094 974.9489,-320.7804 984.7118,-324.8958 985.1473,-317.9094"/>
</g>
<!-- collectCommand&#45;&gt;messages -->
<g id="edge34" class="edge">
<title>collectCommand&#45;&gt;messages</title>
<path fill="none" stroke="#000000" d="M2102.4233,-837.2189C2129.651,-818.8004 2166.3277,-790.0856 2189,-756.4917 2239.5354,-681.6128 2266.0541,-643.3394 2235,-558.5083 2181.7551,-413.0581 2117.7809,-403.6112 2010,-292.3726 1946.3058,-226.635 1938.193,-196.7703 1857,-154.5083 1732.3974,-89.651 1570.3854,-62.1833 1469.0314,-50.7828"/>
<polygon fill="#000000" stroke="#000000" points="1469.1288,-47.2727 1458.8075,-49.6642 1468.3674,-54.2312 1469.1288,-47.2727"/>
</g>
<!-- collectCommand&#45;&gt;matches -->
<g id="edge31" class="edge">
<title>collectCommand&#45;&gt;matches</title>
<path fill="none" stroke="#000000" d="M2032.7809,-837.148C2003.9449,-817.847 1962.4737,-787.948 1931,-756.4917 1908.559,-734.0631 1908.1712,-723.9983 1888,-699.5083 1864.1154,-670.5098 1835.3679,-638.7693 1814.6606,-616.417"/>
<polygon fill="#000000" stroke="#000000" points="1817.065,-613.8629 1807.6927,-608.9222 1811.9383,-618.6292 1817.065,-613.8629"/>
</g>
<!-- statictea -->
<g id="node18" class="node">
<title>statictea</title>
<g id="a_node18"><a xlink:href="statictea.md" xlink:title="statictea.md">
<polygon fill="#eee8aa" stroke="#000000" points="2408.0958,-1244.3667 2491,-1225.0619 2573.9042,-1244.3667 2573.8268,-1275.6024 2408.1732,-1275.6024 2408.0958,-1244.3667"/>
<text text-anchor="middle" x="2491" y="-1245.8" font-family="Times,serif" font-size="24.00" fill="#000000">statictea</text>
</a>
</g>
</g>
<!-- statictea&#45;&gt;env -->
<g id="edge112" class="edge">
<title>statictea&#45;&gt;env</title>
<path fill="none" stroke="#000000" d="M2477.6757,-1228.102C2466.2739,-1206.0624 2450.0053,-1172.7836 2439,-1142.4917 2388.7321,-1004.1306 2351.0595,-832.0679 2336.5373,-761.0324"/>
<polygon fill="#000000" stroke="#000000" points="2339.9023,-760.0148 2334.4852,-750.9095 2333.0418,-761.4056 2339.9023,-760.0148"/>
</g>
<!-- gethelp -->
<g id="node19" class="node">
<title>gethelp</title>
<g id="a_node19"><a xlink:href="gethelp.md" xlink:title="gethelp.md">
<polygon fill="#98fb98" stroke="#000000" points="2722.1349,-1103.8581 2722.1349,-1124.1419 2683.394,-1138.4846 2628.606,-1138.4846 2589.8651,-1124.1419 2589.8651,-1103.8581 2628.606,-1089.5154 2683.394,-1089.5154 2722.1349,-1103.8581"/>
<polygon fill="none" stroke="#000000" points="2726.1242,-1101.0722 2726.1242,-1126.9278 2684.1071,-1142.4835 2627.8929,-1142.4835 2585.8758,-1126.9278 2585.8758,-1101.0722 2627.8929,-1085.5165 2684.1071,-1085.5165 2726.1242,-1101.0722"/>
<text text-anchor="middle" x="2656" y="-1106.8" font-family="Times,serif" font-size="24.00" fill="#000000">gethelp</text>
</a>
</g>
</g>
<!-- statictea&#45;&gt;gethelp -->
<g id="edge110" class="edge">
<title>statictea&#45;&gt;gethelp</title>
<path fill="none" stroke="#000000" d="M2517.1447,-1230.975C2543.671,-1208.6287 2585.0866,-1173.7391 2615.7907,-1147.8733"/>
<polygon fill="#000000" stroke="#000000" points="2618.3542,-1150.2902 2623.7471,-1141.1706 2613.8442,-1144.9367 2618.3542,-1150.2902"/>
</g>
<!-- statictea&#45;&gt;args -->
<g id="edge108" class="edge">
<title>statictea&#45;&gt;args</title>
<path fill="none" stroke="#000000" d="M2495.7888,-1226.1766C2504.0256,-1177.6344 2520,-1071.9027 2520,-982 2520,-982 2520,-982 2520,-859 2520,-716.6636 2488.4971,-548.911 2474.0669,-479.5363"/>
<polygon fill="#000000" stroke="#000000" points="2477.4701,-478.7119 2471.9861,-469.6468 2470.6201,-480.1532 2477.4701,-478.7119"/>
</g>
<!-- statictea&#45;&gt;opresultwarn -->
<g id="edge113" class="edge">
<title>statictea&#45;&gt;opresultwarn</title>
<path fill="none" stroke="#000000" d="M2408.12,-1248.4328C1975.8933,-1224.0813 0,-1105.9798 0,-982 0,-982 0,-982 0,-728 0,-530.7802 135.9226,-494.2938 318,-418.5083 467.5189,-356.2745 654.9744,-331.304 770.6,-321.3901"/>
<polygon fill="#000000" stroke="#000000" points="771.1956,-324.8526 780.8698,-320.533 770.6134,-317.8769 771.1956,-324.8526"/>
</g>
<!-- statictea&#45;&gt;messages -->
<g id="edge109" class="edge">
<title>statictea&#45;&gt;messages</title>
<path fill="none" stroke="#000000" d="M2552.9612,-1239.4399C2661.3585,-1211.664 2874,-1137.3752 2874,-982 2874,-982 2874,-982 2874,-315 2874,-246.6856 3319.7566,-376.0279 2603,-154.5083 2391.3463,-89.0949 1719.9985,-56.6307 1468.9576,-46.5428"/>
<polygon fill="#000000" stroke="#000000" points="1468.8945,-43.0376 1458.7629,-46.1362 1468.6154,-50.0321 1468.8945,-43.0376"/>
</g>
<!-- statictea&#45;&gt;version -->
<g id="edge111" class="edge">
<title>statictea&#45;&gt;version</title>
<path fill="none" stroke="#000000" d="M2485.9427,-1226.1829C2463.4788,-1107.0653 2372.6821,-625.6038 2346.2515,-485.4519"/>
<polygon fill="#000000" stroke="#000000" points="2349.6829,-484.7604 2344.3902,-475.5823 2342.8041,-486.0577 2349.6829,-484.7604"/>
</g>
<!-- parseCommandLine -->
<g id="node27" class="node">
<title>parseCommandLine</title>
<g id="a_node27"><a xlink:href="parseCommandLine.md" xlink:title="parseCommandLine.md">
<ellipse fill="#eee8aa" stroke="#000000" cx="2659" cy="-587" rx="148.8522" ry="22.7556"/>
<text text-anchor="middle" x="2659" y="-579.8" font-family="Times,serif" font-size="24.00" fill="#000000">parseCommandLine</text>
</a>
</g>
</g>
<!-- statictea&#45;&gt;parseCommandLine -->
<g id="edge12" class="edge">
<title>statictea&#45;&gt;parseCommandLine</title>
<path fill="none" stroke="#000000" d="M2502.7378,-1227.6405C2512.4899,-1205.584 2526.0156,-1172.5348 2534,-1142.4917 2552.5248,-1072.7886 2558,-1054.1228 2558,-982 2558,-982 2558,-982 2558,-859 2558,-766.7659 2609.6696,-667.3226 2639.0956,-618.168"/>
<polygon fill="#000000" stroke="#000000" points="2642.1078,-619.9507 2644.3137,-609.588 2636.127,-616.3133 2642.1078,-619.9507"/>
</g>
<!-- processTemplate -->
<g id="node28" class="node">
<title>processTemplate</title>
<g id="a_node28"><a xlink:href="processTemplate.md" xlink:title="processTemplate.md">
<ellipse fill="#eee8aa" stroke="#000000" cx="1843" cy="-1114" rx="125.2054" ry="22.7556"/>
<text text-anchor="middle" x="1843" y="-1106.8" font-family="Times,serif" font-size="24.00" fill="#000000">processTemplate</text>
</a>
</g>
</g>
<!-- statictea&#45;&gt;processTemplate -->
<g id="edge107" class="edge">
<title>statictea&#45;&gt;processTemplate</title>
<path fill="none" stroke="#000000" d="M2428.2783,-1239.5458C2313.007,-1214.8194 2067.0875,-1162.0682 1933.649,-1133.4448"/>
<polygon fill="#000000" stroke="#000000" points="1934.3579,-1130.0173 1923.8462,-1131.342 1932.8897,-1136.8616 1934.3579,-1130.0173"/>
</g>
<!-- signatures&#45;&gt;vartypes -->
<g id="edge75" class="edge">
<title>signatures&#45;&gt;vartypes</title>
<path fill="none" stroke="#000000" d="M810.8693,-709.4363C866.7272,-686.2455 954.8257,-645.9156 973,-615.4917 1006.1681,-559.9682 933.3284,-502.9734 881.9869,-471.5628"/>
<polygon fill="#000000" stroke="#000000" points="883.6949,-468.5061 873.3169,-466.3735 880.0999,-474.5124 883.6949,-468.5061"/>
</g>
<!-- signatures&#45;&gt;funtypes -->
<g id="edge76" class="edge">
<title>signatures&#45;&gt;funtypes</title>
<path fill="none" stroke="#000000" d="M784.3125,-705.9688C806.5409,-681.8595 842.2832,-643.0929 866.8918,-616.402"/>
<polygon fill="#000000" stroke="#000000" points="869.6249,-618.6011 873.8301,-608.8765 864.4784,-613.8561 869.6249,-618.6011"/>
</g>
<!-- signatures&#45;&gt;messages -->
<g id="edge77" class="edge">
<title>signatures&#45;&gt;messages</title>
<path fill="none" stroke="#000000" d="M809.4804,-709.3661C867.4022,-684.9839 963.3131,-642.2247 991,-615.4917 1052.2267,-556.3745 1082,-532.109 1082,-447 1082,-447 1082,-447 1082,-315 1082,-242.8101 1062.5008,-211.3519 1107,-154.5083 1148.4337,-101.5806 1219.5513,-73.4998 1277.831,-58.761"/>
<polygon fill="#000000" stroke="#000000" points="1278.9188,-62.0985 1287.8086,-56.3347 1277.2647,-55.2967 1278.9188,-62.0985"/>
</g>
<!-- args&#45;&gt;warnings -->
<g id="edge3" class="edge">
<title>args&#45;&gt;warnings</title>
<path fill="none" stroke="#000000" d="M2440.6704,-430.069C2433.5013,-425.9131 2425.6098,-421.7359 2418,-418.5083 2228.3563,-338.0714 2173.5872,-334.7684 1972,-292.3726 1718.3387,-239.025 1412.768,-204.8153 1270.3582,-190.5766"/>
<polygon fill="#000000" stroke="#000000" points="1270.6868,-187.0921 1260.3896,-189.5859 1269.9945,-194.0577 1270.6868,-187.0921"/>
</g>
<!-- args&#45;&gt;opresultwarn -->
<g id="edge6" class="edge">
<title>args&#45;&gt;opresultwarn</title>
<path fill="none" stroke="#000000" d="M2441.8345,-429.4181C2434.4682,-425.1058 2426.1867,-421.0129 2418,-418.5083 2150.3853,-336.6348 1294.242,-319.4576 988.1254,-315.908"/>
<polygon fill="#000000" stroke="#000000" points="987.9483,-312.4059 977.9093,-315.7922 987.869,-319.4054 987.9483,-312.4059"/>
</g>
<!-- args&#45;&gt;messages -->
<g id="edge1" class="edge">
<title>args&#45;&gt;messages</title>
<path fill="none" stroke="#000000" d="M2460.9998,-424.2585C2444.7686,-367.6907 2394.2433,-220.4612 2293,-154.5083 2224.8727,-110.1281 1690.7126,-66.3093 1468.9766,-49.8365"/>
<polygon fill="#000000" stroke="#000000" points="1469.2081,-46.3442 1458.977,-49.0965 1468.6913,-53.3251 1469.2081,-46.3442"/>
</g>
<!-- opresultwarn&#45;&gt;warnings -->
<g id="edge4" class="edge">
<title>opresultwarn&#45;&gt;warnings</title>
<path fill="none" stroke="#000000" d="M925.3861,-294.952C982.3889,-270.8355 1077.8019,-230.4684 1137.1404,-205.3637"/>
<polygon fill="#000000" stroke="#000000" points="1138.8564,-208.4381 1146.7023,-201.3183 1136.1288,-201.9913 1138.8564,-208.4381"/>
</g>
<!-- opresultwarn&#45;&gt;opresult -->
<g id="edge5" class="edge">
<title>opresultwarn&#45;&gt;opresult</title>
<path fill="none" stroke="#000000" d="M875.9371,-292.3084C874.1822,-273.0038 871.6226,-244.8488 869.5408,-221.9483"/>
<polygon fill="#000000" stroke="#000000" points="873.0135,-221.4889 868.6224,-211.8469 866.0423,-222.1227 873.0135,-221.4889"/>
</g>
<!-- matches&#45;&gt;regexes -->
<g id="edge21" class="edge">
<title>matches&#45;&gt;regexes</title>
<path fill="none" stroke="#000000" d="M1784.3937,-564.195C1781.9655,-542.948 1778.2963,-510.8428 1775.412,-485.6049"/>
<polygon fill="#000000" stroke="#000000" points="1778.8827,-485.1486 1774.2698,-475.6108 1771.928,-485.9435 1778.8827,-485.1486"/>
</g>
<!-- matches&#45;&gt;args -->
<g id="edge20" class="edge">
<title>matches&#45;&gt;args</title>
<path fill="none" stroke="#000000" d="M1849.6342,-578.7801C1987.5699,-560.218 2313.5942,-513.6969 2418,-475.4917 2422.7867,-473.7402 2427.6423,-471.531 2432.3431,-469.1211"/>
<polygon fill="#000000" stroke="#000000" points="2434.0436,-472.1803 2441.1331,-464.3069 2430.6811,-466.0408 2434.0436,-472.1803"/>
</g>
<!-- readjson -->
<g id="node26" class="node">
<title>readjson</title>
<g id="a_node26"><a xlink:href="readjson.md" xlink:title="readjson.md">
<ellipse fill="#eee8aa" stroke="#000000" cx="287" cy="-859" rx="68.6102" ry="22.7556"/>
<text text-anchor="middle" x="287" y="-851.8" font-family="Times,serif" font-size="24.00" fill="#000000">readjson</text>
</a>
</g>
</g>
<!-- readjson&#45;&gt;unicodes -->
<g id="edge84" class="edge">
<title>readjson&#45;&gt;unicodes</title>
<path fill="none" stroke="#000000" d="M312.2484,-837.661C338.5946,-815.3942 380.0209,-780.3824 408.9555,-755.9279"/>
<polygon fill="#000000" stroke="#000000" points="411.384,-758.458 416.7624,-749.3298 406.8655,-753.1117 411.384,-758.458"/>
</g>
<!-- readjson&#45;&gt;vartypes -->
<g id="edge81" class="edge">
<title>readjson&#45;&gt;vartypes</title>
<path fill="none" stroke="#000000" d="M281.8426,-836.2488C270.7391,-780.8279 251.0457,-637.5968 323,-558.5083 352.6075,-525.9652 628.9599,-479.2214 763.7536,-458.1037"/>
<polygon fill="#000000" stroke="#000000" points="764.6525,-461.5059 773.9934,-456.5061 763.5734,-454.5895 764.6525,-461.5059"/>
</g>
<!-- readjson&#45;&gt;utf8decoder -->
<g id="edge85" class="edge">
<title>readjson&#45;&gt;utf8decoder</title>
<path fill="none" stroke="#000000" d="M296.13,-836.5369C309.1688,-805.1641 334.4935,-746.7633 361,-699.5083 375.5994,-673.4809 394.1937,-645.5591 409.2152,-624.0426"/>
<polygon fill="#000000" stroke="#000000" points="412.1,-626.025 414.9907,-615.8321 406.3745,-621.9976 412.1,-626.025"/>
</g>
<!-- readjson&#45;&gt;warnings -->
<g id="edge83" class="edge">
<title>readjson&#45;&gt;warnings</title>
<path fill="none" stroke="#000000" d="M253.1592,-839.2559C225.8278,-821.3525 188.909,-792.3165 170,-756.4917 128.775,-678.3874 105.6161,-633.0372 153,-558.5083 302.5727,-323.2489 457.5918,-383.6692 721,-292.3726 856.6727,-245.3488 1021.3884,-212.1939 1115.1177,-195.4632"/>
<polygon fill="#000000" stroke="#000000" points="1115.8393,-198.8899 1125.0758,-193.6998 1114.6187,-191.9971 1115.8393,-198.8899"/>
</g>
<!-- readjson&#45;&gt;opresultwarn -->
<g id="edge86" class="edge">
<title>readjson&#45;&gt;opresultwarn</title>
<path fill="none" stroke="#000000" d="M265.9277,-837.1365C218.1627,-784.8801 110.7064,-650.2674 176,-558.5083 195.2242,-531.4918 636.5073,-390.7617 809.4042,-336.4314"/>
<polygon fill="#000000" stroke="#000000" points="810.6728,-339.7017 819.1649,-333.3665 808.5756,-333.0232 810.6728,-339.7017"/>
</g>
<!-- readjson&#45;&gt;messages -->
<g id="edge82" class="edge">
<title>readjson&#45;&gt;messages</title>
<path fill="none" stroke="#000000" d="M246.96,-840.5136C213.6198,-823.204 167.1945,-794.3408 139,-756.4917 52.5631,-640.4564 38,-591.6912 38,-447 38,-447 38,-447 38,-315 38,-185.5708 159.0982,-198.0038 281,-154.5083 463.6047,-89.3534 1045.7988,-57.327 1277.0155,-46.9278"/>
<polygon fill="#000000" stroke="#000000" points="1277.2582,-50.4205 1287.0923,-46.4783 1276.9462,-43.4275 1277.2582,-50.4205"/>
</g>
<!-- parseCommandLine&#45;&gt;regexes -->
<g id="edge10" class="edge">
<title>parseCommandLine&#45;&gt;regexes</title>
<path fill="none" stroke="#000000" d="M2555.3972,-570.6662C2377.0428,-542.5473 2015.5462,-485.5546 1853.195,-459.9587"/>
<polygon fill="#000000" stroke="#000000" points="1853.686,-456.4929 1843.2629,-458.3928 1852.5958,-463.4075 1853.686,-456.4929"/>
</g>
<!-- parseCommandLine&#45;&gt;cmdline -->
<g id="edge11" class="edge">
<title>parseCommandLine&#45;&gt;cmdline</title>
<path fill="none" stroke="#000000" d="M2661.6063,-564.195C2664.0345,-542.948 2667.7037,-510.8428 2670.588,-485.6049"/>
<polygon fill="#000000" stroke="#000000" points="2674.072,-485.9435 2671.7302,-475.6108 2667.1173,-485.1486 2674.072,-485.9435"/>
</g>
<!-- parseCommandLine&#45;&gt;warnings -->
<g id="edge9" class="edge">
<title>parseCommandLine&#45;&gt;warnings</title>
<path fill="none" stroke="#000000" d="M2637.4948,-564.467C2616.6151,-542.3119 2584.308,-507.2885 2558,-475.4917 2537.7745,-451.0465 2541.0585,-436.6079 2515,-418.5083 2310.606,-276.5411 1528.8673,-207.7672 1272.1879,-188.6791"/>
<polygon fill="#000000" stroke="#000000" points="1272.4147,-185.1864 1262.1841,-187.9406 1271.8993,-192.1674 1272.4147,-185.1864"/>
</g>
<!-- parseCommandLine&#45;&gt;args -->
<g id="edge7" class="edge">
<title>parseCommandLine&#45;&gt;args</title>
<path fill="none" stroke="#000000" d="M2628.577,-564.8166C2593.4338,-539.1913 2535.8317,-497.1898 2499.7366,-470.8705"/>
<polygon fill="#000000" stroke="#000000" points="2501.6351,-467.9231 2491.4929,-464.8594 2497.5109,-473.5792 2501.6351,-467.9231"/>
</g>
<!-- parseCommandLine&#45;&gt;messages -->
<g id="edge8" class="edge">
<title>parseCommandLine&#45;&gt;messages</title>
<path fill="none" stroke="#000000" d="M2645.5111,-564.2105C2596.4108,-482.0976 2425.4209,-203.644 2336,-154.5083 2188.334,-73.3675 1682.5831,-50.9395 1469.2005,-45.0182"/>
<polygon fill="#000000" stroke="#000000" points="1469.046,-41.5128 1458.9548,-44.7403 1468.8562,-48.5102 1469.046,-41.5128"/>
</g>
<!-- processTemplate&#45;&gt;parseCmdLine -->
<g id="edge29" class="edge">
<title>processTemplate&#45;&gt;parseCmdLine</title>
<path fill="none" stroke="#000000" d="M1853.4311,-1091.308C1863.2255,-1069.4289 1877.8513,-1035.2245 1888,-1004.6274 1912.299,-931.3687 1891.103,-902.4446 1931,-836.3726 1950.7058,-803.7386 1983.2735,-775.2309 2009.5119,-755.6553"/>
<polygon fill="#000000" stroke="#000000" points="2011.7689,-758.3411 2017.7841,-749.6195 2007.6428,-752.6864 2011.7689,-758.3411"/>
</g>
<!-- processTemplate&#45;&gt;env -->
<g id="edge19" class="edge">
<title>processTemplate&#45;&gt;env</title>
<path fill="none" stroke="#000000" d="M1897.3564,-1093.5402C1980.5895,-1059.9887 2140.7991,-986.3737 2244,-881.6274 2279.1449,-845.9563 2304.5281,-793.0242 2318.2504,-759.5324"/>
<polygon fill="#000000" stroke="#000000" points="2321.5118,-760.8027 2321.9713,-750.2178 2315.0113,-758.2058 2321.5118,-760.8027"/>
</g>
<!-- processTemplate&#45;&gt;variables -->
<g id="edge91" class="edge">
<title>processTemplate&#45;&gt;variables</title>
<path fill="none" stroke="#000000" d="M1819.0393,-1091.4948C1778.6724,-1052.3829 1696.8415,-967.7725 1649,-881.6274 1607.624,-807.1243 1637.5443,-769.5521 1589,-699.5083 1563.754,-663.0812 1523.3843,-632.4213 1492.4675,-612.3538"/>
<polygon fill="#000000" stroke="#000000" points="1494.3345,-609.3934 1484.0185,-606.9787 1490.5771,-615.2995 1494.3345,-609.3934"/>
</g>
<!-- processTemplate&#45;&gt;vartypes -->
<g id="edge92" class="edge">
<title>processTemplate&#45;&gt;vartypes</title>
<path fill="none" stroke="#000000" d="M1725.1962,-1106.3269C1366.3195,-1081.7325 305.1479,-999.5246 209,-881.6274 142.4532,-800.0272 -27.9543,-851.0838 287,-558.5083 354.7867,-495.5381 624.7217,-464.6271 759.5453,-452.8657"/>
<polygon fill="#000000" stroke="#000000" points="760.1376,-456.3278 769.8015,-451.9852 759.5388,-449.3534 760.1376,-456.3278"/>
</g>
<!-- processTemplate&#45;&gt;replacement -->
<g id="edge105" class="edge">
<title>processTemplate&#45;&gt;replacement</title>
<path fill="none" stroke="#000000" d="M1834.9244,-1091.3705C1818.7011,-1045.9097 1782.1112,-943.3775 1763.4351,-891.0433"/>
<polygon fill="#000000" stroke="#000000" points="1766.715,-889.8207 1760.0575,-881.5788 1760.1222,-892.1735 1766.715,-889.8207"/>
</g>
<!-- processTemplate&#45;&gt;readlines -->
<g id="edge23" class="edge">
<title>processTemplate&#45;&gt;readlines</title>
<path fill="none" stroke="#000000" d="M1762.7472,-1096.6027C1708.4226,-1080.9858 1638.676,-1052.8646 1594,-1004.6274 1530.8744,-936.4699 1508.4536,-824.8641 1500.784,-766.425"/>
<polygon fill="#000000" stroke="#000000" points="1504.2569,-765.9897 1499.5564,-756.4947 1497.3098,-766.8485 1504.2569,-765.9897"/>
</g>
<!-- processTemplate&#45;&gt;collectCommand -->
<g id="edge36" class="edge">
<title>processTemplate&#45;&gt;collectCommand</title>
<path fill="none" stroke="#000000" d="M1862.8785,-1091.3705C1903.3108,-1045.3426 1995.135,-940.8107 2040.5518,-889.1085"/>
<polygon fill="#000000" stroke="#000000" points="2043.1959,-891.4017 2047.166,-881.5788 2037.9368,-886.782 2043.1959,-891.4017"/>
</g>
<!-- processTemplate&#45;&gt;args -->
<g id="edge13" class="edge">
<title>processTemplate&#45;&gt;args</title>
<path fill="none" stroke="#000000" d="M1911.806,-1095.0804C1971.8974,-1076.8897 2060.182,-1046.0528 2130,-1004.6274 2202.3865,-961.6781 2215.3176,-941.9666 2274,-881.6274 2323.8295,-830.3911 2341.7424,-819.7536 2375,-756.4917 2424.3568,-662.6064 2451.013,-538.4229 2461.5612,-480.0248"/>
<polygon fill="#000000" stroke="#000000" points="2465.0552,-480.3642 2463.3451,-469.9083 2458.1616,-479.1485 2465.0552,-480.3642"/>
</g>
<!-- processTemplate&#45;&gt;opresultwarn -->
<g id="edge106" class="edge">
<title>processTemplate&#45;&gt;opresultwarn</title>
<path fill="none" stroke="#000000" d="M1719.6681,-1109.924C1420.8295,-1099.1798 664.627,-1066.5625 420,-1004.6274 289.8113,-971.666 217.1232,-994.2709 144,-881.6274 104.2209,-820.3492 -78.7205,-921.2104 153,-558.5083 197.1967,-489.3291 249.4148,-520.6047 318,-475.4917 350.9431,-453.8229 350.5363,-435.7452 386,-418.5083 510.2188,-358.1325 668.8421,-332.8483 771.8838,-322.3418"/>
<polygon fill="#000000" stroke="#000000" points="772.3831,-325.8095 781.9893,-321.3406 771.6929,-318.8436 772.3831,-325.8095"/>
</g>
<!-- processTemplate&#45;&gt;messages -->
<g id="edge14" class="edge">
<title>processTemplate&#45;&gt;messages</title>
<path fill="none" stroke="#000000" d="M1915.2783,-1095.4161C1983.9713,-1076.5639 2089.3581,-1044.5181 2176,-1004.6274 2478.7314,-865.2473 2637.507,-896.3037 2817,-615.4917 2857.5866,-551.9951 2836,-522.3598 2836,-447 2836,-447 2836,-447 2836,-315 2836,-100.9855 2590.6233,-202.2418 2382,-154.5083 2052.1512,-79.038 1649.529,-54.05 1468.8215,-46.2727"/>
<polygon fill="#000000" stroke="#000000" points="1468.9512,-42.7752 1458.8124,-45.8498 1468.6557,-49.7689 1468.9512,-42.7752"/>
</g>
<!-- processTemplate&#45;&gt;matches -->
<g id="edge22" class="edge">
<title>processTemplate&#45;&gt;matches</title>
<path fill="none" stroke="#000000" d="M1846.1372,-1091.2697C1852.2147,-1043.8024 1864.2177,-930.7233 1855,-836.3726 1848.9714,-774.6654 1844.6641,-759.2278 1828,-699.5083 1820.261,-671.7739 1808.8948,-641.117 1800.0915,-618.8182"/>
<polygon fill="#000000" stroke="#000000" points="1803.3312,-617.493 1796.3718,-609.5044 1796.8304,-620.0893 1803.3312,-617.493"/>
</g>
<!-- processTemplate&#45;&gt;readjson -->
<g id="edge93" class="edge">
<title>processTemplate&#45;&gt;readjson</title>
<path fill="none" stroke="#000000" d="M1738.2463,-1101.4891C1495.9164,-1071.6747 878.4815,-990.7021 370,-881.6274 362.9721,-880.1199 355.6534,-878.3795 348.4015,-876.5471"/>
<polygon fill="#000000" stroke="#000000" points="349.1458,-873.1244 338.5876,-874.0045 347.3901,-879.9007 349.1458,-873.1244"/>
</g>
<!-- runCommand -->
<g id="node30" class="node">
<title>runCommand</title>
<g id="a_node30"><a xlink:href="runCommand.md" xlink:title="runCommand.md">
<ellipse fill="#eee8aa" stroke="#000000" cx="1272" cy="-982" rx="104.7872" ry="22.7556"/>
<text text-anchor="middle" x="1272" y="-974.8" font-family="Times,serif" font-size="24.00" fill="#000000">runCommand</text>
</a>
</g>
</g>
<!-- processTemplate&#45;&gt;runCommand -->
<g id="edge90" class="edge">
<title>processTemplate&#45;&gt;runCommand</title>
<path fill="none" stroke="#000000" d="M1765.6955,-1096.1293C1658.0055,-1071.2342 1463.7106,-1026.3184 1353.7132,-1000.8899"/>
<polygon fill="#000000" stroke="#000000" points="1354.1944,-997.4089 1343.663,-998.5666 1352.6177,-1004.2291 1354.1944,-997.4089"/>
</g>
<!-- runCommand&#45;&gt;runFunction -->
<g id="edge80" class="edge">
<title>runCommand&#45;&gt;runFunction</title>
<path fill="none" stroke="#000000" d="M1206.4694,-964.2461C1122.5306,-941.505 977.5198,-902.2179 890.3979,-878.6144"/>
<polygon fill="#000000" stroke="#000000" points="891.157,-875.194 880.5897,-875.9571 889.3265,-881.9504 891.157,-875.194"/>
</g>
<!-- runCommand&#45;&gt;parseNumber -->
<g id="edge47" class="edge">
<title>runCommand&#45;&gt;parseNumber</title>
<path fill="none" stroke="#000000" d="M1255.9375,-959.4592C1224.6478,-915.55 1155.2684,-818.1888 1117.2202,-764.7952"/>
<polygon fill="#000000" stroke="#000000" points="1120.047,-762.731 1111.3934,-756.6183 1114.3463,-766.7933 1120.047,-762.731"/>
</g>
<!-- runCommand&#45;&gt;regexes -->
<g id="edge39" class="edge">
<title>runCommand&#45;&gt;regexes</title>
<path fill="none" stroke="#000000" d="M1275.6908,-959.3194C1289.4767,-875.7488 1338.6118,-588.3118 1367,-558.5083 1410.9365,-512.3813 1583.7772,-477.1868 1688.6283,-459.5495"/>
<polygon fill="#000000" stroke="#000000" points="1689.2664,-462.9916 1698.5563,-457.8977 1688.1175,-456.0865 1689.2664,-462.9916"/>
</g>
<!-- runCommand&#45;&gt;env -->
<g id="edge40" class="edge">
<title>runCommand&#45;&gt;env</title>
<path fill="none" stroke="#000000" d="M1376.7057,-980.5205C1589.0965,-975.9489 2062.3496,-957.3182 2203,-881.6274 2254.8899,-853.703 2293.9398,-794.9551 2314.2726,-758.7445"/>
<polygon fill="#000000" stroke="#000000" points="2317.5386,-760.0672 2319.2709,-749.615 2311.3986,-756.7056 2317.5386,-760.0672"/>
</g>
<!-- runCommand&#45;&gt;variables -->
<g id="edge54" class="edge">
<title>runCommand&#45;&gt;variables</title>
<path fill="none" stroke="#000000" d="M1285.4618,-959.5448C1296.9519,-939.6287 1313.2725,-909.4625 1324,-881.6274 1354.1016,-803.5212 1337.1861,-775.6311 1372,-699.5083 1385.7045,-669.5423 1407.2748,-638.8961 1424.1031,-617.1712"/>
<polygon fill="#000000" stroke="#000000" points="1426.8618,-619.3252 1430.2942,-609.3017 1421.3603,-614.9969 1426.8618,-619.3252"/>
</g>
<!-- runCommand&#45;&gt;vartypes -->
<g id="edge44" class="edge">
<title>runCommand&#45;&gt;vartypes</title>
<path fill="none" stroke="#000000" d="M1168.6248,-978.4778C1014.9597,-971.0589 736.7565,-948.5291 666,-881.6274 606.4948,-825.364 604.1642,-774.0843 638,-699.5083 661.4264,-647.8752 697.4614,-658.8473 734,-615.4917 744.0509,-603.5657 791.8523,-523.4663 818.6604,-478.1337"/>
<polygon fill="#000000" stroke="#000000" points="821.8102,-479.6831 823.883,-469.293 815.7832,-476.1227 821.8102,-479.6831"/>
</g>
<!-- runCommand&#45;&gt;readlines -->
<g id="edge37" class="edge">
<title>runCommand&#45;&gt;readlines</title>
<path fill="none" stroke="#000000" d="M1305.6116,-960.4202C1333.0648,-941.7349 1371.7995,-912.8561 1400,-881.6274 1432.1325,-846.0445 1460.3031,-798.5584 1477.8892,-765.8474"/>
<polygon fill="#000000" stroke="#000000" points="1481.1903,-767.0927 1482.7813,-756.618 1475.0054,-763.8144 1481.1903,-767.0927"/>
</g>
<!-- runCommand&#45;&gt;funtypes -->
<g id="edge58" class="edge">
<title>runCommand&#45;&gt;funtypes</title>
<path fill="none" stroke="#000000" d="M1171.8471,-975.2873C1031.047,-963.9921 784.0351,-936.7972 715,-881.6274 649.1458,-828.9997 617.2475,-770.9482 662,-699.5083 696.9557,-643.7073 768.3364,-614.8867 822.7426,-600.464"/>
<polygon fill="#000000" stroke="#000000" points="823.8617,-603.791 832.6913,-597.9353 822.1373,-597.0067 823.8617,-603.791"/>
</g>
<!-- runCommand&#45;&gt;warnings -->
<g id="edge46" class="edge">
<title>runCommand&#45;&gt;warnings</title>
<path fill="none" stroke="#000000" d="M1266.311,-959.4013C1255.7103,-915.2439 1234,-814.2777 1234,-728 1234,-728 1234,-728 1234,-447 1234,-362.626 1211.8625,-265.1223 1198.9924,-215.5656"/>
<polygon fill="#000000" stroke="#000000" points="1202.3351,-214.5155 1196.398,-205.7405 1195.5671,-216.3027 1202.3351,-214.5155"/>
</g>
<!-- runCommand&#45;&gt;collectCommand -->
<g id="edge88" class="edge">
<title>runCommand&#45;&gt;collectCommand</title>
<path fill="none" stroke="#000000" d="M1357.4563,-968.7785C1503.632,-946.1626 1801.2866,-900.1104 1960.6581,-875.4529"/>
<polygon fill="#000000" stroke="#000000" points="1961.6053,-878.8481 1970.9526,-873.8602 1960.535,-871.9304 1961.6053,-878.8481"/>
</g>
<!-- runCommand&#45;&gt;opresultwarn -->
<g id="edge89" class="edge">
<title>runCommand&#45;&gt;opresultwarn</title>
<path fill="none" stroke="#000000" d="M1171.9593,-975.3084C1043.4514,-964.7134 814.6047,-939.054 627,-881.6274 502.0711,-843.3862 444.8838,-856.6572 361,-756.4917 303.4734,-687.7994 273.9977,-633.5197 323,-558.5083 337.6435,-536.0924 679.9527,-395.3442 819.5449,-338.6353"/>
<polygon fill="#000000" stroke="#000000" points="820.8907,-341.8665 828.8397,-334.8619 818.2575,-335.3806 820.8907,-341.8665"/>
</g>
<!-- runCommand&#45;&gt;messages -->
<g id="edge45" class="edge">
<title>runCommand&#45;&gt;messages</title>
<path fill="none" stroke="#000000" d="M1274.0885,-959.2886C1276.7458,-930.6298 1281.5286,-879.8296 1286,-836.3726 1315.8439,-546.3228 1355.4085,-197.0495 1368.5483,-81.895"/>
<polygon fill="#000000" stroke="#000000" points="1372.0434,-82.1361 1369.7005,-71.8036 1365.0886,-81.3419 1372.0434,-82.1361"/>
</g>
<!-- runCommand&#45;&gt;matches -->
<g id="edge38" class="edge">
<title>runCommand&#45;&gt;matches</title>
<path fill="none" stroke="#000000" d="M1290.96,-959.7456C1306.855,-940.1992 1329.2555,-910.4586 1344,-881.6274 1363.4334,-843.6275 1374.2703,-729.1281 1405,-699.5083 1449.7706,-656.3546 1620.2348,-618.2959 1717.6445,-599.4791"/>
<polygon fill="#000000" stroke="#000000" points="1718.5391,-602.8715 1727.703,-597.5543 1717.2233,-595.9963 1718.5391,-602.8715"/>
</g>
<!-- runCommand&#45;&gt;readjson -->
<g id="edge87" class="edge">
<title>runCommand&#45;&gt;readjson</title>
<path fill="none" stroke="#000000" d="M1171.1316,-975.9074C1003.5929,-964.644 657.8781,-936.5405 370,-881.6274 362.7573,-880.2459 355.2214,-878.5557 347.7748,-876.7273"/>
<polygon fill="#000000" stroke="#000000" points="348.6231,-873.3317 338.0689,-874.2584 346.8974,-880.1157 348.6231,-873.3317"/>
</g>
</g>
</svg>
