<?xml version="1.0" encoding="UTF-8" standalone="no"?>
<!DOCTYPE svg PUBLIC "-//W3C//DTD SVG 1.1//EN"
 "http://www.w3.org/Graphics/SVG/1.1/DTD/svg11.dtd">
<!-- Generated by graphviz version 2.40.1 (20161225.0304)
 -->
<!-- Title: statictea Pages: 1 -->
<svg width="720pt" height="354pt"
 viewBox="0.00 0.00 720.00 353.62" xmlns="http://www.w3.org/2000/svg" xmlns:xlink="http://www.w3.org/1999/xlink">
<g id="graph0" class="graph" transform="scale(.2624 .2624) rotate(0) translate(4 1343.8857)">
<title>statictea</title>
<polygon fill="#ffffff" stroke="transparent" points="-4,4 -4,-1343.8857 2740.3887,-1343.8857 2740.3887,4 -4,4"/>
<!-- runFunction -->
<g id="node1" class="node">
<title>runFunction</title>
<g id="a_node1"><a xlink:href="runFunction.md" xlink:title="runFunction.md">
<ellipse fill="#eee8aa" stroke="#000000" cx="844.2345" cy="-882" rx="94.055" ry="22.7556"/>
<text text-anchor="middle" x="844.2345" y="-874.8" font-family="Times,serif" font-size="24.00" fill="#000000">runFunction</text>
</a>
</g>
</g>
<!-- parseNumber -->
<g id="node3" class="node">
<title>parseNumber</title>
<g id="a_node3"><a xlink:href="parseNumber.md" xlink:title="parseNumber.md">
<polygon fill="#98fb98" stroke="#000000" points="1280.6151,-733.8581 1280.6151,-754.1419 1215.3699,-768.4846 1123.0992,-768.4846 1057.854,-754.1419 1057.854,-733.8581 1123.0992,-719.5154 1215.3699,-719.5154 1280.6151,-733.8581"/>
<polygon fill="none" stroke="#000000" points="1284.6218,-730.6442 1284.6218,-757.3558 1215.8059,-772.4835 1122.6632,-772.4835 1053.8473,-757.3558 1053.8473,-730.6442 1122.6632,-715.5165 1215.8059,-715.5165 1284.6218,-730.6442"/>
<text text-anchor="middle" x="1169.2345" y="-736.8" font-family="Times,serif" font-size="24.00" fill="#000000">parseNumber</text>
</a>
</g>
</g>
<!-- runFunction&#45;&gt;parseNumber -->
<g id="edge56" class="edge">
<title>runFunction&#45;&gt;parseNumber</title>
<path fill="none" stroke="#000000" d="M890.7991,-862.228C945.3912,-839.0473 1036.4092,-800.3997 1099.4499,-773.6316"/>
<polygon fill="#000000" stroke="#000000" points="1101.0919,-776.7369 1108.9285,-769.6069 1098.356,-770.2937 1101.0919,-776.7369"/>
</g>
<!-- regexes -->
<g id="node4" class="node">
<title>regexes</title>
<g id="a_node4"><a xlink:href="regexes.md" xlink:title="regexes.md">
<polygon fill="#98fb98" stroke="#000000" points="1646.4216,-457.8581 1646.4216,-478.1419 1606.4785,-492.4846 1549.9906,-492.4846 1510.0475,-478.1419 1510.0475,-457.8581 1549.9906,-443.5154 1606.4785,-443.5154 1646.4216,-457.8581"/>
<polygon fill="none" stroke="#000000" points="1650.4127,-455.0434 1650.4127,-480.9566 1607.1721,-496.4835 1549.297,-496.4835 1506.0564,-480.9566 1506.0564,-455.0434 1549.297,-439.5165 1607.1721,-439.5165 1650.4127,-455.0434"/>
<text text-anchor="middle" x="1578.2345" y="-460.8" font-family="Times,serif" font-size="24.00" fill="#000000">regexes</text>
</a>
</g>
</g>
<!-- runFunction&#45;&gt;regexes -->
<g id="edge55" class="edge">
<title>runFunction&#45;&gt;regexes</title>
<path fill="none" stroke="#000000" d="M854.6178,-859.3012C872.1391,-823.4899 910.9475,-754.0044 964.2345,-715.5083 1068.4782,-640.1997 1120.5377,-675.6466 1240.2345,-628.6274 1343.6161,-588.0172 1459.6567,-530.012 1525.3439,-495.9556"/>
<polygon fill="#000000" stroke="#000000" points="1527.0142,-499.032 1534.2719,-491.3134 1523.7849,-492.8214 1527.0142,-499.032"/>
</g>
<!-- unicodes -->
<g id="node7" class="node">
<title>unicodes</title>
<g id="a_node7"><a xlink:href="unicodes.md" xlink:title="unicodes.md">
<ellipse fill="#eee8aa" stroke="#000000" cx="332.2345" cy="-330" rx="71.7778" ry="22.7556"/>
<text text-anchor="middle" x="332.2345" y="-322.8" font-family="Times,serif" font-size="24.00" fill="#000000">unicodes</text>
</a>
</g>
</g>
<!-- runFunction&#45;&gt;unicodes -->
<g id="edge64" class="edge">
<title>runFunction&#45;&gt;unicodes</title>
<path fill="none" stroke="#000000" d="M772.6693,-867.2654C683.0011,-847.5168 536.219,-810.5229 496.2345,-772.4917 375.0809,-657.2566 342.8678,-444.5297 334.7852,-362.9925"/>
<polygon fill="#000000" stroke="#000000" points="338.2504,-362.4556 333.8365,-352.824 331.2806,-363.1059 338.2504,-362.4556"/>
</g>
<!-- vartypes -->
<g id="node10" class="node">
<title>vartypes</title>
<g id="a_node10"><a xlink:href="vartypes.md" xlink:title="vartypes.md">
<ellipse fill="#eee8aa" stroke="#000000" cx="686.2345" cy="-330" rx="68.6102" ry="22.7556"/>
<text text-anchor="middle" x="686.2345" y="-322.8" font-family="Times,serif" font-size="24.00" fill="#000000">vartypes</text>
</a>
</g>
</g>
<!-- runFunction&#45;&gt;vartypes -->
<g id="edge54" class="edge">
<title>runFunction&#45;&gt;vartypes</title>
<path fill="none" stroke="#000000" d="M772.0773,-867.3571C687.2729,-848.512 554.3683,-813.2956 525.2345,-772.4917 427.8403,-636.0845 589.7222,-434.344 658.0459,-359.4167"/>
<polygon fill="#000000" stroke="#000000" points="660.9183,-361.4647 665.1248,-351.7407 655.7725,-356.7192 660.9183,-361.4647"/>
</g>
<!-- funtypes -->
<g id="node14" class="node">
<title>funtypes</title>
<g id="a_node14"><a xlink:href="funtypes.md" xlink:title="funtypes.md">
<ellipse fill="#eee8aa" stroke="#000000" cx="733.2345" cy="-606" rx="69.5163" ry="22.7556"/>
<text text-anchor="middle" x="733.2345" y="-598.8" font-family="Times,serif" font-size="24.00" fill="#000000">funtypes</text>
</a>
</g>
</g>
<!-- runFunction&#45;&gt;funtypes -->
<g id="edge69" class="edge">
<title>runFunction&#45;&gt;funtypes</title>
<path fill="none" stroke="#000000" d="M835.1509,-859.4138C815.4665,-810.4687 768.8233,-694.4909 746.1095,-638.0133"/>
<polygon fill="#000000" stroke="#000000" points="749.2666,-636.4831 742.288,-628.5112 742.7721,-639.095 749.2666,-636.4831"/>
</g>
<!-- warnings -->
<g id="node16" class="node">
<title>warnings</title>
<g id="a_node16"><a xlink:href="warnings.md" xlink:title="warnings.md">
<ellipse fill="#eee8aa" stroke="#000000" cx="1002.2345" cy="-192" rx="73.5561" ry="22.7556"/>
<text text-anchor="middle" x="1002.2345" y="-184.8" font-family="Times,serif" font-size="24.00" fill="#000000">warnings</text>
</a>
</g>
</g>
<!-- runFunction&#45;&gt;warnings -->
<g id="edge53" class="edge">
<title>runFunction&#45;&gt;warnings</title>
<path fill="none" stroke="#000000" d="M844.4552,-859.3287C845.2092,-826.9882 848.2662,-765.9404 860.2345,-715.5083 884.3441,-613.9155 916.6169,-596.9079 945.2345,-496.4917 972.8609,-399.5539 990.5874,-281.3506 998.1023,-224.977"/>
<polygon fill="#000000" stroke="#000000" points="1001.5976,-225.2403 999.4279,-214.87 994.6571,-224.3299 1001.5976,-225.2403"/>
</g>
<!-- signatures -->
<g id="node20" class="node">
<title>signatures</title>
<g id="a_node20"><a xlink:href="signatures.md" xlink:title="signatures.md">
<ellipse fill="#eee8aa" stroke="#000000" cx="614.2345" cy="-744" rx="80.2483" ry="22.7556"/>
<text text-anchor="middle" x="614.2345" y="-736.8" font-family="Times,serif" font-size="24.00" fill="#000000">signatures</text>
</a>
</g>
</g>
<!-- runFunction&#45;&gt;signatures -->
<g id="edge68" class="edge">
<title>runFunction&#45;&gt;signatures</title>
<path fill="none" stroke="#000000" d="M809.0521,-860.8906C768.318,-836.45 701.2199,-796.1912 657.3755,-769.8846"/>
<polygon fill="#000000" stroke="#000000" points="659.0368,-766.7997 648.6611,-764.6559 655.4353,-772.8021 659.0368,-766.7997"/>
</g>
<!-- messages -->
<g id="node22" class="node">
<title>messages</title>
<g id="a_node22"><a xlink:href="messages.md" xlink:title="messages.md">
<polygon fill="#98fb98" stroke="#000000" points="1393.9734,-34.8581 1393.9734,-55.1419 1346.0919,-69.4846 1278.3772,-69.4846 1230.4957,-55.1419 1230.4957,-34.8581 1278.3772,-20.5154 1346.0919,-20.5154 1393.9734,-34.8581"/>
<polygon fill="none" stroke="#000000" points="1397.9791,-31.883 1397.9791,-58.117 1346.6799,-73.4835 1277.7892,-73.4835 1226.49,-58.117 1226.49,-31.883 1277.7892,-16.5165 1346.6799,-16.5165 1397.9791,-31.883"/>
<text text-anchor="middle" x="1312.2345" y="-37.8" font-family="Times,serif" font-size="24.00" fill="#000000">messages</text>
</a>
</g>
</g>
<!-- runFunction&#45;&gt;messages -->
<g id="edge52" class="edge">
<title>runFunction&#45;&gt;messages</title>
<path fill="none" stroke="#000000" d="M846.5146,-859.2544C851.2058,-824.0053 865.0386,-756.0338 904.2345,-715.5083 976.7456,-640.5375 1035.0311,-685.8465 1122.2345,-628.6274 1191.9008,-582.9154 1218.4579,-571.2611 1255.2345,-496.4917 1259.7957,-487.2187 1294.9931,-191.3695 1307.688,-83.6957"/>
<polygon fill="#000000" stroke="#000000" points="1311.1853,-83.9236 1308.8794,-73.5827 1304.2334,-83.1045 1311.1853,-83.9236"/>
</g>
<!-- matches -->
<g id="node23" class="node">
<title>matches</title>
<g id="a_node23"><a xlink:href="matches.md" xlink:title="matches.md">
<ellipse fill="#eee8aa" stroke="#000000" cx="1786.2345" cy="-606" rx="66.8311" ry="22.7556"/>
<text text-anchor="middle" x="1786.2345" y="-598.8" font-family="Times,serif" font-size="24.00" fill="#000000">matches</text>
</a>
</g>
</g>
<!-- runFunction&#45;&gt;matches -->
<g id="edge57" class="edge">
<title>runFunction&#45;&gt;matches</title>
<path fill="none" stroke="#000000" d="M867.5057,-859.9475C911.3335,-818.8988 1005.295,-733.3081 1045.2345,-715.5083 1163.6155,-662.7495 1546.8793,-625.7595 1710.7716,-611.9675"/>
<polygon fill="#000000" stroke="#000000" points="1711.0992,-615.4524 1720.7729,-611.1318 1710.5162,-608.4767 1711.0992,-615.4524"/>
</g>
<!-- opresultid -->
<g id="node2" class="node">
<title>opresultid</title>
<g id="a_node2"><a xlink:href="opresultid.md" xlink:title="opresultid.md">
<ellipse fill="#eee8aa" stroke="#000000" cx="368.2345" cy="-192" rx="79.3758" ry="22.7556"/>
<text text-anchor="middle" x="368.2345" y="-184.8" font-family="Times,serif" font-size="24.00" fill="#000000">opresultid</text>
</a>
</g>
</g>
<!-- opresultid&#45;&gt;messages -->
<g id="edge59" class="edge">
<title>opresultid&#45;&gt;messages</title>
<path fill="none" stroke="#000000" d="M419.4973,-174.7009C432.9629,-170.597 447.5499,-166.5372 461.2345,-163.5083 731.8344,-103.6143 1057.9013,-68.2358 1216.3892,-53.3361"/>
<polygon fill="#000000" stroke="#000000" points="1216.9525,-56.7988 1226.5838,-52.3842 1216.3017,-49.8291 1216.9525,-56.7988"/>
</g>
<!-- opresult -->
<g id="node28" class="node">
<title>opresult</title>
<g id="a_node28"><a xlink:href="opresult.md" xlink:title="opresult.md">
<polygon fill="#98fb98" stroke="#000000" points="332.5872,-34.8581 332.5872,-55.1419 290.7898,-69.4846 231.6793,-69.4846 189.8819,-55.1419 189.8819,-34.8581 231.6793,-20.5154 290.7898,-20.5154 332.5872,-34.8581"/>
<polygon fill="none" stroke="#000000" points="336.5832,-32.0019 336.5832,-57.9981 291.4559,-73.4835 231.0132,-73.4835 185.8859,-57.9981 185.8859,-32.0019 231.0132,-16.5165 291.4559,-16.5165 336.5832,-32.0019"/>
<text text-anchor="middle" x="261.2345" y="-37.8" font-family="Times,serif" font-size="24.00" fill="#000000">opresult</text>
</a>
</g>
</g>
<!-- opresultid&#45;&gt;opresult -->
<g id="edge60" class="edge">
<title>opresultid&#45;&gt;opresult</title>
<path fill="none" stroke="#000000" d="M351.9835,-169.6739C335.0294,-146.3817 308.1674,-109.4778 288.0604,-81.8542"/>
<polygon fill="#000000" stroke="#000000" points="290.7704,-79.6299 282.0556,-73.6047 285.1109,-83.7494 290.7704,-79.6299"/>
</g>
<!-- parseCmdLine -->
<g id="node5" class="node">
<title>parseCmdLine</title>
<g id="a_node5"><a xlink:href="parseCmdLine.md" xlink:title="parseCmdLine.md">
<ellipse fill="#eee8aa" stroke="#000000" cx="1717.2345" cy="-744" rx="111.4463" ry="22.7556"/>
<text text-anchor="middle" x="1717.2345" y="-736.8" font-family="Times,serif" font-size="24.00" fill="#000000">parseCmdLine</text>
</a>
</g>
</g>
<!-- parseCmdLine&#45;&gt;regexes -->
<g id="edge19" class="edge">
<title>parseCmdLine&#45;&gt;regexes</title>
<path fill="none" stroke="#000000" d="M1705.8596,-721.4138C1682.0289,-674.0954 1626.6457,-564.1258 1597.29,-505.8368"/>
<polygon fill="#000000" stroke="#000000" points="1600.2633,-503.9592 1592.6393,-496.6022 1594.0114,-507.1078 1600.2633,-503.9592"/>
</g>
<!-- env -->
<g id="node6" class="node">
<title>env</title>
<g id="a_node6"><a xlink:href="env.md" xlink:title="env.md">
<ellipse fill="#eee8aa" stroke="#000000" cx="1996.2345" cy="-606" rx="35.6342" ry="22.7556"/>
<text text-anchor="middle" x="1996.2345" y="-598.8" font-family="Times,serif" font-size="24.00" fill="#000000">env</text>
</a>
</g>
</g>
<!-- parseCmdLine&#45;&gt;env -->
<g id="edge18" class="edge">
<title>parseCmdLine&#45;&gt;env</title>
<path fill="none" stroke="#000000" d="M1759.6086,-723.0408C1813.8547,-696.2094 1907,-650.1375 1958.7688,-624.5314"/>
<polygon fill="#000000" stroke="#000000" points="1960.5233,-627.5684 1967.935,-619.9976 1957.4198,-621.294 1960.5233,-627.5684"/>
</g>
<!-- parseCmdLine&#45;&gt;messages -->
<g id="edge20" class="edge">
<title>parseCmdLine&#45;&gt;messages</title>
<path fill="none" stroke="#000000" d="M1711.8118,-721.2541C1701.0956,-674.2469 1678.2345,-562.8496 1678.2345,-468 1678.2345,-468 1678.2345,-468 1678.2345,-330 1678.2345,-184.7906 1496.6697,-102.749 1389.3027,-66.9288"/>
<polygon fill="#000000" stroke="#000000" points="1390.3838,-63.6 1379.7911,-63.8113 1388.2036,-70.2518 1390.3838,-63.6"/>
</g>
<!-- parseCmdLine&#45;&gt;matches -->
<g id="edge21" class="edge">
<title>parseCmdLine&#45;&gt;matches</title>
<path fill="none" stroke="#000000" d="M1728.6285,-721.2121C1740.0327,-698.4037 1757.671,-663.1272 1770.4263,-637.6165"/>
<polygon fill="#000000" stroke="#000000" points="1773.7109,-638.8734 1775.0526,-628.3639 1767.4499,-635.7429 1773.7109,-638.8734"/>
</g>
<!-- tempFile -->
<g id="node9" class="node">
<title>tempFile</title>
<g id="a_node9"><a xlink:href="tempFile.md" xlink:title="tempFile.md">
<polygon fill="#98fb98" stroke="#000000" points="1903.8325,-457.8581 1903.8325,-478.1419 1858.3767,-492.4846 1794.0924,-492.4846 1748.6366,-478.1419 1748.6366,-457.8581 1794.0924,-443.5154 1858.3767,-443.5154 1903.8325,-457.8581"/>
<polygon fill="none" stroke="#000000" points="1907.835,-454.9275 1907.835,-481.0725 1858.9937,-496.4835 1793.4754,-496.4835 1744.6341,-481.0725 1744.6341,-454.9275 1793.4754,-439.5165 1858.9937,-439.5165 1907.835,-454.9275"/>
<text text-anchor="middle" x="1826.2345" y="-460.8" font-family="Times,serif" font-size="24.00" fill="#000000">tempFile</text>
</a>
</g>
</g>
<!-- env&#45;&gt;tempFile -->
<g id="edge9" class="edge">
<title>env&#45;&gt;tempFile</title>
<path fill="none" stroke="#000000" d="M1974.01,-587.9589C1947.3472,-566.315 1902.0651,-529.5565 1868.6369,-502.4207"/>
<polygon fill="#000000" stroke="#000000" points="1870.8113,-499.6778 1860.8415,-496.0927 1866.3996,-505.1126 1870.8113,-499.6778"/>
</g>
<!-- env&#45;&gt;warnings -->
<g id="edge11" class="edge">
<title>env&#45;&gt;warnings</title>
<path fill="none" stroke="#000000" d="M1988.6805,-583.6664C1974.3117,-542.5602 1942.2457,-457.4724 1917.2345,-439.5083 1650.7827,-248.1301 1483.7087,-486.558 1184.2345,-352.6274 1117.7093,-322.8761 1058.0157,-260.0282 1026.2779,-222.3703"/>
<polygon fill="#000000" stroke="#000000" points="1028.6457,-219.7429 1019.5657,-214.2835 1023.2594,-224.2136 1028.6457,-219.7429"/>
</g>
<!-- args -->
<g id="node21" class="node">
<title>args</title>
<g id="a_node21"><a xlink:href="args.md" xlink:title="args.md">
<polygon fill="#98fb98" stroke="#000000" points="2091.7837,-457.8581 2091.7837,-478.1419 2066.859,-492.4846 2031.6101,-492.4846 2006.6853,-478.1419 2006.6853,-457.8581 2031.6101,-443.5154 2066.859,-443.5154 2091.7837,-457.8581"/>
<polygon fill="none" stroke="#000000" points="2095.786,-455.5466 2095.786,-480.4534 2067.9291,-496.4835 2030.54,-496.4835 2002.6831,-480.4534 2002.6831,-455.5466 2030.54,-439.5165 2067.9291,-439.5165 2095.786,-455.5466"/>
<text text-anchor="middle" x="2049.2345" y="-460.8" font-family="Times,serif" font-size="24.00" fill="#000000">args</text>
</a>
</g>
</g>
<!-- env&#45;&gt;args -->
<g id="edge12" class="edge">
<title>env&#45;&gt;args</title>
<path fill="none" stroke="#000000" d="M2004.7499,-583.8279C2012.7838,-562.9095 2024.9932,-531.119 2034.5898,-506.1317"/>
<polygon fill="#000000" stroke="#000000" points="2037.9394,-507.172 2038.2574,-496.5819 2031.4048,-504.6623 2037.9394,-507.172"/>
</g>
<!-- env&#45;&gt;messages -->
<g id="edge10" class="edge">
<title>env&#45;&gt;messages</title>
<path fill="none" stroke="#000000" d="M1992.7782,-583.4166C1987.0922,-550.3951 1973.8603,-487.636 1949.2345,-439.5083 1877.9057,-300.1057 1860.5134,-250.3893 1730.2345,-163.5083 1632.0421,-98.0252 1497.7266,-68.3179 1408.1281,-55.1164"/>
<polygon fill="#000000" stroke="#000000" points="1408.3679,-51.6151 1397.9728,-53.6625 1407.3758,-58.5444 1408.3679,-51.6151"/>
</g>
<!-- unicodes&#45;&gt;opresultid -->
<g id="edge61" class="edge">
<title>unicodes&#45;&gt;opresultid</title>
<path fill="none" stroke="#000000" d="M338.1792,-307.2121C344.0417,-284.7392 353.0618,-250.1624 359.6914,-224.7486"/>
<polygon fill="#000000" stroke="#000000" points="363.1434,-225.3814 362.281,-214.8217 356.3701,-223.6144 363.1434,-225.3814"/>
</g>
<!-- utf8decoder -->
<g id="node15" class="node">
<title>utf8decoder</title>
<g id="a_node15"><a xlink:href="utf8decoder.md" xlink:title="utf8decoder.md">
<polygon fill="#98fb98" stroke="#000000" points="229.1641,-181.8581 229.1641,-202.1419 170.6267,-216.4846 87.8424,-216.4846 29.305,-202.1419 29.305,-181.8581 87.8424,-167.5154 170.6267,-167.5154 229.1641,-181.8581"/>
<polygon fill="none" stroke="#000000" points="233.1627,-178.7208 233.1627,-205.2792 171.1094,-220.4835 87.3597,-220.4835 25.3064,-205.2792 25.3064,-178.7208 87.3597,-163.5165 171.1094,-163.5165 233.1627,-178.7208"/>
<text text-anchor="middle" x="129.2345" y="-184.8" font-family="Times,serif" font-size="24.00" fill="#000000">utf8decoder</text>
</a>
</g>
</g>
<!-- unicodes&#45;&gt;utf8decoder -->
<g id="edge63" class="edge">
<title>unicodes&#45;&gt;utf8decoder</title>
<path fill="none" stroke="#000000" d="M301.8434,-309.34C269.5551,-287.3903 217.9737,-252.3252 179.5959,-226.2358"/>
<polygon fill="#000000" stroke="#000000" points="181.3667,-223.2074 171.1289,-220.4799 177.4313,-228.9965 181.3667,-223.2074"/>
</g>
<!-- unicodes&#45;&gt;messages -->
<g id="edge62" class="edge">
<title>unicodes&#45;&gt;messages</title>
<path fill="none" stroke="#000000" d="M359.283,-308.7823C385.3966,-287.7001 425.4051,-253.7906 456.2345,-220.4917 477.7895,-197.2103 471.933,-179.672 499.2345,-163.5083 618.9277,-92.6443 1028.1337,-60.9713 1216.2412,-49.9049"/>
<polygon fill="#000000" stroke="#000000" points="1216.6163,-53.3891 1226.3964,-49.3148 1216.2102,-46.4008 1216.6163,-53.3891"/>
</g>
<!-- unicodes&#45;&gt;opresult -->
<g id="edge58" class="edge">
<title>unicodes&#45;&gt;opresult</title>
<path fill="none" stroke="#000000" d="M318.7194,-307.3879C306.5239,-285.8387 289.1686,-252.0852 280.2345,-220.4917 267.2561,-174.5961 263.0357,-119.6419 261.7213,-83.6071"/>
<polygon fill="#000000" stroke="#000000" points="265.2168,-83.4036 261.4114,-73.5158 258.2201,-83.6186 265.2168,-83.4036"/>
</g>
<!-- variables -->
<g id="node8" class="node">
<title>variables</title>
<g id="a_node8"><a xlink:href="variables.md" xlink:title="variables.md">
<ellipse fill="#eee8aa" stroke="#000000" cx="1040.2345" cy="-606" rx="72.6337" ry="22.7556"/>
<text text-anchor="middle" x="1040.2345" y="-598.8" font-family="Times,serif" font-size="24.00" fill="#000000">variables</text>
</a>
</g>
</g>
<!-- variables&#45;&gt;vartypes -->
<g id="edge39" class="edge">
<title>variables&#45;&gt;vartypes</title>
<path fill="none" stroke="#000000" d="M1032.679,-583.2599C1019.9089,-548.0182 990.8971,-480.0566 945.2345,-439.5083 890.0501,-390.5044 809.7236,-361.189 753.1925,-345.3975"/>
<polygon fill="#000000" stroke="#000000" points="753.8461,-341.9481 743.2779,-342.698 752.0071,-348.7022 753.8461,-341.9481"/>
</g>
<!-- tostring -->
<g id="node11" class="node">
<title>tostring</title>
<g id="a_node11"><a xlink:href="tostring.md" xlink:title="tostring.md">
<ellipse fill="#eee8aa" stroke="#000000" cx="873.2345" cy="-468" rx="63.3406" ry="22.7556"/>
<text text-anchor="middle" x="873.2345" y="-460.8" font-family="Times,serif" font-size="24.00" fill="#000000">tostring</text>
</a>
</g>
</g>
<!-- variables&#45;&gt;tostring -->
<g id="edge45" class="edge">
<title>variables&#45;&gt;tostring</title>
<path fill="none" stroke="#000000" d="M1014.5068,-584.7399C985.4075,-560.6938 937.9474,-521.4753 906.166,-495.2128"/>
<polygon fill="#000000" stroke="#000000" points="908.3827,-492.5042 898.4445,-488.8322 903.9237,-497.9003 908.3827,-492.5042"/>
</g>
<!-- variables&#45;&gt;warnings -->
<g id="edge42" class="edge">
<title>variables&#45;&gt;warnings</title>
<path fill="none" stroke="#000000" d="M1038.7135,-583.118C1035.3162,-533.0619 1026.5906,-410.0961 1016.2345,-307.3726 1013.4264,-279.5183 1009.5497,-247.9663 1006.5876,-224.9072"/>
<polygon fill="#000000" stroke="#000000" points="1010.054,-224.4213 1005.2981,-214.9539 1003.112,-225.3207 1010.054,-224.4213"/>
</g>
<!-- variables&#45;&gt;args -->
<g id="edge46" class="edge">
<title>variables&#45;&gt;args</title>
<path fill="none" stroke="#000000" d="M1109.8909,-599.4153C1258.7139,-584.8837 1618.4789,-547.2846 1917.2345,-496.4917 1942.0993,-492.2644 1969.3768,-486.5584 1992.6482,-481.3631"/>
<polygon fill="#000000" stroke="#000000" points="1993.7107,-484.7115 2002.6954,-479.0967 1992.1704,-477.883 1993.7107,-484.7115"/>
</g>
<!-- variables&#45;&gt;messages -->
<g id="edge41" class="edge">
<title>variables&#45;&gt;messages</title>
<path fill="none" stroke="#000000" d="M1046.6262,-583.4601C1056.1202,-551.0206 1075.2141,-489.5668 1097.2345,-439.5083 1157.0507,-303.5294 1246.8591,-151.5307 1288.9295,-82.6054"/>
<polygon fill="#000000" stroke="#000000" points="1292.0638,-84.189 1294.3004,-73.8329 1286.0938,-80.5339 1292.0638,-84.189"/>
</g>
<!-- version -->
<g id="node24" class="node">
<title>version</title>
<g id="a_node24"><a xlink:href="version.md" xlink:title="version.md">
<polygon fill="#98fb98" stroke="#000000" points="1242.3868,-457.8581 1242.3868,-478.1419 1203.6357,-492.4846 1148.8334,-492.4846 1110.0823,-478.1419 1110.0823,-457.8581 1148.8334,-443.5154 1203.6357,-443.5154 1242.3868,-457.8581"/>
<polygon fill="none" stroke="#000000" points="1246.3767,-455.0721 1246.3767,-480.9279 1204.3489,-496.4835 1148.1202,-496.4835 1106.0924,-480.9279 1106.0924,-455.0721 1148.1202,-439.5165 1204.3489,-439.5165 1246.3767,-455.0721"/>
<text text-anchor="middle" x="1176.2345" y="-460.8" font-family="Times,serif" font-size="24.00" fill="#000000">version</text>
</a>
</g>
</g>
<!-- variables&#45;&gt;version -->
<g id="edge40" class="edge">
<title>variables&#45;&gt;version</title>
<path fill="none" stroke="#000000" d="M1061.7841,-584.1335C1082.985,-562.6209 1115.7249,-529.3995 1140.7654,-503.9908"/>
<polygon fill="#000000" stroke="#000000" points="1143.4108,-506.2928 1147.9372,-496.7135 1138.425,-501.3793 1143.4108,-506.2928"/>
</g>
<!-- vartypes&#45;&gt;warnings -->
<g id="edge34" class="edge">
<title>vartypes&#45;&gt;warnings</title>
<path fill="none" stroke="#000000" d="M727.871,-311.817C785.1788,-286.7902 888.3167,-241.7489 950.5064,-214.5901"/>
<polygon fill="#000000" stroke="#000000" points="951.985,-217.7637 959.7485,-210.554 949.1835,-211.3487 951.985,-217.7637"/>
</g>
<!-- tostring&#45;&gt;vartypes -->
<g id="edge44" class="edge">
<title>tostring&#45;&gt;vartypes</title>
<path fill="none" stroke="#000000" d="M845.6421,-447.6376C813.0047,-423.5523 758.5685,-383.3801 722.5365,-356.7897"/>
<polygon fill="#000000" stroke="#000000" points="724.3706,-353.7934 714.2461,-350.6717 720.2141,-359.4257 724.3706,-353.7934"/>
</g>
<!-- tostring&#45;&gt;warnings -->
<g id="edge43" class="edge">
<title>tostring&#45;&gt;warnings</title>
<path fill="none" stroke="#000000" d="M883.7912,-445.4138C906.715,-396.3674 961.0992,-280.0104 987.4354,-223.6633"/>
<polygon fill="#000000" stroke="#000000" points="990.6494,-225.0526 991.713,-214.5112 984.3079,-222.0886 990.6494,-225.0526"/>
</g>
<!-- replacement -->
<g id="node12" class="node">
<title>replacement</title>
<g id="a_node12"><a xlink:href="replacement.md" xlink:title="replacement.md">
<ellipse fill="#eee8aa" stroke="#000000" cx="1722.2345" cy="-882" rx="94.4556" ry="22.7556"/>
<text text-anchor="middle" x="1722.2345" y="-874.8" font-family="Times,serif" font-size="24.00" fill="#000000">replacement</text>
</a>
</g>
</g>
<!-- replacement&#45;&gt;parseNumber -->
<g id="edge91" class="edge">
<title>replacement&#45;&gt;parseNumber</title>
<path fill="none" stroke="#000000" d="M1656.6266,-865.6277C1558.5916,-841.1632 1373.4737,-794.9675 1261.7442,-767.0856"/>
<polygon fill="#000000" stroke="#000000" points="1262.3827,-763.6377 1251.8328,-764.6122 1260.6878,-770.4294 1262.3827,-763.6377"/>
</g>
<!-- replacement&#45;&gt;regexes -->
<g id="edge82" class="edge">
<title>replacement&#45;&gt;regexes</title>
<path fill="none" stroke="#000000" d="M1685.2122,-861.0099C1655.6949,-842.0457 1616.2611,-811.2013 1597.2345,-772.4917 1554.4756,-685.4983 1563.1422,-567.2706 1571.5599,-506.9262"/>
<polygon fill="#000000" stroke="#000000" points="1575.0712,-507.1046 1573.0622,-496.702 1568.1455,-506.0869 1575.0712,-507.1046"/>
</g>
<!-- replacement&#45;&gt;parseCmdLine -->
<g id="edge85" class="edge">
<title>replacement&#45;&gt;parseCmdLine</title>
<path fill="none" stroke="#000000" d="M1721.4089,-859.2121C1720.5983,-836.8391 1719.353,-802.4695 1718.4334,-777.088"/>
<polygon fill="#000000" stroke="#000000" points="1721.9213,-776.6884 1718.0614,-766.8217 1714.9259,-776.942 1721.9213,-776.6884"/>
</g>
<!-- replacement&#45;&gt;env -->
<g id="edge83" class="edge">
<title>replacement&#45;&gt;env</title>
<path fill="none" stroke="#000000" d="M1770.7136,-862.4957C1811.4624,-844.1569 1869.1521,-813.4097 1908.2345,-772.4917 1946.0079,-732.9443 1971.9895,-673.9953 1985.4618,-637.8837"/>
<polygon fill="#000000" stroke="#000000" points="1988.8043,-638.9332 1988.9294,-628.3391 1982.2251,-636.5429 1988.8043,-638.9332"/>
</g>
<!-- replacement&#45;&gt;variables -->
<g id="edge89" class="edge">
<title>replacement&#45;&gt;variables</title>
<path fill="none" stroke="#000000" d="M1686.8052,-860.7681C1628.8664,-826.6948 1509.5338,-759.2072 1402.2345,-715.5083 1302.3395,-674.8248 1181.5876,-641.2617 1107.8801,-622.433"/>
<polygon fill="#000000" stroke="#000000" points="1108.3526,-618.9421 1097.7989,-619.8748 1106.6308,-625.727 1108.3526,-618.9421"/>
</g>
<!-- replacement&#45;&gt;tempFile -->
<g id="edge90" class="edge">
<title>replacement&#45;&gt;tempFile</title>
<path fill="none" stroke="#000000" d="M1761.6717,-861.3631C1792.8241,-842.7068 1834.264,-812.1096 1854.2345,-772.4917 1898.1471,-685.3774 1864.5858,-566.426 1842.1513,-506.2367"/>
<polygon fill="#000000" stroke="#000000" points="1845.3634,-504.8373 1838.5232,-496.7464 1838.8249,-507.337 1845.3634,-504.8373"/>
</g>
<!-- replacement&#45;&gt;vartypes -->
<g id="edge84" class="edge">
<title>replacement&#45;&gt;vartypes</title>
<path fill="none" stroke="#000000" d="M1648.0911,-867.9413C1573.3858,-851.835 1456.3012,-821.1956 1364.2345,-772.4917 1328.4689,-753.5715 1329.6486,-733.1485 1293.2345,-715.5083 1138.0989,-640.3553 1062.8707,-717.6139 915.2345,-628.6274 806.3507,-562.9985 730.6847,-424.6007 700.6483,-361.9786"/>
<polygon fill="#000000" stroke="#000000" points="703.6556,-360.1502 696.2213,-352.6015 697.3255,-363.1387 703.6556,-360.1502"/>
</g>
<!-- replacement&#45;&gt;tostring -->
<g id="edge92" class="edge">
<title>replacement&#45;&gt;tostring</title>
<path fill="none" stroke="#000000" d="M1643.0823,-869.7018C1573.8154,-855.7133 1473.4163,-827.303 1402.2345,-772.4917 1378.1157,-753.9197 1389.4144,-732.6143 1364.2345,-715.5083 1211.5964,-611.8126 1105.4202,-739.927 958.2345,-628.6274 915.9093,-596.6217 892.5097,-537.3394 881.4368,-500.4355"/>
<polygon fill="#000000" stroke="#000000" points="884.7552,-499.3098 878.6351,-490.6614 878.0262,-501.2387 884.7552,-499.3098"/>
</g>
<!-- readlines -->
<g id="node13" class="node">
<title>readlines</title>
<g id="a_node13"><a xlink:href="readlines.md" xlink:title="readlines.md">
<polygon fill="#98fb98" stroke="#000000" points="2121.8239,-733.8581 2121.8239,-754.1419 2075.7873,-768.4846 2010.6818,-768.4846 1964.6452,-754.1419 1964.6452,-733.8581 2010.6818,-719.5154 2075.7873,-719.5154 2121.8239,-733.8581"/>
<polygon fill="none" stroke="#000000" points="2125.8261,-730.9163 2125.8261,-757.0837 2076.3968,-772.4835 2010.0723,-772.4835 1960.643,-757.0837 1960.643,-730.9163 2010.0723,-715.5165 2076.3968,-715.5165 2125.8261,-730.9163"/>
<text text-anchor="middle" x="2043.2345" y="-736.8" font-family="Times,serif" font-size="24.00" fill="#000000">readlines</text>
</a>
</g>
</g>
<!-- replacement&#45;&gt;readlines -->
<g id="edge86" class="edge">
<title>replacement&#45;&gt;readlines</title>
<path fill="none" stroke="#000000" d="M1768.226,-862.228C1824.2073,-838.1612 1918.9694,-797.4224 1981.3246,-770.6155"/>
<polygon fill="#000000" stroke="#000000" points="1982.857,-773.7665 1990.6617,-766.6014 1980.0923,-767.3356 1982.857,-773.7665"/>
</g>
<!-- replacement&#45;&gt;messages -->
<g id="edge88" class="edge">
<title>replacement&#45;&gt;messages</title>
<path fill="none" stroke="#000000" d="M1793.8449,-867.254C1958.6302,-831.7275 2356.4475,-736.3261 2433.2345,-628.6274 2474.9678,-570.0939 2452.2345,-539.8877 2452.2345,-468 2452.2345,-468 2452.2345,-468 2452.2345,-330 2452.2345,-115.49 1682.9509,-61.0854 1408.2679,-48.4967"/>
<polygon fill="#000000" stroke="#000000" points="1408.0669,-44.9843 1397.9198,-48.0316 1407.7526,-51.9772 1408.0669,-44.9843"/>
</g>
<!-- replacement&#45;&gt;matches -->
<g id="edge87" class="edge">
<title>replacement&#45;&gt;matches</title>
<path fill="none" stroke="#000000" d="M1756.6769,-860.7732C1784.2611,-841.5651 1820.9431,-810.5014 1837.2345,-772.4917 1856.9129,-726.58 1829.9419,-670.5747 1808.3429,-636.6325"/>
<polygon fill="#000000" stroke="#000000" points="1811.139,-634.5144 1802.7183,-628.0846 1805.2914,-638.3622 1811.139,-634.5144"/>
</g>
<!-- funtypes&#45;&gt;vartypes -->
<g id="edge48" class="edge">
<title>funtypes&#45;&gt;vartypes</title>
<path fill="none" stroke="#000000" d="M729.3082,-582.9431C720.9761,-534.0142 701.5003,-419.6457 691.8537,-362.9977"/>
<polygon fill="#000000" stroke="#000000" points="695.2458,-362.0677 690.1167,-352.7972 688.3452,-363.2428 695.2458,-362.0677"/>
</g>
<!-- funtypes&#45;&gt;tostring -->
<g id="edge50" class="edge">
<title>funtypes&#45;&gt;tostring</title>
<path fill="none" stroke="#000000" d="M755.1095,-584.4375C779.1505,-560.7399 817.8702,-522.5735 844.3816,-496.4407"/>
<polygon fill="#000000" stroke="#000000" points="846.8484,-498.9238 851.5132,-489.4111 841.9344,-493.9385 846.8484,-498.9238"/>
</g>
<!-- funtypes&#45;&gt;warnings -->
<g id="edge49" class="edge">
<title>funtypes&#45;&gt;warnings</title>
<path fill="none" stroke="#000000" d="M740.0806,-583.4754C750.6059,-550.5273 772.5853,-487.8587 801.2345,-439.5083 852.2112,-353.4766 931.3357,-265.6119 973.4962,-221.3433"/>
<polygon fill="#000000" stroke="#000000" points="976.2844,-223.4924 980.6764,-213.8507 971.2304,-218.649 976.2844,-223.4924"/>
</g>
<!-- warnings&#45;&gt;messages -->
<g id="edge3" class="edge">
<title>warnings&#45;&gt;messages</title>
<path fill="none" stroke="#000000" d="M1042.4438,-172.933C1095.8921,-147.5882 1190.7699,-102.5978 1252.5766,-73.2894"/>
<polygon fill="#000000" stroke="#000000" points="1254.2875,-76.3517 1261.8235,-68.9046 1251.2883,-70.0268 1254.2875,-76.3517"/>
</g>
<!-- collectCommand -->
<g id="node17" class="node">
<title>collectCommand</title>
<g id="a_node17"><a xlink:href="collectCommand.md" xlink:title="collectCommand.md">
<ellipse fill="#eee8aa" stroke="#000000" cx="2037.2345" cy="-882" rx="127.4982" ry="22.7556"/>
<text text-anchor="middle" x="2037.2345" y="-874.8" font-family="Times,serif" font-size="24.00" fill="#000000">collectCommand</text>
</a>
</g>
</g>
<!-- collectCommand&#45;&gt;parseCmdLine -->
<g id="edge26" class="edge">
<title>collectCommand&#45;&gt;parseCmdLine</title>
<path fill="none" stroke="#000000" d="M1988.6334,-861.0408C1931.0442,-836.2054 1835.2307,-794.8858 1774.2074,-768.5696"/>
<polygon fill="#000000" stroke="#000000" points="1775.292,-765.2257 1764.7235,-764.4796 1772.52,-771.6535 1775.292,-765.2257"/>
</g>
<!-- collectCommand&#45;&gt;env -->
<g id="edge23" class="edge">
<title>collectCommand&#45;&gt;env</title>
<path fill="none" stroke="#000000" d="M2113.8465,-863.8567C2203.3507,-838.8595 2333.1304,-788.4802 2282.2345,-715.5083 2218.2939,-623.8333 2149.6608,-671.0031 2046.2345,-628.6274 2042.3662,-627.0425 2038.3552,-625.3362 2034.3639,-623.5967"/>
<polygon fill="#000000" stroke="#000000" points="2035.7241,-620.3712 2025.1636,-619.519 2032.8877,-626.7708 2035.7241,-620.3712"/>
</g>
<!-- collectCommand&#45;&gt;readlines -->
<g id="edge25" class="edge">
<title>collectCommand&#45;&gt;readlines</title>
<path fill="none" stroke="#000000" d="M2038.2253,-859.2121C2039.1282,-838.4467 2040.4803,-807.3469 2041.5523,-782.6909"/>
<polygon fill="#000000" stroke="#000000" points="2045.0547,-782.7101 2041.9925,-772.5675 2038.0613,-782.406 2045.0547,-782.7101"/>
</g>
<!-- collectCommand&#45;&gt;messages -->
<g id="edge27" class="edge">
<title>collectCommand&#45;&gt;messages</title>
<path fill="none" stroke="#000000" d="M2072.0735,-860.2C2117.9817,-828.6605 2189.0594,-768.293 2154.2345,-715.5083 2100.1901,-633.592 2038.4315,-673.6581 1951.2345,-628.6274 1926.2366,-615.7179 1751.643,-519.346 1735.2345,-496.4917 1684.9626,-426.4713 1720.1427,-388.9279 1692.2345,-307.3726 1669.3981,-240.6381 1676.9179,-211.5065 1625.2345,-163.5083 1564.4654,-107.0721 1474.1622,-76.7284 1406.148,-60.9252"/>
<polygon fill="#000000" stroke="#000000" points="1406.8063,-57.4858 1396.281,-58.6977 1405.2648,-64.3139 1406.8063,-57.4858"/>
</g>
<!-- collectCommand&#45;&gt;matches -->
<g id="edge24" class="edge">
<title>collectCommand&#45;&gt;matches</title>
<path fill="none" stroke="#000000" d="M2067.1284,-859.831C2107.6506,-827.0602 2171.0665,-764.306 2135.2345,-715.5083 2102.0413,-670.304 1948.5142,-635.3474 1856.5046,-618.0166"/>
<polygon fill="#000000" stroke="#000000" points="1856.8973,-614.5297 1846.426,-616.1423 1855.6174,-621.4117 1856.8973,-614.5297"/>
</g>
<!-- statictea -->
<g id="node18" class="node">
<title>statictea</title>
<g id="a_node18"><a xlink:href="statictea.md" xlink:title="statictea.md">
<polygon fill="#eee8aa" stroke="#000000" points="2413.3303,-1287.3667 2496.2345,-1268.0619 2579.1388,-1287.3667 2579.0614,-1318.6024 2413.4077,-1318.6024 2413.3303,-1287.3667"/>
<text text-anchor="middle" x="2496.2345" y="-1288.8" font-family="Times,serif" font-size="24.00" fill="#000000">statictea</text>
</a>
</g>
</g>
<!-- statictea&#45;&gt;env -->
<g id="edge99" class="edge">
<title>statictea&#45;&gt;env</title>
<path fill="none" stroke="#000000" d="M2492.5368,-1268.6266C2478.0046,-1164.8906 2421.6859,-797.6808 2342.2345,-715.5083 2249.301,-619.3918 2180.6103,-672.2644 2054.2345,-628.6274 2048.2674,-626.567 2042.004,-624.2689 2035.8901,-621.9489"/>
<polygon fill="#000000" stroke="#000000" points="2037.0595,-618.6486 2026.4699,-618.3161 2034.5408,-625.1798 2037.0595,-618.6486"/>
</g>
<!-- gethelp -->
<g id="node19" class="node">
<title>gethelp</title>
<g id="a_node19"><a xlink:href="gethelp.md" xlink:title="gethelp.md">
<polygon fill="#98fb98" stroke="#000000" points="2698.3694,-1138.8581 2698.3694,-1159.1419 2659.6285,-1173.4846 2604.8406,-1173.4846 2566.0996,-1159.1419 2566.0996,-1138.8581 2604.8406,-1124.5154 2659.6285,-1124.5154 2698.3694,-1138.8581"/>
<polygon fill="none" stroke="#000000" points="2702.3588,-1136.0722 2702.3588,-1161.9278 2660.3417,-1177.4835 2604.1274,-1177.4835 2562.1103,-1161.9278 2562.1103,-1136.0722 2604.1274,-1120.5165 2660.3417,-1120.5165 2702.3588,-1136.0722"/>
<text text-anchor="middle" x="2632.2345" y="-1141.8" font-family="Times,serif" font-size="24.00" fill="#000000">gethelp</text>
</a>
</g>
</g>
<!-- statictea&#45;&gt;gethelp -->
<g id="edge97" class="edge">
<title>statictea&#45;&gt;gethelp</title>
<path fill="none" stroke="#000000" d="M2517.7841,-1272.7074C2539.5552,-1249.1755 2573.4944,-1212.4911 2598.7688,-1185.1726"/>
<polygon fill="#000000" stroke="#000000" points="2601.4284,-1187.4517 2605.6503,-1177.7344 2596.2901,-1182.6979 2601.4284,-1187.4517"/>
</g>
<!-- statictea&#45;&gt;args -->
<g id="edge95" class="edge">
<title>statictea&#45;&gt;args</title>
<path fill="none" stroke="#000000" d="M2496.2345,-1267.6839C2496.2345,-1216.4642 2496.2345,-1105.0104 2496.2345,-1011 2496.2345,-1011 2496.2345,-1011 2496.2345,-882 2496.2345,-788.1185 2442.5451,-770.1931 2366.2345,-715.5083 2270.9618,-647.235 2202.7538,-708.7809 2117.2345,-628.6274 2098.7738,-611.3249 2075.44,-548.1706 2061.4607,-506.3961"/>
<polygon fill="#000000" stroke="#000000" points="2064.7489,-505.1916 2058.2863,-496.796 2058.1028,-507.3892 2064.7489,-505.1916"/>
</g>
<!-- statictea&#45;&gt;messages -->
<g id="edge96" class="edge">
<title>statictea&#45;&gt;messages</title>
<path fill="none" stroke="#000000" d="M2552.5671,-1281.0044C2602.9423,-1264.4468 2674.3431,-1232.5509 2711.2345,-1177.4917 2752.6908,-1115.6198 2730.2345,-1085.4766 2730.2345,-1011 2730.2345,-1011 2730.2345,-1011 2730.2345,-330 2730.2345,-133.7384 2511.3095,-212.3971 2321.2345,-163.5083 1993.0628,-79.0999 1589.1911,-54.639 1408.0626,-47.6872"/>
<polygon fill="#000000" stroke="#000000" points="1408.1545,-44.1883 1398.0305,-47.3114 1407.8924,-51.1834 1408.1545,-44.1883"/>
</g>
<!-- statictea&#45;&gt;version -->
<g id="edge98" class="edge">
<title>statictea&#45;&gt;version</title>
<path fill="none" stroke="#000000" d="M2413.3947,-1291.3982C2252.3656,-1281.0953 1886.7263,-1251.0407 1588.2345,-1177.4917 1408.8494,-1133.2909 1339.8838,-1152.2369 1198.2345,-1033.6274 1077.947,-932.9051 989.5867,-862.1964 1045.2345,-715.5083 1063.5356,-667.2667 1096.3852,-673.2815 1122.2345,-628.6274 1144.6753,-589.8616 1159.5236,-540.3921 1167.873,-506.6618"/>
<polygon fill="#000000" stroke="#000000" points="1171.3266,-507.2691 1170.2568,-496.7284 1164.5199,-505.6356 1171.3266,-507.2691"/>
</g>
<!-- parseCommandLine -->
<g id="node26" class="node">
<title>parseCommandLine</title>
<g id="a_node26"><a xlink:href="parseCommandLine.md" xlink:title="parseCommandLine.md">
<ellipse fill="#eee8aa" stroke="#000000" cx="2275.2345" cy="-606" rx="148.8522" ry="22.7556"/>
<text text-anchor="middle" x="2275.2345" y="-598.8" font-family="Times,serif" font-size="24.00" fill="#000000">parseCommandLine</text>
</a>
</g>
</g>
<!-- statictea&#45;&gt;parseCommandLine -->
<g id="edge6" class="edge">
<title>statictea&#45;&gt;parseCommandLine</title>
<path fill="none" stroke="#000000" d="M2502.172,-1269.4389C2512.8595,-1219.2329 2534.2345,-1106.8407 2534.2345,-1011 2534.2345,-1011 2534.2345,-1011 2534.2345,-882 2534.2345,-807.2388 2554.8182,-775.521 2510.2345,-715.5083 2476.8916,-670.6263 2420.5764,-643.517 2371.4331,-627.5"/>
<polygon fill="#000000" stroke="#000000" points="2372.2984,-624.1032 2361.709,-624.4426 2370.1987,-630.7809 2372.2984,-624.1032"/>
</g>
<!-- processTemplate -->
<g id="node27" class="node">
<title>processTemplate</title>
<g id="a_node27"><a xlink:href="processTemplate.md" xlink:title="processTemplate.md">
<ellipse fill="#eee8aa" stroke="#000000" cx="1722.2345" cy="-1149" rx="125.2054" ry="22.7556"/>
<text text-anchor="middle" x="1722.2345" y="-1141.8" font-family="Times,serif" font-size="24.00" fill="#000000">processTemplate</text>
</a>
</g>
</g>
<!-- statictea&#45;&gt;processTemplate -->
<g id="edge94" class="edge">
<title>statictea&#45;&gt;processTemplate</title>
<path fill="none" stroke="#000000" d="M2429.9091,-1283.4033C2292.9616,-1257.3939 1978.4258,-1197.6565 1818.8609,-1167.3515"/>
<polygon fill="#000000" stroke="#000000" points="1819.0558,-1163.826 1808.5783,-1165.3986 1817.7496,-1170.7031 1819.0558,-1163.826"/>
</g>
<!-- signatures&#45;&gt;vartypes -->
<g id="edge65" class="edge">
<title>signatures&#45;&gt;vartypes</title>
<path fill="none" stroke="#000000" d="M618.2081,-721.1519C630.2554,-651.8801 666.4073,-444.0066 680.5111,-362.91"/>
<polygon fill="#000000" stroke="#000000" points="684.008,-363.2294 682.2732,-352.7775 677.1115,-362.0299 684.008,-363.2294"/>
</g>
<!-- signatures&#45;&gt;funtypes -->
<g id="edge66" class="edge">
<title>signatures&#45;&gt;funtypes</title>
<path fill="none" stroke="#000000" d="M633.354,-721.8279C653.4788,-698.4899 685.2731,-661.6191 707.5709,-635.7612"/>
<polygon fill="#000000" stroke="#000000" points="710.2827,-637.9759 714.1626,-628.1171 704.9815,-633.4046 710.2827,-637.9759"/>
</g>
<!-- signatures&#45;&gt;messages -->
<g id="edge67" class="edge">
<title>signatures&#45;&gt;messages</title>
<path fill="none" stroke="#000000" d="M605.4747,-721.4985C588.164,-674.9419 551.2345,-564.3323 551.2345,-468 551.2345,-468 551.2345,-468 551.2345,-330 551.2345,-189.4419 1012.2864,-95.0272 1216.6581,-60.0803"/>
<polygon fill="#000000" stroke="#000000" points="1217.5124,-63.4855 1226.7857,-58.3613 1216.341,-56.5842 1217.5124,-63.4855"/>
</g>
<!-- matches&#45;&gt;regexes -->
<g id="edge15" class="edge">
<title>matches&#45;&gt;regexes</title>
<path fill="none" stroke="#000000" d="M1755.5434,-585.6376C1721.1168,-562.7969 1664.8843,-525.4888 1624.9838,-499.0164"/>
<polygon fill="#000000" stroke="#000000" points="1626.7474,-495.9862 1616.4796,-493.3741 1622.8774,-501.8191 1626.7474,-495.9862"/>
</g>
<!-- matches&#45;&gt;args -->
<g id="edge14" class="edge">
<title>matches&#45;&gt;args</title>
<path fill="none" stroke="#000000" d="M1822.5274,-586.9566C1869.9843,-562.0553 1953.0976,-518.4445 2004.4268,-491.5113"/>
<polygon fill="#000000" stroke="#000000" points="2006.0853,-494.5937 2013.3141,-486.848 2002.8328,-488.3951 2006.0853,-494.5937"/>
</g>
<!-- readjson -->
<g id="node25" class="node">
<title>readjson</title>
<g id="a_node25"><a xlink:href="readjson.md" xlink:title="readjson.md">
<ellipse fill="#eee8aa" stroke="#000000" cx="257.2345" cy="-468" rx="68.6102" ry="22.7556"/>
<text text-anchor="middle" x="257.2345" y="-460.8" font-family="Times,serif" font-size="24.00" fill="#000000">readjson</text>
</a>
</g>
</g>
<!-- readjson&#45;&gt;unicodes -->
<g id="edge74" class="edge">
<title>readjson&#45;&gt;unicodes</title>
<path fill="none" stroke="#000000" d="M269.4515,-445.5208C281.8728,-422.6656 301.2215,-387.064 315.1566,-361.4234"/>
<polygon fill="#000000" stroke="#000000" points="318.3228,-362.9272 320.0228,-352.4696 312.1724,-359.5845 318.3228,-362.9272"/>
</g>
<!-- readjson&#45;&gt;vartypes -->
<g id="edge71" class="edge">
<title>readjson&#45;&gt;vartypes</title>
<path fill="none" stroke="#000000" d="M306.4463,-452.1696C385.9161,-426.6059 542.1889,-376.3363 627.4097,-348.9227"/>
<polygon fill="#000000" stroke="#000000" points="628.49,-352.2519 636.9378,-345.8577 626.3464,-345.5882 628.49,-352.2519"/>
</g>
<!-- readjson&#45;&gt;utf8decoder -->
<g id="edge75" class="edge">
<title>readjson&#45;&gt;utf8decoder</title>
<path fill="none" stroke="#000000" d="M246.7598,-445.4138C224.815,-398.0954 173.8146,-288.1258 146.7821,-229.8368"/>
<polygon fill="#000000" stroke="#000000" points="149.8818,-228.2015 142.4993,-220.6022 143.5315,-231.1466 149.8818,-228.2015"/>
</g>
<!-- readjson&#45;&gt;messages -->
<g id="edge72" class="edge">
<title>readjson&#45;&gt;messages</title>
<path fill="none" stroke="#000000" d="M290.662,-448.2166C324.2088,-427.2934 376.0987,-391.9207 413.2345,-352.6274 430.4939,-334.3654 516.0946,-177.0909 537.2345,-163.5083 648.0775,-92.2906 1034.4671,-61.0145 1216.2742,-49.9977"/>
<polygon fill="#000000" stroke="#000000" points="1216.5898,-53.4852 1226.363,-49.3945 1216.1719,-46.4977 1216.5898,-53.4852"/>
</g>
<!-- readjson&#45;&gt;opresult -->
<g id="edge73" class="edge">
<title>readjson&#45;&gt;opresult</title>
<path fill="none" stroke="#000000" d="M220.5537,-448.8167C136.713,-402.3719 -56.2987,-279.1662 16.2345,-163.5083 51.4019,-107.4322 121.4463,-77.2407 177.6658,-61.3967"/>
<polygon fill="#000000" stroke="#000000" points="178.8961,-64.6896 187.6323,-58.6954 177.0649,-57.9333 178.8961,-64.6896"/>
</g>
<!-- parseCommandLine&#45;&gt;regexes -->
<g id="edge5" class="edge">
<title>parseCommandLine&#45;&gt;regexes</title>
<path fill="none" stroke="#000000" d="M2184.4715,-588.0297C2047.2139,-560.8539 1789.024,-509.7345 1658.3482,-483.8618"/>
<polygon fill="#000000" stroke="#000000" points="1658.8885,-480.4009 1648.3991,-481.892 1657.5289,-487.2676 1658.8885,-480.4009"/>
</g>
<!-- parseCommandLine&#45;&gt;warnings -->
<g id="edge4" class="edge">
<title>parseCommandLine&#45;&gt;warnings</title>
<path fill="none" stroke="#000000" d="M2258.9759,-583.4004C2231.5779,-547.0818 2172.5632,-476.1028 2105.2345,-439.5083 1758.8109,-251.2195 1276.7982,-206.0259 1085.372,-195.2943"/>
<polygon fill="#000000" stroke="#000000" points="1085.5535,-191.7991 1075.3782,-194.7507 1085.1733,-198.7887 1085.5535,-191.7991"/>
</g>
<!-- parseCommandLine&#45;&gt;args -->
<g id="edge1" class="edge">
<title>parseCommandLine&#45;&gt;args</title>
<path fill="none" stroke="#000000" d="M2239.1743,-583.9809C2198.9188,-559.4001 2133.8542,-519.6704 2091.3083,-493.691"/>
<polygon fill="#000000" stroke="#000000" points="2092.947,-490.5908 2082.5883,-488.3664 2089.2989,-496.5651 2092.947,-490.5908"/>
</g>
<!-- parseCommandLine&#45;&gt;messages -->
<g id="edge2" class="edge">
<title>parseCommandLine&#45;&gt;messages</title>
<path fill="none" stroke="#000000" d="M2262.2046,-583.2928C2242.1796,-549.5651 2201.3892,-485.296 2156.2345,-439.5083 2010.9269,-292.1632 1968.378,-251.8385 1781.2345,-163.5083 1659.2865,-105.9497 1505.809,-73.9733 1408.3282,-58.1315"/>
<polygon fill="#000000" stroke="#000000" points="1408.6206,-54.6338 1398.1932,-56.5098 1407.5145,-61.5459 1408.6206,-54.6338"/>
</g>
<!-- processTemplate&#45;&gt;parseCmdLine -->
<g id="edge22" class="edge">
<title>processTemplate&#45;&gt;parseCmdLine</title>
<path fill="none" stroke="#000000" d="M1703.1577,-1126.4101C1664.338,-1077.5729 1582.795,-958.5585 1619.2345,-859.3726 1631.7739,-825.2414 1659.3852,-794.3029 1682.114,-773.0759"/>
<polygon fill="#000000" stroke="#000000" points="1684.565,-775.5777 1689.6059,-766.2589 1679.854,-770.4002 1684.565,-775.5777"/>
</g>
<!-- processTemplate&#45;&gt;env -->
<g id="edge13" class="edge">
<title>processTemplate&#45;&gt;env</title>
<path fill="none" stroke="#000000" d="M1808.7036,-1132.5988C1885.0977,-1115.5983 1997.653,-1084.2814 2085.2345,-1033.6274 2221.4277,-954.8583 2274.882,-921.8821 2324.2345,-772.4917 2332.1789,-748.444 2339.2359,-735.9133 2324.2345,-715.5083 2247.5583,-611.2118 2167.2048,-674.7056 2046.2345,-628.6274 2042.2778,-627.1203 2038.1882,-625.4546 2034.131,-623.7308"/>
<polygon fill="#000000" stroke="#000000" points="2035.3655,-620.4506 2024.8009,-619.6504 2032.5606,-626.8641 2035.3655,-620.4506"/>
</g>
<!-- processTemplate&#45;&gt;variables -->
<g id="edge79" class="edge">
<title>processTemplate&#45;&gt;variables</title>
<path fill="none" stroke="#000000" d="M1611.0204,-1138.4827C1376.9264,-1113.7734 846.2262,-1043.3584 741.2345,-904.6274 653.9921,-789.3495 878.2133,-674.6036 986.0986,-627.8724"/>
<polygon fill="#000000" stroke="#000000" points="987.7234,-630.984 995.5372,-623.8289 984.9669,-624.5496 987.7234,-630.984"/>
</g>
<!-- processTemplate&#45;&gt;vartypes -->
<g id="edge80" class="edge">
<title>processTemplate&#45;&gt;vartypes</title>
<path fill="none" stroke="#000000" d="M1611.4117,-1138.4687C1292.0092,-1106.6397 392.2345,-1005.9738 392.2345,-882 392.2345,-882 392.2345,-882 392.2345,-606 392.2345,-475.7648 547.4791,-389.0647 632.3465,-351.3985"/>
<polygon fill="#000000" stroke="#000000" points="633.8159,-354.5761 641.5823,-347.3695 631.017,-348.16 633.8159,-354.5761"/>
</g>
<!-- processTemplate&#45;&gt;replacement -->
<g id="edge93" class="edge">
<title>processTemplate&#45;&gt;replacement</title>
<path fill="none" stroke="#000000" d="M1722.2345,-1126.2357C1722.2345,-1078.9447 1722.2345,-969.9094 1722.2345,-914.9444"/>
<polygon fill="#000000" stroke="#000000" points="1725.7346,-914.7066 1722.2345,-904.7067 1718.7346,-914.7067 1725.7346,-914.7066"/>
</g>
<!-- processTemplate&#45;&gt;readlines -->
<g id="edge17" class="edge">
<title>processTemplate&#45;&gt;readlines</title>
<path fill="none" stroke="#000000" d="M1732.9797,-1126.2335C1757.8369,-1074.9967 1823.1894,-948.1716 1901.2345,-859.3726 1929.0039,-827.7769 1966.0418,-797.9967 1995.3281,-776.6086"/>
<polygon fill="#000000" stroke="#000000" points="1997.6963,-779.2159 2003.7579,-770.5264 1993.6005,-773.5392 1997.6963,-779.2159"/>
</g>
<!-- processTemplate&#45;&gt;collectCommand -->
<g id="edge28" class="edge">
<title>processTemplate&#45;&gt;collectCommand</title>
<path fill="none" stroke="#000000" d="M1760.3579,-1127.3063C1796.8758,-1105.7188 1852.7049,-1070.5607 1896.2345,-1033.6274 1940.9604,-995.6792 1985.9542,-944.5055 2012.7037,-912.383"/>
<polygon fill="#000000" stroke="#000000" points="2015.4256,-914.5837 2019.1001,-904.6464 2010.0306,-910.1233 2015.4256,-914.5837"/>
</g>
<!-- processTemplate&#45;&gt;args -->
<g id="edge7" class="edge">
<title>processTemplate&#45;&gt;args</title>
<path fill="none" stroke="#000000" d="M1825.2494,-1136.0687C1955.9625,-1113.7286 2177.5665,-1054.8044 2287.2345,-904.6274 2338.8583,-833.935 2393.3083,-786.5991 2342.2345,-715.5083 2271.639,-617.2446 2164.9449,-718.7679 2084.2345,-628.6274 2054.4301,-595.3407 2047.9891,-542.6984 2047.4827,-506.8203"/>
<polygon fill="#000000" stroke="#000000" points="2050.9827,-506.7226 2047.4895,-496.7202 2043.9827,-506.7178 2050.9827,-506.7226"/>
</g>
<!-- processTemplate&#45;&gt;messages -->
<g id="edge8" class="edge">
<title>processTemplate&#45;&gt;messages</title>
<path fill="none" stroke="#000000" d="M1697.9018,-1126.7652C1675.2025,-1104.9179 1641.7028,-1069.6966 1620.2345,-1033.6274 1516.7627,-859.7821 1464.2345,-808.3083 1464.2345,-606 1464.2345,-606 1464.2345,-606 1464.2345,-330 1464.2345,-230.5241 1391.2486,-132.0619 1346.427,-80.9739"/>
<polygon fill="#000000" stroke="#000000" points="1349.0245,-78.628 1339.7606,-73.487 1343.7966,-83.283 1349.0245,-78.628"/>
</g>
<!-- processTemplate&#45;&gt;matches -->
<g id="edge16" class="edge">
<title>processTemplate&#45;&gt;matches</title>
<path fill="none" stroke="#000000" d="M1803.7966,-1131.657C1910.4645,-1104.1123 2093.1532,-1039.1009 2173.2345,-904.6274 2197.4418,-863.9783 2203.8904,-773.6975 2154.2345,-715.5083 2115.6307,-670.2703 1952.0573,-634.8932 1856.4799,-617.6084"/>
<polygon fill="#000000" stroke="#000000" points="1857.0566,-614.1561 1846.5967,-615.8417 1855.8247,-621.0469 1857.0566,-614.1561"/>
</g>
<!-- processTemplate&#45;&gt;readjson -->
<g id="edge81" class="edge">
<title>processTemplate&#45;&gt;readjson</title>
<path fill="none" stroke="#000000" d="M1597.8391,-1146.4075C1282.4826,-1138.7134 470.1641,-1111.4741 378.2345,-1033.6274 216.1187,-896.3465 239.3046,-599.7179 252.247,-500.8308"/>
<polygon fill="#000000" stroke="#000000" points="255.7279,-501.2074 253.6115,-490.8261 248.7921,-500.2614 255.7279,-501.2074"/>
</g>
<!-- runCommand -->
<g id="node29" class="node">
<title>runCommand</title>
<g id="a_node29"><a xlink:href="runCommand.md" xlink:title="runCommand.md">
<ellipse fill="#eee8aa" stroke="#000000" cx="1312.2345" cy="-1011" rx="104.7872" ry="22.7556"/>
<text text-anchor="middle" x="1312.2345" y="-1003.8" font-family="Times,serif" font-size="24.00" fill="#000000">runCommand</text>
</a>
</g>
</g>
<!-- processTemplate&#45;&gt;runCommand -->
<g id="edge78" class="edge">
<title>processTemplate&#45;&gt;runCommand</title>
<path fill="none" stroke="#000000" d="M1662.617,-1128.9336C1587.1137,-1103.5203 1457.4015,-1059.8611 1378.7556,-1033.39"/>
<polygon fill="#000000" stroke="#000000" points="1379.5472,-1029.9636 1368.9531,-1030.0906 1377.3141,-1036.5978 1379.5472,-1029.9636"/>
</g>
<!-- runCommand&#45;&gt;runFunction -->
<g id="edge70" class="edge">
<title>runCommand&#45;&gt;runFunction</title>
<path fill="none" stroke="#000000" d="M1247.1612,-993.0631C1160.1319,-969.0743 1006.3498,-926.6856 916.0304,-901.7899"/>
<polygon fill="#000000" stroke="#000000" points="916.7179,-898.3489 906.1473,-899.0657 914.8577,-905.0973 916.7179,-898.3489"/>
</g>
<!-- runCommand&#45;&gt;parseNumber -->
<g id="edge38" class="edge">
<title>runCommand&#45;&gt;parseNumber</title>
<path fill="none" stroke="#000000" d="M1300.0424,-988.2357C1275.4101,-942.2439 1219.5009,-837.854 1189.3696,-781.5947"/>
<polygon fill="#000000" stroke="#000000" points="1192.3935,-779.8276 1184.5868,-772.6647 1186.2228,-783.1325 1192.3935,-779.8276"/>
</g>
<!-- runCommand&#45;&gt;regexes -->
<g id="edge32" class="edge">
<title>runCommand&#45;&gt;regexes</title>
<path fill="none" stroke="#000000" d="M1323.3256,-988.3593C1364.4145,-904.4823 1508.2414,-610.8808 1559.7276,-505.7792"/>
<polygon fill="#000000" stroke="#000000" points="1562.8755,-507.3091 1564.1316,-496.789 1556.5892,-504.2296 1562.8755,-507.3091"/>
</g>
<!-- runCommand&#45;&gt;parseCmdLine -->
<g id="edge29" class="edge">
<title>runCommand&#45;&gt;parseCmdLine</title>
<path fill="none" stroke="#000000" d="M1347.8047,-989.7092C1382.814,-968.5888 1437.6466,-935.0652 1484.2345,-904.6274 1553.5464,-859.3432 1632.5663,-804.077 1678.4814,-771.5914"/>
<polygon fill="#000000" stroke="#000000" points="1680.5226,-774.4347 1686.6597,-765.7983 1676.4764,-768.7225 1680.5226,-774.4347"/>
</g>
<!-- runCommand&#45;&gt;env -->
<g id="edge33" class="edge">
<title>runCommand&#45;&gt;env</title>
<path fill="none" stroke="#000000" d="M1415.1141,-1006.8208C1613.7842,-997.3712 2042.2081,-969.8888 2173.2345,-904.6274 2264.0842,-859.3772 2360.3067,-798.0414 2301.2345,-715.5083 2231.5488,-618.1463 2157.5715,-672.6678 2046.2345,-628.6274 2042.3472,-627.0897 2038.3236,-625.4145 2034.3248,-623.694"/>
<polygon fill="#000000" stroke="#000000" points="2035.6773,-620.4653 2025.1145,-619.6408 2032.8577,-626.8723 2035.6773,-620.4653"/>
</g>
<!-- runCommand&#45;&gt;variables -->
<g id="edge47" class="edge">
<title>runCommand&#45;&gt;variables</title>
<path fill="none" stroke="#000000" d="M1272.7157,-989.9047C1210.9625,-954.4448 1093.6502,-876.4471 1045.2345,-772.4917 1025.3188,-729.7298 1028.7538,-673.8632 1033.8675,-638.9554"/>
<polygon fill="#000000" stroke="#000000" points="1037.3632,-639.2594 1035.4844,-628.8325 1030.4508,-638.1553 1037.3632,-639.2594"/>
</g>
<!-- runCommand&#45;&gt;vartypes -->
<g id="edge35" class="edge">
<title>runCommand&#45;&gt;vartypes</title>
<path fill="none" stroke="#000000" d="M1212.8875,-1003.7535C1093.3284,-992.6363 887.9754,-965.828 722.2345,-904.6274 613.0854,-864.3236 554.1349,-873.4149 496.2345,-772.4917 421.518,-642.2572 464.8259,-560.8652 553.2345,-439.5083 578.1602,-405.2933 616.176,-375.4394 645.1898,-355.5821"/>
<polygon fill="#000000" stroke="#000000" points="647.1497,-358.482 653.4975,-349.9993 643.2453,-352.672 647.1497,-358.482"/>
</g>
<!-- runCommand&#45;&gt;readlines -->
<g id="edge30" class="edge">
<title>runCommand&#45;&gt;readlines</title>
<path fill="none" stroke="#000000" d="M1401.3216,-999.077C1528.2045,-980.9984 1753.5498,-944.5087 1825.2345,-904.6274 1849.4798,-891.1388 1846.9589,-877.1805 1868.2345,-859.3726 1906.6938,-827.1818 1954.4638,-796.2128 1990.3727,-774.4801"/>
<polygon fill="#000000" stroke="#000000" points="1992.4627,-777.3076 1999.2337,-769.1587 1988.8588,-771.3066 1992.4627,-777.3076"/>
</g>
<!-- runCommand&#45;&gt;funtypes -->
<g id="edge51" class="edge">
<title>runCommand&#45;&gt;funtypes</title>
<path fill="none" stroke="#000000" d="M1209.181,-1006.8301C1061.394,-998.4679 800.4908,-974.0299 741.2345,-904.6274 707.9096,-865.5964 721.3299,-708.4327 729.136,-639.1195"/>
<polygon fill="#000000" stroke="#000000" points="732.6595,-639.1171 730.3326,-628.781 725.706,-638.3122 732.6595,-639.1171"/>
</g>
<!-- runCommand&#45;&gt;warnings -->
<g id="edge37" class="edge">
<title>runCommand&#45;&gt;warnings</title>
<path fill="none" stroke="#000000" d="M1212.4072,-1004.1207C1039.1955,-990.9279 691.0597,-958.5023 582.2345,-904.6274 506.9926,-867.3782 488.9914,-845.3287 447.2345,-772.4917 372.0657,-641.3738 302.5264,-570.3155 378.2345,-439.5083 436.5159,-338.8107 783.4609,-244.63 933.3419,-208.0544"/>
<polygon fill="#000000" stroke="#000000" points="934.4625,-211.3841 943.3554,-205.625 932.8121,-204.5815 934.4625,-211.3841"/>
</g>
<!-- runCommand&#45;&gt;collectCommand -->
<g id="edge77" class="edge">
<title>runCommand&#45;&gt;collectCommand</title>
<path fill="none" stroke="#000000" d="M1393.2909,-996.5776C1526.6228,-972.8537 1791.8623,-925.6593 1936.8565,-899.8604"/>
<polygon fill="#000000" stroke="#000000" points="1937.8526,-903.2382 1947.0848,-898.0404 1936.6263,-896.3464 1937.8526,-903.2382"/>
</g>
<!-- runCommand&#45;&gt;messages -->
<g id="edge36" class="edge">
<title>runCommand&#45;&gt;messages</title>
<path fill="none" stroke="#000000" d="M1312.2345,-988.142C1312.2345,-941.9943 1312.2345,-834.3906 1312.2345,-744 1312.2345,-744 1312.2345,-744 1312.2345,-330 1312.2345,-242.0972 1312.2345,-138.9439 1312.2345,-84.0403"/>
<polygon fill="#000000" stroke="#000000" points="1315.7346,-83.7217 1312.2345,-73.7217 1308.7346,-83.7218 1315.7346,-83.7217"/>
</g>
<!-- runCommand&#45;&gt;matches -->
<g id="edge31" class="edge">
<title>runCommand&#45;&gt;matches</title>
<path fill="none" stroke="#000000" d="M1341.5006,-989.1845C1368.3287,-968.6177 1408.5742,-936.3041 1440.2345,-904.6274 1517.4605,-827.3617 1513.7898,-786.0122 1597.2345,-715.5083 1640.2326,-679.1784 1696.9104,-648.1617 1736.9477,-628.5109"/>
<polygon fill="#000000" stroke="#000000" points="1738.5153,-631.6406 1745.9866,-624.1286 1735.4614,-625.3419 1738.5153,-631.6406"/>
</g>
<!-- runCommand&#45;&gt;readjson -->
<g id="edge76" class="edge">
<title>runCommand&#45;&gt;readjson</title>
<path fill="none" stroke="#000000" d="M1211.0212,-1005.1836C1021.015,-993.0732 618.6759,-961.442 492.2345,-904.6274 410.5853,-867.9395 387.1652,-848.7159 340.2345,-772.4917 294.7694,-698.6478 315.4945,-666.9129 292.2345,-583.3726 284.4096,-555.2685 274.7307,-523.5687 267.5359,-500.5187"/>
<polygon fill="#000000" stroke="#000000" points="270.8498,-499.3891 264.5191,-490.8937 264.1703,-501.4828 270.8498,-499.3891"/>
</g>
</g>
</svg>
