<?xml version="1.0" encoding="UTF-8" standalone="no"?>
<!DOCTYPE svg PUBLIC "-//W3C//DTD SVG 1.1//EN"
 "http://www.w3.org/Graphics/SVG/1.1/DTD/svg11.dtd">
<!-- Generated by graphviz version 7.0.1 (20221109.1506)
 -->
<!-- Title: statictea Pages: 1 -->
<svg width="639pt" height="1406pt"
 viewBox="0.00 0.00 638.77 1406.02" xmlns="http://www.w3.org/2000/svg" xmlns:xlink="http://www.w3.org/1999/xlink">
<g id="graph0" class="graph" transform="scale(1 1) rotate(0) translate(4 1402.02)">
<title>statictea</title>
<polygon fill="white" stroke="none" points="-4,4 -4,-1402.02 634.77,-1402.02 634.77,4 -4,4"/>
<!-- strutils -->
<g id="node1" class="node">
<title>strutils</title>
<ellipse fill="none" stroke="black" cx="88.19" cy="-837" rx="57.97" ry="24.08"/>
<text text-anchor="middle" x="88.19" y="-830.8" font-family="Times,serif" font-size="24.00">strutils</text>
</g>
<!-- statictea -->
<g id="node2" class="node">
<title>statictea</title>
<ellipse fill="none" stroke="black" cx="547.57" cy="-558" rx="39.79" ry="18"/>
<text text-anchor="middle" x="547.57" y="-554.3" font-family="Times,serif" font-size="14.00">statictea</text>
</g>
<!-- strutils&#45;&gt;statictea -->
<g id="edge1" class="edge">
<title>strutils&#45;&gt;statictea</title>
<path fill="none" stroke="black" d="M135.11,-822.44C148.76,-817.37 163.5,-811.14 176.38,-804 317.04,-726.06 322.03,-659.79 464.38,-585 475.78,-579.01 488.77,-574 501,-569.99"/>
<polygon fill="black" stroke="black" points="501.99,-573.35 510.5,-567.04 499.91,-566.66 501.99,-573.35"/>
</g>
<!-- messages -->
<g id="node9" class="node">
<title>messages</title>
<ellipse fill="none" stroke="black" cx="547.57" cy="-1152" rx="44.39" ry="18"/>
<text text-anchor="middle" x="547.57" y="-1148.3" font-family="Times,serif" font-size="14.00">messages</text>
</g>
<!-- strutils&#45;&gt;messages -->
<g id="edge6" class="edge">
<title>strutils&#45;&gt;messages</title>
<path fill="none" stroke="black" d="M117.12,-858.04C134.25,-870.97 156.62,-887.9 176.38,-903 304.81,-1001.11 321.56,-1049.36 464.38,-1125 474.94,-1130.59 486.88,-1135.32 498.32,-1139.17"/>
<polygon fill="black" stroke="black" points="497.03,-1142.44 507.62,-1142.14 499.16,-1135.77 497.03,-1142.44"/>
</g>
<!-- cmdline -->
<g id="node10" class="node">
<title>cmdline</title>
<ellipse fill="none" stroke="black" cx="547.57" cy="-828" rx="39.79" ry="18"/>
<text text-anchor="middle" x="547.57" y="-824.3" font-family="Times,serif" font-size="14.00">cmdline</text>
</g>
<!-- strutils&#45;&gt;cmdline -->
<g id="edge9" class="edge">
<title>strutils&#45;&gt;cmdline</title>
<path fill="none" stroke="black" d="M146.19,-835.88C236.4,-834.1 410.59,-830.68 496.36,-828.99"/>
<polygon fill="black" stroke="black" points="496.17,-832.49 506.1,-828.8 496.03,-825.49 496.17,-832.49"/>
</g>
<!-- matches -->
<g id="node11" class="node">
<title>matches</title>
<ellipse fill="none" stroke="black" cx="547.57" cy="-936" rx="40.09" ry="18"/>
<text text-anchor="middle" x="547.57" y="-932.3" font-family="Times,serif" font-size="14.00">matches</text>
</g>
<!-- strutils&#45;&gt;matches -->
<g id="edge10" class="edge">
<title>strutils&#45;&gt;matches</title>
<path fill="none" stroke="black" d="M140.33,-848.07C229.79,-867.43 413.38,-907.17 499.73,-925.86"/>
<polygon fill="black" stroke="black" points="498.76,-929.23 509.27,-927.93 500.24,-922.39 498.76,-929.23"/>
</g>
<!-- processTemplate -->
<g id="node14" class="node">
<title>processTemplate</title>
<ellipse fill="none" stroke="black" cx="547.57" cy="-666" rx="70.39" ry="18"/>
<text text-anchor="middle" x="547.57" y="-662.3" font-family="Times,serif" font-size="14.00">processTemplate</text>
</g>
<!-- strutils&#45;&gt;processTemplate -->
<g id="edge18" class="edge">
<title>strutils&#45;&gt;processTemplate</title>
<path fill="none" stroke="black" d="M131.78,-820.94C145.98,-815.57 161.87,-809.54 176.38,-804 304.53,-755.05 335.18,-739.09 464.38,-693 473.03,-689.91 482.24,-686.76 491.24,-683.75"/>
<polygon fill="black" stroke="black" points="492.24,-687.11 500.63,-680.64 490.04,-680.46 492.24,-687.11"/>
</g>
<!-- env -->
<g id="node16" class="node">
<title>env</title>
<ellipse fill="none" stroke="black" cx="547.57" cy="-342" rx="27" ry="18"/>
<text text-anchor="middle" x="547.57" y="-338.3" font-family="Times,serif" font-size="14.00">env</text>
</g>
<!-- strutils&#45;&gt;env -->
<g id="edge24" class="edge">
<title>strutils&#45;&gt;env</title>
<path fill="none" stroke="black" d="M138.18,-824.5C151.47,-819.57 165.25,-812.89 176.38,-804 357.56,-659.31 280.03,-509.63 464.38,-369 477.51,-358.98 494.53,-352.59 509.67,-348.55"/>
<polygon fill="black" stroke="black" points="510.4,-351.98 519.31,-346.26 508.78,-345.17 510.4,-351.98"/>
</g>
<!-- tempFile -->
<g id="node18" class="node">
<title>tempFile</title>
<ellipse fill="none" stroke="black" cx="547.57" cy="-396" rx="42.49" ry="18"/>
<text text-anchor="middle" x="547.57" y="-392.3" font-family="Times,serif" font-size="14.00">tempFile</text>
</g>
<!-- strutils&#45;&gt;tempFile -->
<g id="edge27" class="edge">
<title>strutils&#45;&gt;tempFile</title>
<path fill="none" stroke="black" d="M137.83,-824.05C151.11,-819.1 164.98,-812.54 176.38,-804 346.3,-676.78 291.68,-546.41 464.38,-423 474.2,-415.99 485.95,-410.71 497.45,-406.78"/>
<polygon fill="black" stroke="black" points="498.37,-410.16 506.88,-403.86 496.29,-403.48 498.37,-410.16"/>
</g>
<!-- runCommand -->
<g id="node22" class="node">
<title>runCommand</title>
<ellipse fill="none" stroke="black" cx="547.57" cy="-1098" rx="59.59" ry="18"/>
<text text-anchor="middle" x="547.57" y="-1094.3" font-family="Times,serif" font-size="14.00">runCommand</text>
</g>
<!-- strutils&#45;&gt;runCommand -->
<g id="edge35" class="edge">
<title>strutils&#45;&gt;runCommand</title>
<path fill="none" stroke="black" d="M117.5,-858.01C178.31,-902.37 327.05,-1006.76 464.38,-1071 473.08,-1075.07 482.57,-1078.79 491.9,-1082.09"/>
<polygon fill="black" stroke="black" points="490.71,-1085.38 501.3,-1085.27 492.95,-1078.75 490.71,-1085.38"/>
</g>
<!-- vartypes -->
<g id="node23" class="node">
<title>vartypes</title>
<ellipse fill="none" stroke="black" cx="547.57" cy="-1314" rx="40.09" ry="18"/>
<text text-anchor="middle" x="547.57" y="-1310.3" font-family="Times,serif" font-size="14.00">vartypes</text>
</g>
<!-- strutils&#45;&gt;vartypes -->
<g id="edge38" class="edge">
<title>strutils&#45;&gt;vartypes</title>
<path fill="none" stroke="black" d="M120.34,-857.37C137.78,-869.54 159.37,-885.91 176.38,-903 326.89,-1054.18 291.04,-1162.64 464.38,-1287 474.66,-1294.37 487.07,-1299.82 499.1,-1303.8"/>
<polygon fill="black" stroke="black" points="497.93,-1307.11 508.51,-1306.63 499.94,-1300.4 497.93,-1307.11"/>
</g>
<!-- variables -->
<g id="node24" class="node">
<title>variables</title>
<ellipse fill="none" stroke="black" cx="547.57" cy="-1044" rx="42.49" ry="18"/>
<text text-anchor="middle" x="547.57" y="-1040.3" font-family="Times,serif" font-size="14.00">variables</text>
</g>
<!-- strutils&#45;&gt;variables -->
<g id="edge39" class="edge">
<title>strutils&#45;&gt;variables</title>
<path fill="none" stroke="black" d="M124.97,-856.1C190.9,-890.85 336.52,-965.58 464.38,-1017 476.22,-1021.76 489.26,-1026.34 501.4,-1030.33"/>
<polygon fill="black" stroke="black" points="500.19,-1033.62 510.78,-1033.35 502.34,-1026.95 500.19,-1033.62"/>
</g>
<!-- runFunction -->
<g id="node25" class="node">
<title>runFunction</title>
<ellipse fill="none" stroke="black" cx="547.57" cy="-612" rx="53.89" ry="18"/>
<text text-anchor="middle" x="547.57" y="-608.3" font-family="Times,serif" font-size="14.00">runFunction</text>
</g>
<!-- strutils&#45;&gt;runFunction -->
<g id="edge44" class="edge">
<title>strutils&#45;&gt;runFunction</title>
<path fill="none" stroke="black" d="M133.67,-821.72C147.54,-816.54 162.77,-810.43 176.38,-804 309.78,-741.03 329.61,-698.99 464.38,-639 474.16,-634.65 484.86,-630.63 495.21,-627.09"/>
<polygon fill="black" stroke="black" points="495.99,-630.52 504.39,-624.06 493.79,-623.87 495.99,-630.52"/>
</g>
<!-- unicodes -->
<g id="node31" class="node">
<title>unicodes</title>
<ellipse fill="none" stroke="black" cx="547.57" cy="-774" rx="42.49" ry="18"/>
<text text-anchor="middle" x="547.57" y="-770.3" font-family="Times,serif" font-size="14.00">unicodes</text>
</g>
<!-- strutils&#45;&gt;unicodes -->
<g id="edge51" class="edge">
<title>strutils&#45;&gt;unicodes</title>
<path fill="none" stroke="black" d="M143.45,-829.53C232.57,-817.25 408.68,-792.99 495.6,-781.02"/>
<polygon fill="black" stroke="black" points="495.82,-784.52 505.25,-779.69 494.87,-777.59 495.82,-784.52"/>
</g>
<!-- signatures -->
<g id="node32" class="node">
<title>signatures</title>
<ellipse fill="none" stroke="black" cx="547.57" cy="-990" rx="46.29" ry="18"/>
<text text-anchor="middle" x="547.57" y="-986.3" font-family="Times,serif" font-size="14.00">signatures</text>
</g>
<!-- strutils&#45;&gt;signatures -->
<g id="edge53" class="edge">
<title>strutils&#45;&gt;signatures</title>
<path fill="none" stroke="black" d="M133.92,-852.13C204.22,-875.88 344.89,-923.31 464.38,-963 476.17,-966.91 488.91,-971.12 500.77,-975.01"/>
<polygon fill="black" stroke="black" points="499.33,-978.22 509.92,-978.02 501.51,-971.57 499.33,-978.22"/>
</g>
<!-- replacement -->
<g id="node33" class="node">
<title>replacement</title>
<ellipse fill="none" stroke="black" cx="547.57" cy="-180" rx="53.89" ry="18"/>
<text text-anchor="middle" x="547.57" y="-176.3" font-family="Times,serif" font-size="14.00">replacement</text>
</g>
<!-- strutils&#45;&gt;replacement -->
<g id="edge58" class="edge">
<title>strutils&#45;&gt;replacement</title>
<path fill="none" stroke="black" d="M139.44,-825.28C152.6,-820.37 166,-813.51 176.38,-804 393.62,-605.02 242.78,-401.11 464.38,-207 471.53,-200.74 480.16,-195.93 489.11,-192.22"/>
<polygon fill="black" stroke="black" points="490.07,-195.6 498.26,-188.89 487.67,-189.02 490.07,-195.6"/>
</g>
<!-- startingvars -->
<g id="node36" class="node">
<title>startingvars</title>
<ellipse fill="none" stroke="black" cx="547.57" cy="-882" rx="51.99" ry="18"/>
<text text-anchor="middle" x="547.57" y="-878.3" font-family="Times,serif" font-size="14.00">startingvars</text>
</g>
<!-- strutils&#45;&gt;startingvars -->
<g id="edge65" class="edge">
<title>strutils&#45;&gt;startingvars</title>
<path fill="none" stroke="black" d="M144.82,-842.47C231.14,-850.97 396.7,-867.25 485.97,-876.04"/>
<polygon fill="black" stroke="black" points="485.45,-879.5 495.75,-877 486.14,-872.54 485.45,-879.5"/>
</g>
<!-- codefile -->
<g id="node37" class="node">
<title>codefile</title>
<ellipse fill="none" stroke="black" cx="547.57" cy="-450" rx="38.99" ry="18"/>
<text text-anchor="middle" x="547.57" y="-446.3" font-family="Times,serif" font-size="14.00">codefile</text>
</g>
<!-- strutils&#45;&gt;codefile -->
<g id="edge69" class="edge">
<title>strutils&#45;&gt;codefile</title>
<path fill="none" stroke="black" d="M136.97,-823.66C150.39,-818.68 164.54,-812.2 176.38,-804 335.64,-693.81 302.71,-583.63 464.38,-477 475.34,-469.77 488.39,-464.33 500.84,-460.3"/>
<polygon fill="black" stroke="black" points="501.51,-463.75 510.1,-457.55 499.52,-457.05 501.51,-463.75"/>
</g>
<!-- repl -->
<g id="node40" class="node">
<title>repl</title>
<ellipse fill="none" stroke="black" cx="547.57" cy="-1260" rx="27" ry="18"/>
<text text-anchor="middle" x="547.57" y="-1256.3" font-family="Times,serif" font-size="14.00">repl</text>
</g>
<!-- strutils&#45;&gt;repl -->
<g id="edge77" class="edge">
<title>strutils&#45;&gt;repl</title>
<path fill="none" stroke="black" d="M119.46,-857.57C136.81,-869.93 158.61,-886.43 176.38,-903 318.74,-1035.78 302.12,-1125.45 464.38,-1233 478.15,-1242.13 495.25,-1248.39 510.29,-1252.57"/>
<polygon fill="black" stroke="black" points="509.27,-1255.93 519.83,-1255 511,-1249.14 509.27,-1255.93"/>
</g>
<!-- options -->
<g id="node3" class="node">
<title>options</title>
<ellipse fill="none" stroke="black" cx="88.19" cy="-684" rx="61.54" ry="24.08"/>
<text text-anchor="middle" x="88.19" y="-677.8" font-family="Times,serif" font-size="24.00">options</text>
</g>
<!-- parseCommandLine -->
<g id="node4" class="node">
<title>parseCommandLine</title>
<ellipse fill="none" stroke="black" cx="547.57" cy="-720" rx="83.39" ry="18"/>
<text text-anchor="middle" x="547.57" y="-716.3" font-family="Times,serif" font-size="14.00">parseCommandLine</text>
</g>
<!-- options&#45;&gt;parseCommandLine -->
<g id="edge2" class="edge">
<title>options&#45;&gt;parseCommandLine</title>
<path fill="none" stroke="black" d="M148.99,-688.71C227.59,-694.89 366.34,-705.81 457.38,-712.98"/>
<polygon fill="black" stroke="black" points="457.03,-716.46 467.28,-713.76 457.58,-709.48 457.03,-716.46"/>
</g>
<!-- options&#45;&gt;matches -->
<g id="edge12" class="edge">
<title>options&#45;&gt;matches</title>
<path fill="none" stroke="black" d="M129.63,-702.27C144.52,-709.31 161.4,-717.67 176.38,-726 308.92,-799.7 327.28,-844.17 464.38,-909 476.25,-914.61 489.59,-919.54 502.02,-923.59"/>
<polygon fill="black" stroke="black" points="500.62,-926.82 511.2,-926.48 502.71,-920.14 500.62,-926.82"/>
</g>
<!-- regexes -->
<g id="node13" class="node">
<title>regexes</title>
<ellipse fill="none" stroke="black" cx="547.57" cy="-1368" rx="37.89" ry="18"/>
<text text-anchor="middle" x="547.57" y="-1364.3" font-family="Times,serif" font-size="14.00">regexes</text>
</g>
<!-- options&#45;&gt;regexes -->
<g id="edge14" class="edge">
<title>options&#45;&gt;regexes</title>
<path fill="none" stroke="black" d="M135.95,-699.48C150.26,-705.94 165.16,-714.65 176.38,-726 388.63,-940.58 238.49,-1140.83 464.38,-1341 474.38,-1349.86 487.35,-1355.82 500.03,-1359.83"/>
<polygon fill="black" stroke="black" points="498.97,-1363.17 509.54,-1362.47 500.84,-1356.43 498.97,-1363.17"/>
</g>
<!-- options&#45;&gt;processTemplate -->
<g id="edge16" class="edge">
<title>options&#45;&gt;processTemplate</title>
<path fill="none" stroke="black" d="M149.93,-681.61C231.37,-678.4 376.16,-672.71 466.46,-669.15"/>
<polygon fill="black" stroke="black" points="466.37,-672.66 476.22,-668.77 466.09,-665.66 466.37,-672.66"/>
</g>
<!-- options&#45;&gt;env -->
<g id="edge23" class="edge">
<title>options&#45;&gt;env</title>
<path fill="none" stroke="black" d="M137.95,-669.58C150.96,-664.67 164.65,-658.49 176.38,-651 327.36,-554.58 311.3,-462.04 464.38,-369 478.39,-360.48 495.4,-354.32 510.3,-350.05"/>
<polygon fill="black" stroke="black" points="510.98,-353.49 519.74,-347.54 509.18,-346.73 510.98,-353.49"/>
</g>
<!-- options&#45;&gt;tempFile -->
<g id="edge28" class="edge">
<title>options&#45;&gt;tempFile</title>
<path fill="none" stroke="black" d="M137,-668.92C150.14,-663.98 164.13,-657.94 176.38,-651 318.4,-570.49 320.61,-500.34 464.38,-423 475.32,-417.12 487.77,-412.22 499.61,-408.28"/>
<polygon fill="black" stroke="black" points="500.31,-411.73 508.8,-405.39 498.21,-405.05 500.31,-411.73"/>
</g>
<!-- linebuffer -->
<g id="node20" class="node">
<title>linebuffer</title>
<ellipse fill="none" stroke="black" cx="547.57" cy="-288" rx="45.49" ry="18"/>
<text text-anchor="middle" x="547.57" y="-284.3" font-family="Times,serif" font-size="14.00">linebuffer</text>
</g>
<!-- options&#45;&gt;linebuffer -->
<g id="edge31" class="edge">
<title>options&#45;&gt;linebuffer</title>
<path fill="none" stroke="black" d="M138.85,-670.08C151.73,-665.2 165.12,-658.9 176.38,-651 337.37,-538 300.92,-424.39 464.38,-315 473.93,-308.61 485.11,-303.63 496.1,-299.78"/>
<polygon fill="black" stroke="black" points="497.05,-303.15 505.51,-296.77 494.92,-296.48 497.05,-303.15"/>
</g>
<!-- parseCmdLine -->
<g id="node21" class="node">
<title>parseCmdLine</title>
<ellipse fill="none" stroke="black" cx="547.57" cy="-1206" rx="63.09" ry="18"/>
<text text-anchor="middle" x="547.57" y="-1202.3" font-family="Times,serif" font-size="14.00">parseCmdLine</text>
</g>
<!-- options&#45;&gt;parseCmdLine -->
<g id="edge32" class="edge">
<title>options&#45;&gt;parseCmdLine</title>
<path fill="none" stroke="black" d="M134.67,-700.15C149.05,-706.7 164.33,-715.28 176.38,-726 354.69,-884.51 276.04,-1032.55 464.38,-1179 470.67,-1183.89 477.87,-1187.91 485.35,-1191.21"/>
<polygon fill="black" stroke="black" points="484.04,-1194.46 494.63,-1194.87 486.61,-1187.95 484.04,-1194.46"/>
</g>
<!-- options&#45;&gt;runCommand -->
<g id="edge34" class="edge">
<title>options&#45;&gt;runCommand</title>
<path fill="none" stroke="black" d="M132.99,-700.68C147.57,-707.35 163.39,-715.88 176.38,-726 333.92,-848.79 299.11,-958.83 464.38,-1071 471.63,-1075.92 479.85,-1080 488.22,-1083.37"/>
<polygon fill="black" stroke="black" points="486.82,-1086.59 497.41,-1086.74 489.23,-1080.01 486.82,-1086.59"/>
</g>
<!-- options&#45;&gt;variables -->
<g id="edge40" class="edge">
<title>options&#45;&gt;variables</title>
<path fill="none" stroke="black" d="M132.07,-701.11C146.73,-707.87 162.84,-716.34 176.38,-726 324.51,-831.69 309.63,-921.27 464.38,-1017 474.74,-1023.41 486.78,-1028.46 498.4,-1032.38"/>
<polygon fill="black" stroke="black" points="497.31,-1035.71 507.9,-1035.35 499.4,-1029.03 497.31,-1035.71"/>
</g>
<!-- options&#45;&gt;runFunction -->
<g id="edge42" class="edge">
<title>options&#45;&gt;runFunction</title>
<path fill="none" stroke="black" d="M145.73,-675.1C232.63,-661.42 398.23,-635.35 486.95,-621.39"/>
<polygon fill="black" stroke="black" points="487.33,-624.87 496.66,-619.86 486.24,-617.95 487.33,-624.87"/>
</g>
<!-- parseNumber -->
<g id="node28" class="node">
<title>parseNumber</title>
<ellipse fill="none" stroke="black" cx="547.57" cy="-72" rx="58.49" ry="18"/>
<text text-anchor="middle" x="547.57" y="-68.3" font-family="Times,serif" font-size="14.00">parseNumber</text>
</g>
<!-- options&#45;&gt;parseNumber -->
<g id="edge48" class="edge">
<title>options&#45;&gt;parseNumber</title>
<path fill="none" stroke="black" d="M141.06,-671.37C153.64,-666.52 166.33,-659.92 176.38,-651 383.34,-467.32 253.39,-278.04 464.38,-99 470.91,-93.46 478.61,-89.05 486.63,-85.54"/>
<polygon fill="black" stroke="black" points="487.81,-88.83 495.88,-81.97 485.29,-82.3 487.81,-88.83"/>
</g>
<!-- options&#45;&gt;signatures -->
<g id="edge54" class="edge">
<title>options&#45;&gt;signatures</title>
<path fill="none" stroke="black" d="M131.09,-701.7C145.82,-708.56 162.22,-716.95 176.38,-726 316.05,-815.28 319.14,-883.09 464.38,-963 474.45,-968.54 485.84,-973.18 496.86,-976.96"/>
<polygon fill="black" stroke="black" points="495.67,-980.25 506.26,-980 497.82,-973.59 495.67,-980.25"/>
</g>
<!-- options&#45;&gt;replacement -->
<g id="edge55" class="edge">
<title>options&#45;&gt;replacement</title>
<path fill="none" stroke="black" d="M140.05,-670.88C152.77,-666.02 165.8,-659.53 176.38,-651 359.48,-503.36 278.04,-350.54 464.38,-207 471.99,-201.14 480.93,-196.52 490.06,-192.89"/>
<polygon fill="black" stroke="black" points="491.12,-196.22 499.37,-189.57 488.78,-189.63 491.12,-196.22"/>
</g>
<!-- options&#45;&gt;codefile -->
<g id="edge66" class="edge">
<title>options&#45;&gt;codefile</title>
<path fill="none" stroke="black" d="M135.56,-668.24C148.94,-663.21 163.43,-657.3 176.38,-651 310.87,-585.6 328.47,-539.4 464.38,-477 476.52,-471.43 490.15,-466.47 502.76,-462.37"/>
<polygon fill="black" stroke="black" points="503.59,-465.78 512.08,-459.44 501.49,-459.1 503.59,-465.78"/>
</g>
<!-- updateTemplate -->
<g id="node38" class="node">
<title>updateTemplate</title>
<ellipse fill="none" stroke="black" cx="547.57" cy="-504" rx="67.69" ry="18"/>
<text text-anchor="middle" x="547.57" y="-500.3" font-family="Times,serif" font-size="14.00">updateTemplate</text>
</g>
<!-- options&#45;&gt;updateTemplate -->
<g id="edge72" class="edge">
<title>options&#45;&gt;updateTemplate</title>
<path fill="none" stroke="black" d="M133.66,-667.49C147.39,-662.31 162.54,-656.5 176.38,-651 305.24,-599.78 334.41,-579.34 464.38,-531 473.18,-527.73 482.59,-524.44 491.78,-521.34"/>
<polygon fill="black" stroke="black" points="492.6,-524.76 500.98,-518.29 490.39,-518.12 492.6,-524.76"/>
</g>
<!-- options&#45;&gt;repl -->
<g id="edge76" class="edge">
<title>options&#45;&gt;repl</title>
<path fill="none" stroke="black" d="M134.98,-699.81C149.39,-706.33 164.6,-714.99 176.38,-726 365.72,-902.94 263.82,-1068.88 464.38,-1233 477.38,-1243.64 494.71,-1250.14 510.11,-1254.08"/>
<polygon fill="black" stroke="black" points="508.88,-1257.39 519.41,-1256.19 510.43,-1250.56 508.88,-1257.39"/>
</g>
<!-- tables -->
<g id="node5" class="node">
<title>tables</title>
<ellipse fill="none" stroke="black" cx="88.19" cy="-936" rx="50.82" ry="24.08"/>
<text text-anchor="middle" x="88.19" y="-929.8" font-family="Times,serif" font-size="24.00">tables</text>
</g>
<!-- tables&#45;&gt;parseCommandLine -->
<g id="edge3" class="edge">
<title>tables&#45;&gt;parseCommandLine</title>
<path fill="none" stroke="black" d="M121.79,-917.49C185.96,-881.52 333.79,-800.99 464.38,-747 471.55,-744.04 479.17,-741.17 486.78,-738.48"/>
<polygon fill="black" stroke="black" points="487.71,-741.86 496.03,-735.3 485.43,-735.24 487.71,-741.86"/>
</g>
<!-- tables&#45;&gt;cmdline -->
<g id="edge8" class="edge">
<title>tables&#45;&gt;cmdline</title>
<path fill="none" stroke="black" d="M134.3,-925.35C221.63,-904.73 412.94,-859.56 500.8,-838.81"/>
<polygon fill="black" stroke="black" points="501.34,-842.28 510.26,-836.57 499.73,-835.47 501.34,-842.28"/>
</g>
<!-- tables&#45;&gt;matches -->
<g id="edge11" class="edge">
<title>tables&#45;&gt;matches</title>
<path fill="none" stroke="black" d="M139.45,-936C227.28,-936 407.75,-936 495.89,-936"/>
<polygon fill="black" stroke="black" points="495.67,-939.5 505.67,-936 495.67,-932.5 495.67,-939.5"/>
</g>
<!-- tables&#45;&gt;regexes -->
<g id="edge15" class="edge">
<title>tables&#45;&gt;regexes</title>
<path fill="none" stroke="black" d="M104.12,-959.02C149.66,-1027.47 294.17,-1231.78 464.38,-1341 475.62,-1348.21 488.98,-1353.68 501.62,-1357.73"/>
<polygon fill="black" stroke="black" points="500.43,-1361.03 511.02,-1360.51 502.42,-1354.32 500.43,-1361.03"/>
</g>
<!-- tables&#45;&gt;processTemplate -->
<g id="edge17" class="edge">
<title>tables&#45;&gt;processTemplate</title>
<path fill="none" stroke="black" d="M115.54,-915.48C174.87,-870.06 324.71,-759.79 464.38,-693 471.92,-689.4 480.06,-686.08 488.19,-683.11"/>
<polygon fill="black" stroke="black" points="489.1,-686.49 497.39,-679.89 486.79,-679.89 489.1,-686.49"/>
</g>
<!-- tables&#45;&gt;parseCmdLine -->
<g id="edge33" class="edge">
<title>tables&#45;&gt;parseCmdLine</title>
<path fill="none" stroke="black" d="M115.54,-956.52C174.87,-1001.94 324.71,-1112.21 464.38,-1179 472.67,-1182.96 481.68,-1186.57 490.61,-1189.77"/>
<polygon fill="black" stroke="black" points="489.37,-1193.05 499.96,-1192.98 491.63,-1186.42 489.37,-1193.05"/>
</g>
<!-- tables&#45;&gt;runCommand -->
<g id="edge36" class="edge">
<title>tables&#45;&gt;runCommand</title>
<path fill="none" stroke="black" d="M129.04,-950.75C197.43,-975.98 341.65,-1028.77 464.38,-1071 474.29,-1074.41 484.9,-1077.97 495.1,-1081.34"/>
<polygon fill="black" stroke="black" points="493.92,-1084.63 504.51,-1084.43 496.1,-1077.98 493.92,-1084.63"/>
</g>
<!-- tables&#45;&gt;vartypes -->
<g id="edge37" class="edge">
<title>tables&#45;&gt;vartypes</title>
<path fill="none" stroke="black" d="M106.98,-958.42C156.83,-1019.83 304.75,-1192.45 464.38,-1287 475.36,-1293.51 488.11,-1298.67 500.24,-1302.66"/>
<polygon fill="black" stroke="black" points="499.11,-1305.97 509.7,-1305.56 501.16,-1299.28 499.11,-1305.97"/>
</g>
<!-- tables&#45;&gt;variables -->
<g id="edge41" class="edge">
<title>tables&#45;&gt;variables</title>
<path fill="none" stroke="black" d="M134.3,-946.65C220.99,-967.12 410.1,-1011.78 498.83,-1032.73"/>
<polygon fill="black" stroke="black" points="497.89,-1036.1 508.42,-1034.99 499.5,-1029.29 497.89,-1036.1"/>
</g>
<!-- tables&#45;&gt;runFunction -->
<g id="edge43" class="edge">
<title>tables&#45;&gt;runFunction</title>
<path fill="none" stroke="black" d="M116.44,-915.68C133.71,-902.73 156.46,-885.52 176.38,-870 305.81,-769.14 320.12,-717.19 464.38,-639 473.4,-634.11 483.46,-629.91 493.35,-626.38"/>
<polygon fill="black" stroke="black" points="494.18,-629.79 502.54,-623.29 491.95,-623.16 494.18,-629.79"/>
</g>
<!-- tables&#45;&gt;signatures -->
<g id="edge52" class="edge">
<title>tables&#45;&gt;signatures</title>
<path fill="none" stroke="black" d="M137.71,-941.73C223.49,-951.86 401.41,-972.86 491.6,-983.51"/>
<polygon fill="black" stroke="black" points="491.09,-986.97 501.43,-984.67 491.91,-980.02 491.09,-986.97"/>
</g>
<!-- readjson -->
<g id="node34" class="node">
<title>readjson</title>
<ellipse fill="none" stroke="black" cx="547.57" cy="-234" rx="40.09" ry="18"/>
<text text-anchor="middle" x="547.57" y="-230.3" font-family="Times,serif" font-size="14.00">readjson</text>
</g>
<!-- tables&#45;&gt;readjson -->
<g id="edge62" class="edge">
<title>tables&#45;&gt;readjson</title>
<path fill="none" stroke="black" d="M120.87,-917.42C138.92,-905.62 160.94,-889.01 176.38,-870 365.18,-637.62 239.92,-459.15 464.38,-261 473.86,-252.63 486,-246.84 498.02,-242.85"/>
<polygon fill="black" stroke="black" points="498.88,-246.24 507.5,-240.08 496.92,-239.52 498.88,-246.24"/>
</g>
<!-- tables&#45;&gt;startingvars -->
<g id="edge64" class="edge">
<title>tables&#45;&gt;startingvars</title>
<path fill="none" stroke="black" d="M137.71,-930.27C221.93,-920.33 394.94,-899.9 486.57,-889.08"/>
<polygon fill="black" stroke="black" points="486.84,-892.58 496.36,-887.93 486.02,-885.62 486.84,-892.58"/>
</g>
<!-- tables&#45;&gt;updateTemplate -->
<g id="edge73" class="edge">
<title>tables&#45;&gt;updateTemplate</title>
<path fill="none" stroke="black" d="M118.33,-916.38C135.9,-903.97 158.31,-887.08 176.38,-870 320.05,-734.2 300.32,-641.32 464.38,-531 470.75,-526.72 477.84,-523.07 485.12,-519.98"/>
<polygon fill="black" stroke="black" points="486.38,-523.24 494.45,-516.37 483.86,-516.71 486.38,-523.24"/>
</g>
<!-- tables&#45;&gt;repl -->
<g id="edge75" class="edge">
<title>tables&#45;&gt;repl</title>
<path fill="none" stroke="black" d="M110.87,-957.85C165.5,-1011.79 315.13,-1152.72 464.38,-1233 478.82,-1240.77 495.89,-1246.82 510.73,-1251.21"/>
<polygon fill="black" stroke="black" points="509.52,-1254.51 520.09,-1253.83 511.41,-1247.76 509.52,-1254.51"/>
</g>
<!-- os -->
<g id="node6" class="node">
<title>os</title>
<ellipse fill="none" stroke="black" cx="88.19" cy="-540" rx="27" ry="24.08"/>
<text text-anchor="middle" x="88.19" y="-533.8" font-family="Times,serif" font-size="24.00">os</text>
</g>
<!-- os&#45;&gt;statictea -->
<g id="edge80" class="edge">
<title>os&#45;&gt;statictea</title>
<path fill="none" stroke="black" d="M115.42,-541.03C189.21,-543.94 399.45,-552.21 496.44,-556.03"/>
<polygon fill="black" stroke="black" points="496.05,-559.51 506.18,-556.41 496.32,-552.52 496.05,-559.51"/>
</g>
<!-- os&#45;&gt;parseCommandLine -->
<g id="edge4" class="edge">
<title>os&#45;&gt;parseCommandLine</title>
<path fill="none" stroke="black" d="M113.7,-549.03C131.22,-555.55 155.32,-564.63 176.38,-573 305.24,-624.22 334.41,-644.66 464.38,-693 472.03,-695.84 480.13,-698.7 488.15,-701.43"/>
<polygon fill="black" stroke="black" points="486.95,-704.72 497.55,-704.58 489.18,-698.08 486.95,-704.72"/>
</g>
<!-- os&#45;&gt;cmdline -->
<g id="edge7" class="edge">
<title>os&#45;&gt;cmdline</title>
<path fill="none" stroke="black" d="M114.15,-547.18C132.09,-552.88 156.53,-561.75 176.38,-573 318.4,-653.51 320.61,-723.66 464.38,-801 475.72,-807.1 488.69,-812.14 500.92,-816.15"/>
<polygon fill="black" stroke="black" points="499.84,-819.48 510.43,-819.1 501.91,-812.8 499.84,-819.48"/>
</g>
<!-- os&#45;&gt;env -->
<g id="edge21" class="edge">
<title>os&#45;&gt;env</title>
<path fill="none" stroke="black" d="M113.84,-531.3C131.43,-524.95 155.55,-515.91 176.38,-507 306.87,-451.16 332.68,-421.93 464.38,-369 479.71,-362.84 497.03,-356.99 511.81,-352.32"/>
<polygon fill="black" stroke="black" points="512.58,-355.75 521.1,-349.44 510.51,-349.06 512.58,-355.75"/>
</g>
<!-- os&#45;&gt;tempFile -->
<g id="edge25" class="edge">
<title>os&#45;&gt;tempFile</title>
<path fill="none" stroke="black" d="M114.11,-532.16C188,-508.89 406.69,-440.04 501.68,-410.13"/>
<polygon fill="black" stroke="black" points="502.7,-413.48 511.19,-407.14 500.6,-406.8 502.7,-413.48"/>
</g>
<!-- os&#45;&gt;runFunction -->
<g id="edge46" class="edge">
<title>os&#45;&gt;runFunction</title>
<path fill="none" stroke="black" d="M115.09,-544.08C186.24,-555.28 386.06,-586.73 486.85,-602.6"/>
<polygon fill="black" stroke="black" points="486.13,-606.03 496.55,-604.13 487.22,-599.11 486.13,-606.03"/>
</g>
<!-- os&#45;&gt;readjson -->
<g id="edge60" class="edge">
<title>os&#45;&gt;readjson</title>
<path fill="none" stroke="black" d="M114.28,-533.04C132.29,-527.45 156.74,-518.62 176.38,-507 321.25,-421.27 317.64,-343.49 464.38,-261 475.51,-254.74 488.3,-249.67 500.44,-245.67"/>
<polygon fill="black" stroke="black" points="501.36,-249.05 509.88,-242.76 499.29,-242.37 501.36,-249.05"/>
</g>
<!-- os&#45;&gt;startingvars -->
<g id="edge63" class="edge">
<title>os&#45;&gt;startingvars</title>
<path fill="none" stroke="black" d="M114.52,-546.56C132.65,-551.95 157.15,-560.72 176.38,-573 327.36,-669.42 311.3,-761.96 464.38,-855 473.15,-860.33 483.09,-864.73 492.95,-868.33"/>
<polygon fill="black" stroke="black" points="491.53,-871.55 502.13,-871.44 493.78,-864.92 491.53,-871.55"/>
</g>
<!-- os&#45;&gt;codefile -->
<g id="edge67" class="edge">
<title>os&#45;&gt;codefile</title>
<path fill="none" stroke="black" d="M115.09,-534.9C189.55,-520.25 404.91,-477.88 500.24,-459.12"/>
<polygon fill="black" stroke="black" points="500.63,-462.61 509.76,-457.24 499.27,-455.74 500.63,-462.61"/>
</g>
<!-- os&#45;&gt;updateTemplate -->
<g id="edge71" class="edge">
<title>os&#45;&gt;updateTemplate</title>
<path fill="none" stroke="black" d="M115.42,-537.94C183.21,-532.6 366.19,-518.2 470.69,-509.97"/>
<polygon fill="black" stroke="black" points="470.89,-513.47 480.59,-509.19 470.35,-506.49 470.89,-513.47"/>
</g>
<!-- strformat -->
<g id="node7" class="node">
<title>strformat</title>
<ellipse fill="none" stroke="red" cx="88.19" cy="-120" rx="74.49" ry="24.08"/>
<text text-anchor="middle" x="88.19" y="-113.8" font-family="Times,serif" font-size="24.00">strformat</text>
</g>
<!-- args -->
<g id="node8" class="node">
<title>args</title>
<ellipse fill="none" stroke="black" cx="547.57" cy="-18" rx="27" ry="18"/>
<text text-anchor="middle" x="547.57" y="-14.3" font-family="Times,serif" font-size="14.00">args</text>
</g>
<!-- strformat&#45;&gt;args -->
<g id="edge5" class="edge">
<title>strformat&#45;&gt;args</title>
<path fill="none" stroke="red" d="M150.4,-106.35C247.07,-84.79 432.11,-43.53 510.29,-26.09"/>
<polygon fill="red" stroke="red" points="510.98,-29.52 519.98,-23.93 509.45,-22.69 510.98,-29.52"/>
</g>
<!-- strformat&#45;&gt;replacement -->
<g id="edge57" class="edge">
<title>strformat&#45;&gt;replacement</title>
<path fill="none" stroke="red" d="M157.67,-128.98C246.53,-140.64 400.27,-160.81 485.41,-171.98"/>
<polygon fill="red" stroke="red" points="484.83,-175.43 495.2,-173.26 485.74,-168.49 484.83,-175.43"/>
</g>
<!-- re -->
<g id="node12" class="node">
<title>re</title>
<polygon fill="palegreen" stroke="black" points="115.19,-1357.21 115.19,-1378.79 99.37,-1394.04 77.01,-1394.04 61.19,-1378.79 61.19,-1357.21 77.01,-1341.96 99.37,-1341.96 115.19,-1357.21"/>
<polygon fill="none" stroke="black" points="119.19,-1355.51 119.19,-1380.49 100.99,-1398.04 75.39,-1398.04 57.19,-1380.49 57.19,-1355.51 75.39,-1337.96 100.99,-1337.96 119.19,-1355.51"/>
<text text-anchor="middle" x="88.19" y="-1361.8" font-family="Times,serif" font-size="24.00">re</text>
</g>
<!-- re&#45;&gt;regexes -->
<g id="edge13" class="edge">
<title>re&#45;&gt;regexes</title>
<path fill="none" stroke="black" d="M119.55,-1368C197.14,-1368 403.2,-1368 497.82,-1368"/>
<polygon fill="black" stroke="black" points="497.82,-1371.5 507.82,-1368 497.82,-1364.5 497.82,-1371.5"/>
</g>
<!-- streams -->
<g id="node15" class="node">
<title>streams</title>
<ellipse fill="none" stroke="black" cx="88.19" cy="-396" rx="62.87" ry="24.08"/>
<text text-anchor="middle" x="88.19" y="-389.8" font-family="Times,serif" font-size="24.00">streams</text>
</g>
<!-- streams&#45;&gt;processTemplate -->
<g id="edge19" class="edge">
<title>streams&#45;&gt;processTemplate</title>
<path fill="none" stroke="black" d="M136.82,-411.4C149.96,-416.34 164,-422.3 176.38,-429 315.71,-504.38 323.41,-566.73 464.38,-639 471.64,-642.72 479.52,-646.08 487.43,-649.06"/>
<polygon fill="black" stroke="black" points="486.15,-652.32 496.75,-652.38 488.5,-645.73 486.15,-652.32"/>
</g>
<!-- streams&#45;&gt;env -->
<g id="edge20" class="edge">
<title>streams&#45;&gt;env</title>
<path fill="none" stroke="black" d="M148.52,-389C244.27,-377.69 430.16,-355.74 509.37,-346.39"/>
<polygon fill="black" stroke="black" points="509.68,-349.88 519.2,-345.23 508.86,-342.93 509.68,-349.88"/>
</g>
<!-- streams&#45;&gt;tempFile -->
<g id="edge29" class="edge">
<title>streams&#45;&gt;tempFile</title>
<path fill="none" stroke="black" d="M151.35,-396C241.75,-396 407.96,-396 493.15,-396"/>
<polygon fill="black" stroke="black" points="493.11,-399.5 503.11,-396 493.11,-392.5 493.11,-399.5"/>
</g>
<!-- streams&#45;&gt;linebuffer -->
<g id="edge30" class="edge">
<title>streams&#45;&gt;linebuffer</title>
<path fill="none" stroke="black" d="M142.55,-383.4C231.75,-362.34 409.87,-320.28 496.69,-299.78"/>
<polygon fill="black" stroke="black" points="497.41,-303.2 506.34,-297.5 495.81,-296.39 497.41,-303.2"/>
</g>
<!-- streams&#45;&gt;replacement -->
<g id="edge56" class="edge">
<title>streams&#45;&gt;replacement</title>
<path fill="none" stroke="black" d="M135.37,-379.84C148.75,-374.81 163.28,-368.99 176.38,-363 308.75,-302.43 330.7,-264.61 464.38,-207 474.21,-202.76 484.93,-198.8 495.29,-195.27"/>
<polygon fill="black" stroke="black" points="496.07,-198.7 504.47,-192.24 493.87,-192.05 496.07,-198.7"/>
</g>
<!-- streams&#45;&gt;readjson -->
<g id="edge59" class="edge">
<title>streams&#45;&gt;readjson</title>
<path fill="none" stroke="black" d="M134.38,-379.28C204.72,-353.35 344.75,-302.16 464.38,-261 477.01,-256.65 490.79,-252.07 503.39,-247.93"/>
<polygon fill="black" stroke="black" points="504.24,-251.34 512.66,-244.91 502.07,-244.68 504.24,-251.34"/>
</g>
<!-- streams&#45;&gt;codefile -->
<g id="edge68" class="edge">
<title>streams&#45;&gt;codefile</title>
<path fill="none" stroke="black" d="M148.52,-403C239.93,-413.8 413.5,-434.29 497.96,-444.26"/>
<polygon fill="black" stroke="black" points="497.43,-447.72 507.77,-445.42 498.25,-440.77 497.43,-447.72"/>
</g>
<!-- streams&#45;&gt;updateTemplate -->
<g id="edge70" class="edge">
<title>streams&#45;&gt;updateTemplate</title>
<path fill="none" stroke="black" d="M142.55,-408.6C227.86,-428.74 394.52,-468.1 484.84,-489.42"/>
<polygon fill="black" stroke="black" points="483.99,-492.82 494.52,-491.71 485.59,-486 483.99,-492.82"/>
</g>
<!-- times -->
<g id="node17" class="node">
<title>times</title>
<ellipse fill="none" stroke="red" cx="88.19" cy="-264" rx="48.17" ry="24.08"/>
<text text-anchor="middle" x="88.19" y="-257.8" font-family="Times,serif" font-size="24.00">times</text>
</g>
<!-- times&#45;&gt;env -->
<g id="edge22" class="edge">
<title>times&#45;&gt;env</title>
<path fill="none" stroke="red" d="M134.3,-271.69C224.72,-287.11 426.58,-321.54 509.71,-335.71"/>
<polygon fill="red" stroke="red" points="508.92,-339.13 519.37,-337.36 510.1,-332.23 508.92,-339.13"/>
</g>
<!-- timer -->
<g id="node41" class="node">
<title>timer</title>
<ellipse fill="none" stroke="black" cx="547.57" cy="-126" rx="29.8" ry="18"/>
<text text-anchor="middle" x="547.57" y="-122.3" font-family="Times,serif" font-size="14.00">timer</text>
</g>
<!-- times&#45;&gt;timer -->
<g id="edge78" class="edge">
<title>times&#45;&gt;timer</title>
<path fill="none" stroke="red" d="M130.18,-251.63C218.33,-225.04 424.77,-162.75 509.39,-137.22"/>
<polygon fill="red" stroke="red" points="510.25,-140.61 518.82,-134.37 508.23,-133.91 510.25,-140.61"/>
</g>
<!-- random -->
<g id="node19" class="node">
<title>random</title>
<polygon fill="palegreen" stroke="black" points="156.96,-457.21 156.96,-478.79 116.68,-494.04 59.7,-494.04 19.42,-478.79 19.42,-457.21 59.7,-441.96 116.68,-441.96 156.96,-457.21"/>
<polygon fill="none" stroke="black" points="160.96,-454.45 160.96,-481.55 117.41,-498.04 58.97,-498.04 15.42,-481.55 15.42,-454.45 58.97,-437.96 117.41,-437.96 160.96,-454.45"/>
<text text-anchor="middle" x="88.19" y="-461.8" font-family="Times,serif" font-size="24.00">random</text>
</g>
<!-- random&#45;&gt;tempFile -->
<g id="edge26" class="edge">
<title>random&#45;&gt;tempFile</title>
<path fill="none" stroke="black" d="M161.41,-456.63C254.82,-441.93 415.12,-416.69 496.31,-403.91"/>
<polygon fill="black" stroke="black" points="496.4,-407.44 505.73,-402.43 495.31,-400.53 496.4,-407.44"/>
</g>
<!-- math -->
<g id="node26" class="node">
<title>math</title>
<ellipse fill="none" stroke="red" cx="88.19" cy="-330" rx="45.92" ry="24.08"/>
<text text-anchor="middle" x="88.19" y="-323.8" font-family="Times,serif" font-size="24.00">math</text>
</g>
<!-- math&#45;&gt;runFunction -->
<g id="edge45" class="edge">
<title>math&#45;&gt;runFunction</title>
<path fill="none" stroke="red" d="M128.49,-342.1C143.88,-347.54 161.4,-354.64 176.38,-363 317.49,-441.79 321.56,-509.36 464.38,-585 473.45,-589.8 483.52,-593.96 493.43,-597.48"/>
<polygon fill="red" stroke="red" points="492.03,-600.7 502.62,-600.57 494.25,-594.07 492.03,-600.7"/>
</g>
<!-- math&#45;&gt;timer -->
<g id="edge79" class="edge">
<title>math&#45;&gt;timer</title>
<path fill="none" stroke="red" d="M126.86,-316.69C142.35,-310.98 160.37,-304.01 176.38,-297 307.47,-239.6 332.05,-207.48 464.38,-153 478.85,-147.04 495.15,-141.47 509.4,-136.94"/>
<polygon fill="red" stroke="red" points="510.35,-140.31 518.86,-134 508.27,-133.63 510.35,-140.31"/>
</g>
<!-- algorithm -->
<g id="node27" class="node">
<title>algorithm</title>
<polygon fill="palegreen" stroke="black" points="172.56,-601.21 172.56,-622.79 123.14,-638.04 53.24,-638.04 3.82,-622.79 3.82,-601.21 53.24,-585.96 123.14,-585.96 172.56,-601.21"/>
<polygon fill="none" stroke="black" points="176.57,-598.26 176.57,-625.74 123.74,-642.04 52.64,-642.04 -0.19,-625.74 -0.19,-598.26 52.64,-581.96 123.74,-581.96 176.57,-598.26"/>
<text text-anchor="middle" x="88.19" y="-605.8" font-family="Times,serif" font-size="24.00">algorithm</text>
</g>
<!-- algorithm&#45;&gt;runFunction -->
<g id="edge47" class="edge">
<title>algorithm&#45;&gt;runFunction</title>
<path fill="none" stroke="black" d="M176.84,-612C266.09,-612 402.36,-612 482.15,-612"/>
<polygon fill="black" stroke="black" points="481.99,-615.5 491.99,-612 481.99,-608.5 481.99,-615.5"/>
</g>
<!-- parseutils -->
<g id="node29" class="node">
<title>parseutils</title>
<polygon fill="palegreen" stroke="black" points="171,-37.21 171,-58.79 122.49,-74.04 53.89,-74.04 5.38,-58.79 5.38,-37.21 53.89,-21.96 122.49,-21.96 171,-37.21"/>
<polygon fill="none" stroke="black" points="175.01,-34.28 175.01,-61.72 123.11,-78.04 53.27,-78.04 1.37,-61.72 1.37,-34.28 53.27,-17.96 123.11,-17.96 175.01,-34.28"/>
<text text-anchor="middle" x="88.19" y="-41.8" font-family="Times,serif" font-size="24.00">parseutils</text>
</g>
<!-- parseutils&#45;&gt;parseNumber -->
<g id="edge49" class="edge">
<title>parseutils&#45;&gt;parseNumber</title>
<path fill="none" stroke="black" d="M175.49,-52.53C263.39,-57.14 397.9,-64.2 478.54,-68.43"/>
<polygon fill="black" stroke="black" points="477.87,-71.9 488.04,-68.93 478.24,-64.91 477.87,-71.9"/>
</g>
<!-- unicode -->
<g id="node30" class="node">
<title>unicode</title>
<polygon fill="palegreen" stroke="black" points="158.52,-754.21 158.52,-775.79 117.32,-791.04 59.06,-791.04 17.86,-775.79 17.86,-754.21 59.06,-738.96 117.32,-738.96 158.52,-754.21"/>
<polygon fill="none" stroke="black" points="162.52,-751.42 162.52,-778.58 118.04,-795.04 58.34,-795.04 13.86,-778.58 13.86,-751.42 58.34,-734.96 118.04,-734.96 162.52,-751.42"/>
<text text-anchor="middle" x="88.19" y="-758.8" font-family="Times,serif" font-size="24.00">unicode</text>
</g>
<!-- unicode&#45;&gt;unicodes -->
<g id="edge50" class="edge">
<title>unicode&#45;&gt;unicodes</title>
<path fill="none" stroke="black" d="M162.93,-766.45C255.41,-768.27 411.72,-771.35 493.34,-772.95"/>
<polygon fill="black" stroke="black" points="493.24,-776.45 503.31,-773.15 493.38,-769.45 493.24,-776.45"/>
</g>
<!-- json -->
<g id="node35" class="node">
<title>json</title>
<polygon fill="palegreen" stroke="black" points="130.92,-181.21 130.92,-202.79 105.89,-218.04 70.49,-218.04 45.46,-202.79 45.46,-181.21 70.49,-165.96 105.89,-165.96 130.92,-181.21"/>
<polygon fill="none" stroke="black" points="134.91,-178.96 134.91,-205.04 107.01,-222.04 69.37,-222.04 41.47,-205.04 41.47,-178.96 69.37,-161.96 107.01,-161.96 134.91,-178.96"/>
<text text-anchor="middle" x="88.19" y="-185.8" font-family="Times,serif" font-size="24.00">json</text>
</g>
<!-- json&#45;&gt;readjson -->
<g id="edge61" class="edge">
<title>json&#45;&gt;readjson</title>
<path fill="none" stroke="black" d="M135.14,-196.22C221.43,-204.14 407.04,-221.19 496.43,-229.4"/>
<polygon fill="black" stroke="black" points="496.09,-232.88 506.37,-230.31 496.73,-225.91 496.09,-232.88"/>
</g>
<!-- rdstdin -->
<g id="node39" class="node">
<title>rdstdin</title>
<polygon fill="palegreen" stroke="black" points="151.74,-1249.21 151.74,-1270.79 114.51,-1286.04 61.87,-1286.04 24.64,-1270.79 24.64,-1249.21 61.87,-1233.96 114.51,-1233.96 151.74,-1249.21"/>
<polygon fill="none" stroke="black" points="155.74,-1246.53 155.74,-1273.47 115.3,-1290.04 61.08,-1290.04 20.64,-1273.47 20.64,-1246.53 61.08,-1229.96 115.3,-1229.96 155.74,-1246.53"/>
<text text-anchor="middle" x="88.19" y="-1253.8" font-family="Times,serif" font-size="24.00">rdstdin</text>
</g>
<!-- rdstdin&#45;&gt;repl -->
<g id="edge74" class="edge">
<title>rdstdin&#45;&gt;repl</title>
<path fill="none" stroke="black" d="M156.19,-1260C253.78,-1260 431.8,-1260 509.1,-1260"/>
<polygon fill="black" stroke="black" points="508.67,-1263.5 518.67,-1260 508.67,-1256.5 508.67,-1263.5"/>
</g>
</g>
</svg>
