<?xml version="1.0" encoding="UTF-8" standalone="no"?>
<!DOCTYPE svg PUBLIC "-//W3C//DTD SVG 1.1//EN"
 "http://www.w3.org/Graphics/SVG/1.1/DTD/svg11.dtd">
<!-- Generated by graphviz version 2.40.1 (20161225.0304)
 -->
<!-- Title: statictea Pages: 1 -->
<svg width="720pt" height="304pt"
 viewBox="0.00 0.00 720.00 304.01" xmlns="http://www.w3.org/2000/svg" xmlns:xlink="http://www.w3.org/1999/xlink">
<g id="graph0" class="graph" transform="scale(.3184 .3184) rotate(0) translate(4 950.6734)">
<title>statictea</title>
<polygon fill="#ffffff" stroke="transparent" points="-4,4 -4,-950.6734 2257,-950.6734 2257,4 -4,4"/>
<!-- runFunction -->
<g id="node1" class="node">
<title>runFunction</title>
<g id="a_node1"><a xlink:href="runFunction.md" xlink:title="runFunction.md">
<ellipse fill="#eee8aa" stroke="#000000" cx="1040" cy="-483" rx="94.055" ry="22.7556"/>
<text text-anchor="middle" x="1040" y="-475.8" font-family="Times,serif" font-size="24.00" fill="#000000">runFunction</text>
</a>
</g>
</g>
<!-- parseNumber -->
<g id="node2" class="node">
<title>parseNumber</title>
<g id="a_node2"><a xlink:href="parseNumber.md" xlink:title="parseNumber.md">
<polygon fill="#98fb98" stroke="#000000" points="1271.3805,-326.8581 1271.3805,-347.1419 1206.1353,-361.4846 1113.8647,-361.4846 1048.6195,-347.1419 1048.6195,-326.8581 1113.8647,-312.5154 1206.1353,-312.5154 1271.3805,-326.8581"/>
<polygon fill="none" stroke="#000000" points="1275.3872,-323.6442 1275.3872,-350.3558 1206.5714,-365.4835 1113.4286,-365.4835 1044.6128,-350.3558 1044.6128,-323.6442 1113.4286,-308.5165 1206.5714,-308.5165 1275.3872,-323.6442"/>
<text text-anchor="middle" x="1160" y="-329.8" font-family="Times,serif" font-size="24.00" fill="#000000">parseNumber</text>
</a>
</g>
</g>
<!-- runFunction&#45;&gt;parseNumber -->
<g id="edge47" class="edge">
<title>runFunction&#45;&gt;parseNumber</title>
<path fill="none" stroke="#000000" d="M1058.487,-460.5075C1077.5751,-437.2836 1107.658,-400.6827 1130.1279,-373.3443"/>
<polygon fill="#000000" stroke="#000000" points="1132.8959,-375.4888 1136.5417,-365.541 1127.4881,-371.044 1132.8959,-375.4888"/>
</g>
<!-- regexes -->
<g id="node3" class="node">
<title>regexes</title>
<g id="a_node3"><a xlink:href="regexes.md" xlink:title="regexes.md">
<polygon fill="#98fb98" stroke="#000000" points="947.187,-180.8581 947.187,-201.1419 907.244,-215.4846 850.756,-215.4846 810.813,-201.1419 810.813,-180.8581 850.756,-166.5154 907.244,-166.5154 947.187,-180.8581"/>
<polygon fill="none" stroke="#000000" points="951.1781,-178.0434 951.1781,-203.9566 907.9376,-219.4835 850.0624,-219.4835 806.8219,-203.9566 806.8219,-178.0434 850.0624,-162.5165 907.9376,-162.5165 951.1781,-178.0434"/>
<text text-anchor="middle" x="879" y="-183.8" font-family="Times,serif" font-size="24.00" fill="#000000">regexes</text>
</a>
</g>
</g>
<!-- runFunction&#45;&gt;regexes -->
<g id="edge46" class="edge">
<title>runFunction&#45;&gt;regexes</title>
<path fill="none" stroke="#000000" d="M1024.5812,-460.4894C1008.8576,-437.1658 984.1237,-399.4411 965,-365.4917 939.057,-319.4362 912.6904,-264.4729 896.1154,-228.7089"/>
<polygon fill="#000000" stroke="#000000" points="899.2809,-227.2152 891.9137,-219.6011 892.9246,-230.1476 899.2809,-227.2152"/>
</g>
<!-- vartypes -->
<g id="node8" class="node">
<title>vartypes</title>
<g id="a_node8"><a xlink:href="vartypes.md" xlink:title="vartypes.md">
<ellipse fill="#eee8aa" stroke="#000000" cx="1725" cy="-191" rx="68.6102" ry="22.7556"/>
<text text-anchor="middle" x="1725" y="-183.8" font-family="Times,serif" font-size="24.00" fill="#000000">vartypes</text>
</a>
</g>
</g>
<!-- runFunction&#45;&gt;vartypes -->
<g id="edge45" class="edge">
<title>runFunction&#45;&gt;vartypes</title>
<path fill="none" stroke="#000000" d="M1031.0091,-460.3621C1018.1336,-423.7869 999.7486,-351.4658 1036,-308.5083 1075.3291,-261.9038 1477.7198,-216.0359 1648.7497,-198.4834"/>
<polygon fill="#000000" stroke="#000000" points="1649.3439,-201.9411 1658.9367,-197.4434 1648.6329,-194.9773 1649.3439,-201.9411"/>
</g>
<!-- tostring -->
<g id="node10" class="node">
<title>tostring</title>
<g id="a_node10"><a xlink:href="tostring.md" xlink:title="tostring.md">
<ellipse fill="#eee8aa" stroke="#000000" cx="1546" cy="-337" rx="63.3406" ry="22.7556"/>
<text text-anchor="middle" x="1546" y="-329.8" font-family="Times,serif" font-size="24.00" fill="#000000">tostring</text>
</a>
</g>
</g>
<!-- runFunction&#45;&gt;tostring -->
<g id="edge49" class="edge">
<title>runFunction&#45;&gt;tostring</title>
<path fill="none" stroke="#000000" d="M1100.5328,-465.534C1198.4269,-437.2879 1390.2739,-381.9328 1487.1071,-353.9928"/>
<polygon fill="#000000" stroke="#000000" points="1488.1023,-357.3485 1496.74,-351.2134 1486.1616,-350.6229 1488.1023,-357.3485"/>
</g>
<!-- warnings -->
<g id="node13" class="node">
<title>warnings</title>
<g id="a_node13"><a xlink:href="warnings.md" xlink:title="warnings.md">
<polygon fill="#98fb98" stroke="#000000" points="1700.6684,-34.8581 1700.6684,-55.1419 1653.9997,-69.4846 1588.0003,-69.4846 1541.3316,-55.1419 1541.3316,-34.8581 1588.0003,-20.5154 1653.9997,-20.5154 1700.6684,-34.8581"/>
<polygon fill="none" stroke="#000000" points="1704.6725,-31.9048 1704.6725,-58.0952 1654.6019,-73.4835 1587.3981,-73.4835 1537.3275,-58.0952 1537.3275,-31.9048 1587.3981,-16.5165 1654.6019,-16.5165 1704.6725,-31.9048"/>
<text text-anchor="middle" x="1621" y="-37.8" font-family="Times,serif" font-size="24.00" fill="#000000">warnings</text>
</a>
</g>
</g>
<!-- runFunction&#45;&gt;warnings -->
<g id="edge44" class="edge">
<title>runFunction&#45;&gt;warnings</title>
<path fill="none" stroke="#000000" d="M1027.246,-460.5531C1009.03,-425.1917 981.0048,-355.6919 1012,-308.5083 1127.2366,-133.0851 1386.903,-73.8883 1527.0565,-54.3358"/>
<polygon fill="#000000" stroke="#000000" points="1527.9103,-57.7521 1537.3499,-52.9411 1526.9704,-50.8155 1527.9103,-57.7521"/>
</g>
<!-- matches -->
<g id="node18" class="node">
<title>matches</title>
<g id="a_node18"><a xlink:href="matches.md" xlink:title="matches.md">
<ellipse fill="#eee8aa" stroke="#000000" cx="770" cy="-337" rx="66.8311" ry="22.7556"/>
<text text-anchor="middle" x="770" y="-329.8" font-family="Times,serif" font-size="24.00" fill="#000000">matches</text>
</a>
</g>
</g>
<!-- runFunction&#45;&gt;matches -->
<g id="edge48" class="edge">
<title>runFunction&#45;&gt;matches</title>
<path fill="none" stroke="#000000" d="M1001.6023,-462.2368C952.2959,-435.5748 866.8857,-389.39 814.7068,-361.1748"/>
<polygon fill="#000000" stroke="#000000" points="816.1436,-357.9728 805.6825,-356.295 812.814,-364.1303 816.1436,-357.9728"/>
</g>
<!-- parseCmdLine -->
<g id="node4" class="node">
<title>parseCmdLine</title>
<g id="a_node4"><a xlink:href="parseCmdLine.md" xlink:title="parseCmdLine.md">
<ellipse fill="#eee8aa" stroke="#000000" cx="627" cy="-483" rx="111.4463" ry="22.7556"/>
<text text-anchor="middle" x="627" y="-475.8" font-family="Times,serif" font-size="24.00" fill="#000000">parseCmdLine</text>
</a>
</g>
</g>
<!-- parseCmdLine&#45;&gt;regexes -->
<g id="edge18" class="edge">
<title>parseCmdLine&#45;&gt;regexes</title>
<path fill="none" stroke="#000000" d="M630.9455,-460.3222C638.119,-424.6443 656.189,-354.7187 694,-308.5083 727.531,-267.5286 779.2741,-236.3785 819.5209,-216.4806"/>
<polygon fill="#000000" stroke="#000000" points="821.2266,-219.5435 828.7027,-212.0363 818.1768,-213.2428 821.2266,-219.5435"/>
</g>
<!-- env -->
<g id="node5" class="node">
<title>env</title>
<g id="a_node5"><a xlink:href="env.md" xlink:title="env.md">
<ellipse fill="#eee8aa" stroke="#000000" cx="524" cy="-337" rx="35.6342" ry="22.7556"/>
<text text-anchor="middle" x="524" y="-329.8" font-family="Times,serif" font-size="24.00" fill="#000000">env</text>
</a>
</g>
</g>
<!-- parseCmdLine&#45;&gt;env -->
<g id="edge17" class="edge">
<title>parseCmdLine&#45;&gt;env</title>
<path fill="none" stroke="#000000" d="M611.132,-460.5075C593.3101,-435.2454 564.322,-394.1555 544.7241,-366.3759"/>
<polygon fill="#000000" stroke="#000000" points="547.3418,-364.0149 538.7172,-357.8613 541.6219,-368.0501 547.3418,-364.0149"/>
</g>
<!-- parseCmdLine&#45;&gt;warnings -->
<g id="edge19" class="edge">
<title>parseCmdLine&#45;&gt;warnings</title>
<path fill="none" stroke="#000000" d="M626.5198,-460.0882C626.7281,-425.2983 630.8657,-357.9721 657,-308.5083 683.5792,-258.2025 709.9667,-260.8865 749,-219.4917 771.9153,-195.1901 768.7065,-178.5572 798,-162.5083 922.0592,-94.5405 1338.6534,-61.764 1527.0611,-50.1361"/>
<polygon fill="#000000" stroke="#000000" points="1527.4574,-53.6185 1537.2256,-49.5156 1527.0309,-46.6315 1527.4574,-53.6185"/>
</g>
<!-- parseCmdLine&#45;&gt;matches -->
<g id="edge20" class="edge">
<title>parseCmdLine&#45;&gt;matches</title>
<path fill="none" stroke="#000000" d="M649.0304,-460.5075C673.8082,-435.2098 714.1325,-394.0396 741.3427,-366.2585"/>
<polygon fill="#000000" stroke="#000000" points="744.1489,-368.3954 748.6458,-358.8022 739.148,-363.4973 744.1489,-368.3954"/>
</g>
<!-- tempFile -->
<g id="node7" class="node">
<title>tempFile</title>
<g id="a_node7"><a xlink:href="tempFile.md" xlink:title="tempFile.md">
<polygon fill="#98fb98" stroke="#000000" points="735.598,-180.8581 735.598,-201.1419 690.1421,-215.4846 625.8579,-215.4846 580.402,-201.1419 580.402,-180.8581 625.8579,-166.5154 690.1421,-166.5154 735.598,-180.8581"/>
<polygon fill="none" stroke="#000000" points="739.6004,-177.9275 739.6004,-204.0725 690.7591,-219.4835 625.2409,-219.4835 576.3996,-204.0725 576.3996,-177.9275 625.2409,-162.5165 690.7591,-162.5165 739.6004,-177.9275"/>
<text text-anchor="middle" x="658" y="-183.8" font-family="Times,serif" font-size="24.00" fill="#000000">tempFile</text>
</a>
</g>
</g>
<!-- env&#45;&gt;tempFile -->
<g id="edge4" class="edge">
<title>env&#45;&gt;tempFile</title>
<path fill="none" stroke="#000000" d="M542.0718,-317.3098C563.2535,-294.2313 598.7807,-255.5225 624.9345,-227.0266"/>
<polygon fill="#000000" stroke="#000000" points="627.5212,-229.3843 631.7045,-219.6503 622.3641,-224.651 627.5212,-229.3843"/>
</g>
<!-- env&#45;&gt;warnings -->
<g id="edge5" class="edge">
<title>env&#45;&gt;warnings</title>
<path fill="none" stroke="#000000" d="M522.1288,-314.1898C520.413,-276.3552 523.1407,-200.984 567,-162.5083 638.5508,-99.7401 1282.1793,-61.7055 1527.03,-49.4003"/>
<polygon fill="#000000" stroke="#000000" points="1527.5181,-52.8803 1537.3311,-48.8859 1527.169,-45.889 1527.5181,-52.8803"/>
</g>
<!-- args -->
<g id="node17" class="node">
<title>args</title>
<g id="a_node17"><a xlink:href="args.md" xlink:title="args.md">
<polygon fill="#98fb98" stroke="#000000" points="515.5492,-180.8581 515.5492,-201.1419 490.6245,-215.4846 455.3755,-215.4846 430.4508,-201.1419 430.4508,-180.8581 455.3755,-166.5154 490.6245,-166.5154 515.5492,-180.8581"/>
<polygon fill="none" stroke="#000000" points="519.5514,-178.5466 519.5514,-203.4534 491.6946,-219.4835 454.3054,-219.4835 426.4486,-203.4534 426.4486,-178.5466 454.3054,-162.5165 491.6946,-162.5165 519.5514,-178.5466"/>
<text text-anchor="middle" x="473" y="-183.8" font-family="Times,serif" font-size="24.00" fill="#000000">args</text>
</a>
</g>
</g>
<!-- env&#45;&gt;args -->
<g id="edge6" class="edge">
<title>env&#45;&gt;args</title>
<path fill="none" stroke="#000000" d="M516.2542,-314.8257C508.3374,-292.1619 495.888,-256.5226 486.3741,-229.2866"/>
<polygon fill="#000000" stroke="#000000" points="489.6176,-227.9584 483.0156,-219.6721 483.0092,-230.2669 489.6176,-227.9584"/>
</g>
<!-- variables -->
<g id="node6" class="node">
<title>variables</title>
<g id="a_node6"><a xlink:href="variables.md" xlink:title="variables.md">
<ellipse fill="#eee8aa" stroke="#000000" cx="1883" cy="-483" rx="72.6337" ry="22.7556"/>
<text text-anchor="middle" x="1883" y="-475.8" font-family="Times,serif" font-size="24.00" fill="#000000">variables</text>
</a>
</g>
</g>
<!-- variables&#45;&gt;vartypes -->
<g id="edge37" class="edge">
<title>variables&#45;&gt;vartypes</title>
<path fill="none" stroke="#000000" d="M1874.3752,-460.3495C1861.1422,-426.4652 1834.2702,-360.9537 1805,-308.5083 1787.7536,-277.6067 1764.7286,-244.4559 1747.8092,-221.2705"/>
<polygon fill="#000000" stroke="#000000" points="1750.6189,-219.1834 1741.8739,-213.202 1744.9801,-223.3313 1750.6189,-219.1834"/>
</g>
<!-- variables&#45;&gt;tostring -->
<g id="edge42" class="edge">
<title>variables&#45;&gt;tostring</title>
<path fill="none" stroke="#000000" d="M1840.3187,-464.509C1777.943,-437.4857 1662.1241,-387.3089 1595.8962,-358.6167"/>
<polygon fill="#000000" stroke="#000000" points="1597.0642,-355.3085 1586.497,-354.5447 1594.2815,-361.7316 1597.0642,-355.3085"/>
</g>
<!-- variables&#45;&gt;warnings -->
<g id="edge39" class="edge">
<title>variables&#45;&gt;warnings</title>
<path fill="none" stroke="#000000" d="M1882.8544,-460.0667C1881.4052,-403.9556 1870.9087,-257.4194 1803,-162.5083 1786.0892,-138.8732 1723.2711,-100.9514 1676.1343,-74.605"/>
<polygon fill="#000000" stroke="#000000" points="1677.6741,-71.4567 1667.2324,-69.6622 1674.276,-77.5766 1677.6741,-71.4567"/>
</g>
<!-- version -->
<g id="node19" class="node">
<title>version</title>
<g id="a_node19"><a xlink:href="version.md" xlink:title="version.md">
<polygon fill="#98fb98" stroke="#000000" points="2107.1523,-326.8581 2107.1523,-347.1419 2068.4012,-361.4846 2013.5988,-361.4846 1974.8477,-347.1419 1974.8477,-326.8581 2013.5988,-312.5154 2068.4012,-312.5154 2107.1523,-326.8581"/>
<polygon fill="none" stroke="#000000" points="2111.1421,-324.0721 2111.1421,-349.9279 2069.1143,-365.4835 2012.8857,-365.4835 1970.8579,-349.9279 1970.8579,-324.0721 2012.8857,-308.5165 2069.1143,-308.5165 2111.1421,-324.0721"/>
<text text-anchor="middle" x="2041" y="-329.8" font-family="Times,serif" font-size="24.00" fill="#000000">version</text>
</a>
</g>
</g>
<!-- variables&#45;&gt;version -->
<g id="edge38" class="edge">
<title>variables&#45;&gt;version</title>
<path fill="none" stroke="#000000" d="M1906.3134,-461.4572C1931.8738,-437.8381 1973.2584,-399.5966 2003.4162,-371.7294"/>
<polygon fill="#000000" stroke="#000000" points="2005.8559,-374.2405 2010.825,-364.8832 2001.1052,-369.0993 2005.8559,-374.2405"/>
</g>
<!-- vartypes&#45;&gt;warnings -->
<g id="edge33" class="edge">
<title>vartypes&#45;&gt;warnings</title>
<path fill="none" stroke="#000000" d="M1709.2046,-168.8257C1692.7773,-145.7643 1666.78,-109.2681 1647.2571,-81.861"/>
<polygon fill="#000000" stroke="#000000" points="1650.0765,-79.7863 1641.4239,-73.6721 1644.3751,-83.8476 1650.0765,-79.7863"/>
</g>
<!-- tpub -->
<g id="node9" class="node">
<title>tpub</title>
<g id="a_node9"><a xlink:href="tpub.md" xlink:title="tpub.md">
<polygon fill="#98fb98" stroke="#000000" points="1720.8132,-326.8581 1720.8132,-347.1419 1694.5622,-361.4846 1657.4378,-361.4846 1631.1868,-347.1419 1631.1868,-326.8581 1657.4378,-312.5154 1694.5622,-312.5154 1720.8132,-326.8581"/>
<polygon fill="none" stroke="#000000" points="1724.8052,-324.4843 1724.8052,-349.5157 1695.5802,-365.4835 1656.4198,-365.4835 1627.1948,-349.5157 1627.1948,-324.4843 1656.4198,-308.5165 1695.5802,-308.5165 1724.8052,-324.4843"/>
<text text-anchor="middle" x="1676" y="-329.8" font-family="Times,serif" font-size="24.00" fill="#000000">tpub</text>
</a>
</g>
</g>
<!-- tostring&#45;&gt;vartypes -->
<g id="edge41" class="edge">
<title>tostring&#45;&gt;vartypes</title>
<path fill="none" stroke="#000000" d="M1571.6463,-316.0818C1603.0592,-290.4601 1656.3698,-246.9777 1691.1294,-218.6263"/>
<polygon fill="#000000" stroke="#000000" points="1693.5738,-221.1492 1699.1108,-212.1163 1689.1494,-215.7247 1693.5738,-221.1492"/>
</g>
<!-- tostring&#45;&gt;warnings -->
<g id="edge40" class="edge">
<title>tostring&#45;&gt;warnings</title>
<path fill="none" stroke="#000000" d="M1551.8851,-314.0872C1564.7079,-264.1637 1595.2848,-145.1177 1611.1189,-83.4705"/>
<polygon fill="#000000" stroke="#000000" points="1614.5228,-84.2866 1613.6206,-73.7303 1607.7429,-82.5452 1614.5228,-84.2866"/>
</g>
<!-- replacement -->
<g id="node11" class="node">
<title>replacement</title>
<g id="a_node11"><a xlink:href="replacement.md" xlink:title="replacement.md">
<ellipse fill="#eee8aa" stroke="#000000" cx="1200" cy="-620" rx="94.4556" ry="22.7556"/>
<text text-anchor="middle" x="1200" y="-612.8" font-family="Times,serif" font-size="24.00" fill="#000000">replacement</text>
</a>
</g>
</g>
<!-- replacement&#45;&gt;parseNumber -->
<g id="edge63" class="edge">
<title>replacement&#45;&gt;parseNumber</title>
<path fill="none" stroke="#000000" d="M1196.7942,-597.3193C1189.9736,-549.0636 1173.9566,-435.7428 1165.4816,-375.782"/>
<polygon fill="#000000" stroke="#000000" points="1168.9053,-374.996 1164.0402,-365.5843 1161.9742,-375.9757 1168.9053,-374.996"/>
</g>
<!-- replacement&#45;&gt;regexes -->
<g id="edge54" class="edge">
<title>replacement&#45;&gt;regexes</title>
<path fill="none" stroke="#000000" d="M1207.9261,-597.3739C1228.1224,-539.5333 1280.1966,-389.1509 1284,-365.4917 1288.0198,-340.4868 1299.2098,-328.7584 1284,-308.5083 1245.2923,-256.9734 1068.2502,-220.7419 961.4695,-203.1409"/>
<polygon fill="#000000" stroke="#000000" points="961.7947,-199.6479 951.3623,-201.4959 960.6701,-206.557 961.7947,-199.6479"/>
</g>
<!-- replacement&#45;&gt;parseCmdLine -->
<g id="edge57" class="edge">
<title>replacement&#45;&gt;parseCmdLine</title>
<path fill="none" stroke="#000000" d="M1133.1482,-604.0162C1027.7285,-578.8112 823.1518,-529.8984 709.0108,-502.6082"/>
<polygon fill="#000000" stroke="#000000" points="709.8056,-499.1996 699.2658,-500.2782 708.1778,-506.0077 709.8056,-499.1996"/>
</g>
<!-- replacement&#45;&gt;env -->
<g id="edge55" class="edge">
<title>replacement&#45;&gt;env</title>
<path fill="none" stroke="#000000" d="M1126.3449,-605.8196C1049.5981,-589.3773 927.0841,-558.3796 829,-511.4917 788.9596,-492.3509 784.9245,-477.559 747,-454.5083 683.8085,-416.1002 606.8776,-377.1979 561.8783,-355.1885"/>
<polygon fill="#000000" stroke="#000000" points="563.2999,-351.9878 552.7771,-350.7545 560.2341,-358.2807 563.2999,-351.9878"/>
</g>
<!-- replacement&#45;&gt;variables -->
<g id="edge61" class="edge">
<title>replacement&#45;&gt;variables</title>
<path fill="none" stroke="#000000" d="M1275.0658,-606.1933C1382.3527,-586.2806 1585.639,-547.884 1758,-511.4917 1776.5524,-507.5746 1796.5995,-503.1094 1815.0921,-498.8946"/>
<polygon fill="#000000" stroke="#000000" points="1815.9274,-502.2941 1824.8944,-496.6511 1814.3655,-495.4705 1815.9274,-502.2941"/>
</g>
<!-- replacement&#45;&gt;tempFile -->
<g id="edge62" class="edge">
<title>replacement&#45;&gt;tempFile</title>
<path fill="none" stroke="#000000" d="M1127.082,-605.5387C1069.1687,-590.7101 989.4641,-562.3976 937,-511.4917 866.0454,-442.6446 910.9531,-383.044 846,-308.5083 811.3967,-268.7999 760.07,-237.9672 719.7855,-217.8672"/>
<polygon fill="#000000" stroke="#000000" points="721.1065,-214.6172 710.5858,-213.3664 718.0303,-220.905 721.1065,-214.6172"/>
</g>
<!-- replacement&#45;&gt;vartypes -->
<g id="edge56" class="edge">
<title>replacement&#45;&gt;vartypes</title>
<path fill="none" stroke="#000000" d="M1282.2702,-608.8662C1397.6854,-591.8711 1600.0602,-556.6206 1658,-511.4917 1733.998,-452.2975 1737.6809,-404.7689 1734,-308.5083 1732.9084,-279.9628 1730.3306,-247.602 1728.2122,-224.078"/>
<polygon fill="#000000" stroke="#000000" points="1731.6807,-223.5739 1727.2783,-213.937 1724.7102,-224.2159 1731.6807,-223.5739"/>
</g>
<!-- replacement&#45;&gt;tpub -->
<g id="edge64" class="edge">
<title>replacement&#45;&gt;tpub</title>
<path fill="none" stroke="#000000" d="M1282.5836,-608.9502C1392.4437,-592.6304 1578.4736,-558.824 1627,-511.4917 1663.5985,-475.7939 1673.4784,-415.1195 1675.8126,-375.5535"/>
<polygon fill="#000000" stroke="#000000" points="1679.3125,-375.6339 1676.2713,-365.485 1672.3198,-375.3153 1679.3125,-375.6339"/>
</g>
<!-- replacement&#45;&gt;tostring -->
<g id="edge65" class="edge">
<title>replacement&#45;&gt;tostring</title>
<path fill="none" stroke="#000000" d="M1284.0806,-609.5581C1391.171,-594.332 1567.0648,-562.1993 1606,-511.4917 1639.6456,-467.673 1600.7307,-403.7046 1571.7486,-366.6204"/>
<polygon fill="#000000" stroke="#000000" points="1574.3692,-364.2939 1565.3789,-358.688 1568.9111,-368.6767 1574.3692,-364.2939"/>
</g>
<!-- readlines -->
<g id="node12" class="node">
<title>readlines</title>
<g id="a_node12"><a xlink:href="readlines.md" xlink:title="readlines.md">
<polygon fill="#98fb98" stroke="#000000" points="417.5894,-472.8581 417.5894,-493.1419 371.5528,-507.4846 306.4472,-507.4846 260.4106,-493.1419 260.4106,-472.8581 306.4472,-458.5154 371.5528,-458.5154 417.5894,-472.8581"/>
<polygon fill="none" stroke="#000000" points="421.5916,-469.9163 421.5916,-496.0837 372.1623,-511.4835 305.8377,-511.4835 256.4084,-496.0837 256.4084,-469.9163 305.8377,-454.5165 372.1623,-454.5165 421.5916,-469.9163"/>
<text text-anchor="middle" x="339" y="-475.8" font-family="Times,serif" font-size="24.00" fill="#000000">readlines</text>
</a>
</g>
</g>
<!-- replacement&#45;&gt;readlines -->
<g id="edge58" class="edge">
<title>replacement&#45;&gt;readlines</title>
<path fill="none" stroke="#000000" d="M1120.1774,-607.838C991.1775,-588.1075 728.902,-547.6793 507,-511.4917 481.7397,-507.3723 454.3654,-502.7831 429.191,-498.5122"/>
<polygon fill="#000000" stroke="#000000" points="429.7372,-495.0549 419.2921,-496.8301 428.5644,-501.956 429.7372,-495.0549"/>
</g>
<!-- replacement&#45;&gt;warnings -->
<g id="edge60" class="edge">
<title>replacement&#45;&gt;warnings</title>
<path fill="none" stroke="#000000" d="M1292.9379,-615.9165C1515.679,-605.1798 2065.6037,-572.6808 2120,-511.4917 2179.9392,-444.0676 2164.7759,-386.8271 2120,-308.5083 2034.0414,-158.1554 1828.8485,-89.7986 1710.0852,-61.8902"/>
<polygon fill="#000000" stroke="#000000" points="1710.809,-58.4654 1700.2785,-59.6315 1709.2378,-65.2868 1710.809,-58.4654"/>
</g>
<!-- replacement&#45;&gt;matches -->
<g id="edge59" class="edge">
<title>replacement&#45;&gt;matches</title>
<path fill="none" stroke="#000000" d="M1115.138,-610.1282C1042.1175,-597.8203 937.5342,-570.6484 866,-511.4917 853.7599,-501.3696 809.632,-415.8803 785.6988,-368.4319"/>
<polygon fill="#000000" stroke="#000000" points="788.8176,-366.8434 781.1968,-359.483 782.5643,-369.9893 788.8176,-366.8434"/>
</g>
<!-- collectCommand -->
<g id="node14" class="node">
<title>collectCommand</title>
<g id="a_node14"><a xlink:href="collectCommand.md" xlink:title="collectCommand.md">
<ellipse fill="#eee8aa" stroke="#000000" cx="345" cy="-620" rx="127.4982" ry="22.7556"/>
<text text-anchor="middle" x="345" y="-612.8" font-family="Times,serif" font-size="24.00" fill="#000000">collectCommand</text>
</a>
</g>
</g>
<!-- collectCommand&#45;&gt;parseCmdLine -->
<g id="edge25" class="edge">
<title>collectCommand&#45;&gt;parseCmdLine</title>
<path fill="none" stroke="#000000" d="M388.7531,-598.7441C438.8111,-574.4251 520.7527,-534.6166 574.2856,-508.6095"/>
<polygon fill="#000000" stroke="#000000" points="576.1426,-511.5986 583.6079,-504.0806 573.0837,-505.3022 576.1426,-511.5986"/>
</g>
<!-- collectCommand&#45;&gt;env -->
<g id="edge22" class="edge">
<title>collectCommand&#45;&gt;env</title>
<path fill="none" stroke="#000000" d="M305.5943,-598.2125C254.7251,-567.2072 176.8996,-508.154 214,-454.5083 277.7645,-362.3074 345.2471,-405.4132 450,-365.4917 461.044,-361.2829 473.003,-356.6926 484.0213,-352.4502"/>
<polygon fill="#000000" stroke="#000000" points="485.3428,-355.6919 493.4152,-348.8298 482.8255,-349.1601 485.3428,-355.6919"/>
</g>
<!-- collectCommand&#45;&gt;readlines -->
<g id="edge24" class="edge">
<title>collectCommand&#45;&gt;readlines</title>
<path fill="none" stroke="#000000" d="M343.9957,-597.0693C343.1007,-576.6323 341.7719,-546.2912 340.7097,-522.0378"/>
<polygon fill="#000000" stroke="#000000" points="344.1922,-521.5596 340.2579,-511.7223 337.1989,-521.8659 344.1922,-521.5596"/>
</g>
<!-- collectCommand&#45;&gt;matches -->
<g id="edge23" class="edge">
<title>collectCommand&#45;&gt;matches</title>
<path fill="none" stroke="#000000" d="M314.9709,-597.8606C273.8632,-564.8857 209.2378,-501.6964 247,-454.5083 275.2926,-419.1536 562.8654,-369.636 699.1185,-347.9262"/>
<polygon fill="#000000" stroke="#000000" points="699.7291,-351.3732 709.057,-346.3493 698.632,-344.4597 699.7291,-351.3732"/>
</g>
<!-- statictea -->
<g id="node15" class="node">
<title>statictea</title>
<g id="a_node15"><a xlink:href="statictea.md" xlink:title="statictea.md">
<polygon fill="#eee8aa" stroke="#000000" points="835.0958,-894.3667 918,-875.0619 1000.9042,-894.3667 1000.8268,-925.6024 835.1732,-925.6024 835.0958,-894.3667"/>
<text text-anchor="middle" x="918" y="-895.8" font-family="Times,serif" font-size="24.00" fill="#000000">statictea</text>
</a>
</g>
</g>
<!-- statictea&#45;&gt;env -->
<g id="edge76" class="edge">
<title>statictea&#45;&gt;env</title>
<path fill="none" stroke="#000000" d="M851.5988,-890.3983C682.2035,-856.7659 241.462,-759.4453 158,-642.6274 135.153,-610.6495 103.1057,-534.5043 165,-454.5083 246.205,-349.5539 324.6812,-409.1366 450,-365.4917 461.1613,-361.6046 473.1589,-357.1203 484.1767,-352.8765"/>
<polygon fill="#000000" stroke="#000000" points="485.5077,-356.1144 493.5611,-349.2301 482.9724,-349.5896 485.5077,-356.1144"/>
</g>
<!-- statictea&#45;&gt;warnings -->
<g id="edge73" class="edge">
<title>statictea&#45;&gt;warnings</title>
<path fill="none" stroke="#000000" d="M1000.7541,-894.3282C1292.1159,-862.6998 2253,-748.6408 2253,-620 2253,-620 2253,-620 2253,-337 2253,-239.4889 2201.8094,-215.5708 2120,-162.5083 2053.7964,-119.5678 1839.8926,-79.7352 1714.6666,-59.3073"/>
<polygon fill="#000000" stroke="#000000" points="1715.1238,-55.8358 1704.6926,-57.6907 1714.0037,-62.7456 1715.1238,-55.8358"/>
</g>
<!-- gethelp -->
<g id="node16" class="node">
<title>gethelp</title>
<g id="a_node16"><a xlink:href="gethelp.md" xlink:title="gethelp.md">
<polygon fill="#98fb98" stroke="#000000" points="771.1349,-746.8581 771.1349,-767.1419 732.394,-781.4846 677.606,-781.4846 638.8651,-767.1419 638.8651,-746.8581 677.606,-732.5154 732.394,-732.5154 771.1349,-746.8581"/>
<polygon fill="none" stroke="#000000" points="775.1242,-744.0722 775.1242,-769.9278 733.1071,-785.4835 676.8929,-785.4835 634.8758,-769.9278 634.8758,-744.0722 676.8929,-728.5165 733.1071,-728.5165 775.1242,-744.0722"/>
<text text-anchor="middle" x="705" y="-749.8" font-family="Times,serif" font-size="24.00" fill="#000000">gethelp</text>
</a>
</g>
</g>
<!-- statictea&#45;&gt;gethelp -->
<g id="edge74" class="edge">
<title>statictea&#45;&gt;gethelp</title>
<path fill="none" stroke="#000000" d="M887.4823,-882.0818C851.5379,-857.4438 791.4991,-816.2904 750.1633,-787.957"/>
<polygon fill="#000000" stroke="#000000" points="752.1275,-785.0601 741.9004,-782.2932 748.1699,-790.8339 752.1275,-785.0601"/>
</g>
<!-- statictea&#45;&gt;args -->
<g id="edge72" class="edge">
<title>statictea&#45;&gt;args</title>
<path fill="none" stroke="#000000" d="M834.9145,-895.3437C608.9405,-872.2434 0,-793.8643 0,-620 0,-620 0,-620 0,-483 0,-289.4001 290.461,-219.9111 416.1527,-198.9042"/>
<polygon fill="#000000" stroke="#000000" points="417.0438,-202.3054 426.3525,-197.2458 415.9203,-195.3961 417.0438,-202.3054"/>
</g>
<!-- statictea&#45;&gt;version -->
<g id="edge75" class="edge">
<title>statictea&#45;&gt;version</title>
<path fill="none" stroke="#000000" d="M985.3243,-890.6807C1145.0904,-860.2033 1558.0657,-774.0947 1883,-642.6274 1994.5947,-597.4766 2058.8618,-615.1936 2120,-511.4917 2147.0058,-465.6849 2109.4509,-409.0221 2077.4521,-372.9376"/>
<polygon fill="#000000" stroke="#000000" points="2079.6429,-370.1459 2070.3175,-365.1171 2074.4715,-374.8637 2079.6429,-370.1459"/>
</g>
<!-- parseCommandLine -->
<g id="node21" class="node">
<title>parseCommandLine</title>
<g id="a_node21"><a xlink:href="parseCommandLine.md" xlink:title="parseCommandLine.md">
<ellipse fill="#eee8aa" stroke="#000000" cx="1415" cy="-483" rx="148.8522" ry="22.7556"/>
<text text-anchor="middle" x="1415" y="-475.8" font-family="Times,serif" font-size="24.00" fill="#000000">parseCommandLine</text>
</a>
</g>
</g>
<!-- statictea&#45;&gt;parseCommandLine -->
<g id="edge9" class="edge">
<title>statictea&#45;&gt;parseCommandLine</title>
<path fill="none" stroke="#000000" d="M955.4452,-883.7412C1028.2493,-845.0676 1191.5064,-752.2213 1303,-642.6274 1342.7232,-603.581 1377.6493,-548.7886 1397.5363,-514.6188"/>
<polygon fill="#000000" stroke="#000000" points="1400.7945,-515.9732 1402.7381,-505.5582 1394.7238,-512.4879 1400.7945,-515.9732"/>
</g>
<!-- processTemplate -->
<g id="node22" class="node">
<title>processTemplate</title>
<g id="a_node22"><a xlink:href="processTemplate.md" xlink:title="processTemplate.md">
<ellipse fill="#eee8aa" stroke="#000000" cx="918" cy="-757" rx="125.2054" ry="22.7556"/>
<text text-anchor="middle" x="918" y="-749.8" font-family="Times,serif" font-size="24.00" fill="#000000">processTemplate</text>
</a>
</g>
</g>
<!-- statictea&#45;&gt;processTemplate -->
<g id="edge71" class="edge">
<title>statictea&#45;&gt;processTemplate</title>
<path fill="none" stroke="#000000" d="M918,-874.8497C918,-850.633 918,-815.6651 918,-790.1097"/>
<polygon fill="#000000" stroke="#000000" points="921.5001,-789.7924 918,-779.7925 914.5001,-789.7925 921.5001,-789.7924"/>
</g>
<!-- matches&#45;&gt;regexes -->
<g id="edge14" class="edge">
<title>matches&#45;&gt;regexes</title>
<path fill="none" stroke="#000000" d="M786.5548,-314.8257C803.7719,-291.7643 831.019,-255.2681 851.4805,-227.861"/>
<polygon fill="#000000" stroke="#000000" points="854.4163,-229.7791 857.5941,-219.6721 848.8071,-225.5914 854.4163,-229.7791"/>
</g>
<!-- matches&#45;&gt;args -->
<g id="edge13" class="edge">
<title>matches&#45;&gt;args</title>
<path fill="none" stroke="#000000" d="M731.7805,-318.2119C677.3512,-291.4554 577.6392,-242.4388 519.1575,-213.6902"/>
<polygon fill="#000000" stroke="#000000" points="520.6571,-210.5274 510.1388,-209.2568 517.569,-216.8094 520.6571,-210.5274"/>
</g>
<!-- readjson -->
<g id="node20" class="node">
<title>readjson</title>
<g id="a_node20"><a xlink:href="readjson.md" xlink:title="readjson.md">
<ellipse fill="#eee8aa" stroke="#000000" cx="2042" cy="-483" rx="68.6102" ry="22.7556"/>
<text text-anchor="middle" x="2042" y="-475.8" font-family="Times,serif" font-size="24.00" fill="#000000">readjson</text>
</a>
</g>
</g>
<!-- readjson&#45;&gt;vartypes -->
<g id="edge69" class="edge">
<title>readjson&#45;&gt;vartypes</title>
<path fill="none" stroke="#000000" d="M2018.6902,-461.5285C1962.4717,-409.7437 1819.4007,-277.9559 1756.0252,-219.5784"/>
<polygon fill="#000000" stroke="#000000" points="1758.0704,-216.7037 1748.3439,-212.5029 1753.3278,-221.8524 1758.0704,-216.7037"/>
</g>
<!-- readjson&#45;&gt;tpub -->
<g id="edge68" class="edge">
<title>readjson&#45;&gt;tpub</title>
<path fill="none" stroke="#000000" d="M1998.2154,-465.534C1930.1193,-438.37 1799.1726,-386.1344 1726.9433,-357.3217"/>
<polygon fill="#000000" stroke="#000000" points="1728.1657,-354.0411 1717.5806,-353.5868 1725.572,-360.5429 1728.1657,-354.0411"/>
</g>
<!-- readjson&#45;&gt;warnings -->
<g id="edge67" class="edge">
<title>readjson&#45;&gt;warnings</title>
<path fill="none" stroke="#000000" d="M2026.4511,-460.615C2010.1741,-437.0766 1983.9751,-398.8923 1962,-365.4917 1903.2486,-276.1939 1910.8171,-235.7909 1833,-162.5083 1790.2418,-122.2416 1731.091,-90.953 1686.132,-70.8219"/>
<polygon fill="#000000" stroke="#000000" points="1687.3271,-67.5239 1676.7647,-66.6962 1684.5056,-73.9301 1687.3271,-67.5239"/>
</g>
<!-- parseCommandLine&#45;&gt;regexes -->
<g id="edge8" class="edge">
<title>parseCommandLine&#45;&gt;regexes</title>
<path fill="none" stroke="#000000" d="M1413.8825,-460.3163C1410.7817,-423.0102 1399.0866,-348.8293 1355,-308.5083 1297.8772,-256.2645 1081.639,-218.94 961.2226,-201.7075"/>
<polygon fill="#000000" stroke="#000000" points="961.6919,-198.2392 951.2999,-200.302 960.7101,-205.17 961.6919,-198.2392"/>
</g>
<!-- parseCommandLine&#45;&gt;env -->
<g id="edge7" class="edge">
<title>parseCommandLine&#45;&gt;env</title>
<path fill="none" stroke="#000000" d="M1312.89,-466.5064C1173.1589,-443.9021 914.5371,-401.9439 694,-365.4917 651.5902,-358.4819 603.2514,-350.3684 568.989,-344.5967"/>
<polygon fill="#000000" stroke="#000000" points="569.2725,-341.0952 558.8299,-342.8845 568.1091,-347.9979 569.2725,-341.0952"/>
</g>
<!-- parseCommandLine&#45;&gt;tpub -->
<g id="edge1" class="edge">
<title>parseCommandLine&#45;&gt;tpub</title>
<path fill="none" stroke="#000000" d="M1454.0743,-461.1423C1501.6,-434.5571 1581.6362,-389.7859 1631.4928,-361.8968"/>
<polygon fill="#000000" stroke="#000000" points="1633.4176,-364.8305 1640.4363,-356.8939 1630.0002,-358.7213 1633.4176,-364.8305"/>
</g>
<!-- parseCommandLine&#45;&gt;warnings -->
<g id="edge3" class="edge">
<title>parseCommandLine&#45;&gt;warnings</title>
<path fill="none" stroke="#000000" d="M1415.1774,-460.1351C1416.1476,-425.9774 1420.7671,-360.1211 1441,-308.5083 1476.1476,-218.8489 1546.5516,-129.4593 1588.1297,-81.3095"/>
<polygon fill="#000000" stroke="#000000" points="1590.8653,-83.4977 1594.7946,-73.6585 1585.587,-78.8998 1590.8653,-83.4977"/>
</g>
<!-- parseCommandLine&#45;&gt;args -->
<g id="edge2" class="edge">
<title>parseCommandLine&#45;&gt;args</title>
<path fill="none" stroke="#000000" d="M1405.2244,-460.1635C1387.3842,-421.5809 1345.6189,-344.2129 1284,-308.5083 1006.1599,-147.5158 881.1313,-286.0888 567,-219.4917 553.5737,-216.6453 539.2985,-212.7725 526.0352,-208.8"/>
<polygon fill="#000000" stroke="#000000" points="526.7075,-205.3453 516.1207,-205.7581 524.6543,-212.0374 526.7075,-205.3453"/>
</g>
<!-- processTemplate&#45;&gt;parseCmdLine -->
<g id="edge21" class="edge">
<title>processTemplate&#45;&gt;parseCmdLine</title>
<path fill="none" stroke="#000000" d="M894.1862,-734.5774C841.8332,-685.2828 716.741,-567.4984 658.2041,-512.3812"/>
<polygon fill="#000000" stroke="#000000" points="660.4146,-509.6552 650.7347,-505.3481 655.6159,-514.7515 660.4146,-509.6552"/>
</g>
<!-- processTemplate&#45;&gt;env -->
<g id="edge12" class="edge">
<title>processTemplate&#45;&gt;env</title>
<path fill="none" stroke="#000000" d="M839.1684,-739.3149C821.0878,-735.516 801.9142,-731.6911 784,-728.5083 651.3846,-704.9462 272.2368,-744.3932 184,-642.6274 155.7739,-610.0735 136.308,-535.6712 201,-454.5083 274.2532,-362.6045 339.82,-406.3903 450,-365.4917 461.0801,-361.3788 473.051,-356.8202 484.0691,-352.5773"/>
<polygon fill="#000000" stroke="#000000" points="485.3934,-355.8179 493.4601,-348.9492 482.8707,-349.2883 485.3934,-355.8179"/>
</g>
<!-- processTemplate&#45;&gt;variables -->
<g id="edge52" class="edge">
<title>processTemplate&#45;&gt;variables</title>
<path fill="none" stroke="#000000" d="M1042.737,-754.4563C1255.268,-747.9114 1676.242,-724.6744 1796,-642.6274 1839.9106,-612.544 1863.7232,-552.8223 1874.8616,-515.5672"/>
<polygon fill="#000000" stroke="#000000" points="1878.2992,-516.2747 1877.6733,-505.6984 1871.5671,-514.3567 1878.2992,-516.2747"/>
</g>
<!-- processTemplate&#45;&gt;vartypes -->
<g id="edge53" class="edge">
<title>processTemplate&#45;&gt;vartypes</title>
<path fill="none" stroke="#000000" d="M1003.33,-740.4265C1184.4029,-703.6795 1598.7459,-610.7322 1699,-511.4917 1776.577,-434.6991 1750.8127,-288.2349 1734.3157,-223.3357"/>
<polygon fill="#000000" stroke="#000000" points="1737.6948,-222.4232 1731.7649,-213.6433 1730.9254,-224.2048 1737.6948,-222.4232"/>
</g>
<!-- processTemplate&#45;&gt;replacement -->
<g id="edge66" class="edge">
<title>processTemplate&#45;&gt;replacement</title>
<path fill="none" stroke="#000000" d="M961.7531,-735.7441C1012.2489,-711.2124 1095.1885,-670.9191 1148.6837,-644.9303"/>
<polygon fill="#000000" stroke="#000000" points="1150.5223,-647.9283 1157.9876,-640.4103 1147.4634,-641.6319 1150.5223,-647.9283"/>
</g>
<!-- processTemplate&#45;&gt;readlines -->
<g id="edge16" class="edge">
<title>processTemplate&#45;&gt;readlines</title>
<path fill="none" stroke="#000000" d="M873.0486,-735.7277C769.4414,-686.6977 513.8812,-565.759 397.9192,-510.8823"/>
<polygon fill="#000000" stroke="#000000" points="399.3471,-507.6859 388.8109,-506.572 396.3528,-514.0132 399.3471,-507.6859"/>
</g>
<!-- processTemplate&#45;&gt;warnings -->
<g id="edge11" class="edge">
<title>processTemplate&#45;&gt;warnings</title>
<path fill="none" stroke="#000000" d="M1033.6189,-748.194C1254.0044,-730.603 1726.2273,-688.8161 1883,-642.6274 2025.6232,-600.6075 2177,-631.6844 2177,-483 2177,-483 2177,-483 2177,-337 2177,-130.8263 1873.6323,-69.9164 1715.0708,-52.1615"/>
<polygon fill="#000000" stroke="#000000" points="1715.1596,-48.6507 1704.8408,-51.0533 1714.4057,-55.61 1715.1596,-48.6507"/>
</g>
<!-- processTemplate&#45;&gt;collectCommand -->
<g id="edge26" class="edge">
<title>processTemplate&#45;&gt;collectCommand</title>
<path fill="none" stroke="#000000" d="M842.501,-738.9488C736.1565,-713.5226 542.7786,-667.2874 431.0147,-640.5655"/>
<polygon fill="#000000" stroke="#000000" points="431.6627,-637.1218 421.1229,-638.2004 430.0349,-643.9299 431.6627,-637.1218"/>
</g>
<!-- processTemplate&#45;&gt;args -->
<g id="edge10" class="edge">
<title>processTemplate&#45;&gt;args</title>
<path fill="none" stroke="#000000" d="M839.5364,-739.3123C821.3514,-735.4925 802.0405,-731.6593 784,-728.5083 645.68,-704.3484 250.294,-748.4477 158,-642.6274 27.0793,-492.5194 317.9348,-287.5859 430.7279,-216.507"/>
<polygon fill="#000000" stroke="#000000" points="432.8639,-219.2993 439.4879,-211.0305 429.1532,-213.3638 432.8639,-219.2993"/>
</g>
<!-- processTemplate&#45;&gt;matches -->
<g id="edge15" class="edge">
<title>processTemplate&#45;&gt;matches</title>
<path fill="none" stroke="#000000" d="M839.154,-739.3954C821.0741,-735.5925 801.9044,-731.7457 784,-728.5083 656.8664,-705.5204 293.3378,-740.4973 209,-642.6274 177.4035,-605.9613 164.8328,-525.5048 232,-454.5083 264.0699,-420.61 560.1454,-370.0695 698.8841,-347.9878"/>
<polygon fill="#000000" stroke="#000000" points="699.6693,-351.4072 708.9977,-346.3842 698.573,-344.4935 699.6693,-351.4072"/>
</g>
<!-- processTemplate&#45;&gt;readjson -->
<g id="edge70" class="edge">
<title>processTemplate&#45;&gt;readjson</title>
<path fill="none" stroke="#000000" d="M1036.9372,-749.7643C1250.4327,-735.5168 1689.5833,-700.121 1831,-642.6274 1905.0889,-612.5063 1976.0024,-549.5166 2013.7873,-512.3023"/>
<polygon fill="#000000" stroke="#000000" points="2016.7274,-514.3132 2021.3366,-504.7735 2011.7844,-509.3567 2016.7274,-514.3132"/>
</g>
<!-- runCommand -->
<g id="node23" class="node">
<title>runCommand</title>
<g id="a_node23"><a xlink:href="runCommand.md" xlink:title="runCommand.md">
<ellipse fill="#eee8aa" stroke="#000000" cx="918" cy="-620" rx="104.7872" ry="22.7556"/>
<text text-anchor="middle" x="918" y="-612.8" font-family="Times,serif" font-size="24.00" fill="#000000">runCommand</text>
</a>
</g>
</g>
<!-- processTemplate&#45;&gt;runCommand -->
<g id="edge51" class="edge">
<title>processTemplate&#45;&gt;runCommand</title>
<path fill="none" stroke="#000000" d="M918,-734.0693C918,-711.941 918,-678.2016 918,-653.1506"/>
<polygon fill="#000000" stroke="#000000" points="921.5001,-653.0055 918,-643.0055 914.5001,-653.0056 921.5001,-653.0055"/>
</g>
<!-- runCommand&#45;&gt;runFunction -->
<g id="edge50" class="edge">
<title>runCommand&#45;&gt;runFunction</title>
<path fill="none" stroke="#000000" d="M937.8729,-597.6837C958.4327,-574.596 990.6599,-538.4065 1013.4047,-512.8652"/>
<polygon fill="#000000" stroke="#000000" points="1016.099,-515.1025 1020.1356,-505.3068 1010.8713,-510.4472 1016.099,-515.1025"/>
</g>
<!-- runCommand&#45;&gt;parseNumber -->
<g id="edge36" class="edge">
<title>runCommand&#45;&gt;parseNumber</title>
<path fill="none" stroke="#000000" d="M993.0513,-604.1018C1043.9916,-589.1647 1108.1922,-561.3704 1143,-511.4917 1170.7832,-471.6791 1170.5446,-413.7392 1166.4172,-375.7163"/>
<polygon fill="#000000" stroke="#000000" points="1169.8619,-375.0509 1165.17,-365.5517 1162.914,-375.9035 1169.8619,-375.0509"/>
</g>
<!-- runCommand&#45;&gt;regexes -->
<g id="edge31" class="edge">
<title>runCommand&#45;&gt;regexes</title>
<path fill="none" stroke="#000000" d="M915.9307,-597.238C909.6054,-527.6592 890.4752,-317.2267 882.5243,-229.7675"/>
<polygon fill="#000000" stroke="#000000" points="886.0028,-229.3711 881.6117,-219.7291 879.0316,-230.0049 886.0028,-229.3711"/>
</g>
<!-- runCommand&#45;&gt;parseCmdLine -->
<g id="edge27" class="edge">
<title>runCommand&#45;&gt;parseCmdLine</title>
<path fill="none" stroke="#000000" d="M874.1193,-599.3414C822.3371,-574.9628 736.2567,-534.437 680.5827,-508.2262"/>
<polygon fill="#000000" stroke="#000000" points="681.7764,-504.9197 671.238,-503.8268 678.7947,-511.253 681.7764,-504.9197"/>
</g>
<!-- runCommand&#45;&gt;env -->
<g id="edge32" class="edge">
<title>runCommand&#45;&gt;env</title>
<path fill="none" stroke="#000000" d="M826.7967,-608.8594C717.9478,-593.4708 545.7289,-561.7725 507,-511.4917 475.2022,-470.2095 493.5372,-406.1042 509.173,-368.1647"/>
<polygon fill="#000000" stroke="#000000" points="512.527,-369.2248 513.2623,-358.6555 506.0964,-366.4593 512.527,-369.2248"/>
</g>
<!-- runCommand&#45;&gt;variables -->
<g id="edge43" class="edge">
<title>runCommand&#45;&gt;variables</title>
<path fill="none" stroke="#000000" d="M1005.767,-607.5398C1193.2015,-580.9299 1629.8781,-518.9354 1806.663,-493.8375"/>
<polygon fill="#000000" stroke="#000000" points="1807.2523,-497.289 1816.6611,-492.4181 1806.2683,-490.3585 1807.2523,-497.289"/>
</g>
<!-- runCommand&#45;&gt;vartypes -->
<g id="edge34" class="edge">
<title>runCommand&#45;&gt;vartypes</title>
<path fill="none" stroke="#000000" d="M1007.7398,-608.2384C1182.8729,-584.8612 1554.7941,-532.9618 1573,-511.4917 1589.3795,-492.1755 1583.309,-477.6412 1573,-454.5083 1548.9143,-400.461 1498.0857,-419.539 1474,-365.4917 1463.691,-342.3588 1460.4086,-329.8783 1474,-308.5083 1512.994,-247.1971 1593.3258,-217.3301 1652.6561,-203.1446"/>
<polygon fill="#000000" stroke="#000000" points="1653.7641,-206.4816 1662.7302,-200.8371 1652.2012,-199.6583 1653.7641,-206.4816"/>
</g>
<!-- runCommand&#45;&gt;tpub -->
<g id="edge30" class="edge">
<title>runCommand&#45;&gt;tpub</title>
<path fill="none" stroke="#000000" d="M1007.7653,-608.2316C1188.8492,-584.1642 1582.7428,-530.0257 1606,-511.4917 1627.9383,-494.0088 1651.9741,-421.3377 1665.4004,-375.4709"/>
<polygon fill="#000000" stroke="#000000" points="1668.7698,-376.4181 1668.1795,-365.8397 1662.0442,-374.4774 1668.7698,-376.4181"/>
</g>
<!-- runCommand&#45;&gt;readlines -->
<g id="edge28" class="edge">
<title>runCommand&#45;&gt;readlines</title>
<path fill="none" stroke="#000000" d="M841.6681,-604.3994C746.3257,-584.5505 578.4001,-548.3932 436,-511.4917 428.2089,-509.4728 420.0967,-507.2629 412.0284,-504.9954"/>
<polygon fill="#000000" stroke="#000000" points="412.8092,-501.5787 402.2332,-502.2098 410.8944,-508.3117 412.8092,-501.5787"/>
</g>
<!-- runCommand&#45;&gt;warnings -->
<g id="edge35" class="edge">
<title>runCommand&#45;&gt;warnings</title>
<path fill="none" stroke="#000000" d="M827.4806,-608.4085C715.3099,-592.2142 533.1689,-559.3276 486,-511.4917 374.9895,-398.9115 310.7704,-279.6104 417,-162.5083 491.2308,-80.6799 1256.859,-53.9804 1527.1452,-47.0668"/>
<polygon fill="#000000" stroke="#000000" points="1527.415,-50.5612 1537.3235,-46.8098 1527.2383,-43.5634 1527.415,-50.5612"/>
</g>
<!-- runCommand&#45;&gt;matches -->
<g id="edge29" class="edge">
<title>runCommand&#45;&gt;matches</title>
<path fill="none" stroke="#000000" d="M895.2333,-597.7446C875.1441,-577.0203 846.2903,-544.4478 828,-511.4917 802.3388,-465.2547 785.6024,-405.796 776.985,-369.5853"/>
<polygon fill="#000000" stroke="#000000" points="780.3335,-368.5304 774.6697,-359.5766 773.5136,-370.1082 780.3335,-368.5304"/>
</g>
</g>
</svg>
