<?xml version="1.0" encoding="UTF-8" standalone="no"?>
<!DOCTYPE svg PUBLIC "-//W3C//DTD SVG 1.1//EN"
 "http://www.w3.org/Graphics/SVG/1.1/DTD/svg11.dtd">
<!-- Generated by graphviz version 2.40.1 (20161225.0304)
 -->
<!-- Title: statictea Pages: 1 -->
<svg width="635pt" height="1404pt"
 viewBox="0.00 0.00 634.97 1404.49" xmlns="http://www.w3.org/2000/svg" xmlns:xlink="http://www.w3.org/1999/xlink">
<g id="graph0" class="graph" transform="scale(1 1) rotate(0) translate(4 1400.4917)">
<title>statictea</title>
<polygon fill="#ffffff" stroke="transparent" points="-4,4 -4,-1400.4917 630.9693,-1400.4917 630.9693,4 -4,4"/>
<!-- strutils -->
<g id="node1" class="node">
<title>strutils</title>
<ellipse fill="none" stroke="#000000" cx="87.6672" cy="-835" rx="57.5374" ry="22.7556"/>
<text text-anchor="middle" x="87.6672" y="-827.8" font-family="Times,serif" font-size="24.00" fill="#000000">strutils</text>
</g>
<!-- statictea -->
<g id="node2" class="node">
<title>statictea</title>
<ellipse fill="none" stroke="#000000" cx="545.1518" cy="-558" rx="39.154" ry="18"/>
<text text-anchor="middle" x="545.1518" y="-553.8" font-family="Times,serif" font-size="14.00" fill="#000000">statictea</text>
</g>
<!-- strutils&#45;&gt;statictea -->
<g id="edge1" class="edge">
<title>strutils&#45;&gt;statictea</title>
<path fill="none" stroke="#000000" d="M133.3906,-821.2098C147.2421,-816.2716 162.2456,-810.1327 175.3343,-803 316.2969,-726.182 321.1891,-659.6069 463.3343,-585 475.0391,-578.8566 488.413,-573.7371 500.9087,-569.6667"/>
<polygon fill="#000000" stroke="#000000" points="502.1813,-572.9365 510.6931,-566.6277 500.1049,-566.2515 502.1813,-572.9365"/>
</g>
<!-- warnings -->
<g id="node9" class="node">
<title>warnings</title>
<ellipse fill="none" stroke="#000000" cx="545.1518" cy="-1152" rx="42.5542" ry="18"/>
<text text-anchor="middle" x="545.1518" y="-1147.8" font-family="Times,serif" font-size="14.00" fill="#000000">warnings</text>
</g>
<!-- strutils&#45;&gt;warnings -->
<g id="edge6" class="edge">
<title>strutils&#45;&gt;warnings</title>
<path fill="none" stroke="#000000" d="M113.398,-855.2461C195.0163,-919.4162 443.8906,-1114.6769 463.3343,-1125 474.2749,-1130.8086 486.6989,-1135.6846 498.5018,-1139.6235"/>
<polygon fill="#000000" stroke="#000000" points="497.6335,-1143.02 508.2238,-1142.7117 499.7527,-1136.3485 497.6335,-1143.02"/>
</g>
<!-- cmdline -->
<g id="node10" class="node">
<title>cmdline</title>
<ellipse fill="none" stroke="#000000" cx="545.1518" cy="-828" rx="38.6869" ry="18"/>
<text text-anchor="middle" x="545.1518" y="-823.8" font-family="Times,serif" font-size="14.00" fill="#000000">cmdline</text>
</g>
<!-- strutils&#45;&gt;cmdline -->
<g id="edge9" class="edge">
<title>strutils&#45;&gt;cmdline</title>
<path fill="none" stroke="#000000" d="M145.1447,-834.1205C236.0271,-832.7299 411.3069,-830.048 496.4127,-828.7458"/>
<polygon fill="#000000" stroke="#000000" points="496.6332,-832.2429 506.5785,-828.5902 496.526,-825.2437 496.6332,-832.2429"/>
</g>
<!-- matches -->
<g id="node11" class="node">
<title>matches</title>
<ellipse fill="none" stroke="#000000" cx="545.1518" cy="-936" rx="39.1627" ry="18"/>
<text text-anchor="middle" x="545.1518" y="-931.8" font-family="Times,serif" font-size="14.00" fill="#000000">matches</text>
</g>
<!-- strutils&#45;&gt;matches -->
<g id="edge10" class="edge">
<title>strutils&#45;&gt;matches</title>
<path fill="none" stroke="#000000" d="M137.9347,-846.0977C227.5994,-865.8932 413.7706,-906.9946 499.7811,-925.9834"/>
<polygon fill="#000000" stroke="#000000" points="499.241,-929.4484 509.7604,-928.1866 500.7501,-922.613 499.241,-929.4484"/>
</g>
<!-- processTemplate -->
<g id="node14" class="node">
<title>processTemplate</title>
<ellipse fill="none" stroke="#000000" cx="545.1518" cy="-666" rx="69.306" ry="18"/>
<text text-anchor="middle" x="545.1518" y="-661.8" font-family="Times,serif" font-size="14.00" fill="#000000">processTemplate</text>
</g>
<!-- strutils&#45;&gt;processTemplate -->
<g id="edge18" class="edge">
<title>strutils&#45;&gt;processTemplate</title>
<path fill="none" stroke="#000000" d="M130.0748,-819.6643C144.4593,-814.4243 160.6114,-808.4984 175.3343,-803 303.6939,-755.0632 334.2416,-738.9261 463.3343,-693 472.434,-689.7627 482.1484,-686.4408 491.5885,-683.2828"/>
<polygon fill="#000000" stroke="#000000" points="492.902,-686.5347 501.2896,-680.0618 490.6961,-679.8913 492.902,-686.5347"/>
</g>
<!-- env -->
<g id="node16" class="node">
<title>env</title>
<ellipse fill="none" stroke="#000000" cx="545.1518" cy="-342" rx="27" ry="18"/>
<text text-anchor="middle" x="545.1518" y="-337.8" font-family="Times,serif" font-size="14.00" fill="#000000">env</text>
</g>
<!-- strutils&#45;&gt;env -->
<g id="edge24" class="edge">
<title>strutils&#45;&gt;env</title>
<path fill="none" stroke="#000000" d="M136.9109,-823.1467C150.2776,-818.3648 164.1361,-811.8255 175.3343,-803 357.1504,-659.7065 279.3022,-509.4362 463.3343,-369 476.474,-358.973 493.5141,-352.5717 508.6394,-348.5342"/>
<polygon fill="#000000" stroke="#000000" points="509.832,-351.8471 518.7334,-346.1012 508.1917,-345.042 509.832,-351.8471"/>
</g>
<!-- tempFile -->
<g id="node18" class="node">
<title>tempFile</title>
<ellipse fill="none" stroke="#000000" cx="545.1518" cy="-396" rx="41.5938" ry="18"/>
<text text-anchor="middle" x="545.1518" y="-391.8" font-family="Times,serif" font-size="14.00" fill="#000000">tempFile</text>
</g>
<!-- strutils&#45;&gt;tempFile -->
<g id="edge27" class="edge">
<title>strutils&#45;&gt;tempFile</title>
<path fill="none" stroke="#000000" d="M136.5608,-822.6879C149.9219,-817.8987 163.8652,-811.4704 175.3343,-803 345.7985,-677.1055 290.9246,-546.2166 463.3343,-423 473.4122,-415.7976 485.5316,-410.4296 497.3172,-406.4629"/>
<polygon fill="#000000" stroke="#000000" points="498.5615,-409.7419 507.0864,-403.4509 496.499,-403.0526 498.5615,-409.7419"/>
</g>
<!-- runCommand -->
<g id="node22" class="node">
<title>runCommand</title>
<ellipse fill="none" stroke="#000000" cx="545.1518" cy="-1098" rx="58.9841" ry="18"/>
<text text-anchor="middle" x="545.1518" y="-1093.8" font-family="Times,serif" font-size="14.00" fill="#000000">runCommand</text>
</g>
<!-- strutils&#45;&gt;runCommand -->
<g id="edge35" class="edge">
<title>strutils&#45;&gt;runCommand</title>
<path fill="none" stroke="#000000" d="M114.6193,-855.1834C174.574,-899.3321 324.6487,-1005.7384 463.3343,-1071 472.3684,-1075.2512 482.2539,-1079.1211 491.9325,-1082.5195"/>
<polygon fill="#000000" stroke="#000000" points="490.9087,-1085.868 501.503,-1085.7574 493.1521,-1079.2372 490.9087,-1085.868"/>
</g>
<!-- vartypes -->
<g id="node23" class="node">
<title>vartypes</title>
<ellipse fill="none" stroke="#000000" cx="545.1518" cy="-1314" rx="40.1317" ry="18"/>
<text text-anchor="middle" x="545.1518" y="-1309.8" font-family="Times,serif" font-size="14.00" fill="#000000">vartypes</text>
</g>
<!-- strutils&#45;&gt;vartypes -->
<g id="edge38" class="edge">
<title>strutils&#45;&gt;vartypes</title>
<path fill="none" stroke="#000000" d="M116.4585,-854.7261C134.362,-867.6802 157.3209,-885.5849 175.3343,-904 324.2628,-1056.2495 290.2932,-1162.8373 463.3343,-1287 473.7869,-1294.5001 486.4511,-1300.0082 498.661,-1304.0162"/>
<polygon fill="#000000" stroke="#000000" points="497.7204,-1307.3882 508.3049,-1306.9184 499.7377,-1300.6851 497.7204,-1307.3882"/>
</g>
<!-- variables -->
<g id="node26" class="node">
<title>variables</title>
<ellipse fill="none" stroke="#000000" cx="545.1518" cy="-1044" rx="42.0524" ry="18"/>
<text text-anchor="middle" x="545.1518" y="-1039.8" font-family="Times,serif" font-size="14.00" fill="#000000">variables</text>
</g>
<!-- strutils&#45;&gt;variables -->
<g id="edge41" class="edge">
<title>strutils&#45;&gt;variables</title>
<path fill="none" stroke="#000000" d="M121.676,-853.3691C186.776,-888.1026 334.0372,-964.6137 463.3343,-1017 475.3672,-1021.8753 488.6459,-1026.5484 500.9424,-1030.596"/>
<polygon fill="#000000" stroke="#000000" points="499.9591,-1033.9564 510.5508,-1033.7 502.1109,-1027.2953 499.9591,-1033.9564"/>
</g>
<!-- runFunction -->
<g id="node27" class="node">
<title>runFunction</title>
<ellipse fill="none" stroke="#000000" cx="545.1518" cy="-612" rx="53.1797" ry="18"/>
<text text-anchor="middle" x="545.1518" y="-607.8" font-family="Times,serif" font-size="14.00" fill="#000000">runFunction</text>
</g>
<!-- strutils&#45;&gt;runFunction -->
<g id="edge46" class="edge">
<title>strutils&#45;&gt;runFunction</title>
<path fill="none" stroke="#000000" d="M131.953,-820.4658C146.0244,-815.4167 161.515,-809.4018 175.3343,-803 308.9879,-741.0847 328.7299,-698.8202 463.3343,-639 473.2763,-634.5817 484.1734,-630.4944 494.6804,-626.9069"/>
<polygon fill="#000000" stroke="#000000" points="495.7906,-630.2262 504.1815,-623.7575 493.5881,-623.5817 495.7906,-630.2262"/>
</g>
<!-- unicodes -->
<g id="node31" class="node">
<title>unicodes</title>
<ellipse fill="none" stroke="#000000" cx="545.1518" cy="-774" rx="41.5852" ry="18"/>
<text text-anchor="middle" x="545.1518" y="-769.8" font-family="Times,serif" font-size="14.00" fill="#000000">unicodes</text>
</g>
<!-- strutils&#45;&gt;unicodes -->
<g id="edge51" class="edge">
<title>strutils&#45;&gt;unicodes</title>
<path fill="none" stroke="#000000" d="M142.3961,-827.7026C232.077,-815.7447 408.9687,-792.1584 495.3404,-780.6417"/>
<polygon fill="#000000" stroke="#000000" points="495.9632,-784.0898 505.4128,-779.2987 495.038,-777.1512 495.9632,-784.0898"/>
</g>
<!-- signatures -->
<g id="node32" class="node">
<title>signatures</title>
<ellipse fill="none" stroke="#000000" cx="545.1518" cy="-990" rx="45.9286" ry="18"/>
<text text-anchor="middle" x="545.1518" y="-985.8" font-family="Times,serif" font-size="14.00" fill="#000000">signatures</text>
</g>
<!-- strutils&#45;&gt;signatures -->
<g id="edge53" class="edge">
<title>strutils&#45;&gt;signatures</title>
<path fill="none" stroke="#000000" d="M131.0057,-849.9181C200.8822,-873.937 342.8072,-922.5805 463.3343,-963 475.1893,-966.9756 488.026,-971.2338 499.9393,-975.1661"/>
<polygon fill="#000000" stroke="#000000" points="499.0944,-978.5728 509.6874,-978.3792 501.2857,-971.9246 499.0944,-978.5728"/>
</g>
<!-- replacement -->
<g id="node33" class="node">
<title>replacement</title>
<ellipse fill="none" stroke="#000000" cx="545.1518" cy="-180" rx="53.1281" ry="18"/>
<text text-anchor="middle" x="545.1518" y="-175.8" font-family="Times,serif" font-size="14.00" fill="#000000">replacement</text>
</g>
<!-- strutils&#45;&gt;replacement -->
<g id="edge58" class="edge">
<title>strutils&#45;&gt;replacement</title>
<path fill="none" stroke="#000000" d="M138.1737,-823.9383C151.4071,-819.1806 164.8806,-812.456 175.3343,-803 393.5122,-605.6462 242.1005,-400.9219 463.3343,-207 470.5974,-200.6336 479.4017,-195.761 488.5077,-192.0338"/>
<polygon fill="#000000" stroke="#000000" points="489.8604,-195.2659 498.0544,-188.5495 487.4604,-188.6902 489.8604,-195.2659"/>
</g>
<!-- startingvars -->
<g id="node36" class="node">
<title>startingvars</title>
<ellipse fill="none" stroke="#000000" cx="545.1518" cy="-882" rx="51.2329" ry="18"/>
<text text-anchor="middle" x="545.1518" y="-877.8" font-family="Times,serif" font-size="14.00" fill="#000000">startingvars</text>
</g>
<!-- strutils&#45;&gt;startingvars -->
<g id="edge65" class="edge">
<title>strutils&#45;&gt;startingvars</title>
<path fill="none" stroke="#000000" d="M143.7638,-840.7631C230.5184,-849.6759 396.4858,-866.7267 485.405,-875.8619"/>
<polygon fill="#000000" stroke="#000000" points="485.2895,-879.3683 495.5949,-876.9087 486.0049,-872.405 485.2895,-879.3683"/>
</g>
<!-- codefile -->
<g id="node37" class="node">
<title>codefile</title>
<ellipse fill="none" stroke="#000000" cx="545.1518" cy="-450" rx="38.2024" ry="18"/>
<text text-anchor="middle" x="545.1518" y="-445.8" font-family="Times,serif" font-size="14.00" fill="#000000">codefile</text>
</g>
<!-- strutils&#45;&gt;codefile -->
<g id="edge69" class="edge">
<title>strutils&#45;&gt;codefile</title>
<path fill="none" stroke="#000000" d="M135.7057,-822.2872C149.1961,-817.4689 163.4216,-811.1255 175.3343,-803 335.0498,-694.0609 301.9367,-583.4312 463.3343,-477 474.3699,-469.7227 487.5367,-464.2522 500.048,-460.2083"/>
<polygon fill="#000000" stroke="#000000" points="501.3112,-463.4837 509.8881,-457.2637 499.3044,-456.7775 501.3112,-463.4837"/>
</g>
<!-- repl -->
<g id="node40" class="node">
<title>repl</title>
<ellipse fill="none" stroke="#000000" cx="545.1518" cy="-1260" rx="27" ry="18"/>
<text text-anchor="middle" x="545.1518" y="-1255.8" font-family="Times,serif" font-size="14.00" fill="#000000">repl</text>
</g>
<!-- strutils&#45;&gt;repl -->
<g id="edge77" class="edge">
<title>strutils&#45;&gt;repl</title>
<path fill="none" stroke="#000000" d="M115.5945,-854.9027C133.3717,-868.0656 156.5089,-886.1332 175.3343,-904 316.2897,-1037.7778 301.3442,-1125.6494 463.3343,-1233 477.0107,-1242.0633 493.9877,-1248.3167 508.9261,-1252.5043"/>
<polygon fill="#000000" stroke="#000000" points="508.3186,-1255.9624 518.8768,-1255.0824 510.0743,-1249.1861 508.3186,-1255.9624"/>
</g>
<!-- options -->
<g id="node3" class="node">
<title>options</title>
<ellipse fill="none" stroke="#000000" cx="87.6672" cy="-677" rx="61.0788" ry="22.7556"/>
<text text-anchor="middle" x="87.6672" y="-669.8" font-family="Times,serif" font-size="24.00" fill="#000000">options</text>
</g>
<!-- parseCommandLine -->
<g id="node4" class="node">
<title>parseCommandLine</title>
<ellipse fill="none" stroke="#000000" cx="545.1518" cy="-720" rx="81.6354" ry="18"/>
<text text-anchor="middle" x="545.1518" y="-715.8" font-family="Times,serif" font-size="14.00" fill="#000000">parseCommandLine</text>
</g>
<!-- options&#45;&gt;parseCommandLine -->
<g id="edge2" class="edge">
<title>options&#45;&gt;parseCommandLine</title>
<path fill="none" stroke="#000000" d="M147.4753,-682.6215C227.1982,-690.1148 368.7783,-703.4223 459.7304,-711.9711"/>
<polygon fill="#000000" stroke="#000000" points="459.456,-715.4606 469.7397,-712.9118 460.1111,-708.4913 459.456,-715.4606"/>
</g>
<!-- options&#45;&gt;matches -->
<g id="edge12" class="edge">
<title>options&#45;&gt;matches</title>
<path fill="none" stroke="#000000" d="M120.6632,-696.3274C137.1408,-706.0411 157.3485,-718.0473 175.3343,-729 304.2549,-807.5079 326.6827,-844.8882 463.3343,-909 475.4086,-914.6648 488.9973,-919.6589 501.5808,-923.7623"/>
<polygon fill="#000000" stroke="#000000" points="500.8193,-927.192 511.4089,-926.8581 502.9224,-920.5153 500.8193,-927.192"/>
</g>
<!-- regexes -->
<g id="node13" class="node">
<title>regexes</title>
<ellipse fill="none" stroke="#000000" cx="545.1518" cy="-1368" rx="37.2248" ry="18"/>
<text text-anchor="middle" x="545.1518" y="-1363.8" font-family="Times,serif" font-size="14.00" fill="#000000">regexes</text>
</g>
<!-- options&#45;&gt;regexes -->
<g id="edge14" class="edge">
<title>options&#45;&gt;regexes</title>
<path fill="none" stroke="#000000" d="M127.9118,-694.3915C144.2158,-702.9676 162.2429,-714.5942 175.3343,-729 377.5082,-951.4718 238.2964,-1141.6864 463.3343,-1341 473.5065,-1350.0094 486.7621,-1356.0246 499.6319,-1360.0362"/>
<polygon fill="#000000" stroke="#000000" points="498.7691,-1363.429 509.3408,-1362.7297 500.6405,-1356.6837 498.7691,-1363.429"/>
</g>
<!-- options&#45;&gt;processTemplate -->
<g id="edge16" class="edge">
<title>options&#45;&gt;processTemplate</title>
<path fill="none" stroke="#000000" d="M148.8909,-675.5279C230.5939,-673.5634 375.416,-670.0812 465.524,-667.9146"/>
<polygon fill="#000000" stroke="#000000" points="465.7786,-671.4096 475.6916,-667.6701 465.6103,-664.4116 465.7786,-671.4096"/>
</g>
<!-- options&#45;&gt;env -->
<g id="edge23" class="edge">
<title>options&#45;&gt;env</title>
<path fill="none" stroke="#000000" d="M136.654,-663.1533C149.7326,-658.3953 163.507,-652.3667 175.3343,-645 325.8191,-551.2694 311.4038,-460.3687 463.3343,-369 477.3945,-360.5444 494.4264,-354.3779 509.3023,-350.0912"/>
<polygon fill="#000000" stroke="#000000" points="510.4525,-353.406 519.1934,-347.4188 508.6267,-346.6483 510.4525,-353.406"/>
</g>
<!-- options&#45;&gt;tempFile -->
<g id="edge28" class="edge">
<title>options&#45;&gt;tempFile</title>
<path fill="none" stroke="#000000" d="M135.2424,-662.6298C148.5826,-657.8079 162.8447,-651.8775 175.3343,-645 316.904,-567.044 320.5643,-498.7353 463.3343,-423 474.4835,-417.0857 487.1711,-412.137 499.172,-408.1598"/>
<polygon fill="#000000" stroke="#000000" points="500.5577,-411.3929 509.0423,-405.0477 498.4527,-404.7168 500.5577,-411.3929"/>
</g>
<!-- readlines -->
<g id="node20" class="node">
<title>readlines</title>
<ellipse fill="none" stroke="#000000" cx="545.1518" cy="-288" rx="42.0524" ry="18"/>
<text text-anchor="middle" x="545.1518" y="-283.8" font-family="Times,serif" font-size="14.00" fill="#000000">readlines</text>
</g>
<!-- options&#45;&gt;readlines -->
<g id="edge31" class="edge">
<title>options&#45;&gt;readlines</title>
<path fill="none" stroke="#000000" d="M137.5602,-663.6743C150.5015,-658.941 163.9805,-652.7946 175.3343,-645 335.8211,-534.8224 301.1462,-422.6575 463.3343,-315 473.6546,-308.1496 485.8597,-302.9058 497.6501,-298.9461"/>
<polygon fill="#000000" stroke="#000000" points="498.8949,-302.2244 507.406,-295.9149 496.8178,-295.5397 498.8949,-302.2244"/>
</g>
<!-- parseCmdLine -->
<g id="node21" class="node">
<title>parseCmdLine</title>
<ellipse fill="none" stroke="#000000" cx="545.1518" cy="-1206" rx="62.3407" ry="18"/>
<text text-anchor="middle" x="545.1518" y="-1201.8" font-family="Times,serif" font-size="14.00" fill="#000000">parseCmdLine</text>
</g>
<!-- options&#45;&gt;parseCmdLine -->
<g id="edge32" class="edge">
<title>options&#45;&gt;parseCmdLine</title>
<path fill="none" stroke="#000000" d="M126.15,-694.7744C142.5226,-703.5504 161.084,-715.2253 175.3343,-729 346.0644,-894.031 275.7651,-1033.3916 463.3343,-1179 469.9584,-1184.1422 477.6051,-1188.3271 485.5087,-1191.7273"/>
<polygon fill="#000000" stroke="#000000" points="484.2707,-1195.0012 494.8591,-1195.3688 486.811,-1188.4783 484.2707,-1195.0012"/>
</g>
<!-- options&#45;&gt;runCommand -->
<g id="edge34" class="edge">
<title>options&#45;&gt;runCommand</title>
<path fill="none" stroke="#000000" d="M124.4592,-695.2082C140.8778,-704.2171 159.9456,-715.9556 175.3343,-729 326.9183,-857.4923 298.7488,-959.6465 463.3343,-1071 470.8857,-1076.109 479.4794,-1080.3158 488.191,-1083.7603"/>
<polygon fill="#000000" stroke="#000000" points="487.0526,-1087.0706 497.6466,-1087.2055 489.449,-1080.4935 487.0526,-1087.0706"/>
</g>
<!-- parseNumber -->
<g id="node24" class="node">
<title>parseNumber</title>
<ellipse fill="none" stroke="#000000" cx="545.1518" cy="-72" rx="57.9892" ry="18"/>
<text text-anchor="middle" x="545.1518" y="-67.8" font-family="Times,serif" font-size="14.00" fill="#000000">parseNumber</text>
</g>
<!-- options&#45;&gt;parseNumber -->
<g id="edge39" class="edge">
<title>options&#45;&gt;parseNumber</title>
<path fill="none" stroke="#000000" d="M139.7845,-665.0268C152.4269,-660.3171 165.2038,-653.844 175.3343,-645 382.0119,-464.5686 253.8638,-276.1813 463.3343,-99 470.0554,-93.315 478.0102,-88.8169 486.2763,-85.2604"/>
<polygon fill="#000000" stroke="#000000" points="487.6195,-88.4938 495.6922,-81.6321 485.1025,-81.962 487.6195,-88.4938"/>
</g>
<!-- options&#45;&gt;variables -->
<g id="edge42" class="edge">
<title>options&#45;&gt;variables</title>
<path fill="none" stroke="#000000" d="M123.5288,-695.5865C139.9391,-704.7553 159.2624,-716.5166 175.3343,-729 318.2956,-840.0409 309.2075,-922.0636 463.3343,-1017 473.8811,-1023.4964 486.166,-1028.6152 497.961,-1032.5678"/>
<polygon fill="#000000" stroke="#000000" points="497.1156,-1035.9706 507.7046,-1035.6184 499.2071,-1029.2904 497.1156,-1035.9706"/>
</g>
<!-- options&#45;&gt;runFunction -->
<g id="edge44" class="edge">
<title>options&#45;&gt;runFunction</title>
<path fill="none" stroke="#000000" d="M145.1447,-668.8335C232.4031,-656.4357 397.4623,-632.9839 485.8127,-620.431"/>
<polygon fill="#000000" stroke="#000000" points="486.5285,-623.8645 495.9367,-618.9925 485.5438,-616.9341 486.5285,-623.8645"/>
</g>
<!-- options&#45;&gt;signatures -->
<g id="edge54" class="edge">
<title>options&#45;&gt;signatures</title>
<path fill="none" stroke="#000000" d="M122.1158,-695.8704C138.5791,-705.2796 158.3503,-717.1588 175.3343,-729 310.6233,-823.3233 318.6419,-883.8539 463.3343,-963 473.5856,-968.6074 485.1989,-973.3067 496.3886,-977.13"/>
<polygon fill="#000000" stroke="#000000" points="495.476,-980.5134 506.0679,-980.2652 497.633,-973.854 495.476,-980.5134"/>
</g>
<!-- options&#45;&gt;replacement -->
<g id="edge55" class="edge">
<title>options&#45;&gt;replacement</title>
<path fill="none" stroke="#000000" d="M139.2176,-664.345C151.8676,-659.6444 164.79,-653.3464 175.3343,-645 358.0108,-500.4026 278.4216,-348.7264 463.3343,-207 471.0882,-201.0571 480.211,-196.3891 489.4997,-192.7324"/>
<polygon fill="#000000" stroke="#000000" points="490.9459,-195.9326 499.1891,-189.2767 488.5945,-189.3394 490.9459,-195.9326"/>
</g>
<!-- options&#45;&gt;codefile -->
<g id="edge66" class="edge">
<title>options&#45;&gt;codefile</title>
<path fill="none" stroke="#000000" d="M133.7974,-661.9029C147.3814,-656.9935 162.1352,-651.1983 175.3343,-645 309.4669,-582.0115 328.2342,-537.8858 463.3343,-477 475.6012,-471.4717 489.3492,-466.4948 502.0229,-462.3644"/>
<polygon fill="#000000" stroke="#000000" points="503.4283,-465.5909 511.9079,-459.239 501.3179,-458.9166 503.4283,-465.5909"/>
</g>
<!-- updateTemplate -->
<g id="node38" class="node">
<title>updateTemplate</title>
<ellipse fill="none" stroke="#000000" cx="545.1518" cy="-504" rx="66.4074" ry="18"/>
<text text-anchor="middle" x="545.1518" y="-499.8" font-family="Times,serif" font-size="14.00" fill="#000000">updateTemplate</text>
</g>
<!-- options&#45;&gt;updateTemplate -->
<g id="edge72" class="edge">
<title>options&#45;&gt;updateTemplate</title>
<path fill="none" stroke="#000000" d="M131.9021,-661.1161C145.8298,-656.0446 161.2505,-650.3567 175.3343,-645 304.0047,-596.0607 333.9153,-577.9236 463.3343,-531 472.6153,-527.635 482.549,-524.2104 492.1819,-520.9807"/>
<polygon fill="#000000" stroke="#000000" points="493.2929,-524.2998 501.6793,-517.8254 491.0858,-517.6568 493.2929,-524.2998"/>
</g>
<!-- options&#45;&gt;repl -->
<g id="edge76" class="edge">
<title>options&#45;&gt;repl</title>
<path fill="none" stroke="#000000" d="M126.9229,-694.6734C143.2466,-703.3626 161.558,-714.9984 175.3343,-729 356.2766,-912.9018 263.5729,-1069.7353 463.3343,-1233 476.1322,-1243.4597 493.1256,-1249.9202 508.3082,-1253.8851"/>
<polygon fill="#000000" stroke="#000000" points="507.9227,-1257.389 518.4561,-1256.2499 509.5114,-1250.5717 507.9227,-1257.389"/>
</g>
<!-- tables -->
<g id="node5" class="node">
<title>tables</title>
<ellipse fill="none" stroke="#000000" cx="87.6672" cy="-936" rx="50.796" ry="22.7556"/>
<text text-anchor="middle" x="87.6672" y="-928.8" font-family="Times,serif" font-size="24.00" fill="#000000">tables</text>
</g>
<!-- tables&#45;&gt;parseCommandLine -->
<g id="edge3" class="edge">
<title>tables&#45;&gt;parseCommandLine</title>
<path fill="none" stroke="#000000" d="M119.0846,-918.1952C182.6772,-882.6084 331.7898,-801.4475 463.3343,-747 470.9001,-743.8684 478.9714,-740.8416 486.9861,-738.0178"/>
<polygon fill="#000000" stroke="#000000" points="488.3767,-741.2409 496.6963,-734.6808 486.1016,-734.6209 488.3767,-741.2409"/>
</g>
<!-- tables&#45;&gt;cmdline -->
<g id="edge8" class="edge">
<title>tables&#45;&gt;cmdline</title>
<path fill="none" stroke="#000000" d="M132.7846,-925.349C220.6037,-904.6172 413.5225,-859.0742 500.7595,-838.4798"/>
<polygon fill="#000000" stroke="#000000" points="501.6833,-841.8581 510.6116,-836.154 500.0749,-835.0453 501.6833,-841.8581"/>
</g>
<!-- tables&#45;&gt;matches -->
<g id="edge11" class="edge">
<title>tables&#45;&gt;matches</title>
<path fill="none" stroke="#000000" d="M138.8148,-936C227.4283,-936 408.376,-936 495.7559,-936"/>
<polygon fill="#000000" stroke="#000000" points="495.9356,-939.5001 505.9356,-936 495.9356,-932.5001 495.9356,-939.5001"/>
</g>
<!-- tables&#45;&gt;regexes -->
<g id="edge15" class="edge">
<title>tables&#45;&gt;regexes</title>
<path fill="none" stroke="#000000" d="M101.9837,-958.0434C146.8971,-1025.4898 292.2563,-1231.1385 463.3343,-1341 474.7681,-1348.3424 488.3899,-1353.8738 501.2071,-1357.9548"/>
<polygon fill="#000000" stroke="#000000" points="500.2198,-1361.3126 510.8021,-1360.7989 502.2091,-1354.6012 500.2198,-1361.3126"/>
</g>
<!-- tables&#45;&gt;processTemplate -->
<g id="edge17" class="edge">
<title>tables&#45;&gt;processTemplate</title>
<path fill="none" stroke="#000000" d="M113.1742,-916.17C171.9888,-871.2142 322.8605,-760.2432 463.3343,-693 471.2744,-689.1992 479.8878,-685.7189 488.4453,-682.6128"/>
<polygon fill="#000000" stroke="#000000" points="489.7531,-685.8635 498.0444,-679.2677 487.4495,-679.2534 489.7531,-685.8635"/>
</g>
<!-- tables&#45;&gt;parseCmdLine -->
<g id="edge33" class="edge">
<title>tables&#45;&gt;parseCmdLine</title>
<path fill="none" stroke="#000000" d="M113.1742,-955.83C171.9888,-1000.7858 322.8605,-1111.7568 463.3343,-1179 471.9459,-1183.1222 481.3494,-1186.8674 490.6146,-1190.1671"/>
<polygon fill="#000000" stroke="#000000" points="489.5862,-1193.5144 500.1808,-1193.4418 491.8533,-1186.8917 489.5862,-1193.5144"/>
</g>
<!-- tables&#45;&gt;runCommand -->
<g id="edge36" class="edge">
<title>tables&#45;&gt;runCommand</title>
<path fill="none" stroke="#000000" d="M127.0296,-950.5298C195.2946,-975.642 340.1532,-1028.5499 463.3343,-1071 473.6202,-1074.5447 484.6658,-1078.2547 495.2092,-1081.7499"/>
<polygon fill="#000000" stroke="#000000" points="494.1213,-1085.0765 504.7145,-1084.8885 496.3162,-1078.4295 494.1213,-1085.0765"/>
</g>
<!-- tables&#45;&gt;vartypes -->
<g id="edge37" class="edge">
<title>tables&#45;&gt;vartypes</title>
<path fill="none" stroke="#000000" d="M104.7781,-957.5296C154.0214,-1018.122 302.8618,-1191.872 463.3343,-1287 474.4009,-1293.5603 487.2666,-1298.7601 499.4733,-1302.7731"/>
<polygon fill="#000000" stroke="#000000" points="498.487,-1306.1315 509.0746,-1305.7403 500.5539,-1299.4436 498.487,-1306.1315"/>
</g>
<!-- tables&#45;&gt;variables -->
<g id="edge43" class="edge">
<title>tables&#45;&gt;variables</title>
<path fill="none" stroke="#000000" d="M132.7846,-946.651C219.8246,-967.1989 410.1078,-1012.1197 498.413,-1032.9662"/>
<polygon fill="#000000" stroke="#000000" points="497.6199,-1036.3751 508.1565,-1035.2664 499.2282,-1029.5624 497.6199,-1036.3751"/>
</g>
<!-- tables&#45;&gt;runFunction -->
<g id="edge45" class="edge">
<title>tables&#45;&gt;runFunction</title>
<path fill="none" stroke="#000000" d="M113.0019,-916.0906C130.5182,-902.3178 154.3542,-883.561 175.3343,-867 303.4777,-765.8481 319.6119,-716.4359 463.3343,-639 472.515,-634.0535 482.7635,-629.7988 492.8172,-626.2258"/>
<polygon fill="#000000" stroke="#000000" points="493.9984,-629.5212 502.3554,-623.0088 491.7613,-622.8883 493.9984,-629.5212"/>
</g>
<!-- tables&#45;&gt;signatures -->
<g id="edge52" class="edge">
<title>tables&#45;&gt;signatures</title>
<path fill="none" stroke="#000000" d="M137.0607,-941.8303C223.491,-952.0322 401.4718,-973.0405 491.0855,-983.6182"/>
<polygon fill="#000000" stroke="#000000" points="490.7011,-987.097 501.0425,-984.7935 491.5217,-980.1453 490.7011,-987.097"/>
</g>
<!-- readjson -->
<g id="node34" class="node">
<title>readjson</title>
<ellipse fill="none" stroke="#000000" cx="545.1518" cy="-234" rx="40.1317" ry="18"/>
<text text-anchor="middle" x="545.1518" y="-229.8" font-family="Times,serif" font-size="14.00" fill="#000000">readjson</text>
</g>
<!-- tables&#45;&gt;readjson -->
<g id="edge62" class="edge">
<title>tables&#45;&gt;readjson</title>
<path fill="none" stroke="#000000" d="M117.8017,-917.4617C136.2258,-904.968 159.2604,-887.1303 175.3343,-867 361.4052,-633.972 239.725,-458.2899 463.3343,-261 472.8927,-252.5667 485.1538,-246.756 497.2591,-242.7565"/>
<polygon fill="#000000" stroke="#000000" points="498.2763,-246.1057 506.8792,-239.9218 496.2977,-239.3911 498.2763,-246.1057"/>
</g>
<!-- tables&#45;&gt;startingvars -->
<g id="edge64" class="edge">
<title>tables&#45;&gt;startingvars</title>
<path fill="none" stroke="#000000" d="M137.0607,-930.1697C221.9337,-920.1516 395.0878,-899.7131 486.1565,-888.9636"/>
<polygon fill="#000000" stroke="#000000" points="486.7895,-892.4133 496.3102,-887.7651 485.9689,-885.4615 486.7895,-892.4133"/>
</g>
<!-- tables&#45;&gt;updateTemplate -->
<g id="edge73" class="edge">
<title>tables&#45;&gt;updateTemplate</title>
<path fill="none" stroke="#000000" d="M114.8646,-916.7488C132.7689,-903.5668 156.3227,-885.2327 175.3343,-867 317.2881,-730.862 299.9523,-640.5023 463.3343,-531 470.0478,-526.5004 477.5721,-522.6975 485.2659,-519.4975"/>
<polygon fill="#000000" stroke="#000000" points="486.6051,-522.7326 494.6914,-515.887 484.1011,-516.1957 486.6051,-522.7326"/>
</g>
<!-- tables&#45;&gt;repl -->
<g id="edge75" class="edge">
<title>tables&#45;&gt;repl</title>
<path fill="none" stroke="#000000" d="M108.587,-957.046C162.6432,-1010.3576 313.2624,-1152.2069 463.3343,-1233 477.7807,-1240.7774 494.8679,-1246.8469 509.6807,-1251.2442"/>
<polygon fill="#000000" stroke="#000000" points="508.9371,-1254.671 519.512,-1254.0217 510.8403,-1247.9347 508.9371,-1254.671"/>
</g>
<!-- os -->
<g id="node6" class="node">
<title>os</title>
<ellipse fill="none" stroke="#000000" cx="87.6672" cy="-537" rx="27" ry="22.7556"/>
<text text-anchor="middle" x="87.6672" y="-529.8" font-family="Times,serif" font-size="24.00" fill="#000000">os</text>
</g>
<!-- os&#45;&gt;statictea -->
<g id="edge80" class="edge">
<title>os&#45;&gt;statictea</title>
<path fill="none" stroke="#000000" d="M114.9149,-538.2508C189.8959,-541.6926 400.0777,-551.3406 496.1377,-555.7501"/>
<polygon fill="#000000" stroke="#000000" points="496.0216,-559.2484 506.1716,-556.2107 496.3426,-552.2557 496.0216,-559.2484"/>
</g>
<!-- os&#45;&gt;parseCommandLine -->
<g id="edge4" class="edge">
<title>os&#45;&gt;parseCommandLine</title>
<path fill="none" stroke="#000000" d="M112.3094,-546.3251C129.9224,-553.0467 154.1558,-562.4098 175.3343,-571 304.1521,-623.2497 333.2208,-644.0662 463.3343,-693 471.4721,-696.0605 480.1324,-699.1231 488.6583,-702.0291"/>
<polygon fill="#000000" stroke="#000000" points="487.5983,-705.3652 498.1924,-705.2351 489.8295,-698.7303 487.5983,-705.3652"/>
</g>
<!-- os&#45;&gt;cmdline -->
<g id="edge7" class="edge">
<title>os&#45;&gt;cmdline</title>
<path fill="none" stroke="#000000" d="M113.1515,-544.5979C131.1613,-550.5056 155.5228,-559.6058 175.3343,-571 317.3333,-652.668 319.2905,-722.9951 463.3343,-801 474.9583,-807.2948 488.3072,-812.4612 500.8049,-816.5281"/>
<polygon fill="#000000" stroke="#000000" points="500.0083,-819.9452 510.596,-819.5544 502.0755,-813.2574 500.0083,-819.9452"/>
</g>
<!-- os&#45;&gt;env -->
<g id="edge21" class="edge">
<title>os&#45;&gt;env</title>
<path fill="none" stroke="#000000" d="M112.3725,-527.5382C130.0153,-520.6838 154.2582,-511.0662 175.3343,-502 304.8495,-446.2869 332.1778,-420.7311 463.3343,-369 478.5969,-362.9801 495.8009,-357.1621 510.4806,-352.4781"/>
<polygon fill="#000000" stroke="#000000" points="511.6948,-355.7654 520.1853,-349.428 509.5959,-349.0874 511.6948,-355.7654"/>
</g>
<!-- os&#45;&gt;tempFile -->
<g id="edge25" class="edge">
<title>os&#45;&gt;tempFile</title>
<path fill="none" stroke="#000000" d="M113.2438,-529.1171C188.0448,-506.0629 407.0464,-438.565 501.2451,-409.5324"/>
<polygon fill="#000000" stroke="#000000" points="502.5065,-412.8061 511.032,-406.516 500.4447,-406.1166 502.5065,-412.8061"/>
</g>
<!-- os&#45;&gt;runFunction -->
<g id="edge48" class="edge">
<title>os&#45;&gt;runFunction</title>
<path fill="none" stroke="#000000" d="M114.2409,-541.3565C186.3288,-553.1746 386.8633,-586.0502 486.8803,-602.447"/>
<polygon fill="#000000" stroke="#000000" points="486.3856,-605.9125 496.8201,-604.0765 487.5181,-599.0047 486.3856,-605.9125"/>
</g>
<!-- os&#45;&gt;readjson -->
<g id="edge60" class="edge">
<title>os&#45;&gt;readjson</title>
<path fill="none" stroke="#000000" d="M113.221,-529.1993C131.2637,-523.1276 155.6357,-513.7629 175.3343,-502 318.6332,-416.43 317.4886,-342.153 463.3343,-261 474.6793,-254.6873 487.7365,-249.5515 500.0408,-245.5202"/>
<polygon fill="#000000" stroke="#000000" points="501.1868,-248.8292 509.7001,-242.5225 499.112,-242.1438 501.1868,-248.8292"/>
</g>
<!-- os&#45;&gt;startingvars -->
<g id="edge63" class="edge">
<title>os&#45;&gt;startingvars</title>
<path fill="none" stroke="#000000" d="M113.5347,-543.9701C131.7252,-549.5819 156.145,-558.5866 175.3343,-571 326.2724,-668.6409 309.9453,-761.2563 463.3343,-855 472.3293,-860.4973 482.5726,-865.0141 492.6951,-868.6736"/>
<polygon fill="#000000" stroke="#000000" points="491.7243,-872.0399 502.3185,-871.9236 493.9641,-865.4079 491.7243,-872.0399"/>
</g>
<!-- os&#45;&gt;codefile -->
<g id="edge67" class="edge">
<title>os&#45;&gt;codefile</title>
<path fill="none" stroke="#000000" d="M114.2409,-531.9465C189.5871,-517.6178 405.2535,-476.6045 499.805,-458.6236"/>
<polygon fill="#000000" stroke="#000000" points="500.4755,-462.0589 509.6455,-456.7522 499.1677,-455.1822 500.4755,-462.0589"/>
</g>
<!-- os&#45;&gt;updateTemplate -->
<g id="edge71" class="edge">
<title>os&#45;&gt;updateTemplate</title>
<path fill="none" stroke="#000000" d="M114.5769,-535.0589C183.2528,-530.1051 366.9097,-516.8572 470.821,-509.3617"/>
<polygon fill="#000000" stroke="#000000" points="471.207,-512.8431 480.9292,-508.6326 470.7033,-505.8612 471.207,-512.8431"/>
</g>
<!-- strformat -->
<g id="node7" class="node">
<title>strformat</title>
<ellipse fill="none" stroke="#ff0000" cx="87.6672" cy="-132" rx="73.5395" ry="22.7556"/>
<text text-anchor="middle" x="87.6672" y="-124.8" font-family="Times,serif" font-size="24.00" fill="#000000">strformat</text>
</g>
<!-- args -->
<g id="node8" class="node">
<title>args</title>
<ellipse fill="none" stroke="#000000" cx="545.1518" cy="-18" rx="27" ry="18"/>
<text text-anchor="middle" x="545.1518" y="-13.8" font-family="Times,serif" font-size="14.00" fill="#000000">args</text>
</g>
<!-- strformat&#45;&gt;args -->
<g id="edge5" class="edge">
<title>strformat&#45;&gt;args</title>
<path fill="none" stroke="#ff0000" d="M145.1447,-117.6773C241.147,-93.7546 431.3237,-46.3647 509.9063,-26.7828"/>
<polygon fill="#ff0000" stroke="#ff0000" points="510.9405,-30.1322 519.7974,-24.318 509.2479,-23.3399 510.9405,-30.1322"/>
</g>
<!-- strformat&#45;&gt;replacement -->
<g id="edge57" class="edge">
<title>strformat&#45;&gt;replacement</title>
<path fill="none" stroke="#ff0000" d="M157.6472,-139.3424C246.7619,-148.6925 399.3135,-164.6984 483.9883,-173.5826"/>
<polygon fill="#ff0000" stroke="#ff0000" points="483.6585,-177.0672 493.9692,-174.6298 484.3891,-170.1054 483.6585,-177.0672"/>
</g>
<!-- re -->
<g id="node12" class="node">
<title>re</title>
<polygon fill="#98fb98" stroke="#000000" points="114.6672,-1357.8581 114.6672,-1378.1419 98.8509,-1392.4846 76.4834,-1392.4846 60.6672,-1378.1419 60.6672,-1357.8581 76.4834,-1343.5154 98.8509,-1343.5154 114.6672,-1357.8581"/>
<polygon fill="none" stroke="#000000" points="118.6672,-1356.0866 118.6672,-1379.9134 100.3948,-1396.4835 74.9395,-1396.4835 56.6672,-1379.9134 56.6672,-1356.0866 74.9395,-1339.5165 100.3948,-1339.5165 118.6672,-1356.0866"/>
<text text-anchor="middle" x="87.6672" y="-1360.8" font-family="Times,serif" font-size="24.00" fill="#000000">re</text>
</g>
<!-- re&#45;&gt;regexes -->
<g id="edge13" class="edge">
<title>re&#45;&gt;regexes</title>
<path fill="none" stroke="#000000" d="M118.7523,-1368C197.2583,-1368 403.9214,-1368 497.683,-1368"/>
<polygon fill="#000000" stroke="#000000" points="497.739,-1371.5001 507.7389,-1368 497.7389,-1364.5001 497.739,-1371.5001"/>
</g>
<!-- streams -->
<g id="node15" class="node">
<title>streams</title>
<ellipse fill="none" stroke="#000000" cx="87.6672" cy="-396" rx="63.3073" ry="22.7556"/>
<text text-anchor="middle" x="87.6672" y="-388.8" font-family="Times,serif" font-size="24.00" fill="#000000">streams</text>
</g>
<!-- streams&#45;&gt;processTemplate -->
<g id="edge19" class="edge">
<title>streams&#45;&gt;processTemplate</title>
<path fill="none" stroke="#000000" d="M136.0461,-410.8984C149.1222,-415.6606 163.0475,-421.4283 175.3343,-428 315.2544,-502.8374 322.2624,-566.3572 463.3343,-639 470.8853,-642.8883 479.1117,-646.38 487.3425,-649.4597"/>
<polygon fill="#000000" stroke="#000000" points="486.3718,-652.8293 496.9665,-652.885 488.719,-646.2345 486.3718,-652.8293"/>
</g>
<!-- streams&#45;&gt;env -->
<g id="edge20" class="edge">
<title>streams&#45;&gt;env</title>
<path fill="none" stroke="#000000" d="M147.9457,-388.8849C244.1947,-377.524 429.7383,-355.623 508.4311,-346.3344"/>
<polygon fill="#000000" stroke="#000000" points="508.8459,-349.8098 518.3666,-345.1616 508.0252,-342.8581 508.8459,-349.8098"/>
</g>
<!-- streams&#45;&gt;tempFile -->
<g id="edge29" class="edge">
<title>streams&#45;&gt;tempFile</title>
<path fill="none" stroke="#000000" d="M151.2784,-396C242.6067,-396 409.1351,-396 493.3852,-396"/>
<polygon fill="#000000" stroke="#000000" points="493.4864,-399.5001 503.4864,-396 493.4863,-392.5001 493.4864,-399.5001"/>
</g>
<!-- streams&#45;&gt;readlines -->
<g id="edge30" class="edge">
<title>streams&#45;&gt;readlines</title>
<path fill="none" stroke="#000000" d="M140.5934,-383.5055C230.6606,-362.243 412.3041,-319.3618 498.1591,-299.0937"/>
<polygon fill="#000000" stroke="#000000" points="499.2135,-302.4411 508.1418,-296.7371 497.6052,-295.6284 499.2135,-302.4411"/>
</g>
<!-- streams&#45;&gt;replacement -->
<g id="edge56" class="edge">
<title>streams&#45;&gt;replacement</title>
<path fill="none" stroke="#000000" d="M135.0807,-380.8089C148.2836,-376.1557 162.5149,-370.7376 175.3343,-365 308.5931,-305.3573 329.4526,-265.2311 463.3343,-207 473.416,-202.615 484.453,-198.5223 495.0656,-194.9155"/>
<polygon fill="#000000" stroke="#000000" points="496.2575,-198.2079 504.6531,-191.7453 494.0598,-191.5618 496.2575,-198.2079"/>
</g>
<!-- streams&#45;&gt;readjson -->
<g id="edge59" class="edge">
<title>streams&#45;&gt;readjson</title>
<path fill="none" stroke="#000000" d="M132.7368,-380.1275C146.4242,-375.2897 161.5005,-369.9436 175.3343,-365 303.4873,-319.2037 334.7045,-305.4393 463.3343,-261 476.0518,-256.6063 489.9338,-251.9667 502.5917,-247.7965"/>
<polygon fill="#000000" stroke="#000000" points="504.0248,-251.0099 512.435,-244.5664 501.8422,-244.3589 504.0248,-251.0099"/>
</g>
<!-- streams&#45;&gt;codefile -->
<g id="edge68" class="edge">
<title>streams&#45;&gt;codefile</title>
<path fill="none" stroke="#000000" d="M147.9457,-403.1151C240.1804,-414.0022 414.4165,-434.5684 498.0415,-444.4393"/>
<polygon fill="#000000" stroke="#000000" points="497.6785,-447.9206 508.0198,-445.6171 498.4991,-440.9689 497.6785,-447.9206"/>
</g>
<!-- streams&#45;&gt;updateTemplate -->
<g id="edge70" class="edge">
<title>streams&#45;&gt;updateTemplate</title>
<path fill="none" stroke="#000000" d="M140.5934,-408.4945C226.2878,-428.7247 394.8821,-468.5253 484.9982,-489.7993"/>
<polygon fill="#000000" stroke="#000000" points="484.2568,-493.2204 494.7935,-492.1117 485.8652,-486.4077 484.2568,-493.2204"/>
</g>
<!-- times -->
<g id="node17" class="node">
<title>times</title>
<ellipse fill="none" stroke="#ff0000" cx="87.6672" cy="-270" rx="48.1611" ry="22.7556"/>
<text text-anchor="middle" x="87.6672" y="-262.8" font-family="Times,serif" font-size="24.00" fill="#000000">times</text>
</g>
<!-- times&#45;&gt;env -->
<g id="edge22" class="edge">
<title>times&#45;&gt;env</title>
<path fill="none" stroke="#ff0000" d="M133.6272,-277.2333C224.6725,-291.5622 426.2728,-323.2905 508.8274,-336.2832"/>
<polygon fill="#ff0000" stroke="#ff0000" points="508.3261,-339.7473 518.7487,-337.8446 509.4144,-332.8324 508.3261,-339.7473"/>
</g>
<!-- timer -->
<g id="node41" class="node">
<title>timer</title>
<ellipse fill="none" stroke="#000000" cx="545.1518" cy="-126" rx="28.5411" ry="18"/>
<text text-anchor="middle" x="545.1518" y="-121.8" font-family="Times,serif" font-size="14.00" fill="#000000">timer</text>
</g>
<!-- times&#45;&gt;timer -->
<g id="edge78" class="edge">
<title>times&#45;&gt;timer</title>
<path fill="none" stroke="#ff0000" d="M127.8649,-257.3472C216.1774,-229.5495 425.9087,-163.5335 509.6866,-137.1632"/>
<polygon fill="#ff0000" stroke="#ff0000" points="510.7747,-140.4901 519.2625,-134.1491 508.6729,-133.813 510.7747,-140.4901"/>
</g>
<!-- random -->
<g id="node19" class="node">
<title>random</title>
<polygon fill="#98fb98" stroke="#000000" points="155.889,-454.8581 155.889,-475.1419 115.9256,-489.4846 59.4087,-489.4846 19.4453,-475.1419 19.4453,-454.8581 59.4087,-440.5154 115.9256,-440.5154 155.889,-454.8581"/>
<polygon fill="none" stroke="#000000" points="159.8811,-452.0431 159.8811,-477.9569 116.6191,-493.4835 58.7152,-493.4835 15.4532,-477.9569 15.4532,-452.0431 58.7152,-436.5165 116.6191,-436.5165 159.8811,-452.0431"/>
<text text-anchor="middle" x="87.6672" y="-457.8" font-family="Times,serif" font-size="24.00" fill="#000000">random</text>
</g>
<!-- random&#45;&gt;tempFile -->
<g id="edge26" class="edge">
<title>random&#45;&gt;tempFile</title>
<path fill="none" stroke="#000000" d="M159.9045,-454.1048C253.7127,-439.9562 414.9867,-415.6321 495.87,-403.4329"/>
<polygon fill="#000000" stroke="#000000" points="496.4292,-406.8883 505.7953,-401.9359 495.3851,-399.9665 496.4292,-406.8883"/>
</g>
<!-- parseutils -->
<g id="node25" class="node">
<title>parseutils</title>
<polygon fill="#98fb98" stroke="#000000" points="170.4501,-52.8581 170.4501,-73.1419 121.957,-87.4846 53.3774,-87.4846 4.8843,-73.1419 4.8843,-52.8581 53.3774,-38.5154 121.957,-38.5154 170.4501,-52.8581"/>
<polygon fill="none" stroke="#000000" points="174.4567,-49.8724 174.4567,-76.1276 122.5382,-91.4835 52.7962,-91.4835 .8776,-76.1276 .8776,-49.8724 52.7962,-34.5165 122.5382,-34.5165 174.4567,-49.8724"/>
<text text-anchor="middle" x="87.6672" y="-55.8" font-family="Times,serif" font-size="24.00" fill="#000000">parseutils</text>
</g>
<!-- parseutils&#45;&gt;parseNumber -->
<g id="edge40" class="edge">
<title>parseutils&#45;&gt;parseNumber</title>
<path fill="none" stroke="#000000" d="M174.5237,-64.7087C262.4986,-66.4394 396.7505,-69.0805 477.235,-70.6639"/>
<polygon fill="#000000" stroke="#000000" points="477.1921,-74.1636 487.2591,-70.8611 477.3299,-67.165 477.1921,-74.1636"/>
</g>
<!-- math -->
<g id="node28" class="node">
<title>math</title>
<ellipse fill="none" stroke="#ff0000" cx="87.6672" cy="-333" rx="45.4944" ry="22.7556"/>
<text text-anchor="middle" x="87.6672" y="-325.8" font-family="Times,serif" font-size="24.00" fill="#000000">math</text>
</g>
<!-- math&#45;&gt;runFunction -->
<g id="edge47" class="edge">
<title>math&#45;&gt;runFunction</title>
<path fill="none" stroke="#ff0000" d="M127.1994,-344.0502C142.6787,-349.1203 160.2941,-355.838 175.3343,-364 317.142,-440.9558 320.7213,-509.5472 463.3343,-585 472.6523,-589.9299 483.0408,-594.1918 493.2041,-597.7797"/>
<polygon fill="#ff0000" stroke="#ff0000" points="492.243,-601.149 502.837,-601.013 494.4705,-594.5128 492.243,-601.149"/>
</g>
<!-- math&#45;&gt;timer -->
<g id="edge79" class="edge">
<title>math&#45;&gt;timer</title>
<path fill="none" stroke="#ff0000" d="M126.0819,-320.6958C141.5673,-315.406 159.4832,-308.8642 175.3343,-302 307.5826,-244.7308 330.4881,-208.8684 463.3343,-153 478.1222,-146.781 494.8796,-141.0339 509.3609,-136.4549"/>
<polygon fill="#ff0000" stroke="#ff0000" points="510.4529,-139.7808 518.9705,-133.4799 508.3827,-133.0939 510.4529,-139.7808"/>
</g>
<!-- algorithm -->
<g id="node29" class="node">
<title>algorithm</title>
<polygon fill="#98fb98" stroke="#000000" points="171.4941,-597.8581 171.4941,-618.1419 122.3894,-632.4846 52.9449,-632.4846 3.8402,-618.1419 3.8402,-597.8581 52.9449,-583.5154 122.3894,-583.5154 171.4941,-597.8581"/>
<polygon fill="none" stroke="#000000" points="175.5018,-594.8621 175.5018,-621.1379 122.964,-636.4835 52.3704,-636.4835 -.1675,-621.1379 -.1675,-594.8621 52.3704,-579.5165 122.964,-579.5165 175.5018,-594.8621"/>
<text text-anchor="middle" x="87.6672" y="-600.8" font-family="Times,serif" font-size="24.00" fill="#000000">algorithm</text>
</g>
<!-- algorithm&#45;&gt;runFunction -->
<g id="edge49" class="edge">
<title>algorithm&#45;&gt;runFunction</title>
<path fill="none" stroke="#000000" d="M175.604,-608.7689C265.1511,-609.5518 401.8166,-610.7468 481.4387,-611.4429"/>
<polygon fill="#000000" stroke="#000000" points="481.7787,-614.9459 491.8089,-611.5336 481.84,-607.9462 481.7787,-614.9459"/>
</g>
<!-- unicode -->
<g id="node30" class="node">
<title>unicode</title>
<polygon fill="#98fb98" stroke="#000000" points="157.9587,-755.8581 157.9587,-776.1419 116.7829,-790.4846 58.5514,-790.4846 17.3756,-776.1419 17.3756,-755.8581 58.5514,-741.5154 116.7829,-741.5154 157.9587,-755.8581"/>
<polygon fill="none" stroke="#000000" points="161.953,-753.0155 161.953,-778.9845 117.4579,-794.4835 57.8764,-794.4835 13.3814,-778.9845 13.3814,-753.0155 57.8764,-737.5165 117.4579,-737.5165 161.953,-753.0155"/>
<text text-anchor="middle" x="87.6672" y="-758.8" font-family="Times,serif" font-size="24.00" fill="#000000">unicode</text>
</g>
<!-- unicode&#45;&gt;unicodes -->
<g id="edge50" class="edge">
<title>unicode&#45;&gt;unicodes</title>
<path fill="none" stroke="#000000" d="M162.1882,-767.3031C255.2358,-768.9303 412.0115,-771.6718 493.0927,-773.0896"/>
<polygon fill="#000000" stroke="#000000" points="493.4838,-776.5969 503.5435,-773.2724 493.6062,-769.598 493.4838,-776.5969"/>
</g>
<!-- json -->
<g id="node35" class="node">
<title>json</title>
<polygon fill="#98fb98" stroke="#000000" points="130.4119,-190.8581 130.4119,-211.1419 105.3726,-225.4846 69.9617,-225.4846 44.9224,-211.1419 44.9224,-190.8581 69.9617,-176.5154 105.3726,-176.5154 130.4119,-190.8581"/>
<polygon fill="none" stroke="#000000" points="134.4006,-188.5374 134.4006,-213.4626 106.4317,-229.4835 68.9026,-229.4835 40.9337,-213.4626 40.9337,-188.5374 68.9026,-172.5165 106.4317,-172.5165 134.4006,-188.5374"/>
<text text-anchor="middle" x="87.6672" y="-193.8" font-family="Times,serif" font-size="24.00" fill="#000000">json</text>
</g>
<!-- json&#45;&gt;readjson -->
<g id="edge61" class="edge">
<title>json&#45;&gt;readjson</title>
<path fill="none" stroke="#000000" d="M134.4761,-204.3765C221.2223,-210.6338 406.2054,-223.9773 495.2381,-230.3995"/>
<polygon fill="#000000" stroke="#000000" points="495.1243,-233.9003 505.3502,-231.129 495.628,-226.9185 495.1243,-233.9003"/>
</g>
<!-- rdstdin -->
<g id="node39" class="node">
<title>rdstdin</title>
<polygon fill="#98fb98" stroke="#000000" points="150.7241,-1249.8581 150.7241,-1270.1419 113.7862,-1284.4846 61.5481,-1284.4846 24.6102,-1270.1419 24.6102,-1249.8581 61.5481,-1235.5154 113.7862,-1235.5154 150.7241,-1249.8581"/>
<polygon fill="none" stroke="#000000" points="154.7106,-1247.1181 154.7106,-1272.8819 114.5308,-1288.4835 60.8035,-1288.4835 20.6237,-1272.8819 20.6237,-1247.1181 60.8035,-1231.5165 114.5308,-1231.5165 154.7106,-1247.1181"/>
<text text-anchor="middle" x="87.6672" y="-1252.8" font-family="Times,serif" font-size="24.00" fill="#000000">rdstdin</text>
</g>
<!-- rdstdin&#45;&gt;repl -->
<g id="edge74" class="edge">
<title>rdstdin&#45;&gt;repl</title>
<path fill="none" stroke="#000000" d="M155.1706,-1260C252.9726,-1260 430.7887,-1260 507.8639,-1260"/>
<polygon fill="#000000" stroke="#000000" points="508.0522,-1263.5001 518.0522,-1260 508.0521,-1256.5001 508.0522,-1263.5001"/>
</g>
</g>
</svg>
