<?xml version="1.0" encoding="UTF-8" standalone="no"?>
<!DOCTYPE svg PUBLIC "-//W3C//DTD SVG 1.1//EN"
 "http://www.w3.org/Graphics/SVG/1.1/DTD/svg11.dtd">
<!-- Generated by graphviz version 2.40.1 (20161225.0304)
 -->
<!-- Title: statictea Pages: 1 -->
<svg width="720pt" height="353pt"
 viewBox="0.00 0.00 720.00 352.68" xmlns="http://www.w3.org/2000/svg" xmlns:xlink="http://www.w3.org/1999/xlink">
<g id="graph0" class="graph" transform="scale(.2272 .2272) rotate(0) translate(4 1548.2521)">
<title>statictea</title>
<polygon fill="#ffffff" stroke="transparent" points="-4,4 -4,-1548.2521 3164.918,-1548.2521 3164.918,4 -4,4"/>
<!-- runFunction -->
<g id="node1" class="node">
<title>runFunction</title>
<g id="a_node1"><a xlink:href="runFunction.md" xlink:title="runFunction.md">
<ellipse fill="#eee8aa" stroke="#000000" cx="1217.3715" cy="-961" rx="94.055" ry="22.7556"/>
<text text-anchor="middle" x="1217.3715" y="-953.8" font-family="Times,serif" font-size="24.00" fill="#000000">runFunction</text>
</a>
</g>
</g>
<!-- parseNumber -->
<g id="node3" class="node">
<title>parseNumber</title>
<g id="a_node3"><a xlink:href="parseNumber.md" xlink:title="parseNumber.md">
<polygon fill="#98fb98" stroke="#000000" points="1741.752,-774.8581 1741.752,-795.1419 1676.5068,-809.4846 1584.2362,-809.4846 1518.991,-795.1419 1518.991,-774.8581 1584.2362,-760.5154 1676.5068,-760.5154 1741.752,-774.8581"/>
<polygon fill="none" stroke="#000000" points="1745.7588,-771.6442 1745.7588,-798.3558 1676.9429,-813.4835 1583.8002,-813.4835 1514.9843,-798.3558 1514.9843,-771.6442 1583.8002,-756.5165 1676.9429,-756.5165 1745.7588,-771.6442"/>
<text text-anchor="middle" x="1630.3715" y="-777.8" font-family="Times,serif" font-size="24.00" fill="#000000">parseNumber</text>
</a>
</g>
</g>
<!-- runFunction&#45;&gt;parseNumber -->
<g id="edge55" class="edge">
<title>runFunction&#45;&gt;parseNumber</title>
<path fill="none" stroke="#000000" d="M1263.9451,-941.1527C1336.4338,-910.2616 1476.668,-850.5008 1561.0656,-814.5347"/>
<polygon fill="#000000" stroke="#000000" points="1562.4878,-817.7333 1570.3152,-810.593 1559.7435,-811.2936 1562.4878,-817.7333"/>
</g>
<!-- regexes -->
<g id="node4" class="node">
<title>regexes</title>
<g id="a_node4"><a xlink:href="regexes.md" xlink:title="regexes.md">
<polygon fill="#98fb98" stroke="#000000" points="2131.5585,-422.8581 2131.5585,-443.1419 2091.6155,-457.4846 2035.1275,-457.4846 1995.1845,-443.1419 1995.1845,-422.8581 2035.1275,-408.5154 2091.6155,-408.5154 2131.5585,-422.8581"/>
<polygon fill="none" stroke="#000000" points="2135.5497,-420.0434 2135.5497,-445.9566 2092.3091,-461.4835 2034.4339,-461.4835 1991.1934,-445.9566 1991.1934,-420.0434 2034.4339,-404.5165 2092.3091,-404.5165 2135.5497,-420.0434"/>
<text text-anchor="middle" x="2063.3715" y="-425.8" font-family="Times,serif" font-size="24.00" fill="#000000">regexes</text>
</a>
</g>
</g>
<!-- runFunction&#45;&gt;regexes -->
<g id="edge54" class="edge">
<title>runFunction&#45;&gt;regexes</title>
<path fill="none" stroke="#000000" d="M1232.9537,-938.304C1279.1979,-872.7626 1422.9219,-681.812 1590.3715,-586.3726 1717.9894,-513.6356 1884.9257,-469.8327 1982.5323,-448.635"/>
<polygon fill="#000000" stroke="#000000" points="1983.2959,-452.0509 1992.339,-446.5307 1981.8272,-445.2067 1983.2959,-452.0509"/>
</g>
<!-- unicodes -->
<g id="node8" class="node">
<title>unicodes</title>
<g id="a_node8"><a xlink:href="unicodes.md" xlink:title="unicodes.md">
<ellipse fill="#eee8aa" stroke="#000000" cx="419.3715" cy="-609" rx="71.7778" ry="22.7556"/>
<text text-anchor="middle" x="419.3715" y="-601.8" font-family="Times,serif" font-size="24.00" fill="#000000">unicodes</text>
</a>
</g>
</g>
<!-- runFunction&#45;&gt;unicodes -->
<g id="edge64" class="edge">
<title>runFunction&#45;&gt;unicodes</title>
<path fill="none" stroke="#000000" d="M1132.7092,-950.8882C973.6096,-930.5437 637.5316,-880.7956 543.3715,-813.4917 482.7645,-770.1709 446.2002,-687.119 429.7493,-641.3125"/>
<polygon fill="#000000" stroke="#000000" points="432.9573,-639.8821 426.3602,-631.5918 426.3475,-642.1867 432.9573,-639.8821"/>
</g>
<!-- vartypes -->
<g id="node11" class="node">
<title>vartypes</title>
<g id="a_node11"><a xlink:href="vartypes.md" xlink:title="vartypes.md">
<ellipse fill="#eee8aa" stroke="#000000" cx="1200.3715" cy="-433" rx="68.6102" ry="22.7556"/>
<text text-anchor="middle" x="1200.3715" y="-425.8" font-family="Times,serif" font-size="24.00" fill="#000000">vartypes</text>
</a>
</g>
</g>
<!-- runFunction&#45;&gt;vartypes -->
<g id="edge53" class="edge">
<title>runFunction&#45;&gt;vartypes</title>
<path fill="none" stroke="#000000" d="M1221.0092,-938.1127C1229.7828,-879.4537 1250.3145,-719.0183 1235.3715,-586.3726 1230.5919,-543.9451 1218.5982,-496.142 1209.9833,-465.3498"/>
<polygon fill="#000000" stroke="#000000" points="1213.3099,-464.252 1207.2066,-455.5918 1206.5772,-466.1679 1213.3099,-464.252"/>
</g>
<!-- funtypes -->
<g id="node14" class="node">
<title>funtypes</title>
<g id="a_node14"><a xlink:href="funtypes.md" xlink:title="funtypes.md">
<ellipse fill="#eee8aa" stroke="#000000" cx="1085.3715" cy="-609" rx="69.5163" ry="22.7556"/>
<text text-anchor="middle" x="1085.3715" y="-601.8" font-family="Times,serif" font-size="24.00" fill="#000000">funtypes</text>
</a>
</g>
</g>
<!-- runFunction&#45;&gt;funtypes -->
<g id="edge69" class="edge">
<title>runFunction&#45;&gt;funtypes</title>
<path fill="none" stroke="#000000" d="M1208.9135,-938.4453C1186.2434,-877.9918 1124.0499,-712.1422 1097.5689,-641.5262"/>
<polygon fill="#000000" stroke="#000000" points="1100.7184,-639.9567 1093.9299,-631.8224 1094.1641,-642.4146 1100.7184,-639.9567"/>
</g>
<!-- warnings -->
<g id="node16" class="node">
<title>warnings</title>
<g id="a_node16"><a xlink:href="warnings.md" xlink:title="warnings.md">
<ellipse fill="#eee8aa" stroke="#000000" cx="1249.3715" cy="-245" rx="73.5561" ry="22.7556"/>
<text text-anchor="middle" x="1249.3715" y="-237.8" font-family="Times,serif" font-size="24.00" fill="#000000">warnings</text>
</a>
</g>
</g>
<!-- runFunction&#45;&gt;warnings -->
<g id="edge52" class="edge">
<title>runFunction&#45;&gt;warnings</title>
<path fill="none" stroke="#000000" d="M1223.1369,-938.2381C1241.6157,-862.5181 1297.0929,-612.1425 1278.3715,-404.5083 1274.3861,-360.3076 1264.3087,-310.0443 1257.1556,-277.9545"/>
<polygon fill="#000000" stroke="#000000" points="1260.4788,-276.7826 1254.8549,-267.8036 1253.652,-278.3299 1260.4788,-276.7826"/>
</g>
<!-- signatures -->
<g id="node20" class="node">
<title>signatures</title>
<g id="a_node20"><a xlink:href="signatures.md" xlink:title="signatures.md">
<ellipse fill="#eee8aa" stroke="#000000" cx="1037.3715" cy="-785" rx="80.2483" ry="22.7556"/>
<text text-anchor="middle" x="1037.3715" y="-777.8" font-family="Times,serif" font-size="24.00" fill="#000000">signatures</text>
</a>
</g>
</g>
<!-- runFunction&#45;&gt;signatures -->
<g id="edge68" class="edge">
<title>runFunction&#45;&gt;signatures</title>
<path fill="none" stroke="#000000" d="M1194.5744,-938.7095C1162.1615,-907.0169 1102.7305,-848.9066 1066.9576,-813.9286"/>
<polygon fill="#000000" stroke="#000000" points="1069.2984,-811.3223 1059.7013,-806.8336 1064.4045,-816.3273 1069.2984,-811.3223"/>
</g>
<!-- opresultwarn -->
<g id="node22" class="node">
<title>opresultwarn</title>
<g id="a_node22"><a xlink:href="opresultwarn.md" xlink:title="opresultwarn.md">
<ellipse fill="#eee8aa" stroke="#000000" cx="579.3715" cy="-433" rx="99.824" ry="22.7556"/>
<text text-anchor="middle" x="579.3715" y="-425.8" font-family="Times,serif" font-size="24.00" fill="#000000">opresultwarn</text>
</a>
</g>
</g>
<!-- runFunction&#45;&gt;opresultwarn -->
<g id="edge70" class="edge">
<title>runFunction&#45;&gt;opresultwarn</title>
<path fill="none" stroke="#000000" d="M1127.9431,-953.6271C969.2953,-938.4966 648.8923,-898.008 581.3715,-813.4917 499.2359,-710.6821 543.7149,-537.4856 567.4943,-465.6946"/>
<polygon fill="#000000" stroke="#000000" points="570.933,-466.4531 570.835,-455.8587 564.3048,-464.2018 570.933,-466.4531"/>
</g>
<!-- messages -->
<g id="node23" class="node">
<title>messages</title>
<g id="a_node23"><a xlink:href="messages.md" xlink:title="messages.md">
<polygon fill="#98fb98" stroke="#000000" points="1754.1104,-47.8581 1754.1104,-68.1419 1706.2289,-82.4846 1638.5142,-82.4846 1590.6327,-68.1419 1590.6327,-47.8581 1638.5142,-33.5154 1706.2289,-33.5154 1754.1104,-47.8581"/>
<polygon fill="none" stroke="#000000" points="1758.1161,-44.883 1758.1161,-71.117 1706.8169,-86.4835 1637.9262,-86.4835 1586.627,-71.117 1586.627,-44.883 1637.9262,-29.5165 1706.8169,-29.5165 1758.1161,-44.883"/>
<text text-anchor="middle" x="1672.3715" y="-50.8" font-family="Times,serif" font-size="24.00" fill="#000000">messages</text>
</a>
</g>
</g>
<!-- runFunction&#45;&gt;messages -->
<g id="edge51" class="edge">
<title>runFunction&#45;&gt;messages</title>
<path fill="none" stroke="#000000" d="M1152.5708,-944.3989C1032.8331,-909.7483 780.2335,-817.084 682.3715,-631.6274 652.6605,-575.3226 669.2031,-503.9133 727.3715,-404.5083 788.9851,-299.2157 819.2788,-273.0656 927.3715,-216.5083 1141.194,-104.6299 1428.759,-71.7097 1576.2671,-62.0286"/>
<polygon fill="#000000" stroke="#000000" points="1576.8842,-65.4966 1586.6427,-61.3709 1576.4413,-58.5106 1576.8842,-65.4966"/>
</g>
<!-- matches -->
<g id="node24" class="node">
<title>matches</title>
<g id="a_node24"><a xlink:href="matches.md" xlink:title="matches.md">
<ellipse fill="#eee8aa" stroke="#000000" cx="2123.3715" cy="-609" rx="66.8311" ry="22.7556"/>
<text text-anchor="middle" x="2123.3715" y="-601.8" font-family="Times,serif" font-size="24.00" fill="#000000">matches</text>
</a>
</g>
</g>
<!-- runFunction&#45;&gt;matches -->
<g id="edge56" class="edge">
<title>runFunction&#45;&gt;matches</title>
<path fill="none" stroke="#000000" d="M1241.6313,-938.8332C1288.9252,-896.8222 1398.311,-805.445 1506.3715,-756.5083 1691.5967,-672.6264 1930.5566,-633.0138 2049.415,-617.4448"/>
<polygon fill="#000000" stroke="#000000" points="2050.0272,-620.8949 2059.4972,-616.1443 2049.1316,-613.9525 2050.0272,-620.8949"/>
</g>
<!-- opresultid -->
<g id="node2" class="node">
<title>opresultid</title>
<g id="a_node2"><a xlink:href="opresultid.md" xlink:title="opresultid.md">
<ellipse fill="#eee8aa" stroke="#000000" cx="118.3715" cy="-433" rx="79.3758" ry="22.7556"/>
<text text-anchor="middle" x="118.3715" y="-425.8" font-family="Times,serif" font-size="24.00" fill="#000000">opresultid</text>
</a>
</g>
</g>
<!-- opresultid&#45;&gt;messages -->
<g id="edge57" class="edge">
<title>opresultid&#45;&gt;messages</title>
<path fill="none" stroke="#000000" d="M139.3485,-410.8247C183.7266,-365.4952 292.4361,-262.621 406.3715,-216.5083 619.5039,-130.2479 1319.5182,-79.6524 1576.585,-63.6048"/>
<polygon fill="#000000" stroke="#000000" points="1576.8847,-67.093 1586.6487,-62.9801 1576.451,-60.1064 1576.8847,-67.093"/>
</g>
<!-- opresult -->
<g id="node29" class="node">
<title>opresult</title>
<g id="a_node29"><a xlink:href="opresult.md" xlink:title="opresult.md">
<polygon fill="#98fb98" stroke="#000000" points="561.7242,-234.8581 561.7242,-255.1419 519.9268,-269.4846 460.8163,-269.4846 419.0189,-255.1419 419.0189,-234.8581 460.8163,-220.5154 519.9268,-220.5154 561.7242,-234.8581"/>
<polygon fill="none" stroke="#000000" points="565.7201,-232.0019 565.7201,-257.9981 520.5928,-273.4835 460.1502,-273.4835 415.0229,-257.9981 415.0229,-232.0019 460.1502,-216.5165 520.5928,-216.5165 565.7201,-232.0019"/>
<text text-anchor="middle" x="490.3715" y="-237.8" font-family="Times,serif" font-size="24.00" fill="#000000">opresult</text>
</a>
</g>
</g>
<!-- opresultid&#45;&gt;opresult -->
<g id="edge58" class="edge">
<title>opresultid&#45;&gt;opresult</title>
<path fill="none" stroke="#000000" d="M157.4789,-413.236C224.0723,-379.5813 359.6371,-311.0701 435.6194,-272.6704"/>
<polygon fill="#000000" stroke="#000000" points="437.2352,-275.7755 444.5815,-268.1412 434.0779,-269.528 437.2352,-275.7755"/>
</g>
<!-- cmdline -->
<g id="node5" class="node">
<title>cmdline</title>
<g id="a_node5"><a xlink:href="cmdline.md" xlink:title="cmdline.md">
<polygon fill="#98fb98" stroke="#000000" points="919.7067,-422.8581 919.7067,-443.1419 877.9195,-457.4846 818.8235,-457.4846 777.0363,-443.1419 777.0363,-422.8581 818.8235,-408.5154 877.9195,-408.5154 919.7067,-422.8581"/>
<polygon fill="none" stroke="#000000" points="923.7022,-420.0021 923.7022,-445.9979 878.5856,-461.4835 818.1574,-461.4835 773.0408,-445.9979 773.0408,-420.0021 818.1574,-404.5165 878.5856,-404.5165 923.7022,-420.0021"/>
<text text-anchor="middle" x="848.3715" y="-425.8" font-family="Times,serif" font-size="24.00" fill="#000000">cmdline</text>
</a>
</g>
</g>
<!-- parseCmdLine -->
<g id="node6" class="node">
<title>parseCmdLine</title>
<g id="a_node6"><a xlink:href="parseCmdLine.md" xlink:title="parseCmdLine.md">
<ellipse fill="#eee8aa" stroke="#000000" cx="2476.3715" cy="-785" rx="111.4463" ry="22.7556"/>
<text text-anchor="middle" x="2476.3715" y="-777.8" font-family="Times,serif" font-size="24.00" fill="#000000">parseCmdLine</text>
</a>
</g>
</g>
<!-- parseCmdLine&#45;&gt;regexes -->
<g id="edge20" class="edge">
<title>parseCmdLine&#45;&gt;regexes</title>
<path fill="none" stroke="#000000" d="M2450.5365,-762.9808C2380.6525,-703.4186 2187.5041,-538.7983 2103.387,-467.1052"/>
<polygon fill="#000000" stroke="#000000" points="2105.4759,-464.2868 2095.5948,-460.4639 2100.9353,-469.6144 2105.4759,-464.2868"/>
</g>
<!-- env -->
<g id="node7" class="node">
<title>env</title>
<g id="a_node7"><a xlink:href="env.md" xlink:title="env.md">
<ellipse fill="#eee8aa" stroke="#000000" cx="2602.3715" cy="-609" rx="35.6342" ry="22.7556"/>
<text text-anchor="middle" x="2602.3715" y="-601.8" font-family="Times,serif" font-size="24.00" fill="#000000">env</text>
</a>
</g>
</g>
<!-- parseCmdLine&#45;&gt;env -->
<g id="edge19" class="edge">
<title>parseCmdLine&#45;&gt;env</title>
<path fill="none" stroke="#000000" d="M2492.5859,-762.3514C2515.3183,-730.5982 2556.6691,-672.8383 2581.6205,-637.9856"/>
<polygon fill="#000000" stroke="#000000" points="2584.6141,-639.8166 2587.5894,-629.6481 2578.9223,-635.7418 2584.6141,-639.8166"/>
</g>
<!-- parseCmdLine&#45;&gt;messages -->
<g id="edge21" class="edge">
<title>parseCmdLine&#45;&gt;messages</title>
<path fill="none" stroke="#000000" d="M2480.7392,-762.1362C2491.5481,-698.4844 2513.0937,-516.5636 2431.3715,-404.5083 2270.1213,-183.4061 1933.5179,-99.9294 1768.1872,-71.3632"/>
<polygon fill="#000000" stroke="#000000" points="1768.4755,-67.8622 1758.0309,-69.6404 1767.3047,-74.7636 1768.4755,-67.8622"/>
</g>
<!-- parseCmdLine&#45;&gt;matches -->
<g id="edge22" class="edge">
<title>parseCmdLine&#45;&gt;matches</title>
<path fill="none" stroke="#000000" d="M2434.1421,-763.9451C2367.8123,-730.8741 2239.6537,-666.9764 2170.446,-632.4706"/>
<polygon fill="#000000" stroke="#000000" points="2171.5954,-629.1328 2161.0843,-627.803 2168.4719,-635.3973 2171.5954,-629.1328"/>
</g>
<!-- tempFile -->
<g id="node10" class="node">
<title>tempFile</title>
<g id="a_node10"><a xlink:href="tempFile.md" xlink:title="tempFile.md">
<polygon fill="#98fb98" stroke="#000000" points="2789.9695,-422.8581 2789.9695,-443.1419 2744.5137,-457.4846 2680.2294,-457.4846 2634.7736,-443.1419 2634.7736,-422.8581 2680.2294,-408.5154 2744.5137,-408.5154 2789.9695,-422.8581"/>
<polygon fill="none" stroke="#000000" points="2793.972,-419.9275 2793.972,-446.0725 2745.1307,-461.4835 2679.6124,-461.4835 2630.7711,-446.0725 2630.7711,-419.9275 2679.6124,-404.5165 2745.1307,-404.5165 2793.972,-419.9275"/>
<text text-anchor="middle" x="2712.3715" y="-425.8" font-family="Times,serif" font-size="24.00" fill="#000000">tempFile</text>
</a>
</g>
</g>
<!-- env&#45;&gt;tempFile -->
<g id="edge10" class="edge">
<title>env&#45;&gt;tempFile</title>
<path fill="none" stroke="#000000" d="M2615.6401,-587.7703C2633.8139,-558.6922 2666.735,-506.0185 2689.069,-470.284"/>
<polygon fill="#000000" stroke="#000000" points="2692.1716,-471.9237 2694.5036,-461.5887 2686.2356,-468.2136 2692.1716,-471.9237"/>
</g>
<!-- env&#45;&gt;warnings -->
<g id="edge12" class="edge">
<title>env&#45;&gt;warnings</title>
<path fill="none" stroke="#000000" d="M2591.3298,-587.1281C2568.2426,-543.9362 2510.3836,-448.1095 2431.3715,-404.5083 2241.2309,-299.5829 1569.1375,-259.5147 1332.5308,-248.4628"/>
<polygon fill="#000000" stroke="#000000" points="1332.421,-244.9541 1322.2702,-247.989 1332.0981,-251.9466 1332.421,-244.9541"/>
</g>
<!-- args -->
<g id="node21" class="node">
<title>args</title>
<g id="a_node21"><a xlink:href="args.md" xlink:title="args.md">
<polygon fill="#98fb98" stroke="#000000" points="2248.9207,-422.8581 2248.9207,-443.1419 2223.996,-457.4846 2188.7471,-457.4846 2163.8223,-443.1419 2163.8223,-422.8581 2188.7471,-408.5154 2223.996,-408.5154 2248.9207,-422.8581"/>
<polygon fill="none" stroke="#000000" points="2252.9229,-420.5466 2252.9229,-445.4534 2225.0661,-461.4835 2187.677,-461.4835 2159.8201,-445.4534 2159.8201,-420.5466 2187.677,-404.5165 2225.0661,-404.5165 2252.9229,-420.5466"/>
<text text-anchor="middle" x="2206.3715" y="-425.8" font-family="Times,serif" font-size="24.00" fill="#000000">args</text>
</a>
</g>
</g>
<!-- env&#45;&gt;args -->
<g id="edge13" class="edge">
<title>env&#45;&gt;args</title>
<path fill="none" stroke="#000000" d="M2572.9307,-595.9152C2505.0148,-565.7304 2336.8728,-491.0006 2254.0403,-454.1861"/>
<polygon fill="#000000" stroke="#000000" points="2255.4137,-450.9664 2244.854,-450.1033 2252.5707,-457.3631 2255.4137,-450.9664"/>
</g>
<!-- env&#45;&gt;messages -->
<g id="edge11" class="edge">
<title>env&#45;&gt;messages</title>
<path fill="none" stroke="#000000" d="M2606.7239,-586.5353C2618.2396,-519.7581 2642.0581,-320.6601 2540.3715,-216.5083 2434.2131,-107.7761 1971.2549,-72.3747 1768.3002,-61.9487"/>
<polygon fill="#000000" stroke="#000000" points="1768.4103,-58.4499 1758.2467,-61.4418 1768.0577,-65.441 1768.4103,-58.4499"/>
</g>
<!-- unicodes&#45;&gt;opresultid -->
<g id="edge59" class="edge">
<title>unicodes&#45;&gt;opresultid</title>
<path fill="none" stroke="#000000" d="M385.136,-588.9819C330.3219,-556.9311 222.8974,-494.1181 162.4314,-458.7626"/>
<polygon fill="#000000" stroke="#000000" points="163.9034,-455.5689 153.5041,-453.5427 160.3701,-461.6117 163.9034,-455.5689"/>
</g>
<!-- utf8decoder -->
<g id="node15" class="node">
<title>utf8decoder</title>
<g id="a_node15"><a xlink:href="utf8decoder.md" xlink:title="utf8decoder.md">
<polygon fill="#98fb98" stroke="#000000" points="419.3011,-422.8581 419.3011,-443.1419 360.7637,-457.4846 277.9793,-457.4846 219.442,-443.1419 219.442,-422.8581 277.9793,-408.5154 360.7637,-408.5154 419.3011,-422.8581"/>
<polygon fill="none" stroke="#000000" points="423.2997,-419.7208 423.2997,-446.2792 361.2464,-461.4835 277.4966,-461.4835 215.4433,-446.2792 215.4433,-419.7208 277.4966,-404.5165 361.2464,-404.5165 423.2997,-419.7208"/>
<text text-anchor="middle" x="319.3715" y="-425.8" font-family="Times,serif" font-size="24.00" fill="#000000">utf8decoder</text>
</a>
</g>
</g>
<!-- unicodes&#45;&gt;utf8decoder -->
<g id="edge63" class="edge">
<title>unicodes&#45;&gt;utf8decoder</title>
<path fill="none" stroke="#000000" d="M406.7065,-586.7095C390.1103,-557.5002 360.7642,-505.8512 340.7086,-470.5532"/>
<polygon fill="#000000" stroke="#000000" points="343.5535,-468.4753 335.5703,-461.5098 337.4673,-471.9334 343.5535,-468.4753"/>
</g>
<!-- unicodes&#45;&gt;warnings -->
<g id="edge62" class="edge">
<title>unicodes&#45;&gt;warnings</title>
<path fill="none" stroke="#000000" d="M417.8306,-586.1626C416.3248,-543.84 419.653,-453.1185 470.3715,-404.5083 569.9106,-309.1069 988.3798,-265.4716 1167.4798,-250.9014"/>
<polygon fill="#000000" stroke="#000000" points="1167.9479,-254.3751 1177.6355,-250.0855 1167.3873,-247.3976 1167.9479,-254.3751"/>
</g>
<!-- unicodes&#45;&gt;opresultwarn -->
<g id="edge60" class="edge">
<title>unicodes&#45;&gt;opresultwarn</title>
<path fill="none" stroke="#000000" d="M439.3121,-587.0653C467.8166,-555.7105 520.2938,-497.9855 552.2905,-462.7891"/>
<polygon fill="#000000" stroke="#000000" points="555.0427,-464.9649 559.1796,-455.2111 549.8631,-460.2562 555.0427,-464.9649"/>
</g>
<!-- unicodes&#45;&gt;messages -->
<g id="edge61" class="edge">
<title>unicodes&#45;&gt;messages</title>
<path fill="none" stroke="#000000" d="M350.9335,-602.0502C221.9681,-585.78 -38.2099,-536.1093 30.3715,-404.5083 97.7795,-275.159 162.9885,-268.2262 299.3715,-216.5083 534.4521,-127.3631 1304.6713,-77.951 1576.4064,-62.9561"/>
<polygon fill="#000000" stroke="#000000" points="1576.8461,-66.4374 1586.6393,-62.3948 1576.4626,-59.4479 1576.8461,-66.4374"/>
</g>
<!-- variables -->
<g id="node9" class="node">
<title>variables</title>
<g id="a_node9"><a xlink:href="variables.md" xlink:title="variables.md">
<ellipse fill="#eee8aa" stroke="#000000" cx="1672.3715" cy="-609" rx="72.6337" ry="22.7556"/>
<text text-anchor="middle" x="1672.3715" y="-601.8" font-family="Times,serif" font-size="24.00" fill="#000000">variables</text>
</a>
</g>
</g>
<!-- variables&#45;&gt;vartypes -->
<g id="edge39" class="edge">
<title>variables&#45;&gt;vartypes</title>
<path fill="none" stroke="#000000" d="M1625.3888,-591.481C1537.6704,-558.7725 1349.4098,-488.5736 1255.706,-453.6332"/>
<polygon fill="#000000" stroke="#000000" points="1256.7142,-450.2738 1246.1215,-450.0593 1254.2685,-456.8326 1256.7142,-450.2738"/>
</g>
<!-- variables&#45;&gt;warnings -->
<g id="edge42" class="edge">
<title>variables&#45;&gt;warnings</title>
<path fill="none" stroke="#000000" d="M1647.4902,-587.5891C1574.9807,-525.1932 1363.8456,-343.5073 1282.1679,-273.2219"/>
<polygon fill="#000000" stroke="#000000" points="1284.0844,-270.2537 1274.2216,-266.3839 1279.5185,-275.5596 1284.0844,-270.2537"/>
</g>
<!-- variables&#45;&gt;args -->
<g id="edge43" class="edge">
<title>variables&#45;&gt;args</title>
<path fill="none" stroke="#000000" d="M1727.6599,-594.2026C1816.6149,-569.8438 1996.5115,-518.3029 2144.3715,-461.4917 2149.4858,-459.5267 2154.7758,-457.3418 2160.0111,-455.0805"/>
<polygon fill="#000000" stroke="#000000" points="2161.5974,-458.206 2169.3258,-450.9587 2158.7648,-451.8047 2161.5974,-458.206"/>
</g>
<!-- variables&#45;&gt;opresultwarn -->
<g id="edge46" class="edge">
<title>variables&#45;&gt;opresultwarn</title>
<path fill="none" stroke="#000000" d="M1607.6768,-598.5826C1421.916,-568.6705 886.4457,-482.4465 670.8852,-447.736"/>
<polygon fill="#000000" stroke="#000000" points="671.2942,-444.2568 660.8649,-446.1225 670.1813,-451.1678 671.2942,-444.2568"/>
</g>
<!-- variables&#45;&gt;messages -->
<g id="edge41" class="edge">
<title>variables&#45;&gt;messages</title>
<path fill="none" stroke="#000000" d="M1672.3715,-586.0257C1672.3715,-500.9727 1672.3715,-203.4042 1672.3715,-96.5608"/>
<polygon fill="#000000" stroke="#000000" points="1675.8716,-96.5365 1672.3715,-86.5365 1668.8716,-96.5366 1675.8716,-96.5365"/>
</g>
<!-- version -->
<g id="node25" class="node">
<title>version</title>
<g id="a_node25"><a xlink:href="version.md" xlink:title="version.md">
<polygon fill="#98fb98" stroke="#000000" points="2418.5238,-422.8581 2418.5238,-443.1419 2379.7727,-457.4846 2324.9703,-457.4846 2286.2192,-443.1419 2286.2192,-422.8581 2324.9703,-408.5154 2379.7727,-408.5154 2418.5238,-422.8581"/>
<polygon fill="none" stroke="#000000" points="2422.5136,-420.0721 2422.5136,-445.9279 2380.4859,-461.4835 2324.2572,-461.4835 2282.2294,-445.9279 2282.2294,-420.0721 2324.2572,-404.5165 2380.4859,-404.5165 2422.5136,-420.0721"/>
<text text-anchor="middle" x="2352.3715" y="-425.8" font-family="Times,serif" font-size="24.00" fill="#000000">version</text>
</a>
</g>
</g>
<!-- variables&#45;&gt;version -->
<g id="edge40" class="edge">
<title>variables&#45;&gt;version</title>
<path fill="none" stroke="#000000" d="M1731.308,-595.5348C1837.8449,-570.9129 2069.3442,-516.1193 2262.3715,-461.4917 2270.3058,-459.2463 2278.5976,-456.783 2286.8,-454.2741"/>
<polygon fill="#000000" stroke="#000000" points="2287.8409,-457.6159 2296.3611,-451.3184 2285.7734,-450.9281 2287.8409,-457.6159"/>
</g>
<!-- vartypes&#45;&gt;warnings -->
<g id="edge34" class="edge">
<title>vartypes&#45;&gt;warnings</title>
<path fill="none" stroke="#000000" d="M1206.2821,-410.3228C1214.8907,-377.2937 1230.9277,-315.7642 1240.8231,-277.7979"/>
<polygon fill="#000000" stroke="#000000" points="1244.3047,-278.3171 1243.44,-267.7576 1237.531,-276.5516 1244.3047,-278.3171"/>
</g>
<!-- replacement -->
<g id="node12" class="node">
<title>replacement</title>
<g id="a_node12"><a xlink:href="replacement.md" xlink:title="replacement.md">
<ellipse fill="#eee8aa" stroke="#000000" cx="2085.3715" cy="-961" rx="94.4556" ry="22.7556"/>
<text text-anchor="middle" x="2085.3715" y="-953.8" font-family="Times,serif" font-size="24.00" fill="#000000">replacement</text>
</a>
</g>
</g>
<!-- replacement&#45;&gt;parseNumber -->
<g id="edge93" class="edge">
<title>replacement&#45;&gt;parseNumber</title>
<path fill="none" stroke="#000000" d="M2035.377,-941.6615C1955.0294,-910.582 1796.7662,-849.3637 1703.6467,-813.3438"/>
<polygon fill="#000000" stroke="#000000" points="1704.8782,-810.0675 1694.2889,-809.7241 1702.3528,-816.5961 1704.8782,-810.0675"/>
</g>
<!-- replacement&#45;&gt;regexes -->
<g id="edge84" class="edge">
<title>replacement&#45;&gt;regexes</title>
<path fill="none" stroke="#000000" d="M2078.1157,-938.3077C2069.3376,-909.6011 2055.0327,-858.4774 2049.3715,-813.4917 2033.7491,-689.3503 2048.8824,-540.7736 2057.8314,-471.7633"/>
<polygon fill="#000000" stroke="#000000" points="2061.3104,-472.1519 2059.1557,-461.7785 2054.3712,-471.2315 2061.3104,-472.1519"/>
</g>
<!-- replacement&#45;&gt;parseCmdLine -->
<g id="edge87" class="edge">
<title>replacement&#45;&gt;parseCmdLine</title>
<path fill="none" stroke="#000000" d="M2129.8435,-940.9819C2201.6822,-908.6453 2343.086,-844.9955 2421.2239,-809.8235"/>
<polygon fill="#000000" stroke="#000000" points="2422.7482,-812.9756 2430.4304,-805.6794 2419.875,-806.5925 2422.7482,-812.9756"/>
</g>
<!-- replacement&#45;&gt;env -->
<g id="edge85" class="edge">
<title>replacement&#45;&gt;env</title>
<path fill="none" stroke="#000000" d="M2166.2435,-949.3331C2296.5179,-928.7263 2543.6098,-881.5375 2596.3715,-813.4917 2634.855,-763.8604 2623.0384,-685.2301 2612.0481,-641.3398"/>
<polygon fill="#000000" stroke="#000000" points="2615.3836,-640.2621 2609.4471,-631.4866 2608.6154,-642.0488 2615.3836,-640.2621"/>
</g>
<!-- replacement&#45;&gt;variables -->
<g id="edge91" class="edge">
<title>replacement&#45;&gt;variables</title>
<path fill="none" stroke="#000000" d="M2059.5365,-938.9808C1987.5739,-877.647 1784.9053,-704.9126 1705.1767,-636.9599"/>
<polygon fill="#000000" stroke="#000000" points="1707.2886,-634.1611 1697.4075,-630.3382 1702.748,-639.4887 1707.2886,-634.1611"/>
</g>
<!-- replacement&#45;&gt;tempFile -->
<g id="edge92" class="edge">
<title>replacement&#45;&gt;tempFile</title>
<path fill="none" stroke="#000000" d="M2165.6543,-949.0698C2299.1484,-927.6304 2558.355,-878.675 2621.3715,-813.4917 2713.2382,-718.4664 2718.0225,-548.0512 2715.0325,-471.7682"/>
<polygon fill="#000000" stroke="#000000" points="2718.5228,-471.4754 2714.5673,-461.6467 2711.5302,-471.7969 2718.5228,-471.4754"/>
</g>
<!-- replacement&#45;&gt;vartypes -->
<g id="edge86" class="edge">
<title>replacement&#45;&gt;vartypes</title>
<path fill="none" stroke="#000000" d="M2051.7098,-939.8203C1992.0687,-902.3808 1863.8069,-822.2514 1754.3715,-756.5083 1565.4178,-642.9946 1337.515,-511.6444 1243.815,-457.8785"/>
<polygon fill="#000000" stroke="#000000" points="1245.3231,-454.7086 1234.9073,-452.7689 1241.8401,-460.7806 1245.3231,-454.7086"/>
</g>
<!-- readlines -->
<g id="node13" class="node">
<title>readlines</title>
<g id="a_node13"><a xlink:href="readlines.md" xlink:title="readlines.md">
<polygon fill="#98fb98" stroke="#000000" points="2228.9609,-774.8581 2228.9609,-795.1419 2182.9243,-809.4846 2117.8187,-809.4846 2071.7822,-795.1419 2071.7822,-774.8581 2117.8187,-760.5154 2182.9243,-760.5154 2228.9609,-774.8581"/>
<polygon fill="none" stroke="#000000" points="2232.9631,-771.9163 2232.9631,-798.0837 2183.5338,-813.4835 2117.2092,-813.4835 2067.7799,-798.0837 2067.7799,-771.9163 2117.2092,-756.5165 2183.5338,-756.5165 2232.9631,-771.9163"/>
<text text-anchor="middle" x="2150.3715" y="-777.8" font-family="Times,serif" font-size="24.00" fill="#000000">readlines</text>
</a>
</g>
</g>
<!-- replacement&#45;&gt;readlines -->
<g id="edge88" class="edge">
<title>replacement&#45;&gt;readlines</title>
<path fill="none" stroke="#000000" d="M2093.7361,-938.3514C2104.4862,-909.2434 2123.3074,-858.2814 2136.284,-823.1447"/>
<polygon fill="#000000" stroke="#000000" points="2139.5963,-824.2785 2139.7775,-813.6853 2133.0298,-821.8534 2139.5963,-824.2785"/>
</g>
<!-- replacement&#45;&gt;messages -->
<g id="edge90" class="edge">
<title>replacement&#45;&gt;messages</title>
<path fill="none" stroke="#000000" d="M2165.7909,-949.0992C2304.5596,-927.1398 2581.1706,-876.6668 2654.3715,-813.4917 2800.8282,-687.0943 2886.2573,-579.3105 2803.3715,-404.5083 2746.8057,-285.2136 2693.3953,-271.51 2573.3715,-216.5083 2430.4053,-150.993 1969.4688,-91.9869 1768.0522,-68.6237"/>
<polygon fill="#000000" stroke="#000000" points="1768.4117,-65.1421 1758.0761,-67.4711 1767.6082,-72.0958 1768.4117,-65.1421"/>
</g>
<!-- replacement&#45;&gt;matches -->
<g id="edge89" class="edge">
<title>replacement&#45;&gt;matches</title>
<path fill="none" stroke="#000000" d="M2077.4394,-938.4184C2065.2298,-900.5238 2044.6109,-821.8612 2058.3715,-756.5083 2067.2686,-714.2535 2089.0545,-669.3471 2104.9598,-640.3365"/>
<polygon fill="#000000" stroke="#000000" points="2108.0747,-641.937 2109.8934,-631.4995 2101.9627,-638.5247 2108.0747,-641.937"/>
</g>
<!-- funtypes&#45;&gt;vartypes -->
<g id="edge48" class="edge">
<title>funtypes&#45;&gt;vartypes</title>
<path fill="none" stroke="#000000" d="M1099.9364,-586.7095C1120.2732,-555.5852 1157.2581,-498.9823 1180.2253,-463.8324"/>
<polygon fill="#000000" stroke="#000000" points="1183.2038,-465.6727 1185.7438,-455.3868 1177.3438,-461.8437 1183.2038,-465.6727"/>
</g>
<!-- funtypes&#45;&gt;warnings -->
<g id="edge49" class="edge">
<title>funtypes&#45;&gt;warnings</title>
<path fill="none" stroke="#000000" d="M1085.9007,-586.145C1087.573,-547.1768 1094.4355,-466.1177 1122.3715,-404.5083 1145.7525,-352.9443 1189.4927,-303.5479 1219.0249,-273.739"/>
<polygon fill="#000000" stroke="#000000" points="1221.5863,-276.1278 1226.2059,-266.5931 1216.6487,-271.1659 1221.5863,-276.1278"/>
</g>
<!-- warnings&#45;&gt;messages -->
<g id="edge3" class="edge">
<title>warnings&#45;&gt;messages</title>
<path fill="none" stroke="#000000" d="M1291.4768,-226.3861C1366.4809,-193.2282 1523.5087,-123.8093 1610.7007,-85.2635"/>
<polygon fill="#000000" stroke="#000000" points="1612.2154,-88.4207 1619.9463,-81.1762 1609.385,-82.0184 1612.2154,-88.4207"/>
</g>
<!-- collectCommand -->
<g id="node17" class="node">
<title>collectCommand</title>
<g id="a_node17"><a xlink:href="collectCommand.md" xlink:title="collectCommand.md">
<ellipse fill="#eee8aa" stroke="#000000" cx="2476.3715" cy="-961" rx="127.4982" ry="22.7556"/>
<text text-anchor="middle" x="2476.3715" y="-953.8" font-family="Times,serif" font-size="24.00" fill="#000000">collectCommand</text>
</a>
</g>
</g>
<!-- collectCommand&#45;&gt;parseCmdLine -->
<g id="edge27" class="edge">
<title>collectCommand&#45;&gt;parseCmdLine</title>
<path fill="none" stroke="#000000" d="M2476.3715,-938.3514C2476.3715,-907.8095 2476.3715,-853.2072 2476.3715,-818.0715"/>
<polygon fill="#000000" stroke="#000000" points="2479.8716,-817.8404 2476.3715,-807.8405 2472.8716,-817.8405 2479.8716,-817.8404"/>
</g>
<!-- collectCommand&#45;&gt;env -->
<g id="edge24" class="edge">
<title>collectCommand&#45;&gt;env</title>
<path fill="none" stroke="#000000" d="M2536.9394,-941.0228C2591.9953,-919.2573 2669.8795,-878.5715 2705.3715,-813.4917 2740.131,-749.7551 2672.8729,-672.8824 2631.4668,-634.0554"/>
<polygon fill="#000000" stroke="#000000" points="2633.7996,-631.4458 2624.0667,-627.26 2629.065,-636.6017 2633.7996,-631.4458"/>
</g>
<!-- collectCommand&#45;&gt;readlines -->
<g id="edge26" class="edge">
<title>collectCommand&#45;&gt;readlines</title>
<path fill="none" stroke="#000000" d="M2436.3975,-939.4189C2378.3451,-908.0777 2270.5177,-849.8642 2205.1201,-814.5575"/>
<polygon fill="#000000" stroke="#000000" points="2206.6457,-811.4037 2196.1834,-809.7328 2203.3202,-817.5633 2206.6457,-811.4037"/>
</g>
<!-- collectCommand&#45;&gt;messages -->
<g id="edge28" class="edge">
<title>collectCommand&#45;&gt;messages</title>
<path fill="none" stroke="#000000" d="M2503.1041,-938.747C2532.4686,-912.3847 2577.9098,-865.4403 2596.3715,-813.4917 2604.8523,-789.6279 2601.0139,-781.4051 2596.3715,-756.5083 2588.6857,-715.2899 2483.566,-439.4374 2460.3715,-404.5083 2393.776,-304.2203 2370.1919,-275.714 2265.3715,-216.5083 2104.8385,-125.8343 1890.4434,-85.3228 1768.3107,-68.5861"/>
<polygon fill="#000000" stroke="#000000" points="1768.6097,-65.0949 1758.2323,-67.2303 1767.6764,-72.0324 1768.6097,-65.0949"/>
</g>
<!-- collectCommand&#45;&gt;matches -->
<g id="edge25" class="edge">
<title>collectCommand&#45;&gt;matches</title>
<path fill="none" stroke="#000000" d="M2454.5338,-938.4373C2417.8079,-900.5703 2341.2292,-821.9468 2275.3715,-756.5083 2233.2894,-714.694 2183.8818,-667.0005 2153.0939,-637.4437"/>
<polygon fill="#000000" stroke="#000000" points="2155.3227,-634.7318 2145.6834,-630.3347 2150.4768,-639.7832 2155.3227,-634.7318"/>
</g>
<!-- statictea -->
<g id="node18" class="node">
<title>statictea</title>
<g id="a_node18"><a xlink:href="statictea.md" xlink:title="statictea.md">
<polygon fill="#eee8aa" stroke="#000000" points="2836.4673,-1479.3667 2919.3715,-1460.0619 3002.2758,-1479.3667 3002.1984,-1510.6024 2836.5447,-1510.6024 2836.4673,-1479.3667"/>
<text text-anchor="middle" x="2919.3715" y="-1480.8" font-family="Times,serif" font-size="24.00" fill="#000000">statictea</text>
</a>
</g>
</g>
<!-- statictea&#45;&gt;env -->
<g id="edge100" class="edge">
<title>statictea&#45;&gt;env</title>
<path fill="none" stroke="#000000" d="M2910.0524,-1461.9753C2889.7582,-1402.8965 2843.3715,-1253.7745 2843.3715,-1125 2843.3715,-1125 2843.3715,-1125 2843.3715,-961 2843.3715,-863.2446 2817.695,-837.1025 2762.3715,-756.5083 2726.9385,-704.8902 2670.3343,-658.2892 2634.8155,-631.8394"/>
<polygon fill="#000000" stroke="#000000" points="2636.8316,-628.9775 2626.7014,-625.8744 2632.6854,-634.6175 2636.8316,-628.9775"/>
</g>
<!-- gethelp -->
<g id="node19" class="node">
<title>gethelp</title>
<g id="a_node19"><a xlink:href="gethelp.md" xlink:title="gethelp.md">
<polygon fill="#98fb98" stroke="#000000" points="3121.5064,-1290.8581 3121.5064,-1311.1419 3082.7655,-1325.4846 3027.9775,-1325.4846 2989.2366,-1311.1419 2989.2366,-1290.8581 3027.9775,-1276.5154 3082.7655,-1276.5154 3121.5064,-1290.8581"/>
<polygon fill="none" stroke="#000000" points="3125.4957,-1288.0722 3125.4957,-1313.9278 3083.4787,-1329.4835 3027.2644,-1329.4835 2985.2473,-1313.9278 2985.2473,-1288.0722 3027.2644,-1272.5165 3083.4787,-1272.5165 3125.4957,-1288.0722"/>
<text text-anchor="middle" x="3055.3715" y="-1293.8" font-family="Times,serif" font-size="24.00" fill="#000000">gethelp</text>
</a>
</g>
</g>
<!-- statictea&#45;&gt;gethelp -->
<g id="edge98" class="edge">
<title>statictea&#45;&gt;gethelp</title>
<path fill="none" stroke="#000000" d="M2936.8727,-1463.9358C2960.1499,-1431.9297 3001.5131,-1375.0553 3028.6918,-1337.6846"/>
<polygon fill="#000000" stroke="#000000" points="3031.5498,-1339.7055 3034.601,-1329.5595 3025.8887,-1335.5882 3031.5498,-1339.7055"/>
</g>
<!-- statictea&#45;&gt;args -->
<g id="edge96" class="edge">
<title>statictea&#45;&gt;args</title>
<path fill="none" stroke="#000000" d="M2919.3715,-1459.7594C2919.3715,-1398.6901 2919.3715,-1249.7813 2919.3715,-1125 2919.3715,-1125 2919.3715,-1125 2919.3715,-785 2919.3715,-463.8989 2573.6424,-575.2604 2273.3715,-461.4917 2267.3211,-459.1993 2261.0116,-456.6845 2254.7885,-454.128"/>
<polygon fill="#000000" stroke="#000000" points="2255.707,-450.719 2245.1301,-450.102 2253.0137,-457.1801 2255.707,-450.719"/>
</g>
<!-- statictea&#45;&gt;messages -->
<g id="edge97" class="edge">
<title>statictea&#45;&gt;messages</title>
<path fill="none" stroke="#000000" d="M2962.2883,-1469.8066C3013.0319,-1445.7905 3095.4915,-1398.3396 3134.3715,-1329.4917 3179.2551,-1250.0129 3153.3715,-1216.2767 3153.3715,-1125 3153.3715,-1125 3153.3715,-1125 3153.3715,-433 3153.3715,-146.2643 2096.9301,-76.3773 1768.5639,-61.5803"/>
<polygon fill="#000000" stroke="#000000" points="1768.272,-58.064 1758.1267,-61.1175 1767.9618,-65.0571 1768.272,-58.064"/>
</g>
<!-- statictea&#45;&gt;version -->
<g id="edge99" class="edge">
<title>statictea&#45;&gt;version</title>
<path fill="none" stroke="#000000" d="M2924.1842,-1460.7798C2934.4095,-1400.5 2957.3715,-1251.0968 2957.3715,-1125 2957.3715,-1125 2957.3715,-1125 2957.3715,-785 2957.3715,-696.0791 2991.7686,-653.4301 2933.3715,-586.3726 2867.8867,-511.1762 2576.2341,-462.7614 2432.6994,-443.0607"/>
<polygon fill="#000000" stroke="#000000" points="2433.0062,-439.5703 2422.626,-441.6919 2432.0636,-446.5066 2433.0062,-439.5703"/>
</g>
<!-- parseCommandLine -->
<g id="node27" class="node">
<title>parseCommandLine</title>
<g id="a_node27"><a xlink:href="parseCommandLine.md" xlink:title="parseCommandLine.md">
<ellipse fill="#eee8aa" stroke="#000000" cx="848.3715" cy="-609" rx="148.8522" ry="22.7556"/>
<text text-anchor="middle" x="848.3715" y="-601.8" font-family="Times,serif" font-size="24.00" fill="#000000">parseCommandLine</text>
</a>
</g>
</g>
<!-- statictea&#45;&gt;parseCommandLine -->
<g id="edge7" class="edge">
<title>statictea&#45;&gt;parseCommandLine</title>
<path fill="none" stroke="#000000" d="M2836.6369,-1484.7952C2406.29,-1467.0557 443.3715,-1372.5722 443.3715,-1125 443.3715,-1125 443.3715,-1125 443.3715,-961 443.3715,-786.1213 661.1467,-678.4405 777.3117,-633.4415"/>
<polygon fill="#000000" stroke="#000000" points="778.7674,-636.6322 786.8607,-629.7949 776.2701,-630.0928 778.7674,-636.6322"/>
</g>
<!-- processTemplate -->
<g id="node28" class="node">
<title>processTemplate</title>
<g id="a_node28"><a xlink:href="processTemplate.md" xlink:title="processTemplate.md">
<ellipse fill="#eee8aa" stroke="#000000" cx="2245.3715" cy="-1301" rx="125.2054" ry="22.7556"/>
<text text-anchor="middle" x="2245.3715" y="-1293.8" font-family="Times,serif" font-size="24.00" fill="#000000">processTemplate</text>
</a>
</g>
</g>
<!-- statictea&#45;&gt;processTemplate -->
<g id="edge95" class="edge">
<title>statictea&#45;&gt;processTemplate</title>
<path fill="none" stroke="#000000" d="M2864.501,-1472.7763C2745.1046,-1439.65 2461.4012,-1360.937 2323.4193,-1322.6542"/>
<polygon fill="#000000" stroke="#000000" points="2324.3124,-1319.2698 2313.7407,-1319.9689 2322.4409,-1326.015 2324.3124,-1319.2698"/>
</g>
<!-- signatures&#45;&gt;vartypes -->
<g id="edge65" class="edge">
<title>signatures&#45;&gt;vartypes</title>
<path fill="none" stroke="#000000" d="M1061.8298,-763.2299C1091.1469,-735.6529 1139.4349,-685.2269 1164.3715,-631.6274 1189.6803,-577.2279 1197.2388,-506.7555 1199.4692,-466.0372"/>
<polygon fill="#000000" stroke="#000000" points="1202.9737,-466.0204 1199.9483,-455.8667 1195.9815,-465.6909 1202.9737,-466.0204"/>
</g>
<!-- signatures&#45;&gt;funtypes -->
<g id="edge66" class="edge">
<title>signatures&#45;&gt;funtypes</title>
<path fill="none" stroke="#000000" d="M1043.5484,-762.3514C1051.937,-731.5933 1066.9807,-676.4331 1076.5547,-641.3285"/>
<polygon fill="#000000" stroke="#000000" points="1079.9638,-642.1303 1079.2183,-631.5617 1073.2104,-640.2884 1079.9638,-642.1303"/>
</g>
<!-- signatures&#45;&gt;messages -->
<g id="edge67" class="edge">
<title>signatures&#45;&gt;messages</title>
<path fill="none" stroke="#000000" d="M963.5914,-775.8939C880.9427,-761.3143 750.6732,-724.2099 690.3715,-631.6274 668.8241,-598.5452 724.0093,-450.6166 764.3715,-404.5083 980.0341,-158.1431 1390.4808,-86.1755 1576.4884,-65.772"/>
<polygon fill="#000000" stroke="#000000" points="1576.9543,-69.2422 1586.5248,-64.6974 1576.209,-62.282 1576.9543,-69.2422"/>
</g>
<!-- opresultwarn&#45;&gt;warnings -->
<g id="edge44" class="edge">
<title>opresultwarn&#45;&gt;warnings</title>
<path fill="none" stroke="#000000" d="M642.4035,-415.3134C769.8738,-379.5456 1057.0352,-298.969 1185.3375,-262.9678"/>
<polygon fill="#000000" stroke="#000000" points="1186.3535,-266.3179 1195.036,-260.2464 1184.4623,-259.5782 1186.3535,-266.3179"/>
</g>
<!-- opresultwarn&#45;&gt;opresult -->
<g id="edge45" class="edge">
<title>opresultwarn&#45;&gt;opresult</title>
<path fill="none" stroke="#000000" d="M568.636,-410.3228C553.6761,-378.7219 526.3656,-321.0324 508.2905,-282.8513"/>
<polygon fill="#000000" stroke="#000000" points="511.3495,-281.1331 503.9072,-273.5923 505.0227,-284.1282 511.3495,-281.1331"/>
</g>
<!-- matches&#45;&gt;regexes -->
<g id="edge16" class="edge">
<title>matches&#45;&gt;regexes</title>
<path fill="none" stroke="#000000" d="M2115.6504,-586.3514C2105.7696,-557.3678 2088.5022,-506.7165 2076.5292,-471.596"/>
<polygon fill="#000000" stroke="#000000" points="2079.6902,-470.021 2073.1506,-461.6853 2073.0646,-472.2797 2079.6902,-470.021"/>
</g>
<!-- matches&#45;&gt;args -->
<g id="edge15" class="edge">
<title>matches&#45;&gt;args</title>
<path fill="none" stroke="#000000" d="M2134.0524,-586.3514C2147.7794,-557.2434 2171.8127,-506.2814 2188.3829,-471.1447"/>
<polygon fill="#000000" stroke="#000000" points="2191.744,-472.2229 2192.8438,-461.6853 2185.4127,-469.237 2191.744,-472.2229"/>
</g>
<!-- readjson -->
<g id="node26" class="node">
<title>readjson</title>
<g id="a_node26"><a xlink:href="readjson.md" xlink:title="readjson.md">
<ellipse fill="#eee8aa" stroke="#000000" cx="346.3715" cy="-785" rx="68.6102" ry="22.7556"/>
<text text-anchor="middle" x="346.3715" y="-777.8" font-family="Times,serif" font-size="24.00" fill="#000000">readjson</text>
</a>
</g>
</g>
<!-- readjson&#45;&gt;opresultid -->
<g id="edge74" class="edge">
<title>readjson&#45;&gt;opresultid</title>
<path fill="none" stroke="#000000" d="M331.9361,-762.7138C292.6831,-702.1126 183.9162,-534.1917 138.5989,-464.2282"/>
<polygon fill="#000000" stroke="#000000" points="141.2648,-461.9059 132.8907,-455.4155 135.3896,-465.7115 141.2648,-461.9059"/>
</g>
<!-- readjson&#45;&gt;unicodes -->
<g id="edge75" class="edge">
<title>readjson&#45;&gt;unicodes</title>
<path fill="none" stroke="#000000" d="M355.7655,-762.3514C368.5779,-731.4613 391.5987,-675.9592 406.1496,-640.8776"/>
<polygon fill="#000000" stroke="#000000" points="409.4152,-642.1396 410.0135,-631.5617 402.9493,-639.4577 409.4152,-642.1396"/>
</g>
<!-- readjson&#45;&gt;vartypes -->
<g id="edge72" class="edge">
<title>readjson&#45;&gt;vartypes</title>
<path fill="none" stroke="#000000" d="M376.4194,-764.4251C434.7155,-725.2528 568.1921,-639.1684 690.3715,-586.3726 843.4053,-520.2441 1033.8663,-471.1832 1133.1162,-447.9524"/>
<polygon fill="#000000" stroke="#000000" points="1134.0667,-451.3249 1143.014,-445.6507 1132.4811,-444.5068 1134.0667,-451.3249"/>
</g>
<!-- readjson&#45;&gt;utf8decoder -->
<g id="edge76" class="edge">
<title>readjson&#45;&gt;utf8decoder</title>
<path fill="none" stroke="#000000" d="M344.6208,-762.1755C340.0988,-703.2222 327.9891,-545.3472 322.3443,-471.7562"/>
<polygon fill="#000000" stroke="#000000" points="325.8147,-471.2349 321.56,-461.5319 318.8352,-471.7703 325.8147,-471.2349"/>
</g>
<!-- readjson&#45;&gt;messages -->
<g id="edge73" class="edge">
<title>readjson&#45;&gt;messages</title>
<path fill="none" stroke="#000000" d="M312.3339,-765.1218C240.9322,-721.1756 77.0189,-607.9454 15.3715,-461.4917 -32.8598,-346.9102 42.8517,-278.9156 150.3715,-216.5083 273.7872,-144.8745 1262.114,-81.8311 1576.6232,-63.4163"/>
<polygon fill="#000000" stroke="#000000" points="1576.8495,-66.9092 1586.6285,-62.8323 1576.4415,-59.9211 1576.8495,-66.9092"/>
</g>
<!-- parseCommandLine&#45;&gt;regexes -->
<g id="edge5" class="edge">
<title>parseCommandLine&#45;&gt;regexes</title>
<path fill="none" stroke="#000000" d="M956.1947,-593.3812C1195.6177,-558.6993 1767.2734,-475.8916 1980.9335,-444.9416"/>
<polygon fill="#000000" stroke="#000000" points="1981.7449,-448.3607 1991.1399,-443.4632 1980.7414,-441.433 1981.7449,-448.3607"/>
</g>
<!-- parseCommandLine&#45;&gt;cmdline -->
<g id="edge6" class="edge">
<title>parseCommandLine&#45;&gt;cmdline</title>
<path fill="none" stroke="#000000" d="M848.3715,-586.3514C848.3715,-557.4922 848.3715,-507.1509 848.3715,-472.049"/>
<polygon fill="#000000" stroke="#000000" points="851.8716,-471.6852 848.3715,-461.6853 844.8716,-471.6853 851.8716,-471.6852"/>
</g>
<!-- parseCommandLine&#45;&gt;warnings -->
<g id="edge4" class="edge">
<title>parseCommandLine&#45;&gt;warnings</title>
<path fill="none" stroke="#000000" d="M873.1532,-586.5049C942.9022,-523.1916 1140.8152,-343.5399 1218.001,-273.476"/>
<polygon fill="#000000" stroke="#000000" points="1220.4642,-275.967 1225.5162,-266.6542 1215.7593,-270.7839 1220.4642,-275.967"/>
</g>
<!-- parseCommandLine&#45;&gt;args -->
<g id="edge1" class="edge">
<title>parseCommandLine&#45;&gt;args</title>
<path fill="none" stroke="#000000" d="M955.3952,-593.1865C972.4345,-590.8091 989.8766,-588.4582 1006.3715,-586.3726 1511.1665,-522.5466 1653.9956,-597.2237 2144.3715,-461.4917 2150.0032,-459.9329 2155.7666,-457.917 2161.4017,-455.678"/>
<polygon fill="#000000" stroke="#000000" points="2162.8697,-458.8574 2170.7184,-451.7406 2160.1447,-452.4095 2162.8697,-458.8574"/>
</g>
<!-- parseCommandLine&#45;&gt;messages -->
<g id="edge2" class="edge">
<title>parseCommandLine&#45;&gt;messages</title>
<path fill="none" stroke="#000000" d="M860.1348,-586.414C896.2601,-519.2981 1012.5372,-319.3516 1166.3715,-216.5083 1293.7038,-131.3824 1469.2621,-89.9528 1576.5722,-71.3785"/>
<polygon fill="#000000" stroke="#000000" points="1577.4674,-74.7766 1586.7401,-69.6516 1576.2952,-67.8755 1577.4674,-74.7766"/>
</g>
<!-- processTemplate&#45;&gt;parseCmdLine -->
<g id="edge23" class="edge">
<title>processTemplate&#45;&gt;parseCmdLine</title>
<path fill="none" stroke="#000000" d="M2288.8273,-1279.6601C2370.5018,-1236.7835 2544.7627,-1131.4766 2612.3715,-983.6274 2642.6645,-917.3818 2568.6645,-849.2682 2518.3443,-812.5385"/>
<polygon fill="#000000" stroke="#000000" points="2520.3526,-809.6718 2510.1825,-806.7018 2516.2807,-815.3657 2520.3526,-809.6718"/>
</g>
<!-- processTemplate&#45;&gt;env -->
<g id="edge14" class="edge">
<title>processTemplate&#45;&gt;env</title>
<path fill="none" stroke="#000000" d="M2294.9664,-1280.1343C2352.8142,-1254.3294 2449.5418,-1206.5164 2520.3715,-1147.6274 2593.1835,-1087.0904 2604.4647,-1062.8234 2656.3715,-983.6274 2715.5391,-893.3534 2782.3716,-856.7589 2742.3715,-756.5083 2720.9008,-702.697 2669.4334,-657.2641 2635.2462,-631.5781"/>
<polygon fill="#000000" stroke="#000000" points="2637.0851,-628.5859 2626.9556,-625.4802 2632.9374,-634.2248 2637.0851,-628.5859"/>
</g>
<!-- processTemplate&#45;&gt;variables -->
<g id="edge81" class="edge">
<title>processTemplate&#45;&gt;variables</title>
<path fill="none" stroke="#000000" d="M2128.0594,-1292.9396C1942.9528,-1277.6101 1595.9193,-1237.4145 1516.3715,-1147.6274 1400.7813,-1017.1585 1411.7358,-913.5512 1487.3715,-756.5083 1515.1365,-698.8596 1577.6069,-656.753 1622.2687,-632.6183"/>
<polygon fill="#000000" stroke="#000000" points="1624.0202,-635.6515 1631.2287,-627.8869 1620.7515,-629.4615 1624.0202,-635.6515"/>
</g>
<!-- processTemplate&#45;&gt;vartypes -->
<g id="edge82" class="edge">
<title>processTemplate&#45;&gt;vartypes</title>
<path fill="none" stroke="#000000" d="M2139.7395,-1288.8396C1880.832,-1256.4968 1227.4865,-1158.6571 1114.3715,-983.6274 1103.4545,-966.7348 1112.0581,-958.3524 1114.3715,-938.3726 1130.4784,-799.2656 1165.3813,-770.0818 1186.3715,-631.6274 1195.1525,-573.7068 1198.4429,-505.4311 1199.664,-465.8903"/>
<polygon fill="#000000" stroke="#000000" points="1203.166,-465.8642 1199.9503,-455.7692 1196.1688,-465.6662 1203.166,-465.8642"/>
</g>
<!-- processTemplate&#45;&gt;replacement -->
<g id="edge94" class="edge">
<title>processTemplate&#45;&gt;replacement</title>
<path fill="none" stroke="#000000" d="M2234.7496,-1278.4283C2207.0756,-1219.6212 2132.6793,-1061.529 2100.5221,-993.1949"/>
<polygon fill="#000000" stroke="#000000" points="2103.5195,-991.3445 2096.0946,-983.7866 2097.1858,-994.3251 2103.5195,-991.3445"/>
</g>
<!-- processTemplate&#45;&gt;readlines -->
<g id="edge18" class="edge">
<title>processTemplate&#45;&gt;readlines</title>
<path fill="none" stroke="#000000" d="M2245.3418,-1278.1515C2244.801,-1220.3902 2240.433,-1064.1743 2210.3715,-938.3726 2200.6575,-897.7211 2182.4737,-853.4865 2168.6602,-823.0155"/>
<polygon fill="#000000" stroke="#000000" points="2171.7018,-821.2523 2164.3452,-813.628 2165.3416,-824.1759 2171.7018,-821.2523"/>
</g>
<!-- processTemplate&#45;&gt;collectCommand -->
<g id="edge29" class="edge">
<title>processTemplate&#45;&gt;collectCommand</title>
<path fill="none" stroke="#000000" d="M2260.707,-1278.4283C2300.825,-1219.3802 2408.9525,-1060.2315 2455.0657,-992.3592"/>
<polygon fill="#000000" stroke="#000000" points="2458.1653,-994.0251 2460.89,-983.7866 2452.3752,-990.0912 2458.1653,-994.0251"/>
</g>
<!-- processTemplate&#45;&gt;args -->
<g id="edge8" class="edge">
<title>processTemplate&#45;&gt;args</title>
<path fill="none" stroke="#000000" d="M2253.4322,-1278.2394C2263.5005,-1248.606 2280.2664,-1194.9966 2287.3715,-1147.6274 2325.948,-890.441 2248.1356,-578.7052 2217.7865,-471.4253"/>
<polygon fill="#000000" stroke="#000000" points="2221.1174,-470.3429 2215.0032,-461.6903 2214.3871,-472.2672 2221.1174,-470.3429"/>
</g>
<!-- processTemplate&#45;&gt;messages -->
<g id="edge9" class="edge">
<title>processTemplate&#45;&gt;messages</title>
<path fill="none" stroke="#000000" d="M2207.6324,-1279.3994C2130.7899,-1232.2821 1963.3715,-1112.269 1963.3715,-961 1963.3715,-961 1963.3715,-961 1963.3715,-433 1963.3715,-277.642 1805.5549,-147.7318 1722.3626,-90.043"/>
<polygon fill="#000000" stroke="#000000" points="1724.2922,-87.1225 1714.0647,-84.3568 1720.3353,-92.8968 1724.2922,-87.1225"/>
</g>
<!-- processTemplate&#45;&gt;matches -->
<g id="edge17" class="edge">
<title>processTemplate&#45;&gt;matches</title>
<path fill="none" stroke="#000000" d="M2250.5637,-1278.2532C2266.9588,-1201.6585 2312.5256,-947.2589 2242.3715,-756.5083 2224.6997,-708.4583 2184.5492,-664.3256 2155.7731,-637.0988"/>
<polygon fill="#000000" stroke="#000000" points="2158.0658,-634.4515 2148.3553,-630.2139 2153.3038,-639.5821 2158.0658,-634.4515"/>
</g>
<!-- processTemplate&#45;&gt;readjson -->
<g id="edge83" class="edge">
<title>processTemplate&#45;&gt;readjson</title>
<path fill="none" stroke="#000000" d="M2124.8149,-1294.7759C1764.9025,-1273.9329 707.0768,-1195.5598 447.3715,-983.6274 394.2609,-940.2865 366.2842,-861.7806 354.0929,-817.5555"/>
<polygon fill="#000000" stroke="#000000" points="357.4729,-816.6466 351.5269,-807.8776 350.7067,-818.4407 357.4729,-816.6466"/>
</g>
<!-- runCommand -->
<g id="node30" class="node">
<title>runCommand</title>
<g id="a_node30"><a xlink:href="runCommand.md" xlink:title="runCommand.md">
<ellipse fill="#eee8aa" stroke="#000000" cx="1630.3715" cy="-1125" rx="104.7872" ry="22.7556"/>
<text text-anchor="middle" x="1630.3715" y="-1117.8" font-family="Times,serif" font-size="24.00" fill="#000000">runCommand</text>
</a>
</g>
</g>
<!-- processTemplate&#45;&gt;runCommand -->
<g id="edge80" class="edge">
<title>processTemplate&#45;&gt;runCommand</title>
<path fill="none" stroke="#000000" d="M2178.385,-1281.8299C2062.108,-1248.5538 1823.8471,-1180.3686 1703.4527,-1145.9143"/>
<polygon fill="#000000" stroke="#000000" points="1704.1608,-1142.4765 1693.5838,-1143.09 1702.2348,-1149.2063 1704.1608,-1142.4765"/>
</g>
<!-- runCommand&#45;&gt;runFunction -->
<g id="edge71" class="edge">
<title>runCommand&#45;&gt;runFunction</title>
<path fill="none" stroke="#000000" d="M1580.1425,-1105.0543C1503.4003,-1074.5805 1357.3138,-1016.5703 1275.8907,-984.2376"/>
<polygon fill="#000000" stroke="#000000" points="1276.8764,-980.8632 1266.2906,-980.4255 1274.2929,-987.3691 1276.8764,-980.8632"/>
</g>
<!-- runCommand&#45;&gt;parseNumber -->
<g id="edge38" class="edge">
<title>runCommand&#45;&gt;parseNumber</title>
<path fill="none" stroke="#000000" d="M1630.3715,-1102.1637C1630.3715,-1045.0904 1630.3715,-895.7006 1630.3715,-824.2151"/>
<polygon fill="#000000" stroke="#000000" points="1633.8716,-823.8449 1630.3715,-813.845 1626.8716,-823.845 1633.8716,-823.8449"/>
</g>
<!-- runCommand&#45;&gt;regexes -->
<g id="edge32" class="edge">
<title>runCommand&#45;&gt;regexes</title>
<path fill="none" stroke="#000000" d="M1660.6425,-1103.2852C1694.7444,-1077.6639 1750.2438,-1032.3466 1787.3715,-983.6274 1919.1659,-810.6861 2015.7236,-565.0816 2049.8709,-471.3575"/>
<polygon fill="#000000" stroke="#000000" points="2053.2437,-472.3225 2053.3537,-461.7282 2046.661,-469.9416 2053.2437,-472.3225"/>
</g>
<!-- runCommand&#45;&gt;env -->
<g id="edge33" class="edge">
<title>runCommand&#45;&gt;env</title>
<path fill="none" stroke="#000000" d="M1733.2535,-1120.8038C1954.6438,-1110.0996 2467.886,-1075.8007 2612.3715,-983.6274 2707.0911,-923.2019 2761.2097,-862.2972 2723.3715,-756.5083 2705.349,-706.1205 2661.8814,-660.5812 2632.2638,-633.8396"/>
<polygon fill="#000000" stroke="#000000" points="2634.4917,-631.1375 2624.6836,-627.1309 2629.8524,-636.3794 2634.4917,-631.1375"/>
</g>
<!-- runCommand&#45;&gt;variables -->
<g id="edge47" class="edge">
<title>runCommand&#45;&gt;variables</title>
<path fill="none" stroke="#000000" d="M1611.1645,-1102.4108C1563.8522,-1043.8792 1449.5377,-883.0415 1506.3715,-756.5083 1530.9484,-701.791 1586.9659,-659.0989 1627.1301,-634.0258"/>
<polygon fill="#000000" stroke="#000000" points="1628.987,-636.9929 1635.6966,-628.7933 1625.3382,-631.0191 1628.987,-636.9929"/>
</g>
<!-- runCommand&#45;&gt;vartypes -->
<g id="edge35" class="edge">
<title>runCommand&#45;&gt;vartypes</title>
<path fill="none" stroke="#000000" d="M1589.6641,-1103.9783C1546.4616,-1079.9171 1478.5882,-1036.8731 1435.3715,-983.6274 1365.2467,-897.2292 1248.0275,-570.154 1211.5514,-465.451"/>
<polygon fill="#000000" stroke="#000000" points="1214.7685,-464.0459 1208.1808,-455.7481 1208.1562,-466.3429 1214.7685,-464.0459"/>
</g>
<!-- runCommand&#45;&gt;readlines -->
<g id="edge30" class="edge">
<title>runCommand&#45;&gt;readlines</title>
<path fill="none" stroke="#000000" d="M1724.2667,-1114.9958C1867.9869,-1097.5304 2131.866,-1056.2343 2188.3715,-983.6274 2224.7081,-936.9366 2196.7417,-865.6493 2173.3832,-822.3783"/>
<polygon fill="#000000" stroke="#000000" points="2176.4137,-820.6261 2168.4935,-813.5889 2170.2965,-824.0292 2176.4137,-820.6261"/>
</g>
<!-- runCommand&#45;&gt;funtypes -->
<g id="edge50" class="edge">
<title>runCommand&#45;&gt;funtypes</title>
<path fill="none" stroke="#000000" d="M1537.5103,-1114.525C1429.5551,-1099.0901 1249.0072,-1062.9762 1114.3715,-983.6274 1023.357,-929.9872 988.199,-911.3421 948.3715,-813.4917 919.8933,-743.5249 996.069,-672.6795 1045.9461,-635.5305"/>
<polygon fill="#000000" stroke="#000000" points="1048.296,-638.1487 1054.313,-629.4282 1044.1711,-632.4931 1048.296,-638.1487"/>
</g>
<!-- runCommand&#45;&gt;warnings -->
<g id="edge37" class="edge">
<title>runCommand&#45;&gt;warnings</title>
<path fill="none" stroke="#000000" d="M1606.4405,-1102.5655C1579.6064,-1076.2839 1536.3278,-1030.3619 1509.3715,-983.6274 1434.7158,-854.1957 1296.5667,-402.4386 1259.0095,-277.333"/>
<polygon fill="#000000" stroke="#000000" points="1262.3074,-276.1453 1256.0842,-267.5708 1255.602,-278.1547 1262.3074,-276.1453"/>
</g>
<!-- runCommand&#45;&gt;collectCommand -->
<g id="edge78" class="edge">
<title>runCommand&#45;&gt;collectCommand</title>
<path fill="none" stroke="#000000" d="M1708.4448,-1109.8652C1863.8565,-1079.7381 2211.4748,-1012.3511 2380.4678,-979.5913"/>
<polygon fill="#000000" stroke="#000000" points="2381.2003,-983.0145 2390.3514,-977.6753 2379.8681,-976.1424 2381.2003,-983.0145"/>
</g>
<!-- runCommand&#45;&gt;opresultwarn -->
<g id="edge79" class="edge">
<title>runCommand&#45;&gt;opresultwarn</title>
<path fill="none" stroke="#000000" d="M1541.2881,-1112.9818C1304.6656,-1079.0717 670.0381,-974.5146 546.3715,-813.4917 465.755,-708.5231 530.9204,-535.9173 563.5395,-464.9709"/>
<polygon fill="#000000" stroke="#000000" points="566.8323,-466.1926 567.9076,-455.6524 560.4941,-463.2214 566.8323,-466.1926"/>
</g>
<!-- runCommand&#45;&gt;messages -->
<g id="edge36" class="edge">
<title>runCommand&#45;&gt;messages</title>
<path fill="none" stroke="#000000" d="M1647.3371,-1102.4857C1685.2163,-1049.9061 1773.3715,-913.7127 1773.3715,-785 1773.3715,-785 1773.3715,-785 1773.3715,-433 1773.3715,-306.0793 1718.7611,-163.0521 1689.8527,-96.231"/>
<polygon fill="#000000" stroke="#000000" points="1693.0002,-94.6931 1685.7835,-86.9361 1686.5877,-97.5004 1693.0002,-94.6931"/>
</g>
<!-- runCommand&#45;&gt;matches -->
<g id="edge31" class="edge">
<title>runCommand&#45;&gt;matches</title>
<path fill="none" stroke="#000000" d="M1675.7535,-1104.6017C1725.66,-1080.6432 1806.3287,-1037.2745 1863.3715,-983.6274 1977.9382,-875.8808 2071.2633,-709.7649 2107.3243,-640.7516"/>
<polygon fill="#000000" stroke="#000000" points="2110.5349,-642.1631 2112.0289,-631.6741 2104.32,-638.9421 2110.5349,-642.1631"/>
</g>
<!-- runCommand&#45;&gt;readjson -->
<g id="edge77" class="edge">
<title>runCommand&#45;&gt;readjson</title>
<path fill="none" stroke="#000000" d="M1526.7447,-1121.8313C1282.7232,-1112.8196 679.3877,-1081.0522 505.3715,-983.6274 435.9246,-944.7469 385.4694,-862.1991 361.6752,-816.7149"/>
<polygon fill="#000000" stroke="#000000" points="364.6802,-814.9044 357.0052,-807.6007 358.4504,-818.0965 364.6802,-814.9044"/>
</g>
</g>
</svg>
