<?xml version="1.0" encoding="UTF-8" standalone="no"?>
<!DOCTYPE svg PUBLIC "-//W3C//DTD SVG 1.1//EN"
 "http://www.w3.org/Graphics/SVG/1.1/DTD/svg11.dtd">
<!-- Generated by graphviz version 2.40.1 (20161225.0304)
 -->
<!-- Title: statictea Pages: 1 -->
<svg width="635pt" height="1404pt"
 viewBox="0.00 0.00 634.97 1404.49" xmlns="http://www.w3.org/2000/svg" xmlns:xlink="http://www.w3.org/1999/xlink">
<g id="graph0" class="graph" transform="scale(1 1) rotate(0) translate(4 1400.4917)">
<title>statictea</title>
<polygon fill="#ffffff" stroke="transparent" points="-4,4 -4,-1400.4917 630.9693,-1400.4917 630.9693,4 -4,4"/>
<!-- strutils -->
<g id="node1" class="node">
<title>strutils</title>
<ellipse fill="none" stroke="#000000" cx="87.6672" cy="-828" rx="57.5374" ry="22.7556"/>
<text text-anchor="middle" x="87.6672" y="-820.8" font-family="Times,serif" font-size="24.00" fill="#000000">strutils</text>
</g>
<!-- statictea -->
<g id="node2" class="node">
<title>statictea</title>
<ellipse fill="none" stroke="#000000" cx="545.1518" cy="-666" rx="39.154" ry="18"/>
<text text-anchor="middle" x="545.1518" y="-661.8" font-family="Times,serif" font-size="14.00" fill="#000000">statictea</text>
</g>
<!-- strutils&#45;&gt;statictea -->
<g id="edge1" class="edge">
<title>strutils&#45;&gt;statictea</title>
<path fill="none" stroke="#000000" d="M129.7934,-812.4537C199.1433,-786.9527 341.7913,-734.8856 463.3343,-693 476.2939,-688.5339 490.4595,-683.8055 503.307,-679.5747"/>
<polygon fill="#000000" stroke="#000000" points="504.4225,-682.8924 512.8329,-676.4491 502.2401,-676.2413 504.4225,-682.8924"/>
</g>
<!-- warnings -->
<g id="node9" class="node">
<title>warnings</title>
<ellipse fill="none" stroke="#000000" cx="545.1518" cy="-1206" rx="42.5542" ry="18"/>
<text text-anchor="middle" x="545.1518" y="-1201.8" font-family="Times,serif" font-size="14.00" fill="#000000">warnings</text>
</g>
<!-- strutils&#45;&gt;warnings -->
<g id="edge6" class="edge">
<title>strutils&#45;&gt;warnings</title>
<path fill="none" stroke="#000000" d="M108.0502,-849.3104C173.8639,-917.7439 381.1785,-1130.2981 463.3343,-1179 473.8893,-1185.257 486.0807,-1190.2763 497.7762,-1194.2088"/>
<polygon fill="#000000" stroke="#000000" points="496.8471,-1197.5857 507.4369,-1197.2598 498.9552,-1190.9107 496.8471,-1197.5857"/>
</g>
<!-- cmdline -->
<g id="node12" class="node">
<title>cmdline</title>
<ellipse fill="none" stroke="#000000" cx="545.1518" cy="-828" rx="38.6869" ry="18"/>
<text text-anchor="middle" x="545.1518" y="-823.8" font-family="Times,serif" font-size="14.00" fill="#000000">cmdline</text>
</g>
<!-- strutils&#45;&gt;cmdline -->
<g id="edge12" class="edge">
<title>strutils&#45;&gt;cmdline</title>
<path fill="none" stroke="#000000" d="M145.6079,-828C236.5463,-828 411.1627,-828 496.2021,-828"/>
<polygon fill="#000000" stroke="#000000" points="496.3628,-831.5001 506.3627,-828 496.3627,-824.5001 496.3628,-831.5001"/>
</g>
<!-- processTemplate -->
<g id="node14" class="node">
<title>processTemplate</title>
<ellipse fill="none" stroke="#000000" cx="545.1518" cy="-720" rx="69.306" ry="18"/>
<text text-anchor="middle" x="545.1518" y="-715.8" font-family="Times,serif" font-size="14.00" fill="#000000">processTemplate</text>
</g>
<!-- strutils&#45;&gt;processTemplate -->
<g id="edge17" class="edge">
<title>strutils&#45;&gt;processTemplate</title>
<path fill="none" stroke="#000000" d="M137.0607,-816.3395C221.129,-796.4932 391.8123,-756.1994 483.5442,-734.5439"/>
<polygon fill="#000000" stroke="#000000" points="484.5906,-737.8932 493.5189,-732.1892 482.9823,-731.0804 484.5906,-737.8932"/>
</g>
<!-- env -->
<g id="node15" class="node">
<title>env</title>
<ellipse fill="none" stroke="#000000" cx="545.1518" cy="-342" rx="27" ry="18"/>
<text text-anchor="middle" x="545.1518" y="-337.8" font-family="Times,serif" font-size="14.00" fill="#000000">env</text>
</g>
<!-- strutils&#45;&gt;env -->
<g id="edge22" class="edge">
<title>strutils&#45;&gt;env</title>
<path fill="none" stroke="#000000" d="M131.3679,-812.9745C146.3279,-806.4869 162.5101,-797.8561 175.3343,-787 347.5258,-641.2348 282.7995,-504.2943 463.3343,-369 476.5608,-359.0879 493.6129,-352.7023 508.7236,-348.6455"/>
<polygon fill="#000000" stroke="#000000" points="509.9141,-351.9581 518.8039,-346.1944 508.2601,-345.1563 509.9141,-351.9581"/>
</g>
<!-- tempFile -->
<g id="node17" class="node">
<title>tempFile</title>
<ellipse fill="none" stroke="#000000" cx="545.1518" cy="-450" rx="41.5938" ry="18"/>
<text text-anchor="middle" x="545.1518" y="-445.8" font-family="Times,serif" font-size="14.00" fill="#000000">tempFile</text>
</g>
<!-- strutils&#45;&gt;tempFile -->
<g id="edge25" class="edge">
<title>strutils&#45;&gt;tempFile</title>
<path fill="none" stroke="#000000" d="M129.6365,-812.2986C144.7536,-805.6536 161.4842,-797.0943 175.3343,-787 327.3129,-676.2334 305.0528,-578.5563 463.3343,-477 473.7599,-470.3108 486.002,-465.1239 497.7945,-461.1674"/>
<polygon fill="#000000" stroke="#000000" points="499.0398,-464.4454 507.5447,-458.1274 496.9562,-457.7627 499.0398,-464.4454"/>
</g>
<!-- matches -->
<g id="node20" class="node">
<title>matches</title>
<ellipse fill="none" stroke="#000000" cx="545.1518" cy="-1152" rx="39.1627" ry="18"/>
<text text-anchor="middle" x="545.1518" y="-1147.8" font-family="Times,serif" font-size="14.00" fill="#000000">matches</text>
</g>
<!-- strutils&#45;&gt;matches -->
<g id="edge30" class="edge">
<title>strutils&#45;&gt;matches</title>
<path fill="none" stroke="#000000" d="M108.9842,-849.4377C163.378,-903.0492 313.6284,-1044.404 463.3343,-1125 474.9738,-1131.2662 488.3275,-1136.4238 500.8247,-1140.4913"/>
<polygon fill="#000000" stroke="#000000" points="500.0268,-1143.9081 510.6145,-1143.52 502.0957,-1137.2208 500.0268,-1143.9081"/>
</g>
<!-- runCommand -->
<g id="node23" class="node">
<title>runCommand</title>
<ellipse fill="none" stroke="#000000" cx="545.1518" cy="-1098" rx="58.9841" ry="18"/>
<text text-anchor="middle" x="545.1518" y="-1093.8" font-family="Times,serif" font-size="14.00" fill="#000000">runCommand</text>
</g>
<!-- strutils&#45;&gt;runCommand -->
<g id="edge37" class="edge">
<title>strutils&#45;&gt;runCommand</title>
<path fill="none" stroke="#000000" d="M114.0611,-848.5076C173.4935,-893.8917 323.5611,-1004.0922 463.3343,-1071 472.3401,-1075.311 482.2119,-1079.2094 491.886,-1082.6175"/>
<polygon fill="#000000" stroke="#000000" points="490.8604,-1085.9654 501.4547,-1085.8592 493.1065,-1079.3355 490.8604,-1085.9654"/>
</g>
<!-- vartypes -->
<g id="node24" class="node">
<title>vartypes</title>
<ellipse fill="none" stroke="#000000" cx="545.1518" cy="-1314" rx="40.1317" ry="18"/>
<text text-anchor="middle" x="545.1518" y="-1309.8" font-family="Times,serif" font-size="14.00" fill="#000000">vartypes</text>
</g>
<!-- strutils&#45;&gt;vartypes -->
<g id="edge40" class="edge">
<title>strutils&#45;&gt;vartypes</title>
<path fill="none" stroke="#000000" d="M106.2963,-849.5689C124.1523,-870.3174 151.7911,-902.6294 175.3343,-931 305.2986,-1087.6128 295.9053,-1171.303 463.3343,-1287 473.9181,-1294.3136 486.6254,-1299.7606 498.8347,-1303.7696"/>
<polygon fill="#000000" stroke="#000000" points="497.8843,-1307.1387 508.4694,-1306.6847 499.9115,-1300.4387 497.8843,-1307.1387"/>
</g>
<!-- variables -->
<g id="node27" class="node">
<title>variables</title>
<ellipse fill="none" stroke="#000000" cx="545.1518" cy="-1044" rx="42.0524" ry="18"/>
<text text-anchor="middle" x="545.1518" y="-1039.8" font-family="Times,serif" font-size="14.00" fill="#000000">variables</text>
</g>
<!-- strutils&#45;&gt;variables -->
<g id="edge43" class="edge">
<title>strutils&#45;&gt;variables</title>
<path fill="none" stroke="#000000" d="M120.5673,-846.6341C184.9702,-882.6387 332.8017,-962.9713 463.3343,-1017 475.3303,-1021.9653 488.5971,-1026.6674 500.8941,-1030.714"/>
<polygon fill="#000000" stroke="#000000" points="499.9137,-1034.0752 510.5052,-1033.8112 502.0608,-1027.4126 499.9137,-1034.0752"/>
</g>
<!-- runFunction -->
<g id="node28" class="node">
<title>runFunction</title>
<ellipse fill="none" stroke="#000000" cx="545.1518" cy="-612" rx="53.1797" ry="18"/>
<text text-anchor="middle" x="545.1518" y="-607.8" font-family="Times,serif" font-size="14.00" fill="#000000">runFunction</text>
</g>
<!-- strutils&#45;&gt;runFunction -->
<g id="edge48" class="edge">
<title>strutils&#45;&gt;runFunction</title>
<path fill="none" stroke="#000000" d="M125.3553,-810.7481C140.8943,-803.5381 159.0427,-794.9922 175.3343,-787 304.5368,-723.6168 330.5995,-694.6074 463.3343,-639 473.4745,-634.7519 484.5363,-630.7175 495.1547,-627.1242"/>
<polygon fill="#000000" stroke="#000000" points="496.3464,-630.4167 504.7425,-623.9549 494.1493,-623.7704 496.3464,-630.4167"/>
</g>
<!-- unicodes -->
<g id="node32" class="node">
<title>unicodes</title>
<ellipse fill="none" stroke="#000000" cx="545.1518" cy="-558" rx="41.5852" ry="18"/>
<text text-anchor="middle" x="545.1518" y="-553.8" font-family="Times,serif" font-size="14.00" fill="#000000">unicodes</text>
</g>
<!-- strutils&#45;&gt;unicodes -->
<g id="edge53" class="edge">
<title>strutils&#45;&gt;unicodes</title>
<path fill="none" stroke="#000000" d="M127.2498,-811.2564C142.5721,-804.3209 160.0641,-795.8358 175.3343,-787 310.6589,-708.6973 323.6032,-655.1376 463.3343,-585 474.6138,-579.3383 487.3459,-574.4757 499.3478,-570.5004"/>
<polygon fill="#000000" stroke="#000000" points="500.7362,-573.7319 509.2096,-567.3719 498.6194,-567.0596 500.7362,-573.7319"/>
</g>
<!-- signatures -->
<g id="node33" class="node">
<title>signatures</title>
<ellipse fill="none" stroke="#000000" cx="545.1518" cy="-990" rx="45.9286" ry="18"/>
<text text-anchor="middle" x="545.1518" y="-985.8" font-family="Times,serif" font-size="14.00" fill="#000000">signatures</text>
</g>
<!-- strutils&#45;&gt;signatures -->
<g id="edge55" class="edge">
<title>strutils&#45;&gt;signatures</title>
<path fill="none" stroke="#000000" d="M129.7934,-843.5463C199.1433,-869.0473 341.7913,-921.1144 463.3343,-963 475.1559,-967.0739 487.981,-971.3662 499.8939,-975.2998"/>
<polygon fill="#000000" stroke="#000000" points="499.051,-978.707 509.644,-978.507 501.2384,-972.0575 499.051,-978.707"/>
</g>
<!-- replacement -->
<g id="node34" class="node">
<title>replacement</title>
<ellipse fill="none" stroke="#000000" cx="545.1518" cy="-234" rx="53.1281" ry="18"/>
<text text-anchor="middle" x="545.1518" y="-229.8" font-family="Times,serif" font-size="14.00" fill="#000000">replacement</text>
</g>
<!-- strutils&#45;&gt;replacement -->
<g id="edge60" class="edge">
<title>strutils&#45;&gt;replacement</title>
<path fill="none" stroke="#000000" d="M132.4562,-813.4962C147.3459,-807.0935 163.2048,-798.3829 175.3343,-787 369.683,-604.6141 258.5089,-431.5362 463.3343,-261 470.7568,-254.8201 479.6401,-250.04 488.775,-246.3467"/>
<polygon fill="#000000" stroke="#000000" points="490.1284,-249.579 498.3351,-242.8782 487.7409,-242.9987 490.1284,-249.579"/>
</g>
<!-- startingvars -->
<g id="node37" class="node">
<title>startingvars</title>
<ellipse fill="none" stroke="#000000" cx="545.1518" cy="-882" rx="51.2329" ry="18"/>
<text text-anchor="middle" x="545.1518" y="-877.8" font-family="Times,serif" font-size="14.00" fill="#000000">startingvars</text>
</g>
<!-- strutils&#45;&gt;startingvars -->
<g id="edge67" class="edge">
<title>strutils&#45;&gt;startingvars</title>
<path fill="none" stroke="#000000" d="M142.8505,-834.5137C229.6039,-844.7537 397.1569,-864.5312 486.192,-875.0406"/>
<polygon fill="#000000" stroke="#000000" points="486.0472,-878.5477 496.3885,-876.2441 486.8678,-871.596 486.0472,-878.5477"/>
</g>
<!-- codefile -->
<g id="node38" class="node">
<title>codefile</title>
<ellipse fill="none" stroke="#000000" cx="545.1518" cy="-504" rx="38.2024" ry="18"/>
<text text-anchor="middle" x="545.1518" y="-499.8" font-family="Times,serif" font-size="14.00" fill="#000000">codefile</text>
</g>
<!-- strutils&#45;&gt;codefile -->
<g id="edge71" class="edge">
<title>strutils&#45;&gt;codefile</title>
<path fill="none" stroke="#000000" d="M128.2465,-811.9617C143.5319,-805.1741 160.7374,-796.6063 175.3343,-787 318.3927,-692.8529 314.9431,-616.4952 463.3343,-531 474.8906,-524.3419 488.3221,-519.0464 500.9208,-514.972"/>
<polygon fill="#000000" stroke="#000000" points="502.2488,-518.2263 510.7944,-511.9635 500.2084,-511.5303 502.2488,-518.2263"/>
</g>
<!-- repl -->
<g id="node40" class="node">
<title>repl</title>
<ellipse fill="none" stroke="#000000" cx="545.1518" cy="-1260" rx="27" ry="18"/>
<text text-anchor="middle" x="545.1518" y="-1255.8" font-family="Times,serif" font-size="14.00" fill="#000000">repl</text>
</g>
<!-- strutils&#45;&gt;repl -->
<g id="edge75" class="edge">
<title>strutils&#45;&gt;repl</title>
<path fill="none" stroke="#000000" d="M106.4108,-849.4291C176.1955,-929.0391 419.203,-1204.6601 463.3343,-1233 477.1398,-1241.8655 494.1352,-1248.0906 509.0526,-1252.3104"/>
<polygon fill="#000000" stroke="#000000" points="508.4222,-1255.7635 518.9833,-1254.9192 510.2008,-1248.9932 508.4222,-1255.7635"/>
</g>
<!-- options -->
<g id="node3" class="node">
<title>options</title>
<ellipse fill="none" stroke="#000000" cx="87.6672" cy="-755" rx="61.0788" ry="22.7556"/>
<text text-anchor="middle" x="87.6672" y="-747.8" font-family="Times,serif" font-size="24.00" fill="#000000">options</text>
</g>
<!-- parseCommandLine -->
<g id="node4" class="node">
<title>parseCommandLine</title>
<ellipse fill="none" stroke="#000000" cx="545.1518" cy="-774" rx="81.6354" ry="18"/>
<text text-anchor="middle" x="545.1518" y="-769.8" font-family="Times,serif" font-size="14.00" fill="#000000">parseCommandLine</text>
</g>
<!-- options&#45;&gt;parseCommandLine -->
<g id="edge2" class="edge">
<title>options&#45;&gt;parseCommandLine</title>
<path fill="none" stroke="#000000" d="M148.8909,-757.5427C227.3117,-760.7996 363.8822,-766.4716 454.4072,-770.2312"/>
<polygon fill="#000000" stroke="#000000" points="454.5258,-773.7391 464.6624,-770.6572 454.8163,-766.7451 454.5258,-773.7391"/>
</g>
<!-- regexes -->
<g id="node11" class="node">
<title>regexes</title>
<ellipse fill="none" stroke="#000000" cx="545.1518" cy="-1368" rx="37.2248" ry="18"/>
<text text-anchor="middle" x="545.1518" y="-1363.8" font-family="Times,serif" font-size="14.00" fill="#000000">regexes</text>
</g>
<!-- options&#45;&gt;regexes -->
<g id="edge8" class="edge">
<title>options&#45;&gt;regexes</title>
<path fill="none" stroke="#000000" d="M133.9084,-769.9905C148.4062,-776.3284 163.6544,-784.8753 175.3343,-796 373.7128,-984.9486 254.0969,-1164.1517 463.3343,-1341 473.7123,-1349.7715 487.0277,-1355.7177 499.8889,-1359.7392"/>
<polygon fill="#000000" stroke="#000000" points="499.0057,-1363.1265 509.5792,-1362.4542 500.8943,-1356.386 499.0057,-1363.1265"/>
</g>
<!-- options&#45;&gt;processTemplate -->
<g id="edge15" class="edge">
<title>options&#45;&gt;processTemplate</title>
<path fill="none" stroke="#000000" d="M147.9457,-750.3884C230.2991,-744.0879 378.0252,-732.7861 468.2571,-725.8828"/>
<polygon fill="#000000" stroke="#000000" points="468.7226,-729.3576 478.4264,-725.1048 468.1885,-722.378 468.7226,-729.3576"/>
</g>
<!-- options&#45;&gt;env -->
<g id="edge21" class="edge">
<title>options&#45;&gt;env</title>
<path fill="none" stroke="#000000" d="M130.805,-738.7504C145.7121,-732.0239 162.0048,-723.3509 175.3343,-713 332.8224,-590.7032 298.3455,-480.9719 463.3343,-369 476.9101,-359.7866 493.8727,-353.5117 508.8275,-349.3487"/>
<polygon fill="#000000" stroke="#000000" points="509.9762,-352.6675 518.7938,-346.7938 508.2379,-345.8867 509.9762,-352.6675"/>
</g>
<!-- options&#45;&gt;tempFile -->
<g id="edge26" class="edge">
<title>options&#45;&gt;tempFile</title>
<path fill="none" stroke="#000000" d="M128.4634,-737.9247C143.6121,-730.9524 160.6682,-722.331 175.3343,-713 314.9574,-624.1683 318.3147,-556.7182 463.3343,-477 474.3942,-470.9203 487.0514,-465.9153 499.0516,-461.9369"/>
<polygon fill="#000000" stroke="#000000" points="500.4357,-465.1708 508.9277,-458.8354 498.3384,-458.4924 500.4357,-465.1708"/>
</g>
<!-- readlines -->
<g id="node19" class="node">
<title>readlines</title>
<ellipse fill="none" stroke="#000000" cx="545.1518" cy="-396" rx="42.0524" ry="18"/>
<text text-anchor="middle" x="545.1518" y="-391.8" font-family="Times,serif" font-size="14.00" fill="#000000">readlines</text>
</g>
<!-- options&#45;&gt;readlines -->
<g id="edge29" class="edge">
<title>options&#45;&gt;readlines</title>
<path fill="none" stroke="#000000" d="M129.8835,-738.3128C144.8633,-731.4938 161.4399,-722.8736 175.3343,-713 323.4045,-607.7785 308.8364,-518.534 463.3343,-423 473.8698,-416.4853 486.1508,-411.3601 497.9455,-407.4071"/>
<polygon fill="#000000" stroke="#000000" points="499.1916,-410.6846 507.6897,-404.3575 497.1008,-404.0042 499.1916,-410.6846"/>
</g>
<!-- options&#45;&gt;matches -->
<g id="edge32" class="edge">
<title>options&#45;&gt;matches</title>
<path fill="none" stroke="#000000" d="M131.1396,-771.0696C145.9148,-777.6087 162.038,-786.0048 175.3343,-796 330.6712,-912.7706 301.3442,-1017.6494 463.3343,-1125 474.255,-1132.2371 487.2801,-1137.6826 499.6914,-1141.7153"/>
<polygon fill="#000000" stroke="#000000" points="498.8772,-1145.1252 509.4615,-1144.6537 500.8933,-1138.4218 498.8772,-1145.1252"/>
</g>
<!-- parseCmdLine -->
<g id="node21" class="node">
<title>parseCmdLine</title>
<ellipse fill="none" stroke="#000000" cx="545.1518" cy="-936" rx="62.3407" ry="18"/>
<text text-anchor="middle" x="545.1518" y="-931.8" font-family="Times,serif" font-size="14.00" fill="#000000">parseCmdLine</text>
</g>
<!-- options&#45;&gt;parseCmdLine -->
<g id="edge33" class="edge">
<title>options&#45;&gt;parseCmdLine</title>
<path fill="none" stroke="#000000" d="M127.3354,-772.3396C195.4655,-801.8767 339.3608,-863.1979 463.3343,-909 472.9104,-912.5379 483.1958,-916.1084 493.1317,-919.4428"/>
<polygon fill="#000000" stroke="#000000" points="492.3183,-922.8605 502.9118,-922.6884 494.5232,-916.2168 492.3183,-922.8605"/>
</g>
<!-- options&#45;&gt;runCommand -->
<g id="edge36" class="edge">
<title>options&#45;&gt;runCommand</title>
<path fill="none" stroke="#000000" d="M130.2044,-771.5521C145.055,-778.1833 161.4657,-786.5144 175.3343,-796 321.4146,-895.9141 311.5845,-979.9271 463.3343,-1071 471.3402,-1075.8047 480.3063,-1079.8716 489.2885,-1083.2749"/>
<polygon fill="#000000" stroke="#000000" points="488.4019,-1086.6738 498.9967,-1086.7108 490.7374,-1080.0749 488.4019,-1086.6738"/>
</g>
<!-- parseNumber -->
<g id="node25" class="node">
<title>parseNumber</title>
<ellipse fill="none" stroke="#000000" cx="545.1518" cy="-180" rx="57.9892" ry="18"/>
<text text-anchor="middle" x="545.1518" y="-175.8" font-family="Times,serif" font-size="14.00" fill="#000000">parseNumber</text>
</g>
<!-- options&#45;&gt;parseNumber -->
<g id="edge41" class="edge">
<title>options&#45;&gt;parseNumber</title>
<path fill="none" stroke="#000000" d="M132.8006,-739.6363C147.5503,-733.0717 163.2337,-724.2744 175.3343,-713 364.6578,-536.6038 263.1146,-370.924 463.3343,-207 470.2297,-201.3546 478.347,-196.8745 486.744,-193.3231"/>
<polygon fill="#000000" stroke="#000000" points="488.1879,-196.5187 496.2931,-189.6954 485.7019,-189.9749 488.1879,-196.5187"/>
</g>
<!-- options&#45;&gt;variables -->
<g id="edge44" class="edge">
<title>options&#45;&gt;variables</title>
<path fill="none" stroke="#000000" d="M128.7718,-771.9988C143.7952,-778.7842 160.6877,-787.1007 175.3343,-796 313.2205,-879.7796 320.7213,-941.5472 463.3343,-1017 474.3866,-1022.8475 486.9449,-1027.755 498.8471,-1031.713"/>
<polygon fill="#000000" stroke="#000000" points="498.0532,-1035.1328 508.6433,-1034.8142 500.1659,-1028.4592 498.0532,-1035.1328"/>
</g>
<!-- options&#45;&gt;runFunction -->
<g id="edge46" class="edge">
<title>options&#45;&gt;runFunction</title>
<path fill="none" stroke="#000000" d="M134.4761,-740.3685C221.5297,-713.1574 407.5174,-655.0216 496.1808,-627.3073"/>
<polygon fill="#000000" stroke="#000000" points="497.4867,-630.5662 505.987,-624.2421 495.3982,-623.885 497.4867,-630.5662"/>
</g>
<!-- options&#45;&gt;signatures -->
<g id="edge56" class="edge">
<title>options&#45;&gt;signatures</title>
<path fill="none" stroke="#000000" d="M126.8674,-772.4387C142.1398,-779.4648 159.6976,-787.8302 175.3343,-796 306.4759,-864.5187 328.3592,-902.3811 463.3343,-963 474.2044,-967.8819 486.2323,-972.34 497.6447,-976.1654"/>
<polygon fill="#000000" stroke="#000000" points="496.8786,-979.5966 507.4708,-979.359 499.0423,-972.9394 496.8786,-979.5966"/>
</g>
<!-- options&#45;&gt;replacement -->
<g id="edge57" class="edge">
<title>options&#45;&gt;replacement</title>
<path fill="none" stroke="#000000" d="M132.4838,-739.2876C147.2081,-732.6951 162.9564,-723.9693 175.3343,-713 353.6072,-555.0155 275.3204,-407.257 463.3343,-261 471.0453,-255.0016 480.1472,-250.3064 489.4284,-246.64"/>
<polygon fill="#000000" stroke="#000000" points="490.8746,-249.8401 499.1145,-243.1801 488.5199,-243.248 490.8746,-249.8401"/>
</g>
<!-- options&#45;&gt;codefile -->
<g id="edge68" class="edge">
<title>options&#45;&gt;codefile</title>
<path fill="none" stroke="#000000" d="M127.0028,-737.3519C142.293,-730.1825 159.8274,-721.576 175.3343,-713 307.8374,-639.7201 326.415,-595.6537 463.3343,-531 475.5011,-525.2548 489.2194,-520.2134 501.8967,-516.0907"/>
<polygon fill="#000000" stroke="#000000" points="503.2978,-519.3193 511.7908,-512.9853 501.2016,-512.6405 503.2978,-519.3193"/>
</g>
<!-- options&#45;&gt;repl -->
<g id="edge74" class="edge">
<title>options&#45;&gt;repl</title>
<path fill="none" stroke="#000000" d="M132.8437,-770.4675C147.4313,-776.8745 163.0039,-785.342 175.3343,-796 351.3135,-948.1104 278.642,-1091.5963 463.3343,-1233 476.458,-1243.0478 493.496,-1249.4519 508.624,-1253.486"/>
<polygon fill="#000000" stroke="#000000" points="508.1792,-1256.9788 518.7205,-1255.9157 509.817,-1250.1731 508.1792,-1256.9788"/>
</g>
<!-- tables -->
<g id="node5" class="node">
<title>tables</title>
<ellipse fill="none" stroke="#000000" cx="87.6672" cy="-963" rx="50.796" ry="22.7556"/>
<text text-anchor="middle" x="87.6672" y="-955.8" font-family="Times,serif" font-size="24.00" fill="#000000">tables</text>
</g>
<!-- tables&#45;&gt;parseCommandLine -->
<g id="edge3" class="edge">
<title>tables&#45;&gt;parseCommandLine</title>
<path fill="none" stroke="#000000" d="M122.9774,-946.5268C189.0471,-915.9841 336.1805,-849.2889 463.3343,-801 471.2743,-797.9846 479.7172,-794.9786 488.0492,-792.1261"/>
<polygon fill="#000000" stroke="#000000" points="489.3857,-795.3692 497.7427,-788.8567 487.1485,-788.7363 489.3857,-795.3692"/>
</g>
<!-- tables&#45;&gt;regexes -->
<g id="edge9" class="edge">
<title>tables&#45;&gt;regexes</title>
<path fill="none" stroke="#000000" d="M103.3502,-984.8738C150.4487,-1049.0269 297.6677,-1238.6016 463.3343,-1341 474.8929,-1348.1443 488.551,-1353.6182 501.363,-1357.7075"/>
<polygon fill="#000000" stroke="#000000" points="500.3633,-1361.0616 510.9467,-1360.5694 502.3663,-1354.3543 500.3633,-1361.0616"/>
</g>
<!-- tables&#45;&gt;cmdline -->
<g id="edge11" class="edge">
<title>tables&#45;&gt;cmdline</title>
<path fill="none" stroke="#000000" d="M130.2954,-950.4208C217.4568,-924.7001 415.1829,-866.3528 502.4264,-840.6079"/>
<polygon fill="#000000" stroke="#000000" points="503.6555,-843.8945 512.256,-837.7073 501.6743,-837.1807 503.6555,-843.8945"/>
</g>
<!-- tables&#45;&gt;processTemplate -->
<g id="edge16" class="edge">
<title>tables&#45;&gt;processTemplate</title>
<path fill="none" stroke="#000000" d="M115.8368,-944.1212C176.9847,-903.7527 327.3379,-807.7785 463.3343,-747 471.4704,-743.3639 480.2509,-739.9578 488.9352,-736.8717"/>
<polygon fill="#000000" stroke="#000000" points="490.3411,-740.0895 498.6597,-733.5281 488.065,-733.4699 490.3411,-740.0895"/>
</g>
<!-- tables&#45;&gt;matches -->
<g id="edge31" class="edge">
<title>tables&#45;&gt;matches</title>
<path fill="none" stroke="#000000" d="M122.9774,-979.4732C189.0471,-1010.0159 336.1805,-1076.7111 463.3343,-1125 475.9129,-1129.7769 489.7535,-1134.5305 502.4163,-1138.6872"/>
<polygon fill="#000000" stroke="#000000" points="501.6805,-1142.1279 512.2725,-1141.882 503.8389,-1135.469 501.6805,-1142.1279"/>
</g>
<!-- tables&#45;&gt;parseCmdLine -->
<g id="edge34" class="edge">
<title>tables&#45;&gt;parseCmdLine</title>
<path fill="none" stroke="#000000" d="M138.374,-960.0074C219.9952,-955.1902 380.7639,-945.7019 473.882,-940.2062"/>
<polygon fill="#000000" stroke="#000000" points="474.2849,-943.6886 484.0613,-939.6055 473.8725,-936.7008 474.2849,-943.6886"/>
</g>
<!-- tables&#45;&gt;runCommand -->
<g id="edge38" class="edge">
<title>tables&#45;&gt;runCommand</title>
<path fill="none" stroke="#000000" d="M130.2954,-975.5792C214.4268,-1000.4057 401.5691,-1055.6299 492.9364,-1082.5917"/>
<polygon fill="#000000" stroke="#000000" points="492.2157,-1086.0281 502.7975,-1085.5016 494.197,-1079.3144 492.2157,-1086.0281"/>
</g>
<!-- tables&#45;&gt;vartypes -->
<g id="edge39" class="edge">
<title>tables&#45;&gt;vartypes</title>
<path fill="none" stroke="#000000" d="M106.6367,-984.4117C158.3256,-1041.5335 308.1968,-1199.1565 463.3343,-1287 474.6319,-1293.397 487.6739,-1298.56 499.9788,-1302.5904"/>
<polygon fill="#000000" stroke="#000000" points="499.0538,-1305.9679 509.6416,-1305.5818 501.1239,-1299.281 499.0538,-1305.9679"/>
</g>
<!-- tables&#45;&gt;variables -->
<g id="edge45" class="edge">
<title>tables&#45;&gt;variables</title>
<path fill="none" stroke="#000000" d="M135.3314,-971.4392C222.7261,-986.9129 407.738,-1019.6702 496.1316,-1035.3207"/>
<polygon fill="#000000" stroke="#000000" points="495.7076,-1038.8 506.1647,-1037.0971 496.928,-1031.9072 495.7076,-1038.8"/>
</g>
<!-- tables&#45;&gt;runFunction -->
<g id="edge47" class="edge">
<title>tables&#45;&gt;runFunction</title>
<path fill="none" stroke="#000000" d="M106.6367,-941.5883C158.3256,-884.4665 308.1968,-726.8435 463.3343,-639 472.409,-633.8616 482.6092,-629.5195 492.6488,-625.921"/>
<polygon fill="#000000" stroke="#000000" points="493.8313,-629.2159 502.1832,-622.697 491.5889,-622.5847 493.8313,-629.2159"/>
</g>
<!-- tables&#45;&gt;signatures -->
<g id="edge54" class="edge">
<title>tables&#45;&gt;signatures</title>
<path fill="none" stroke="#000000" d="M138.374,-965.9926C224.753,-971.0906 399.7755,-981.4201 489.4471,-986.7124"/>
<polygon fill="#000000" stroke="#000000" points="489.4974,-990.2214 499.6863,-987.3167 489.9099,-983.2335 489.4974,-990.2214"/>
</g>
<!-- readjson -->
<g id="node35" class="node">
<title>readjson</title>
<ellipse fill="none" stroke="#000000" cx="545.1518" cy="-288" rx="40.1317" ry="18"/>
<text text-anchor="middle" x="545.1518" y="-283.8" font-family="Times,serif" font-size="14.00" fill="#000000">readjson</text>
</g>
<!-- tables&#45;&gt;readjson -->
<g id="edge64" class="edge">
<title>tables&#45;&gt;readjson</title>
<path fill="none" stroke="#000000" d="M107.9392,-942.0099C126.7237,-921.9381 154.782,-890.3236 175.3343,-860 329.0396,-633.2176 254.0969,-491.8483 463.3343,-315 473.0697,-306.7716 485.39,-301.0295 497.4954,-297.0302"/>
<polygon fill="#000000" stroke="#000000" points="498.511,-300.3797 507.1041,-294.1823 496.5218,-293.6683 498.511,-300.3797"/>
</g>
<!-- tables&#45;&gt;startingvars -->
<g id="edge66" class="edge">
<title>tables&#45;&gt;startingvars</title>
<path fill="none" stroke="#000000" d="M135.3314,-954.5608C220.501,-939.4811 398.3805,-907.9866 489.1954,-891.9074"/>
<polygon fill="#000000" stroke="#000000" points="490.0604,-895.3087 499.2971,-890.1188 488.84,-888.4159 490.0604,-895.3087"/>
</g>
<!-- tables&#45;&gt;repl -->
<g id="edge73" class="edge">
<title>tables&#45;&gt;repl</title>
<path fill="none" stroke="#000000" d="M110.6227,-983.4134C166.9542,-1032.5914 318.0402,-1159.019 463.3343,-1233 477.955,-1240.4446 495.0671,-1246.4664 509.8515,-1250.918"/>
<polygon fill="#000000" stroke="#000000" points="509.0774,-1254.3374 519.6558,-1253.7472 511.0182,-1247.6118 509.0774,-1254.3374"/>
</g>
<!-- os -->
<g id="node6" class="node">
<title>os</title>
<ellipse fill="none" stroke="#000000" cx="87.6672" cy="-681" rx="27" ry="22.7556"/>
<text text-anchor="middle" x="87.6672" y="-673.8" font-family="Times,serif" font-size="24.00" fill="#000000">os</text>
</g>
<!-- os&#45;&gt;statictea -->
<g id="edge78" class="edge">
<title>os&#45;&gt;statictea</title>
<path fill="none" stroke="#000000" d="M114.9149,-680.1066C189.8959,-677.6481 400.0777,-670.7567 496.1377,-667.6071"/>
<polygon fill="#000000" stroke="#000000" points="496.2917,-671.104 506.1716,-667.2781 496.0622,-664.1078 496.2917,-671.104"/>
</g>
<!-- os&#45;&gt;parseCommandLine -->
<g id="edge4" class="edge">
<title>os&#45;&gt;parseCommandLine</title>
<path fill="none" stroke="#000000" d="M113.9067,-686.3341C182.9025,-700.36 371.2027,-738.6387 474.694,-759.6769"/>
<polygon fill="#000000" stroke="#000000" points="474.2461,-763.1574 484.743,-761.7198 475.6407,-756.2977 474.2461,-763.1574"/>
</g>
<!-- os&#45;&gt;cmdline -->
<g id="edge10" class="edge">
<title>os&#45;&gt;cmdline</title>
<path fill="none" stroke="#000000" d="M112.9152,-689.1127C188.0094,-713.2422 410.5021,-784.734 503.5305,-814.6262"/>
<polygon fill="#000000" stroke="#000000" points="502.5793,-817.9967 513.1706,-817.7237 504.7207,-811.3323 502.5793,-817.9967"/>
</g>
<!-- os&#45;&gt;processTemplate -->
<g id="edge14" class="edge">
<title>os&#45;&gt;processTemplate</title>
<path fill="none" stroke="#000000" d="M114.5769,-683.294C182.7894,-689.1091 364.4364,-704.5942 468.7067,-713.4832"/>
<polygon fill="#000000" stroke="#000000" points="468.5976,-716.9865 478.8588,-714.3486 469.1923,-710.0118 468.5976,-716.9865"/>
</g>
<!-- os&#45;&gt;env -->
<g id="edge19" class="edge">
<title>os&#45;&gt;env</title>
<path fill="none" stroke="#000000" d="M113.9123,-674.5616C132.0545,-669.3803 156.261,-660.9753 175.3343,-649 326.5269,-554.0725 310.6775,-461.5544 463.3343,-369 477.364,-360.4939 494.3916,-354.3202 509.2724,-350.0418"/>
<polygon fill="#000000" stroke="#000000" points="510.4222,-353.3569 519.1683,-347.3772 508.6022,-346.5976 510.4222,-353.3569"/>
</g>
<!-- os&#45;&gt;tempFile -->
<g id="edge23" class="edge">
<title>os&#45;&gt;tempFile</title>
<path fill="none" stroke="#000000" d="M113.1212,-673.1218C130.9006,-667.2802 154.9986,-658.6778 175.3343,-649 309.9567,-584.9332 327.7276,-538.9563 463.3343,-477 475.0358,-471.6538 488.1098,-466.8523 500.3132,-462.8329"/>
<polygon fill="#000000" stroke="#000000" points="501.4087,-466.1573 509.8706,-459.7817 499.2798,-459.4889 501.4087,-466.1573"/>
</g>
<!-- os&#45;&gt;runFunction -->
<g id="edge50" class="edge">
<title>os&#45;&gt;runFunction</title>
<path fill="none" stroke="#000000" d="M114.2409,-676.992C186.2367,-666.1333 386.3506,-635.9511 486.4961,-620.8467"/>
<polygon fill="#000000" stroke="#000000" points="487.085,-624.2976 496.4511,-619.3453 486.0409,-617.3759 487.085,-624.2976"/>
</g>
<!-- os&#45;&gt;readjson -->
<g id="edge62" class="edge">
<title>os&#45;&gt;readjson</title>
<path fill="none" stroke="#000000" d="M113.8595,-675.1856C132.203,-670.2554 156.6723,-661.8939 175.3343,-649 336.5967,-537.581 300.3513,-423.8866 463.3343,-315 474.0316,-307.8533 486.7761,-302.4611 498.9848,-298.4512"/>
<polygon fill="#000000" stroke="#000000" points="500.062,-301.7819 508.6116,-295.5246 498.0259,-295.0846 500.062,-301.7819"/>
</g>
<!-- os&#45;&gt;startingvars -->
<g id="edge65" class="edge">
<title>os&#45;&gt;startingvars</title>
<path fill="none" stroke="#000000" d="M111.2572,-692.1188C187.9708,-728.2497 427.4869,-840.8376 463.3343,-855 473.9864,-859.2084 485.586,-863.3148 496.6132,-867.0037"/>
<polygon fill="#000000" stroke="#000000" points="495.5254,-870.3303 506.1184,-870.1301 497.7126,-863.6808 495.5254,-870.3303"/>
</g>
<!-- os&#45;&gt;codefile -->
<g id="edge69" class="edge">
<title>os&#45;&gt;codefile</title>
<path fill="none" stroke="#000000" d="M112.7039,-672.1531C130.2918,-665.8671 154.3326,-657.1319 175.3343,-649 304.3293,-599.053 333.5749,-578.9261 463.3343,-531 476.3046,-526.2095 490.5757,-521.3582 503.517,-517.1147"/>
<polygon fill="#000000" stroke="#000000" points="504.6806,-520.4168 513.1106,-513.9991 502.5185,-513.7591 504.6806,-520.4168"/>
</g>
<!-- strformat -->
<g id="node7" class="node">
<title>strformat</title>
<ellipse fill="none" stroke="#ff0000" cx="87.6672" cy="-36" rx="73.5395" ry="22.7556"/>
<text text-anchor="middle" x="87.6672" y="-28.8" font-family="Times,serif" font-size="24.00" fill="#000000">strformat</text>
</g>
<!-- args -->
<g id="node8" class="node">
<title>args</title>
<ellipse fill="none" stroke="#000000" cx="545.1518" cy="-18" rx="27" ry="18"/>
<text text-anchor="middle" x="545.1518" y="-13.8" font-family="Times,serif" font-size="14.00" fill="#000000">args</text>
</g>
<!-- strformat&#45;&gt;args -->
<g id="edge5" class="edge">
<title>strformat&#45;&gt;args</title>
<path fill="none" stroke="#ff0000" d="M160.6628,-33.1279C259.5663,-29.2365 432.4497,-22.4343 508.021,-19.4609"/>
<polygon fill="#ff0000" stroke="#ff0000" points="508.1662,-22.958 518.0208,-19.0675 507.8909,-15.9634 508.1662,-22.958"/>
</g>
<!-- strformat&#45;&gt;replacement -->
<g id="edge59" class="edge">
<title>strformat&#45;&gt;replacement</title>
<path fill="none" stroke="#ff0000" d="M126.2788,-55.2629C193.7028,-88.5168 337.7101,-157.8473 463.3343,-207 473.6792,-211.0476 484.9076,-215.0191 495.6363,-218.6179"/>
<polygon fill="#ff0000" stroke="#ff0000" points="494.7158,-221.9998 505.309,-221.8097 496.9094,-215.3523 494.7158,-221.9998"/>
</g>
<!-- re -->
<g id="node10" class="node">
<title>re</title>
<polygon fill="#98fb98" stroke="#000000" points="114.6672,-1357.8581 114.6672,-1378.1419 98.8509,-1392.4846 76.4834,-1392.4846 60.6672,-1378.1419 60.6672,-1357.8581 76.4834,-1343.5154 98.8509,-1343.5154 114.6672,-1357.8581"/>
<polygon fill="none" stroke="#000000" points="118.6672,-1356.0866 118.6672,-1379.9134 100.3948,-1396.4835 74.9395,-1396.4835 56.6672,-1379.9134 56.6672,-1356.0866 74.9395,-1339.5165 100.3948,-1339.5165 118.6672,-1356.0866"/>
<text text-anchor="middle" x="87.6672" y="-1360.8" font-family="Times,serif" font-size="24.00" fill="#000000">re</text>
</g>
<!-- re&#45;&gt;regexes -->
<g id="edge7" class="edge">
<title>re&#45;&gt;regexes</title>
<path fill="none" stroke="#000000" d="M118.7523,-1368C197.2583,-1368 403.9214,-1368 497.683,-1368"/>
<polygon fill="#000000" stroke="#000000" points="497.739,-1371.5001 507.7389,-1368 497.7389,-1364.5001 497.739,-1371.5001"/>
</g>
<!-- streams -->
<g id="node13" class="node">
<title>streams</title>
<ellipse fill="none" stroke="#000000" cx="87.6672" cy="-393" rx="63.3073" ry="22.7556"/>
<text text-anchor="middle" x="87.6672" y="-385.8" font-family="Times,serif" font-size="24.00" fill="#000000">streams</text>
</g>
<!-- streams&#45;&gt;processTemplate -->
<g id="edge13" class="edge">
<title>streams&#45;&gt;processTemplate</title>
<path fill="none" stroke="#000000" d="M137.0394,-407.1283C149.9817,-411.86 163.5914,-417.8049 175.3343,-425 324.4216,-516.348 312.8385,-603.9918 463.3343,-693 470.2907,-697.1142 477.9553,-700.6945 485.7193,-703.7829"/>
<polygon fill="#000000" stroke="#000000" points="484.6052,-707.1028 495.198,-707.3091 487.0458,-700.542 484.6052,-707.1028"/>
</g>
<!-- streams&#45;&gt;env -->
<g id="edge18" class="edge">
<title>streams&#45;&gt;env</title>
<path fill="none" stroke="#000000" d="M148.4176,-386.2276C244.6386,-375.501 429.2476,-354.9209 508.0358,-346.1377"/>
<polygon fill="#000000" stroke="#000000" points="508.88,-349.5653 518.4306,-344.9789 508.1044,-342.6084 508.88,-349.5653"/>
</g>
<!-- streams&#45;&gt;tempFile -->
<g id="edge27" class="edge">
<title>streams&#45;&gt;tempFile</title>
<path fill="none" stroke="#000000" d="M147.4753,-400.4518C238.5002,-411.7929 410.1643,-433.1813 495.0394,-443.7563"/>
<polygon fill="#000000" stroke="#000000" points="494.8384,-447.2582 505.1944,-445.0215 495.7039,-440.3119 494.8384,-447.2582"/>
</g>
<!-- streams&#45;&gt;readlines -->
<g id="edge28" class="edge">
<title>streams&#45;&gt;readlines</title>
<path fill="none" stroke="#000000" d="M151.2784,-393.4171C242.371,-394.0145 408.2761,-395.1024 492.7313,-395.6562"/>
<polygon fill="#000000" stroke="#000000" points="492.8398,-399.1569 502.8625,-395.7227 492.8857,-392.1571 492.8398,-399.1569"/>
</g>
<!-- collectCommand -->
<g id="node22" class="node">
<title>collectCommand</title>
<ellipse fill="none" stroke="#000000" cx="545.1518" cy="-126" rx="70.5427" ry="18"/>
<text text-anchor="middle" x="545.1518" y="-121.8" font-family="Times,serif" font-size="14.00" fill="#000000">collectCommand</text>
</g>
<!-- streams&#45;&gt;collectCommand -->
<g id="edge35" class="edge">
<title>streams&#45;&gt;collectCommand</title>
<path fill="none" stroke="#000000" d="M136.4985,-378.5273C149.4418,-373.9449 163.1873,-368.383 175.3343,-362 315.3348,-288.4322 322.5642,-225.0841 463.3343,-153 470.8941,-149.1289 479.1254,-145.6467 487.3585,-142.5714"/>
<polygon fill="#000000" stroke="#000000" points="488.7343,-145.7969 496.984,-139.1492 486.3893,-139.2014 488.7343,-145.7969"/>
</g>
<!-- streams&#45;&gt;replacement -->
<g id="edge58" class="edge">
<title>streams&#45;&gt;replacement</title>
<path fill="none" stroke="#000000" d="M132.8431,-377.0716C225.4967,-344.4114 431.066,-271.9923 463.3343,-261 474.1758,-257.3068 485.8515,-253.4074 496.8924,-249.7556"/>
<polygon fill="#000000" stroke="#000000" points="497.9942,-253.0777 506.3947,-246.6215 495.8016,-246.4299 497.9942,-253.0777"/>
</g>
<!-- streams&#45;&gt;readjson -->
<g id="edge61" class="edge">
<title>streams&#45;&gt;readjson</title>
<path fill="none" stroke="#000000" d="M141.0418,-380.7497C231.753,-359.93 414.4201,-318.005 499.5493,-298.4665"/>
<polygon fill="#000000" stroke="#000000" points="500.471,-301.846 509.4346,-296.1977 498.9051,-295.0234 500.471,-301.846"/>
</g>
<!-- streams&#45;&gt;codefile -->
<g id="edge70" class="edge">
<title>streams&#45;&gt;codefile</title>
<path fill="none" stroke="#000000" d="M140.1465,-405.7331C231.1486,-427.8131 416.5914,-472.8072 501.2445,-493.3467"/>
<polygon fill="#000000" stroke="#000000" points="500.512,-496.7705 511.0553,-495.7271 502.1626,-489.9678 500.512,-496.7705"/>
</g>
<!-- times -->
<g id="node16" class="node">
<title>times</title>
<ellipse fill="none" stroke="#ff0000" cx="87.6672" cy="-192" rx="48.1611" ry="22.7556"/>
<text text-anchor="middle" x="87.6672" y="-184.8" font-family="Times,serif" font-size="24.00" fill="#000000">times</text>
</g>
<!-- times&#45;&gt;env -->
<g id="edge20" class="edge">
<title>times&#45;&gt;env</title>
<path fill="none" stroke="#ff0000" d="M127.4656,-205.0491C216.0524,-234.0949 428.2154,-303.6589 511.1281,-330.8443"/>
<polygon fill="#ff0000" stroke="#ff0000" points="510.2171,-334.2289 520.8098,-334.0188 512.398,-327.5773 510.2171,-334.2289"/>
</g>
<!-- timer -->
<g id="node41" class="node">
<title>timer</title>
<ellipse fill="none" stroke="#000000" cx="545.1518" cy="-72" rx="28.5411" ry="18"/>
<text text-anchor="middle" x="545.1518" y="-67.8" font-family="Times,serif" font-size="14.00" fill="#000000">timer</text>
</g>
<!-- times&#45;&gt;timer -->
<g id="edge76" class="edge">
<title>times&#45;&gt;timer</title>
<path fill="none" stroke="#ff0000" d="M129.8862,-180.9258C218.9641,-157.5603 424.8129,-103.5654 508.6385,-81.5776"/>
<polygon fill="#ff0000" stroke="#ff0000" points="509.6885,-84.9206 518.4733,-78.9979 507.9124,-78.1497 509.6885,-84.9206"/>
</g>
<!-- random -->
<g id="node18" class="node">
<title>random</title>
<polygon fill="#98fb98" stroke="#000000" points="155.889,-451.8581 155.889,-472.1419 115.9256,-486.4846 59.4087,-486.4846 19.4453,-472.1419 19.4453,-451.8581 59.4087,-437.5154 115.9256,-437.5154 155.889,-451.8581"/>
<polygon fill="none" stroke="#000000" points="159.8811,-449.0431 159.8811,-474.9569 116.6191,-490.4835 58.7152,-490.4835 15.4532,-474.9569 15.4532,-449.0431 58.7152,-433.5165 116.6191,-433.5165 159.8811,-449.0431"/>
<text text-anchor="middle" x="87.6672" y="-454.8" font-family="Times,serif" font-size="24.00" fill="#000000">random</text>
</g>
<!-- random&#45;&gt;tempFile -->
<g id="edge24" class="edge">
<title>random&#45;&gt;tempFile</title>
<path fill="none" stroke="#000000" d="M159.9045,-460.1052C252.7469,-457.6699 411.6729,-453.5012 493.3462,-451.3589"/>
<polygon fill="#000000" stroke="#000000" points="493.4858,-454.8565 503.3905,-451.0954 493.3022,-447.8589 493.4858,-454.8565"/>
</g>
<!-- parseutils -->
<g id="node26" class="node">
<title>parseutils</title>
<polygon fill="#98fb98" stroke="#000000" points="170.4501,-112.8581 170.4501,-133.1419 121.957,-147.4846 53.3774,-147.4846 4.8843,-133.1419 4.8843,-112.8581 53.3774,-98.5154 121.957,-98.5154 170.4501,-112.8581"/>
<polygon fill="none" stroke="#000000" points="174.4567,-109.8724 174.4567,-136.1276 122.5382,-151.4835 52.7962,-151.4835 .8776,-136.1276 .8776,-109.8724 52.7962,-94.5165 122.5382,-94.5165 174.4567,-109.8724"/>
<text text-anchor="middle" x="87.6672" y="-115.8" font-family="Times,serif" font-size="24.00" fill="#000000">parseutils</text>
</g>
<!-- parseutils&#45;&gt;parseNumber -->
<g id="edge42" class="edge">
<title>parseutils&#45;&gt;parseNumber</title>
<path fill="none" stroke="#000000" d="M174.5237,-133.8218C263.9897,-144.9688 401.3147,-162.0787 481.2806,-172.042"/>
<polygon fill="#000000" stroke="#000000" points="480.862,-175.5168 491.218,-173.2802 481.7275,-168.5705 480.862,-175.5168"/>
</g>
<!-- math -->
<g id="node29" class="node">
<title>math</title>
<ellipse fill="none" stroke="#ff0000" cx="87.6672" cy="-330" rx="45.4944" ry="22.7556"/>
<text text-anchor="middle" x="87.6672" y="-322.8" font-family="Times,serif" font-size="24.00" fill="#000000">math</text>
</g>
<!-- math&#45;&gt;runFunction -->
<g id="edge49" class="edge">
<title>math&#45;&gt;runFunction</title>
<path fill="none" stroke="#ff0000" d="M127.2269,-340.9997C142.71,-346.0629 160.3208,-352.789 175.3343,-361 317.6054,-438.809 320.2488,-508.6989 463.3343,-585 472.5362,-589.9069 482.7943,-594.1437 492.8508,-597.7115"/>
<polygon fill="#ff0000" stroke="#ff0000" points="491.7957,-601.0492 502.3898,-600.9271 494.0318,-594.416 491.7957,-601.0492"/>
</g>
<!-- math&#45;&gt;timer -->
<g id="edge77" class="edge">
<title>math&#45;&gt;timer</title>
<path fill="none" stroke="#ff0000" d="M126.5417,-318.1918C142.094,-312.8612 159.9356,-305.9643 175.3343,-298 313.529,-226.5252 324.0401,-168.3076 463.3343,-99 477.5882,-91.9078 494.1328,-86.0457 508.5993,-81.6168"/>
<polygon fill="#ff0000" stroke="#ff0000" points="509.6243,-84.9637 518.2289,-78.7821 507.6475,-78.2486 509.6243,-84.9637"/>
</g>
<!-- algorithm -->
<g id="node30" class="node">
<title>algorithm</title>
<polygon fill="#98fb98" stroke="#000000" points="171.4941,-601.8581 171.4941,-622.1419 122.3894,-636.4846 52.9449,-636.4846 3.8402,-622.1419 3.8402,-601.8581 52.9449,-587.5154 122.3894,-587.5154 171.4941,-601.8581"/>
<polygon fill="none" stroke="#000000" points="175.5018,-598.8621 175.5018,-625.1379 122.964,-640.4835 52.3704,-640.4835 -.1675,-625.1379 -.1675,-598.8621 52.3704,-583.5165 122.964,-583.5165 175.5018,-598.8621"/>
<text text-anchor="middle" x="87.6672" y="-604.8" font-family="Times,serif" font-size="24.00" fill="#000000">algorithm</text>
</g>
<!-- algorithm&#45;&gt;runFunction -->
<g id="edge51" class="edge">
<title>algorithm&#45;&gt;runFunction</title>
<path fill="none" stroke="#000000" d="M175.604,-612C265.1511,-612 401.8166,-612 481.4387,-612"/>
<polygon fill="#000000" stroke="#000000" points="481.809,-615.5001 491.8089,-612 481.8089,-608.5001 481.809,-615.5001"/>
</g>
<!-- unicode -->
<g id="node31" class="node">
<title>unicode</title>
<polygon fill="#98fb98" stroke="#000000" points="157.9587,-526.8581 157.9587,-547.1419 116.7829,-561.4846 58.5514,-561.4846 17.3756,-547.1419 17.3756,-526.8581 58.5514,-512.5154 116.7829,-512.5154 157.9587,-526.8581"/>
<polygon fill="none" stroke="#000000" points="161.953,-524.0155 161.953,-549.9845 117.4579,-565.4835 57.8764,-565.4835 13.3814,-549.9845 13.3814,-524.0155 57.8764,-508.5165 117.4579,-508.5165 161.953,-524.0155"/>
<text text-anchor="middle" x="87.6672" y="-529.8" font-family="Times,serif" font-size="24.00" fill="#000000">unicode</text>
</g>
<!-- unicode&#45;&gt;unicodes -->
<g id="edge52" class="edge">
<title>unicode&#45;&gt;unicodes</title>
<path fill="none" stroke="#000000" d="M162.1882,-540.4208C255.2358,-544.6919 412.0115,-551.8884 493.0927,-555.6103"/>
<polygon fill="#000000" stroke="#000000" points="493.3935,-559.1277 503.5435,-556.09 493.7145,-552.1351 493.3935,-559.1277"/>
</g>
<!-- json -->
<g id="node36" class="node">
<title>json</title>
<polygon fill="#98fb98" stroke="#000000" points="130.4119,-250.8581 130.4119,-271.1419 105.3726,-285.4846 69.9617,-285.4846 44.9224,-271.1419 44.9224,-250.8581 69.9617,-236.5154 105.3726,-236.5154 130.4119,-250.8581"/>
<polygon fill="none" stroke="#000000" points="134.4006,-248.5374 134.4006,-273.4626 106.4317,-289.4835 68.9026,-289.4835 40.9337,-273.4626 40.9337,-248.5374 68.9026,-232.5165 106.4317,-232.5165 134.4006,-248.5374"/>
<text text-anchor="middle" x="87.6672" y="-253.8" font-family="Times,serif" font-size="24.00" fill="#000000">json</text>
</g>
<!-- json&#45;&gt;readjson -->
<g id="edge63" class="edge">
<title>json&#45;&gt;readjson</title>
<path fill="none" stroke="#000000" d="M134.4761,-263.7626C221.2223,-268.8822 406.2054,-279.7996 495.2381,-285.0542"/>
<polygon fill="#000000" stroke="#000000" points="495.1614,-288.5556 505.3502,-285.651 495.5738,-281.5678 495.1614,-288.5556"/>
</g>
<!-- rdstdin -->
<g id="node39" class="node">
<title>rdstdin</title>
<polygon fill="#98fb98" stroke="#000000" points="150.7241,-1249.8581 150.7241,-1270.1419 113.7862,-1284.4846 61.5481,-1284.4846 24.6102,-1270.1419 24.6102,-1249.8581 61.5481,-1235.5154 113.7862,-1235.5154 150.7241,-1249.8581"/>
<polygon fill="none" stroke="#000000" points="154.7106,-1247.1181 154.7106,-1272.8819 114.5308,-1288.4835 60.8035,-1288.4835 20.6237,-1272.8819 20.6237,-1247.1181 60.8035,-1231.5165 114.5308,-1231.5165 154.7106,-1247.1181"/>
<text text-anchor="middle" x="87.6672" y="-1252.8" font-family="Times,serif" font-size="24.00" fill="#000000">rdstdin</text>
</g>
<!-- rdstdin&#45;&gt;repl -->
<g id="edge72" class="edge">
<title>rdstdin&#45;&gt;repl</title>
<path fill="none" stroke="#000000" d="M155.1706,-1260C252.9726,-1260 430.7887,-1260 507.8639,-1260"/>
<polygon fill="#000000" stroke="#000000" points="508.0522,-1263.5001 518.0522,-1260 508.0521,-1256.5001 508.0522,-1263.5001"/>
</g>
</g>
</svg>
