<?xml version="1.0" encoding="UTF-8" standalone="no"?>
<!DOCTYPE svg PUBLIC "-//W3C//DTD SVG 1.1//EN"
 "http://www.w3.org/Graphics/SVG/1.1/DTD/svg11.dtd">
<!-- Generated by graphviz version 2.40.1 (20161225.0304)
 -->
<!-- Title: statictea Pages: 1 -->
<svg width="720pt" height="333pt"
 viewBox="0.00 0.00 720.00 332.75" xmlns="http://www.w3.org/2000/svg" xmlns:xlink="http://www.w3.org/1999/xlink">
<g id="graph0" class="graph" transform="scale(.2367 .2367) rotate(0) translate(4 1401.5561)">
<title>statictea</title>
<polygon fill="#ffffff" stroke="transparent" points="-4,4 -4,-1401.5561 3037.2907,-1401.5561 3037.2907,4 -4,4"/>
<!-- runFunction -->
<g id="node1" class="node">
<title>runFunction</title>
<g id="a_node1"><a xlink:href="runFunction.md" xlink:title="runFunction.md">
<ellipse fill="#eee8aa" stroke="#000000" cx="818" cy="-926" rx="94.055" ry="22.7556"/>
<text text-anchor="middle" x="818" y="-918.8" font-family="Times,serif" font-size="24.00" fill="#000000">runFunction</text>
</a>
</g>
</g>
<!-- parseNumber -->
<g id="node3" class="node">
<title>parseNumber</title>
<g id="a_node3"><a xlink:href="parseNumber.md" xlink:title="parseNumber.md">
<polygon fill="#98fb98" stroke="#000000" points="1202.3805,-773.8581 1202.3805,-794.1419 1137.1353,-808.4846 1044.8647,-808.4846 979.6195,-794.1419 979.6195,-773.8581 1044.8647,-759.5154 1137.1353,-759.5154 1202.3805,-773.8581"/>
<polygon fill="none" stroke="#000000" points="1206.3872,-770.6442 1206.3872,-797.3558 1137.5714,-812.4835 1044.4286,-812.4835 975.6128,-797.3558 975.6128,-770.6442 1044.4286,-755.5165 1137.5714,-755.5165 1206.3872,-770.6442"/>
<text text-anchor="middle" x="1091" y="-776.8" font-family="Times,serif" font-size="24.00" fill="#000000">parseNumber</text>
</a>
</g>
</g>
<!-- runFunction&#45;&gt;parseNumber -->
<g id="edge63" class="edge">
<title>runFunction&#45;&gt;parseNumber</title>
<path fill="none" stroke="#000000" d="M857.6965,-905.352C902.8504,-881.8653 977.1215,-843.2335 1029.7224,-815.8733"/>
<polygon fill="#000000" stroke="#000000" points="1031.3676,-818.9628 1038.6241,-811.2431 1028.1373,-812.7527 1031.3676,-818.9628"/>
</g>
<!-- regexes -->
<g id="node4" class="node">
<title>regexes</title>
<g id="a_node4"><a xlink:href="regexes.md" xlink:title="regexes.md">
<polygon fill="#98fb98" stroke="#000000" points="1839.187,-470.8581 1839.187,-491.1419 1799.244,-505.4846 1742.756,-505.4846 1702.813,-491.1419 1702.813,-470.8581 1742.756,-456.5154 1799.244,-456.5154 1839.187,-470.8581"/>
<polygon fill="none" stroke="#000000" points="1843.1781,-468.0434 1843.1781,-493.9566 1799.9376,-509.4835 1742.0624,-509.4835 1698.8219,-493.9566 1698.8219,-468.0434 1742.0624,-452.5165 1799.9376,-452.5165 1843.1781,-468.0434"/>
<text text-anchor="middle" x="1771" y="-473.8" font-family="Times,serif" font-size="24.00" fill="#000000">regexes</text>
</a>
</g>
</g>
<!-- runFunction&#45;&gt;regexes -->
<g id="edge62" class="edge">
<title>runFunction&#45;&gt;regexes</title>
<path fill="none" stroke="#000000" d="M831.4258,-903.5086C858.4184,-858.4169 917.2689,-760.7981 924,-755.5083 1029.2029,-672.8307 1085.4553,-710.3982 1210,-661.4917 1266.4551,-639.3228 1277.0902,-625.4823 1334,-604.5083 1457.9414,-558.8298 1606.8298,-520.0397 1694.9244,-498.6867"/>
<polygon fill="#000000" stroke="#000000" points="1695.9336,-502.0437 1704.8339,-496.2962 1694.292,-495.2389 1695.9336,-502.0437"/>
</g>
<!-- unicodes -->
<g id="node8" class="node">
<title>unicodes</title>
<g id="a_node8"><a xlink:href="unicodes.md" xlink:title="unicodes.md">
<ellipse fill="#eee8aa" stroke="#000000" cx="442" cy="-784" rx="71.7778" ry="22.7556"/>
<text text-anchor="middle" x="442" y="-776.8" font-family="Times,serif" font-size="24.00" fill="#000000">unicodes</text>
</a>
</g>
</g>
<!-- runFunction&#45;&gt;unicodes -->
<g id="edge74" class="edge">
<title>runFunction&#45;&gt;unicodes</title>
<path fill="none" stroke="#000000" d="M767.291,-906.8492C696.9817,-880.2963 570.3424,-832.4698 497.5492,-804.9787"/>
<polygon fill="#000000" stroke="#000000" points="498.6717,-801.6614 488.08,-801.4025 496.1985,-808.2099 498.6717,-801.6614"/>
</g>
<!-- vartypes -->
<g id="node11" class="node">
<title>vartypes</title>
<g id="a_node11"><a xlink:href="vartypes.md" xlink:title="vartypes.md">
<ellipse fill="#eee8aa" stroke="#000000" cx="837" cy="-481" rx="68.6102" ry="22.7556"/>
<text text-anchor="middle" x="837" y="-473.8" font-family="Times,serif" font-size="24.00" fill="#000000">vartypes</text>
</a>
</g>
</g>
<!-- runFunction&#45;&gt;vartypes -->
<g id="edge61" class="edge">
<title>runFunction&#45;&gt;vartypes</title>
<path fill="none" stroke="#000000" d="M771.182,-906.3167C734.2986,-887.9949 685.4786,-856.8145 663,-812.4917 651.5447,-789.9045 652.4531,-778.5336 663,-755.5083 689.6424,-697.3443 735.7518,-714.2073 772,-661.4917 803.7382,-615.3352 821.8292,-551.9218 830.5059,-513.8488"/>
<polygon fill="#000000" stroke="#000000" points="833.9823,-514.3355 832.7071,-503.8177 827.145,-512.8351 833.9823,-514.3355"/>
</g>
<!-- funtypes -->
<g id="node15" class="node">
<title>funtypes</title>
<g id="a_node15"><a xlink:href="funtypes.md" xlink:title="funtypes.md">
<ellipse fill="#eee8aa" stroke="#000000" cx="894" cy="-633" rx="69.5163" ry="22.7556"/>
<text text-anchor="middle" x="894" y="-625.8" font-family="Times,serif" font-size="24.00" fill="#000000">funtypes</text>
</a>
</g>
</g>
<!-- runFunction&#45;&gt;funtypes -->
<g id="edge79" class="edge">
<title>runFunction&#45;&gt;funtypes</title>
<path fill="none" stroke="#000000" d="M777.9254,-905.4502C724.3395,-875.0798 639.9208,-815.3264 675,-755.5083 693.5796,-723.8257 782.6898,-680.7325 841.3611,-655.0041"/>
<polygon fill="#000000" stroke="#000000" points="843.0847,-658.0713 850.8594,-650.8736 840.2931,-651.652 843.0847,-658.0713"/>
</g>
<!-- warnings -->
<g id="node17" class="node">
<title>warnings</title>
<g id="a_node17"><a xlink:href="warnings.md" xlink:title="warnings.md">
<ellipse fill="#eee8aa" stroke="#000000" cx="1190" cy="-198" rx="73.5561" ry="22.7556"/>
<text text-anchor="middle" x="1190" y="-190.8" font-family="Times,serif" font-size="24.00" fill="#000000">warnings</text>
</a>
</g>
</g>
<!-- runFunction&#45;&gt;warnings -->
<g id="edge60" class="edge">
<title>runFunction&#45;&gt;warnings</title>
<path fill="none" stroke="#000000" d="M824.7519,-903.1782C837.3044,-862.0059 864.876,-777.526 886,-755.5083 956.7956,-681.7174 1032.0999,-741.3283 1096,-661.4917 1200.9386,-530.3819 1198.1972,-312.9094 1192.8538,-230.7685"/>
<polygon fill="#000000" stroke="#000000" points="1196.3431,-230.4934 1192.145,-220.7658 1189.3607,-230.9883 1196.3431,-230.4934"/>
</g>
<!-- signatures -->
<g id="node21" class="node">
<title>signatures</title>
<g id="a_node21"><a xlink:href="signatures.md" xlink:title="signatures.md">
<ellipse fill="#eee8aa" stroke="#000000" cx="764" cy="-784" rx="80.2483" ry="22.7556"/>
<text text-anchor="middle" x="764" y="-776.8" font-family="Times,serif" font-size="24.00" fill="#000000">signatures</text>
</a>
</g>
</g>
<!-- runFunction&#45;&gt;signatures -->
<g id="edge78" class="edge">
<title>runFunction&#45;&gt;signatures</title>
<path fill="none" stroke="#000000" d="M809.324,-903.1852C800.3885,-879.6883 786.3834,-842.8601 776.3058,-816.3597"/>
<polygon fill="#000000" stroke="#000000" points="779.4805,-814.861 772.6545,-806.7581 772.9376,-817.3492 779.4805,-814.861"/>
</g>
<!-- messages -->
<g id="node24" class="node">
<title>messages</title>
<g id="a_node24"><a xlink:href="messages.md" xlink:title="messages.md">
<polygon fill="#98fb98" stroke="#000000" points="1454.7388,-35.8581 1454.7388,-56.1419 1406.8573,-70.4846 1339.1427,-70.4846 1291.2612,-56.1419 1291.2612,-35.8581 1339.1427,-21.5154 1406.8573,-21.5154 1454.7388,-35.8581"/>
<polygon fill="none" stroke="#000000" points="1458.7446,-32.883 1458.7446,-59.117 1407.4454,-74.4835 1338.5546,-74.4835 1287.2554,-59.117 1287.2554,-32.883 1338.5546,-17.5165 1407.4454,-17.5165 1458.7446,-32.883"/>
<text text-anchor="middle" x="1373" y="-38.8" font-family="Times,serif" font-size="24.00" fill="#000000">messages</text>
</a>
</g>
</g>
<!-- runFunction&#45;&gt;messages -->
<g id="edge59" class="edge">
<title>runFunction&#45;&gt;messages</title>
<path fill="none" stroke="#000000" d="M735.7543,-914.7018C619.882,-897.294 416.4917,-860.8041 361,-812.4917 241.2725,-708.2541 228,-639.7456 228,-481 228,-481 228,-481 228,-340 228,-220.4689 326.3203,-217.0272 436,-169.5083 585.9089,-104.56 1069.5758,-65.9209 1277.0407,-51.9604"/>
<polygon fill="#000000" stroke="#000000" points="1277.5643,-55.4333 1287.3088,-51.2745 1277.0977,-48.4489 1277.5643,-55.4333"/>
</g>
<!-- matches -->
<g id="node25" class="node">
<title>matches</title>
<g id="a_node25"><a xlink:href="matches.md" xlink:title="matches.md">
<ellipse fill="#eee8aa" stroke="#000000" cx="1787" cy="-633" rx="66.8311" ry="22.7556"/>
<text text-anchor="middle" x="1787" y="-625.8" font-family="Times,serif" font-size="24.00" fill="#000000">matches</text>
</a>
</g>
</g>
<!-- runFunction&#45;&gt;matches -->
<g id="edge64" class="edge">
<title>runFunction&#45;&gt;matches</title>
<path fill="none" stroke="#000000" d="M840.2437,-903.5973C862.2094,-881.1514 896.4203,-845.3138 924,-812.4917 944.4109,-788.2011 939.7273,-771.7206 967,-755.5083 999.1362,-736.4049 1519.3009,-667.6067 1714.1076,-642.368"/>
<polygon fill="#000000" stroke="#000000" points="1714.7793,-645.8103 1724.2473,-641.0556 1713.8807,-638.8682 1714.7793,-645.8103"/>
</g>
<!-- opresultid -->
<g id="node2" class="node">
<title>opresultid</title>
<g id="a_node2"><a xlink:href="opresultid.md" xlink:title="opresultid.md">
<ellipse fill="#eee8aa" stroke="#000000" cx="398" cy="-340" rx="79.3758" ry="22.7556"/>
<text text-anchor="middle" x="398" y="-332.8" font-family="Times,serif" font-size="24.00" fill="#000000">opresultid</text>
</a>
</g>
</g>
<!-- opresultid&#45;&gt;messages -->
<g id="edge65" class="edge">
<title>opresultid&#45;&gt;messages</title>
<path fill="none" stroke="#000000" d="M431.1837,-319.3338C490.2448,-283.4651 618.4594,-209.6826 736,-169.5083 922.1641,-105.879 1150.7879,-71.5848 1277.2963,-56.214"/>
<polygon fill="#000000" stroke="#000000" points="1277.8357,-59.6745 1287.3468,-55.0066 1277.0007,-52.7244 1277.8357,-59.6745"/>
</g>
<!-- opresult -->
<g id="node31" class="node">
<title>opresult</title>
<g id="a_node31"><a xlink:href="opresult.md" xlink:title="opresult.md">
<polygon fill="#98fb98" stroke="#000000" points="936.3526,-187.8581 936.3526,-208.1419 894.5552,-222.4846 835.4448,-222.4846 793.6474,-208.1419 793.6474,-187.8581 835.4448,-173.5154 894.5552,-173.5154 936.3526,-187.8581"/>
<polygon fill="none" stroke="#000000" points="940.3486,-185.0019 940.3486,-210.9981 895.2213,-226.4835 834.7787,-226.4835 789.6514,-210.9981 789.6514,-185.0019 834.7787,-169.5165 895.2213,-169.5165 940.3486,-185.0019"/>
<text text-anchor="middle" x="865" y="-190.8" font-family="Times,serif" font-size="24.00" fill="#000000">opresult</text>
</a>
</g>
</g>
<!-- opresultid&#45;&gt;opresult -->
<g id="edge66" class="edge">
<title>opresultid&#45;&gt;opresult</title>
<path fill="none" stroke="#000000" d="M452.4848,-323.4329C537.4199,-297.6068 701.3305,-247.7668 794.9393,-219.3033"/>
<polygon fill="#000000" stroke="#000000" points="796.0575,-222.6215 804.6068,-216.3637 794.021,-215.9243 796.0575,-222.6215"/>
</g>
<!-- cmdline -->
<g id="node5" class="node">
<title>cmdline</title>
<g id="a_node5"><a xlink:href="cmdline.md" xlink:title="cmdline.md">
<polygon fill="#98fb98" stroke="#000000" points="2746.3352,-470.8581 2746.3352,-491.1419 2704.548,-505.4846 2645.452,-505.4846 2603.6648,-491.1419 2603.6648,-470.8581 2645.452,-456.5154 2704.548,-456.5154 2746.3352,-470.8581"/>
<polygon fill="none" stroke="#000000" points="2750.3307,-468.0021 2750.3307,-493.9979 2705.2141,-509.4835 2644.7859,-509.4835 2599.6693,-493.9979 2599.6693,-468.0021 2644.7859,-452.5165 2705.2141,-452.5165 2750.3307,-468.0021"/>
<text text-anchor="middle" x="2675" y="-473.8" font-family="Times,serif" font-size="24.00" fill="#000000">cmdline</text>
</a>
</g>
</g>
<!-- parseCmdLine -->
<g id="node6" class="node">
<title>parseCmdLine</title>
<g id="a_node6"><a xlink:href="parseCmdLine.md" xlink:title="parseCmdLine.md">
<ellipse fill="#eee8aa" stroke="#000000" cx="2051" cy="-784" rx="111.4463" ry="22.7556"/>
<text text-anchor="middle" x="2051" y="-776.8" font-family="Times,serif" font-size="24.00" fill="#000000">parseCmdLine</text>
</a>
</g>
</g>
<!-- parseCmdLine&#45;&gt;regexes -->
<g id="edge24" class="edge">
<title>parseCmdLine&#45;&gt;regexes</title>
<path fill="none" stroke="#000000" d="M2021.2338,-762.0782C1990.6562,-738.8447 1942.5018,-700.2259 1906,-661.4917 1902.9732,-658.2799 1837.1345,-569.9129 1798.5399,-518.0383"/>
<polygon fill="#000000" stroke="#000000" points="1801.1399,-515.6693 1792.363,-509.7349 1795.5235,-519.8474 1801.1399,-515.6693"/>
</g>
<!-- parseCmdLine&#45;&gt;warnings -->
<g id="edge27" class="edge">
<title>parseCmdLine&#45;&gt;warnings</title>
<path fill="none" stroke="#000000" d="M2037.4014,-761.3041C2023.0094,-736.9608 1999.9422,-697.0055 1982,-661.4917 1936.0746,-570.5895 1962.5966,-521.846 1888,-452.5083 1708.5522,-285.711 1411.1393,-226.3196 1269.5982,-206.775"/>
<polygon fill="#000000" stroke="#000000" points="1270.0588,-203.3055 1259.6804,-205.4357 1269.122,-210.2426 1270.0588,-203.3055"/>
</g>
<!-- opresultwarn -->
<g id="node23" class="node">
<title>opresultwarn</title>
<g id="a_node23"><a xlink:href="opresultwarn.md" xlink:title="opresultwarn.md">
<ellipse fill="#eee8aa" stroke="#000000" cx="878" cy="-340" rx="99.824" ry="22.7556"/>
<text text-anchor="middle" x="878" y="-332.8" font-family="Times,serif" font-size="24.00" fill="#000000">opresultwarn</text>
</a>
</g>
</g>
<!-- parseCmdLine&#45;&gt;opresultwarn -->
<g id="edge28" class="edge">
<title>parseCmdLine&#45;&gt;opresultwarn</title>
<path fill="none" stroke="#000000" d="M2027.8086,-761.7598C2004.4251,-738.4222 1968.393,-699.8589 1944,-661.4917 1889.5517,-575.8514 1933.6682,-512.7509 1852,-452.5083 1783.2535,-401.7974 1223.4222,-361.4362 984.9428,-346.3749"/>
<polygon fill="#000000" stroke="#000000" points="985.0678,-342.8759 974.8679,-345.7416 984.6286,-349.8621 985.0678,-342.8759"/>
</g>
<!-- parseCmdLine&#45;&gt;messages -->
<g id="edge25" class="edge">
<title>parseCmdLine&#45;&gt;messages</title>
<path fill="none" stroke="#000000" d="M2043.9223,-761.0703C2029.0677,-710.8465 1996,-587.1256 1996,-481 1996,-481 1996,-481 1996,-340 1996,-221.4916 1622.6504,-110.2775 1453.9933,-66.0836"/>
<polygon fill="#000000" stroke="#000000" points="1454.7219,-62.6567 1444.1625,-63.5228 1452.9573,-69.4306 1454.7219,-62.6567"/>
</g>
<!-- parseCmdLine&#45;&gt;matches -->
<g id="edge26" class="edge">
<title>parseCmdLine&#45;&gt;matches</title>
<path fill="none" stroke="#000000" d="M2013.4556,-762.5257C1964.9763,-734.797 1880.8011,-686.6514 1829.8636,-657.5167"/>
<polygon fill="#000000" stroke="#000000" points="1831.4811,-654.4098 1821.0629,-652.483 1828.0056,-660.4861 1831.4811,-654.4098"/>
</g>
<!-- env -->
<g id="node7" class="node">
<title>env</title>
<g id="a_node7"><a xlink:href="env.md" xlink:title="env.md">
<ellipse fill="#eee8aa" stroke="#000000" cx="2330" cy="-784" rx="35.6342" ry="22.7556"/>
<text text-anchor="middle" x="2330" y="-776.8" font-family="Times,serif" font-size="24.00" fill="#000000">env</text>
</a>
</g>
</g>
<!-- tempFile -->
<g id="node10" class="node">
<title>tempFile</title>
<g id="a_node10"><a xlink:href="tempFile.md" xlink:title="tempFile.md">
<polygon fill="#98fb98" stroke="#000000" points="2221.598,-622.8581 2221.598,-643.1419 2176.1421,-657.4846 2111.8579,-657.4846 2066.402,-643.1419 2066.402,-622.8581 2111.8579,-608.5154 2176.1421,-608.5154 2221.598,-622.8581"/>
<polygon fill="none" stroke="#000000" points="2225.6004,-619.9275 2225.6004,-646.0725 2176.7591,-661.4835 2111.2409,-661.4835 2062.3996,-646.0725 2062.3996,-619.9275 2111.2409,-604.5165 2176.7591,-604.5165 2225.6004,-619.9275"/>
<text text-anchor="middle" x="2144" y="-625.8" font-family="Times,serif" font-size="24.00" fill="#000000">tempFile</text>
</a>
</g>
</g>
<!-- env&#45;&gt;tempFile -->
<g id="edge15" class="edge">
<title>env&#45;&gt;tempFile</title>
<path fill="none" stroke="#000000" d="M2307.9329,-766.0854C2278.1063,-741.8713 2224.314,-698.2012 2186.5035,-667.5055"/>
<polygon fill="#000000" stroke="#000000" points="2188.6618,-664.7495 2178.6921,-661.164 2184.2498,-670.1841 2188.6618,-664.7495"/>
</g>
<!-- env&#45;&gt;warnings -->
<g id="edge17" class="edge">
<title>env&#45;&gt;warnings</title>
<path fill="none" stroke="#000000" d="M2321.6834,-761.8709C2307.5731,-726.205 2276.3946,-654.9158 2235,-604.5083 2167.0284,-521.7371 2139.5525,-508.0901 2048,-452.5083 1788.8917,-295.2028 1426.4116,-229.8466 1268.594,-207.6517"/>
<polygon fill="#000000" stroke="#000000" points="1268.884,-204.1585 1258.498,-206.2516 1267.9225,-211.0921 1268.884,-204.1585"/>
</g>
<!-- args -->
<g id="node22" class="node">
<title>args</title>
<g id="a_node22"><a xlink:href="args.md" xlink:title="args.md">
<ellipse fill="#eee8aa" stroke="#000000" cx="2467" cy="-481" rx="39.0784" ry="22.7556"/>
<text text-anchor="middle" x="2467" y="-473.8" font-family="Times,serif" font-size="24.00" fill="#000000">args</text>
</a>
</g>
</g>
<!-- env&#45;&gt;args -->
<g id="edge18" class="edge">
<title>env&#45;&gt;args</title>
<path fill="none" stroke="#000000" d="M2336.0713,-761.5758C2345.8012,-726.9991 2366.4181,-658.9663 2392,-604.5083 2407.7692,-570.9392 2430.3388,-534.9505 2446.5947,-510.533"/>
<polygon fill="#000000" stroke="#000000" points="2449.5986,-512.3381 2452.2737,-502.0865 2443.7895,-508.4323 2449.5986,-512.3381"/>
</g>
<!-- env&#45;&gt;messages -->
<g id="edge16" class="edge">
<title>env&#45;&gt;messages</title>
<path fill="none" stroke="#000000" d="M2323.2318,-761.4376C2309.4665,-714.7961 2277.9921,-604.196 2260,-509.4917 2231.5728,-359.8606 2323.6427,-278.2507 2217,-169.5083 2165.1303,-116.6173 1678.7052,-70.9516 1468.7399,-53.5299"/>
<polygon fill="#000000" stroke="#000000" points="1468.9037,-50.0316 1458.6496,-52.6968 1468.3276,-57.0079 1468.9037,-50.0316"/>
</g>
<!-- unicodes&#45;&gt;opresultid -->
<g id="edge67" class="edge">
<title>unicodes&#45;&gt;opresultid</title>
<path fill="none" stroke="#000000" d="M478.5712,-764.316C512.5275,-743.7361 560.9144,-707.9616 582,-661.4917 592.4647,-638.4289 589.5785,-628.6738 582,-604.5083 551.5392,-507.3779 471.4118,-414.6832 427.6181,-369.1962"/>
<polygon fill="#000000" stroke="#000000" points="429.8835,-366.5058 420.399,-361.7841 424.8688,-371.3898 429.8835,-366.5058"/>
</g>
<!-- unicodes&#45;&gt;vartypes -->
<g id="edge73" class="edge">
<title>unicodes&#45;&gt;vartypes</title>
<path fill="none" stroke="#000000" d="M492.1209,-767.6087C546.3022,-748.2099 633.3017,-712.0394 696,-661.4917 710.4189,-649.8672 778.534,-559.5613 814.5493,-511.2577"/>
<polygon fill="#000000" stroke="#000000" points="817.5052,-513.1484 820.6707,-503.0375 811.8909,-508.9675 817.5052,-513.1484"/>
</g>
<!-- unicodes&#45;&gt;funtypes -->
<g id="edge72" class="edge">
<title>unicodes&#45;&gt;funtypes</title>
<path fill="none" stroke="#000000" d="M491.2324,-767.5529C575.2322,-739.491 745.8499,-682.4926 835.6812,-652.4826"/>
<polygon fill="#000000" stroke="#000000" points="836.7952,-655.8007 845.1709,-649.3124 834.5771,-649.1614 836.7952,-655.8007"/>
</g>
<!-- utf8decoder -->
<g id="node16" class="node">
<title>utf8decoder</title>
<g id="a_node16"><a xlink:href="utf8decoder.md" xlink:title="utf8decoder.md">
<polygon fill="#98fb98" stroke="#000000" points="535.9296,-622.8581 535.9296,-643.1419 477.3922,-657.4846 394.6078,-657.4846 336.0704,-643.1419 336.0704,-622.8581 394.6078,-608.5154 477.3922,-608.5154 535.9296,-622.8581"/>
<polygon fill="none" stroke="#000000" points="539.9282,-619.7208 539.9282,-646.2792 477.8749,-661.4835 394.1251,-661.4835 332.0718,-646.2792 332.0718,-619.7208 394.1251,-604.5165 477.8749,-604.5165 539.9282,-619.7208"/>
<text text-anchor="middle" x="436" y="-625.8" font-family="Times,serif" font-size="24.00" fill="#000000">utf8decoder</text>
</a>
</g>
</g>
<!-- unicodes&#45;&gt;utf8decoder -->
<g id="edge71" class="edge">
<title>unicodes&#45;&gt;utf8decoder</title>
<path fill="none" stroke="#000000" d="M441.0887,-761.0664C440.1498,-737.4365 438.669,-700.1686 437.5463,-671.9151"/>
<polygon fill="#000000" stroke="#000000" points="441.0298,-671.4284 437.1354,-661.5753 434.0353,-671.7064 441.0298,-671.4284"/>
</g>
<!-- unicodes&#45;&gt;warnings -->
<g id="edge70" class="edge">
<title>unicodes&#45;&gt;warnings</title>
<path fill="none" stroke="#000000" d="M476.2161,-764.0064C510.9707,-742.3272 564.5828,-704.9429 600,-661.4917 707.6539,-529.4178 638.1627,-426.5261 769,-317.3726 821.7692,-273.3489 1010.2101,-231.931 1116.2116,-211.4222"/>
<polygon fill="#000000" stroke="#000000" points="1117.0446,-214.8262 1126.2052,-209.5033 1115.7245,-207.9518 1117.0446,-214.8262"/>
</g>
<!-- unicodes&#45;&gt;opresultwarn -->
<g id="edge68" class="edge">
<title>unicodes&#45;&gt;opresultwarn</title>
<path fill="none" stroke="#000000" d="M489.5605,-766.8411C537.3571,-747.5506 610.5593,-712.1582 658,-661.4917 693.2543,-623.8403 728.5364,-494.1312 759,-452.5083 782.6372,-420.2123 816.2597,-389.4161 841.7397,-368.2351"/>
<polygon fill="#000000" stroke="#000000" points="844.189,-370.753 849.7033,-361.7063 839.7509,-365.3397 844.189,-370.753"/>
</g>
<!-- unicodes&#45;&gt;messages -->
<g id="edge69" class="edge">
<title>unicodes&#45;&gt;messages</title>
<path fill="none" stroke="#000000" d="M469.941,-762.9873C509.4208,-730.539 574.0846,-665.5847 549,-604.5083 485.9194,-450.9185 223.3637,-459.0169 310,-317.3726 412.0781,-150.4821 1034.8078,-76.6914 1276.8779,-54.0489"/>
<polygon fill="#000000" stroke="#000000" points="1277.4361,-57.5122 1287.0706,-53.1047 1276.7904,-50.5421 1277.4361,-57.5122"/>
</g>
<!-- variables -->
<g id="node9" class="node">
<title>variables</title>
<g id="a_node9"><a xlink:href="variables.md" xlink:title="variables.md">
<ellipse fill="#eee8aa" stroke="#000000" cx="1449" cy="-633" rx="72.6337" ry="22.7556"/>
<text text-anchor="middle" x="1449" y="-625.8" font-family="Times,serif" font-size="24.00" fill="#000000">variables</text>
</a>
</g>
</g>
<!-- variables&#45;&gt;vartypes -->
<g id="edge48" class="edge">
<title>variables&#45;&gt;vartypes</title>
<path fill="none" stroke="#000000" d="M1391.9741,-618.8367C1277.9682,-590.5215 1022.5629,-527.0875 902.1623,-497.1841"/>
<polygon fill="#000000" stroke="#000000" points="902.8831,-493.7568 892.3342,-494.7431 901.1957,-500.5504 902.8831,-493.7568"/>
</g>
<!-- variables&#45;&gt;warnings -->
<g id="edge51" class="edge">
<title>variables&#45;&gt;warnings</title>
<path fill="none" stroke="#000000" d="M1435.6204,-610.5285C1392.638,-538.338 1257.9985,-312.206 1208.4983,-229.0685"/>
<polygon fill="#000000" stroke="#000000" points="1211.4229,-227.1389 1203.2996,-220.3372 1205.4082,-230.7201 1211.4229,-227.1389"/>
</g>
<!-- variables&#45;&gt;args -->
<g id="edge52" class="edge">
<title>variables&#45;&gt;args</title>
<path fill="none" stroke="#000000" d="M1517.0834,-625.0754C1730.5544,-600.1292 2375.16,-524.009 2418,-509.4917 2422.8842,-507.8366 2427.8222,-505.6651 2432.5872,-503.2581"/>
<polygon fill="#000000" stroke="#000000" points="2434.372,-506.2714 2441.4777,-498.4126 2431.0221,-500.125 2434.372,-506.2714"/>
</g>
<!-- variables&#45;&gt;opresultwarn -->
<g id="edge53" class="edge">
<title>variables&#45;&gt;opresultwarn</title>
<path fill="none" stroke="#000000" d="M1411.0929,-613.5485C1311.0346,-562.2051 1039.8275,-423.0393 927.6259,-365.4648"/>
<polygon fill="#000000" stroke="#000000" points="929.0424,-362.2578 918.5474,-360.8063 925.8466,-368.4857 929.0424,-362.2578"/>
</g>
<!-- variables&#45;&gt;messages -->
<g id="edge50" class="edge">
<title>variables&#45;&gt;messages</title>
<path fill="none" stroke="#000000" d="M1446.0673,-610.3486C1434.5848,-521.6614 1392.5981,-197.3698 1378.0237,-84.8017"/>
<polygon fill="#000000" stroke="#000000" points="1381.4559,-84.0518 1376.7008,-74.584 1374.5139,-84.9506 1381.4559,-84.0518"/>
</g>
<!-- version -->
<g id="node26" class="node">
<title>version</title>
<g id="a_node26"><a xlink:href="version.md" xlink:title="version.md">
<polygon fill="#98fb98" stroke="#000000" points="2405.1523,-470.8581 2405.1523,-491.1419 2366.4012,-505.4846 2311.5988,-505.4846 2272.8477,-491.1419 2272.8477,-470.8581 2311.5988,-456.5154 2366.4012,-456.5154 2405.1523,-470.8581"/>
<polygon fill="none" stroke="#000000" points="2409.1421,-468.0721 2409.1421,-493.9279 2367.1143,-509.4835 2310.8857,-509.4835 2268.8579,-493.9279 2268.8579,-468.0721 2310.8857,-452.5165 2367.1143,-452.5165 2409.1421,-468.0721"/>
<text text-anchor="middle" x="2339" y="-473.8" font-family="Times,serif" font-size="24.00" fill="#000000">version</text>
</a>
</g>
</g>
<!-- variables&#45;&gt;version -->
<g id="edge49" class="edge">
<title>variables&#45;&gt;version</title>
<path fill="none" stroke="#000000" d="M1512.6494,-622.1295C1671.2958,-595.0349 2084.066,-524.5393 2258.8932,-494.6812"/>
<polygon fill="#000000" stroke="#000000" points="2259.5342,-498.1225 2268.8022,-492.9888 2258.3557,-491.2224 2259.5342,-498.1225"/>
</g>
<!-- vartypes&#45;&gt;warnings -->
<g id="edge42" class="edge">
<title>vartypes&#45;&gt;warnings</title>
<path fill="none" stroke="#000000" d="M863.9105,-459.938C893.997,-436.3497 944.1283,-396.925 987,-362.6274 1046.6676,-314.8931 1115.6757,-258.7229 1155.9171,-225.8702"/>
<polygon fill="#000000" stroke="#000000" points="1158.2807,-228.4588 1163.8122,-219.4226 1153.853,-223.0371 1158.2807,-228.4588"/>
</g>
<!-- vartypes&#45;&gt;opresultwarn -->
<g id="edge43" class="edge">
<title>vartypes&#45;&gt;opresultwarn</title>
<path fill="none" stroke="#000000" d="M843.5874,-458.3459C850.3418,-435.1172 860.9116,-398.7676 868.5554,-372.4802"/>
<polygon fill="#000000" stroke="#000000" points="871.9976,-373.1774 871.429,-362.5979 865.276,-371.2229 871.9976,-373.1774"/>
</g>
<!-- vartypes&#45;&gt;messages -->
<g id="edge41" class="edge">
<title>vartypes&#45;&gt;messages</title>
<path fill="none" stroke="#000000" d="M819.6081,-459.0033C802.8936,-436.346 778.7748,-399.2665 769,-362.6274 755.4573,-311.8647 754.2323,-199.8408 781,-169.5083 845.3439,-96.5952 1126.5446,-64.5331 1277.0724,-52.3797"/>
<polygon fill="#000000" stroke="#000000" points="1277.5454,-55.8533 1287.2372,-51.5732 1276.9917,-48.8752 1277.5454,-55.8533"/>
</g>
<!-- codefile -->
<g id="node12" class="node">
<title>codefile</title>
<g id="a_node12"><a xlink:href="codefile.md" xlink:title="codefile.md">
<polygon fill="#98fb98" stroke="#000000" points="2765.2916,-1340.8581 2765.2916,-1361.1419 2724.1157,-1375.4846 2665.8843,-1375.4846 2624.7084,-1361.1419 2624.7084,-1340.8581 2665.8843,-1326.5154 2724.1157,-1326.5154 2765.2916,-1340.8581"/>
<polygon fill="none" stroke="#000000" points="2769.2858,-1338.0155 2769.2858,-1363.9845 2724.7907,-1379.4835 2665.2093,-1379.4835 2620.7142,-1363.9845 2620.7142,-1338.0155 2665.2093,-1322.5165 2724.7907,-1322.5165 2769.2858,-1338.0155"/>
<text text-anchor="middle" x="2695" y="-1343.8" font-family="Times,serif" font-size="24.00" fill="#000000">codefile</text>
</a>
</g>
</g>
<!-- replacement -->
<g id="node13" class="node">
<title>replacement</title>
<g id="a_node13"><a xlink:href="replacement.md" xlink:title="replacement.md">
<ellipse fill="#eee8aa" stroke="#000000" cx="1752" cy="-926" rx="94.4556" ry="22.7556"/>
<text text-anchor="middle" x="1752" y="-918.8" font-family="Times,serif" font-size="24.00" fill="#000000">replacement</text>
</a>
</g>
</g>
<!-- replacement&#45;&gt;parseNumber -->
<g id="edge103" class="edge">
<title>replacement&#45;&gt;parseNumber</title>
<path fill="none" stroke="#000000" d="M1681.5746,-910.8708C1563.4449,-885.4935 1325.0818,-834.2869 1190.0952,-805.2882"/>
<polygon fill="#000000" stroke="#000000" points="1190.6709,-801.8321 1180.1588,-803.1536 1189.2006,-808.676 1190.6709,-801.8321"/>
</g>
<!-- replacement&#45;&gt;regexes -->
<g id="edge94" class="edge">
<title>replacement&#45;&gt;regexes</title>
<path fill="none" stroke="#000000" d="M1760.7978,-903.4326C1772.4028,-870.3137 1789.6282,-806.9052 1774,-755.5083 1759.3671,-707.3847 1725.6329,-709.6153 1711,-661.4917 1703.6322,-637.2611 1705.3222,-629.1896 1711,-604.5083 1718.061,-573.814 1733.8151,-541.9049 1747.4086,-518.2106"/>
<polygon fill="#000000" stroke="#000000" points="1750.4474,-519.9475 1752.49,-509.5514 1744.4102,-516.4047 1750.4474,-519.9475"/>
</g>
<!-- replacement&#45;&gt;parseCmdLine -->
<g id="edge97" class="edge">
<title>replacement&#45;&gt;parseCmdLine</title>
<path fill="none" stroke="#000000" d="M1794.5219,-905.8057C1847.9758,-880.4195 1939.747,-836.8359 1997.7973,-809.2669"/>
<polygon fill="#000000" stroke="#000000" points="1999.6347,-812.2689 2007.1663,-804.8173 1996.6317,-805.9458 1999.6347,-812.2689"/>
</g>
<!-- replacement&#45;&gt;env -->
<g id="edge95" class="edge">
<title>replacement&#45;&gt;env</title>
<path fill="none" stroke="#000000" d="M1818.0223,-909.78C1937.4395,-880.4422 2186.2301,-819.3206 2286.6136,-794.6589"/>
<polygon fill="#000000" stroke="#000000" points="2287.5436,-798.0346 2296.4197,-792.2498 2285.8735,-791.2368 2287.5436,-798.0346"/>
</g>
<!-- replacement&#45;&gt;variables -->
<g id="edge101" class="edge">
<title>replacement&#45;&gt;variables</title>
<path fill="none" stroke="#000000" d="M1750.3974,-903.1175C1746.7837,-867.576 1735.1441,-798.7095 1698,-755.5083 1650.5171,-700.2822 1572.2834,-667.56 1516.175,-650.0217"/>
<polygon fill="#000000" stroke="#000000" points="1516.9049,-646.5855 1506.3192,-647.0253 1514.8687,-653.2829 1516.9049,-646.5855"/>
</g>
<!-- replacement&#45;&gt;tempFile -->
<g id="edge102" class="edge">
<title>replacement&#45;&gt;tempFile</title>
<path fill="none" stroke="#000000" d="M1835.4985,-915.3765C1945.6853,-899.4466 2130.4697,-865.4627 2171,-812.4917 2202.201,-771.7137 2182.747,-710.1319 2164.4797,-670.7477"/>
<polygon fill="#000000" stroke="#000000" points="2167.6276,-669.2174 2160.1359,-661.7257 2161.3205,-672.2541 2167.6276,-669.2174"/>
</g>
<!-- replacement&#45;&gt;vartypes -->
<g id="edge96" class="edge">
<title>replacement&#45;&gt;vartypes</title>
<path fill="none" stroke="#000000" d="M1737.4403,-903.6382C1712.0406,-866.5611 1655.9055,-792.7601 1589,-755.5083 1412.3867,-657.1732 1332.4749,-734.5619 1144,-661.4917 1039.4858,-620.9725 929.0291,-547.3185 873.4667,-507.7849"/>
<polygon fill="#000000" stroke="#000000" points="875.198,-504.7198 865.0299,-501.7432 871.1225,-510.4111 875.198,-504.7198"/>
</g>
<!-- readlines -->
<g id="node14" class="node">
<title>readlines</title>
<g id="a_node14"><a xlink:href="readlines.md" xlink:title="readlines.md">
<polygon fill="#98fb98" stroke="#000000" points="1575.5894,-773.8581 1575.5894,-794.1419 1529.5528,-808.4846 1464.4472,-808.4846 1418.4106,-794.1419 1418.4106,-773.8581 1464.4472,-759.5154 1529.5528,-759.5154 1575.5894,-773.8581"/>
<polygon fill="none" stroke="#000000" points="1579.5916,-770.9163 1579.5916,-797.0837 1530.1623,-812.4835 1463.8377,-812.4835 1414.4084,-797.0837 1414.4084,-770.9163 1463.8377,-755.5165 1530.1623,-755.5165 1579.5916,-770.9163"/>
<text text-anchor="middle" x="1497" y="-776.8" font-family="Times,serif" font-size="24.00" fill="#000000">readlines</text>
</a>
</g>
</g>
<!-- replacement&#45;&gt;readlines -->
<g id="edge98" class="edge">
<title>replacement&#45;&gt;readlines</title>
<path fill="none" stroke="#000000" d="M1714.6477,-905.1999C1671.4108,-881.1229 1599.8568,-841.2771 1550.6695,-813.8866"/>
<polygon fill="#000000" stroke="#000000" points="1552.1969,-810.731 1541.7573,-808.9237 1548.7913,-816.8468 1552.1969,-810.731"/>
</g>
<!-- replacement&#45;&gt;opresultwarn -->
<g id="edge104" class="edge">
<title>replacement&#45;&gt;opresultwarn</title>
<path fill="none" stroke="#000000" d="M1742.7294,-903.216C1726.8186,-866.8615 1690.9325,-795.7417 1639,-755.5083 1537.8872,-677.1736 1483.1692,-715.0159 1367,-661.4917 1245.7777,-605.6394 1219.4307,-582.9595 1108,-509.4917 1037.048,-462.7122 958.0441,-402.6283 913.5484,-368.0031"/>
<polygon fill="#000000" stroke="#000000" points="915.6889,-365.2339 905.6513,-361.843 911.3835,-370.7533 915.6889,-365.2339"/>
</g>
<!-- replacement&#45;&gt;messages -->
<g id="edge100" class="edge">
<title>replacement&#45;&gt;messages</title>
<path fill="none" stroke="#000000" d="M1749.502,-903.2418C1745.7094,-870.4162 1737.7832,-807.9606 1727,-755.5083 1701.5783,-631.8504 1654,-607.244 1654,-481 1654,-481 1654,-481 1654,-340 1654,-212.7376 1514.7023,-118.9376 1432.2589,-74.5667"/>
<polygon fill="#000000" stroke="#000000" points="1433.7121,-71.3757 1423.2372,-69.7858 1430.4343,-77.5609 1433.7121,-71.3757"/>
</g>
<!-- replacement&#45;&gt;matches -->
<g id="edge99" class="edge">
<title>replacement&#45;&gt;matches</title>
<path fill="none" stroke="#000000" d="M1768.1993,-903.4424C1782.9171,-881.4544 1803.5751,-846.4578 1812,-812.4917 1824.5661,-761.8298 1810.3457,-701.4491 1798.7796,-665.223"/>
<polygon fill="#000000" stroke="#000000" points="1802.0827,-664.0636 1795.6123,-655.6741 1795.4386,-666.2675 1802.0827,-664.0636"/>
</g>
<!-- funtypes&#45;&gt;vartypes -->
<g id="edge55" class="edge">
<title>funtypes&#45;&gt;vartypes</title>
<path fill="none" stroke="#000000" d="M885.4665,-610.2441C875.8542,-584.6112 860.1522,-542.7393 849.2357,-513.6286"/>
<polygon fill="#000000" stroke="#000000" points="852.3803,-512.0458 845.5918,-503.9115 845.826,-514.5038 852.3803,-512.0458"/>
</g>
<!-- funtypes&#45;&gt;warnings -->
<g id="edge57" class="edge">
<title>funtypes&#45;&gt;warnings</title>
<path fill="none" stroke="#000000" d="M919.631,-611.9237C946.7737,-588.7383 989.7911,-549.4378 1020,-509.4917 1090.9597,-415.6597 1150.6453,-288.4997 1176.3949,-229.9376"/>
<polygon fill="#000000" stroke="#000000" points="1179.7291,-231.0478 1180.5188,-220.4824 1173.3128,-228.2493 1179.7291,-231.0478"/>
</g>
<!-- funtypes&#45;&gt;messages -->
<g id="edge56" class="edge">
<title>funtypes&#45;&gt;messages</title>
<path fill="none" stroke="#000000" d="M901.9386,-610.3316C933.7941,-519.5769 1051.4271,-186.5115 1068,-169.5083 1125.1984,-110.8247 1214.0583,-79.1275 1281.139,-62.5991"/>
<polygon fill="#000000" stroke="#000000" points="1281.9615,-66.0012 1290.8718,-60.2691 1280.3317,-59.1935 1281.9615,-66.0012"/>
</g>
<!-- warnings&#45;&gt;messages -->
<g id="edge2" class="edge">
<title>warnings&#45;&gt;messages</title>
<path fill="none" stroke="#ff0000" d="M1215.8313,-176.5445C1245.6916,-151.7425 1295.2729,-110.5602 1330.7644,-81.081"/>
<polygon fill="#ff0000" stroke="#ff0000" points="1333.1044,-83.6872 1338.5606,-74.6054 1328.6318,-78.3024 1333.1044,-83.6872"/>
</g>
<!-- collectCommand -->
<g id="node18" class="node">
<title>collectCommand</title>
<g id="a_node18"><a xlink:href="collectCommand.md" xlink:title="collectCommand.md">
<ellipse fill="#eee8aa" stroke="#000000" cx="2067" cy="-926" rx="127.4982" ry="22.7556"/>
<text text-anchor="middle" x="2067" y="-918.8" font-family="Times,serif" font-size="24.00" fill="#000000">collectCommand</text>
</a>
</g>
</g>
<!-- collectCommand&#45;&gt;parseCmdLine -->
<g id="edge33" class="edge">
<title>collectCommand&#45;&gt;parseCmdLine</title>
<path fill="none" stroke="#000000" d="M2064.4293,-903.1852C2061.7934,-879.7918 2057.6687,-843.1843 2054.6857,-816.7105"/>
<polygon fill="#000000" stroke="#000000" points="2058.1621,-816.3033 2053.5643,-806.7581 2051.2061,-817.0872 2058.1621,-816.3033"/>
</g>
<!-- collectCommand&#45;&gt;env -->
<g id="edge30" class="edge">
<title>collectCommand&#45;&gt;env</title>
<path fill="none" stroke="#000000" d="M2108.418,-904.3721C2151.4755,-881.7844 2220.7353,-845.1599 2280,-812.4917 2284.6387,-809.9348 2289.5005,-807.2149 2294.2941,-804.5093"/>
<polygon fill="#000000" stroke="#000000" points="2296.381,-807.3494 2303.3515,-799.3705 2292.9267,-801.261 2296.381,-807.3494"/>
</g>
<!-- collectCommand&#45;&gt;readlines -->
<g id="edge32" class="edge">
<title>collectCommand&#45;&gt;readlines</title>
<path fill="none" stroke="#000000" d="M1993.0668,-907.5816C1885.463,-880.775 1686.5349,-831.2175 1576.094,-803.7041"/>
<polygon fill="#000000" stroke="#000000" points="1576.8906,-800.2957 1566.3411,-801.2745 1575.1984,-807.0881 1576.8906,-800.2957"/>
</g>
<!-- collectCommand&#45;&gt;opresultwarn -->
<g id="edge35" class="edge">
<title>collectCommand&#45;&gt;opresultwarn</title>
<path fill="none" stroke="#000000" d="M2097.2096,-903.9141C2136.7032,-872.1551 2197.8649,-811.2622 2171,-755.5083 2141.8924,-695.0999 2100.3102,-709.0119 2053,-661.4917 1969.5053,-577.6264 1991.472,-509.9391 1888,-452.5083 1735.6167,-367.9298 1216.9075,-346.8886 988.0367,-341.6896"/>
<polygon fill="#000000" stroke="#000000" points="988.0987,-338.1902 978.0237,-341.468 987.9438,-345.1885 988.0987,-338.1902"/>
</g>
<!-- collectCommand&#45;&gt;messages -->
<g id="edge34" class="edge">
<title>collectCommand&#45;&gt;messages</title>
<path fill="none" stroke="#000000" d="M2098.3733,-904.0022C2125.7038,-883.3072 2164.5317,-849.9622 2188,-812.4917 2238.3028,-732.1761 2265.9178,-694.0909 2235,-604.5083 2182.1059,-451.2502 2120.255,-436.2408 2010,-317.3726 1943.7077,-245.9015 1933.684,-215.9952 1848,-169.5083 1726.5355,-103.609 1568.3326,-71.6371 1468.689,-57.0536"/>
<polygon fill="#000000" stroke="#000000" points="1469.0293,-53.5667 1458.6337,-55.612 1468.0357,-60.4959 1469.0293,-53.5667"/>
</g>
<!-- collectCommand&#45;&gt;matches -->
<g id="edge31" class="edge">
<title>collectCommand&#45;&gt;matches</title>
<path fill="none" stroke="#000000" d="M2036.6517,-903.8924C2007.9027,-882.2302 1964.2944,-847.4609 1931,-812.4917 1909.1222,-789.5135 1907.6514,-780.4173 1888,-755.5083 1862.6903,-723.4271 1832.8252,-687.4206 1812.1674,-662.7925"/>
<polygon fill="#000000" stroke="#000000" points="1814.6473,-660.3031 1805.5346,-654.8986 1809.288,-664.8063 1814.6473,-660.3031"/>
</g>
<!-- statictea -->
<g id="node19" class="node">
<title>statictea</title>
<g id="a_node19"><a xlink:href="statictea.md" xlink:title="statictea.md">
<polygon fill="#eee8aa" stroke="#000000" points="2437.0958,-1342.3667 2520,-1323.0619 2602.9042,-1342.3667 2602.8268,-1373.6024 2437.1732,-1373.6024 2437.0958,-1342.3667"/>
<text text-anchor="middle" x="2520" y="-1343.8" font-family="Times,serif" font-size="24.00" fill="#000000">statictea</text>
</a>
</g>
</g>
<!-- statictea&#45;&gt;env -->
<g id="edge112" class="edge">
<title>statictea&#45;&gt;env</title>
<path fill="none" stroke="#000000" d="M2500.5753,-1327.1129C2482.2153,-1303.4164 2455.1446,-1265.4011 2439,-1228.4917 2375.1151,-1082.4396 2344.4162,-892.3003 2334.1255,-816.8861"/>
<polygon fill="#000000" stroke="#000000" points="2337.5463,-816.0596 2332.7538,-806.6107 2330.6079,-816.986 2337.5463,-816.0596"/>
</g>
<!-- gethelp -->
<g id="node20" class="node">
<title>gethelp</title>
<g id="a_node20"><a xlink:href="gethelp.md" xlink:title="gethelp.md">
<polygon fill="#98fb98" stroke="#000000" points="2722.1349,-1189.8581 2722.1349,-1210.1419 2683.394,-1224.4846 2628.606,-1224.4846 2589.8651,-1210.1419 2589.8651,-1189.8581 2628.606,-1175.5154 2683.394,-1175.5154 2722.1349,-1189.8581"/>
<polygon fill="none" stroke="#000000" points="2726.1242,-1187.0722 2726.1242,-1212.9278 2684.1071,-1228.4835 2627.8929,-1228.4835 2585.8758,-1212.9278 2585.8758,-1187.0722 2627.8929,-1171.5165 2684.1071,-1171.5165 2726.1242,-1187.0722"/>
<text text-anchor="middle" x="2656" y="-1192.8" font-family="Times,serif" font-size="24.00" fill="#000000">gethelp</text>
</a>
</g>
</g>
<!-- statictea&#45;&gt;gethelp -->
<g id="edge110" class="edge">
<title>statictea&#45;&gt;gethelp</title>
<path fill="none" stroke="#000000" d="M2540.952,-1327.7372C2562.8823,-1303.388 2597.6181,-1264.8211 2623.1895,-1236.4293"/>
<polygon fill="#000000" stroke="#000000" points="2626.0489,-1238.4843 2630.1407,-1228.7115 2620.8476,-1233.7996 2626.0489,-1238.4843"/>
</g>
<!-- statictea&#45;&gt;args -->
<g id="edge108" class="edge">
<title>statictea&#45;&gt;args</title>
<path fill="none" stroke="#000000" d="M2520,-1322.7153C2520,-1270.4382 2520,-1155.158 2520,-1058 2520,-1058 2520,-1058 2520,-926 2520,-770.6433 2487.7549,-586.9055 2473.567,-513.5798"/>
<polygon fill="#000000" stroke="#000000" points="2476.9654,-512.721 2471.6107,-503.5789 2470.0956,-514.0649 2476.9654,-512.721"/>
</g>
<!-- statictea&#45;&gt;opresultwarn -->
<g id="edge113" class="edge">
<title>statictea&#45;&gt;opresultwarn</title>
<path fill="none" stroke="#000000" d="M2437.2307,-1350.2735C2002.1855,-1345.3892 0,-1309.2614 0,-1058 0,-1058 0,-1058 0,-784 0,-442.7507 534.7105,-363.7167 769.5653,-345.4613"/>
<polygon fill="#000000" stroke="#000000" points="770.1294,-348.9288 779.8379,-344.6868 769.6031,-341.9486 770.1294,-348.9288"/>
</g>
<!-- statictea&#45;&gt;messages -->
<g id="edge109" class="edge">
<title>statictea&#45;&gt;messages</title>
<path fill="none" stroke="#000000" d="M2571.8538,-1335.1313C2670.1807,-1301.4592 2874,-1212.9707 2874,-1058 2874,-1058 2874,-1058 2874,-340 2874,-271.6203 3376.6544,-422.9486 2596,-169.5083 2386.4131,-101.4656 1719.1049,-62.8288 1468.9413,-50.4337"/>
<polygon fill="#000000" stroke="#000000" points="1468.9413,-46.9295 1458.7813,-49.9334 1468.597,-53.9211 1468.9413,-46.9295"/>
</g>
<!-- statictea&#45;&gt;version -->
<g id="edge111" class="edge">
<title>statictea&#45;&gt;version</title>
<path fill="none" stroke="#000000" d="M2514.3846,-1324.0086C2488.1917,-1198.1092 2377.9947,-668.433 2347.0892,-519.8816"/>
<polygon fill="#000000" stroke="#000000" points="2350.4668,-518.9328 2345.0032,-509.8554 2343.6135,-520.3586 2350.4668,-518.9328"/>
</g>
<!-- timer -->
<g id="node28" class="node">
<title>timer</title>
<g id="a_node28"><a xlink:href="timer.md" xlink:title="timer.md">
<polygon fill="#98fb98" stroke="#000000" points="3008.0202,-1189.8581 3008.0202,-1210.1419 2978.1333,-1224.4846 2935.8667,-1224.4846 2905.9798,-1210.1419 2905.9798,-1189.8581 2935.8667,-1175.5154 2978.1333,-1175.5154 3008.0202,-1189.8581"/>
<polygon fill="none" stroke="#000000" points="3012.021,-1187.3422 3012.021,-1212.6578 2979.044,-1228.4835 2934.956,-1228.4835 2901.979,-1212.6578 2901.979,-1187.3422 2934.956,-1171.5165 2979.044,-1171.5165 3012.021,-1187.3422"/>
<text text-anchor="middle" x="2957" y="-1192.8" font-family="Times,serif" font-size="24.00" fill="#000000">timer</text>
</a>
</g>
</g>
<!-- statictea&#45;&gt;timer -->
<g id="edge114" class="edge">
<title>statictea&#45;&gt;timer</title>
<path fill="none" stroke="#000000" d="M2571.8992,-1334.9888C2643.5216,-1312.6061 2776.4659,-1270.0259 2888,-1228.4917 2893.2377,-1226.5413 2898.6689,-1224.4394 2904.0796,-1222.2925"/>
<polygon fill="#000000" stroke="#000000" points="2905.7793,-1225.3814 2913.7507,-1218.4024 2903.167,-1218.8871 2905.7793,-1225.3814"/>
</g>
<!-- parseCommandLine -->
<g id="node29" class="node">
<title>parseCommandLine</title>
<g id="a_node29"><a xlink:href="parseCommandLine.md" xlink:title="parseCommandLine.md">
<ellipse fill="#eee8aa" stroke="#000000" cx="2659" cy="-633" rx="148.8522" ry="22.7556"/>
<text text-anchor="middle" x="2659" y="-625.8" font-family="Times,serif" font-size="24.00" fill="#000000">parseCommandLine</text>
</a>
</g>
</g>
<!-- statictea&#45;&gt;parseCommandLine -->
<g id="edge12" class="edge">
<title>statictea&#45;&gt;parseCommandLine</title>
<path fill="none" stroke="#000000" d="M2525.8542,-1324.0867C2536.5135,-1272.6569 2558,-1156.7411 2558,-1058 2558,-1058 2558,-1058 2558,-926 2558,-826.007 2611.2265,-716.7831 2640.4006,-664.4264"/>
<polygon fill="#000000" stroke="#000000" points="2643.502,-666.0523 2645.3787,-655.625 2637.409,-662.6061 2643.502,-666.0523"/>
</g>
<!-- processTemplate -->
<g id="node30" class="node">
<title>processTemplate</title>
<g id="a_node30"><a xlink:href="processTemplate.md" xlink:title="processTemplate.md">
<ellipse fill="#eee8aa" stroke="#000000" cx="1843" cy="-1200" rx="125.2054" ry="22.7556"/>
<text text-anchor="middle" x="1843" y="-1192.8" font-family="Times,serif" font-size="24.00" fill="#000000">processTemplate</text>
</a>
</g>
</g>
<!-- statictea&#45;&gt;processTemplate -->
<g id="edge107" class="edge">
<title>statictea&#45;&gt;processTemplate</title>
<path fill="none" stroke="#000000" d="M2458.4267,-1337.2665C2338.0246,-1310.4117 2071.0242,-1250.8592 1931.6224,-1219.7666"/>
<polygon fill="#000000" stroke="#000000" points="1932.3319,-1216.3389 1921.8098,-1217.578 1930.808,-1223.171 1932.3319,-1216.3389"/>
</g>
<!-- signatures&#45;&gt;vartypes -->
<g id="edge75" class="edge">
<title>signatures&#45;&gt;vartypes</title>
<path fill="none" stroke="#000000" d="M821.2765,-768.086C871.2589,-750.822 940.695,-717.8735 973,-661.4917 1007.0197,-602.1173 931.5597,-539.869 880.0043,-506.2217"/>
<polygon fill="#000000" stroke="#000000" points="881.634,-503.1095 871.3225,-500.6753 877.8654,-509.0085 881.634,-503.1095"/>
</g>
<!-- signatures&#45;&gt;funtypes -->
<g id="edge76" class="edge">
<title>signatures&#45;&gt;funtypes</title>
<path fill="none" stroke="#000000" d="M783.1819,-761.7194C805.7775,-735.4739 843.4027,-691.7708 868.4529,-662.6739"/>
<polygon fill="#000000" stroke="#000000" points="871.29,-664.743 875.162,-654.881 865.9851,-660.1759 871.29,-664.743"/>
</g>
<!-- signatures&#45;&gt;messages -->
<g id="edge77" class="edge">
<title>signatures&#45;&gt;messages</title>
<path fill="none" stroke="#000000" d="M815.6925,-766.5496C865.8139,-747.434 941.3582,-712.5384 991,-661.4917 1053.6322,-597.087 1082,-570.8375 1082,-481 1082,-481 1082,-481 1082,-340 1082,-263.4156 1061.212,-230.8974 1107,-169.5083 1149.5332,-112.4829 1224.8754,-80.9139 1284.5432,-64.0006"/>
<polygon fill="#000000" stroke="#000000" points="1285.6358,-67.3303 1294.3542,-61.3103 1283.7846,-60.5795 1285.6358,-67.3303"/>
</g>
<!-- args&#45;&gt;warnings -->
<g id="edge3" class="edge">
<title>args&#45;&gt;warnings</title>
<path fill="none" stroke="#000000" d="M2440.6293,-464.1646C2433.4606,-460.0079 2425.5795,-455.8065 2418,-452.5083 2228.081,-369.8641 2174,-363.1468 1972,-317.3726 1718.2451,-259.8705 1411.791,-222.0999 1269.6133,-206.3487"/>
<polygon fill="#000000" stroke="#000000" points="1269.9865,-202.8687 1259.6633,-205.2527 1269.22,-209.8266 1269.9865,-202.8687"/>
</g>
<!-- args&#45;&gt;opresultwarn -->
<g id="edge6" class="edge">
<title>args&#45;&gt;opresultwarn</title>
<path fill="none" stroke="#000000" d="M2441.825,-463.4492C2434.4585,-459.1372 2426.1794,-455.0367 2418,-452.5083 2150.5154,-369.8233 1294.2899,-347.1672 988.1386,-341.6281"/>
<polygon fill="#000000" stroke="#000000" points="987.9822,-338.1248 977.9214,-341.4459 987.8573,-345.1237 987.9822,-338.1248"/>
</g>
<!-- args&#45;&gt;messages -->
<g id="edge1" class="edge">
<title>args&#45;&gt;messages</title>
<path fill="none" stroke="#000000" d="M2461.7539,-458.2085C2446.8806,-399.2442 2398.5023,-241.286 2293,-169.5083 2160.2501,-79.1928 1676.7736,-54.6464 1468.9827,-48.2022"/>
<polygon fill="#000000" stroke="#000000" points="1468.799,-44.6951 1458.6977,-47.8911 1468.5873,-51.6919 1468.799,-44.6951"/>
</g>
<!-- opresultwarn&#45;&gt;warnings -->
<g id="edge4" class="edge">
<title>opresultwarn&#45;&gt;warnings</title>
<path fill="none" stroke="#000000" d="M922.702,-319.6549C979.9609,-293.5947 1078.9613,-248.5369 1139.0712,-221.1791"/>
<polygon fill="#000000" stroke="#000000" points="1140.7204,-224.274 1148.3722,-216.946 1137.8207,-217.9029 1140.7204,-224.274"/>
</g>
<!-- opresultwarn&#45;&gt;opresult -->
<g id="edge5" class="edge">
<title>opresultwarn&#45;&gt;opresult</title>
<path fill="none" stroke="#000000" d="M875.9113,-317.1852C873.9305,-295.5491 870.9149,-262.6094 868.5556,-236.838"/>
<polygon fill="#000000" stroke="#000000" points="872.0194,-236.2816 867.6222,-226.6424 865.0485,-236.9198 872.0194,-236.2816"/>
</g>
<!-- matches&#45;&gt;regexes -->
<g id="edge21" class="edge">
<title>matches&#45;&gt;regexes</title>
<path fill="none" stroke="#000000" d="M1784.6046,-610.2441C1782.089,-586.3458 1778.0876,-548.3321 1775.0742,-519.7049"/>
<polygon fill="#000000" stroke="#000000" points="1778.541,-519.2049 1774.0133,-509.6263 1771.5795,-519.9378 1778.541,-519.2049"/>
</g>
<!-- matches&#45;&gt;args -->
<g id="edge20" class="edge">
<title>matches&#45;&gt;args</title>
<path fill="none" stroke="#000000" d="M1852.0764,-627.4574C1968.7299,-615.9645 2219.7638,-584.1049 2418,-509.4917 2422.7704,-507.6962 2427.6163,-505.4609 2432.312,-503.0373"/>
<polygon fill="#000000" stroke="#000000" points="2434.0183,-506.0933 2441.0973,-498.2104 2430.6476,-499.9583 2434.0183,-506.0933"/>
</g>
<!-- readjson -->
<g id="node27" class="node">
<title>readjson</title>
<g id="a_node27"><a xlink:href="readjson.md" xlink:title="readjson.md">
<ellipse fill="#eee8aa" stroke="#000000" cx="287" cy="-926" rx="68.6102" ry="22.7556"/>
<text text-anchor="middle" x="287" y="-918.8" font-family="Times,serif" font-size="24.00" fill="#000000">readjson</text>
</a>
</g>
</g>
<!-- readjson&#45;&gt;unicodes -->
<g id="edge84" class="edge">
<title>readjson&#45;&gt;unicodes</title>
<path fill="none" stroke="#000000" d="M310.5412,-904.4333C337.3621,-879.8618 381.2999,-839.6091 410.9173,-812.4758"/>
<polygon fill="#000000" stroke="#000000" points="413.4825,-814.8725 418.4917,-805.5366 408.7539,-809.711 413.4825,-814.8725"/>
</g>
<!-- readjson&#45;&gt;vartypes -->
<g id="edge81" class="edge">
<title>readjson&#45;&gt;vartypes</title>
<path fill="none" stroke="#000000" d="M281.6445,-903.0823C269.5545,-845.0551 246.8012,-690.8205 323,-604.5083 352.4136,-571.1907 631.5939,-517.5812 765.7265,-493.4629"/>
<polygon fill="#000000" stroke="#000000" points="766.6815,-496.8476 775.9075,-491.6388 765.447,-489.9573 766.6815,-496.8476"/>
</g>
<!-- readjson&#45;&gt;utf8decoder -->
<g id="edge85" class="edge">
<title>readjson&#45;&gt;utf8decoder</title>
<path fill="none" stroke="#000000" d="M295.6099,-903.4686C308.5085,-870.3944 334.2092,-807.0411 361,-755.5083 376.3674,-725.9486 396.1204,-693.878 411.4968,-669.967"/>
<polygon fill="#000000" stroke="#000000" points="414.4516,-671.8433 416.9476,-661.5466 408.5753,-668.0393 414.4516,-671.8433"/>
</g>
<!-- readjson&#45;&gt;warnings -->
<g id="edge83" class="edge">
<title>readjson&#45;&gt;warnings</title>
<path fill="none" stroke="#000000" d="M255.4428,-905.6723C227.297,-885.6488 187.602,-852.3269 168,-812.4917 127.0668,-729.3073 103.3496,-683.428 152,-604.5083 301.0615,-362.7033 456.961,-416.9328 723,-317.3726 858.3588,-266.717 1023.6295,-230.0791 1116.8463,-211.6002"/>
<polygon fill="#000000" stroke="#000000" points="1117.6079,-215.0176 1126.744,-209.6528 1116.2565,-208.1492 1117.6079,-215.0176"/>
</g>
<!-- readjson&#45;&gt;opresultwarn -->
<g id="edge86" class="edge">
<title>readjson&#45;&gt;opresultwarn</title>
<path fill="none" stroke="#000000" d="M266.9897,-904.2589C219.1902,-849.6148 107.298,-703.8118 176,-604.5083 213.8889,-549.7427 639.3298,-413.6479 808.8734,-361.1362"/>
<polygon fill="#000000" stroke="#000000" points="809.9337,-364.4719 818.4533,-358.1737 807.8656,-357.7844 809.9337,-364.4719"/>
</g>
<!-- readjson&#45;&gt;messages -->
<g id="edge82" class="edge">
<title>readjson&#45;&gt;messages</title>
<path fill="none" stroke="#000000" d="M250.115,-906.8399C216.2304,-887.42 167.0037,-854.3107 138,-812.4917 50.2994,-686.0404 38,-634.8874 38,-481 38,-481 38,-481 38,-340 38,-204.0382 164.3961,-216.4429 292,-169.5083 472.1448,-103.2483 1047.5343,-64.3538 1277.0983,-51.1342"/>
<polygon fill="#000000" stroke="#000000" points="1277.3211,-54.6273 1287.1048,-50.5616 1276.9212,-47.6387 1277.3211,-54.6273"/>
</g>
<!-- parseCommandLine&#45;&gt;regexes -->
<g id="edge10" class="edge">
<title>parseCommandLine&#45;&gt;regexes</title>
<path fill="none" stroke="#000000" d="M2559.7199,-616.0061C2382.955,-585.7491 2016.9036,-523.0916 1853.2183,-495.0734"/>
<polygon fill="#000000" stroke="#000000" points="1853.6539,-491.5971 1843.2067,-493.3597 1852.4728,-498.4968 1853.6539,-491.5971"/>
</g>
<!-- parseCommandLine&#45;&gt;cmdline -->
<g id="edge11" class="edge">
<title>parseCommandLine&#45;&gt;cmdline</title>
<path fill="none" stroke="#000000" d="M2661.3954,-610.2441C2663.911,-586.3458 2667.9124,-548.3321 2670.9258,-519.7049"/>
<polygon fill="#000000" stroke="#000000" points="2674.4205,-519.9378 2671.9867,-509.6263 2667.459,-519.2049 2674.4205,-519.9378"/>
</g>
<!-- parseCommandLine&#45;&gt;warnings -->
<g id="edge9" class="edge">
<title>parseCommandLine&#45;&gt;warnings</title>
<path fill="none" stroke="#000000" d="M2640.1168,-610.4512C2619.6223,-585.8534 2586.0652,-545.2118 2558,-509.4917 2538.3983,-484.5435 2540.9548,-470.7562 2515,-452.5083 2310.643,-308.8321 1527.0224,-227.8957 1271.2586,-204.8901"/>
<polygon fill="#000000" stroke="#000000" points="1271.202,-201.3712 1260.9301,-203.9668 1270.5787,-208.3434 1271.202,-201.3712"/>
</g>
<!-- parseCommandLine&#45;&gt;args -->
<g id="edge7" class="edge">
<title>parseCommandLine&#45;&gt;args</title>
<path fill="none" stroke="#000000" d="M2630.6697,-610.5719C2595.2727,-582.5493 2534.9023,-534.756 2498.2099,-505.7078"/>
<polygon fill="#000000" stroke="#000000" points="2500.3251,-502.9183 2490.3121,-499.4554 2495.9801,-508.4066 2500.3251,-502.9183"/>
</g>
<!-- parseCommandLine&#45;&gt;messages -->
<g id="edge8" class="edge">
<title>parseCommandLine&#45;&gt;messages</title>
<path fill="none" stroke="#000000" d="M2646.6925,-610.4218C2599.6254,-524.9633 2429.0147,-223.4406 2336,-169.5083 2189.9312,-84.8138 1682.6956,-57.0391 1469.0469,-48.9654"/>
<polygon fill="#000000" stroke="#000000" points="1468.9122,-45.458 1458.7892,-48.5844 1468.6523,-52.4532 1468.9122,-45.458"/>
</g>
<!-- processTemplate&#45;&gt;parseCmdLine -->
<g id="edge29" class="edge">
<title>processTemplate&#45;&gt;parseCmdLine</title>
<path fill="none" stroke="#000000" d="M1852.4677,-1177.4034C1862.212,-1153.6087 1877.4227,-1114.9127 1888,-1080.6274 1911.8978,-1003.1651 1891.2135,-974.0022 1931,-903.3726 1951.4552,-867.0602 1986.0774,-834.3436 2012.8908,-812.3841"/>
<polygon fill="#000000" stroke="#000000" points="2015.3316,-814.9128 2020.9371,-805.9223 2010.9486,-809.4549 2015.3316,-814.9128"/>
</g>
<!-- processTemplate&#45;&gt;env -->
<g id="edge19" class="edge">
<title>processTemplate&#45;&gt;env</title>
<path fill="none" stroke="#000000" d="M1892.2488,-1179.1871C1973.7396,-1142.7154 2137.9478,-1060.3756 2242,-948.6274 2278.841,-909.0615 2305.0352,-851.1564 2318.8147,-815.613"/>
<polygon fill="#000000" stroke="#000000" points="2322.1053,-816.8063 2322.3706,-806.2148 2315.5583,-814.3291 2322.1053,-816.8063"/>
</g>
<!-- processTemplate&#45;&gt;variables -->
<g id="edge91" class="edge">
<title>processTemplate&#45;&gt;variables</title>
<path fill="none" stroke="#000000" d="M1821.2208,-1177.6823C1781.6467,-1135.9999 1697.5522,-1042.0564 1649,-948.6274 1607.5553,-868.8755 1637.9981,-830.8556 1589,-755.5083 1563.2493,-715.9098 1521.2288,-681.5725 1489.9323,-659.4089"/>
<polygon fill="#000000" stroke="#000000" points="1491.6207,-656.32 1481.4119,-653.4862 1487.6253,-662.0678 1491.6207,-656.32"/>
</g>
<!-- processTemplate&#45;&gt;vartypes -->
<g id="edge92" class="edge">
<title>processTemplate&#45;&gt;vartypes</title>
<path fill="none" stroke="#000000" d="M1727.6605,-1191.1395C1371.0888,-1162.557 304.6835,-1067.6921 209,-948.6274 140.097,-862.8872 -72.1932,-951.5671 288,-604.5083 354.9795,-539.9712 626.0522,-503.1096 760.5505,-488.4581"/>
<polygon fill="#000000" stroke="#000000" points="761.2099,-491.9075 770.7782,-487.3581 760.4613,-484.9476 761.2099,-491.9075"/>
</g>
<!-- processTemplate&#45;&gt;replacement -->
<g id="edge105" class="edge">
<title>processTemplate&#45;&gt;replacement</title>
<path fill="none" stroke="#000000" d="M1835.3979,-1177.1102C1819.232,-1128.4348 1781.4002,-1014.5237 1762.7634,-958.4085"/>
<polygon fill="#000000" stroke="#000000" points="1765.99,-957.0191 1759.5165,-948.632 1759.3468,-959.2254 1765.99,-957.0191"/>
</g>
<!-- processTemplate&#45;&gt;readlines -->
<g id="edge23" class="edge">
<title>processTemplate&#45;&gt;readlines</title>
<path fill="none" stroke="#000000" d="M1769.2923,-1181.7021C1713.8817,-1164.3556 1639.9099,-1132.9825 1594,-1080.6274 1527.9819,-1005.3413 1506.7301,-884.1666 1500.0158,-822.5936"/>
<polygon fill="#000000" stroke="#000000" points="1503.4857,-822.1201 1498.9906,-812.5262 1496.5217,-822.8293 1503.4857,-822.1201"/>
</g>
<!-- processTemplate&#45;&gt;collectCommand -->
<g id="edge36" class="edge">
<title>processTemplate&#45;&gt;collectCommand</title>
<path fill="none" stroke="#000000" d="M1861.3309,-1177.5774C1901.284,-1128.7062 1996.2711,-1012.5166 2041.8081,-956.8151"/>
<polygon fill="#000000" stroke="#000000" points="2044.7963,-958.6898 2048.4159,-948.7324 2039.3768,-954.2592 2044.7963,-958.6898"/>
</g>
<!-- processTemplate&#45;&gt;args -->
<g id="edge13" class="edge">
<title>processTemplate&#45;&gt;args</title>
<path fill="none" stroke="#000000" d="M1903.7068,-1180.1604C1961.9029,-1159.734 2050.9958,-1124.7094 2121,-1080.6274 2196.4294,-1033.1292 2211.235,-1013.8447 2272,-948.6274 2323.7208,-893.1171 2341.3705,-880.5027 2375,-812.4917 2425.6967,-709.9647 2452.0275,-575.3313 2462.0773,-513.9988"/>
<polygon fill="#000000" stroke="#000000" points="2465.5904,-514.1941 2463.7132,-503.7669 2458.6782,-513.0889 2465.5904,-514.1941"/>
</g>
<!-- processTemplate&#45;&gt;opresultwarn -->
<g id="edge106" class="edge">
<title>processTemplate&#45;&gt;opresultwarn</title>
<path fill="none" stroke="#000000" d="M1721.648,-1194.3178C1428.9952,-1179.8547 690.8824,-1138.6435 451,-1080.6274 300.665,-1044.2686 215.1645,-1077.0729 129,-948.6274 84.0595,-881.6346 -113.4558,-1024.3013 152,-604.5083 197.4337,-532.6593 253.0086,-564.2879 318,-509.4917 343.0987,-488.3303 336.9868,-469.6258 365,-452.5083 434.0765,-410.299 654.1351,-372.5155 782.4948,-353.3254"/>
<polygon fill="#000000" stroke="#000000" points="783.3392,-356.7384 792.7166,-351.8075 782.311,-349.8144 783.3392,-356.7384"/>
</g>
<!-- processTemplate&#45;&gt;messages -->
<g id="edge14" class="edge">
<title>processTemplate&#45;&gt;messages</title>
<path fill="none" stroke="#000000" d="M1908.3733,-1180.5906C1975.0854,-1159.7142 2080.7759,-1123.6551 2167,-1080.6274 2474.5717,-927.1424 2636.8988,-954.2742 2817,-661.4917 2859.2623,-592.7878 2836,-561.6618 2836,-481 2836,-481 2836,-481 2836,-340 2836,-123.6311 2590.1716,-220.9222 2380,-169.5083 2051.5125,-89.1509 1649.3346,-59.8566 1468.7642,-50.2315"/>
<polygon fill="#000000" stroke="#000000" points="1468.9323,-46.7356 1458.7626,-49.7065 1468.5653,-53.726 1468.9323,-46.7356"/>
</g>
<!-- processTemplate&#45;&gt;matches -->
<g id="edge22" class="edge">
<title>processTemplate&#45;&gt;matches</title>
<path fill="none" stroke="#000000" d="M1845.9406,-1177.2493C1851.9298,-1127.4849 1864.2263,-1005.2625 1855,-903.3726 1848.9755,-836.8407 1844.6429,-820.206 1828,-755.5083 1819.9952,-724.3902 1808.1096,-689.7345 1799.1937,-665.2459"/>
<polygon fill="#000000" stroke="#000000" points="1802.4334,-663.915 1795.6954,-655.7388 1795.864,-666.3323 1802.4334,-663.915"/>
</g>
<!-- processTemplate&#45;&gt;readjson -->
<g id="edge93" class="edge">
<title>processTemplate&#45;&gt;readjson</title>
<path fill="none" stroke="#000000" d="M1742.7737,-1186.327C1503.7546,-1152.9754 882.0011,-1061.8251 370,-948.6274 363.2392,-947.1327 356.2052,-945.4373 349.2185,-943.6629"/>
<polygon fill="#000000" stroke="#000000" points="349.6125,-940.149 339.0536,-941.0209 347.8515,-946.9239 349.6125,-940.149"/>
</g>
<!-- runCommand -->
<g id="node32" class="node">
<title>runCommand</title>
<g id="a_node32"><a xlink:href="runCommand.md" xlink:title="runCommand.md">
<ellipse fill="#eee8aa" stroke="#000000" cx="1272" cy="-1058" rx="104.7872" ry="22.7556"/>
<text text-anchor="middle" x="1272" y="-1050.8" font-family="Times,serif" font-size="24.00" fill="#000000">runCommand</text>
</a>
</g>
</g>
<!-- processTemplate&#45;&gt;runCommand -->
<g id="edge90" class="edge">
<title>processTemplate&#45;&gt;runCommand</title>
<path fill="none" stroke="#000000" d="M1769.2291,-1181.6542C1661.3879,-1154.8355 1461.5342,-1105.1346 1350.8725,-1077.6145"/>
<polygon fill="#000000" stroke="#000000" points="1351.6507,-1074.2015 1341.1016,-1075.1846 1349.9613,-1080.9946 1351.6507,-1074.2015"/>
</g>
<!-- runCommand&#45;&gt;runFunction -->
<g id="edge80" class="edge">
<title>runCommand&#45;&gt;runFunction</title>
<path fill="none" stroke="#000000" d="M1209.3499,-1039.7846C1125.0612,-1015.2777 975.6126,-971.8257 887.8083,-946.2967"/>
<polygon fill="#000000" stroke="#000000" points="888.7798,-942.9343 878.2002,-943.5032 886.8254,-949.6559 888.7798,-942.9343"/>
</g>
<!-- runCommand&#45;&gt;parseNumber -->
<g id="edge47" class="edge">
<title>runCommand&#45;&gt;parseNumber</title>
<path fill="none" stroke="#000000" d="M1257.188,-1035.5774C1226.1091,-988.5298 1153.8174,-879.0937 1115.6374,-821.2964"/>
<polygon fill="#000000" stroke="#000000" points="1118.4696,-819.2338 1110.0374,-812.819 1112.6289,-823.0921 1118.4696,-819.2338"/>
</g>
<!-- runCommand&#45;&gt;regexes -->
<g id="edge39" class="edge">
<title>runCommand&#45;&gt;regexes</title>
<path fill="none" stroke="#000000" d="M1275.382,-1035.2588C1288.5578,-947.9023 1337.1921,-637.1335 1367,-604.5083 1410.3721,-557.0368 1583.8617,-516.6528 1688.8768,-495.918"/>
<polygon fill="#000000" stroke="#000000" points="1689.6771,-499.3279 1698.8192,-493.9732 1688.3332,-492.4581 1689.6771,-499.3279"/>
</g>
<!-- runCommand&#45;&gt;env -->
<g id="edge40" class="edge">
<title>runCommand&#45;&gt;env</title>
<path fill="none" stroke="#000000" d="M1376.5462,-1055.8034C1589.2,-1049.7251 2063.7815,-1027.4774 2203,-948.6274 2257.2918,-917.8779 2296.1667,-853.5995 2315.6923,-815.0883"/>
<polygon fill="#000000" stroke="#000000" points="2318.9458,-816.4044 2320.2371,-805.8886 2312.6699,-813.304 2318.9458,-816.4044"/>
</g>
<!-- runCommand&#45;&gt;variables -->
<g id="edge54" class="edge">
<title>runCommand&#45;&gt;variables</title>
<path fill="none" stroke="#000000" d="M1284.3246,-1035.5241C1295.8386,-1013.8014 1312.8764,-979.7062 1324,-948.6274 1353.8035,-865.3581 1337.3657,-836.887 1372,-755.5083 1386.1937,-722.1581 1408.8468,-687.4862 1425.9154,-663.5759"/>
<polygon fill="#000000" stroke="#000000" points="1428.8952,-665.4284 1431.9252,-655.2761 1423.2254,-661.323 1428.8952,-665.4284"/>
</g>
<!-- runCommand&#45;&gt;vartypes -->
<g id="edge44" class="edge">
<title>runCommand&#45;&gt;vartypes</title>
<path fill="none" stroke="#000000" d="M1169.8333,-1053.0543C1016.3925,-1043.4632 736.9307,-1016.8997 667,-948.6274 604.9425,-888.0416 605.6022,-835.548 639,-755.5083 661.8752,-700.6864 697.8337,-708.6161 734,-661.4917 753.7894,-635.7064 796.7471,-556.8042 820.4559,-512.3308"/>
<polygon fill="#000000" stroke="#000000" points="823.6029,-513.8673 825.2077,-503.3947 817.4224,-510.5808 823.6029,-513.8673"/>
</g>
<!-- runCommand&#45;&gt;readlines -->
<g id="edge37" class="edge">
<title>runCommand&#45;&gt;readlines</title>
<path fill="none" stroke="#000000" d="M1302.7201,-1036.3693C1330.3613,-1015.898 1370.9735,-983.2236 1400,-948.6274 1433.1326,-909.1373 1461.7815,-856.932 1479.1824,-821.9975"/>
<polygon fill="#000000" stroke="#000000" points="1482.5179,-823.1457 1483.7865,-812.6271 1476.2353,-820.0588 1482.5179,-823.1457"/>
</g>
<!-- runCommand&#45;&gt;funtypes -->
<g id="edge58" class="edge">
<title>runCommand&#45;&gt;funtypes</title>
<path fill="none" stroke="#000000" d="M1173.8632,-1050.1033C1033.0667,-1036.9209 783.1712,-1006.0368 715,-948.6274 647.0097,-891.3704 617.1787,-831.6755 663,-755.5083 698.1552,-697.0709 771.6007,-665.0309 826.2896,-648.5308"/>
<polygon fill="#000000" stroke="#000000" points="827.3028,-651.8812 835.9252,-645.7245 825.3454,-645.1605 827.3028,-651.8812"/>
</g>
<!-- runCommand&#45;&gt;warnings -->
<g id="edge46" class="edge">
<title>runCommand&#45;&gt;warnings</title>
<path fill="none" stroke="#000000" d="M1266.6361,-1035.0549C1256.1614,-988.1723 1234,-877.8884 1234,-784 1234,-784 1234,-784 1234,-481 1234,-389.1692 1211.0994,-282.5456 1198.3407,-230.2684"/>
<polygon fill="#000000" stroke="#000000" points="1201.737,-229.4224 1195.934,-220.5581 1194.9426,-231.1064 1201.737,-229.4224"/>
</g>
<!-- runCommand&#45;&gt;collectCommand -->
<g id="edge88" class="edge">
<title>runCommand&#45;&gt;collectCommand</title>
<path fill="none" stroke="#000000" d="M1355.2024,-1044.1853C1501.4083,-1019.9096 1804.0017,-969.6676 1963.4745,-943.1891"/>
<polygon fill="#000000" stroke="#000000" points="1964.4769,-946.5707 1973.7685,-941.4799 1963.3302,-939.6653 1964.4769,-946.5707"/>
</g>
<!-- runCommand&#45;&gt;opresultwarn -->
<g id="edge89" class="edge">
<title>runCommand&#45;&gt;opresultwarn</title>
<path fill="none" stroke="#000000" d="M1173.0999,-1050.4811C1044.904,-1038.6473 815.6711,-1010.3316 629,-948.6274 502.1528,-906.6981 444.3454,-916.9036 361,-812.4917 302.3781,-739.0525 272.8453,-683.9712 323,-604.5083 351.861,-558.7822 682.7679,-419.7172 819.4692,-363.7277"/>
<polygon fill="#000000" stroke="#000000" points="821.0382,-366.8675 828.9692,-359.8425 818.3884,-360.3884 821.0382,-366.8675"/>
</g>
<!-- runCommand&#45;&gt;messages -->
<g id="edge45" class="edge">
<title>runCommand&#45;&gt;messages</title>
<path fill="none" stroke="#000000" d="M1273.9866,-1035.1992C1276.6331,-1005.0295 1281.505,-950.1935 1286,-903.3726 1316.3253,-587.4961 1356.1203,-206.5078 1368.8773,-85.1262"/>
<polygon fill="#000000" stroke="#000000" points="1372.3924,-85.1655 1369.9575,-74.8542 1365.4308,-84.4333 1372.3924,-85.1655"/>
</g>
<!-- runCommand&#45;&gt;matches -->
<g id="edge38" class="edge">
<title>runCommand&#45;&gt;matches</title>
<path fill="none" stroke="#000000" d="M1289.4014,-1035.631C1305.3606,-1014.2607 1328.764,-980.6518 1344,-948.6274 1363.3351,-907.9871 1373.2463,-787.4016 1405,-755.5083 1449.4935,-710.819 1622.1906,-668.0522 1719.4475,-646.8504"/>
<polygon fill="#000000" stroke="#000000" points="1720.446,-650.2155 1729.4805,-644.6813 1718.9667,-643.3735 1720.446,-650.2155"/>
</g>
<!-- runCommand&#45;&gt;readjson -->
<g id="edge87" class="edge">
<title>runCommand&#45;&gt;readjson</title>
<path fill="none" stroke="#000000" d="M1172.8267,-1050.7231C1005.9471,-1037.4209 658.9012,-1005.2109 370,-948.6274 362.7642,-947.2102 355.2325,-945.4982 347.7882,-943.6577"/>
<polygon fill="#000000" stroke="#000000" points="348.6396,-940.2628 338.0844,-941.1781 346.9066,-947.0449 348.6396,-940.2628"/>
</g>
</g>
</svg>
