<?xml version="1.0" encoding="UTF-8" standalone="no"?>
<!DOCTYPE svg PUBLIC "-//W3C//DTD SVG 1.1//EN"
 "http://www.w3.org/Graphics/SVG/1.1/DTD/svg11.dtd">
<!-- Generated by graphviz version 7.0.1 (20221109.1506)
 -->
<!-- Title: statictea Pages: 1 -->
<svg width="639pt" height="1508pt"
 viewBox="0.00 0.00 638.77 1508.06" xmlns="http://www.w3.org/2000/svg" xmlns:xlink="http://www.w3.org/1999/xlink">
<g id="graph0" class="graph" transform="scale(1 1) rotate(0) translate(4 1504.06)">
<title>statictea</title>
<polygon fill="white" stroke="none" points="-4,4 -4,-1504.06 634.77,-1504.06 634.77,4 -4,4"/>
<!-- strutils -->
<g id="node1" class="node">
<title>strutils</title>
<ellipse fill="none" stroke="black" cx="88.19" cy="-837.04" rx="57.97" ry="24.08"/>
<text text-anchor="middle" x="88.19" y="-830.84" font-family="Times,serif" font-size="24.00">strutils</text>
</g>
<!-- statictea -->
<g id="node2" class="node">
<title>statictea</title>
<ellipse fill="none" stroke="black" cx="547.57" cy="-588.04" rx="39.79" ry="18"/>
<text text-anchor="middle" x="547.57" y="-584.34" font-family="Times,serif" font-size="14.00">statictea</text>
</g>
<!-- strutils&#45;&gt;statictea -->
<g id="edge1" class="edge">
<title>strutils&#45;&gt;statictea</title>
<path fill="none" stroke="black" d="M119.1,-816.27C181.13,-773.9 329.29,-676.32 464.38,-615.04 476.34,-609.62 489.71,-604.75 502.14,-600.69"/>
<polygon fill="black" stroke="black" points="502.83,-604.14 511.31,-597.8 500.72,-597.47 502.83,-604.14"/>
</g>
<!-- messages -->
<g id="node10" class="node">
<title>messages</title>
<ellipse fill="none" stroke="black" cx="547.57" cy="-1452.04" rx="44.39" ry="18"/>
<text text-anchor="middle" x="547.57" y="-1448.34" font-family="Times,serif" font-size="14.00">messages</text>
</g>
<!-- strutils&#45;&gt;messages -->
<g id="edge7" class="edge">
<title>strutils&#45;&gt;messages</title>
<path fill="none" stroke="black" d="M111.75,-859.16C130.24,-877.92 156.52,-906 176.38,-933.04 326.36,-1137.26 267.25,-1265.86 464.38,-1425.04 473.41,-1432.33 484.47,-1437.68 495.52,-1441.6"/>
<polygon fill="black" stroke="black" points="494.45,-1444.93 505.04,-1444.6 496.56,-1438.25 494.45,-1444.93"/>
</g>
<!-- cmdline -->
<g id="node11" class="node">
<title>cmdline</title>
<ellipse fill="none" stroke="black" cx="547.57" cy="-966.04" rx="39.79" ry="18"/>
<text text-anchor="middle" x="547.57" y="-962.34" font-family="Times,serif" font-size="14.00">cmdline</text>
</g>
<!-- strutils&#45;&gt;cmdline -->
<g id="edge12" class="edge">
<title>strutils&#45;&gt;cmdline</title>
<path fill="none" stroke="black" d="M136.84,-850.48C225.75,-875.56 415.69,-929.13 502.11,-953.5"/>
<polygon fill="black" stroke="black" points="501.07,-956.85 511.65,-956.19 502.97,-950.11 501.07,-956.85"/>
</g>
<!-- matches -->
<g id="node12" class="node">
<title>matches</title>
<ellipse fill="none" stroke="black" cx="547.57" cy="-858.04" rx="40.09" ry="18"/>
<text text-anchor="middle" x="547.57" y="-854.34" font-family="Times,serif" font-size="14.00">matches</text>
</g>
<!-- strutils&#45;&gt;matches -->
<g id="edge13" class="edge">
<title>strutils&#45;&gt;matches</title>
<path fill="none" stroke="black" d="M146.19,-839.66C236.28,-843.8 410.15,-851.78 496.03,-855.72"/>
<polygon fill="black" stroke="black" points="495.64,-859.21 505.79,-856.17 495.96,-852.21 495.64,-859.21"/>
</g>
<!-- processTemplate -->
<g id="node15" class="node">
<title>processTemplate</title>
<ellipse fill="none" stroke="black" cx="547.57" cy="-750.04" rx="70.39" ry="18"/>
<text text-anchor="middle" x="547.57" y="-746.34" font-family="Times,serif" font-size="14.00">processTemplate</text>
</g>
<!-- strutils&#45;&gt;processTemplate -->
<g id="edge20" class="edge">
<title>strutils&#45;&gt;processTemplate</title>
<path fill="none" stroke="black" d="M141.21,-827.15C224.26,-811.35 386.79,-780.43 478.82,-762.93"/>
<polygon fill="black" stroke="black" points="479.3,-766.4 488.47,-761.09 477.99,-759.52 479.3,-766.4"/>
</g>
<!-- env -->
<g id="node17" class="node">
<title>env</title>
<ellipse fill="none" stroke="black" cx="547.57" cy="-210.04" rx="27" ry="18"/>
<text text-anchor="middle" x="547.57" y="-206.34" font-family="Times,serif" font-size="14.00">env</text>
</g>
<!-- strutils&#45;&gt;env -->
<g id="edge26" class="edge">
<title>strutils&#45;&gt;env</title>
<path fill="none" stroke="black" d="M116.48,-815.59C134.84,-800.27 158.8,-778.49 176.38,-756.04 339.04,-548.35 261.06,-405.12 464.38,-237.04 477.33,-226.34 494.65,-219.83 510.06,-215.9"/>
<polygon fill="black" stroke="black" points="510.38,-219.42 519.37,-213.8 508.84,-212.59 510.38,-219.42"/>
</g>
<!-- tempFile -->
<g id="node19" class="node">
<title>tempFile</title>
<ellipse fill="none" stroke="black" cx="547.57" cy="-372.04" rx="42.49" ry="18"/>
<text text-anchor="middle" x="547.57" y="-368.34" font-family="Times,serif" font-size="14.00">tempFile</text>
</g>
<!-- strutils&#45;&gt;tempFile -->
<g id="edge29" class="edge">
<title>strutils&#45;&gt;tempFile</title>
<path fill="none" stroke="black" d="M114.52,-815.25C132.43,-799.44 156.65,-777.2 176.38,-756.04 315.42,-606.95 296.67,-514.94 464.38,-399.04 474.31,-392.18 486.1,-386.97 497.6,-383.05"/>
<polygon fill="black" stroke="black" points="498.52,-386.42 507.03,-380.11 496.44,-379.74 498.52,-386.42"/>
</g>
<!-- runCommand -->
<g id="node23" class="node">
<title>runCommand</title>
<ellipse fill="none" stroke="black" cx="547.57" cy="-642.04" rx="59.59" ry="18"/>
<text text-anchor="middle" x="547.57" y="-638.34" font-family="Times,serif" font-size="14.00">runCommand</text>
</g>
<!-- strutils&#45;&gt;runCommand -->
<g id="edge37" class="edge">
<title>strutils&#45;&gt;runCommand</title>
<path fill="none" stroke="black" d="M126.72,-818.67C193.65,-786.27 338.42,-717.78 464.38,-669.04 473.95,-665.34 484.26,-661.69 494.24,-658.33"/>
<polygon fill="black" stroke="black" points="495.05,-661.75 503.45,-655.29 492.86,-655.1 495.05,-661.75"/>
</g>
<!-- vartypes -->
<g id="node24" class="node">
<title>vartypes</title>
<ellipse fill="none" stroke="black" cx="547.57" cy="-1074.04" rx="40.09" ry="18"/>
<text text-anchor="middle" x="547.57" y="-1070.34" font-family="Times,serif" font-size="14.00">vartypes</text>
</g>
<!-- strutils&#45;&gt;vartypes -->
<g id="edge42" class="edge">
<title>strutils&#45;&gt;vartypes</title>
<path fill="none" stroke="black" d="M120.25,-857.16C183.18,-897.3 331.11,-988.51 464.38,-1047.04 476.4,-1052.32 489.79,-1057.14 502.22,-1061.2"/>
<polygon fill="black" stroke="black" points="500.8,-1064.42 511.39,-1064.11 502.92,-1057.75 500.8,-1064.42"/>
</g>
<!-- variables -->
<g id="node25" class="node">
<title>variables</title>
<ellipse fill="none" stroke="black" cx="547.57" cy="-1020.04" rx="42.49" ry="18"/>
<text text-anchor="middle" x="547.57" y="-1016.34" font-family="Times,serif" font-size="14.00">variables</text>
</g>
<!-- strutils&#45;&gt;variables -->
<g id="edge44" class="edge">
<title>strutils&#45;&gt;variables</title>
<path fill="none" stroke="black" d="M128.77,-854.68C196.76,-884.71 340.39,-946.98 464.38,-993.04 476.35,-997.49 489.43,-1001.96 501.56,-1005.94"/>
<polygon fill="black" stroke="black" points="500.35,-1009.23 510.94,-1008.99 502.51,-1002.57 500.35,-1009.23"/>
</g>
<!-- functions -->
<g id="node26" class="node">
<title>functions</title>
<ellipse fill="none" stroke="black" cx="547.57" cy="-480.04" rx="43.59" ry="18"/>
<text text-anchor="middle" x="547.57" y="-476.34" font-family="Times,serif" font-size="14.00">functions</text>
</g>
<!-- strutils&#45;&gt;functions -->
<g id="edge49" class="edge">
<title>strutils&#45;&gt;functions</title>
<path fill="none" stroke="black" d="M113.19,-814.92C189.53,-744.7 424.14,-530.05 464.38,-507.04 474.85,-501.05 486.85,-496.16 498.38,-492.27"/>
<polygon fill="black" stroke="black" points="499.3,-495.65 507.78,-489.3 497.19,-488.98 499.3,-495.65"/>
</g>
<!-- unicodes -->
<g id="node32" class="node">
<title>unicodes</title>
<ellipse fill="none" stroke="black" cx="547.57" cy="-264.04" rx="42.49" ry="18"/>
<text text-anchor="middle" x="547.57" y="-260.34" font-family="Times,serif" font-size="14.00">unicodes</text>
</g>
<!-- strutils&#45;&gt;unicodes -->
<g id="edge56" class="edge">
<title>strutils&#45;&gt;unicodes</title>
<path fill="none" stroke="black" d="M115.75,-815.65C134,-800.2 158.14,-778.22 176.38,-756.04 330.81,-568.3 273.36,-441.4 464.38,-291.04 473.86,-283.58 485.48,-278.14 496.97,-274.19"/>
<polygon fill="black" stroke="black" points="497.89,-277.57 506.42,-271.29 495.84,-270.88 497.89,-277.57"/>
</g>
<!-- parseMarkdown -->
<g id="node36" class="node">
<title>parseMarkdown</title>
<ellipse fill="none" stroke="black" cx="547.57" cy="-1128.04" rx="68.49" ry="18"/>
<text text-anchor="middle" x="547.57" y="-1124.34" font-family="Times,serif" font-size="14.00">parseMarkdown</text>
</g>
<!-- strutils&#45;&gt;parseMarkdown -->
<g id="edge62" class="edge">
<title>strutils&#45;&gt;parseMarkdown</title>
<path fill="none" stroke="black" d="M114.32,-858.78C172.36,-908.04 321.67,-1029.39 464.38,-1101.04 471.94,-1104.84 480.15,-1108.27 488.36,-1111.31"/>
<polygon fill="black" stroke="black" points="487.08,-1114.57 497.67,-1114.59 489.4,-1107.97 487.08,-1114.57"/>
</g>
<!-- replacement -->
<g id="node37" class="node">
<title>replacement</title>
<ellipse fill="none" stroke="black" cx="547.57" cy="-804.04" rx="53.89" ry="18"/>
<text text-anchor="middle" x="547.57" y="-800.34" font-family="Times,serif" font-size="14.00">replacement</text>
</g>
<!-- strutils&#45;&gt;replacement -->
<g id="edge66" class="edge">
<title>strutils&#45;&gt;replacement</title>
<path fill="none" stroke="black" d="M145.73,-832.96C231.37,-826.78 393.45,-815.09 483.04,-808.63"/>
<polygon fill="black" stroke="black" points="483.16,-812.13 492.88,-807.92 482.66,-805.14 483.16,-812.13"/>
</g>
<!-- startingvars -->
<g id="node38" class="node">
<title>startingvars</title>
<ellipse fill="none" stroke="black" cx="547.57" cy="-912.04" rx="51.99" ry="18"/>
<text text-anchor="middle" x="547.57" y="-908.34" font-family="Times,serif" font-size="14.00">startingvars</text>
</g>
<!-- strutils&#45;&gt;startingvars -->
<g id="edge69" class="edge">
<title>strutils&#45;&gt;startingvars</title>
<path fill="none" stroke="black" d="M142.55,-845.79C229.13,-859.99 399.49,-887.92 488.81,-902.57"/>
<polygon fill="black" stroke="black" points="488.15,-906.01 498.58,-904.17 489.28,-899.1 488.15,-906.01"/>
</g>
<!-- repl -->
<g id="node41" class="node">
<title>repl</title>
<ellipse fill="none" stroke="black" cx="547.57" cy="-1344.04" rx="27" ry="18"/>
<text text-anchor="middle" x="547.57" y="-1340.34" font-family="Times,serif" font-size="14.00">repl</text>
</g>
<!-- strutils&#45;&gt;repl -->
<g id="edge77" class="edge">
<title>strutils&#45;&gt;repl</title>
<path fill="none" stroke="black" d="M110.59,-859.4C128.63,-878.52 154.87,-907 176.38,-933.04 312.24,-1097.52 291.04,-1192.68 464.38,-1317.04 477.8,-1326.67 494.86,-1333.01 509.95,-1337.11"/>
<polygon fill="black" stroke="black" points="509,-1340.48 519.55,-1339.46 510.67,-1333.68 509,-1340.48"/>
</g>
<!-- options -->
<g id="node3" class="node">
<title>options</title>
<ellipse fill="none" stroke="black" cx="88.19" cy="-723.04" rx="61.54" ry="24.08"/>
<text text-anchor="middle" x="88.19" y="-716.84" font-family="Times,serif" font-size="24.00">options</text>
</g>
<!-- parseCommandLine -->
<g id="node4" class="node">
<title>parseCommandLine</title>
<ellipse fill="none" stroke="black" cx="547.57" cy="-696.04" rx="83.39" ry="18"/>
<text text-anchor="middle" x="547.57" y="-692.34" font-family="Times,serif" font-size="14.00">parseCommandLine</text>
</g>
<!-- options&#45;&gt;parseCommandLine -->
<g id="edge2" class="edge">
<title>options&#45;&gt;parseCommandLine</title>
<path fill="none" stroke="black" d="M149.46,-719.48C227.5,-714.88 364.28,-706.8 455.15,-701.44"/>
<polygon fill="black" stroke="black" points="455.26,-704.94 465.04,-700.85 454.85,-697.95 455.26,-704.94"/>
</g>
<!-- options&#45;&gt;matches -->
<g id="edge14" class="edge">
<title>options&#45;&gt;matches</title>
<path fill="none" stroke="black" d="M138.14,-737.49C227.68,-763.92 416.54,-819.66 502.41,-845.01"/>
<polygon fill="black" stroke="black" points="501.3,-848.33 511.88,-847.8 503.28,-841.61 501.3,-848.33"/>
</g>
<!-- regexes -->
<g id="node14" class="node">
<title>regexes</title>
<ellipse fill="none" stroke="black" cx="547.57" cy="-1290.04" rx="37.89" ry="18"/>
<text text-anchor="middle" x="547.57" y="-1286.34" font-family="Times,serif" font-size="14.00">regexes</text>
</g>
<!-- options&#45;&gt;regexes -->
<g id="edge16" class="edge">
<title>options&#45;&gt;regexes</title>
<path fill="none" stroke="black" d="M116.1,-744.8C134.29,-760.25 158.2,-782.07 176.38,-804.04 329.92,-989.59 274.7,-1114.64 464.38,-1263.04 474.9,-1271.27 488.03,-1277.04 500.69,-1281.07"/>
<polygon fill="black" stroke="black" points="499.59,-1284.4 510.16,-1283.76 501.5,-1277.66 499.59,-1284.4"/>
</g>
<!-- options&#45;&gt;processTemplate -->
<g id="edge18" class="edge">
<title>options&#45;&gt;processTemplate</title>
<path fill="none" stroke="black" d="M149.46,-726.6C231.11,-731.42 377.04,-740.03 467.44,-745.37"/>
<polygon fill="black" stroke="black" points="467.02,-748.85 477.21,-745.95 467.44,-741.86 467.02,-748.85"/>
</g>
<!-- options&#45;&gt;env -->
<g id="edge25" class="edge">
<title>options&#45;&gt;env</title>
<path fill="none" stroke="black" d="M116.59,-701.29C134.55,-686.39 158.01,-665.67 176.38,-645.04 324.04,-479.32 285.92,-369.02 464.38,-237.04 477.66,-227.22 494.7,-220.85 509.81,-216.79"/>
<polygon fill="black" stroke="black" points="510.54,-220.21 519.43,-214.46 508.89,-213.41 510.54,-220.21"/>
</g>
<!-- options&#45;&gt;tempFile -->
<g id="edge30" class="edge">
<title>options&#45;&gt;tempFile</title>
<path fill="none" stroke="black" d="M114.27,-700.91C195.04,-629.68 444.32,-410.39 464.38,-399.04 475.19,-392.93 487.59,-387.94 499.43,-384"/>
<polygon fill="black" stroke="black" points="500.14,-387.45 508.64,-381.12 498.05,-380.77 500.14,-387.45"/>
</g>
<!-- linebuffer -->
<g id="node21" class="node">
<title>linebuffer</title>
<ellipse fill="none" stroke="black" cx="547.57" cy="-426.04" rx="45.49" ry="18"/>
<text text-anchor="middle" x="547.57" y="-422.34" font-family="Times,serif" font-size="14.00">linebuffer</text>
</g>
<!-- options&#45;&gt;linebuffer -->
<g id="edge33" class="edge">
<title>options&#45;&gt;linebuffer</title>
<path fill="none" stroke="black" d="M114.23,-700.76C172.05,-650.29 320.97,-526 464.38,-453.04 474.93,-447.67 486.78,-443.05 498.12,-439.23"/>
<polygon fill="black" stroke="black" points="498.89,-442.66 507.34,-436.27 496.75,-435.99 498.89,-442.66"/>
</g>
<!-- parseCmdLine -->
<g id="node22" class="node">
<title>parseCmdLine</title>
<ellipse fill="none" stroke="black" cx="547.57" cy="-1182.04" rx="63.09" ry="18"/>
<text text-anchor="middle" x="547.57" y="-1178.34" font-family="Times,serif" font-size="14.00">parseCmdLine</text>
</g>
<!-- options&#45;&gt;parseCmdLine -->
<g id="edge34" class="edge">
<title>options&#45;&gt;parseCmdLine</title>
<path fill="none" stroke="black" d="M114.85,-745.22C132.69,-761.04 156.71,-783.12 176.38,-804.04 314.62,-951.05 297.9,-1041.01 464.38,-1155.04 471.2,-1159.71 478.88,-1163.62 486.74,-1166.88"/>
<polygon fill="black" stroke="black" points="485.49,-1170.15 496.08,-1170.4 487.96,-1163.6 485.49,-1170.15"/>
</g>
<!-- options&#45;&gt;runCommand -->
<g id="edge36" class="edge">
<title>options&#45;&gt;runCommand</title>
<path fill="none" stroke="black" d="M144.82,-713.19C230.66,-697.99 394.85,-668.91 484.46,-653.04"/>
<polygon fill="black" stroke="black" points="484.81,-656.53 494.05,-651.34 483.59,-649.64 484.81,-656.53"/>
</g>
<!-- options&#45;&gt;vartypes -->
<g id="edge43" class="edge">
<title>options&#45;&gt;vartypes</title>
<path fill="none" stroke="black" d="M113.74,-745.24C190.7,-814.67 424.45,-1024.45 464.38,-1047.04 475.49,-1053.33 488.28,-1058.41 500.41,-1062.41"/>
<polygon fill="black" stroke="black" points="499.27,-1065.72 509.86,-1065.32 501.33,-1059.03 499.27,-1065.72"/>
</g>
<!-- options&#45;&gt;variables -->
<g id="edge45" class="edge">
<title>options&#45;&gt;variables</title>
<path fill="none" stroke="black" d="M114.23,-745.32C172.05,-795.79 320.97,-920.09 464.38,-993.04 475.45,-998.67 487.94,-1003.48 499.79,-1007.42"/>
<polygon fill="black" stroke="black" points="498.39,-1010.64 508.98,-1010.32 500.5,-1003.97 498.39,-1010.64"/>
</g>
<!-- options&#45;&gt;functions -->
<g id="edge47" class="edge">
<title>options&#45;&gt;functions</title>
<path fill="none" stroke="black" d="M120.15,-702.27C182.91,-660.84 330.55,-566.79 464.38,-507.04 475.72,-501.98 488.31,-497.37 500.16,-493.45"/>
<polygon fill="black" stroke="black" points="500.88,-496.89 509.33,-490.51 498.74,-490.23 500.88,-496.89"/>
</g>
<!-- parseNumber -->
<g id="node29" class="node">
<title>parseNumber</title>
<ellipse fill="none" stroke="black" cx="547.57" cy="-126.04" rx="58.49" ry="18"/>
<text text-anchor="middle" x="547.57" y="-122.34" font-family="Times,serif" font-size="14.00">parseNumber</text>
</g>
<!-- options&#45;&gt;parseNumber -->
<g id="edge53" class="edge">
<title>options&#45;&gt;parseNumber</title>
<path fill="none" stroke="black" d="M116.99,-701.63C135.11,-686.87 158.6,-666.18 176.38,-645.04 332.11,-459.85 297.52,-358.27 464.38,-183.04 477.15,-169.63 493.54,-157.5 508.33,-147.91"/>
<polygon fill="black" stroke="black" points="509.87,-151.08 516.47,-142.8 506.14,-145.15 509.87,-151.08"/>
</g>
<!-- options&#45;&gt;replacement -->
<g id="edge63" class="edge">
<title>options&#45;&gt;replacement</title>
<path fill="none" stroke="black" d="M144.82,-732.89C231.83,-748.3 399.33,-777.97 488.08,-793.68"/>
<polygon fill="black" stroke="black" points="487.33,-797.1 497.79,-795.4 488.55,-790.21 487.33,-797.1"/>
</g>
<!-- updateTemplate -->
<g id="node39" class="node">
<title>updateTemplate</title>
<ellipse fill="none" stroke="black" cx="547.57" cy="-534.04" rx="67.69" ry="18"/>
<text text-anchor="middle" x="547.57" y="-530.34" font-family="Times,serif" font-size="14.00">updateTemplate</text>
</g>
<!-- options&#45;&gt;updateTemplate -->
<g id="edge72" class="edge">
<title>options&#45;&gt;updateTemplate</title>
<path fill="none" stroke="black" d="M128.69,-704.58C196.55,-673.19 339.99,-608.22 464.38,-561.04 473.16,-557.71 482.56,-554.4 491.74,-551.29"/>
<polygon fill="black" stroke="black" points="492.56,-554.71 500.94,-548.23 490.35,-548.06 492.56,-554.71"/>
</g>
<!-- options&#45;&gt;repl -->
<g id="edge76" class="edge">
<title>options&#45;&gt;repl</title>
<path fill="none" stroke="black" d="M116.45,-744.53C134.79,-759.85 158.74,-781.64 176.38,-804.04 338.11,-1009.5 262.44,-1150.94 464.38,-1317.04 477.36,-1327.71 494.68,-1334.21 510.08,-1338.15"/>
<polygon fill="black" stroke="black" points="508.86,-1341.46 519.39,-1340.25 510.41,-1334.64 508.86,-1341.46"/>
</g>
<!-- tables -->
<g id="node5" class="node">
<title>tables</title>
<ellipse fill="none" stroke="black" cx="88.19" cy="-966.04" rx="50.82" ry="24.08"/>
<text text-anchor="middle" x="88.19" y="-959.84" font-family="Times,serif" font-size="24.00">tables</text>
</g>
<!-- tables&#45;&gt;parseCommandLine -->
<g id="edge3" class="edge">
<title>tables&#45;&gt;parseCommandLine</title>
<path fill="none" stroke="black" d="M115.54,-945.52C174.87,-900.1 324.71,-789.84 464.38,-723.04 471.03,-719.86 478.14,-716.91 485.31,-714.22"/>
<polygon fill="black" stroke="black" points="486.13,-717.64 494.36,-710.97 483.76,-711.05 486.13,-717.64"/>
</g>
<!-- args -->
<g id="node8" class="node">
<title>args</title>
<ellipse fill="none" stroke="black" cx="547.57" cy="-1398.04" rx="27" ry="18"/>
<text text-anchor="middle" x="547.57" y="-1394.34" font-family="Times,serif" font-size="14.00">args</text>
</g>
<!-- tables&#45;&gt;args -->
<g id="edge9" class="edge">
<title>tables&#45;&gt;args</title>
<path fill="none" stroke="black" d="M104.12,-989.06C149.66,-1057.51 294.17,-1261.82 464.38,-1371.04 478.28,-1379.96 495.41,-1386.2 510.42,-1390.42"/>
<polygon fill="black" stroke="black" points="509.38,-1393.76 519.94,-1392.88 511.13,-1386.98 509.38,-1393.76"/>
</g>
<!-- tables&#45;&gt;cmdline -->
<g id="edge11" class="edge">
<title>tables&#45;&gt;cmdline</title>
<path fill="none" stroke="black" d="M139.45,-966.04C227.39,-966.04 408.21,-966.04 496.22,-966.04"/>
<polygon fill="black" stroke="black" points="495.99,-969.54 505.99,-966.04 495.99,-962.54 495.99,-969.54"/>
</g>
<!-- tables&#45;&gt;regexes -->
<g id="edge17" class="edge">
<title>tables&#45;&gt;regexes</title>
<path fill="none" stroke="black" d="M110.87,-987.89C165.5,-1041.83 315.13,-1182.76 464.38,-1263.04 476.15,-1269.37 489.66,-1274.56 502.28,-1278.64"/>
<polygon fill="black" stroke="black" points="501.05,-1281.92 511.63,-1281.5 503.09,-1275.23 501.05,-1281.92"/>
</g>
<!-- tables&#45;&gt;processTemplate -->
<g id="edge19" class="edge">
<title>tables&#45;&gt;processTemplate</title>
<path fill="none" stroke="black" d="M121.79,-947.53C185.96,-911.56 333.79,-831.03 464.38,-777.04 472.48,-773.69 481.16,-770.47 489.73,-767.48"/>
<polygon fill="black" stroke="black" points="490.7,-770.85 499.05,-764.33 488.45,-764.22 490.7,-770.85"/>
</g>
<!-- tables&#45;&gt;parseCmdLine -->
<g id="edge35" class="edge">
<title>tables&#45;&gt;parseCmdLine</title>
<path fill="none" stroke="black" d="M121.79,-984.56C185.96,-1020.53 333.79,-1101.05 464.38,-1155.04 473.26,-1158.71 482.83,-1162.23 492.2,-1165.45"/>
<polygon fill="black" stroke="black" points="491.02,-1168.75 501.61,-1168.6 493.24,-1162.11 491.02,-1168.75"/>
</g>
<!-- tables&#45;&gt;runCommand -->
<g id="edge38" class="edge">
<title>tables&#45;&gt;runCommand</title>
<path fill="none" stroke="black" d="M110.87,-944.19C165.5,-890.25 315.13,-749.32 464.38,-669.04 472.65,-664.59 481.79,-660.71 490.87,-657.37"/>
<polygon fill="black" stroke="black" points="491.72,-660.78 500.02,-654.21 489.43,-654.17 491.72,-660.78"/>
</g>
<!-- tables&#45;&gt;vartypes -->
<g id="edge41" class="edge">
<title>tables&#45;&gt;vartypes</title>
<path fill="none" stroke="black" d="M134.3,-976.69C221.52,-997.29 412.46,-1042.37 500.47,-1063.16"/>
<polygon fill="black" stroke="black" points="499.42,-1066.5 509.96,-1065.4 501.03,-1059.69 499.42,-1066.5"/>
</g>
<!-- tables&#45;&gt;variables -->
<g id="edge46" class="edge">
<title>tables&#45;&gt;variables</title>
<path fill="none" stroke="black" d="M137.71,-971.77C224.51,-982.02 405.62,-1003.4 494.75,-1013.92"/>
<polygon fill="black" stroke="black" points="494.34,-1017.4 504.68,-1015.1 495.16,-1010.45 494.34,-1017.4"/>
</g>
<!-- tables&#45;&gt;functions -->
<g id="edge48" class="edge">
<title>tables&#45;&gt;functions</title>
<path fill="none" stroke="black" d="M110.06,-943.92C127.99,-924.7 154.37,-895.96 176.38,-870.04 309.68,-713.06 295.43,-624.81 464.38,-507.04 474.09,-500.27 485.61,-495.11 496.91,-491.21"/>
<polygon fill="black" stroke="black" points="497.67,-494.64 506.16,-488.3 495.57,-487.96 497.67,-494.64"/>
</g>
<!-- signatures -->
<g id="node33" class="node">
<title>signatures</title>
<ellipse fill="none" stroke="black" cx="547.57" cy="-1236.04" rx="46.29" ry="18"/>
<text text-anchor="middle" x="547.57" y="-1232.34" font-family="Times,serif" font-size="14.00">signatures</text>
</g>
<!-- tables&#45;&gt;signatures -->
<g id="edge57" class="edge">
<title>tables&#45;&gt;signatures</title>
<path fill="none" stroke="black" d="M115.54,-986.57C174.87,-1031.98 324.71,-1142.25 464.38,-1209.04 475.06,-1214.15 486.95,-1218.67 498.3,-1222.48"/>
<polygon fill="black" stroke="black" points="496.93,-1225.72 507.52,-1225.45 499.07,-1219.05 496.93,-1225.72"/>
</g>
<!-- readjson -->
<g id="node34" class="node">
<title>readjson</title>
<ellipse fill="none" stroke="black" cx="547.57" cy="-318.04" rx="40.09" ry="18"/>
<text text-anchor="middle" x="547.57" y="-314.34" font-family="Times,serif" font-size="14.00">readjson</text>
</g>
<!-- tables&#45;&gt;readjson -->
<g id="edge61" class="edge">
<title>tables&#45;&gt;readjson</title>
<path fill="none" stroke="black" d="M111.57,-944.44C130.21,-925.77 156.77,-897.54 176.38,-870.04 330.92,-653.37 259.67,-515.11 464.38,-345.04 474.11,-336.96 486.33,-331.27 498.36,-327.28"/>
<polygon fill="black" stroke="black" points="499.21,-330.68 507.81,-324.5 497.23,-323.96 499.21,-330.68"/>
</g>
<!-- tables&#45;&gt;startingvars -->
<g id="edge68" class="edge">
<title>tables&#45;&gt;startingvars</title>
<path fill="none" stroke="black" d="M137.71,-960.31C221.93,-950.37 394.94,-929.94 486.57,-919.13"/>
<polygon fill="black" stroke="black" points="486.84,-922.62 496.36,-917.97 486.02,-915.67 486.84,-922.62"/>
</g>
<!-- tables&#45;&gt;updateTemplate -->
<g id="edge73" class="edge">
<title>tables&#45;&gt;updateTemplate</title>
<path fill="none" stroke="black" d="M109.48,-943.84C186.01,-860.15 453.33,-568.13 464.38,-561.04 471,-556.8 478.34,-553.16 485.84,-550.06"/>
<polygon fill="black" stroke="black" points="486.97,-553.37 495.08,-546.56 484.49,-546.83 486.97,-553.37"/>
</g>
<!-- tables&#45;&gt;repl -->
<g id="edge75" class="edge">
<title>tables&#45;&gt;repl</title>
<path fill="none" stroke="black" d="M106.98,-988.46C156.83,-1049.87 304.75,-1222.49 464.38,-1317.04 478.49,-1325.4 495.51,-1331.54 510.4,-1335.83"/>
<polygon fill="black" stroke="black" points="509.25,-1339.15 519.82,-1338.37 511.07,-1332.39 509.25,-1339.15"/>
</g>
<!-- os -->
<g id="node6" class="node">
<title>os</title>
<ellipse fill="none" stroke="black" cx="88.19" cy="-612.04" rx="27" ry="24.08"/>
<text text-anchor="middle" x="88.19" y="-605.84" font-family="Times,serif" font-size="24.00">os</text>
</g>
<!-- os&#45;&gt;statictea -->
<g id="edge81" class="edge">
<title>os&#45;&gt;statictea</title>
<path fill="none" stroke="black" d="M115.42,-610.67C189.21,-606.79 399.45,-595.76 496.44,-590.67"/>
<polygon fill="black" stroke="black" points="496.38,-594.18 506.18,-590.16 496.01,-587.19 496.38,-594.18"/>
</g>
<!-- os&#45;&gt;parseCommandLine -->
<g id="edge4" class="edge">
<title>os&#45;&gt;parseCommandLine</title>
<path fill="none" stroke="black" d="M115.09,-616.8C182.83,-629.24 367.2,-663.1 471.69,-682.29"/>
<polygon fill="black" stroke="black" points="470.83,-685.69 481.3,-684.05 472.1,-678.81 470.83,-685.69"/>
</g>
<!-- os&#45;&gt;cmdline -->
<g id="edge10" class="edge">
<title>os&#45;&gt;cmdline</title>
<path fill="none" stroke="black" d="M108.14,-628.93C181.48,-694.24 443.73,-927.29 464.38,-939.04 475.58,-945.41 488.49,-950.54 500.72,-954.55"/>
<polygon fill="black" stroke="black" points="499.66,-957.88 510.24,-957.47 501.71,-951.19 499.66,-957.88"/>
</g>
<!-- os&#45;&gt;env -->
<g id="edge23" class="edge">
<title>os&#45;&gt;env</title>
<path fill="none" stroke="black" d="M114.5,-606.14C132.85,-601.03 157.63,-592.33 176.38,-579.04 338.53,-464.17 299.72,-348.28 464.38,-237.04 478.07,-227.8 495.16,-221.51 510.21,-217.35"/>
<polygon fill="black" stroke="black" points="510.92,-220.78 519.76,-214.94 509.21,-213.99 510.92,-220.78"/>
</g>
<!-- os&#45;&gt;tempFile -->
<g id="edge27" class="edge">
<title>os&#45;&gt;tempFile</title>
<path fill="none" stroke="black" d="M114.17,-604.05C131.91,-598.03 156.08,-589.11 176.38,-579.04 311.62,-512 327.69,-463.06 464.38,-399.04 475.73,-393.73 488.42,-389.01 500.36,-385.06"/>
<polygon fill="black" stroke="black" points="501.15,-388.48 509.62,-382.12 499.03,-381.81 501.15,-388.48"/>
</g>
<!-- os&#45;&gt;runCommand -->
<g id="edge39" class="edge">
<title>os&#45;&gt;runCommand</title>
<path fill="none" stroke="black" d="M115.42,-613.76C184.77,-618.31 374.64,-630.76 477.75,-637.53"/>
<polygon fill="black" stroke="black" points="477.25,-641 487.46,-638.16 477.71,-634.02 477.25,-641"/>
</g>
<!-- os&#45;&gt;functions -->
<g id="edge51" class="edge">
<title>os&#45;&gt;functions</title>
<path fill="none" stroke="black" d="M114.43,-604.76C188.22,-583.46 404.33,-521.09 500.04,-493.47"/>
<polygon fill="black" stroke="black" points="501,-496.84 509.64,-490.7 499.06,-490.11 501,-496.84"/>
</g>
<!-- os&#45;&gt;readjson -->
<g id="edge59" class="edge">
<title>os&#45;&gt;readjson</title>
<path fill="none" stroke="black" d="M114.19,-604.94C132.16,-599.28 156.6,-590.42 176.38,-579.04 319.34,-496.8 319.63,-424.09 464.38,-345.04 475.68,-338.87 488.64,-333.8 500.87,-329.79"/>
<polygon fill="black" stroke="black" points="501.86,-333.15 510.38,-326.85 499.79,-326.46 501.86,-333.15"/>
</g>
<!-- os&#45;&gt;startingvars -->
<g id="edge67" class="edge">
<title>os&#45;&gt;startingvars</title>
<path fill="none" stroke="black" d="M107.71,-628.84C160.03,-675.55 314.88,-808.5 464.38,-885.04 473.91,-889.92 484.5,-894.17 494.82,-897.77"/>
<polygon fill="black" stroke="black" points="493.4,-900.99 503.99,-900.81 495.6,-894.34 493.4,-900.99"/>
</g>
<!-- os&#45;&gt;updateTemplate -->
<g id="edge71" class="edge">
<title>os&#45;&gt;updateTemplate</title>
<path fill="none" stroke="black" d="M115.09,-607.62C184.31,-595.82 375.31,-563.25 478.43,-545.66"/>
<polygon fill="black" stroke="black" points="478.88,-549.14 488.15,-544 477.7,-542.24 478.88,-549.14"/>
</g>
<!-- strformat -->
<g id="node7" class="node">
<title>strformat</title>
<ellipse fill="none" stroke="black" cx="88.19" cy="-1398.04" rx="74.49" ry="24.08"/>
<text text-anchor="middle" x="88.19" y="-1391.84" font-family="Times,serif" font-size="24.00">strformat</text>
</g>
<!-- strformat&#45;&gt;args -->
<g id="edge5" class="edge">
<title>strformat&#45;&gt;args</title>
<path fill="none" stroke="black" d="M163.19,-1398.04C261.94,-1398.04 433.15,-1398.04 508.79,-1398.04"/>
<polygon fill="black" stroke="black" points="508.57,-1401.54 518.57,-1398.04 508.57,-1394.54 508.57,-1401.54"/>
</g>
<!-- strformat&#45;&gt;messages -->
<g id="edge8" class="edge">
<title>strformat&#45;&gt;messages</title>
<path fill="none" stroke="black" d="M158.66,-1406.24C250.45,-1417.08 410.2,-1435.94 493.15,-1445.73"/>
<polygon fill="black" stroke="black" points="492.73,-1449.21 503.07,-1446.91 493.55,-1442.26 492.73,-1449.21"/>
</g>
<!-- strformat&#45;&gt;replacement -->
<g id="edge65" class="edge">
<title>strformat&#45;&gt;replacement</title>
<path fill="none" stroke="black" d="M146.89,-1382.91C157.47,-1378.35 167.86,-1372.5 176.38,-1365.04 379.28,-1187.44 257.58,-1004.09 464.38,-831.04 471.67,-824.94 480.37,-820.21 489.34,-816.54"/>
<polygon fill="black" stroke="black" points="490.3,-819.92 498.51,-813.22 487.92,-813.34 490.3,-819.92"/>
</g>
<!-- strformat&#45;&gt;repl -->
<g id="edge78" class="edge">
<title>strformat&#45;&gt;repl</title>
<path fill="none" stroke="black" d="M158.66,-1389.84C256.75,-1378.26 432.42,-1357.52 509.07,-1348.47"/>
<polygon fill="black" stroke="black" points="509.48,-1351.95 519,-1347.3 508.66,-1344.99 509.48,-1351.95"/>
</g>
<!-- macros -->
<g id="node9" class="node">
<title>macros</title>
<polygon fill="palegreen" stroke="black" points="153.84,-1459.25 153.84,-1480.83 115.39,-1496.08 61,-1496.08 22.54,-1480.83 22.54,-1459.25 61,-1444 115.39,-1444 153.84,-1459.25"/>
<polygon fill="none" stroke="black" points="157.83,-1456.53 157.83,-1483.55 116.15,-1500.09 60.24,-1500.09 18.55,-1483.55 18.55,-1456.53 60.24,-1440 116.15,-1440 157.83,-1456.53"/>
<text text-anchor="middle" x="88.19" y="-1463.84" font-family="Times,serif" font-size="24.00">macros</text>
</g>
<!-- macros&#45;&gt;messages -->
<g id="edge6" class="edge">
<title>macros&#45;&gt;messages</title>
<path fill="none" stroke="black" d="M158.16,-1467.33C249.33,-1463.74 408.14,-1457.49 491.65,-1454.2"/>
<polygon fill="black" stroke="black" points="491.55,-1457.71 501.41,-1453.82 491.28,-1450.72 491.55,-1457.71"/>
</g>
<!-- re -->
<g id="node13" class="node">
<title>re</title>
<polygon fill="palegreen" stroke="black" points="115.19,-1237.25 115.19,-1258.83 99.37,-1274.08 77.01,-1274.08 61.19,-1258.83 61.19,-1237.25 77.01,-1222 99.37,-1222 115.19,-1237.25"/>
<polygon fill="none" stroke="black" points="119.19,-1235.55 119.19,-1260.53 100.99,-1278.09 75.39,-1278.09 57.19,-1260.53 57.19,-1235.55 75.39,-1218 100.99,-1218 119.19,-1235.55"/>
<text text-anchor="middle" x="88.19" y="-1241.84" font-family="Times,serif" font-size="24.00">re</text>
</g>
<!-- re&#45;&gt;regexes -->
<g id="edge15" class="edge">
<title>re&#45;&gt;regexes</title>
<path fill="none" stroke="black" d="M119.55,-1250.83C197.33,-1257.97 404.22,-1276.97 498.52,-1285.63"/>
<polygon fill="black" stroke="black" points="498.2,-1289.11 508.48,-1286.54 498.84,-1282.14 498.2,-1289.11"/>
</g>
<!-- streams -->
<g id="node16" class="node">
<title>streams</title>
<ellipse fill="none" stroke="black" cx="88.19" cy="-546.04" rx="62.87" ry="24.08"/>
<text text-anchor="middle" x="88.19" y="-539.84" font-family="Times,serif" font-size="24.00">streams</text>
</g>
<!-- streams&#45;&gt;processTemplate -->
<g id="edge21" class="edge">
<title>streams&#45;&gt;processTemplate</title>
<path fill="none" stroke="black" d="M135.25,-562.47C148.63,-567.51 163.19,-573.26 176.38,-579.04 307.47,-636.44 332.05,-668.56 464.38,-723.04 472.49,-726.38 481.17,-729.6 489.74,-732.58"/>
<polygon fill="black" stroke="black" points="488.46,-735.84 499.06,-735.73 490.71,-729.21 488.46,-735.84"/>
</g>
<!-- streams&#45;&gt;env -->
<g id="edge22" class="edge">
<title>streams&#45;&gt;env</title>
<path fill="none" stroke="black" d="M138.35,-531.37C151.23,-526.49 164.75,-520.38 176.38,-513.04 326.31,-418.42 312.39,-328.31 464.38,-237.04 478.44,-228.6 495.45,-222.45 510.35,-218.17"/>
<polygon fill="black" stroke="black" points="511.02,-221.61 519.78,-215.64 509.21,-214.85 511.02,-221.61"/>
</g>
<!-- streams&#45;&gt;tempFile -->
<g id="edge31" class="edge">
<title>streams&#45;&gt;tempFile</title>
<path fill="none" stroke="black" d="M134.04,-529.21C147.66,-524.07 162.65,-518.36 176.38,-513.04 304.76,-463.34 334.93,-445.88 464.38,-399.04 476.49,-394.66 489.71,-390.18 501.94,-386.17"/>
<polygon fill="black" stroke="black" points="502.96,-389.52 511.39,-383.1 500.8,-382.86 502.96,-389.52"/>
</g>
<!-- streams&#45;&gt;linebuffer -->
<g id="edge32" class="edge">
<title>streams&#45;&gt;linebuffer</title>
<path fill="none" stroke="black" d="M140.77,-532.51C229.76,-509.16 410.93,-461.63 497.88,-438.82"/>
<polygon fill="black" stroke="black" points="498.76,-442.2 507.54,-436.28 496.98,-435.43 498.76,-442.2"/>
</g>
<!-- streams&#45;&gt;runCommand -->
<g id="edge40" class="edge">
<title>streams&#45;&gt;runCommand</title>
<path fill="none" stroke="black" d="M143.91,-557.53C230.2,-575.64 397.27,-610.7 486.68,-629.47"/>
<polygon fill="black" stroke="black" points="485.72,-632.85 496.23,-631.47 487.16,-625.99 485.72,-632.85"/>
</g>
<!-- streams&#45;&gt;readjson -->
<g id="edge58" class="edge">
<title>streams&#45;&gt;readjson</title>
<path fill="none" stroke="black" d="M135.95,-529.98C149.2,-524.99 163.52,-519.17 176.38,-513.04 310.14,-449.26 329.24,-405.84 464.38,-345.04 476.35,-339.66 489.73,-334.8 502.16,-330.74"/>
<polygon fill="black" stroke="black" points="502.85,-334.19 511.33,-327.84 500.74,-327.52 502.85,-334.19"/>
</g>
<!-- streams&#45;&gt;replacement -->
<g id="edge64" class="edge">
<title>streams&#45;&gt;replacement</title>
<path fill="none" stroke="black" d="M136.7,-561.66C149.84,-566.61 163.9,-572.51 176.38,-579.04 314.01,-651.05 325.18,-708.1 464.38,-777.04 473.67,-781.64 483.93,-785.73 493.96,-789.24"/>
<polygon fill="black" stroke="black" points="492.66,-792.49 503.25,-792.34 494.87,-785.85 492.66,-792.49"/>
</g>
<!-- streams&#45;&gt;updateTemplate -->
<g id="edge70" class="edge">
<title>streams&#45;&gt;updateTemplate</title>
<path fill="none" stroke="black" d="M151.35,-544.41C233.6,-542.25 378.62,-538.45 468.26,-536.1"/>
<polygon fill="black" stroke="black" points="468.3,-539.6 478.21,-535.84 468.12,-532.6 468.3,-539.6"/>
</g>
<!-- times -->
<g id="node18" class="node">
<title>times</title>
<ellipse fill="none" stroke="red" cx="88.19" cy="-24.04" rx="48.17" ry="24.08"/>
<text text-anchor="middle" x="88.19" y="-17.84" font-family="Times,serif" font-size="24.00">times</text>
</g>
<!-- times&#45;&gt;env -->
<g id="edge24" class="edge">
<title>times&#45;&gt;env</title>
<path fill="none" stroke="red" d="M127.48,-38.25C142.74,-43.99 160.43,-50.73 176.38,-57.04 301.69,-106.64 449.42,-168.82 513.81,-196.11"/>
<polygon fill="red" stroke="red" points="512.17,-199.22 522.74,-199.9 514.9,-192.77 512.17,-199.22"/>
</g>
<!-- timer -->
<g id="node42" class="node">
<title>timer</title>
<ellipse fill="none" stroke="black" cx="547.57" cy="-33.04" rx="29.8" ry="18"/>
<text text-anchor="middle" x="547.57" y="-29.34" font-family="Times,serif" font-size="14.00">timer</text>
</g>
<!-- times&#45;&gt;timer -->
<g id="edge79" class="edge">
<title>times&#45;&gt;timer</title>
<path fill="none" stroke="red" d="M136.42,-24.97C226.46,-26.74 421.27,-30.58 505.92,-32.24"/>
<polygon fill="red" stroke="red" points="505.77,-35.74 515.84,-32.44 505.91,-28.74 505.77,-35.74"/>
</g>
<!-- random -->
<g id="node20" class="node">
<title>random</title>
<polygon fill="palegreen" stroke="black" points="156.96,-385.25 156.96,-406.83 116.68,-422.08 59.7,-422.08 19.42,-406.83 19.42,-385.25 59.7,-370 116.68,-370 156.96,-385.25"/>
<polygon fill="none" stroke="black" points="160.96,-382.49 160.96,-409.6 117.41,-426.09 58.97,-426.09 15.42,-409.6 15.42,-382.49 58.97,-366 117.41,-366 160.96,-382.49"/>
<text text-anchor="middle" x="88.19" y="-389.84" font-family="Times,serif" font-size="24.00">random</text>
</g>
<!-- random&#45;&gt;tempFile -->
<g id="edge28" class="edge">
<title>random&#45;&gt;tempFile</title>
<path fill="none" stroke="black" d="M161.41,-392.25C253.88,-387.4 411.92,-379.11 493.85,-374.81"/>
<polygon fill="black" stroke="black" points="493.81,-378.32 503.61,-374.3 493.44,-371.32 493.81,-378.32"/>
</g>
<!-- math -->
<g id="node27" class="node">
<title>math</title>
<ellipse fill="none" stroke="red" cx="88.19" cy="-168.04" rx="45.92" ry="24.08"/>
<text text-anchor="middle" x="88.19" y="-161.84" font-family="Times,serif" font-size="24.00">math</text>
</g>
<!-- math&#45;&gt;functions -->
<g id="edge50" class="edge">
<title>math&#45;&gt;functions</title>
<path fill="none" stroke="red" d="M128.76,-179.66C144.19,-185.04 161.67,-192.22 176.38,-201.04 322.23,-288.53 316.62,-368.81 464.38,-453.04 474.86,-459.02 486.86,-463.9 498.39,-467.79"/>
<polygon fill="red" stroke="red" points="497.2,-471.08 507.79,-470.76 499.31,-464.41 497.2,-471.08"/>
</g>
<!-- math&#45;&gt;timer -->
<g id="edge80" class="edge">
<title>math&#45;&gt;timer</title>
<path fill="none" stroke="red" d="M128.58,-156.41C215.8,-130.67 424.21,-69.16 509.36,-44.02"/>
<polygon fill="red" stroke="red" points="510.25,-47.41 518.85,-41.22 508.27,-40.7 510.25,-47.41"/>
</g>
<!-- algorithm -->
<g id="node28" class="node">
<title>algorithm</title>
<polygon fill="palegreen" stroke="black" points="172.56,-463.25 172.56,-484.83 123.14,-500.08 53.24,-500.08 3.82,-484.83 3.82,-463.25 53.24,-448 123.14,-448 172.56,-463.25"/>
<polygon fill="none" stroke="black" points="176.57,-460.3 176.57,-487.78 123.74,-504.09 52.64,-504.09 -0.19,-487.78 -0.19,-460.3 52.64,-444 123.74,-444 176.57,-460.3"/>
<text text-anchor="middle" x="88.19" y="-467.84" font-family="Times,serif" font-size="24.00">algorithm</text>
</g>
<!-- algorithm&#45;&gt;functions -->
<g id="edge52" class="edge">
<title>algorithm&#45;&gt;functions</title>
<path fill="none" stroke="black" d="M176.84,-475.19C269.98,-476.41 414.32,-478.31 492.25,-479.33"/>
<polygon fill="black" stroke="black" points="492.15,-482.83 502.19,-479.46 492.24,-475.83 492.15,-482.83"/>
</g>
<!-- parseutils -->
<g id="node30" class="node">
<title>parseutils</title>
<polygon fill="palegreen" stroke="black" points="171,-85.25 171,-106.83 122.49,-122.08 53.89,-122.08 5.38,-106.83 5.38,-85.25 53.89,-70 122.49,-70 171,-85.25"/>
<polygon fill="none" stroke="black" points="175.01,-82.32 175.01,-109.77 123.11,-126.09 53.27,-126.09 1.37,-109.77 1.37,-82.32 53.27,-66 123.11,-66 175.01,-82.32"/>
<text text-anchor="middle" x="88.19" y="-89.84" font-family="Times,serif" font-size="24.00">parseutils</text>
</g>
<!-- parseutils&#45;&gt;parseNumber -->
<g id="edge54" class="edge">
<title>parseutils&#45;&gt;parseNumber</title>
<path fill="none" stroke="black" d="M175.49,-101.7C263.51,-107.48 398.27,-116.31 478.88,-121.6"/>
<polygon fill="black" stroke="black" points="478.17,-125.06 488.37,-122.22 478.63,-118.08 478.17,-125.06"/>
</g>
<!-- unicode -->
<g id="node31" class="node">
<title>unicode</title>
<polygon fill="palegreen" stroke="black" points="158.52,-229.25 158.52,-250.83 117.32,-266.08 59.06,-266.08 17.86,-250.83 17.86,-229.25 59.06,-214 117.32,-214 158.52,-229.25"/>
<polygon fill="none" stroke="black" points="162.52,-226.47 162.52,-253.62 118.04,-270.09 58.34,-270.09 13.86,-253.62 13.86,-226.47 58.34,-210 118.04,-210 162.52,-226.47"/>
<text text-anchor="middle" x="88.19" y="-233.84" font-family="Times,serif" font-size="24.00">unicode</text>
</g>
<!-- unicode&#45;&gt;unicodes -->
<g id="edge55" class="edge">
<title>unicode&#45;&gt;unicodes</title>
<path fill="none" stroke="black" d="M162.93,-243.91C255.53,-248.77 412.12,-256.99 493.66,-261.26"/>
<polygon fill="black" stroke="black" points="493.44,-264.76 503.61,-261.79 493.81,-257.77 493.44,-264.76"/>
</g>
<!-- json -->
<g id="node35" class="node">
<title>json</title>
<polygon fill="palegreen" stroke="black" points="130.92,-307.25 130.92,-328.83 105.89,-344.08 70.49,-344.08 45.46,-328.83 45.46,-307.25 70.49,-292 105.89,-292 130.92,-307.25"/>
<polygon fill="none" stroke="black" points="134.91,-305 134.91,-331.08 107.01,-348.09 69.37,-348.09 41.47,-331.08 41.47,-305 69.37,-288 107.01,-288 134.91,-305"/>
<text text-anchor="middle" x="88.19" y="-311.84" font-family="Times,serif" font-size="24.00">json</text>
</g>
<!-- json&#45;&gt;readjson -->
<g id="edge60" class="edge">
<title>json&#45;&gt;readjson</title>
<path fill="none" stroke="black" d="M135.14,-318.04C221.21,-318.04 406.1,-318.04 495.76,-318.04"/>
<polygon fill="black" stroke="black" points="495.73,-321.54 505.73,-318.04 495.73,-314.54 495.73,-321.54"/>
</g>
<!-- rdstdin -->
<g id="node40" class="node">
<title>rdstdin</title>
<polygon fill="palegreen" stroke="black" points="151.74,-1315.25 151.74,-1336.83 114.51,-1352.08 61.87,-1352.08 24.64,-1336.83 24.64,-1315.25 61.87,-1300 114.51,-1300 151.74,-1315.25"/>
<polygon fill="none" stroke="black" points="155.74,-1312.57 155.74,-1339.51 115.3,-1356.09 61.08,-1356.09 20.64,-1339.51 20.64,-1312.57 61.08,-1296 115.3,-1296 155.74,-1312.57"/>
<text text-anchor="middle" x="88.19" y="-1319.84" font-family="Times,serif" font-size="24.00">rdstdin</text>
</g>
<!-- rdstdin&#45;&gt;repl -->
<g id="edge74" class="edge">
<title>rdstdin&#45;&gt;repl</title>
<path fill="none" stroke="black" d="M156.19,-1328.68C253.78,-1332.52 431.8,-1339.52 509.1,-1342.57"/>
<polygon fill="black" stroke="black" points="508.54,-1346.05 518.67,-1342.94 508.81,-1339.05 508.54,-1346.05"/>
</g>
</g>
</svg>
