<?xml version="1.0" encoding="UTF-8" standalone="no"?>
<!DOCTYPE svg PUBLIC "-//W3C//DTD SVG 1.1//EN"
 "http://www.w3.org/Graphics/SVG/1.1/DTD/svg11.dtd">
<!-- Generated by graphviz version 7.0.1 (20221109.1506)
 -->
<!-- Title: statictea Pages: 1 -->
<svg width="771pt" height="1847pt"
 viewBox="0.00 0.00 770.78 1847.04" xmlns="http://www.w3.org/2000/svg" xmlns:xlink="http://www.w3.org/1999/xlink">
<g id="graph0" class="graph" transform="scale(1 1) rotate(0) translate(4 1843.04)">
<title>statictea</title>
<polygon fill="white" stroke="none" points="-4,4 -4,-1843.04 766.78,-1843.04 766.78,4 -4,4"/>
<!-- strutils -->
<g id="node1" class="node">
<title>strutils</title>
<ellipse fill="none" stroke="black" cx="88.19" cy="-1305.02" rx="57.97" ry="24.08"/>
<text text-anchor="middle" x="88.19" y="-1298.82" font-family="Times,serif" font-size="24.00">strutils</text>
</g>
<!-- statictea -->
<g id="node2" class="node">
<title>statictea</title>
<g id="a_node2"><a xlink:href="html/statictea.html" xlink:title="statictea" target="_parent">
<ellipse fill="none" stroke="black" cx="613.58" cy="-1668.02" rx="67.35" ry="24.08"/>
<text text-anchor="middle" x="613.58" y="-1661.82" font-family="Times,serif" font-size="24.00">statictea</text>
</a>
</g>
</g>
<!-- strutils&#45;&gt;statictea -->
<g id="edge1" class="edge">
<title>strutils&#45;&gt;statictea</title>
<path fill="none" stroke="black" d="M107.94,-1328.16C158.5,-1388.91 304.69,-1553.85 464.38,-1635.02 487,-1646.52 513.56,-1654.04 537.9,-1658.94"/>
<polygon fill="black" stroke="black" points="536.95,-1662.32 547.42,-1660.73 538.24,-1655.44 536.95,-1662.32"/>
</g>
<!-- messages -->
<g id="node10" class="node">
<title>messages</title>
<g id="a_node10"><a xlink:href="html/messages.html" xlink:title="messages" target="_parent">
<ellipse fill="none" stroke="black" cx="613.58" cy="-1734.02" rx="74.91" ry="24.08"/>
<text text-anchor="middle" x="613.58" y="-1727.82" font-family="Times,serif" font-size="24.00">messages</text>
</a>
</g>
</g>
<!-- strutils&#45;&gt;messages -->
<g id="edge7" class="edge">
<title>strutils&#45;&gt;messages</title>
<path fill="none" stroke="black" d="M103.78,-1328.29C148.38,-1397.36 290.54,-1602.47 464.38,-1701.02 484.39,-1712.37 507.98,-1719.81 530.38,-1724.7"/>
<polygon fill="black" stroke="black" points="529.63,-1728.12 540.12,-1726.66 531.01,-1721.25 529.63,-1728.12"/>
</g>
<!-- cmdline -->
<g id="node11" class="node">
<title>cmdline</title>
<g id="a_node11"><a xlink:href="html/cmdline.html" xlink:title="cmdline" target="_parent">
<ellipse fill="none" stroke="black" cx="613.58" cy="-1272.02" rx="66.44" ry="24.08"/>
<text text-anchor="middle" x="613.58" y="-1265.82" font-family="Times,serif" font-size="24.00">cmdline</text>
</a>
</g>
</g>
<!-- strutils&#45;&gt;cmdline -->
<g id="edge12" class="edge">
<title>strutils&#45;&gt;cmdline</title>
<path fill="none" stroke="black" d="M145.7,-1301.46C240.19,-1295.5 430.33,-1283.51 536.49,-1276.82"/>
<polygon fill="black" stroke="black" points="536.48,-1280.33 546.24,-1276.21 536.04,-1273.34 536.48,-1280.33"/>
</g>
<!-- matches -->
<g id="node12" class="node">
<title>matches</title>
<g id="a_node12"><a xlink:href="html/matches.html" xlink:title="matches" target="_parent">
<ellipse fill="none" stroke="black" cx="613.58" cy="-1536.02" rx="67.35" ry="24.08"/>
<text text-anchor="middle" x="613.58" y="-1529.82" font-family="Times,serif" font-size="24.00">matches</text>
</a>
</g>
</g>
<!-- strutils&#45;&gt;matches -->
<g id="edge14" class="edge">
<title>strutils&#45;&gt;matches</title>
<path fill="none" stroke="black" d="M120.47,-1325.25C183.2,-1364.98 329.93,-1453.59 464.38,-1503.02 488.62,-1511.94 516.02,-1518.86 540.61,-1524.01"/>
<polygon fill="black" stroke="black" points="539.7,-1527.4 550.2,-1525.96 541.09,-1520.54 539.7,-1527.4"/>
</g>
<!-- processTemplate -->
<g id="node15" class="node">
<title>processTemplate</title>
<g id="a_node15"><a xlink:href="html/processTemplate.html" xlink:title="processTemplate" target="_parent">
<ellipse fill="none" stroke="black" cx="613.58" cy="-1140.02" rx="124.4" ry="24.08"/>
<text text-anchor="middle" x="613.58" y="-1133.82" font-family="Times,serif" font-size="24.00">processTemplate</text>
</a>
</g>
</g>
<!-- strutils&#45;&gt;processTemplate -->
<g id="edge21" class="edge">
<title>strutils&#45;&gt;processTemplate</title>
<path fill="none" stroke="black" d="M131.14,-1288.41C199.94,-1261.59 341.4,-1208.21 464.38,-1173.02 480.6,-1168.38 497.96,-1164 514.89,-1160.04"/>
<polygon fill="black" stroke="black" points="515.51,-1163.49 524.47,-1157.83 513.94,-1156.67 515.51,-1163.49"/>
</g>
<!-- env -->
<g id="node17" class="node">
<title>env</title>
<g id="a_node17"><a xlink:href="html/env.html" xlink:title="env" target="_parent">
<ellipse fill="none" stroke="black" cx="613.58" cy="-1206.02" rx="36.12" ry="24.08"/>
<text text-anchor="middle" x="613.58" y="-1199.82" font-family="Times,serif" font-size="24.00">env</text>
</a>
</g>
</g>
<!-- strutils&#45;&gt;env -->
<g id="edge27" class="edge">
<title>strutils&#45;&gt;env</title>
<path fill="none" stroke="black" d="M141.29,-1295.17C243.9,-1275.76 470.6,-1232.88 567.37,-1214.57"/>
<polygon fill="black" stroke="black" points="567.85,-1218.05 577.02,-1212.75 566.55,-1211.17 567.85,-1218.05"/>
</g>
<!-- tempFile -->
<g id="node19" class="node">
<title>tempFile</title>
<g id="a_node19"><a xlink:href="html/tempFile.html" xlink:title="tempFile" target="_parent">
<ellipse fill="none" stroke="black" cx="613.58" cy="-1602.02" rx="72.25" ry="24.08"/>
<text text-anchor="middle" x="613.58" y="-1595.82" font-family="Times,serif" font-size="24.00">tempFile</text>
</a>
</g>
</g>
<!-- strutils&#45;&gt;tempFile -->
<g id="edge30" class="edge">
<title>strutils&#45;&gt;tempFile</title>
<path fill="none" stroke="black" d="M113,-1327C169.43,-1377.84 317.59,-1504.15 464.38,-1569.02 486.45,-1578.77 511.68,-1585.77 534.99,-1590.74"/>
<polygon fill="black" stroke="black" points="534.28,-1594.16 544.77,-1592.71 535.66,-1587.3 534.28,-1594.16"/>
</g>
<!-- runCommand -->
<g id="node23" class="node">
<title>runCommand</title>
<g id="a_node23"><a xlink:href="html/runCommand.html" xlink:title="runCommand" target="_parent">
<ellipse fill="none" stroke="black" cx="613.58" cy="-1338.02" rx="105.22" ry="24.08"/>
<text text-anchor="middle" x="613.58" y="-1331.82" font-family="Times,serif" font-size="24.00">runCommand</text>
</a>
</g>
</g>
<!-- strutils&#45;&gt;runCommand -->
<g id="edge38" class="edge">
<title>strutils&#45;&gt;runCommand</title>
<path fill="none" stroke="black" d="M145.7,-1308.59C230.2,-1313.91 391.2,-1324.06 500.22,-1330.94"/>
<polygon fill="black" stroke="black" points="499.88,-1334.42 510.08,-1331.56 500.32,-1327.44 499.88,-1334.42"/>
</g>
<!-- vartypes -->
<g id="node24" class="node">
<title>vartypes</title>
<g id="a_node24"><a xlink:href="html/vartypes.html" xlink:title="vartypes" target="_parent">
<ellipse fill="none" stroke="black" cx="613.58" cy="-942.02" rx="69.09" ry="24.08"/>
<text text-anchor="middle" x="613.58" y="-935.82" font-family="Times,serif" font-size="24.00">vartypes</text>
</a>
</g>
</g>
<!-- strutils&#45;&gt;vartypes -->
<g id="edge43" class="edge">
<title>strutils&#45;&gt;vartypes</title>
<path fill="none" stroke="black" d="M118.39,-1283.99C135.58,-1271.34 157.57,-1254.7 176.38,-1239.02 309.75,-1127.83 310.4,-1055.29 464.38,-975.02 486.27,-963.61 511.99,-956.13 535.79,-951.23"/>
<polygon fill="black" stroke="black" points="536.29,-954.7 545.45,-949.38 534.97,-947.83 536.29,-954.7"/>
</g>
<!-- variables -->
<g id="node25" class="node">
<title>variables</title>
<g id="a_node25"><a xlink:href="html/variables.html" xlink:title="variables" target="_parent">
<ellipse fill="none" stroke="black" cx="613.58" cy="-876.02" rx="72.66" ry="24.08"/>
<text text-anchor="middle" x="613.58" y="-869.82" font-family="Times,serif" font-size="24.00">variables</text>
</a>
</g>
</g>
<!-- strutils&#45;&gt;variables -->
<g id="edge45" class="edge">
<title>strutils&#45;&gt;variables</title>
<path fill="none" stroke="black" d="M119.46,-1284.45C136.81,-1272.1 158.61,-1255.6 176.38,-1239.02 318.74,-1106.24 297.03,-1008.47 464.38,-909.02 484.73,-896.93 509.04,-889.26 532.03,-884.4"/>
<polygon fill="black" stroke="black" points="532.55,-887.86 541.7,-882.52 531.21,-880.99 532.55,-887.86"/>
</g>
<!-- functions -->
<g id="node26" class="node">
<title>functions</title>
<g id="a_node26"><a xlink:href="html/functions.html" xlink:title="functions" target="_parent">
<ellipse fill="none" stroke="black" cx="613.58" cy="-546.02" rx="74.91" ry="24.08"/>
<text text-anchor="middle" x="613.58" y="-539.82" font-family="Times,serif" font-size="24.00">functions</text>
</a>
</g>
</g>
<!-- strutils&#45;&gt;functions -->
<g id="edge50" class="edge">
<title>strutils&#45;&gt;functions</title>
<path fill="none" stroke="black" d="M122.78,-1285.51C140.57,-1273.84 161.7,-1257.67 176.38,-1239.02 374.41,-987.6 217.39,-782.55 464.38,-579.02 482.13,-564.4 505,-555.91 527.43,-551.07"/>
<polygon fill="black" stroke="black" points="528.08,-554.51 537.25,-549.2 526.78,-547.63 528.08,-554.51"/>
</g>
<!-- unicodes -->
<g id="node32" class="node">
<title>unicodes</title>
<g id="a_node32"><a xlink:href="html/unicodes.html" xlink:title="unicodes" target="_parent">
<ellipse fill="none" stroke="black" cx="613.58" cy="-1803.02" rx="71.34" ry="24.08"/>
<text text-anchor="middle" x="613.58" y="-1796.82" font-family="Times,serif" font-size="24.00">unicodes</text>
</a>
</g>
</g>
<!-- strutils&#45;&gt;unicodes -->
<g id="edge57" class="edge">
<title>strutils&#45;&gt;unicodes</title>
<path fill="none" stroke="black" d="M101.22,-1328.98C141.18,-1405.99 277.67,-1649.05 464.38,-1767.02 485.06,-1780.09 510.11,-1788.41 533.68,-1793.71"/>
<polygon fill="black" stroke="black" points="532.76,-1797.1 543.27,-1795.7 534.19,-1790.24 532.76,-1797.1"/>
</g>
<!-- parseMarkdown -->
<g id="node36" class="node">
<title>parseMarkdown</title>
<g id="a_node36"><a xlink:href="html/parseMarkdown.html" xlink:title="parseMarkdown" target="_parent">
<ellipse fill="none" stroke="black" cx="613.58" cy="-1470.02" rx="121.74" ry="24.08"/>
<text text-anchor="middle" x="613.58" y="-1463.82" font-family="Times,serif" font-size="24.00">parseMarkdown</text>
</a>
</g>
</g>
<!-- strutils&#45;&gt;parseMarkdown -->
<g id="edge63" class="edge">
<title>strutils&#45;&gt;parseMarkdown</title>
<path fill="none" stroke="black" d="M131.14,-1321.63C199.94,-1348.45 341.4,-1401.83 464.38,-1437.02 480.8,-1441.72 498.41,-1446.16 515.54,-1450.16"/>
<polygon fill="black" stroke="black" points="514.72,-1453.56 525.25,-1452.39 516.28,-1446.74 514.72,-1453.56"/>
</g>
<!-- replacement -->
<g id="node37" class="node">
<title>replacement</title>
<g id="a_node37"><a xlink:href="html/replacement.html" xlink:title="replacement" target="_parent">
<ellipse fill="none" stroke="black" cx="613.58" cy="-810.02" rx="94.51" ry="24.08"/>
<text text-anchor="middle" x="613.58" y="-803.82" font-family="Times,serif" font-size="24.00">replacement</text>
</a>
</g>
</g>
<!-- strutils&#45;&gt;replacement -->
<g id="edge68" class="edge">
<title>strutils&#45;&gt;replacement</title>
<path fill="none" stroke="black" d="M120.43,-1284.75C137.91,-1272.61 159.5,-1256.23 176.38,-1239.02 328.78,-1083.67 282.41,-962.39 464.38,-843.02 479.26,-833.26 496.59,-826.36 514.05,-821.48"/>
<polygon fill="black" stroke="black" points="514.63,-824.94 523.45,-819.07 512.89,-818.16 514.63,-824.94"/>
</g>
<!-- startingvars -->
<g id="node38" class="node">
<title>startingvars</title>
<g id="a_node38"><a xlink:href="html/startingvars.html" xlink:title="startingvars" target="_parent">
<ellipse fill="none" stroke="black" cx="613.58" cy="-1404.02" rx="90.52" ry="24.08"/>
<text text-anchor="middle" x="613.58" y="-1397.82" font-family="Times,serif" font-size="24.00">startingvars</text>
</a>
</g>
</g>
<!-- strutils&#45;&gt;startingvars -->
<g id="edge71" class="edge">
<title>strutils&#45;&gt;startingvars</title>
<path fill="none" stroke="black" d="M141.29,-1314.88C231.69,-1331.98 418.39,-1367.29 527.72,-1387.97"/>
<polygon fill="black" stroke="black" points="527.07,-1391.41 537.54,-1389.83 528.37,-1384.53 527.07,-1391.41"/>
</g>
<!-- repl -->
<g id="node41" class="node">
<title>repl</title>
<g id="a_node41"><a xlink:href="html/repl.html" xlink:title="repl" target="_parent">
<ellipse fill="none" stroke="black" cx="613.58" cy="-216.02" rx="38.37" ry="24.08"/>
<text text-anchor="middle" x="613.58" y="-209.82" font-family="Times,serif" font-size="24.00">repl</text>
</a>
</g>
</g>
<!-- strutils&#45;&gt;repl -->
<g id="edge79" class="edge">
<title>strutils&#45;&gt;repl</title>
<path fill="none" stroke="black" d="M124.18,-1285.94C142.16,-1274.5 163.03,-1258.41 176.38,-1239.02 436.25,-861.59 130.16,-562.51 464.38,-249.02 490.75,-224.29 531.4,-216.59 563.47,-214.76"/>
<polygon fill="black" stroke="black" points="563.47,-218.27 573.34,-214.39 563.21,-211.27 563.47,-218.27"/>
</g>
<!-- options -->
<g id="node3" class="node">
<title>options</title>
<ellipse fill="none" stroke="black" cx="88.19" cy="-975.02" rx="61.54" ry="24.08"/>
<text text-anchor="middle" x="88.19" y="-968.82" font-family="Times,serif" font-size="24.00">options</text>
</g>
<!-- parseCommandLine -->
<g id="node4" class="node">
<title>parseCommandLine</title>
<g id="a_node4"><a xlink:href="html/parseCommandLine.html" xlink:title="parseCommandLine" target="_parent">
<ellipse fill="none" stroke="black" cx="613.58" cy="-744.02" rx="149.4" ry="24.08"/>
<text text-anchor="middle" x="613.58" y="-737.82" font-family="Times,serif" font-size="24.00">parseCommandLine</text>
</a>
</g>
</g>
<!-- options&#45;&gt;parseCommandLine -->
<g id="edge2" class="edge">
<title>options&#45;&gt;parseCommandLine</title>
<path fill="none" stroke="black" d="M120.95,-954.48C183.96,-914.61 330.28,-826.33 464.38,-777.02 476.56,-772.55 489.53,-768.57 502.54,-765.07"/>
<polygon fill="black" stroke="black" points="503.2,-768.51 512,-762.62 501.44,-761.74 503.2,-768.51"/>
</g>
<!-- options&#45;&gt;cmdline -->
<g id="edge13" class="edge">
<title>options&#45;&gt;cmdline</title>
<path fill="none" stroke="black" d="M113.43,-997.38C170.17,-1048.47 317.95,-1174.31 464.38,-1239.02 487.9,-1249.42 515.02,-1256.68 539.57,-1261.69"/>
<polygon fill="black" stroke="black" points="538.69,-1265.09 549.17,-1263.55 540.02,-1258.21 538.69,-1265.09"/>
</g>
<!-- options&#45;&gt;matches -->
<g id="edge15" class="edge">
<title>options&#45;&gt;matches</title>
<path fill="none" stroke="black" d="M110.87,-997.89C129.08,-1017.5 155.41,-1046.81 176.38,-1074.02 316.57,-1255.91 274.76,-1373.48 464.38,-1503.02 485.24,-1517.27 511.24,-1525.48 535.62,-1530.17"/>
<polygon fill="black" stroke="black" points="534.74,-1533.57 545.19,-1531.82 535.94,-1526.67 534.74,-1533.57"/>
</g>
<!-- regexes -->
<g id="node14" class="node">
<title>regexes</title>
<g id="a_node14"><a xlink:href="html/regexes.html" xlink:title="regexes" target="_parent">
<ellipse fill="none" stroke="black" cx="613.58" cy="-414.02" rx="62.87" ry="24.08"/>
<text text-anchor="middle" x="613.58" y="-407.82" font-family="Times,serif" font-size="24.00">regexes</text>
</a>
</g>
</g>
<!-- options&#45;&gt;regexes -->
<g id="edge17" class="edge">
<title>options&#45;&gt;regexes</title>
<path fill="none" stroke="black" d="M102.88,-951.33C157.39,-857.76 361.09,-515.59 464.38,-447.02 486.57,-432.29 514.33,-424.05 539.81,-419.47"/>
<polygon fill="black" stroke="black" points="540.14,-422.96 549.45,-417.9 539.02,-416.05 540.14,-422.96"/>
</g>
<!-- options&#45;&gt;processTemplate -->
<g id="edge19" class="edge">
<title>options&#45;&gt;processTemplate</title>
<path fill="none" stroke="black" d="M132.54,-992.18C201.85,-1019.17 342.23,-1072.07 464.38,-1107.02 480.6,-1111.66 497.96,-1116.04 514.89,-1120.01"/>
<polygon fill="black" stroke="black" points="513.94,-1123.38 524.47,-1122.21 515.51,-1116.56 513.94,-1123.38"/>
</g>
<!-- options&#45;&gt;env -->
<g id="edge26" class="edge">
<title>options&#45;&gt;env</title>
<path fill="none" stroke="black" d="M120.95,-995.56C183.96,-1035.43 330.28,-1123.71 464.38,-1173.02 497.69,-1185.27 536.95,-1193.76 566.69,-1199.06"/>
<polygon fill="black" stroke="black" points="566.06,-1202.5 576.5,-1200.75 567.24,-1195.6 566.06,-1202.5"/>
</g>
<!-- options&#45;&gt;tempFile -->
<g id="edge31" class="edge">
<title>options&#45;&gt;tempFile</title>
<path fill="none" stroke="black" d="M111.33,-997.55C129.81,-1016.95 156.29,-1046.15 176.38,-1074.02 325.2,-1280.51 258.94,-1418.77 464.38,-1569.02 483.58,-1583.06 507.66,-1591.31 530.79,-1596.09"/>
<polygon fill="black" stroke="black" points="530.08,-1599.52 540.55,-1597.9 531.36,-1592.64 530.08,-1599.52"/>
</g>
<!-- linebuffer -->
<g id="node21" class="node">
<title>linebuffer</title>
<g id="a_node21"><a xlink:href="html/linebuffer.html" xlink:title="linebuffer" target="_parent">
<ellipse fill="none" stroke="black" cx="613.58" cy="-1074.02" rx="78.48" ry="24.08"/>
<text text-anchor="middle" x="613.58" y="-1067.82" font-family="Times,serif" font-size="24.00">linebuffer</text>
</a>
</g>
</g>
<!-- options&#45;&gt;linebuffer -->
<g id="edge34" class="edge">
<title>options&#45;&gt;linebuffer</title>
<path fill="none" stroke="black" d="M144.21,-985.43C237.75,-1003.12 428,-1039.11 535.01,-1059.35"/>
<polygon fill="black" stroke="black" points="534.08,-1062.74 544.56,-1061.16 535.38,-1055.86 534.08,-1062.74"/>
</g>
<!-- parseCmdLine -->
<g id="node22" class="node">
<title>parseCmdLine</title>
<g id="a_node22"><a xlink:href="html/parseCmdLine.html" xlink:title="parseCmdLine" target="_parent">
<ellipse fill="none" stroke="black" cx="613.58" cy="-612.02" rx="111.95" ry="24.08"/>
<text text-anchor="middle" x="613.58" y="-605.82" font-family="Times,serif" font-size="24.00">parseCmdLine</text>
</a>
</g>
</g>
<!-- options&#45;&gt;parseCmdLine -->
<g id="edge35" class="edge">
<title>options&#45;&gt;parseCmdLine</title>
<path fill="none" stroke="black" d="M107.94,-951.88C158.5,-891.13 304.69,-726.19 464.38,-645.02 477.99,-638.1 493.04,-632.62 508.16,-628.29"/>
<polygon fill="black" stroke="black" points="508.96,-631.7 517.71,-625.73 507.15,-624.94 508.96,-631.7"/>
</g>
<!-- options&#45;&gt;runCommand -->
<g id="edge37" class="edge">
<title>options&#45;&gt;runCommand</title>
<path fill="none" stroke="black" d="M111.85,-997.7C179.86,-1065.33 382.6,-1263.46 464.38,-1305.02 479.13,-1312.52 495.55,-1318.32 511.94,-1322.81"/>
<polygon fill="black" stroke="black" points="510.66,-1326.1 521.22,-1325.2 512.41,-1319.32 510.66,-1326.1"/>
</g>
<!-- options&#45;&gt;vartypes -->
<g id="edge44" class="edge">
<title>options&#45;&gt;vartypes</title>
<path fill="none" stroke="black" d="M149.23,-971.24C244.18,-965.25 428.99,-953.6 534.25,-946.96"/>
<polygon fill="black" stroke="black" points="534.16,-950.47 543.92,-946.35 533.72,-943.49 534.16,-950.47"/>
</g>
<!-- options&#45;&gt;variables -->
<g id="edge46" class="edge">
<title>options&#45;&gt;variables</title>
<path fill="none" stroke="black" d="M144.21,-964.61C238.79,-946.72 432.26,-910.13 538.56,-890.02"/>
<polygon fill="black" stroke="black" points="539.16,-893.47 548.34,-888.17 537.86,-886.59 539.16,-893.47"/>
</g>
<!-- options&#45;&gt;functions -->
<g id="edge48" class="edge">
<title>options&#45;&gt;functions</title>
<path fill="none" stroke="black" d="M103.78,-951.75C148.38,-882.69 290.54,-677.57 464.38,-579.02 484.39,-567.68 507.98,-560.23 530.38,-555.35"/>
<polygon fill="black" stroke="black" points="531.01,-558.79 540.12,-553.38 529.63,-551.93 531.01,-558.79"/>
</g>
<!-- parseNumber -->
<g id="node29" class="node">
<title>parseNumber</title>
<g id="a_node29"><a xlink:href="html/parseNumber.html" xlink:title="parseNumber" target="_parent">
<ellipse fill="none" stroke="black" cx="613.58" cy="-348.02" rx="103.48" ry="24.08"/>
<text text-anchor="middle" x="613.58" y="-341.82" font-family="Times,serif" font-size="24.00">parseNumber</text>
</a>
</g>
</g>
<!-- options&#45;&gt;parseNumber -->
<g id="edge54" class="edge">
<title>options&#45;&gt;parseNumber</title>
<path fill="none" stroke="black" d="M101.08,-951.18C151.92,-850.17 353.41,-459.12 464.38,-381.02 477.04,-372.11 491.7,-365.55 506.76,-360.73"/>
<polygon fill="black" stroke="black" points="507.71,-364.1 516.33,-357.95 505.75,-357.38 507.71,-364.1"/>
</g>
<!-- options&#45;&gt;parseMarkdown -->
<g id="edge64" class="edge">
<title>options&#45;&gt;parseMarkdown</title>
<path fill="none" stroke="black" d="M109.97,-997.93C127.85,-1017.81 154.2,-1047.49 176.38,-1074.02 308.48,-1232.02 289.85,-1327.7 464.38,-1437.02 475.18,-1443.79 487.18,-1449.17 499.55,-1453.46"/>
<polygon fill="black" stroke="black" points="498.46,-1456.79 509.06,-1456.49 500.59,-1450.12 498.46,-1456.79"/>
</g>
<!-- options&#45;&gt;replacement -->
<g id="edge65" class="edge">
<title>options&#45;&gt;replacement</title>
<path fill="none" stroke="black" d="M132.54,-957.87C201.85,-930.87 342.23,-877.98 464.38,-843.02 484.47,-837.28 506.32,-831.92 526.92,-827.27"/>
<polygon fill="black" stroke="black" points="527.41,-830.75 536.41,-825.16 525.89,-823.92 527.41,-830.75"/>
</g>
<!-- updateTemplate -->
<g id="node39" class="node">
<title>updateTemplate</title>
<g id="a_node39"><a xlink:href="html/updateTemplate.html" xlink:title="updateTemplate" target="_parent">
<ellipse fill="none" stroke="black" cx="613.58" cy="-1008.02" rx="119.5" ry="24.08"/>
<text text-anchor="middle" x="613.58" y="-1001.82" font-family="Times,serif" font-size="24.00">updateTemplate</text>
</a>
</g>
</g>
<!-- options&#45;&gt;updateTemplate -->
<g id="edge74" class="edge">
<title>options&#45;&gt;updateTemplate</title>
<path fill="none" stroke="black" d="M149.23,-978.81C231.37,-983.99 380.78,-993.41 487.74,-1000.15"/>
<polygon fill="black" stroke="black" points="487.22,-1003.63 497.42,-1000.76 487.66,-996.64 487.22,-1003.63"/>
</g>
<!-- options&#45;&gt;repl -->
<g id="edge78" class="edge">
<title>options&#45;&gt;repl</title>
<path fill="none" stroke="black" d="M101.1,-951.31C163.27,-827.59 448.37,-261.36 464.38,-249.02 492.65,-227.24 532.46,-219.27 563.71,-216.59"/>
<polygon fill="black" stroke="black" points="563.55,-220.11 573.28,-215.93 563.06,-213.13 563.55,-220.11"/>
</g>
<!-- tables -->
<g id="node5" class="node">
<title>tables</title>
<ellipse fill="none" stroke="black" cx="88.19" cy="-768.02" rx="50.82" ry="24.08"/>
<text text-anchor="middle" x="88.19" y="-761.82" font-family="Times,serif" font-size="24.00">tables</text>
</g>
<!-- tables&#45;&gt;parseCommandLine -->
<g id="edge3" class="edge">
<title>tables&#45;&gt;parseCommandLine</title>
<path fill="none" stroke="black" d="M138.9,-765.74C211.42,-762.42 349.37,-756.09 457.77,-751.12"/>
<polygon fill="black" stroke="black" points="457.83,-754.62 467.66,-750.67 457.51,-747.63 457.83,-754.62"/>
</g>
<!-- args -->
<g id="node8" class="node">
<title>args</title>
<g id="a_node8"><a xlink:href="html/args.html" xlink:title="args" target="_parent">
<ellipse fill="none" stroke="black" cx="613.58" cy="-282.02" rx="39.7" ry="24.08"/>
<text text-anchor="middle" x="613.58" y="-275.82" font-family="Times,serif" font-size="24.00">args</text>
</a>
</g>
</g>
<!-- tables&#45;&gt;args -->
<g id="edge9" class="edge">
<title>tables&#45;&gt;args</title>
<path fill="none" stroke="black" d="M133.58,-757.02C148.21,-751.95 163.91,-744.82 176.38,-735.02 354.38,-595.22 276.87,-441.78 464.38,-315.02 493.23,-295.52 531.78,-287.36 562.33,-284.03"/>
<polygon fill="black" stroke="black" points="562.47,-287.53 572.1,-283.11 561.82,-280.56 562.47,-287.53"/>
</g>
<!-- tables&#45;&gt;cmdline -->
<g id="edge11" class="edge">
<title>tables&#45;&gt;cmdline</title>
<path fill="none" stroke="black" d="M100.58,-791.77C139.32,-869.82 274.22,-1120.17 464.38,-1239.02 485.99,-1252.53 512.42,-1260.54 536.94,-1265.28"/>
<polygon fill="black" stroke="black" points="536.11,-1268.69 546.56,-1266.98 537.32,-1261.8 536.11,-1268.69"/>
</g>
<!-- tables&#45;&gt;regexes -->
<g id="edge18" class="edge">
<title>tables&#45;&gt;regexes</title>
<path fill="none" stroke="black" d="M132.16,-755.82C146.83,-750.62 162.92,-743.72 176.38,-735.02 328.43,-636.79 305.72,-534.16 464.38,-447.02 487.73,-434.2 515.73,-426.36 541.08,-421.56"/>
<polygon fill="black" stroke="black" points="541.4,-425.06 550.65,-419.89 540.19,-418.17 541.4,-425.06"/>
</g>
<!-- tables&#45;&gt;processTemplate -->
<g id="edge20" class="edge">
<title>tables&#45;&gt;processTemplate</title>
<path fill="none" stroke="black" d="M106.71,-790.47C155.86,-851.8 302.16,-1023.2 464.38,-1107.02 476.39,-1113.23 489.54,-1118.27 502.88,-1122.37"/>
<polygon fill="black" stroke="black" points="501.58,-1125.64 512.16,-1125.04 503.52,-1118.91 501.58,-1125.64"/>
</g>
<!-- tables&#45;&gt;parseCmdLine -->
<g id="edge36" class="edge">
<title>tables&#45;&gt;parseCmdLine</title>
<path fill="none" stroke="black" d="M129.33,-753.43C197.55,-728.95 340.77,-678.96 464.38,-645.02 482.25,-640.12 501.48,-635.42 519.98,-631.18"/>
<polygon fill="black" stroke="black" points="520.62,-634.62 529.6,-629 519.08,-627.79 520.62,-634.62"/>
</g>
<!-- tables&#45;&gt;runCommand -->
<g id="edge39" class="edge">
<title>tables&#45;&gt;runCommand</title>
<path fill="none" stroke="black" d="M102.46,-791.47C156.22,-885.7 359.96,-1235.1 464.38,-1305.02 477.16,-1313.58 491.81,-1319.95 506.82,-1324.68"/>
<polygon fill="black" stroke="black" points="505.75,-1328.02 516.33,-1327.43 507.69,-1321.3 505.75,-1328.02"/>
</g>
<!-- tables&#45;&gt;vartypes -->
<g id="edge42" class="edge">
<title>tables&#45;&gt;vartypes</title>
<path fill="none" stroke="black" d="M126.67,-784.12C193.52,-812.37 338.16,-871.46 464.38,-909.02 489.14,-916.39 516.66,-922.95 541.19,-928.25"/>
<polygon fill="black" stroke="black" points="540.25,-931.63 550.76,-930.28 541.7,-924.78 540.25,-931.63"/>
</g>
<!-- tables&#45;&gt;variables -->
<g id="edge47" class="edge">
<title>tables&#45;&gt;variables</title>
<path fill="none" stroke="black" d="M135.18,-777.51C226.25,-796.3 430.17,-838.38 539.71,-860.99"/>
<polygon fill="black" stroke="black" points="538.99,-864.41 549.49,-863 540.4,-857.56 538.99,-864.41"/>
</g>
<!-- tables&#45;&gt;functions -->
<g id="edge49" class="edge">
<title>tables&#45;&gt;functions</title>
<path fill="none" stroke="black" d="M130.03,-753.86C144.81,-748.4 161.52,-741.82 176.38,-735.02 308.75,-674.45 328.03,-630 464.38,-579.02 486.77,-570.65 511.88,-564.07 534.99,-559.06"/>
<polygon fill="black" stroke="black" points="535.6,-562.51 544.67,-557.04 534.17,-555.66 535.6,-562.51"/>
</g>
<!-- signatures -->
<g id="node33" class="node">
<title>signatures</title>
<g id="a_node33"><a xlink:href="html/signatures.html" xlink:title="signatures" target="_parent">
<ellipse fill="none" stroke="black" cx="613.58" cy="-480.02" rx="79.81" ry="24.08"/>
<text text-anchor="middle" x="613.58" y="-473.82" font-family="Times,serif" font-size="24.00">signatures</text>
</a>
</g>
</g>
<!-- tables&#45;&gt;signatures -->
<g id="edge58" class="edge">
<title>tables&#45;&gt;signatures</title>
<path fill="none" stroke="black" d="M131.12,-754.99C145.85,-749.67 162.25,-742.91 176.38,-735.02 317.49,-656.23 318.02,-581.55 464.38,-513.02 484.4,-503.65 507.22,-496.87 528.84,-492"/>
<polygon fill="black" stroke="black" points="529.49,-495.44 538.54,-489.94 528.03,-488.6 529.49,-495.44"/>
</g>
<!-- readjson -->
<g id="node34" class="node">
<title>readjson</title>
<g id="a_node34"><a xlink:href="html/readjson.html" xlink:title="readjson" target="_parent">
<ellipse fill="none" stroke="black" cx="613.58" cy="-678.02" rx="69.09" ry="24.08"/>
<text text-anchor="middle" x="613.58" y="-671.82" font-family="Times,serif" font-size="24.00">readjson</text>
</a>
</g>
</g>
<!-- tables&#45;&gt;readjson -->
<g id="edge62" class="edge">
<title>tables&#45;&gt;readjson</title>
<path fill="none" stroke="black" d="M136.56,-759.88C228.31,-744.1 430.77,-709.29 539.75,-690.55"/>
<polygon fill="black" stroke="black" points="540.2,-694.02 549.46,-688.88 539.02,-687.12 540.2,-694.02"/>
</g>
<!-- tables&#45;&gt;startingvars -->
<g id="edge70" class="edge">
<title>tables&#45;&gt;startingvars</title>
<path fill="none" stroke="black" d="M100.7,-791.54C150.77,-892.97 352.22,-1291.52 464.38,-1371.02 479.5,-1381.74 497.49,-1389.06 515.64,-1394.04"/>
<polygon fill="black" stroke="black" points="514.61,-1397.39 525.16,-1396.41 516.3,-1390.6 514.61,-1397.39"/>
</g>
<!-- tables&#45;&gt;updateTemplate -->
<g id="edge75" class="edge">
<title>tables&#45;&gt;updateTemplate</title>
<path fill="none" stroke="black" d="M117.95,-787.68C179.02,-828.54 327.3,-923.17 464.38,-975.02 479.2,-980.63 495.24,-985.42 511.1,-989.48"/>
<polygon fill="black" stroke="black" points="510.02,-992.81 520.56,-991.8 511.69,-986.02 510.02,-992.81"/>
</g>
<!-- tables&#45;&gt;repl -->
<g id="edge77" class="edge">
<title>tables&#45;&gt;repl</title>
<path fill="none" stroke="black" d="M134.4,-757.33C148.93,-752.31 164.36,-745.12 176.38,-735.02 368.6,-573.5 261.13,-396.43 464.38,-249.02 493.05,-228.23 532.44,-220.18 563.4,-217.21"/>
<polygon fill="black" stroke="black" points="563.62,-220.71 573.31,-216.43 563.06,-213.73 563.62,-220.71"/>
</g>
<!-- os -->
<g id="node6" class="node">
<title>os</title>
<ellipse fill="none" stroke="black" cx="88.19" cy="-1206.02" rx="27" ry="24.08"/>
<text text-anchor="middle" x="88.19" y="-1199.82" font-family="Times,serif" font-size="24.00">os</text>
</g>
<!-- os&#45;&gt;statictea -->
<g id="edge85" class="edge">
<title>os&#45;&gt;statictea</title>
<path fill="none" stroke="black" d="M110.45,-1219.86C128.88,-1232.37 155.74,-1251.85 176.38,-1272.02 323.65,-1415.98 289.85,-1525.7 464.38,-1635.02 485.79,-1648.43 511.93,-1656.43 536.27,-1661.18"/>
<polygon fill="black" stroke="black" points="535.35,-1664.57 545.81,-1662.88 536.58,-1657.68 535.35,-1664.57"/>
</g>
<!-- os&#45;&gt;parseCommandLine -->
<g id="edge4" class="edge">
<title>os&#45;&gt;parseCommandLine</title>
<path fill="none" stroke="black" d="M110.45,-1192.18C128.88,-1179.68 155.74,-1160.19 176.38,-1140.02 323.65,-996.06 289.85,-886.35 464.38,-777.02 472.41,-771.99 481.1,-767.73 490.12,-764.11"/>
<polygon fill="black" stroke="black" points="491.24,-767.42 499.41,-760.67 488.82,-760.86 491.24,-767.42"/>
</g>
<!-- os&#45;&gt;cmdline -->
<g id="edge10" class="edge">
<title>os&#45;&gt;cmdline</title>
<path fill="none" stroke="black" d="M115.15,-1209.3C192.08,-1219 420.89,-1247.85 539.48,-1262.8"/>
<polygon fill="black" stroke="black" points="538.74,-1266.24 549.1,-1264.02 539.62,-1259.29 538.74,-1266.24"/>
</g>
<!-- os&#45;&gt;env -->
<g id="edge24" class="edge">
<title>os&#45;&gt;env</title>
<path fill="none" stroke="black" d="M115.5,-1206.02C199.02,-1206.02 458.9,-1206.02 565.86,-1206.02"/>
<polygon fill="black" stroke="black" points="565.72,-1209.52 575.72,-1206.02 565.72,-1202.52 565.72,-1209.52"/>
</g>
<!-- os&#45;&gt;tempFile -->
<g id="edge28" class="edge">
<title>os&#45;&gt;tempFile</title>
<path fill="none" stroke="black" d="M109.97,-1220.38C128.08,-1233.22 154.77,-1252.9 176.38,-1272.02 314.08,-1393.87 303.9,-1479.27 464.38,-1569.02 485.14,-1580.63 509.68,-1588.16 532.75,-1593.04"/>
<polygon fill="black" stroke="black" points="531.96,-1596.45 542.45,-1594.93 533.31,-1589.58 531.96,-1596.45"/>
</g>
<!-- os&#45;&gt;runCommand -->
<g id="edge40" class="edge">
<title>os&#45;&gt;runCommand</title>
<path fill="none" stroke="black" d="M114.13,-1212.96C174.22,-1229.6 331.83,-1272.79 464.38,-1305.02 483.74,-1309.73 504.59,-1314.53 524.36,-1318.97"/>
<polygon fill="black" stroke="black" points="523.53,-1322.37 534.05,-1321.13 525.05,-1315.54 523.53,-1322.37"/>
</g>
<!-- os&#45;&gt;functions -->
<g id="edge52" class="edge">
<title>os&#45;&gt;functions</title>
<path fill="none" stroke="black" d="M111.48,-1193.14C130.56,-1181.24 157.82,-1162.12 176.38,-1140.02 356.63,-925.4 242.59,-750.37 464.38,-579.02 482.58,-564.96 505.59,-556.65 528.02,-551.81"/>
<polygon fill="black" stroke="black" points="528.67,-555.25 537.83,-549.92 527.34,-548.37 528.67,-555.25"/>
</g>
<!-- os&#45;&gt;readjson -->
<g id="edge60" class="edge">
<title>os&#45;&gt;readjson</title>
<path fill="none" stroke="black" d="M110.86,-1192.58C129.54,-1180.33 156.56,-1161 176.38,-1140.02 334.1,-973.1 274.76,-840.57 464.38,-711.02 484.77,-697.1 510.08,-688.94 533.97,-684.2"/>
<polygon fill="black" stroke="black" points="534.48,-687.67 543.71,-682.46 533.25,-680.78 534.48,-687.67"/>
</g>
<!-- os&#45;&gt;startingvars -->
<g id="edge69" class="edge">
<title>os&#45;&gt;startingvars</title>
<path fill="none" stroke="black" d="M111.84,-1217.87C169.33,-1247.5 326.1,-1325.7 464.38,-1371.02 484.34,-1377.56 506.23,-1383.23 526.92,-1387.93"/>
<polygon fill="black" stroke="black" points="525.94,-1391.3 536.46,-1390.05 527.45,-1384.47 525.94,-1391.3"/>
</g>
<!-- os&#45;&gt;updateTemplate -->
<g id="edge73" class="edge">
<title>os&#45;&gt;updateTemplate</title>
<path fill="none" stroke="black" d="M111.84,-1194.18C169.33,-1164.55 326.1,-1086.34 464.38,-1041.02 480.3,-1035.8 497.46,-1031.14 514.25,-1027.08"/>
<polygon fill="black" stroke="black" points="514.81,-1030.55 523.74,-1024.85 513.21,-1023.73 514.81,-1030.55"/>
</g>
<!-- strformat -->
<g id="node7" class="node">
<title>strformat</title>
<ellipse fill="none" stroke="black" cx="88.19" cy="-624.02" rx="74.49" ry="24.08"/>
<text text-anchor="middle" x="88.19" y="-617.82" font-family="Times,serif" font-size="24.00">strformat</text>
</g>
<!-- strformat&#45;&gt;args -->
<g id="edge5" class="edge">
<title>strformat&#45;&gt;args</title>
<path fill="none" stroke="black" d="M143.38,-607.39C154.69,-602.87 166.25,-597.41 176.38,-591.02 326.31,-496.4 308.09,-398.71 464.38,-315.02 494.77,-298.75 532.79,-290.49 562.71,-286.3"/>
<polygon fill="black" stroke="black" points="562.78,-289.82 572.25,-285.08 561.89,-282.88 562.78,-289.82"/>
</g>
<!-- strformat&#45;&gt;messages -->
<g id="edge8" class="edge">
<title>strformat&#45;&gt;messages</title>
<path fill="none" stroke="black" d="M149.2,-638.11C159.34,-642.75 168.97,-648.89 176.38,-657.02 500.61,-1012.77 115.61,-1369.3 464.38,-1701.02 481.37,-1717.18 504.44,-1726.09 527.32,-1730.85"/>
<polygon fill="black" stroke="black" points="526.56,-1734.27 537.02,-1732.59 527.8,-1727.38 526.56,-1734.27"/>
</g>
<!-- strformat&#45;&gt;replacement -->
<g id="edge67" class="edge">
<title>strformat&#45;&gt;replacement</title>
<path fill="none" stroke="black" d="M138.18,-642.24C150.67,-646.97 164.05,-652.12 176.38,-657.02 305.24,-708.24 332.2,-735.12 464.38,-777.02 483.89,-783.2 505.19,-788.67 525.4,-793.29"/>
<polygon fill="black" stroke="black" points="524.51,-796.68 535.03,-795.44 526.03,-789.84 524.51,-796.68"/>
</g>
<!-- strformat&#45;&gt;repl -->
<g id="edge80" class="edge">
<title>strformat&#45;&gt;repl</title>
<path fill="none" stroke="black" d="M144.37,-608.01C155.51,-603.47 166.74,-597.85 176.38,-591.02 338.53,-476.15 294.45,-352.04 464.38,-249.02 494.46,-230.79 533.45,-222.6 563.89,-218.93"/>
<polygon fill="black" stroke="black" points="564.02,-222.44 573.6,-217.9 563.28,-215.48 564.02,-222.44"/>
</g>
<!-- macros -->
<g id="node9" class="node">
<title>macros</title>
<polygon fill="palegreen" stroke="black" points="153.84,-1720.24 153.84,-1741.81 115.39,-1757.06 61,-1757.06 22.54,-1741.81 22.54,-1720.24 61,-1704.98 115.39,-1704.98 153.84,-1720.24"/>
<polygon fill="none" stroke="black" points="157.83,-1717.51 157.83,-1744.53 116.15,-1761.07 60.24,-1761.07 18.55,-1744.53 18.55,-1717.51 60.24,-1700.98 116.15,-1700.98 157.83,-1717.51"/>
<text text-anchor="middle" x="88.19" y="-1724.82" font-family="Times,serif" font-size="24.00">macros</text>
</g>
<!-- macros&#45;&gt;messages -->
<g id="edge6" class="edge">
<title>macros&#45;&gt;messages</title>
<path fill="none" stroke="black" d="M158.15,-1731.42C253.13,-1731.96 424.12,-1732.94 527.11,-1733.53"/>
<polygon fill="black" stroke="black" points="526.86,-1737.03 536.88,-1733.59 526.9,-1730.03 526.86,-1737.03"/>
</g>
<!-- re -->
<g id="node13" class="node">
<title>re</title>
<polygon fill="palegreen" stroke="black" points="115.19,-397.24 115.19,-418.81 99.37,-434.06 77.01,-434.06 61.19,-418.81 61.19,-397.24 77.01,-381.98 99.37,-381.98 115.19,-397.24"/>
<polygon fill="none" stroke="black" points="119.19,-395.53 119.19,-420.51 100.99,-438.07 75.39,-438.07 57.19,-420.51 57.19,-395.53 75.39,-377.98 100.99,-377.98 119.19,-395.53"/>
<text text-anchor="middle" x="88.19" y="-401.82" font-family="Times,serif" font-size="24.00">re</text>
</g>
<!-- re&#45;&gt;regexes -->
<g id="edge16" class="edge">
<title>re&#45;&gt;regexes</title>
<path fill="none" stroke="black" d="M119.59,-408.37C200.46,-409.3 422.61,-411.84 539.1,-413.18"/>
<polygon fill="black" stroke="black" points="538.83,-416.68 548.86,-413.29 538.91,-409.68 538.83,-416.68"/>
</g>
<!-- streams -->
<g id="node16" class="node">
<title>streams</title>
<ellipse fill="none" stroke="black" cx="88.19" cy="-1107.02" rx="62.87" ry="24.08"/>
<text text-anchor="middle" x="88.19" y="-1100.82" font-family="Times,serif" font-size="24.00">streams</text>
</g>
<!-- streams&#45;&gt;processTemplate -->
<g id="edge22" class="edge">
<title>streams&#45;&gt;processTemplate</title>
<path fill="none" stroke="black" d="M150.51,-1110.89C231.77,-1116.01 377.21,-1125.18 483.27,-1131.87"/>
<polygon fill="black" stroke="black" points="482.99,-1135.36 493.19,-1132.49 483.43,-1128.37 482.99,-1135.36"/>
</g>
<!-- streams&#45;&gt;env -->
<g id="edge23" class="edge">
<title>streams&#45;&gt;env</title>
<path fill="none" stroke="black" d="M145.2,-1117.62C249.5,-1137.35 471.55,-1179.35 567.2,-1197.44"/>
<polygon fill="black" stroke="black" points="566.53,-1200.87 577,-1199.29 567.83,-1194 566.53,-1200.87"/>
</g>
<!-- streams&#45;&gt;tempFile -->
<g id="edge32" class="edge">
<title>streams&#45;&gt;tempFile</title>
<path fill="none" stroke="black" d="M121.26,-1127.87C138.58,-1139.95 159.76,-1156.08 176.38,-1173.02 328.78,-1328.37 282.41,-1449.66 464.38,-1569.02 484.17,-1582.01 508.32,-1589.94 531.32,-1594.77"/>
<polygon fill="black" stroke="black" points="530.54,-1598.19 541.02,-1596.62 531.85,-1591.31 530.54,-1598.19"/>
</g>
<!-- streams&#45;&gt;linebuffer -->
<g id="edge33" class="edge">
<title>streams&#45;&gt;linebuffer</title>
<path fill="none" stroke="black" d="M150.51,-1103.16C243.1,-1097.32 419.01,-1086.23 525.05,-1079.54"/>
<polygon fill="black" stroke="black" points="525.09,-1083.05 534.85,-1078.92 524.64,-1076.06 525.09,-1083.05"/>
</g>
<!-- streams&#45;&gt;runCommand -->
<g id="edge41" class="edge">
<title>streams&#45;&gt;runCommand</title>
<path fill="none" stroke="black" d="M121.44,-1127.87C184.71,-1167.89 330.62,-1255.84 464.38,-1305.02 481.28,-1311.24 499.72,-1316.49 517.67,-1320.84"/>
<polygon fill="black" stroke="black" points="516.75,-1324.22 527.29,-1323.09 518.35,-1317.4 516.75,-1324.22"/>
</g>
<!-- streams&#45;&gt;readjson -->
<g id="edge59" class="edge">
<title>streams&#45;&gt;readjson</title>
<path fill="none" stroke="black" d="M109.55,-1084.02C181.18,-1003.28 419.68,-736.36 464.38,-711.02 485.86,-698.85 511.46,-691.16 535.29,-686.31"/>
<polygon fill="black" stroke="black" points="535.79,-689.78 544.97,-684.5 534.5,-682.9 535.79,-689.78"/>
</g>
<!-- streams&#45;&gt;replacement -->
<g id="edge66" class="edge">
<title>streams&#45;&gt;replacement</title>
<path fill="none" stroke="black" d="M113.43,-1084.66C170.17,-1033.58 317.95,-907.73 464.38,-843.02 481.81,-835.32 501.22,-829.33 520.1,-824.71"/>
<polygon fill="black" stroke="black" points="520.71,-828.16 529.66,-822.49 519.13,-821.34 520.71,-828.16"/>
</g>
<!-- streams&#45;&gt;updateTemplate -->
<g id="edge72" class="edge">
<title>streams&#45;&gt;updateTemplate</title>
<path fill="none" stroke="black" d="M145.2,-1096.43C233.29,-1079.77 405.37,-1047.22 514.35,-1026.6"/>
<polygon fill="black" stroke="black" points="514.69,-1030.1 523.87,-1024.8 513.39,-1023.22 514.69,-1030.1"/>
</g>
<!-- times -->
<g id="node18" class="node">
<title>times</title>
<ellipse fill="none" stroke="red" cx="88.19" cy="-480.02" rx="48.17" ry="24.08"/>
<text text-anchor="middle" x="88.19" y="-473.82" font-family="Times,serif" font-size="24.00">times</text>
</g>
<!-- times&#45;&gt;env -->
<g id="edge25" class="edge">
<title>times&#45;&gt;env</title>
<path fill="none" stroke="red" d="M132.9,-489.13C148.15,-494.09 164.42,-501.64 176.38,-513.02 408.23,-733.64 217.39,-969.5 464.38,-1173.02 492.73,-1196.39 534.15,-1204.09 565.99,-1206.26"/>
<polygon fill="red" stroke="red" points="565.57,-1209.75 575.74,-1206.75 565.93,-1202.76 565.57,-1209.75"/>
</g>
<!-- timer -->
<g id="node44" class="node">
<title>timer</title>
<g id="a_node44"><a xlink:href="html/timer.html" xlink:title="timer" target="_parent">
<ellipse fill="none" stroke="black" cx="613.58" cy="-150.02" rx="48.17" ry="24.08"/>
<text text-anchor="middle" x="613.58" y="-143.82" font-family="Times,serif" font-size="24.00">timer</text>
</a>
</g>
</g>
<!-- times&#45;&gt;timer -->
<g id="edge83" class="edge">
<title>times&#45;&gt;timer</title>
<path fill="none" stroke="red" d="M130.18,-468.12C145.3,-462.81 162.18,-455.76 176.38,-447.02 324.24,-355.98 310.4,-263.29 464.38,-183.02 492.11,-168.57 525.98,-160.42 554.33,-155.84"/>
<polygon fill="red" stroke="red" points="554.83,-159.31 564.2,-154.37 553.8,-152.38 554.83,-159.31"/>
</g>
<!-- random -->
<g id="node20" class="node">
<title>random</title>
<polygon fill="palegreen" stroke="black" points="156.96,-1591.24 156.96,-1612.81 116.68,-1628.06 59.7,-1628.06 19.42,-1612.81 19.42,-1591.24 59.7,-1575.98 116.68,-1575.98 156.96,-1591.24"/>
<polygon fill="none" stroke="black" points="160.96,-1588.47 160.96,-1615.58 117.41,-1632.07 58.97,-1632.07 15.42,-1615.58 15.42,-1588.47 58.97,-1571.98 117.41,-1571.98 160.96,-1588.47"/>
<text text-anchor="middle" x="88.19" y="-1595.82" font-family="Times,serif" font-size="24.00">random</text>
</g>
<!-- random&#45;&gt;tempFile -->
<g id="edge29" class="edge">
<title>random&#45;&gt;tempFile</title>
<path fill="none" stroke="black" d="M161.42,-1602.02C257.81,-1602.02 428.14,-1602.02 529.67,-1602.02"/>
<polygon fill="black" stroke="black" points="529.58,-1605.52 539.58,-1602.02 529.58,-1598.52 529.58,-1605.52"/>
</g>
<!-- math -->
<g id="node27" class="node">
<title>math</title>
<ellipse fill="none" stroke="red" cx="88.19" cy="-180.02" rx="45.92" ry="24.08"/>
<text text-anchor="middle" x="88.19" y="-173.82" font-family="Times,serif" font-size="24.00">math</text>
</g>
<!-- math&#45;&gt;functions -->
<g id="edge51" class="edge">
<title>math&#45;&gt;functions</title>
<path fill="none" stroke="red" d="M129.17,-190.99C144.66,-196.28 162.07,-203.57 176.38,-213.02 330.6,-314.9 303.29,-422.4 464.38,-513.02 484.43,-524.3 508.02,-531.72 530.43,-536.61"/>
<polygon fill="red" stroke="red" points="529.67,-540.03 540.17,-538.58 531.06,-533.17 529.67,-540.03"/>
</g>
<!-- math&#45;&gt;timer -->
<g id="edge84" class="edge">
<title>math&#45;&gt;timer</title>
<path fill="none" stroke="red" d="M134.27,-177.44C229.03,-172.01 448.82,-159.41 554.19,-153.37"/>
<polygon fill="red" stroke="red" points="554.25,-156.87 564.04,-152.8 553.85,-149.88 554.25,-156.87"/>
</g>
<!-- algorithm -->
<g id="node28" class="node">
<title>algorithm</title>
<polygon fill="palegreen" stroke="black" points="172.56,-541.24 172.56,-562.81 123.14,-578.06 53.24,-578.06 3.82,-562.81 3.82,-541.24 53.24,-525.98 123.14,-525.98 172.56,-541.24"/>
<polygon fill="none" stroke="black" points="176.57,-538.28 176.57,-565.76 123.74,-582.07 52.64,-582.07 -0.19,-565.76 -0.19,-538.28 52.64,-521.98 123.74,-521.98 176.57,-538.28"/>
<text text-anchor="middle" x="88.19" y="-545.82" font-family="Times,serif" font-size="24.00">algorithm</text>
</g>
<!-- algorithm&#45;&gt;functions -->
<g id="edge53" class="edge">
<title>algorithm&#45;&gt;functions</title>
<path fill="none" stroke="black" d="M176.79,-551.02C274.11,-549.9 430.21,-548.11 526.78,-547.01"/>
<polygon fill="black" stroke="black" points="526.79,-550.51 536.75,-546.89 526.71,-543.51 526.79,-550.51"/>
</g>
<!-- parseutils -->
<g id="node30" class="node">
<title>parseutils</title>
<polygon fill="palegreen" stroke="black" points="171,-319.24 171,-340.81 122.49,-356.06 53.89,-356.06 5.38,-340.81 5.38,-319.24 53.89,-303.98 122.49,-303.98 171,-319.24"/>
<polygon fill="none" stroke="black" points="175.01,-316.3 175.01,-343.75 123.11,-360.07 53.27,-360.07 1.37,-343.75 1.37,-316.3 53.27,-299.98 123.11,-299.98 175.01,-316.3"/>
<text text-anchor="middle" x="88.19" y="-323.82" font-family="Times,serif" font-size="24.00">parseutils</text>
</g>
<!-- parseutils&#45;&gt;parseNumber -->
<g id="edge55" class="edge">
<title>parseutils&#45;&gt;parseNumber</title>
<path fill="none" stroke="black" d="M175.32,-332.98C263.95,-336.03 402.42,-340.79 499.75,-344.14"/>
<polygon fill="black" stroke="black" points="499.48,-347.63 509.59,-344.48 499.72,-340.64 499.48,-347.63"/>
</g>
<!-- unicode -->
<g id="node31" class="node">
<title>unicode</title>
<polygon fill="palegreen" stroke="black" points="158.52,-1798.24 158.52,-1819.81 117.32,-1835.06 59.06,-1835.06 17.86,-1819.81 17.86,-1798.24 59.06,-1782.98 117.32,-1782.98 158.52,-1798.24"/>
<polygon fill="none" stroke="black" points="162.52,-1795.45 162.52,-1822.6 118.04,-1839.07 58.34,-1839.07 13.86,-1822.6 13.86,-1795.45 58.34,-1778.98 118.04,-1778.98 162.52,-1795.45"/>
<text text-anchor="middle" x="88.19" y="-1802.82" font-family="Times,serif" font-size="24.00">unicode</text>
</g>
<!-- unicode&#45;&gt;unicodes -->
<g id="edge56" class="edge">
<title>unicode&#45;&gt;unicodes</title>
<path fill="none" stroke="black" d="M162.79,-1808.18C259.72,-1807.07 429.63,-1805.12 530.57,-1803.96"/>
<polygon fill="black" stroke="black" points="530.45,-1807.46 540.41,-1803.85 530.37,-1800.46 530.45,-1807.46"/>
</g>
<!-- json -->
<g id="node35" class="node">
<title>json</title>
<polygon fill="palegreen" stroke="black" points="130.92,-685.24 130.92,-706.81 105.89,-722.06 70.49,-722.06 45.46,-706.81 45.46,-685.24 70.49,-669.98 105.89,-669.98 130.92,-685.24"/>
<polygon fill="none" stroke="black" points="134.91,-682.98 134.91,-709.06 107.01,-726.07 69.37,-726.07 41.47,-709.06 41.47,-682.98 69.37,-665.98 107.01,-665.98 134.91,-682.98"/>
<text text-anchor="middle" x="88.19" y="-689.82" font-family="Times,serif" font-size="24.00">json</text>
</g>
<!-- json&#45;&gt;readjson -->
<g id="edge61" class="edge">
<title>json&#45;&gt;readjson</title>
<path fill="none" stroke="black" d="M135.18,-694.44C224.44,-691.37 422.12,-684.57 533.08,-680.76"/>
<polygon fill="black" stroke="black" points="533.14,-684.26 543.01,-680.42 532.89,-677.26 533.14,-684.26"/>
</g>
<!-- rdstdin -->
<g id="node40" class="node">
<title>rdstdin</title>
<polygon fill="palegreen" stroke="black" points="151.74,-241.24 151.74,-262.81 114.51,-278.06 61.87,-278.06 24.64,-262.81 24.64,-241.24 61.87,-225.98 114.51,-225.98 151.74,-241.24"/>
<polygon fill="none" stroke="black" points="155.74,-238.55 155.74,-265.5 115.3,-282.07 61.08,-282.07 20.64,-265.5 20.64,-238.55 61.08,-221.98 115.3,-221.98 155.74,-238.55"/>
<text text-anchor="middle" x="88.19" y="-245.82" font-family="Times,serif" font-size="24.00">rdstdin</text>
</g>
<!-- rdstdin&#45;&gt;repl -->
<g id="edge76" class="edge">
<title>rdstdin&#45;&gt;repl</title>
<path fill="none" stroke="black" d="M156.01,-247.43C262.78,-240.08 469.39,-225.87 563.61,-219.39"/>
<polygon fill="black" stroke="black" points="563.82,-222.88 573.56,-218.71 563.34,-215.9 563.82,-222.88"/>
</g>
<!-- terminal -->
<g id="node42" class="node">
<title>terminal</title>
<polygon fill="palegreen" stroke="black" points="162.66,-97.24 162.66,-118.81 119.04,-134.06 57.34,-134.06 13.72,-118.81 13.72,-97.24 57.34,-81.98 119.04,-81.98 162.66,-97.24"/>
<polygon fill="none" stroke="black" points="166.67,-94.4 166.67,-121.65 119.72,-138.07 56.66,-138.07 9.71,-121.65 9.71,-94.4 56.66,-77.98 119.72,-77.98 166.67,-94.4"/>
<text text-anchor="middle" x="88.19" y="-101.82" font-family="Times,serif" font-size="24.00">terminal</text>
</g>
<!-- terminal&#45;&gt;repl -->
<g id="edge81" class="edge">
<title>terminal&#45;&gt;repl</title>
<path fill="none" stroke="black" d="M163.35,-123.32C272.74,-145.9 474.24,-187.48 565.48,-206.3"/>
<polygon fill="black" stroke="black" points="564.59,-209.69 575.09,-208.29 566,-202.84 564.59,-209.69"/>
</g>
<!-- exitprocs -->
<g id="node43" class="node">
<title>exitprocs</title>
<polygon fill="palegreen" stroke="black" points="167.88,-19.24 167.88,-40.81 121.2,-56.06 55.18,-56.06 8.5,-40.81 8.5,-19.24 55.18,-3.98 121.2,-3.98 167.88,-19.24"/>
<polygon fill="none" stroke="black" points="171.89,-16.33 171.89,-43.71 121.84,-60.07 54.54,-60.07 4.49,-43.71 4.49,-16.33 54.54,0.02 121.84,0.02 171.89,-16.33"/>
<text text-anchor="middle" x="88.19" y="-23.82" font-family="Times,serif" font-size="24.00">exitprocs</text>
</g>
<!-- exitprocs&#45;&gt;repl -->
<g id="edge82" class="edge">
<title>exitprocs&#45;&gt;repl</title>
<path fill="none" stroke="black" d="M143.29,-53.4C231.26,-91.19 401.78,-163.44 464.38,-183.02 497.47,-193.37 535.68,-201.8 565.02,-207.55"/>
<polygon fill="black" stroke="black" points="564.23,-210.96 574.71,-209.41 565.55,-204.08 564.23,-210.96"/>
</g>
</g>
</svg>
