<?xml version="1.0" encoding="UTF-8" standalone="no"?>
<!DOCTYPE svg PUBLIC "-//W3C//DTD SVG 1.1//EN"
 "http://www.w3.org/Graphics/SVG/1.1/DTD/svg11.dtd">
<!-- Generated by graphviz version 7.0.1 (20221109.1506)
 -->
<!-- Title: statictea Pages: 1 -->
<svg width="639pt" height="1466pt"
 viewBox="0.00 0.00 638.77 1466.06" xmlns="http://www.w3.org/2000/svg" xmlns:xlink="http://www.w3.org/1999/xlink">
<g id="graph0" class="graph" transform="scale(1 1) rotate(0) translate(4 1462.06)">
<title>statictea</title>
<polygon fill="white" stroke="none" points="-4,4 -4,-1462.06 634.77,-1462.06 634.77,4 -4,4"/>
<!-- strutils -->
<g id="node1" class="node">
<title>strutils</title>
<ellipse fill="none" stroke="black" cx="88.19" cy="-771.04" rx="57.97" ry="24.08"/>
<text text-anchor="middle" x="88.19" y="-764.84" font-family="Times,serif" font-size="24.00">strutils</text>
</g>
<!-- statictea -->
<g id="node2" class="node">
<title>statictea</title>
<ellipse fill="none" stroke="black" cx="547.57" cy="-1068.04" rx="39.79" ry="18"/>
<text text-anchor="middle" x="547.57" y="-1064.34" font-family="Times,serif" font-size="14.00">statictea</text>
</g>
<!-- strutils&#45;&gt;statictea -->
<g id="edge1" class="edge">
<title>strutils&#45;&gt;statictea</title>
<path fill="none" stroke="black" d="M113.79,-792.95C171.31,-843.17 320.61,-967.91 464.38,-1041.04 476.08,-1046.99 489.37,-1052.03 501.8,-1056.08"/>
<polygon fill="black" stroke="black" points="500.41,-1059.31 511,-1058.93 502.49,-1052.63 500.41,-1059.31"/>
</g>
<!-- messages -->
<g id="node10" class="node">
<title>messages</title>
<ellipse fill="none" stroke="black" cx="547.57" cy="-1392.04" rx="44.39" ry="18"/>
<text text-anchor="middle" x="547.57" y="-1388.34" font-family="Times,serif" font-size="14.00">messages</text>
</g>
<!-- strutils&#45;&gt;messages -->
<g id="edge7" class="edge">
<title>strutils&#45;&gt;messages</title>
<path fill="none" stroke="black" d="M105.22,-794.16C122.93,-819.83 152.15,-862.6 176.38,-900.04 308.47,-1104.12 273.36,-1214.69 464.38,-1365.04 473.5,-1372.22 484.6,-1377.52 495.65,-1381.43"/>
<polygon fill="black" stroke="black" points="494.58,-1384.76 505.17,-1384.43 496.69,-1378.09 494.58,-1384.76"/>
</g>
<!-- cmdline -->
<g id="node11" class="node">
<title>cmdline</title>
<ellipse fill="none" stroke="black" cx="547.57" cy="-852.04" rx="39.79" ry="18"/>
<text text-anchor="middle" x="547.57" y="-848.34" font-family="Times,serif" font-size="14.00">cmdline</text>
</g>
<!-- strutils&#45;&gt;cmdline -->
<g id="edge12" class="edge">
<title>strutils&#45;&gt;cmdline</title>
<path fill="none" stroke="black" d="M142.1,-780.41C231.81,-796.3 412.36,-828.27 498.6,-843.55"/>
<polygon fill="black" stroke="black" points="497.93,-846.98 508.39,-845.28 499.15,-840.09 497.93,-846.98"/>
</g>
<!-- matches -->
<g id="node12" class="node">
<title>matches</title>
<ellipse fill="none" stroke="black" cx="547.57" cy="-744.04" rx="40.09" ry="18"/>
<text text-anchor="middle" x="547.57" y="-740.34" font-family="Times,serif" font-size="14.00">matches</text>
</g>
<!-- strutils&#45;&gt;matches -->
<g id="edge13" class="edge">
<title>strutils&#45;&gt;matches</title>
<path fill="none" stroke="black" d="M145.73,-767.7C235.76,-762.39 410.29,-752.09 496.24,-747.01"/>
<polygon fill="black" stroke="black" points="496.23,-750.52 506.01,-746.44 495.82,-743.53 496.23,-750.52"/>
</g>
<!-- processTemplate -->
<g id="node15" class="node">
<title>processTemplate</title>
<ellipse fill="none" stroke="black" cx="547.57" cy="-690.04" rx="70.39" ry="18"/>
<text text-anchor="middle" x="547.57" y="-686.34" font-family="Times,serif" font-size="14.00">processTemplate</text>
</g>
<!-- strutils&#45;&gt;processTemplate -->
<g id="edge20" class="edge">
<title>strutils&#45;&gt;processTemplate</title>
<path fill="none" stroke="black" d="M142.1,-761.67C225.06,-746.98 385.73,-718.53 477.63,-702.25"/>
<polygon fill="black" stroke="black" points="478.03,-705.73 487.27,-700.54 476.81,-698.84 478.03,-705.73"/>
</g>
<!-- env -->
<g id="node17" class="node">
<title>env</title>
<ellipse fill="none" stroke="black" cx="547.57" cy="-906.04" rx="27" ry="18"/>
<text text-anchor="middle" x="547.57" y="-902.34" font-family="Times,serif" font-size="14.00">env</text>
</g>
<!-- strutils&#45;&gt;env -->
<g id="edge26" class="edge">
<title>strutils&#45;&gt;env</title>
<path fill="none" stroke="black" d="M135.99,-784.85C227.97,-812 430.43,-871.76 511.75,-895.76"/>
<polygon fill="black" stroke="black" points="510.36,-899 520.95,-898.48 512.35,-892.29 510.36,-899"/>
</g>
<!-- tempFile -->
<g id="node19" class="node">
<title>tempFile</title>
<ellipse fill="none" stroke="black" cx="547.57" cy="-1284.04" rx="42.49" ry="18"/>
<text text-anchor="middle" x="547.57" y="-1280.34" font-family="Times,serif" font-size="14.00">tempFile</text>
</g>
<!-- strutils&#45;&gt;tempFile -->
<g id="edge29" class="edge">
<title>strutils&#45;&gt;tempFile</title>
<path fill="none" stroke="black" d="M105.84,-794.22C172.17,-886.32 416.35,-1223.08 464.38,-1257.04 474.23,-1264.01 485.99,-1269.26 497.5,-1273.19"/>
<polygon fill="black" stroke="black" points="496.34,-1276.49 506.93,-1276.11 498.42,-1269.81 496.34,-1276.49"/>
</g>
<!-- runCommand -->
<g id="node23" class="node">
<title>runCommand</title>
<ellipse fill="none" stroke="black" cx="547.57" cy="-1014.04" rx="59.59" ry="18"/>
<text text-anchor="middle" x="547.57" y="-1010.34" font-family="Times,serif" font-size="14.00">runCommand</text>
</g>
<!-- strutils&#45;&gt;runCommand -->
<g id="edge37" class="edge">
<title>strutils&#45;&gt;runCommand</title>
<path fill="none" stroke="black" d="M119.67,-791.49C182.15,-832.76 330.21,-927.14 464.38,-987.04 473.35,-991.05 483.1,-994.77 492.64,-998.09"/>
<polygon fill="black" stroke="black" points="491.26,-1001.31 501.85,-1001.18 493.48,-994.67 491.26,-1001.31"/>
</g>
<!-- vartypes -->
<g id="node24" class="node">
<title>vartypes</title>
<ellipse fill="none" stroke="black" cx="547.57" cy="-528.04" rx="40.09" ry="18"/>
<text text-anchor="middle" x="547.57" y="-524.34" font-family="Times,serif" font-size="14.00">vartypes</text>
</g>
<!-- strutils&#45;&gt;vartypes -->
<g id="edge42" class="edge">
<title>strutils&#45;&gt;vartypes</title>
<path fill="none" stroke="black" d="M119.67,-750.59C182.15,-709.32 330.21,-614.94 464.38,-555.04 476.37,-549.69 489.75,-544.85 502.18,-540.79"/>
<polygon fill="black" stroke="black" points="502.87,-544.24 511.35,-537.88 500.76,-537.56 502.87,-544.24"/>
</g>
<!-- variables -->
<g id="node25" class="node">
<title>variables</title>
<ellipse fill="none" stroke="black" cx="547.57" cy="-474.04" rx="42.49" ry="18"/>
<text text-anchor="middle" x="547.57" y="-470.34" font-family="Times,serif" font-size="14.00">variables</text>
</g>
<!-- strutils&#45;&gt;variables -->
<g id="edge44" class="edge">
<title>strutils&#45;&gt;variables</title>
<path fill="none" stroke="black" d="M113.79,-749.14C171.31,-698.91 320.61,-574.18 464.38,-501.04 475.45,-495.41 487.94,-490.6 499.79,-486.67"/>
<polygon fill="black" stroke="black" points="500.5,-490.11 508.98,-483.76 498.39,-483.44 500.5,-490.11"/>
</g>
<!-- functions -->
<g id="node26" class="node">
<title>functions</title>
<ellipse fill="none" stroke="black" cx="547.57" cy="-366.04" rx="43.59" ry="18"/>
<text text-anchor="middle" x="547.57" y="-362.34" font-family="Times,serif" font-size="14.00">functions</text>
</g>
<!-- strutils&#45;&gt;functions -->
<g id="edge49" class="edge">
<title>strutils&#45;&gt;functions</title>
<path fill="none" stroke="black" d="M110.91,-748.59C187.71,-669.26 443.02,-406.24 464.38,-393.04 474.55,-386.76 486.34,-381.78 497.76,-377.89"/>
<polygon fill="black" stroke="black" points="498.6,-381.29 507.08,-374.95 496.49,-374.62 498.6,-381.29"/>
</g>
<!-- unicodes -->
<g id="node32" class="node">
<title>unicodes</title>
<ellipse fill="none" stroke="black" cx="547.57" cy="-204.04" rx="42.49" ry="18"/>
<text text-anchor="middle" x="547.57" y="-200.34" font-family="Times,serif" font-size="14.00">unicodes</text>
</g>
<!-- strutils&#45;&gt;unicodes -->
<g id="edge56" class="edge">
<title>strutils&#45;&gt;unicodes</title>
<path fill="none" stroke="black" d="M113.11,-748.91C131.43,-731.37 156.81,-705.78 176.38,-681.04 323.73,-494.84 276.71,-376.52 464.38,-231.04 473.92,-223.65 485.56,-218.24 497.05,-214.29"/>
<polygon fill="black" stroke="black" points="497.97,-217.67 506.5,-211.39 495.91,-210.98 497.97,-217.67"/>
</g>
<!-- parseMarkdown -->
<g id="node36" class="node">
<title>parseMarkdown</title>
<ellipse fill="none" stroke="black" cx="547.57" cy="-636.04" rx="68.49" ry="18"/>
<text text-anchor="middle" x="547.57" y="-632.34" font-family="Times,serif" font-size="14.00">parseMarkdown</text>
</g>
<!-- strutils&#45;&gt;parseMarkdown -->
<g id="edge62" class="edge">
<title>strutils&#45;&gt;parseMarkdown</title>
<path fill="none" stroke="black" d="M135.99,-757.23C220.57,-732.26 398.58,-679.72 489.9,-652.77"/>
<polygon fill="black" stroke="black" points="490.81,-656.15 499.41,-649.96 488.83,-649.44 490.81,-656.15"/>
</g>
<!-- replacement -->
<g id="node37" class="node">
<title>replacement</title>
<ellipse fill="none" stroke="black" cx="547.57" cy="-1230.04" rx="53.89" ry="18"/>
<text text-anchor="middle" x="547.57" y="-1226.34" font-family="Times,serif" font-size="14.00">replacement</text>
</g>
<!-- strutils&#45;&gt;replacement -->
<g id="edge67" class="edge">
<title>strutils&#45;&gt;replacement</title>
<path fill="none" stroke="black" d="M106.62,-794.19C167.92,-875.08 374.72,-1143.46 464.38,-1203.04 472.56,-1208.48 481.92,-1212.9 491.33,-1216.47"/>
<polygon fill="black" stroke="black" points="489.89,-1219.67 500.49,-1219.65 492.19,-1213.06 489.89,-1219.67"/>
</g>
<!-- startingvars -->
<g id="node38" class="node">
<title>startingvars</title>
<ellipse fill="none" stroke="black" cx="547.57" cy="-798.04" rx="51.99" ry="18"/>
<text text-anchor="middle" x="547.57" y="-794.34" font-family="Times,serif" font-size="14.00">startingvars</text>
</g>
<!-- strutils&#45;&gt;startingvars -->
<g id="edge70" class="edge">
<title>strutils&#45;&gt;startingvars</title>
<path fill="none" stroke="black" d="M145.73,-774.38C231.94,-779.47 395.62,-789.13 484.83,-794.4"/>
<polygon fill="black" stroke="black" points="484.42,-797.88 494.61,-794.97 484.83,-790.89 484.42,-797.88"/>
</g>
<!-- repl -->
<g id="node41" class="node">
<title>repl</title>
<ellipse fill="none" stroke="black" cx="547.57" cy="-420.04" rx="27" ry="18"/>
<text text-anchor="middle" x="547.57" y="-416.34" font-family="Times,serif" font-size="14.00">repl</text>
</g>
<!-- strutils&#45;&gt;repl -->
<g id="edge78" class="edge">
<title>strutils&#45;&gt;repl</title>
<path fill="none" stroke="black" d="M112.08,-749.14C180.75,-683.77 385.17,-491.86 464.38,-447.04 478.65,-438.97 495.7,-432.87 510.56,-428.53"/>
<polygon fill="black" stroke="black" points="511.24,-431.97 519.95,-425.95 509.38,-425.22 511.24,-431.97"/>
</g>
<!-- options -->
<g id="node3" class="node">
<title>options</title>
<ellipse fill="none" stroke="black" cx="88.19" cy="-648.04" rx="61.54" ry="24.08"/>
<text text-anchor="middle" x="88.19" y="-641.84" font-family="Times,serif" font-size="24.00">options</text>
</g>
<!-- parseCommandLine -->
<g id="node4" class="node">
<title>parseCommandLine</title>
<ellipse fill="none" stroke="black" cx="547.57" cy="-582.04" rx="83.39" ry="18"/>
<text text-anchor="middle" x="547.57" y="-578.34" font-family="Times,serif" font-size="14.00">parseCommandLine</text>
</g>
<!-- options&#45;&gt;parseCommandLine -->
<g id="edge2" class="edge">
<title>options&#45;&gt;parseCommandLine</title>
<path fill="none" stroke="black" d="M146.19,-639.82C226.77,-628.19 374.35,-606.89 466.07,-593.66"/>
<polygon fill="black" stroke="black" points="466.35,-597.15 475.75,-592.26 465.35,-590.23 466.35,-597.15"/>
</g>
<!-- options&#45;&gt;matches -->
<g id="edge14" class="edge">
<title>options&#45;&gt;matches</title>
<path fill="none" stroke="black" d="M143,-659.34C233.31,-678.29 413.86,-716.19 499.46,-734.15"/>
<polygon fill="black" stroke="black" points="498.66,-737.56 509.17,-736.19 500.1,-730.71 498.66,-737.56"/>
</g>
<!-- regexes -->
<g id="node14" class="node">
<title>regexes</title>
<ellipse fill="none" stroke="black" cx="547.57" cy="-150.04" rx="37.89" ry="18"/>
<text text-anchor="middle" x="547.57" y="-146.34" font-family="Times,serif" font-size="14.00">regexes</text>
</g>
<!-- options&#45;&gt;regexes -->
<g id="edge16" class="edge">
<title>options&#45;&gt;regexes</title>
<path fill="none" stroke="black" d="M140.01,-634.88C152.74,-630.02 165.77,-623.54 176.38,-615.04 358.2,-469.37 279.37,-318.64 464.38,-177.04 474.99,-168.92 488.15,-163.19 500.8,-159.16"/>
<polygon fill="black" stroke="black" points="501.61,-162.57 510.27,-156.45 499.69,-155.83 501.61,-162.57"/>
</g>
<!-- options&#45;&gt;processTemplate -->
<g id="edge18" class="edge">
<title>options&#45;&gt;processTemplate</title>
<path fill="none" stroke="black" d="M148.52,-653.49C230.57,-661.02 378.81,-674.64 469.4,-682.95"/>
<polygon fill="black" stroke="black" points="468.91,-686.42 479.19,-683.85 469.55,-679.45 468.91,-686.42"/>
</g>
<!-- options&#45;&gt;env -->
<g id="edge25" class="edge">
<title>options&#45;&gt;env</title>
<path fill="none" stroke="black" d="M118.48,-669.42C179.95,-713.52 328.05,-815.75 464.38,-879.04 479.25,-885.95 496.39,-891.87 511.15,-896.4"/>
<polygon fill="black" stroke="black" points="509.87,-899.67 520.45,-899.15 511.86,-892.96 509.87,-899.67"/>
</g>
<!-- options&#45;&gt;tempFile -->
<g id="edge30" class="edge">
<title>options&#45;&gt;tempFile</title>
<path fill="none" stroke="black" d="M113.94,-670.2C132.47,-687.55 157.72,-712.88 176.38,-738.04 333.51,-949.94 261.06,-1088.96 464.38,-1257.04 473.68,-1264.73 485.24,-1270.25 496.72,-1274.21"/>
<polygon fill="black" stroke="black" points="495.59,-1277.52 506.18,-1277.1 497.64,-1270.83 495.59,-1277.52"/>
</g>
<!-- linebuffer -->
<g id="node21" class="node">
<title>linebuffer</title>
<ellipse fill="none" stroke="black" cx="547.57" cy="-1176.04" rx="45.49" ry="18"/>
<text text-anchor="middle" x="547.57" y="-1172.34" font-family="Times,serif" font-size="14.00">linebuffer</text>
</g>
<!-- options&#45;&gt;linebuffer -->
<g id="edge33" class="edge">
<title>options&#45;&gt;linebuffer</title>
<path fill="none" stroke="black" d="M112.82,-670.41C130.99,-688.08 156.29,-713.72 176.38,-738.04 318.43,-910.01 285.27,-1016.11 464.38,-1149.04 473.52,-1155.82 484.44,-1160.95 495.3,-1164.82"/>
<polygon fill="black" stroke="black" points="494.03,-1168.09 504.62,-1167.81 496.17,-1161.42 494.03,-1168.09"/>
</g>
<!-- parseCmdLine -->
<g id="node22" class="node">
<title>parseCmdLine</title>
<ellipse fill="none" stroke="black" cx="547.57" cy="-312.04" rx="63.09" ry="18"/>
<text text-anchor="middle" x="547.57" y="-308.34" font-family="Times,serif" font-size="14.00">parseCmdLine</text>
</g>
<!-- options&#45;&gt;parseCmdLine -->
<g id="edge34" class="edge">
<title>options&#45;&gt;parseCmdLine</title>
<path fill="none" stroke="black" d="M137.9,-633.54C150.91,-628.63 164.61,-622.47 176.38,-615.04 326.31,-520.42 312.39,-430.31 464.38,-339.04 471.72,-334.63 479.87,-330.85 488.1,-327.63"/>
<polygon fill="black" stroke="black" points="489.28,-330.93 497.49,-324.23 486.89,-324.35 489.28,-330.93"/>
</g>
<!-- options&#45;&gt;runCommand -->
<g id="edge36" class="edge">
<title>options&#45;&gt;runCommand</title>
<path fill="none" stroke="black" d="M111.5,-670.5C179.42,-738.5 383.91,-940.31 464.38,-987.04 472.32,-991.65 481.16,-995.6 490.01,-998.94"/>
<polygon fill="black" stroke="black" points="488.73,-1002.2 499.33,-1002.21 491.05,-995.6 488.73,-1002.2"/>
</g>
<!-- options&#45;&gt;vartypes -->
<g id="edge43" class="edge">
<title>options&#45;&gt;vartypes</title>
<path fill="none" stroke="black" d="M139.89,-634.74C229.7,-611.18 415.38,-562.46 501.23,-539.94"/>
<polygon fill="black" stroke="black" points="501.92,-543.38 510.7,-537.45 500.14,-536.6 501.92,-543.38"/>
</g>
<!-- options&#45;&gt;variables -->
<g id="edge45" class="edge">
<title>options&#45;&gt;variables</title>
<path fill="none" stroke="black" d="M133.6,-631.38C147.33,-626.19 162.49,-620.42 176.38,-615.04 304.76,-565.34 334.93,-547.88 464.38,-501.04 476.49,-496.66 489.71,-492.18 501.94,-488.17"/>
<polygon fill="black" stroke="black" points="502.96,-491.52 511.39,-485.1 500.8,-484.86 502.96,-491.52"/>
</g>
<!-- options&#45;&gt;functions -->
<g id="edge47" class="edge">
<title>options&#45;&gt;functions</title>
<path fill="none" stroke="black" d="M136.94,-632.86C150.08,-627.92 164.09,-621.91 176.38,-615.04 317.49,-536.25 321.56,-468.68 464.38,-393.04 475.04,-387.39 487.11,-382.63 498.64,-378.76"/>
<polygon fill="black" stroke="black" points="499.57,-382.14 508.04,-375.77 497.44,-375.47 499.57,-382.14"/>
</g>
<!-- parseNumber -->
<g id="node29" class="node">
<title>parseNumber</title>
<ellipse fill="none" stroke="black" cx="547.57" cy="-96.04" rx="58.49" ry="18"/>
<text text-anchor="middle" x="547.57" y="-92.34" font-family="Times,serif" font-size="14.00">parseNumber</text>
</g>
<!-- options&#45;&gt;parseNumber -->
<g id="edge53" class="edge">
<title>options&#45;&gt;parseNumber</title>
<path fill="none" stroke="black" d="M140.77,-635.08C153.35,-630.23 166.12,-623.71 176.38,-615.04 369.93,-451.52 267.25,-282.22 464.38,-123.04 471.04,-117.66 478.82,-113.34 486.87,-109.87"/>
<polygon fill="black" stroke="black" points="488.05,-113.16 496.14,-106.32 485.55,-106.63 488.05,-113.16"/>
</g>
<!-- options&#45;&gt;parseMarkdown -->
<g id="edge63" class="edge">
<title>options&#45;&gt;parseMarkdown</title>
<path fill="none" stroke="black" d="M149.93,-646.45C231.84,-644.3 377.82,-640.47 468,-638.1"/>
<polygon fill="black" stroke="black" points="467.84,-641.61 477.75,-637.85 467.66,-634.61 467.84,-641.61"/>
</g>
<!-- options&#45;&gt;replacement -->
<g id="edge64" class="edge">
<title>options&#45;&gt;replacement</title>
<path fill="none" stroke="black" d="M113.6,-670.46C131.94,-687.94 157.12,-713.33 176.38,-738.04 325.82,-929.78 273.36,-1052.69 464.38,-1203.04 471.85,-1208.92 480.64,-1213.54 489.65,-1217.16"/>
<polygon fill="black" stroke="black" points="488.24,-1220.38 498.83,-1220.47 490.61,-1213.79 488.24,-1220.38"/>
</g>
<!-- updateTemplate -->
<g id="node39" class="node">
<title>updateTemplate</title>
<ellipse fill="none" stroke="black" cx="547.57" cy="-960.04" rx="67.69" ry="18"/>
<text text-anchor="middle" x="547.57" y="-956.34" font-family="Times,serif" font-size="14.00">updateTemplate</text>
</g>
<!-- options&#45;&gt;updateTemplate -->
<g id="edge73" class="edge">
<title>options&#45;&gt;updateTemplate</title>
<path fill="none" stroke="black" d="M112.7,-670.48C169.06,-723.19 318.09,-856.23 464.38,-933.04 471.78,-936.93 479.84,-940.4 487.93,-943.45"/>
<polygon fill="black" stroke="black" points="486.51,-946.66 497.1,-946.72 488.86,-940.06 486.51,-946.66"/>
</g>
<!-- options&#45;&gt;repl -->
<g id="edge77" class="edge">
<title>options&#45;&gt;repl</title>
<path fill="none" stroke="black" d="M135.49,-632.15C148.88,-627.12 163.38,-621.24 176.38,-615.04 310.14,-551.26 329.24,-507.84 464.38,-447.04 479.33,-440.31 496.48,-434.41 511.23,-429.86"/>
<polygon fill="black" stroke="black" points="511.94,-433.3 520.52,-427.08 509.94,-426.59 511.94,-433.3"/>
</g>
<!-- tables -->
<g id="node5" class="node">
<title>tables</title>
<ellipse fill="none" stroke="black" cx="88.19" cy="-582.04" rx="50.82" ry="24.08"/>
<text text-anchor="middle" x="88.19" y="-575.84" font-family="Times,serif" font-size="24.00">tables</text>
</g>
<!-- tables&#45;&gt;parseCommandLine -->
<g id="edge3" class="edge">
<title>tables&#45;&gt;parseCommandLine</title>
<path fill="none" stroke="black" d="M139.45,-582.04C214.6,-582.04 357.55,-582.04 452.48,-582.04"/>
<polygon fill="black" stroke="black" points="452.29,-585.54 462.29,-582.04 452.29,-578.54 452.29,-585.54"/>
</g>
<!-- args -->
<g id="node8" class="node">
<title>args</title>
<ellipse fill="none" stroke="black" cx="547.57" cy="-1122.04" rx="27" ry="18"/>
<text text-anchor="middle" x="547.57" y="-1118.34" font-family="Times,serif" font-size="14.00">args</text>
</g>
<!-- tables&#45;&gt;args -->
<g id="edge9" class="edge">
<title>tables&#45;&gt;args</title>
<path fill="none" stroke="black" d="M133.92,-592.61C148.58,-597.65 164.21,-604.87 176.38,-615.04 367.29,-774.57 269.98,-939.79 464.38,-1095.04 477.38,-1105.42 494.52,-1111.88 509.78,-1115.86"/>
<polygon fill="black" stroke="black" points="508.98,-1119.26 519.51,-1118.1 510.55,-1112.44 508.98,-1119.26"/>
</g>
<!-- tables&#45;&gt;cmdline -->
<g id="edge11" class="edge">
<title>tables&#45;&gt;cmdline</title>
<path fill="none" stroke="black" d="M131,-595.29C145.73,-600.62 162.15,-607.34 176.38,-615.04 315.71,-690.42 323.41,-752.77 464.38,-825.04 476.06,-831.03 489.35,-836.08 501.78,-840.13"/>
<polygon fill="black" stroke="black" points="500.39,-843.36 510.98,-842.98 502.46,-836.67 500.39,-843.36"/>
</g>
<!-- tables&#45;&gt;regexes -->
<g id="edge17" class="edge">
<title>tables&#45;&gt;regexes</title>
<path fill="none" stroke="black" d="M124.61,-565.07C141.25,-556.19 160.8,-544.39 176.38,-531.04 330.39,-399.06 297.28,-292 464.38,-177.04 475.39,-169.47 488.67,-163.9 501.31,-159.86"/>
<polygon fill="black" stroke="black" points="502.12,-163.27 510.74,-157.11 500.16,-156.55 502.12,-163.27"/>
</g>
<!-- tables&#45;&gt;processTemplate -->
<g id="edge19" class="edge">
<title>tables&#45;&gt;processTemplate</title>
<path fill="none" stroke="black" d="M134.3,-592.69C216.38,-612.07 390.29,-653.14 483.86,-675.23"/>
<polygon fill="black" stroke="black" points="482.85,-678.59 493.39,-677.48 484.46,-671.78 482.85,-678.59"/>
</g>
<!-- tables&#45;&gt;parseCmdLine -->
<g id="edge35" class="edge">
<title>tables&#45;&gt;parseCmdLine</title>
<path fill="none" stroke="black" d="M121.76,-563.6C138.26,-554.1 158.54,-542.2 176.38,-531.04 306.83,-449.5 326.04,-406.33 464.38,-339.04 472.64,-335.02 481.64,-331.39 490.56,-328.18"/>
<polygon fill="black" stroke="black" points="491.59,-331.52 499.91,-324.96 489.32,-324.9 491.59,-331.52"/>
</g>
<!-- tables&#45;&gt;runCommand -->
<g id="edge38" class="edge">
<title>tables&#45;&gt;runCommand</title>
<path fill="none" stroke="black" d="M133.26,-593.46C147.86,-598.56 163.63,-605.61 176.38,-615.04 344.48,-739.39 293.56,-866.46 464.38,-987.04 471.54,-992.1 479.71,-996.25 488.05,-999.65"/>
<polygon fill="black" stroke="black" points="486.64,-1002.86 497.23,-1003.04 489.06,-996.29 486.64,-1002.86"/>
</g>
<!-- tables&#45;&gt;vartypes -->
<g id="edge41" class="edge">
<title>tables&#45;&gt;vartypes</title>
<path fill="none" stroke="black" d="M137.71,-576.31C225.28,-565.97 408.84,-544.3 497.1,-533.88"/>
<polygon fill="black" stroke="black" points="497.38,-537.37 506.9,-532.73 496.55,-530.42 497.38,-537.37"/>
</g>
<!-- tables&#45;&gt;variables -->
<g id="edge46" class="edge">
<title>tables&#45;&gt;variables</title>
<path fill="none" stroke="black" d="M134.3,-571.39C220.99,-550.92 410.1,-506.27 498.83,-485.32"/>
<polygon fill="black" stroke="black" points="499.5,-488.75 508.42,-483.05 497.89,-481.94 499.5,-488.75"/>
</g>
<!-- tables&#45;&gt;functions -->
<g id="edge48" class="edge">
<title>tables&#45;&gt;functions</title>
<path fill="none" stroke="black" d="M121.79,-563.53C185.96,-527.56 333.79,-447.03 464.38,-393.04 475.96,-388.25 488.73,-383.72 500.68,-379.78"/>
<polygon fill="black" stroke="black" points="501.47,-383.2 509.92,-376.8 499.33,-376.54 501.47,-383.2"/>
</g>
<!-- signatures -->
<g id="node33" class="node">
<title>signatures</title>
<ellipse fill="none" stroke="black" cx="547.57" cy="-258.04" rx="46.29" ry="18"/>
<text text-anchor="middle" x="547.57" y="-254.34" font-family="Times,serif" font-size="14.00">signatures</text>
</g>
<!-- tables&#45;&gt;signatures -->
<g id="edge57" class="edge">
<title>tables&#45;&gt;signatures</title>
<path fill="none" stroke="black" d="M122.76,-564.25C139.34,-555 159.37,-543.13 176.38,-531.04 313.57,-433.49 317.64,-367.54 464.38,-285.04 474.4,-279.41 485.77,-274.73 496.79,-270.94"/>
<polygon fill="black" stroke="black" points="497.74,-274.31 506.19,-267.91 495.59,-267.65 497.74,-274.31"/>
</g>
<!-- readjson -->
<g id="node34" class="node">
<title>readjson</title>
<ellipse fill="none" stroke="black" cx="547.57" cy="-1338.04" rx="40.09" ry="18"/>
<text text-anchor="middle" x="547.57" y="-1334.34" font-family="Times,serif" font-size="14.00">readjson</text>
</g>
<!-- tables&#45;&gt;readjson -->
<g id="edge61" class="edge">
<title>tables&#45;&gt;readjson</title>
<path fill="none" stroke="black" d="M135.27,-591.77C149.86,-596.73 165.11,-604.11 176.38,-615.04 416.68,-848.12 218.96,-1083.36 464.38,-1311.04 473.74,-1319.72 485.94,-1325.62 498.07,-1329.62"/>
<polygon fill="black" stroke="black" points="497.07,-1332.97 507.65,-1332.36 499,-1326.24 497.07,-1332.97"/>
</g>
<!-- tables&#45;&gt;startingvars -->
<g id="edge69" class="edge">
<title>tables&#45;&gt;startingvars</title>
<path fill="none" stroke="black" d="M130.03,-596.2C144.81,-601.67 161.52,-608.24 176.38,-615.04 308.75,-675.61 330.7,-713.43 464.38,-771.04 474.41,-775.37 485.38,-779.41 495.94,-782.99"/>
<polygon fill="black" stroke="black" points="494.71,-786.27 505.3,-786.07 496.9,-779.62 494.71,-786.27"/>
</g>
<!-- tables&#45;&gt;updateTemplate -->
<g id="edge74" class="edge">
<title>tables&#45;&gt;updateTemplate</title>
<path fill="none" stroke="black" d="M132.85,-594.03C147.43,-599.18 163.27,-606.11 176.38,-615.04 333.93,-722.45 304.48,-829.16 464.38,-933.04 470.89,-937.27 478.11,-940.89 485.51,-943.98"/>
<polygon fill="black" stroke="black" points="484,-947.15 494.6,-947.45 486.5,-940.61 484,-947.15"/>
</g>
<!-- tables&#45;&gt;repl -->
<g id="edge76" class="edge">
<title>tables&#45;&gt;repl</title>
<path fill="none" stroke="black" d="M129.04,-567.29C197.43,-542.06 341.65,-489.27 464.38,-447.04 480,-441.67 497.37,-435.93 512.1,-431.13"/>
<polygon fill="black" stroke="black" points="512.9,-434.55 521.34,-428.13 510.74,-427.89 512.9,-434.55"/>
</g>
<!-- os -->
<g id="node6" class="node">
<title>os</title>
<ellipse fill="none" stroke="black" cx="88.19" cy="-933.04" rx="27" ry="24.08"/>
<text text-anchor="middle" x="88.19" y="-926.84" font-family="Times,serif" font-size="24.00">os</text>
</g>
<!-- os&#45;&gt;statictea -->
<g id="edge81" class="edge">
<title>os&#45;&gt;statictea</title>
<path fill="none" stroke="black" d="M114.11,-940.4C188.27,-962.29 408.28,-1027.22 502.71,-1055.1"/>
<polygon fill="black" stroke="black" points="501.56,-1058.4 512.14,-1057.88 503.54,-1051.69 501.56,-1058.4"/>
</g>
<!-- os&#45;&gt;parseCommandLine -->
<g id="edge4" class="edge">
<title>os&#45;&gt;parseCommandLine</title>
<path fill="none" stroke="black" d="M105.59,-914.43C154.66,-859.81 306.7,-698.25 464.38,-609.04 470.3,-605.69 476.7,-602.68 483.22,-600"/>
<polygon fill="black" stroke="black" points="484.02,-603.44 492.1,-596.59 481.51,-596.91 484.02,-603.44"/>
</g>
<!-- os&#45;&gt;cmdline -->
<g id="edge10" class="edge">
<title>os&#45;&gt;cmdline</title>
<path fill="none" stroke="black" d="M115.09,-928.45C189.18,-915.33 402.81,-877.5 498.83,-860.5"/>
<polygon fill="black" stroke="black" points="499.21,-863.98 508.45,-858.79 497.99,-857.09 499.21,-863.98"/>
</g>
<!-- os&#45;&gt;env -->
<g id="edge23" class="edge">
<title>os&#45;&gt;env</title>
<path fill="none" stroke="black" d="M115.42,-931.49C192.63,-926.94 419.26,-913.56 509.19,-908.25"/>
<polygon fill="black" stroke="black" points="509.16,-911.76 518.93,-907.67 508.75,-904.77 509.16,-911.76"/>
</g>
<!-- os&#45;&gt;tempFile -->
<g id="edge27" class="edge">
<title>os&#45;&gt;tempFile</title>
<path fill="none" stroke="black" d="M105.59,-951.65C154.66,-1006.27 306.7,-1167.84 464.38,-1257.04 475.19,-1263.16 487.59,-1268.14 499.43,-1272.08"/>
<polygon fill="black" stroke="black" points="498.05,-1275.32 508.64,-1274.96 500.14,-1268.63 498.05,-1275.32"/>
</g>
<!-- os&#45;&gt;runCommand -->
<g id="edge39" class="edge">
<title>os&#45;&gt;runCommand</title>
<path fill="none" stroke="black" d="M115.09,-937.63C185.6,-950.12 382.49,-984.98 484.12,-1002.98"/>
<polygon fill="black" stroke="black" points="483.48,-1006.42 493.94,-1004.72 484.71,-999.53 483.48,-1006.42"/>
</g>
<!-- os&#45;&gt;functions -->
<g id="edge51" class="edge">
<title>os&#45;&gt;functions</title>
<path fill="none" stroke="black" d="M103.13,-912.61C169.57,-815.24 451.47,-402.67 464.38,-393.04 473.87,-385.97 485.31,-380.69 496.6,-376.77"/>
<polygon fill="black" stroke="black" points="497.36,-380.2 505.86,-373.87 495.27,-373.52 497.36,-380.2"/>
</g>
<!-- os&#45;&gt;readjson -->
<g id="edge59" class="edge">
<title>os&#45;&gt;readjson</title>
<path fill="none" stroke="black" d="M103.53,-953.13C149.05,-1015.5 297.21,-1207.8 464.38,-1311.04 475.24,-1317.75 487.95,-1322.98 500.08,-1326.97"/>
<polygon fill="black" stroke="black" points="498.96,-1330.29 509.54,-1329.86 501,-1323.59 498.96,-1330.29"/>
</g>
<!-- os&#45;&gt;startingvars -->
<g id="edge68" class="edge">
<title>os&#45;&gt;startingvars</title>
<path fill="none" stroke="black" d="M114.11,-925.69C186.62,-904.28 398.6,-841.72 496.25,-812.89"/>
<polygon fill="black" stroke="black" points="496.97,-816.33 505.57,-810.15 494.98,-809.62 496.97,-816.33"/>
</g>
<!-- os&#45;&gt;updateTemplate -->
<g id="edge72" class="edge">
<title>os&#45;&gt;updateTemplate</title>
<path fill="none" stroke="black" d="M115.42,-934.59C183.03,-938.58 365.2,-949.33 469.84,-955.51"/>
<polygon fill="black" stroke="black" points="469.57,-959 479.76,-956.1 469.98,-952.01 469.57,-959"/>
</g>
<!-- strformat -->
<g id="node7" class="node">
<title>strformat</title>
<ellipse fill="none" stroke="black" cx="88.19" cy="-1200.04" rx="74.49" ry="24.08"/>
<text text-anchor="middle" x="88.19" y="-1193.84" font-family="Times,serif" font-size="24.00">strformat</text>
</g>
<!-- strformat&#45;&gt;args -->
<g id="edge5" class="edge">
<title>strformat&#45;&gt;args</title>
<path fill="none" stroke="black" d="M154.72,-1188.87C252.34,-1172.22 432.73,-1141.46 509.95,-1128.29"/>
<polygon fill="black" stroke="black" points="510.24,-1131.79 519.51,-1126.66 509.06,-1124.89 510.24,-1131.79"/>
</g>
<!-- strformat&#45;&gt;messages -->
<g id="edge8" class="edge">
<title>strformat&#45;&gt;messages</title>
<path fill="none" stroke="black" d="M138.76,-1218.14C151.11,-1222.83 164.28,-1227.99 176.38,-1233.04 306.3,-1287.33 333.29,-1313.66 464.38,-1365.04 475.94,-1369.57 488.61,-1374 500.47,-1377.9"/>
<polygon fill="black" stroke="black" points="499.03,-1381.12 509.63,-1380.87 501.19,-1374.46 499.03,-1381.12"/>
</g>
<!-- strformat&#45;&gt;replacement -->
<g id="edge66" class="edge">
<title>strformat&#45;&gt;replacement</title>
<path fill="none" stroke="black" d="M161.66,-1204.8C250.2,-1210.6 398.56,-1220.33 482.89,-1225.86"/>
<polygon fill="black" stroke="black" points="482.64,-1229.36 492.85,-1226.52 483.1,-1222.37 482.64,-1229.36"/>
</g>
<!-- macros -->
<g id="node9" class="node">
<title>macros</title>
<polygon fill="palegreen" stroke="black" points="153.84,-1417.25 153.84,-1438.83 115.39,-1454.08 61,-1454.08 22.54,-1438.83 22.54,-1417.25 61,-1402 115.39,-1402 153.84,-1417.25"/>
<polygon fill="none" stroke="black" points="157.83,-1414.53 157.83,-1441.55 116.15,-1458.09 60.24,-1458.09 18.55,-1441.55 18.55,-1414.53 60.24,-1398 116.15,-1398 157.83,-1414.53"/>
<text text-anchor="middle" x="88.19" y="-1421.84" font-family="Times,serif" font-size="24.00">macros</text>
</g>
<!-- macros&#45;&gt;messages -->
<g id="edge6" class="edge">
<title>macros&#45;&gt;messages</title>
<path fill="none" stroke="black" d="M158.16,-1422.61C249.57,-1415.42 408.97,-1402.87 492.3,-1396.31"/>
<polygon fill="black" stroke="black" points="492.34,-1399.82 502.03,-1395.55 491.79,-1392.84 492.34,-1399.82"/>
</g>
<!-- re -->
<g id="node13" class="node">
<title>re</title>
<polygon fill="palegreen" stroke="black" points="115.19,-163.25 115.19,-184.83 99.37,-200.08 77.01,-200.08 61.19,-184.83 61.19,-163.25 77.01,-148 99.37,-148 115.19,-163.25"/>
<polygon fill="none" stroke="black" points="119.19,-161.55 119.19,-186.53 100.99,-204.09 75.39,-204.09 57.19,-186.53 57.19,-161.55 75.39,-144 100.99,-144 119.19,-161.55"/>
<text text-anchor="middle" x="88.19" y="-167.84" font-family="Times,serif" font-size="24.00">re</text>
</g>
<!-- re&#45;&gt;regexes -->
<g id="edge15" class="edge">
<title>re&#45;&gt;regexes</title>
<path fill="none" stroke="black" d="M119.55,-172.45C197.24,-168.37 403.71,-157.54 498.17,-152.58"/>
<polygon fill="black" stroke="black" points="498.35,-156.08 508.15,-152.06 497.98,-149.09 498.35,-156.08"/>
</g>
<!-- streams -->
<g id="node16" class="node">
<title>streams</title>
<ellipse fill="none" stroke="black" cx="88.19" cy="-1080.04" rx="62.87" ry="24.08"/>
<text text-anchor="middle" x="88.19" y="-1073.84" font-family="Times,serif" font-size="24.00">streams</text>
</g>
<!-- streams&#45;&gt;processTemplate -->
<g id="edge21" class="edge">
<title>streams&#45;&gt;processTemplate</title>
<path fill="none" stroke="black" d="M106.79,-1056.82C156.18,-993.21 302.99,-814.47 464.38,-717.04 471.02,-713.03 478.33,-709.54 485.77,-706.52"/>
<polygon fill="black" stroke="black" points="486.76,-709.89 494.89,-703.1 484.3,-703.34 486.76,-709.89"/>
</g>
<!-- streams&#45;&gt;env -->
<g id="edge22" class="edge">
<title>streams&#45;&gt;env</title>
<path fill="none" stroke="black" d="M131.94,-1062.39C201.28,-1033.96 342.77,-976.8 464.38,-933.04 479.92,-927.45 497.28,-921.68 512.02,-916.92"/>
<polygon fill="black" stroke="black" points="512.82,-920.34 521.27,-913.95 510.68,-913.67 512.82,-920.34"/>
</g>
<!-- streams&#45;&gt;tempFile -->
<g id="edge31" class="edge">
<title>streams&#45;&gt;tempFile</title>
<path fill="none" stroke="black" d="M126.59,-1099.58C193.31,-1134.01 337.76,-1206.6 464.38,-1257.04 476.24,-1261.77 489.28,-1266.33 501.42,-1270.32"/>
<polygon fill="black" stroke="black" points="500.21,-1273.61 510.8,-1273.34 502.36,-1266.94 500.21,-1273.61"/>
</g>
<!-- streams&#45;&gt;linebuffer -->
<g id="edge32" class="edge">
<title>streams&#45;&gt;linebuffer</title>
<path fill="none" stroke="black" d="M143.91,-1091.53C233.2,-1110.27 408.98,-1147.16 495.72,-1165.37"/>
<polygon fill="black" stroke="black" points="494.86,-1168.76 505.36,-1167.39 496.29,-1161.91 494.86,-1168.76"/>
</g>
<!-- streams&#45;&gt;runCommand -->
<g id="edge40" class="edge">
<title>streams&#45;&gt;runCommand</title>
<path fill="none" stroke="black" d="M147.58,-1071.62C233.29,-1059.25 392.63,-1036.25 481.83,-1023.38"/>
<polygon fill="black" stroke="black" points="482.24,-1026.86 491.64,-1021.97 481.24,-1019.93 482.24,-1026.86"/>
</g>
<!-- streams&#45;&gt;readjson -->
<g id="edge58" class="edge">
<title>streams&#45;&gt;readjson</title>
<path fill="none" stroke="black" d="M118.48,-1101.42C179.95,-1145.52 328.05,-1247.75 464.38,-1311.04 476.29,-1316.57 489.64,-1321.47 502.07,-1325.53"/>
<polygon fill="black" stroke="black" points="500.66,-1328.75 511.25,-1328.42 502.76,-1322.07 500.66,-1328.75"/>
</g>
<!-- streams&#45;&gt;replacement -->
<g id="edge65" class="edge">
<title>streams&#45;&gt;replacement</title>
<path fill="none" stroke="black" d="M136.84,-1095.67C224.17,-1124.31 408.99,-1184.92 497.42,-1213.92"/>
<polygon fill="black" stroke="black" points="496.19,-1217.2 506.79,-1216.99 498.37,-1210.55 496.19,-1217.2"/>
</g>
<!-- streams&#45;&gt;updateTemplate -->
<g id="edge71" class="edge">
<title>streams&#45;&gt;updateTemplate</title>
<path fill="none" stroke="black" d="M140.77,-1066.51C226.33,-1044.06 397.11,-999.25 487.42,-975.56"/>
<polygon fill="black" stroke="black" points="488.05,-979.02 496.83,-973.09 486.27,-972.24 488.05,-979.02"/>
</g>
<!-- times -->
<g id="node18" class="node">
<title>times</title>
<ellipse fill="none" stroke="red" cx="88.19" cy="-420.04" rx="48.17" ry="24.08"/>
<text text-anchor="middle" x="88.19" y="-413.84" font-family="Times,serif" font-size="24.00">times</text>
</g>
<!-- times&#45;&gt;env -->
<g id="edge24" class="edge">
<title>times&#45;&gt;env</title>
<path fill="none" stroke="red" d="M131.83,-430.38C146.96,-435.48 163.43,-442.8 176.38,-453.04 355.65,-594.8 282.01,-741.3 464.38,-879.04 477.56,-889 494.58,-895.38 509.72,-899.43"/>
<polygon fill="red" stroke="red" points="508.81,-902.81 519.35,-901.73 510.44,-896 508.81,-902.81"/>
</g>
<!-- timer -->
<g id="node42" class="node">
<title>timer</title>
<ellipse fill="none" stroke="black" cx="547.57" cy="-33.04" rx="29.8" ry="18"/>
<text text-anchor="middle" x="547.57" y="-29.34" font-family="Times,serif" font-size="14.00">timer</text>
</g>
<!-- times&#45;&gt;timer -->
<g id="edge79" class="edge">
<title>times&#45;&gt;timer</title>
<path fill="none" stroke="red" d="M131.08,-408.68C146.13,-403.47 162.74,-396.34 176.38,-387.04 333.93,-279.64 309.62,-180.43 464.38,-69.04 478.22,-59.08 495.25,-51.06 510.21,-45.14"/>
<polygon fill="red" stroke="red" points="511.12,-48.53 519.24,-41.73 508.65,-41.98 511.12,-48.53"/>
</g>
<!-- random -->
<g id="node20" class="node">
<title>random</title>
<polygon fill="palegreen" stroke="black" points="156.96,-1261.25 156.96,-1282.83 116.68,-1298.08 59.7,-1298.08 19.42,-1282.83 19.42,-1261.25 59.7,-1246 116.68,-1246 156.96,-1261.25"/>
<polygon fill="none" stroke="black" points="160.96,-1258.49 160.96,-1285.6 117.41,-1302.09 58.97,-1302.09 15.42,-1285.6 15.42,-1258.49 58.97,-1242 117.41,-1242 160.96,-1258.49"/>
<text text-anchor="middle" x="88.19" y="-1265.84" font-family="Times,serif" font-size="24.00">random</text>
</g>
<!-- random&#45;&gt;tempFile -->
<g id="edge28" class="edge">
<title>random&#45;&gt;tempFile</title>
<path fill="none" stroke="black" d="M161.41,-1273.94C253.76,-1276.36 411.51,-1280.5 493.53,-1282.65"/>
<polygon fill="black" stroke="black" points="493.22,-1286.14 503.31,-1282.91 493.4,-1279.15 493.22,-1286.14"/>
</g>
<!-- math -->
<g id="node27" class="node">
<title>math</title>
<ellipse fill="none" stroke="red" cx="88.19" cy="-24.04" rx="45.92" ry="24.08"/>
<text text-anchor="middle" x="88.19" y="-17.84" font-family="Times,serif" font-size="24.00">math</text>
</g>
<!-- math&#45;&gt;functions -->
<g id="edge50" class="edge">
<title>math&#45;&gt;functions</title>
<path fill="none" stroke="red" d="M129.02,-35.24C144.49,-40.56 161.92,-47.81 176.38,-57.04 327.36,-153.46 311.3,-246 464.38,-339.04 474.59,-345.25 486.4,-350.21 497.82,-354.09"/>
<polygon fill="red" stroke="red" points="496.55,-357.36 507.14,-357.04 498.66,-350.69 496.55,-357.36"/>
</g>
<!-- math&#45;&gt;timer -->
<g id="edge80" class="edge">
<title>math&#45;&gt;timer</title>
<path fill="none" stroke="red" d="M134.3,-24.93C223.41,-26.68 420.77,-30.57 506.03,-32.24"/>
<polygon fill="red" stroke="red" points="505.72,-35.74 515.78,-32.44 505.86,-28.74 505.72,-35.74"/>
</g>
<!-- algorithm -->
<g id="node28" class="node">
<title>algorithm</title>
<polygon fill="palegreen" stroke="black" points="172.56,-337.25 172.56,-358.83 123.14,-374.08 53.24,-374.08 3.82,-358.83 3.82,-337.25 53.24,-322 123.14,-322 172.56,-337.25"/>
<polygon fill="none" stroke="black" points="176.57,-334.3 176.57,-361.78 123.74,-378.09 52.64,-378.09 -0.19,-361.78 -0.19,-334.3 52.64,-318 123.74,-318 176.57,-334.3"/>
<text text-anchor="middle" x="88.19" y="-341.84" font-family="Times,serif" font-size="24.00">algorithm</text>
</g>
<!-- algorithm&#45;&gt;functions -->
<g id="edge52" class="edge">
<title>algorithm&#45;&gt;functions</title>
<path fill="none" stroke="black" d="M176.84,-351.49C269.98,-355.16 414.32,-360.84 492.25,-363.9"/>
<polygon fill="black" stroke="black" points="492.06,-367.4 502.19,-364.3 492.34,-360.4 492.06,-367.4"/>
</g>
<!-- parseutils -->
<g id="node30" class="node">
<title>parseutils</title>
<polygon fill="palegreen" stroke="black" points="171,-85.25 171,-106.83 122.49,-122.08 53.89,-122.08 5.38,-106.83 5.38,-85.25 53.89,-70 122.49,-70 171,-85.25"/>
<polygon fill="none" stroke="black" points="175.01,-82.32 175.01,-109.77 123.11,-126.09 53.27,-126.09 1.37,-109.77 1.37,-82.32 53.27,-66 123.11,-66 175.01,-82.32"/>
<text text-anchor="middle" x="88.19" y="-89.84" font-family="Times,serif" font-size="24.00">parseutils</text>
</g>
<!-- parseutils&#45;&gt;parseNumber -->
<g id="edge54" class="edge">
<title>parseutils&#45;&gt;parseNumber</title>
<path fill="none" stroke="black" d="M175.49,-96.04C263.14,-96.04 397.14,-96.04 477.86,-96.04"/>
<polygon fill="black" stroke="black" points="477.37,-99.54 487.37,-96.04 477.37,-92.54 477.37,-99.54"/>
</g>
<!-- unicode -->
<g id="node31" class="node">
<title>unicode</title>
<polygon fill="palegreen" stroke="black" points="158.52,-241.25 158.52,-262.83 117.32,-278.08 59.06,-278.08 17.86,-262.83 17.86,-241.25 59.06,-226 117.32,-226 158.52,-241.25"/>
<polygon fill="none" stroke="black" points="162.52,-238.47 162.52,-265.62 118.04,-282.09 58.34,-282.09 13.86,-265.62 13.86,-238.47 58.34,-222 118.04,-222 162.52,-238.47"/>
<text text-anchor="middle" x="88.19" y="-245.84" font-family="Times,serif" font-size="24.00">unicode</text>
</g>
<!-- unicode&#45;&gt;unicodes -->
<g id="edge55" class="edge">
<title>unicode&#45;&gt;unicodes</title>
<path fill="none" stroke="black" d="M162.93,-244.3C255.89,-234.55 413.35,-218.02 494.61,-209.5"/>
<polygon fill="black" stroke="black" points="494.94,-212.98 504.52,-208.45 494.21,-206.02 494.94,-212.98"/>
</g>
<!-- json -->
<g id="node35" class="node">
<title>json</title>
<polygon fill="palegreen" stroke="black" points="130.92,-1339.25 130.92,-1360.83 105.89,-1376.08 70.49,-1376.08 45.46,-1360.83 45.46,-1339.25 70.49,-1324 105.89,-1324 130.92,-1339.25"/>
<polygon fill="none" stroke="black" points="134.91,-1337 134.91,-1363.08 107.01,-1380.09 69.37,-1380.09 41.47,-1363.08 41.47,-1337 69.37,-1320 107.01,-1320 134.91,-1337"/>
<text text-anchor="middle" x="88.19" y="-1343.84" font-family="Times,serif" font-size="24.00">json</text>
</g>
<!-- json&#45;&gt;readjson -->
<g id="edge60" class="edge">
<title>json&#45;&gt;readjson</title>
<path fill="none" stroke="black" d="M135.14,-1348.84C221.21,-1346.58 406.1,-1341.73 495.76,-1339.37"/>
<polygon fill="black" stroke="black" points="495.82,-1342.87 505.73,-1339.11 495.64,-1335.88 495.82,-1342.87"/>
</g>
<!-- rdstdin -->
<g id="node40" class="node">
<title>rdstdin</title>
<polygon fill="palegreen" stroke="black" points="151.74,-481.25 151.74,-502.83 114.51,-518.08 61.87,-518.08 24.64,-502.83 24.64,-481.25 61.87,-466 114.51,-466 151.74,-481.25"/>
<polygon fill="none" stroke="black" points="155.74,-478.57 155.74,-505.51 115.3,-522.09 61.08,-522.09 20.64,-505.51 20.64,-478.57 61.08,-462 115.3,-462 155.74,-478.57"/>
<text text-anchor="middle" x="88.19" y="-485.84" font-family="Times,serif" font-size="24.00">rdstdin</text>
</g>
<!-- rdstdin&#45;&gt;repl -->
<g id="edge75" class="edge">
<title>rdstdin&#45;&gt;repl</title>
<path fill="none" stroke="black" d="M156.19,-481.5C254.13,-466.08 433.1,-437.9 509.93,-425.81"/>
<polygon fill="black" stroke="black" points="510.11,-429.33 519.44,-424.31 509.02,-422.41 510.11,-429.33"/>
</g>
</g>
</svg>
