<?xml version="1.0" encoding="UTF-8" standalone="no"?>
<!DOCTYPE svg PUBLIC "-//W3C//DTD SVG 1.1//EN"
 "http://www.w3.org/Graphics/SVG/1.1/DTD/svg11.dtd">
<!-- Generated by graphviz version 7.0.1 (20221109.1506)
 -->
<!-- Title: statictea Pages: 1 -->
<svg width="3300pt" height="1655pt"
 viewBox="0.00 0.00 3300.24 1654.78" xmlns="http://www.w3.org/2000/svg" xmlns:xlink="http://www.w3.org/1999/xlink">
<g id="graph0" class="graph" transform="scale(1 1) rotate(0) translate(4 1650.78)">
<title>statictea</title>
<polygon fill="white" stroke="none" points="-4,4 -4,-1650.78 3296.24,-1650.78 3296.24,4 -4,4"/>
<!-- args -->
<g id="node1" class="node">
<title>args</title>
<g id="a_node1"><a xlink:href="args.md" xlink:title="args.md">
<ellipse fill="palegoldenrod" stroke="black" cx="546.2" cy="-629" rx="39.7" ry="24.08"/>
<text text-anchor="middle" x="546.2" y="-622.8" font-family="Times,serif" font-size="24.00">args</text>
</a>
</g>
</g>
<!-- messages -->
<g id="node9" class="node">
<title>messages</title>
<g id="a_node9"><a xlink:href="messages.md" xlink:title="messages.md">
<polygon fill="palegreen" stroke="black" points="1941.38,-42.69 1941.38,-73.31 1873.32,-94.95 1777.08,-94.95 1709.02,-73.31 1709.02,-42.69 1777.08,-21.05 1873.32,-21.05 1941.38,-42.69"/>
<polygon fill="none" stroke="black" points="1945.37,-39.74 1945.37,-76.26 1873.94,-98.98 1776.46,-98.98 1705.03,-76.26 1705.03,-39.74 1776.46,-17.02 1873.94,-17.02 1945.37,-39.74"/>
<text text-anchor="middle" x="1825.2" y="-49.2" font-family="Times,serif" font-size="36.00">messages</text>
</a>
</g>
</g>
<!-- args&#45;&gt;messages -->
<g id="edge1" class="edge">
<title>args&#45;&gt;messages</title>
<path fill="none" stroke="black" d="M548.98,-604.54C559.39,-528.11 603.51,-284.97 753.2,-176.96 828.04,-122.95 1423.5,-82.17 1693.23,-66.27"/>
<polygon fill="black" stroke="black" points="1693.36,-69.77 1703.14,-65.69 1692.95,-62.78 1693.36,-69.77"/>
</g>
<!-- opresult -->
<g id="node10" class="node">
<title>opresult</title>
<g id="a_node10"><a xlink:href="opresult.md" xlink:title="opresult.md">
<ellipse fill="palegoldenrod" stroke="black" cx="1522.2" cy="-201" rx="66.44" ry="24.08"/>
<text text-anchor="middle" x="1522.2" y="-194.8" font-family="Times,serif" font-size="24.00">opresult</text>
</a>
</g>
</g>
<!-- args&#45;&gt;opresult -->
<g id="edge3" class="edge">
<title>args&#45;&gt;opresult</title>
<path fill="none" stroke="black" d="M570.63,-609.61C626.66,-567.39 768.62,-460.13 886.2,-368.94 924.68,-339.1 927.8,-321.06 972.2,-301.06 1130.05,-229.96 1335.06,-209.85 1444.8,-204.19"/>
<polygon fill="black" stroke="black" points="1444.75,-207.7 1454.57,-203.72 1444.41,-200.7 1444.75,-207.7"/>
</g>
<!-- cmdline -->
<g id="node2" class="node">
<title>cmdline</title>
<g id="a_node2"><a xlink:href="cmdline.md" xlink:title="cmdline.md">
<polygon fill="palegreen" stroke="black" points="249.24,-613.69 249.24,-644.31 190.64,-665.95 107.76,-665.95 49.16,-644.31 49.16,-613.69 107.76,-592.05 190.64,-592.05 249.24,-613.69"/>
<polygon fill="none" stroke="black" points="253.23,-610.88 253.23,-647.12 191.34,-669.98 107.06,-669.98 45.17,-647.12 45.17,-610.88 107.06,-588.02 191.34,-588.02 253.23,-610.88"/>
<text text-anchor="middle" x="149.2" y="-620.2" font-family="Times,serif" font-size="36.00">cmdline</text>
</a>
</g>
</g>
<!-- comparelines -->
<g id="node3" class="node">
<title>comparelines</title>
<g id="a_node3"><a xlink:href="comparelines.md" xlink:title="comparelines.md">
<polygon fill="palegreen" stroke="black" points="1725.62,-1549.21 1725.62,-1570.79 1660.94,-1586.04 1569.46,-1586.04 1504.78,-1570.79 1504.78,-1549.21 1569.46,-1533.96 1660.94,-1533.96 1725.62,-1549.21"/>
<polygon fill="none" stroke="black" points="1729.63,-1546.05 1729.63,-1573.95 1661.4,-1590.04 1569,-1590.04 1500.77,-1573.95 1500.77,-1546.05 1569,-1529.96 1661.4,-1529.96 1729.63,-1546.05"/>
<text text-anchor="middle" x="1615.2" y="-1553.8" font-family="Times,serif" font-size="24.00">comparelines</text>
</a>
</g>
</g>
<!-- env -->
<g id="node4" class="node">
<title>env</title>
<g id="a_node4"><a xlink:href="env.md" xlink:title="env.md">
<ellipse fill="palegoldenrod" stroke="black" cx="694.2" cy="-839" rx="36.12" ry="24.08"/>
<text text-anchor="middle" x="694.2" y="-832.8" font-family="Times,serif" font-size="24.00">env</text>
</a>
</g>
</g>
<!-- env&#45;&gt;messages -->
<g id="edge13" class="edge">
<title>env&#45;&gt;messages</title>
<path fill="none" stroke="black" d="M681.97,-816.04C659.35,-772.67 614.87,-672.88 633.2,-588.26 675.72,-392.01 658,-295.34 820.2,-176.96 956.39,-77.56 1453.38,-60.9 1693.54,-58.79"/>
<polygon fill="black" stroke="black" points="1693.29,-62.29 1703.26,-58.71 1693.23,-55.29 1693.29,-62.29"/>
</g>
<!-- tempFile -->
<g id="node24" class="node">
<title>tempFile</title>
<g id="a_node24"><a xlink:href="tempFile.md" xlink:title="tempFile.md">
<polygon fill="palegreen" stroke="black" points="802.33,-618.21 802.33,-639.79 756.56,-655.04 691.84,-655.04 646.07,-639.79 646.07,-618.21 691.84,-602.96 756.56,-602.96 802.33,-618.21"/>
<polygon fill="none" stroke="black" points="806.33,-615.33 806.33,-642.67 757.21,-659.04 691.19,-659.04 642.06,-642.67 642.06,-615.33 691.19,-598.96 757.21,-598.96 806.33,-615.33"/>
<text text-anchor="middle" x="724.2" y="-622.8" font-family="Times,serif" font-size="24.00">tempFile</text>
</a>
</g>
</g>
<!-- env&#45;&gt;tempFile -->
<g id="edge12" class="edge">
<title>env&#45;&gt;tempFile</title>
<path fill="none" stroke="black" d="M697.58,-814.54C702.62,-779.61 712.17,-713.42 718.35,-670.54"/>
<polygon fill="black" stroke="black" points="721.78,-671.27 719.75,-660.87 714.86,-670.27 721.78,-671.27"/>
</g>
<!-- functions -->
<g id="node5" class="node">
<title>functions</title>
<g id="a_node5"><a xlink:href="functions.md" xlink:title="functions.md">
<ellipse fill="palegoldenrod" stroke="black" cx="2065.2" cy="-839" rx="232.78" ry="70.92"/>
<text text-anchor="middle" x="2065.2" y="-817.8" font-family="Times,serif" font-size="84.00">functions</text>
</a>
</g>
</g>
<!-- matches -->
<g id="node8" class="node">
<title>matches</title>
<g id="a_node8"><a xlink:href="matches.md" xlink:title="matches.md">
<ellipse fill="palegoldenrod" stroke="black" cx="1329.2" cy="-629" rx="67.35" ry="24.08"/>
<text text-anchor="middle" x="1329.2" y="-622.8" font-family="Times,serif" font-size="24.00">matches</text>
</a>
</g>
</g>
<!-- functions&#45;&gt;matches -->
<g id="edge39" class="edge">
<title>functions&#45;&gt;matches</title>
<path fill="none" stroke="black" d="M1895.42,-790.02C1734.94,-744.67 1502.78,-679.05 1392.26,-647.82"/>
<polygon fill="black" stroke="black" points="1393.34,-644.49 1382.77,-645.14 1391.44,-651.23 1393.34,-644.49"/>
</g>
<!-- functions&#45;&gt;messages -->
<g id="edge35" class="edge">
<title>functions&#45;&gt;messages</title>
<path fill="none" stroke="black" d="M2200.88,-780.97C2307.66,-727.7 2448.27,-636.8 2509.2,-507.02 2520.54,-482.87 2520.13,-471.32 2509.2,-446.98 2409.09,-223.9 2114.26,-123.06 1946.18,-82.61"/>
<polygon fill="black" stroke="black" points="1947.05,-79.22 1936.52,-80.32 1945.44,-86.03 1947.05,-79.22"/>
</g>
<!-- functions&#45;&gt;opresult -->
<g id="edge48" class="edge">
<title>functions&#45;&gt;opresult</title>
<path fill="none" stroke="black" d="M1937.23,-779.51C1886.07,-751.6 1829.41,-714.46 1787.2,-669.74 1659.97,-534.93 1689.22,-459.01 1592.2,-301.06 1577.96,-277.88 1560.27,-252.87 1546.23,-233.78"/>
<polygon fill="black" stroke="black" points="1549.13,-231.82 1540.37,-225.87 1543.51,-235.98 1549.13,-231.82"/>
</g>
<!-- parseNumber -->
<g id="node13" class="node">
<title>parseNumber</title>
<g id="a_node13"><a xlink:href="parseNumber.md" xlink:title="parseNumber.md">
<polygon fill="palegreen" stroke="black" points="2218.18,-618.21 2218.18,-639.79 2152.58,-655.04 2059.82,-655.04 1994.22,-639.79 1994.22,-618.21 2059.82,-602.96 2152.58,-602.96 2218.18,-618.21"/>
<polygon fill="none" stroke="black" points="2222.19,-615.04 2222.19,-642.96 2153.04,-659.04 2059.36,-659.04 1990.21,-642.96 1990.21,-615.04 2059.36,-598.96 2153.04,-598.96 2222.19,-615.04"/>
<text text-anchor="middle" x="2106.2" y="-622.8" font-family="Times,serif" font-size="24.00">parseNumber</text>
</a>
</g>
</g>
<!-- functions&#45;&gt;parseNumber -->
<g id="edge38" class="edge">
<title>functions&#45;&gt;parseNumber</title>
<path fill="none" stroke="black" d="M2079.02,-767.87C2085.41,-735.47 2092.77,-698.14 2098.22,-670.5"/>
<polygon fill="black" stroke="black" points="2101.63,-671.27 2100.13,-660.78 2094.76,-669.91 2101.63,-671.27"/>
</g>
<!-- readjson -->
<g id="node15" class="node">
<title>readjson</title>
<g id="a_node15"><a xlink:href="readjson.md" xlink:title="readjson.md">
<ellipse fill="palegoldenrod" stroke="black" cx="1865.2" cy="-629" rx="69.09" ry="24.08"/>
<text text-anchor="middle" x="1865.2" y="-622.8" font-family="Times,serif" font-size="24.00">readjson</text>
</a>
</g>
</g>
<!-- functions&#45;&gt;readjson -->
<g id="edge54" class="edge">
<title>functions&#45;&gt;readjson</title>
<path fill="none" stroke="black" d="M2000.27,-770.47C1964.55,-733.33 1922.01,-689.08 1894.35,-660.31"/>
<polygon fill="black" stroke="black" points="1897.11,-658.14 1887.66,-653.36 1892.07,-662.99 1897.11,-658.14"/>
</g>
<!-- regexes -->
<g id="node16" class="node">
<title>regexes</title>
<g id="a_node16"><a xlink:href="regexes.md" xlink:title="regexes.md">
<polygon fill="palegreen" stroke="black" points="1546.43,-466.21 1546.43,-487.79 1506.46,-503.04 1449.94,-503.04 1409.97,-487.79 1409.97,-466.21 1449.94,-450.96 1506.46,-450.96 1546.43,-466.21"/>
<polygon fill="none" stroke="black" points="1550.44,-463.46 1550.44,-490.54 1507.2,-507.04 1449.2,-507.04 1405.96,-490.54 1405.96,-463.46 1449.2,-446.96 1507.2,-446.96 1550.44,-463.46"/>
<text text-anchor="middle" x="1478.2" y="-470.8" font-family="Times,serif" font-size="24.00">regexes</text>
</a>
</g>
</g>
<!-- functions&#45;&gt;regexes -->
<g id="edge37" class="edge">
<title>functions&#45;&gt;regexes</title>
<path fill="none" stroke="black" d="M1946.41,-777.71C1887.69,-746.9 1816.29,-707.94 1754.2,-669.74 1670.29,-618.11 1576.99,-551.17 1523.2,-511.58"/>
<polygon fill="black" stroke="black" points="1525.29,-508.77 1515.16,-505.65 1521.13,-514.4 1525.29,-508.77"/>
</g>
<!-- signatures -->
<g id="node21" class="node">
<title>signatures</title>
<g id="a_node21"><a xlink:href="signatures.md" xlink:title="signatures.md">
<ellipse fill="palegoldenrod" stroke="black" cx="2420.2" cy="-477" rx="79.81" ry="24.08"/>
<text text-anchor="middle" x="2420.2" y="-470.8" font-family="Times,serif" font-size="24.00">signatures</text>
</a>
</g>
</g>
<!-- functions&#45;&gt;signatures -->
<g id="edge47" class="edge">
<title>functions&#45;&gt;signatures</title>
<path fill="none" stroke="black" d="M2149.57,-772.51C2186.18,-742.63 2228.71,-705.91 2264.2,-669.74 2315.68,-617.28 2368.1,-549.19 2397.16,-509.87"/>
<polygon fill="black" stroke="black" points="2399.69,-512.34 2402.79,-502.21 2394.05,-508.19 2399.69,-512.34"/>
</g>
<!-- unicodes -->
<g id="node26" class="node">
<title>unicodes</title>
<g id="a_node26"><a xlink:href="unicodes.md" xlink:title="unicodes.md">
<ellipse fill="palegoldenrod" stroke="black" cx="1963.2" cy="-477" rx="71.34" ry="24.08"/>
<text text-anchor="middle" x="1963.2" y="-470.8" font-family="Times,serif" font-size="24.00">unicodes</text>
</a>
</g>
</g>
<!-- functions&#45;&gt;unicodes -->
<g id="edge44" class="edge">
<title>functions&#45;&gt;unicodes</title>
<path fill="none" stroke="black" d="M2023.59,-769.12C2007.66,-739.54 1990.98,-703.96 1981.2,-669.74 1966,-616.54 1962.93,-552 1962.66,-513.01"/>
<polygon fill="black" stroke="black" points="1966.16,-513.04 1962.66,-503.04 1959.16,-513.04 1966.16,-513.04"/>
</g>
<!-- variables -->
<g id="node29" class="node">
<title>variables</title>
<g id="a_node29"><a xlink:href="variables.md" xlink:title="variables.md">
<ellipse fill="palegoldenrod" stroke="black" cx="2579.2" cy="-629" rx="72.66" ry="24.08"/>
<text text-anchor="middle" x="2579.2" y="-622.8" font-family="Times,serif" font-size="24.00">variables</text>
</a>
</g>
</g>
<!-- functions&#45;&gt;variables -->
<g id="edge55" class="edge">
<title>functions&#45;&gt;variables</title>
<path fill="none" stroke="black" d="M2204.3,-781.71C2309.36,-739.2 2447.99,-683.1 2523.8,-652.42"/>
<polygon fill="black" stroke="black" points="2524.71,-655.83 2532.66,-648.83 2522.08,-649.34 2524.71,-655.83"/>
</g>
<!-- vartypes -->
<g id="node30" class="node">
<title>vartypes</title>
<g id="a_node30"><a xlink:href="vartypes.md" xlink:title="vartypes.md">
<ellipse fill="palegoldenrod" stroke="black" cx="2198.2" cy="-335" rx="97.66" ry="33.88"/>
<text text-anchor="middle" x="2198.2" y="-326.2" font-family="Times,serif" font-size="36.00">vartypes</text>
</a>
</g>
</g>
<!-- functions&#45;&gt;vartypes -->
<g id="edge36" class="edge">
<title>functions&#45;&gt;vartypes</title>
<path fill="none" stroke="black" d="M2153.26,-773.04C2183.98,-745.07 2214.85,-709.6 2231.2,-669.74 2244.94,-636.24 2240.59,-623.24 2231.2,-588.26 2220.39,-547.97 2195.01,-547.31 2184.2,-507.02 2177.28,-481.25 2182.53,-473.61 2184.2,-446.98 2185.59,-424.84 2188.53,-400.37 2191.35,-380.05"/>
<polygon fill="black" stroke="black" points="2194.78,-380.81 2192.73,-370.42 2187.85,-379.82 2194.78,-380.81"/>
</g>
<!-- gethelp -->
<g id="node6" class="node">
<title>gethelp</title>
<g id="a_node6"><a xlink:href="gethelp.md" xlink:title="gethelp.md">
<polygon fill="palegreen" stroke="black" points="3157.87,-1368.21 3157.87,-1389.79 3118.81,-1405.04 3063.58,-1405.04 3024.53,-1389.79 3024.53,-1368.21 3063.58,-1352.96 3118.81,-1352.96 3157.87,-1368.21"/>
<polygon fill="none" stroke="black" points="3161.87,-1365.48 3161.87,-1392.52 3119.57,-1409.04 3062.83,-1409.04 3020.53,-1392.52 3020.53,-1365.48 3062.83,-1348.96 3119.57,-1348.96 3161.87,-1365.48"/>
<text text-anchor="middle" x="3091.2" y="-1372.8" font-family="Times,serif" font-size="24.00">gethelp</text>
</a>
</g>
</g>
<!-- linebuffer -->
<g id="node7" class="node">
<title>linebuffer</title>
<g id="a_node7"><a xlink:href="linebuffer.md" xlink:title="linebuffer.md">
<polygon fill="palegreen" stroke="black" points="1316.11,-828.21 1316.11,-849.79 1266.37,-865.04 1196.03,-865.04 1146.29,-849.79 1146.29,-828.21 1196.03,-812.96 1266.37,-812.96 1316.11,-828.21"/>
<polygon fill="none" stroke="black" points="1320.11,-825.25 1320.11,-852.75 1266.97,-869.04 1195.43,-869.04 1142.29,-852.75 1142.29,-825.25 1195.43,-808.96 1266.97,-808.96 1320.11,-825.25"/>
<text text-anchor="middle" x="1231.2" y="-832.8" font-family="Times,serif" font-size="24.00">linebuffer</text>
</a>
</g>
</g>
<!-- matches&#45;&gt;regexes -->
<g id="edge7" class="edge">
<title>matches&#45;&gt;regexes</title>
<path fill="none" stroke="red" d="M1351.18,-605.87C1374.76,-582.13 1412.62,-544.02 1440.87,-515.58"/>
<polygon fill="red" stroke="red" points="1443.31,-518.09 1447.87,-508.53 1438.34,-513.16 1443.31,-518.09"/>
</g>
<!-- opresult&#45;&gt;messages -->
<g id="edge2" class="edge">
<title>opresult&#45;&gt;messages</title>
<path fill="none" stroke="red" d="M1562.12,-181.42C1608.06,-160.05 1684.7,-124.38 1743.44,-97.05"/>
<polygon fill="red" stroke="red" points="1744.86,-100.25 1752.45,-92.86 1741.9,-93.9 1744.86,-100.25"/>
</g>
<!-- parseCmdLine -->
<g id="node11" class="node">
<title>parseCmdLine</title>
<g id="a_node11"><a xlink:href="parseCmdLine.md" xlink:title="parseCmdLine.md">
<ellipse fill="palegoldenrod" stroke="black" cx="1012.2" cy="-839" rx="111.95" ry="24.08"/>
<text text-anchor="middle" x="1012.2" y="-832.8" font-family="Times,serif" font-size="24.00">parseCmdLine</text>
</a>
</g>
</g>
<!-- parseCmdLine&#45;&gt;args -->
<g id="edge20" class="edge">
<title>parseCmdLine&#45;&gt;args</title>
<path fill="none" stroke="black" d="M964.26,-816.91C892.28,-785.2 752.01,-723.24 633.2,-669.74 618.21,-662.99 601.81,-655.52 587.33,-648.89"/>
<polygon fill="black" stroke="black" points="589.09,-645.85 578.54,-644.87 586.18,-652.22 589.09,-645.85"/>
</g>
<!-- parseCmdLine&#45;&gt;matches -->
<g id="edge18" class="edge">
<title>parseCmdLine&#45;&gt;matches</title>
<path fill="none" stroke="black" d="M1046.12,-815.74C1104.92,-777.16 1225.49,-698.05 1288.62,-656.63"/>
<polygon fill="black" stroke="black" points="1290.17,-659.8 1296.61,-651.39 1286.33,-653.94 1290.17,-659.8"/>
</g>
<!-- parseCmdLine&#45;&gt;messages -->
<g id="edge17" class="edge">
<title>parseCmdLine&#45;&gt;messages</title>
<path fill="none" stroke="black" d="M1000.7,-814.64C974.02,-758.24 910.2,-609.54 910.2,-478 910.2,-478 910.2,-478 910.2,-334 910.2,-172.39 1440.3,-97.48 1693.53,-70.91"/>
<polygon fill="black" stroke="black" points="1693.55,-74.43 1703.13,-69.92 1692.82,-67.47 1693.55,-74.43"/>
</g>
<!-- parseCmdLine&#45;&gt;opresult -->
<g id="edge19" class="edge">
<title>parseCmdLine&#45;&gt;opresult</title>
<path fill="none" stroke="black" d="M1012.27,-814.45C1013.85,-731.39 1030.61,-449.18 1182.2,-301.06 1252.57,-232.29 1367.83,-210.79 1444.35,-204.33"/>
<polygon fill="black" stroke="black" points="1444.61,-207.83 1454.31,-203.57 1444.07,-200.85 1444.61,-207.83"/>
</g>
<!-- parseCmdLine&#45;&gt;regexes -->
<g id="edge16" class="edge">
<title>parseCmdLine&#45;&gt;regexes</title>
<path fill="none" stroke="black" d="M1029.98,-814.73C1067.18,-767.24 1157.73,-657.78 1253.2,-588.26 1303.28,-551.79 1367.27,-521.78 1414.19,-502.32"/>
<polygon fill="black" stroke="black" points="1415.5,-505.57 1423.43,-498.54 1412.85,-499.09 1415.5,-505.57"/>
</g>
<!-- parseCommandLine -->
<g id="node12" class="node">
<title>parseCommandLine</title>
<g id="a_node12"><a xlink:href="parseCommandLine.md" xlink:title="parseCommandLine.md">
<ellipse fill="palegoldenrod" stroke="black" cx="149.2" cy="-839" rx="149.4" ry="24.08"/>
<text text-anchor="middle" x="149.2" y="-832.8" font-family="Times,serif" font-size="24.00">parseCommandLine</text>
</a>
</g>
</g>
<!-- parseCommandLine&#45;&gt;args -->
<g id="edge4" class="edge">
<title>parseCommandLine&#45;&gt;args</title>
<path fill="none" stroke="black" d="M192.06,-815.54C269.52,-774.96 431.71,-689.98 506.67,-650.71"/>
<polygon fill="black" stroke="black" points="508.07,-653.93 515.31,-646.19 504.82,-647.73 508.07,-653.93"/>
</g>
<!-- parseCommandLine&#45;&gt;cmdline -->
<g id="edge6" class="edge">
<title>parseCommandLine&#45;&gt;cmdline</title>
<path fill="none" stroke="black" d="M149.2,-814.54C149.2,-782.53 149.2,-724.26 149.2,-681.74"/>
<polygon fill="black" stroke="black" points="152.7,-681.99 149.2,-671.99 145.7,-681.99 152.7,-681.99"/>
</g>
<!-- parseCommandLine&#45;&gt;matches -->
<g id="edge8" class="edge">
<title>parseCommandLine&#45;&gt;matches</title>
<path fill="none" stroke="black" d="M248.03,-820.58C480.36,-779.63 1056.79,-678.02 1258.3,-642.5"/>
<polygon fill="black" stroke="black" points="1258.87,-645.95 1268.11,-640.77 1257.66,-639.06 1258.87,-645.95"/>
</g>
<!-- parseCommandLine&#45;&gt;messages -->
<g id="edge5" class="edge">
<title>parseCommandLine&#45;&gt;messages</title>
<path fill="none" stroke="black" d="M170.22,-814.67C196.6,-783.92 240.96,-726.97 262.2,-669.74 292.06,-589.27 285.2,-563.83 285.2,-478 285.2,-478 285.2,-478 285.2,-334 285.2,-263.18 259.86,-224.67 312.2,-176.96 413.15,-84.94 1343.45,-64.6 1693.15,-60.19"/>
<polygon fill="black" stroke="black" points="1693.12,-63.69 1703.07,-60.07 1693.03,-56.69 1693.12,-63.69"/>
</g>
<!-- processTemplate -->
<g id="node14" class="node">
<title>processTemplate</title>
<g id="a_node14"><a xlink:href="processTemplate.md" xlink:title="processTemplate.md">
<ellipse fill="palegoldenrod" stroke="black" cx="1310.2" cy="-1379" rx="124.4" ry="24.08"/>
<text text-anchor="middle" x="1310.2" y="-1372.8" font-family="Times,serif" font-size="24.00">processTemplate</text>
</a>
</g>
</g>
<!-- processTemplate&#45;&gt;args -->
<g id="edge10" class="edge">
<title>processTemplate&#45;&gt;args</title>
<path fill="none" stroke="black" d="M1231.23,-1359.99C1130.13,-1336.62 960.79,-1296.32 900.2,-1275.04 763.68,-1227.1 689.14,-1256.65 604.2,-1139.52 549.08,-1063.51 545.42,-766.86 545.83,-664.76"/>
<polygon fill="black" stroke="black" points="549.33,-664.83 545.89,-654.81 542.33,-664.79 549.33,-664.83"/>
</g>
<!-- processTemplate&#45;&gt;env -->
<g id="edge14" class="edge">
<title>processTemplate&#45;&gt;env</title>
<path fill="none" stroke="black" d="M1225.91,-1360.95C1112.2,-1333.67 910.53,-1269.49 794.2,-1139.52 724.96,-1062.16 703.44,-935.35 696.92,-874.58"/>
<polygon fill="black" stroke="black" points="700.43,-874.46 695.96,-864.85 693.46,-875.15 700.43,-874.46"/>
</g>
<!-- processTemplate&#45;&gt;linebuffer -->
<g id="edge15" class="edge">
<title>processTemplate&#45;&gt;linebuffer</title>
<path fill="none" stroke="black" d="M1306.75,-1354.54C1294.47,-1270.91 1252.75,-986.76 1237.15,-880.52"/>
<polygon fill="black" stroke="black" points="1240.64,-880.22 1235.73,-870.84 1233.72,-881.24 1240.64,-880.22"/>
</g>
<!-- processTemplate&#45;&gt;messages -->
<g id="edge11" class="edge">
<title>processTemplate&#45;&gt;messages</title>
<path fill="none" stroke="black" d="M1231.23,-1359.99C1213.5,-1356.16 1194.73,-1352.28 1177.2,-1348.98 971.12,-1310.18 900.08,-1366.14 711.2,-1275.04 424.88,-1136.95 402.2,-947.88 402.2,-630 402.2,-630 402.2,-630 402.2,-334 402.2,-184.29 556.95,-220.45 700.2,-176.96 883.05,-121.45 1438.01,-82.17 1693.68,-66.52"/>
<polygon fill="black" stroke="black" points="1693.6,-70.03 1703.37,-65.93 1693.17,-63.05 1693.6,-70.03"/>
</g>
<!-- processTemplate&#45;&gt;opresult -->
<g id="edge85" class="edge">
<title>processTemplate&#45;&gt;opresult</title>
<path fill="none" stroke="black" d="M1316.62,-1354.72C1338.29,-1272 1403.25,-985.56 1329.2,-768.29 1311.36,-715.93 1271.04,-722.09 1253.2,-669.74 1241.52,-635.46 1243.77,-623.23 1253.2,-588.26 1291.64,-445.7 1329.28,-417.4 1420.2,-301.06 1440.28,-275.36 1466.81,-249.8 1487.77,-231.08"/>
<polygon fill="black" stroke="black" points="1490.05,-233.74 1495.25,-224.5 1485.43,-228.48 1490.05,-233.74"/>
</g>
<!-- processTemplate&#45;&gt;parseCmdLine -->
<g id="edge21" class="edge">
<title>processTemplate&#45;&gt;parseCmdLine</title>
<path fill="none" stroke="black" d="M1297.39,-1354.88C1250.21,-1269.7 1085.95,-973.15 1030.58,-873.19"/>
<polygon fill="black" stroke="black" points="1033.76,-871.71 1025.86,-864.66 1027.64,-875.1 1033.76,-871.71"/>
</g>
<!-- replacement -->
<g id="node18" class="node">
<title>replacement</title>
<g id="a_node18"><a xlink:href="replacement.md" xlink:title="replacement.md">
<ellipse fill="palegoldenrod" stroke="black" cx="969.2" cy="-1078" rx="94.51" ry="24.08"/>
<text text-anchor="middle" x="969.2" y="-1071.8" font-family="Times,serif" font-size="24.00">replacement</text>
</a>
</g>
</g>
<!-- processTemplate&#45;&gt;replacement -->
<g id="edge74" class="edge">
<title>processTemplate&#45;&gt;replacement</title>
<path fill="none" stroke="black" d="M1284.01,-1355.03C1222.99,-1301.53 1071.39,-1168.6 1003.28,-1108.88"/>
<polygon fill="black" stroke="black" points="1005.98,-1106.59 996.15,-1102.63 1001.36,-1111.86 1005.98,-1106.59"/>
</g>
<!-- runCommand -->
<g id="node19" class="node">
<title>runCommand</title>
<g id="a_node19"><a xlink:href="runCommand.md" xlink:title="runCommand.md">
<ellipse fill="palegoldenrod" stroke="black" cx="1782.2" cy="-1078" rx="292.07" ry="61.54"/>
<text text-anchor="middle" x="1782.2" y="-1059.9" font-family="Times,serif" font-size="72.00">runCommand</text>
</a>
</g>
</g>
<!-- processTemplate&#45;&gt;runCommand -->
<g id="edge62" class="edge">
<title>processTemplate&#45;&gt;runCommand</title>
<path fill="none" stroke="black" d="M1345.68,-1355.53C1416.05,-1310.95 1575.61,-1209.87 1681.08,-1143.06"/>
<polygon fill="black" stroke="black" points="1682.94,-1146.02 1689.51,-1137.71 1679.19,-1140.11 1682.94,-1146.02"/>
</g>
<!-- startingvars -->
<g id="node22" class="node">
<title>startingvars</title>
<g id="a_node22"><a xlink:href="startingvars.md" xlink:title="startingvars.md">
<ellipse fill="palegoldenrod" stroke="black" cx="1782.2" cy="-1251" rx="90.52" ry="24.08"/>
<text text-anchor="middle" x="1782.2" y="-1244.8" font-family="Times,serif" font-size="24.00">startingvars</text>
</a>
</g>
</g>
<!-- processTemplate&#45;&gt;startingvars -->
<g id="edge84" class="edge">
<title>processTemplate&#45;&gt;startingvars</title>
<path fill="none" stroke="black" d="M1381.63,-1358.93C1469.86,-1335.38 1619.2,-1295.51 1708.47,-1271.68"/>
<polygon fill="black" stroke="black" points="1709.37,-1275.07 1718.13,-1269.1 1707.56,-1268.3 1709.37,-1275.07"/>
</g>
<!-- processTemplate&#45;&gt;variables -->
<g id="edge63" class="edge">
<title>processTemplate&#45;&gt;variables</title>
<path fill="none" stroke="black" d="M1426.38,-1370.07C1749.17,-1347.9 2633.88,-1286.19 2644.2,-1275.04 2720.7,-1192.41 2668.74,-878.19 2644.2,-768.29 2635.64,-729.95 2615.23,-689.69 2599.55,-662.57"/>
<polygon fill="black" stroke="black" points="2602.68,-660.98 2594.57,-654.15 2596.65,-664.54 2602.68,-660.98"/>
</g>
<!-- processTemplate&#45;&gt;vartypes -->
<g id="edge64" class="edge">
<title>processTemplate&#45;&gt;vartypes</title>
<path fill="none" stroke="black" d="M1424.14,-1369.05C1702.71,-1346.97 2397.01,-1290.51 2416.2,-1275.04 2487.33,-1217.68 2478.2,-1170.38 2478.2,-1079 2478.2,-1079 2478.2,-1079 2478.2,-838 2478.2,-726.49 2511.67,-683.82 2454.2,-588.26 2420.44,-532.12 2378.39,-552.47 2331.2,-507.02 2307.56,-484.25 2308.1,-473.08 2288.2,-446.98 2270.04,-423.16 2248.99,-397.12 2231.81,-376.25"/>
<polygon fill="black" stroke="black" points="2234.74,-374.3 2225.67,-368.82 2229.34,-378.76 2234.74,-374.3"/>
</g>
<!-- readjson&#45;&gt;messages -->
<g id="edge50" class="edge">
<title>readjson&#45;&gt;messages</title>
<path fill="none" stroke="black" d="M1912.16,-610.98C1955.02,-592.62 2015.75,-558.87 2043.2,-507.02 2055.69,-483.44 2045.64,-473.55 2043.2,-446.98 2031.75,-322.21 2036.54,-277.81 1962.2,-176.96 1942.04,-149.61 1914.44,-124.3 1889.29,-104.2"/>
<polygon fill="black" stroke="black" points="1891.73,-101.66 1881.71,-98.24 1887.41,-107.17 1891.73,-101.66"/>
</g>
<!-- readjson&#45;&gt;opresult -->
<g id="edge53" class="edge">
<title>readjson&#45;&gt;opresult</title>
<path fill="none" stroke="black" d="M1855.15,-604.98C1824.25,-534.54 1731.35,-325.2 1708.2,-301.06 1672.94,-264.3 1621.01,-238.22 1580.98,-222.08"/>
<polygon fill="black" stroke="black" points="1582.29,-218.83 1571.7,-218.44 1579.73,-225.35 1582.29,-218.83"/>
</g>
<!-- readjson&#45;&gt;unicodes -->
<g id="edge51" class="edge">
<title>readjson&#45;&gt;unicodes</title>
<path fill="none" stroke="black" d="M1880.08,-605.22C1896.56,-580 1923.25,-539.14 1941.93,-510.55"/>
<polygon fill="black" stroke="black" points="1944.81,-512.55 1947.35,-502.26 1938.95,-508.72 1944.81,-512.55"/>
</g>
<!-- utf8decoder -->
<g id="node28" class="node">
<title>utf8decoder</title>
<g id="a_node28"><a xlink:href="utf8decoder.md" xlink:title="utf8decoder.md">
<polygon fill="palegreen" stroke="black" points="1964.24,-324.21 1964.24,-345.79 1905.64,-361.04 1822.76,-361.04 1764.16,-345.79 1764.16,-324.21 1822.76,-308.96 1905.64,-308.96 1964.24,-324.21"/>
<polygon fill="none" stroke="black" points="1968.23,-321.12 1968.23,-348.88 1906.15,-365.04 1822.25,-365.04 1760.17,-348.88 1760.17,-321.12 1822.25,-304.96 1906.15,-304.96 1968.23,-321.12"/>
<text text-anchor="middle" x="1864.2" y="-328.8" font-family="Times,serif" font-size="24.00">utf8decoder</text>
</a>
</g>
</g>
<!-- readjson&#45;&gt;utf8decoder -->
<g id="edge52" class="edge">
<title>readjson&#45;&gt;utf8decoder</title>
<path fill="none" stroke="black" d="M1865.12,-604.6C1864.95,-555.01 1864.55,-438.85 1864.34,-376.79"/>
<polygon fill="black" stroke="black" points="1867.84,-376.99 1864.31,-367.01 1860.84,-377.02 1867.84,-376.99"/>
</g>
<!-- readjson&#45;&gt;vartypes -->
<g id="edge49" class="edge">
<title>readjson&#45;&gt;vartypes</title>
<path fill="none" stroke="black" d="M1911.21,-610.68C1959.02,-591 2034,-555.26 2086.2,-507.02 2126.11,-470.14 2158.34,-416.21 2177.81,-378.8"/>
<polygon fill="black" stroke="black" points="2180.84,-380.57 2182.26,-370.07 2174.6,-377.38 2180.84,-380.57"/>
</g>
<!-- repl -->
<g id="node17" class="node">
<title>repl</title>
<g id="a_node17"><a xlink:href="repl.md" xlink:title="repl.md">
<ellipse fill="palegoldenrod" stroke="black" cx="1782.2" cy="-1379" rx="38.37" ry="24.08"/>
<text text-anchor="middle" x="1782.2" y="-1372.8" font-family="Times,serif" font-size="24.00">repl</text>
</a>
</g>
</g>
<!-- repl&#45;&gt;args -->
<g id="edge108" class="edge">
<title>repl&#45;&gt;args</title>
<path fill="none" stroke="black" d="M1743.99,-1374.9C1569.71,-1360 851.94,-1290.17 696.2,-1139.52 626.07,-1071.68 569.38,-767.82 551.84,-664.51"/>
<polygon fill="black" stroke="black" points="555.3,-663.98 550.19,-654.7 548.4,-665.14 555.3,-663.98"/>
</g>
<!-- repl&#45;&gt;env -->
<g id="edge106" class="edge">
<title>repl&#45;&gt;env</title>
<path fill="none" stroke="black" d="M1745.73,-1371.01C1579.01,-1338.8 894.4,-1203.45 822.2,-1139.52 778.37,-1100.71 797.86,-1070.45 775.2,-1016.48 753.85,-965.64 726.71,-907.71 709.9,-872.52"/>
<polygon fill="black" stroke="black" points="713.16,-871.23 705.69,-863.72 706.85,-874.25 713.16,-871.23"/>
</g>
<!-- repl&#45;&gt;matches -->
<g id="edge111" class="edge">
<title>repl&#45;&gt;matches</title>
<path fill="none" stroke="black" d="M1743.64,-1377.49C1674.44,-1374.41 1528.88,-1357.82 1448.2,-1275.04 1393.52,-1218.94 1398.95,-968.65 1362.2,-768.29 1355.65,-732.6 1345.74,-692.3 1338.49,-664.45"/>
<polygon fill="black" stroke="black" points="1341.88,-663.57 1335.95,-654.79 1335.11,-665.35 1341.88,-663.57"/>
</g>
<!-- repl&#45;&gt;messages -->
<g id="edge105" class="edge">
<title>repl&#45;&gt;messages</title>
<path fill="none" stroke="black" d="M1820.76,-1376.24C1993.8,-1368.02 2693.55,-1331.51 2772.2,-1275.04 2901.78,-1182.01 2954.2,-937.17 2954.2,-630 2954.2,-630 2954.2,-630 2954.2,-334 2954.2,-130.78 2254.93,-77.1 1957.04,-63.45"/>
<polygon fill="black" stroke="black" points="1957.41,-59.97 1947.27,-63.02 1957.1,-66.96 1957.41,-59.97"/>
</g>
<!-- repl&#45;&gt;opresult -->
<g id="edge109" class="edge">
<title>repl&#45;&gt;opresult</title>
<path fill="none" stroke="black" d="M1820.76,-1376.43C1990.58,-1369.19 2666.38,-1336.68 2736.2,-1275.04 2905.09,-1125.95 2792.08,-989.26 2748.2,-768.29 2697.76,-514.32 2637.43,-404.81 2400.2,-301.06 2257.2,-238.52 1786.79,-212.81 1599.82,-204.9"/>
<polygon fill="black" stroke="black" points="1600.1,-201.41 1589.97,-204.49 1599.81,-208.4 1600.1,-201.41"/>
</g>
<!-- repl&#45;&gt;regexes -->
<g id="edge112" class="edge">
<title>repl&#45;&gt;regexes</title>
<path fill="none" stroke="black" d="M1750.76,-1364.66C1685.92,-1335.19 1538.64,-1257.63 1481.2,-1139.52 1427.74,-1029.58 1461.12,-645.04 1473.88,-518.62"/>
<polygon fill="black" stroke="black" points="1477.35,-519.02 1474.89,-508.72 1470.39,-518.31 1477.35,-519.02"/>
</g>
<!-- repl&#45;&gt;runCommand -->
<g id="edge113" class="edge">
<title>repl&#45;&gt;runCommand</title>
<path fill="none" stroke="black" d="M1807.98,-1360.67C1832.34,-1342.58 1867.3,-1311.76 1882.2,-1275.04 1890.23,-1255.24 1888.46,-1247.39 1882.2,-1226.96 1873.62,-1198.96 1857.76,-1171.47 1841.16,-1147.94"/>
<polygon fill="black" stroke="black" points="1844.11,-1146.05 1835.41,-1140.01 1838.45,-1150.16 1844.11,-1146.05"/>
</g>
<!-- repl&#45;&gt;startingvars -->
<g id="edge110" class="edge">
<title>repl&#45;&gt;startingvars</title>
<path fill="none" stroke="black" d="M1782.2,-1354.6C1782.2,-1335.5 1782.2,-1308.24 1782.2,-1286.62"/>
<polygon fill="black" stroke="black" points="1785.7,-1286.79 1782.2,-1276.79 1778.7,-1286.79 1785.7,-1286.79"/>
</g>
<!-- repl&#45;&gt;variables -->
<g id="edge114" class="edge">
<title>repl&#45;&gt;variables</title>
<path fill="none" stroke="black" d="M1820.85,-1376.55C1985.66,-1369.97 2623.9,-1340.39 2682.2,-1275.04 2757.17,-1191.01 2717.63,-875.18 2682.2,-768.29 2668.18,-725.98 2635.62,-686.11 2610.84,-660.15"/>
<polygon fill="black" stroke="black" points="2613.65,-658.02 2604.16,-653.31 2608.64,-662.91 2613.65,-658.02"/>
</g>
<!-- repl&#45;&gt;vartypes -->
<g id="edge107" class="edge">
<title>repl&#45;&gt;vartypes</title>
<path fill="none" stroke="black" d="M1820.86,-1376.42C1987.97,-1369.22 2642.82,-1337.22 2708.2,-1275.04 2819.05,-1169.62 2732.23,-723.75 2661.2,-588.26 2623.08,-515.55 2610.35,-492.75 2542.2,-446.98 2467.75,-396.97 2369.22,-368.21 2296.69,-352.56"/>
<polygon fill="black" stroke="black" points="2297.72,-349.2 2287.22,-350.57 2296.28,-356.05 2297.72,-349.2"/>
</g>
<!-- replacement&#45;&gt;args -->
<g id="edge73" class="edge">
<title>replacement&#45;&gt;args</title>
<path fill="none" stroke="black" d="M931.69,-1055.58C886.64,-1027.84 812.17,-975.2 772.2,-909.71 738.57,-854.62 775.06,-821.95 739.2,-768.29 701.56,-711.97 632.72,-670.98 588.24,-648.83"/>
<polygon fill="black" stroke="black" points="589.93,-645.76 579.41,-644.54 586.87,-652.06 589.93,-645.76"/>
</g>
<!-- replacement&#45;&gt;env -->
<g id="edge65" class="edge">
<title>replacement&#45;&gt;env</title>
<path fill="none" stroke="black" d="M933.41,-1055.35C886.66,-1026.01 803.74,-970.28 744.2,-909.71 732.8,-898.12 722.03,-883.73 713.43,-871.05"/>
<polygon fill="black" stroke="black" points="716.56,-869.44 708.13,-863.02 710.71,-873.29 716.56,-869.44"/>
</g>
<!-- replacement&#45;&gt;linebuffer -->
<g id="edge68" class="edge">
<title>replacement&#45;&gt;linebuffer</title>
<path fill="none" stroke="black" d="M993.85,-1054.7C1038.95,-1013.91 1135.18,-926.86 1190.25,-877.04"/>
<polygon fill="black" stroke="black" points="1192.53,-879.7 1197.6,-870.39 1187.84,-874.51 1192.53,-879.7"/>
</g>
<!-- replacement&#45;&gt;messages -->
<g id="edge69" class="edge">
<title>replacement&#45;&gt;messages</title>
<path fill="none" stroke="black" d="M953,-1053.85C932,-1022.64 895.87,-964.63 877.2,-909.71 836.72,-790.63 834.2,-755.78 834.2,-630 834.2,-630 834.2,-630 834.2,-334 834.2,-231.79 910.03,-221.14 1002.2,-176.96 1121.64,-119.7 1492.82,-83.91 1693.4,-68.24"/>
<polygon fill="black" stroke="black" points="1693.38,-71.75 1703.08,-67.49 1692.84,-64.77 1693.38,-71.75"/>
</g>
<!-- replacement&#45;&gt;opresult -->
<g id="edge72" class="edge">
<title>replacement&#45;&gt;opresult</title>
<path fill="none" stroke="black" d="M954.36,-1053.8C935.33,-1022.53 903.34,-964.46 891.2,-909.71 877.6,-848.35 876.74,-829.46 891.2,-768.29 944.63,-542.27 943.96,-446.28 1125.2,-301.06 1217.38,-227.2 1357.31,-207.49 1444.06,-202.76"/>
<polygon fill="black" stroke="black" points="1444.09,-206.26 1453.91,-202.28 1443.75,-199.27 1444.09,-206.26"/>
</g>
<!-- replacement&#45;&gt;parseCmdLine -->
<g id="edge67" class="edge">
<title>replacement&#45;&gt;parseCmdLine</title>
<path fill="none" stroke="black" d="M973.4,-1053.84C981,-1011.99 997.04,-923.54 1005.94,-874.52"/>
<polygon fill="black" stroke="black" points="1009.37,-875.2 1007.71,-864.74 1002.48,-873.95 1009.37,-875.2"/>
</g>
<!-- replacement&#45;&gt;tempFile -->
<g id="edge71" class="edge">
<title>replacement&#45;&gt;tempFile</title>
<path fill="none" stroke="black" d="M943.61,-1054.5C910.85,-1024.46 854.26,-968.19 820.2,-909.71 786.79,-852.36 793.75,-831.07 772.2,-768.29 760.85,-735.23 747.84,-697.77 738.23,-670.19"/>
<polygon fill="black" stroke="black" points="741.56,-669.1 734.96,-660.81 734.95,-671.41 741.56,-669.1"/>
</g>
<!-- replacement&#45;&gt;variables -->
<g id="edge70" class="edge">
<title>replacement&#45;&gt;variables</title>
<path fill="none" stroke="black" d="M1053.7,-1066.87C1345.45,-1031.85 2293.44,-917.57 2307.2,-909.71 2376.1,-870.33 2361.42,-825.7 2416.2,-768.29 2455.83,-726.76 2507.07,-684.93 2541.43,-658.32"/>
<polygon fill="black" stroke="black" points="2543.23,-661.36 2549.02,-652.49 2538.96,-655.81 2543.23,-661.36"/>
</g>
<!-- replacement&#45;&gt;vartypes -->
<g id="edge66" class="edge">
<title>replacement&#45;&gt;vartypes</title>
<path fill="none" stroke="black" d="M1021.77,-1057.59C1093.91,-1029.87 1226.35,-974.98 1329.2,-909.71 1600.08,-737.82 1604.36,-605.63 1883.2,-446.98 1954.54,-406.39 2043.3,-376.75 2108.4,-358.37"/>
<polygon fill="black" stroke="black" points="2109.3,-361.75 2118,-355.7 2107.43,-355.01 2109.3,-361.75"/>
</g>
<!-- runCommand&#45;&gt;env -->
<g id="edge25" class="edge">
<title>runCommand&#45;&gt;env</title>
<path fill="none" stroke="black" d="M1543.11,-1042.4C1362.41,-1013.77 1109.11,-968.34 891.2,-909.71 836.28,-894.93 774.75,-872.11 735.3,-856.64"/>
<polygon fill="black" stroke="black" points="736.78,-853.46 726.19,-853.04 734.2,-859.97 736.78,-853.46"/>
</g>
<!-- runCommand&#45;&gt;functions -->
<g id="edge56" class="edge">
<title>runCommand&#45;&gt;functions</title>
<path fill="none" stroke="black" d="M1852.88,-1017.81C1890.63,-986.19 1937.44,-946.99 1977.5,-913.45"/>
<polygon fill="black" stroke="black" points="1979.62,-916.24 1985.04,-907.13 1975.12,-910.87 1979.62,-916.24"/>
</g>
<!-- runCommand&#45;&gt;linebuffer -->
<g id="edge22" class="edge">
<title>runCommand&#45;&gt;linebuffer</title>
<path fill="none" stroke="black" d="M1654.75,-1022.18C1542.8,-974.03 1384.46,-905.92 1296.52,-868.1"/>
<polygon fill="black" stroke="black" points="1298.11,-864.97 1287.54,-864.23 1295.34,-871.4 1298.11,-864.97"/>
</g>
<!-- runCommand&#45;&gt;matches -->
<g id="edge23" class="edge">
<title>runCommand&#45;&gt;matches</title>
<path fill="none" stroke="black" d="M1696.6,-1018.84C1654.32,-988.43 1603.63,-949.35 1562.2,-909.71 1476.46,-827.7 1391.17,-715.55 1351.78,-661.57"/>
<polygon fill="black" stroke="black" points="1354.79,-659.76 1346.08,-653.72 1349.12,-663.87 1354.79,-659.76"/>
</g>
<!-- runCommand&#45;&gt;messages -->
<g id="edge29" class="edge">
<title>runCommand&#45;&gt;messages</title>
<path fill="none" stroke="black" d="M1753.66,-1016.45C1706.2,-910.03 1616.2,-681.42 1616.2,-478 1616.2,-478 1616.2,-478 1616.2,-334 1616.2,-237.12 1699.43,-153 1760.85,-104.11"/>
<polygon fill="black" stroke="black" points="1762.83,-107.01 1768.55,-98.09 1758.51,-101.5 1762.83,-107.01"/>
</g>
<!-- runCommand&#45;&gt;opresult -->
<g id="edge58" class="edge">
<title>runCommand&#45;&gt;opresult</title>
<path fill="none" stroke="black" d="M1716.97,-1017.77C1688.33,-988.12 1657,-949.99 1638.2,-909.71 1630.92,-894.11 1549.54,-376.62 1527.61,-236.62"/>
<polygon fill="black" stroke="black" points="1531.09,-236.2 1526.09,-226.86 1524.17,-237.28 1531.09,-236.2"/>
</g>
<!-- runCommand&#45;&gt;parseCmdLine -->
<g id="edge61" class="edge">
<title>runCommand&#45;&gt;parseCmdLine</title>
<path fill="none" stroke="black" d="M1565.23,-1036.45C1436.83,-1008.71 1272.58,-966.59 1133.2,-909.71 1106.02,-898.62 1077.48,-882.42 1054.95,-868.44"/>
<polygon fill="black" stroke="black" points="1056.97,-865.57 1046.65,-863.2 1053.24,-871.5 1056.97,-865.57"/>
</g>
<!-- runCommand&#45;&gt;readjson -->
<g id="edge57" class="edge">
<title>runCommand&#45;&gt;readjson</title>
<path fill="none" stroke="black" d="M1775.52,-1016.05C1770.49,-952.9 1767.82,-851.93 1790.2,-768.29 1800.7,-729.05 1824.31,-688.72 1842.26,-661.82"/>
<polygon fill="black" stroke="black" points="1844.99,-664.03 1847.73,-653.8 1839.21,-660.09 1844.99,-664.03"/>
</g>
<!-- runCommand&#45;&gt;regexes -->
<g id="edge24" class="edge">
<title>runCommand&#45;&gt;regexes</title>
<path fill="none" stroke="black" d="M1700.45,-1018.53C1665.07,-989.45 1625.95,-951.57 1600.2,-909.71 1579.28,-875.7 1513.57,-619.09 1488.27,-518.39"/>
<polygon fill="black" stroke="black" points="1491.73,-517.77 1485.9,-508.93 1484.94,-519.48 1491.73,-517.77"/>
</g>
<!-- runCommand&#45;&gt;unicodes -->
<g id="edge59" class="edge">
<title>runCommand&#45;&gt;unicodes</title>
<path fill="none" stroke="black" d="M1764.06,-1016.2C1738.57,-917.89 1703.95,-721.6 1787.2,-588.26 1813.84,-545.59 1863.73,-516.68 1903.6,-499.2"/>
<polygon fill="black" stroke="black" points="1904.79,-502.5 1912.64,-495.38 1902.06,-496.05 1904.79,-502.5"/>
</g>
<!-- runCommand&#45;&gt;utf8decoder -->
<g id="edge60" class="edge">
<title>runCommand&#45;&gt;utf8decoder</title>
<path fill="none" stroke="black" d="M1758.54,-1016.47C1747.54,-985.13 1735.7,-945.94 1730.2,-909.71 1708.72,-768.22 1711.52,-726.33 1749.2,-588.26 1770.79,-509.15 1814.58,-423.6 1841.46,-375.23"/>
<polygon fill="black" stroke="black" points="1844.34,-377.24 1846.18,-366.81 1838.24,-373.82 1844.34,-377.24"/>
</g>
<!-- runCommand&#45;&gt;variables -->
<g id="edge34" class="edge">
<title>runCommand&#45;&gt;variables</title>
<path fill="none" stroke="black" d="M2050.16,-1053.24C2171.7,-1031.35 2311.35,-989.51 2416.2,-909.71 2500.86,-845.27 2549.44,-723.19 2569.01,-663.95"/>
<polygon fill="black" stroke="black" points="2572.24,-665.34 2571.97,-654.75 2565.58,-663.2 2572.24,-665.34"/>
</g>
<!-- runCommand&#45;&gt;vartypes -->
<g id="edge28" class="edge">
<title>runCommand&#45;&gt;vartypes</title>
<path fill="none" stroke="black" d="M1995.53,-1035.64C2123.58,-1006 2268.89,-962.13 2307.2,-909.71 2415.14,-762.03 2263.93,-685.12 2222.2,-507.02 2212.24,-464.53 2205.85,-415.08 2202.19,-380.31"/>
<polygon fill="black" stroke="black" points="2205.7,-380.21 2201.2,-370.62 2198.73,-380.92 2205.7,-380.21"/>
</g>
<!-- runner -->
<g id="node20" class="node">
<title>runner</title>
<g id="a_node20"><a xlink:href="runner.md" xlink:title="runner.md">
<polygon fill="palegreen" stroke="black" points="1919.57,-1544.69 1919.57,-1575.31 1870.15,-1596.95 1800.25,-1596.95 1750.83,-1575.31 1750.83,-1544.69 1800.25,-1523.05 1870.15,-1523.05 1919.57,-1544.69"/>
<polygon fill="none" stroke="black" points="1923.58,-1542.06 1923.58,-1577.94 1870.98,-1600.98 1799.41,-1600.98 1746.82,-1577.94 1746.82,-1542.06 1799.41,-1519.02 1870.98,-1519.02 1923.58,-1542.06"/>
<text text-anchor="middle" x="1835.2" y="-1551.2" font-family="Times,serif" font-size="36.00">runner</text>
</a>
</g>
</g>
<!-- signatures&#45;&gt;messages -->
<g id="edge46" class="edge">
<title>signatures&#45;&gt;messages</title>
<path fill="none" stroke="black" d="M2408.73,-452.69C2390.42,-417.06 2351.82,-348.24 2305.2,-301.06 2198.65,-193.24 2034.08,-124.79 1928.01,-89.16"/>
<polygon fill="black" stroke="black" points="1929.32,-85.91 1918.73,-86.09 1927.12,-92.56 1929.32,-85.91"/>
</g>
<!-- signatures&#45;&gt;vartypes -->
<g id="edge45" class="edge">
<title>signatures&#45;&gt;vartypes</title>
<path fill="none" stroke="black" d="M2386.48,-454.74C2351.45,-432.64 2296.02,-397.69 2254.36,-371.41"/>
<polygon fill="black" stroke="black" points="2256.23,-368.46 2245.9,-366.08 2252.49,-374.38 2256.23,-368.46"/>
</g>
<!-- startingvars&#45;&gt;args -->
<g id="edge75" class="edge">
<title>startingvars&#45;&gt;args</title>
<path fill="none" stroke="black" d="M1691.66,-1248.73C1481.14,-1244.33 965.48,-1224.91 818.2,-1139.52 708.52,-1075.93 706.01,-1023.05 649.2,-909.71 619.76,-850.98 628.87,-829.95 606.2,-768.29 592.73,-731.64 574.58,-690.74 561.78,-662.99"/>
<polygon fill="black" stroke="black" points="565.02,-661.64 557.63,-654.05 558.67,-664.59 565.02,-661.64"/>
</g>
<!-- startingvars&#45;&gt;env -->
<g id="edge77" class="edge">
<title>startingvars&#45;&gt;env</title>
<path fill="none" stroke="black" d="M1694.35,-1244.67C1477.4,-1230.79 929.17,-1190.95 865.2,-1139.52 820.06,-1103.22 850.48,-1067.04 822.2,-1016.48 792.32,-963.06 770.15,-959.96 735.2,-909.71 726.87,-897.73 718.55,-883.99 711.6,-871.9"/>
<polygon fill="black" stroke="black" points="714.83,-870.5 706.86,-863.51 708.73,-873.94 714.83,-870.5"/>
</g>
<!-- startingvars&#45;&gt;functions -->
<g id="edge83" class="edge">
<title>startingvars&#45;&gt;functions</title>
<path fill="none" stroke="black" d="M1872.02,-1247.74C1950.72,-1240.41 2060.94,-1216.01 2116.2,-1139.52 2162.31,-1075.7 2137.31,-984.48 2108.45,-919.5"/>
<polygon fill="black" stroke="black" points="2111.76,-918.33 2104.42,-910.68 2105.39,-921.23 2111.76,-918.33"/>
</g>
<!-- startingvars&#45;&gt;messages -->
<g id="edge76" class="edge">
<title>startingvars&#45;&gt;messages</title>
<path fill="none" stroke="black" d="M1870.16,-1244.94C2028.1,-1234.3 2351.65,-1204.99 2441.2,-1139.52 2525.93,-1077.58 2756.2,-591.64 2756.2,-478 2756.2,-478 2756.2,-478 2756.2,-334 2756.2,-226.15 2669.22,-221.95 2571.2,-176.96 2464.32,-127.9 2140.98,-89.68 1956.98,-71.19"/>
<polygon fill="black" stroke="black" points="1957.42,-67.72 1947.12,-70.21 1956.72,-74.68 1957.42,-67.72"/>
</g>
<!-- startingvars&#45;&gt;opresult -->
<g id="edge81" class="edge">
<title>startingvars&#45;&gt;opresult</title>
<path fill="none" stroke="black" d="M1696.97,-1242.38C1627.78,-1231.41 1533.41,-1204.68 1481.2,-1139.52 1470.12,-1125.69 1398.37,-524.71 1397.2,-507.02 1395.44,-480.39 1390.96,-472.93 1397.2,-446.98 1416.96,-364.76 1469.21,-279.05 1499.53,-234.03"/>
<polygon fill="black" stroke="black" points="1502.41,-236.02 1505.16,-225.79 1496.63,-232.07 1502.41,-236.02"/>
</g>
<!-- startingvars&#45;&gt;readjson -->
<g id="edge80" class="edge">
<title>startingvars&#45;&gt;readjson</title>
<path fill="none" stroke="black" d="M1869.34,-1244.12C1939.96,-1234.23 2035.32,-1208.1 2083.2,-1139.52 2114.5,-1094.68 2113.65,-1061.9 2083.2,-1016.48 2013.64,-912.72 1892.76,-1013.47 1823.2,-909.71 1771.95,-833.27 1818.25,-718.83 1846.74,-663.01"/>
<polygon fill="black" stroke="black" points="1849.75,-664.79 1851.29,-654.31 1843.55,-661.55 1849.75,-664.79"/>
</g>
<!-- startingvars&#45;&gt;runCommand -->
<g id="edge82" class="edge">
<title>startingvars&#45;&gt;runCommand</title>
<path fill="none" stroke="black" d="M1782.2,-1226.58C1782.2,-1207.13 1782.2,-1178.39 1782.2,-1151.42"/>
<polygon fill="black" stroke="black" points="1785.7,-1151.51 1782.2,-1141.51 1778.7,-1151.51 1785.7,-1151.51"/>
</g>
<!-- startingvars&#45;&gt;variables -->
<g id="edge78" class="edge">
<title>startingvars&#45;&gt;variables</title>
<path fill="none" stroke="black" d="M1868.93,-1243.69C2014.59,-1231.52 2300.12,-1200.46 2378.2,-1139.52 2533.86,-1018.02 2569.24,-758.4 2577.06,-664.66"/>
<polygon fill="black" stroke="black" points="2580.53,-665.06 2577.82,-654.82 2573.56,-664.53 2580.53,-665.06"/>
</g>
<!-- startingvars&#45;&gt;vartypes -->
<g id="edge79" class="edge">
<title>startingvars&#45;&gt;vartypes</title>
<path fill="none" stroke="black" d="M1860.97,-1238.86C1937.75,-1225.13 2055.31,-1196.28 2142.2,-1139.52 2255.07,-1065.78 2293.26,-1036.09 2340.2,-909.71 2390.69,-773.77 2329.14,-726.14 2284.2,-588.26 2260.27,-514.85 2231,-429.95 2213.51,-379.74"/>
<polygon fill="black" stroke="black" points="2216.85,-378.68 2210.25,-370.39 2210.24,-380.99 2216.85,-378.68"/>
</g>
<!-- statictea -->
<g id="node23" class="node">
<title>statictea</title>
<g id="a_node23"><a xlink:href="statictea.md" xlink:title="statictea.md">
<polygon fill="palegoldenrod" stroke="black" points="1310.2,-1621 1137.2,-1560 1310.2,-1499 1483.2,-1560 1310.2,-1621"/>
<text text-anchor="middle" x="1310.2" y="-1548.1" font-family="Times,serif" font-size="48.00">statictea</text>
</a>
</g>
</g>
<!-- statictea&#45;&gt;args -->
<g id="edge99" class="edge">
<title>statictea&#45;&gt;args</title>
<path fill="none" stroke="black" d="M1196.24,-1538.74C983.08,-1498.21 537.77,-1400.2 452.2,-1275.04 316.33,-1076.31 471.16,-762.47 527.4,-662.03"/>
<polygon fill="black" stroke="black" points="530.35,-663.93 532.24,-653.5 524.26,-660.48 530.35,-663.93"/>
</g>
<!-- statictea&#45;&gt;env -->
<g id="edge103" class="edge">
<title>statictea&#45;&gt;env</title>
<path fill="none" stroke="black" d="M1201.32,-1536.97C1067.72,-1504.01 844.33,-1428.56 725.2,-1275.04 631.51,-1154.31 666.28,-953.55 685.19,-873.98"/>
<polygon fill="black" stroke="black" points="688.5,-875.16 687.49,-864.62 681.71,-873.49 688.5,-875.16"/>
</g>
<!-- statictea&#45;&gt;gethelp -->
<g id="edge101" class="edge">
<title>statictea&#45;&gt;gethelp</title>
<path fill="none" stroke="black" d="M1391.45,-1527.22C1422.5,-1516.4 1458.54,-1505.43 1492.2,-1499 2154.28,-1372.42 2344.79,-1539.1 3006.2,-1409.02 3013.5,-1407.59 3021.03,-1405.68 3028.45,-1403.52"/>
<polygon fill="black" stroke="black" points="3029.23,-1406.95 3037.76,-1400.66 3027.17,-1400.25 3029.23,-1406.95"/>
</g>
<!-- statictea&#45;&gt;messages -->
<g id="edge100" class="edge">
<title>statictea&#45;&gt;messages</title>
<path fill="none" stroke="black" d="M1391.48,-1527.36C1422.54,-1516.56 1458.57,-1505.57 1492.2,-1499 1823.76,-1434.26 2992.2,-1589.82 2992.2,-1252 2992.2,-1252 2992.2,-1252 2992.2,-334 2992.2,-276.84 2999.72,-254.08 2825.2,-176.96 2672.6,-109.53 2191.63,-77.07 1956.8,-64.93"/>
<polygon fill="black" stroke="black" points="1957.14,-61.44 1946.97,-64.42 1956.78,-68.43 1957.14,-61.44"/>
</g>
<!-- statictea&#45;&gt;opresult -->
<g id="edge104" class="edge">
<title>statictea&#45;&gt;opresult</title>
<path fill="none" stroke="black" d="M1176.73,-1545.6C907.79,-1514.88 326.2,-1428.1 326.2,-1252 326.2,-1252 326.2,-1252 326.2,-1077 326.2,-858.04 287.61,-782.75 388.2,-588.26 477.52,-415.56 539.68,-378.1 718.2,-301.06 848.04,-245.03 1270.05,-215.9 1445.06,-205.98"/>
<polygon fill="black" stroke="black" points="1445.18,-209.48 1454.97,-205.43 1444.79,-202.49 1445.18,-209.48"/>
</g>
<!-- statictea&#45;&gt;parseCommandLine -->
<g id="edge9" class="edge">
<title>statictea&#45;&gt;parseCommandLine</title>
<path fill="none" stroke="black" d="M1148.81,-1555.4C898.74,-1546.51 433.7,-1515.69 312.2,-1409.02 150.06,-1266.67 144.24,-975.05 147.39,-874.77"/>
<polygon fill="black" stroke="black" points="150.88,-875.15 147.75,-865.03 143.88,-874.89 150.88,-875.15"/>
</g>
<!-- statictea&#45;&gt;processTemplate -->
<g id="edge86" class="edge">
<title>statictea&#45;&gt;processTemplate</title>
<path fill="none" stroke="black" d="M1310.2,-1498.9C1310.2,-1470.92 1310.2,-1438.63 1310.2,-1414.77"/>
<polygon fill="black" stroke="black" points="1313.7,-1414.97 1310.2,-1404.97 1306.7,-1414.97 1313.7,-1414.97"/>
</g>
<!-- statictea&#45;&gt;repl -->
<g id="edge115" class="edge">
<title>statictea&#45;&gt;repl</title>
<path fill="none" stroke="black" d="M1392.69,-1527.72C1493.64,-1489.43 1660.8,-1426.04 1739.16,-1396.32"/>
<polygon fill="black" stroke="black" points="1740.09,-1399.71 1748.2,-1392.9 1737.61,-1393.17 1740.09,-1399.71"/>
</g>
<!-- timer -->
<g id="node25" class="node">
<title>timer</title>
<g id="a_node25"><a xlink:href="timer.md" xlink:title="timer.md">
<polygon fill="palegreen" stroke="black" points="3288.29,-1368.21 3288.29,-1389.79 3257.77,-1405.04 3214.62,-1405.04 3184.11,-1389.79 3184.11,-1368.21 3214.62,-1352.96 3257.77,-1352.96 3288.29,-1368.21"/>
<polygon fill="none" stroke="black" points="3292.29,-1365.74 3292.29,-1392.26 3258.72,-1409.04 3213.68,-1409.04 3180.11,-1392.26 3180.11,-1365.74 3213.68,-1348.96 3258.72,-1348.96 3292.29,-1365.74"/>
<text text-anchor="middle" x="3236.2" y="-1372.8" font-family="Times,serif" font-size="24.00">timer</text>
</a>
</g>
</g>
<!-- statictea&#45;&gt;timer -->
<g id="edge116" class="edge">
<title>statictea&#45;&gt;timer</title>
<path fill="none" stroke="black" d="M1391.43,-1527.11C1422.48,-1516.29 1458.52,-1505.34 1492.2,-1499 2226.6,-1360.81 2444.75,-1584.29 3171.2,-1409.02 3175.99,-1407.87 3180.87,-1406.37 3185.69,-1404.66"/>
<polygon fill="black" stroke="black" points="3186.61,-1408.05 3194.68,-1401.18 3184.09,-1401.52 3186.61,-1408.05"/>
</g>
<!-- updateTemplate -->
<g id="node27" class="node">
<title>updateTemplate</title>
<g id="a_node27"><a xlink:href="updateTemplate.md" xlink:title="updateTemplate.md">
<ellipse fill="palegoldenrod" stroke="black" cx="1048.2" cy="-1379" rx="119.5" ry="24.08"/>
<text text-anchor="middle" x="1048.2" y="-1372.8" font-family="Times,serif" font-size="24.00">updateTemplate</text>
</a>
</g>
</g>
<!-- statictea&#45;&gt;updateTemplate -->
<g id="edge98" class="edge">
<title>statictea&#45;&gt;updateTemplate</title>
<path fill="none" stroke="black" d="M1252.05,-1519.27C1203.14,-1485.86 1134.35,-1438.86 1090.53,-1408.92"/>
<polygon fill="black" stroke="black" points="1092.51,-1406.03 1082.28,-1403.28 1088.56,-1411.81 1092.51,-1406.03"/>
</g>
<!-- version -->
<g id="node31" class="node">
<title>version</title>
<g id="a_node31"><a xlink:href="version.md" xlink:title="version.md">
<polygon fill="palegreen" stroke="black" points="2921.87,-466.21 2921.87,-487.79 2882.81,-503.04 2827.58,-503.04 2788.53,-487.79 2788.53,-466.21 2827.58,-450.96 2882.81,-450.96 2921.87,-466.21"/>
<polygon fill="none" stroke="black" points="2925.87,-463.48 2925.87,-490.52 2883.57,-507.04 2826.83,-507.04 2784.53,-490.52 2784.53,-463.48 2826.83,-446.96 2883.57,-446.96 2925.87,-463.48"/>
<text text-anchor="middle" x="2855.2" y="-470.8" font-family="Times,serif" font-size="24.00">version</text>
</a>
</g>
</g>
<!-- statictea&#45;&gt;version -->
<g id="edge102" class="edge">
<title>statictea&#45;&gt;version</title>
<path fill="none" stroke="black" d="M1394.62,-1528.28C1425.08,-1517.96 1459.92,-1507.05 1492.2,-1499 1803.83,-1421.33 2916.2,-1573.17 2916.2,-1252 2916.2,-1252 2916.2,-1252 2916.2,-838 2916.2,-720.25 2884.08,-583.84 2866.46,-517.84"/>
<polygon fill="black" stroke="black" points="2869.94,-517.31 2863.95,-508.58 2863.18,-519.14 2869.94,-517.31"/>
</g>
<!-- unicodes&#45;&gt;messages -->
<g id="edge41" class="edge">
<title>unicodes&#45;&gt;messages</title>
<path fill="none" stroke="black" d="M1975.6,-452.96C1992.12,-419.11 2017.4,-354.22 2000.2,-301.06 1975.62,-225.12 1917.34,-152.99 1874.76,-107.55"/>
<polygon fill="black" stroke="black" points="1877.47,-105.32 1868.05,-100.47 1872.39,-110.14 1877.47,-105.32"/>
</g>
<!-- unicodes&#45;&gt;opresult -->
<g id="edge40" class="edge">
<title>unicodes&#45;&gt;opresult</title>
<path fill="none" stroke="black" d="M1974.12,-452.93C1989.63,-416.38 2012.47,-344.83 1977.2,-301.06 1930.51,-243.11 1715.62,-217.27 1598.63,-207.34"/>
<polygon fill="black" stroke="black" points="1599.04,-203.86 1588.78,-206.52 1598.46,-210.83 1599.04,-203.86"/>
</g>
<!-- unicodes&#45;&gt;utf8decoder -->
<g id="edge42" class="edge">
<title>unicodes&#45;&gt;utf8decoder</title>
<path fill="none" stroke="black" d="M1947.07,-453.19C1932.06,-431.97 1909.38,-399.89 1891.54,-374.67"/>
<polygon fill="black" stroke="black" points="1894.47,-372.75 1885.84,-366.61 1888.76,-376.79 1894.47,-372.75"/>
</g>
<!-- unicodes&#45;&gt;vartypes -->
<g id="edge43" class="edge">
<title>unicodes&#45;&gt;vartypes</title>
<path fill="none" stroke="black" d="M1997.62,-455.49C2034.96,-433.25 2095.2,-397.36 2139.94,-370.71"/>
<polygon fill="black" stroke="black" points="2141.7,-373.73 2148.5,-365.61 2138.12,-367.72 2141.7,-373.73"/>
</g>
<!-- updateTemplate&#45;&gt;args -->
<g id="edge87" class="edge">
<title>updateTemplate&#45;&gt;args</title>
<path fill="none" stroke="black" d="M953.23,-1364.07C835.78,-1340.98 642.1,-1282.23 566.2,-1139.52 481.24,-979.77 519.19,-750.33 537.95,-664.3"/>
<polygon fill="black" stroke="black" points="541.35,-665.14 540.12,-654.61 534.52,-663.61 541.35,-665.14"/>
</g>
<!-- updateTemplate&#45;&gt;env -->
<g id="edge89" class="edge">
<title>updateTemplate&#45;&gt;env</title>
<path fill="none" stroke="black" d="M941.78,-1367.76C878.28,-1355.86 801.44,-1330.23 756.2,-1275.04 658.58,-1155.97 676.35,-954.25 688.24,-874.21"/>
<polygon fill="black" stroke="black" points="691.62,-875.22 689.7,-864.8 684.71,-874.14 691.62,-875.22"/>
</g>
<!-- updateTemplate&#45;&gt;linebuffer -->
<g id="edge90" class="edge">
<title>updateTemplate&#45;&gt;linebuffer</title>
<path fill="none" stroke="black" d="M1056.42,-1354.72C1063.76,-1333.86 1074.78,-1302.44 1084.2,-1275.04 1134.16,-1129.71 1192.23,-956.57 1217.87,-879.91"/>
<polygon fill="black" stroke="black" points="1221.08,-881.34 1220.93,-870.75 1214.44,-879.12 1221.08,-881.34"/>
</g>
<!-- updateTemplate&#45;&gt;messages -->
<g id="edge88" class="edge">
<title>updateTemplate&#45;&gt;messages</title>
<path fill="none" stroke="black" d="M929.38,-1375.85C826.53,-1368.83 677.65,-1345.82 569.2,-1275.04 259.06,-1072.64 326.2,-848.34 326.2,-478 326.2,-478 326.2,-478 326.2,-334 326.2,-239.9 383.93,-218.83 468.2,-176.96 680.94,-71.24 1395.61,-58.81 1693.31,-58.35"/>
<polygon fill="black" stroke="black" points="1693.07,-61.85 1703.07,-58.34 1693.06,-54.85 1693.07,-61.85"/>
</g>
<!-- updateTemplate&#45;&gt;opresult -->
<g id="edge97" class="edge">
<title>updateTemplate&#45;&gt;opresult</title>
<path fill="none" stroke="black" d="M939.02,-1368.96C851.85,-1357.62 729.46,-1332.14 637.2,-1275.04 569.78,-1233.32 550.61,-1213.14 521.2,-1139.52 430.23,-911.78 386.7,-807.19 497.2,-588.26 594.03,-396.41 687.86,-383.8 886.2,-301.06 1075.97,-221.89 1321.52,-205.35 1444.62,-202.31"/>
<polygon fill="black" stroke="black" points="1444.35,-205.82 1454.27,-202.1 1444.19,-198.82 1444.35,-205.82"/>
</g>
<!-- updateTemplate&#45;&gt;parseCmdLine -->
<g id="edge91" class="edge">
<title>updateTemplate&#45;&gt;parseCmdLine</title>
<path fill="none" stroke="black" d="M1053.6,-1354.55C1066.1,-1296.71 1094.4,-1142.74 1073.2,-1016.48 1064.58,-965.13 1042.76,-908.75 1027.7,-873.86"/>
<polygon fill="black" stroke="black" points="1030.91,-872.45 1023.68,-864.7 1024.5,-875.27 1030.91,-872.45"/>
</g>
<!-- updateTemplate&#45;&gt;replacement -->
<g id="edge95" class="edge">
<title>updateTemplate&#45;&gt;replacement</title>
<path fill="none" stroke="black" d="M1018.44,-1355.49C996.3,-1336.74 967.83,-1307.86 955.2,-1275.04 934.57,-1221.42 947.13,-1153.53 958.15,-1113.33"/>
<polygon fill="black" stroke="black" points="961.51,-1114.31 960.92,-1103.73 954.78,-1112.37 961.51,-1114.31"/>
</g>
<!-- updateTemplate&#45;&gt;runCommand -->
<g id="edge92" class="edge">
<title>updateTemplate&#45;&gt;runCommand</title>
<path fill="none" stroke="black" d="M1100.11,-1356.86C1210.9,-1311.72 1473.87,-1204.6 1639.02,-1137.32"/>
<polygon fill="black" stroke="black" points="1639.92,-1140.74 1647.86,-1133.72 1637.28,-1134.25 1639.92,-1140.74"/>
</g>
<!-- updateTemplate&#45;&gt;startingvars -->
<g id="edge96" class="edge">
<title>updateTemplate&#45;&gt;startingvars</title>
<path fill="none" stroke="black" d="M1124.43,-1360.02C1141.74,-1356.17 1160.07,-1352.27 1177.2,-1348.98 1359.1,-1313.97 1573.46,-1281.72 1691.96,-1264.67"/>
<polygon fill="black" stroke="black" points="1692.23,-1268.17 1701.63,-1263.28 1691.23,-1261.24 1692.23,-1268.17"/>
</g>
<!-- updateTemplate&#45;&gt;variables -->
<g id="edge93" class="edge">
<title>updateTemplate&#45;&gt;variables</title>
<path fill="none" stroke="black" d="M1120.82,-1359.5C1139.11,-1355.44 1158.79,-1351.58 1177.2,-1348.98 1313.75,-1329.67 2304.65,-1356.14 2416.2,-1275.04 2616.08,-1129.71 2595.71,-776.75 2583.63,-664.72"/>
<polygon fill="black" stroke="black" points="2587.13,-664.51 2582.52,-654.96 2580.17,-665.29 2587.13,-664.51"/>
</g>
<!-- updateTemplate&#45;&gt;vartypes -->
<g id="edge94" class="edge">
<title>updateTemplate&#45;&gt;vartypes</title>
<path fill="none" stroke="black" d="M1122.26,-1359.78C1140.17,-1355.81 1159.3,-1351.92 1177.2,-1348.98 1647.19,-1271.73 1865.91,-1448.71 2228.2,-1139.52 2361.74,-1025.55 2386.91,-942.24 2363.2,-768.29 2342.95,-619.7 2323.28,-583.03 2260.2,-446.98 2249.4,-423.68 2235.61,-398.64 2223.78,-378.25"/>
<polygon fill="black" stroke="black" points="2226.81,-376.51 2218.74,-369.65 2220.78,-380.05 2226.81,-376.51"/>
</g>
<!-- variables&#45;&gt;messages -->
<g id="edge32" class="edge">
<title>variables&#45;&gt;messages</title>
<path fill="none" stroke="black" d="M2586.04,-604.69C2606.17,-530.74 2656.86,-299.13 2542.2,-176.96 2464.56,-94.24 2142.1,-69.53 1957.15,-62.14"/>
<polygon fill="black" stroke="black" points="1957.35,-58.65 1947.23,-61.76 1957.08,-65.64 1957.35,-58.65"/>
</g>
<!-- variables&#45;&gt;opresult -->
<g id="edge33" class="edge">
<title>variables&#45;&gt;opresult</title>
<path fill="none" stroke="black" d="M2580.09,-604.58C2580.34,-567.7 2576.02,-495.35 2542.2,-446.98 2471.31,-345.61 2421.86,-342.18 2305.2,-301.06 2058.43,-214.08 1744.15,-201.75 1600.37,-201.09"/>
<polygon fill="black" stroke="black" points="1600.59,-197.59 1590.58,-201.07 1600.57,-204.59 1600.59,-197.59"/>
</g>
<!-- variables&#45;&gt;vartypes -->
<g id="edge30" class="edge">
<title>variables&#45;&gt;vartypes</title>
<path fill="none" stroke="black" d="M2576.43,-604.61C2570.7,-566.45 2554.09,-490.71 2509.2,-446.98 2452.8,-392.03 2367.39,-364.1 2300.34,-350.01"/>
<polygon fill="black" stroke="black" points="2301.3,-346.64 2290.8,-348.09 2299.91,-353.5 2301.3,-346.64"/>
</g>
<!-- variables&#45;&gt;version -->
<g id="edge31" class="edge">
<title>variables&#45;&gt;version</title>
<path fill="none" stroke="black" d="M2616.14,-607.93C2663.98,-581.92 2747.71,-536.42 2802.29,-506.75"/>
<polygon fill="black" stroke="black" points="2803.69,-509.98 2810.8,-502.13 2800.35,-503.83 2803.69,-509.98"/>
</g>
<!-- vartypes&#45;&gt;messages -->
<g id="edge26" class="edge">
<title>vartypes&#45;&gt;messages</title>
<path fill="none" stroke="black" d="M2181.64,-301.24C2162.66,-266.47 2128.63,-211.83 2086.2,-176.96 2039.12,-138.27 1977.3,-109.59 1925.64,-90.2"/>
<polygon fill="black" stroke="black" points="1927.13,-87.02 1916.54,-86.85 1924.71,-93.59 1927.13,-87.02"/>
</g>
<!-- vartypes&#45;&gt;opresult -->
<g id="edge27" class="edge">
<title>vartypes&#45;&gt;opresult</title>
<path fill="none" stroke="black" d="M2113.95,-317.55C1978.72,-291.14 1715.79,-239.8 1591.05,-215.45"/>
<polygon fill="black" stroke="black" points="1591.76,-212.02 1581.27,-213.53 1590.41,-218.89 1591.76,-212.02"/>
</g>
</g>
</svg>
