<?xml version="1.0" encoding="UTF-8" standalone="no"?>
<!DOCTYPE svg PUBLIC "-//W3C//DTD SVG 1.1//EN"
 "http://www.w3.org/Graphics/SVG/1.1/DTD/svg11.dtd">
<!-- Generated by graphviz version 7.0.1 (20221109.1506)
 -->
<!-- Title: statictea Pages: 1 -->
<svg width="3146pt" height="1473pt"
 viewBox="0.00 0.00 3146.00 1473.40" xmlns="http://www.w3.org/2000/svg" xmlns:xlink="http://www.w3.org/1999/xlink">
<g id="graph0" class="graph" transform="scale(1 1) rotate(0) translate(4 1469.4)">
<title>statictea</title>
<polygon fill="white" stroke="none" points="-4,4 -4,-1469.4 3142,-1469.4 3142,4 -4,4"/>
<!-- args -->
<g id="node1" class="node">
<title>args</title>
<g id="a_node1"><a xlink:href="html/args.html" xlink:title="args.md">
<ellipse fill="palegoldenrod" stroke="black" cx="502" cy="-539" rx="39.7" ry="24.08"/>
<text text-anchor="middle" x="502" y="-532.8" font-family="Times,serif" font-size="24.00">args</text>
</a>
</g>
</g>
<!-- messages -->
<g id="node9" class="node">
<title>messages</title>
<g id="a_node9"><a xlink:href="html/messages.html" xlink:title="messages.md">
<polygon fill="palegreen" stroke="black" points="1898.25,-28.21 1898.25,-49.79 1850.66,-65.04 1783.34,-65.04 1735.75,-49.79 1735.75,-28.21 1783.34,-12.96 1850.66,-12.96 1898.25,-28.21"/>
<polygon fill="none" stroke="black" points="1902.26,-25.29 1902.26,-52.71 1851.28,-69.04 1782.72,-69.04 1731.74,-52.71 1731.74,-25.29 1782.72,-8.96 1851.28,-8.96 1902.26,-25.29"/>
<text text-anchor="middle" x="1817" y="-32.8" font-family="Times,serif" font-size="24.00">messages</text>
</a>
</g>
</g>
<!-- args&#45;&gt;messages -->
<g id="edge1" class="edge">
<title>args&#45;&gt;messages</title>
<path fill="none" stroke="black" d="M496.46,-514.93C481.29,-445.44 447.11,-236.66 556,-133.96 640.08,-54.66 1439.08,-42.24 1719.95,-40.34"/>
<polygon fill="black" stroke="black" points="1719.83,-43.84 1729.81,-40.27 1719.79,-36.84 1719.83,-43.84"/>
</g>
<!-- opresult -->
<g id="node10" class="node">
<title>opresult</title>
<g id="a_node10"><a xlink:href="html/opresult.html" xlink:title="opresult.md">
<ellipse fill="palegoldenrod" stroke="black" cx="1736" cy="-158" rx="66.44" ry="24.08"/>
<text text-anchor="middle" x="1736" y="-151.8" font-family="Times,serif" font-size="24.00">opresult</text>
</a>
</g>
</g>
<!-- args&#45;&gt;opresult -->
<g id="edge3" class="edge">
<title>args&#45;&gt;opresult</title>
<path fill="none" stroke="black" d="M520.99,-517.49C573.46,-462.36 727.34,-310.81 890,-247.06 1029.14,-192.52 1477.13,-169.18 1658.59,-161.79"/>
<polygon fill="black" stroke="black" points="1658.53,-165.3 1668.38,-161.4 1658.25,-158.3 1658.53,-165.3"/>
</g>
<!-- cmdline -->
<g id="node2" class="node">
<title>cmdline</title>
<g id="a_node2"><a xlink:href="html/cmdline.html" xlink:title="cmdline.md">
<polygon fill="palegreen" stroke="black" points="321.89,-528.21 321.89,-549.79 279.78,-565.04 220.22,-565.04 178.11,-549.79 178.11,-528.21 220.22,-512.96 279.78,-512.96 321.89,-528.21"/>
<polygon fill="none" stroke="black" points="325.89,-525.4 325.89,-552.6 280.48,-569.04 219.52,-569.04 174.11,-552.6 174.11,-525.4 219.52,-508.96 280.48,-508.96 325.89,-525.4"/>
<text text-anchor="middle" x="250" y="-532.8" font-family="Times,serif" font-size="24.00">cmdline</text>
</a>
</g>
</g>
<!-- comparelines -->
<g id="node3" class="node">
<title>comparelines</title>
<g id="a_node3"><a xlink:href="html/comparelines.html" xlink:title="comparelines.md">
<polygon fill="palegreen" stroke="black" points="959.42,-1374.21 959.42,-1395.79 894.74,-1411.04 803.26,-1411.04 738.58,-1395.79 738.58,-1374.21 803.26,-1358.96 894.74,-1358.96 959.42,-1374.21"/>
<polygon fill="none" stroke="black" points="963.43,-1371.05 963.43,-1398.95 895.2,-1415.04 802.8,-1415.04 734.57,-1398.95 734.57,-1371.05 802.8,-1354.96 895.2,-1354.96 963.43,-1371.05"/>
<text text-anchor="middle" x="849" y="-1378.8" font-family="Times,serif" font-size="24.00">comparelines</text>
</a>
</g>
</g>
<!-- env -->
<g id="node4" class="node">
<title>env</title>
<g id="a_node4"><a xlink:href="html/env.html" xlink:title="env.md">
<ellipse fill="palegoldenrod" stroke="black" cx="722" cy="-719" rx="36.12" ry="24.08"/>
<text text-anchor="middle" x="722" y="-712.8" font-family="Times,serif" font-size="24.00">env</text>
</a>
</g>
</g>
<!-- env&#45;&gt;messages -->
<g id="edge13" class="edge">
<title>env&#45;&gt;messages</title>
<path fill="none" stroke="black" d="M706.74,-696.7C682.42,-662.35 636.64,-595.87 627,-569.02 603.54,-503.69 608,-483.41 608,-414 608,-414 608,-414 608,-280 608,-181.07 684.98,-172.74 776,-133.96 944.6,-62.12 1495.21,-45.15 1720.05,-41.19"/>
<polygon fill="black" stroke="black" points="1720.03,-44.69 1729.97,-41.02 1719.91,-37.69 1720.03,-44.69"/>
</g>
<!-- tempFile -->
<g id="node25" class="node">
<title>tempFile</title>
<g id="a_node25"><a xlink:href="html/tempFile.html" xlink:title="tempFile.md">
<polygon fill="palegreen" stroke="black" points="796.13,-528.21 796.13,-549.79 750.36,-565.04 685.64,-565.04 639.87,-549.79 639.87,-528.21 685.64,-512.96 750.36,-512.96 796.13,-528.21"/>
<polygon fill="none" stroke="black" points="800.13,-525.33 800.13,-552.67 751.01,-569.04 684.99,-569.04 635.87,-552.67 635.87,-525.33 684.99,-508.96 751.01,-508.96 800.13,-525.33"/>
<text text-anchor="middle" x="718" y="-532.8" font-family="Times,serif" font-size="24.00">tempFile</text>
</a>
</g>
</g>
<!-- env&#45;&gt;tempFile -->
<g id="edge12" class="edge">
<title>env&#45;&gt;tempFile</title>
<path fill="none" stroke="black" d="M721.48,-694.73C720.83,-665.86 719.71,-616.14 718.92,-580.86"/>
<polygon fill="black" stroke="black" points="722.42,-580.93 718.7,-571.01 715.42,-581.09 722.42,-580.93"/>
</g>
<!-- functions -->
<g id="node5" class="node">
<title>functions</title>
<g id="a_node5"><a xlink:href="html/functions.html" xlink:title="functions.md">
<ellipse fill="palegoldenrod" stroke="black" cx="2035" cy="-719" rx="232.78" ry="70.92"/>
<text text-anchor="middle" x="2035" y="-697.8" font-family="Times,serif" font-size="84.00">functions</text>
</a>
</g>
</g>
<!-- matches -->
<g id="node8" class="node">
<title>matches</title>
<g id="a_node8"><a xlink:href="html/matches.html" xlink:title="matches.md">
<ellipse fill="palegoldenrod" stroke="black" cx="1265" cy="-539" rx="67.35" ry="24.08"/>
<text text-anchor="middle" x="1265" y="-532.8" font-family="Times,serif" font-size="24.00">matches</text>
</a>
</g>
</g>
<!-- functions&#45;&gt;matches -->
<g id="edge39" class="edge">
<title>functions&#45;&gt;matches</title>
<path fill="none" stroke="black" d="M1850.57,-675.36C1683.29,-636.69 1445.92,-581.82 1331.61,-555.4"/>
<polygon fill="black" stroke="black" points="1332.61,-552.04 1322.08,-553.19 1331.03,-558.86 1332.61,-552.04"/>
</g>
<!-- functions&#45;&gt;messages -->
<g id="edge35" class="edge">
<title>functions&#45;&gt;messages</title>
<path fill="none" stroke="black" d="M2091.95,-650.24C2119.69,-608.63 2142.49,-554.73 2119,-508.98 2096.02,-464.22 2064.47,-476.59 2027,-443.02 1970.02,-391.97 1950.82,-380.87 1912,-314.94 1866.67,-237.95 1838.62,-136.06 1825.62,-80.46"/>
<polygon fill="black" stroke="black" points="1829.05,-79.77 1823.41,-70.8 1822.23,-81.33 1829.05,-79.77"/>
</g>
<!-- functions&#45;&gt;opresult -->
<g id="edge48" class="edge">
<title>functions&#45;&gt;opresult</title>
<path fill="none" stroke="black" d="M1945.7,-653.05C1917.97,-629.23 1889.37,-600.35 1869,-569.02 1788.24,-444.81 1752.85,-267.49 1740.95,-193.5"/>
<polygon fill="black" stroke="black" points="1744.41,-192.96 1739.41,-183.62 1737.5,-194.04 1744.41,-192.96"/>
</g>
<!-- parseMarkdown -->
<g id="node13" class="node">
<title>parseMarkdown</title>
<g id="a_node13"><a xlink:href="html/parseMarkdown.html" xlink:title="parseMarkdown.md">
<ellipse fill="palegoldenrod" stroke="black" cx="1548" cy="-539" rx="121.74" ry="24.08"/>
<text text-anchor="middle" x="1548" y="-532.8" font-family="Times,serif" font-size="24.00">parseMarkdown</text>
</a>
</g>
</g>
<!-- functions&#45;&gt;parseMarkdown -->
<g id="edge58" class="edge">
<title>functions&#45;&gt;parseMarkdown</title>
<path fill="none" stroke="black" d="M1886.9,-663.87C1796.27,-630.74 1684.69,-589.96 1614.93,-564.46"/>
<polygon fill="black" stroke="black" points="1616.54,-561.33 1605.95,-561.18 1614.14,-567.9 1616.54,-561.33"/>
</g>
<!-- parseNumber -->
<g id="node14" class="node">
<title>parseNumber</title>
<g id="a_node14"><a xlink:href="html/parseNumber.html" xlink:title="parseNumber.md">
<polygon fill="palegreen" stroke="black" points="2105.98,-528.21 2105.98,-549.79 2040.38,-565.04 1947.62,-565.04 1882.02,-549.79 1882.02,-528.21 1947.62,-512.96 2040.38,-512.96 2105.98,-528.21"/>
<polygon fill="none" stroke="black" points="2109.99,-525.04 2109.99,-552.96 2040.84,-569.04 1947.16,-569.04 1878.01,-552.96 1878.01,-525.04 1947.16,-508.96 2040.84,-508.96 2109.99,-525.04"/>
<text text-anchor="middle" x="1994" y="-532.8" font-family="Times,serif" font-size="24.00">parseNumber</text>
</a>
</g>
</g>
<!-- functions&#45;&gt;parseNumber -->
<g id="edge38" class="edge">
<title>functions&#45;&gt;parseNumber</title>
<path fill="none" stroke="black" d="M2018.85,-647.91C2013.57,-624.97 2007.89,-600.28 2003.29,-580.31"/>
<polygon fill="black" stroke="black" points="2006.71,-579.59 2001.05,-570.63 1999.89,-581.16 2006.71,-579.59"/>
</g>
<!-- readjson -->
<g id="node16" class="node">
<title>readjson</title>
<g id="a_node16"><a xlink:href="html/readjson.html" xlink:title="readjson.md">
<ellipse fill="palegoldenrod" stroke="black" cx="2235" cy="-539" rx="69.09" ry="24.08"/>
<text text-anchor="middle" x="2235" y="-532.8" font-family="Times,serif" font-size="24.00">readjson</text>
</a>
</g>
</g>
<!-- functions&#45;&gt;readjson -->
<g id="edge54" class="edge">
<title>functions&#45;&gt;readjson</title>
<path fill="none" stroke="black" d="M2109.76,-651.47C2141.52,-623.2 2176.91,-591.7 2201.95,-569.42"/>
<polygon fill="black" stroke="black" points="2204.08,-572.21 2209.22,-562.94 2199.42,-566.98 2204.08,-572.21"/>
</g>
<!-- regexes -->
<g id="node17" class="node">
<title>regexes</title>
<g id="a_node17"><a xlink:href="html/regexes.html" xlink:title="regexes.md">
<polygon fill="palegreen" stroke="black" points="1541.23,-402.21 1541.23,-423.79 1501.26,-439.04 1444.74,-439.04 1404.77,-423.79 1404.77,-402.21 1444.74,-386.96 1501.26,-386.96 1541.23,-402.21"/>
<polygon fill="none" stroke="black" points="1545.24,-399.46 1545.24,-426.54 1502,-443.04 1444,-443.04 1400.76,-426.54 1400.76,-399.46 1444,-382.96 1502,-382.96 1545.24,-399.46"/>
<text text-anchor="middle" x="1473" y="-406.8" font-family="Times,serif" font-size="24.00">regexes</text>
</a>
</g>
</g>
<!-- functions&#45;&gt;regexes -->
<g id="edge37" class="edge">
<title>functions&#45;&gt;regexes</title>
<path fill="none" stroke="black" d="M1945.29,-653.13C1882.01,-609.09 1794.21,-551.39 1712,-508.98 1655.93,-480.05 1588.93,-454.12 1540.16,-436.69"/>
<polygon fill="black" stroke="black" points="1541.44,-433.43 1530.85,-433.39 1539.11,-440.03 1541.44,-433.43"/>
</g>
<!-- signatures -->
<g id="node22" class="node">
<title>signatures</title>
<g id="a_node22"><a xlink:href="html/signatures.html" xlink:title="signatures.md">
<ellipse fill="palegoldenrod" stroke="black" cx="2490" cy="-413" rx="79.81" ry="24.08"/>
<text text-anchor="middle" x="2490" y="-406.8" font-family="Times,serif" font-size="24.00">signatures</text>
</a>
</g>
</g>
<!-- functions&#45;&gt;signatures -->
<g id="edge47" class="edge">
<title>functions&#45;&gt;signatures</title>
<path fill="none" stroke="black" d="M2201.1,-669.12C2262.86,-645.54 2330.78,-612.7 2384,-569.02 2425,-535.38 2456.69,-481.89 2474.35,-447.37"/>
<polygon fill="black" stroke="black" points="2477.37,-449.17 2478.7,-438.66 2471.1,-446.05 2477.37,-449.17"/>
</g>
<!-- unicodes -->
<g id="node27" class="node">
<title>unicodes</title>
<g id="a_node27"><a xlink:href="html/unicodes.html" xlink:title="unicodes.md">
<ellipse fill="palegoldenrod" stroke="black" cx="2207" cy="-413" rx="71.34" ry="24.08"/>
<text text-anchor="middle" x="2207" y="-406.8" font-family="Times,serif" font-size="24.00">unicodes</text>
</a>
</g>
</g>
<!-- functions&#45;&gt;unicodes -->
<g id="edge44" class="edge">
<title>functions&#45;&gt;unicodes</title>
<path fill="none" stroke="black" d="M2196.32,-667.59C2242.06,-645 2286.56,-613.19 2313,-569.02 2326.71,-546.13 2323.88,-533.34 2313,-508.98 2300.33,-480.62 2274.56,-457.22 2251.59,-440.73"/>
<polygon fill="black" stroke="black" points="2253.77,-437.98 2243.55,-435.18 2249.79,-443.74 2253.77,-437.98"/>
</g>
<!-- variables -->
<g id="node30" class="node">
<title>variables</title>
<g id="a_node30"><a xlink:href="html/variables.html" xlink:title="variables.md">
<ellipse fill="palegoldenrod" stroke="black" cx="2775" cy="-539" rx="72.66" ry="24.08"/>
<text text-anchor="middle" x="2775" y="-532.8" font-family="Times,serif" font-size="24.00">variables</text>
</a>
</g>
</g>
<!-- functions&#45;&gt;variables -->
<g id="edge55" class="edge">
<title>functions&#45;&gt;variables</title>
<path fill="none" stroke="black" d="M2216.5,-674.34C2374.74,-636.28 2595.75,-583.12 2706.31,-556.52"/>
<polygon fill="black" stroke="black" points="2706.92,-559.98 2715.83,-554.23 2705.29,-553.17 2706.92,-559.98"/>
</g>
<!-- vartypes -->
<g id="node31" class="node">
<title>vartypes</title>
<g id="a_node31"><a xlink:href="html/vartypes.html" xlink:title="vartypes.md">
<ellipse fill="palegoldenrod" stroke="black" cx="2364" cy="-281" rx="97.66" ry="33.88"/>
<text text-anchor="middle" x="2364" y="-272.2" font-family="Times,serif" font-size="36.00">vartypes</text>
</a>
</g>
</g>
<!-- functions&#45;&gt;vartypes -->
<g id="edge36" class="edge">
<title>functions&#45;&gt;vartypes</title>
<path fill="none" stroke="black" d="M2205.33,-670.38C2254.43,-647.89 2302.4,-615.43 2331,-569.02 2345,-546.3 2331.2,-535.66 2331,-508.98 2330.58,-452.98 2320.95,-438.24 2330,-382.98 2333.17,-363.63 2339.54,-342.99 2345.93,-325.45"/>
<polygon fill="black" stroke="black" points="2349.09,-326.97 2349.34,-316.38 2342.54,-324.51 2349.09,-326.97"/>
</g>
<!-- gethelp -->
<g id="node6" class="node">
<title>gethelp</title>
<g id="a_node6"><a xlink:href="html/gethelp.html" xlink:title="gethelp.md">
<polygon fill="palegreen" stroke="black" points="332.67,-1207.21 332.67,-1228.79 293.62,-1244.04 238.38,-1244.04 199.33,-1228.79 199.33,-1207.21 238.38,-1191.96 293.62,-1191.96 332.67,-1207.21"/>
<polygon fill="none" stroke="black" points="336.67,-1204.48 336.67,-1231.52 294.37,-1248.04 237.63,-1248.04 195.33,-1231.52 195.33,-1204.48 237.63,-1187.96 294.37,-1187.96 336.67,-1204.48"/>
<text text-anchor="middle" x="266" y="-1211.8" font-family="Times,serif" font-size="24.00">gethelp</text>
</a>
</g>
</g>
<!-- linebuffer -->
<g id="node7" class="node">
<title>linebuffer</title>
<g id="a_node7"><a xlink:href="html/linebuffer.html" xlink:title="linebuffer.md">
<polygon fill="palegreen" stroke="black" points="1181.91,-402.21 1181.91,-423.79 1132.17,-439.04 1061.83,-439.04 1012.09,-423.79 1012.09,-402.21 1061.83,-386.96 1132.17,-386.96 1181.91,-402.21"/>
<polygon fill="none" stroke="black" points="1185.91,-399.25 1185.91,-426.75 1132.77,-443.04 1061.23,-443.04 1008.09,-426.75 1008.09,-399.25 1061.23,-382.96 1132.77,-382.96 1185.91,-399.25"/>
<text text-anchor="middle" x="1097" y="-406.8" font-family="Times,serif" font-size="24.00">linebuffer</text>
</a>
</g>
</g>
<!-- matches&#45;&gt;regexes -->
<g id="edge7" class="edge">
<title>matches&#45;&gt;regexes</title>
<path fill="none" stroke="red" d="M1298.88,-517.8C1332.31,-497.87 1383.83,-467.16 1422.17,-444.3"/>
<polygon fill="red" stroke="red" points="1423.51,-447.58 1430.31,-439.45 1419.93,-441.56 1423.51,-447.58"/>
</g>
<!-- opresult&#45;&gt;messages -->
<g id="edge2" class="edge">
<title>opresult&#45;&gt;messages</title>
<path fill="none" stroke="red" d="M1751.81,-134.16C1762.71,-118.42 1777.47,-97.1 1790.18,-78.73"/>
<polygon fill="red" stroke="red" points="1792.94,-80.9 1795.76,-70.69 1787.19,-76.92 1792.94,-80.9"/>
</g>
<!-- parseCmdLine -->
<g id="node11" class="node">
<title>parseCmdLine</title>
<g id="a_node11"><a xlink:href="html/parseCmdLine.html" xlink:title="parseCmdLine.md">
<ellipse fill="palegoldenrod" stroke="black" cx="1078" cy="-719" rx="111.95" ry="24.08"/>
<text text-anchor="middle" x="1078" y="-712.8" font-family="Times,serif" font-size="24.00">parseCmdLine</text>
</a>
</g>
</g>
<!-- parseCmdLine&#45;&gt;args -->
<g id="edge20" class="edge">
<title>parseCmdLine&#45;&gt;args</title>
<path fill="none" stroke="black" d="M1015.26,-698.61C898.49,-662.53 650.36,-585.85 547.82,-554.16"/>
<polygon fill="black" stroke="black" points="548.95,-550.85 538.36,-551.24 546.88,-557.53 548.95,-550.85"/>
</g>
<!-- parseCmdLine&#45;&gt;matches -->
<g id="edge18" class="edge">
<title>parseCmdLine&#45;&gt;matches</title>
<path fill="none" stroke="black" d="M1102.06,-695.09C1135.72,-663.06 1196.88,-604.84 1233.94,-569.57"/>
<polygon fill="black" stroke="black" points="1235.98,-572.45 1240.81,-563.02 1231.16,-567.38 1235.98,-572.45"/>
</g>
<!-- parseCmdLine&#45;&gt;messages -->
<g id="edge17" class="edge">
<title>parseCmdLine&#45;&gt;messages</title>
<path fill="none" stroke="black" d="M1053.95,-694.99C980.76,-622.24 772.75,-393.39 890,-247.06 993.45,-117.95 1504.26,-64.02 1720.27,-46.74"/>
<polygon fill="black" stroke="black" points="1720.38,-50.25 1730.07,-45.97 1719.83,-43.27 1720.38,-50.25"/>
</g>
<!-- parseCmdLine&#45;&gt;opresult -->
<g id="edge19" class="edge">
<title>parseCmdLine&#45;&gt;opresult</title>
<path fill="none" stroke="black" d="M1053.01,-695.09C1025.56,-668.06 983.12,-620.28 966,-569.02 943.34,-501.16 918.37,-300.45 966,-247.06 1011.62,-195.92 1472.31,-170.41 1658.52,-162.12"/>
<polygon fill="black" stroke="black" points="1658.5,-165.62 1668.34,-161.69 1658.2,-158.63 1658.5,-165.62"/>
</g>
<!-- parseCmdLine&#45;&gt;regexes -->
<g id="edge16" class="edge">
<title>parseCmdLine&#45;&gt;regexes</title>
<path fill="none" stroke="black" d="M1084.15,-694.56C1096.63,-651.56 1128.96,-559.83 1189,-508.98 1245.77,-460.9 1327.81,-436.89 1389.13,-425.07"/>
<polygon fill="black" stroke="black" points="1389.64,-428.54 1398.84,-423.28 1388.37,-421.65 1389.64,-428.54"/>
</g>
<!-- parseCommandLine -->
<g id="node12" class="node">
<title>parseCommandLine</title>
<g id="a_node12"><a xlink:href="html/parseCommandLine.html" xlink:title="parseCommandLine.md">
<ellipse fill="palegoldenrod" stroke="black" cx="177" cy="-719" rx="149.4" ry="24.08"/>
<text text-anchor="middle" x="177" y="-712.8" font-family="Times,serif" font-size="24.00">parseCommandLine</text>
</a>
</g>
</g>
<!-- parseCommandLine&#45;&gt;args -->
<g id="edge4" class="edge">
<title>parseCommandLine&#45;&gt;args</title>
<path fill="none" stroke="black" d="M218.16,-695.46C281.42,-660.81 401.69,-594.94 463.39,-561.15"/>
<polygon fill="black" stroke="black" points="464.71,-564.42 471.8,-556.54 461.35,-558.28 464.71,-564.42"/>
</g>
<!-- parseCommandLine&#45;&gt;cmdline -->
<g id="edge6" class="edge">
<title>parseCommandLine&#45;&gt;cmdline</title>
<path fill="none" stroke="black" d="M186.54,-694.73C198.49,-665.61 219.13,-615.27 233.62,-579.94"/>
<polygon fill="black" stroke="black" points="236.77,-581.48 237.33,-570.9 230.3,-578.82 236.77,-581.48"/>
</g>
<!-- parseCommandLine&#45;&gt;matches -->
<g id="edge8" class="edge">
<title>parseCommandLine&#45;&gt;matches</title>
<path fill="none" stroke="black" d="M279.85,-701.17C498.65,-665.38 1005.61,-582.44 1193.37,-551.72"/>
<polygon fill="black" stroke="black" points="1193.67,-555.22 1202.98,-550.15 1192.54,-548.31 1193.67,-555.22"/>
</g>
<!-- parseCommandLine&#45;&gt;messages -->
<g id="edge5" class="edge">
<title>parseCommandLine&#45;&gt;messages</title>
<path fill="none" stroke="black" d="M172.95,-694.43C164.54,-643.45 146,-519.04 146,-414 146,-414 146,-414 146,-280 146,-172.08 238.78,-171.41 340,-133.96 468.8,-86.3 1412.61,-52.71 1720.31,-42.93"/>
<polygon fill="black" stroke="black" points="1720.02,-46.44 1729.91,-42.63 1719.8,-39.45 1720.02,-46.44"/>
</g>
<!-- parseMarkdown&#45;&gt;linebuffer -->
<g id="edge56" class="edge">
<title>parseMarkdown&#45;&gt;linebuffer</title>
<path fill="none" stroke="black" d="M1478.52,-518.9C1397.33,-496.57 1263.21,-459.7 1177.54,-436.14"/>
<polygon fill="black" stroke="black" points="1178.59,-432.8 1168.02,-433.53 1176.73,-439.55 1178.59,-432.8"/>
</g>
<!-- parseMarkdown&#45;&gt;regexes -->
<g id="edge57" class="edge">
<title>parseMarkdown&#45;&gt;regexes</title>
<path fill="none" stroke="black" d="M1533.89,-514.68C1523.39,-497.31 1508.81,-473.21 1496.55,-452.94"/>
<polygon fill="black" stroke="black" points="1499.7,-451.39 1491.53,-444.64 1493.71,-455.01 1499.7,-451.39"/>
</g>
<!-- processTemplate -->
<g id="node15" class="node">
<title>processTemplate</title>
<g id="a_node15"><a xlink:href="html/processTemplate.html" xlink:title="processTemplate.md">
<ellipse fill="palegoldenrod" stroke="black" cx="923" cy="-1218" rx="124.4" ry="24.08"/>
<text text-anchor="middle" x="923" y="-1211.8" font-family="Times,serif" font-size="24.00">processTemplate</text>
</a>
</g>
</g>
<!-- processTemplate&#45;&gt;args -->
<g id="edge10" class="edge">
<title>processTemplate&#45;&gt;args</title>
<path fill="none" stroke="black" d="M840.71,-1199.62C745.29,-1174.46 593.07,-1117.58 530,-1001.52 490.16,-928.21 496.56,-669.62 500.37,-575.01"/>
<polygon fill="black" stroke="black" points="503.87,-575.19 500.79,-565.05 496.88,-574.9 503.87,-575.19"/>
</g>
<!-- processTemplate&#45;&gt;env -->
<g id="edge14" class="edge">
<title>processTemplate&#45;&gt;env</title>
<path fill="none" stroke="black" d="M872.77,-1195.62C806.2,-1164.17 691.62,-1098.48 644,-1001.52 601.8,-915.6 664.23,-803.34 699.94,-750.29"/>
<polygon fill="black" stroke="black" points="702.63,-752.56 705.41,-742.34 696.86,-748.59 702.63,-752.56"/>
</g>
<!-- processTemplate&#45;&gt;linebuffer -->
<g id="edge15" class="edge">
<title>processTemplate&#45;&gt;linebuffer</title>
<path fill="none" stroke="black" d="M946.78,-1193.92C1006.23,-1134.1 1159.39,-966.36 1199,-789.71 1212.75,-728.38 1223.19,-706.3 1199,-648.29 1179.74,-602.09 1141.47,-613.75 1119,-569.02 1101.02,-533.22 1096.45,-487.25 1095.81,-454.69"/>
<polygon fill="black" stroke="black" points="1099.31,-454.84 1095.74,-444.86 1092.31,-454.89 1099.31,-454.84"/>
</g>
<!-- processTemplate&#45;&gt;messages -->
<g id="edge11" class="edge">
<title>processTemplate&#45;&gt;messages</title>
<path fill="none" stroke="black" d="M809.41,-1207.79C653.43,-1188.24 392,-1127.62 392,-941 392,-941 392,-941 392,-718 392,-452.64 300.15,-288.31 516,-133.96 613.25,-64.42 1435.37,-45.67 1720.27,-41.24"/>
<polygon fill="black" stroke="black" points="1719.93,-44.74 1729.88,-41.09 1719.83,-37.74 1719.93,-44.74"/>
</g>
<!-- processTemplate&#45;&gt;opresult -->
<g id="edge89" class="edge">
<title>processTemplate&#45;&gt;opresult</title>
<path fill="none" stroke="black" d="M815.57,-1205.59C745.97,-1193.97 656.11,-1170.65 589,-1124.04 368.04,-970.59 430,-809.02 430,-540 430,-540 430,-540 430,-412 430,-247.64 602.86,-291.88 761,-247.06 929.63,-199.27 1459.39,-171.33 1658.94,-162.27"/>
<polygon fill="black" stroke="black" points="1658.84,-165.78 1668.67,-161.83 1658.52,-158.79 1658.84,-165.78"/>
</g>
<!-- processTemplate&#45;&gt;parseCmdLine -->
<g id="edge21" class="edge">
<title>processTemplate&#45;&gt;parseCmdLine</title>
<path fill="none" stroke="black" d="M934.18,-1193.73C948.52,-1164.87 975.02,-1114.76 1004,-1075.96 1031.36,-1039.33 1057.78,-1043.87 1075,-1001.52 1108.88,-918.21 1095.61,-809.22 1085.46,-754.51"/>
<polygon fill="black" stroke="black" points="1088.93,-754.01 1083.59,-744.86 1082.06,-755.34 1088.93,-754.01"/>
</g>
<!-- replacement -->
<g id="node19" class="node">
<title>replacement</title>
<g id="a_node19"><a xlink:href="html/replacement.html" xlink:title="replacement.md">
<ellipse fill="palegoldenrod" stroke="black" cx="971" cy="-940" rx="94.51" ry="24.08"/>
<text text-anchor="middle" x="971" y="-933.8" font-family="Times,serif" font-size="24.00">replacement</text>
</a>
</g>
</g>
<!-- processTemplate&#45;&gt;replacement -->
<g id="edge78" class="edge">
<title>processTemplate&#45;&gt;replacement</title>
<path fill="none" stroke="black" d="M921.9,-1193.84C921.01,-1165.73 920.87,-1117 928,-1075.96 934.14,-1040.61 947.25,-1001.72 957.39,-974.8"/>
<polygon fill="black" stroke="black" points="960.52,-976.4 960.84,-965.81 953.99,-973.89 960.52,-976.4"/>
</g>
<!-- runCommand -->
<g id="node20" class="node">
<title>runCommand</title>
<g id="a_node20"><a xlink:href="html/runCommand.html" xlink:title="runCommand.md">
<ellipse fill="palegoldenrod" stroke="black" cx="1808" cy="-940" rx="292.07" ry="61.54"/>
<text text-anchor="middle" x="1808" y="-921.9" font-family="Times,serif" font-size="72.00">runCommand</text>
</a>
</g>
</g>
<!-- processTemplate&#45;&gt;runCommand -->
<g id="edge66" class="edge">
<title>processTemplate&#45;&gt;runCommand</title>
<path fill="none" stroke="black" d="M983.06,-1196.55C1065.69,-1168.57 1219.19,-1117.13 1351,-1075.96 1441.21,-1047.78 1541.92,-1017.88 1625.79,-993.4"/>
<polygon fill="black" stroke="black" points="1626.64,-996.79 1635.26,-990.63 1624.68,-990.07 1626.64,-996.79"/>
</g>
<!-- startingvars -->
<g id="node23" class="node">
<title>startingvars</title>
<g id="a_node23"><a xlink:href="html/startingvars.html" xlink:title="startingvars.md">
<ellipse fill="palegoldenrod" stroke="black" cx="1451" cy="-1100" rx="90.52" ry="24.08"/>
<text text-anchor="middle" x="1451" y="-1093.8" font-family="Times,serif" font-size="24.00">startingvars</text>
</a>
</g>
</g>
<!-- processTemplate&#45;&gt;startingvars -->
<g id="edge88" class="edge">
<title>processTemplate&#45;&gt;startingvars</title>
<path fill="none" stroke="black" d="M1003.77,-1199.26C1103.49,-1177.35 1272.04,-1140.32 1371.28,-1118.51"/>
<polygon fill="black" stroke="black" points="1371.94,-1121.95 1380.96,-1116.39 1370.44,-1115.12 1371.94,-1121.95"/>
</g>
<!-- processTemplate&#45;&gt;variables -->
<g id="edge67" class="edge">
<title>processTemplate&#45;&gt;variables</title>
<path fill="none" stroke="black" d="M1010.7,-1200.55C1035.92,-1196.12 1063.51,-1191.57 1089,-1187.98 1434.93,-1139.21 2365.34,-1204.04 2650,-1001.52 2789.2,-902.49 2785.38,-664.44 2778.52,-574.87"/>
<polygon fill="black" stroke="black" points="2782.02,-574.67 2777.7,-564.99 2775.04,-575.25 2782.02,-574.67"/>
</g>
<!-- processTemplate&#45;&gt;vartypes -->
<g id="edge68" class="edge">
<title>processTemplate&#45;&gt;vartypes</title>
<path fill="none" stroke="black" d="M1012.07,-1200.83C1036.94,-1196.47 1064,-1191.89 1089,-1187.98 1641.77,-1101.44 1830.87,-1246.28 2334,-1001.52 2499.01,-921.25 2636,-903.5 2636,-720 2636,-720 2636,-720 2636,-538 2636,-467.37 2646.23,-437.23 2601,-382.98 2580.09,-357.9 2505.96,-328.59 2446.11,-308.03"/>
<polygon fill="black" stroke="black" points="2447.52,-304.81 2436.93,-304.91 2445.27,-311.44 2447.52,-304.81"/>
</g>
<!-- readjson&#45;&gt;messages -->
<g id="edge50" class="edge">
<title>readjson&#45;&gt;messages</title>
<path fill="none" stroke="black" d="M2194.83,-519.14C2166.2,-503.28 2129.92,-477.63 2113,-443.02 2074.44,-364.14 2180.01,-324.16 2138,-247.06 2085.95,-151.54 1968.81,-93.42 1891.36,-63.98"/>
<polygon fill="black" stroke="black" points="1892.72,-60.76 1882.13,-60.55 1890.28,-67.32 1892.72,-60.76"/>
</g>
<!-- readjson&#45;&gt;opresult -->
<g id="edge53" class="edge">
<title>readjson&#45;&gt;opresult</title>
<path fill="none" stroke="black" d="M2186.6,-521.54C2142.71,-505.35 2077.38,-478 2027,-443.02 1925.81,-372.78 1919.74,-332.49 1831,-247.06 1810.44,-227.27 1786.92,-205.46 1768.43,-188.5"/>
<polygon fill="black" stroke="black" points="1770.91,-186.02 1761.17,-181.85 1766.18,-191.18 1770.91,-186.02"/>
</g>
<!-- readjson&#45;&gt;unicodes -->
<g id="edge51" class="edge">
<title>readjson&#45;&gt;unicodes</title>
<path fill="none" stroke="black" d="M2229.73,-514.68C2225.51,-495.97 2219.52,-469.45 2214.75,-448.32"/>
<polygon fill="black" stroke="black" points="2218.19,-447.68 2212.58,-438.7 2211.36,-449.22 2218.19,-447.68"/>
</g>
<!-- utf8decoder -->
<g id="node29" class="node">
<title>utf8decoder</title>
<g id="a_node29"><a xlink:href="html/utf8decoder.html" xlink:title="utf8decoder.md">
<polygon fill="palegreen" stroke="black" points="2125.04,-270.21 2125.04,-291.79 2066.44,-307.04 1983.56,-307.04 1924.96,-291.79 1924.96,-270.21 1983.56,-254.96 2066.44,-254.96 2125.04,-270.21"/>
<polygon fill="none" stroke="black" points="2129.03,-267.12 2129.03,-294.88 2066.95,-311.04 1983.05,-311.04 1920.97,-294.88 1920.97,-267.12 1983.05,-250.96 2066.95,-250.96 2129.03,-267.12"/>
<text text-anchor="middle" x="2025" y="-274.8" font-family="Times,serif" font-size="24.00">utf8decoder</text>
</a>
</g>
</g>
<!-- readjson&#45;&gt;utf8decoder -->
<g id="edge52" class="edge">
<title>readjson&#45;&gt;utf8decoder</title>
<path fill="none" stroke="black" d="M2191.47,-520.11C2144.32,-499.86 2073.46,-466.64 2056,-443.02 2030.23,-408.16 2024.15,-357.79 2023.45,-322.71"/>
<polygon fill="black" stroke="black" points="2026.95,-322.94 2023.41,-312.95 2019.95,-322.97 2026.95,-322.94"/>
</g>
<!-- readjson&#45;&gt;vartypes -->
<g id="edge49" class="edge">
<title>readjson&#45;&gt;vartypes</title>
<path fill="none" stroke="black" d="M2199.31,-518.01C2173.91,-501.56 2141.77,-475.67 2127,-443.02 2116,-418.71 2112.29,-405.24 2127,-382.98 2157.5,-336.83 2213.84,-311.71 2263.94,-298.06"/>
<polygon fill="black" stroke="black" points="2264.59,-301.51 2273.39,-295.62 2262.83,-294.73 2264.59,-301.51"/>
</g>
<!-- repl -->
<g id="node18" class="node">
<title>repl</title>
<g id="a_node18"><a xlink:href="html/repl.html" xlink:title="repl.md">
<ellipse fill="palegoldenrod" stroke="black" cx="2845" cy="-1218" rx="38.37" ry="24.08"/>
<text text-anchor="middle" x="2845" y="-1211.8" font-family="Times,serif" font-size="24.00">repl</text>
</a>
</g>
</g>
<!-- repl&#45;&gt;args -->
<g id="edge112" class="edge">
<title>repl&#45;&gt;args</title>
<path fill="none" stroke="black" d="M2806.4,-1216.48C2580.86,-1213.24 1431.53,-1193.51 1086,-1124.04 927.71,-1092.22 871.76,-1100.24 744,-1001.52 691.61,-961.03 698.03,-932.68 660,-878.48 632.06,-838.67 616.44,-833.85 596,-789.71 568.79,-730.95 584.46,-708.64 561,-648.29 550.53,-621.37 534.71,-592.74 522.09,-571.69"/>
<polygon fill="black" stroke="black" points="525.16,-570.01 516.97,-563.3 519.19,-573.66 525.16,-570.01"/>
</g>
<!-- repl&#45;&gt;env -->
<g id="edge110" class="edge">
<title>repl&#45;&gt;env</title>
<path fill="none" stroke="black" d="M2806.38,-1216.93C2634.89,-1216.12 1925.45,-1207.61 1351,-1124.04 1291.08,-1115.33 865.07,-1041.96 820,-1001.52 747.39,-936.37 728.57,-814.51 723.7,-754.79"/>
<polygon fill="black" stroke="black" points="727.2,-754.61 722.99,-744.89 720.22,-755.11 727.2,-754.61"/>
</g>
<!-- repl&#45;&gt;matches -->
<g id="edge115" class="edge">
<title>repl&#45;&gt;matches</title>
<path fill="none" stroke="black" d="M2806.49,-1215.89C2606.78,-1209.41 1690,-1170.7 1474,-1001.52 1342.54,-898.55 1419.48,-798.23 1346,-648.29 1332.05,-619.82 1310.28,-591.26 1292.83,-570.62"/>
<polygon fill="black" stroke="black" points="1295.57,-568.44 1286.39,-563.15 1290.27,-573.01 1295.57,-568.44"/>
</g>
<!-- repl&#45;&gt;messages -->
<g id="edge109" class="edge">
<title>repl&#45;&gt;messages</title>
<path fill="none" stroke="black" d="M2866.54,-1198.14C2934.21,-1136.68 3138,-933.85 3138,-720 3138,-720 3138,-720 3138,-280 3138,-155.58 2219.17,-71.76 1914.12,-47.36"/>
<polygon fill="black" stroke="black" points="1914.41,-43.87 1904.17,-46.57 1913.86,-50.85 1914.41,-43.87"/>
</g>
<!-- repl&#45;&gt;opresult -->
<g id="edge113" class="edge">
<title>repl&#45;&gt;opresult</title>
<path fill="none" stroke="black" d="M2850.31,-1193.82C2879.34,-1066.08 3015.68,-451.27 2967,-382.98 2832.17,-193.84 2063.56,-164.4 1814.14,-159.83"/>
<polygon fill="black" stroke="black" points="1814.23,-156.34 1804.17,-159.66 1814.11,-163.33 1814.23,-156.34"/>
</g>
<!-- repl&#45;&gt;regexes -->
<g id="edge116" class="edge">
<title>repl&#45;&gt;regexes</title>
<path fill="none" stroke="black" d="M2807.08,-1213.45C2599.28,-1193.68 1604.44,-1094.63 1507,-1001.52 1436.02,-933.7 1427.05,-666.68 1417,-569.02 1414.27,-542.48 1409.98,-534.72 1417,-508.98 1422.43,-489.06 1433.23,-469.07 1443.9,-452.61"/>
<polygon fill="black" stroke="black" points="1446.61,-454.85 1449.28,-444.6 1440.8,-450.94 1446.61,-454.85"/>
</g>
<!-- repl&#45;&gt;runCommand -->
<g id="edge117" class="edge">
<title>repl&#45;&gt;runCommand</title>
<path fill="none" stroke="black" d="M2852.27,-1193.9C2860.45,-1162.87 2869.1,-1107.95 2840,-1075.96 2790.43,-1021.47 2385.26,-981.63 2097.64,-959.9"/>
<polygon fill="black" stroke="black" points="2097.92,-956.41 2087.69,-959.15 2097.4,-963.39 2097.92,-956.41"/>
</g>
<!-- repl&#45;&gt;startingvars -->
<g id="edge114" class="edge">
<title>repl&#45;&gt;startingvars</title>
<path fill="none" stroke="black" d="M2806.99,-1213.84C2623.53,-1198.57 1827.06,-1132.29 1548.02,-1109.07"/>
<polygon fill="black" stroke="black" points="1548.48,-1105.6 1538.22,-1108.26 1547.9,-1112.58 1548.48,-1105.6"/>
</g>
<!-- repl&#45;&gt;unicodes -->
<g id="edge119" class="edge">
<title>repl&#45;&gt;unicodes</title>
<path fill="none" stroke="black" d="M2858.33,-1195.2C2869.05,-1176.81 2883.8,-1149.49 2893,-1124.04 2911.95,-1071.6 2913.96,-1056.95 2920,-1001.52 2943.89,-782.12 3027.92,-648.59 2857,-508.98 2777.7,-444.21 2502.3,-457.93 2401,-443.02 2361.93,-437.27 2318.46,-430.78 2282.58,-425.39"/>
<polygon fill="black" stroke="black" points="2283.12,-421.94 2272.71,-423.91 2282.08,-428.86 2283.12,-421.94"/>
</g>
<!-- repl&#45;&gt;variables -->
<g id="edge118" class="edge">
<title>repl&#45;&gt;variables</title>
<path fill="none" stroke="black" d="M2852.97,-1194.21C2879.28,-1115.15 2957.27,-846.66 2878,-648.29 2865.11,-616.03 2837.53,-587.89 2814.15,-568.39"/>
<polygon fill="black" stroke="black" points="2816.59,-565.86 2806.61,-562.3 2812.19,-571.31 2816.59,-565.86"/>
</g>
<!-- repl&#45;&gt;vartypes -->
<g id="edge111" class="edge">
<title>repl&#45;&gt;vartypes</title>
<path fill="none" stroke="black" d="M2863.84,-1196.8C2879.49,-1178.96 2901.2,-1151.56 2914,-1124.04 2937.61,-1073.3 2932.75,-1056.53 2943,-1001.52 2993.4,-731.06 3146.72,-591.28 2967,-382.98 2904.3,-310.31 2629.25,-289.92 2473.17,-284.21"/>
<polygon fill="black" stroke="black" points="2473.31,-280.71 2463.2,-283.86 2473.07,-287.71 2473.31,-280.71"/>
</g>
<!-- replacement&#45;&gt;args -->
<g id="edge77" class="edge">
<title>replacement&#45;&gt;args</title>
<path fill="none" stroke="black" d="M934.95,-917.41C895.6,-891.91 833.7,-845.78 800,-789.71 766.75,-734.39 808.88,-697.4 767,-648.29 737.68,-613.9 616.26,-573.72 548.41,-553.33"/>
<polygon fill="black" stroke="black" points="549.64,-550.04 539.05,-550.54 547.64,-556.75 549.64,-550.04"/>
</g>
<!-- replacement&#45;&gt;env -->
<g id="edge69" class="edge">
<title>replacement&#45;&gt;env</title>
<path fill="none" stroke="black" d="M935.73,-917.3C893.84,-890.51 823.21,-842.03 772,-789.71 760.63,-778.09 749.86,-763.7 741.25,-751.02"/>
<polygon fill="black" stroke="black" points="744.38,-749.41 735.95,-743 738.54,-753.27 744.38,-749.41"/>
</g>
<!-- replacement&#45;&gt;linebuffer -->
<g id="edge72" class="edge">
<title>replacement&#45;&gt;linebuffer</title>
<path fill="none" stroke="black" d="M964.98,-915.47C953.2,-865.28 930.45,-744.49 957,-648.29 977.95,-572.39 1030.69,-496.3 1065.13,-452.25"/>
<polygon fill="black" stroke="black" points="1067.77,-454.55 1071.24,-444.54 1062.29,-450.2 1067.77,-454.55"/>
</g>
<!-- replacement&#45;&gt;messages -->
<g id="edge73" class="edge">
<title>replacement&#45;&gt;messages</title>
<path fill="none" stroke="black" d="M957.87,-915.9C908.41,-825.6 741.79,-489.6 855,-247.06 888.11,-176.13 918.07,-164.82 990,-133.96 1119.41,-78.44 1531.09,-53 1720.26,-44.02"/>
<polygon fill="black" stroke="black" points="1720.23,-47.52 1730.05,-43.56 1719.9,-40.53 1720.23,-47.52"/>
</g>
<!-- replacement&#45;&gt;opresult -->
<g id="edge76" class="edge">
<title>replacement&#45;&gt;opresult</title>
<path fill="none" stroke="black" d="M965.77,-915.77C941.8,-806.75 847.53,-346.95 939,-247.06 987.11,-194.52 1467.83,-169.7 1658.59,-161.86"/>
<polygon fill="black" stroke="black" points="1658.55,-165.37 1668.4,-161.46 1658.27,-158.37 1658.55,-165.37"/>
</g>
<!-- replacement&#45;&gt;parseCmdLine -->
<g id="edge71" class="edge">
<title>replacement&#45;&gt;parseCmdLine</title>
<path fill="none" stroke="black" d="M982.25,-915.98C1001.22,-877.14 1039.67,-798.45 1061.63,-753.5"/>
<polygon fill="black" stroke="black" points="1064.67,-755.25 1065.92,-744.73 1058.38,-752.18 1064.67,-755.25"/>
</g>
<!-- replacement&#45;&gt;tempFile -->
<g id="edge75" class="edge">
<title>replacement&#45;&gt;tempFile</title>
<path fill="none" stroke="black" d="M948.09,-916.66C920.9,-889.05 875.78,-839.59 848,-789.71 815.7,-731.72 831.1,-706.93 800,-648.29 786.78,-623.36 768,-598.07 751.75,-578.21"/>
<polygon fill="black" stroke="black" points="754.54,-576.1 745.45,-570.65 749.16,-580.58 754.54,-576.1"/>
</g>
<!-- replacement&#45;&gt;variables -->
<g id="edge74" class="edge">
<title>replacement&#45;&gt;variables</title>
<path fill="none" stroke="black" d="M1055.9,-929C1161.54,-916.65 1347.51,-895.22 1507,-878.48 1710.17,-857.16 2236.28,-874.82 2422,-789.71 2504.71,-751.81 2496.18,-701.47 2570,-648.29 2618.12,-613.62 2678.76,-582.98 2721.57,-563.23"/>
<polygon fill="black" stroke="black" points="2722.76,-566.53 2730.4,-559.19 2719.85,-560.16 2722.76,-566.53"/>
</g>
<!-- replacement&#45;&gt;vartypes -->
<g id="edge70" class="edge">
<title>replacement&#45;&gt;vartypes</title>
<path fill="none" stroke="black" d="M1056.33,-929.32C1346.24,-896.43 2275.51,-790.93 2277,-789.71 2356.68,-724.39 2329.2,-670.33 2348,-569.02 2363.73,-484.27 2365.52,-383.23 2365.02,-326.46"/>
<polygon fill="black" stroke="black" points="2368.52,-326.51 2364.9,-316.55 2361.52,-326.59 2368.52,-326.51"/>
</g>
<!-- runCommand&#45;&gt;env -->
<g id="edge25" class="edge">
<title>runCommand&#45;&gt;env</title>
<path fill="none" stroke="black" d="M1568.54,-904.51C1397.19,-878.01 1161.6,-837.84 957,-789.71 889.07,-773.73 811.75,-749.62 764.93,-734.35"/>
<polygon fill="black" stroke="black" points="766.03,-731.03 755.44,-731.24 763.85,-737.68 766.03,-731.03"/>
</g>
<!-- runCommand&#45;&gt;functions -->
<g id="edge59" class="edge">
<title>runCommand&#45;&gt;functions</title>
<path fill="none" stroke="black" d="M1869.73,-879.45C1896.85,-853.28 1928.99,-822.27 1957.68,-794.59"/>
<polygon fill="black" stroke="black" points="1959.82,-797.39 1964.59,-787.93 1954.96,-792.35 1959.82,-797.39"/>
</g>
<!-- runCommand&#45;&gt;linebuffer -->
<g id="edge22" class="edge">
<title>runCommand&#45;&gt;linebuffer</title>
<path fill="none" stroke="black" d="M1746.17,-879.67C1629.9,-768.44 1386.24,-537.19 1341,-508.98 1289.9,-477.11 1226.35,-452.79 1176.91,-436.74"/>
<polygon fill="black" stroke="black" points="1177.98,-433.4 1167.39,-433.7 1175.85,-440.07 1177.98,-433.4"/>
</g>
<!-- runCommand&#45;&gt;matches -->
<g id="edge23" class="edge">
<title>runCommand&#45;&gt;matches</title>
<path fill="none" stroke="black" d="M1607.88,-894.81C1544.98,-872.37 1479.81,-839 1433,-789.71 1387.29,-741.58 1421.48,-703.74 1385,-648.29 1363.91,-616.24 1331.13,-587.54 1305.15,-567.75"/>
<polygon fill="black" stroke="black" points="1307.24,-564.95 1297.13,-561.78 1303.06,-570.56 1307.24,-564.95"/>
</g>
<!-- runCommand&#45;&gt;messages -->
<g id="edge29" class="edge">
<title>runCommand&#45;&gt;messages</title>
<path fill="none" stroke="black" d="M2068.52,-911.79C2279.4,-886.36 2557.04,-844.18 2656,-789.71 2855.36,-679.98 3089.47,-574.77 2967,-382.98 2825.41,-161.25 2681.86,-209.98 2430,-133.96 2252.46,-80.37 2036.32,-56.36 1913.89,-46.38"/>
<polygon fill="black" stroke="black" points="1914.46,-42.92 1904.22,-45.61 1913.9,-49.89 1914.46,-42.92"/>
</g>
<!-- runCommand&#45;&gt;opresult -->
<g id="edge61" class="edge">
<title>runCommand&#45;&gt;opresult</title>
<path fill="none" stroke="black" d="M1790.02,-878.1C1768.69,-800.37 1736,-661.42 1736,-540 1736,-540 1736,-540 1736,-412 1736,-334.05 1736,-242.6 1736,-193.82"/>
<polygon fill="black" stroke="black" points="1739.5,-193.88 1736,-183.88 1732.5,-193.88 1739.5,-193.88"/>
</g>
<!-- runCommand&#45;&gt;parseCmdLine -->
<g id="edge64" class="edge">
<title>runCommand&#45;&gt;parseCmdLine</title>
<path fill="none" stroke="black" d="M1641.44,-889.03C1487.75,-842.93 1266.63,-776.59 1152.48,-742.34"/>
<polygon fill="black" stroke="black" points="1153.8,-739.09 1143.22,-739.57 1151.79,-745.79 1153.8,-739.09"/>
</g>
<!-- runCommand&#45;&gt;readjson -->
<g id="edge60" class="edge">
<title>runCommand&#45;&gt;readjson</title>
<path fill="none" stroke="black" d="M2019.57,-897.16C2128.39,-870.89 2244.85,-833.68 2277,-789.71 2324.7,-724.47 2282.23,-624.16 2254.5,-572.79"/>
<polygon fill="black" stroke="black" points="2257.66,-571.27 2249.75,-564.22 2251.54,-574.66 2257.66,-571.27"/>
</g>
<!-- runCommand&#45;&gt;regexes -->
<g id="edge24" class="edge">
<title>runCommand&#45;&gt;regexes</title>
<path fill="none" stroke="black" d="M1766.39,-878.65C1750.14,-852.4 1732.84,-820.62 1722,-789.71 1680.23,-670.6 1754.93,-609.81 1679,-508.98 1648.65,-468.66 1597.07,-444.91 1553.11,-431.24"/>
<polygon fill="black" stroke="black" points="1554.16,-427.9 1543.57,-428.41 1552.16,-434.61 1554.16,-427.9"/>
</g>
<!-- runCommand&#45;&gt;signatures -->
<g id="edge65" class="edge">
<title>runCommand&#45;&gt;signatures</title>
<path fill="none" stroke="black" d="M2056.6,-907.42C2214.59,-882.68 2400.24,-843.42 2460,-789.71 2556.14,-703.31 2564.9,-634.97 2536,-508.98 2531,-487.18 2520.31,-464.58 2510.5,-446.9"/>
<polygon fill="black" stroke="black" points="2513.64,-445.34 2505.62,-438.41 2507.57,-448.82 2513.64,-445.34"/>
</g>
<!-- runCommand&#45;&gt;unicodes -->
<g id="edge62" class="edge">
<title>runCommand&#45;&gt;unicodes</title>
<path fill="none" stroke="black" d="M2022.65,-897.95C2137.72,-871.46 2263.43,-833.78 2301,-789.71 2382.4,-694.22 2386.55,-621.49 2331,-508.98 2315.77,-478.12 2285.16,-454.51 2258.17,-438.55"/>
<polygon fill="black" stroke="black" points="2260.16,-435.66 2249.74,-433.77 2256.71,-441.75 2260.16,-435.66"/>
</g>
<!-- runCommand&#45;&gt;utf8decoder -->
<g id="edge63" class="edge">
<title>runCommand&#45;&gt;utf8decoder</title>
<path fill="none" stroke="black" d="M1794.46,-878.11C1783.64,-818.56 1773.24,-725.78 1793,-648.29 1827.47,-513.14 1933.57,-381.75 1989.56,-319.47"/>
<polygon fill="black" stroke="black" points="1991.97,-322.03 1996.1,-312.27 1986.79,-317.32 1991.97,-322.03"/>
</g>
<!-- runCommand&#45;&gt;variables -->
<g id="edge34" class="edge">
<title>runCommand&#45;&gt;variables</title>
<path fill="none" stroke="black" d="M2060.45,-908.76C2249.22,-882.67 2488.8,-841.1 2574,-789.71 2663.09,-735.97 2729.25,-627.55 2758.46,-572.97"/>
<polygon fill="black" stroke="black" points="2761.38,-574.94 2762.94,-564.46 2755.19,-571.68 2761.38,-574.94"/>
</g>
<!-- runCommand&#45;&gt;vartypes -->
<g id="edge28" class="edge">
<title>runCommand&#45;&gt;vartypes</title>
<path fill="none" stroke="black" d="M2055.14,-906.87C2202.84,-882.52 2371.36,-843.92 2422,-789.71 2443.49,-766.71 2471.23,-538.38 2460,-508.98 2445.96,-472.24 2419.09,-477.95 2401,-443.02 2382,-406.34 2372.67,-359.97 2368.14,-326.42"/>
<polygon fill="black" stroke="black" points="2371.63,-326.12 2366.92,-316.63 2364.68,-326.98 2371.63,-326.12"/>
</g>
<!-- runner -->
<g id="node21" class="node">
<title>runner</title>
<g id="a_node21"><a xlink:href="html/runner.html" xlink:title="runner.md">
<polygon fill="palegreen" stroke="black" points="1153.37,-1369.69 1153.37,-1400.31 1103.95,-1421.95 1034.05,-1421.95 984.63,-1400.31 984.63,-1369.69 1034.05,-1348.05 1103.95,-1348.05 1153.37,-1369.69"/>
<polygon fill="none" stroke="black" points="1157.38,-1367.06 1157.38,-1402.94 1104.78,-1425.98 1033.22,-1425.98 980.62,-1402.94 980.62,-1367.06 1033.22,-1344.02 1104.78,-1344.02 1157.38,-1367.06"/>
<text text-anchor="middle" x="1069" y="-1376.2" font-family="Times,serif" font-size="36.00">runner</text>
</a>
</g>
</g>
<!-- signatures&#45;&gt;messages -->
<g id="edge46" class="edge">
<title>signatures&#45;&gt;messages</title>
<path fill="none" stroke="black" d="M2493.34,-388.59C2496.94,-354.59 2498.88,-290.82 2471,-247.06 2419.43,-166.1 2376.35,-169.05 2287,-133.96 2163.33,-85.39 2011.08,-60.85 1914.02,-49.27"/>
<polygon fill="black" stroke="black" points="1914.6,-45.81 1904.26,-48.13 1913.78,-52.76 1914.6,-45.81"/>
</g>
<!-- signatures&#45;&gt;vartypes -->
<g id="edge45" class="edge">
<title>signatures&#45;&gt;vartypes</title>
<path fill="none" stroke="black" d="M2468.05,-389.36C2450.05,-370.78 2424.12,-344.02 2402.65,-321.87"/>
<polygon fill="black" stroke="black" points="2405.19,-319.47 2395.72,-314.72 2400.16,-324.34 2405.19,-319.47"/>
</g>
<!-- startingvars&#45;&gt;args -->
<g id="edge79" class="edge">
<title>startingvars&#45;&gt;args</title>
<path fill="none" stroke="black" d="M1362.59,-1094.44C1206.35,-1084.99 889.11,-1059.15 796,-1001.52 739.27,-966.4 749.02,-932.6 710,-878.48 681.25,-838.6 666.84,-833.24 644,-789.71 613.16,-730.94 629.04,-705.86 596,-648.29 578.57,-617.93 551.93,-588.24 531.45,-567.66"/>
<polygon fill="black" stroke="black" points="534.03,-565.29 524.45,-560.75 529.11,-570.27 534.03,-565.29"/>
</g>
<!-- startingvars&#45;&gt;env -->
<g id="edge81" class="edge">
<title>startingvars&#45;&gt;env</title>
<path fill="none" stroke="black" d="M1368.31,-1089.9C1216.39,-1072.5 904.86,-1033.41 867,-1001.52 822.69,-964.2 850.19,-930.15 824,-878.48 802.36,-835.78 788.71,-830.09 763,-789.71 755.17,-777.4 746.94,-763.6 739.92,-751.55"/>
<polygon fill="black" stroke="black" points="743.14,-750.12 735.11,-743.21 737.08,-753.62 743.14,-750.12"/>
</g>
<!-- startingvars&#45;&gt;functions -->
<g id="edge87" class="edge">
<title>startingvars&#45;&gt;functions</title>
<path fill="none" stroke="black" d="M1449.92,-1075.51C1449.21,-1030.91 1454.26,-933.53 1507,-878.48 1582.7,-799.46 1696.1,-759.42 1798.42,-739.29"/>
<polygon fill="black" stroke="black" points="1798.91,-742.76 1808.08,-737.45 1797.6,-735.88 1798.91,-742.76"/>
</g>
<!-- startingvars&#45;&gt;messages -->
<g id="edge80" class="edge">
<title>startingvars&#45;&gt;messages</title>
<path fill="none" stroke="black" d="M1361.72,-1095.33C1209.28,-1087.44 907.15,-1064.15 824,-1001.52 775.86,-965.26 801.68,-927.77 767,-878.48 734.67,-832.53 706.07,-837.79 677,-789.71 643.01,-733.49 653.79,-710.93 634,-648.29 601.48,-545.36 570,-521.94 570,-414 570,-414 570,-414 570,-280 570,-203.29 596.4,-173.72 662,-133.96 751.48,-79.72 1458.25,-51.59 1719.97,-42.95"/>
<polygon fill="black" stroke="black" points="1719.95,-46.45 1729.83,-42.62 1719.72,-39.45 1719.95,-46.45"/>
</g>
<!-- startingvars&#45;&gt;opresult -->
<g id="edge85" class="edge">
<title>startingvars&#45;&gt;opresult</title>
<path fill="none" stroke="black" d="M1433.74,-1076.12C1420.1,-1057.06 1401.51,-1028.73 1390,-1001.52 1374.25,-964.29 1325.9,-681.6 1303,-648.29 1268.04,-597.44 1217.58,-623.71 1189,-569.02 1176.64,-545.37 1176.19,-532.39 1189,-508.98 1293.98,-317.18 1553.85,-215.12 1673.67,-176.91"/>
<polygon fill="black" stroke="black" points="1674.53,-180.31 1683.02,-173.97 1672.44,-173.63 1674.53,-180.31"/>
</g>
<!-- startingvars&#45;&gt;readjson -->
<g id="edge84" class="edge">
<title>startingvars&#45;&gt;readjson</title>
<path fill="none" stroke="black" d="M1533.63,-1089.91C1698.98,-1071.27 2059.03,-1028.22 2109,-1001.52 2221.06,-941.64 2255.27,-908.25 2301,-789.71 2323.62,-731.07 2317.99,-708.8 2301,-648.29 2293.09,-620.11 2275.59,-591.99 2260.6,-571.47"/>
<polygon fill="black" stroke="black" points="2263.44,-569.42 2254.63,-563.54 2257.85,-573.63 2263.44,-569.42"/>
</g>
<!-- startingvars&#45;&gt;runCommand -->
<g id="edge86" class="edge">
<title>startingvars&#45;&gt;runCommand</title>
<path fill="none" stroke="black" d="M1496.58,-1078.83C1541.09,-1059.13 1611.05,-1028.16 1673.4,-1000.57"/>
<polygon fill="black" stroke="black" points="1674.62,-1003.86 1682.35,-996.61 1671.79,-997.46 1674.62,-1003.86"/>
</g>
<!-- startingvars&#45;&gt;variables -->
<g id="edge82" class="edge">
<title>startingvars&#45;&gt;variables</title>
<path fill="none" stroke="black" d="M1540.91,-1096.43C1792.51,-1088.51 2490.83,-1061.31 2574,-1001.52 2719.69,-896.78 2760.98,-663.19 2771.62,-574.8"/>
<polygon fill="black" stroke="black" points="2775.07,-575.39 2772.72,-565.06 2768.12,-574.6 2775.07,-575.39"/>
</g>
<!-- startingvars&#45;&gt;vartypes -->
<g id="edge83" class="edge">
<title>startingvars&#45;&gt;vartypes</title>
<path fill="none" stroke="black" d="M1532.8,-1089.32C1720.04,-1067.01 2166.12,-1013.05 2197,-1001.52 2356.78,-941.87 2423.31,-932.23 2517,-789.71 2567.22,-713.31 2628.02,-460.16 2579,-382.98 2563.22,-358.13 2498.2,-329.6 2443.75,-309.22"/>
<polygon fill="black" stroke="black" points="2445.04,-305.96 2434.44,-305.78 2442.61,-312.53 2445.04,-305.96"/>
</g>
<!-- statictea -->
<g id="node24" class="node">
<title>statictea</title>
<g id="a_node24"><a xlink:href="html/statictea.html" xlink:title="statictea.md">
<polygon fill="palegoldenrod" stroke="black" points="544,-1446 371,-1385 544,-1324 717,-1385 544,-1446"/>
<text text-anchor="middle" x="544" y="-1373.1" font-family="Times,serif" font-size="48.00">statictea</text>
</a>
</g>
</g>
<!-- statictea&#45;&gt;args -->
<g id="edge103" class="edge">
<title>statictea&#45;&gt;args</title>
<path fill="none" stroke="black" d="M535.82,-1326.47C525.54,-1251.76 508.28,-1117.19 500,-1001.52 493.28,-907.58 495.33,-883.88 494,-789.71 493.11,-726.86 491.68,-711.1 494,-648.29 494.91,-623.61 496.98,-595.83 498.79,-574.58"/>
<polygon fill="black" stroke="black" points="502.27,-574.98 499.66,-564.72 495.3,-574.37 502.27,-574.98"/>
</g>
<!-- statictea&#45;&gt;env -->
<g id="edge107" class="edge">
<title>statictea&#45;&gt;env</title>
<path fill="none" stroke="black" d="M546.31,-1324.54C551.66,-1228.1 569.18,-1032.84 626,-878.48 643.75,-830.27 676.72,-780.53 699.01,-749.93"/>
<polygon fill="black" stroke="black" points="701.8,-752.04 704.94,-741.91 696.18,-747.87 701.8,-752.04"/>
</g>
<!-- statictea&#45;&gt;gethelp -->
<g id="edge105" class="edge">
<title>statictea&#45;&gt;gethelp</title>
<path fill="none" stroke="black" d="M480.22,-1346.15C430.64,-1316.72 362.78,-1276.44 316.83,-1249.17"/>
<polygon fill="black" stroke="black" points="318.77,-1246.25 308.38,-1244.15 315.2,-1252.27 318.77,-1246.25"/>
</g>
<!-- statictea&#45;&gt;messages -->
<g id="edge104" class="edge">
<title>statictea&#45;&gt;messages</title>
<path fill="none" stroke="black" d="M407.08,-1371.78C245.93,-1349.01 0,-1284.24 0,-1101 0,-1101 0,-1101 0,-280 0,-169.22 97.63,-171.12 202,-133.96 344.67,-83.16 1393.4,-51.26 1720.11,-42.48"/>
<polygon fill="black" stroke="black" points="1720.01,-45.98 1729.91,-42.21 1719.82,-38.98 1720.01,-45.98"/>
</g>
<!-- statictea&#45;&gt;opresult -->
<g id="edge108" class="edge">
<title>statictea&#45;&gt;opresult</title>
<path fill="none" stroke="black" d="M508.26,-1336.4C453.22,-1258.22 354,-1095.82 354,-941 354,-941 354,-941 354,-718 354,-502.65 294.93,-375.21 468,-247.06 563.56,-176.3 1397.12,-162.27 1658.17,-159.6"/>
<polygon fill="black" stroke="black" points="1657.95,-163.1 1667.92,-159.5 1657.89,-156.1 1657.95,-163.1"/>
</g>
<!-- statictea&#45;&gt;parseCommandLine -->
<g id="edge9" class="edge">
<title>statictea&#45;&gt;parseCommandLine</title>
<path fill="none" stroke="black" d="M411.58,-1370.28C332.19,-1354.51 237.02,-1320.65 186,-1248.02 77.19,-1093.14 138.03,-844.66 165.65,-754.28"/>
<polygon fill="black" stroke="black" points="168.98,-755.36 168.62,-744.77 162.3,-753.27 168.98,-755.36"/>
</g>
<!-- statictea&#45;&gt;processTemplate -->
<g id="edge90" class="edge">
<title>statictea&#45;&gt;processTemplate</title>
<path fill="none" stroke="black" d="M620.7,-1350.61C692.35,-1319.41 797.84,-1273.49 863.38,-1244.96"/>
<polygon fill="black" stroke="black" points="864.38,-1248.34 872.16,-1241.14 861.59,-1241.92 864.38,-1248.34"/>
</g>
<!-- statictea&#45;&gt;repl -->
<g id="edge120" class="edge">
<title>statictea&#45;&gt;repl</title>
<path fill="none" stroke="black" d="M624.77,-1352.2C655.92,-1341.31 692.15,-1330.3 726,-1324 1141.67,-1246.65 2515.96,-1223.59 2795.22,-1219.65"/>
<polygon fill="black" stroke="black" points="2795.11,-1223.15 2805.06,-1219.52 2795.01,-1216.16 2795.11,-1223.15"/>
</g>
<!-- timer -->
<g id="node26" class="node">
<title>timer</title>
<g id="a_node26"><a xlink:href="html/timer.html" xlink:title="timer.md">
<polygon fill="palegreen" stroke="black" points="1464.09,-1207.21 1464.09,-1228.79 1433.58,-1244.04 1390.42,-1244.04 1359.91,-1228.79 1359.91,-1207.21 1390.42,-1191.96 1433.58,-1191.96 1464.09,-1207.21"/>
<polygon fill="none" stroke="black" points="1468.09,-1204.74 1468.09,-1231.26 1434.52,-1248.04 1389.48,-1248.04 1355.91,-1231.26 1355.91,-1204.74 1389.48,-1187.96 1434.52,-1187.96 1468.09,-1204.74"/>
<text text-anchor="middle" x="1412" y="-1211.8" font-family="Times,serif" font-size="24.00">timer</text>
</a>
</g>
</g>
<!-- statictea&#45;&gt;timer -->
<g id="edge121" class="edge">
<title>statictea&#45;&gt;timer</title>
<path fill="none" stroke="black" d="M626.85,-1352.87C657.61,-1342.33 693.05,-1331.37 726,-1324 997.35,-1263.29 1079.08,-1322.41 1347,-1248.02 1351.55,-1246.76 1356.2,-1245.22 1360.81,-1243.53"/>
<polygon fill="black" stroke="black" points="1362,-1246.82 1370.02,-1239.89 1359.43,-1240.31 1362,-1246.82"/>
</g>
<!-- updateTemplate -->
<g id="node28" class="node">
<title>updateTemplate</title>
<g id="a_node28"><a xlink:href="html/updateTemplate.html" xlink:title="updateTemplate.md">
<ellipse fill="palegoldenrod" stroke="black" cx="1218" cy="-1218" rx="119.5" ry="24.08"/>
<text text-anchor="middle" x="1218" y="-1211.8" font-family="Times,serif" font-size="24.00">updateTemplate</text>
</a>
</g>
</g>
<!-- statictea&#45;&gt;updateTemplate -->
<g id="edge102" class="edge">
<title>statictea&#45;&gt;updateTemplate</title>
<path fill="none" stroke="black" d="M629.52,-1353.69C659.79,-1343.53 694.21,-1332.61 726,-1324 860.75,-1287.52 1019.04,-1255.66 1118.93,-1236.88"/>
<polygon fill="black" stroke="black" points="1119.55,-1240.32 1128.73,-1235.04 1118.26,-1233.44 1119.55,-1240.32"/>
</g>
<!-- version -->
<g id="node32" class="node">
<title>version</title>
<g id="a_node32"><a xlink:href="html/version.html" xlink:title="version.md">
<polygon fill="palegreen" stroke="black" points="2953.67,-402.21 2953.67,-423.79 2914.62,-439.04 2859.38,-439.04 2820.33,-423.79 2820.33,-402.21 2859.38,-386.96 2914.62,-386.96 2953.67,-402.21"/>
<polygon fill="none" stroke="black" points="2957.67,-399.48 2957.67,-426.52 2915.37,-443.04 2858.63,-443.04 2816.33,-426.52 2816.33,-399.48 2858.63,-382.96 2915.37,-382.96 2957.67,-399.48"/>
<text text-anchor="middle" x="2887" y="-406.8" font-family="Times,serif" font-size="24.00">version</text>
</a>
</g>
</g>
<!-- statictea&#45;&gt;version -->
<g id="edge106" class="edge">
<title>statictea&#45;&gt;version</title>
<path fill="none" stroke="black" d="M624.72,-1351.94C655.86,-1341.02 692.1,-1330.05 726,-1324 844.53,-1302.83 2794.88,-1319.19 2892,-1248.02 3145.27,-1062.42 2965.88,-592.82 2905.08,-453.53"/>
<polygon fill="black" stroke="black" points="2908.43,-452.45 2901.2,-444.71 2902.03,-455.27 2908.43,-452.45"/>
</g>
<!-- unicodes&#45;&gt;messages -->
<g id="edge41" class="edge">
<title>unicodes&#45;&gt;messages</title>
<path fill="none" stroke="black" d="M2211.73,-388.81C2220.99,-336.32 2235.35,-207.32 2171,-133.96 2137.31,-95.55 2006.39,-68.33 1913.61,-53.4"/>
<polygon fill="black" stroke="black" points="1914.42,-49.98 1903.99,-51.87 1913.32,-56.89 1914.42,-49.98"/>
</g>
<!-- unicodes&#45;&gt;opresult -->
<g id="edge40" class="edge">
<title>unicodes&#45;&gt;opresult</title>
<path fill="none" stroke="black" d="M2204.06,-388.58C2198.23,-352.47 2181.74,-283.54 2138,-247.06 2089.01,-206.21 1912.79,-179.5 1810.66,-167.08"/>
<polygon fill="black" stroke="black" points="1811.34,-163.64 1801,-165.93 1810.51,-170.59 1811.34,-163.64"/>
</g>
<!-- unicodes&#45;&gt;utf8decoder -->
<g id="edge42" class="edge">
<title>unicodes&#45;&gt;utf8decoder</title>
<path fill="none" stroke="black" d="M2177.35,-390.82C2149.73,-371.09 2108,-341.28 2075.19,-317.85"/>
<polygon fill="black" stroke="black" points="2077.59,-315.26 2067.42,-312.3 2073.52,-320.96 2077.59,-315.26"/>
</g>
<!-- unicodes&#45;&gt;vartypes -->
<g id="edge43" class="edge">
<title>unicodes&#45;&gt;vartypes</title>
<path fill="none" stroke="black" d="M2233.28,-390.24C2256.44,-371.07 2290.69,-342.7 2318.33,-319.82"/>
<polygon fill="black" stroke="black" points="2320.41,-322.64 2325.88,-313.57 2315.94,-317.25 2320.41,-322.64"/>
</g>
<!-- updateTemplate&#45;&gt;args -->
<g id="edge91" class="edge">
<title>updateTemplate&#45;&gt;args</title>
<path fill="none" stroke="black" d="M1130.52,-1201.26C1032.14,-1182.67 879.29,-1150.89 827,-1124.04 753.15,-1086.12 738.32,-1065.98 686,-1001.52 618.09,-917.85 608.3,-889.65 568,-789.71 538.1,-715.56 517.83,-623.57 508.29,-574.56"/>
<polygon fill="black" stroke="black" points="511.74,-574 506.43,-564.83 504.87,-575.31 511.74,-574"/>
</g>
<!-- updateTemplate&#45;&gt;env -->
<g id="edge93" class="edge">
<title>updateTemplate&#45;&gt;env</title>
<path fill="none" stroke="black" d="M1150.47,-1197.79C1026.28,-1160.95 769.78,-1077.3 720,-1001.52 669.79,-925.08 694.04,-809.99 710.74,-753.58"/>
<polygon fill="black" stroke="black" points="714.01,-754.82 713.61,-744.24 707.32,-752.77 714.01,-754.82"/>
</g>
<!-- updateTemplate&#45;&gt;linebuffer -->
<g id="edge94" class="edge">
<title>updateTemplate&#45;&gt;linebuffer</title>
<path fill="none" stroke="black" d="M1228.68,-1193.59C1263.98,-1112.47 1369.2,-838.09 1270,-648.29 1241.42,-593.6 1194,-617.64 1156,-569.02 1129.51,-535.13 1113.84,-488 1105.39,-454.63"/>
<polygon fill="black" stroke="black" points="1108.8,-453.82 1103.05,-444.92 1101.99,-455.46 1108.8,-453.82"/>
</g>
<!-- updateTemplate&#45;&gt;messages -->
<g id="edge92" class="edge">
<title>updateTemplate&#45;&gt;messages</title>
<path fill="none" stroke="black" d="M1290.25,-1198.39C1308.65,-1194.31 1328.46,-1190.46 1347,-1187.98 1502.66,-1167.11 2625.24,-1206.34 2759,-1124.04 2858.94,-1062.55 2942.71,-868.12 3000,-569.02 3028.42,-420.65 3012.13,-337.34 2891,-247.06 2735.96,-131.5 2147.85,-68.76 1913.87,-47.93"/>
<polygon fill="black" stroke="black" points="1914.44,-44.47 1904.17,-47.08 1913.82,-51.44 1914.44,-44.47"/>
</g>
<!-- updateTemplate&#45;&gt;opresult -->
<g id="edge101" class="edge">
<title>updateTemplate&#45;&gt;opresult</title>
<path fill="none" stroke="black" d="M1223.12,-1193.45C1239.42,-1113.02 1284.19,-843.39 1199,-648.29 1178.97,-602.42 1154.04,-604.76 1119,-569.02 1064.86,-513.8 1027.72,-514.82 999,-443.02 989.09,-418.24 983.67,-404.82 999,-382.98 1076.87,-272.03 1493.55,-196.35 1663.63,-169.65"/>
<polygon fill="black" stroke="black" points="1664.12,-173.12 1673.46,-168.12 1663.04,-166.2 1664.12,-173.12"/>
</g>
<!-- updateTemplate&#45;&gt;parseCmdLine -->
<g id="edge95" class="edge">
<title>updateTemplate&#45;&gt;parseCmdLine</title>
<path fill="none" stroke="black" d="M1211.44,-1193.7C1188.86,-1113.56 1114.35,-849.04 1087.64,-754.21"/>
<polygon fill="black" stroke="black" points="1091.04,-753.39 1084.96,-744.71 1084.3,-755.29 1091.04,-753.39"/>
</g>
<!-- updateTemplate&#45;&gt;replacement -->
<g id="edge99" class="edge">
<title>updateTemplate&#45;&gt;replacement</title>
<path fill="none" stroke="black" d="M1191.53,-1194.3C1170.78,-1176.05 1141.57,-1149.38 1118,-1124.04 1071.3,-1073.83 1022.49,-1010.56 994.52,-973.08"/>
<polygon fill="black" stroke="black" points="997.54,-971.29 988.77,-965.35 991.92,-975.46 997.54,-971.29"/>
</g>
<!-- updateTemplate&#45;&gt;runCommand -->
<g id="edge96" class="edge">
<title>updateTemplate&#45;&gt;runCommand</title>
<path fill="none" stroke="black" d="M1293.99,-1199.03C1377.46,-1178.72 1505.71,-1145.67 1551,-1124.04 1615.68,-1093.15 1681.39,-1046.01 1730.17,-1007.31"/>
<polygon fill="black" stroke="black" points="1732.27,-1010.11 1737.9,-1001.14 1727.9,-1004.65 1732.27,-1010.11"/>
</g>
<!-- updateTemplate&#45;&gt;startingvars -->
<g id="edge100" class="edge">
<title>updateTemplate&#45;&gt;startingvars</title>
<path fill="none" stroke="black" d="M1261.83,-1195.18C1300.84,-1175.76 1357.95,-1147.33 1399.2,-1126.79"/>
<polygon fill="black" stroke="black" points="1400.58,-1130.01 1407.97,-1122.42 1397.46,-1123.74 1400.58,-1130.01"/>
</g>
<!-- updateTemplate&#45;&gt;variables -->
<g id="edge97" class="edge">
<title>updateTemplate&#45;&gt;variables</title>
<path fill="none" stroke="black" d="M1290.26,-1198.41C1308.65,-1194.32 1328.46,-1190.47 1347,-1187.98 1499.02,-1167.51 2602.95,-1215.62 2726,-1124.04 2813.21,-1059.13 2869.03,-753.06 2840,-648.29 2832.22,-620.2 2814.99,-592.08 2800.22,-571.54"/>
<polygon fill="black" stroke="black" points="2803.1,-569.55 2794.34,-563.59 2797.48,-573.71 2803.1,-569.55"/>
</g>
<!-- updateTemplate&#45;&gt;vartypes -->
<g id="edge98" class="edge">
<title>updateTemplate&#45;&gt;vartypes</title>
<path fill="none" stroke="black" d="M1293.51,-1198.96C1311.02,-1195.07 1329.62,-1191.17 1347,-1187.98 1634.69,-1135.12 2458.38,-1222.52 2650,-1001.52 2695.02,-949.59 2689.69,-439.08 2650,-382.98 2643.76,-374.16 2527.96,-335.14 2445.65,-308.27"/>
<polygon fill="black" stroke="black" points="2446.81,-304.97 2436.22,-305.2 2444.64,-311.62 2446.81,-304.97"/>
</g>
<!-- variables&#45;&gt;messages -->
<g id="edge32" class="edge">
<title>variables&#45;&gt;messages</title>
<path fill="none" stroke="black" d="M2776.59,-514.66C2777.67,-482.66 2775.62,-424.42 2751,-382.98 2700.16,-297.41 2656.74,-300.87 2573,-247.06 2483.16,-189.33 2462.01,-168.62 2361,-133.96 2209.75,-82.06 2024.58,-57.9 1913.95,-47.37"/>
<polygon fill="black" stroke="black" points="1914.28,-43.88 1903.99,-46.44 1913.63,-50.85 1914.28,-43.88"/>
</g>
<!-- variables&#45;&gt;opresult -->
<g id="edge33" class="edge">
<title>variables&#45;&gt;opresult</title>
<path fill="none" stroke="black" d="M2772.2,-514.64C2767.19,-481.82 2753.93,-421.75 2721,-382.98 2639.14,-286.57 2591.5,-285.47 2471,-247.06 2240.1,-173.45 1950.56,-160.5 1814.05,-158.79"/>
<polygon fill="black" stroke="black" points="1814.46,-155.29 1804.42,-158.69 1814.38,-162.29 1814.46,-155.29"/>
</g>
<!-- variables&#45;&gt;vartypes -->
<g id="edge30" class="edge">
<title>variables&#45;&gt;vartypes</title>
<path fill="none" stroke="black" d="M2764.62,-514.86C2746.9,-476.28 2710.54,-401.24 2688,-382.98 2625.11,-332.04 2536.44,-306.7 2467.75,-294.14"/>
<polygon fill="black" stroke="black" points="2468.42,-290.71 2457.96,-292.43 2467.21,-297.6 2468.42,-290.71"/>
</g>
<!-- variables&#45;&gt;version -->
<g id="edge31" class="edge">
<title>variables&#45;&gt;version</title>
<path fill="none" stroke="black" d="M2795.28,-515.54C2811.35,-497.76 2834.15,-472.51 2853,-451.65"/>
<polygon fill="black" stroke="black" points="2855.41,-454.19 2859.52,-444.42 2850.22,-449.5 2855.41,-454.19"/>
</g>
<!-- vartypes&#45;&gt;messages -->
<g id="edge26" class="edge">
<title>vartypes&#45;&gt;messages</title>
<path fill="none" stroke="black" d="M2346.71,-247.23C2327.13,-213.45 2292,-161.87 2247,-133.96 2144.77,-70.54 2005.66,-49.59 1913.68,-42.86"/>
<polygon fill="black" stroke="black" points="1914.15,-39.38 1903.94,-42.19 1913.68,-46.36 1914.15,-39.38"/>
</g>
<!-- vartypes&#45;&gt;opresult -->
<g id="edge27" class="edge">
<title>vartypes&#45;&gt;opresult</title>
<path fill="none" stroke="black" d="M2282.03,-262.17C2258.48,-257.16 2232.74,-251.79 2209,-247.06 2066.27,-218.61 1898.73,-188.1 1806.26,-171.51"/>
<polygon fill="black" stroke="black" points="1807.04,-168.09 1796.57,-169.77 1805.8,-174.98 1807.04,-168.09"/>
</g>
</g>
</svg>
