<?xml version="1.0" encoding="UTF-8" standalone="no"?>
<!DOCTYPE svg PUBLIC "-//W3C//DTD SVG 1.1//EN"
 "http://www.w3.org/Graphics/SVG/1.1/DTD/svg11.dtd">
<!-- Generated by graphviz version 7.0.1 (20221109.1506)
 -->
<!-- Title: statictea Pages: 1 -->
<svg width="3293pt" height="1547pt"
 viewBox="0.00 0.00 3292.82 1547.45" xmlns="http://www.w3.org/2000/svg" xmlns:xlink="http://www.w3.org/1999/xlink">
<g id="graph0" class="graph" transform="scale(1 1) rotate(0) translate(4 1543.45)">
<title>statictea</title>
<polygon fill="white" stroke="none" points="-4,4 -4,-1543.45 3288.82,-1543.45 3288.82,4 -4,4"/>
<!-- args -->
<g id="node1" class="node">
<title>args</title>
<g id="a_node1"><a xlink:href="html/args.html" xlink:title="args.md" target="_parent">
<ellipse fill="palegoldenrod" stroke="black" cx="536" cy="-566" rx="39.7" ry="24.08"/>
<text text-anchor="middle" x="536" y="-559.8" font-family="Times,serif" font-size="24.00">args</text>
</a>
</g>
</g>
<!-- messages -->
<g id="node9" class="node">
<title>messages</title>
<g id="a_node9"><a xlink:href="html/messages.html" xlink:title="messages.md" target="_parent">
<polygon fill="palegreen" stroke="black" points="2078.25,-30.21 2078.25,-51.79 2030.66,-67.04 1963.34,-67.04 1915.75,-51.79 1915.75,-30.21 1963.34,-14.96 2030.66,-14.96 2078.25,-30.21"/>
<polygon fill="none" stroke="black" points="2082.26,-27.29 2082.26,-54.71 2031.28,-71.04 1962.72,-71.04 1911.74,-54.71 1911.74,-27.29 1962.72,-10.96 2031.28,-10.96 2082.26,-27.29"/>
<text text-anchor="middle" x="1997" y="-34.8" font-family="Times,serif" font-size="24.00">messages</text>
</a>
</g>
</g>
<!-- args&#45;&gt;messages -->
<g id="edge1" class="edge">
<title>args&#45;&gt;messages</title>
<path fill="none" stroke="black" d="M530.24,-541.87C513.94,-470.18 475.67,-250.05 590,-141.96 684.84,-52.29 1597.54,-42.65 1900.1,-41.93"/>
<polygon fill="black" stroke="black" points="1899.96,-45.43 1909.96,-41.91 1899.95,-38.43 1899.96,-45.43"/>
</g>
<!-- opresult -->
<g id="node10" class="node">
<title>opresult</title>
<g id="a_node10"><a xlink:href="html/opresult.html" xlink:title="opresult.md" target="_parent">
<ellipse fill="palegoldenrod" stroke="black" cx="1549" cy="-166" rx="66.44" ry="24.08"/>
<text text-anchor="middle" x="1549" y="-159.8" font-family="Times,serif" font-size="24.00">opresult</text>
</a>
</g>
</g>
<!-- args&#45;&gt;opresult -->
<g id="edge3" class="edge">
<title>args&#45;&gt;opresult</title>
<path fill="none" stroke="black" d="M557.77,-545.56C631.21,-480.06 866.28,-271.05 886,-262.06 989.37,-214.91 1321.23,-184.35 1472.53,-172.53"/>
<polygon fill="black" stroke="black" points="1472.77,-176.02 1482.47,-171.76 1472.23,-169.04 1472.77,-176.02"/>
</g>
<!-- cmdline -->
<g id="node2" class="node">
<title>cmdline</title>
<g id="a_node2"><a xlink:href="html/cmdline.html" xlink:title="cmdline.md" target="_parent">
<polygon fill="palegreen" stroke="black" points="321.89,-555.21 321.89,-576.79 279.78,-592.04 220.22,-592.04 178.11,-576.79 178.11,-555.21 220.22,-539.96 279.78,-539.96 321.89,-555.21"/>
<polygon fill="none" stroke="black" points="325.89,-552.4 325.89,-579.6 280.48,-596.04 219.52,-596.04 174.11,-579.6 174.11,-552.4 219.52,-535.96 280.48,-535.96 325.89,-552.4"/>
<text text-anchor="middle" x="250" y="-559.8" font-family="Times,serif" font-size="24.00">cmdline</text>
</a>
</g>
</g>
<!-- comparelines -->
<g id="node3" class="node">
<title>comparelines</title>
<g id="a_node3"><a xlink:href="html/comparelines.html" xlink:title="comparelines.md" target="_parent">
<polygon fill="palegreen" stroke="black" points="997.42,-1444.21 997.42,-1465.79 932.74,-1481.04 841.26,-1481.04 776.58,-1465.79 776.58,-1444.21 841.26,-1428.96 932.74,-1428.96 997.42,-1444.21"/>
<polygon fill="none" stroke="black" points="1001.43,-1441.05 1001.43,-1468.95 933.2,-1485.04 840.8,-1485.04 772.57,-1468.95 772.57,-1441.05 840.8,-1424.96 933.2,-1424.96 1001.43,-1441.05"/>
<text text-anchor="middle" x="887" y="-1448.8" font-family="Times,serif" font-size="24.00">comparelines</text>
</a>
</g>
</g>
<!-- env -->
<g id="node4" class="node">
<title>env</title>
<g id="a_node4"><a xlink:href="html/env.html" xlink:title="env.md" target="_parent">
<ellipse fill="palegoldenrod" stroke="black" cx="722" cy="-755" rx="36.12" ry="24.08"/>
<text text-anchor="middle" x="722" y="-748.8" font-family="Times,serif" font-size="24.00">env</text>
</a>
</g>
</g>
<!-- env&#45;&gt;messages -->
<g id="edge13" class="edge">
<title>env&#45;&gt;messages</title>
<path fill="none" stroke="black" d="M708,-732.59C676.74,-682.65 604,-553.69 604,-435 604,-435 604,-435 604,-295 604,-205.75 654.54,-182.6 734,-141.96 836.91,-89.32 1622.41,-55.73 1900.11,-45.4"/>
<polygon fill="black" stroke="black" points="1899.99,-48.9 1909.85,-45.04 1899.73,-41.91 1899.99,-48.9"/>
</g>
<!-- tempFile -->
<g id="node25" class="node">
<title>tempFile</title>
<g id="a_node25"><a xlink:href="html/tempFile.html" xlink:title="tempFile.md" target="_parent">
<polygon fill="palegreen" stroke="black" points="830.13,-555.21 830.13,-576.79 784.36,-592.04 719.64,-592.04 673.87,-576.79 673.87,-555.21 719.64,-539.96 784.36,-539.96 830.13,-555.21"/>
<polygon fill="none" stroke="black" points="834.13,-552.33 834.13,-579.67 785.01,-596.04 718.99,-596.04 669.87,-579.67 669.87,-552.33 718.99,-535.96 785.01,-535.96 834.13,-552.33"/>
<text text-anchor="middle" x="752" y="-559.8" font-family="Times,serif" font-size="24.00">tempFile</text>
</a>
</g>
</g>
<!-- env&#45;&gt;tempFile -->
<g id="edge12" class="edge">
<title>env&#45;&gt;tempFile</title>
<path fill="none" stroke="black" d="M725.74,-730.69C730.68,-699.91 739.46,-645.19 745.5,-607.55"/>
<polygon fill="black" stroke="black" points="748.91,-608.38 747.03,-597.95 741.99,-607.27 748.91,-608.38"/>
</g>
<!-- functions -->
<g id="node5" class="node">
<title>functions</title>
<g id="a_node5"><a xlink:href="html/functions.html" xlink:title="functions.md" target="_parent">
<ellipse fill="palegoldenrod" stroke="black" cx="2257" cy="-755" rx="232.78" ry="70.92"/>
<text text-anchor="middle" x="2257" y="-733.8" font-family="Times,serif" font-size="84.00">functions</text>
</a>
</g>
</g>
<!-- matches -->
<g id="node8" class="node">
<title>matches</title>
<g id="a_node8"><a xlink:href="html/matches.html" xlink:title="matches.md" target="_parent">
<ellipse fill="palegoldenrod" stroke="black" cx="1147" cy="-566" rx="67.35" ry="24.08"/>
<text text-anchor="middle" x="1147" y="-559.8" font-family="Times,serif" font-size="24.00">matches</text>
</a>
</g>
</g>
<!-- functions&#45;&gt;matches -->
<g id="edge39" class="edge">
<title>functions&#45;&gt;matches</title>
<path fill="none" stroke="black" d="M2054.05,-719.81C1801.79,-677.31 1384.26,-606.97 1218.26,-579"/>
<polygon fill="black" stroke="black" points="1219.15,-575.61 1208.71,-577.4 1217.99,-582.51 1219.15,-575.61"/>
</g>
<!-- functions&#45;&gt;messages -->
<g id="edge35" class="edge">
<title>functions&#45;&gt;messages</title>
<path fill="none" stroke="black" d="M2400.66,-698.82C2556.7,-634.31 2784,-524.9 2784,-435 2784,-435 2784,-435 2784,-295 2784,-151.61 2304.5,-77.92 2094.06,-52.49"/>
<polygon fill="black" stroke="black" points="2094.57,-49.02 2084.22,-51.31 2093.74,-55.97 2094.57,-49.02"/>
</g>
<!-- functions&#45;&gt;opresult -->
<g id="edge48" class="edge">
<title>functions&#45;&gt;opresult</title>
<path fill="none" stroke="black" d="M2152.33,-691.34C2109.1,-663.89 2059.31,-630.18 2017,-596.02 1885.66,-489.99 1848.48,-464.07 1746,-329.94 1725.01,-302.47 1732.1,-286.85 1708,-262.06 1677.73,-230.92 1635.16,-206.18 1601.68,-189.76"/>
<polygon fill="black" stroke="black" points="1603.5,-186.75 1592.97,-185.58 1600.48,-193.06 1603.5,-186.75"/>
</g>
<!-- parseMarkdown -->
<g id="node13" class="node">
<title>parseMarkdown</title>
<g id="a_node13"><a xlink:href="html/parseMarkdown.html" xlink:title="parseMarkdown.md" target="_parent">
<ellipse fill="palegoldenrod" stroke="black" cx="1696" cy="-566" rx="121.74" ry="24.08"/>
<text text-anchor="middle" x="1696" y="-559.8" font-family="Times,serif" font-size="24.00">parseMarkdown</text>
</a>
</g>
</g>
<!-- functions&#45;&gt;parseMarkdown -->
<g id="edge57" class="edge">
<title>functions&#45;&gt;parseMarkdown</title>
<path fill="none" stroke="black" d="M2101.1,-702.03C1992.03,-665.68 1851.41,-618.8 1767.78,-590.93"/>
<polygon fill="black" stroke="black" points="1768.9,-587.61 1758.3,-587.77 1766.68,-594.25 1768.9,-587.61"/>
</g>
<!-- parseNumber -->
<g id="node14" class="node">
<title>parseNumber</title>
<g id="a_node14"><a xlink:href="html/parseNumber.html" xlink:title="parseNumber.md" target="_parent">
<polygon fill="palegreen" stroke="black" points="2447.98,-555.21 2447.98,-576.79 2382.38,-592.04 2289.62,-592.04 2224.02,-576.79 2224.02,-555.21 2289.62,-539.96 2382.38,-539.96 2447.98,-555.21"/>
<polygon fill="none" stroke="black" points="2451.99,-552.04 2451.99,-579.96 2382.84,-596.04 2289.16,-596.04 2220.01,-579.96 2220.01,-552.04 2289.16,-535.96 2382.84,-535.96 2451.99,-552.04"/>
<text text-anchor="middle" x="2336" y="-559.8" font-family="Times,serif" font-size="24.00">parseNumber</text>
</a>
</g>
</g>
<!-- functions&#45;&gt;parseNumber -->
<g id="edge38" class="edge">
<title>functions&#45;&gt;parseNumber</title>
<path fill="none" stroke="black" d="M2286.42,-684.37C2297.5,-658.13 2309.72,-629.21 2319.25,-606.64"/>
<polygon fill="black" stroke="black" points="2322.45,-608.08 2323.11,-597.5 2316,-605.35 2322.45,-608.08"/>
</g>
<!-- readjson -->
<g id="node16" class="node">
<title>readjson</title>
<g id="a_node16"><a xlink:href="html/readjson.html" xlink:title="readjson.md" target="_parent">
<ellipse fill="palegoldenrod" stroke="black" cx="2095" cy="-566" rx="69.09" ry="24.08"/>
<text text-anchor="middle" x="2095" y="-559.8" font-family="Times,serif" font-size="24.00">readjson</text>
</a>
</g>
</g>
<!-- functions&#45;&gt;readjson -->
<g id="edge54" class="edge">
<title>functions&#45;&gt;readjson</title>
<path fill="none" stroke="black" d="M2198.06,-685.96C2171.9,-655.77 2142.43,-621.75 2121.73,-597.85"/>
<polygon fill="black" stroke="black" points="2124.43,-595.62 2115.23,-590.36 2119.14,-600.21 2124.43,-595.62"/>
</g>
<!-- regexes -->
<g id="node17" class="node">
<title>regexes</title>
<g id="a_node17"><a xlink:href="html/regexes.html" xlink:title="regexes.md" target="_parent">
<polygon fill="palegreen" stroke="black" points="1283.23,-423.21 1283.23,-444.79 1243.26,-460.04 1186.74,-460.04 1146.77,-444.79 1146.77,-423.21 1186.74,-407.96 1243.26,-407.96 1283.23,-423.21"/>
<polygon fill="none" stroke="black" points="1287.24,-420.46 1287.24,-447.54 1244,-464.04 1186,-464.04 1142.76,-447.54 1142.76,-420.46 1186,-403.96 1244,-403.96 1287.24,-420.46"/>
<text text-anchor="middle" x="1215" y="-427.8" font-family="Times,serif" font-size="24.00">regexes</text>
</a>
</g>
</g>
<!-- functions&#45;&gt;regexes -->
<g id="edge37" class="edge">
<title>functions&#45;&gt;regexes</title>
<path fill="none" stroke="black" d="M2055.22,-719.37C1915.53,-692.63 1726.44,-650.93 1565,-596.02 1456.43,-559.1 1336.3,-499.41 1268.79,-464.01"/>
<polygon fill="black" stroke="black" points="1270.63,-461.03 1260.16,-459.46 1267.37,-467.22 1270.63,-461.03"/>
</g>
<!-- signatures -->
<g id="node22" class="node">
<title>signatures</title>
<g id="a_node22"><a xlink:href="html/signatures.html" xlink:title="signatures.md" target="_parent">
<ellipse fill="palegoldenrod" stroke="black" cx="2638" cy="-434" rx="79.81" ry="24.08"/>
<text text-anchor="middle" x="2638" y="-427.8" font-family="Times,serif" font-size="24.00">signatures</text>
</a>
</g>
</g>
<!-- functions&#45;&gt;signatures -->
<g id="edge47" class="edge">
<title>functions&#45;&gt;signatures</title>
<path fill="none" stroke="black" d="M2362.89,-691.55C2405.4,-664.45 2453.75,-630.94 2494,-596.02 2540.68,-555.53 2586.93,-500.45 2613.96,-466.34"/>
<polygon fill="black" stroke="black" points="2616.37,-468.94 2619.8,-458.92 2610.86,-464.62 2616.37,-468.94"/>
</g>
<!-- unicodes -->
<g id="node27" class="node">
<title>unicodes</title>
<g id="a_node27"><a xlink:href="html/unicodes.html" xlink:title="unicodes.md" target="_parent">
<ellipse fill="palegoldenrod" stroke="black" cx="2103" cy="-434" rx="71.34" ry="24.08"/>
<text text-anchor="middle" x="2103" y="-427.8" font-family="Times,serif" font-size="24.00">unicodes</text>
</a>
</g>
</g>
<!-- functions&#45;&gt;unicodes -->
<g id="edge44" class="edge">
<title>functions&#45;&gt;unicodes</title>
<path fill="none" stroke="black" d="M2234.94,-684.39C2219.93,-640.64 2198.24,-583.66 2173,-535.98 2160.05,-511.51 2142.24,-485.91 2127.83,-466.6"/>
<polygon fill="black" stroke="black" points="2130.8,-464.73 2121.97,-458.87 2125.22,-468.95 2130.8,-464.73"/>
</g>
<!-- variables -->
<g id="node30" class="node">
<title>variables</title>
<g id="a_node30"><a xlink:href="html/variables.html" xlink:title="variables.md" target="_parent">
<ellipse fill="palegoldenrod" stroke="black" cx="2923" cy="-566" rx="72.66" ry="24.08"/>
<text text-anchor="middle" x="2923" y="-559.8" font-family="Times,serif" font-size="24.00">variables</text>
</a>
</g>
</g>
<!-- functions&#45;&gt;variables -->
<g id="edge55" class="edge">
<title>functions&#45;&gt;variables</title>
<path fill="none" stroke="black" d="M2427.21,-706.21C2567.3,-666.87 2758.37,-613.23 2857.42,-585.41"/>
<polygon fill="black" stroke="black" points="2858.32,-588.8 2867,-582.72 2856.42,-582.06 2858.32,-588.8"/>
</g>
<!-- vartypes -->
<g id="node31" class="node">
<title>vartypes</title>
<g id="a_node31"><a xlink:href="html/vartypes.html" xlink:title="vartypes.md" target="_parent">
<ellipse fill="palegoldenrod" stroke="black" cx="2521" cy="-296" rx="97.66" ry="33.88"/>
<text text-anchor="middle" x="2521" y="-287.2" font-family="Times,serif" font-size="36.00">vartypes</text>
</a>
</g>
</g>
<!-- functions&#45;&gt;vartypes -->
<g id="edge36" class="edge">
<title>functions&#45;&gt;vartypes</title>
<path fill="none" stroke="black" d="M2369.08,-692.54C2404.41,-667.38 2439.74,-634.94 2461,-596.02 2502.09,-520.83 2458.03,-487.3 2478,-403.98 2483.17,-382.4 2491.93,-359.45 2500.19,-340.36"/>
<polygon fill="black" stroke="black" points="2503.37,-341.84 2504.23,-331.28 2496.97,-339 2503.37,-341.84"/>
</g>
<!-- gethelp -->
<g id="node6" class="node">
<title>gethelp</title>
<g id="a_node6"><a xlink:href="html/gethelp.html" xlink:title="gethelp.md" target="_parent">
<polygon fill="palegreen" stroke="black" points="332.67,-1269.21 332.67,-1290.79 293.62,-1306.04 238.38,-1306.04 199.33,-1290.79 199.33,-1269.21 238.38,-1253.96 293.62,-1253.96 332.67,-1269.21"/>
<polygon fill="none" stroke="black" points="336.67,-1266.48 336.67,-1293.52 294.37,-1310.04 237.63,-1310.04 195.33,-1293.52 195.33,-1266.48 237.63,-1249.96 294.37,-1249.96 336.67,-1266.48"/>
<text text-anchor="middle" x="266" y="-1273.8" font-family="Times,serif" font-size="24.00">gethelp</text>
</a>
</g>
</g>
<!-- linebuffer -->
<g id="node7" class="node">
<title>linebuffer</title>
<g id="a_node7"><a xlink:href="html/linebuffer.html" xlink:title="linebuffer.md" target="_parent">
<polygon fill="palegreen" stroke="black" points="1516.91,-423.21 1516.91,-444.79 1467.17,-460.04 1396.83,-460.04 1347.09,-444.79 1347.09,-423.21 1396.83,-407.96 1467.17,-407.96 1516.91,-423.21"/>
<polygon fill="none" stroke="black" points="1520.91,-420.25 1520.91,-447.75 1467.77,-464.04 1396.23,-464.04 1343.09,-447.75 1343.09,-420.25 1396.23,-403.96 1467.77,-403.96 1520.91,-420.25"/>
<text text-anchor="middle" x="1432" y="-427.8" font-family="Times,serif" font-size="24.00">linebuffer</text>
</a>
</g>
</g>
<!-- matches&#45;&gt;regexes -->
<g id="edge7" class="edge">
<title>matches&#45;&gt;regexes</title>
<path fill="none" stroke="red" d="M1159,-542.06C1168.81,-523.31 1182.9,-496.37 1194.49,-474.21"/>
<polygon fill="red" stroke="red" points="1197.55,-475.91 1199.08,-465.43 1191.35,-472.67 1197.55,-475.91"/>
</g>
<!-- opresult&#45;&gt;messages -->
<g id="edge2" class="edge">
<title>opresult&#45;&gt;messages</title>
<path fill="none" stroke="red" d="M1601.27,-150.65C1679.34,-129.21 1826.97,-88.68 1918.18,-63.64"/>
<polygon fill="red" stroke="red" points="1918.84,-67.09 1927.56,-61.07 1916.99,-60.34 1918.84,-67.09"/>
</g>
<!-- parseCmdLine -->
<g id="node11" class="node">
<title>parseCmdLine</title>
<g id="a_node11"><a xlink:href="html/parseCmdLine.html" xlink:title="parseCmdLine.md" target="_parent">
<ellipse fill="palegoldenrod" stroke="black" cx="1078" cy="-755" rx="111.95" ry="24.08"/>
<text text-anchor="middle" x="1078" y="-748.8" font-family="Times,serif" font-size="24.00">parseCmdLine</text>
</a>
</g>
</g>
<!-- parseCmdLine&#45;&gt;args -->
<g id="edge20" class="edge">
<title>parseCmdLine&#45;&gt;args</title>
<path fill="none" stroke="black" d="M1020,-733.99C911.13,-696.43 678.39,-616.13 580.66,-582.41"/>
<polygon fill="black" stroke="black" points="582.01,-579.17 571.41,-579.22 579.72,-585.79 582.01,-579.17"/>
</g>
<!-- parseCmdLine&#45;&gt;matches -->
<g id="edge18" class="edge">
<title>parseCmdLine&#45;&gt;matches</title>
<path fill="none" stroke="black" d="M1086.6,-730.69C1098.67,-697.99 1120.7,-638.29 1134.55,-600.73"/>
<polygon fill="black" stroke="black" points="1137.7,-602.32 1137.88,-591.72 1131.13,-599.89 1137.7,-602.32"/>
</g>
<!-- parseCmdLine&#45;&gt;messages -->
<g id="edge17" class="edge">
<title>parseCmdLine&#45;&gt;messages</title>
<path fill="none" stroke="black" d="M1068.5,-730.53C1053.52,-690.66 1027.2,-607.13 1038,-535.98 1059.18,-396.36 1085.76,-346.43 1199,-262.06 1413.96,-101.91 1739.31,-58.31 1900.07,-46.44"/>
<polygon fill="black" stroke="black" points="1900.12,-49.94 1909.85,-45.75 1899.63,-42.96 1900.12,-49.94"/>
</g>
<!-- parseCmdLine&#45;&gt;opresult -->
<g id="edge19" class="edge">
<title>parseCmdLine&#45;&gt;opresult</title>
<path fill="none" stroke="black" d="M1068.88,-730.6C1054.44,-690.15 1029.94,-604.86 1050,-535.98 1069.44,-469.21 1088.33,-456.41 1134,-403.98 1197.97,-330.53 1217.22,-311.74 1301,-262.06 1360.06,-227.04 1434.32,-200.6 1486.12,-184.6"/>
<polygon fill="black" stroke="black" points="1486.82,-188.05 1495.37,-181.79 1484.78,-181.35 1486.82,-188.05"/>
</g>
<!-- parseCmdLine&#45;&gt;regexes -->
<g id="edge16" class="edge">
<title>parseCmdLine&#45;&gt;regexes</title>
<path fill="none" stroke="black" d="M1070.22,-730.73C1057.74,-688.99 1037.8,-599.81 1071,-535.98 1088.48,-502.37 1122.84,-477.62 1153.62,-461.03"/>
<polygon fill="black" stroke="black" points="1154.84,-464.34 1162.11,-456.63 1151.62,-458.13 1154.84,-464.34"/>
</g>
<!-- parseCommandLine -->
<g id="node12" class="node">
<title>parseCommandLine</title>
<g id="a_node12"><a xlink:href="html/parseCommandLine.html" xlink:title="parseCommandLine.md" target="_parent">
<ellipse fill="palegoldenrod" stroke="black" cx="177" cy="-755" rx="149.4" ry="24.08"/>
<text text-anchor="middle" x="177" y="-748.8" font-family="Times,serif" font-size="24.00">parseCommandLine</text>
</a>
</g>
</g>
<!-- parseCommandLine&#45;&gt;args -->
<g id="edge4" class="edge">
<title>parseCommandLine&#45;&gt;args</title>
<path fill="none" stroke="black" d="M219.95,-731.63C290.23,-695.02 428.76,-622.86 496.64,-587.5"/>
<polygon fill="black" stroke="black" points="497.92,-590.78 505.17,-583.06 494.68,-584.58 497.92,-590.78"/>
</g>
<!-- parseCommandLine&#45;&gt;cmdline -->
<g id="edge6" class="edge">
<title>parseCommandLine&#45;&gt;cmdline</title>
<path fill="none" stroke="black" d="M186.1,-730.69C198.17,-699.77 219.66,-644.71 234.36,-607.06"/>
<polygon fill="black" stroke="black" points="237.57,-608.46 237.95,-597.87 231.05,-605.91 237.57,-608.46"/>
</g>
<!-- parseCommandLine&#45;&gt;matches -->
<g id="edge8" class="edge">
<title>parseCommandLine&#45;&gt;matches</title>
<path fill="none" stroke="black" d="M270.89,-735.9C464.91,-698.5 906.21,-613.42 1077.36,-580.43"/>
<polygon fill="black" stroke="black" points="1077.83,-583.9 1086.99,-578.57 1076.51,-577.03 1077.83,-583.9"/>
</g>
<!-- parseCommandLine&#45;&gt;messages -->
<g id="edge5" class="edge">
<title>parseCommandLine&#45;&gt;messages</title>
<path fill="none" stroke="black" d="M173.14,-730.46C164.83,-677.73 146,-546.01 146,-435 146,-435 146,-435 146,-295 146,-185.18 237.38,-181.07 340,-141.96 485.62,-86.47 1568.02,-53.39 1900.29,-44.46"/>
<polygon fill="black" stroke="black" points="1899.9,-47.97 1909.8,-44.21 1899.71,-40.98 1899.9,-47.97"/>
</g>
<!-- parseMarkdown&#45;&gt;linebuffer -->
<g id="edge56" class="edge">
<title>parseMarkdown&#45;&gt;linebuffer</title>
<path fill="none" stroke="red" d="M1651.81,-543.24C1608.23,-521.78 1541.29,-488.82 1492.72,-464.9"/>
<polygon fill="red" stroke="red" points="1494.53,-461.89 1484.01,-460.61 1491.44,-468.17 1494.53,-461.89"/>
</g>
<!-- processTemplate -->
<g id="node15" class="node">
<title>processTemplate</title>
<g id="a_node15"><a xlink:href="html/processTemplate.html" xlink:title="processTemplate.md" target="_parent">
<ellipse fill="palegoldenrod" stroke="black" cx="783" cy="-1280" rx="124.4" ry="24.08"/>
<text text-anchor="middle" x="783" y="-1273.8" font-family="Times,serif" font-size="24.00">processTemplate</text>
</a>
</g>
</g>
<!-- processTemplate&#45;&gt;args -->
<g id="edge10" class="edge">
<title>processTemplate&#45;&gt;args</title>
<path fill="none" stroke="black" d="M742.27,-1257.01C682.55,-1222.14 573.6,-1147.92 530,-1049.52 461.35,-894.56 504.95,-683.19 526.26,-601.33"/>
<polygon fill="black" stroke="black" points="529.64,-602.24 528.83,-591.68 522.87,-600.44 529.64,-602.24"/>
</g>
<!-- processTemplate&#45;&gt;env -->
<g id="edge14" class="edge">
<title>processTemplate&#45;&gt;env</title>
<path fill="none" stroke="black" d="M774.34,-1255.65C759.64,-1214.64 730.4,-1126.7 720,-1049.52 712.7,-995.33 719.68,-981.16 720,-926.48 720.28,-879.48 720.98,-825.2 721.47,-790.75"/>
<polygon fill="black" stroke="black" points="724.97,-791 721.62,-780.95 717.97,-790.9 724.97,-791"/>
</g>
<!-- processTemplate&#45;&gt;linebuffer -->
<g id="edge15" class="edge">
<title>processTemplate&#45;&gt;linebuffer</title>
<path fill="none" stroke="black" d="M846.6,-1259.01C892.63,-1242.46 954.63,-1215.72 1001,-1179.04 1058.25,-1133.76 1062.14,-1110.68 1102,-1049.52 1171.95,-942.17 1351.74,-592.4 1411.99,-474.33"/>
<polygon fill="black" stroke="black" points="1415,-476.14 1416.42,-465.64 1408.76,-472.96 1415,-476.14"/>
</g>
<!-- processTemplate&#45;&gt;messages -->
<g id="edge11" class="edge">
<title>processTemplate&#45;&gt;messages</title>
<path fill="none" stroke="black" d="M695.45,-1262.51C640.83,-1248.35 572.18,-1223.01 525,-1179.04 396.47,-1059.27 354,-732.42 354,-567 354,-567 354,-567 354,-295 354,-183.78 448.05,-181.51 552,-141.96 799.47,-47.81 1617.56,-40.91 1900.05,-41.43"/>
<polygon fill="black" stroke="black" points="1899.97,-44.93 1909.98,-41.45 1899.99,-37.93 1899.97,-44.93"/>
</g>
<!-- processTemplate&#45;&gt;opresult -->
<g id="edge88" class="edge">
<title>processTemplate&#45;&gt;opresult</title>
<path fill="none" stroke="black" d="M723.12,-1258.43C680.68,-1241.74 624.19,-1215.08 583,-1179.04 508.7,-1114.04 468,-1087.72 468,-989 468,-989 468,-989 468,-754 468,-656.73 442.8,-622.62 487,-535.98 571.47,-370.42 633.32,-337.93 803,-262.06 921.62,-209.02 1306.79,-180.99 1472.28,-171.15"/>
<polygon fill="black" stroke="black" points="1472.05,-174.67 1481.83,-170.58 1471.64,-167.68 1472.05,-174.67"/>
</g>
<!-- processTemplate&#45;&gt;parseCmdLine -->
<g id="edge21" class="edge">
<title>processTemplate&#45;&gt;parseCmdLine</title>
<path fill="none" stroke="black" d="M832.24,-1257.45C901.23,-1224.2 1023.95,-1153.21 1075,-1049.52 1117.01,-964.18 1099.36,-847.26 1086.71,-790.17"/>
<polygon fill="black" stroke="black" points="1090.19,-789.68 1084.53,-780.73 1083.37,-791.26 1090.19,-789.68"/>
</g>
<!-- replacement -->
<g id="node19" class="node">
<title>replacement</title>
<g id="a_node19"><a xlink:href="html/replacement.html" xlink:title="replacement.md" target="_parent">
<ellipse fill="palegoldenrod" stroke="black" cx="971" cy="-988" rx="94.51" ry="24.08"/>
<text text-anchor="middle" x="971" y="-981.8" font-family="Times,serif" font-size="24.00">replacement</text>
</a>
</g>
</g>
<!-- processTemplate&#45;&gt;replacement -->
<g id="edge77" class="edge">
<title>processTemplate&#45;&gt;replacement</title>
<path fill="none" stroke="black" d="M798.07,-1255.76C831.43,-1204.3 911.59,-1080.64 949.91,-1021.53"/>
<polygon fill="black" stroke="black" points="952.8,-1023.51 955.3,-1013.22 946.92,-1019.71 952.8,-1023.51"/>
</g>
<!-- runCommand -->
<g id="node20" class="node">
<title>runCommand</title>
<g id="a_node20"><a xlink:href="html/runCommand.html" xlink:title="runCommand.md" target="_parent">
<ellipse fill="palegoldenrod" stroke="black" cx="1642" cy="-988" rx="292.07" ry="61.54"/>
<text text-anchor="middle" x="1642" y="-969.9" font-family="Times,serif" font-size="72.00">runCommand</text>
</a>
</g>
</g>
<!-- processTemplate&#45;&gt;runCommand -->
<g id="edge65" class="edge">
<title>processTemplate&#45;&gt;runCommand</title>
<path fill="none" stroke="black" d="M858.37,-1260.52C932.24,-1241.89 1047.72,-1211.32 1146,-1179.04 1266.88,-1139.34 1401.54,-1087.24 1500.01,-1047.62"/>
<polygon fill="black" stroke="black" points="1501.26,-1050.9 1509.22,-1043.91 1498.64,-1044.4 1501.26,-1050.9"/>
</g>
<!-- startingvars -->
<g id="node23" class="node">
<title>startingvars</title>
<g id="a_node23"><a xlink:href="html/startingvars.html" xlink:title="startingvars.md" target="_parent">
<ellipse fill="palegoldenrod" stroke="black" cx="1642" cy="-1155" rx="90.52" ry="24.08"/>
<text text-anchor="middle" x="1642" y="-1148.8" font-family="Times,serif" font-size="24.00">startingvars</text>
</a>
</g>
</g>
<!-- processTemplate&#45;&gt;startingvars -->
<g id="edge87" class="edge">
<title>processTemplate&#45;&gt;startingvars</title>
<path fill="none" stroke="black" d="M876.47,-1263.72C904.88,-1259.18 936.2,-1254.27 965,-1249.98 1174.41,-1218.75 1420.78,-1185.4 1550.86,-1168.06"/>
<polygon fill="black" stroke="black" points="1550.99,-1171.57 1560.44,-1166.78 1550.06,-1164.63 1550.99,-1171.57"/>
</g>
<!-- processTemplate&#45;&gt;variables -->
<g id="edge66" class="edge">
<title>processTemplate&#45;&gt;variables</title>
<path fill="none" stroke="black" d="M871.6,-1262.8C901.21,-1257.94 934.44,-1253.08 965,-1249.98 1320.19,-1213.93 2226.93,-1277.84 2570,-1179.04 2681.99,-1146.79 2727.11,-1142.03 2798,-1049.52 2905.22,-909.6 2920.95,-686.84 2922.9,-601.67"/>
<polygon fill="black" stroke="black" points="2926.4,-601.93 2923.07,-591.87 2919.4,-601.81 2926.4,-601.93"/>
</g>
<!-- processTemplate&#45;&gt;vartypes -->
<g id="edge67" class="edge">
<title>processTemplate&#45;&gt;vartypes</title>
<path fill="none" stroke="black" d="M874.02,-1263.26C903.04,-1258.57 935.32,-1253.7 965,-1249.98 1320.78,-1205.42 2298.62,-1288.41 2566,-1049.52 2786.51,-852.51 2880.52,-656.7 2727,-403.98 2711.9,-379.12 2648.31,-348.27 2595.73,-326.1"/>
<polygon fill="black" stroke="black" points="2597.35,-322.98 2586.77,-322.37 2594.66,-329.45 2597.35,-322.98"/>
</g>
<!-- readjson&#45;&gt;messages -->
<g id="edge50" class="edge">
<title>readjson&#45;&gt;messages</title>
<path fill="none" stroke="black" d="M2122.33,-543.46C2143.4,-524.96 2170.93,-496.25 2183,-464.02 2192.36,-439.03 2187.48,-430.28 2183,-403.98 2162.26,-282.31 2155.11,-247.43 2091,-141.96 2076.94,-118.83 2056.85,-96.55 2038.85,-78.91"/>
<polygon fill="black" stroke="black" points="2041.49,-76.59 2031.85,-72.2 2036.64,-81.64 2041.49,-76.59"/>
</g>
<!-- readjson&#45;&gt;opresult -->
<g id="edge53" class="edge">
<title>readjson&#45;&gt;opresult</title>
<path fill="none" stroke="black" d="M2073.81,-542.94C2021.78,-489.63 1882.04,-351.62 1746,-262.06 1700.58,-232.16 1644.33,-205.96 1603.58,-188.69"/>
<polygon fill="black" stroke="black" points="1605.02,-185.49 1594.44,-184.86 1602.31,-191.95 1605.02,-185.49"/>
</g>
<!-- readjson&#45;&gt;unicodes -->
<g id="edge51" class="edge">
<title>readjson&#45;&gt;unicodes</title>
<path fill="none" stroke="black" d="M2096.45,-541.46C2097.68,-521.39 2099.47,-492.29 2100.87,-469.58"/>
<polygon fill="black" stroke="black" points="2104.35,-470.07 2101.47,-459.88 2097.36,-469.64 2104.35,-470.07"/>
</g>
<!-- utf8decoder -->
<g id="node29" class="node">
<title>utf8decoder</title>
<g id="a_node29"><a xlink:href="html/utf8decoder.html" xlink:title="utf8decoder.md" target="_parent">
<polygon fill="palegreen" stroke="black" points="2078.04,-285.21 2078.04,-306.79 2019.44,-322.04 1936.56,-322.04 1877.96,-306.79 1877.96,-285.21 1936.56,-269.96 2019.44,-269.96 2078.04,-285.21"/>
<polygon fill="none" stroke="black" points="2082.03,-282.12 2082.03,-309.88 2019.95,-326.04 1936.05,-326.04 1873.97,-309.88 1873.97,-282.12 1936.05,-265.96 2019.95,-265.96 2082.03,-282.12"/>
<text text-anchor="middle" x="1978" y="-289.8" font-family="Times,serif" font-size="24.00">utf8decoder</text>
</a>
</g>
</g>
<!-- readjson&#45;&gt;utf8decoder -->
<g id="edge52" class="edge">
<title>readjson&#45;&gt;utf8decoder</title>
<path fill="none" stroke="black" d="M2075.61,-542.81C2059.44,-523.27 2036.89,-493.42 2023,-464.02 2003.64,-423.04 1991.47,-372.32 1984.73,-337.59"/>
<polygon fill="black" stroke="black" points="1988.21,-337.14 1982.94,-327.96 1981.33,-338.43 1988.21,-337.14"/>
</g>
<!-- readjson&#45;&gt;vartypes -->
<g id="edge49" class="edge">
<title>readjson&#45;&gt;vartypes</title>
<path fill="none" stroke="black" d="M2127.72,-544.42C2200.19,-498.83 2374.92,-388.9 2465.08,-332.18"/>
<polygon fill="black" stroke="black" points="2466.71,-335.29 2473.31,-327 2462.99,-329.36 2466.71,-335.29"/>
</g>
<!-- repl -->
<g id="node18" class="node">
<title>repl</title>
<g id="a_node18"><a xlink:href="html/repl.html" xlink:title="repl.md" target="_parent">
<ellipse fill="palegoldenrod" stroke="black" cx="1761" cy="-1280" rx="38.37" ry="24.08"/>
<text text-anchor="middle" x="1761" y="-1273.8" font-family="Times,serif" font-size="24.00">repl</text>
</a>
</g>
</g>
<!-- repl&#45;&gt;args -->
<g id="edge111" class="edge">
<title>repl&#45;&gt;args</title>
<path fill="none" stroke="black" d="M1723.26,-1274.25C1560.98,-1253.26 923.45,-1164.67 762,-1049.52 661.82,-978.06 650.76,-937.35 599,-825.71 563.98,-750.19 547.06,-652.92 540.1,-601.85"/>
<polygon fill="black" stroke="black" points="543.58,-601.46 538.81,-592 536.64,-602.37 543.58,-601.46"/>
</g>
<!-- repl&#45;&gt;env -->
<g id="edge109" class="edge">
<title>repl&#45;&gt;env</title>
<path fill="none" stroke="black" d="M1724.11,-1272.83C1646.26,-1259.4 1459.87,-1224.95 1308,-1179.04 1251.42,-1161.94 1240.56,-1148.14 1184,-1130.96 1025.38,-1082.76 943.05,-1160.6 820,-1049.52 780.8,-1014.13 744,-859.95 729.04,-790.33"/>
<polygon fill="black" stroke="black" points="732.48,-789.68 726.98,-780.62 725.63,-791.13 732.48,-789.68"/>
</g>
<!-- repl&#45;&gt;functions -->
<g id="edge119" class="edge">
<title>repl&#45;&gt;functions</title>
<path fill="none" stroke="black" d="M1798.67,-1275.32C1859.01,-1267.6 1978.04,-1244.59 2052,-1179.04 2155.4,-1087.39 2211.69,-931.95 2237.97,-837.17"/>
<polygon fill="black" stroke="black" points="2241.3,-838.23 2240.55,-827.67 2234.55,-836.4 2241.3,-838.23"/>
</g>
<!-- repl&#45;&gt;matches -->
<g id="edge114" class="edge">
<title>repl&#45;&gt;matches</title>
<path fill="none" stroke="black" d="M1722.22,-1279.36C1643.49,-1278.17 1462.51,-1265.47 1346,-1179.04 1161.77,-1042.37 1267.81,-903.12 1199,-684.29 1189.77,-654.94 1175.36,-623.12 1164.05,-600.03"/>
<polygon fill="black" stroke="black" points="1167.21,-598.52 1159.62,-591.12 1160.94,-601.64 1167.21,-598.52"/>
</g>
<!-- repl&#45;&gt;messages -->
<g id="edge108" class="edge">
<title>repl&#45;&gt;messages</title>
<path fill="none" stroke="black" d="M1799.59,-1277.6C2017.89,-1269.53 3089.96,-1227.48 3139,-1179.04 3303.13,-1016.92 3342.15,-311.78 3186,-141.96 3112.61,-62.14 2363.98,-46.02 2093.68,-42.8"/>
<polygon fill="black" stroke="black" points="2093.88,-39.3 2083.84,-42.68 2093.8,-46.3 2093.88,-39.3"/>
</g>
<!-- repl&#45;&gt;opresult -->
<g id="edge112" class="edge">
<title>repl&#45;&gt;opresult</title>
<path fill="none" stroke="black" d="M1783.74,-1260.15C1825.01,-1224.27 1910.96,-1141.47 1943,-1049.52 1960.99,-997.88 1950.87,-980.6 1943,-926.48 1916.95,-747.31 1908.55,-697.63 1827,-535.98 1757.1,-397.42 1634.06,-257.54 1578.13,-197.48"/>
<polygon fill="black" stroke="black" points="1580.81,-195.21 1571.42,-190.31 1575.7,-200 1580.81,-195.21"/>
</g>
<!-- repl&#45;&gt;regexes -->
<g id="edge115" class="edge">
<title>repl&#45;&gt;regexes</title>
<path fill="none" stroke="black" d="M1724.26,-1272.52C1635.71,-1254.79 1410.32,-1196.62 1308,-1049.52 1275.06,-1002.17 1232.27,-605.2 1219.06,-475.69"/>
<polygon fill="black" stroke="black" points="1222.55,-475.46 1218.06,-465.86 1215.59,-476.16 1222.55,-475.46"/>
</g>
<!-- repl&#45;&gt;runCommand -->
<g id="edge116" class="edge">
<title>repl&#45;&gt;runCommand</title>
<path fill="none" stroke="black" d="M1761.42,-1255.58C1761.21,-1225.66 1758.24,-1172.74 1742,-1130.96 1732.06,-1105.39 1716.55,-1080.06 1700.69,-1058.03"/>
<polygon fill="black" stroke="black" points="1703.54,-1055.99 1694.78,-1050.02 1697.9,-1060.15 1703.54,-1055.99"/>
</g>
<!-- repl&#45;&gt;startingvars -->
<g id="edge113" class="edge">
<title>repl&#45;&gt;startingvars</title>
<path fill="none" stroke="black" d="M1741.62,-1258.96C1722.69,-1239.41 1693.64,-1209.38 1671.79,-1186.79"/>
<polygon fill="black" stroke="black" points="1674.32,-1184.37 1664.85,-1179.62 1669.29,-1189.24 1674.32,-1184.37"/>
</g>
<!-- repl&#45;&gt;unicodes -->
<g id="edge118" class="edge">
<title>repl&#45;&gt;unicodes</title>
<path fill="none" stroke="black" d="M1798.15,-1272.76C1860.77,-1261.15 1990.02,-1232.43 2087,-1179.04 2298.32,-1062.71 2398.23,-1044.88 2499,-825.71 2553.25,-707.71 2551.72,-628.91 2461,-535.98 2388.84,-462.05 2267.06,-441.09 2185.86,-435.76"/>
<polygon fill="black" stroke="black" points="2186.38,-432.28 2176.19,-435.2 2185.97,-439.27 2186.38,-432.28"/>
</g>
<!-- repl&#45;&gt;variables -->
<g id="edge117" class="edge">
<title>repl&#45;&gt;variables</title>
<path fill="none" stroke="black" d="M1799.61,-1278.31C1990.36,-1274.55 2826.46,-1253.85 2912,-1179.04 3082.19,-1030.2 2977.11,-706.05 2936.74,-600.76"/>
<polygon fill="black" stroke="black" points="2940.04,-599.6 2933.15,-591.55 2933.52,-602.14 2940.04,-599.6"/>
</g>
<!-- repl&#45;&gt;vartypes -->
<g id="edge110" class="edge">
<title>repl&#45;&gt;vartypes</title>
<path fill="none" stroke="black" d="M1799.6,-1278.99C2009.98,-1278.56 3012.51,-1271.62 3110,-1179.04 3171.73,-1120.42 3134,-1074.13 3134,-989 3134,-989 3134,-989 3134,-565 3134,-492.94 3164.38,-456.46 3115,-403.98 3050.29,-335.21 2782.25,-310.25 2629.27,-301.49"/>
<polygon fill="black" stroke="black" points="2629.7,-298.01 2619.52,-300.95 2629.31,-305 2629.7,-298.01"/>
</g>
<!-- replacement&#45;&gt;args -->
<g id="edge76" class="edge">
<title>replacement&#45;&gt;args</title>
<path fill="none" stroke="black" d="M937.78,-964.98C898.65,-937.24 834.59,-885.85 800,-825.71 767.82,-769.76 806.83,-735.07 767,-684.29 720.74,-625.31 636.82,-593.42 583.87,-578.34"/>
<polygon fill="black" stroke="black" points="585.1,-575.04 574.53,-575.77 583.25,-581.79 585.1,-575.04"/>
</g>
<!-- replacement&#45;&gt;env -->
<g id="edge68" class="edge">
<title>replacement&#45;&gt;env</title>
<path fill="none" stroke="black" d="M938.81,-965.04C897.52,-935.98 824.93,-881.85 772,-825.71 760.85,-813.88 750.11,-799.46 741.47,-786.81"/>
<polygon fill="black" stroke="black" points="744.6,-785.2 736.13,-778.82 738.77,-789.08 744.6,-785.2"/>
</g>
<!-- replacement&#45;&gt;linebuffer -->
<g id="edge71" class="edge">
<title>replacement&#45;&gt;linebuffer</title>
<path fill="none" stroke="black" d="M964.32,-963.79C950.59,-911.99 923.22,-783.66 957,-684.29 983.76,-605.57 1002.11,-582.52 1071,-535.98 1094.13,-520.35 1248.4,-480.32 1347.65,-455.61"/>
<polygon fill="black" stroke="black" points="1348.24,-459.07 1357.1,-453.26 1346.55,-452.27 1348.24,-459.07"/>
</g>
<!-- replacement&#45;&gt;messages -->
<g id="edge72" class="edge">
<title>replacement&#45;&gt;messages</title>
<path fill="none" stroke="black" d="M961.93,-963.69C950.42,-932.73 931.19,-876.1 924,-825.71 915.12,-763.49 916.93,-746.74 924,-684.29 947.22,-479.08 973.18,-409.29 1118,-262.06 1190.17,-188.68 1219.16,-176.81 1316,-141.96 1515.25,-70.24 1764.97,-49.92 1899.81,-44.2"/>
<polygon fill="black" stroke="black" points="1899.94,-47.7 1909.79,-43.8 1899.65,-40.7 1899.94,-47.7"/>
</g>
<!-- replacement&#45;&gt;opresult -->
<g id="edge75" class="edge">
<title>replacement&#45;&gt;opresult</title>
<path fill="none" stroke="black" d="M964.24,-963.48C955.66,-932.31 941.33,-875.43 936,-825.71 929.3,-763.22 921.31,-745.4 936,-684.29 968.68,-548.3 1001.56,-520.44 1079,-403.98 1124.74,-335.2 1129.33,-306.43 1199,-262.06 1283.87,-208.01 1399.16,-184.4 1473.82,-174.29"/>
<polygon fill="black" stroke="black" points="1474.03,-177.79 1483.49,-173.03 1473.12,-170.85 1474.03,-177.79"/>
</g>
<!-- replacement&#45;&gt;parseCmdLine -->
<g id="edge70" class="edge">
<title>replacement&#45;&gt;parseCmdLine</title>
<path fill="none" stroke="black" d="M981.85,-963.58C1000.92,-922.4 1040.53,-836.9 1062.49,-789.49"/>
<polygon fill="black" stroke="black" points="1065.62,-791.06 1066.65,-780.51 1059.27,-788.12 1065.62,-791.06"/>
</g>
<!-- replacement&#45;&gt;tempFile -->
<g id="edge74" class="edge">
<title>replacement&#45;&gt;tempFile</title>
<path fill="none" stroke="black" d="M949.63,-964.09C922.74,-934.24 876.64,-879.48 848,-825.71 816.8,-767.13 823.25,-746.46 800,-684.29 790.27,-658.26 778.45,-629.35 768.98,-606.75"/>
<polygon fill="black" stroke="black" points="772.23,-605.46 765.12,-597.6 765.78,-608.18 772.23,-605.46"/>
</g>
<!-- replacement&#45;&gt;variables -->
<g id="edge73" class="edge">
<title>replacement&#45;&gt;variables</title>
<path fill="none" stroke="black" d="M1046.23,-972.99C1120.82,-959.5 1238.47,-939.31 1341,-926.48 1853.62,-862.35 2017.3,-1012.4 2499,-825.71 2595.5,-788.31 2596.01,-738.78 2684,-684.29 2744.59,-646.77 2818.89,-611.9 2868.41,-590.1"/>
<polygon fill="black" stroke="black" points="2869.75,-593.33 2877.51,-586.12 2866.94,-586.92 2869.75,-593.33"/>
</g>
<!-- replacement&#45;&gt;vartypes -->
<g id="edge69" class="edge">
<title>replacement&#45;&gt;vartypes</title>
<path fill="none" stroke="black" d="M1003.11,-965.1C1047.61,-934.56 1130.3,-877.14 1199,-825.71 1365.08,-701.37 1380.51,-630.88 1565,-535.98 1753.38,-439.07 1817.54,-455.59 2023,-403.98 2162.09,-369.04 2324.8,-335.44 2425.39,-315.5"/>
<polygon fill="black" stroke="black" points="2425.82,-318.98 2434.96,-313.61 2424.47,-312.11 2425.82,-318.98"/>
</g>
<!-- runCommand&#45;&gt;env -->
<g id="edge25" class="edge">
<title>runCommand&#45;&gt;env</title>
<path fill="none" stroke="black" d="M1441.17,-942.89C1304.24,-912.04 1119.06,-868.79 957,-825.71 889.61,-807.8 812.21,-784.25 765.22,-769.63"/>
<polygon fill="black" stroke="black" points="766.56,-766.38 755.97,-766.74 764.48,-773.06 766.56,-766.38"/>
</g>
<!-- runCommand&#45;&gt;functions -->
<g id="edge58" class="edge">
<title>runCommand&#45;&gt;functions</title>
<path fill="none" stroke="black" d="M1783.48,-933.86C1878.27,-898.25 2003.13,-851.36 2100.83,-814.66"/>
<polygon fill="black" stroke="black" points="2101.85,-818.01 2109.98,-811.22 2099.39,-811.46 2101.85,-818.01"/>
</g>
<!-- runCommand&#45;&gt;linebuffer -->
<g id="edge22" class="edge">
<title>runCommand&#45;&gt;linebuffer</title>
<path fill="none" stroke="black" d="M1602.89,-926.65C1584.44,-896.9 1562.83,-860.1 1546,-825.71 1497.8,-727.23 1484.26,-701.96 1456,-596.02 1445.29,-555.89 1438.97,-508.77 1435.53,-475.91"/>
<polygon fill="black" stroke="black" points="1439.01,-475.6 1434.54,-466 1432.05,-476.3 1439.01,-475.6"/>
</g>
<!-- runCommand&#45;&gt;matches -->
<g id="edge23" class="edge">
<title>runCommand&#45;&gt;matches</title>
<path fill="none" stroke="black" d="M1562.51,-928.38C1522.72,-898.42 1474.16,-860.93 1432,-825.71 1336.55,-745.96 1229.23,-645.41 1177.76,-596.47"/>
<polygon fill="black" stroke="black" points="1180.45,-594.19 1170.8,-589.83 1175.62,-599.26 1180.45,-594.19"/>
</g>
<!-- runCommand&#45;&gt;messages -->
<g id="edge29" class="edge">
<title>runCommand&#45;&gt;messages</title>
<path fill="none" stroke="black" d="M1678.3,-926.48C1721.33,-851.65 1791.65,-719.08 1827,-596.02 1846.89,-526.76 1846,-507.06 1846,-435 1846,-435 1846,-435 1846,-295 1846,-208.32 1912.16,-125.54 1956.89,-79.48"/>
<polygon fill="black" stroke="black" points="1959.37,-81.96 1963.91,-72.39 1954.39,-77.03 1959.37,-81.96"/>
</g>
<!-- runCommand&#45;&gt;opresult -->
<g id="edge60" class="edge">
<title>runCommand&#45;&gt;opresult</title>
<path fill="none" stroke="black" d="M1626.93,-926.18C1608.7,-849.69 1578.74,-714.05 1565,-596.02 1548.02,-450.15 1547.7,-274.68 1548.45,-201.58"/>
<polygon fill="black" stroke="black" points="1551.95,-201.91 1548.57,-191.86 1544.95,-201.82 1551.95,-201.91"/>
</g>
<!-- runCommand&#45;&gt;parseCmdLine -->
<g id="edge63" class="edge">
<title>runCommand&#45;&gt;parseCmdLine</title>
<path fill="none" stroke="black" d="M1509.77,-932.84C1393.03,-885.03 1228.05,-817.46 1139.65,-781.25"/>
<polygon fill="black" stroke="black" points="1140.98,-778.01 1130.39,-777.46 1138.32,-784.49 1140.98,-778.01"/>
</g>
<!-- runCommand&#45;&gt;readjson -->
<g id="edge59" class="edge">
<title>runCommand&#45;&gt;readjson</title>
<path fill="none" stroke="black" d="M1764.22,-931.72C1810.95,-905.37 1861.3,-869.86 1896,-825.71 1937.02,-773.52 1905.5,-738.36 1944,-684.29 1971.6,-645.53 2015.64,-613.4 2049.05,-592.63"/>
<polygon fill="black" stroke="black" points="2050.59,-595.79 2057.31,-587.6 2046.95,-589.81 2050.59,-595.79"/>
</g>
<!-- runCommand&#45;&gt;regexes -->
<g id="edge24" class="edge">
<title>runCommand&#45;&gt;regexes</title>
<path fill="none" stroke="black" d="M1575.86,-927.77C1544.67,-898.43 1507.85,-861.65 1478,-825.71 1377.96,-705.26 1280.43,-546.39 1237.62,-473.98"/>
<polygon fill="black" stroke="black" points="1240.81,-472.49 1232.72,-465.65 1234.78,-476.04 1240.81,-472.49"/>
</g>
<!-- runCommand&#45;&gt;signatures -->
<g id="edge64" class="edge">
<title>runCommand&#45;&gt;signatures</title>
<path fill="none" stroke="black" d="M1925.62,-972.88C2164.51,-954.86 2481.13,-914.56 2570,-825.71 2667.06,-728.67 2654.2,-545.86 2643.75,-469.69"/>
<polygon fill="black" stroke="black" points="2647.23,-469.3 2642.32,-459.91 2640.3,-470.31 2647.23,-469.3"/>
</g>
<!-- runCommand&#45;&gt;unicodes -->
<g id="edge61" class="edge">
<title>runCommand&#45;&gt;unicodes</title>
<path fill="none" stroke="black" d="M1745.82,-930.11C1786.16,-903.27 1829.43,-867.83 1858,-825.71 1894.53,-771.85 1866.33,-742.21 1896,-684.29 1934.79,-608.58 1962.53,-601.32 2017,-535.98 2036.69,-512.36 2059.24,-485.9 2076.31,-466"/>
<polygon fill="black" stroke="black" points="2078.89,-468.36 2082.75,-458.49 2073.58,-463.8 2078.89,-468.36"/>
</g>
<!-- runCommand&#45;&gt;utf8decoder -->
<g id="edge62" class="edge">
<title>runCommand&#45;&gt;utf8decoder</title>
<path fill="none" stroke="black" d="M1724.94,-928.77C1758.86,-901.1 1795.75,-865.39 1820,-825.71 1853.94,-770.18 1839.92,-746.81 1858,-684.29 1894.84,-556.88 1942.46,-407.22 1965.03,-337.08"/>
<polygon fill="black" stroke="black" points="1968.23,-338.56 1967.97,-327.96 1961.57,-336.41 1968.23,-338.56"/>
</g>
<!-- runCommand&#45;&gt;variables -->
<g id="edge34" class="edge">
<title>runCommand&#45;&gt;variables</title>
<path fill="none" stroke="black" d="M1914.09,-965.29C2177.09,-940.69 2554.23,-894.81 2684,-825.71 2786.09,-771.35 2867.79,-656.09 2903.5,-599.6"/>
<polygon fill="black" stroke="black" points="2906.31,-601.7 2908.63,-591.37 2900.37,-598 2906.31,-601.7"/>
</g>
<!-- runCommand&#45;&gt;vartypes -->
<g id="edge28" class="edge">
<title>runCommand&#45;&gt;vartypes</title>
<path fill="none" stroke="black" d="M1923.49,-971.09C2143.77,-952.17 2424.83,-911.56 2499,-825.71 2514.33,-807.97 2514.98,-427.4 2516,-403.98 2516.89,-383.52 2517.94,-360.86 2518.85,-341.69"/>
<polygon fill="black" stroke="black" points="2522.34,-341.91 2519.32,-331.76 2515.35,-341.58 2522.34,-341.91"/>
</g>
<!-- runner -->
<g id="node21" class="node">
<title>runner</title>
<g id="a_node21"><a xlink:href="html/runner.html" xlink:title="runner.md" target="_parent">
<polygon fill="palegreen" stroke="black" points="1191.37,-1439.69 1191.37,-1470.31 1141.95,-1491.95 1072.05,-1491.95 1022.63,-1470.31 1022.63,-1439.69 1072.05,-1418.05 1141.95,-1418.05 1191.37,-1439.69"/>
<polygon fill="none" stroke="black" points="1195.38,-1437.06 1195.38,-1472.94 1142.78,-1495.98 1071.22,-1495.98 1018.62,-1472.94 1018.62,-1437.06 1071.22,-1414.02 1142.78,-1414.02 1195.38,-1437.06"/>
<text text-anchor="middle" x="1107" y="-1446.2" font-family="Times,serif" font-size="36.00">runner</text>
</a>
</g>
</g>
<!-- signatures&#45;&gt;messages -->
<g id="edge46" class="edge">
<title>signatures&#45;&gt;messages</title>
<path fill="none" stroke="black" d="M2642.83,-409.59C2648.71,-374.85 2654.82,-308.71 2628,-262.06 2579.89,-178.36 2535.84,-179.75 2447,-141.96 2330.77,-92.51 2186.8,-66.04 2093.49,-53.01"/>
<polygon fill="black" stroke="black" points="2094.25,-49.58 2083.86,-51.69 2093.3,-56.52 2094.25,-49.58"/>
</g>
<!-- signatures&#45;&gt;vartypes -->
<g id="edge45" class="edge">
<title>signatures&#45;&gt;vartypes</title>
<path fill="none" stroke="black" d="M2618.42,-410.24C2601.33,-390.37 2576.12,-361.07 2555.63,-337.26"/>
<polygon fill="black" stroke="black" points="2558.48,-335.2 2549.31,-329.91 2553.18,-339.77 2558.48,-335.2"/>
</g>
<!-- startingvars&#45;&gt;args -->
<g id="edge78" class="edge">
<title>startingvars&#45;&gt;args</title>
<path fill="none" stroke="black" d="M1551.81,-1151.85C1365.13,-1145.91 943.83,-1124.37 824,-1049.52 779.7,-1021.85 607.99,-702.83 553.03,-599.26"/>
<polygon fill="black" stroke="black" points="556.27,-597.9 548.49,-590.71 550.08,-601.18 556.27,-597.9"/>
</g>
<!-- startingvars&#45;&gt;env -->
<g id="edge80" class="edge">
<title>startingvars&#45;&gt;env</title>
<path fill="none" stroke="black" d="M1555.6,-1147.43C1364.7,-1132.21 919.7,-1092.51 867,-1049.52 822.11,-1012.9 848.69,-978.88 824,-926.48 801.69,-879.12 789.83,-870.67 763,-825.71 755.65,-813.4 747.65,-799.82 740.67,-787.95"/>
<polygon fill="black" stroke="black" points="743.7,-786.18 735.62,-779.33 737.66,-789.72 743.7,-786.18"/>
</g>
<!-- startingvars&#45;&gt;functions -->
<g id="edge86" class="edge">
<title>startingvars&#45;&gt;functions</title>
<path fill="none" stroke="black" d="M1717.87,-1141.56C1788.71,-1127.44 1895.33,-1099.56 1976,-1049.52 2067.37,-992.85 2149.54,-899.62 2201.08,-833.45"/>
<polygon fill="black" stroke="black" points="2203.57,-835.96 2206.91,-825.91 2198.03,-831.68 2203.57,-835.96"/>
</g>
<!-- startingvars&#45;&gt;messages -->
<g id="edge79" class="edge">
<title>startingvars&#45;&gt;messages</title>
<path fill="none" stroke="black" d="M1732.17,-1152.35C1917.04,-1143.39 2335.36,-1093.09 2499,-825.71 2679.18,-531.3 2209.11,-182.53 2048.53,-75.12"/>
<polygon fill="black" stroke="black" points="2050.84,-72.45 2040.57,-69.83 2046.96,-78.28 2050.84,-72.45"/>
</g>
<!-- startingvars&#45;&gt;opresult -->
<g id="edge84" class="edge">
<title>startingvars&#45;&gt;opresult</title>
<path fill="none" stroke="black" d="M1553.45,-1149.55C1483.24,-1140.81 1389.18,-1116.39 1341,-1049.52 1299.07,-991.32 1308.17,-470.9 1334,-403.98 1369.39,-312.31 1458.51,-234.18 1510.22,-194.65"/>
<polygon fill="black" stroke="black" points="1512.03,-197.67 1517.91,-188.86 1507.81,-192.08 1512.03,-197.67"/>
</g>
<!-- startingvars&#45;&gt;readjson -->
<g id="edge83" class="edge">
<title>startingvars&#45;&gt;readjson</title>
<path fill="none" stroke="black" d="M1727.8,-1147.05C1796.14,-1136.82 1889.01,-1111.61 1943,-1049.52 1970.14,-1018.3 1999.02,-722.44 2015,-684.29 2028.31,-652.52 2050.92,-620.48 2068.72,-597.94"/>
<polygon fill="black" stroke="black" points="2071.27,-600.35 2074.82,-590.37 2065.82,-595.96 2071.27,-600.35"/>
</g>
<!-- startingvars&#45;&gt;runCommand -->
<g id="edge85" class="edge">
<title>startingvars&#45;&gt;runCommand</title>
<path fill="none" stroke="black" d="M1642,-1130.71C1642,-1112.53 1642,-1086.24 1642,-1061.23"/>
<polygon fill="black" stroke="black" points="1645.5,-1061.38 1642,-1051.38 1638.5,-1061.38 1645.5,-1061.38"/>
</g>
<!-- startingvars&#45;&gt;variables -->
<g id="edge81" class="edge">
<title>startingvars&#45;&gt;variables</title>
<path fill="none" stroke="black" d="M1732.89,-1154.87C1950.9,-1155.35 2496.53,-1146.55 2646,-1049.52 2731.7,-993.88 2864.94,-700.64 2908.61,-600.53"/>
<polygon fill="black" stroke="black" points="2911.76,-602.06 2912.53,-591.5 2905.34,-599.28 2911.76,-602.06"/>
</g>
<!-- startingvars&#45;&gt;vartypes -->
<g id="edge82" class="edge">
<title>startingvars&#45;&gt;vartypes</title>
<path fill="none" stroke="black" d="M1731.11,-1150.14C1946.07,-1139.91 2479.3,-1108.77 2532,-1049.52 2625.21,-944.72 2554.35,-486.46 2529.05,-341.28"/>
<polygon fill="black" stroke="black" points="2532.54,-340.92 2527.36,-331.68 2525.65,-342.14 2532.54,-340.92"/>
</g>
<!-- statictea -->
<g id="node24" class="node">
<title>statictea</title>
<g id="a_node24"><a xlink:href="html/statictea.html" xlink:title="statictea.md" target="_parent">
<polygon fill="palegoldenrod" stroke="black" points="582,-1516 409,-1455 582,-1394 755,-1455 582,-1516"/>
<text text-anchor="middle" x="582" y="-1443.1" font-family="Times,serif" font-size="48.00">statictea</text>
</a>
</g>
</g>
<!-- statictea&#45;&gt;args -->
<g id="edge102" class="edge">
<title>statictea&#45;&gt;args</title>
<path fill="none" stroke="black" d="M541.27,-1408.15C496.24,-1352.58 430,-1254.15 430,-1156 430,-1156 430,-1156 430,-987 430,-838.88 492.75,-670.06 521.69,-600.08"/>
<polygon fill="black" stroke="black" points="524.81,-601.68 525.44,-591.11 518.35,-598.98 524.81,-601.68"/>
</g>
<!-- statictea&#45;&gt;env -->
<g id="edge106" class="edge">
<title>statictea&#45;&gt;env</title>
<path fill="none" stroke="black" d="M593.34,-1397.47C621.25,-1258.3 692.66,-902.27 715.13,-790.27"/>
<polygon fill="black" stroke="black" points="718.49,-791.29 717.03,-780.8 711.63,-789.91 718.49,-791.29"/>
</g>
<!-- statictea&#45;&gt;gethelp -->
<g id="edge104" class="edge">
<title>statictea&#45;&gt;gethelp</title>
<path fill="none" stroke="black" d="M514.98,-1417.31C456.61,-1385.35 373.09,-1339.63 319.2,-1310.12"/>
<polygon fill="black" stroke="black" points="320.94,-1307.09 310.49,-1305.36 317.58,-1313.23 320.94,-1307.09"/>
</g>
<!-- statictea&#45;&gt;messages -->
<g id="edge103" class="edge">
<title>statictea&#45;&gt;messages</title>
<path fill="none" stroke="black" d="M442.23,-1442.8C270.03,-1420.49 0,-1353.94 0,-1156 0,-1156 0,-1156 0,-295 0,-181.3 98.13,-180.79 205,-141.96 364.49,-84.01 1550.02,-52.31 1900,-44.14"/>
<polygon fill="black" stroke="black" points="1899.92,-47.64 1909.84,-43.91 1899.76,-40.64 1899.92,-47.64"/>
</g>
<!-- statictea&#45;&gt;opresult -->
<g id="edge107" class="edge">
<title>statictea&#45;&gt;opresult</title>
<path fill="none" stroke="black" d="M528.67,-1412.41C499.09,-1386.3 464.45,-1350.06 445,-1310.02 300.31,-1012.24 392,-898.07 392,-567 392,-567 392,-567 392,-433 392,-210.87 1212.22,-174.22 1471.45,-168.19"/>
<polygon fill="black" stroke="black" points="1471.21,-171.69 1481.13,-167.97 1471.05,-164.7 1471.21,-171.69"/>
</g>
<!-- statictea&#45;&gt;parseCommandLine -->
<g id="edge9" class="edge">
<title>statictea&#45;&gt;parseCommandLine</title>
<path fill="none" stroke="black" d="M443.04,-1442.58C353.88,-1427.26 244.27,-1391.79 186,-1310.02 69.97,-1147.21 136.4,-883.6 165.51,-790.17"/>
<polygon fill="black" stroke="black" points="168.79,-791.42 168.49,-780.83 162.12,-789.3 168.79,-791.42"/>
</g>
<!-- statictea&#45;&gt;processTemplate -->
<g id="edge89" class="edge">
<title>statictea&#45;&gt;processTemplate</title>
<path fill="none" stroke="black" d="M631.69,-1411.24C667.71,-1380.23 715.55,-1339.05 747.71,-1311.37"/>
<polygon fill="black" stroke="black" points="749.9,-1314.1 755.2,-1304.93 745.34,-1308.8 749.9,-1314.1"/>
</g>
<!-- statictea&#45;&gt;repl -->
<g id="edge120" class="edge">
<title>statictea&#45;&gt;repl</title>
<path fill="none" stroke="black" d="M664.81,-1422.71C695.57,-1412.15 731.01,-1401.23 764,-1394 948.64,-1353.55 1536.69,-1300.48 1711.52,-1285.25"/>
<polygon fill="black" stroke="black" points="1711.74,-1288.74 1721.4,-1284.39 1711.13,-1281.77 1711.74,-1288.74"/>
</g>
<!-- timer -->
<g id="node26" class="node">
<title>timer</title>
<g id="a_node26"><a xlink:href="html/timer.html" xlink:title="timer.md" target="_parent">
<polygon fill="palegreen" stroke="black" points="1340.09,-1269.21 1340.09,-1290.79 1309.58,-1306.04 1266.42,-1306.04 1235.91,-1290.79 1235.91,-1269.21 1266.42,-1253.96 1309.58,-1253.96 1340.09,-1269.21"/>
<polygon fill="none" stroke="black" points="1344.09,-1266.74 1344.09,-1293.26 1310.52,-1310.04 1265.48,-1310.04 1231.91,-1293.26 1231.91,-1266.74 1265.48,-1249.96 1310.52,-1249.96 1344.09,-1266.74"/>
<text text-anchor="middle" x="1288" y="-1273.8" font-family="Times,serif" font-size="24.00">timer</text>
</a>
</g>
</g>
<!-- statictea&#45;&gt;timer -->
<g id="edge121" class="edge">
<title>statictea&#45;&gt;timer</title>
<path fill="none" stroke="black" d="M666.47,-1423.47C696.94,-1413.18 731.76,-1402.22 764,-1394 964.95,-1342.75 1024.9,-1371.4 1223,-1310.02 1227.45,-1308.64 1232,-1307.04 1236.52,-1305.31"/>
<polygon fill="black" stroke="black" points="1237.6,-1308.65 1245.56,-1301.66 1234.97,-1302.16 1237.6,-1308.65"/>
</g>
<!-- updateTemplate -->
<g id="node28" class="node">
<title>updateTemplate</title>
<g id="a_node28"><a xlink:href="html/updateTemplate.html" xlink:title="updateTemplate.md" target="_parent">
<ellipse fill="palegoldenrod" stroke="black" cx="1094" cy="-1280" rx="119.5" ry="24.08"/>
<text text-anchor="middle" x="1094" y="-1273.8" font-family="Times,serif" font-size="24.00">updateTemplate</text>
</a>
</g>
</g>
<!-- statictea&#45;&gt;updateTemplate -->
<g id="edge101" class="edge">
<title>statictea&#45;&gt;updateTemplate</title>
<path fill="none" stroke="black" d="M669.43,-1424.46C769.44,-1390.67 931.22,-1336 1023.52,-1304.82"/>
<polygon fill="black" stroke="black" points="1024.36,-1308.23 1032.71,-1301.71 1022.12,-1301.59 1024.36,-1308.23"/>
</g>
<!-- version -->
<g id="node32" class="node">
<title>version</title>
<g id="a_node32"><a xlink:href="html/version.html" xlink:title="version.md" target="_parent">
<polygon fill="palegreen" stroke="black" points="3101.67,-423.21 3101.67,-444.79 3062.62,-460.04 3007.38,-460.04 2968.33,-444.79 2968.33,-423.21 3007.38,-407.96 3062.62,-407.96 3101.67,-423.21"/>
<polygon fill="none" stroke="black" points="3105.67,-420.48 3105.67,-447.52 3063.37,-464.04 3006.63,-464.04 2964.33,-447.52 2964.33,-420.48 3006.63,-403.96 3063.37,-403.96 3105.67,-420.48"/>
<text text-anchor="middle" x="3035" y="-427.8" font-family="Times,serif" font-size="24.00">version</text>
</a>
</g>
</g>
<!-- statictea&#45;&gt;version -->
<g id="edge105" class="edge">
<title>statictea&#45;&gt;version</title>
<path fill="none" stroke="black" d="M663.78,-1422.44C694.74,-1411.72 730.57,-1400.75 764,-1394 1241.59,-1297.51 2545.82,-1456.99 2946,-1179.04 3174.93,-1020.04 3083,-606.01 3046.93,-475.22"/>
<polygon fill="black" stroke="black" points="3050.41,-474.66 3044.34,-465.97 3043.67,-476.55 3050.41,-474.66"/>
</g>
<!-- unicodes&#45;&gt;messages -->
<g id="edge41" class="edge">
<title>unicodes&#45;&gt;messages</title>
<path fill="none" stroke="black" d="M2109.68,-409.65C2118.14,-376.35 2130.13,-313.56 2117,-262.06 2099.45,-193.21 2055.47,-122.66 2025.91,-80.59"/>
<polygon fill="black" stroke="black" points="2028.82,-78.64 2020.17,-72.53 2023.12,-82.7 2028.82,-78.64"/>
</g>
<!-- unicodes&#45;&gt;opresult -->
<g id="edge40" class="edge">
<title>unicodes&#45;&gt;opresult</title>
<path fill="none" stroke="black" d="M2109.38,-409.69C2117.82,-373.24 2127.65,-302.72 2091,-262.06 2030.28,-194.71 1761.56,-174.97 1626.72,-169.27"/>
<polygon fill="black" stroke="black" points="1626.93,-165.78 1616.79,-168.87 1626.64,-172.77 1626.93,-165.78"/>
</g>
<!-- unicodes&#45;&gt;utf8decoder -->
<g id="edge42" class="edge">
<title>unicodes&#45;&gt;utf8decoder</title>
<path fill="none" stroke="black" d="M2082.36,-410.54C2063.38,-389.89 2034.86,-358.87 2012.44,-334.47"/>
<polygon fill="black" stroke="black" points="2015.15,-332.25 2005.81,-327.25 2010,-336.98 2015.15,-332.25"/>
</g>
<!-- unicodes&#45;&gt;vartypes -->
<g id="edge43" class="edge">
<title>unicodes&#45;&gt;vartypes</title>
<path fill="none" stroke="black" d="M2153.42,-416.6C2224.46,-393.48 2354.8,-351.08 2439.64,-323.47"/>
<polygon fill="black" stroke="black" points="2440.66,-326.82 2449.09,-320.4 2438.5,-320.16 2440.66,-326.82"/>
</g>
<!-- updateTemplate&#45;&gt;args -->
<g id="edge90" class="edge">
<title>updateTemplate&#45;&gt;args</title>
<path fill="none" stroke="black" d="M1005.58,-1263.4C909.77,-1245.12 764.59,-1212.98 720,-1179.04 532.56,-1036.35 529.47,-709.35 533.87,-601.92"/>
<polygon fill="black" stroke="black" points="537.36,-602.16 534.33,-592.01 530.37,-601.83 537.36,-602.16"/>
</g>
<!-- updateTemplate&#45;&gt;env -->
<g id="edge92" class="edge">
<title>updateTemplate&#45;&gt;env</title>
<path fill="none" stroke="black" d="M1038.29,-1258.25C961.05,-1226.3 823.56,-1157.23 758,-1049.52 708.05,-967.46 711.89,-848.56 717.57,-790.5"/>
<polygon fill="black" stroke="black" points="721.01,-791.22 718.59,-780.91 714.05,-790.48 721.01,-791.22"/>
</g>
<!-- updateTemplate&#45;&gt;linebuffer -->
<g id="edge93" class="edge">
<title>updateTemplate&#45;&gt;linebuffer</title>
<path fill="none" stroke="black" d="M1106.52,-1255.74C1117.26,-1235.59 1133.02,-1205.58 1146,-1179.04 1221.89,-1023.85 1245.75,-986.86 1308,-825.71 1356.56,-700 1401.13,-546.48 1421.04,-475.08"/>
<polygon fill="black" stroke="black" points="1424.31,-476.37 1423.62,-465.8 1417.57,-474.5 1424.31,-476.37"/>
</g>
<!-- updateTemplate&#45;&gt;messages -->
<g id="edge91" class="edge">
<title>updateTemplate&#45;&gt;messages</title>
<path fill="none" stroke="black" d="M1165.91,-1260.44C1184.4,-1256.33 1204.34,-1252.46 1223,-1249.98 1585.48,-1201.77 2525.8,-1310.56 2867,-1179.04 2990.41,-1131.47 3096,-1121.26 3096,-989 3096,-989 3096,-989 3096,-754 3096,-598.21 3177.13,-546.85 3115,-403.98 3046.91,-247.38 2988.88,-213.87 2834,-141.96 2704.41,-81.79 2285.56,-55.26 2094.11,-46.05"/>
<polygon fill="black" stroke="black" points="2094.33,-42.56 2084.18,-45.58 2094,-49.55 2094.33,-42.56"/>
</g>
<!-- updateTemplate&#45;&gt;opresult -->
<g id="edge100" class="edge">
<title>updateTemplate&#45;&gt;opresult</title>
<path fill="none" stroke="black" d="M1016.24,-1261.28C959.87,-1245.87 883.72,-1219.55 826,-1179.04 764.18,-1135.66 748.05,-1117.9 716,-1049.52 618.58,-841.67 547.57,-735.54 661,-535.98 828.28,-241.67 1287.7,-182.1 1471.5,-170.05"/>
<polygon fill="black" stroke="black" points="1471.67,-173.55 1481.43,-169.43 1471.23,-166.56 1471.67,-173.55"/>
</g>
<!-- updateTemplate&#45;&gt;parseCmdLine -->
<g id="edge94" class="edge">
<title>updateTemplate&#45;&gt;parseCmdLine</title>
<path fill="none" stroke="black" d="M1096.99,-1255.44C1103.75,-1198.7 1118.79,-1050.04 1108,-926.48 1103.84,-878.87 1093.27,-824.63 1085.86,-790.36"/>
<polygon fill="black" stroke="black" points="1089.38,-790.04 1083.81,-781.02 1082.54,-791.54 1089.38,-790.04"/>
</g>
<!-- updateTemplate&#45;&gt;replacement -->
<g id="edge98" class="edge">
<title>updateTemplate&#45;&gt;replacement</title>
<path fill="none" stroke="black" d="M1084.14,-1255.76C1062.46,-1204.64 1010.56,-1082.27 985.3,-1022.71"/>
<polygon fill="black" stroke="black" points="988.62,-1021.59 981.5,-1013.75 982.18,-1024.32 988.62,-1021.59"/>
</g>
<!-- updateTemplate&#45;&gt;runCommand -->
<g id="edge95" class="edge">
<title>updateTemplate&#45;&gt;runCommand</title>
<path fill="none" stroke="black" d="M1139.69,-1257.4C1181.25,-1237.57 1244.13,-1207.1 1298,-1179.04 1376.87,-1137.96 1464.61,-1089.45 1531.73,-1051.72"/>
<polygon fill="black" stroke="black" points="1533.16,-1054.93 1540.16,-1046.98 1529.73,-1048.83 1533.16,-1054.93"/>
</g>
<!-- updateTemplate&#45;&gt;startingvars -->
<g id="edge99" class="edge">
<title>updateTemplate&#45;&gt;startingvars</title>
<path fill="none" stroke="black" d="M1172.11,-1261.42C1188.89,-1257.64 1206.54,-1253.68 1223,-1249.98 1341.51,-1223.35 1478.9,-1192.55 1563.13,-1173.67"/>
<polygon fill="black" stroke="black" points="1563.67,-1177.14 1572.67,-1171.54 1562.14,-1170.31 1563.67,-1177.14"/>
</g>
<!-- updateTemplate&#45;&gt;variables -->
<g id="edge96" class="edge">
<title>updateTemplate&#45;&gt;variables</title>
<path fill="none" stroke="black" d="M1166.25,-1260.38C1184.64,-1256.29 1204.46,-1252.45 1223,-1249.98 1400.82,-1226.26 2687.95,-1280.35 2836,-1179.04 2931.8,-1113.49 2927.82,-721.7 2924.28,-601.83"/>
<polygon fill="black" stroke="black" points="2927.79,-601.86 2923.97,-591.98 2920.79,-602.08 2927.79,-601.86"/>
</g>
<!-- updateTemplate&#45;&gt;vartypes -->
<g id="edge97" class="edge">
<title>updateTemplate&#45;&gt;vartypes</title>
<path fill="none" stroke="black" d="M1166.27,-1260.49C1184.66,-1256.4 1204.47,-1252.53 1223,-1249.98 1519.94,-1209.05 2282.31,-1263.21 2570,-1179.04 2704.63,-1139.65 2822,-1129.28 2822,-989 2822,-989 2822,-989 2822,-565 2822,-488.31 2812.76,-459.63 2760,-403.98 2736.76,-379.47 2659.99,-347.37 2599.66,-324.75"/>
<polygon fill="black" stroke="black" points="2600.99,-321.52 2590.4,-321.31 2598.55,-328.08 2600.99,-321.52"/>
</g>
<!-- variables&#45;&gt;messages -->
<g id="edge32" class="edge">
<title>variables&#45;&gt;messages</title>
<path fill="none" stroke="black" d="M2924.52,-541.65C2927.87,-468.36 2927.01,-241.79 2798,-141.96 2690.06,-58.44 2282.71,-44.15 2094.02,-42.09"/>
<polygon fill="black" stroke="black" points="2094.28,-38.59 2084.25,-41.99 2094.21,-45.59 2094.28,-38.59"/>
</g>
<!-- variables&#45;&gt;opresult -->
<g id="edge33" class="edge">
<title>variables&#45;&gt;opresult</title>
<path fill="none" stroke="black" d="M2921.05,-541.46C2917.17,-507.69 2905.77,-445.05 2873,-403.98 2794.52,-305.61 2747.98,-300.02 2628,-262.06 2440.95,-202.87 1841.98,-177.02 1626.85,-169.48"/>
<polygon fill="black" stroke="black" points="1627,-165.98 1616.89,-169.13 1626.76,-172.98 1627,-165.98"/>
</g>
<!-- variables&#45;&gt;vartypes -->
<g id="edge30" class="edge">
<title>variables&#45;&gt;vartypes</title>
<path fill="none" stroke="black" d="M2916.47,-541.77C2905.51,-506.94 2880.18,-441.3 2836,-403.98 2775.4,-352.79 2689.15,-325.73 2622.22,-311.65"/>
<polygon fill="black" stroke="black" points="2623.2,-308.28 2612.71,-309.72 2621.81,-315.14 2623.2,-308.28"/>
</g>
<!-- variables&#45;&gt;version -->
<g id="edge31" class="edge">
<title>variables&#45;&gt;version</title>
<path fill="none" stroke="black" d="M2942.51,-542.36C2959,-523.22 2982.96,-495.4 3002.36,-472.88"/>
<polygon fill="black" stroke="black" points="3004.96,-475.23 3008.83,-465.37 2999.65,-470.66 3004.96,-475.23"/>
</g>
<!-- vartypes&#45;&gt;messages -->
<g id="edge26" class="edge">
<title>vartypes&#45;&gt;messages</title>
<path fill="none" stroke="black" d="M2505.73,-262.17C2487.65,-226.98 2454.19,-172.12 2409,-141.96 2313.99,-78.55 2182.76,-55.28 2094.14,-46.79"/>
<polygon fill="black" stroke="black" points="2094.52,-43.31 2084.24,-45.9 2093.89,-50.29 2094.52,-43.31"/>
</g>
<!-- vartypes&#45;&gt;opresult -->
<g id="edge27" class="edge">
<title>vartypes&#45;&gt;opresult</title>
<path fill="none" stroke="black" d="M2430.43,-283.07C2239.14,-257.88 1797.22,-199.69 1622.25,-176.65"/>
<polygon fill="black" stroke="black" points="1622.73,-173.18 1612.36,-175.34 1621.82,-180.12 1622.73,-173.18"/>
</g>
</g>
</svg>
