<?xml version="1.0" encoding="UTF-8" standalone="no"?>
<!DOCTYPE svg PUBLIC "-//W3C//DTD SVG 1.1//EN"
 "http://www.w3.org/Graphics/SVG/1.1/DTD/svg11.dtd">
<!-- Generated by graphviz version 7.0.1 (20221109.1506)
 -->
<!-- Title: statictea Pages: 1 -->
<svg width="639pt" height="1634pt"
 viewBox="0.00 0.00 638.77 1634.06" xmlns="http://www.w3.org/2000/svg" xmlns:xlink="http://www.w3.org/1999/xlink">
<g id="graph0" class="graph" transform="scale(1 1) rotate(0) translate(4 1630.06)">
<title>statictea</title>
<polygon fill="white" stroke="none" points="-4,4 -4,-1630.06 634.77,-1630.06 634.77,4 -4,4"/>
<!-- strutils -->
<g id="node1" class="node">
<title>strutils</title>
<ellipse fill="none" stroke="black" cx="88.19" cy="-1023.02" rx="57.97" ry="24.08"/>
<text text-anchor="middle" x="88.19" y="-1016.82" font-family="Times,serif" font-size="24.00">strutils</text>
</g>
<!-- statictea -->
<g id="node2" class="node">
<title>statictea</title>
<ellipse fill="none" stroke="black" cx="547.57" cy="-1476.02" rx="39.79" ry="18"/>
<text text-anchor="middle" x="547.57" y="-1472.32" font-family="Times,serif" font-size="14.00">statictea</text>
</g>
<!-- strutils&#45;&gt;statictea -->
<g id="edge1" class="edge">
<title>strutils&#45;&gt;statictea</title>
<path fill="none" stroke="black" d="M118.81,-1043.88C136.35,-1056.84 158.55,-1074.36 176.38,-1092.02 321.21,-1235.5 296.67,-1333.13 464.38,-1449.02 474.88,-1456.28 487.47,-1461.69 499.6,-1465.69"/>
<polygon fill="black" stroke="black" points="498.5,-1469.01 509.09,-1468.54 500.52,-1462.31 498.5,-1469.01"/>
</g>
<!-- messages -->
<g id="node10" class="node">
<title>messages</title>
<ellipse fill="none" stroke="black" cx="547.57" cy="-342.02" rx="44.39" ry="18"/>
<text text-anchor="middle" x="547.57" y="-338.32" font-family="Times,serif" font-size="14.00">messages</text>
</g>
<!-- strutils&#45;&gt;messages -->
<g id="edge7" class="edge">
<title>strutils&#45;&gt;messages</title>
<path fill="none" stroke="black" d="M127.83,-1005.31C144.37,-996.27 162.93,-983.99 176.38,-969.02 374.06,-748.98 242.06,-564.14 464.38,-369.02 473.02,-361.44 483.83,-355.98 494.75,-352.05"/>
<polygon fill="black" stroke="black" points="495.71,-355.42 504.19,-349.06 493.6,-348.75 495.71,-355.42"/>
</g>
<!-- cmdline -->
<g id="node11" class="node">
<title>cmdline</title>
<ellipse fill="none" stroke="black" cx="547.57" cy="-1260.02" rx="39.79" ry="18"/>
<text text-anchor="middle" x="547.57" y="-1256.32" font-family="Times,serif" font-size="14.00">cmdline</text>
</g>
<!-- strutils&#45;&gt;cmdline -->
<g id="edge12" class="edge">
<title>strutils&#45;&gt;cmdline</title>
<path fill="none" stroke="black" d="M120.25,-1043.14C183.18,-1083.28 331.11,-1174.49 464.38,-1233.02 476.51,-1238.35 490.03,-1243.21 502.55,-1247.29"/>
<polygon fill="black" stroke="black" points="501.2,-1250.54 511.79,-1250.22 503.31,-1243.86 501.2,-1250.54"/>
</g>
<!-- matches -->
<g id="node12" class="node">
<title>matches</title>
<ellipse fill="none" stroke="black" cx="547.57" cy="-612.02" rx="40.09" ry="18"/>
<text text-anchor="middle" x="547.57" y="-608.32" font-family="Times,serif" font-size="14.00">matches</text>
</g>
<!-- strutils&#45;&gt;matches -->
<g id="edge13" class="edge">
<title>strutils&#45;&gt;matches</title>
<path fill="none" stroke="black" d="M124.77,-1004.23C141.26,-994.73 160.64,-982.39 176.38,-969.02 324.78,-843.04 302.12,-746.57 464.38,-639.02 475.02,-631.97 487.65,-626.63 499.78,-622.63"/>
<polygon fill="black" stroke="black" points="500.7,-626.01 509.26,-619.77 498.68,-619.31 500.7,-626.01"/>
</g>
<!-- processTemplate -->
<g id="node15" class="node">
<title>processTemplate</title>
<ellipse fill="none" stroke="black" cx="547.57" cy="-990.02" rx="70.39" ry="18"/>
<text text-anchor="middle" x="547.57" y="-986.32" font-family="Times,serif" font-size="14.00">processTemplate</text>
</g>
<!-- strutils&#45;&gt;processTemplate -->
<g id="edge20" class="edge">
<title>strutils&#45;&gt;processTemplate</title>
<path fill="none" stroke="black" d="M145.73,-1018.94C226.76,-1013.1 376.21,-1002.31 467.96,-995.69"/>
<polygon fill="black" stroke="black" points="468.17,-999.19 477.9,-994.98 467.67,-992.21 468.17,-999.19"/>
</g>
<!-- env -->
<g id="node17" class="node">
<title>env</title>
<ellipse fill="none" stroke="black" cx="547.57" cy="-1422.02" rx="27" ry="18"/>
<text text-anchor="middle" x="547.57" y="-1418.32" font-family="Times,serif" font-size="14.00">env</text>
</g>
<!-- strutils&#45;&gt;env -->
<g id="edge26" class="edge">
<title>strutils&#45;&gt;env</title>
<path fill="none" stroke="black" d="M117.9,-1044.11C135.31,-1057.3 157.71,-1074.97 176.38,-1092.02 313.57,-1217.32 307.37,-1295.69 464.38,-1395.02 478.24,-1403.79 495.22,-1409.99 510.15,-1414.22"/>
<polygon fill="black" stroke="black" points="509.05,-1417.55 519.61,-1416.69 510.82,-1410.78 509.05,-1417.55"/>
</g>
<!-- tempFile -->
<g id="node19" class="node">
<title>tempFile</title>
<ellipse fill="none" stroke="black" cx="547.57" cy="-1314.02" rx="42.49" ry="18"/>
<text text-anchor="middle" x="547.57" y="-1310.32" font-family="Times,serif" font-size="14.00">tempFile</text>
</g>
<!-- strutils&#45;&gt;tempFile -->
<g id="edge29" class="edge">
<title>strutils&#45;&gt;tempFile</title>
<path fill="none" stroke="black" d="M117.07,-1044.27C190.87,-1100.25 390.71,-1250.04 464.38,-1287.02 475.58,-1292.65 488.22,-1297.47 500.16,-1301.42"/>
<polygon fill="black" stroke="black" points="498.83,-1304.68 509.42,-1304.35 500.94,-1298 498.83,-1304.68"/>
</g>
<!-- runCommand -->
<g id="node23" class="node">
<title>runCommand</title>
<ellipse fill="none" stroke="black" cx="547.57" cy="-1152.02" rx="59.59" ry="18"/>
<text text-anchor="middle" x="547.57" y="-1148.32" font-family="Times,serif" font-size="14.00">runCommand</text>
</g>
<!-- strutils&#45;&gt;runCommand -->
<g id="edge37" class="edge">
<title>strutils&#45;&gt;runCommand</title>
<path fill="none" stroke="black" d="M136.84,-1036.46C222.5,-1060.62 401.97,-1111.24 492.25,-1136.7"/>
<polygon fill="black" stroke="black" points="491.04,-1140 501.61,-1139.34 492.94,-1133.26 491.04,-1140"/>
</g>
<!-- vartypes -->
<g id="node24" class="node">
<title>vartypes</title>
<ellipse fill="none" stroke="black" cx="547.57" cy="-774.02" rx="40.09" ry="18"/>
<text text-anchor="middle" x="547.57" y="-770.32" font-family="Times,serif" font-size="14.00">vartypes</text>
</g>
<!-- strutils&#45;&gt;vartypes -->
<g id="edge42" class="edge">
<title>strutils&#45;&gt;vartypes</title>
<path fill="none" stroke="black" d="M121.86,-1003.14C206.5,-951.71 428.8,-817.16 464.38,-801.02 476.34,-795.6 489.71,-790.73 502.14,-786.67"/>
<polygon fill="black" stroke="black" points="502.83,-790.13 511.31,-783.78 500.72,-783.45 502.83,-790.13"/>
</g>
<!-- variables -->
<g id="node25" class="node">
<title>variables</title>
<ellipse fill="none" stroke="black" cx="547.57" cy="-720.02" rx="42.49" ry="18"/>
<text text-anchor="middle" x="547.57" y="-716.32" font-family="Times,serif" font-size="14.00">variables</text>
</g>
<!-- strutils&#45;&gt;variables -->
<g id="edge44" class="edge">
<title>strutils&#45;&gt;variables</title>
<path fill="none" stroke="black" d="M122.83,-1003.29C139.23,-993.39 159.11,-980.98 176.38,-969.02 309.25,-877.02 321.56,-822.66 464.38,-747.02 475.36,-741.21 487.82,-736.34 499.66,-732.4"/>
<polygon fill="black" stroke="black" points="500.37,-735.85 508.85,-729.5 498.26,-729.17 500.37,-735.85"/>
</g>
<!-- functions -->
<g id="node26" class="node">
<title>functions</title>
<ellipse fill="none" stroke="black" cx="547.57" cy="-1368.02" rx="43.59" ry="18"/>
<text text-anchor="middle" x="547.57" y="-1364.32" font-family="Times,serif" font-size="14.00">functions</text>
</g>
<!-- strutils&#45;&gt;functions -->
<g id="edge49" class="edge">
<title>strutils&#45;&gt;functions</title>
<path fill="none" stroke="black" d="M116.53,-1044.17C133.84,-1057.67 156.6,-1075.66 176.38,-1092.02 306.75,-1199.88 317.13,-1257.66 464.38,-1341.02 474.88,-1346.97 486.88,-1351.84 498.41,-1355.73"/>
<polygon fill="black" stroke="black" points="497.22,-1359.02 507.81,-1358.7 499.33,-1352.35 497.22,-1359.02"/>
</g>
<!-- unicodes -->
<g id="node32" class="node">
<title>unicodes</title>
<ellipse fill="none" stroke="black" cx="547.57" cy="-504.02" rx="42.49" ry="18"/>
<text text-anchor="middle" x="547.57" y="-500.32" font-family="Times,serif" font-size="14.00">unicodes</text>
</g>
<!-- strutils&#45;&gt;unicodes -->
<g id="edge56" class="edge">
<title>strutils&#45;&gt;unicodes</title>
<path fill="none" stroke="black" d="M126.48,-1004.68C142.95,-995.44 161.83,-983.18 176.38,-969.02 343.34,-806.53 279.37,-672.62 464.38,-531.02 473.96,-523.69 485.62,-518.3 497.11,-514.36"/>
<polygon fill="black" stroke="black" points="498.03,-517.74 506.56,-511.45 495.97,-511.05 498.03,-517.74"/>
</g>
<!-- parseMarkdown -->
<g id="node36" class="node">
<title>parseMarkdown</title>
<ellipse fill="none" stroke="black" cx="547.57" cy="-1044.02" rx="68.49" ry="18"/>
<text text-anchor="middle" x="547.57" y="-1040.32" font-family="Times,serif" font-size="14.00">parseMarkdown</text>
</g>
<!-- strutils&#45;&gt;parseMarkdown -->
<g id="edge62" class="edge">
<title>strutils&#45;&gt;parseMarkdown</title>
<path fill="none" stroke="black" d="M146.19,-1025.64C227.37,-1029.37 376.58,-1036.22 468.14,-1040.42"/>
<polygon fill="black" stroke="black" points="467.9,-1043.91 478.05,-1040.88 468.22,-1036.92 467.9,-1043.91"/>
</g>
<!-- replacement -->
<g id="node37" class="node">
<title>replacement</title>
<ellipse fill="none" stroke="black" cx="547.57" cy="-666.02" rx="53.89" ry="18"/>
<text text-anchor="middle" x="547.57" y="-662.32" font-family="Times,serif" font-size="14.00">replacement</text>
</g>
<!-- strutils&#45;&gt;replacement -->
<g id="edge66" class="edge">
<title>strutils&#45;&gt;replacement</title>
<path fill="none" stroke="black" d="M123.83,-1003.84C140.29,-994.16 159.91,-981.78 176.38,-969.02 316.51,-860.42 312.39,-784.29 464.38,-693.02 472.89,-687.91 482.49,-683.64 492.05,-680.11"/>
<polygon fill="black" stroke="black" points="493,-683.49 501.33,-676.93 490.73,-676.86 493,-683.49"/>
</g>
<!-- startingvars -->
<g id="node38" class="node">
<title>startingvars</title>
<ellipse fill="none" stroke="black" cx="547.57" cy="-1206.02" rx="51.99" ry="18"/>
<text text-anchor="middle" x="547.57" y="-1202.32" font-family="Times,serif" font-size="14.00">startingvars</text>
</g>
<!-- strutils&#45;&gt;startingvars -->
<g id="edge69" class="edge">
<title>strutils&#45;&gt;startingvars</title>
<path fill="none" stroke="black" d="M128.77,-1040.66C196.76,-1070.69 340.39,-1132.96 464.38,-1179.02 474.94,-1182.95 486.37,-1186.89 497.25,-1190.5"/>
<polygon fill="black" stroke="black" points="495.86,-1193.73 506.45,-1193.52 498.04,-1187.08 495.86,-1193.73"/>
</g>
<!-- repl -->
<g id="node41" class="node">
<title>repl</title>
<ellipse fill="none" stroke="black" cx="547.57" cy="-288.02" rx="27" ry="18"/>
<text text-anchor="middle" x="547.57" y="-284.32" font-family="Times,serif" font-size="14.00">repl</text>
</g>
<!-- strutils&#45;&gt;repl -->
<g id="edge77" class="edge">
<title>strutils&#45;&gt;repl</title>
<path fill="none" stroke="black" d="M128.5,-1005.27C144.97,-996.29 163.3,-984.07 176.38,-969.02 384.74,-729.32 229.13,-528.4 464.38,-315.02 476.82,-303.74 494.08,-297.16 509.58,-293.33"/>
<polygon fill="black" stroke="black" points="509.93,-296.83 518.97,-291.31 508.46,-289.99 509.93,-296.83"/>
</g>
<!-- options -->
<g id="node3" class="node">
<title>options</title>
<ellipse fill="none" stroke="black" cx="88.19" cy="-801.02" rx="61.54" ry="24.08"/>
<text text-anchor="middle" x="88.19" y="-794.82" font-family="Times,serif" font-size="24.00">options</text>
</g>
<!-- parseCommandLine -->
<g id="node4" class="node">
<title>parseCommandLine</title>
<ellipse fill="none" stroke="black" cx="547.57" cy="-936.02" rx="83.39" ry="18"/>
<text text-anchor="middle" x="547.57" y="-932.32" font-family="Times,serif" font-size="14.00">parseCommandLine</text>
</g>
<!-- options&#45;&gt;parseCommandLine -->
<g id="edge2" class="edge">
<title>options&#45;&gt;parseCommandLine</title>
<path fill="none" stroke="black" d="M138.14,-815.47C222.32,-840.32 394.26,-891.07 485.9,-918.12"/>
<polygon fill="black" stroke="black" points="484.91,-921.47 495.49,-920.94 486.89,-914.76 484.91,-921.47"/>
</g>
<!-- options&#45;&gt;matches -->
<g id="edge14" class="edge">
<title>options&#45;&gt;matches</title>
<path fill="none" stroke="black" d="M128.69,-782.57C196.55,-751.17 339.99,-686.2 464.38,-639.02 476.87,-634.29 490.61,-629.58 503.21,-625.46"/>
<polygon fill="black" stroke="black" points="504.05,-628.86 512.5,-622.46 501.9,-622.2 504.05,-628.86"/>
</g>
<!-- regexes -->
<g id="node14" class="node">
<title>regexes</title>
<ellipse fill="none" stroke="black" cx="547.57" cy="-450.02" rx="37.89" ry="18"/>
<text text-anchor="middle" x="547.57" y="-446.32" font-family="Times,serif" font-size="14.00">regexes</text>
</g>
<!-- options&#45;&gt;regexes -->
<g id="edge16" class="edge">
<title>options&#45;&gt;regexes</title>
<path fill="none" stroke="black" d="M109.26,-778.34C161.88,-720.16 310.45,-564.11 464.38,-477.02 476.01,-470.44 489.48,-465.18 502.11,-461.11"/>
<polygon fill="black" stroke="black" points="502.91,-464.52 511.47,-458.27 500.89,-457.82 502.91,-464.52"/>
</g>
<!-- options&#45;&gt;processTemplate -->
<g id="edge18" class="edge">
<title>options&#45;&gt;processTemplate</title>
<path fill="none" stroke="black" d="M128.69,-819.48C196.55,-850.87 339.99,-915.85 464.38,-963.02 472.87,-966.24 481.93,-969.44 490.82,-972.46"/>
<polygon fill="black" stroke="black" points="489.5,-975.71 500.09,-975.56 491.71,-969.07 489.5,-975.71"/>
</g>
<!-- options&#45;&gt;env -->
<g id="edge25" class="edge">
<title>options&#45;&gt;env</title>
<path fill="none" stroke="black" d="M110.5,-823.56C128.96,-843.62 155.85,-874.17 176.38,-903.02 323.28,-1109.47 267.25,-1235.84 464.38,-1395.02 477.32,-1405.47 494.45,-1411.94 509.72,-1415.9"/>
<polygon fill="black" stroke="black" points="508.94,-1419.31 519.46,-1418.14 510.5,-1412.49 508.94,-1419.31"/>
</g>
<!-- options&#45;&gt;tempFile -->
<g id="edge30" class="edge">
<title>options&#45;&gt;tempFile</title>
<path fill="none" stroke="black" d="M109.35,-823.76C127.31,-844.2 154.1,-875.2 176.38,-903.02 309.76,-1069.52 291.04,-1162.66 464.38,-1287.02 474.18,-1294.06 485.93,-1299.33 497.43,-1303.27"/>
<polygon fill="black" stroke="black" points="496.28,-1306.57 506.86,-1306.19 498.35,-1299.89 496.28,-1306.57"/>
</g>
<!-- linebuffer -->
<g id="node21" class="node">
<title>linebuffer</title>
<ellipse fill="none" stroke="black" cx="547.57" cy="-828.02" rx="45.49" ry="18"/>
<text text-anchor="middle" x="547.57" y="-824.32" font-family="Times,serif" font-size="14.00">linebuffer</text>
</g>
<!-- options&#45;&gt;linebuffer -->
<g id="edge33" class="edge">
<title>options&#45;&gt;linebuffer</title>
<path fill="none" stroke="black" d="M149.46,-804.58C238.63,-809.84 404.46,-819.63 490.91,-824.74"/>
<polygon fill="black" stroke="black" points="490.61,-828.22 500.8,-825.32 491.02,-821.24 490.61,-828.22"/>
</g>
<!-- parseCmdLine -->
<g id="node22" class="node">
<title>parseCmdLine</title>
<ellipse fill="none" stroke="black" cx="547.57" cy="-558.02" rx="63.09" ry="18"/>
<text text-anchor="middle" x="547.57" y="-554.32" font-family="Times,serif" font-size="14.00">parseCmdLine</text>
</g>
<!-- options&#45;&gt;parseCmdLine -->
<g id="edge34" class="edge">
<title>options&#45;&gt;parseCmdLine</title>
<path fill="none" stroke="black" d="M120.15,-780.25C182.91,-738.82 330.55,-644.77 464.38,-585.02 472.96,-581.19 482.25,-577.62 491.39,-574.42"/>
<polygon fill="black" stroke="black" points="492.22,-577.83 500.57,-571.31 489.98,-571.2 492.22,-577.83"/>
</g>
<!-- options&#45;&gt;runCommand -->
<g id="edge36" class="edge">
<title>options&#45;&gt;runCommand</title>
<path fill="none" stroke="black" d="M109.26,-823.71C161.88,-881.88 310.45,-1037.94 464.38,-1125.02 472.37,-1129.54 481.24,-1133.45 490.1,-1136.77"/>
<polygon fill="black" stroke="black" points="488.83,-1140.03 499.42,-1140.03 491.14,-1133.42 488.83,-1140.03"/>
</g>
<!-- options&#45;&gt;vartypes -->
<g id="edge43" class="edge">
<title>options&#45;&gt;vartypes</title>
<path fill="none" stroke="black" d="M149.46,-797.46C240.39,-792.1 411.05,-782.02 495.94,-777.01"/>
<polygon fill="black" stroke="black" points="496.05,-780.51 505.82,-776.43 495.63,-773.52 496.05,-780.51"/>
</g>
<!-- options&#45;&gt;variables -->
<g id="edge45" class="edge">
<title>options&#45;&gt;variables</title>
<path fill="none" stroke="black" d="M144.82,-791.17C234.72,-775.25 410.57,-744.11 496.67,-728.86"/>
<polygon fill="black" stroke="black" points="497.23,-732.32 506.46,-727.13 496.01,-725.42 497.23,-732.32"/>
</g>
<!-- options&#45;&gt;functions -->
<g id="edge47" class="edge">
<title>options&#45;&gt;functions</title>
<path fill="none" stroke="black" d="M110.14,-823.83C128.36,-844.06 155.11,-874.71 176.38,-903.02 316.35,-1089.27 279.37,-1199.42 464.38,-1341.02 473.78,-1348.22 485.18,-1353.54 496.46,-1357.46"/>
<polygon fill="black" stroke="black" points="495.14,-1360.72 505.73,-1360.36 497.23,-1354.04 495.14,-1360.72"/>
</g>
<!-- parseNumber -->
<g id="node29" class="node">
<title>parseNumber</title>
<ellipse fill="none" stroke="black" cx="547.57" cy="-132.02" rx="58.49" ry="18"/>
<text text-anchor="middle" x="547.57" y="-128.32" font-family="Times,serif" font-size="14.00">parseNumber</text>
</g>
<!-- options&#45;&gt;parseNumber -->
<g id="edge53" class="edge">
<title>options&#45;&gt;parseNumber</title>
<path fill="none" stroke="black" d="M105.2,-777.6C175.04,-675.45 452.88,-269.06 527.85,-159.41"/>
<polygon fill="black" stroke="black" points="530.66,-161.5 533.41,-151.27 524.88,-157.55 530.66,-161.5"/>
</g>
<!-- options&#45;&gt;replacement -->
<g id="edge63" class="edge">
<title>options&#45;&gt;replacement</title>
<path fill="none" stroke="black" d="M138.14,-786.58C225.32,-760.84 406.66,-707.32 495.41,-681.12"/>
<polygon fill="black" stroke="black" points="496.23,-684.53 504.83,-678.34 494.24,-677.82 496.23,-684.53"/>
</g>
<!-- updateTemplate -->
<g id="node39" class="node">
<title>updateTemplate</title>
<ellipse fill="none" stroke="black" cx="547.57" cy="-1098.02" rx="67.69" ry="18"/>
<text text-anchor="middle" x="547.57" y="-1094.32" font-family="Times,serif" font-size="14.00">updateTemplate</text>
</g>
<!-- options&#45;&gt;updateTemplate -->
<g id="edge72" class="edge">
<title>options&#45;&gt;updateTemplate</title>
<path fill="none" stroke="black" d="M114.23,-823.3C172.05,-873.77 320.97,-998.07 464.38,-1071.02 471.92,-1074.86 480.12,-1078.31 488.33,-1081.37"/>
<polygon fill="black" stroke="black" points="487.04,-1084.63 497.63,-1084.65 489.37,-1078.02 487.04,-1084.63"/>
</g>
<!-- options&#45;&gt;repl -->
<g id="edge76" class="edge">
<title>options&#45;&gt;repl</title>
<path fill="none" stroke="black" d="M100.99,-776.98C140.76,-698.43 277.9,-446.86 464.38,-315.02 477.87,-305.49 494.93,-299.16 510.02,-295.05"/>
<polygon fill="black" stroke="black" points="510.73,-298.48 519.6,-292.68 509.05,-291.68 510.73,-298.48"/>
</g>
<!-- tables -->
<g id="node5" class="node">
<title>tables</title>
<ellipse fill="none" stroke="black" cx="88.19" cy="-936.02" rx="50.82" ry="24.08"/>
<text text-anchor="middle" x="88.19" y="-929.82" font-family="Times,serif" font-size="24.00">tables</text>
</g>
<!-- tables&#45;&gt;parseCommandLine -->
<g id="edge3" class="edge">
<title>tables&#45;&gt;parseCommandLine</title>
<path fill="none" stroke="black" d="M139.45,-936.02C214.6,-936.02 357.55,-936.02 452.48,-936.02"/>
<polygon fill="black" stroke="black" points="452.29,-939.52 462.29,-936.02 452.29,-932.52 452.29,-939.52"/>
</g>
<!-- args -->
<g id="node8" class="node">
<title>args</title>
<ellipse fill="none" stroke="black" cx="547.57" cy="-396.02" rx="27" ry="18"/>
<text text-anchor="middle" x="547.57" y="-392.32" font-family="Times,serif" font-size="14.00">args</text>
</g>
<!-- tables&#45;&gt;args -->
<g id="edge9" class="edge">
<title>tables&#45;&gt;args</title>
<path fill="none" stroke="black" d="M109.22,-913.85C127.32,-893.53 154.41,-862.38 176.38,-834.02 313,-657.71 285.27,-555.96 464.38,-423.02 477.64,-413.18 494.68,-406.81 509.8,-402.75"/>
<polygon fill="black" stroke="black" points="510.52,-406.17 519.42,-400.42 508.88,-399.37 510.52,-406.17"/>
</g>
<!-- tables&#45;&gt;cmdline -->
<g id="edge11" class="edge">
<title>tables&#45;&gt;cmdline</title>
<path fill="none" stroke="black" d="M121.4,-954.43C138.17,-964.4 158.8,-977.27 176.38,-990.02 311.93,-1088.38 318.15,-1151.39 464.38,-1233.02 475.63,-1239.3 488.56,-1244.4 500.79,-1248.41"/>
<polygon fill="black" stroke="black" points="499.72,-1251.74 510.31,-1251.34 501.78,-1245.05 499.72,-1251.74"/>
</g>
<!-- tables&#45;&gt;regexes -->
<g id="edge17" class="edge">
<title>tables&#45;&gt;regexes</title>
<path fill="none" stroke="black" d="M108.42,-913.89C126.21,-893.33 153.31,-861.8 176.38,-834.02 306.62,-677.19 296.67,-592.92 464.38,-477.02 475.37,-469.43 488.65,-463.85 501.29,-459.81"/>
<polygon fill="black" stroke="black" points="502.1,-463.22 510.72,-457.06 500.14,-456.5 502.1,-463.22"/>
</g>
<!-- tables&#45;&gt;processTemplate -->
<g id="edge19" class="edge">
<title>tables&#45;&gt;processTemplate</title>
<path fill="none" stroke="black" d="M137.71,-941.75C217.57,-951.18 377.28,-970.03 471.72,-981.18"/>
<polygon fill="black" stroke="black" points="471.06,-984.63 481.4,-982.33 471.88,-977.68 471.06,-984.63"/>
</g>
<!-- tables&#45;&gt;parseCmdLine -->
<g id="edge35" class="edge">
<title>tables&#45;&gt;parseCmdLine</title>
<path fill="none" stroke="black" d="M110.01,-914.22C176.22,-845.27 382.45,-633.55 464.38,-585.02 471.75,-580.66 479.91,-576.9 488.15,-573.69"/>
<polygon fill="black" stroke="black" points="489.32,-576.99 497.54,-570.3 486.95,-570.4 489.32,-576.99"/>
</g>
<!-- tables&#45;&gt;runCommand -->
<g id="edge38" class="edge">
<title>tables&#45;&gt;runCommand</title>
<path fill="none" stroke="black" d="M121.79,-954.54C185.96,-990.51 333.79,-1071.03 464.38,-1125.02 473.56,-1128.82 483.48,-1132.45 493.14,-1135.76"/>
<polygon fill="black" stroke="black" points="491.87,-1139.02 502.46,-1138.86 494.08,-1132.38 491.87,-1139.02"/>
</g>
<!-- tables&#45;&gt;vartypes -->
<g id="edge41" class="edge">
<title>tables&#45;&gt;vartypes</title>
<path fill="none" stroke="black" d="M129.04,-921.27C197.43,-896.04 341.65,-843.25 464.38,-801.02 477.01,-796.68 490.79,-792.09 503.39,-787.96"/>
<polygon fill="black" stroke="black" points="504.24,-791.36 512.66,-784.93 502.07,-784.71 504.24,-791.36"/>
</g>
<!-- tables&#45;&gt;variables -->
<g id="edge46" class="edge">
<title>tables&#45;&gt;variables</title>
<path fill="none" stroke="black" d="M121.79,-917.51C185.96,-881.54 333.79,-801.01 464.38,-747.02 476.07,-742.19 488.96,-737.61 501.01,-733.65"/>
<polygon fill="black" stroke="black" points="501.87,-737.05 510.32,-730.66 499.73,-730.38 501.87,-737.05"/>
</g>
<!-- tables&#45;&gt;functions -->
<g id="edge48" class="edge">
<title>tables&#45;&gt;functions</title>
<path fill="none" stroke="black" d="M123.26,-953.63C140.14,-963.2 160.3,-975.95 176.38,-990.02 328.21,-1122.94 297.9,-1226.99 464.38,-1341.02 474.24,-1347.78 485.91,-1352.94 497.32,-1356.85"/>
<polygon fill="black" stroke="black" points="496.07,-1360.13 506.66,-1359.77 498.16,-1353.45 496.07,-1360.13"/>
</g>
<!-- signatures -->
<g id="node33" class="node">
<title>signatures</title>
<ellipse fill="none" stroke="black" cx="547.57" cy="-882.02" rx="46.29" ry="18"/>
<text text-anchor="middle" x="547.57" y="-878.32" font-family="Times,serif" font-size="14.00">signatures</text>
</g>
<!-- tables&#45;&gt;signatures -->
<g id="edge57" class="edge">
<title>tables&#45;&gt;signatures</title>
<path fill="none" stroke="black" d="M137.71,-930.29C223.49,-920.17 401.41,-899.16 491.6,-888.51"/>
<polygon fill="black" stroke="black" points="491.91,-892 501.43,-887.35 491.09,-885.05 491.91,-892"/>
</g>
<!-- readjson -->
<g id="node34" class="node">
<title>readjson</title>
<ellipse fill="none" stroke="black" cx="547.57" cy="-1530.02" rx="40.09" ry="18"/>
<text text-anchor="middle" x="547.57" y="-1526.32" font-family="Times,serif" font-size="14.00">readjson</text>
</g>
<!-- tables&#45;&gt;readjson -->
<g id="edge61" class="edge">
<title>tables&#45;&gt;readjson</title>
<path fill="none" stroke="black" d="M125.21,-952.95C142.19,-962.19 161.85,-974.85 176.38,-990.02 357.26,-1178.84 262.44,-1336.93 464.38,-1503.02 474.15,-1511.06 486.39,-1516.73 498.41,-1520.72"/>
<polygon fill="black" stroke="black" points="497.28,-1524.04 507.86,-1523.51 499.26,-1517.32 497.28,-1524.04"/>
</g>
<!-- tables&#45;&gt;startingvars -->
<g id="edge68" class="edge">
<title>tables&#45;&gt;startingvars</title>
<path fill="none" stroke="black" d="M120.39,-955.07C137.07,-965.32 157.91,-978.25 176.38,-990.02 305.47,-1072.34 326.46,-1112.56 464.38,-1179.02 474.12,-1183.72 484.88,-1187.91 495.32,-1191.5"/>
<polygon fill="black" stroke="black" points="494,-1194.75 504.59,-1194.56 496.19,-1188.1 494,-1194.75"/>
</g>
<!-- tables&#45;&gt;updateTemplate -->
<g id="edge73" class="edge">
<title>tables&#45;&gt;updateTemplate</title>
<path fill="none" stroke="black" d="M129.04,-950.78C197.43,-976 341.65,-1028.79 464.38,-1071.02 473.47,-1074.15 483.14,-1077.4 492.55,-1080.51"/>
<polygon fill="black" stroke="black" points="491.38,-1083.82 501.98,-1083.62 493.57,-1077.17 491.38,-1083.82"/>
</g>
<!-- tables&#45;&gt;repl -->
<g id="edge75" class="edge">
<title>tables&#45;&gt;repl</title>
<path fill="none" stroke="black" d="M110.3,-913.99C128.88,-894.02 156.05,-863.3 176.38,-834.02 326.84,-617.34 261.06,-483.1 464.38,-315.02 477.33,-304.32 494.65,-297.81 510.06,-293.88"/>
<polygon fill="black" stroke="black" points="510.38,-297.4 519.37,-291.78 508.84,-290.57 510.38,-297.4"/>
</g>
<!-- os -->
<g id="node6" class="node">
<title>os</title>
<ellipse fill="none" stroke="black" cx="88.19" cy="-1236.02" rx="27" ry="24.08"/>
<text text-anchor="middle" x="88.19" y="-1229.82" font-family="Times,serif" font-size="24.00">os</text>
</g>
<!-- os&#45;&gt;statictea -->
<g id="edge83" class="edge">
<title>os&#45;&gt;statictea</title>
<path fill="none" stroke="black" d="M114.17,-1244.01C131.91,-1250.03 156.08,-1258.96 176.38,-1269.02 311.62,-1336.06 327.69,-1385 464.38,-1449.02 476.27,-1454.59 489.62,-1459.5 502.05,-1463.56"/>
<polygon fill="black" stroke="black" points="500.64,-1466.79 511.23,-1466.44 502.74,-1460.11 500.64,-1466.79"/>
</g>
<!-- os&#45;&gt;parseCommandLine -->
<g id="edge4" class="edge">
<title>os&#45;&gt;parseCommandLine</title>
<path fill="none" stroke="black" d="M107.71,-1219.22C160.03,-1172.52 314.88,-1039.57 464.38,-963.02 470.61,-959.83 477.29,-956.91 484.06,-954.26"/>
<polygon fill="black" stroke="black" points="485.12,-957.6 493.29,-950.85 482.7,-951.04 485.12,-957.6"/>
</g>
<!-- os&#45;&gt;cmdline -->
<g id="edge10" class="edge">
<title>os&#45;&gt;cmdline</title>
<path fill="none" stroke="black" d="M115.42,-1237.4C189.21,-1241.27 399.45,-1252.3 496.44,-1257.39"/>
<polygon fill="black" stroke="black" points="496.01,-1260.87 506.18,-1257.9 496.38,-1253.88 496.01,-1260.87"/>
</g>
<!-- os&#45;&gt;env -->
<g id="edge23" class="edge">
<title>os&#45;&gt;env</title>
<path fill="none" stroke="black" d="M113.75,-1244.94C131.29,-1251.4 155.4,-1260.47 176.38,-1269.02 305.76,-1321.77 333.87,-1345.16 464.38,-1395.02 479.81,-1400.92 497.15,-1406.73 511.91,-1411.44"/>
<polygon fill="black" stroke="black" points="510.59,-1414.7 521.18,-1414.36 512.69,-1408.02 510.59,-1414.7"/>
</g>
<!-- os&#45;&gt;tempFile -->
<g id="edge27" class="edge">
<title>os&#45;&gt;tempFile</title>
<path fill="none" stroke="black" d="M115.09,-1240.44C188.55,-1252.97 399.16,-1288.88 496.33,-1305.45"/>
<polygon fill="black" stroke="black" points="495.67,-1308.89 506.11,-1307.12 496.85,-1301.99 495.67,-1308.89"/>
</g>
<!-- os&#45;&gt;runCommand -->
<g id="edge39" class="edge">
<title>os&#45;&gt;runCommand</title>
<path fill="none" stroke="black" d="M115.09,-1231.27C185.69,-1218.3 383,-1182.06 484.51,-1163.42"/>
<polygon fill="black" stroke="black" points="485.12,-1166.87 494.32,-1161.62 483.85,-1159.98 485.12,-1166.87"/>
</g>
<!-- os&#45;&gt;functions -->
<g id="edge51" class="edge">
<title>os&#45;&gt;functions</title>
<path fill="none" stroke="black" d="M114.43,-1243.31C188.22,-1264.6 404.33,-1326.97 500.04,-1354.59"/>
<polygon fill="black" stroke="black" points="499.06,-1357.95 509.64,-1357.36 501,-1351.23 499.06,-1357.95"/>
</g>
<!-- os&#45;&gt;readjson -->
<g id="edge59" class="edge">
<title>os&#45;&gt;readjson</title>
<path fill="none" stroke="black" d="M114.19,-1243.13C132.16,-1248.79 156.6,-1257.64 176.38,-1269.02 319.34,-1351.27 319.63,-1423.97 464.38,-1503.02 475.68,-1509.2 488.64,-1514.26 500.87,-1518.27"/>
<polygon fill="black" stroke="black" points="499.79,-1521.6 510.38,-1521.21 501.86,-1514.91 499.79,-1521.6"/>
</g>
<!-- os&#45;&gt;startingvars -->
<g id="edge67" class="edge">
<title>os&#45;&gt;startingvars</title>
<path fill="none" stroke="black" d="M115.42,-1234.3C186.43,-1229.64 383.84,-1216.7 485.03,-1210.06"/>
<polygon fill="black" stroke="black" points="485.03,-1213.57 494.78,-1209.42 484.57,-1206.58 485.03,-1213.57"/>
</g>
<!-- os&#45;&gt;updateTemplate -->
<g id="edge71" class="edge">
<title>os&#45;&gt;updateTemplate</title>
<path fill="none" stroke="black" d="M114.11,-1228.5C185.35,-1207.01 391.19,-1144.9 491,-1114.79"/>
<polygon fill="black" stroke="black" points="491.75,-1118.22 500.31,-1111.98 489.73,-1111.52 491.75,-1118.22"/>
</g>
<!-- strformat -->
<g id="node7" class="node">
<title>strformat</title>
<ellipse fill="none" stroke="black" cx="88.19" cy="-414.02" rx="74.49" ry="24.08"/>
<text text-anchor="middle" x="88.19" y="-407.82" font-family="Times,serif" font-size="24.00">strformat</text>
</g>
<!-- strformat&#45;&gt;args -->
<g id="edge5" class="edge">
<title>strformat&#45;&gt;args</title>
<path fill="none" stroke="black" d="M162.42,-411.14C261.12,-407.26 433.17,-400.49 508.93,-397.5"/>
<polygon fill="black" stroke="black" points="508.87,-401.01 518.72,-397.12 508.59,-394.01 508.87,-401.01"/>
</g>
<!-- strformat&#45;&gt;messages -->
<g id="edge8" class="edge">
<title>strformat&#45;&gt;messages</title>
<path fill="none" stroke="black" d="M155.7,-403.55C247.51,-389.1 411.18,-363.34 494.59,-350.21"/>
<polygon fill="black" stroke="black" points="494.98,-353.69 504.32,-348.67 493.9,-346.77 494.98,-353.69"/>
</g>
<!-- strformat&#45;&gt;replacement -->
<g id="edge65" class="edge">
<title>strformat&#45;&gt;replacement</title>
<path fill="none" stroke="black" d="M140.75,-431.33C152.67,-435.93 165.15,-441.25 176.38,-447.02 313.19,-517.37 326.04,-571.74 464.38,-639.02 473.7,-643.56 483.98,-647.61 494.01,-651.11"/>
<polygon fill="black" stroke="black" points="492.71,-654.37 503.3,-654.21 494.93,-647.73 492.71,-654.37"/>
</g>
<!-- strformat&#45;&gt;repl -->
<g id="edge78" class="edge">
<title>strformat&#45;&gt;repl</title>
<path fill="none" stroke="black" d="M145.73,-398.45C241.41,-372.09 432.51,-319.44 511.33,-297.73"/>
<polygon fill="black" stroke="black" points="511.95,-301.19 520.66,-295.16 510.09,-294.44 511.95,-301.19"/>
</g>
<!-- macros -->
<g id="node9" class="node">
<title>macros</title>
<polygon fill="palegreen" stroke="black" points="153.84,-331.24 153.84,-352.81 115.39,-368.06 61,-368.06 22.54,-352.81 22.54,-331.24 61,-315.98 115.39,-315.98 153.84,-331.24"/>
<polygon fill="none" stroke="black" points="157.83,-328.51 157.83,-355.53 116.15,-372.07 60.24,-372.07 18.55,-355.53 18.55,-328.51 60.24,-311.98 116.15,-311.98 157.83,-328.51"/>
<text text-anchor="middle" x="88.19" y="-335.82" font-family="Times,serif" font-size="24.00">macros</text>
</g>
<!-- macros&#45;&gt;messages -->
<g id="edge6" class="edge">
<title>macros&#45;&gt;messages</title>
<path fill="none" stroke="black" d="M158.16,-342.02C249.33,-342.02 408.14,-342.02 491.65,-342.02"/>
<polygon fill="black" stroke="black" points="491.41,-345.52 501.41,-342.02 491.41,-338.52 491.41,-345.52"/>
</g>
<!-- re -->
<g id="node13" class="node">
<title>re</title>
<polygon fill="palegreen" stroke="black" points="115.19,-475.24 115.19,-496.81 99.37,-512.06 77.01,-512.06 61.19,-496.81 61.19,-475.24 77.01,-459.98 99.37,-459.98 115.19,-475.24"/>
<polygon fill="none" stroke="black" points="119.19,-473.53 119.19,-498.51 100.99,-516.07 75.39,-516.07 57.19,-498.51 57.19,-473.53 75.39,-455.98 100.99,-455.98 119.19,-473.53"/>
<text text-anchor="middle" x="88.19" y="-479.82" font-family="Times,serif" font-size="24.00">re</text>
</g>
<!-- re&#45;&gt;regexes -->
<g id="edge15" class="edge">
<title>re&#45;&gt;regexes</title>
<path fill="none" stroke="black" d="M119.55,-483.63C197.32,-477.51 404.13,-461.23 498.46,-453.81"/>
<polygon fill="black" stroke="black" points="498.46,-457.32 508.15,-453.05 497.91,-450.34 498.46,-457.32"/>
</g>
<!-- streams -->
<g id="node16" class="node">
<title>streams</title>
<ellipse fill="none" stroke="black" cx="88.19" cy="-1125.02" rx="62.87" ry="24.08"/>
<text text-anchor="middle" x="88.19" y="-1118.82" font-family="Times,serif" font-size="24.00">streams</text>
</g>
<!-- streams&#45;&gt;processTemplate -->
<g id="edge21" class="edge">
<title>streams&#45;&gt;processTemplate</title>
<path fill="none" stroke="black" d="M138.57,-1110.45C223.95,-1085.25 398.66,-1033.68 489.25,-1006.94"/>
<polygon fill="black" stroke="black" points="490.08,-1010.35 498.68,-1004.16 488.1,-1003.63 490.08,-1010.35"/>
</g>
<!-- streams&#45;&gt;env -->
<g id="edge22" class="edge">
<title>streams&#45;&gt;env</title>
<path fill="none" stroke="black" d="M114.23,-1147.3C172.05,-1197.77 320.97,-1322.07 464.38,-1395.02 479,-1402.46 496.09,-1408.46 510.9,-1412.9"/>
<polygon fill="black" stroke="black" points="509.66,-1416.19 520.24,-1415.58 511.59,-1409.46 509.66,-1416.19"/>
</g>
<!-- streams&#45;&gt;tempFile -->
<g id="edge31" class="edge">
<title>streams&#45;&gt;tempFile</title>
<path fill="none" stroke="black" d="M129.23,-1143.73C197.31,-1175.22 340.33,-1239.97 464.38,-1287.02 476.32,-1291.55 489.38,-1296.05 501.52,-1300.03"/>
<polygon fill="black" stroke="black" points="500.31,-1303.32 510.9,-1303.07 502.47,-1296.66 500.31,-1303.32"/>
</g>
<!-- streams&#45;&gt;linebuffer -->
<g id="edge32" class="edge">
<title>streams&#45;&gt;linebuffer</title>
<path fill="none" stroke="black" d="M117.03,-1103.27C190.73,-1045.97 390.35,-892.68 464.38,-855.02 474.93,-849.66 486.78,-845.03 498.12,-841.21"/>
<polygon fill="black" stroke="black" points="498.89,-844.64 507.34,-838.25 496.75,-837.97 498.89,-844.64"/>
</g>
<!-- streams&#45;&gt;runCommand -->
<g id="edge40" class="edge">
<title>streams&#45;&gt;runCommand</title>
<path fill="none" stroke="black" d="M150.4,-1128.64C235.29,-1133.65 388.32,-1142.68 477.29,-1147.93"/>
<polygon fill="black" stroke="black" points="476.91,-1151.42 487.1,-1148.51 477.33,-1144.43 476.91,-1151.42"/>
</g>
<!-- streams&#45;&gt;readjson -->
<g id="edge58" class="edge">
<title>streams&#45;&gt;readjson</title>
<path fill="none" stroke="black" d="M114.83,-1147.05C132.46,-1162.41 156.22,-1183.56 176.38,-1203.02 309.35,-1331.4 307.94,-1404.59 464.38,-1503.02 475.18,-1509.82 487.87,-1515.08 500,-1519.07"/>
<polygon fill="black" stroke="black" points="498.89,-1522.39 509.47,-1521.95 500.92,-1515.69 498.89,-1522.39"/>
</g>
<!-- streams&#45;&gt;replacement -->
<g id="edge64" class="edge">
<title>streams&#45;&gt;replacement</title>
<path fill="none" stroke="black" d="M119.27,-1103.92C136.76,-1091 158.76,-1073.62 176.38,-1056.02 322.09,-910.49 295.43,-810.79 464.38,-693.02 472.44,-687.41 481.74,-682.9 491.13,-679.3"/>
<polygon fill="black" stroke="black" points="491.99,-682.71 500.27,-676.11 489.68,-676.1 491.99,-682.71"/>
</g>
<!-- streams&#45;&gt;updateTemplate -->
<g id="edge70" class="edge">
<title>streams&#45;&gt;updateTemplate</title>
<path fill="none" stroke="black" d="M150.4,-1121.41C232.84,-1116.54 379.55,-1107.88 469.44,-1102.58"/>
<polygon fill="black" stroke="black" points="469.63,-1106.07 479.41,-1101.99 469.22,-1099.08 469.63,-1106.07"/>
</g>
<!-- times -->
<g id="node18" class="node">
<title>times</title>
<ellipse fill="none" stroke="red" cx="88.19" cy="-1602.02" rx="48.17" ry="24.08"/>
<text text-anchor="middle" x="88.19" y="-1595.82" font-family="Times,serif" font-size="24.00">times</text>
</g>
<!-- times&#45;&gt;env -->
<g id="edge24" class="edge">
<title>times&#45;&gt;env</title>
<path fill="none" stroke="red" d="M127.49,-1587.84C142.75,-1582.11 160.44,-1575.36 176.38,-1569.02 305.24,-1517.81 334.41,-1497.36 464.38,-1449.02 479.86,-1443.26 497.21,-1437.47 511.96,-1432.74"/>
<polygon fill="red" stroke="red" points="512.75,-1436.16 521.22,-1429.8 510.63,-1429.49 512.75,-1436.16"/>
</g>
<!-- timer -->
<g id="node44" class="node">
<title>timer</title>
<ellipse fill="none" stroke="black" cx="547.57" cy="-1593.02" rx="29.8" ry="18"/>
<text text-anchor="middle" x="547.57" y="-1589.32" font-family="Times,serif" font-size="14.00">timer</text>
</g>
<!-- times&#45;&gt;timer -->
<g id="edge81" class="edge">
<title>times&#45;&gt;timer</title>
<path fill="none" stroke="red" d="M136.42,-1601.09C226.46,-1599.32 421.27,-1595.49 505.92,-1593.82"/>
<polygon fill="red" stroke="red" points="505.91,-1597.32 515.84,-1593.63 505.77,-1590.32 505.91,-1597.32"/>
</g>
<!-- random -->
<g id="node20" class="node">
<title>random</title>
<polygon fill="palegreen" stroke="black" points="156.96,-1297.24 156.96,-1318.81 116.68,-1334.06 59.7,-1334.06 19.42,-1318.81 19.42,-1297.24 59.7,-1281.98 116.68,-1281.98 156.96,-1297.24"/>
<polygon fill="none" stroke="black" points="160.96,-1294.47 160.96,-1321.58 117.41,-1338.07 58.97,-1338.07 15.42,-1321.58 15.42,-1294.47 58.97,-1277.98 117.41,-1277.98 160.96,-1294.47"/>
<text text-anchor="middle" x="88.19" y="-1301.82" font-family="Times,serif" font-size="24.00">random</text>
</g>
<!-- random&#45;&gt;tempFile -->
<g id="edge28" class="edge">
<title>random&#45;&gt;tempFile</title>
<path fill="none" stroke="black" d="M161.41,-1308.97C253.76,-1310.18 411.51,-1312.25 493.53,-1313.33"/>
<polygon fill="black" stroke="black" points="493.26,-1316.82 503.31,-1313.45 493.35,-1309.82 493.26,-1316.82"/>
</g>
<!-- math -->
<g id="node27" class="node">
<title>math</title>
<ellipse fill="none" stroke="red" cx="88.19" cy="-1458.02" rx="45.92" ry="24.08"/>
<text text-anchor="middle" x="88.19" y="-1451.82" font-family="Times,serif" font-size="24.00">math</text>
</g>
<!-- math&#45;&gt;functions -->
<g id="edge50" class="edge">
<title>math&#45;&gt;functions</title>
<path fill="none" stroke="red" d="M131.81,-1449.64C216.56,-1432.96 405.86,-1395.71 496.43,-1377.89"/>
<polygon fill="red" stroke="red" points="496.87,-1381.37 506.01,-1376 495.52,-1374.5 496.87,-1381.37"/>
</g>
<!-- math&#45;&gt;timer -->
<g id="edge82" class="edge">
<title>math&#45;&gt;timer</title>
<path fill="none" stroke="red" d="M128.58,-1469.65C215.8,-1495.39 424.21,-1556.91 509.36,-1582.04"/>
<polygon fill="red" stroke="red" points="508.27,-1585.37 518.85,-1584.84 510.25,-1578.65 508.27,-1585.37"/>
</g>
<!-- algorithm -->
<g id="node28" class="node">
<title>algorithm</title>
<polygon fill="palegreen" stroke="black" points="172.56,-1375.24 172.56,-1396.81 123.14,-1412.06 53.24,-1412.06 3.82,-1396.81 3.82,-1375.24 53.24,-1359.98 123.14,-1359.98 172.56,-1375.24"/>
<polygon fill="none" stroke="black" points="176.57,-1372.28 176.57,-1399.76 123.74,-1416.07 52.64,-1416.07 -0.19,-1399.76 -0.19,-1372.28 52.64,-1355.98 123.74,-1355.98 176.57,-1372.28"/>
<text text-anchor="middle" x="88.19" y="-1379.82" font-family="Times,serif" font-size="24.00">algorithm</text>
</g>
<!-- algorithm&#45;&gt;functions -->
<g id="edge52" class="edge">
<title>algorithm&#45;&gt;functions</title>
<path fill="none" stroke="black" d="M176.84,-1382.57C269.98,-1378.91 414.32,-1373.23 492.25,-1370.16"/>
<polygon fill="black" stroke="black" points="492.34,-1373.66 502.19,-1369.77 492.06,-1366.67 492.34,-1373.66"/>
</g>
<!-- parseutils -->
<g id="node30" class="node">
<title>parseutils</title>
<polygon fill="palegreen" stroke="black" points="171,-19.24 171,-40.81 122.49,-56.06 53.89,-56.06 5.38,-40.81 5.38,-19.24 53.89,-3.98 122.49,-3.98 171,-19.24"/>
<polygon fill="none" stroke="black" points="175.01,-16.3 175.01,-43.75 123.11,-60.07 53.27,-60.07 1.37,-43.75 1.37,-16.3 53.27,0.02 123.11,0.02 175.01,-16.3"/>
<text text-anchor="middle" x="88.19" y="-23.82" font-family="Times,serif" font-size="24.00">parseutils</text>
</g>
<!-- parseutils&#45;&gt;parseNumber -->
<g id="edge54" class="edge">
<title>parseutils&#45;&gt;parseNumber</title>
<path fill="none" stroke="black" d="M165.75,-47.09C256.58,-67.35 406.03,-100.68 488.1,-118.98"/>
<polygon fill="black" stroke="black" points="487.22,-122.37 497.74,-121.13 488.74,-115.54 487.22,-122.37"/>
</g>
<!-- unicode -->
<g id="node31" class="node">
<title>unicode</title>
<polygon fill="palegreen" stroke="black" points="158.52,-553.24 158.52,-574.81 117.32,-590.06 59.06,-590.06 17.86,-574.81 17.86,-553.24 59.06,-537.98 117.32,-537.98 158.52,-553.24"/>
<polygon fill="none" stroke="black" points="162.52,-550.45 162.52,-577.6 118.04,-594.07 58.34,-594.07 13.86,-577.6 13.86,-550.45 58.34,-533.98 118.04,-533.98 162.52,-550.45"/>
<text text-anchor="middle" x="88.19" y="-557.82" font-family="Times,serif" font-size="24.00">unicode</text>
</g>
<!-- unicode&#45;&gt;unicodes -->
<g id="edge55" class="edge">
<title>unicode&#45;&gt;unicodes</title>
<path fill="none" stroke="black" d="M162.93,-554.35C256.13,-542.12 414.16,-521.39 495.24,-510.76"/>
<polygon fill="black" stroke="black" points="495.66,-514.23 505.12,-509.46 494.75,-507.29 495.66,-514.23"/>
</g>
<!-- json -->
<g id="node35" class="node">
<title>json</title>
<polygon fill="palegreen" stroke="black" points="130.92,-1519.24 130.92,-1540.81 105.89,-1556.06 70.49,-1556.06 45.46,-1540.81 45.46,-1519.24 70.49,-1503.98 105.89,-1503.98 130.92,-1519.24"/>
<polygon fill="none" stroke="black" points="134.91,-1516.98 134.91,-1543.06 107.01,-1560.07 69.37,-1560.07 41.47,-1543.06 41.47,-1516.98 69.37,-1499.98 107.01,-1499.98 134.91,-1516.98"/>
<text text-anchor="middle" x="88.19" y="-1523.82" font-family="Times,serif" font-size="24.00">json</text>
</g>
<!-- json&#45;&gt;readjson -->
<g id="edge60" class="edge">
<title>json&#45;&gt;readjson</title>
<path fill="none" stroke="black" d="M135.14,-1530.02C221.21,-1530.02 406.1,-1530.02 495.76,-1530.02"/>
<polygon fill="black" stroke="black" points="495.73,-1533.52 505.73,-1530.02 495.73,-1526.52 495.73,-1533.52"/>
</g>
<!-- rdstdin -->
<g id="node40" class="node">
<title>rdstdin</title>
<polygon fill="palegreen" stroke="black" points="151.74,-253.24 151.74,-274.81 114.51,-290.06 61.87,-290.06 24.64,-274.81 24.64,-253.24 61.87,-237.98 114.51,-237.98 151.74,-253.24"/>
<polygon fill="none" stroke="black" points="155.74,-250.55 155.74,-277.5 115.3,-294.07 61.08,-294.07 20.64,-277.5 20.64,-250.55 61.08,-233.98 115.3,-233.98 155.74,-250.55"/>
<text text-anchor="middle" x="88.19" y="-257.82" font-family="Times,serif" font-size="24.00">rdstdin</text>
</g>
<!-- rdstdin&#45;&gt;repl -->
<g id="edge74" class="edge">
<title>rdstdin&#45;&gt;repl</title>
<path fill="none" stroke="black" d="M156.19,-267.54C253.78,-272.66 431.8,-282 509.1,-286.06"/>
<polygon fill="black" stroke="black" points="508.5,-289.53 518.67,-286.56 508.86,-282.54 508.5,-289.53"/>
</g>
<!-- terminal -->
<g id="node42" class="node">
<title>terminal</title>
<polygon fill="palegreen" stroke="black" points="162.66,-175.24 162.66,-196.81 119.04,-212.06 57.34,-212.06 13.72,-196.81 13.72,-175.24 57.34,-159.98 119.04,-159.98 162.66,-175.24"/>
<polygon fill="none" stroke="black" points="166.67,-172.4 166.67,-199.65 119.72,-216.07 56.66,-216.07 9.71,-199.65 9.71,-172.4 56.66,-155.98 119.72,-155.98 166.67,-172.4"/>
<text text-anchor="middle" x="88.19" y="-179.82" font-family="Times,serif" font-size="24.00">terminal</text>
</g>
<!-- terminal&#45;&gt;repl -->
<g id="edge79" class="edge">
<title>terminal&#45;&gt;repl</title>
<path fill="none" stroke="black" d="M161.16,-202.07C260.26,-224.17 435.02,-263.14 510.35,-279.94"/>
<polygon fill="black" stroke="black" points="509.56,-283.35 520.08,-282.11 511.08,-276.52 509.56,-283.35"/>
</g>
<!-- exitprocs -->
<g id="node43" class="node">
<title>exitprocs</title>
<polygon fill="palegreen" stroke="black" points="167.88,-97.24 167.88,-118.81 121.2,-134.06 55.18,-134.06 8.5,-118.81 8.5,-97.24 55.18,-81.98 121.2,-81.98 167.88,-97.24"/>
<polygon fill="none" stroke="black" points="171.89,-94.33 171.89,-121.71 121.84,-138.07 54.54,-138.07 4.49,-121.71 4.49,-94.33 54.54,-77.98 121.84,-77.98 171.89,-94.33"/>
<text text-anchor="middle" x="88.19" y="-101.82" font-family="Times,serif" font-size="24.00">exitprocs</text>
</g>
<!-- exitprocs&#45;&gt;repl -->
<g id="edge80" class="edge">
<title>exitprocs&#45;&gt;repl</title>
<path fill="none" stroke="black" d="M146.19,-130.46C242.74,-168.45 435.5,-244.31 513.08,-274.84"/>
<polygon fill="black" stroke="black" points="511.67,-278.05 522.26,-278.45 514.24,-271.53 511.67,-278.05"/>
</g>
</g>
</svg>
