<?xml version="1.0" encoding="UTF-8" standalone="no"?>
<!DOCTYPE svg PUBLIC "-//W3C//DTD SVG 1.1//EN"
 "http://www.w3.org/Graphics/SVG/1.1/DTD/svg11.dtd">
<!-- Generated by graphviz version 2.40.1 (20161225.0304)
 -->
<!-- Title: statictea Pages: 1 -->
<svg width="720pt" height="349pt"
 viewBox="0.00 0.00 720.00 348.60" xmlns="http://www.w3.org/2000/svg" xmlns:xlink="http://www.w3.org/1999/xlink">
<g id="graph0" class="graph" transform="scale(.2512 .2512) rotate(0) translate(4 1383.971)">
<title>statictea</title>
<polygon fill="#ffffff" stroke="transparent" points="-4,4 -4,-1383.971 2862.6938,-1383.971 2862.6938,4 -4,4"/>
<!-- runFunction -->
<g id="node1" class="node">
<title>runFunction</title>
<g id="a_node1"><a xlink:href="runFunction.md" xlink:title="runFunction.md">
<ellipse fill="#eee8aa" stroke="#000000" cx="1011" cy="-915" rx="94.055" ry="22.7556"/>
<text text-anchor="middle" x="1011" y="-907.8" font-family="Times,serif" font-size="24.00" fill="#000000">runFunction</text>
</a>
</g>
</g>
<!-- parseNumber -->
<g id="node3" class="node">
<title>parseNumber</title>
<g id="a_node3"><a xlink:href="parseNumber.md" xlink:title="parseNumber.md">
<polygon fill="#98fb98" stroke="#000000" points="1459.3805,-764.8581 1459.3805,-785.1419 1394.1353,-799.4846 1301.8647,-799.4846 1236.6195,-785.1419 1236.6195,-764.8581 1301.8647,-750.5154 1394.1353,-750.5154 1459.3805,-764.8581"/>
<polygon fill="none" stroke="#000000" points="1463.3872,-761.6442 1463.3872,-788.3558 1394.5714,-803.4835 1301.4286,-803.4835 1232.6128,-788.3558 1232.6128,-761.6442 1301.4286,-746.5165 1394.5714,-746.5165 1463.3872,-761.6442"/>
<text text-anchor="middle" x="1348" y="-767.8" font-family="Times,serif" font-size="24.00" fill="#000000">parseNumber</text>
</a>
</g>
</g>
<!-- runFunction&#45;&gt;parseNumber -->
<g id="edge56" class="edge">
<title>runFunction&#45;&gt;parseNumber</title>
<path fill="none" stroke="#000000" d="M1058.2132,-895.3862C1115.1896,-871.7165 1211.5246,-831.696 1277.3585,-804.3466"/>
<polygon fill="#000000" stroke="#000000" points="1278.9501,-807.4755 1286.8421,-800.4068 1276.2645,-801.0111 1278.9501,-807.4755"/>
</g>
<!-- regexes -->
<g id="node4" class="node">
<title>regexes</title>
<g id="a_node4"><a xlink:href="regexes.md" xlink:title="regexes.md">
<polygon fill="#98fb98" stroke="#000000" points="1943.187,-484.8581 1943.187,-505.1419 1903.244,-519.4846 1846.756,-519.4846 1806.813,-505.1419 1806.813,-484.8581 1846.756,-470.5154 1903.244,-470.5154 1943.187,-484.8581"/>
<polygon fill="none" stroke="#000000" points="1947.1781,-482.0434 1947.1781,-507.9566 1903.9376,-523.4835 1846.0624,-523.4835 1802.8219,-507.9566 1802.8219,-482.0434 1846.0624,-466.5165 1903.9376,-466.5165 1947.1781,-482.0434"/>
<text text-anchor="middle" x="1875" y="-487.8" font-family="Times,serif" font-size="24.00" fill="#000000">regexes</text>
</a>
</g>
</g>
<!-- runFunction&#45;&gt;regexes -->
<g id="edge55" class="edge">
<title>runFunction&#45;&gt;regexes</title>
<path fill="none" stroke="#000000" d="M1029.0721,-892.5213C1058.087,-857.5799 1118.2051,-789.7652 1181,-746.5083 1299.9433,-664.5729 1341.6296,-662.7289 1477,-612.3726 1587.8839,-571.125 1720.292,-534.4961 1800.976,-513.5347"/>
<polygon fill="#000000" stroke="#000000" points="1802.2339,-516.8246 1811.0389,-510.932 1800.4811,-510.0476 1802.2339,-516.8246"/>
</g>
<!-- unicodes -->
<g id="node8" class="node">
<title>unicodes</title>
<g id="a_node8"><a xlink:href="unicodes.md" xlink:title="unicodes.md">
<ellipse fill="#eee8aa" stroke="#000000" cx="438" cy="-495" rx="71.7778" ry="22.7556"/>
<text text-anchor="middle" x="438" y="-487.8" font-family="Times,serif" font-size="24.00" fill="#000000">unicodes</text>
</a>
</g>
</g>
<!-- runFunction&#45;&gt;unicodes -->
<g id="edge67" class="edge">
<title>runFunction&#45;&gt;unicodes</title>
<path fill="none" stroke="#000000" d="M928.7707,-903.6827C814.6966,-886.4931 616.3084,-850.7422 562,-803.4917 477.8159,-730.2482 450.064,-591.709 441.5208,-528.2555"/>
<polygon fill="#000000" stroke="#000000" points="444.9536,-527.5044 440.2237,-518.024 438.0092,-528.3848 444.9536,-527.5044"/>
</g>
<!-- vartypes -->
<g id="node11" class="node">
<title>vartypes</title>
<g id="a_node11"><a xlink:href="vartypes.md" xlink:title="vartypes.md">
<ellipse fill="#eee8aa" stroke="#000000" cx="1076" cy="-345" rx="68.6102" ry="22.7556"/>
<text text-anchor="middle" x="1076" y="-337.8" font-family="Times,serif" font-size="24.00" fill="#000000">vartypes</text>
</a>
</g>
</g>
<!-- runFunction&#45;&gt;vartypes -->
<g id="edge54" class="edge">
<title>runFunction&#45;&gt;vartypes</title>
<path fill="none" stroke="#000000" d="M1015.0316,-892.2627C1027.7594,-820.0971 1066.6218,-596.6767 1073,-523.4917 1077.4016,-472.9862 1077.4031,-414.1477 1076.8304,-378.2464"/>
<polygon fill="#000000" stroke="#000000" points="1080.323,-377.8091 1076.6385,-367.8756 1073.3242,-377.9387 1080.323,-377.8091"/>
</g>
<!-- funtypes -->
<g id="node15" class="node">
<title>funtypes</title>
<g id="a_node15"><a xlink:href="funtypes.md" xlink:title="funtypes.md">
<ellipse fill="#eee8aa" stroke="#000000" cx="1212" cy="-635" rx="69.5163" ry="22.7556"/>
<text text-anchor="middle" x="1212" y="-627.8" font-family="Times,serif" font-size="24.00" fill="#000000">funtypes</text>
</a>
</g>
</g>
<!-- runFunction&#45;&gt;funtypes -->
<g id="edge72" class="edge">
<title>runFunction&#45;&gt;funtypes</title>
<path fill="none" stroke="#000000" d="M1016.0169,-892.2292C1024.3561,-858.0796 1043.5509,-792.687 1077,-746.5083 1102.3193,-711.5532 1141.0805,-681.071 1170.5847,-660.8527"/>
<polygon fill="#000000" stroke="#000000" points="1172.6864,-663.6571 1179.0295,-655.1709 1168.7788,-657.8493 1172.6864,-663.6571"/>
</g>
<!-- warnings -->
<g id="node17" class="node">
<title>warnings</title>
<g id="a_node17"><a xlink:href="warnings.md" xlink:title="warnings.md">
<ellipse fill="#eee8aa" stroke="#000000" cx="1076" cy="-195" rx="73.5561" ry="22.7556"/>
<text text-anchor="middle" x="1076" y="-187.8" font-family="Times,serif" font-size="24.00" fill="#000000">warnings</text>
</a>
</g>
</g>
<!-- runFunction&#45;&gt;warnings -->
<g id="edge53" class="edge">
<title>runFunction&#45;&gt;warnings</title>
<path fill="none" stroke="#000000" d="M949.431,-897.6977C904.2405,-881.409 846.0481,-852.0898 818,-803.4917 805.3404,-781.5568 813.0127,-771.3383 818,-746.5083 858.7989,-543.3854 901.6748,-499.9337 998,-316.5083 1014.9195,-284.2896 1037.7327,-249.5377 1054.3143,-225.4863"/>
<polygon fill="#000000" stroke="#000000" points="1057.2861,-227.3431 1060.1189,-217.134 1051.5379,-223.3483 1057.2861,-227.3431"/>
</g>
<!-- signatures -->
<g id="node21" class="node">
<title>signatures</title>
<g id="a_node21"><a xlink:href="signatures.md" xlink:title="signatures.md">
<ellipse fill="#eee8aa" stroke="#000000" cx="907" cy="-775" rx="80.2483" ry="22.7556"/>
<text text-anchor="middle" x="907" y="-767.8" font-family="Times,serif" font-size="24.00" fill="#000000">signatures</text>
</a>
</g>
</g>
<!-- runFunction&#45;&gt;signatures -->
<g id="edge71" class="edge">
<title>runFunction&#45;&gt;signatures</title>
<path fill="none" stroke="#000000" d="M994.2906,-892.5066C976.7783,-868.9324 949.1552,-831.7474 929.6812,-805.5324"/>
<polygon fill="#000000" stroke="#000000" points="932.4408,-803.3779 923.6679,-797.4376 926.8216,-807.5522 932.4408,-803.3779"/>
</g>
<!-- opresultwarn -->
<g id="node23" class="node">
<title>opresultwarn</title>
<g id="a_node23"><a xlink:href="opresultwarn.md" xlink:title="opresultwarn.md">
<ellipse fill="#eee8aa" stroke="#000000" cx="606" cy="-345" rx="99.824" ry="22.7556"/>
<text text-anchor="middle" x="606" y="-337.8" font-family="Times,serif" font-size="24.00" fill="#000000">opresultwarn</text>
</a>
</g>
</g>
<!-- runFunction&#45;&gt;opresultwarn -->
<g id="edge73" class="edge">
<title>runFunction&#45;&gt;opresultwarn</title>
<path fill="none" stroke="#000000" d="M954.9628,-896.7672C867.1417,-864.681 700.6531,-788.7864 638,-657.6274 593.39,-564.2401 597.321,-437.5979 602.3501,-378.2596"/>
<polygon fill="#000000" stroke="#000000" points="605.8642,-378.2637 603.2904,-367.9863 598.8934,-377.6256 605.8642,-378.2637"/>
</g>
<!-- messages -->
<g id="node24" class="node">
<title>messages</title>
<g id="a_node24"><a xlink:href="messages.md" xlink:title="messages.md">
<polygon fill="#98fb98" stroke="#000000" points="1491.7388,-35.8581 1491.7388,-56.1419 1443.8573,-70.4846 1376.1427,-70.4846 1328.2612,-56.1419 1328.2612,-35.8581 1376.1427,-21.5154 1443.8573,-21.5154 1491.7388,-35.8581"/>
<polygon fill="none" stroke="#000000" points="1495.7446,-32.883 1495.7446,-59.117 1444.4454,-74.4835 1375.5546,-74.4835 1324.2554,-59.117 1324.2554,-32.883 1375.5546,-17.5165 1444.4454,-17.5165 1495.7446,-32.883"/>
<text text-anchor="middle" x="1410" y="-38.8" font-family="Times,serif" font-size="24.00" fill="#000000">messages</text>
</a>
</g>
</g>
<!-- runFunction&#45;&gt;messages -->
<g id="edge52" class="edge">
<title>runFunction&#45;&gt;messages</title>
<path fill="none" stroke="#000000" d="M1024.2149,-892.3729C1037.3617,-869.8523 1058.101,-834.2981 1076,-803.4917 1090.7026,-778.1866 1087.5878,-766.4591 1109,-746.5083 1174.8611,-685.1422 1232.5566,-726.0952 1291,-657.6274 1436.8147,-486.8022 1424.3853,-190.7661 1414.4795,-84.9739"/>
<polygon fill="#000000" stroke="#000000" points="1417.937,-84.3692 1413.4744,-74.7601 1410.9707,-85.0548 1417.937,-84.3692"/>
</g>
<!-- matches -->
<g id="node25" class="node">
<title>matches</title>
<g id="a_node25"><a xlink:href="matches.md" xlink:title="matches.md">
<ellipse fill="#eee8aa" stroke="#000000" cx="2036" cy="-635" rx="66.8311" ry="22.7556"/>
<text text-anchor="middle" x="2036" y="-627.8" font-family="Times,serif" font-size="24.00" fill="#000000">matches</text>
</a>
</g>
</g>
<!-- runFunction&#45;&gt;matches -->
<g id="edge57" class="edge">
<title>runFunction&#45;&gt;matches</title>
<path fill="none" stroke="#000000" d="M1050.5033,-894.2801C1086.817,-874.0856 1140.932,-841.0022 1181,-803.4917 1204.1618,-781.8083 1196.6318,-762.5589 1224,-746.5083 1347.9431,-673.819 1781.6721,-646.4207 1959.2815,-638.092"/>
<polygon fill="#000000" stroke="#000000" points="1959.5034,-641.5856 1969.3314,-637.6283 1959.1807,-634.593 1959.5034,-641.5856"/>
</g>
<!-- opresultid -->
<g id="node2" class="node">
<title>opresultid</title>
<g id="a_node2"><a xlink:href="opresultid.md" xlink:title="opresultid.md">
<ellipse fill="#eee8aa" stroke="#000000" cx="145" cy="-345" rx="79.3758" ry="22.7556"/>
<text text-anchor="middle" x="145" y="-337.8" font-family="Times,serif" font-size="24.00" fill="#000000">opresultid</text>
</a>
</g>
</g>
<!-- opresultid&#45;&gt;messages -->
<g id="edge58" class="edge">
<title>opresultid&#45;&gt;messages</title>
<path fill="none" stroke="#000000" d="M148.3219,-322.1072C155.3226,-282.9815 175.517,-203.8629 228,-166.5083 315.8331,-103.9932 1048.5002,-63.2151 1314.2201,-50.3633"/>
<polygon fill="#000000" stroke="#000000" points="1314.4162,-53.858 1324.2364,-49.8813 1314.0798,-46.866 1314.4162,-53.858"/>
</g>
<!-- opresult -->
<g id="node30" class="node">
<title>opresult</title>
<g id="a_node30"><a xlink:href="opresult.md" xlink:title="opresult.md">
<polygon fill="#98fb98" stroke="#000000" points="383.3526,-184.8581 383.3526,-205.1419 341.5552,-219.4846 282.4448,-219.4846 240.6474,-205.1419 240.6474,-184.8581 282.4448,-170.5154 341.5552,-170.5154 383.3526,-184.8581"/>
<polygon fill="none" stroke="#000000" points="387.3486,-182.0019 387.3486,-207.9981 342.2213,-223.4835 281.7787,-223.4835 236.6514,-207.9981 236.6514,-182.0019 281.7787,-166.5165 342.2213,-166.5165 387.3486,-182.0019"/>
<text text-anchor="middle" x="312" y="-187.8" font-family="Times,serif" font-size="24.00" fill="#000000">opresult</text>
</a>
</g>
</g>
<!-- opresultid&#45;&gt;opresult -->
<g id="edge59" class="edge">
<title>opresultid&#45;&gt;opresult</title>
<path fill="none" stroke="#000000" d="M169.2832,-323.1887C196.5016,-298.741 241.0155,-258.7586 273.0977,-229.9422"/>
<polygon fill="#000000" stroke="#000000" points="275.4579,-232.5268 280.5587,-223.2407 270.7803,-227.3191 275.4579,-232.5268"/>
</g>
<!-- cmdline -->
<g id="node5" class="node">
<title>cmdline</title>
<g id="a_node5"><a xlink:href="cmdline.md" xlink:title="cmdline.md">
<polygon fill="#98fb98" stroke="#000000" points="2602.3352,-484.8581 2602.3352,-505.1419 2560.548,-519.4846 2501.452,-519.4846 2459.6648,-505.1419 2459.6648,-484.8581 2501.452,-470.5154 2560.548,-470.5154 2602.3352,-484.8581"/>
<polygon fill="none" stroke="#000000" points="2606.3307,-482.0021 2606.3307,-507.9979 2561.2141,-523.4835 2500.7859,-523.4835 2455.6693,-507.9979 2455.6693,-482.0021 2500.7859,-466.5165 2561.2141,-466.5165 2606.3307,-482.0021"/>
<text text-anchor="middle" x="2531" y="-487.8" font-family="Times,serif" font-size="24.00" fill="#000000">cmdline</text>
</a>
</g>
</g>
<!-- parseCmdLine -->
<g id="node6" class="node">
<title>parseCmdLine</title>
<g id="a_node6"><a xlink:href="parseCmdLine.md" xlink:title="parseCmdLine.md">
<ellipse fill="#eee8aa" stroke="#000000" cx="2194" cy="-775" rx="111.4463" ry="22.7556"/>
<text text-anchor="middle" x="2194" y="-767.8" font-family="Times,serif" font-size="24.00" fill="#000000">parseCmdLine</text>
</a>
</g>
</g>
<!-- parseCmdLine&#45;&gt;regexes -->
<g id="edge20" class="edge">
<title>parseCmdLine&#45;&gt;regexes</title>
<path fill="none" stroke="#000000" d="M2187.6432,-752.2537C2177.0553,-718.0106 2152.8387,-652.919 2112,-612.3726 2085.4399,-586.0026 1996.5926,-545.6183 1935.5622,-519.7636"/>
<polygon fill="#000000" stroke="#000000" points="1936.5942,-516.4005 1926.0198,-515.7432 1933.8763,-522.8513 1936.5942,-516.4005"/>
</g>
<!-- env -->
<g id="node7" class="node">
<title>env</title>
<g id="a_node7"><a xlink:href="env.md" xlink:title="env.md">
<ellipse fill="#eee8aa" stroke="#000000" cx="2252" cy="-635" rx="35.6342" ry="22.7556"/>
<text text-anchor="middle" x="2252" y="-627.8" font-family="Times,serif" font-size="24.00" fill="#000000">env</text>
</a>
</g>
</g>
<!-- parseCmdLine&#45;&gt;env -->
<g id="edge19" class="edge">
<title>parseCmdLine&#45;&gt;env</title>
<path fill="none" stroke="#000000" d="M2203.4478,-752.195C2213.0684,-728.9729 2228.0627,-692.7797 2238.8428,-666.7587"/>
<polygon fill="#000000" stroke="#000000" points="2242.1541,-667.9103 2242.7481,-657.3322 2235.6871,-665.2311 2242.1541,-667.9103"/>
</g>
<!-- parseCmdLine&#45;&gt;messages -->
<g id="edge21" class="edge">
<title>parseCmdLine&#45;&gt;messages</title>
<path fill="none" stroke="#000000" d="M2194.871,-752.348C2195.9221,-698.833 2192.6498,-561.9198 2138,-466.5083 2036.3382,-289.0199 1967.6175,-266.1728 1789,-166.5083 1696.3421,-114.8072 1578.3524,-81.752 1498.8346,-63.5875"/>
<polygon fill="#000000" stroke="#000000" points="1499.3726,-60.121 1488.8479,-61.3382 1497.8345,-66.95 1499.3726,-60.121"/>
</g>
<!-- parseCmdLine&#45;&gt;matches -->
<g id="edge22" class="edge">
<title>parseCmdLine&#45;&gt;matches</title>
<path fill="none" stroke="#000000" d="M2168.9644,-752.8166C2141.4867,-728.4692 2097.3245,-689.3382 2067.5109,-662.921"/>
<polygon fill="#000000" stroke="#000000" points="2069.6899,-660.1755 2059.8842,-656.1632 2065.0476,-665.4147 2069.6899,-660.1755"/>
</g>
<!-- tempFile -->
<g id="node10" class="node">
<title>tempFile</title>
<g id="a_node10"><a xlink:href="tempFile.md" xlink:title="tempFile.md">
<polygon fill="#98fb98" stroke="#000000" points="2124.598,-484.8581 2124.598,-505.1419 2079.1421,-519.4846 2014.8579,-519.4846 1969.402,-505.1419 1969.402,-484.8581 2014.8579,-470.5154 2079.1421,-470.5154 2124.598,-484.8581"/>
<polygon fill="none" stroke="#000000" points="2128.6004,-481.9275 2128.6004,-508.0725 2079.7591,-523.4835 2014.2409,-523.4835 1965.3996,-508.0725 1965.3996,-481.9275 2014.2409,-466.5165 2079.7591,-466.5165 2128.6004,-481.9275"/>
<text text-anchor="middle" x="2047" y="-487.8" font-family="Times,serif" font-size="24.00" fill="#000000">tempFile</text>
</a>
</g>
</g>
<!-- env&#45;&gt;tempFile -->
<g id="edge10" class="edge">
<title>env&#45;&gt;tempFile</title>
<path fill="none" stroke="#000000" d="M2227.2722,-618.1127C2194.4946,-595.728 2135.9767,-555.7646 2094.5124,-527.4475"/>
<polygon fill="#000000" stroke="#000000" points="2096.4312,-524.5196 2086.1993,-521.7703 2092.4834,-530.3002 2096.4312,-524.5196"/>
</g>
<!-- env&#45;&gt;warnings -->
<g id="edge12" class="edge">
<title>env&#45;&gt;warnings</title>
<path fill="none" stroke="#000000" d="M2243.267,-612.8681C2227.7541,-576.5127 2191.8711,-504.4109 2138,-466.5083 1974.7358,-351.6387 1365.8273,-242.6983 1151.3437,-207.1153"/>
<polygon fill="#000000" stroke="#000000" points="1151.8687,-203.6547 1141.4317,-205.4766 1150.7268,-210.5609 1151.8687,-203.6547"/>
</g>
<!-- args -->
<g id="node22" class="node">
<title>args</title>
<g id="a_node22"><a xlink:href="args.md" xlink:title="args.md">
<polygon fill="#98fb98" stroke="#000000" points="2351.5492,-484.8581 2351.5492,-505.1419 2326.6245,-519.4846 2291.3755,-519.4846 2266.4508,-505.1419 2266.4508,-484.8581 2291.3755,-470.5154 2326.6245,-470.5154 2351.5492,-484.8581"/>
<polygon fill="none" stroke="#000000" points="2355.5514,-482.5466 2355.5514,-507.4534 2327.6946,-523.4835 2290.3054,-523.4835 2262.4486,-507.4534 2262.4486,-482.5466 2290.3054,-466.5165 2327.6946,-466.5165 2355.5514,-482.5466"/>
<text text-anchor="middle" x="2309" y="-487.8" font-family="Times,serif" font-size="24.00" fill="#000000">args</text>
</a>
</g>
</g>
<!-- env&#45;&gt;args -->
<g id="edge13" class="edge">
<title>env&#45;&gt;args</title>
<path fill="none" stroke="#000000" d="M2261.0318,-612.8166C2269.7443,-591.4175 2283.1064,-558.5983 2293.5171,-533.0281"/>
<polygon fill="#000000" stroke="#000000" points="2296.8175,-534.2036 2297.3468,-523.622 2290.3342,-531.564 2296.8175,-534.2036"/>
</g>
<!-- env&#45;&gt;messages -->
<g id="edge11" class="edge">
<title>env&#45;&gt;messages</title>
<path fill="none" stroke="#000000" d="M2251.5312,-612.3608C2249.4704,-523.1587 2239.8979,-199.2578 2209,-166.5083 2161.2503,-115.897 1707.6104,-71.3527 1505.892,-53.8701"/>
<polygon fill="#000000" stroke="#000000" points="1506.1582,-50.3802 1495.8944,-53.008 1505.5567,-57.3543 1506.1582,-50.3802"/>
</g>
<!-- unicodes&#45;&gt;opresultid -->
<g id="edge60" class="edge">
<title>unicodes&#45;&gt;opresultid</title>
<path fill="none" stroke="#000000" d="M400.2952,-475.6972C347.3325,-448.5832 250.9093,-399.2198 192.9229,-369.5339"/>
<polygon fill="#000000" stroke="#000000" points="194.4553,-366.3865 183.959,-364.9449 191.2654,-372.6174 194.4553,-366.3865"/>
</g>
<!-- utf8decoder -->
<g id="node16" class="node">
<title>utf8decoder</title>
<g id="a_node16"><a xlink:href="utf8decoder.md" xlink:title="utf8decoder.md">
<polygon fill="#98fb98" stroke="#000000" points="445.9296,-334.8581 445.9296,-355.1419 387.3922,-369.4846 304.6078,-369.4846 246.0704,-355.1419 246.0704,-334.8581 304.6078,-320.5154 387.3922,-320.5154 445.9296,-334.8581"/>
<polygon fill="none" stroke="#000000" points="449.9282,-331.7208 449.9282,-358.2792 387.8749,-373.4835 304.1251,-373.4835 242.0718,-358.2792 242.0718,-331.7208 304.1251,-316.5165 387.8749,-316.5165 449.9282,-331.7208"/>
<text text-anchor="middle" x="346" y="-337.8" font-family="Times,serif" font-size="24.00" fill="#000000">utf8decoder</text>
</a>
</g>
</g>
<!-- unicodes&#45;&gt;utf8decoder -->
<g id="edge66" class="edge">
<title>unicodes&#45;&gt;utf8decoder</title>
<path fill="none" stroke="#000000" d="M424.2267,-472.5435C409.6169,-448.7231 386.2912,-410.6922 368.907,-382.3483"/>
<polygon fill="#000000" stroke="#000000" points="371.702,-380.211 363.4901,-373.5165 365.7349,-383.8708 371.702,-380.211"/>
</g>
<!-- unicodes&#45;&gt;warnings -->
<g id="edge65" class="edge">
<title>unicodes&#45;&gt;warnings</title>
<path fill="none" stroke="#000000" d="M484.9406,-477.7327C553.6622,-451.9031 677.5611,-403.0839 715,-373.4917 739.8911,-353.8175 732.6402,-335.5744 758,-316.5083 832.742,-260.3153 936.5649,-227.1684 1004.9727,-210.045"/>
<polygon fill="#000000" stroke="#000000" points="1005.9228,-213.4157 1014.801,-207.634 1004.2551,-206.6173 1005.9228,-213.4157"/>
</g>
<!-- unicodes&#45;&gt;opresultwarn -->
<g id="edge63" class="edge">
<title>unicodes&#45;&gt;opresultwarn</title>
<path fill="none" stroke="#000000" d="M462.0703,-473.5087C491.4688,-447.26 541.3023,-402.7658 573.9316,-373.6325"/>
<polygon fill="#000000" stroke="#000000" points="576.2997,-376.2102 581.428,-366.9393 571.6376,-370.9887 576.2997,-376.2102"/>
</g>
<!-- unicodes&#45;&gt;messages -->
<g id="edge64" class="edge">
<title>unicodes&#45;&gt;messages</title>
<path fill="none" stroke="#000000" d="M439.9541,-472.2687C444.2221,-435.4598 457.4208,-362.3211 497,-316.5083 594.1952,-204.0049 655.3191,-214.5998 796,-166.5083 973.7146,-105.7568 1191.4341,-72.0988 1314.0686,-56.6477"/>
<polygon fill="#000000" stroke="#000000" points="1314.6923,-60.0972 1324.1829,-55.3876 1313.8268,-53.1509 1314.6923,-60.0972"/>
</g>
<!-- variables -->
<g id="node9" class="node">
<title>variables</title>
<g id="a_node9"><a xlink:href="variables.md" xlink:title="variables.md">
<ellipse fill="#eee8aa" stroke="#000000" cx="753" cy="-635" rx="72.6337" ry="22.7556"/>
<text text-anchor="middle" x="753" y="-627.8" font-family="Times,serif" font-size="24.00" fill="#000000">variables</text>
</a>
</g>
</g>
<!-- variables&#45;&gt;vartypes -->
<g id="edge39" class="edge">
<title>variables&#45;&gt;vartypes</title>
<path fill="none" stroke="#000000" d="M782.9813,-614.1884C813.3981,-592.6352 861.3714,-557.419 900,-523.4917 955.934,-474.3653 1015.7019,-411.1946 1049.2049,-374.6842"/>
<polygon fill="#000000" stroke="#000000" points="1052.1792,-376.6179 1056.3427,-366.8754 1047.0125,-371.8951 1052.1792,-376.6179"/>
</g>
<!-- tostring -->
<g id="node12" class="node">
<title>tostring</title>
<g id="a_node12"><a xlink:href="tostring.md" xlink:title="tostring.md">
<ellipse fill="#eee8aa" stroke="#000000" cx="1243" cy="-495" rx="63.3406" ry="22.7556"/>
<text text-anchor="middle" x="1243" y="-487.8" font-family="Times,serif" font-size="24.00" fill="#000000">tostring</text>
</a>
</g>
</g>
<!-- variables&#45;&gt;tostring -->
<g id="edge45" class="edge">
<title>variables&#45;&gt;tostring</title>
<path fill="none" stroke="#000000" d="M806.8402,-619.6171C899.2838,-593.2046 1087.5015,-539.4281 1183.6225,-511.965"/>
<polygon fill="#000000" stroke="#000000" points="1184.8195,-515.2631 1193.4732,-509.1505 1182.8964,-508.5325 1184.8195,-515.2631"/>
</g>
<!-- variables&#45;&gt;warnings -->
<g id="edge42" class="edge">
<title>variables&#45;&gt;warnings</title>
<path fill="none" stroke="#000000" d="M781.1013,-613.8119C806.1401,-593.4115 841.8478,-560.297 862,-523.4917 907.3527,-440.6612 857.9795,-395.3222 910,-316.5083 938.6568,-273.0917 988.4425,-239.7451 1026.0367,-219.0645"/>
<polygon fill="#000000" stroke="#000000" points="1028.1591,-221.8974 1035.3116,-214.0813 1024.846,-215.7311 1028.1591,-221.8974"/>
</g>
<!-- variables&#45;&gt;args -->
<g id="edge46" class="edge">
<title>variables&#45;&gt;args</title>
<path fill="none" stroke="#000000" d="M824.0828,-630.0789C1069.3247,-612.9753 1879.1323,-555.4204 2138,-523.4917 2176.3041,-518.7673 2219.1407,-511.6269 2252.3578,-505.6764"/>
<polygon fill="#000000" stroke="#000000" points="2253.1241,-509.0947 2262.3421,-503.8719 2251.879,-502.2063 2253.1241,-509.0947"/>
</g>
<!-- variables&#45;&gt;messages -->
<g id="edge41" class="edge">
<title>variables&#45;&gt;messages</title>
<path fill="none" stroke="#000000" d="M771.4767,-612.8919C788.6408,-591.3289 813.7764,-556.9752 829,-523.4917 868.3493,-436.9453 842.1635,-402.363 883,-316.5083 918.5101,-241.8517 925.2236,-213.8468 993,-166.5083 1089.9152,-98.8177 1224.6354,-68.8353 1314.4384,-55.7652"/>
<polygon fill="#000000" stroke="#000000" points="1314.9322,-59.2303 1324.3441,-54.3655 1313.9528,-52.2991 1314.9322,-59.2303"/>
</g>
<!-- version -->
<g id="node26" class="node">
<title>version</title>
<g id="a_node26"><a xlink:href="version.md" xlink:title="version.md">
<polygon fill="#98fb98" stroke="#000000" points="816.1523,-484.8581 816.1523,-505.1419 777.4012,-519.4846 722.5988,-519.4846 683.8477,-505.1419 683.8477,-484.8581 722.5988,-470.5154 777.4012,-470.5154 816.1523,-484.8581"/>
<polygon fill="none" stroke="#000000" points="820.1421,-482.0721 820.1421,-507.9279 778.1143,-523.4835 721.8857,-523.4835 679.8579,-507.9279 679.8579,-482.0721 721.8857,-466.5165 778.1143,-466.5165 820.1421,-482.0721"/>
<text text-anchor="middle" x="750" y="-487.8" font-family="Times,serif" font-size="24.00" fill="#000000">version</text>
</a>
</g>
</g>
<!-- variables&#45;&gt;version -->
<g id="edge40" class="edge">
<title>variables&#45;&gt;version</title>
<path fill="none" stroke="#000000" d="M752.5113,-612.195C752.0581,-591.0425 751.3742,-559.1279 750.8345,-533.9419"/>
<polygon fill="#000000" stroke="#000000" points="754.3266,-533.5334 750.6131,-523.6108 747.3282,-533.6835 754.3266,-533.5334"/>
</g>
<!-- vartypes&#45;&gt;warnings -->
<g id="edge34" class="edge">
<title>vartypes&#45;&gt;warnings</title>
<path fill="none" stroke="#000000" d="M1076,-322.2182C1076,-297.2188 1076,-256.8527 1076,-228.3029"/>
<polygon fill="#000000" stroke="#000000" points="1079.5001,-227.9961 1076,-217.9962 1072.5001,-227.9962 1079.5001,-227.9961"/>
</g>
<!-- tostring&#45;&gt;vartypes -->
<g id="edge44" class="edge">
<title>tostring&#45;&gt;vartypes</title>
<path fill="none" stroke="#000000" d="M1219.4272,-473.8268C1190.0447,-447.4353 1139.7379,-402.2496 1107.1887,-373.0138"/>
<polygon fill="#000000" stroke="#000000" points="1109.5011,-370.3862 1099.7227,-366.3078 1104.8235,-375.594 1109.5011,-370.3862"/>
</g>
<!-- tostring&#45;&gt;warnings -->
<g id="edge43" class="edge">
<title>tostring&#45;&gt;warnings</title>
<path fill="none" stroke="#000000" d="M1232.7925,-472.6154C1216.9795,-438.4028 1185.1283,-371.3045 1154,-316.5083 1136.025,-284.8663 1113.3535,-250.037 1097.0923,-225.8106"/>
<polygon fill="#000000" stroke="#000000" points="1099.906,-223.723 1091.412,-217.3903 1094.103,-227.6377 1099.906,-223.723"/>
</g>
<!-- replacement -->
<g id="node13" class="node">
<title>replacement</title>
<g id="a_node13"><a xlink:href="replacement.md" xlink:title="replacement.md">
<ellipse fill="#eee8aa" stroke="#000000" cx="1880" cy="-915" rx="94.4556" ry="22.7556"/>
<text text-anchor="middle" x="1880" y="-907.8" font-family="Times,serif" font-size="24.00" fill="#000000">replacement</text>
</a>
</g>
</g>
<!-- replacement&#45;&gt;parseNumber -->
<g id="edge95" class="edge">
<title>replacement&#45;&gt;parseNumber</title>
<path fill="none" stroke="#000000" d="M1816.3568,-898.2518C1722.214,-873.4774 1545.4275,-826.9546 1438.036,-798.6937"/>
<polygon fill="#000000" stroke="#000000" points="1438.7472,-795.2618 1428.1857,-796.1015 1436.9657,-802.0313 1438.7472,-795.2618"/>
</g>
<!-- replacement&#45;&gt;regexes -->
<g id="edge86" class="edge">
<title>replacement&#45;&gt;regexes</title>
<path fill="none" stroke="#000000" d="M1879.9364,-892.1069C1879.8299,-859.6952 1879.5685,-798.5747 1879,-746.5083 1878.1782,-671.2457 1876.6499,-583.323 1875.7389,-533.9018"/>
<polygon fill="#000000" stroke="#000000" points="1879.2339,-533.5982 1875.5488,-523.6649 1872.2351,-533.7282 1879.2339,-533.5982"/>
</g>
<!-- replacement&#45;&gt;parseCmdLine -->
<g id="edge89" class="edge">
<title>replacement&#45;&gt;parseCmdLine</title>
<path fill="none" stroke="#000000" d="M1924.9885,-894.9414C1981.2463,-869.8583 2077.5419,-826.924 2138.3706,-799.8029"/>
<polygon fill="#000000" stroke="#000000" points="2140.1091,-802.86 2147.8172,-795.5911 2137.2586,-796.4666 2140.1091,-802.86"/>
</g>
<!-- replacement&#45;&gt;env -->
<g id="edge87" class="edge">
<title>replacement&#45;&gt;env</title>
<path fill="none" stroke="#000000" d="M1954.6296,-900.9595C2072.7706,-877.9887 2291.8308,-832.077 2314,-803.4917 2347.2465,-760.6233 2306.6285,-698.1639 2277.2152,-662.567"/>
<polygon fill="#000000" stroke="#000000" points="2279.5435,-659.9018 2270.401,-654.5476 2274.2091,-664.4345 2279.5435,-659.9018"/>
</g>
<!-- replacement&#45;&gt;variables -->
<g id="edge93" class="edge">
<title>replacement&#45;&gt;variables</title>
<path fill="none" stroke="#000000" d="M1857.5309,-892.6046C1835.741,-870.5514 1802.0947,-835.6013 1775,-803.4917 1754.5388,-779.2434 1759.5514,-762.2423 1732,-746.5083 1654.637,-702.3278 1054.9084,-656.2121 834.1857,-640.5661"/>
<polygon fill="#000000" stroke="#000000" points="834.1869,-637.0575 823.9651,-639.8442 833.6937,-644.0401 834.1869,-637.0575"/>
</g>
<!-- replacement&#45;&gt;tempFile -->
<g id="edge94" class="edge">
<title>replacement&#45;&gt;tempFile</title>
<path fill="none" stroke="#000000" d="M1882.9928,-892.3426C1890.4564,-840.5855 1912.7875,-710.5729 1960,-612.3726 1974.0953,-583.0548 1995.9029,-553.6542 2014.1577,-531.6118"/>
<polygon fill="#000000" stroke="#000000" points="2016.9394,-533.7421 2020.7016,-523.8377 2011.5841,-529.2342 2016.9394,-533.7421"/>
</g>
<!-- replacement&#45;&gt;vartypes -->
<g id="edge88" class="edge">
<title>replacement&#45;&gt;vartypes</title>
<path fill="none" stroke="#000000" d="M1874.0652,-892.1839C1864.0762,-857.3914 1841.0715,-790.487 1802,-746.5083 1610.4895,-530.9444 1274.5253,-406.9879 1137.1538,-363.1894"/>
<polygon fill="#000000" stroke="#000000" points="1138.2008,-359.8497 1127.611,-360.1742 1136.0919,-366.5245 1138.2008,-359.8497"/>
</g>
<!-- replacement&#45;&gt;tostring -->
<g id="edge96" class="edge">
<title>replacement&#45;&gt;tostring</title>
<path fill="none" stroke="#000000" d="M1866.9496,-892.5067C1843.0776,-851.9176 1792.4924,-768.5873 1767,-746.5083 1690.3977,-680.1627 1411.4375,-563.103 1294.8072,-515.7487"/>
<polygon fill="#000000" stroke="#000000" points="1295.9464,-512.4339 1285.3639,-511.9229 1293.3179,-518.9217 1295.9464,-512.4339"/>
</g>
<!-- readlines -->
<g id="node14" class="node">
<title>readlines</title>
<g id="a_node14"><a xlink:href="readlines.md" xlink:title="readlines.md">
<polygon fill="#98fb98" stroke="#000000" points="1718.5894,-764.8581 1718.5894,-785.1419 1672.5528,-799.4846 1607.4472,-799.4846 1561.4106,-785.1419 1561.4106,-764.8581 1607.4472,-750.5154 1672.5528,-750.5154 1718.5894,-764.8581"/>
<polygon fill="none" stroke="#000000" points="1722.5916,-761.9163 1722.5916,-788.0837 1673.1623,-803.4835 1606.8377,-803.4835 1557.4084,-788.0837 1557.4084,-761.9163 1606.8377,-746.5165 1673.1623,-746.5165 1722.5916,-761.9163"/>
<text text-anchor="middle" x="1640" y="-767.8" font-family="Times,serif" font-size="24.00" fill="#000000">readlines</text>
</a>
</g>
</g>
<!-- replacement&#45;&gt;readlines -->
<g id="edge90" class="edge">
<title>replacement&#45;&gt;readlines</title>
<path fill="none" stroke="#000000" d="M1844.0696,-894.0406C1803.8592,-870.5845 1738.3398,-832.3649 1692.4159,-805.5759"/>
<polygon fill="#000000" stroke="#000000" points="1693.907,-802.3938 1683.5057,-800.3783 1690.3799,-808.4403 1693.907,-802.3938"/>
</g>
<!-- replacement&#45;&gt;messages -->
<g id="edge92" class="edge">
<title>replacement&#45;&gt;messages</title>
<path fill="none" stroke="#000000" d="M1875.8825,-892.2537C1869.4449,-859.239 1855.4662,-796.5255 1834,-746.5083 1717.7091,-475.545 1511.5184,-183.8022 1437.4489,-82.8324"/>
<polygon fill="#000000" stroke="#000000" points="1440.2655,-80.7547 1431.5202,-74.7738 1434.627,-84.9029 1440.2655,-80.7547"/>
</g>
<!-- replacement&#45;&gt;matches -->
<g id="edge91" class="edge">
<title>replacement&#45;&gt;matches</title>
<path fill="none" stroke="#000000" d="M1896.5039,-892.551C1912.405,-870.4582 1936.6804,-835.4796 1955,-803.4917 1981.3522,-757.4781 2007.0585,-701.5726 2022.2108,-667.1407"/>
<polygon fill="#000000" stroke="#000000" points="2025.582,-668.1668 2026.38,-657.6021 2019.1679,-665.3633 2025.582,-668.1668"/>
</g>
<!-- funtypes&#45;&gt;vartypes -->
<g id="edge48" class="edge">
<title>funtypes&#45;&gt;vartypes</title>
<path fill="none" stroke="#000000" d="M1201.3283,-612.2442C1177.2458,-560.8918 1118.6286,-435.8993 1090.9464,-376.871"/>
<polygon fill="#000000" stroke="#000000" points="1094.037,-375.2179 1086.6221,-367.6501 1087.6993,-378.1901 1094.037,-375.2179"/>
</g>
<!-- funtypes&#45;&gt;tostring -->
<g id="edge50" class="edge">
<title>funtypes&#45;&gt;tostring</title>
<path fill="none" stroke="#000000" d="M1217.0497,-612.195C1222.1388,-589.212 1230.0412,-553.5237 1235.789,-527.5657"/>
<polygon fill="#000000" stroke="#000000" points="1239.2077,-528.3155 1237.9525,-517.7952 1232.3733,-526.8021 1239.2077,-528.3155"/>
</g>
<!-- funtypes&#45;&gt;warnings -->
<g id="edge49" class="edge">
<title>funtypes&#45;&gt;warnings</title>
<path fill="none" stroke="#000000" d="M1240.9829,-614.0006C1265.9448,-593.9631 1300.2149,-561.2881 1315,-523.4917 1324.2262,-499.9061 1323.9413,-490.2034 1315,-466.5083 1274.3221,-358.7087 1169.186,-265.9654 1112.8817,-222.0697"/>
<polygon fill="#000000" stroke="#000000" points="1114.9997,-219.2832 1104.9423,-215.9517 1110.727,-224.828 1114.9997,-219.2832"/>
</g>
<!-- warnings&#45;&gt;messages -->
<g id="edge3" class="edge">
<title>warnings&#45;&gt;messages</title>
<path fill="none" stroke="#000000" d="M1117.9631,-176.2799C1176.1122,-150.3392 1281.5857,-103.2866 1348.5965,-73.3926"/>
<polygon fill="#000000" stroke="#000000" points="1350.0812,-76.5628 1357.7878,-69.2923 1347.2294,-70.17 1350.0812,-76.5628"/>
</g>
<!-- collectCommand -->
<g id="node18" class="node">
<title>collectCommand</title>
<g id="a_node18"><a xlink:href="collectCommand.md" xlink:title="collectCommand.md">
<ellipse fill="#eee8aa" stroke="#000000" cx="2172" cy="-915" rx="127.4982" ry="22.7556"/>
<text text-anchor="middle" x="2172" y="-907.8" font-family="Times,serif" font-size="24.00" fill="#000000">collectCommand</text>
</a>
</g>
</g>
<!-- collectCommand&#45;&gt;parseCmdLine -->
<g id="edge27" class="edge">
<title>collectCommand&#45;&gt;parseCmdLine</title>
<path fill="none" stroke="#000000" d="M2175.5836,-892.195C2179.1793,-869.3137 2184.7538,-833.8393 2188.8283,-807.9108"/>
<polygon fill="#000000" stroke="#000000" points="2192.323,-808.2174 2190.4179,-797.7952 2185.4079,-807.1307 2192.323,-808.2174"/>
</g>
<!-- collectCommand&#45;&gt;env -->
<g id="edge24" class="edge">
<title>collectCommand&#45;&gt;env</title>
<path fill="none" stroke="#000000" d="M2230.9949,-894.8558C2271.6036,-877.5386 2322.483,-848.1849 2347,-803.4917 2375.3475,-751.8159 2320.1689,-691.7979 2282.6716,-659.1672"/>
<polygon fill="#000000" stroke="#000000" points="2284.8633,-656.4367 2274.9748,-652.6328 2280.3328,-661.773 2284.8633,-656.4367"/>
</g>
<!-- collectCommand&#45;&gt;readlines -->
<g id="edge26" class="edge">
<title>collectCommand&#45;&gt;readlines</title>
<path fill="none" stroke="#000000" d="M2100.5283,-896.1917C2000.7394,-869.9314 1820.3695,-822.4657 1717.4653,-795.3856"/>
<polygon fill="#000000" stroke="#000000" points="1718.3155,-791.9902 1707.754,-792.83 1716.534,-798.7598 1718.3155,-791.9902"/>
</g>
<!-- collectCommand&#45;&gt;messages -->
<g id="edge28" class="edge">
<title>collectCommand&#45;&gt;messages</title>
<path fill="none" stroke="#000000" d="M2258.6584,-898.4305C2377.107,-870.8458 2586.5247,-803.4385 2689,-657.6274 2730.8427,-598.0898 2708,-567.7705 2708,-495 2708,-495 2708,-495 2708,-345 2708,-98.3209 1806.5107,-55.1345 1506.098,-47.5914"/>
<polygon fill="#000000" stroke="#000000" points="1505.7495,-44.082 1495.6674,-47.3379 1505.5793,-51.08 1505.7495,-44.082"/>
</g>
<!-- collectCommand&#45;&gt;matches -->
<g id="edge25" class="edge">
<title>collectCommand&#45;&gt;matches</title>
<path fill="none" stroke="#000000" d="M2145.8699,-892.4337C2123.4155,-871.5917 2091.9082,-838.6233 2074,-803.4917 2051.7233,-759.7902 2042.4001,-703.1435 2038.5718,-667.9379"/>
<polygon fill="#000000" stroke="#000000" points="2042.0296,-667.3405 2037.5519,-657.7384 2035.0644,-668.0371 2042.0296,-667.3405"/>
</g>
<!-- statictea -->
<g id="node19" class="node">
<title>statictea</title>
<g id="a_node19"><a xlink:href="statictea.md" xlink:title="statictea.md">
<polygon fill="#eee8aa" stroke="#000000" points="2516.0958,-1326.3667 2599,-1307.0619 2681.9042,-1326.3667 2681.8268,-1357.6024 2516.1732,-1357.6024 2516.0958,-1326.3667"/>
<text text-anchor="middle" x="2599" y="-1327.8" font-family="Times,serif" font-size="24.00" fill="#000000">statictea</text>
</a>
</g>
</g>
<!-- statictea&#45;&gt;env -->
<g id="edge103" class="edge">
<title>statictea&#45;&gt;env</title>
<path fill="none" stroke="#000000" d="M2596.0739,-1307.6851C2585.3783,-1218.7262 2541.6541,-932.367 2406,-746.5083 2375.4526,-704.6554 2324.4656,-672.2036 2289.5904,-653.3598"/>
<polygon fill="#000000" stroke="#000000" points="2291.1297,-650.2146 2280.6529,-648.637 2287.8592,-656.4036 2291.1297,-650.2146"/>
</g>
<!-- gethelp -->
<g id="node20" class="node">
<title>gethelp</title>
<g id="a_node20"><a xlink:href="gethelp.md" xlink:title="gethelp.md">
<polygon fill="#98fb98" stroke="#000000" points="2820.1349,-1175.8581 2820.1349,-1196.1419 2781.394,-1210.4846 2726.606,-1210.4846 2687.8651,-1196.1419 2687.8651,-1175.8581 2726.606,-1161.5154 2781.394,-1161.5154 2820.1349,-1175.8581"/>
<polygon fill="none" stroke="#000000" points="2824.1242,-1173.0722 2824.1242,-1198.9278 2782.1071,-1214.4835 2725.8929,-1214.4835 2683.8758,-1198.9278 2683.8758,-1173.0722 2725.8929,-1157.5165 2782.1071,-1157.5165 2824.1242,-1173.0722"/>
<text text-anchor="middle" x="2754" y="-1178.8" font-family="Times,serif" font-size="24.00" fill="#000000">gethelp</text>
</a>
</g>
</g>
<!-- statictea&#45;&gt;gethelp -->
<g id="edge101" class="edge">
<title>statictea&#45;&gt;gethelp</title>
<path fill="none" stroke="#000000" d="M2622.5412,-1312.3701C2647.7586,-1288.1288 2688.1075,-1249.3418 2717.4585,-1221.127"/>
<polygon fill="#000000" stroke="#000000" points="2719.8841,-1223.6502 2724.6677,-1214.1968 2715.0329,-1218.6038 2719.8841,-1223.6502"/>
</g>
<!-- statictea&#45;&gt;args -->
<g id="edge99" class="edge">
<title>statictea&#45;&gt;args</title>
<path fill="none" stroke="#000000" d="M2599,-1306.6953C2599,-1254.9428 2599,-1141.5807 2599,-1046 2599,-1046 2599,-1046 2599,-915 2599,-762.771 2452.2765,-787.5847 2373,-657.6274 2348.7673,-617.903 2330.6002,-567.4098 2319.928,-533.3066"/>
<polygon fill="#000000" stroke="#000000" points="2323.2644,-532.2482 2316.988,-523.7126 2316.5716,-534.2992 2323.2644,-532.2482"/>
</g>
<!-- statictea&#45;&gt;messages -->
<g id="edge100" class="edge">
<title>statictea&#45;&gt;messages</title>
<path fill="none" stroke="#000000" d="M2659.6953,-1321.0642C2714.4885,-1305.0869 2792.5284,-1273.1744 2833,-1214.4917 2875.7848,-1152.455 2852,-1121.3598 2852,-1046 2852,-1046 2852,-1046 2852,-345 2852,-218.0504 2746.5724,-214.3929 2629,-166.5083 2425.5103,-83.6313 1756.3138,-56.032 1505.799,-48.4697"/>
<polygon fill="#000000" stroke="#000000" points="1505.725,-44.966 1495.6252,-48.1666 1505.5166,-51.9629 1505.725,-44.966"/>
</g>
<!-- statictea&#45;&gt;version -->
<g id="edge102" class="edge">
<title>statictea&#45;&gt;version</title>
<path fill="none" stroke="#000000" d="M2516.0634,-1332.8813C2118.166,-1321.6435 424,-1261.162 424,-1046 424,-1046 424,-1046 424,-915 424,-735.7133 611.6678,-586.7056 702.2258,-525.2396"/>
<polygon fill="#000000" stroke="#000000" points="704.3248,-528.046 710.6768,-519.5664 700.4233,-522.2341 704.3248,-528.046"/>
</g>
<!-- parseCommandLine -->
<g id="node28" class="node">
<title>parseCommandLine</title>
<g id="a_node28"><a xlink:href="parseCommandLine.md" xlink:title="parseCommandLine.md">
<ellipse fill="#eee8aa" stroke="#000000" cx="2531" cy="-635" rx="148.8522" ry="22.7556"/>
<text text-anchor="middle" x="2531" y="-627.8" font-family="Times,serif" font-size="24.00" fill="#000000">parseCommandLine</text>
</a>
</g>
</g>
<!-- statictea&#45;&gt;parseCommandLine -->
<g id="edge7" class="edge">
<title>statictea&#45;&gt;parseCommandLine</title>
<path fill="none" stroke="#000000" d="M2605.7248,-1308.572C2625.977,-1224.0238 2680.9421,-953.5835 2613,-746.5083 2602.8366,-715.532 2580.4157,-686.0705 2561.5835,-665.218"/>
<polygon fill="#000000" stroke="#000000" points="2563.9415,-662.6135 2554.5747,-657.6624 2558.8095,-667.3741 2563.9415,-662.6135"/>
</g>
<!-- processTemplate -->
<g id="node29" class="node">
<title>processTemplate</title>
<g id="a_node29"><a xlink:href="processTemplate.md" xlink:title="processTemplate.md">
<ellipse fill="#eee8aa" stroke="#000000" cx="2017" cy="-1186" rx="125.2054" ry="22.7556"/>
<text text-anchor="middle" x="2017" y="-1178.8" font-family="Times,serif" font-size="24.00" fill="#000000">processTemplate</text>
</a>
</g>
</g>
<!-- statictea&#45;&gt;processTemplate -->
<g id="edge98" class="edge">
<title>statictea&#45;&gt;processTemplate</title>
<path fill="none" stroke="#000000" d="M2541.6028,-1320.3055C2437.8389,-1293.7405 2218.7376,-1237.6476 2099.1373,-1207.0283"/>
<polygon fill="#000000" stroke="#000000" points="2099.8469,-1203.5971 2089.2912,-1204.5076 2098.1107,-1210.3784 2099.8469,-1203.5971"/>
</g>
<!-- signatures&#45;&gt;vartypes -->
<g id="edge68" class="edge">
<title>signatures&#45;&gt;vartypes</title>
<path fill="none" stroke="#000000" d="M924.0487,-752.5471C955.1789,-710.2678 1020.8774,-614.8552 1052,-523.4917 1068.6549,-474.5996 1073.8089,-414.4833 1075.3698,-377.9869"/>
<polygon fill="#000000" stroke="#000000" points="1078.8707,-378.023 1075.7346,-367.9029 1071.8752,-377.7698 1078.8707,-378.023"/>
</g>
<!-- signatures&#45;&gt;funtypes -->
<g id="edge69" class="edge">
<title>signatures&#45;&gt;funtypes</title>
<path fill="none" stroke="#000000" d="M949.0887,-755.6806C1004.7763,-730.1191 1102.8001,-685.1245 1162.1368,-657.888"/>
<polygon fill="#000000" stroke="#000000" points="1163.6872,-661.0275 1171.3154,-653.6749 1160.767,-654.6657 1163.6872,-661.0275"/>
</g>
<!-- signatures&#45;&gt;messages -->
<g id="edge70" class="edge">
<title>signatures&#45;&gt;messages</title>
<path fill="none" stroke="#000000" d="M840.7618,-762.1198C784.7154,-747.3455 707.8108,-717.047 671,-657.6274 626.2665,-585.4191 641.5407,-546.178 671,-466.5083 701.4452,-384.1723 853.3327,-212.6702 928,-166.5083 1048.1726,-92.2134 1211.8862,-63.6567 1314.2274,-52.7239"/>
<polygon fill="#000000" stroke="#000000" points="1314.6558,-56.1984 1324.2432,-51.6894 1313.9365,-49.2355 1314.6558,-56.1984"/>
</g>
<!-- opresultwarn&#45;&gt;warnings -->
<g id="edge61" class="edge">
<title>opresultwarn&#45;&gt;warnings</title>
<path fill="none" stroke="#000000" d="M664.1026,-326.4566C753.5583,-297.9069 924.187,-243.451 1015.2278,-214.3954"/>
<polygon fill="#000000" stroke="#000000" points="1016.3924,-217.6977 1024.8548,-211.3229 1014.2641,-211.0291 1016.3924,-217.6977"/>
</g>
<!-- opresultwarn&#45;&gt;opresult -->
<g id="edge62" class="edge">
<title>opresultwarn&#45;&gt;opresult</title>
<path fill="none" stroke="#000000" d="M565.4292,-324.3006C513.8434,-297.9813 424.569,-252.4332 366.9219,-223.0214"/>
<polygon fill="#000000" stroke="#000000" points="368.4503,-219.872 357.952,-218.4449 365.269,-226.1073 368.4503,-219.872"/>
</g>
<!-- matches&#45;&gt;regexes -->
<g id="edge16" class="edge">
<title>matches&#45;&gt;regexes</title>
<path fill="none" stroke="#000000" d="M2011.5476,-613.737C1985.8687,-591.4075 1945.0843,-555.9429 1914.7664,-529.5795"/>
<polygon fill="#000000" stroke="#000000" points="1916.7503,-526.6665 1906.9076,-522.7458 1912.1571,-531.9487 1916.7503,-526.6665"/>
</g>
<!-- matches&#45;&gt;args -->
<g id="edge15" class="edge">
<title>matches&#45;&gt;args</title>
<path fill="none" stroke="#000000" d="M2073.1021,-615.9733C2122.7155,-590.5305 2210.5928,-545.4652 2263.9495,-518.1028"/>
<polygon fill="#000000" stroke="#000000" points="2265.5479,-521.2166 2272.849,-513.539 2262.3537,-514.9878 2265.5479,-521.2166"/>
</g>
<!-- readjson -->
<g id="node27" class="node">
<title>readjson</title>
<g id="a_node27"><a xlink:href="readjson.md" xlink:title="readjson.md">
<ellipse fill="#eee8aa" stroke="#000000" cx="338" cy="-635" rx="68.6102" ry="22.7556"/>
<text text-anchor="middle" x="338" y="-627.8" font-family="Times,serif" font-size="24.00" fill="#000000">readjson</text>
</a>
</g>
</g>
<!-- readjson&#45;&gt;opresultid -->
<g id="edge77" class="edge">
<title>readjson&#45;&gt;opresultid</title>
<path fill="none" stroke="#000000" d="M323.1761,-612.7257C289.0051,-561.3807 204.645,-434.622 165.528,-375.8452"/>
<polygon fill="#000000" stroke="#000000" points="168.3286,-373.736 159.8744,-367.3502 162.5011,-377.6143 168.3286,-373.736"/>
</g>
<!-- readjson&#45;&gt;unicodes -->
<g id="edge78" class="edge">
<title>readjson&#45;&gt;unicodes</title>
<path fill="none" stroke="#000000" d="M353.8453,-612.8166C370.6683,-589.2643 397.3727,-551.8783 416.1794,-525.5489"/>
<polygon fill="#000000" stroke="#000000" points="419.2645,-527.2513 422.2288,-517.0796 413.5683,-523.1826 419.2645,-527.2513"/>
</g>
<!-- readjson&#45;&gt;vartypes -->
<g id="edge75" class="edge">
<title>readjson&#45;&gt;vartypes</title>
<path fill="none" stroke="#000000" d="M372.0598,-615.2133C431.3151,-581.3764 557.8785,-511.6837 671,-466.5083 787.5352,-419.9696 929.0171,-381.4054 1010.1715,-360.9159"/>
<polygon fill="#000000" stroke="#000000" points="1011.3997,-364.2163 1020.2466,-358.3869 1009.6954,-357.4269 1011.3997,-364.2163"/>
</g>
<!-- readjson&#45;&gt;utf8decoder -->
<g id="edge79" class="edge">
<title>readjson&#45;&gt;utf8decoder</title>
<path fill="none" stroke="#000000" d="M338.6277,-612.2442C339.9927,-562.7648 343.2436,-444.9192 344.9355,-383.5864"/>
<polygon fill="#000000" stroke="#000000" points="348.4357,-383.6262 345.2129,-373.5335 341.4383,-383.4331 348.4357,-383.6262"/>
</g>
<!-- readjson&#45;&gt;messages -->
<g id="edge76" class="edge">
<title>readjson&#45;&gt;messages</title>
<path fill="none" stroke="#000000" d="M302.6802,-615.5553C239.2244,-578.3255 107.8141,-490.1955 57,-373.4917 14.4607,-275.7927 84.2195,-217.1038 178,-166.5083 277.2044,-112.9864 1041.2725,-66.2523 1313.8093,-51.128"/>
<polygon fill="#000000" stroke="#000000" points="1314.2848,-54.6071 1324.0763,-50.5603 1313.8983,-47.6178 1314.2848,-54.6071"/>
</g>
<!-- parseCommandLine&#45;&gt;regexes -->
<g id="edge5" class="edge">
<title>parseCommandLine&#45;&gt;regexes</title>
<path fill="none" stroke="#000000" d="M2424.4821,-619.1472C2308.2436,-600.7374 2117.1941,-567.2182 1956,-523.4917 1950.0518,-521.8782 1943.9122,-520.0427 1937.7982,-518.099"/>
<polygon fill="#000000" stroke="#000000" points="1938.8354,-514.7559 1928.2428,-514.972 1936.6582,-521.4087 1938.8354,-514.7559"/>
</g>
<!-- parseCommandLine&#45;&gt;cmdline -->
<g id="edge6" class="edge">
<title>parseCommandLine&#45;&gt;cmdline</title>
<path fill="none" stroke="#000000" d="M2531,-612.195C2531,-591.0425 2531,-559.1279 2531,-533.9419"/>
<polygon fill="#000000" stroke="#000000" points="2534.5001,-533.6107 2531,-523.6108 2527.5001,-533.6108 2534.5001,-533.6107"/>
</g>
<!-- parseCommandLine&#45;&gt;warnings -->
<g id="edge4" class="edge">
<title>parseCommandLine&#45;&gt;warnings</title>
<path fill="none" stroke="#000000" d="M2504.7054,-612.5186C2479.6886,-590.6854 2441.4549,-556.1432 2411,-523.4917 2388.7995,-499.69 2392.1762,-484.4201 2365,-466.5083 2161.4756,-332.3654 1403.129,-233.3639 1155.0768,-203.9919"/>
<polygon fill="#000000" stroke="#000000" points="1155.3998,-200.5058 1145.0588,-202.8107 1154.5801,-207.4577 1155.3998,-200.5058"/>
</g>
<!-- parseCommandLine&#45;&gt;args -->
<g id="edge1" class="edge">
<title>parseCommandLine&#45;&gt;args</title>
<path fill="none" stroke="#000000" d="M2495.8234,-612.8166C2456.33,-587.9108 2392.3064,-547.5356 2350.425,-521.1239"/>
<polygon fill="#000000" stroke="#000000" points="2352.1663,-518.0842 2341.8408,-515.7104 2348.4324,-524.0052 2352.1663,-518.0842"/>
</g>
<!-- parseCommandLine&#45;&gt;messages -->
<g id="edge2" class="edge">
<title>parseCommandLine&#45;&gt;messages</title>
<path fill="none" stroke="#000000" d="M2512.9302,-612.4318C2495.4282,-590.2505 2468.4607,-555.2083 2447,-523.4917 2343.077,-369.9053 2385.4824,-269.0946 2231,-166.5083 2113.6147,-88.5567 1696.2173,-59.3705 1505.8678,-49.9396"/>
<polygon fill="#000000" stroke="#000000" points="1506.0299,-46.4434 1495.8713,-49.4521 1505.6889,-53.4351 1506.0299,-46.4434"/>
</g>
<!-- processTemplate&#45;&gt;parseCmdLine -->
<g id="edge23" class="edge">
<title>processTemplate&#45;&gt;parseCmdLine</title>
<path fill="none" stroke="#000000" d="M2060.4091,-1164.7404C2128.1819,-1128.7963 2256.6766,-1048.9085 2308,-937.6274 2331.8268,-885.9654 2277.5814,-833.3402 2236.0056,-802.4548"/>
<polygon fill="#000000" stroke="#000000" points="2238.0383,-799.6055 2227.8863,-796.5744 2233.9323,-805.2748 2238.0383,-799.6055"/>
</g>
<!-- processTemplate&#45;&gt;env -->
<g id="edge14" class="edge">
<title>processTemplate&#45;&gt;env</title>
<path fill="none" stroke="#000000" d="M2070.2428,-1165.3693C2117.8866,-1145.2697 2188.0286,-1111.5046 2240,-1068.6274 2297.5567,-1021.1423 2310.3625,-1003.7171 2345,-937.6274 2385.2851,-860.7621 2421.6917,-825.1523 2385,-746.5083 2365.462,-704.6311 2321.6018,-672.9101 2289.5726,-654.2058"/>
<polygon fill="#000000" stroke="#000000" points="2290.8945,-650.9322 2280.4682,-649.05 2287.4451,-657.0233 2290.8945,-650.9322"/>
</g>
<!-- processTemplate&#45;&gt;variables -->
<g id="edge83" class="edge">
<title>processTemplate&#45;&gt;variables</title>
<path fill="none" stroke="#000000" d="M1892.0713,-1184.5034C1573.9509,-1179.4019 752.6007,-1157.6535 671,-1068.6274 564.8228,-952.7885 681.4061,-744.2359 731.9682,-665.8769"/>
<polygon fill="#000000" stroke="#000000" points="734.961,-667.6953 737.5034,-657.41 729.1019,-663.8649 734.961,-667.6953"/>
</g>
<!-- processTemplate&#45;&gt;vartypes -->
<g id="edge84" class="edge">
<title>processTemplate&#45;&gt;vartypes</title>
<path fill="none" stroke="#000000" d="M1901.47,-1177.2343C1686.2619,-1159.9594 1232.2984,-1118.8016 1083,-1068.6274 972.585,-1031.5206 930.9352,-1026.8077 856,-937.6274 799.5885,-870.4922 787.9024,-832.0926 807,-746.5083 832.3853,-632.7461 872.8907,-615.0695 945,-523.4917 985.0076,-472.6827 1029.0093,-411.5649 1054.4757,-375.6328"/>
<polygon fill="#000000" stroke="#000000" points="1057.6207,-377.2474 1060.5372,-367.0618 1051.9055,-373.2055 1057.6207,-377.2474"/>
</g>
<!-- processTemplate&#45;&gt;replacement -->
<g id="edge97" class="edge">
<title>processTemplate&#45;&gt;replacement</title>
<path fill="none" stroke="#000000" d="M2005.5551,-1163.3608C1981.1772,-1115.1389 1924.0737,-1002.1822 1896.0655,-946.7792"/>
<polygon fill="#000000" stroke="#000000" points="1899.1439,-945.1107 1891.5087,-937.7653 1892.8968,-948.2689 1899.1439,-945.1107"/>
</g>
<!-- processTemplate&#45;&gt;readlines -->
<g id="edge18" class="edge">
<title>processTemplate&#45;&gt;readlines</title>
<path fill="none" stroke="#000000" d="M1994.3001,-1163.5533C1951.0682,-1120.5769 1854.3325,-1023.3195 1777,-937.6274 1738.9224,-895.4337 1697.096,-845.1735 1669.8006,-811.8085"/>
<polygon fill="#000000" stroke="#000000" points="1672.2206,-809.2382 1663.1854,-803.7051 1666.798,-813.665 1672.2206,-809.2382"/>
</g>
<!-- processTemplate&#45;&gt;collectCommand -->
<g id="edge29" class="edge">
<title>processTemplate&#45;&gt;collectCommand</title>
<path fill="none" stroke="#000000" d="M2029.9486,-1163.3608C2057.5294,-1115.1389 2122.1356,-1002.1822 2153.8237,-946.7792"/>
<polygon fill="#000000" stroke="#000000" points="2157.0525,-948.1835 2158.9792,-937.7653 2150.9762,-944.7081 2157.0525,-948.1835"/>
</g>
<!-- processTemplate&#45;&gt;args -->
<g id="edge8" class="edge">
<title>processTemplate&#45;&gt;args</title>
<path fill="none" stroke="#000000" d="M2084.0149,-1166.8206C2140.1852,-1148.3289 2220.2372,-1116.1096 2278,-1068.6274 2333.1583,-1023.2862 2340.8264,-1002.3408 2371,-937.6274 2407.4922,-859.3624 2433.1121,-828.4962 2406,-746.5083 2390.5522,-699.7935 2359.7724,-702.6824 2340,-657.6274 2322.4147,-617.5561 2314.7816,-567.6265 2311.4829,-533.7378"/>
<polygon fill="#000000" stroke="#000000" points="2314.968,-533.4132 2310.5921,-523.7642 2307.9957,-534.036 2314.968,-533.4132"/>
</g>
<!-- processTemplate&#45;&gt;messages -->
<g id="edge9" class="edge">
<title>processTemplate&#45;&gt;messages</title>
<path fill="none" stroke="#000000" d="M2088.2246,-1167.3092C2151.3054,-1148.652 2244.1136,-1115.9193 2315,-1068.6274 2580.2732,-891.6503 2746,-813.8899 2746,-495 2746,-495 2746,-495 2746,-345 2746,-292.0467 2898.4901,-319.5196 2557,-166.5083 2369.658,-82.566 1746.529,-55.7811 1505.9366,-48.4449"/>
<polygon fill="#000000" stroke="#000000" points="1505.9091,-44.9426 1495.8085,-48.1407 1505.6989,-51.9394 1505.9091,-44.9426"/>
</g>
<!-- processTemplate&#45;&gt;matches -->
<g id="edge17" class="edge">
<title>processTemplate&#45;&gt;matches</title>
<path fill="none" stroke="#000000" d="M2017.7802,-1163.3729C2020.7481,-1077.3044 2031.3435,-770.0396 2034.858,-668.1183"/>
<polygon fill="#000000" stroke="#000000" points="2038.3665,-667.9304 2035.2133,-657.8156 2031.3706,-667.6891 2038.3665,-667.9304"/>
</g>
<!-- processTemplate&#45;&gt;readjson -->
<g id="edge85" class="edge">
<title>processTemplate&#45;&gt;readjson</title>
<path fill="none" stroke="#000000" d="M1895.1297,-1180.8447C1579.1654,-1166.7441 750.4305,-1124.8108 640,-1068.6274 470.8718,-982.5805 377.8935,-752.4985 348.4216,-667.3087"/>
<polygon fill="#000000" stroke="#000000" points="351.6732,-665.9992 345.1414,-657.6574 345.0456,-668.2518 351.6732,-665.9992"/>
</g>
<!-- runCommand -->
<g id="node31" class="node">
<title>runCommand</title>
<g id="a_node31"><a xlink:href="runCommand.md" xlink:title="runCommand.md">
<ellipse fill="#eee8aa" stroke="#000000" cx="1197" cy="-1046" rx="104.7872" ry="22.7556"/>
<text text-anchor="middle" x="1197" y="-1038.8" font-family="Times,serif" font-size="24.00" fill="#000000">runCommand</text>
</a>
</g>
</g>
<!-- processTemplate&#45;&gt;runCommand -->
<g id="edge82" class="edge">
<title>processTemplate&#45;&gt;runCommand</title>
<path fill="none" stroke="#000000" d="M1925.7179,-1170.4152C1768.3484,-1143.5473 1447.6742,-1088.798 1289.4802,-1061.7893"/>
<polygon fill="#000000" stroke="#000000" points="1289.7451,-1058.284 1279.2987,-1060.051 1288.567,-1065.1841 1289.7451,-1058.284"/>
</g>
<!-- runCommand&#45;&gt;runFunction -->
<g id="edge74" class="edge">
<title>runCommand&#45;&gt;runFunction</title>
<path fill="none" stroke="#000000" d="M1166.2859,-1024.368C1134.4204,-1001.9251 1084.4991,-966.7655 1049.8973,-942.3954"/>
<polygon fill="#000000" stroke="#000000" points="1051.6418,-939.3431 1041.4506,-936.4464 1047.611,-945.0662 1051.6418,-939.3431"/>
</g>
<!-- runCommand&#45;&gt;parseNumber -->
<g id="edge38" class="edge">
<title>runCommand&#45;&gt;parseNumber</title>
<path fill="none" stroke="#000000" d="M1209.6145,-1023.3608C1235.5319,-976.8468 1295.0094,-870.1023 1326.8951,-812.8771"/>
<polygon fill="#000000" stroke="#000000" points="1330.1432,-814.2383 1331.9532,-803.7992 1324.0284,-810.8311 1330.1432,-814.2383"/>
</g>
<!-- runCommand&#45;&gt;regexes -->
<g id="edge32" class="edge">
<title>runCommand&#45;&gt;regexes</title>
<path fill="none" stroke="#000000" d="M1224.9222,-1024.0222C1276.2233,-983.0828 1387.9211,-891.3143 1472,-803.4917 1494.5085,-779.9811 1494.2448,-768.7585 1518,-746.5083 1617.0978,-653.6888 1752.2595,-567.6488 1824.5281,-524.3287"/>
<polygon fill="#000000" stroke="#000000" points="1826.6531,-527.1366 1833.4479,-519.0076 1823.0668,-521.125 1826.6531,-527.1366"/>
</g>
<!-- runCommand&#45;&gt;env -->
<g id="edge33" class="edge">
<title>runCommand&#45;&gt;env</title>
<path fill="none" stroke="#000000" d="M1300.2939,-1041.9188C1560.4968,-1030.8015 2227.9195,-996.7881 2308,-937.6274 2379.1926,-885.0328 2397.9624,-828.2464 2364,-746.5083 2348.2301,-708.5545 2312.5705,-676.8396 2285.6956,-657.0563"/>
<polygon fill="#000000" stroke="#000000" points="2287.4842,-654.0325 2277.315,-651.0597 2283.4108,-659.7252 2287.4842,-654.0325"/>
</g>
<!-- runCommand&#45;&gt;variables -->
<g id="edge47" class="edge">
<title>runCommand&#45;&gt;variables</title>
<path fill="none" stroke="#000000" d="M1101.3838,-1036.6699C982.6039,-1022.875 790.2627,-992.5458 747,-937.6274 684.5972,-858.4122 719.1205,-727.9091 740.3221,-667.5206"/>
<polygon fill="#000000" stroke="#000000" points="743.7396,-668.3618 743.8467,-657.7675 737.1563,-665.9827 743.7396,-668.3618"/>
</g>
<!-- runCommand&#45;&gt;vartypes -->
<g id="edge35" class="edge">
<title>runCommand&#45;&gt;vartypes</title>
<path fill="none" stroke="#000000" d="M1119.6157,-1030.7596C1057.364,-1015.461 970.3017,-986.9147 908,-937.6274 851.6967,-893.0855 838.906,-872.1721 818,-803.4917 773.765,-658.1713 937.5139,-654.7345 1014,-523.4917 1041.6295,-476.0823 1059.6228,-414.4221 1068.7764,-377.3757"/>
<polygon fill="#000000" stroke="#000000" points="1072.1892,-378.1529 1071.1245,-367.6117 1065.3833,-376.5162 1072.1892,-378.1529"/>
</g>
<!-- runCommand&#45;&gt;readlines -->
<g id="edge30" class="edge">
<title>runCommand&#45;&gt;readlines</title>
<path fill="none" stroke="#000000" d="M1289.6037,-1035.4233C1364.6027,-1022.8291 1469.5069,-995.645 1543,-937.6274 1584.0964,-905.1847 1611.602,-850.1637 1626.5209,-813.2152"/>
<polygon fill="#000000" stroke="#000000" points="1629.8315,-814.3596 1630.2196,-803.7718 1623.3136,-811.8067 1629.8315,-814.3596"/>
</g>
<!-- runCommand&#45;&gt;funtypes -->
<g id="edge51" class="edge">
<title>runCommand&#45;&gt;funtypes</title>
<path fill="none" stroke="#000000" d="M1197.8278,-1023.3174C1200.3347,-954.6281 1207.8517,-748.6635 1210.7973,-667.9549"/>
<polygon fill="#000000" stroke="#000000" points="1214.2984,-667.9862 1211.1655,-657.8652 1207.303,-667.7308 1214.2984,-667.9862"/>
</g>
<!-- runCommand&#45;&gt;warnings -->
<g id="edge37" class="edge">
<title>runCommand&#45;&gt;warnings</title>
<path fill="none" stroke="#000000" d="M1102.4201,-1036.1889C979.1343,-1021.4984 772.868,-989.7942 719,-937.6274 626.6159,-848.161 662.355,-785.1875 646,-657.6274 635.1056,-572.6575 625.3229,-538.9801 671,-466.5083 754.179,-334.5355 927.4755,-251.8709 1018.0412,-215.913"/>
<polygon fill="#000000" stroke="#000000" points="1019.5681,-219.0739 1027.6032,-212.1683 1017.0154,-212.5559 1019.5681,-219.0739"/>
</g>
<!-- runCommand&#45;&gt;collectCommand -->
<g id="edge81" class="edge">
<title>runCommand&#45;&gt;collectCommand</title>
<path fill="none" stroke="#000000" d="M1286.1094,-1034.0273C1464.4661,-1010.0635 1864.945,-956.2556 2060.4131,-929.9927"/>
<polygon fill="#000000" stroke="#000000" points="2060.9758,-933.4486 2070.4207,-928.6481 2060.0437,-926.511 2060.9758,-933.4486"/>
</g>
<!-- runCommand&#45;&gt;messages -->
<g id="edge36" class="edge">
<title>runCommand&#45;&gt;messages</title>
<path fill="none" stroke="#000000" d="M1101.1167,-1036.8103C930.8636,-1019.6537 582.9671,-980.578 469,-937.6274 236.866,-850.1435 0,-883.0718 0,-635 0,-635 0,-635 0,-345 0,-256.1563 16.5444,-216.4829 90,-166.5083 190.6651,-98.0219 1027.0176,-60.4117 1313.8777,-49.4328"/>
<polygon fill="#000000" stroke="#000000" points="1314.3988,-52.9156 1324.2585,-49.0379 1314.1327,-45.9206 1314.3988,-52.9156"/>
</g>
<!-- runCommand&#45;&gt;matches -->
<g id="edge31" class="edge">
<title>runCommand&#45;&gt;matches</title>
<path fill="none" stroke="#000000" d="M1268.5094,-1029.3596C1349.1363,-1009.1847 1473.1686,-973.4201 1505,-937.6274 1562.8588,-872.5682 1486.5384,-808.1753 1548,-746.5083 1605.3593,-688.9572 1839.2935,-655.9868 1961.2434,-642.3937"/>
<polygon fill="#000000" stroke="#000000" points="1961.6987,-645.8648 1971.2564,-641.2931 1960.9339,-638.9067 1961.6987,-645.8648"/>
</g>
<!-- runCommand&#45;&gt;readjson -->
<g id="edge80" class="edge">
<title>runCommand&#45;&gt;readjson</title>
<path fill="none" stroke="#000000" d="M1096.0655,-1039.99C931.8314,-1028.5449 615.8429,-999.0786 524,-937.6274 424.4684,-871.0319 368.9119,-731.3363 347.8864,-667.7604"/>
<polygon fill="#000000" stroke="#000000" points="351.0981,-666.3165 344.6943,-657.876 344.4369,-668.4677 351.0981,-666.3165"/>
</g>
</g>
</svg>
