<?xml version="1.0" encoding="UTF-8" standalone="no"?>
<!DOCTYPE svg PUBLIC "-//W3C//DTD SVG 1.1//EN"
 "http://www.w3.org/Graphics/SVG/1.1/DTD/svg11.dtd">
<!-- Generated by graphviz version 2.40.1 (20161225.0304)
 -->
<!-- Title: statictea Pages: 1 -->
<svg width="720pt" height="309pt"
 viewBox="0.00 0.00 720.00 309.44" xmlns="http://www.w3.org/2000/svg" xmlns:xlink="http://www.w3.org/1999/xlink">
<g id="graph0" class="graph" transform="scale(.2173 .2173) rotate(0) translate(4 1419.8613)">
<title>statictea</title>
<polygon fill="#ffffff" stroke="transparent" points="-4,4 -4,-1419.8613 3309.02,-1419.8613 3309.02,4 -4,4"/>
<!-- runFunction -->
<g id="node1" class="node">
<title>runFunction</title>
<g id="a_node1"><a xlink:href="runFunction.md" xlink:title="runFunction.md">
<ellipse fill="#eee8aa" stroke="#000000" cx="2091.5756" cy="-857" rx="94.055" ry="22.7556"/>
<text text-anchor="middle" x="2091.5756" y="-849.8" font-family="Times,serif" font-size="24.00" fill="#000000">runFunction</text>
</a>
</g>
</g>
<!-- parseNumber -->
<g id="node3" class="node">
<title>parseNumber</title>
<g id="a_node3"><a xlink:href="parseNumber.md" xlink:title="parseNumber.md">
<polygon fill="#98fb98" stroke="#000000" points="1937.9561,-715.8581 1937.9561,-736.1419 1872.7109,-750.4846 1780.4403,-750.4846 1715.1951,-736.1419 1715.1951,-715.8581 1780.4403,-701.5154 1872.7109,-701.5154 1937.9561,-715.8581"/>
<polygon fill="none" stroke="#000000" points="1941.9629,-712.6442 1941.9629,-739.3558 1873.147,-754.4835 1780.0043,-754.4835 1711.1884,-739.3558 1711.1884,-712.6442 1780.0043,-697.5165 1873.147,-697.5165 1941.9629,-712.6442"/>
<text text-anchor="middle" x="1826.5756" y="-718.8" font-family="Times,serif" font-size="24.00" fill="#000000">parseNumber</text>
</a>
</g>
</g>
<!-- runFunction&#45;&gt;parseNumber -->
<g id="edge64" class="edge">
<title>runFunction&#45;&gt;parseNumber</title>
<path fill="none" stroke="#000000" d="M2050.1694,-836.5313C2007.276,-815.3274 1939.6972,-781.9205 1890.053,-757.3794"/>
<polygon fill="#000000" stroke="#000000" points="1891.5176,-754.1991 1881.0021,-752.9051 1888.4155,-760.4743 1891.5176,-754.1991"/>
</g>
<!-- regexes -->
<g id="node4" class="node">
<title>regexes</title>
<g id="a_node4"><a xlink:href="regexes.md" xlink:title="regexes.md">
<polygon fill="#98fb98" stroke="#000000" points="1352.7627,-434.8581 1352.7627,-455.1419 1312.8196,-469.4846 1256.3316,-469.4846 1216.3886,-455.1419 1216.3886,-434.8581 1256.3316,-420.5154 1312.8196,-420.5154 1352.7627,-434.8581"/>
<polygon fill="none" stroke="#000000" points="1356.7538,-432.0434 1356.7538,-457.9566 1313.5132,-473.4835 1255.6381,-473.4835 1212.3975,-457.9566 1212.3975,-432.0434 1255.6381,-416.5165 1313.5132,-416.5165 1356.7538,-432.0434"/>
<text text-anchor="middle" x="1284.5756" y="-437.8" font-family="Times,serif" font-size="24.00" fill="#000000">regexes</text>
</a>
</g>
</g>
<!-- runFunction&#45;&gt;regexes -->
<g id="edge63" class="edge">
<title>runFunction&#45;&gt;regexes</title>
<path fill="none" stroke="#000000" d="M2086.6458,-834.1539C2072.4833,-770.6763 2029.8489,-594.4133 1985.5756,-557.5083 1892.8384,-480.2049 1531.5439,-455.329 1367.0119,-447.9095"/>
<polygon fill="#000000" stroke="#000000" points="1367.0847,-444.4094 1356.9404,-447.4661 1366.7768,-451.4026 1367.0847,-444.4094"/>
</g>
<!-- unicodes -->
<g id="node8" class="node">
<title>unicodes</title>
<g id="a_node8"><a xlink:href="unicodes.md" xlink:title="unicodes.md">
<ellipse fill="#eee8aa" stroke="#000000" cx="2741.5756" cy="-726" rx="71.7778" ry="22.7556"/>
<text text-anchor="middle" x="2741.5756" y="-718.8" font-family="Times,serif" font-size="24.00" fill="#000000">unicodes</text>
</a>
</g>
</g>
<!-- runFunction&#45;&gt;unicodes -->
<g id="edge75" class="edge">
<title>runFunction&#45;&gt;unicodes</title>
<path fill="none" stroke="#000000" d="M2163.9334,-842.4171C2289.5854,-817.0934 2546.5774,-765.2996 2670.9856,-740.2266"/>
<polygon fill="#000000" stroke="#000000" points="2671.6846,-743.6562 2680.796,-738.2494 2670.3016,-736.7942 2671.6846,-743.6562"/>
</g>
<!-- vartypes -->
<g id="node11" class="node">
<title>vartypes</title>
<g id="a_node11"><a xlink:href="vartypes.md" xlink:title="vartypes.md">
<ellipse fill="#eee8aa" stroke="#000000" cx="2366.5756" cy="-445" rx="68.6102" ry="22.7556"/>
<text text-anchor="middle" x="2366.5756" y="-437.8" font-family="Times,serif" font-size="24.00" fill="#000000">vartypes</text>
</a>
</g>
</g>
<!-- runFunction&#45;&gt;vartypes -->
<g id="edge62" class="edge">
<title>runFunction&#45;&gt;vartypes</title>
<path fill="none" stroke="#000000" d="M2101.3607,-834.2542C2131.2173,-764.8773 2219.2672,-560.4813 2221.5756,-557.5083 2249.6187,-521.3916 2291.7869,-490.4119 2323.4314,-470.1594"/>
<polygon fill="#000000" stroke="#000000" points="2325.4543,-473.0219 2332.0573,-464.7363 2321.7285,-467.0958 2325.4543,-473.0219"/>
</g>
<!-- funtypes -->
<g id="node15" class="node">
<title>funtypes</title>
<g id="a_node15"><a xlink:href="funtypes.md" xlink:title="funtypes.md">
<ellipse fill="#eee8aa" stroke="#000000" cx="2485.5756" cy="-586" rx="69.5163" ry="22.7556"/>
<text text-anchor="middle" x="2485.5756" y="-578.8" font-family="Times,serif" font-size="24.00" fill="#000000">funtypes</text>
</a>
</g>
</g>
<!-- runFunction&#45;&gt;funtypes -->
<g id="edge80" class="edge">
<title>runFunction&#45;&gt;funtypes</title>
<path fill="none" stroke="#000000" d="M2170.7551,-844.6314C2294.7559,-824.4667 2523.1217,-783.8176 2546.5756,-754.4917 2579.8146,-712.9311 2541.3952,-651.6802 2512.242,-615.6108"/>
<polygon fill="#000000" stroke="#000000" points="2514.9025,-613.336 2505.8214,-607.8785 2509.517,-617.8079 2514.9025,-613.336"/>
</g>
<!-- warnings -->
<g id="node17" class="node">
<title>warnings</title>
<g id="a_node17"><a xlink:href="warnings.md" xlink:title="warnings.md">
<ellipse fill="#eee8aa" stroke="#000000" cx="1598.5756" cy="-183" rx="73.5561" ry="22.7556"/>
<text text-anchor="middle" x="1598.5756" y="-175.8" font-family="Times,serif" font-size="24.00" fill="#000000">warnings</text>
</a>
</g>
</g>
<!-- runFunction&#45;&gt;warnings -->
<g id="edge61" class="edge">
<title>runFunction&#45;&gt;warnings</title>
<path fill="none" stroke="#000000" d="M2090.4464,-834.1653C2088.2412,-787.5396 2083.5756,-678.0201 2083.5756,-586 2083.5756,-586 2083.5756,-586 2083.5756,-445 2083.5756,-263.6376 1817.8001,-207.2137 1679.7372,-190.1383"/>
<polygon fill="#000000" stroke="#000000" points="1679.9629,-186.6405 1669.6182,-188.929 1679.1322,-193.591 1679.9629,-186.6405"/>
</g>
<!-- signatures -->
<g id="node23" class="node">
<title>signatures</title>
<g id="a_node23"><a xlink:href="signatures.md" xlink:title="signatures.md">
<ellipse fill="#eee8aa" stroke="#000000" cx="2457.5756" cy="-726" rx="80.2483" ry="22.7556"/>
<text text-anchor="middle" x="2457.5756" y="-718.8" font-family="Times,serif" font-size="24.00" fill="#000000">signatures</text>
</a>
</g>
</g>
<!-- runFunction&#45;&gt;signatures -->
<g id="edge79" class="edge">
<title>runFunction&#45;&gt;signatures</title>
<path fill="none" stroke="#000000" d="M2144.4043,-838.0914C2211.713,-814 2327.7336,-772.4735 2398.086,-747.2927"/>
<polygon fill="#000000" stroke="#000000" points="2399.4645,-750.5168 2407.7002,-743.8516 2397.1056,-743.9263 2399.4645,-750.5168"/>
</g>
<!-- messages -->
<g id="node26" class="node">
<title>messages</title>
<g id="a_node26"><a xlink:href="messages.md" xlink:title="messages.md">
<polygon fill="#98fb98" stroke="#000000" points="1680.3145,-32.8581 1680.3145,-53.1419 1632.433,-67.4846 1564.7183,-67.4846 1516.8368,-53.1419 1516.8368,-32.8581 1564.7183,-18.5154 1632.433,-18.5154 1680.3145,-32.8581"/>
<polygon fill="none" stroke="#000000" points="1684.3202,-29.883 1684.3202,-56.117 1633.021,-71.4835 1564.1303,-71.4835 1512.8311,-56.117 1512.8311,-29.883 1564.1303,-14.5165 1633.021,-14.5165 1684.3202,-29.883"/>
<text text-anchor="middle" x="1598.5756" y="-35.8" font-family="Times,serif" font-size="24.00" fill="#000000">messages</text>
</a>
</g>
</g>
<!-- runFunction&#45;&gt;messages -->
<g id="edge60" class="edge">
<title>runFunction&#45;&gt;messages</title>
<path fill="none" stroke="#000000" d="M2095.8103,-834.2528C2104.0798,-787.7863 2121.5756,-678.5419 2121.5756,-586 2121.5756,-586 2121.5756,-586 2121.5756,-314 2121.5756,-123.8124 1845.5564,-66.9333 1694.5584,-50.0467"/>
<polygon fill="#000000" stroke="#000000" points="1694.6707,-46.5386 1684.3528,-48.9449 1693.9193,-53.4981 1694.6707,-46.5386"/>
</g>
<!-- matches -->
<g id="node27" class="node">
<title>matches</title>
<g id="a_node27"><a xlink:href="matches.md" xlink:title="matches.md">
<ellipse fill="#eee8aa" stroke="#000000" cx="1237.5756" cy="-586" rx="66.8311" ry="22.7556"/>
<text text-anchor="middle" x="1237.5756" y="-578.8" font-family="Times,serif" font-size="24.00" fill="#000000">matches</text>
</a>
</g>
</g>
<!-- runFunction&#45;&gt;matches -->
<g id="edge65" class="edge">
<title>runFunction&#45;&gt;matches</title>
<path fill="none" stroke="#000000" d="M2078.7191,-834.2898C2057.2215,-798.6449 2010.3842,-730.2593 1950.5756,-697.5083 1841.6334,-637.8517 1473.7504,-603.7149 1313.3742,-591.3528"/>
<polygon fill="#000000" stroke="#000000" points="1313.3529,-587.8411 1303.1155,-590.57 1312.8202,-594.8208 1313.3529,-587.8411"/>
</g>
<!-- opresultid -->
<g id="node2" class="node">
<title>opresultid</title>
<g id="a_node2"><a xlink:href="opresultid.md" xlink:title="opresultid.md">
<ellipse fill="#eee8aa" stroke="#000000" cx="2842.5756" cy="-314" rx="79.3758" ry="22.7556"/>
<text text-anchor="middle" x="2842.5756" y="-306.8" font-family="Times,serif" font-size="24.00" fill="#000000">opresultid</text>
</a>
</g>
</g>
<!-- opresultid&#45;&gt;messages -->
<g id="edge66" class="edge">
<title>opresultid&#45;&gt;messages</title>
<path fill="none" stroke="#000000" d="M2842.0262,-291.1512C2839.8231,-255.6346 2829.9479,-187.8107 2787.5756,-154.5083 2702.2781,-87.4686 1961.6278,-55.5117 1694.2934,-46.0847"/>
<polygon fill="#000000" stroke="#000000" points="1694.3342,-42.5841 1684.2179,-45.7322 1694.0894,-49.5798 1694.3342,-42.5841"/>
</g>
<!-- opresult -->
<g id="node33" class="node">
<title>opresult</title>
<g id="a_node33"><a xlink:href="opresult.md" xlink:title="opresult.md">
<polygon fill="#98fb98" stroke="#000000" points="2741.9283,-172.8581 2741.9283,-193.1419 2700.1309,-207.4846 2641.0204,-207.4846 2599.223,-193.1419 2599.223,-172.8581 2641.0204,-158.5154 2700.1309,-158.5154 2741.9283,-172.8581"/>
<polygon fill="none" stroke="#000000" points="2745.9243,-170.0019 2745.9243,-195.9981 2700.7969,-211.4835 2640.3543,-211.4835 2595.227,-195.9981 2595.227,-170.0019 2640.3543,-154.5165 2700.7969,-154.5165 2745.9243,-170.0019"/>
<text text-anchor="middle" x="2670.5756" y="-175.8" font-family="Times,serif" font-size="24.00" fill="#000000">opresult</text>
</a>
</g>
</g>
<!-- opresultid&#45;&gt;opresult -->
<g id="edge67" class="edge">
<title>opresultid&#45;&gt;opresult</title>
<path fill="none" stroke="#000000" d="M2814.5581,-292.661C2787.3819,-271.9629 2745.7465,-240.2522 2714.226,-216.2454"/>
<polygon fill="#000000" stroke="#000000" points="2716.1118,-213.2821 2706.0357,-210.0074 2711.8704,-218.8508 2716.1118,-213.2821"/>
</g>
<!-- cmdline -->
<g id="node5" class="node">
<title>cmdline</title>
<g id="a_node5"><a xlink:href="cmdline.md" xlink:title="cmdline.md">
<polygon fill="#98fb98" stroke="#000000" points="443.9108,-434.8581 443.9108,-455.1419 402.1236,-469.4846 343.0276,-469.4846 301.2404,-455.1419 301.2404,-434.8581 343.0276,-420.5154 402.1236,-420.5154 443.9108,-434.8581"/>
<polygon fill="none" stroke="#000000" points="447.9063,-432.0021 447.9063,-457.9979 402.7897,-473.4835 342.3615,-473.4835 297.2449,-457.9979 297.2449,-432.0021 342.3615,-416.5165 402.7897,-416.5165 447.9063,-432.0021"/>
<text text-anchor="middle" x="372.5756" y="-437.8" font-family="Times,serif" font-size="24.00" fill="#000000">cmdline</text>
</a>
</g>
</g>
<!-- parseCmdLine -->
<g id="node6" class="node">
<title>parseCmdLine</title>
<g id="a_node6"><a xlink:href="parseCmdLine.md" xlink:title="parseCmdLine.md">
<ellipse fill="#eee8aa" stroke="#000000" cx="1038.5756" cy="-726" rx="111.4463" ry="22.7556"/>
<text text-anchor="middle" x="1038.5756" y="-718.8" font-family="Times,serif" font-size="24.00" fill="#000000">parseCmdLine</text>
</a>
</g>
</g>
<!-- parseCmdLine&#45;&gt;regexes -->
<g id="edge25" class="edge">
<title>parseCmdLine&#45;&gt;regexes</title>
<path fill="none" stroke="#000000" d="M1054.6629,-703.4412C1085.2638,-660.6083 1149.8586,-570.5946 1161.5756,-557.5083 1187.008,-529.1039 1218.8387,-500.1386 1243.7471,-478.712"/>
<polygon fill="#000000" stroke="#000000" points="1246.2408,-481.1851 1251.5741,-472.0305 1241.696,-475.8611 1246.2408,-481.1851"/>
</g>
<!-- parseCmdLine&#45;&gt;warnings -->
<g id="edge28" class="edge">
<title>parseCmdLine&#45;&gt;warnings</title>
<path fill="none" stroke="#000000" d="M1048.649,-703.0648C1077.008,-639.2402 1158.3889,-461.3076 1203.5756,-416.5083 1306.1845,-314.779 1461.6769,-239.9849 1543.6092,-205.0245"/>
<polygon fill="#000000" stroke="#000000" points="1545.3792,-208.0763 1553.2278,-200.9594 1542.6541,-201.6285 1545.3792,-208.0763"/>
</g>
<!-- opresultwarn -->
<g id="node25" class="node">
<title>opresultwarn</title>
<g id="a_node25"><a xlink:href="opresultwarn.md" xlink:title="opresultwarn.md">
<ellipse fill="#eee8aa" stroke="#000000" cx="2363.5756" cy="-314" rx="99.824" ry="22.7556"/>
<text text-anchor="middle" x="2363.5756" y="-306.8" font-family="Times,serif" font-size="24.00" fill="#000000">opresultwarn</text>
</a>
</g>
</g>
<!-- parseCmdLine&#45;&gt;opresultwarn -->
<g id="edge29" class="edge">
<title>parseCmdLine&#45;&gt;opresultwarn</title>
<path fill="none" stroke="#000000" d="M1108.8668,-708.3898C1167.6583,-691.2368 1251.6169,-660.8914 1313.5756,-614.4917 1403.4652,-547.1753 1372.4182,-471.0681 1470.5756,-416.5083 1602.5953,-343.1265 2045.5684,-322.1094 2253.739,-316.223"/>
<polygon fill="#000000" stroke="#000000" points="2253.8759,-319.7206 2263.7754,-315.9458 2253.6826,-312.7233 2253.8759,-319.7206"/>
</g>
<!-- parseCmdLine&#45;&gt;messages -->
<g id="edge26" class="edge">
<title>parseCmdLine&#45;&gt;messages</title>
<path fill="none" stroke="#000000" d="M947.5445,-712.9325C913.1014,-708.0313 873.5393,-702.4532 837.5756,-697.5083 699.2093,-678.483 312.3016,-714.2757 214.5756,-614.4917 161.5373,-560.3364 195.5756,-520.8015 195.5756,-445 195.5756,-445 195.5756,-445 195.5756,-314 195.5756,-180.5563 1186.6705,-79.9894 1502.8641,-51.3007"/>
<polygon fill="#000000" stroke="#000000" points="1503.2793,-54.7775 1512.9237,-50.3916 1502.6492,-47.8059 1503.2793,-54.7775"/>
</g>
<!-- parseCmdLine&#45;&gt;matches -->
<g id="edge27" class="edge">
<title>parseCmdLine&#45;&gt;matches</title>
<path fill="none" stroke="#000000" d="M1069.6694,-704.125C1104.9342,-679.3156 1162.4188,-638.8741 1200.1224,-612.349"/>
<polygon fill="#000000" stroke="#000000" points="1202.1545,-615.1988 1208.3194,-606.5823 1198.1267,-609.4736 1202.1545,-615.1988"/>
</g>
<!-- env -->
<g id="node7" class="node">
<title>env</title>
<g id="a_node7"><a xlink:href="env.md" xlink:title="env.md">
<ellipse fill="#eee8aa" stroke="#000000" cx="569.5756" cy="-726" rx="35.6342" ry="22.7556"/>
<text text-anchor="middle" x="569.5756" y="-718.8" font-family="Times,serif" font-size="24.00" fill="#000000">env</text>
</a>
</g>
</g>
<!-- tempFile -->
<g id="node10" class="node">
<title>tempFile</title>
<g id="a_node10"><a xlink:href="tempFile.md" xlink:title="tempFile.md">
<polygon fill="#98fb98" stroke="#000000" points="851.1736,-575.8581 851.1736,-596.1419 805.7178,-610.4846 741.4335,-610.4846 695.9777,-596.1419 695.9777,-575.8581 741.4335,-561.5154 805.7178,-561.5154 851.1736,-575.8581"/>
<polygon fill="none" stroke="#000000" points="855.1761,-572.9275 855.1761,-599.0725 806.3348,-614.4835 740.8165,-614.4835 691.9752,-599.0725 691.9752,-572.9275 740.8165,-557.5165 806.3348,-557.5165 855.1761,-572.9275"/>
<text text-anchor="middle" x="773.5756" y="-578.8" font-family="Times,serif" font-size="24.00" fill="#000000">tempFile</text>
</a>
</g>
</g>
<!-- env&#45;&gt;tempFile -->
<g id="edge15" class="edge">
<title>env&#45;&gt;tempFile</title>
<path fill="none" stroke="#000000" d="M594.1828,-709.1127C626.8005,-686.728 685.033,-646.7646 726.295,-618.4475"/>
<polygon fill="#000000" stroke="#000000" points="728.3029,-621.3145 734.5676,-612.7703 724.3419,-615.5429 728.3029,-621.3145"/>
</g>
<!-- readlines -->
<g id="node14" class="node">
<title>readlines</title>
<g id="a_node14"><a xlink:href="readlines.md" xlink:title="readlines.md">
<polygon fill="#98fb98" stroke="#000000" points="1034.165,-575.8581 1034.165,-596.1419 988.1284,-610.4846 923.0229,-610.4846 876.9863,-596.1419 876.9863,-575.8581 923.0229,-561.5154 988.1284,-561.5154 1034.165,-575.8581"/>
<polygon fill="none" stroke="#000000" points="1038.1672,-572.9163 1038.1672,-599.0837 988.7379,-614.4835 922.4134,-614.4835 872.9841,-599.0837 872.9841,-572.9163 922.4134,-557.5165 988.7379,-557.5165 1038.1672,-572.9163"/>
<text text-anchor="middle" x="955.5756" y="-578.8" font-family="Times,serif" font-size="24.00" fill="#000000">readlines</text>
</a>
</g>
</g>
<!-- env&#45;&gt;readlines -->
<g id="edge19" class="edge">
<title>env&#45;&gt;readlines</title>
<path fill="none" stroke="#000000" d="M595.2787,-710.0653C602.9356,-705.6738 611.4535,-701.1275 619.5756,-697.5083 644.2215,-686.5261 793.1503,-638.1435 884.2635,-608.837"/>
<polygon fill="#000000" stroke="#000000" points="885.5351,-612.1047 893.9841,-605.7121 883.3928,-605.4405 885.5351,-612.1047"/>
</g>
<!-- env&#45;&gt;warnings -->
<g id="edge17" class="edge">
<title>env&#45;&gt;warnings</title>
<path fill="none" stroke="#000000" d="M583.6999,-705.0538C598.7947,-682.6558 623.4142,-646.089 644.5756,-614.4917 661.5146,-589.1992 658.1063,-575.6161 682.5756,-557.5083 787.0144,-480.2212 863.3421,-557.3574 962.5756,-473.4917 1031.5335,-415.2131 980.9126,-346.2907 1052.5756,-291.3726 1124.4847,-236.2659 1383.9311,-203.7481 1517.6447,-190.2902"/>
<polygon fill="#000000" stroke="#000000" points="1518.2291,-193.7495 1527.8337,-189.2772 1517.5365,-186.7838 1518.2291,-193.7495"/>
</g>
<!-- args -->
<g id="node24" class="node">
<title>args</title>
<g id="a_node24"><a xlink:href="args.md" xlink:title="args.md">
<ellipse fill="#eee8aa" stroke="#000000" cx="914.5756" cy="-445" rx="39.0784" ry="22.7556"/>
<text text-anchor="middle" x="914.5756" y="-437.8" font-family="Times,serif" font-size="24.00" fill="#000000">args</text>
</a>
</g>
</g>
<!-- env&#45;&gt;args -->
<g id="edge18" class="edge">
<title>env&#45;&gt;args</title>
<path fill="none" stroke="#000000" d="M574.7206,-703.589C583.9365,-668.1251 606.4565,-598.8621 649.5756,-557.5083 711.3398,-498.2727 809.0272,-467.9455 866.9561,-454.3552"/>
<polygon fill="#000000" stroke="#000000" points="867.9682,-457.7145 876.9441,-452.0856 866.4171,-450.8885 867.9682,-457.7145"/>
</g>
<!-- env&#45;&gt;messages -->
<g id="edge16" class="edge">
<title>env&#45;&gt;messages</title>
<path fill="none" stroke="#000000" d="M544.3545,-709.6731C536.6376,-705.2208 527.9667,-700.7399 519.5756,-697.5083 359.8744,-636.0023 259.8622,-740.0501 143.5756,-614.4917 91.8786,-558.6728 119.5756,-521.0811 119.5756,-445 119.5756,-445 119.5756,-445 119.5756,-314 119.5756,-242.3167 91.0752,-203.316 143.5756,-154.5083 242.9046,-62.1659 1194.0479,-46.2865 1502.5158,-43.5623"/>
<polygon fill="#000000" stroke="#000000" points="1502.806,-47.0601 1512.7756,-43.4745 1502.746,-40.0603 1502.806,-47.0601"/>
</g>
<!-- unicodes&#45;&gt;opresultid -->
<g id="edge68" class="edge">
<title>unicodes&#45;&gt;opresultid</title>
<path fill="none" stroke="#000000" d="M2747.1497,-703.2622C2764.0493,-634.3251 2814.7624,-427.4558 2834.5469,-346.7511"/>
<polygon fill="#000000" stroke="#000000" points="2838.0371,-347.2133 2837.0188,-336.6675 2831.2384,-345.5466 2838.0371,-347.2133"/>
</g>
<!-- unicodes&#45;&gt;vartypes -->
<g id="edge74" class="edge">
<title>unicodes&#45;&gt;vartypes</title>
<path fill="none" stroke="#000000" d="M2721.8116,-704.0031C2690.5717,-670.0065 2626.9078,-603.7965 2564.5756,-557.5083 2516.6219,-521.8976 2456.3114,-489.1351 2414.9286,-468.261"/>
<polygon fill="#000000" stroke="#000000" points="2416.3868,-465.0769 2405.8776,-463.7327 2413.2548,-471.3372 2416.3868,-465.0769"/>
</g>
<!-- unicodes&#45;&gt;funtypes -->
<g id="edge73" class="edge">
<title>unicodes&#45;&gt;funtypes</title>
<path fill="none" stroke="#000000" d="M2705.7104,-706.3862C2659.7222,-681.2364 2579.9794,-637.627 2530.1412,-610.3718"/>
<polygon fill="#000000" stroke="#000000" points="2531.6512,-607.2084 2521.1982,-605.4811 2528.2925,-613.35 2531.6512,-607.2084"/>
</g>
<!-- utf8decoder -->
<g id="node16" class="node">
<title>utf8decoder</title>
<g id="a_node16"><a xlink:href="utf8decoder.md" xlink:title="utf8decoder.md">
<polygon fill="#98fb98" stroke="#000000" points="3043.5052,-575.8581 3043.5052,-596.1419 2984.9678,-610.4846 2902.1834,-610.4846 2843.6461,-596.1419 2843.6461,-575.8581 2902.1834,-561.5154 2984.9678,-561.5154 3043.5052,-575.8581"/>
<polygon fill="none" stroke="#000000" points="3047.5038,-572.7208 3047.5038,-599.2792 2985.4505,-614.4835 2901.7007,-614.4835 2839.6474,-599.2792 2839.6474,-572.7208 2901.7007,-557.5165 2985.4505,-557.5165 3047.5038,-572.7208"/>
<text text-anchor="middle" x="2943.5756" y="-578.8" font-family="Times,serif" font-size="24.00" fill="#000000">utf8decoder</text>
</a>
</g>
</g>
<!-- unicodes&#45;&gt;utf8decoder -->
<g id="edge72" class="edge">
<title>unicodes&#45;&gt;utf8decoder</title>
<path fill="none" stroke="#000000" d="M2771.3814,-705.3425C2803.6226,-682.9972 2855.557,-647.003 2893.97,-620.3801"/>
<polygon fill="#000000" stroke="#000000" points="2896.2139,-623.0834 2902.4392,-614.5104 2892.2265,-617.3301 2896.2139,-623.0834"/>
</g>
<!-- unicodes&#45;&gt;warnings -->
<g id="edge71" class="edge">
<title>unicodes&#45;&gt;warnings</title>
<path fill="none" stroke="#000000" d="M2736.9248,-703.2085C2720.3293,-628.4639 2656.4295,-389.9372 2499.5756,-291.3726 2364.5073,-206.4976 1879.3527,-188.0881 1682.4784,-184.1004"/>
<polygon fill="#000000" stroke="#000000" points="1682.2575,-180.5956 1672.1911,-183.8999 1682.121,-187.5942 1682.2575,-180.5956"/>
</g>
<!-- unicodes&#45;&gt;opresultwarn -->
<g id="edge69" class="edge">
<title>unicodes&#45;&gt;opresultwarn</title>
<path fill="none" stroke="#000000" d="M2730.0019,-703.3963C2712.2063,-669.7434 2675.9246,-605.3073 2635.5756,-557.5083 2561.6896,-469.9798 2456.5684,-384.6771 2401.1348,-342.0784"/>
<polygon fill="#000000" stroke="#000000" points="2403.0718,-339.1537 2393.0016,-335.8611 2398.8206,-344.7149 2403.0718,-339.1537"/>
</g>
<!-- unicodes&#45;&gt;messages -->
<g id="edge70" class="edge">
<title>unicodes&#45;&gt;messages</title>
<path fill="none" stroke="#000000" d="M2753.1726,-703.6158C2792.886,-626.7642 2921.4747,-376.2186 2930.5756,-336.6274 2951.8118,-244.2457 2903.2031,-199.138 2819.5756,-154.5083 2721.1934,-102.0043 1965.7267,-60.7394 1694.8451,-47.4946"/>
<polygon fill="#000000" stroke="#000000" points="1694.7969,-43.9882 1684.6385,-46.9976 1694.4564,-50.9799 1694.7969,-43.9882"/>
</g>
<!-- variables -->
<g id="node9" class="node">
<title>variables</title>
<g id="a_node9"><a xlink:href="variables.md" xlink:title="variables.md">
<ellipse fill="#eee8aa" stroke="#000000" cx="1544.5756" cy="-726" rx="72.6337" ry="22.7556"/>
<text text-anchor="middle" x="1544.5756" y="-718.8" font-family="Times,serif" font-size="24.00" fill="#000000">variables</text>
</a>
</g>
</g>
<!-- variables&#45;&gt;vartypes -->
<g id="edge49" class="edge">
<title>variables&#45;&gt;vartypes</title>
<path fill="none" stroke="#000000" d="M1562.365,-704.0097C1593.4798,-667.1902 1661.6461,-593.5648 1736.5756,-557.5083 1833.735,-510.7545 2145.7063,-470.2231 2290.9116,-453.3539"/>
<polygon fill="#000000" stroke="#000000" points="2291.5405,-456.8047 2301.0729,-452.1805 2290.7374,-449.8509 2291.5405,-456.8047"/>
</g>
<!-- variables&#45;&gt;warnings -->
<g id="edge52" class="edge">
<title>variables&#45;&gt;warnings</title>
<path fill="none" stroke="#000000" d="M1546.3654,-703.3471C1551.524,-638.8593 1567.1706,-448.7831 1584.5756,-291.3726 1587.3887,-265.9316 1591.1253,-237.2047 1594.0307,-215.7223"/>
<polygon fill="#000000" stroke="#000000" points="1597.4998,-216.1856 1595.3824,-205.8045 1590.5639,-215.2402 1597.4998,-216.1856"/>
</g>
<!-- variables&#45;&gt;args -->
<g id="edge53" class="edge">
<title>variables&#45;&gt;args</title>
<path fill="none" stroke="#000000" d="M1521.1528,-704.4373C1481.3824,-668.9105 1396.8345,-597.9853 1313.5756,-557.5083 1194.0182,-499.3844 1039.2738,-466.5652 962.3572,-452.7935"/>
<polygon fill="#000000" stroke="#000000" points="962.9335,-449.3412 952.4779,-451.0531 961.719,-456.235 962.9335,-449.3412"/>
</g>
<!-- variables&#45;&gt;opresultwarn -->
<g id="edge54" class="edge">
<title>variables&#45;&gt;opresultwarn</title>
<path fill="none" stroke="#000000" d="M1558.2201,-703.4375C1585.3274,-658.7371 1643.9347,-562.7607 1650.5756,-557.5083 1837.1153,-409.9714 2118.3475,-349.172 2265.6637,-326.325"/>
<polygon fill="#000000" stroke="#000000" points="2266.2452,-329.7769 2275.6035,-324.8096 2265.1902,-322.8568 2266.2452,-329.7769"/>
</g>
<!-- variables&#45;&gt;messages -->
<g id="edge51" class="edge">
<title>variables&#45;&gt;messages</title>
<path fill="none" stroke="#000000" d="M1537.7299,-703.422C1515.1312,-625.0163 1448.0877,-358.2045 1515.5756,-154.5083 1524.9306,-126.2725 1544.5172,-99.3774 1562.3147,-79.0773"/>
<polygon fill="#000000" stroke="#000000" points="1564.9302,-81.4032 1569.0231,-71.6309 1559.7294,-76.7179 1564.9302,-81.4032"/>
</g>
<!-- version -->
<g id="node28" class="node">
<title>version</title>
<g id="a_node28"><a xlink:href="version.md" xlink:title="version.md">
<polygon fill="#98fb98" stroke="#000000" points="1972.7279,-575.8581 1972.7279,-596.1419 1933.9768,-610.4846 1879.1745,-610.4846 1840.4233,-596.1419 1840.4233,-575.8581 1879.1745,-561.5154 1933.9768,-561.5154 1972.7279,-575.8581"/>
<polygon fill="none" stroke="#000000" points="1976.7178,-573.0721 1976.7178,-598.9279 1934.69,-614.4835 1878.4613,-614.4835 1836.4335,-598.9279 1836.4335,-573.0721 1878.4613,-557.5165 1934.69,-557.5165 1976.7178,-573.0721"/>
<text text-anchor="middle" x="1906.5756" y="-578.8" font-family="Times,serif" font-size="24.00" fill="#000000">version</text>
</a>
</g>
</g>
<!-- variables&#45;&gt;version -->
<g id="edge50" class="edge">
<title>variables&#45;&gt;version</title>
<path fill="none" stroke="#000000" d="M1590.4232,-708.2689C1655.1517,-683.2358 1773.4567,-637.4825 1845.5533,-609.5998"/>
<polygon fill="#000000" stroke="#000000" points="1846.9115,-612.8272 1854.9758,-605.9557 1844.3865,-606.2985 1846.9115,-612.8272"/>
</g>
<!-- vartypes&#45;&gt;warnings -->
<g id="edge43" class="edge">
<title>vartypes&#45;&gt;warnings</title>
<path fill="none" stroke="#000000" d="M2343.5642,-423.2753C2320.7283,-401.5902 2284.8573,-367.1854 2254.5756,-336.6274 2235.0464,-316.9199 2236.0171,-304.5025 2211.5756,-291.3726 2120.5185,-242.4568 1823.2916,-206.1353 1678.8351,-190.8974"/>
<polygon fill="#000000" stroke="#000000" points="1679.0132,-187.397 1668.7032,-189.8368 1678.2844,-194.3589 1679.0132,-187.397"/>
</g>
<!-- vartypes&#45;&gt;opresultwarn -->
<g id="edge44" class="edge">
<title>vartypes&#45;&gt;opresultwarn</title>
<path fill="none" stroke="#000000" d="M2366.0531,-422.1815C2365.5785,-401.4579 2364.8727,-370.6377 2364.3357,-347.1889"/>
<polygon fill="#000000" stroke="#000000" points="2367.8304,-346.9137 2364.1023,-336.9965 2360.8322,-347.0741 2367.8304,-346.9137"/>
</g>
<!-- vartypes&#45;&gt;messages -->
<g id="edge42" class="edge">
<title>vartypes&#45;&gt;messages</title>
<path fill="none" stroke="#000000" d="M2398.3674,-424.7243C2440.2371,-395.427 2504.9673,-339.4888 2472.5756,-291.3726 2384.6577,-160.7751 1902.4933,-82.8363 1694.3287,-54.8357"/>
<polygon fill="#000000" stroke="#000000" points="1694.6999,-51.3543 1684.3246,-53.5001 1693.7735,-58.2927 1694.6999,-51.3543"/>
</g>
<!-- codefile -->
<g id="node12" class="node">
<title>codefile</title>
<g id="a_node12"><a xlink:href="codefile.md" xlink:title="codefile.md">
<ellipse fill="#eee8aa" stroke="#000000" cx="1188.5756" cy="-1102" rx="65.069" ry="22.7556"/>
<text text-anchor="middle" x="1188.5756" y="-1094.8" font-family="Times,serif" font-size="24.00" fill="#000000">codefile</text>
</a>
</g>
</g>
<!-- codefile&#45;&gt;env -->
<g id="edge108" class="edge">
<title>codefile&#45;&gt;env</title>
<path fill="none" stroke="#000000" d="M1125.2325,-1096.2367C1007.6261,-1084.4067 761.4825,-1053.9966 695.5756,-1001.6274 617.2399,-939.3823 585.7582,-817.5225 574.7466,-758.9615"/>
<polygon fill="#000000" stroke="#000000" points="578.1331,-758.0168 572.9221,-748.7921 571.2431,-759.2531 578.1331,-758.0168"/>
</g>
<!-- codefile&#45;&gt;variables -->
<g id="edge113" class="edge">
<title>codefile&#45;&gt;variables</title>
<path fill="none" stroke="#000000" d="M1208.9944,-1080.4341C1269.4359,-1016.597 1447.5319,-828.4956 1516.6809,-755.4618"/>
<polygon fill="#000000" stroke="#000000" points="1519.461,-757.6162 1523.7948,-747.9483 1514.3779,-752.8035 1519.461,-757.6162"/>
</g>
<!-- codefile&#45;&gt;vartypes -->
<g id="edge114" class="edge">
<title>codefile&#45;&gt;vartypes</title>
<path fill="none" stroke="#000000" d="M1253.825,-1100.497C1475.7374,-1094.7704 2191.6339,-1071.0237 2265.5756,-1001.6274 2411.2793,-864.8806 2293.4132,-752.8326 2335.5756,-557.5083 2341.4701,-530.2013 2350.0079,-499.6716 2356.6317,-477.3123"/>
<polygon fill="#000000" stroke="#000000" points="2360.0078,-478.2388 2359.524,-467.655 2353.3021,-476.2304 2360.0078,-478.2388"/>
</g>
<!-- codefile&#45;&gt;readlines -->
<g id="edge111" class="edge">
<title>codefile&#45;&gt;readlines</title>
<path fill="none" stroke="#000000" d="M1126.4687,-1095.1608C1017.0532,-1079.3879 792.3753,-1029.4811 695.5756,-879.6274 625.9624,-771.8605 799.6728,-663.6647 896.2348,-614.0519"/>
<polygon fill="#000000" stroke="#000000" points="897.9956,-617.0833 905.3279,-609.4355 894.8268,-610.8416 897.9956,-617.0833"/>
</g>
<!-- codefile&#45;&gt;warnings -->
<g id="edge115" class="edge">
<title>codefile&#45;&gt;warnings</title>
<path fill="none" stroke="#000000" d="M1131.757,-1090.7197C1012.1063,-1063.8025 749.5436,-986.4287 804.5756,-834.3726 831.5171,-759.9321 859.2704,-749.9499 918.5756,-697.5083 969.6507,-652.3443 1000.5703,-663.8774 1047.5756,-614.4917 1082.5773,-577.7176 1129.5073,-455.8666 1161.5756,-416.5083 1214.5002,-351.5527 1230.6426,-334.3363 1302.5756,-291.3726 1375.6028,-247.7554 1469.0714,-217.1523 1531.2372,-199.8394"/>
<polygon fill="#000000" stroke="#000000" points="1532.2219,-203.1987 1540.9377,-197.175 1530.3678,-196.4486 1532.2219,-203.1987"/>
</g>
<!-- codefile&#45;&gt;opresultwarn -->
<g id="edge110" class="edge">
<title>codefile&#45;&gt;opresultwarn</title>
<path fill="none" stroke="#000000" d="M1252.7176,-1097.9275C1458.538,-1083.4562 2096.5486,-1027.2441 2227.5756,-879.6274 2365.3929,-724.3609 2211.3175,-609.2062 2288.5756,-416.5083 2299.3941,-389.5247 2318.9606,-363.1472 2335.3957,-343.9079"/>
<polygon fill="#000000" stroke="#000000" points="2338.0312,-346.211 2341.9795,-336.3793 2332.7619,-341.6029 2338.0312,-346.211"/>
</g>
<!-- codefile&#45;&gt;messages -->
<g id="edge109" class="edge">
<title>codefile&#45;&gt;messages</title>
<path fill="none" stroke="#000000" d="M1123.6693,-1099.6453C1019.6844,-1093.7696 811.2337,-1073.2489 651.5756,-1001.6274 450.0655,-911.2314 447.6348,-811.6765 258.5756,-697.5083 182.4695,-651.5496 131.616,-684.3123 76.5756,-614.4917 29.0647,-554.2225 43.5756,-521.7442 43.5756,-445 43.5756,-445 43.5756,-445 43.5756,-314 43.5756,-241.9525 18.9809,-202.6585 72.5756,-154.5083 125.9354,-106.5691 1175.9128,-60.1325 1502.4905,-46.8003"/>
<polygon fill="#000000" stroke="#000000" points="1503.0218,-50.2816 1512.8712,-46.3777 1502.7371,-43.2874 1503.0218,-50.2816"/>
</g>
<!-- runCommand -->
<g id="node34" class="node">
<title>runCommand</title>
<g id="a_node34"><a xlink:href="runCommand.md" xlink:title="runCommand.md">
<ellipse fill="#eee8aa" stroke="#000000" cx="1635.5756" cy="-979" rx="104.7872" ry="22.7556"/>
<text text-anchor="middle" x="1635.5756" y="-971.8" font-family="Times,serif" font-size="24.00" fill="#000000">runCommand</text>
</a>
</g>
</g>
<!-- codefile&#45;&gt;runCommand -->
<g id="edge112" class="edge">
<title>codefile&#45;&gt;runCommand</title>
<path fill="none" stroke="#000000" d="M1239.8522,-1087.8903C1318.7311,-1066.1854 1470.2281,-1024.4983 1561.1718,-999.4736"/>
<polygon fill="#000000" stroke="#000000" points="1562.1523,-1002.8339 1570.8653,-996.8062 1560.2951,-996.0848 1562.1523,-1002.8339"/>
</g>
<!-- replacement -->
<g id="node13" class="node">
<title>replacement</title>
<g id="a_node13"><a xlink:href="replacement.md" xlink:title="replacement.md">
<ellipse fill="#eee8aa" stroke="#000000" cx="1217.5756" cy="-857" rx="94.4556" ry="22.7556"/>
<text text-anchor="middle" x="1217.5756" y="-849.8" font-family="Times,serif" font-size="24.00" fill="#000000">replacement</text>
</a>
</g>
</g>
<!-- replacement&#45;&gt;parseNumber -->
<g id="edge104" class="edge">
<title>replacement&#45;&gt;parseNumber</title>
<path fill="none" stroke="#000000" d="M1288.3657,-842.0435C1382.0314,-822.2168 1552.2682,-786.0539 1697.5756,-754.4917 1707.6816,-752.2966 1718.2295,-749.9909 1728.7502,-747.6816"/>
<polygon fill="#000000" stroke="#000000" points="1729.7977,-751.035 1738.8133,-745.4699 1728.2951,-744.1981 1729.7977,-751.035"/>
</g>
<!-- replacement&#45;&gt;regexes -->
<g id="edge95" class="edge">
<title>replacement&#45;&gt;regexes</title>
<path fill="none" stroke="#000000" d="M1229.8658,-834.4676C1251.9083,-792.6267 1297.372,-699.4469 1313.5756,-614.4917 1322.1533,-569.5191 1310.0462,-517.6022 1298.9591,-483.2011"/>
<polygon fill="#000000" stroke="#000000" points="1302.2212,-481.92 1295.7265,-473.5492 1295.5835,-484.1431 1302.2212,-481.92"/>
</g>
<!-- replacement&#45;&gt;parseCmdLine -->
<g id="edge98" class="edge">
<title>replacement&#45;&gt;parseCmdLine</title>
<path fill="none" stroke="#000000" d="M1188.0174,-835.368C1157.5342,-813.0591 1109.8816,-778.1848 1076.607,-753.833"/>
<polygon fill="#000000" stroke="#000000" points="1078.6132,-750.9641 1068.4764,-747.8827 1074.4791,-756.6129 1078.6132,-750.9641"/>
</g>
<!-- replacement&#45;&gt;env -->
<g id="edge96" class="edge">
<title>replacement&#45;&gt;env</title>
<path fill="none" stroke="#000000" d="M1145.4405,-842.4171C1010.5767,-815.153 723.9424,-757.2069 613.8848,-734.9576"/>
<polygon fill="#000000" stroke="#000000" points="614.2916,-731.4691 603.7963,-732.9181 612.9045,-738.3303 614.2916,-731.4691"/>
</g>
<!-- replacement&#45;&gt;variables -->
<g id="edge102" class="edge">
<title>replacement&#45;&gt;variables</title>
<path fill="none" stroke="#000000" d="M1266.1777,-837.5294C1326.2533,-813.4625 1428.1766,-772.6308 1490.6206,-747.615"/>
<polygon fill="#000000" stroke="#000000" points="1491.9329,-750.8598 1499.9141,-743.8919 1489.3297,-744.3618 1491.9329,-750.8598"/>
</g>
<!-- replacement&#45;&gt;tempFile -->
<g id="edge103" class="edge">
<title>replacement&#45;&gt;tempFile</title>
<path fill="none" stroke="#000000" d="M1137.8781,-844.9233C1070.0906,-831.6027 972.7049,-804.9935 901.5756,-754.4917 853.0472,-720.0366 814.6768,-661.7093 793.0433,-623.5249"/>
<polygon fill="#000000" stroke="#000000" points="796.0845,-621.7919 788.1664,-614.7524 789.9663,-625.1932 796.0845,-621.7919"/>
</g>
<!-- replacement&#45;&gt;vartypes -->
<g id="edge97" class="edge">
<title>replacement&#45;&gt;vartypes</title>
<path fill="none" stroke="#000000" d="M1305.0888,-848.5473C1391.4212,-837.2091 1524.8596,-811.4462 1626.5756,-754.4917 1735.7121,-693.3823 1717.245,-616.4343 1827.5756,-557.5083 1907.5179,-514.8122 2164.7382,-473.6413 2292.7655,-455.1598"/>
<polygon fill="#000000" stroke="#000000" points="2293.4752,-458.5939 2302.8765,-453.7086 2292.4807,-451.6649 2293.4752,-458.5939"/>
</g>
<!-- replacement&#45;&gt;readlines -->
<g id="edge99" class="edge">
<title>replacement&#45;&gt;readlines</title>
<path fill="none" stroke="#000000" d="M1145.3704,-842.2859C1065.7643,-824.426 945.3685,-792.001 918.5756,-754.4917 890.8932,-715.7371 911.8799,-660.114 931.7524,-623.5336"/>
<polygon fill="#000000" stroke="#000000" points="934.8895,-625.0958 936.7504,-614.6656 928.7914,-621.6588 934.8895,-625.0958"/>
</g>
<!-- replacement&#45;&gt;opresultwarn -->
<g id="edge105" class="edge">
<title>replacement&#45;&gt;opresultwarn</title>
<path fill="none" stroke="#000000" d="M1234.8469,-834.5205C1298.5941,-752.1781 1522.1479,-469.0998 1622.5756,-416.5083 1730.4267,-360.0293 2077.7466,-331.2956 2255.9314,-319.9608"/>
<polygon fill="#000000" stroke="#000000" points="2256.3538,-323.4412 2266.1143,-319.3203 2255.9143,-316.455 2256.3538,-323.4412"/>
</g>
<!-- replacement&#45;&gt;messages -->
<g id="edge101" class="edge">
<title>replacement&#45;&gt;messages</title>
<path fill="none" stroke="#000000" d="M1155.34,-839.9529C1023.4239,-803.9158 719.2339,-721.3519 614.5756,-697.5083 423.5216,-653.9816 316.7139,-756.3855 181.5756,-614.4917 129.1056,-559.3988 157.5756,-521.0811 157.5756,-445 157.5756,-445 157.5756,-445 157.5756,-314 157.5756,-285.5106 104.885,-254.3083 395.5756,-154.5083 600.052,-84.3073 1255.269,-54.8602 1502.7276,-46.0529"/>
<polygon fill="#000000" stroke="#000000" points="1502.9102,-49.5487 1512.7807,-45.6985 1502.6635,-42.5531 1502.9102,-49.5487"/>
</g>
<!-- replacement&#45;&gt;matches -->
<g id="edge100" class="edge">
<title>replacement&#45;&gt;matches</title>
<path fill="none" stroke="#000000" d="M1219.2464,-834.3608C1222.7832,-786.4378 1231.0384,-674.58 1235.1538,-618.816"/>
<polygon fill="#000000" stroke="#000000" points="1238.6499,-618.9959 1235.8955,-608.7653 1231.6689,-618.4806 1238.6499,-618.9959"/>
</g>
<!-- funtypes&#45;&gt;vartypes -->
<g id="edge56" class="edge">
<title>funtypes&#45;&gt;vartypes</title>
<path fill="none" stroke="#000000" d="M2466.9819,-563.9688C2446.7217,-539.963 2414.197,-501.4254 2391.6807,-474.7463"/>
<polygon fill="#000000" stroke="#000000" points="2394.1633,-472.2612 2385.0388,-466.8765 2388.8138,-476.7761 2394.1633,-472.2612"/>
</g>
<!-- funtypes&#45;&gt;warnings -->
<g id="edge58" class="edge">
<title>funtypes&#45;&gt;warnings</title>
<path fill="none" stroke="#000000" d="M2493.2032,-563.1614C2509.9515,-508.2473 2543.1,-367.7215 2472.5756,-291.3726 2419.3319,-233.7315 1889.4703,-198.8474 1681.6207,-187.2879"/>
<polygon fill="#000000" stroke="#000000" points="1681.5509,-183.7788 1671.3732,-186.7224 1681.1651,-190.7682 1681.5509,-183.7788"/>
</g>
<!-- funtypes&#45;&gt;messages -->
<g id="edge57" class="edge">
<title>funtypes&#45;&gt;messages</title>
<path fill="none" stroke="#000000" d="M2496.7546,-563.4126C2507.0953,-541.1682 2521.7221,-505.9094 2527.5756,-473.4917 2542.2523,-392.2108 2538.5327,-358.6193 2490.5756,-291.3726 2429.7291,-206.052 2395.5556,-194.217 2298.5756,-154.5083 2190.7925,-110.3761 1859.6989,-70.5435 1694.4539,-52.78"/>
<polygon fill="#000000" stroke="#000000" points="1694.6118,-49.277 1684.2962,-51.6934 1693.8672,-56.2373 1694.6118,-49.277"/>
</g>
<!-- warnings&#45;&gt;messages -->
<g id="edge2" class="edge">
<title>warnings&#45;&gt;messages</title>
<path fill="none" stroke="#ff0000" d="M1598.5756,-160.195C1598.5756,-139.0425 1598.5756,-107.1279 1598.5756,-81.9419"/>
<polygon fill="#ff0000" stroke="#ff0000" points="1602.0757,-81.6107 1598.5756,-71.6108 1595.0757,-81.6108 1602.0757,-81.6107"/>
</g>
<!-- collectCommand -->
<g id="node18" class="node">
<title>collectCommand</title>
<g id="a_node18"><a xlink:href="collectCommand.md" xlink:title="collectCommand.md">
<ellipse fill="#eee8aa" stroke="#000000" cx="940.5756" cy="-857" rx="127.4982" ry="22.7556"/>
<text text-anchor="middle" x="940.5756" y="-849.8" font-family="Times,serif" font-size="24.00" fill="#000000">collectCommand</text>
</a>
</g>
</g>
<!-- collectCommand&#45;&gt;parseCmdLine -->
<g id="edge34" class="edge">
<title>collectCommand&#45;&gt;parseCmdLine</title>
<path fill="none" stroke="#000000" d="M957.4224,-834.4803C973.4793,-813.0165 997.7836,-780.5281 1015.6097,-756.6994"/>
<polygon fill="#000000" stroke="#000000" points="1018.433,-758.7682 1021.6207,-748.6642 1012.8279,-754.575 1018.433,-758.7682"/>
</g>
<!-- collectCommand&#45;&gt;env -->
<g id="edge31" class="edge">
<title>collectCommand&#45;&gt;env</title>
<path fill="none" stroke="#000000" d="M883.0139,-836.675C807.5133,-810.0157 676.8815,-763.8897 610.6395,-740.4997"/>
<polygon fill="#000000" stroke="#000000" points="611.558,-737.1122 600.9632,-737.0829 609.2273,-743.7128 611.558,-737.1122"/>
</g>
<!-- collectCommand&#45;&gt;readlines -->
<g id="edge33" class="edge">
<title>collectCommand&#45;&gt;readlines</title>
<path fill="none" stroke="#000000" d="M924.1595,-834.3387C910.8087,-814.4181 893.009,-784.0685 885.5756,-754.4917 879.4025,-729.9296 878.5696,-721.8459 885.5756,-697.5083 893.4116,-670.2874 910.0647,-643.2903 925.1622,-622.6792"/>
<polygon fill="#000000" stroke="#000000" points="928.0709,-624.6347 931.2868,-614.5397 922.4775,-620.4259 928.0709,-624.6347"/>
</g>
<!-- collectCommand&#45;&gt;opresultwarn -->
<g id="edge36" class="edge">
<title>collectCommand&#45;&gt;opresultwarn</title>
<path fill="none" stroke="#000000" d="M996.8221,-836.6106C1048.5243,-817.2866 1126.8781,-786.5231 1192.5756,-754.4917 1463.8636,-622.2233 1497.8164,-519.3325 1781.5756,-416.5083 1941.7326,-358.4731 2138.9609,-332.5981 2257.8029,-321.5793"/>
<polygon fill="#000000" stroke="#000000" points="2258.3494,-325.0441 2267.9915,-320.6533 2257.7157,-318.0729 2258.3494,-325.0441"/>
</g>
<!-- collectCommand&#45;&gt;messages -->
<g id="edge35" class="edge">
<title>collectCommand&#45;&gt;messages</title>
<path fill="none" stroke="#000000" d="M860.2596,-839.4438C776.0576,-820.518 640.1761,-788.5024 524.5756,-754.4917 449.7435,-732.4754 432.4498,-722.5518 358.5756,-697.5083 248.4954,-660.1907 186.2188,-702.7436 110.5756,-614.4917 60.8398,-556.4656 81.5756,-521.4244 81.5756,-445 81.5756,-445 81.5756,-445 81.5756,-314 81.5756,-242.1062 55.431,-202.9269 108.5756,-154.5083 160.2377,-107.4404 1181.0932,-60.5859 1502.5319,-46.9495"/>
<polygon fill="#000000" stroke="#000000" points="1502.9106,-50.4367 1512.7537,-46.517 1502.6147,-43.4429 1502.9106,-50.4367"/>
</g>
<!-- collectCommand&#45;&gt;matches -->
<g id="edge32" class="edge">
<title>collectCommand&#45;&gt;matches</title>
<path fill="none" stroke="#000000" d="M1010.0684,-838.0242C1056.9713,-822.2115 1117.5658,-795.5471 1158.5756,-754.4917 1196.8724,-716.1524 1218.8987,-655.722 1229.5351,-618.607"/>
<polygon fill="#000000" stroke="#000000" points="1232.9565,-619.3651 1232.2371,-608.7947 1226.2077,-617.5066 1232.9565,-619.3651"/>
</g>
<!-- runner -->
<g id="node19" class="node">
<title>runner</title>
<g id="a_node19"><a xlink:href="runner.md" xlink:title="runner.md">
<polygon fill="#98fb98" stroke="#000000" points="1459.9364,-1362.8581 1459.9364,-1383.1419 1424.5779,-1397.4846 1374.5734,-1397.4846 1339.2148,-1383.1419 1339.2148,-1362.8581 1374.5734,-1348.5154 1424.5779,-1348.5154 1459.9364,-1362.8581"/>
<polygon fill="none" stroke="#000000" points="1463.9481,-1360.1681 1463.9481,-1385.8319 1425.3629,-1401.4835 1373.7884,-1401.4835 1335.2032,-1385.8319 1335.2032,-1360.1681 1373.7884,-1344.5165 1425.3629,-1344.5165 1463.9481,-1360.1681"/>
<text text-anchor="middle" x="1399.5756" y="-1365.8" font-family="Times,serif" font-size="24.00" fill="#000000">runner</text>
</a>
</g>
</g>
<!-- statictea -->
<g id="node20" class="node">
<title>statictea</title>
<g id="a_node20"><a xlink:href="statictea.md" xlink:title="statictea.md">
<polygon fill="#eee8aa" stroke="#000000" points="1151.6714,-1364.3667 1234.5756,-1345.0619 1317.4799,-1364.3667 1317.4025,-1395.6024 1151.7488,-1395.6024 1151.6714,-1364.3667"/>
<text text-anchor="middle" x="1234.5756" y="-1365.8" font-family="Times,serif" font-size="24.00" fill="#000000">statictea</text>
</a>
</g>
</g>
<!-- statictea&#45;&gt;env -->
<g id="edge122" class="edge">
<title>statictea&#45;&gt;env</title>
<path fill="none" stroke="#000000" d="M1156.2036,-1363.1852C956.3873,-1335.986 443.5756,-1251.608 443.5756,-1102 443.5756,-1102 443.5756,-1102 443.5756,-979 443.5756,-888.9214 508.3665,-797.9351 545.0269,-753.6626"/>
<polygon fill="#000000" stroke="#000000" points="547.7576,-755.8535 551.5229,-745.9503 542.4037,-751.344 547.7576,-755.8535"/>
</g>
<!-- gethelp -->
<g id="node21" class="node">
<title>gethelp</title>
<g id="a_node21"><a xlink:href="gethelp.md" xlink:title="gethelp.md">
<polygon fill="#98fb98" stroke="#000000" points="354.7105,-1222.8581 354.7105,-1243.1419 315.9696,-1257.4846 261.1817,-1257.4846 222.4407,-1243.1419 222.4407,-1222.8581 261.1817,-1208.5154 315.9696,-1208.5154 354.7105,-1222.8581"/>
<polygon fill="none" stroke="#000000" points="358.6999,-1220.0722 358.6999,-1245.9278 316.6828,-1261.4835 260.4685,-1261.4835 218.4514,-1245.9278 218.4514,-1220.0722 260.4685,-1204.5165 316.6828,-1204.5165 358.6999,-1220.0722"/>
<text text-anchor="middle" x="288.5756" y="-1225.8" font-family="Times,serif" font-size="24.00" fill="#000000">gethelp</text>
</a>
</g>
</g>
<!-- statictea&#45;&gt;gethelp -->
<g id="edge120" class="edge">
<title>statictea&#45;&gt;gethelp</title>
<path fill="none" stroke="#000000" d="M1151.5994,-1367.7609C996.781,-1356.7778 654.0814,-1326.7597 372.5756,-1261.4917 365.4593,-1259.8418 358.096,-1257.825 350.8216,-1255.634"/>
<polygon fill="#000000" stroke="#000000" points="351.5777,-1252.2032 340.9887,-1252.5563 349.4867,-1258.8837 351.5777,-1252.2032"/>
</g>
<!-- statictea&#45;&gt;args -->
<g id="edge118" class="edge">
<title>statictea&#45;&gt;args</title>
<path fill="none" stroke="#000000" d="M1151.5773,-1365.7989C991.273,-1350.9031 645.4454,-1313.6817 538.5756,-1261.4917 458.3627,-1222.3197 427.2028,-1206.4765 391.5756,-1124.6274 313.1604,-944.4779 439.6998,-882.6114 505.5756,-697.5083 516.8665,-665.7822 538.8011,-580.3172 563.5756,-557.5083 649.3425,-478.5462 790.7983,-454.9915 865.2458,-447.9729"/>
<polygon fill="#000000" stroke="#000000" points="865.6387,-451.4519 875.2931,-447.0882 865.0247,-444.4789 865.6387,-451.4519"/>
</g>
<!-- statictea&#45;&gt;opresultwarn -->
<g id="edge123" class="edge">
<title>statictea&#45;&gt;opresultwarn</title>
<path fill="none" stroke="#000000" d="M1282.8141,-1356.1174C1296.7869,-1351.7593 1312.1622,-1347.4677 1326.5756,-1344.5083 1672.4053,-1273.5 1766.1259,-1304.2159 2116.5756,-1261.4917 2372.4625,-1230.2959 3265.5756,-1359.7815 3265.5756,-1102 3265.5756,-1102 3265.5756,-1102 3265.5756,-726 3265.5756,-632.2249 3212.5007,-615.2045 3138.5756,-557.5083 2935.1353,-398.7293 2626.573,-342.5236 2467.1042,-323.3783"/>
<polygon fill="#000000" stroke="#000000" points="2467.1586,-319.8607 2456.8186,-322.1701 2466.342,-326.8129 2467.1586,-319.8607"/>
</g>
<!-- statictea&#45;&gt;messages -->
<g id="edge119" class="edge">
<title>statictea&#45;&gt;messages</title>
<path fill="none" stroke="#000000" d="M1281.7863,-1356.016C1296.0079,-1351.5452 1311.7732,-1347.219 1326.5756,-1344.5083 1913.076,-1237.1028 2075.2218,-1345.1632 2665.5756,-1261.4917 2954.965,-1220.4763 3303.5756,-1394.2815 3303.5756,-1102 3303.5756,-1102 3303.5756,-1102 3303.5756,-314 3303.5756,-200.6548 3210.0537,-195.9993 3104.5756,-154.5083 2973.8177,-103.073 2005.9594,-59.5866 1694.6925,-46.8055"/>
<polygon fill="#000000" stroke="#000000" points="1694.4775,-43.2939 1684.3427,-46.3819 1694.1912,-50.288 1694.4775,-43.2939"/>
</g>
<!-- statictea&#45;&gt;version -->
<g id="edge121" class="edge">
<title>statictea&#45;&gt;version</title>
<path fill="none" stroke="#000000" d="M1285.9673,-1356.9108C1452.9594,-1304.2743 1969.5756,-1138.4866 1969.5756,-1102 1969.5756,-1102 1969.5756,-1102 1969.5756,-857 1969.5756,-785.6136 1968.0433,-766.7246 1950.5756,-697.5083 1944.2164,-672.3097 1933.5917,-645.162 1924.376,-623.9625"/>
<polygon fill="#000000" stroke="#000000" points="1927.5102,-622.396 1920.2613,-614.6691 1921.1095,-625.23 1927.5102,-622.396"/>
</g>
<!-- timer -->
<g id="node30" class="node">
<title>timer</title>
<g id="a_node30"><a xlink:href="timer.md" xlink:title="timer.md">
<polygon fill="#98fb98" stroke="#000000" points="2103.5959,-1222.8581 2103.5959,-1243.1419 2073.7089,-1257.4846 2031.4424,-1257.4846 2001.5554,-1243.1419 2001.5554,-1222.8581 2031.4424,-1208.5154 2073.7089,-1208.5154 2103.5959,-1222.8581"/>
<polygon fill="none" stroke="#000000" points="2107.5966,-1220.3422 2107.5966,-1245.6578 2074.6196,-1261.4835 2030.5317,-1261.4835 1997.5546,-1245.6578 1997.5546,-1220.3422 2030.5317,-1204.5165 2074.6196,-1204.5165 2107.5966,-1220.3422"/>
<text text-anchor="middle" x="2052.5756" y="-1225.8" font-family="Times,serif" font-size="24.00" fill="#000000">timer</text>
</a>
</g>
</g>
<!-- statictea&#45;&gt;timer -->
<g id="edge124" class="edge">
<title>statictea&#45;&gt;timer</title>
<path fill="none" stroke="#000000" d="M1283.3322,-1356.1642C1297.1778,-1351.8592 1312.3575,-1347.5835 1326.5756,-1344.5083 1614.2456,-1282.2883 1699.0437,-1336.7705 1983.5756,-1261.4917 1989.3547,-1259.9628 1995.2913,-1258.0598 2001.1409,-1255.9673"/>
<polygon fill="#000000" stroke="#000000" points="2002.7402,-1259.1048 2010.8603,-1252.2993 2000.2686,-1252.5556 2002.7402,-1259.1048"/>
</g>
<!-- parseCommandLine -->
<g id="node31" class="node">
<title>parseCommandLine</title>
<g id="a_node31"><a xlink:href="parseCommandLine.md" xlink:title="parseCommandLine.md">
<ellipse fill="#eee8aa" stroke="#000000" cx="372.5756" cy="-586" rx="148.8522" ry="22.7556"/>
<text text-anchor="middle" x="372.5756" y="-578.8" font-family="Times,serif" font-size="24.00" fill="#000000">parseCommandLine</text>
</a>
</g>
</g>
<!-- statictea&#45;&gt;parseCommandLine -->
<g id="edge12" class="edge">
<title>statictea&#45;&gt;parseCommandLine</title>
<path fill="none" stroke="#000000" d="M1151.5864,-1369.8101C919.4676,-1360.0908 276.166,-1327.4058 209.5756,-1261.4917 158.8408,-1211.2722 190.5756,-1173.3864 190.5756,-1102 190.5756,-1102 190.5756,-1102 190.5756,-857 190.5756,-753.7684 282.7154,-660.2426 335.8761,-614.8732"/>
<polygon fill="#000000" stroke="#000000" points="338.3299,-617.3831 343.7372,-608.272 333.8283,-612.0224 338.3299,-617.3831"/>
</g>
<!-- processTemplate -->
<g id="node32" class="node">
<title>processTemplate</title>
<g id="a_node32"><a xlink:href="processTemplate.md" xlink:title="processTemplate.md">
<ellipse fill="#eee8aa" stroke="#000000" cx="1234.5756" cy="-1233" rx="125.2054" ry="22.7556"/>
<text text-anchor="middle" x="1234.5756" y="-1225.8" font-family="Times,serif" font-size="24.00" fill="#000000">processTemplate</text>
</a>
</g>
</g>
<!-- statictea&#45;&gt;processTemplate -->
<g id="edge117" class="edge">
<title>statictea&#45;&gt;processTemplate</title>
<path fill="none" stroke="#000000" d="M1234.5756,-1345.0054C1234.5756,-1322.2062 1234.5756,-1289.9729 1234.5756,-1265.9348"/>
<polygon fill="#000000" stroke="#000000" points="1238.0757,-1265.8587 1234.5756,-1255.8587 1231.0757,-1265.8588 1238.0757,-1265.8587"/>
</g>
<!-- comparelines -->
<g id="node22" class="node">
<title>comparelines</title>
<g id="a_node22"><a xlink:href="comparelines.md" xlink:title="comparelines.md">
<polygon fill="#98fb98" stroke="#000000" points="1705.9118,-1362.8581 1705.9118,-1383.1419 1641.2784,-1397.4846 1549.8729,-1397.4846 1485.2394,-1383.1419 1485.2394,-1362.8581 1549.8729,-1348.5154 1641.2784,-1348.5154 1705.9118,-1362.8581"/>
<polygon fill="none" stroke="#000000" points="1709.9178,-1359.6506 1709.9178,-1386.3494 1641.7183,-1401.4835 1549.433,-1401.4835 1481.2334,-1386.3494 1481.2334,-1359.6506 1549.433,-1344.5165 1641.7183,-1344.5165 1709.9178,-1359.6506"/>
<text text-anchor="middle" x="1595.5756" y="-1365.8" font-family="Times,serif" font-size="24.00" fill="#000000">comparelines</text>
</a>
</g>
</g>
<!-- signatures&#45;&gt;vartypes -->
<g id="edge76" class="edge">
<title>signatures&#45;&gt;vartypes</title>
<path fill="none" stroke="#000000" d="M2445.673,-703.4755C2434.356,-681.3266 2417.4862,-646.3077 2406.5756,-614.4917 2390.6217,-567.969 2378.792,-512.1334 2372.287,-477.6054"/>
<polygon fill="#000000" stroke="#000000" points="2375.6986,-476.8057 2370.4405,-467.6078 2368.815,-478.0771 2375.6986,-476.8057"/>
</g>
<!-- signatures&#45;&gt;funtypes -->
<g id="edge77" class="edge">
<title>signatures&#45;&gt;funtypes</title>
<path fill="none" stroke="#000000" d="M2462.1366,-703.195C2466.7129,-680.3137 2473.8078,-644.8393 2478.9935,-618.9108"/>
<polygon fill="#000000" stroke="#000000" points="2482.4874,-619.2875 2481.0166,-608.7952 2475.6233,-617.9146 2482.4874,-619.2875"/>
</g>
<!-- signatures&#45;&gt;messages -->
<g id="edge78" class="edge">
<title>signatures&#45;&gt;messages</title>
<path fill="none" stroke="#000000" d="M2482.4925,-704.4387C2505.864,-683.2717 2540.6985,-649.1941 2564.5756,-614.4917 2627.2655,-523.3801 2828.9294,-236.3793 2754.5756,-154.5083 2683.8046,-76.5821 1959.218,-51.5892 1694.6271,-45.025"/>
<polygon fill="#000000" stroke="#000000" points="1694.3541,-41.5174 1684.2715,-44.7717 1694.1829,-48.5153 1694.3541,-41.5174"/>
</g>
<!-- args&#45;&gt;warnings -->
<g id="edge3" class="edge">
<title>args&#45;&gt;warnings</title>
<path fill="none" stroke="#000000" d="M922.4077,-422.8158C935.686,-388.6707 966.0064,-323.7958 1014.5756,-291.3726 1095.8414,-237.1221 1376.8175,-203.8038 1517.2943,-190.1558"/>
<polygon fill="#000000" stroke="#000000" points="1517.9521,-193.6088 1527.5713,-189.1681 1517.2823,-186.6409 1517.9521,-193.6088"/>
</g>
<!-- args&#45;&gt;opresultwarn -->
<g id="edge6" class="edge">
<title>args&#45;&gt;opresultwarn</title>
<path fill="none" stroke="#000000" d="M953.3619,-441.0502C1008.8177,-435.4316 1113.9722,-424.884 1203.5756,-416.5083 1593.2982,-380.0786 2057.0107,-340.1208 2259.8966,-322.8074"/>
<polygon fill="#000000" stroke="#000000" points="2260.281,-326.2874 2269.9473,-321.95 2259.686,-319.3127 2260.281,-326.2874"/>
</g>
<!-- args&#45;&gt;messages -->
<g id="edge1" class="edge">
<title>args&#45;&gt;messages</title>
<path fill="none" stroke="#000000" d="M908.3004,-422.5309C894.7115,-368.4962 869.0862,-230.1658 938.5756,-154.5083 1012.973,-73.5072 1338.1832,-51.3275 1502.6291,-45.2685"/>
<polygon fill="#000000" stroke="#000000" points="1502.8738,-48.7621 1512.7431,-44.9087 1502.6249,-41.7665 1502.8738,-48.7621"/>
</g>
<!-- opresultwarn&#45;&gt;warnings -->
<g id="edge4" class="edge">
<title>opresultwarn&#45;&gt;warnings</title>
<path fill="none" stroke="#000000" d="M2289.1325,-298.879C2275.9674,-296.3035 2262.379,-293.7083 2249.5756,-291.3726 2041.8197,-253.471 1795.7572,-213.9679 1674.2479,-194.8172"/>
<polygon fill="#000000" stroke="#000000" points="1674.7218,-191.3488 1664.2991,-193.2508 1673.633,-198.2636 1674.7218,-191.3488"/>
</g>
<!-- opresultwarn&#45;&gt;opresult -->
<g id="edge5" class="edge">
<title>opresultwarn&#45;&gt;opresult</title>
<path fill="none" stroke="#000000" d="M2410.5365,-293.9613C2464.1568,-271.081 2552.0019,-233.5966 2610.5494,-208.6138"/>
<polygon fill="#000000" stroke="#000000" points="2612.2201,-211.7063 2620.0441,-204.5623 2609.4728,-205.2679 2612.2201,-211.7063"/>
</g>
<!-- matches&#45;&gt;regexes -->
<g id="edge22" class="edge">
<title>matches&#45;&gt;regexes</title>
<path fill="none" stroke="#000000" d="M1245.127,-563.3459C1252.2972,-541.8353 1263.218,-509.0729 1271.7527,-483.4689"/>
<polygon fill="#000000" stroke="#000000" points="1275.169,-484.2878 1275.0109,-473.6941 1268.5282,-482.0741 1275.169,-484.2878"/>
</g>
<!-- matches&#45;&gt;args -->
<g id="edge21" class="edge">
<title>matches&#45;&gt;args</title>
<path fill="none" stroke="#000000" d="M1196.3394,-567.999C1134.1868,-540.8674 1017.2105,-489.8035 955.338,-462.7941"/>
<polygon fill="#000000" stroke="#000000" points="956.4629,-459.4662 945.8977,-458.6731 953.6623,-465.8816 956.4629,-459.4662"/>
</g>
<!-- readjson -->
<g id="node29" class="node">
<title>readjson</title>
<g id="a_node29"><a xlink:href="readjson.md" xlink:title="readjson.md">
<ellipse fill="#eee8aa" stroke="#000000" cx="2817.5756" cy="-857" rx="68.6102" ry="22.7556"/>
<text text-anchor="middle" x="2817.5756" y="-849.8" font-family="Times,serif" font-size="24.00" fill="#000000">readjson</text>
</a>
</g>
</g>
<!-- readjson&#45;&gt;unicodes -->
<g id="edge85" class="edge">
<title>readjson&#45;&gt;unicodes</title>
<path fill="none" stroke="#000000" d="M2804.5108,-834.4803C2792.1672,-813.2039 2773.539,-781.0948 2759.7493,-757.3257"/>
<polygon fill="#000000" stroke="#000000" points="2762.77,-755.5576 2754.7244,-748.6642 2756.7152,-759.0704 2762.77,-755.5576"/>
</g>
<!-- readjson&#45;&gt;vartypes -->
<g id="edge82" class="edge">
<title>readjson&#45;&gt;vartypes</title>
<path fill="none" stroke="#000000" d="M2854.0328,-837.7468C2940.5169,-789.691 3144.4736,-660.8993 3056.5756,-557.5083 3046.5623,-545.7299 2615.2201,-481.4048 2439.7089,-455.659"/>
<polygon fill="#000000" stroke="#000000" points="2440.1836,-452.1912 2429.7817,-454.2039 2439.1684,-459.1172 2440.1836,-452.1912"/>
</g>
<!-- readjson&#45;&gt;utf8decoder -->
<g id="edge86" class="edge">
<title>readjson&#45;&gt;utf8decoder</title>
<path fill="none" stroke="#000000" d="M2828.1016,-834.3608C2849.7281,-787.8468 2899.3583,-681.1023 2925.9649,-623.8771"/>
<polygon fill="#000000" stroke="#000000" points="2929.1432,-625.3427 2930.1856,-614.7992 2922.7958,-622.3914 2929.1432,-625.3427"/>
</g>
<!-- readjson&#45;&gt;warnings -->
<g id="edge84" class="edge">
<title>readjson&#45;&gt;warnings</title>
<path fill="none" stroke="#000000" d="M2749.5939,-853.0352C2657.9321,-845.2049 2491.9897,-822.1109 2368.5756,-754.4917 2275.0052,-703.2241 2197.5756,-692.6949 2197.5756,-586 2197.5756,-586 2197.5756,-586 2197.5756,-445 2197.5756,-345.773 2122.6087,-339.0301 2035.5756,-291.3726 1921.2518,-228.7712 1770.4528,-201.7426 1679.2005,-190.5054"/>
<polygon fill="#000000" stroke="#000000" points="1679.5395,-187.021 1669.1942,-189.3071 1678.7071,-193.9714 1679.5395,-187.021"/>
</g>
<!-- readjson&#45;&gt;opresultwarn -->
<g id="edge87" class="edge">
<title>readjson&#45;&gt;opresultwarn</title>
<path fill="none" stroke="#000000" d="M2870.5978,-842.3321C2916.5469,-827.1646 2982.0105,-799.3012 3023.5756,-754.4917 3085.5569,-687.6726 3139.1152,-627.3623 3080.5756,-557.5083 2943.4352,-393.8617 2802.0012,-561.7323 2607.5756,-473.4917 2570.7309,-456.7697 2569.8415,-439.5418 2536.5756,-416.5083 2495.7363,-388.2307 2446.8517,-359.7202 2411.4809,-339.9711"/>
<polygon fill="#000000" stroke="#000000" points="2412.7793,-336.6886 2402.3377,-334.8929 2409.3805,-342.8081 2412.7793,-336.6886"/>
</g>
<!-- readjson&#45;&gt;messages -->
<g id="edge83" class="edge">
<title>readjson&#45;&gt;messages</title>
<path fill="none" stroke="#000000" d="M2874.0744,-843.8595C2978.1403,-815.9317 3189.5756,-740.2139 3189.5756,-586 3189.5756,-586 3189.5756,-586 3189.5756,-314 3189.5756,-156.6807 3024.8839,-197.5799 2873.5756,-154.5083 2651.744,-91.3613 1951.221,-57.3005 1694.2727,-46.6786"/>
<polygon fill="#000000" stroke="#000000" points="1694.3494,-43.1789 1684.2142,-46.2655 1694.0621,-50.173 1694.3494,-43.1789"/>
</g>
<!-- parseCommandLine&#45;&gt;regexes -->
<g id="edge10" class="edge">
<title>parseCommandLine&#45;&gt;regexes</title>
<path fill="none" stroke="#000000" d="M477.1936,-569.8255C660.3917,-541.5021 1035.5797,-483.4961 1201.967,-457.7717"/>
<polygon fill="#000000" stroke="#000000" points="1202.792,-461.1859 1212.1398,-456.199 1201.7224,-454.268 1202.792,-461.1859"/>
</g>
<!-- parseCommandLine&#45;&gt;cmdline -->
<g id="edge11" class="edge">
<title>parseCommandLine&#45;&gt;cmdline</title>
<path fill="none" stroke="#000000" d="M372.5756,-563.3459C372.5756,-541.9305 372.5756,-509.3627 372.5756,-483.8092"/>
<polygon fill="#000000" stroke="#000000" points="376.0757,-483.6941 372.5756,-473.6941 369.0757,-483.6941 376.0757,-483.6941"/>
</g>
<!-- parseCommandLine&#45;&gt;warnings -->
<g id="edge9" class="edge">
<title>parseCommandLine&#45;&gt;warnings</title>
<path fill="none" stroke="#000000" d="M412.8318,-564.0657C526.8476,-502.2554 851.0947,-328.7191 965.5756,-291.3726 1157.597,-228.7304 1394.8347,-200.4762 1517.1374,-189.3099"/>
<polygon fill="#000000" stroke="#000000" points="1517.5292,-192.7889 1527.176,-188.4083 1516.903,-185.8169 1517.5292,-192.7889"/>
</g>
<!-- parseCommandLine&#45;&gt;args -->
<g id="edge7" class="edge">
<title>parseCommandLine&#45;&gt;args</title>
<path fill="none" stroke="#000000" d="M447.9384,-566.3946C562.1616,-536.6797 775.672,-481.1355 868.9759,-456.8627"/>
<polygon fill="#000000" stroke="#000000" points="869.8891,-460.2417 878.6858,-454.3367 868.1267,-453.4672 869.8891,-460.2417"/>
</g>
<!-- parseCommandLine&#45;&gt;messages -->
<g id="edge8" class="edge">
<title>parseCommandLine&#45;&gt;messages</title>
<path fill="none" stroke="#000000" d="M391.9719,-563.3321C456.1473,-490.0178 670.7469,-258.0871 902.5756,-154.5083 1008.2519,-107.2931 1337.7764,-68.9703 1502.6356,-52.1782"/>
<polygon fill="#000000" stroke="#000000" points="1503.174,-55.6417 1512.7705,-51.1519 1502.4687,-48.6773 1503.174,-55.6417"/>
</g>
<!-- processTemplate&#45;&gt;parseCmdLine -->
<g id="edge30" class="edge">
<title>processTemplate&#45;&gt;parseCmdLine</title>
<path fill="none" stroke="#000000" d="M1199.1127,-1211.2471C1171.2215,-1192.0953 1133.9447,-1161.5409 1114.5756,-1124.6274 1054.1251,-1009.421 1106.7063,-960.9385 1076.5756,-834.3726 1070.3573,-808.252 1060.1652,-779.6223 1051.9012,-758.3521"/>
<polygon fill="#000000" stroke="#000000" points="1055.0727,-756.854 1048.1434,-748.8393 1048.5622,-759.4258 1055.0727,-756.854"/>
</g>
<!-- processTemplate&#45;&gt;env -->
<g id="edge20" class="edge">
<title>processTemplate&#45;&gt;env</title>
<path fill="none" stroke="#000000" d="M1124.1183,-1222.2954C947.2898,-1204.0508 616.834,-1164.9728 581.5756,-1124.6274 534.4971,-1070.7564 555.6085,-844.0828 565.4949,-758.7103"/>
<polygon fill="#000000" stroke="#000000" points="568.997,-758.898 566.6956,-748.5562 562.0454,-758.0759 568.997,-758.898"/>
</g>
<!-- processTemplate&#45;&gt;variables -->
<g id="edge92" class="edge">
<title>processTemplate&#45;&gt;variables</title>
<path fill="none" stroke="#000000" d="M1264.7311,-1210.9485C1290.7844,-1190.7334 1328.1455,-1158.8209 1353.5756,-1124.6274 1444.5843,-1002.2565 1509.3947,-829.6583 1533.8388,-758.5544"/>
<polygon fill="#000000" stroke="#000000" points="1537.2438,-759.4126 1537.1507,-748.8182 1530.6167,-757.1583 1537.2438,-759.4126"/>
</g>
<!-- processTemplate&#45;&gt;vartypes -->
<g id="edge93" class="edge">
<title>processTemplate&#45;&gt;vartypes</title>
<path fill="none" stroke="#000000" d="M1343.6191,-1221.9014C1584.5377,-1195.4261 2152.3936,-1121.6747 2298.5756,-1001.6274 2344.2622,-964.1088 2338.5496,-937.2923 2351.5756,-879.6274 2368.823,-803.2749 2367.9715,-565.4726 2367.025,-477.8493"/>
<polygon fill="#000000" stroke="#000000" points="2370.523,-477.6504 2366.9074,-467.6916 2363.5235,-477.7315 2370.523,-477.6504"/>
</g>
<!-- processTemplate&#45;&gt;codefile -->
<g id="edge116" class="edge">
<title>processTemplate&#45;&gt;codefile</title>
<path fill="none" stroke="#000000" d="M1226.563,-1210.1815C1219.1754,-1189.1429 1208.1339,-1157.6985 1199.8561,-1134.1248"/>
<polygon fill="#000000" stroke="#000000" points="1203.1119,-1132.8326 1196.4964,-1124.557 1196.5073,-1135.1518 1203.1119,-1132.8326"/>
</g>
<!-- processTemplate&#45;&gt;replacement -->
<g id="edge106" class="edge">
<title>processTemplate&#45;&gt;replacement</title>
<path fill="none" stroke="#000000" d="M1242.3055,-1210.0762C1249.1921,-1188.3646 1258.7535,-1154.7002 1262.5756,-1124.6274 1273.4129,-1039.3601 1245.9519,-939.7099 1229.2736,-889.4775"/>
<polygon fill="#000000" stroke="#000000" points="1232.5243,-888.1647 1225.9962,-879.82 1225.8956,-890.4143 1232.5243,-888.1647"/>
</g>
<!-- processTemplate&#45;&gt;readlines -->
<g id="edge24" class="edge">
<title>processTemplate&#45;&gt;readlines</title>
<path fill="none" stroke="#000000" d="M1166.414,-1214.0111C1041.8024,-1175.1405 780.5069,-1073.3871 676.5756,-879.6274 652.3596,-834.4813 675.9067,-735.2198 706.5756,-697.5083 730.2758,-668.3657 820.189,-632.5312 885.1715,-609.4834"/>
<polygon fill="#000000" stroke="#000000" points="886.6972,-612.6571 894.9697,-606.0377 884.3748,-606.0535 886.6972,-612.6571"/>
</g>
<!-- processTemplate&#45;&gt;collectCommand -->
<g id="edge37" class="edge">
<title>processTemplate&#45;&gt;collectCommand</title>
<path fill="none" stroke="#000000" d="M1194.1579,-1211.5314C1160.7567,-1192.2408 1113.7601,-1161.3448 1081.5756,-1124.6274 1017.1834,-1051.1659 971.9247,-943.1634 951.9909,-889.6002"/>
<polygon fill="#000000" stroke="#000000" points="955.1805,-888.1317 948.454,-879.9461 948.6077,-890.5398 955.1805,-888.1317"/>
</g>
<!-- processTemplate&#45;&gt;args -->
<g id="edge13" class="edge">
<title>processTemplate&#45;&gt;args</title>
<path fill="none" stroke="#000000" d="M1123.085,-1222.5808C941.112,-1204.4922 596.5981,-1165.3014 558.5756,-1124.6274 428.5312,-985.5142 474.2268,-881.163 524.5756,-697.5083 534.1381,-662.6276 579.7613,-580.6267 607.5756,-557.5083 684.546,-493.5326 801.1206,-464.3124 866.2335,-452.3204"/>
<polygon fill="#000000" stroke="#000000" points="866.9962,-455.7397 876.2279,-450.541 865.7692,-448.8481 866.9962,-455.7397"/>
</g>
<!-- processTemplate&#45;&gt;opresultwarn -->
<g id="edge107" class="edge">
<title>processTemplate&#45;&gt;opresultwarn</title>
<path fill="none" stroke="#000000" d="M1358.5102,-1229.6691C1782.8846,-1216.6414 3151.5756,-1160.5517 3151.5756,-979 3151.5756,-979 3151.5756,-979 3151.5756,-726 3151.5756,-648.49 3159.8354,-613.8216 3106.5756,-557.5083 3082.5048,-532.0574 2614.0376,-389.2874 2433.5969,-334.9749"/>
<polygon fill="#000000" stroke="#000000" points="2434.5187,-331.5973 2423.9343,-332.0681 2432.5021,-338.3005 2434.5187,-331.5973"/>
</g>
<!-- processTemplate&#45;&gt;messages -->
<g id="edge14" class="edge">
<title>processTemplate&#45;&gt;messages</title>
<path fill="none" stroke="#000000" d="M1117.9413,-1224.6745C942.4894,-1210.5983 620.3384,-1178.2688 518.5756,-1124.6274 183.7922,-948.1557 5.5756,-823.4471 5.5756,-445 5.5756,-445 5.5756,-445 5.5756,-314 5.5756,-241.8717 -18.2664,-202.5033 35.5756,-154.5083 90.55,-105.5038 1171.1007,-59.6092 1502.6667,-46.6337"/>
<polygon fill="#000000" stroke="#000000" points="1502.8729,-50.1284 1512.7288,-46.241 1502.5999,-43.1337 1502.8729,-50.1284"/>
</g>
<!-- processTemplate&#45;&gt;matches -->
<g id="edge23" class="edge">
<title>processTemplate&#45;&gt;matches</title>
<path fill="none" stroke="#000000" d="M1245.6389,-1210.233C1273.7915,-1149.5357 1344.2969,-978.634 1320.5756,-834.3726 1314.4951,-797.3934 1305.4855,-790.0247 1293.5756,-754.4917 1277.7284,-707.212 1259.5484,-652.4064 1248.3114,-618.4646"/>
<polygon fill="#000000" stroke="#000000" points="1251.5221,-617.026 1245.0572,-608.6322 1244.8766,-619.2255 1251.5221,-617.026"/>
</g>
<!-- processTemplate&#45;&gt;readjson -->
<g id="edge94" class="edge">
<title>processTemplate&#45;&gt;readjson</title>
<path fill="none" stroke="#000000" d="M1357.3153,-1228.3675C1612.5843,-1217.599 2192.4967,-1186.9196 2379.5756,-1124.6274 2545.7249,-1069.3043 2714.8838,-941.2174 2784.529,-884.6761"/>
<polygon fill="#000000" stroke="#000000" points="2786.9928,-887.1827 2792.5221,-878.1451 2782.5637,-881.7621 2786.9928,-887.1827"/>
</g>
<!-- processTemplate&#45;&gt;runCommand -->
<g id="edge91" class="edge">
<title>processTemplate&#45;&gt;runCommand</title>
<path fill="none" stroke="#000000" d="M1308.5265,-1214.6299C1367.0428,-1197.6881 1448.8912,-1168.4613 1510.5756,-1124.6274 1554.8897,-1093.1372 1593.4931,-1042.6322 1615.6645,-1010.1419"/>
<polygon fill="#000000" stroke="#000000" points="1618.8069,-1011.7403 1621.4733,-1001.4865 1612.9945,-1007.8395 1618.8069,-1011.7403"/>
</g>
<!-- runCommand&#45;&gt;runFunction -->
<g id="edge81" class="edge">
<title>runCommand&#45;&gt;runFunction</title>
<path fill="none" stroke="#000000" d="M1701.395,-961.3904C1785.5847,-938.866 1930.9429,-899.9763 2018.4888,-876.5539"/>
<polygon fill="#000000" stroke="#000000" points="2019.5906,-879.8823 2028.3463,-873.9166 2017.7814,-873.1202 2019.5906,-879.8823"/>
</g>
<!-- runCommand&#45;&gt;parseNumber -->
<g id="edge48" class="edge">
<title>runCommand&#45;&gt;parseNumber</title>
<path fill="none" stroke="#000000" d="M1652.5256,-956.5479C1685.5439,-912.8116 1758.7565,-815.8337 1798.9068,-762.6504"/>
<polygon fill="#000000" stroke="#000000" points="1801.8237,-764.5955 1805.0556,-754.5056 1796.237,-760.3778 1801.8237,-764.5955"/>
</g>
<!-- runCommand&#45;&gt;regexes -->
<g id="edge40" class="edge">
<title>runCommand&#45;&gt;regexes</title>
<path fill="none" stroke="#000000" d="M1616.5868,-956.489C1583.5552,-916.8805 1514.1219,-831.6047 1462.5756,-754.4917 1399.3069,-659.8421 1335.1964,-541.6926 1304.021,-482.4873"/>
<polygon fill="#000000" stroke="#000000" points="1307.0523,-480.7315 1299.3055,-473.5039 1300.8543,-483.985 1307.0523,-480.7315"/>
</g>
<!-- runCommand&#45;&gt;env -->
<g id="edge41" class="edge">
<title>runCommand&#45;&gt;env</title>
<path fill="none" stroke="#000000" d="M1533.1481,-974.0153C1335.2201,-963.2756 907.7212,-934.3785 771.5756,-879.6274 699.4472,-850.6209 630.7839,-788.616 595.0753,-752.8815"/>
<polygon fill="#000000" stroke="#000000" points="597.4811,-750.3366 587.9662,-745.6763 592.4982,-755.2529 597.4811,-750.3366"/>
</g>
<!-- runCommand&#45;&gt;variables -->
<g id="edge55" class="edge">
<title>runCommand&#45;&gt;variables</title>
<path fill="none" stroke="#000000" d="M1627.3395,-956.1017C1611.097,-910.9439 1574.8948,-810.2939 1556.2181,-758.3688"/>
<polygon fill="#000000" stroke="#000000" points="1559.4057,-756.8895 1552.7276,-748.6643 1552.8188,-759.2587 1559.4057,-756.8895"/>
</g>
<!-- runCommand&#45;&gt;vartypes -->
<g id="edge45" class="edge">
<title>runCommand&#45;&gt;vartypes</title>
<path fill="none" stroke="#000000" d="M1737.0621,-973.3264C1879.2585,-963.3625 2127.8928,-937.9504 2194.5756,-879.6274 2307.7122,-780.6745 2234.9442,-694.1423 2297.5756,-557.5083 2310.8935,-528.4545 2330.1829,-497.6606 2344.9827,-475.648"/>
<polygon fill="#000000" stroke="#000000" points="2347.8829,-477.6074 2350.6147,-467.3708 2342.0955,-473.6696 2347.8829,-477.6074"/>
</g>
<!-- runCommand&#45;&gt;readlines -->
<g id="edge38" class="edge">
<title>runCommand&#45;&gt;readlines</title>
<path fill="none" stroke="#000000" d="M1533.0873,-974.2304C1321.5352,-963.3332 852.2277,-933.3173 804.5756,-879.6274 733.4576,-799.4983 846.6715,-679.8602 912.9683,-621.1142"/>
<polygon fill="#000000" stroke="#000000" points="915.583,-623.4771 920.8052,-614.2586 910.9741,-618.2085 915.583,-623.4771"/>
</g>
<!-- runCommand&#45;&gt;funtypes -->
<g id="edge59" class="edge">
<title>runCommand&#45;&gt;funtypes</title>
<path fill="none" stroke="#000000" d="M1734.0287,-971.2385C1953.5301,-951.5775 2471.2229,-891.3311 2566.5756,-754.4917 2598.2779,-708.9963 2551.5892,-649.1817 2517.0219,-614.4234"/>
<polygon fill="#000000" stroke="#000000" points="2519.4522,-611.9045 2509.8622,-607.4009 2514.5506,-616.902 2519.4522,-611.9045"/>
</g>
<!-- runCommand&#45;&gt;warnings -->
<g id="edge47" class="edge">
<title>runCommand&#45;&gt;warnings</title>
<path fill="none" stroke="#000000" d="M1635.0242,-956.3714C1633.8211,-908.5592 1630.7321,-793.7418 1626.5756,-697.5083 1618.7161,-515.5369 1605.6466,-297.5611 1600.6263,-215.9631"/>
<polygon fill="#000000" stroke="#000000" points="1604.1093,-215.5781 1600,-205.8127 1597.1226,-216.0093 1604.1093,-215.5781"/>
</g>
<!-- runCommand&#45;&gt;collectCommand -->
<g id="edge89" class="edge">
<title>runCommand&#45;&gt;collectCommand</title>
<path fill="none" stroke="#000000" d="M1554.1486,-964.7063C1426.5963,-942.3159 1179.9648,-899.0223 1041.3892,-874.6968"/>
<polygon fill="#000000" stroke="#000000" points="1041.6468,-871.1885 1031.1922,-872.9068 1040.4364,-878.0831 1041.6468,-871.1885"/>
</g>
<!-- runCommand&#45;&gt;opresultwarn -->
<g id="edge90" class="edge">
<title>runCommand&#45;&gt;opresultwarn</title>
<path fill="none" stroke="#000000" d="M1734.7884,-971.6421C1912.4262,-957.5453 2277.3696,-924.135 2396.5756,-879.6274 2490.9547,-844.3894 2537.8985,-843.2386 2585.5756,-754.4917 2605.8095,-716.8282 2583.0865,-597.2922 2564.5756,-557.5083 2543.5843,-512.3932 2522.528,-511.6369 2490.5756,-473.4917 2470.6293,-449.6795 2418.3363,-383.5486 2387.4268,-344.3202"/>
<polygon fill="#000000" stroke="#000000" points="2390.1121,-342.0728 2381.175,-336.3825 2384.6129,-346.4041 2390.1121,-342.0728"/>
</g>
<!-- runCommand&#45;&gt;messages -->
<g id="edge46" class="edge">
<title>runCommand&#45;&gt;messages</title>
<path fill="none" stroke="#000000" d="M1739.2885,-975.5391C2000.081,-966.0818 2677.8606,-936.624 2895.5756,-879.6274 3052.8624,-838.4506 3227.5756,-888.5873 3227.5756,-726 3227.5756,-726 3227.5756,-726 3227.5756,-314 3227.5756,-267.3741 3500.5201,-334.9472 3019.5756,-154.5083 2775.8375,-63.0635 1972.8896,-46.6096 1694.5724,-43.6493"/>
<polygon fill="#000000" stroke="#000000" points="1694.532,-40.1488 1684.4965,-43.5457 1694.4599,-47.1485 1694.532,-40.1488"/>
</g>
<!-- runCommand&#45;&gt;matches -->
<g id="edge39" class="edge">
<title>runCommand&#45;&gt;matches</title>
<path fill="none" stroke="#000000" d="M1580.4675,-959.6972C1538.5619,-943.0938 1481.2118,-916.051 1439.5756,-879.6274 1350.4647,-801.6726 1281.7118,-676.2077 1252.6685,-617.8079"/>
<polygon fill="#000000" stroke="#000000" points="1255.743,-616.1283 1248.1905,-608.6978 1249.4609,-619.2162 1255.743,-616.1283"/>
</g>
<!-- runCommand&#45;&gt;readjson -->
<g id="edge88" class="edge">
<title>runCommand&#45;&gt;readjson</title>
<path fill="none" stroke="#000000" d="M1733.4735,-970.829C1915.3638,-955.3441 2317.6645,-919.6691 2655.5756,-879.6274 2684.7105,-876.175 2716.7138,-871.8239 2744.5253,-867.8618"/>
<polygon fill="#000000" stroke="#000000" points="2745.1667,-871.3057 2754.5689,-866.4221 2744.1734,-864.3766 2745.1667,-871.3057"/>
</g>
</g>
</svg>
