<?xml version="1.0" encoding="UTF-8" standalone="no"?>
<!DOCTYPE svg PUBLIC "-//W3C//DTD SVG 1.1//EN"
 "http://www.w3.org/Graphics/SVG/1.1/DTD/svg11.dtd">
<!-- Generated by graphviz version 7.0.1 (20221109.1506)
 -->
<!-- Title: statictea Pages: 1 -->
<svg width="3578pt" height="1794pt"
 viewBox="0.00 0.00 3578.24 1794.21" xmlns="http://www.w3.org/2000/svg" xmlns:xlink="http://www.w3.org/1999/xlink">
<g id="graph0" class="graph" transform="scale(1 1) rotate(0) translate(4 1790.21)">
<title>statictea</title>
<polygon fill="white" stroke="none" points="-4,4 -4,-1790.21 3574.24,-1790.21 3574.24,4 -4,4"/>
<!-- args -->
<g id="node1" class="node">
<title>args</title>
<g id="a_node1"><a xlink:href="args.md" xlink:title="args.md">
<ellipse fill="palegoldenrod" stroke="black" cx="709.2" cy="-373" rx="39.7" ry="24.08"/>
<text text-anchor="middle" x="709.2" y="-366.8" font-family="Times,serif" font-size="24.00">args</text>
</a>
</g>
</g>
<!-- messages -->
<g id="node9" class="node">
<title>messages</title>
<g id="a_node9"><a xlink:href="messages.md" xlink:title="messages.md">
<polygon fill="palegreen" stroke="black" points="1856.38,-44.69 1856.38,-75.31 1788.32,-96.95 1692.08,-96.95 1624.02,-75.31 1624.02,-44.69 1692.08,-23.05 1788.32,-23.05 1856.38,-44.69"/>
<polygon fill="none" stroke="black" points="1860.37,-41.74 1860.37,-78.26 1788.94,-100.98 1691.46,-100.98 1620.03,-78.26 1620.03,-41.74 1691.46,-19.02 1788.94,-19.02 1860.37,-41.74"/>
<text text-anchor="middle" x="1740.2" y="-51.2" font-family="Times,serif" font-size="36.00">messages</text>
</a>
</g>
</g>
<!-- args&#45;&gt;messages -->
<g id="edge1" class="edge">
<title>args&#45;&gt;messages</title>
<path fill="none" stroke="black" d="M713.35,-348.73C721.85,-308.5 745.27,-226.48 800.2,-186.98 926.81,-95.93 1380.72,-70.65 1608.24,-63.65"/>
<polygon fill="black" stroke="black" points="1608.16,-67.16 1618.06,-63.36 1607.96,-60.16 1608.16,-67.16"/>
</g>
<!-- opresult -->
<g id="node10" class="node">
<title>opresult</title>
<g id="a_node10"><a xlink:href="opresult.md" xlink:title="opresult.md">
<ellipse fill="palegoldenrod" stroke="black" cx="2635.2" cy="-217" rx="66.44" ry="24.08"/>
<text text-anchor="middle" x="2635.2" y="-210.8" font-family="Times,serif" font-size="24.00">opresult</text>
</a>
</g>
</g>
<!-- args&#45;&gt;opresult -->
<g id="edge3" class="edge">
<title>args&#45;&gt;opresult</title>
<path fill="none" stroke="black" d="M746,-363.51C787.22,-354.34 856.13,-339.99 916.2,-332.26 1241.14,-290.44 2268.79,-236.52 2558.5,-221.84"/>
<polygon fill="black" stroke="black" points="2558.39,-225.35 2568.2,-221.34 2558.04,-218.35 2558.39,-225.35"/>
</g>
<!-- cmdline -->
<g id="node2" class="node">
<title>cmdline</title>
<g id="a_node2"><a xlink:href="cmdline.md" xlink:title="cmdline.md">
<polygon fill="palegreen" stroke="black" points="249.24,-357.69 249.24,-388.31 190.64,-409.95 107.76,-409.95 49.16,-388.31 49.16,-357.69 107.76,-336.05 190.64,-336.05 249.24,-357.69"/>
<polygon fill="none" stroke="black" points="253.23,-354.88 253.23,-391.12 191.34,-413.98 107.06,-413.98 45.17,-391.12 45.17,-354.88 107.06,-332.02 191.34,-332.02 253.23,-354.88"/>
<text text-anchor="middle" x="149.2" y="-364.2" font-family="Times,serif" font-size="36.00">cmdline</text>
</a>
</g>
</g>
<!-- codefile -->
<g id="node3" class="node">
<title>codefile</title>
<g id="a_node3"><a xlink:href="codefile.md" xlink:title="codefile.md">
<ellipse fill="palegoldenrod" stroke="black" cx="2142.2" cy="-1255" rx="66.44" ry="24.08"/>
<text text-anchor="middle" x="2142.2" y="-1248.8" font-family="Times,serif" font-size="24.00">codefile</text>
</a>
</g>
</g>
<!-- env -->
<g id="node5" class="node">
<title>env</title>
<g id="a_node5"><a xlink:href="env.md" xlink:title="env.md">
<ellipse fill="palegoldenrod" stroke="black" cx="604.2" cy="-530" rx="36.12" ry="24.08"/>
<text text-anchor="middle" x="604.2" y="-523.8" font-family="Times,serif" font-size="24.00">env</text>
</a>
</g>
</g>
<!-- codefile&#45;&gt;env -->
<g id="edge82" class="edge">
<title>codefile&#45;&gt;env</title>
<path fill="none" stroke="black" d="M2076.29,-1251.21C1887.36,-1242.5 1347.01,-1212.3 1184.2,-1146.13 891.06,-1027.01 680.34,-672.32 621.09,-563.27"/>
<polygon fill="black" stroke="black" points="624.22,-561.69 616.4,-554.54 618.05,-565 624.22,-561.69"/>
</g>
<!-- linebuffer -->
<g id="node7" class="node">
<title>linebuffer</title>
<g id="a_node7"><a xlink:href="linebuffer.md" xlink:title="linebuffer.md">
<polygon fill="palegreen" stroke="black" points="1054.11,-519.21 1054.11,-540.79 1004.37,-556.04 934.03,-556.04 884.29,-540.79 884.29,-519.21 934.03,-503.96 1004.37,-503.96 1054.11,-519.21"/>
<polygon fill="none" stroke="black" points="1058.11,-516.25 1058.11,-543.75 1004.97,-560.04 933.43,-560.04 880.29,-543.75 880.29,-516.25 933.43,-499.96 1004.97,-499.96 1058.11,-516.25"/>
<text text-anchor="middle" x="969.2" y="-523.8" font-family="Times,serif" font-size="24.00">linebuffer</text>
</a>
</g>
</g>
<!-- codefile&#45;&gt;linebuffer -->
<g id="edge85" class="edge">
<title>codefile&#45;&gt;linebuffer</title>
<path fill="none" stroke="black" d="M2076.37,-1250.73C1904.28,-1239 1434.09,-1186.26 1141.2,-953.71 1084.47,-908.67 1098.19,-873.96 1060.2,-812.29 1031.88,-766.32 1012.14,-761.51 993.2,-710.94 976.09,-665.27 970.9,-609.06 969.46,-571.74"/>
<polygon fill="black" stroke="black" points="972.97,-571.73 969.17,-561.84 965.97,-571.94 972.97,-571.73"/>
</g>
<!-- codefile&#45;&gt;messages -->
<g id="edge83" class="edge">
<title>codefile&#45;&gt;messages</title>
<path fill="none" stroke="black" d="M2076.81,-1249.93C1905.84,-1238.6 1449.24,-1203.69 1310.2,-1146.13 1180.65,-1092.51 1148.49,-1062.63 1060.2,-953.71 937.98,-802.94 914.27,-749.27 871.2,-560.02 848.3,-459.41 846.1,-407.97 916.2,-332.26 1098.49,-135.39 1426.09,-81.16 1608.5,-66.38"/>
<polygon fill="black" stroke="black" points="1608.56,-69.89 1618.25,-65.62 1608.01,-62.91 1608.56,-69.89"/>
</g>
<!-- codefile&#45;&gt;opresult -->
<g id="edge84" class="edge">
<title>codefile&#45;&gt;opresult</title>
<path fill="none" stroke="black" d="M2204.39,-1246.26C2308.6,-1231.98 2511.76,-1198.13 2559.2,-1146.13 2780.19,-903.96 2637.83,-741.45 2647.2,-413.74 2648.23,-377.54 2649.09,-368.42 2647.2,-332.26 2645.79,-305.42 2642.54,-275.17 2639.78,-252.54"/>
<polygon fill="black" stroke="black" points="2643.25,-252.13 2638.54,-242.64 2636.31,-253 2643.25,-252.13"/>
</g>
<!-- runCommand -->
<g id="node19" class="node">
<title>runCommand</title>
<g id="a_node19"><a xlink:href="runCommand.md" xlink:title="runCommand.md">
<ellipse fill="palegoldenrod" stroke="black" cx="2351.2" cy="-1103" rx="198.89" ry="43.27"/>
<text text-anchor="middle" x="2351.2" y="-1091.1" font-family="Times,serif" font-size="48.00">runCommand</text>
</a>
</g>
</g>
<!-- codefile&#45;&gt;runCommand -->
<g id="edge86" class="edge">
<title>codefile&#45;&gt;runCommand</title>
<path fill="none" stroke="black" d="M2171.26,-1233.14C2200.65,-1212.05 2247.07,-1178.73 2285.41,-1151.22"/>
<polygon fill="black" stroke="black" points="2287.15,-1154.28 2293.23,-1145.6 2283.07,-1148.59 2287.15,-1154.28"/>
</g>
<!-- utf8decoder -->
<g id="node29" class="node">
<title>utf8decoder</title>
<g id="a_node29"><a xlink:href="utf8decoder.md" xlink:title="utf8decoder.md">
<polygon fill="palegreen" stroke="black" points="2470.24,-362.21 2470.24,-383.79 2411.64,-399.04 2328.76,-399.04 2270.16,-383.79 2270.16,-362.21 2328.76,-346.96 2411.64,-346.96 2470.24,-362.21"/>
<polygon fill="none" stroke="black" points="2474.23,-359.12 2474.23,-386.88 2412.15,-403.04 2328.25,-403.04 2266.17,-386.88 2266.17,-359.12 2328.25,-342.96 2412.15,-342.96 2474.23,-359.12"/>
<text text-anchor="middle" x="2370.2" y="-366.8" font-family="Times,serif" font-size="24.00">utf8decoder</text>
</a>
</g>
</g>
<!-- codefile&#45;&gt;utf8decoder -->
<g id="edge89" class="edge">
<title>codefile&#45;&gt;utf8decoder</title>
<path fill="none" stroke="black" d="M2140.43,-1230.56C2138.1,-1193.94 2135.15,-1121.02 2143.2,-1059.87 2176.85,-804.35 2302.73,-517.15 2351.1,-413.74"/>
<polygon fill="black" stroke="black" points="2354.2,-415.37 2355.29,-404.83 2347.87,-412.39 2354.2,-415.37"/>
</g>
<!-- variables -->
<g id="node30" class="node">
<title>variables</title>
<g id="a_node30"><a xlink:href="variables.md" xlink:title="variables.md">
<ellipse fill="palegoldenrod" stroke="black" cx="2907.2" cy="-530" rx="72.66" ry="24.08"/>
<text text-anchor="middle" x="2907.2" y="-523.8" font-family="Times,serif" font-size="24.00">variables</text>
</a>
</g>
</g>
<!-- codefile&#45;&gt;variables -->
<g id="edge87" class="edge">
<title>codefile&#45;&gt;variables</title>
<path fill="none" stroke="black" d="M2206.69,-1248.44C2331.29,-1236.5 2598.93,-1204.62 2668.2,-1146.13 2692.15,-1125.91 2849.88,-690.54 2895.1,-564.75"/>
<polygon fill="black" stroke="black" points="2898.28,-566.25 2898.37,-555.65 2891.69,-563.88 2898.28,-566.25"/>
</g>
<!-- vartypes -->
<g id="node31" class="node">
<title>vartypes</title>
<g id="a_node31"><a xlink:href="vartypes.md" xlink:title="vartypes.md">
<ellipse fill="palegoldenrod" stroke="black" cx="2060.2" cy="-373" rx="97.66" ry="33.88"/>
<text text-anchor="middle" x="2060.2" y="-364.2" font-family="Times,serif" font-size="36.00">vartypes</text>
</a>
</g>
</g>
<!-- codefile&#45;&gt;vartypes -->
<g id="edge88" class="edge">
<title>codefile&#45;&gt;vartypes</title>
<path fill="none" stroke="black" d="M2133.43,-1230.84C2125.72,-1209.26 2115,-1176.03 2110.2,-1146.13 2098.44,-1072.85 2102.63,-886.47 2100.2,-812.29 2097.74,-737.07 2100.26,-718.08 2094.2,-643.06 2087.77,-563.48 2074.94,-471.29 2067.01,-418.1"/>
<polygon fill="black" stroke="black" points="2070.52,-417.9 2065.58,-408.53 2063.6,-418.94 2070.52,-417.9"/>
</g>
<!-- comparelines -->
<g id="node4" class="node">
<title>comparelines</title>
<g id="a_node4"><a xlink:href="comparelines.md" xlink:title="comparelines.md">
<polygon fill="palegreen" stroke="black" points="3145.62,-1686.21 3145.62,-1707.79 3080.94,-1723.04 2989.46,-1723.04 2924.78,-1707.79 2924.78,-1686.21 2989.46,-1670.96 3080.94,-1670.96 3145.62,-1686.21"/>
<polygon fill="none" stroke="black" points="3149.63,-1683.05 3149.63,-1710.95 3081.4,-1727.04 2989,-1727.04 2920.77,-1710.95 2920.77,-1683.05 2989,-1666.96 3081.4,-1666.96 3149.63,-1683.05"/>
<text text-anchor="middle" x="3035.2" y="-1690.8" font-family="Times,serif" font-size="24.00">comparelines</text>
</a>
</g>
</g>
<!-- env&#45;&gt;messages -->
<g id="edge13" class="edge">
<title>env&#45;&gt;messages</title>
<path fill="none" stroke="black" d="M605.54,-505.63C610.65,-441.09 634.86,-260.37 747.2,-186.98 886.31,-96.09 1371.74,-70.69 1608.43,-63.66"/>
<polygon fill="black" stroke="black" points="1608.45,-67.16 1618.34,-63.37 1608.25,-60.16 1608.45,-67.16"/>
</g>
<!-- tempFile -->
<g id="node25" class="node">
<title>tempFile</title>
<g id="a_node25"><a xlink:href="tempFile.md" xlink:title="tempFile.md">
<polygon fill="palegreen" stroke="black" points="1085.33,-362.21 1085.33,-383.79 1039.56,-399.04 974.84,-399.04 929.07,-383.79 929.07,-362.21 974.84,-346.96 1039.56,-346.96 1085.33,-362.21"/>
<polygon fill="none" stroke="black" points="1089.33,-359.33 1089.33,-386.67 1040.21,-403.04 974.19,-403.04 925.06,-386.67 925.06,-359.33 974.19,-342.96 1040.21,-342.96 1089.33,-359.33"/>
<text text-anchor="middle" x="1007.2" y="-366.8" font-family="Times,serif" font-size="24.00">tempFile</text>
</a>
</g>
</g>
<!-- env&#45;&gt;tempFile -->
<g id="edge12" class="edge">
<title>env&#45;&gt;tempFile</title>
<path fill="none" stroke="black" d="M635.15,-517.09C700.09,-492.12 851.81,-433.76 940.15,-399.79"/>
<polygon fill="black" stroke="black" points="941.37,-403.07 949.44,-396.21 938.86,-396.54 941.37,-403.07"/>
</g>
<!-- gethelp -->
<g id="node6" class="node">
<title>gethelp</title>
<g id="a_node6"><a xlink:href="gethelp.md" xlink:title="gethelp.md">
<polygon fill="palegreen" stroke="black" points="3435.87,-1499.21 3435.87,-1520.79 3396.81,-1536.04 3341.58,-1536.04 3302.53,-1520.79 3302.53,-1499.21 3341.58,-1483.96 3396.81,-1483.96 3435.87,-1499.21"/>
<polygon fill="none" stroke="black" points="3439.87,-1496.48 3439.87,-1523.52 3397.57,-1540.04 3340.83,-1540.04 3298.53,-1523.52 3298.53,-1496.48 3340.83,-1479.96 3397.57,-1479.96 3439.87,-1496.48"/>
<text text-anchor="middle" x="3369.2" y="-1503.8" font-family="Times,serif" font-size="24.00">gethelp</text>
</a>
</g>
</g>
<!-- matches -->
<g id="node8" class="node">
<title>matches</title>
<g id="a_node8"><a xlink:href="matches.md" xlink:title="matches.md">
<ellipse fill="palegoldenrod" stroke="black" cx="1515.2" cy="-373" rx="67.35" ry="24.08"/>
<text text-anchor="middle" x="1515.2" y="-366.8" font-family="Times,serif" font-size="24.00">matches</text>
</a>
</g>
</g>
<!-- regexes -->
<g id="node16" class="node">
<title>regexes</title>
<g id="a_node16"><a xlink:href="regexes.md" xlink:title="regexes.md">
<polygon fill="palegreen" stroke="black" points="1916.43,-206.21 1916.43,-227.79 1876.46,-243.04 1819.94,-243.04 1779.97,-227.79 1779.97,-206.21 1819.94,-190.96 1876.46,-190.96 1916.43,-206.21"/>
<polygon fill="none" stroke="black" points="1920.44,-203.46 1920.44,-230.54 1877.2,-247.04 1819.2,-247.04 1775.96,-230.54 1775.96,-203.46 1819.2,-186.96 1877.2,-186.96 1920.44,-203.46"/>
<text text-anchor="middle" x="1848.2" y="-210.8" font-family="Times,serif" font-size="24.00">regexes</text>
</a>
</g>
</g>
<!-- matches&#45;&gt;regexes -->
<g id="edge7" class="edge">
<title>matches&#45;&gt;regexes</title>
<path fill="none" stroke="red" d="M1555.37,-353.42C1613.74,-326.43 1722.37,-276.19 1789.65,-245.08"/>
<polygon fill="red" stroke="red" points="1791.1,-248.26 1798.71,-240.89 1788.16,-241.91 1791.1,-248.26"/>
</g>
<!-- opresult&#45;&gt;messages -->
<g id="edge2" class="edge">
<title>opresult&#45;&gt;messages</title>
<path fill="none" stroke="red" d="M2582.08,-202.1C2561.58,-196.99 2537.87,-191.37 2516.2,-186.98 2291.03,-141.32 2026.45,-101.23 1871.66,-79.14"/>
<polygon fill="red" stroke="red" points="1872.6,-75.74 1862.2,-77.79 1871.61,-82.67 1872.6,-75.74"/>
</g>
<!-- parseCmdLine -->
<g id="node11" class="node">
<title>parseCmdLine</title>
<g id="a_node11"><a xlink:href="parseCmdLine.md" xlink:title="parseCmdLine.md">
<ellipse fill="palegoldenrod" stroke="black" cx="1302.2" cy="-530" rx="111.95" ry="24.08"/>
<text text-anchor="middle" x="1302.2" y="-523.8" font-family="Times,serif" font-size="24.00">parseCmdLine</text>
</a>
</g>
</g>
<!-- parseCmdLine&#45;&gt;args -->
<g id="edge20" class="edge">
<title>parseCmdLine&#45;&gt;args</title>
<path fill="none" stroke="black" d="M1232.43,-510.76C1110.26,-478.83 860.7,-413.6 756.53,-386.37"/>
<polygon fill="black" stroke="black" points="757.46,-383 746.9,-383.85 755.69,-389.77 757.46,-383"/>
</g>
<!-- parseCmdLine&#45;&gt;matches -->
<g id="edge18" class="edge">
<title>parseCmdLine&#45;&gt;matches</title>
<path fill="none" stroke="black" d="M1333.17,-506.46C1371.28,-478.73 1435.97,-431.66 1477.09,-401.74"/>
<polygon fill="black" stroke="black" points="1478.99,-404.68 1485.02,-395.96 1474.87,-399.02 1478.99,-404.68"/>
</g>
<!-- parseCmdLine&#45;&gt;messages -->
<g id="edge17" class="edge">
<title>parseCmdLine&#45;&gt;messages</title>
<path fill="none" stroke="black" d="M1300.59,-505.68C1299.05,-466.55 1300.93,-386.65 1336.2,-332.26 1411.52,-216.12 1555.93,-137.52 1650.13,-95.99"/>
<polygon fill="black" stroke="black" points="1651.35,-99.28 1659.12,-92.08 1648.56,-92.86 1651.35,-99.28"/>
</g>
<!-- parseCmdLine&#45;&gt;opresult -->
<g id="edge19" class="edge">
<title>parseCmdLine&#45;&gt;opresult</title>
<path fill="none" stroke="black" d="M1319.02,-505.72C1335.71,-482.52 1361.96,-445.83 1384.2,-413.74 1409.09,-377.83 1401.64,-354.58 1439.2,-332.26 1535.24,-275.2 2308.05,-233.63 2557.72,-221.58"/>
<polygon fill="black" stroke="black" points="2557.88,-225.07 2567.7,-221.1 2557.54,-218.08 2557.88,-225.07"/>
</g>
<!-- parseCmdLine&#45;&gt;regexes -->
<g id="edge16" class="edge">
<title>parseCmdLine&#45;&gt;regexes</title>
<path fill="none" stroke="black" d="M1307.13,-505.59C1317.13,-464.12 1343.79,-377.81 1400.2,-332.26 1505.63,-247.14 1666.83,-224.6 1764.4,-219.11"/>
<polygon fill="black" stroke="black" points="1764.36,-222.62 1774.17,-218.62 1764,-215.63 1764.36,-222.62"/>
</g>
<!-- parseCommandLine -->
<g id="node12" class="node">
<title>parseCommandLine</title>
<g id="a_node12"><a xlink:href="parseCommandLine.md" xlink:title="parseCommandLine.md">
<ellipse fill="palegoldenrod" stroke="black" cx="149.2" cy="-530" rx="149.4" ry="24.08"/>
<text text-anchor="middle" x="149.2" y="-523.8" font-family="Times,serif" font-size="24.00">parseCommandLine</text>
</a>
</g>
</g>
<!-- parseCommandLine&#45;&gt;args -->
<g id="edge4" class="edge">
<title>parseCommandLine&#45;&gt;args</title>
<path fill="none" stroke="black" d="M222.7,-508.66C339.73,-476.26 565.12,-413.88 662.5,-386.92"/>
<polygon fill="black" stroke="black" points="663.29,-390.34 671.99,-384.3 661.42,-383.59 663.29,-390.34"/>
</g>
<!-- parseCommandLine&#45;&gt;cmdline -->
<g id="edge6" class="edge">
<title>parseCommandLine&#45;&gt;cmdline</title>
<path fill="none" stroke="black" d="M149.2,-505.46C149.2,-484.34 149.2,-452.61 149.2,-425.61"/>
<polygon fill="black" stroke="black" points="152.7,-425.89 149.2,-415.89 145.7,-425.89 152.7,-425.89"/>
</g>
<!-- parseCommandLine&#45;&gt;matches -->
<g id="edge8" class="edge">
<title>parseCommandLine&#45;&gt;matches</title>
<path fill="none" stroke="black" d="M269.52,-515.35C545.05,-484.08 1215.26,-408.03 1440.18,-382.51"/>
<polygon fill="black" stroke="black" points="1440.46,-386 1450,-381.4 1439.67,-379.05 1440.46,-386"/>
</g>
<!-- parseCommandLine&#45;&gt;messages -->
<g id="edge5" class="edge">
<title>parseCommandLine&#45;&gt;messages</title>
<path fill="none" stroke="black" d="M177.58,-505.96C202.67,-484.35 238.81,-450 262.2,-413.74 320.79,-322.89 263.85,-252.01 350.2,-186.98 449.37,-112.29 1280.61,-76.45 1608.23,-65.12"/>
<polygon fill="black" stroke="black" points="1608.28,-68.62 1618.15,-64.78 1608.04,-61.63 1608.28,-68.62"/>
</g>
<!-- parseNumber -->
<g id="node13" class="node">
<title>parseNumber</title>
<g id="a_node13"><a xlink:href="parseNumber.md" xlink:title="parseNumber.md">
<polygon fill="palegreen" stroke="black" points="1934.18,-666.21 1934.18,-687.79 1868.58,-703.04 1775.82,-703.04 1710.22,-687.79 1710.22,-666.21 1775.82,-650.96 1868.58,-650.96 1934.18,-666.21"/>
<polygon fill="none" stroke="black" points="1938.19,-663.04 1938.19,-690.96 1869.04,-707.04 1775.36,-707.04 1706.21,-690.96 1706.21,-663.04 1775.36,-646.96 1869.04,-646.96 1938.19,-663.04"/>
<text text-anchor="middle" x="1822.2" y="-670.8" font-family="Times,serif" font-size="24.00">parseNumber</text>
</a>
</g>
</g>
<!-- processTemplate -->
<g id="node14" class="node">
<title>processTemplate</title>
<g id="a_node14"><a xlink:href="processTemplate.md" xlink:title="processTemplate.md">
<ellipse fill="palegoldenrod" stroke="black" cx="875.2" cy="-1510" rx="124.4" ry="24.08"/>
<text text-anchor="middle" x="875.2" y="-1503.8" font-family="Times,serif" font-size="24.00">processTemplate</text>
</a>
</g>
</g>
<!-- processTemplate&#45;&gt;args -->
<g id="edge10" class="edge">
<title>processTemplate&#45;&gt;args</title>
<path fill="none" stroke="black" d="M765.49,-1498.34C625.77,-1478.02 402.2,-1419.9 402.2,-1256 402.2,-1256 402.2,-1256 402.2,-676 402.2,-597.04 378.81,-563.13 426.2,-499.98 482.76,-424.6 594.48,-393.39 659.35,-381.2"/>
<polygon fill="black" stroke="black" points="659.79,-384.68 669.02,-379.47 658.56,-377.78 659.79,-384.68"/>
</g>
<!-- processTemplate&#45;&gt;env -->
<g id="edge14" class="edge">
<title>processTemplate&#45;&gt;env</title>
<path fill="none" stroke="black" d="M796.86,-1491.02C691.23,-1461.6 516.2,-1392.29 516.2,-1256 516.2,-1256 516.2,-1256 516.2,-882 516.2,-775.27 507.69,-744.72 540.2,-643.06 549.67,-613.45 567.67,-583.02 582.18,-561.35"/>
<polygon fill="black" stroke="black" points="584.93,-563.53 587.7,-553.3 579.16,-559.57 584.93,-563.53"/>
</g>
<!-- processTemplate&#45;&gt;linebuffer -->
<g id="edge15" class="edge">
<title>processTemplate&#45;&gt;linebuffer</title>
<path fill="none" stroke="black" d="M852.96,-1486.1C834.67,-1465.78 809.8,-1434.38 797.2,-1402.04 741.8,-1259.83 754.45,-1211.87 768.2,-1059.87 785.16,-872.33 752.25,-807.39 844.2,-643.06 861.7,-611.78 891.24,-584.68 917.21,-564.98"/>
<polygon fill="black" stroke="black" points="919.04,-567.98 925.01,-559.22 914.88,-562.35 919.04,-567.98"/>
</g>
<!-- processTemplate&#45;&gt;messages -->
<g id="edge11" class="edge">
<title>processTemplate&#45;&gt;messages</title>
<path fill="none" stroke="black" d="M775.41,-1495.28C661.17,-1477.83 483.13,-1444.77 431.2,-1402.04 376.06,-1356.67 364.2,-1327.41 364.2,-1256 364.2,-1256 364.2,-1256 364.2,-372 364.2,-118.5 1263.97,-71.62 1608.33,-62.96"/>
<polygon fill="black" stroke="black" points="1608.17,-66.46 1618.08,-62.72 1608,-59.46 1608.17,-66.46"/>
</g>
<!-- processTemplate&#45;&gt;opresult -->
<g id="edge93" class="edge">
<title>processTemplate&#45;&gt;opresult</title>
<path fill="none" stroke="black" d="M995.29,-1503.58C1259.04,-1490.84 1881.59,-1455.93 2085.2,-1402.04 2349.35,-1332.13 2455.75,-1343.99 2644.2,-1146.13 2843.7,-936.68 2759.8,-786.79 2722.2,-499.98 2712.36,-424.9 2716.01,-404.14 2692.2,-332.26 2682.69,-303.56 2667.13,-273 2654.67,-250.72"/>
<polygon fill="black" stroke="black" points="2657.76,-249.07 2649.77,-242.11 2651.68,-252.53 2657.76,-249.07"/>
</g>
<!-- processTemplate&#45;&gt;parseCmdLine -->
<g id="edge21" class="edge">
<title>processTemplate&#45;&gt;parseCmdLine</title>
<path fill="none" stroke="black" d="M880.45,-1485.51C887.59,-1454.81 901.43,-1399.58 918.2,-1353.96 1009.74,-1104.92 997.83,-1014.86 1169.2,-812.29 1220.69,-751.42 1280.02,-781.46 1317.2,-710.94 1341.48,-664.88 1327.94,-602.84 1315.43,-564.94"/>
<polygon fill="black" stroke="black" points="1318.88,-564.2 1312.29,-555.9 1312.27,-566.49 1318.88,-564.2"/>
</g>
<!-- replacement -->
<g id="node18" class="node">
<title>replacement</title>
<g id="a_node18"><a xlink:href="replacement.md" xlink:title="replacement.md">
<ellipse fill="palegoldenrod" stroke="black" cx="1173.2" cy="-677" rx="135.11" ry="33.88"/>
<text text-anchor="middle" x="1173.2" y="-668.2" font-family="Times,serif" font-size="36.00">replacement</text>
</a>
</g>
</g>
<!-- processTemplate&#45;&gt;replacement -->
<g id="edge74" class="edge">
<title>processTemplate&#45;&gt;replacement</title>
<path fill="none" stroke="black" d="M854.07,-1486.04C836.88,-1465.68 813.92,-1434.26 804.2,-1402.04 798.03,-1381.58 801.01,-1375.09 804.2,-1353.96 826.13,-1208.68 914.8,-919.45 994.2,-812.29 1024.37,-771.57 1070.27,-737.48 1108.04,-713.84"/>
<polygon fill="black" stroke="black" points="1109.47,-717.06 1116.16,-708.85 1105.81,-711.1 1109.47,-717.06"/>
</g>
<!-- processTemplate&#45;&gt;runCommand -->
<g id="edge71" class="edge">
<title>processTemplate&#45;&gt;runCommand</title>
<path fill="none" stroke="black" d="M996.78,-1504.64C1251.15,-1494.37 1831.36,-1464.68 2018.2,-1402.04 2116.78,-1368.99 2140.1,-1348.81 2217.2,-1279.04 2257.49,-1242.59 2294.3,-1192.73 2319.1,-1155.55"/>
<polygon fill="black" stroke="black" points="2321.73,-1157.93 2324.31,-1147.65 2315.89,-1154.07 2321.73,-1157.93"/>
</g>
<!-- startingvars -->
<g id="node23" class="node">
<title>startingvars</title>
<g id="a_node23"><a xlink:href="startingvars.md" xlink:title="startingvars.md">
<ellipse fill="palegoldenrod" stroke="black" cx="1918.2" cy="-1378" rx="90.52" ry="24.08"/>
<text text-anchor="middle" x="1918.2" y="-1371.8" font-family="Times,serif" font-size="24.00">startingvars</text>
</a>
</g>
</g>
<!-- processTemplate&#45;&gt;startingvars -->
<g id="edge92" class="edge">
<title>processTemplate&#45;&gt;startingvars</title>
<path fill="none" stroke="black" d="M978.06,-1496.18C1181.26,-1470.85 1631.25,-1414.77 1825.71,-1390.53"/>
<polygon fill="black" stroke="black" points="1826.03,-1394.02 1835.52,-1389.3 1825.17,-1387.07 1826.03,-1394.02"/>
</g>
<!-- processTemplate&#45;&gt;variables -->
<g id="edge72" class="edge">
<title>processTemplate&#45;&gt;variables</title>
<path fill="none" stroke="black" d="M995.36,-1503.52C1384.35,-1485.55 2588.78,-1428.1 2668.2,-1402.04 2763.78,-1370.68 2805.56,-1364.76 2858.2,-1279.04 3004.07,-1041.52 2940.16,-677.86 2915.39,-565.36"/>
<polygon fill="black" stroke="black" points="2918.86,-564.84 2913.25,-555.86 2912.03,-566.38 2918.86,-564.84"/>
</g>
<!-- processTemplate&#45;&gt;vartypes -->
<g id="edge73" class="edge">
<title>processTemplate&#45;&gt;vartypes</title>
<path fill="none" stroke="black" d="M886.66,-1485.72C934.14,-1391.12 1124.54,-1030.28 1369.2,-812.29 1543.29,-657.17 1635.42,-689.71 1829.2,-560.02 1898.2,-513.84 1971.93,-452.03 2017.05,-412.61"/>
<polygon fill="black" stroke="black" points="2019.34,-415.26 2024.54,-406.03 2014.72,-409.99 2019.34,-415.26"/>
</g>
<!-- readjson -->
<g id="node15" class="node">
<title>readjson</title>
<g id="a_node15"><a xlink:href="readjson.md" xlink:title="readjson.md">
<ellipse fill="palegoldenrod" stroke="black" cx="2367.2" cy="-677" rx="69.09" ry="24.08"/>
<text text-anchor="middle" x="2367.2" y="-670.8" font-family="Times,serif" font-size="24.00">readjson</text>
</a>
</g>
</g>
<!-- readjson&#45;&gt;messages -->
<g id="edge60" class="edge">
<title>readjson&#45;&gt;messages</title>
<path fill="none" stroke="black" d="M2356.67,-652.87C2322.47,-577.86 2216.03,-345.44 2204.2,-332.26 2100.47,-216.77 1935.6,-136.83 1832.87,-95"/>
<polygon fill="black" stroke="black" points="1834.19,-91.76 1823.61,-91.27 1831.57,-98.26 1834.19,-91.76"/>
</g>
<!-- readjson&#45;&gt;opresult -->
<g id="edge63" class="edge">
<title>readjson&#45;&gt;opresult</title>
<path fill="none" stroke="black" d="M2393.23,-654.55C2418.55,-632.72 2456.94,-596.91 2483.2,-560.02 2555.72,-458.15 2605.11,-316.16 2625.16,-251.94"/>
<polygon fill="black" stroke="black" points="2628.41,-253.27 2628,-242.68 2621.72,-251.21 2628.41,-253.27"/>
</g>
<!-- unicodes -->
<g id="node27" class="node">
<title>unicodes</title>
<g id="a_node27"><a xlink:href="unicodes.md" xlink:title="unicodes.md">
<ellipse fill="palegoldenrod" stroke="black" cx="2403.2" cy="-530" rx="71.34" ry="24.08"/>
<text text-anchor="middle" x="2403.2" y="-523.8" font-family="Times,serif" font-size="24.00">unicodes</text>
</a>
</g>
</g>
<!-- readjson&#45;&gt;unicodes -->
<g id="edge61" class="edge">
<title>readjson&#45;&gt;unicodes</title>
<path fill="none" stroke="black" d="M2372.98,-652.7C2378.86,-629.03 2388.03,-592.1 2394.73,-565.12"/>
<polygon fill="black" stroke="black" points="2398.05,-566.26 2397.07,-555.71 2391.26,-564.57 2398.05,-566.26"/>
</g>
<!-- readjson&#45;&gt;utf8decoder -->
<g id="edge62" class="edge">
<title>readjson&#45;&gt;utf8decoder</title>
<path fill="none" stroke="black" d="M2355.69,-653.17C2344.85,-630.28 2329.37,-593.7 2323.2,-560.02 2318.39,-533.77 2318.46,-526.24 2323.2,-499.98 2328.6,-470.06 2340.67,-437.98 2351.22,-413.68"/>
<polygon fill="black" stroke="black" points="2354.3,-415.38 2355.17,-404.82 2347.9,-412.53 2354.3,-415.38"/>
</g>
<!-- readjson&#45;&gt;vartypes -->
<g id="edge59" class="edge">
<title>readjson&#45;&gt;vartypes</title>
<path fill="none" stroke="black" d="M2344.63,-653.79C2292.84,-602.85 2164.94,-477.03 2099.76,-412.92"/>
<polygon fill="black" stroke="black" points="2102.41,-410.62 2092.83,-406.1 2097.51,-415.61 2102.41,-410.62"/>
</g>
<!-- repl -->
<g id="node17" class="node">
<title>repl</title>
<g id="a_node17"><a xlink:href="repl.md" xlink:title="repl.md">
<ellipse fill="palegoldenrod" stroke="black" cx="2730.2" cy="-1510" rx="38.37" ry="24.08"/>
<text text-anchor="middle" x="2730.2" y="-1503.8" font-family="Times,serif" font-size="24.00">repl</text>
</a>
</g>
</g>
<!-- repl&#45;&gt;args -->
<g id="edge116" class="edge">
<title>repl&#45;&gt;args</title>
<path fill="none" stroke="black" d="M2691.77,-1508.26C2439.75,-1502.57 1025.65,-1456.9 768.2,-1146.13 582.69,-922.2 668.54,-525.47 699.63,-407.8"/>
<polygon fill="black" stroke="black" points="702.93,-409.01 702.15,-398.45 696.17,-407.19 702.93,-409.01"/>
</g>
<!-- repl&#45;&gt;env -->
<g id="edge114" class="edge">
<title>repl&#45;&gt;env</title>
<path fill="none" stroke="black" d="M2691.66,-1508.68C2476.2,-1506.55 1419.4,-1491.62 1108.2,-1402.04 899.6,-1341.99 812.99,-1326.49 692.2,-1146.13 566.3,-958.14 587.62,-665.32 599.44,-565.6"/>
<polygon fill="black" stroke="black" points="602.89,-566.28 600.64,-555.92 595.94,-565.42 602.89,-566.28"/>
</g>
<!-- repl&#45;&gt;matches -->
<g id="edge119" class="edge">
<title>repl&#45;&gt;matches</title>
<path fill="none" stroke="black" d="M2691.63,-1507.7C2538.95,-1502.05 1977.39,-1476.54 1818.2,-1402.04 1555.85,-1279.27 1459.62,-1219.81 1345.2,-953.71 1320.37,-895.97 1334.52,-874.23 1345.2,-812.29 1357.71,-739.7 1428.21,-568.11 1456.2,-499.98 1469.37,-467.92 1486.31,-432.22 1498.66,-407.03"/>
<polygon fill="black" stroke="black" points="1501.69,-408.79 1502.98,-398.28 1495.42,-405.7 1501.69,-408.79"/>
</g>
<!-- repl&#45;&gt;messages -->
<g id="edge113" class="edge">
<title>repl&#45;&gt;messages</title>
<path fill="none" stroke="black" d="M2768.03,-1504.9C2831.29,-1496.26 2959.65,-1470.96 3041.2,-1402.04 3343.91,-1146.23 3232.2,-927.33 3232.2,-531 3232.2,-531 3232.2,-531 3232.2,-372 3232.2,-95.37 2236.86,-63.16 1872.11,-60.64"/>
<polygon fill="black" stroke="black" points="1872.25,-57.14 1862.23,-60.57 1872.21,-64.14 1872.25,-57.14"/>
</g>
<!-- repl&#45;&gt;opresult -->
<g id="edge117" class="edge">
<title>repl&#45;&gt;opresult</title>
<path fill="none" stroke="black" d="M2767.59,-1503.72C2825.6,-1493.72 2937.72,-1466.87 3006.2,-1402.04 3057.92,-1353.07 3072.2,-1327.23 3072.2,-1256 3072.2,-1256 3072.2,-1256 3072.2,-882 3072.2,-708.25 3071.64,-652.92 2989.2,-499.98 2943.8,-415.75 2928.18,-392.95 2854.2,-332.26 2804.37,-291.39 2737.56,-259.12 2690.89,-239.45"/>
<polygon fill="black" stroke="black" points="2692.35,-236.26 2681.77,-235.66 2689.66,-242.73 2692.35,-236.26"/>
</g>
<!-- repl&#45;&gt;regexes -->
<g id="edge120" class="edge">
<title>repl&#45;&gt;regexes</title>
<path fill="none" stroke="black" d="M2691.69,-1508.43C2576.58,-1504.5 2232.84,-1476.02 2067.2,-1279.04 1931.93,-1118.18 2032.7,-1018.33 1991.2,-812.29 1948.91,-602.36 1884.44,-354.12 1859.03,-258.41"/>
<polygon fill="black" stroke="black" points="1862.47,-257.73 1856.52,-248.97 1855.71,-259.53 1862.47,-257.73"/>
</g>
<!-- repl&#45;&gt;runCommand -->
<g id="edge121" class="edge">
<title>repl&#45;&gt;runCommand</title>
<path fill="none" stroke="black" d="M2739.93,-1486.51C2760.34,-1435.48 2801.23,-1309.31 2744.2,-1230.96 2715.35,-1191.33 2605.21,-1157.81 2508.84,-1135.19"/>
<polygon fill="black" stroke="black" points="2509.77,-1131.81 2499.24,-1132.96 2508.19,-1138.63 2509.77,-1131.81"/>
</g>
<!-- repl&#45;&gt;startingvars -->
<g id="edge118" class="edge">
<title>repl&#45;&gt;startingvars</title>
<path fill="none" stroke="black" d="M2692.93,-1503.03C2571.02,-1483.52 2181.84,-1421.21 2005.97,-1393.05"/>
<polygon fill="black" stroke="black" points="2006.62,-1389.61 1996.19,-1391.49 2005.51,-1396.52 2006.62,-1389.61"/>
</g>
<!-- repl&#45;&gt;variables -->
<g id="edge122" class="edge">
<title>repl&#45;&gt;variables</title>
<path fill="none" stroke="black" d="M2766.61,-1501.79C2818.63,-1489.73 2914.33,-1460.77 2972.2,-1402.04 3021.69,-1351.82 3034.2,-1326.51 3034.2,-1256 3034.2,-1256 3034.2,-1256 3034.2,-882 3034.2,-775.27 3053.89,-740.44 3010.2,-643.06 2995.43,-610.14 2967.11,-580.45 2943.9,-559.92"/>
<polygon fill="black" stroke="black" points="2946.3,-557.37 2936.44,-553.5 2941.73,-562.67 2946.3,-557.37"/>
</g>
<!-- repl&#45;&gt;vartypes -->
<g id="edge115" class="edge">
<title>repl&#45;&gt;vartypes</title>
<path fill="none" stroke="black" d="M2744.52,-1487.6C2757.53,-1466.77 2775.78,-1433.72 2783.2,-1402.04 2792.86,-1360.79 2772.99,-1246.23 2769.2,-1230.96 2685.21,-892.36 2739.96,-736.15 2483.2,-499.98 2435.42,-456.03 2265.6,-415.07 2156.21,-392.4"/>
<polygon fill="black" stroke="black" points="2157.14,-389.02 2146.64,-390.43 2155.73,-395.87 2157.14,-389.02"/>
</g>
<!-- replacement&#45;&gt;args -->
<g id="edge56" class="edge">
<title>replacement&#45;&gt;args</title>
<path fill="none" stroke="black" d="M1151.91,-643.33C1137.06,-620.26 1116.98,-588.52 1100.2,-560.02 1084.75,-533.78 1090.42,-519.67 1067.2,-499.98 975.9,-422.56 833.89,-391.58 759.12,-380.11"/>
<polygon fill="black" stroke="black" points="760.06,-376.71 749.65,-378.72 759.04,-383.64 760.06,-376.71"/>
</g>
<!-- replacement&#45;&gt;env -->
<g id="edge48" class="edge">
<title>replacement&#45;&gt;env</title>
<path fill="none" stroke="black" d="M1079.56,-652.14C955.4,-620.5 741.22,-565.92 648.8,-542.36"/>
<polygon fill="black" stroke="black" points="649.9,-539.03 639.35,-539.96 648.17,-545.82 649.9,-539.03"/>
</g>
<!-- replacement&#45;&gt;linebuffer -->
<g id="edge51" class="edge">
<title>replacement&#45;&gt;linebuffer</title>
<path fill="none" stroke="black" d="M1128.93,-644.54C1096.27,-621.32 1051.81,-589.72 1018.1,-565.76"/>
<polygon fill="black" stroke="black" points="1020.3,-563.03 1010.12,-560.09 1016.25,-568.73 1020.3,-563.03"/>
</g>
<!-- replacement&#45;&gt;messages -->
<g id="edge52" class="edge">
<title>replacement&#45;&gt;messages</title>
<path fill="none" stroke="black" d="M1169.23,-642.84C1166.13,-606.65 1164.74,-547.53 1181.2,-499.98 1237.16,-338.33 1269.5,-291.14 1405.2,-186.98 1469.65,-137.51 1555.65,-105.71 1624.38,-86.43"/>
<polygon fill="black" stroke="black" points="1625.09,-89.87 1633.8,-83.85 1623.23,-83.12 1625.09,-89.87"/>
</g>
<!-- replacement&#45;&gt;opresult -->
<g id="edge55" class="edge">
<title>replacement&#45;&gt;opresult</title>
<path fill="none" stroke="black" d="M1246.45,-648.12C1297.76,-627.15 1366.94,-595.94 1423.2,-560.02 1458.03,-537.78 1458.46,-520.73 1494.2,-499.98 1854.52,-290.72 2366,-235.88 2558.22,-222.26"/>
<polygon fill="black" stroke="black" points="2558.35,-225.76 2568.09,-221.58 2557.87,-218.78 2558.35,-225.76"/>
</g>
<!-- replacement&#45;&gt;parseCmdLine -->
<g id="edge50" class="edge">
<title>replacement&#45;&gt;parseCmdLine</title>
<path fill="none" stroke="black" d="M1202.15,-643.46C1223.72,-619.22 1253,-586.3 1274.31,-562.35"/>
<polygon fill="black" stroke="black" points="1276.73,-564.89 1280.76,-555.1 1271.5,-560.24 1276.73,-564.89"/>
</g>
<!-- replacement&#45;&gt;tempFile -->
<g id="edge54" class="edge">
<title>replacement&#45;&gt;tempFile</title>
<path fill="none" stroke="black" d="M1162.15,-642.77C1149.49,-606.52 1126.98,-547.35 1100.2,-499.98 1082.52,-468.71 1058.32,-436.16 1039.04,-411.98"/>
<polygon fill="black" stroke="black" points="1041.86,-409.91 1032.86,-404.32 1036.41,-414.31 1041.86,-409.91"/>
</g>
<!-- replacement&#45;&gt;variables -->
<g id="edge53" class="edge">
<title>replacement&#45;&gt;variables</title>
<path fill="none" stroke="black" d="M1300.7,-665.34C1638.4,-637.1 2548.99,-560.95 2826.09,-537.78"/>
<polygon fill="black" stroke="black" points="2826.06,-541.3 2835.73,-536.98 2825.48,-534.32 2826.06,-541.3"/>
</g>
<!-- replacement&#45;&gt;vartypes -->
<g id="edge49" class="edge">
<title>replacement&#45;&gt;vartypes</title>
<path fill="none" stroke="black" d="M1249.88,-648.75C1315,-625.49 1410.89,-591 1494.2,-560.02 1564.22,-533.99 1580.46,-523.99 1651.2,-499.98 1778.53,-456.76 1812.97,-454.2 1941.2,-413.74 1953.94,-409.72 1967.4,-405.34 1980.51,-401.02"/>
<polygon fill="black" stroke="black" points="1981.6,-404.34 1989.99,-397.88 1979.39,-397.7 1981.6,-404.34"/>
</g>
<!-- runCommand&#45;&gt;env -->
<g id="edge25" class="edge">
<title>runCommand&#45;&gt;env</title>
<path fill="none" stroke="black" d="M2159.23,-1091.4C1865.61,-1073.02 1320.17,-1029.74 1141.2,-953.71 939.47,-868.01 931.98,-776.62 758.2,-643.06 717.33,-611.65 669.14,-576.95 637.69,-554.6"/>
<polygon fill="black" stroke="black" points="639.91,-551.89 629.73,-548.96 635.86,-557.6 639.91,-551.89"/>
</g>
<!-- runCommand&#45;&gt;linebuffer -->
<g id="edge22" class="edge">
<title>runCommand&#45;&gt;linebuffer</title>
<path fill="none" stroke="black" d="M2164.06,-1088.05C1906.73,-1066.73 1458.6,-1021.24 1310.2,-953.71 1291.42,-945.17 1040.68,-728.08 1029.2,-710.94 1000.39,-667.92 984.34,-609.86 976.24,-571.47"/>
<polygon fill="black" stroke="black" points="979.68,-570.82 974.27,-561.71 972.81,-572.21 979.68,-570.82"/>
</g>
<!-- runCommand&#45;&gt;matches -->
<g id="edge23" class="edge">
<title>runCommand&#45;&gt;matches</title>
<path fill="none" stroke="black" d="M2152.16,-1101.3C1894.89,-1095.67 1468.12,-1068.69 1369.2,-953.71 1328.21,-906.06 1358.53,-874.23 1369.2,-812.29 1377.32,-765.18 1389.55,-756.11 1405.2,-710.94 1428.38,-644.04 1434.16,-627.31 1456.2,-560.02 1473.55,-507.06 1492.96,-445.36 1504.62,-408.02"/>
<polygon fill="black" stroke="black" points="1507.89,-409.28 1507.53,-398.69 1501.21,-407.19 1507.89,-409.28"/>
</g>
<!-- runCommand&#45;&gt;messages -->
<g id="edge29" class="edge">
<title>runCommand&#45;&gt;messages</title>
<path fill="none" stroke="black" d="M2444.38,-1064.42C2688.03,-960.54 3311,-655.75 3099.2,-332.26 2965.24,-127.66 2186.98,-76.95 1872.23,-64.74"/>
<polygon fill="black" stroke="black" points="1872.42,-61.25 1862.29,-64.36 1872.15,-68.24 1872.42,-61.25"/>
</g>
<!-- runCommand&#45;&gt;opresult -->
<g id="edge67" class="edge">
<title>runCommand&#45;&gt;opresult</title>
<path fill="none" stroke="black" d="M2393.03,-1060.22C2419.04,-1032.18 2451.38,-993.26 2472.2,-953.71 2588.67,-732.44 2591.57,-660.79 2630.2,-413.74 2638.93,-357.89 2638.43,-292 2637,-252.68"/>
<polygon fill="black" stroke="black" points="2640.51,-252.74 2636.6,-242.89 2633.52,-253.02 2640.51,-252.74"/>
</g>
<!-- runCommand&#45;&gt;parseCmdLine -->
<g id="edge70" class="edge">
<title>runCommand&#45;&gt;parseCmdLine</title>
<path fill="none" stroke="black" d="M2164.52,-1087.81C1886.27,-1064.74 1389.54,-1015.41 1336.2,-953.71 1295.09,-906.16 1321.44,-873.39 1336.2,-812.29 1348.09,-763.08 1376.31,-760.15 1388.2,-710.94 1395.28,-681.61 1397.9,-671.63 1388.2,-643.06 1377.6,-611.83 1354.4,-582.49 1334.77,-561.67"/>
<polygon fill="black" stroke="black" points="1337.44,-559.39 1327.96,-554.65 1332.41,-564.27 1337.44,-559.39"/>
</g>
<!-- runCommand&#45;&gt;readjson -->
<g id="edge66" class="edge">
<title>runCommand&#45;&gt;readjson</title>
<path fill="none" stroke="black" d="M2352.81,-1059.4C2355.97,-975.48 2362.97,-790.21 2365.88,-712.93"/>
<polygon fill="black" stroke="black" points="2369.38,-713.12 2366.26,-703 2362.38,-712.86 2369.38,-713.12"/>
</g>
<!-- runCommand&#45;&gt;regexes -->
<g id="edge24" class="edge">
<title>runCommand&#45;&gt;regexes</title>
<path fill="none" stroke="black" d="M2343.45,-1059.31C2315.24,-905.81 2217.12,-387.96 2167.2,-332.26 2134.32,-295.58 2007.93,-257.99 1924.45,-236.38"/>
<polygon fill="black" stroke="black" points="1925.5,-233.03 1914.95,-233.94 1923.76,-239.82 1925.5,-233.03"/>
</g>
<!-- runFunction -->
<g id="node20" class="node">
<title>runFunction</title>
<g id="a_node20"><a xlink:href="runFunction.md" xlink:title="runFunction.md">
<ellipse fill="palegoldenrod" stroke="black" cx="1680.2" cy="-883" rx="301.87" ry="70.92"/>
<text text-anchor="middle" x="1680.2" y="-861.8" font-family="Times,serif" font-size="84.00">runFunction</text>
</a>
</g>
</g>
<!-- runCommand&#45;&gt;runFunction -->
<g id="edge65" class="edge">
<title>runCommand&#45;&gt;runFunction</title>
<path fill="none" stroke="black" d="M2241.9,-1066.49C2140.51,-1033.55 1987.54,-983.85 1866.83,-944.63"/>
<polygon fill="black" stroke="black" points="1868.02,-941.34 1857.43,-941.58 1865.86,-948 1868.02,-941.34"/>
</g>
<!-- runCommand&#45;&gt;unicodes -->
<g id="edge68" class="edge">
<title>runCommand&#45;&gt;unicodes</title>
<path fill="none" stroke="black" d="M2370.83,-1059.73C2405.9,-978.98 2473.12,-797.11 2445.2,-643.06 2440.22,-615.6 2428.91,-586.11 2419.27,-564.28"/>
<polygon fill="black" stroke="black" points="2422.52,-562.95 2415.2,-555.29 2416.14,-565.85 2422.52,-562.95"/>
</g>
<!-- runCommand&#45;&gt;utf8decoder -->
<g id="edge69" class="edge">
<title>runCommand&#45;&gt;utf8decoder</title>
<path fill="none" stroke="black" d="M2383.57,-1060.06C2403.69,-1031.65 2428.14,-992.37 2441.2,-953.71 2497.53,-787.01 2473.85,-735.74 2483.2,-560.02 2484.62,-533.37 2492.74,-524.9 2483.2,-499.98 2469.86,-465.12 2441.94,-433.84 2417.19,-411.17"/>
<polygon fill="black" stroke="black" points="2419.52,-408.56 2409.72,-404.52 2414.86,-413.79 2419.52,-408.56"/>
</g>
<!-- runCommand&#45;&gt;variables -->
<g id="edge34" class="edge">
<title>runCommand&#45;&gt;variables</title>
<path fill="none" stroke="black" d="M2430.98,-1062.89C2480.59,-1036.26 2543.9,-997.9 2592.2,-953.71 2627.74,-921.19 2817.9,-656.23 2884.3,-563.17"/>
<polygon fill="black" stroke="black" points="2887.04,-565.36 2889.99,-555.18 2881.34,-561.29 2887.04,-565.36"/>
</g>
<!-- runCommand&#45;&gt;vartypes -->
<g id="edge28" class="edge">
<title>runCommand&#45;&gt;vartypes</title>
<path fill="none" stroke="black" d="M2319.32,-1059.83C2298.9,-1031.16 2273.15,-991.68 2256.2,-953.71 2197.79,-822.9 2216.5,-778.63 2170.2,-643.06 2142.43,-561.74 2102.94,-469.57 2079.6,-416.96"/>
<polygon fill="black" stroke="black" points="2082.9,-415.75 2075.63,-408.04 2076.51,-418.6 2082.9,-415.75"/>
</g>
<!-- runFunction&#45;&gt;matches -->
<g id="edge39" class="edge">
<title>runFunction&#45;&gt;matches</title>
<path fill="none" stroke="black" d="M1613.92,-813.46C1589.6,-784.18 1564.54,-748.19 1550.2,-710.94 1516.39,-623.12 1542.49,-593.51 1532.2,-499.98 1528.78,-468.92 1523.94,-433.68 1520.3,-408.39"/>
<polygon fill="black" stroke="black" points="1523.79,-408.07 1518.89,-398.67 1516.87,-409.07 1523.79,-408.07"/>
</g>
<!-- runFunction&#45;&gt;messages -->
<g id="edge35" class="edge">
<title>runFunction&#45;&gt;messages</title>
<path fill="none" stroke="black" d="M1664.6,-812.06C1658.48,-781.23 1652.21,-744.46 1649.2,-710.94 1629.05,-486.81 1694.16,-221.64 1724.96,-112.18"/>
<polygon fill="black" stroke="black" points="1728.32,-113.18 1727.69,-102.61 1721.58,-111.27 1728.32,-113.18"/>
</g>
<!-- runFunction&#45;&gt;opresult -->
<g id="edge58" class="edge">
<title>runFunction&#45;&gt;opresult</title>
<path fill="none" stroke="black" d="M1942.6,-847.74C2131.94,-818.56 2367.37,-771.72 2445.2,-710.94 2594.63,-594.24 2626.62,-344.59 2633.4,-252.8"/>
<polygon fill="black" stroke="black" points="2636.88,-253.14 2634.07,-242.92 2629.9,-252.66 2636.88,-253.14"/>
</g>
<!-- runFunction&#45;&gt;parseNumber -->
<g id="edge38" class="edge">
<title>runFunction&#45;&gt;parseNumber</title>
<path fill="none" stroke="black" d="M1728.47,-812.65C1750.84,-780.52 1776.57,-743.55 1795.41,-716.49"/>
<polygon fill="black" stroke="black" points="1798.06,-718.8 1800.9,-708.6 1792.32,-714.8 1798.06,-718.8"/>
</g>
<!-- runFunction&#45;&gt;readjson -->
<g id="edge64" class="edge">
<title>runFunction&#45;&gt;readjson</title>
<path fill="none" stroke="black" d="M1866.11,-826.79C2012.09,-783.45 2206.54,-725.71 2304.76,-696.54"/>
<polygon fill="black" stroke="black" points="2305.64,-699.93 2314.23,-693.73 2303.65,-693.22 2305.64,-699.93"/>
</g>
<!-- runFunction&#45;&gt;regexes -->
<g id="edge37" class="edge">
<title>runFunction&#45;&gt;regexes</title>
<path fill="none" stroke="black" d="M1669.2,-811.65C1664.93,-761.2 1666.94,-693.53 1697.2,-643.06 1732.84,-583.62 1794.02,-619.74 1829.2,-560.02 1885.7,-464.12 1869.74,-325.62 1857.07,-258.08"/>
<polygon fill="black" stroke="black" points="1860.57,-257.72 1855.21,-248.58 1853.7,-259.06 1860.57,-257.72"/>
</g>
<!-- runFunction&#45;&gt;replacement -->
<g id="edge57" class="edge">
<title>runFunction&#45;&gt;replacement</title>
<path fill="none" stroke="black" d="M1529.11,-821.21C1438.99,-784.94 1328.1,-740.33 1254.29,-710.63"/>
<polygon fill="black" stroke="black" points="1255.66,-707.41 1245.08,-706.92 1253.05,-713.9 1255.66,-707.41"/>
</g>
<!-- signatures -->
<g id="node22" class="node">
<title>signatures</title>
<g id="a_node22"><a xlink:href="signatures.md" xlink:title="signatures.md">
<ellipse fill="palegoldenrod" stroke="black" cx="1740.2" cy="-530" rx="79.81" ry="24.08"/>
<text text-anchor="middle" x="1740.2" y="-523.8" font-family="Times,serif" font-size="24.00">signatures</text>
</a>
</g>
</g>
<!-- runFunction&#45;&gt;signatures -->
<g id="edge47" class="edge">
<title>runFunction&#45;&gt;signatures</title>
<path fill="none" stroke="black" d="M1662.45,-811.72C1653.34,-763.29 1647.32,-698 1664.2,-643.06 1673.56,-612.58 1694.33,-582.95 1711.8,-561.81"/>
<polygon fill="black" stroke="black" points="1714.25,-564.34 1718.06,-554.45 1708.91,-559.8 1714.25,-564.34"/>
</g>
<!-- runFunction&#45;&gt;unicodes -->
<g id="edge44" class="edge">
<title>runFunction&#45;&gt;unicodes</title>
<path fill="none" stroke="black" d="M1810.71,-818.64C1973.05,-739.83 2242.34,-609.1 2353.18,-555.28"/>
<polygon fill="black" stroke="black" points="2354.57,-558.5 2362.04,-550.98 2351.52,-552.2 2354.57,-558.5"/>
</g>
<!-- runFunction&#45;&gt;vartypes -->
<g id="edge36" class="edge">
<title>runFunction&#45;&gt;vartypes</title>
<path fill="none" stroke="black" d="M1822.24,-819.95C1868.79,-792.9 1916.41,-756.74 1947.2,-710.94 2000.4,-631.81 1952.88,-589.32 1986.2,-499.98 1997.3,-470.21 2015.25,-439.42 2030.69,-415.73"/>
<polygon fill="black" stroke="black" points="2033.46,-417.89 2036.07,-407.62 2027.63,-414.02 2033.46,-417.89"/>
</g>
<!-- runner -->
<g id="node21" class="node">
<title>runner</title>
<g id="a_node21"><a xlink:href="runner.md" xlink:title="runner.md">
<polygon fill="palegreen" stroke="black" points="3339.57,-1681.69 3339.57,-1712.31 3290.15,-1733.95 3220.25,-1733.95 3170.83,-1712.31 3170.83,-1681.69 3220.25,-1660.05 3290.15,-1660.05 3339.57,-1681.69"/>
<polygon fill="none" stroke="black" points="3343.58,-1679.06 3343.58,-1714.94 3290.98,-1737.98 3219.41,-1737.98 3166.82,-1714.94 3166.82,-1679.06 3219.41,-1656.02 3290.98,-1656.02 3343.58,-1679.06"/>
<text text-anchor="middle" x="3255.2" y="-1688.2" font-family="Times,serif" font-size="36.00">runner</text>
</a>
</g>
</g>
<!-- signatures&#45;&gt;messages -->
<g id="edge46" class="edge">
<title>signatures&#45;&gt;messages</title>
<path fill="none" stroke="black" d="M1740.2,-505.47C1740.2,-433.26 1740.2,-213.61 1740.2,-112.7"/>
<polygon fill="black" stroke="black" points="1743.7,-112.8 1740.2,-102.8 1736.7,-112.8 1743.7,-112.8"/>
</g>
<!-- signatures&#45;&gt;vartypes -->
<g id="edge45" class="edge">
<title>signatures&#45;&gt;vartypes</title>
<path fill="none" stroke="black" d="M1781.38,-509.05C1835.22,-482.98 1930.17,-436.98 1994.13,-406"/>
<polygon fill="black" stroke="black" points="1995.28,-409.33 2002.75,-401.83 1992.23,-403.03 1995.28,-409.33"/>
</g>
<!-- startingvars&#45;&gt;args -->
<g id="edge75" class="edge">
<title>startingvars&#45;&gt;args</title>
<path fill="none" stroke="black" d="M1836.4,-1367.28C1693.09,-1346.97 1392.08,-1289.42 1184.2,-1146.13 902.37,-951.88 756.57,-530.41 719.08,-407.98"/>
<polygon fill="black" stroke="black" points="722.47,-407.1 716.23,-398.54 715.77,-409.12 722.47,-407.1"/>
</g>
<!-- startingvars&#45;&gt;codefile -->
<g id="edge90" class="edge">
<title>startingvars&#45;&gt;codefile</title>
<path fill="none" stroke="black" d="M1957.22,-1355.92C1995.81,-1335.08 2054.89,-1303.16 2095.85,-1281.04"/>
<polygon fill="black" stroke="black" points="2097.39,-1284.19 2104.52,-1276.35 2094.06,-1278.03 2097.39,-1284.19"/>
</g>
<!-- startingvars&#45;&gt;env -->
<g id="edge77" class="edge">
<title>startingvars&#45;&gt;env</title>
<path fill="none" stroke="black" d="M1830.47,-1371.69C1588.25,-1355.21 918.24,-1296.67 768.2,-1146.13 684,-1061.65 625.2,-682.36 608.83,-565.43"/>
<polygon fill="black" stroke="black" points="612.33,-565.26 607.5,-555.84 605.4,-566.22 612.33,-565.26"/>
</g>
<!-- startingvars&#45;&gt;messages -->
<g id="edge76" class="edge">
<title>startingvars&#45;&gt;messages</title>
<path fill="none" stroke="black" d="M1827.47,-1377.46C1658.79,-1373.42 1294.64,-1340.98 1080.2,-1146.13 873.81,-958.59 890.46,-836.78 856.2,-560.02 849.32,-504.46 849.44,-358.8 861.2,-332.26 898.94,-247.12 929.11,-229.05 1012.2,-186.98 1114.29,-135.28 1427.71,-94.45 1608.28,-74.45"/>
<polygon fill="black" stroke="black" points="1608.65,-77.93 1618.21,-73.36 1607.89,-70.98 1608.65,-77.93"/>
</g>
<!-- startingvars&#45;&gt;opresult -->
<g id="edge81" class="edge">
<title>startingvars&#45;&gt;opresult</title>
<path fill="none" stroke="black" d="M2008.46,-1375.25C2119.2,-1369.89 2310.2,-1350.03 2456.2,-1279.04 2536.3,-1240.09 2553.66,-1218.06 2606.2,-1146.13 2814.8,-860.54 2687.18,-382.84 2646.4,-252.01"/>
<polygon fill="black" stroke="black" points="2649.76,-251.05 2643.41,-242.57 2643.09,-253.16 2649.76,-251.05"/>
</g>
<!-- startingvars&#45;&gt;readjson -->
<g id="edge80" class="edge">
<title>startingvars&#45;&gt;readjson</title>
<path fill="none" stroke="black" d="M2008.49,-1375.35C2153.64,-1367.2 2435.13,-1327.46 2559.2,-1146.13 2661.14,-997.14 2475.67,-785.67 2398.55,-708.06"/>
<polygon fill="black" stroke="black" points="2401.2,-705.76 2391.65,-701.18 2396.27,-710.72 2401.2,-705.76"/>
</g>
<!-- startingvars&#45;&gt;runFunction -->
<g id="edge91" class="edge">
<title>startingvars&#45;&gt;runFunction</title>
<path fill="none" stroke="black" d="M1907.04,-1353.88C1873.81,-1285.05 1774.38,-1079.08 1718.82,-964.01"/>
<polygon fill="black" stroke="black" points="1722.08,-962.69 1714.58,-955.21 1715.77,-965.74 1722.08,-962.69"/>
</g>
<!-- startingvars&#45;&gt;variables -->
<g id="edge78" class="edge">
<title>startingvars&#45;&gt;variables</title>
<path fill="none" stroke="black" d="M2006.81,-1372.61C2173.03,-1363.13 2524.42,-1336.73 2630.2,-1279.04 2895.5,-1134.35 2909.78,-692.83 2908.22,-565.63"/>
<polygon fill="black" stroke="black" points="2911.72,-565.77 2908.05,-555.83 2904.72,-565.89 2911.72,-565.77"/>
</g>
<!-- startingvars&#45;&gt;vartypes -->
<g id="edge79" class="edge">
<title>startingvars&#45;&gt;vartypes</title>
<path fill="none" stroke="black" d="M1925,-1353.81C1943.41,-1290.32 1994.79,-1108.13 2024.2,-953.71 2044.56,-846.8 2048.43,-819.49 2056.2,-710.94 2063.69,-606.29 2062.65,-482.91 2061.35,-418.4"/>
<polygon fill="black" stroke="black" points="2064.86,-418.49 2061.14,-408.57 2057.86,-418.64 2064.86,-418.49"/>
</g>
<!-- statictea -->
<g id="node24" class="node">
<title>statictea</title>
<g id="a_node24"><a xlink:href="statictea.md" xlink:title="statictea.md">
<polygon fill="palegoldenrod" stroke="black" points="2730.2,-1758 2557.2,-1697 2730.2,-1636 2903.2,-1697 2730.2,-1758"/>
<text text-anchor="middle" x="2730.2" y="-1685.1" font-family="Times,serif" font-size="48.00">statictea</text>
</a>
</g>
</g>
<!-- statictea&#45;&gt;args -->
<g id="edge107" class="edge">
<title>statictea&#45;&gt;args</title>
<path fill="none" stroke="black" d="M2571.48,-1691.48C2090.82,-1676.87 672.43,-1626.83 484.2,-1540.02 393.15,-1498.03 326.2,-1479.26 326.2,-1379 326.2,-1379 326.2,-1379 326.2,-676 326.2,-591.97 336.02,-559.63 395.2,-499.98 468.52,-426.07 590.84,-394.11 659.15,-381.45"/>
<polygon fill="black" stroke="black" points="659.72,-384.9 668.96,-379.7 658.5,-378.01 659.72,-384.9"/>
</g>
<!-- statictea&#45;&gt;env -->
<g id="edge111" class="edge">
<title>statictea&#45;&gt;env</title>
<path fill="none" stroke="black" d="M2570.37,-1691.88C2161.22,-1679.99 1084.18,-1639.87 742.2,-1540.02 596.19,-1497.39 440.2,-1531.11 440.2,-1379 440.2,-1379 440.2,-1379 440.2,-1102 440.2,-895.03 436.75,-832.9 519.2,-643.06 533.05,-611.17 557.79,-580.09 577.02,-558.78"/>
<polygon fill="black" stroke="black" points="579.37,-561.39 583.58,-551.67 574.23,-556.64 579.37,-561.39"/>
</g>
<!-- statictea&#45;&gt;gethelp -->
<g id="edge109" class="edge">
<title>statictea&#45;&gt;gethelp</title>
<path fill="none" stroke="black" d="M2816.85,-1666.14C2846.91,-1656.13 2880.91,-1645.18 2912.2,-1636 3076.04,-1587.92 3120.62,-1588.97 3284.2,-1540.02 3290.77,-1538.06 3297.59,-1535.91 3304.38,-1533.7"/>
<polygon fill="black" stroke="black" points="3305.15,-1537.13 3313.55,-1530.68 3302.95,-1530.49 3305.15,-1537.13"/>
</g>
<!-- statictea&#45;&gt;messages -->
<g id="edge108" class="edge">
<title>statictea&#45;&gt;messages</title>
<path fill="none" stroke="black" d="M2816.56,-1665.92C2914.07,-1631.13 3065.72,-1574.25 3116.2,-1540.02 3198.16,-1484.45 3270.2,-1478.03 3270.2,-1379 3270.2,-1379 3270.2,-1379 3270.2,-372 3270.2,-303.65 3243.79,-253.81 3102.2,-186.98 2886.4,-85.11 2169.99,-65.55 1872,-61.84"/>
<polygon fill="black" stroke="black" points="1872.27,-58.34 1862.23,-61.72 1872.18,-65.34 1872.27,-58.34"/>
</g>
<!-- statictea&#45;&gt;opresult -->
<g id="edge112" class="edge">
<title>statictea&#45;&gt;opresult</title>
<path fill="none" stroke="black" d="M2810.12,-1663.66C2949.93,-1604.54 3224.2,-1476.19 3224.2,-1379 3224.2,-1379 3224.2,-1379 3224.2,-1102 3224.2,-755.41 3334.22,-587 3099.2,-332.26 3072.37,-303.18 2827.8,-253.98 2704.95,-230.8"/>
<polygon fill="black" stroke="black" points="2705.77,-227.4 2695.3,-228.99 2704.48,-234.28 2705.77,-227.4"/>
</g>
<!-- statictea&#45;&gt;parseCommandLine -->
<g id="edge9" class="edge">
<title>statictea&#45;&gt;parseCommandLine</title>
<path fill="none" stroke="black" d="M2563.66,-1694.27C2048.23,-1687.67 502.38,-1658.13 312.2,-1540.02 241.99,-1496.42 219.2,-1461.64 219.2,-1379 219.2,-1379 219.2,-1379 219.2,-882 219.2,-763.84 180.57,-627.54 160.71,-565.26"/>
<polygon fill="black" stroke="black" points="164.1,-564.39 157.7,-555.95 157.44,-566.54 164.1,-564.39"/>
</g>
<!-- statictea&#45;&gt;processTemplate -->
<g id="edge94" class="edge">
<title>statictea&#45;&gt;processTemplate</title>
<path fill="none" stroke="black" d="M2596.42,-1682.66C2249.78,-1648.09 1326.49,-1556.01 995.43,-1522.99"/>
<polygon fill="black" stroke="black" points="996.19,-1519.55 985.89,-1522.04 995.49,-1526.51 996.19,-1519.55"/>
</g>
<!-- statictea&#45;&gt;repl -->
<g id="edge123" class="edge">
<title>statictea&#45;&gt;repl</title>
<path fill="none" stroke="black" d="M2730.2,-1635.68C2730.2,-1605.82 2730.2,-1570.86 2730.2,-1545.56"/>
<polygon fill="black" stroke="black" points="2733.7,-1545.85 2730.2,-1535.85 2726.7,-1545.85 2733.7,-1545.85"/>
</g>
<!-- timer -->
<g id="node26" class="node">
<title>timer</title>
<g id="a_node26"><a xlink:href="timer.md" xlink:title="timer.md">
<polygon fill="palegreen" stroke="black" points="3566.29,-1499.21 3566.29,-1520.79 3535.77,-1536.04 3492.62,-1536.04 3462.11,-1520.79 3462.11,-1499.21 3492.62,-1483.96 3535.77,-1483.96 3566.29,-1499.21"/>
<polygon fill="none" stroke="black" points="3570.29,-1496.74 3570.29,-1523.26 3536.72,-1540.04 3491.68,-1540.04 3458.11,-1523.26 3458.11,-1496.74 3491.68,-1479.96 3536.72,-1479.96 3570.29,-1496.74"/>
<text text-anchor="middle" x="3514.2" y="-1503.8" font-family="Times,serif" font-size="24.00">timer</text>
</a>
</g>
</g>
<!-- statictea&#45;&gt;timer -->
<g id="edge124" class="edge">
<title>statictea&#45;&gt;timer</title>
<path fill="none" stroke="black" d="M2814.65,-1665.4C2845.12,-1655.09 2879.94,-1644.16 2912.2,-1636 3147.25,-1576.57 3217.47,-1611.3 3449.2,-1540.02 3453.65,-1538.65 3458.2,-1537.06 3462.72,-1535.33"/>
<polygon fill="black" stroke="black" points="3463.8,-1538.67 3471.76,-1531.69 3461.18,-1532.18 3463.8,-1538.67"/>
</g>
<!-- updateTemplate -->
<g id="node28" class="node">
<title>updateTemplate</title>
<g id="a_node28"><a xlink:href="updateTemplate.md" xlink:title="updateTemplate.md">
<ellipse fill="palegoldenrod" stroke="black" cx="1615.2" cy="-1510" rx="119.5" ry="24.08"/>
<text text-anchor="middle" x="1615.2" y="-1503.8" font-family="Times,serif" font-size="24.00">updateTemplate</text>
</a>
</g>
</g>
<!-- statictea&#45;&gt;updateTemplate -->
<g id="edge106" class="edge">
<title>statictea&#45;&gt;updateTemplate</title>
<path fill="none" stroke="black" d="M2613.51,-1676.64C2394.3,-1640.27 1924.44,-1562.31 1717.1,-1527.91"/>
<polygon fill="black" stroke="black" points="1717.85,-1524.48 1707.41,-1526.3 1716.71,-1531.39 1717.85,-1524.48"/>
</g>
<!-- version -->
<g id="node32" class="node">
<title>version</title>
<g id="a_node32"><a xlink:href="version.md" xlink:title="version.md">
<polygon fill="palegreen" stroke="black" points="3085.87,-362.21 3085.87,-383.79 3046.81,-399.04 2991.58,-399.04 2952.53,-383.79 2952.53,-362.21 2991.58,-346.96 3046.81,-346.96 3085.87,-362.21"/>
<polygon fill="none" stroke="black" points="3089.87,-359.48 3089.87,-386.52 3047.57,-403.04 2990.83,-403.04 2948.53,-386.52 2948.53,-359.48 2990.83,-342.96 3047.57,-342.96 3089.87,-359.48"/>
<text text-anchor="middle" x="3019.2" y="-366.8" font-family="Times,serif" font-size="24.00">version</text>
</a>
</g>
</g>
<!-- statictea&#45;&gt;version -->
<g id="edge110" class="edge">
<title>statictea&#45;&gt;version</title>
<path fill="none" stroke="black" d="M2800.16,-1660.41C2919.16,-1597.53 3148.2,-1465.3 3148.2,-1379 3148.2,-1379 3148.2,-1379 3148.2,-1102 3148.2,-836.08 3063.72,-523.79 3031.49,-414.33"/>
<polygon fill="black" stroke="black" points="3034.9,-413.53 3028.7,-404.94 3028.19,-415.52 3034.9,-413.53"/>
</g>
<!-- unicodes&#45;&gt;messages -->
<g id="edge41" class="edge">
<title>unicodes&#45;&gt;messages</title>
<path fill="none" stroke="black" d="M2425.04,-506.68C2458.79,-469.36 2516.45,-392.45 2483.2,-332.26 2424.55,-226.1 2363.85,-234.36 2252.2,-186.98 2127.48,-134.05 1975.82,-100.21 1870.07,-81.08"/>
<polygon fill="black" stroke="black" points="1870.97,-77.69 1860.51,-79.37 1869.74,-84.58 1870.97,-77.69"/>
</g>
<!-- unicodes&#45;&gt;opresult -->
<g id="edge40" class="edge">
<title>unicodes&#45;&gt;opresult</title>
<path fill="none" stroke="black" d="M2427.9,-507.13C2452.07,-485 2489.09,-449.1 2516.2,-413.74 2541.77,-380.38 2542.44,-368.22 2564.2,-332.26 2581.05,-304.41 2600.6,-273.02 2614.91,-250.2"/>
<polygon fill="black" stroke="black" points="2617.74,-252.28 2620.09,-241.95 2611.81,-248.56 2617.74,-252.28"/>
</g>
<!-- unicodes&#45;&gt;utf8decoder -->
<g id="edge42" class="edge">
<title>unicodes&#45;&gt;utf8decoder</title>
<path fill="none" stroke="black" d="M2398.26,-505.79C2393.13,-481.71 2385.01,-443.58 2378.82,-414.51"/>
<polygon fill="black" stroke="black" points="2382.29,-414 2376.79,-404.95 2375.45,-415.46 2382.29,-414"/>
</g>
<!-- unicodes&#45;&gt;vartypes -->
<g id="edge43" class="edge">
<title>unicodes&#45;&gt;vartypes</title>
<path fill="none" stroke="black" d="M2361.48,-510.15C2303.75,-484.06 2198.74,-436.61 2129.22,-405.19"/>
<polygon fill="black" stroke="black" points="2130.74,-402.04 2120.19,-401.11 2127.86,-408.42 2130.74,-402.04"/>
</g>
<!-- updateTemplate&#45;&gt;args -->
<g id="edge95" class="edge">
<title>updateTemplate&#45;&gt;args</title>
<path fill="none" stroke="black" d="M1500.44,-1502.88C1368,-1492.94 1145.31,-1467.28 965.2,-1402.04 793.65,-1339.9 729.57,-1307.38 644.2,-1146.13 508.67,-890.14 435.93,-762.09 559.2,-499.98 581.82,-451.88 632.74,-415.55 668.96,-394.55"/>
<polygon fill="black" stroke="black" points="670.44,-397.74 677.44,-389.78 667.01,-391.64 670.44,-397.74"/>
</g>
<!-- updateTemplate&#45;&gt;env -->
<g id="edge97" class="edge">
<title>updateTemplate&#45;&gt;env</title>
<path fill="none" stroke="black" d="M1495.62,-1508.39C1274.43,-1499.86 806.6,-1445.46 616.2,-1146.13 495.71,-956.71 564.98,-663.69 593.63,-564.86"/>
<polygon fill="black" stroke="black" points="596.92,-566.09 596.4,-555.51 590.21,-564.1 596.92,-566.09"/>
</g>
<!-- updateTemplate&#45;&gt;linebuffer -->
<g id="edge98" class="edge">
<title>updateTemplate&#45;&gt;linebuffer</title>
<path fill="none" stroke="black" d="M1497.28,-1505.47C1337.48,-1497.96 1064.74,-1474.58 1001.2,-1402.04 786.37,-1156.81 910.47,-707.43 955.18,-571.19"/>
<polygon fill="black" stroke="black" points="958.44,-572.49 958.27,-561.89 951.8,-570.28 958.44,-572.49"/>
</g>
<!-- updateTemplate&#45;&gt;messages -->
<g id="edge96" class="edge">
<title>updateTemplate&#45;&gt;messages</title>
<path fill="none" stroke="black" d="M1734.19,-1507.04C2045.61,-1500.87 2867.18,-1477.55 2962.2,-1402.04 3262.1,-1163.72 3117.26,-941.99 3146.2,-560.02 3153.87,-458.84 3180.62,-420.32 3130.2,-332.26 3075.43,-236.61 3032.14,-226.4 2929.2,-186.98 2738.69,-114.02 2139.82,-78.83 1871.95,-66.42"/>
<polygon fill="black" stroke="black" points="1872.28,-62.93 1862.13,-65.97 1871.96,-69.93 1872.28,-62.93"/>
</g>
<!-- updateTemplate&#45;&gt;opresult -->
<g id="edge105" class="edge">
<title>updateTemplate&#45;&gt;opresult</title>
<path fill="none" stroke="black" d="M1730.32,-1503.32C1965.55,-1490.74 2493.58,-1457.17 2665.2,-1402.04 2789.55,-1362.1 2920.2,-1386.6 2920.2,-1256 2920.2,-1256 2920.2,-1256 2920.2,-1102 2920.2,-1096.57 2785.01,-336.91 2782.2,-332.26 2758.63,-293.28 2716.47,-262.59 2683.32,-242.88"/>
<polygon fill="black" stroke="black" points="2685.07,-239.85 2674.67,-237.87 2681.57,-245.91 2685.07,-239.85"/>
</g>
<!-- updateTemplate&#45;&gt;parseCmdLine -->
<g id="edge99" class="edge">
<title>updateTemplate&#45;&gt;parseCmdLine</title>
<path fill="none" stroke="black" d="M1521.02,-1494.78C1453.25,-1480.64 1362.78,-1453.35 1298.2,-1402.04 1247.89,-1362.07 1239.76,-1340.86 1222.2,-1279.04 1165.52,-1079.49 1131.87,-999.03 1222.2,-812.29 1253.8,-746.97 1318.6,-776.26 1350.2,-710.94 1373.62,-662.52 1346.33,-601.04 1324.35,-563.93"/>
<polygon fill="black" stroke="black" points="1327.34,-562.11 1319.13,-555.42 1321.38,-565.78 1327.34,-562.11"/>
</g>
<!-- updateTemplate&#45;&gt;replacement -->
<g id="edge103" class="edge">
<title>updateTemplate&#45;&gt;replacement</title>
<path fill="none" stroke="black" d="M1500.17,-1503.23C1349.2,-1493.17 1095.86,-1466.9 1032.2,-1402.04 986.12,-1355.1 1008.2,-1321.78 1008.2,-1256 1008.2,-1256 1008.2,-1256 1008.2,-1102 1008.2,-953.27 1097.47,-793.94 1144.68,-720.07"/>
<polygon fill="black" stroke="black" points="1147.46,-722.22 1149.95,-711.92 1141.58,-718.42 1147.46,-722.22"/>
</g>
<!-- updateTemplate&#45;&gt;runCommand -->
<g id="edge100" class="edge">
<title>updateTemplate&#45;&gt;runCommand</title>
<path fill="none" stroke="black" d="M1731.25,-1503.89C1982.93,-1491.81 2561.89,-1458.2 2630.2,-1402.04 2690.37,-1352.58 2711.85,-1295.47 2668.2,-1230.96 2634.49,-1181.14 2577.7,-1150.87 2521.43,-1132.48"/>
<polygon fill="black" stroke="black" points="2522.6,-1129.18 2512.01,-1129.52 2520.5,-1135.85 2522.6,-1129.18"/>
</g>
<!-- updateTemplate&#45;&gt;startingvars -->
<g id="edge104" class="edge">
<title>updateTemplate&#45;&gt;startingvars</title>
<path fill="none" stroke="black" d="M1664.89,-1487.68C1718.68,-1464.6 1804.32,-1427.86 1860.9,-1403.58"/>
<polygon fill="black" stroke="black" points="1862.27,-1406.81 1870.08,-1399.65 1859.51,-1400.37 1862.27,-1406.81"/>
</g>
<!-- updateTemplate&#45;&gt;variables -->
<g id="edge101" class="edge">
<title>updateTemplate&#45;&gt;variables</title>
<path fill="none" stroke="black" d="M1734.64,-1507.63C2042.96,-1502.96 2847.62,-1483.05 2934.2,-1402.04 3034.94,-1307.79 3005.7,-767.59 2972.2,-643.06 2964.3,-613.68 2946.59,-584.06 2931.66,-562.65"/>
<polygon fill="black" stroke="black" points="2934.59,-560.74 2925.92,-554.66 2928.9,-564.82 2934.59,-560.74"/>
</g>
<!-- updateTemplate&#45;&gt;vartypes -->
<g id="edge102" class="edge">
<title>updateTemplate&#45;&gt;vartypes</title>
<path fill="none" stroke="black" d="M1637.06,-1485.92C1703.7,-1414.02 1904.98,-1184.99 1991.2,-953.71 2027.87,-855.35 2050.37,-536.63 2057.63,-418.55"/>
<polygon fill="black" stroke="black" points="2061.12,-418.81 2058.23,-408.62 2054.13,-418.39 2061.12,-418.81"/>
</g>
<!-- variables&#45;&gt;messages -->
<g id="edge32" class="edge">
<title>variables&#45;&gt;messages</title>
<path fill="none" stroke="black" d="M2904.84,-505.71C2900.12,-467.31 2887.01,-389.29 2854.2,-332.26 2808.86,-253.46 2791.68,-227.3 2710.2,-186.98 2565.76,-115.51 2102.32,-80.77 1872.28,-67.58"/>
<polygon fill="black" stroke="black" points="1872.53,-64.09 1862.35,-67.01 1872.13,-71.08 1872.53,-64.09"/>
</g>
<!-- variables&#45;&gt;opresult -->
<g id="edge33" class="edge">
<title>variables&#45;&gt;opresult</title>
<path fill="none" stroke="black" d="M2898.94,-505.84C2882.28,-460.01 2844.19,-359.78 2820.2,-332.26 2784.15,-290.9 2729.4,-259.67 2688.8,-240.41"/>
<polygon fill="black" stroke="black" points="2690.46,-237.32 2679.92,-236.28 2687.52,-243.67 2690.46,-237.32"/>
</g>
<!-- variables&#45;&gt;vartypes -->
<g id="edge30" class="edge">
<title>variables&#45;&gt;vartypes</title>
<path fill="none" stroke="black" d="M2843.45,-518.21C2726.9,-498.36 2471.71,-454.39 2257.2,-413.74 2223.48,-407.35 2186.58,-400 2153.93,-393.37"/>
<polygon fill="black" stroke="black" points="2155.01,-390.02 2144.51,-391.46 2153.61,-396.88 2155.01,-390.02"/>
</g>
<!-- variables&#45;&gt;version -->
<g id="edge31" class="edge">
<title>variables&#45;&gt;version</title>
<path fill="none" stroke="black" d="M2923.73,-506.13C2941.52,-481.51 2970.12,-441.92 2991.39,-412.49"/>
<polygon fill="black" stroke="black" points="2994.1,-414.71 2997.12,-404.55 2988.43,-410.61 2994.1,-414.71"/>
</g>
<!-- vartypes&#45;&gt;messages -->
<g id="edge26" class="edge">
<title>vartypes&#45;&gt;messages</title>
<path fill="none" stroke="black" d="M2042.22,-339.52C2019.45,-300.3 1977.31,-233.76 1929.2,-186.98 1895.33,-154.05 1851.77,-124.35 1815.01,-102.07"/>
<polygon fill="black" stroke="black" points="1817.01,-99.19 1806.63,-97.06 1813.41,-105.2 1817.01,-99.19"/>
</g>
<!-- vartypes&#45;&gt;opresult -->
<g id="edge27" class="edge">
<title>vartypes&#45;&gt;opresult</title>
<path fill="none" stroke="black" d="M2136.56,-351.55C2251.03,-320.89 2465.06,-263.57 2571.58,-235.04"/>
<polygon fill="black" stroke="black" points="2572.26,-238.48 2581.02,-232.51 2570.45,-231.72 2572.26,-238.48"/>
</g>
</g>
</svg>
