<?xml version="1.0" encoding="UTF-8" standalone="no"?>
<!DOCTYPE svg PUBLIC "-//W3C//DTD SVG 1.1//EN"
 "http://www.w3.org/Graphics/SVG/1.1/DTD/svg11.dtd">
<!-- Generated by graphviz version 2.40.1 (20161225.0304)
 -->
<!-- Title: statictea Pages: 1 -->
<svg width="720pt" height="332pt"
 viewBox="0.00 0.00 720.00 332.04" xmlns="http://www.w3.org/2000/svg" xmlns:xlink="http://www.w3.org/1999/xlink">
<g id="graph0" class="graph" transform="scale(.2244 .2244) rotate(0) translate(4 1475.4147)">
<title>statictea</title>
<polygon fill="#ffffff" stroke="transparent" points="-4,4 -4,-1475.4147 3204,-1475.4147 3204,4 -4,4"/>
<!-- runFunction -->
<g id="node1" class="node">
<title>runFunction</title>
<g id="a_node1"><a xlink:href="runFunction.md" xlink:title="runFunction.md">
<ellipse fill="#eee8aa" stroke="#000000" cx="2291" cy="-890" rx="94.055" ry="22.7556"/>
<text text-anchor="middle" x="2291" y="-882.8" font-family="Times,serif" font-size="24.00" fill="#000000">runFunction</text>
</a>
</g>
</g>
<!-- parseNumber -->
<g id="node3" class="node">
<title>parseNumber</title>
<g id="a_node3"><a xlink:href="parseNumber.md" xlink:title="parseNumber.md">
<polygon fill="#98fb98" stroke="#000000" points="2202.3805,-743.8581 2202.3805,-764.1419 2137.1353,-778.4846 2044.8647,-778.4846 1979.6195,-764.1419 1979.6195,-743.8581 2044.8647,-729.5154 2137.1353,-729.5154 2202.3805,-743.8581"/>
<polygon fill="none" stroke="#000000" points="2206.3872,-740.6442 2206.3872,-767.3558 2137.5714,-782.4835 2044.4286,-782.4835 1975.6128,-767.3558 1975.6128,-740.6442 2044.4286,-725.5165 2137.5714,-725.5165 2206.3872,-740.6442"/>
<text text-anchor="middle" x="2091" y="-746.8" font-family="Times,serif" font-size="24.00" fill="#000000">parseNumber</text>
</a>
</g>
</g>
<!-- runFunction&#45;&gt;parseNumber -->
<g id="edge64" class="edge">
<title>runFunction&#45;&gt;parseNumber</title>
<path fill="none" stroke="#000000" d="M2259.3094,-868.4504C2227.6985,-846.955 2178.6433,-813.5974 2141.632,-788.4298"/>
<polygon fill="#000000" stroke="#000000" points="2143.2153,-785.2739 2132.978,-782.545 2139.2791,-791.0624 2143.2153,-785.2739"/>
</g>
<!-- regexes -->
<g id="node4" class="node">
<title>regexes</title>
<g id="a_node4"><a xlink:href="regexes.md" xlink:title="regexes.md">
<polygon fill="#98fb98" stroke="#000000" points="1074.187,-452.8581 1074.187,-473.1419 1034.244,-487.4846 977.756,-487.4846 937.813,-473.1419 937.813,-452.8581 977.756,-438.5154 1034.244,-438.5154 1074.187,-452.8581"/>
<polygon fill="none" stroke="#000000" points="1078.1781,-450.0434 1078.1781,-475.9566 1034.9376,-491.4835 977.0624,-491.4835 933.8219,-475.9566 933.8219,-450.0434 977.0624,-434.5165 1034.9376,-434.5165 1078.1781,-450.0434"/>
<text text-anchor="middle" x="1006" y="-455.8" font-family="Times,serif" font-size="24.00" fill="#000000">regexes</text>
</a>
</g>
</g>
<!-- runFunction&#45;&gt;regexes -->
<g id="edge63" class="edge">
<title>runFunction&#45;&gt;regexes</title>
<path fill="none" stroke="#000000" d="M2283.2519,-867.2926C2269.0231,-826.8437 2238.0739,-744.7478 2215,-725.5083 2040.8864,-580.3283 1331.8729,-496.0852 1088.483,-470.9971"/>
<polygon fill="#000000" stroke="#000000" points="1088.591,-467.49 1078.2863,-469.9527 1087.8776,-474.4535 1088.591,-467.49"/>
</g>
<!-- unicodes -->
<g id="node8" class="node">
<title>unicodes</title>
<g id="a_node8"><a xlink:href="unicodes.md" xlink:title="unicodes.md">
<ellipse fill="#eee8aa" stroke="#000000" cx="2778" cy="-754" rx="71.7778" ry="22.7556"/>
<text text-anchor="middle" x="2778" y="-746.8" font-family="Times,serif" font-size="24.00" fill="#000000">unicodes</text>
</a>
</g>
</g>
<!-- runFunction&#45;&gt;unicodes -->
<g id="edge75" class="edge">
<title>runFunction&#45;&gt;unicodes</title>
<path fill="none" stroke="#000000" d="M2352.6789,-872.7755C2445.6257,-846.8191 2620.6892,-797.9307 2714.6242,-771.6984"/>
<polygon fill="#000000" stroke="#000000" points="2715.5949,-775.0613 2724.285,-769.0005 2713.7121,-768.3192 2715.5949,-775.0613"/>
</g>
<!-- vartypes -->
<g id="node11" class="node">
<title>vartypes</title>
<g id="a_node11"><a xlink:href="vartypes.md" xlink:title="vartypes.md">
<ellipse fill="#eee8aa" stroke="#000000" cx="2058" cy="-463" rx="68.6102" ry="22.7556"/>
<text text-anchor="middle" x="2058" y="-455.8" font-family="Times,serif" font-size="24.00" fill="#000000">vartypes</text>
</a>
</g>
</g>
<!-- runFunction&#45;&gt;vartypes -->
<g id="edge62" class="edge">
<title>runFunction&#45;&gt;vartypes</title>
<path fill="none" stroke="#000000" d="M2296.6378,-867.1952C2303.5991,-833.681 2311.6228,-770.2627 2286,-725.5083 2249.4827,-661.7247 2195.4673,-691.8502 2146,-637.4917 2125.5664,-615.0378 2090.6954,-538.7014 2071.559,-494.7926"/>
<polygon fill="#000000" stroke="#000000" points="2074.6871,-493.2084 2067.5002,-485.4239 2068.264,-495.9912 2074.6871,-493.2084"/>
</g>
<!-- funtypes -->
<g id="node15" class="node">
<title>funtypes</title>
<g id="a_node15"><a xlink:href="funtypes.md" xlink:title="funtypes.md">
<ellipse fill="#eee8aa" stroke="#000000" cx="2382" cy="-609" rx="69.5163" ry="22.7556"/>
<text text-anchor="middle" x="2382" y="-601.8" font-family="Times,serif" font-size="24.00" fill="#000000">funtypes</text>
</a>
</g>
</g>
<!-- runFunction&#45;&gt;funtypes -->
<g id="edge80" class="edge">
<title>runFunction&#45;&gt;funtypes</title>
<path fill="none" stroke="#000000" d="M2372.3956,-878.4707C2429.9057,-865.6122 2503.0738,-838.656 2540,-782.4917 2579.1696,-722.9153 2490.9356,-663.7111 2431.1909,-632.2152"/>
<polygon fill="#000000" stroke="#000000" points="2432.727,-629.0693 2422.2363,-627.5874 2429.5131,-635.288 2432.727,-629.0693"/>
</g>
<!-- warnings -->
<g id="node17" class="node">
<title>warnings</title>
<g id="a_node17"><a xlink:href="warnings.md" xlink:title="warnings.md">
<ellipse fill="#eee8aa" stroke="#000000" cx="1752" cy="-190" rx="73.5561" ry="22.7556"/>
<text text-anchor="middle" x="1752" y="-182.8" font-family="Times,serif" font-size="24.00" fill="#000000">warnings</text>
</a>
</g>
</g>
<!-- runFunction&#45;&gt;warnings -->
<g id="edge61" class="edge">
<title>runFunction&#45;&gt;warnings</title>
<path fill="none" stroke="#000000" d="M2289.884,-867.3069C2287.1731,-833.3705 2277.8771,-768.7688 2246,-725.5083 2202.8461,-666.944 2164.6877,-683.0828 2108,-637.4917 1967.2185,-524.2683 1922.4047,-499.1469 1821,-349.6274 1793.5869,-309.2073 1773.267,-256.1316 1762.0219,-222.5339"/>
<polygon fill="#000000" stroke="#000000" points="1765.2626,-221.1832 1758.8256,-212.768 1758.6098,-223.3606 1765.2626,-221.1832"/>
</g>
<!-- signatures -->
<g id="node23" class="node">
<title>signatures</title>
<g id="a_node23"><a xlink:href="signatures.md" xlink:title="signatures.md">
<ellipse fill="#eee8aa" stroke="#000000" cx="2418" cy="-754" rx="80.2483" ry="22.7556"/>
<text text-anchor="middle" x="2418" y="-746.8" font-family="Times,serif" font-size="24.00" fill="#000000">signatures</text>
</a>
</g>
</g>
<!-- runFunction&#45;&gt;signatures -->
<g id="edge79" class="edge">
<title>runFunction&#45;&gt;signatures</title>
<path fill="none" stroke="#000000" d="M2311.6874,-867.8466C2333.0898,-844.9275 2366.6378,-809.0021 2390.3147,-783.6472"/>
<polygon fill="#000000" stroke="#000000" points="2393.0544,-785.8415 2397.3215,-776.144 2387.9383,-781.0639 2393.0544,-785.8415"/>
</g>
<!-- messages -->
<g id="node26" class="node">
<title>messages</title>
<g id="a_node26"><a xlink:href="messages.md" xlink:title="messages.md">
<polygon fill="#98fb98" stroke="#000000" points="1833.7388,-34.8581 1833.7388,-55.1419 1785.8573,-69.4846 1718.1427,-69.4846 1670.2612,-55.1419 1670.2612,-34.8581 1718.1427,-20.5154 1785.8573,-20.5154 1833.7388,-34.8581"/>
<polygon fill="none" stroke="#000000" points="1837.7446,-31.883 1837.7446,-58.117 1786.4454,-73.4835 1717.5546,-73.4835 1666.2554,-58.117 1666.2554,-31.883 1717.5546,-16.5165 1786.4454,-16.5165 1837.7446,-31.883"/>
<text text-anchor="middle" x="1752" y="-37.8" font-family="Times,serif" font-size="24.00" fill="#000000">messages</text>
</a>
</g>
</g>
<!-- runFunction&#45;&gt;messages -->
<g id="edge60" class="edge">
<title>runFunction&#45;&gt;messages</title>
<path fill="none" stroke="#000000" d="M2362.4574,-875.1903C2412.4276,-860.7048 2475.6276,-833.15 2507,-782.4917 2589.0327,-650.0302 2327.5901,-674.8825 2303,-637.4917 2185.9578,-459.522 2494.6824,-325.7105 2359,-161.5083 2295.3152,-84.4373 2002.7279,-57.8356 1848.2192,-49.0653"/>
<polygon fill="#000000" stroke="#000000" points="1847.9699,-45.5462 1837.7918,-48.4885 1847.5833,-52.5355 1847.9699,-45.5462"/>
</g>
<!-- matches -->
<g id="node27" class="node">
<title>matches</title>
<g id="a_node27"><a xlink:href="matches.md" xlink:title="matches.md">
<ellipse fill="#eee8aa" stroke="#000000" cx="935" cy="-609" rx="66.8311" ry="22.7556"/>
<text text-anchor="middle" x="935" y="-601.8" font-family="Times,serif" font-size="24.00" fill="#000000">matches</text>
</a>
</g>
</g>
<!-- runFunction&#45;&gt;matches -->
<g id="edge65" class="edge">
<title>runFunction&#45;&gt;matches</title>
<path fill="none" stroke="#000000" d="M2200.0462,-883.8934C2046.267,-872.3102 1725.7654,-842.7289 1461,-782.4917 1368.5263,-761.4529 1106.2767,-669.8354 990.7804,-628.8931"/>
<polygon fill="#000000" stroke="#000000" points="991.6583,-625.4909 981.0636,-625.4454 989.3175,-632.0879 991.6583,-625.4909"/>
</g>
<!-- opresultid -->
<g id="node2" class="node">
<title>opresultid</title>
<g id="a_node2"><a xlink:href="opresultid.md" xlink:title="opresultid.md">
<ellipse fill="#eee8aa" stroke="#000000" cx="2965" cy="-327" rx="79.3758" ry="22.7556"/>
<text text-anchor="middle" x="2965" y="-319.8" font-family="Times,serif" font-size="24.00" fill="#000000">opresultid</text>
</a>
</g>
</g>
<!-- opresultid&#45;&gt;messages -->
<g id="edge66" class="edge">
<title>opresultid&#45;&gt;messages</title>
<path fill="none" stroke="#000000" d="M2959.4343,-304.1957C2949.1126,-267.2765 2923.2338,-195.1655 2872,-161.5083 2787.1996,-105.8 2103.3912,-63.825 1847.8651,-49.9448"/>
<polygon fill="#000000" stroke="#000000" points="1848.0301,-46.4487 1837.8556,-49.4036 1847.6521,-53.4385 1848.0301,-46.4487"/>
</g>
<!-- opresult -->
<g id="node33" class="node">
<title>opresult</title>
<g id="a_node33"><a xlink:href="opresult.md" xlink:title="opresult.md">
<polygon fill="#98fb98" stroke="#000000" points="2346.3526,-179.8581 2346.3526,-200.1419 2304.5552,-214.4846 2245.4448,-214.4846 2203.6474,-200.1419 2203.6474,-179.8581 2245.4448,-165.5154 2304.5552,-165.5154 2346.3526,-179.8581"/>
<polygon fill="none" stroke="#000000" points="2350.3486,-177.0019 2350.3486,-202.9981 2305.2213,-218.4835 2244.7787,-218.4835 2199.6514,-202.9981 2199.6514,-177.0019 2244.7787,-161.5165 2305.2213,-161.5165 2350.3486,-177.0019"/>
<text text-anchor="middle" x="2275" y="-182.8" font-family="Times,serif" font-size="24.00" fill="#000000">opresult</text>
</a>
</g>
</g>
<!-- opresultid&#45;&gt;opresult -->
<g id="edge67" class="edge">
<title>opresultid&#45;&gt;opresult</title>
<path fill="none" stroke="#000000" d="M2899.7757,-314.0497C2773.4326,-288.9642 2495.5955,-233.7994 2356.9931,-206.2798"/>
<polygon fill="#000000" stroke="#000000" points="2357.3439,-202.7812 2346.8537,-204.2666 2355.9806,-209.6472 2357.3439,-202.7812"/>
</g>
<!-- cmdline -->
<g id="node5" class="node">
<title>cmdline</title>
<g id="a_node5"><a xlink:href="cmdline.md" xlink:title="cmdline.md">
<polygon fill="#98fb98" stroke="#000000" points="427.3352,-452.8581 427.3352,-473.1419 385.548,-487.4846 326.452,-487.4846 284.6648,-473.1419 284.6648,-452.8581 326.452,-438.5154 385.548,-438.5154 427.3352,-452.8581"/>
<polygon fill="none" stroke="#000000" points="431.3307,-450.0021 431.3307,-475.9979 386.2141,-491.4835 325.7859,-491.4835 280.6693,-475.9979 280.6693,-450.0021 325.7859,-434.5165 386.2141,-434.5165 431.3307,-450.0021"/>
<text text-anchor="middle" x="356" y="-455.8" font-family="Times,serif" font-size="24.00" fill="#000000">cmdline</text>
</a>
</g>
</g>
<!-- parseCmdLine -->
<g id="node6" class="node">
<title>parseCmdLine</title>
<g id="a_node6"><a xlink:href="parseCmdLine.md" xlink:title="parseCmdLine.md">
<ellipse fill="#eee8aa" stroke="#000000" cx="643" cy="-754" rx="111.4463" ry="22.7556"/>
<text text-anchor="middle" x="643" y="-746.8" font-family="Times,serif" font-size="24.00" fill="#000000">parseCmdLine</text>
</a>
</g>
</g>
<!-- parseCmdLine&#45;&gt;regexes -->
<g id="edge25" class="edge">
<title>parseCmdLine&#45;&gt;regexes</title>
<path fill="none" stroke="#000000" d="M627.935,-731.5668C606.0785,-695.9421 571.7359,-625.8363 606,-580.5083 693.4705,-464.7936 781.3416,-534.0925 920,-491.4917 926.5661,-489.4744 933.3947,-487.3162 940.2051,-485.1239"/>
<polygon fill="#000000" stroke="#000000" points="941.7067,-488.3163 950.1376,-481.8999 939.5455,-481.6583 941.7067,-488.3163"/>
</g>
<!-- parseCmdLine&#45;&gt;warnings -->
<g id="edge28" class="edge">
<title>parseCmdLine&#45;&gt;warnings</title>
<path fill="none" stroke="#000000" d="M620.6772,-731.7485C588.5534,-696.9813 536.8199,-628.7658 572,-580.5083 648.1762,-476.0154 748.321,-572.6417 849,-491.4917 871.786,-473.1256 858.4105,-451.8302 882,-434.5083 1020.7852,-332.5973 1093.9316,-395.1075 1260,-349.6274 1418.9838,-306.0875 1602.9311,-242.9158 1694.302,-210.6515"/>
<polygon fill="#000000" stroke="#000000" points="1695.6556,-213.8853 1703.9155,-207.2502 1693.3207,-207.2862 1695.6556,-213.8853"/>
</g>
<!-- opresultwarn -->
<g id="node25" class="node">
<title>opresultwarn</title>
<g id="a_node25"><a xlink:href="opresultwarn.md" xlink:title="opresultwarn.md">
<ellipse fill="#eee8aa" stroke="#000000" cx="1930" cy="-327" rx="99.824" ry="22.7556"/>
<text text-anchor="middle" x="1930" y="-319.8" font-family="Times,serif" font-size="24.00" fill="#000000">opresultwarn</text>
</a>
</g>
</g>
<!-- parseCmdLine&#45;&gt;opresultwarn -->
<g id="edge29" class="edge">
<title>parseCmdLine&#45;&gt;opresultwarn</title>
<path fill="none" stroke="#000000" d="M624.1739,-731.6285C596.9249,-696.3968 553.3543,-627.1971 588,-580.5083 669.3563,-470.8718 770.0336,-569.6104 882,-491.4917 908.0204,-473.3374 897.3949,-450.1479 925,-434.5083 963.8703,-412.4863 1577.0532,-357.4536 1826.0835,-335.8775"/>
<polygon fill="#000000" stroke="#000000" points="1826.5658,-339.349 1836.2268,-334.9998 1825.9622,-332.375 1826.5658,-339.349"/>
</g>
<!-- parseCmdLine&#45;&gt;messages -->
<g id="edge26" class="edge">
<title>parseCmdLine&#45;&gt;messages</title>
<path fill="none" stroke="#000000" d="M569.3535,-736.9693C552.4926,-733.1382 534.6367,-729.1348 518,-725.5083 330.3792,-684.6098 224.0629,-779.6783 95,-637.4917 42.5686,-579.7289 76,-541.0103 76,-463 76,-463 76,-463 76,-327 76,-165.576 1300.6813,-74.0667 1656.2804,-50.8984"/>
<polygon fill="#000000" stroke="#000000" points="1656.5402,-54.389 1666.2928,-50.2492 1656.0872,-47.4037 1656.5402,-54.389"/>
</g>
<!-- parseCmdLine&#45;&gt;matches -->
<g id="edge27" class="edge">
<title>parseCmdLine&#45;&gt;matches</title>
<path fill="none" stroke="#000000" d="M685.4593,-732.9158C739.3994,-706.1304 832.1869,-660.0544 888.1447,-632.2672"/>
<polygon fill="#000000" stroke="#000000" points="889.7349,-635.3853 897.1348,-627.8029 886.6216,-629.1158 889.7349,-635.3853"/>
</g>
<!-- env -->
<g id="node7" class="node">
<title>env</title>
<g id="a_node7"><a xlink:href="env.md" xlink:title="env.md">
<ellipse fill="#eee8aa" stroke="#000000" cx="1112" cy="-754" rx="35.6342" ry="22.7556"/>
<text text-anchor="middle" x="1112" y="-746.8" font-family="Times,serif" font-size="24.00" fill="#000000">env</text>
</a>
</g>
</g>
<!-- tempFile -->
<g id="node10" class="node">
<title>tempFile</title>
<g id="a_node10"><a xlink:href="tempFile.md" xlink:title="tempFile.md">
<polygon fill="#98fb98" stroke="#000000" points="807.598,-598.8581 807.598,-619.1419 762.1421,-633.4846 697.8579,-633.4846 652.402,-619.1419 652.402,-598.8581 697.8579,-584.5154 762.1421,-584.5154 807.598,-598.8581"/>
<polygon fill="none" stroke="#000000" points="811.6004,-595.9275 811.6004,-622.0725 762.7591,-637.4835 697.2409,-637.4835 648.3996,-622.0725 648.3996,-595.9275 697.2409,-580.5165 762.7591,-580.5165 811.6004,-595.9275"/>
<text text-anchor="middle" x="730" y="-601.8" font-family="Times,serif" font-size="24.00" fill="#000000">tempFile</text>
</a>
</g>
</g>
<!-- env&#45;&gt;tempFile -->
<g id="edge15" class="edge">
<title>env&#45;&gt;tempFile</title>
<path fill="none" stroke="#000000" d="M1081.0629,-742.2569C1019.1508,-718.7562 878.8268,-665.4918 795.5505,-633.8817"/>
<polygon fill="#000000" stroke="#000000" points="796.7754,-630.6031 786.1842,-630.3265 794.2913,-637.1475 796.7754,-630.6031"/>
</g>
<!-- readlines -->
<g id="node14" class="node">
<title>readlines</title>
<g id="a_node14"><a xlink:href="readlines.md" xlink:title="readlines.md">
<polygon fill="#98fb98" stroke="#000000" points="1333.5894,-598.8581 1333.5894,-619.1419 1287.5528,-633.4846 1222.4472,-633.4846 1176.4106,-619.1419 1176.4106,-598.8581 1222.4472,-584.5154 1287.5528,-584.5154 1333.5894,-598.8581"/>
<polygon fill="none" stroke="#000000" points="1337.5916,-595.9163 1337.5916,-622.0837 1288.1623,-637.4835 1221.8377,-637.4835 1172.4084,-622.0837 1172.4084,-595.9163 1221.8377,-580.5165 1288.1623,-580.5165 1337.5916,-595.9163"/>
<text text-anchor="middle" x="1255" y="-601.8" font-family="Times,serif" font-size="24.00" fill="#000000">readlines</text>
</a>
</g>
</g>
<!-- env&#45;&gt;readlines -->
<g id="edge19" class="edge">
<title>env&#45;&gt;readlines</title>
<path fill="none" stroke="#000000" d="M1130.9893,-734.7451C1153.5159,-711.9034 1191.541,-673.3466 1219.5592,-644.9365"/>
<polygon fill="#000000" stroke="#000000" points="1222.2827,-647.1594 1226.8125,-637.5817 1217.2987,-642.2441 1222.2827,-647.1594"/>
</g>
<!-- env&#45;&gt;warnings -->
<g id="edge17" class="edge">
<title>env&#45;&gt;warnings</title>
<path fill="none" stroke="#000000" d="M1113.0888,-731.1058C1115.9256,-695.1579 1126.1506,-624.9945 1163,-580.5083 1306.6463,-407.0918 1436.8747,-488.6748 1614,-349.6274 1662.2139,-311.7784 1706.3548,-255.2146 1731.1505,-220.5683"/>
<polygon fill="#000000" stroke="#000000" points="1734.112,-222.4425 1737.0285,-212.2569 1728.3967,-218.4006 1734.112,-222.4425"/>
</g>
<!-- args -->
<g id="node24" class="node">
<title>args</title>
<g id="a_node24"><a xlink:href="args.md" xlink:title="args.md">
<ellipse fill="#eee8aa" stroke="#000000" cx="801" cy="-463" rx="39.0784" ry="22.7556"/>
<text text-anchor="middle" x="801" y="-455.8" font-family="Times,serif" font-size="24.00" fill="#000000">args</text>
</a>
</g>
</g>
<!-- env&#45;&gt;args -->
<g id="edge18" class="edge">
<title>env&#45;&gt;args</title>
<path fill="none" stroke="#000000" d="M1077.7419,-747.369C1023.6491,-735.1427 918.5023,-703.9712 859,-637.4917 822.9975,-597.2676 809.251,-534.0478 804.0669,-495.763"/>
<polygon fill="#000000" stroke="#000000" points="807.5193,-495.1616 802.8204,-485.6658 800.572,-496.0193 807.5193,-495.1616"/>
</g>
<!-- env&#45;&gt;messages -->
<g id="edge16" class="edge">
<title>env&#45;&gt;messages</title>
<path fill="none" stroke="#000000" d="M1111.2156,-731.3641C1109.5892,-682.4141 1106,-563.0525 1106,-463 1106,-463 1106,-463 1106,-327 1106,-206.132 1490.6482,-103.8861 1666.3235,-63.4916"/>
<polygon fill="#000000" stroke="#000000" points="1667.3445,-66.8486 1676.3139,-61.2094 1665.7855,-60.0244 1667.3445,-66.8486"/>
</g>
<!-- unicodes&#45;&gt;opresultid -->
<g id="edge68" class="edge">
<title>unicodes&#45;&gt;opresultid</title>
<path fill="none" stroke="#000000" d="M2799.9626,-732.241C2821.1406,-710.1404 2852.7365,-674.0506 2872,-637.4917 2921.6359,-543.2914 2948.705,-418.7123 2959.4495,-360.1292"/>
<polygon fill="#000000" stroke="#000000" points="2962.9493,-360.4411 2961.2675,-349.9806 2956.0589,-359.2067 2962.9493,-360.4411"/>
</g>
<!-- unicodes&#45;&gt;vartypes -->
<g id="edge74" class="edge">
<title>unicodes&#45;&gt;vartypes</title>
<path fill="none" stroke="#000000" d="M2769.1494,-731.4678C2752.0238,-689.025 2713.6924,-599.753 2687,-580.5083 2487.5604,-436.7161 2379.46,-551.4014 2141,-491.4917 2131.7882,-489.1774 2122.1406,-486.3005 2112.8158,-483.2724"/>
<polygon fill="#000000" stroke="#000000" points="2113.8407,-479.9247 2103.247,-480.0792 2111.6248,-486.5647 2113.8407,-479.9247"/>
</g>
<!-- unicodes&#45;&gt;funtypes -->
<g id="edge73" class="edge">
<title>unicodes&#45;&gt;funtypes</title>
<path fill="none" stroke="#000000" d="M2731.0185,-736.7972C2657.7343,-709.9633 2516.4951,-658.247 2438.0218,-629.513"/>
<polygon fill="#000000" stroke="#000000" points="2438.9014,-626.1079 2428.3076,-625.9561 2436.4945,-632.6811 2438.9014,-626.1079"/>
</g>
<!-- utf8decoder -->
<g id="node16" class="node">
<title>utf8decoder</title>
<g id="a_node16"><a xlink:href="utf8decoder.md" xlink:title="utf8decoder.md">
<polygon fill="#98fb98" stroke="#000000" points="2673.9296,-598.8581 2673.9296,-619.1419 2615.3922,-633.4846 2532.6078,-633.4846 2474.0704,-619.1419 2474.0704,-598.8581 2532.6078,-584.5154 2615.3922,-584.5154 2673.9296,-598.8581"/>
<polygon fill="none" stroke="#000000" points="2677.9282,-595.7208 2677.9282,-622.2792 2615.8749,-637.4835 2532.1251,-637.4835 2470.0718,-622.2792 2470.0718,-595.7208 2532.1251,-580.5165 2615.8749,-580.5165 2677.9282,-595.7208"/>
<text text-anchor="middle" x="2574" y="-601.8" font-family="Times,serif" font-size="24.00" fill="#000000">utf8decoder</text>
</a>
</g>
</g>
<!-- unicodes&#45;&gt;utf8decoder -->
<g id="edge72" class="edge">
<title>unicodes&#45;&gt;utf8decoder</title>
<path fill="none" stroke="#000000" d="M2748.7718,-733.225C2715.9957,-709.9283 2662.3018,-671.7635 2623.0648,-643.8745"/>
<polygon fill="#000000" stroke="#000000" points="2624.6043,-640.6747 2614.4257,-637.734 2620.5488,-646.3803 2624.6043,-640.6747"/>
</g>
<!-- unicodes&#45;&gt;warnings -->
<g id="edge71" class="edge">
<title>unicodes&#45;&gt;warnings</title>
<path fill="none" stroke="#000000" d="M2780.928,-731.3561C2784.287,-695.4391 2785.4846,-624.9358 2751,-580.5083 2519.9207,-282.8013 2029.8648,-211.7433 1834.7112,-195.0372"/>
<polygon fill="#000000" stroke="#000000" points="1834.7773,-191.5307 1824.5221,-194.1916 1834.1984,-198.5067 1834.7773,-191.5307"/>
</g>
<!-- unicodes&#45;&gt;opresultwarn -->
<g id="edge69" class="edge">
<title>unicodes&#45;&gt;opresultwarn</title>
<path fill="none" stroke="#000000" d="M2777.3422,-731.3675C2774.9442,-693.8189 2764.3801,-618.979 2719,-580.5083 2533.4604,-423.2178 2387.1433,-617.3552 2179,-491.4917 2151.8502,-475.0744 2160.2118,-455.0127 2136,-434.5083 2092.5489,-397.7105 2034.3912,-368.8089 1990.9517,-350.2822"/>
<polygon fill="#000000" stroke="#000000" points="1992.2142,-347.0163 1981.639,-346.3725 1989.5046,-353.4706 1992.2142,-347.0163"/>
</g>
<!-- unicodes&#45;&gt;messages -->
<g id="edge70" class="edge">
<title>unicodes&#45;&gt;messages</title>
<path fill="none" stroke="#000000" d="M2788.6234,-731.5685C2810.3849,-683.4936 2858,-566.4805 2858,-463 2858,-463 2858,-463 2858,-327 2858,-119.3755 2116.9065,-62.7051 1848.002,-48.9762"/>
<polygon fill="#000000" stroke="#000000" points="1848.0285,-45.4732 1837.8657,-48.4677 1847.6777,-52.4644 1848.0285,-45.4732"/>
</g>
<!-- variables -->
<g id="node9" class="node">
<title>variables</title>
<g id="a_node9"><a xlink:href="variables.md" xlink:title="variables.md">
<ellipse fill="#eee8aa" stroke="#000000" cx="1543" cy="-754" rx="72.6337" ry="22.7556"/>
<text text-anchor="middle" x="1543" y="-746.8" font-family="Times,serif" font-size="24.00" fill="#000000">variables</text>
</a>
</g>
</g>
<!-- variables&#45;&gt;vartypes -->
<g id="edge49" class="edge">
<title>variables&#45;&gt;vartypes</title>
<path fill="none" stroke="#000000" d="M1578.398,-733.9984C1669.9628,-682.2598 1914.43,-544.124 2014.4386,-487.6143"/>
<polygon fill="#000000" stroke="#000000" points="2016.3892,-490.5323 2023.3736,-482.5656 2012.9455,-484.4379 2016.3892,-490.5323"/>
</g>
<!-- variables&#45;&gt;warnings -->
<g id="edge52" class="edge">
<title>variables&#45;&gt;warnings</title>
<path fill="none" stroke="#000000" d="M1559.2389,-731.8628C1575.1973,-709.1837 1599.2422,-672.3997 1614,-637.4917 1673.5414,-496.6534 1649.053,-448.5427 1700,-304.3726 1710.1111,-275.7602 1724.5902,-244.4676 1735.7035,-221.8585"/>
<polygon fill="#000000" stroke="#000000" points="1738.9221,-223.2465 1740.2377,-212.7336 1732.6533,-220.1315 1738.9221,-223.2465"/>
</g>
<!-- variables&#45;&gt;args -->
<g id="edge53" class="edge">
<title>variables&#45;&gt;args</title>
<path fill="none" stroke="#000000" d="M1551.3235,-731.3824C1563.1495,-694.8614 1579.5835,-622.7388 1543,-580.5083 1452.1511,-475.6359 1061.397,-516.94 925,-491.4917 899.0865,-486.6569 870.3861,-480.1381 847.1286,-474.5561"/>
<polygon fill="#000000" stroke="#000000" points="847.7307,-471.1007 837.1877,-472.148 846.0826,-477.904 847.7307,-471.1007"/>
</g>
<!-- variables&#45;&gt;opresultwarn -->
<g id="edge54" class="edge">
<title>variables&#45;&gt;opresultwarn</title>
<path fill="none" stroke="#000000" d="M1570.9976,-733.0743C1601.0542,-710.3207 1649.892,-672.5085 1690,-637.4917 1694.4102,-633.6414 1838.4645,-496.1581 1842,-491.4917 1874.0428,-449.1999 1901.1133,-393.6717 1916.4528,-359.1686"/>
<polygon fill="#000000" stroke="#000000" points="1919.8385,-360.1625 1920.646,-349.5985 1913.427,-357.3532 1919.8385,-360.1625"/>
</g>
<!-- variables&#45;&gt;messages -->
<g id="edge51" class="edge">
<title>variables&#45;&gt;messages</title>
<path fill="none" stroke="#000000" d="M1549.0693,-731.4403C1555.0051,-708.1236 1563.6285,-670.5698 1567,-637.4917 1569.5681,-612.2963 1568.0394,-605.8129 1567,-580.5083 1559.3491,-394.2517 1454.4152,-322.7283 1548,-161.5083 1575.2401,-114.5813 1629.2611,-84.9633 1674.8716,-67.3375"/>
<polygon fill="#000000" stroke="#000000" points="1676.3197,-70.5329 1684.4641,-63.7565 1673.8715,-63.975 1676.3197,-70.5329"/>
</g>
<!-- version -->
<g id="node28" class="node">
<title>version</title>
<g id="a_node28"><a xlink:href="version.md" xlink:title="version.md">
<polygon fill="#98fb98" stroke="#000000" points="1530.1523,-598.8581 1530.1523,-619.1419 1491.4012,-633.4846 1436.5988,-633.4846 1397.8477,-619.1419 1397.8477,-598.8581 1436.5988,-584.5154 1491.4012,-584.5154 1530.1523,-598.8581"/>
<polygon fill="none" stroke="#000000" points="1534.1421,-596.0721 1534.1421,-621.9279 1492.1143,-637.4835 1435.8857,-637.4835 1393.8579,-621.9279 1393.8579,-596.0721 1435.8857,-580.5165 1492.1143,-580.5165 1534.1421,-596.0721"/>
<text text-anchor="middle" x="1464" y="-601.8" font-family="Times,serif" font-size="24.00" fill="#000000">version</text>
</a>
</g>
</g>
<!-- variables&#45;&gt;version -->
<g id="edge50" class="edge">
<title>variables&#45;&gt;version</title>
<path fill="none" stroke="#000000" d="M1530.8294,-731.6615C1518.4637,-708.9651 1499.0892,-673.4042 1484.3783,-646.4032"/>
<polygon fill="#000000" stroke="#000000" points="1487.4428,-644.7122 1479.585,-637.6054 1481.2959,-648.0612 1487.4428,-644.7122"/>
</g>
<!-- vartypes&#45;&gt;warnings -->
<g id="edge43" class="edge">
<title>vartypes&#45;&gt;warnings</title>
<path fill="none" stroke="#000000" d="M2061.9417,-440.3808C2066.4259,-406.9904 2069.5971,-344.1738 2039,-304.3726 1989.405,-239.8586 1897.7969,-211.6416 1831.3897,-199.3583"/>
<polygon fill="#000000" stroke="#000000" points="1831.8272,-195.8815 1821.371,-197.5898 1830.6103,-202.7749 1831.8272,-195.8815"/>
</g>
<!-- vartypes&#45;&gt;opresultwarn -->
<g id="edge44" class="edge">
<title>vartypes&#45;&gt;opresultwarn</title>
<path fill="none" stroke="#000000" d="M2037.4346,-441.1492C2015.9158,-418.2856 1981.993,-382.2426 1958.0314,-356.7834"/>
<polygon fill="#000000" stroke="#000000" points="1960.342,-354.1316 1950.9396,-349.2483 1955.2446,-358.9291 1960.342,-354.1316"/>
</g>
<!-- vartypes&#45;&gt;messages -->
<g id="edge42" class="edge">
<title>vartypes&#45;&gt;messages</title>
<path fill="none" stroke="#000000" d="M2064.6003,-440.4378C2072.6571,-408.4686 2082.8133,-348.9243 2062,-304.3726 2010.3742,-193.8654 1885.9436,-113.8497 1811.3718,-73.8636"/>
<polygon fill="#000000" stroke="#000000" points="1812.563,-70.5343 1802.0868,-68.9534 1809.2906,-76.7223 1812.563,-70.5343"/>
</g>
<!-- codefile -->
<g id="node12" class="node">
<title>codefile</title>
<g id="a_node12"><a xlink:href="codefile.md" xlink:title="codefile.md">
<ellipse fill="#eee8aa" stroke="#000000" cx="1663" cy="-1145" rx="65.069" ry="22.7556"/>
<text text-anchor="middle" x="1663" y="-1137.8" font-family="Times,serif" font-size="24.00" fill="#000000">codefile</text>
</a>
</g>
</g>
<!-- codefile&#45;&gt;env -->
<g id="edge109" class="edge">
<title>codefile&#45;&gt;env</title>
<path fill="none" stroke="#000000" d="M1604.3563,-1135.0955C1498.0846,-1114.0007 1273.6245,-1054.4548 1154,-912.6274 1123.8715,-876.9068 1115.1091,-821.8364 1112.7017,-786.8782"/>
<polygon fill="#000000" stroke="#000000" points="1116.1869,-786.5108 1112.142,-776.7184 1109.1975,-786.8959 1116.1869,-786.5108"/>
</g>
<!-- codefile&#45;&gt;variables -->
<g id="edge114" class="edge">
<title>codefile&#45;&gt;variables</title>
<path fill="none" stroke="#000000" d="M1655.7143,-1122.2199C1648.9766,-1101.0916 1638.718,-1068.7645 1630,-1040.6274 1601.5027,-948.6534 1568.7167,-839.7839 1552.7531,-786.5717"/>
<polygon fill="#000000" stroke="#000000" points="1556.0157,-785.2662 1549.791,-776.6929 1549.3107,-787.2768 1556.0157,-785.2662"/>
</g>
<!-- codefile&#45;&gt;vartypes -->
<g id="edge115" class="edge">
<title>codefile&#45;&gt;vartypes</title>
<path fill="none" stroke="#000000" d="M1679.3319,-1122.7177C1694.281,-1101.9327 1716.6491,-1069.8306 1734,-1040.6274 1814.4375,-905.2441 1818.5901,-862.6452 1896,-725.5083 1944.2026,-640.1142 2006.3275,-542.5821 2037.7994,-493.9612"/>
<polygon fill="#000000" stroke="#000000" points="2040.8042,-495.7603 2043.3089,-485.4658 2034.9312,-491.9515 2040.8042,-495.7603"/>
</g>
<!-- codefile&#45;&gt;readlines -->
<g id="edge112" class="edge">
<title>codefile&#45;&gt;readlines</title>
<path fill="none" stroke="#000000" d="M1649.5805,-1122.6438C1619.9069,-1073.9755 1545.2838,-955.7144 1469,-867.3726 1433.0649,-825.7573 1415.156,-823.9153 1379,-782.4917 1340.5097,-738.3938 1302.2665,-682.5927 1278.6458,-646.3632"/>
<polygon fill="#000000" stroke="#000000" points="1281.3389,-644.0829 1272.9644,-637.5931 1275.4639,-647.8889 1281.3389,-644.0829"/>
</g>
<!-- codefile&#45;&gt;utf8decoder -->
<g id="edge117" class="edge">
<title>codefile&#45;&gt;utf8decoder</title>
<path fill="none" stroke="#000000" d="M1699.1736,-1126.1159C1731.5267,-1107.7783 1778.5595,-1077.3692 1810,-1040.6274 1911.7333,-921.7405 1841.7227,-819.2598 1967,-725.5083 2145.5517,-591.8887 2242.9635,-684.3422 2461,-637.4917 2469.7158,-635.6189 2478.7789,-633.5468 2487.8116,-631.3993"/>
<polygon fill="#000000" stroke="#000000" points="2488.6809,-634.7901 2497.5832,-629.0454 2487.0416,-627.9848 2488.6809,-634.7901"/>
</g>
<!-- codefile&#45;&gt;warnings -->
<g id="edge116" class="edge">
<title>codefile&#45;&gt;warnings</title>
<path fill="none" stroke="#000000" d="M1669.7111,-1122.2552C1696.8263,-1030.1769 1797.1674,-687.6094 1804,-637.4917 1807.4211,-612.3979 1805.6751,-605.7788 1804,-580.5083 1802.8183,-562.6813 1768.9149,-313.738 1756.4995,-222.8836"/>
<polygon fill="#000000" stroke="#000000" points="1759.9514,-222.2933 1755.1291,-212.8595 1753.0159,-223.2414 1759.9514,-222.2933"/>
</g>
<!-- codefile&#45;&gt;opresultwarn -->
<g id="edge111" class="edge">
<title>codefile&#45;&gt;opresultwarn</title>
<path fill="none" stroke="#000000" d="M1673.4596,-1122.5762C1712.7573,-1038.034 1850.8149,-738.2801 1880,-637.4917 1908.605,-538.7065 1922.1847,-417.1974 1927.3637,-359.884"/>
<polygon fill="#000000" stroke="#000000" points="1930.8762,-359.8931 1928.2622,-349.6259 1923.9029,-359.2823 1930.8762,-359.8931"/>
</g>
<!-- codefile&#45;&gt;messages -->
<g id="edge110" class="edge">
<title>codefile&#45;&gt;messages</title>
<path fill="none" stroke="#000000" d="M1661.2739,-1121.9859C1651.7987,-991.9247 1608.6877,-348.1526 1669,-161.5083 1678.6576,-131.6214 1699.0297,-102.8295 1717.1729,-81.3448"/>
<polygon fill="#000000" stroke="#000000" points="1719.831,-83.6218 1723.7324,-73.7714 1714.5398,-79.0389 1719.831,-83.6218"/>
</g>
<!-- runCommand -->
<g id="node34" class="node">
<title>runCommand</title>
<g id="a_node34"><a xlink:href="runCommand.md" xlink:title="runCommand.md">
<ellipse fill="#eee8aa" stroke="#000000" cx="2043" cy="-1018" rx="104.7872" ry="22.7556"/>
<text text-anchor="middle" x="2043" y="-1010.8" font-family="Times,serif" font-size="24.00" fill="#000000">runCommand</text>
</a>
</g>
</g>
<!-- codefile&#45;&gt;runCommand -->
<g id="edge113" class="edge">
<title>codefile&#45;&gt;runCommand</title>
<path fill="none" stroke="#000000" d="M1709.9766,-1129.2999C1776.9121,-1106.9294 1900.0589,-1065.7724 1976.3889,-1040.2621"/>
<polygon fill="#000000" stroke="#000000" points="1977.5429,-1043.5668 1985.9178,-1037.0775 1975.3241,-1036.9278 1977.5429,-1043.5668"/>
</g>
<!-- replacement -->
<g id="node13" class="node">
<title>replacement</title>
<g id="a_node13"><a xlink:href="replacement.md" xlink:title="replacement.md">
<ellipse fill="#eee8aa" stroke="#000000" cx="904" cy="-890" rx="94.4556" ry="22.7556"/>
<text text-anchor="middle" x="904" y="-882.8" font-family="Times,serif" font-size="24.00" fill="#000000">replacement</text>
</a>
</g>
</g>
<!-- replacement&#45;&gt;parseNumber -->
<g id="edge105" class="edge">
<title>replacement&#45;&gt;parseNumber</title>
<path fill="none" stroke="#000000" d="M989.3661,-880.2192C1195.8424,-856.5623 1723.058,-796.1568 1965.5325,-768.3754"/>
<polygon fill="#000000" stroke="#000000" points="1966.2663,-771.8143 1975.8028,-767.1987 1965.4694,-764.8598 1966.2663,-771.8143"/>
</g>
<!-- replacement&#45;&gt;regexes -->
<g id="edge96" class="edge">
<title>replacement&#45;&gt;regexes</title>
<path fill="none" stroke="#000000" d="M887.5276,-867.4588C862.6763,-834.2768 813.1494,-771.2727 763,-725.5083 713.0788,-679.9521 670.014,-697.5385 639,-637.4917 627.3779,-614.9899 624.0383,-600.9424 639,-580.5083 716.3935,-474.8072 795.3736,-531.874 920,-491.4917 926.434,-489.407 933.1329,-487.2187 939.8262,-485.0205"/>
<polygon fill="#000000" stroke="#000000" points="941.1932,-488.2553 949.5972,-481.8037 939.0042,-481.6064 941.1932,-488.2553"/>
</g>
<!-- replacement&#45;&gt;parseCmdLine -->
<g id="edge99" class="edge">
<title>replacement&#45;&gt;parseCmdLine</title>
<path fill="none" stroke="#000000" d="M864.3597,-869.3445C818.4464,-845.4203 742.7448,-805.9743 692.8738,-779.9879"/>
<polygon fill="#000000" stroke="#000000" points="694.361,-776.8162 683.8754,-775.299 691.1263,-783.024 694.361,-776.8162"/>
</g>
<!-- replacement&#45;&gt;env -->
<g id="edge97" class="edge">
<title>replacement&#45;&gt;env</title>
<path fill="none" stroke="#000000" d="M936.5,-868.75C975.1656,-843.4687 1039.3871,-801.4777 1078.491,-775.9098"/>
<polygon fill="#000000" stroke="#000000" points="1080.456,-778.8067 1086.9103,-770.4048 1076.6252,-772.9479 1080.456,-778.8067"/>
</g>
<!-- replacement&#45;&gt;variables -->
<g id="edge103" class="edge">
<title>replacement&#45;&gt;variables</title>
<path fill="none" stroke="#000000" d="M974.5186,-874.9913C1097.4846,-848.8202 1349.726,-795.135 1472.6052,-768.9823"/>
<polygon fill="#000000" stroke="#000000" points="1473.6037,-772.3483 1482.656,-766.8432 1472.1465,-765.5016 1473.6037,-772.3483"/>
</g>
<!-- replacement&#45;&gt;tempFile -->
<g id="edge104" class="edge">
<title>replacement&#45;&gt;tempFile</title>
<path fill="none" stroke="#000000" d="M896.9807,-867.313C886.2567,-834.4904 863.8529,-772.5438 834,-725.5083 815.3333,-696.0975 789.2088,-666.8626 767.8136,-645.0347"/>
<polygon fill="#000000" stroke="#000000" points="770.286,-642.5573 760.7568,-637.9265 765.3184,-647.4891 770.286,-642.5573"/>
</g>
<!-- replacement&#45;&gt;vartypes -->
<g id="edge98" class="edge">
<title>replacement&#45;&gt;vartypes</title>
<path fill="none" stroke="#000000" d="M914.1483,-867.4346C942.8095,-806.8918 1030.9593,-641.3459 1163,-580.5083 1439.4295,-453.1435 1540.2379,-531.1743 1842,-491.4917 1889.1177,-485.2956 1942.0138,-478.3187 1983.6673,-472.8197"/>
<polygon fill="#000000" stroke="#000000" points="1984.2759,-476.2698 1993.7317,-471.4909 1983.3596,-469.3301 1984.2759,-476.2698"/>
</g>
<!-- replacement&#45;&gt;readlines -->
<g id="edge100" class="edge">
<title>replacement&#45;&gt;readlines</title>
<path fill="none" stroke="#000000" d="M923.1146,-867.5877C952.1598,-834.2935 1010.0696,-770.8321 1067,-725.5083 1108.9949,-692.075 1161.1852,-660.4139 1199.9138,-638.5589"/>
<polygon fill="#000000" stroke="#000000" points="1201.941,-641.4352 1208.9565,-633.4959 1198.5212,-635.3274 1201.941,-641.4352"/>
</g>
<!-- replacement&#45;&gt;opresultwarn -->
<g id="edge106" class="edge">
<title>replacement&#45;&gt;opresultwarn</title>
<path fill="none" stroke="#000000" d="M908.6531,-867.3956C915.9881,-834.6747 932.1269,-772.8522 958,-725.5083 977.9225,-689.0532 1041.4366,-603.557 1076,-580.5083 1316.0562,-420.4259 1659.7812,-359.0306 1828.5812,-337.5024"/>
<polygon fill="#000000" stroke="#000000" points="1829.2183,-340.95 1838.7048,-336.2325 1828.3469,-334.0045 1829.2183,-340.95"/>
</g>
<!-- replacement&#45;&gt;messages -->
<g id="edge102" class="edge">
<title>replacement&#45;&gt;messages</title>
<path fill="none" stroke="#000000" d="M825.4119,-877.4749C636.1826,-845.6632 163.4473,-755.8143 63,-637.4917 12.2979,-577.7669 38,-541.3438 38,-463 38,-463 38,-463 38,-327 38,-298.0741 -27.9767,-266.8441 280,-161.5083 536.0711,-73.9255 1371.0613,-51.5598 1655.8315,-46.4108"/>
<polygon fill="#000000" stroke="#000000" points="1656.1986,-49.9049 1666.1348,-46.2277 1656.0741,-42.906 1656.1986,-49.9049"/>
</g>
<!-- replacement&#45;&gt;matches -->
<g id="edge101" class="edge">
<title>replacement&#45;&gt;matches</title>
<path fill="none" stroke="#000000" d="M905.9779,-867.3603C908.8016,-835.6235 914.2824,-776.1153 920,-725.5083 923.1966,-697.2146 927.3681,-665.1284 930.5003,-641.8021"/>
<polygon fill="#000000" stroke="#000000" points="933.9884,-642.1247 931.859,-631.7461 927.0514,-641.1874 933.9884,-642.1247"/>
</g>
<!-- funtypes&#45;&gt;vartypes -->
<g id="edge56" class="edge">
<title>funtypes&#45;&gt;vartypes</title>
<path fill="none" stroke="#000000" d="M2340.9652,-590.509C2281.6854,-563.7965 2172.1992,-514.4601 2108.1873,-485.6153"/>
<polygon fill="#000000" stroke="#000000" points="2109.2567,-482.2583 2098.7016,-481.3409 2106.3808,-488.6402 2109.2567,-482.2583"/>
</g>
<!-- funtypes&#45;&gt;warnings -->
<g id="edge58" class="edge">
<title>funtypes&#45;&gt;warnings</title>
<path fill="none" stroke="#000000" d="M2364.5236,-587.0449C2319.7679,-532.133 2195.1386,-387.3108 2062,-304.3726 1985.2357,-256.5525 1885.4487,-224.2544 1820.11,-206.4964"/>
<polygon fill="#000000" stroke="#000000" points="1820.8928,-203.0828 1810.3277,-203.8765 1819.0818,-209.8445 1820.8928,-203.0828"/>
</g>
<!-- funtypes&#45;&gt;messages -->
<g id="edge57" class="edge">
<title>funtypes&#45;&gt;messages</title>
<path fill="none" stroke="#000000" d="M2391.6253,-586.3757C2420.5191,-514.5195 2498.1671,-288.7473 2392,-161.5083 2323.8548,-79.8376 2009.4967,-55.2757 1848.1453,-47.998"/>
<polygon fill="#000000" stroke="#000000" points="1847.8862,-44.4834 1837.7429,-47.5432 1847.5804,-51.4767 1847.8862,-44.4834"/>
</g>
<!-- warnings&#45;&gt;messages -->
<g id="edge2" class="edge">
<title>warnings&#45;&gt;messages</title>
<path fill="none" stroke="#ff0000" d="M1752,-167.3438C1752,-145.0533 1752,-110.5793 1752,-83.8998"/>
<polygon fill="#ff0000" stroke="#ff0000" points="1755.5001,-83.7339 1752,-73.734 1748.5001,-83.734 1755.5001,-83.7339"/>
</g>
<!-- collectCommand -->
<g id="node18" class="node">
<title>collectCommand</title>
<g id="a_node18"><a xlink:href="collectCommand.md" xlink:title="collectCommand.md">
<ellipse fill="#eee8aa" stroke="#000000" cx="1333" cy="-890" rx="127.4982" ry="22.7556"/>
<text text-anchor="middle" x="1333" y="-882.8" font-family="Times,serif" font-size="24.00" fill="#000000">collectCommand</text>
</a>
</g>
</g>
<!-- collectCommand&#45;&gt;parseCmdLine -->
<g id="edge34" class="edge">
<title>collectCommand&#45;&gt;parseCmdLine</title>
<path fill="none" stroke="#000000" d="M1247.7004,-873.1873C1116.5805,-847.3434 866.6703,-798.0857 732.8569,-771.7109"/>
<polygon fill="#000000" stroke="#000000" points="733.5208,-768.2745 723.0327,-769.7746 732.167,-775.1424 733.5208,-768.2745"/>
</g>
<!-- collectCommand&#45;&gt;env -->
<g id="edge31" class="edge">
<title>collectCommand&#45;&gt;env</title>
<path fill="none" stroke="#000000" d="M1297.4925,-868.1492C1255.8879,-842.5464 1187.428,-800.4172 1146.3356,-775.1296"/>
<polygon fill="#000000" stroke="#000000" points="1148.1045,-772.1085 1137.7535,-769.8483 1144.4358,-778.0702 1148.1045,-772.1085"/>
</g>
<!-- collectCommand&#45;&gt;readlines -->
<g id="edge33" class="edge">
<title>collectCommand&#45;&gt;readlines</title>
<path fill="none" stroke="#000000" d="M1326.6169,-867.0046C1313.2375,-818.8044 1282.1343,-706.7529 1265.6678,-647.4315"/>
<polygon fill="#000000" stroke="#000000" points="1269.0105,-646.3875 1262.9632,-637.688 1262.2655,-648.2599 1269.0105,-646.3875"/>
</g>
<!-- collectCommand&#45;&gt;opresultwarn -->
<g id="edge36" class="edge">
<title>collectCommand&#45;&gt;opresultwarn</title>
<path fill="none" stroke="#000000" d="M1413.2075,-872.329C1475.0145,-856.0305 1560.5251,-827.4482 1625,-782.4917 1764.3902,-685.299 1788.6124,-638.9868 1873,-491.4917 1897.4156,-448.8174 1913.8175,-393.9583 1922.5316,-359.6307"/>
<polygon fill="#000000" stroke="#000000" points="1925.9911,-360.2201 1924.9895,-349.6727 1919.1951,-358.5426 1925.9911,-360.2201"/>
</g>
<!-- collectCommand&#45;&gt;messages -->
<g id="edge35" class="edge">
<title>collectCommand&#45;&gt;messages</title>
<path fill="none" stroke="#000000" d="M1337.5193,-867.1595C1346.5572,-819.4256 1366,-705.5208 1366,-609 1366,-609 1366,-609 1366,-327 1366,-177.4086 1557.3557,-98.6695 1670.6045,-65.1687"/>
<polygon fill="#000000" stroke="#000000" points="1671.6731,-68.5031 1680.301,-62.3541 1669.7217,-61.7806 1671.6731,-68.5031"/>
</g>
<!-- collectCommand&#45;&gt;matches -->
<g id="edge32" class="edge">
<title>collectCommand&#45;&gt;matches</title>
<path fill="none" stroke="#000000" d="M1312.6842,-867.4817C1281.4915,-833.7709 1218.8928,-769.4568 1157,-725.5083 1102.0499,-686.4896 1032.361,-652.0501 985.8628,-630.9238"/>
<polygon fill="#000000" stroke="#000000" points="987.1503,-627.6652 976.5951,-626.7499 984.2757,-634.0477 987.1503,-627.6652"/>
</g>
<!-- runner -->
<g id="node19" class="node">
<title>runner</title>
<g id="a_node19"><a xlink:href="runner.md" xlink:title="runner.md">
<polygon fill="#98fb98" stroke="#000000" points="969.3608,-1416.8581 969.3608,-1437.1419 934.0023,-1451.4846 883.9977,-1451.4846 848.6392,-1437.1419 848.6392,-1416.8581 883.9977,-1402.5154 934.0023,-1402.5154 969.3608,-1416.8581"/>
<polygon fill="none" stroke="#000000" points="973.3724,-1414.1681 973.3724,-1439.8319 934.7872,-1455.4835 883.2128,-1455.4835 844.6276,-1439.8319 844.6276,-1414.1681 883.2128,-1398.5165 934.7872,-1398.5165 973.3724,-1414.1681"/>
<text text-anchor="middle" x="909" y="-1419.8" font-family="Times,serif" font-size="24.00" fill="#000000">runner</text>
</a>
</g>
</g>
<!-- statictea -->
<g id="node20" class="node">
<title>statictea</title>
<g id="a_node20"><a xlink:href="statictea.md" xlink:title="statictea.md">
<polygon fill="#eee8aa" stroke="#000000" points="661.0958,-1418.3667 744,-1399.0619 826.9042,-1418.3667 826.8268,-1449.6024 661.1732,-1449.6024 661.0958,-1418.3667"/>
<text text-anchor="middle" x="744" y="-1419.8" font-family="Times,serif" font-size="24.00" fill="#000000">statictea</text>
</a>
</g>
</g>
<!-- statictea&#45;&gt;env -->
<g id="edge124" class="edge">
<title>statictea&#45;&gt;env</title>
<path fill="none" stroke="#000000" d="M665.7757,-1417.1366C553.0951,-1401.1407 353.8829,-1365.5634 311,-1309.4917 295.6147,-1289.3746 297.5845,-1273.9892 311,-1252.5083 493.3519,-960.5263 748.2335,-1139.664 1007,-912.6274 1048.4128,-876.2926 1080.4391,-819.9553 1097.7272,-785.1122"/>
<polygon fill="#000000" stroke="#000000" points="1100.9863,-786.4133 1102.2081,-775.8892 1094.69,-783.3543 1100.9863,-786.4133"/>
</g>
<!-- gethelp -->
<g id="node21" class="node">
<title>gethelp</title>
<g id="a_node21"><a xlink:href="gethelp.md" xlink:title="gethelp.md">
<polygon fill="#98fb98" stroke="#000000" points="456.1349,-1270.8581 456.1349,-1291.1419 417.394,-1305.4846 362.606,-1305.4846 323.8651,-1291.1419 323.8651,-1270.8581 362.606,-1256.5154 417.394,-1256.5154 456.1349,-1270.8581"/>
<polygon fill="none" stroke="#000000" points="460.1242,-1268.0722 460.1242,-1293.9278 418.1071,-1309.4835 361.8929,-1309.4835 319.8758,-1293.9278 319.8758,-1268.0722 361.8929,-1252.5165 418.1071,-1252.5165 460.1242,-1268.0722"/>
<text text-anchor="middle" x="390" y="-1273.8" font-family="Times,serif" font-size="24.00" fill="#000000">gethelp</text>
</a>
</g>
</g>
<!-- statictea&#45;&gt;gethelp -->
<g id="edge122" class="edge">
<title>statictea&#45;&gt;gethelp</title>
<path fill="none" stroke="#000000" d="M700.5927,-1409.0975C637.4252,-1383.0454 519.9864,-1334.6102 449.0158,-1305.3399"/>
<polygon fill="#000000" stroke="#000000" points="450.3258,-1302.0942 439.7467,-1301.517 447.6568,-1308.5654 450.3258,-1302.0942"/>
</g>
<!-- statictea&#45;&gt;args -->
<g id="edge120" class="edge">
<title>statictea&#45;&gt;args</title>
<path fill="none" stroke="#000000" d="M711.0767,-1406.4774C630.1413,-1353.194 428,-1201.7251 428,-1018 428,-1018 428,-1018 428,-890 428,-746.8736 421.6336,-687.2341 517,-580.5083 550.0654,-543.5044 685.0062,-498.2394 756.3283,-476.2522"/>
<polygon fill="#000000" stroke="#000000" points="757.4144,-479.5802 765.9528,-473.3075 755.3663,-472.8865 757.4144,-479.5802"/>
</g>
<!-- statictea&#45;&gt;opresultwarn -->
<g id="edge125" class="edge">
<title>statictea&#45;&gt;opresultwarn</title>
<path fill="none" stroke="#000000" d="M792.253,-1410.1872C806.2259,-1405.8302 821.5977,-1401.5217 836,-1398.5083 1082.2492,-1346.9838 3086,-1396.5818 3086,-1145 3086,-1145 3086,-1145 3086,-609 3086,-394.7608 2327.1421,-342.5627 2039.1054,-330.4665"/>
<polygon fill="#000000" stroke="#000000" points="2039.1952,-326.9673 2029.0596,-330.0529 2038.9072,-333.9614 2039.1952,-326.9673"/>
</g>
<!-- statictea&#45;&gt;messages -->
<g id="edge121" class="edge">
<title>statictea&#45;&gt;messages</title>
<path fill="none" stroke="#000000" d="M791.1841,-1409.8679C805.405,-1405.393 821.1766,-1401.1016 836,-1398.5083 1682.2802,-1250.4528 1925.7785,-1484.0112 2767,-1309.4917 2968.5709,-1267.6739 3200,-1350.863 3200,-1145 3200,-1145 3200,-1145 3200,-327 3200,-232.639 3150.2091,-206.0083 3067,-161.5083 2960.1932,-104.3882 2133.1608,-62.1606 1848.1558,-49.1775"/>
<polygon fill="#000000" stroke="#000000" points="1847.9887,-45.6664 1837.8404,-48.7096 1847.6715,-52.6592 1847.9887,-45.6664"/>
</g>
<!-- statictea&#45;&gt;version -->
<g id="edge123" class="edge">
<title>statictea&#45;&gt;version</title>
<path fill="none" stroke="#000000" d="M744,-1398.982C744,-1348.3014 744,-1238.0208 744,-1145 744,-1145 744,-1145 744,-1018 744,-946.4215 753.7321,-921.1241 801,-867.3726 889.4788,-766.7575 942.9597,-776.163 1067,-725.5083 1126.3086,-701.2882 1295.7087,-654.256 1392.9887,-627.9601"/>
<polygon fill="#000000" stroke="#000000" points="1394.0064,-631.3107 1402.7489,-625.3259 1392.1824,-624.5525 1394.0064,-631.3107"/>
</g>
<!-- timer -->
<g id="node30" class="node">
<title>timer</title>
<g id="a_node30"><a xlink:href="timer.md" xlink:title="timer.md">
<polygon fill="#98fb98" stroke="#000000" points="1351.0202,-1270.8581 1351.0202,-1291.1419 1321.1333,-1305.4846 1278.8667,-1305.4846 1248.9798,-1291.1419 1248.9798,-1270.8581 1278.8667,-1256.5154 1321.1333,-1256.5154 1351.0202,-1270.8581"/>
<polygon fill="none" stroke="#000000" points="1355.021,-1268.3422 1355.021,-1293.6578 1322.044,-1309.4835 1277.956,-1309.4835 1244.979,-1293.6578 1244.979,-1268.3422 1277.956,-1252.5165 1322.044,-1252.5165 1355.021,-1268.3422"/>
<text text-anchor="middle" x="1300" y="-1273.8" font-family="Times,serif" font-size="24.00" fill="#000000">timer</text>
</a>
</g>
</g>
<!-- statictea&#45;&gt;timer -->
<g id="edge126" class="edge">
<title>statictea&#45;&gt;timer</title>
<path fill="none" stroke="#000000" d="M794.4012,-1410.5814C807.8539,-1406.4214 822.4255,-1402.1143 836,-1398.5083 1012.0219,-1351.7488 1063.0563,-1366.5938 1236,-1309.4917 1240.5258,-1307.9974 1245.1657,-1306.293 1249.7787,-1304.4777"/>
<polygon fill="#000000" stroke="#000000" points="1251.2409,-1307.661 1259.1646,-1300.6279 1248.5844,-1301.1847 1251.2409,-1307.661"/>
</g>
<!-- parseCommandLine -->
<g id="node31" class="node">
<title>parseCommandLine</title>
<g id="a_node31"><a xlink:href="parseCommandLine.md" xlink:title="parseCommandLine.md">
<ellipse fill="#eee8aa" stroke="#000000" cx="253" cy="-609" rx="148.8522" ry="22.7556"/>
<text text-anchor="middle" x="253" y="-601.8" font-family="Times,serif" font-size="24.00" fill="#000000">parseCommandLine</text>
</a>
</g>
</g>
<!-- statictea&#45;&gt;parseCommandLine -->
<g id="edge12" class="edge">
<title>statictea&#45;&gt;parseCommandLine</title>
<path fill="none" stroke="#000000" d="M694.9571,-1410.3848C644.8909,-1391.6556 566.9367,-1357.4376 512,-1309.4917 497.566,-1296.8945 423.1626,-1184.4523 414,-1167.6274 379.5727,-1104.4098 352,-1089.984 352,-1018 352,-1018 352,-1018 352,-890 352,-794.8048 300.8315,-691.2502 272.0671,-640.5578"/>
<polygon fill="#000000" stroke="#000000" points="275.0003,-638.6377 266.9743,-631.7215 268.9355,-642.1332 275.0003,-638.6377"/>
</g>
<!-- processTemplate -->
<g id="node32" class="node">
<title>processTemplate</title>
<g id="a_node32"><a xlink:href="processTemplate.md" xlink:title="processTemplate.md">
<ellipse fill="#eee8aa" stroke="#000000" cx="1102" cy="-1281" rx="125.2054" ry="22.7556"/>
<text text-anchor="middle" x="1102" y="-1273.8" font-family="Times,serif" font-size="24.00" fill="#000000">processTemplate</text>
</a>
</g>
</g>
<!-- statictea&#45;&gt;processTemplate -->
<g id="edge119" class="edge">
<title>statictea&#45;&gt;processTemplate</title>
<path fill="none" stroke="#000000" d="M787.8978,-1409.0975C851.6004,-1383.1183 969.8809,-1334.881 1041.7139,-1305.5859"/>
<polygon fill="#000000" stroke="#000000" points="1043.1615,-1308.7755 1051.0994,-1301.7584 1040.5181,-1302.2938 1043.1615,-1308.7755"/>
</g>
<!-- comparelines -->
<g id="node22" class="node">
<title>comparelines</title>
<g id="a_node22"><a xlink:href="comparelines.md" xlink:title="comparelines.md">
<polygon fill="#98fb98" stroke="#000000" points="1215.3362,-1416.8581 1215.3362,-1437.1419 1150.7028,-1451.4846 1059.2972,-1451.4846 994.6638,-1437.1419 994.6638,-1416.8581 1059.2972,-1402.5154 1150.7028,-1402.5154 1215.3362,-1416.8581"/>
<polygon fill="none" stroke="#000000" points="1219.3422,-1413.6506 1219.3422,-1440.3494 1151.1427,-1455.4835 1058.8573,-1455.4835 990.6578,-1440.3494 990.6578,-1413.6506 1058.8573,-1398.5165 1151.1427,-1398.5165 1219.3422,-1413.6506"/>
<text text-anchor="middle" x="1105" y="-1419.8" font-family="Times,serif" font-size="24.00" fill="#000000">comparelines</text>
</a>
</g>
</g>
<!-- signatures&#45;&gt;vartypes -->
<g id="edge76" class="edge">
<title>signatures&#45;&gt;vartypes</title>
<path fill="none" stroke="#000000" d="M2369.4159,-735.883C2321.4661,-716.4405 2247.7363,-682.2211 2194,-637.4917 2180.3828,-626.157 2115.7431,-540.513 2080.7054,-493.567"/>
<polygon fill="#000000" stroke="#000000" points="2083.3093,-491.2039 2074.5265,-485.2782 2077.697,-495.3875 2083.3093,-491.2039"/>
</g>
<!-- signatures&#45;&gt;funtypes -->
<g id="edge77" class="edge">
<title>signatures&#45;&gt;funtypes</title>
<path fill="none" stroke="#000000" d="M2412.375,-731.3438C2406.413,-707.3303 2396.9404,-669.1767 2390.1588,-641.8617"/>
<polygon fill="#000000" stroke="#000000" points="2393.5109,-640.8376 2387.7043,-631.9757 2386.7171,-642.5244 2393.5109,-640.8376"/>
</g>
<!-- signatures&#45;&gt;messages -->
<g id="edge78" class="edge">
<title>signatures&#45;&gt;messages</title>
<path fill="none" stroke="#000000" d="M2384.6504,-733.278C2352.4679,-712.0942 2303.7845,-676.7986 2270,-637.4917 2109.4279,-450.6729 2170.7188,-324.4918 1986,-161.5083 1938.2861,-119.4087 1872.6424,-88.475 1823.023,-69.1052"/>
<polygon fill="#000000" stroke="#000000" points="1824.2281,-65.8188 1813.638,-65.5043 1821.7205,-72.3543 1824.2281,-65.8188"/>
</g>
<!-- args&#45;&gt;warnings -->
<g id="edge3" class="edge">
<title>args&#45;&gt;warnings</title>
<path fill="none" stroke="#000000" d="M828.4854,-446.6943C836.5301,-442.3454 845.4612,-437.9143 854,-434.5083 873.9935,-426.5331 1483.2421,-262.3303 1686.6297,-207.5863"/>
<polygon fill="#000000" stroke="#000000" points="1687.8319,-210.8874 1696.5786,-204.9087 1686.0126,-204.128 1687.8319,-210.8874"/>
</g>
<!-- args&#45;&gt;opresultwarn -->
<g id="edge6" class="edge">
<title>args&#45;&gt;opresultwarn</title>
<path fill="none" stroke="#000000" d="M834.2865,-450.8166C851.3322,-445.0306 872.5433,-438.5195 892,-434.5083 1068.6115,-398.0972 1598.1952,-353.3065 1825.0189,-335.1846"/>
<polygon fill="#000000" stroke="#000000" points="1825.5702,-338.6518 1835.2604,-334.368 1825.0138,-331.6739 1825.5702,-338.6518"/>
</g>
<!-- args&#45;&gt;messages -->
<g id="edge1" class="edge">
<title>args&#45;&gt;messages</title>
<path fill="none" stroke="#000000" d="M814.5568,-441.4564C851.3678,-384.9644 959.3778,-232.0628 1092,-161.5083 1188.2442,-110.3067 1497.2118,-71.638 1655.9197,-54.5878"/>
<polygon fill="#000000" stroke="#000000" points="1656.5801,-58.0373 1666.1523,-53.4961 1655.8374,-51.0768 1656.5801,-58.0373"/>
</g>
<!-- opresultwarn&#45;&gt;warnings -->
<g id="edge4" class="edge">
<title>opresultwarn&#45;&gt;warnings</title>
<path fill="none" stroke="#000000" d="M1901.7954,-305.2919C1870.8885,-281.504 1821.2447,-243.295 1787.6593,-217.4456"/>
<polygon fill="#000000" stroke="#000000" points="1789.5471,-214.482 1779.4878,-211.1563 1785.2776,-220.0292 1789.5471,-214.482"/>
</g>
<!-- opresultwarn&#45;&gt;opresult -->
<g id="edge5" class="edge">
<title>opresultwarn&#45;&gt;opresult</title>
<path fill="none" stroke="#000000" d="M1979.7975,-307.2253C2041.3359,-282.7883 2146.0707,-241.198 2212.8255,-214.6896"/>
<polygon fill="#000000" stroke="#000000" points="2214.3871,-217.8354 2222.3893,-210.8918 2211.8035,-211.3296 2214.3871,-217.8354"/>
</g>
<!-- matches&#45;&gt;regexes -->
<g id="edge22" class="edge">
<title>matches&#45;&gt;regexes</title>
<path fill="none" stroke="#000000" d="M945.9382,-586.5075C957.0381,-563.6823 974.4218,-527.9355 987.6371,-500.7604"/>
<polygon fill="#000000" stroke="#000000" points="990.8947,-502.0647 992.1205,-491.541 984.5996,-499.0033 990.8947,-502.0647"/>
</g>
<!-- matches&#45;&gt;args -->
<g id="edge21" class="edge">
<title>matches&#45;&gt;args</title>
<path fill="none" stroke="#000000" d="M914.9388,-587.1423C891.3142,-561.402 852.0423,-518.6132 826.3368,-490.6058"/>
<polygon fill="#000000" stroke="#000000" points="828.811,-488.1254 819.4706,-483.1247 823.6539,-492.8587 828.811,-488.1254"/>
</g>
<!-- readjson -->
<g id="node29" class="node">
<title>readjson</title>
<g id="a_node29"><a xlink:href="readjson.md" xlink:title="readjson.md">
<ellipse fill="#eee8aa" stroke="#000000" cx="2913" cy="-890" rx="68.6102" ry="22.7556"/>
<text text-anchor="middle" x="2913" y="-882.8" font-family="Times,serif" font-size="24.00" fill="#000000">readjson</text>
</a>
</g>
</g>
<!-- readjson&#45;&gt;unicodes -->
<g id="edge85" class="edge">
<title>readjson&#45;&gt;unicodes</title>
<path fill="none" stroke="#000000" d="M2891.6088,-868.4504C2868.7369,-845.409 2832.3354,-808.7379 2806.9199,-783.1341"/>
<polygon fill="#000000" stroke="#000000" points="2809.2671,-780.5305 2799.7381,-775.8991 2804.2991,-785.462 2809.2671,-780.5305"/>
</g>
<!-- readjson&#45;&gt;vartypes -->
<g id="edge82" class="edge">
<title>readjson&#45;&gt;vartypes</title>
<path fill="none" stroke="#000000" d="M2908.9337,-867.3664C2902.2822,-834.3412 2886.9334,-771.8422 2859,-725.5083 2812.7493,-648.7908 2798.0728,-622.6056 2719,-580.5083 2518.9876,-474.0244 2440.0752,-531.2568 2217,-491.4917 2187.985,-486.3196 2155.9966,-480.5923 2128.3659,-475.6374"/>
<polygon fill="#000000" stroke="#000000" points="2128.8578,-472.1698 2118.3969,-473.8493 2127.6219,-479.0599 2128.8578,-472.1698"/>
</g>
<!-- readjson&#45;&gt;utf8decoder -->
<g id="edge86" class="edge">
<title>readjson&#45;&gt;utf8decoder</title>
<path fill="none" stroke="#000000" d="M2864.3781,-873.7187C2817.7738,-856.3945 2747.2792,-825.5293 2697,-782.4917 2690.7652,-777.1549 2633.8446,-695.5225 2599.6614,-646.1627"/>
<polygon fill="#000000" stroke="#000000" points="2602.3349,-643.8754 2593.766,-637.6444 2596.5789,-647.859 2602.3349,-643.8754"/>
</g>
<!-- readjson&#45;&gt;warnings -->
<g id="edge84" class="edge">
<title>readjson&#45;&gt;warnings</title>
<path fill="none" stroke="#000000" d="M2915.7404,-867.3266C2918.8515,-835.0447 2921.7562,-774.3365 2907,-725.5083 2856.7417,-559.2037 2789.44,-532.5291 2646,-434.5083 2545.496,-365.8281 2519.9922,-344.3078 2405,-304.3726 2206.9812,-235.6034 1960.2029,-206.7951 1834.2724,-195.8955"/>
<polygon fill="#000000" stroke="#000000" points="1834.2024,-192.377 1823.9421,-195.0182 1833.61,-199.3519 1834.2024,-192.377"/>
</g>
<!-- readjson&#45;&gt;opresultwarn -->
<g id="edge87" class="edge">
<title>readjson&#45;&gt;opresultwarn</title>
<path fill="none" stroke="#000000" d="M2912.6026,-867.1849C2911.2747,-834.4709 2905.9211,-772.9538 2885,-725.5083 2852.0357,-650.7506 2839.4036,-626.6831 2772,-580.5083 2537.6512,-419.9674 2199.1369,-358.8736 2031.6919,-337.4761"/>
<polygon fill="#000000" stroke="#000000" points="2032.0048,-333.988 2021.6465,-336.214 2031.1321,-340.9334 2032.0048,-333.988"/>
</g>
<!-- readjson&#45;&gt;messages -->
<g id="edge83" class="edge">
<title>readjson&#45;&gt;messages</title>
<path fill="none" stroke="#000000" d="M2943.6812,-869.6844C3002.2016,-828.2172 3124,-727.6585 3124,-609 3124,-609 3124,-609 3124,-327 3124,-207.1182 3022.314,-206.0149 2911,-161.5083 2718.3623,-84.4859 2090.0136,-56.086 1848.1215,-47.8455"/>
<polygon fill="#000000" stroke="#000000" points="1848.052,-44.3412 1837.9398,-47.5028 1847.8164,-51.3373 1848.052,-44.3412"/>
</g>
<!-- parseCommandLine&#45;&gt;regexes -->
<g id="edge10" class="edge">
<title>parseCommandLine&#45;&gt;regexes</title>
<path fill="none" stroke="#000000" d="M344.9559,-591.1706C493.7093,-562.3286 784.6551,-505.9168 925.6248,-478.584"/>
<polygon fill="#000000" stroke="#000000" points="926.3605,-482.0067 935.5114,-476.6671 925.028,-475.1346 926.3605,-482.0067"/>
</g>
<!-- parseCommandLine&#45;&gt;cmdline -->
<g id="edge11" class="edge">
<title>parseCommandLine&#45;&gt;cmdline</title>
<path fill="none" stroke="#000000" d="M269.0938,-586.1875C285.329,-563.1744 310.6631,-527.2639 329.798,-500.1407"/>
<polygon fill="#000000" stroke="#000000" points="332.8687,-501.8596 335.7734,-491.6707 327.1488,-497.8243 332.8687,-501.8596"/>
</g>
<!-- parseCommandLine&#45;&gt;warnings -->
<g id="edge9" class="edge">
<title>parseCommandLine&#45;&gt;warnings</title>
<path fill="none" stroke="#000000" d="M310.8834,-588.0109C403.7754,-554.5059 592.0474,-487.3313 753,-434.5083 939.8884,-373.1734 985.2852,-352.5091 1176,-304.3726 1353.8195,-259.4908 1566.1407,-221.2121 1676.6785,-202.4172"/>
<polygon fill="#000000" stroke="#000000" points="1677.4545,-205.8357 1686.7292,-200.7143 1676.2851,-198.934 1677.4545,-205.8357"/>
</g>
<!-- parseCommandLine&#45;&gt;args -->
<g id="edge7" class="edge">
<title>parseCommandLine&#45;&gt;args</title>
<path fill="none" stroke="#000000" d="M341.8799,-590.8052C463.3172,-565.4481 674.4141,-519.4561 748,-491.4917 753.5052,-489.3996 759.156,-486.8473 764.6212,-484.1388"/>
<polygon fill="#000000" stroke="#000000" points="766.3214,-487.1998 773.5852,-479.487 763.097,-480.9866 766.3214,-487.1998"/>
</g>
<!-- parseCommandLine&#45;&gt;messages -->
<g id="edge8" class="edge">
<title>parseCommandLine&#45;&gt;messages</title>
<path fill="none" stroke="#000000" d="M248.5305,-586.1463C242.8256,-549.9124 237.439,-478.8533 272,-434.5083 486.4693,-159.324 670.4163,-249.603 1008,-161.5083 1236.7024,-101.8268 1513.4296,-68.3348 1656.295,-53.8064"/>
<polygon fill="#000000" stroke="#000000" points="1656.749,-57.2785 1666.3475,-52.793 1656.0468,-50.3138 1656.749,-57.2785"/>
</g>
<!-- processTemplate&#45;&gt;parseCmdLine -->
<g id="edge30" class="edge">
<title>processTemplate&#45;&gt;parseCmdLine</title>
<path fill="none" stroke="#000000" d="M992.7591,-1269.8089C919.8753,-1256.7838 826.9499,-1228.6017 768,-1167.6274 662.6722,-1058.6826 645.7373,-864.1354 643.2795,-786.907"/>
<polygon fill="#000000" stroke="#000000" points="646.7759,-786.7166 643.0211,-776.8095 639.7782,-786.8958 646.7759,-786.7166"/>
</g>
<!-- processTemplate&#45;&gt;env -->
<g id="edge20" class="edge">
<title>processTemplate&#45;&gt;env</title>
<path fill="none" stroke="#000000" d="M1102.4297,-1258.3555C1104.0097,-1175.0864 1109.5028,-885.6017 1111.3718,-787.1069"/>
<polygon fill="#000000" stroke="#000000" points="1114.8759,-786.9207 1111.5663,-776.8561 1107.8771,-786.7878 1114.8759,-786.9207"/>
</g>
<!-- processTemplate&#45;&gt;variables -->
<g id="edge93" class="edge">
<title>processTemplate&#45;&gt;variables</title>
<path fill="none" stroke="#000000" d="M1130.1548,-1258.6944C1196.4261,-1205.0399 1364.5319,-1062.0946 1469,-912.6274 1497.1618,-872.3351 1519.2806,-819.625 1531.7487,-786.2791"/>
<polygon fill="#000000" stroke="#000000" points="1535.1459,-787.181 1535.3043,-776.5873 1528.5742,-784.77 1535.1459,-787.181"/>
</g>
<!-- processTemplate&#45;&gt;vartypes -->
<g id="edge94" class="edge">
<title>processTemplate&#45;&gt;vartypes</title>
<path fill="none" stroke="#000000" d="M1181.6034,-1263.5038C1199.4722,-1259.7356 1218.3618,-1255.8761 1236,-1252.5083 1547.5415,-1193.0232 1910,-1335.1696 1910,-1018 1910,-1018 1910,-1018 1910,-890 1910,-808.775 2006.8146,-579.616 2043.837,-494.9536"/>
<polygon fill="#000000" stroke="#000000" points="2047.1304,-496.1586 2047.9437,-485.595 2040.7204,-493.3457 2047.1304,-496.1586"/>
</g>
<!-- processTemplate&#45;&gt;codefile -->
<g id="edge118" class="edge">
<title>processTemplate&#45;&gt;codefile</title>
<path fill="none" stroke="#000000" d="M1177.0768,-1262.7996C1288.4338,-1235.8039 1495.407,-1185.6286 1599.6011,-1160.3694"/>
<polygon fill="#000000" stroke="#000000" points="1600.4631,-1163.7619 1609.3569,-1158.0044 1598.8138,-1156.959 1600.4631,-1163.7619"/>
</g>
<!-- processTemplate&#45;&gt;replacement -->
<g id="edge107" class="edge">
<title>processTemplate&#45;&gt;replacement</title>
<path fill="none" stroke="#000000" d="M1090.4989,-1258.2881C1056.9392,-1192.0164 959.0603,-998.7302 920.1872,-921.9657"/>
<polygon fill="#000000" stroke="#000000" points="923.1731,-920.1147 915.5329,-912.7746 916.9282,-923.2771 923.1731,-920.1147"/>
</g>
<!-- processTemplate&#45;&gt;readlines -->
<g id="edge24" class="edge">
<title>processTemplate&#45;&gt;readlines</title>
<path fill="none" stroke="#000000" d="M1107.1783,-1258.2563C1129.5434,-1160.025 1217.9934,-771.5387 1246.2634,-647.3727"/>
<polygon fill="#000000" stroke="#000000" points="1249.6947,-648.0673 1248.5021,-637.5398 1242.8694,-646.5133 1249.6947,-648.0673"/>
</g>
<!-- processTemplate&#45;&gt;collectCommand -->
<g id="edge37" class="edge">
<title>processTemplate&#45;&gt;collectCommand</title>
<path fill="none" stroke="#000000" d="M1115.418,-1258.2881C1154.6506,-1191.8814 1269.2284,-997.9423 1314.3911,-921.4981"/>
<polygon fill="#000000" stroke="#000000" points="1317.4718,-923.1646 1319.545,-912.7746 1311.445,-919.604 1317.4718,-923.1646"/>
</g>
<!-- processTemplate&#45;&gt;args -->
<g id="edge13" class="edge">
<title>processTemplate&#45;&gt;args</title>
<path fill="none" stroke="#000000" d="M991.8598,-1270.1278C911.4275,-1257.2162 803.808,-1229.0374 729,-1167.6274 578.9606,-1044.4598 570.1937,-970.7862 523,-782.4917 500.8681,-694.1897 500.0316,-651.513 557,-580.5083 606.9975,-518.192 698.1243,-486.8302 753.7519,-472.7854"/>
<polygon fill="#000000" stroke="#000000" points="754.8199,-476.1277 763.7078,-470.3609 753.1636,-469.3265 754.8199,-476.1277"/>
</g>
<!-- processTemplate&#45;&gt;opresultwarn -->
<g id="edge108" class="edge">
<title>processTemplate&#45;&gt;opresultwarn</title>
<path fill="none" stroke="#000000" d="M1178.9718,-1263.1442C1197.5702,-1259.2431 1217.4371,-1255.4165 1236,-1252.5083 1604.5283,-1194.7715 1704.089,-1234.88 2071,-1167.6274 2285.9457,-1128.2292 2335.4294,-1099.0561 2546,-1040.6274 2744.3044,-985.6023 2867.2162,-1077.0354 2991,-912.6274 3091.1073,-779.6662 2938.2309,-695.5939 2818,-580.5083 2721.4214,-488.0628 2681.1029,-478.9114 2555,-434.5083 2379.191,-372.6027 2162.5879,-345.5583 2036.0264,-334.34"/>
<polygon fill="#000000" stroke="#000000" points="2036.2105,-330.8429 2025.9448,-333.4631 2035.6038,-337.8166 2036.2105,-330.8429"/>
</g>
<!-- processTemplate&#45;&gt;messages -->
<g id="edge14" class="edge">
<title>processTemplate&#45;&gt;messages</title>
<path fill="none" stroke="#000000" d="M1003.3922,-1267.0269C914.1713,-1251.5927 781.0551,-1221.4755 676,-1167.6274 289.7955,-969.6705 0,-896.9826 0,-463 0,-463 0,-463 0,-327 0,-232.639 49.426,-205.3191 133,-161.5083 267.796,-90.8461 1327.9933,-56.4762 1655.7772,-47.466"/>
<polygon fill="#000000" stroke="#000000" points="1656.2933,-50.9533 1666.194,-47.1815 1656.1021,-43.9559 1656.2933,-50.9533"/>
</g>
<!-- processTemplate&#45;&gt;matches -->
<g id="edge23" class="edge">
<title>processTemplate&#45;&gt;matches</title>
<path fill="none" stroke="#000000" d="M1039.1601,-1261.2797C945.9676,-1227.6578 782,-1149.7774 782,-1018 782,-1018 782,-1018 782,-890 782,-787.1315 862.0661,-686.0437 906.3586,-637.9922"/>
<polygon fill="#000000" stroke="#000000" points="909.1229,-640.1607 913.4033,-630.469 904.0134,-635.3761 909.1229,-640.1607"/>
</g>
<!-- processTemplate&#45;&gt;readjson -->
<g id="edge95" class="edge">
<title>processTemplate&#45;&gt;readjson</title>
<path fill="none" stroke="#000000" d="M1179.7105,-1263.1944C1198.1034,-1259.3364 1217.694,-1255.5163 1236,-1252.5083 1557.001,-1199.7606 1644.1963,-1232.3435 1963,-1167.6274 2308.6858,-1097.4544 2710.8418,-961.3021 2856.6183,-910.1094"/>
<polygon fill="#000000" stroke="#000000" points="2857.9862,-913.3385 2866.257,-906.717 2855.6622,-906.7355 2857.9862,-913.3385"/>
</g>
<!-- processTemplate&#45;&gt;runCommand -->
<g id="edge92" class="edge">
<title>processTemplate&#45;&gt;runCommand</title>
<path fill="none" stroke="#000000" d="M1180.0787,-1263.2067C1198.3683,-1259.3702 1217.8212,-1255.5564 1236,-1252.5083 1539.8543,-1201.5597 1655.2369,-1318.2581 1924,-1167.6274 1972.5056,-1140.442 2008.4882,-1084.7589 2027.5655,-1049.5188"/>
<polygon fill="#000000" stroke="#000000" points="2030.7021,-1051.0741 2032.2717,-1040.5961 2024.5106,-1047.8084 2030.7021,-1051.0741"/>
</g>
<!-- runCommand&#45;&gt;runFunction -->
<g id="edge81" class="edge">
<title>runCommand&#45;&gt;runFunction</title>
<path fill="none" stroke="#000000" d="M2083.6745,-997.0067C2127.0893,-974.5991 2195.8678,-939.1005 2242.1769,-915.199"/>
<polygon fill="#000000" stroke="#000000" points="2243.844,-918.2773 2251.1249,-910.5807 2240.6334,-912.057 2243.844,-918.2773"/>
</g>
<!-- runCommand&#45;&gt;parseNumber -->
<g id="edge48" class="edge">
<title>runCommand&#45;&gt;parseNumber</title>
<path fill="none" stroke="#000000" d="M2047.1757,-995.0336C2055.4211,-949.684 2073.8701,-848.2145 2084.0036,-792.48"/>
<polygon fill="#000000" stroke="#000000" points="2087.4493,-793.094 2085.7947,-782.6292 2080.5622,-791.8418 2087.4493,-793.094"/>
</g>
<!-- runCommand&#45;&gt;regexes -->
<g id="edge40" class="edge">
<title>runCommand&#45;&gt;regexes</title>
<path fill="none" stroke="#000000" d="M2019.6656,-995.9105C1927.7685,-909.0003 1594.5134,-594.6532 1567,-580.5083 1410.2213,-499.9066 1201.7792,-474.5872 1088.2532,-466.6366"/>
<polygon fill="#000000" stroke="#000000" points="1088.4499,-463.142 1078.2376,-465.9631 1087.9802,-470.1262 1088.4499,-463.142"/>
</g>
<!-- runCommand&#45;&gt;env -->
<g id="edge41" class="edge">
<title>runCommand&#45;&gt;env</title>
<path fill="none" stroke="#000000" d="M1943.6955,-1010.7601C1733.4458,-994.7001 1257.6008,-954.2114 1197,-912.6274 1153.5536,-882.8148 1130.4615,-823.441 1119.7609,-786.3919"/>
<polygon fill="#000000" stroke="#000000" points="1123.0887,-785.2929 1117.0647,-776.5773 1116.3387,-787.1472 1123.0887,-785.2929"/>
</g>
<!-- runCommand&#45;&gt;unicodes -->
<g id="edge91" class="edge">
<title>runCommand&#45;&gt;unicodes</title>
<path fill="none" stroke="#000000" d="M2140.6388,-1009.7463C2290.5505,-995.6573 2569.0117,-963.4616 2654,-912.6274 2704.8071,-882.238 2742.6618,-822.6289 2762.4644,-785.7638"/>
<polygon fill="#000000" stroke="#000000" points="2765.7967,-786.945 2767.3371,-776.4627 2759.5961,-783.6966 2765.7967,-786.945"/>
</g>
<!-- runCommand&#45;&gt;variables -->
<g id="edge55" class="edge">
<title>runCommand&#45;&gt;variables</title>
<path fill="none" stroke="#000000" d="M2006.0446,-996.7256C1954.1613,-967.0263 1856.5923,-911.7894 1772,-867.3726 1710.6346,-835.1515 1638.8774,-800.0322 1592.2689,-777.5534"/>
<polygon fill="#000000" stroke="#000000" points="1593.5339,-774.2779 1583.0056,-773.0925 1590.4967,-780.5847 1593.5339,-774.2779"/>
</g>
<!-- runCommand&#45;&gt;vartypes -->
<g id="edge45" class="edge">
<title>runCommand&#45;&gt;vartypes</title>
<path fill="none" stroke="#000000" d="M2134.5691,-1006.9699C2253.1941,-986.8156 2451.3992,-931.3271 2507,-782.4917 2515.8628,-758.7672 2520.916,-746.6684 2507,-725.5083 2452.7417,-643.0053 2389.0299,-685.964 2303,-637.4917 2222.9571,-592.3928 2137.2162,-526.8674 2091.4148,-490.2927"/>
<polygon fill="#000000" stroke="#000000" points="2093.5969,-487.5562 2083.6066,-484.0285 2089.2165,-493.0163 2093.5969,-487.5562"/>
</g>
<!-- runCommand&#45;&gt;readlines -->
<g id="edge38" class="edge">
<title>runCommand&#45;&gt;readlines</title>
<path fill="none" stroke="#000000" d="M1979.5265,-999.8452C1869.0265,-966.6399 1636.3663,-889.5575 1461,-782.4917 1395.7133,-742.6325 1329.7438,-682.8676 1290.6253,-644.9154"/>
<polygon fill="#000000" stroke="#000000" points="1292.7662,-642.1138 1283.1678,-637.6281 1287.8739,-647.1204 1292.7662,-642.1138"/>
</g>
<!-- runCommand&#45;&gt;funtypes -->
<g id="edge59" class="edge">
<title>runCommand&#45;&gt;funtypes</title>
<path fill="none" stroke="#000000" d="M2146.3338,-1014.2942C2294.8735,-1006.5484 2557.3773,-983.0136 2616,-912.6274 2669.2229,-848.7245 2659.7814,-796.215 2616,-725.5083 2595.9171,-693.0745 2501.2928,-652.9929 2438.6937,-629.2964"/>
<polygon fill="#000000" stroke="#000000" points="2439.913,-626.0157 2429.3208,-625.7799 2437.454,-632.5696 2439.913,-626.0157"/>
</g>
<!-- runCommand&#45;&gt;warnings -->
<g id="edge47" class="edge">
<title>runCommand&#45;&gt;warnings</title>
<path fill="none" stroke="#000000" d="M2034.6059,-995.1936C2010.688,-930.2698 1940.0385,-738.9148 1880,-580.5083 1841.0239,-477.6731 1823.8959,-454.5658 1791,-349.6274 1777.4092,-306.2726 1765.6342,-255.0801 1758.6759,-222.5818"/>
<polygon fill="#000000" stroke="#000000" points="1762.0838,-221.7799 1756.5898,-212.7209 1755.2354,-223.2288 1762.0838,-221.7799"/>
</g>
<!-- runCommand&#45;&gt;collectCommand -->
<g id="edge89" class="edge">
<title>runCommand&#45;&gt;collectCommand</title>
<path fill="none" stroke="#000000" d="M1962.59,-1003.5035C1832.0263,-979.9653 1574.2721,-933.4969 1432.412,-907.9222"/>
<polygon fill="#000000" stroke="#000000" points="1432.8641,-904.4473 1422.4017,-906.1175 1431.6221,-911.3363 1432.8641,-904.4473"/>
</g>
<!-- runCommand&#45;&gt;opresultwarn -->
<g id="edge90" class="edge">
<title>runCommand&#45;&gt;opresultwarn</title>
<path fill="none" stroke="#000000" d="M2138.0204,-1008.4313C2293.3743,-991.8143 2594.2439,-955.2851 2692,-912.6274 2794.165,-868.0459 2894.0739,-831.3148 2859,-725.5083 2857.4197,-720.7411 2755.1019,-583.4061 2751,-580.5083 2743.0061,-574.8608 2195.8969,-407.96 1999.3483,-348.1048"/>
<polygon fill="#000000" stroke="#000000" points="2000.2839,-344.7311 1989.698,-345.1662 1998.2447,-351.4275 2000.2839,-344.7311"/>
</g>
<!-- runCommand&#45;&gt;messages -->
<g id="edge46" class="edge">
<title>runCommand&#45;&gt;messages</title>
<path fill="none" stroke="#000000" d="M2143.4994,-1011.651C2372.6936,-996.4877 2919.7849,-956.1688 2991,-912.6274 3123.1347,-831.8393 3162,-763.8751 3162,-609 3162,-609 3162,-609 3162,-327 3162,-223.762 3092.2692,-205.7681 2999,-161.5083 2895.8449,-112.5572 2122.4539,-65.4987 1848.1366,-50.1823"/>
<polygon fill="#000000" stroke="#000000" points="1847.9838,-46.6684 1837.8047,-49.6072 1847.5947,-53.6576 1847.9838,-46.6684"/>
</g>
<!-- runCommand&#45;&gt;matches -->
<g id="edge39" class="edge">
<title>runCommand&#45;&gt;matches</title>
<path fill="none" stroke="#000000" d="M1968.1472,-1002.15C1883.0299,-983.4828 1740.2736,-950.215 1620,-912.6274 1541.9891,-888.2477 1347.1071,-822.7887 1276,-782.4917 1240.4956,-762.3711 1239.0212,-746.4587 1204,-725.5083 1134.7818,-684.1004 1048.1699,-649.3091 992.2291,-628.8121"/>
<polygon fill="#000000" stroke="#000000" points="993.089,-625.4007 982.4949,-625.2763 990.6991,-631.9801 993.089,-625.4007"/>
</g>
<!-- runCommand&#45;&gt;readjson -->
<g id="edge88" class="edge">
<title>runCommand&#45;&gt;readjson</title>
<path fill="none" stroke="#000000" d="M2139.6975,-1009.2371C2288.8482,-994.7819 2583.5866,-962.4819 2830,-912.6274 2837.045,-911.2021 2844.3745,-909.513 2851.6324,-907.7097"/>
<polygon fill="#000000" stroke="#000000" points="2852.6335,-911.0663 2861.4519,-905.1939 2850.8961,-904.2853 2852.6335,-911.0663"/>
</g>
</g>
</svg>
