<?xml version="1.0" encoding="UTF-8" standalone="no"?>
<!DOCTYPE svg PUBLIC "-//W3C//DTD SVG 1.1//EN"
 "http://www.w3.org/Graphics/SVG/1.1/DTD/svg11.dtd">
<!-- Generated by graphviz version 2.40.1 (20161225.0304)
 -->
<!-- Title: statictea Pages: 1 -->
<svg width="720pt" height="335pt"
 viewBox="0.00 0.00 720.00 335.37" xmlns="http://www.w3.org/2000/svg" xmlns:xlink="http://www.w3.org/1999/xlink">
<g id="graph0" class="graph" transform="scale(.2087 .2087) rotate(0) translate(4 1603.0038)">
<title>statictea</title>
<polygon fill="#ffffff" stroke="transparent" points="-4,4 -4,-1603.0038 3446,-1603.0038 3446,4 -4,4"/>
<!-- runFunction -->
<g id="node1" class="node">
<title>runFunction</title>
<g id="a_node1"><a xlink:href="runFunction.md" xlink:title="runFunction.md">
<ellipse fill="#eee8aa" stroke="#000000" cx="1936" cy="-936" rx="94.055" ry="22.7556"/>
<text text-anchor="middle" x="1936" y="-928.8" font-family="Times,serif" font-size="24.00" fill="#000000">runFunction</text>
</a>
</g>
</g>
<!-- parseNumber -->
<g id="node3" class="node">
<title>parseNumber</title>
<g id="a_node3"><a xlink:href="parseNumber.md" xlink:title="parseNumber.md">
<ellipse fill="#eee8aa" stroke="#000000" cx="2173" cy="-817" rx="102.9592" ry="22.7556"/>
<text text-anchor="middle" x="2173" y="-809.8" font-family="Times,serif" font-size="24.00" fill="#000000">parseNumber</text>
</a>
</g>
</g>
<!-- runFunction&#45;&gt;parseNumber -->
<g id="edge54" class="edge">
<title>runFunction&#45;&gt;parseNumber</title>
<path fill="none" stroke="#000000" d="M1976.7418,-915.5432C2017.1454,-895.2561 2079.1418,-864.1271 2122.6166,-842.298"/>
<polygon fill="#000000" stroke="#000000" points="2124.2319,-845.4034 2131.5981,-837.7883 2121.0908,-839.1477 2124.2319,-845.4034"/>
</g>
<!-- regexes -->
<g id="node4" class="node">
<title>regexes</title>
<g id="a_node4"><a xlink:href="regexes.md" xlink:title="regexes.md">
<polygon fill="#98fb98" stroke="#000000" points="1815.187,-423.8581 1815.187,-444.1419 1775.244,-458.4846 1718.756,-458.4846 1678.813,-444.1419 1678.813,-423.8581 1718.756,-409.5154 1775.244,-409.5154 1815.187,-423.8581"/>
<polygon fill="none" stroke="#000000" points="1819.1781,-421.0434 1819.1781,-446.9566 1775.9376,-462.4835 1718.0624,-462.4835 1674.8219,-446.9566 1674.8219,-421.0434 1718.0624,-405.5165 1775.9376,-405.5165 1819.1781,-421.0434"/>
<text text-anchor="middle" x="1747" y="-426.8" font-family="Times,serif" font-size="24.00" fill="#000000">regexes</text>
</a>
</g>
</g>
<!-- runFunction&#45;&gt;regexes -->
<g id="edge53" class="edge">
<title>runFunction&#45;&gt;regexes</title>
<path fill="none" stroke="#000000" d="M1932.8327,-913.1283C1923.5623,-850.7971 1892.9443,-673.7656 1828,-541.5083 1815.4161,-515.8814 1796.396,-490.2301 1779.9485,-470.4139"/>
<polygon fill="#000000" stroke="#000000" points="1782.4483,-467.9495 1773.3202,-462.5708 1777.1018,-472.4678 1782.4483,-467.9495"/>
</g>
<!-- unicodes -->
<g id="node9" class="node">
<title>unicodes</title>
<g id="a_node9"><a xlink:href="unicodes.md" xlink:title="unicodes.md">
<ellipse fill="#eee8aa" stroke="#000000" cx="2738" cy="-698" rx="71.7778" ry="22.7556"/>
<text text-anchor="middle" x="2738" y="-690.8" font-family="Times,serif" font-size="24.00" fill="#000000">unicodes</text>
</a>
</g>
</g>
<!-- runFunction&#45;&gt;unicodes -->
<g id="edge63" class="edge">
<title>runFunction&#45;&gt;unicodes</title>
<path fill="none" stroke="#000000" d="M1999.5476,-919.1398C2069.6348,-900.3845 2185.6545,-868.8649 2285,-839.6274 2426.5725,-797.9625 2591.7733,-745.2769 2678.2503,-717.3834"/>
<polygon fill="#000000" stroke="#000000" points="2679.4508,-720.6737 2687.892,-714.2709 2677.3003,-714.0122 2679.4508,-720.6737"/>
</g>
<!-- vartypes -->
<g id="node12" class="node">
<title>vartypes</title>
<g id="a_node12"><a xlink:href="vartypes.md" xlink:title="vartypes.md">
<ellipse fill="#eee8aa" stroke="#000000" cx="2478" cy="-570" rx="68.6102" ry="22.7556"/>
<text text-anchor="middle" x="2478" y="-562.8" font-family="Times,serif" font-size="24.00" fill="#000000">vartypes</text>
</a>
</g>
</g>
<!-- runFunction&#45;&gt;vartypes -->
<g id="edge52" class="edge">
<title>runFunction&#45;&gt;vartypes</title>
<path fill="none" stroke="#000000" d="M1951.7442,-913.6614C1973.6565,-883.7341 2015.7817,-830.2453 2061,-794.3726 2124.0304,-744.3691 2334.4476,-639.6649 2430.0275,-593.1371"/>
<polygon fill="#000000" stroke="#000000" points="2431.7202,-596.206 2439.1842,-588.6867 2428.6602,-589.9102 2431.7202,-596.206"/>
</g>
<!-- replacement -->
<g id="node14" class="node">
<title>replacement</title>
<g id="a_node14"><a xlink:href="replacement.md" xlink:title="replacement.md">
<ellipse fill="#eee8aa" stroke="#000000" cx="1388" cy="-817" rx="94.4556" ry="22.7556"/>
<text text-anchor="middle" x="1388" y="-809.8" font-family="Times,serif" font-size="24.00" fill="#000000">replacement</text>
</a>
</g>
</g>
<!-- runFunction&#45;&gt;replacement -->
<g id="edge77" class="edge">
<title>runFunction&#45;&gt;replacement</title>
<path fill="none" stroke="#000000" d="M1866.0388,-920.8077C1764.0489,-898.6602 1575.0458,-857.6176 1467.779,-834.3243"/>
<polygon fill="#000000" stroke="#000000" points="1468.492,-830.8976 1457.977,-832.1957 1467.0065,-837.7382 1468.492,-830.8976"/>
</g>
<!-- warnings -->
<g id="node18" class="node">
<title>warnings</title>
<g id="a_node18"><a xlink:href="warnings.md" xlink:title="warnings.md">
<ellipse fill="#eee8aa" stroke="#000000" cx="1278" cy="-178" rx="73.5561" ry="22.7556"/>
<text text-anchor="middle" x="1278" y="-170.8" font-family="Times,serif" font-size="24.00" fill="#000000">warnings</text>
</a>
</g>
</g>
<!-- runFunction&#45;&gt;warnings -->
<g id="edge51" class="edge">
<title>runFunction&#45;&gt;warnings</title>
<path fill="none" stroke="#000000" d="M1842.2128,-933.5462C1683.0124,-927.5559 1368.9699,-907.2697 1285,-839.6274 1188.5773,-761.9538 1231.6209,-405.3294 1253,-283.3726 1257.3047,-258.8165 1263.8571,-231.4289 1269.174,-210.731"/>
<polygon fill="#000000" stroke="#000000" points="1272.6116,-211.4185 1271.7462,-200.8591 1265.8378,-209.6535 1272.6116,-211.4185"/>
</g>
<!-- signatures -->
<g id="node24" class="node">
<title>signatures</title>
<g id="a_node24"><a xlink:href="signatures.md" xlink:title="signatures.md">
<ellipse fill="#eee8aa" stroke="#000000" cx="1998" cy="-698" rx="80.2483" ry="22.7556"/>
<text text-anchor="middle" x="1998" y="-690.8" font-family="Times,serif" font-size="24.00" fill="#000000">signatures</text>
</a>
</g>
</g>
<!-- runFunction&#45;&gt;signatures -->
<g id="edge66" class="edge">
<title>runFunction&#45;&gt;signatures</title>
<path fill="none" stroke="#000000" d="M1936.2601,-913.2296C1937.1064,-884.8666 1940.3166,-835.1694 1952,-794.3726 1958.506,-771.6544 1969.9373,-747.6673 1979.7762,-729.3071"/>
<polygon fill="#000000" stroke="#000000" points="1982.8573,-730.9676 1984.5952,-720.5163 1976.7191,-727.6027 1982.8573,-730.9676"/>
</g>
<!-- opresultwarn -->
<g id="node26" class="node">
<title>opresultwarn</title>
<g id="a_node26"><a xlink:href="opresultwarn.md" xlink:title="opresultwarn.md">
<ellipse fill="#eee8aa" stroke="#000000" cx="2443" cy="-306" rx="99.824" ry="22.7556"/>
<text text-anchor="middle" x="2443" y="-298.8" font-family="Times,serif" font-size="24.00" fill="#000000">opresultwarn</text>
</a>
</g>
</g>
<!-- runFunction&#45;&gt;opresultwarn -->
<g id="edge78" class="edge">
<title>runFunction&#45;&gt;opresultwarn</title>
<path fill="none" stroke="#000000" d="M1945.3202,-913.384C1957.8769,-884.3118 1982.0273,-832.9841 2011,-794.3726 2039.2482,-756.7266 2056.4291,-756.4129 2087,-720.6274 2130.1223,-670.1497 2146.1496,-659.209 2173,-598.4917 2208.5396,-518.1255 2160.1703,-473.3672 2216,-405.5083 2251.2957,-362.6076 2308.7254,-337.6695 2356.9868,-323.4875"/>
<polygon fill="#000000" stroke="#000000" points="2358.1502,-326.7958 2366.8208,-320.7071 2356.2457,-320.0599 2358.1502,-326.7958"/>
</g>
<!-- messages -->
<g id="node27" class="node">
<title>messages</title>
<g id="a_node27"><a xlink:href="messages.md" xlink:title="messages.md">
<polygon fill="#98fb98" stroke="#000000" points="1899.7388,-31.8581 1899.7388,-52.1419 1851.8573,-66.4846 1784.1427,-66.4846 1736.2612,-52.1419 1736.2612,-31.8581 1784.1427,-17.5154 1851.8573,-17.5154 1899.7388,-31.8581"/>
<polygon fill="none" stroke="#000000" points="1903.7446,-28.883 1903.7446,-55.117 1852.4454,-70.4835 1783.5546,-70.4835 1732.2554,-55.117 1732.2554,-28.883 1783.5546,-13.5165 1852.4454,-13.5165 1903.7446,-28.883"/>
<text text-anchor="middle" x="1818" y="-34.8" font-family="Times,serif" font-size="24.00" fill="#000000">messages</text>
</a>
</g>
</g>
<!-- runFunction&#45;&gt;messages -->
<g id="edge50" class="edge">
<title>runFunction&#45;&gt;messages</title>
<path fill="none" stroke="#000000" d="M1846.0253,-929.0943C1669.8863,-914.758 1292.9154,-879.7395 1250,-839.6274 1221.2244,-812.7315 1176,-616.1269 1176,-434 1176,-434 1176,-434 1176,-306 1176,-235.9374 1146.7137,-200.2744 1195,-149.5083 1265.7343,-75.1412 1565.6099,-52.0544 1722.0817,-45.0122"/>
<polygon fill="#000000" stroke="#000000" points="1722.3392,-48.5043 1732.1768,-44.5711 1722.0336,-41.511 1722.3392,-48.5043"/>
</g>
<!-- matches -->
<g id="node28" class="node">
<title>matches</title>
<g id="a_node28"><a xlink:href="matches.md" xlink:title="matches.md">
<ellipse fill="#eee8aa" stroke="#000000" cx="1385" cy="-570" rx="66.8311" ry="22.7556"/>
<text text-anchor="middle" x="1385" y="-562.8" font-family="Times,serif" font-size="24.00" fill="#000000">matches</text>
</a>
</g>
</g>
<!-- runFunction&#45;&gt;matches -->
<g id="edge55" class="edge">
<title>runFunction&#45;&gt;matches</title>
<path fill="none" stroke="#000000" d="M1911.5139,-914.0715C1890.9753,-895.1861 1861.3415,-866.7632 1838,-839.6274 1779.2136,-771.2849 1792.1212,-728.0967 1719,-675.3726 1640.2187,-618.5672 1529.7121,-591.6259 1457.7445,-579.3966"/>
<polygon fill="#000000" stroke="#000000" points="1458.2886,-575.9392 1447.8526,-577.7671 1457.1507,-582.8461 1458.2886,-575.9392"/>
</g>
<!-- opresultid -->
<g id="node2" class="node">
<title>opresultid</title>
<g id="a_node2"><a xlink:href="opresultid.md" xlink:title="opresultid.md">
<ellipse fill="#eee8aa" stroke="#000000" cx="2815" cy="-306" rx="79.3758" ry="22.7556"/>
<text text-anchor="middle" x="2815" y="-298.8" font-family="Times,serif" font-size="24.00" fill="#000000">opresultid</text>
</a>
</g>
</g>
<!-- opresultid&#45;&gt;messages -->
<g id="edge56" class="edge">
<title>opresultid&#45;&gt;messages</title>
<path fill="none" stroke="#000000" d="M2819.984,-283.392C2826.0508,-249.2043 2831.5174,-184.6254 2796,-149.5083 2733.9496,-88.1572 2147.8607,-56.2513 1913.8335,-45.8722"/>
<polygon fill="#000000" stroke="#000000" points="1913.7767,-42.3664 1903.6325,-45.4236 1913.4691,-49.3597 1913.7767,-42.3664"/>
</g>
<!-- opresult -->
<g id="node34" class="node">
<title>opresult</title>
<g id="a_node34"><a xlink:href="opresult.md" xlink:title="opresult.md">
<polygon fill="#98fb98" stroke="#000000" points="2783.3526,-167.8581 2783.3526,-188.1419 2741.5552,-202.4846 2682.4448,-202.4846 2640.6474,-188.1419 2640.6474,-167.8581 2682.4448,-153.5154 2741.5552,-153.5154 2783.3526,-167.8581"/>
<polygon fill="none" stroke="#000000" points="2787.3486,-165.0019 2787.3486,-190.9981 2742.2213,-206.4835 2681.7787,-206.4835 2636.6514,-190.9981 2636.6514,-165.0019 2681.7787,-149.5165 2742.2213,-149.5165 2787.3486,-165.0019"/>
<text text-anchor="middle" x="2712" y="-170.8" font-family="Times,serif" font-size="24.00" fill="#000000">opresult</text>
</a>
</g>
</g>
<!-- opresultid&#45;&gt;opresult -->
<g id="edge57" class="edge">
<title>opresultid&#45;&gt;opresult</title>
<path fill="none" stroke="#000000" d="M2797.0588,-283.7041C2781.7615,-264.6939 2759.4675,-236.9888 2741.5411,-214.7113"/>
<polygon fill="#000000" stroke="#000000" points="2744.1514,-212.3722 2735.1553,-206.7755 2738.6977,-216.7606 2744.1514,-212.3722"/>
</g>
<!-- parseNumber&#45;&gt;vartypes -->
<g id="edge41" class="edge">
<title>parseNumber&#45;&gt;vartypes</title>
<path fill="none" stroke="#ff0000" d="M2205.8927,-795.4578C2234.1462,-776.5812 2275.6358,-747.9637 2310,-720.6274 2360.3768,-680.5533 2415.3017,-629.8626 2448.179,-598.6968"/>
<polygon fill="#ff0000" stroke="#ff0000" points="2450.8137,-601.0211 2455.6473,-591.5932 2445.9893,-595.9491 2450.8137,-601.0211"/>
</g>
<!-- cmdline -->
<g id="node5" class="node">
<title>cmdline</title>
<g id="a_node5"><a xlink:href="cmdline.md" xlink:title="cmdline.md">
<polygon fill="#98fb98" stroke="#000000" points="352.3352,-423.8581 352.3352,-444.1419 310.548,-458.4846 251.452,-458.4846 209.6648,-444.1419 209.6648,-423.8581 251.452,-409.5154 310.548,-409.5154 352.3352,-423.8581"/>
<polygon fill="none" stroke="#000000" points="356.3307,-421.0021 356.3307,-446.9979 311.2141,-462.4835 250.7859,-462.4835 205.6693,-446.9979 205.6693,-421.0021 250.7859,-405.5165 311.2141,-405.5165 356.3307,-421.0021"/>
<text text-anchor="middle" x="281" y="-426.8" font-family="Times,serif" font-size="24.00" fill="#000000">cmdline</text>
</a>
</g>
</g>
<!-- parseCmdLine -->
<g id="node6" class="node">
<title>parseCmdLine</title>
<g id="a_node6"><a xlink:href="parseCmdLine.md" xlink:title="parseCmdLine.md">
<ellipse fill="#eee8aa" stroke="#000000" cx="1599" cy="-698" rx="111.4463" ry="22.7556"/>
<text text-anchor="middle" x="1599" y="-690.8" font-family="Times,serif" font-size="24.00" fill="#000000">parseCmdLine</text>
</a>
</g>
</g>
<!-- parseCmdLine&#45;&gt;regexes -->
<g id="edge25" class="edge">
<title>parseCmdLine&#45;&gt;regexes</title>
<path fill="none" stroke="#000000" d="M1613.779,-675.3729C1626.6635,-655.3941 1645.6412,-625.3494 1661,-598.4917 1685.4927,-555.662 1711.4497,-505.2261 1728.3589,-471.6017"/>
<polygon fill="#000000" stroke="#000000" points="1731.5269,-473.0921 1732.8795,-462.584 1725.2691,-469.9551 1731.5269,-473.0921"/>
</g>
<!-- parseCmdLine&#45;&gt;warnings -->
<g id="edge28" class="edge">
<title>parseCmdLine&#45;&gt;warnings</title>
<path fill="none" stroke="#000000" d="M1598.5077,-674.9343C1595.9003,-607.1165 1579.7046,-405.4809 1480,-283.3726 1444.8069,-240.2716 1387.2937,-212.7207 1342.6186,-196.645"/>
<polygon fill="#000000" stroke="#000000" points="1343.6005,-193.2807 1333.0057,-193.2901 1341.2939,-199.8898 1343.6005,-193.2807"/>
</g>
<!-- parseCmdLine&#45;&gt;opresultwarn -->
<g id="edge29" class="edge">
<title>parseCmdLine&#45;&gt;opresultwarn</title>
<path fill="none" stroke="#000000" d="M1604.6422,-675.1034C1609.5794,-654.9519 1616.8958,-624.8051 1623,-598.4917 1642.8579,-512.8911 1601.0764,-464.7259 1666,-405.5083 1714.726,-361.0646 2135.713,-326.8413 2336.8494,-312.8666"/>
<polygon fill="#000000" stroke="#000000" points="2337.1102,-316.357 2346.8452,-312.1762 2336.6278,-309.3737 2337.1102,-316.357"/>
</g>
<!-- parseCmdLine&#45;&gt;messages -->
<g id="edge26" class="edge">
<title>parseCmdLine&#45;&gt;messages</title>
<path fill="none" stroke="#000000" d="M1598.2266,-675.0477C1597.1752,-624.9562 1598.0824,-502.55 1627,-405.5083 1665.0143,-277.9399 1749.1832,-143.0823 1791.9568,-79.4317"/>
<polygon fill="#000000" stroke="#000000" points="1795.0033,-81.1748 1797.7085,-70.9311 1789.2057,-77.252 1795.0033,-81.1748"/>
</g>
<!-- parseCmdLine&#45;&gt;matches -->
<g id="edge27" class="edge">
<title>parseCmdLine&#45;&gt;matches</title>
<path fill="none" stroke="#000000" d="M1563.1812,-676.5757C1525.5706,-654.0796 1466.4863,-618.7394 1426.7778,-594.9886"/>
<polygon fill="#000000" stroke="#000000" points="1428.4971,-591.9387 1418.1185,-589.8092 1424.9039,-597.9461 1428.4971,-591.9387"/>
</g>
<!-- env -->
<g id="node7" class="node">
<title>env</title>
<g id="a_node7"><a xlink:href="env.md" xlink:title="env.md">
<ellipse fill="#eee8aa" stroke="#000000" cx="750" cy="-698" rx="35.6342" ry="22.7556"/>
<text text-anchor="middle" x="750" y="-690.8" font-family="Times,serif" font-size="24.00" fill="#000000">env</text>
</a>
</g>
</g>
<!-- tempFile -->
<g id="node11" class="node">
<title>tempFile</title>
<g id="a_node11"><a xlink:href="tempFile.md" xlink:title="tempFile.md">
<polygon fill="#98fb98" stroke="#000000" points="921.598,-559.8581 921.598,-580.1419 876.1421,-594.4846 811.8579,-594.4846 766.402,-580.1419 766.402,-559.8581 811.8579,-545.5154 876.1421,-545.5154 921.598,-559.8581"/>
<polygon fill="none" stroke="#000000" points="925.6004,-556.9275 925.6004,-583.0725 876.7591,-598.4835 811.2409,-598.4835 762.3996,-583.0725 762.3996,-556.9275 811.2409,-541.5165 876.7591,-541.5165 925.6004,-556.9275"/>
<text text-anchor="middle" x="844" y="-562.8" font-family="Times,serif" font-size="24.00" fill="#000000">tempFile</text>
</a>
</g>
</g>
<!-- env&#45;&gt;tempFile -->
<g id="edge15" class="edge">
<title>env&#45;&gt;tempFile</title>
<path fill="none" stroke="#000000" d="M765.1027,-677.4346C779.0616,-658.4268 800.1278,-629.7408 816.9817,-606.7908"/>
<polygon fill="#000000" stroke="#000000" points="819.8814,-608.7554 822.9795,-598.6236 814.2394,-604.612 819.8814,-608.7554"/>
</g>
<!-- readlines -->
<g id="node15" class="node">
<title>readlines</title>
<g id="a_node15"><a xlink:href="readlines.md" xlink:title="readlines.md">
<polygon fill="#98fb98" stroke="#000000" points="1143.5894,-559.8581 1143.5894,-580.1419 1097.5528,-594.4846 1032.4472,-594.4846 986.4106,-580.1419 986.4106,-559.8581 1032.4472,-545.5154 1097.5528,-545.5154 1143.5894,-559.8581"/>
<polygon fill="none" stroke="#000000" points="1147.5916,-556.9163 1147.5916,-583.0837 1098.1623,-598.4835 1031.8377,-598.4835 982.4084,-583.0837 982.4084,-556.9163 1031.8377,-541.5165 1098.1623,-541.5165 1147.5916,-556.9163"/>
<text text-anchor="middle" x="1065" y="-562.8" font-family="Times,serif" font-size="24.00" fill="#000000">readlines</text>
</a>
</g>
</g>
<!-- env&#45;&gt;readlines -->
<g id="edge19" class="edge">
<title>env&#45;&gt;readlines</title>
<path fill="none" stroke="#000000" d="M780.2035,-685.7268C830.8392,-665.1511 933.9056,-623.2701 1001.1703,-595.9371"/>
<polygon fill="#000000" stroke="#000000" points="1002.8776,-599.0214 1010.8244,-592.0142 1000.2424,-592.5363 1002.8776,-599.0214"/>
</g>
<!-- env&#45;&gt;warnings -->
<g id="edge17" class="edge">
<title>env&#45;&gt;warnings</title>
<path fill="none" stroke="#000000" d="M746.2831,-675.256C742.1173,-644.1436 737.7741,-586.9889 753,-541.5083 797.9738,-407.1688 824.95,-366.036 940,-283.3726 1017.9484,-227.3666 1126.5649,-200.4791 1199.4326,-188.0251"/>
<polygon fill="#000000" stroke="#000000" points="1200.1769,-191.4496 1209.4704,-186.3621 1199.0327,-184.5438 1200.1769,-191.4496"/>
</g>
<!-- args -->
<g id="node25" class="node">
<title>args</title>
<g id="a_node25"><a xlink:href="args.md" xlink:title="args.md">
<ellipse fill="#eee8aa" stroke="#000000" cx="639" cy="-434" rx="39.0784" ry="22.7556"/>
<text text-anchor="middle" x="639" y="-426.8" font-family="Times,serif" font-size="24.00" fill="#000000">args</text>
</a>
</g>
</g>
<!-- env&#45;&gt;args -->
<g id="edge18" class="edge">
<title>env&#45;&gt;args</title>
<path fill="none" stroke="#000000" d="M740.7271,-675.9456C721.0573,-629.1633 675.0912,-519.8386 652.2991,-465.6303"/>
<polygon fill="#000000" stroke="#000000" points="655.4269,-464.0391 648.3245,-456.1773 648.9741,-466.7522 655.4269,-464.0391"/>
</g>
<!-- env&#45;&gt;messages -->
<g id="edge16" class="edge">
<title>env&#45;&gt;messages</title>
<path fill="none" stroke="#000000" d="M714.2361,-694.7376C588.7213,-682.9537 173.6771,-641.0377 133,-598.4917 82.1429,-545.2981 114,-507.5935 114,-434 114,-434 114,-434 114,-306 114,-141.9916 1362.6661,-65.3197 1722.2101,-46.6421"/>
<polygon fill="#000000" stroke="#000000" points="1722.5244,-50.1307 1732.3306,-46.1195 1722.1634,-43.14 1722.5244,-50.1307"/>
</g>
<!-- startingvars -->
<g id="node8" class="node">
<title>startingvars</title>
<g id="a_node8"><a xlink:href="startingvars.md" xlink:title="startingvars.md">
<ellipse fill="#eee8aa" stroke="#000000" cx="2308" cy="-1293" rx="90.4807" ry="22.7556"/>
<text text-anchor="middle" x="2308" y="-1285.8" font-family="Times,serif" font-size="24.00" fill="#000000">startingvars</text>
</a>
</g>
</g>
<!-- startingvars&#45;&gt;runFunction -->
<g id="edge111" class="edge">
<title>startingvars&#45;&gt;runFunction</title>
<path fill="none" stroke="#000000" d="M2285.0105,-1270.9375C2220.8185,-1209.3339 2039.6083,-1035.4306 1966.8253,-965.5824"/>
<polygon fill="#000000" stroke="#000000" points="1968.9506,-962.7709 1959.3121,-958.3721 1964.1037,-967.8215 1968.9506,-962.7709"/>
</g>
<!-- startingvars&#45;&gt;env -->
<g id="edge96" class="edge">
<title>startingvars&#45;&gt;env</title>
<path fill="none" stroke="#000000" d="M2219.6881,-1287.8295C2074.2112,-1278.0332 1775.704,-1252.5315 1529,-1196.6274 1366.2973,-1159.7584 1316.8838,-1162.0606 1173,-1077.6274 1092.3765,-1030.3164 931.9918,-856.3373 862,-794.3726 834.2885,-769.8392 802.2373,-742.3477 779.5404,-723.0253"/>
<polygon fill="#000000" stroke="#000000" points="781.5126,-720.108 771.627,-716.2967 776.9782,-725.4409 781.5126,-720.108"/>
</g>
<!-- variables -->
<g id="node10" class="node">
<title>variables</title>
<g id="a_node10"><a xlink:href="variables.md" xlink:title="variables.md">
<ellipse fill="#eee8aa" stroke="#000000" cx="2977" cy="-698" rx="72.6337" ry="22.7556"/>
<text text-anchor="middle" x="2977" y="-690.8" font-family="Times,serif" font-size="24.00" fill="#000000">variables</text>
</a>
</g>
</g>
<!-- startingvars&#45;&gt;variables -->
<g id="edge97" class="edge">
<title>startingvars&#45;&gt;variables</title>
<path fill="none" stroke="#000000" d="M2377.107,-1278.3533C2434.0184,-1263.9977 2514.981,-1238.1311 2576,-1196.6274 2767.6513,-1066.2707 2913.2731,-817.1785 2960.5875,-729.489"/>
<polygon fill="#000000" stroke="#000000" points="2963.7333,-731.0283 2965.3654,-720.5599 2957.5614,-727.7257 2963.7333,-731.0283"/>
</g>
<!-- startingvars&#45;&gt;vartypes -->
<g id="edge98" class="edge">
<title>startingvars&#45;&gt;vartypes</title>
<path fill="none" stroke="#000000" d="M2328.7513,-1270.8387C2362.6312,-1233.6009 2430.0455,-1154.939 2470,-1077.6274 2495.4899,-1028.3047 2499.4537,-1013.4857 2508,-958.6274 2516.1434,-906.3554 2531.5088,-937.3157 2500,-675.3726 2497.0405,-650.7697 2491.2446,-623.3838 2486.3446,-602.6984"/>
<polygon fill="#000000" stroke="#000000" points="2489.711,-601.7289 2483.9557,-592.8336 2482.9077,-603.3764 2489.711,-601.7289"/>
</g>
<!-- codefile -->
<g id="node13" class="node">
<title>codefile</title>
<g id="a_node13"><a xlink:href="codefile.md" xlink:title="codefile.md">
<ellipse fill="#eee8aa" stroke="#000000" cx="1603" cy="-1174" rx="65.069" ry="22.7556"/>
<text text-anchor="middle" x="1603" y="-1166.8" font-family="Times,serif" font-size="24.00" fill="#000000">codefile</text>
</a>
</g>
</g>
<!-- startingvars&#45;&gt;codefile -->
<g id="edge110" class="edge">
<title>startingvars&#45;&gt;codefile</title>
<path fill="none" stroke="#000000" d="M2232.8867,-1280.3213C2095.2629,-1257.0912 1804.6339,-1208.0347 1671.8268,-1185.6176"/>
<polygon fill="#000000" stroke="#000000" points="1672.217,-1182.134 1661.7739,-1183.9207 1671.0519,-1189.0364 1672.217,-1182.134"/>
</g>
<!-- startingvars&#45;&gt;args -->
<g id="edge94" class="edge">
<title>startingvars&#45;&gt;args</title>
<path fill="none" stroke="#000000" d="M2220.9882,-1286.4245C1997.1829,-1269.2296 1413.1824,-1222.4777 1329,-1196.6274 1135.9727,-1137.3536 1094.6384,-1090.8184 942,-958.6274 865.8938,-892.7164 857.9377,-864.8097 786,-794.3726 751.2135,-760.3117 729.5818,-762.6509 705,-720.6274 656.6775,-638.0183 643.7347,-522.7384 640.2682,-466.9027"/>
<polygon fill="#000000" stroke="#000000" points="643.7603,-466.6621 639.709,-456.8724 636.7711,-467.0517 643.7603,-466.6621"/>
</g>
<!-- startingvars&#45;&gt;opresultwarn -->
<g id="edge100" class="edge">
<title>startingvars&#45;&gt;opresultwarn</title>
<path fill="none" stroke="#000000" d="M2371.6646,-1276.7972C2449.4434,-1256.3863 2575.8798,-1221.0351 2618,-1196.6274 2762.499,-1112.8936 3036.6221,-780.0956 3059,-720.6274 3066.0837,-701.8028 3066.9738,-693.8377 3059,-675.3726 3031.6476,-612.0318 2881.1611,-511.8954 2833,-462.4917 2809.2749,-438.1545 2810.7398,-423.6524 2782,-405.5083 2739.0505,-378.3932 2609.7896,-344.7143 2523.8701,-324.313"/>
<polygon fill="#000000" stroke="#000000" points="2524.6735,-320.9065 2514.1368,-322.0145 2523.0647,-327.7191 2524.6735,-320.9065"/>
</g>
<!-- startingvars&#45;&gt;messages -->
<g id="edge95" class="edge">
<title>startingvars&#45;&gt;messages</title>
<path fill="none" stroke="#000000" d="M2371.8986,-1276.8957C2466.5395,-1252.8483 2635.6839,-1209.0496 2662,-1196.6274 2835.3662,-1114.792 3366,-889.7103 3366,-698 3366,-698 3366,-698 3366,-306 3366,-173.0267 3237.3607,-190.9194 3111,-149.5083 2888.4162,-76.5628 2174.133,-51.1847 1913.9526,-44.2297"/>
<polygon fill="#000000" stroke="#000000" points="1913.8591,-40.7262 1903.7702,-43.9608 1913.6742,-47.7237 1913.8591,-40.7262"/>
</g>
<!-- readjson -->
<g id="node30" class="node">
<title>readjson</title>
<g id="a_node30"><a xlink:href="readjson.md" xlink:title="readjson.md">
<ellipse fill="#eee8aa" stroke="#000000" cx="2667" cy="-817" rx="68.6102" ry="22.7556"/>
<text text-anchor="middle" x="2667" y="-809.8" font-family="Times,serif" font-size="24.00" fill="#000000">readjson</text>
</a>
</g>
</g>
<!-- startingvars&#45;&gt;readjson -->
<g id="edge99" class="edge">
<title>startingvars&#45;&gt;readjson</title>
<path fill="none" stroke="#000000" d="M2382.7924,-1280.1094C2435.1779,-1267.3735 2503.2037,-1242.8153 2546,-1196.6274 2639.4638,-1095.7566 2660.7356,-922.6244 2665.5753,-850.2859"/>
<polygon fill="#000000" stroke="#000000" points="2669.0893,-850.1585 2666.1983,-839.9657 2662.102,-849.7366 2669.0893,-850.1585"/>
</g>
<!-- unicodes&#45;&gt;opresultid -->
<g id="edge58" class="edge">
<title>unicodes&#45;&gt;opresultid</title>
<path fill="none" stroke="#000000" d="M2742.4727,-675.2301C2755.4705,-609.0595 2793.278,-416.5848 2808.5191,-338.9937"/>
<polygon fill="#000000" stroke="#000000" points="2812.0218,-339.3199 2810.515,-328.8328 2805.1531,-337.9707 2812.0218,-339.3199"/>
</g>
<!-- unicodes&#45;&gt;vartypes -->
<g id="edge62" class="edge">
<title>unicodes&#45;&gt;vartypes</title>
<path fill="none" stroke="#000000" d="M2699.0754,-678.8371C2652.7616,-656.0365 2575.4555,-617.9781 2525.6197,-593.4435"/>
<polygon fill="#000000" stroke="#000000" points="2526.8597,-590.1529 2516.3421,-588.8761 2523.7679,-596.4331 2526.8597,-590.1529"/>
</g>
<!-- utf8decoder -->
<g id="node17" class="node">
<title>utf8decoder</title>
<g id="a_node17"><a xlink:href="utf8decoder.md" xlink:title="utf8decoder.md">
<polygon fill="#98fb98" stroke="#000000" points="2159.9296,-559.8581 2159.9296,-580.1419 2101.3922,-594.4846 2018.6078,-594.4846 1960.0704,-580.1419 1960.0704,-559.8581 2018.6078,-545.5154 2101.3922,-545.5154 2159.9296,-559.8581"/>
<polygon fill="none" stroke="#000000" points="2163.9282,-556.7208 2163.9282,-583.2792 2101.8749,-598.4835 2018.1251,-598.4835 1956.0718,-583.2792 1956.0718,-556.7208 2018.1251,-541.5165 2101.8749,-541.5165 2163.9282,-556.7208"/>
<text text-anchor="middle" x="2060" y="-562.8" font-family="Times,serif" font-size="24.00" fill="#000000">utf8decoder</text>
</a>
</g>
</g>
<!-- unicodes&#45;&gt;utf8decoder -->
<g id="edge61" class="edge">
<title>unicodes&#45;&gt;utf8decoder</title>
<path fill="none" stroke="#000000" d="M2676.3357,-686.3584C2558.7843,-664.1658 2301.7,-615.6307 2159.5098,-588.7865"/>
<polygon fill="#000000" stroke="#000000" points="2159.9499,-585.3079 2149.4742,-586.8919 2158.6513,-592.1863 2159.9499,-585.3079"/>
</g>
<!-- unicodes&#45;&gt;opresultwarn -->
<g id="edge59" class="edge">
<title>unicodes&#45;&gt;opresultwarn</title>
<path fill="none" stroke="#000000" d="M2737.3963,-675.3059C2734.8166,-621.9372 2721.3838,-486.8543 2652,-405.5083 2618.2274,-365.9131 2565.1425,-340.9137 2520.9255,-325.8754"/>
<polygon fill="#000000" stroke="#000000" points="2521.9396,-322.5245 2511.3466,-322.7241 2519.752,-329.1739 2521.9396,-322.5245"/>
</g>
<!-- unicodes&#45;&gt;messages -->
<g id="edge60" class="edge">
<title>unicodes&#45;&gt;messages</title>
<path fill="none" stroke="#000000" d="M2752.2118,-675.4044C2786.5128,-619.3681 2873.1978,-468.4129 2903,-328.6274 2921.1798,-243.356 2896.4341,-196.5098 2823,-149.5083 2747.4095,-101.1266 2150.7944,-61.4138 1914.1891,-47.4133"/>
<polygon fill="#000000" stroke="#000000" points="1914.0669,-43.9001 1903.8784,-46.8059 1913.6553,-50.888 1914.0669,-43.9001"/>
</g>
<!-- variables&#45;&gt;vartypes -->
<g id="edge43" class="edge">
<title>variables&#45;&gt;vartypes</title>
<path fill="none" stroke="#000000" d="M2920.7283,-683.5656C2827.3343,-659.6088 2640.8669,-611.7775 2542.3762,-586.5133"/>
<polygon fill="#000000" stroke="#000000" points="2543.1034,-583.0866 2532.5473,-583.9921 2541.364,-589.8671 2543.1034,-583.0866"/>
</g>
<!-- variables&#45;&gt;warnings -->
<g id="edge46" class="edge">
<title>variables&#45;&gt;warnings</title>
<path fill="none" stroke="#000000" d="M2966.8334,-675.4884C2941.9765,-622.5142 2873.4149,-488.2219 2782,-405.5083 2696.1762,-327.8535 2663.0611,-315.9518 2552,-283.3726 2327.3573,-217.4748 1607.7445,-188.6269 1361.536,-180.5172"/>
<polygon fill="#000000" stroke="#000000" points="1361.3315,-177.0087 1351.2226,-180.1805 1361.103,-184.005 1361.3315,-177.0087"/>
</g>
<!-- variables&#45;&gt;args -->
<g id="edge47" class="edge">
<title>variables&#45;&gt;args</title>
<path fill="none" stroke="#000000" d="M2937.842,-678.8834C2864.8105,-644.2759 2701.9783,-572.0056 2556,-541.5083 2183.6832,-463.7249 951.7576,-439.1864 688.698,-434.7757"/>
<polygon fill="#000000" stroke="#000000" points="688.3788,-431.27 678.3222,-434.6038 688.2628,-438.2691 688.3788,-431.27"/>
</g>
<!-- variables&#45;&gt;opresultwarn -->
<g id="edge48" class="edge">
<title>variables&#45;&gt;opresultwarn</title>
<path fill="none" stroke="#000000" d="M2944.7559,-677.7015C2917.581,-659.4269 2878.9307,-630.5706 2852,-598.4917 2789.2174,-523.7074 2822.032,-467.9946 2747,-405.5083 2712.4713,-376.7529 2600.1169,-344.5886 2522.1286,-324.816"/>
<polygon fill="#000000" stroke="#000000" points="2522.8711,-321.3938 2512.3193,-322.3482 2521.1632,-328.1822 2522.8711,-321.3938"/>
</g>
<!-- variables&#45;&gt;messages -->
<g id="edge45" class="edge">
<title>variables&#45;&gt;messages</title>
<path fill="none" stroke="#000000" d="M2994.5161,-675.8227C3027.1552,-632.196 3094,-531.0069 3094,-434 3094,-434 3094,-434 3094,-306 3094,-233.8703 3106.4085,-195.6883 3051,-149.5083 2964.2713,-77.2244 2188.884,-51.1661 1914.0533,-44.1529"/>
<polygon fill="#000000" stroke="#000000" points="1913.7875,-40.6452 1903.7024,-43.8918 1913.6109,-47.643 1913.7875,-40.6452"/>
</g>
<!-- version -->
<g id="node29" class="node">
<title>version</title>
<g id="a_node29"><a xlink:href="version.md" xlink:title="version.md">
<polygon fill="#98fb98" stroke="#000000" points="3334.1523,-559.8581 3334.1523,-580.1419 3295.4012,-594.4846 3240.5988,-594.4846 3201.8477,-580.1419 3201.8477,-559.8581 3240.5988,-545.5154 3295.4012,-545.5154 3334.1523,-559.8581"/>
<polygon fill="none" stroke="#000000" points="3338.1421,-557.0721 3338.1421,-582.9279 3296.1143,-598.4835 3239.8857,-598.4835 3197.8579,-582.9279 3197.8579,-557.0721 3239.8857,-541.5165 3296.1143,-541.5165 3338.1421,-557.0721"/>
<text text-anchor="middle" x="3268" y="-562.8" font-family="Times,serif" font-size="24.00" fill="#000000">version</text>
</a>
</g>
</g>
<!-- variables&#45;&gt;version -->
<g id="edge44" class="edge">
<title>variables&#45;&gt;version</title>
<path fill="none" stroke="#000000" d="M3019.0031,-679.5244C3069.2937,-657.4035 3153.7864,-620.2383 3210.2079,-595.4206"/>
<polygon fill="#000000" stroke="#000000" points="3211.9618,-598.4728 3219.7062,-591.2426 3209.1433,-592.0653 3211.9618,-598.4728"/>
</g>
<!-- vartypes&#45;&gt;warnings -->
<g id="edge36" class="edge">
<title>vartypes&#45;&gt;warnings</title>
<path fill="none" stroke="#000000" d="M2429.0975,-554.0252C2238.7358,-491.8404 1547.4427,-266.0179 1338.3329,-197.7087"/>
<polygon fill="#000000" stroke="#000000" points="1339.3362,-194.3545 1328.7436,-194.5763 1337.1625,-201.0085 1339.3362,-194.3545"/>
</g>
<!-- vartypes&#45;&gt;opresultwarn -->
<g id="edge37" class="edge">
<title>vartypes&#45;&gt;opresultwarn</title>
<path fill="none" stroke="#000000" d="M2474.9552,-547.0336C2468.734,-500.108 2454.5466,-393.0944 2447.3537,-338.8395"/>
<polygon fill="#000000" stroke="#000000" points="2450.7968,-338.1786 2446.0128,-328.7254 2443.8575,-339.0986 2450.7968,-338.1786"/>
</g>
<!-- vartypes&#45;&gt;messages -->
<g id="edge35" class="edge">
<title>vartypes&#45;&gt;messages</title>
<path fill="none" stroke="#000000" d="M2494.8896,-547.9652C2532.0078,-496.6679 2612.721,-367.2603 2552,-283.3726 2475.1902,-177.2577 2088.3571,-92.5669 1909.2538,-58.3744"/>
<polygon fill="#000000" stroke="#000000" points="1909.7992,-54.9155 1899.3219,-56.4894 1908.4939,-61.7927 1909.7992,-54.9155"/>
</g>
<!-- codefile&#45;&gt;env -->
<g id="edge101" class="edge">
<title>codefile&#45;&gt;env</title>
<path fill="none" stroke="#000000" d="M1543.6717,-1164.6542C1449.2027,-1148.876 1269.9468,-1114.9994 1218,-1077.6274 1147.6668,-1027.0277 1170.3798,-978.2929 1113,-913.3726 1078.9801,-874.882 1062.4861,-873.6525 1024,-839.6274 1002.0338,-820.2074 1000.583,-810.3516 976,-794.3726 904.8906,-748.1513 877.7525,-754.5022 800,-720.6274 796.1675,-718.9577 792.18,-717.1957 788.2032,-715.422"/>
<polygon fill="#000000" stroke="#000000" points="789.5778,-712.2026 779.0215,-711.3004 786.7111,-718.5887 789.5778,-712.2026"/>
</g>
<!-- codefile&#45;&gt;variables -->
<g id="edge106" class="edge">
<title>codefile&#45;&gt;variables</title>
<path fill="none" stroke="#000000" d="M1668.0623,-1172.4551C1842.3529,-1165.9892 2330.7602,-1132.4626 2688,-958.6274 2769.6257,-918.9078 2786.8918,-900.7575 2854,-839.6274 2892.5111,-804.5469 2930.9185,-758.0101 2954.3157,-728.0306"/>
<polygon fill="#000000" stroke="#000000" points="2957.15,-730.0869 2960.5045,-720.0371 2951.6151,-725.8015 2957.15,-730.0869"/>
</g>
<!-- codefile&#45;&gt;vartypes -->
<g id="edge107" class="edge">
<title>codefile&#45;&gt;vartypes</title>
<path fill="none" stroke="#000000" d="M1665.7957,-1168.007C1749.4502,-1158.1374 1900.438,-1133.6561 2017,-1077.6274 2230.5705,-974.9689 2291.5811,-924.1184 2413,-720.6274 2436.1111,-681.8946 2455.5024,-633.4422 2466.9322,-602.1169"/>
<polygon fill="#000000" stroke="#000000" points="2470.2704,-603.1767 2470.3581,-592.5822 2463.6828,-600.8096 2470.2704,-603.1767"/>
</g>
<!-- codefile&#45;&gt;readlines -->
<g id="edge104" class="edge">
<title>codefile&#45;&gt;readlines</title>
<path fill="none" stroke="#000000" d="M1570.7307,-1154.204C1494.5318,-1106.4756 1299.8004,-978.6763 1166,-839.6274 1121.1122,-792.9788 1105.0189,-781.1348 1082,-720.6274 1068.2124,-684.3856 1064.6645,-639.964 1064.1364,-608.7845"/>
<polygon fill="#000000" stroke="#000000" points="1067.6362,-608.7232 1064.0627,-598.7492 1060.6364,-608.7747 1067.6362,-608.7232"/>
</g>
<!-- codefile&#45;&gt;utf8decoder -->
<g id="edge109" class="edge">
<title>codefile&#45;&gt;utf8decoder</title>
<path fill="none" stroke="#000000" d="M1610.3299,-1151.383C1635.8457,-1075.5913 1727.4039,-826.8438 1876,-675.3726 1908.3208,-642.4264 1953.1163,-616.477 1990.4154,-598.5733"/>
<polygon fill="#000000" stroke="#000000" points="1992.1647,-601.6184 1999.7245,-594.1955 1989.1857,-595.2839 1992.1647,-601.6184"/>
</g>
<!-- codefile&#45;&gt;warnings -->
<g id="edge108" class="edge">
<title>codefile&#45;&gt;warnings</title>
<path fill="none" stroke="#000000" d="M1558.1144,-1157.5301C1513.8326,-1140.4099 1444.9823,-1111.4169 1390,-1077.6274 1149.4836,-929.8178 1049.3137,-870.2858 973,-598.4917 923.9452,-423.7813 1140.4374,-263.9348 1235.3386,-203.5237"/>
<polygon fill="#000000" stroke="#000000" points="1237.2616,-206.449 1243.8593,-198.1592 1233.5321,-200.5252 1237.2616,-206.449"/>
</g>
<!-- codefile&#45;&gt;opresultwarn -->
<g id="edge103" class="edge">
<title>codefile&#45;&gt;opresultwarn</title>
<path fill="none" stroke="#000000" d="M1625.2134,-1152.6923C1658.347,-1121.9903 1723.8254,-1065.3818 1789,-1032.3726 1892.3454,-980.0308 1963.6163,-1046.5889 2039,-958.6274 2086.9291,-902.7014 2031.7715,-861.9789 2061,-794.3726 2077.7676,-755.5886 2094.9633,-753.9057 2121,-720.6274 2228.9852,-582.6088 2248.3704,-542.2244 2358,-405.5083 2377.1134,-381.6724 2399.6004,-355.4211 2416.6429,-335.8688"/>
<polygon fill="#000000" stroke="#000000" points="2419.407,-338.0247 2423.354,-328.1925 2414.1371,-333.4173 2419.407,-338.0247"/>
</g>
<!-- codefile&#45;&gt;messages -->
<g id="edge102" class="edge">
<title>codefile&#45;&gt;messages</title>
<path fill="none" stroke="#000000" d="M1543.5652,-1164.5565C1459.6483,-1150.355 1302.2483,-1120.5161 1173,-1077.6274 1049.1724,-1036.5374 180.0248,-702.3029 101,-598.4917 56.2098,-539.653 76,-507.947 76,-434 76,-434 76,-434 76,-306 76,-281.4904 46.2587,-236.2354 288,-149.5083 422.5217,-101.2472 1407.4408,-58.3228 1721.8309,-45.7253"/>
<polygon fill="#000000" stroke="#000000" points="1722.4294,-49.2043 1732.2817,-45.3079 1722.1499,-42.2099 1722.4294,-49.2043"/>
</g>
<!-- runCommand -->
<g id="node35" class="node">
<title>runCommand</title>
<g id="a_node35"><a xlink:href="runCommand.md" xlink:title="runCommand.md">
<ellipse fill="#eee8aa" stroke="#000000" cx="1903" cy="-1055" rx="104.7872" ry="22.7556"/>
<text text-anchor="middle" x="1903" y="-1047.8" font-family="Times,serif" font-size="24.00" fill="#000000">runCommand</text>
</a>
</g>
</g>
<!-- codefile&#45;&gt;runCommand -->
<g id="edge105" class="edge">
<title>codefile&#45;&gt;runCommand</title>
<path fill="none" stroke="#000000" d="M1645.9827,-1156.9502C1697.7799,-1136.404 1785.1014,-1101.7664 1843.3876,-1078.6463"/>
<polygon fill="#000000" stroke="#000000" points="1844.836,-1081.8371 1852.8409,-1074.8965 1842.2549,-1075.3303 1844.836,-1081.8371"/>
</g>
<!-- replacement&#45;&gt;parseCmdLine -->
<g id="edge69" class="edge">
<title>replacement&#45;&gt;parseCmdLine</title>
<path fill="none" stroke="#000000" d="M1425.2369,-795.9991C1460.6143,-776.0469 1513.9389,-745.9729 1552.1797,-724.4058"/>
<polygon fill="#000000" stroke="#000000" points="1554.0781,-727.3534 1561.069,-719.3924 1550.6394,-721.2562 1554.0781,-727.3534"/>
</g>
<!-- replacement&#45;&gt;env -->
<g id="edge67" class="edge">
<title>replacement&#45;&gt;env</title>
<path fill="none" stroke="#000000" d="M1313.5647,-803.1163C1179.8225,-778.1706 902.7459,-726.4902 794.6042,-706.3196"/>
<polygon fill="#000000" stroke="#000000" points="795.1489,-702.8609 784.6767,-704.4679 793.8654,-709.7422 795.1489,-702.8609"/>
</g>
<!-- replacement&#45;&gt;variables -->
<g id="edge73" class="edge">
<title>replacement&#45;&gt;variables</title>
<path fill="none" stroke="#000000" d="M1481.1249,-813.1507C1709.5478,-803.182 2315.6807,-773.541 2819,-720.6274 2846.1269,-717.7756 2875.7524,-713.7715 2901.9444,-709.9229"/>
<polygon fill="#000000" stroke="#000000" points="2902.8028,-713.3338 2912.1795,-708.4015 2901.7736,-706.4099 2902.8028,-713.3338"/>
</g>
<!-- replacement&#45;&gt;tempFile -->
<g id="edge74" class="edge">
<title>replacement&#45;&gt;tempFile</title>
<path fill="none" stroke="#000000" d="M1341.2616,-797.2966C1296.0138,-778.1049 1225.5633,-747.9157 1165,-720.6274 1072.5881,-678.9889 966.2612,-628.6016 902.1471,-597.9442"/>
<polygon fill="#000000" stroke="#000000" points="903.5319,-594.7268 893.0006,-593.5675 900.5104,-601.0411 903.5319,-594.7268"/>
</g>
<!-- replacement&#45;&gt;vartypes -->
<g id="edge68" class="edge">
<title>replacement&#45;&gt;vartypes</title>
<path fill="none" stroke="#000000" d="M1479.2232,-811.1616C1613.9288,-801.0333 1873.184,-775.7618 2087,-720.6274 2214.2438,-687.8165 2356.5959,-626.3118 2429.3794,-592.944"/>
<polygon fill="#000000" stroke="#000000" points="2431.1366,-595.9882 2438.7545,-588.6249 2428.2075,-589.6304 2431.1366,-595.9882"/>
</g>
<!-- replacement&#45;&gt;readlines -->
<g id="edge70" class="edge">
<title>replacement&#45;&gt;readlines</title>
<path fill="none" stroke="#000000" d="M1345.2321,-796.7071C1309.657,-778.9209 1258.48,-751.1873 1218,-720.6274 1172.1437,-686.0087 1126.0395,-638.4696 1096.6111,-606.1202"/>
<polygon fill="#000000" stroke="#000000" points="1099.163,-603.7239 1089.8636,-598.6473 1093.9675,-608.4151 1099.163,-603.7239"/>
</g>
<!-- replacement&#45;&gt;warnings -->
<g id="edge76" class="edge">
<title>replacement&#45;&gt;warnings</title>
<path fill="none" stroke="#000000" d="M1342.0097,-797.2147C1311.5143,-781.3628 1273.9291,-755.9164 1256,-720.6274 1210.4741,-631.0208 1256.0384,-314.2978 1272.5444,-210.9096"/>
<polygon fill="#000000" stroke="#000000" points="1276.0454,-211.1839 1274.1824,-200.7542 1269.1347,-210.0693 1276.0454,-211.1839"/>
</g>
<!-- replacement&#45;&gt;opresultwarn -->
<g id="edge75" class="edge">
<title>replacement&#45;&gt;opresultwarn</title>
<path fill="none" stroke="#000000" d="M1393.5297,-794.2707C1412.1951,-722.9176 1480.0949,-502.3819 1627,-405.5083 1685.2455,-367.0994 2130.6266,-329.3075 2337.7256,-313.6007"/>
<polygon fill="#000000" stroke="#000000" points="2337.9982,-317.0901 2347.7062,-312.8468 2337.4709,-310.11 2337.9982,-317.0901"/>
</g>
<!-- replacement&#45;&gt;messages -->
<g id="edge72" class="edge">
<title>replacement&#45;&gt;messages</title>
<path fill="none" stroke="#000000" d="M1369.0113,-794.4506C1354.4614,-775.8695 1335.2032,-748.1832 1325,-720.6274 1297.2471,-645.675 1278.0667,-615.205 1309,-541.5083 1403.5928,-316.1464 1654.9593,-141.3293 1765.0742,-73.1083"/>
<polygon fill="#000000" stroke="#000000" points="1767.019,-76.0213 1773.7037,-67.8014 1763.352,-70.0585 1767.019,-76.0213"/>
</g>
<!-- replacement&#45;&gt;matches -->
<g id="edge71" class="edge">
<title>replacement&#45;&gt;matches</title>
<path fill="none" stroke="#000000" d="M1370.2136,-794.402C1356.7669,-775.7934 1339.4007,-748.0938 1332,-720.6274 1320.5779,-678.2364 1343.5705,-630.6494 1362.7695,-600.5178"/>
<polygon fill="#000000" stroke="#000000" points="1365.7202,-602.4009 1368.3074,-592.1267 1359.8779,-598.545 1365.7202,-602.4009"/>
</g>
<!-- updateTemplate -->
<g id="node16" class="node">
<title>updateTemplate</title>
<g id="a_node16"><a xlink:href="updateTemplate.md" xlink:title="updateTemplate.md">
<ellipse fill="#eee8aa" stroke="#000000" cx="1694" cy="-1421" rx="119.3861" ry="22.7556"/>
<text text-anchor="middle" x="1694" y="-1413.8" font-family="Times,serif" font-size="24.00" fill="#000000">updateTemplate</text>
</a>
</g>
</g>
<!-- updateTemplate&#45;&gt;parseCmdLine -->
<g id="edge120" class="edge">
<title>updateTemplate&#45;&gt;parseCmdLine</title>
<path fill="none" stroke="#000000" d="M1661.528,-1398.9454C1608.7053,-1360.1564 1510,-1274.2609 1510,-1174 1510,-1174 1510,-1174 1510,-1055 1510,-951.2573 1579.6018,-941.3449 1600,-839.6274 1607.3631,-802.9106 1605.6115,-759.7557 1602.9842,-730.8177"/>
<polygon fill="#000000" stroke="#000000" points="1606.4642,-730.4423 1601.9918,-720.8378 1599.4985,-731.135 1606.4642,-730.4423"/>
</g>
<!-- updateTemplate&#45;&gt;env -->
<g id="edge117" class="edge">
<title>updateTemplate&#45;&gt;env</title>
<path fill="none" stroke="#000000" d="M1616.5019,-1403.7288C1599.8431,-1400.022 1582.3362,-1396.1309 1566,-1392.5083 1411.3606,-1358.2159 1349.3143,-1404.2043 1218,-1315.6274 1038.2537,-1194.3812 1075.7412,-1084.0262 942,-913.3726 886.3822,-842.4044 814.0551,-764.7583 776.0127,-724.9107"/>
<polygon fill="#000000" stroke="#000000" points="778.3206,-722.2603 768.8764,-717.4583 773.2648,-727.1016 778.3206,-722.2603"/>
</g>
<!-- updateTemplate&#45;&gt;startingvars -->
<g id="edge125" class="edge">
<title>updateTemplate&#45;&gt;startingvars</title>
<path fill="none" stroke="#000000" d="M1775.7595,-1404.3824C1876.5309,-1383.8373 2052.981,-1347.6564 2204,-1315.6274 2212.4053,-1313.8448 2221.1884,-1311.9632 2229.9348,-1310.0774"/>
<polygon fill="#000000" stroke="#000000" points="2230.7369,-1313.4849 2239.772,-1307.9515 2229.2583,-1306.6429 2230.7369,-1313.4849"/>
</g>
<!-- updateTemplate&#45;&gt;variables -->
<g id="edge122" class="edge">
<title>updateTemplate&#45;&gt;variables</title>
<path fill="none" stroke="#000000" d="M1810.6665,-1416.0624C2128.5126,-1402.05 2988.8425,-1360.1589 3030,-1315.6274 3187.4092,-1145.3143 3062.3993,-1019.3244 3006,-794.3726 3000.6222,-772.9229 2993.4737,-749.127 2987.6198,-730.5474"/>
<polygon fill="#000000" stroke="#000000" points="2990.8886,-729.2773 2984.5203,-720.81 2984.2184,-731.4006 2990.8886,-729.2773"/>
</g>
<!-- updateTemplate&#45;&gt;vartypes -->
<g id="edge123" class="edge">
<title>updateTemplate&#45;&gt;vartypes</title>
<path fill="none" stroke="#000000" d="M1812.0642,-1417.4285C2123.8495,-1407.2229 2952.7893,-1374.7933 3061,-1315.6274 3130.2192,-1277.7807 3168,-1252.8902 3168,-1174 3168,-1174 3168,-1174 3168,-1055 3168,-879.4596 3189.1854,-793.1273 3059,-675.3726 2986.22,-609.542 2697.3298,-583.2405 2556.2891,-574.1629"/>
<polygon fill="#000000" stroke="#000000" points="2556.1843,-570.6495 2545.9839,-573.5134 2555.7439,-577.6356 2556.1843,-570.6495"/>
</g>
<!-- updateTemplate&#45;&gt;replacement -->
<g id="edge124" class="edge">
<title>updateTemplate&#45;&gt;replacement</title>
<path fill="none" stroke="#000000" d="M1618.6005,-1403.3584C1505.8139,-1376.6541 1305.1136,-1327.7857 1294,-1315.6274 1250.926,-1268.5047 1270,-1237.8429 1270,-1174 1270,-1174 1270,-1174 1270,-1055 1270,-991.1571 1265.0637,-970.2813 1294,-913.3726 1307.5603,-886.7038 1331.0623,-862.6093 1351.1733,-845.1827"/>
<polygon fill="#000000" stroke="#000000" points="1353.5843,-847.7279 1358.9716,-838.605 1349.071,-842.3771 1353.5843,-847.7279"/>
</g>
<!-- updateTemplate&#45;&gt;readlines -->
<g id="edge119" class="edge">
<title>updateTemplate&#45;&gt;readlines</title>
<path fill="none" stroke="#000000" d="M1617.1302,-1403.6589C1497.6486,-1376.4863 1279.4827,-1325.9056 1265,-1315.6274 1030.3218,-1149.0801 1048.6128,-737.3878 1060.6163,-608.9291"/>
<polygon fill="#000000" stroke="#000000" points="1064.119,-609.0715 1061.608,-598.7785 1057.1521,-608.3908 1064.119,-609.0715"/>
</g>
<!-- updateTemplate&#45;&gt;args -->
<g id="edge115" class="edge">
<title>updateTemplate&#45;&gt;args</title>
<path fill="none" stroke="#000000" d="M1617.6053,-1403.5595C1600.6379,-1399.8076 1582.726,-1395.9408 1566,-1392.5083 1384.8148,-1355.3248 1315.6032,-1410.789 1157,-1315.6274 1011.684,-1228.4381 757.8687,-871.1438 680,-720.6274 636.7996,-637.1231 634.8385,-522.6427 636.9174,-467.0194"/>
<polygon fill="#000000" stroke="#000000" points="640.4283,-466.8517 637.3761,-456.7061 633.4352,-466.5407 640.4283,-466.8517"/>
</g>
<!-- updateTemplate&#45;&gt;opresultwarn -->
<g id="edge126" class="edge">
<title>updateTemplate&#45;&gt;opresultwarn</title>
<path fill="none" stroke="#000000" d="M1812.6748,-1418.3105C2133.0323,-1410.1931 2998.6691,-1382.2782 3108,-1315.6274 3160.9789,-1283.3302 3163.8931,-1256.2699 3181,-1196.6274 3244.8926,-973.8684 3264.2113,-886.1977 3168,-675.3726 3092.5781,-510.1026 3024.3593,-484.9837 2861,-405.5083 2758.9466,-355.8586 2630.564,-330.0772 2543.1889,-317.33"/>
<polygon fill="#000000" stroke="#000000" points="2543.6678,-313.863 2533.2733,-315.9137 2542.6779,-320.7927 2543.6678,-313.863"/>
</g>
<!-- updateTemplate&#45;&gt;messages -->
<g id="edge116" class="edge">
<title>updateTemplate&#45;&gt;messages</title>
<path fill="none" stroke="#000000" d="M1813.2326,-1419.1762C2140.6186,-1413.2216 3036.3722,-1390.2189 3145,-1315.6274 3250.0431,-1243.4975 3404,-1219.4979 3404,-698 3404,-698 3404,-698 3404,-306 3404,-287.9789 3421.0748,-231.0956 3225,-149.5083 3104.6416,-99.4268 2211.7563,-58.3044 1914.1831,-45.8648"/>
<polygon fill="#000000" stroke="#000000" points="1913.9879,-42.3537 1903.8509,-45.4344 1913.6965,-49.3476 1913.9879,-42.3537"/>
</g>
<!-- updateTemplate&#45;&gt;matches -->
<g id="edge118" class="edge">
<title>updateTemplate&#45;&gt;matches</title>
<path fill="none" stroke="#000000" d="M1642.7422,-1400.5082C1537.7426,-1356.9182 1308,-1252.5651 1308,-1174 1308,-1174 1308,-1174 1308,-1055 1308,-929.3909 1447.6745,-957.528 1491,-839.6274 1497.9375,-820.7485 1498.6498,-812.9743 1491,-794.3726 1473.4596,-751.7203 1440.0292,-761.1441 1418,-720.6274 1397.7797,-683.4376 1389.9483,-634.7224 1386.9157,-602.9085"/>
<polygon fill="#000000" stroke="#000000" points="1390.3918,-602.4774 1386.0602,-592.8084 1383.4168,-603.0682 1390.3918,-602.4774"/>
</g>
<!-- updateTemplate&#45;&gt;runCommand -->
<g id="edge121" class="edge">
<title>updateTemplate&#45;&gt;runCommand</title>
<path fill="none" stroke="#000000" d="M1712.5341,-1398.3643C1729.1388,-1377.5499 1753.6348,-1345.4822 1772,-1315.6274 1820.6319,-1236.5706 1866.7757,-1137.1233 1889.0666,-1087.0048"/>
<polygon fill="#000000" stroke="#000000" points="1892.3559,-1088.2206 1893.2004,-1077.6595 1885.9542,-1085.3889 1892.3559,-1088.2206"/>
</g>
<!-- warnings&#45;&gt;messages -->
<g id="edge2" class="edge">
<title>warnings&#45;&gt;messages</title>
<path fill="none" stroke="#ff0000" d="M1327.5869,-161.1825C1340.0665,-157.1609 1353.4754,-153.0193 1366,-149.5083 1492.3279,-114.0947 1640.5934,-80.2826 1731.9232,-60.3328"/>
<polygon fill="#ff0000" stroke="#ff0000" points="1732.9244,-63.6968 1741.9502,-58.1483 1731.4343,-56.8573 1732.9244,-63.6968"/>
</g>
<!-- repl -->
<g id="node19" class="node">
<title>repl</title>
<g id="a_node19"><a xlink:href="repl.md" xlink:title="repl.md">
<ellipse fill="#eee8aa" stroke="#000000" cx="1519" cy="-1421" rx="37.8963" ry="22.7556"/>
<text text-anchor="middle" x="1519" y="-1413.8" font-family="Times,serif" font-size="24.00" fill="#000000">repl</text>
</a>
</g>
</g>
<!-- repl&#45;&gt;regexes -->
<g id="edge141" class="edge">
<title>repl&#45;&gt;regexes</title>
<path fill="none" stroke="#000000" d="M1544.9467,-1404.3012C1551.6872,-1400.2336 1559.0184,-1396.0408 1566,-1392.5083 1769.3922,-1289.5949 1862.8425,-1340.0665 2040,-1196.6274 2189.5598,-1075.5334 2227.9974,-1023.4278 2285,-839.6274 2339.6614,-663.376 2099.7961,-701.9604 1947,-598.4917 1887.323,-558.0804 1823.9575,-503.776 1784.9256,-468.8263"/>
<polygon fill="#000000" stroke="#000000" points="1787.2276,-466.1893 1777.4519,-462.1043 1782.5464,-471.3939 1787.2276,-466.1893"/>
</g>
<!-- repl&#45;&gt;env -->
<g id="edge135" class="edge">
<title>repl&#45;&gt;env</title>
<path fill="none" stroke="#000000" d="M1481.1716,-1419.4082C1399.9379,-1414.5131 1204.9258,-1394.7474 1066,-1315.6274 1050.089,-1306.5659 846.7119,-1093.7325 838,-1077.6274 774.7511,-960.7039 756.752,-799.6248 751.8017,-731.0521"/>
<polygon fill="#000000" stroke="#000000" points="755.2795,-730.6035 751.1143,-720.8618 748.2953,-731.0747 755.2795,-730.6035"/>
</g>
<!-- repl&#45;&gt;startingvars -->
<g id="edge139" class="edge">
<title>repl&#45;&gt;startingvars</title>
<path fill="none" stroke="#000000" d="M1543.3896,-1403.5371C1550.3939,-1399.2805 1558.2432,-1395.1864 1566,-1392.5083 1835.9688,-1299.2982 1922.3702,-1363.1245 2204,-1315.6274 2212.9651,-1314.1154 2222.3259,-1312.3488 2231.5991,-1310.4812"/>
<polygon fill="#000000" stroke="#000000" points="2232.5149,-1313.8662 2241.6042,-1308.4224 2231.1039,-1307.0098 2232.5149,-1313.8662"/>
</g>
<!-- repl&#45;&gt;variables -->
<g id="edge144" class="edge">
<title>repl&#45;&gt;variables</title>
<path fill="none" stroke="#000000" d="M1543.2782,-1403.1963C1550.2821,-1398.9384 1558.159,-1394.9287 1566,-1392.5083 1717.6149,-1345.7052 2873.5903,-1421.253 2992,-1315.6274 3039.6423,-1273.1288 3016,-1237.8429 3016,-1174 3016,-1174 3016,-1174 3016,-1055 3016,-935.0607 2993.9776,-793.7885 2983.0303,-730.9716"/>
<polygon fill="#000000" stroke="#000000" points="2986.4334,-730.1156 2981.2479,-720.8765 2979.54,-731.3328 2986.4334,-730.1156"/>
</g>
<!-- repl&#45;&gt;vartypes -->
<g id="edge136" class="edge">
<title>repl&#45;&gt;vartypes</title>
<path fill="none" stroke="#000000" d="M1543.3397,-1403.3892C1550.3438,-1399.132 1558.2055,-1395.0746 1566,-1392.5083 1744.2551,-1333.8186 2258.2561,-1430.059 2407,-1315.6274 2595.5807,-1170.5487 2541.9384,-1031.9501 2529,-794.3726 2526.1068,-741.2478 2527.9976,-727.2057 2516,-675.3726 2510.1585,-650.1357 2500.1079,-622.6332 2491.81,-602.0554"/>
<polygon fill="#000000" stroke="#000000" points="2494.942,-600.4689 2487.9033,-592.5501 2488.4675,-603.1299 2494.942,-600.4689"/>
</g>
<!-- repl&#45;&gt;warnings -->
<g id="edge134" class="edge">
<title>repl&#45;&gt;warnings</title>
<path fill="none" stroke="#000000" d="M1481.8155,-1417.152C1371.4522,-1405.2514 1047.7562,-1366.7439 956,-1315.6274 658.4506,-1149.8655 539.0995,-1054.7584 473,-720.6274 431.3839,-510.2591 495.9318,-398.2683 677,-283.3726 762.1642,-229.3322 1053.1822,-197.3829 1196.6742,-184.5616"/>
<polygon fill="#000000" stroke="#000000" points="1197.0928,-188.0384 1206.7459,-183.6715 1196.4765,-181.0655 1197.0928,-188.0384"/>
</g>
<!-- repl&#45;&gt;args -->
<g id="edge137" class="edge">
<title>repl&#45;&gt;args</title>
<path fill="none" stroke="#000000" d="M1482.042,-1416.0742C1380.4612,-1402.0923 1099.1948,-1360.2729 1018,-1315.6274 953.2793,-1280.0403 949.8459,-1252.8945 902,-1196.6274 742.7102,-1009.3016 677.05,-959.8125 620,-720.6274 601.4737,-642.955 594.1531,-620.4759 606,-541.5083 609.926,-515.3391 618.9448,-486.745 626.5633,-465.6289"/>
<polygon fill="#000000" stroke="#000000" points="629.865,-466.7915 630.0518,-456.1983 623.2998,-464.3629 629.865,-466.7915"/>
</g>
<!-- repl&#45;&gt;opresultwarn -->
<g id="edge138" class="edge">
<title>repl&#45;&gt;opresultwarn</title>
<path fill="none" stroke="#000000" d="M1543.2765,-1403.1909C1550.2804,-1398.933 1558.1578,-1394.9247 1566,-1392.5083 1720.6081,-1344.8689 2901.5291,-1425.7992 3020,-1315.6274 3229.1464,-1121.1322 3165.7053,-946.192 3075,-675.3726 3051.3301,-604.7013 3027.6443,-593.2479 2974,-541.5083 2929.8906,-498.9649 2904.3726,-505.786 2861,-462.4917 2839.1004,-440.6317 2846.3961,-423.1857 2821,-405.5083 2740.0809,-349.1829 2629.2613,-324.7395 2548.5424,-314.1321"/>
<polygon fill="#000000" stroke="#000000" points="2548.715,-310.6262 2538.3553,-312.8456 2547.8379,-317.571 2548.715,-310.6262"/>
</g>
<!-- repl&#45;&gt;messages -->
<g id="edge142" class="edge">
<title>repl&#45;&gt;messages</title>
<path fill="none" stroke="#000000" d="M1481.8439,-1417.0215C1362.2474,-1403.8879 988.5317,-1360.2049 876,-1315.6274 526.5488,-1177.1983 38,-720.2173 38,-570 38,-570 38,-570 38,-306 38,-219.6877 77.2856,-190.9466 153,-149.5083 290.6528,-74.1711 1388.2217,-49.3448 1722.0283,-43.497"/>
<polygon fill="#000000" stroke="#000000" points="1722.2175,-46.9944 1732.1553,-43.3214 1722.0961,-39.9954 1722.2175,-46.9944"/>
</g>
<!-- repl&#45;&gt;matches -->
<g id="edge140" class="edge">
<title>repl&#45;&gt;matches</title>
<path fill="none" stroke="#000000" d="M1481.6061,-1417.8234C1412.0703,-1410.3495 1260.546,-1386.5589 1157,-1315.6274 1102.0713,-1278 1087.3496,-1259.6923 1066,-1196.6274 983.1893,-952.0113 1255.0897,-683.7618 1352.0018,-597.9875"/>
<polygon fill="#000000" stroke="#000000" points="1354.5399,-600.4169 1359.7485,-591.1908 1349.9232,-595.1551 1354.5399,-600.4169"/>
</g>
<!-- repl&#45;&gt;runCommand -->
<g id="edge143" class="edge">
<title>repl&#45;&gt;runCommand</title>
<path fill="none" stroke="#000000" d="M1539.1048,-1401.8376C1602.214,-1341.6866 1796.6676,-1156.3481 1872.3826,-1084.1822"/>
<polygon fill="#000000" stroke="#000000" points="1874.9294,-1086.59 1879.7533,-1077.157 1870.0998,-1081.5229 1874.9294,-1086.59"/>
</g>
<!-- runner -->
<g id="node20" class="node">
<title>runner</title>
<g id="a_node20"><a xlink:href="runner.md" xlink:title="runner.md">
<polygon fill="#98fb98" stroke="#000000" points="1744.3608,-1546.8581 1744.3608,-1567.1419 1709.0023,-1581.4846 1658.9977,-1581.4846 1623.6392,-1567.1419 1623.6392,-1546.8581 1658.9977,-1532.5154 1709.0023,-1532.5154 1744.3608,-1546.8581"/>
<polygon fill="none" stroke="#000000" points="1748.3724,-1544.1681 1748.3724,-1569.8319 1709.7872,-1585.4835 1658.2128,-1585.4835 1619.6276,-1569.8319 1619.6276,-1544.1681 1658.2128,-1528.5165 1709.7872,-1528.5165 1748.3724,-1544.1681"/>
<text text-anchor="middle" x="1684" y="-1549.8" font-family="Times,serif" font-size="24.00" fill="#000000">runner</text>
</a>
</g>
</g>
<!-- statictea -->
<g id="node21" class="node">
<title>statictea</title>
<g id="a_node21"><a xlink:href="statictea.md" xlink:title="statictea.md">
<polygon fill="#eee8aa" stroke="#000000" points="1436.0958,-1548.3667 1519,-1529.0619 1601.9042,-1548.3667 1601.8268,-1579.6024 1436.1732,-1579.6024 1436.0958,-1548.3667"/>
<text text-anchor="middle" x="1519" y="-1549.8" font-family="Times,serif" font-size="24.00" fill="#000000">statictea</text>
</a>
</g>
</g>
<!-- statictea&#45;&gt;env -->
<g id="edge132" class="edge">
<title>statictea&#45;&gt;env</title>
<path fill="none" stroke="#000000" d="M1436.2862,-1554.3848C1241.4523,-1547.0801 759.3738,-1522.0032 617,-1449.4917 532.5085,-1406.4599 472,-1387.8185 472,-1293 472,-1293 472,-1293 472,-1174 472,-977.7224 650.4342,-790.422 721.3956,-723.6953"/>
<polygon fill="#000000" stroke="#000000" points="724.1667,-725.8977 729.1048,-716.5241 719.399,-720.7724 724.1667,-725.8977"/>
</g>
<!-- statictea&#45;&gt;updateTemplate -->
<g id="edge127" class="edge">
<title>statictea&#45;&gt;updateTemplate</title>
<path fill="none" stroke="#000000" d="M1546.7293,-1535.4504C1576.671,-1512.1814 1624.4992,-1475.012 1657.4835,-1449.3785"/>
<polygon fill="#000000" stroke="#000000" points="1659.7813,-1452.0255 1665.5296,-1443.1256 1655.4859,-1446.4983 1659.7813,-1452.0255"/>
</g>
<!-- statictea&#45;&gt;repl -->
<g id="edge145" class="edge">
<title>statictea&#45;&gt;repl</title>
<path fill="none" stroke="#000000" d="M1519,-1528.8207C1519,-1507.0589 1519,-1476.896 1519,-1454.0055"/>
<polygon fill="#000000" stroke="#000000" points="1522.5001,-1453.7394 1519,-1443.7394 1515.5001,-1453.7394 1522.5001,-1453.7394"/>
</g>
<!-- gethelp -->
<g id="node22" class="node">
<title>gethelp</title>
<g id="a_node22"><a xlink:href="gethelp.md" xlink:title="gethelp.md">
<polygon fill="#98fb98" stroke="#000000" points="762.1349,-1410.8581 762.1349,-1431.1419 723.394,-1445.4846 668.606,-1445.4846 629.8651,-1431.1419 629.8651,-1410.8581 668.606,-1396.5154 723.394,-1396.5154 762.1349,-1410.8581"/>
<polygon fill="none" stroke="#000000" points="766.1242,-1408.0722 766.1242,-1433.9278 724.1071,-1449.4835 667.8929,-1449.4835 625.8758,-1433.9278 625.8758,-1408.0722 667.8929,-1392.5165 724.1071,-1392.5165 766.1242,-1408.0722"/>
<text text-anchor="middle" x="696" y="-1413.8" font-family="Times,serif" font-size="24.00" fill="#000000">gethelp</text>
</a>
</g>
</g>
<!-- statictea&#45;&gt;gethelp -->
<g id="edge130" class="edge">
<title>statictea&#45;&gt;gethelp</title>
<path fill="none" stroke="#000000" d="M1436.2019,-1550.5515C1297.6988,-1538.5425 1010.9816,-1508.4476 775,-1449.4917 768.9662,-1447.9843 762.7498,-1446.1882 756.5791,-1444.2414"/>
<polygon fill="#000000" stroke="#000000" points="757.5458,-1440.875 746.9529,-1441.078 755.3604,-1447.5251 757.5458,-1440.875"/>
</g>
<!-- statictea&#45;&gt;args -->
<g id="edge128" class="edge">
<title>statictea&#45;&gt;args</title>
<path fill="none" stroke="#000000" d="M1436.0411,-1552.6943C1208.6482,-1540.2615 587.2999,-1501.8274 512,-1449.4917 448.1867,-1405.1396 434,-1370.7126 434,-1293 434,-1293 434,-1293 434,-1174 434,-888.2838 427.7109,-800.2025 549,-541.5083 563.7248,-510.1021 589.9431,-480.3486 610.297,-460.1389"/>
<polygon fill="#000000" stroke="#000000" points="612.7668,-462.6193 617.4983,-453.1397 607.8879,-457.5996 612.7668,-462.6193"/>
</g>
<!-- statictea&#45;&gt;opresultwarn -->
<g id="edge133" class="edge">
<title>statictea&#45;&gt;opresultwarn</title>
<path fill="none" stroke="#000000" d="M1567.7814,-1540.2775C1581.6273,-1535.9736 1596.8008,-1531.6702 1611,-1528.5083 2282.8549,-1378.8963 2590.6248,-1723.5991 3145,-1315.6274 3287.8468,-1210.5047 3268,-1113.3584 3268,-936 3268,-936 3268,-936 3268,-817 3268,-677.7983 3210.8046,-646.1459 3119,-541.5083 3050.9873,-463.9883 3025.4264,-446.9657 2931,-405.5083 2805.9183,-350.5917 2649.3603,-325.5586 2547.8164,-314.4401"/>
<polygon fill="#000000" stroke="#000000" points="2548.174,-310.9584 2537.8584,-313.375 2547.4295,-317.9187 2548.174,-310.9584"/>
</g>
<!-- statictea&#45;&gt;messages -->
<g id="edge129" class="edge">
<title>statictea&#45;&gt;messages</title>
<path fill="none" stroke="#000000" d="M1566.1829,-1539.861C1580.4038,-1535.3859 1596.1756,-1531.0961 1611,-1528.5083 1801.8681,-1495.1887 3187.77,-1550.6841 3353,-1449.4917 3421.2336,-1407.7032 3442,-1373.0132 3442,-1293 3442,-1293 3442,-1293 3442,-306 3442,-209.6573 3379.1788,-190.5175 3292,-149.5083 3167.7813,-91.0753 2221.1631,-55.2074 1913.9469,-45.0125"/>
<polygon fill="#000000" stroke="#000000" points="1913.8384,-41.5071 1903.7283,-44.675 1913.6073,-48.5033 1913.8384,-41.5071"/>
</g>
<!-- statictea&#45;&gt;version -->
<g id="edge131" class="edge">
<title>statictea&#45;&gt;version</title>
<path fill="none" stroke="#000000" d="M1566.1841,-1539.8679C1580.405,-1535.393 1596.1766,-1531.1016 1611,-1528.5083 1798.7944,-1495.6537 3185.2491,-1579.1677 3325,-1449.4917 3376.3584,-1401.8358 3344,-1363.0626 3344,-1293 3344,-1293 3344,-1293 3344,-1055 3344,-887.0383 3298.9619,-690.2593 3278.2272,-608.566"/>
<polygon fill="#000000" stroke="#000000" points="3281.5787,-607.5447 3275.7055,-598.7267 3274.7978,-609.2826 3281.5787,-607.5447"/>
</g>
<!-- timer -->
<g id="node31" class="node">
<title>timer</title>
<g id="a_node31"><a xlink:href="timer.md" xlink:title="timer.md">
<polygon fill="#98fb98" stroke="#000000" points="3312.0202,-1410.8581 3312.0202,-1431.1419 3282.1333,-1445.4846 3239.8667,-1445.4846 3209.9798,-1431.1419 3209.9798,-1410.8581 3239.8667,-1396.5154 3282.1333,-1396.5154 3312.0202,-1410.8581"/>
<polygon fill="none" stroke="#000000" points="3316.021,-1408.3422 3316.021,-1433.6578 3283.044,-1449.4835 3238.956,-1449.4835 3205.979,-1433.6578 3205.979,-1408.3422 3238.956,-1392.5165 3283.044,-1392.5165 3316.021,-1408.3422"/>
<text text-anchor="middle" x="3261" y="-1413.8" font-family="Times,serif" font-size="24.00" fill="#000000">timer</text>
</a>
</g>
</g>
<!-- statictea&#45;&gt;timer -->
<g id="edge146" class="edge">
<title>statictea&#45;&gt;timer</title>
<path fill="none" stroke="#000000" d="M1566.1905,-1539.9041C1580.4116,-1535.4302 1596.1816,-1531.1303 1611,-1528.5083 2303.7821,-1405.9246 2505.5315,-1603.5527 3192,-1449.4917 3198.1411,-1448.1135 3204.4352,-1446.2329 3210.6034,-1444.0901"/>
<polygon fill="#000000" stroke="#000000" points="3211.9979,-1447.3058 3220.1524,-1440.5416 3209.5595,-1440.7442 3211.9979,-1447.3058"/>
</g>
<!-- parseCommandLine -->
<g id="node32" class="node">
<title>parseCommandLine</title>
<g id="a_node32"><a xlink:href="parseCommandLine.md" xlink:title="parseCommandLine.md">
<ellipse fill="#eee8aa" stroke="#000000" cx="291" cy="-570" rx="148.8522" ry="22.7556"/>
<text text-anchor="middle" x="291" y="-562.8" font-family="Times,serif" font-size="24.00" fill="#000000">parseCommandLine</text>
</a>
</g>
</g>
<!-- statictea&#45;&gt;parseCommandLine -->
<g id="edge12" class="edge">
<title>statictea&#45;&gt;parseCommandLine</title>
<path fill="none" stroke="#000000" d="M1435.9761,-1552.0947C1214.3816,-1538.4903 612.7526,-1498.0651 420,-1449.4917 257.1262,-1408.4478 76,-1460.9657 76,-1293 76,-1293 76,-1293 76,-817 76,-716.2775 178.9732,-636.6673 242.3926,-597.1881"/>
<polygon fill="#000000" stroke="#000000" points="244.3585,-600.0885 251.064,-591.8857 240.7067,-594.1165 244.3585,-600.0885"/>
</g>
<!-- processTemplate -->
<g id="node33" class="node">
<title>processTemplate</title>
<g id="a_node33"><a xlink:href="processTemplate.md" xlink:title="processTemplate.md">
<ellipse fill="#eee8aa" stroke="#000000" cx="909" cy="-1421" rx="125.2054" ry="22.7556"/>
<text text-anchor="middle" x="909" y="-1413.8" font-family="Times,serif" font-size="24.00" fill="#000000">processTemplate</text>
</a>
</g>
</g>
<!-- statictea&#45;&gt;processTemplate -->
<g id="edge114" class="edge">
<title>statictea&#45;&gt;processTemplate</title>
<path fill="none" stroke="#000000" d="M1457.4357,-1543.2742C1348.9008,-1519.0762 1123.1682,-1468.749 997.7864,-1440.795"/>
<polygon fill="#000000" stroke="#000000" points="998.3471,-1437.3341 987.825,-1438.5741 996.8238,-1444.1664 998.3471,-1437.3341"/>
</g>
<!-- comparelines -->
<g id="node23" class="node">
<title>comparelines</title>
<g id="a_node23"><a xlink:href="comparelines.md" xlink:title="comparelines.md">
<polygon fill="#98fb98" stroke="#000000" points="1990.3362,-1546.8581 1990.3362,-1567.1419 1925.7028,-1581.4846 1834.2972,-1581.4846 1769.6638,-1567.1419 1769.6638,-1546.8581 1834.2972,-1532.5154 1925.7028,-1532.5154 1990.3362,-1546.8581"/>
<polygon fill="none" stroke="#000000" points="1994.3422,-1543.6506 1994.3422,-1570.3494 1926.1427,-1585.4835 1833.8573,-1585.4835 1765.6578,-1570.3494 1765.6578,-1543.6506 1833.8573,-1528.5165 1926.1427,-1528.5165 1994.3422,-1543.6506"/>
<text text-anchor="middle" x="1880" y="-1549.8" font-family="Times,serif" font-size="24.00" fill="#000000">comparelines</text>
</a>
</g>
</g>
<!-- signatures&#45;&gt;vartypes -->
<g id="edge64" class="edge">
<title>signatures&#45;&gt;vartypes</title>
<path fill="none" stroke="#000000" d="M2056.3775,-682.4327C2147.0168,-658.2622 2320.8868,-611.8969 2414.5343,-586.9242"/>
<polygon fill="#000000" stroke="#000000" points="2415.6831,-590.2402 2424.4436,-584.2817 2413.8794,-583.4766 2415.6831,-590.2402"/>
</g>
<!-- signatures&#45;&gt;messages -->
<g id="edge65" class="edge">
<title>signatures&#45;&gt;messages</title>
<path fill="none" stroke="#000000" d="M1981.8313,-675.6108C1951.7029,-631.6173 1890,-529.8217 1890,-434 1890,-434 1890,-434 1890,-306 1890,-222.9865 1856.4549,-130.2997 1835.1586,-79.8213"/>
<polygon fill="#000000" stroke="#000000" points="1838.3631,-78.4132 1831.2059,-70.6013 1831.9294,-81.1715 1838.3631,-78.4132"/>
</g>
<!-- args&#45;&gt;warnings -->
<g id="edge3" class="edge">
<title>args&#45;&gt;warnings</title>
<path fill="none" stroke="#000000" d="M644.4621,-411.521C653.8534,-377.9613 676.3994,-315.2978 720,-283.3726 794.762,-228.6304 1060.5923,-197.4666 1196.5823,-184.7704"/>
<polygon fill="#000000" stroke="#000000" points="1197.3043,-188.2187 1206.9408,-183.8156 1196.6617,-181.2483 1197.3043,-188.2187"/>
</g>
<!-- args&#45;&gt;opresultwarn -->
<g id="edge6" class="edge">
<title>args&#45;&gt;opresultwarn</title>
<path fill="none" stroke="#000000" d="M678.3568,-431.2075C899.6716,-415.5045 1991.5248,-338.0337 2337.5869,-313.4794"/>
<polygon fill="#000000" stroke="#000000" points="2337.8791,-316.9676 2347.6063,-312.7685 2337.3836,-309.9851 2337.8791,-316.9676"/>
</g>
<!-- args&#45;&gt;messages -->
<g id="edge1" class="edge">
<title>args&#45;&gt;messages</title>
<path fill="none" stroke="#000000" d="M638.0838,-411.2321C638.059,-378.447 643.0557,-318.0783 677,-283.3726 823.0096,-134.0877 1474.4626,-68.6705 1722.0726,-48.8872"/>
<polygon fill="#000000" stroke="#000000" points="1722.4414,-52.369 1732.134,-48.0907 1721.889,-45.3908 1722.4414,-52.369"/>
</g>
<!-- opresultwarn&#45;&gt;warnings -->
<g id="edge4" class="edge">
<title>opresultwarn&#45;&gt;warnings</title>
<path fill="none" stroke="#000000" d="M2353.0369,-296.1156C2132.3578,-271.8694 1566.9938,-209.7521 1357.5846,-186.7441"/>
<polygon fill="#000000" stroke="#000000" points="1357.908,-183.2586 1347.5855,-185.6455 1357.1434,-190.2167 1357.908,-183.2586"/>
</g>
<!-- opresultwarn&#45;&gt;opresult -->
<g id="edge5" class="edge">
<title>opresultwarn&#45;&gt;opresult</title>
<path fill="none" stroke="#000000" d="M2486.2195,-285.4346C2532.0784,-263.6133 2604.7432,-229.0367 2655.2017,-205.0267"/>
<polygon fill="#000000" stroke="#000000" points="2656.8276,-208.1292 2664.3535,-200.6719 2653.8198,-201.8083 2656.8276,-208.1292"/>
</g>
<!-- matches&#45;&gt;regexes -->
<g id="edge22" class="edge">
<title>matches&#45;&gt;regexes</title>
<path fill="none" stroke="#000000" d="M1430.1156,-553.0505C1494.2363,-528.9609 1611.974,-484.728 1684.4768,-457.4894"/>
<polygon fill="#000000" stroke="#000000" points="1685.8298,-460.72 1693.96,-453.9266 1683.3679,-454.1672 1685.8298,-460.72"/>
</g>
<!-- matches&#45;&gt;args -->
<g id="edge21" class="edge">
<title>matches&#45;&gt;args</title>
<path fill="none" stroke="#000000" d="M1325.8391,-559.2146C1182.2313,-533.0341 817.4064,-466.5245 686.5896,-442.6759"/>
<polygon fill="#000000" stroke="#000000" points="686.9511,-439.1841 676.4855,-440.8338 685.6956,-446.0706 686.9511,-439.1841"/>
</g>
<!-- readjson&#45;&gt;unicodes -->
<g id="edge82" class="edge">
<title>readjson&#45;&gt;unicodes</title>
<path fill="none" stroke="#000000" d="M2680.3546,-794.617C2691.4119,-776.0842 2707.2419,-749.5524 2719.5166,-728.9793"/>
<polygon fill="#000000" stroke="#000000" points="2722.5872,-730.6636 2724.7053,-720.2826 2716.5759,-727.077 2722.5872,-730.6636"/>
</g>
<!-- readjson&#45;&gt;vartypes -->
<g id="edge80" class="edge">
<title>readjson&#45;&gt;vartypes</title>
<path fill="none" stroke="#000000" d="M2654.2833,-794.5858C2637.663,-765.9489 2607.0054,-715.3115 2576,-675.3726 2554.7148,-647.9545 2527.6677,-619.2599 2507.3825,-598.7503"/>
<polygon fill="#000000" stroke="#000000" points="2509.7764,-596.1942 2500.2381,-591.582 2504.8184,-601.1357 2509.7764,-596.1942"/>
</g>
<!-- readjson&#45;&gt;utf8decoder -->
<g id="edge83" class="edge">
<title>readjson&#45;&gt;utf8decoder</title>
<path fill="none" stroke="#000000" d="M2623.3461,-799.2364C2519.2273,-756.8685 2255.6195,-649.6013 2129.4152,-598.2464"/>
<polygon fill="#000000" stroke="#000000" points="2130.4183,-594.8759 2119.8366,-594.3487 2127.7799,-601.3597 2130.4183,-594.8759"/>
</g>
<!-- readjson&#45;&gt;opresultwarn -->
<g id="edge84" class="edge">
<title>readjson&#45;&gt;opresultwarn</title>
<path fill="none" stroke="#000000" d="M2658.4222,-794.2972C2640.3972,-746.9199 2596.871,-634.2243 2556,-541.5083 2523.3813,-467.5127 2481.3783,-382.3363 2458.8902,-337.4562"/>
<polygon fill="#000000" stroke="#000000" points="2462.0131,-335.8757 2454.3981,-328.5094 2455.7573,-339.0167 2462.0131,-335.8757"/>
</g>
<!-- readjson&#45;&gt;messages -->
<g id="edge81" class="edge">
<title>readjson&#45;&gt;messages</title>
<path fill="none" stroke="#000000" d="M2711.525,-799.6781C2745.9004,-784.0545 2792.0131,-757.7948 2819,-720.6274 2968.6852,-514.4754 3070.1307,-304.5808 2868,-149.5083 2793.1555,-92.0884 2159.3633,-57.4834 1914.2432,-46.1412"/>
<polygon fill="#000000" stroke="#000000" points="1914.0744,-42.6298 1903.9242,-45.6668 1913.7529,-49.6224 1914.0744,-42.6298"/>
</g>
<!-- parseCommandLine&#45;&gt;regexes -->
<g id="edge10" class="edge">
<title>parseCommandLine&#45;&gt;regexes</title>
<path fill="none" stroke="#000000" d="M417.9806,-558.1392C709.7832,-530.8829 1421.6831,-464.3867 1664.3718,-441.718"/>
<polygon fill="#000000" stroke="#000000" points="1664.9053,-445.1835 1674.5364,-440.7686 1664.2542,-438.2139 1664.9053,-445.1835"/>
</g>
<!-- parseCommandLine&#45;&gt;cmdline -->
<g id="edge11" class="edge">
<title>parseCommandLine&#45;&gt;cmdline</title>
<path fill="none" stroke="#000000" d="M289.3262,-547.2367C287.8345,-526.9489 285.6198,-496.8293 283.8495,-472.7528"/>
<polygon fill="#000000" stroke="#000000" points="287.3205,-472.229 283.0965,-462.5126 280.3393,-472.7424 287.3205,-472.229"/>
</g>
<!-- parseCommandLine&#45;&gt;warnings -->
<g id="edge9" class="edge">
<title>parseCommandLine&#45;&gt;warnings</title>
<path fill="none" stroke="#000000" d="M318.19,-547.3701C341.5059,-526.9494 374.8955,-495.1771 398,-462.4917 448.9741,-390.38 412.5171,-335.2248 484,-283.3726 596.0045,-202.1269 1013.7081,-183.52 1194.1282,-179.262"/>
<polygon fill="#000000" stroke="#000000" points="1194.4452,-182.7558 1204.3633,-179.0299 1194.2865,-175.7576 1194.4452,-182.7558"/>
</g>
<!-- parseCommandLine&#45;&gt;args -->
<g id="edge7" class="edge">
<title>parseCommandLine&#45;&gt;args</title>
<path fill="none" stroke="#000000" d="M344.9932,-548.8992C414.3992,-521.775 533.4743,-475.2399 596.6889,-450.5354"/>
<polygon fill="#000000" stroke="#000000" points="598.2986,-453.6641 606.3386,-446.7642 595.7506,-447.1443 598.2986,-453.6641"/>
</g>
<!-- parseCommandLine&#45;&gt;messages -->
<g id="edge8" class="edge">
<title>parseCommandLine&#45;&gt;messages</title>
<path fill="none" stroke="#000000" d="M308.5403,-547.3595C324.4786,-526.1647 348.026,-493.2387 365,-462.4917 406.8792,-386.6313 379.0027,-342.8707 442,-283.3726 627.8217,-107.8723 1440.3946,-57.7419 1721.7223,-45.5063"/>
<polygon fill="#000000" stroke="#000000" points="1722.0656,-48.9949 1731.9065,-45.0699 1721.7658,-42.0013 1722.0656,-48.9949"/>
</g>
<!-- processTemplate&#45;&gt;parseCmdLine -->
<g id="edge30" class="edge">
<title>processTemplate&#45;&gt;parseCmdLine</title>
<path fill="none" stroke="#000000" d="M904.9272,-1398.2145C900.5781,-1367.2431 896.993,-1311.0596 919,-1270.3726 1070.405,-990.4519 1265.2888,-1063.9788 1491,-839.6274 1525.7311,-805.1056 1558.8222,-759.0958 1579.011,-729.0228"/>
<polygon fill="#000000" stroke="#000000" points="1581.9823,-730.8753 1584.6017,-720.6093 1576.1521,-727.0011 1581.9823,-730.8753"/>
</g>
<!-- processTemplate&#45;&gt;env -->
<g id="edge20" class="edge">
<title>processTemplate&#45;&gt;env</title>
<path fill="none" stroke="#000000" d="M824.203,-1404.2702C774.8501,-1389.7332 716.5149,-1363.2047 686,-1315.6274 560.9243,-1120.6154 611.9355,-1015.1996 682,-794.3726 690.2702,-768.3067 708.4172,-743.2097 723.8854,-725.1642"/>
<polygon fill="#000000" stroke="#000000" points="726.7566,-727.2009 730.7589,-717.3911 721.5127,-722.5639 726.7566,-727.2009"/>
</g>
<!-- processTemplate&#45;&gt;startingvars -->
<g id="edge112" class="edge">
<title>processTemplate&#45;&gt;startingvars</title>
<path fill="none" stroke="#000000" d="M1020.827,-1410.7685C1288.5714,-1386.2715 1962.71,-1324.5919 2212.7415,-1301.7156"/>
<polygon fill="#000000" stroke="#000000" points="2213.2527,-1305.1835 2222.8922,-1300.7868 2212.6149,-1298.2126 2213.2527,-1305.1835"/>
</g>
<!-- processTemplate&#45;&gt;variables -->
<g id="edge91" class="edge">
<title>processTemplate&#45;&gt;variables</title>
<path fill="none" stroke="#000000" d="M1030.3124,-1415.4389C1337.9521,-1400.859 2142.8357,-1359.6066 2407,-1315.6274 2648.7813,-1275.3746 2940,-1419.1091 2940,-1174 2940,-1174 2940,-1174 2940,-1055 2940,-935.1314 2960.893,-793.8237 2971.279,-730.9847"/>
<polygon fill="#000000" stroke="#000000" points="2974.7704,-731.3267 2972.9699,-720.886 2967.8665,-730.1706 2974.7704,-731.3267"/>
</g>
<!-- processTemplate&#45;&gt;vartypes -->
<g id="edge92" class="edge">
<title>processTemplate&#45;&gt;vartypes</title>
<path fill="none" stroke="#000000" d="M991.0003,-1403.8718C1289.6314,-1341.1946 2304.349,-1125.49 2356,-1077.6274 2494.4738,-949.3103 2488.3798,-693.7658 2481.2971,-602.9601"/>
<polygon fill="#000000" stroke="#000000" points="2484.7621,-602.3948 2480.4381,-592.7225 2477.7866,-602.9802 2484.7621,-602.3948"/>
</g>
<!-- processTemplate&#45;&gt;replacement -->
<g id="edge93" class="edge">
<title>processTemplate&#45;&gt;replacement</title>
<path fill="none" stroke="#000000" d="M896.9918,-1398.3C882.8786,-1368.6029 862.94,-1315.0855 876,-1270.3726 893.5946,-1210.1347 909.5713,-1197.6109 952,-1151.3726 1076.2985,-1015.9136 1260.5549,-894.9003 1344.0428,-843.3563"/>
<polygon fill="#000000" stroke="#000000" points="1346.0712,-846.218 1352.7598,-838.0013 1342.4071,-840.2535 1346.0712,-846.218"/>
</g>
<!-- processTemplate&#45;&gt;readlines -->
<g id="edge24" class="edge">
<title>processTemplate&#45;&gt;readlines</title>
<path fill="none" stroke="#000000" d="M858.9035,-1400.1555C824.7658,-1382.9776 782.2261,-1355.0117 762,-1315.6274 680.3269,-1156.5936 722.4007,-1087.7118 762,-913.3726 787.9786,-798.9997 795.6724,-760.8333 876,-675.3726 909.7051,-639.5136 958.405,-612.7619 997.9281,-595.1864"/>
<polygon fill="#000000" stroke="#000000" points="999.4687,-598.3332 1007.2442,-591.1364 996.6779,-591.9135 999.4687,-598.3332"/>
</g>
<!-- processTemplate&#45;&gt;args -->
<g id="edge13" class="edge">
<title>processTemplate&#45;&gt;args</title>
<path fill="none" stroke="#000000" d="M825.2298,-1404.068C770.8838,-1389.146 702.0561,-1362.2664 657,-1315.6274 617.7133,-1274.9606 626.0831,-1251.3896 612,-1196.6274 539.3181,-914.0035 484.0416,-820.9898 568,-541.5083 576.9365,-511.7604 597.0697,-482.6514 613.6227,-462.2416"/>
<polygon fill="#000000" stroke="#000000" points="616.5092,-464.245 620.2221,-454.3221 611.1315,-459.7638 616.5092,-464.245"/>
</g>
<!-- processTemplate&#45;&gt;opresultwarn -->
<g id="edge113" class="edge">
<title>processTemplate&#45;&gt;opresultwarn</title>
<path fill="none" stroke="#000000" d="M970.4705,-1401.1918C1064.7517,-1371.121 1250.963,-1312.9524 1411,-1270.3726 1559.6872,-1230.8125 1948.1376,-1163.2082 2076,-1077.6274 2192.9875,-999.3254 2216.9865,-962.881 2285,-839.6274 2381.3449,-665.0318 2425.0378,-425.1097 2438.3537,-338.6806"/>
<polygon fill="#000000" stroke="#000000" points="2441.831,-339.0933 2439.863,-328.6829 2434.9094,-338.0484 2441.831,-339.0933"/>
</g>
<!-- processTemplate&#45;&gt;messages -->
<g id="edge14" class="edge">
<title>processTemplate&#45;&gt;messages</title>
<path fill="none" stroke="#000000" d="M836.6946,-1402.4439C640.7183,-1351.6538 114,-1211.6453 114,-1174 114,-1174 114,-1174 114,-936 114,-765.6252 0,-740.3748 0,-570 0,-570 0,-570 0,-306 0,-230.1657 5.8912,-193.0209 68,-149.5083 136.1745,-101.7461 1365.8591,-57.1033 1722.064,-45.1292"/>
<polygon fill="#000000" stroke="#000000" points="1722.2156,-48.6262 1732.0926,-44.793 1721.9809,-41.6301 1722.2156,-48.6262"/>
</g>
<!-- processTemplate&#45;&gt;matches -->
<g id="edge23" class="edge">
<title>processTemplate&#45;&gt;matches</title>
<path fill="none" stroke="#000000" d="M887.0378,-1398.6649C849.262,-1357.7722 776,-1266.5365 776,-1174 776,-1174 776,-1174 776,-1055 776,-777.7557 1166.9841,-633.4235 1322.3961,-587.0039"/>
<polygon fill="#000000" stroke="#000000" points="1323.6839,-590.2733 1332.2855,-584.0876 1321.7039,-583.5591 1323.6839,-590.2733"/>
</g>
<!-- processTemplate&#45;&gt;runCommand -->
<g id="edge90" class="edge">
<title>processTemplate&#45;&gt;runCommand</title>
<path fill="none" stroke="#000000" d="M908.1899,-1398.2054C908.3581,-1364.5293 914.154,-1302.0591 952,-1270.3726 1076.1682,-1166.4129 1523.8263,-1249.1932 1677,-1196.6274 1696.8804,-1189.8049 1802.249,-1121.4148 1861.8385,-1082.2239"/>
<polygon fill="#000000" stroke="#000000" points="1863.855,-1085.0868 1870.2826,-1076.6643 1860.0056,-1079.2402 1863.855,-1085.0868"/>
</g>
<!-- runCommand&#45;&gt;runFunction -->
<g id="edge79" class="edge">
<title>runCommand&#45;&gt;runFunction</title>
<path fill="none" stroke="#000000" d="M1909.2847,-1032.3369C1914.308,-1014.2227 1921.4138,-988.5987 1927.0343,-968.3308"/>
<polygon fill="#000000" stroke="#000000" points="1930.4391,-969.1504 1929.7387,-958.5787 1923.6936,-967.2797 1930.4391,-969.1504"/>
</g>
<!-- runCommand&#45;&gt;parseNumber -->
<g id="edge42" class="edge">
<title>runCommand&#45;&gt;parseNumber</title>
<path fill="none" stroke="#000000" d="M1950.6429,-1034.7008C1986.6107,-1017.8352 2035.7873,-991.348 2072,-958.6274 2107.6387,-926.4254 2137.9789,-879.5701 2155.8483,-848.6984"/>
<polygon fill="#000000" stroke="#000000" points="2159.0846,-850.0876 2160.9856,-839.6647 2152.9997,-846.6272 2159.0846,-850.0876"/>
</g>
<!-- runCommand&#45;&gt;regexes -->
<g id="edge33" class="edge">
<title>runCommand&#45;&gt;regexes</title>
<path fill="none" stroke="#000000" d="M1877.1586,-1032.8115C1858.0664,-1014.8449 1833.1905,-987.8018 1820,-958.6274 1743.8228,-790.1411 1742.2765,-562.6688 1745.1194,-472.8176"/>
<polygon fill="#000000" stroke="#000000" points="1748.6266,-472.6733 1745.4832,-462.5556 1741.631,-472.4253 1748.6266,-472.6733"/>
</g>
<!-- runCommand&#45;&gt;parseCmdLine -->
<g id="edge89" class="edge">
<title>runCommand&#45;&gt;parseCmdLine</title>
<path fill="none" stroke="#000000" d="M1861.941,-1034.1239C1831.4378,-1017.04 1790.3709,-990.5356 1762,-958.6274 1707.2458,-897.0463 1721.0364,-863.3796 1676,-794.3726 1660.8763,-771.1993 1641.4034,-746.8674 1625.8245,-728.4499"/>
<polygon fill="#000000" stroke="#000000" points="1628.1278,-725.7576 1618.9702,-720.4293 1622.8063,-730.3054 1628.1278,-725.7576"/>
</g>
<!-- runCommand&#45;&gt;env -->
<g id="edge34" class="edge">
<title>runCommand&#45;&gt;env</title>
<path fill="none" stroke="#000000" d="M1813.6061,-1043.1727C1713.4455,-1028.6416 1546.9047,-1000.6287 1408,-958.6274 1226.4015,-903.7166 1190.708,-863.4197 1014,-794.3726 935.6565,-763.7605 843.1111,-730.6751 791.0169,-712.329"/>
<polygon fill="#000000" stroke="#000000" points="792.0581,-708.9851 781.4633,-708.97 789.7363,-715.5888 792.0581,-708.9851"/>
</g>
<!-- runCommand&#45;&gt;unicodes -->
<g id="edge87" class="edge">
<title>runCommand&#45;&gt;unicodes</title>
<path fill="none" stroke="#000000" d="M1983.3597,-1040.3742C2184.8841,-1002.8861 2698.9687,-901.9401 2745,-839.6274 2768.2302,-808.1806 2759.9443,-761.2455 2750.3048,-730.141"/>
<polygon fill="#000000" stroke="#000000" points="2753.6258,-729.0357 2747.1658,-720.6381 2746.979,-731.2313 2753.6258,-729.0357"/>
</g>
<!-- runCommand&#45;&gt;variables -->
<g id="edge49" class="edge">
<title>runCommand&#45;&gt;variables</title>
<path fill="none" stroke="#000000" d="M2005.0114,-1049.6219C2182.0357,-1039.012 2537.9429,-1011.6745 2650,-958.6274 2676.5004,-946.0823 2674.7885,-931.2858 2698,-913.3726 2746.9595,-875.5886 2767.0405,-877.4114 2816,-839.6274 2839.2115,-821.7142 2842.1723,-813.9482 2864,-794.3726 2890.2712,-770.8118 2920.7498,-744.898 2943.4283,-725.8812"/>
<polygon fill="#000000" stroke="#000000" points="2945.6818,-728.5593 2951.1049,-719.4576 2941.1896,-723.1908 2945.6818,-728.5593"/>
</g>
<!-- runCommand&#45;&gt;vartypes -->
<g id="edge38" class="edge">
<title>runCommand&#45;&gt;vartypes</title>
<path fill="none" stroke="#000000" d="M1950.7352,-1034.6676C1992.5024,-1016.3323 2054.3912,-987.8333 2106,-958.6274 2189.1418,-911.5768 2216.2923,-906.0019 2285,-839.6274 2362.7246,-764.5421 2430.2419,-654.5869 2460.7257,-601.2801"/>
<polygon fill="#000000" stroke="#000000" points="2463.9235,-602.7363 2465.8103,-592.3108 2457.8339,-599.2841 2463.9235,-602.7363"/>
</g>
<!-- runCommand&#45;&gt;readlines -->
<g id="edge31" class="edge">
<title>runCommand&#45;&gt;readlines</title>
<path fill="none" stroke="#000000" d="M1833.1474,-1038.0638C1679.9737,-1000.1483 1319.7954,-906.5204 1214,-839.6274 1198.7811,-830.0047 1112.6283,-736.4313 1104,-720.6274 1084.8109,-685.4799 1074.7679,-640.5294 1069.7131,-608.9148"/>
<polygon fill="#000000" stroke="#000000" points="1073.1311,-608.107 1068.184,-598.7381 1066.2088,-609.1471 1073.1311,-608.107"/>
</g>
<!-- runCommand&#45;&gt;utf8decoder -->
<g id="edge88" class="edge">
<title>runCommand&#45;&gt;utf8decoder</title>
<path fill="none" stroke="#000000" d="M1880.5008,-1032.8158C1863.7841,-1014.6497 1842.3279,-987.3419 1833,-958.6274 1802.146,-863.6481 1846.1152,-760.6657 1909,-675.3726 1931.9636,-644.2261 1966.9726,-618.9748 1997.5012,-601.0075"/>
<polygon fill="#000000" stroke="#000000" points="1999.4655,-603.9156 2006.3949,-595.901 1995.98,-597.8451 1999.4655,-603.9156"/>
</g>
<!-- runCommand&#45;&gt;warnings -->
<g id="edge40" class="edge">
<title>runCommand&#45;&gt;warnings</title>
<path fill="none" stroke="#000000" d="M1858.0259,-1034.4776C1821.2543,-1016.7542 1768.7124,-989.2263 1727,-958.6274 1725.0753,-957.2155 1480.0448,-722.7736 1479,-720.6274 1443.9781,-648.6901 1483.3624,-618.3291 1461,-541.5083 1422.7753,-410.1963 1337.7337,-269.6392 1298.5255,-208.8884"/>
<polygon fill="#000000" stroke="#000000" points="1301.2466,-206.6525 1292.8621,-200.1755 1295.3775,-210.4674 1301.2466,-206.6525"/>
</g>
<!-- runCommand&#45;&gt;opresultwarn -->
<g id="edge86" class="edge">
<title>runCommand&#45;&gt;opresultwarn</title>
<path fill="none" stroke="#000000" d="M1999.3007,-1046.1023C2116.002,-1033.7173 2317.784,-1007.1358 2485,-958.6274 2550.128,-939.7342 2717.6094,-887.135 2766,-839.6274 2820.7381,-785.8881 2836.7419,-750.001 2819,-675.3726 2787.9355,-544.7049 2781.4086,-496.9129 2683,-405.5083 2639.0032,-364.6428 2575.8639,-339.3699 2525.3887,-324.5236"/>
<polygon fill="#000000" stroke="#000000" points="2526.0486,-321.0723 2515.4719,-321.6919 2524.1265,-327.8032 2526.0486,-321.0723"/>
</g>
<!-- runCommand&#45;&gt;messages -->
<g id="edge39" class="edge">
<title>runCommand&#45;&gt;messages</title>
<path fill="none" stroke="#000000" d="M2003.1199,-1048.2786C2185.4297,-1035.1226 2564.1697,-1003.3062 2688,-958.6274 2872.2735,-892.1402 2949.6616,-883.1771 3059,-720.6274 3168.1435,-558.3676 3125.3228,-478.1557 3108,-283.3726 3102.6456,-223.1663 3128.6744,-190.2227 3084,-149.5083 2998.043,-71.1705 2194.5349,-48.9419 1914.0534,-43.5407"/>
<polygon fill="#000000" stroke="#000000" points="1913.9615,-40.0384 1903.8969,-43.348 1913.8287,-47.0371 1913.9615,-40.0384"/>
</g>
<!-- runCommand&#45;&gt;matches -->
<g id="edge32" class="edge">
<title>runCommand&#45;&gt;matches</title>
<path fill="none" stroke="#000000" d="M1829.1907,-1038.8807C1775.1353,-1024.4215 1702.0781,-999.1221 1648,-958.6274 1574.7834,-903.8015 1585.0004,-862.5305 1524,-794.3726 1492.1839,-758.8233 1472.9026,-760.0263 1446,-720.6274 1420.6614,-683.5192 1403.241,-634.2842 1393.6936,-602.3735"/>
<polygon fill="#000000" stroke="#000000" points="1397.0221,-601.2849 1390.8703,-592.659 1390.3002,-603.2384 1397.0221,-601.2849"/>
</g>
<!-- runCommand&#45;&gt;readjson -->
<g id="edge85" class="edge">
<title>runCommand&#45;&gt;readjson</title>
<path fill="none" stroke="#000000" d="M1975.8786,-1038.6662C2052.2618,-1021.0131 2175.4649,-991.0266 2280,-958.6274 2400.9935,-921.1272 2539.7363,-867.7548 2613.8042,-838.4018"/>
<polygon fill="#000000" stroke="#000000" points="2615.3807,-841.5417 2623.3821,-834.597 2612.7964,-835.0362 2615.3807,-841.5417"/>
</g>
</g>
</svg>
