<?xml version="1.0" encoding="UTF-8" standalone="no"?>
<!DOCTYPE svg PUBLIC "-//W3C//DTD SVG 1.1//EN"
 "http://www.w3.org/Graphics/SVG/1.1/DTD/svg11.dtd">
<!-- Generated by graphviz version 2.40.1 (20161225.0304)
 -->
<!-- Title: statictea Pages: 1 -->
<svg width="635pt" height="1382pt"
 viewBox="0.00 0.00 634.97 1381.98" xmlns="http://www.w3.org/2000/svg" xmlns:xlink="http://www.w3.org/1999/xlink">
<g id="graph0" class="graph" transform="scale(1 1) rotate(0) translate(4 1377.9835)">
<title>statictea</title>
<polygon fill="#ffffff" stroke="transparent" points="-4,4 -4,-1377.9835 630.9693,-1377.9835 630.9693,4 -4,4"/>
<!-- strutils -->
<g id="node1" class="node">
<title>strutils</title>
<ellipse fill="none" stroke="#000000" cx="87.6672" cy="-892.4917" rx="57.5374" ry="22.7556"/>
<text text-anchor="middle" x="87.6672" y="-885.2917" font-family="Times,serif" font-size="24.00" fill="#000000">strutils</text>
</g>
<!-- statictea -->
<g id="node2" class="node">
<title>statictea</title>
<ellipse fill="none" stroke="#000000" cx="545.1518" cy="-1162.4917" rx="39.154" ry="18"/>
<text text-anchor="middle" x="545.1518" y="-1158.2917" font-family="Times,serif" font-size="14.00" fill="#000000">statictea</text>
</g>
<!-- strutils&#45;&gt;statictea -->
<g id="edge1" class="edge">
<title>strutils&#45;&gt;statictea</title>
<path fill="none" stroke="#000000" d="M134.2522,-906.111C147.849,-910.8387 162.4958,-916.6896 175.3343,-923.4917 315.7794,-997.9027 322.1106,-1062.5692 463.3343,-1135.4917 475.0799,-1141.5567 488.4664,-1146.6519 500.9612,-1150.7242"/>
<polygon fill="#000000" stroke="#000000" points="500.1538,-1154.1384 510.7422,-1153.7697 502.2349,-1147.4549 500.1538,-1154.1384"/>
</g>
<!-- args -->
<g id="node6" class="node">
<title>args</title>
<ellipse fill="none" stroke="#000000" cx="545.1518" cy="-1108.4917" rx="27" ry="18"/>
<text text-anchor="middle" x="545.1518" y="-1104.2917" font-family="Times,serif" font-size="14.00" fill="#000000">args</text>
</g>
<!-- strutils&#45;&gt;args -->
<g id="edge4" class="edge">
<title>strutils&#45;&gt;args</title>
<path fill="none" stroke="#000000" d="M132.815,-906.8883C146.6432,-911.7143 161.7781,-917.4244 175.3343,-923.4917 308.5931,-983.1345 329.4526,-1023.2607 463.3343,-1081.4917 478.3797,-1088.0357 495.5526,-1093.9286 510.2677,-1098.5271"/>
<polygon fill="#000000" stroke="#000000" points="509.4201,-1101.9277 520.0061,-1101.496 511.4614,-1095.2319 509.4201,-1101.9277"/>
</g>
<!-- warnings -->
<g id="node7" class="node">
<title>warnings</title>
<ellipse fill="none" stroke="#000000" cx="545.1518" cy="-1054.4917" rx="42.5542" ry="18"/>
<text text-anchor="middle" x="545.1518" y="-1050.2917" font-family="Times,serif" font-size="14.00" fill="#000000">warnings</text>
</g>
<!-- strutils&#45;&gt;warnings -->
<g id="edge5" class="edge">
<title>strutils&#45;&gt;warnings</title>
<path fill="none" stroke="#000000" d="M130.9401,-907.7293C145.0964,-912.7313 160.8924,-918.3308 175.3343,-923.4917 303.4873,-969.288 334.7045,-983.0524 463.3343,-1027.4917 475.7171,-1031.7698 489.204,-1036.281 501.5899,-1040.3651"/>
<polygon fill="#000000" stroke="#000000" points="500.6521,-1043.7409 511.245,-1043.5362 502.8365,-1037.0905 500.6521,-1043.7409"/>
</g>
<!-- cmdline -->
<g id="node11" class="node">
<title>cmdline</title>
<ellipse fill="none" stroke="#000000" cx="545.1518" cy="-946.4917" rx="38.6869" ry="18"/>
<text text-anchor="middle" x="545.1518" y="-942.2917" font-family="Times,serif" font-size="14.00" fill="#000000">cmdline</text>
</g>
<!-- strutils&#45;&gt;cmdline -->
<g id="edge12" class="edge">
<title>strutils&#45;&gt;cmdline</title>
<path fill="none" stroke="#000000" d="M142.8505,-899.0054C233.4201,-909.6959 412.0543,-930.7813 497.4723,-940.8638"/>
<polygon fill="#000000" stroke="#000000" points="497.3194,-944.37 507.6608,-942.0664 498.14,-937.4182 497.3194,-944.37"/>
</g>
<!-- env -->
<g id="node15" class="node">
<title>env</title>
<ellipse fill="none" stroke="#000000" cx="545.1518" cy="-892.4917" rx="27" ry="18"/>
<text text-anchor="middle" x="545.1518" y="-888.2917" font-family="Times,serif" font-size="14.00" fill="#000000">env</text>
</g>
<!-- strutils&#45;&gt;env -->
<g id="edge21" class="edge">
<title>strutils&#45;&gt;env</title>
<path fill="none" stroke="#000000" d="M145.6079,-892.4917C240.9859,-892.4917 428.4116,-892.4917 507.9962,-892.4917"/>
<polygon fill="#000000" stroke="#000000" points="508.0456,-895.9918 518.0456,-892.4917 508.0455,-888.9918 508.0456,-895.9918"/>
</g>
<!-- tempFile -->
<g id="node17" class="node">
<title>tempFile</title>
<ellipse fill="none" stroke="#000000" cx="545.1518" cy="-1216.4917" rx="41.5938" ry="18"/>
<text text-anchor="middle" x="545.1518" y="-1212.2917" font-family="Times,serif" font-size="14.00" fill="#000000">tempFile</text>
</g>
<!-- strutils&#45;&gt;tempFile -->
<g id="edge24" class="edge">
<title>strutils&#45;&gt;tempFile</title>
<path fill="none" stroke="#000000" d="M135.2079,-905.3819C148.6874,-910.0623 163.0317,-916.0703 175.3343,-923.4917 324.5325,-1013.4939 313.1933,-1101.0714 463.3343,-1189.4917 474.1086,-1195.8369 486.5704,-1200.9171 498.4689,-1204.8819"/>
<polygon fill="#000000" stroke="#000000" points="497.6927,-1208.3064 508.2816,-1207.9533 499.7837,-1201.6259 497.6927,-1208.3064"/>
</g>
<!-- matches -->
<g id="node19" class="node">
<title>matches</title>
<ellipse fill="none" stroke="#000000" cx="545.1518" cy="-622.4917" rx="39.1627" ry="18"/>
<text text-anchor="middle" x="545.1518" y="-618.2917" font-family="Times,serif" font-size="14.00" fill="#000000">matches</text>
</g>
<!-- strutils&#45;&gt;matches -->
<g id="edge26" class="edge">
<title>strutils&#45;&gt;matches</title>
<path fill="none" stroke="#000000" d="M133.3224,-878.5753C147.1712,-873.632 162.1902,-867.5219 175.3343,-860.4917 315.2544,-785.6544 322.2624,-722.1345 463.3343,-649.4917 475.0867,-643.44 488.4754,-638.3489 500.97,-634.2764"/>
<polygon fill="#000000" stroke="#000000" points="502.2439,-637.5455 510.7504,-631.2298 500.162,-630.8623 502.2439,-637.5455"/>
</g>
<!-- runCommand -->
<g id="node23" class="node">
<title>runCommand</title>
<ellipse fill="none" stroke="#000000" cx="545.1518" cy="-784.4917" rx="58.9841" ry="18"/>
<text text-anchor="middle" x="545.1518" y="-780.2917" font-family="Times,serif" font-size="14.00" fill="#000000">runCommand</text>
</g>
<!-- strutils&#45;&gt;runCommand -->
<g id="edge36" class="edge">
<title>strutils&#45;&gt;runCommand</title>
<path fill="none" stroke="#000000" d="M137.0607,-880.8312C222.6879,-860.6169 398.172,-819.1898 488.5646,-797.8505"/>
<polygon fill="#000000" stroke="#000000" points="489.4341,-801.2415 498.3624,-795.5375 487.8257,-794.4288 489.4341,-801.2415"/>
</g>
<!-- variables -->
<g id="node27" class="node">
<title>variables</title>
<ellipse fill="none" stroke="#000000" cx="545.1518" cy="-676.4917" rx="42.0524" ry="18"/>
<text text-anchor="middle" x="545.1518" y="-672.2917" font-family="Times,serif" font-size="14.00" fill="#000000">variables</text>
</g>
<!-- strutils&#45;&gt;variables -->
<g id="edge40" class="edge">
<title>strutils&#45;&gt;variables</title>
<path fill="none" stroke="#000000" d="M131.8824,-877.8032C145.95,-872.746 161.4563,-866.7651 175.3343,-860.4917 308.1763,-800.4422 329.5706,-761.459 463.3343,-703.4917 475.1385,-698.3763 488.2462,-693.6505 500.449,-689.6299"/>
<polygon fill="#000000" stroke="#000000" points="501.5485,-692.953 509.9993,-686.5627 499.408,-686.2883 501.5485,-692.953"/>
</g>
<!-- tostring -->
<g id="node28" class="node">
<title>tostring</title>
<ellipse fill="none" stroke="#000000" cx="545.1518" cy="-838.4917" rx="37.2594" ry="18"/>
<text text-anchor="middle" x="545.1518" y="-834.2917" font-family="Times,serif" font-size="14.00" fill="#000000">tostring</text>
</g>
<!-- strutils&#45;&gt;tostring -->
<g id="edge43" class="edge">
<title>strutils&#45;&gt;tostring</title>
<path fill="none" stroke="#000000" d="M142.8505,-885.9781C233.8764,-875.2337 413.8564,-853.9894 498.7562,-843.9681"/>
<polygon fill="#000000" stroke="#000000" points="499.3491,-847.4225 508.8699,-842.7743 498.5285,-840.4708 499.3491,-847.4225"/>
</g>
<!-- funtypes -->
<g id="node30" class="node">
<title>funtypes</title>
<ellipse fill="none" stroke="#000000" cx="545.1518" cy="-1000.4917" rx="40.6248" ry="18"/>
<text text-anchor="middle" x="545.1518" y="-996.2917" font-family="Times,serif" font-size="14.00" fill="#000000">funtypes</text>
</g>
<!-- strutils&#45;&gt;funtypes -->
<g id="edge46" class="edge">
<title>strutils&#45;&gt;funtypes</title>
<path fill="none" stroke="#000000" d="M137.0607,-904.1522C226.2926,-925.2175 413.1061,-969.3193 499.515,-989.7181"/>
<polygon fill="#000000" stroke="#000000" points="498.7577,-993.1355 509.2943,-992.0267 500.366,-986.3227 498.7577,-993.1355"/>
</g>
<!-- runFunction -->
<g id="node31" class="node">
<title>runFunction</title>
<ellipse fill="none" stroke="#000000" cx="545.1518" cy="-1270.4917" rx="53.1797" ry="18"/>
<text text-anchor="middle" x="545.1518" y="-1266.2917" font-family="Times,serif" font-size="14.00" fill="#000000">runFunction</text>
</g>
<!-- strutils&#45;&gt;runFunction -->
<g id="edge49" class="edge">
<title>strutils&#45;&gt;runFunction</title>
<path fill="none" stroke="#000000" d="M136.1166,-904.8254C149.4706,-909.4714 163.5213,-915.6005 175.3343,-923.4917 334.4402,-1029.7766 303.114,-1138.8943 463.3343,-1243.4917 471.7887,-1249.0111 481.473,-1253.497 491.1507,-1257.1106"/>
<polygon fill="#000000" stroke="#000000" points="490.1857,-1260.4802 500.7805,-1260.4396 492.4728,-1253.8644 490.1857,-1260.4802"/>
</g>
<!-- unicodes -->
<g id="node35" class="node">
<title>unicodes</title>
<ellipse fill="none" stroke="#000000" cx="545.1518" cy="-244.4917" rx="41.5852" ry="18"/>
<text text-anchor="middle" x="545.1518" y="-240.2917" font-family="Times,serif" font-size="14.00" fill="#000000">unicodes</text>
</g>
<!-- strutils&#45;&gt;unicodes -->
<g id="edge55" class="edge">
<title>strutils&#45;&gt;unicodes</title>
<path fill="none" stroke="#000000" d="M138.145,-881.3983C151.3782,-876.6403 164.8587,-869.9234 175.3343,-860.4917 391.8906,-665.5174 243.7591,-463.0598 463.3343,-271.4917 472.6683,-263.3483 484.5251,-257.6481 496.2958,-253.6626"/>
<polygon fill="#000000" stroke="#000000" points="497.5434,-256.9421 506.1056,-250.702 495.5209,-250.2406 497.5434,-256.9421"/>
</g>
<!-- signatures -->
<g id="node36" class="node">
<title>signatures</title>
<ellipse fill="none" stroke="#000000" cx="545.1518" cy="-730.4917" rx="45.9286" ry="18"/>
<text text-anchor="middle" x="545.1518" y="-726.2917" font-family="Times,serif" font-size="14.00" fill="#000000">signatures</text>
</g>
<!-- strutils&#45;&gt;signatures -->
<g id="edge58" class="edge">
<title>strutils&#45;&gt;signatures</title>
<path fill="none" stroke="#000000" d="M129.9629,-877.1341C213.9747,-846.6554 399.2867,-779.5635 463.3343,-757.4917 475.1559,-753.4178 487.981,-749.1256 499.8939,-745.1919"/>
<polygon fill="#000000" stroke="#000000" points="501.2384,-748.4342 509.644,-741.9847 499.051,-741.7847 501.2384,-748.4342"/>
</g>
<!-- replacement -->
<g id="node38" class="node">
<title>replacement</title>
<ellipse fill="none" stroke="#000000" cx="545.1518" cy="-568.4917" rx="53.1281" ry="18"/>
<text text-anchor="middle" x="545.1518" y="-564.2917" font-family="Times,serif" font-size="14.00" fill="#000000">replacement</text>
</g>
<!-- strutils&#45;&gt;replacement -->
<g id="edge67" class="edge">
<title>strutils&#45;&gt;replacement</title>
<path fill="none" stroke="#000000" d="M134.736,-879.1418C148.3464,-874.2815 162.8793,-868.0751 175.3343,-860.4917 323.9038,-770.0334 313.3701,-683.6185 463.3343,-595.4917 472.1358,-590.3195 482.0596,-585.9861 491.8818,-582.4118"/>
<polygon fill="#000000" stroke="#000000" points="493.2906,-585.6293 501.6246,-579.0876 491.0301,-579.0043 493.2906,-585.6293"/>
</g>
<!-- options -->
<g id="node3" class="node">
<title>options</title>
<ellipse fill="none" stroke="#000000" cx="87.6672" cy="-514.4917" rx="61.0788" ry="22.7556"/>
<text text-anchor="middle" x="87.6672" y="-507.2917" font-family="Times,serif" font-size="24.00" fill="#000000">options</text>
</g>
<!-- parseCommandLine -->
<g id="node4" class="node">
<title>parseCommandLine</title>
<ellipse fill="none" stroke="#000000" cx="545.1518" cy="-352.4917" rx="81.6354" ry="18"/>
<text text-anchor="middle" x="545.1518" y="-348.2917" font-family="Times,serif" font-size="14.00" fill="#000000">parseCommandLine</text>
</g>
<!-- options&#45;&gt;parseCommandLine -->
<g id="edge2" class="edge">
<title>options&#45;&gt;parseCommandLine</title>
<path fill="none" stroke="#000000" d="M131.2053,-498.4263C201.0649,-472.7432 342.6103,-421.0951 463.3343,-379.4917 471.7597,-376.5882 480.6948,-373.5738 489.4461,-370.6573"/>
<polygon fill="#000000" stroke="#000000" points="490.8225,-373.8884 499.2115,-367.4173 488.6181,-367.2445 490.8225,-373.8884"/>
</g>
<!-- regexes -->
<g id="node9" class="node">
<title>regexes</title>
<ellipse fill="none" stroke="#000000" cx="545.1518" cy="-190.4917" rx="37.2248" ry="18"/>
<text text-anchor="middle" x="545.1518" y="-186.2917" font-family="Times,serif" font-size="14.00" fill="#000000">regexes</text>
</g>
<!-- options&#45;&gt;regexes -->
<g id="edge7" class="edge">
<title>options&#45;&gt;regexes</title>
<path fill="none" stroke="#000000" d="M108.9842,-493.0541C163.378,-439.4426 313.6284,-298.0878 463.3343,-217.4917 475.4039,-210.9939 489.3167,-205.6883 502.2065,-201.554"/>
<polygon fill="#000000" stroke="#000000" points="503.2741,-204.8876 511.8165,-198.6204 501.2303,-198.1926 503.2741,-204.8876"/>
</g>
<!-- processTemplate -->
<g id="node14" class="node">
<title>processTemplate</title>
<ellipse fill="none" stroke="#000000" cx="545.1518" cy="-298.4917" rx="69.306" ry="18"/>
<text text-anchor="middle" x="545.1518" y="-294.2917" font-family="Times,serif" font-size="14.00" fill="#000000">processTemplate</text>
</g>
<!-- options&#45;&gt;processTemplate -->
<g id="edge15" class="edge">
<title>options&#45;&gt;processTemplate</title>
<path fill="none" stroke="#000000" d="M121.3199,-495.437C186.1159,-459.2307 333.3076,-379.311 463.3343,-325.4917 471.86,-321.9629 481.0276,-318.5669 490.0327,-315.4448"/>
<polygon fill="#000000" stroke="#000000" points="491.3529,-318.693 499.7024,-312.171 489.1081,-312.0627 491.3529,-318.693"/>
</g>
<!-- options&#45;&gt;env -->
<g id="edge20" class="edge">
<title>options&#45;&gt;env</title>
<path fill="none" stroke="#000000" d="M122.7125,-533.3838C139.3116,-542.9945 159.0249,-555.399 175.3343,-568.4917 318.7182,-683.5963 307.5271,-767.8593 463.3343,-865.4917 477.2372,-874.2036 494.2466,-880.4068 509.1481,-884.6516"/>
<polygon fill="#000000" stroke="#000000" points="508.5003,-888.1008 519.0637,-887.2843 510.2967,-881.3352 508.5003,-888.1008"/>
</g>
<!-- options&#45;&gt;tempFile -->
<g id="edge25" class="edge">
<title>options&#45;&gt;tempFile</title>
<path fill="none" stroke="#000000" d="M126.6108,-532.0818C143.2636,-541.1015 161.9169,-553.3923 175.3343,-568.4917 377.4217,-795.9135 236.1489,-987.1386 463.3343,-1189.4917 472.5842,-1197.7305 484.4113,-1203.4644 496.1803,-1207.4519"/>
<polygon fill="#000000" stroke="#000000" points="495.4103,-1210.8752 505.9948,-1210.4073 497.4286,-1204.1725 495.4103,-1210.8752"/>
</g>
<!-- options&#45;&gt;matches -->
<g id="edge28" class="edge">
<title>options&#45;&gt;matches</title>
<path fill="none" stroke="#000000" d="M139.7011,-526.7756C230.1687,-548.1326 414.9257,-591.7488 500.1934,-611.8783"/>
<polygon fill="#000000" stroke="#000000" points="499.5491,-615.3223 510.0857,-614.2136 501.1574,-608.5095 499.5491,-615.3223"/>
</g>
<!-- readlines -->
<g id="node20" class="node">
<title>readlines</title>
<ellipse fill="none" stroke="#000000" cx="545.1518" cy="-82.4917" rx="42.0524" ry="18"/>
<text text-anchor="middle" x="545.1518" y="-78.2917" font-family="Times,serif" font-size="14.00" fill="#000000">readlines</text>
</g>
<!-- options&#45;&gt;readlines -->
<g id="edge30" class="edge">
<title>options&#45;&gt;readlines</title>
<path fill="none" stroke="#000000" d="M106.6508,-492.7889C176.7506,-412.823 419.2535,-137.7992 463.3343,-109.4917 473.7572,-102.7984 485.9985,-97.6101 497.7909,-93.6536"/>
<polygon fill="#000000" stroke="#000000" points="499.0362,-96.9316 507.5413,-90.6138 496.9527,-90.2488 499.0362,-96.9316"/>
</g>
<!-- parseCmdLine -->
<g id="node21" class="node">
<title>parseCmdLine</title>
<ellipse fill="none" stroke="#000000" cx="545.1518" cy="-406.4917" rx="62.3407" ry="18"/>
<text text-anchor="middle" x="545.1518" y="-402.2917" font-family="Times,serif" font-size="14.00" fill="#000000">parseCmdLine</text>
</g>
<!-- options&#45;&gt;parseCmdLine -->
<g id="edge31" class="edge">
<title>options&#45;&gt;parseCmdLine</title>
<path fill="none" stroke="#000000" d="M139.7011,-502.2079C225.7042,-481.9049 396.9201,-441.4853 486.8661,-420.2514"/>
<polygon fill="#000000" stroke="#000000" points="487.702,-423.6504 496.6303,-417.9464 486.0936,-416.8377 487.702,-423.6504"/>
</g>
<!-- collectCommand -->
<g id="node22" class="node">
<title>collectCommand</title>
<ellipse fill="none" stroke="#000000" cx="545.1518" cy="-136.4917" rx="70.5427" ry="18"/>
<text text-anchor="middle" x="545.1518" y="-132.2917" font-family="Times,serif" font-size="14.00" fill="#000000">collectCommand</text>
</g>
<!-- options&#45;&gt;collectCommand -->
<g id="edge34" class="edge">
<title>options&#45;&gt;collectCommand</title>
<path fill="none" stroke="#000000" d="M108.5138,-492.6993C174.832,-423.7555 381.3705,-212.0798 463.3343,-163.4917 470.1196,-159.4694 477.5813,-155.9585 485.1527,-152.9191"/>
<polygon fill="#000000" stroke="#000000" points="486.6239,-156.1055 494.7592,-149.3182 484.1669,-149.5508 486.6239,-156.1055"/>
</g>
<!-- options&#45;&gt;runCommand -->
<g id="edge35" class="edge">
<title>options&#45;&gt;runCommand</title>
<path fill="none" stroke="#000000" d="M119.866,-534.0212C136.4994,-544.1865 157.0827,-556.8851 175.3343,-568.4917 304.5257,-650.6477 325.4583,-690.932 463.3343,-757.4917 472.3258,-761.8324 482.1908,-765.7451 491.8626,-769.1579"/>
<polygon fill="#000000" stroke="#000000" points="490.8361,-772.5055 501.4304,-772.4014 493.0835,-765.8761 490.8361,-772.5055"/>
</g>
<!-- parseNumber -->
<g id="node25" class="node">
<title>parseNumber</title>
<ellipse fill="none" stroke="#000000" cx="545.1518" cy="-28.4917" rx="57.9892" ry="18"/>
<text text-anchor="middle" x="545.1518" y="-24.2917" font-family="Times,serif" font-size="14.00" fill="#000000">parseNumber</text>
</g>
<!-- options&#45;&gt;parseNumber -->
<g id="edge38" class="edge">
<title>options&#45;&gt;parseNumber</title>
<path fill="none" stroke="#000000" d="M107.0981,-492.8809C125.0495,-472.7859 152.3366,-441.9102 175.3343,-414.4917 306.788,-257.7694 295.2898,-172.1237 463.3343,-55.4917 470.9146,-50.2306 479.5924,-45.9372 488.3987,-42.4507"/>
<polygon fill="#000000" stroke="#000000" points="489.7558,-45.6816 497.959,-38.9765 487.3649,-39.1025 489.7558,-45.6816"/>
</g>
<!-- options&#45;&gt;variables -->
<g id="edge41" class="edge">
<title>options&#45;&gt;variables</title>
<path fill="none" stroke="#000000" d="M131.2053,-530.5571C201.0649,-556.2403 342.6103,-607.8884 463.3343,-649.4917 475.7205,-653.7602 489.2083,-658.2684 501.5942,-662.3526"/>
<polygon fill="#000000" stroke="#000000" points="500.6561,-665.7284 511.249,-665.5245 502.841,-659.0781 500.6561,-665.7284"/>
</g>
<!-- options&#45;&gt;runFunction -->
<g id="edge47" class="edge">
<title>options&#45;&gt;runFunction</title>
<path fill="none" stroke="#000000" d="M127.2748,-532.1283C143.8557,-541.0897 162.2689,-553.3218 175.3343,-568.4917 388.1875,-815.6304 223.1614,-1022.8088 463.3343,-1243.4917 470.3645,-1249.9514 478.9752,-1254.8684 487.9413,-1258.6104"/>
<polygon fill="#000000" stroke="#000000" points="486.769,-1261.9085 497.3621,-1262.1 489.2005,-1255.3444 486.769,-1261.9085"/>
</g>
<!-- options&#45;&gt;unicodes -->
<g id="edge54" class="edge">
<title>options&#45;&gt;unicodes</title>
<path fill="none" stroke="#000000" d="M114.0611,-493.9842C173.4935,-448.6001 323.5611,-338.3996 463.3343,-271.4917 474.9383,-265.937 487.9802,-261.0671 500.1842,-257.0489"/>
<polygon fill="#000000" stroke="#000000" points="501.2764,-260.3743 509.7483,-254.0121 499.158,-253.7026 501.2764,-260.3743"/>
</g>
<!-- options&#45;&gt;signatures -->
<g id="edge57" class="edge">
<title>options&#45;&gt;signatures</title>
<path fill="none" stroke="#000000" d="M121.3199,-533.5465C186.1159,-569.7528 333.3076,-649.6725 463.3343,-703.4917 474.5637,-708.1397 486.9067,-712.557 498.5252,-716.422"/>
<polygon fill="#000000" stroke="#000000" points="497.4818,-719.763 508.0741,-719.5315 499.6493,-713.107 497.4818,-719.763"/>
</g>
<!-- readjson -->
<g id="node37" class="node">
<title>readjson</title>
<ellipse fill="none" stroke="#000000" cx="545.1518" cy="-514.4917" rx="40.1317" ry="18"/>
<text text-anchor="middle" x="545.1518" y="-510.2917" font-family="Times,serif" font-size="14.00" fill="#000000">readjson</text>
</g>
<!-- options&#45;&gt;readjson -->
<g id="edge61" class="edge">
<title>options&#45;&gt;readjson</title>
<path fill="none" stroke="#000000" d="M149.3656,-514.4917C240.7928,-514.4917 410.5049,-514.4917 494.8581,-514.4917"/>
<polygon fill="#000000" stroke="#000000" points="494.9556,-517.9918 504.9556,-514.4917 494.9556,-510.9918 494.9556,-517.9918"/>
</g>
<!-- options&#45;&gt;replacement -->
<g id="edge64" class="edge">
<title>options&#45;&gt;replacement</title>
<path fill="none" stroke="#000000" d="M146.0726,-521.3857C233.1951,-531.6694 396.374,-550.9305 484.6811,-561.354"/>
<polygon fill="#000000" stroke="#000000" points="484.4675,-564.853 494.8089,-562.5494 485.2881,-557.9012 484.4675,-564.853"/>
</g>
<!-- tables -->
<g id="node5" class="node">
<title>tables</title>
<ellipse fill="none" stroke="#000000" cx="87.6672" cy="-600.4917" rx="50.796" ry="22.7556"/>
<text text-anchor="middle" x="87.6672" y="-593.2917" font-family="Times,serif" font-size="24.00" fill="#000000">tables</text>
</g>
<!-- tables&#45;&gt;parseCommandLine -->
<g id="edge3" class="edge">
<title>tables&#45;&gt;parseCommandLine</title>
<path fill="none" stroke="#000000" d="M117.9568,-582.1703C200.8084,-532.127 427.405,-395.7638 463.3343,-379.4917 470.5995,-376.2014 478.3877,-373.1104 486.1658,-370.2784"/>
<polygon fill="#000000" stroke="#000000" points="487.3399,-373.5757 495.6125,-366.9565 485.0177,-366.9721 487.3399,-373.5757"/>
</g>
<!-- tables&#45;&gt;regexes -->
<g id="edge8" class="edge">
<title>tables&#45;&gt;regexes</title>
<path fill="none" stroke="#000000" d="M120.8924,-583.1689C137.9905,-573.497 158.6813,-560.5729 175.3343,-546.4917 323.7278,-421.0154 301.3442,-324.8424 463.3343,-217.4917 474.6612,-209.9854 488.252,-204.4065 501.0737,-200.3323"/>
<polygon fill="#000000" stroke="#000000" points="502.0749,-203.6862 510.6783,-197.5031 500.0968,-196.9715 502.0749,-203.6862"/>
</g>
<!-- tables&#45;&gt;cmdline -->
<g id="edge11" class="edge">
<title>tables&#45;&gt;cmdline</title>
<path fill="none" stroke="#000000" d="M119.4203,-618.5101C136.491,-628.6625 157.6132,-641.9886 175.3343,-655.4917 313.4485,-760.7323 313.5465,-831.6583 463.3343,-919.4917 474.7375,-926.1784 488.018,-931.466 500.5208,-935.5238"/>
<polygon fill="#000000" stroke="#000000" points="499.7441,-938.946 510.3303,-938.5175 501.7874,-932.2509 499.7441,-938.946"/>
</g>
<!-- tables&#45;&gt;processTemplate -->
<g id="edge16" class="edge">
<title>tables&#45;&gt;processTemplate</title>
<path fill="none" stroke="#000000" d="M118.587,-582.5017C135.6015,-572.3409 156.9343,-559.1692 175.3343,-546.4917 308.1953,-454.9518 320.7213,-400.9445 463.3343,-325.4917 470.8416,-321.5198 479.0437,-317.9816 487.2631,-314.88"/>
<polygon fill="#000000" stroke="#000000" points="488.6427,-318.1038 496.8793,-311.4398 486.2848,-311.5128 488.6427,-318.1038"/>
</g>
<!-- tables&#45;&gt;matches -->
<g id="edge27" class="edge">
<title>tables&#45;&gt;matches</title>
<path fill="none" stroke="#000000" d="M138.374,-602.9302C226.9008,-607.1874 408.5343,-615.9219 495.9753,-620.1269"/>
<polygon fill="#000000" stroke="#000000" points="496.0027,-623.6322 506.1593,-620.6166 496.339,-616.6402 496.0027,-623.6322"/>
</g>
<!-- tables&#45;&gt;parseCmdLine -->
<g id="edge32" class="edge">
<title>tables&#45;&gt;parseCmdLine</title>
<path fill="none" stroke="#000000" d="M122.1394,-583.7773C187.7191,-552.2931 335.3307,-482.923 463.3343,-433.4917 472.753,-429.8545 482.893,-426.2583 492.7191,-422.9342"/>
<polygon fill="#000000" stroke="#000000" points="494.0204,-426.1899 502.4022,-419.7095 491.8086,-419.5485 494.0204,-426.1899"/>
</g>
<!-- vartypes -->
<g id="node24" class="node">
<title>vartypes</title>
<ellipse fill="none" stroke="#000000" cx="545.1518" cy="-460.4917" rx="40.1317" ry="18"/>
<text text-anchor="middle" x="545.1518" y="-456.2917" font-family="Times,serif" font-size="14.00" fill="#000000">vartypes</text>
</g>
<!-- tables&#45;&gt;vartypes -->
<g id="edge37" class="edge">
<title>tables&#45;&gt;vartypes</title>
<path fill="none" stroke="#000000" d="M129.8862,-587.5718C216.7866,-560.9785 414.8186,-500.3765 502.2758,-473.6127"/>
<polygon fill="#000000" stroke="#000000" points="503.3441,-476.9461 511.8821,-470.673 501.2956,-470.2525 503.3441,-476.9461"/>
</g>
<!-- tables&#45;&gt;variables -->
<g id="edge42" class="edge">
<title>tables&#45;&gt;variables</title>
<path fill="none" stroke="#000000" d="M135.7614,-608.4814C223.2577,-623.0168 407.5715,-653.6361 495.9081,-668.3111"/>
<polygon fill="#000000" stroke="#000000" points="495.4991,-671.791 505.9375,-669.9772 496.6463,-664.8857 495.4991,-671.791"/>
</g>
<!-- tables&#45;&gt;tostring -->
<g id="edge44" class="edge">
<title>tables&#45;&gt;tostring</title>
<path fill="none" stroke="#000000" d="M118.382,-618.7608C194.9686,-664.148 393.2626,-780.5977 463.3343,-811.4917 475.9859,-817.0697 490.1685,-822.1398 503.1268,-826.3414"/>
<polygon fill="#000000" stroke="#000000" points="502.1621,-829.7071 512.7518,-829.3792 504.269,-823.0317 502.1621,-829.7071"/>
</g>
<!-- tables&#45;&gt;runFunction -->
<g id="edge48" class="edge">
<title>tables&#45;&gt;runFunction</title>
<path fill="none" stroke="#000000" d="M123.3907,-616.9995C140.744,-626.3816 160.9084,-639.468 175.3343,-655.4917 370.0348,-871.7574 243.9957,-1052.2597 463.3343,-1243.4917 470.6143,-1249.8388 479.427,-1254.7018 488.536,-1258.4256"/>
<polygon fill="#000000" stroke="#000000" points="487.4902,-1261.7696 498.0841,-1261.9081 489.8888,-1255.1934 487.4902,-1261.7696"/>
</g>
<!-- tables&#45;&gt;signatures -->
<g id="edge56" class="edge">
<title>tables&#45;&gt;signatures</title>
<path fill="none" stroke="#000000" d="M130.7062,-612.7218C216.5909,-637.127 408.6434,-691.7012 497.8883,-717.0612"/>
<polygon fill="#000000" stroke="#000000" points="497.1608,-720.493 507.7367,-719.8598 499.0742,-713.7596 497.1608,-720.493"/>
</g>
<!-- tables&#45;&gt;readjson -->
<g id="edge63" class="edge">
<title>tables&#45;&gt;readjson</title>
<path fill="none" stroke="#000000" d="M134.9029,-591.6121C222.7426,-575.0996 410.2462,-539.8519 498.0127,-523.3532"/>
<polygon fill="#000000" stroke="#000000" points="498.7751,-526.7712 507.9563,-521.4839 497.4818,-519.8917 498.7751,-526.7712"/>
</g>
<!-- re -->
<g id="node8" class="node">
<title>re</title>
<polygon fill="#98fb98" stroke="#000000" points="114.6672,-169.3499 114.6672,-189.6336 98.8509,-203.9764 76.4834,-203.9764 60.6672,-189.6336 60.6672,-169.3499 76.4834,-155.0071 98.8509,-155.0071 114.6672,-169.3499"/>
<polygon fill="none" stroke="#000000" points="118.6672,-167.5783 118.6672,-191.4052 100.3948,-207.9752 74.9395,-207.9752 56.6672,-191.4052 56.6672,-167.5783 74.9395,-151.0083 100.3948,-151.0083 118.6672,-167.5783"/>
<text text-anchor="middle" x="87.6672" y="-172.2917" font-family="Times,serif" font-size="24.00" fill="#000000">re</text>
</g>
<!-- re&#45;&gt;regexes -->
<g id="edge6" class="edge">
<title>re&#45;&gt;regexes</title>
<path fill="none" stroke="#000000" d="M118.7523,-180.2392C197.3552,-182.1291 404.4319,-187.1082 498.0297,-189.3587"/>
<polygon fill="#000000" stroke="#000000" points="497.9835,-192.8585 508.0648,-189.6 498.1518,-185.8605 497.9835,-192.8585"/>
</g>
<!-- os -->
<g id="node10" class="node">
<title>os</title>
<ellipse fill="none" stroke="#000000" cx="87.6672" cy="-955.4917" rx="27" ry="22.7556"/>
<text text-anchor="middle" x="87.6672" y="-948.2917" font-family="Times,serif" font-size="24.00" fill="#000000">os</text>
</g>
<!-- os&#45;&gt;statictea -->
<g id="edge68" class="edge">
<title>os&#45;&gt;statictea</title>
<path fill="none" stroke="#000000" d="M110.5037,-967.708C168.4132,-998.4035 326.1432,-1080.2518 463.3343,-1135.4917 475.8156,-1140.5173 489.6274,-1145.3448 502.2935,-1149.4928"/>
<polygon fill="#000000" stroke="#000000" points="501.5673,-1152.9357 512.1587,-1152.6646 503.7099,-1146.2717 501.5673,-1152.9357"/>
</g>
<!-- os&#45;&gt;cmdline -->
<g id="edge9" class="edge">
<title>os&#45;&gt;cmdline</title>
<path fill="none" stroke="#000000" d="M114.9149,-954.9557C189.9887,-953.4788 400.5981,-949.3355 496.4939,-947.449"/>
<polygon fill="#000000" stroke="#000000" points="496.5782,-950.9481 506.5074,-947.252 496.4404,-943.9494 496.5782,-950.9481"/>
</g>
<!-- os&#45;&gt;processTemplate -->
<g id="edge14" class="edge">
<title>os&#45;&gt;processTemplate</title>
<path fill="none" stroke="#000000" d="M114.5888,-951.5474C133.5175,-947.5529 158.3915,-939.6926 175.3343,-924.4917 395.2075,-727.2253 241.3886,-520.4234 463.3343,-325.4917 468.5445,-320.9157 474.5507,-317.1116 480.8939,-313.9499"/>
<polygon fill="#000000" stroke="#000000" points="482.6416,-317.0043 490.3749,-309.7623 479.8134,-310.601 482.6416,-317.0043"/>
</g>
<!-- os&#45;&gt;env -->
<g id="edge18" class="edge">
<title>os&#45;&gt;env</title>
<path fill="none" stroke="#000000" d="M114.5769,-951.786C192.6937,-941.0286 419.5775,-909.7845 508.6483,-897.5186"/>
<polygon fill="#000000" stroke="#000000" points="509.1334,-900.9849 518.5624,-896.1534 508.1783,-894.0504 509.1334,-900.9849"/>
</g>
<!-- os&#45;&gt;tempFile -->
<g id="edge22" class="edge">
<title>os&#45;&gt;tempFile</title>
<path fill="none" stroke="#000000" d="M108.2541,-970.8078C163.3288,-1011.215 319.6369,-1122.2073 463.3343,-1189.4917 474.9853,-1194.9472 488.0427,-1199.7845 500.2463,-1203.8033"/>
<polygon fill="#000000" stroke="#000000" points="499.2167,-1207.1485 509.8072,-1206.847 501.3401,-1200.4784 499.2167,-1207.1485"/>
</g>
<!-- os&#45;&gt;runFunction -->
<g id="edge51" class="edge">
<title>os&#45;&gt;runFunction</title>
<path fill="none" stroke="#000000" d="M105.6514,-972.9311C157.1924,-1022.0533 311.4976,-1163.2033 463.3343,-1243.4917 472.6535,-1248.4195 483.0424,-1252.6804 493.2058,-1256.2681"/>
<polygon fill="#000000" stroke="#000000" points="492.2448,-1259.6374 502.8388,-1259.5014 494.4723,-1253.0012 492.2448,-1259.6374"/>
</g>
<!-- os&#45;&gt;readjson -->
<g id="edge60" class="edge">
<title>os&#45;&gt;readjson</title>
<path fill="none" stroke="#000000" d="M114.1302,-950.4001C132.6012,-945.8789 157.1117,-937.8611 175.3343,-924.4917 347.0535,-798.5072 290.2932,-665.6545 463.3343,-541.4917 473.7869,-533.9917 486.4511,-528.4836 498.661,-524.4755"/>
<polygon fill="#000000" stroke="#000000" points="499.7377,-527.8066 508.3049,-521.5733 497.7204,-521.1036 499.7377,-527.8066"/>
</g>
<!-- strformat -->
<g id="node12" class="node">
<title>strformat</title>
<ellipse fill="none" stroke="#ff0000" cx="87.6672" cy="-753.4917" rx="73.5395" ry="22.7556"/>
<text text-anchor="middle" x="87.6672" y="-746.2917" font-family="Times,serif" font-size="24.00" fill="#000000">strformat</text>
</g>
<!-- strformat&#45;&gt;cmdline -->
<g id="edge10" class="edge">
<title>strformat&#45;&gt;cmdline</title>
<path fill="none" stroke="#ff0000" d="M135.6891,-770.8507C148.634,-775.7249 162.5826,-781.1556 175.3343,-786.4917 305.3955,-840.9179 332.1778,-867.7607 463.3343,-919.4917 476.0858,-924.5212 490.1923,-929.4097 503.0497,-933.6137"/>
<polygon fill="#ff0000" stroke="#ff0000" points="502.0038,-936.9539 512.5952,-936.6861 504.1486,-930.2905 502.0038,-936.9539"/>
</g>
<!-- strformat&#45;&gt;replacement -->
<g id="edge66" class="edge">
<title>strformat&#45;&gt;replacement</title>
<path fill="none" stroke="#ff0000" d="M134.2001,-735.8091C147.5238,-730.6475 162.038,-724.9304 175.3343,-719.4917 304.3212,-666.7318 333.0386,-644.9313 463.3343,-595.4917 473.8274,-591.5102 485.198,-587.5432 496.0302,-583.9243"/>
<polygon fill="#ff0000" stroke="#ff0000" points="497.3848,-587.1631 505.7863,-580.7082 495.1932,-580.515 497.3848,-587.1631"/>
</g>
<!-- streams -->
<g id="node13" class="node">
<title>streams</title>
<ellipse fill="none" stroke="#000000" cx="87.6672" cy="-382.4917" rx="63.3073" ry="22.7556"/>
<text text-anchor="middle" x="87.6672" y="-375.2917" font-family="Times,serif" font-size="24.00" fill="#000000">streams</text>
</g>
<!-- streams&#45;&gt;processTemplate -->
<g id="edge13" class="edge">
<title>streams&#45;&gt;processTemplate</title>
<path fill="none" stroke="#000000" d="M144.2226,-372.1074C228.9039,-356.5589 388.3145,-327.2891 478.5213,-310.7259"/>
<polygon fill="#000000" stroke="#000000" points="479.1634,-314.1667 488.3668,-308.9182 477.8991,-307.2817 479.1634,-314.1667"/>
</g>
<!-- streams&#45;&gt;env -->
<g id="edge17" class="edge">
<title>streams&#45;&gt;env</title>
<path fill="none" stroke="#000000" d="M107.6514,-404.3239C125.7439,-424.3132 152.9147,-454.8954 175.3343,-482.4917 309.628,-647.7939 290.2932,-741.329 463.3343,-865.4917 476.7634,-875.1276 493.8431,-881.4754 508.9199,-885.5785"/>
<polygon fill="#000000" stroke="#000000" points="508.4195,-889.0604 518.9683,-888.0732 510.1063,-882.2667 508.4195,-889.0604"/>
</g>
<!-- streams&#45;&gt;readlines -->
<g id="edge29" class="edge">
<title>streams&#45;&gt;readlines</title>
<path fill="none" stroke="#000000" d="M110.9941,-361.4619C167.5497,-311.4315 318.0423,-183.9522 463.3343,-109.4917 474.462,-103.7889 487.0464,-98.9316 498.9497,-94.9756"/>
<polygon fill="#000000" stroke="#000000" points="500.2699,-98.2286 508.7413,-91.8658 498.1509,-91.557 500.2699,-98.2286"/>
</g>
<!-- streams&#45;&gt;collectCommand -->
<g id="edge33" class="edge">
<title>streams&#45;&gt;collectCommand</title>
<path fill="none" stroke="#000000" d="M117.1954,-362.3746C179.1288,-320.8452 328.0816,-224.4238 463.3343,-163.4917 471.3604,-159.8759 480.0202,-156.4957 488.5983,-153.4338"/>
<polygon fill="#000000" stroke="#000000" points="489.8992,-156.6874 498.2102,-150.1165 487.6155,-150.0704 489.8992,-156.6874"/>
</g>
<!-- streams&#45;&gt;readjson -->
<g id="edge59" class="edge">
<title>streams&#45;&gt;readjson</title>
<path fill="none" stroke="#000000" d="M137.0607,-396.7435C227.0704,-422.7144 416.3705,-477.3339 501.7518,-501.9693"/>
<polygon fill="#000000" stroke="#000000" points="500.8138,-505.3414 511.3922,-504.7509 502.7544,-498.6158 500.8138,-505.3414"/>
</g>
<!-- streams&#45;&gt;replacement -->
<g id="edge65" class="edge">
<title>streams&#45;&gt;replacement</title>
<path fill="none" stroke="#000000" d="M126.994,-400.393C194.9087,-431.023 338.8709,-494.7048 463.3343,-541.4917 473.8397,-545.4408 485.2153,-549.3944 496.0486,-553.0105"/>
<polygon fill="#000000" stroke="#000000" points="495.2115,-556.4198 505.8046,-556.2269 497.4032,-549.7718 495.2115,-556.4198"/>
</g>
<!-- times -->
<g id="node16" class="node">
<title>times</title>
<polygon fill="#98fb98" stroke="#000000" points="139.7481,-813.3499 139.7481,-833.6336 109.2398,-847.9764 66.0945,-847.9764 35.5862,-833.6336 35.5862,-813.3499 66.0945,-799.0071 109.2398,-799.0071 139.7481,-813.3499"/>
<polygon fill="none" stroke="#000000" points="143.7511,-810.8122 143.7511,-836.1712 110.1347,-851.9752 65.1997,-851.9752 31.5832,-836.1712 31.5832,-810.8122 65.1997,-795.0083 110.1347,-795.0083 143.7511,-810.8122"/>
<text text-anchor="middle" x="87.6672" y="-816.2917" font-family="Times,serif" font-size="24.00" fill="#000000">times</text>
</g>
<!-- times&#45;&gt;env -->
<g id="edge19" class="edge">
<title>times&#45;&gt;env</title>
<path fill="none" stroke="#000000" d="M143.7638,-831.9525C238.7551,-846.2795 428.7147,-874.9301 508.5143,-886.9659"/>
<polygon fill="#000000" stroke="#000000" points="508.1679,-890.4532 518.5781,-888.4838 509.2119,-883.5314 508.1679,-890.4532"/>
</g>
<!-- random -->
<g id="node18" class="node">
<title>random</title>
<polygon fill="#98fb98" stroke="#000000" points="155.889,-1185.3499 155.889,-1205.6336 115.9256,-1219.9764 59.4087,-1219.9764 19.4453,-1205.6336 19.4453,-1185.3499 59.4087,-1171.0071 115.9256,-1171.0071 155.889,-1185.3499"/>
<polygon fill="none" stroke="#000000" points="159.8811,-1182.5349 159.8811,-1208.4486 116.6191,-1223.9752 58.7152,-1223.9752 15.4532,-1208.4486 15.4532,-1182.5349 58.7152,-1167.0083 116.6191,-1167.0083 159.8811,-1182.5349"/>
<text text-anchor="middle" x="87.6672" y="-1188.2917" font-family="Times,serif" font-size="24.00" fill="#000000">random</text>
</g>
<!-- random&#45;&gt;tempFile -->
<g id="edge23" class="edge">
<title>random&#45;&gt;tempFile</title>
<path fill="none" stroke="#000000" d="M159.9045,-1198.8077C252.8676,-1203.075 412.0864,-1210.3836 493.6645,-1214.1283"/>
<polygon fill="#000000" stroke="#000000" points="493.5444,-1217.6264 503.6944,-1214.5887 493.8654,-1210.6337 493.5444,-1217.6264"/>
</g>
<!-- parseutils -->
<g id="node26" class="node">
<title>parseutils</title>
<polygon fill="#98fb98" stroke="#000000" points="170.4501,-18.3499 170.4501,-38.6336 121.957,-52.9764 53.3774,-52.9764 4.8843,-38.6336 4.8843,-18.3499 53.3774,-4.0071 121.957,-4.0071 170.4501,-18.3499"/>
<polygon fill="none" stroke="#000000" points="174.4567,-15.3642 174.4567,-41.6193 122.5382,-56.9752 52.7962,-56.9752 .8776,-41.6193 .8776,-15.3642 52.7962,-.0083 122.5382,-.0083 174.4567,-15.3642"/>
<text text-anchor="middle" x="87.6672" y="-21.2917" font-family="Times,serif" font-size="24.00" fill="#000000">parseutils</text>
</g>
<!-- parseutils&#45;&gt;parseNumber -->
<g id="edge39" class="edge">
<title>parseutils&#45;&gt;parseNumber</title>
<path fill="none" stroke="#000000" d="M174.5237,-28.4917C262.4986,-28.4917 396.7505,-28.4917 477.235,-28.4917"/>
<polygon fill="#000000" stroke="#000000" points="477.2591,-31.9918 487.2591,-28.4917 477.259,-24.9918 477.2591,-31.9918"/>
</g>
<!-- json -->
<g id="node29" class="node">
<title>json</title>
<ellipse fill="none" stroke="#ff0000" cx="87.6672" cy="-687.4917" rx="39.7073" ry="22.7556"/>
<text text-anchor="middle" x="87.6672" y="-680.2917" font-family="Times,serif" font-size="24.00" fill="#000000">json</text>
</g>
<!-- json&#45;&gt;tostring -->
<g id="edge45" class="edge">
<title>json&#45;&gt;tostring</title>
<path fill="none" stroke="#ff0000" d="M122.0529,-698.8413C204.9894,-726.2158 415.725,-795.7724 504.6164,-825.1124"/>
<polygon fill="#ff0000" stroke="#ff0000" points="503.7435,-828.51 514.3367,-828.3207 505.9376,-821.8627 503.7435,-828.51"/>
</g>
<!-- json&#45;&gt;readjson -->
<g id="edge62" class="edge">
<title>json&#45;&gt;readjson</title>
<path fill="none" stroke="#ff0000" d="M120.1152,-674.2248C184.9395,-647.8664 335.2443,-587.4823 463.3343,-541.4917 475.9979,-536.9449 489.8638,-532.2598 502.5236,-528.0949"/>
<polygon fill="#ff0000" stroke="#ff0000" points="503.9524,-531.3103 512.3719,-524.8789 501.7794,-524.6561 503.9524,-531.3103"/>
</g>
<!-- math -->
<g id="node32" class="node">
<title>math</title>
<polygon fill="#98fb98" stroke="#000000" points="136.6181,-1335.3499 136.6181,-1355.6336 107.9433,-1369.9764 67.391,-1369.9764 38.7162,-1355.6336 38.7162,-1335.3499 67.391,-1321.0071 107.9433,-1321.0071 136.6181,-1335.3499"/>
<polygon fill="none" stroke="#000000" points="140.6162,-1332.8787 140.6162,-1358.1048 108.8873,-1373.9752 66.447,-1373.9752 34.7181,-1358.1048 34.7181,-1332.8787 66.447,-1317.0083 108.8873,-1317.0083 140.6162,-1332.8787"/>
<text text-anchor="middle" x="87.6672" y="-1338.2917" font-family="Times,serif" font-size="24.00" fill="#000000">math</text>
</g>
<!-- math&#45;&gt;runFunction -->
<g id="edge50" class="edge">
<title>math&#45;&gt;runFunction</title>
<path fill="none" stroke="#000000" d="M141.0418,-1336.7415C227.5118,-1322.5656 397.5397,-1294.6913 486.9882,-1280.0271"/>
<polygon fill="#000000" stroke="#000000" points="487.6596,-1283.4638 496.9616,-1278.392 486.5271,-1276.556 487.6596,-1283.4638"/>
</g>
<!-- algorithm -->
<g id="node33" class="node">
<title>algorithm</title>
<polygon fill="#98fb98" stroke="#000000" points="171.4941,-1260.3499 171.4941,-1280.6336 122.3894,-1294.9764 52.9449,-1294.9764 3.8402,-1280.6336 3.8402,-1260.3499 52.9449,-1246.0071 122.3894,-1246.0071 171.4941,-1260.3499"/>
<polygon fill="none" stroke="#000000" points="175.5018,-1257.3538 175.5018,-1283.6297 122.964,-1298.9752 52.3704,-1298.9752 -.1675,-1283.6297 -.1675,-1257.3538 52.3704,-1242.0083 122.964,-1242.0083 175.5018,-1257.3538"/>
<text text-anchor="middle" x="87.6672" y="-1263.2917" font-family="Times,serif" font-size="24.00" fill="#000000">algorithm</text>
</g>
<!-- algorithm&#45;&gt;runFunction -->
<g id="edge52" class="edge">
<title>algorithm&#45;&gt;runFunction</title>
<path fill="none" stroke="#000000" d="M175.604,-1270.4917C265.1511,-1270.4917 401.8166,-1270.4917 481.4387,-1270.4917"/>
<polygon fill="#000000" stroke="#000000" points="481.809,-1273.9918 491.8089,-1270.4917 481.8089,-1266.9918 481.809,-1273.9918"/>
</g>
<!-- unicode -->
<g id="node34" class="node">
<title>unicode</title>
<polygon fill="#98fb98" stroke="#000000" points="157.9587,-244.3499 157.9587,-264.6336 116.7829,-278.9764 58.5514,-278.9764 17.3756,-264.6336 17.3756,-244.3499 58.5514,-230.0071 116.7829,-230.0071 157.9587,-244.3499"/>
<polygon fill="none" stroke="#000000" points="161.953,-241.5072 161.953,-267.4763 117.4579,-282.9752 57.8764,-282.9752 13.3814,-267.4763 13.3814,-241.5072 57.8764,-226.0083 117.4579,-226.0083 161.953,-241.5072"/>
<text text-anchor="middle" x="87.6672" y="-247.2917" font-family="Times,serif" font-size="24.00" fill="#000000">unicode</text>
</g>
<!-- unicode&#45;&gt;unicodes -->
<g id="edge53" class="edge">
<title>unicode&#45;&gt;unicodes</title>
<path fill="none" stroke="#000000" d="M162.1882,-252.8628C255.2358,-250.8289 412.0115,-247.402 493.0927,-245.6297"/>
<polygon fill="#000000" stroke="#000000" points="493.6224,-249.119 503.5435,-245.4012 493.4693,-242.1207 493.6224,-249.119"/>
</g>
</g>
</svg>
