<?xml version="1.0" encoding="UTF-8" standalone="no"?>
<!DOCTYPE svg PUBLIC "-//W3C//DTD SVG 1.1//EN"
 "http://www.w3.org/Graphics/SVG/1.1/DTD/svg11.dtd">
<!-- Generated by graphviz version 7.0.1 (20221109.1506)
 -->
<!-- Title: statictea Pages: 1 -->
<svg width="639pt" height="1478pt"
 viewBox="0.00 0.00 638.77 1478.06" xmlns="http://www.w3.org/2000/svg" xmlns:xlink="http://www.w3.org/1999/xlink">
<g id="graph0" class="graph" transform="scale(1 1) rotate(0) translate(4 1474.06)">
<title>statictea</title>
<polygon fill="white" stroke="none" points="-4,4 -4,-1474.06 634.77,-1474.06 634.77,4 -4,4"/>
<!-- strutils -->
<g id="node1" class="node">
<title>strutils</title>
<ellipse fill="none" stroke="black" cx="88.19" cy="-789.02" rx="57.97" ry="24.08"/>
<text text-anchor="middle" x="88.19" y="-782.82" font-family="Times,serif" font-size="24.00">strutils</text>
</g>
<!-- statictea -->
<g id="node2" class="node">
<title>statictea</title>
<ellipse fill="none" stroke="black" cx="547.57" cy="-1185.02" rx="39.79" ry="18"/>
<text text-anchor="middle" x="547.57" y="-1181.32" font-family="Times,serif" font-size="14.00">statictea</text>
</g>
<!-- strutils&#45;&gt;statictea -->
<g id="edge1" class="edge">
<title>strutils&#45;&gt;statictea</title>
<path fill="none" stroke="black" d="M137.04,-802.27C150.46,-807.24 164.59,-813.75 176.38,-822.02 337.37,-935.02 300.92,-1048.63 464.38,-1158.02 474.99,-1165.12 487.61,-1170.48 499.74,-1174.48"/>
<polygon fill="black" stroke="black" points="498.64,-1177.8 509.22,-1177.34 500.66,-1171.1 498.64,-1177.8"/>
</g>
<!-- messages -->
<g id="node10" class="node">
<title>messages</title>
<ellipse fill="none" stroke="black" cx="547.57" cy="-1347.02" rx="44.39" ry="18"/>
<text text-anchor="middle" x="547.57" y="-1343.32" font-family="Times,serif" font-size="14.00">messages</text>
</g>
<!-- strutils&#45;&gt;messages -->
<g id="edge7" class="edge">
<title>strutils&#45;&gt;messages</title>
<path fill="none" stroke="black" d="M138.53,-801.09C151.83,-806.02 165.53,-812.8 176.38,-822.02 371.25,-987.55 265.88,-1158.87 464.38,-1320.02 473.39,-1327.34 484.44,-1332.69 495.49,-1336.61"/>
<polygon fill="black" stroke="black" points="494.43,-1339.94 505.02,-1339.61 496.53,-1333.27 494.43,-1339.94"/>
</g>
<!-- cmdline -->
<g id="node11" class="node">
<title>cmdline</title>
<ellipse fill="none" stroke="black" cx="547.57" cy="-969.02" rx="39.79" ry="18"/>
<text text-anchor="middle" x="547.57" y="-965.32" font-family="Times,serif" font-size="14.00">cmdline</text>
</g>
<!-- strutils&#45;&gt;cmdline -->
<g id="edge12" class="edge">
<title>strutils&#45;&gt;cmdline</title>
<path fill="none" stroke="black" d="M132.32,-805.02C146.4,-810.33 162.09,-816.34 176.38,-822.02 305.24,-873.24 334.41,-893.68 464.38,-942.02 476.9,-946.68 490.64,-951.36 503.25,-955.49"/>
<polygon fill="black" stroke="black" points="501.94,-958.74 512.53,-958.49 504.09,-952.08 501.94,-958.74"/>
</g>
<!-- matches -->
<g id="node12" class="node">
<title>matches</title>
<ellipse fill="none" stroke="black" cx="547.57" cy="-429.02" rx="40.09" ry="18"/>
<text text-anchor="middle" x="547.57" y="-425.32" font-family="Times,serif" font-size="14.00">matches</text>
</g>
<!-- strutils&#45;&gt;matches -->
<g id="edge13" class="edge">
<title>strutils&#45;&gt;matches</title>
<path fill="none" stroke="black" d="M108.74,-766.11C160.68,-706.57 308.83,-545.42 464.38,-456.02 475.45,-449.66 488.22,-444.55 500.36,-440.56"/>
<polygon fill="black" stroke="black" points="501.28,-443.93 509.8,-437.65 499.22,-437.25 501.28,-443.93"/>
</g>
<!-- processTemplate -->
<g id="node15" class="node">
<title>processTemplate</title>
<ellipse fill="none" stroke="black" cx="547.57" cy="-591.02" rx="70.39" ry="18"/>
<text text-anchor="middle" x="547.57" y="-587.32" font-family="Times,serif" font-size="14.00">processTemplate</text>
</g>
<!-- strutils&#45;&gt;processTemplate -->
<g id="edge20" class="edge">
<title>strutils&#45;&gt;processTemplate</title>
<path fill="none" stroke="black" d="M126.15,-770.53C192.77,-737.56 337.87,-667.46 464.38,-618.02 472.83,-614.72 481.88,-611.47 490.76,-608.44"/>
<polygon fill="black" stroke="black" points="491.66,-611.83 500.03,-605.33 489.44,-605.19 491.66,-611.83"/>
</g>
<!-- env -->
<g id="node17" class="node">
<title>env</title>
<ellipse fill="none" stroke="black" cx="547.57" cy="-1131.02" rx="27" ry="18"/>
<text text-anchor="middle" x="547.57" y="-1127.32" font-family="Times,serif" font-size="14.00">env</text>
</g>
<!-- strutils&#45;&gt;env -->
<g id="edge26" class="edge">
<title>strutils&#45;&gt;env</title>
<path fill="none" stroke="black" d="M136.14,-802.76C149.68,-807.78 164.1,-814.18 176.38,-822.02 327.36,-918.44 311.3,-1010.98 464.38,-1104.02 478.39,-1112.54 495.4,-1118.7 510.3,-1122.97"/>
<polygon fill="black" stroke="black" points="509.18,-1126.29 519.74,-1125.48 510.98,-1119.53 509.18,-1126.29"/>
</g>
<!-- tempFile -->
<g id="node19" class="node">
<title>tempFile</title>
<ellipse fill="none" stroke="black" cx="547.57" cy="-1077.02" rx="42.49" ry="18"/>
<text text-anchor="middle" x="547.57" y="-1073.32" font-family="Times,serif" font-size="14.00">tempFile</text>
</g>
<!-- strutils&#45;&gt;tempFile -->
<g id="edge29" class="edge">
<title>strutils&#45;&gt;tempFile</title>
<path fill="none" stroke="black" d="M135.19,-803.43C148.85,-808.49 163.57,-814.76 176.38,-822.02 318.4,-902.54 320.61,-972.68 464.38,-1050.02 475.32,-1055.91 487.77,-1060.81 499.61,-1064.74"/>
<polygon fill="black" stroke="black" points="498.21,-1067.97 508.8,-1067.64 500.31,-1061.3 498.21,-1067.97"/>
</g>
<!-- runCommand -->
<g id="node23" class="node">
<title>runCommand</title>
<ellipse fill="none" stroke="black" cx="547.57" cy="-807.02" rx="59.59" ry="18"/>
<text text-anchor="middle" x="547.57" y="-803.32" font-family="Times,serif" font-size="14.00">runCommand</text>
</g>
<!-- strutils&#45;&gt;runCommand -->
<g id="edge37" class="edge">
<title>strutils&#45;&gt;runCommand</title>
<path fill="none" stroke="black" d="M146.19,-791.27C230.02,-794.56 386.36,-800.72 476.88,-804.28"/>
<polygon fill="black" stroke="black" points="476.49,-807.77 486.62,-804.66 476.76,-800.77 476.49,-807.77"/>
</g>
<!-- vartypes -->
<g id="node24" class="node">
<title>vartypes</title>
<ellipse fill="none" stroke="black" cx="547.57" cy="-321.02" rx="40.09" ry="18"/>
<text text-anchor="middle" x="547.57" y="-317.32" font-family="Times,serif" font-size="14.00">vartypes</text>
</g>
<!-- strutils&#45;&gt;vartypes -->
<g id="edge42" class="edge">
<title>strutils&#45;&gt;vartypes</title>
<path fill="none" stroke="black" d="M107.57,-765.97C176.6,-679.63 418.7,-378.72 464.38,-348.02 474.98,-340.9 487.59,-335.54 499.73,-331.54"/>
<polygon fill="black" stroke="black" points="500.64,-334.92 509.21,-328.68 498.62,-328.22 500.64,-334.92"/>
</g>
<!-- variables -->
<g id="node25" class="node">
<title>variables</title>
<ellipse fill="none" stroke="black" cx="547.57" cy="-375.02" rx="42.49" ry="18"/>
<text text-anchor="middle" x="547.57" y="-371.32" font-family="Times,serif" font-size="14.00">variables</text>
</g>
<!-- strutils&#45;&gt;variables -->
<g id="edge44" class="edge">
<title>strutils&#45;&gt;variables</title>
<path fill="none" stroke="black" d="M108.64,-766.27C172.91,-691.53 379.2,-455.32 464.38,-402.02 474.7,-395.56 486.73,-390.49 498.35,-386.56"/>
<polygon fill="black" stroke="black" points="499.35,-389.92 507.85,-383.6 497.27,-383.24 499.35,-389.92"/>
</g>
<!-- functions -->
<g id="node26" class="node">
<title>functions</title>
<ellipse fill="none" stroke="black" cx="547.57" cy="-1239.02" rx="43.59" ry="18"/>
<text text-anchor="middle" x="547.57" y="-1235.32" font-family="Times,serif" font-size="14.00">functions</text>
</g>
<!-- strutils&#45;&gt;functions -->
<g id="edge49" class="edge">
<title>strutils&#45;&gt;functions</title>
<path fill="none" stroke="black" d="M137.89,-801.89C151.18,-806.84 165.03,-813.42 176.38,-822.02 348.14,-952.13 289.77,-1085.77 464.38,-1212.02 473.97,-1218.96 485.45,-1224.18 496.74,-1228.09"/>
<polygon fill="black" stroke="black" points="495.41,-1231.34 506,-1231 497.5,-1224.66 495.41,-1231.34"/>
</g>
<!-- unicodes -->
<g id="node32" class="node">
<title>unicodes</title>
<ellipse fill="none" stroke="black" cx="547.57" cy="-213.02" rx="42.49" ry="18"/>
<text text-anchor="middle" x="547.57" y="-209.32" font-family="Times,serif" font-size="14.00">unicodes</text>
</g>
<!-- strutils&#45;&gt;unicodes -->
<g id="edge56" class="edge">
<title>strutils&#45;&gt;unicodes</title>
<path fill="none" stroke="black" d="M108.14,-766.07C126.21,-743.92 153.91,-709.25 176.38,-678.02 312.46,-488.91 279.37,-381.62 464.38,-240.02 473.96,-232.69 485.62,-227.3 497.11,-223.36"/>
<polygon fill="black" stroke="black" points="498.03,-226.74 506.56,-220.45 495.97,-220.05 498.03,-226.74"/>
</g>
<!-- parseMarkdown -->
<g id="node36" class="node">
<title>parseMarkdown</title>
<ellipse fill="none" stroke="black" cx="547.57" cy="-753.02" rx="68.49" ry="18"/>
<text text-anchor="middle" x="547.57" y="-749.32" font-family="Times,serif" font-size="14.00">parseMarkdown</text>
</g>
<!-- strutils&#45;&gt;parseMarkdown -->
<g id="edge62" class="edge">
<title>strutils&#45;&gt;parseMarkdown</title>
<path fill="none" stroke="black" d="M145.27,-784.61C226.83,-778.19 378.39,-766.26 470.11,-759.04"/>
<polygon fill="black" stroke="black" points="470.34,-762.53 480.03,-758.26 469.79,-755.56 470.34,-762.53"/>
</g>
<!-- replacement -->
<g id="node37" class="node">
<title>replacement</title>
<ellipse fill="none" stroke="black" cx="547.57" cy="-861.02" rx="53.89" ry="18"/>
<text text-anchor="middle" x="547.57" y="-857.32" font-family="Times,serif" font-size="14.00">replacement</text>
</g>
<!-- strutils&#45;&gt;replacement -->
<g id="edge66" class="edge">
<title>strutils&#45;&gt;replacement</title>
<path fill="none" stroke="black" d="M143,-797.49C229.08,-811.04 397.16,-837.5 486.84,-851.62"/>
<polygon fill="black" stroke="black" points="486.25,-855.07 496.67,-853.17 487.34,-848.15 486.25,-855.07"/>
</g>
<!-- startingvars -->
<g id="node38" class="node">
<title>startingvars</title>
<ellipse fill="none" stroke="black" cx="547.57" cy="-1023.02" rx="51.99" ry="18"/>
<text text-anchor="middle" x="547.57" y="-1019.32" font-family="Times,serif" font-size="14.00">startingvars</text>
</g>
<!-- strutils&#45;&gt;startingvars -->
<g id="edge69" class="edge">
<title>strutils&#45;&gt;startingvars</title>
<path fill="none" stroke="black" d="M133.76,-804.11C147.64,-809.28 162.84,-815.44 176.38,-822.02 310.87,-887.43 328.47,-933.62 464.38,-996.02 474.21,-1000.53 485.01,-1004.64 495.46,-1008.22"/>
<polygon fill="black" stroke="black" points="494.13,-1011.47 504.72,-1011.28 496.32,-1004.82 494.13,-1011.47"/>
</g>
<!-- repl -->
<g id="node41" class="node">
<title>repl</title>
<ellipse fill="none" stroke="black" cx="547.57" cy="-267.02" rx="27" ry="18"/>
<text text-anchor="middle" x="547.57" y="-263.32" font-family="Times,serif" font-size="14.00">repl</text>
</g>
<!-- strutils&#45;&gt;repl -->
<g id="edge77" class="edge">
<title>strutils&#45;&gt;repl</title>
<path fill="none" stroke="black" d="M107.38,-766.18C125.12,-743.82 152.81,-708.74 176.38,-678.02 306.28,-508.8 291.04,-418.38 464.38,-294.02 477.8,-284.39 494.86,-278.06 509.95,-273.96"/>
<polygon fill="black" stroke="black" points="510.67,-277.38 519.55,-271.6 509,-270.59 510.67,-277.38"/>
</g>
<!-- options -->
<g id="node3" class="node">
<title>options</title>
<ellipse fill="none" stroke="black" cx="88.19" cy="-531.02" rx="61.54" ry="24.08"/>
<text text-anchor="middle" x="88.19" y="-524.82" font-family="Times,serif" font-size="24.00">options</text>
</g>
<!-- parseCommandLine -->
<g id="node4" class="node">
<title>parseCommandLine</title>
<ellipse fill="none" stroke="black" cx="547.57" cy="-645.02" rx="83.39" ry="18"/>
<text text-anchor="middle" x="547.57" y="-641.32" font-family="Times,serif" font-size="14.00">parseCommandLine</text>
</g>
<!-- options&#45;&gt;parseCommandLine -->
<g id="edge2" class="edge">
<title>options&#45;&gt;parseCommandLine</title>
<path fill="none" stroke="black" d="M140.77,-543.88C224.2,-564.67 388.66,-605.66 480.53,-628.56"/>
<polygon fill="black" stroke="black" points="479.62,-631.94 490.17,-630.96 481.31,-625.15 479.62,-631.94"/>
</g>
<!-- options&#45;&gt;matches -->
<g id="edge14" class="edge">
<title>options&#45;&gt;matches</title>
<path fill="none" stroke="black" d="M142.1,-519.22C232.26,-499.12 414.18,-458.55 499.89,-439.43"/>
<polygon fill="black" stroke="black" points="500.61,-442.86 509.6,-437.27 499.08,-436.03 500.61,-442.86"/>
</g>
<!-- regexes -->
<g id="node14" class="node">
<title>regexes</title>
<ellipse fill="none" stroke="black" cx="547.57" cy="-105.02" rx="37.89" ry="18"/>
<text text-anchor="middle" x="547.57" y="-101.32" font-family="Times,serif" font-size="14.00">regexes</text>
</g>
<!-- options&#45;&gt;regexes -->
<g id="edge16" class="edge">
<title>options&#45;&gt;regexes</title>
<path fill="none" stroke="black" d="M104.86,-507.39C151.37,-439.04 295.92,-239.23 464.38,-132.02 475.65,-124.85 489.01,-119.4 501.65,-115.35"/>
<polygon fill="black" stroke="black" points="502.45,-118.76 511.05,-112.56 500.47,-112.05 502.45,-118.76"/>
</g>
<!-- options&#45;&gt;processTemplate -->
<g id="edge18" class="edge">
<title>options&#45;&gt;processTemplate</title>
<path fill="none" stroke="black" d="M147.12,-538.62C229.99,-549.49 382.37,-569.48 473.08,-581.38"/>
<polygon fill="black" stroke="black" points="472.5,-584.84 482.87,-582.67 473.41,-577.89 472.5,-584.84"/>
</g>
<!-- options&#45;&gt;env -->
<g id="edge25" class="edge">
<title>options&#45;&gt;env</title>
<path fill="none" stroke="black" d="M116.32,-552.61C134.6,-567.98 158.54,-589.78 176.38,-612.02 334.89,-809.69 267.25,-944.84 464.38,-1104.02 477.32,-1114.47 494.45,-1120.94 509.72,-1124.9"/>
<polygon fill="black" stroke="black" points="508.94,-1128.31 519.46,-1127.14 510.5,-1121.49 508.94,-1128.31"/>
</g>
<!-- options&#45;&gt;tempFile -->
<g id="edge30" class="edge">
<title>options&#45;&gt;tempFile</title>
<path fill="none" stroke="black" d="M115.95,-552.91C134.07,-568.41 157.97,-590.25 176.38,-612.02 326.81,-789.93 279.37,-908.42 464.38,-1050.02 473.96,-1057.36 485.62,-1062.74 497.11,-1066.69"/>
<polygon fill="black" stroke="black" points="495.97,-1070 506.56,-1069.6 498.03,-1063.31 495.97,-1070"/>
</g>
<!-- linebuffer -->
<g id="node21" class="node">
<title>linebuffer</title>
<ellipse fill="none" stroke="black" cx="547.57" cy="-483.02" rx="45.49" ry="18"/>
<text text-anchor="middle" x="547.57" y="-479.32" font-family="Times,serif" font-size="14.00">linebuffer</text>
</g>
<!-- options&#45;&gt;linebuffer -->
<g id="edge33" class="edge">
<title>options&#45;&gt;linebuffer</title>
<path fill="none" stroke="black" d="M148.05,-524.85C237.2,-515.49 405.25,-497.85 491.87,-488.76"/>
<polygon fill="black" stroke="black" points="492.2,-492.25 501.78,-487.72 491.47,-485.29 492.2,-492.25"/>
</g>
<!-- parseCmdLine -->
<g id="node22" class="node">
<title>parseCmdLine</title>
<ellipse fill="none" stroke="black" cx="547.57" cy="-159.02" rx="63.09" ry="18"/>
<text text-anchor="middle" x="547.57" y="-155.32" font-family="Times,serif" font-size="14.00">parseCmdLine</text>
</g>
<!-- options&#45;&gt;parseCmdLine -->
<g id="edge34" class="edge">
<title>options&#45;&gt;parseCmdLine</title>
<path fill="none" stroke="black" d="M107.8,-508.13C158.59,-447.07 306.38,-278.69 464.38,-186.02 471.77,-181.69 479.94,-177.95 488.18,-174.75"/>
<polygon fill="black" stroke="black" points="489.36,-178.05 497.58,-171.36 486.98,-171.46 489.36,-178.05"/>
</g>
<!-- options&#45;&gt;runCommand -->
<g id="edge36" class="edge">
<title>options&#45;&gt;runCommand</title>
<path fill="none" stroke="black" d="M116.34,-552.81C176.08,-599.89 324.76,-712.29 464.38,-780.02 473.03,-784.22 482.48,-788 491.8,-791.32"/>
<polygon fill="black" stroke="black" points="490.6,-794.6 501.2,-794.51 492.85,-787.98 490.6,-794.6"/>
</g>
<!-- options&#45;&gt;vartypes -->
<g id="edge43" class="edge">
<title>options&#45;&gt;vartypes</title>
<path fill="none" stroke="black" d="M125.18,-511.41C191.16,-475.93 336.46,-399.95 464.38,-348.02 476.65,-343.04 490.22,-338.29 502.74,-334.2"/>
<polygon fill="black" stroke="black" points="503.51,-337.63 511.96,-331.25 501.37,-330.96 503.51,-337.63"/>
</g>
<!-- options&#45;&gt;variables -->
<g id="edge45" class="edge">
<title>options&#45;&gt;variables</title>
<path fill="none" stroke="black" d="M135.04,-515.03C205.67,-490.45 345.39,-442.02 464.38,-402.02 476.59,-397.92 489.84,-393.53 502.07,-389.52"/>
<polygon fill="black" stroke="black" points="503.1,-392.86 511.51,-386.42 500.92,-386.21 503.1,-392.86"/>
</g>
<!-- options&#45;&gt;functions -->
<g id="edge47" class="edge">
<title>options&#45;&gt;functions</title>
<path fill="none" stroke="black" d="M117.31,-552.48C135.8,-567.64 159.59,-589.23 176.38,-612.02 351.81,-850.18 242.06,-1016.91 464.38,-1212.02 473.28,-1219.83 484.49,-1225.39 495.74,-1229.35"/>
<polygon fill="black" stroke="black" points="494.44,-1232.61 505.02,-1232.22 496.51,-1225.92 494.44,-1232.61"/>
</g>
<!-- parseNumber -->
<g id="node29" class="node">
<title>parseNumber</title>
<ellipse fill="none" stroke="black" cx="547.57" cy="-41.02" rx="58.49" ry="18"/>
<text text-anchor="middle" x="547.57" y="-37.32" font-family="Times,serif" font-size="14.00">parseNumber</text>
</g>
<!-- options&#45;&gt;parseNumber -->
<g id="edge53" class="edge">
<title>options&#45;&gt;parseNumber</title>
<path fill="none" stroke="black" d="M103.21,-507.36C147.54,-434.31 291.97,-209.37 464.38,-78.02 474.2,-70.54 485.77,-64.16 497.07,-58.91"/>
<polygon fill="black" stroke="black" points="498.2,-62.24 505.94,-55.02 495.38,-55.83 498.2,-62.24"/>
</g>
<!-- options&#45;&gt;replacement -->
<g id="edge63" class="edge">
<title>options&#45;&gt;replacement</title>
<path fill="none" stroke="black" d="M114.2,-553.23C185.13,-615.87 387.35,-792.1 464.38,-834.02 473.39,-838.93 483.44,-843.13 493.34,-846.67"/>
<polygon fill="black" stroke="black" points="491.93,-849.89 502.53,-849.76 494.17,-843.26 491.93,-849.89"/>
</g>
<!-- updateTemplate -->
<g id="node39" class="node">
<title>updateTemplate</title>
<ellipse fill="none" stroke="black" cx="547.57" cy="-699.02" rx="67.69" ry="18"/>
<text text-anchor="middle" x="547.57" y="-695.32" font-family="Times,serif" font-size="14.00">updateTemplate</text>
</g>
<!-- options&#45;&gt;updateTemplate -->
<g id="edge72" class="edge">
<title>options&#45;&gt;updateTemplate</title>
<path fill="none" stroke="black" d="M132.59,-548.01C202.24,-575.12 343.44,-629.46 464.38,-672.02 473.34,-675.18 482.89,-678.42 492.19,-681.52"/>
<polygon fill="black" stroke="black" points="490.92,-684.78 501.51,-684.6 493.11,-678.13 490.92,-684.78"/>
</g>
<!-- options&#45;&gt;repl -->
<g id="edge76" class="edge">
<title>options&#45;&gt;repl</title>
<path fill="none" stroke="black" d="M117.45,-509.71C178.16,-464.73 326.74,-358.89 464.38,-294.02 479.21,-287.03 496.34,-281.09 511.11,-276.58"/>
<polygon fill="black" stroke="black" points="511.81,-280.02 520.42,-273.84 509.84,-273.31 511.81,-280.02"/>
</g>
<!-- tables -->
<g id="node5" class="node">
<title>tables</title>
<ellipse fill="none" stroke="black" cx="88.19" cy="-645.02" rx="50.82" ry="24.08"/>
<text text-anchor="middle" x="88.19" y="-638.82" font-family="Times,serif" font-size="24.00">tables</text>
</g>
<!-- tables&#45;&gt;parseCommandLine -->
<g id="edge3" class="edge">
<title>tables&#45;&gt;parseCommandLine</title>
<path fill="none" stroke="black" d="M139.45,-645.02C214.6,-645.02 357.55,-645.02 452.48,-645.02"/>
<polygon fill="black" stroke="black" points="452.29,-648.52 462.29,-645.02 452.29,-641.52 452.29,-648.52"/>
</g>
<!-- args -->
<g id="node8" class="node">
<title>args</title>
<ellipse fill="none" stroke="black" cx="547.57" cy="-915.02" rx="27" ry="18"/>
<text text-anchor="middle" x="547.57" y="-911.32" font-family="Times,serif" font-size="14.00">args</text>
</g>
<!-- tables&#45;&gt;args -->
<g id="edge9" class="edge">
<title>tables&#45;&gt;args</title>
<path fill="none" stroke="black" d="M115.54,-665.55C174.87,-710.96 324.71,-821.23 464.38,-888.02 479.17,-895.1 496.3,-901.05 511.07,-905.55"/>
<polygon fill="black" stroke="black" points="509.8,-908.82 520.39,-908.27 511.77,-902.1 509.8,-908.82"/>
</g>
<!-- tables&#45;&gt;cmdline -->
<g id="edge11" class="edge">
<title>tables&#45;&gt;cmdline</title>
<path fill="none" stroke="black" d="M110.87,-666.87C165.5,-720.81 315.13,-861.74 464.38,-942.02 475.72,-948.12 488.69,-953.17 500.92,-957.18"/>
<polygon fill="black" stroke="black" points="499.84,-960.51 510.43,-960.12 501.91,-953.82 499.84,-960.51"/>
</g>
<!-- tables&#45;&gt;regexes -->
<g id="edge17" class="edge">
<title>tables&#45;&gt;regexes</title>
<path fill="none" stroke="black" d="M114.74,-624.1C132.97,-608.53 157.5,-586.21 176.38,-564.02 325.93,-388.29 280.69,-271.69 464.38,-132.02 475.02,-123.94 488.18,-118.21 500.84,-114.18"/>
<polygon fill="black" stroke="black" points="501.64,-117.59 510.3,-111.47 499.72,-110.86 501.64,-117.59"/>
</g>
<!-- tables&#45;&gt;processTemplate -->
<g id="edge19" class="edge">
<title>tables&#45;&gt;processTemplate</title>
<path fill="none" stroke="black" d="M137.71,-639.29C217.57,-629.87 377.28,-611.01 471.72,-599.86"/>
<polygon fill="black" stroke="black" points="471.88,-603.37 481.4,-598.72 471.06,-596.41 471.88,-603.37"/>
</g>
<!-- tables&#45;&gt;parseCmdLine -->
<g id="edge35" class="edge">
<title>tables&#45;&gt;parseCmdLine</title>
<path fill="none" stroke="black" d="M113.94,-624.07C132,-608.3 156.67,-585.75 176.38,-564.02 318.27,-407.57 292.31,-308.49 464.38,-186.02 471.03,-181.29 478.55,-177.35 486.29,-174.08"/>
<polygon fill="black" stroke="black" points="487.39,-177.41 495.48,-170.57 484.89,-170.87 487.39,-177.41"/>
</g>
<!-- tables&#45;&gt;runCommand -->
<g id="edge38" class="edge">
<title>tables&#45;&gt;runCommand</title>
<path fill="none" stroke="black" d="M129.04,-659.78C197.43,-685 341.65,-737.79 464.38,-780.02 474.29,-783.43 484.9,-786.99 495.1,-790.36"/>
<polygon fill="black" stroke="black" points="493.92,-793.65 504.51,-793.45 496.1,-787 493.92,-793.65"/>
</g>
<!-- tables&#45;&gt;vartypes -->
<g id="edge41" class="edge">
<title>tables&#45;&gt;vartypes</title>
<path fill="none" stroke="black" d="M113.74,-623.7C184.3,-562.73 387.56,-389.34 464.38,-348.02 475.72,-341.92 488.69,-336.88 500.92,-332.87"/>
<polygon fill="black" stroke="black" points="501.91,-336.23 510.43,-329.92 499.84,-329.54 501.91,-336.23"/>
</g>
<!-- tables&#45;&gt;variables -->
<g id="edge46" class="edge">
<title>tables&#45;&gt;variables</title>
<path fill="none" stroke="black" d="M115.54,-624.5C174.87,-579.08 324.71,-468.82 464.38,-402.02 475.69,-396.61 488.36,-391.86 500.3,-387.92"/>
<polygon fill="black" stroke="black" points="501.09,-391.34 509.56,-384.98 498.97,-384.67 501.09,-391.34"/>
</g>
<!-- tables&#45;&gt;functions -->
<g id="edge48" class="edge">
<title>tables&#45;&gt;functions</title>
<path fill="none" stroke="black" d="M107.92,-667.46C126.08,-689.52 154.06,-724.39 176.38,-756.02 314.6,-951.86 275.38,-1064.6 464.38,-1212.02 473.71,-1219.3 485.09,-1224.66 496.37,-1228.59"/>
<polygon fill="black" stroke="black" points="495.05,-1231.84 505.64,-1231.48 497.13,-1225.16 495.05,-1231.84"/>
</g>
<!-- signatures -->
<g id="node33" class="node">
<title>signatures</title>
<ellipse fill="none" stroke="black" cx="547.57" cy="-537.02" rx="46.29" ry="18"/>
<text text-anchor="middle" x="547.57" y="-533.32" font-family="Times,serif" font-size="14.00">signatures</text>
</g>
<!-- tables&#45;&gt;signatures -->
<g id="edge57" class="edge">
<title>tables&#45;&gt;signatures</title>
<path fill="none" stroke="black" d="M134.3,-634.37C220.21,-614.09 406.73,-570.04 496.42,-548.87"/>
<polygon fill="black" stroke="black" points="496.98,-552.33 505.91,-546.62 495.37,-545.52 496.98,-552.33"/>
</g>
<!-- readjson -->
<g id="node34" class="node">
<title>readjson</title>
<ellipse fill="none" stroke="black" cx="547.57" cy="-1293.02" rx="40.09" ry="18"/>
<text text-anchor="middle" x="547.57" y="-1289.32" font-family="Times,serif" font-size="14.00">readjson</text>
</g>
<!-- tables&#45;&gt;readjson -->
<g id="edge61" class="edge">
<title>tables&#45;&gt;readjson</title>
<path fill="none" stroke="black" d="M108.27,-667.22C126.68,-689.11 154.84,-723.85 176.38,-756.02 321.2,-972.33 263.13,-1100.92 464.38,-1266.02 474.16,-1274.05 486.4,-1279.71 498.42,-1283.7"/>
<polygon fill="black" stroke="black" points="497.3,-1287.02 507.88,-1286.49 499.28,-1280.31 497.3,-1287.02"/>
</g>
<!-- tables&#45;&gt;startingvars -->
<g id="edge68" class="edge">
<title>tables&#45;&gt;startingvars</title>
<path fill="none" stroke="black" d="M106.98,-667.44C156.83,-728.85 304.75,-901.47 464.38,-996.02 473.3,-1001.31 483.39,-1005.7 493.36,-1009.31"/>
<polygon fill="black" stroke="black" points="492.05,-1012.56 502.65,-1012.43 494.28,-1005.93 492.05,-1012.56"/>
</g>
<!-- tables&#45;&gt;updateTemplate -->
<g id="edge73" class="edge">
<title>tables&#45;&gt;updateTemplate</title>
<path fill="none" stroke="black" d="M137.71,-650.75C218.15,-660.25 379.6,-679.31 473.77,-690.43"/>
<polygon fill="black" stroke="black" points="473.35,-693.9 483.69,-691.6 474.17,-686.95 473.35,-693.9"/>
</g>
<!-- tables&#45;&gt;repl -->
<g id="edge75" class="edge">
<title>tables&#45;&gt;repl</title>
<path fill="none" stroke="black" d="M112.53,-623.39C130.11,-607.09 154.78,-584.18 176.38,-564.02 304.65,-444.31 313.47,-383.52 464.38,-294.02 478.48,-285.66 495.51,-279.52 510.39,-275.23"/>
<polygon fill="black" stroke="black" points="511.07,-278.67 519.82,-272.69 509.25,-271.91 511.07,-278.67"/>
</g>
<!-- os -->
<g id="node6" class="node">
<title>os</title>
<ellipse fill="none" stroke="black" cx="88.19" cy="-1002.02" rx="27" ry="24.08"/>
<text text-anchor="middle" x="88.19" y="-995.82" font-family="Times,serif" font-size="24.00">os</text>
</g>
<!-- os&#45;&gt;statictea -->
<g id="edge82" class="edge">
<title>os&#45;&gt;statictea</title>
<path fill="none" stroke="black" d="M113.73,-1011C131.26,-1017.48 155.36,-1026.56 176.38,-1035.02 305.5,-1087 334.14,-1108.92 464.38,-1158.02 476.88,-1162.74 490.62,-1167.43 503.22,-1171.56"/>
<polygon fill="black" stroke="black" points="501.91,-1174.81 512.51,-1174.55 504.07,-1168.15 501.91,-1174.81"/>
</g>
<!-- os&#45;&gt;parseCommandLine -->
<g id="edge4" class="edge">
<title>os&#45;&gt;parseCommandLine</title>
<path fill="none" stroke="black" d="M112.81,-991.2C130.97,-982.38 156.27,-968.97 176.38,-954.02 320.17,-847.17 311.3,-765.07 464.38,-672.02 469.89,-668.67 475.86,-665.69 481.99,-663.04"/>
<polygon fill="black" stroke="black" points="482.99,-666.41 490.98,-659.46 480.39,-659.91 482.99,-666.41"/>
</g>
<!-- os&#45;&gt;cmdline -->
<g id="edge10" class="edge">
<title>os&#45;&gt;cmdline</title>
<path fill="none" stroke="black" d="M115.42,-1000.13C189.3,-994.8 399.97,-979.6 496.8,-972.61"/>
<polygon fill="black" stroke="black" points="496.79,-976.12 506.52,-971.91 496.29,-969.14 496.79,-976.12"/>
</g>
<!-- os&#45;&gt;env -->
<g id="edge23" class="edge">
<title>os&#45;&gt;env</title>
<path fill="none" stroke="black" d="M114.43,-1009.14C191.31,-1030.82 422.71,-1096.09 511.43,-1121.11"/>
<polygon fill="black" stroke="black" points="510.21,-1124.4 520.79,-1123.75 512.11,-1117.67 510.21,-1124.4"/>
</g>
<!-- os&#45;&gt;tempFile -->
<g id="edge27" class="edge">
<title>os&#45;&gt;tempFile</title>
<path fill="none" stroke="black" d="M115.09,-1006.27C188.55,-1018.31 399.16,-1052.85 496.33,-1068.78"/>
<polygon fill="black" stroke="black" points="495.68,-1072.22 506.11,-1070.39 496.81,-1065.32 495.68,-1072.22"/>
</g>
<!-- os&#45;&gt;runCommand -->
<g id="edge39" class="edge">
<title>os&#45;&gt;runCommand</title>
<path fill="none" stroke="black" d="M112.11,-990.76C170.2,-962.42 328.27,-886.69 464.38,-834.02 473.95,-830.32 484.26,-826.67 494.24,-823.31"/>
<polygon fill="black" stroke="black" points="495.05,-826.73 503.45,-820.27 492.86,-820.08 495.05,-826.73"/>
</g>
<!-- os&#45;&gt;functions -->
<g id="edge51" class="edge">
<title>os&#45;&gt;functions</title>
<path fill="none" stroke="black" d="M114.14,-1010.06C131.87,-1016.1 156.04,-1025.04 176.38,-1035.02 311.24,-1101.24 328.08,-1148.81 464.38,-1212.02 475.65,-1217.25 488.21,-1221.91 500.06,-1225.84"/>
<polygon fill="black" stroke="black" points="498.65,-1229.06 509.24,-1228.77 500.77,-1222.39 498.65,-1229.06"/>
</g>
<!-- os&#45;&gt;readjson -->
<g id="edge59" class="edge">
<title>os&#45;&gt;readjson</title>
<path fill="none" stroke="black" d="M114.17,-1009.17C132.13,-1014.84 156.56,-1023.7 176.38,-1035.02 318.87,-1116.4 320.12,-1187.83 464.38,-1266.02 475.7,-1272.16 488.66,-1277.22 500.89,-1281.22"/>
<polygon fill="black" stroke="black" points="499.82,-1284.56 510.4,-1284.17 501.88,-1277.87 499.82,-1284.56"/>
</g>
<!-- os&#45;&gt;startingvars -->
<g id="edge67" class="edge">
<title>os&#45;&gt;startingvars</title>
<path fill="none" stroke="black" d="M115.42,-1003.23C186.25,-1006.48 382.82,-1015.5 484.25,-1020.16"/>
<polygon fill="black" stroke="black" points="483.88,-1023.65 494.03,-1020.61 484.2,-1016.65 483.88,-1023.65"/>
</g>
<!-- os&#45;&gt;updateTemplate -->
<g id="edge71" class="edge">
<title>os&#45;&gt;updateTemplate</title>
<path fill="none" stroke="black" d="M112.38,-990.6C130.31,-981.45 155.51,-967.89 176.38,-954.02 312.36,-863.68 320.61,-803.36 464.38,-726.02 471.74,-722.06 479.78,-718.55 487.86,-715.48"/>
<polygon fill="black" stroke="black" points="488.79,-718.86 497.02,-712.2 486.43,-712.27 488.79,-718.86"/>
</g>
<!-- strformat -->
<g id="node7" class="node">
<title>strformat</title>
<ellipse fill="none" stroke="black" cx="88.19" cy="-921.02" rx="74.49" ry="24.08"/>
<text text-anchor="middle" x="88.19" y="-914.82" font-family="Times,serif" font-size="24.00">strformat</text>
</g>
<!-- strformat&#45;&gt;args -->
<g id="edge5" class="edge">
<title>strformat&#45;&gt;args</title>
<path fill="none" stroke="black" d="M162.93,-920.06C261.75,-918.76 433.43,-916.51 509.02,-915.52"/>
<polygon fill="black" stroke="black" points="508.83,-919.02 518.79,-915.39 508.74,-912.02 508.83,-919.02"/>
</g>
<!-- strformat&#45;&gt;messages -->
<g id="edge8" class="edge">
<title>strformat&#45;&gt;messages</title>
<path fill="none" stroke="black" d="M132.5,-940.7C147.2,-948.43 163.22,-958.09 176.38,-969.02 331.57,-1098.01 297.9,-1205.99 464.38,-1320.02 473.95,-1326.58 485.23,-1331.64 496.32,-1335.5"/>
<polygon fill="black" stroke="black" points="495.23,-1338.83 505.82,-1338.53 497.36,-1332.16 495.23,-1338.83"/>
</g>
<!-- strformat&#45;&gt;replacement -->
<g id="edge65" class="edge">
<title>strformat&#45;&gt;replacement</title>
<path fill="none" stroke="black" d="M157.67,-912.04C246.53,-900.38 400.27,-880.21 485.41,-869.05"/>
<polygon fill="black" stroke="black" points="485.74,-872.53 495.2,-867.76 484.83,-865.59 485.74,-872.53"/>
</g>
<!-- strformat&#45;&gt;repl -->
<g id="edge78" class="edge">
<title>strformat&#45;&gt;repl</title>
<path fill="none" stroke="black" d="M147.15,-906.18C157.71,-901.6 168.02,-895.67 176.38,-888.02 392.93,-690.06 243.49,-487.12 464.38,-294.02 477.03,-282.97 494.32,-276.42 509.77,-272.55"/>
<polygon fill="black" stroke="black" points="510.11,-276.06 519.13,-270.5 508.62,-269.22 510.11,-276.06"/>
</g>
<!-- macros -->
<g id="node9" class="node">
<title>macros</title>
<polygon fill="palegreen" stroke="black" points="153.84,-1363.24 153.84,-1384.81 115.39,-1400.06 61,-1400.06 22.54,-1384.81 22.54,-1363.24 61,-1347.98 115.39,-1347.98 153.84,-1363.24"/>
<polygon fill="none" stroke="black" points="157.83,-1360.51 157.83,-1387.53 116.15,-1404.07 60.24,-1404.07 18.55,-1387.53 18.55,-1360.51 60.24,-1343.98 116.15,-1343.98 157.83,-1360.51"/>
<text text-anchor="middle" x="88.19" y="-1367.82" font-family="Times,serif" font-size="24.00">macros</text>
</g>
<!-- macros&#45;&gt;messages -->
<g id="edge6" class="edge">
<title>macros&#45;&gt;messages</title>
<path fill="none" stroke="black" d="M158.16,-1369.95C249.45,-1364.56 408.55,-1355.17 491.98,-1350.25"/>
<polygon fill="black" stroke="black" points="491.94,-1353.75 501.72,-1349.67 491.53,-1346.77 491.94,-1353.75"/>
</g>
<!-- re -->
<g id="node13" class="node">
<title>re</title>
<polygon fill="palegreen" stroke="black" points="115.19,-97.24 115.19,-118.81 99.37,-134.06 77.01,-134.06 61.19,-118.81 61.19,-97.24 77.01,-81.98 99.37,-81.98 115.19,-97.24"/>
<polygon fill="none" stroke="black" points="119.19,-95.53 119.19,-120.51 100.99,-138.07 75.39,-138.07 57.19,-120.51 57.19,-95.53 75.39,-77.98 100.99,-77.98 119.19,-95.53"/>
<text text-anchor="middle" x="88.19" y="-101.82" font-family="Times,serif" font-size="24.00">re</text>
</g>
<!-- re&#45;&gt;regexes -->
<g id="edge15" class="edge">
<title>re&#45;&gt;regexes</title>
<path fill="none" stroke="black" d="M119.55,-107.82C197.14,-107.31 403.2,-105.96 497.82,-105.34"/>
<polygon fill="black" stroke="black" points="497.84,-108.84 507.82,-105.28 497.8,-101.84 497.84,-108.84"/>
</g>
<!-- streams -->
<g id="node16" class="node">
<title>streams</title>
<ellipse fill="none" stroke="black" cx="88.19" cy="-855.02" rx="62.87" ry="24.08"/>
<text text-anchor="middle" x="88.19" y="-848.82" font-family="Times,serif" font-size="24.00">streams</text>
</g>
<!-- streams&#45;&gt;processTemplate -->
<g id="edge21" class="edge">
<title>streams&#45;&gt;processTemplate</title>
<path fill="none" stroke="black" d="M136.76,-839.51C149.9,-834.57 163.95,-828.64 176.38,-822.02 314.85,-748.33 324.31,-688.62 464.38,-618.02 471.67,-614.35 479.56,-611.02 487.47,-608.06"/>
<polygon fill="black" stroke="black" points="488.55,-611.39 496.8,-604.74 486.21,-604.79 488.55,-611.39"/>
</g>
<!-- streams&#45;&gt;env -->
<g id="edge22" class="edge">
<title>streams&#45;&gt;env</title>
<path fill="none" stroke="black" d="M137.34,-870.48C150.34,-875.39 164.18,-881.32 176.38,-888.02 316.59,-965.1 322.49,-1030.07 464.38,-1104.02 478.92,-1111.6 496.01,-1117.63 510.82,-1122.04"/>
<polygon fill="black" stroke="black" points="509.6,-1125.34 520.18,-1124.7 511.51,-1118.6 509.6,-1125.34"/>
</g>
<!-- streams&#45;&gt;tempFile -->
<g id="edge31" class="edge">
<title>streams&#45;&gt;tempFile</title>
<path fill="none" stroke="black" d="M135.43,-871.05C148.82,-876.08 163.33,-881.92 176.38,-888.02 309.43,-950.19 329.98,-990.82 464.38,-1050.02 475.96,-1055.12 488.81,-1059.79 500.85,-1063.75"/>
<polygon fill="black" stroke="black" points="499.59,-1067.02 510.18,-1066.73 501.72,-1060.36 499.59,-1067.02"/>
</g>
<!-- streams&#45;&gt;linebuffer -->
<g id="edge32" class="edge">
<title>streams&#45;&gt;linebuffer</title>
<path fill="none" stroke="black" d="M139.12,-840.65C151.85,-835.79 165.11,-829.63 176.38,-822.02 332.81,-716.47 305.64,-612.08 464.38,-510.02 474.05,-503.81 485.27,-498.9 496.27,-495.07"/>
<polygon fill="black" stroke="black" points="497.22,-498.43 505.68,-492.05 495.09,-491.77 497.22,-498.43"/>
</g>
<!-- streams&#45;&gt;runCommand -->
<g id="edge40" class="edge">
<title>streams&#45;&gt;runCommand</title>
<path fill="none" stroke="black" d="M148.99,-848.75C234.24,-839.8 390.24,-823.43 479.38,-814.07"/>
<polygon fill="black" stroke="black" points="479.62,-817.57 489.2,-813.04 478.89,-810.61 479.62,-817.57"/>
</g>
<!-- streams&#45;&gt;readjson -->
<g id="edge58" class="edge">
<title>streams&#45;&gt;readjson</title>
<path fill="none" stroke="black" d="M140.07,-868.86C152.66,-873.7 165.61,-879.99 176.38,-888.02 345.69,-1014.28 292.31,-1143.55 464.38,-1266.02 474.69,-1273.36 487.11,-1278.79 499.14,-1282.77"/>
<polygon fill="black" stroke="black" points="497.97,-1286.08 508.55,-1285.61 499.98,-1279.37 497.97,-1286.08"/>
</g>
<!-- streams&#45;&gt;replacement -->
<g id="edge64" class="edge">
<title>streams&#45;&gt;replacement</title>
<path fill="none" stroke="black" d="M151.35,-855.84C237.96,-856.97 394.16,-859.02 482.03,-860.18"/>
<polygon fill="black" stroke="black" points="481.88,-863.67 491.92,-860.31 481.97,-856.67 481.88,-863.67"/>
</g>
<!-- streams&#45;&gt;updateTemplate -->
<g id="edge70" class="edge">
<title>streams&#45;&gt;updateTemplate</title>
<path fill="none" stroke="black" d="M135.62,-838.83C206.43,-814.18 345.72,-765.91 464.38,-726.02 473.49,-722.96 483.18,-719.74 492.59,-716.64"/>
<polygon fill="black" stroke="black" points="493.61,-719.99 502.01,-713.54 491.42,-713.34 493.61,-719.99"/>
</g>
<!-- times -->
<g id="node18" class="node">
<title>times</title>
<ellipse fill="none" stroke="red" cx="88.19" cy="-1146.02" rx="48.17" ry="24.08"/>
<text text-anchor="middle" x="88.19" y="-1139.82" font-family="Times,serif" font-size="24.00">times</text>
</g>
<!-- times&#45;&gt;env -->
<g id="edge24" class="edge">
<title>times&#45;&gt;env</title>
<path fill="none" stroke="red" d="M136.42,-1144.47C227.57,-1141.48 426.06,-1134.97 508.99,-1132.26"/>
<polygon fill="red" stroke="red" points="508.97,-1135.76 518.85,-1131.93 508.74,-1128.76 508.97,-1135.76"/>
</g>
<!-- timer -->
<g id="node43" class="node">
<title>timer</title>
<ellipse fill="none" stroke="black" cx="547.57" cy="-1424.02" rx="29.8" ry="18"/>
<text text-anchor="middle" x="547.57" y="-1420.32" font-family="Times,serif" font-size="14.00">timer</text>
</g>
<!-- times&#45;&gt;timer -->
<g id="edge80" class="edge">
<title>times&#45;&gt;timer</title>
<path fill="none" stroke="red" d="M129.1,-1158.91C144.25,-1164.37 161.44,-1171.27 176.38,-1179.02 313.6,-1250.2 334.31,-1290.5 464.38,-1374.02 481.21,-1384.83 500.29,-1396.47 515.82,-1405.8"/>
<polygon fill="red" stroke="red" points="513.78,-1408.65 524.16,-1410.78 517.37,-1402.65 513.78,-1408.65"/>
</g>
<!-- random -->
<g id="node20" class="node">
<title>random</title>
<polygon fill="palegreen" stroke="black" points="156.96,-1063.24 156.96,-1084.81 116.68,-1100.06 59.7,-1100.06 19.42,-1084.81 19.42,-1063.24 59.7,-1047.98 116.68,-1047.98 156.96,-1063.24"/>
<polygon fill="none" stroke="black" points="160.96,-1060.47 160.96,-1087.58 117.41,-1104.07 58.97,-1104.07 15.42,-1087.58 15.42,-1060.47 58.97,-1043.98 117.41,-1043.98 160.96,-1060.47"/>
<text text-anchor="middle" x="88.19" y="-1067.82" font-family="Times,serif" font-size="24.00">random</text>
</g>
<!-- random&#45;&gt;tempFile -->
<g id="edge28" class="edge">
<title>random&#45;&gt;tempFile</title>
<path fill="none" stroke="black" d="M161.41,-1074.5C253.76,-1075.1 411.51,-1076.14 493.53,-1076.67"/>
<polygon fill="black" stroke="black" points="493.29,-1080.17 503.31,-1076.74 493.33,-1073.17 493.29,-1080.17"/>
</g>
<!-- math -->
<g id="node27" class="node">
<title>math</title>
<ellipse fill="none" stroke="red" cx="88.19" cy="-1446.02" rx="45.92" ry="24.08"/>
<text text-anchor="middle" x="88.19" y="-1439.82" font-family="Times,serif" font-size="24.00">math</text>
</g>
<!-- math&#45;&gt;functions -->
<g id="edge50" class="edge">
<title>math&#45;&gt;functions</title>
<path fill="none" stroke="red" d="M126.89,-1432.78C142.38,-1427.08 160.4,-1420.1 176.38,-1413.02 307.78,-1354.83 331.72,-1321.28 464.38,-1266.02 475.95,-1261.2 488.71,-1256.66 500.66,-1252.72"/>
<polygon fill="red" stroke="red" points="501.46,-1256.14 509.9,-1249.74 499.31,-1249.47 501.46,-1256.14"/>
</g>
<!-- math&#45;&gt;timer -->
<g id="edge81" class="edge">
<title>math&#45;&gt;timer</title>
<path fill="none" stroke="red" d="M134.3,-1443.85C223.43,-1439.57 420.84,-1430.07 506.08,-1425.97"/>
<polygon fill="red" stroke="red" points="506.25,-1429.47 516.07,-1425.49 505.91,-1422.47 506.25,-1429.47"/>
</g>
<!-- algorithm -->
<g id="node28" class="node">
<title>algorithm</title>
<polygon fill="palegreen" stroke="black" points="172.56,-1207.24 172.56,-1228.81 123.14,-1244.06 53.24,-1244.06 3.82,-1228.81 3.82,-1207.24 53.24,-1191.98 123.14,-1191.98 172.56,-1207.24"/>
<polygon fill="none" stroke="black" points="176.57,-1204.28 176.57,-1231.76 123.74,-1248.07 52.64,-1248.07 -0.19,-1231.76 -0.19,-1204.28 52.64,-1187.98 123.74,-1187.98 176.57,-1204.28"/>
<text text-anchor="middle" x="88.19" y="-1211.82" font-family="Times,serif" font-size="24.00">algorithm</text>
</g>
<!-- algorithm&#45;&gt;functions -->
<g id="edge52" class="edge">
<title>algorithm&#45;&gt;functions</title>
<path fill="none" stroke="black" d="M176.84,-1222.05C270.1,-1226.33 414.71,-1232.97 492.56,-1236.54"/>
<polygon fill="black" stroke="black" points="492.34,-1240.04 502.49,-1237 492.66,-1233.04 492.34,-1240.04"/>
</g>
<!-- parseutils -->
<g id="node30" class="node">
<title>parseutils</title>
<polygon fill="palegreen" stroke="black" points="171,-19.24 171,-40.81 122.49,-56.06 53.89,-56.06 5.38,-40.81 5.38,-19.24 53.89,-3.98 122.49,-3.98 171,-19.24"/>
<polygon fill="none" stroke="black" points="175.01,-16.3 175.01,-43.75 123.11,-60.07 53.27,-60.07 1.37,-43.75 1.37,-16.3 53.27,0.02 123.11,0.02 175.01,-16.3"/>
<text text-anchor="middle" x="88.19" y="-23.82" font-family="Times,serif" font-size="24.00">parseutils</text>
</g>
<!-- parseutils&#45;&gt;parseNumber -->
<g id="edge54" class="edge">
<title>parseutils&#45;&gt;parseNumber</title>
<path fill="none" stroke="black" d="M175.49,-32.1C263.14,-34.21 397.14,-37.43 477.86,-39.37"/>
<polygon fill="black" stroke="black" points="477.29,-42.86 487.37,-39.6 477.46,-35.86 477.29,-42.86"/>
</g>
<!-- unicode -->
<g id="node31" class="node">
<title>unicode</title>
<polygon fill="palegreen" stroke="black" points="158.52,-178.24 158.52,-199.81 117.32,-215.06 59.06,-215.06 17.86,-199.81 17.86,-178.24 59.06,-162.98 117.32,-162.98 158.52,-178.24"/>
<polygon fill="none" stroke="black" points="162.52,-175.45 162.52,-202.6 118.04,-219.07 58.34,-219.07 13.86,-202.6 13.86,-175.45 58.34,-158.98 118.04,-158.98 162.52,-175.45"/>
<text text-anchor="middle" x="88.19" y="-182.82" font-family="Times,serif" font-size="24.00">unicode</text>
</g>
<!-- unicode&#45;&gt;unicodes -->
<g id="edge55" class="edge">
<title>unicode&#45;&gt;unicodes</title>
<path fill="none" stroke="black" d="M162.93,-192.89C255.53,-197.75 412.12,-205.97 493.66,-210.25"/>
<polygon fill="black" stroke="black" points="493.44,-213.74 503.61,-210.77 493.81,-206.75 493.44,-213.74"/>
</g>
<!-- json -->
<g id="node35" class="node">
<title>json</title>
<polygon fill="palegreen" stroke="black" points="130.92,-1285.24 130.92,-1306.81 105.89,-1322.06 70.49,-1322.06 45.46,-1306.81 45.46,-1285.24 70.49,-1269.98 105.89,-1269.98 130.92,-1285.24"/>
<polygon fill="none" stroke="black" points="134.91,-1282.98 134.91,-1309.06 107.01,-1326.07 69.37,-1326.07 41.47,-1309.06 41.47,-1282.98 69.37,-1265.98 107.01,-1265.98 134.91,-1282.98"/>
<text text-anchor="middle" x="88.19" y="-1289.82" font-family="Times,serif" font-size="24.00">json</text>
</g>
<!-- json&#45;&gt;readjson -->
<g id="edge60" class="edge">
<title>json&#45;&gt;readjson</title>
<path fill="none" stroke="black" d="M135.14,-1295.72C221.21,-1295.16 406.1,-1293.94 495.76,-1293.36"/>
<polygon fill="black" stroke="black" points="495.75,-1296.86 505.73,-1293.29 495.7,-1289.86 495.75,-1296.86"/>
</g>
<!-- rdstdin -->
<g id="node40" class="node">
<title>rdstdin</title>
<polygon fill="palegreen" stroke="black" points="151.74,-334.24 151.74,-355.81 114.51,-371.06 61.87,-371.06 24.64,-355.81 24.64,-334.24 61.87,-318.98 114.51,-318.98 151.74,-334.24"/>
<polygon fill="none" stroke="black" points="155.74,-331.55 155.74,-358.5 115.3,-375.07 61.08,-375.07 20.64,-358.5 20.64,-331.55 61.08,-314.98 115.3,-314.98 155.74,-331.55"/>
<text text-anchor="middle" x="88.19" y="-338.82" font-family="Times,serif" font-size="24.00">rdstdin</text>
</g>
<!-- rdstdin&#45;&gt;repl -->
<g id="edge74" class="edge">
<title>rdstdin&#45;&gt;repl</title>
<path fill="none" stroke="black" d="M156.19,-333.6C254.13,-316.89 433.1,-286.37 509.93,-273.27"/>
<polygon fill="black" stroke="black" points="510.17,-276.78 519.44,-271.65 509,-269.88 510.17,-276.78"/>
</g>
<!-- terminal -->
<g id="node42" class="node">
<title>terminal</title>
<polygon fill="palegreen" stroke="black" points="162.66,-256.24 162.66,-277.81 119.04,-293.06 57.34,-293.06 13.72,-277.81 13.72,-256.24 57.34,-240.98 119.04,-240.98 162.66,-256.24"/>
<polygon fill="none" stroke="black" points="166.67,-253.4 166.67,-280.65 119.72,-297.07 56.66,-297.07 9.71,-280.65 9.71,-253.4 56.66,-236.98 119.72,-236.98 166.67,-253.4"/>
<text text-anchor="middle" x="88.19" y="-260.82" font-family="Times,serif" font-size="24.00">terminal</text>
</g>
<!-- terminal&#45;&gt;repl -->
<g id="edge79" class="edge">
<title>terminal&#45;&gt;repl</title>
<path fill="none" stroke="black" d="M167.04,-267.02C266.52,-267.02 434.76,-267.02 509.21,-267.02"/>
<polygon fill="black" stroke="black" points="508.81,-270.52 518.81,-267.02 508.81,-263.52 508.81,-270.52"/>
</g>
</g>
</svg>
