<?xml version="1.0" encoding="UTF-8" standalone="no"?>
<!DOCTYPE svg PUBLIC "-//W3C//DTD SVG 1.1//EN"
 "http://www.w3.org/Graphics/SVG/1.1/DTD/svg11.dtd">
<!-- Generated by graphviz version 7.0.1 (20221109.1506)
 -->
<!-- Title: statictea Pages: 1 -->
<svg width="3019pt" height="1478pt"
 viewBox="0.00 0.00 3018.82 1477.65" xmlns="http://www.w3.org/2000/svg" xmlns:xlink="http://www.w3.org/1999/xlink">
<g id="graph0" class="graph" transform="scale(1 1) rotate(0) translate(4 1473.65)">
<title>statictea</title>
<polygon fill="white" stroke="none" points="-4,4 -4,-1473.65 3014.82,-1473.65 3014.82,4 -4,4"/>
<!-- args -->
<g id="node1" class="node">
<title>args</title>
<g id="a_node1"><a xlink:href="args.md" xlink:title="args.md">
<ellipse fill="palegoldenrod" stroke="black" cx="582" cy="-558" rx="39.7" ry="24.08"/>
<text text-anchor="middle" x="582" y="-551.8" font-family="Times,serif" font-size="24.00">args</text>
</a>
</g>
</g>
<!-- messages -->
<g id="node9" class="node">
<title>messages</title>
<g id="a_node9"><a xlink:href="messages.md" xlink:title="messages.md">
<polygon fill="palegreen" stroke="black" points="1666.18,-37.69 1666.18,-68.31 1598.12,-89.95 1501.88,-89.95 1433.82,-68.31 1433.82,-37.69 1501.88,-16.05 1598.12,-16.05 1666.18,-37.69"/>
<polygon fill="none" stroke="black" points="1670.17,-34.74 1670.17,-71.26 1598.74,-93.98 1501.26,-93.98 1429.83,-71.26 1429.83,-34.74 1501.26,-12.02 1598.74,-12.02 1670.17,-34.74"/>
<text text-anchor="middle" x="1550" y="-44.2" font-family="Times,serif" font-size="36.00">messages</text>
</a>
</g>
</g>
<!-- args&#45;&gt;messages -->
<g id="edge1" class="edge">
<title>args&#45;&gt;messages</title>
<path fill="none" stroke="black" d="M579.6,-533.49C573.93,-463.75 567.82,-256.76 682,-158.96 736.81,-112.01 1189.15,-76.9 1418.18,-61.94"/>
<polygon fill="black" stroke="black" points="1418.32,-65.44 1428.08,-61.3 1417.87,-58.45 1418.32,-65.44"/>
</g>
<!-- opresult -->
<g id="node10" class="node">
<title>opresult</title>
<g id="a_node10"><a xlink:href="opresult.md" xlink:title="opresult.md">
<ellipse fill="palegoldenrod" stroke="black" cx="1380" cy="-183" rx="66.44" ry="24.08"/>
<text text-anchor="middle" x="1380" y="-176.8" font-family="Times,serif" font-size="24.00">opresult</text>
</a>
</g>
</g>
<!-- args&#45;&gt;opresult -->
<g id="edge3" class="edge">
<title>args&#45;&gt;opresult</title>
<path fill="none" stroke="black" d="M588.64,-534.05C606.06,-478.37 658.71,-335.97 758,-271.06 846.28,-213.34 1156.35,-193.14 1302.58,-186.71"/>
<polygon fill="black" stroke="black" points="1302.31,-190.23 1312.15,-186.3 1302.01,-183.24 1302.31,-190.23"/>
</g>
<!-- cmdline -->
<g id="node2" class="node">
<title>cmdline</title>
<g id="a_node2"><a xlink:href="cmdline.md" xlink:title="cmdline.md">
<polygon fill="palegreen" stroke="black" points="321.89,-547.21 321.89,-568.79 279.78,-584.04 220.22,-584.04 178.11,-568.79 178.11,-547.21 220.22,-531.96 279.78,-531.96 321.89,-547.21"/>
<polygon fill="none" stroke="black" points="325.89,-544.4 325.89,-571.6 280.48,-588.04 219.52,-588.04 174.11,-571.6 174.11,-544.4 219.52,-527.96 280.48,-527.96 325.89,-544.4"/>
<text text-anchor="middle" x="250" y="-551.8" font-family="Times,serif" font-size="24.00">cmdline</text>
</a>
</g>
</g>
<!-- comparelines -->
<g id="node3" class="node">
<title>comparelines</title>
<g id="a_node3"><a xlink:href="comparelines.md" xlink:title="comparelines.md">
<polygon fill="palegreen" stroke="black" points="1149.42,-1380.21 1149.42,-1401.79 1084.74,-1417.04 993.26,-1417.04 928.58,-1401.79 928.58,-1380.21 993.26,-1364.96 1084.74,-1364.96 1149.42,-1380.21"/>
<polygon fill="none" stroke="black" points="1153.43,-1377.05 1153.43,-1404.95 1085.2,-1421.04 992.8,-1421.04 924.57,-1404.95 924.57,-1377.05 992.8,-1360.96 1085.2,-1360.96 1153.43,-1377.05"/>
<text text-anchor="middle" x="1039" y="-1384.8" font-family="Times,serif" font-size="24.00">comparelines</text>
</a>
</g>
</g>
<!-- env -->
<g id="node4" class="node">
<title>env</title>
<g id="a_node4"><a xlink:href="env.md" xlink:title="env.md">
<ellipse fill="palegoldenrod" stroke="black" cx="2494" cy="-723" rx="36.12" ry="24.08"/>
<text text-anchor="middle" x="2494" y="-716.8" font-family="Times,serif" font-size="24.00">env</text>
</a>
</g>
</g>
<!-- env&#45;&gt;messages -->
<g id="edge13" class="edge">
<title>env&#45;&gt;messages</title>
<path fill="none" stroke="black" d="M2504.8,-699.82C2517.02,-673.71 2536.6,-628.74 2547,-588.02 2563.96,-521.62 2566,-503.53 2566,-435 2566,-435 2566,-435 2566,-304 2566,-123.94 1956.68,-72.83 1681.77,-58.94"/>
<polygon fill="black" stroke="black" points="1682.21,-55.45 1672.05,-58.46 1681.86,-62.45 1682.21,-55.45"/>
</g>
<!-- tempFile -->
<g id="node24" class="node">
<title>tempFile</title>
<g id="a_node24"><a xlink:href="tempFile.md" xlink:title="tempFile.md">
<polygon fill="palegreen" stroke="black" points="2534.13,-547.21 2534.13,-568.79 2488.36,-584.04 2423.64,-584.04 2377.87,-568.79 2377.87,-547.21 2423.64,-531.96 2488.36,-531.96 2534.13,-547.21"/>
<polygon fill="none" stroke="black" points="2538.13,-544.33 2538.13,-571.67 2489.01,-588.04 2422.99,-588.04 2373.87,-571.67 2373.87,-544.33 2422.99,-527.96 2489.01,-527.96 2538.13,-544.33"/>
<text text-anchor="middle" x="2456" y="-551.8" font-family="Times,serif" font-size="24.00">tempFile</text>
</a>
</g>
</g>
<!-- env&#45;&gt;tempFile -->
<g id="edge12" class="edge">
<title>env&#45;&gt;tempFile</title>
<path fill="none" stroke="black" d="M2488.64,-698.99C2482.62,-673.2 2472.76,-630.89 2465.45,-599.52"/>
<polygon fill="black" stroke="black" points="2468.9,-598.93 2463.22,-589.99 2462.09,-600.52 2468.9,-598.93"/>
</g>
<!-- functions -->
<g id="node5" class="node">
<title>functions</title>
<g id="a_node5"><a xlink:href="functions.md" xlink:title="functions.md">
<ellipse fill="palegoldenrod" stroke="black" cx="2048" cy="-723" rx="201.55" ry="61.54"/>
<text text-anchor="middle" x="2048" y="-704.9" font-family="Times,serif" font-size="72.00">functions</text>
</a>
</g>
</g>
<!-- matches -->
<g id="node8" class="node">
<title>matches</title>
<g id="a_node8"><a xlink:href="matches.md" xlink:title="matches.md">
<ellipse fill="palegoldenrod" stroke="black" cx="1161" cy="-558" rx="67.35" ry="24.08"/>
<text text-anchor="middle" x="1161" y="-551.8" font-family="Times,serif" font-size="24.00">matches</text>
</a>
</g>
</g>
<!-- functions&#45;&gt;matches -->
<g id="edge39" class="edge">
<title>functions&#45;&gt;matches</title>
<path fill="none" stroke="black" d="M1876.19,-690.43C1680.46,-654.46 1369.88,-597.39 1231.52,-571.96"/>
<polygon fill="black" stroke="black" points="1232.22,-568.53 1221.76,-570.16 1230.96,-575.41 1232.22,-568.53"/>
</g>
<!-- functions&#45;&gt;messages -->
<g id="edge35" class="edge">
<title>functions&#45;&gt;messages</title>
<path fill="none" stroke="black" d="M2116.83,-664.79C2141.16,-642.44 2167.54,-615.57 2188,-588.02 2224.85,-538.39 2236.6,-524.14 2251,-464.02 2272.5,-374.22 2229.58,-344.79 2174,-271.06 2132.36,-215.81 2126.64,-192.27 2066,-158.96 1946.44,-93.28 1790.95,-68.51 1682.03,-59.27"/>
<polygon fill="black" stroke="black" points="1682.4,-55.79 1672.15,-58.47 1681.84,-62.76 1682.4,-55.79"/>
</g>
<!-- functions&#45;&gt;opresult -->
<g id="edge48" class="edge">
<title>functions&#45;&gt;opresult</title>
<path fill="none" stroke="black" d="M1887.2,-685.76C1811.67,-664.37 1722.52,-632.59 1650,-588.02 1587.33,-549.51 1465.9,-404.22 1432,-338.94 1411.62,-299.69 1396.78,-250.8 1388.29,-218.56"/>
<polygon fill="black" stroke="black" points="1391.7,-217.77 1385.83,-208.95 1384.92,-219.51 1391.7,-217.77"/>
</g>
<!-- parseNumber -->
<g id="node13" class="node">
<title>parseNumber</title>
<g id="a_node13"><a xlink:href="parseNumber.md" xlink:title="parseNumber.md">
<polygon fill="palegreen" stroke="black" points="2123.98,-547.21 2123.98,-568.79 2058.38,-584.04 1965.62,-584.04 1900.02,-568.79 1900.02,-547.21 1965.62,-531.96 2058.38,-531.96 2123.98,-547.21"/>
<polygon fill="none" stroke="black" points="2127.99,-544.04 2127.99,-571.96 2058.84,-588.04 1965.16,-588.04 1896.01,-571.96 1896.01,-544.04 1965.16,-527.96 2058.84,-527.96 2127.99,-544.04"/>
<text text-anchor="middle" x="2012" y="-551.8" font-family="Times,serif" font-size="24.00">parseNumber</text>
</a>
</g>
</g>
<!-- functions&#45;&gt;parseNumber -->
<g id="edge38" class="edge">
<title>functions&#45;&gt;parseNumber</title>
<path fill="none" stroke="black" d="M2034.59,-661.3C2030.03,-640.62 2025.03,-618.01 2020.91,-599.32"/>
<polygon fill="black" stroke="black" points="2024.36,-598.73 2018.79,-589.72 2017.52,-600.24 2024.36,-598.73"/>
</g>
<!-- readjson -->
<g id="node15" class="node">
<title>readjson</title>
<g id="a_node15"><a xlink:href="readjson.md" xlink:title="readjson.md">
<ellipse fill="palegoldenrod" stroke="black" cx="1771" cy="-558" rx="69.09" ry="24.08"/>
<text text-anchor="middle" x="1771" y="-551.8" font-family="Times,serif" font-size="24.00">readjson</text>
</a>
</g>
</g>
<!-- functions&#45;&gt;readjson -->
<g id="edge54" class="edge">
<title>functions&#45;&gt;readjson</title>
<path fill="none" stroke="black" d="M1956.15,-667.95C1908.73,-640.05 1853.05,-607.28 1815.23,-585.03"/>
<polygon fill="black" stroke="black" points="1817.23,-582.14 1806.84,-580.09 1813.68,-588.18 1817.23,-582.14"/>
</g>
<!-- regexes -->
<g id="node16" class="node">
<title>regexes</title>
<g id="a_node16"><a xlink:href="regexes.md" xlink:title="regexes.md">
<polygon fill="palegreen" stroke="black" points="1226.23,-423.21 1226.23,-444.79 1186.26,-460.04 1129.74,-460.04 1089.77,-444.79 1089.77,-423.21 1129.74,-407.96 1186.26,-407.96 1226.23,-423.21"/>
<polygon fill="none" stroke="black" points="1230.24,-420.46 1230.24,-447.54 1187,-464.04 1129,-464.04 1085.76,-447.54 1085.76,-420.46 1129,-403.96 1187,-403.96 1230.24,-420.46"/>
<text text-anchor="middle" x="1158" y="-427.8" font-family="Times,serif" font-size="24.00">regexes</text>
</a>
</g>
</g>
<!-- functions&#45;&gt;regexes -->
<g id="edge37" class="edge">
<title>functions&#45;&gt;regexes</title>
<path fill="none" stroke="black" d="M1907.78,-678.44C1824.62,-652.47 1717.2,-618.69 1622,-588.02 1480.75,-542.52 1315.85,-487.74 1225.6,-457.62"/>
<polygon fill="black" stroke="black" points="1226.73,-454.31 1216.14,-454.46 1224.52,-460.95 1226.73,-454.31"/>
</g>
<!-- signatures -->
<g id="node21" class="node">
<title>signatures</title>
<g id="a_node21"><a xlink:href="signatures.md" xlink:title="signatures.md">
<ellipse fill="palegoldenrod" stroke="black" cx="2162" cy="-434" rx="79.81" ry="24.08"/>
<text text-anchor="middle" x="2162" y="-427.8" font-family="Times,serif" font-size="24.00">signatures</text>
</a>
</g>
</g>
<!-- functions&#45;&gt;signatures -->
<g id="edge47" class="edge">
<title>functions&#45;&gt;signatures</title>
<path fill="none" stroke="black" d="M2117.34,-664.75C2138.38,-643.15 2158.87,-616.77 2170,-588.02 2184.92,-549.47 2178.78,-501.33 2171.65,-469.45"/>
<polygon fill="black" stroke="black" points="2175.11,-468.87 2169.37,-459.96 2168.3,-470.5 2175.11,-468.87"/>
</g>
<!-- unicodes -->
<g id="node26" class="node">
<title>unicodes</title>
<g id="a_node26"><a xlink:href="unicodes.md" xlink:title="unicodes.md">
<ellipse fill="palegoldenrod" stroke="black" cx="1604" cy="-434" rx="71.34" ry="24.08"/>
<text text-anchor="middle" x="1604" y="-427.8" font-family="Times,serif" font-size="24.00">unicodes</text>
</a>
</g>
</g>
<!-- functions&#45;&gt;unicodes -->
<g id="edge44" class="edge">
<title>functions&#45;&gt;unicodes</title>
<path fill="none" stroke="black" d="M1885.93,-686.24C1820.63,-665.73 1747.93,-634.52 1693,-588.02 1672.86,-570.97 1639.68,-507.92 1620.03,-468.27"/>
<polygon fill="black" stroke="black" points="1623.2,-466.8 1615.65,-459.37 1616.92,-469.88 1623.2,-466.8"/>
</g>
<!-- variables -->
<g id="node29" class="node">
<title>variables</title>
<g id="a_node29"><a xlink:href="variables.md" xlink:title="variables.md">
<ellipse fill="palegoldenrod" stroke="black" cx="2743" cy="-558" rx="72.66" ry="24.08"/>
<text text-anchor="middle" x="2743" y="-551.8" font-family="Times,serif" font-size="24.00">variables</text>
</a>
</g>
</g>
<!-- functions&#45;&gt;variables -->
<g id="edge55" class="edge">
<title>functions&#45;&gt;variables</title>
<path fill="none" stroke="black" d="M2193.2,-679.98C2216.8,-673.54 2241.03,-667.15 2264,-661.48 2407.01,-626.19 2575.78,-591.74 2669.98,-573.15"/>
<polygon fill="black" stroke="black" points="2670.47,-576.62 2679.61,-571.25 2669.12,-569.75 2670.47,-576.62"/>
</g>
<!-- vartypes -->
<g id="node30" class="node">
<title>vartypes</title>
<g id="a_node30"><a xlink:href="vartypes.md" xlink:title="vartypes.md">
<ellipse fill="palegoldenrod" stroke="black" cx="2042" cy="-305" rx="97.66" ry="33.88"/>
<text text-anchor="middle" x="2042" y="-296.2" font-family="Times,serif" font-size="36.00">vartypes</text>
</a>
</g>
</g>
<!-- functions&#45;&gt;vartypes -->
<g id="edge36" class="edge">
<title>functions&#45;&gt;vartypes</title>
<path fill="none" stroke="black" d="M2097.88,-663.16C2113.58,-641.05 2128.93,-614.76 2137,-588.02 2144.71,-562.47 2147.22,-552.63 2137,-527.98 2121.6,-490.83 2091.92,-499.51 2073,-464.02 2054.18,-428.71 2046.71,-383.49 2043.79,-350.48"/>
<polygon fill="black" stroke="black" points="2047.3,-350.56 2043.05,-340.86 2040.33,-351.09 2047.3,-350.56"/>
</g>
<!-- gethelp -->
<g id="node6" class="node">
<title>gethelp</title>
<g id="a_node6"><a xlink:href="gethelp.md" xlink:title="gethelp.md">
<polygon fill="palegreen" stroke="black" points="359.67,-1215.21 359.67,-1236.79 320.62,-1252.04 265.38,-1252.04 226.33,-1236.79 226.33,-1215.21 265.38,-1199.96 320.62,-1199.96 359.67,-1215.21"/>
<polygon fill="none" stroke="black" points="363.67,-1212.48 363.67,-1239.52 321.37,-1256.04 264.63,-1256.04 222.33,-1239.52 222.33,-1212.48 264.63,-1195.96 321.37,-1195.96 363.67,-1212.48"/>
<text text-anchor="middle" x="293" y="-1219.8" font-family="Times,serif" font-size="24.00">gethelp</text>
</a>
</g>
</g>
<!-- linebuffer -->
<g id="node7" class="node">
<title>linebuffer</title>
<g id="a_node7"><a xlink:href="linebuffer.md" xlink:title="linebuffer.md">
<polygon fill="palegreen" stroke="black" points="1405.91,-712.21 1405.91,-733.79 1356.17,-749.04 1285.83,-749.04 1236.09,-733.79 1236.09,-712.21 1285.83,-696.96 1356.17,-696.96 1405.91,-712.21"/>
<polygon fill="none" stroke="black" points="1409.91,-709.25 1409.91,-736.75 1356.77,-753.04 1285.23,-753.04 1232.09,-736.75 1232.09,-709.25 1285.23,-692.96 1356.77,-692.96 1409.91,-709.25"/>
<text text-anchor="middle" x="1321" y="-716.8" font-family="Times,serif" font-size="24.00">linebuffer</text>
</a>
</g>
</g>
<!-- matches&#45;&gt;regexes -->
<g id="edge7" class="edge">
<title>matches&#45;&gt;regexes</title>
<path fill="none" stroke="red" d="M1160.42,-533.48C1160.02,-517.19 1159.48,-495.09 1159.01,-475.95"/>
<polygon fill="red" stroke="red" points="1162.51,-475.92 1158.76,-466.01 1155.51,-476.09 1162.51,-475.92"/>
</g>
<!-- opresult&#45;&gt;messages -->
<g id="edge2" class="edge">
<title>opresult&#45;&gt;messages</title>
<path fill="none" stroke="red" d="M1408.07,-160.86C1429.93,-144.4 1461.09,-120.95 1488.64,-100.2"/>
<polygon fill="red" stroke="red" points="1490.74,-103 1496.62,-94.19 1486.53,-97.41 1490.74,-103"/>
</g>
<!-- parseCmdLine -->
<g id="node11" class="node">
<title>parseCmdLine</title>
<g id="a_node11"><a xlink:href="parseCmdLine.md" xlink:title="parseCmdLine.md">
<ellipse fill="palegoldenrod" stroke="black" cx="950" cy="-723" rx="111.95" ry="24.08"/>
<text text-anchor="middle" x="950" y="-716.8" font-family="Times,serif" font-size="24.00">parseCmdLine</text>
</a>
</g>
</g>
<!-- parseCmdLine&#45;&gt;args -->
<g id="edge20" class="edge">
<title>parseCmdLine&#45;&gt;args</title>
<path fill="none" stroke="black" d="M902.27,-700.86C829.72,-668.72 692.87,-608.11 623.93,-577.57"/>
<polygon fill="black" stroke="black" points="625.42,-574.4 614.86,-573.55 622.58,-580.8 625.42,-574.4"/>
</g>
<!-- parseCmdLine&#45;&gt;matches -->
<g id="edge18" class="edge">
<title>parseCmdLine&#45;&gt;matches</title>
<path fill="none" stroke="black" d="M979.34,-699.34C1017.34,-669.98 1083.58,-618.81 1124.71,-587.04"/>
<polygon fill="black" stroke="black" points="1126.61,-589.99 1132.39,-581.1 1122.33,-584.45 1126.61,-589.99"/>
</g>
<!-- parseCmdLine&#45;&gt;messages -->
<g id="edge17" class="edge">
<title>parseCmdLine&#45;&gt;messages</title>
<path fill="none" stroke="black" d="M928.57,-699.03C865.35,-628.48 690.53,-411.18 796,-271.06 870.84,-171.64 1222.9,-103.57 1418.37,-72.74"/>
<polygon fill="black" stroke="black" points="1418.74,-76.23 1428.08,-71.22 1417.66,-69.31 1418.74,-76.23"/>
</g>
<!-- parseCmdLine&#45;&gt;opresult -->
<g id="edge19" class="edge">
<title>parseCmdLine&#45;&gt;opresult</title>
<path fill="none" stroke="black" d="M954.63,-698.58C966.63,-642.68 1003.05,-498.98 1077,-403.98 1147.49,-313.41 1264.87,-243.13 1330.94,-208.24"/>
<polygon fill="black" stroke="black" points="1332.49,-211.37 1339.74,-203.65 1329.26,-205.17 1332.49,-211.37"/>
</g>
<!-- parseCmdLine&#45;&gt;regexes -->
<g id="edge16" class="edge">
<title>parseCmdLine&#45;&gt;regexes</title>
<path fill="none" stroke="black" d="M965.76,-699C996.01,-654.9 1061.33,-559.98 1085,-527.98 1098.49,-509.74 1113.94,-489.92 1127.14,-473.28"/>
<polygon fill="black" stroke="black" points="1129.78,-475.58 1133.27,-465.58 1124.31,-471.22 1129.78,-475.58"/>
</g>
<!-- parseCommandLine -->
<g id="node12" class="node">
<title>parseCommandLine</title>
<g id="a_node12"><a xlink:href="parseCommandLine.md" xlink:title="parseCommandLine.md">
<ellipse fill="palegoldenrod" stroke="black" cx="177" cy="-723" rx="149.4" ry="24.08"/>
<text text-anchor="middle" x="177" y="-716.8" font-family="Times,serif" font-size="24.00">parseCommandLine</text>
</a>
</g>
</g>
<!-- parseCommandLine&#45;&gt;args -->
<g id="edge4" class="edge">
<title>parseCommandLine&#45;&gt;args</title>
<path fill="none" stroke="black" d="M231.2,-700.19C312.55,-667.44 464.6,-606.25 538.9,-576.35"/>
<polygon fill="black" stroke="black" points="539.91,-579.71 547.88,-572.73 537.3,-573.22 539.91,-579.71"/>
</g>
<!-- parseCommandLine&#45;&gt;cmdline -->
<g id="edge6" class="edge">
<title>parseCommandLine&#45;&gt;cmdline</title>
<path fill="none" stroke="black" d="M187.46,-698.65C199.15,-672.55 218.27,-629.85 232.3,-598.53"/>
<polygon fill="black" stroke="black" points="235.33,-600.32 236.22,-589.76 228.94,-597.46 235.33,-600.32"/>
</g>
<!-- parseCommandLine&#45;&gt;matches -->
<g id="edge8" class="edge">
<title>parseCommandLine&#45;&gt;matches</title>
<path fill="none" stroke="black" d="M279.06,-705.09C478.85,-672 917.07,-599.41 1089.39,-570.86"/>
<polygon fill="black" stroke="black" points="1089.8,-574.34 1099.1,-569.25 1088.66,-567.44 1089.8,-574.34"/>
</g>
<!-- parseCommandLine&#45;&gt;messages -->
<g id="edge5" class="edge">
<title>parseCommandLine&#45;&gt;messages</title>
<path fill="none" stroke="black" d="M172.75,-698.66C164.26,-649.87 146,-533.48 146,-435 146,-435 146,-435 146,-304 146,-196.34 239.41,-197.31 340,-158.96 534.11,-84.95 1146.27,-62.69 1417.92,-56.36"/>
<polygon fill="black" stroke="black" points="1417.99,-59.86 1427.9,-56.13 1417.83,-52.86 1417.99,-59.86"/>
</g>
<!-- processTemplate -->
<g id="node14" class="node">
<title>processTemplate</title>
<g id="a_node14"><a xlink:href="processTemplate.md" xlink:title="processTemplate.md">
<ellipse fill="palegoldenrod" stroke="black" cx="734" cy="-1226" rx="124.4" ry="24.08"/>
<text text-anchor="middle" x="734" y="-1219.8" font-family="Times,serif" font-size="24.00">processTemplate</text>
</a>
</g>
</g>
<!-- processTemplate&#45;&gt;args -->
<g id="edge10" class="edge">
<title>processTemplate&#45;&gt;args</title>
<path fill="none" stroke="black" d="M645.48,-1208.79C602.9,-1196.06 555.65,-1173.56 530,-1134.04 415.66,-957.87 481.14,-865.75 530,-661.48 536.09,-636.04 549.58,-609.77 561.3,-590.2"/>
<polygon fill="black" stroke="black" points="564.15,-592.25 566.42,-581.9 558.19,-588.57 564.15,-592.25"/>
</g>
<!-- processTemplate&#45;&gt;env -->
<g id="edge14" class="edge">
<title>processTemplate&#45;&gt;env</title>
<path fill="none" stroke="black" d="M826.88,-1209.65C860.54,-1204.58 898.9,-1199.38 934,-1195.98 1214.14,-1168.86 1929.76,-1216.04 2199,-1134.04 2299.77,-1103.35 2336.67,-1094.34 2402,-1011.71 2462.85,-934.74 2483.9,-816.59 2490.82,-758.57"/>
<polygon fill="black" stroke="black" points="2494.26,-759.3 2491.89,-748.97 2487.3,-758.52 2494.26,-759.3"/>
</g>
<!-- processTemplate&#45;&gt;linebuffer -->
<g id="edge15" class="edge">
<title>processTemplate&#45;&gt;linebuffer</title>
<path fill="none" stroke="black" d="M734.94,-1201.61C737.52,-1170.31 746.96,-1115.36 781,-1085.96 920.48,-965.48 1047.57,-1129.9 1189,-1011.71 1240.51,-968.67 1214.21,-931.39 1242,-870.29 1258.94,-833.04 1281.35,-792.18 1297.97,-763.13"/>
<polygon fill="black" stroke="black" points="1300.88,-765.1 1302.84,-754.69 1294.81,-761.6 1300.88,-765.1"/>
</g>
<!-- processTemplate&#45;&gt;messages -->
<g id="edge11" class="edge">
<title>processTemplate&#45;&gt;messages</title>
<path fill="none" stroke="black" d="M644.15,-1209C595.78,-1196.17 538.35,-1173.51 500,-1134.04 365.19,-995.31 354,-917.45 354,-724 354,-724 354,-724 354,-304 354,-88.5 1107.35,-57.6 1418.25,-54.01"/>
<polygon fill="black" stroke="black" points="1418.09,-57.52 1428.06,-53.91 1418.02,-50.52 1418.09,-57.52"/>
</g>
<!-- processTemplate&#45;&gt;opresult -->
<g id="edge86" class="edge">
<title>processTemplate&#45;&gt;opresult</title>
<path fill="none" stroke="black" d="M721.33,-1201.88C712.26,-1183.96 700.84,-1158.21 696,-1134.04 691.8,-1113.09 694.33,-1107.26 696,-1085.96 720.59,-772.51 691.57,-652.62 884,-403.98 937.11,-335.36 950.66,-312.3 1027,-271.06 1115.48,-223.26 1230.55,-201.23 1304.85,-191.42"/>
<polygon fill="black" stroke="black" points="1304.98,-194.93 1314.46,-190.19 1304.09,-187.99 1304.98,-194.93"/>
</g>
<!-- processTemplate&#45;&gt;parseCmdLine -->
<g id="edge21" class="edge">
<title>processTemplate&#45;&gt;parseCmdLine</title>
<path fill="none" stroke="black" d="M721.71,-1201.56C708.73,-1173.67 691.73,-1125.85 704,-1085.96 746.8,-946.83 863.31,-813.23 919.24,-754.8"/>
<polygon fill="black" stroke="black" points="921.55,-757.44 925.98,-747.82 916.52,-752.58 921.55,-757.44"/>
</g>
<!-- replacement -->
<g id="node18" class="node">
<title>replacement</title>
<g id="a_node18"><a xlink:href="replacement.md" xlink:title="replacement.md">
<ellipse fill="palegoldenrod" stroke="black" cx="1085" cy="-941" rx="94.51" ry="24.08"/>
<text text-anchor="middle" x="1085" y="-934.8" font-family="Times,serif" font-size="24.00">replacement</text>
</a>
</g>
</g>
<!-- processTemplate&#45;&gt;replacement -->
<g id="edge75" class="edge">
<title>processTemplate&#45;&gt;replacement</title>
<path fill="none" stroke="black" d="M723.09,-1201.57C711.08,-1171.96 696.39,-1120.66 720,-1085.96 778.93,-999.37 898.74,-964.86 985.05,-951.11"/>
<polygon fill="black" stroke="black" points="985.34,-954.61 994.7,-949.65 984.29,-947.69 985.34,-954.61"/>
</g>
<!-- runCommand -->
<g id="node19" class="node">
<title>runCommand</title>
<g id="a_node19"><a xlink:href="runCommand.md" xlink:title="runCommand.md">
<ellipse fill="palegoldenrod" stroke="black" cx="1613" cy="-941" rx="338.91" ry="70.92"/>
<text text-anchor="middle" x="1613" y="-919.8" font-family="Times,serif" font-size="84.00">runCommand</text>
</a>
</g>
</g>
<!-- processTemplate&#45;&gt;runCommand -->
<g id="edge63" class="edge">
<title>processTemplate&#45;&gt;runCommand</title>
<path fill="none" stroke="black" d="M743.99,-1201.5C758.76,-1169.82 789.55,-1114.14 834,-1085.96 839.62,-1082.4 1123.14,-1030.53 1346.51,-990.06"/>
<polygon fill="black" stroke="black" points="1347.07,-993.52 1356.28,-988.29 1345.82,-986.63 1347.07,-993.52"/>
</g>
<!-- startingvars -->
<g id="node22" class="node">
<title>startingvars</title>
<g id="a_node22"><a xlink:href="startingvars.md" xlink:title="startingvars.md">
<ellipse fill="palegoldenrod" stroke="black" cx="2099" cy="-1110" rx="90.52" ry="24.08"/>
<text text-anchor="middle" x="2099" y="-1103.8" font-family="Times,serif" font-size="24.00">startingvars</text>
</a>
</g>
</g>
<!-- processTemplate&#45;&gt;startingvars -->
<g id="edge85" class="edge">
<title>processTemplate&#45;&gt;startingvars</title>
<path fill="none" stroke="black" d="M828.19,-1209.92C861.54,-1204.96 899.38,-1199.75 934,-1195.98 1327.06,-1153.18 1797.13,-1126.28 1998.94,-1115.89"/>
<polygon fill="black" stroke="black" points="1999.07,-1119.39 2008.87,-1115.38 1998.71,-1112.4 1999.07,-1119.39"/>
</g>
<!-- processTemplate&#45;&gt;variables -->
<g id="edge64" class="edge">
<title>processTemplate&#45;&gt;variables</title>
<path fill="none" stroke="black" d="M826.88,-1209.59C860.53,-1204.52 898.9,-1199.33 934,-1195.98 1230.97,-1167.64 1989.5,-1220.56 2275,-1134.04 2493.04,-1067.96 2536.88,-982.29 2650,-784.52 2686.83,-720.13 2716.8,-638.28 2732.05,-593"/>
<polygon fill="black" stroke="black" points="2735.3,-594.34 2735.13,-583.75 2728.65,-592.13 2735.3,-594.34"/>
</g>
<!-- processTemplate&#45;&gt;vartypes -->
<g id="edge65" class="edge">
<title>processTemplate&#45;&gt;vartypes</title>
<path fill="none" stroke="black" d="M830.86,-1210.64C1102.12,-1170.07 1856.34,-1054.78 1961,-1011.71 2042.66,-978.11 2246.14,-862.8 2287,-784.52 2325.87,-710.05 2277.57,-439.99 2251,-403.98 2234.22,-381.24 2172.5,-353.82 2120.44,-333.77"/>
<polygon fill="black" stroke="black" points="2121.85,-330.56 2111.25,-330.28 2119.36,-337.11 2121.85,-330.56"/>
</g>
<!-- readjson&#45;&gt;messages -->
<g id="edge50" class="edge">
<title>readjson&#45;&gt;messages</title>
<path fill="none" stroke="black" d="M1774.2,-533.75C1776.61,-514.97 1779.72,-487.85 1781,-464.02 1782.43,-437.37 1785.34,-430.31 1781,-403.98 1770.87,-342.44 1761.58,-327.94 1736,-271.06 1712.47,-218.74 1708.5,-203.22 1672,-158.96 1654.42,-137.64 1632.23,-117.14 1611.6,-99.99"/>
<polygon fill="black" stroke="black" points="1614,-97.44 1604.04,-93.82 1609.57,-102.86 1614,-97.44"/>
</g>
<!-- readjson&#45;&gt;opresult -->
<g id="edge53" class="edge">
<title>readjson&#45;&gt;opresult</title>
<path fill="none" stroke="black" d="M1772.61,-533.66C1774.99,-479.6 1772.91,-344.78 1701,-271.06 1666.64,-235.84 1535.78,-208.93 1452.12,-194.88"/>
<polygon fill="black" stroke="black" points="1452.83,-191.45 1442.39,-193.27 1451.69,-198.35 1452.83,-191.45"/>
</g>
<!-- readjson&#45;&gt;unicodes -->
<g id="edge51" class="edge">
<title>readjson&#45;&gt;unicodes</title>
<path fill="none" stroke="black" d="M1741.91,-535.75C1714.3,-515.58 1672.64,-485.14 1642.33,-463"/>
<polygon fill="black" stroke="black" points="1644.68,-460.38 1634.54,-457.31 1640.55,-466.03 1644.68,-460.38"/>
</g>
<!-- utf8decoder -->
<g id="node28" class="node">
<title>utf8decoder</title>
<g id="a_node28"><a xlink:href="utf8decoder.md" xlink:title="utf8decoder.md">
<polygon fill="palegreen" stroke="black" points="1688.04,-294.21 1688.04,-315.79 1629.44,-331.04 1546.56,-331.04 1487.96,-315.79 1487.96,-294.21 1546.56,-278.96 1629.44,-278.96 1688.04,-294.21"/>
<polygon fill="none" stroke="black" points="1692.03,-291.12 1692.03,-318.88 1629.95,-335.04 1546.05,-335.04 1483.97,-318.88 1483.97,-291.12 1546.05,-274.96 1629.95,-274.96 1692.03,-291.12"/>
<text text-anchor="middle" x="1588" y="-298.8" font-family="Times,serif" font-size="24.00">utf8decoder</text>
</a>
</g>
</g>
<!-- readjson&#45;&gt;utf8decoder -->
<g id="edge52" class="edge">
<title>readjson&#45;&gt;utf8decoder</title>
<path fill="none" stroke="black" d="M1760.18,-533.83C1745.2,-502.83 1716.29,-446.8 1684,-403.98 1667.71,-382.38 1646.98,-360.65 1628.95,-343.17"/>
<polygon fill="black" stroke="black" points="1631.62,-340.88 1621.97,-336.5 1626.78,-345.94 1631.62,-340.88"/>
</g>
<!-- readjson&#45;&gt;vartypes -->
<g id="edge49" class="edge">
<title>readjson&#45;&gt;vartypes</title>
<path fill="none" stroke="black" d="M1779.45,-533.6C1792.18,-501.07 1819.01,-441.91 1858,-403.98 1888.46,-374.35 1929.68,-351.29 1965.39,-335"/>
<polygon fill="black" stroke="black" points="1966.69,-338.26 1974.4,-331 1963.84,-331.86 1966.69,-338.26"/>
</g>
<!-- repl -->
<g id="node17" class="node">
<title>repl</title>
<g id="a_node17"><a xlink:href="repl.md" xlink:title="repl.md">
<ellipse fill="palegoldenrod" stroke="black" cx="981" cy="-1226" rx="38.37" ry="24.08"/>
<text text-anchor="middle" x="981" y="-1219.8" font-family="Times,serif" font-size="24.00">repl</text>
</a>
</g>
</g>
<!-- repl&#45;&gt;args -->
<g id="edge109" class="edge">
<title>repl&#45;&gt;args</title>
<path fill="none" stroke="black" d="M946.76,-1214.4C907.01,-1200.78 841.14,-1174.03 796,-1134.04 657.16,-1011.07 620.86,-962.3 568,-784.52 548.5,-718.94 562.07,-638.04 572.7,-593.13"/>
<polygon fill="black" stroke="black" points="576.09,-594.01 575.09,-583.46 569.29,-592.33 576.09,-594.01"/>
</g>
<!-- repl&#45;&gt;env -->
<g id="edge107" class="edge">
<title>repl&#45;&gt;env</title>
<path fill="none" stroke="black" d="M1019.46,-1222.77C1249.46,-1209.4 2433.3,-1140.3 2440,-1134.04 2545.93,-1035.15 2518.4,-837.33 2502,-758.03"/>
<polygon fill="black" stroke="black" points="2505.52,-757.74 2500,-748.7 2498.67,-759.21 2505.52,-757.74"/>
</g>
<!-- repl&#45;&gt;matches -->
<g id="edge112" class="edge">
<title>repl&#45;&gt;matches</title>
<path fill="none" stroke="black" d="M974.98,-1201.76C961.05,-1143.22 931.41,-986.05 981,-870.29 1002.76,-819.5 1041.05,-830.95 1071,-784.52 1102.4,-735.84 1092.35,-715.21 1114,-661.48 1123.45,-638.04 1135.32,-612.19 1144.76,-592.31"/>
<polygon fill="black" stroke="black" points="1147.92,-593.83 1149.08,-583.3 1141.6,-590.8 1147.92,-593.83"/>
</g>
<!-- repl&#45;&gt;messages -->
<g id="edge106" class="edge">
<title>repl&#45;&gt;messages</title>
<path fill="none" stroke="black" d="M946.19,-1215.62C898.21,-1201.85 809.98,-1173.46 742,-1134.04 560.11,-1028.55 506,-934.27 506,-724 506,-724 506,-724 506,-304 506,-216.54 561.09,-198.7 639,-158.96 772.04,-91.1 1199.37,-66.33 1418.18,-57.94"/>
<polygon fill="black" stroke="black" points="1418.03,-61.45 1427.89,-57.57 1417.77,-54.45 1418.03,-61.45"/>
</g>
<!-- repl&#45;&gt;opresult -->
<g id="edge110" class="edge">
<title>repl&#45;&gt;opresult</title>
<path fill="none" stroke="black" d="M956.76,-1206.94C914.76,-1173.86 830.25,-1098.85 802,-1011.71 753.99,-863.61 751.06,-810.84 795,-661.48 859.94,-440.74 940.82,-394.5 1135,-271.06 1190.19,-235.98 1261.37,-212.72 1312.78,-199.14"/>
<polygon fill="black" stroke="black" points="1313.48,-202.57 1322.29,-196.68 1311.74,-195.79 1313.48,-202.57"/>
</g>
<!-- repl&#45;&gt;regexes -->
<g id="edge113" class="edge">
<title>repl&#45;&gt;regexes</title>
<path fill="none" stroke="black" d="M964.76,-1203.83C907.88,-1126.93 726.46,-856.56 829,-661.48 884.27,-556.33 1012.89,-490.49 1091.95,-458.44"/>
<polygon fill="black" stroke="black" points="1092.88,-461.83 1100.88,-454.88 1090.29,-455.33 1092.88,-461.83"/>
</g>
<!-- repl&#45;&gt;runCommand -->
<g id="edge114" class="edge">
<title>repl&#45;&gt;runCommand</title>
<path fill="none" stroke="black" d="M1011.91,-1211.16C1091.92,-1175.33 1310.01,-1077.68 1460.24,-1010.4"/>
<polygon fill="black" stroke="black" points="1461.41,-1013.72 1469.1,-1006.44 1458.54,-1007.33 1461.41,-1013.72"/>
</g>
<!-- repl&#45;&gt;startingvars -->
<g id="edge111" class="edge">
<title>repl&#45;&gt;startingvars</title>
<path fill="none" stroke="black" d="M1019.39,-1223.31C1153.96,-1216.99 1616.6,-1192.16 1994,-1134.04 2002.98,-1132.66 2012.35,-1130.97 2021.62,-1129.14"/>
<polygon fill="black" stroke="black" points="2022.28,-1132.57 2031.38,-1127.15 2020.88,-1125.72 2022.28,-1132.57"/>
</g>
<!-- repl&#45;&gt;unicodes -->
<g id="edge116" class="edge">
<title>repl&#45;&gt;unicodes</title>
<path fill="none" stroke="black" d="M1019.3,-1222.83C1185.23,-1212.59 1839.12,-1162.97 1961,-1011.71 2000.44,-962.77 1994.72,-923.33 1961,-870.29 1912.81,-794.49 1845.88,-843.35 1778,-784.52 1699.05,-716.1 1692.88,-682.83 1649,-588.02 1630.92,-548.97 1618.21,-500.93 1611.01,-469.22"/>
<polygon fill="black" stroke="black" points="1614.5,-468.81 1608.93,-459.8 1607.67,-470.32 1614.5,-468.81"/>
</g>
<!-- repl&#45;&gt;variables -->
<g id="edge115" class="edge">
<title>repl&#45;&gt;variables</title>
<path fill="none" stroke="black" d="M1019.49,-1222.73C1103.7,-1217.78 1310.64,-1205.66 1484,-1195.98 1611.32,-1188.86 2532.91,-1216.71 2630,-1134.04 2793.19,-995.09 2764.32,-695.44 2748.98,-593.65"/>
<polygon fill="black" stroke="black" points="2752.47,-593.34 2747.47,-584.01 2745.56,-594.43 2752.47,-593.34"/>
</g>
<!-- repl&#45;&gt;vartypes -->
<g id="edge108" class="edge">
<title>repl&#45;&gt;vartypes</title>
<path fill="none" stroke="black" d="M1019.49,-1222.78C1252.38,-1209.37 2463.29,-1139.37 2471,-1134.04 2582.67,-1056.88 2616.65,-644.48 2547,-527.98 2516.19,-476.44 2478.4,-496.66 2428,-464.02 2391.28,-440.24 2388.76,-424.26 2350,-403.98 2329.7,-393.36 2209.91,-356.4 2125.86,-331.04"/>
<polygon fill="black" stroke="black" points="2127.06,-327.75 2116.48,-328.21 2125.04,-334.45 2127.06,-327.75"/>
</g>
<!-- replacement&#45;&gt;args -->
<g id="edge74" class="edge">
<title>replacement&#45;&gt;args</title>
<path fill="none" stroke="black" d="M1044.08,-918.98C1014.91,-904.39 974.55,-885.02 938,-870.29 826.7,-825.44 768.89,-867.28 682,-784.52 639.5,-744.04 657.98,-715.06 634,-661.48 623.29,-637.55 609.88,-611.19 599.36,-591.2"/>
<polygon fill="black" stroke="black" points="602.48,-589.62 594.71,-582.42 596.3,-592.9 602.48,-589.62"/>
</g>
<!-- replacement&#45;&gt;env -->
<g id="edge66" class="edge">
<title>replacement&#45;&gt;env</title>
<path fill="none" stroke="black" d="M1128.27,-919.19C1164.06,-902.98 1216.67,-881.42 1265,-870.29 1711.34,-767.47 1841.97,-869.76 2292,-784.52 2348.39,-773.84 2411.46,-753.54 2451.89,-739.42"/>
<polygon fill="black" stroke="black" points="2452.98,-742.74 2461.24,-736.11 2450.65,-736.14 2452.98,-742.74"/>
</g>
<!-- replacement&#45;&gt;linebuffer -->
<g id="edge69" class="edge">
<title>replacement&#45;&gt;linebuffer</title>
<path fill="none" stroke="black" d="M1109.81,-917.29C1150.45,-880.1 1231.57,-805.85 1280.59,-760.98"/>
<polygon fill="black" stroke="black" points="1282.93,-763.59 1287.94,-754.25 1278.2,-758.42 1282.93,-763.59"/>
</g>
<!-- replacement&#45;&gt;messages -->
<g id="edge70" class="edge">
<title>replacement&#45;&gt;messages</title>
<path fill="none" stroke="black" d="M1036.52,-920.08C932.24,-873.63 696,-747.59 696,-559 696,-559 696,-559 696,-304 696,-197.05 789.58,-200.81 888,-158.96 1061.55,-85.15 1280.68,-62.73 1418.12,-56.21"/>
<polygon fill="black" stroke="black" points="1418.17,-59.71 1428.01,-55.77 1417.86,-52.72 1418.17,-59.71"/>
</g>
<!-- replacement&#45;&gt;opresult -->
<g id="edge73" class="edge">
<title>replacement&#45;&gt;opresult</title>
<path fill="none" stroke="black" d="M1087.65,-916.79C1094.69,-857.94 1115.18,-704.52 1142,-661.48 1170.23,-616.18 1205.85,-631.36 1237,-588.02 1324.04,-466.95 1296.12,-411.23 1347,-271.06 1353.41,-253.41 1360.8,-233.84 1366.96,-217.74"/>
<polygon fill="black" stroke="black" points="1370.14,-219.22 1370.45,-208.63 1363.6,-216.71 1370.14,-219.22"/>
</g>
<!-- replacement&#45;&gt;parseCmdLine -->
<g id="edge68" class="edge">
<title>replacement&#45;&gt;parseCmdLine</title>
<path fill="none" stroke="black" d="M1070.55,-916.88C1046.51,-878.42 998.21,-801.13 970.6,-756.96"/>
<polygon fill="black" stroke="black" points="973.62,-755.18 965.35,-748.56 967.68,-758.89 973.62,-755.18"/>
</g>
<!-- replacement&#45;&gt;tempFile -->
<g id="edge72" class="edge">
<title>replacement&#45;&gt;tempFile</title>
<path fill="none" stroke="black" d="M1101.27,-916.91C1121.63,-887.28 1156.64,-833.83 1180,-784.52 1204.8,-732.17 1177.15,-696.88 1223,-661.48 1303.65,-599.23 2035.49,-596.72 2137,-588.02 2212.79,-581.53 2298.66,-573.69 2362.2,-567.8"/>
<polygon fill="black" stroke="black" points="2362.26,-571.31 2371.89,-566.9 2361.61,-564.33 2362.26,-571.31"/>
</g>
<!-- replacement&#45;&gt;variables -->
<g id="edge71" class="edge">
<title>replacement&#45;&gt;variables</title>
<path fill="none" stroke="black" d="M1128.28,-919.23C1164.07,-903.04 1216.68,-881.49 1265,-870.29 1480.98,-820.22 2073.44,-905.86 2259,-784.52 2311.11,-750.44 2276.68,-699.49 2326,-661.48 2378.7,-620.87 2560.64,-587.07 2665.97,-570.32"/>
<polygon fill="black" stroke="black" points="2666.34,-573.81 2675.67,-568.8 2665.25,-566.89 2666.34,-573.81"/>
</g>
<!-- replacement&#45;&gt;vartypes -->
<g id="edge67" class="edge">
<title>replacement&#45;&gt;vartypes</title>
<path fill="none" stroke="black" d="M1093.97,-916.69C1105.54,-886.4 1126.05,-831.78 1142,-784.52 1160.3,-730.29 1144.25,-706.17 1180,-661.48 1220.97,-610.26 1254.36,-625.78 1308,-588.02 1411.13,-515.43 1410.23,-458.42 1524,-403.98 1655.97,-340.83 1825.08,-318.34 1933.51,-310.36"/>
<polygon fill="black" stroke="black" points="1933.55,-313.86 1943.28,-309.67 1933.06,-306.88 1933.55,-313.86"/>
</g>
<!-- runCommand&#45;&gt;env -->
<g id="edge25" class="edge">
<title>runCommand&#45;&gt;env</title>
<path fill="none" stroke="black" d="M1889.87,-899.7C2034.58,-874.48 2213.3,-836.72 2368,-784.52 2399.19,-774 2432.69,-757.64 2457.31,-744.58"/>
<polygon fill="black" stroke="black" points="2458.8,-747.75 2465.95,-739.93 2455.48,-741.59 2458.8,-747.75"/>
</g>
<!-- runCommand&#45;&gt;functions -->
<g id="edge56" class="edge">
<title>runCommand&#45;&gt;functions</title>
<path fill="none" stroke="black" d="M1743.51,-875.19C1803.96,-845.18 1875.13,-809.84 1933.46,-780.87"/>
<polygon fill="black" stroke="black" points="1934.7,-784.17 1942.1,-776.59 1931.59,-777.9 1934.7,-784.17"/>
</g>
<!-- runCommand&#45;&gt;linebuffer -->
<g id="edge22" class="edge">
<title>runCommand&#45;&gt;linebuffer</title>
<path fill="none" stroke="black" d="M1521.41,-872.25C1470.72,-834.75 1409.82,-789.7 1368.55,-759.18"/>
<polygon fill="black" stroke="black" points="1370.88,-756.54 1360.76,-753.41 1366.72,-762.17 1370.88,-756.54"/>
</g>
<!-- runCommand&#45;&gt;matches -->
<g id="edge23" class="edge">
<title>runCommand&#45;&gt;matches</title>
<path fill="none" stroke="black" d="M1533.99,-871.66C1508.33,-846.33 1481.48,-816.05 1462,-784.52 1431.55,-735.24 1459.09,-703.29 1419,-661.48 1411.62,-653.78 1291.05,-607.72 1217.38,-580.04"/>
<polygon fill="black" stroke="black" points="1218.88,-576.86 1208.29,-576.62 1216.42,-583.41 1218.88,-576.86"/>
</g>
<!-- runCommand&#45;&gt;messages -->
<g id="edge29" class="edge">
<title>runCommand&#45;&gt;messages</title>
<path fill="none" stroke="black" d="M1570.88,-870.33C1556.06,-844.03 1540.11,-813.47 1528,-784.52 1505.96,-731.84 1523.11,-708.7 1491,-661.48 1461.38,-617.93 1429.57,-630.18 1398,-588.02 1362.38,-540.46 1364.11,-521.22 1348,-464.02 1316.61,-352.56 1314.59,-322.45 1305,-207.04 1303.23,-185.74 1293.23,-176.8 1305,-158.96 1332.36,-117.48 1379.87,-92.33 1425.82,-77.11"/>
<polygon fill="black" stroke="black" points="1426.6,-80.53 1435.08,-74.18 1424.49,-73.86 1426.6,-80.53"/>
</g>
<!-- runCommand&#45;&gt;opresult -->
<g id="edge58" class="edge">
<title>runCommand&#45;&gt;opresult</title>
<path fill="none" stroke="black" d="M1591.75,-869.78C1566.99,-788.06 1529.28,-663.87 1528,-661.48 1474.41,-561.41 1404.23,-570.91 1366,-464.02 1335.91,-379.91 1356.16,-272.47 1370.04,-218.39"/>
<polygon fill="black" stroke="black" points="1373.39,-219.4 1372.58,-208.84 1366.62,-217.6 1373.39,-219.4"/>
</g>
<!-- runCommand&#45;&gt;parseCmdLine -->
<g id="edge61" class="edge">
<title>runCommand&#45;&gt;parseCmdLine</title>
<path fill="none" stroke="black" d="M1431.39,-880.83C1296.1,-836.76 1118.61,-778.93 1021.37,-747.25"/>
<polygon fill="black" stroke="black" points="1022.52,-743.95 1011.93,-744.18 1020.36,-750.6 1022.52,-743.95"/>
</g>
<!-- runCommand&#45;&gt;readjson -->
<g id="edge57" class="edge">
<title>runCommand&#45;&gt;readjson</title>
<path fill="none" stroke="black" d="M1641.98,-870.12C1676.1,-787.84 1731.37,-654.56 1757.06,-592.63"/>
<polygon fill="black" stroke="black" points="1760.17,-594.24 1760.77,-583.67 1753.71,-591.56 1760.17,-594.24"/>
</g>
<!-- runCommand&#45;&gt;regexes -->
<g id="edge24" class="edge">
<title>runCommand&#45;&gt;regexes</title>
<path fill="none" stroke="black" d="M1556.43,-870.68C1536.91,-844.67 1515.95,-814.21 1500,-784.52 1472.36,-733.09 1492.35,-705.5 1454,-661.48 1408.87,-609.68 1373.54,-628.45 1318,-588.02 1270.44,-553.41 1222.57,-505.5 1191.75,-472.55"/>
<polygon fill="black" stroke="black" points="1194.69,-470.58 1185.32,-465.63 1189.56,-475.34 1194.69,-470.58"/>
</g>
<!-- runCommand&#45;&gt;signatures -->
<g id="edge62" class="edge">
<title>runCommand&#45;&gt;signatures</title>
<path fill="none" stroke="black" d="M1906.13,-905.03C2054.95,-880.62 2213.76,-841.94 2259,-784.52 2335.71,-687.16 2237.13,-532.91 2187.45,-466.79"/>
<polygon fill="black" stroke="black" points="2190.27,-464.72 2181.42,-458.9 2184.71,-468.97 2190.27,-464.72"/>
</g>
<!-- runCommand&#45;&gt;unicodes -->
<g id="edge59" class="edge">
<title>runCommand&#45;&gt;unicodes</title>
<path fill="none" stroke="black" d="M1615.24,-869.77C1615.96,-813.21 1614.56,-731.81 1604,-661.48 1598.97,-628.02 1588.48,-621.56 1584,-588.02 1580.46,-561.57 1581.18,-554.51 1584,-527.98 1586.09,-508.31 1590.6,-486.7 1594.81,-469.26"/>
<polygon fill="black" stroke="black" points="1598.11,-470.49 1597.14,-459.94 1591.32,-468.79 1598.11,-470.49"/>
</g>
<!-- runCommand&#45;&gt;utf8decoder -->
<g id="edge60" class="edge">
<title>runCommand&#45;&gt;utf8decoder</title>
<path fill="none" stroke="black" d="M1601.99,-869.74C1592.95,-813.34 1579.48,-732.17 1566,-661.48 1549.2,-573.35 1533.38,-553.25 1524,-464.02 1521.21,-437.48 1516.39,-429.56 1524,-403.98 1530.36,-382.62 1543.02,-361.58 1555.41,-344.5"/>
<polygon fill="black" stroke="black" points="1558.1,-346.75 1561.32,-336.65 1552.51,-342.54 1558.1,-346.75"/>
</g>
<!-- runCommand&#45;&gt;variables -->
<g id="edge34" class="edge">
<title>runCommand&#45;&gt;variables</title>
<path fill="none" stroke="black" d="M1924.49,-912.89C2055.93,-891.46 2206.74,-853.11 2330,-784.52 2396.48,-747.53 2384.9,-702.45 2449,-661.48 2518.17,-617.27 2608.75,-589.44 2670.99,-574.13"/>
<polygon fill="black" stroke="black" points="2671.51,-577.6 2680.41,-571.86 2669.87,-570.8 2671.51,-577.6"/>
</g>
<!-- runCommand&#45;&gt;vartypes -->
<g id="edge28" class="edge">
<title>runCommand&#45;&gt;vartypes</title>
<path fill="none" stroke="black" d="M1660.34,-870.57C1708.38,-799.84 1784.64,-686.81 1849,-588.02 1866.24,-561.56 1869.51,-554.27 1887,-527.98 1929.44,-464.17 1980.69,-391.6 2012.31,-347.31"/>
<polygon fill="black" stroke="black" points="2015.1,-349.44 2018.07,-339.27 2009.4,-345.37 2015.1,-349.44"/>
</g>
<!-- runner -->
<g id="node20" class="node">
<title>runner</title>
<g id="a_node20"><a xlink:href="runner.md" xlink:title="runner.md">
<polygon fill="palegreen" stroke="black" points="1343.37,-1375.69 1343.37,-1406.31 1293.95,-1427.95 1224.05,-1427.95 1174.63,-1406.31 1174.63,-1375.69 1224.05,-1354.05 1293.95,-1354.05 1343.37,-1375.69"/>
<polygon fill="none" stroke="black" points="1347.38,-1373.06 1347.38,-1408.94 1294.78,-1431.98 1223.22,-1431.98 1170.62,-1408.94 1170.62,-1373.06 1223.22,-1350.02 1294.78,-1350.02 1347.38,-1373.06"/>
<text text-anchor="middle" x="1259" y="-1382.2" font-family="Times,serif" font-size="36.00">runner</text>
</a>
</g>
</g>
<!-- signatures&#45;&gt;messages -->
<g id="edge46" class="edge">
<title>signatures&#45;&gt;messages</title>
<path fill="none" stroke="black" d="M2167.17,-409.73C2173.32,-375.71 2179.28,-311.99 2149,-271.06 2040.37,-124.2 1822.6,-76.49 1681.72,-61.12"/>
<polygon fill="black" stroke="black" points="1682.27,-57.66 1671.96,-60.1 1681.54,-64.62 1682.27,-57.66"/>
</g>
<!-- signatures&#45;&gt;vartypes -->
<g id="edge45" class="edge">
<title>signatures&#45;&gt;vartypes</title>
<path fill="none" stroke="black" d="M2140.82,-410.59C2123.95,-392.73 2099.91,-367.29 2079.76,-345.96"/>
<polygon fill="black" stroke="black" points="2082.42,-343.68 2073.01,-338.82 2077.33,-348.49 2082.42,-343.68"/>
</g>
<!-- startingvars&#45;&gt;args -->
<g id="edge76" class="edge">
<title>startingvars&#45;&gt;args</title>
<path fill="none" stroke="black" d="M2008.09,-1109.9C1774.49,-1110.84 1159.09,-1104.21 981,-1011.71 908.1,-973.85 929.07,-917.72 862,-870.29 773.61,-807.78 705.29,-866 634,-784.52 609.3,-756.29 592.97,-649.27 585.94,-593.41"/>
<polygon fill="black" stroke="black" points="589.45,-593.31 584.76,-583.81 582.5,-594.17 589.45,-593.31"/>
</g>
<!-- startingvars&#45;&gt;env -->
<g id="edge78" class="edge">
<title>startingvars&#45;&gt;env</title>
<path fill="none" stroke="black" d="M2178.79,-1098.37C2237.3,-1086.61 2314.8,-1062.14 2364,-1011.71 2410.35,-964.2 2384.99,-930.92 2412,-870.29 2430.33,-829.13 2456.47,-784.28 2474.27,-755.23"/>
<polygon fill="black" stroke="black" points="2477.12,-757.29 2479.4,-746.94 2471.16,-753.6 2477.12,-757.29"/>
</g>
<!-- startingvars&#45;&gt;functions -->
<g id="edge84" class="edge">
<title>startingvars&#45;&gt;functions</title>
<path fill="none" stroke="black" d="M2096.38,-1085.59C2091.54,-1042.8 2080.71,-949.09 2070,-870.29 2066.72,-846.12 2062.84,-819.76 2059.27,-796.15"/>
<polygon fill="black" stroke="black" points="2062.73,-795.66 2057.77,-786.3 2055.81,-796.71 2062.73,-795.66"/>
</g>
<!-- startingvars&#45;&gt;messages -->
<g id="edge77" class="edge">
<title>startingvars&#45;&gt;messages</title>
<path fill="none" stroke="black" d="M2185.25,-1102.3C2266.3,-1092.6 2388.23,-1068.99 2478,-1011.71 2701.05,-869.39 2884.8,-785.72 2825,-527.98 2782.4,-344.37 2779.96,-251.93 2616,-158.96 2459.47,-70.2 1930.41,-55.66 1681.51,-53.84"/>
<polygon fill="black" stroke="black" points="1681.77,-50.35 1671.74,-53.78 1681.72,-57.35 1681.77,-50.35"/>
</g>
<!-- startingvars&#45;&gt;opresult -->
<g id="edge82" class="edge">
<title>startingvars&#45;&gt;opresult</title>
<path fill="none" stroke="black" d="M2081.82,-1086C2067.7,-1066.65 2047.56,-1038.01 2032,-1011.71 1996.19,-951.18 2011.4,-919.34 1961,-870.29 1896.63,-807.64 1851.82,-835.69 1778,-784.52 1615.9,-672.14 1584.29,-625.49 1471,-464.02 1434.29,-411.69 1420.25,-399.57 1400,-338.94 1386.71,-299.13 1382.18,-250.84 1380.67,-218.87"/>
<polygon fill="black" stroke="black" points="1384.17,-218.83 1380.29,-208.97 1377.18,-219.1 1384.17,-218.83"/>
</g>
<!-- startingvars&#45;&gt;readjson -->
<g id="edge81" class="edge">
<title>startingvars&#45;&gt;readjson</title>
<path fill="none" stroke="black" d="M2091.91,-1085.86C2085.92,-1066.18 2077.21,-1037.15 2070,-1011.71 2052.26,-949.09 2074.4,-919.67 2032,-870.29 1970.32,-798.45 1899.47,-855.66 1837,-784.52 1789.11,-729.98 1775.91,-642.32 1772.31,-593.92"/>
<polygon fill="black" stroke="black" points="1775.81,-593.77 1771.68,-584.01 1768.82,-594.21 1775.81,-593.77"/>
</g>
<!-- startingvars&#45;&gt;runCommand -->
<g id="edge83" class="edge">
<title>startingvars&#45;&gt;runCommand</title>
<path fill="none" stroke="black" d="M2044.66,-1090.33C1985.22,-1069.9 1886.66,-1036.03 1798.71,-1005.82"/>
<polygon fill="black" stroke="black" points="1800.07,-1002.58 1789.48,-1002.64 1797.8,-1009.2 1800.07,-1002.58"/>
</g>
<!-- startingvars&#45;&gt;variables -->
<g id="edge79" class="edge">
<title>startingvars&#45;&gt;variables</title>
<path fill="none" stroke="black" d="M2177.08,-1097.47C2242.04,-1084.87 2334.45,-1059.73 2402,-1011.71 2486.35,-951.76 2662.29,-684.71 2722.37,-591.35"/>
<polygon fill="black" stroke="black" points="2725.19,-593.44 2727.65,-583.13 2719.3,-589.65 2725.19,-593.44"/>
</g>
<!-- startingvars&#45;&gt;vartypes -->
<g id="edge80" class="edge">
<title>startingvars&#45;&gt;vartypes</title>
<path fill="none" stroke="black" d="M2132.42,-1087.15C2199.69,-1040.92 2349.78,-925.74 2406,-784.52 2426.23,-733.71 2419.77,-714.4 2406,-661.48 2396.59,-625.3 2378.5,-622.89 2365,-588.02 2334.68,-509.68 2378.13,-466.47 2322,-403.98 2308.32,-388.75 2203.59,-354.63 2126.21,-330.97"/>
<polygon fill="black" stroke="black" points="2127.52,-327.71 2116.94,-328.15 2125.48,-334.41 2127.52,-327.71"/>
</g>
<!-- statictea -->
<g id="node23" class="node">
<title>statictea</title>
<g id="a_node23"><a xlink:href="statictea.md" xlink:title="statictea.md">
<polygon fill="palegoldenrod" stroke="black" points="734,-1452 561,-1391 734,-1330 907,-1391 734,-1452"/>
<text text-anchor="middle" x="734" y="-1379.1" font-family="Times,serif" font-size="48.00">statictea</text>
</a>
</g>
</g>
<!-- statictea&#45;&gt;args -->
<g id="edge100" class="edge">
<title>statictea&#45;&gt;args</title>
<path fill="none" stroke="black" d="M654.13,-1357.93C564.06,-1315.85 430,-1232.78 430,-1111 430,-1111 430,-1111 430,-940 430,-812.99 436.74,-774.85 494,-661.48 508.46,-632.85 532.58,-605.57 551.92,-586.36"/>
<polygon fill="black" stroke="black" points="554.32,-588.91 559.06,-579.43 549.44,-583.88 554.32,-588.91"/>
</g>
<!-- statictea&#45;&gt;env -->
<g id="edge104" class="edge">
<title>statictea&#45;&gt;env</title>
<path fill="none" stroke="black" d="M815.77,-1358.38C846.73,-1347.66 882.56,-1336.7 916,-1330 1265.28,-1259.98 2238,-1367.57 2507,-1134.04 2596.64,-1056.23 2570.23,-987.08 2549,-870.29 2541.6,-829.57 2523.5,-785.45 2510.07,-756.43"/>
<polygon fill="black" stroke="black" points="2513.26,-755 2505.83,-747.45 2506.93,-757.99 2513.26,-755"/>
</g>
<!-- statictea&#45;&gt;gethelp -->
<g id="edge102" class="edge">
<title>statictea&#45;&gt;gethelp</title>
<path fill="none" stroke="black" d="M650.27,-1359.05C564.86,-1327.48 434.19,-1279.19 356.81,-1250.58"/>
<polygon fill="black" stroke="black" points="358.26,-1247.39 347.67,-1247.21 355.84,-1253.96 358.26,-1247.39"/>
</g>
<!-- statictea&#45;&gt;messages -->
<g id="edge101" class="edge">
<title>statictea&#45;&gt;messages</title>
<path fill="none" stroke="black" d="M601.97,-1376.12C484.13,-1359.73 309.46,-1325.38 172,-1256.02 82.73,-1210.98 0,-1210.99 0,-1111 0,-1111 0,-1111 0,-304 0,-193.48 98.19,-196.88 202,-158.96 422.95,-78.25 1124.17,-59.58 1418.23,-55.28"/>
<polygon fill="black" stroke="black" points="1417.9,-58.79 1427.85,-55.14 1417.8,-51.79 1417.9,-58.79"/>
</g>
<!-- statictea&#45;&gt;opresult -->
<g id="edge105" class="edge">
<title>statictea&#45;&gt;opresult</title>
<path fill="none" stroke="black" d="M637.77,-1363.53C577.92,-1342.8 503.09,-1308.51 453,-1256.02 404.73,-1205.44 392,-1180.92 392,-1111 392,-1111 392,-1111 392,-940 392,-615.6 410.76,-445.91 684,-271.06 785.04,-206.4 1142.8,-189.7 1302.29,-185.44"/>
<polygon fill="black" stroke="black" points="1302,-188.95 1311.91,-185.19 1301.82,-181.95 1302,-188.95"/>
</g>
<!-- statictea&#45;&gt;parseCommandLine -->
<g id="edge9" class="edge">
<title>statictea&#45;&gt;parseCommandLine</title>
<path fill="none" stroke="black" d="M606.64,-1374.38C469.06,-1354.68 262.8,-1315.96 213,-1256.02 90.3,-1108.36 142.77,-850.81 167.13,-758.3"/>
<polygon fill="black" stroke="black" points="170.46,-759.39 169.69,-748.82 163.7,-757.56 170.46,-759.39"/>
</g>
<!-- statictea&#45;&gt;processTemplate -->
<g id="edge87" class="edge">
<title>statictea&#45;&gt;processTemplate</title>
<path fill="none" stroke="black" d="M734,-1329.77C734,-1306.83 734,-1281.47 734,-1261.69"/>
<polygon fill="black" stroke="black" points="737.5,-1261.97 734,-1251.97 730.5,-1261.97 737.5,-1261.97"/>
</g>
<!-- statictea&#45;&gt;repl -->
<g id="edge117" class="edge">
<title>statictea&#45;&gt;repl</title>
<path fill="none" stroke="black" d="M793.48,-1350.75C840.98,-1319.4 905.96,-1276.52 945.62,-1250.35"/>
<polygon fill="black" stroke="black" points="947.45,-1253.33 953.87,-1244.9 943.6,-1247.49 947.45,-1253.33"/>
</g>
<!-- timer -->
<g id="node25" class="node">
<title>timer</title>
<g id="a_node25"><a xlink:href="timer.md" xlink:title="timer.md">
<polygon fill="palegreen" stroke="black" points="1859.09,-1215.21 1859.09,-1236.79 1828.58,-1252.04 1785.42,-1252.04 1754.91,-1236.79 1754.91,-1215.21 1785.42,-1199.96 1828.58,-1199.96 1859.09,-1215.21"/>
<polygon fill="none" stroke="black" points="1863.09,-1212.74 1863.09,-1239.26 1829.52,-1256.04 1784.48,-1256.04 1750.91,-1239.26 1750.91,-1212.74 1784.48,-1195.96 1829.52,-1195.96 1863.09,-1212.74"/>
<text text-anchor="middle" x="1807" y="-1219.8" font-family="Times,serif" font-size="24.00">timer</text>
</a>
</g>
</g>
<!-- statictea&#45;&gt;timer -->
<g id="edge118" class="edge">
<title>statictea&#45;&gt;timer</title>
<path fill="none" stroke="black" d="M815.81,-1358.6C846.77,-1347.9 882.6,-1336.9 916,-1330 1276.95,-1255.37 1385.3,-1348.86 1742,-1256.02 1746.57,-1254.83 1751.23,-1253.35 1755.85,-1251.69"/>
<polygon fill="black" stroke="black" points="1757.03,-1254.99 1765.07,-1248.09 1754.48,-1248.46 1757.03,-1254.99"/>
</g>
<!-- updateTemplate -->
<g id="node27" class="node">
<title>updateTemplate</title>
<g id="a_node27"><a xlink:href="updateTemplate.md" xlink:title="updateTemplate.md">
<ellipse fill="palegoldenrod" stroke="black" cx="1613" cy="-1226" rx="119.5" ry="24.08"/>
<text text-anchor="middle" x="1613" y="-1219.8" font-family="Times,serif" font-size="24.00">updateTemplate</text>
</a>
</g>
</g>
<!-- statictea&#45;&gt;updateTemplate -->
<g id="edge99" class="edge">
<title>statictea&#45;&gt;updateTemplate</title>
<path fill="none" stroke="black" d="M817.41,-1359.17C848.08,-1348.72 883.3,-1337.75 916,-1330 1116.63,-1282.48 1355.24,-1252.88 1494.82,-1238.21"/>
<polygon fill="black" stroke="black" points="1494.85,-1241.72 1504.44,-1237.21 1494.13,-1234.76 1494.85,-1241.72"/>
</g>
<!-- version -->
<g id="node31" class="node">
<title>version</title>
<g id="a_node31"><a xlink:href="version.md" xlink:title="version.md">
<polygon fill="palegreen" stroke="black" points="2963.67,-423.21 2963.67,-444.79 2924.62,-460.04 2869.38,-460.04 2830.33,-444.79 2830.33,-423.21 2869.38,-407.96 2924.62,-407.96 2963.67,-423.21"/>
<polygon fill="none" stroke="black" points="2967.67,-420.48 2967.67,-447.52 2925.37,-464.04 2868.63,-464.04 2826.33,-447.52 2826.33,-420.48 2868.63,-403.96 2925.37,-403.96 2967.67,-420.48"/>
<text text-anchor="middle" x="2897" y="-427.8" font-family="Times,serif" font-size="24.00">version</text>
</a>
</g>
</g>
<!-- statictea&#45;&gt;version -->
<g id="edge103" class="edge">
<title>statictea&#45;&gt;version</title>
<path fill="none" stroke="black" d="M814.78,-1358.27C845.93,-1347.39 882.16,-1336.36 916,-1330 1522.69,-1215.92 1690.28,-1331.22 2303,-1256.02 2598.94,-1219.7 2958,-1409.16 2958,-1111 2958,-1111 2958,-1111 2958,-722 2958,-632.17 2929.05,-529.91 2911.04,-474.97"/>
<polygon fill="black" stroke="black" points="2914.45,-474.13 2907.96,-465.75 2907.81,-476.34 2914.45,-474.13"/>
</g>
<!-- unicodes&#45;&gt;messages -->
<g id="edge41" class="edge">
<title>unicodes&#45;&gt;messages</title>
<path fill="none" stroke="black" d="M1636.37,-412.26C1659.19,-395.56 1687.93,-369.83 1701,-338.94 1712.76,-311.16 1710.03,-299.85 1701,-271.06 1680.67,-206.24 1633.39,-143.84 1597.11,-102.71"/>
<polygon fill="black" stroke="black" points="1599.84,-100.51 1590.56,-95.39 1594.62,-105.17 1599.84,-100.51"/>
</g>
<!-- unicodes&#45;&gt;opresult -->
<g id="edge40" class="edge">
<title>unicodes&#45;&gt;opresult</title>
<path fill="none" stroke="black" d="M1568.79,-412.65C1541.07,-395.45 1502.64,-368.88 1475,-338.94 1470.22,-333.77 1425.88,-260.41 1399.5,-216.51"/>
<polygon fill="black" stroke="black" points="1402.61,-214.91 1394.46,-208.14 1396.61,-218.51 1402.61,-214.91"/>
</g>
<!-- unicodes&#45;&gt;utf8decoder -->
<g id="edge42" class="edge">
<title>unicodes&#45;&gt;utf8decoder</title>
<path fill="none" stroke="black" d="M1601.07,-409.71C1598.85,-392.15 1595.76,-367.61 1593.14,-346.82"/>
<polygon fill="black" stroke="black" points="1596.62,-346.39 1591.89,-336.91 1589.67,-347.27 1596.62,-346.39"/>
</g>
<!-- unicodes&#45;&gt;vartypes -->
<g id="edge43" class="edge">
<title>unicodes&#45;&gt;vartypes</title>
<path fill="none" stroke="black" d="M1657.27,-417.55C1731.9,-395.92 1868.37,-356.35 1957.09,-330.62"/>
<polygon fill="black" stroke="black" points="1957.85,-334.04 1966.48,-327.9 1955.9,-327.32 1957.85,-334.04"/>
</g>
<!-- updateTemplate&#45;&gt;args -->
<g id="edge88" class="edge">
<title>updateTemplate&#45;&gt;args</title>
<path fill="none" stroke="black" d="M1496.39,-1220.24C1379.9,-1212.27 1197.43,-1190.98 1050,-1134.04 931.22,-1088.17 652.86,-898.44 596,-784.52 565.22,-722.85 570.1,-639.6 576.18,-593.44"/>
<polygon fill="black" stroke="black" points="579.62,-594.16 577.56,-583.77 572.69,-593.17 579.62,-594.16"/>
</g>
<!-- updateTemplate&#45;&gt;env -->
<g id="edge90" class="edge">
<title>updateTemplate&#45;&gt;env</title>
<path fill="none" stroke="black" d="M1686.34,-1206.67C1704.44,-1202.65 1723.85,-1198.77 1742,-1195.98 1823.11,-1183.5 2421.29,-1193.36 2478,-1134.04 2577.48,-1029.99 2529.89,-834.74 2505.42,-757.08"/>
<polygon fill="black" stroke="black" points="2508.87,-756.38 2502.46,-747.94 2502.21,-758.53 2508.87,-756.38"/>
</g>
<!-- updateTemplate&#45;&gt;linebuffer -->
<g id="edge91" class="edge">
<title>updateTemplate&#45;&gt;linebuffer</title>
<path fill="none" stroke="black" d="M1545.14,-1205.77C1461.97,-1178.13 1324.72,-1118.36 1265,-1011.71 1220.08,-931.5 1266.45,-821.22 1297.63,-763.25"/>
<polygon fill="black" stroke="black" points="1300.57,-765.17 1302.33,-754.72 1294.44,-761.79 1300.57,-765.17"/>
</g>
<!-- updateTemplate&#45;&gt;messages -->
<g id="edge89" class="edge">
<title>updateTemplate&#45;&gt;messages</title>
<path fill="none" stroke="black" d="M1685.61,-1206.46C1703.91,-1202.4 1723.58,-1198.55 1742,-1195.98 1862.8,-1179.09 2744.91,-1212.85 2838,-1134.04 3081.11,-928.24 2996,-753.52 2996,-435 2996,-435 2996,-435 2996,-304 2996,-142.98 2819.9,-199.25 2664,-158.96 2481.43,-111.77 1935.09,-75.79 1681.72,-61.16"/>
<polygon fill="black" stroke="black" points="1681.94,-57.67 1671.76,-60.59 1681.54,-64.65 1681.94,-57.67"/>
</g>
<!-- updateTemplate&#45;&gt;opresult -->
<g id="edge98" class="edge">
<title>updateTemplate&#45;&gt;opresult</title>
<path fill="none" stroke="black" d="M1686.34,-1206.63C1704.44,-1202.61 1723.84,-1198.74 1742,-1195.98 1910.61,-1170.31 2364.48,-1227.74 2507,-1134.04 2685.51,-1016.68 2613.2,-874.34 2595,-661.48 2589.87,-601.49 2603.69,-579.17 2572,-527.98 2547.49,-488.37 2444.75,-424.64 2403,-403.98 2311.24,-358.56 2260.16,-405.08 2182,-338.94 2156.39,-317.27 2176.39,-290.43 2149,-271.06 2039.23,-193.43 1631.12,-183.97 1458.21,-183.54"/>
<polygon fill="black" stroke="black" points="1458.44,-180.04 1448.43,-183.52 1458.43,-187.04 1458.44,-180.04"/>
</g>
<!-- updateTemplate&#45;&gt;parseCmdLine -->
<g id="edge92" class="edge">
<title>updateTemplate&#45;&gt;parseCmdLine</title>
<path fill="none" stroke="black" d="M1508.09,-1214.18C1416.94,-1202.26 1282.68,-1178.56 1173,-1134.04 1079.25,-1095.99 1034.35,-1097.68 981,-1011.71 931.66,-932.21 937.71,-816.1 944.66,-758.73"/>
<polygon fill="black" stroke="black" points="948.12,-759.28 945.94,-748.91 941.18,-758.38 948.12,-759.28"/>
</g>
<!-- updateTemplate&#45;&gt;replacement -->
<g id="edge96" class="edge">
<title>updateTemplate&#45;&gt;replacement</title>
<path fill="none" stroke="black" d="M1499.68,-1217.99C1419.45,-1208.47 1312.28,-1186.17 1232,-1134.04 1170.35,-1094.01 1124.28,-1018.92 1101.3,-975.44"/>
<polygon fill="black" stroke="black" points="1104.49,-973.99 1096.79,-966.72 1098.27,-977.21 1104.49,-973.99"/>
</g>
<!-- updateTemplate&#45;&gt;runCommand -->
<g id="edge93" class="edge">
<title>updateTemplate&#45;&gt;runCommand</title>
<path fill="none" stroke="black" d="M1613,-1201.84C1613,-1163.32 1613,-1084.29 1613,-1023.45"/>
<polygon fill="black" stroke="black" points="1616.5,-1023.83 1613,-1013.83 1609.5,-1023.83 1616.5,-1023.83"/>
</g>
<!-- updateTemplate&#45;&gt;startingvars -->
<g id="edge97" class="edge">
<title>updateTemplate&#45;&gt;startingvars</title>
<path fill="none" stroke="black" d="M1689.47,-1207.06C1780.06,-1185.81 1930.12,-1150.61 2021.26,-1129.24"/>
<polygon fill="black" stroke="black" points="2021.94,-1132.67 2030.87,-1126.98 2020.34,-1125.86 2021.94,-1132.67"/>
</g>
<!-- updateTemplate&#45;&gt;variables -->
<g id="edge94" class="edge">
<title>updateTemplate&#45;&gt;variables</title>
<path fill="none" stroke="black" d="M1685.62,-1206.5C1703.91,-1202.44 1723.59,-1198.58 1742,-1195.98 1856.62,-1179.78 2702.62,-1218.29 2782,-1134.04 2854.01,-1057.61 2800.99,-764.76 2782,-661.48 2777.59,-637.47 2767.81,-611.8 2759.14,-592.15"/>
<polygon fill="black" stroke="black" points="2762.44,-590.94 2755.12,-583.29 2756.07,-593.84 2762.44,-590.94"/>
</g>
<!-- updateTemplate&#45;&gt;vartypes -->
<g id="edge95" class="edge">
<title>updateTemplate&#45;&gt;vartypes</title>
<path fill="none" stroke="black" d="M1685.62,-1206.49C1703.91,-1202.42 1723.59,-1198.57 1742,-1195.98 1859.38,-1179.47 2717.83,-1212.14 2807,-1134.04 2872.39,-1076.77 2844,-1028.92 2844,-942 2844,-942 2844,-942 2844,-722 2844,-635.36 2878.08,-596.46 2825,-527.98 2741.19,-419.85 2336.17,-348.29 2143.82,-319.85"/>
<polygon fill="black" stroke="black" points="2144.49,-316.41 2134.08,-318.42 2143.47,-323.33 2144.49,-316.41"/>
</g>
<!-- variables&#45;&gt;messages -->
<g id="edge32" class="edge">
<title>variables&#45;&gt;messages</title>
<path fill="none" stroke="black" d="M2741.4,-533.67C2735.24,-463.52 2706.51,-253.51 2580,-158.96 2509.47,-106.24 1943.38,-72.73 1681.74,-59.91"/>
<polygon fill="black" stroke="black" points="1681.95,-56.42 1671.79,-59.43 1681.61,-63.41 1681.95,-56.42"/>
</g>
<!-- variables&#45;&gt;opresult -->
<g id="edge33" class="edge">
<title>variables&#45;&gt;opresult</title>
<path fill="none" stroke="black" d="M2713.48,-535.65C2669.33,-504.3 2582.86,-445.08 2504,-403.98 2366.71,-332.42 2332.02,-309.33 2182,-271.06 1922.37,-204.82 1602.87,-188.96 1458,-185.18"/>
<polygon fill="black" stroke="black" points="1458.21,-181.68 1448.13,-184.93 1458.04,-188.68 1458.21,-181.68"/>
</g>
<!-- variables&#45;&gt;vartypes -->
<g id="edge30" class="edge">
<title>variables&#45;&gt;vartypes</title>
<path fill="none" stroke="black" d="M2692.85,-540.31C2645.45,-523.69 2573.01,-496.08 2514,-464.02 2473.04,-441.77 2470.39,-423.37 2428,-403.98 2401.17,-391.7 2238.48,-352.23 2133.05,-327.29"/>
<polygon fill="black" stroke="black" points="2134.09,-323.94 2123.56,-325.05 2132.49,-330.75 2134.09,-323.94"/>
</g>
<!-- variables&#45;&gt;version -->
<g id="edge31" class="edge">
<title>variables&#45;&gt;version</title>
<path fill="none" stroke="black" d="M2770.18,-535.47C2793.37,-517.09 2827.14,-490.34 2854,-469.06"/>
<polygon fill="black" stroke="black" points="2855.97,-471.97 2861.63,-463.02 2851.62,-466.48 2855.97,-471.97"/>
</g>
<!-- vartypes&#45;&gt;messages -->
<g id="edge26" class="edge">
<title>vartypes&#45;&gt;messages</title>
<path fill="none" stroke="black" d="M1999.29,-274.11C1953.72,-243 1878.78,-194 1810,-158.96 1756.45,-131.67 1694.07,-106.29 1643.84,-87.33"/>
<polygon fill="black" stroke="black" points="1645.33,-84.15 1634.73,-83.91 1642.87,-90.7 1645.33,-84.15"/>
</g>
<!-- vartypes&#45;&gt;opresult -->
<g id="edge27" class="edge">
<title>vartypes&#45;&gt;opresult</title>
<path fill="none" stroke="black" d="M1956.13,-288.44C1823.65,-264.42 1571.99,-218.8 1449.9,-196.67"/>
<polygon fill="black" stroke="black" points="1450.81,-193.28 1440.34,-194.94 1449.56,-200.17 1450.81,-193.28"/>
</g>
</g>
</svg>
