<?xml version="1.0" encoding="UTF-8" standalone="no"?>
<!DOCTYPE svg PUBLIC "-//W3C//DTD SVG 1.1//EN"
 "http://www.w3.org/Graphics/SVG/1.1/DTD/svg11.dtd">
<!-- Generated by graphviz version 2.40.1 (20161225.0304)
 -->
<!-- Title: statictea Pages: 1 -->
<svg width="720pt" height="338pt"
 viewBox="0.00 0.00 720.00 338.39" xmlns="http://www.w3.org/2000/svg" xmlns:xlink="http://www.w3.org/1999/xlink">
<g id="graph0" class="graph" transform="scale(.2583 .2583) rotate(0) translate(4 1305.9973)">
<title>statictea</title>
<polygon fill="#ffffff" stroke="transparent" points="-4,4 -4,-1305.9973 2783.2978,-1305.9973 2783.2978,4 -4,4"/>
<!-- runFunction -->
<g id="node1" class="node">
<title>runFunction</title>
<g id="a_node1"><a xlink:href="runFunction.md" xlink:title="runFunction.md">
<ellipse fill="#eee8aa" stroke="#000000" cx="773.2978" cy="-869" rx="94.055" ry="22.7556"/>
<text text-anchor="middle" x="773.2978" y="-861.8" font-family="Times,serif" font-size="24.00" fill="#000000">runFunction</text>
</a>
</g>
</g>
<!-- parseNumber -->
<g id="node3" class="node">
<title>parseNumber</title>
<g id="a_node3"><a xlink:href="parseNumber.md" xlink:title="parseNumber.md">
<polygon fill="#98fb98" stroke="#000000" points="1225.6783,-728.8581 1225.6783,-749.1419 1160.4331,-763.4846 1068.1625,-763.4846 1002.9173,-749.1419 1002.9173,-728.8581 1068.1625,-714.5154 1160.4331,-714.5154 1225.6783,-728.8581"/>
<polygon fill="none" stroke="#000000" points="1229.685,-725.6442 1229.685,-752.3558 1160.8691,-767.4835 1067.7264,-767.4835 998.9105,-752.3558 998.9105,-725.6442 1067.7264,-710.5165 1160.8691,-710.5165 1229.685,-725.6442"/>
<text text-anchor="middle" x="1114.2978" y="-731.8" font-family="Times,serif" font-size="24.00" fill="#000000">parseNumber</text>
</a>
</g>
</g>
<!-- runFunction&#45;&gt;parseNumber -->
<g id="edge63" class="edge">
<title>runFunction&#45;&gt;parseNumber</title>
<path fill="none" stroke="#000000" d="M823.6135,-849.8181C880.8252,-828.0072 974.7703,-792.1923 1040.3243,-767.201"/>
<polygon fill="#000000" stroke="#000000" points="1041.6853,-770.428 1049.7825,-763.5953 1039.1917,-763.8872 1041.6853,-770.428"/>
</g>
<!-- regexes -->
<g id="node4" class="node">
<title>regexes</title>
<g id="a_node4"><a xlink:href="regexes.md" xlink:title="regexes.md">
<polygon fill="#98fb98" stroke="#000000" points="1735.4848,-449.8581 1735.4848,-470.1419 1695.5418,-484.4846 1639.0538,-484.4846 1599.1108,-470.1419 1599.1108,-449.8581 1639.0538,-435.5154 1695.5418,-435.5154 1735.4848,-449.8581"/>
<polygon fill="none" stroke="#000000" points="1739.4759,-447.0434 1739.4759,-472.9566 1696.2354,-488.4835 1638.3602,-488.4835 1595.1196,-472.9566 1595.1196,-447.0434 1638.3602,-431.5165 1696.2354,-431.5165 1739.4759,-447.0434"/>
<text text-anchor="middle" x="1667.2978" y="-452.8" font-family="Times,serif" font-size="24.00" fill="#000000">regexes</text>
</a>
</g>
</g>
<!-- runFunction&#45;&gt;regexes -->
<g id="edge62" class="edge">
<title>runFunction&#45;&gt;regexes</title>
<path fill="none" stroke="#000000" d="M794.445,-846.7912C832.562,-807.2819 912.0925,-727.3418 947.2978,-710.5083 1162.7352,-607.4963 1262.3126,-730.3501 1478.2978,-628.4917 1512.8529,-612.1956 1587.6183,-540.3486 1632.0576,-495.9016"/>
<polygon fill="#000000" stroke="#000000" points="1634.6067,-498.302 1639.1852,-488.7476 1629.6478,-493.3614 1634.6067,-498.302"/>
</g>
<!-- unicodes -->
<g id="node8" class="node">
<title>unicodes</title>
<g id="a_node8"><a xlink:href="unicodes.md" xlink:title="unicodes.md">
<ellipse fill="#eee8aa" stroke="#000000" cx="237.2978" cy="-460" rx="71.7778" ry="22.7556"/>
<text text-anchor="middle" x="237.2978" y="-452.8" font-family="Times,serif" font-size="24.00" fill="#000000">unicodes</text>
</a>
</g>
</g>
<!-- runFunction&#45;&gt;unicodes -->
<g id="edge72" class="edge">
<title>runFunction&#45;&gt;unicodes</title>
<path fill="none" stroke="#000000" d="M691.1875,-857.7659C585.6376,-841.837 410.1291,-809.8493 361.2978,-767.4917 277.2399,-694.5777 249.4236,-556.4406 240.8412,-493.1643"/>
<polygon fill="#000000" stroke="#000000" points="244.2768,-492.437 239.5377,-482.9612 237.3333,-493.3241 244.2768,-492.437"/>
</g>
<!-- vartypes -->
<g id="node11" class="node">
<title>vartypes</title>
<g id="a_node11"><a xlink:href="vartypes.md" xlink:title="vartypes.md">
<ellipse fill="#eee8aa" stroke="#000000" cx="711.2978" cy="-460" rx="68.6102" ry="22.7556"/>
<text text-anchor="middle" x="711.2978" y="-452.8" font-family="Times,serif" font-size="24.00" fill="#000000">vartypes</text>
</a>
</g>
</g>
<!-- runFunction&#45;&gt;vartypes -->
<g id="edge61" class="edge">
<title>runFunction&#45;&gt;vartypes</title>
<path fill="none" stroke="#000000" d="M709.2839,-852.1364C667.1102,-837.3337 615.0799,-811.1603 589.2978,-767.4917 545.0136,-692.4852 554.1665,-651.2131 589.2978,-571.5083 605.4499,-534.8629 640.2499,-505.0322 668.565,-485.4772"/>
<polygon fill="#000000" stroke="#000000" points="670.7607,-488.2189 677.1164,-479.7421 666.8617,-482.4053 670.7607,-488.2189"/>
</g>
<!-- funtypes -->
<g id="node14" class="node">
<title>funtypes</title>
<g id="a_node14"><a xlink:href="funtypes.md" xlink:title="funtypes.md">
<ellipse fill="#eee8aa" stroke="#000000" cx="894.2978" cy="-600" rx="69.5163" ry="22.7556"/>
<text text-anchor="middle" x="894.2978" y="-592.8" font-family="Times,serif" font-size="24.00" fill="#000000">funtypes</text>
</a>
</g>
</g>
<!-- runFunction&#45;&gt;funtypes -->
<g id="edge77" class="edge">
<title>runFunction&#45;&gt;funtypes</title>
<path fill="none" stroke="#000000" d="M783.1502,-846.3762C796.5948,-815.5767 821.5106,-758.7584 843.2978,-710.5083 855.3418,-683.8355 869.2819,-653.677 879.5409,-631.612"/>
<polygon fill="#000000" stroke="#000000" points="882.7886,-632.9285 883.8355,-622.3855 876.4424,-629.9746 882.7886,-632.9285"/>
</g>
<!-- warnings -->
<g id="node16" class="node">
<title>warnings</title>
<g id="a_node16"><a xlink:href="warnings.md" xlink:title="warnings.md">
<ellipse fill="#eee8aa" stroke="#000000" cx="1257.2978" cy="-182" rx="73.5561" ry="22.7556"/>
<text text-anchor="middle" x="1257.2978" y="-174.8" font-family="Times,serif" font-size="24.00" fill="#000000">warnings</text>
</a>
</g>
</g>
<!-- runFunction&#45;&gt;warnings -->
<g id="edge60" class="edge">
<title>runFunction&#45;&gt;warnings</title>
<path fill="none" stroke="#000000" d="M790.0341,-846.5915C804.8064,-826.3927 826.5362,-795.6305 843.2978,-767.4917 857.8405,-743.0779 854.4347,-732.609 872.2978,-710.5083 908.6468,-665.5361 934.8379,-671.6725 973.2978,-628.4917 1097.2283,-489.3489 1203.0536,-290.4174 1241.6695,-213.779"/>
<polygon fill="#000000" stroke="#000000" points="1244.9025,-215.1396 1246.2516,-204.631 1238.6437,-212.0046 1244.9025,-215.1396"/>
</g>
<!-- signatures -->
<g id="node20" class="node">
<title>signatures</title>
<g id="a_node20"><a xlink:href="signatures.md" xlink:title="signatures.md">
<ellipse fill="#eee8aa" stroke="#000000" cx="711.2978" cy="-739" rx="80.2483" ry="22.7556"/>
<text text-anchor="middle" x="711.2978" y="-731.8" font-family="Times,serif" font-size="24.00" fill="#000000">signatures</text>
</a>
</g>
</g>
<!-- runFunction&#45;&gt;signatures -->
<g id="edge76" class="edge">
<title>runFunction&#45;&gt;signatures</title>
<path fill="none" stroke="#000000" d="M762.4982,-846.3557C752.5575,-825.5123 737.7083,-794.3769 726.5575,-770.9962"/>
<polygon fill="#000000" stroke="#000000" points="729.6455,-769.3403 722.1816,-761.821 723.3273,-772.3537 729.6455,-769.3403"/>
</g>
<!-- opresultwarn -->
<g id="node22" class="node">
<title>opresultwarn</title>
<g id="a_node22"><a xlink:href="opresultwarn.md" xlink:title="opresultwarn.md">
<ellipse fill="#eee8aa" stroke="#000000" cx="712.2978" cy="-321" rx="99.824" ry="22.7556"/>
<text text-anchor="middle" x="712.2978" y="-313.8" font-family="Times,serif" font-size="24.00" fill="#000000">opresultwarn</text>
</a>
</g>
</g>
<!-- runFunction&#45;&gt;opresultwarn -->
<g id="edge78" class="edge">
<title>runFunction&#45;&gt;opresultwarn</title>
<path fill="none" stroke="#000000" d="M699.6109,-854.7735C651.2169,-841.1944 591.4751,-815.3993 561.2978,-767.4917 472.2985,-626.2025 621.1337,-426.4583 685.1861,-351.228"/>
<polygon fill="#000000" stroke="#000000" points="687.9602,-353.3703 691.8344,-343.5092 682.6563,-348.8019 687.9602,-353.3703"/>
</g>
<!-- messages -->
<g id="node23" class="node">
<title>messages</title>
<g id="a_node23"><a xlink:href="messages.md" xlink:title="messages.md">
<polygon fill="#98fb98" stroke="#000000" points="1642.0366,-32.8581 1642.0366,-53.1419 1594.1551,-67.4846 1526.4404,-67.4846 1478.5589,-53.1419 1478.5589,-32.8581 1526.4404,-18.5154 1594.1551,-18.5154 1642.0366,-32.8581"/>
<polygon fill="none" stroke="#000000" points="1646.0423,-29.883 1646.0423,-56.117 1594.7431,-71.4835 1525.8524,-71.4835 1474.5532,-56.117 1474.5532,-29.883 1525.8524,-14.5165 1594.7431,-14.5165 1646.0423,-29.883"/>
<text text-anchor="middle" x="1560.2978" y="-35.8" font-family="Times,serif" font-size="24.00" fill="#000000">messages</text>
</a>
</g>
</g>
<!-- runFunction&#45;&gt;messages -->
<g id="edge59" class="edge">
<title>runFunction&#45;&gt;messages</title>
<path fill="none" stroke="#000000" d="M691.9853,-857.396C637.7494,-844.9933 570.2148,-819.5265 535.2978,-767.4917 416.4698,-590.4096 469.0191,-458.1809 603.2978,-292.5083 678.0257,-200.3091 719.7709,-194.0878 831.2978,-153.5083 945.9979,-111.7741 1294.345,-70.895 1464.5907,-52.7559"/>
<polygon fill="#000000" stroke="#000000" points="1464.9746,-56.2349 1474.5494,-51.6992 1464.2359,-49.274 1464.9746,-56.2349"/>
</g>
<!-- matches -->
<g id="node24" class="node">
<title>matches</title>
<g id="a_node24"><a xlink:href="matches.md" xlink:title="matches.md">
<ellipse fill="#eee8aa" stroke="#000000" cx="1730.2978" cy="-600" rx="66.8311" ry="22.7556"/>
<text text-anchor="middle" x="1730.2978" y="-592.8" font-family="Times,serif" font-size="24.00" fill="#000000">matches</text>
</a>
</g>
</g>
<!-- runFunction&#45;&gt;matches -->
<g id="edge64" class="edge">
<title>runFunction&#45;&gt;matches</title>
<path fill="none" stroke="#000000" d="M818.287,-848.9401C855.4312,-830.998 908.2055,-802.2118 947.2978,-767.4917 971.0199,-746.4228 963.0038,-726.6848 990.2978,-710.5083 1206.3127,-582.4812 1301.0472,-666.2413 1549.2978,-628.4917 1585.6361,-622.966 1626.0451,-616.6241 1659.4471,-611.3284"/>
<polygon fill="#000000" stroke="#000000" points="1660.2484,-614.7451 1669.576,-609.7206 1659.151,-607.8317 1660.2484,-614.7451"/>
</g>
<!-- opresultid -->
<g id="node2" class="node">
<title>opresultid</title>
<g id="a_node2"><a xlink:href="opresultid.md" xlink:title="opresultid.md">
<ellipse fill="#eee8aa" stroke="#000000" cx="401.2978" cy="-321" rx="79.3758" ry="22.7556"/>
<text text-anchor="middle" x="401.2978" y="-313.8" font-family="Times,serif" font-size="24.00" fill="#000000">opresultid</text>
</a>
</g>
</g>
<!-- opresultid&#45;&gt;messages -->
<g id="edge65" class="edge">
<title>opresultid&#45;&gt;messages</title>
<path fill="none" stroke="#000000" d="M392.0861,-298.3927C379.206,-262.6824 361.1902,-193.2094 397.2978,-153.5083 468.6209,-75.0868 1199.0724,-51.0513 1464.5348,-44.8738"/>
<polygon fill="#000000" stroke="#000000" points="1464.625,-48.3727 1474.5421,-44.6442 1464.4645,-41.3745 1464.625,-48.3727"/>
</g>
<!-- opresult -->
<g id="node29" class="node">
<title>opresult</title>
<g id="a_node29"><a xlink:href="opresult.md" xlink:title="opresult.md">
<polygon fill="#98fb98" stroke="#000000" points="552.6504,-171.8581 552.6504,-192.1419 510.853,-206.4846 451.7425,-206.4846 409.9451,-192.1419 409.9451,-171.8581 451.7425,-157.5154 510.853,-157.5154 552.6504,-171.8581"/>
<polygon fill="none" stroke="#000000" points="556.6464,-169.0019 556.6464,-194.9981 511.5191,-210.4835 451.0765,-210.4835 405.9492,-194.9981 405.9492,-169.0019 451.0765,-153.5165 511.5191,-153.5165 556.6464,-169.0019"/>
<text text-anchor="middle" x="481.2978" y="-174.8" font-family="Times,serif" font-size="24.00" fill="#000000">opresult</text>
</a>
</g>
</g>
<!-- opresultid&#45;&gt;opresult -->
<g id="edge66" class="edge">
<title>opresultid&#45;&gt;opresult</title>
<path fill="none" stroke="#000000" d="M414.1512,-298.6672C426.4244,-277.3425 445.1537,-244.8003 459.7163,-219.4979"/>
<polygon fill="#000000" stroke="#000000" points="462.9184,-220.9506 464.8732,-210.5377 456.8515,-217.4589 462.9184,-220.9506"/>
</g>
<!-- cmdline -->
<g id="node5" class="node">
<title>cmdline</title>
<g id="a_node5"><a xlink:href="cmdline.md" xlink:title="cmdline.md">
<polygon fill="#98fb98" stroke="#000000" points="2456.633,-449.8581 2456.633,-470.1419 2414.8458,-484.4846 2355.7498,-484.4846 2313.9626,-470.1419 2313.9626,-449.8581 2355.7498,-435.5154 2414.8458,-435.5154 2456.633,-449.8581"/>
<polygon fill="none" stroke="#000000" points="2460.6285,-447.0021 2460.6285,-472.9979 2415.5119,-488.4835 2355.0837,-488.4835 2309.9671,-472.9979 2309.9671,-447.0021 2355.0837,-431.5165 2415.5119,-431.5165 2460.6285,-447.0021"/>
<text text-anchor="middle" x="2385.2978" y="-452.8" font-family="Times,serif" font-size="24.00" fill="#000000">cmdline</text>
</a>
</g>
</g>
<!-- parseCmdLine -->
<g id="node6" class="node">
<title>parseCmdLine</title>
<g id="a_node6"><a xlink:href="parseCmdLine.md" xlink:title="parseCmdLine.md">
<ellipse fill="#eee8aa" stroke="#000000" cx="2036.2978" cy="-739" rx="111.4463" ry="22.7556"/>
<text text-anchor="middle" x="2036.2978" y="-731.8" font-family="Times,serif" font-size="24.00" fill="#000000">parseCmdLine</text>
</a>
</g>
</g>
<!-- parseCmdLine&#45;&gt;regexes -->
<g id="edge24" class="edge">
<title>parseCmdLine&#45;&gt;regexes</title>
<path fill="none" stroke="#000000" d="M1990.3467,-718.202C1950.3378,-698.684 1892.1881,-666.8015 1849.2978,-628.4917 1825.635,-607.3561 1828.3975,-594.2732 1806.2978,-571.5083 1777.4663,-541.8089 1740.8045,-512.6956 1712.3722,-491.6678"/>
<polygon fill="#000000" stroke="#000000" points="1714.343,-488.7729 1704.2084,-485.6843 1710.205,-494.4188 1714.343,-488.7729"/>
</g>
<!-- parseCmdLine&#45;&gt;warnings -->
<g id="edge27" class="edge">
<title>parseCmdLine&#45;&gt;warnings</title>
<path fill="none" stroke="#000000" d="M2011.7894,-716.7559C1988.5142,-695.1445 1953.0542,-660.9301 1925.2978,-628.4917 1923.0998,-625.923 1784.8982,-433.6687 1782.2978,-431.5083 1637.7349,-311.4007 1425.6474,-233.9948 1320.7974,-200.7281"/>
<polygon fill="#000000" stroke="#000000" points="1321.5806,-197.3055 1310.9913,-197.6465 1319.482,-203.9835 1321.5806,-197.3055"/>
</g>
<!-- parseCmdLine&#45;&gt;opresultwarn -->
<g id="edge28" class="edge">
<title>parseCmdLine&#45;&gt;opresultwarn</title>
<path fill="none" stroke="#000000" d="M2000.9987,-717.4477C1969.1367,-696.9704 1922.064,-664.0898 1887.2978,-628.4917 1877.9396,-618.9096 1759.8454,-438.294 1748.2978,-431.5083 1669.4187,-385.156 1068.1354,-343.0463 819.443,-327.4248"/>
<polygon fill="#000000" stroke="#000000" points="819.506,-323.922 809.3069,-326.7905 819.0688,-330.9083 819.506,-323.922"/>
</g>
<!-- parseCmdLine&#45;&gt;messages -->
<g id="edge25" class="edge">
<title>parseCmdLine&#45;&gt;messages</title>
<path fill="none" stroke="#000000" d="M2022.6058,-716.4159C1995.8677,-670.0976 1939.2978,-560.2552 1939.2978,-460 1939.2978,-460 1939.2978,-460 1939.2978,-321 1939.2978,-244.8592 1954.3803,-209.9707 1903.2978,-153.5083 1868.8591,-115.4426 1737.6352,-80.7708 1647.8571,-60.7827"/>
<polygon fill="#000000" stroke="#000000" points="1648.4615,-57.332 1637.9425,-58.5973 1646.9547,-64.1679 1648.4615,-57.332"/>
</g>
<!-- parseCmdLine&#45;&gt;matches -->
<g id="edge26" class="edge">
<title>parseCmdLine&#45;&gt;matches</title>
<path fill="none" stroke="#000000" d="M1990.8169,-718.3404C1934.3571,-692.6936 1838.3989,-649.1047 1780.0345,-622.5928"/>
<polygon fill="#000000" stroke="#000000" points="1781.2021,-619.2791 1770.6498,-618.3299 1778.307,-625.6523 1781.2021,-619.2791"/>
</g>
<!-- env -->
<g id="node7" class="node">
<title>env</title>
<g id="a_node7"><a xlink:href="env.md" xlink:title="env.md">
<ellipse fill="#eee8aa" stroke="#000000" cx="2315.2978" cy="-739" rx="35.6342" ry="22.7556"/>
<text text-anchor="middle" x="2315.2978" y="-731.8" font-family="Times,serif" font-size="24.00" fill="#000000">env</text>
</a>
</g>
</g>
<!-- tempFile -->
<g id="node10" class="node">
<title>tempFile</title>
<g id="a_node10"><a xlink:href="tempFile.md" xlink:title="tempFile.md">
<polygon fill="#98fb98" stroke="#000000" points="2202.8957,-589.8581 2202.8957,-610.1419 2157.4399,-624.4846 2093.1556,-624.4846 2047.6998,-610.1419 2047.6998,-589.8581 2093.1556,-575.5154 2157.4399,-575.5154 2202.8957,-589.8581"/>
<polygon fill="none" stroke="#000000" points="2206.8982,-586.9275 2206.8982,-613.0725 2158.0569,-628.4835 2092.5386,-628.4835 2043.6973,-613.0725 2043.6973,-586.9275 2092.5386,-571.5165 2158.0569,-571.5165 2206.8982,-586.9275"/>
<text text-anchor="middle" x="2125.2978" y="-592.8" font-family="Times,serif" font-size="24.00" fill="#000000">tempFile</text>
</a>
</g>
</g>
<!-- env&#45;&gt;tempFile -->
<g id="edge15" class="edge">
<title>env&#45;&gt;tempFile</title>
<path fill="none" stroke="#000000" d="M2291.6183,-721.6766C2261.5611,-699.6874 2209.057,-661.2765 2171.067,-633.4838"/>
<polygon fill="#000000" stroke="#000000" points="2172.8499,-630.4515 2162.7125,-627.3718 2168.7168,-636.1011 2172.8499,-630.4515"/>
</g>
<!-- env&#45;&gt;warnings -->
<g id="edge17" class="edge">
<title>env&#45;&gt;warnings</title>
<path fill="none" stroke="#000000" d="M2311.9059,-716.47C2305.5755,-681.4861 2288.9288,-613.7411 2250.2978,-571.5083 2100.0433,-407.2445 1968.5261,-496.4396 1801.2978,-349.4917 1778.431,-329.3981 1788.4416,-309.6673 1763.2978,-292.5083 1694.4888,-245.5506 1460.2053,-208.6755 1336.0333,-191.8876"/>
<polygon fill="#000000" stroke="#000000" points="1336.2045,-188.3794 1325.8281,-190.5196 1335.2744,-195.3173 1336.2045,-188.3794"/>
</g>
<!-- args -->
<g id="node21" class="node">
<title>args</title>
<g id="a_node21"><a xlink:href="args.md" xlink:title="args.md">
<ellipse fill="#eee8aa" stroke="#000000" cx="1872.2978" cy="-460" rx="39.0784" ry="22.7556"/>
<text text-anchor="middle" x="1872.2978" y="-452.8" font-family="Times,serif" font-size="24.00" fill="#000000">args</text>
</a>
</g>
</g>
<!-- env&#45;&gt;args -->
<g id="edge18" class="edge">
<title>env&#45;&gt;args</title>
<path fill="none" stroke="#000000" d="M2304.8845,-717.2634C2285.0898,-676.7344 2241.7413,-591.8829 2216.2978,-571.5083 2210.2397,-566.6571 2008.1903,-502.7368 1916.6231,-473.9203"/>
<polygon fill="#000000" stroke="#000000" points="1917.658,-470.5768 1907.0686,-470.9147 1915.5574,-477.2543 1917.658,-470.5768"/>
</g>
<!-- env&#45;&gt;messages -->
<g id="edge16" class="edge">
<title>env&#45;&gt;messages</title>
<path fill="none" stroke="#000000" d="M2340.9184,-722.8756C2348.5734,-718.48 2357.1111,-713.9789 2365.2978,-710.5083 2485.0787,-659.7295 2562.5298,-728.0352 2646.2978,-628.4917 2694.82,-570.8316 2665.2978,-535.3598 2665.2978,-460 2665.2978,-460 2665.2978,-460 2665.2978,-321 2665.2978,-113.7305 1924.8744,-59.5141 1656.213,-46.6641"/>
<polygon fill="#000000" stroke="#000000" points="1656.239,-43.1615 1646.0858,-46.1886 1655.9106,-50.1538 1656.239,-43.1615"/>
</g>
<!-- unicodes&#45;&gt;opresultid -->
<g id="edge67" class="edge">
<title>unicodes&#45;&gt;opresultid</title>
<path fill="none" stroke="#000000" d="M262.5634,-438.5859C290.7714,-414.6778 336.5483,-375.8791 367.7428,-349.4399"/>
<polygon fill="#000000" stroke="#000000" points="370.3677,-351.8032 375.7333,-342.6675 365.8417,-346.4632 370.3677,-351.8032"/>
</g>
<!-- utf8decoder -->
<g id="node15" class="node">
<title>utf8decoder</title>
<g id="a_node15"><a xlink:href="utf8decoder.md" xlink:title="utf8decoder.md">
<polygon fill="#98fb98" stroke="#000000" points="262.2273,-310.8581 262.2273,-331.1419 203.69,-345.4846 120.9056,-345.4846 62.3682,-331.1419 62.3682,-310.8581 120.9056,-296.5154 203.69,-296.5154 262.2273,-310.8581"/>
<polygon fill="none" stroke="#000000" points="266.226,-307.7208 266.226,-334.2792 204.1727,-349.4835 120.4229,-349.4835 58.3696,-334.2792 58.3696,-307.7208 120.4229,-292.5165 204.1727,-292.5165 266.226,-307.7208"/>
<text text-anchor="middle" x="162.2978" y="-313.8" font-family="Times,serif" font-size="24.00" fill="#000000">utf8decoder</text>
</a>
</g>
</g>
<!-- unicodes&#45;&gt;utf8decoder -->
<g id="edge71" class="edge">
<title>unicodes&#45;&gt;utf8decoder</title>
<path fill="none" stroke="#000000" d="M225.2477,-437.6672C213.7416,-416.3425 196.1828,-383.8003 182.5305,-358.4979"/>
<polygon fill="#000000" stroke="#000000" points="185.5246,-356.6763 177.6958,-349.5377 179.3642,-360.0004 185.5246,-356.6763"/>
</g>
<!-- unicodes&#45;&gt;warnings -->
<g id="edge70" class="edge">
<title>unicodes&#45;&gt;warnings</title>
<path fill="none" stroke="#000000" d="M283.9347,-442.8168C347.1391,-418.9828 455.9408,-375.8545 489.2978,-349.4917 514.1899,-329.8189 505.049,-308.7609 532.2978,-292.5083 639.6044,-228.5048 1008.5099,-197.6858 1174.826,-186.7882"/>
<polygon fill="#000000" stroke="#000000" points="1175.2488,-190.2682 1185.0019,-186.1297 1174.7967,-183.2828 1175.2488,-190.2682"/>
</g>
<!-- unicodes&#45;&gt;opresultwarn -->
<g id="edge68" class="edge">
<title>unicodes&#45;&gt;opresultwarn</title>
<path fill="none" stroke="#000000" d="M289.946,-444.5935C375.5336,-419.5478 544.9389,-369.9745 641.1582,-341.8177"/>
<polygon fill="#000000" stroke="#000000" points="642.1919,-345.1621 650.8064,-338.9943 640.2259,-338.4438 642.1919,-345.1621"/>
</g>
<!-- unicodes&#45;&gt;messages -->
<g id="edge69" class="edge">
<title>unicodes&#45;&gt;messages</title>
<path fill="none" stroke="#000000" d="M245.8561,-437.0656C271.4803,-368.955 347.3539,-171.4793 372.2978,-153.5083 460.1895,-90.1859 1197.6719,-56.5622 1464.4601,-46.3823"/>
<polygon fill="#000000" stroke="#000000" points="1464.6555,-49.8775 1474.5157,-46.0012 1464.3903,-42.8825 1464.6555,-49.8775"/>
</g>
<!-- variables -->
<g id="node9" class="node">
<title>variables</title>
<g id="a_node9"><a xlink:href="variables.md" xlink:title="variables.md">
<ellipse fill="#eee8aa" stroke="#000000" cx="1396.2978" cy="-600" rx="72.6337" ry="22.7556"/>
<text text-anchor="middle" x="1396.2978" y="-592.8" font-family="Times,serif" font-size="24.00" fill="#000000">variables</text>
</a>
</g>
</g>
<!-- variables&#45;&gt;vartypes -->
<g id="edge48" class="edge">
<title>variables&#45;&gt;vartypes</title>
<path fill="none" stroke="#000000" d="M1335.5086,-587.5759C1208.1804,-561.5527 914.1868,-501.4664 780.1459,-474.0712"/>
<polygon fill="#000000" stroke="#000000" points="780.4996,-470.5712 770.0012,-471.9978 779.0978,-477.4294 780.4996,-470.5712"/>
</g>
<!-- variables&#45;&gt;warnings -->
<g id="edge51" class="edge">
<title>variables&#45;&gt;warnings</title>
<path fill="none" stroke="#000000" d="M1413.8604,-577.9277C1437.235,-545.7428 1473.6094,-484.0417 1455.2978,-431.5083 1422.5382,-337.5258 1337.9748,-252.3655 1290.6412,-210.076"/>
<polygon fill="#000000" stroke="#000000" points="1292.9109,-207.411 1283.0975,-203.4177 1288.2787,-212.6592 1292.9109,-207.411"/>
</g>
<!-- variables&#45;&gt;args -->
<g id="edge52" class="edge">
<title>variables&#45;&gt;args</title>
<path fill="none" stroke="#000000" d="M1449.5155,-584.3477C1544.0051,-556.5567 1739.3969,-499.0885 1827.4933,-473.1778"/>
<polygon fill="#000000" stroke="#000000" points="1828.5828,-476.5057 1837.1888,-470.3262 1826.6075,-469.7901 1828.5828,-476.5057"/>
</g>
<!-- variables&#45;&gt;opresultwarn -->
<g id="edge53" class="edge">
<title>variables&#45;&gt;opresultwarn</title>
<path fill="none" stroke="#000000" d="M1411.9689,-577.7347C1434.692,-542.4728 1470.3381,-473.4846 1434.2978,-431.5083 1394.5582,-385.2234 1006.6079,-346.0811 816.3921,-329.496"/>
<polygon fill="#000000" stroke="#000000" points="816.6397,-326.0044 806.3748,-328.6275 816.035,-332.9782 816.6397,-326.0044"/>
</g>
<!-- variables&#45;&gt;messages -->
<g id="edge50" class="edge">
<title>variables&#45;&gt;messages</title>
<path fill="none" stroke="#000000" d="M1414.9533,-578.0399C1432.1969,-556.5842 1457.2148,-522.3053 1471.2978,-488.4917 1530.718,-345.8224 1551.3179,-160.5506 1557.7126,-81.4847"/>
<polygon fill="#000000" stroke="#000000" points="1561.2038,-81.7322 1558.4902,-71.4908 1554.2249,-81.1891 1561.2038,-81.7322"/>
</g>
<!-- version -->
<g id="node25" class="node">
<title>version</title>
<g id="a_node25"><a xlink:href="version.md" xlink:title="version.md">
<polygon fill="#98fb98" stroke="#000000" points="1421.4501,-449.8581 1421.4501,-470.1419 1382.699,-484.4846 1327.8966,-484.4846 1289.1455,-470.1419 1289.1455,-449.8581 1327.8966,-435.5154 1382.699,-435.5154 1421.4501,-449.8581"/>
<polygon fill="none" stroke="#000000" points="1425.4399,-447.0721 1425.4399,-472.9279 1383.4121,-488.4835 1327.1834,-488.4835 1285.1557,-472.9279 1285.1557,-447.0721 1327.1834,-431.5165 1383.4121,-431.5165 1425.4399,-447.0721"/>
<text text-anchor="middle" x="1355.2978" y="-452.8" font-family="Times,serif" font-size="24.00" fill="#000000">version</text>
</a>
</g>
</g>
<!-- variables&#45;&gt;version -->
<g id="edge49" class="edge">
<title>variables&#45;&gt;version</title>
<path fill="none" stroke="#000000" d="M1389.6192,-577.195C1383.3692,-555.8536 1373.911,-523.5572 1366.5051,-498.2689"/>
<polygon fill="#000000" stroke="#000000" points="1369.8462,-497.224 1363.6766,-488.6108 1363.1283,-499.1914 1369.8462,-497.224"/>
</g>
<!-- vartypes&#45;&gt;warnings -->
<g id="edge42" class="edge">
<title>vartypes&#45;&gt;warnings</title>
<path fill="none" stroke="#000000" d="M740.2887,-439.3209C788.2289,-405.7057 887.7388,-338.3604 978.2978,-292.5083 1051.4553,-255.4669 1140.1189,-222.2004 1197.5676,-202.0689"/>
<polygon fill="#000000" stroke="#000000" points="1198.9231,-205.3031 1207.2155,-198.7087 1196.6207,-198.6925 1198.9231,-205.3031"/>
</g>
<!-- vartypes&#45;&gt;opresultwarn -->
<g id="edge43" class="edge">
<title>vartypes&#45;&gt;opresultwarn</title>
<path fill="none" stroke="#000000" d="M711.4607,-437.3579C711.6241,-414.64 711.8775,-379.419 712.0627,-353.6757"/>
<polygon fill="#000000" stroke="#000000" points="715.5628,-353.6574 712.135,-343.6324 708.563,-353.6069 715.5628,-353.6574"/>
</g>
<!-- vartypes&#45;&gt;messages -->
<g id="edge41" class="edge">
<title>vartypes&#45;&gt;messages</title>
<path fill="none" stroke="#000000" d="M739.768,-439.1683C765.1132,-419.0655 801.1988,-386.3231 821.2978,-349.4917 864.0148,-271.213 799.4232,-214.6932 864.2978,-153.5083 949.1782,-73.4554 1293.9136,-51.3463 1464.1874,-45.2762"/>
<polygon fill="#000000" stroke="#000000" points="1464.5273,-48.7667 1474.4006,-44.9239 1464.2859,-41.7708 1464.5273,-48.7667"/>
</g>
<!-- replacement -->
<g id="node12" class="node">
<title>replacement</title>
<g id="a_node12"><a xlink:href="replacement.md" xlink:title="replacement.md">
<ellipse fill="#eee8aa" stroke="#000000" cx="1645.2978" cy="-869" rx="94.4556" ry="22.7556"/>
<text text-anchor="middle" x="1645.2978" y="-861.8" font-family="Times,serif" font-size="24.00" fill="#000000">replacement</text>
</a>
</g>
</g>
<!-- replacement&#45;&gt;parseNumber -->
<g id="edge102" class="edge">
<title>replacement&#45;&gt;parseNumber</title>
<path fill="none" stroke="#000000" d="M1579.1199,-852.7983C1485.5691,-829.895 1314.2121,-787.9432 1207.7278,-761.8736"/>
<polygon fill="#000000" stroke="#000000" points="1208.4944,-758.458 1197.9489,-759.4796 1206.8298,-765.2572 1208.4944,-758.458"/>
</g>
<!-- replacement&#45;&gt;regexes -->
<g id="edge93" class="edge">
<title>replacement&#45;&gt;regexes</title>
<path fill="none" stroke="#000000" d="M1662.3013,-846.6797C1676.1316,-827.0284 1694.5751,-797.0175 1702.2978,-767.4917 1708.7064,-742.99 1708.9248,-734.9518 1702.2978,-710.5083 1691.246,-669.7443 1665.3495,-669.2557 1654.2978,-628.4917 1647.6708,-604.0482 1652.8289,-596.7916 1654.2978,-571.5083 1655.7063,-547.2625 1658.8237,-520.2005 1661.6527,-498.8085"/>
<polygon fill="#000000" stroke="#000000" points="1665.1344,-499.1792 1663.0095,-488.7996 1658.1978,-498.2388 1665.1344,-499.1792"/>
</g>
<!-- replacement&#45;&gt;parseCmdLine -->
<g id="edge96" class="edge">
<title>replacement&#45;&gt;parseCmdLine</title>
<path fill="none" stroke="#000000" d="M1700.4892,-850.6499C1770.7993,-827.2732 1892.2831,-786.8821 1968.2528,-761.6237"/>
<polygon fill="#000000" stroke="#000000" points="1969.8165,-764.7922 1978.2014,-758.3159 1967.6079,-758.1497 1969.8165,-764.7922"/>
</g>
<!-- replacement&#45;&gt;env -->
<g id="edge94" class="edge">
<title>replacement&#45;&gt;env</title>
<path fill="none" stroke="#000000" d="M1713.5956,-853.3452C1725.1518,-850.8833 1737.0478,-848.4642 1748.2978,-846.3726 1976.8184,-803.8845 2045.7572,-843.8385 2265.2978,-767.4917 2270.6649,-765.6253 2276.1151,-763.1819 2281.3466,-760.51"/>
<polygon fill="#000000" stroke="#000000" points="2283.3649,-763.3956 2290.4619,-755.529 2280.0083,-757.2529 2283.3649,-763.3956"/>
</g>
<!-- replacement&#45;&gt;variables -->
<g id="edge100" class="edge">
<title>replacement&#45;&gt;variables</title>
<path fill="none" stroke="#000000" d="M1660.9785,-846.4902C1681.6271,-813.7954 1712.1246,-752.4978 1683.2978,-710.5083 1676.4646,-700.555 1535.9832,-649.489 1454.1443,-620.383"/>
<polygon fill="#000000" stroke="#000000" points="1455.0623,-616.9949 1444.4676,-616.9465 1452.7197,-623.5913 1455.0623,-616.9949"/>
</g>
<!-- replacement&#45;&gt;tempFile -->
<g id="edge101" class="edge">
<title>replacement&#45;&gt;tempFile</title>
<path fill="none" stroke="#000000" d="M1714.1977,-853.472C1725.5737,-851.0209 1737.2551,-848.5722 1748.2978,-846.3726 1845.9349,-826.9236 2125.3988,-843.8343 2189.2978,-767.4917 2221.3398,-729.2099 2188.1203,-673.161 2158.8308,-636.6287"/>
<polygon fill="#000000" stroke="#000000" points="2161.3461,-634.1777 2152.2827,-628.6909 2155.9463,-638.6322 2161.3461,-634.1777"/>
</g>
<!-- replacement&#45;&gt;vartypes -->
<g id="edge95" class="edge">
<title>replacement&#45;&gt;vartypes</title>
<path fill="none" stroke="#000000" d="M1551.4082,-866.7173C1310.3324,-859.8915 684.0744,-835.7016 622.2978,-767.4917 549.4322,-687.0382 639.5566,-550.3621 686.3805,-490.0833"/>
<polygon fill="#000000" stroke="#000000" points="689.2336,-492.1176 692.6787,-482.0985 683.7376,-487.7824 689.2336,-492.1176"/>
</g>
<!-- readlines -->
<g id="node13" class="node">
<title>readlines</title>
<g id="a_node13"><a xlink:href="readlines.md" xlink:title="readlines.md">
<polygon fill="#98fb98" stroke="#000000" points="1636.8871,-728.8581 1636.8871,-749.1419 1590.8506,-763.4846 1525.745,-763.4846 1479.7084,-749.1419 1479.7084,-728.8581 1525.745,-714.5154 1590.8506,-714.5154 1636.8871,-728.8581"/>
<polygon fill="none" stroke="#000000" points="1640.8894,-725.9163 1640.8894,-752.0837 1591.4601,-767.4835 1525.1355,-767.4835 1475.7062,-752.0837 1475.7062,-725.9163 1525.1355,-710.5165 1591.4601,-710.5165 1640.8894,-725.9163"/>
<text text-anchor="middle" x="1558.2978" y="-731.8" font-family="Times,serif" font-size="24.00" fill="#000000">readlines</text>
</a>
</g>
</g>
<!-- replacement&#45;&gt;readlines -->
<g id="edge97" class="edge">
<title>replacement&#45;&gt;readlines</title>
<path fill="none" stroke="#000000" d="M1630.3419,-846.6522C1617.4181,-827.3407 1598.4758,-799.0361 1583.2577,-776.2964"/>
<polygon fill="#000000" stroke="#000000" points="1586.0984,-774.248 1577.6278,-767.884 1580.2809,-778.1413 1586.0984,-774.248"/>
</g>
<!-- replacement&#45;&gt;opresultwarn -->
<g id="edge103" class="edge">
<title>replacement&#45;&gt;opresultwarn</title>
<path fill="none" stroke="#000000" d="M1654.2579,-846.2515C1665.8301,-812.6999 1681.072,-749.698 1650.2978,-710.5083 1555.3613,-589.6106 1458.3866,-682.0416 1314.2978,-628.4917 1095.0772,-547.0195 852.3671,-406.0616 755.5759,-347.598"/>
<polygon fill="#000000" stroke="#000000" points="757.3091,-344.5558 746.9426,-342.368 753.6822,-350.543 757.3091,-344.5558"/>
</g>
<!-- replacement&#45;&gt;messages -->
<g id="edge99" class="edge">
<title>replacement&#45;&gt;messages</title>
<path fill="none" stroke="#000000" d="M1714.5023,-853.5454C1725.7872,-851.0977 1737.3604,-848.6309 1748.2978,-846.3726 1935.4727,-807.7256 2246.1547,-879.1907 2156.2978,-710.5083 2125.5799,-652.8437 2070.8771,-682.628 2034.2978,-628.4917 1913.4658,-449.6638 2079.8012,-311.9903 1933.2978,-153.5083 1895.2899,-112.3927 1750.047,-78.1796 1652.4205,-59.1753"/>
<polygon fill="#000000" stroke="#000000" points="1653.0184,-55.7262 1642.5368,-57.2715 1651.6943,-62.5999 1653.0184,-55.7262"/>
</g>
<!-- replacement&#45;&gt;matches -->
<g id="edge98" class="edge">
<title>replacement&#45;&gt;matches</title>
<path fill="none" stroke="#000000" d="M1696.6132,-850.0091C1731.9211,-833.9246 1776.1265,-807.0885 1797.2978,-767.4917 1822.1106,-721.0842 1785.4863,-663.4393 1757.3855,-629.3017"/>
<polygon fill="#000000" stroke="#000000" points="1759.9627,-626.9291 1750.8275,-621.5626 1754.6222,-631.4546 1759.9627,-626.9291"/>
</g>
<!-- funtypes&#45;&gt;vartypes -->
<g id="edge55" class="edge">
<title>funtypes&#45;&gt;vartypes</title>
<path fill="none" stroke="#000000" d="M866.9008,-579.0406C834.8698,-554.536 781.7767,-513.9183 746.6614,-487.0542"/>
<polygon fill="#000000" stroke="#000000" points="748.6518,-484.1701 738.5827,-480.8737 744.3985,-489.7297 748.6518,-484.1701"/>
</g>
<!-- funtypes&#45;&gt;warnings -->
<g id="edge57" class="edge">
<title>funtypes&#45;&gt;warnings</title>
<path fill="none" stroke="#000000" d="M902.1803,-577.3531C925.7577,-510.0474 995.3928,-314.5345 1016.2978,-292.5083 1062.8327,-243.4774 1135.2886,-214.3336 1188.6108,-198.3956"/>
<polygon fill="#000000" stroke="#000000" points="1189.7071,-201.7219 1198.334,-195.5715 1187.7546,-194.9997 1189.7071,-201.7219"/>
</g>
<!-- funtypes&#45;&gt;messages -->
<g id="edge56" class="edge">
<title>funtypes&#45;&gt;messages</title>
<path fill="none" stroke="#000000" d="M895.4125,-577.0645C899.1493,-522.3585 915.2051,-382.1105 983.2978,-292.5083 1100.6707,-138.059 1333.2118,-77.8014 1464.4131,-55.3939"/>
<polygon fill="#000000" stroke="#000000" points="1465.1693,-58.8162 1474.4572,-53.7187 1464.0176,-51.9116 1465.1693,-58.8162"/>
</g>
<!-- warnings&#45;&gt;messages -->
<g id="edge2" class="edge">
<title>warnings&#45;&gt;messages</title>
<path fill="none" stroke="#ff0000" d="M1298.477,-163.1092C1350.3909,-139.2939 1440.0517,-98.1624 1499.7675,-70.768"/>
<polygon fill="#ff0000" stroke="#ff0000" points="1501.4543,-73.845 1509.0841,-66.4941 1498.5355,-67.4825 1501.4543,-73.845"/>
</g>
<!-- collectCommand -->
<g id="node17" class="node">
<title>collectCommand</title>
<g id="a_node17"><a xlink:href="collectCommand.md" xlink:title="collectCommand.md">
<ellipse fill="#eee8aa" stroke="#000000" cx="1884.2978" cy="-869" rx="127.4982" ry="22.7556"/>
<text text-anchor="middle" x="1884.2978" y="-861.8" font-family="Times,serif" font-size="24.00" fill="#000000">collectCommand</text>
</a>
</g>
</g>
<!-- collectCommand&#45;&gt;parseCmdLine -->
<g id="edge33" class="edge">
<title>collectCommand&#45;&gt;parseCmdLine</title>
<path fill="none" stroke="#000000" d="M1910.4275,-846.6522C1935.9216,-824.848 1974.8203,-791.5794 2002.6234,-767.8005"/>
<polygon fill="#000000" stroke="#000000" points="2005.1843,-770.2158 2010.509,-761.0562 2000.6345,-764.896 2005.1843,-770.2158"/>
</g>
<!-- collectCommand&#45;&gt;env -->
<g id="edge30" class="edge">
<title>collectCommand&#45;&gt;env</title>
<path fill="none" stroke="#000000" d="M1971.4841,-852.4659C2050.0821,-836.0048 2167.9205,-807.4236 2265.2978,-767.4917 2270.4975,-765.3595 2275.8262,-762.7887 2280.9761,-760.075"/>
<polygon fill="#000000" stroke="#000000" points="2282.924,-762.9976 2289.9864,-755.0999 2279.5404,-756.8696 2282.924,-762.9976"/>
</g>
<!-- collectCommand&#45;&gt;readlines -->
<g id="edge32" class="edge">
<title>collectCommand&#45;&gt;readlines</title>
<path fill="none" stroke="#000000" d="M1832.2816,-848.2574C1775.375,-825.5646 1684.0988,-789.166 1622.7081,-764.6851"/>
<polygon fill="#000000" stroke="#000000" points="1623.7068,-761.3154 1613.1217,-760.8623 1621.1139,-767.8175 1623.7068,-761.3154"/>
</g>
<!-- collectCommand&#45;&gt;opresultwarn -->
<g id="edge35" class="edge">
<title>collectCommand&#45;&gt;opresultwarn</title>
<path fill="none" stroke="#000000" d="M1862.5904,-846.4786C1777.1893,-757.9239 1468.3588,-438.1662 1455.2978,-431.5083 1346.0248,-375.8054 996.2057,-342.2987 818.3212,-328.4428"/>
<polygon fill="#000000" stroke="#000000" points="818.3988,-324.9385 808.159,-327.6581 817.8598,-331.9177 818.3988,-324.9385"/>
</g>
<!-- collectCommand&#45;&gt;messages -->
<g id="edge34" class="edge">
<title>collectCommand&#45;&gt;messages</title>
<path fill="none" stroke="#000000" d="M1987.2576,-855.622C2108.014,-838.4656 2299.456,-806.2521 2360.2978,-767.4917 2387.0566,-750.4446 2377.2856,-728.6744 2403.2978,-710.5083 2506.1198,-638.7005 2590.033,-722.2772 2673.2978,-628.4917 2723.7974,-571.6115 2703.2978,-536.063 2703.2978,-460 2703.2978,-460 2703.2978,-460 2703.2978,-321 2703.2978,-271.8276 2816.0364,-284.8822 2526.2978,-153.5083 2372.4857,-83.7664 1868.9454,-55.5346 1656.3663,-46.5304"/>
<polygon fill="#000000" stroke="#000000" points="1656.2965,-43.0245 1646.1589,-46.1034 1656.0038,-50.0184 1656.2965,-43.0245"/>
</g>
<!-- collectCommand&#45;&gt;matches -->
<g id="edge31" class="edge">
<title>collectCommand&#45;&gt;matches</title>
<path fill="none" stroke="#000000" d="M1876.4497,-846.3723C1865.0726,-814.8375 1842.3707,-756.3841 1815.2978,-710.5083 1798.0632,-681.3038 1774.2346,-650.967 1756.1913,-629.4841"/>
<polygon fill="#000000" stroke="#000000" points="1758.7259,-627.0617 1749.585,-621.7049 1753.3903,-631.5929 1758.7259,-627.0617"/>
</g>
<!-- statictea -->
<g id="node18" class="node">
<title>statictea</title>
<g id="a_node18"><a xlink:href="statictea.md" xlink:title="statictea.md">
<polygon fill="#eee8aa" stroke="#000000" points="2327.3935,-1251.3667 2410.2978,-1232.0619 2493.202,-1251.3667 2493.1246,-1282.6024 2327.4709,-1282.6024 2327.3935,-1251.3667"/>
<text text-anchor="middle" x="2410.2978" y="-1252.8" font-family="Times,serif" font-size="24.00" fill="#000000">statictea</text>
</a>
</g>
</g>
<!-- statictea&#45;&gt;env -->
<g id="edge111" class="edge">
<title>statictea&#45;&gt;env</title>
<path fill="none" stroke="#000000" d="M2405.3902,-1233.0859C2389.3681,-1145.2173 2338.6244,-866.9282 2321.2222,-771.4909"/>
<polygon fill="#000000" stroke="#000000" points="2324.6464,-770.7583 2319.4093,-761.5484 2317.76,-772.014 2324.6464,-770.7583"/>
</g>
<!-- gethelp -->
<g id="node19" class="node">
<title>gethelp</title>
<g id="a_node19"><a xlink:href="gethelp.md" xlink:title="gethelp.md">
<polygon fill="#98fb98" stroke="#000000" points="2657.4327,-1111.8581 2657.4327,-1132.1419 2618.6918,-1146.4846 2563.9038,-1146.4846 2525.1629,-1132.1419 2525.1629,-1111.8581 2563.9038,-1097.5154 2618.6918,-1097.5154 2657.4327,-1111.8581"/>
<polygon fill="none" stroke="#000000" points="2661.422,-1109.0722 2661.422,-1134.9278 2619.4049,-1150.4835 2563.1906,-1150.4835 2521.1735,-1134.9278 2521.1735,-1109.0722 2563.1906,-1093.5165 2619.4049,-1093.5165 2661.422,-1109.0722"/>
<text text-anchor="middle" x="2591.2978" y="-1114.8" font-family="Times,serif" font-size="24.00" fill="#000000">gethelp</text>
</a>
</g>
</g>
<!-- statictea&#45;&gt;gethelp -->
<g id="edge109" class="edge">
<title>statictea&#45;&gt;gethelp</title>
<path fill="none" stroke="#000000" d="M2438.579,-1238.4375C2468.0014,-1216.0049 2514.4292,-1180.607 2548.3764,-1154.7246"/>
<polygon fill="#000000" stroke="#000000" points="2550.89,-1157.2094 2556.7202,-1148.363 2546.6458,-1151.6428 2550.89,-1157.2094"/>
</g>
<!-- statictea&#45;&gt;args -->
<g id="edge107" class="edge">
<title>statictea&#45;&gt;args</title>
<path fill="none" stroke="#000000" d="M2417.7286,-1233.5194C2430.5099,-1185.5651 2455.2978,-1080.9656 2455.2978,-991 2455.2978,-991 2455.2978,-991 2455.2978,-869 2455.2978,-788.7146 2316.8265,-616.4491 2250.2978,-571.5083 2146.4648,-501.368 1997.7448,-474.5153 1921.4977,-464.9115"/>
<polygon fill="#000000" stroke="#000000" points="1921.5805,-461.3961 1911.2322,-463.6682 1920.7387,-468.3453 1921.5805,-461.3961"/>
</g>
<!-- statictea&#45;&gt;opresultwarn -->
<g id="edge112" class="edge">
<title>statictea&#45;&gt;opresultwarn</title>
<path fill="none" stroke="#000000" d="M2329.8998,-1250.7711C2172.0783,-1232.5394 1810.6764,-1190.2206 1507.2978,-1150.4917 977.5097,-1081.1134 613.8623,-1346.3496 333.2978,-891.6274 258.3971,-770.233 287.6613,-696.5513 356.2978,-571.5083 420.7256,-454.1326 566.4892,-379.2368 650.1481,-344.2417"/>
<polygon fill="#000000" stroke="#000000" points="651.6234,-347.4193 659.5357,-340.3732 648.9564,-340.9473 651.6234,-347.4193"/>
</g>
<!-- statictea&#45;&gt;messages -->
<g id="edge108" class="edge">
<title>statictea&#45;&gt;messages</title>
<path fill="none" stroke="#000000" d="M2469.9941,-1245.9543C2574.4291,-1217.437 2779.2978,-1142.2231 2779.2978,-991 2779.2978,-991 2779.2978,-991 2779.2978,-321 2779.2978,-228.6427 2736.4961,-199.3132 2656.2978,-153.5083 2570.4079,-104.4526 1907.5626,-62.5132 1656.3697,-48.2256"/>
<polygon fill="#000000" stroke="#000000" points="1656.3459,-44.7188 1646.1639,-47.6475 1655.9499,-51.7075 1656.3459,-44.7188"/>
</g>
<!-- statictea&#45;&gt;version -->
<g id="edge110" class="edge">
<title>statictea&#45;&gt;version</title>
<path fill="none" stroke="#000000" d="M2327.4131,-1258.6335C2141.9162,-1254.0804 1700.2705,-1234.4731 1581.2978,-1150.4917 1368.4067,-1000.2147 1375.3285,-881.8315 1314.2978,-628.4917 1303.4703,-583.5466 1320.3854,-531.895 1335.6561,-497.7552"/>
<polygon fill="#000000" stroke="#000000" points="1338.8649,-499.1551 1339.8952,-488.6105 1332.5141,-496.2111 1338.8649,-499.1551"/>
</g>
<!-- parseCommandLine -->
<g id="node27" class="node">
<title>parseCommandLine</title>
<g id="a_node27"><a xlink:href="parseCommandLine.md" xlink:title="parseCommandLine.md">
<ellipse fill="#eee8aa" stroke="#000000" cx="2488.2978" cy="-600" rx="148.8522" ry="22.7556"/>
<text text-anchor="middle" x="2488.2978" y="-592.8" font-family="Times,serif" font-size="24.00" fill="#000000">parseCommandLine</text>
</a>
</g>
</g>
<!-- statictea&#45;&gt;parseCommandLine -->
<g id="edge12" class="edge">
<title>statictea&#45;&gt;parseCommandLine</title>
<path fill="none" stroke="#000000" d="M2426.7276,-1235.4578C2440.3112,-1213.9684 2458.9852,-1181.4275 2469.2978,-1150.4917 2491.9673,-1082.4874 2493.2978,-1062.6833 2493.2978,-991 2493.2978,-991 2493.2978,-991 2493.2978,-869 2493.2978,-783.747 2490.7562,-683.3222 2489.2972,-632.6944"/>
<polygon fill="#000000" stroke="#000000" points="2492.7949,-632.5634 2489.0036,-622.6702 2485.7979,-632.7684 2492.7949,-632.5634"/>
</g>
<!-- processTemplate -->
<g id="node28" class="node">
<title>processTemplate</title>
<g id="a_node28"><a xlink:href="processTemplate.md" xlink:title="processTemplate.md">
<ellipse fill="#eee8aa" stroke="#000000" cx="1715.2978" cy="-1122" rx="125.2054" ry="22.7556"/>
<text text-anchor="middle" x="1715.2978" y="-1114.8" font-family="Times,serif" font-size="24.00" fill="#000000">processTemplate</text>
</a>
</g>
</g>
<!-- statictea&#45;&gt;processTemplate -->
<g id="edge106" class="edge">
<title>statictea&#45;&gt;processTemplate</title>
<path fill="none" stroke="#000000" d="M2345.538,-1247.1412C2222.2144,-1222.654 1953.1937,-1169.2369 1809.7654,-1140.7576"/>
<polygon fill="#000000" stroke="#000000" points="1810.1496,-1137.2656 1799.6594,-1138.7509 1808.7862,-1144.1316 1810.1496,-1137.2656"/>
</g>
<!-- signatures&#45;&gt;vartypes -->
<g id="edge73" class="edge">
<title>signatures&#45;&gt;vartypes</title>
<path fill="none" stroke="#000000" d="M711.2978,-716.1683C711.2978,-666.8961 711.2978,-550.4226 711.2978,-493.0736"/>
<polygon fill="#000000" stroke="#000000" points="714.7979,-492.7559 711.2978,-482.7559 707.7979,-492.756 714.7979,-492.7559"/>
</g>
<!-- signatures&#45;&gt;funtypes -->
<g id="edge74" class="edge">
<title>signatures&#45;&gt;funtypes</title>
<path fill="none" stroke="#000000" d="M739.4905,-717.5859C771.5129,-693.2628 823.826,-653.5277 858.653,-627.0745"/>
<polygon fill="#000000" stroke="#000000" points="860.8262,-629.819 866.6725,-620.9832 856.5921,-624.2447 860.8262,-629.819"/>
</g>
<!-- signatures&#45;&gt;messages -->
<g id="edge75" class="edge">
<title>signatures&#45;&gt;messages</title>
<path fill="none" stroke="#000000" d="M716.8977,-716.1569C740.4885,-625.4285 841.0936,-288.907 1065.2978,-153.5083 1131.5756,-113.4826 1340.3918,-76.2984 1464.6317,-56.9405"/>
<polygon fill="#000000" stroke="#000000" points="1465.1881,-60.3962 1474.5349,-55.4073 1464.1171,-53.4786 1465.1881,-60.3962"/>
</g>
<!-- args&#45;&gt;warnings -->
<g id="edge3" class="edge">
<title>args&#45;&gt;warnings</title>
<path fill="none" stroke="#000000" d="M1853.8642,-439.7975C1833.8401,-417.7654 1801.0024,-381.3819 1773.2978,-349.4917 1751.5809,-324.4939 1753.5051,-309.8536 1725.2978,-292.5083 1660.0632,-252.3939 1447.9695,-213.0197 1333.0142,-193.9271"/>
<polygon fill="#000000" stroke="#000000" points="1333.3144,-190.4294 1322.8779,-192.2543 1332.1746,-197.3359 1333.3144,-190.4294"/>
</g>
<!-- args&#45;&gt;opresultwarn -->
<g id="edge6" class="edge">
<title>args&#45;&gt;opresultwarn</title>
<path fill="none" stroke="#000000" d="M1839.0116,-447.815C1821.966,-442.0286 1800.7548,-435.5176 1781.2978,-431.5083 1435.0338,-360.156 1015.701,-333.8871 821.1702,-325.0534"/>
<polygon fill="#000000" stroke="#000000" points="821.0924,-321.5465 810.9458,-324.5958 820.7793,-328.5395 821.0924,-321.5465"/>
</g>
<!-- args&#45;&gt;messages -->
<g id="edge1" class="edge">
<title>args&#45;&gt;messages</title>
<path fill="none" stroke="#000000" d="M1880.7559,-437.7558C1899.8633,-383.392 1940.0179,-241.7949 1877.2978,-153.5083 1850.024,-115.1169 1730.8642,-81.1593 1646.6937,-61.3361"/>
<polygon fill="#000000" stroke="#000000" points="1647.4015,-57.9074 1636.8683,-59.0486 1645.8141,-64.725 1647.4015,-57.9074"/>
</g>
<!-- opresultwarn&#45;&gt;warnings -->
<g id="edge4" class="edge">
<title>opresultwarn&#45;&gt;warnings</title>
<path fill="none" stroke="#000000" d="M778.8528,-304.0254C883.6606,-277.2946 1085.9962,-225.6898 1190.7806,-198.9649"/>
<polygon fill="#000000" stroke="#000000" points="1191.7851,-202.3209 1200.6099,-196.458 1190.0551,-195.538 1191.7851,-202.3209"/>
</g>
<!-- opresultwarn&#45;&gt;opresult -->
<g id="edge5" class="edge">
<title>opresultwarn&#45;&gt;opresult</title>
<path fill="none" stroke="#000000" d="M676.9624,-299.7376C638.0612,-276.3295 575.2195,-238.5157 531.2802,-212.076"/>
<polygon fill="#000000" stroke="#000000" points="532.855,-208.9388 522.482,-206.7819 529.2458,-214.9367 532.855,-208.9388"/>
</g>
<!-- matches&#45;&gt;regexes -->
<g id="edge21" class="edge">
<title>matches&#45;&gt;regexes</title>
<path fill="none" stroke="#000000" d="M1720.1757,-577.5066C1710.5221,-556.054 1695.7965,-523.3304 1684.3343,-497.859"/>
<polygon fill="#000000" stroke="#000000" points="1687.414,-496.1735 1680.1185,-488.4906 1681.0305,-499.0461 1687.414,-496.1735"/>
</g>
<!-- matches&#45;&gt;args -->
<g id="edge20" class="edge">
<title>matches&#45;&gt;args</title>
<path fill="none" stroke="#000000" d="M1752.1741,-578.4318C1777.2053,-553.7531 1818.2143,-513.3217 1845.2346,-486.682"/>
<polygon fill="#000000" stroke="#000000" points="1847.7961,-489.0716 1852.4599,-479.5585 1842.8816,-484.0869 1847.7961,-489.0716"/>
</g>
<!-- readjson -->
<g id="node26" class="node">
<title>readjson</title>
<g id="a_node26"><a xlink:href="readjson.md" xlink:title="readjson.md">
<ellipse fill="#eee8aa" stroke="#000000" cx="164.2978" cy="-600" rx="68.6102" ry="22.7556"/>
<text text-anchor="middle" x="164.2978" y="-592.8" font-family="Times,serif" font-size="24.00" fill="#000000">readjson</text>
</a>
</g>
</g>
<!-- readjson&#45;&gt;unicodes -->
<g id="edge83" class="edge">
<title>readjson&#45;&gt;unicodes</title>
<path fill="none" stroke="#000000" d="M176.0265,-577.5066C188.1591,-554.2385 207.2056,-517.7109 220.8419,-491.5592"/>
<polygon fill="#000000" stroke="#000000" points="224.0781,-492.9228 225.5982,-482.4376 217.8712,-489.6863 224.0781,-492.9228"/>
</g>
<!-- readjson&#45;&gt;vartypes -->
<g id="edge80" class="edge">
<title>readjson&#45;&gt;vartypes</title>
<path fill="none" stroke="#000000" d="M218.746,-586.0644C320.2897,-560.0752 538.0929,-504.3303 646.8084,-476.5055"/>
<polygon fill="#000000" stroke="#000000" points="647.8446,-479.8532 656.6644,-473.9829 646.1089,-473.0718 647.8446,-479.8532"/>
</g>
<!-- readjson&#45;&gt;utf8decoder -->
<g id="edge84" class="edge">
<title>readjson&#45;&gt;utf8decoder</title>
<path fill="none" stroke="#000000" d="M162.161,-576.9612C160.1857,-554.4311 157.3957,-519.138 156.2978,-488.4917 155.391,-463.182 155.611,-456.8249 156.2978,-431.5083 156.9441,-407.6838 158.3727,-381.0019 159.6739,-359.8253"/>
<polygon fill="#000000" stroke="#000000" points="163.1821,-359.8041 160.318,-349.6037 156.1959,-359.3637 163.1821,-359.8041"/>
</g>
<!-- readjson&#45;&gt;warnings -->
<g id="edge82" class="edge">
<title>readjson&#45;&gt;warnings</title>
<path fill="none" stroke="#000000" d="M199.3557,-580.505C232.8737,-560.6024 283.3429,-527.1986 318.2978,-488.4917 337.9127,-466.7714 329.7483,-451.3107 351.2978,-431.5083 414.2489,-373.6608 451.7811,-393.132 525.2978,-349.4917 562.2156,-327.577 563.7406,-309.1939 603.2978,-292.5083 705.9761,-249.1974 1027.2406,-208.2078 1177.8658,-190.7875"/>
<polygon fill="#000000" stroke="#000000" points="1178.4394,-194.2447 1187.9736,-189.6243 1177.639,-187.2906 1178.4394,-194.2447"/>
</g>
<!-- readjson&#45;&gt;opresultwarn -->
<g id="edge85" class="edge">
<title>readjson&#45;&gt;opresultwarn</title>
<path fill="none" stroke="#000000" d="M198.373,-580.3344C236.0807,-558.4214 298.5035,-521.6969 351.2978,-488.4917 390.1105,-464.0803 396.7052,-452.8293 437.2978,-431.5083 506.1957,-395.3199 589.6749,-363.3182 646.4555,-343.1883"/>
<polygon fill="#000000" stroke="#000000" points="647.7642,-346.4382 656.0339,-339.8153 645.4391,-339.8356 647.7642,-346.4382"/>
</g>
<!-- readjson&#45;&gt;messages -->
<g id="edge81" class="edge">
<title>readjson&#45;&gt;messages</title>
<path fill="none" stroke="#000000" d="M143.2982,-578.1377C95.6342,-525.7822 -11.9981,-390.3016 49.2978,-292.5083 124.5681,-172.4196 199.7243,-191.3845 336.2978,-153.5083 548.4699,-94.6661 1214.0967,-58.8748 1464.1152,-47.2125"/>
<polygon fill="#000000" stroke="#000000" points="1464.4431,-50.7011 1474.2701,-46.7414 1464.1187,-43.7087 1464.4431,-50.7011"/>
</g>
<!-- parseCommandLine&#45;&gt;regexes -->
<g id="edge10" class="edge">
<title>parseCommandLine&#45;&gt;regexes</title>
<path fill="none" stroke="#000000" d="M2386.9833,-583.4107C2256.7063,-561.9815 2023.504,-523.2925 1824.2978,-488.4917 1799.8337,-484.2179 1773.2505,-479.4434 1749.0324,-475.0429"/>
<polygon fill="#000000" stroke="#000000" points="1749.6337,-471.595 1739.1686,-473.2477 1748.3802,-478.4818 1749.6337,-471.595"/>
</g>
<!-- parseCommandLine&#45;&gt;cmdline -->
<g id="edge11" class="edge">
<title>parseCommandLine&#45;&gt;cmdline</title>
<path fill="none" stroke="#000000" d="M2471.749,-577.5066C2455.7575,-555.7705 2431.2531,-522.4635 2412.4111,-496.853"/>
<polygon fill="#000000" stroke="#000000" points="2415.0041,-494.4714 2406.2587,-488.4906 2409.3656,-498.6197 2415.0041,-494.4714"/>
</g>
<!-- parseCommandLine&#45;&gt;warnings -->
<g id="edge9" class="edge">
<title>parseCommandLine&#45;&gt;warnings</title>
<path fill="none" stroke="#000000" d="M2448.1134,-578.2034C2344.1623,-522.6722 2056.6678,-374.4874 1801.2978,-292.5083 1639.2892,-240.5001 1441.9962,-207.6664 1335.1456,-192.2963"/>
<polygon fill="#000000" stroke="#000000" points="1335.4856,-188.8095 1325.0917,-190.8633 1334.4978,-195.7394 1335.4856,-188.8095"/>
</g>
<!-- parseCommandLine&#45;&gt;args -->
<g id="edge7" class="edge">
<title>parseCommandLine&#45;&gt;args</title>
<path fill="none" stroke="#000000" d="M2405.2213,-581.119C2273.9623,-551.2874 2022.8693,-494.2208 1919.0282,-470.6206"/>
<polygon fill="#000000" stroke="#000000" points="1919.6814,-467.1798 1909.1543,-468.3765 1918.13,-474.0057 1919.6814,-467.1798"/>
</g>
<!-- parseCommandLine&#45;&gt;messages -->
<g id="edge8" class="edge">
<title>parseCommandLine&#45;&gt;messages</title>
<path fill="none" stroke="#000000" d="M2491.3749,-577.1465C2494.8107,-542.8901 2496.7231,-477.3614 2469.2978,-431.5083 2357.7941,-245.0822 2266.5373,-240.0608 2067.2978,-153.5083 1931.3576,-94.4539 1760.7462,-65.662 1656.1727,-52.6258"/>
<polygon fill="#000000" stroke="#000000" points="1656.3003,-49.1154 1645.9493,-51.3754 1655.4504,-56.0636 1656.3003,-49.1154"/>
</g>
<!-- processTemplate&#45;&gt;parseCmdLine -->
<g id="edge29" class="edge">
<title>processTemplate&#45;&gt;parseCmdLine</title>
<path fill="none" stroke="#000000" d="M1811.7324,-1107.5525C1911.5853,-1090.3888 2057.6498,-1058.3433 2091.2978,-1013.6274 2146.6878,-940.0178 2089.9727,-824.9511 2056.7438,-770.1023"/>
<polygon fill="#000000" stroke="#000000" points="2059.6725,-768.1836 2051.436,-761.5194 2053.719,-771.8654 2059.6725,-768.1836"/>
</g>
<!-- processTemplate&#45;&gt;env -->
<g id="edge19" class="edge">
<title>processTemplate&#45;&gt;env</title>
<path fill="none" stroke="#000000" d="M1826.3459,-1111.5069C1958.7344,-1096.8315 2169.3981,-1065.929 2227.2978,-1013.6274 2297.774,-949.9652 2312.1237,-829.8606 2314.8292,-771.9148"/>
<polygon fill="#000000" stroke="#000000" points="2318.3294,-771.9711 2315.2097,-761.846 2311.3344,-771.7066 2318.3294,-771.9711"/>
</g>
<!-- processTemplate&#45;&gt;variables -->
<g id="edge90" class="edge">
<title>processTemplate&#45;&gt;variables</title>
<path fill="none" stroke="#000000" d="M1678.7061,-1100.3447C1648.2913,-1080.8332 1605.5652,-1049.7229 1577.2978,-1013.6274 1480.5641,-890.1055 1424.4485,-706.8846 1404.5696,-632.8269"/>
<polygon fill="#000000" stroke="#000000" points="1407.836,-631.4877 1401.899,-622.7125 1401.0679,-633.2747 1407.836,-631.4877"/>
</g>
<!-- processTemplate&#45;&gt;vartypes -->
<g id="edge91" class="edge">
<title>processTemplate&#45;&gt;vartypes</title>
<path fill="none" stroke="#000000" d="M1605.6117,-1110.9786C1357.8601,-1084.2557 764.2045,-1009.4116 605.2978,-891.6274 488.5209,-805.0705 465.0813,-697.0801 538.2978,-571.5083 563.8753,-527.6409 614.3652,-498.1151 654.2278,-480.5261"/>
<polygon fill="#000000" stroke="#000000" points="655.7715,-483.6727 663.5918,-476.5248 653.0209,-477.2358 655.7715,-483.6727"/>
</g>
<!-- processTemplate&#45;&gt;replacement -->
<g id="edge104" class="edge">
<title>processTemplate&#45;&gt;replacement</title>
<path fill="none" stroke="#000000" d="M1708.9623,-1099.1017C1696.468,-1053.9439 1668.6202,-953.2939 1654.2536,-901.3688"/>
<polygon fill="#000000" stroke="#000000" points="1657.6085,-900.3688 1651.5685,-891.6643 1650.8619,-902.2355 1657.6085,-900.3688"/>
</g>
<!-- processTemplate&#45;&gt;readlines -->
<g id="edge23" class="edge">
<title>processTemplate&#45;&gt;readlines</title>
<path fill="none" stroke="#000000" d="M1690.1718,-1099.5406C1649.7267,-1061.5005 1571.744,-979.876 1542.2978,-891.6274 1529.7802,-854.113 1537.1578,-808.7892 1545.5676,-777.3244"/>
<polygon fill="#000000" stroke="#000000" points="1548.9577,-778.1981 1548.3103,-767.623 1542.2217,-776.2936 1548.9577,-778.1981"/>
</g>
<!-- processTemplate&#45;&gt;collectCommand -->
<g id="edge36" class="edge">
<title>processTemplate&#45;&gt;collectCommand</title>
<path fill="none" stroke="#000000" d="M1730.5935,-1099.1017C1761.0095,-1053.5676 1829.1139,-951.6126 1863.5363,-900.0808"/>
<polygon fill="#000000" stroke="#000000" points="1866.5142,-901.9238 1869.1584,-891.6643 1860.6934,-898.0356 1866.5142,-901.9238"/>
</g>
<!-- processTemplate&#45;&gt;args -->
<g id="edge13" class="edge">
<title>processTemplate&#45;&gt;args</title>
<path fill="none" stroke="#000000" d="M1812.7723,-1107.7449C1917.4271,-1090.4017 2074.1236,-1057.865 2114.2978,-1013.6274 2205.7336,-912.9432 2220.2417,-830.5458 2156.2978,-710.5083 2125.5799,-652.8437 2084.3345,-670.505 2034.2978,-628.4917 1981.0718,-583.8006 1926.5549,-523.4929 1896.2978,-488.4676"/>
<polygon fill="#000000" stroke="#000000" points="1898.6716,-485.8594 1889.5017,-480.5524 1893.3606,-490.4195 1898.6716,-485.8594"/>
</g>
<!-- processTemplate&#45;&gt;opresultwarn -->
<g id="edge105" class="edge">
<title>processTemplate&#45;&gt;opresultwarn</title>
<path fill="none" stroke="#000000" d="M1600.1804,-1112.9951C1268.9922,-1085.5594 337.2978,-997.0023 337.2978,-869 337.2978,-869 337.2978,-869 337.2978,-739 337.2978,-571.7328 435.7732,-549.5347 554.2978,-431.5083 587.9383,-398.0091 632.7988,-367.7098 666.1222,-347.3466"/>
<polygon fill="#000000" stroke="#000000" points="668.0108,-350.2948 674.7631,-342.1303 664.3932,-344.3021 668.0108,-350.2948"/>
</g>
<!-- processTemplate&#45;&gt;messages -->
<g id="edge14" class="edge">
<title>processTemplate&#45;&gt;messages</title>
<path fill="none" stroke="#000000" d="M1835.58,-1115.693C1949.5288,-1105.7249 2122.8867,-1080.0027 2258.2978,-1013.6274 2551.5034,-869.9051 2741.2978,-786.5358 2741.2978,-460 2741.2978,-460 2741.2978,-460 2741.2978,-321 2741.2978,-285.906 2843.4811,-282.2123 2595.2978,-153.5083 2432.9605,-69.3227 1880.4074,-49.1784 1656.0993,-44.4333"/>
<polygon fill="#000000" stroke="#000000" points="1656.0621,-40.9319 1645.9922,-44.2253 1655.918,-47.9304 1656.0621,-40.9319"/>
</g>
<!-- processTemplate&#45;&gt;matches -->
<g id="edge22" class="edge">
<title>processTemplate&#45;&gt;matches</title>
<path fill="none" stroke="#000000" d="M1766.2049,-1101.2803C1838.2601,-1068.8116 1967.1355,-998.4048 2020.2978,-891.6274 2029.2621,-873.6223 2029.2441,-864.3866 2020.2978,-846.3726 1994.4935,-794.4139 1961.0038,-804.4639 1916.2978,-767.4917 1859.5554,-720.5654 1796.4394,-662.3796 1760.2469,-628.3989"/>
<polygon fill="#000000" stroke="#000000" points="1762.6259,-625.8316 1752.9445,-621.528 1757.8291,-630.9297 1762.6259,-625.8316"/>
</g>
<!-- processTemplate&#45;&gt;readjson -->
<g id="edge92" class="edge">
<title>processTemplate&#45;&gt;readjson</title>
<path fill="none" stroke="#000000" d="M1590.5443,-1119.8021C1267.8234,-1113.0715 423.6142,-1088.4347 323.2978,-1013.6274 197.5784,-919.8768 171.2588,-713.1644 165.7528,-632.8322"/>
<polygon fill="#000000" stroke="#000000" points="169.2428,-632.5618 165.1299,-622.7979 162.2563,-632.9956 169.2428,-632.5618"/>
</g>
<!-- runCommand -->
<g id="node30" class="node">
<title>runCommand</title>
<g id="a_node30"><a xlink:href="runCommand.md" xlink:title="runCommand.md">
<ellipse fill="#eee8aa" stroke="#000000" cx="1200.2978" cy="-991" rx="104.7872" ry="22.7556"/>
<text text-anchor="middle" x="1200.2978" y="-983.8" font-family="Times,serif" font-size="24.00" fill="#000000">runCommand</text>
</a>
</g>
</g>
<!-- processTemplate&#45;&gt;runCommand -->
<g id="edge89" class="edge">
<title>processTemplate&#45;&gt;runCommand</title>
<path fill="none" stroke="#000000" d="M1642.6031,-1103.5087C1546.2357,-1078.9959 1376.8817,-1035.9175 1278.0405,-1010.7753"/>
<polygon fill="#000000" stroke="#000000" points="1278.6664,-1007.3231 1268.1121,-1008.2499 1276.9407,-1014.1071 1278.6664,-1007.3231"/>
</g>
<!-- runCommand&#45;&gt;runFunction -->
<g id="edge79" class="edge">
<title>runCommand&#45;&gt;runFunction</title>
<path fill="none" stroke="#000000" d="M1136.8326,-972.8671C1058.3613,-950.4467 925.2112,-912.4038 843.6779,-889.1086"/>
<polygon fill="#000000" stroke="#000000" points="844.5746,-885.7248 833.9978,-886.3429 842.6515,-892.4555 844.5746,-885.7248"/>
</g>
<!-- runCommand&#45;&gt;parseNumber -->
<g id="edge47" class="edge">
<title>runCommand&#45;&gt;parseNumber</title>
<path fill="none" stroke="#000000" d="M1192.5142,-968.1922C1177.7536,-924.9403 1145.5511,-830.5796 1127.4055,-777.4086"/>
<polygon fill="#000000" stroke="#000000" points="1130.6229,-775.9997 1124.0806,-767.6661 1123.9981,-778.2606 1130.6229,-775.9997"/>
</g>
<!-- runCommand&#45;&gt;regexes -->
<g id="edge39" class="edge">
<title>runCommand&#45;&gt;regexes</title>
<path fill="none" stroke="#000000" d="M1223.7627,-968.5767C1243.8209,-948.9808 1273.042,-919.3974 1296.2978,-891.6274 1360.0822,-815.4618 1358.8651,-782.5265 1427.2978,-710.5083 1467.3676,-668.339 1487.9799,-669.439 1529.2978,-628.4917 1571.69,-586.4799 1614.2698,-532.2191 1640.6893,-496.7864"/>
<polygon fill="#000000" stroke="#000000" points="1643.5816,-498.7619 1646.7234,-488.6436 1637.9575,-494.5942 1643.5816,-498.7619"/>
</g>
<!-- runCommand&#45;&gt;env -->
<g id="edge40" class="edge">
<title>runCommand&#45;&gt;env</title>
<path fill="none" stroke="#000000" d="M1298.9884,-983.4606C1486.556,-968.4047 1887.6269,-932.5259 2020.2978,-891.6274 2121.3554,-860.4744 2229.0135,-795.6293 2281.954,-761.3515"/>
<polygon fill="#000000" stroke="#000000" points="2284.119,-764.118 2290.5808,-755.7217 2280.2934,-758.2558 2284.119,-764.118"/>
</g>
<!-- runCommand&#45;&gt;variables -->
<g id="edge54" class="edge">
<title>runCommand&#45;&gt;variables</title>
<path fill="none" stroke="#000000" d="M1218.4067,-968.6427C1233.7134,-949.0882 1255.5936,-919.5283 1271.2978,-891.6274 1321.9149,-801.6984 1365.3899,-687.2148 1385.0692,-632.2739"/>
<polygon fill="#000000" stroke="#000000" points="1388.411,-633.3221 1388.4632,-622.7274 1381.8155,-630.9772 1388.411,-633.3221"/>
</g>
<!-- runCommand&#45;&gt;vartypes -->
<g id="edge44" class="edge">
<title>runCommand&#45;&gt;vartypes</title>
<path fill="none" stroke="#000000" d="M1106.4328,-980.8554C974.8236,-965.3827 743.3563,-933.2435 670.2978,-891.6274 540.0713,-817.447 496.1944,-705.0134 564.2978,-571.5083 584.8083,-531.301 627.2757,-501.5726 661.315,-482.9688"/>
<polygon fill="#000000" stroke="#000000" points="663.0218,-486.0255 670.2168,-478.2484 659.7424,-479.8411 663.0218,-486.0255"/>
</g>
<!-- runCommand&#45;&gt;readlines -->
<g id="edge37" class="edge">
<title>runCommand&#45;&gt;readlines</title>
<path fill="none" stroke="#000000" d="M1259.8308,-972.3389C1306.9875,-955.7764 1373.0594,-928.481 1423.2978,-891.6274 1467.7373,-859.0278 1508.0868,-809.5784 1532.8654,-775.8621"/>
<polygon fill="#000000" stroke="#000000" points="1535.7844,-777.7988 1538.8226,-767.649 1530.1179,-773.6888 1535.7844,-777.7988"/>
</g>
<!-- runCommand&#45;&gt;funtypes -->
<g id="edge58" class="edge">
<title>runCommand&#45;&gt;funtypes</title>
<path fill="none" stroke="#000000" d="M1175.9977,-968.7893C1134.7426,-930.3281 1049.7049,-847.7247 990.2978,-767.4917 957.3919,-723.0503 927.026,-666.323 909.594,-631.6052"/>
<polygon fill="#000000" stroke="#000000" points="912.6155,-629.8206 905.0289,-622.4251 906.3477,-632.9375 912.6155,-629.8206"/>
</g>
<!-- runCommand&#45;&gt;warnings -->
<g id="edge46" class="edge">
<title>runCommand&#45;&gt;warnings</title>
<path fill="none" stroke="#000000" d="M1209.0791,-968.1152C1225.0681,-924.3251 1257.2978,-825.3463 1257.2978,-739 1257.2978,-739 1257.2978,-739 1257.2978,-460 1257.2978,-371.4593 1257.2978,-267.0565 1257.2978,-214.9931"/>
<polygon fill="#000000" stroke="#000000" points="1260.7979,-214.7023 1257.2978,-204.7023 1253.7979,-214.7023 1260.7979,-214.7023"/>
</g>
<!-- runCommand&#45;&gt;collectCommand -->
<g id="edge87" class="edge">
<title>runCommand&#45;&gt;collectCommand</title>
<path fill="none" stroke="#000000" d="M1281.1098,-976.5862C1406.56,-954.2105 1647.8777,-911.1685 1784.1809,-886.8571"/>
<polygon fill="#000000" stroke="#000000" points="1784.983,-890.2694 1794.2131,-885.0677 1783.7539,-883.3781 1784.983,-890.2694"/>
</g>
<!-- runCommand&#45;&gt;opresultwarn -->
<g id="edge88" class="edge">
<title>runCommand&#45;&gt;opresultwarn</title>
<path fill="none" stroke="#000000" d="M1100.2657,-984.356C952.3507,-972.8758 684.257,-945.2298 605.2978,-891.6274 485.0338,-809.9848 509.383,-713.9613 538.2978,-571.5083 551.4408,-506.7573 551.3767,-486.3012 588.2978,-431.5083 610.6406,-398.3502 645.157,-368.6922 672.1055,-348.4699"/>
<polygon fill="#000000" stroke="#000000" points="674.2289,-351.2528 680.204,-342.5035 670.0769,-345.6171 674.2289,-351.2528"/>
</g>
<!-- runCommand&#45;&gt;messages -->
<g id="edge45" class="edge">
<title>runCommand&#45;&gt;messages</title>
<path fill="none" stroke="#000000" d="M1097.4805,-986.5858C904.4833,-977.0202 495.9111,-950.3369 368.2978,-891.6274 89.9563,-763.5743 -66.0051,-584.3406 27.2978,-292.5083 50.3948,-220.2655 60.2682,-190.8257 126.2978,-153.5083 242.3319,-87.9301 1162.3195,-54.8699 1464.4986,-45.7024"/>
<polygon fill="#000000" stroke="#000000" points="1464.664,-49.1991 1474.5539,-45.3993 1464.453,-42.2023 1464.664,-49.1991"/>
</g>
<!-- runCommand&#45;&gt;matches -->
<g id="edge38" class="edge">
<title>runCommand&#45;&gt;matches</title>
<path fill="none" stroke="#000000" d="M1257.1325,-971.8151C1297.3483,-955.7778 1350.163,-929.402 1385.2978,-891.6274 1445.3539,-827.0589 1403.1975,-772.1053 1466.2978,-710.5083 1520.4946,-657.6026 1603.7496,-628.5208 1662.243,-613.649"/>
<polygon fill="#000000" stroke="#000000" points="1663.265,-617.0019 1672.1357,-611.2088 1661.5885,-610.2056 1663.265,-617.0019"/>
</g>
<!-- runCommand&#45;&gt;readjson -->
<g id="edge86" class="edge">
<title>runCommand&#45;&gt;readjson</title>
<path fill="none" stroke="#000000" d="M1098.094,-985.79C917.7899,-975.2738 551.4762,-947.5895 437.2978,-891.6274 315.3225,-831.8438 220.1845,-692.8268 182.2199,-630.8169"/>
<polygon fill="#000000" stroke="#000000" points="185.2063,-628.9916 177.037,-622.2452 179.2162,-632.6135 185.2063,-628.9916"/>
</g>
</g>
</svg>
