<?xml version="1.0" encoding="UTF-8" standalone="no"?>
<!DOCTYPE svg PUBLIC "-//W3C//DTD SVG 1.1//EN"
 "http://www.w3.org/Graphics/SVG/1.1/DTD/svg11.dtd">
<!-- Generated by graphviz version 7.0.1 (20221109.1506)
 -->
<!-- Title: statictea Pages: 1 -->
<svg width="639pt" height="1436pt"
 viewBox="0.00 0.00 638.77 1436.04" xmlns="http://www.w3.org/2000/svg" xmlns:xlink="http://www.w3.org/1999/xlink">
<g id="graph0" class="graph" transform="scale(1 1) rotate(0) translate(4 1432.04)">
<title>statictea</title>
<polygon fill="white" stroke="none" points="-4,4 -4,-1432.04 634.77,-1432.04 634.77,4 -4,4"/>
<!-- strutils -->
<g id="node1" class="node">
<title>strutils</title>
<ellipse fill="none" stroke="black" cx="88.19" cy="-783.02" rx="57.97" ry="24.08"/>
<text text-anchor="middle" x="88.19" y="-776.82" font-family="Times,serif" font-size="24.00">strutils</text>
</g>
<!-- statictea -->
<g id="node2" class="node">
<title>statictea</title>
<ellipse fill="none" stroke="black" cx="547.57" cy="-534.02" rx="39.79" ry="18"/>
<text text-anchor="middle" x="547.57" y="-530.32" font-family="Times,serif" font-size="14.00">statictea</text>
</g>
<!-- strutils&#45;&gt;statictea -->
<g id="edge1" class="edge">
<title>strutils&#45;&gt;statictea</title>
<path fill="none" stroke="black" d="M121.86,-763.14C206.5,-711.71 428.8,-577.16 464.38,-561.02 476.34,-555.6 489.71,-550.73 502.14,-546.67"/>
<polygon fill="black" stroke="black" points="502.83,-550.13 511.31,-543.78 500.72,-543.45 502.83,-550.13"/>
</g>
<!-- messages -->
<g id="node10" class="node">
<title>messages</title>
<ellipse fill="none" stroke="black" cx="547.57" cy="-1398.02" rx="44.39" ry="18"/>
<text text-anchor="middle" x="547.57" y="-1394.32" font-family="Times,serif" font-size="14.00">messages</text>
</g>
<!-- strutils&#45;&gt;messages -->
<g id="edge7" class="edge">
<title>strutils&#45;&gt;messages</title>
<path fill="none" stroke="black" d="M103.01,-806.69C164.29,-911.37 410.87,-1329.49 464.38,-1371.02 473.55,-1378.14 484.66,-1383.42 495.72,-1387.32"/>
<polygon fill="black" stroke="black" points="494.65,-1390.65 505.24,-1390.33 496.76,-1383.98 494.65,-1390.65"/>
</g>
<!-- cmdline -->
<g id="node11" class="node">
<title>cmdline</title>
<ellipse fill="none" stroke="black" cx="547.57" cy="-966.02" rx="39.79" ry="18"/>
<text text-anchor="middle" x="547.57" y="-962.32" font-family="Times,serif" font-size="14.00">cmdline</text>
</g>
<!-- strutils&#45;&gt;cmdline -->
<g id="edge12" class="edge">
<title>strutils&#45;&gt;cmdline</title>
<path fill="none" stroke="black" d="M128.77,-800.66C196.76,-830.69 340.39,-892.96 464.38,-939.02 476.9,-943.68 490.65,-948.35 503.25,-952.48"/>
<polygon fill="black" stroke="black" points="501.94,-955.73 512.53,-955.48 504.1,-949.07 501.94,-955.73"/>
</g>
<!-- matches -->
<g id="node12" class="node">
<title>matches</title>
<ellipse fill="none" stroke="black" cx="547.57" cy="-804.02" rx="40.09" ry="18"/>
<text text-anchor="middle" x="547.57" y="-800.32" font-family="Times,serif" font-size="14.00">matches</text>
</g>
<!-- strutils&#45;&gt;matches -->
<g id="edge13" class="edge">
<title>strutils&#45;&gt;matches</title>
<path fill="none" stroke="black" d="M146.19,-785.64C236.28,-789.78 410.15,-797.76 496.03,-801.7"/>
<polygon fill="black" stroke="black" points="495.64,-805.19 505.79,-802.15 495.96,-798.19 495.64,-805.19"/>
</g>
<!-- processTemplate -->
<g id="node15" class="node">
<title>processTemplate</title>
<ellipse fill="none" stroke="black" cx="547.57" cy="-642.02" rx="70.39" ry="18"/>
<text text-anchor="middle" x="547.57" y="-638.32" font-family="Times,serif" font-size="14.00">processTemplate</text>
</g>
<!-- strutils&#45;&gt;processTemplate -->
<g id="edge20" class="edge">
<title>strutils&#45;&gt;processTemplate</title>
<path fill="none" stroke="black" d="M135.56,-768.73C220.15,-742.65 399.18,-687.46 490.48,-659.31"/>
<polygon fill="black" stroke="black" points="491.46,-662.67 499.99,-656.38 489.4,-655.99 491.46,-662.67"/>
</g>
<!-- env -->
<g id="node17" class="node">
<title>env</title>
<ellipse fill="none" stroke="black" cx="547.57" cy="-156.02" rx="27" ry="18"/>
<text text-anchor="middle" x="547.57" y="-152.32" font-family="Times,serif" font-size="14.00">env</text>
</g>
<!-- strutils&#45;&gt;env -->
<g id="edge26" class="edge">
<title>strutils&#45;&gt;env</title>
<path fill="none" stroke="black" d="M127.56,-765.07C144.06,-755.98 162.65,-743.73 176.38,-729.02 363.56,-528.44 254.79,-360.06 464.38,-183.02 477.21,-172.18 494.52,-165.66 509.95,-161.75"/>
<polygon fill="black" stroke="black" points="510.28,-165.26 519.28,-159.67 508.76,-158.43 510.28,-165.26"/>
</g>
<!-- tempFile -->
<g id="node19" class="node">
<title>tempFile</title>
<ellipse fill="none" stroke="black" cx="547.57" cy="-372.02" rx="42.49" ry="18"/>
<text text-anchor="middle" x="547.57" y="-368.32" font-family="Times,serif" font-size="14.00">tempFile</text>
</g>
<!-- strutils&#45;&gt;tempFile -->
<g id="edge29" class="edge">
<title>strutils&#45;&gt;tempFile</title>
<path fill="none" stroke="black" d="M124.77,-764.23C141.26,-754.73 160.64,-742.39 176.38,-729.02 324.78,-603.04 302.12,-506.57 464.38,-399.02 474.53,-392.29 486.5,-387.12 498.11,-383.19"/>
<polygon fill="black" stroke="black" points="499.11,-386.54 507.62,-380.24 497.03,-379.86 499.11,-386.54"/>
</g>
<!-- runCommand -->
<g id="node23" class="node">
<title>runCommand</title>
<ellipse fill="none" stroke="black" cx="547.57" cy="-588.02" rx="59.59" ry="18"/>
<text text-anchor="middle" x="547.57" y="-584.32" font-family="Times,serif" font-size="14.00">runCommand</text>
</g>
<!-- strutils&#45;&gt;runCommand -->
<g id="edge37" class="edge">
<title>strutils&#45;&gt;runCommand</title>
<path fill="none" stroke="black" d="M126.72,-764.65C193.65,-732.25 338.42,-663.76 464.38,-615.02 473.95,-611.32 484.26,-607.67 494.24,-604.31"/>
<polygon fill="black" stroke="black" points="495.05,-607.73 503.45,-601.27 492.86,-601.08 495.05,-607.73"/>
</g>
<!-- vartypes -->
<g id="node24" class="node">
<title>vartypes</title>
<ellipse fill="none" stroke="black" cx="547.57" cy="-1020.02" rx="40.09" ry="18"/>
<text text-anchor="middle" x="547.57" y="-1016.32" font-family="Times,serif" font-size="14.00">vartypes</text>
</g>
<!-- strutils&#45;&gt;vartypes -->
<g id="edge42" class="edge">
<title>strutils&#45;&gt;vartypes</title>
<path fill="none" stroke="black" d="M120.25,-803.14C183.18,-843.28 331.11,-934.49 464.38,-993.02 476.4,-998.3 489.79,-1003.12 502.22,-1007.18"/>
<polygon fill="black" stroke="black" points="500.8,-1010.41 511.39,-1010.09 502.92,-1003.73 500.8,-1010.41"/>
</g>
<!-- variables -->
<g id="node25" class="node">
<title>variables</title>
<ellipse fill="none" stroke="black" cx="547.57" cy="-1074.02" rx="42.49" ry="18"/>
<text text-anchor="middle" x="547.57" y="-1070.32" font-family="Times,serif" font-size="14.00">variables</text>
</g>
<!-- strutils&#45;&gt;variables -->
<g id="edge44" class="edge">
<title>strutils&#45;&gt;variables</title>
<path fill="none" stroke="black" d="M114.32,-804.76C172.36,-854.02 321.67,-975.37 464.38,-1047.02 475.58,-1052.65 488.22,-1057.47 500.16,-1061.42"/>
<polygon fill="black" stroke="black" points="498.83,-1064.68 509.42,-1064.35 500.94,-1058 498.83,-1064.68"/>
</g>
<!-- functions -->
<g id="node26" class="node">
<title>functions</title>
<ellipse fill="none" stroke="black" cx="547.57" cy="-426.02" rx="43.59" ry="18"/>
<text text-anchor="middle" x="547.57" y="-422.32" font-family="Times,serif" font-size="14.00">functions</text>
</g>
<!-- strutils&#45;&gt;functions -->
<g id="edge49" class="edge">
<title>strutils&#45;&gt;functions</title>
<path fill="none" stroke="black" d="M123.83,-763.84C140.29,-754.16 159.91,-741.78 176.38,-729.02 316.51,-620.42 312.39,-544.29 464.38,-453.02 474.63,-446.87 486.44,-441.93 497.87,-438.05"/>
<polygon fill="black" stroke="black" points="498.71,-441.46 507.19,-435.1 496.6,-434.78 498.71,-441.46"/>
</g>
<!-- unicodes -->
<g id="node32" class="node">
<title>unicodes</title>
<ellipse fill="none" stroke="black" cx="547.57" cy="-210.02" rx="42.49" ry="18"/>
<text text-anchor="middle" x="547.57" y="-206.32" font-family="Times,serif" font-size="14.00">unicodes</text>
</g>
<!-- strutils&#45;&gt;unicodes -->
<g id="edge56" class="edge">
<title>strutils&#45;&gt;unicodes</title>
<path fill="none" stroke="black" d="M127.26,-764.78C143.7,-755.63 162.33,-743.43 176.38,-729.02 353.3,-547.64 267.25,-396.21 464.38,-237.02 473.77,-229.44 485.36,-223.96 496.84,-220.01"/>
<polygon fill="black" stroke="black" points="497.76,-223.39 506.3,-217.11 495.71,-216.69 497.76,-223.39"/>
</g>
<!-- parseMarkdown -->
<g id="node36" class="node">
<title>parseMarkdown</title>
<ellipse fill="none" stroke="black" cx="547.57" cy="-750.02" rx="68.49" ry="18"/>
<text text-anchor="middle" x="547.57" y="-746.32" font-family="Times,serif" font-size="14.00">parseMarkdown</text>
</g>
<!-- strutils&#45;&gt;parseMarkdown -->
<g id="edge62" class="edge">
<title>strutils&#45;&gt;parseMarkdown</title>
<path fill="none" stroke="black" d="M145.73,-778.94C227.22,-773.06 377.91,-762.19 469.51,-755.58"/>
<polygon fill="black" stroke="black" points="469.7,-759.08 479.42,-754.87 469.2,-752.1 469.7,-759.08"/>
</g>
<!-- replacement -->
<g id="node37" class="node">
<title>replacement</title>
<ellipse fill="none" stroke="black" cx="547.57" cy="-858.02" rx="53.89" ry="18"/>
<text text-anchor="middle" x="547.57" y="-854.32" font-family="Times,serif" font-size="14.00">replacement</text>
</g>
<!-- strutils&#45;&gt;replacement -->
<g id="edge67" class="edge">
<title>strutils&#45;&gt;replacement</title>
<path fill="none" stroke="black" d="M142.55,-791.77C228.57,-805.88 397.27,-833.54 487.06,-848.26"/>
<polygon fill="black" stroke="black" points="486.47,-851.71 496.9,-849.88 487.6,-844.81 486.47,-851.71"/>
</g>
<!-- startingvars -->
<g id="node38" class="node">
<title>startingvars</title>
<ellipse fill="none" stroke="black" cx="547.57" cy="-912.02" rx="51.99" ry="18"/>
<text text-anchor="middle" x="547.57" y="-908.32" font-family="Times,serif" font-size="14.00">startingvars</text>
</g>
<!-- strutils&#45;&gt;startingvars -->
<g id="edge70" class="edge">
<title>strutils&#45;&gt;startingvars</title>
<path fill="none" stroke="black" d="M136.84,-796.46C223.51,-820.91 406.21,-872.43 495.41,-897.59"/>
<polygon fill="black" stroke="black" points="494.29,-900.91 504.87,-900.26 496.19,-894.18 494.29,-900.91"/>
</g>
<!-- repl -->
<g id="node41" class="node">
<title>repl</title>
<ellipse fill="none" stroke="black" cx="547.57" cy="-1236.02" rx="27" ry="18"/>
<text text-anchor="middle" x="547.57" y="-1232.32" font-family="Times,serif" font-size="14.00">repl</text>
</g>
<!-- strutils&#45;&gt;repl -->
<g id="edge78" class="edge">
<title>strutils&#45;&gt;repl</title>
<path fill="none" stroke="black" d="M103.33,-806.51C147.46,-877.84 290.17,-1094.12 464.38,-1209.02 478.17,-1218.12 495.28,-1224.38 510.31,-1228.57"/>
<polygon fill="black" stroke="black" points="509.29,-1231.92 519.85,-1231 511.02,-1225.14 509.29,-1231.92"/>
</g>
<!-- options -->
<g id="node3" class="node">
<title>options</title>
<ellipse fill="none" stroke="black" cx="88.19" cy="-696.02" rx="61.54" ry="24.08"/>
<text text-anchor="middle" x="88.19" y="-689.82" font-family="Times,serif" font-size="24.00">options</text>
</g>
<!-- parseCommandLine -->
<g id="node4" class="node">
<title>parseCommandLine</title>
<ellipse fill="none" stroke="black" cx="547.57" cy="-696.02" rx="83.39" ry="18"/>
<text text-anchor="middle" x="547.57" y="-692.32" font-family="Times,serif" font-size="14.00">parseCommandLine</text>
</g>
<!-- options&#45;&gt;parseCommandLine -->
<g id="edge2" class="edge">
<title>options&#45;&gt;parseCommandLine</title>
<path fill="none" stroke="black" d="M149.93,-696.02C227.3,-696.02 361.82,-696.02 452.5,-696.02"/>
<polygon fill="black" stroke="black" points="452.37,-699.52 462.37,-696.02 452.37,-692.52 452.37,-699.52"/>
</g>
<!-- options&#45;&gt;matches -->
<g id="edge14" class="edge">
<title>options&#45;&gt;matches</title>
<path fill="none" stroke="black" d="M141.66,-708.41C231.84,-729.71 414.79,-772.91 500.42,-793.13"/>
<polygon fill="black" stroke="black" points="499.59,-796.52 510.12,-795.42 501.2,-789.71 499.59,-796.52"/>
</g>
<!-- regexes -->
<g id="node14" class="node">
<title>regexes</title>
<ellipse fill="none" stroke="black" cx="547.57" cy="-1182.02" rx="37.89" ry="18"/>
<text text-anchor="middle" x="547.57" y="-1178.32" font-family="Times,serif" font-size="14.00">regexes</text>
</g>
<!-- options&#45;&gt;regexes -->
<g id="edge16" class="edge">
<title>options&#45;&gt;regexes</title>
<path fill="none" stroke="black" d="M127.11,-715.11C143.33,-724.34 161.84,-736.38 176.38,-750.02 337.45,-901.15 286.57,-1024 464.38,-1155.02 475.14,-1162.95 488.34,-1168.62 500.99,-1172.66"/>
<polygon fill="black" stroke="black" points="499.86,-1175.98 510.44,-1175.38 501.8,-1169.25 499.86,-1175.98"/>
</g>
<!-- options&#45;&gt;processTemplate -->
<g id="edge18" class="edge">
<title>options&#45;&gt;processTemplate</title>
<path fill="none" stroke="black" d="M147.58,-689.13C230.15,-679.38 381.04,-661.57 471.73,-650.86"/>
<polygon fill="black" stroke="black" points="472,-654.35 481.52,-649.7 471.18,-647.4 472,-654.35"/>
</g>
<!-- options&#45;&gt;env -->
<g id="edge25" class="edge">
<title>options&#45;&gt;env</title>
<path fill="none" stroke="black" d="M129.3,-677.83C145.16,-669.36 162.8,-658.22 176.38,-645.02 349.87,-476.36 274.03,-332.4 464.38,-183.02 477.37,-172.83 494.37,-166.41 509.53,-162.4"/>
<polygon fill="black" stroke="black" points="510.27,-165.83 519.2,-160.13 508.67,-159.01 510.27,-165.83"/>
</g>
<!-- options&#45;&gt;tempFile -->
<g id="edge30" class="edge">
<title>options&#45;&gt;tempFile</title>
<path fill="none" stroke="black" d="M125.72,-676.57C141.68,-667.59 160.37,-656.4 176.38,-645.02 313.57,-547.47 317.64,-481.52 464.38,-399.02 475.21,-392.94 487.61,-387.96 499.45,-384.02"/>
<polygon fill="black" stroke="black" points="500.16,-387.47 508.66,-381.14 498.07,-380.79 500.16,-387.47"/>
</g>
<!-- linebuffer -->
<g id="node21" class="node">
<title>linebuffer</title>
<ellipse fill="none" stroke="black" cx="547.57" cy="-318.02" rx="45.49" ry="18"/>
<text text-anchor="middle" x="547.57" y="-314.32" font-family="Times,serif" font-size="14.00">linebuffer</text>
</g>
<!-- options&#45;&gt;linebuffer -->
<g id="edge33" class="edge">
<title>options&#45;&gt;linebuffer</title>
<path fill="none" stroke="black" d="M126.71,-677.07C142.67,-668.26 161.09,-657.07 176.38,-645.02 321.54,-530.6 307.94,-443.45 464.38,-345.02 474.11,-338.9 485.36,-334.03 496.36,-330.21"/>
<polygon fill="black" stroke="black" points="497.31,-333.57 505.76,-327.18 495.17,-326.91 497.31,-333.57"/>
</g>
<!-- parseCmdLine -->
<g id="node22" class="node">
<title>parseCmdLine</title>
<ellipse fill="none" stroke="black" cx="547.57" cy="-1128.02" rx="63.09" ry="18"/>
<text text-anchor="middle" x="547.57" y="-1124.32" font-family="Times,serif" font-size="14.00">parseCmdLine</text>
</g>
<!-- options&#45;&gt;parseCmdLine -->
<g id="edge34" class="edge">
<title>options&#45;&gt;parseCmdLine</title>
<path fill="none" stroke="black" d="M126.24,-715.34C142.48,-724.7 161.24,-736.77 176.38,-750.02 328.21,-882.94 297.9,-986.99 464.38,-1101.02 471.2,-1105.69 478.88,-1109.6 486.74,-1112.86"/>
<polygon fill="black" stroke="black" points="485.49,-1116.13 496.08,-1116.38 487.96,-1109.58 485.49,-1116.13"/>
</g>
<!-- options&#45;&gt;runCommand -->
<g id="edge36" class="edge">
<title>options&#45;&gt;runCommand</title>
<path fill="none" stroke="black" d="M141.66,-683.63C227.84,-663.28 398.75,-622.93 488.47,-601.74"/>
<polygon fill="black" stroke="black" points="489.13,-605.18 498.06,-599.48 487.52,-598.37 489.13,-605.18"/>
</g>
<!-- options&#45;&gt;vartypes -->
<g id="edge43" class="edge">
<title>options&#45;&gt;vartypes</title>
<path fill="none" stroke="black" d="M123.9,-715.93C140.19,-725.67 159.66,-737.89 176.38,-750.02 311.93,-848.38 318.15,-911.39 464.38,-993.02 475.63,-999.3 488.56,-1004.4 500.79,-1008.41"/>
<polygon fill="black" stroke="black" points="499.72,-1011.74 510.31,-1011.34 501.78,-1005.05 499.72,-1011.74"/>
</g>
<!-- options&#45;&gt;variables -->
<g id="edge45" class="edge">
<title>options&#45;&gt;variables</title>
<path fill="none" stroke="black" d="M125.31,-715.69C141.55,-725.2 160.57,-737.3 176.38,-750.02 319.62,-865.3 308.51,-949.5 464.38,-1047.02 474.71,-1053.48 486.74,-1058.56 498.35,-1062.48"/>
<polygon fill="black" stroke="black" points="497.27,-1065.81 507.86,-1065.44 499.35,-1059.12 497.27,-1065.81"/>
</g>
<!-- options&#45;&gt;functions -->
<g id="edge47" class="edge">
<title>options&#45;&gt;functions</title>
<path fill="none" stroke="black" d="M124.26,-676.14C140.28,-666.89 159.43,-655.62 176.38,-645.02 306.83,-563.48 326.04,-520.31 464.38,-453.02 475.33,-447.7 487.59,-443.03 499.23,-439.15"/>
<polygon fill="black" stroke="black" points="500.24,-442.51 508.7,-436.13 498.11,-435.84 500.24,-442.51"/>
</g>
<!-- parseNumber -->
<g id="node29" class="node">
<title>parseNumber</title>
<ellipse fill="none" stroke="black" cx="547.57" cy="-39.02" rx="58.49" ry="18"/>
<text text-anchor="middle" x="547.57" y="-35.32" font-family="Times,serif" font-size="14.00">parseNumber</text>
</g>
<!-- options&#45;&gt;parseNumber -->
<g id="edge53" class="edge">
<title>options&#45;&gt;parseNumber</title>
<path fill="none" stroke="black" d="M130.35,-678.2C146.19,-669.84 163.53,-658.69 176.38,-645.02 370.83,-438.25 258.23,-270.13 464.38,-75.02 472.7,-67.15 483.01,-60.83 493.5,-55.82"/>
<polygon fill="black" stroke="black" points="494.82,-59.06 502.58,-51.85 492.01,-52.65 494.82,-59.06"/>
</g>
<!-- options&#45;&gt;parseMarkdown -->
<g id="edge63" class="edge">
<title>options&#45;&gt;parseMarkdown</title>
<path fill="none" stroke="black" d="M147.58,-702.92C230.61,-712.72 382.73,-730.68 473.25,-741.37"/>
<polygon fill="black" stroke="black" points="472.67,-744.82 483.01,-742.52 473.49,-737.87 472.67,-744.82"/>
</g>
<!-- options&#45;&gt;replacement -->
<g id="edge64" class="edge">
<title>options&#45;&gt;replacement</title>
<path fill="none" stroke="black" d="M133.81,-712.53C203.96,-738.39 344.43,-789.75 464.38,-831.02 474.82,-834.61 486.03,-838.37 496.72,-841.89"/>
<polygon fill="black" stroke="black" points="495.58,-845.2 506.18,-845 497.77,-838.55 495.58,-845.2"/>
</g>
<!-- updateTemplate -->
<g id="node39" class="node">
<title>updateTemplate</title>
<ellipse fill="none" stroke="black" cx="547.57" cy="-480.02" rx="67.69" ry="18"/>
<text text-anchor="middle" x="547.57" y="-476.32" font-family="Times,serif" font-size="14.00">updateTemplate</text>
</g>
<!-- options&#45;&gt;updateTemplate -->
<g id="edge73" class="edge">
<title>options&#45;&gt;updateTemplate</title>
<path fill="none" stroke="black" d="M124.32,-676.09C189.77,-639.46 335.47,-560.31 464.38,-507.02 472.77,-503.55 481.78,-500.22 490.64,-497.15"/>
<polygon fill="black" stroke="black" points="491.55,-500.54 499.91,-494.02 489.31,-493.9 491.55,-500.54"/>
</g>
<!-- options&#45;&gt;repl -->
<g id="edge77" class="edge">
<title>options&#45;&gt;repl</title>
<path fill="none" stroke="black" d="M127.49,-714.71C143.78,-723.87 162.24,-735.96 176.38,-750.02 347.17,-919.82 274.7,-1060.62 464.38,-1209.02 477.39,-1219.2 494.39,-1225.62 509.55,-1229.62"/>
<polygon fill="black" stroke="black" points="508.68,-1233.02 519.21,-1231.9 510.28,-1226.2 508.68,-1233.02"/>
</g>
<!-- tables -->
<g id="node5" class="node">
<title>tables</title>
<ellipse fill="none" stroke="black" cx="88.19" cy="-966.02" rx="50.82" ry="24.08"/>
<text text-anchor="middle" x="88.19" y="-959.82" font-family="Times,serif" font-size="24.00">tables</text>
</g>
<!-- tables&#45;&gt;parseCommandLine -->
<g id="edge3" class="edge">
<title>tables&#45;&gt;parseCommandLine</title>
<path fill="none" stroke="black" d="M115.54,-945.5C174.87,-900.08 324.71,-789.82 464.38,-723.02 471.03,-719.84 478.14,-716.89 485.31,-714.2"/>
<polygon fill="black" stroke="black" points="486.13,-717.62 494.36,-710.95 483.76,-711.03 486.13,-717.62"/>
</g>
<!-- args -->
<g id="node8" class="node">
<title>args</title>
<ellipse fill="none" stroke="black" cx="547.57" cy="-1344.02" rx="27" ry="18"/>
<text text-anchor="middle" x="547.57" y="-1340.32" font-family="Times,serif" font-size="14.00">args</text>
</g>
<!-- tables&#45;&gt;args -->
<g id="edge9" class="edge">
<title>tables&#45;&gt;args</title>
<path fill="none" stroke="black" d="M106.98,-988.44C156.83,-1049.85 304.75,-1222.47 464.38,-1317.02 478.49,-1325.38 495.51,-1331.52 510.4,-1335.81"/>
<polygon fill="black" stroke="black" points="509.25,-1339.13 519.82,-1338.35 511.07,-1332.37 509.25,-1339.13"/>
</g>
<!-- tables&#45;&gt;cmdline -->
<g id="edge11" class="edge">
<title>tables&#45;&gt;cmdline</title>
<path fill="none" stroke="black" d="M139.45,-966.02C227.39,-966.02 408.21,-966.02 496.22,-966.02"/>
<polygon fill="black" stroke="black" points="495.99,-969.52 505.99,-966.02 495.99,-962.52 495.99,-969.52"/>
</g>
<!-- tables&#45;&gt;regexes -->
<g id="edge17" class="edge">
<title>tables&#45;&gt;regexes</title>
<path fill="none" stroke="black" d="M121.79,-984.54C185.96,-1020.51 333.79,-1101.03 464.38,-1155.02 476.94,-1160.22 490.89,-1165.11 503.68,-1169.27"/>
<polygon fill="black" stroke="black" points="502.52,-1172.57 513.11,-1172.27 504.64,-1165.9 502.52,-1172.57"/>
</g>
<!-- tables&#45;&gt;processTemplate -->
<g id="edge19" class="edge">
<title>tables&#45;&gt;processTemplate</title>
<path fill="none" stroke="black" d="M110.87,-944.18C165.5,-890.23 315.13,-749.3 464.38,-669.02 471.47,-665.21 479.2,-661.81 486.99,-658.81"/>
<polygon fill="black" stroke="black" points="487.95,-662.19 496.16,-655.5 485.57,-655.6 487.95,-662.19"/>
</g>
<!-- tables&#45;&gt;parseCmdLine -->
<g id="edge35" class="edge">
<title>tables&#45;&gt;parseCmdLine</title>
<path fill="none" stroke="black" d="M129.04,-980.78C197.43,-1006 341.65,-1058.79 464.38,-1101.02 473.87,-1104.29 484.01,-1107.69 493.81,-1110.93"/>
<polygon fill="black" stroke="black" points="492.65,-1114.24 503.25,-1114.04 494.84,-1107.59 492.65,-1114.24"/>
</g>
<!-- tables&#45;&gt;runCommand -->
<g id="edge38" class="edge">
<title>tables&#45;&gt;runCommand</title>
<path fill="none" stroke="black" d="M106.98,-943.6C156.83,-882.19 304.75,-709.57 464.38,-615.02 472.19,-610.4 480.89,-606.45 489.63,-603.12"/>
<polygon fill="black" stroke="black" points="490.57,-606.5 498.82,-599.87 488.23,-599.9 490.57,-606.5"/>
</g>
<!-- tables&#45;&gt;vartypes -->
<g id="edge41" class="edge">
<title>tables&#45;&gt;vartypes</title>
<path fill="none" stroke="black" d="M137.71,-971.75C225.28,-982.09 408.84,-1003.76 497.1,-1014.18"/>
<polygon fill="black" stroke="black" points="496.55,-1017.64 506.9,-1015.34 497.38,-1010.69 496.55,-1017.64"/>
</g>
<!-- tables&#45;&gt;variables -->
<g id="edge46" class="edge">
<title>tables&#45;&gt;variables</title>
<path fill="none" stroke="black" d="M134.3,-976.67C220.99,-997.14 410.1,-1041.8 498.83,-1062.75"/>
<polygon fill="black" stroke="black" points="497.89,-1066.12 508.42,-1065.01 499.5,-1059.31 497.89,-1066.12"/>
</g>
<!-- tables&#45;&gt;functions -->
<g id="edge48" class="edge">
<title>tables&#45;&gt;functions</title>
<path fill="none" stroke="black" d="M103.54,-942.67C159.68,-851.95 366.19,-524.37 464.38,-453.02 473.96,-446.06 485.43,-440.83 496.72,-436.92"/>
<polygon fill="black" stroke="black" points="497.48,-440.35 505.97,-434.02 495.39,-433.67 497.48,-440.35"/>
</g>
<!-- signatures -->
<g id="node33" class="node">
<title>signatures</title>
<ellipse fill="none" stroke="black" cx="547.57" cy="-1290.02" rx="46.29" ry="18"/>
<text text-anchor="middle" x="547.57" y="-1286.32" font-family="Times,serif" font-size="14.00">signatures</text>
</g>
<!-- tables&#45;&gt;signatures -->
<g id="edge57" class="edge">
<title>tables&#45;&gt;signatures</title>
<path fill="none" stroke="black" d="M110.87,-987.87C165.5,-1041.81 315.13,-1182.74 464.38,-1263.02 474.5,-1268.47 485.91,-1273.07 496.94,-1276.84"/>
<polygon fill="black" stroke="black" points="495.74,-1280.13 506.34,-1279.88 497.9,-1273.47 495.74,-1280.13"/>
</g>
<!-- readjson -->
<g id="node34" class="node">
<title>readjson</title>
<ellipse fill="none" stroke="black" cx="547.57" cy="-264.02" rx="40.09" ry="18"/>
<text text-anchor="middle" x="547.57" y="-260.32" font-family="Times,serif" font-size="14.00">readjson</text>
</g>
<!-- tables&#45;&gt;readjson -->
<g id="edge61" class="edge">
<title>tables&#45;&gt;readjson</title>
<path fill="none" stroke="black" d="M102.96,-942.74C120.3,-913.34 150.9,-861.13 176.38,-816.02 307.26,-584.29 259.67,-461.09 464.38,-291.02 474.11,-282.94 486.33,-277.25 498.36,-273.26"/>
<polygon fill="black" stroke="black" points="499.21,-276.66 507.81,-270.48 497.23,-269.94 499.21,-276.66"/>
</g>
<!-- tables&#45;&gt;startingvars -->
<g id="edge69" class="edge">
<title>tables&#45;&gt;startingvars</title>
<path fill="none" stroke="black" d="M137.71,-960.29C221.93,-950.35 394.94,-929.92 486.57,-919.11"/>
<polygon fill="black" stroke="black" points="486.84,-922.6 496.36,-917.95 486.02,-915.65 486.84,-922.6"/>
</g>
<!-- tables&#45;&gt;updateTemplate -->
<g id="edge74" class="edge">
<title>tables&#45;&gt;updateTemplate</title>
<path fill="none" stroke="black" d="M101.8,-942.55C143.27,-867.56 283.2,-631.36 464.38,-507.02 470.62,-502.74 477.59,-499.1 484.76,-496.01"/>
<polygon fill="black" stroke="black" points="485.89,-499.32 493.93,-492.42 483.34,-492.8 485.89,-499.32"/>
</g>
<!-- tables&#45;&gt;repl -->
<g id="edge76" class="edge">
<title>tables&#45;&gt;repl</title>
<path fill="none" stroke="black" d="M115.54,-986.55C174.87,-1031.96 324.71,-1142.23 464.38,-1209.02 479.17,-1216.1 496.3,-1222.05 511.07,-1226.55"/>
<polygon fill="black" stroke="black" points="509.8,-1229.82 520.39,-1229.27 511.77,-1223.1 509.8,-1229.82"/>
</g>
<!-- os -->
<g id="node6" class="node">
<title>os</title>
<ellipse fill="none" stroke="black" cx="88.19" cy="-612.02" rx="27" ry="24.08"/>
<text text-anchor="middle" x="88.19" y="-605.82" font-family="Times,serif" font-size="24.00">os</text>
</g>
<!-- os&#45;&gt;statictea -->
<g id="edge82" class="edge">
<title>os&#45;&gt;statictea</title>
<path fill="none" stroke="black" d="M115.09,-607.61C189.18,-594.97 402.81,-558.54 498.83,-542.16"/>
<polygon fill="black" stroke="black" points="499.18,-545.66 508.45,-540.52 498,-538.76 499.18,-545.66"/>
</g>
<!-- os&#45;&gt;parseCommandLine -->
<g id="edge4" class="edge">
<title>os&#45;&gt;parseCommandLine</title>
<path fill="none" stroke="black" d="M115.09,-616.78C182.83,-629.22 367.2,-663.08 471.69,-682.27"/>
<polygon fill="black" stroke="black" points="470.83,-685.67 481.3,-684.04 472.1,-678.79 470.83,-685.67"/>
</g>
<!-- os&#45;&gt;cmdline -->
<g id="edge10" class="edge">
<title>os&#45;&gt;cmdline</title>
<path fill="none" stroke="black" d="M112.33,-623.63C130.46,-633.18 155.95,-647.6 176.38,-663.02 317.87,-769.85 312.39,-847.76 464.38,-939.02 475.42,-945.65 488.29,-950.87 500.52,-954.88"/>
<polygon fill="black" stroke="black" points="499.47,-958.22 510.05,-957.78 501.51,-951.52 499.47,-958.22"/>
</g>
<!-- os&#45;&gt;env -->
<g id="edge23" class="edge">
<title>os&#45;&gt;env</title>
<path fill="none" stroke="black" d="M114.79,-606.51C133.28,-601.59 158.11,-592.97 176.38,-579.02 349.38,-446.99 288.5,-311.18 464.38,-183.02 477.73,-173.3 494.78,-166.94 509.88,-162.86"/>
<polygon fill="black" stroke="black" points="510.6,-166.29 519.49,-160.52 508.95,-159.49 510.6,-166.29"/>
</g>
<!-- os&#45;&gt;tempFile -->
<g id="edge27" class="edge">
<title>os&#45;&gt;tempFile</title>
<path fill="none" stroke="black" d="M114.17,-604.03C131.91,-598.01 156.08,-589.09 176.38,-579.02 311.62,-511.98 327.69,-463.04 464.38,-399.02 475.73,-393.71 488.42,-388.99 500.36,-385.04"/>
<polygon fill="black" stroke="black" points="501.15,-388.46 509.62,-382.1 499.03,-381.79 501.15,-388.46"/>
</g>
<!-- os&#45;&gt;runCommand -->
<g id="edge39" class="edge">
<title>os&#45;&gt;runCommand</title>
<path fill="none" stroke="black" d="M115.42,-610.65C184.67,-607.01 374.14,-597.07 477.34,-591.66"/>
<polygon fill="black" stroke="black" points="477.26,-595.16 487.06,-591.15 476.89,-588.17 477.26,-595.16"/>
</g>
<!-- os&#45;&gt;functions -->
<g id="edge51" class="edge">
<title>os&#45;&gt;functions</title>
<path fill="none" stroke="black" d="M113.75,-603.11C131.29,-596.64 155.4,-587.58 176.38,-579.02 305.76,-526.28 333.87,-502.88 464.38,-453.02 476.2,-448.51 489.13,-444.04 501.18,-440.08"/>
<polygon fill="black" stroke="black" points="502.05,-443.48 510.49,-437.06 499.89,-436.82 502.05,-443.48"/>
</g>
<!-- os&#45;&gt;readjson -->
<g id="edge59" class="edge">
<title>os&#45;&gt;readjson</title>
<path fill="none" stroke="black" d="M114.56,-605.52C132.71,-600.16 157.21,-591.41 176.38,-579.02 328.43,-480.79 310.19,-385.85 464.38,-291.02 475.25,-284.34 487.97,-279.11 500.1,-275.12"/>
<polygon fill="black" stroke="black" points="501.02,-278.5 509.56,-272.23 498.97,-271.8 501.02,-278.5"/>
</g>
<!-- os&#45;&gt;startingvars -->
<g id="edge68" class="edge">
<title>os&#45;&gt;startingvars</title>
<path fill="none" stroke="black" d="M111.89,-624.25C129.77,-634.14 155.15,-648.71 176.38,-663.02 310.4,-753.34 321.56,-809.38 464.38,-885.02 473.64,-889.93 483.96,-894.16 494.07,-897.73"/>
<polygon fill="black" stroke="black" points="492.87,-901.02 503.46,-900.86 495.08,-894.38 492.87,-901.02"/>
</g>
<!-- os&#45;&gt;updateTemplate -->
<g id="edge72" class="edge">
<title>os&#45;&gt;updateTemplate</title>
<path fill="none" stroke="black" d="M114.43,-604.74C185.64,-584.19 389.43,-525.37 489.6,-496.47"/>
<polygon fill="black" stroke="black" points="490.32,-499.9 498.96,-493.76 488.38,-493.17 490.32,-499.9"/>
</g>
<!-- strformat -->
<g id="node7" class="node">
<title>strformat</title>
<ellipse fill="none" stroke="black" cx="88.19" cy="-1322.02" rx="74.49" ry="24.08"/>
<text text-anchor="middle" x="88.19" y="-1315.82" font-family="Times,serif" font-size="24.00">strformat</text>
</g>
<!-- strformat&#45;&gt;args -->
<g id="edge5" class="edge">
<title>strformat&#45;&gt;args</title>
<path fill="none" stroke="black" d="M162.17,-1325.53C260.8,-1330.28 433.03,-1338.56 508.88,-1342.21"/>
<polygon fill="black" stroke="black" points="508.53,-1345.7 518.69,-1342.68 508.87,-1338.7 508.53,-1345.7"/>
</g>
<!-- strformat&#45;&gt;messages -->
<g id="edge8" class="edge">
<title>strformat&#45;&gt;messages</title>
<path fill="none" stroke="black" d="M155.21,-1332.99C247,-1348.24 411.29,-1375.54 494.79,-1389.42"/>
<polygon fill="black" stroke="black" points="494.09,-1392.85 504.53,-1391.04 495.24,-1385.94 494.09,-1392.85"/>
</g>
<!-- strformat&#45;&gt;replacement -->
<g id="edge66" class="edge">
<title>strformat&#45;&gt;replacement</title>
<path fill="none" stroke="black" d="M137.88,-1303.73C151.17,-1297.41 165.02,-1289.49 176.38,-1280.02 343.27,-1140.91 288.71,-1012.86 464.38,-885.02 472.15,-879.37 481.17,-874.86 490.33,-871.26"/>
<polygon fill="black" stroke="black" points="491.39,-874.6 499.65,-867.96 489.05,-868 491.39,-874.6"/>
</g>
<!-- strformat&#45;&gt;repl -->
<g id="edge79" class="edge">
<title>strformat&#45;&gt;repl</title>
<path fill="none" stroke="black" d="M153.27,-1309.97C250.55,-1291.68 432.37,-1257.49 509.96,-1242.91"/>
<polygon fill="black" stroke="black" points="510.4,-1246.39 519.58,-1241.1 509.1,-1239.51 510.4,-1246.39"/>
</g>
<!-- macros -->
<g id="node9" class="node">
<title>macros</title>
<polygon fill="palegreen" stroke="black" points="153.84,-1387.24 153.84,-1408.81 115.39,-1424.06 61,-1424.06 22.54,-1408.81 22.54,-1387.24 61,-1371.98 115.39,-1371.98 153.84,-1387.24"/>
<polygon fill="none" stroke="black" points="157.83,-1384.51 157.83,-1411.53 116.15,-1428.07 60.24,-1428.07 18.55,-1411.53 18.55,-1384.51 60.24,-1367.98 116.15,-1367.98 157.83,-1384.51"/>
<text text-anchor="middle" x="88.19" y="-1391.82" font-family="Times,serif" font-size="24.00">macros</text>
</g>
<!-- macros&#45;&gt;messages -->
<g id="edge6" class="edge">
<title>macros&#45;&gt;messages</title>
<path fill="none" stroke="black" d="M158.16,-1398.02C249.33,-1398.02 408.14,-1398.02 491.65,-1398.02"/>
<polygon fill="black" stroke="black" points="491.41,-1401.52 501.41,-1398.02 491.41,-1394.52 491.41,-1401.52"/>
</g>
<!-- re -->
<g id="node13" class="node">
<title>re</title>
<polygon fill="palegreen" stroke="black" points="115.19,-1152.24 115.19,-1173.81 99.37,-1189.06 77.01,-1189.06 61.19,-1173.81 61.19,-1152.24 77.01,-1136.98 99.37,-1136.98 115.19,-1152.24"/>
<polygon fill="none" stroke="black" points="119.19,-1150.53 119.19,-1175.51 100.99,-1193.07 75.39,-1193.07 57.19,-1175.51 57.19,-1150.53 75.39,-1132.98 100.99,-1132.98 119.19,-1150.53"/>
<text text-anchor="middle" x="88.19" y="-1156.82" font-family="Times,serif" font-size="24.00">re</text>
</g>
<!-- re&#45;&gt;regexes -->
<g id="edge15" class="edge">
<title>re&#45;&gt;regexes</title>
<path fill="none" stroke="black" d="M119.55,-1164.28C197.22,-1167.51 403.62,-1176.08 498.11,-1180.01"/>
<polygon fill="black" stroke="black" points="497.68,-1183.49 507.82,-1180.41 497.98,-1176.5 497.68,-1183.49"/>
</g>
<!-- streams -->
<g id="node16" class="node">
<title>streams</title>
<ellipse fill="none" stroke="black" cx="88.19" cy="-468.02" rx="62.87" ry="24.08"/>
<text text-anchor="middle" x="88.19" y="-461.82" font-family="Times,serif" font-size="24.00">streams</text>
</g>
<!-- streams&#45;&gt;processTemplate -->
<g id="edge21" class="edge">
<title>streams&#45;&gt;processTemplate</title>
<path fill="none" stroke="black" d="M134.04,-484.85C147.66,-490 162.65,-495.71 176.38,-501.02 304.76,-550.72 334.93,-568.19 464.38,-615.02 473.02,-618.15 482.21,-621.32 491.22,-624.34"/>
<polygon fill="black" stroke="black" points="490.01,-627.63 500.61,-627.45 492.22,-620.98 490.01,-627.63"/>
</g>
<!-- streams&#45;&gt;env -->
<g id="edge22" class="edge">
<title>streams&#45;&gt;env</title>
<path fill="none" stroke="black" d="M138.14,-452.99C151.01,-448.11 164.58,-442.1 176.38,-435.02 322.23,-347.53 316.62,-267.25 464.38,-183.02 478.63,-174.9 495.67,-168.8 510.53,-164.47"/>
<polygon fill="black" stroke="black" points="511.21,-167.91 519.93,-161.89 509.36,-161.16 511.21,-167.91"/>
</g>
<!-- streams&#45;&gt;tempFile -->
<g id="edge31" class="edge">
<title>streams&#45;&gt;tempFile</title>
<path fill="none" stroke="black" d="M143.91,-456.54C233.91,-437.65 411.75,-400.32 497.75,-382.27"/>
<polygon fill="black" stroke="black" points="498.45,-385.7 507.52,-380.22 497.02,-378.85 498.45,-385.7"/>
</g>
<!-- streams&#45;&gt;linebuffer -->
<g id="edge32" class="edge">
<title>streams&#45;&gt;linebuffer</title>
<path fill="none" stroke="black" d="M136.84,-452.39C225.29,-423.39 413.73,-361.59 500.77,-333.04"/>
<polygon fill="black" stroke="black" points="501.76,-336.4 510.17,-329.96 499.58,-329.75 501.76,-336.4"/>
</g>
<!-- streams&#45;&gt;runCommand -->
<g id="edge40" class="edge">
<title>streams&#45;&gt;runCommand</title>
<path fill="none" stroke="black" d="M140.77,-481.55C227.36,-504.27 401.25,-549.89 490.66,-573.35"/>
<polygon fill="black" stroke="black" points="489.63,-576.7 500.19,-575.85 491.41,-569.93 489.63,-576.7"/>
</g>
<!-- streams&#45;&gt;readjson -->
<g id="edge58" class="edge">
<title>streams&#45;&gt;readjson</title>
<path fill="none" stroke="black" d="M135.25,-451.59C148.63,-446.55 163.19,-440.8 176.38,-435.02 307.47,-377.62 332.05,-345.5 464.38,-291.02 476.63,-285.98 490.19,-281.21 502.7,-277.12"/>
<polygon fill="black" stroke="black" points="503.47,-280.55 511.93,-274.17 501.34,-273.88 503.47,-280.55"/>
</g>
<!-- streams&#45;&gt;replacement -->
<g id="edge65" class="edge">
<title>streams&#45;&gt;replacement</title>
<path fill="none" stroke="black" d="M139.26,-482.18C151.99,-487.04 165.22,-493.26 176.38,-501.02 336.21,-612.15 302.12,-723.48 464.38,-831.02 472.57,-836.45 481.93,-840.86 491.34,-844.43"/>
<polygon fill="black" stroke="black" points="489.9,-847.64 500.5,-847.61 492.2,-841.02 489.9,-847.64"/>
</g>
<!-- streams&#45;&gt;updateTemplate -->
<g id="edge71" class="edge">
<title>streams&#45;&gt;updateTemplate</title>
<path fill="none" stroke="black" d="M151.35,-469.65C233.6,-471.81 378.62,-475.62 468.26,-477.97"/>
<polygon fill="black" stroke="black" points="468.12,-481.47 478.21,-478.23 468.3,-474.47 468.12,-481.47"/>
</g>
<!-- times -->
<g id="node18" class="node">
<title>times</title>
<ellipse fill="none" stroke="red" cx="88.19" cy="-102.02" rx="48.17" ry="24.08"/>
<text text-anchor="middle" x="88.19" y="-95.82" font-family="Times,serif" font-size="24.00">times</text>
</g>
<!-- times&#45;&gt;env -->
<g id="edge24" class="edge">
<title>times&#45;&gt;env</title>
<path fill="none" stroke="red" d="M135.56,-107.5C226.37,-118.22 426,-141.79 509.11,-151.6"/>
<polygon fill="red" stroke="red" points="508.66,-155.07 519,-152.77 509.48,-148.12 508.66,-155.07"/>
</g>
<!-- timer -->
<g id="node42" class="node">
<title>timer</title>
<ellipse fill="none" stroke="black" cx="547.57" cy="-102.02" rx="29.8" ry="18"/>
<text text-anchor="middle" x="547.57" y="-98.32" font-family="Times,serif" font-size="14.00">timer</text>
</g>
<!-- times&#45;&gt;timer -->
<g id="edge80" class="edge">
<title>times&#45;&gt;timer</title>
<path fill="none" stroke="red" d="M136.84,-102.02C227.11,-102.02 421.54,-102.02 506.02,-102.02"/>
<polygon fill="red" stroke="red" points="505.91,-105.52 515.91,-102.02 505.91,-98.52 505.91,-105.52"/>
</g>
<!-- random -->
<g id="node20" class="node">
<title>random</title>
<polygon fill="palegreen" stroke="black" points="156.96,-319.24 156.96,-340.81 116.68,-356.06 59.7,-356.06 19.42,-340.81 19.42,-319.24 59.7,-303.98 116.68,-303.98 156.96,-319.24"/>
<polygon fill="none" stroke="black" points="160.96,-316.47 160.96,-343.58 117.41,-360.07 58.97,-360.07 15.42,-343.58 15.42,-316.47 58.97,-299.98 117.41,-299.98 160.96,-316.47"/>
<text text-anchor="middle" x="88.19" y="-323.82" font-family="Times,serif" font-size="24.00">random</text>
</g>
<!-- random&#45;&gt;tempFile -->
<g id="edge28" class="edge">
<title>random&#45;&gt;tempFile</title>
<path fill="none" stroke="black" d="M161.41,-336.65C254.12,-345.17 412.74,-359.73 494.48,-367.24"/>
<polygon fill="black" stroke="black" points="493.94,-370.7 504.22,-368.13 494.58,-363.73 493.94,-370.7"/>
</g>
<!-- math -->
<g id="node27" class="node">
<title>math</title>
<ellipse fill="none" stroke="red" cx="88.19" cy="-402.02" rx="45.92" ry="24.08"/>
<text text-anchor="middle" x="88.19" y="-395.82" font-family="Times,serif" font-size="24.00">math</text>
</g>
<!-- math&#45;&gt;functions -->
<g id="edge50" class="edge">
<title>math&#45;&gt;functions</title>
<path fill="none" stroke="red" d="M134.3,-404.39C218.93,-408.83 401.21,-418.39 492.36,-423.18"/>
<polygon fill="red" stroke="red" points="492.13,-426.67 502.3,-423.7 492.49,-419.68 492.13,-426.67"/>
</g>
<!-- math&#45;&gt;timer -->
<g id="edge81" class="edge">
<title>math&#45;&gt;timer</title>
<path fill="none" stroke="red" d="M128.65,-390.22C144.07,-384.81 161.56,-377.67 176.38,-369.02 320.29,-285.04 318.65,-209.79 464.38,-129.02 477.96,-121.5 493.97,-115.65 508.24,-111.35"/>
<polygon fill="red" stroke="red" points="509.11,-114.74 517.77,-108.64 507.2,-108 509.11,-114.74"/>
</g>
<!-- algorithm -->
<g id="node28" class="node">
<title>algorithm</title>
<polygon fill="palegreen" stroke="black" points="172.56,-529.24 172.56,-550.81 123.14,-566.06 53.24,-566.06 3.82,-550.81 3.82,-529.24 53.24,-513.98 123.14,-513.98 172.56,-529.24"/>
<polygon fill="none" stroke="black" points="176.57,-526.28 176.57,-553.76 123.74,-570.07 52.64,-570.07 -0.19,-553.76 -0.19,-526.28 52.64,-509.98 123.74,-509.98 176.57,-526.28"/>
<text text-anchor="middle" x="88.19" y="-533.82" font-family="Times,serif" font-size="24.00">algorithm</text>
</g>
<!-- algorithm&#45;&gt;functions -->
<g id="edge52" class="edge">
<title>algorithm&#45;&gt;functions</title>
<path fill="none" stroke="black" d="M162.93,-521.64C257.53,-498.06 418.92,-457.84 498.83,-437.92"/>
<polygon fill="black" stroke="black" points="499.23,-441.43 508.08,-435.62 497.53,-434.64 499.23,-441.43"/>
</g>
<!-- parseutils -->
<g id="node30" class="node">
<title>parseutils</title>
<polygon fill="palegreen" stroke="black" points="171,-19.24 171,-40.81 122.49,-56.06 53.89,-56.06 5.38,-40.81 5.38,-19.24 53.89,-3.98 122.49,-3.98 171,-19.24"/>
<polygon fill="none" stroke="black" points="175.01,-16.3 175.01,-43.75 123.11,-60.07 53.27,-60.07 1.37,-43.75 1.37,-16.3 53.27,0.02 123.11,0.02 175.01,-16.3"/>
<text text-anchor="middle" x="88.19" y="-23.82" font-family="Times,serif" font-size="24.00">parseutils</text>
</g>
<!-- parseutils&#45;&gt;parseNumber -->
<g id="edge54" class="edge">
<title>parseutils&#45;&gt;parseNumber</title>
<path fill="none" stroke="black" d="M175.49,-31.72C263.14,-33.45 397.14,-36.08 477.86,-37.67"/>
<polygon fill="black" stroke="black" points="477.3,-41.16 487.37,-37.86 477.44,-34.16 477.3,-41.16"/>
</g>
<!-- unicode -->
<g id="node31" class="node">
<title>unicode</title>
<polygon fill="palegreen" stroke="black" points="158.52,-163.24 158.52,-184.81 117.32,-200.06 59.06,-200.06 17.86,-184.81 17.86,-163.24 59.06,-147.98 117.32,-147.98 158.52,-163.24"/>
<polygon fill="none" stroke="black" points="162.52,-160.45 162.52,-187.6 118.04,-204.07 58.34,-204.07 13.86,-187.6 13.86,-160.45 58.34,-143.98 118.04,-143.98 162.52,-160.45"/>
<text text-anchor="middle" x="88.19" y="-167.82" font-family="Times,serif" font-size="24.00">unicode</text>
</g>
<!-- unicode&#45;&gt;unicodes -->
<g id="edge55" class="edge">
<title>unicode&#45;&gt;unicodes</title>
<path fill="none" stroke="black" d="M162.93,-179.83C255.65,-187.12 412.53,-199.47 493.97,-205.88"/>
<polygon fill="black" stroke="black" points="493.67,-209.37 503.92,-206.67 494.22,-202.39 493.67,-209.37"/>
</g>
<!-- json -->
<g id="node35" class="node">
<title>json</title>
<polygon fill="palegreen" stroke="black" points="130.92,-241.24 130.92,-262.81 105.89,-278.06 70.49,-278.06 45.46,-262.81 45.46,-241.24 70.49,-225.98 105.89,-225.98 130.92,-241.24"/>
<polygon fill="none" stroke="black" points="134.91,-238.98 134.91,-265.06 107.01,-282.07 69.37,-282.07 41.47,-265.06 41.47,-238.98 69.37,-221.98 107.01,-221.98 134.91,-238.98"/>
<text text-anchor="middle" x="88.19" y="-245.82" font-family="Times,serif" font-size="24.00">json</text>
</g>
<!-- json&#45;&gt;readjson -->
<g id="edge60" class="edge">
<title>json&#45;&gt;readjson</title>
<path fill="none" stroke="black" d="M135.14,-253.23C221.21,-255.49 406.1,-260.34 495.76,-262.69"/>
<polygon fill="black" stroke="black" points="495.64,-266.19 505.73,-262.95 495.82,-259.19 495.64,-266.19"/>
</g>
<!-- rdstdin -->
<g id="node40" class="node">
<title>rdstdin</title>
<polygon fill="palegreen" stroke="black" points="151.74,-1230.24 151.74,-1251.81 114.51,-1267.06 61.87,-1267.06 24.64,-1251.81 24.64,-1230.24 61.87,-1214.98 114.51,-1214.98 151.74,-1230.24"/>
<polygon fill="none" stroke="black" points="155.74,-1227.55 155.74,-1254.5 115.3,-1271.07 61.08,-1271.07 20.64,-1254.5 20.64,-1227.55 61.08,-1210.98 115.3,-1210.98 155.74,-1227.55"/>
<text text-anchor="middle" x="88.19" y="-1234.82" font-family="Times,serif" font-size="24.00">rdstdin</text>
</g>
<!-- rdstdin&#45;&gt;repl -->
<g id="edge75" class="edge">
<title>rdstdin&#45;&gt;repl</title>
<path fill="none" stroke="black" d="M156.19,-1240.29C253.78,-1239.22 431.8,-1237.28 509.1,-1236.43"/>
<polygon fill="black" stroke="black" points="508.7,-1239.94 518.67,-1236.33 508.63,-1232.94 508.7,-1239.94"/>
</g>
</g>
</svg>
