<?xml version="1.0" encoding="UTF-8" standalone="no"?>
<!DOCTYPE svg PUBLIC "-//W3C//DTD SVG 1.1//EN"
 "http://www.w3.org/Graphics/SVG/1.1/DTD/svg11.dtd">
<!-- Generated by graphviz version 2.40.1 (20161225.0304)
 -->
<!-- Title: statictea Pages: 1 -->
<svg width="635pt" height="1322pt"
 viewBox="0.00 0.00 634.97 1321.98" xmlns="http://www.w3.org/2000/svg" xmlns:xlink="http://www.w3.org/1999/xlink">
<g id="graph0" class="graph" transform="scale(1 1) rotate(0) translate(4 1317.9835)">
<title>statictea</title>
<polygon fill="#ffffff" stroke="transparent" points="-4,4 -4,-1317.9835 630.9693,-1317.9835 630.9693,4 -4,4"/>
<!-- strutils -->
<g id="node1" class="node">
<title>strutils</title>
<ellipse fill="none" stroke="#000000" cx="87.6672" cy="-799.4917" rx="57.5374" ry="22.7556"/>
<text text-anchor="middle" x="87.6672" y="-792.2917" font-family="Times,serif" font-size="24.00" fill="#000000">strutils</text>
</g>
<!-- statictea -->
<g id="node2" class="node">
<title>statictea</title>
<ellipse fill="none" stroke="#000000" cx="545.1518" cy="-1069.4917" rx="39.154" ry="18"/>
<text text-anchor="middle" x="545.1518" y="-1065.2917" font-family="Times,serif" font-size="14.00" fill="#000000">statictea</text>
</g>
<!-- strutils&#45;&gt;statictea -->
<g id="edge1" class="edge">
<title>strutils&#45;&gt;statictea</title>
<path fill="none" stroke="#000000" d="M134.2522,-813.111C147.849,-817.8387 162.4958,-823.6896 175.3343,-830.4917 315.7794,-904.9027 322.1106,-969.5692 463.3343,-1042.4917 475.0799,-1048.5567 488.4664,-1053.6519 500.9612,-1057.7242"/>
<polygon fill="#000000" stroke="#000000" points="500.1538,-1061.1384 510.7422,-1060.7697 502.2349,-1054.4549 500.1538,-1061.1384"/>
</g>
<!-- args -->
<g id="node7" class="node">
<title>args</title>
<ellipse fill="none" stroke="#000000" cx="545.1518" cy="-907.4917" rx="27" ry="18"/>
<text text-anchor="middle" x="545.1518" y="-903.2917" font-family="Times,serif" font-size="14.00" fill="#000000">args</text>
</g>
<!-- strutils&#45;&gt;args -->
<g id="edge5" class="edge">
<title>strutils&#45;&gt;args</title>
<path fill="none" stroke="#000000" d="M137.0607,-811.1522C229.8197,-833.0502 428.0274,-879.8418 509.2789,-899.0231"/>
<polygon fill="#000000" stroke="#000000" points="508.9589,-902.5437 519.4956,-901.435 510.5673,-895.731 508.9589,-902.5437"/>
</g>
<!-- warnings -->
<g id="node8" class="node">
<title>warnings</title>
<ellipse fill="none" stroke="#000000" cx="545.1518" cy="-1015.4917" rx="42.5542" ry="18"/>
<text text-anchor="middle" x="545.1518" y="-1011.2917" font-family="Times,serif" font-size="14.00" fill="#000000">warnings</text>
</g>
<!-- strutils&#45;&gt;warnings -->
<g id="edge6" class="edge">
<title>strutils&#45;&gt;warnings</title>
<path fill="none" stroke="#000000" d="M132.815,-813.8883C146.6432,-818.7143 161.7781,-824.4244 175.3343,-830.4917 308.5931,-890.1345 329.4526,-930.2607 463.3343,-988.4917 474.9077,-993.5255 487.7399,-998.1741 499.744,-1002.1447"/>
<polygon fill="#000000" stroke="#000000" points="498.9953,-1005.5805 509.5868,-1005.314 501.1409,-998.9174 498.9953,-1005.5805"/>
</g>
<!-- cmdline -->
<g id="node11" class="node">
<title>cmdline</title>
<ellipse fill="none" stroke="#000000" cx="545.1518" cy="-799.4917" rx="38.6869" ry="18"/>
<text text-anchor="middle" x="545.1518" y="-795.2917" font-family="Times,serif" font-size="14.00" fill="#000000">cmdline</text>
</g>
<!-- strutils&#45;&gt;cmdline -->
<g id="edge12" class="edge">
<title>strutils&#45;&gt;cmdline</title>
<path fill="none" stroke="#000000" d="M145.6079,-799.4917C236.5463,-799.4917 411.1627,-799.4917 496.2021,-799.4917"/>
<polygon fill="#000000" stroke="#000000" points="496.3628,-802.9918 506.3627,-799.4917 496.3627,-795.9918 496.3628,-802.9918"/>
</g>
<!-- processTemplate -->
<g id="node13" class="node">
<title>processTemplate</title>
<ellipse fill="none" stroke="#000000" cx="545.1518" cy="-691.4917" rx="69.306" ry="18"/>
<text text-anchor="middle" x="545.1518" y="-687.2917" font-family="Times,serif" font-size="14.00" fill="#000000">processTemplate</text>
</g>
<!-- strutils&#45;&gt;processTemplate -->
<g id="edge17" class="edge">
<title>strutils&#45;&gt;processTemplate</title>
<path fill="none" stroke="#000000" d="M137.0607,-787.8312C221.129,-767.9849 391.8123,-727.6911 483.5442,-706.0357"/>
<polygon fill="#000000" stroke="#000000" points="484.5906,-709.3849 493.5189,-703.6809 482.9823,-702.5722 484.5906,-709.3849"/>
</g>
<!-- env -->
<g id="node14" class="node">
<title>env</title>
<ellipse fill="none" stroke="#000000" cx="545.1518" cy="-961.4917" rx="27" ry="18"/>
<text text-anchor="middle" x="545.1518" y="-957.2917" font-family="Times,serif" font-size="14.00" fill="#000000">env</text>
</g>
<!-- strutils&#45;&gt;env -->
<g id="edge22" class="edge">
<title>strutils&#45;&gt;env</title>
<path fill="none" stroke="#000000" d="M130.9401,-814.7293C145.0964,-819.7313 160.8924,-825.3308 175.3343,-830.4917 303.4873,-876.288 334.7045,-890.0524 463.3343,-934.4917 478.9567,-939.889 496.3363,-945.6574 511.0455,-950.4709"/>
<polygon fill="#000000" stroke="#000000" points="510.1553,-953.862 520.7477,-953.6345 512.3254,-947.2068 510.1553,-953.862"/>
</g>
<!-- tempFile -->
<g id="node16" class="node">
<title>tempFile</title>
<ellipse fill="none" stroke="#000000" cx="545.1518" cy="-1177.4917" rx="41.5938" ry="18"/>
<text text-anchor="middle" x="545.1518" y="-1173.2917" font-family="Times,serif" font-size="14.00" fill="#000000">tempFile</text>
</g>
<!-- strutils&#45;&gt;tempFile -->
<g id="edge25" class="edge">
<title>strutils&#45;&gt;tempFile</title>
<path fill="none" stroke="#000000" d="M136.1166,-811.8254C149.4706,-816.4714 163.5213,-822.6005 175.3343,-830.4917 334.4402,-936.7766 303.114,-1045.8943 463.3343,-1150.4917 473.7067,-1157.2632 485.93,-1162.479 497.7215,-1166.4372"/>
<polygon fill="#000000" stroke="#000000" points="496.8862,-1169.8428 507.4746,-1169.4727 498.9665,-1163.159 496.8862,-1169.8428"/>
</g>
<!-- matches -->
<g id="node19" class="node">
<title>matches</title>
<ellipse fill="none" stroke="#000000" cx="545.1518" cy="-367.4917" rx="39.1627" ry="18"/>
<text text-anchor="middle" x="545.1518" y="-363.2917" font-family="Times,serif" font-size="14.00" fill="#000000">matches</text>
</g>
<!-- strutils&#45;&gt;matches -->
<g id="edge29" class="edge">
<title>strutils&#45;&gt;matches</title>
<path fill="none" stroke="#000000" d="M119.1912,-780.4752C136.5883,-769.2831 158.0949,-754.2595 175.3343,-738.4917 322.4691,-603.9169 298.3455,-506.4637 463.3343,-394.4917 474.0769,-387.2011 486.9403,-381.7505 499.2515,-377.7302"/>
<polygon fill="#000000" stroke="#000000" points="500.3911,-381.0423 508.9553,-374.8049 498.3706,-374.3402 500.3911,-381.0423"/>
</g>
<!-- runCommand -->
<g id="node22" class="node">
<title>runCommand</title>
<ellipse fill="none" stroke="#000000" cx="545.1518" cy="-421.4917" rx="58.9841" ry="18"/>
<text text-anchor="middle" x="545.1518" y="-417.2917" font-family="Times,serif" font-size="14.00" fill="#000000">runCommand</text>
</g>
<!-- strutils&#45;&gt;runCommand -->
<g id="edge36" class="edge">
<title>strutils&#45;&gt;runCommand</title>
<path fill="none" stroke="#000000" d="M118.2759,-780.1682C135.5826,-768.7637 157.2992,-753.6328 175.3343,-738.4917 314.456,-621.6949 308.8364,-544.0258 463.3343,-448.4917 471.2757,-443.5812 480.2088,-439.46 489.1779,-436.0353"/>
<polygon fill="#000000" stroke="#000000" points="490.6283,-439.2344 498.8791,-432.5881 488.2844,-432.6384 490.6283,-439.2344"/>
</g>
<!-- vartypes -->
<g id="node23" class="node">
<title>vartypes</title>
<ellipse fill="none" stroke="#000000" cx="545.1518" cy="-313.4917" rx="40.1317" ry="18"/>
<text text-anchor="middle" x="545.1518" y="-309.2917" font-family="Times,serif" font-size="14.00" fill="#000000">vartypes</text>
</g>
<!-- strutils&#45;&gt;vartypes -->
<g id="edge39" class="edge">
<title>strutils&#45;&gt;vartypes</title>
<path fill="none" stroke="#000000" d="M120.0484,-780.6747C137.5055,-769.6525 158.7946,-754.7284 175.3343,-738.4917 331.147,-585.5339 287.1096,-469.4046 463.3343,-340.4917 473.6224,-332.9658 486.1273,-327.4584 498.2333,-323.4597"/>
<polygon fill="#000000" stroke="#000000" points="499.2466,-326.8099 507.8064,-320.5666 497.2215,-320.1092 499.2466,-326.8099"/>
</g>
<!-- variables -->
<g id="node26" class="node">
<title>variables</title>
<ellipse fill="none" stroke="#000000" cx="545.1518" cy="-259.4917" rx="42.0524" ry="18"/>
<text text-anchor="middle" x="545.1518" y="-255.2917" font-family="Times,serif" font-size="14.00" fill="#000000">variables</text>
</g>
<!-- strutils&#45;&gt;variables -->
<g id="edge42" class="edge">
<title>strutils&#45;&gt;variables</title>
<path fill="none" stroke="#000000" d="M120.8534,-780.7904C138.3439,-769.9063 159.41,-755.0762 175.3343,-738.4917 340.3143,-566.6722 275.3204,-432.7487 463.3343,-286.4917 473.0192,-278.9578 484.8982,-273.4799 496.5708,-269.5138"/>
<polygon fill="#000000" stroke="#000000" points="497.7472,-272.8138 506.2745,-266.526 495.6873,-266.1237 497.7472,-272.8138"/>
</g>
<!-- runFunction -->
<g id="node27" class="node">
<title>runFunction</title>
<ellipse fill="none" stroke="#000000" cx="545.1518" cy="-1123.4917" rx="53.1797" ry="18"/>
<text text-anchor="middle" x="545.1518" y="-1119.2917" font-family="Times,serif" font-size="14.00" fill="#000000">runFunction</text>
</g>
<!-- strutils&#45;&gt;runFunction -->
<g id="edge47" class="edge">
<title>strutils&#45;&gt;runFunction</title>
<path fill="none" stroke="#000000" d="M135.2079,-812.3819C148.6874,-817.0623 163.0317,-823.0703 175.3343,-830.4917 324.5325,-920.4939 313.1933,-1008.0714 463.3343,-1096.4917 472.131,-1101.6722 482.0525,-1106.0095 491.8739,-1109.585"/>
<polygon fill="#000000" stroke="#000000" points="491.0221,-1112.9924 501.6166,-1112.9096 493.2828,-1106.3675 491.0221,-1112.9924"/>
</g>
<!-- unicodes -->
<g id="node31" class="node">
<title>unicodes</title>
<ellipse fill="none" stroke="#000000" cx="545.1518" cy="-1285.4917" rx="41.5852" ry="18"/>
<text text-anchor="middle" x="545.1518" y="-1281.2917" font-family="Times,serif" font-size="14.00" fill="#000000">unicodes</text>
</g>
<!-- strutils&#45;&gt;unicodes -->
<g id="edge52" class="edge">
<title>strutils&#45;&gt;unicodes</title>
<path fill="none" stroke="#000000" d="M137.3258,-810.9377C150.5508,-815.5539 164.232,-821.8896 175.3343,-830.4917 356.5761,-970.9193 280.6185,-1119.9875 463.3343,-1258.4917 473.2057,-1265.9746 485.2523,-1271.4416 497.0337,-1275.414"/>
<polygon fill="#000000" stroke="#000000" points="496.2276,-1278.8275 506.8142,-1278.4106 498.2783,-1272.1346 496.2276,-1278.8275"/>
</g>
<!-- signatures -->
<g id="node32" class="node">
<title>signatures</title>
<ellipse fill="none" stroke="#000000" cx="545.1518" cy="-205.4917" rx="45.9286" ry="18"/>
<text text-anchor="middle" x="545.1518" y="-201.2917" font-family="Times,serif" font-size="14.00" fill="#000000">signatures</text>
</g>
<!-- strutils&#45;&gt;signatures -->
<g id="edge54" class="edge">
<title>strutils&#45;&gt;signatures</title>
<path fill="none" stroke="#000000" d="M121.1871,-781.1029C138.7754,-770.3103 159.8283,-755.468 175.3343,-738.4917 349.8473,-547.4309 263.1146,-396.4158 463.3343,-232.4917 472.0182,-225.3821 482.6401,-220.1206 493.3179,-216.2347"/>
<polygon fill="#000000" stroke="#000000" points="494.6698,-219.475 503.0859,-213.0391 492.4933,-212.822 494.6698,-219.475"/>
</g>
<!-- replacement -->
<g id="node33" class="node">
<title>replacement</title>
<ellipse fill="none" stroke="#000000" cx="545.1518" cy="-583.4917" rx="53.1281" ry="18"/>
<text text-anchor="middle" x="545.1518" y="-579.2917" font-family="Times,serif" font-size="14.00" fill="#000000">replacement</text>
</g>
<!-- strutils&#45;&gt;replacement -->
<g id="edge59" class="edge">
<title>strutils&#45;&gt;replacement</title>
<path fill="none" stroke="#000000" d="M120.5673,-780.8576C184.9702,-744.853 332.8017,-664.5204 463.3343,-610.4917 473.4926,-606.2871 484.5621,-602.2712 495.1823,-598.6823"/>
<polygon fill="#000000" stroke="#000000" points="496.3739,-601.9747 504.7702,-595.5132 494.177,-595.3284 496.3739,-601.9747"/>
</g>
<!-- codefile -->
<g id="node37" class="node">
<title>codefile</title>
<ellipse fill="none" stroke="#000000" cx="545.1518" cy="-853.4917" rx="38.2024" ry="18"/>
<text text-anchor="middle" x="545.1518" y="-849.2917" font-family="Times,serif" font-size="14.00" fill="#000000">codefile</text>
</g>
<!-- strutils&#45;&gt;codefile -->
<g id="edge67" class="edge">
<title>strutils&#45;&gt;codefile</title>
<path fill="none" stroke="#000000" d="M142.8505,-806.0054C233.5342,-816.7094 412.5044,-837.8345 497.7946,-847.9019"/>
<polygon fill="#000000" stroke="#000000" points="497.6233,-851.4058 507.9646,-849.1023 498.4439,-844.4541 497.6233,-851.4058"/>
</g>
<!-- options -->
<g id="node3" class="node">
<title>options</title>
<ellipse fill="none" stroke="#000000" cx="87.6672" cy="-475.4917" rx="61.0788" ry="22.7556"/>
<text text-anchor="middle" x="87.6672" y="-468.2917" font-family="Times,serif" font-size="24.00" fill="#000000">options</text>
</g>
<!-- parseCommandLine -->
<g id="node4" class="node">
<title>parseCommandLine</title>
<ellipse fill="none" stroke="#000000" cx="545.1518" cy="-475.4917" rx="81.6354" ry="18"/>
<text text-anchor="middle" x="545.1518" y="-471.2917" font-family="Times,serif" font-size="14.00" fill="#000000">parseCommandLine</text>
</g>
<!-- options&#45;&gt;parseCommandLine -->
<g id="edge2" class="edge">
<title>options&#45;&gt;parseCommandLine</title>
<path fill="none" stroke="#000000" d="M149.3656,-475.4917C227.4509,-475.4917 362.6402,-475.4917 452.9847,-475.4917"/>
<polygon fill="#000000" stroke="#000000" points="453.2246,-478.9918 463.2245,-475.4917 453.2245,-471.9918 453.2246,-478.9918"/>
</g>
<!-- regexes -->
<g id="node10" class="node">
<title>regexes</title>
<ellipse fill="none" stroke="#000000" cx="545.1518" cy="-97.4917" rx="37.2248" ry="18"/>
<text text-anchor="middle" x="545.1518" y="-93.2917" font-family="Times,serif" font-size="14.00" fill="#000000">regexes</text>
</g>
<!-- options&#45;&gt;regexes -->
<g id="edge8" class="edge">
<title>options&#45;&gt;regexes</title>
<path fill="none" stroke="#000000" d="M122.7125,-456.5997C139.3116,-446.989 159.0249,-434.5845 175.3343,-421.4917 318.7182,-306.3871 307.5271,-222.1242 463.3343,-124.4917 474.8488,-117.2765 488.494,-111.7821 501.3079,-107.6958"/>
<polygon fill="#000000" stroke="#000000" points="502.3107,-111.0491 510.8956,-104.8402 500.3126,-104.3403 502.3107,-111.0491"/>
</g>
<!-- options&#45;&gt;processTemplate -->
<g id="edge15" class="edge">
<title>options&#45;&gt;processTemplate</title>
<path fill="none" stroke="#000000" d="M121.3199,-494.5465C186.1159,-530.7528 333.3076,-610.6725 463.3343,-664.4917 471.86,-668.0206 481.0276,-671.4165 490.0327,-674.5387"/>
<polygon fill="#000000" stroke="#000000" points="489.1081,-677.9208 499.7024,-677.8125 491.3529,-671.2905 489.1081,-677.9208"/>
</g>
<!-- options&#45;&gt;env -->
<g id="edge21" class="edge">
<title>options&#45;&gt;env</title>
<path fill="none" stroke="#000000" d="M126.7701,-493.0799C142.8813,-501.4724 161.0729,-512.5271 175.3343,-525.4917 339.8409,-675.0402 284.7478,-802.0756 463.3343,-934.4917 476.6113,-944.3362 493.6702,-950.7126 508.7725,-954.7806"/>
<polygon fill="#000000" stroke="#000000" points="508.2997,-958.2681 518.8448,-957.2425 509.9618,-951.4682 508.2997,-958.2681"/>
</g>
<!-- options&#45;&gt;tempFile -->
<g id="edge26" class="edge">
<title>options&#45;&gt;tempFile</title>
<path fill="none" stroke="#000000" d="M128.8668,-492.3191C144.9436,-500.4668 162.5449,-511.5449 175.3343,-525.4917 382.0474,-750.9118 235.1928,-946.7862 463.3343,-1150.4917 472.5741,-1158.7419 484.3976,-1164.4797 496.1665,-1168.4674"/>
<polygon fill="#000000" stroke="#000000" points="495.397,-1171.8909 505.9815,-1171.4222 497.4149,-1165.188 495.397,-1171.8909"/>
</g>
<!-- readlines -->
<g id="node18" class="node">
<title>readlines</title>
<ellipse fill="none" stroke="#000000" cx="545.1518" cy="-529.4917" rx="42.0524" ry="18"/>
<text text-anchor="middle" x="545.1518" y="-525.2917" font-family="Times,serif" font-size="14.00" fill="#000000">readlines</text>
</g>
<!-- options&#45;&gt;readlines -->
<g id="edge28" class="edge">
<title>options&#45;&gt;readlines</title>
<path fill="none" stroke="#000000" d="M146.0726,-482.3857C236.5788,-493.0688 409.1638,-513.4402 494.6224,-523.5274"/>
<polygon fill="#000000" stroke="#000000" points="494.2596,-527.0088 504.6009,-524.7052 495.0802,-520.0571 494.2596,-527.0088"/>
</g>
<!-- options&#45;&gt;matches -->
<g id="edge31" class="edge">
<title>options&#45;&gt;matches</title>
<path fill="none" stroke="#000000" d="M139.7011,-463.2079C230.1687,-441.8509 414.9257,-398.2347 500.1934,-378.1052"/>
<polygon fill="#000000" stroke="#000000" points="501.1574,-381.4739 510.0857,-375.7699 499.5491,-374.6612 501.1574,-381.4739"/>
</g>
<!-- parseCmdLine -->
<g id="node20" class="node">
<title>parseCmdLine</title>
<ellipse fill="none" stroke="#000000" cx="545.1518" cy="-151.4917" rx="62.3407" ry="18"/>
<text text-anchor="middle" x="545.1518" y="-147.2917" font-family="Times,serif" font-size="14.00" fill="#000000">parseCmdLine</text>
</g>
<!-- options&#45;&gt;parseCmdLine -->
<g id="edge32" class="edge">
<title>options&#45;&gt;parseCmdLine</title>
<path fill="none" stroke="#000000" d="M121.3104,-456.364C137.947,-446.5084 158.1017,-433.9632 175.3343,-421.4917 311.0069,-323.3034 317.1549,-260.2205 463.3343,-178.4917 471.2923,-174.0425 480.099,-170.1813 488.8991,-166.8803"/>
<polygon fill="#000000" stroke="#000000" points="490.1452,-170.1521 498.4051,-163.5171 487.8103,-163.553 490.1452,-170.1521"/>
</g>
<!-- options&#45;&gt;runCommand -->
<g id="edge35" class="edge">
<title>options&#45;&gt;runCommand</title>
<path fill="none" stroke="#000000" d="M146.0726,-468.5978C231.7759,-458.4816 391.078,-439.6781 480.3067,-429.1458"/>
<polygon fill="#000000" stroke="#000000" points="480.782,-432.6141 490.3028,-427.9659 479.9614,-425.6624 480.782,-432.6141"/>
</g>
<!-- parseNumber -->
<g id="node24" class="node">
<title>parseNumber</title>
<ellipse fill="none" stroke="#000000" cx="545.1518" cy="-38.4917" rx="57.9892" ry="18"/>
<text text-anchor="middle" x="545.1518" y="-34.2917" font-family="Times,serif" font-size="14.00" fill="#000000">parseNumber</text>
</g>
<!-- options&#45;&gt;parseNumber -->
<g id="edge40" class="edge">
<title>options&#45;&gt;parseNumber</title>
<path fill="none" stroke="#000000" d="M123.6338,-456.9437C140.2518,-447.4975 159.716,-435.1314 175.3343,-421.4917 327.3252,-288.756 300.0728,-189.0905 463.3343,-70.4917 472.2152,-64.0404 482.569,-58.6872 492.8658,-54.3248"/>
<polygon fill="#000000" stroke="#000000" points="494.2595,-57.5372 502.262,-50.5938 491.6762,-51.0313 494.2595,-57.5372"/>
</g>
<!-- options&#45;&gt;variables -->
<g id="edge43" class="edge">
<title>options&#45;&gt;variables</title>
<path fill="none" stroke="#000000" d="M121.3199,-456.437C186.1159,-420.2307 333.3076,-340.311 463.3343,-286.4917 475.3303,-281.5265 488.5971,-276.8244 500.8941,-272.7778"/>
<polygon fill="#000000" stroke="#000000" points="502.0608,-276.0791 510.5052,-269.6805 499.9137,-269.4165 502.0608,-276.0791"/>
</g>
<!-- options&#45;&gt;runFunction -->
<g id="edge45" class="edge">
<title>options&#45;&gt;runFunction</title>
<path fill="none" stroke="#000000" d="M128.6217,-492.5479C144.661,-500.7306 162.3004,-511.7731 175.3343,-525.4917 371.1075,-731.5501 248.0072,-910.9617 463.3343,-1096.4917 470.6513,-1102.7962 479.4823,-1107.638 488.5981,-1111.354"/>
<polygon fill="#000000" stroke="#000000" points="487.5553,-1114.699 498.1493,-1114.833 489.9511,-1108.1218 487.5553,-1114.699"/>
</g>
<!-- options&#45;&gt;signatures -->
<g id="edge55" class="edge">
<title>options&#45;&gt;signatures</title>
<path fill="none" stroke="#000000" d="M119.866,-455.9622C136.4994,-445.797 157.0827,-433.0984 175.3343,-421.4917 304.5257,-339.3358 325.4583,-299.0515 463.3343,-232.4917 474.0654,-227.3113 486.0407,-222.7404 497.4467,-218.9014"/>
<polygon fill="#000000" stroke="#000000" points="498.8419,-222.1287 507.2781,-215.7192 496.6862,-215.4688 498.8419,-222.1287"/>
</g>
<!-- options&#45;&gt;replacement -->
<g id="edge56" class="edge">
<title>options&#45;&gt;replacement</title>
<path fill="none" stroke="#000000" d="M139.7011,-487.7756C227.1956,-508.4307 402.8838,-549.906 491.4712,-570.8192"/>
<polygon fill="#000000" stroke="#000000" points="490.7788,-574.2518 501.3154,-573.1431 492.3871,-567.4391 490.7788,-574.2518"/>
</g>
<!-- options&#45;&gt;codefile -->
<g id="edge64" class="edge">
<title>options&#45;&gt;codefile</title>
<path fill="none" stroke="#000000" d="M124.9943,-493.6915C141.1529,-502.3352 159.8664,-513.4151 175.3343,-525.4917 321.272,-639.4333 306.7715,-727.6556 463.3343,-826.4917 474.5123,-833.5483 487.7232,-838.9505 500.2312,-842.9995"/>
<polygon fill="#000000" stroke="#000000" points="499.4748,-846.427 510.0594,-845.9625 501.4953,-839.725 499.4748,-846.427"/>
</g>
<!-- tables -->
<g id="node5" class="node">
<title>tables</title>
<ellipse fill="none" stroke="#000000" cx="87.6672" cy="-389.4917" rx="50.796" ry="22.7556"/>
<text text-anchor="middle" x="87.6672" y="-382.2917" font-family="Times,serif" font-size="24.00" fill="#000000">tables</text>
</g>
<!-- tables&#45;&gt;parseCommandLine -->
<g id="edge3" class="edge">
<title>tables&#45;&gt;parseCommandLine</title>
<path fill="none" stroke="#000000" d="M134.9029,-398.3713C214.9704,-413.4228 377.845,-444.0407 472.5109,-461.8364"/>
<polygon fill="#000000" stroke="#000000" points="472.1055,-465.3214 482.5801,-463.7292 473.3988,-458.4419 472.1055,-465.3214"/>
</g>
<!-- tables&#45;&gt;regexes -->
<g id="edge9" class="edge">
<title>tables&#45;&gt;regexes</title>
<path fill="none" stroke="#000000" d="M111.1175,-369.1333C167.9434,-320.6898 318.9842,-197.1911 463.3343,-124.4917 475.5768,-118.326 489.5388,-113.1147 502.4203,-108.9646"/>
<polygon fill="#000000" stroke="#000000" points="503.4934,-112.2964 512.014,-105.9997 501.4264,-105.6085 503.4934,-112.2964"/>
</g>
<!-- tables&#45;&gt;cmdline -->
<g id="edge11" class="edge">
<title>tables&#45;&gt;cmdline</title>
<path fill="none" stroke="#000000" d="M120.8924,-406.8146C137.9905,-416.4865 158.6813,-429.4106 175.3343,-443.4917 323.7278,-568.9681 301.3442,-665.1411 463.3343,-772.4917 474.255,-779.7288 487.2801,-785.1743 499.6914,-789.207"/>
<polygon fill="#000000" stroke="#000000" points="498.8772,-792.6169 509.4615,-792.1455 500.8933,-785.9135 498.8772,-792.6169"/>
</g>
<!-- tables&#45;&gt;processTemplate -->
<g id="edge16" class="edge">
<title>tables&#45;&gt;processTemplate</title>
<path fill="none" stroke="#000000" d="M118.587,-407.4818C135.6015,-417.6426 156.9343,-430.8143 175.3343,-443.4917 308.1953,-535.0316 320.7213,-589.0389 463.3343,-664.4917 470.8416,-668.4637 479.0437,-672.0019 487.2631,-675.1035"/>
<polygon fill="#000000" stroke="#000000" points="486.2848,-678.4706 496.8793,-678.5437 488.6427,-671.8797 486.2848,-678.4706"/>
</g>
<!-- tables&#45;&gt;matches -->
<g id="edge30" class="edge">
<title>tables&#45;&gt;matches</title>
<path fill="none" stroke="#000000" d="M138.374,-387.0533C226.9008,-382.7961 408.5343,-374.0615 495.9753,-369.8566"/>
<polygon fill="#000000" stroke="#000000" points="496.339,-373.3432 506.1593,-369.3669 496.0027,-366.3513 496.339,-373.3432"/>
</g>
<!-- tables&#45;&gt;parseCmdLine -->
<g id="edge33" class="edge">
<title>tables&#45;&gt;parseCmdLine</title>
<path fill="none" stroke="#000000" d="M116.845,-370.5084C178.72,-330.8438 328.4954,-237.9411 463.3343,-178.4917 472.3675,-174.5091 482.1812,-170.7854 491.7724,-167.4518"/>
<polygon fill="#000000" stroke="#000000" points="492.8962,-170.7665 501.2524,-164.2531 490.6582,-164.1339 492.8962,-170.7665"/>
</g>
<!-- tables&#45;&gt;runCommand -->
<g id="edge37" class="edge">
<title>tables&#45;&gt;runCommand</title>
<path fill="none" stroke="#000000" d="M138.374,-393.0386C221.1164,-398.8262 385.1956,-410.3032 477.6806,-416.7723"/>
<polygon fill="#000000" stroke="#000000" points="477.5519,-420.2717 487.7718,-417.4781 478.0404,-413.2888 477.5519,-420.2717"/>
</g>
<!-- tables&#45;&gt;vartypes -->
<g id="edge38" class="edge">
<title>tables&#45;&gt;vartypes</title>
<path fill="none" stroke="#000000" d="M135.7614,-381.5021C223.8094,-366.875 409.8996,-335.9606 497.5676,-321.3967"/>
<polygon fill="#000000" stroke="#000000" points="498.2146,-324.8373 507.5058,-319.7457 497.0674,-317.9319 498.2146,-324.8373"/>
</g>
<!-- tables&#45;&gt;variables -->
<g id="edge44" class="edge">
<title>tables&#45;&gt;variables</title>
<path fill="none" stroke="#000000" d="M130.7062,-377.2617C217.3405,-352.6434 412.004,-297.3273 500.2015,-272.2649"/>
<polygon fill="#000000" stroke="#000000" points="501.2497,-275.6057 509.9121,-269.5055 499.3362,-268.8723 501.2497,-275.6057"/>
</g>
<!-- tables&#45;&gt;runFunction -->
<g id="edge46" class="edge">
<title>tables&#45;&gt;runFunction</title>
<path fill="none" stroke="#000000" d="M124.1056,-405.5589C141.4291,-414.6623 161.3551,-427.458 175.3343,-443.4917 383.7836,-682.5772 228.4727,-883.2947 463.3343,-1096.4917 470.4857,-1102.9834 479.2346,-1107.918 488.3203,-1111.6681"/>
<polygon fill="#000000" stroke="#000000" points="487.2638,-1115.0085 497.8575,-1115.1628 489.6723,-1108.4359 487.2638,-1115.0085"/>
</g>
<!-- tables&#45;&gt;signatures -->
<g id="edge53" class="edge">
<title>tables&#45;&gt;signatures</title>
<path fill="none" stroke="#000000" d="M123.5619,-373.3996C189.9866,-343.8658 336.85,-279.7121 463.3343,-232.4917 474.939,-228.1594 487.5974,-223.8046 499.4135,-219.8952"/>
<polygon fill="#000000" stroke="#000000" points="500.6833,-223.1624 509.0992,-216.7263 498.5066,-216.5094 500.6833,-223.1624"/>
</g>
<!-- readjson -->
<g id="node35" class="node">
<title>readjson</title>
<ellipse fill="none" stroke="#000000" cx="545.1518" cy="-637.4917" rx="40.1317" ry="18"/>
<text text-anchor="middle" x="545.1518" y="-633.2917" font-family="Times,serif" font-size="14.00" fill="#000000">readjson</text>
</g>
<!-- tables&#45;&gt;readjson -->
<g id="edge63" class="edge">
<title>tables&#45;&gt;readjson</title>
<path fill="none" stroke="#000000" d="M117.9568,-407.8132C200.8084,-457.8565 427.405,-594.2196 463.3343,-610.4917 475.2684,-615.8966 488.6136,-620.7636 501.0073,-624.8281"/>
<polygon fill="#000000" stroke="#000000" points="500.1072,-628.2145 510.6977,-627.9106 502.2292,-621.5439 500.1072,-628.2145"/>
</g>
<!-- os -->
<g id="node6" class="node">
<title>os</title>
<ellipse fill="none" stroke="#000000" cx="87.6672" cy="-862.4917" rx="27" ry="22.7556"/>
<text text-anchor="middle" x="87.6672" y="-855.2917" font-family="Times,serif" font-size="24.00" fill="#000000">os</text>
</g>
<!-- os&#45;&gt;statictea -->
<g id="edge70" class="edge">
<title>os&#45;&gt;statictea</title>
<path fill="none" stroke="#000000" d="M110.5037,-874.708C168.4132,-905.4035 326.1432,-987.2518 463.3343,-1042.4917 475.8156,-1047.5173 489.6274,-1052.3448 502.2935,-1056.4928"/>
<polygon fill="#000000" stroke="#000000" points="501.5673,-1059.9357 512.1587,-1059.6646 503.7099,-1053.2717 501.5673,-1059.9357"/>
</g>
<!-- os&#45;&gt;parseCommandLine -->
<g id="edge4" class="edge">
<title>os&#45;&gt;parseCommandLine</title>
<path fill="none" stroke="#000000" d="M114.2258,-856.8759C132.5119,-852.1416 156.7614,-844.0845 175.3343,-831.4917 336.1808,-722.4351 301.3442,-609.8424 463.3343,-502.4917 468.8633,-498.8277 474.9318,-495.6229 481.1869,-492.8281"/>
<polygon fill="#000000" stroke="#000000" points="482.5266,-496.0617 490.4438,-489.0212 479.8641,-489.5877 482.5266,-496.0617"/>
</g>
<!-- os&#45;&gt;cmdline -->
<g id="edge10" class="edge">
<title>os&#45;&gt;cmdline</title>
<path fill="none" stroke="#000000" d="M114.5769,-858.786C189.79,-848.4284 402.9162,-819.0789 498.1593,-805.9631"/>
<polygon fill="#000000" stroke="#000000" points="498.6596,-809.4273 508.0886,-804.5957 497.7046,-802.4927 498.6596,-809.4273"/>
</g>
<!-- os&#45;&gt;processTemplate -->
<g id="edge14" class="edge">
<title>os&#45;&gt;processTemplate</title>
<path fill="none" stroke="#000000" d="M112.689,-853.8974C130.2701,-847.7969 154.3088,-839.3314 175.3343,-831.4917 304.1699,-783.4537 333.9982,-765.1655 463.3343,-718.4917 472.4192,-715.2133 482.1263,-711.8709 491.5638,-708.7055"/>
<polygon fill="#000000" stroke="#000000" points="492.8784,-711.9569 501.2636,-705.4809 490.6701,-705.3143 492.8784,-711.9569"/>
</g>
<!-- os&#45;&gt;env -->
<g id="edge19" class="edge">
<title>os&#45;&gt;env</title>
<path fill="none" stroke="#000000" d="M113.9067,-868.17C191.6163,-884.9864 420.6685,-934.5535 509.4358,-953.7628"/>
<polygon fill="#000000" stroke="#000000" points="508.7878,-957.2035 519.3019,-955.8978 510.2684,-950.3619 508.7878,-957.2035"/>
</g>
<!-- os&#45;&gt;tempFile -->
<g id="edge23" class="edge">
<title>os&#45;&gt;tempFile</title>
<path fill="none" stroke="#000000" d="M107.0215,-878.7275C172.3602,-933.3117 385.0549,-1109.099 463.3343,-1150.4917 474.4913,-1156.3913 487.1816,-1161.335 499.1825,-1165.3121"/>
<polygon fill="#000000" stroke="#000000" points="498.4626,-1168.7549 509.0523,-1168.4252 500.5683,-1162.0791 498.4626,-1168.7549"/>
</g>
<!-- os&#45;&gt;runFunction -->
<g id="edge49" class="edge">
<title>os&#45;&gt;runFunction</title>
<path fill="none" stroke="#000000" d="M108.2541,-877.8078C163.3288,-918.215 319.6369,-1029.2073 463.3343,-1096.4917 472.984,-1101.0101 483.5985,-1105.1045 493.8936,-1108.6609"/>
<polygon fill="#000000" stroke="#000000" points="493.0308,-1112.0626 503.6244,-1111.9023 495.243,-1105.4213 493.0308,-1112.0626"/>
</g>
<!-- os&#45;&gt;readjson -->
<g id="edge61" class="edge">
<title>os&#45;&gt;readjson</title>
<path fill="none" stroke="#000000" d="M113.0987,-854.8809C130.8678,-849.2315 154.9627,-840.9008 175.3343,-831.4917 309.6613,-769.4497 328.3592,-725.1107 463.3343,-664.4917 475.393,-659.076 488.8765,-654.1818 501.364,-650.0944"/>
<polygon fill="#000000" stroke="#000000" points="502.6483,-653.3588 511.1189,-646.9949 500.5285,-646.6875 502.6483,-653.3588"/>
</g>
<!-- os&#45;&gt;codefile -->
<g id="edge65" class="edge">
<title>os&#45;&gt;codefile</title>
<path fill="none" stroke="#000000" d="M114.9149,-861.9557C190.0054,-860.4785 400.6919,-856.3337 496.5579,-854.4477"/>
<polygon fill="#000000" stroke="#000000" points="496.9127,-857.9415 506.8419,-854.2454 496.775,-850.9429 496.9127,-857.9415"/>
</g>
<!-- re -->
<g id="node9" class="node">
<title>re</title>
<polygon fill="#98fb98" stroke="#000000" points="114.6672,-93.3499 114.6672,-113.6336 98.8509,-127.9764 76.4834,-127.9764 60.6672,-113.6336 60.6672,-93.3499 76.4834,-79.0071 98.8509,-79.0071 114.6672,-93.3499"/>
<polygon fill="none" stroke="#000000" points="118.6672,-91.5783 118.6672,-115.4052 100.3948,-131.9752 74.9395,-131.9752 56.6672,-115.4052 56.6672,-91.5783 74.9395,-75.0083 100.3948,-75.0083 118.6672,-91.5783"/>
<text text-anchor="middle" x="87.6672" y="-96.2917" font-family="Times,serif" font-size="24.00" fill="#000000">re</text>
</g>
<!-- re&#45;&gt;regexes -->
<g id="edge7" class="edge">
<title>re&#45;&gt;regexes</title>
<path fill="none" stroke="#000000" d="M118.7523,-103.0841C197.2583,-102.0544 403.9214,-99.344 497.683,-98.1143"/>
<polygon fill="#000000" stroke="#000000" points="497.7857,-101.6134 507.7389,-97.9824 497.6939,-94.614 497.7857,-101.6134"/>
</g>
<!-- streams -->
<g id="node12" class="node">
<title>streams</title>
<ellipse fill="none" stroke="#000000" cx="87.6672" cy="-706.4917" rx="63.3073" ry="22.7556"/>
<text text-anchor="middle" x="87.6672" y="-699.2917" font-family="Times,serif" font-size="24.00" fill="#000000">streams</text>
</g>
<!-- streams&#45;&gt;processTemplate -->
<g id="edge13" class="edge">
<title>streams&#45;&gt;processTemplate</title>
<path fill="none" stroke="#000000" d="M150.7981,-704.4218C232.9335,-701.7287 376.4706,-697.0225 465.8584,-694.0916"/>
<polygon fill="#000000" stroke="#000000" points="466.0655,-697.5868 475.9454,-693.7609 465.836,-690.5906 466.0655,-697.5868"/>
</g>
<!-- streams&#45;&gt;env -->
<g id="edge18" class="edge">
<title>streams&#45;&gt;env</title>
<path fill="none" stroke="#000000" d="M118.2794,-726.3137C194.6271,-775.5463 392.4096,-901.7819 463.3343,-934.4917 478.2331,-941.3629 495.385,-947.3027 510.124,-951.8478"/>
<polygon fill="#000000" stroke="#000000" points="509.3016,-955.255 519.8852,-954.7659 511.3066,-948.5482 509.3016,-955.255"/>
</g>
<!-- streams&#45;&gt;readlines -->
<g id="edge27" class="edge">
<title>streams&#45;&gt;readlines</title>
<path fill="none" stroke="#000000" d="M132.8421,-690.3823C146.5331,-685.3979 161.585,-679.8155 175.3343,-674.4917 304.3293,-624.5447 333.5749,-604.4179 463.3343,-556.4917 475.6239,-551.9526 489.0812,-547.359 501.4687,-543.2795"/>
<polygon fill="#000000" stroke="#000000" points="502.7089,-546.5566 511.1312,-540.1289 500.5388,-539.9014 502.7089,-546.5566"/>
</g>
<!-- collectCommand -->
<g id="node21" class="node">
<title>collectCommand</title>
<ellipse fill="none" stroke="#000000" cx="545.1518" cy="-745.4917" rx="70.5427" ry="18"/>
<text text-anchor="middle" x="545.1518" y="-741.2917" font-family="Times,serif" font-size="14.00" fill="#000000">collectCommand</text>
</g>
<!-- streams&#45;&gt;collectCommand -->
<g id="edge34" class="edge">
<title>streams&#45;&gt;collectCommand</title>
<path fill="none" stroke="#000000" d="M149.3656,-711.7515C231.913,-718.7885 378.2768,-731.2659 468.014,-738.9158"/>
<polygon fill="#000000" stroke="#000000" points="467.8689,-742.4161 478.1301,-739.7782 468.4635,-735.4414 467.8689,-742.4161"/>
</g>
<!-- streams&#45;&gt;replacement -->
<g id="edge57" class="edge">
<title>streams&#45;&gt;replacement</title>
<path fill="none" stroke="#000000" d="M138.374,-692.8586C226.0727,-669.2798 405.1444,-621.1343 493.4969,-597.3798"/>
<polygon fill="#000000" stroke="#000000" points="494.5491,-600.7212 503.2974,-594.7448 492.7316,-593.9613 494.5491,-600.7212"/>
</g>
<!-- streams&#45;&gt;readjson -->
<g id="edge60" class="edge">
<title>streams&#45;&gt;readjson</title>
<path fill="none" stroke="#000000" d="M146.0726,-697.6828C237.4118,-683.9065 412.3476,-657.5219 496.9597,-644.7603"/>
<polygon fill="#000000" stroke="#000000" points="497.6968,-648.1888 507.063,-643.2365 496.6528,-641.2671 497.6968,-648.1888"/>
</g>
<!-- streams&#45;&gt;codefile -->
<g id="edge66" class="edge">
<title>streams&#45;&gt;codefile</title>
<path fill="none" stroke="#000000" d="M134.9029,-721.6697C224.719,-750.5296 418.7343,-812.871 503.7832,-840.1991"/>
<polygon fill="#000000" stroke="#000000" points="502.7684,-843.5492 513.3597,-843.2762 504.9099,-836.8848 502.7684,-843.5492"/>
</g>
<!-- times -->
<g id="node15" class="node">
<title>times</title>
<ellipse fill="none" stroke="#ff0000" cx="87.6672" cy="-973.4917" rx="48.1611" ry="22.7556"/>
<text text-anchor="middle" x="87.6672" y="-966.2917" font-family="Times,serif" font-size="24.00" fill="#000000">times</text>
</g>
<!-- times&#45;&gt;env -->
<g id="edge20" class="edge">
<title>times&#45;&gt;env</title>
<path fill="none" stroke="#ff0000" d="M135.7614,-972.2302C227.4078,-969.8263 425.2739,-964.6362 507.8096,-962.4712"/>
<polygon fill="#ff0000" stroke="#ff0000" points="508.0747,-965.9656 517.9795,-962.2045 507.8911,-958.968 508.0747,-965.9656"/>
</g>
<!-- timer -->
<g id="node38" class="node">
<title>timer</title>
<ellipse fill="none" stroke="#000000" cx="545.1518" cy="-1231.4917" rx="28.5411" ry="18"/>
<text text-anchor="middle" x="545.1518" y="-1227.2917" font-family="Times,serif" font-size="14.00" fill="#000000">timer</text>
</g>
<!-- times&#45;&gt;timer -->
<g id="edge68" class="edge">
<title>times&#45;&gt;timer</title>
<path fill="none" stroke="#ff0000" d="M117.3339,-991.3283C134.3363,-1001.5754 156.0626,-1014.7112 175.3343,-1026.4917 303.7214,-1104.9731 326.9478,-1140.9206 463.3343,-1204.4917 477.7645,-1211.2178 494.3389,-1217.0183 508.7799,-1221.5"/>
<polygon fill="#ff0000" stroke="#ff0000" points="507.7999,-1224.8601 518.3841,-1224.3873 509.8152,-1218.1565 507.7999,-1224.8601"/>
</g>
<!-- random -->
<g id="node17" class="node">
<title>random</title>
<polygon fill="#98fb98" stroke="#000000" points="155.889,-1191.3499 155.889,-1211.6336 115.9256,-1225.9764 59.4087,-1225.9764 19.4453,-1211.6336 19.4453,-1191.3499 59.4087,-1177.0071 115.9256,-1177.0071 155.889,-1191.3499"/>
<polygon fill="none" stroke="#000000" points="159.8811,-1188.5349 159.8811,-1214.4486 116.6191,-1229.9752 58.7152,-1229.9752 15.4532,-1214.4486 15.4532,-1188.5349 58.7152,-1173.0083 116.6191,-1173.0083 159.8811,-1188.5349"/>
<text text-anchor="middle" x="87.6672" y="-1194.2917" font-family="Times,serif" font-size="24.00" fill="#000000">random</text>
</g>
<!-- random&#45;&gt;tempFile -->
<g id="edge24" class="edge">
<title>random&#45;&gt;tempFile</title>
<path fill="none" stroke="#000000" d="M159.9045,-1197.7021C252.8676,-1192.8252 412.0864,-1184.4725 493.6645,-1180.1928"/>
<polygon fill="#000000" stroke="#000000" points="493.8915,-1183.6858 503.6944,-1179.6666 493.5247,-1176.6954 493.8915,-1183.6858"/>
</g>
<!-- parseutils -->
<g id="node25" class="node">
<title>parseutils</title>
<polygon fill="#98fb98" stroke="#000000" points="170.4501,-18.3499 170.4501,-38.6336 121.957,-52.9764 53.3774,-52.9764 4.8843,-38.6336 4.8843,-18.3499 53.3774,-4.0071 121.957,-4.0071 170.4501,-18.3499"/>
<polygon fill="none" stroke="#000000" points="174.4567,-15.3642 174.4567,-41.6193 122.5382,-56.9752 52.7962,-56.9752 .8776,-41.6193 .8776,-15.3642 52.7962,-.0083 122.5382,-.0083 174.4567,-15.3642"/>
<text text-anchor="middle" x="87.6672" y="-21.2917" font-family="Times,serif" font-size="24.00" fill="#000000">parseutils</text>
</g>
<!-- parseutils&#45;&gt;parseNumber -->
<g id="edge41" class="edge">
<title>parseutils&#45;&gt;parseNumber</title>
<path fill="none" stroke="#000000" d="M174.5237,-30.3903C262.4986,-32.3133 396.7505,-35.2479 477.235,-37.0072"/>
<polygon fill="#000000" stroke="#000000" points="477.1849,-40.5068 487.2591,-37.2263 477.338,-33.5085 477.1849,-40.5068"/>
</g>
<!-- math -->
<g id="node28" class="node">
<title>math</title>
<ellipse fill="none" stroke="#ff0000" cx="87.6672" cy="-1132.4917" rx="45.4944" ry="22.7556"/>
<text text-anchor="middle" x="87.6672" y="-1125.2917" font-family="Times,serif" font-size="24.00" fill="#000000">math</text>
</g>
<!-- math&#45;&gt;runFunction -->
<g id="edge48" class="edge">
<title>math&#45;&gt;runFunction</title>
<path fill="none" stroke="#ff0000" d="M133.2051,-1131.5959C215.222,-1129.9824 387.9248,-1126.5848 481.5577,-1124.7428"/>
<polygon fill="#ff0000" stroke="#ff0000" points="481.8164,-1128.2385 491.7456,-1124.5424 481.6786,-1121.2399 481.8164,-1128.2385"/>
</g>
<!-- math&#45;&gt;timer -->
<g id="edge69" class="edge">
<title>math&#45;&gt;timer</title>
<path fill="none" stroke="#ff0000" d="M129.4786,-1141.5398C218.094,-1160.7162 423.5678,-1205.1809 507.9536,-1223.442"/>
<polygon fill="#ff0000" stroke="#ff0000" points="507.3493,-1226.8922 517.8634,-1225.5865 508.8299,-1220.0506 507.3493,-1226.8922"/>
</g>
<!-- algorithm -->
<g id="node29" class="node">
<title>algorithm</title>
<polygon fill="#98fb98" stroke="#000000" points="171.4941,-1053.3499 171.4941,-1073.6336 122.3894,-1087.9764 52.9449,-1087.9764 3.8402,-1073.6336 3.8402,-1053.3499 52.9449,-1039.0071 122.3894,-1039.0071 171.4941,-1053.3499"/>
<polygon fill="none" stroke="#000000" points="175.5018,-1050.3538 175.5018,-1076.6297 122.964,-1091.9752 52.3704,-1091.9752 -.1675,-1076.6297 -.1675,-1050.3538 52.3704,-1035.0083 122.964,-1035.0083 175.5018,-1050.3538"/>
<text text-anchor="middle" x="87.6672" y="-1056.2917" font-family="Times,serif" font-size="24.00" fill="#000000">algorithm</text>
</g>
<!-- algorithm&#45;&gt;runFunction -->
<g id="edge50" class="edge">
<title>algorithm&#45;&gt;runFunction</title>
<path fill="none" stroke="#000000" d="M175.604,-1075.0248C266.5173,-1086.9483 405.9977,-1105.2414 485.0428,-1115.6083"/>
<polygon fill="#000000" stroke="#000000" points="484.9441,-1119.1253 495.3144,-1116.9555 485.8544,-1112.1847 484.9441,-1119.1253"/>
</g>
<!-- unicode -->
<g id="node30" class="node">
<title>unicode</title>
<polygon fill="#98fb98" stroke="#000000" points="157.9587,-1275.3499 157.9587,-1295.6336 116.7829,-1309.9764 58.5514,-1309.9764 17.3756,-1295.6336 17.3756,-1275.3499 58.5514,-1261.0071 116.7829,-1261.0071 157.9587,-1275.3499"/>
<polygon fill="none" stroke="#000000" points="161.953,-1272.5072 161.953,-1298.4763 117.4579,-1313.9752 57.8764,-1313.9752 13.3814,-1298.4763 13.3814,-1272.5072 57.8764,-1257.0083 117.4579,-1257.0083 161.953,-1272.5072"/>
<text text-anchor="middle" x="87.6672" y="-1278.2917" font-family="Times,serif" font-size="24.00" fill="#000000">unicode</text>
</g>
<!-- unicode&#45;&gt;unicodes -->
<g id="edge51" class="edge">
<title>unicode&#45;&gt;unicodes</title>
<path fill="none" stroke="#000000" d="M162.1882,-1285.4917C255.2358,-1285.4917 412.0115,-1285.4917 493.0927,-1285.4917"/>
<polygon fill="#000000" stroke="#000000" points="493.5435,-1288.9918 503.5435,-1285.4917 493.5434,-1281.9918 493.5435,-1288.9918"/>
</g>
<!-- strformat -->
<g id="node34" class="node">
<title>strformat</title>
<polygon fill="#98fb98" stroke="#000000" points="167.318,-552.3499 167.318,-572.6336 120.6596,-586.9764 54.6747,-586.9764 8.0163,-572.6336 8.0163,-552.3499 54.6747,-538.0071 120.6596,-538.0071 167.318,-552.3499"/>
<polygon fill="none" stroke="#000000" points="171.3217,-549.3967 171.3217,-575.5868 121.2618,-590.9752 54.0725,-590.9752 4.0126,-575.5868 4.0126,-549.3967 54.0725,-534.0083 121.2618,-534.0083 171.3217,-549.3967"/>
<text text-anchor="middle" x="87.6672" y="-555.2917" font-family="Times,serif" font-size="24.00" fill="#000000">strformat</text>
</g>
<!-- strformat&#45;&gt;replacement -->
<g id="edge58" class="edge">
<title>strformat&#45;&gt;replacement</title>
<path fill="none" stroke="#000000" d="M171.3108,-566.3312C260.9437,-570.4457 401.2008,-576.8839 482.017,-580.5937"/>
<polygon fill="#000000" stroke="#000000" points="481.9017,-584.0919 492.0517,-581.0543 482.2227,-577.0993 481.9017,-584.0919"/>
</g>
<!-- json -->
<g id="node36" class="node">
<title>json</title>
<polygon fill="#98fb98" stroke="#000000" points="130.4119,-627.3499 130.4119,-647.6336 105.3726,-661.9764 69.9617,-661.9764 44.9224,-647.6336 44.9224,-627.3499 69.9617,-613.0071 105.3726,-613.0071 130.4119,-627.3499"/>
<polygon fill="none" stroke="#000000" points="134.4006,-625.0291 134.4006,-649.9544 106.4317,-665.9752 68.9026,-665.9752 40.9337,-649.9544 40.9337,-625.0291 68.9026,-609.0083 106.4317,-609.0083 134.4006,-625.0291"/>
<text text-anchor="middle" x="87.6672" y="-630.2917" font-family="Times,serif" font-size="24.00" fill="#000000">json</text>
</g>
<!-- json&#45;&gt;readjson -->
<g id="edge62" class="edge">
<title>json&#45;&gt;readjson</title>
<path fill="none" stroke="#000000" d="M134.4761,-637.4917C221.1128,-637.4917 405.7384,-637.4917 494.9004,-637.4917"/>
<polygon fill="#000000" stroke="#000000" points="495.0302,-640.9918 505.0302,-637.4917 495.0302,-633.9918 495.0302,-640.9918"/>
</g>
</g>
</svg>
