<?xml version="1.0" encoding="UTF-8" standalone="no"?>
<!DOCTYPE svg PUBLIC "-//W3C//DTD SVG 1.1//EN"
 "http://www.w3.org/Graphics/SVG/1.1/DTD/svg11.dtd">
<!-- Generated by graphviz version 7.0.1 (20221109.1506)
 -->
<!-- Title: statictea Pages: 1 -->
<svg width="639pt" height="1369pt"
 viewBox="0.00 0.00 638.77 1369.06" xmlns="http://www.w3.org/2000/svg" xmlns:xlink="http://www.w3.org/1999/xlink">
<g id="graph0" class="graph" transform="scale(1 1) rotate(0) translate(4 1365.06)">
<title>statictea</title>
<polygon fill="white" stroke="none" points="-4,4 -4,-1365.06 634.77,-1365.06 634.77,4 -4,4"/>
<!-- strutils -->
<g id="node1" class="node">
<title>strutils</title>
<ellipse fill="none" stroke="black" cx="88.19" cy="-779.04" rx="57.97" ry="24.08"/>
<text text-anchor="middle" x="88.19" y="-772.84" font-family="Times,serif" font-size="24.00">strutils</text>
</g>
<!-- statictea -->
<g id="node2" class="node">
<title>statictea</title>
<ellipse fill="none" stroke="black" cx="547.57" cy="-1211.04" rx="39.79" ry="18"/>
<text text-anchor="middle" x="547.57" y="-1207.34" font-family="Times,serif" font-size="14.00">statictea</text>
</g>
<!-- strutils&#45;&gt;statictea -->
<g id="edge1" class="edge">
<title>strutils&#45;&gt;statictea</title>
<path fill="none" stroke="black" d="M104.44,-802.55C150.35,-871.48 294.57,-1075.08 464.38,-1184.04 475.12,-1190.93 487.79,-1196.23 499.92,-1200.22"/>
<polygon fill="black" stroke="black" points="498.81,-1203.54 509.39,-1203.09 500.84,-1196.84 498.81,-1203.54"/>
</g>
<!-- messages -->
<g id="node9" class="node">
<title>messages</title>
<ellipse fill="none" stroke="black" cx="547.57" cy="-941.04" rx="44.39" ry="18"/>
<text text-anchor="middle" x="547.57" y="-937.34" font-family="Times,serif" font-size="14.00">messages</text>
</g>
<!-- strutils&#45;&gt;messages -->
<g id="edge6" class="edge">
<title>strutils&#45;&gt;messages</title>
<path fill="none" stroke="black" d="M132.38,-795.03C202.04,-820.71 343.61,-872.49 464.38,-914.04 476.34,-918.16 489.33,-922.49 501.37,-926.44"/>
<polygon fill="black" stroke="black" points="500.08,-929.7 510.67,-929.49 502.26,-923.05 500.08,-929.7"/>
</g>
<!-- cmdline -->
<g id="node10" class="node">
<title>cmdline</title>
<ellipse fill="none" stroke="black" cx="547.57" cy="-887.04" rx="39.79" ry="18"/>
<text text-anchor="middle" x="547.57" y="-883.34" font-family="Times,serif" font-size="14.00">cmdline</text>
</g>
<!-- strutils&#45;&gt;cmdline -->
<g id="edge10" class="edge">
<title>strutils&#45;&gt;cmdline</title>
<path fill="none" stroke="black" d="M139.01,-790.81C228.31,-811.89 414.34,-855.82 500.7,-876.21"/>
<polygon fill="black" stroke="black" points="499.7,-879.57 510.24,-878.46 501.31,-872.76 499.7,-879.57"/>
</g>
<!-- matches -->
<g id="node11" class="node">
<title>matches</title>
<ellipse fill="none" stroke="black" cx="547.57" cy="-671.04" rx="40.09" ry="18"/>
<text text-anchor="middle" x="547.57" y="-667.34" font-family="Times,serif" font-size="14.00">matches</text>
</g>
<!-- strutils&#45;&gt;matches -->
<g id="edge11" class="edge">
<title>strutils&#45;&gt;matches</title>
<path fill="none" stroke="black" d="M139.01,-767.28C228.2,-746.22 413.88,-702.37 500.38,-681.95"/>
<polygon fill="black" stroke="black" points="501.01,-685.4 509.94,-679.69 499.4,-678.58 501.01,-685.4"/>
</g>
<!-- processTemplate -->
<g id="node14" class="node">
<title>processTemplate</title>
<ellipse fill="none" stroke="black" cx="547.57" cy="-779.04" rx="70.39" ry="18"/>
<text text-anchor="middle" x="547.57" y="-775.34" font-family="Times,serif" font-size="14.00">processTemplate</text>
</g>
<!-- strutils&#45;&gt;processTemplate -->
<g id="edge18" class="edge">
<title>strutils&#45;&gt;processTemplate</title>
<path fill="none" stroke="black" d="M146.66,-779.04C227.19,-779.04 374,-779.04 465.58,-779.04"/>
<polygon fill="black" stroke="black" points="465.51,-782.54 475.51,-779.04 465.51,-775.54 465.51,-782.54"/>
</g>
<!-- env -->
<g id="node16" class="node">
<title>env</title>
<ellipse fill="none" stroke="black" cx="547.57" cy="-995.04" rx="27" ry="18"/>
<text text-anchor="middle" x="547.57" y="-991.34" font-family="Times,serif" font-size="14.00">env</text>
</g>
<!-- strutils&#45;&gt;env -->
<g id="edge24" class="edge">
<title>strutils&#45;&gt;env</title>
<path fill="none" stroke="black" d="M123.55,-798.54C188.63,-834.98 334.97,-914.54 464.38,-968.04 479.53,-974.31 496.71,-980.14 511.43,-984.77"/>
<polygon fill="black" stroke="black" points="510.1,-988.02 520.68,-987.61 512.16,-981.33 510.1,-988.02"/>
</g>
<!-- tempFile -->
<g id="node18" class="node">
<title>tempFile</title>
<ellipse fill="none" stroke="black" cx="547.57" cy="-1265.04" rx="42.49" ry="18"/>
<text text-anchor="middle" x="547.57" y="-1261.34" font-family="Times,serif" font-size="14.00">tempFile</text>
</g>
<!-- strutils&#45;&gt;tempFile -->
<g id="edge27" class="edge">
<title>strutils&#45;&gt;tempFile</title>
<path fill="none" stroke="black" d="M101.94,-802.78C143.6,-878.06 283.42,-1113.85 464.38,-1238.04 474.33,-1244.87 486.13,-1250.07 497.63,-1253.99"/>
<polygon fill="black" stroke="black" points="496.47,-1257.3 507.06,-1256.92 498.55,-1250.61 496.47,-1257.3"/>
</g>
<!-- runCommand -->
<g id="node22" class="node">
<title>runCommand</title>
<ellipse fill="none" stroke="black" cx="547.57" cy="-1103.04" rx="59.59" ry="18"/>
<text text-anchor="middle" x="547.57" y="-1099.34" font-family="Times,serif" font-size="14.00">runCommand</text>
</g>
<!-- strutils&#45;&gt;runCommand -->
<g id="edge35" class="edge">
<title>strutils&#45;&gt;runCommand</title>
<path fill="none" stroke="black" d="M111.27,-801.29C166.23,-855.52 315.49,-995.96 464.38,-1076.04 472.65,-1080.49 481.79,-1084.38 490.87,-1087.71"/>
<polygon fill="black" stroke="black" points="489.43,-1090.92 500.02,-1090.88 491.72,-1084.3 489.43,-1090.92"/>
</g>
<!-- vartypes -->
<g id="node23" class="node">
<title>vartypes</title>
<ellipse fill="none" stroke="black" cx="547.57" cy="-563.04" rx="40.09" ry="18"/>
<text text-anchor="middle" x="547.57" y="-559.34" font-family="Times,serif" font-size="14.00">vartypes</text>
</g>
<!-- strutils&#45;&gt;vartypes -->
<g id="edge40" class="edge">
<title>strutils&#45;&gt;vartypes</title>
<path fill="none" stroke="black" d="M123.55,-759.54C188.63,-723.1 334.97,-643.54 464.38,-590.04 476.62,-584.98 490.18,-580.2 502.69,-576.12"/>
<polygon fill="black" stroke="black" points="503.46,-579.54 511.93,-573.17 501.33,-572.88 503.46,-579.54"/>
</g>
<!-- variables -->
<g id="node24" class="node">
<title>variables</title>
<ellipse fill="none" stroke="black" cx="547.57" cy="-509.04" rx="42.49" ry="18"/>
<text text-anchor="middle" x="547.57" y="-505.34" font-family="Times,serif" font-size="14.00">variables</text>
</g>
<!-- strutils&#45;&gt;variables -->
<g id="edge42" class="edge">
<title>strutils&#45;&gt;variables</title>
<path fill="none" stroke="black" d="M116.44,-757.83C176.38,-712 325.41,-602.5 464.38,-536.04 475.69,-530.63 488.36,-525.88 500.3,-521.93"/>
<polygon fill="black" stroke="black" points="501.09,-525.36 509.56,-519 498.97,-518.68 501.09,-525.36"/>
</g>
<!-- runFunction -->
<g id="node25" class="node">
<title>runFunction</title>
<ellipse fill="none" stroke="black" cx="547.57" cy="-401.04" rx="53.89" ry="18"/>
<text text-anchor="middle" x="547.57" y="-397.34" font-family="Times,serif" font-size="14.00">runFunction</text>
</g>
<!-- strutils&#45;&gt;runFunction -->
<g id="edge47" class="edge">
<title>strutils&#45;&gt;runFunction</title>
<path fill="none" stroke="black" d="M118.61,-758.27C135.88,-745.71 157.87,-729.08 176.38,-713.04 312.47,-595.11 310.74,-521.98 464.38,-428.04 472.85,-422.86 482.43,-418.56 491.98,-415.02"/>
<polygon fill="black" stroke="black" points="492.93,-418.39 501.26,-411.84 490.66,-411.77 492.93,-418.39"/>
</g>
<!-- unicodes -->
<g id="node31" class="node">
<title>unicodes</title>
<ellipse fill="none" stroke="black" cx="547.57" cy="-293.04" rx="42.49" ry="18"/>
<text text-anchor="middle" x="547.57" y="-289.34" font-family="Times,serif" font-size="14.00">unicodes</text>
</g>
<!-- strutils&#45;&gt;unicodes -->
<g id="edge54" class="edge">
<title>strutils&#45;&gt;unicodes</title>
<path fill="none" stroke="black" d="M120.41,-758.74C137.87,-746.6 159.46,-730.22 176.38,-713.04 328.31,-558.74 289.14,-447.25 464.38,-320.04 474.14,-312.95 485.87,-307.66 497.37,-303.72"/>
<polygon fill="black" stroke="black" points="498.29,-307.1 506.81,-300.8 496.22,-300.41 498.29,-307.1"/>
</g>
<!-- replacement -->
<g id="node35" class="node">
<title>replacement</title>
<ellipse fill="none" stroke="black" cx="547.57" cy="-725.04" rx="53.89" ry="18"/>
<text text-anchor="middle" x="547.57" y="-721.34" font-family="Times,serif" font-size="14.00">replacement</text>
</g>
<!-- strutils&#45;&gt;replacement -->
<g id="edge63" class="edge">
<title>strutils&#45;&gt;replacement</title>
<path fill="none" stroke="black" d="M144.36,-772.53C230.17,-762.4 395.06,-742.93 484.76,-732.34"/>
<polygon fill="black" stroke="black" points="485.09,-735.83 494.61,-731.18 484.27,-728.87 485.09,-735.83"/>
</g>
<!-- startingvars -->
<g id="node36" class="node">
<title>startingvars</title>
<ellipse fill="none" stroke="black" cx="547.57" cy="-833.04" rx="51.99" ry="18"/>
<text text-anchor="middle" x="547.57" y="-829.34" font-family="Times,serif" font-size="14.00">startingvars</text>
</g>
<!-- strutils&#45;&gt;startingvars -->
<g id="edge66" class="edge">
<title>strutils&#45;&gt;startingvars</title>
<path fill="none" stroke="black" d="M144.36,-785.56C230.74,-795.75 397.25,-815.41 486.54,-825.95"/>
<polygon fill="black" stroke="black" points="485.98,-829.41 496.32,-827.11 486.8,-822.46 485.98,-829.41"/>
</g>
<!-- repl -->
<g id="node39" class="node">
<title>repl</title>
<ellipse fill="none" stroke="black" cx="547.57" cy="-455.04" rx="27" ry="18"/>
<text text-anchor="middle" x="547.57" y="-451.34" font-family="Times,serif" font-size="14.00">repl</text>
</g>
<!-- strutils&#45;&gt;repl -->
<g id="edge74" class="edge">
<title>strutils&#45;&gt;repl</title>
<path fill="none" stroke="black" d="M117.62,-757.84C134.73,-744.99 156.91,-728.21 176.38,-713.04 305.81,-612.18 320.12,-560.23 464.38,-482.04 478.8,-474.23 495.86,-468.17 510.7,-463.79"/>
<polygon fill="black" stroke="black" points="511.38,-467.23 520.07,-461.17 509.5,-460.49 511.38,-467.23"/>
</g>
<!-- options -->
<g id="node3" class="node">
<title>options</title>
<ellipse fill="none" stroke="black" cx="88.19" cy="-680.04" rx="61.54" ry="24.08"/>
<text text-anchor="middle" x="88.19" y="-673.84" font-family="Times,serif" font-size="24.00">options</text>
</g>
<!-- parseCommandLine -->
<g id="node4" class="node">
<title>parseCommandLine</title>
<ellipse fill="none" stroke="black" cx="547.57" cy="-617.04" rx="83.39" ry="18"/>
<text text-anchor="middle" x="547.57" y="-613.34" font-family="Times,serif" font-size="14.00">parseCommandLine</text>
</g>
<!-- options&#45;&gt;parseCommandLine -->
<g id="edge2" class="edge">
<title>options&#45;&gt;parseCommandLine</title>
<path fill="none" stroke="black" d="M146.66,-672.13C227.04,-661.05 373.46,-640.89 465.07,-628.27"/>
<polygon fill="black" stroke="black" points="465.32,-631.77 474.74,-626.94 464.36,-624.83 465.32,-631.77"/>
</g>
<!-- options&#45;&gt;matches -->
<g id="edge12" class="edge">
<title>options&#45;&gt;matches</title>
<path fill="none" stroke="black" d="M149.93,-678.85C240.91,-677.06 410.92,-673.71 495.73,-672.04"/>
<polygon fill="black" stroke="black" points="495.68,-675.54 505.61,-671.85 495.54,-668.55 495.68,-675.54"/>
</g>
<!-- regexes -->
<g id="node13" class="node">
<title>regexes</title>
<ellipse fill="none" stroke="black" cx="547.57" cy="-239.04" rx="37.89" ry="18"/>
<text text-anchor="middle" x="547.57" y="-235.34" font-family="Times,serif" font-size="14.00">regexes</text>
</g>
<!-- options&#45;&gt;regexes -->
<g id="edge14" class="edge">
<title>options&#45;&gt;regexes</title>
<path fill="none" stroke="black" d="M139.64,-666.4C152.37,-661.54 165.5,-655.19 176.38,-647.04 346.3,-519.82 291.68,-389.46 464.38,-266.04 475.25,-258.27 488.49,-252.65 501.14,-248.61"/>
<polygon fill="black" stroke="black" points="501.94,-252.02 510.57,-245.87 499.99,-245.29 501.94,-252.02"/>
</g>
<!-- options&#45;&gt;processTemplate -->
<g id="edge16" class="edge">
<title>options&#45;&gt;processTemplate</title>
<path fill="none" stroke="black" d="M142.55,-691.59C226.93,-709.86 390.89,-745.34 481.85,-765.03"/>
<polygon fill="black" stroke="black" points="480.85,-768.4 491.36,-767.09 482.33,-761.56 480.85,-768.4"/>
</g>
<!-- options&#45;&gt;env -->
<g id="edge23" class="edge">
<title>options&#45;&gt;env</title>
<path fill="none" stroke="black" d="M117.51,-701.38C134.59,-714.27 156.77,-731.06 176.38,-746.04 304.81,-844.15 321.56,-892.4 464.38,-968.04 478.87,-975.72 495.95,-981.75 510.78,-986.16"/>
<polygon fill="black" stroke="black" points="509.56,-989.45 520.14,-988.8 511.46,-982.71 509.56,-989.45"/>
</g>
<!-- options&#45;&gt;tempFile -->
<g id="edge28" class="edge">
<title>options&#45;&gt;tempFile</title>
<path fill="none" stroke="black" d="M122.36,-700.55C139.8,-712.41 160.75,-728.44 176.38,-746.04 344.63,-935.49 267.25,-1078.86 464.38,-1238.04 473.77,-1245.62 485.36,-1251.1 496.84,-1255.06"/>
<polygon fill="black" stroke="black" points="495.71,-1258.37 506.3,-1257.95 497.76,-1251.68 495.71,-1258.37"/>
</g>
<!-- linebuffer -->
<g id="node20" class="node">
<title>linebuffer</title>
<ellipse fill="none" stroke="black" cx="547.57" cy="-1157.04" rx="45.49" ry="18"/>
<text text-anchor="middle" x="547.57" y="-1153.34" font-family="Times,serif" font-size="14.00">linebuffer</text>
</g>
<!-- options&#45;&gt;linebuffer -->
<g id="edge31" class="edge">
<title>options&#45;&gt;linebuffer</title>
<path fill="none" stroke="black" d="M120.75,-700.7C138.12,-712.84 159.5,-729.09 176.38,-746.04 326.89,-897.23 291.04,-1005.68 464.38,-1130.04 473.63,-1136.67 484.6,-1141.75 495.46,-1145.6"/>
<polygon fill="black" stroke="black" points="494.19,-1148.87 504.78,-1148.6 496.33,-1142.2 494.19,-1148.87"/>
</g>
<!-- parseCmdLine -->
<g id="node21" class="node">
<title>parseCmdLine</title>
<ellipse fill="none" stroke="black" cx="547.57" cy="-347.04" rx="63.09" ry="18"/>
<text text-anchor="middle" x="547.57" y="-343.34" font-family="Times,serif" font-size="14.00">parseCmdLine</text>
</g>
<!-- options&#45;&gt;parseCmdLine -->
<g id="edge32" class="edge">
<title>options&#45;&gt;parseCmdLine</title>
<path fill="none" stroke="black" d="M137.87,-665.5C150.88,-660.59 164.59,-654.44 176.38,-647.04 325.79,-553.32 312.93,-464.42 464.38,-374.04 471.73,-369.65 479.89,-365.88 488.12,-362.67"/>
<polygon fill="black" stroke="black" points="489.3,-365.96 497.51,-359.27 486.92,-359.38 489.3,-365.96"/>
</g>
<!-- options&#45;&gt;runCommand -->
<g id="edge34" class="edge">
<title>options&#45;&gt;runCommand</title>
<path fill="none" stroke="black" d="M119.87,-700.9C137.15,-713.22 158.75,-729.6 176.38,-746.04 318.74,-878.82 302.12,-968.49 464.38,-1076.04 471.78,-1080.94 480.13,-1085.02 488.61,-1088.39"/>
<polygon fill="black" stroke="black" points="487.35,-1091.65 497.94,-1091.78 489.74,-1085.07 487.35,-1091.65"/>
</g>
<!-- options&#45;&gt;vartypes -->
<g id="edge41" class="edge">
<title>options&#45;&gt;vartypes</title>
<path fill="none" stroke="black" d="M140.33,-666.96C230.23,-643.96 415.21,-596.64 501.01,-574.7"/>
<polygon fill="black" stroke="black" points="501.66,-578.14 510.48,-572.27 499.93,-571.36 501.66,-578.14"/>
</g>
<!-- options&#45;&gt;variables -->
<g id="edge43" class="edge">
<title>options&#45;&gt;variables</title>
<path fill="none" stroke="black" d="M133.57,-663.31C147.3,-658.11 162.47,-652.35 176.38,-647.04 304.53,-598.1 335.18,-582.13 464.38,-536.04 476.51,-531.71 489.74,-527.26 501.96,-523.24"/>
<polygon fill="black" stroke="black" points="502.99,-526.59 511.41,-520.16 500.82,-519.93 502.99,-526.59"/>
</g>
<!-- options&#45;&gt;runFunction -->
<g id="edge45" class="edge">
<title>options&#45;&gt;runFunction</title>
<path fill="none" stroke="black" d="M136.46,-664.98C149.73,-660 163.92,-653.94 176.38,-647.04 317.04,-569.11 322.03,-502.83 464.38,-428.04 473.46,-423.27 483.55,-419.12 493.46,-415.61"/>
<polygon fill="black" stroke="black" points="494.28,-419.02 502.65,-412.52 492.05,-412.39 494.28,-419.02"/>
</g>
<!-- parseNumber -->
<g id="node28" class="node">
<title>parseNumber</title>
<ellipse fill="none" stroke="black" cx="547.57" cy="-185.04" rx="58.49" ry="18"/>
<text text-anchor="middle" x="547.57" y="-181.34" font-family="Times,serif" font-size="14.00">parseNumber</text>
</g>
<!-- options&#45;&gt;parseNumber -->
<g id="edge51" class="edge">
<title>options&#45;&gt;parseNumber</title>
<path fill="none" stroke="black" d="M139.99,-666.86C152.72,-662 165.76,-655.53 176.38,-647.04 357.56,-502.35 280.03,-352.67 464.38,-212.04 471.35,-206.73 479.41,-202.43 487.71,-198.97"/>
<polygon fill="black" stroke="black" points="488.72,-202.32 496.86,-195.54 486.27,-195.77 488.72,-202.32"/>
</g>
<!-- options&#45;&gt;replacement -->
<g id="edge60" class="edge">
<title>options&#45;&gt;replacement</title>
<path fill="none" stroke="black" d="M148.05,-685.83C234.61,-694.35 395.54,-710.18 484.12,-718.9"/>
<polygon fill="black" stroke="black" points="483.53,-722.36 493.83,-719.85 484.22,-715.39 483.53,-722.36"/>
</g>
<!-- updateTemplate -->
<g id="node37" class="node">
<title>updateTemplate</title>
<ellipse fill="none" stroke="black" cx="547.57" cy="-1049.04" rx="67.69" ry="18"/>
<text text-anchor="middle" x="547.57" y="-1045.34" font-family="Times,serif" font-size="14.00">updateTemplate</text>
</g>
<!-- options&#45;&gt;updateTemplate -->
<g id="edge69" class="edge">
<title>options&#45;&gt;updateTemplate</title>
<path fill="none" stroke="black" d="M118.92,-701.22C136.09,-713.77 157.89,-730.27 176.38,-746.04 311.29,-861.07 312.39,-930.78 464.38,-1022.04 471.29,-1026.19 478.9,-1029.78 486.64,-1032.87"/>
<polygon fill="black" stroke="black" points="485.18,-1036.07 495.77,-1036.26 487.61,-1029.5 485.18,-1036.07"/>
</g>
<!-- options&#45;&gt;repl -->
<g id="edge73" class="edge">
<title>options&#45;&gt;repl</title>
<path fill="none" stroke="black" d="M135.01,-664.25C148.52,-659.18 163.21,-653.26 176.38,-647.04 309.78,-584.07 329.61,-542.04 464.38,-482.04 479.36,-475.37 496.51,-469.48 511.26,-464.92"/>
<polygon fill="black" stroke="black" points="511.97,-468.36 520.54,-462.13 509.96,-461.65 511.97,-468.36"/>
</g>
<!-- tables -->
<g id="node5" class="node">
<title>tables</title>
<ellipse fill="none" stroke="black" cx="88.19" cy="-614.04" rx="50.82" ry="24.08"/>
<text text-anchor="middle" x="88.19" y="-607.84" font-family="Times,serif" font-size="24.00">tables</text>
</g>
<!-- tables&#45;&gt;parseCommandLine -->
<g id="edge3" class="edge">
<title>tables&#45;&gt;parseCommandLine</title>
<path fill="none" stroke="black" d="M139.45,-614.37C214.6,-614.86 357.55,-615.8 452.48,-616.42"/>
<polygon fill="black" stroke="black" points="452.27,-619.92 462.29,-616.49 452.32,-612.92 452.27,-619.92"/>
</g>
<!-- args -->
<g id="node8" class="node">
<title>args</title>
<ellipse fill="none" stroke="black" cx="547.57" cy="-77.04" rx="27" ry="18"/>
<text text-anchor="middle" x="547.57" y="-73.34" font-family="Times,serif" font-size="14.00">args</text>
</g>
<!-- tables&#45;&gt;args -->
<g id="edge7" class="edge">
<title>tables&#45;&gt;args</title>
<path fill="none" stroke="black" d="M133.91,-603.45C148.56,-598.41 164.2,-591.2 176.38,-581.04 366.63,-422.51 270.66,-258.31 464.38,-104.04 477.4,-93.68 494.53,-87.23 509.79,-83.24"/>
<polygon fill="black" stroke="black" points="510.57,-86.66 519.52,-81 508.99,-79.84 510.57,-86.66"/>
</g>
<!-- tables&#45;&gt;cmdline -->
<g id="edge9" class="edge">
<title>tables&#45;&gt;cmdline</title>
<path fill="none" stroke="black" d="M131.03,-627.24C145.76,-632.56 162.17,-639.29 176.38,-647.04 316.15,-723.27 322.96,-786.94 464.38,-860.04 475.82,-865.96 488.82,-870.94 501.05,-874.95"/>
<polygon fill="black" stroke="black" points="499.96,-878.27 510.55,-877.91 502.04,-871.59 499.96,-878.27"/>
</g>
<!-- tables&#45;&gt;regexes -->
<g id="edge15" class="edge">
<title>tables&#45;&gt;regexes</title>
<path fill="none" stroke="black" d="M132.83,-602.02C147.4,-596.87 163.25,-589.95 176.38,-581.04 333.37,-474.56 305.06,-369.01 464.38,-266.04 475.6,-258.79 488.95,-253.32 501.59,-249.26"/>
<polygon fill="black" stroke="black" points="502.39,-252.68 510.99,-246.49 500.41,-245.96 502.39,-252.68"/>
</g>
<!-- tables&#45;&gt;processTemplate -->
<g id="edge17" class="edge">
<title>tables&#45;&gt;processTemplate</title>
<path fill="none" stroke="black" d="M128.87,-628.84C211.49,-659.61 399.65,-729.51 464.38,-752.04 473.25,-755.13 482.69,-758.32 491.9,-761.38"/>
<polygon fill="black" stroke="black" points="490.51,-764.61 501.1,-764.42 492.71,-757.96 490.51,-764.61"/>
</g>
<!-- tables&#45;&gt;parseCmdLine -->
<g id="edge33" class="edge">
<title>tables&#45;&gt;parseCmdLine</title>
<path fill="none" stroke="black" d="M130.97,-600.74C145.7,-595.4 162.12,-588.69 176.38,-581.04 315.28,-506.51 323.86,-445.47 464.38,-374.04 472.47,-369.93 481.32,-366.25 490.12,-363.04"/>
<polygon fill="black" stroke="black" points="491.05,-366.42 499.35,-359.84 488.76,-359.81 491.05,-366.42"/>
</g>
<!-- tables&#45;&gt;runCommand -->
<g id="edge36" class="edge">
<title>tables&#45;&gt;runCommand</title>
<path fill="none" stroke="black" d="M133.63,-624.97C148.27,-630.04 163.96,-637.18 176.38,-647.04 356.28,-789.77 281.35,-937.34 464.38,-1076.04 471.21,-1081.21 479.07,-1085.42 487.17,-1088.84"/>
<polygon fill="black" stroke="black" points="485.87,-1092.09 496.47,-1092.35 488.35,-1085.54 485.87,-1092.09"/>
</g>
<!-- tables&#45;&gt;vartypes -->
<g id="edge39" class="edge">
<title>tables&#45;&gt;vartypes</title>
<path fill="none" stroke="black" d="M138.14,-608.58C225.81,-598.81 408.68,-578.42 496.88,-568.58"/>
<polygon fill="black" stroke="black" points="497.12,-572.08 506.67,-567.49 496.34,-565.12 497.12,-572.08"/>
</g>
<!-- tables&#45;&gt;variables -->
<g id="edge44" class="edge">
<title>tables&#45;&gt;variables</title>
<path fill="none" stroke="black" d="M134.3,-603.69C220.88,-583.81 409.63,-540.48 498.49,-520.08"/>
<polygon fill="black" stroke="black" points="499.15,-523.52 508.11,-517.87 497.58,-516.7 499.15,-523.52"/>
</g>
<!-- tables&#45;&gt;runFunction -->
<g id="edge46" class="edge">
<title>tables&#45;&gt;runFunction</title>
<path fill="none" stroke="black" d="M130,-599.81C144.78,-594.34 161.49,-587.78 176.38,-581.04 308.42,-521.27 331.04,-484.87 464.38,-428.04 474.23,-423.85 484.96,-419.89 495.32,-416.38"/>
<polygon fill="black" stroke="black" points="496.09,-419.81 504.49,-413.35 493.9,-413.16 496.09,-419.81"/>
</g>
<!-- signatures -->
<g id="node32" class="node">
<title>signatures</title>
<ellipse fill="none" stroke="black" cx="547.57" cy="-131.04" rx="46.29" ry="18"/>
<text text-anchor="middle" x="547.57" y="-127.34" font-family="Times,serif" font-size="14.00">signatures</text>
</g>
<!-- tables&#45;&gt;signatures -->
<g id="edge55" class="edge">
<title>tables&#45;&gt;signatures</title>
<path fill="none" stroke="black" d="M133.6,-603.07C148.23,-598 163.92,-590.86 176.38,-581.04 355.01,-440.26 282.66,-294.82 464.38,-158.04 473.38,-151.27 484.16,-146.14 494.91,-142.29"/>
<polygon fill="black" stroke="black" points="495.7,-145.71 504.14,-139.3 493.54,-139.05 495.7,-145.71"/>
</g>
<!-- readjson -->
<g id="node33" class="node">
<title>readjson</title>
<ellipse fill="none" stroke="black" cx="547.57" cy="-1319.04" rx="40.09" ry="18"/>
<text text-anchor="middle" x="547.57" y="-1315.34" font-family="Times,serif" font-size="14.00">readjson</text>
</g>
<!-- tables&#45;&gt;readjson -->
<g id="edge59" class="edge">
<title>tables&#45;&gt;readjson</title>
<path fill="none" stroke="black" d="M135.1,-623.95C149.68,-628.92 164.96,-636.27 176.38,-647.04 404.73,-862.49 231.3,-1081.72 464.38,-1292.04 473.86,-1300.59 486.1,-1306.44 498.23,-1310.44"/>
<polygon fill="black" stroke="black" points="497.22,-1313.79 507.8,-1313.2 499.16,-1307.07 497.22,-1313.79"/>
</g>
<!-- tables&#45;&gt;startingvars -->
<g id="edge65" class="edge">
<title>tables&#45;&gt;startingvars</title>
<path fill="none" stroke="black" d="M130.06,-628.14C144.84,-633.6 161.54,-640.18 176.38,-647.04 309.09,-708.41 330.34,-747.64 464.38,-806.04 474.4,-810.41 485.35,-814.47 495.91,-818.05"/>
<polygon fill="black" stroke="black" points="494.68,-821.33 505.28,-821.13 496.87,-814.68 494.68,-821.33"/>
</g>
<!-- tables&#45;&gt;updateTemplate -->
<g id="edge70" class="edge">
<title>tables&#45;&gt;updateTemplate</title>
<path fill="none" stroke="black" d="M133.28,-625.43C147.89,-630.53 163.65,-637.58 176.38,-647.04 345.08,-772.35 292.94,-900.52 464.38,-1022.04 470.56,-1026.42 477.48,-1030.12 484.63,-1033.24"/>
<polygon fill="black" stroke="black" points="483.2,-1036.44 493.79,-1036.85 485.77,-1029.92 483.2,-1036.44"/>
</g>
<!-- tables&#45;&gt;repl -->
<g id="edge72" class="edge">
<title>tables&#45;&gt;repl</title>
<path fill="none" stroke="black" d="M129.35,-599.6C197.9,-575.03 341.97,-523.68 464.38,-482.04 480.02,-476.72 497.39,-470.99 512.12,-466.18"/>
<polygon fill="black" stroke="black" points="512.93,-469.6 521.35,-463.18 510.76,-462.94 512.93,-469.6"/>
</g>
<!-- os -->
<g id="node6" class="node">
<title>os</title>
<ellipse fill="none" stroke="black" cx="88.19" cy="-1006.04" rx="27" ry="24.08"/>
<text text-anchor="middle" x="88.19" y="-999.84" font-family="Times,serif" font-size="24.00">os</text>
</g>
<!-- os&#45;&gt;statictea -->
<g id="edge77" class="edge">
<title>os&#45;&gt;statictea</title>
<path fill="none" stroke="black" d="M112.34,-1017.5C182.68,-1052.22 393.42,-1155.68 464.38,-1184.04 476.79,-1189 490.49,-1193.77 503.1,-1197.89"/>
<polygon fill="black" stroke="black" points="501.8,-1201.15 512.39,-1200.86 503.94,-1194.48 501.8,-1201.15"/>
</g>
<!-- os&#45;&gt;parseCommandLine -->
<g id="edge4" class="edge">
<title>os&#45;&gt;parseCommandLine</title>
<path fill="none" stroke="black" d="M104.07,-986.42C150.59,-926.35 300.04,-743.1 464.38,-644.04 469.9,-640.71 475.88,-637.74 482.01,-635.1"/>
<polygon fill="black" stroke="black" points="483.01,-638.47 491.01,-631.53 480.42,-631.97 483.01,-638.47"/>
</g>
<!-- os&#45;&gt;cmdline -->
<g id="edge8" class="edge">
<title>os&#45;&gt;cmdline</title>
<path fill="none" stroke="black" d="M114.43,-999.47C188.58,-980.18 406.44,-923.5 501.43,-898.79"/>
<polygon fill="black" stroke="black" points="502.13,-902.22 510.92,-896.32 500.36,-895.45 502.13,-902.22"/>
</g>
<!-- os&#45;&gt;env -->
<g id="edge21" class="edge">
<title>os&#45;&gt;env</title>
<path fill="none" stroke="black" d="M115.42,-1005.41C192.54,-1003.56 418.73,-998.12 508.87,-995.95"/>
<polygon fill="black" stroke="black" points="508.73,-999.45 518.65,-995.71 508.57,-992.45 508.73,-999.45"/>
</g>
<!-- os&#45;&gt;tempFile -->
<g id="edge25" class="edge">
<title>os&#45;&gt;tempFile</title>
<path fill="none" stroke="black" d="M112.91,-1016.78C130.68,-1025.05 155.43,-1037.06 176.38,-1049.04 309.29,-1125.04 326.46,-1171.58 464.38,-1238.04 475.67,-1243.48 488.34,-1248.25 500.28,-1252.19"/>
<polygon fill="black" stroke="black" points="498.95,-1255.45 509.54,-1255.13 501.07,-1248.77 498.95,-1255.45"/>
</g>
<!-- os&#45;&gt;runCommand -->
<g id="edge37" class="edge">
<title>os&#45;&gt;runCommand</title>
<path fill="none" stroke="black" d="M114.76,-1011.46C185.59,-1026.49 385.74,-1068.93 486.73,-1090.35"/>
<polygon fill="black" stroke="black" points="485.96,-1093.76 496.47,-1092.41 487.41,-1086.92 485.96,-1093.76"/>
</g>
<!-- os&#45;&gt;runFunction -->
<g id="edge49" class="edge">
<title>os&#45;&gt;runFunction</title>
<path fill="none" stroke="black" d="M100.67,-984.4C151.51,-889.31 358.46,-509.61 464.38,-428.04 471.99,-422.18 480.93,-417.56 490.06,-413.93"/>
<polygon fill="black" stroke="black" points="491.13,-417.27 499.37,-410.62 488.78,-410.67 491.13,-417.27"/>
</g>
<!-- os&#45;&gt;readjson -->
<g id="edge57" class="edge">
<title>os&#45;&gt;readjson</title>
<path fill="none" stroke="black" d="M112.98,-1015.89C131,-1023.79 156.04,-1035.73 176.38,-1049.04 316.51,-1140.75 318.15,-1210.41 464.38,-1292.04 475.63,-1298.32 488.56,-1303.42 500.79,-1307.43"/>
<polygon fill="black" stroke="black" points="499.72,-1310.76 510.31,-1310.36 501.78,-1304.07 499.72,-1310.76"/>
</g>
<!-- os&#45;&gt;startingvars -->
<g id="edge64" class="edge">
<title>os&#45;&gt;startingvars</title>
<path fill="none" stroke="black" d="M113.16,-996.2C172.38,-971.99 330.49,-908.05 464.38,-860.04 475.09,-856.2 486.66,-852.27 497.64,-848.64"/>
<polygon fill="black" stroke="black" points="498.52,-852.03 506.93,-845.59 496.34,-845.38 498.52,-852.03"/>
</g>
<!-- os&#45;&gt;updateTemplate -->
<g id="edge68" class="edge">
<title>os&#45;&gt;updateTemplate</title>
<path fill="none" stroke="black" d="M115.42,-1008.51C183.49,-1014.91 367.67,-1032.22 471.95,-1042.03"/>
<polygon fill="black" stroke="black" points="471.54,-1045.5 481.83,-1042.95 472.2,-1038.53 471.54,-1045.5"/>
</g>
<!-- strformat -->
<g id="node7" class="node">
<title>strformat</title>
<ellipse fill="none" stroke="red" cx="88.19" cy="-326.04" rx="74.49" ry="24.08"/>
<text text-anchor="middle" x="88.19" y="-319.84" font-family="Times,serif" font-size="24.00">strformat</text>
</g>
<!-- strformat&#45;&gt;args -->
<g id="edge5" class="edge">
<title>strformat&#45;&gt;args</title>
<path fill="none" stroke="red" d="M140.72,-308.68C152.64,-304.08 165.13,-298.77 176.38,-293.04 312.79,-223.53 326.46,-170.51 464.38,-104.04 479.15,-96.92 496.27,-90.97 511.05,-86.47"/>
<polygon fill="red" stroke="red" points="511.75,-89.92 520.37,-83.75 509.79,-83.2 511.75,-89.92"/>
</g>
<!-- strformat&#45;&gt;replacement -->
<g id="edge62" class="edge">
<title>strformat&#45;&gt;replacement</title>
<path fill="none" stroke="red" d="M144.35,-342.08C155.49,-346.62 166.72,-352.23 176.38,-359.04 337.95,-472.97 300.32,-587.73 464.38,-698.04 472.53,-703.52 481.88,-707.96 491.28,-711.54"/>
<polygon fill="red" stroke="red" points="489.84,-714.74 500.43,-714.72 492.14,-708.13 489.84,-714.74"/>
</g>
<!-- re -->
<g id="node12" class="node">
<title>re</title>
<polygon fill="palegreen" stroke="black" points="115.19,-165.25 115.19,-186.83 99.37,-202.08 77.01,-202.08 61.19,-186.83 61.19,-165.25 77.01,-150 99.37,-150 115.19,-165.25"/>
<polygon fill="none" stroke="black" points="119.19,-163.55 119.19,-188.53 100.99,-206.09 75.39,-206.09 57.19,-188.53 57.19,-163.55 75.39,-146 100.99,-146 119.19,-163.55"/>
<text text-anchor="middle" x="88.19" y="-169.84" font-family="Times,serif" font-size="24.00">re</text>
</g>
<!-- re&#45;&gt;regexes -->
<g id="edge13" class="edge">
<title>re&#45;&gt;regexes</title>
<path fill="none" stroke="black" d="M119.55,-180.22C197.6,-190.97 405.66,-219.63 499.5,-232.56"/>
<polygon fill="black" stroke="black" points="498.75,-235.99 509.13,-233.88 499.7,-229.05 498.75,-235.99"/>
</g>
<!-- streams -->
<g id="node15" class="node">
<title>streams</title>
<ellipse fill="none" stroke="black" cx="88.19" cy="-1082.04" rx="62.87" ry="24.08"/>
<text text-anchor="middle" x="88.19" y="-1075.84" font-family="Times,serif" font-size="24.00">streams</text>
</g>
<!-- streams&#45;&gt;processTemplate -->
<g id="edge19" class="edge">
<title>streams&#45;&gt;processTemplate</title>
<path fill="none" stroke="black" d="M130.58,-1063.94C145.42,-1056.86 162.02,-1048.23 176.38,-1039.04 315.07,-950.31 319.8,-884.8 464.38,-806.04 471.45,-802.19 479.17,-798.77 486.95,-795.76"/>
<polygon fill="black" stroke="black" points="487.91,-799.13 496.12,-792.44 485.53,-792.55 487.91,-799.13"/>
</g>
<!-- streams&#45;&gt;env -->
<g id="edge20" class="edge">
<title>streams&#45;&gt;env</title>
<path fill="none" stroke="black" d="M145.27,-1071.37C240.31,-1053.3 430.43,-1017.13 510.11,-1001.98"/>
<polygon fill="black" stroke="black" points="510.39,-1005.49 519.56,-1000.18 509.08,-998.61 510.39,-1005.49"/>
</g>
<!-- streams&#45;&gt;tempFile -->
<g id="edge29" class="edge">
<title>streams&#45;&gt;tempFile</title>
<path fill="none" stroke="black" d="M130.14,-1100.28C198.67,-1130.53 341.22,-1192.28 464.38,-1238.04 476.35,-1242.49 489.43,-1246.96 501.56,-1250.94"/>
<polygon fill="black" stroke="black" points="500.35,-1254.23 510.94,-1253.99 502.51,-1247.57 500.35,-1254.23"/>
</g>
<!-- streams&#45;&gt;linebuffer -->
<g id="edge30" class="edge">
<title>streams&#45;&gt;linebuffer</title>
<path fill="none" stroke="black" d="M146.66,-1091.46C236.09,-1106.13 407.28,-1134.2 493.77,-1148.38"/>
<polygon fill="black" stroke="black" points="492.97,-1151.8 503.4,-1149.96 494.1,-1144.89 492.97,-1151.8"/>
</g>
<!-- streams&#45;&gt;runCommand -->
<g id="edge38" class="edge">
<title>streams&#45;&gt;runCommand</title>
<path fill="none" stroke="black" d="M150.88,-1084.87C235.79,-1088.77 388.25,-1095.77 477.09,-1099.85"/>
<polygon fill="black" stroke="black" points="476.73,-1103.34 486.88,-1100.3 477.05,-1096.35 476.73,-1103.34"/>
</g>
<!-- streams&#45;&gt;readjson -->
<g id="edge56" class="edge">
<title>streams&#45;&gt;readjson</title>
<path fill="none" stroke="black" d="M121.22,-1102.78C184.69,-1143.24 331.79,-1233.81 464.38,-1292.04 476.4,-1297.32 489.79,-1302.14 502.22,-1306.2"/>
<polygon fill="black" stroke="black" points="500.8,-1309.42 511.39,-1309.11 502.92,-1302.75 500.8,-1309.42"/>
</g>
<!-- streams&#45;&gt;replacement -->
<g id="edge61" class="edge">
<title>streams&#45;&gt;replacement</title>
<path fill="none" stroke="black" d="M132.01,-1064.33C146.67,-1057.4 162.79,-1048.76 176.38,-1039.04 323.36,-933.91 310.37,-846.57 464.38,-752.04 472.84,-746.85 482.42,-742.53 491.97,-738.99"/>
<polygon fill="black" stroke="black" points="492.92,-742.37 501.24,-735.81 490.65,-735.75 492.92,-742.37"/>
</g>
<!-- streams&#45;&gt;updateTemplate -->
<g id="edge67" class="edge">
<title>streams&#45;&gt;updateTemplate</title>
<path fill="none" stroke="black" d="M150.4,-1077.63C233.07,-1071.66 380.38,-1061.03 470.2,-1054.55"/>
<polygon fill="black" stroke="black" points="470.44,-1058.04 480.16,-1053.83 469.93,-1051.06 470.44,-1058.04"/>
</g>
<!-- times -->
<g id="node17" class="node">
<title>times</title>
<ellipse fill="none" stroke="red" cx="88.19" cy="-470.04" rx="48.17" ry="24.08"/>
<text text-anchor="middle" x="88.19" y="-463.84" font-family="Times,serif" font-size="24.00">times</text>
</g>
<!-- times&#45;&gt;env -->
<g id="edge22" class="edge">
<title>times&#45;&gt;env</title>
<path fill="none" stroke="red" d="M132.05,-480.1C147.21,-485.17 163.64,-492.55 176.38,-503.04 364.01,-657.6 273.36,-817.69 464.38,-968.04 477.36,-978.26 494.35,-984.68 509.52,-988.68"/>
<polygon fill="red" stroke="red" points="508.66,-992.07 519.19,-990.95 510.25,-985.26 508.66,-992.07"/>
</g>
<!-- timer -->
<g id="node40" class="node">
<title>timer</title>
<ellipse fill="none" stroke="black" cx="547.57" cy="-23.04" rx="29.8" ry="18"/>
<text text-anchor="middle" x="547.57" y="-19.34" font-family="Times,serif" font-size="14.00">timer</text>
</g>
<!-- times&#45;&gt;timer -->
<g id="edge75" class="edge">
<title>times&#45;&gt;timer</title>
<path fill="none" stroke="red" d="M131.58,-459.38C146.68,-454.24 163.2,-446.99 176.38,-437.04 347.53,-307.9 290.41,-175.35 464.38,-50.04 476.98,-40.97 492.8,-34.82 507.2,-30.71"/>
<polygon fill="red" stroke="red" points="508.06,-34.1 516.88,-28.22 506.32,-27.33 508.06,-34.1"/>
</g>
<!-- random -->
<g id="node19" class="node">
<title>random</title>
<polygon fill="palegreen" stroke="black" points="156.96,-1242.25 156.96,-1263.83 116.68,-1279.08 59.7,-1279.08 19.42,-1263.83 19.42,-1242.25 59.7,-1227 116.68,-1227 156.96,-1242.25"/>
<polygon fill="none" stroke="black" points="160.96,-1239.49 160.96,-1266.6 117.41,-1283.09 58.97,-1283.09 15.42,-1266.6 15.42,-1239.49 58.97,-1223 117.41,-1223 160.96,-1239.49"/>
<text text-anchor="middle" x="88.19" y="-1246.84" font-family="Times,serif" font-size="24.00">random</text>
</g>
<!-- random&#45;&gt;tempFile -->
<g id="edge26" class="edge">
<title>random&#45;&gt;tempFile</title>
<path fill="none" stroke="black" d="M161.41,-1254.94C253.76,-1257.36 411.51,-1261.5 493.53,-1263.65"/>
<polygon fill="black" stroke="black" points="493.22,-1267.14 503.31,-1263.91 493.4,-1260.15 493.22,-1267.14"/>
</g>
<!-- math -->
<g id="node26" class="node">
<title>math</title>
<ellipse fill="none" stroke="red" cx="88.19" cy="-24.04" rx="45.92" ry="24.08"/>
<text text-anchor="middle" x="88.19" y="-17.84" font-family="Times,serif" font-size="24.00">math</text>
</g>
<!-- math&#45;&gt;runFunction -->
<g id="edge48" class="edge">
<title>math&#45;&gt;runFunction</title>
<path fill="none" stroke="red" d="M128.84,-35.71C144.45,-41.36 162.03,-49.1 176.38,-59.04 332.3,-167.08 305.06,-271.08 464.38,-374.04 472.63,-379.37 482.03,-383.74 491.45,-387.29"/>
<polygon fill="red" stroke="red" points="490.01,-390.5 500.6,-390.47 492.3,-383.88 490.01,-390.5"/>
</g>
<!-- math&#45;&gt;timer -->
<g id="edge76" class="edge">
<title>math&#45;&gt;timer</title>
<path fill="none" stroke="red" d="M134.3,-23.94C223.41,-23.75 420.77,-23.32 506.03,-23.13"/>
<polygon fill="red" stroke="red" points="505.79,-26.63 515.78,-23.11 505.78,-19.63 505.79,-26.63"/>
</g>
<!-- algorithm -->
<g id="node27" class="node">
<title>algorithm</title>
<polygon fill="palegreen" stroke="black" points="172.56,-387.25 172.56,-408.83 123.14,-424.08 53.24,-424.08 3.82,-408.83 3.82,-387.25 53.24,-372 123.14,-372 172.56,-387.25"/>
<polygon fill="none" stroke="black" points="176.57,-384.3 176.57,-411.78 123.74,-428.09 52.64,-428.09 -0.19,-411.78 -0.19,-384.3 52.64,-368 123.74,-368 176.57,-384.3"/>
<text text-anchor="middle" x="88.19" y="-391.84" font-family="Times,serif" font-size="24.00">algorithm</text>
</g>
<!-- algorithm&#45;&gt;runFunction -->
<g id="edge50" class="edge">
<title>algorithm&#45;&gt;runFunction</title>
<path fill="none" stroke="black" d="M176.84,-398.62C266.09,-399.2 402.36,-400.1 482.15,-400.62"/>
<polygon fill="black" stroke="black" points="481.96,-404.12 491.99,-400.68 482.01,-397.12 481.96,-404.12"/>
</g>
<!-- parseutils -->
<g id="node29" class="node">
<title>parseutils</title>
<polygon fill="palegreen" stroke="black" points="171,-87.25 171,-108.83 122.49,-124.08 53.89,-124.08 5.38,-108.83 5.38,-87.25 53.89,-72 122.49,-72 171,-87.25"/>
<polygon fill="none" stroke="black" points="175.01,-84.32 175.01,-111.77 123.11,-128.09 53.27,-128.09 1.37,-111.77 1.37,-84.32 53.27,-68 123.11,-68 175.01,-84.32"/>
<text text-anchor="middle" x="88.19" y="-91.84" font-family="Times,serif" font-size="24.00">parseutils</text>
</g>
<!-- parseutils&#45;&gt;parseNumber -->
<g id="edge52" class="edge">
<title>parseutils&#45;&gt;parseNumber</title>
<path fill="none" stroke="black" d="M170.7,-113.55C261.21,-130.76 405.21,-158.15 486.17,-173.55"/>
<polygon fill="black" stroke="black" points="485.2,-176.93 495.68,-175.36 486.51,-170.05 485.2,-176.93"/>
</g>
<!-- unicode -->
<g id="node30" class="node">
<title>unicode</title>
<polygon fill="palegreen" stroke="black" points="158.52,-243.25 158.52,-264.83 117.32,-280.08 59.06,-280.08 17.86,-264.83 17.86,-243.25 59.06,-228 117.32,-228 158.52,-243.25"/>
<polygon fill="none" stroke="black" points="162.52,-240.47 162.52,-267.62 118.04,-284.09 58.34,-284.09 13.86,-267.62 13.86,-240.47 58.34,-224 118.04,-224 162.52,-240.47"/>
<text text-anchor="middle" x="88.19" y="-247.84" font-family="Times,serif" font-size="24.00">unicode</text>
</g>
<!-- unicode&#45;&gt;unicodes -->
<g id="edge53" class="edge">
<title>unicode&#45;&gt;unicodes</title>
<path fill="none" stroke="black" d="M162.93,-260.33C255.65,-268.24 412.53,-281.61 493.97,-288.56"/>
<polygon fill="black" stroke="black" points="493.66,-292.04 503.92,-289.4 494.25,-285.07 493.66,-292.04"/>
</g>
<!-- json -->
<g id="node34" class="node">
<title>json</title>
<polygon fill="palegreen" stroke="black" points="130.92,-1320.25 130.92,-1341.83 105.89,-1357.08 70.49,-1357.08 45.46,-1341.83 45.46,-1320.25 70.49,-1305 105.89,-1305 130.92,-1320.25"/>
<polygon fill="none" stroke="black" points="134.91,-1318 134.91,-1344.08 107.01,-1361.09 69.37,-1361.09 41.47,-1344.08 41.47,-1318 69.37,-1301 107.01,-1301 134.91,-1318"/>
<text text-anchor="middle" x="88.19" y="-1324.84" font-family="Times,serif" font-size="24.00">json</text>
</g>
<!-- json&#45;&gt;readjson -->
<g id="edge58" class="edge">
<title>json&#45;&gt;readjson</title>
<path fill="none" stroke="black" d="M135.14,-1329.84C221.21,-1327.58 406.1,-1322.73 495.76,-1320.37"/>
<polygon fill="black" stroke="black" points="495.82,-1323.87 505.73,-1320.11 495.64,-1316.88 495.82,-1323.87"/>
</g>
<!-- rdstdin -->
<g id="node38" class="node">
<title>rdstdin</title>
<polygon fill="palegreen" stroke="black" points="151.74,-531.25 151.74,-552.83 114.51,-568.08 61.87,-568.08 24.64,-552.83 24.64,-531.25 61.87,-516 114.51,-516 151.74,-531.25"/>
<polygon fill="none" stroke="black" points="155.74,-528.57 155.74,-555.51 115.3,-572.09 61.08,-572.09 20.64,-555.51 20.64,-528.57 61.08,-512 115.3,-512 155.74,-528.57"/>
<text text-anchor="middle" x="88.19" y="-535.84" font-family="Times,serif" font-size="24.00">rdstdin</text>
</g>
<!-- rdstdin&#45;&gt;repl -->
<g id="edge71" class="edge">
<title>rdstdin&#45;&gt;repl</title>
<path fill="none" stroke="black" d="M156.19,-529.3C254.25,-510.64 433.53,-476.54 510.21,-461.96"/>
<polygon fill="black" stroke="black" points="510.53,-465.46 519.7,-460.15 509.22,-458.58 510.53,-465.46"/>
</g>
</g>
</svg>
