<?xml version="1.0" encoding="UTF-8" standalone="no"?>
<!-- Generator: Adobe Illustrator 21.0.0, SVG Export Plug-In . SVG Version: 6.00 Build 0)  -->

<svg
   version="1.1"
   id="Layer_1"
   x="0px"
   y="0px"
   viewBox="0 0 824.23607 342.63529"
   xml:space="preserve"
   sodipodi:docname="teapotlogo.svg"
   width="824.23608"
   height="342.63528"
   inkscape:version="1.1.1 (c3084ef, 2021-09-22)"
   xmlns:inkscape="http://www.inkscape.org/namespaces/inkscape"
   xmlns:sodipodi="http://sodipodi.sourceforge.net/DTD/sodipodi-0.dtd"
   xmlns="http://www.w3.org/2000/svg"
   xmlns:svg="http://www.w3.org/2000/svg"><defs
   id="defs1042" /><sodipodi:namedview
   id="namedview1040"
   pagecolor="#ffffff"
   bordercolor="#666666"
   borderopacity="1.0"
   inkscape:pageshadow="2"
   inkscape:pageopacity="0.0"
   inkscape:pagecheckerboard="0"
   showgrid="false"
   showguides="true"
   inkscape:guide-bbox="true"
   inkscape:zoom="0.97916667"
   inkscape:cx="380.93617"
   inkscape:cy="201.70213"
   inkscape:window-width="1707"
   inkscape:window-height="969"
   inkscape:window-x="0"
   inkscape:window-y="38"
   inkscape:window-maximized="0"
   inkscape:current-layer="layer1"><sodipodi:guide
     position="541.05358,-0.33583951"
     orientation="0,-1"
     id="guide25990" /></sodipodi:namedview>
<style
   type="text/css"
   id="style950">
	.st0{fill:#9C130A;}
	.st1{fill:#666666;}
</style>
<g
   id="g1037"
   style="display:inline"
   transform="translate(-557.84001,-372.94377)">
	<g
   id="teapot"
   style="display:inline">
		<path
   class="st0"
   d="m 984,489.9 c 29,-0.3 48.3,-3.2 60,-5.9 9.4,-2.1 25.6,-6.8 28.7,-13.9 2.8,-6.5 -4.5,-12.4 -7,-14.4 -4.5,-3.6 -10.3,-7 -14.6,-9.4 -1.7,-1 -3.2,-1.8 -4.1,-2.4 -1.7,-1.1 -3.9,-0.6 -5,1.1 -1.1,1.7 -0.6,3.9 1.1,5 1.1,0.7 2.6,1.6 4.4,2.6 4,2.3 9.6,5.5 13.7,8.8 4.5,3.6 5,5.5 4.8,5.8 -0.5,1 -6,5.7 -23.9,9.7 -13.2,3 -36.6,6.3 -73.3,5.5 -17.6,-0.4 -35.9,-2.8 -50.1,-6.7 -16,-4.4 -22.6,-9.5 -23.3,-12.5 -0.5,-2.3 2.5,-5.4 8.3,-8.4 1.8,-0.9 2.5,-3.1 1.5,-4.9 -0.9,-1.8 -3.1,-2.5 -4.9,-1.5 -9.4,4.9 -13.4,10.5 -12,16.5 1.7,7.1 11.2,13.1 28.4,17.8 14.7,4 33.6,6.6 51.9,7 5.5,0.2 10.6,0.3 15.4,0.2 z"
   id="path952" />
		<g
   id="g956">
			<path
   class="st0"
   d="m 829.1,627.1 c 11.8,19.9 31.2,36.4 56.2,47.8 24.9,11.3 54.9,17.4 86.8,17.5 1.1,0 2.3,0 3.4,0 18.3,-0.2 36.2,-2.3 53.3,-6.2 19.4,-4.5 36.9,-11.2 51.9,-20 34.6,-20.2 54.2,-50.3 56.5,-87.1 0.8,-13.3 -1.9,-28.8 -8,-44.8 -6.2,-16.2 -15.5,-32.3 -27.1,-46.5 -25,-30.8 -57.5,-50.1 -92.3,-55.1 0.5,-1.5 1,-3.1 1.4,-4.7 1.7,-6.7 2.9,-16.4 -1.2,-25 -3.4,-7.1 -11.5,-15.6 -31.1,-15.5 -0.1,0 -0.2,0 -0.4,0 -16,0.1 -27.4,6.4 -32.4,17.6 -2.9,6.7 -3.3,14.7 -1.2,23.1 0.5,1.9 1.1,3.8 1.9,5.6 -50.7,8.4 -89.4,35.7 -113.6,80.5 -11.3,20.9 -17.2,41.4 -17.6,61 -0.4,18.8 4.1,36.1 13.5,51.8 z m 10.6,-109.2 c 23.3,-43.3 61.1,-69.4 110.5,-77.1 2,3.5 4.4,6.8 7.2,9.8 1.4,1.5 3.6,1.6 5.1,0.2 0.8,-0.7 1.2,-1.7 1.2,-2.7 0,-0.9 -0.3,-1.7 -0.9,-2.4 -10.5,-11.5 -14.6,-26.9 -9.9,-37.6 3.8,-8.6 12.8,-13.2 26.1,-13.3 12.6,0 20.9,3.8 24.5,11.4 5.3,11.2 -0.4,29.2 -8.8,39.3 -0.6,0.7 -0.8,1.5 -0.8,2.3 0,1 0.5,2.1 1.3,2.8 0.7,0.6 1.5,0.8 2.3,0.8 1,0 2.1,-0.5 2.8,-1.3 2.5,-3 4.7,-6.6 6.6,-10.4 33.7,4.3 65.3,22.8 89.6,52.7 21.9,27 35.1,60.9 33.5,86.3 -2.1,34.2 -20.4,62.3 -52.9,81.3 -27.3,16 -63.3,24.9 -101.6,25.2 -1.1,0 -2.3,0 -3.4,0 -62.8,-0.2 -113.9,-23.3 -136.8,-61.8 -18,-30.3 -16.5,-66.8 4.4,-105.5 z"
   id="path954" />
		</g>
		<path
   class="st0"
   d="m 967.3,433.7 c 0.3,0 0.7,-0.1 1,-0.3 0.8,-0.5 1.1,-1.7 0.5,-2.5 -3.2,-5 -6.4,-12.3 -3.3,-18.5 2.4,-4.8 7.1,-6.9 7.1,-6.9 0.9,-0.4 1.3,-1.5 0.9,-2.4 -0.4,-0.9 -1.5,-1.3 -2.4,-0.9 -0.2,0.1 -5.9,2.6 -8.9,8.6 -3.1,6.1 -1.9,13.8 3.5,22.1 0.4,0.5 1,0.8 1.6,0.8 z"
   id="path958" />
		<path
   class="st0"
   d="m 872.6,667.8 c 1.8,0 3.3,-1.4 3.6,-3.2 0.3,-2 -1.2,-3.8 -3.1,-4 -0.2,0 -23.1,-2.9 -39.3,-7.2 -29.4,-7.8 -49.6,-21.3 -63.4,-42.7 -10,-15.4 -16.2,-33.2 -17.8,-51.4 -0.7,-7.6 -0.6,-16.6 -0.5,-26.2 0.2,-16.5 0.4,-35.3 -3.6,-50.9 -4.3,-17 -13,-28 -26.3,-33.4 14.2,-1.2 24,0 28.8,0.9 3.7,0.7 4.6,1.1 4.7,1.1 2.9,1.8 5.4,4.7 7.6,8.5 3.3,5.9 6.2,13.9 9.2,22.5 9.1,25.6 20.5,57.5 53.6,59.9 2,0.1 3.7,-1.4 3.9,-3.3 0.1,-2 -1.4,-3.7 -3.3,-3.9 -28.3,-2.1 -38.4,-30.3 -47.3,-55.1 -3.2,-8.8 -6.1,-17.2 -9.7,-23.6 -2.8,-4.9 -6.2,-8.7 -10.1,-11.1 -1.3,-0.8 -3.1,-1.3 -7.2,-2.1 -5.9,-1.1 -18.5,-2.6 -36.9,-0.4 -5.4,0.7 -6.3,3.7 -6.4,5 -0.1,1.5 0.3,5.1 7,7.1 29.5,8.9 29.1,46 28.7,78.7 -0.1,9.7 -0.2,18.9 0.5,26.9 1.7,19.4 8.2,38.3 18.9,54.7 14.9,23 36.4,37.5 67.7,45.7 16.7,4.4 39.3,7.3 40.3,7.4 0.1,0.1 0.3,0.1 0.4,0.1 z"
   id="path960" />
		<path
   class="st0"
   d="m 1115.9,633.7 c 0.2,0 0.4,0 0.6,-0.1 5.8,-1.1 20.2,-6.9 25.8,-9.6 16.2,-8 30.4,-21.4 40,-37.9 11.1,-19.2 15.4,-41.6 12.4,-64.8 -2.3,-17.9 -9.5,-29.5 -19.8,-31.6 -7.7,-1.6 -15.8,2.6 -21,11.2 -9.4,15.4 -17.5,19.3 -22.6,19.8 -5.3,0.6 -8.7,-2.3 -9.9,-3.5 -1.4,-1.4 -3.7,-1.5 -5.1,-0.1 -1.4,1.4 -1.5,3.7 -0.1,5.1 4.1,4.3 9.9,6.4 15.9,5.7 6.8,-0.7 17.1,-5.4 28.1,-23.3 3.6,-5.9 8.6,-8.8 13.3,-7.8 7,1.5 12.3,11 14.1,25.5 5.9,46.5 -20,81.4 -48.4,95.3 -5.6,2.8 -19.3,8.2 -23.9,9 -2,0.4 -3.3,2.3 -2.9,4.2 0.2,1.7 1.8,2.9 3.5,2.9 z"
   id="path962" />
		<path
   class="st0"
   d="m 1105.8,648.1 c 0.2,0 0.5,0 0.7,-0.1 l 11.4,-2.3 c 0,0 0.1,0 0.1,0 30.1,-7.2 55.9,-24.1 72.6,-47.6 8.7,-12.2 14.7,-25.8 17.8,-40.4 3.3,-15.4 3.4,-31.8 0.3,-48.5 -2.2,-11.4 -7.5,-22.9 -14.3,-30.7 -5.9,-6.8 -13,-11 -20.5,-12 -10.9,-1.5 -20.6,2.4 -28.9,11.5 -3.1,3.4 -5.6,7.1 -7.8,10.3 -1.7,2.6 -3.4,5 -5.1,6.9 -2.2,2.5 -5.3,3.8 -9,3.8 -7,0 -15.1,-4.5 -21.8,-12 -1.3,-1.5 -3.6,-1.6 -5.1,-0.3 -1.5,1.3 -1.6,3.6 -0.3,5.1 8.1,9.2 18,14.5 27.2,14.5 5.8,0 10.8,-2.1 14.4,-6.2 2,-2.3 3.8,-4.9 5.7,-7.7 2.1,-3.2 4.3,-6.5 7.1,-9.5 6.7,-7.4 14.1,-10.4 22.5,-9.2 5.7,0.8 11.3,4.1 16,9.6 6,6.9 10.7,17 12.6,27.3 13.3,70.8 -34.8,116 -85.2,128.1 L 1105,641 c -2,0.4 -3.2,2.3 -2.8,4.3 0.3,1.7 1.9,2.9 3.6,2.8 z"
   id="path964" />
		<path
   class="st0"
   d="m 1003.7,506.3 c 25.4,-0.2 45,-4.6 57.4,-8.4 11.2,-3.5 17.1,-6.6 17.4,-6.7 0.9,-0.5 1.2,-1.6 0.8,-2.5 -0.5,-0.9 -1.6,-1.2 -2.5,-0.8 v 0 c -0.1,0 -5.9,3.1 -16.7,6.5 -13.6,4.2 -36.1,9.1 -65.8,8.1 -1,0 -1.9,0.8 -1.9,1.8 0,1 0.8,1.9 1.8,1.9 3.2,0.1 6.4,0.1 9.5,0.1 z"
   id="path966" />
		<path
   class="st0"
   d="m 1043.7,515.5 c 0.1,0 0.2,0 0.3,0 15.2,-2.4 35.8,-9.1 43.2,-14.2 0.8,-0.6 1,-1.7 0.5,-2.5 -0.6,-0.8 -1.7,-1 -2.5,-0.5 -6.9,4.7 -27.1,11.3 -41.7,13.6 -1,0.2 -1.7,1.1 -1.5,2.1 0,0.8 0.8,1.5 1.7,1.5 z"
   id="path968" />
		<path
   class="st0"
   d="m 1000.8,535.6 c 11.6,-0.1 26.8,-1.9 41.7,-4.9 21.7,-4.4 39.9,-10.8 51.3,-18.1 0.8,-0.5 1.1,-1.7 0.5,-2.5 -0.5,-0.8 -1.7,-1.1 -2.5,-0.5 -24,15.4 -75.6,23.9 -98.7,22.2 -1,-0.1 -1.9,0.7 -1.9,1.7 -0.1,1 0.7,1.9 1.7,1.9 2.4,0.2 5,0.3 7.9,0.2 z"
   id="path970" />
		<path
   class="st0"
   d="m 1066.6,538.1 c 0.2,0 0.3,0 0.5,-0.1 9,-2.6 26.1,-10 31.7,-13.1 0.9,-0.5 1.2,-1.6 0.7,-2.5 -0.5,-0.9 -1.6,-1.2 -2.5,-0.7 -5.4,3 -22.2,10.3 -30.9,12.8 -1,0.3 -1.5,1.3 -1.2,2.2 0.2,0.9 0.9,1.4 1.7,1.4 z"
   id="path972" />
		<path
   class="st0"
   d="m 1002.5,632.7 c 0.1,0 0.1,0 0.2,0 34.5,-3.3 61.3,-10.3 77.6,-15.6 17.8,-5.8 27.3,-10.7 27.7,-10.9 0.9,-0.5 1.2,-1.6 0.8,-2.4 -0.5,-0.9 -1.6,-1.2 -2.4,-0.8 -0.1,0 -9.7,5 -27.2,10.7 -16.2,5.2 -42.7,12.2 -76.8,15.4 -1,0.1 -1.7,1 -1.6,2 0,0.9 0.8,1.6 1.7,1.6 z"
   id="path974" />
		<path
   class="st0"
   d="m 1040.4,639.5 c 0.1,0 0.2,0 0.3,0 30.9,-5.3 59.9,-19.2 60.2,-19.4 0.9,-0.4 1.3,-1.5 0.8,-2.4 -0.4,-0.9 -1.5,-1.3 -2.4,-0.8 -0.3,0.1 -28.8,13.8 -59.2,19.1 -1,0.2 -1.6,1.1 -1.5,2.1 0.2,0.8 1,1.4 1.8,1.4 z"
   id="path976" />
		<path
   class="st0"
   d="m 994,658.3 c 0,0 0.1,0 0.1,0 30,-2 55,-8.8 70.7,-14.1 17,-5.8 26.8,-11 27.2,-11.2 0.9,-0.5 1.2,-1.6 0.7,-2.5 -0.5,-0.9 -1.6,-1.2 -2.5,-0.7 -0.1,0.1 -10,5.3 -26.8,11 -15.5,5.2 -40.1,11.9 -69.7,13.9 -1,0.1 -1.8,0.9 -1.7,1.9 0.3,1 1.1,1.7 2,1.7 z"
   id="path978" />
		<path
   class="st0"
   d="m 1091.5,555.3 c 0.2,0 0.4,0 0.6,-0.1 1.3,-0.4 2.7,-0.9 4.2,-1.5 2,-0.7 4.2,-1.5 6.2,-2.2 1,-0.3 1.5,-1.3 1.2,-2.3 -0.3,-1 -1.3,-1.5 -2.3,-1.2 -2.2,0.7 -4.3,1.5 -6.4,2.2 -1.5,0.5 -2.8,1 -4.1,1.5 -0.9,0.3 -1.5,1.3 -1.1,2.3 0.2,0.8 0.9,1.3 1.7,1.3 z"
   id="path980" />
		<path
   class="st0"
   d="m 1098.6,564.3 c 0.2,0 0.4,0 0.6,-0.1 0.2,-0.1 4,-1.3 5.7,-2.1 0.9,-0.4 1.4,-1.4 1,-2.4 -0.4,-0.9 -1.4,-1.4 -2.4,-1 -1.6,0.7 -5.5,2 -5.5,2 -0.9,0.3 -1.5,1.3 -1.1,2.3 0.2,0.8 0.9,1.3 1.7,1.3 z"
   id="path982" />
		<path
   class="st0"
   d="m 1029.2,596.5 c 0,0 0.1,0 0.1,0 25.5,-1.9 48.2,-8.6 62.7,-13.9 9.5,-3.5 15.1,-6.2 15.3,-6.3 0.9,-0.4 1.3,-1.5 0.8,-2.4 -0.4,-0.9 -1.5,-1.3 -2.4,-0.8 -0.1,0 -5.7,2.7 -15,6.1 -14.3,5.2 -36.6,11.8 -61.7,13.7 -1,0.1 -1.7,0.9 -1.7,1.9 0.2,1 1,1.7 1.9,1.7 z"
   id="path984" />
		<path
   class="st0"
   d="m 1077.7,598.7 c 0.1,0 0.3,0 0.4,-0.1 8.2,-2.2 21.3,-6.7 31.3,-12.4 0.9,-0.5 1.2,-1.6 0.7,-2.5 -0.5,-0.9 -1.6,-1.2 -2.5,-0.7 -9.7,5.5 -22.4,10 -30.4,12.1 -1,0.3 -1.5,1.2 -1.3,2.2 0.2,0.8 1,1.4 1.8,1.4 z"
   id="path986" />
		<path
   class="st0"
   d="m 822.4,632.4 c 0.3,0 0.7,-0.1 1,-0.3 0.8,-0.6 1.1,-1.7 0.5,-2.5 -17.3,-26.1 -14.8,-51.8 -14.7,-52 0.1,-1 -0.6,-1.9 -1.6,-2 -1,-0.1 -1.9,0.6 -2,1.6 0,0.3 -0.7,6.9 0.8,17 1.4,9.2 5.1,23.2 14.5,37.5 0.4,0.5 1,0.7 1.5,0.7 z"
   id="path988" />
		<path
   class="st0"
   d="m 805.9,616.7 c 0.2,0 0.5,0 0.7,-0.1 0.9,-0.4 1.4,-1.5 1,-2.4 -5.9,-14 -6.1,-26 -6.1,-26.1 0,-1 -0.8,-1.8 -1.8,-1.8 0,0 0,0 0,0 -1,0 -1.8,0.8 -1.8,1.8 0,0.5 0.1,12.8 6.4,27.5 0.2,0.7 0.9,1.1 1.6,1.1 z"
   id="path990" />
		<path
   class="st0"
   d="m 926.1,452.8 c 0.2,0 0.4,0 0.6,-0.1 18.1,-6.4 29.8,-6.9 29.9,-6.9 1,0 1.8,-0.9 1.7,-1.9 0,-1 -0.9,-1.8 -1.9,-1.7 -0.5,0 -12.4,0.5 -31,7.2 -0.9,0.3 -1.4,1.4 -1.1,2.3 0.3,0.6 1,1.1 1.8,1.1 z"
   id="path992" />
		<path
   class="st0"
   d="m 938.3,456.1 c 0.3,0 0.5,-0.1 0.8,-0.2 7,-3.6 15.8,-4.9 21.1,-5 1,0 1.8,-0.8 1.8,-1.8 0,-1 -0.8,-1.8 -1.8,-1.8 -6,0.1 -15.1,1.5 -22.7,5.4 -0.9,0.5 -1.2,1.5 -0.8,2.4 0.3,0.6 0.9,1 1.6,1 z"
   id="path994" />
		<path
   class="st0"
   d="m 1017.4,476.3 c 0.1,0 0.2,0 0.2,0 9.4,-1.4 16.8,-2.6 27.1,-5.9 4.9,-1.6 9.1,-3.7 9.3,-3.7 0.9,-0.4 1.3,-1.5 0.8,-2.4 -0.4,-0.9 -1.5,-1.3 -2.4,-0.8 0,0 -4.1,2 -8.8,3.5 -10,3.2 -17,4.4 -26.5,5.8 -1,0.1 -1.7,1.1 -1.5,2.1 0.1,0.8 0.9,1.4 1.8,1.4 z"
   id="path996" />
		<path
   class="st0"
   d="m 1014.6,496.5 c 0,0 0,0 0,0 0.3,0 6.6,-0.1 15.6,-1.4 6.1,-0.8 12,-2 17.4,-3.4 15.3,-4.1 23.8,-8.7 24.2,-8.9 0.9,-0.5 1.2,-1.6 0.7,-2.5 -0.5,-0.9 -1.6,-1.2 -2.5,-0.7 -0.1,0 -8.5,4.6 -23.4,8.6 -5.2,1.4 -10.9,2.5 -16.9,3.3 -8.7,1.2 -15.1,1.3 -15.1,1.3 -1,0 -1.8,0.8 -1.8,1.8 0,1.1 0.8,1.9 1.8,1.9 z"
   id="path998" />
		<path
   class="st0"
   d="m 1049.6,521.5 c 0.1,0 0.1,0 0.2,0 10.7,-1.4 33.7,-9.5 41.1,-15.3 0.8,-0.6 0.9,-1.8 0.3,-2.5 -0.6,-0.8 -1.8,-0.9 -2.5,-0.3 -6.9,5.4 -29.3,13.3 -39.3,14.6 -1,0.1 -1.7,1 -1.6,2 0.1,0.9 0.9,1.6 1.8,1.5 z"
   id="path1000" />
		<path
   class="st0"
   d="m 1066.6,503 c 0.2,0 0.4,0 0.5,-0.1 l 0.4,-0.1 c 3.1,-1 6.4,-2.1 9.5,-3.5 0.9,-0.4 1.3,-1.5 0.9,-2.4 -0.4,-0.9 -1.5,-1.3 -2.4,-0.9 -2.9,1.3 -6,2.4 -9.1,3.4 l -0.4,0.1 c -1,0.3 -1.5,1.3 -1.2,2.3 0.3,0.7 1,1.2 1.8,1.2 z"
   id="path1002" />
		<path
   class="st0"
   d="m 1034.9,539.3 c 0.1,0 0.2,0 0.3,0 14.4,-2.4 36,-7.3 56.6,-17.5 0.3,-0.2 0.6,-0.3 0.8,-0.4 0.9,-0.4 1.3,-1.5 0.9,-2.4 -0.4,-0.9 -1.5,-1.3 -2.4,-0.9 -0.2,0.1 -0.5,0.2 -0.9,0.4 -20.2,10 -41.4,14.8 -55.6,17.1 -1,0.2 -1.7,1.1 -1.5,2.1 0.1,1 0.9,1.6 1.8,1.6 z"
   id="path1004" />
		<path
   class="st0"
   d="m 1049.4,615.6 c 0.1,0 0.1,0 0.2,0 30.3,-3.5 59.3,-18.3 59.6,-18.4 0.9,-0.5 1.2,-1.5 0.8,-2.4 -0.5,-0.9 -1.5,-1.2 -2.4,-0.8 -0.3,0.1 -28.8,14.7 -58.4,18.1 -1,0.1 -1.7,1 -1.6,2 0.1,0.9 0.9,1.5 1.8,1.5 z"
   id="path1006" />
		<path
   class="st0"
   d="m 1026,672.9 c 0.1,0 0.1,0 0.2,0 13.9,-1.8 33.9,-10 34.8,-10.3 0.9,-0.4 1.4,-1.4 1,-2.4 -0.4,-0.9 -1.4,-1.4 -2.4,-1 -0.2,0.1 -20.4,8.3 -33.9,10.1 -1,0.1 -1.7,1 -1.6,2 0.2,1 1,1.7 1.9,1.6 z"
   id="path1008" />
		<path
   class="st0"
   d="m 883.6,656.2 c 0.6,0 1.2,-0.3 1.6,-0.9 0.5,-0.9 0.2,-2 -0.7,-2.5 -33.1,-19.3 -48.2,-42.8 -47.5,-74 0,-1 -0.8,-1.8 -1.8,-1.9 -1,0 -1.8,0.8 -1.9,1.8 -0.4,17.2 3.8,32 12.9,45.3 8.1,11.9 20,22.4 36.4,31.9 0.3,0.2 0.6,0.3 1,0.3 z"
   id="path1010" />
		<path
   class="st0"
   d="m 897.7,664.8 c -0.9,-0.5 -1.9,-1 -2.9,-1.5 -0.1,-0.1 -0.4,-0.2 -0.6,-0.3 -0.1,-0.1 -0.2,-0.1 -0.3,-0.2 -0.4,-0.1 -0.8,-0.3 -1.1,-0.6 -0.8,-0.8 -0.6,-1.9 -0.1,-2.5 1,-1.3 2.3,-0.5 3.3,0.1 0.2,0.1 0.4,0.2 0.5,0.3 1,0.5 2,1 3,1.6 0.9,0.5 1.2,1.6 0.7,2.5 -0.3,0.6 -0.9,0.9 -1.6,0.9 -0.3,-0.1 -0.6,-0.1 -0.9,-0.3 z m -2.2,-5 c 0,0 0,0 0,0 0,0 0,0 0,0 z"
   id="path1012" />
		<path
   class="st0"
   d="m 836,570.3 c 0.9,0 1.6,-0.7 1.8,-1.6 0,-0.1 1.2,-8.2 2.2,-11.9 0.3,-1 -0.3,-2 -1.3,-2.2 -1,-0.3 -2,0.3 -2.2,1.3 -1.1,3.9 -2.2,12 -2.3,12.4 -0.1,1 0.5,1.9 1.5,2.1 0.2,-0.1 0.3,-0.1 0.3,-0.1 z"
   id="path1014" />
		<path
   class="st0"
   d="m 892.9,647.8 c 0.7,0 1.3,-0.4 1.6,-1.1 0.4,-0.9 0,-2 -0.9,-2.4 -14.6,-6.5 -26.1,-15.9 -35.1,-28.7 -7.4,-10.5 -9.7,-21.4 -9.8,-21.5 -0.2,-1 -1.2,-1.6 -2.2,-1.4 -1,0.2 -1.6,1.2 -1.4,2.2 0.1,0.5 2.6,11.8 10.3,22.9 9.4,13.4 21.4,23.2 36.6,30 0.4,0 0.6,0 0.9,0 z"
   id="path1016" />
		<path
   class="st0"
   d="m 1006.2,477.5 c 0.1,0 0.1,0 0.2,0 0.4,0 1.2,-0.1 2,-0.2 l 1.8,-0.2 c 1,-0.1 1.7,-1 1.6,-2 -0.1,-1 -1,-1.7 -2,-1.6 l -1.8,0.2 c -0.8,0.1 -1.6,0.2 -2,0.2 -1,0.1 -1.7,1 -1.6,2 0,0.9 0.8,1.6 1.8,1.6 z"
   id="path1018" />
		<path
   class="st0"
   d="m 1010.8,469.5 c 0,0 0.1,0 0.1,0 14.2,-1.1 25.3,-5 25.8,-5.1 0.9,-0.3 1.4,-1.4 1.1,-2.3 -0.3,-0.9 -1.4,-1.4 -2.3,-1.1 -0.1,0 -11.2,3.9 -24.9,5 -1,0.1 -1.7,1 -1.7,1.9 0.2,0.9 1,1.6 1.9,1.6 z"
   id="path1020" />
	</g>
	<g
   id="g1035"
   style="display:none">
		<g
   id="g1033">
			<g
   id="g1027">
				<g
   id="g1025">
					<path
   class="st1"
   d="m 1132,771.2 c -2,-1.9 -3.1,-4.5 -3.1,-7.2 0,-5.5 4.3,-9.9 9.7,-10.1 21.1,-0.7 38.8,-4.7 52.6,-12 15,-7.9 26.2,-19.3 33.2,-33.7 7.1,-14.6 10.6,-32.6 10.6,-53.5 v -27.1 c 0,-24.1 3.5,-43.3 10.3,-57 6.8,-13.7 18.7,-24.1 35.4,-30.7 -16.7,-6.5 -28.6,-16.7 -35.4,-30.5 -6.8,-13.7 -10.3,-32.9 -10.3,-57 v -27.1 c 0,-20.9 -3.6,-38.9 -10.6,-53.5 -7,-14.4 -18.1,-25.7 -33.2,-33.7 -13.8,-7.3 -31.4,-11.3 -52.6,-12 -5.4,-0.2 -9.7,-4.6 -9.7,-10.1 0,-2.7 1.1,-5.3 3.1,-7.2 2,-1.9 4.6,-2.9 7.4,-2.8 38.5,1.2 68,12.1 87.6,32.5 20.8,21.6 31.1,50.8 30.7,86.9 v 27.1 c 0,21.3 2.5,37.5 7.4,48.2 4.8,10.4 13.5,17.7 26.7,22.1 2.6,0.9 5.5,1.7 8.7,2.4 6.9,1.6 11.7,7.6 11.7,14.7 0,7 -4.7,13 -11.5,14.6 -3.2,0.8 -6.2,1.6 -8.8,2.5 -13.1,4.6 -22.1,12.1 -26.8,22.4 -4.9,10.7 -7.4,26.9 -7.4,48.2 v 27.1 c 0.5,36.1 -9.9,65.3 -30.7,86.9 -19.6,20.3 -49.1,31.2 -87.6,32.5 -0.1,0 -0.2,0 -0.3,0 -2.7,-0.1 -5.2,-1.1 -7.1,-2.9 z m 4.2,-458.1 c -0.8,0.8 -1.2,1.8 -1.2,2.9 0,2.2 1.7,4 3.9,4.1 22,0.7 40.6,5 55.2,12.7 16.2,8.6 28.2,20.8 35.8,36.4 7.5,15.4 11.2,34.3 11.2,56.1 v 27.1 c 0,23.2 3.2,41.4 9.6,54.3 v 0 c 6.2,12.6 17.4,22 33.2,27.9 2.1,0.8 4.5,1.6 7,2.3 l 9.8,2.8 -9.7,2.9 c -2.5,0.8 -4.9,1.5 -7,2.4 -15.8,6.1 -27,15.6 -33.2,28.2 -6.4,12.9 -9.6,31.2 -9.6,54.3 v 27.1 c 0,21.8 -3.8,40.7 -11.2,56.1 -7.5,15.6 -19.6,27.8 -35.8,36.4 -14.6,7.7 -33.1,12 -55.2,12.7 -2.2,0.1 -3.9,1.9 -3.9,4.1 0,1.1 0.4,2.1 1.2,2.9 0.8,0.8 1.9,1.2 3,1.2 36.9,-1.2 65,-11.5 83.4,-30.6 19.7,-20.4 29.4,-48.2 29,-82.7 v -27.1 c 0,-22.2 2.7,-39.2 7.9,-50.7 5.4,-11.8 15.6,-20.4 30.2,-25.6 2.8,-1 6,-1.9 9.4,-2.7 4.1,-1 6.9,-4.6 6.9,-8.8 0,-4.2 -2.9,-7.9 -7,-8.8 -3.4,-0.8 -6.5,-1.6 -9.3,-2.6 -14.7,-5 -24.9,-13.5 -30.3,-25.3 -5.2,-11.5 -7.9,-28.5 -7.9,-50.7 v -27.2 c 0.4,-34.4 -9.3,-62.2 -29,-82.6 -18.5,-19.2 -46.5,-29.5 -83.4,-30.6 0,0 -0.1,0 -0.1,0 -1.2,0 -2.2,0.4 -2.9,1.1 z"
   id="path1023" />
				</g>
			</g>
			<g
   id="g1031">
				<path
   class="st1"
   d="m 780.7,774 c -38.5,-1.2 -68,-12.1 -87.6,-32.5 -20.8,-21.6 -31.1,-50.8 -30.7,-86.8 v -27.1 c 0,-21.3 -2.5,-37.5 -7.4,-48.2 -4.7,-10.3 -13.7,-17.8 -26.8,-22.4 -2.6,-0.9 -5.6,-1.8 -8.8,-2.5 -6.8,-1.6 -11.5,-7.6 -11.5,-14.6 0,-7.1 4.8,-13.1 11.7,-14.7 v 0 c 3.2,-0.7 6.1,-1.5 8.7,-2.4 13.2,-4.5 22,-11.7 26.7,-22.1 4.9,-10.7 7.4,-26.9 7.4,-48.2 v -27.1 c -0.5,-36.1 9.9,-65.3 30.7,-86.9 19.6,-20.3 49.1,-31.2 87.6,-32.5 2.8,-0.1 5.4,0.9 7.4,2.8 2,1.9 3.1,4.5 3.1,7.2 0,5.5 -4.3,9.9 -9.7,10.1 -21.1,0.7 -38.8,4.7 -52.6,12 -15,7.9 -26.2,19.3 -33.2,33.7 -7.1,14.6 -10.6,32.6 -10.6,53.5 v 27.1 c 0,24.1 -3.5,43.3 -10.3,57 -6.8,13.7 -18.7,24 -35.4,30.5 16.7,6.7 28.6,17 35.4,30.7 6.8,13.7 10.3,32.9 10.3,57 v 27.1 c 0,20.9 3.6,38.9 10.6,53.5 7,14.4 18.1,25.7 33.2,33.7 13.8,7.3 31.4,11.3 52.6,12 5.5,0.2 9.7,4.6 9.7,10.1 0,2.7 -1.1,5.3 -3.1,7.2 -1.9,1.8 -4.4,2.9 -7,2.9 -0.2,-0.1 -0.3,-0.1 -0.4,-0.1 z m 0.1,-462 c -36.9,1.2 -65,11.5 -83.4,30.6 -19.7,20.4 -29.4,48.2 -29,82.7 v 27.1 c 0,22.2 -2.7,39.2 -7.9,50.7 -5.4,11.8 -15.6,20.4 -30.3,25.3 -2.8,0.9 -5.9,1.8 -9.3,2.6 v 0 c -4.1,0.9 -7,4.6 -7,8.8 0,4.2 2.8,7.8 6.9,8.8 3.4,0.8 6.6,1.7 9.4,2.7 14.7,5.2 24.8,13.8 30.2,25.6 5.2,11.5 7.9,28.5 7.9,50.7 v 27.2 c -0.4,34.4 9.3,62.2 29,82.6 18.5,19.2 46.5,29.5 83.4,30.6 1.1,0 2.2,-0.4 3,-1.2 0.8,-0.8 1.2,-1.8 1.2,-2.9 0,-2.2 -1.7,-4 -3.9,-4.1 -22,-0.7 -40.6,-5 -55.2,-12.7 -16.2,-8.6 -28.2,-20.8 -35.8,-36.4 -7.5,-15.4 -11.2,-34.3 -11.2,-56.1 v -27.1 c 0,-23.2 -3.2,-41.4 -9.6,-54.3 -6.3,-12.6 -17.4,-22.1 -33.2,-28.2 -2.1,-0.8 -4.5,-1.6 -7,-2.4 l -9.8,-2.9 9.8,-2.8 c 2.5,-0.7 4.9,-1.5 7,-2.3 15.8,-5.9 26.9,-15.3 33.2,-27.9 6.4,-12.9 9.6,-31.2 9.6,-54.3 v -27.1 c 0,-21.8 3.8,-40.7 11.2,-56.1 7.5,-15.6 19.6,-27.8 35.8,-36.4 14.6,-7.7 33.1,-12 55.2,-12.7 2.2,-0.1 3.9,-1.9 3.9,-4.1 0,-1.1 -0.4,-2.1 -1.2,-2.9 -0.8,-0.8 -1.8,-1.2 -2.9,-1.2 0.1,0.1 0.1,0.1 0,0.1 z"
   id="path1029" />
			</g>
		</g>
	</g>
</g>
<g
   inkscape:groupmode="layer"
   id="layer1"
   inkscape:label="curly-backets"
   transform="translate(-557.84001,-372.94377)"><text
     xml:space="preserve"
     style="font-style:normal;font-variant:normal;font-weight:normal;font-stretch:normal;font-size:602.883px;line-height:1.25;font-family:'Courier New';-inkscape-font-specification:'Courier New';display:inline;stroke-width:6.28003"
     x="308.63739"
     y="856.86658"
     id="text3345"
     transform="scale(1.3046756,0.76647406)"><tspan
       sodipodi:role="line"
       id="tspan3343"
       x="308.63739"
       y="856.86658"
       style="stroke-width:6.28003">{</tspan></text><text
     xml:space="preserve"
     style="font-style:normal;font-variant:normal;font-weight:normal;font-stretch:normal;font-size:602.883px;line-height:1.25;font-family:'Courier New';-inkscape-font-specification:'Courier New';display:inline;stroke-width:6.28003"
     x="816.30377"
     y="856.06573"
     id="text3345-8"
     transform="scale(1.3046756,0.76647406)"><tspan
       sodipodi:role="line"
       id="tspan3343-7"
       x="816.30377"
       y="856.06573"
       style="stroke-width:6.28003">}</tspan></text><path
     style="fill:#999999;stroke:#009a08;stroke-width:1.88365;stroke-dasharray:1.88365, 5.65096"
     d="m 684.25532,713.75226 c -22.72312,-2.59983 -44.28218,-13.43945 -54.15694,-27.22939 -7.04409,-9.83695 -7.11966,-10.47689 -7.11966,-60.29187 0,-30.72424 -0.36464,-45.59409 -1.18525,-48.33302 -2.42915,-8.10779 -12.0122,-16.1765 -23.94879,-20.16434 -3.43224,-1.14666 -11.71295,-2.71479 -18.40159,-3.48474 -13.44955,-1.54821 -17.43394,-2.96509 -19.69835,-7.00488 -1.23478,-2.2029 -1.28937,-3.22169 -0.29013,-5.41477 1.69598,-3.72229 6.93478,-5.64767 18.49681,-6.79803 18.0266,-1.79355 29.11051,-5.75945 36.711,-13.13548 8.16589,-7.92472 7.74434,-4.921 8.3163,-59.25744 l 0.51064,-48.51064 2.77934,-5.65919 c 8.77478,-17.86688 32.49889,-30.54683 63.15948,-33.75718 17.94472,-1.87892 29.55054,1.36628 29.55054,8.26285 0,5.74103 -4.92824,7.7171 -25.02127,10.03275 -5.05532,0.58261 -11.71915,1.88746 -14.80851,2.89966 -7.62165,2.49717 -17.16879,9.10602 -20.9138,14.47722 l -3.0862,4.42633 -0.54789,49.19069 c -0.42833,38.45665 -0.85626,49.9707 -1.96106,52.76517 -3.7943,9.59732 -10.09109,15.50893 -24.18824,22.70861 -4.69019,2.39537 -8.52762,4.585 -8.52762,4.86586 0,0.28085 4.0192,2.55296 8.93155,5.04914 11.09179,5.63621 20.42872,14.46915 23.27081,22.01469 1.75284,4.65367 1.97208,9.40717 2.4729,53.61702 0.54732,48.3141 0.55901,48.52586 2.88658,52.269 7.11876,11.44829 20.3727,17.22389 46.13095,20.10224 11.06498,1.23646 14.67158,3.14823 15.16238,8.03717 0.78278,7.79726 -12.05872,10.89291 -34.52398,8.32257 z"
     id="path26029" /><path
     style="fill:#666666;stroke:#009a08;stroke-width:1.88365;stroke-dasharray:1.88365, 5.65096"
     d="m 1227.6701,712.5381 c -1.9133,-0.67042 -4.4315,-2.50384 -5.596,-4.07427 -1.9545,-2.63577 -1.9982,-3.06766 -0.5692,-5.61702 2.2459,-4.00679 5.8872,-5.34458 17.6027,-6.46722 5.7334,-0.5494 13.0868,-1.65941 16.341,-2.4667 12.3921,-3.07424 23.3461,-10.30375 27.5653,-18.19284 2.2233,-4.15707 2.2716,-5.08365 2.7733,-53.25196 l 0.5107,-49.02128 2.7644,-5.24069 c 3.6781,-6.97301 12.1107,-14.30178 22.7484,-19.77075 4.7849,-2.46003 8.6999,-4.61295 8.6999,-4.78425 0,-0.17131 -4.0351,-2.33806 -8.967,-4.81501 -11.2464,-5.64825 -18.6416,-12.19609 -22.3858,-19.82068 l -2.8599,-5.82394 -0.5201,-48.51064 c -0.3689,-34.40494 -0.8753,-49.31176 -1.7417,-51.26576 -0.6718,-1.51532 -2.927,-4.64287 -5.0115,-6.95013 -7.6723,-8.49232 -18.3657,-12.71937 -37.1575,-14.68817 -13.7796,-1.44368 -18.7608,-3.21606 -20.6419,-7.34478 -0.9571,-2.10041 -0.8089,-2.99637 0.8665,-5.24044 2.9234,-3.91555 7.7156,-5.23925 19.27,-5.32275 26.3896,-0.19072 48.2464,7.67215 63.4161,22.81368 11.927,11.90491 11.6428,10.36663 11.6727,63.1856 0.015,26.36167 0.4463,45.98243 1.0714,48.72764 3.1781,13.95712 18.3282,23.10347 42.2949,25.53403 12.5106,1.26875 19.482,3.72892 20.8303,7.35089 2.1836,5.86579 -2.7141,9.84204 -13.7939,11.19867 -23.1071,2.82931 -33.8868,6.5249 -42.1188,14.43964 -8.0462,7.73608 -7.7357,5.49647 -8.3089,59.94486 l -0.5106,48.51064 -2.7761,5.10638 c -8.085,14.87194 -26.584,26.36638 -50.317,31.26482 -10.5536,2.17822 -29.7048,2.50099 -35.1517,0.59243 z"
     id="path26105" /><path
     style="fill:#999999;stroke:#009a08;stroke-width:1.88365;stroke-dasharray:1.88365, 5.65096"
     d="m 670.9396,338.96882 c -0.82104,-0.42839 -2.30747,-1.03142 -3.30319,-1.34006 -0.99572,-0.30864 -2.11113,-1.37583 -2.4787,-2.37155 -0.36756,-0.99572 -1.0789,-2.08733 -1.58074,-2.4258 -1.05723,-0.71306 4.92733,-7.02549 6.71436,-7.0822 1.04878,-0.0333 23.57198,-3.3985 30.17752,-4.50885 1.33446,-0.22432 2.91999,-0.90154 3.5234,-1.50496 0.60341,-0.60341 2.08291,-1.0971 3.28776,-1.0971 1.20486,0 3.02247,-0.91915 4.03914,-2.04256 1.01667,-1.1234 2.43022,-2.04255 3.14122,-2.04255 1.10905,0 4.33542,-2.97162 11.26871,-10.37892 0.87417,-0.93394 1.45054,-2.77224 1.28082,-4.0851 -0.16972,-1.31287 0.0662,-2.98923 0.52421,-3.72524 0.66579,-1.06984 1.64328,-49.00781 1.82442,-89.47238 0.021,-4.68708 0.51708,-7.55136 1.4736,-8.50787 0.79308,-0.79308 1.22451,-1.79382 0.95873,-2.22386 -0.63532,-1.02797 10.96449,-13.35131 12.56744,-13.35131 0.68074,0 1.49554,-0.67187 1.81065,-1.49303 0.31512,-0.82118 1.56452,-1.80355 2.77646,-2.18304 1.21194,-0.37951 3.29955,-1.54594 4.63913,-2.59208 1.33958,-1.04613 3.0822,-1.90206 3.87249,-1.90206 0.79029,0 2.40634,-0.90319 3.59123,-2.00708 1.78035,-1.65865 1.93014,-2.27722 0.86286,-3.56322 -0.71032,-0.85588 -1.64498,-1.33769 -2.07701,-1.07067 -0.43204,0.26702 -1.87358,-0.33082 -3.20343,-1.3285 -1.32985,-0.9977 -3.56685,-2.38836 -4.97111,-3.09036 -4.99367,-2.49638 -7.63884,-4.19298 -8.66345,-5.55668 -0.57127,-0.76033 -1.85335,-1.68819 -2.84907,-2.06192 -0.99572,-0.37372 -2.11439,-1.49417 -2.48594,-2.4899 -0.37154,-0.99571 -1.51006,-2.41093 -2.53002,-3.1449 -1.01997,-0.73398 -1.85449,-1.84673 -1.85449,-2.47277 0,-0.62606 -0.79726,-2.01924 -1.77169,-3.09596 -2.02546,-2.23812 -2.08872,-3.49341 -2.84278,-56.415914 -0.62216,-43.664954 -0.80002,-46.759442 -2.86901,-49.91712 -0.93941,-1.433719 -1.70801,-2.817367 -1.70801,-3.074772 0,-0.971044 -5.89728,-6.300416 -8.51092,-7.691322 -1.49772,-0.797044 -2.72313,-1.831087 -2.72313,-2.297872 0,-0.466786 -0.83131,-0.848702 -1.84735,-0.848702 -1.01605,0 -2.73945,-0.674745 -3.82979,-1.499435 -1.09034,-0.824689 -3.21914,-1.514051 -4.73067,-1.531915 -1.51153,-0.01786 -3.04586,-0.514044 -3.40962,-1.102624 -0.36376,-0.588579 -1.42493,-0.973181 -2.35815,-0.85467 -0.93321,0.118511 -3.30527,-0.08671 -5.27122,-0.456057 -1.96596,-0.369343 -5.41277,-0.865578 -7.65958,-1.102746 -13.32368,-1.406417 -18.96189,-3.63233 -19.58771,-7.733045 -0.55876,-3.6613334 3.75314,-7.1743737 9.65876,-7.869298 13.4537,-1.58311989 37.21831,0.8737461 42.89397,4.4345234 1.27969,0.8028517 2.70561,1.2255646 3.16869,0.9393621 0.46309,-0.2862026 1.71393,0.1396559 2.77966,0.9463521 1.06573,0.8066961 2.67072,1.4813364 3.56664,1.4992004 0.89593,0.01786 2.46077,0.951629 3.47744,2.075033 1.01666,1.123404 2.68023,2.042553 3.69682,2.042553 1.01658,0 2.34025,0.919149 2.94148,2.042554 0.60122,1.123404 1.75573,2.042553 2.56558,2.042553 0.80984,0 2.23464,1.163279 3.16623,2.585063 0.93159,1.421786 1.93894,2.339932 2.23854,2.040325 0.80507,-0.805067 4.28497,2.616993 4.28497,4.213748 0,0.755496 0.70378,1.37363 1.56396,1.37363 0.86018,0 1.84919,0.804255 2.19779,1.787234 0.3486,0.982978 1.19115,2.476595 1.87234,3.319149 2.27484,2.81374 2.80552,9.502681 3.07895,38.80851 0.14937,16.008511 0.54548,37.161892 0.88026,47.007532 0.68155,20.04403 1.31081,22.25013 8.18228,28.68609 6.69191,6.26777 7.45131,6.8005 10.71617,7.51759 1.7423,0.38267 3.16782,1.11882 3.16782,1.6359 0,0.51706 1.3516,0.94012 3.00355,0.94012 1.65196,0 3.25759,0.41104 3.56808,0.9134 0.57738,0.93422 4.21089,1.54924 15.86662,2.6856 3.63467,0.35435 7.05827,0.92228 7.60801,1.26203 0.54975,0.33976 2.08365,0.6652 3.40869,0.72321 1.32503,0.058 2.72696,0.61041 3.11539,1.22758 0.38844,0.61715 1.58199,1.29016 2.65232,1.49557 1.07034,0.2054 2.05606,1.06283 2.1905,1.90538 0.13444,0.84255 0.34718,1.99149 0.47275,2.55319 0.48559,2.17211 -0.0717,3.57447 -1.42044,3.57447 -0.77377,0 -1.93139,0.632 -2.57246,1.40447 -1.38803,1.67246 -10.25775,3.49041 -18.48876,3.78948 -1.40425,0.0511 -3.10025,0.5453 -3.76888,1.09839 -0.66864,0.55309 -2.04737,0.90025 -3.06383,0.77147 -1.01648,-0.12878 -3.1757,0.31012 -4.79829,0.97534 -1.62258,0.66522 -3.17657,0.98306 -3.4533,0.70633 -0.27674,-0.27674 -1.4642,0.16998 -2.6388,0.99271 -1.1746,0.82272 -2.97174,1.49585 -3.99365,1.49585 -1.02191,0 -2.8446,0.91915 -4.05043,2.04255 -1.20584,1.12341 -2.74228,2.04256 -3.41431,2.04256 -0.67204,0 -1.9747,1.14893 -2.8948,2.55319 -0.92011,1.40425 -2.35168,2.55319 -3.18129,2.55319 -0.8296,0 -1.50837,0.47574 -1.50837,1.0572 0,0.58147 -0.80426,2.28466 -1.78724,3.78488 -0.98298,1.50021 -1.87387,3.89681 -1.97975,5.32577 -0.55051,7.42913 -1.42038,44.7878 -1.62152,69.63991 -0.20443,25.25789 -0.41686,28.44141 -2.01575,30.20808 -0.98298,1.08612 -1.78723,2.73895 -1.78723,3.67295 0,0.93398 -0.91915,2.27217 -2.04256,2.97375 -1.1234,0.70158 -2.04255,1.74344 -2.04255,2.31525 0,1.72169 -13.28342,12.76689 -15.35399,12.76689 -0.69954,0 -1.79473,0.71502 -2.43374,1.58891 -0.63901,0.87391 -1.83861,1.70027 -2.66578,1.83636 -0.82716,0.13609 -2.50776,0.79979 -3.73467,1.47491 -1.2269,0.67511 -3.14179,1.22748 -4.25532,1.22748 -1.11352,0 -2.18458,0.47999 -2.38014,1.06665 -0.19555,0.58666 -1.49768,1.12754 -2.89361,1.20196 -1.39594,0.0744 -3.12846,0.58306 -3.85004,1.13031 -0.72159,0.54726 -2.67478,0.95626 -4.34043,0.90891 -1.66565,-0.0474 -3.02845,0.37736 -3.02845,0.94383 0,0.56647 -1.26383,0.9466 -2.80851,0.84475 -1.54468,-0.10182 -3.0383,-0.0674 -3.31915,0.0766 -1.31303,0.67315 -26.29786,0.54615 -27.61359,-0.14036 z"
     id="path26623"
     transform="translate(557.84001,372.94377)" /></g></svg>
